<svg xmlns="http://www.w3.org/2000/svg" xmlns:xlink="http://www.w3.org/1999/xlink" viewBox="0 0 256 256" id="svg2" version="1.1"><defs id="defs4"><linearGradient xlink:href="#linearGradient4697" id="linearGradient4703" y1="503.079" x1="418.17" y2="531.458" x2="384.571" gradientUnits="userSpaceOnUse" gradientTransform="matrix(1.20833 0 0 1.58889 -77.119 -310.68)"/><linearGradient id="linearGradient4697"><stop id="stop4699" stop-color="#4ce0c6"/><stop offset="1" id="stop4701" stop-color="#3b85b5"/></linearGradient><linearGradient xlink:href="#linearGradient4526" id="linearGradient4532" y1="521.633" x1="404.045" y2="528.35" x2="430.736" gradientUnits="userSpaceOnUse" gradientTransform="matrix(1.20833 0 0 1.58889 -77.119 -310.68)"/><linearGradient id="linearGradient4526"><stop id="stop4528" stop-color="#ffc169"/><stop offset="1" id="stop4530" stop-color="#ffa92d"/></linearGradient><linearGradient xlink:href="#linearGradient4468" id="linearGradient4474" y1="542.224" x1="398.092" y2="524.9" x2="394.003" gradientUnits="userSpaceOnUse" gradientTransform="matrix(1.20833 0 0 1.58889 -77.119 -310.68)"/><linearGradient id="linearGradient4468"><stop id="stop4470" stop-color="#334545"/><stop offset="1" id="stop4472" stop-color="#536161"/></linearGradient><linearGradient xlink:href="#linearGradient4468" id="linearGradient4500" y1="568.798" x1="431.571" y2="562.798" x2="439.571" gradientUnits="userSpaceOnUse" gradientTransform="matrix(-1.20833 0 0 1.58889 936.845 -374.236)"/><linearGradient xlink:href="#linearGradient4468" id="linearGradient4496" y1="572.334" x1="423.054" y2="566.766" x2="431.225" gradientUnits="userSpaceOnUse" gradientTransform="matrix(-1.20833 0 0 1.58889 936.845 -374.236)"/><style id="current-color-scheme" type="text/css"></style></defs><path d="M16 10h224c3.324 0 6 2.676 6 6v224c0 3.324-2.676 6-6 6H16c-3.324 0-6-2.676-6-6V16c0-3.324 2.676-6 6-6z" id="rect4240" fill="currentColor" fill-opacity=".5" stroke="none" color="#31363b"/><path d="M16 12h224c2.216 0 4 1.784 4 4v224c0 2.216-1.784 4-4 4H16c-2.216 0-4-1.784-4-4V16c0-2.216 1.784-4 4-4z" id="rect4238" fill="currentColor" fill-opacity="1" stroke="none" color="#eff0f1"/><g transform="matrix(2.82759 0 0 3.15385 -1049.891 -1498.748)" id="g4181"><path id="path4589" d="M387.571 489.798v52h58v-52h-58z" fill="url(#linearGradient4703)"/><path id="path4284" d="M445.571 489.798l-39.916 30.303 28.58 21.697h11.336v-52z" fill="url(#linearGradient4532)" stroke-width="2" stroke-linecap="round"/><path id="path4284-5-6" d="M405.696 519.986l-18.125 13.761v8.051h46.935l-28.81-21.812z" fill="url(#linearGradient4474)" stroke-width="2" stroke-linecap="round"/><path id="path4284-5-6-2-2" d="M415.675 527.563l-9.979-7.576v15.152z" fill="url(#linearGradient4500)" stroke-width="2" stroke-linecap="round"/><path id="path4284-5-6-2-6" d="M415.675 527.562v14.236h1.208l8.772-6.66-9.98-7.576z" fill="url(#linearGradient4496)" stroke-width="2" stroke-linecap="round"/><path id="path4284-1" d="M405.655 520.102l39.916-30.304v14.804z" fill="#ffa92d" stroke-width="2" stroke-linecap="round"/></g></svg>