<svg xmlns="http://www.w3.org/2000/svg" viewBox="0 0 256 256" id="svg2" version="1.1"><defs id="defs4"><style id="current-color-scheme" type="text/css"></style></defs><path d="M16 10h224c3.324 0 6 2.676 6 6v224c0 3.324-2.676 6-6 6H16c-3.324 0-6-2.676-6-6V16c0-3.324 2.676-6 6-6z" id="rect4240" fill="currentColor" fill-opacity=".5" stroke="none" color="#31363b"/><path d="M16 12h224c2.216 0 4 1.784 4 4v224c0 2.216-1.784 4-4 4H16c-2.216 0-4-1.784-4-4V16c0-2.216 1.784-4 4-4z" id="rect4238" fill="currentColor" fill-opacity="1" stroke="none" color="#eff0f1"/><path id="rect6956" d="M24 47h208v1H24z" fill="currentColor" fill-opacity="1" stroke="none" color="#3daee9"/><path id="path4491" d="M59.193 24.43c-.767 0-1.341.214-1.722.642-.381.429-.57 1.156-.57 2.182v.531l-1.485.135-.039.691H56.9v7.56h1.317v-7.56h1.992v-.834h-1.992v-.603c0-.392.024-.705.072-.944.048-.243.125-.422.236-.539a.831.831 0 0 1 .373-.238c.133-.037.311-.055.534-.055.275 0 .544.026.808.079l.096-.913a6.38 6.38 0 0 0-1.143-.134zm21.28.062l-1.301.096v9.18c0 .502.057.92.174 1.253.116.328.297.58.54.754.244.175.518.297.825.366a5.93 5.93 0 0 0 1.158.095h.627l.072-.904-.357-.023a37.35 37.35 0 0 1-.531-.041 7.913 7.913 0 0 1-.412-.063 1.212 1.212 0 0 1-.327-.111 1.938 1.938 0 0 1-.214-.174.58.58 0 0 1-.159-.264 4.054 4.054 0 0 1-.07-.363 4.415 4.415 0 0 1-.025-.5v-9.3zm-44.258.096v11.584h3.514c1.856 0 3.317-.505 4.38-1.516 1.064-1.01 1.594-2.446 1.594-4.308 0-.783-.097-1.488-.293-2.118-.196-.634-.472-1.177-.832-1.626a4.73 4.73 0 0 0-1.31-1.127 5.82 5.82 0 0 0-1.713-.674 9.28 9.28 0 0 0-2.055-.215h-3.285zm49.654.889l-1.055.08-.214 2.22-1.293.088-.034.746h1.295v5.047c0 .513.045.927.135 1.244.09.318.25.581.483.787.238.207.546.349.921.428.376.08.867.12 1.475.12h.549l.062-.905-.666-.033c-.703-.027-1.156-.136-1.357-.332-.201-.201-.3-.637-.3-1.309v-5.047h2.22v-.834h-2.22v-2.3zm-48.258.158h1.825c1.592 0 2.801.383 3.626 1.15.831.762 1.245 1.964 1.245 3.604 0 1.544-.391 2.72-1.174 3.523-.778.799-1.938 1.197-3.483 1.197h-2.039v-9.474zm13.535 1.969c-1.11 0-2.024.398-2.744 1.197-.72.799-1.08 1.871-1.08 3.215 0 1.327.369 2.378 1.104 3.156.735.772 1.693 1.16 2.873 1.16 1.058 0 2.001-.246 2.832-.738l-.277-.93a8.075 8.075 0 0 1-1.208.5c-.36.111-.758.168-1.197.168-.81 0-1.466-.256-1.969-.77-.502-.518-.774-1.312-.816-2.38h5.672l.049-.666c0-1.228-.279-2.186-.834-2.873-.55-.693-1.352-1.04-2.405-1.04zm13.665 0c-1.122 0-2.132.209-3.032.626l.358.967a5.655 5.655 0 0 1 1.316-.427 6.586 6.586 0 0 1 1.381-.159c.635 0 1.098.15 1.389.451.296.302.445.76.445 1.374v.826h-1.342c-1.349 0-2.332.214-2.951.642-.614.423-.92 1.089-.92 1.998 0 .762.232 1.359.697 1.787.471.429 1.093.643 1.866.643 1.153 0 2.089-.443 2.808-1.326l.143 1.158h1v-5.537c0-1.069-.276-1.84-.826-2.31-.545-.477-1.322-.713-2.332-.713zm5.22.173v5.127c0 1.138.25 1.994.746 2.57.503.572 1.24.858 2.213.858.688 0 1.23-.104 1.627-.31a2.66 2.66 0 0 0 1.008-.952l.135 1.102h1.142v-8.395h-1.316v4.713c0 .333-.025.64-.072.914-.048.275-.13.534-.246.778a1.888 1.888 0 0 1-.452.609 1.93 1.93 0 0 1-.699.39 3 3 0 0 1-.967.143c-.645 0-1.108-.194-1.388-.58-.275-.386-.414-.951-.414-1.697v-5.27H70.03zm-18.851.834c1.333 0 2.03.904 2.093 2.713h-4.57c.074-.836.333-1.496.777-1.982.45-.487 1.017-.73 1.7-.73zm14.48 3.524h1.008v1.847c-.63.926-1.488 1.39-2.572 1.39-.397 0-.726-.128-.99-.382-.265-.254-.399-.612-.399-1.078 0-.26.025-.478.072-.652.048-.18.135-.342.262-.49a1.23 1.23 0 0 1 .523-.358c.223-.09.506-.16.85-.207.344-.048.76-.07 1.246-.07zm-5.404 30.853l-1.3.094v9.182c0 .502.057.92.173 1.254.116.328.296.579.539.753.243.175.52.295.826.364a5.93 5.93 0 0 0 1.158.095h.627l.073-.904-.358-.023a43.846 43.846 0 0 1-.531-.04 8.107 8.107 0 0 1-.414-.064 1.195 1.195 0 0 1-.324-.111 1.938 1.938 0 0 1-.215-.174.573.573 0 0 1-.158-.262 4.063 4.063 0 0 1-.073-.365 4.466 4.466 0 0 1-.023-.5v-9.299zm42.521 0l-1.316.094v2.611l.062 1.912a3.34 3.34 0 0 0-.404-.595 2.55 2.55 0 0 0-.508-.467 2.118 2.118 0 0 0-.722-.334 3.726 3.726 0 0 0-.951-.111c-1.111 0-1.992.398-2.643 1.191-.645.794-.969 1.832-.969 3.117 0 1.354.313 2.432.938 3.23.63.794 1.523 1.19 2.681 1.19 1.201 0 2.073-.547 2.618-1.642l.119 1.484h1.095v-11.68zm-66.332.094l-.23 11.586h1.316l.112-7.15V64.78l3.65 8.592h1.197l3.674-8.496v2.61l.111 7.181h1.301l-.23-11.586H45.68l-3.768 8.8-3.754-8.8h-1.713zm34.133 0a.865.865 0 0 0-.627.238.8.8 0 0 0-.236.604c0 .248.077.452.236.611a.865.865 0 0 0 .627.238c.249 0 .455-.08.62-.238a.814.814 0 0 0 .245-.611.789.789 0 0 0-.246-.604.838.838 0 0 0-.619-.238zm35.2 0a.865.865 0 0 0-.628.238.802.802 0 0 0-.238.604c0 .248.08.452.238.611a.865.865 0 0 0 .627.238c.249 0 .456-.08.62-.238a.812.812 0 0 0 .244-.611c0-.249-.08-.45-.245-.604a.838.838 0 0 0-.619-.238zm-40.126.889l-1.056.08-.213 2.22-1.295.088-.031.746h1.293v5.047c0 .513.044.929.134 1.246.09.318.252.58.485.786.238.206.544.348.92.427.375.08.868.12 1.476.12h.547l.065-.905-.666-.031c-.704-.027-1.157-.138-1.358-.334-.2-.201-.3-.637-.3-1.309v-5.047h2.22v-.832h-2.22v-2.302zm11.75 2.127c-1.073 0-1.935.47-2.586 1.412l-.15-1.237h-1.064v8.395h1.318v-5.12c.111-.734.353-1.324.728-1.769.381-.45.894-.674 1.54-.674.587 0 .99.22 1.207.659.216.433.326 1.165.326 2.191v4.713h1.316v-4.309c.016-.73.046-1.167.088-1.31.143-.63.412-1.11.809-1.444.396-.333.85-.5 1.357-.5.227 0 .424.035.594.104a.863.863 0 0 1 .414.3c.106.138.19.28.254.423.063.137.108.32.134.547.027.227.042.419.047.578.01.153.016.357.016.611v5h1.318v-5.412c0-2.105-.858-3.158-2.572-3.158-1.217 0-2.14.57-2.77 1.707-.195-.535-.472-.953-.831-1.254-.36-.302-.858-.453-1.493-.453zm13.164 0c-1.11 0-2.026.4-2.746 1.199-.72.799-1.078 1.87-1.078 3.213 0 1.327.366 2.38 1.102 3.158.735.772 1.693 1.158 2.873 1.158 1.058 0 2.001-.246 2.832-.738l-.278-.928a8.061 8.061 0 0 1-1.205.5c-.36.111-.76.166-1.199.166-.81 0-1.464-.256-1.967-.77-.502-.518-.776-1.312-.818-2.38h5.674l.047-.666c0-1.227-.277-2.186-.832-2.873-.55-.693-1.352-1.04-2.405-1.04zm21.313 0c-1.122 0-2.132.209-3.031.627l.357.968c.386-.185.825-.329 1.316-.43a6.586 6.586 0 0 1 1.381-.158c.635 0 1.098.152 1.389.454.296.301.443.757.443 1.37v.827h-1.34c-1.348 0-2.332.214-2.95.642-.614.424-.923 1.09-.923 2 0 .762.234 1.357.7 1.786.47.428 1.09.642 1.863.642 1.153 0 2.091-.443 2.81-1.326l.143 1.16h1v-5.539c0-1.068-.276-1.838-.826-2.309-.545-.476-1.322-.714-2.332-.714zm-62.065.175v5.125c0 1.138.25 1.994.747 2.57.502.572 1.24.858 2.212.858.688 0 1.23-.104 1.627-.31a2.66 2.66 0 0 0 1.008-.952l.135 1.104h1.143v-8.395h-1.317v4.713c0 .334-.025.637-.072.912-.048.275-.13.534-.246.778a1.897 1.897 0 0 1-.451.611c-.18.164-.414.294-.7.389-.28.095-.603.142-.968.142-.646 0-1.109-.194-1.389-.58-.275-.386-.412-.951-.412-1.697v-5.268h-1.317zm20.106 0v8.395h1.3v-8.395h-1.3zm35.197 0v8.395h1.303v-8.395h-1.303zm-14.52.832c1.334 0 2.033.904 2.096 2.713h-4.57c.074-.835.333-1.495.777-1.982.45-.487 1.015-.73 1.698-.73zm8.53 0c.783 0 1.373.292 1.77.874.402.581.603 1.44.603 2.578-.005 1.042-.2 1.846-.58 2.412-.38.566-1.001.85-1.863.85-.82 0-1.427-.302-1.819-.905-.386-.603-.578-1.432-.578-2.484 0-1.058.207-1.875.62-2.451.412-.582 1.027-.874 1.847-.874zm13.6 3.524h1.007v1.848c-.63.925-1.486 1.388-2.57 1.388-.397 0-.728-.127-.992-.38-.265-.255-.397-.613-.397-1.079 0-.259.025-.476.073-.65.047-.18.134-.344.261-.492a1.23 1.23 0 0 1 .524-.358c.222-.09.506-.16.85-.207.343-.047.757-.07 1.244-.07zm-76.512 30.853v11.584h1.396v-5.601h2.506c1.307 0 2.26-.264 2.858-.793.597-.534.896-1.32.896-2.358 0-.507-.092-.946-.277-1.316a2.099 2.099 0 0 0-.785-.889 3.76 3.76 0 0 0-1.176-.476c-.44-.1-.935-.15-1.49-.15h-3.928zm15.955 0a.865.865 0 0 0-.627.239.8.8 0 0 0-.236.603c0 .249.077.45.236.61a.865.865 0 0 0 .627.238c.249 0 .455-.08.62-.238a.81.81 0 0 0 .245-.61.789.789 0 0 0-.246-.603.838.838 0 0 0-.62-.239zm21.766.89l-1.055.08-.215 2.22-1.293.088-.033.746h1.295v5.045c0 .513.045.929.135 1.246.09.317.25.579.482.785.238.206.546.35.922.43.375.08.866.119 1.474.119h.55l.062-.904-.666-.034c-.704-.026-1.157-.136-1.358-.332-.2-.2-.3-.638-.3-1.31v-5.045h2.22v-.834h-2.22v-2.3zm-36.325.157h2.524c.761 0 1.34.137 1.736.412.402.27.604.733.604 1.39 0 .76-.182 1.296-.547 1.603-.36.306-.975.46-1.842.46H37.61v-3.865zm29.23 1.969c-1.12 0-2.131.21-3.03.627l.357.967a5.655 5.655 0 0 1 1.316-.428 6.587 6.587 0 0 1 1.381-.158c.635 0 1.098.15 1.389.451.296.302.445.76.445 1.373v.824h-1.342c-1.348 0-2.332.216-2.95.645-.614.423-.92 1.088-.92 1.998 0 .762.231 1.357.697 1.785.47.429 1.093.643 1.865.643 1.153 0 2.089-.441 2.808-1.325L69 113.06h1v-5.54c0-1.068-.276-1.837-.826-2.308-.545-.476-1.322-.713-2.332-.713zm14.458 0c-1.111 0-2.027.399-2.746 1.197-.72.8-1.078 1.87-1.078 3.213 0 1.328.366 2.38 1.101 3.158.735.773 1.694 1.159 2.873 1.159 1.058 0 2.002-.245 2.832-.737l-.277-.93a8.059 8.059 0 0 1-1.205.5c-.36.112-.76.169-1.2.169-.809 0-1.464-.259-1.966-.772-.503-.518-.776-1.31-.819-2.379h5.674l.047-.668c0-1.227-.276-2.183-.832-2.87-.55-.694-1.352-1.04-2.404-1.04zm-31.992.086c-.508 0-.993.144-1.453.43-.455.28-.841.72-1.159 1.324l-.142-1.666h-1.055v8.394h1.316v-4.752c0-.745.234-1.378.7-1.896.47-.518 1.065-.777 1.785-.777.148 0 .327.02.539.062l.055-1.078a3.522 3.522 0 0 0-.586-.041zm2.205.088v8.394h1.3v-8.394h-1.3zm3.047 0l3.246 8.394h1.324l3.182-8.394h-1.34c-.275.772-.693 1.927-1.254 3.467-.556 1.539-.971 2.696-1.246 3.468-.344-.91-.842-2.248-1.492-4.015a559.646 559.646 0 0 0-1.07-2.92h-1.35zm26.771.834c1.333 0 2.032.904 2.096 2.713h-4.57c.074-.836.332-1.498.777-1.985.45-.486 1.015-.728 1.697-.728zm-13.639 3.521H68.7v1.85c-.63.926-1.488 1.389-2.572 1.389-.397 0-.726-.127-.99-.381-.265-.254-.399-.615-.399-1.08 0-.26.025-.476.073-.65a1.235 1.235 0 0 1 .785-.848c.222-.09.505-.16.85-.207.343-.048.759-.073 1.245-.073zm-25.986 30.854c-1.137 0-2.123.254-2.959.762a4.818 4.818 0 0 0-1.889 2.11c-.428.9-.642 1.948-.642 3.143 0 1.175.206 2.2.619 3.079a4.71 4.71 0 0 0 1.871 2.062c.836.497 1.834.746 2.992.746.862 0 1.637-.142 2.324-.428a4.584 4.584 0 0 0 1.708-1.214 5.391 5.391 0 0 0 1.039-1.856c.243-.72.365-1.51.365-2.373 0-1.19-.214-2.238-.643-3.143a4.825 4.825 0 0 0-1.873-2.126c-.825-.508-1.796-.762-2.912-.762zm10.441 0c-.767 0-1.34.214-1.72.642-.381.429-.572 1.158-.572 2.184v.531l-1.485.135-.039.69h1.524v7.562h1.318v-7.563h1.99v-.832h-1.99v-.603c0-.392.023-.705.07-.943.048-.244.127-.425.238-.541a.83.83 0 0 1 .374-.239c.132-.037.309-.054.53-.054.276 0 .545.027.81.08l.095-.914a6.383 6.383 0 0 0-1.143-.135zm5.555 0c-.767 0-1.342.214-1.722.642-.381.429-.57 1.158-.57 2.184v.531l-1.485.135-.04.69h1.524v7.562h1.317v-7.563h1.992v-.832h-1.992v-.603c0-.392.024-.705.072-.943.047-.244.127-.425.238-.541a.83.83 0 0 1 .373-.239c.132-.037.31-.054.531-.054.276 0 .545.027.81.08l.095-.914a6.383 6.383 0 0 0-1.143-.135zm3.451.16a.865.865 0 0 0-.627.238.798.798 0 0 0-.238.602c0 .248.08.452.238.611a.865.865 0 0 0 .627.238c.249 0 .456-.08.62-.238a.814.814 0 0 0 .246-.611.784.784 0 0 0-.247-.602.838.838 0 0 0-.619-.238zm-19.455.943c.878 0 1.625.214 2.239.643a3.745 3.745 0 0 1 1.363 1.738c.29.725.437 1.571.437 2.54 0 .698-.082 1.335-.246 1.911a4.47 4.47 0 0 1-.738 1.5 3.228 3.228 0 0 1-1.27 1c-.523.238-1.123.356-1.8.356-.9 0-1.659-.21-2.278-.627a3.63 3.63 0 0 1-1.357-1.682c-.286-.703-.428-1.522-.428-2.459 0-.968.147-1.817.444-2.547.301-.735.761-1.315 1.38-1.738.625-.423 1.376-.635 2.254-.635zm26.041 2.07c-1.169 0-2.117.396-2.847 1.184-.73.783-1.096 1.859-1.096 3.229 0 1.312.354 2.36 1.062 3.142.715.783 1.673 1.174 2.873 1.174.514 0 .974-.06 1.381-.181.408-.122.701-.254.881-.397l-.246-.896a3.49 3.49 0 0 1-1.77.459c-.925 0-1.63-.304-2.11-.913-.482-.608-.721-1.404-.721-2.388 0-1.037.25-1.861.753-2.475.503-.613 1.168-.922 1.998-.922.656 0 1.241.154 1.754.461l.373-.904c-.18-.122-.47-.246-.873-.373-.396-.132-.867-.2-1.412-.2zm7.086 0c-1.11 0-2.026.401-2.746 1.2-.72.799-1.078 1.87-1.078 3.213 0 1.328.366 2.38 1.102 3.158.735.772 1.693 1.158 2.873 1.158 1.058 0 2.001-.246 2.832-.738l-.278-.928a8.062 8.062 0 0 1-1.205.5c-.36.111-.76.166-1.199.166-.81 0-1.464-.256-1.967-.77-.502-.518-.776-1.312-.818-2.38h5.674l.047-.666c0-1.227-.277-2.184-.832-2.871-.55-.693-1.352-1.041-2.405-1.041zm-14.33.176v8.395h1.3v-8.395h-1.3zm14.361.832c1.333 0 2.033.906 2.096 2.715h-4.57c.074-.835.333-1.497.777-1.984.45-.487 1.015-.73 1.697-.73zm21.44 34.377c-.767 0-1.342.215-1.723.643-.38.428-.57 1.155-.57 2.182v.533l-1.484.135-.04.69h1.524v7.562h1.316v-7.563h1.993v-.832h-1.993v-.603c0-.392.025-.708.073-.946.047-.243.127-.422.238-.539a.83.83 0 0 1 .373-.238c.132-.037.309-.055.531-.055.275 0 .544.025.809.078l.096-.912a6.383 6.383 0 0 0-1.143-.135zm5.555 0c-.767 0-1.342.215-1.723.643-.38.428-.57 1.155-.57 2.182v.533l-1.485.135-.039.69h1.524v7.562h1.316v-7.563h1.992v-.832h-1.992v-.603c0-.392.025-.708.072-.946.048-.243.126-.422.237-.539a.83.83 0 0 1 .373-.238c.132-.037.31-.055.533-.055.275 0 .544.025.809.078l.095-.912a6.383 6.383 0 0 0-1.142-.135zm-64.334.065l-1.301.094v11.586h1.3v-3.073l.905-.855 3.332 3.928h1.549l-3.969-4.563 3.666-3.832h-1.594l-3.935 4.26.047-1.73v-5.815zm13.814 0l-1.318.094v2.61l.064 1.913a3.34 3.34 0 0 0-.404-.596 2.55 2.55 0 0 0-.508-.466 2.118 2.118 0 0 0-.723-.334 3.73 3.73 0 0 0-.95-.112c-1.112 0-1.993.398-2.643 1.192-.646.793-.97 1.831-.97 3.117 0 1.354.312 2.432.936 3.23.63.794 1.526 1.19 2.684 1.19 1.2 0 2.072-.548 2.617-1.643l.12 1.485h1.095v-11.68zm29.016.982l-1.055.08-.215 2.223-1.293.086-.031.746h1.293v5.047c0 .513.045.929.135 1.246.09.317.251.579.484.785.238.206.544.349.92.428.376.08.868.12 1.477.12h.546l.065-.905-.668-.031c-.704-.027-1.155-.139-1.356-.334-.2-.201-.302-.637-.302-1.309v-5.047h2.222v-.832h-2.222v-2.303zm-23.487 2.127c-1.11 0-2.024.4-2.744 1.2-.72.798-1.08 1.869-1.08 3.212 0 1.328.368 2.381 1.104 3.159.735.772 1.693 1.158 2.873 1.158 1.058 0 2.001-.247 2.832-.738l-.278-.928a8.075 8.075 0 0 1-1.207.5c-.36.11-.758.166-1.197.166-.81 0-1.466-.257-1.969-.77-.502-.518-.774-1.312-.816-2.38h5.672l.049-.667c0-1.227-.279-2.185-.834-2.873-.55-.693-1.352-1.039-2.405-1.039zm17.155 0c-.878 0-1.56.212-2.047.635-.487.418-.729.968-.729 1.65 0 .55.14 1 .42 1.35.28.344.798.638 1.555.88l.92.294c.608.196 1.029.405 1.262.627.232.222.35.496.35.824 0 .476-.14.842-.42 1.096-.281.248-.677.373-1.184.373-.81 0-1.716-.241-2.721-.723v1.104c.867.412 1.743.619 2.627.619.397 0 .76-.048 1.094-.143.338-.095.64-.239.904-.43.27-.19.481-.444.635-.761.153-.323.23-.692.23-1.11 0-.338-.03-.624-.094-.857a1.76 1.76 0 0 0-.35-.666 2.174 2.174 0 0 0-.706-.541 6.814 6.814 0 0 0-1.15-.459l-.833-.262c-.544-.174-.903-.339-1.072-.492-.17-.153-.254-.402-.254-.746 0-.407.13-.716.389-.928.264-.217.702-.326 1.31-.326.683 0 1.388.185 2.118.555l.31-.975a5.721 5.721 0 0 0-2.564-.588zm10.3.176v5.125c0 1.137.247 1.994.745 2.57.502.572 1.241.858 2.214.858.688 0 1.23-.104 1.627-.31a2.66 2.66 0 0 0 1.008-.952l.135 1.104h1.143v-8.395h-1.319v4.713c0 .333-.023.637-.07.912-.048.275-.13.534-.246.777a1.902 1.902 0 0 1-.453.612 1.92 1.92 0 0 1-.698.388c-.28.096-.603.143-.968.143-.646 0-1.109-.194-1.389-.58-.275-.386-.412-.951-.412-1.697v-5.268h-1.317zm-36.634.832c.783 0 1.372.291 1.77.873.401.582.603 1.441.603 2.578-.006 1.042-.2 1.846-.58 2.412-.381.566-1.003.85-1.866.85-.82 0-1.425-.301-1.816-.904-.386-.603-.578-1.432-.578-2.485 0-1.058.204-1.874.617-2.45.413-.583 1.03-.874 1.85-.874zm9.213 0c1.333 0 2.03.904 2.093 2.713h-4.57c.074-.836.333-1.496.777-1.982.45-.487 1.017-.73 1.7-.73zm6.076 1.897v1.07h5.308v-1.07H62.97zm11.728 32.48l-1.3.096v9.18c0 .502.057.92.173 1.253.117.328.296.58.54.754.243.175.519.297.826.365.312.064.698.094 1.158.094v.002h.627l.07-.904-.355-.026c-.228-.016-.407-.028-.534-.039a7.14 7.14 0 0 1-.412-.062 1.174 1.174 0 0 1-.324-.111 1.965 1.965 0 0 1-.215-.176.573.573 0 0 1-.158-.262 4.059 4.059 0 0 1-.072-.365 4.466 4.466 0 0 1-.024-.5v-9.299zm-38.482.096v11.584h3.514c1.856 0 3.317-.506 4.38-1.516 1.064-1.01 1.594-2.446 1.594-4.308 0-.783-.097-1.49-.293-2.12-.196-.634-.472-1.175-.832-1.625a4.73 4.73 0 0 0-1.31-1.127 5.823 5.823 0 0 0-1.713-.675 9.28 9.28 0 0 0-2.055-.213h-3.285zm93.262.888l-1.055.079-.215 2.222-1.293.088-.031.744h1.293v5.047c0 .513.045.929.135 1.246.09.318.251.579.484.785.238.207.544.35.92.43.375.08.868.117 1.476.117v.002h.547l.065-.904-.668-.033c-.704-.027-1.155-.137-1.356-.332-.2-.201-.302-.64-.302-1.31v-5.046h2.222v-.834h-2.222v-2.3zm-91.866.159h1.825c1.592 0 2.801.383 3.627 1.15.83.762 1.244 1.962 1.244 3.602 0 1.544-.391 2.719-1.174 3.523-.778.799-1.938 1.2-3.483 1.2h-2.039v-9.475zm13.535 1.966c-1.11 0-2.024.4-2.744 1.2-.72.798-1.08 1.869-1.08 3.213 0 1.327.369 2.38 1.104 3.158.735.772 1.693 1.158 2.873 1.158 1.058 0 2.001-.246 2.832-.738l-.277-.928a8.07 8.07 0 0 1-1.208.5c-.36.111-.758.166-1.197.166-.81 0-1.466-.257-1.969-.77-.502-.518-.774-1.31-.816-2.378h5.672l.049-.668c0-1.228-.279-2.184-.834-2.872-.55-.692-1.352-1.04-2.405-1.04zm17.045 0c-1.11 0-2.026.4-2.746 1.2-.72.798-1.08 1.869-1.08 3.213 0 1.327.368 2.38 1.104 3.158.735.772 1.693 1.158 2.873 1.158 1.058 0 2.001-.246 2.832-.738l-.278-.928a8.07 8.07 0 0 1-1.207.5c-.36.111-.758.166-1.197.166-.81 0-1.466-.257-1.969-.77-.502-.518-.774-1.31-.816-2.378h5.674l.047-.668c0-1.228-.277-2.184-.832-2.872-.55-.692-1.352-1.04-2.405-1.04zm13.647 0c-1.233 0-2.2.403-2.904 1.207-.699.8-1.047 1.857-1.047 3.174 0 1.286.353 2.334 1.062 3.143.709.804 1.672 1.205 2.889 1.205 1.19 0 2.148-.404 2.873-1.213.725-.815 1.086-1.86 1.086-3.135 0-1.317-.349-2.375-1.047-3.174-.698-.804-1.669-1.207-2.912-1.207zm9.64 0c-1.21 0-2.127.548-2.746 1.643l-.134-1.467h-1.094v12.076h1.316v-3.158l-.054-1.943c.624 1.052 1.52 1.578 2.69 1.578 1.1 0 1.956-.396 2.57-1.19.613-.793.92-1.84.92-3.142 0-1.354-.297-2.425-.89-3.213-.587-.788-1.445-1.184-2.577-1.184zm8.999 0c-1.074 0-1.936.473-2.586 1.414l-.153-1.238h-1.062v8.395h1.316v-5.117c.111-.736.355-1.326.73-1.77.382-.45.894-.676 1.54-.676.587 0 .99.221 1.207.66.217.434.324 1.164.324 2.19v4.713h1.318v-4.309c.016-.73.044-1.166.086-1.308.143-.63.414-1.112.81-1.446.398-.333.848-.5 1.356-.5.228 0 .427.035.596.104a.861.861 0 0 1 .412.302c.106.138.19.278.254.42.063.138.108.32.135.547.026.228.043.422.049.58.01.154.015.358.015.612v4.998h1.317v-5.412c0-2.106-.857-3.159-2.57-3.159-1.217 0-2.14.57-2.77 1.707-.196-.534-.473-.952-.832-1.253-.36-.302-.858-.454-1.493-.454zm13.164 0c-1.111 0-2.027.4-2.746 1.2-.72.798-1.08 1.869-1.08 3.213 0 1.327.368 2.38 1.103 3.158.735.772 1.693 1.158 2.873 1.158 1.058 0 2.002-.246 2.832-.738l-.277-.928a8.07 8.07 0 0 1-1.207.5c-.36.111-.759.166-1.198.166-.809 0-1.466-.257-1.968-.77-.503-.518-.774-1.31-.817-2.378h5.674l.047-.668c0-1.228-.277-2.184-.832-2.872-.55-.692-1.352-1.04-2.404-1.04zm9.164 0c-1.265 0-2.215.446-2.85 1.334l-.142-1.158h-1.143v8.395h1.318v-4.682c0-1.92.862-2.88 2.586-2.88.64 0 1.088.193 1.342.58.254.38.38.948.38 1.704v5.278h1.317v-5.135c0-1.153-.23-2.012-.691-2.578-.455-.571-1.16-.858-2.117-.858zm-67.262.176l3.246 8.395h1.324l3.182-8.395h-1.342c-.275.773-.691 1.928-1.252 3.467-.555 1.54-.97 2.695-1.246 3.467-.344-.91-.841-2.247-1.492-4.014a562.253 562.253 0 0 0-1.07-2.92h-1.35zm-4.363.832c1.333 0 2.03.906 2.093 2.715h-4.57c.074-.836.333-1.498.777-1.984.45-.487 1.017-.73 1.7-.73zm17.043 0c1.333 0 2.03.906 2.093 2.715h-4.57c.074-.836.333-1.498.777-1.984.45-.487 1.017-.73 1.7-.73zm13.615 0c.862 0 1.512.311 1.951.93.44.614.66 1.433.66 2.459 0 .656-.09 1.23-.27 1.723-.18.486-.47.877-.872 1.173-.397.291-.887.436-1.47.436-.845 0-1.49-.306-1.935-.92-.444-.614-.666-1.42-.666-2.42 0-1.02.222-1.837.666-2.451.445-.619 1.09-.93 1.936-.93zm9.49 0c1.513 0 2.27 1.125 2.27 3.373 0 2.227-.784 3.34-2.35 3.34-.793 0-1.406-.304-1.84-.912-.428-.608-.642-1.462-.642-2.562.005-1.016.217-1.81.634-2.381.418-.572 1.06-.858 1.928-.858zm22.344 0c1.333 0 2.03.906 2.094 2.715h-4.57c.073-.836.332-1.498.777-1.984.45-.487 1.017-.73 1.699-.73z" fill="currentColor" fill-opacity="1" stroke="none" color="#4d4d4d"/></svg>