<svg xmlns="http://www.w3.org/2000/svg" viewBox="0 0 256 256"><defs id="defs4"><style id="current-color-scheme" type="text/css"></style></defs><path d="M16 10h224c3.324 0 6 2.676 6 6v224c0 3.324-2.676 6-6 6H16c-3.324 0-6-2.676-6-6V16c0-3.324 2.676-6 6-6z" id="rect4240" fill="currentColor" fill-opacity=".5" stroke="none" color="#31363b"/><path d="M16 12h224c2.216 0 4 1.784 4 4v224c0 2.216-1.784 4-4 4H16c-2.216 0-4-1.784-4-4V16c0-2.216 1.784-4 4-4z" id="rect4238" fill="currentColor" fill-opacity="1" stroke="none" color="#eff0f1"/><path d="M71.402 20.037c-.135 0-.302.016-.5.047-.614.104-1.157.503-1.63 1.195-.474.693-.711 1.397-.711 2.116 0 .437.11.802.328 1.093.125.167.365.326.718.477.354.15.718.253 1.092.305 1.28.166 1.922.545 1.922 1.138 0 .219-.073.469-.219.75a1.94 1.94 0 0 1-.78.75 2.284 2.284 0 0 1-1.11.281c-.437 0-.827-.12-1.17-.359-.333-.198-.589-.297-.766-.297-.27 0-.406.256-.406.766 0 .427.195.758.586.998.39.24.928.36 1.615.36h.14c1.469-.063 2.583-.875 3.343-2.436.208-.396.312-.693.312-.89 0-.199-.104-.46-.312-.782-.604-.906-1.577-1.425-2.92-1.56-.354-.032-.624-.126-.811-.282a.74.74 0 0 1-.281-.594c0-.364.213-.764.64-1.2l.748-.782 1 .984c.24.23.47.418.688.569.219.151.379.226.482.226.032 0 .053-.004.063-.015a.796.796 0 0 0 .25-.61c0-.479-.243-.936-.733-1.373-.385-.344-.685-.576-.898-.695-.213-.12-.44-.18-.68-.18zm53.317 0c-.188 0-.292.078-.313.234 0 .667.01 1.311.031 1.936v.297c0 .958-.083 1.691-.25 2.201-.187.52-.416 1.23-.687 2.125-.156.531-.31.888-.461 1.07-.151.183-.36.272-.63.272-.511 0-.866-.152-1.063-.46-.198-.306-.297-.898-.297-1.773 0-.343.016-.764.047-1.263.072-1.614.156-2.686.25-3.217a.914.914 0 0 0 .03-.219c0-.281-.176-.448-.53-.5h-.141c-.208 0-.37.102-.484.305-.115.203-.25.62-.407 1.256-.25 1.061-.375 2.03-.375 2.904 0 1.208.238 2.191.711 2.951.474.76 1.163 1.256 2.069 1.485.145.03.27.046.375.046a.945.945 0 0 0 .57-.203c.182-.135.42-.375.71-.718a5.64 5.64 0 0 0 .61-.92c.177-.333.266-.589.266-.766 0-.416.094-.74.281-.969.187-.197.36-.8.522-1.81.161-1.01.242-1.905.242-2.686 0-.479-.037-.791-.11-.937a1.252 1.252 0 0 0-.443-.461c-.192-.12-.367-.18-.523-.18zm4.828 0c-.48 0-.896.042-1.25.125-.281.062-.55.14-.81.234s-.428.167-.5.22c-.084.093-.152.654-.204 1.685a68.196 68.196 0 0 0-.078 3.42c0 2.384.073 3.622.219 3.716a.55.55 0 0 0 .265.047c.167 0 .34-.026.516-.078.198-.083.332-.266.404-.547.073-.28.11-.727.11-1.341V25.83h1.734c.729 0 1.254-.052 1.576-.156.323-.104.662-.339 1.016-.703.24-.24.448-.506.625-.803.177-.297.266-.523.266-.68 0-.385-.162-.912-.485-1.584-.323-.671-.63-1.122-.922-1.351-.198-.156-.531-.281-1-.375a7.55 7.55 0 0 0-1.482-.14zm-89.34.047c-.666 0-1.125.029-1.375.086-.25.057-.404.164-.467.32a1.157 1.157 0 0 0-.094.422c0 .448.484.67 1.452.67h.359l1.438-.094-.032 1.219a92.89 92.89 0 0 1-.281 3.842l-.25 2.623.75-.125c.302-.031.503-.125.607-.281.105-.157.172-.459.204-.907.072-.645.166-1.861.28-3.652l.188-2.562 1.282-.094c.52-.031.868-.094 1.044-.188.177-.094.266-.26.266-.5a.505.505 0 0 0-.07-.289.578.578 0 0 0-.235-.178c-.109-.051-.31-.094-.607-.125-.297-.03-.63-.057-1-.078-.37-.02-.907-.047-1.615-.078a81.115 81.115 0 0 0-1.844-.031zm15.916 0c-.416 0-.853.125-1.31.375v-.002a44.244 44.244 0 0 1-.782.469c-.041.042-.062.568-.062 1.578 0 .624.01 1.274.031 1.951.01.448.016.86.016 1.234 0 1.53-.1 2.41-.297 2.64-.115.134-.172.25-.172.343 0 .125.13.26.39.406.25.126.464.188.641.188.406 0 .608-.318.608-.954 0-.208-.02-.442-.061-.703a5.785 5.785 0 0 1-.096-1.006c0-.317.033-.523.096-.617.042-.062.118-.093.232-.093.334 0 .852.252 1.555.757s1.232 1.022 1.586 1.553c.187.281.407.537.662.766.255.229.461.36.617.39.104.021.188.032.25.032.146 0 .22-.079.22-.235 0-.114-.032-.305-.095-.576a2.81 2.81 0 0 0-.257-.656c-.11-.198-.201-.302-.274-.313-.187-.072-.281-.25-.281-.531 0-.24-.157-.438-.469-.594-.291-.104-.435-.26-.435-.468 0-.271.238-.603.716-.999a2.77 2.77 0 0 0 .735-.882 2.22 2.22 0 0 0 .265-1.04c0-.364-.093-.69-.28-.982-.261-.395-.828-.833-1.702-1.312-.875-.48-1.547-.72-2.016-.72h-.031zm20.072 0c-.666 0-1.123.029-1.373.086-.25.057-.406.164-.468.32a1.157 1.157 0 0 0-.094.422c0 .448.485.67 1.453.67h.36l1.435-.094-.031 1.219a92.906 92.906 0 0 1-.282 3.842l-.25 2.623.75-.125c.302-.031.506-.125.61-.281.104-.157.171-.459.203-.907.073-.645.166-1.861.281-3.652l.188-2.562 1.279-.094c.52-.031.87-.094 1.047-.188.177-.094.265-.26.265-.5a.505.505 0 0 0-.07-.289.578.578 0 0 0-.234-.178c-.11-.051-.313-.094-.61-.125-.296-.03-.63-.057-1-.078-.37-.02-.907-.047-1.615-.078a81.114 81.114 0 0 0-1.844-.031zm73.688 0c-.666 0-1.125.029-1.375.086-.25.057-.406.164-.469.32a1.157 1.157 0 0 0-.094.422c0 .448.485.67 1.453.67h.36l1.437-.094-.033 1.219a92.855 92.855 0 0 1-.281 3.842l-.248 2.623.748-.125c.302-.031.505-.125.61-.281.103-.157.17-.459.202-.907.073-.645.167-1.861.282-3.652l.187-2.562 1.281-.094c.52-.031.868-.094 1.045-.188.177-.094.266-.26.266-.5a.505.505 0 0 0-.07-.289.578.578 0 0 0-.235-.178c-.109-.051-.312-.094-.61-.125a21.306 21.306 0 0 0-.997-.078c-.37-.02-.91-.047-1.617-.078a80.978 80.978 0 0 0-1.842-.031zm-58.004.312c-.438 0-.836.03-1.195.086-.36.058-.565.123-.618.196-.103.135-.198 1.779-.28 4.933-.012.73-.016 1.334-.016 1.813 0 1.135.05 1.975.148 2.521.099.547.268.92.508 1.117.24.198.61.297 1.11.297h.234c1.363-.031 2.462-.594 3.294-1.687.833-1.093 1.248-2.482 1.248-4.168 0-.718-.083-1.453-.25-2.203-.187-.854-.673-1.55-1.458-2.092-.786-.541-1.694-.813-2.725-.813zm44.346 0c-.438 0-.837.03-1.196.086-.359.058-.565.123-.617.196-.104.135-.196 1.779-.28 4.933-.01.73-.017 1.334-.017 1.813 0 1.135.05 1.975.149 2.521.098.547.268.92.507 1.117.24.198.61.297 1.11.297h.234c1.364-.031 2.462-.594 3.295-1.687.833-1.093 1.25-2.482 1.25-4.168 0-.718-.085-1.453-.252-2.203-.187-.854-.673-1.55-1.459-2.092-.786-.541-1.694-.813-2.724-.813zm38.666.016c-.906 0-1.514.055-1.82.164-.308.11-.611.373-.913.79-.708 1.009-1.26 1.959-1.656 2.849-.396.89-.594 1.616-.594 2.178 0 .458.136.77.406.937.105.042.19.146.258.313.068.166.102.333.102.5 0 .156.083.386.25.693.166.307.365.597.594.867.322.386.638.646.95.781.313.136.751.203 1.313.203.635 0 1.108-.093 1.42-.28.312-.188.797-.673 1.453-1.454a16.13 16.13 0 0 0 1.024-1.334c.286-.422.43-.685.43-.789 0-.115.04-.279.122-.492.084-.214.183-.402.297-.568.146-.24.22-.464.22-.672 0-.344-.187-.62-.561-.828-.375-.209-.886-.313-1.532-.313-.5 0-.88.052-1.14.156-.26.104-.459.287-.594.547a1.05 1.05 0 0 0-.139.485c0 .177.076.315.227.42.15.104.36.156.63.156.209 0 .444-.03.704-.092.146-.041.27-.063.375-.063.197 0 .297.079.297.235 0 .26-.25.743-.75 1.45a8.038 8.038 0 0 1-1.428 1.673c-.515.447-.935.682-1.258.703-.229 0-.492-.2-.789-.602a5.596 5.596 0 0 1-.748-1.453c-.203-.567-.305-1.074-.305-1.521 0-.812.191-1.613.576-2.399.386-.785.83-1.276 1.329-1.474.322-.105.816-.157 1.482-.157.333 0 .646.021.938.063.322.041.604.06.843.06.552 0 .896-.102 1.032-.31a.606.606 0 0 0 .093-.313c0-.322-.295-.588-.883-.796-.588-.209-1.34-.313-2.255-.313zm-123.293.219a.935.935 0 0 0-.532.156c-.114.083-.4.157-.857.219-.458.063-.938.094-1.438.094-.884 0-1.524.09-1.92.273-.395.182-.593.477-.593.883 0 .26.078.589.234.984.23.573.344 1.608.344 3.108 0 .302-.005.612-.016.935a46.76 46.76 0 0 0-.062 1.656c0 .178.003.334.008.47.005.134.023.26.054.374.031.115.058.214.078.297.021.083.068.159.141.227.073.068.135.118.188.154.052.036.14.07.265.101s.23.055.319.07c.088.017.229.03.421.04.193.005.36.015.5.015H49.506c.78 0 1.321-.046 1.623-.14.302-.094.531-.287.687-.578.104-.188.157-.35.157-.485 0-.374-.355-.56-1.063-.56-.302 0-.66.03-1.076.092a4.448 4.448 0 0 1-.703.078c-.24 0-.422-.047-.547-.14-.125-.095-.24-.26-.344-.499a2.065 2.065 0 0 1-.203-.875c0-.458.149-.87.445-1.234.297-.365.712-.636 1.243-.813.395-.135.698-.282.906-.443.208-.162.312-.31.312-.445 0-.156-.125-.284-.375-.383-.25-.1-.604-.149-1.062-.149-.594 0-.987-.05-1.18-.148-.192-.099-.305-.31-.336-.633a1.103 1.103 0 0 1-.031-.234c0-.24.143-.404.43-.493.286-.088.946-.184 1.976-.289 1.676-.145 2.514-.383 2.514-.716 0-.25-.136-.474-.406-.672a1.457 1.457 0 0 0-.875-.297zm14.67 0a.929.929 0 0 0-.53.156h-.002c-.114.083-.4.157-.857.219-.458.063-.938.094-1.438.094-.884 0-1.524.09-1.92.273-.395.182-.593.477-.593.883 0 .26.078.589.234.984.23.573.344 1.608.344 3.108 0 .302-.005.612-.016.935a46.786 46.786 0 0 0-.062 1.656c0 .178.002.334.007.47.006.134.024.26.055.374l.078.297c.021.083.068.159.14.227.074.068.136.118.188.154.053.036.141.07.266.101.125.031.23.055.318.07.089.017.23.03.422.04.193.005.36.015.5.015H64.176c.78 0 1.323-.046 1.625-.14a1.14 1.14 0 0 0 .685-.578c.104-.188.157-.35.157-.485 0-.374-.353-.56-1.061-.56-.302 0-.662.03-1.078.092a4.448 4.448 0 0 1-.703.078c-.24 0-.422-.047-.547-.14-.125-.095-.24-.26-.344-.499a2.065 2.065 0 0 1-.203-.875c0-.458.149-.87.445-1.234.297-.365.712-.636 1.242-.813.396-.135.698-.282.907-.443.208-.162.312-.31.312-.445 0-.156-.125-.284-.375-.383-.25-.1-.604-.149-1.062-.149-.594 0-.987-.05-1.18-.148-.192-.099-.303-.31-.334-.633a1.123 1.123 0 0 1-.033-.234c0-.24.143-.404.43-.493.286-.088.945-.184 1.976-.289 1.676-.145 2.514-.383 2.514-.716 0-.25-.136-.474-.406-.672a1.457 1.457 0 0 0-.875-.297zm21.32 0a.935.935 0 0 0-.531.156c-.115.083-.402.157-.86.219-.458.063-.937.094-1.437.094-.885 0-1.524.09-1.92.273-.396.182-.594.477-.594.883 0 .26.078.589.234.984.23.573.344 1.608.344 3.108 0 .302-.005.612-.015.935a46.786 46.786 0 0 0-.063 1.656c0 .178.003.334.008.47.005.134.023.26.055.374l.078.297c.02.083.067.159.14.227.073.068.136.118.188.154.052.036.14.07.265.101s.232.055.32.07c.09.017.23.03.423.04.192.005.357.015.498.015H85.494c.781 0 1.323-.046 1.625-.14.302-.094.531-.287.688-.578.104-.188.154-.35.154-.485 0-.374-.353-.56-1.06-.56-.302 0-.662.03-1.079.092a4.448 4.448 0 0 1-.703.078c-.24 0-.42-.047-.545-.14-.125-.095-.24-.26-.344-.499a2.065 2.065 0 0 1-.203-.875c0-.458.149-.87.446-1.234.296-.365.709-.636 1.24-.813.395-.135.698-.282.906-.443.208-.162.313-.31.313-.445 0-.156-.125-.284-.375-.383-.25-.1-.605-.149-1.063-.149-.593 0-.985-.05-1.178-.148-.192-.099-.304-.31-.336-.633a1.109 1.109 0 0 1-.03-.234c0-.24.143-.404.429-.493.286-.088.944-.184 1.975-.289 1.676-.145 2.513-.383 2.513-.716 0-.25-.135-.474-.406-.672a1.451 1.451 0 0 0-.873-.297zm-50.733.031a.386.386 0 0 0-.343.203c-.063.115-.094.485-.094 1.11 0 .458.02.92.062 1.388.073.792.11 1.402.11 1.828 0 .677-.1 1.014-.297 1.014-.25 0-.806-.712-1.67-2.139-.646-1.072-1.1-1.763-1.36-2.076-.26-.312-.54-.469-.843-.469-.073 0-.15.006-.233.016-.28.032-.479.09-.593.18-.115.088-.172.23-.172.428 0 .083.005.182.016.296.114 1.604.203 2.926.265 3.967.083 1.156.18 1.983.29 2.483.108.5.262.75.46.75.156 0 .358-.157.608-.47.135-.145.203-.353.203-.624 0-.25-.058-.582-.172-.998-.156-.573-.235-1.261-.235-2.063 0-.177.006-.341.016-.498l.094-1.375 1.297 2.092c.864 1.416 1.373 2.313 1.529 2.688.104.25.242.44.414.576a.881.881 0 0 0 .555.203c.291 0 .541-.14.75-.422.166-.229.286-.652.36-1.271.072-.62.12-1.56.14-2.819 0-1.103-.016-1.888-.047-2.351-.031-.464-.086-.798-.164-1.006a.922.922 0 0 0-.414-.485c-.22-.104-.396-.156-.532-.156zm76.645 0a.386.386 0 0 0-.344.203c-.062.115-.094.485-.093 1.11 0 .458.02.92.062 1.388.073.792.11 1.402.11 1.828 0 .677-.1 1.014-.297 1.014-.25 0-.807-.712-1.67-2.139-.646-1.072-1.1-1.763-1.36-2.076-.26-.312-.541-.469-.844-.469-.072 0-.149.006-.232.016-.281.032-.48.09-.594.18-.114.088-.172.23-.172.428 0 .083.005.182.016.296.114 1.604.203 2.926.266 3.967.083 1.156.18 1.983.289 2.483.109.5.263.75.46.75.157 0 .358-.157.608-.47.135-.145.203-.353.203-.624 0-.25-.057-.582-.172-.998-.156-.573-.234-1.261-.234-2.063 0-.177.005-.341.016-.498l.093-1.375 1.297 2.092c.864 1.416 1.373 2.313 1.53 2.688.104.25.242.44.414.576a.881.881 0 0 0 .554.203c.292 0 .542-.14.75-.422.167-.229.287-.652.36-1.271.073-.62.12-1.56.14-2.819 0-1.103-.016-1.888-.047-2.351-.03-.464-.086-.798-.164-1.006a.922.922 0 0 0-.414-.485c-.219-.104-.396-.156-.531-.156zm54.87 0a.386.386 0 0 0-.345.203c-.062.115-.093.485-.093 1.11 0 .458.02.92.062 1.388.073.792.11 1.402.11 1.828 0 .677-.1 1.014-.297 1.014-.25 0-.808-.712-1.672-2.139-.646-1.072-1.097-1.763-1.358-2.076-.26-.312-.541-.469-.843-.469-.073 0-.152.006-.235.016-.28.032-.479.09-.593.18-.115.088-.172.23-.172.428 0 .083.005.182.015.296.115 1.604.203 2.926.266 3.967.083 1.156.18 1.983.289 2.483.11.5.263.75.46.75.157 0 .36-.157.61-.47.136-.145.203-.353.203-.624 0-.25-.057-.582-.172-.998-.155-.573-.234-1.261-.234-2.063 0-.177.005-.341.016-.498l.093-1.375 1.295 2.092c.864 1.416 1.376 2.313 1.532 2.688.104.25.242.44.414.576a.881.881 0 0 0 .554.203c.292 0 .542-.14.75-.422.167-.229.285-.652.358-1.271.073-.62.12-1.56.14-2.819 0-1.103-.015-1.888-.047-2.351-.03-.464-.086-.798-.164-1.006a.918.918 0 0 0-.412-.485c-.219-.104-.396-.156-.53-.156zm-140.811.016c-1.073 0-1.814.031-2.225.093-.41.063-.648.189-.711.375a1.13 1.13 0 0 0-.094.405c0 .395.277.594.828.594.177 0 .37-.021.579-.063l1.06-.187v2.03c0 1.406-.11 2.361-.328 2.866-.219.505-.629.758-1.232.758-.354 0-.594.026-.72.078-.124.052-.187.165-.187.342 0 .062.01.15.032.265.041.281.127.461.257.54.13.077.446.117.946.117.27 0 .732-.01 1.388-.032 1.905-.073 2.858-.338 2.858-.797a.552.552 0 0 0-.078-.265c-.125-.167-.489-.248-1.092-.248h-.938l.094-2.654.094-2.657h1c.385 0 .74-.12 1.068-.36.328-.239.492-.476.492-.716a.406.406 0 0 0-.125-.297c-.125-.125-1.114-.187-2.966-.187zm76.644 0c-1.072 0-1.813.031-2.224.093-.41.063-.648.189-.711.375a1.13 1.13 0 0 0-.094.405c0 .395.276.594.828.594.177 0 .37-.021.578-.063l1.06-.187v2.03c0 1.406-.109 2.361-.327 2.866-.219.505-.629.758-1.233.758-.354 0-.594.026-.719.078-.124.052-.187.165-.187.342 0 .062.01.15.031.265.042.281.128.461.258.54.13.077.446.117.945.117.27 0 .733-.01 1.389-.032 1.905-.073 2.857-.338 2.857-.797a.552.552 0 0 0-.078-.265c-.125-.167-.488-.248-1.092-.248h-.937l.094-2.654.093-2.657h1c.385 0 .74-.12 1.069-.36.328-.239.492-.476.492-.716a.406.406 0 0 0-.125-.297c-.125-.125-1.114-.187-2.967-.187zm54.87 0c-1.073 0-1.816.031-2.227.093-.41.063-.648.189-.711.375-.062.156-.092.291-.092.405 0 .395.275.594.826.594.177 0 .37-.021.578-.063l1.063-.187v2.03c0 1.406-.11 2.361-.328 2.866-.219.505-.63.758-1.235.758-.354 0-.592.026-.717.078-.124.052-.187.165-.187.342 0 .062.01.15.031.265.042.281.128.461.258.54.13.077.444.117.943.117.271 0 .735-.01 1.391-.032 1.905-.073 2.857-.338 2.857-.797a.55.55 0 0 0-.078-.265c-.125-.167-.49-.248-1.093-.248h-.936l.092-2.654.095-2.657h.999c.385 0 .742-.12 1.07-.36.328-.239.492-.476.492-.716a.406.406 0 0 0-.125-.297c-.125-.125-1.114-.187-2.967-.187zm-14.891.078c-.126 0-.3.107-.524.32-.224.214-.424.46-.601.74-.188.313-.389.774-.602 1.383a10.72 10.72 0 0 0-.46 1.742c-.303 1.333-.562 2.348-.78 3.045-.219.698-.328 1.264-.328 1.701 0 .667.238 1 .717 1 .332 0 .57-.14.71-.421.141-.281.28-.902.415-1.86.073-.447.608-.81 1.607-1.092.604-.177.98-.265 1.125-.265.073 0 .135.007.187.023a.386.386 0 0 1 .141.078c.042.037.08.087.117.149.037.062.07.14.102.234a4.188 4.188 0 0 1 .18.717 101.154 101.154 0 0 0 .195 1.125c.083.469.174.794.273.977.1.182.243.273.43.273a.706.706 0 0 0 .125-.016c.374-.083.56-.547.56-1.39 0-.906-.19-2.028-.576-3.365-.385-1.338-.865-2.523-1.437-3.553-.573-1.03-1.098-1.545-1.576-1.545zm-14.916.39c.312 0 .635.045.968.133.333.089.608.206.827.352.26.187.468.446.625.78.156.332.234.666.234 1 0 .3-.063.562-.188.78-.093.167-.297.297-.609.391a3.63 3.63 0 0 1-1.045.14c-.718 0-1.208-.13-1.469-.39-.114-.125-.208-.367-.28-.727a5.605 5.605 0 0 1-.11-1.117c0-.603.078-.977.234-1.123.135-.146.407-.219.813-.219zm-74.328.47h1.373c.51 0 .914.052 1.21.161.297.11.581.305.852.586.354.375.53.74.53 1.094 0 .354-.16.64-.483.86-.323.218-.745.328-1.266.328-.343 0-.708-.053-1.093-.157-.406-.114-.67-.26-.79-.437s-.2-.553-.242-1.125l-.092-1.31zm37.23.2c.213 0 .58.068 1.1.204v.002c1.04.28 1.562 1.598 1.562 3.95 0 1.24-.224 2.158-.672 2.757-.447.598-1.134.898-2.06.898-.23 0-.394 0-.493-.01a1.198 1.198 0 0 1-.312-.062c-.11-.036-.18-.075-.211-.117a.882.882 0 0 1-.102-.258 1.445 1.445 0 0 1-.054-.39v-.587c0-1.082.154-2.416.46-4.004.308-1.587.568-2.383.782-2.383zm44.346 0c.213 0 .579.068 1.1.204v.002c1.04.28 1.562 1.598 1.562 3.95 0 1.24-.224 2.158-.672 2.757-.448.598-1.134.898-2.06.898-.23 0-.394 0-.493-.01a1.198 1.198 0 0 1-.312-.062c-.11-.036-.18-.075-.211-.117a.88.88 0 0 1-.102-.258 1.445 1.445 0 0 1-.055-.39v-.587c0-1.082.154-2.416.461-4.004.307-1.587.568-2.383.782-2.383zm7.9.985c.167 0 .33.122.492.367.162.245.3.597.414 1.055.031.135.047.265.047.39a1.3 1.3 0 0 1-.484 1.045c-.323.27-.743.406-1.264.406-.166 0-.289-.028-.367-.085-.078-.058-.117-.165-.117-.32 0-.313.219-1.036.656-2.17.177-.459.384-.688.623-.688zm41.348 16.146c-.136 0-.521.188-1.157.563-.51.323-.906.635-1.187.937-.281.302-.422.563-.422.782 0 .083.016.155.047.218a.58.58 0 0 0 .516.295c.322 0 .672-.201 1.046-.607.386-.427.806-.64 1.264-.64.23 0 .414.062.555.187.14.124.21.307.21.547 0 .426-.122.776-.366 1.052a1.202 1.202 0 0 1-.944.414c-.645 0-.969.46-.969 1.375 0 .354.053.759.157 1.217.093.468.21.836.351 1.102.14.265.279.398.414.398.125 0 .227-.11.305-.328.078-.219.117-.537.117-.953 0-.49.052-.85.156-1.084.105-.234.3-.445.592-.633.469-.302.896-.73 1.282-1.281.218-.365.328-.67.328-.92 0-.209-.068-.516-.203-.922-.177-.437-.477-.833-.899-1.187-.422-.354-.819-.532-1.193-.532zm-155.424.282a.78.78 0 0 0-.461.164.97.97 0 0 0-.336.445c-.198.448-.59 1-1.178 1.656-.588.656-.997.983-1.226.983-.084 0-.16-.04-.227-.118a.404.404 0 0 1-.101-.273c-.01-.323-.348-.824-1.014-1.506s-1.146-1.023-1.438-1.023a.144.144 0 0 0-.062.015c-.208.084-.313.225-.313.422 0 .375.412 1.061 1.235 2.06.426.532.713 1.004.86 1.415.145.41.268 1.09.372 2.037.063.698.123 1.19.18 1.476.057.287.13.485.219.594.088.11.226.164.414.164.187 0 .32-.046.398-.14.078-.094.133-.266.164-.516s.047-.683.047-1.297v-.836c0-.172.023-.378.07-.623.047-.244.089-.417.125-.516.037-.098.133-.268.29-.507.156-.24.302-.44.437-.602.135-.161.354-.424.656-.789.417-.5.767-.964 1.053-1.396.286-.432.43-.711.43-.836 0-.084-.058-.18-.172-.29a.59.59 0 0 0-.422-.163zm111.281.015c-.624 0-1.08.04-1.367.117a1.223 1.223 0 0 0-.662.414h-.002c-.188.22-.334.803-.444 1.75-.109.948-.164 2.015-.164 3.202 0 2.404.166 3.96.498 4.668.146.312.318.586.516.82.198.234.37.351.516.351.135 0 .232-.065.289-.195.057-.13.086-.357.086-.68 0-.322-.032-.802-.094-1.437l-.219-2.31h1.11c.78 0 1.342-.087 1.685-.258.344-.172.516-.465.516-.881 0-.24-.045-.405-.133-.493-.089-.088-.279-.132-.57-.132-.188 0-.488.018-.905.06l-1.593.219v-3.451l2.42-.108c.458-.02.81-.043 1.054-.064.245-.021.47-.047.672-.078.203-.031.344-.078.422-.14a.593.593 0 0 0 .172-.212.761.761 0 0 0 .055-.318.771.771 0 0 0-.055-.32.542.542 0 0 0-.188-.211c-.088-.063-.247-.11-.476-.141-.23-.031-.485-.057-.766-.078a37.909 37.909 0 0 0-1.219-.063 28.35 28.35 0 0 0-1.154-.03zm18.71.188c-.157 0-.308.083-.454.25-.26.322-.688 2.217-1.281 5.683l-.186 1.25-.437-1.031c-.136-.323-.302-.57-.5-.742-.198-.172-.402-.258-.61-.258-.301 0-.557.177-.765.531-.136.25-.249.375-.342.375-.24 0-.432-.821-.578-2.467-.136-1.436-.386-2.342-.75-2.716-.24-.23-.396-.344-.469-.344-.073 0-.156.115-.25.344-.052.156-.078.399-.078.732 0 .333.026.662.078.984a126.395 126.395 0 0 0 .68 3.827c.099.51.185.9.258 1.171.072.271.145.517.218.74.073.225.149.38.227.47a.74.74 0 0 0 .234.187.673.673 0 0 0 .29.055c.228 0 .396-.079.505-.235.11-.156.196-.425.258-.81.052-.354.151-.651.297-.89.146-.24.281-.36.406-.36.156 0 .234.177.234.531 0 .167.055.38.165.64.109.26.242.478.398.655l.562.687.499-.716c.239-.375.44-.865.601-1.47.161-.603.326-1.482.492-2.638.052-.323.12-.617.203-.883.084-.265.162-.419.235-.46.187-.105.281-.611.281-1.522 0-.91-.094-1.424-.281-1.54a.309.309 0 0 0-.14-.03zm-115.886.125c-.187 0-.29.078-.31.234 0 .666.009 1.311.03 1.936v.296c0 .958-.082 1.692-.249 2.202-.187.52-.417 1.23-.687 2.125-.156.53-.31.888-.461 1.07-.151.182-.363.271-.633.271-.51 0-.863-.152-1.06-.459-.198-.307-.298-.898-.298-1.773 0-.343.016-.764.047-1.264.073-1.613.155-2.686.248-3.216a.929.929 0 0 0 .034-.22c0-.28-.178-.447-.532-.5h-.14c-.209 0-.37.102-.485.305-.114.203-.25.621-.406 1.256-.25 1.062-.375 2.03-.375 2.905 0 1.207.237 2.19.71 2.95.474.76 1.164 1.256 2.07 1.485.145.032.27.047.374.047a.944.944 0 0 0 .57-.203c.183-.135.42-.375.712-.719.229-.281.432-.587.609-.92.177-.333.264-.588.264-.765 0-.417.093-.74.28-.97.188-.197.363-.8.524-1.81.162-1.01.242-1.904.242-2.685 0-.479-.036-.792-.109-.938a1.258 1.258 0 0 0-.445-.46c-.193-.12-.367-.18-.524-.18zm67.893 0c-.188 0-.292.078-.313.234 0 .666.011 1.311.032 1.936v.296c0 .958-.084 1.692-.25 2.202a45.36 45.36 0 0 0-.688 2.125c-.156.53-.31.888-.46 1.07-.152.182-.361.271-.632.271-.51 0-.864-.152-1.062-.459-.198-.307-.297-.898-.297-1.773 0-.343.016-.764.047-1.264.073-1.613.156-2.686.25-3.216a.92.92 0 0 0 .031-.22c0-.28-.177-.447-.531-.5h-.14c-.21 0-.37.102-.485.305-.115.203-.25.621-.406 1.256-.25 1.062-.373 2.03-.373 2.905 0 1.207.235 2.19.709 2.95.473.76 1.162 1.256 2.068 1.485.146.032.27.047.375.047a.944.944 0 0 0 .57-.203c.182-.135.42-.375.711-.719a5.64 5.64 0 0 0 .61-.92c.176-.333.265-.588.265-.765 0-.417.094-.74.281-.97.187-.197.36-.8.522-1.81.161-1.01.242-1.904.242-2.685 0-.479-.035-.792-.107-.938a1.258 1.258 0 0 0-.446-.46c-.192-.12-.367-.18-.523-.18zm4.937 0c-.135 0-.302.016-.5.047-.614.104-1.157.503-1.63 1.195-.474.692-.711 1.397-.711 2.115 0 .437.11.802.328 1.094.125.166.365.325.719.476.353.151.717.251 1.091.303 1.281.167 1.922.547 1.922 1.14 0 .22-.073.47-.219.75a1.94 1.94 0 0 1-.78.75 2.284 2.284 0 0 1-1.11.282c-.437 0-.827-.12-1.17-.36-.333-.197-.589-.296-.766-.296-.27 0-.406.255-.406.765 0 .427.195.759.586.998.39.24.928.36 1.615.36h.14c1.469-.063 2.583-.874 3.343-2.436.208-.395.312-.692.312-.89 0-.198-.104-.459-.312-.782-.604-.905-1.577-1.425-2.92-1.56-.354-.031-.625-.125-.813-.281a.74.74 0 0 1-.281-.594c0-.365.214-.764.64-1.201l.75-.782 1 .983c.24.229.47.42.688.57.219.152.379.227.482.227.032 0 .053-.006.063-.016a.796.796 0 0 0 .25-.61c0-.478-.243-.935-.732-1.372-.386-.344-.686-.576-.899-.696-.213-.12-.44-.18-.68-.18zm10.584 0c-.135 0-.302.016-.5.047-.614.104-1.159.503-1.632 1.195-.474.692-.711 1.397-.711 2.115 0 .437.11.802.328 1.094.125.166.365.325.719.476.353.151.719.251 1.093.303 1.28.167 1.92.547 1.92 1.14 0 .22-.073.47-.219.75a1.935 1.935 0 0 1-.779.75 2.284 2.284 0 0 1-1.11.282 2 2 0 0 1-1.171-.36c-.333-.197-.587-.296-.764-.296-.27 0-.406.255-.406.765 0 .427.194.759.584.998.39.24.93.36 1.617.36h.14c1.469-.063 2.583-.874 3.343-2.436.208-.395.312-.692.312-.89 0-.198-.104-.459-.312-.782-.604-.905-1.577-1.425-2.92-1.56-.354-.031-.625-.125-.813-.281a.74.74 0 0 1-.281-.594c0-.365.214-.764.64-1.201l.75-.782.999.983c.239.229.468.42.687.57.219.152.38.227.484.227.032 0 .053-.006.063-.016a.796.796 0 0 0 .25-.61c0-.478-.245-.935-.734-1.372-.386-.344-.686-.576-.899-.696a1.365 1.365 0 0 0-.678-.18zm-79.084.047c-.416 0-.854.125-1.312.375a44.247 44.247 0 0 1-.781.468c-.042.042-.06.567-.06 1.576 0 .625.01 1.277.03 1.954.01.447.014.857.014 1.232 0 1.53-.097 2.411-.295 2.64-.115.136-.172.25-.172.342 0 .125.13.261.39.407.25.124.463.187.64.187.406 0 .609-.316.609-.951 0-.208-.021-.443-.063-.703a5.797 5.797 0 0 1-.093-1.008c0-.317.03-.523.093-.617.042-.062.12-.092.235-.092.333 0 .852.251 1.554.756.703.505 1.23 1.024 1.584 1.555.188.28.41.536.665.765.254.23.46.358.617.389.104.02.187.031.25.031.146 0 .218-.078.218-.234 0-.115-.03-.306-.093-.576a2.81 2.81 0 0 0-.258-.657c-.11-.197-.2-.301-.274-.312-.187-.073-.28-.25-.28-.531 0-.24-.157-.438-.47-.594-.29-.104-.437-.26-.437-.469 0-.27.24-.602.719-.998a2.77 2.77 0 0 0 .734-.883 2.22 2.22 0 0 0 .266-1.039c0-.364-.094-.693-.282-.984-.26-.396-.828-.832-1.703-1.31-.874-.48-1.545-.72-2.013-.72h-.032zm24.801 0c-.666 0-1.125.028-1.375.085-.25.058-.406.164-.469.32a1.157 1.157 0 0 0-.093.423c0 .447.485.67 1.453.67h.36l1.435-.094-.031 1.219a92.908 92.908 0 0 1-.282 3.841l-.25 2.623.75-.125c.302-.03.506-.125.61-.28.104-.157.171-.46.203-.907.073-.645.166-1.862.281-3.652l.188-2.563 1.279-.094c.52-.03.87-.093 1.047-.187.177-.094.265-.26.265-.5a.498.498 0 0 0-.07-.287.58.58 0 0 0-.234-.18c-.11-.052-.313-.094-.61-.125-.296-.031-.63-.057-1-.078-.37-.021-.907-.047-1.615-.078a75.45 75.45 0 0 0-1.842-.032zm28.696 0c-.417 0-.855.125-1.313.375a44.244 44.244 0 0 1-.781.468c-.042.042-.063.567-.063 1.576 0 .625.01 1.277.031 1.954.01.447.016.857.016 1.232 0 1.53-.1 2.411-.297 2.64-.115.136-.172.25-.172.342 0 .125.13.261.39.407.25.124.465.187.642.187.406 0 .609-.316.609-.951 0-.208-.021-.443-.063-.703a5.796 5.796 0 0 1-.093-1.008c0-.317.03-.523.093-.617.042-.062.12-.092.235-.092.333 0 .85.251 1.553.756.702.505 1.232 1.024 1.585 1.555.188.28.41.536.665.765.254.23.46.358.617.389.104.02.185.031.248.031.146 0 .219-.078.219-.234 0-.115-.032-.306-.094-.576a2.81 2.81 0 0 0-.258-.657c-.11-.197-.199-.301-.271-.312-.188-.073-.282-.25-.282-.531 0-.24-.156-.438-.468-.594-.292-.104-.438-.26-.438-.469 0-.27.24-.602.719-.998.312-.25.555-.544.732-.883a2.22 2.22 0 0 0 .266-1.039c0-.364-.094-.693-.281-.984-.26-.396-.827-.832-1.702-1.31-.874-.48-1.545-.72-2.013-.72h-.031zm45.355 0c-.666 0-1.123.028-1.373.085-.25.058-.406.164-.469.32a1.157 1.157 0 0 0-.093.423c0 .447.483.67 1.45.67h.36l1.438-.094-.032 1.219a92.872 92.872 0 0 1-.28 3.841l-.25 2.623.75-.125c.3-.03.504-.125.608-.28.105-.157.172-.46.204-.907.072-.645.166-1.862.28-3.652l.186-2.563 1.282-.094c.52-.03.87-.093 1.047-.187.176-.094.265-.26.265-.5a.498.498 0 0 0-.07-.287.58.58 0 0 0-.235-.18c-.109-.052-.312-.094-.609-.125s-.63-.057-1-.078c-.37-.021-.907-.047-1.615-.078a75.578 75.578 0 0 0-1.844-.032zm23.45 0c-.417 0-.854.125-1.311.375a44.244 44.244 0 0 1-.782.468c-.041.042-.062.567-.062 1.576 0 .625.01 1.277.031 1.954.01.447.016.857.016 1.232 0 1.53-.1 2.411-.297 2.64-.115.136-.172.25-.172.342 0 .125.13.261.39.407.25.124.464.187.641.187.406 0 .61-.316.61-.951 0-.208-.021-.443-.063-.703a5.796 5.796 0 0 1-.094-1.008c0-.317.031-.523.094-.617.042-.062.12-.092.234-.092.334 0 .85.251 1.553.756s1.232 1.024 1.586 1.555c.188.28.407.536.662.765.255.23.461.358.617.389.104.02.188.031.25.031.146 0 .22-.078.22-.234 0-.115-.032-.306-.095-.576a2.81 2.81 0 0 0-.257-.657c-.11-.197-.201-.301-.274-.312-.187-.073-.281-.25-.281-.531 0-.24-.155-.438-.467-.594-.291-.104-.437-.26-.437-.469 0-.27.238-.602.716-.998a2.77 2.77 0 0 0 .735-.883 2.22 2.22 0 0 0 .265-1.039c0-.364-.093-.693-.28-.984-.261-.396-.827-.832-1.702-1.31-.874-.48-1.547-.72-2.016-.72h-.03zm-136.583.14a.942.942 0 0 0-.601.219c-.183.145-.404.401-.664.765-.688.948-1.145 1.76-1.373 2.436-.23.677-.344 1.556-.344 2.639 0 .541.005.937.015 1.187.01.25.063.493.157.727.093.234.203.415.328.545.125.13.338.315.64.554.313.271.616.498.913.68.296.182.513.274.648.274.115 0 .401-.19.86-.57.457-.38.961-.83 1.513-1.35.5-.51.854-.88 1.062-1.11.209-.229.391-.482.547-.758.157-.275.248-.513.274-.71.026-.198.039-.499.039-.905 0-.895-.235-1.711-.703-2.445-.469-.734-1.114-1.303-1.936-1.71-.635-.311-1.094-.468-1.375-.468zm99.61 0a.937.937 0 0 0-.6.219c-.182.145-.404.401-.664.765-.687.948-1.146 1.76-1.375 2.436-.229.677-.344 1.556-.344 2.639 0 .541.005.937.016 1.187.01.25.062.493.156.727.094.234.203.415.328.545.125.13.339.315.64.554.313.271.618.498.915.68.296.182.51.274.646.274.115 0 .402-.19.86-.57.458-.38.963-.83 1.515-1.35.5-.51.855-.88 1.063-1.11.208-.229.389-.482.545-.758.156-.275.247-.513.273-.71.026-.198.04-.499.04-.905 0-.895-.235-1.711-.704-2.445-.468-.734-1.113-1.303-1.935-1.71-.636-.311-1.094-.468-1.375-.468zm-47.164.188c-.261 0-.449.088-.563.265a.498.498 0 0 0-.063.25.79.79 0 0 0 .157.469c.354.416.646 1.739.875 3.967.114.968.26 1.644.437 2.03.167.363.292.78.375 1.25.032.186.12.346.266.476.146.13.326.209.545.24.104.02.193.031.265.031.167 0 .28-.052.336-.156.058-.104.086-.292.086-.563 0-.208.032-.407.094-.6.062-.192.135-.314.219-.366.093-.042.17-.157.226-.344.058-.188.086-.386.086-.594 0-.198.032-.39.094-.578.062-.187.136-.305.219-.352.083-.046.156-.151.219-.318.062-.167.093-.334.093-.5 0-.396.094-.781.282-1.156.603-1.187.904-1.973.904-2.358 0-.125-.021-.244-.063-.359-.104-.27-.295-.406-.576-.406a.788.788 0 0 0-.515.195.803.803 0 0 0-.282.523 4.903 4.903 0 0 1-.375 1.249 24.68 24.68 0 0 0-.656 2.093c-.125.427-.25.782-.375 1.069-.125.286-.219.43-.281.43-.125 0-.26-.5-.406-1.499-.136-1.187-.345-2.199-.631-3.037-.287-.838-.566-1.284-.836-1.336-.052-.006-.105-.015-.156-.015zm94.283.218a.935.935 0 0 0-.532.157c-.114.083-.401.156-.859.218-.458.063-.938.094-1.437.094-.885 0-1.525.091-1.92.274-.396.182-.594.476-.594.882 0 .26.078.59.234.985.23.572.344 1.608.344 3.107 0 .302-.005.613-.016.936a46.778 46.778 0 0 0-.062 1.656c0 .177.003.334.008.469.005.135.024.26.055.375l.078.297c.02.083.067.158.14.226.073.068.136.12.188.156.052.037.14.069.265.1s.232.055.32.07c.09.016.23.03.423.04.192.004.357.015.498.015H179.127c.781 0 1.323-.047 1.625-.14.302-.094.531-.287.688-.579.103-.187.154-.349.154-.484 0-.375-.353-.56-1.06-.56-.302 0-.662.03-1.079.091a4.448 4.448 0 0 1-.703.078c-.24 0-.42-.046-.545-.14-.125-.094-.24-.26-.344-.498a2.065 2.065 0 0 1-.203-.875c0-.459.149-.87.446-1.235.296-.364.709-.635 1.24-.812.395-.136.698-.284.906-.446.208-.161.313-.308.313-.443 0-.156-.126-.284-.375-.383-.25-.098-.605-.148-1.063-.148-.593 0-.985-.05-1.178-.149-.192-.098-.304-.31-.336-.632a1.102 1.102 0 0 1-.03-.235c0-.239.143-.403.429-.492.286-.088.944-.185 1.975-.29 1.676-.145 2.513-.383 2.513-.716 0-.25-.135-.474-.406-.672a1.451 1.451 0 0 0-.873-.297zm-110.998.032a.386.386 0 0 0-.344.203c-.063.114-.094.485-.094 1.11 0 .457.021.92.063 1.388.072.791.109 1.401.109 1.828 0 .677-.1 1.014-.297 1.014-.25 0-.808-.713-1.672-2.14-.645-1.071-1.097-1.763-1.357-2.075-.26-.313-.542-.469-.844-.469-.073 0-.151.006-.234.016-.281.031-.48.091-.594.18-.115.088-.172.23-.172.427 0 .084.005.183.016.297.114 1.603.203 2.926.265 3.967.084 1.155.18 1.982.29 2.482.109.5.262.75.46.75.156 0 .36-.156.61-.469.135-.145.203-.354.203-.625 0-.25-.057-.581-.172-.998-.156-.572-.234-1.26-.234-2.062 0-.177.005-.342.015-.498l.094-1.375 1.295 2.092c.864 1.416 1.375 2.312 1.531 2.687.104.25.243.44.414.576a.881.881 0 0 0 .555.203c.291 0 .54-.14.748-.421.166-.23.286-.653.36-1.272.072-.62.12-1.559.14-2.818 0-1.104-.016-1.888-.047-2.352-.031-.463-.086-.798-.164-1.006a.919.919 0 0 0-.412-.484c-.219-.104-.396-.156-.531-.156zm12.539.015c-1.073 0-1.814.032-2.225.094-.41.062-.647.188-.71.375a1.13 1.13 0 0 0-.095.404c0 .396.277.594.829.594.177 0 .37-.02.578-.062l1.06-.188v2.031c0 1.406-.107 2.36-.326 2.866-.219.504-.63.757-1.234.757-.354 0-.594.026-.72.078-.124.053-.187.165-.187.342 0 .063.011.151.032.266.041.281.127.461.257.539.13.078.446.117.946.117.27 0 .734-.01 1.39-.031 1.905-.073 2.858-.339 2.858-.797a.55.55 0 0 0-.078-.266c-.125-.166-.49-.248-1.094-.248h-.938l.094-2.656.094-2.654h1c.385 0 .742-.12 1.07-.36.328-.239.49-.477.49-.716a.406.406 0 0 0-.123-.297c-.125-.126-1.115-.188-2.968-.188zm13.146 0c-1.072 0-1.815.032-2.226.094-.412.063-.647.188-.71.375l-.001-.002a1.121 1.121 0 0 0-.092.406c0 .396.274.594.826.594.177 0 .37-.02.578-.062l1.063-.188v2.031c0 1.406-.11 2.36-.328 2.865-.22.505-.63.758-1.235.758-.354 0-.592.026-.717.078-.125.053-.187.165-.187.342 0 .063.01.151.031.266.042.281.128.46.258.539.13.078.444.117.943.117.271 0 .735-.01 1.39-.031 1.906-.073 2.858-.339 2.858-.797a.55.55 0 0 0-.078-.266c-.125-.166-.49-.248-1.094-.248h-.935l.094-2.656.093-2.654h.998c.385 0 .743-.12 1.07-.36.329-.239.493-.477.493-.716a.408.408 0 0 0-.125-.297c-.125-.126-1.114-.188-2.967-.188zm-35.447.078c-.125 0-.3.107-.523.32-.224.214-.425.46-.602.74-.188.313-.388.775-.602 1.384a10.72 10.72 0 0 0-.46 1.742c-.302 1.332-.561 2.347-.78 3.045-.218.697-.328 1.264-.328 1.701 0 .666.24 1 .719 1 .333 0 .568-.14.709-.422.14-.28.278-.901.414-1.86.073-.447.61-.81 1.61-1.091.603-.177.976-.266 1.122-.266a.68.68 0 0 1 .188.024.386.386 0 0 1 .14.078c.042.036.081.086.118.148.036.063.07.14.101.235a4.127 4.127 0 0 1 .18.717 101.413 101.413 0 0 0 .195 1.125c.083.468.175.794.274.976.099.182.242.274.43.274a.705.705 0 0 0 .124-.016c.375-.083.563-.547.563-1.39 0-.907-.193-2.028-.578-3.366-.386-1.338-.865-2.522-1.438-3.553-.572-1.03-1.097-1.545-1.576-1.545zm103.789 0c-.125 0-.3.107-.523.32-.224.214-.425.46-.602.74-.187.313-.388.775-.602 1.384a10.72 10.72 0 0 0-.46 1.742c-.302 1.332-.561 2.347-.78 3.045-.218.697-.328 1.264-.328 1.701 0 .666.238 1 .717 1 .333 0 .57-.14.71-.422.141-.28.28-.901.415-1.86.073-.447.608-.81 1.607-1.091.604-.177.98-.266 1.125-.266a.68.68 0 0 1 .188.024.386.386 0 0 1 .14.078c.042.036.081.086.118.148.036.063.07.14.101.235a4.188 4.188 0 0 1 .18.717 101.173 101.173 0 0 0 .195 1.125c.083.468.174.794.273.976.1.182.243.274.43.274a.706.706 0 0 0 .125-.016c.375-.083.56-.547.56-1.39 0-.907-.19-2.028-.575-3.366-.386-1.338-.865-2.522-1.438-3.553-.572-1.03-1.097-1.545-1.576-1.545zm-116.664.86h1.375c.51 0 .912.053 1.209.162.297.11.58.305.851.586.354.375.532.74.532 1.094 0 .353-.162.64-.485.859-.322.219-.743.328-1.263.328-.344 0-.709-.052-1.094-.156-.406-.115-.67-.26-.79-.438-.119-.177-.2-.552-.241-1.125l-.094-1.31zm53.496 0h1.373c.51 0 .914.053 1.211.162.297.11.58.305.852.586.354.375.53.74.53 1.094 0 .353-.16.64-.484.859-.322.219-.745.328-1.265.328-.344 0-.707-.052-1.092-.156-.406-.115-.67-.26-.789-.438-.12-.177-.2-.552-.242-1.125l-.094-1.31zm68.807 0h1.373c.51 0 .914.053 1.21.162.297.11.582.305.852.586.354.375.531.74.531 1.094 0 .353-.161.64-.484.859-.323.219-.745.328-1.266.328-.343 0-.708-.052-1.093-.156-.406-.115-.668-.26-.787-.438-.12-.177-.201-.552-.243-1.125l-.093-1.31zm-135.1.172c.114 0 .307.088.578.265.27.177.524.384.764.623.635.635.953 1.365.953 2.188 0 .916-.386 1.78-1.156 2.592-.74.749-1.369 1.125-1.889 1.125-.427 0-.76-.261-1-.782-.26-.541-.389-1.271-.389-2.187 0-.802.108-1.264.327-1.389.093-.042.169-.133.226-.273a1.13 1.13 0 0 0 .086-.43c0-.323.183-.693.547-1.11.364-.416.682-.622.953-.622zm99.61 0c.114 0 .307.088.578.265.27.177.526.384.765.623.635.635.953 1.365.953 2.188 0 .916-.386 1.78-1.156 2.592-.74.749-1.368 1.125-1.889 1.125-.427 0-.76-.261-1-.782-.26-.541-.39-1.271-.39-2.187 0-.802.11-1.264.328-1.389.094-.042.17-.133.226-.273a1.13 1.13 0 0 0 .086-.43c0-.323.183-.693.547-1.11.365-.416.68-.622.951-.622zM60.694 42.32c.167 0 .33.123.49.367.162.245.3.597.415 1.055.03.136.046.266.046.39a1.3 1.3 0 0 1-.484 1.046c-.323.27-.743.406-1.264.406-.166 0-.289-.029-.367-.086-.078-.057-.117-.164-.117-.32 0-.313.22-1.035.656-2.17.177-.458.386-.688.625-.688zm103.787 0c.167 0 .331.123.493.367.161.245.299.597.414 1.055.03.136.047.266.047.39a1.3 1.3 0 0 1-.485 1.046c-.323.27-.743.406-1.263.406-.167 0-.29-.029-.368-.086-.078-.057-.117-.164-.117-.32 0-.313.22-1.035.656-2.17.177-.458.384-.688.623-.688zm20.717 5.451c-.281 0-.531.119-.75.358-.166.208-.25.443-.25.703 0 .104.021.193.063.266.114.301.339.453.672.453.25 0 .484-.091.703-.274a.85.85 0 0 0 .31-.836.768.768 0 0 0-.256-.492.736.736 0 0 0-.492-.178zM53.742 61.326a.5.5 0 0 0-.05.002.5.5 0 0 0-.458.584c2.094 13.24 5.935 26.127 8.202 39.246a.5.5 0 0 0 .095.22c.168.22.336.437.504.655a.5.5 0 1 0 .793-.61l-.435-.566c-2.284-13.15-6.097-25.993-8.17-39.101a.5.5 0 0 0-.48-.43zm167.496 8.617c-.218 0-.463.068-.734.203-.167.105-.31.25-.43.438-.12.187-.18.36-.18.516 0 .177-.038.367-.117.57-.078.203-.169.357-.273.46a.671.671 0 0 0-.217.485c0 .188.082.35.248.485.167.134.38.2.64.2.345 0 .678-.3 1-.904.323-.603.485-1.177.485-1.718 0-.354-.094-.592-.281-.717-.032-.006-.078-.018-.14-.018zm-38.634.391c-.157 0-.308.083-.454.25-.26.323-.687 2.217-1.28 5.684l-.188 1.25-.438-1.032c-.135-.322-.302-.57-.5-.742-.198-.171-.4-.256-.607-.256-.302 0-.557.176-.766.53-.135.25-.25.375-.344.375-.24 0-.432-.822-.578-2.467-.135-1.437-.385-2.342-.75-2.717-.239-.229-.394-.344-.467-.344-.072 0-.156.115-.25.344-.052.156-.078.401-.078.734 0 .333.026.66.078.983a126.917 126.917 0 0 0 .678 3.826c.1.51.185.901.258 1.172.073.27.146.518.219.742.073.224.148.378.226.467a.74.74 0 0 0 .235.187.672.672 0 0 0 .289.057c.228 0 .398-.078.508-.234.109-.157.195-.428.257-.813.052-.354.151-.651.297-.89.146-.24.282-.36.406-.36.156 0 .233.177.233.531 0 .167.055.38.164.64.11.261.242.48.398.657l.563.688.5-.72c.24-.374.44-.864.601-1.468.162-.604.326-1.483.493-2.638.052-.323.12-.618.203-.883.083-.266.16-.417.232-.46.188-.103.281-.612.281-1.523 0-.91-.093-1.424-.28-1.539a.3.3 0 0 0-.14-.031zm13.95.125c-.187 0-.291.078-.312.234 0 .667.01 1.311.031 1.936v.297c0 .958-.083 1.693-.25 2.203-.187.52-.416 1.228-.687 2.123-.156.53-.31.888-.461 1.07-.151.183-.36.274-.63.274-.511 0-.866-.154-1.063-.461-.198-.307-.297-.9-.297-1.774 0-.343.016-.764.047-1.263.072-1.614.156-2.686.25-3.217a.92.92 0 0 0 .03-.219c0-.281-.177-.448-.53-.5h-.141c-.208 0-.37.102-.484.305-.115.203-.25.62-.407 1.256-.25 1.061-.375 2.031-.375 2.906 0 1.207.238 2.191.711 2.951.474.76 1.163 1.253 2.069 1.482.145.031.27.047.375.047a.944.944 0 0 0 .57-.203c.182-.135.42-.373.71-.717.23-.28.433-.588.61-.921.177-.334.266-.59.266-.766 0-.417.094-.74.281-.969.187-.197.36-.8.522-1.81.161-1.01.242-1.905.242-2.686 0-.479-.037-.792-.11-.937a1.253 1.253 0 0 0-.443-.461c-.192-.12-.367-.18-.523-.18zm27.239.047c-.666 0-1.125.029-1.375.086-.25.057-.406.164-.469.32a1.157 1.157 0 0 0-.093.422c0 .448.485.672 1.453.672h.359l1.436-.094-.032 1.219a92.824 92.824 0 0 1-.28 3.84l-.25 2.625.75-.125c.3-.032.504-.125.608-.282.105-.156.172-.458.204-.906.072-.645.166-1.864.28-3.654l.188-2.56 1.28-.094c.52-.032.87-.094 1.047-.188.176-.094.265-.26.265-.5a.505.505 0 0 0-.07-.289.581.581 0 0 0-.235-.18c-.109-.052-.312-.094-.609-.125-.297-.03-.63-.057-1-.078a142.9 142.9 0 0 0-1.615-.076 77.553 77.553 0 0 0-1.842-.033zm-23.629.078c-.177 0-.342.026-.498.078-.156.052-.26.11-.312.172-.115.187-.193.709-.235 1.562a7.1 7.1 0 0 1-.11 1.014c-.062.354-.124.604-.187.75-.062.135-.14.519-.234 1.149s-.167 1.287-.219 1.974a21.067 21.067 0 0 0-.094 1.61c0 .479.058.815.172 1.013.115.198.323.297.625.297.292 0 .827-.12 1.608-.36.708-.207 1.339-.31 1.89-.31.157 0 .277.008.36.03.135.03.258.046.373.046.187 0 .336-.042.445-.13a.43.43 0 0 0 .164-.352c0-.26-.156-.516-.469-.766-.322-.26-.607-.39-.857-.39-.208 0-.506.073-.89.218-.74.25-1.24.47-1.5.657a.86.86 0 0 1-.438.14c-.083 0-.144-.026-.186-.078-.02-.02-.033-.099-.033-.234 0-.375.089-1.106.266-2.194.177-1.087.406-2.261.687-3.521.177-.833.266-1.412.266-1.734 0-.24-.047-.406-.14-.5-.094-.094-.246-.141-.454-.141zm-49.547.047a.355.355 0 0 0-.234.078.652.652 0 0 0-.164.227c-.047.098-.089.276-.125.53-.037.256-.07.532-.102.829-.031.297-.068.725-.11 1.287-.186 2.499-.28 4.056-.28 4.67 0 .541.041.89.125 1.047.083.156.245.234.484.234.27 0 .45-.112.539-.336.088-.224.159-.742.21-1.554l.095-1.858h3.545v1.467c0 .822.138 1.509.414 2.06.276.552.61.829 1.005.829.074 0 .141-.01.204-.032.218-.062.39-.164.515-.31a.768.768 0 0 0 .188-.516c0-.333-.172-.64-.516-.922-.385-.312-.578-.837-.578-1.576 0-.624.13-1.64.39-3.045.157-.958.235-1.724.235-2.297 0-.197-.016-.333-.047-.406-.104-.27-.286-.406-.547-.406-.197 0-.38.086-.547.258-.166.172-.253.398-.263.68 0 .499-.023 1.114-.065 1.843l-.06 1.076h-3.967l.25-.906c.197-.697.297-1.28.297-1.748 0-.729-.23-1.125-.688-1.188-.083-.006-.15-.015-.203-.015zm-5.83.015a.942.942 0 0 0-.601.22c-.183.145-.402.4-.663.765h-.002c-.687.947-1.144 1.759-1.373 2.435-.229.677-.343 1.556-.343 2.64 0 .54.005.937.015 1.187.01.25.063.492.156.726.094.234.204.417.329.547.124.13.338.313.64.553.313.27.616.497.912.68.297.182.513.273.649.273.114 0 .401-.19.86-.57.457-.38.961-.83 1.513-1.35.5-.51.854-.88 1.062-1.11.209-.229.391-.481.547-.757.156-.276.248-.513.274-.711.026-.198.039-.498.039-.904 0-.896-.235-1.71-.703-2.444a4.726 4.726 0 0 0-1.936-1.71c-.635-.313-1.094-.47-1.375-.47zm41.815 0a.942.942 0 0 0-.602.22c-.182.145-.402.4-.662.765h-.002c-.687.947-1.144 1.759-1.373 2.435-.23.677-.344 1.556-.344 2.64 0 .54.005.937.016 1.187.01.25.062.492.156.726.094.234.203.417.328.547.125.13.339.313.64.553.313.27.616.497.913.68.296.182.513.273.648.273.115 0 .402-.19.86-.57.458-.38.961-.83 1.513-1.35.5-.51.855-.88 1.063-1.11.208-.229.39-.481.547-.757.156-.276.247-.513.273-.711.026-.198.04-.498.04-.904 0-.896-.235-1.71-.704-2.444a4.726 4.726 0 0 0-1.935-1.71c-.636-.313-1.094-.47-1.375-.47zm20.298.172c-.437 0-.834.03-1.193.086-.36.058-.565.123-.617.196-.104.135-.198 1.78-.281 4.935-.011.729-.016 1.332-.016 1.81 0 1.135.05 1.976.148 2.522.1.547.269.92.508 1.117.24.198.61.297 1.11.297h.232c1.364-.031 2.462-.594 3.295-1.687.833-1.093 1.25-2.482 1.25-4.168 0-.719-.083-1.454-.25-2.203-.187-.854-.673-1.55-1.459-2.092s-1.696-.813-2.727-.813zm10.643.266a.386.386 0 0 0-.344.203c-.062.115-.093.485-.093 1.11 0 .458.02.92.062 1.388.073.792.11 1.402.11 1.828 0 .677-.1 1.016-.297 1.016-.25 0-.807-.715-1.67-2.14-.646-1.073-1.1-1.765-1.36-2.077-.26-.312-.54-.469-.842-.469-.072 0-.15.006-.234.016-.281.031-.48.09-.594.18-.114.088-.172.232-.172.43 0 .083.005.182.016.296.114 1.603.203 2.924.266 3.965.083 1.156.18 1.983.289 2.482.109.5.263.75.46.75.157 0 .358-.156.608-.468.135-.146.203-.353.203-.623 0-.25-.057-.584-.172-1-.156-.573-.234-1.26-.234-2.06 0-.178.007-.344.018-.5l.091-1.376 1.297 2.092c.864 1.416 1.374 2.313 1.53 2.687.104.25.242.443.414.579a.88.88 0 0 0 .554.2c.292 0 .542-.138.75-.42.167-.228.287-.653.36-1.273.073-.619.12-1.558.14-2.818 0-1.103-.016-1.886-.047-2.35-.03-.463-.086-.8-.164-1.007a.922.922 0 0 0-.414-.485c-.219-.104-.396-.156-.531-.156zm-49.434.016c-1.072 0-1.813.031-2.224.093-.411.063-.649.188-.711.375a1.126 1.126 0 0 0-.094.407c0 .395.277.591.828.591.177 0 .37-.018.578-.06l1.06-.188v2.03c0 1.405-.109 2.36-.327 2.865-.219.505-.629.758-1.233.758-.354 0-.594.026-.718.078-.125.052-.188.167-.188.344 0 .062.01.15.031.265.042.281.128.46.258.537.13.078.444.117.944.117.27 0 .734-.008 1.39-.029 1.905-.073 2.858-.339 2.858-.797a.55.55 0 0 0-.079-.265c-.124-.167-.488-.25-1.091-.25h-.938l.094-2.655.094-2.656h1c.385 0 .74-.118 1.068-.357.328-.24.492-.48.492-.719a.408.408 0 0 0-.125-.297c-.125-.125-1.114-.187-2.967-.187zm-23.025 1.109c.114 0 .307.089.578.266.27.177.526.385.766.625.635.634.95 1.363.95 2.185 0 .916-.383 1.78-1.153 2.592-.74.75-1.37 1.125-1.891 1.125-.427 0-.759-.26-.998-.781-.26-.542-.39-1.27-.39-2.186 0-.801.109-1.266.327-1.39.094-.042.17-.133.227-.274.057-.14.084-.284.084-.43 0-.322.182-.69.547-1.107.364-.416.682-.625.953-.625zm41.814 0c.115 0 .308.089.579.266.27.177.526.385.765.625.635.634.951 1.363.951 2.185 0 .916-.384 1.78-1.154 2.592-.74.75-1.37 1.125-1.89 1.125-.428 0-.76-.26-.999-.781-.26-.542-.39-1.27-.39-2.186 0-.801.11-1.266.328-1.39.094-.042.17-.133.226-.274.058-.14.084-.284.084-.43 0-.322.183-.69.547-1.107.365-.416.683-.625.953-.625zm20.291.031c.214 0 .582.068 1.102.203 1.041.282 1.563 1.599 1.563 3.952 0 1.238-.225 2.157-.672 2.755-.448.599-1.136.899-2.063.899-.229 0-.393 0-.492-.01a1.185 1.185 0 0 1-.31-.062c-.11-.036-.18-.076-.212-.118a.862.862 0 0 1-.101-.256 1.445 1.445 0 0 1-.055-.39v-.586c0-1.082.154-2.418.461-4.006.307-1.588.566-2.38.78-2.38zm-47.992 5.684c-.156 0-.286.075-.39.226-.105.151-.157.368-.157.649 0 .427-.125.928-.375 1.506s-.503.966-.763 1.164c-.156.156-.276.448-.36.875a.775.775 0 0 0-.015.156c0 .177.055.313.164.412.11.1.247.149.414.149.187 0 .378-.063.576-.188.198-.125.365-.3.5-.53.25-.468.438-.76.563-.874.27-.271.487-.605.648-1 .161-.396.242-.77.242-1.123 0-.271-.047-.5-.14-.688-.271-.489-.573-.734-.907-.734zm36.61 11.728a.777.777 0 0 0-.461.162.97.97 0 0 0-.336.446c-.198.447-.59 1-1.178 1.656-.588.656-.997.983-1.227.982a.294.294 0 0 1-.226-.115.404.404 0 0 1-.102-.273c-.01-.323-.347-.826-1.013-1.508-.667-.682-1.146-1.023-1.438-1.023a.144.144 0 0 0-.062.015c-.208.084-.313.224-.313.422 0 .375.412 1.063 1.235 2.063.426.53.713 1 .859 1.412.146.41.27 1.09.373 2.037.063.697.122 1.19.18 1.476.057.286.13.485.218.594.089.109.227.164.414.164.188 0 .32-.047.399-.14.078-.094.133-.266.164-.516s.047-.683.047-1.297v-.834c0-.172.023-.38.07-.625.047-.245.089-.417.125-.516.037-.098.133-.268.29-.507.155-.24.301-.44.437-.602.135-.161.354-.423.656-.787.416-.5.766-.967 1.053-1.399.286-.432.43-.71.43-.835 0-.084-.058-.18-.172-.29a.588.588 0 0 0-.422-.162zm15.726.014c-.624 0-1.08.04-1.367.117a1.223 1.223 0 0 0-.662.414v.002c-.188.22-.336.801-.445 1.748-.11.947-.164 2.015-.164 3.201 0 2.405.167 3.962.5 4.67.145.313.315.586.513.82.198.235.37.35.516.35.135 0 .232-.063.289-.193.057-.13.086-.357.086-.68 0-.322-.032-.802-.094-1.437l-.219-2.31h1.11c.78 0 1.342-.087 1.685-.259.344-.171.516-.466.516-.882 0-.24-.044-.404-.133-.493-.088-.088-.279-.132-.57-.132-.188 0-.488.02-.905.062l-1.593.219v-3.451l2.42-.11c.458-.02.81-.041 1.054-.062.245-.021.47-.047.672-.078.203-.032.344-.078.422-.141a.593.593 0 0 0 .172-.21.771.771 0 0 0 .055-.321.771.771 0 0 0-.055-.32.542.542 0 0 0-.188-.211c-.088-.063-.247-.11-.476-.141-.23-.031-.485-.057-.766-.078a38.93 38.93 0 0 0-1.217-.06 27.176 27.176 0 0 0-1.156-.034zm-7.515.5a.942.942 0 0 0-.602.219c-.182.145-.404.401-.664.765-.687.948-1.146 1.76-1.375 2.436-.229.677-.342 1.556-.342 2.639 0 .54.005.937.016 1.187.01.25.06.493.154.727.094.234.203.414.328.545.125.13.339.315.64.554.313.271.618.498.915.68.296.182.513.273.648.273.115 0 .4-.19.858-.57a32.2 32.2 0 0 0 1.515-1.35c.5-.51.855-.88 1.063-1.109.208-.229.39-.482.547-.758.156-.276.245-.513.271-.71.026-.198.04-.499.04-.905 0-.895-.233-1.71-.702-2.443a4.73 4.73 0 0 0-1.937-1.711c-.635-.313-1.092-.469-1.373-.469zm-37.803.172c-.438 0-.836.029-1.195.086-.36.057-.564.122-.616.195-.104.136-.198 1.781-.281 4.936-.01.728-.016 1.331-.016 1.81 0 1.135.05 1.975.149 2.522.099.546.268.919.508 1.117.24.198.607.297 1.107.297h.234c1.364-.032 2.463-.595 3.295-1.688.833-1.093 1.25-2.481 1.25-4.168 0-.718-.083-1.453-.25-2.203-.187-.853-.675-1.55-1.46-2.092-.787-.54-1.695-.812-2.725-.812zm-11.58.234a.935.935 0 0 0-.531.156v.003c-.115.083-.402.154-.86.216a10.52 10.52 0 0 1-1.435.096c-.885 0-1.527.091-1.922.273-.396.183-.594.475-.594.881 0 .26.08.59.236.985.23.572.342 1.608.342 3.107 0 .302-.005.615-.016.938a46.722 46.722 0 0 0-.062 1.654c0 .177.005.334.01.469.005.135.022.26.053.375l.078.297c.02.083.067.158.14.226.073.068.136.12.188.156.052.037.14.07.266.102.124.03.231.054.32.07.088.016.229.03.422.04.192.004.36.013.5.013H152.543c.781 0 1.321-.047 1.623-.14.302-.094.531-.287.688-.579.103-.187.156-.347.156-.482 0-.375-.355-.563-1.063-.563a7.49 7.49 0 0 0-1.078.094 4.38 4.38 0 0 1-.7.076c-.24 0-.423-.046-.548-.14-.125-.094-.24-.26-.344-.498a2.065 2.065 0 0 1-.203-.875c0-.459.149-.87.446-1.235.296-.364.711-.633 1.242-.81.395-.136.696-.284.904-.446.208-.161.313-.31.313-.445 0-.156-.125-.284-.375-.383-.25-.098-.603-.148-1.06-.148-.594 0-.988-.05-1.18-.149-.193-.098-.305-.31-.337-.632a1.102 1.102 0 0 1-.03-.235c0-.24.143-.401.429-.49.286-.089.944-.185 1.975-.29 1.676-.145 2.515-.385 2.515-.718 0-.25-.135-.474-.406-.672a1.456 1.456 0 0 0-.875-.297zm7.289 0a.935.935 0 0 0-.531.156v.003c-.115.083-.402.154-.86.216a10.52 10.52 0 0 1-1.435.096c-.885 0-1.527.091-1.922.273-.396.183-.594.475-.594.881 0 .26.08.59.236.985.23.572.342 1.608.342 3.107 0 .302-.005.615-.015.938a46.722 46.722 0 0 0-.063 1.654c0 .177.005.334.01.469.005.135.024.26.055.375l.076.297c.02.083.068.158.14.226.073.068.136.12.188.156.052.037.14.07.266.102.125.03.232.054.32.07.089.016.23.03.422.04.193.004.36.013.5.013H159.832c.781 0 1.321-.047 1.623-.14.302-.094.531-.287.688-.579.104-.187.156-.347.156-.482 0-.375-.355-.563-1.062-.563-.302 0-.66.032-1.077.094a4.4 4.4 0 0 1-.703.076c-.24 0-.422-.046-.547-.14-.124-.094-.24-.26-.343-.498a2.065 2.065 0 0 1-.203-.875c0-.459.148-.87.445-1.235.297-.364.711-.633 1.242-.81.396-.136.696-.284.904-.446.209-.161.313-.31.313-.445 0-.156-.125-.284-.375-.383-.25-.098-.603-.148-1.06-.148-.594 0-.988-.05-1.18-.149-.193-.098-.305-.31-.336-.632a1.109 1.109 0 0 1-.032-.235c0-.24.144-.401.43-.49.286-.089.944-.185 1.975-.29 1.676-.145 2.515-.385 2.515-.718 0-.25-.135-.474-.406-.672a1.456 1.456 0 0 0-.875-.297zm-14.53.031c-.145 0-.258.068-.341.204-.063.114-.094.484-.094 1.109 0 .458.019.92.06 1.389.073.791.11 1.401.11 1.828 0 .676-.097 1.015-.295 1.015-.25 0-.808-.714-1.672-2.14-.645-1.073-1.099-1.764-1.36-2.076-.26-.313-.539-.47-.841-.47-.073 0-.151.006-.234.017-.282.03-.48.091-.594.18-.115.088-.172.231-.172.429 0 .083.005.182.016.297.114 1.603.203 2.923.265 3.965.083 1.155.18 1.984.29 2.484.109.5.262.748.46.748.156 0 .36-.156.61-.469.135-.146.2-.352.2-.623 0-.25-.056-.583-.171-1-.156-.572-.232-1.259-.232-2.06 0-.177.005-.344.015-.5l.092-1.375 1.297 2.091c.864 1.416 1.375 2.313 1.531 2.688.104.25.24.443.412.578a.88.88 0 0 0 .555.201c.291 0 .541-.139.75-.42.166-.229.286-.654.36-1.273.072-.62.12-1.559.14-2.818 0-1.104-.016-1.887-.047-2.35-.031-.463-.086-.8-.164-1.008a.922.922 0 0 0-.414-.484c-.22-.105-.396-.156-.531-.156zm40.596 0a.386.386 0 0 0-.344.204c-.062.114-.093.484-.093 1.109 0 .458.02.92.062 1.389.073.791.11 1.401.11 1.828 0 .676-.1 1.015-.297 1.015-.25 0-.808-.714-1.672-2.14-.646-1.073-1.097-1.764-1.358-2.076-.26-.313-.541-.47-.843-.47-.073 0-.151.006-.235.017-.28.03-.479.091-.593.18-.115.088-.172.231-.172.429 0 .083.005.182.015.297.115 1.603.203 2.923.266 3.965.083 1.155.18 1.984.289 2.484.11.5.263.748.461.748.156 0 .36-.156.61-.469.135-.146.202-.352.202-.623 0-.25-.057-.583-.171-1-.156-.572-.235-1.259-.235-2.06 0-.177.005-.344.016-.5l.094-1.375 1.294 2.091c.865 1.416 1.376 2.313 1.532 2.688.104.25.242.443.414.578a.88.88 0 0 0 .554.201c.292 0 .542-.139.75-.42.167-.229.285-.654.358-1.273.073-.62.12-1.559.14-2.818 0-1.104-.015-1.887-.046-2.35-.032-.463-.086-.8-.164-1.008a.918.918 0 0 0-.413-.484c-.218-.105-.396-.156-.53-.156zm-9.761.094c-.126 0-.3.107-.524.32a3.875 3.875 0 0 0-.601.743c-.188.312-.389.772-.602 1.38-.213.61-.367 1.191-.461 1.743-.302 1.332-.56 2.347-.78 3.045-.218.697-.327 1.264-.327 1.7 0 .667.24 1 .718 1 .333 0 .569-.14.71-.421.14-.281.278-.9.413-1.857.073-.448.61-.813 1.61-1.094.604-.177.977-.266 1.123-.266.073 0 .135.008.187.024a.386.386 0 0 1 .14.078c.043.036.082.086.118.148.037.063.07.14.102.235a4.178 4.178 0 0 1 .18.719 100.436 100.436 0 0 0 .195 1.122c.083.469.174.795.273.977.099.182.243.273.43.273a.748.748 0 0 0 .125-.015c.374-.083.562-.547.562-1.39 0-.907-.193-2.028-.578-3.366-.385-1.338-.865-2.52-1.437-3.55-.573-1.031-1.098-1.548-1.577-1.548zm26.085 1.031c.115 0 .306.09.577.266.27.177.526.386.765.625.635.635.953 1.363.953 2.186 0 .916-.385 1.78-1.156 2.591-.74.75-1.368 1.125-1.889 1.125-.427 0-.76-.26-1-.78-.26-.542-.39-1.27-.39-2.186 0-.802.11-1.266.328-1.391.094-.042.17-.133.227-.273a1.13 1.13 0 0 0 .085-.43c0-.323.183-.691.547-1.108.365-.416.683-.624.953-.624zm-37.81.032c.213 0 .581.068 1.101.203 1.042.281 1.561 1.598 1.561 3.951 0 1.239-.222 2.157-.67 2.756-.448.599-1.136.898-2.062.898-.23 0-.394 0-.493-.01a1.198 1.198 0 0 1-.312-.062c-.11-.036-.18-.075-.211-.117a.882.882 0 0 1-.102-.258 1.428 1.428 0 0 1-.052-.389v-.586c0-1.082.152-2.418.459-4.005.307-1.588.567-2.381.78-2.381zm11.959.984c.166 0 .329.12.49.365.162.245.3.597.414 1.055.031.135.047.266.047.39 0 .427-.162.777-.484 1.048-.323.27-.744.406-1.264.406-.166 0-.289-.031-.367-.088-.078-.057-.117-.164-.117-.32 0-.313.219-1.035.656-2.17.177-.458.385-.686.625-.686zm-17.41 11.455a.5.5 0 0 0-.461.375c-.855 3.136-4.378 5.01-7.705 5.9a.5.5 0 1 0 .258.967c3.49-.935 7.405-2.908 8.412-6.603a.5.5 0 0 0-.504-.639zm-18.362.899v.002a.5.5 0 0 0-.043 0c-6.126.646-9.346 6.67-8.142 11.867.397 3.174 3.244 5.106 6.258 5.555.019.003.039.003.058.006-.108.734-.18 1.466-.217 2.197a11.902 11.902 0 0 0-3.168.344.5.5 0 0 0-.087.03c-1.413.656-2.282.583-2.946.17-.663-.411-1.178-1.275-1.572-2.39-.394-1.115-.668-2.451-.941-3.719-.274-1.267-.54-2.462-.995-3.365a.5.5 0 0 0-.439-.281.5.5 0 0 0-.453.73c.36.715.638 1.869.91 3.127.272 1.259.546 2.627.975 3.84.428 1.213 1.009 2.3 1.988 2.908.966.6 2.263.622 3.83-.088.92-.23 1.893-.326 2.863-.304-.062 4.057.69 8.06.785 11.986a.5.5 0 0 0-.06.578l.08.143a25.55 25.55 0 0 1-.074 2.082c-1.536 5.026-3.001 10.09-3.178 15.422-.017.036-.054.08-.062.109a.94.94 0 0 0-.038.309c.001.185.028.368.075.544.023.088.046.17.11.28a.54.54 0 0 0 .185.197c.11.074.35.119.513.047.328-.144.31-.315.346-.436.036-.12.056-.249.076-.42a.5.5 0 0 0-.223-.484c.155-5.232 1.62-10.266 3.172-15.346a.5.5 0 0 0 .02-.105c.013-.166.019-.332.03-.498 3.114 5.562 6.352 11.077 7.948 17.1a.5.5 0 0 0 .485.37H151.082a.5.5 0 1 0 .035-1h-.002c-1.826-6.59-5.465-12.497-8.734-18.417-.026-4.188-.839-8.325-.8-12.393 1.082.12 2.139.388 3.089.813 2.096.935 3.664 2.552 4.045 4.841a.5.5 0 0 0 .03.102c.29.733 1.247 2.6 2.087 3.93.21.332.41.629.6.869.189.24.323.425.61.56.145.068.435.108.647-.049.213-.156.251-.35.272-.5.042-.3-.004-.61-.1-1.087a.5.5 0 0 0-.976-.026c-.072-.106-.131-.18-.207-.3-.79-1.251-1.767-3.181-1.994-3.749-.468-2.61-2.308-4.48-4.606-5.505a11.456 11.456 0 0 0-3.469-.907c.035-.727.104-1.451.211-2.174 2.712.099 5.468-.962 6.719-3.449a.5.5 0 0 0 .045-.129c.474-2.434.653-5.392-.086-8.027-.74-2.635-2.465-4.962-5.658-5.89a.5.5 0 0 0-.149-.02zm-.025 1.027c2.786.853 4.204 2.784 4.87 5.154.666 2.378.516 5.17.073 7.485-1.062 2.043-3.437 2.959-5.847 2.845a.5.5 0 0 0-.37-.142.5.5 0 0 0-.263.088c-.073-.01-.146-.01-.219-.02-2.706-.402-5.103-2.059-5.422-4.713a.5.5 0 0 0-.01-.054c-1.086-4.63 1.724-10.006 7.188-10.643zm41.232 3.42c-.666 0-1.123.029-1.373.086-.25.057-.406.164-.468.32a1.157 1.157 0 0 0-.094.422c0 .448.483.672 1.451.672h.36l1.437-.094-.031 1.219a92.799 92.799 0 0 1-.281 3.84l-.25 2.625.75-.125c.301-.031.505-.125.609-.281.104-.157.172-.459.203-.907.073-.645.167-1.864.281-3.654l.188-2.56 1.28-.094c.52-.031.869-.094 1.046-.188.177-.093.266-.26.266-.5a.505.505 0 0 0-.07-.289.581.581 0 0 0-.235-.18c-.11-.051-.313-.094-.61-.125-.296-.03-.63-.057-1-.078-.369-.02-.907-.045-1.615-.076a77.683 77.683 0 0 0-1.843-.033zm22.723 0c-.666 0-1.125.029-1.375.086-.25.057-.406.164-.469.32a1.15 1.15 0 0 0-.091.422c0 .448.483.672 1.45.672h.36l1.438-.094-.032 1.219a92.799 92.799 0 0 1-.28 3.84l-.25 2.625.75-.125c.3-.031.502-.125.607-.281.104-.157.171-.459.203-.907.072-.645.166-1.864.28-3.654l.188-2.56 1.282-.094c.52-.031.868-.094 1.045-.188.177-.093.265-.26.265-.5a.505.505 0 0 0-.07-.289.581.581 0 0 0-.234-.18c-.11-.051-.311-.094-.608-.125-.297-.03-.63-.057-1-.078-.37-.02-.907-.045-1.615-.076a77.682 77.682 0 0 0-1.844-.033zm-139.52.107a7.726 7.726 0 0 0-1.124.065v-.002c-1.483.194-2.87.839-3.84 2.049-3.004 3.211-3.46 8.702.035 11.798a.5.5 0 0 0 .008.01c.62.527 1.258.821 1.996.958.732.135 1.56.136 2.68.146a.5.5 0 0 0 .01 0h.009a.5.5 0 0 0 .004 0 .5.5 0 0 0 .105-.014c1.92-.41 3.831-.532 5.48-.996 1.65-.463 3.083-1.351 3.747-3.187.75-2.117.287-4.297-.855-6.098-1.141-1.8-2.953-3.252-4.99-4.03-1-.43-2.134-.682-3.264-.698zm123.989.018a.355.355 0 0 0-.235.078.653.653 0 0 0-.164.227c-.046.098-.088.276-.125.53-.036.256-.07.532-.101.829-.031.297-.068.725-.11 1.287-.187 2.499-.28 4.056-.28 4.67 0 .541.041.89.124 1.047.083.156.245.232.485.232.27 0 .45-.11.539-.334.088-.224.158-.742.21-1.554l.094-1.858h3.545v1.467c0 .822.136 1.51.412 2.062.276.552.613.827 1.008.827.073 0 .141-.01.203-.032.219-.062.39-.164.516-.31a.768.768 0 0 0 .187-.516c0-.333-.171-.64-.515-.922-.385-.312-.578-.837-.578-1.576 0-.624.13-1.641.39-3.047.157-.958.235-1.722.235-2.295 0-.197-.016-.333-.047-.406-.104-.27-.287-.406-.547-.406-.198 0-.38.086-.547.258-.167.172-.253.399-.264.68 0 .5-.022 1.114-.064 1.843l-.063 1.076h-3.964l.25-.906c.197-.697.296-1.28.296-1.748 0-.728-.229-1.124-.687-1.187-.083-.006-.151-.016-.203-.016zm9.83.547c-.125 0-.3.107-.524.32a3.875 3.875 0 0 0-.601.742c-.188.313-.388.772-.602 1.381a10.72 10.72 0 0 0-.46 1.742c-.302 1.333-.561 2.348-.78 3.045-.218.698-.328 1.264-.328 1.701 0 .667.24 1 .719 1 .333 0 .568-.14.709-.421.14-.281.278-.9.414-1.858.073-.448.61-.813 1.61-1.094.603-.176.976-.265 1.122-.265.073 0 .136.007.188.023a.386.386 0 0 1 .14.078c.042.037.081.087.118.149.036.062.07.14.101.234s.063.198.094.313c.031.114.06.25.086.406a100.436 100.436 0 0 0 .195 1.123c.083.468.174.794.273.976.1.183.243.274.43.274a.748.748 0 0 0 .125-.016c.375-.083.563-.547.563-1.39 0-.906-.193-2.028-.579-3.366-.385-1.337-.865-2.52-1.437-3.55-.573-1.031-1.097-1.547-1.576-1.547zm-133.791.449c.984.014 1.98.226 2.855.605a.5.5 0 0 0 .02.01c1.833.698 3.493 2.037 4.508 3.637 1.014 1.6 1.391 3.43.758 5.223-.55 1.519-1.582 2.144-3.077 2.564-1.476.415-3.368.552-5.351.97-1.103-.01-1.894-.023-2.485-.132-.598-.11-1.016-.3-1.525-.73-3.018-2.68-2.614-7.553.045-10.381a.5.5 0 0 0 .027-.031c.78-.982 1.967-1.515 3.25-1.678v-.002c.321-.04.647-.06.975-.055zm134.025 1.596c.167 0 .33.122.49.367.162.245.3.596.415 1.055.03.135.046.265.046.39 0 .427-.16.776-.482 1.047-.323.27-.745.406-1.266.406-.166 0-.289-.03-.367-.088-.078-.057-.117-.164-.117-.32 0-.312.22-1.035.656-2.17.177-.458.386-.687.625-.687zm12.096 1.781c-.583 0-.912.052-.984.156a.492.492 0 0 0-.078.266c0 .312.237.61.71.896.474.287.975.43 1.506.43.5 0 .946-.102 1.336-.305.39-.203.586-.423.586-.662 0-.104-.052-.203-.156-.297-.146-.135-.526-.25-1.14-.343a11.808 11.808 0 0 0-1.78-.141zM66.916 125.039a.5.5 0 0 0-.418.277c-4.418.796-9.125 1.769-13.297 3.647a.5.5 0 1 0 .41.912c3.957-1.781 8.491-2.739 12.817-3.523-.118 4.914 1.065 9.916 1.295 14.445-.005.01-.011.014-.016.023-.03.052-.052.123-.078.184-.17.076-.33.178-.46.32-.423.468-.657 1.195-.806 2.303-1.254 4.714-4.155 9.16-5.068 14.283a.5.5 0 1 0 .984.176c.867-4.864 3.749-9.287 5.057-14.223a.5.5 0 0 0 .012-.064c.13-1.001.37-1.562.54-1.772.12.061.249.098.358.096a.5.5 0 0 0 .19-.04c.475.388 1.168 1.485 1.498 2.614a.5.5 0 0 0 .043.106c2.38 4.244 4.05 8.85 5.853 13.38a.5.5 0 1 0 .928-.37c-1.795-4.51-3.474-9.16-5.908-13.5-.412-1.355-1.087-2.659-2.04-3.213-.025-.016-.057-.022-.083-.036a.5.5 0 0 0 .015-.14c-.215-4.735-1.431-9.8-1.31-14.606 3.114 3.327 5.2 7.7 8.193 11.477l.451.818.412.85a.5.5 0 1 0 .9-.438l-.42-.861a.5.5 0 0 0-.011-.022l-.46-.837a.5.5 0 0 0-.048-.07c-3.008-3.778-5.11-8.403-8.572-11.95a.5.5 0 0 0-.36-.15v-.002a.5.5 0 0 0-.085.01l-.147.027a.5.5 0 0 0-.318-.13.5.5 0 0 0-.051 0zm53.154 33.516a1.947 1.947 0 0 0-1.13.47.5.5 0 0 0-.174.346c-.141 2.054-1.293 3.525-3.067 4.54-1.773 1.014-4.165 1.519-6.611 1.501-2.446-.018-4.942-.557-6.924-1.562-1.982-1.006-3.428-2.454-3.914-4.3a.5.5 0 0 0-.98.186c.182 1.553-.614 3.174-.58 5.082a.5.5 0 0 0 .011.098c.415 1.899-.07 3.298-1.11 4.367-1.039 1.07-2.684 1.785-4.577 2.07-3.715.561-8.284-.576-10.856-3.322h-.002c-.046-.07-.098-.152-.228-.23-.13-.078-.41-.103-.576 0a.5.5 0 0 0-.116.76c.032.036.08.055.112.091.016.036.029.055.054.137.08.254.166.681.221 1.197.11 1.033.093 2.436-.25 3.74-.343 1.305-.996 2.493-2.145 3.221-1.146.727-2.839 1.037-5.39.432-1.085-.4-1.894-.676-2.461-.838a5.926 5.926 0 0 0-.713-.168c-.194-.03-.336-.077-.596.037a.644.644 0 0 0-.338.418c-.036.19.02.318.065.406.09.177.194.273.322.395.256.243.619.523 1.063.851.887.657 2.081 1.486 3.136 2.303 1.056.818 1.974 1.67 2.243 2.147a.5.5 0 0 0 .021.035c1.673 2.473 1.019 5.616-.893 8.377-1.91 2.761-5.073 5.031-8.095 5.588a.5.5 0 0 0 .037.988c5.247.575 8.356 3.363 8.88 6.047.263 1.342-.079 2.67-1.154 3.83-1.074 1.16-2.912 2.14-5.642 2.621a.5.5 0 0 0 .023.988c5.83.746 9.172 6.945 7.334 11.139a.5.5 0 0 0 .332.684c1.17.304 2.897.415 4.864.56 1.966.146 4.156.317 6.15.692 1.994.374 3.787.962 4.95 1.865 1.161.903 1.744 2.046 1.454 3.863a.5.5 0 0 0 .848.434c2.99-2.987 6.824-3.245 10.379-2.225 3.555 1.02 6.77 3.375 8.222 5.424a.5.5 0 0 0 .833-.023c2.303-3.692 7.107-5.011 11.742-4.45 4.635.562 8.979 3.02 10.326 6.563a.5.5 0 0 0 .955-.069c.335-1.505 1.22-2.618 2.512-3.443 1.29-.825 2.99-1.34 4.861-1.56 3.738-.442 8.15.296 11.295 1.769 1.574 1.214 2.643 1.764 3.57 1.729.473-.018.89-.226 1.19-.522.299-.296.5-.663.677-1.059.71-1.582 1.07-3.669 3.006-4.533a.5.5 0 0 0 .186-.142c1.184-1.477 2.762-1.817 4.57-1.633 1.808.184 3.784.938 5.485 1.644.85.354 1.631.693 2.308.942.677.249 1.227.431 1.764.377.268-.027.571-.154.752-.408.18-.255.211-.559.181-.866-.054-.561-.367-1.302-.838-2.256.163-1.467 1.051-2.39 2.5-3.064 1.475-.685 3.483-1.042 5.542-1.244 2.058-.203 4.166-.257 5.886-.387.86-.065 1.621-.148 2.25-.287.63-.139 1.147-.305 1.496-.723a.5.5 0 0 0-.138-.757c-2.363-1.327-3.697-2.924-4.229-4.518-.532-1.594-.287-3.21.625-4.674 1.825-2.927 6.405-5.178 12.65-4.496a.5.5 0 0 0 .215-.97c-3.776-1.27-5.966-4.314-6.072-7.327-.106-3.012 1.802-6.06 6.625-7.459a.5.5 0 0 0-.047-.97c-3.67-.7-6.01-2.781-6.748-5.14-.738-2.357.055-5.047 2.96-7.175a.5.5 0 0 0-.45-.879c-3.888 1.266-7.863.258-10.586-1.726-2.723-1.985-4.124-4.855-3.13-7.38a.5.5 0 0 0-.579-.67c-1.815.419-6.143 1.147-10.516 1.03-4.363-.116-8.72-1.102-10.787-3.842-.84-1.563-1.705-2.367-2.691-2.537-.997-.171-1.908.301-2.832.858-1.833 1.103-3.824 2.662-6.735 2.183-2.983-2.26-6.115-2.888-9.308-2.635-3.247.258-6.57 1.378-10.033 2.506a.5.5 0 0 0-.073.03c-1.704.87-3.169.88-4.535.457s-2.628-1.307-3.78-2.258c-1.15-.951-2.177-1.96-3.16-2.62-.49-.329-.975-.578-1.497-.652v-.006a1.888 1.888 0 0 0-.397-.013zm.256 1.004c.283.04.657.206 1.082.492.851.57 1.889 1.576 3.08 2.56 1.192.984 2.549 1.955 4.121 2.442 1.558.481 3.334.454 5.229-.496 3.462-1.128 6.72-2.212 9.787-2.455 3.071-.244 5.936.321 8.768 2.523a.5.5 0 0 0 .22.098c3.372.59 5.736-1.252 7.49-2.309.878-.528 1.576-.827 2.147-.728.57.098 1.223.593 2.006 2.068a.5.5 0 0 0 .04.064c2.39 3.192 7.077 4.138 11.577 4.258 4.138.11 7.956-.493 10.057-.933-.659 2.831.89 5.785 3.603 7.763 2.566 1.87 6.13 2.827 9.778 2.19-2.095 2.156-2.795 4.752-2.065 7.082.762 2.432 2.992 4.434 6.186 5.412-4.158 1.678-6.173 4.755-6.063 7.892.101 2.863 1.89 5.596 4.805 7.268-5.424-.024-9.596 1.998-11.445 4.963-1.048 1.68-1.355 3.638-.727 5.518.557 1.668 1.958 3.216 4 4.543-.15.06-.168.112-.395.162-.542.12-1.271.202-2.11.265-1.68.127-3.802.182-5.91.389-2.106.207-4.2.56-5.864 1.334-1.664.773-2.925 2.049-3.1 3.941a.5.5 0 0 0 .053.274c.536 1.054.78 1.772.812 2.11.017.168-.017.208-.004.189.014-.02.05-.02-.037-.012-.172.017-.683-.086-1.316-.318-.633-.233-1.41-.571-2.27-.928-1.718-.714-3.762-1.513-5.767-1.717-1.967-.2-3.953.226-5.366 1.91-2.346 1.113-2.81 3.642-3.412 4.986-.153.341-.312.603-.468.758a.69.69 0 0 1-.524.23c-.47.019-1.439-.358-2.996-1.57a.5.5 0 0 0-.094-.058c-3.351-1.574-7.893-2.329-11.853-1.862-1.98.234-3.818.775-5.283 1.711-1.176.752-1.999 1.848-2.526 3.14-1.858-3.52-6.09-5.793-10.61-6.34-4.697-.57-9.635.742-12.31 4.478-1.729-2.178-4.77-4.378-8.328-5.399-3.516-1.009-7.442-.721-10.611 1.928-.034-1.598-.596-2.943-1.735-3.828-1.381-1.074-3.306-1.67-5.377-2.059-2.07-.388-4.292-.559-6.261-.705-1.756-.13-3.161-.269-4.178-.474 1.441-4.358-1.413-9.807-6.516-11.455 1.9-.574 3.476-1.343 4.444-2.387 1.268-1.37 1.72-3.068 1.4-4.703-.561-2.871-3.473-5.411-7.908-6.424 2.71-1.006 5.244-3.005 6.928-5.438 2.05-2.962 2.852-6.586.91-9.482-.455-.8-1.411-1.598-2.492-2.436-1.037-.803-2.16-1.585-3.014-2.212.476.155.887.281 1.625.554a.5.5 0 0 0 .059.018c2.732.65 4.747.341 6.166-.559 1.419-.9 2.191-2.348 2.576-3.812.384-1.465.397-2.966.277-4.1-.01-.093-.031-.14-.043-.226 2.915 2.314 7.04 3.229 10.588 2.693 2.05-.31 3.899-1.078 5.146-2.361 1.233-1.268 1.824-3.063 1.381-5.2-.015-1.088.274-2.248.442-3.468.825 1.41 1.989 2.624 3.58 3.431 2.153 1.093 4.784 1.651 7.37 1.67 2.587.02 5.132-.5 7.114-1.635 1.88-1.075 3.178-2.792 3.455-5.011.23-.179.416-.244.676-.207zm35.026 12.857c-.572 0-.889.163-.952.488 0 1.39.031 2.738.094 4.041v.62c0 1.999-.254 3.53-.762 4.595-.571 1.087-1.268 2.563-2.093 4.432-.476 1.108-.944 1.852-1.405 2.232-.46.38-1.103.57-1.927.57-1.556 0-2.634-.32-3.237-.96-.603-.641-.906-1.874-.906-3.7 0-.716.048-1.595.143-2.638.221-3.368.476-5.605.761-6.713.064-.175.096-.327.096-.457 0-.587-.538-.934-1.617-1.043h-.43c-.635 0-1.128.21-1.476.635-.35.423-.76 1.3-1.237 2.625-.761 2.215-1.142 4.235-1.142 6.06 0 2.52.722 4.574 2.166 6.16 1.443 1.586 3.545 2.618 6.306 3.096.445.065.825.096 1.143.096.602 0 1.183-.14 1.738-.422.556-.283 1.277-.784 2.166-1.5a12.598 12.598 0 0 0 1.858-1.922c.54-.695.808-1.228.808-1.598 0-.869.286-1.543.858-2.021.57-.413 1.101-1.672 1.593-3.78.492-2.107.739-3.975.739-5.605 0-1-.113-1.65-.334-1.955-.318-.391-.769-.711-1.356-.961-.587-.25-1.119-.375-1.595-.375zm-30.69.098c-1.27 0-2.602.26-3.998.78-.413.175-.896.378-1.451.606-.556.228-.866.351-.93.373-.127.088-.19 1.184-.19 3.291 0 1.304.033 2.662.096 4.075.031.934.047 1.793.047 2.576 0 3.194-.302 5.028-.904 5.506-.35.282-.525.522-.525.716 0 .262.397.544 1.191.848.761.261 1.412.393 1.951.393 1.238 0 1.858-.663 1.858-1.989 0-.435-.065-.923-.192-1.466a8.42 8.42 0 0 1-.285-2.104c0-.663.094-1.091.285-1.287.127-.13.366-.195.715-.195 1.016 0 2.594.528 4.736 1.582 2.143 1.053 3.754 2.134 4.832 3.242a10.43 10.43 0 0 0 2.024 1.596c.777.478 1.404.749 1.88.814.317.044.572.066.762.066.445 0 .666-.164.666-.49 0-.238-.094-.64-.285-1.205a4.97 4.97 0 0 0-.785-1.369c-.333-.413-.612-.631-.834-.652-.571-.152-.857-.521-.857-1.108 0-.5-.476-.912-1.428-1.238-.888-.217-1.332-.542-1.332-.977 0-.565.73-1.26 2.19-2.086.952-.521 1.696-1.135 2.236-1.841.54-.706.81-1.43.81-2.168 0-.76-.286-1.445-.857-2.053-.793-.826-2.524-1.737-5.19-2.736-2.665-1-4.713-1.5-6.14-1.5h-.096zm52.836 1.205c-.444 0-.793.141-1.047.424-.19.239-.285 1.01-.285 2.314 0 .956.063 1.923.19 2.9.221 1.652.331 2.922.332 3.813 0 1.412-.3 2.119-.903 2.119-.762 0-2.46-1.488-5.094-4.465-1.968-2.238-3.349-3.682-4.142-4.334-.793-.652-1.65-.978-2.57-.978a8.619 8.619 0 0 0-.715.03c-.857.067-1.46.193-1.809.378-.35.184-.523.482-.523.894 0 .175.015.38.047.62.348 3.345.62 6.106.81 8.279.254 2.411.548 4.138.88 5.181.334 1.043.802 1.565 1.405 1.565.476 0 1.093-.327 1.856-.979.412-.304.619-.74.619-1.304 0-.522-.174-1.215-.524-2.084-.475-1.195-.712-2.63-.712-4.303 0-.37.015-.717.046-1.043l.286-2.867 3.95 4.367c2.635 2.955 4.191 4.823 4.667 5.605a3.28 3.28 0 0 0 1.261 1.206 3.501 3.501 0 0 0 1.69.423c.888 0 1.65-.294 2.285-.88.508-.479.873-1.362 1.096-2.655.222-1.292.365-3.254.428-5.883 0-2.302-.048-3.937-.143-4.904-.095-.967-.262-1.67-.5-2.103-.238-.435-.66-.77-1.262-1.01-.667-.218-1.206-.326-1.619-.326zm-78.271.588c-.35 0-.603.173-.762.521a43.11 43.11 0 0 0-.713 1.467c-.38.804-.652 1.38-.81 1.726-.286.652-.533 1.721-.739 3.21a32.119 32.119 0 0 0-.308 4.415c0 2.281.111 3.781.334 4.498.222.717.76 1.227 1.617 1.532.667.238 1.16.36 1.476.36.572 0 .967-.474 1.19-1.419.222-.945.429-2.971.619-6.078.381-4.193.779-6.725 1.191-7.594.158-.325.237-.597.237-.814 0-.543-.54-1.02-1.62-1.434-.825-.26-1.396-.39-1.712-.39zm21.818 1.4h4.19c1.555 0 2.784.114 3.689.342a7.713 7.713 0 0 1 2.594 1.222c1.079.783 1.619 1.543 1.619 2.282 0 .738-.493 1.337-1.477 1.793-.984.456-2.269.683-3.855.683a18.37 18.37 0 0 1-3.332-.326c-1.238-.24-2.04-.543-2.405-.912-.365-.37-.611-1.151-.738-2.346l-.285-2.738zm41.094 21.477c-.572 0-.889.162-.952.488 0 1.39.031 2.737.094 4.04v.62c0 1.999-.254 3.532-.762 4.596-.571 1.086-1.268 2.565-2.093 4.433-.476 1.108-.944 1.85-1.405 2.23-.46.38-1.103.571-1.927.571-1.556 0-2.634-.32-3.237-.96-.603-.642-.904-1.875-.904-3.7 0-.717.048-1.596.143-2.639.221-3.367.474-5.605.76-6.713a1.36 1.36 0 0 0 .095-.457c0-.587-.538-.934-1.617-1.043h-.43c-.635 0-1.126.211-1.474.635-.349.424-.762 1.3-1.239 2.625-.76 2.216-1.142 4.235-1.142 6.06 0 2.52.722 4.575 2.166 6.16 1.443 1.587 3.545 2.618 6.306 3.096.445.065.827.096 1.145.096.602 0 1.18-.14 1.736-.422s1.277-.783 2.166-1.5a12.594 12.594 0 0 0 1.858-1.922c.54-.695.808-1.228.808-1.597 0-.87.286-1.544.858-2.022.57-.412 1.101-1.672 1.593-3.779.492-2.108.739-3.976.739-5.605 0-1-.11-1.651-.332-1.956-.318-.39-.77-.71-1.358-.96-.587-.25-1.119-.375-1.595-.375zm-60.866.261c-.539 0-1.047.054-1.523.162-.476.109-.792.228-.951.358-.35.391-.588 1.478-.715 3.26-.031.673-.141 1.38-.332 2.119-.19.738-.382 1.26-.572 1.564-.191.283-.43 1.08-.715 2.395a40.288 40.288 0 0 0-.666 4.12c-.19 1.522-.285 2.641-.285 3.358 0 1 .174 1.707.523 2.12.35.412.984.618 1.904.618.889 0 2.522-.25 4.903-.75 2.158-.434 4.08-.652 5.761-.652.477 0 .842.024 1.096.067.413.065.792.097 1.14.097.572 0 1.025-.092 1.358-.277.333-.185.5-.43.5-.735 0-.543-.475-1.073-1.428-1.595-.984-.543-1.857-.815-2.619-.815-.635 0-1.539.151-2.713.455-2.253.522-3.777.978-4.57 1.37-.475.195-.92.293-1.332.293-.254 0-.445-.054-.572-.163-.064-.043-.096-.205-.096-.488 0-.782.271-2.31.81-4.58a93.768 93.768 0 0 1 2.094-7.348c.54-1.738.809-2.945.809-3.619 0-.499-.142-.845-.428-1.04-.285-.196-.746-.294-1.38-.294zm81.25.846c-.54 0-1.602.695-3.189 2.086-1.587 1.39-2.379 2.325-2.379 2.803 0 .369-.175.554-.523.554-.381 0-.874-.222-1.477-.668a6.728 6.728 0 0 1-1.57-1.646c-.477-.782-1.151-1.455-2.024-2.02-.872-.564-1.642-.847-2.308-.847-.286 0-.524.053-.715.162-.38.26-.57.64-.57 1.14 0 .435.149.864.45 1.288.302.423.723.766 1.262 1.027.413.217.93.597 1.55 1.14a13.827 13.827 0 0 1 1.546 1.565c.666.87.998 1.51.998 1.922 0 .435-.363 1.195-1.094 2.281a18.678 18.678 0 0 1-1.572 1.973c-.635.705-1.173 1.232-1.617 1.58-.857.651-1.285 1.282-1.285 1.89 0 .283.11.51.332.684.222.174.524.262.904.262s.825-.088 1.332-.262a7.422 7.422 0 0 0 1.262-.65c.365-.24.549-.447.549-.621 0-.522.642-1.368 1.928-2.541 1.285-1.174 2.181-1.76 2.689-1.76.095 0 .174.044.238.13.508.696 1.634 1.837 3.38 3.422.856.826 1.53 1.406 2.023 1.743.492.336.93.506 1.31.506.254 0 .506-.076.76-.229.54-.304.81-.684.81-1.14 0-.848-.715-1.717-2.142-2.608-1.016-.608-2.174-1.596-3.475-2.965-1.079-.999-1.619-1.706-1.619-2.119 0-.348.319-.934.953-1.76.35-.5.85-1.054 1.5-1.662.65-.608 1.244-1.097 1.783-1.467.984-.586 1.477-1.27 1.477-2.052 0-.327-.127-.598-.38-.815-.255-.217-.62-.326-1.097-.326zm-42.216.195c-.444 0-.793.142-1.047.424-.191.24-.285 1.011-.285 2.315 0 .956.062 1.923.19 2.9.22 1.652.331 2.922.331 3.812 0 1.413-.3 2.12-.902 2.12-.763 0-2.46-1.489-5.094-4.465-1.968-2.238-3.35-3.683-4.143-4.334-.793-.652-1.649-.979-2.57-.979-.222 0-.461.011-.715.033-.857.066-1.46.19-1.808.375-.35.185-.524.483-.524.895 0 .174.015.382.047.621.349 3.346.62 6.105.81 8.277.254 2.412.548 4.14.882 5.182.333 1.043.8 1.564 1.404 1.564.475 0 1.093-.326 1.855-.978.413-.304.62-.74.62-1.305 0-.52-.174-1.215-.524-2.084-.476-1.194-.713-2.63-.713-4.302 0-.37.015-.717.047-1.043l.285-2.868 3.951 4.368c2.635 2.955 4.19 4.823 4.666 5.605.318.521.739.923 1.262 1.205a3.502 3.502 0 0 0 1.69.424c.888 0 1.65-.294 2.285-.88.507-.479.873-1.363 1.095-2.655.223-1.293.365-3.254.428-5.883 0-2.303-.048-3.937-.142-4.904-.095-.967-.262-1.668-.5-2.102-.239-.434-.66-.772-1.262-1.012-.668-.217-1.207-.326-1.62-.326zm-22.02.588c-.35 0-.603.174-.762.522-.095.173-.332.663-.713 1.466-.38.804-.651 1.38-.81 1.727-.286.652-.532 1.72-.738 3.209a32.147 32.147 0 0 0-.309 4.418c0 2.28.112 3.779.334 4.496.222.717.761 1.227 1.617 1.531.668.239 1.16.36 1.477.36.571 0 .967-.473 1.19-1.418.222-.945.429-2.972.618-6.078.382-4.193.78-6.725 1.192-7.594.158-.326.236-.597.236-.815 0-.543-.54-1.02-1.619-1.433-.825-.26-1.396-.39-1.713-.39z" id="path5296" fill="currentColor" fill-opacity="1" stroke="none" color="#4d4d4d"/></svg>