<svg xmlns="http://www.w3.org/2000/svg" xmlns:xlink="http://www.w3.org/1999/xlink" viewBox="0 0 256 256" id="svg2" version="1.1"><defs id="defs4"><linearGradient gradientUnits="userSpaceOnUse" y2="517.798" x2="400.571" y1="545.798" x1="400.571" id="linearGradient4149-6" xlink:href="#linearGradient4143"/><linearGradient id="linearGradient4143"><stop id="stop4145" offset="0" stop-color="#197cf1" stop-opacity="1"/><stop id="stop4147" offset="1" stop-color="#20bcfa" stop-opacity="1"/></linearGradient><linearGradient gradientUnits="userSpaceOnUse" y2="25" x2="25" y1="9" x1="9" id="linearGradient4258" xlink:href="#linearGradient4227"/><linearGradient id="linearGradient4227"><stop offset="0" id="stop4229" stop-color="#292c2f" stop-opacity="1"/><stop offset="1" id="stop4231" stop-color="#000" stop-opacity="0"/></linearGradient><linearGradient gradientUnits="userSpaceOnUse" y2="9" x2="16" y1="23" x1="16" id="linearGradient4245" xlink:href="#linearGradient4290"/><linearGradient id="linearGradient4290"><stop offset="0" id="stop4292" stop-color="#7cbaf8" stop-opacity="1"/><stop offset="1" id="stop4294" stop-color="#f4fcff" stop-opacity="1"/></linearGradient><linearGradient gradientUnits="userSpaceOnUse" y2="517.798" x2="400.571" y1="545.798" x1="400.571" id="linearGradient4149-5" xlink:href="#linearGradient4435"/><linearGradient id="linearGradient4435"><stop id="stop4437" offset="0" stop-color="#c61423" stop-opacity="1"/><stop id="stop4439" offset="1" stop-color="#dc2b41" stop-opacity="1"/></linearGradient><linearGradient gradientUnits="userSpaceOnUse" y2="24" x2="25" y1="8" x1="9" id="linearGradient4231" xlink:href="#linearGradient4227"/><linearGradient gradientUnits="userSpaceOnUse" y2="9" x2="16" y1="23" x1="16" id="linearGradient4189" xlink:href="#linearGradient4390"/><linearGradient id="linearGradient4390"><stop offset="0" id="stop4392" stop-color="#f7abb2" stop-opacity="1"/><stop offset="1" id="stop4394" stop-color="#f9dce0" stop-opacity="1"/></linearGradient><linearGradient gradientUnits="userSpaceOnUse" y2="517.798" x2="400.571" y1="545.798" x1="400.571" id="linearGradient4149" xlink:href="#linearGradient4300-1"/><linearGradient id="linearGradient4300-1"><stop id="stop4302-0" offset="0" stop-color="#8e44ad" stop-opacity="1"/><stop id="stop4304-6" offset="1" stop-color="#9b59b6" stop-opacity="1"/></linearGradient><linearGradient gradientUnits="userSpaceOnUse" y2="24" x2="24" y1="9" x1="9" id="linearGradient4291" xlink:href="#linearGradient4227"/><linearGradient gradientUnits="userSpaceOnUse" y2="9" x2="16" y1="23" x1="16" id="linearGradient4280" xlink:href="#linearGradient4298"/><linearGradient id="linearGradient4298"><stop offset="0" id="stop4300" stop-color="#b985ce" stop-opacity="1"/><stop offset="1" id="stop4302" stop-color="#e2cdeb" stop-opacity="1"/></linearGradient><linearGradient xlink:href="#linearGradient4159" id="linearGradient4165" x1="409.571" y1="543.798" x2="409.571" y2="503.798" gradientUnits="userSpaceOnUse"/><linearGradient id="linearGradient4159"><stop offset="0" id="stop4161" stop-color="#1d1e1e" stop-opacity="1"/><stop offset="1" id="stop4163" stop-color="#44484c" stop-opacity="1"/></linearGradient><linearGradient xlink:href="#linearGradient4227" id="linearGradient4342" x1="406.571" y1="517.798" x2="425.571" y2="536.798" gradientUnits="userSpaceOnUse"/><linearGradient xlink:href="#linearGradient4326" id="linearGradient4332" x1="417.571" y1="530.798" x2="417.571" y2="516.798" gradientUnits="userSpaceOnUse"/><linearGradient id="linearGradient4326"><stop offset="0" id="stop4328" stop-color="#9ed3fb" stop-opacity="1"/><stop offset="1" id="stop4330-3" stop-color="#effaff" stop-opacity="1"/></linearGradient><linearGradient xlink:href="#linearGradient4300-7" id="linearGradient4943" x1="392.571" y1="516.798" x2="400.571" y2="508.798" gradientUnits="userSpaceOnUse" gradientTransform="translate(0 1)"/><linearGradient id="linearGradient4300-7"><stop offset="0" id="stop4302-4-0" stop-color="#f39c12" stop-opacity="1"/><stop offset="1" id="stop4304-1" stop-color="#f5ab35" stop-opacity="1"/></linearGradient><linearGradient xlink:href="#linearGradient4152" id="linearGradient4466-8" x1="428.571" y1="519.798" x2="428.571" y2="504.798" gradientUnits="userSpaceOnUse" gradientTransform="translate(0 -1)"/><linearGradient id="linearGradient4152"><stop offset="0" id="stop4154" stop-color="#bd8d48" stop-opacity="1"/><stop offset="1" id="stop4156" stop-color="#e8b971" stop-opacity="1"/></linearGradient><linearGradient xlink:href="#linearGradient4273" id="linearGradient4768" x1="428.571" y1="506.798" x2="406.571" y2="506.798" gradientUnits="userSpaceOnUse"/><linearGradient id="linearGradient4273"><stop offset="0" id="stop4275" stop-color="#e3dfd6" stop-opacity="1"/><stop offset="1" id="stop4277" stop-color="#f4f1e8" stop-opacity="1"/></linearGradient><linearGradient xlink:href="#linearGradient4152" id="linearGradient4466" x1="428.571" y1="519.798" x2="428.571" y2="504.798" gradientUnits="userSpaceOnUse" gradientTransform="translate(0 1)"/><linearGradient xlink:href="#linearGradient5026" id="linearGradient5038" x1="427.714" y1="536.291" x2="437.714" y2="536.291" gradientUnits="userSpaceOnUse"/><linearGradient id="linearGradient5026"><stop offset="0" id="stop5028" stop-color="#ebc69a" stop-opacity="1"/><stop offset="1" id="stop5030" stop-color="#f4e0c8" stop-opacity="1"/></linearGradient><linearGradient xlink:href="#linearGradient4213" id="linearGradient5050" x1="432.714" y1="531.791" x2="432.714" y2="544.791" gradientUnits="userSpaceOnUse" gradientTransform="rotate(-45 -392.172 755.393)"/><linearGradient id="linearGradient4213"><stop offset="0" id="stop4215" stop-color="#000" stop-opacity="1"/><stop offset="1" id="stop4217" stop-color="#000" stop-opacity="0"/></linearGradient><linearGradient xlink:href="#linearGradient5026" id="linearGradient5040" gradientUnits="userSpaceOnUse" x1="428.756" y1="541.508" x2="430.466" y2="528.513"/><linearGradient xlink:href="#linearGradient4903" id="linearGradient4486" x1="25" y1="44" x2="25" y2="20" gradientUnits="userSpaceOnUse" gradientTransform="translate(384.571 499.798)"/><linearGradient id="linearGradient4903"><stop offset="0" id="stop4905" stop-color="#eef1f2" stop-opacity="1"/><stop offset="1" id="stop4907" stop-color="#f9fafb" stop-opacity="1"/></linearGradient><linearGradient xlink:href="#linearGradient4213" id="linearGradient4356" x1="419.571" y1="529.798" x2="426.571" y2="536.798" gradientUnits="userSpaceOnUse"/><linearGradient xlink:href="#linearGradient4458" id="linearGradient4464" x1="-44.394" y1="-16.971" x2="-14.394" y2="-16.971" gradientUnits="userSpaceOnUse" gradientTransform="translate(58.788 33.941)"/><linearGradient id="linearGradient4458"><stop offset="0" id="stop4460" stop-color="#95a5a6" stop-opacity="1"/><stop offset="1" id="stop4462" stop-color="#eff0f1" stop-opacity="1"/></linearGradient><linearGradient xlink:href="#linearGradient4458" id="linearGradient4472-2" x1="6" y1="3" x2="40" y2="37" gradientUnits="userSpaceOnUse" gradientTransform="rotate(180 24 24)"/><linearGradient xlink:href="#linearGradient4227" id="linearGradient4604" x1="24.817" y1="32.817" x2="32.067" y2="40.067" gradientUnits="userSpaceOnUse"/><linearGradient gradientUnits="userSpaceOnUse" y2="503.798" x2="409.571" y1="543.798" x1="409.571" id="linearGradient4174-1" xlink:href="#linearGradient4143" gradientTransform="matrix(.65 0 0 .65 -241.571 -316.469)"/><linearGradient xlink:href="#linearGradient4290" id="linearGradient4161-1" x1="16" y1="30" x2="16" y2="2" gradientUnits="userSpaceOnUse" gradientTransform="matrix(.97511 0 0 .97511 8.373 8.393)"/><linearGradient xlink:href="#linearGradient4143" id="linearGradient4205" x1="24" y1="44" x2="24" y2="11" gradientUnits="userSpaceOnUse"/><linearGradient xlink:href="#linearGradient4143" id="linearGradient4158-6" x1="409.571" y1="543.798" x2="409.571" y2="513.798" gradientUnits="userSpaceOnUse" gradientTransform="matrix(1.125 0 0 1 -51.072 0)"/><linearGradient xlink:href="#linearGradient4227" id="linearGradient4232" x1="400.571" y1="522.798" x2="416.572" y2="538.798" gradientUnits="userSpaceOnUse" gradientTransform="translate(-384.571 -499.798)"/><linearGradient xlink:href="#linearGradient4143" id="linearGradient4174" gradientUnits="userSpaceOnUse" x1="24" y1="14" x2="24" y2="10"/><linearGradient xlink:href="#linearGradient4159" id="linearGradient4302" x1="25" y1="10" x2="25" y2="14" gradientUnits="userSpaceOnUse"/><linearGradient xlink:href="#linearGradient4143" id="linearGradient4187" x1="408.571" y1="516.798" x2="408.571" y2="503.798" gradientUnits="userSpaceOnUse"/><linearGradient xlink:href="#linearGradient4303-3" id="linearGradient4290-1" x1="400.571" y1="517.798" x2="400.571" y2="514.798" gradientUnits="userSpaceOnUse"/><linearGradient id="linearGradient4303-3"><stop offset="0" id="stop4305-1" stop-color="#c6cdd1" stop-opacity="1"/><stop offset="1" id="stop4307-9" stop-color="#e0e5e7" stop-opacity="1"/></linearGradient><linearGradient xlink:href="#linearGradient4303-3" id="linearGradient4282" x1="32" y1="18" x2="32" y2="15" gradientUnits="userSpaceOnUse"/><linearGradient xlink:href="#linearGradient4290" id="linearGradient4222" x1="24" y1="39" x2="24" y2="23" gradientUnits="userSpaceOnUse"/><linearGradient xlink:href="#linearGradient4159" id="linearGradient3951" gradientUnits="userSpaceOnUse" gradientTransform="matrix(1.125 0 0 1 -435.643 504.564)" x1="409.571" y1="543.798" x2="409.571" y2="503.798"/><linearGradient xlink:href="#linearGradient4435" id="linearGradient3948" gradientUnits="userSpaceOnUse" gradientTransform="matrix(-2.83521 0 0 2.83875 47.655 -1933.284)" x1="7.285" y1="1050.339" x2="7.285" y2="1038.362"/><linearGradient xlink:href="#linearGradient4143" id="linearGradient3944" gradientUnits="userSpaceOnUse" gradientTransform="translate(-384.571 504.564)" x1="396.571" y1="520.798" x2="396.571" y2="503.798"/><linearGradient xlink:href="#linearGradient4227" id="linearGradient3940" gradientUnits="userSpaceOnUse" gradientTransform="translate(0 1004.362)" x1="8" y1="4" x2="22" y2="18"/><linearGradient xlink:href="#linearGradient5022" id="linearGradient3935" gradientUnits="userSpaceOnUse" gradientTransform="translate(-384.571 504.564)" x1="396.571" y1="527.798" x2="396.571" y2="504.798"/><linearGradient id="linearGradient5022"><stop offset="0" id="stop5024" stop-color="#fff" stop-opacity="1"/><stop offset="1" id="stop5026" stop-color="#fff" stop-opacity="0"/></linearGradient><linearGradient xlink:href="#linearGradient4152" id="linearGradient4158" x1="409.571" y1="543.798" x2="409.571" y2="503.798" gradientUnits="userSpaceOnUse" gradientTransform="matrix(1.125 0 0 1 -51.072 0)"/><linearGradient xlink:href="#linearGradient4303" id="linearGradient4309-7" x1="409.571" y1="542.798" x2="409.571" y2="504.798" gradientUnits="userSpaceOnUse"/><linearGradient id="linearGradient4303"><stop offset="0" id="stop4305" stop-color="#977a5c" stop-opacity="1"/><stop offset="1" id="stop4307" stop-color="#9d8062" stop-opacity="1"/></linearGradient><linearGradient xlink:href="#linearGradient4273" id="linearGradient4279" x1="408.571" y1="541.798" x2="408.571" y2="505.798" gradientUnits="userSpaceOnUse"/><linearGradient xlink:href="#linearGradient4410" id="linearGradient4299" x1="414.571" y1="531.798" x2="426.571" y2="543.798" gradientUnits="userSpaceOnUse"/><linearGradient id="linearGradient4410"><stop offset="0" id="stop4412" stop-color="#383e51" stop-opacity="1"/><stop offset="1" id="stop4414" stop-color="#655c6f" stop-opacity="0"/></linearGradient><linearGradient xlink:href="#linearGradient6165" id="linearGradient6171" x1="413.571" y1="528.798" x2="418.571" y2="533.798" gradientUnits="userSpaceOnUse"/><linearGradient id="linearGradient6165"><stop offset="0" id="stop6167" stop-color="#bdb49e" stop-opacity=".259"/><stop offset="1" id="stop6169" stop-color="#bdb49e" stop-opacity="0"/></linearGradient><linearGradient gradientUnits="userSpaceOnUse" y2="4" x2="26" y1="44" x1="26" id="linearGradient4416-6" xlink:href="#linearGradient4143" gradientTransform="matrix(-1 0 0 1 432.571 499.798)"/><linearGradient xlink:href="#linearGradient4227" id="linearGradient4475" x1="388.571" y1="503.798" x2="418.571" y2="533.798" gradientUnits="userSpaceOnUse" gradientTransform="translate(-359.572 -505.798)"/><linearGradient xlink:href="#linearGradient4435" id="linearGradient4374-0" x1="401.571" y1="515.798" x2="401.571" y2="509.798" gradientUnits="userSpaceOnUse" gradientTransform="translate(25 -6)"/><linearGradient xlink:href="#linearGradient4227" id="linearGradient4525" x1="422.85" y1="504.869" x2="428.779" y2="510.798" gradientUnits="userSpaceOnUse" gradientTransform="translate(-384.571 -499.798)"/><linearGradient xlink:href="#linearGradient4511" id="linearGradient4509" x1="41" y1="9" x2="41" y2="5" gradientUnits="userSpaceOnUse" gradientTransform="translate(384.571 499.798)"/><linearGradient id="linearGradient4511"><stop offset="0" id="stop4513" stop-color="#f7aeb4" stop-opacity="1"/><stop offset="1" id="stop4515" stop-color="#f8d4d9" stop-opacity="1"/></linearGradient><style id="current-color-scheme" type="text/css"></style></defs><path d="M16 10h224c3.324 0 6 2.676 6 6v224c0 3.324-2.676 6-6 6H16c-3.324 0-6-2.676-6-6V16c0-3.324 2.676-6 6-6z" id="rect4240" fill="currentColor" fill-opacity=".5" stroke="none" color="#31363b"/><path d="M16 12h224c2.216 0 4 1.784 4 4v224c0 2.216-1.784 4-4 4H16c-2.216 0-4-1.784-4-4V16c0-2.216 1.784-4 4-4z" id="rect4238" fill="#31363b" fill-opacity="1" stroke="none" color="#eff0f1"/><rect ry="0" rx="0" y="20" x="20" height="36" width="216" id="rect5114-3-4-2-9" opacity=".5" fill="#f2f2f2" fill-opacity="1" stroke="none" stroke-width=".928" stroke-miterlimit="4" stroke-dasharray="none" stroke-opacity=".2"/><rect ry="0" rx="0" y="21" x="21" height="34" width="214" id="rect5114-3-4-5" fill="#31363b" fill-opacity="1" stroke="none" stroke-width=".928" stroke-miterlimit="4" stroke-dasharray="none" stroke-opacity=".2"/><g id="layer1-8" transform="matrix(1.14286 0 0 1.14286 -417.796 -391.769)" fill-opacity="1" stroke="none"><rect id="rect4130" width="28" height="28" x="386.571" y="517.798" ry="14" opacity="1" fill="url(#linearGradient4149)"/><path d="M20.883 10.982c-.198.186-.514.492-.73.696A6 6 0 0 1 22 16a6 6 0 0 1-6 6 6 6 0 0 1-4.436-1.969c-.226.233-.508.51-.71.723l8.761 8.762a13.948 13.948 0 0 0 9.9-9.9z" transform="translate(384.571 515.798)" id="rect4253" opacity=".2" fill="url(#linearGradient4291)"/><path d="M16 9a7 7 0 0 0-7 7 7 7 0 0 0 7 7 7 7 0 0 0 7-7 7 7 0 0 0-7-7zm-.014 1A6 6 0 0 1 16 10a6 6 0 0 1 1.191.12 6 6 0 0 1 2.196.929 6 6 0 0 1 .002 0 6 6 0 0 1 .914.771 6 6 0 0 1 .396.45 6 6 0 0 1 0 .002 6 6 0 0 1 .35.486 6 6 0 0 1 0 .002 6 6 0 0 1 .543 1.066 6 6 0 0 1 0 .002A6 6 0 0 1 21.914 15 6 6 0 0 1 22 16a6 6 0 0 1-.09 1 6 6 0 0 1 0 .004 6 6 0 0 1-.123.553 6 6 0 0 1-.006.029 6 6 0 0 1-.004.014 6 6 0 0 1-.164.5 6 6 0 0 1-.031.086 6 6 0 0 1-.225.501 6 6 0 0 1-.007.016 6 6 0 0 1-.004.006 6 6 0 0 1-.26.461 6 6 0 0 1-.05.084 6 6 0 0 1-.284.396 6 6 0 0 1-.068.092 6 6 0 0 1-.32.367 6 6 0 0 1-.079.082 6 6 0 0 1-.344.323 6 6 0 0 1-.101.09 6 6 0 0 1-.354.27 6 6 0 0 1-.133.095 6 6 0 0 1-.363.224 6 6 0 0 1-.152.088 6 6 0 0 1-.379.184 6 6 0 0 1-.166.074 6 6 0 0 1-.352.131 6 6 0 0 1-.232.076 6 6 0 0 1-.324.084 6 6 0 0 1-.272.06 6 6 0 0 1-.283.046 6 6 0 0 1-.322.039 6 6 0 0 1-.461.023A6 6 0 0 1 16 22a6 6 0 0 1-1.191-.12 6 6 0 0 1-1.145-.355 6 6 0 0 1-1.05-.574 6 6 0 0 1-.003 0 6 6 0 0 1-.914-.771 6 6 0 0 1-.396-.45 6 6 0 0 1 0-.002 6 6 0 0 1-.35-.486 6 6 0 0 1 0-.002 6 6 0 0 1-.543-1.066 6 6 0 0 1 0-.002A6 6 0 0 1 10.086 17 6 6 0 0 1 10 16a6 6 0 0 1 .09-1 6 6 0 0 1 0-.004 6 6 0 0 1 .123-.553 6 6 0 0 1 .01-.043 6 6 0 0 1 .164-.5 6 6 0 0 1 .031-.086 6 6 0 0 1 .225-.501 6 6 0 0 1 .011-.022 6 6 0 0 1 .26-.46 6 6 0 0 1 .05-.085 6 6 0 0 1 .284-.396 6 6 0 0 1 .068-.092 6 6 0 0 1 .32-.367 6 6 0 0 1 .079-.082 6 6 0 0 1 .344-.323 6 6 0 0 1 .101-.09 6 6 0 0 1 .354-.269 6 6 0 0 1 .133-.096 6 6 0 0 1 .363-.224 6 6 0 0 1 .152-.088 6 6 0 0 1 .38-.184 6 6 0 0 1 .165-.074 6 6 0 0 1 .352-.13 6 6 0 0 1 .232-.077 6 6 0 0 1 .324-.084 6 6 0 0 1 .272-.06 6 6 0 0 1 .283-.046 6 6 0 0 1 .322-.039 6 6 0 0 1 .461-.023 6 6 0 0 1 .033-.002zm1.307 2L14 15.293l-.707.707.707.707L17.293 20l.707-.707L14.707 16 18 12.707 17.293 12z" transform="translate(384.571 515.798)" id="path4269" opacity="1" fill="url(#linearGradient4280)"/></g><g id="layer1-85" transform="matrix(1.14286 0 0 1.14286 -300.996 -391.769)" fill-opacity="1" stroke="none"><rect id="rect4130-5" width="28" height="28" x="386.571" y="517.798" ry="14" opacity="1" fill="url(#linearGradient4149-5)"/><path d="M17 9v7h-2l4.713 4.713A6 6 0 0 1 16 22a6 6 0 0 1-4.24-1.76l-.71.71 8.565 8.566a13.948 13.948 0 0 0 9.9-9.9L20.95 11.05l-.709.709a6 6 0 0 1 1.155 1.635L17 9z" transform="translate(384.571 515.798)" id="rect4215" opacity=".2" fill="url(#linearGradient4231)"/><path d="M15 9v7h2V9h-2zm-1 .295A7 7 0 0 0 9 16a7 7 0 0 0 7 7 7 7 0 0 0 7-7 7 7 0 0 0-5-6.701v1.05A6 6 0 0 1 22 16a6 6 0 0 1-6 6 6 6 0 0 1-6-6 6 6 0 0 1 4-5.65V9.295z" transform="translate(384.571 515.798)" id="path4169" opacity="1" fill="url(#linearGradient4189)"/></g><g id="layer1-3" transform="matrix(1.14286 0 0 1.14286 -358.596 -391.769)" fill-opacity="1" stroke="none"><rect id="rect4130-7" width="28" height="28" x="386.571" y="517.798" ry="14" opacity="1" fill="url(#linearGradient4149-6)"/><path d="M16 10a6 6 0 0 0-2.463.537l7.928 7.928A6 6 0 0 0 22 16a6 6 0 0 0-6-6zm4.95 1.05l-.003.003a7 7 0 0 1 .074.07l-.072-.072zm.071.073a7 7 0 0 1 1.758 3.162l-.002-.002c.068.263.118.53.155.799v.002a7 7 0 0 1 .013.12c.032.264.054.53.055.796 0 .26-.018.517-.047.773v.01a7 7 0 0 1-.133.77l-.002.008a7 7 0 0 1-.611 1.646l5.07 5.07a13.91 13.91 0 0 0 2.239-4.662l-8.495-8.492zM9.738 12.891a7 7 0 0 0-.254.572c.076-.194.161-.385.254-.572zm.797.644A6 6 0 0 0 10 16a6 6 0 0 0 6 6 6.006 6.006 0 0 0 2.463-.537l-7.928-7.928zm-1.127.137a7 7 0 0 0-.168.539c.049-.182.105-.362.168-.54zm-.226.767a7 7 0 0 0-.104.58c.028-.194.06-.388.104-.58zm-.135.778A7 7 0 0 0 9 16c0-.263.017-.524.047-.783zM9 16a7 7 0 0 0 .055.797A6.98 6.98 0 0 1 9 16zm.068.916a7 7 0 0 0 .153.799l.002.002a6.989 6.989 0 0 1-.155-.8zm1.985 4.031l-.002.002 8.564 8.567a13.91 13.91 0 0 0 4.662-2.239L19.21 22.21A7 7 0 0 1 16 23a7 7 0 0 1-4.947-2.053z" transform="translate(384.571 515.798)" id="rect4247" opacity=".2" fill="url(#linearGradient4258)"/><path d="M16 9a7 7 0 0 0-3.209.791l.584.584.164.164 2.664 2.664.707-.707-2.318-2.318A6 6 0 0 1 16 10a6 6 0 0 1 6 6 6 6 0 0 1-.541 2.459l.756.756A7 7 0 0 0 23 16a7 7 0 0 0-7-7zm-6.215 3.785A7 7 0 0 0 9 16a7 7 0 0 0 7 7 7.003 7.003 0 0 0 3.209-.791l-.584-.584-.164-.164-2.664-2.664-.707.707 2.318 2.318A6 6 0 0 1 16 22a6 6 0 0 1-6-6 5.994 5.994 0 0 1 .541-2.459l-.756-.756z" transform="translate(384.571 515.798)" id="path4169-6" opacity="1" fill="url(#linearGradient4245)"/></g><g transform="matrix(.8 0 0 .8 -287.857 -280.038)" id="layer1-4" fill-opacity="1" stroke="none" stroke-opacity="1"><path id="path4445" d="M425.571 506.798v27h-18l-10 10v-10h-9v-27z" fill="url(#linearGradient4416-6)" fill-rule="evenodd" stroke-width="1" stroke-linecap="butt" stroke-linejoin="miter"/><path id="path4378" transform="translate(384.571 499.798)" d="M41 7l-2 2 2 2V7z" opacity=".2" fill="url(#linearGradient4475)" fill-rule="evenodd" stroke-width="1" stroke-linecap="butt" stroke-linejoin="miter"/><circle cy="506.798" cx="425.571" id="path4291" opacity="1" fill="url(#linearGradient4374-0)" r="3"/><path id="path4517" transform="translate(384.571 499.798)" d="M43 7l-1 .33L40 8l-.35.465 1.53 1.53a3 3 0 0 0 2.69-2.126L43 7z" opacity=".2" fill="url(#linearGradient4525)" fill-rule="evenodd" stroke-width="1" stroke-linecap="butt" stroke-linejoin="miter"/><path id="path4482" d="M425.571 504.798c-.277 0-.5.223-.5.5v.293l-.207-.207a.499.499 0 1 0-.707.707l.207.207h-.293a.499.499 0 1 0 0 1h.293l-.207.207a.499.499 0 1 0 .707.707l.207-.207v.293a.499.499 0 1 0 1 0v-.293l.207.207a.499.499 0 1 0 .707-.707l-.207-.207h.293a.499.499 0 1 0 0-1h-.293l.207-.207a.499.499 0 1 0-.707-.707l-.207.207v-.293c0-.277-.223-.5-.5-.5z" opacity="1" fill="url(#linearGradient4509)"/></g><g transform="matrix(.8 0 0 .8 -170.057 -280.038)" id="layer1-7-8" stroke="none"><rect ry="0" y="503.798" x="390.571" height="40" width="36" id="rect4139" opacity="1" fill="url(#linearGradient4158)" fill-opacity="1"/><path id="rect4250" opacity=".5" fill="url(#linearGradient4309-7)" fill-opacity="1" d="M391.571 504.798h34v38h-34z"/><path id="rect4171" opacity="1" fill="#aa7f41" fill-opacity="1" d="M390.571 542.798h36v1h-36z"/><path id="rect4242" opacity="1" fill="url(#linearGradient4279)" fill-opacity="1" d="M392.571 505.798h32v36h-32z"/><path id="rect4236" opacity="1" fill="#bdb49e" fill-opacity="1" d="M412.571 531.798h3v1h-3z"/><path id="rect4244" opacity="1" fill="#2d2110" fill-opacity=".314" d="M392.571 539.798h32v2h-32z"/><path id="path4252" d="M424.571 529.798l-10 10v-10z" fill="#ebebeb" fill-opacity="1" fill-rule="evenodd" stroke-width="1" stroke-linecap="butt" stroke-linejoin="miter" stroke-opacity="1"/><path id="path4281" d="M414.571 539.798l4 4h8v-12l-2-2z" opacity=".2" fill="url(#linearGradient4299)" fill-opacity="1" fill-rule="evenodd" stroke-width="1" stroke-linecap="butt" stroke-linejoin="miter" stroke-opacity="1"/><path id="rect4301" opacity="1" fill="#2d2110" fill-opacity=".314" d="M392.571 540.798h32v1h-32z"/><path id="path6163" d="M415.571 530.798v8l8-8z" fill="url(#linearGradient6171)" fill-opacity="1" fill-rule="evenodd" stroke-width="1" stroke-linecap="butt" stroke-linejoin="miter" stroke-opacity="1"/><path id="rect4152" opacity="1" fill="#bdb49e" fill-opacity="1" d="M394.571 513.798h2v1h-2z"/><path id="rect4154" opacity="1" fill="#bdb49e" fill-opacity="1" d="M397.571 513.798h3v1h-3z"/><path id="rect4156" opacity="1" fill="#bdb49e" fill-opacity="1" d="M401.571 513.798h5v1h-5z"/><path id="rect4158" opacity="1" fill="#bdb49e" fill-opacity="1" d="M408.571 513.798h6v1h-6z"/><path id="rect4160" opacity="1" fill="#bdb49e" fill-opacity="1" d="M415.571 513.798h3v1h-3z"/><path id="rect4162" opacity="1" fill="#bdb49e" fill-opacity="1" d="M419.571 513.798h2v1h-2z"/><path id="rect4164" opacity="1" fill="#bdb49e" fill-opacity="1" d="M394.571 515.798h4v1h-4z"/><path id="rect4166" opacity="1" fill="#bdb49e" fill-opacity="1" d="M399.571 515.798h2v1h-2z"/><path id="rect4168" opacity="1" fill="#bdb49e" fill-opacity="1" d="M402.571 515.798h9v1h-9z"/><path id="rect4170" opacity="1" fill="#bdb49e" fill-opacity="1" d="M412.571 515.798h6v1h-6z"/><path id="rect4172" opacity="1" fill="#bdb49e" fill-opacity="1" d="M419.571 515.798h3v1h-3z"/><path id="rect4174" opacity="1" fill="#bdb49e" fill-opacity="1" d="M394.571 519.798h2v1h-2z"/><path id="rect4176" opacity="1" fill="#bdb49e" fill-opacity="1" d="M397.571 519.798h3v1h-3z"/><path id="rect4178" opacity="1" fill="#bdb49e" fill-opacity="1" d="M401.571 519.798h6v1h-6z"/><path id="rect4180" opacity="1" fill="#bdb49e" fill-opacity="1" d="M409.571 519.798h4v1h-4z"/><path id="rect4182" opacity="1" fill="#bdb49e" fill-opacity="1" d="M414.571 519.798h2v1h-2z"/><path id="rect4184" opacity="1" fill="#bdb49e" fill-opacity="1" d="M417.571 519.798h5v1h-5z"/><path id="rect4186" opacity="1" fill="#bdb49e" fill-opacity="1" d="M394.571 521.798h2v1h-2z"/><path id="rect4188" opacity="1" fill="#bdb49e" fill-opacity="1" d="M397.571 521.798h5v1h-5z"/><path id="rect4190" opacity="1" fill="#bdb49e" fill-opacity="1" d="M403.571 521.798h3v1h-3z"/><path id="rect4192" opacity="1" fill="#bdb49e" fill-opacity="1" d="M407.571 521.798h1v1h-1z"/><path id="rect4194" opacity="1" fill="#bdb49e" fill-opacity="1" d="M409.571 521.798h5v1h-5z"/><path id="rect4196" opacity="1" fill="#bdb49e" fill-opacity="1" d="M415.571 521.798h3v1h-3z"/><path id="rect4198" opacity="1" fill="#bdb49e" fill-opacity="1" d="M419.571 521.798h3v1h-3z"/><path id="rect4200" opacity="1" fill="#bdb49e" fill-opacity="1" d="M394.571 525.798h6v1h-6z"/><path id="rect4202" opacity="1" fill="#bdb49e" fill-opacity="1" d="M401.571 525.798h3v1h-3z"/><path id="rect4204" opacity="1" fill="#bdb49e" fill-opacity="1" d="M405.571 525.798h3v1h-3z"/><path id="rect4206" opacity="1" fill="#bdb49e" fill-opacity="1" d="M409.571 525.798h3v1h-3z"/><path id="rect4208" opacity="1" fill="#bdb49e" fill-opacity="1" d="M413.571 525.798h5v1h-5z"/><path id="rect4210" opacity="1" fill="#bdb49e" fill-opacity="1" d="M419.571 525.798h1v1h-1z"/><path id="rect4214" opacity="1" fill="#bdb49e" fill-opacity="1" d="M394.571 527.798h5v1h-5z"/><path id="rect4216" opacity="1" fill="#bdb49e" fill-opacity="1" d="M400.571 527.798h5v1h-5z"/><path id="rect4218" opacity="1" fill="#bdb49e" fill-opacity="1" d="M406.571 527.798h5v1h-5z"/><path id="rect4220" opacity="1" fill="#bdb49e" fill-opacity="1" d="M412.571 527.798h3v1h-3z"/><path id="rect4222" opacity="1" fill="#bdb49e" fill-opacity="1" d="M416.571 527.798h3v1h-3z"/><path id="rect4224" opacity="1" fill="#bdb49e" fill-opacity="1" d="M420.571 527.798h1v1h-1z"/><path id="rect4226" opacity="1" fill="#bdb49e" fill-opacity="1" d="M394.571 529.798h2v1h-2z"/><path id="rect4228" opacity="1" fill="#bdb49e" fill-opacity="1" d="M394.571 531.798h4v1h-4z"/><path id="rect4230" opacity="1" fill="#bdb49e" fill-opacity="1" d="M399.571 531.798h4v1h-4z"/><path id="rect4232" opacity="1" fill="#bdb49e" fill-opacity="1" d="M404.571 531.798h4v1h-4z"/><path id="rect4234" opacity="1" fill="#bdb49e" fill-opacity="1" d="M409.571 531.798h2v1h-2z"/><path id="rect4243" opacity="1" fill="#bdb49e" fill-opacity="1" d="M394.571 533.798h3v1h-3z"/><path id="rect4245" opacity="1" fill="#bdb49e" fill-opacity="1" d="M398.571 533.798h1v1h-1z"/><path id="rect4247-0" opacity="1" fill="#bdb49e" fill-opacity="1" d="M400.571 533.798h4v1h-4z"/><path id="rect4249" opacity="1" fill="#bdb49e" fill-opacity="1" d="M405.571 533.798h3v1h-3z"/><path id="rect4251" opacity="1" fill="#bdb49e" fill-opacity="1" d="M409.571 533.798h5v1h-5z"/></g><g transform="matrix(.8 0 0 .8 137.6 -733.69)" id="layer1-72"><rect ry="0" y="1008.362" x="6" height="40" width="36" id="rect4139-7" fill="url(#linearGradient3951)" fill-opacity="1" stroke="none"/><path id="path26" d="M36.721 1014.362c.46.028.953 0 1.495.375 4.83 2.079 1.59 7.782-4.568 12.123-.037-.818-.377-2.599-.369-3.383 5.254-3.601 8.328-7.108 4.98-8.498-3.53-1.465-4.626 2.535-4.689 8.342-.329.34-2.607 1.854-2.953 2.092.128-5.295 2.943-10.7 5.648-11.006.144-.028.303-.028.456-.028m-4.918 9.212l1.1-.428.91.614.184 1.933-1.151.883-.478.64c-3.544 2.352-6.563 4.163-10.536 5.659l-2.477.368h-1.63c-1.503-.886-.607-1.227-6.068-1.908l6.153.477c4.746-1.84 9.59-4.483 13.996-7.366m-10.83 7.708c-.712 0-6.265-.482-8.474-.687-2.186-.34-4.87-.443-4.363 2.113-.578-1.363.74-3.677 2.614-4.085 2.897-.648 7.495 1.128 9.148 1.673m-2.664.708c.862.341 2.831.588 3.761.894-1.318.682-7.937 3.126-10.67 2.615-.437 0-2.283-1.328-2.328-2.282.142 1.738 8.234.443 9.237-1.26m-1.8.03c.709-.34 4.028-.324 4.762-.596 4.158 1.454 9.752 4.87 13.755 7.173l1.16.34c.223 1.591 1.204 2.14 2.098 3.17l-1.355 1.363-1.06-1.738c-4.688-2.828-13.953-7.398-19.357-9.593m19.356 9.593a43.6 43.6 0 0 1 1.639 1.022c1.202 3.411 2.603 5.708 3.941 5.609-2.067.988-6.519-3.882-8.019-8.461m8.019 8.46c3.153-1.873-3.52-5.289-5.015-6.28-.337-.954.585-2.535.284-3.66 4.707 2.93 7.49 7.17 5.91 9.18-.38.478-.782.717-1.182.75m-4.58-7.14c-.22-.877-3.127-2.875-3.651-3.182-.704-5.537-.737-6.084-1.335-10.388.358-.34 2.556-2.055 2.897-2.293.422 4.6 1.216 10.834 2.339 14.998" fill="url(#linearGradient3948)" fill-opacity="1"/><path id="rect4171-5" fill="#080809" fill-opacity="1" stroke="none" d="M6 1047.362h36v1H6z"/><path id="rect4783" d="M8 1008.362v17l4-2.308 4 2.308v-17H8z" fill="url(#linearGradient3944)" fill-opacity="1" stroke="none"/><path id="rect4965" opacity=".6" fill="#080809" fill-opacity="1" stroke="none" d="M6 1008.362h2v40H6z"/><path id="path4873" d="M16 1008.362v17l-4-2.308-4 2.308 23 23h11v-14l-26-26z" opacity=".2" fill="url(#linearGradient3940)" fill-opacity="1" fill-rule="evenodd" stroke="none"/><path id="rect4967" fill="#8b8f8f" fill-opacity="1" stroke="none" d="M8 1046.362h34v1H8z"/><path id="rect4971" fill="#212323" fill-opacity=".452" stroke="none" d="M8 1045.362h34v1H8z"/><path id="rect5011" d="M9 1008.362h6v15l-3-2-3 2z" opacity=".15" fill="url(#linearGradient3935)" fill-opacity="1" stroke="none"/></g><g transform="matrix(.8 0 0 .8 -227.657 -330.039)" id="layer1-6" fill-opacity="1" stroke="none"><path id="path4194" transform="translate(384.571 499.798)" d="M9 11v2l1-1-1-1zm30 0l-1 1 1 1v-2z" fill="url(#linearGradient4205)" fill-rule="evenodd" stroke-width="1" stroke-linecap="butt" stroke-linejoin="miter" stroke-opacity="1"/><rect ry="0" y="513.798" x="390.571" height="30" width="36" id="rect4139-4" opacity="1" fill="url(#linearGradient4158-6)"/><path id="path4224" transform="translate(384.571 499.798)" d="M23 23v7h-7l3 3h3v3l1 1v2h-7l5 5h21V33L32 23v7h-2l-1-1h-3v-3l-3-3zm3 10h5v5h-5v-5z" opacity=".2" fill="url(#linearGradient4232)" fill-rule="evenodd" stroke-width="1" stroke-linecap="butt" stroke-linejoin="miter" stroke-opacity="1"/><path d="M10 10l-1 1 1 1-4 2h36l-4-2 1-1-1-1H10z" transform="translate(384.571 499.798)" id="path4172" fill="url(#linearGradient4174)" fill-rule="evenodd" stroke-width="1" stroke-linecap="butt" stroke-linejoin="miter" stroke-opacity="1"/><path id="path4183" transform="translate(384.571 499.798)" d="M10 10l-1 1 1 1-4 2h36l-4-2 1-1-1-1H10z" opacity=".6" fill="url(#linearGradient4302)" fill-rule="evenodd" stroke-width="1" stroke-linecap="butt" stroke-linejoin="miter" stroke-opacity="1"/><path id="rect4176-8" transform="translate(384.571 499.798)" d="M10 10l-1 1h30l-1-1H10z" opacity=".2" fill="#000" stroke-opacity="1"/><path id="rect4304" d="M400.571 516.798v-5c0-4.432 3.568-8 8-8s8 3.568 8 8v5h-1v-5c0-3.878-3.122-7-7-7s-7 3.122-7 7v5z" opacity="1" fill="url(#linearGradient4187)" stroke-opacity="1"/><path id="path4189" d="M401.071 514.798a1.5 1.5 0 0 1 1.5 1.5 1.5 1.5 0 0 1-1.5 1.5 1.5 1.5 0 0 1-1.5-1.5 1.5 1.5 0 0 1 1.5-1.5zm0 1a.5.5 0 0 0-.5.5.5.5 0 0 0 .5.5.5.5 0 0 0 .5-.5.5.5 0 0 0-.5-.5z" opacity="1" fill="url(#linearGradient4290-1)" stroke-opacity="1"/><path id="circle4191" transform="translate(384.571 499.798)" d="M31.5 15a1.5 1.5 0 0 0-1.5 1.5 1.5 1.5 0 0 0 1.5 1.5 1.5 1.5 0 0 0 1.5-1.5 1.5 1.5 0 0 0-1.5-1.5zm0 1a.5.5 0 0 1 .5.5.5.5 0 0 1-.5.5.5.5 0 0 1-.5-.5.5.5 0 0 1 .5-.5z" opacity="1" fill="url(#linearGradient4282)" stroke-opacity="1"/><path id="rect4202-5" transform="translate(384.571 499.798)" d="M16 23v7h7v-7h-7zm9 0v7h7v-7h-7zm-8 1h5v5h-5v-5zm9 0h5v5h-5v-5zm-10 8v7h7v-7h-7zm9 0v7h7v-7h-7zm-8 1h5v5h-5v-5zm9 0h5v5h-5v-5z" fill="url(#linearGradient4222)"/><path id="rect4171-0" opacity="1" fill="#1c5593" d="M390.571 542.798h36v1h-36z"/></g><g id="layer1-3-3" transform="matrix(.81069 0 0 .81069 196.543 69.543)" fill-opacity="1" stroke="none"><circle transform="rotate(15)" r="15" cy="16.971" cx="29.394" id="path4212-7" style="marker:none" color="#000" display="inline" overflow="visible" visibility="visible" opacity="1" fill="url(#linearGradient4464)" fill-rule="nonzero" stroke-width="3" stroke-linecap="round" stroke-linejoin="round" stroke-miterlimit="4" stroke-dasharray="none" stroke-opacity="1"/><path id="path4162" d="M27.168 43.736a20 20 0 0 0 3.959-1.054l-.344-3.118a17 17 0 0 0 3.307-1.906l2.521 1.852a20 20 0 0 0 2.897-2.903l-1.85-2.517a17 17 0 0 0 1.92-3.305l3.086.34a20 20 0 0 0 1.06-3.963l-2.841-1.248A17 17 0 0 0 41 24a17 17 0 0 0-.129-1.908l2.865-1.26a20 20 0 0 0-1.054-3.959l-3.118.344a17 17 0 0 0-1.906-3.307l1.852-2.521a20 20 0 0 0-2.903-2.897l-2.517 1.85a17 17 0 0 0-3.305-1.92l.34-3.086a20 20 0 0 0-3.963-1.06l-1.248 2.841A17 17 0 0 0 24 7a17 17 0 0 0-1.908.129l-1.26-2.865a20 20 0 0 0-3.959 1.054l.344 3.118a17 17 0 0 0-3.307 1.906L11.39 8.49a20 20 0 0 0-2.897 2.903l1.85 2.517a17 17 0 0 0-1.92 3.305l-3.086-.34a20 20 0 0 0-1.06 3.963l2.841 1.248A17 17 0 0 0 7 24a17 17 0 0 0 .129 1.908l-2.865 1.26a20 20 0 0 0 1.054 3.959l3.118-.344a17 17 0 0 0 1.906 3.307L8.49 36.61a20 20 0 0 0 2.903 2.897l2.517-1.85a17 17 0 0 0 3.305 1.92l-.34 3.086a20 20 0 0 0 3.963 1.06l1.248-2.841A17 17 0 0 0 24 41a17 17 0 0 0 1.908-.129l1.26 2.865zM24 38a14 14 0 0 1-14-14 14 14 0 0 1 14-14 14 14 0 0 1 14 14 14 14 0 0 1-14 14z" style="marker:none" color="#000" display="inline" overflow="visible" visibility="visible" opacity="1" fill="url(#linearGradient4472-2)" fill-rule="nonzero" stroke-width="3" stroke-linecap="round" stroke-linejoin="round" stroke-miterlimit="4" stroke-dasharray="none" stroke-opacity="1"/><path id="path4162-5" d="M16.979 5.28l-.106.038.238 2.17.106-.052zm14.04.02l-.234 2.122.106.047.234-2.133a19.83 19.83 0 0 0-.105-.035zm8.086 5.64l-1.447 1.97a17 17 0 0 1 .356.516l1.496-2.037a20 20 0 0 0-.405-.45zm-30.21.001a20 20 0 0 0-.403.452l1.5 2.04c.113-.176.23-.35.35-.523zm34.648 8.975l-2.672 1.176c.033.322.058.645.072.969l2.793-1.229a20.004 20.004 0 0 0-.193-.916zm-39.074.008a20 20 0 0 0-.194.914l2.776 1.219a17 17 0 0 1 .066-.971zm2.556 3.502c-.011.191-.02.382-.025.574a17 17 0 0 0 .057.94l.072-.032a17 17 0 0 1-.104-1.482zm33.95.148c-.013.448-.044.895-.092 1.34l.066.03c.026-.315.043-.63.051-.944a17.101 17.101 0 0 0-.025-.426zm2.556 3.502a20 20 0 0 1-.867 3.049l-3.086-.34a17 17 0 0 1-1.92 3.305l.35.476a17 17 0 0 0 1.57-2.78l3.086.339a20 20 0 0 0 1.06-3.963zm-39.074.008l-.193.084a20 20 0 0 0 1.054 3.959l3.118-.344a17 17 0 0 0 1.55 2.791l.356-.484a17 17 0 0 1-1.906-3.307l-3.118.344a20 20 0 0 1-.861-3.043zm34.648 8.975a20 20 0 0 1-2.494 2.45l-2.521-1.85a17 17 0 0 1-3.307 1.905l.106.948a17 17 0 0 0 3.2-1.854l2.522 1.852a20 20 0 0 0 2.897-2.903zm-30.21.002l-.405.55a20 20 0 0 0 2.903 2.897l2.517-1.85a17 17 0 0 0 3.2 1.873l.105-.953a17 17 0 0 1-3.305-1.92l-2.517 1.85a20.005 20.005 0 0 1-2.498-2.447zm17.013 3.81A17 17 0 0 1 24 40a16.995 16.995 0 0 1-1.914-.117l-1.248 2.842a20 20 0 0 1-3.858-1.026l-.105.965a20 20 0 0 0 3.963 1.06l1.248-2.841A17 17 0 0 0 24 41c.638-.007 1.275-.05 1.908-.129l1.26 2.865a20 20 0 0 0 3.959-1.054l-.106-.961a20 20 0 0 1-3.853 1.015z" style="marker:none" color="#000" display="inline" overflow="visible" visibility="visible" opacity="1" fill="#95a5a6" fill-rule="nonzero" stroke-width="3" stroke-linecap="round" stroke-linejoin="round" stroke-miterlimit="4" stroke-dasharray="none" stroke-opacity="1"/><path id="path4596" d="M33 15L15 33l7.96 7.96c.347.024.693.038 1.04.04.638-.007 1.275-.05 1.908-.129l1.26 2.865a20 20 0 0 0 3.959-1.054l-.238-2.17-.106-.948a17 17 0 0 0 3.307-1.906l2.521 1.852a20 20 0 0 0 2.897-2.903l-1.5-2.04-.35-.477a17 17 0 0 0 1.92-3.305l3.086.34a20 20 0 0 0 1.06-3.963l-2.775-1.219-.066-.029A17 17 0 0 0 41 24a17 17 0 0 0-.057-.94l.02-.007-.008-.098L33 15z" opacity=".2" fill="url(#linearGradient4604)" fill-rule="evenodd" stroke-width="1" stroke-linecap="butt" stroke-linejoin="miter" stroke-opacity="1"/><circle transform="rotate(-165)" r="13" cy="-16.971" cx="-29.394" id="path4212" style="marker:none" color="#000" display="inline" overflow="visible" visibility="visible" opacity="1" fill="#2a6bae" fill-rule="nonzero" stroke-width="3" stroke-linecap="round" stroke-linejoin="round" stroke-miterlimit="4" stroke-dasharray="none" stroke-opacity="1"/><g transform="matrix(.92308 0 0 .92308 1.846 1.846)" id="g4374"><rect id="rect4166-72" width="26" height="26" x="11" y="11" ry="13" opacity="1" fill="url(#linearGradient4174-1)" stroke-width="2.8" stroke-miterlimit="4" stroke-dasharray="none" stroke-opacity=".55"/><path d="M24 11c-1.64 0-3.2.313-4.643.862-.105.096-.24.17-.349.161-.014-.001-.03-.01-.044-.016a12.92 12.92 0 0 0-2.025 1.075c.083.135.108.285-.064.358-.028.013-.39.049-.516.046a12.97 12.97 0 0 0-4.21 5.173c.015-.002.028-.009.043-.01.142-.002.345.039.481.067.126.026.227.11.335.118.308.024.383-.216.634-.35.26.037.432-.044.666-.018.16.018.276.189.4.198.105.01.197-.098.299-.082.098.015.268.23.284.35.02.15-.11.285-.067.45.157.16.442.192.666.284.146-.12.02-.344 0-.518-.002-.077.01-.145 0-.216-.013-.12-.065-.23-.066-.333-.002-.474.383-.696.701-.883.138-.082.246-.225.366-.285.168-.084.294-.104.434-.182.252-.142.469-.256.666-.417.092-.215.01-.503.017-.716.091-.056.17.024.266.017.153-.032.165-.247.252-.333.05-.05.188-.084.25-.133.152-.12.201-.3.334-.35.047-.02.157-.015.232-.035.099-.026.24-.143.4-.198.105-.037.345-.044.385-.084.049-.05-.001-.191.016-.266.08-.377.648-.456.983-.583.235-.089.476-.252.734-.202-.051.179-.291.116-.25.333.056.301.46-.087.566-.131.203-.086.552-.138.819-.235.233-.086.653-.216.432-.484-.183-.01-.272.216-.432.285-.111.017-.09-.093-.185-.102-.09-.01-.14.083-.232.068-.092-.016-.22-.16-.235-.267-.036-.278.235-.393.35-.6-.076-.252-.424-.052-.634-.15.02-.15.175-.254.35-.282.144-.025.466-.012.551.065.05.042.003.147.084.217.085.076.19.068.3.05.04-.19-.247-.142-.216-.267.225-.148.591-.027.867-.068.159-.023.325-.135.466-.214.134-.077.307-.209.45-.084.038.136-.124.181-.2.249a5.414 5.414 0 0 0-.716.75c.122.119.343.06.548.084.08.01.182.034.267.05.1.017.205.012.283.032.14.035.178.184.316.184.228 0 .23-.247.102-.4.04-.158.104-.24.05-.35-.103-.205-.48-.01-.5-.266-.012-.167.14-.16.2-.284-.028-.32.263-.344.232-.632-.014-.12-.115-.122-.2-.235-.042-.055-.064-.161-.112-.21A13.265 13.265 0 0 0 24 11zm-6.708 2.623h.001c.078.011.171.094.265.101.09.002.163-.049.218-.034.139.037.198.247.067.35-.11.014-.152-.047-.234-.032-.226.038-.313.481-.482.467-.16-.014-.246-.403-.084-.518.01-.101-.074-.118-.069-.217.048-.062.185-.128.318-.117zm-.75.052c.046.001.08.013.099.033-.023.178-.162.166-.299.249-.237.143-.374.36-.45.666-.021.09-.255.325-.367.301-.265-.056.073-.543.133-.617.067-.082.156-.154.235-.249.076-.091.126-.215.2-.266a.982.982 0 0 1 .449-.117zm1.972.6c.085 0 .161.014.196.049-.055.22-.529.162-.702.082.011-.083.14-.106.25-.117.077-.002.172-.017.256-.015zm-1.079.405a.624.624 0 0 1 .173.027c-.153.128-.32.201-.583.284-.126.04-.345.09-.367-.052-.026-.173.186-.133.301-.148.146-.02.306-.105.476-.11zm16.555.988a.328.328 0 0 0-.032.14c.01.08.099.158.118.266.01.058-.027.183 0 .235.08.156.29.044.44.052-.17-.235-.34-.47-.526-.693zm.852 1.146a1.21 1.21 0 0 1-.165.361c-.146.221-.343.231-.551.35-.174.098-.249.262-.35.433-.111.185-.18.297-.134.565-.149.296-.374.477-.683.617-.091.041-.216.057-.3.117-.066.048-.104.177-.199.283-.117.13-.24.185-.3.285-.048.076-.065.23-.118.332-.07.14-.222.209-.316.35-.042.066-.07.199-.118.285-.105.192-.286.33-.266.499.019.163.204.192.217.334.002.08-.053.13-.05.217.002.128.09.217.1.316.024.247-.085.346-.131.515-.023.081-.013.172-.035.235-.04.124-.213.236-.217.382-.001.104.107.188.116.334.002.1-.05.208-.032.301.035.181.36.392.5.533.189.189.436.335.517.534.068.168.068.388.2.515.096.094.258.152.383.25.116.091.242.17.366.267.203.158.51.475.833.45.169-.012.342-.15.533-.184.197-.035.453-.053.652-.033.152.015.309.107.467.1.167-.011.359-.135.548-.218.153-.066.34-.14.546-.194C36.95 25.31 37 24.66 37 24c0-2.662-.796-5.13-2.158-7.186zM13.34 21.183c-.277.015-.458.028-.616.099-.36.164-.29.651-.651.767-.125.04-.296.041-.433.067-.118.022-.263.086-.385.084-.034 0-.081-.026-.124-.04-.032.229-.059.46-.079.692.343.066.52.52.823.67.083.042.191.044.298.068.087.02.152.056.235.084.176.06.392.052.533.115.213.095.369.494.551.6.011.108-.02.253.017.333.086.117.208.092.35.168.17.092.222.329.384.401.055.025.195.022.283.048.22.067.293.323.482.267.124-.037.115-.164.135-.283.082-.09.171-.23.3-.232.206-.011.225.214.3.415.043.113.154.212.183.332.052.207.026.827-.018.951-.052.152-.258.216-.384.385-.06.079-.089.194-.134.25-.081.1-.203.125-.264.217-.034.052-.068.163-.101.232-.1.212-.234.363-.15.617.035.105.199.175.2.299 0 .145-.31.275-.333.434-.018.118.095.33.133.484.027.116.247.189.316.266.117.131.21.318.317.483.212.324.377.72.583 1.034.109.165.262.313.334.484.037.086.032.189.066.267.12.268.645.55.917.683.127.061.268.083.384.148.177.099.527.363.616.518.08.14.129.478.168.7.051.292 0 .517.016.834.01.171.066.343.067.515.001.06-.031.105-.034.166l.003.032A12.986 12.986 0 0 0 24 37c.347 0 .69-.018 1.03-.044.014-.026.028-.053.047-.077.078-.102.147-.192.199-.283.05-.304-.121-.517-.05-.783.08-.3.494-.482.784-.617.1-.046.202-.122.283-.15.2-.07.451-.032.635-.099.312-.114.344-.45.498-.734.073-.134.169-.27.183-.365.013-.087-.031-.168-.017-.27.015-.1.105-.187.133-.298.036-.144.052-.356.052-.516 0-.132-.062-.248-.067-.367-.022-.433.156-.481.316-.716.08-.117.11-.25.166-.334.269-.4.734-.594.7-1.2-.01-.2-.136-.653-.284-.717-.084-.037-.277-.002-.4-.05-.393-.147-.625-.635-1.033-.666-.087-.01-.167.036-.265.034-.162-.01-.405-.113-.584-.133-.114-.013-.266.034-.334 0-.104-.05-.115-.243-.2-.3-.067-.046-.197-.062-.299-.101-.164-.063-.294-.137-.484-.15-.058-.002-.131.028-.199.018-.105-.018-.188-.142-.284-.201-.122-.074-.233-.11-.284-.215.11-.359-.193-.459-.266-.666-.035-.097-.02-.214-.05-.301-.043-.124-.166-.196-.3-.3-.242-.185-.456-.36-.8-.402-.152-.02-.302.045-.485.034-.194-.012-.438-.182-.583-.348-.141-.162-.21-.307-.333-.384-.116-.075-.27-.073-.35-.149-.035-.033-.03-.09-.067-.167-.059-.122-.157-.189-.084-.334-.133-.069-.137.126-.282.101-.13-.184-.239-.27-.533-.217-.135.025-.21.195-.367.2-.129.01-.23-.144-.4-.168-.128-.018-.274.035-.366.018-.142-.029-.186-.147-.316-.233-.095-.062-.28-.169-.334-.167-.167.01-.286.356-.518.233-.112-.142.183-.217.05-.35-.101-.101-.186.046-.267.102-.092.064-.18.127-.281.165-.23.085-.372.04-.551.133-.166.086-.173.23-.267.4-.077.14-.252.343-.367.351-.14.011-.273-.195-.4-.25-.382-.165-.566.147-.883.151-.295.011-.715-.475-.7-.751.002-.169.097-.425.117-.634.018-.166.131-.266.133-.417.002-.203-.268-.358-.4-.382-.311-.058-.743.125-1.1-.018-.069-.113.08-.191.118-.301.021-.063.009-.146.031-.215.04-.106.151-.188.201-.3.037-.086.046-.21.084-.317.043-.12.124-.199.133-.284a.374.374 0 0 0-.118-.316zm4.456 3.528c.113.01.127.244.011.263-.124.019-.187-.196-.067-.252a.1.1 0 0 1 .056-.01v-.001z" id="path34-7" fill="url(#linearGradient4161-1)" fill-rule="nonzero"/></g></g><g transform="matrix(.79376 0 0 .8 -284.432 -330.039)" id="layer1-33" stroke="none"><g transform="rotate(-15 402.071 517.798)" id="g5065" color="#000" visibility="visible" fill-opacity="1" fill-rule="nonzero" stroke-width="1" stroke-linecap="round" stroke-linejoin="round" stroke-miterlimit="4" stroke-dasharray="none" stroke-opacity="1"><path style="marker:none" id="rect4933" display="inline" overflow="visible" opacity="1" fill="url(#linearGradient4943)" d="M392.571 509.798h19v16h-19z"/><path style="marker:none" id="rect4935" display="inline" overflow="visible" opacity=".2" fill="#fff" d="M392.571 509.798h19v3h-19z"/></g><path id="rect4391-6" style="marker:none" color="#000" display="inline" overflow="visible" visibility="visible" opacity="1" fill="url(#linearGradient4466-8)" fill-opacity="1" fill-rule="nonzero" stroke-width="1" stroke-linecap="round" stroke-linejoin="round" stroke-miterlimit="4" stroke-dasharray="none" stroke-opacity="1" d="M406.571 504.798h22v33h-22z"/><path id="rect4391-6-7" style="marker:none" color="#000" display="inline" overflow="visible" visibility="visible" opacity="1" fill="url(#linearGradient4768)" fill-opacity="1" fill-rule="nonzero" stroke-width="1" stroke-linecap="round" stroke-linejoin="round" stroke-miterlimit="4" stroke-dasharray="none" stroke-opacity="1" d="M406.571 505.798h22v33h-22z"/><path id="rect4391" style="marker:none" color="#000" display="inline" overflow="visible" visibility="visible" opacity="1" fill="url(#linearGradient4466)" fill-opacity="1" fill-rule="nonzero" stroke-width="1" stroke-linecap="round" stroke-linejoin="round" stroke-miterlimit="4" stroke-dasharray="none" stroke-opacity="1" d="M406.571 506.798h22v33h-22z"/><g id="layer1-5" transform="translate(-15.143 -17.993)" fill="url(#linearGradient5038)" fill-opacity="1"><path id="rect5042" transform="translate(399.714 517.79)" d="M35.121 11.879L30.88 16.12l2.637 2.637-3.891.148L29 20v3l8.984.229 2.086 2.085 4.244-4.244-9.193-9.191z" style="marker:none" color="#000" display="inline" overflow="visible" visibility="visible" opacity=".2" fill="url(#linearGradient5050)" fill-rule="nonzero" stroke-width="1" stroke-linecap="round" stroke-linejoin="round" stroke-miterlimit="4" stroke-dasharray="none" stroke-opacity="1"/><path d="M432.714 528.79c-1.662 0-3 1.339-3 3 0 1.663 1.338 3 3 3s3-1.337 3-3c0-1.661-1.338-3-3-3zm0 7c-2.77 0-5 .893-5 2v6h10v-6c0-1.107-2.23-2-5-2zm0 1c2.216 0 4 .637 4 1.428v4.573h-8v-4.573c0-.791 1.784-1.427 4-1.427z" id="rect4109" opacity="1" fill="url(#linearGradient5040)"/></g><path id="rect4248" d="M388.571 519.798v24h40v-24z" fill="url(#linearGradient4486)" fill-opacity="1" stroke-opacity="1"/><path id="rect4488" fill="#d1d3d4" fill-opacity="1" stroke-opacity="1" d="M388.571 542.798h40v1h-40z"/><path id="path4188" d="M391.571 543.798l1-2h2l-1 2z" fill="#c0392b" fill-rule="evenodd" stroke-width="1" stroke-linecap="butt" stroke-linejoin="miter" stroke-opacity="1"/><path id="path4188-3" d="M399.571 543.798l1-2h2l-1 2z" fill="#2980b9" fill-rule="evenodd" stroke-width="1" stroke-linecap="butt" stroke-linejoin="miter" stroke-opacity="1"/><path id="path4188-3-0" d="M407.571 543.798l1-2h2l-1 2z" fill="#c0392b" fill-rule="evenodd" stroke-width="1" stroke-linecap="butt" stroke-linejoin="miter" stroke-opacity="1"/><path id="path4188-33" d="M415.571 543.798l1-2h2l-1 2z" fill="#2980b9" fill-rule="evenodd" stroke-width="1" stroke-linecap="butt" stroke-linejoin="miter" stroke-opacity="1"/><path id="path4188-3-7" d="M423.571 543.798l1-2h2l-1 2z" fill="#c0392b" fill-rule="evenodd" stroke-width="1" stroke-linecap="butt" stroke-linejoin="miter" stroke-opacity="1"/><path id="path4188-3-0-2" d="M426.571 537.798l2 1v2l-2-1z" fill="#2980b9" fill-rule="evenodd" stroke-width="1" stroke-linecap="butt" stroke-linejoin="miter" stroke-opacity="1"/><path id="path4188-33-7" d="M426.571 529.798l2 1v2l-2-1z" fill="#c0392b" fill-rule="evenodd" stroke-width="1" stroke-linecap="butt" stroke-linejoin="miter" stroke-opacity="1"/><path id="path4188-3-7-6" d="M426.571 521.798l2 1v2l-2-1z" fill="#2980b9" fill-rule="evenodd" stroke-width="1" stroke-linecap="butt" stroke-linejoin="miter" stroke-opacity="1"/><path id="path4188-3-0-2-3" d="M390.571 538.798l-2 1v2l2-1z" fill="#2980b9" fill-rule="evenodd" stroke-width="1" stroke-linecap="butt" stroke-linejoin="miter" stroke-opacity="1"/><path id="path4188-33-7-1" d="M390.571 530.798l-2 1v2l2-1z" fill="#c0392b" fill-rule="evenodd" stroke-width="1" stroke-linecap="butt" stroke-linejoin="miter" stroke-opacity="1"/><path id="path4188-3-7-6-0" d="M390.571 522.798l-2 1v2l2-1z" fill="#2980b9" fill-rule="evenodd" stroke-width="1" stroke-linecap="butt" stroke-linejoin="miter" stroke-opacity="1"/><path id="path4188-0" d="M390.571 519.798l1 2h2l-1-2z" fill="#c0392b" fill-rule="evenodd" stroke-width="1" stroke-linecap="butt" stroke-linejoin="miter" stroke-opacity="1"/><path id="path4188-3-1" d="M398.571 519.798l1 2h2l-1-2z" fill="#2980b9" fill-rule="evenodd" stroke-width="1" stroke-linecap="butt" stroke-linejoin="miter" stroke-opacity="1"/><path id="path4188-3-0-0" d="M406.571 519.798l1 2h2l-1-2z" fill="#c0392b" fill-rule="evenodd" stroke-width="1" stroke-linecap="butt" stroke-linejoin="miter" stroke-opacity="1"/><path id="path4188-33-1" d="M414.571 519.798l1 2h2l-1-2z" fill="#2980b9" fill-rule="evenodd" stroke-width="1" stroke-linecap="butt" stroke-linejoin="miter" stroke-opacity="1"/><path id="path4188-3-7-4" d="M422.571 519.798l1 2h2l-1-2z" fill="#c0392b" fill-rule="evenodd" stroke-width="1" stroke-linecap="butt" stroke-linejoin="miter" stroke-opacity="1"/><path id="path4340" d="M424.571 523.798l4 4v11l-9-9z" opacity=".2" fill="url(#linearGradient4356)" fill-opacity="1" fill-rule="evenodd" stroke-width="1" stroke-linecap="butt" stroke-linejoin="miter" stroke-opacity="1"/><path id="rect4318" style="marker:none" color="#000" display="inline" overflow="visible" visibility="visible" opacity="1" fill="#fcfcfc" fill-opacity="1" fill-rule="nonzero" stroke-width="1" stroke-linecap="round" stroke-linejoin="round" stroke-miterlimit="4" stroke-dasharray="none" stroke-opacity="1" d="M419.571 523.798h5v6h-5z"/><path id="rect4320" style="marker:none" color="#000" display="inline" overflow="visible" visibility="visible" opacity="1" fill="#16a085" fill-opacity="1" fill-rule="nonzero" stroke-width="1" stroke-linecap="round" stroke-linejoin="round" stroke-miterlimit="4" stroke-dasharray="none" stroke-opacity="1" d="M420.571 524.798h3v4h-3z"/><g id="g4382" color="#000" visibility="visible" fill="#bdc3c7" fill-opacity="1" fill-rule="nonzero" stroke-width="1" stroke-linecap="round" stroke-linejoin="round" stroke-miterlimit="4" stroke-dasharray="none" stroke-opacity="1"><path style="marker:none" id="rect4358" display="inline" overflow="visible" opacity="1" d="M404.571 528.798h7v1h-7z"/><path style="marker:none" id="rect4360" display="inline" overflow="visible" opacity="1" d="M404.571 530.798h4v1h-4z"/><path style="marker:none" id="rect4362" display="inline" overflow="visible" opacity="1" d="M404.571 532.798h10v1h-10z"/><path style="marker:none" id="rect4364" display="inline" overflow="visible" opacity="1" d="M404.571 534.798h5v1h-5z"/><path style="marker:none" id="rect4366" display="inline" overflow="visible" opacity="1" d="M392.571 523.798h4v1h-4z"/><path style="marker:none" id="rect4368" display="inline" overflow="visible" opacity="1" d="M392.571 525.798h7v1h-7z"/><path style="marker:none" id="rect4370" display="inline" overflow="visible" opacity="1" d="M392.571 527.798h6v1h-6z"/></g><path id="rect4468" style="marker:none" color="#000" display="inline" overflow="visible" visibility="visible" opacity="1" fill="#7f8c8d" fill-opacity="1" fill-rule="nonzero" stroke-width="1" stroke-linecap="round" stroke-linejoin="round" stroke-miterlimit="4" stroke-dasharray="none" stroke-opacity="1" d="M409.571 503.798h1v4h-1z"/><path id="rect4468-7" style="marker:none" color="#000" display="inline" overflow="visible" visibility="visible" opacity="1" fill="#7f8c8d" fill-opacity="1" fill-rule="nonzero" stroke-width="1" stroke-linecap="round" stroke-linejoin="round" stroke-miterlimit="4" stroke-dasharray="none" stroke-opacity="1" d="M424.571 503.798h1v4h-1z"/><path id="rect4468-7-8" style="marker:none" color="#000" display="inline" overflow="visible" visibility="visible" opacity="1" fill="#7f8c8d" fill-opacity="1" fill-rule="nonzero" stroke-width="1" stroke-linecap="round" stroke-linejoin="round" stroke-miterlimit="4" stroke-dasharray="none" stroke-opacity="1" d="M414.571 503.798h1v4h-1z"/><path id="rect4468-7-8-2-1" style="marker:none" color="#000" display="inline" overflow="visible" visibility="visible" opacity="1" fill="#7f8c8d" fill-opacity="1" fill-rule="nonzero" stroke-width="1" stroke-linecap="round" stroke-linejoin="round" stroke-miterlimit="4" stroke-dasharray="none" stroke-opacity="1" d="M419.571 503.798h1v4h-1z"/></g><g transform="matrix(.8 0 0 .8 -229.857 -280.039)" id="layer1-418" stroke="none"><rect ry="0" y="503.798" x="388.571" height="40" width="40" id="rect4146" opacity="1" fill="url(#linearGradient4165)" fill-opacity="1"/><rect ry="8" y="515.798" x="392.571" height="16" width="32" id="rect4157" opacity="1" fill="#1d99f3" fill-opacity="1"/><path id="path4334" d="M411.571 528.798l15 15h2v-18l-8-8z" opacity=".4" fill="url(#linearGradient4342)" fill-opacity="1" fill-rule="evenodd" stroke-width="1" stroke-linecap="butt" stroke-linejoin="miter" stroke-opacity="1"/><rect id="rect4159" width="14" height="14" x="409.671" y="516.798" ry="7" opacity="1" fill="url(#linearGradient4332)" fill-opacity="1"/><path id="rect4413" transform="translate(384.571 499.798)" d="M35.553 19.092A5.974 5.974 0 0 1 37 23c0 3.324-2.676 6-6 6a5.977 5.977 0 0 1-3.453-1.092A5.977 5.977 0 0 0 32.1 30c3.324 0 6-2.676 6-6a5.98 5.98 0 0 0-2.547-4.908z" opacity="1" fill="#1b83ce" fill-opacity=".119"/><path id="rect4167" opacity="1" fill="#141517" fill-opacity="1" d="M388.571 542.798h40v1h-40z"/></g><g transform="matrix(1.2266 0 0 1.2467 -53.208 -1223.79)" style="line-height:125%;-inkscape-font-specification:Oxygen;text-align:start" id="text5054-5-6-2-54-0" font-style="normal" font-variant="normal" font-weight="400" font-stretch="normal" font-size="12.5" font-family="Oxygen-Sans" letter-spacing="0" word-spacing="0" writing-mode="lr-tb" text-anchor="start" opacity="1" fill="#fff" fill-opacity="1" stroke="none"><path d="M70.964 1016.685q-.818 0-1.58-.232-.764-.231-1.142-.567v-.965q.586.422 1.318.666.739.244 1.423.244.555 0 .976-.159.421-.165.684-.537.268-.378.268-.934 0-.64-.299-.958-.293-.324-1.147-.653l-1.453-.555q-.903-.342-1.349-.83-.445-.495-.445-1.356 0-.592.232-1.05.231-.457.634-.726.403-.274.898-.409.494-.134 1.068-.134.671 0 1.336.183.672.177 1.197.5l-.391.757q-.397-.274-.97-.433-.568-.159-1.136-.159-.525 0-.934.135-.409.128-.677.44-.269.31-.269.768 0 .562.245.867.25.299.89.55l1.404.549q.44.17.715.305.28.134.58.348.305.207.47.445.164.238.274.586.11.348.11.794 0 .549-.165.988-.165.44-.44.72-.274.281-.659.47-.384.184-.8.263-.408.079-.866.079z" style="-inkscape-font-specification:Oxygen-Sans" id="path8198-1"/><path d="M78.075 1016.685q-1.361 0-2.21-.89-.848-.898-.848-2.43 0-1.55.83-2.472.83-.922 2.112-.922 1.214 0 1.85.8.64.793.64 2.21l-.037.512h-4.364q.05 1.233.63 1.831.579.592 1.513.592.506 0 .921-.128.415-.128.928-.384l.214.714q-.958.567-2.18.567zm1.52-3.851q-.074-2.087-1.612-2.087-.787 0-1.306.561-.513.562-.598 1.526h3.516z" style="-inkscape-font-specification:Oxygen-Sans" id="path8200-7"/><path d="M83.647 1015.947q1.252 0 1.978-1.068v-1.422h-.775q-.562 0-.959.055-.396.055-.653.158-.256.098-.402.275-.147.17-.202.378-.055.202-.055.5 0 .538.305.831.306.293.763.293zm1.978-3.162v-.634q0-.709-.342-1.056-.336-.348-1.068-.348-.494 0-1.062.122-.568.116-1.013.33l-.275-.745q1.038-.482 2.332-.482 1.165 0 1.794.549.635.543.635 1.776v4.26h-.77l-.11-.89q-.83 1.018-2.16 1.018-.89 0-1.434-.494-.537-.494-.537-1.373 0-1.05.708-1.538.714-.495 2.27-.495h1.032z" style="-inkscape-font-specification:Oxygen-Sans" id="path8202-1"/><path d="M88.286 1016.563v-6.457h.812l.11 1.282q.366-.696.89-1.02.532-.33 1.118-.33.274 0 .451.032l-.042.83q-.245-.05-.415-.05-.83 0-1.374.599-.537.598-.537 1.459v3.656h-1.013z" style="-inkscape-font-specification:Oxygen-Sans" id="path8204-7"/><path d="M95.64 1015.904q.745 0 1.362-.354l.189.69q-.208.165-.677.305-.47.14-1.062.14-1.386 0-2.21-.903-.818-.903-.818-2.417 0-1.58.842-2.484.843-.91 2.192-.91.628 0 1.086.153.464.147.671.287l-.286.696q-.592-.354-1.35-.354-.958 0-1.537.708-.58.708-.58 1.904 0 1.135.555 1.837.556.702 1.624.702z" style="-inkscape-font-specification:Oxygen-Sans" id="path8206-2"/><path d="M98.442 1016.563v-8.91l1.013-.074v2.16l-.036 1.264q.354-.5.903-.763.556-.268 1.245-.268 1.056 0 1.618.677.561.678.561 1.923v3.992h-1.013v-3.955q0-.959-.311-1.41-.305-.458-1.032-.458-.451 0-.8.134-.341.128-.555.348-.213.214-.348.519-.134.305-.189.616-.049.312-.049.672v3.534h-1.007z" style="-inkscape-font-specification:Oxygen-Sans" id="path8208-4"/><path d="M109.435 1016.435q-.165.195-.483.195-.317 0-.494-.195-.17-.201-.17-.47 0-.275.17-.47.171-.195.494-.195.318 0 .483.195.17.195.17.47 0 .275-.17.47z" style="-inkscape-font-specification:Oxygen-Sans" id="path8210-7"/><path d="M112.413 1016.435q-.165.195-.482.195-.317 0-.494-.195-.171-.201-.171-.47 0-.275.17-.47.172-.195.495-.195.317 0 .482.195.171.195.171.47 0 .275-.17.47z" style="-inkscape-font-specification:Oxygen-Sans" id="path8212-0"/><path d="M115.392 1016.435q-.165.195-.482.195-.318 0-.495-.195-.17-.201-.17-.47 0-.275.17-.47.171-.195.495-.195.317 0 .482.195.17.195.17.47 0 .275-.17.47z" style="-inkscape-font-specification:Oxygen-Sans" id="path8214-8"/></g><path d="M217 30a8 8 0 0 0-8 8 8 8 0 0 0 8 8 8 8 0 0 0 8-8 8 8 0 0 0-8-8zm-3.293 4L217 37.293 220.293 34l.707.707L217.707 38 221 41.293l-.707.707L217 38.707 213.707 42l-.707-.707L216.293 38 213 34.707l.707-.707z" id="path4144" opacity="1" fill="#f2f2f2" fill-opacity="1"/></svg>