<svg xmlns="http://www.w3.org/2000/svg" viewBox="0 0 256 256" id="svg2" version="1.1"><defs id="defs4"><style id="current-color-scheme" type="text/css">.ColorScheme-Text{color:#4d4d4d}.ColorScheme-Highlight{color:#3daee9}</style></defs><path d="M16 10h224c3.324 0 6 2.676 6 6v224c0 3.324-2.676 6-6 6H16c-3.324 0-6-2.676-6-6V16c0-3.324 2.676-6 6-6z" id="rect4240" fill="currentColor" fill-opacity=".5" stroke="none" color="#31363b"/><path d="M16 12h224c2.216 0 4 1.784 4 4v224c0 2.216-1.784 4-4 4H16c-2.216 0-4-1.784-4-4V16c0-2.216 1.784-4 4-4z" id="rect4238" fill="currentColor" fill-opacity="1" stroke="none" color="#eff0f1"/><path class="ColorScheme-Text" d="M32.95 26.639l-1.302.095v9.18c0 .503.058.92.174 1.254.117.328.298.58.541.754.244.174.518.296.825.365a5.93 5.93 0 0 0 1.158.096h.627l.072-.906-.357-.024a43.846 43.846 0 0 1-.532-.039 8.107 8.107 0 0 1-.414-.064 1.202 1.202 0 0 1-.324-.11 1.97 1.97 0 0 1-.215-.176.573.573 0 0 1-.158-.261 4.058 4.058 0 0 1-.072-.366 4.466 4.466 0 0 1-.024-.5V26.64zm21.82 0l-1.333.095v11.584h1.07l.12-1.476c.286.47.656.863 1.111 1.176.455.306.99.459 1.61.459 1.148 0 2.029-.391 2.642-1.174.62-.783.93-1.841.93-3.174 0-1.354-.296-2.422-.889-3.205-.592-.783-1.466-1.174-2.619-1.174-.566 0-1.076.135-1.531.404-.45.265-.823.621-1.12 1.07l.009-1.458v-3.127zm25.01 0l-1.301.095v11.584h1.3v-3.07l.905-.857 3.332 3.927h1.548l-3.968-4.562 3.666-3.832h-1.594l-3.936 4.26.047-1.729V26.64zm-57.542.095v11.584h1.397v-5.601h2.508c1.306 0 2.257-.264 2.855-.793.598-.534.897-1.32.897-2.358 0-.507-.093-.946-.278-1.316a2.099 2.099 0 0 0-.785-.889 3.749 3.749 0 0 0-1.174-.476c-.439-.1-.937-.15-1.492-.15h-3.928zm68.397 0v11.584h3.513c1.857 0 3.318-.505 4.381-1.515 1.064-1.01 1.594-2.447 1.594-4.309 0-.783-.097-1.49-.293-2.119a4.863 4.863 0 0 0-.834-1.625 4.721 4.721 0 0 0-1.308-1.127 5.823 5.823 0 0 0-1.713-.676 9.301 9.301 0 0 0-2.057-.213h-3.283zm29.445 0a.865.865 0 0 0-.627.239.798.798 0 0 0-.238.601c0 .249.08.453.238.612a.865.865 0 0 0 .627.238.85.85 0 0 0 .617-.238.814.814 0 0 0 .246-.612.784.784 0 0 0-.246-.601.833.833 0 0 0-.617-.239zm-96.445 1.047h2.523c.762 0 1.34.137 1.737.412.402.27.603.733.603 1.389 0 .762-.182 1.297-.547 1.604-.36.306-.974.459-1.842.459h-2.474V27.78zm68.396 0h1.824c1.593 0 2.802.384 3.627 1.15.83.762 1.245 1.962 1.245 3.602 0 1.545-.391 2.72-1.174 3.524-.778.798-1.938 1.199-3.483 1.199h-2.039V27.78zM39.6 29.75c-1.122 0-2.132.207-3.032.625l.358.969a5.654 5.654 0 0 1 1.316-.428c.492-.106.953-.16 1.381-.16.635 0 1.098.151 1.389.453.296.301.443.76.443 1.373v.824h-1.34c-1.349 0-2.334.214-2.953.643-.613.423-.92 1.09-.92 2 0 .762.234 1.357.7 1.785.47.428 1.09.643 1.863.643 1.153 0 2.09-.441 2.81-1.325l.143 1.159h1v-5.54c0-1.068-.276-1.837-.826-2.308-.545-.476-1.322-.713-2.332-.713zm26.119 0c-1.122 0-2.13.207-3.03.625l.356.969a5.67 5.67 0 0 1 1.318-.428c.492-.106.953-.16 1.381-.16.635 0 1.098.151 1.389.453.296.301.443.76.443 1.373v.824h-1.342c-1.349 0-2.332.214-2.95.643-.614.423-.92 1.09-.92 2 0 .762.231 1.357.697 1.785.47.428 1.092.643 1.865.643 1.153 0 2.089-.441 2.808-1.325l.143 1.159h1v-5.54c0-1.068-.274-1.837-.824-2.308-.545-.476-1.324-.713-2.334-.713zm8.832 0c-1.17 0-2.12.393-2.85 1.182-.73.783-1.094 1.858-1.094 3.228 0 1.312.354 2.36 1.063 3.143.714.783 1.672 1.174 2.873 1.174.513 0 .974-.06 1.38-.182.408-.122.702-.254.882-.397l-.246-.896a3.49 3.49 0 0 1-1.77.459c-.926 0-1.63-.304-2.111-.912-.482-.608-.721-1.405-.721-2.389 0-1.037.25-1.86.752-2.474.503-.614 1.17-.92 2-.92.656 0 1.24.152 1.754.459l.373-.905c-.18-.121-.471-.246-.873-.373-.397-.132-.867-.197-1.412-.197zm31.015 0c-1.11 0-2.024.399-2.744 1.197-.72.799-1.08 1.87-1.08 3.213 0 1.328.368 2.38 1.104 3.158.735.773 1.691 1.159 2.87 1.159 1.059 0 2.004-.247 2.835-.739l-.278-.927a8.074 8.074 0 0 1-1.207.5c-.36.11-.758.166-1.197.166-.81 0-1.466-.257-1.969-.77-.502-.518-.774-1.31-.816-2.379h5.672l.049-.668c0-1.227-.279-2.183-.834-2.87-.55-.694-1.352-1.04-2.405-1.04zm21.098 0c-1.169 0-2.118.393-2.848 1.182-.73.783-1.095 1.858-1.095 3.228 0 1.312.355 2.36 1.064 3.143.714.783 1.67 1.174 2.871 1.174.513 0 .974-.06 1.381-.182.407-.122.701-.254.881-.397l-.246-.896a3.49 3.49 0 0 1-1.77.459c-.925 0-1.628-.304-2.109-.912-.481-.608-.723-1.405-.723-2.389 0-1.037.252-1.86.754-2.474.503-.614 1.17-.92 2-.92.656 0 1.241.152 1.754.459l.371-.905c-.18-.121-.469-.246-.87-.373-.398-.132-.87-.197-1.415-.197zm7.086 0c-1.11 0-2.025.399-2.744 1.197-.72.799-1.08 1.87-1.08 3.213 0 1.328.368 2.38 1.103 3.158.736.773 1.692 1.159 2.871 1.159 1.058 0 2.004-.247 2.834-.739l-.277-.927a8.074 8.074 0 0 1-1.207.5c-.36.11-.758.166-1.197.166-.81 0-1.467-.257-1.969-.77-.503-.518-.774-1.31-.816-2.379h5.671l.05-.668c0-1.227-.28-2.183-.835-2.87-.55-.694-1.351-1.04-2.404-1.04zm7.602 0c-.879 0-1.56.212-2.047.635-.487.418-.73.968-.73 1.65 0 .55.14.999.421 1.348.28.344.798.637 1.555.88l.92.294c.608.195 1.029.404 1.261.627.233.222.35.498.35.826 0 .476-.141.84-.422 1.094-.28.248-.674.373-1.181.373-.81 0-1.716-.24-2.721-.721v1.101c.867.413 1.741.62 2.625.62a3.98 3.98 0 0 0 1.096-.143c.338-.095.64-.237.904-.428.27-.19.481-.444.635-.761a2.56 2.56 0 0 0 .23-1.112c0-.338-.032-.624-.096-.857a1.76 1.76 0 0 0-.35-.666 2.161 2.161 0 0 0-.704-.54 6.8 6.8 0 0 0-1.15-.46l-.835-.262c-.545-.175-.9-.339-1.07-.492-.17-.154-.254-.402-.254-.746 0-.408.13-.716.389-.928.264-.217.7-.326 1.308-.326.683 0 1.39.186 2.12.557l.308-.977a5.712 5.712 0 0 0-2.562-.586zm-97.008.174l3.324 8.14-1.238 3.159 1.183.254 4.42-11.553H50.7l-2.396 6.705-2.617-6.705h-1.342zm65.619 0l3.244 8.394h1.326l3.182-8.394h-1.342c-.275.772-.691 1.927-1.252 3.467-.555 1.539-.97 2.696-1.246 3.468-.344-.91-.842-2.248-1.492-4.015a464.41 464.41 0 0 0-1.072-2.92h-1.348zm9.457 0v8.394h1.303v-8.394h-1.303zm-62.135.824c1.524 0 2.285 1.127 2.285 3.38 0 2.228-.784 3.34-2.35 3.34-.793 0-1.405-.293-1.84-.88-.428-.587-.642-1.451-.642-2.594 0-1.02.207-1.817.62-2.389.417-.57 1.06-.857 1.927-.857zm48.313.008c1.333 0 2.032.906 2.095 2.715h-4.57c.074-.836.333-1.498.777-1.985.45-.486 1.015-.73 1.698-.73zm28.185 0c1.333 0 2.03.906 2.094 2.715h-4.57c.074-.836.333-1.498.777-1.985.45-.486 1.017-.73 1.7-.73zm-93.336 3.523h1.008v1.85c-.63.926-1.486 1.389-2.57 1.389-.397 0-.728-.127-.992-.381-.265-.254-.397-.615-.397-1.08 0-.26.025-.476.072-.65.048-.18.135-.345.262-.493a1.23 1.23 0 0 1 .524-.357c.222-.09.503-.158.847-.205.344-.048.76-.073 1.246-.073zm26.121 0h1.008v1.85c-.63.926-1.486 1.389-2.57 1.389-.397 0-.728-.127-.992-.381-.265-.254-.397-.615-.397-1.08 0-.26.023-.476.07-.65a1.235 1.235 0 0 1 .788-.85c.222-.09.503-.158.847-.205.344-.048.76-.073 1.246-.073zM20 50v1h216v-1H20zm14.994 33l-4.988 4.99v6.02L34.994 99h1.012V83h-1.012zm3.336 4.281l-.539.862A4 4 0 0 1 39.006 91a4 4 0 0 1-1.211 2.861l.539.864A5 5 0 0 0 40.006 91a5 5 0 0 0-1.676-3.719zM27.006 88v6h2v-6h-2zm.326 58.576c-1.084 0-2.043.25-2.873.752a4.953 4.953 0 0 0-1.904 2.088c-.445.894-.666 1.917-.666 3.07 0 .9.134 1.726.404 2.477.275.751.656 1.383 1.143 1.896a5.17 5.17 0 0 0 1.746 1.19c.682.28 1.424.42 2.222.42 1.143 0 2.161-.227 3.055-.682l-.326-1.039c-.868.407-1.727.61-2.578.61-1.312 0-2.352-.441-3.12-1.325-.761-.883-1.142-2.05-1.142-3.5 0-1.444.37-2.612 1.111-3.506.746-.899 1.762-1.35 3.047-1.35 1 0 1.873.234 2.62.7l.458-.912c-.825-.593-1.89-.889-3.197-.889zm55.432.158v11.584h3.513c1.857 0 3.318-.505 4.381-1.515 1.063-1.01 1.594-2.447 1.594-4.309 0-.783-.097-1.49-.293-2.119-.196-.635-.472-1.175-.832-1.625a4.73 4.73 0 0 0-1.31-1.127 5.823 5.823 0 0 0-1.713-.676 9.283 9.283 0 0 0-2.055-.213h-3.285zm29.445 0a.865.865 0 0 0-.627.239.798.798 0 0 0-.238.601c0 .249.08.453.238.612a.865.865 0 0 0 .627.238.85.85 0 0 0 .617-.238.814.814 0 0 0 .246-.612.784.784 0 0 0-.246-.601.833.833 0 0 0-.617-.239zm-60.629.889l-1.055.078-.214 2.223-1.293.088-.032.744h1.293v5.047c0 .513.045.928.135 1.246.09.317.252.579.484.785.238.206.545.35.92.43.376.08.867.119 1.475.119h.549l.062-.906-.666-.032c-.703-.026-1.156-.136-1.357-.332-.201-.2-.3-.638-.3-1.31v-5.047h2.222v-.832H51.58v-2.3zm32.58.158h1.824c1.593 0 2.802.384 3.627 1.15.83.762 1.244 1.962 1.244 3.602 0 1.545-.39 2.72-1.173 3.524-.778.798-1.938 1.199-3.483 1.199H84.16v-9.475zm-48.846 1.969c-1.121 0-2.132.207-3.03.625l.357.969a5.654 5.654 0 0 1 1.316-.428c.492-.106.952-.16 1.38-.16.636 0 1.099.151 1.39.453.296.302.443.76.443 1.373v.824h-1.34c-1.349 0-2.332.214-2.951.643-.614.423-.922 1.09-.922 2 0 .762.234 1.357.7 1.785.47.428 1.092.643 1.864.643 1.154 0 2.09-.441 2.81-1.325l.142 1.159h1v-5.54c0-1.068-.276-1.837-.827-2.308-.544-.476-1.321-.713-2.332-.713zm9.245 0c-1.212 0-2.128.546-2.746 1.64l-.135-1.466h-1.096V162H41.9v-3.158l-.056-1.944c.624 1.053 1.522 1.579 2.691 1.579 1.1 0 1.957-.396 2.57-1.19.614-.793.92-1.841.92-3.142 0-1.355-.296-2.425-.888-3.213-.587-.789-1.446-1.182-2.578-1.182zm29.207 0c-1.111 0-2.027.399-2.746 1.197-.72.799-1.079 1.87-1.079 3.213 0 1.328.367 2.38 1.102 3.158.735.773 1.693 1.159 2.873 1.159 1.058 0 2.002-.247 2.832-.739l-.277-.927a8.06 8.06 0 0 1-1.205.5c-.36.11-.76.166-1.2.166-.809 0-1.464-.257-1.966-.77-.503-.518-.776-1.31-.819-2.379h5.674l.047-.668c0-1.227-.277-2.183-.832-2.87-.55-.694-1.352-1.04-2.404-1.04zm23.93 0c-1.112 0-2.025.399-2.745 1.197-.72.799-1.08 1.87-1.08 3.213 0 1.328.368 2.38 1.104 3.158.735.773 1.691 1.159 2.87 1.159 1.059 0 2.004-.247 2.835-.739l-.278-.927a8.074 8.074 0 0 1-1.207.5c-.36.11-.758.166-1.197.166-.81 0-1.466-.257-1.969-.77-.502-.518-.774-1.31-.816-2.379h5.672l.049-.668c0-1.227-.279-2.183-.834-2.87-.55-.694-1.352-1.04-2.405-1.04zm21.097 0c-1.17 0-2.118.393-2.848 1.182-.73.783-1.095 1.858-1.095 3.228 0 1.312.355 2.36 1.064 3.143.714.783 1.67 1.174 2.871 1.174.513 0 .974-.06 1.381-.182.407-.122.701-.254.88-.397l-.245-.896a3.49 3.49 0 0 1-1.77.459c-.925 0-1.628-.304-2.11-.912-.48-.608-.722-1.405-.722-2.389 0-1.037.252-1.86.754-2.474.503-.614 1.17-.92 2-.92.656 0 1.239.152 1.752.459l.373-.905c-.18-.121-.469-.246-.871-.373-.397-.132-.87-.197-1.414-.197zm7.086 0c-1.11 0-2.025.399-2.744 1.197-.72.799-1.08 1.87-1.08 3.213 0 1.328.368 2.38 1.103 3.158.735.773 1.692 1.159 2.871 1.159 1.058 0 2.004-.247 2.834-.739l-.277-.927a8.075 8.075 0 0 1-1.207.5c-.36.11-.758.166-1.197.166-.81 0-1.467-.257-1.97-.77-.502-.518-.773-1.31-.816-2.379h5.672l.05-.668c0-1.227-.28-2.183-.835-2.87-.55-.694-1.351-1.04-2.404-1.04zm7.601 0c-.878 0-1.56.212-2.046.635-.487.418-.73.968-.73 1.65 0 .55.14.999.421 1.348.28.344.798.637 1.555.88l.92.294c.608.195 1.029.404 1.261.627.233.222.35.498.35.826 0 .476-.142.84-.422 1.094-.28.248-.674.373-1.182.373-.809 0-1.715-.24-2.72-.721v1.101c.867.413 1.741.62 2.625.62.396 0 .762-.048 1.095-.143.339-.095.64-.237.905-.428.27-.19.481-.444.634-.761a2.56 2.56 0 0 0 .231-1.112c0-.338-.032-.624-.096-.857a1.76 1.76 0 0 0-.35-.666 2.161 2.161 0 0 0-.704-.54 6.8 6.8 0 0 0-1.15-.46l-.835-.262c-.545-.175-.9-.339-1.07-.492-.17-.154-.254-.402-.254-.746 0-.408.13-.716.389-.928.264-.217.7-.326 1.308-.326.683 0 1.39.186 2.12.556l.308-.976a5.712 5.712 0 0 0-2.563-.586zm-65.11.086a2.71 2.71 0 0 0-1.452.43c-.455.28-.84.72-1.158 1.324l-.143-1.666h-1.056v8.394h1.318v-4.752c0-.745.232-1.378.697-1.896.471-.519 1.066-.777 1.785-.777.148 0 .328.02.54.062l.056-1.078a3.548 3.548 0 0 0-.588-.041zm-12.823.088v5.125c0 1.137.249 1.995.746 2.572.502.571 1.242.856 2.215.856.687 0 1.228-.103 1.625-.31.402-.21.738-.529 1.008-.952l.134 1.103h1.143v-8.394h-1.316v4.713c0 .333-.025.637-.073.912a2.96 2.96 0 0 1-.244.777 1.901 1.901 0 0 1-.453.611c-.18.164-.414.294-.7.39a3 3 0 0 1-.966.142c-.645 0-1.108-.192-1.389-.578-.275-.387-.412-.954-.412-1.7v-5.267h-1.318zm46.545 0l3.244 8.394h1.326l3.182-8.394h-1.342c-.275.772-.693 1.927-1.254 3.467-.555 1.539-.969 2.696-1.244 3.468-.344-.91-.842-2.249-1.492-4.015a560.92 560.92 0 0 0-1.07-2.92h-1.35zm9.457 0v8.394h1.303v-8.394h-1.303zm-67.14.832c1.512 0 2.267 1.125 2.267 3.373 0 2.227-.782 3.34-2.348 3.34-.793 0-1.408-.304-1.842-.912-.428-.609-.642-1.463-.642-2.563.005-1.016.217-1.81.635-2.38.417-.572 1.062-.858 1.93-.858zm29.388 0c1.333 0 2.032.906 2.096 2.715H71.32c.074-.836.335-1.498.78-1.985.45-.486 1.015-.73 1.697-.73zm23.93 0c1.333 0 2.032.906 2.095 2.715h-4.57c.074-.836.333-1.498.777-1.985.45-.486 1.015-.73 1.698-.73zm28.183 0c1.333 0 2.032.906 2.096 2.715h-4.57c.074-.836.333-1.498.777-1.985.45-.486 1.015-.73 1.697-.73zm-89.746 3.523h1.006v1.85c-.63.926-1.486 1.389-2.57 1.389-.397 0-.728-.127-.993-.381-.264-.254-.396-.615-.396-1.08 0-.26.025-.476.072-.65.048-.18.135-.345.262-.493a1.23 1.23 0 0 1 .523-.357c.223-.09.506-.158.85-.205.344-.048.76-.073 1.246-.073zM20 170v1h216v-1H20zm14.994 33l-4.988 4.99v6.02l4.988 4.99h1.012v-16h-1.012zm2.877.537l-.244.977A7 7 0 0 1 42.006 211a7 7 0 0 1-4.381 6.479l.244.974A8 8 0 0 0 43.006 211a8 8 0 0 0-5.135-7.463zm.46 3.744l-.54.862A4 4 0 0 1 39.006 211a4 4 0 0 1-1.211 2.861l.539.864A5 5 0 0 0 40.006 211a5 5 0 0 0-1.676-3.719zM27.005 208v6h2v-6h-2z" id="path5385" fill="currentColor" fill-opacity="1" stroke="none"/><path class="ColorScheme-Text" d="M169.648 65.287c-.42 0-.81.048-1.173.147a3.26 3.26 0 0 0-.989.45 2.053 2.053 0 0 0-.697.8c-.17.335-.256.72-.256 1.154 0 .631.164 1.128.49 1.49.327.358.822.664 1.485.914l1.597.61c.627.241 1.047.481 1.262.718.22.233.33.585.33 1.055 0 .407-.1.75-.297 1.027a1.625 1.625 0 0 1-.752.59 3.037 3.037 0 0 1-1.074.176 4.98 4.98 0 0 1-1.564-.27 5.374 5.374 0 0 1-1.45-.73v1.06c.278.247.697.453 1.256.624.56.17 1.139.255 1.739.255.335 0 .653-.03.953-.087.304-.059.599-.153.88-.288.283-.138.524-.311.725-.517a2.24 2.24 0 0 0 .483-.793 3.08 3.08 0 0 0 .181-1.088c0-.327-.04-.618-.12-.873-.081-.255-.18-.47-.302-.645a1.95 1.95 0 0 0-.517-.488 4.299 4.299 0 0 0-.639-.383c-.201-.098-.463-.21-.785-.336l-1.543-.605c-.47-.184-.797-.384-.98-.604-.18-.223-.27-.54-.27-.953 0-.335.098-.617.295-.845.197-.229.446-.39.746-.485a3.29 3.29 0 0 1 1.027-.146c.417 0 .832.057 1.249.174.42.116.777.275 1.068.476l.43-.832a4.85 4.85 0 0 0-1.317-.55 5.52 5.52 0 0 0-1.47-.202zM47.86 65.34l-1.101.08v7.77c0 .425.05.778.148 1.06.099.278.251.489.457.637.206.147.438.25.698.308.264.054.59.082.98.082h.531l.059-.765-.3-.02c-.193-.013-.345-.026-.452-.035a6.623 6.623 0 0 1-.348-.053 1.023 1.023 0 0 1-.275-.093 1.658 1.658 0 0 1-.182-.149.484.484 0 0 1-.135-.22 3.435 3.435 0 0 1-.06-.31 3.801 3.801 0 0 1-.02-.423v-7.87zm9.098 0l-1.115.082v2.207l.054 1.619a2.828 2.828 0 0 0-.343-.504 2.163 2.163 0 0 0-.43-.396 1.78 1.78 0 0 0-.61-.282 3.168 3.168 0 0 0-.806-.093c-.94 0-1.686.334-2.236 1.006-.546.67-.819 1.55-.819 2.638 0 1.146.265 2.057.793 2.733.533.671 1.29 1.007 2.27 1.007 1.016 0 1.754-.464 2.215-1.39l.1 1.256h.927V65.34zm46.674 0l-1.113.082v2.207l.052 1.619a2.824 2.824 0 0 0-.342-.504 2.163 2.163 0 0 0-.43-.396 1.79 1.79 0 0 0-.61-.282 3.153 3.153 0 0 0-.805-.093c-.94 0-1.686.334-2.237 1.006-.546.67-.818 1.55-.818 2.638 0 1.146.263 2.057.791 2.733.533.671 1.29 1.007 2.27 1.007 1.016 0 1.753-.464 2.214-1.39l.102 1.256h.926V65.34zm41.096 0l-1.1.08v7.77c0 .425.048.778.146 1.06.099.278.252.489.457.637.206.147.438.25.698.308.264.054.59.082.98.082h.531l.061-.765-.303-.02c-.192-.013-.341-.026-.449-.035a6.679 6.679 0 0 1-.35-.053 1.023 1.023 0 0 1-.275-.093 1.657 1.657 0 0 1-.182-.149.485.485 0 0 1-.134-.22 3.513 3.513 0 0 1-.059-.31 3.756 3.756 0 0 1-.021-.423v-7.87zm-117.721.082v9.8h3.652c1.133 0 1.986-.242 2.559-.73.577-.492.865-1.171.865-2.035 0-.622-.17-1.134-.51-1.537-.335-.407-.815-.7-1.437-.879.568-.22.97-.51 1.203-.867.237-.363.355-.813.355-1.35 0-.819-.296-1.423-.886-1.812-.587-.394-1.494-.59-2.725-.59h-3.076zm17.047 0a.733.733 0 0 0-.532.201.676.676 0 0 0-.2.51c0 .21.066.383.2.517a.733.733 0 0 0 .532.202c.21 0 .384-.067.523-.202a.69.69 0 0 0 .21-.517c0-.21-.071-.38-.21-.51a.708.708 0 0 0-.523-.201zm23.525 0a.733.733 0 0 0-.531.201.676.676 0 0 0-.201.51c0 .21.067.383.2.517a.733.733 0 0 0 .532.202c.21 0 .385-.067.524-.202a.69.69 0 0 0 .209-.517c0-.21-.07-.38-.21-.51a.708.708 0 0 0-.523-.201zm16.356 0l-3.592 9.8h1.207l1.148-3.154h3.754l1.154 3.155h1.168l-3.584-9.801h-1.255zm22.236 0a.733.733 0 0 0-.531.201.676.676 0 0 0-.202.51c0 .21.067.383.202.517a.733.733 0 0 0 .53.202c.211 0 .386-.067.524-.202a.688.688 0 0 0 .207-.517c0-.21-.068-.38-.207-.51a.708.708 0 0 0-.523-.201zm16.568 0l-3.592 9.8h1.21l1.148-3.154h3.754l1.154 3.155h1.168l-3.586-9.801h-1.256zm53.14.752l-.892.066-.181 1.88-1.094.073-.027.631h1.093v4.272c0 .434.04.784.116 1.052.076.269.213.492.41.666.201.175.46.295.777.362.318.067.735.101 1.25.101h.463l.053-.765-.563-.028c-.595-.022-.978-.115-1.148-.28-.17-.171-.256-.54-.256-1.108v-4.272h1.88v-.705h-1.88v-1.945zm-147.69.133h1.886c.882 0 1.517.118 1.906.355.39.237.584.672.584 1.303 0 .626-.179 1.066-.537 1.316-.358.246-.88.37-1.57.37h-2.27v-3.344zm56.382.27l1.612 4.671h-3.21l1.598-4.672zm38.807 0l1.611 4.671h-3.209l1.598-4.672zm-49.742 1.396c-1.07 0-1.873.375-2.41 1.127l-.121-.98h-.967v7.103h1.113v-3.961c0-1.625.73-2.438 2.19-2.438.541 0 .92.164 1.134.49.215.323.322.804.322 1.444v4.465h1.114v-4.344c0-.976-.195-1.703-.584-2.182-.385-.483-.981-.724-1.791-.724zm38.113 0c-1.043 0-1.862.339-2.457 1.02-.59.675-.887 1.57-.887 2.685 0 1.087.3 1.975.9 2.66.6.68 1.415 1.02 2.444 1.02 1.007 0 1.818-.343 2.432-1.028.613-.69.92-1.574.92-2.652 0-1.115-.296-2.01-.887-2.686-.59-.68-1.413-1.02-2.465-1.02zm20.564 0c-1.07 0-1.873.375-2.41 1.127l-.12-.98h-.968v7.103h1.116v-3.961c0-1.625.73-2.438 2.19-2.438.54 0 .92.164 1.134.49.215.323.322.804.322 1.444v4.465h1.113v-4.344c0-.976-.194-1.703-.584-2.182-.384-.483-.982-.724-1.793-.724zm6.708 0c-.95 0-1.804.175-2.565.529l.303.82a4.796 4.796 0 0 1 1.115-.363c.416-.09.805-.135 1.168-.135.537 0 .928.128 1.174.383.25.255.377.643.377 1.162v.697h-1.135c-1.141 0-1.974.183-2.498.545-.52.358-.78.922-.78 1.692 0 .644.199 1.149.592 1.511.399.363.925.543 1.579.543.975 0 1.768-.373 2.377-1.12l.119.98h.845v-4.688c0-.904-.231-1.554-.697-1.953-.46-.403-1.12-.603-1.974-.603zm11.75 0c-1.043 0-1.862.339-2.458 1.02-.59.675-.886 1.57-.886 2.685 0 1.087.3 1.975.9 2.66.6.68 1.414 1.02 2.444 1.02 1.007 0 1.816-.343 2.43-1.028.612-.69.92-1.574.92-2.652 0-1.115-.295-2.01-.886-2.686-.59-.68-1.413-1.02-2.464-1.02zm7.654 0c-.528 0-.997.098-1.404.295a2.484 2.484 0 0 0-.98.806 3.79 3.79 0 0 0-.558 1.174 5.087 5.087 0 0 0-.187 1.416c0 .448.06.875.182 1.277.125.403.305.769.543 1.1.237.331.554.596.953.793.402.197.857.295 1.363.295.524 0 .972-.104 1.344-.315.376-.21.665-.5.87-.867l.022.832v.196c0 .89-.183 1.533-.55 1.927-.363.394-.925.59-1.686.59-.56 0-1.25-.096-2.068-.289l-.086.942c.805.183 1.523.275 2.154.275 1.16 0 1.992-.32 2.498-.955.51-.631.766-1.565.766-2.805v-6.54h-1.014l-.068 1.02c-.426-.778-1.123-1.167-2.094-1.167zm23.685 0c-.94 0-1.713.337-2.322 1.013-.609.676-.914 1.582-.914 2.72 0 1.123.311 2.013.934 2.67.622.654 1.433.981 2.431.981.895 0 1.694-.208 2.397-.625l-.237-.785c-.376.188-.715.33-1.02.424-.303.094-.641.14-1.013.14-.685 0-1.24-.217-1.666-.652-.425-.438-.655-1.11-.691-2.013h4.8l.042-.565c0-1.038-.236-1.848-.705-2.43-.466-.586-1.145-.878-2.036-.878zm12.086 0c-.94 0-1.715.337-2.324 1.013-.609.676-.912 1.582-.912 2.72 0 1.123.311 2.013.934 2.67.622.654 1.431.981 2.43.981.894 0 1.693-.208 2.396-.625l-.235-.785c-.376.188-.717.33-1.021.424-.304.094-.642.14-1.014.14-.685 0-1.239-.217-1.664-.652-.425-.438-.655-1.11-.691-2.013h4.8l.04-.565c0-1.038-.235-1.848-.705-2.43-.466-.586-1.143-.878-2.034-.878zm7.278 0c-1.043 0-1.862.339-2.457 1.02-.591.675-.887 1.57-.887 2.685 0 1.087.3 1.975.9 2.66.6.68 1.414 1.02 2.444 1.02 1.007 0 1.816-.343 2.43-1.028.613-.69.92-1.574.92-2.652 0-1.115-.295-2.01-.886-2.686-.59-.68-1.413-1.02-2.464-1.02zm-11.844.074c-.43 0-.84.12-1.229.361-.385.237-.712.611-.98 1.121l-.121-1.41h-.893v7.104h1.115V71.2c0-.63.196-1.165.59-1.603.399-.439.903-.659 1.512-.659.125 0 .278.017.457.053l.047-.912a3.034 3.034 0 0 0-.498-.033zm-153.936.072v4.338c0 .962.21 1.688.631 2.176.425.483 1.05.724 1.873.724.582 0 1.042-.087 1.377-.261.34-.18.625-.449.854-.807l.113.934h.967v-7.104h-1.113v3.988c0 .282-.02.541-.061.774-.04.233-.11.45-.209.656a1.609 1.609 0 0 1-.383.518c-.152.138-.348.25-.59.33-.237.08-.511.119-.82.119-.546 0-.937-.162-1.174-.488-.233-.327-.35-.807-.35-1.438V68.12h-1.115zm7.803 0v7.104h1.1v-7.104h-1.1zm23.525 0v7.104h1.1v-7.104h-1.1zm22.948 0v4.338c0 .962.21 1.688.63 2.176.426.483 1.05.724 1.874.724.582 0 1.04-.087 1.377-.261.34-.18.623-.449.851-.807l.115.934h.967v-7.104h-1.115v3.988c0 .282-.02.541-.06.774-.04.233-.11.45-.208.656a1.609 1.609 0 0 1-.382.518c-.153.138-.35.25-.592.33-.237.08-.51.119-.819.119-.546 0-.938-.162-1.175-.488-.233-.327-.348-.807-.348-1.438V68.12h-1.115zm15.642 0v7.104h1.102v-7.104h-1.102zm-51.742.705c.663 0 1.16.246 1.496.739.34.492.51 1.22.51 2.183-.005.882-.168 1.562-.49 2.041-.323.479-.847.717-1.576.717-.694 0-1.208-.254-1.54-.764-.326-.51-.49-1.21-.49-2.101 0-.896.177-1.589.526-2.076.349-.493.87-.739 1.564-.739zm46.674 0c.662 0 1.162.246 1.498.739.34.492.51 1.22.51 2.183-.004.882-.168 1.562-.49 2.041-.323.479-.849.717-1.579.717-.693 0-1.205-.254-1.537-.764-.326-.51-.49-1.21-.49-2.101 0-.896.174-1.589.524-2.076.349-.493.87-.739 1.564-.739zm11.205 0c.73 0 1.28.264 1.652.787.372.52.557 1.212.557 2.08 0 .555-.076 1.041-.228 1.457a2.116 2.116 0 0 1-.739.995c-.335.246-.75.369-1.242.369-.716 0-1.263-.26-1.639-.78-.376-.519-.562-1.2-.562-2.046 0-.864.186-1.555.562-2.075.376-.523.923-.787 1.639-.787zm39.022 0c.73 0 1.28.264 1.652.787.371.52.557 1.212.557 2.08 0 .555-.077 1.041-.229 1.457a2.115 2.115 0 0 1-.738.995c-.336.246-.75.369-1.242.369-.717 0-1.263-.26-1.64-.78-.375-.519-.564-1.2-.564-2.046 0-.864.189-1.555.565-2.075.376-.523.922-.787 1.639-.787zm7.707 0c1.356 0 2.035.838 2.035 2.512v.598c0 .322-.036.618-.108.886a2.397 2.397 0 0 1-.343.744 1.51 1.51 0 0 1-.637.524 2.3 2.3 0 0 1-.967.19c-.376 0-.703-.077-.98-.23a1.614 1.614 0 0 1-.631-.618 3.118 3.118 0 0 1-.323-.846 4.446 4.446 0 0 1-.101-.973c0-.367.034-.708.101-1.021a3.43 3.43 0 0 1 .329-.885c.152-.273.365-.488.638-.644.278-.157.606-.237.987-.237zm23.66 0c1.128 0 1.72.766 1.773 2.297h-3.869c.063-.707.282-1.266.658-1.678.38-.411.86-.619 1.438-.619zm12.086 0c1.128 0 1.717.766 1.771 2.297h-3.867c.063-.707.282-1.266.658-1.678.38-.411.86-.619 1.438-.619zm7.25 0c.73 0 1.28.264 1.652.787.371.52.557 1.212.557 2.08 0 .555-.077 1.041-.229 1.457a2.115 2.115 0 0 1-.738.995c-.336.246-.75.369-1.242.369-.716 0-1.263-.26-1.639-.78-.376-.519-.563-1.2-.563-2.046 0-.864.187-1.555.563-2.075.376-.523.923-.787 1.639-.787zM59.635 70.43v.906h4.492v-.906h-4.492zm-31.448.06h1.92c.967 0 1.674.148 2.122.444.447.295.671.793.671 1.496 0 .662-.194 1.143-.584 1.443-.385.3-1 .451-1.845.451h-2.284V70.49zm111.551 1.317h.854v1.564c-.533.783-1.258 1.174-2.176 1.174-.336 0-.616-.107-.84-.322-.224-.215-.336-.519-.336-.912 0-.22.02-.404.06-.551.041-.152.116-.29.223-.416.108-.13.256-.231.444-.303.188-.076.426-.135.717-.176.29-.04.643-.058 1.054-.058zM37.871 83.537l-.244.977A7 7 0 0 1 42.006 91a7 7 0 0 1-4.381 6.479l.244.974A8 8 0 0 0 43.006 91a8 8 0 0 0-5.135-7.463zm166.576 2.424a5.1 5.1 0 0 0-1.484.223c-.488.143-.882.323-1.182.543l.328.853c.31-.201.661-.365 1.055-.49.398-.125.786-.19 1.162-.19.17 0 .334.016.49.047.157.027.32.083.49.168.17.08.315.187.436.317.121.125.222.298.303.517.08.22.121.472.121.758 0 .264-.028.505-.082.725-.05.214-.142.437-.281.666a6.09 6.09 0 0 1-.37.55c-.107.14-.284.35-.53.637l-3.163 3.733.176.88h5.242l.06-.806h-4.222l2.633-3.082c.318-.372.564-.675.738-.912.18-.238.343-.493.49-.766.153-.277.255-.55.31-.818.057-.269.087-.574.087-.914 0-.39-.06-.738-.176-1.047a2.136 2.136 0 0 0-.457-.76 2.35 2.35 0 0 0-.656-.482c-.25-.13-.501-.22-.752-.27a3.583 3.583 0 0 0-.766-.08zm8.137 0c-.877 0-1.592.22-2.143.658-.55.439-.824 1.032-.824 1.78 0 .572.17 1.068.51 1.484.345.416.79.713 1.336.892-.658.229-1.165.568-1.524 1.02-.353.448-.53 1-.53 1.658 0 .546.144 1.02.435 1.418.295.398.678.691 1.148.879.47.188 1 .281 1.586.281.909 0 1.662-.225 2.262-.677.6-.453.9-1.086.9-1.9 0-.623-.184-1.177-.55-1.665a2.9 2.9 0 0 0-1.48-1.027c.56-.202 1.003-.502 1.325-.9.327-.404.49-.89.49-1.464 0-.752-.274-1.345-.82-1.779-.542-.438-1.248-.658-2.121-.658zm15.549.135l-5.572 9.802h.886l5.506-9.802h-.82zm-5.68.006c-.72 0-1.28.233-1.678.699-.398.46-.597 1.059-.597 1.793 0 .738.196 1.339.59 1.804.393.466.956.7 1.685.7.725 0 1.287-.234 1.686-.7.398-.47.597-1.07.597-1.804 0-.748-.198-1.35-.591-1.807-.39-.456-.953-.685-1.692-.685zm.008.625c.501 0 .875.168 1.121.504.25.33.375.782.375 1.355 0 .56-.124 1.014-.375 1.363-.246.345-.62.518-1.12.518-.502 0-.88-.172-1.13-.512-.25-.34-.375-.796-.375-1.369 0-.56.125-1.01.375-1.35.25-.34.628-.51 1.13-.51zm-9.883.06c.569 0 1.021.145 1.362.436.34.286.511.67.511 1.148 0 .528-.157.967-.47 1.317-.314.349-.78.59-1.403.724-.617-.139-1.088-.38-1.41-.724-.318-.35-.476-.789-.476-1.317 0-.474.17-.857.515-1.148.35-.291.807-.436 1.371-.436zm16.494 4.115c-.72 0-1.279.234-1.677.7-.399.465-.598 1.064-.598 1.798 0 .739.198 1.342.592 1.807.394.466.954.697 1.683.697.726 0 1.288-.231 1.686-.697.398-.47.598-1.073.598-1.807 0-.747-.196-1.35-.59-1.806-.39-.461-.955-.692-1.694-.692zm-16.494.295c.631.135 1.139.39 1.524.766.39.376.584.837.584 1.383 0 1.217-.702 1.826-2.108 1.826-.689 0-1.219-.159-1.586-.477-.362-.317-.543-.764-.543-1.341 0-.564.195-1.03.584-1.397.39-.367.905-.62 1.545-.76zm16.502.336c.502 0 .875.168 1.121.504.251.331.375.783.375 1.356 0 .56-.124 1.014-.375 1.363-.246.349-.62.523-1.12.523-.502 0-.879-.17-1.13-.51-.25-.344-.375-.803-.375-1.376 0-.56.125-1.008.375-1.348.251-.34.628-.512 1.13-.512zm-59.431 93.754c-.421 0-.812.048-1.174.147a3.26 3.26 0 0 0-.988.45 2.053 2.053 0 0 0-.698.8c-.17.335-.256.72-.256 1.154 0 .631.164 1.128.49 1.49.327.358.823.664 1.485.914l1.598.61c.626.241 1.047.481 1.261.718.22.233.33.585.33 1.055 0 .407-.1.75-.296 1.027a1.625 1.625 0 0 1-.752.59 3.037 3.037 0 0 1-1.075.176 4.98 4.98 0 0 1-1.564-.27 5.374 5.374 0 0 1-1.45-.73v1.06c.278.247.697.454 1.257.624.56.17 1.138.255 1.738.255.336 0 .653-.03.953-.087.304-.059.599-.153.88-.288.283-.138.524-.311.725-.517a2.24 2.24 0 0 0 .483-.793 3.08 3.08 0 0 0 .182-1.088c0-.327-.041-.618-.122-.873-.08-.255-.18-.47-.3-.645a1.95 1.95 0 0 0-.518-.488 4.3 4.3 0 0 0-.639-.383c-.201-.098-.462-.21-.785-.336l-1.543-.605c-.47-.184-.797-.384-.98-.604-.18-.223-.27-.54-.27-.953 0-.335.098-.617.295-.845.197-.229.446-.39.746-.485a3.29 3.29 0 0 1 1.028-.146c.416 0 .831.057 1.248.174.42.116.777.275 1.068.476l.43-.832a4.851 4.851 0 0 0-1.317-.55 5.52 5.52 0 0 0-1.47-.202zm-121.79.053l-1.101.08v7.77c0 .425.05.778.148 1.06.099.278.252.489.457.637.206.147.438.25.698.308.264.054.59.082.98.082h.531l.059-.765-.3-.02c-.193-.013-.344-.026-.452-.035a6.621 6.621 0 0 1-.348-.053 1.028 1.028 0 0 1-.275-.093 1.656 1.656 0 0 1-.182-.149.484.484 0 0 1-.134-.22 3.433 3.433 0 0 1-.06-.31 3.801 3.801 0 0 1-.02-.423v-7.87zm9.098 0l-1.115.082v2.207l.055 1.619a2.828 2.828 0 0 0-.344-.504 2.163 2.163 0 0 0-.43-.396 1.779 1.779 0 0 0-.61-.282 3.167 3.167 0 0 0-.806-.093c-.94 0-1.686.334-2.236 1.006-.546.67-.818 1.55-.818 2.638 0 1.146.264 2.057.792 2.733.533.671 1.29 1.007 2.27 1.007 1.016 0 1.754-.464 2.215-1.39l.1 1.256h.927v-9.883zm46.674 0l-1.113.082v2.207l.052 1.619a2.824 2.824 0 0 0-.341-.504 2.163 2.163 0 0 0-.43-.396 1.79 1.79 0 0 0-.611-.282 3.151 3.151 0 0 0-.805-.093c-.94 0-1.686.334-2.236 1.006-.546.67-.819 1.55-.819 2.638 0 1.146.263 2.057.791 2.733.533.671 1.29 1.007 2.27 1.007 1.016 0 1.754-.464 2.215-1.39l.101 1.256h.926v-9.883zm41.096 0l-1.1.08v7.77c0 .425.048.778.147 1.06.098.278.25.489.457.637.206.147.437.25.697.308.264.054.591.082.98.082h.532l.06-.765-.303-.02c-.192-.013-.341-.026-.449-.035a6.677 6.677 0 0 1-.35-.053 1.028 1.028 0 0 1-.275-.093 1.655 1.655 0 0 1-.181-.149.485.485 0 0 1-.135-.22 3.51 3.51 0 0 1-.059-.31 3.756 3.756 0 0 1-.021-.423v-7.87zm-117.721.082v9.8h3.652c1.133 0 1.986-.242 2.559-.73.577-.492.865-1.171.865-2.035 0-.622-.17-1.134-.51-1.537-.335-.407-.815-.7-1.437-.879.568-.22.97-.51 1.203-.867.237-.363.356-.813.356-1.35 0-.819-.296-1.423-.887-1.812-.587-.394-1.494-.59-2.725-.59h-3.076zm17.047 0a.733.733 0 0 0-.531.201.676.676 0 0 0-.202.51c0 .21.067.383.202.517a.733.733 0 0 0 .53.202c.211 0 .386-.067.524-.202a.69.69 0 0 0 .21-.517c0-.21-.07-.38-.21-.51a.708.708 0 0 0-.523-.201zm23.525 0a.733.733 0 0 0-.53.201.676.676 0 0 0-.202.51c0 .21.067.383.201.517a.733.733 0 0 0 .531.202c.21 0 .385-.067.524-.202a.69.69 0 0 0 .209-.517c0-.21-.07-.38-.21-.51a.708.708 0 0 0-.523-.201zm16.356 0l-3.592 9.8h1.207l1.148-3.154h3.754l1.155 3.155h1.168l-3.584-9.801h-1.256zm22.236 0a.733.733 0 0 0-.531.201.676.676 0 0 0-.201.51c0 .21.067.383.2.517a.733.733 0 0 0 .532.202c.21 0 .385-.067.524-.202a.688.688 0 0 0 .207-.517c0-.21-.069-.38-.207-.51a.708.708 0 0 0-.524-.201zm16.568 0l-3.591 9.8h1.209l1.148-3.154h3.754l1.154 3.155h1.168l-3.586-9.801h-1.256zm53.141.752l-.892.066-.182 1.88-1.094.073-.027.631h1.094v4.272c0 .434.039.784.115 1.052.076.269.213.492.41.666.201.175.46.295.777.362.318.067.736.101 1.25.101h.463l.053-.765-.563-.028c-.595-.022-.978-.115-1.148-.28-.17-.171-.256-.54-.256-1.108v-4.272h1.881v-.705h-1.88v-1.945zm-147.691.133h1.886c.882 0 1.517.118 1.907.355.39.237.584.672.584 1.303 0 .626-.18 1.066-.537 1.316-.359.246-.881.37-1.57.37h-2.27v-3.344zm56.382.27l1.612 4.671h-3.21l1.598-4.672zm38.807 0l1.611 4.671h-3.209l1.598-4.672zm-49.742 1.396c-1.07 0-1.873.375-2.41 1.127l-.121-.98h-.967v7.103h1.113v-3.961c0-1.625.73-2.438 2.19-2.438.541 0 .92.164 1.134.49.215.323.323.804.323 1.444v4.465h1.113v-4.344c0-.976-.195-1.703-.584-2.182-.385-.483-.98-.724-1.791-.724zm38.113 0c-1.043 0-1.862.339-2.457 1.02-.59.675-.887 1.57-.887 2.685 0 1.087.301 1.975.9 2.66.6.68 1.415 1.02 2.444 1.02 1.007 0 1.819-.343 2.432-1.028.613-.69.92-1.574.92-2.652 0-1.115-.296-2.01-.887-2.686-.59-.68-1.413-1.02-2.465-1.02zm20.565 0c-1.07 0-1.873.375-2.41 1.127l-.122-.98h-.966v7.103h1.115v-3.961c0-1.625.73-2.438 2.19-2.438.54 0 .92.164 1.134.49.215.323.322.804.322 1.444v4.465h1.114v-4.344c0-.976-.195-1.703-.584-2.182-.385-.483-.983-.724-1.793-.724zm6.707 0c-.95 0-1.804.175-2.565.529l.303.82a4.796 4.796 0 0 1 1.115-.363c.416-.09.806-.135 1.168-.135.537 0 .928.128 1.174.383.25.255.377.643.377 1.162v.697h-1.135c-1.141 0-1.974.183-2.498.545-.519.358-.78.922-.78 1.692 0 .644.199 1.149.593 1.511.398.363.924.543 1.578.543.976 0 1.768-.373 2.377-1.12l.119.98h.846v-4.688c0-.904-.232-1.555-.698-1.953-.46-.403-1.12-.603-1.974-.603zm11.75 0c-1.043 0-1.862.339-2.457 1.02-.591.675-.887 1.57-.887 2.685 0 1.087.3 1.975.9 2.66.6.68 1.414 1.02 2.444 1.02 1.007 0 1.816-.343 2.43-1.028.613-.69.92-1.574.92-2.652 0-1.115-.295-2.01-.885-2.686-.591-.68-1.413-1.02-2.465-1.02zm7.654 0c-.528 0-.997.098-1.404.295a2.484 2.484 0 0 0-.98.806 3.79 3.79 0 0 0-.557 1.174 5.087 5.087 0 0 0-.188 1.416c0 .448.06.875.182 1.277.125.403.305.769.543 1.1.237.331.554.596.953.793.403.197.857.295 1.363.295.524 0 .972-.104 1.344-.315.376-.21.665-.5.871-.867l.021.832v.196c0 .89-.183 1.533-.55 1.927-.363.394-.925.59-1.686.59-.56 0-1.25-.096-2.068-.289l-.086.942c.806.183 1.523.275 2.154.275 1.16 0 1.992-.32 2.498-.955.51-.631.766-1.565.766-2.805v-6.54h-1.014l-.068 1.02c-.425-.778-1.123-1.167-2.094-1.167zm23.686 0c-.94 0-1.714.337-2.323 1.013-.608.676-.914 1.582-.914 2.719 0 1.123.312 2.014.934 2.672.622.653 1.433.98 2.431.98.896 0 1.694-.208 2.397-.625l-.236-.785c-.376.188-.716.33-1.02.424-.304.094-.642.14-1.014.14-.684 0-1.24-.217-1.666-.652-.425-.438-.655-1.11-.691-2.013h4.8l.042-.565c0-1.038-.235-1.848-.705-2.43-.466-.586-1.145-.878-2.035-.878zm12.085 0c-.94 0-1.715.337-2.324 1.013-.608.676-.912 1.582-.912 2.719 0 1.123.312 2.014.934 2.672.622.653 1.431.98 2.43.98.895 0 1.693-.208 2.396-.625l-.234-.785c-.376.188-.718.33-1.022.424-.304.094-.642.14-1.014.14-.684 0-1.238-.217-1.664-.652-.425-.438-.655-1.11-.691-2.013h4.8l.04-.565c0-1.038-.235-1.848-.705-2.43-.466-.586-1.143-.878-2.033-.878zm7.278 0c-1.043 0-1.862.339-2.457 1.02-.591.675-.887 1.57-.887 2.685 0 1.087.3 1.975.9 2.66.6.68 1.414 1.02 2.444 1.02 1.007 0 1.816-.343 2.43-1.028.613-.69.92-1.574.92-2.652 0-1.115-.295-2.01-.885-2.686-.591-.68-1.413-1.02-2.465-1.02zm-11.844.074c-.43 0-.839.12-1.228.361-.385.237-.712.611-.98 1.121l-.122-1.41h-.893v7.104h1.116V191.2c0-.631.196-1.165.59-1.603.398-.439.902-.659 1.511-.659.126 0 .278.017.457.053l.047-.912a3.034 3.034 0 0 0-.498-.033zm-153.935.072v4.338c0 .962.21 1.688.63 2.176.426.483 1.05.724 1.873.724.582 0 1.042-.087 1.377-.261.34-.18.626-.449.854-.807l.113.934h.967v-7.104h-1.113v3.988c0 .282-.02.541-.06.774-.041.233-.111.45-.21.656a1.609 1.609 0 0 1-.383.518c-.152.138-.348.25-.59.33-.237.08-.511.119-.82.119-.546 0-.936-.162-1.174-.488-.232-.327-.35-.807-.35-1.438v-4.459h-1.114zm7.802 0v7.104h1.1v-7.104h-1.1zm23.526 0v7.104h1.1v-7.104h-1.1zm22.947 0v4.338c0 .962.21 1.688.63 2.176.426.483 1.05.724 1.874.724.582 0 1.041-.087 1.377-.261.34-.18.623-.449.851-.807l.116.934h.966v-7.104h-1.115v3.988c0 .282-.02.541-.06.774-.04.233-.109.45-.207.656a1.609 1.609 0 0 1-.383.518c-.152.138-.35.25-.592.33-.237.08-.51.119-.818.119-.546 0-.939-.162-1.176-.488-.233-.327-.348-.807-.348-1.438v-4.459H89.97zm15.643 0v7.104h1.101v-7.104h-1.101zm-51.743.705c.663 0 1.16.246 1.496.738.34.493.51 1.222.51 2.184-.004.882-.168 1.562-.49 2.041-.322.479-.847.717-1.576.717-.694 0-1.208-.254-1.54-.764-.326-.51-.49-1.21-.49-2.101 0-.896.177-1.589.526-2.077.349-.492.87-.738 1.564-.738zm46.674 0c.663 0 1.162.246 1.498.738.34.493.51 1.222.51 2.184-.004.882-.168 1.562-.49 2.041-.323.479-.849.717-1.578.717-.694 0-1.206-.254-1.538-.764-.326-.51-.49-1.21-.49-2.101 0-.896.175-1.589.524-2.077.349-.492.87-.738 1.564-.738zm11.205 0c.73 0 1.281.264 1.653.787.371.52.556 1.212.556 2.08 0 .555-.076 1.041-.228 1.457a2.116 2.116 0 0 1-.739.995c-.335.246-.75.369-1.242.369-.716 0-1.262-.26-1.638-.78-.376-.519-.563-1.2-.563-2.046 0-.864.187-1.555.563-2.075.376-.523.922-.787 1.638-.787zm39.022 0c.73 0 1.28.264 1.652.787.372.52.557 1.212.557 2.08 0 .555-.077 1.041-.229 1.457a2.115 2.115 0 0 1-.738.995c-.336.246-.75.369-1.242.369-.716 0-1.263-.26-1.639-.78-.376-.519-.564-1.2-.564-2.046 0-.864.188-1.555.564-2.075.376-.523.923-.787 1.639-.787zm7.707 0c1.356 0 2.035.838 2.035 2.512v.598c0 .322-.036.618-.108.886a2.397 2.397 0 0 1-.343.744 1.51 1.51 0 0 1-.637.524 2.3 2.3 0 0 1-.967.19c-.376 0-.703-.077-.98-.23a1.614 1.614 0 0 1-.631-.618 3.118 3.118 0 0 1-.322-.846 4.446 4.446 0 0 1-.102-.973c0-.367.034-.708.102-1.021a3.43 3.43 0 0 1 .328-.885c.152-.273.365-.488.638-.644.278-.157.606-.237.987-.237zm23.66 0c1.128 0 1.72.766 1.773 2.297h-3.869c.063-.707.282-1.266.658-1.678.38-.411.86-.619 1.438-.619zm12.086 0c1.128 0 1.718.766 1.771 2.297h-3.867c.063-.707.282-1.266.658-1.678.38-.411.86-.619 1.438-.619zm7.25 0c.73 0 1.28.264 1.652.787.372.52.557 1.212.557 2.08 0 .555-.076 1.041-.229 1.457a2.115 2.115 0 0 1-.738.995c-.336.246-.75.369-1.242.369-.716 0-1.263-.26-1.639-.78-.376-.519-.562-1.2-.562-2.046 0-.864.186-1.555.562-2.075.376-.523.923-.787 1.639-.787zM59.635 190.43v.906h4.492v-.906h-4.492zm-31.447.06h1.92c.966 0 1.673.148 2.12.444.448.295.673.793.673 1.496 0 .662-.195 1.143-.584 1.443-.385.3-1 .451-1.846.451h-2.283v-3.834zm111.55 1.317h.854v1.564c-.533.783-1.258 1.174-2.176 1.174-.336 0-.616-.108-.84-.322-.223-.215-.336-.519-.336-.913 0-.219.02-.403.061-.55.04-.152.115-.291.223-.416.107-.13.255-.231.443-.303.188-.076.426-.136.717-.176.29-.04.643-.058 1.055-.058zm65.448 14.289l-2.21 3.25c-.263.38-.467.687-.61.92a9.965 9.965 0 0 0-.444.812c-.152.309-.26.614-.322.918-.063.3-.094.622-.094.967 0 .403.07.79.21 1.156.138.367.337.694.597.98.26.283.59.508.992.678.403.17.851.254 1.344.254.94 0 1.698-.289 2.275-.87.582-.587.873-1.313.873-2.177 0-.846-.291-1.545-.873-2.095a2.894 2.894 0 0 0-2.068-.827c-.497 0-.96.127-1.389.377.273-.367.508-.695.705-.986l2.281-3.357h-1.267zm4.625 0l.129.9h4.396l-3.383 8.902h1.114l3.437-9.01v-.792h-5.693zm18.322 0l-5.572 9.802h.886l5.506-9.802h-.82zm-5.68.006c-.72 0-1.28.233-1.677.699-.399.46-.598 1.059-.598 1.793 0 .738.196 1.339.59 1.805.394.465.956.699 1.685.699.725 0 1.288-.234 1.686-.7.398-.47.598-1.07.598-1.804 0-.748-.198-1.35-.592-1.807-.39-.456-.953-.685-1.692-.685zm.008.625c.502 0 .875.168 1.121.504.251.33.375.782.375 1.355 0 .56-.124 1.014-.375 1.363-.246.345-.62.518-1.12.518-.502 0-.879-.172-1.13-.512-.25-.34-.375-.796-.375-1.369 0-.56.125-1.01.375-1.35.251-.34.628-.51 1.13-.51zm6.612 4.175c-.721 0-1.28.234-1.678.7-.398.465-.598 1.064-.598 1.798 0 .739.198 1.342.592 1.807.394.466.954.697 1.684.697.725 0 1.287-.231 1.685-.697.399-.47.598-1.072.598-1.807 0-.747-.196-1.35-.59-1.806-.39-.461-.955-.692-1.693-.692zm-24.41.028c.64 0 1.14.193 1.503.578.367.38.551.874.551 1.482 0 .605-.187 1.117-.558 1.537-.372.417-.884.625-1.538.625-.649 0-1.151-.204-1.51-.61-.357-.408-.536-.91-.536-1.51 0-.305.043-.58.132-.827.09-.246.207-.445.35-.598.143-.156.307-.285.49-.388.188-.108.373-.183.557-.223.188-.045.375-.066.558-.066zm24.417.603c.502 0 .875.168 1.122.504.25.331.375.783.375 1.356 0 .56-.125 1.014-.375 1.363-.247.349-.62.523-1.122.523-.5 0-.878-.17-1.128-.51-.251-.344-.375-.803-.375-1.376 0-.56.124-1.008.375-1.348.25-.34.627-.512 1.128-.512z" id="text11719-4" fill="currentColor" fill-opacity=".5" stroke="none"/><rect id="rect6597" width="6" height="145" x="-94" y="50" ry="3" transform="rotate(-90)" rx="3" class="ColorScheme-Text" color="#4d4d4d" opacity=".3" fill="currentColor" fill-opacity="1" stroke="none"/><rect ry="3" y="50" x="-94" height="35" width="6" id="rect6599" transform="rotate(-90)" rx="3" class="ColorScheme-Highlight" color="#3daee9" fill="currentColor" fill-opacity="1" stroke="none"/><rect id="rect6597-4" width="6" height="145" x="-214" y="50" ry="3" transform="rotate(-90)" rx="3" class="ColorScheme-Text" color="#4d4d4d" opacity=".3" fill="currentColor" fill-opacity="1" stroke="none"/><rect ry="3" y="50" x="-214" height="115" width="6" id="rect6599-4" transform="rotate(-90)" rx="3" class="ColorScheme-Highlight" color="#3daee9" fill="currentColor" fill-opacity="1" stroke="none"/></svg>