<svg xmlns="http://www.w3.org/2000/svg" viewBox="0 0 256 256"><defs id="defs4"><style id="current-color-scheme" type="text/css"></style></defs><path d="M16 10h224c3.324 0 6 2.676 6 6v224c0 3.324-2.676 6-6 6H16c-3.324 0-6-2.676-6-6V16c0-3.324 2.676-6 6-6z" id="rect4240" fill="currentColor" fill-opacity=".5" stroke="none" color="#31363b"/><path d="M16 12h224c2.216 0 4 1.784 4 4v224c0 2.216-1.784 4-4 4H16c-2.216 0-4-1.784-4-4V16c0-2.216 1.784-4 4-4z" id="rect4238" fill="currentColor" fill-opacity="1" stroke="none" color="#eff0f1"/><path d="M47.307 61c-4.178 0-7.729 1.26-10.653 3.777-2.924 2.492-5.103 5.965-6.539 10.418C28.705 79.622 28 84.884 28 90.98c0 4.4.378 8.403 1.135 12.008.783 3.579 1.933 6.733 3.447 9.463 1.54 2.704 3.551 4.812 6.031 6.322 2.507 1.485 5.404 2.227 8.694 2.227 3.263 0 6.122-.742 8.576-2.227 2.48-1.51 4.452-3.63 5.914-6.36 1.488-2.731 2.597-5.885 3.328-9.464.731-3.578 1.098-7.568 1.098-11.969 0-4.585-.393-8.694-1.176-12.326-.783-3.658-1.944-6.8-3.484-9.424-1.515-2.65-3.487-4.679-5.915-6.084C53.247 61.716 50.466 61 47.307 61zm162.287 0c-5.117 0-9.281 1.299-12.492 3.896-3.212 2.598-4.817 6.11-4.817 10.538 0 3.393.99 6.321 2.975 8.787 2.01 2.465 4.61 4.228 7.795 5.289-3.838 1.352-6.802 3.365-8.89 6.043-2.063 2.65-3.095 5.923-3.095 9.82 0 3.234.848 6.031 2.545 8.39 1.723 2.36 3.956 4.096 6.698 5.21 2.74 1.113 5.822 1.67 9.242 1.67 5.3 0 9.698-1.339 13.197-4.016 3.498-2.677 5.248-6.43 5.248-11.254 0-3.685-1.07-6.97-3.21-9.86-2.142-2.889-5.013-4.917-8.616-6.083 3.263-1.193 5.835-2.97 7.715-5.328 1.906-2.386 2.857-5.275 2.857-8.668 0-4.454-1.592-7.966-4.777-10.538C218.809 62.3 214.685 61 209.594 61zm-115.332.795c-1.358.954-3.394 1.921-6.11 2.902-2.689.955-5.012 1.632-6.97 2.03v5.248c1.749-.239 3.863-.756 6.343-1.551 2.507-.795 4.582-1.656 6.227-2.584v47.236H79.969v4.772h32.582v-4.772h-12.297V61.795h-5.992zm68.142 0c-1.357.954-3.394 1.921-6.11 2.902-2.688.955-5.012 1.632-6.97 2.03v5.248c1.75-.239 3.864-.756 6.344-1.551 2.506-.795 4.582-1.656 6.227-2.584v47.236h-13.786v4.772h32.582v-4.772h-12.295V61.795h-5.992zm47.15 4.096c3.316 0 5.966.86 7.95 2.584 1.984 1.696 2.976 3.962 2.976 6.798 0 3.128-.912 5.728-2.74 7.795-1.827 2.068-4.556 3.498-8.185 4.293-3.603-.821-6.345-2.252-8.225-4.293-1.854-2.067-2.78-4.667-2.78-7.795 0-2.81 1.006-5.075 3.016-6.798 2.037-1.723 4.7-2.584 7.989-2.584zm-162.247.476c8.302 0 12.453 8.126 12.453 24.375 0 8.191-1.083 14.393-3.25 18.608-2.141 4.188-5.209 6.283-9.203 6.283-4.047 0-7.206-2.108-9.477-6.322-2.245-4.242-3.37-10.418-3.37-18.53-.025-7.766 1.112-13.77 3.41-18.011 2.297-4.268 5.442-6.403 9.437-6.403zM128.37 77.78c-1.54 0-2.727.45-3.562 1.352-.836.875-1.254 1.909-1.254 3.101 0 1.22.418 2.28 1.254 3.182.835.875 2.022 1.313 3.562 1.313s2.716-.438 3.525-1.313c.836-.901 1.254-1.962 1.254-3.182 0-1.192-.418-2.226-1.254-3.101-.809-.901-1.985-1.352-3.525-1.352zm81.184 14.235c3.68.795 6.645 2.306 8.89 4.533 2.272 2.227 3.407 4.957 3.407 8.191 0 7.21-4.1 10.815-12.297 10.815-4.021 0-7.102-.94-9.243-2.823-2.114-1.882-3.171-4.533-3.171-7.953 0-3.34 1.134-6.096 3.406-8.27 2.271-2.173 5.274-3.672 9.008-4.493zm-81.184 19.363c-1.54 0-2.727.438-3.562 1.312-.836.875-1.254 1.922-1.254 3.141 0 1.193.418 2.241 1.254 3.143.835.874 2.022 1.312 3.562 1.312s2.716-.438 3.525-1.312c.836-.902 1.254-1.95 1.254-3.143 0-1.22-.418-2.266-1.254-3.14-.809-.875-1.985-1.313-3.525-1.313zM71.161 156c-2.587 0-4.784.755-6.595 2.266-1.81 1.495-3.16 3.58-4.048 6.252-.873 2.656-1.311 5.812-1.311 9.47 0 2.64.234 5.042.703 7.205.485 2.147 1.197 4.04 2.135 5.678.954 1.622 2.197 2.887 3.732 3.793 1.552.89 3.347 1.336 5.383 1.336 2.02 0 3.79-.445 5.309-1.336 1.535-.906 2.757-2.178 3.662-3.816.921-1.639 1.608-3.531 2.06-5.678.453-2.147.678-4.542.678-7.182 0-2.751-.242-5.217-.726-7.396-.485-2.195-1.205-4.08-2.159-5.654-.937-1.591-2.157-2.806-3.66-3.649-1.487-.859-3.208-1.289-5.164-1.289zm41.02 0c-2.585 0-4.785.755-6.595 2.266-1.81 1.495-3.16 3.58-4.049 6.252-.873 2.656-1.308 5.812-1.308 9.47 0 2.64.234 5.042.703 7.205.485 2.147 1.195 4.04 2.132 5.678.954 1.622 2.2 2.887 3.735 3.793 1.551.89 3.346 1.336 5.383 1.336 2.02 0 3.789-.445 5.308-1.336 1.536-.906 2.755-2.178 3.66-3.816.922-1.639 1.608-3.531 2.06-5.678.454-2.147.68-4.542.68-7.182 0-2.751-.241-5.217-.726-7.396-.485-2.195-1.205-4.08-2.158-5.654-.938-1.591-2.157-2.806-3.66-3.649-1.487-.859-3.209-1.289-5.164-1.289zm29.505 0c-2.263 0-4.267.492-6.012 1.479-1.746.97-3.079 2.275-4 3.914-.921 1.638-1.383 3.458-1.383 5.462 0 1.511.291 2.926.873 4.247.582 1.304 1.358 2.402 2.328 3.293a11.13 11.13 0 0 0 7.418 2.837c1.665 0 3.249-.398 4.752-1.193a384.399 384.399 0 0 0-2.473 3.15L134 191.31h4.752l8.656-11.643a97.822 97.822 0 0 0 2.278-3.174c.533-.78 1.099-1.724 1.697-2.838.598-1.129 1.02-2.227 1.262-3.293a14.54 14.54 0 0 0 .386-3.435c0-1.432-.249-2.8-.75-4.104a10.821 10.821 0 0 0-2.158-3.482c-.937-1.018-2.133-1.83-3.588-2.434-1.454-.604-3.072-.906-4.85-.906zm-99.836.477c-.84.572-2.103 1.153-3.784 1.742-1.664.572-3.102.978-4.314 1.217v3.148c1.083-.143 2.392-.453 3.928-.93 1.551-.477 2.835-.994 3.853-1.55v28.341H33v2.864h20.172v-2.864h-7.613v-31.968h-3.71zm140.42 0c-.84.572-2.1 1.153-3.782 1.742-1.664.572-3.104.978-4.316 1.217v3.148c1.083-.143 2.392-.453 3.928-.93 1.551-.477 2.837-.994 3.855-1.55v28.341h-8.533v2.864h20.17v-2.864h-7.613v-31.968h-3.71zm20.607 0l-.678 18.441 3.248.383c.744-.78 1.681-1.4 2.813-1.862a9.162 9.162 0 0 1 3.49-.69c1.632 0 2.999.356 4.098 1.071 1.099.7 1.883 1.608 2.351 2.721.469 1.097.703 2.354.703 3.77 0 2.576-.727 4.58-2.181 6.011-1.439 1.416-3.37 2.123-5.795 2.123-2.716 0-5.633-.866-8.752-2.6l-1.381 3.077c3.507 1.924 6.974 2.887 10.4 2.887 1.665 0 3.209-.246 4.631-.739 1.423-.493 2.666-1.21 3.733-2.148 1.083-.954 1.923-2.171 2.521-3.65.614-1.496.922-3.173.922-5.034 0-1.956-.405-3.722-1.213-5.297-.792-1.59-2.004-2.87-3.637-3.84-1.632-.986-3.555-1.478-5.77-1.478-2.424 0-4.58.628-6.472 1.885l.389-11.881h14.885l.314-3.15h-18.62zm-61.07 2.648c2.343 0 4.162.725 5.455 2.172 1.293 1.447 1.94 3.236 1.94 5.367 0 1.082-.171 2.068-.51 2.959-.324.875-.743 1.59-1.26 2.147a7.66 7.66 0 0 1-1.795 1.382 8.26 8.26 0 0 1-2.035.787 9.394 9.394 0 0 1-1.989.215c-2.311 0-4.122-.675-5.431-2.027-1.31-1.368-1.963-3.141-1.963-5.32 0-2.147.67-3.96 2.011-5.44 1.358-1.495 3.217-2.242 5.577-2.242zm-70.647.096c5.14 0 7.71 4.875 7.71 14.625 0 4.914-.671 8.635-2.013 11.164-1.325 2.513-3.224 3.77-5.697 3.77-2.505 0-4.46-1.265-5.867-3.794-1.39-2.544-2.086-6.25-2.086-11.117-.016-4.66.687-8.262 2.11-10.806 1.422-2.561 3.37-3.842 5.843-3.842zm41.022 0c5.14 0 7.709 4.875 7.709 14.625 0 4.914-.67 8.635-2.012 11.164-1.325 2.513-3.224 3.77-5.697 3.77-2.506 0-4.461-1.265-5.868-3.794-1.39-2.544-2.085-6.25-2.085-11.117-.017-4.66.687-8.262 2.109-10.806 1.422-2.561 3.37-3.842 5.844-3.842zM91.84 186.369c-.857 0-1.51.255-1.963.764-.453.509-.68 1.122-.68 1.838 0 .7.227 1.31.68 1.836.469.509 1.122.763 1.963.763.84 0 1.48-.254 1.916-.763.452-.51.678-1.12.678-1.836s-.226-1.33-.678-1.838c-.437-.51-1.076-.764-1.916-.764zm70.21 0c-.856 0-1.512.255-1.964.764-.453.509-.678 1.122-.678 1.838 0 .7.225 1.31.678 1.836.469.509 1.124.763 1.965.763.84 0 1.48-.254 1.916-.763.452-.51.678-1.12.678-1.836s-.226-1.33-.678-1.838c-.437-.51-1.076-.764-1.916-.764z" id="path8048" fill="currentColor" fill-opacity="1" stroke="none" color="#4d4d4d"/></svg>