<svg width="22" xmlns="http://www.w3.org/2000/svg" height="22"><defs><linearGradient id="b" y2="5" gradientUnits="userSpaceOnUse" y1="12" gradientTransform="scale(-1 1) rotate(-38.4 -.935 44.523)" x2="19" x1="7"><stop stop-opacity=".5" stop-color="#d3dae3" offset="0"/><stop stop-opacity="0" stop-color="#d3dae3" offset="1"/></linearGradient><linearGradient id="a" y2="12" gradientUnits="userSpaceOnUse" y1="12" gradientTransform="scale(1 -1) rotate(-38.4 -21.524 1.935)" x2="17" x1="7"><stop stop-color="#d3dae3" offset="0"/><stop stop-color="#d3dae3" stop-opacity=".5" offset="1"/></linearGradient></defs><path d="M6.213 6.273c-.248.011-.497.125-.7.38a7 7 0 0 0 1.14 9.833A6.964 6.964 0 0 0 12 17.92v-2.025a4.986 4.986 0 0 1-4.106-.975 5.001 5.001 0 0 1-.812-7.025c.606-.765-.126-1.654-.87-1.622z" fill="url(#a)"/><path d="M10.867 4.002a6.99 6.99 0 0 0-5.353 2.65l1.568 1.243a4.999 4.999 0 0 1 7.023-.813 4.967 4.967 0 0 1 1.879 3.92L16 11a2.92 2.92 0 0 1 1.939.752c.249-2.308-.638-4.688-2.591-6.236a6.968 6.968 0 0 0-4.481-1.514z" fill="url(#b)"/><path d="M16 12c-1.108 0-2 .91-2 2.031V15h-1v4h6v-4h-1v-.969c0-1.12-.892-2.03-2-2.03zm0 1c.554 0 1 .442 1 1v1h-2v-1c0-.558.446-1 1-1z" fill="#d3dae3"/></svg>