<svg width="22" xmlns="http://www.w3.org/2000/svg" height="22"><defs><linearGradient id="b" x1="7" gradientUnits="userSpaceOnUse" x2="19" gradientTransform="scale(1 -1) rotate(-38.5 -21.43 1.931)" y1="12" y2="5"><stop stop-opacity=".5" stop-color="#d3dae3" offset="0"/><stop stop-opacity="0" stop-color="#d3dae3" offset="1"/></linearGradient><linearGradient id="a" x1="7" gradientUnits="userSpaceOnUse" x2="17" gradientTransform="scale(-1 1) rotate(-38.5 -.932 44.432)" y1="12" y2="12"><stop stop-color="#d3dae3" offset="0"/><stop stop-color="#d3dae3" stop-opacity=".5" offset="1"/></linearGradient></defs><path d="M10.879 4.002a6.987 6.987 0 0 0-5.357 2.64l1.566 1.245a5 5 0 0 1 7.025-.8 4.967 4.967 0 0 1 1.873 3.915L16 11a2.92 2.92 0 0 1 1.941.752c.249-2.305-.635-4.68-2.584-6.23a6.963 6.963 0 0 0-4.478-1.52z" fill="url(#a)"/><path d="M5.521 6.643a7 7 0 0 0 1.122 9.836A6.967 6.967 0 0 0 12 17.918v-2.022a4.983 4.983 0 0 1-4.111-.982 5.002 5.002 0 0 1-.801-7.027L5.522 6.643z" fill="url(#b)"/><path d="M16 12c-1.108 0-2 .91-2 2.031V15h-1v4h6v-4h-1v-.969c0-1.12-.892-2.03-2-2.03zm0 1c.554 0 1 .442 1 1v1h-2v-1c0-.558.446-1 1-1z" fill="#d3dae3"/></svg>