<svg width="22" xmlns="http://www.w3.org/2000/svg" height="22"><defs><linearGradient id="b" y2="5" gradientUnits="userSpaceOnUse" y1="12" gradientTransform="scale(-1 1) rotate(38.7 1.923 -21.248)" x2="19" x1="7"><stop stop-opacity=".5" stop-color="#d3dae3" offset="0"/><stop stop-opacity="0" stop-color="#d3dae3" offset="1"/></linearGradient><linearGradient id="a" y2="12" gradientUnits="userSpaceOnUse" y1="12" gradientTransform="scale(1 -1) rotate(38.7 44.247 -.923)" x2="17" x1="7"><stop stop-color="#d3dae3" offset="0"/><stop stop-color="#d3dae3" stop-opacity=".5" offset="1"/></linearGradient></defs><path d="M16.463 6.623l-1.561 1.252c.74.924 1.074 2.029 1.073 3.127L16 11c.751 0 1.426.293 1.949.758a6.962 6.962 0 0 0-1.486-5.135zM6.397 13.752c-.744-.029-1.469.864-.86 1.625 1.608 2.006 4.091 2.871 6.464 2.529v-2.031c-1.778.364-3.69-.234-4.903-1.748a.932.932 0 0 0-.701-.375z" fill="url(#a)"/><path d="M11.098 4a7 7 0 0 0-5.56 11.377l1.56-1.25a5.001 5.001 0 0 1 7.804-6.254l1.561-1.25A6.987 6.987 0 0 0 11.098 4z" fill="url(#b)"/><path d="M16 12c-1.108 0-2 .91-2 2.031V15h-1v4h6v-4h-1v-.969c0-1.12-.892-2.03-2-2.03zm0 1c.554 0 1 .442 1 1v1h-2v-1c0-.558.446-1 1-1z" fill="#d3dae3"/></svg>