<?xml version="1.0" encoding="UTF-8" standalone="no"?>
<svg
   xmlns:dc="http://purl.org/dc/elements/1.1/"
   xmlns:cc="http://creativecommons.org/ns#"
   xmlns:rdf="http://www.w3.org/1999/02/22-rdf-syntax-ns#"
   xmlns:svg="http://www.w3.org/2000/svg"
   xmlns="http://www.w3.org/2000/svg"
   xmlns:xlink="http://www.w3.org/1999/xlink"
   xmlns:sodipodi="http://sodipodi.sourceforge.net/DTD/sodipodi-0.dtd"
   xmlns:inkscape="http://www.inkscape.org/namespaces/inkscape"
   width="32"
   height="32"
   version="1"
   id="svg16"
   sodipodi:docname="folder-meocloud.svg"
   inkscape:version="0.92.4 5da689c313, 2019-01-14">
  <metadata
     id="metadata22">
    <rdf:RDF>
      <cc:Work
         rdf:about="">
        <dc:format>image/svg+xml</dc:format>
        <dc:type
           rdf:resource="http://purl.org/dc/dcmitype/StillImage" />
      </cc:Work>
    </rdf:RDF>
  </metadata>
  <defs
     id="defs20">
    <linearGradient
       inkscape:collect="always"
       id="linearGradient820">
      <stop
         style="stop-color:#ff3f68;stop-opacity:1"
         offset="0"
         id="stop816" />
      <stop
         style="stop-color:#ffa687;stop-opacity:1"
         offset="1"
         id="stop818" />
    </linearGradient>
    <linearGradient
       inkscape:collect="always"
       xlink:href="#linearGradient820"
       id="linearGradient822"
       x1="16.901945"
       y1="28.474577"
       x2="16.873501"
       y2="6.7341037"
       gradientUnits="userSpaceOnUse" />
    <linearGradient
       gradientTransform="translate(0.0013488,-0.0581681)"
       inkscape:collect="always"
       xlink:href="#linearGradient990"
       id="linearGradient829-3"
       x1="16.87215"
       y1="28.452196"
       x2="16.87215"
       y2="6.7922716"
       gradientUnits="userSpaceOnUse" />
    <linearGradient
       id="linearGradient990"
       inkscape:collect="always">
      <stop
         id="stop986"
         offset="0"
         style="stop-color:#ff3f68;stop-opacity:1" />
      <stop
         id="stop988"
         offset="1"
         style="stop-color:#ff713f;stop-opacity:1" />
    </linearGradient>
    <linearGradient
       inkscape:collect="always"
       xlink:href="#linearGradient889"
       id="linearGradient891"
       x1="-34.169491"
       y1="21.288134"
       x2="-13.152541"
       y2="7.4576254"
       gradientUnits="userSpaceOnUse"
       gradientTransform="matrix(1.2926751,0,0,1.5798246,46.671882,-6.634522)" />
    <linearGradient
       inkscape:collect="always"
       id="linearGradient889">
      <stop
         style="stop-color:#8998ad;stop-opacity:1"
         offset="0"
         id="stop885" />
      <stop
         style="stop-color:#f6e4dc;stop-opacity:1"
         offset="1"
         id="stop887" />
    </linearGradient>
  </defs>
  <sodipodi:namedview
     pagecolor="#ffffff"
     bordercolor="#666666"
     borderopacity="1"
     objecttolerance="10"
     gridtolerance="10"
     guidetolerance="10"
     inkscape:pageopacity="0"
     inkscape:pageshadow="2"
     inkscape:window-width="930"
     inkscape:window-height="676"
     id="namedview18"
     showgrid="false"
     inkscape:zoom="12.40625"
     inkscape:cx="16"
     inkscape:cy="16"
     inkscape:window-x="456"
     inkscape:window-y="74"
     inkscape:window-maximized="0"
     inkscape:current-layer="svg16" />
  <path
     style="fill:url(#linearGradient822);fill-opacity:1;stroke:none;stroke-width:0.14515875;stroke-miterlimit:4;stroke-dasharray:none;stroke-opacity:1"
     d="m 27.90368,6.7271305 c 1.168734,-7.39e-4 2.109629,0.940894 2.109629,2.10963 V 26.447279 c 0,1.168735 -0.940895,2.109629 -2.109629,2.109629 H 4.09632 c -1.168734,0 -2.109682,-0.940894 -2.109629,-2.109629 l 7.31e-4,-16.244506 7.31e-4,-5.0669085 c 0,-0.937796 0.754977,-1.692773 1.692774,-1.692773 h 9.09082 c 0.937797,0 1.704839,0.371321 2.299888,1.096152 l 1.801865,2.19486 z"
     id="rect4549-3"
     inkscape:connector-curvature="0"
     sodipodi:nodetypes="sssssscsssscs" />
  <rect
     style="opacity:1;vector-effect:none;fill:url(#linearGradient891);fill-opacity:1;fill-rule:nonzero;stroke:none;stroke-width:0.20743993;stroke-linecap:butt;stroke-linejoin:miter;stroke-miterlimit:4;stroke-dasharray:none;stroke-dashoffset:0;stroke-opacity:1;paint-order:markers stroke fill"
     id="rect883"
     width="27.168089"
     height="21.849777"
     x="2.5018301"
     y="5.1472187"
     transform="matrix(0.99999999,1.0125852e-4,-6.7794228e-5,1,0,0)"
     inkscape:transform-center-x="4.8282266"
     inkscape:transform-center-y="-6.7305722" />
  <path
     style="fill:url(#linearGradient829-3);fill-opacity:1;stroke:none;stroke-width:0.1;stroke-miterlimit:4;stroke-dasharray:none;stroke-opacity:1"
     d="m 27.90368,6.7271305 c 1.168734,-7.388e-4 2.109629,0.9408941 2.109629,2.1096297 V 26.44728 c 0,1.168735 -0.940895,2.109629 -2.109629,2.109629 H 4.096321 c -1.168735,0 -2.109682,-0.940894 -2.10963,-2.109629 L 1.987422,10.202773 2.100381,5.9214581 C 2.125111,4.9839874 2.743131,4.4531403 3.680927,4.4531403 h 8.978592 c 0.937797,0 1.827453,0.1319292 2.524344,0.7594692 l 1.689637,1.521494 z"
     id="rect4549-9"
     inkscape:connector-curvature="0"
     sodipodi:nodetypes="sssssscsssscs" />
  <path
     style="opacity:1;fill:#f6e4dc;fill-opacity:1"
     d="m 17.2,13.627118 c -1.202,0 -2.303,0.676 -2.848,1.748 -0.239,-0.097 -0.495,-0.148 -0.752,-0.148 -1.001,0 -1.845,0.741 -1.979,1.732 -0.968,0.333 -1.62,1.244 -1.621,2.268 0,1.325 1.075,2.4 2.4,2.4 h 7.2 c 1.325,0 2.4,-1.075 2.4,-2.4 -0.001,-1.019 -0.644,-1.925 -1.605,-2.262 0.003,-0.046 0.004,-0.093 0.005,-0.139 0,-1.767 -1.433,-3.199 -3.2,-3.199 z m -10e-4,2 c 0.685,0 1.197,0.511 1.199,1.195 v 0.006 c -0.061,0.898 0.485,1.726 1.334,2.024 0.167,0.058 0.267,0.199 0.268,0.375 0,0.244 -0.156,0.4 -0.4,0.4 h -7.2 c -0.244,0 -0.399,-0.155 -0.4,-0.398 v -0.002 c 10e-4,-0.178 0.102,-0.318 0.27,-0.375 0.715,-0.246 1.23,-0.874 1.332,-1.623 0.962,0.39 2.062,-0.021 2.533,-0.946 0.206,-0.406 0.612,-0.656 1.064,-0.656 z"
     id="path14"
     inkscape:connector-curvature="0" />
</svg>
