<?xml version="1.0" encoding="UTF-8" standalone="no"?>
<svg
   xmlns:dc="http://purl.org/dc/elements/1.1/"
   xmlns:cc="http://creativecommons.org/ns#"
   xmlns:rdf="http://www.w3.org/1999/02/22-rdf-syntax-ns#"
   xmlns:svg="http://www.w3.org/2000/svg"
   xmlns="http://www.w3.org/2000/svg"
   xmlns:xlink="http://www.w3.org/1999/xlink"
   xmlns:sodipodi="http://sodipodi.sourceforge.net/DTD/sodipodi-0.dtd"
   xmlns:inkscape="http://www.inkscape.org/namespaces/inkscape"
   width="32"
   height="32"
   version="1"
   id="svg12"
   sodipodi:docname="network-workgroup.svg"
   inkscape:version="0.92.4 5da689c313, 2019-01-14">
  <metadata
     id="metadata18">
    <rdf:RDF>
      <cc:Work
         rdf:about="">
        <dc:format>image/svg+xml</dc:format>
        <dc:type
           rdf:resource="http://purl.org/dc/dcmitype/StillImage" />
      </cc:Work>
    </rdf:RDF>
  </metadata>
  <defs
     id="defs16">
    <linearGradient
       inkscape:collect="always"
       id="linearGradient818">
      <stop
         style="stop-color:#ff3f68;stop-opacity:1"
         offset="0"
         id="stop814" />
      <stop
         style="stop-color:#ffa687;stop-opacity:1"
         offset="1"
         id="stop816" />
    </linearGradient>
    <linearGradient
       inkscape:collect="always"
       xlink:href="#linearGradient818"
       id="linearGradient820"
       x1="16.901945"
       y1="28.61017"
       x2="16.873501"
       y2="6.7341037"
       gradientUnits="userSpaceOnUse" />
    <linearGradient
       gradientTransform="translate(0.001349,-0.0581674)"
       inkscape:collect="always"
       xlink:href="#linearGradient990"
       id="linearGradient829-3"
       x1="16.87215"
       y1="28.452196"
       x2="16.87215"
       y2="6.7922716"
       gradientUnits="userSpaceOnUse" />
    <linearGradient
       id="linearGradient990"
       inkscape:collect="always">
      <stop
         id="stop986"
         offset="0"
         style="stop-color:#ff3f68;stop-opacity:1" />
      <stop
         id="stop988"
         offset="1"
         style="stop-color:#ff713f;stop-opacity:1" />
    </linearGradient>
    <linearGradient
       inkscape:collect="always"
       xlink:href="#linearGradient889"
       id="linearGradient891"
       x1="-34.169491"
       y1="21.288134"
       x2="-13.152541"
       y2="7.4576254"
       gradientUnits="userSpaceOnUse"
       gradientTransform="matrix(1.2926751,0,0,1.5798246,46.671882,-6.6345211)" />
    <linearGradient
       inkscape:collect="always"
       id="linearGradient889">
      <stop
         style="stop-color:#8998ad;stop-opacity:1"
         offset="0"
         id="stop885" />
      <stop
         style="stop-color:#f6e4dc;stop-opacity:1"
         offset="1"
         id="stop887" />
    </linearGradient>
  </defs>
  <sodipodi:namedview
     pagecolor="#ffffff"
     bordercolor="#666666"
     borderopacity="1"
     objecttolerance="10"
     gridtolerance="10"
     guidetolerance="10"
     inkscape:pageopacity="0"
     inkscape:pageshadow="2"
     inkscape:window-width="1088"
     inkscape:window-height="749"
     id="namedview14"
     showgrid="false"
     inkscape:zoom="14.6875"
     inkscape:cx="16"
     inkscape:cy="16"
     inkscape:window-x="452"
     inkscape:window-y="65"
     inkscape:window-maximized="0"
     inkscape:current-layer="svg12" />
  <path
     style="fill:url(#linearGradient820);fill-opacity:1;stroke:none;stroke-width:0.14515875;stroke-miterlimit:4;stroke-dasharray:none;stroke-opacity:1"
     d="m 27.90368,6.7271307 c 1.168734,-7.388e-4 2.109629,0.9408941 2.109629,2.1096297 V 26.447279 c 0,1.168735 -0.940895,2.109629 -2.109629,2.109629 H 4.09632 c -1.168734,0 -2.109682,-0.940894 -2.109629,-2.109629 l 7.31e-4,-16.244506 7.31e-4,-5.0669078 c 0,-0.9377965 0.754977,-1.6927733 1.692774,-1.6927733 h 9.09082 c 0.937797,0 1.704839,0.3713212 2.299888,1.096152 L 16.8735,6.7341037 Z"
     id="rect4549-3"
     inkscape:connector-curvature="0"
     sodipodi:nodetypes="sssssscsssscs" />
  <rect
     style="opacity:1;vector-effect:none;fill:url(#linearGradient891);fill-opacity:1;fill-rule:nonzero;stroke:none;stroke-width:0.20743993;stroke-linecap:butt;stroke-linejoin:miter;stroke-miterlimit:4;stroke-dasharray:none;stroke-dashoffset:0;stroke-opacity:1;paint-order:markers stroke fill"
     id="rect883"
     width="27.168089"
     height="21.849777"
     x="2.5018303"
     y="5.1472187"
     transform="matrix(0.99999999,1.0125852e-4,-6.7794228e-5,1,0,0)"
     inkscape:transform-center-x="4.8282266"
     inkscape:transform-center-y="-6.7305722" />
  <path
     style="fill:url(#linearGradient829-3);fill-opacity:1;stroke:none;stroke-width:0.1;stroke-miterlimit:4;stroke-dasharray:none;stroke-opacity:1"
     d="m 27.90368,6.7271307 c 1.168734,-7.388e-4 2.109629,0.9408941 2.109629,2.1096297 V 26.447281 c 0,1.168735 -0.940895,2.109629 -2.109629,2.109629 H 4.096321 c -1.168735,0 -2.109682,-0.940894 -2.10963,-2.109629 L 1.987422,10.202773 2.100381,5.9214583 C 2.125111,4.9839876 2.743131,4.4531405 3.680927,4.4531405 h 8.978592 c 0.937797,0 1.827453,0.1319292 2.524344,0.7594692 l 1.689637,1.521494 z"
     id="rect4549-9"
     inkscape:connector-curvature="0"
     sodipodi:nodetypes="sssssscsssscs" />
  <path
     inkscape:connector-curvature="0"
     style="fill:#f6e4dc;fill-opacity:1;stroke-width:0.05255512"
     d="m 13.43142,15.543829 c 0.108683,0 0.214109,0.01581 0.313018,0.04668 0.374981,-0.420061 0.790955,-0.802646 1.24067,-1.141212 -0.01902,-0.07938 -0.02933,-0.162531 -0.02933,-0.247293 0,-0.117953 0.01955,-0.231507 0.05544,-0.337462 -0.504844,-0.360829 -1.05268,-0.664569 -1.636567,-0.898685 -0.546153,0.337467 -1.022776,0.777645 -1.403168,1.293951 0.282061,0.499977 0.617363,0.965717 0.999071,1.38962 0.139114,-0.06736 0.295097,-0.105601 0.460857,-0.105601 m -1.064084,1.063478 c 0,-0.149468 0.03153,-0.291821 0.0864,-0.420074 C 12.112436,15.81113 11.803202,15.406829 11.532595,14.975854 11.19293,15.650814 11,16.41326 11,17.220821 c 0,0.934184 0.257573,1.808586 0.703767,2.556911 0.159768,-0.89868 0.462485,-1.74957 0.880403,-2.527911 -0.135855,-0.178266 -0.216842,-0.401595 -0.216842,-0.642359 m 3.652053,-3.468621 c 0.280965,0 0.535265,0.109213 0.726048,0.287479 0.554886,-0.238591 1.139098,-0.422062 1.746934,-0.539134 -0.734199,-0.423583 -1.58506,-0.666299 -2.492679,-0.666299 -0.619001,0 -1.211404,0.113592 -1.758608,0.319509 0.434211,0.214713 0.84824,0.464664 1.237411,0.747243 0.158714,-0.09451 0.342917,-0.148899 0.540746,-0.148899 m 1.59032,5.010138 c 0.06631,-0.138085 0.160278,-0.260339 0.276586,-0.356496 -0.314123,-0.965735 -0.811392,-1.849969 -1.452088,-2.610209 -0.127189,0.05432 -0.267344,0.08366 -0.415194,0.08366 -0.230984,0 -0.443459,-0.07446 -0.617889,-0.19833 -0.385859,0.292942 -0.743129,0.621125 -1.067343,0.979824 0.102168,0.162486 0.161398,0.35432 0.161398,0.560306 0,0.110315 -0.01682,0.21735 -0.04893,0.318473 0.933116,0.62281 2.007589,1.051061 3.163308,1.222777 m 1.379573,1.43631 c 0.01389,0.201592 0.02227,0.404298 0.02227,0.609203 0,0.360859 -0.02282,0.716246 -0.06631,1.065757 0.847698,-0.619009 1.493385,-1.49885 1.818932,-2.521127 -0.385873,0.09351 -0.781491,0.160307 -1.185291,0.198386 -0.09402,0.291798 -0.31087,0.526578 -0.589599,0.647781 m -1.628744,-0.721167 c -1.234747,-0.204846 -2.378654,-0.676064 -3.374575,-1.349945 -0.161975,0.0989 -0.351593,0.157057 -0.554875,0.157057 -0.07552,0 -0.147838,-0.0076 -0.218472,-0.02249 -0.476677,0.90341 -0.781497,1.911422 -0.868948,2.980293 0.476151,0.510814 1.056358,0.922201 1.709146,1.198279 0.810821,-1.24612 1.94338,-2.276682 3.307987,-2.963569 m 1.995527,-5.349053 c -0.80159,0.07772 -1.566798,0.279315 -2.278803,0.580184 0.0031,0.03584 0.0056,0.07123 0.0056,0.107073 0,0.167916 -0.04022,0.326066 -0.109227,0.466863 0.712449,0.836365 1.264489,1.809678 1.613514,2.875401 0.433108,0.0089 0.802659,0.272815 0.961904,0.649424 0.481532,-0.04895 0.950196,-0.141343 1.401032,-0.27396 0.0326,-0.228224 0.04999,-0.461881 0.04999,-0.699365 -6.12e-4,-1.4695 -0.634344,-2.791216 -1.643923,-3.705699 m -1.460261,5.917195 c -1.273936,0.596701 -2.339019,1.515695 -3.110213,2.638803 0.38854,0.09729 0.79516,0.149483 1.214016,0.149483 0.753749,0 1.468395,-0.167952 2.109564,-0.466858 0.103271,-0.504341 0.157625,-1.025528 0.157625,-1.559135 0,-0.192954 -0.0087,-0.384219 -0.02339,-0.573343 -0.128239,-0.04125 -0.246163,-0.10492 -0.347798,-0.189156"
     id="path20-2" />
</svg>
