<svg xmlns="http://www.w3.org/2000/svg" width="22" height="22"><defs><style id="current-color-scheme" type="text/css">.ColorScheme-Text{color:#d3dae3}</style></defs><path class="ColorScheme-Text" d="M14 15v1c0 .276.1.538.281.719l.781.781-.78.781A1.015 1.015 0 0 0 14 19v1h1c.276 0 .538-.1.719-.281l.781-.782.781.782c.181.18.443.281.719.281h1v-1c0-.276-.1-.538-.281-.719l-.782-.781.782-.781c.18-.181.281-.443.281-.719v-1h-1c-.276 0-.538.1-.719.281l-.781.781-.781-.78A1.015 1.015 0 0 0 15 15h-1zM11.031 5C7.997 5 5.265 6.272 3 8.016L11.031 17 19 7.984C16.743 6.259 14.042 5 11.031 5z" fill="currentColor"/></svg>