<svg xmlns="http://www.w3.org/2000/svg" width="22" height="22"><defs><style id="current-color-scheme" type="text/css"></style></defs><path d="M19.22 3.13a.502.502 0 0 0-.187.156l-.5.5-.157-.156-6 6 .157.156-.5.5-.032.719.72-.031.5-.5.155.156 6-6-.156-.156.5-.5c.293-.299-.025-.911-.437-.844a.651.651 0 0 0-.063 0zM5 5c-.554 0-1 .446-1 1v9c0 .554.446 1 1 1h12c.554 0 1-.446 1-1V7.437l-3.906 3.907-.719.687-.156-.156-.063.062-.406.032-.719.03-1.062.032.031-1.062.031-.72.031-.405.063-.063-.156-.156.687-.719L15.562 5H5zM4 16v1c0 .554.446 1 1 1h12c.554 0 1-.446 1-1v-1c0 .554-.446 1-1 1H5c-.554 0-1-.446-1-1z" fill="currentColor" color="#d3dae3"/></svg>