<svg xmlns="http://www.w3.org/2000/svg" width="22" height="22" version="1"><defs><style id="current-color-scheme" type="text/css"></style></defs><path d="M11 3a8 8 0 0 0-8 8 8 8 0 0 0 8 8 8 8 0 0 0 8-8 8 8 0 0 0-8-8zm1 2h1v4.504A2.5 2.5 0 0 1 14.5 9a2.5 2.5 0 0 1 2.5 2.5 2.5 2.5 0 0 1-2.5 2.5 2.5 2.5 0 0 1-1.5-.502V14h-1V5zM7.5 9a2.5 2.5 0 0 1 1.5.502V9h1v9H9v-4.504A2.5 2.5 0 0 1 7.5 14 2.5 2.5 0 0 1 5 11.5 2.5 2.5 0 0 1 7.5 9zm0 1A1.5 1.5 0 0 0 6 11.5 1.5 1.5 0 0 0 7.5 13 1.5 1.5 0 0 0 9 11.5 1.5 1.5 0 0 0 7.5 10zm7 0a1.5 1.5 0 0 0-1.5 1.5 1.5 1.5 0 0 0 1.5 1.5 1.5 1.5 0 0 0 1.5-1.5 1.5 1.5 0 0 0-1.5-1.5z" fill="currentColor" color="#d3dae3"/></svg>