<svg xmlns="http://www.w3.org/2000/svg" height="32" width="32" version="1"><g transform="translate(55.322 -6.508)"><rect ry="5.575" y="8.407" x="-53.424" height="28.203" width="28.203" fill="#b22736" fill-rule="evenodd"/><g fill="#fff"><path d="M-39.322 13.524c2.24 0 4.054 1.905 4.054 4.256 0 2.35-1.815 4.256-4.054 4.256-2.24 0-4.054-1.906-4.054-4.256 0-2.35 1.815-4.256 4.054-4.256zM-39.322 24.4c8.108-.004 8.108 5.675 8.108 5.675v1.418H-47.43v-1.418s0-5.67 8.108-5.675z"/></g><path d="M-29.068 22.91a3.434 3.434 0 0 0-3.433-3.434 3.434 3.434 0 0 0-3.434 3.433 3.434 3.434 0 0 0 2.146 3.18v1.97h-1.287v2.147h1.287v1.287h2.575v-5.402a3.434 3.434 0 0 0 2.146-3.182zm-2.146 0a1.288 1.288 0 0 1-1.287 1.287 1.288 1.288 0 0 1-1.288-1.288 1.288 1.288 0 0 1 1.288-1.287 1.288 1.288 0 0 1 1.287 1.287z" fill="#710000"/></g></svg>