<svg xmlns="http://www.w3.org/2000/svg" height="32" width="32" version="1"><rect width="28.203" height="28.203" x="1.898" y="1.898" ry="5.575" fill="#64db2d" fill-rule="evenodd"/><g style="line-height:1.25"><path d="M18.51 16.05q-1.64 1.167-1.84 3.155h-2.36v-.174q0-2.51 1.715-3.925 1.043-.87 1.168-.994.571-.646.571-1.416 0-1.466-1.714-1.466-1.963 0-3.255 1.242l-1.242-1.913Q13.043 8.894 16 8.894q1.888 0 3.08.87 1.367.969 1.367 2.783 0 1.341-.447 2.087-.373.646-1.49 1.416zm-3.032 7.056q-.571 0-.994-.398-.397-.422-.397-.994 0-.571.397-.969.423-.422.994-.422.572 0 .97.422.422.398.422.97 0 .57-.423.993-.397.398-.969.398z" style="-inkscape-font-specification:'Blue Highway'" font-family="Blue Highway" aria-label="?" font-weight="400" font-size="28.637" letter-spacing="0" word-spacing="0" fill="#fff" stroke-width="1.153"/></g></svg>