<svg xmlns="http://www.w3.org/2000/svg" height="32" width="32" version="1"><rect width="28.203" height="28.203" x="1.898" y="1.898" ry="5.575" fill="#ffd453" fill-rule="evenodd"/><g style="line-height:1.25"><path style="line-height:1.25;-inkscape-font-specification:'Bitstream Charter';font-variant-ligatures:normal;font-variant-position:normal;font-variant-caps:normal;font-variant-numeric:normal;font-variant-alternates:normal;font-feature-settings:normal;text-indent:0;text-align:start;text-decoration-line:none;text-decoration-style:solid;text-decoration-color:#000;text-transform:none;text-orientation:mixed;white-space:normal;shape-padding:0;isolation:auto;mix-blend-mode:normal;solid-color:#000;solid-opacity:1" d="M16 8.263c-.506 0-1.015.206-1.322.606-.308.399-.415.906-.415 1.48 0 .375.023.785.065 1.251l-.002-.01.62 7.676h2.109l.617-7.677c.041-.583.064-.976.064-1.24 0-.565-.107-1.07-.412-1.47-.305-.4-.814-.616-1.325-.616zm0 11.918c-.964 0-1.778.79-1.778 1.777 0 .986.814 1.779 1.777 1.779.986 0 1.779-.816 1.779-1.78 0-.973-.805-1.776-1.779-1.776z" color="#000" font-size="medium" font-family="Bitstream Charter" overflow="visible" stroke="none" aria-label="!" font-weight="400" letter-spacing="0" word-spacing="0" fill="#fff" stroke-width="1.627"/></g></svg>