<svg xmlns="http://www.w3.org/2000/svg" height="32" width="32" version="1"><rect width="28.203" height="28.203" x="1.898" y="1.898" ry="5.575" fill="#30a3db" fill-rule="evenodd"/><rect ry="5.575" y="1.898" x="1.898" height="28.203" width="28.203" fill="#3fb7ff" fill-rule="evenodd"/><path style="line-height:1.25;font-variant-ligatures:normal;font-variant-position:normal;font-variant-caps:normal;font-variant-numeric:normal;font-variant-alternates:normal;font-feature-settings:normal;text-indent:0;text-align:start;text-decoration-line:none;text-decoration-style:solid;text-decoration-color:#000;text-transform:none;text-orientation:mixed;white-space:normal;shape-padding:0;isolation:auto;mix-blend-mode:normal;solid-color:#000;solid-opacity:1" d="M15.729 7.985a1.77 1.77 0 0 0-1.24.524l-.004.002-.004.004c-.314.327-.501.781-.501 1.237 0 .459.188.92.509 1.244l.002.002.004.004c.326.32.78.507 1.234.507.454 0 .91-.188 1.232-.513.321-.324.507-.785.507-1.244 0-.46-.194-.913-.515-1.239a1.731 1.731 0 0 0-1.224-.528zm-2.958 4.338v2.352h1.703v6.998H12.77v2.342h6.458v-2.342h-1.683v-9.35z" color="#000" font-weight="400" font-size="19.909" font-family="sans-serif" letter-spacing="0" word-spacing="0" overflow="visible" fill="#fff"/></svg>