<svg xmlns="http://www.w3.org/2000/svg" height="32" width="32" version="1"><rect width="28.203" height="28.203" x="1.898" y="1.898" ry="5.575" fill="#db3c30" fill-rule="evenodd"/><g style="line-height:1.25"><path style="line-height:1.25;-inkscape-font-specification:'Bitstream Charter';font-variant-ligatures:normal;font-variant-position:normal;font-variant-caps:normal;font-variant-numeric:normal;font-variant-alternates:normal;font-feature-settings:normal;text-indent:0;text-align:start;text-decoration-line:none;text-decoration-style:solid;text-decoration-color:#000;text-transform:none;text-orientation:mixed;white-space:normal;shape-padding:0;isolation:auto;mix-blend-mode:normal;solid-color:#000;solid-opacity:1" d="M15.999 7.012c-.587 0-1.178.24-1.535.703-.358.464-.483 1.053-.483 1.72 0 .435.027.911.077 1.454l-.002-.012.718 8.917h2.452l.716-8.919c.049-.677.075-1.134.075-1.44 0-.657-.125-1.244-.479-1.708-.354-.465-.946-.715-1.539-.715zm0 13.845a2.075 2.075 0 0 0-2.064 2.065c0 1.146.945 2.066 2.064 2.066a2.078 2.078 0 0 0 2.066-2.066A2.078 2.078 0 0 0 16 20.857z" color="#000" font-size="medium" font-family="Bitstream Charter" overflow="visible" stroke="none" aria-label="!" font-weight="400" letter-spacing="0" word-spacing="0" fill="#fff" stroke-width="1.4"/></g></svg>