<svg xmlns="http://www.w3.org/2000/svg" width="32" height="32" version="1"><rect width="28.203" height="28.203" x="1.898" y="1.898" ry="5.575" fill="#8e8e8e" fill-rule="evenodd"/><path d="M7.826 5.118h16.348c.823 0 1.486.739 1.486 1.657v18.222c0 .917-.663 1.656-1.486 1.656H7.826c-.823 0-1.486-.738-1.486-1.656V6.776c.001-.918.664-1.657 1.488-1.657z" fill="#4d4d4d"/><rect width="7.728" height=".966" x="12.192" y="3.243" rx=".483" ry=".483" fill="#4d4d4d"/><circle cx="16" cy="28.188" r=".966" fill="#4d4d4d"/><g transform="matrix(.85714 0 0 .85714 4.766 4.685)" stroke-width="1.167"><circle cx="20.255" cy="20.482" r="7" fill="#db3c30"/><g fill="#fff"><path d="M16.72 22.604l5.657-5.657 1.414 1.414-5.657 5.657z"/><path d="M18.134 16.947l5.657 5.657-1.414 1.414-5.657-5.657z"/></g></g></svg>