<svg xmlns="http://www.w3.org/2000/svg" width="32" height="32" version="1"><rect width="28.203" height="28.203" x="1.898" y="1.898" ry="5.575" fill="#8e8e8e" fill-rule="evenodd"/><path d="M7.826 5.118h16.348c.823 0 1.486.739 1.486 1.657v18.222c0 .917-.663 1.656-1.486 1.656H7.826c-.823 0-1.486-.738-1.486-1.656V6.776c.001-.918.664-1.657 1.488-1.657z" fill="#4d4d4d"/><path d="M14.065 7.976l-.681.393.943 1.634c-1.724.833-1.731 2.776-1.731 2.776h7.09s-.009-1.943-1.731-2.775l.943-1.635-.682-.393-1.02 1.766a4.772 4.772 0 0 0-1.054-.114c-.397 0-.743.044-1.057.114l-1.02-1.766zm.502 3.227c.218 0 .392.176.392.393a.396.396 0 0 1-.392.395.394.394 0 1 1 0-.788zm3.15 0c.219 0 .393.176.393.393a.396.396 0 0 1-.392.395.394.394 0 1 1 0-.788zm-6.661 2.363c-.453 0-.823.419-.823.933v3.648c0 .513.37.933.823.933.453 0 .752-.42.752-.934v-3.648c0-.514-.298-.932-.752-.932zm1.54 0v6.696c0 .186.208.394.394.394h1.181v1.477c0 .49.312.886.788.886.473 0 .803-.397.788-.886v-1.477h.788v1.477c0 .49.311.886.787.886.473 0 .788-.403.788-.886v-1.477h1.181c.186 0 .394-.208.394-.394v-6.696zm8.7 0c-.453 0-.823.419-.823.933v3.648c0 .513.37.933.823.933.453 0 .752-.42.752-.934v-3.648c0-.514-.298-.932-.752-.932z" fill="#a4ca39"/><rect width="7.728" height=".966" x="12.192" y="3.243" rx=".483" ry=".483" fill="#4d4d4d"/><circle cx="16" cy="28.188" r=".966" fill="#4d4d4d"/></svg>