<svg xmlns="http://www.w3.org/2000/svg" xmlns:xlink="http://www.w3.org/1999/xlink" width="1920mm" height="1200mm" viewBox="0 0 1920 1200"><defs><linearGradient id="a"><stop offset="0" stop-color="#477efa" stop-opacity=".647"/><stop offset="1" stop-opacity=".302"/></linearGradient><linearGradient xlink:href="#b" id="K" x1="-34.169" y1="21.288" x2="-13.153" y2="7.458" gradientUnits="userSpaceOnUse" gradientTransform="matrix(1.22723 0 0 1.49985 17.688 -21.176)"/><linearGradient id="b"><stop offset="0" stop-color="#8998ad"/><stop offset="1" stop-color="#dadfe1"/></linearGradient><linearGradient xlink:href="#c" id="L" x1="-5.667" y1="22.201" x2="-5.597" y2="10.718" gradientUnits="userSpaceOnUse" gradientTransform="matrix(1.84713 0 0 1.84713 -1.697 -28.434)"/><linearGradient id="c"><stop offset="0" stop-color="#4f4f4f"/><stop offset="1" stop-color="#828282"/></linearGradient><linearGradient xlink:href="#d" id="M" x1="-34.169" y1="21.288" x2="-13.153" y2="7.458" gradientUnits="userSpaceOnUse" gradientTransform="matrix(1.22723 0 0 1.49985 17.688 -21.176)"/><linearGradient id="d"><stop offset="0" stop-color="#8998ad"/><stop offset="1" stop-color="#ceeaf2"/></linearGradient><linearGradient xlink:href="#e" id="N" x1="-5.667" y1="22.201" x2="-5.597" y2="10.718" gradientUnits="userSpaceOnUse" gradientTransform="matrix(1.84713 0 0 1.84713 -1.697 -28.434)"/><linearGradient id="e"><stop offset="0" stop-color="#2a88ae"/><stop offset="1" stop-color="#71b9d9"/></linearGradient><linearGradient xlink:href="#f" id="O" x1="-34.169" y1="21.288" x2="-13.153" y2="7.458" gradientUnits="userSpaceOnUse" gradientTransform="matrix(1.22723 0 0 1.49985 17.688 -21.176)"/><linearGradient id="f"><stop offset="0" stop-color="#8998ad"/><stop offset="1" stop-color="#dbd4c9"/></linearGradient><linearGradient xlink:href="#g" id="P" x1="-5.667" y1="22.201" x2="-5.597" y2="10.718" gradientUnits="userSpaceOnUse" gradientTransform="matrix(1.84713 0 0 1.84713 -1.697 -28.434)"/><linearGradient id="g"><stop offset="0" stop-color="#605133"/><stop offset="1" stop-color="#907d53"/></linearGradient><linearGradient xlink:href="#h" id="Q" x1="-34.169" y1="21.288" x2="-13.153" y2="7.458" gradientUnits="userSpaceOnUse" gradientTransform="matrix(1.22723 0 0 1.49985 17.688 -21.176)"/><linearGradient id="h"><stop offset="0" stop-color="#8998ad"/><stop offset="1" stop-color="#d7edef"/></linearGradient><linearGradient xlink:href="#i" id="R" x1="-5.667" y1="22.201" x2="-5.597" y2="10.718" gradientUnits="userSpaceOnUse" gradientTransform="matrix(1.84713 0 0 1.84713 -1.697 -28.434)"/><linearGradient id="i"><stop offset="0" stop-color="#27a4a7"/><stop offset="1" stop-color="#72d2d4"/></linearGradient><linearGradient xlink:href="#j" id="S" x1="-34.169" y1="21.288" x2="-13.153" y2="7.458" gradientUnits="userSpaceOnUse" gradientTransform="matrix(1.22723 0 0 1.49985 17.688 -21.176)"/><linearGradient id="j"><stop offset="0" stop-color="#8998ad"/><stop offset="1" stop-color="#e8eaeb"/></linearGradient><linearGradient xlink:href="#k" id="T" x1="-5.667" y1="22.201" x2="-5.597" y2="10.718" gradientUnits="userSpaceOnUse" gradientTransform="matrix(1.84713 0 0 1.84713 -1.697 -28.434)"/><linearGradient id="k"><stop offset="0" stop-color="#5e737b"/><stop offset="1" stop-color="#a0b1b7"/></linearGradient><linearGradient xlink:href="#l" id="U" x1="-34.169" y1="21.288" x2="-13.153" y2="7.458" gradientUnits="userSpaceOnUse" gradientTransform="matrix(1.22723 0 0 1.49985 17.688 -21.176)"/><linearGradient id="l"><stop offset="0" stop-color="#8998ad"/><stop offset="1" stop-color="#cef2e1"/></linearGradient><linearGradient xlink:href="#m" id="V" x1="-5.667" y1="22.201" x2="-5.597" y2="10.718" gradientUnits="userSpaceOnUse" gradientTransform="matrix(1.84713 0 0 1.84713 -1.697 -28.434)"/><linearGradient id="m"><stop offset="0" stop-color="#2aae73"/><stop offset="1" stop-color="#71d997"/></linearGradient><linearGradient xlink:href="#n" id="W" x1="-34.169" y1="21.288" x2="-13.153" y2="7.458" gradientUnits="userSpaceOnUse" gradientTransform="matrix(1.22723 0 0 1.49985 17.688 -21.176)"/><linearGradient id="n"><stop offset="0" stop-color="#8998ad"/><stop offset="1" stop-color="#f9e2ea"/></linearGradient><linearGradient xlink:href="#o" id="X" x1="-5.667" y1="22.201" x2="-5.597" y2="10.718" gradientUnits="userSpaceOnUse" gradientTransform="matrix(1.84713 0 0 1.84713 -1.697 -28.434)"/><linearGradient id="o"><stop offset="0" stop-color="#9f2e57"/><stop offset="1" stop-color="#d5668e"/></linearGradient><linearGradient xlink:href="#p" id="Y" x1="-34.169" y1="21.288" x2="-13.153" y2="7.458" gradientUnits="userSpaceOnUse" gradientTransform="matrix(1.22723 0 0 1.49985 17.688 -21.176)"/><linearGradient id="p"><stop offset="0" stop-color="#8998ad"/><stop offset="1" stop-color="#f4e3d2"/></linearGradient><linearGradient xlink:href="#q" id="Z" x1="-5.667" y1="22.201" x2="-5.597" y2="10.718" gradientUnits="userSpaceOnUse" gradientTransform="matrix(1.84713 0 0 1.84713 -1.697 -28.434)"/><linearGradient id="q"><stop offset="0" stop-color="#cd7724"/><stop offset="1" stop-color="#edb177"/></linearGradient><linearGradient xlink:href="#r" id="aa" x1="-34.169" y1="21.288" x2="-13.153" y2="7.458" gradientUnits="userSpaceOnUse" gradientTransform="matrix(1.22723 0 0 1.49985 17.688 -21.176)"/><linearGradient id="r"><stop offset="0" stop-color="#8998ad"/><stop offset="1" stop-color="#f7e3f2"/></linearGradient><linearGradient xlink:href="#s" id="ab" x1="-5.667" y1="22.201" x2="-5.597" y2="10.718" gradientUnits="userSpaceOnUse" gradientTransform="matrix(1.84713 0 0 1.84713 -1.697 -28.434)"/><linearGradient id="s"><stop offset="0" stop-color="#c659ac"/><stop offset="1" stop-color="#e08acc"/></linearGradient><linearGradient xlink:href="#t" id="ac" x1="-34.169" y1="21.288" x2="-13.153" y2="7.458" gradientUnits="userSpaceOnUse" gradientTransform="matrix(1.22723 0 0 1.49985 17.688 -21.176)"/><linearGradient id="t"><stop offset="0" stop-color="#8998ad"/><stop offset="1" stop-color="#f3dcd4"/></linearGradient><linearGradient xlink:href="#u" id="ad" x1="-5.667" y1="22.201" x2="-5.597" y2="10.718" gradientUnits="userSpaceOnUse" gradientTransform="matrix(1.84713 0 0 1.84713 -1.697 -28.434)"/><linearGradient id="u"><stop offset="0" stop-color="#db1424"/><stop offset="1" stop-color="#ee4730"/></linearGradient><linearGradient xlink:href="#v" id="ae" x1="-34.169" y1="21.288" x2="-13.153" y2="7.458" gradientUnits="userSpaceOnUse" gradientTransform="matrix(1.22723 0 0 1.49985 17.688 -21.176)"/><linearGradient id="v"><stop offset="0" stop-color="#8998ad"/><stop offset="1" stop-color="#ebeae8"/></linearGradient><linearGradient xlink:href="#w" id="af" x1="-5.667" y1="22.201" x2="-5.597" y2="10.718" gradientUnits="userSpaceOnUse" gradientTransform="matrix(1.84713 0 0 1.84713 -1.697 -28.434)"/><linearGradient id="w"><stop offset="0" stop-color="#ae7e2a"/><stop offset="1" stop-color="#d9bd71"/></linearGradient><linearGradient id="x"><stop offset="0" stop-color="#fff"/><stop offset="1" stop-color="#019cff"/></linearGradient><linearGradient id="y"><stop offset="0" stop-color="#fff"/><stop offset="1" stop-color="#3fb7ff"/></linearGradient><linearGradient id="z"><stop offset="0" stop-color="#f9548f"/><stop offset="1" stop-color="#d287a7"/></linearGradient><linearGradient id="A"><stop offset="0" stop-color="#c8812a"/><stop offset="1" stop-color="#6a5d42"/></linearGradient><linearGradient id="B"><stop offset="0" stop-color="#4b8f41"/><stop offset="1" stop-color="#53aa46"/></linearGradient><linearGradient xlink:href="#C" id="al" x1="25.451" y1="41.64" x2="32.088" y2="16.489" gradientUnits="userSpaceOnUse" gradientTransform="matrix(.4121 0 0 .4121 7.389 7.384)"/><linearGradient id="C"><stop offset="0" stop-color="#579a4d"/><stop offset="1" stop-color="#53aa46"/></linearGradient><linearGradient xlink:href="#D" id="am" x1="25.451" y1="41.64" x2="18.458" y2="22.05" gradientUnits="userSpaceOnUse" gradientTransform="matrix(.4121 0 0 .4121 7.389 7.384)"/><linearGradient id="D"><stop offset="0" stop-color="#4b8a43"/><stop offset="1" stop-color="#56bc48"/></linearGradient><linearGradient xlink:href="#E" id="an" x1="5.96" y1="36.31" x2=".974" y2="17.525" gradientUnits="userSpaceOnUse" gradientTransform="matrix(.4121 0 0 .4121 7.389 7.384)"/><linearGradient id="E"><stop offset="0" stop-color="#409535"/><stop offset="1" stop-color="#91bf8a"/></linearGradient><linearGradient id="F"><stop offset="0" stop-color="#42d53e"/><stop offset="1" stop-color="#fbfefb"/></linearGradient><linearGradient xlink:href="#G" id="ap" x1="25.451" y1="41.64" x2="5.96" y2="36.31" gradientUnits="userSpaceOnUse" gradientTransform="matrix(.4121 0 0 .4121 7.389 7.384)"/><linearGradient id="G"><stop offset="0" stop-color="#4b9640"/><stop offset="1" stop-color="#56bc48"/></linearGradient><linearGradient xlink:href="#H" id="aq" x1="21.9" y1="20.603" x2="12.632" y2="6.077" gradientUnits="userSpaceOnUse" gradientTransform="matrix(.4121 0 0 .4121 7.389 7.384)"/><linearGradient id="H"><stop offset="0" stop-color="#84e077"/><stop offset="1" stop-color="#56bc48"/></linearGradient><linearGradient xlink:href="#I" id="ar" x1="38.99" y1="16.563" x2="18.734" y2=".656" gradientUnits="userSpaceOnUse" gradientTransform="matrix(.4121 0 0 .4121 7.389 7.384)"/><linearGradient id="I"><stop offset="0" stop-color="#5cb151"/><stop offset="1" stop-color="#56bc48"/></linearGradient><linearGradient id="J"><stop offset="0" stop-color="#c0e1ff"/><stop offset="1" stop-color="#72ade4"/></linearGradient><radialGradient xlink:href="#x" id="ag" cx="16.63" cy="19.652" fx="16.63" fy="19.652" r="6.344" gradientTransform="matrix(.00134 2.10564 -1.60027 .00102 47.139 -17.555)" gradientUnits="userSpaceOnUse"/><radialGradient xlink:href="#y" id="ah" cx="14.693" cy="18.677" fx="14.693" fy="18.677" r="6.328" gradientTransform="matrix(1.77549 -.01337 .0133 1.76717 -10.01 -14.878)" gradientUnits="userSpaceOnUse"/><radialGradient xlink:href="#z" id="ai" gradientUnits="userSpaceOnUse" cx="16.4" cy="15.828" fx="16.4" fy="15.828" r="14.101" gradientTransform="matrix(1.34789 .00174 -.00174 1.34789 -5.538 -5.594)"/><radialGradient xlink:href="#A" id="aj" cx="16.393" cy="16.363" fx="16.393" fy="16.363" r="14.102" gradientUnits="userSpaceOnUse" gradientTransform="matrix(2.06284 .0002 -.00017 1.78703 -17.003 -12.596)"/><radialGradient xlink:href="#B" id="ak" cx="24.554" cy="18.545" fx="24.554" fy="18.545" r="2.018" gradientTransform="matrix(.78992 -.61322 1.96248 2.52798 -31.188 -12.596)" gradientUnits="userSpaceOnUse"/><radialGradient xlink:href="#F" id="ao" cx="10.088" cy="23.849" fx="10.088" fy="23.849" r="8.824" gradientTransform="matrix(-1.2409 1.01035 -.83406 -1.02439 47.922 31.46)" gradientUnits="userSpaceOnUse"/><radialGradient xlink:href="#J" id="as" cx="8.412" cy="9.42" fx="8.412" fy="9.42" r="14.102" gradientUnits="userSpaceOnUse" gradientTransform="translate(.047 -1.21)"/></defs><rect ry="0" height="1200" width="1920" fill="#004769" fill-rule="evenodd"/><g font-weight="400" font-family="URW Gothic L" letter-spacing="0" word-spacing="0" fill="#fff" stroke="#fff" stroke-width=".158"><path d="M611.389 326.103h8.401v-39.398h43.485v39.398h8.402v-83.905h-8.402v36.9H619.79v-36.9h-8.401zM749.745 297.832c0-8.516-1.135-13.738-4.2-19.188-5.564-9.878-16.35-16.123-28.158-16.123-18.053 0-32.245 14.193-32.245 32.245 0 18.393 14.42 32.813 32.813 32.813 7.947 0 15.44-2.952 21.118-8.289 4.428-4.2 7.38-8.515 9.083-13.624h-8.743c-3.52 8.515-12.262 14.192-21.685 14.192-12.717 0-23.503-9.764-24.184-22.026zm-55.974-7.607c2.27-11.922 11.694-19.983 23.502-19.983 12.035 0 21.232 7.607 24.07 19.983zM761.37 263.997v83.905h8.402V315.43c5.45 7.948 13.852 12.149 24.184 12.149 18.507 0 32.926-14.193 32.926-32.359 0-18.506-14.192-32.699-32.699-32.699-10.559 0-19.188 4.315-24.41 12.149v-10.673zm32.472 6.245c13.966 0 24.525 10.673 24.525 24.978 0 13.966-10.56 24.638-24.411 24.638-14.192 0-24.751-10.786-24.751-25.092 0-13.738 10.9-24.524 24.637-24.524zM846.597 347.902h8.97l35.877-83.905h-8.97L861.47 313.5l-19.642-49.503h-9.196l24.07 60.062zM931.012 326.103h8.289l38.148-50.525v50.525h8.289v-62.106h-8.289l-38.148 50.525v-50.525h-8.289zM1008.38 263.997h-8.402v62.106h8.402zm28.952 0l-24.184 31.223 25.66 30.883h10.445l-25.773-30.883 24.184-31.223zM1087.17 262.521c-18.393 0-32.586 13.966-32.586 32.132 0 19.074 13.965 32.926 33.267 32.926 18.166 0 31.564-13.738 31.564-32.359 0-18.96-13.625-32.699-32.245-32.699zm0 7.721c13.624 0 23.73 10.673 23.73 25.092 0 14.192-9.765 24.524-23.276 24.524-14.306 0-24.524-10.445-24.524-24.978 0-14.079 10.332-24.638 24.07-24.638zM1131.256 326.103h8.288v-28.385h34.857v28.385h8.288v-62.106h-8.288v26.114h-34.857v-26.114h-8.288zM1205.297 263.997h-8.402v62.106h8.402zm28.952 0l-24.183 31.223 25.66 30.883h10.445l-25.773-30.883 24.183-31.223zM1253.886 326.103h8.288l38.15-50.525v50.525h8.287v-62.106h-8.288l-38.149 50.525v-50.525h-8.288z" style="line-height:1.25;-inkscape-font-specification:'URW Gothic L'"/></g><g transform="matrix(3.03333 0 0 3.14033 1147.432 468.85)"><path d="M-8.585-12.404c-2.391 0-3.167 1.885-4.395 3.768H-24.44c-1.739 0-3.139 1.4-3.139 3.139V9.57c.008.175.045.344.08.51.149.868.643 1.609 1.373 2.08.348.224.75.387 1.178.47.213.044.4.08.628.08H-.696c.228 0 .415-.034.628-.08a3.352 3.352 0 0 0 1.177-.47 3.082 3.082 0 0 0 1.373-2.08c.034-.166.07-.336.08-.51V-9.107c0-1.836-1.443-3.297-3.258-3.297h-7.887z" fill="#4f4f4f" stroke="#828282" stroke-width=".098"/><rect width="25.793" height="20.744" x="-24.146" y="-9.991" transform="rotate(.008) skewX(.002)" ry="1.676" opacity=".647" fill="#454545" paint-order="markers stroke fill"/><rect width="25.793" height="20.744" x="-24.246" y="-9.991" transform="rotate(.008) skewX(.002)" ry="1.676" fill="url(#K)" paint-order="markers stroke fill"/><path d="M-16.431-12.404c2.39 0 3.166 1.885 4.394 3.768H-.578c1.739 0 3.139 1.4 3.139 3.139V9.57c-.008.175-.045.344-.08.51a3.078 3.078 0 0 1-1.373 2.08c-.348.224-.75.387-1.178.47-.213.044-.4.08-.628.08H-24.32c-.227 0-.414-.034-.628-.08a3.352 3.352 0 0 1-1.176-.47 3.082 3.082 0 0 1-1.374-2.08c-.034-.166-.07-.336-.08-.51V-9.107c0-1.836 1.444-3.297 3.258-3.297h7.887z" fill="url(#L)" stroke="#828282" stroke-width=".098"/></g><g transform="matrix(3.03333 0 0 3.14033 1147.432 555.962)"><path d="M-8.585-12.404c-2.391 0-3.167 1.885-4.395 3.768H-24.44c-1.739 0-3.139 1.4-3.139 3.139V9.57c.008.175.045.344.08.51.149.868.643 1.609 1.373 2.08.348.224.75.387 1.178.47.213.044.4.08.628.08H-.696c.228 0 .415-.034.628-.08a3.352 3.352 0 0 0 1.177-.47 3.082 3.082 0 0 0 1.373-2.08c.034-.166.07-.336.08-.51V-9.107c0-1.836-1.443-3.297-3.258-3.297h-7.887z" fill="#2a88ae" stroke="#71b9d9" stroke-width=".098"/><rect width="25.793" height="20.744" x="-24.146" y="-9.991" transform="rotate(.008) skewX(.002)" ry="1.676" opacity=".647" fill="#4b6e7c" paint-order="markers stroke fill"/><rect width="25.793" height="20.744" x="-24.246" y="-9.991" transform="rotate(.008) skewX(.002)" ry="1.676" fill="url(#M)" paint-order="markers stroke fill"/><path d="M-16.431-12.404c2.39 0 3.166 1.885 4.394 3.768H-.578c1.739 0 3.139 1.4 3.139 3.139V9.57c-.008.175-.045.344-.08.51a3.078 3.078 0 0 1-1.373 2.08c-.348.224-.75.387-1.178.47-.213.044-.4.08-.628.08H-24.32c-.227 0-.414-.034-.628-.08a3.352 3.352 0 0 1-1.176-.47 3.082 3.082 0 0 1-1.374-2.08c-.034-.166-.07-.336-.08-.51V-9.107c0-1.836 1.444-3.297 3.258-3.297h7.887z" fill="url(#N)" stroke="#71b9d9" stroke-width=".098"/></g><g transform="matrix(3.03333 0 0 3.14033 1247.091 555.962)"><path d="M-8.585-12.404c-2.391 0-3.167 1.885-4.395 3.768H-24.44c-1.739 0-3.139 1.4-3.139 3.139V9.57c.008.175.045.344.08.51.149.868.643 1.609 1.373 2.08.348.224.75.387 1.178.47.213.044.4.08.628.08H-.696c.228 0 .415-.034.628-.08a3.352 3.352 0 0 0 1.177-.47 3.082 3.082 0 0 0 1.373-2.08c.034-.166.07-.336.08-.51V-9.107c0-1.836-1.443-3.297-3.258-3.297h-7.887z" fill="#605133" stroke="#907d53" stroke-width=".098"/><rect width="25.793" height="20.744" x="-24.146" y="-9.991" transform="rotate(.008) skewX(.002)" ry="1.676" opacity=".647" fill="#433a27" paint-order="markers stroke fill"/><rect width="25.793" height="20.744" x="-24.246" y="-9.991" transform="rotate(.008) skewX(.002)" ry="1.676" fill="url(#O)" paint-order="markers stroke fill"/><path d="M-16.431-12.404c2.39 0 3.166 1.885 4.394 3.768H-.578c1.739 0 3.139 1.4 3.139 3.139V9.57c-.008.175-.045.344-.08.51a3.078 3.078 0 0 1-1.373 2.08c-.348.224-.75.387-1.178.47-.213.044-.4.08-.628.08H-24.32c-.227 0-.414-.034-.628-.08a3.352 3.352 0 0 1-1.176-.47 3.082 3.082 0 0 1-1.374-2.08c-.034-.166-.07-.336-.08-.51V-9.107c0-1.836 1.444-3.297 3.258-3.297h7.887z" fill="url(#P)" stroke="#907d53" stroke-width=".098"/></g><g transform="matrix(3.03333 0 0 3.14033 1047.772 643.074)"><path d="M-8.585-12.404c-2.391 0-3.167 1.885-4.395 3.768H-24.44c-1.739 0-3.139 1.4-3.139 3.139V9.57c.008.175.045.344.08.51.149.868.643 1.609 1.373 2.08.348.224.75.387 1.178.47.213.044.4.08.628.08H-.696c.228 0 .415-.034.628-.08a3.352 3.352 0 0 0 1.177-.47 3.082 3.082 0 0 0 1.373-2.08c.034-.166.07-.336.08-.51V-9.107c0-1.836-1.443-3.297-3.258-3.297h-7.887z" fill="#27a4a7" stroke="#72d2d4" stroke-width=".098"/><rect width="25.793" height="20.744" x="-24.146" y="-9.991" transform="rotate(.008) skewX(.002)" ry="1.676" opacity=".647" fill="#2d6e6b" paint-order="markers stroke fill"/><rect width="25.793" height="20.744" x="-24.246" y="-9.991" transform="rotate(.008) skewX(.002)" ry="1.676" fill="url(#Q)" paint-order="markers stroke fill"/><path d="M-16.431-12.404c2.39 0 3.166 1.885 4.394 3.768H-.578c1.739 0 3.139 1.4 3.139 3.139V9.57c-.008.175-.045.344-.08.51a3.078 3.078 0 0 1-1.373 2.08c-.348.224-.75.387-1.178.47-.213.044-.4.08-.628.08H-24.32c-.227 0-.414-.034-.628-.08a3.352 3.352 0 0 1-1.176-.47 3.082 3.082 0 0 1-1.374-2.08c-.034-.166-.07-.336-.08-.51V-9.107c0-1.836 1.444-3.297 3.258-3.297h7.887z" fill="url(#R)" stroke="#72d2d4" stroke-width=".098"/></g><g transform="matrix(3.03333 0 0 3.14033 1047.772 468.85)"><path d="M-8.585-12.404c-2.391 0-3.167 1.885-4.395 3.768H-24.44c-1.739 0-3.139 1.4-3.139 3.139V9.57c.008.175.045.344.08.51.149.868.643 1.609 1.373 2.08.348.224.75.387 1.178.47.213.044.4.08.628.08H-.696c.228 0 .415-.034.628-.08a3.352 3.352 0 0 0 1.177-.47 3.082 3.082 0 0 0 1.373-2.08c.034-.166.07-.336.08-.51V-9.107c0-1.836-1.443-3.297-3.258-3.297h-7.887z" fill="#5e737b" stroke="#a0b1b7" stroke-width=".098"/><rect width="25.793" height="20.744" x="-24.146" y="-9.991" transform="rotate(.008) skewX(.002)" ry="1.676" opacity=".647" fill="#5d6569" paint-order="markers stroke fill"/><rect width="25.793" height="20.744" x="-24.246" y="-9.991" transform="rotate(.008) skewX(.002)" ry="1.676" fill="url(#S)" paint-order="markers stroke fill"/><path d="M-16.431-12.404c2.39 0 3.166 1.885 4.394 3.768H-.578c1.739 0 3.139 1.4 3.139 3.139V9.57c-.008.175-.045.344-.08.51a3.078 3.078 0 0 1-1.373 2.08c-.348.224-.75.387-1.178.47-.213.044-.4.08-.628.08H-24.32c-.227 0-.414-.034-.628-.08a3.352 3.352 0 0 1-1.176-.47 3.082 3.082 0 0 1-1.374-2.08c-.034-.166-.07-.336-.08-.51V-9.107c0-1.836 1.444-3.297 3.258-3.297h7.887z" fill="url(#T)" stroke="#a0b1b7" stroke-width=".098"/></g><g transform="matrix(3.03333 0 0 3.14033 1147.432 643.074)"><path d="M-8.585-12.404c-2.391 0-3.167 1.885-4.395 3.768H-24.44c-1.739 0-3.139 1.4-3.139 3.139V9.57c.008.175.045.344.08.51.149.868.643 1.609 1.373 2.08.348.224.75.387 1.178.47.213.044.4.08.628.08H-.696c.228 0 .415-.034.628-.08a3.352 3.352 0 0 0 1.177-.47 3.082 3.082 0 0 0 1.373-2.08c.034-.166.07-.336.08-.51V-9.107c0-1.836-1.443-3.297-3.258-3.297h-7.887z" fill="#2aae73" stroke="#71d997" stroke-width=".098"/><rect width="25.793" height="20.744" x="-24.146" y="-9.991" transform="rotate(.008) skewX(.002)" ry="1.676" opacity=".647" fill="#4b7c66" paint-order="markers stroke fill"/><rect width="25.793" height="20.744" x="-24.246" y="-9.991" transform="rotate(.008) skewX(.002)" ry="1.676" fill="url(#U)" paint-order="markers stroke fill"/><path d="M-16.431-12.404c2.39 0 3.166 1.885 4.394 3.768H-.578c1.739 0 3.139 1.4 3.139 3.139V9.57c-.008.175-.045.344-.08.51a3.078 3.078 0 0 1-1.373 2.08c-.348.224-.75.387-1.178.47-.213.044-.4.08-.628.08H-24.32c-.227 0-.414-.034-.628-.08a3.352 3.352 0 0 1-1.176-.47 3.082 3.082 0 0 1-1.374-2.08c-.034-.166-.07-.336-.08-.51V-9.107c0-1.836 1.444-3.297 3.258-3.297h7.887z" fill="url(#V)" stroke="#71d997" stroke-width=".098"/></g><g transform="matrix(3.03333 0 0 3.14033 1047.772 555.962)"><path d="M-8.585-12.404c-2.391 0-3.167 1.885-4.395 3.768H-24.44c-1.739 0-3.139 1.4-3.139 3.139V9.57c.008.175.045.344.08.51.149.868.643 1.609 1.373 2.08.348.224.75.387 1.178.47.213.044.4.08.628.08H-.696c.228 0 .415-.034.628-.08a3.352 3.352 0 0 0 1.177-.47 3.082 3.082 0 0 0 1.373-2.08c.034-.166.07-.336.08-.51V-9.107c0-1.836-1.443-3.297-3.258-3.297h-7.887z" fill="#9f2e57" stroke="#d5668e" stroke-width=".098"/><rect width="25.793" height="20.744" x="-24.146" y="-9.991" transform="rotate(.008) skewX(.002)" ry="1.676" opacity=".647" fill="#842346" paint-order="markers stroke fill"/><rect width="25.793" height="20.744" x="-24.246" y="-9.991" transform="rotate(.008) skewX(.002)" ry="1.676" fill="url(#W)" paint-order="markers stroke fill"/><path d="M-16.431-12.404c2.39 0 3.166 1.885 4.394 3.768H-.578c1.739 0 3.139 1.4 3.139 3.139V9.57c-.008.175-.045.344-.08.51a3.078 3.078 0 0 1-1.373 2.08c-.348.224-.75.387-1.178.47-.213.044-.4.08-.628.08H-24.32c-.227 0-.414-.034-.628-.08a3.352 3.352 0 0 1-1.176-.47 3.082 3.082 0 0 1-1.374-2.08c-.034-.166-.07-.336-.08-.51V-9.107c0-1.836 1.444-3.297 3.258-3.297h7.887z" fill="url(#X)" stroke="#d5668e" stroke-width=".098"/></g><g transform="matrix(3.03333 0 0 3.14033 1147.432 730.187)"><path d="M-8.585-12.404c-2.391 0-3.167 1.885-4.395 3.768H-24.44c-1.739 0-3.139 1.4-3.139 3.139V9.57c.008.175.045.344.08.51.149.868.643 1.609 1.373 2.08.348.224.75.387 1.178.47.213.044.4.08.628.08H-.696c.228 0 .415-.034.628-.08a3.352 3.352 0 0 0 1.177-.47 3.082 3.082 0 0 0 1.373-2.08c.034-.166.07-.336.08-.51V-9.107c0-1.836-1.443-3.297-3.258-3.297h-7.887z" fill="#cd7724" stroke="#edb177" stroke-width=".098"/><rect width="25.793" height="20.744" x="-24.146" y="-9.991" transform="rotate(.008) skewX(.002)" ry="1.676" opacity=".647" fill="#8d5b2b" paint-order="markers stroke fill"/><rect width="25.793" height="20.744" x="-24.246" y="-9.991" transform="rotate(.008) skewX(.002)" ry="1.676" fill="url(#Y)" paint-order="markers stroke fill"/><path d="M-16.431-12.404c2.39 0 3.166 1.885 4.394 3.768H-.578c1.739 0 3.139 1.4 3.139 3.139V9.57c-.008.175-.045.344-.08.51a3.078 3.078 0 0 1-1.373 2.08c-.348.224-.75.387-1.178.47-.213.044-.4.08-.628.08H-24.32c-.227 0-.414-.034-.628-.08a3.352 3.352 0 0 1-1.176-.47 3.082 3.082 0 0 1-1.374-2.08c-.034-.166-.07-.336-.08-.51V-9.107c0-1.836 1.444-3.297 3.258-3.297h7.887z" fill="url(#Z)" stroke="#edb177" stroke-width=".098"/></g><g transform="matrix(3.03333 0 0 3.14033 1047.772 730.187)"><path d="M-8.585-12.404c-2.391 0-3.167 1.885-4.395 3.768H-24.44c-1.739 0-3.139 1.4-3.139 3.139V9.57c.008.175.045.344.08.51.149.868.643 1.609 1.373 2.08.348.224.75.387 1.178.47.213.044.4.08.628.08H-.696c.228 0 .415-.034.628-.08a3.352 3.352 0 0 0 1.177-.47 3.082 3.082 0 0 0 1.373-2.08c.034-.166.07-.336.08-.51V-9.107c0-1.836-1.443-3.297-3.258-3.297h-7.887z" fill="#c659ac" stroke="#e08acc" stroke-width=".098"/><rect width="25.793" height="20.744" x="-24.146" y="-9.991" transform="rotate(.008) skewX(.002)" ry="1.676" opacity=".647" fill="#b03792" paint-order="markers stroke fill"/><rect width="25.793" height="20.744" x="-24.246" y="-9.991" transform="rotate(.008) skewX(.002)" ry="1.676" fill="url(#aa)" paint-order="markers stroke fill"/><path d="M-16.431-12.404c2.39 0 3.166 1.885 4.394 3.768H-.578c1.739 0 3.139 1.4 3.139 3.139V9.57c-.008.175-.045.344-.08.51a3.078 3.078 0 0 1-1.373 2.08c-.348.224-.75.387-1.178.47-.213.044-.4.08-.628.08H-24.32c-.227 0-.414-.034-.628-.08a3.352 3.352 0 0 1-1.176-.47 3.082 3.082 0 0 1-1.374-2.08c-.034-.166-.07-.336-.08-.51V-9.107c0-1.836 1.444-3.297 3.258-3.297h7.887z" fill="url(#ab)" stroke="#e08acc" stroke-width=".098"/></g><g transform="matrix(3.03333 0 0 3.14033 1247.091 643.074)"><path d="M-8.585-12.404c-2.391 0-3.167 1.885-4.395 3.768H-24.44c-1.739 0-3.139 1.4-3.139 3.139V9.57c.008.175.045.344.08.51.149.868.643 1.609 1.373 2.08.348.224.75.387 1.178.47.213.044.4.08.628.08H-.696c.228 0 .415-.034.628-.08a3.352 3.352 0 0 0 1.177-.47 3.082 3.082 0 0 0 1.373-2.08c.034-.166.07-.336.08-.51V-9.107c0-1.836-1.443-3.297-3.258-3.297h-7.887z" fill="#db1424" stroke="#ee4730" stroke-width=".098"/><rect width="25.793" height="20.744" x="-24.146" y="-9.991" transform="rotate(.008) skewX(.002)" ry="1.676" opacity=".647" fill="#972c35" paint-order="markers stroke fill"/><rect width="25.793" height="20.744" x="-24.246" y="-9.991" transform="rotate(.008) skewX(.002)" ry="1.676" fill="url(#ac)" paint-order="markers stroke fill"/><path d="M-16.431-12.404c2.39 0 3.166 1.885 4.394 3.768H-.578c1.739 0 3.139 1.4 3.139 3.139V9.57c-.008.175-.045.344-.08.51a3.078 3.078 0 0 1-1.373 2.08c-.348.224-.75.387-1.178.47-.213.044-.4.08-.628.08H-24.32c-.227 0-.414-.034-.628-.08a3.352 3.352 0 0 1-1.176-.47 3.082 3.082 0 0 1-1.374-2.08c-.034-.166-.07-.336-.08-.51V-9.107c0-1.836 1.444-3.297 3.258-3.297h7.887z" fill="url(#ad)" stroke="#ee4730" stroke-width=".098"/></g><g transform="matrix(3.03333 0 0 3.14033 1247.091 468.85)"><path d="M-8.585-12.404c-2.391 0-3.167 1.885-4.395 3.768H-24.44c-1.739 0-3.139 1.4-3.139 3.139V9.57c.008.175.045.344.08.51.149.868.643 1.609 1.373 2.08.348.224.75.387 1.178.47.213.044.4.08.628.08H-.696c.228 0 .415-.034.628-.08a3.352 3.352 0 0 0 1.177-.47 3.082 3.082 0 0 0 1.373-2.08c.034-.166.07-.336.08-.51V-9.107c0-1.836-1.443-3.297-3.258-3.297h-7.887z" fill="#ae7e2a" stroke="#d9bd71" stroke-width=".098"/><rect width="25.793" height="20.744" x="-24.146" y="-9.991" transform="rotate(.008) skewX(.002)" ry="1.676" opacity=".647" fill="#7b6032" paint-order="markers stroke fill"/><rect width="25.793" height="20.744" x="-24.246" y="-9.991" transform="rotate(.008) skewX(.002)" ry="1.676" fill="url(#ae)" paint-order="markers stroke fill"/><path d="M-16.431-12.404c2.39 0 3.166 1.885 4.394 3.768H-.578c1.739 0 3.139 1.4 3.139 3.139V9.57c-.008.175-.045.344-.08.51a3.078 3.078 0 0 1-1.373 2.08c-.348.224-.75.387-1.178.47-.213.044-.4.08-.628.08H-24.32c-.227 0-.414-.034-.628-.08a3.352 3.352 0 0 1-1.176-.47 3.082 3.082 0 0 1-1.374-2.08c-.034-.166-.07-.336-.08-.51V-9.107c0-1.836 1.444-3.297 3.258-3.297h7.887z" fill="url(#af)" stroke="#d9bd71" stroke-width=".098"/></g><g><rect ry="5.575" y="1.899" x="1.899" height="28.203" width="28.203" fill="#4b88e8" fill-rule="evenodd" transform="matrix(3.25222 0 0 3.25222 658.815 523.23)"/><path style="line-height:normal;font-variant-ligatures:normal;font-variant-position:normal;font-variant-caps:normal;font-variant-numeric:normal;font-variant-alternates:normal;font-feature-settings:normal;text-indent:0;text-align:start;text-decoration-line:none;text-decoration-style:solid;text-decoration-color:#000;text-transform:none;text-orientation:mixed;white-space:normal;shape-padding:0;isolation:auto;mix-blend-mode:normal;solid-color:#000;solid-opacity:1" d="M718.034 547.038c-2.374.022-5.188.13-8.634.397-14.758 1.144-26.724 13.008-26.1 28.338.62 15.205 12.348 27.723 27.56 27.723 15.209 0 27.565-12.484 27.565-27.804-.02-9.117-3.523-16.676-3.32-26.252v-.019c.028-.318.052-.58.037-.855-.014-.294-.099-.745-.484-1.056-.385-.312-.76-.308-1.025-.302-.264.006-.51.04-.823.07-2.99.27-5.397.048-8.778-.114a102 102 0 0 0-5.998-.126zm10.066 3.924c-.407.68-.784 1.407-1.245 2.458-.921 2.102-2.203 5.498-4.923 12.632-4.011 10.523-10.106 15.553-16.241 18.147-5.598 2.366-11.19 2.59-15.217 2.546-1.746-3.314-2.803-7.101-2.967-11.142-.533-13.074 9.496-22.981 22.22-23.968 9.475-.735 14.263-.578 18.373-.673zm3.678 1.905c.466 8.62 2.421 15.912 2.434 22.83-.002 13.066-10.443 23.586-23.353 23.586-7.15 0-13.367-3.236-17.593-8.35 3.97-.127 8.973-.699 14.072-2.855 6.871-2.905 12.702-5.959 17.065-17.404 4.102-10.76 5.8-14.947 7.375-17.807z" color="#000" font-weight="400" font-family="sans-serif" overflow="visible" fill="#fff"/><path d="M15.173 23.75c-1.602-.126-3.06-.797-4.258-1.956-.28-.272-.509-.511-.509-.533 0-.021.127-.039.283-.039.42 0 1.429-.126 2.044-.255 1.725-.361 3.742-1.31 4.834-2.274.79-.698 1.506-1.714 2.025-2.875.11-.246.51-1.25.89-2.232.742-1.918 1.252-3.145 1.524-3.67l.17-.329.013.226c.029.529.162 1.676.349 3.005.317 2.25.356 2.647.356 3.637 0 .664-.02 1.015-.077 1.321-.292 1.566-.968 2.858-2.064 3.943a7.081 7.081 0 0 1-5.58 2.03z" fill="url(#ag)" stroke="#fff" stroke-width=".2" paint-order="markers fill stroke" transform="matrix(3.25222 0 0 3.25222 659.62 521.888)"/><path d="M9.308 19.534a8.55 8.55 0 0 1-.562-1.746c-.11-.515-.12-.652-.121-1.559 0-.93.008-1.028.127-1.536.296-1.266.858-2.32 1.716-3.219 1.193-1.248 2.685-2.002 4.434-2.244.985-.136 3.28-.252 4.999-.252h1.113l-.15.282c-.193.365-.513 1.153-1.243 3.067-.685 1.795-.926 2.352-1.307 3.015-1.475 2.573-3.621 4.02-6.618 4.46-.25.038-.85.08-1.335.093l-.881.026z" fill="url(#ah)" stroke="#fff" stroke-width=".2" paint-order="markers fill stroke" transform="matrix(3.25222 0 0 3.25222 659.62 521.888)"/><g transform="matrix(3.25222 0 0 3.25222 858.135 423.57)" fill-rule="evenodd"><rect width="28.203" height="28.203" x="1.899" y="1.899" ry="5.575" fill="#e7f0f2"/><path d="M16 7.32c-.773 1.894-1.24 3.135-2.1 4.974a13.56 13.56 0 0 0 2.227 1.942c-1.13-.465-1.901-.929-2.478-1.413-1.1 2.297-2.829 5.567-6.33 11.857 2.752-1.588 4.886-2.566 6.873-2.94a5.05 5.05 0 0 1-.13-1.18l.003-.085c.044-1.763.962-3.12 2.048-3.028 1.086.092 1.931 1.599 1.888 3.362-.009.331-.045.65-.11.945 1.965.385 4.076 1.36 6.79 2.926-.536-.985-1.016-1.87-1.472-2.717-.719-.557-1.467-1.282-2.996-2.066 1.051.273 1.806.587 2.392.94C17.967 12.2 17.591 11.051 16 7.32z" fill="#1793d1"/></g><g transform="matrix(3.25222 0 0 3.25222 758.475 423.57)" fill-rule="evenodd"><rect width="28.203" height="28.203" x="1.899" y="1.899" ry="5.575" fill="#9891f3"/><path d="M14.301 7.425c-3.74.178-6.67 3.557-6.524 5.396.147 1.79 4.696 3.36 4.645 3.414a70.877 70.877 0 0 0-2.322 2.02c-1.868 1.701-3.159 2.961-2.507 4.732.758 2.043 2.408 1.958 4.347 1.58 5.013-.986 13.249-7.29 12.822-9.618-.345-1.882-4.944-5.602-7.67-6.936a5.809 5.809 0 0 0-2.803-.588m.786 3.23c.468-.048 1.01.073 1.621.367 1.328.638 2.704 2.336 0 3.302-.735.257-3.088-.632-3.02-1.87.062-1.147.618-1.732 1.399-1.8m0 0" opacity=".647" fill="#655fac"/><path d="M14.201 7.325c-3.74.178-6.67 3.558-6.524 5.397.147 1.789 4.696 3.36 4.645 3.413a70.879 70.879 0 0 0-2.323 2.02c-1.867 1.702-3.158 2.962-2.506 4.733.757 2.043 2.407 1.958 4.347 1.58 5.013-.986 13.248-7.291 12.822-9.618-.345-1.882-4.944-5.603-7.67-6.937a5.809 5.809 0 0 0-2.803-.588m.785 3.23c.469-.048 1.012.074 1.622.367 1.328.639 2.704 2.337 0 3.303-.735.257-3.089-.633-3.02-1.87.062-1.148.618-1.733 1.398-1.8m0 0" fill="#e7f0f2"/></g><g transform="matrix(3.25222 0 0 3.25222 658.815 622.89)"><rect width="28.203" height="28.203" x="1.899" y="1.899" ry="5.575" fill="url(#ai)" fill-rule="evenodd"/><path d="M9.54 13.4c.088-.273.104-.437.137-.596-.241.315-.11.382-.136.596m.446-1.897c.043.41-.303.57.076.299.204-.467-.079-.13-.076-.299m6.623-3.586c.189-.07.464-.038.665-.084-.262.022-.522.035-.778.069l.113.015m6.062 7.65l-.041.104a5.12 5.12 0 0 1-.486 1.58 5.045 5.045 0 0 0 .527-1.685M15 17.264c-.098-.109-.154-.24-.22-.372.062.23.189.428.306.63L15 17.265m-.434.017l-.04.2c.184.253.33.528.564.726-.169-.335-.294-.473-.524-.926m2.285-9.143l-.105.022.097-.01.008-.012m-.297-.084c.149.027.321.048.297.084.163-.037.2-.07-.297-.084m3.107 6.993c.034-.512-.098-.35-.143-.155.052.028.093.36.143.155m-.552 1.465c.167-.234.288-.49.33-.754-.037.188-.137.35-.232.523-.521.334-.05-.199 0-.402-.56.72-.078.432-.098.633m-1.497.38c-.28.003.052.145.416.203.101-.08.192-.161.274-.24a2.05 2.05 0 0 1-.69.036M9.54 13.401c.088-.273.103-.437.137-.596-.242.315-.111.382-.137.596m.446-1.897c.044.41-.302.57.077.299.203-.467-.08-.13-.077-.299m6.623-3.586c.189-.07.464-.039.664-.085-.26.022-.52.035-.777.069l.113.016m6.062 7.65l-.04.104a5.12 5.12 0 0 1-.487 1.58 5.045 5.045 0 0 0 .527-1.685m-7.671 1.698c-.097-.11-.154-.24-.219-.372.062.23.188.428.305.63l-.086-.258m-.433.017l-.04.2c.184.253.33.528.563.726-.168-.335-.293-.473-.523-.926m2.284-9.144l-.105.022.098-.009.007-.013m4.16 7.122c.016.43-.12.638-.243 1.007l-.22.115c-.182.365.017.232-.112.522-.283.26-.856.816-1.04.867-.134-.003.091-.165.12-.228-.377.27-.303.405-.88.569l-.017-.04c-1.424.698-3.403-.683-3.377-2.568-.015.12-.043.09-.074.138-.074-.97.43-1.943 1.28-2.341.832-.428 1.806-.253 2.401.325-.327-.445-.978-.918-1.75-.874-.755.013-1.462.512-1.698 1.055-.387.253-.432.977-.6 1.11-.228 1.735.426 2.485 1.533 3.367.173.122.049.14.072.233a3.017 3.017 0 0 1-.981-.78c.147.224.305.441.51.612-.346-.122-.81-.874-.944-.904.597 1.112 2.424 1.951 3.38 1.535-.442.017-1.005.01-1.502-.182-.21-.112-.493-.343-.442-.386 1.305.507 2.654.383 3.783-.558.288-.233.601-.63.692-.634-.136.213.024.102-.081.291.285-.48-.125-.196.295-.83l.156.223c-.058-.4.476-.883.421-1.514.123-.192.137.208.007.652.18-.493.048-.572.094-.978.05.137.116.282.15.426-.118-.476.12-.8.179-1.077-.059-.027-.182.21-.21-.352.004-.244.066-.128.089-.188-.046-.027-.167-.214-.24-.573.053-.085.142.218.215.23-.047-.284-.127-.502-.13-.72-.213-.461-.076.06-.247-.198-.226-.732.187-.17.215-.502.341.514.536 1.313.626 1.643a6.941 6.941 0 0 0-.314-1.171c.104.045-.167-.83.135-.25-.324-1.235-1.382-2.39-2.355-2.93.119.113.27.255.216.277-.485-.3-.4-.323-.47-.45-.394-.166-.42.014-.681 0-.744-.41-.887-.366-1.57-.623l.03.152c-.492-.171-.574.064-1.106 0-.032-.026.17-.095.338-.12-.476.065-.454-.098-.92.018.115-.084.236-.14.359-.21-.389.024-.928.234-.761.043-.634.294-1.759.706-2.39 1.322l-.02-.138c-.29.361-1.262 1.079-1.34 1.547l-.077.019c-.15.265-.247.565-.367.838-.197.349-.288.134-.26.19-.388.816-.58 1.502-.746 2.065.118.184.003 1.108.047 1.848-.194 3.653 2.465 7.2 5.372 8.018.426.16 1.06.153 1.598.169-.635-.19-.717-.1-1.337-.325-.447-.219-.545-.469-.861-.754l.125.23c-.62-.229-.36-.283-.866-.45l.134-.18c-.2-.016-.532-.353-.623-.54l-.22.01c-.264-.34-.405-.585-.395-.774l-.071.131c-.08-.143-.973-1.272-.51-1.01-.086-.08-.2-.132-.324-.367l.094-.112c-.223-.298-.41-.68-.396-.807.12.166.202.198.283.226-.562-1.451-.594-.08-1.02-1.477l.09-.008c-.069-.109-.111-.226-.166-.341l.039-.406c-.405-.488-.113-2.072-.055-2.94.04-.353.338-.73.564-1.32l-.138-.024c.264-.478 1.505-1.92 2.08-1.846.279-.364-.055-.002-.11-.093.612-.659.805-.465 1.218-.584.445-.275-.383.107-.172-.105.77-.204.546-.465 1.55-.568.106.062-.246.096-.334.178.641-.327 2.03-.252 2.931.18 1.046.51 2.222 2.013 2.268 3.427l.053.015c-.027.562.083 1.212-.107 1.81l.128-.283m-4.456-7.207c.15.027.322.048.297.085.164-.037.2-.07-.297-.085m3.109 6.994c.034-.512-.099-.35-.144-.155.052.028.094.361.144.155m-.553 1.465c.166-.234.287-.49.33-.754-.038.188-.137.351-.232.523-.522.334-.05-.199 0-.401-.561.719-.078.43-.098.632m-1.497.38c-.28.004.052.146.416.203.101-.08.192-.16.274-.24a2.05 2.05 0 0 1-.69.037" opacity=".647" fill="#952c52"/><path d="M9.44 13.3c.088-.273.104-.437.137-.595-.241.314-.11.38-.136.595m.446-1.897c.043.41-.303.57.076.299.204-.467-.079-.129-.076-.299m6.623-3.585c.189-.07.464-.039.665-.085-.262.022-.522.035-.778.069l.113.016m6.062 7.648l-.041.105a5.12 5.12 0 0 1-.486 1.58 5.045 5.045 0 0 0 .527-1.685M14.9 17.165c-.098-.11-.154-.241-.22-.373.062.23.189.429.306.63l-.086-.257m-.434.017l-.04.2c.184.253.33.528.564.726-.169-.334-.294-.473-.524-.926m2.285-9.143l-.106.022.098-.009.007-.013m-.296-.084c.149.027.321.048.297.084.163-.037.2-.07-.297-.084m3.107 6.993c.034-.512-.098-.35-.143-.155.052.028.093.361.143.155m-.552 1.465c.167-.234.288-.49.33-.754-.037.189-.137.351-.232.523-.522.334-.05-.199 0-.401-.56.719-.078.43-.098.632m-1.497.38c-.28.003.052.146.416.203.101-.08.192-.161.274-.24a2.05 2.05 0 0 1-.69.037M9.44 13.3c.088-.273.103-.437.137-.596-.242.315-.111.382-.137.596m.446-1.897c.044.41-.302.57.077.299.203-.467-.08-.13-.077-.299m6.623-3.586c.189-.07.464-.039.664-.085-.26.022-.52.036-.777.069l.113.016m6.062 7.65l-.04.104a5.12 5.12 0 0 1-.487 1.58 5.045 5.045 0 0 0 .527-1.685m-7.671 1.698c-.097-.11-.154-.24-.219-.372.062.23.188.429.305.63l-.086-.258m-.433.017l-.04.2c.184.253.33.528.563.726-.168-.334-.293-.473-.523-.926m2.284-9.144l-.105.022.098-.009.007-.013m4.16 7.122c.016.43-.12.638-.243 1.008l-.22.114c-.182.365.017.232-.112.522-.283.261-.856.816-1.04.867-.134-.003.091-.165.12-.228-.377.27-.303.405-.88.57l-.017-.04c-1.424.697-3.403-.684-3.377-2.568-.015.12-.043.09-.074.137-.074-.97.43-1.943 1.28-2.34.831-.429 1.806-.253 2.401.324-.327-.445-.978-.918-1.75-.874-.755.013-1.462.512-1.698 1.055-.387.253-.432.977-.6 1.11-.228 1.735.426 2.485 1.533 3.367.173.122.049.14.072.234a3.017 3.017 0 0 1-.981-.78c.147.223.305.44.51.611-.346-.122-.81-.874-.944-.904.597 1.113 2.423 1.951 3.38 1.535-.442.017-1.005.01-1.502-.182-.21-.112-.493-.343-.442-.386 1.305.507 2.654.384 3.783-.558.287-.233.601-.629.692-.634-.136.214.024.103-.081.291.285-.48-.125-.195.295-.83l.156.223c-.059-.399.476-.883.421-1.514.123-.192.137.208.007.652.18-.492.048-.572.094-.978.05.137.116.282.15.426-.118-.476.12-.8.179-1.077-.059-.027-.182.21-.21-.352.004-.244.065-.128.089-.188-.046-.027-.167-.214-.24-.573.053-.084.142.219.215.23-.047-.284-.127-.502-.13-.72-.213-.461-.076.06-.247-.198-.226-.732.187-.17.215-.502.341.514.536 1.313.626 1.643a6.941 6.941 0 0 0-.314-1.171c.104.045-.167-.83.135-.25-.324-1.235-1.382-2.389-2.355-2.93.119.113.27.255.216.278-.485-.3-.4-.324-.47-.45-.394-.167-.42.013-.681 0-.744-.41-.887-.367-1.57-.624l.03.152c-.492-.17-.574.064-1.106 0-.032-.026.17-.095.338-.12-.476.065-.454-.098-.92.018.114-.084.236-.14.359-.21-.389.024-.928.234-.761.043-.634.294-1.759.707-2.39 1.322l-.02-.138c-.29.362-1.262 1.08-1.34 1.547l-.077.019c-.15.265-.247.565-.367.838-.197.35-.288.135-.26.19-.388.816-.58 1.502-.746 2.065.118.184.003 1.108.047 1.848-.194 3.653 2.465 7.2 5.372 8.018.426.16 1.06.154 1.598.17-.635-.19-.717-.101-1.337-.326-.447-.219-.545-.468-.861-.754l.125.23c-.62-.228-.36-.283-.866-.449l.134-.182c-.2-.015-.532-.352-.623-.539l-.22.01c-.264-.34-.405-.585-.395-.774l-.071.132c-.08-.144-.973-1.273-.51-1.01-.086-.082-.2-.133-.324-.368l.094-.112c-.223-.298-.41-.68-.396-.807.12.167.202.198.283.226-.562-1.451-.594-.08-1.02-1.477l.09-.008c-.069-.108-.111-.226-.167-.34l.04-.407c-.405-.487-.113-2.072-.055-2.94.04-.353.338-.73.564-1.32l-.138-.024c.264-.478 1.505-1.92 2.08-1.846.279-.364-.055-.002-.11-.093.612-.659.805-.465 1.217-.584.446-.275-.382.108-.17-.105.77-.204.545-.464 1.549-.568.106.062-.246.097-.334.178.641-.327 2.03-.252 2.931.18 1.046.51 2.222 2.013 2.268 3.427l.053.015c-.027.562.083 1.212-.107 1.81l.128-.283m-4.456-7.207c.15.027.322.048.297.085.164-.037.2-.07-.297-.085m3.109 6.994c.034-.512-.099-.35-.144-.155.052.028.094.361.144.155m-.554 1.465c.167-.234.288-.49.331-.754-.038.189-.137.351-.232.523-.522.335-.05-.198 0-.401-.561.719-.078.43-.099.632m-1.496.38c-.28.004.052.146.416.203.101-.08.192-.16.273-.24a2.05 2.05 0 0 1-.69.037" fill="#fff"/></g><g transform="translate(658.816 423.57) scale(3.25217)"><rect width="28.203" height="28.203" x="1.898" y="1.898" ry="5.575" fill="#fdf6f6" fill-rule="evenodd"/><path d="M16.097 11.028l-7.053 6.21-.004.003a.751.751 0 0 0-.225.538v6.373c0 .419.337.756.756.756h1.885v-6.964c.132-.002.586-.002.802.006h3.06a.799.799 0 0 1 .803.802v6.156h6.508a.754.754 0 0 0 .755-.756V17.78a.745.745 0 0 0-.263-.565h.014zm2.036 6.914h1.84c.418 0 .755.337.755.756v1.84a.754.754 0 0 1-.755.755h-1.84a.754.754 0 0 1-.755-.756v-1.84c0-.418.337-.755.755-.755z" opacity=".651" fill="#686868"/><path d="M15.997 10.928l-7.053 6.21-.004.003a.751.751 0 0 0-.225.538v6.373c0 .419.337.756.755.756h1.885v-6.964c.133-.002.586-.002.803.006h3.06a.799.799 0 0 1 .802.802v6.156h6.508a.754.754 0 0 0 .756-.756V17.68a.745.745 0 0 0-.264-.564h.014zm2.036 6.914h1.84c.418 0 .755.337.755.756v1.84a.754.754 0 0 1-.756.755h-1.84a.754.754 0 0 1-.755-.756v-1.84c0-.418.337-.755.756-.755z" fill="#606d77"/><path d="M16.078 7.288c-.016 0-.03.009-.046.011a.427.427 0 0 0-.11.03c-.008.003-.016.009-.024.013-.033.017-.067.03-.096.055l-9.513 8.365a.443.443 0 0 0-.04.626l.683.778a.443.443 0 0 0 .626.04L16.1 9.695l8.542 7.511a.442.442 0 0 0 .625-.04l.685-.778a.443.443 0 0 0-.04-.626l-3.55-3.122v-2.366a.754.754 0 0 0-.756-.756h-.5a.754.754 0 0 0-.756.756v.598l-3.952-3.475c-.028-.024-.061-.037-.093-.053l-.028-.016a.424.424 0 0 0-.108-.029c-.024-.004-.046-.008-.07-.008-.007 0-.014-.004-.021-.004z" opacity=".651" fill="#686868"/><path d="M15.977 7.188c-.015 0-.03.009-.045.012a.427.427 0 0 0-.11.029l-.025.014c-.032.016-.067.03-.095.055l-9.514 8.365a.443.443 0 0 0-.04.626l.684.778a.443.443 0 0 0 .626.04l8.541-7.512 8.543 7.511a.442.442 0 0 0 .625-.04l.684-.777a.443.443 0 0 0-.04-.626l-3.55-3.122v-2.367a.754.754 0 0 0-.756-.755h-.5a.754.754 0 0 0-.755.755v.598l-3.953-3.474c-.028-.025-.06-.038-.092-.054l-.028-.015a.424.424 0 0 0-.109-.03c-.023-.003-.045-.007-.069-.008-.007 0-.014-.004-.022-.003z" fill="#42a3ce"/><path d="M11.455 17.944l3.126 1.034v5.016l-3.126.918z" opacity=".651" fill="#686868"/><path d="M11.355 17.844l3.127 1.034v5.016l-3.127.918z" fill="#9dabb1"/><circle r=".296" cy="21.653" cx="13.776" opacity=".651" fill="#2d3539"/><circle r=".296" cy="21.611" cx="13.753" fill="#c2dbe6"/></g><g transform="translate(758.476 622.89) scale(3.25217)"><rect width="28.203" height="28.203" x="1.898" y="1.898" ry="5.575" fill="url(#aj)" fill-rule="evenodd"/><g paint-order="fill markers stroke"><path d="M20.643 14.128l2.814-2.689 1.146 7.79z" fill="url(#ak)" transform="translate(-.196 -.085)"/><path d="M20.643 14.128l3.96 5.1-6.726 5.315c.92-3.46 1.814-6.964 2.766-10.415z" fill="url(#al)" transform="translate(-.196 -.085)"/><path d="M14.849 21.126c-1.66-1.895-3.019-3.457-3.018-3.472.002-.03 8.812-3.526 8.812-3.526l-2.766 10.415c-.001-.002-1.369-1.522-3.028-3.417z" fill="url(#am)" transform="translate(-.196 -.085)"/><path d="M7.79 14.606l4.041 3.048-1.986 4.693z" fill="url(#an)" transform="translate(-.196 -.085)"/><path d="M7.79 14.606l7.27-6.98-3.229 10.028z" fill="url(#ao)" transform="translate(-.196 -.085)"/><path d="M13.798 23.455c-2.165-.601-3.944-1.1-3.953-1.108-.018-.015 1.986-4.693 1.986-4.693l6.046 6.89s-1.913-.487-4.079-1.089z" fill="url(#ap)" transform="translate(-.196 -.085)"/><path d="M13.421 12.588l1.639-4.962 2.678 3.123c.985 1.122 2.905 3.38 2.905 3.379L16.26 15.89a708.48 708.48 0 0 1-4.429 1.764c.489-1.787 1.103-3.567 1.59-5.066z" fill="url(#aq)" transform="translate(-.196 -.085)"/><path d="M17.89 10.959c-1.51-1.756-2.83-3.333-2.83-3.333l8.397 3.813-2.814 2.689c-.001 0-1.244-1.414-2.754-3.17z" fill="url(#ar)" transform="translate(-.196 -.085)"/></g></g><g><path d="M956.021 662.312V647.02a17.904 17.904 0 0 0-17.946-17.946h-15.292z" fill="#ff5722" fill-rule="evenodd"/><path d="M917.152 629.355H882.92c-9.94 0-17.946 8-17.946 17.94v54.88c0 9.94 8.005 17.946 17.946 17.946h54.88c9.94 0 17.94-8.006 17.94-17.946v-34.232z" fill="#f6efec" fill-rule="evenodd"/><path d="M917.11 629.344l38.64 38.64v-5.369l-33.27-33.27z" fill="#f6efec" fill-rule="evenodd"/><path style="line-height:normal;font-variant-ligatures:normal;font-variant-position:normal;font-variant-caps:normal;font-variant-numeric:normal;font-variant-alternates:normal;font-feature-settings:normal;text-indent:0;text-align:start;text-decoration-line:none;text-decoration-style:solid;text-decoration-color:#000;text-transform:none;text-orientation:mixed;white-space:normal;shape-padding:0;isolation:auto;mix-blend-mode:normal;solid-color:#000;solid-opacity:1" d="M883.635 629.064c-10.672 0-19.326 8.646-19.326 19.319v53.077c0 10.673 8.653 19.326 19.326 19.326h53.077c10.672 0 19.32-8.654 19.32-19.326v-33.108l-.575-1.392-37.322-37.322-1.392-.574zm0 3.945h32.29l36.161 36.16v32.291c0 8.554-6.82 15.38-15.374 15.38h-53.077a15.306 15.306 0 0 1-15.38-15.38v-53.077c0-8.553 6.826-15.374 15.38-15.374z" color="#000" font-weight="400" font-family="sans-serif" overflow="visible" fill="#ff5722" fill-rule="evenodd"/><g transform="matrix(3.19598 0 0 3.19598 871.485 657.767)" fill="#ff5722"><path d="M6.89 2.173a3.39 3.39 0 0 0-2.937 1.695 3.39 3.39 0 0 0 0 3.389 3.39 3.39 0 0 0 2.05 1.574 3.39 3.39 0 0 0 .284.064 3.39 3.39 0 0 0 .193.031 3.39 3.39 0 0 0 .092.012 3.39 3.39 0 0 0 2.053-.432 3.39 3.39 0 0 0 1.695-2.935H6.89z"/><rect width="8.711" height="1.307" x="12.117" y="2.958" ry=".653"/><rect width="8.711" height="1.307" x="12.117" y="6.878" ry=".653"/><rect width="13.073" height="1.307" x="4.277" y="10.798" ry=".653"/></g></g><g transform="matrix(3.25198 0 0 3.25198 758.48 523.232)"><rect width="28.203" height="28.203" x="1.897" y="1.899" ry="5.575" fill="url(#as)" fill-rule="evenodd"/><g fill-rule="evenodd"><path d="M19.317 20.559c-4.917.449-8.675 3.143-14.438 2.848-1.178-.108-2.15-.335-2.982-.647v1.768c0 .63.1 1.234.291 1.799.939-.5 1.937-.923 2.861-1.15a13.634 13.634 0 0 1 3.127-.378c2.09-.024 4.207.336 6.44.647 1.116.155 2.26.299 3.445.377 1.185.078 2.41.089 3.686-.018a20.586 20.586 0 0 0 3.992-.73c1.389-.4 2.84-.971 4.363-1.77-4.47-2.475-7.835-3.015-10.785-2.746z" fill="#c9d9dd"/><path d="M30.102 23.305a23.141 23.141 0 0 1-4.363 1.77 20.586 20.586 0 0 1-3.992.73c-1.276.107-2.5.096-3.686.018a47.427 47.427 0 0 1-3.445-.377c-2.233-.311-4.35-.67-6.44-.647-1.045.012-2.084.12-3.127.377-.924.228-1.922.65-2.861 1.15a5.57 5.57 0 0 0 5.285 3.776h17.053a5.563 5.563 0 0 0 5.576-5.574z" fill="#afc9d3"/></g><path d="M8.084 5.741a2.091 2.091 0 1 1 0 4.183 2.091 2.091 0 0 1 0-4.183z" fill="#fcea84" fill-rule="evenodd"/><g transform="matrix(.71947 0 0 .71467 31.488 8.225)"><path d="M-21.575.17c-2.168 0-4.037 2.017-4.037 4.522 0 5.651-3.23 6.217-3.23 10.173 0 4.37 3.254 7.912 7.267 7.912s7.266-3.543 7.266-7.912c0-3.956-3.23-4.522-3.23-10.173 0-2.505-1.868-4.521-4.036-4.521z" fill="#2d4860"/><path d="M-21.575 6.63c-1.445 0-2.422 1.224-2.422 2.745 0 3.43-2.422 3.774-2.422 6.176 0 2.653 2.169 4.804 4.844 4.804 2.675 0 4.844-2.151 4.844-4.804 0-2.402-2.422-2.745-2.422-6.176 0-1.521-.977-2.745-2.422-2.745z" fill="#fff"/><path d="M-25.193 22.76c-.243-.039-.459-.111-.93-.315-.702-.302-1.029-.4-2.313-.694-.641-.146-.88-.21-1.436-.39a24.28 24.28 0 0 0-.599-.186c-.345-.1-.437-.138-.563-.238a.612.612 0 0 1-.223-.58c.02-.149.072-.293.217-.594.192-.404.67-.549.7-.946.017-.233.003-.496-.056-1.043a5.202 5.202 0 0 1-.044-.649c0-.223.003-.068.026-.153.086-.32.152-.505.458-.585.088-.023-.097-.026.319-.034a4.84 4.84 0 0 0 .441-.023.865.865 0 0 0 .432-.224c.116-.11.195-.707.346-.976.235-.415.7-.411 1.079-.427a.691.691 0 0 1 .261.106.85.85 0 0 1 .255.205c.26.276.383.446.965 1.327.46.699.602.922.787 1.25.203.357.568.93.703 1.103l.312.396c.149.188.284.365.302.392.28.389.475.836.545 1.283.023.156.024.183.01.36-.016.227-.03.324-.055.374a1.7 1.7 0 0 0-.048.12 1.772 1.772 0 0 1-1.361 1.142c-.131.021-.391.021-.53 0zM-15.753 22.49c.186-.13.334-.276.64-.632.457-.531.445-.744 1.39-1.505.47-.379.641-.529 1.028-.9.14-.136.33-.313.42-.395.245-.22.305-.29.368-.422a.544.544 0 0 0-.056-.56c-.078-.112-.181-.208-.426-.393-.327-.248-.42-.462-.61-.771-.111-.182.034-.643-.144-1.11a4.651 4.651 0 0 0-.233-.543c-.092-.181-.111-.212-.165-.272-.205-.224-.432-.3-.719-.24-.083.018-.132.038-.48.2-.217.102-.411.188-.442.195a.797.797 0 0 1-.45-.008c-.143-.042-.255.253-.492.097-.162-.106-.336-.239-.461-.273-.173-.048-.172-.048-.334-.03a.742.742 0 0 0-.397.163.641.641 0 0 0-.173.191.774.774 0 0 0-.126.27c-.1.33-.133.518-.25 1.468-.092.753-.116.991-.134 1.332-.02.372-.085.984-.126 1.18l-.094.447c-.045.213-.084.412-.088.44-.07.43-.047.871.081 1.262.045.136.056.157.14.296.108.177.16.25.201.28.017.011.057.046.09.077a1.67 1.67 0 0 0 1.603.37c.118-.035.333-.142.44-.216z" fill="#eab108"/><circle r="1.615" cy="4.207" cx="-23.19" fill="#fff"/><circle r=".807" cy="4.207" cx="-23.19" fill="#323232"/><path d="M-19.153 6.226c0 1.56-1.084 2.826-2.422 2.826s-2.422-1.265-2.422-2.826z" fill="#f77d00"/><circle r="1.615" cy="4.207" cx="-19.96" fill="#fff"/><circle r=".807" cy="4.207" cx="-19.96" fill="#323232"/><path d="M-19.153 6.36c0 .27-1.084 1.884-2.422 1.884s-2.422-1.614-2.422-1.883c0-.744 1.084-1.346 2.422-1.346s2.422.602 2.422 1.346z" fill="#eab108"/><path d="M-15.56 17.165c-.93 0-.936-.773-1.122-1.684-.206-1.014-.338-1.6 1.28-1.684 1.402-.46 1.618 3.314-.157 3.368z" fill="#2c4963"/></g></g><g transform="translate(858.135 523.23) scale(3.2522)"><path d="M30.102 21.967H1.898v2.56a5.563 5.563 0 0 0 5.577 5.575h17.052a5.561 5.561 0 0 0 5.575-5.575z" fill="#ccc" fill-rule="evenodd"/><path d="M7.475 1.898a5.565 5.565 0 0 0-5.577 5.577v14.492h28.204V7.475a5.563 5.563 0 0 0-5.575-5.577z" fill="#424647" fill-rule="evenodd"/><path d="M12.882 8.319c-.245 0-.444.2-.444.445v9.11c0 .338.361.552.657.39l8.335-4.555a.445.445 0 0 0 0-.78l-7.502-4.1-.833-.455a.442.442 0 0 0-.213-.054z" opacity=".647" fill="#233237"/><path d="M12.782 8.22c-.245 0-.444.199-.444.444v9.11c0 .338.361.553.657.39l8.335-4.555a.445.445 0 0 0 0-.78L13.828 8.73l-.833-.455a.442.442 0 0 0-.213-.055z" fill="#da2570"/><rect x="20" y="24.779" width="8" height="2" ry="1" opacity=".647" fill="#040404"/><rect x="20" y="24.779" width="8" height="2" ry="1" fill="#999"/><rect x="4" y="24.779" width="16" height="2" ry="1" opacity=".647" fill="#9ea7a9"/><rect x="4" y="24.779" width="16" height="2" ry="1" opacity=".99" fill="#da2570"/><circle r="2" cy="25.78" cx="19.9" fill="#ef2078"/><circle r="2" cy="25.78" cx="20" fill="#da2570"/></g></g></svg>