<?xml version="1.0" encoding="UTF-8" standalone="no"?>
<!-- Created with Inkscape (http://www.inkscape.org/) -->

<svg
   xmlns:osb="http://www.openswatchbook.org/uri/2009/osb"
   xmlns:dc="http://purl.org/dc/elements/1.1/"
   xmlns:cc="http://creativecommons.org/ns#"
   xmlns:rdf="http://www.w3.org/1999/02/22-rdf-syntax-ns#"
   xmlns:svg="http://www.w3.org/2000/svg"
   xmlns="http://www.w3.org/2000/svg"
   xmlns:xlink="http://www.w3.org/1999/xlink"
   xmlns:sodipodi="http://sodipodi.sourceforge.net/DTD/sodipodi-0.dtd"
   xmlns:inkscape="http://www.inkscape.org/namespaces/inkscape"
   width="1920mm"
   height="1200mm"
   viewBox="0 0 1920 1200"
   version="1.1"
   id="svg7365"
   inkscape:version="0.92.4 5da689c313, 2019-01-14"
   sodipodi:docname="screenshot.svg"
   inkscape:export-filename="screenshot.png"
   inkscape:export-xdpi="25.4"
   inkscape:export-ydpi="25.4">
  <defs
     id="defs7359">
    <linearGradient
       id="linearGradient1874">
      <stop
         id="stop1870"
         offset="0"
         style="stop-color:#b4ff5c;stop-opacity:0.25882354" />
      <stop
         id="stop1872"
         offset="1"
         style="stop-color:#8e80cb;stop-opacity:0;" />
    </linearGradient>
    <linearGradient
       id="linearGradient11239"
       osb:paint="gradient">
      <stop
         style="stop-color:#ff9a00;stop-opacity:1;"
         offset="0"
         id="stop11235" />
      <stop
         style="stop-color:#fc8e37;stop-opacity:0;"
         offset="1"
         id="stop11237" />
    </linearGradient>
    <circle
       inkscape:export-ydpi="300"
       inkscape:export-xdpi="300"
       style="fill:none;stroke:none;stroke-width:0.20904776;stroke-opacity:1"
       r="70.319656"
       cy="102.69505"
       cx="102.6315"
       id="path12-3-6-7-4-6-4-2-8-7-1-4-1-7-1-7-8-4-4-3-2-0-36-4-8-2-5-6-1-6-0-0-0-49-0-2-31-7-39-3-8-3-1" />
    <linearGradient
       id="linearGradient4644">
      <stop
         style="stop-color:#ff7730;stop-opacity:1;"
         offset="0"
         id="stop4640" />
      <stop
         style="stop-color:#8e80cb;stop-opacity:0;"
         offset="1"
         id="stop4642" />
    </linearGradient>
    <linearGradient
       id="linearGradient4534">
      <stop
         style="stop-color:#666666;stop-opacity:1"
         offset="0"
         id="stop4530" />
      <stop
         style="stop-color:#333333;stop-opacity:1"
         offset="1"
         id="stop4532" />
    </linearGradient>
    <linearGradient
       inkscape:collect="always"
       xlink:href="#linearGradient827"
       id="linearGradient829"
       x1="15.180699"
       y1="28.609314"
       x2="15.180699"
       y2="3.5070236"
       gradientUnits="userSpaceOnUse"
       gradientTransform="matrix(3.3186888,0,0,3.3186888,-800.0002,-818.20304)" />
    <linearGradient
       inkscape:collect="always"
       id="linearGradient827">
      <stop
         style="stop-color:#55a5c9;stop-opacity:1"
         offset="0"
         id="stop823" />
      <stop
         style="stop-color:#abd5ea;stop-opacity:1"
         offset="1"
         id="stop825" />
    </linearGradient>
    <linearGradient
       inkscape:collect="always"
       xlink:href="#linearGradient889"
       id="linearGradient891"
       x1="-34.169491"
       y1="21.288134"
       x2="-13.152541"
       y2="7.4576254"
       gradientUnits="userSpaceOnUse"
       gradientTransform="matrix(4.2899864,0,0,5.2429462,-645.16621,-840.13995)" />
    <linearGradient
       inkscape:collect="always"
       id="linearGradient889">
      <stop
         style="stop-color:#8998ad;stop-opacity:1"
         offset="0"
         id="stop885" />
      <stop
         style="stop-color:#ceeaf2;stop-opacity:1"
         offset="1"
         id="stop887" />
    </linearGradient>
    <linearGradient
       inkscape:collect="always"
       xlink:href="#linearGradient990"
       id="linearGradient829-3"
       x1="16.87215"
       y1="28.452196"
       x2="16.87215"
       y2="6.7922716"
       gradientUnits="userSpaceOnUse"
       gradientTransform="matrix(3.3186888,0,0,3.3186888,-800.0002,-818.20304)" />
    <linearGradient
       id="linearGradient990"
       inkscape:collect="always">
      <stop
         id="stop986"
         offset="0"
         style="stop-color:#2a88ae;stop-opacity:1" />
      <stop
         id="stop988"
         offset="1"
         style="stop-color:#71b9d9;stop-opacity:1" />
    </linearGradient>
    <linearGradient
       inkscape:collect="always"
       xlink:href="#linearGradient827-8"
       id="linearGradient829-6"
       x1="15.180699"
       y1="28.609314"
       x2="15.180699"
       y2="3.5070236"
       gradientUnits="userSpaceOnUse"
       gradientTransform="matrix(3.3186888,0,0,3.3186888,-376.61823,-818.20298)" />
    <linearGradient
       inkscape:collect="always"
       id="linearGradient827-8">
      <stop
         style="stop-color:#2aae73;stop-opacity:1"
         offset="0"
         id="stop823-4" />
      <stop
         style="stop-color:#b6eaab;stop-opacity:1"
         offset="1"
         id="stop825-8" />
    </linearGradient>
    <linearGradient
       inkscape:collect="always"
       xlink:href="#linearGradient834"
       id="linearGradient891-8"
       x1="-34.169491"
       y1="21.288134"
       x2="-13.152541"
       y2="7.4576254"
       gradientUnits="userSpaceOnUse"
       gradientTransform="matrix(4.2899864,0,0,5.2429462,-221.78426,-840.18279)" />
    <linearGradient
       id="linearGradient834"
       inkscape:collect="always">
      <stop
         id="stop830"
         offset="0"
         style="stop-color:#8998ad;stop-opacity:1" />
      <stop
         id="stop832"
         offset="1"
         style="stop-color:#cef2e1;stop-opacity:1" />
    </linearGradient>
    <linearGradient
       inkscape:collect="always"
       xlink:href="#linearGradient990-1"
       id="linearGradient829-3-5"
       x1="16.87215"
       y1="28.452196"
       x2="16.87215"
       y2="6.7922716"
       gradientUnits="userSpaceOnUse"
       gradientTransform="matrix(3.3186888,0,0,3.3186888,-376.61823,-818.20298)" />
    <linearGradient
       id="linearGradient990-1"
       inkscape:collect="always">
      <stop
         id="stop986-2"
         offset="0"
         style="stop-color:#2aae73;stop-opacity:1" />
      <stop
         id="stop988-0"
         offset="1"
         style="stop-color:#71d997;stop-opacity:1" />
    </linearGradient>
    <linearGradient
       inkscape:collect="always"
       xlink:href="#linearGradient827-1"
       id="linearGradient829-5"
       x1="15.180699"
       y1="28.609314"
       x2="15.180699"
       y2="3.5070236"
       gradientUnits="userSpaceOnUse"
       gradientTransform="matrix(3.3186888,0,0,3.3186888,-496.6182,-818.20305)" />
    <linearGradient
       inkscape:collect="always"
       id="linearGradient827-1">
      <stop
         style="stop-color:#c99d55;stop-opacity:1"
         offset="0"
         id="stop823-0" />
      <stop
         style="stop-color:#eadfab;stop-opacity:1"
         offset="1"
         id="stop825-6" />
    </linearGradient>
    <linearGradient
       inkscape:collect="always"
       xlink:href="#linearGradient889-4"
       id="linearGradient891-9"
       x1="-34.169491"
       y1="21.288134"
       x2="-13.152541"
       y2="7.4576254"
       gradientUnits="userSpaceOnUse"
       gradientTransform="matrix(4.2899864,0,0,5.2429462,-341.78425,-840.17067)" />
    <linearGradient
       inkscape:collect="always"
       id="linearGradient889-4">
      <stop
         style="stop-color:#8998ad;stop-opacity:1"
         offset="0"
         id="stop885-6" />
      <stop
         style="stop-color:#ebeae8;stop-opacity:1"
         offset="1"
         id="stop887-8" />
    </linearGradient>
    <linearGradient
       inkscape:collect="always"
       xlink:href="#linearGradient990-4"
       id="linearGradient829-3-1"
       x1="16.87215"
       y1="28.452196"
       x2="16.87215"
       y2="6.7922716"
       gradientUnits="userSpaceOnUse"
       gradientTransform="matrix(3.3186888,0,0,3.3186888,-496.6182,-818.20305)" />
    <linearGradient
       id="linearGradient990-4"
       inkscape:collect="always">
      <stop
         id="stop986-0"
         offset="0"
         style="stop-color:#ae7e2a;stop-opacity:1" />
      <stop
         id="stop988-3"
         offset="1"
         style="stop-color:#d9bd71;stop-opacity:1" />
    </linearGradient>
    <radialGradient
       inkscape:collect="always"
       xlink:href="#linearGradient834-1"
       id="radialGradient836"
       cx="16.629717"
       cy="19.651772"
       fx="16.629717"
       fy="19.651772"
       r="6.3438816"
       gradientTransform="matrix(0.00133743,2.1056361,-1.6002729,0.00101647,47.13877,-17.554694)"
       gradientUnits="userSpaceOnUse" />
    <linearGradient
       inkscape:collect="always"
       id="linearGradient834-1">
      <stop
         style="stop-color:#ffffff;stop-opacity:1"
         offset="0"
         id="stop830-2" />
      <stop
         style="stop-color:#019cff;stop-opacity:1"
         offset="1"
         id="stop832-5" />
    </linearGradient>
    <radialGradient
       inkscape:collect="always"
       xlink:href="#linearGradient842"
       id="radialGradient846"
       cx="14.69274"
       cy="18.676962"
       fx="14.69274"
       fy="18.676962"
       r="6.3276706"
       gradientTransform="matrix(1.7754884,-0.013369,0.01330633,1.7671737,-10.009805,-14.877876)"
       gradientUnits="userSpaceOnUse" />
    <linearGradient
       inkscape:collect="always"
       id="linearGradient842">
      <stop
         style="stop-color:#ffffff;stop-opacity:1"
         offset="0"
         id="stop838" />
      <stop
         style="stop-color:#3fb7ff;stop-opacity:1"
         offset="1"
         id="stop840" />
    </linearGradient>
    <linearGradient
       gradientTransform="matrix(3.2422036,0,0,3.2422036,1158.0512,-415.7761)"
       inkscape:collect="always"
       xlink:href="#linearGradient827-4"
       id="linearGradient829-1"
       x1="15.180699"
       y1="28.609314"
       x2="15.180699"
       y2="3.5070236"
       gradientUnits="userSpaceOnUse" />
    <linearGradient
       inkscape:collect="always"
       id="linearGradient827-4">
      <stop
         style="stop-color:#c99d55;stop-opacity:1"
         offset="0"
         id="stop823-2" />
      <stop
         style="stop-color:#ffa687;stop-opacity:1"
         offset="1"
         id="stop825-4" />
    </linearGradient>
    <linearGradient
       inkscape:collect="always"
       xlink:href="#linearGradient889-9"
       id="linearGradient891-7"
       x1="-34.169491"
       y1="21.288134"
       x2="-13.152541"
       y2="7.4576254"
       gradientUnits="userSpaceOnUse"
       gradientTransform="matrix(4.1911158,0,0,5.122113,1309.3427,-437.4039)" />
    <linearGradient
       inkscape:collect="always"
       id="linearGradient889-9">
      <stop
         style="stop-color:#8998ad;stop-opacity:1"
         offset="0"
         id="stop885-9" />
      <stop
         style="stop-color:#f6e4dc;stop-opacity:1"
         offset="1"
         id="stop887-1" />
    </linearGradient>
    <linearGradient
       gradientTransform="matrix(3.2422036,0,0,3.2422036,1158.0512,-415.7761)"
       inkscape:collect="always"
       xlink:href="#linearGradient990-8"
       id="linearGradient829-3-4"
       x1="16.87215"
       y1="28.452196"
       x2="16.87215"
       y2="6.7922716"
       gradientUnits="userSpaceOnUse" />
    <linearGradient
       id="linearGradient990-8"
       inkscape:collect="always">
      <stop
         id="stop986-08"
         offset="0"
         style="stop-color:#ff3f68;stop-opacity:1" />
      <stop
         id="stop988-2"
         offset="1"
         style="stop-color:#ff713f;stop-opacity:1" />
    </linearGradient>
    <linearGradient
       gradientTransform="matrix(3.242178,0,0,3.242178,1273.334,-415.7754)"
       inkscape:collect="always"
       xlink:href="#linearGradient827-2"
       id="linearGradient829-4"
       x1="15.180699"
       y1="28.609314"
       x2="15.180699"
       y2="3.5070236"
       gradientUnits="userSpaceOnUse" />
    <linearGradient
       inkscape:collect="always"
       id="linearGradient827-2">
      <stop
         style="stop-color:#5e737b;stop-opacity:1"
         offset="0"
         id="stop823-7" />
      <stop
         style="stop-color:#ccd7db;stop-opacity:1"
         offset="1"
         id="stop825-2" />
    </linearGradient>
    <linearGradient
       inkscape:collect="always"
       xlink:href="#linearGradient889-47"
       id="linearGradient891-1"
       x1="-34.169491"
       y1="21.288134"
       x2="-13.152541"
       y2="7.4576254"
       gradientUnits="userSpaceOnUse"
       gradientTransform="matrix(4.1910827,0,0,5.1220725,1424.6242,-437.41469)" />
    <linearGradient
       inkscape:collect="always"
       id="linearGradient889-47">
      <stop
         style="stop-color:#8998ad;stop-opacity:1"
         offset="0"
         id="stop885-63" />
      <stop
         style="stop-color:#e8eaeb;stop-opacity:1"
         offset="1"
         id="stop887-89" />
    </linearGradient>
    <linearGradient
       gradientTransform="matrix(3.242178,0,0,3.242178,1273.334,-415.7754)"
       inkscape:collect="always"
       xlink:href="#linearGradient990-6"
       id="linearGradient829-3-42"
       x1="16.87215"
       y1="28.452196"
       x2="16.87215"
       y2="6.7922716"
       gradientUnits="userSpaceOnUse" />
    <linearGradient
       id="linearGradient990-6"
       inkscape:collect="always">
      <stop
         id="stop986-3"
         offset="0"
         style="stop-color:#5e737b;stop-opacity:1" />
      <stop
         id="stop988-27"
         offset="1"
         style="stop-color:#a0b1b7;stop-opacity:1" />
    </linearGradient>
  </defs>
  <sodipodi:namedview
     id="base"
     pagecolor="#ffffff"
     bordercolor="#666666"
     borderopacity="1.0"
     inkscape:pageopacity="0.0"
     inkscape:pageshadow="2"
     inkscape:zoom="0.093303299"
     inkscape:cx="4114.0141"
     inkscape:cy="1818.4664"
     inkscape:document-units="mm"
     inkscape:current-layer="layer1"
     showgrid="false"
     inkscape:window-width="1920"
     inkscape:window-height="1027"
     inkscape:window-x="0"
     inkscape:window-y="27"
     inkscape:window-maximized="1"
     inkscape:snap-global="false"
     showguides="true"
     inkscape:guide-bbox="true" />
  <metadata
     id="metadata7362">
    <rdf:RDF>
      <cc:Work
         rdf:about="">
        <dc:format>image/svg+xml</dc:format>
        <dc:type
           rdf:resource="http://purl.org/dc/dcmitype/StillImage" />
        <dc:title />
      </cc:Work>
    </rdf:RDF>
  </metadata>
  <g
     inkscape:label="Layer 1"
     inkscape:groupmode="layer"
     id="layer1"
     transform="translate(0,903)">
    <rect
       style="opacity:1;fill:#516b7b;fill-opacity:1;fill-rule:evenodd;stroke:none;stroke-width:0.32506654;stroke-linecap:round;stroke-linejoin:bevel;stroke-miterlimit:4;stroke-dasharray:none;stroke-dashoffset:0;stroke-opacity:1"
       id="rect5364-5-2"
       width="1920.0001"
       height="1200"
       x="-6.1035156e-05"
       y="-903"
       ry="0"
       inkscape:export-xdpi="25.4"
       inkscape:export-ydpi="25.4"
       inkscape:export-filename="screenshot.png" />
    <g
       id="g1555"
       inkscape:export-xdpi="25.4"
       inkscape:export-ydpi="25.4"
       transform="translate(1599.1415,400.23844)">
      <path
         style="fill:url(#linearGradient829);fill-opacity:1;stroke:none;stroke-width:0.48173672;stroke-miterlimit:4;stroke-dasharray:none;stroke-opacity:1"
         d="m -707.40104,-795.68474 c 3.87866,0 7.0012,3.1225 7.0012,7.0012 v 58.4438 c 0,3.8787 -3.12254,7.0013 -7.0012,7.0013 h -79.00922 c -3.87867,0 -7.00138,-3.1226 -7.0012,-7.0013 l 0.002,-53.9104 0.002,-16.8155 c 0,-3.1123 2.50553,-5.6178 5.61779,-5.6178 h 30.1696 c 3.11226,0 5.65783,1.2323 7.63262,3.6378 l 5.97982,7.284 z"
         id="rect4549"
         inkscape:connector-curvature="0"
         sodipodi:nodetypes="sssssscsssscs" />
      <rect
         style="opacity:1;vector-effect:none;fill:url(#linearGradient891);fill-opacity:1;fill-rule:nonzero;stroke:none;stroke-width:0.68842864;stroke-linecap:butt;stroke-linejoin:miter;stroke-miterlimit:4;stroke-dasharray:none;stroke-dashoffset:0;stroke-opacity:1;paint-order:markers stroke fill"
         id="rect883"
         width="90.16243"
         height="72.512611"
         x="-791.75287"
         y="-801.04004"
         transform="matrix(0.99999999,1.0125852e-4,-6.7794228e-5,1,0,0)"
         inkscape:transform-center-x="60.560819"
         inkscape:transform-center-y="-84.422078" />
      <path
         style="fill:url(#linearGradient829-3);fill-opacity:1;stroke:none;stroke-width:0.33186889;stroke-miterlimit:4;stroke-dasharray:none;stroke-opacity:1"
         d="m -707.40104,-795.68474 c 3.87866,0 7.0012,3.1225 7.0012,7.0012 v 58.4438 c 0,3.8787 -3.12254,7.0013 -7.0012,7.0013 h -79.00922 c -3.87867,0 -7.00138,-3.1226 -7.0012,-7.0013 l 0.002,-53.9104 0.37488,-14.2084 c 0.0821,-3.1111 2.13309,-4.8729 5.24534,-4.8729 h 29.79715 c 3.11226,0 6.06475,0.4379 8.37751,2.5205 l 5.60738,5.0493 z"
         id="rect4549-9-1"
         inkscape:connector-curvature="0"
         sodipodi:nodetypes="sssssscsssscs" />
    </g>
    <g
       id="g1195"
       transform="translate(8.39579,45.97887)"
       inkscape:export-xdpi="25.4"
       inkscape:export-ydpi="25.4">
      <path
         d="m 611.68321,-670.85718 h 8.40182 v -39.3977 h 43.48507 v 39.3977 h 8.40181 v -83.90461 h -8.40181 v 36.89986 h -43.48507 v -36.89986 h -8.40182 z"
         style="font-style:normal;font-variant:normal;font-weight:normal;font-stretch:normal;font-size:medium;line-height:1.25;font-family:'URW Gothic L';-inkscape-font-specification:'URW Gothic L';letter-spacing:0px;word-spacing:0px;fill:#ffffff;fill-opacity:1;stroke:#ffffff;stroke-width:0.15800001;stroke-miterlimit:4;stroke-dasharray:none;stroke-opacity:1"
         id="path1164"
         inkscape:connector-curvature="0" />
      <path
         d="m 750.03996,-699.12815 c 0,-8.51535 -1.13538,-13.7381 -4.20091,-19.18793 -5.56337,-9.87781 -16.34948,-16.1224 -28.15744,-16.1224 -18.05254,0 -32.2448,14.19225 -32.2448,32.2448 0,18.39317 14.41933,32.8125 32.81249,32.8125 7.94767,0 15.44118,-2.95199 21.11808,-8.28828 4.42798,-4.20091 7.37997,-8.51535 9.08304,-13.62456 h -8.74243 c -3.51968,8.51535 -12.2621,14.19225 -21.68576,14.19225 -12.71626,0 -23.50238,-9.76427 -24.1836,-22.02638 z m -55.97426,-7.60705 c 2.27076,-11.92149 11.69442,-19.98269 23.50238,-19.98269 12.03503,0 21.23161,7.60705 24.07006,19.98269 z"
         style="font-style:normal;font-variant:normal;font-weight:normal;font-stretch:normal;font-size:medium;line-height:1.25;font-family:'URW Gothic L';-inkscape-font-specification:'URW Gothic L';letter-spacing:0px;word-spacing:0px;fill:#ffffff;fill-opacity:1;stroke:#ffffff;stroke-width:0.15800001;stroke-miterlimit:4;stroke-dasharray:none;stroke-opacity:1"
         id="path1166"
         inkscape:connector-curvature="0" />
      <path
         d="m 761.6652,-732.96249 v 83.90462 h 8.40181 v -32.47188 c 5.44983,7.94766 13.85164,12.14857 24.1836,12.14857 18.5067,0 32.92603,-14.19226 32.92603,-32.35834 0,-18.50671 -14.19225,-32.69896 -32.69895,-32.69896 -10.55904,0 -19.18793,4.31445 -24.41068,12.14857 v -10.67258 z m 32.47187,6.2446 c 13.96518,0 24.52422,10.67257 24.52422,24.97837 0,13.96517 -10.55904,24.63775 -24.41068,24.63775 -14.19225,0 -24.75129,-10.78611 -24.75129,-25.09191 0,-13.7381 10.89965,-24.52421 24.63775,-24.52421 z"
         style="font-style:normal;font-variant:normal;font-weight:normal;font-stretch:normal;font-size:medium;line-height:1.25;font-family:'URW Gothic L';-inkscape-font-specification:'URW Gothic L';letter-spacing:0px;word-spacing:0px;fill:#ffffff;fill-opacity:1;stroke:#ffffff;stroke-width:0.15800001;stroke-miterlimit:4;stroke-dasharray:none;stroke-opacity:1"
         id="path1168"
         inkscape:connector-curvature="0" />
      <path
         d="m 846.89146,-649.05787 h 8.9695 l 35.87802,-83.90462 h -8.9695 l -21.00454,49.50259 -19.64208,-49.50259 h -9.19658 l 24.07006,60.06163 z"
         style="font-style:normal;font-variant:normal;font-weight:normal;font-stretch:normal;font-size:medium;line-height:1.25;font-family:'URW Gothic L';-inkscape-font-specification:'URW Gothic L';letter-spacing:0px;word-spacing:0px;fill:#ffffff;fill-opacity:1;stroke:#ffffff;stroke-width:0.15800001;stroke-miterlimit:4;stroke-dasharray:none;stroke-opacity:1"
         id="path1170"
         inkscape:connector-curvature="0" />
      <path
         d="m 931.30698,-670.85718 h 8.28828 l 38.14878,-50.52443 v 50.52443 h 8.28828 v -62.10531 h -8.28828 l -38.14878,50.52443 v -50.52443 h -8.28828 z"
         style="font-style:normal;font-variant:normal;font-weight:normal;font-stretch:normal;font-size:medium;line-height:1.25;font-family:'URW Gothic L';-inkscape-font-specification:'URW Gothic L';letter-spacing:0px;word-spacing:0px;fill:#ffffff;fill-opacity:1;stroke:#ffffff;stroke-width:0.15800001;stroke-miterlimit:4;stroke-dasharray:none;stroke-opacity:1"
         id="path1172"
         inkscape:connector-curvature="0" />
      <path
         d="m 1008.6743,-732.96249 h -8.4018 v 62.10531 h 8.4018 z m 28.9522,0 -24.1836,31.22297 25.6596,30.88234 h 10.4455 l -25.7731,-30.88234 24.1836,-31.22297 z"
         style="font-style:normal;font-variant:normal;font-weight:normal;font-stretch:normal;font-size:medium;line-height:1.25;font-family:'URW Gothic L';-inkscape-font-specification:'URW Gothic L';letter-spacing:0px;word-spacing:0px;fill:#ffffff;fill-opacity:1;stroke:#ffffff;stroke-width:0.15800001;stroke-miterlimit:4;stroke-dasharray:none;stroke-opacity:1"
         id="path1174"
         inkscape:connector-curvature="0" />
      <path
         d="m 1087.4644,-734.43848 c -18.3932,0 -32.5855,13.96518 -32.5855,32.13127 0,19.07439 13.9652,32.92603 33.2667,32.92603 18.1661,0 31.5636,-13.73811 31.5636,-32.35834 0,-18.96086 -13.6246,-32.69896 -32.2448,-32.69896 z m 0,7.72059 c 13.6245,0 23.7294,10.67257 23.7294,25.0919 0,14.19226 -9.7643,24.52422 -23.2753,24.52422 -14.3058,0 -24.5242,-10.4455 -24.5242,-24.97837 0,-14.07872 10.332,-24.63775 24.0701,-24.63775 z"
         style="font-style:normal;font-variant:normal;font-weight:normal;font-stretch:normal;font-size:medium;line-height:1.25;font-family:'URW Gothic L';-inkscape-font-specification:'URW Gothic L';letter-spacing:0px;word-spacing:0px;fill:#ffffff;fill-opacity:1;stroke:#ffffff;stroke-width:0.15800001;stroke-miterlimit:4;stroke-dasharray:none;stroke-opacity:1"
         id="path1176"
         inkscape:connector-curvature="0" />
      <path
         d="m 1131.5508,-670.85718 h 8.2883 v -28.38451 h 34.8562 v 28.38451 h 8.2883 v -62.10531 h -8.2883 v 26.11375 h -34.8562 v -26.11375 h -8.2883 z"
         style="font-style:normal;font-variant:normal;font-weight:normal;font-stretch:normal;font-size:medium;line-height:1.25;font-family:'URW Gothic L';-inkscape-font-specification:'URW Gothic L';letter-spacing:0px;word-spacing:0px;fill:#ffffff;fill-opacity:1;stroke:#ffffff;stroke-width:0.15800001;stroke-miterlimit:4;stroke-dasharray:none;stroke-opacity:1"
         id="path1178"
         inkscape:connector-curvature="0" />
      <path
         d="m 1205.5918,-732.96249 h -8.4018 v 62.10531 h 8.4018 z m 28.9522,0 -24.1836,31.22297 25.6596,30.88234 h 10.4455 l -25.7731,-30.88234 24.1836,-31.22297 z"
         style="font-style:normal;font-variant:normal;font-weight:normal;font-stretch:normal;font-size:medium;line-height:1.25;font-family:'URW Gothic L';-inkscape-font-specification:'URW Gothic L';letter-spacing:0px;word-spacing:0px;fill:#ffffff;fill-opacity:1;stroke:#ffffff;stroke-width:0.15800001;stroke-miterlimit:4;stroke-dasharray:none;stroke-opacity:1"
         id="path1180"
         inkscape:connector-curvature="0" />
      <path
         d="m 1254.1808,-670.85718 h 8.2883 l 38.1487,-50.52443 v 50.52443 h 8.2883 v -62.10531 h -8.2883 l -38.1487,50.52443 v -50.52443 h -8.2883 z"
         style="font-style:normal;font-variant:normal;font-weight:normal;font-stretch:normal;font-size:medium;line-height:1.25;font-family:'URW Gothic L';-inkscape-font-specification:'URW Gothic L';letter-spacing:0px;word-spacing:0px;fill:#ffffff;fill-opacity:1;stroke:#ffffff;stroke-width:0.15800001;stroke-miterlimit:4;stroke-dasharray:none;stroke-opacity:1"
         id="path1182"
         inkscape:connector-curvature="0" />
    </g>
    <g
       id="g1534"
       transform="translate(1415.5295,400.23844)"
       inkscape:export-xdpi="25.4"
       inkscape:export-ydpi="25.4">
      <path
         style="fill:url(#linearGradient829-6);fill-opacity:1;stroke:none;stroke-width:0.48173672;stroke-miterlimit:4;stroke-dasharray:none;stroke-opacity:1"
         d="m -284.01909,-795.68469 c 3.87867,-0.002 7.0012,3.12254 7.0012,7.00121 v 58.44383 c 0,3.87867 -3.12253,7.00121 -7.0012,7.00121 h -79.00921 c -3.87867,0 -7.00138,-3.12254 -7.0012,-7.00121 l 0.002,-53.91046 0.002,-16.81549 c 0,-3.11226 2.50553,-5.61779 5.61778,-5.61779 h 30.16961 c 3.11226,0 5.65783,1.2323 7.63261,3.63779 l 5.97983,7.28405 z"
         id="rect4549-5"
         inkscape:connector-curvature="0"
         sodipodi:nodetypes="sssssscsssscs" />
      <rect
         style="opacity:1;vector-effect:none;fill:url(#linearGradient891-8);fill-opacity:1;fill-rule:nonzero;stroke:none;stroke-width:0.68842864;stroke-linecap:butt;stroke-linejoin:miter;stroke-miterlimit:4;stroke-dasharray:none;stroke-dashoffset:0;stroke-opacity:1;paint-order:markers stroke fill"
         id="rect883-6"
         width="90.16243"
         height="72.512611"
         x="-368.37122"
         y="-801.08411"
         transform="matrix(0.99999999,1.0125852e-4,-6.7794228e-5,1,0,0)"
         inkscape:transform-center-x="60.56082"
         inkscape:transform-center-y="-84.422078" />
      <path
         style="fill:url(#linearGradient829-3-5);fill-opacity:1;stroke:none;stroke-width:0.33186889;stroke-miterlimit:4;stroke-dasharray:none;stroke-opacity:1"
         d="m -284.01909,-795.68469 c 3.87867,-0.002 7.0012,3.12254 7.0012,7.00121 v 58.44383 c 0,3.87867 -3.12253,7.00121 -7.0012,7.00121 h -79.00921 c -3.87866,0 -7.00138,-3.12254 -7.0012,-7.00121 l 0.002,-53.91046 0.37487,-14.20835 c 0.0821,-3.11118 2.13309,-4.87289 5.24534,-4.87289 h 29.79716 c 3.11225,0 6.06475,0.43783 8.3775,2.52044 l 5.60739,5.04936 z"
         id="rect4549-9-4"
         inkscape:connector-curvature="0"
         sodipodi:nodetypes="sssssscsssscs" />
      <path
         style="fill:url(#linearGradient829-5);fill-opacity:1;stroke:none;stroke-width:0.48173672;stroke-miterlimit:4;stroke-dasharray:none;stroke-opacity:1"
         d="m -404.01907,-795.68476 c 3.8787,-0.002 7.0012,3.12254 7.0012,7.00121 v 58.44383 c 0,3.87867 -3.1225,7.00121 -7.0012,7.00121 h -79.00923 c -3.8786,0 -7.0014,-3.12254 -7.0012,-7.00121 v -53.91046 -16.81549 c 0,-3.11226 2.5056,-5.61779 5.6178,-5.61779 h 30.16963 c 3.1123,0 5.6578,1.2323 7.6326,3.63779 l 5.9799,7.28405 z"
         id="rect4549-3"
         inkscape:connector-curvature="0"
         sodipodi:nodetypes="sssssscsssscs" />
      <rect
         style="opacity:1;vector-effect:none;fill:url(#linearGradient891-9);fill-opacity:1;fill-rule:nonzero;stroke:none;stroke-width:0.68842864;stroke-linecap:butt;stroke-linejoin:miter;stroke-miterlimit:4;stroke-dasharray:none;stroke-dashoffset:0;stroke-opacity:1;paint-order:markers stroke fill"
         id="rect883-3"
         width="90.16243"
         height="72.512611"
         x="-488.37076"
         y="-801.0705"
         transform="matrix(0.99999999,1.0125852e-4,-6.7794228e-5,1,0,0)"
         inkscape:transform-center-x="60.560819"
         inkscape:transform-center-y="-84.422078" />
      <path
         style="fill:url(#linearGradient829-3-1);fill-opacity:1;stroke:none;stroke-width:0.33186889;stroke-miterlimit:4;stroke-dasharray:none;stroke-opacity:1"
         d="m -404.01907,-795.68476 c 3.8787,-0.002 7.0012,3.12254 7.0012,7.00121 v 58.44383 c 0,3.87867 -3.1225,7.00121 -7.0012,7.00121 h -79.00923 c -3.8786,0 -7.0014,-3.12254 -7.0012,-7.00121 v -53.91046 l 0.3749,-14.20835 c 0.082,-3.11118 2.1331,-4.87289 5.2453,-4.87289 h 29.79723 c 3.1122,0 6.0647,0.43783 8.3775,2.52044 l 5.6074,5.04936 z"
         id="rect4549-9-3"
         inkscape:connector-curvature="0"
         sodipodi:nodetypes="sssssscsssscs" />
    </g>
    <flowRoot
       xml:space="preserve"
       id="flowRoot1155"
       style="font-style:normal;font-weight:normal;font-size:40px;line-height:1.25;font-family:sans-serif;letter-spacing:0px;word-spacing:0px;fill:#000000;fill-opacity:1;stroke:none"><flowRegion
         id="flowRegion1157"><rect
           id="rect1159"
           width="9401.6914"
           height="6030.2065"
           x="-1131.3708"
           y="-487.85336" /></flowRegion><flowPara
         id="flowPara1161" /></flowRoot>    <g
       id="distributor-logo-rosa"
       inkscape:highlight-color="1267263743"
       transform="matrix(3.2219164,0,0,3.2219164,543.88319,-419.98452)">
      <rect
         inkscape:highlight-color="1267263743"
         ry="5.5751052"
         y="1.8985004"
         x="1.8985002"
         height="28.202999"
         width="28.202999"
         id="rect4497-3-6-3-3"
         style="opacity:1;fill:#4b88e8;fill-opacity:1;fill-rule:evenodd;stroke:none;stroke-width:0.15876552;stroke-linecap:round;stroke-linejoin:bevel;stroke-miterlimit:4;stroke-dasharray:none;stroke-dashoffset:0;stroke-opacity:1" />
      <g
         inkscape:highlight-color="1069023231"
         id="rosa1">
        <path
           style="color:#000000;font-style:normal;font-variant:normal;font-weight:normal;font-stretch:normal;font-size:medium;line-height:normal;font-family:sans-serif;font-variant-ligatures:normal;font-variant-position:normal;font-variant-caps:normal;font-variant-numeric:normal;font-variant-alternates:normal;font-feature-settings:normal;text-indent:0;text-align:start;text-decoration:none;text-decoration-line:none;text-decoration-style:solid;text-decoration-color:#000000;letter-spacing:normal;word-spacing:normal;text-transform:none;writing-mode:lr-tb;direction:ltr;text-orientation:mixed;dominant-baseline:auto;baseline-shift:baseline;text-anchor:start;white-space:normal;shape-padding:0;clip-rule:nonzero;display:inline;overflow:visible;visibility:visible;opacity:1;isolation:auto;mix-blend-mode:normal;color-interpolation:sRGB;color-interpolation-filters:linearRGB;solid-color:#000000;solid-opacity:1;vector-effect:none;fill:#ffffff;fill-opacity:1;fill-rule:nonzero;stroke:none;stroke-width:0.5904969;stroke-linecap:butt;stroke-linejoin:miter;stroke-miterlimit:4;stroke-dasharray:none;stroke-dashoffset:0;stroke-opacity:1;color-rendering:auto;image-rendering:auto;shape-rendering:auto;text-rendering:auto;enable-background:accumulate"
           d="m 17.96107,7.7333644 c -0.729669,0.00664 -1.595125,0.039635 -2.654505,0.1218019 -4.537909,0.3519949 -8.2172802,3.9999037 -8.0253878,8.7136647 0.1903345,4.675267 3.7967858,8.524193 8.4739268,8.524194 4.67666,0 8.47586,-3.838595 8.47586,-8.549328 -0.0059,-2.803039 -1.083183,-5.127365 -1.020815,-8.071788 2.9e-5,-0.00178 -4.3e-5,-0.00415 0,-0.00584 0.0088,-0.097989 0.01612,-0.1787242 0.0116,-0.2629363 -0.0043,-0.090514 -0.03056,-0.2290101 -0.14887,-0.3248059 -0.118331,-0.095801 -0.233717,-0.094692 -0.315137,-0.092802 -0.08136,0.00178 -0.156875,0.012503 -0.253272,0.021263 -0.91942,0.083091 -1.659241,0.014858 -2.698974,-0.034804 -0.519865,-0.024846 -1.114757,-0.045347 -1.844427,-0.038665 z m 3.095314,1.2064181 c -0.12517,0.2091471 -0.24115,0.432782 -0.382806,0.7559445 -0.283326,0.646317 -0.677526,1.690402 -1.513823,3.884126 -1.233428,3.235425 -3.107511,4.782116 -4.993875,5.579684 -1.721136,0.727702 -3.440451,0.796188 -4.678736,0.783011 C 8.950157,18.923492 8.6251709,17.758988 8.5745959,16.51663 8.410926,12.496459 11.494572,9.4501257 15.407099,9.1466518 18.320246,8.9206768 19.792503,8.9688681 21.056384,8.9397825 Z M 22.1874,9.5255913 c 0.143105,2.6506377 0.744331,4.8926907 0.748212,7.0200387 -4.51e-4,4.017415 -3.210954,7.252043 -7.180508,7.252043 -2.19834,0 -4.110239,-0.995061 -5.409548,-2.567505 1.220554,-0.03909 2.758925,-0.214831 4.326865,-0.877748 2.112824,-0.893313 3.905501,-1.832269 5.247145,-5.351546 1.261317,-3.308592 1.783475,-4.595852 2.267834,-5.4752827 z"
           id="rosa-3"
           inkscape:connector-curvature="0"
           inkscape:highlight-color="4294967295" />
        <path
           style="opacity:1;fill:url(#radialGradient836);fill-opacity:1;fill-rule:nonzero;stroke:#ffffff;stroke-width:0.2;stroke-miterlimit:4;stroke-dasharray:none;stroke-opacity:1;paint-order:markers fill stroke"
           d="m 15.173126,23.749521 c -1.601834,-0.125988 -3.060781,-0.796138 -4.257864,-1.955801 -0.279998,-0.271245 -0.509088,-0.510773 -0.509088,-0.532283 0,-0.02151 0.127081,-0.03913 0.282402,-0.03916 0.419776,-9e-5 1.428937,-0.125907 2.044593,-0.254927 1.725183,-0.361537 3.74172,-1.310454 4.83406,-2.274753 0.790217,-0.697589 1.50559,-1.71313 2.024969,-2.874636 0.109936,-0.245853 0.510535,-1.250159 0.890221,-2.231789 0.742037,-1.918443 1.251547,-3.145658 1.523893,-3.6704694 l 0.170393,-0.3283483 0.01225,0.2259219 c 0.02865,0.5283098 0.161921,1.6755128 0.34906,3.0047608 0.316743,2.249815 0.355591,2.646822 0.35592,3.637343 2.25e-4,0.663368 -0.02035,1.014664 -0.07734,1.321 -0.291276,1.565551 -0.967746,2.857948 -2.063847,3.94298 -1.478431,1.463502 -3.48797,2.194679 -5.579622,2.030165 z"
           id="rosa-2"
           inkscape:connector-curvature="0"
           inkscape:highlight-color="4294967295" />
        <path
           style="opacity:1;fill:url(#radialGradient846);fill-opacity:1;fill-rule:nonzero;stroke:#ffffff;stroke-width:0.2;stroke-miterlimit:4;stroke-dasharray:none;stroke-opacity:1;paint-order:markers fill stroke"
           d="M 9.3080319,19.533602 C 9.056776,18.967637 8.8826801,18.426941 8.7460763,17.788315 8.6359537,17.27349 8.6252425,17.135547 8.6250314,16.229454 c -2.17e-4,-0.93086 0.00783,-1.028527 0.1265983,-1.536269 0.2962314,-1.266423 0.858721,-2.320997 1.7168203,-3.21875 1.192975,-1.248104 2.684113,-2.0028823 4.43357,-2.2441672 0.985089,-0.1358635 3.280873,-0.2518143 4.998957,-0.2524771 l 1.1131,-4.295e-4 -0.149829,0.2824024 c -0.193721,0.3651312 -0.513249,1.1533354 -1.243233,3.0667854 -0.684885,1.795234 -0.926337,2.352527 -1.306516,3.015561 -1.475239,2.572818 -3.621616,4.019447 -6.618522,4.460793 -0.249641,0.03676 -0.850385,0.07831 -1.334987,0.09233 l -0.8810958,0.02549 z"
           id="rosa-1"
           inkscape:connector-curvature="0"
           inkscape:highlight-color="1069023231" />
      </g>
    </g>
    <path
       inkscape:connector-curvature="0"
       style="opacity:1;fill:#cccccc;fill-opacity:1;fill-rule:evenodd;stroke:none;stroke-width:3.33577466;stroke-linecap:round;stroke-linejoin:bevel;stroke-miterlimit:4;stroke-dasharray:none;stroke-dashoffset:0;stroke-opacity:1"
       d="M 755.8677,-349.20941 H 665 v 8.24983 c 0,9.95133 8.0146,17.95958 17.9659,17.95958 h 54.9422 c 9.9514,0 17.9596,-8.00825 17.9596,-17.95958 z"
       id="path4519" />
    <path
       inkscape:connector-curvature="0"
       style="opacity:1;fill:#424647;fill-opacity:1;fill-rule:evenodd;stroke:none;stroke-width:3.33577466;stroke-linecap:round;stroke-linejoin:bevel;stroke-miterlimit:4;stroke-dasharray:none;stroke-dashoffset:0;stroke-opacity:1"
       d="m 682.9659,-413.8677 c -9.9513,0 -17.9659,8.01455 -17.9659,17.96588 v 46.69241 h 90.8677 v -46.69241 c 0,-9.95133 -8.0082,-17.96588 -17.9596,-17.96588 z"
       id="rect4497-3" />
    <path
       d="m 700.0657,-393.50176 c -0.7901,-5.2e-4 -1.4308,0.64148 -1.4304,1.43317 v 29.35088 c -2e-4,1.08885 1.1641,1.77988 2.117,1.25642 l 26.8533,-14.67545 c 0.9907,-0.5435 0.9907,-1.96929 0,-2.51279 l -24.1708,-13.20722 -2.6838,-1.46661 c -0.2104,-0.11567 -0.4465,-0.17656 -0.6866,-0.17656 z"
       style="fill:#da2570;fill-opacity:1;stroke-width:3.22190213"
       id="path20-3"
       inkscape:connector-curvature="0" />
    <rect
       ry="3.2219021"
       height="6.4438043"
       width="25.775217"
       y="-340.15033"
       x="723.3241"
       id="rect8-6"
       style="fill:#999999;stroke-width:3.22190213" />
    <rect
       ry="3.2219021"
       height="6.4438043"
       width="51.550434"
       y="-340.15033"
       x="671.77332"
       id="rect10-7"
       style="opacity:0.98999999;fill:#da2570;fill-opacity:1;stroke-width:3.22190213" />
    <circle
       style="fill:#da2570;fill-opacity:1;stroke-width:3.22190213"
       cx="723.3241"
       cy="-336.92517"
       r="6.4438043"
       id="circle14-5" />
    <path
       style="fill:url(#linearGradient829-1);fill-opacity:1;stroke:none;stroke-width:0.47063428;stroke-miterlimit:4;stroke-dasharray:none;stroke-opacity:1"
       d="m 1248.5162,-393.77664 c 3.7893,-0.002 6.8399,3.05063 6.8399,6.83981 v 57.09689 c 0,3.78931 -3.0506,6.83994 -6.8399,6.83994 h -77.1883 c -3.7893,0 -6.84,-3.05063 -6.8399,-6.83994 v -52.66792 -16.42796 c 0,-3.04058 2.4478,-5.48832 5.4884,-5.48832 h 29.4742 c 3.0406,0 5.5275,1.20457 7.4568,3.55391 l 5.842,7.11626 z"
       id="rect4549-4"
       inkscape:connector-curvature="0"
       sodipodi:nodetypes="sssssscsssscs" />
    <rect
       style="opacity:1;vector-effect:none;fill:url(#linearGradient891-7);fill-opacity:1;fill-rule:nonzero;stroke:none;stroke-width:0.67256248;stroke-linecap:butt;stroke-linejoin:miter;stroke-miterlimit:4;stroke-dasharray:none;stroke-dashoffset:0;stroke-opacity:1;paint-order:markers stroke fill"
       id="rect883-8"
       width="88.084473"
       height="70.841423"
       x="1166.1348"
       y="-399.2052"
       transform="matrix(0.99999999,1.0125852e-4,-6.7794228e-5,1,0,0)"
       inkscape:transform-center-x="59.165077"
       inkscape:transform-center-y="-82.476434" />
    <path
       style="fill:url(#linearGradient829-3-4);fill-opacity:1;stroke:none;stroke-width:0.32422033;stroke-miterlimit:4;stroke-dasharray:none;stroke-opacity:1"
       d="m 1248.5162,-393.77664 c 3.7893,-0.002 6.8399,3.05063 6.8399,6.83981 v 57.09689 c 0,3.78931 -3.0506,6.83994 -6.8399,6.83994 h -77.1883 c -3.7893,0 -6.84,-3.05063 -6.8399,-6.83994 v -52.66792 l 0.3663,-13.88096 c 0.08,-3.03936 2.0839,-4.76056 5.1245,-4.76056 h 29.1104 c 3.0405,0 5.925,0.42766 8.1844,2.46232 l 5.4782,4.93309 z"
       id="rect4549-9"
       inkscape:connector-curvature="0"
       sodipodi:nodetypes="sssssscsssscs" />
    <path
       style="fill:url(#linearGradient829-4);fill-opacity:1;stroke:none;stroke-width:0.47063068;stroke-miterlimit:4;stroke-dasharray:none;stroke-opacity:1"
       d="m 1363.7988,-393.7757 c 3.788,0 6.8402,3.0494 6.8402,6.8384 v 57.0971 c 0,3.7889 -3.0522,6.8402 -6.8402,6.8402 h -77.1885 c -3.7899,0 -6.8393,-3.0513 -6.8393,-6.8402 v -52.6673 -16.4291 c 0,-3.0392 2.4477,-5.4869 5.4869,-5.4869 h 29.4753 c 3.0391,0 5.5279,1.2005 7.4559,3.5533 l 5.8427,7.1159 z"
       id="rect4549-7"
       inkscape:connector-curvature="0"
       sodipodi:nodetypes="sssssscsssscs" />
    <rect
       style="opacity:1;vector-effect:none;fill:url(#linearGradient891-1);fill-opacity:1;fill-rule:nonzero;stroke:none;stroke-width:0.67255712;stroke-linecap:butt;stroke-linejoin:miter;stroke-miterlimit:4;stroke-dasharray:none;stroke-dashoffset:0;stroke-opacity:1;paint-order:markers stroke fill"
       id="rect883-5"
       width="88.083786"
       height="70.840874"
       x="1281.4175"
       y="-399.21536"
       transform="matrix(0.99999999,1.0125852e-4,-6.7794228e-5,1,0,0)"
       inkscape:transform-center-x="59.164287"
       inkscape:transform-center-y="-82.474711" />
    <path
       style="fill:url(#linearGradient829-3-42);fill-opacity:1;stroke:none;stroke-width:0.32421777;stroke-miterlimit:4;stroke-dasharray:none;stroke-opacity:1"
       d="m 1363.7988,-393.7757 c 3.788,0 6.8402,3.0494 6.8402,6.8384 v 57.0971 c 0,3.7889 -3.0522,6.8402 -6.8402,6.8402 h -77.1885 c -3.7899,0 -6.8393,-3.0513 -6.8393,-6.8402 v -52.6673 l 0.3726,-13.8808 c 0.121,-3.0401 2.0835,-4.7604 5.1236,-4.7604 h 29.1102 c 3.042,0 5.9247,0.4284 8.1843,2.4608 l 5.4794,4.9336 z"
       id="rect4549-9-47"
       inkscape:connector-curvature="0"
       sodipodi:nodetypes="sssssscsssscs" />
  </g>
</svg>
