<svg xmlns="http://www.w3.org/2000/svg" width="22" height="22" version="1.1" id="svg7"><defs id="defs3"><style type="text/css" id="current-color-scheme"></style></defs><path transform="translate(3 3)" d="M8 1C4.137 1 1 4.137 1 8s3.137 7 7 7 7-3.137 7-7-3.137-7-7-7zm0 2a4.93 4.93 0 0 1 2.75.813L3.812 10.75A4.93 4.93 0 0 1 3 8c0-2.76 2.24-5 5-5zm4.188 2.25A4.93 4.93 0 0 1 13 8c0 2.76-2.24 5-5 5a4.93 4.93 0 0 1-2.75-.813l6.938-6.937z" id="path5" fill="currentColor" opacity="1" color="#d3dae3"/></svg>