<svg xmlns="http://www.w3.org/2000/svg" width="22" height="22" version="1.1" id="svg7"><defs id="defs3"><style type="text/css" id="current-color-scheme"></style></defs><path d="M6.05 4C4.916 4 4 4.915 4 6.05v9.9C4 17.084 4.915 18 6.05 18h9.9c1.135 0 2.05-.915 2.05-2.05v-9.9C18 4.916 17.085 4 15.95 4h-9.9zM11 7a4 4 0 0 1 0 8H7v-4a4 4 0 0 1 4-4zm0 2a2 2 0 1 0 0 4 2 2 0 0 0 0-4z" id="rect818" opacity="1" fill="#d3dae3" fill-opacity="1" stroke="none" stroke-width="2" stroke-linecap="round" stroke-linejoin="bevel" stroke-miterlimit="4" stroke-dasharray="none" stroke-opacity="1"/></svg>