<svg xmlns="http://www.w3.org/2000/svg" xmlns:xlink="http://www.w3.org/1999/xlink" width="22" height="22"><defs><linearGradient id="a" x1="8" gradientUnits="userSpaceOnUse" x2="24" y1="24" y2="8"><stop stop-color="#e81877" offset="0"/><stop stop-color="#dd1d8c" offset=".313"/><stop stop-color="#6d57b1" offset=".563"/><stop stop-color="#2a78c1" offset=".75"/><stop stop-color="#018dcb" offset="1"/></linearGradient><linearGradient id="b" x1="8" gradientUnits="userSpaceOnUse" y1="24" gradientTransform="matrix(1 0 0 -1 384.57 547.8)" x2="24" y2="8"><stop stop-color="#e51561" offset="0"/><stop stop-color="#e4156c" offset=".313"/><stop stop-color="#e71e2c" offset=".563"/><stop stop-color="#e8301e" offset=".75"/><stop stop-color="#e6320e" offset="1"/></linearGradient><linearGradient id="c" x1="8" gradientUnits="userSpaceOnUse" y1="24" gradientTransform="matrix(-1 0 0 1 432.57 499.8)" x2="24" y2="8"><stop stop-color="#bec900" offset="0"/><stop stop-color="#9ec80a" offset=".313"/><stop stop-color="#71b93d" offset=".563"/><stop stop-color="#35a48f" offset=".75"/><stop stop-color="#018fca" offset="1"/></linearGradient><linearGradient id="d" x1="8" gradientUnits="userSpaceOnUse" y1="24" gradientTransform="rotate(180 216.285 273.9)" x2="24" y2="8"><stop stop-color="#c1cc00" offset="0"/><stop stop-color="#dfcd00" offset=".313"/><stop stop-color="#f0cc00" offset=".563"/><stop stop-color="#fd8c08" offset=".75"/><stop stop-color="#f25c13" offset="1"/></linearGradient><linearGradient xlink:href="#a" id="e" gradientUnits="userSpaceOnUse" x1="8" y1="24" x2="24" y2="8"/><linearGradient xlink:href="#b" id="f" gradientUnits="userSpaceOnUse" gradientTransform="matrix(1 0 0 -1 384.57 547.8)" x1="8" y1="24" x2="24" y2="8"/><linearGradient xlink:href="#c" id="g" gradientUnits="userSpaceOnUse" gradientTransform="matrix(-1 0 0 1 432.57 499.8)" x1="8" y1="24" x2="24" y2="8"/><linearGradient xlink:href="#d" id="h" gradientUnits="userSpaceOnUse" gradientTransform="rotate(180 216.285 273.9)" x1="8" y1="24" x2="24" y2="8"/><linearGradient xlink:href="#a" id="i" gradientUnits="userSpaceOnUse" x1="8" y1="24" x2="24" y2="8"/><linearGradient xlink:href="#b" id="j" gradientUnits="userSpaceOnUse" gradientTransform="matrix(1 0 0 -1 384.57 547.8)" x1="8" y1="24" x2="24" y2="8"/><linearGradient xlink:href="#d" id="k" gradientUnits="userSpaceOnUse" gradientTransform="rotate(180 216.285 273.9)" x1="8" y1="24" x2="24" y2="8"/><linearGradient xlink:href="#c" id="l" gradientUnits="userSpaceOnUse" gradientTransform="matrix(-1 0 0 1 432.57 499.8)" x1="8" y1="24" x2="24" y2="8"/><linearGradient xlink:href="#a" id="m" gradientUnits="userSpaceOnUse" x1="8" y1="24" x2="24" y2="8"/><linearGradient xlink:href="#b" id="n" gradientUnits="userSpaceOnUse" gradientTransform="matrix(1 0 0 -1 384.57 547.8)" x1="8" y1="24" x2="24" y2="8"/><linearGradient xlink:href="#d" id="o" gradientUnits="userSpaceOnUse" gradientTransform="rotate(180 216.285 273.9)" x1="8" y1="24" x2="24" y2="8"/><linearGradient xlink:href="#c" id="p" gradientUnits="userSpaceOnUse" gradientTransform="matrix(-1 0 0 1 432.57 499.8)" x1="8" y1="24" x2="24" y2="8"/><linearGradient xlink:href="#a" id="q" gradientUnits="userSpaceOnUse" x1="8" y1="24" x2="24" y2="8"/><linearGradient xlink:href="#b" id="r" gradientUnits="userSpaceOnUse" gradientTransform="matrix(1 0 0 -1 384.57 547.8)" x1="8" y1="24" x2="24" y2="8"/><linearGradient xlink:href="#d" id="s" gradientUnits="userSpaceOnUse" gradientTransform="rotate(180 216.285 273.9)" x1="8" y1="24" x2="24" y2="8"/><linearGradient xlink:href="#c" id="t" gradientUnits="userSpaceOnUse" gradientTransform="matrix(-1 0 0 1 432.57 499.8)" x1="8" y1="24" x2="24" y2="8"/></defs><path clip-path="url(#clipPath4534)" transform="scale(.4371) rotate(15 20.169 28.996)" d="M24 8C15.136 8 8 15.136 8 24h16V8z" fill="url(#e)"/><path clip-path="url(#clipPath4584)" d="M408.57 539.8c-8.864 0-16-7.136-16-16h16v16z" fill="url(#f)" transform="scale(.4371) rotate(15 2110.589 -1181.62)"/><path clip-path="url(#clipPath4550)" d="M408.57 507.8c8.864 0 16 7.136 16 16h-16v-16z" fill="url(#g)" transform="scale(.4371) rotate(15 2110.589 -1181.62)"/><path clip-path="url(#clipPath4568)" d="M408.57 539.8c8.864 0 16-7.136 16-16h-16v16z" fill="url(#h)" transform="scale(.4371) rotate(15 2110.589 -1181.62)"/><g opacity=".7"><path d="M24 8C15.136 8 8 15.136 8 24h16V8z" clip-path="url(#clipPath4528)" transform="matrix(.4371 0 0 .4371 .508 .508)" fill="url(#i)" filter="url(#filter4390)"/><path clip-path="url(#clipPath4578)" d="M408.57 539.8c-8.864 0-16-7.136-16-16h16v16z" fill="url(#j)" filter="url(#filter4412)" transform="matrix(.4371 0 0 .4371 -167.59 -217.955)"/><path clip-path="url(#clipPath4562)" d="M408.57 539.8c8.864 0 16-7.136 16-16h-16v16z" fill="url(#k)" filter="url(#filter4482)" transform="matrix(.4371 0 0 .4371 -167.59 -217.955)"/><path clip-path="url(#clipPath4544)" d="M408.57 507.8c8.864 0 16 7.136 16 16h-16v-16z" fill="url(#l)" filter="url(#filter4520)" transform="matrix(.4371 0 0 .4371 -167.59 -217.955)"/></g><path d="M24 8C15.136 8 8 15.136 8 24h16V8z" clip-path="url(#clipPath4528)" transform="matrix(.30908 .30907 -.30908 .30907 11 -3.82)" opacity=".35" fill="url(#m)"/><path d="M408.57 539.8c-8.864 0-16-7.136-16-16h16v16z" clip-path="url(#clipPath4578)" transform="matrix(.30908 .30907 -.30908 .30907 46.615 -277.17)" opacity=".35" fill="url(#n)"/><path d="M408.57 539.8c8.864 0 16-7.136 16-16h-16v16z" clip-path="url(#clipPath4562)" transform="matrix(.30908 .30907 -.30908 .30907 46.615 -277.17)" opacity=".35" fill="url(#o)"/><path d="M408.57 507.8c8.864 0 16 7.136 16 16h-16v-16z" clip-path="url(#clipPath4544)" transform="matrix(.30908 .30907 -.30908 .30907 46.615 -277.17)" opacity=".35" fill="url(#p)"/><g><path d="M24 8C15.136 8 8 15.136 8 24h16V8z" clip-path="url(#clipPath4528-1)" transform="scale(.4371) rotate(75 23.827 25.337)" opacity=".3" fill="url(#q)"/><path d="M408.57 539.8c-8.864 0-16-7.136-16-16h16v16z" clip-path="url(#clipPath4578-8)" transform="scale(.4371) rotate(75 541.79 24.645)" opacity=".3" fill="url(#r)"/><path d="M408.57 539.8c8.864 0 16-7.136 16-16h-16v16z" clip-path="url(#clipPath4562-8)" transform="scale(.4371) rotate(75 541.79 24.645)" opacity=".3" fill="url(#s)"/><path d="M408.57 507.8c8.864 0 16 7.136 16 16h-16v-16z" clip-path="url(#clipPath4544-1)" transform="scale(.4371) rotate(75 541.79 24.645)" opacity=".3" fill="url(#t)"/></g></svg>