<svg xmlns="http://www.w3.org/2000/svg" width="22" height="22" version="1.1" id="svg7"><defs id="defs3"><style type="text/css" id="current-color-scheme"></style></defs><path transform="translate(3 3)" d="M8 1a6.999 6.999 0 0 0-4.95 11.95 6.999 6.999 0 0 0 9.9 0A6.999 6.999 0 0 0 8 1zm-.072 2a5 5 0 0 1 3.607 1.465 5 5 0 0 1 0 7.07 5 5 0 0 1-7.07 0 5 5 0 0 1 0-7.07A5 5 0 0 1 7.928 3zm-.932 1v4.414l1.707 1.707.615.615.092.092.707-.707.707-.707-.094-.094-.613-.613-1.12-1.121V4h-2z" id="path5" fill="currentColor" opacity="1" color="#d3dae3"/></svg>