<svg xmlns="http://www.w3.org/2000/svg" width="22" height="22" version="1.1" id="svg7"><defs id="defs3"><style type="text/css" id="current-color-scheme"></style></defs><path d="M17.55 17.877c.243-.124.46-.342.59-.596.146-.28.146-.848.003-1.127-.11-.212-2.752-2.898-2.85-2.898-.028 0-.126.104-.216.231-.261.365-.72.84-1.145 1.186-.215.175-.391.342-.391.37 0 .073 2.55 2.65 2.754 2.785.333.217.88.238 1.254.048m-6.098-2.458c.636-.165 1.608-.653 2.164-1.087a5.965 5.965 0 0 0 2.118-3.403c.13-.62.13-1.88 0-2.494a5.907 5.907 0 0 0-2.25-3.535c-.58-.434-1.072-.684-1.827-.932-.536-.176-.67-.192-1.68-.197-.954-.005-1.168.015-1.66.156a6.024 6.024 0 0 0-4.271 4.769c-.05.294-.068.79-.045 1.302.07 1.524.627 2.789 1.703 3.866 1.485 1.485 3.695 2.083 5.75 1.555M8.85 13.904c-2.07-.575-3.382-2.375-3.268-4.486.144-2.672 2.64-4.569 5.277-4.01 1.595.338 2.93 1.635 3.3 3.205.131.555.13 1.542-.003 2.107-.324 1.375-1.424 2.584-2.793 3.069-.627.223-1.91.28-2.513.114m1.686-.934c.058-.094-.15-.275-.698-.605-.539-.325-1.274-1.055-1.483-1.473a7.386 7.386 0 0 1-.322-.802c-.27-.817-.91-1.278-1.2-.862-.14.2-.14.81.002 1.291.323 1.097 1.344 2.043 2.597 2.403.48.138 1.033.162 1.103.048" id="edit-find" fill="#d3dae3" fill-opacity="1" stroke-width=".955"/></svg>