<svg xmlns="http://www.w3.org/2000/svg" width="22" height="22" version="1.1" id="svg7"><defs id="defs3"><style type="text/css" id="current-color-scheme"></style></defs><path transform="translate(3 3)" d="M6.5 1.004c-3.029 0-5.5 2.475-5.5 5.5 0 1.062.286 2.063.813 2.906L3.28 7.94A3.54 3.54 0 0 1 3 6.501c0-1.945 1.553-3.5 3.5-3.5a3.4 3.4 0 0 1 1.406.312l.75-.75.094-.091.625-.657a5.438 5.438 0 0 0-2.87-.812H6.5zm5.111.998a.71.71 0 0 0-.504.213L9.711 3.619l2.672 2.674 1.404-1.397a.71.71 0 0 0 0-1.011l-1.67-1.67a.714.714 0 0 0-.506-.213zM8.75 4.58L2 11.33v2.672h2.672l6.752-6.75L8.75 4.58zm2.375 5.111l-1.438 1.407 3.626 3.625c.958.938 2.365-.5 1.406-1.438l-3.594-3.594z" id="path5" fill="currentColor" opacity="1" color="#d3dae3"/></svg>