<svg xmlns="http://www.w3.org/2000/svg" width="22" height="22" id="svg2" version="1.1"><defs><style type="text/css" id="current-color-scheme"></style></defs><path d="M4.604 4.006C4.403 4.05 4 4.233 4 4.914v8.178S4 14 4.715 14h8.57S14 14 14 13.092v-6.16c0-.909-.715-.932-.715-.932H10L8 4.006H4.715s-.045-.014-.111 0zM15 10v4.092c0 .909-.715.908-.715.908H8v2.092S8 18 8.715 18h8.57S18 18 18 17.092v-6.16c0-.909-.715-.932-.715-.932H15z" id="path4149" opacity="1" fill="currentColor" fill-opacity="1" color="#d3dae3"/></svg>