<svg xmlns="http://www.w3.org/2000/svg" width="22" height="22" version="1.1" id="svg7"><defs id="defs3"><style type="text/css" id="current-color-scheme"></style></defs><g id="g4498" transform="translate(10.734 2.462) scale(1.375)" stroke-width="3.296" fill-opacity="1" fill-rule="nonzero" stroke="none" stroke-linecap="round" stroke-linejoin="bevel" stroke-miterlimit="10" stroke-dasharray="none" stroke-dashoffset="0" stroke-opacity="1"><path id="rect4488" d="M-3.658-1.846c-.775 0-1.398.623-1.398 1.398v13.203c0 .775.623 1.399 1.398 1.399H4.12c.775 0 1.399-.624 1.399-1.399V-.448c0-.775-.624-1.398-1.399-1.398zm.363 2.295h7.051v9.035h-7.05zM1.657 10.97h1.511c.28 0 .504.223.504.502v.281a.501.501 0 0 1-.504.502H1.657a.5.5 0 0 1-.502-.502v-.28a.5.5 0 0 1 .502-.503z" opacity="1" fill="#d3dae3"/><rect ry=".42" y="10.97" x="-3.21" height="1.287" width="2.517" id="rect4492" opacity="1" fill="#ff7357"/></g></svg>