<svg xmlns="http://www.w3.org/2000/svg" width="22" height="22" version="1.1" id="svg7"><defs id="defs3"><style type="text/css" id="current-color-scheme"></style></defs><path transform="translate(3 3)" d="M5.22 1l-.312.281-3.625 3.625-.281.313v5.562l.281.313 3.625 3.625.313.281h5.562l.313-.281 3.625-3.625.281-.313V5.22l-.281-.313-3.625-3.625L10.783 1H5.221zm1.782 3h2v3l-.25 2H7.283l-.281-2V4zm1 5.75a1.25 1.25 0 1 1 0 2.5 1.25 1.25 0 0 1 0-2.5z" id="path5" fill="currentColor" opacity="1" color="#d3dae3"/></svg>