<svg xmlns="http://www.w3.org/2000/svg" width="22" height="22"><defs><style type="text/css" id="current-color-scheme">.ColorScheme-Text{color:#d3dae3}</style></defs><path class="ColorScheme-Text" d="M10 6a3 3 0 1 0 0 6 3 3 0 0 0 0-6zm0 7c-6 .003-6 4-6 4v1h12v-1s0-4.003-6-4z" fill="currentColor"/><path class="ColorScheme-Text" d="M16 5a1 1 0 0 0-1 1 1 1 0 0 0 1 1 1 1 0 0 0 1-1 1 1 0 0 0-1-1zm0 3a1 1 0 0 0-1 1 1 1 0 0 0 1 1 1 1 0 0 0 1-1 1 1 0 0 0-1-1zm0 3a1 1 0 0 0-1 1 1 1 0 0 0 1 1 1 1 0 0 0 1-1 1 1 0 0 0-1-1z" fill="currentColor" opacity=".3"/></svg>