<svg xmlns="http://www.w3.org/2000/svg" width="22" height="22" version="1.1" id="svg7"><defs id="defs3"><style type="text/css" id="current-color-scheme"></style></defs><path transform="translate(3 3)" d="M12.037 1.207c-.095 0-.156.012-.156.012l-9.844 1.75c-.985.173-.812 1.156-.812 1.156L1.725 7h12.187l-.875-4.969c-.13-.738-.715-.826-1-.824zM1 8v1h1V8H1zm2 0v1h1V8H3zm2 0v1h1V8H5zm2 0v1h1V8H7zm2 0v1h1V8H9zm2 0v1h1V8h-1zm2 0v1h1V8h-1zm2 0v1h1V8h-1zM2.25 10l.719 3.969c.173.985 1.156.812 1.156.812l9.844-1.75s.986-.171.812-1.156L14.441 10H2.25z" id="path5" fill="currentColor" opacity="1" color="#d3dae3"/></svg>