<svg xmlns="http://www.w3.org/2000/svg" width="22" height="22"><defs><style id="current-color-scheme" type="text/css"></style></defs><path d="M11 14l3-4H8zm3-9c-1.333 0-2.447.606-3.447 1.106C9.553 6.606 8.667 7 8 7c-.833 0-1.422-.204-1.803-.394-.38-.19-.49-.313-.49-.313-.942-.986-2.312.516-1.414 1.414 0 0 .39.378 1.01.688C5.922 8.705 6.833 9 8 9c1.333 0 2.447-.606 3.447-1.106 1-.5 1.886-.894 2.553-.894.833 0 1.422.204 1.803.394.38.19.49.313.49.313.871.912 2.335-.493 1.414-1.414 0 0-.39-.378-1.01-.688C16.078 5.296 15.167 5 14 5zM5 15h12c1 0 1 1 1 1s0 1-1 1H5c-1 0-1-1-1-1s0-1 1-1z" fill="currentColor" color="#d3dae3"/></svg>