<svg xmlns="http://www.w3.org/2000/svg" width="22" height="22"><defs><style id="current-color-scheme" type="text/css">.ColorScheme-Text{color:#d3dae3}</style></defs><path class="ColorScheme-Text" d="M14 14v1c0 .28.1.54.28.72l.78.78-.78.78c-.18.18-.28.44-.28.72v1h1c.28 0 .54-.1.72-.28l.78-.78.78.78c.18.18.44.28.72.28h1v-1c0-.28-.1-.54-.28-.72l-.78-.78.78-.78c.18-.18.28-.44.28-.72v-1h-1c-.28 0-.54.1-.72.28l-.78.78-.78-.78c-.18-.18-.44-.28-.72-.28z" fill="currentColor"/><g opacity=".3"><path class="ColorScheme-Text" d="M8 14v5l3-2 2 1v-4" fill="currentColor"/><path class="ColorScheme-Text" d="M11 4a6 6 0 0 0-6 6 6 6 0 0 0 6 6 6 6 0 0 0 2-.344v-2.191A4 4 0 0 1 11 14a4 4 0 0 1-4-4 4 4 0 0 1 4-4 4 4 0 0 1 4 4 4 4 0 0 1-1.355 3h2.55A6 6 0 0 0 17 10a6 6 0 0 0-6-6zm0 3a3 3 0 0 0-3 3 3 3 0 0 0 3 3 3 3 0 0 0 3-3 3 3 0 0 0-3-3z" fill="currentColor"/></g></svg>