<svg xmlns="http://www.w3.org/2000/svg" width="22" height="22"><g transform="translate(2 -1.417)" fill="#d3dae3"><rect ry="1.167" rx="1.167" y="4.833" x="7.833" height="8.167" width="2.333"/><path d="M12.5 7.167c-.644 0-1.167.522-1.167 1.166 0 .332.12.673.384.873 1.2.906 1.947 2.29 1.95 3.794a4.667 4.667 0 0 1-9.334 0c.003-1.504.752-2.887 1.95-3.795.265-.2.383-.541.384-.872 0-.644-.523-1.166-1.167-1.166-.332 0-.616.176-.87.39C3.005 8.916 2.007 10.88 2 13a7 7 0 1 0 14 0c-.005-2.138-1.007-4.13-2.667-5.484-.245-.2-.521-.35-.833-.35z"/></g></svg>