<svg xmlns="http://www.w3.org/2000/svg" width="22" height="22"><defs><style id="current-color-scheme" type="text/css"></style></defs><path d="M14 4l-3 4h2v3h2V8h2zM5.5 5A1.5 1.5 0 0 0 4 6.5 1.5 1.5 0 0 0 5.5 8 1.5 1.5 0 0 0 7 6.5 1.5 1.5 0 0 0 5.5 5zm0 4A1.5 1.5 0 0 0 4 10.5 1.5 1.5 0 0 0 5.5 12 1.5 1.5 0 0 0 7 10.5 1.5 1.5 0 0 0 5.5 9zm4.5 1v3H8l3 4 3-4h-2v-3zm-4.5 3A1.5 1.5 0 0 0 4 14.5 1.5 1.5 0 0 0 5.5 16 1.5 1.5 0 0 0 7 14.5 1.5 1.5 0 0 0 5.5 13z" fill="currentColor" color="#d3dae3"/></svg>