<svg xmlns="http://www.w3.org/2000/svg" width="22" height="22" version="1.1" id="svg7"><defs id="defs3"><style type="text/css" id="current-color-scheme"></style></defs><path transform="translate(3 3)" d="M7.5 3.004c-.822 0-1.5.678-1.5 1.5s.678 1.5 1.5 1.5S9 5.326 9 4.504s-.678-1.5-1.5-1.5zm0 4c-.822 0-1.5.678-1.5 1.5s.678 1.5 1.5 1.5S9 9.326 9 8.504s-.678-1.5-1.5-1.5zm0 4c-.822 0-1.5.678-1.5 1.5s.678 1.5 1.5 1.5 1.5-.678 1.5-1.5-.678-1.5-1.5-1.5z" id="path5" fill="currentColor" opacity="1" color="#d3dae3"/></svg>