<svg xmlns="http://www.w3.org/2000/svg" width="22" height="22" version="1.1" id="svg7"><defs id="defs3"><style type="text/css" id="current-color-scheme"></style></defs><path transform="translate(3 3)" d="M1.25 3.004a.25.25 0 0 0-.25.25v1.5c0 .138.111.25.25.25h1.5a.25.25 0 0 0 .25-.25v-1.5a.25.25 0 0 0-.25-.25h-1.5zm4 0a.25.25 0 0 0-.25.25v1.5c0 .138.112.25.25.25h1.5a.25.25 0 0 0 .25-.25v-1.5a.25.25 0 0 0-.25-.25h-1.5zm4 0a.25.25 0 0 0-.25.25v1.5c0 .138.111.25.25.25h1.5a.25.25 0 0 0 .25-.25v-1.5a.25.25 0 0 0-.25-.25h-1.5zm4 0a.25.25 0 0 0-.25.25v1.5c0 .138.111.25.25.25h1.5a.25.25 0 0 0 .25-.25v-1.5a.25.25 0 0 0-.25-.25h-1.5zm-12 4a.25.25 0 0 0-.25.25v1.5c0 .138.111.25.25.25h1.5a.25.25 0 0 0 .25-.25v-1.5a.25.25 0 0 0-.25-.25h-1.5zm4 0a.25.25 0 0 0-.25.25v1.5c0 .138.112.25.25.25h1.5a.25.25 0 0 0 .25-.25v-1.5a.25.25 0 0 0-.25-.25h-1.5zm4 0a.25.25 0 0 0-.25.25v1.5c0 .138.111.25.25.25h1.5a.25.25 0 0 0 .25-.25v-1.5a.25.25 0 0 0-.25-.25h-1.5zm4 0a.25.25 0 0 0-.25.25v1.5c0 .138.111.25.25.25h1.5a.25.25 0 0 0 .25-.25v-1.5a.25.25 0 0 0-.25-.25h-1.5zm-12 4a.25.25 0 0 0-.25.25v1.5c0 .138.111.25.25.25h1.5a.25.25 0 0 0 .25-.25v-1.5a.25.25 0 0 0-.25-.25h-1.5zm4 0a.25.25 0 0 0-.25.25v1.5c0 .138.112.25.25.25h1.5a.25.25 0 0 0 .25-.25v-1.5a.25.25 0 0 0-.25-.25h-1.5zm4 0a.25.25 0 0 0-.25.25v1.5c0 .138.111.25.25.25h1.5a.25.25 0 0 0 .25-.25v-1.5a.25.25 0 0 0-.25-.25h-1.5zm4 0a.25.25 0 0 0-.25.25v1.5c0 .138.111.25.25.25h1.5a.25.25 0 0 0 .25-.25v-1.5a.25.25 0 0 0-.25-.25h-1.5z" id="path5" fill="currentColor" opacity="1" color="#d3dae3"/></svg>