<?xml version="1.0" encoding="UTF-8" standalone="no"?>
<svg
   xmlns:dc="http://purl.org/dc/elements/1.1/"
   xmlns:cc="http://creativecommons.org/ns#"
   xmlns:rdf="http://www.w3.org/1999/02/22-rdf-syntax-ns#"
   xmlns:svg="http://www.w3.org/2000/svg"
   xmlns="http://www.w3.org/2000/svg"
   xmlns:xlink="http://www.w3.org/1999/xlink"
   xmlns:sodipodi="http://sodipodi.sourceforge.net/DTD/sodipodi-0.dtd"
   xmlns:inkscape="http://www.inkscape.org/namespaces/inkscape"
   width="32"
   height="32"
   version="1"
   id="svg16"
   sodipodi:docname="folder-linux.svg"
   inkscape:version="0.92.4 5da689c313, 2019-01-14">
  <metadata
     id="metadata22">
    <rdf:RDF>
      <cc:Work
         rdf:about="">
        <dc:format>image/svg+xml</dc:format>
        <dc:type
           rdf:resource="http://purl.org/dc/dcmitype/StillImage" />
      </cc:Work>
    </rdf:RDF>
  </metadata>
  <defs
     id="defs20">
    <linearGradient
       inkscape:collect="always"
       id="linearGradient820">
      <stop
         style="stop-color:#2aae73;stop-opacity:1"
         offset="0"
         id="stop816" />
      <stop
         style="stop-color:#b6eaab;stop-opacity:1"
         offset="1"
         id="stop818" />
    </linearGradient>
    <linearGradient
       inkscape:collect="always"
       xlink:href="#linearGradient820"
       id="linearGradient822"
       x1="16.901945"
       y1="28.474577"
       x2="16.873501"
       y2="6.7341032"
       gradientUnits="userSpaceOnUse" />
    <linearGradient
       gradientTransform="translate(0.0013493,-0.0581685)"
       inkscape:collect="always"
       xlink:href="#linearGradient990"
       id="linearGradient829-3"
       x1="16.87215"
       y1="28.452196"
       x2="16.87215"
       y2="6.7922716"
       gradientUnits="userSpaceOnUse" />
    <linearGradient
       id="linearGradient990"
       inkscape:collect="always">
      <stop
         id="stop986"
         offset="0"
         style="stop-color:#2aae73;stop-opacity:1" />
      <stop
         id="stop988"
         offset="1"
         style="stop-color:#71d997;stop-opacity:1" />
    </linearGradient>
    <linearGradient
       inkscape:collect="always"
       xlink:href="#linearGradient889"
       id="linearGradient891"
       x1="-34.169491"
       y1="21.288134"
       x2="-13.152541"
       y2="7.4576254"
       gradientUnits="userSpaceOnUse"
       gradientTransform="matrix(1.2926751,0,0,1.5798246,46.671878,-6.634522)" />
    <linearGradient
       inkscape:collect="always"
       id="linearGradient889">
      <stop
         style="stop-color:#8998ad;stop-opacity:1"
         offset="0"
         id="stop885" />
      <stop
         style="stop-color:#cef2e1;stop-opacity:1"
         offset="1"
         id="stop887" />
    </linearGradient>
  </defs>
  <sodipodi:namedview
     pagecolor="#ffffff"
     bordercolor="#666666"
     borderopacity="1"
     objecttolerance="10"
     gridtolerance="10"
     guidetolerance="10"
     inkscape:pageopacity="0"
     inkscape:pageshadow="2"
     inkscape:window-width="924"
     inkscape:window-height="673"
     id="namedview18"
     showgrid="false"
     inkscape:zoom="12.3125"
     inkscape:cx="16"
     inkscape:cy="16"
     inkscape:window-x="503"
     inkscape:window-y="157"
     inkscape:window-maximized="0"
     inkscape:current-layer="svg16" />
  <path
     style="fill:url(#linearGradient822);fill-opacity:1;stroke:none;stroke-width:0.14515875;stroke-miterlimit:4;stroke-dasharray:none;stroke-opacity:1"
     d="m 27.90368,6.7271303 c 1.168734,-7.388e-4 2.109629,0.9408943 2.109629,2.1096293 V 26.44728 c 0,1.168735 -0.940895,2.109629 -2.109629,2.109629 H 4.09632 c -1.168734,0 -2.109682,-0.940894 -2.109629,-2.109629 l 7.31e-4,-16.244507 7.31e-4,-5.0669083 c 0,-0.9377965 0.754977,-1.6927733 1.692774,-1.6927733 h 9.09082 c 0.937797,0 1.704839,0.3713212 2.299888,1.096152 L 16.8735,6.7341033 Z"
     id="rect4549-3"
     inkscape:connector-curvature="0"
     sodipodi:nodetypes="sssssscsssscs" />
  <rect
     style="opacity:1;vector-effect:none;fill:url(#linearGradient891);fill-opacity:1;fill-rule:nonzero;stroke:none;stroke-width:0.20743993;stroke-linecap:butt;stroke-linejoin:miter;stroke-miterlimit:4;stroke-dasharray:none;stroke-dashoffset:0;stroke-opacity:1;paint-order:markers stroke fill"
     id="rect883"
     width="27.168089"
     height="21.849777"
     x="2.5018301"
     y="5.1472187"
     transform="matrix(0.99999999,1.0125852e-4,-6.7794228e-5,1,0,0)"
     inkscape:transform-center-x="4.8282266"
     inkscape:transform-center-y="-6.7305722" />
  <path
     style="fill:url(#linearGradient829-3);fill-opacity:1;stroke:none;stroke-width:0.1;stroke-miterlimit:4;stroke-dasharray:none;stroke-opacity:1"
     d="m 27.90368,6.7271303 c 1.168734,-7.388e-4 2.109629,0.9408941 2.109629,2.1096297 v 17.610521 c 0,1.168735 -0.940895,2.109629 -2.109629,2.109629 H 4.0963213 c -1.168735,0 -2.109682,-0.940894 -2.10963,-2.109629 l 7.31e-4,-16.244508 0.112959,-4.2813151 c 0.02473,-0.9374707 0.64275,-1.4683178 1.580546,-1.4683178 h 8.9785917 c 0.937797,0 1.827453,0.1319292 2.524344,0.7594692 l 1.689637,1.521494 z"
     id="rect4549-9"
     inkscape:connector-curvature="0"
     sodipodi:nodetypes="sssssscsssscs" />
  <path
     inkscape:connector-curvature="0"
     style="fill:#ccf8e3;fill-opacity:1;fill-rule:evenodd;stroke:none;stroke-width:0.65070623"
     id="Page-1"
     d="m 18.691643,19.182034 c 0,-0.07885 -0.120461,-0.170828 -0.361389,-0.275983 0.01754,-0.06568 0.03393,-0.125898 0.04929,-0.180673 0.0153,-0.05474 0.02629,-0.111697 0.03283,-0.170832 0.0067,-0.05914 0.01306,-0.106248 0.01971,-0.141268 0.0067,-0.03489 0.0077,-0.08435 0.003,-0.147848 -0.0043,-0.0635 -0.0067,-0.106241 -0.0067,-0.128133 0,-0.0218 -0.0077,-0.07009 -0.02298,-0.14453 -0.01531,-0.07449 -0.02407,-0.119372 -0.0263,-0.134725 -0.0021,-0.01526 -0.01306,-0.07009 -0.03284,-0.164242 -0.01971,-0.0942 -0.03174,-0.15225 -0.03616,-0.174144 -0.04381,-0.21026 -0.146742,-0.435823 -0.30882,-0.676784 -0.162076,-0.240917 -0.319764,-0.405161 -0.473087,-0.492784 0.105135,0.08762 0.229974,0.269395 0.374533,0.545378 0.381095,0.709621 0.499362,1.318499 0.354814,1.826636 -0.04819,0.175191 -0.1577,0.267175 -0.328536,0.275932 -0.135794,0.01745 -0.220119,-0.02311 -0.252966,-0.121534 -0.03284,-0.09858 -0.05038,-0.281448 -0.05256,-0.548659 -0.0021,-0.267212 -0.02739,-0.501548 -0.07557,-0.703036 -0.03942,-0.170834 -0.08213,-0.32195 -0.128121,-0.453401 -0.046,-0.131405 -0.08871,-0.231062 -0.128129,-0.298966 -0.03943,-0.06785 -0.07337,-0.121546 -0.101843,-0.160976 -0.02848,-0.03925 -0.05695,-0.07227 -0.08542,-0.09856 -0.02848,-0.02617 -0.04489,-0.04144 -0.04928,-0.04597 -0.06132,-0.271582 -0.129222,-0.497184 -0.203687,-0.676785 -0.07447,-0.179594 -0.139083,-0.302234 -0.193827,-0.367963 -0.05476,-0.06568 -0.106237,-0.137989 -0.154419,-0.216844 -0.04818,-0.0788 -0.08104,-0.16642 -0.09855,-0.262806 -0.01754,-0.09198 -0.0043,-0.20917 0.03942,-0.351518 0.04381,-0.142352 0.05367,-0.250773 0.02958,-0.325264 -0.02412,-0.07445 -0.121578,-0.129225 -0.29242,-0.164245 -0.0657,-0.01303 -0.163163,-0.05255 -0.292385,-0.118279 -0.129223,-0.06572 -0.206972,-0.100749 -0.233257,-0.105108 -0.03502,-0.0043 -0.05915,-0.06136 -0.07228,-0.170875 -0.01305,-0.10951 0.0043,-0.221203 0.05257,-0.335077 0.04818,-0.113918 0.127031,-0.173054 0.236532,-0.177415 0.162083,-0.01303 0.273779,0.05255 0.335107,0.19713 0.06134,0.14453 0.07009,0.271573 0.0263,0.381088 -0.04818,0.08321 -0.05257,0.14126 -0.01305,0.1741 0.03942,0.03271 0.105132,0.03402 0.197121,0.0043 0.05694,-0.01744 0.08541,-0.09634 0.08541,-0.236508 V 13.57169 c -0.0219,-0.131409 -0.05146,-0.240917 -0.0887,-0.328537 -0.03725,-0.08762 -0.08323,-0.154389 -0.137982,-0.2004 -0.05475,-0.04601 -0.106231,-0.07885 -0.154416,-0.09857 -0.04818,-0.01962 -0.107313,-0.0362 -0.177399,-0.04928 -0.468709,0.03489 -0.663637,0.328533 -0.584787,0.880452 0,0.06573 -0.0021,0.09857 -0.0067,0.09857 -0.03942,-0.03925 -0.104029,-0.06241 -0.19383,-0.069 -0.08979,-0.0066 -0.162075,-0.0052 -0.21683,0.0043 -0.05476,0.0087 -0.08871,0 -0.101845,-0.03271 0.0044,-0.249682 -0.03066,-0.446767 -0.105129,-0.591345 -0.07447,-0.144577 -0.173025,-0.219023 -0.295677,-0.223428 -0.118274,-0.0043 -0.209167,0.05587 -0.272684,0.180684 -0.06351,0.124865 -0.09965,0.255182 -0.108413,0.390989 -0.0044,0.06568 0.0031,0.146716 0.02298,0.2431 0.01971,0.09639 0.04818,0.178507 0.08542,0.246414 0.03724,0.06786 0.07119,0.09743 0.101849,0.08871 0.0438,-0.01303 0.07885,-0.04383 0.10513,-0.09202 0.01753,-0.03925 0.0022,-0.05692 -0.04599,-0.05256 -0.03066,0 -0.06461,-0.03184 -0.101844,-0.09525 -0.03725,-0.06355 -0.05804,-0.136901 -0.06242,-0.220158 -0.0044,-0.09634 0.01535,-0.177378 0.05914,-0.243099 0.0438,-0.06568 0.11827,-0.09639 0.223398,-0.09198 0.07447,0 0.133604,0.04597 0.177408,0.137992 0.0438,0.09198 0.06461,0.177371 0.06242,0.256227 -0.0022,0.07885 -0.0054,0.127042 -0.0099,0.144569 -0.09637,0.06568 -0.164267,0.129231 -0.203689,0.190549 -0.03502,0.05255 -0.09527,0.104017 -0.180691,0.154386 -0.08542,0.05042 -0.130316,0.07776 -0.134698,0.08217 -0.05694,0.06132 -0.09089,0.120459 -0.101845,0.177375 -0.01094,0.05696 0.0055,0.09638 0.04928,0.118278 0.06132,0.03489 0.116079,0.07776 0.164267,0.12813 0.04818,0.05038 0.08323,0.09198 0.105129,0.124866 0.02189,0.03271 0.06242,0.06132 0.121558,0.0854 0.05913,0.02399 0.136887,0.03838 0.233253,0.04274 0.205884,0.0087 0.429282,-0.02399 0.670204,-0.09856 0.0088,-0.0043 0.05914,-0.01962 0.151126,-0.04597 0.09199,-0.02617 0.167555,-0.04929 0.226688,-0.069 0.05913,-0.01963 0.12375,-0.04819 0.193835,-0.08544 0.07009,-0.03707 0.116082,-0.07553 0.137987,-0.114965 0.03942,-0.06131 0.08322,-0.07885 0.131403,-0.05255 0.0219,0.01303 0.03616,0.03184 0.0427,0.05582 0.0067,0.02399 0,0.05037 -0.01972,0.07885 -0.0197,0.02836 -0.05584,0.04929 -0.108405,0.06242 -0.08762,0.02616 -0.211356,0.07339 -0.371238,0.141258 -0.159889,0.06791 -0.259548,0.110648 -0.298967,0.128132 -0.19274,0.08326 -0.346056,0.133634 -0.459951,0.151116 -0.109511,0.02181 -0.282532,0.01745 -0.519079,-0.01303 -0.04381,-0.0087 -0.06351,-0.0043 -0.05913,0.01303 0.0044,0.01745 0.04161,0.05914 0.111701,0.124865 0.109511,0.10075 0.256256,0.148938 0.440232,0.144539 0.07447,-0.0043 0.153317,-0.01963 0.236544,-0.04597 0.08323,-0.02617 0.162074,-0.05696 0.236546,-0.09198 0.07447,-0.03489 0.147831,-0.07341 0.22012,-0.115006 0.07227,-0.04144 0.137983,-0.07886 0.197115,-0.111696 0.05913,-0.03271 0.112795,-0.05914 0.16098,-0.07885 0.04819,-0.01962 0.08651,-0.02529 0.114985,-0.01657 0.02847,0.0087 0.04709,0.0327 0.05585,0.07227 0,0.0087 -0.0021,0.01876 -0.0067,0.02966 -0.0043,0.01088 -0.01305,0.0218 -0.02629,0.0327 -0.01306,0.01088 -0.02631,0.02094 -0.03943,0.02966 -0.01306,0.0087 -0.03175,0.01963 -0.05585,0.03271 -0.02407,0.01303 -0.0438,0.02311 -0.05913,0.02965 -0.0153,0.0066 -0.03724,0.01745 -0.0657,0.03272 -0.02848,0.01526 -0.04929,0.02529 -0.06242,0.02966 -0.122647,0.06132 -0.270485,0.157698 -0.443515,0.289108 -0.173025,0.131399 -0.318678,0.225602 -0.436947,0.282561 -0.118273,0.05691 -0.225592,0.0591 -0.321964,0.0066 -0.09199,-0.04819 -0.22997,-0.208078 -0.41395,-0.47966 -0.09637,-0.135802 -0.151122,-0.184001 -0.164263,-0.144568 -0.0044,0.01303 -0.0066,0.03489 -0.0066,0.06572 0,0.109515 -0.03284,0.233245 -0.09856,0.371236 -0.06571,0.13799 -0.130319,0.259533 -0.193831,0.36464 -0.06352,0.105156 -0.109512,0.232199 -0.137987,0.38114 -0.02848,0.148885 -0.0031,0.286877 0.07556,0.413919 -0.10075,0.02618 -0.237637,0.22339 -0.410663,0.591351 -0.173029,0.367961 -0.277062,0.676787 -0.312106,0.926466 -0.0088,0.07885 -0.01204,0.229969 -0.0099,0.453365 0.0022,0.223416 -0.0099,0.35264 -0.03615,0.387674 -0.03502,0.105146 -0.09856,0.111676 -0.190549,0.01961 -0.140171,-0.135758 -0.21902,-0.341654 -0.236542,-0.617644 -0.0088,-0.122634 0,-0.24528 0.0263,-0.367916 0.01753,-0.08326 0.01531,-0.12268 -0.0066,-0.118282 l -0.0263,0.03272 c -0.157695,0.2847 -0.135793,0.6483 0.06571,1.090704 0.02189,0.05256 0.07666,0.113882 0.164267,0.183966 0.08761,0.07009 0.14017,0.113913 0.157695,0.131452 0.08761,0.100746 0.315386,0.298916 0.683342,0.594613 0.367957,0.295689 0.571646,0.46326 0.611072,0.50264 0.07009,0.06573 0.108413,0.148933 0.114984,0.249679 0.0066,0.100786 -0.02407,0.194962 -0.09199,0.282563 -0.0679,0.08763 -0.167552,0.137996 -0.298965,0.15112 0.03502,0.06573 0.09856,0.163157 0.190548,0.292393 0.09199,0.129216 0.153313,0.247483 0.183976,0.354829 0.03066,0.107331 0.04599,0.261715 0.04599,0.463215 0.2015,-0.105119 0.216829,-0.306647 0.04599,-0.604481 -0.01753,-0.03489 -0.04052,-0.07008 -0.06899,-0.105149 -0.02848,-0.0349 -0.04928,-0.06132 -0.06242,-0.07886 -0.01313,-0.01742 -0.01753,-0.03051 -0.01313,-0.03924 0.01313,-0.02181 0.04161,-0.04275 0.08542,-0.06242 0.0438,-0.01963 0.08761,-0.01439 0.131414,0.01657 0.2015,0.227796 0.56507,0.306646 1.090716,0.236564 0.582608,-0.06573 0.970268,-0.25627 1.163001,-0.571676 0.100755,-0.166418 0.175225,-0.232148 0.223413,-0.197085 0.05255,0.02616 0.07446,0.140166 0.0657,0.341666 -0.0043,0.109498 -0.05475,0.310999 -0.151124,0.604464 -0.03942,0.100793 -0.05256,0.182911 -0.03942,0.246428 0.01305,0.06348 0.06571,0.09746 0.157699,0.101828 0.01306,-0.08323 0.0449,-0.25186 0.09527,-0.505912 0.05037,-0.254087 0.07994,-0.451224 0.08871,-0.591389 0.0088,-0.09198 -0.0055,-0.252965 -0.0427,-0.482929 -0.03724,-0.229966 -0.05366,-0.442401 -0.04927,-0.637347 0.0043,-0.194914 0.05475,-0.349338 0.151121,-0.463221 0.0657,-0.07885 0.177405,-0.11827 0.3351,-0.11827 0.0043,-0.162068 0.07994,-0.278165 0.226687,-0.348247 0.146741,-0.07009 0.305532,-0.09307 0.476368,-0.069 0.170842,0.02399 0.302248,0.07336 0.394235,0.147846 z m -4.126354,-5.433926 c 0.01313,-0.07445 0.0077,-0.140172 -0.01644,-0.197085 -0.02407,-0.05696 -0.04928,-0.0898 -0.07556,-0.09857 -0.03943,-0.0087 -0.05913,0.0066 -0.05913,0.04597 0.0088,0.02181 0.01971,0.03489 0.03284,0.03926 0.0438,0 0.05913,0.0327 0.04599,0.09856 -0.01313,0.08762 0.0044,0.131406 0.05256,0.131406 0.01313,0 0.01972,-0.0066 0.01972,-0.01963 z m 1.583521,-0.105107 c 0,-0.04819 -0.01093,-0.09089 -0.03284,-0.128133 -0.02189,-0.03707 -0.04599,-0.06459 -0.07227,-0.08212 -0.0263,-0.01745 -0.046,-0.02399 -0.05914,-0.01963 -0.06132,0.0043 -0.07665,0.01963 -0.04599,0.04597 0.0088,0.0043 0.01753,0.0087 0.0263,0.01303 0.06132,0.01745 0.100747,0.08544 0.11827,0.203716 0,0.01302 0.01753,0.0087 0.05256,-0.01303 z m 4.270906,7.441207 c 0.04818,0.05478 0.07447,0.107335 0.07885,0.157715 0.0043,0.05036 -8.98e-4,0.09965 -0.01645,0.147843 -0.01535,0.04819 -0.04928,0.09638 -0.101845,0.144521 -0.05256,0.0482 -0.104032,0.09094 -0.154407,0.128132 -0.05038,0.03709 -0.116082,0.07776 -0.197119,0.121565 -0.08104,0.04383 -0.150028,0.07993 -0.206974,0.108416 -0.05694,0.02835 -0.127028,0.06246 -0.210257,0.101879 -0.08323,0.03926 -0.14237,0.06785 -0.177414,0.0854 -0.166453,0.08322 -0.353715,0.205887 -0.561783,0.367964 -0.208075,0.162067 -0.373435,0.302232 -0.49609,0.420498 -0.07446,0.07007 -0.223393,0.112804 -0.446798,0.128135 -0.223403,0.0153 -0.418329,-0.01656 -0.58478,-0.09528 -0.07885,-0.03925 -0.143468,-0.0909 -0.193834,-0.154385 -0.05038,-0.0635 -0.08652,-0.119382 -0.108424,-0.167564 -0.02189,-0.0482 -0.07008,-0.0909 -0.144548,-0.12813 -0.07447,-0.03707 -0.177411,-0.05805 -0.308819,-0.06242 -0.192742,-0.0043 -0.477465,-0.0066 -0.854181,-0.0066 -0.08323,0 -0.208068,0.0042 -0.37453,0.01009 -0.166453,0.0066 -0.293484,0.01219 -0.381094,0.01657 -0.192738,0.0044 -0.366858,0.03708 -0.522364,0.09856 -0.155506,0.06132 -0.27268,0.127047 -0.351528,0.19713 -0.07885,0.07008 -0.174123,0.132501 -0.285825,0.187218 -0.1117,0.05478 -0.228875,0.07995 -0.351526,0.07559 -0.127031,-0.0043 -0.370142,-0.07226 -0.729337,-0.203676 -0.3592,-0.131443 -0.678964,-0.225595 -0.95931,-0.282559 -0.08323,-0.01746 -0.194933,-0.03838 -0.335103,-0.06242 -0.140176,-0.02398 -0.249683,-0.04377 -0.328532,-0.05913 -0.07885,-0.01529 -0.165361,-0.03619 -0.259539,-0.0624 -0.09418,-0.02616 -0.167552,-0.05805 -0.220117,-0.09531 -0.05256,-0.03707 -0.0898,-0.07993 -0.111702,-0.128137 -0.0438,-0.100734 -0.02848,-0.246367 0.04599,-0.436916 0.07447,-0.190577 0.113891,-0.309908 0.11827,-0.358097 0.0044,-0.07008 -0.0044,-0.157709 -0.0263,-0.262854 -0.02189,-0.105109 -0.0438,-0.198175 -0.06571,-0.279253 -0.02189,-0.08103 -0.03175,-0.160966 -0.02957,-0.239832 0.0022,-0.07884 0.02521,-0.137931 0.069,-0.177367 0.06133,-0.0526 0.186166,-0.08326 0.374524,-0.09201 0.18836,-0.0087 0.319769,-0.0349 0.394238,-0.07885 0.131415,-0.07882 0.223402,-0.155492 0.275964,-0.229979 0.05257,-0.07445 0.07885,-0.186137 0.07885,-0.335067 0,0.124813 0.116081,-0.197136 0.09856,-0.302241 -0.01313,-0.07009 -0.01753,-0.153347 -0.01313,-0.249688 0.0044,-0.127035 0.0263,-0.240961 0.06571,-0.341704 0.03943,-0.100747 0.09199,-0.203674 0.157694,-0.308821 0.06571,-0.105105 0.113891,-0.197084 0.14455,-0.275938 0.03502,-0.09198 0.09309,-0.249688 0.174124,-0.473109 0.08104,-0.223391 0.14565,-0.39422 0.193834,-0.512503 0.04818,-0.118272 0.113889,-0.251862 0.197121,-0.4008 0.08323,-0.148936 0.16864,-0.267215 0.25625,-0.354825 0.481851,-0.626416 0.753432,-1.05347 0.81476,-1.281263 -0.05257,-0.490596 -0.08761,-1.16956 -0.105132,-2.036891 -0.0088,-0.394257 0.04381,-0.726064 0.157695,-0.995458 0.113891,-0.269393 0.346054,-0.498275 0.696486,-0.686641 0.170837,-0.09198 0.398618,-0.137947 0.683343,-0.137947 0.232167,-0.0043 0.464327,0.0253 0.696487,0.08867 0.232162,0.06355 0.427089,0.154433 0.584787,0.272712 0.249679,0.183959 0.450089,0.450084 0.601211,0.798331 0.151121,0.348247 0.21574,0.671286 0.193837,0.969163 -0.0219,0.416151 0.04381,0.884816 0.197113,1.406117 0.148938,0.494961 0.440231,0.972438 0.873896,1.432379 0.240926,0.258443 0.458847,0.615456 0.65378,1.071043 0.194923,0.455532 0.325243,0.873869 0.390949,1.254955 0.03502,0.214656 0.04599,0.399707 0.03284,0.555225 -0.01305,0.155479 -0.03942,0.277084 -0.07884,0.364649 -0.03943,0.08763 0.05694,0.440277 0.118271,0.387674 0.0043,0.135812 0.0219,0.259536 0.05256,0.371231 0.03066,0.111743 0.06243,0.200456 0.09528,0.266134 0.03284,0.06572 0.07775,0.12813 0.134694,0.187271 0.05694,0.05914 0.102941,0.100741 0.137982,0.12481 0.03502,0.02399 0.08213,0.05261 0.141276,0.08544 0.05913,0.03271 0.09527,0.05364 0.108406,0.06241 0.08761,0.05256 0.155505,0.106255 0.203695,0.160981 z" />
</svg>
