<svg xmlns="http://www.w3.org/2000/svg" xmlns:xlink="http://www.w3.org/1999/xlink" width="32" height="32" version="1"><defs><linearGradient id="a"><stop offset="0" stop-color="#2aae73"/><stop offset="1" stop-color="#71d997"/></linearGradient><linearGradient id="b"><stop offset="0" stop-color="#8998ad"/><stop offset="1" stop-color="#cef2e1"/></linearGradient><linearGradient xlink:href="#a" id="d" x1="-5.667" y1="22.201" x2="-5.597" y2="10.718" gradientUnits="userSpaceOnUse" gradientTransform="matrix(1.84713 0 0 1.84713 -1.697 -28.434)"/><linearGradient xlink:href="#b" id="c" x1="-34.169" y1="21.288" x2="-13.153" y2="7.458" gradientUnits="userSpaceOnUse" gradientTransform="matrix(1.22723 0 0 1.49985 17.688 -21.176)"/></defs><g transform="matrix(1 0 0 1.03528 28.578 14.98)"><path d="M-8.585-12.404c-2.391 0-3.167 1.885-4.395 3.768H-24.44c-1.739 0-3.139 1.4-3.139 3.139V9.57c.008.175.045.344.08.51.149.868.643 1.609 1.373 2.08.348.224.75.387 1.178.47.213.044.4.08.628.08H-.696c.228 0 .415-.034.628-.08a3.352 3.352 0 0 0 1.177-.47 3.082 3.082 0 0 0 1.373-2.08c.034-.166.07-.336.08-.51V-9.107c0-1.836-1.443-3.297-3.258-3.297h-7.887z" fill="#2aae73" stroke="#71d997" stroke-width=".098"/><rect width="25.793" height="20.744" x="-24.146" y="-9.991" transform="rotate(.008) skewX(.002)" ry="1.676" opacity=".647" fill="#4b7c66" paint-order="markers stroke fill"/><rect width="25.793" height="20.744" x="-24.246" y="-9.991" transform="rotate(.008) skewX(.002)" ry="1.676" fill="url(#c)" paint-order="markers stroke fill"/><path d="M-16.431-12.404c2.39 0 3.166 1.885 4.394 3.768H-.578c1.739 0 3.139 1.4 3.139 3.139V9.57c-.008.175-.045.344-.08.51a3.078 3.078 0 0 1-1.373 2.08c-.348.224-.75.387-1.178.47-.213.044-.4.08-.628.08H-24.32c-.227 0-.414-.034-.628-.08a3.352 3.352 0 0 1-1.176-.47 3.082 3.082 0 0 1-1.374-2.08c-.034-.166-.07-.336-.08-.51V-9.107c0-1.836 1.444-3.297 3.258-3.297h7.887z" fill="url(#d)" stroke="#71d997" stroke-width=".098"/><path d="M-12.528-4.762c-3.313 0-6 2.595-6 5.795 0 3.201 2.687 5.796 6 5.796h3.75s.703-.29.75-1.015c0-.725-.75-.917-.75-.917h-3.75a4.05 4.05 0 0 1-.582-.045c-.7-.077-1.256-.29-1.676-.63l-.006-.004c-1.086-.72-1.736-1.912-1.736-3.185 0-2.133 1.79-3.863 4-3.863 2.209 0 4 1.73 4 3.863 0 .439-.092.72-.24.968L-8.778 2h-.934c.112-.303.184-.626.184-.966 0-1.6-1.343-2.897-3-2.897-1.656 0-3 1.297-3 2.897 0 1.6 1.343 2.898 3 2.898h3.75c.542-.048.923-.358 1.27-.556.762-.526.98-1.266.98-2.342 0-3.2-2.686-5.795-6-5.795zm0 4.83c.552 0 1 .432 1 .965 0 .533-.448.966-1 .966s-1-.433-1-.966c0-.533.448-.966 1-.966z" opacity=".647" fill="#4b7c66"/><path d="M-12.628-4.859c-3.313 0-6 2.596-6 5.796s2.687 5.795 6 5.795h3.75s.703-.29.75-1.015c0-.724-.75-.917-.75-.917h-3.75a4.05 4.05 0 0 1-.582-.045c-.7-.076-1.256-.289-1.676-.63l-.006-.004c-1.086-.72-1.736-1.911-1.736-3.184 0-2.134 1.79-3.864 4-3.864 2.209 0 4 1.73 4 3.864 0 .438-.092.72-.24.967l-.01-.001h-.934c.112-.304.184-.626.184-.966 0-1.6-1.343-2.898-3-2.898-1.656 0-3 1.297-3 2.898 0 1.6 1.343 2.897 3 2.897h3.75c.542-.048.923-.358 1.27-.556.762-.525.98-1.265.98-2.341 0-3.201-2.686-5.796-6-5.796zm0 4.83c.552 0 1 .432 1 .966 0 .533-.448.966-1 .966s-1-.433-1-.966c0-.534.448-.966 1-.966z" fill="#cef2e1"/></g></svg>