<?xml version="1.0" encoding="UTF-8" standalone="no"?>
<svg
   xmlns:dc="http://purl.org/dc/elements/1.1/"
   xmlns:cc="http://creativecommons.org/ns#"
   xmlns:rdf="http://www.w3.org/1999/02/22-rdf-syntax-ns#"
   xmlns:svg="http://www.w3.org/2000/svg"
   xmlns="http://www.w3.org/2000/svg"
   xmlns:xlink="http://www.w3.org/1999/xlink"
   xmlns:sodipodi="http://sodipodi.sourceforge.net/DTD/sodipodi-0.dtd"
   xmlns:inkscape="http://www.inkscape.org/namespaces/inkscape"
   width="32"
   height="32"
   version="1"
   id="svg14"
   sodipodi:docname="folder-mail-cloud.svg"
   inkscape:version="0.92.4 5da689c313, 2019-01-14">
  <metadata
     id="metadata20">
    <rdf:RDF>
      <cc:Work
         rdf:about="">
        <dc:format>image/svg+xml</dc:format>
        <dc:type
           rdf:resource="http://purl.org/dc/dcmitype/StillImage" />
        <dc:title />
      </cc:Work>
    </rdf:RDF>
  </metadata>
  <defs
     id="defs18">
    <linearGradient
       id="linearGradient990"
       inkscape:collect="always">
      <stop
         id="stop986"
         offset="0"
         style="stop-color:#2aae73;stop-opacity:1" />
      <stop
         id="stop988"
         offset="1"
         style="stop-color:#71d997;stop-opacity:1" />
    </linearGradient>
    <linearGradient
       inkscape:collect="always"
       id="linearGradient827">
      <stop
         style="stop-color:#2aae73;stop-opacity:1"
         offset="0"
         id="stop823" />
      <stop
         style="stop-color:#b6eaab;stop-opacity:1"
         offset="1"
         id="stop825" />
    </linearGradient>
    <linearGradient
       inkscape:collect="always"
       id="linearGradient889">
      <stop
         style="stop-color:#8998ad;stop-opacity:1"
         offset="0"
         id="stop885" />
      <stop
         style="stop-color:#cef2e1;stop-opacity:1"
         offset="1"
         id="stop887" />
    </linearGradient>
    <linearGradient
       inkscape:collect="always"
       xlink:href="#linearGradient990"
       id="linearGradient975"
       x1="-5.667089"
       y1="22.200636"
       x2="-5.5973864"
       y2="10.717914"
       gradientUnits="userSpaceOnUse"
       gradientTransform="matrix(1.8471337,0,0,1.8471337,-1.6973853,-28.433842)" />
    <linearGradient
       inkscape:collect="always"
       xlink:href="#linearGradient889"
       id="linearGradient891-3-3"
       x1="-34.169491"
       y1="21.288134"
       x2="-13.152548"
       y2="7.4576306"
       gradientUnits="userSpaceOnUse"
       gradientTransform="matrix(1.2272328,0,0,1.4998451,17.688366,-21.176367)" />
    <linearGradient
       gradientTransform="translate(3.6887887,-17.017371)"
       inkscape:collect="always"
       xlink:href="#linearGradient827"
       id="linearGradient1037"
       x1="-8.0969543"
       y1="11.094899"
       x2="-8.1753788"
       y2="4.9379373"
       gradientUnits="userSpaceOnUse" />
    <filter
       inkscape:collect="always"
       style="color-interpolation-filters:sRGB"
       id="filter1062"
       x="-0.079600621"
       width="1.1592012"
       y="-0.11989459"
       height="1.2397892">
      <feGaussianBlur
         inkscape:collect="always"
         stdDeviation="0.37290332"
         id="feGaussianBlur1064" />
    </filter>
    <filter
       inkscape:collect="always"
       style="color-interpolation-filters:sRGB"
       id="filter1210"
       x="-0.086456369"
       width="1.1729127"
       y="-0.10749328"
       height="1.2149866">
      <feGaussianBlur
         inkscape:collect="always"
         stdDeviation="0.92918504"
         id="feGaussianBlur1212" />
    </filter>
  </defs>
  <sodipodi:namedview
     pagecolor="#ffffff"
     bordercolor="#666666"
     borderopacity="1"
     objecttolerance="10"
     gridtolerance="10"
     guidetolerance="10"
     inkscape:pageopacity="0"
     inkscape:pageshadow="2"
     inkscape:window-width="1002"
     inkscape:window-height="789"
     id="namedview16"
     showgrid="false"
     inkscape:zoom="17.56"
     inkscape:cx="16"
     inkscape:cy="18.277905"
     inkscape:window-x="280"
     inkscape:window-y="124"
     inkscape:window-maximized="0"
     inkscape:current-layer="g872"
     showguides="true"
     inkscape:guide-bbox="true"
     inkscape:snap-global="true" />
  <g
     id="g872"
     transform="matrix(1.0000063,0,0,1.0352793,28.578472,14.980279)">
    <path
       inkscape:connector-curvature="0"
       d="m -8.5853303,-12.403521 c -2.3908547,0 -3.1668757,1.884805 -4.3949507,3.7670978 h -11.458257 c -1.739142,0 -3.139248,1.4001052 -3.139248,3.1392492 v 1.2557 10.6734457 1.883548 1.098738 0.156969 c 0.0076,0.174536 0.0452,0.344062 0.07911,0.5098153 0.149433,0.867687 0.644171,1.60855 1.373734,2.079436 0.347828,0.224771 0.749652,0.388013 1.177845,0.470888 0.213466,0.04394 0.400564,0.07911 0.627846,0.07911 h 23.62347871 c 0.227282,0 0.41438,-0.0339 0.62785,-0.07911 0.426937,-0.08288 0.828761,-0.246117 1.17659099,-0.470888 0.72956,-0.470886 1.22305,-1.211749 1.373733,-2.079436 0.0339,-0.1657443 0.07032,-0.3365283 0.07911,-0.5098153 V 9.4142577 8.3155197 -9.1073111 c 0,-1.8358329 -1.442798,-3.2962099 -3.25728399,-3.2962099 H -8.5828173 Z"
       style="opacity:1;fill:url(#linearGradient1037);fill-opacity:1;stroke:none;stroke-width:1.2556994"
       id="path25-2" />
    <rect
       style="opacity:0.647;vector-effect:none;fill:#000000;fill-opacity:1;fill-rule:nonzero;stroke:none;stroke-width:0.19693819;stroke-linecap:butt;stroke-linejoin:miter;stroke-miterlimit:4;stroke-dasharray:none;stroke-dashoffset:0;stroke-opacity:1;paint-order:markers stroke fill;filter:url(#filter1210)"
       id="rect883-5-5-3"
       width="25.792688"
       height="20.74362"
       x="-24.245554"
       y="-9.9910784"
       transform="matrix(0.99999999,1.0125852e-4,-6.7794228e-5,1,0,0)"
       inkscape:transform-center-x="4.5837926"
       inkscape:transform-center-y="-6.389833"
       ry="1.6756594" />
    <rect
       style="opacity:1;vector-effect:none;fill:url(#linearGradient891-3-3);fill-opacity:1;fill-rule:nonzero;stroke:none;stroke-width:0.19693819;stroke-linecap:butt;stroke-linejoin:miter;stroke-miterlimit:4;stroke-dasharray:none;stroke-dashoffset:0;stroke-opacity:1;paint-order:markers stroke fill"
       id="rect883-5-5"
       width="25.792688"
       height="20.74362"
       x="-24.245554"
       y="-9.9910784"
       transform="matrix(0.99999999,1.0125852e-4,-6.7794228e-5,1,0,0)"
       inkscape:transform-center-x="4.5837926"
       inkscape:transform-center-y="-6.389833"
       ry="1.6756594" />
    <path
       inkscape:connector-curvature="0"
       d="m -16.431455,-12.403521 c 2.390854,0 3.166876,1.884805 4.394951,3.7670978 h 11.45825471 c 1.73914199,0 3.13924799,1.4001052 3.13924799,3.1392492 v 1.2557 10.6734437 1.883548 1.098738 0.156969 c -0.0076,0.174536 -0.0452,0.344062 -0.07911,0.5098153 -0.149433,0.867687 -0.644173,1.60855 -1.373736,2.079436 -0.34782799,0.224771 -0.74965099,0.388013 -1.17784499,0.470888 -0.213465,0.04394 -0.400563,0.07911 -0.627846,0.07911 H -24.321014 c -0.227282,0 -0.41438,-0.03389 -0.62785,-0.07911 -0.426937,-0.08288 -0.828761,-0.246117 -1.176591,-0.470888 -0.72956,-0.470886 -1.22305,-1.211749 -1.373733,-2.079436 -0.03389,-0.1657433 -0.07032,-0.3365283 -0.07911,-0.5098153 V 9.4142557 8.3155177 -9.1073111 c 0,-1.8358329 1.442798,-3.2962099 3.257284,-3.2962099 h 7.887047 z"
       style="opacity:1;fill:url(#linearGradient975);fill-opacity:1;stroke:none;stroke-width:1.2556994"
       id="path25" />
    <path
       style="opacity:0.647;fill:#000000;fill-opacity:1;stroke-width:0.98281068;filter:url(#filter1062)"
       d="m -16.387693,4.3269725 c -0.03356,-0.02095 -0.09572,-0.03837 -0.138128,-0.03869 -0.16433,-0.0013 -0.67279,-0.279842 -0.91552,-0.501568 -0.136549,-0.124732 -0.248271,-0.246564 -0.248271,-0.270735 0,-0.02417 -0.02739,-0.0659 -0.06086,-0.09274 -0.128012,-0.102621 -0.306845,-0.534668 -0.366051,-0.884353 -0.111344,-0.657632 -0.07918,-0.988411 0.152715,-1.57062995 0.145196,-0.364536 0.129093,-0.341669 0.499801,-0.709768 0.208024,-0.20656 0.361438,-0.318396 0.559418,-0.407805 l 0.27279,-0.123194 v -0.170959 c 0,-0.553512 0.518285,-1.33134405 1.037467,-1.55701205 0.431304,-0.18747 0.537209,-0.208207 0.950848,-0.186191 0.219901,0.01171 0.434623,0.03856 0.477159,0.05968 0.04254,0.02111 0.159724,0.07942 0.260419,0.129564 0.100695,0.05014 0.207275,0.114262 0.236845,0.142486 0.0819,0.07817 0.104567,0.06609 0.253977,-0.135353 0.277202,-0.373742 0.705957,-0.733325 0.971442,-0.814715 0.04607,-0.01412 0.08376,-0.03851 0.08376,-0.0542 0,-0.02768 0.253007,-0.112287 0.594653,-0.198852 0.239242,-0.06062 0.861196,-0.05239 1.163811,0.01541 0.263097,0.05894 0.831304,0.313889 0.926748,0.415829 0.01119,0.01195 0.08939,0.07181 0.173774,0.133022 0.188978,0.137077 0.593007,0.62898 0.663718,0.808072 0.0128,0.03242 0.0493,0.105887 0.08111,0.163258 0.03181,0.05737 0.05784,0.139898 0.05784,0.183394 0,0.0435 0.01861,0.08508 0.04137,0.0924 0.02275,0.0073 0.06841,0.223847 0.101451,0.48115805 0.03304,0.25731 0.06478,0.471765 0.07052,0.476563 0.0057,0.0048 0.147745,0.07096 0.31557,0.147021 0.207192,0.09391 0.383496,0.21314 0.549249,0.371465 0.28941,0.276444 0.306697,0.297567 0.428421,0.523493 0.164275,0.30490595 0.174809,0.32868895 0.2166,0.48900295 0.0556,0.213272 0.05227,1.293671 -0.0047,1.513005 -0.08514,0.328026 -0.328045,0.736519 -0.589824,0.99191 -0.14287,0.139384 -0.569763,0.422846 -0.636808,0.422846 -0.03782,0 -0.08615,0.01632 -0.107408,0.03625 -0.02126,0.01994 -0.151143,0.06415 -0.288632,0.09825 -0.218876,0.05428 -0.715026,0.06192 -3.98713,0.06139 -2.342516,-3.78e-4 -3.75992,-0.01482 -3.798172,-0.03869 z"
       id="path4500-3"
       inkscape:connector-curvature="0" />
    <path
       style="fill:#cef2e1;fill-opacity:1;stroke-width:0.98281068"
       d="m -16.387693,4.3269762 c -0.03356,-0.020951 -0.09572,-0.038366 -0.138128,-0.038695 -0.16433,-0.00126 -0.67279,-0.2798423 -0.91552,-0.501568 -0.136549,-0.1247325 -0.248271,-0.2465644 -0.248271,-0.2707356 0,-0.024167 -0.02739,-0.065905 -0.06086,-0.092738 -0.128012,-0.1026216 -0.306845,-0.5346683 -0.366051,-0.8843536 -0.111344,-0.6576312 -0.07918,-0.9884106 0.152715,-1.57062949 0.145196,-0.364536 0.129093,-0.341669 0.499801,-0.70976796 0.208024,-0.20656 0.361438,-0.318396 0.559418,-0.407805 l 0.27279,-0.123194 v -0.170959 c 0,-0.55351197 0.518285,-1.33134395 1.037467,-1.55701195 0.431304,-0.18747 0.537209,-0.208207 0.950848,-0.186191 0.219901,0.01171 0.434623,0.03856 0.477159,0.05968 0.04254,0.02111 0.159724,0.07942 0.260419,0.129564 0.100695,0.05014 0.207275,0.114262 0.236845,0.142486 0.0819,0.07817 0.104567,0.06609 0.253977,-0.135353 0.277202,-0.373742 0.705957,-0.733325 0.971442,-0.814715 0.04607,-0.01412 0.08376,-0.03851 0.08376,-0.0542 0,-0.02768 0.253007,-0.112287 0.594653,-0.198852 0.239242,-0.06062 0.861196,-0.05239 1.163811,0.01541 0.263097,0.05894 0.8313035,0.313889 0.9267475,0.415829 0.01119,0.01195 0.08939,0.07181 0.173774,0.133022 0.188978,0.137077 0.593007,0.62898 0.663718,0.808072 0.0128,0.03242 0.0493,0.105887 0.08111,0.163258 0.03181,0.05737 0.05784,0.139898 0.05784,0.183394 0,0.0435 0.01861,0.08508 0.04137,0.0924 0.02275,0.0073 0.06841,0.223847 0.101451,0.48115798 0.03304,0.25730997 0.06478,0.47176497 0.07052,0.47656297 0.0057,0.0048 0.147745,0.07096 0.31557,0.147021 0.207191,0.09391 0.383495,0.21314 0.549248,0.371465 0.28941,0.276444 0.306697,0.29756696 0.428421,0.52349296 0.164275,0.30490599 0.174809,0.32868899 0.216601,0.48900309 0.0556,0.2132719 0.05227,1.2936702 -0.0047,1.5130042 -0.08514,0.3280265 -0.328046,0.7365192 -0.589824,0.9919101 -0.14287,0.1393847 -0.569764,0.4228463 -0.636808,0.4228463 -0.03782,0 -0.08615,0.016315 -0.107408,0.036251 -0.02126,0.019937 -0.151143,0.064147 -0.288632,0.098247 -0.218876,0.054275 -0.715026,0.061916 -3.9871305,0.061394 -2.342516,-3.777e-4 -3.75992,-0.014817 -3.798172,-0.038695 z"
       id="path4500"
       inkscape:connector-curvature="0" />
  </g>
</svg>
