<svg xmlns="http://www.w3.org/2000/svg" xmlns:xlink="http://www.w3.org/1999/xlink" width="32" height="32" version="1"><defs><linearGradient id="a"><stop offset="0" stop-color="#2aae73"/><stop offset="1" stop-color="#71d997"/></linearGradient><linearGradient id="b"><stop offset="0" stop-color="#8998ad"/><stop offset="1" stop-color="#cef2e1"/></linearGradient><linearGradient xlink:href="#a" id="d" x1="-5.667" y1="22.201" x2="-5.597" y2="10.718" gradientUnits="userSpaceOnUse" gradientTransform="matrix(1.84715 0 0 1.9123 26.881 -14.457)"/><linearGradient xlink:href="#b" id="c" x1="-34.169" y1="21.288" x2="-13.153" y2="7.458" gradientUnits="userSpaceOnUse" gradientTransform="matrix(1.22724 0 0 1.55276 46.268 -6.946)"/></defs><g transform="translate(.001)"><path d="M19.993 2.14c-2.39 0-3.167 1.95-4.395 3.9H4.14C2.4 6.04 1 7.488 1 9.29V24.888c.008.18.046.356.08.528a3.195 3.195 0 0 0 2.551 2.64c.214.046.4.082.628.082h23.624c.227 0 .414-.035.628-.082a3.199 3.199 0 0 0 2.55-2.64c.034-.172.07-.348.079-.528V5.552c0-1.9-1.443-3.413-3.257-3.413h-7.887z" fill="#2aae73" stroke="#71d997" stroke-width=".1"/><rect width="25.793" height="21.475" x="4.434" y="4.634" transform="rotate(.008) skewX(.002)" ry="1.735" opacity=".647" fill="#4b7c66" paint-order="markers stroke fill"/><rect width="25.793" height="21.475" x="4.334" y="4.634" transform="rotate(.008) skewX(.002)" ry="1.735" fill="url(#c)" paint-order="markers stroke fill"/><path d="M12.147 2.14c2.39 0 3.167 1.95 4.395 3.9H28c1.74 0 3.14 1.449 3.14 3.25V24.888c-.008.18-.046.356-.08.528a3.195 3.195 0 0 1-2.551 2.64c-.214.046-.4.082-.628.082H4.257c-.227 0-.414-.035-.628-.082a3.199 3.199 0 0 1-2.55-2.64c-.034-.172-.07-.348-.079-.528V5.552c0-1.9 1.443-3.413 3.257-3.413h7.887z" fill="url(#d)" stroke="#71d997" stroke-width=".1"/><path d="M16.642 6.125v1.27h1.272v-1.27zm0 1.27h-1.27v1.272h1.27zm0 1.272v1.271h1.272V8.667zm0 1.271h-1.27v1.271h1.27zm0 1.271v1.272c.702 0 1.272-.636 1.272-1.272zm0 1.272a2.546 2.546 0 0 0-2.542 2.542v5.085a2.546 2.546 0 0 0 2.542 2.542 2.546 2.546 0 0 0 2.543-2.542v-5.085a2.546 2.546 0 0 0-2.543-2.542zm0 1.27c.702 0 1.272.51 1.272 1.272 0 .635-.57 1.271-1.272 1.271-.701 0-1.27-.636-1.27-1.271 0-.763.569-1.271 1.27-1.271zm0 3.814c.702 0 1.272.509 1.272 1.271v1.272c0 .635-.57 1.27-1.272 1.27-.701 0-1.27-.635-1.27-1.27v-1.272c0-.762.569-1.27 1.27-1.27z" opacity=".647" fill="#4b7c66"/><path d="M16.542 6.025v1.27h1.272v-1.27zm0 1.27h-1.27v1.272h1.27zm0 1.272v1.271h1.272V8.567zm0 1.271h-1.27v1.271h1.27zm0 1.271v1.272c.702 0 1.272-.636 1.272-1.272zm0 1.272A2.546 2.546 0 0 0 14 14.923v5.085a2.546 2.546 0 0 0 2.542 2.542 2.546 2.546 0 0 0 2.543-2.542v-5.085a2.546 2.546 0 0 0-2.543-2.542zm0 1.27c.702 0 1.272.51 1.272 1.272 0 .635-.57 1.271-1.272 1.271-.701 0-1.27-.636-1.27-1.271 0-.763.569-1.271 1.27-1.271zm0 3.814c.702 0 1.272.509 1.272 1.271v1.272c0 .635-.57 1.27-1.272 1.27-.701 0-1.27-.635-1.27-1.27v-1.272c0-.762.569-1.27 1.27-1.27z" fill="#cef2e1"/></g></svg>