<?xml version="1.0" encoding="UTF-8" standalone="no"?>
<svg
   xmlns:dc="http://purl.org/dc/elements/1.1/"
   xmlns:cc="http://creativecommons.org/ns#"
   xmlns:rdf="http://www.w3.org/1999/02/22-rdf-syntax-ns#"
   xmlns:svg="http://www.w3.org/2000/svg"
   xmlns="http://www.w3.org/2000/svg"
   xmlns:xlink="http://www.w3.org/1999/xlink"
   xmlns:sodipodi="http://sodipodi.sourceforge.net/DTD/sodipodi-0.dtd"
   xmlns:inkscape="http://www.inkscape.org/namespaces/inkscape"
   width="32"
   height="32"
   version="1"
   id="svg16"
   sodipodi:docname="folder-yandex-disk.svg"
   inkscape:version="0.92.4 5da689c313, 2019-01-14">
  <metadata
     id="metadata22">
    <rdf:RDF>
      <cc:Work
         rdf:about="">
        <dc:format>image/svg+xml</dc:format>
        <dc:type
           rdf:resource="http://purl.org/dc/dcmitype/StillImage" />
      </cc:Work>
    </rdf:RDF>
  </metadata>
  <defs
     id="defs20">
    <linearGradient
       inkscape:collect="always"
       id="linearGradient820">
      <stop
         style="stop-color:#605133;stop-opacity:1"
         offset="0"
         id="stop816" />
      <stop
         style="stop-color:#c0b8a4;stop-opacity:1"
         offset="1"
         id="stop818" />
    </linearGradient>
    <linearGradient
       inkscape:collect="always"
       xlink:href="#linearGradient820"
       id="linearGradient822"
       x1="16.901945"
       y1="28.338984"
       x2="16.873501"
       y2="6.7341037"
       gradientUnits="userSpaceOnUse" />
    <linearGradient
       gradientTransform="translate(0.0013493,-0.0581681)"
       inkscape:collect="always"
       xlink:href="#linearGradient990"
       id="linearGradient829-3"
       x1="16.87215"
       y1="28.452196"
       x2="16.87215"
       y2="6.7922716"
       gradientUnits="userSpaceOnUse" />
    <linearGradient
       id="linearGradient990"
       inkscape:collect="always">
      <stop
         id="stop986"
         offset="0"
         style="stop-color:#605133;stop-opacity:1" />
      <stop
         id="stop988"
         offset="1"
         style="stop-color:#907d53;stop-opacity:1" />
    </linearGradient>
    <linearGradient
       inkscape:collect="always"
       xlink:href="#linearGradient889"
       id="linearGradient891"
       x1="-34.169491"
       y1="21.288134"
       x2="-13.152541"
       y2="7.4576254"
       gradientUnits="userSpaceOnUse"
       gradientTransform="matrix(1.2926751,0,0,1.5798246,46.671881,-6.6345215)" />
    <linearGradient
       inkscape:collect="always"
       id="linearGradient889">
      <stop
         style="stop-color:#8998ad;stop-opacity:1"
         offset="0"
         id="stop885" />
      <stop
         style="stop-color:#dbd4c9;stop-opacity:1"
         offset="1"
         id="stop887" />
    </linearGradient>
  </defs>
  <sodipodi:namedview
     pagecolor="#ffffff"
     bordercolor="#666666"
     borderopacity="1"
     objecttolerance="10"
     gridtolerance="10"
     guidetolerance="10"
     inkscape:pageopacity="0"
     inkscape:pageshadow="2"
     inkscape:window-width="668"
     inkscape:window-height="666"
     id="namedview18"
     showgrid="false"
     inkscape:zoom="14.8125"
     inkscape:cx="16"
     inkscape:cy="16"
     inkscape:window-x="517"
     inkscape:window-y="236"
     inkscape:window-maximized="0"
     inkscape:current-layer="svg16" />
  <path
     style="fill:url(#linearGradient822);fill-opacity:1;stroke:none;stroke-width:0.14515875;stroke-miterlimit:4;stroke-dasharray:none;stroke-opacity:1"
     d="m 27.90368,6.7271305 c 1.168734,-7.39e-4 2.109629,0.940894 2.109629,2.109629 V 26.447279 c 0,1.168735 -0.940895,2.109629 -2.109629,2.109629 H 4.0963202 c -1.168735,0 -2.109682,-0.940894 -2.109629,-2.109629 l 7.31e-4,-16.244506 7.31e-4,-5.0669085 c 0,-0.937797 0.754977,-1.692773 1.692773,-1.692773 h 9.0908208 c 0.937797,0 1.704839,0.371321 2.299888,1.096152 l 1.801865,2.19486 z"
     id="rect4549-3"
     inkscape:connector-curvature="0"
     sodipodi:nodetypes="sssssscsssscs" />
  <rect
     style="opacity:1;vector-effect:none;fill:url(#linearGradient891);fill-opacity:1;fill-rule:nonzero;stroke:none;stroke-width:0.20743993;stroke-linecap:butt;stroke-linejoin:miter;stroke-miterlimit:4;stroke-dasharray:none;stroke-dashoffset:0;stroke-opacity:1;paint-order:markers stroke fill"
     id="rect883"
     width="27.168089"
     height="21.849777"
     x="2.5018303"
     y="5.1472187"
     transform="matrix(0.99999999,1.0125852e-4,-6.7794228e-5,1,0,0)"
     inkscape:transform-center-x="4.8282266"
     inkscape:transform-center-y="-6.7305722" />
  <path
     style="fill:url(#linearGradient829-3);fill-opacity:1;stroke:none;stroke-width:0.1;stroke-miterlimit:4;stroke-dasharray:none;stroke-opacity:1"
     d="m 27.90368,6.7271305 c 1.168734,-7.388e-4 2.109629,0.9408941 2.109629,2.1096297 V 26.44728 c 0,1.168735 -0.940895,2.109629 -2.109629,2.109629 H 4.0963213 c -1.168735,0 -2.109682,-0.940894 -2.10963,-2.109629 l 7.31e-4,-16.244507 0.112959,-4.2813149 c 0.02473,-0.9374707 0.64275,-1.4683178 1.580546,-1.4683178 h 8.9785917 c 0.937797,0 1.827453,0.1319292 2.524344,0.7594692 l 1.689637,1.521494 z"
     id="rect4549-9"
     inkscape:connector-curvature="0"
     sodipodi:nodetypes="sssssscsssscs" />
  <path
     style="opacity:1;fill:#dbd4c9;fill-opacity:1"
     d="m 15.318865,13.415646 c -2.667,0 -2.046,2.236 -3.412,2.97 -0.047,0.027 -0.073,0.051 -0.115,0.077 0.9,-0.535 2.01,-0.984 3.189,-1.287 0.998,-0.257 2.01,-0.401 2.944,-0.419 0.024,0 0.048,0 0.072,0 -0.901,-0.256 -0.999,-1.341 -2.678,-1.341 z m 2.906,2.016 c -0.933,0.018 -1.946,0.162 -2.944,0.419 -3.29,0.847 -5.6346996,2.688 -5.237,4.112 0.2291,0.814 1.333,1.551 2.978,1.649 -10e-4,-0.006 -0.002,-0.012 -0.003,-0.018 -0.089,-0.77 0.4,-1.44 0.973,-1.894 0.573,-0.454 1.309,-0.784 2.137,-0.959 0.828,-0.176 1.602,-0.168 2.25,0.027 0.609,0.184 1.182,0.584 1.323,1.27 1.648,-0.924 2.504,-2.238 2.256,-3.139 -0.263,-0.944 -1.694,-1.506 -3.733,-1.467 z m -0.978,3.949 c -0.331,-0.004 -0.683,0.032 -1.033,0.107 -1.447,0.307 -2.548,1.18 -2.459,1.949 0.089,0.77 1.334,1.144 2.781,0.837 1.447,-0.308 2.548,-1.181 2.458,-1.95 -0.064,-0.56 -0.753,-0.931 -1.747,-0.943 z"
     class="ColorScheme-ButtonBackground"
     id="path14"
     inkscape:connector-curvature="0" />
</svg>
