<svg xmlns="http://www.w3.org/2000/svg" width="32" height="32" version="1"><rect width="28.203" height="28.203" x="1.898" y="1.898" ry="5.575" fill="#8e8e8e" fill-rule="evenodd"/><path d="M16 7.392a8.034 8.034 0 0 0-8.034 8.034v5.165c0 2.048 1.459 2.606 2.296 2.758v-7.923c0-3.179 2.559-5.738 5.738-5.738 3.18 0 5.738 2.559 5.738 5.738v7.926c.837-.154 2.296-.713 2.296-2.761v-5.165A8.034 8.034 0 0 0 16 7.392z" fill="#e6e6e6"/><path d="M10.262 16.574v8.034h2.869v-8.034zm8.607 0v8.034h2.87v-8.034z" fill="#4d4d4d"/></svg>