<svg xmlns="http://www.w3.org/2000/svg" width="32" height="32" version="1"><rect width="28.203" height="28.203" x="1.898" y="1.898" ry="5.575" fill="#8e8e8e" fill-rule="evenodd"/><path d="M19.527 27.288c0-.307-.205-.735-.485-1.015-.331-.331-.57-.414-1.19-.415h-.438v-3.357l.377-.077c2.395-.489 4.385-2.254 5.173-4.588.234-.692.318-1.23.35-2.246.03-.919.023-1.022-.092-1.28-.31-.701-1.271-.718-1.584-.028-.097.214-.116.398-.117 1.138-.002 1.278-.245 2.176-.823 3.047-1.357 2.045-3.88 2.841-6.186 1.952-.84-.324-1.707-1.005-2.259-1.776-.673-.94-.924-1.787-.98-3.305-.04-1.122-.09-1.284-.448-1.469-.279-.144-.788-.093-.997.1-.276.254-.324.46-.324 1.404 0 1.677.365 2.926 1.227 4.205.37.548 1.135 1.325 1.682 1.71.775.544 1.947 1.044 2.721 1.16l.287.043v3.367l-.498.001c-.55.002-.853.105-1.154.394-.219.21-.46.722-.46.979l-.001.196H19.527z" fill="#4d4d4d"/><path d="M17.323 19.123c.652-.17 1.11-.438 1.637-.96.846-.839 1.069-1.44 1.076-2.901l.004-.966-3.638-.016-3.638-.015.002.83c0 .495.036 1 .09 1.248.289 1.368 1.287 2.415 2.651 2.783.42.113 1.376.112 1.816-.003zM20.059 13.526l-.019-.257-3.638-.015-3.637-.016v.545h7.312zM20.059 12.47l.018-.257h-7.312v.544l3.637-.016 3.638-.015zM20.059 11.443l.018-.257h-7.312v.232c0 .127.018.25.04.272.023.022 1.66.034 3.638.025l3.597-.016zM20.07 10.398v-.238l-3.426-.005a210.173 210.173 0 0 1-3.578-.022c-.244-.027-.301.025-.301.274v.235l3.607.015c1.984.009 3.628.008 3.653-.003.025-.01.045-.125.045-.256z" fill="#ececec"/><path d="M20.048 9.096c-.052-.68-.129-.985-.384-1.526-.264-.56-.953-1.276-1.507-1.565-2.391-1.25-5.225.344-5.377 3.023l-.033.588H20.088z" fill="#fff"/></svg>