<svg xmlns="http://www.w3.org/2000/svg" width="32" height="32" version="1"><rect width="28.203" height="28.203" x="1.898" y="1.898" ry="5.575" fill="#8e8e8e" fill-rule="evenodd"/><path d="M9.797 24.163v.7c0 .517.345.934.775.934h10.856c.43 0 .775-.417.775-.934v-.7c0 .517-.346.934-.775.934H10.572c-.43 0-.775-.417-.775-.934z" opacity=".2"/><path d="M22.203 24.164V9.235c0-.516-.346-.932-.775-.932H10.572c-.43 0-.775.416-.775.933v14.928c0 .516.345.933.775.933h10.856c.43 0 .775-.416.775-.933zM11.658 6.203h8.685v2.099h-8.685z" fill="#5b5b5b"/><path fill="#c0f957" d="M11.037 20.199h9.925v3.499h-9.925z"/><path fill="#404040" d="M11.037 10.402h9.925v3.499h-9.925zm0 4.898h9.925v3.499h-9.925z"/></svg>