<svg xmlns="http://www.w3.org/2000/svg" width="32" height="32" version="1"><rect width="28.203" height="28.203" x="1.898" y="1.898" ry="5.575" fill="#5b5b5b" fill-rule="evenodd"/><path d="M7.27 1.94c-2.988.112-5.372 2.516-5.372 5.533v17.054a5.561 5.561 0 0 0 5.575 5.575h17.052a5.563 5.563 0 0 0 5.577-5.575V7.473a5.563 5.563 0 0 0-5.577-5.575H11.27v1.563a.996.996 0 0 1-.293.707.996.996 0 0 1-.707.293h-2a1 1 0 0 1-1-1z" fill="#8e8e8e" fill-rule="evenodd"/><path d="M7.27 1.94v1.52a.994.994 0 0 0 1 1h2a.996.996 0 0 0 .707-.292c.18-.18.293-.43.293-.707V1.898H7.473c-.072 0-.132.039-.203.041z" fill="#4d4d4d" fill-rule="evenodd"/><circle cx="25.862" cy="7.298" r="1" fill="#4d4d4d"/><circle cx="16" cy="16" r="8" fill="#4d4d4d"/><circle cx="16" cy="-16" r="6" transform="scale(1 -1)" fill="#ba174e"/><circle cx="16" cy="16" r="4" fill="#d67495"/></svg>