<svg xmlns="http://www.w3.org/2000/svg" width="32" height="32" version="1"><rect width="28.203" height="28.203" x="1.898" y="1.898" ry="5.575" fill="#8e8e8e" fill-rule="evenodd"/><g transform="matrix(.72881 0 0 .72881 4.339 4.339)"><g fill="#b7b7b7"><path d="M29 20v1H3v-1zM29 23v1H3v-1zM29 26v1H3v-1zM29 11v1H3v-1zM29 14v1H3v-1zM29 17v1H3v-1zM29 8v1H3V8zM29 5v1H3V5z"/><path d="M12 29h-1V3h1zM9 29H8V3h1zM6 29H5V3h1zM21 29h-1V3h1zM18 29h-1V3h1zM15 29h-1V3h1zM24 29h-1V3h1zM27 29h-1V3h1z"/></g><rect transform="matrix(0 -1 -1 0 0 0)" ry="1.25" rx="1.25" y="-28" x="-28" height="24" width="24" fill="#b7b7b7"/><path opacity=".5" d="M7 11h6v1H7zM14 11h3v1h-3zM18 11h7v1h-7zM7 15h8v1H7zM16 15h8v1h-8zM7 19h3v1H7zM11 19h3v1h-3zM15 19h6v1h-6z"/></g></svg>