<svg xmlns="http://www.w3.org/2000/svg" width="32" height="32" version="1"><g transform="translate(-52.61 -4.475)"><path d="M60.083 6.373a5.561 5.561 0 0 0-5.574 5.574v8.916h28.203v-8.916a5.561 5.561 0 0 0-5.574-5.574z" fill="#8e8e8e" fill-rule="evenodd"/><path fill="#e6e6e6" d="M59.718 11.271h17.79v10.657h-17.79z"/><path fill="gray" d="M61.497 15.534h4.447v3.197h-4.447zM71.281 15.534h4.447v3.197h-4.447z"/><path d="M82.712 20.863H54.509v8.139a5.561 5.561 0 0 0 5.574 5.574h17.055a5.561 5.561 0 0 0 5.574-5.574z" fill="#666" fill-rule="evenodd"/><rect ry="1.066" rx="1.066" y="25.126" x="60.087" height="2.131" width="17.052" fill="gray"/><rect ry="1.066" rx="1.066" y="29.389" x="62.218" height="2.131" width="12.789" fill="gray"/></g></svg>