<svg xmlns="http://www.w3.org/2000/svg" width="32" height="32" version="1"><rect width="28.203" height="28.203" x="1.898" y="1.898" ry="5.575" fill="#8e8e8e" fill-rule="evenodd"/><g fill="#4d4d4d"><path d="M14.02 19.97h4v1.5h-4zM14.02 22.47h4v1.5h-4zM16.02 11.97a3.5 3.5 0 0 0-3.5 3.5 3.5 3.5 0 0 0 3.5 3.5 3.5 3.5 0 0 0 3.5-3.5 3.5 3.5 0 0 0-3.5-3.5zm0 2a1.5 1.5 0 0 1 1.5 1.5 1.5 1.5 0 0 1-1.5 1.5 1.5 1.5 0 0 1-1.5-1.5 1.5 1.5 0 0 1 1.5-1.5zM20.596 13.687l-2.828-2.828 2.828-2.828 2.829 2.828zM14.232 10.859l-2.828 2.828-1.06-1.06 2.828-2.829zM12.464 9.091L9.636 11.92l-1.06-1.061 2.828-2.828z"/></g></svg>