<svg xmlns="http://www.w3.org/2000/svg" width="32" height="32" version="1"><path d="M8.543 30.102h15.984a5.561 5.561 0 0 0 5.575-5.575V7.473a5.561 5.561 0 0 0-5.575-5.575H8.543v28.204z" fill="#666" fill-rule="evenodd"/><path d="M8.543 30.102V1.898h-1.07a5.561 5.561 0 0 0-5.575 5.575v17.054a5.561 5.561 0 0 0 5.575 5.575h1.07z" fill="#8e8e8e" fill-rule="evenodd"/><path d="M17.386 23.724v2.069h2.07l5.224-5.225-2.068-2.07zm9.124-4.98a.548.548 0 0 0 0-.782l-1.293-1.293a.548.548 0 0 0-.782 0l-1.08 1.087 2.068 2.069z" fill="#fec006"/></svg>