<svg xmlns="http://www.w3.org/2000/svg" width="32" height="32" version="1"><rect width="28.203" height="28.203" x="1.898" y="1.898" ry="5.575" fill="#8e8e8e" fill-rule="evenodd"/><path d="M16 7.273l-.023.001h-.003c-2.796.018-5.584 2.916-5.584 5.09v7.191c0 2.955 2.104 5.172 5.61 5.172 3.506 0 5.61-2.215 5.61-5.17v-6.994c0-2.26-2.801-5.27-5.61-5.287z" fill="#5b5b5b"/><path d="M16 7.273h-.025c-2.797.018-5.585 2.916-5.585 5.091V16h11.22v-3.437c0-2.26-2.801-5.27-5.61-5.287z" opacity=".1"/><path d="M16 7.273h-.025c-2.797.018-5.585 2.916-5.585 5.091V16H16V7.276z" opacity=".1"/><path d="M16 10.39c.343 0 .623.36.623.802v2.137c0 .442-.28.8-.623.8-.343 0-.623-.358-.623-.8V11.19c0-.442.28-.801.623-.801" opacity=".2"/><path d="M16 9.767c.343 0 .623.359.623.801v2.138c0 .442-.28.8-.623.8-.343 0-.623-.358-.623-.801v-2.137c0-.442.28-.802.623-.802" fill="#ccc"/></svg>