<svg xmlns="http://www.w3.org/2000/svg" width="32" height="32" version="1"><rect width="28.203" height="28.203" x="1.898" y="1.898" ry="5.575" fill="#8e8e8e" fill-rule="evenodd"/><path d="M10.89 8.757c-2.549 0-4.467 2.016-4.601 4.513l-.51 9.53c-.323 1.863 1.52 3.039 3.066 1.002l2.681-3.946c.118.01.236.02.356.02h8.186l3.07 4.052c1.535 2.027 3.265.359 3.07-1.013l-.503-9.492c.001-.051.007-.1.007-.153 0-2.5-2.053-4.513-4.601-4.513H10.889z" fill="#666"/><path d="M10.136 10.954v1.465H8.67v1.465h1.465v1.465H11.6v-1.465h1.465v-1.465H11.6v-1.465z" fill="#e6e6e6"/><path d="M21.122 10.954a.732.732 0 0 0-.732.733.732.732 0 0 0 .732.732.732.732 0 0 0 .733-.732.732.732 0 0 0-.733-.733zM19.657 12.419a.732.732 0 0 0-.732.732.732.732 0 0 0 .732.733.732.732 0 0 0 .733-.733.732.732 0 0 0-.733-.732z" fill="#ee5353"/><path d="M22.587 12.419a.732.732 0 0 0-.732.732.732.732 0 0 0 .732.733.732.732 0 0 0 .733-.733.732.732 0 0 0-.733-.732zM21.122 13.884a.732.732 0 0 0-.732.732.732.732 0 0 0 .732.733.732.732 0 0 0 .733-.733.732.732 0 0 0-.733-.732z" fill="#ffca58"/></svg>