<svg xmlns="http://www.w3.org/2000/svg" width="32" height="32" version="1"><rect width="28.203" height="28.203" x="1.898" y="1.898" ry="5.575" fill="#8e8e8e" fill-rule="evenodd"/><g fill="#4d4d4d"><path d="M13.121 25.357h-.72V6.643h.72zM10.962 25.357h-.72V6.643h.72zM19.599 25.357h-.72V6.643h.72zM17.44 25.357h-.72V6.643h.72zM15.28 25.357h-.72V6.643h.72zM21.758 25.357h-.72V6.643h.72z"/><path d="M8.803 13.121v-.72h14.394v.72zM8.803 10.962v-.72h14.394v.72zM8.803 8.803v-.72h14.394v.72zM8.803 19.599v-.72h14.394v.72zM8.803 17.44v-.72h14.394v.72zM8.803 15.28v-.72h14.394v.72zM8.803 21.758v-.72h14.394v.72zM8.803 23.917v-.72h14.394v.72z"/></g><rect width="17.274" height="12.955" x="-24.637" y="-22.478" rx=".9" ry=".9" transform="matrix(0 -1 -1 0 0 0)" fill="#4d4d4d"/><path fill="#e6e6e6" d="M16.72 9.522v5.758H16V9.522zM16.72 16v5.758H16V16zM13.841 9.522v2.159h-.72V9.522zM13.841 12.401v2.159h-.72v-2.159zM13.841 15.28v4.318h-.72V15.28zM19.599 9.522v4.318h-.72V9.522zM19.599 14.561v2.159h-.72v-2.159zM19.599 17.439v5.038h-.72v-5.038z"/></svg>