<svg xmlns="http://www.w3.org/2000/svg" width="32" height="32" version="1"><g transform="translate(0 1.898)"><rect ry="5.575" x="1.898" height="28.203" width="28.203" fill="#8e8e8e" fill-rule="evenodd"/><path d="M7.744 0v9.465c0 .75.603 1.352 1.352 1.352H23.7a1.35 1.35 0 0 0 1.352-1.352V0zm10.817 2.163h3.246c.599 0 1.081.483 1.081 1.082v4.327c0 .6-.482 1.082-1.081 1.082H18.56a1.08 1.08 0 0 1-1.081-1.082V3.245c0-.6.482-1.082 1.081-1.082z" fill="#e6e6e6"/></g><g transform="translate(.767 -.732)"><rect ry="1.352" rx="1.352" y="15.597" x="4.416" height="12.981" width="21.635" fill="#fff"/><path d="M4.416 25.333v1.893a1.35 1.35 0 0 0 1.352 1.352h18.93a1.35 1.35 0 0 0 1.352-1.352v-1.893z" fill="#ffae3f"/></g></svg>