<svg xmlns="http://www.w3.org/2000/svg" width="32" height="32" version="1"><rect width="28.203" height="28.203" x="1.898" y="1.898" ry="5.575" fill="#8e8e8e" fill-rule="evenodd"/><rect width="18.286" height="11.429" x="6.857" y="-26.598" rx="1.429" ry="1.429" transform="scale(1 -1)" fill="#666"/><g fill="#fec006" stroke-width=".698"><path d="M23.936 5.988h1.058v4.232h-1.058zM21.82 5.988h1.058v4.232H21.82zM19.703 5.988h1.059v4.232h-1.059zM17.587 5.988h1.058v4.232h-1.058zM15.47 5.988h1.06v4.232h-1.06zM13.355 5.988h1.058v4.232h-1.058zM11.238 5.988h1.059v4.232h-1.059zM9.122 5.988h1.058v4.232H9.122zM7.006 8.104h1.058v2.116H7.006z"/></g></svg>