<svg xmlns="http://www.w3.org/2000/svg" width="32" height="32" version="1"><rect width="28.203" height="28.203" x="1.898" y="1.898" ry="5.575" fill="#8e8e8e" fill-rule="evenodd"/><path d="M16.037 9.067c-3.658 0-6.95 1.3-9.682 3.316l9.682 10.55 9.608-10.588c-2.72-1.993-5.977-3.278-9.608-3.278z" fill="#5b5b5b"/><path d="M16 11.837c-2.914 0-5.62.956-7.792 2.57l7.833 8.526 7.75-8.526A13.038 13.038 0 0 0 16 11.837z" fill="#797979"/><path d="M16 14.61a9.777 9.777 0 0 0-5.843 1.928l5.874 6.395 5.812-6.394A9.777 9.777 0 0 0 16 14.61z" fill="#e6e6e6"/></svg>