<svg xmlns="http://www.w3.org/2000/svg" width="32" height="32" version="1"><rect width="28.203" height="28.203" x="1.898" y="1.898" ry="5.575" fill="#8e8e8e" fill-rule="evenodd"/><path d="M16.037 9.118c-3.632 0-6.9 1.29-9.612 3.292l9.612 10.472 9.538-10.51c-2.7-1.98-5.934-3.254-9.538-3.254z" fill="#4f9a3c"/><path d="M16 11.868c-2.893 0-5.578.948-7.735 2.55l7.776 8.464 7.694-8.463A12.943 12.943 0 0 0 16 11.868z" fill="#9cda72"/><path d="M16 14.62c-2.17 0-4.184.712-5.8 1.914l5.83 6.348 5.77-6.347A9.706 9.706 0 0 0 16 14.62z" fill="#e6e6e6"/></svg>