<svg xmlns="http://www.w3.org/2000/svg" width="32" height="32"><rect width="28.203" height="28.203" x="1.898" y="1.898" ry="5.575" fill="#8e8e8e" fill-rule="evenodd"/><rect transform="matrix(0 -1 -1 0 0 0)" ry=".898" rx=".898" y="-26.063" x="-25.703" height="20.126" width="6.469" fill="#8e8e8e"/><path d="M13.125 21.39l-1.438 2.157M10.969 21.39L9.53 23.548M8.812 21.39l-1.437 2.157M15.281 21.39l-1.437 2.157" fill="#e6e6e6" stroke="#e6e6e6" stroke-width="1.437" stroke-linecap="round"/><circle r="1.078" cy="22.659" cx="18.516" fill="#76ff03"/><circle r="1.078" cy="22.659" cx="21.391" fill="#ff0"/><circle r="1.078" cy="22.659" cx="24.266" fill="#ffcd40"/><rect transform="matrix(0 -1 -1 0 0 0)" ry=".898" rx=".898" y="-26.063" x="-19.234" height="20.126" width="6.469" fill="#8e8e8e"/><path d="M13.125 14.922l-1.438 2.156M10.969 14.922L9.53 17.078M8.812 14.922l-1.437 2.156M15.281 14.922l-1.437 2.156" fill="#e6e6e6" stroke="#e6e6e6" stroke-width="1.437" stroke-linecap="round"/><circle r="1.078" cy="16.19" cx="18.516" fill="#76ff03"/><circle r="1.078" cy="16.19" cx="21.391" fill="#ff0"/><circle r="1.078" cy="16.19" cx="24.266" fill="#ffcd40"/><rect transform="matrix(0 -1 -1 0 0 0)" ry=".898" rx=".898" y="-26.063" x="-12.766" height="20.126" width="6.469" fill="#8e8e8e"/><path d="M13.125 8.453l-1.438 2.156M10.969 8.453L9.53 10.609M8.812 8.453l-1.437 2.156M15.281 8.453l-1.437 2.156" fill="#e6e6e6" stroke="#e6e6e6" stroke-width="1.437" stroke-linecap="round"/><circle r="1.078" cy="9.721" cx="18.516" fill="#76ff03"/><circle r="1.078" cy="9.721" cx="21.391" fill="#ff0"/><circle r="1.078" cy="9.721" cx="24.266" fill="#ffcd40"/></svg>