<svg xmlns="http://www.w3.org/2000/svg" width="32" height="32" version="1"><rect width="28.203" height="28.203" x="1.898" y="1.898" ry="5.575" fill="#3465a4" fill-rule="evenodd"/><path d="M4.082 28.846c-.014-.21-.086-.353-.088-.578-.016-1.572.26-3.432.26-3.432L7.496 7.639l.604.007-2.938-5.218c-1.92.878-3.264 2.788-3.264 5.045v17.054c0 1.786.886 3.3 2.184 4.319z" fill="#999" fill-rule="evenodd"/><path d="M27.82 28.912c.028-.261.132-.446.131-.734-.004-1.57-.523-3.412-.523-3.412L23.814 7.852l-.375-.006-.476.793L8.61 8.557l-.511-.91-.604-.008-3.242 17.197s-.276 1.86-.26 3.432c.002.225.074.369.088.578.947.743 2.088 1.256 3.39 1.256h17.053c1.26 0 2.363-.49 3.295-1.19z" fill="#555753" fill-rule="evenodd"/><path d="M26.74 2.363l-3.3 5.483.374.006 3.614 16.914s.52 1.842.523 3.412c0 .288-.103.473-.13.734 1.352-1.015 2.28-2.556 2.28-4.385V7.473a5.556 5.556 0 0 0-3.36-5.11z" fill="#999" fill-rule="evenodd"/><path d="M5.162 2.428l3.45 6.129 14.35.082 3.778-6.276a5.56 5.56 0 0 0-2.215-.465H7.473c-.832 0-1.603.206-2.31.53z" fill="#ccc" fill-rule="evenodd"/><path style="marker:none" d="M8.691 10.971L7.195 22.258c-.053.336-.027.779.319.779h16.738c.279 0 .438-.266.372-.779l-2.131-11.222z" color="#000" overflow="visible" fill="#8e8e8e" fill-rule="evenodd"/><ellipse ry="1.062" rx=".771" cy="8.559" cx="10.499" style="marker:none" color="#000" overflow="visible" fill="#888a85" fill-rule="evenodd" stroke="#555753" stroke-width=".694"/><ellipse ry="1.062" rx=".771" cy="8.559" cx="21.324" style="marker:none" color="#000" overflow="visible" fill="#888a85" fill-rule="evenodd" stroke="#555753" stroke-width=".694"/><path style="marker:none" d="M8.603 15.93H22.65" color="#000" overflow="visible" fill="#fff" fill-rule="evenodd" stroke="#fff" stroke-width=".694" stroke-linecap="round" stroke-linejoin="round"/><path style="marker:none" d="M11.847 27.586h2.415" color="#000" overflow="visible" fill="none" stroke="#9ae94f" stroke-width="1.67" stroke-linecap="round" stroke-linejoin="round" stroke-opacity=".684"/><path d="M16.658 27.586h.01M19.063 27.586h.01M21.469 27.586h.01" style="marker:none" color="#000" overflow="visible" fill="none" stroke="#babdb6" stroke-width="1.67" stroke-linecap="round" stroke-linejoin="round" stroke-opacity=".684"/></svg>