<svg xmlns="http://www.w3.org/2000/svg" width="32" height="32" version="1"><rect width="28.203" height="28.203" x="1.898" y="1.898" ry="5.575" fill="#8e8e8e" fill-rule="evenodd"/><rect width="12.419" height="22.089" x="9.79" y="4.955" ry="1.381" fill="#e6e6e6"/><rect width="10.48" height="18.453" x="10.76" y="6.246" ry="1.154" fill="#666"/><rect width="2.872" height="1.029" x="14.564" y="25.35" ry=".515" fill="#666" stroke="#666" stroke-width=".32" stroke-linecap="round" stroke-linejoin="round"/><rect width="3.39" height=".339" x="14.305" y="5.469" ry=".169" fill="#666"/><path d="M14.547 10.268l-.477.276.66 1.143c-1.206.583-1.21 1.943-1.21 1.943h4.96s-.005-1.36-1.21-1.943l.66-1.143-.477-.276-.714 1.236a3.34 3.34 0 0 0-.738-.08c-.278 0-.52.031-.74.08l-.714-1.236zm.351 2.26c.153 0 .275.122.275.274a.277.277 0 0 1-.275.276.276.276 0 1 1 0-.551zm2.206 0c.152 0 .274.122.274.274a.277.277 0 0 1-.274.276.276.276 0 1 1 0-.551zM12.44 14.18c-.317 0-.576.293-.576.653v2.553c0 .36.26.653.576.653.317 0 .527-.294.527-.654v-2.553c0-.36-.21-.652-.527-.652zm1.078 0v4.686c0 .13.146.276.276.276h.827v1.034c0 .342.218.62.551.62.33 0 .562-.278.551-.62v-1.034h.552v1.034c0 .342.218.62.551.62.33 0 .551-.282.551-.62v-1.034h.827c.13 0 .276-.146.276-.276v-4.686zm6.09 0c-.318 0-.577.293-.577.653v2.553c0 .36.26.653.576.653.317 0 .527-.294.527-.654v-2.553c0-.36-.21-.652-.527-.652z" fill="#a4ca39"/></svg>