<svg xmlns="http://www.w3.org/2000/svg" width="32" height="32" version="1"><path d="M22.17 30.102h2.357a5.561 5.561 0 0 0 5.575-5.575V7.473a5.561 5.561 0 0 0-5.575-5.575H22.17v28.204zM9.83 1.898H7.473a5.561 5.561 0 0 0-5.575 5.575v17.054a5.561 5.561 0 0 0 5.575 5.575H9.83V1.898z" fill="#8e8e8e" fill-rule="evenodd"/><path d="M9.83 1.898v28.204h12.34V1.898H9.83z" fill="#e6e6e6" fill-rule="evenodd"/><g transform="matrix(.83312 0 0 .83312 3.087 2.67)"><rect transform="rotate(90)" ry="1.3" rx="1.4" y="-22" x="2" height="13" width="28" fill="#e6e6e6"/><path d="M19 7.8c0-.388-.312-.7-.7-.7h-1.4V5.7c0-.388-.312-.7-.7-.7h-1.4c-.388 0-.7.312-.7.7v1.4h-1.4c-.388 0-.7.312-.7.7v1.4c0 .388.312.7.7.7h1.4v1.4c0 .388.312.7.7.7h1.4c.388 0 .7-.312.7-.7l-.001-1.4h1.4c.387 0 .7-.312.7-.7V7.8z" fill="#5b5b5b"/><circle transform="rotate(90)" r="1.5" cy="-17.5" cx="25.5" fill="#5b5b5b"/><circle transform="rotate(90)" r="1.5" cy="-17.5" cx="21.5" fill="#5b5b5b"/><circle transform="rotate(90)" r="1.5" cy="-13.5" cx="25.5" fill="#5b5b5b"/><circle transform="rotate(90)" r="1.5" cy="-13.5" cx="21.5" fill="#5b5b5b"/></g></svg>