<?xml version="1.0" encoding="UTF-8" standalone="no"?>
<svg
   xmlns:dc="http://purl.org/dc/elements/1.1/"
   xmlns:cc="http://creativecommons.org/ns#"
   xmlns:rdf="http://www.w3.org/1999/02/22-rdf-syntax-ns#"
   xmlns:svg="http://www.w3.org/2000/svg"
   xmlns="http://www.w3.org/2000/svg"
   xmlns:xlink="http://www.w3.org/1999/xlink"
   xmlns:sodipodi="http://sodipodi.sourceforge.net/DTD/sodipodi-0.dtd"
   xmlns:inkscape="http://www.inkscape.org/namespaces/inkscape"
   inkscape:version="1.0 (4035a4fb49, 2020-05-01)"
   sodipodi:docname="folder-java.svg"
   id="svg14"
   version="1"
   height="32"
   width="32">
  <metadata
     id="metadata20">
    <rdf:RDF>
      <cc:Work
         rdf:about="">
        <dc:format>image/svg+xml</dc:format>
        <dc:type
           rdf:resource="http://purl.org/dc/dcmitype/StillImage" />
        <dc:title />
      </cc:Work>
    </rdf:RDF>
  </metadata>
  <defs
     id="defs18">
    <linearGradient
       inkscape:collect="always"
       id="linearGradient990">
      <stop
         style="stop-color:#2a88ae;stop-opacity:1"
         offset="0"
         id="stop986" />
      <stop
         style="stop-color:#71b9d9;stop-opacity:1"
         offset="1"
         id="stop988" />
    </linearGradient>
    <linearGradient
       id="linearGradient889"
       inkscape:collect="always">
      <stop
         id="stop885"
         offset="0"
         style="stop-color:#8998ad;stop-opacity:1" />
      <stop
         id="stop887"
         offset="1"
         style="stop-color:#ceeaf2;stop-opacity:1" />
    </linearGradient>
    <linearGradient
       gradientTransform="matrix(1.8471337,0,0,1.8471337,-1.6973853,-28.433842)"
       gradientUnits="userSpaceOnUse"
       y2="10.717914"
       x2="-5.5973864"
       y1="22.200636"
       x1="-5.667089"
       id="linearGradient975"
       xlink:href="#linearGradient990"
       inkscape:collect="always" />
    <linearGradient
       gradientTransform="matrix(1.2272328,0,0,1.4998451,17.688366,-21.176367)"
       gradientUnits="userSpaceOnUse"
       y2="7.4576306"
       x2="-13.152548"
       y1="21.288134"
       x1="-34.169491"
       id="linearGradient891-3-3"
       xlink:href="#linearGradient889"
       inkscape:collect="always" />
  </defs>
  <sodipodi:namedview
     inkscape:document-rotation="0"
     inkscape:snap-global="true"
     inkscape:guide-bbox="true"
     showguides="true"
     inkscape:current-layer="g872"
     inkscape:window-maximized="1"
     inkscape:window-y="26"
     inkscape:window-x="0"
     inkscape:cy="16"
     inkscape:cx="16"
     inkscape:zoom="26.78125"
     showgrid="false"
     id="namedview16"
     inkscape:window-height="1028"
     inkscape:window-width="1920"
     inkscape:pageshadow="2"
     inkscape:pageopacity="0"
     guidetolerance="10"
     gridtolerance="10"
     objecttolerance="10"
     borderopacity="1"
     bordercolor="#666666"
     pagecolor="#ffffff" />
  <g
     transform="matrix(1.0000063,0,0,1.0352793,28.578472,14.980279)"
     id="g872">
    <path
       id="path25-2"
       style="opacity:1;fill:#2a88ae;fill-opacity:1;stroke:#71b9d9;stroke-width:0.0982811;stroke-miterlimit:4;stroke-dasharray:none;stroke-opacity:1"
       d="m -8.5853303,-12.403521 c -2.3908547,0 -3.1668757,1.884805 -4.3949507,3.7670978 h -11.458257 c -1.739142,0 -3.139248,1.4001052 -3.139248,3.1392492 v 1.2557 10.6734457 1.883548 1.098738 0.156969 c 0.0076,0.174536 0.0452,0.344062 0.07911,0.5098153 0.149433,0.867687 0.644171,1.60855 1.373734,2.079436 0.347828,0.224771 0.749652,0.388013 1.177845,0.470888 0.213466,0.04394 0.400564,0.07911 0.627846,0.07911 h 23.62347871 c 0.227282,0 0.41438,-0.0339 0.62785,-0.07911 0.426937,-0.08288 0.828761,-0.246117 1.17659099,-0.470888 0.72956,-0.470886 1.22305,-1.211749 1.373733,-2.079436 0.0339,-0.1657443 0.07032,-0.3365283 0.07911,-0.5098153 V 9.4142577 8.3155197 -9.1073111 c 0,-1.8358329 -1.442798,-3.2962099 -3.25728399,-3.2962099 H -8.5828173 Z"
       inkscape:connector-curvature="0" />
    <rect
       ry="1.6756594"
       inkscape:transform-center-y="-6.389833"
       inkscape:transform-center-x="4.5837926"
       transform="matrix(0.99999999,1.0125852e-4,-6.7794228e-5,1,0,0)"
       y="-9.9910889"
       x="-24.145704"
       height="20.74362"
       width="25.792688"
       id="rect883-5-5-3"
       style="opacity:0.647;vector-effect:none;fill:#4b6e7c;fill-opacity:1;fill-rule:nonzero;stroke:none;stroke-width:0.196938;stroke-linecap:butt;stroke-linejoin:miter;stroke-miterlimit:4;stroke-dasharray:none;stroke-dashoffset:0;stroke-opacity:1;paint-order:markers stroke fill" />
    <rect
       ry="1.6756594"
       inkscape:transform-center-y="-6.389833"
       inkscape:transform-center-x="4.5837926"
       transform="matrix(0.99999999,1.0125852e-4,-6.7794228e-5,1,0,0)"
       y="-9.9910784"
       x="-24.245554"
       height="20.74362"
       width="25.792688"
       id="rect883-5-5"
       style="opacity:1;vector-effect:none;fill:url(#linearGradient891-3-3);fill-opacity:1;fill-rule:nonzero;stroke:none;stroke-width:0.196938;stroke-linecap:butt;stroke-linejoin:miter;stroke-miterlimit:4;stroke-dasharray:none;stroke-dashoffset:0;stroke-opacity:1;paint-order:markers stroke fill" />
    <path
       id="path25"
       style="opacity:1;fill:url(#linearGradient975);fill-opacity:1;stroke:#71b9d9;stroke-width:0.0982811;stroke-miterlimit:4;stroke-dasharray:none;stroke-opacity:1"
       d="m -16.431455,-12.403521 c 2.390854,0 3.166876,1.884805 4.394951,3.7670978 h 11.45825471 c 1.73914199,0 3.13924799,1.4001052 3.13924799,3.1392492 v 1.2557 10.6734437 1.883548 1.098738 0.156969 c -0.0076,0.174536 -0.0452,0.344062 -0.07911,0.5098153 -0.149433,0.867687 -0.644173,1.60855 -1.373736,2.079436 -0.34782799,0.224771 -0.74965099,0.388013 -1.17784499,0.470888 -0.213465,0.04394 -0.400563,0.07911 -0.627846,0.07911 H -24.321014 c -0.227282,0 -0.41438,-0.03389 -0.62785,-0.07911 -0.426937,-0.08288 -0.828761,-0.246117 -1.176591,-0.470888 -0.72956,-0.470886 -1.22305,-1.211749 -1.373733,-2.079436 -0.03389,-0.1657433 -0.07032,-0.3365283 -0.07911,-0.5098153 V 9.4142557 8.3155177 -9.1073111 c 0,-1.8358329 1.442798,-3.2962099 3.257284,-3.2962099 h 7.887047 z"
       inkscape:connector-curvature="0" />
    <g
       transform="translate(-0.04999731,0.62785183)"
       id="g828">
      <path
         style="opacity:0.647;fill:#4b6e7c;fill-opacity:1;stroke-width:0.982811"
         d="m -13.470387,-4.9071608 c 0,0 0.576996,0.340971 0.169999,1.237347 -0.615996,1.351327 0.567996,1.660422 0.567996,1.660422 0,0 -0.375997,-0.316823 0.124999,-1.431498 0.553997,-1.236381 -0.862994,-1.466271 -0.862994,-1.466271 z m 1.59199,1.8623 c 0,0 -1.048994,0.449154 -0.372998,1.678774 0.445997,0.81427294 -0.049,1.21899394 -0.049,1.21899394 0,0 1.266992,-0.403755 0.655996,-1.52808994 -0.548996,-1.017117 -0.233998,-1.369678 -0.233998,-1.369678 z m -3.26398,0.06955 c 0,0 -0.750995,0.771772 -0.008,1.720308 0.491997,0.63171294 0.169999,1.17745894 0.169999,1.17745894 0,0 0.930994,-0.79688599 0.257999,-1.67007894 -0.607996,-0.786261 -0.419998,-1.227688 -0.419998,-1.227688 z m 0.161999,2.89776694 h -2.497984 l 1.499991,5.79553806 h 5.499964 l 0.339997,-0.950468 c 0.1659971,0.0396 0.3379951,0.06761 0.5169941,0.06761 1.183992,0 2.142986,-0.734101 2.142986,-1.876788 0,-0.970752 -0.692996,-1.777298 -1.62499,-2.00235806 l 0.196999,-1.033533 z m 5.7049581,1.70002606 a 0.71253549,1.3833066 15.862805 0 1 0.024,0.0039 0.71253549,1.3833066 15.862805 0 1 0.319998,1.510703 0.71253549,1.3833066 15.862805 0 1 -1.034991,1.158142 z"
         id="path14-3-3"
         inkscape:connector-curvature="0" />
      <path
         style="opacity:1;fill:#cce8f8;fill-opacity:1;stroke-width:0.982811"
         d="m -13.570386,-5.0037541 c 0,0 0.576996,0.340971 0.169999,1.237347 -0.615996,1.351327 0.567996,1.6604221 0.567996,1.6604221 0,0 -0.375997,-0.3168231 0.124999,-1.4314981 0.553997,-1.236381 -0.862994,-1.466271 -0.862994,-1.466271 z m 1.59199,1.8623 c 0,0 -1.048994,0.449154 -0.372998,1.678774 0.445997,0.81427271 -0.049,1.21899371 -0.049,1.21899371 0,0 1.266992,-0.403755 0.655996,-1.52808971 -0.548996,-1.017117 -0.233998,-1.369678 -0.233998,-1.369678 z m -3.26398,0.06955 c 0,0 -0.750995,0.771772 -0.008,1.7203089 0.491997,0.63171279 0.169999,1.17745883 0.169999,1.17745883 0,0 0.930994,-0.79688602 0.257999,-1.67007973 -0.607996,-0.786261 -0.419998,-1.227688 -0.419998,-1.227688 z m 0.161999,2.89776773 h -2.497984 l 1.499991,5.79553827 h 5.499964 l 0.339997,-0.950468 c 0.165997,0.0396 0.3379947,0.06761 0.5169935,0.06761 1.183992,0 2.142986,-0.734102 2.142986,-1.876789 0,-0.970752 -0.692996,-1.7772981 -1.62499,-2.00235815 l 0.196999,-1.03353712 z m 5.704958,1.70002527 a 0.71253549,1.3833066 15.862805 0 1 0.024,0.0039 0.71253549,1.3833066 15.862805 0 1 0.319998,1.510703 0.71253549,1.3833066 15.862805 0 1 -1.034991,1.158142 z"
         id="path14-3"
         inkscape:connector-curvature="0" />
    </g>
  </g>
</svg>
