<?xml version="1.0" encoding="UTF-8" standalone="no"?>
<svg
   xmlns:dc="http://purl.org/dc/elements/1.1/"
   xmlns:cc="http://creativecommons.org/ns#"
   xmlns:rdf="http://www.w3.org/1999/02/22-rdf-syntax-ns#"
   xmlns:svg="http://www.w3.org/2000/svg"
   xmlns="http://www.w3.org/2000/svg"
   xmlns:xlink="http://www.w3.org/1999/xlink"
   xmlns:sodipodi="http://sodipodi.sourceforge.net/DTD/sodipodi-0.dtd"
   xmlns:inkscape="http://www.inkscape.org/namespaces/inkscape"
   width="32"
   height="32"
   version="1"
   id="svg16"
   sodipodi:docname="folder-mail.svg"
   inkscape:version="0.92.4 5da689c313, 2019-01-14">
  <metadata
     id="metadata22">
    <rdf:RDF>
      <cc:Work
         rdf:about="">
        <dc:format>image/svg+xml</dc:format>
        <dc:type
           rdf:resource="http://purl.org/dc/dcmitype/StillImage" />
      </cc:Work>
    </rdf:RDF>
  </metadata>
  <defs
     id="defs20">
    <linearGradient
       inkscape:collect="always"
       id="linearGradient820">
      <stop
         style="stop-color:#2a88ae;stop-opacity:1"
         offset="0"
         id="stop816" />
      <stop
         style="stop-color:#abd5ea;stop-opacity:1"
         offset="1"
         id="stop818" />
    </linearGradient>
    <linearGradient
       inkscape:collect="always"
       xlink:href="#linearGradient820"
       id="linearGradient822"
       x1="16.901945"
       y1="28.338984"
       x2="16.873501"
       y2="6.7341037"
       gradientUnits="userSpaceOnUse" />
    <linearGradient
       gradientTransform="matrix(-1,0,0,1,31.998651,-0.0581681)"
       inkscape:collect="always"
       xlink:href="#linearGradient990"
       id="linearGradient829-3"
       x1="16.87215"
       y1="28.452196"
       x2="16.87215"
       y2="6.7922716"
       gradientUnits="userSpaceOnUse" />
    <linearGradient
       id="linearGradient990"
       inkscape:collect="always">
      <stop
         id="stop986"
         offset="0"
         style="stop-color:#2a88ae;stop-opacity:1" />
      <stop
         id="stop988"
         offset="1"
         style="stop-color:#71b9d9;stop-opacity:1" />
    </linearGradient>
    <linearGradient
       inkscape:collect="always"
       xlink:href="#linearGradient889"
       id="linearGradient891"
       x1="-34.169491"
       y1="21.288134"
       x2="-13.152541"
       y2="7.4576254"
       gradientUnits="userSpaceOnUse"
       gradientTransform="matrix(1.2926751,0,0,1.5798246,14.502313,-6.6312641)" />
    <linearGradient
       inkscape:collect="always"
       id="linearGradient889">
      <stop
         style="stop-color:#8998ad;stop-opacity:1"
         offset="0"
         id="stop885" />
      <stop
         style="stop-color:#ceeaf2;stop-opacity:1"
         offset="1"
         id="stop887" />
    </linearGradient>
  </defs>
  <sodipodi:namedview
     pagecolor="#ffffff"
     bordercolor="#666666"
     borderopacity="1"
     objecttolerance="10"
     gridtolerance="10"
     guidetolerance="10"
     inkscape:pageopacity="0"
     inkscape:pageshadow="2"
     inkscape:window-width="834"
     inkscape:window-height="504"
     id="namedview18"
     showgrid="false"
     inkscape:zoom="7.78125"
     inkscape:cx="16"
     inkscape:cy="16"
     inkscape:window-x="522"
     inkscape:window-y="120"
     inkscape:window-maximized="0"
     inkscape:current-layer="svg16" />
  <path
     style="fill:url(#linearGradient822);fill-opacity:1;stroke:none;stroke-width:0.14515875;stroke-miterlimit:4;stroke-dasharray:none;stroke-opacity:1"
     d="m 27.90368,6.7271305 c 1.168734,-7.388e-4 2.109629,0.9408941 2.109629,2.1096297 V 26.447279 c 0,1.168735 -0.940895,2.109629 -2.109629,2.109629 H 4.09632 c -1.168735,0 -2.109682,-0.940894 -2.109629,-2.109629 l 7.31e-4,-16.244506 7.31e-4,-5.0669081 c 0,-0.9377965 0.754977,-1.6927733 1.692773,-1.6927733 h 9.090821 c 0.937797,0 1.704839,0.3713212 2.299888,1.096152 L 16.8735,6.7341035 Z"
     id="rect4549-3"
     inkscape:connector-curvature="0"
     sodipodi:nodetypes="sssssscsssscs" />
  <rect
     style="opacity:1;vector-effect:none;fill:url(#linearGradient891);fill-opacity:1;fill-rule:nonzero;stroke:none;stroke-width:0.20743993;stroke-linecap:butt;stroke-linejoin:miter;stroke-miterlimit:4;stroke-dasharray:none;stroke-dashoffset:0;stroke-opacity:1;paint-order:markers stroke fill"
     id="rect883"
     width="27.168089"
     height="21.849777"
     x="-29.66774"
     y="5.150476"
     transform="matrix(-0.99999999,1.0125852e-4,6.7794228e-5,1,0,0)"
     inkscape:transform-center-x="-4.8282266"
     inkscape:transform-center-y="-6.7305724" />
  <path
     style="fill:url(#linearGradient829-3);fill-opacity:1;stroke:none;stroke-width:0.1;stroke-miterlimit:4;stroke-dasharray:none;stroke-opacity:1"
     d="M 4.0963198,6.7271305 C 2.9275858,6.7263917 1.9866908,7.6680246 1.9866908,8.8367602 V 26.44728 c 0,1.168735 0.940895,2.109629 2.109629,2.109629 H 27.903679 c 1.168735,0 2.109682,-0.940894 2.10963,-2.109629 L 30.012578,10.202773 29.899619,5.9214581 C 29.874889,4.9839874 29.256869,4.4531403 28.319073,4.4531403 h -8.978592 c -0.937797,0 -1.827453,0.1319292 -2.524344,0.7594692 L 15.1265,6.7341035 Z"
     id="rect4549-9"
     inkscape:connector-curvature="0"
     sodipodi:nodetypes="sssssscsssscs" />
  <path
     style="opacity:1;fill:#cce8f8;fill-opacity:1"
     d="m 16,11.627119 c -3.313,0 -6,2.687 -6,6 0,3.314 2.687,6 6,6 h 3.75 c 0,0 0.703,-0.301 0.75,-1.051 0,-0.75 -0.75,-0.949 -0.75,-0.949 H 16 c -0.195,-0.001 -0.389,-0.017 -0.582,-0.047 -0.7,-0.079 -1.256,-0.299 -1.676,-0.652 l -0.006,-0.004 c -1.086,-0.746 -1.736,-1.979 -1.736,-3.297 0,-2.209 1.791,-4 4,-4 2.209,0 4,1.791 4,4 0,0.454 -0.092,0.745 -0.24,1.002 -0.004,0 -0.007,-0.002 -0.01,-0.002 h -0.934 c 0.112,-0.314 0.184,-0.648 0.184,-1 0,-1.657 -1.343,-3 -3,-3 -1.656,0 -3,1.343 -3,3 0,1.657 1.343,3 3,3 h 3.75 c 0.542,-0.05 0.923,-0.371 1.27,-0.576 0.762,-0.544 0.98,-1.31 0.98,-2.424 0,-3.314 -2.686,-6 -6,-6 z m 0,5 c 0.552,0 1,0.448 1,1 0,0.552 -0.448,1 -1,1 -0.552,0 -1,-0.448 -1,-1 0,-0.552 0.448,-1 1,-1 z"
     id="path14"
     inkscape:connector-curvature="0" />
</svg>
