<?xml version="1.0" encoding="UTF-8" standalone="no"?>
<svg
   xmlns:dc="http://purl.org/dc/elements/1.1/"
   xmlns:cc="http://creativecommons.org/ns#"
   xmlns:rdf="http://www.w3.org/1999/02/22-rdf-syntax-ns#"
   xmlns:svg="http://www.w3.org/2000/svg"
   xmlns="http://www.w3.org/2000/svg"
   xmlns:xlink="http://www.w3.org/1999/xlink"
   xmlns:sodipodi="http://sodipodi.sourceforge.net/DTD/sodipodi-0.dtd"
   xmlns:inkscape="http://www.inkscape.org/namespaces/inkscape"
   width="32"
   height="32"
   version="1"
   id="svg14"
   sodipodi:docname="folder-linux.svg"
   inkscape:version="0.92.4 5da689c313, 2019-01-14">
  <metadata
     id="metadata20">
    <rdf:RDF>
      <cc:Work
         rdf:about="">
        <dc:format>image/svg+xml</dc:format>
        <dc:type
           rdf:resource="http://purl.org/dc/dcmitype/StillImage" />
        <dc:title />
      </cc:Work>
    </rdf:RDF>
  </metadata>
  <defs
     id="defs18">
    <linearGradient
       id="linearGradient990"
       inkscape:collect="always">
      <stop
         id="stop986"
         offset="0"
         style="stop-color:#2a88ae;stop-opacity:1" />
      <stop
         id="stop988"
         offset="1"
         style="stop-color:#71b9d9;stop-opacity:1" />
    </linearGradient>
    <linearGradient
       inkscape:collect="always"
       id="linearGradient827">
      <stop
         style="stop-color:#2a88ae;stop-opacity:1"
         offset="0"
         id="stop823" />
      <stop
         style="stop-color:#abd5ea;stop-opacity:1"
         offset="1"
         id="stop825" />
    </linearGradient>
    <linearGradient
       inkscape:collect="always"
       id="linearGradient889">
      <stop
         style="stop-color:#8998ad;stop-opacity:1"
         offset="0"
         id="stop885" />
      <stop
         style="stop-color:#ceeaf2;stop-opacity:1"
         offset="1"
         id="stop887" />
    </linearGradient>
    <linearGradient
       inkscape:collect="always"
       xlink:href="#linearGradient990"
       id="linearGradient975"
       x1="-5.667089"
       y1="22.200636"
       x2="-5.5973864"
       y2="10.717914"
       gradientUnits="userSpaceOnUse"
       gradientTransform="matrix(1.8471337,0,0,1.8471337,-1.6973853,-28.433842)" />
    <linearGradient
       inkscape:collect="always"
       xlink:href="#linearGradient889"
       id="linearGradient891-3-3"
       x1="-34.169491"
       y1="21.288134"
       x2="-13.152548"
       y2="7.4576306"
       gradientUnits="userSpaceOnUse"
       gradientTransform="matrix(1.2272328,0,0,1.4998451,17.688366,-21.176367)" />
    <linearGradient
       gradientTransform="translate(3.6887887,-17.017371)"
       inkscape:collect="always"
       xlink:href="#linearGradient827"
       id="linearGradient1037"
       x1="-8.0969543"
       y1="11.094899"
       x2="-8.1753788"
       y2="4.9379373"
       gradientUnits="userSpaceOnUse" />
    <filter
       inkscape:collect="always"
       style="color-interpolation-filters:sRGB"
       id="filter1158"
       x="-0.1027242"
       width="1.2054484"
       y="-0.090316113"
       height="1.1806322">
      <feGaussianBlur
         inkscape:collect="always"
         stdDeviation="0.42801539"
         id="feGaussianBlur1160" />
    </filter>
    <filter
       inkscape:collect="always"
       style="color-interpolation-filters:sRGB"
       id="filter1374"
       x="-0.086456369"
       width="1.1729127"
       y="-0.10749328"
       height="1.2149866">
      <feGaussianBlur
         inkscape:collect="always"
         stdDeviation="0.92918504"
         id="feGaussianBlur1376" />
    </filter>
  </defs>
  <sodipodi:namedview
     pagecolor="#ffffff"
     bordercolor="#666666"
     borderopacity="1"
     objecttolerance="10"
     gridtolerance="10"
     guidetolerance="10"
     inkscape:pageopacity="0"
     inkscape:pageshadow="2"
     inkscape:window-width="1002"
     inkscape:window-height="789"
     id="namedview16"
     showgrid="false"
     inkscape:zoom="17.56"
     inkscape:cx="16"
     inkscape:cy="18.334852"
     inkscape:window-x="202"
     inkscape:window-y="96"
     inkscape:window-maximized="0"
     inkscape:current-layer="g872"
     showguides="true"
     inkscape:guide-bbox="true"
     inkscape:snap-global="true" />
  <g
     id="g872"
     transform="matrix(1.0000063,0,0,1.0352793,28.578472,14.980279)">
    <path
       inkscape:connector-curvature="0"
       d="m -8.5853303,-12.403521 c -2.3908547,0 -3.1668757,1.884805 -4.3949507,3.7670978 h -11.458257 c -1.739142,0 -3.139248,1.4001052 -3.139248,3.1392492 v 1.2557 10.6734457 1.883548 1.098738 0.156969 c 0.0076,0.174536 0.0452,0.344062 0.07911,0.5098153 0.149433,0.867687 0.644171,1.60855 1.373734,2.079436 0.347828,0.224771 0.749652,0.388013 1.177845,0.470888 0.213466,0.04394 0.400564,0.07911 0.627846,0.07911 h 23.62347871 c 0.227282,0 0.41438,-0.0339 0.62785,-0.07911 0.426937,-0.08288 0.828761,-0.246117 1.17659099,-0.470888 0.72956,-0.470886 1.22305,-1.211749 1.373733,-2.079436 0.0339,-0.1657443 0.07032,-0.3365283 0.07911,-0.5098153 V 9.4142577 8.3155197 -9.1073111 c 0,-1.8358329 -1.442798,-3.2962099 -3.25728399,-3.2962099 H -8.5828173 Z"
       style="opacity:1;fill:url(#linearGradient1037);fill-opacity:1;stroke:none;stroke-width:1.2556994"
       id="path25-2" />
    <rect
       style="opacity:0.647;vector-effect:none;fill:#000000;fill-opacity:1;fill-rule:nonzero;stroke:none;stroke-width:0.19693819;stroke-linecap:butt;stroke-linejoin:miter;stroke-miterlimit:4;stroke-dasharray:none;stroke-dashoffset:0;stroke-opacity:1;paint-order:markers stroke fill;filter:url(#filter1374)"
       id="rect883-5-5-3"
       width="25.792688"
       height="20.74362"
       x="-24.245554"
       y="-9.9910784"
       transform="matrix(0.99999999,1.0125852e-4,-6.7794228e-5,1,0,0)"
       inkscape:transform-center-x="4.5837926"
       inkscape:transform-center-y="-6.389833"
       ry="1.6756594" />
    <rect
       style="opacity:1;vector-effect:none;fill:url(#linearGradient891-3-3);fill-opacity:1;fill-rule:nonzero;stroke:none;stroke-width:0.19693819;stroke-linecap:butt;stroke-linejoin:miter;stroke-miterlimit:4;stroke-dasharray:none;stroke-dashoffset:0;stroke-opacity:1;paint-order:markers stroke fill"
       id="rect883-5-5"
       width="25.792688"
       height="20.74362"
       x="-24.245554"
       y="-9.9910784"
       transform="matrix(0.99999999,1.0125852e-4,-6.7794228e-5,1,0,0)"
       inkscape:transform-center-x="4.5837926"
       inkscape:transform-center-y="-6.389833"
       ry="1.6756594" />
    <path
       inkscape:connector-curvature="0"
       d="m -16.431455,-12.403521 c 2.390854,0 3.166876,1.884805 4.394951,3.7670978 h 11.45825471 c 1.73914199,0 3.13924799,1.4001052 3.13924799,3.1392492 v 1.2557 10.6734437 1.883548 1.098738 0.156969 c -0.0076,0.174536 -0.0452,0.344062 -0.07911,0.5098153 -0.149433,0.867687 -0.644173,1.60855 -1.373736,2.079436 -0.34782799,0.224771 -0.74965099,0.388013 -1.17784499,0.470888 -0.213465,0.04394 -0.400563,0.07911 -0.627846,0.07911 H -24.321014 c -0.227282,0 -0.41438,-0.03389 -0.62785,-0.07911 -0.426937,-0.08288 -0.828761,-0.246117 -1.176591,-0.470888 -0.72956,-0.470886 -1.22305,-1.211749 -1.373733,-2.079436 -0.03389,-0.1657433 -0.07032,-0.3365283 -0.07911,-0.5098153 V 9.4142557 8.3155177 -9.1073111 c 0,-1.8358329 1.442798,-3.2962099 3.257284,-3.2962099 h 7.887047 z"
       style="opacity:1;fill:url(#linearGradient975);fill-opacity:1;stroke:none;stroke-width:1.2556994"
       id="path25" />
    <path
       inkscape:connector-curvature="0"
       style="opacity:0.647;fill:#000000;fill-opacity:1;fill-rule:evenodd;stroke:none;stroke-width:0.63952106;filter:url(#filter1158)"
       id="Page-1-3"
       d="m -9.3867724,3.2858334 c 0,-0.07616 -0.12046,-0.165007 -0.361386,-0.266578 0.01754,-0.06344 0.03393,-0.121608 0.04929,-0.174517 0.0153,-0.05288 0.02629,-0.10789 0.03283,-0.16501 0.0067,-0.05713 0.01306,-0.102628 0.01971,-0.136454 0.0067,-0.0337 0.0077,-0.08148 0.003,-0.14281 -0.0043,-0.06134 -0.0067,-0.102621 -0.0067,-0.123767 0,-0.02106 -0.0077,-0.0677 -0.02298,-0.139604 -0.01531,-0.07195 -0.02407,-0.115305 -0.0263,-0.130134 -0.0021,-0.01474 -0.01306,-0.0677 -0.03284,-0.158645 -0.01971,-0.09099 -0.03174,-0.147062 -0.03616,-0.16821 -0.04381,-0.203095 -0.146741,-0.420972 -0.3088176,-0.653721 -0.162075,-0.232708 -0.319762,-0.391355 -0.473084,-0.475992 0.105134,0.08463 0.229972,0.260215 0.37453,0.526793 0.3810926,0.68544 0.4993586,1.273569 0.3548116,1.76439 -0.04819,0.169221 -0.157699,0.25807 -0.3285336,0.266529 -0.135793,0.01686 -0.220117,-0.02232 -0.252964,-0.117392 -0.03284,-0.09522 -0.05038,-0.271857 -0.05256,-0.529963 -0.0021,-0.258106 -0.02739,-0.484456 -0.07557,-0.679078 -0.03942,-0.165013 -0.08213,-0.310979 -0.128121,-0.437951 -0.046,-0.126927 -0.08871,-0.223188 -0.128128,-0.288778 -0.03943,-0.06554 -0.07337,-0.117404 -0.101841,-0.15549 -0.02848,-0.03791 -0.05695,-0.06981 -0.08542,-0.0952 -0.02848,-0.02528 -0.04489,-0.04003 -0.04928,-0.0444 -0.06132,-0.262328 -0.129222,-0.480242 -0.203686,-0.653722 -0.07447,-0.173475 -0.139082,-0.291935 -0.193826,-0.355425 -0.05476,-0.06344 -0.106236,-0.133286 -0.154418,-0.209454 -0.04818,-0.07612 -0.08104,-0.160749 -0.09855,-0.25385 -0.01754,-0.08885 -0.0043,-0.202043 0.03942,-0.33954 0.04381,-0.137501 0.05367,-0.242227 0.02958,-0.31418 -0.02412,-0.07191 -0.121577,-0.124821 -0.292418,-0.158648 -0.0657,-0.01259 -0.163162,-0.05076 -0.292383,-0.114248 -0.129222,-0.06348 -0.206971,-0.09732 -0.233256,-0.101526 -0.03502,-0.0042 -0.05915,-0.05927 -0.07228,-0.165052 -0.01305,-0.105779 0.0043,-0.213665 0.05257,-0.323659 0.04818,-0.110036 0.12703,-0.167157 0.23653,-0.171369 0.162082,-0.01259 0.273777,0.05076 0.335105,0.190412 0.06134,0.139605 0.07009,0.262319 0.0263,0.368102 -0.04818,0.08037 -0.05257,0.136446 -0.01305,0.168167 0.03942,0.03159 0.105131,0.03286 0.19712,0.0042 0.05694,-0.01685 0.08541,-0.09306 0.08541,-0.228448 v -0.234887 c -0.0219,-0.126931 -0.05146,-0.232708 -0.0887,-0.317342 -0.03725,-0.08463 -0.08323,-0.149128 -0.13798,-0.193571 -0.05475,-0.04444 -0.106231,-0.07616 -0.154415,-0.09521 -0.04818,-0.01895 -0.107313,-0.03497 -0.177398,-0.0476 -0.468706,0.0337 -0.663633,0.317337 -0.584784,0.850448 0,0.06349 -0.0021,0.09521 -0.0067,0.09521 -0.03942,-0.03791 -0.104028,-0.06028 -0.193828,-0.06665 -0.08979,-0.0064 -0.162074,-0.005 -0.216829,0.0042 -0.05476,0.0084 -0.08871,0 -0.101844,-0.03159 0.0044,-0.241175 -0.03066,-0.431544 -0.105129,-0.571195 -0.07447,-0.13965 -0.173024,-0.211559 -0.295675,-0.215814 -0.118273,-0.0042 -0.209166,0.05397 -0.272682,0.174527 -0.06351,0.12061 -0.09965,0.246486 -0.108412,0.377665 -0.0044,0.06344 0.0031,0.141716 0.02298,0.234816 0.01971,0.0931 0.04818,0.172424 0.08542,0.238017 0.03724,0.06555 0.07119,0.09411 0.101848,0.08569 0.0438,-0.01259 0.07885,-0.04234 0.10513,-0.08888 0.01753,-0.03791 0.0022,-0.05498 -0.04599,-0.05077 -0.03066,0 -0.06461,-0.03076 -0.101844,-0.09201 -0.03725,-0.06138 -0.05804,-0.132235 -0.06242,-0.212655 -0.0044,-0.09306 0.01535,-0.171334 0.05914,-0.234815 0.0438,-0.06344 0.11827,-0.0931 0.223397,-0.08885 0.07447,0 0.133603,0.0444 0.177407,0.13329 0.0438,0.08885 0.06461,0.171327 0.06242,0.247495 -0.0022,0.07616 -0.0054,0.122713 -0.0099,0.139643 -0.09637,0.06344 -0.164266,0.124827 -0.203688,0.184056 -0.03502,0.05076 -0.09527,0.100472 -0.18069,0.149125 -0.08542,0.0487 -0.130315,0.07511 -0.134697,0.07937 -0.05694,0.05923 -0.09089,0.116355 -0.101844,0.171331 -0.01094,0.05502 0.0055,0.0931 0.04928,0.114247 0.06132,0.0337 0.116079,0.07511 0.164266,0.123764 0.04818,0.04866 0.08323,0.08885 0.105129,0.120611 0.02189,0.03159 0.06242,0.05923 0.121557,0.08249 0.05913,0.02317 0.136886,0.03707 0.233251,0.04128 0.205883,0.0084 0.42928,-0.02317 0.6702,-0.0952 0.0088,-0.0042 0.05914,-0.01895 0.151125,-0.0444 0.09199,-0.02528 0.167554,-0.04761 0.226687,-0.06665 0.05913,-0.01896 0.123749,-0.04655 0.193833,-0.08253 0.07009,-0.03581 0.116082,-0.07296 0.137987,-0.111048 0.03942,-0.05922 0.08322,-0.07616 0.131402,-0.05076 0.0219,0.01259 0.03616,0.03075 0.0427,0.05392 0.0067,0.02317 0,0.04865 -0.01972,0.07616 -0.0197,0.02739 -0.05584,0.04761 -0.108405,0.06029 -0.08762,0.02527 -0.211354,0.07089 -0.371235,0.136444 -0.159888,0.0656 -0.259547,0.106877 -0.298965,0.123766 -0.192739,0.08042 -0.346054,0.12908 -0.459949,0.145966 -0.10951,0.02107 -0.28253,0.01685 -0.519075,-0.01259 -0.04381,-0.0084 -0.06351,-0.0042 -0.05913,0.01259 0.0044,0.01685 0.04161,0.05712 0.1117,0.12061 0.109511,0.09732 0.256255,0.143863 0.44023,0.139614 0.07447,-0.0042 0.153316,-0.01896 0.236542,-0.0444 0.08323,-0.02528 0.162073,-0.05502 0.236545,-0.08885 0.07447,-0.0337 0.14783,-0.07091 0.220118,-0.111086 0.07227,-0.04003 0.137982,-0.07617 0.197114,-0.10789 0.05913,-0.0316 0.112794,-0.05712 0.160979,-0.07616 0.04819,-0.01895 0.08651,-0.02443 0.114984,-0.01601 0.02847,0.0084 0.04709,0.03159 0.05585,0.06981 0,0.0084 -0.0021,0.01812 -0.0067,0.02865 -0.0043,0.01051 -0.01305,0.02106 -0.02629,0.03159 -0.01306,0.01051 -0.02631,0.02023 -0.03943,0.02865 -0.01306,0.0084 -0.03175,0.01896 -0.05585,0.03159 -0.02407,0.01259 -0.0438,0.02232 -0.05913,0.02864 -0.0153,0.0064 -0.03724,0.01685 -0.0657,0.0316 -0.02848,0.01474 -0.04929,0.02443 -0.06242,0.02865 -0.122648,0.05923 -0.270485,0.152326 -0.443514,0.279259 -0.173024,0.126921 -0.318676,0.217913 -0.436945,0.272931 -0.118272,0.05497 -0.22559,0.05709 -0.321962,0.0064 -0.09199,-0.04655 -0.229968,-0.200987 -0.413947,-0.463314 -0.09637,-0.131174 -0.151121,-0.177731 -0.164262,-0.139641 -0.0044,0.01259 -0.0066,0.0337 -0.0066,0.06348 0,0.105783 -0.03284,0.225296 -0.09856,0.358585 -0.06571,0.133288 -0.130318,0.250689 -0.19383,0.352215 -0.06352,0.101572 -0.109511,0.224286 -0.137986,0.368151 -0.02848,0.143812 -0.0031,0.277101 0.07556,0.399814 -0.100749,0.02529 -0.237635,0.215778 -0.41066,0.5712 -0.173028,0.355422 -0.27706,0.653724 -0.312104,0.894894 -0.0088,0.07616 -0.01204,0.222133 -0.0099,0.437916 0.0022,0.215803 -0.0099,0.340623 -0.03615,0.374463 -0.03502,0.101563 -0.09856,0.107871 -0.190548,0.01894 -0.14017,-0.131132 -0.219018,-0.330011 -0.23654,-0.596596 -0.0088,-0.118455 0,-0.236922 0.0263,-0.355379 0.01753,-0.08042 0.01531,-0.118499 -0.0066,-0.114251 l -0.0263,0.03161 c -0.157694,0.274998 -0.135792,0.626208 0.06571,1.053536 0.02189,0.05077 0.07666,0.110001 0.164266,0.177697 0.08761,0.0677 0.140169,0.110031 0.157694,0.126972 0.08761,0.09731 0.315384,0.28873 0.683337,0.574351 0.367955,0.285613 0.571643,0.447473 0.611068,0.485511 0.07009,0.06349 0.108413,0.143858 0.114984,0.241171 0.0066,0.09735 -0.02407,0.188318 -0.09199,0.272934 -0.0679,0.08464 -0.167551,0.133294 -0.298963,0.145971 0.03502,0.06349 0.09856,0.157597 0.190547,0.282429 0.09199,0.124813 0.153312,0.239049 0.183975,0.342737 0.03066,0.103674 0.04599,0.252797 0.04599,0.4474302 0.201499,-0.1015372 0.216828,-0.2961972 0.04599,-0.5838822 -0.01753,-0.0337 -0.04052,-0.06769 -0.06899,-0.101566 -0.02848,-0.03371 -0.04928,-0.05923 -0.06242,-0.07617 -0.01313,-0.01683 -0.01753,-0.02947 -0.01313,-0.0379 0.01313,-0.02107 0.04161,-0.04129 0.08542,-0.06029 0.0438,-0.01896 0.08761,-0.0139 0.131413,0.016 0.201498,0.220034 0.565066,0.296197 1.090709,0.228503 0.582604,-0.06349 0.970262,-0.247537 1.162994,-0.552195 0.100754,-0.160747 0.175223,-0.224237 0.223411,-0.190369 0.05255,0.02527 0.07446,0.135389 0.0657,0.330023 -0.0043,0.105767 -0.05475,0.300401 -0.151123,0.583866 -0.03942,0.09736 -0.05256,0.176678 -0.03942,0.23803 0.01305,0.06132 0.06571,0.09414 0.157698,0.09836 0.01306,-0.08039 0.0449,-0.243277 0.09527,-0.488672 0.05037,-0.245428 0.07994,-0.435847 0.08871,-0.571236 0.0088,-0.08885 -0.0055,-0.244345 -0.0427,-0.466473 -0.03724,-0.222129 -0.05366,-0.427325 -0.04927,-0.615628 0.0043,-0.188272 0.05475,-0.337433 0.15112,-0.447435 0.0657,-0.07616 0.177403,-0.11424 0.335097,-0.11424 0.0043,-0.156545 0.07994,-0.268686 0.226686,-0.33638 0.14674,-0.0677 0.3055296,-0.0899 0.4763646,-0.06665 0.170841,0.02317 0.302246,0.07086 0.394232,0.142808 z m -4.1263266,-5.248754 c 0.01313,-0.07191 0.0077,-0.135396 -0.01644,-0.190369 -0.02407,-0.05502 -0.04928,-0.08674 -0.07556,-0.09521 -0.03943,-0.0084 -0.05913,0.0064 -0.05913,0.0444 0.0088,0.02107 0.01971,0.0337 0.03284,0.03792 0.0438,0 0.05913,0.03159 0.04599,0.0952 -0.01313,0.08463 0.0044,0.126928 0.05256,0.126928 0.01313,0 0.01972,-0.0064 0.01972,-0.01896 z m 1.583511,-0.101525 c 0,-0.04655 -0.01093,-0.08779 -0.03284,-0.123767 -0.02189,-0.03581 -0.04599,-0.06239 -0.07227,-0.07932 -0.0263,-0.01685 -0.046,-0.02317 -0.05914,-0.01896 -0.06132,0.0042 -0.07665,0.01896 -0.04599,0.0444 0.0088,0.0042 0.01753,0.0084 0.0263,0.01259 0.06132,0.01685 0.100746,0.08253 0.118269,0.196774 0,0.01258 0.01753,0.0084 0.05256,-0.01259 z m 4.2708776,7.187632 c 0.04818,0.05291 0.07447,0.103677 0.07885,0.15234 0.0043,0.04864 -8.98e-4,0.09625 -0.01645,0.142806 -0.01535,0.04655 -0.04928,0.0931 -0.101844,0.139595 -0.05256,0.04656 -0.104032,0.08784 -0.154406,0.123767 -0.05038,0.03583 -0.116082,0.07511 -0.197118,0.117422 -0.08104,0.04234 -0.150027,0.07721 -0.206973,0.104722 -0.05694,0.02738 -0.127027,0.06033 -0.210255,0.09841 -0.08323,0.03792 -0.14237,0.06554 -0.177413,0.08249 -0.166452,0.08038 -0.353713,0.198871 -0.56178,0.3554246 -0.208073,0.1565442 -0.373432,0.2919328 -0.496087,0.4061687 -0.07446,0.067682 -0.223391,0.1089599 -0.4467936,0.1237685 -0.223401,0.014779 -0.418326,-0.015996 -0.584776,-0.092033 -0.07885,-0.037913 -0.143466,-0.087802 -0.193832,-0.149124 -0.05038,-0.061336 -0.08652,-0.1153148 -0.108423,-0.161854 -0.02189,-0.046557 -0.07008,-0.087802 -0.144547,-0.1237646 -0.07447,-0.035807 -0.17741,-0.056072 -0.308817,-0.060293 -0.192741,-0.00415 -0.477462,-0.00638 -0.854176,-0.00638 -0.08323,0 -0.208067,0.00406 -0.374528,0.00975 -0.166452,0.00638 -0.293482,0.011775 -0.381091,0.016005 -0.192737,0.00425 -0.366856,0.035816 -0.522361,0.095201 -0.155505,0.05923 -0.272678,0.1227167 -0.351526,0.1904124 -0.07885,0.067692 -0.174122,0.1279858 -0.285823,0.1808382 -0.111699,0.052913 -0.228874,0.077225 -0.351524,0.073014 -0.12703,-0.00415 -0.370139,-0.069798 -0.729332,-0.1967353 -0.359198,-0.1269638 -0.67896,-0.2179074 -0.959304,-0.2729302 -0.08323,-0.016865 -0.194932,-0.037072 -0.335101,-0.060293 -0.140175,-0.023163 -0.249681,-0.042279 -0.32853,-0.057115 -0.07885,-0.014769 -0.16536,-0.034957 -0.259537,-0.060274 -0.09418,-0.02527 -0.167551,-0.05607 -0.220116,-0.09206 -0.05256,-0.03581 -0.0898,-0.07721 -0.111701,-0.12377 -0.0438,-0.0973 -0.02848,-0.237972 0.04599,-0.422027 0.07447,-0.184083 0.11389,-0.299347 0.118269,-0.345894 0.0044,-0.06769 -0.0044,-0.152335 -0.0263,-0.253897 -0.02189,-0.101527 -0.0438,-0.191422 -0.06571,-0.269737 -0.02189,-0.07827 -0.03175,-0.155481 -0.02957,-0.231659 0.0022,-0.07615 0.02521,-0.133231 0.069,-0.171323 0.06133,-0.05081 0.186165,-0.08042 0.374522,-0.08888 0.188359,-0.0084 0.319767,-0.03371 0.394235,-0.07616 0.131414,-0.07613 0.223401,-0.150194 0.275963,-0.222143 0.05257,-0.07191 0.07885,-0.179794 0.07885,-0.323648 0,0.120559 0.116079,-0.190419 0.09856,-0.291942 -0.01313,-0.0677 -0.01753,-0.148121 -0.01313,-0.241179 0.0044,-0.122706 0.0263,-0.23275 0.06571,-0.33006 0.03943,-0.09731 0.09199,-0.196733 0.157693,-0.298297 0.06571,-0.101524 0.11389,-0.190368 0.144549,-0.266535 0.03502,-0.08885 0.09309,-0.241179 0.174123,-0.456987 0.08104,-0.215778 0.145649,-0.380786 0.193833,-0.495038 0.04818,-0.114242 0.113888,-0.24328 0.19712,-0.387142 0.08323,-0.143861 0.168639,-0.258109 0.256248,-0.342734 0.481848,-0.605071 0.753427,-1.017572 0.814755,-1.237603 -0.05257,-0.473878 -0.08761,-1.129705 -0.105131,-1.967479 -0.0088,-0.380822 0.04381,-0.701322 0.157694,-0.961536 0.11389,-0.260213 0.346051,-0.481295 0.696481,-0.663242 0.170836,-0.08885 0.398616,-0.133247 0.683339,-0.133247 0.232165,-0.0042 0.464324,0.02444 0.696482,0.08565 0.232161,0.06138 0.427087,0.14917 0.584784,0.263419 0.249677,0.17769 0.450086,0.434746 0.601207,0.771126 0.151119,0.33638 0.215738,0.64841 0.193835,0.936137 -0.0219,0.401969 0.04381,0.854664 0.197111,1.3582 0.148938,0.478094 0.440229,0.9393 0.8738906,1.383569 0.240924,0.249637 0.458844,0.594484 0.653776,1.034545 0.194922,0.440009 0.325241,0.844091 0.390946,1.21219 0.03502,0.207341 0.04599,0.386086 0.03284,0.536305 -0.01305,0.150181 -0.03942,0.267642 -0.07884,0.352223 -0.03943,0.08464 0.05694,0.425273 0.11827,0.374463 0.0043,0.131184 0.0219,0.250692 0.05256,0.35858 0.03066,0.107935 0.06243,0.193625 0.09528,0.257065 0.03284,0.06348 0.07775,0.123763 0.134693,0.180889 0.05694,0.05713 0.102941,0.09731 0.137981,0.120557 0.03502,0.02317 0.08213,0.05082 0.141275,0.08253 0.05913,0.0316 0.09527,0.05181 0.108406,0.06028 0.08761,0.05077 0.155504,0.102634 0.203693,0.155495 z" />
    <path
       inkscape:connector-curvature="0"
       style="fill:#cce8f8;fill-opacity:1;fill-rule:evenodd;stroke:none;stroke-width:0.63952106"
       id="Page-1"
       d="m -9.3867714,3.2858332 c 0,-0.07616 -0.12046,-0.165007 -0.361386,-0.266578 0.01754,-0.06344 0.03393,-0.121608 0.04929,-0.174517 0.0153,-0.05288 0.02629,-0.10789 0.03283,-0.16501 0.0067,-0.05713 0.01306,-0.102628 0.01971,-0.136454 0.0067,-0.0337 0.0077,-0.08148 0.003,-0.14281 -0.0043,-0.06134 -0.0067,-0.102621 -0.0067,-0.123767 0,-0.02106 -0.0077,-0.0677 -0.02298,-0.139604 -0.01531,-0.07195 -0.02407,-0.115305 -0.0263,-0.130134 -0.0021,-0.01474 -0.01306,-0.0677 -0.03284,-0.158645 -0.01971,-0.09099 -0.03174,-0.147062 -0.03616,-0.16821 -0.04381,-0.203095 -0.146741,-0.420972 -0.3088176,-0.6537211 -0.162075,-0.23270799 -0.319762,-0.39135497 -0.473084,-0.47599197 0.105134,0.08463 0.229972,0.26021498 0.37453,0.52679297 0.3810926,0.6854401 0.4993586,1.2735691 0.3548116,1.7643901 -0.04819,0.169221 -0.157699,0.25807 -0.3285336,0.266529 -0.135793,0.01686 -0.220117,-0.02232 -0.252964,-0.117392 -0.03284,-0.09522 -0.05038,-0.271857 -0.05256,-0.529963 -0.0021,-0.258106 -0.02739,-0.484456 -0.07557,-0.679078 -0.03942,-0.165013 -0.08213,-0.310979 -0.128121,-0.437951 -0.046,-0.126927 -0.08871,-0.2231881 -0.128128,-0.2887781 -0.03943,-0.06554 -0.07337,-0.11740399 -0.101841,-0.15548999 -0.02848,-0.03791 -0.05695,-0.06981 -0.08542,-0.0952 -0.02848,-0.02528 -0.04489,-0.04003 -0.04928,-0.0444 -0.06132,-0.26232798 -0.129222,-0.48024198 -0.203686,-0.65372197 -0.07447,-0.173475 -0.139082,-0.291935 -0.193826,-0.355425 -0.05476,-0.06344 -0.106236,-0.133286 -0.154418,-0.209454 -0.04818,-0.07612 -0.08104,-0.160749 -0.09855,-0.25385 -0.01754,-0.08885 -0.0043,-0.20204297 0.03942,-0.33953994 0.04381,-0.137501 0.05367,-0.242227 0.02958,-0.31418 -0.02412,-0.07191 -0.121577,-0.124821 -0.292418,-0.158648 -0.0657,-0.01259 -0.163162,-0.05076 -0.292383,-0.114248 -0.129222,-0.06348 -0.206971,-0.09732 -0.233256,-0.101526 -0.03502,-0.0042 -0.05915,-0.05927 -0.07228,-0.165052 -0.01305,-0.105779 0.0043,-0.213665 0.05257,-0.323659 0.04818,-0.110036 0.12703,-0.167157 0.23653,-0.171369 0.162082,-0.01259 0.273777,0.05076 0.335105,0.190412 0.06134,0.139605 0.07009,0.262319 0.0263,0.368102 -0.04818,0.08037 -0.05257,0.136446 -0.01305,0.168167 0.03942,0.03159 0.105131,0.03286 0.19712,0.0042 0.05694,-0.01685 0.08541,-0.09306 0.08541,-0.228448 v -0.234886 c -0.0219,-0.126931 -0.05146,-0.232708 -0.0887,-0.317342 -0.03725,-0.08463 -0.08323,-0.149128 -0.137981,-0.193571 -0.05475,-0.04444 -0.106231,-0.07616 -0.154415,-0.09521 -0.04818,-0.01895 -0.107313,-0.03497 -0.177398,-0.0476 -0.468706,0.0337 -0.663633,0.317337 -0.584784,0.850448 0,0.06349 -0.0021,0.09521 -0.0067,0.09521 -0.03942,-0.03791 -0.104028,-0.06028 -0.193828,-0.06665 -0.08979,-0.0064 -0.162074,-0.005 -0.216829,0.0042 -0.05476,0.0084 -0.08871,0 -0.101844,-0.03159 0.0044,-0.241174 -0.03066,-0.431543 -0.105129,-0.571194 -0.07447,-0.13965 -0.173024,-0.211559 -0.295675,-0.215814 -0.118273,-0.0042 -0.209166,0.05397 -0.272682,0.174527 -0.06351,0.12061 -0.09965,0.246486 -0.108412,0.377665 -0.0044,0.06344 0.0031,0.141716 0.02298,0.234816 0.01971,0.0931 0.04818,0.172424 0.08542,0.238017 0.03724,0.06555 0.07119,0.09411 0.101848,0.08569 0.0438,-0.01259 0.07885,-0.04234 0.10513,-0.08888 0.01753,-0.03791 0.0022,-0.05498 -0.04599,-0.05077 -0.03066,0 -0.06461,-0.03076 -0.101844,-0.09201 -0.03725,-0.06138 -0.05804,-0.132235 -0.06242,-0.212655 -0.0044,-0.09306 0.01535,-0.171334 0.05914,-0.234815 0.0438,-0.06344 0.11827,-0.0931 0.223397,-0.08885 0.07447,0 0.133603,0.0444 0.177407,0.13329 0.0438,0.08885 0.06461,0.171327 0.06242,0.247495 -0.0022,0.07616 -0.0054,0.122713 -0.0099,0.139643 -0.09637,0.06344 -0.164266,0.124827 -0.203688,0.184056 -0.03502,0.05076 -0.09527,0.100472 -0.18069,0.149125 -0.08542,0.0487 -0.130315,0.07511 -0.134697,0.07937 -0.05694,0.05923 -0.09089,0.116355 -0.101844,0.171331 -0.01094,0.05502 0.0055,0.0931 0.04928,0.114247 0.06132,0.0337 0.116079,0.07511 0.164266,0.123764 0.04818,0.04866 0.08323,0.08885 0.105129,0.12061097 0.02189,0.03159 0.06242,0.05923 0.121557,0.08249 0.05913,0.02317 0.136886,0.03707 0.233251,0.04128 0.205883,0.0084 0.42928,-0.02317 0.6702,-0.0952 0.0088,-0.0042 0.05914,-0.01895 0.151125,-0.0444 0.09199,-0.02528 0.167554,-0.04761 0.226687,-0.06665 0.05913,-0.01896 0.123749,-0.04655 0.193833,-0.08253 0.07009,-0.03581 0.116082,-0.07296 0.137987,-0.111048 0.03942,-0.05922 0.08322,-0.07616 0.131402,-0.05076 0.0219,0.01259 0.03616,0.03075 0.0427,0.05392 0.0067,0.02317 0,0.04865 -0.01972,0.07616 -0.0197,0.02739 -0.05584,0.04761 -0.108405,0.06029 -0.08762,0.02527 -0.211354,0.07089 -0.371235,0.1364437 -0.159888,0.0656 -0.259547,0.10687698 -0.298965,0.12376597 -0.192739,0.08042 -0.346054,0.12908 -0.459949,0.145966 -0.10951,0.02107 -0.28253,0.01685 -0.519075,-0.01259 -0.04381,-0.0084 -0.06351,-0.0042 -0.05913,0.01259 0.0044,0.01685 0.04161,0.05712 0.1117,0.12061 0.109511,0.09732 0.256255,0.143863 0.44023,0.139614 0.07447,-0.0042 0.153316,-0.01896 0.236542,-0.0444 0.08323,-0.02528 0.162073,-0.05502 0.236545,-0.08885 0.07447,-0.0337 0.14783,-0.07091 0.220118,-0.111086 0.07227,-0.04003 0.137982,-0.07617 0.197114,-0.10789 0.05913,-0.0316 0.112794,-0.05712 0.160979,-0.07616 0.04819,-0.01895 0.08651,-0.02443 0.114984,-0.01601 0.02847,0.0084 0.04709,0.03159 0.05585,0.06981 0,0.0084 -0.0021,0.01812 -0.0067,0.02865 -0.0043,0.01051 -0.01305,0.02106 -0.02629,0.03159 -0.01306,0.01051 -0.02631,0.02023 -0.03943,0.02865 -0.01306,0.0084 -0.03175,0.01896 -0.05585,0.03159 -0.02407,0.01259 -0.0438,0.02232 -0.05913,0.02864 -0.0153,0.0064 -0.03724,0.01685 -0.0657,0.0316 -0.02848,0.01474 -0.04929,0.02443 -0.06242,0.02865 -0.122646,0.05923 -0.270483,0.152324 -0.443512,0.279256 -0.173024,0.126922 -0.318676,0.217914 -0.436945,0.27293199864 -0.118272,0.0549700014 -0.22559,0.0570900014 -0.321962,0.006400001 -0.09199,-0.04655 -0.229968,-0.200987 -0.413947,-0.463314 -0.09637,-0.131174 -0.151121,-0.177731 -0.164262,-0.139642 -0.0044,0.01259 -0.0066,0.0337 -0.0066,0.06348 0,0.105783 -0.03284,0.225296 -0.09856,0.358585 -0.06571,0.133288 -0.130318,0.250689 -0.19383,0.35221499 -0.06352,0.101572 -0.109511,0.224286 -0.137986,0.368151 -0.02848,0.143812 -0.0031,0.27710098 0.07556,0.39981398 -0.100749,0.02529 -0.237635,0.21577826 -0.41066,0.57120036 -0.173028,0.355422 -0.27706,0.653724 -0.312104,0.894894 -0.0088,0.07616 -0.01204,0.222133 -0.0099,0.437916 0.0022,0.215803 -0.0099,0.340623 -0.03615,0.374463 -0.03502,0.101563 -0.09856,0.107871 -0.190548,0.01894 -0.14017,-0.131132 -0.219018,-0.330011 -0.23654,-0.596596 -0.0088,-0.118455 0,-0.236922 0.0263,-0.355379 0.01753,-0.08042 0.01531,-0.118499 -0.0066,-0.114251 l -0.0263,0.03161 c -0.157694,0.274998 -0.135792,0.626208 0.06571,1.053536 0.02189,0.05077 0.07666,0.110001 0.164266,0.177697 0.08761,0.0677 0.140169,0.110031 0.157694,0.126972 0.08761,0.09731 0.315384,0.28873 0.683337,0.574351 0.367955,0.2856126 0.571643,0.4474732 0.611068,0.4855113 0.07009,0.06349 0.108413,0.1438578 0.114984,0.2411706 0.0066,0.097352 -0.02407,0.1883183 -0.09199,0.2729341 -0.0679,0.084644 -0.167551,0.1332934 -0.298963,0.1459702 0.03502,0.06349 0.09856,0.1575971 0.190547,0.2824291 0.09199,0.1248127 0.153312,0.2390495 0.183975,0.3427375 0.03066,0.1036734 0.04599,0.2527965 0.04599,0.4474299 0.201499,-0.1015368 0.216828,-0.2961973 0.04599,-0.583882 -0.01753,-0.033701 -0.04052,-0.067692 -0.06899,-0.1015658 -0.02848,-0.033711 -0.04928,-0.05923 -0.06242,-0.076173 -0.01313,-0.016826 -0.01753,-0.02947 -0.01313,-0.037903 0.01313,-0.021067 0.04161,-0.041293 0.08542,-0.060293 0.0438,-0.018961 0.08761,-0.0139 0.131413,0.016005 0.201498,0.2200334 0.565066,0.2961964 1.090709,0.2285026 0.582604,-0.06349 0.970262,-0.2475371 1.162994,-0.5521949 0.100754,-0.1607469 0.175223,-0.224237 0.223411,-0.1903689 0.05255,0.025269 0.07446,0.1353896 0.0657,0.3300229 -0.0043,0.1057667 -0.05475,0.3004011 -0.151123,0.5838657 -0.03942,0.097358 -0.05256,0.1766779 -0.03942,0.2380304 0.01305,0.061317 0.06571,0.094139 0.157698,0.098358 0.01306,-0.080394 0.0449,-0.2432773 0.09527,-0.488672 0.05037,-0.2454284 0.07994,-0.4358476 0.08871,-0.5712361 0.0088,-0.088846 -0.0055,-0.2443447 -0.0427,-0.4664722 -0.03724,-0.2221294 -0.05366,-0.4273254 -0.04927,-0.6156284 0.0043,-0.188272 0.05475,-0.337433 0.15112,-0.447435 0.0657,-0.07616 0.177403,-0.11424 0.335097,-0.11424 0.0043,-0.156545 0.07994,-0.268686 0.226686,-0.33638 0.14674,-0.0677 0.3055296,-0.0899 0.4763646,-0.06665 0.170841,0.02317 0.302246,0.07086 0.394232,0.142808 z m -4.1263266,-5.248754 c 0.01313,-0.07191 0.0077,-0.135396 -0.01644,-0.190369 -0.02407,-0.05502 -0.04928,-0.08674 -0.07556,-0.09521 -0.03943,-0.0084 -0.05913,0.0064 -0.05913,0.0444 0.0088,0.02107 0.01971,0.0337 0.03284,0.03792 0.0438,0 0.05913,0.03159 0.04599,0.0952 -0.01313,0.08463 0.0044,0.126928 0.05256,0.126928 0.01313,0 0.01972,-0.0064 0.01972,-0.01896 z m 1.583511,-0.101525 c 0,-0.04655 -0.01093,-0.08779 -0.03284,-0.123767 -0.02189,-0.03581 -0.04599,-0.06239 -0.07227,-0.07932 -0.0263,-0.01685 -0.046,-0.02317 -0.05914,-0.01896 -0.06132,0.0042 -0.07665,0.01896 -0.04599,0.0444 0.0088,0.0042 0.01753,0.0084 0.0263,0.01259 0.06132,0.01685 0.100746,0.08253 0.118269,0.196774 0,0.01258 0.01753,0.0084 0.05256,-0.01259 z m 4.2708776,7.1876324 c 0.04818,0.052913 0.07447,0.1036773 0.07885,0.1523404 0.0043,0.048644 -8.98e-4,0.096254 -0.01645,0.142805 -0.01535,0.046548 -0.04928,0.093096 -0.101844,0.1395961 -0.05256,0.046557 -0.104032,0.087841 -0.154406,0.1237657 -0.05038,0.035826 -0.116082,0.07511 -0.197118,0.1174224 -0.08104,0.042336 -0.150027,0.077206 -0.206973,0.1047215 -0.05694,0.027384 -0.127027,0.060332 -0.210255,0.098407 -0.08323,0.037922 -0.14237,0.065538 -0.177413,0.08249 -0.166452,0.080384 -0.353713,0.1988709 -0.56178,0.3554248 -0.208073,0.1565442 -0.373432,0.2919328 -0.496087,0.4061687 -0.07446,0.067682 -0.223391,0.1089599 -0.4467946,0.1237685 -0.223401,0.014779 -0.418326,-0.015996 -0.584776,-0.092033 -0.07885,-0.037913 -0.143466,-0.087802 -0.193832,-0.149124 -0.05038,-0.061336 -0.08652,-0.1153139 -0.108423,-0.1618539 -0.02189,-0.046558 -0.07008,-0.087802 -0.144547,-0.1237638 -0.07447,-0.035807 -0.17741,-0.056072 -0.308817,-0.060293 -0.192741,-0.00415 -0.477462,-0.00638 -0.854176,-0.00638 -0.08323,0 -0.208067,0.00406 -0.374528,0.00975 -0.166452,0.00638 -0.293482,0.011775 -0.381091,0.016005 -0.192737,0.00425 -0.366856,0.035816 -0.522361,0.095201 -0.155505,0.05923 -0.272678,0.1227176 -0.351526,0.1904124 -0.07885,0.067692 -0.174122,0.1279858 -0.285823,0.1808382 -0.111699,0.052913 -0.228874,0.077225 -0.351524,0.073014 -0.12703,-0.00415 -0.370139,-0.069798 -0.729332,-0.1967353 -0.359198,-0.1269639 -0.67896,-0.2179074 -0.959304,-0.2729303 -0.08323,-0.016865 -0.194932,-0.037072 -0.335101,-0.060293 -0.140175,-0.023163 -0.249681,-0.042278 -0.32853,-0.057115 -0.07885,-0.014769 -0.16536,-0.034957 -0.259537,-0.060274 -0.09418,-0.025269 -0.167551,-0.056072 -0.220116,-0.092062 -0.05256,-0.035807 -0.0898,-0.077206 -0.111701,-0.1237705 -0.0438,-0.097301 -0.02848,-0.2379715 0.04599,-0.4220271 0.07447,-0.1840827 0.11389,-0.2993473 0.118269,-0.3458941 0.0044,-0.067692 -0.0044,-0.1523347 -0.0263,-0.2538966 -0.02189,-0.1015272 -0.0438,-0.1914218 -0.06571,-0.2697369 -0.02189,-0.078269 -0.03175,-0.1554808 -0.02957,-0.2316592 0.0022,-0.076153 0.02521,-0.1332307 0.069,-0.1713229 0.06133,-0.050807 0.186165,-0.080424 0.374522,-0.088876 0.188359,-0.0084 0.319767,-0.03371 0.394235,-0.07616 0.131414,-0.07613 0.223401,-0.150193 0.275963,-0.222142 0.05257,-0.07191 0.07885,-0.179794 0.07885,-0.323648 0,0.120559 0.11608,-0.190419 0.09856,-0.291942 -0.01313,-0.0677 -0.01753,-0.148121 -0.01313,-0.241179 0.0044,-0.122706 0.0263,-0.23275 0.06571,-0.33006 0.03943,-0.09731 0.09199,-0.196733 0.157693,-0.298297 0.06571,-0.101524 0.11389,-0.190368 0.144549,-0.266535 0.03502,-0.08885 0.09309,-0.241179 0.174123,-0.456987 0.08104,-0.215778 0.145649,-0.380786 0.193833,-0.495038 0.04818,-0.1142421 0.113888,-0.2432801 0.19712,-0.38714209 0.08323,-0.143861 0.168639,-0.25810898 0.256248,-0.34273398 0.481848,-0.60506999 0.753427,-1.01757099 0.814755,-1.23760199 -0.05257,-0.47387794 -0.08761,-1.12970494 -0.105131,-1.96747894 -0.0088,-0.380822 0.04381,-0.701322 0.157694,-0.961536 0.11389,-0.260213 0.346051,-0.481295 0.696481,-0.663242 0.170836,-0.08885 0.398616,-0.133247 0.683339,-0.133247 0.232165,-0.0042 0.464324,0.02444 0.696482,0.08565 0.232161,0.06138 0.427087,0.14917 0.584784,0.263419 0.249677,0.17769 0.450086,0.434746 0.601207,0.771126 0.151119,0.33638 0.215738,0.64841 0.193835,0.936137 -0.0219,0.401969 0.04381,0.854664 0.197111,1.35819997 0.148938,0.47809397 0.440229,0.93929997 0.8738906,1.38356796 0.240924,0.249637 0.458844,0.59448398 0.653776,1.03454507 0.194922,0.440009 0.325241,0.844091 0.390946,1.21219 0.03502,0.207341 0.04599,0.386086 0.03284,0.536305 -0.01305,0.150181 -0.03942,0.267642 -0.07884,0.352223 -0.03943,0.08464 0.05694,0.425273 0.11827,0.374463 0.0043,0.131184 0.0219,0.250692 0.05256,0.35858 0.03066,0.107935 0.06243,0.193625 0.09528,0.2570648 0.03284,0.06348 0.07775,0.1237637 0.134693,0.1808894 0.05694,0.057125 0.102941,0.097308 0.137981,0.1205568 0.03502,0.023172 0.08213,0.050817 0.141275,0.082528 0.05913,0.031595 0.09527,0.051812 0.108406,0.060283 0.08761,0.050769 0.155504,0.1026342 0.203693,0.1554953 z" />
  </g>
</svg>
