<?xml version="1.0" encoding="UTF-8" standalone="no"?>
<svg
   xmlns:dc="http://purl.org/dc/elements/1.1/"
   xmlns:cc="http://creativecommons.org/ns#"
   xmlns:rdf="http://www.w3.org/1999/02/22-rdf-syntax-ns#"
   xmlns:svg="http://www.w3.org/2000/svg"
   xmlns="http://www.w3.org/2000/svg"
   xmlns:xlink="http://www.w3.org/1999/xlink"
   xmlns:sodipodi="http://sodipodi.sourceforge.net/DTD/sodipodi-0.dtd"
   xmlns:inkscape="http://www.inkscape.org/namespaces/inkscape"
   width="32"
   height="32"
   version="1"
   id="svg16"
   sodipodi:docname="folder-important.svg"
   inkscape:version="0.92.4 5da689c313, 2019-01-14">
  <metadata
     id="metadata22">
    <rdf:RDF>
      <cc:Work
         rdf:about="">
        <dc:format>image/svg+xml</dc:format>
        <dc:type
           rdf:resource="http://purl.org/dc/dcmitype/StillImage" />
      </cc:Work>
    </rdf:RDF>
  </metadata>
  <defs
     id="defs20">
    <linearGradient
       inkscape:collect="always"
       id="linearGradient820">
      <stop
         style="stop-color:#2a88ae;stop-opacity:1"
         offset="0"
         id="stop816" />
      <stop
         style="stop-color:#abd5ea;stop-opacity:1"
         offset="1"
         id="stop818" />
    </linearGradient>
    <linearGradient
       inkscape:collect="always"
       xlink:href="#linearGradient820"
       id="linearGradient822"
       x1="16.901945"
       y1="28.61017"
       x2="16.873501"
       y2="6.7341032"
       gradientUnits="userSpaceOnUse"
       gradientTransform="matrix(-1,0,0,1,32,0)" />
    <linearGradient
       gradientTransform="matrix(1,0,0,1.0419117,0.0013488,-1.2574762)"
       inkscape:collect="always"
       xlink:href="#linearGradient990"
       id="linearGradient829-3"
       x1="16.87215"
       y1="28.452196"
       x2="16.87215"
       y2="6.7922716"
       gradientUnits="userSpaceOnUse" />
    <linearGradient
       id="linearGradient990"
       inkscape:collect="always">
      <stop
         id="stop986"
         offset="0"
         style="stop-color:#2a88ae;stop-opacity:1" />
      <stop
         id="stop988"
         offset="1"
         style="stop-color:#71b9d9;stop-opacity:1" />
    </linearGradient>
  </defs>
  <sodipodi:namedview
     pagecolor="#ffffff"
     bordercolor="#666666"
     borderopacity="1"
     objecttolerance="10"
     gridtolerance="10"
     guidetolerance="10"
     inkscape:pageopacity="0"
     inkscape:pageshadow="2"
     inkscape:window-width="1070"
     inkscape:window-height="678"
     id="namedview18"
     showgrid="false"
     inkscape:zoom="15.28125"
     inkscape:cx="16"
     inkscape:cy="16"
     inkscape:window-x="391"
     inkscape:window-y="87"
     inkscape:window-maximized="0"
     inkscape:current-layer="svg16" />
  <path
     style="fill:url(#linearGradient822);fill-opacity:1;stroke:none;stroke-width:0.14515875;stroke-miterlimit:4;stroke-dasharray:none;stroke-opacity:1"
     d="M 4.09632,6.7271302 C 2.927586,6.7263914 1.986691,7.6680243 1.986691,8.8367599 V 26.44728 c 0,1.168735 0.940895,2.109629 2.109629,2.109629 h 23.807359 c 1.168735,0 2.109682,-0.940894 2.10963,-2.109629 l -7.31e-4,-16.244507 -7.32e-4,-5.0669084 c 0,-0.9377965 -0.754977,-1.6927733 -1.692773,-1.6927733 h -9.09082 c -0.937797,0 -1.704839,0.3713212 -2.299888,1.096152 L 15.1265,6.7341032 Z"
     id="rect4549-3"
     inkscape:connector-curvature="0"
     sodipodi:nodetypes="sssssscsssscs" />
  <path
     style="fill:url(#linearGradient829-3);fill-opacity:1;stroke:none;stroke-width:0.10207408;stroke-miterlimit:4;stroke-dasharray:none;stroke-opacity:1"
     d="m 27.90368,5.8122061 c 1.168734,-7.698e-4 2.109629,0.9803286 2.109629,2.198048 V 26.358862 c 0,1.217718 -0.940895,2.198047 -2.109629,2.198047 H 4.0963208 c -1.168735,0 -2.109682,-0.980329 -2.10963,-2.198047 l 7.31e-4,-16.9253429 0.112959,-4.4607525 c 0.02473,-0.9767618 0.64275,-1.5298576 1.580546,-1.5298576 h 8.9785922 c 0.937797,0 1.827453,0.1374586 2.524344,0.7912999 L 16.8735,5.8194713 Z"
     id="rect4549-9"
     inkscape:connector-curvature="0"
     sodipodi:nodetypes="sssssscsssscs" />
  <path
     style="opacity:1;fill:#cce8f8;fill-opacity:1"
     d="m 16,13.033899 c -2.761,0 -5,2.239 -5,5 0,2.761 2.239,5 5,5 2.761,0 5,-2.239 5,-5 0,-2.761 -2.239,-5 -5,-5 z m -1,2 h 2 v 4 h -2 z m 1,5 c 0.552,0 1,0.448 1,1 0,0.552 -0.448,1 -1,1 -0.552,0 -1,-0.448 -1,-1 0,-0.552 0.448,-1 1,-1 z"
     id="path14"
     inkscape:connector-curvature="0" />
</svg>
