<svg xmlns="http://www.w3.org/2000/svg" xmlns:xlink="http://www.w3.org/1999/xlink" version="1" height="32" width="32"><defs><linearGradient id="a"><stop offset="0" stop-color="#2a88ae"/><stop offset="1" stop-color="#71b9d9"/></linearGradient><linearGradient id="b"><stop offset="0" stop-color="#8998ad"/><stop offset="1" stop-color="#ceeaf2"/></linearGradient><linearGradient gradientTransform="matrix(1.84713 0 0 1.84713 -1.697 -28.434)" gradientUnits="userSpaceOnUse" y2="10.718" x2="-5.597" y1="22.201" x1="-5.667" id="d" xlink:href="#a"/><linearGradient gradientTransform="matrix(1.22723 0 0 1.49985 17.688 -21.176)" gradientUnits="userSpaceOnUse" y2="7.458" x2="-13.153" y1="21.288" x1="-34.169" id="c" xlink:href="#b"/></defs><g transform="matrix(1 0 0 1.03528 28.578 14.98)"><path d="M-8.585-12.404c-2.391 0-3.167 1.885-4.395 3.768H-24.44c-1.739 0-3.139 1.4-3.139 3.139V9.57c.008.175.045.344.08.51.149.868.643 1.609 1.373 2.08.348.224.75.387 1.178.47.213.044.4.08.628.08H-.696c.228 0 .415-.034.628-.08a3.352 3.352 0 0 0 1.177-.47 3.082 3.082 0 0 0 1.373-2.08c.034-.166.07-.336.08-.51V-9.107c0-1.836-1.443-3.297-3.258-3.297h-7.887z" fill="#2a88ae" stroke="#71b9d9" stroke-width=".098"/><rect ry="1.676" transform="rotate(.008) skewX(.002)" y="-9.991" x="-24.146" height="20.744" width="25.793" opacity=".647" fill="#4b6e7c" paint-order="markers stroke fill"/><rect ry="1.676" transform="rotate(.008) skewX(.002)" y="-9.991" x="-24.246" height="20.744" width="25.793" fill="url(#c)" paint-order="markers stroke fill"/><path d="M-16.431-12.404c2.39 0 3.166 1.885 4.394 3.768H-.578c1.739 0 3.139 1.4 3.139 3.139V9.57c-.008.175-.045.344-.08.51a3.078 3.078 0 0 1-1.373 2.08c-.348.224-.75.387-1.178.47-.213.044-.4.08-.628.08H-24.32c-.227 0-.414-.034-.628-.08a3.352 3.352 0 0 1-1.176-.47 3.082 3.082 0 0 1-1.374-2.08c-.034-.166-.07-.336-.08-.51V-9.107c0-1.836 1.444-3.297 3.258-3.297h7.887z" fill="url(#d)" stroke="#71b9d9" stroke-width=".098"/><path d="M-12.528-4.451a5.678 5.485 0 0 0-5.678 5.484 5.678 5.485 0 0 0 5.678 5.485A5.678 5.485 0 0 0-6.85 1.033a5.678 5.485 0 0 0-5.678-5.484zm0 1.828a3.785 3.656 0 0 1 3.785 3.656 3.785 3.656 0 0 1-3.785 3.657 3.785 3.656 0 0 1-3.786-3.657 3.785 3.656 0 0 1 3.786-3.656zm-.947.914v3.656h3.786V.12h-1.893v-1.828z" opacity=".647" fill="#4b6e7c"/><path d="M-12.628-4.548A5.678 5.485 0 0 0-18.306.937a5.678 5.485 0 0 0 5.678 5.484A5.678 5.485 0 0 0-6.95.937a5.678 5.485 0 0 0-5.678-5.485zm0 1.828A3.785 3.656 0 0 1-8.843.937a3.785 3.656 0 0 1-3.785 3.656A3.785 3.656 0 0 1-16.414.937a3.785 3.656 0 0 1 3.786-3.657zm-.947.914v3.657h3.786V.023h-1.893v-1.829z" fill="#cce8f8"/></g></svg>