<svg xmlns="http://www.w3.org/2000/svg" xmlns:xlink="http://www.w3.org/1999/xlink" version="1" height="32" width="32"><defs><linearGradient id="a"><stop offset="0" stop-color="#2a88ae"/><stop offset="1" stop-color="#71b9d9"/></linearGradient><linearGradient id="b"><stop offset="0" stop-color="#8998ad"/><stop offset="1" stop-color="#ceeaf2"/></linearGradient><linearGradient gradientTransform="matrix(1.84715 0 0 1.9123 26.881 -14.457)" gradientUnits="userSpaceOnUse" y2="10.718" x2="-5.597" y1="22.201" x1="-5.667" id="d" xlink:href="#a"/><linearGradient gradientTransform="matrix(1.22724 0 0 1.55276 46.268 -6.946)" gradientUnits="userSpaceOnUse" y2="7.458" x2="-13.153" y1="21.288" x1="-34.169" id="c" xlink:href="#b"/></defs><g transform="translate(.001)"><path d="M19.993 2.14c-2.39 0-3.167 1.95-4.395 3.9H4.14C2.4 6.04 1 7.488 1 9.29V24.888c.008.18.046.356.08.528a3.195 3.195 0 0 0 2.551 2.64c.214.046.4.082.628.082h23.624c.227 0 .414-.035.628-.082a3.199 3.199 0 0 0 2.55-2.64c.034-.172.07-.348.079-.528V5.552c0-1.9-1.443-3.413-3.257-3.413h-7.887z" fill="#2a88ae" stroke="#71b9d9" stroke-width=".1"/><rect ry="1.735" transform="rotate(.008) skewX(.002)" y="4.634" x="4.434" height="21.475" width="25.793" opacity=".647" fill="#4b6e7c" paint-order="markers stroke fill"/><rect ry="1.735" transform="rotate(.008) skewX(.002)" y="4.634" x="4.334" height="21.475" width="25.793" fill="url(#c)" paint-order="markers stroke fill"/><path d="M12.147 2.14c2.39 0 3.167 1.95 4.395 3.9H28c1.74 0 3.14 1.449 3.14 3.25V24.888c-.008.18-.046.356-.08.528a3.195 3.195 0 0 1-2.551 2.64c-.214.046-.4.082-.628.082H4.257c-.227 0-.414-.035-.628-.082a3.199 3.199 0 0 1-2.55-2.64c-.034-.172-.07-.348-.079-.528V5.552c0-1.9 1.443-3.413 3.257-3.413h7.887z" fill="url(#d)" stroke="#71b9d9" stroke-width=".1"/><path d="M8.049 17.605l3.008 1.737a3 3 0 1 0 5.992.207 3.089 3.089 0 0 0-.033-.408l3.638-2.598a3.5 3.5 0 0 0 3.395-3.494 3.5 3.5 0 1 0-7 .014l-2.322 3.568a2.98 2.98 0 0 0-.678-.082c-.453.001-.9.105-1.307.303l-4.693-2.709m12.5-3.594a2.5 2.5 0 1 1 0 5 2.5 2.5 0 0 1 0-5zm0 1a1.5 1.5 0 1 0 .001 3.001 1.5 1.5 0 0 0-.001-3zm-6.5 6a2 2 0 1 1-1.959 2.39l.705.407c.72.415 1.633.171 2.049-.549a1.497 1.497 0 0 0-.549-2.049l-.338-.195a2.83 2.83 0 0 1 .092-.004z" opacity=".647" fill="#4b6e7c"/><path d="M7.949 17.505l3.008 1.737a3 3 0 1 0 5.992.207 3.089 3.089 0 0 0-.033-.408l3.638-2.598a3.5 3.5 0 0 0 3.395-3.494 3.5 3.5 0 1 0-7 .014l-2.322 3.568a2.98 2.98 0 0 0-.678-.082c-.453.001-.9.105-1.307.303l-4.693-2.709m12.5-3.594a2.5 2.5 0 1 1 0 5 2.5 2.5 0 0 1 0-5zm0 1a1.5 1.5 0 1 0 .001 3.001 1.5 1.5 0 0 0-.001-3zm-6.5 6a2 2 0 1 1-1.959 2.39l.705.407c.72.415 1.633.171 2.049-.549a1.497 1.497 0 0 0-.549-2.049l-.338-.195a2.83 2.83 0 0 1 .092-.004z" fill="#cce8f8"/></g></svg>