<?xml version="1.0" encoding="UTF-8" standalone="no"?>
<svg
   xmlns:dc="http://purl.org/dc/elements/1.1/"
   xmlns:cc="http://creativecommons.org/ns#"
   xmlns:rdf="http://www.w3.org/1999/02/22-rdf-syntax-ns#"
   xmlns:svg="http://www.w3.org/2000/svg"
   xmlns="http://www.w3.org/2000/svg"
   xmlns:xlink="http://www.w3.org/1999/xlink"
   xmlns:sodipodi="http://sodipodi.sourceforge.net/DTD/sodipodi-0.dtd"
   xmlns:inkscape="http://www.inkscape.org/namespaces/inkscape"
   width="32"
   height="32"
   version="1"
   id="svg16"
   sodipodi:docname="folder-visiting.svg"
   inkscape:version="0.92.4 5da689c313, 2019-01-14">
  <metadata
     id="metadata22">
    <rdf:RDF>
      <cc:Work
         rdf:about="">
        <dc:format>image/svg+xml</dc:format>
        <dc:type
           rdf:resource="http://purl.org/dc/dcmitype/StillImage" />
      </cc:Work>
    </rdf:RDF>
  </metadata>
  <defs
     id="defs20">
    <linearGradient
       inkscape:collect="always"
       id="linearGradient818">
      <stop
         style="stop-color:#2a88ae;stop-opacity:1"
         offset="0"
         id="stop814" />
      <stop
         style="stop-color:#abd5ea;stop-opacity:1"
         offset="1"
         id="stop816" />
    </linearGradient>
    <linearGradient
       inkscape:collect="always"
       xlink:href="#linearGradient818"
       id="linearGradient820"
       x1="-19.100161"
       y1="21.353951"
       x2="-19.356947"
       y2="-0.46858737"
       gradientUnits="userSpaceOnUse"
       gradientTransform="matrix(-1,0,0,1,-40.460893,0)" />
    <linearGradient
       gradientTransform="matrix(1,0,0,1.0419118,-36.229097,-8.4601682)"
       inkscape:collect="always"
       xlink:href="#linearGradient990"
       id="linearGradient829-3"
       x1="16.87215"
       y1="28.452196"
       x2="16.87215"
       y2="6.7922716"
       gradientUnits="userSpaceOnUse" />
    <linearGradient
       id="linearGradient990"
       inkscape:collect="always">
      <stop
         id="stop986"
         offset="0"
         style="stop-color:#2a88ae;stop-opacity:1" />
      <stop
         id="stop988"
         offset="1"
         style="stop-color:#71b9d9;stop-opacity:1" />
    </linearGradient>
  </defs>
  <sodipodi:namedview
     pagecolor="#ffffff"
     bordercolor="#666666"
     borderopacity="1"
     objecttolerance="10"
     gridtolerance="10"
     guidetolerance="10"
     inkscape:pageopacity="0"
     inkscape:pageshadow="2"
     inkscape:window-width="1920"
     inkscape:window-height="1030"
     id="namedview18"
     showgrid="false"
     inkscape:zoom="23.8125"
     inkscape:cx="16"
     inkscape:cy="16"
     inkscape:window-x="0"
     inkscape:window-y="24"
     inkscape:window-maximized="1"
     inkscape:current-layer="g4493"
     inkscape:snap-global="true" />
  <g
     id="g4493"
     transform="translate(36.23047,7.2026902)">
    <path
       sodipodi:nodetypes="sssssscsssscs"
       inkscape:connector-curvature="0"
       id="rect4549-3-3"
       d="m -32.134126,-0.47556036 c -1.168734,-7.38e-4 -2.109629,0.940894 -2.109629,2.10962996 V 19.24459 c 0,1.168735 0.940895,2.109629 2.109629,2.109629 h 23.8073595 c 1.168734,0 2.109681,-0.940894 2.109629,-2.109629 l -7.31e-4,-16.2445076 -7.32e-4,-5.0669078 c 0,-0.937797 -0.754977,-1.692774 -1.692773,-1.692774 h -9.0908205 c -0.937797,0 -1.704839,0.371322 -2.299888,1.096152 l -1.801865,2.19486004 z"
       style="fill:url(#linearGradient820);fill-opacity:1;stroke:none;stroke-width:0.14515875;stroke-miterlimit:4;stroke-dasharray:none;stroke-opacity:1" />
    <path
       style="fill:url(#linearGradient829-3);fill-opacity:1;stroke:none;stroke-width:0.10207408;stroke-miterlimit:4;stroke-dasharray:none;stroke-opacity:1"
       d="m -8.326766,-1.390485 c 1.168734,-7.7e-4 2.109629,0.98032852 2.109629,2.19804827 V 19.156171 c 0,1.217718 -0.940895,2.198047 -2.109629,2.198047 h -23.807359 c -1.168735,0 -2.109682,-0.980329 -2.10963,-2.198047 l 7.31e-4,-16.9253437 0.112959,-4.4607525 c 0.02473,-0.9767611 0.64275,-1.5298568 1.580546,-1.5298568 h 8.978592 c 0.937797,0 1.827453,0.1374584 2.524344,0.7912997 l 1.689637,1.5852625 z"
       id="rect4549-9"
       inkscape:connector-curvature="0"
       sodipodi:nodetypes="sssssscsssscs" />
    <path
       id="path4511-3"
       d="m -33.853798,2.0828244 c -0.152241,0 -0.144242,-0.0025 -0.388672,-0.0065 v 0.924429 2.177734 L -7.0261108,20.904905 c 0.826303,-0.630958 0.809032,-1.576641 0.809032,-1.66001 V 17.725363 L -33.312783,2.0828244 Z m 6.833984,0 20.8027352,12.0097666 V 10.459779 L -20.728798,2.0828244 Z m 12.582032,0 8.2207032,4.744141 v -3.632813 l -1.927734,-1.111328 z m -19.804688,6.728516 -0.002,3.6328126 15.431641,8.910157 h 6.292969 z m -0.002,7.2636726 -0.01406,2.338874 c -0.0024,1.258266 -8.44e-4,1.259416 0.248047,1.422467 l 2.613659,1.517956 h 6.292969 z"
       style="fill:#cce8f8;fill-opacity:1;stroke:none;stroke-width:0.14515875;stroke-miterlimit:4;stroke-dasharray:none;stroke-opacity:1"
       inkscape:connector-curvature="0"
       sodipodi:nodetypes="sccccsccsccccccccccccccccccccc" />
  </g>
</svg>
