<?xml version="1.0" encoding="UTF-8" standalone="no"?>
<svg
   xmlns:dc="http://purl.org/dc/elements/1.1/"
   xmlns:cc="http://creativecommons.org/ns#"
   xmlns:rdf="http://www.w3.org/1999/02/22-rdf-syntax-ns#"
   xmlns:svg="http://www.w3.org/2000/svg"
   xmlns="http://www.w3.org/2000/svg"
   xmlns:xlink="http://www.w3.org/1999/xlink"
   xmlns:sodipodi="http://sodipodi.sourceforge.net/DTD/sodipodi-0.dtd"
   xmlns:inkscape="http://www.inkscape.org/namespaces/inkscape"
   width="32"
   height="32"
   version="1"
   id="svg26"
   sodipodi:docname="folder-script.svg"
   inkscape:version="0.92.4 5da689c313, 2019-01-14">
  <metadata
     id="metadata32">
    <rdf:RDF>
      <cc:Work
         rdf:about="">
        <dc:format>image/svg+xml</dc:format>
        <dc:type
           rdf:resource="http://purl.org/dc/dcmitype/StillImage" />
      </cc:Work>
    </rdf:RDF>
  </metadata>
  <defs
     id="defs30">
    <linearGradient
       inkscape:collect="always"
       id="linearGradient829">
      <stop
         style="stop-color:#55a5c9;stop-opacity:1"
         offset="0"
         id="stop825" />
      <stop
         style="stop-color:#2a88ae;stop-opacity:1"
         offset="1"
         id="stop827" />
    </linearGradient>
    <linearGradient
       inkscape:collect="always"
       id="linearGradient821">
      <stop
         style="stop-color:#2a88ae;stop-opacity:1"
         offset="0"
         id="stop817" />
      <stop
         style="stop-color:#abd5ea;stop-opacity:1"
         offset="1"
         id="stop819" />
    </linearGradient>
    <linearGradient
       inkscape:collect="always"
       xlink:href="#linearGradient821"
       id="linearGradient823"
       x1="16.901945"
       y1="28.20339"
       x2="16.873501"
       y2="6.7341037"
       gradientUnits="userSpaceOnUse"
       gradientTransform="matrix(-1,0,0,1,32,0)" />
    <linearGradient
       inkscape:collect="always"
       xlink:href="#linearGradient829"
       id="linearGradient831"
       x1="16.779661"
       y1="23.457628"
       x2="16.711864"
       y2="11.525424"
       gradientUnits="userSpaceOnUse" />
    <linearGradient
       gradientTransform="matrix(1,0,0,1.0419117,0.0013493,-1.2574752)"
       inkscape:collect="always"
       xlink:href="#linearGradient990"
       id="linearGradient829-3"
       x1="16.87215"
       y1="28.452196"
       x2="16.87215"
       y2="6.7922716"
       gradientUnits="userSpaceOnUse" />
    <linearGradient
       id="linearGradient990"
       inkscape:collect="always">
      <stop
         id="stop986"
         offset="0"
         style="stop-color:#2a88ae;stop-opacity:1" />
      <stop
         id="stop988"
         offset="1"
         style="stop-color:#71b9d9;stop-opacity:1" />
    </linearGradient>
  </defs>
  <sodipodi:namedview
     pagecolor="#ffffff"
     bordercolor="#666666"
     borderopacity="1"
     objecttolerance="10"
     gridtolerance="10"
     guidetolerance="10"
     inkscape:pageopacity="0"
     inkscape:pageshadow="2"
     inkscape:window-width="890"
     inkscape:window-height="670"
     id="namedview28"
     showgrid="false"
     inkscape:zoom="15.09375"
     inkscape:cx="16"
     inkscape:cy="16"
     inkscape:window-x="484"
     inkscape:window-y="44"
     inkscape:window-maximized="0"
     inkscape:current-layer="svg26" />
  <path
     style="fill:url(#linearGradient823);fill-opacity:1;stroke:none;stroke-width:0.14515875;stroke-miterlimit:4;stroke-dasharray:none;stroke-opacity:1"
     d="M 4.09632,6.7271307 C 2.927586,6.7263919 1.986691,7.6680243 1.986691,8.8367603 V 26.447279 c 0,1.168735 0.940895,2.109629 2.109629,2.109629 h 23.80736 c 1.168735,0 2.109682,-0.940894 2.109629,-2.109629 l -7.31e-4,-16.244506 -7.31e-4,-5.066908 c 0,-0.9377965 -0.754977,-1.6927733 -1.692773,-1.6927733 h -9.090821 c -0.937797,0 -1.704839,0.3713212 -2.299888,1.096152 l -1.801865,2.19486 z"
     id="rect4549-3"
     inkscape:connector-curvature="0"
     sodipodi:nodetypes="sssssscsssscs" />
  <path
     style="fill:url(#linearGradient829-3);fill-opacity:1;stroke:none;stroke-width:0.10207408;stroke-miterlimit:4;stroke-dasharray:none;stroke-opacity:1"
     d="m 27.90368,5.812207 c 1.168734,-7.697e-4 2.109629,0.9803286 2.109629,2.198048 v 18.348608 c 0,1.217719 -0.940895,2.198047 -2.109629,2.198047 H 4.0963213 c -1.168735,0 -2.109682,-0.980328 -2.10963,-2.198047 l 7.31e-4,-16.9253435 0.112959,-4.460752 C 2.1251113,3.9960058 2.7431313,3.44291 3.6809273,3.44291 h 8.9785917 c 0.937797,0 1.827453,0.1374586 2.524344,0.7912999 L 16.8735,5.8194723 Z"
     id="rect4549-9"
     inkscape:connector-curvature="0"
     sodipodi:nodetypes="sssssscsssscs" />
  <path
     inkscape:connector-curvature="0"
     id="path14"
     d="m 10,11.491525 v 12 h 12 v -12 z"
     style="opacity:1;fill:url(#linearGradient831);fill-opacity:1" />
  <g
     id="g22"
     style="fill:#cce8f8;fill-opacity:1"
     transform="translate(-15.5,10.491525)">
    <path
       inkscape:connector-curvature="0"
       id="path16"
       d="m 32.5,8 h 4 v 1 h -4 z"
       style="fill:#cce8f8;fill-opacity:1" />
    <rect
       id="rect18"
       y="2"
       x="28.5"
       height="7"
       width="1"
       style="fill:#cce8f8;fill-opacity:1" />
    <path
       inkscape:connector-curvature="0"
       id="path20"
       d="M 28,3 C 27.17,3 26.5,3.67 26.5,4.5 26.5,5.33 27.17,6 28,6 h 1.5 0.5 c 0.28,0 0.5,0.22 0.5,0.5 0,0.28 -0.22,0.51 -0.5,0.5 H 29.5 28 26.59 C 26.8,7.58 27.35,8 28,8 H 29.5 30 C 30.83,8 31.5,7.33 31.5,6.5 31.5,5.67 30.83,5 30,5 H 29.5 28 C 27.72,5 27.5,4.78 27.5,4.5 27.5,4.22 27.72,4 28,4 h 1.5 0.5 1.41 C 31.2,3.42 30.65,3 30,3 h -0.5 z"
       style="fill:#cce8f8;fill-opacity:1" />
  </g>
</svg>
