<?xml version="1.0" encoding="UTF-8" standalone="no"?>
<svg
   xmlns:dc="http://purl.org/dc/elements/1.1/"
   xmlns:cc="http://creativecommons.org/ns#"
   xmlns:rdf="http://www.w3.org/1999/02/22-rdf-syntax-ns#"
   xmlns:svg="http://www.w3.org/2000/svg"
   xmlns="http://www.w3.org/2000/svg"
   xmlns:xlink="http://www.w3.org/1999/xlink"
   xmlns:sodipodi="http://sodipodi.sourceforge.net/DTD/sodipodi-0.dtd"
   xmlns:inkscape="http://www.inkscape.org/namespaces/inkscape"
   width="32"
   height="32"
   version="1"
   id="svg16"
   sodipodi:docname="folder-favorites.svg"
   inkscape:version="0.92.4 5da689c313, 2019-01-14">
  <metadata
     id="metadata22">
    <rdf:RDF>
      <cc:Work
         rdf:about="">
        <dc:format>image/svg+xml</dc:format>
        <dc:type
           rdf:resource="http://purl.org/dc/dcmitype/StillImage" />
      </cc:Work>
    </rdf:RDF>
  </metadata>
  <defs
     id="defs20">
    <linearGradient
       inkscape:collect="always"
       id="linearGradient827">
      <stop
         style="stop-color:#2a88ae;stop-opacity:1"
         offset="0"
         id="stop823" />
      <stop
         style="stop-color:#abd5ea;stop-opacity:1"
         offset="1"
         id="stop825" />
    </linearGradient>
    <linearGradient
       inkscape:collect="always"
       xlink:href="#linearGradient827"
       id="linearGradient829"
       x1="16.901945"
       y1="28.61017"
       x2="16.873501"
       y2="6.7341037"
       gradientUnits="userSpaceOnUse"
       gradientTransform="matrix(-1,0,0,1,32,0)" />
    <linearGradient
       gradientTransform="matrix(1,0,0,1.0419117,0.0013495,-1.2574751)"
       inkscape:collect="always"
       xlink:href="#linearGradient990"
       id="linearGradient829-3"
       x1="16.87215"
       y1="28.452196"
       x2="16.87215"
       y2="6.7922716"
       gradientUnits="userSpaceOnUse" />
    <linearGradient
       id="linearGradient990"
       inkscape:collect="always">
      <stop
         id="stop986"
         offset="0"
         style="stop-color:#2a88ae;stop-opacity:1" />
      <stop
         id="stop988"
         offset="1"
         style="stop-color:#71b9d9;stop-opacity:1" />
    </linearGradient>
  </defs>
  <sodipodi:namedview
     pagecolor="#ffffff"
     bordercolor="#666666"
     borderopacity="1"
     objecttolerance="10"
     gridtolerance="10"
     guidetolerance="10"
     inkscape:pageopacity="0"
     inkscape:pageshadow="2"
     inkscape:window-width="920"
     inkscape:window-height="696"
     id="namedview18"
     showgrid="false"
     inkscape:zoom="12.375"
     inkscape:cx="16"
     inkscape:cy="16"
     inkscape:window-x="433"
     inkscape:window-y="231"
     inkscape:window-maximized="0"
     inkscape:current-layer="svg16" />
  <path
     sodipodi:nodetypes="sssssscsssscs"
     inkscape:connector-curvature="0"
     id="path4493"
     d="m 4.09632,6.7271305 c -1.168734,-7.39e-4 -2.109629,0.940894 -2.109629,2.10963 V 26.447279 c 0,1.168735 0.940895,2.109629 2.109629,2.109629 h 23.807359 c 1.168735,0 2.109682,-0.940894 2.10963,-2.109629 l -7.32e-4,-16.244506 -7.31e-4,-5.0669075 c 0,-0.937797 -0.754977,-1.692774 -1.692773,-1.692774 h -9.09082 c -0.937797,0 -1.704839,0.371322 -2.299888,1.096152 l -1.801865,2.19486 z"
     style="fill:url(#linearGradient829);fill-opacity:1;stroke:none;stroke-width:0.14515875;stroke-miterlimit:4;stroke-dasharray:none;stroke-opacity:1" />
  <path
     style="fill:url(#linearGradient829-3);fill-opacity:1;stroke:none;stroke-width:0.10207408;stroke-miterlimit:4;stroke-dasharray:none;stroke-opacity:1"
     d="m 27.90368,5.812207 c 1.168734,-7.697e-4 2.109629,0.9803286 2.109629,2.1980479 V 26.358863 c 0,1.217719 -0.940895,2.198047 -2.109629,2.198047 H 4.0963215 c -1.168735,0 -2.109682,-0.980328 -2.10963,-2.198047 L 1.9874225,9.4335197 2.1003815,4.9727675 C 2.1251115,3.9960058 2.7431315,3.44291 3.6809275,3.44291 H 12.65952 c 0.937797,0 1.827453,0.1374586 2.524344,0.7912999 l 1.689637,1.5852624 z"
     id="rect4549-9"
     inkscape:connector-curvature="0"
     sodipodi:nodetypes="sssssscsssscs" />
  <path
     inkscape:connector-curvature="0"
     id="path4495"
     d="m 16,12.762712 -1.324,4 H 11 l 2.857,2.26 -0.947,3.74 3.09,-2.4 3.09,2.4 -0.948,-3.74 2.858,-2.26 h -3.676 z"
     style="opacity:1;fill:#cce8f8;fill-opacity:1" />
</svg>
