<svg xmlns="http://www.w3.org/2000/svg" xmlns:xlink="http://www.w3.org/1999/xlink" version="1" height="32" width="32"><defs><linearGradient id="a"><stop offset="0" stop-color="#2a88ae"/><stop offset="1" stop-color="#71b9d9"/></linearGradient><linearGradient id="b"><stop offset="0" stop-color="#8998ad"/><stop offset="1" stop-color="#ceeaf2"/></linearGradient><linearGradient gradientTransform="matrix(1.84713 0 0 1.84713 -1.697 -28.434)" gradientUnits="userSpaceOnUse" y2="10.718" x2="-5.597" y1="22.201" x1="-5.667" id="d" xlink:href="#a"/><linearGradient gradientTransform="matrix(1.22723 0 0 1.49985 17.688 -21.176)" gradientUnits="userSpaceOnUse" y2="7.458" x2="-13.153" y1="21.288" x1="-34.169" id="c" xlink:href="#b"/></defs><g transform="matrix(1 0 0 1.03528 28.578 14.98)"><path d="M-8.585-12.404c-2.391 0-3.167 1.885-4.395 3.768H-24.44c-1.739 0-3.139 1.4-3.139 3.139V9.57c.008.175.045.344.08.51.149.868.643 1.609 1.373 2.08.348.224.75.387 1.178.47.213.044.4.08.628.08H-.696c.228 0 .415-.034.628-.08a3.352 3.352 0 0 0 1.177-.47 3.082 3.082 0 0 0 1.373-2.08c.034-.166.07-.336.08-.51V-9.107c0-1.836-1.443-3.297-3.258-3.297h-7.887z" fill="#2a88ae" stroke="#71b9d9" stroke-width=".098"/><rect ry="1.676" transform="rotate(.008) skewX(.002)" y="-9.991" x="-24.146" height="20.744" width="25.793" opacity=".647" fill="#4b6e7c" paint-order="markers stroke fill"/><rect ry="1.676" transform="rotate(.008) skewX(.002)" y="-9.991" x="-24.246" height="20.744" width="25.793" fill="url(#c)" paint-order="markers stroke fill"/><path d="M-16.431-12.404c2.39 0 3.166 1.885 4.394 3.768H-.578c1.739 0 3.139 1.4 3.139 3.139V9.57c-.008.175-.045.344-.08.51a3.078 3.078 0 0 1-1.373 2.08c-.348.224-.75.387-1.178.47-.213.044-.4.08-.628.08H-24.32c-.227 0-.414-.034-.628-.08a3.352 3.352 0 0 1-1.176-.47 3.082 3.082 0 0 1-1.374-2.08c-.034-.166-.07-.336-.08-.51V-9.107c0-1.836 1.444-3.297 3.258-3.297h7.887z" fill="url(#d)" stroke="#71b9d9" stroke-width=".098"/><path d="M-12.528-5.252c-3.593 0-6.507 2.815-6.507 6.285 0 3.471 2.914 6.286 6.507 6.286 3.593 0 6.507-2.815 6.507-6.286 0-3.47-2.914-6.285-6.507-6.285zm-.465 1.74c.063-.006.14.004.203 0 .008.029-.045.13-.116.28-.451.953-.477 2.07-.058 2.666.075.108.146.212.146.224 0 .014-.082.029-.175.029-.217 0-.423-.128-.842-.45-.187-.142-.43-.261-.523-.28-.148-.028-.187-.015-.377.168-.179.172-.233.264-.233.421 0 .595.731 1.069 2.091 1.347 1.847.378 2.302.717 2.353 1.655.064 1.177-.584 2.064-2.004 2.75-.17.082-.277.114-.349.14-.031-.003-.056.004-.087 0a.98.98 0 0 1-.029-.28c0-.625-.255-1.267-.639-1.627a4.765 4.765 0 0 0-.639-.449c-.247-.148-.497-.32-.552-.393-.092-.122-.1-.196-.03-.421.13-.41.283-.639.582-.898.156-.136.314-.25.35-.252.033-.003-.201-.07-.553-.141-.352-.07-.866-.215-1.133-.308-.487-.17-1.144-.528-1.394-.786-.01-.011-.02-.019-.03-.028a4.558 4.558 0 0 1 3.574-3.31c.15-.03.308-.042.464-.057zm4.357 2.104c.11.065.522.927.64 1.346.152.543.14 1.482 0 2.02-.054.207-.123.398-.145.422-.024.024-.107-.114-.204-.28-.098-.168-.41-.522-.668-.786-.748-.762-.866-1.16-.552-1.768.158-.306.845-1.004.93-.954z" opacity=".647" fill="#4b6e7c"/><path d="M-12.629-5.349c-3.593 0-6.507 2.815-6.507 6.286 0 3.47 2.914 6.285 6.507 6.285 3.593 0 6.507-2.815 6.507-6.285 0-3.471-2.914-6.286-6.507-6.286zm-.464 1.74c.062-.006.14.004.203 0 .008.03-.046.13-.116.28-.452.953-.478 2.07-.059 2.667.076.108.146.21.146.223 0 .014-.082.03-.174.03-.218 0-.423-.129-.842-.45-.188-.143-.43-.262-.523-.281-.149-.028-.188-.015-.378.168-.178.173-.233.264-.233.422 0 .594.732 1.068 2.092 1.346 1.846.378 2.302.718 2.352 1.655.064 1.177-.584 2.064-2.004 2.75-.169.082-.277.114-.348.14-.032-.002-.056.004-.088 0a.98.98 0 0 1-.028-.28c0-.625-.255-1.267-.64-1.627a4.765 4.765 0 0 0-.638-.448c-.247-.149-.497-.32-.552-.394-.092-.122-.1-.196-.03-.421.129-.41.282-.639.582-.897.156-.136.313-.25.349-.253.033-.003-.2-.07-.552-.14-.353-.07-.867-.216-1.134-.309-.486-.17-1.144-.528-1.394-.786l-.03-.027a4.558 4.558 0 0 1 3.574-3.311c.151-.03.309-.042.465-.057zm4.357 2.104c.11.066.522.927.639 1.347.152.543.14 1.482 0 2.02-.054.206-.123.397-.145.42-.023.025-.106-.112-.204-.28-.098-.167-.409-.521-.668-.785-.748-.762-.865-1.16-.551-1.767.157-.307.844-1.005.929-.955z" fill="#cce8f8"/></g></svg>