<?xml version="1.0" encoding="UTF-8" standalone="no"?>
<svg
   xmlns:dc="http://purl.org/dc/elements/1.1/"
   xmlns:cc="http://creativecommons.org/ns#"
   xmlns:rdf="http://www.w3.org/1999/02/22-rdf-syntax-ns#"
   xmlns:svg="http://www.w3.org/2000/svg"
   xmlns="http://www.w3.org/2000/svg"
   xmlns:xlink="http://www.w3.org/1999/xlink"
   xmlns:sodipodi="http://sodipodi.sourceforge.net/DTD/sodipodi-0.dtd"
   xmlns:inkscape="http://www.inkscape.org/namespaces/inkscape"
   width="32"
   height="32"
   version="1"
   id="svg16"
   sodipodi:docname="folder-steam.svg"
   inkscape:version="0.92.4 5da689c313, 2019-01-14">
  <metadata
     id="metadata22">
    <rdf:RDF>
      <cc:Work
         rdf:about="">
        <dc:format>image/svg+xml</dc:format>
        <dc:type
           rdf:resource="http://purl.org/dc/dcmitype/StillImage" />
      </cc:Work>
    </rdf:RDF>
  </metadata>
  <defs
     id="defs20">
    <linearGradient
       inkscape:collect="always"
       id="linearGradient820">
      <stop
         style="stop-color:#2a88ae;stop-opacity:1"
         offset="0"
         id="stop816" />
      <stop
         style="stop-color:#abd5ea;stop-opacity:1"
         offset="1"
         id="stop818" />
    </linearGradient>
    <linearGradient
       inkscape:collect="always"
       xlink:href="#linearGradient820"
       id="linearGradient822"
       x1="16.901945"
       y1="28.61017"
       x2="16.873501"
       y2="6.7341027"
       gradientUnits="userSpaceOnUse"
       gradientTransform="matrix(-1,0,0,1,32,0)" />
    <linearGradient
       gradientTransform="matrix(1,0,0,1.0419118,0.0013488,-1.2574773)"
       inkscape:collect="always"
       xlink:href="#linearGradient990"
       id="linearGradient829-3"
       x1="16.87215"
       y1="28.452196"
       x2="16.87215"
       y2="6.7922716"
       gradientUnits="userSpaceOnUse" />
    <linearGradient
       id="linearGradient990"
       inkscape:collect="always">
      <stop
         id="stop986"
         offset="0"
         style="stop-color:#2a88ae;stop-opacity:1" />
      <stop
         id="stop988"
         offset="1"
         style="stop-color:#71b9d9;stop-opacity:1" />
    </linearGradient>
  </defs>
  <sodipodi:namedview
     pagecolor="#ffffff"
     bordercolor="#666666"
     borderopacity="1"
     objecttolerance="10"
     gridtolerance="10"
     guidetolerance="10"
     inkscape:pageopacity="0"
     inkscape:pageshadow="2"
     inkscape:window-width="1035"
     inkscape:window-height="658"
     id="namedview18"
     showgrid="false"
     inkscape:zoom="15.25"
     inkscape:cx="16"
     inkscape:cy="16"
     inkscape:window-x="451"
     inkscape:window-y="72"
     inkscape:window-maximized="0"
     inkscape:current-layer="svg16" />
  <path
     style="fill:url(#linearGradient822);fill-opacity:1;stroke:none;stroke-width:0.14515875;stroke-miterlimit:4;stroke-dasharray:none;stroke-opacity:1"
     d="m 4.09632,6.7271295 c -1.168734,-7.38e-4 -2.109629,0.940895 -2.109629,2.10963 V 26.447279 c 0,1.168735 0.940895,2.109629 2.109629,2.109629 h 23.807359 c 1.168735,0 2.109682,-0.940894 2.10963,-2.109629 l -7.31e-4,-16.244506 -7.32e-4,-5.0669085 c 0,-0.937797 -0.754977,-1.692773 -1.692773,-1.692773 h -9.09082 c -0.937797,0 -1.704839,0.371321 -2.299888,1.096152 L 15.1265,6.7341025 Z"
     id="rect4549-3"
     inkscape:connector-curvature="0"
     sodipodi:nodetypes="sssssscsssscs" />
  <path
     style="fill:url(#linearGradient829-3);fill-opacity:1;stroke:none;stroke-width:0.10207408;stroke-miterlimit:4;stroke-dasharray:none;stroke-opacity:1"
     d="m 27.90368,5.8122051 c 1.168734,-7.697e-4 2.109629,0.9803287 2.109629,2.198048 V 26.358861 c 0,1.217718 -0.940895,2.198047 -2.109629,2.198047 H 4.0963208 c -1.168735,0 -2.109682,-0.980329 -2.10963,-2.198047 l 7.31e-4,-16.9253431 0.112959,-4.4607523 c 0.02473,-0.9767618 0.64275,-1.5298576 1.580546,-1.5298576 h 8.9785922 c 0.937797,0 1.827453,0.1374586 2.524344,0.7912999 L 16.8735,5.8194704 Z"
     id="rect4549-9"
     inkscape:connector-curvature="0"
     sodipodi:nodetypes="sssssscsssscs" />
  <path
     style="opacity:1;fill:#cce8f8;fill-opacity:1"
     d="m 8,19.454305 3.008,1.737 c -0.005,0.069 -0.008,0.138 -0.008,0.207 0,1.657 1.343,3 3,3 1.657,0 3,-1.343 3,-3 -0.002,-0.137 -0.013,-0.273 -0.033,-0.408 l 3.638,-2.598 c 1.89,-0.057 3.393,-1.604 3.395,-3.494 0,-1.933 -1.567,-3.5 -3.5,-3.5 -1.933,0 -3.501,1.567 -3.5,3.514 l -2.322,3.568 c -0.222,-0.053 -0.45,-0.081 -0.678,-0.082 -0.453,10e-4 -0.9,0.105 -1.307,0.303 L 8,15.992305 m 12.5,-3.594 c 1.381,0 2.5,1.119 2.5,2.5 0,1.381 -1.119,2.5 -2.5,2.5 -1.381,0 -2.5,-1.119 -2.5,-2.5 0,-1.381 1.119,-2.5 2.5,-2.5 z m 0,1 c -0.828,0 -1.5,0.672 -1.5,1.5 0,0.828 0.672,1.5 1.5,1.5 0.828,0 1.5,-0.672 1.5,-1.5 0,-0.828 -0.672,-1.5 -1.5,-1.5 z m -6.5,6 c 1.105,0 2,0.895 2,2 0,1.105 -0.895,2 -2,2 -0.954,-0.001 -1.774,-0.676 -1.959,-1.611 l 0.705,0.408 c 0.72,0.415 1.633,0.171 2.049,-0.549 0.415,-0.72 0.171,-1.633 -0.549,-2.049 l -0.338,-0.195 c 0.031,-0.002 0.061,-0.003 0.092,-0.004 z"
     id="path14"
     inkscape:connector-curvature="0" />
</svg>
