<svg xmlns="http://www.w3.org/2000/svg" xmlns:xlink="http://www.w3.org/1999/xlink" version="1" height="32" width="32"><defs><linearGradient id="a"><stop offset="0" stop-color="#2a88ae"/><stop offset="1" stop-color="#71b9d9"/></linearGradient><linearGradient id="b"><stop offset="0" stop-color="#8998ad"/><stop offset="1" stop-color="#ceeaf2"/></linearGradient><linearGradient gradientTransform="matrix(1.84715 0 0 1.9123 26.881 -14.457)" gradientUnits="userSpaceOnUse" y2="10.718" x2="-5.597" y1="22.201" x1="-5.667" id="d" xlink:href="#a"/><linearGradient gradientTransform="matrix(1.22724 0 0 1.55276 46.268 -6.946)" gradientUnits="userSpaceOnUse" y2="7.458" x2="-13.153" y1="21.288" x1="-34.169" id="c" xlink:href="#b"/></defs><g transform="translate(.001)"><path d="M19.993 2.14c-2.39 0-3.167 1.95-4.395 3.9H4.14C2.4 6.04 1 7.488 1 9.29V24.888c.008.18.046.356.08.528a3.195 3.195 0 0 0 2.551 2.64c.214.046.4.082.628.082h23.624c.227 0 .414-.035.628-.082a3.199 3.199 0 0 0 2.55-2.64c.034-.172.07-.348.079-.528V5.552c0-1.9-1.443-3.413-3.257-3.413h-7.887z" fill="#2a88ae" stroke="#71b9d9" stroke-width=".1"/><rect ry="1.735" transform="rotate(.008) skewX(.002)" y="4.634" x="4.434" height="21.475" width="25.793" opacity=".647" fill="#4b6e7c" paint-order="markers stroke fill"/><rect ry="1.735" transform="rotate(.008) skewX(.002)" y="4.634" x="4.334" height="21.475" width="25.793" fill="url(#c)" paint-order="markers stroke fill"/><path d="M12.147 2.14c2.39 0 3.167 1.95 4.395 3.9H28c1.74 0 3.14 1.449 3.14 3.25V24.888c-.008.18-.046.356-.08.528a3.195 3.195 0 0 1-2.551 2.64c-.214.046-.4.082-.628.082H4.257c-.227 0-.414-.035-.628-.082a3.199 3.199 0 0 1-2.55-2.64c-.034-.172-.07-.348-.079-.528V5.552c0-1.9 1.443-3.413 3.257-3.413h7.887z" fill="url(#d)" stroke="#71b9d9" stroke-width=".1"/><path class="ColorScheme-ButtonBackground" d="M15.368 11.567c-2.667 0-2.046 2.236-3.412 2.97-.047.027-.073.05-.115.077.9-.535 2.01-.984 3.189-1.287.998-.257 2.01-.401 2.944-.42h.072c-.901-.255-1-1.34-2.678-1.34zm2.906 2.016c-.933.018-1.946.162-2.944.419-3.29.847-5.635 2.688-5.237 4.112.229.814 1.333 1.55 2.978 1.649l-.003-.018c-.09-.77.4-1.44.973-1.894.573-.454 1.309-.784 2.137-.96.828-.175 1.602-.167 2.25.028.609.184 1.182.584 1.323 1.27 1.648-.924 2.504-2.238 2.256-3.14-.263-.943-1.694-1.505-3.733-1.466zm-.978 3.949a4.705 4.705 0 0 0-1.033.107c-1.447.307-2.548 1.18-2.46 1.949.09.77 1.335 1.144 2.782.837 1.447-.308 2.548-1.181 2.458-1.95-.064-.56-.753-.931-1.747-.943z" opacity=".647" fill="#4b6e7c"/><path class="ColorScheme-ButtonBackground" d="M15.268 11.467c-2.667 0-2.046 2.236-3.412 2.97-.047.027-.073.05-.115.077.9-.535 2.01-.984 3.189-1.287.998-.257 2.01-.401 2.944-.42h.072c-.901-.255-1-1.34-2.678-1.34zm2.906 2.016c-.933.018-1.946.162-2.944.419-3.29.847-5.635 2.688-5.237 4.112.229.814 1.333 1.55 2.978 1.649l-.003-.018c-.09-.77.4-1.44.973-1.894.573-.454 1.309-.784 2.137-.96.828-.175 1.602-.167 2.25.028.609.184 1.182.584 1.323 1.27 1.648-.924 2.504-2.238 2.256-3.14-.263-.943-1.694-1.505-3.733-1.466zm-.978 3.949a4.705 4.705 0 0 0-1.033.107c-1.447.307-2.548 1.18-2.46 1.949.09.77 1.335 1.144 2.782.837 1.447-.308 2.548-1.181 2.458-1.95-.064-.56-.753-.931-1.747-.943z" fill="#cce8f8"/></g></svg>