<svg xmlns="http://www.w3.org/2000/svg" xmlns:xlink="http://www.w3.org/1999/xlink" version="1" height="32" width="32"><defs><linearGradient id="a"><stop offset="0" stop-color="#2a88ae"/><stop offset="1" stop-color="#71b9d9"/></linearGradient><linearGradient id="b"><stop offset="0" stop-color="#8998ad"/><stop offset="1" stop-color="#ceeaf2"/></linearGradient><linearGradient gradientTransform="matrix(1.84715 0 0 1.9123 26.881 -14.457)" gradientUnits="userSpaceOnUse" y2="10.718" x2="-5.597" y1="22.201" x1="-5.667" id="e" xlink:href="#a"/><linearGradient gradientTransform="matrix(1.22724 0 0 1.55276 46.268 -6.946)" gradientUnits="userSpaceOnUse" y2="7.458" x2="-13.153" y1="21.288" x1="-34.169" id="d" xlink:href="#b"/><linearGradient gradientUnits="userSpaceOnUse" y2="11.525" x2="16.712" y1="23.458" x1="16.78" id="f" xlink:href="#c" gradientTransform="translate(-25.169 -1.692)"/><linearGradient id="c"><stop offset="0" stop-color="#55a5c9"/><stop offset="1" stop-color="#2a88ae"/></linearGradient></defs><g transform="translate(.001)"><path d="M19.993 2.14c-2.39 0-3.167 1.95-4.395 3.9H4.14C2.4 6.04 1 7.488 1 9.29V24.888c.008.18.046.356.08.528a3.195 3.195 0 0 0 2.551 2.64c.214.046.4.082.628.082h23.624c.227 0 .414-.035.628-.082a3.199 3.199 0 0 0 2.55-2.64c.034-.172.07-.348.079-.528V5.552c0-1.9-1.443-3.413-3.257-3.413h-7.887z" fill="#2a88ae" stroke="#71b9d9" stroke-width=".1"/><rect ry="1.735" transform="rotate(.008) skewX(.002)" y="4.634" x="4.434" height="21.475" width="25.793" opacity=".647" fill="#4b6e7c" paint-order="markers stroke fill"/><rect ry="1.735" transform="rotate(.008) skewX(.002)" y="4.634" x="4.334" height="21.475" width="25.793" fill="url(#d)" paint-order="markers stroke fill"/><path d="M12.147 2.14c2.39 0 3.167 1.95 4.395 3.9H28c1.74 0 3.14 1.449 3.14 3.25V24.888c-.008.18-.046.356-.08.528a3.195 3.195 0 0 1-2.551 2.64c-.214.046-.4.082-.628.082H4.257c-.227 0-.414-.035-.628-.082a3.199 3.199 0 0 1-2.55-2.64c-.034-.172-.07-.348-.079-.528V5.552c0-1.9 1.443-3.413 3.257-3.413h7.887z" fill="url(#e)" stroke="#71b9d9" stroke-width=".1"/><path d="M10.049 10.05v12h12v-12z" opacity=".647" fill="#4b6e7c"/><path d="M-15.169 9.8v12h12v-12z" fill="url(#f)" transform="translate(25.118 .15)"/><g fill="#cce8f8"><path d="M17.049 17.05h4v1h-4z" opacity=".647" fill="#4b6e7c"/><path d="M16.949 16.95h4v1h-4z"/><path opacity=".647" fill="#4b6e7c" d="M13.049 11.05h1v7h-1z"/><path d="M12.949 10.95h1v7h-1z"/><path d="M12.549 12.05c-.83 0-1.5.67-1.5 1.5s.67 1.5 1.5 1.5h2c.28 0 .5.22.5.5s-.22.51-.5.5h-3.41c.21.58.76 1 1.41 1h2c.83 0 1.5-.67 1.5-1.5s-.67-1.5-1.5-1.5h-2c-.28 0-.5-.22-.5-.5s.22-.5.5-.5h3.41c-.21-.58-.76-1-1.41-1h-.5z" opacity=".647" fill="#4b6e7c"/><path d="M12.449 11.95c-.83 0-1.5.67-1.5 1.5s.67 1.5 1.5 1.5h2c.28 0 .5.22.5.5s-.22.51-.5.5h-3.41c.21.58.76 1 1.41 1h2c.83 0 1.5-.67 1.5-1.5s-.67-1.5-1.5-1.5h-2c-.28 0-.5-.22-.5-.5s.22-.5.5-.5h3.41c-.21-.58-.76-1-1.41-1h-.5z"/></g></g></svg>