<?xml version="1.0" encoding="UTF-8" standalone="no"?>
<svg
   xmlns:dc="http://purl.org/dc/elements/1.1/"
   xmlns:cc="http://creativecommons.org/ns#"
   xmlns:rdf="http://www.w3.org/1999/02/22-rdf-syntax-ns#"
   xmlns:svg="http://www.w3.org/2000/svg"
   xmlns="http://www.w3.org/2000/svg"
   xmlns:xlink="http://www.w3.org/1999/xlink"
   xmlns:sodipodi="http://sodipodi.sourceforge.net/DTD/sodipodi-0.dtd"
   xmlns:inkscape="http://www.inkscape.org/namespaces/inkscape"
   inkscape:version="1.0 (4035a4fb49, 2020-05-01)"
   sodipodi:docname="folder-games.svg"
   id="svg14"
   version="1"
   height="32"
   width="32">
  <metadata
     id="metadata20">
    <rdf:RDF>
      <cc:Work
         rdf:about="">
        <dc:format>image/svg+xml</dc:format>
        <dc:type
           rdf:resource="http://purl.org/dc/dcmitype/StillImage" />
        <dc:title />
      </cc:Work>
    </rdf:RDF>
  </metadata>
  <defs
     id="defs18">
    <linearGradient
       inkscape:collect="always"
       id="linearGradient990">
      <stop
         style="stop-color:#2a88ae;stop-opacity:1"
         offset="0"
         id="stop986" />
      <stop
         style="stop-color:#71b9d9;stop-opacity:1"
         offset="1"
         id="stop988" />
    </linearGradient>
    <linearGradient
       id="linearGradient889"
       inkscape:collect="always">
      <stop
         id="stop885"
         offset="0"
         style="stop-color:#8998ad;stop-opacity:1" />
      <stop
         id="stop887"
         offset="1"
         style="stop-color:#ceeaf2;stop-opacity:1" />
    </linearGradient>
    <linearGradient
       gradientTransform="matrix(1.8471337,0,0,1.8471337,-1.6973853,-28.433842)"
       gradientUnits="userSpaceOnUse"
       y2="10.717914"
       x2="-5.5973864"
       y1="22.200636"
       x1="-5.667089"
       id="linearGradient975"
       xlink:href="#linearGradient990"
       inkscape:collect="always" />
    <linearGradient
       gradientTransform="matrix(1.2272328,0,0,1.4998451,17.688366,-21.176367)"
       gradientUnits="userSpaceOnUse"
       y2="7.4576306"
       x2="-13.152548"
       y1="21.288134"
       x1="-34.169491"
       id="linearGradient891-3-3"
       xlink:href="#linearGradient889"
       inkscape:collect="always" />
  </defs>
  <sodipodi:namedview
     inkscape:document-rotation="0"
     inkscape:snap-global="true"
     inkscape:guide-bbox="true"
     showguides="true"
     inkscape:current-layer="g872"
     inkscape:window-maximized="0"
     inkscape:window-y="61"
     inkscape:window-x="374"
     inkscape:cy="18.277904"
     inkscape:cx="16"
     inkscape:zoom="17.56"
     showgrid="false"
     id="namedview16"
     inkscape:window-height="845"
     inkscape:window-width="1096"
     inkscape:pageshadow="2"
     inkscape:pageopacity="0"
     guidetolerance="10"
     gridtolerance="10"
     objecttolerance="10"
     borderopacity="1"
     bordercolor="#666666"
     pagecolor="#ffffff" />
  <g
     transform="matrix(1.0000063,0,0,1.0352793,28.578472,14.980279)"
     id="g872">
    <path
       id="path25-2"
       style="opacity:1;fill:#2a88ae;fill-opacity:1;stroke:#71b9d9;stroke-width:0.0982811;stroke-miterlimit:4;stroke-dasharray:none;stroke-opacity:1"
       d="m -8.5853303,-12.403521 c -2.3908547,0 -3.1668757,1.884805 -4.3949507,3.7670978 h -11.458257 c -1.739142,0 -3.139248,1.4001052 -3.139248,3.1392492 v 1.2557 10.6734457 1.883548 1.098738 0.156969 c 0.0076,0.174536 0.0452,0.344062 0.07911,0.5098153 0.149433,0.867687 0.644171,1.60855 1.373734,2.079436 0.347828,0.224771 0.749652,0.388013 1.177845,0.470888 0.213466,0.04394 0.400564,0.07911 0.627846,0.07911 h 23.62347871 c 0.227282,0 0.41438,-0.0339 0.62785,-0.07911 0.426937,-0.08288 0.828761,-0.246117 1.17659099,-0.470888 0.72956,-0.470886 1.22305,-1.211749 1.373733,-2.079436 0.0339,-0.1657443 0.07032,-0.3365283 0.07911,-0.5098153 V 9.4142577 8.3155197 -9.1073111 c 0,-1.8358329 -1.442798,-3.2962099 -3.25728399,-3.2962099 H -8.5828173 Z"
       inkscape:connector-curvature="0" />
    <rect
       ry="1.6756594"
       inkscape:transform-center-y="-6.389833"
       inkscape:transform-center-x="4.5837926"
       transform="matrix(0.99999999,1.0125852e-4,-6.7794228e-5,1,0,0)"
       y="-9.9910889"
       x="-24.145704"
       height="20.74362"
       width="25.792688"
       id="rect883-5-5-3"
       style="opacity:0.647;vector-effect:none;fill:#4b6e7c;fill-opacity:1;fill-rule:nonzero;stroke:none;stroke-width:0.196938;stroke-linecap:butt;stroke-linejoin:miter;stroke-miterlimit:4;stroke-dasharray:none;stroke-dashoffset:0;stroke-opacity:1;paint-order:markers stroke fill" />
    <rect
       ry="1.6756594"
       inkscape:transform-center-y="-6.389833"
       inkscape:transform-center-x="4.5837926"
       transform="matrix(0.99999999,1.0125852e-4,-6.7794228e-5,1,0,0)"
       y="-9.9910784"
       x="-24.245554"
       height="20.74362"
       width="25.792688"
       id="rect883-5-5"
       style="opacity:1;vector-effect:none;fill:url(#linearGradient891-3-3);fill-opacity:1;fill-rule:nonzero;stroke:none;stroke-width:0.196938;stroke-linecap:butt;stroke-linejoin:miter;stroke-miterlimit:4;stroke-dasharray:none;stroke-dashoffset:0;stroke-opacity:1;paint-order:markers stroke fill" />
    <path
       id="path25"
       style="opacity:1;fill:url(#linearGradient975);fill-opacity:1;stroke:#71b9d9;stroke-width:0.0982811;stroke-miterlimit:4;stroke-dasharray:none;stroke-opacity:1"
       d="m -16.431455,-12.403521 c 2.390854,0 3.166876,1.884805 4.394951,3.7670978 h 11.45825471 c 1.73914199,0 3.13924799,1.4001052 3.13924799,3.1392492 v 1.2557 10.6734437 1.883548 1.098738 0.156969 c -0.0076,0.174536 -0.0452,0.344062 -0.07911,0.5098153 -0.149433,0.867687 -0.644173,1.60855 -1.373736,2.079436 -0.34782799,0.224771 -0.74965099,0.388013 -1.17784499,0.470888 -0.213465,0.04394 -0.400563,0.07911 -0.627846,0.07911 H -24.321014 c -0.227282,0 -0.41438,-0.03389 -0.62785,-0.07911 -0.426937,-0.08288 -0.828761,-0.246117 -1.176591,-0.470888 -0.72956,-0.470886 -1.22305,-1.211749 -1.373733,-2.079436 -0.03389,-0.1657433 -0.07032,-0.3365283 -0.07911,-0.5098153 V 9.4142557 8.3155177 -9.1073111 c 0,-1.8358329 1.442798,-3.2962099 3.257284,-3.2962099 h 7.887047 z"
       inkscape:connector-curvature="0" />
    <g
       transform="translate(-0.03194088,-0.54771168)"
       id="g828">
      <path
         style="opacity:0.647;fill:#4b6e7c;fill-opacity:1;stroke-width:0.982811"
         d="m -9.8504439,-2.282746 c -0.1499991,9.66e-4 -0.2859981,0.05023 -0.4159981,0.144889 -0.329998,0.243412 -1.018993,0.820068 -2.230986,0.821034 -1.211992,9.66e-4 -1.897988,-0.577622 -2.227986,-0.821034 -0.129999,-0.09466 -0.254998,-0.141991 -0.406997,-0.141025 -0.150999,9.66e-4 -0.325998,0.04347 -0.503997,0.141025 -0.647996,0.352562 -1.241992,1.50877098 -1.56599,3.00595198 -0.275998,1.27115502 -0.379997,3.00885002 -0.214999,3.70914402 0.144,0.600804 0.390998,0.867399 0.831995,0.867399 1.412991,0 1.474991,-1.054788 1.995988,-2.066109 0.376997,-0.560236 1.249992,-0.813307 2.091986,-0.78433 0.841995,-0.03091 1.71699,0.224094 2.093987,0.78433 0.5209971,1.011321 0.5829971,2.066109 1.9959881,2.066109 0.440997,0 0.687995,-0.266595 0.831994,-0.867399 0.165,-0.700294 0.061,-2.437989 -0.214998,-3.70914402 -0.323998,-1.497181 -0.917994,-2.65338998 -1.56599,-3.00595198 -0.177999,-0.09756 -0.342998,-0.145854 -0.493997,-0.144889 z m -5.6449651,0.965923 h 0.999994 v 0.96592298 h 0.999994 v 0.965923 h -0.999994 V 1.580946 h -0.999994 V 0.61502298 h -0.999993 v -0.965923 h 0.999993 z m 5.4999661,0 a 0.49999685,0.48296146 0 0 1 0.499997,0.48296198 0.49999685,0.48296146 0 0 1 -0.499997,0.482961 0.49999685,0.48296146 0 0 1 -0.4999971,-0.482961 0.49999685,0.48296146 0 0 1 0.4999971,-0.48296198 z m -0.9999941,0.96592298 a 0.49999685,0.48296146 0 0 1 0.499997,0.482962 0.49999685,0.48296146 0 0 1 -0.499997,0.482961 0.49999685,0.48296146 0 0 1 -0.499997,-0.482961 0.49999685,0.48296146 0 0 1 0.499997,-0.482962 z m 1.9999871,0 a 0.49999685,0.48296146 0 0 1 0.499997,0.482962 0.49999685,0.48296146 0 0 1 -0.499997,0.482961 0.49999685,0.48296146 0 0 1 -0.499996,-0.482961 0.49999685,0.48296146 0 0 1 0.499996,-0.482962 z m -0.999993,0.965923 A 0.49999685,0.48296146 0 0 1 -9.4954459,1.097985 0.49999685,0.48296146 0 0 1 -9.9954429,1.580946 0.49999685,0.48296146 0 0 1 -10.49544,1.097985 0.49999685,0.48296146 0 0 1 -9.9954429,0.61502298 Z"
         id="path14-3"
         inkscape:connector-curvature="0" />
      <path
         style="opacity:1;fill:#cce8f8;fill-opacity:1;stroke-width:0.982811"
         d="m -9.9504931,-2.3792567 c -0.1499989,9.66e-4 -0.2859979,0.05023 -0.4159979,0.144889 -0.329998,0.243412 -1.018993,0.820068 -2.230986,0.821034 -1.211992,9.66e-4 -1.897988,-0.577622 -2.227986,-0.821034 -0.129999,-0.09466 -0.254998,-0.141991 -0.406997,-0.141025 -0.150999,9.66e-4 -0.325998,0.04347 -0.503997,0.141025 -0.647996,0.352562 -1.241992,1.50877104 -1.56599,3.00595204 -0.275998,1.27115496 -0.379997,3.00884986 -0.214999,3.70914396 0.144,0.600804 0.390998,0.8673988 0.831995,0.8673988 1.412991,0 1.474991,-1.0547879 1.995988,-2.0661092 0.376997,-0.5602353 1.249992,-0.8133071 2.091986,-0.7843294 0.841995,-0.030909 1.71699,0.2240941 2.093987,0.7843294 0.5209969,1.0113213 0.5829969,2.0661092 1.9959879,2.0661092 0.440997,0 0.687995,-0.2665948 0.831994,-0.8673988 0.165,-0.7002941 0.061,-2.437989 -0.214998,-3.70914396 -0.323998,-1.497181 -0.917994,-2.65339004 -1.56599,-3.00595204 -0.177999,-0.09756 -0.342998,-0.145854 -0.493997,-0.144889 z m -5.6449649,0.965923 h 0.999994 v 0.96592304 h 0.999994 v 0.965923 h -0.999994 V 1.4844353 h -0.999994 V 0.51851234 h -0.999993 v -0.965923 h 0.999993 z m 5.499966,0 a 0.49999685,0.48296146 0 0 1 0.4999969,0.48296204 0.49999685,0.48296146 0 0 1 -0.4999969,0.482961 0.49999685,0.48296146 0 0 1 -0.499997,-0.482961 0.49999685,0.48296146 0 0 1 0.499997,-0.48296204 z m -0.999994,0.96592304 a 0.49999685,0.48296146 0 0 1 0.499997,0.482962 0.49999685,0.48296146 0 0 1 -0.499997,0.482961 0.49999685,0.48296146 0 0 1 -0.499997,-0.482961 0.49999685,0.48296146 0 0 1 0.499997,-0.482962 z m 1.9999869,0 a 0.49999685,0.48296146 0 0 1 0.499997,0.482962 0.49999685,0.48296146 0 0 1 -0.499997,0.482961 0.49999685,0.48296146 0 0 1 -0.499996,-0.482961 0.49999685,0.48296146 0 0 1 0.499996,-0.482962 z m -0.9999929,0.965923 a 0.49999685,0.48296146 0 0 1 0.4999969,0.48296196 0.49999685,0.48296146 0 0 1 -0.4999969,0.482961 0.49999685,0.48296146 0 0 1 -0.499997,-0.482961 0.49999685,0.48296146 0 0 1 0.499997,-0.48296196 z"
         id="path14"
         inkscape:connector-curvature="0" />
    </g>
  </g>
</svg>
