<?xml version="1.0" encoding="UTF-8" standalone="no"?>
<svg
   xmlns:dc="http://purl.org/dc/elements/1.1/"
   xmlns:cc="http://creativecommons.org/ns#"
   xmlns:rdf="http://www.w3.org/1999/02/22-rdf-syntax-ns#"
   xmlns:svg="http://www.w3.org/2000/svg"
   xmlns="http://www.w3.org/2000/svg"
   xmlns:xlink="http://www.w3.org/1999/xlink"
   xmlns:sodipodi="http://sodipodi.sourceforge.net/DTD/sodipodi-0.dtd"
   xmlns:inkscape="http://www.inkscape.org/namespaces/inkscape"
   width="32"
   height="32"
   version="1"
   id="svg16"
   sodipodi:docname="folder-publicshare.svg"
   inkscape:version="0.92.4 5da689c313, 2019-01-14">
  <metadata
     id="metadata22">
    <rdf:RDF>
      <cc:Work
         rdf:about="">
        <dc:format>image/svg+xml</dc:format>
        <dc:type
           rdf:resource="http://purl.org/dc/dcmitype/StillImage" />
      </cc:Work>
    </rdf:RDF>
  </metadata>
  <defs
     id="defs20">
    <linearGradient
       inkscape:collect="always"
       id="linearGradient820">
      <stop
         style="stop-color:#2a88ae;stop-opacity:1;"
         offset="0"
         id="stop816" />
      <stop
         style="stop-color:#abd5ea;stop-opacity:1"
         offset="1"
         id="stop818" />
    </linearGradient>
    <linearGradient
       inkscape:collect="always"
       xlink:href="#linearGradient820"
       id="linearGradient822"
       x1="16.901945"
       y1="28.474577"
       x2="16.873501"
       y2="6.7341037"
       gradientUnits="userSpaceOnUse"
       gradientTransform="matrix(-1,0,0,1,32,0)" />
    <linearGradient
       gradientTransform="matrix(1,0,0,1.0419118,0.001349,-1.2574759)"
       inkscape:collect="always"
       xlink:href="#linearGradient990"
       id="linearGradient829-3"
       x1="16.87215"
       y1="28.452196"
       x2="16.87215"
       y2="6.7922716"
       gradientUnits="userSpaceOnUse" />
    <linearGradient
       id="linearGradient990"
       inkscape:collect="always">
      <stop
         id="stop986"
         offset="0"
         style="stop-color:#2a88ae;stop-opacity:1" />
      <stop
         id="stop988"
         offset="1"
         style="stop-color:#71b9d9;stop-opacity:1" />
    </linearGradient>
  </defs>
  <sodipodi:namedview
     pagecolor="#ffffff"
     bordercolor="#666666"
     borderopacity="1"
     objecttolerance="10"
     gridtolerance="10"
     guidetolerance="10"
     inkscape:pageopacity="0"
     inkscape:pageshadow="2"
     inkscape:window-width="941"
     inkscape:window-height="558"
     id="namedview18"
     showgrid="false"
     inkscape:zoom="11.903078"
     inkscape:cx="16"
     inkscape:cy="16"
     inkscape:window-x="446"
     inkscape:window-y="199"
     inkscape:window-maximized="0"
     inkscape:current-layer="svg16"
     inkscape:snap-global="false" />
  <path
     style="fill:url(#linearGradient822);fill-opacity:1;stroke:none;stroke-width:0.14515875;stroke-miterlimit:4;stroke-dasharray:none;stroke-opacity:1"
     d="m 4.09632,6.7271305 c -1.168734,-7.39e-4 -2.109629,0.940894 -2.109629,2.10963 V 26.447279 c 0,1.168735 0.940895,2.109629 2.109629,2.109629 h 23.80736 c 1.168734,0 2.109682,-0.940894 2.109629,-2.109629 l -7.31e-4,-16.244506 -7.32e-4,-5.0669085 c 0,-0.937796 -0.754977,-1.692773 -1.692773,-1.692773 h -9.09082 c -0.937797,0 -1.704839,0.371321 -2.299888,1.096152 l -1.801865,2.19486 z"
     id="rect4549-3"
     inkscape:connector-curvature="0"
     sodipodi:nodetypes="sssssscsssscs" />
  <path
     style="fill:url(#linearGradient829-3);fill-opacity:1;stroke:none;stroke-width:0.10207408;stroke-miterlimit:4;stroke-dasharray:none;stroke-opacity:1"
     d="m 27.903681,5.8122061 c 1.168734,-7.697e-4 2.109629,0.9803287 2.109629,2.198048 V 26.358862 c 0,1.217718 -0.940895,2.198047 -2.109629,2.198047 H 4.096321 c -1.168735,0 -2.109682,-0.980329 -2.10963,-2.198047 L 1.987422,9.4335189 2.100381,4.9727666 C 2.125111,3.9960048 2.743131,3.442909 3.680927,3.442909 h 8.978592 c 0.937797,0 1.827453,0.1374586 2.524344,0.7912999 L 16.8735,5.8194714 Z"
     id="rect4549-9"
     inkscape:connector-curvature="0"
     sodipodi:nodetypes="sssssscsssscs" />
  <g
     transform="matrix(0.09615385,0,0,0.09615385,6.5025553,-75.82959)"
     id="g856">
    <path
       sodipodi:nodetypes="ccccccscsccccccc"
       inkscape:connector-curvature="0"
       id="path6496-5"
       d="m 135.82173,1007.0277 c 0,-14.58132 -24.74363,-22.02094 -34.61352,-24.66552 0,0 0.40882,-8.17642 1.36274,-11.17453 0.95392,-2.99796 1.09019,-6.40478 1.49901,-7.35867 0.40881,-0.95404 5.22659,-5.31476 5.49912,-9.4029 -0.0652,-2.43921 -0.54705,-3.01738 -1.75155,-3.01738 v -12.67127 c 0,-6.84157 -9.97326,-12.81589 -16.51995,-12.81589 -6.546692,0 -16.51996,5.97432 -16.51996,12.81589 v 12.67127 c -1.2045,0 -1.686332,0.57817 -1.751549,3.01738 0.272538,4.08814 5.09031,8.44886 5.499124,9.4029 0.408829,0.95389 0.54509,4.36071 1.499008,7.35867 0.953918,2.99811 1.362747,11.17453 1.362747,11.17453 -9.869892,2.64458 -34.613527,10.0842 -34.613527,24.66552 z"
       style="fill:#cce8f8;fill-opacity:1;fill-rule:evenodd;stroke:none;stroke-width:1px;stroke-linecap:butt;stroke-linejoin:miter;stroke-opacity:1" />
    <path
       style="fill:#cce8f8;fill-opacity:1;fill-rule:evenodd;stroke:none;stroke-width:0.80854988px;stroke-linecap:butt;stroke-linejoin:miter;stroke-opacity:1"
       d="m 150.77342,1007.0277 c 0,-11.78972 -20.00646,-17.80503 -27.98676,-19.9433 0,0 0.33056,-6.61105 1.10185,-9.03517 0.77129,-2.424 0.88147,-5.17858 1.21202,-5.94985 0.33055,-0.77139 4.22596,-4.29725 4.44632,-7.60271 -0.0527,-1.97223 -0.44232,-2.43971 -1.41622,-2.43971 v -10.24535 c 0,-5.53175 -8.06388,-10.36229 -13.3572,-10.36229 -5.29333,0 -13.35722,4.83054 -13.35722,10.36229 v 10.24535 c -0.97389,0 -1.36348,0.46748 -1.41621,2.43971 0.22036,3.30546 4.11577,6.83132 4.44631,7.60271 0.33056,0.77127 0.44074,3.52585 1.21203,5.94985 0.77129,2.42412 1.10185,9.03517 1.10185,9.03517 -7.9803,2.13827 -27.986767,8.15358 -27.986767,19.9433 z"
       id="path852"
       inkscape:connector-curvature="0"
       sodipodi:nodetypes="ccccccscsccccccc" />
  </g>
</svg>
