<?xml version="1.0" encoding="UTF-8" standalone="no"?>
<svg
   xmlns:dc="http://purl.org/dc/elements/1.1/"
   xmlns:cc="http://creativecommons.org/ns#"
   xmlns:rdf="http://www.w3.org/1999/02/22-rdf-syntax-ns#"
   xmlns:svg="http://www.w3.org/2000/svg"
   xmlns="http://www.w3.org/2000/svg"
   xmlns:xlink="http://www.w3.org/1999/xlink"
   xmlns:sodipodi="http://sodipodi.sourceforge.net/DTD/sodipodi-0.dtd"
   xmlns:inkscape="http://www.inkscape.org/namespaces/inkscape"
   width="32"
   height="32"
   version="1"
   id="svg16"
   sodipodi:docname="folder-temp.svg"
   inkscape:version="0.92.4 5da689c313, 2019-01-14">
  <metadata
     id="metadata22">
    <rdf:RDF>
      <cc:Work
         rdf:about="">
        <dc:format>image/svg+xml</dc:format>
        <dc:type
           rdf:resource="http://purl.org/dc/dcmitype/StillImage" />
      </cc:Work>
    </rdf:RDF>
  </metadata>
  <defs
     id="defs20">
    <linearGradient
       inkscape:collect="always"
       id="linearGradient820">
      <stop
         style="stop-color:#2a88ae;stop-opacity:1"
         offset="0"
         id="stop816" />
      <stop
         style="stop-color:#abd5ea;stop-opacity:1"
         offset="1"
         id="stop818" />
    </linearGradient>
    <linearGradient
       inkscape:collect="always"
       xlink:href="#linearGradient820"
       id="linearGradient822"
       x1="16.901945"
       y1="28.338984"
       x2="16.873501"
       y2="6.7341037"
       gradientUnits="userSpaceOnUse"
       gradientTransform="matrix(-1,0,0,1,32,0)" />
    <linearGradient
       gradientTransform="matrix(1,0,0,1.0419118,0.0013485,-1.2574763)"
       inkscape:collect="always"
       xlink:href="#linearGradient990"
       id="linearGradient829-3"
       x1="16.87215"
       y1="28.452196"
       x2="16.87215"
       y2="6.7922716"
       gradientUnits="userSpaceOnUse" />
    <linearGradient
       id="linearGradient990"
       inkscape:collect="always">
      <stop
         id="stop986"
         offset="0"
         style="stop-color:#2a88ae;stop-opacity:1" />
      <stop
         id="stop988"
         offset="1"
         style="stop-color:#71b9d9;stop-opacity:1" />
    </linearGradient>
  </defs>
  <sodipodi:namedview
     pagecolor="#ffffff"
     bordercolor="#666666"
     borderopacity="1"
     objecttolerance="10"
     gridtolerance="10"
     guidetolerance="10"
     inkscape:pageopacity="0"
     inkscape:pageshadow="2"
     inkscape:window-width="853"
     inkscape:window-height="569"
     id="namedview18"
     showgrid="false"
     inkscape:zoom="7.375"
     inkscape:cx="16"
     inkscape:cy="16"
     inkscape:window-x="692"
     inkscape:window-y="266"
     inkscape:window-maximized="0"
     inkscape:current-layer="svg16" />
  <path
     style="fill:url(#linearGradient822);fill-opacity:1;stroke:none;stroke-width:0.14515875;stroke-miterlimit:4;stroke-dasharray:none;stroke-opacity:1"
     d="M 4.09632,6.7271305 C 2.927586,6.7263915 1.986691,7.6680245 1.986691,8.8367595 V 26.447279 c 0,1.168735 0.940895,2.109629 2.109629,2.109629 h 23.807359 c 1.168735,0 2.109682,-0.940894 2.10963,-2.109629 l -7.31e-4,-16.244506 -7.32e-4,-5.0669085 c 0,-0.937796 -0.754977,-1.692773 -1.692773,-1.692773 h -9.09082 c -0.937797,0 -1.704839,0.371321 -2.299888,1.096152 l -1.801865,2.19486 z"
     id="rect4549"
     inkscape:connector-curvature="0"
     sodipodi:nodetypes="sssssscsssscs" />
  <path
     style="fill:url(#linearGradient829-3);fill-opacity:1;stroke:none;stroke-width:0.10207408;stroke-miterlimit:4;stroke-dasharray:none;stroke-opacity:1"
     d="m 27.903679,5.8122061 c 1.168734,-7.697e-4 2.109629,0.9803287 2.109629,2.198048 V 26.358862 c 0,1.217718 -0.940895,2.198047 -2.109629,2.198047 H 4.0963205 c -1.168735,0 -2.109682,-0.980329 -2.10963,-2.198047 L 1.9874215,9.4335189 2.1003805,4.9727666 C 2.1251105,3.9960048 2.7431305,3.442909 3.6809265,3.442909 H 12.65952 c 0.937797,0 1.827453,0.1374586 2.524344,0.7912999 l 1.689637,1.5852625 z"
     id="rect4549-9"
     inkscape:connector-curvature="0"
     sodipodi:nodetypes="sssssscsssscs" />
  <path
     inkscape:connector-curvature="0"
     style="fill:#cce8f8;fill-opacity:1;stroke:none;stroke-width:0.01566048"
     d="m 15.991935,12.005248 c -0.677942,0 -1.322058,0.133397 -1.94096,0.398872 -1.229192,0.527214 -2.129042,1.420876 -2.657113,2.652103 C 11.1292,15.673083 11,16.319245 11,16.997185 c 0,0.678107 0.129121,1.329101 0.393862,1.94598 0.528149,1.231225 1.428079,2.129829 2.657113,2.657122 C 14.669877,21.865763 15.313993,22 15.991935,22 c 0.677942,0 1.327539,-0.135651 1.94691,-0.399713 1.239372,-0.528677 2.134993,-1.428111 2.662282,-2.657122 C 20.866588,18.324244 21,17.675209 21,16.997185 c 0,-0.67794 -0.133288,-1.322061 -0.398873,-1.940962 -0.527226,-1.22919 -1.42291,-2.123403 -2.662282,-2.652103 -0.619482,-0.264209 -1.268811,-0.398872 -1.94691,-0.398872 m 0,2.157389 c 0.169494,0 0.317406,0.136888 0.317406,0.306364 v 2.832064 l 1.530968,1.542057 c 0.117455,0.118287 0.125754,0.300381 0,0.425956 -0.10931,0.109416 -0.31155,0.109416 -0.420937,0 L 15.783948,17.6346 c -0.06555,-0.06564 -0.09244,-0.14765 -0.08147,-0.246112 0,-0.01624 -0.01104,-0.0379 -0.01104,-0.04328 v -2.876212 c 0,-0.169476 0.141884,-0.306364 0.300368,-0.306364"
     id="path20" />
</svg>
