<svg xmlns="http://www.w3.org/2000/svg" xmlns:xlink="http://www.w3.org/1999/xlink" version="1" height="32" width="32"><defs><linearGradient id="a"><stop offset="0" stop-color="#2a88ae"/><stop offset="1" stop-color="#71b9d9"/></linearGradient><linearGradient id="b"><stop offset="0" stop-color="#8998ad"/><stop offset="1" stop-color="#ceeaf2"/></linearGradient><linearGradient gradientTransform="matrix(1.84713 0 0 1.84713 -1.697 -28.434)" gradientUnits="userSpaceOnUse" y2="10.718" x2="-5.597" y1="22.201" x1="-5.667" id="d" xlink:href="#a"/><linearGradient gradientTransform="matrix(1.22723 0 0 1.49985 17.688 -21.176)" gradientUnits="userSpaceOnUse" y2="7.458" x2="-13.153" y1="21.288" x1="-34.169" id="c" xlink:href="#b"/></defs><g transform="matrix(1 0 0 1.03528 28.578 14.98)"><path d="M-8.585-12.404c-2.391 0-3.167 1.885-4.395 3.768H-24.44c-1.739 0-3.139 1.4-3.139 3.139V9.57c.008.175.045.344.08.51.149.868.643 1.609 1.373 2.08.348.224.75.387 1.178.47.213.044.4.08.628.08H-.696c.228 0 .415-.034.628-.08a3.352 3.352 0 0 0 1.177-.47 3.082 3.082 0 0 0 1.373-2.08c.034-.166.07-.336.08-.51V-9.107c0-1.836-1.443-3.297-3.258-3.297h-7.887z" fill="#2a88ae" stroke="#71b9d9" stroke-width=".098"/><rect ry="1.676" transform="rotate(.008) skewX(.002)" y="-9.991" x="-24.146" height="20.744" width="25.793" opacity=".647" fill="#4b6e7c" paint-order="markers stroke fill"/><rect ry="1.676" transform="rotate(.008) skewX(.002)" y="-9.991" x="-24.246" height="20.744" width="25.793" fill="url(#c)" paint-order="markers stroke fill"/><path d="M-16.431-12.404c2.39 0 3.166 1.885 4.394 3.768H-.578c1.739 0 3.139 1.4 3.139 3.139V9.57c-.008.175-.045.344-.08.51a3.078 3.078 0 0 1-1.373 2.08c-.348.224-.75.387-1.178.47-.213.044-.4.08-.628.08H-24.32c-.227 0-.414-.034-.628-.08a3.352 3.352 0 0 1-1.176-.47 3.082 3.082 0 0 1-1.374-2.08c-.034-.166-.07-.336-.08-.51V-9.107c0-1.836 1.444-3.297 3.258-3.297h7.887z" fill="url(#d)" stroke="#71b9d9" stroke-width=".098"/><path d="M-8.576-5.245c-2.54 0-3.015 3.726-1.586 3.726 1.428 0 4.126-3.726 1.586-3.726zm-3.911.574a1.005 1.005 0 0 0-.128.007c-1.44.176-.933 2.528-.167 2.572.74.043 1.553-2.576.294-2.58zm-2.495.868a.684.684 0 0 0-.294.053c-1.156.459-.175 2.353.472 2.226.588-.116.672-2.226-.178-2.28zm-1.887 1.547a.531.531 0 0 0-.325.115c-.926.668.31 2.28.856 2.03.476-.22.172-2.12-.532-2.144zm5.467 1.54c-2.006-.034-4.652.95-5.103 2.926-.49 2.136 2.012 5.102 4.62 5.102 1.284 0 2.764-1.133 3.04-2.568.213-1.094-2.488-.656-2.391.068.116.868-.651 1.297-1.403.738-2.394-1.781 3.963-2.67 3.543-5.103-.13-.757-1.103-1.143-2.306-1.163z" opacity=".647" fill="#4b6e7c"/><path d="M-8.676-5.342c-2.54 0-3.015 3.727-1.586 3.727 1.428 0 4.126-3.727 1.586-3.727zm-3.911.574a1.005 1.005 0 0 0-.128.008c-1.44.175-.933 2.527-.167 2.57.74.044 1.553-2.574.294-2.578zm-2.495.868a.684.684 0 0 0-.294.053c-1.156.46-.175 2.353.472 2.226.588-.116.672-2.226-.178-2.279zm-1.887 1.548a.531.531 0 0 0-.325.115c-.926.667.31 2.28.856 2.03.476-.22.172-2.12-.532-2.144zm5.467 1.54c-2.006-.034-4.652.949-5.103 2.925-.49 2.137 2.012 5.102 4.62 5.102 1.284 0 2.764-1.133 3.04-2.567.213-1.095-2.488-.656-2.391.067.116.869-.651 1.298-1.403.738-2.394-1.78 3.963-2.67 3.543-5.103-.13-.757-1.103-1.142-2.306-1.163z" fill="#cce8f8"/></g></svg>