<svg xmlns="http://www.w3.org/2000/svg" xmlns:xlink="http://www.w3.org/1999/xlink" height="32" width="32"><defs><linearGradient id="a"><stop offset="0" stop-color="#2a88ae"/><stop offset="1" stop-color="#71b9d9"/></linearGradient><linearGradient gradientUnits="userSpaceOnUse" y2="3.525" x2="16.59" y1="28.475" x1="16.766" id="b" xlink:href="#a"/></defs><g transform="translate(0 -.43)"><rect width="28.027" height="25.14" x="1.986" y="3.43" ry="2.373" rx="2.373" fill="url(#b)" fill-rule="evenodd" stroke="#71b9d9" stroke-width=".1" stroke-linecap="round" stroke-linejoin="bevel"/><path d="M10.448 23.731a1.53 1.53 0 0 0-1.533 1.534v1.822c0 .85.684 1.533 1.533 1.533h1.823a1.53 1.53 0 0 0 1.535-1.533v-1.822a1.53 1.53 0 0 0-1.535-1.534zm5.747 1.246a1.14 1.14 0 0 0-1.143 1.143v1.357c0 .634.51 1.143 1.143 1.143h1.357a1.14 1.14 0 0 0 1.143-1.143V26.12a1.14 1.14 0 0 0-1.143-1.143zm4.49 0a1.14 1.14 0 0 0-1.143 1.143v1.357c0 .634.51 1.143 1.143 1.143h1.357a1.14 1.14 0 0 0 1.143-1.143V26.12a1.14 1.14 0 0 0-1.143-1.143z" opacity=".647" fill="#4b6e7c"/><path d="M10.348 23.631a1.53 1.53 0 0 0-1.533 1.534v1.822c0 .85.684 1.533 1.533 1.533h1.823a1.53 1.53 0 0 0 1.535-1.533v-1.822a1.53 1.53 0 0 0-1.535-1.534zm5.747 1.246a1.14 1.14 0 0 0-1.143 1.143v1.357c0 .634.51 1.143 1.143 1.143h1.357a1.14 1.14 0 0 0 1.143-1.143V26.02a1.14 1.14 0 0 0-1.143-1.143zm4.49 0a1.14 1.14 0 0 0-1.143 1.143v1.357c0 .634.51 1.143 1.143 1.143h1.357a1.14 1.14 0 0 0 1.143-1.143V26.02a1.14 1.14 0 0 0-1.143-1.143z" fill="#cce8f8"/></g></svg>