<svg xmlns="http://www.w3.org/2000/svg" height="32" width="32" version="1"><rect width="28.203" height="28.203" x="1.898" y="1.898" ry="5.575" fill="#db3c30" fill-rule="evenodd"/><g fill="#fff"><path d="M16.113 7.964c2.003 0 3.626 1.705 3.626 3.807s-1.623 3.806-3.626 3.806c-2.002 0-3.626-1.704-3.626-3.806 0-2.102 1.624-3.807 3.626-3.807zM16.113 17.692c7.252-.003 7.252 5.076 7.252 5.076v1.268H8.862v-1.268s0-5.072 7.252-5.077z"/></g><path d="M25.284 16.359a3.07 3.07 0 0 0-3.07-3.071 3.07 3.07 0 0 0-3.071 3.07 3.07 3.07 0 0 0 1.919 2.845v1.762H19.91v1.919h1.152v1.152h2.303v-4.832a3.07 3.07 0 0 0 1.92-2.845zm-1.919 0a1.152 1.152 0 0 1-1.151 1.151 1.152 1.152 0 0 1-1.152-1.151 1.152 1.152 0 0 1 1.152-1.152 1.152 1.152 0 0 1 1.151 1.152z" fill="#a20d0f"/></svg>