<svg xmlns="http://www.w3.org/2000/svg" width="32" height="32" version="1"><rect width="28.203" height="28.203" x="1.898" y="1.898" ry="5.575" fill="#8e8e8e" fill-rule="evenodd"/><g transform="translate(41.846 .864)" fill="#666"><rect ry="2.278" y="6.875" x="-37.421" height="15.565" width="23.149"/><rect rx="1.058" ry="1.058" y="23.073" x="-37.421" height="2.115" width="23.149"/></g><path d="M14.072 9.875a.09.09 0 0 0-.074.014c-.044.029-.053.093-.018.14l.566.809c-.9.41-1.534 1.37-1.614 2.28h6.136c-.08-.91-.71-1.87-1.61-2.28l.566-.809c.034-.047.024-.11-.019-.14-.045-.03-.108-.015-.142.033l-.587.839a3.523 3.523 0 0 0-1.274-.235c-.454 0-.886.084-1.274.235l-.59-.84a.117.117 0 0 0-.066-.046zm.635 1.745c.189 0 .34.15.34.332a.338.338 0 0 1-.34.334.337.337 0 0 1-.34-.334c0-.183.152-.332.34-.332zm2.63 0c.187 0 .34.15.34.332a.338.338 0 0 1-.34.334.337.337 0 0 1-.34-.334c0-.183.152-.332.34-.332zm-4.404 2.375V18.2c0 .302.14.617.439.617h1.313v1.48c0 .393 0 .711.438.711.439 0 .44-.318.44-.712v-1.48h.877v1.48c0 .394-.034.712.437.712.438 0 .438-.218.438-.712v-1.48h1.318c.297 0 .439-.315.439-.616v-4.205zm-1.296.002c-.458-.001-.459.33-.459.74v2.023c0 .41 0 .745.46.743.417 0 .417-.334.417-.743v-2.024c0-.409 0-.74-.418-.74zm8.728 0c-.42-.001-.42.33-.42.74v2.023c0 .41 0 .745.42.743.457 0 .457-.334.457-.743v-2.024c0-.409 0-.74-.457-.74z" fill="#a4ca39"/></svg>