<svg xmlns="http://www.w3.org/2000/svg" width="32" height="32" version="1"><g transform="translate(36.61 -2.847)"><rect ry="5.575" y="4.746" x="-34.712" height="28.203" width="28.203" fill="#3fb7ff" fill-rule="evenodd"/><path d="M-20.61 8.034c-5.972 0-10.814 4.841-10.814 10.813 0 5.973 4.842 10.814 10.814 10.814S-9.797 24.82-9.797 18.847c0-5.972-4.841-10.813-10.813-10.813zm-1.012 2.156c.118-.012.266.007.385 0 .014.057-.084.258-.218.552-.854 1.866-.905 4.052-.112 5.22.144.212.275.414.275.44 0 .026-.155.055-.33.055-.41 0-.8-.25-1.594-.879-.353-.28-.811-.514-.989-.55-.279-.055-.353-.03-.714.33-.336.336-.439.519-.439.826 0 1.166 1.385 2.09 3.958 2.636 3.494.74 4.354 1.405 4.45 3.242.121 2.304-1.104 4.04-3.791 5.386-.32.16-.525.224-.66.276-.059-.005-.106.006-.166 0-.023-.07-.055-.236-.055-.549 0-1.224-.481-2.485-1.208-3.189-.195-.19-.74-.589-1.208-.879-.468-.29-.94-.625-1.045-.768-.175-.239-.187-.384-.053-.824.244-.804.533-1.254 1.098-1.761.296-.267.593-.487.659-.493.066-.005-.378-.14-1.043-.276a18.789 18.789 0 0 1-2.146-.604c-.921-.333-2.164-1.034-2.638-1.54-.02-.021-.038-.036-.055-.055a8.838 8.838 0 0 1 5.111-5.99 8.627 8.627 0 0 1 1.65-.494c.286-.058.582-.082.878-.112zm8.246 4.123c.206.128.987 1.817 1.21 2.64.287 1.063.266 2.9 0 3.956-.102.402-.234.777-.277.823-.043.047-.202-.22-.386-.547-.185-.327-.771-1.022-1.261-1.54-1.415-1.492-1.638-2.27-1.046-3.46.299-.601 1.6-1.97 1.76-1.872z" fill="#fff"/><g transform="matrix(.85714 0 0 .85714 21.67 4.893)" stroke-width=".667"><circle cx="-42.525" cy="23.458" r="7" fill="#db3c30"/><path d="M-44.647 19.922l-1.414 1.415 2.122 2.12-2.122 2.122 1.414 1.414 2.122-2.121 2.12 2.12 1.415-1.413-2.121-2.121 2.12-2.121-1.413-1.415-2.121 2.122z" fill="#fff"/></g></g></svg>