<svg xmlns="http://www.w3.org/2000/svg" width="32" height="32" version="1"><rect width="28.203" height="28.203" x="1.898" y="1.898" ry="5.575" fill="#3fb7ff" fill-rule="evenodd"/><path d="M16 5.186C10.028 5.186 5.186 10.028 5.186 16S10.028 26.814 16 26.814 26.814 21.972 26.814 16 21.972 5.186 16 5.186zm-1.012 2.157c.118-.013.266.007.385 0 .014.056-.084.258-.218.551-.854 1.867-.905 4.052-.112 5.221.144.212.275.413.275.44 0 .025-.155.054-.33.054-.41 0-.8-.25-1.594-.878-.353-.28-.81-.514-.989-.55-.279-.055-.352-.031-.714.33-.335.336-.439.518-.439.826 0 1.166 1.385 2.09 3.958 2.636 3.494.74 4.354 1.404 4.45 3.241.121 2.304-1.104 4.041-3.79 5.386-.322.16-.525.225-.66.277-.06-.005-.107.005-.167 0-.023-.071-.055-.236-.055-.55 0-1.223-.48-2.484-1.208-3.188-.195-.19-.74-.59-1.208-.88-.468-.289-.94-.624-1.045-.768-.175-.238-.187-.384-.053-.824.244-.803.533-1.253 1.098-1.76.296-.267.594-.488.66-.493.065-.005-.378-.14-1.044-.277a18.789 18.789 0 0 1-2.146-.604c-.92-.333-2.164-1.033-2.638-1.54l-.055-.054a8.838 8.838 0 0 1 5.111-5.99 8.627 8.627 0 0 1 1.65-.494c.286-.059.582-.082.878-.112zm8.246 4.122c.206.128.987 1.817 1.21 2.64.287 1.063.267 2.9 0 3.956-.102.402-.234.777-.277.824-.043.047-.202-.22-.386-.547-.185-.327-.771-1.023-1.261-1.54-1.414-1.492-1.638-2.27-1.046-3.461.3-.6 1.6-1.97 1.76-1.872z" fill="#fff"/></svg>