<svg xmlns="http://www.w3.org/2000/svg" width="32" height="32"><g transform="translate(.225 31.008)"><rect ry="5.575" y="-29.109" x="1.674" height="28.203" width="28.203" fill="#3fb7ff" fill-rule="evenodd"/><path d="M15.14-25.855v2.082a9.152 9.152 0 0 0-7.417 5.584 9.153 9.153 0 0 0 1.982 9.968 9.154 9.154 0 0 0 9.969 1.985 9.158 9.158 0 0 0 5.648-8.453 1.102 1.102 0 0 0-2.203 0 6.94 6.94 0 0 1-4.287 6.418 6.94 6.94 0 0 1-7.57-1.506 6.94 6.94 0 0 1-1.506-7.57 6.937 6.937 0 0 1 5.385-4.21v2.713l6.074-3.508z" style="line-height:normal;font-variant-ligatures:normal;font-variant-position:normal;font-variant-caps:normal;font-variant-numeric:normal;font-variant-alternates:normal;font-feature-settings:normal;text-indent:0;text-align:start;text-decoration-line:none;text-decoration-style:solid;text-decoration-color:#000;text-transform:none;text-orientation:mixed;white-space:normal;shape-padding:0;isolation:auto;mix-blend-mode:normal;solid-color:#000;solid-opacity:1" color="#000" font-weight="400" font-family="sans-serif" overflow="visible" fill="#fff"/></g></svg>