<svg xmlns="http://www.w3.org/2000/svg" width="32" height="32" version="1"><rect width="28.203" height="28.203" x="1.898" y="1.898" ry="5.575" fill="#4bae4f" fill-rule="evenodd"/><path d="M12.854 23.935c-.069-.037-.488-.432-.932-.876l-.806-.81-.27.264a2.63 2.63 0 0 1-.469.366c-.179.094-.23.103-.557.104-.334 0-.376-.008-.6-.118a1.345 1.345 0 0 1-.644-.69 1.519 1.519 0 0 1 .005-.987c.078-.206.221-.355 3.403-3.54l3.321-3.327-.128-.3a4.342 4.342 0 0 1 .396-4.118 5.024 5.024 0 0 1 1.132-1.147c1.966-1.343 4.677-.855 6.014 1.082a4.338 4.338 0 0 1-1.931 6.511c-1.022.422-2.309.408-3.332-.035l-.286-.124-1.386 1.386-1.386 1.387.811.808c.51.508.837.86.879.95a.675.675 0 0 1 .014.55c-.068.164-2.447 2.563-2.645 2.666a.713.713 0 0 1-.603-.002zm6.731-9.993c.56-.15.98-.546 1.168-1.102.064-.192.075-.292.064-.593-.012-.333-.024-.385-.147-.634-.47-.951-1.627-1.246-2.483-.632a1.685 1.685 0 0 0-.498 2.122c.204.382.635.725 1.052.84.217.058.624.058.844 0z" fill="#fff"/></svg>