<svg xmlns="http://www.w3.org/2000/svg" width="32" height="32"><g transform="translate(-31.392 32.348)"><rect ry="5.575" y="-30.384" x="33.225" height="28.203" width="28.203" fill="#3fb7ff" fill-rule="evenodd"/><path d="M53.016-22.156a8.047 8.047 0 0 1 1.745 8.77 8.047 8.047 0 0 1-7.435 4.968 8.047 8.047 0 0 1-7.434-4.968 8.047 8.047 0 0 1 1.744-8.77" fill="none" stroke="#fff" stroke-width="2.202" stroke-linecap="round"/><path style="line-height:normal;font-variant-ligatures:normal;font-variant-position:normal;font-variant-caps:normal;font-variant-numeric:normal;font-variant-alternates:normal;font-feature-settings:normal;text-indent:0;text-align:start;text-decoration-line:none;text-decoration-style:solid;text-decoration-color:#000;text-transform:none;text-orientation:mixed;white-space:normal;shape-padding:0;isolation:auto;mix-blend-mode:normal;solid-color:#000;solid-opacity:1" d="M47.305-25.247a1.4 1.4 0 0 0-1.379 1.42v7.369a1.4 1.4 0 1 0 2.8 0v-7.37a1.4 1.4 0 0 0-1.421-1.42z" color="#000" font-weight="400" font-family="sans-serif" overflow="visible" fill="#fff"/></g></svg>