<svg xmlns="http://www.w3.org/2000/svg" width="32" height="32"><g transform="translate(-127.891 34.035)"><rect ry="5.575" y="-32.137" x="129.79" height="28.203" width="28.203" fill="#3fb7ff" fill-rule="evenodd"/><path d="M143.891-27.035c-2.82 0-5 2.293-5 5.143v1.857h-1.109c-.493 0-.89.473-.89.97v9.13c0 .498.397.9.89.9H150a.894.894 0 0 0 .891-.9v-9.129c0-.498-.399-1.003-.89-.97h-1.11v-1.858c0-2.85-2.18-5.143-5-5.143zm0 2c1.763 0 3 1.362 3 3.143v1.857h-6v-1.857c0-1.781 1.237-3.143 3-3.143z" fill="#fff"/></g></svg>