<svg xmlns="http://www.w3.org/2000/svg" width="32" height="32" version="1"><rect width="28.203" height="28.203" x="1.898" y="1.898" ry="5.575" fill="#8e8e8e" fill-rule="evenodd"/><rect width="23.149" height="16.908" x="4.426" y="7.546" ry="2.475" fill="#4d4d4d"/><path d="M13.8 9.652a.103.103 0 0 0-.083.016c-.051.033-.06.105-.022.16l.647.922c-1.028.469-1.75 1.562-1.842 2.601h7c-.092-1.038-.811-2.134-1.838-2.601l.647-.922c.039-.055.027-.125-.022-.16-.05-.035-.123-.018-.162.037l-.67.957a4.019 4.019 0 0 0-1.453-.268c-.518 0-1.01.096-1.453.268l-.672-.957a.134.134 0 0 0-.076-.053zm.725 1.99c.215 0 .387.17.387.38 0 .208-.174.38-.387.38a.384.384 0 0 1-.388-.38c0-.21.174-.38.388-.38zm3 0c.213 0 .387.17.387.38 0 .208-.174.38-.387.38a.384.384 0 0 1-.388-.38c0-.21.174-.38.388-.38zm-5.023 2.71v4.796c0 .344.16.703.5.703H14.5v1.688c0 .449 0 .812.5.812s.502-.363.502-.812V19.85h1v1.688c0 .449-.04.812.498.812.5 0 .5-.25.5-.812V19.85h1.504c.338 0 .5-.36.5-.703V14.35zm-1.479.001c-.522-.001-.523.377-.523.844v2.308c0 .467 0 .85.523.848.478-.001.477-.381.477-.848v-2.308c0-.467 0-.845-.477-.844zm9.956 0c-.479-.001-.479.377-.479.844v2.308c0 .467 0 .85.479.848.521-.001.521-.381.521-.848v-2.308c0-.467 0-.845-.521-.844z" fill="#a4ca39"/></svg>