<svg xmlns="http://www.w3.org/2000/svg" xmlns:xlink="http://www.w3.org/1999/xlink" viewBox="0 0 256 256" id="svg2" version="1.1"><defs id="defs4"><linearGradient xlink:href="#linearGradient4273-5" id="linearGradient6588" gradientUnits="userSpaceOnUse" gradientTransform="matrix(.66667 0 0 .7 128.19 165.14)" x1="434.571" y1="543.798" x2="384.571" y2="503.798"/><linearGradient id="linearGradient4273-5"><stop id="stop4275" offset="0" stop-color="#343b40" stop-opacity="1"/><stop id="stop4277" offset="1" stop-color="#555e63" stop-opacity="1"/></linearGradient><linearGradient xlink:href="#linearGradient4152-0" id="linearGradient6590" gradientUnits="userSpaceOnUse" gradientTransform="matrix(.66667 0 0 .7 384.571 514.998)" x1="24" y1="44" x2="24" y2="4"/><linearGradient id="linearGradient4152-0"><stop offset="0" id="stop4154-0" stop-color="#bd8d48" stop-opacity="1"/><stop offset="1" id="stop4156-8" stop-color="#e8b971" stop-opacity="1"/></linearGradient><linearGradient xlink:href="#linearGradient4232" id="linearGradient6453" gradientUnits="userSpaceOnUse" x1="399.571" y1="545.798" x2="399.571" y2="517.798"/><linearGradient id="linearGradient4232"><stop offset="0" id="stop4234-0" stop-color="#3889e9" stop-opacity="1"/><stop offset="1" id="stop4236" stop-color="#5ea5fb" stop-opacity="1"/></linearGradient><linearGradient gradientTransform="translate(-384.571 -515.798)" gradientUnits="userSpaceOnUse" y2="538.798" x2="405.571" y1="527.798" x1="394.571" id="linearGradient4275" xlink:href="#linearGradient4227-0-8"/><linearGradient id="linearGradient4227-0-8"><stop id="stop4229-3-3" offset="0" stop-color="#292c2f" stop-opacity="1"/><stop id="stop4231-90-8" offset="1" stop-color="#000" stop-opacity="0"/></linearGradient><linearGradient gradientUnits="userSpaceOnUse" y2="537.798" x2="407.571" y1="515.798" x1="384.571" id="linearGradient4182" xlink:href="#linearGradient4176"/><linearGradient id="linearGradient4176"><stop id="stop4178" offset="0" class="ColorScheme-ViewBackground" stop-color="currentColor" stop-opacity=".261"/><stop id="stop4180" offset="1" stop-color="#5ea5fb" stop-opacity="0"/></linearGradient><linearGradient gradientUnits="userSpaceOnUse" y2="527.798" x2="402.571" y1="524.798" x1="399.571" id="linearGradient4263" xlink:href="#linearGradient4227-0-8"/><linearGradient gradientUnits="userSpaceOnUse" y2="8" x2="17" y1="23" x1="17" id="linearGradient4291" xlink:href="#linearGradient4256"/><linearGradient id="linearGradient4256"><stop offset="0" id="stop4258" stop-color="#8cbdf8" stop-opacity="1"/><stop offset="1" id="stop4260" stop-color="#d5e8ff" stop-opacity="1"/></linearGradient><linearGradient gradientUnits="userSpaceOnUse" y2="517.798" x2="400.571" y1="541.798" x1="400.571" id="linearGradient4343" xlink:href="#linearGradient4391"/><linearGradient id="linearGradient4391"><stop offset="0" id="stop4393" stop-color="#131011" stop-opacity="1"/><stop id="stop4171" offset=".108" stop-color="#8d9e74" stop-opacity="1"/><stop id="stop4172" offset=".217" stop-color="#d5c6ae" stop-opacity="1"/><stop id="stop4170" offset=".433" stop-color="#a2bdc9" stop-opacity="1"/><stop id="stop4168" offset=".867" stop-color="#0058e2" stop-opacity="1"/><stop offset="1" id="stop4395" stop-color="#0030a0" stop-opacity="1"/></linearGradient><linearGradient gradientTransform="translate(0 -8)" gradientUnits="userSpaceOnUse" y2="539.798" x2="400.571" y1="545.798" x1="400.571" id="linearGradient4223" xlink:href="#linearGradient4159"/><linearGradient id="linearGradient4159"><stop offset="0" id="stop4161" stop-color="#2a2c2f" stop-opacity="1"/><stop offset="1" id="stop4163" stop-color="#424649" stop-opacity="1"/></linearGradient><linearGradient gradientTransform="translate(-384.571 -517.798)" gradientUnits="userSpaceOnUse" y2="538.798" x2="407.571" y1="524.798" x1="393.571" id="linearGradient4220" xlink:href="#linearGradient4227-0-8"/><linearGradient gradientTransform="translate(0 2)" gradientUnits="userSpaceOnUse" y2="-523.798" x2="400.571" y1="-533.798" x1="400.571" id="linearGradient4235" xlink:href="#linearGradient4159"/><linearGradient xlink:href="#linearGradient4159" id="linearGradient4338" x1="401.571" y1="538.798" x2="401.571" y2="519.798" gradientUnits="userSpaceOnUse" gradientTransform="matrix(1 0 0 1.21053 -3 -111.432)"/><linearGradient xlink:href="#linearGradient4303-6" id="linearGradient4346" x1="400.571" y1="542.798" x2="400.571" y2="538.798" gradientUnits="userSpaceOnUse" gradientTransform="translate(0 2)"/><linearGradient id="linearGradient4303-6"><stop id="stop4305-2" offset="0" stop-color="#c6cdd1" stop-opacity="1"/><stop id="stop4307-2" offset="1" stop-color="#e0e5e7" stop-opacity="1"/></linearGradient><linearGradient y2="517.798" x2="399.571" y1="545.798" x1="399.571" gradientUnits="userSpaceOnUse" id="linearGradient4229-2" xlink:href="#linearGradient4143-0"/><linearGradient id="linearGradient4143-0"><stop id="stop4145-6" offset="0" stop-color="#197cf1" stop-opacity="1"/><stop id="stop4147-6" offset="1" stop-color="#20bcfa" stop-opacity="1"/></linearGradient><linearGradient xlink:href="#linearGradient4290-8" id="linearGradient6586" gradientUnits="userSpaceOnUse" gradientTransform="translate(383.714 514.99) scale(1.05012)" x1="16" y1="30" x2="16" y2="2"/><linearGradient id="linearGradient4290-8"><stop id="stop4292" offset="0" stop-color="#7cbaf8" stop-opacity="1"/><stop id="stop4294-7" offset="1" stop-color="#f4fcff" stop-opacity="1"/></linearGradient><linearGradient xlink:href="#linearGradient4232" id="linearGradient4337" gradientUnits="userSpaceOnUse" x1="399.571" y1="545.798" x2="399.571" y2="517.798"/><linearGradient xlink:href="#linearGradient4232" id="linearGradient4339" gradientUnits="userSpaceOnUse" x1="399.571" y1="545.798" x2="399.571" y2="517.798"/><style id="current-color-scheme" type="text/css">.ColorScheme-Text{color:#4d4d4d}.ColorScheme-ViewBackground{color:#fcfcfc}</style></defs><path d="M16 10h224c3.324 0 6 2.676 6 6v224c0 3.324-2.676 6-6 6H16c-3.324 0-6-2.676-6-6V16c0-3.324 2.676-6 6-6z" id="rect4240" fill="currentColor" fill-opacity=".5" stroke="none" color="#31363b"/><path d="M16 12h224c2.216 0 4 1.784 4 4v224c0 2.216-1.784 4-4 4H16c-2.216 0-4-1.784-4-4V16c0-2.216 1.784-4 4-4z" id="rect4238" fill="currentColor" fill-opacity="1" stroke="none" color="#eff0f1"/><path class="ColorScheme-Text" d="M25.594 26.734L21.35 38.318h1.427l1.358-3.728h4.435l1.364 3.728h1.38l-4.236-11.584h-1.484zm21.361 0a.865.865 0 0 0-.627.239.798.798 0 0 0-.238.601c0 .249.08.453.238.612a.865.865 0 0 0 .627.238.85.85 0 0 0 .617-.238.814.814 0 0 0 .246-.612.784.784 0 0 0-.246-.601.833.833 0 0 0-.617-.239zm12.504 0a.865.865 0 0 0-.627.239.798.798 0 0 0-.238.601c0 .249.08.453.238.612a.865.865 0 0 0 .627.238.86.86 0 0 0 .62-.238.814.814 0 0 0 .245-.612.784.784 0 0 0-.246-.601.838.838 0 0 0-.619-.239zm9.775 0a.865.865 0 0 0-.627.239.798.798 0 0 0-.238.601c0 .249.08.453.238.612a.865.865 0 0 0 .627.238c.249 0 .456-.08.62-.238a.814.814 0 0 0 .246-.612.784.784 0 0 0-.246-.601.838.838 0 0 0-.62-.239zm-27.207.89l-1.056.077-.213 2.223-1.293.088-.033.744h1.295v5.047c0 .513.044.928.134 1.246.09.317.25.579.483.785.238.206.546.35.922.43.375.079.866.119 1.474.119h.55l.062-.906-.666-.032c-.704-.026-1.157-.136-1.358-.332-.2-.2-.3-.638-.3-1.31v-5.047h2.22v-.832h-2.22v-2.3zm22.28 0l-1.055.077-.215 2.223-1.293.088-.031.744h1.293v5.047c0 .513.045.928.135 1.246.09.317.251.579.484.785.238.206.544.35.92.43.375.079.868.119 1.476.119h.547l.065-.906-.668-.032c-.704-.026-1.155-.136-1.356-.332-.2-.2-.302-.638-.302-1.31v-5.047h2.222v-.832h-2.222v-2.3zm-37.96.476l1.905 5.521h-3.793l1.889-5.521zm9.99 1.65c-1.168 0-2.117.393-2.847 1.182-.73.783-1.095 1.858-1.095 3.228 0 1.312.353 2.36 1.062 3.143.714.783 1.672 1.174 2.873 1.174a4.8 4.8 0 0 0 1.38-.182c.408-.122.702-.254.882-.397l-.246-.896a3.49 3.49 0 0 1-1.77.459c-.926 0-1.63-.304-2.111-.912-.482-.608-.723-1.405-.723-2.389 0-1.037.252-1.86.754-2.474.503-.614 1.17-.92 2-.92.656 0 1.24.152 1.754.459l.373-.905c-.18-.121-.471-.246-.873-.373-.397-.132-.867-.197-1.412-.197zm39.364 0c-1.11 0-2.027.399-2.746 1.197-.72.799-1.078 1.87-1.078 3.213 0 1.328.368 2.38 1.103 3.158.736.773 1.692 1.159 2.872 1.159 1.058 0 2.001-.247 2.832-.739l-.278-.927a8.06 8.06 0 0 1-1.205.5c-.36.11-.76.166-1.199.166-.81 0-1.464-.257-1.967-.77-.502-.518-.776-1.31-.818-2.379h5.674l.048-.668c0-1.227-.278-2.183-.834-2.87-.55-.694-1.351-1.04-2.404-1.04zm7.602 0c-.878 0-1.56.212-2.047.635-.487.418-.73.968-.73 1.65 0 .55.139.999.42 1.348.28.344.8.637 1.556.88l.92.294c.608.195 1.029.404 1.262.627.232.222.347.498.347.826 0 .476-.14.84-.42 1.094-.28.248-.674.373-1.181.373-.81 0-1.718-.24-2.723-.721v1.101c.868.413 1.744.62 2.627.62a3.98 3.98 0 0 0 1.096-.143c.338-.095.64-.237.904-.428.27-.19.481-.444.635-.761a2.56 2.56 0 0 0 .23-1.112 3.33 3.33 0 0 0-.095-.857 1.76 1.76 0 0 0-.35-.666 2.161 2.161 0 0 0-.705-.54 6.8 6.8 0 0 0-1.15-.46l-.835-.262c-.544-.175-.9-.339-1.07-.492-.17-.154-.254-.402-.254-.746 0-.408.13-.716.389-.928.264-.217.7-.326 1.309-.326.682 0 1.389.186 2.119.557l.308-.977a5.712 5.712 0 0 0-2.562-.586zm-37.008.174v8.394h1.303v-8.394h-1.303zm3.047 0l3.246 8.394h1.324l3.182-8.394h-1.34c-.275.772-.693 1.927-1.254 3.467-.555 1.539-.971 2.696-1.246 3.468-.344-.91-.842-2.248-1.492-4.015a559.873 559.873 0 0 0-1.07-2.92h-1.35zm9.459 0v8.394h1.3v-8.394h-1.3zm9.775 0v8.394h1.301v-8.394h-1.3zm7.156.832c1.333 0 2.033.906 2.096 2.715h-4.57c.074-.836.333-1.498.777-1.985.45-.486 1.015-.73 1.697-.73zM20 50v1h216v-1H20zm59.746 10.129c-.655 0-1.257.117-1.807.353a3.927 3.927 0 0 0-1.384.96 4.39 4.39 0 0 0-.868 1.458 5.297 5.297 0 0 0-.304 1.819c0 .65.09 1.253.27 1.806.182.55.446 1.03.792 1.442a3.53 3.53 0 0 0 1.319.963c.533.232 1.135.347 1.806.347a8.328 8.328 0 0 0 3.04-.548v-4.114h-2.936l-.043.854h1.984v2.693a6.254 6.254 0 0 1-1.855.262c-.574 0-1.075-.09-1.502-.27a2.528 2.528 0 0 1-1.031-.761 3.435 3.435 0 0 1-.575-1.166 5.581 5.581 0 0 1-.19-1.514c0-.708.13-1.343.386-1.904a3.094 3.094 0 0 1 1.14-1.336c.505-.334 1.098-.502 1.778-.502.138 0 .27.005.396.013.13.008.255.021.373.041s.221.04.31.057c.09.016.184.042.282.078l.238.086c.061.02.135.055.225.104a7.106 7.106 0 0 1 .52.275l.261-.807c-.663-.46-1.538-.69-2.625-.69zm36.518.049l-1 .074v7.06c0 .387.045.709.134.965.09.253.227.446.414.58.188.135.4.229.635.282.24.048.537.072.89.072h.483l.055-.695-.273-.02c-.175-.012-.313-.021-.41-.03a6.137 6.137 0 0 1-.317-.048.927.927 0 0 1-.25-.086 1.522 1.522 0 0 1-.166-.135.439.439 0 0 1-.121-.2 3.177 3.177 0 0 1-.055-.282 3.364 3.364 0 0 1-.02-.383v-7.154zm-29.32 2.392c-.855 0-1.559.308-2.112.922-.553.615-.83 1.44-.83 2.473 0 1.021.282 1.83.848 2.428.565.594 1.301.892 2.209.892.813 0 1.54-.19 2.18-.568l-.216-.715c-.341.17-.65.3-.927.385a3.102 3.102 0 0 1-.92.129c-.623 0-1.127-.197-1.514-.592-.386-.399-.596-1.01-.629-1.832h4.363l.038-.512c0-.944-.214-1.682-.641-2.21-.423-.534-1.04-.8-1.85-.8zm7.048 0c-.972 0-1.703.342-2.191 1.026l-.11-.89h-.879v6.456h1.014v-3.601c0-1.477.664-2.215 1.99-2.215.493 0 .836.148 1.032.445.195.293.293.73.293 1.313v4.058h1.011v-3.95c0-.886-.175-1.546-.529-1.982-.35-.439-.894-.66-1.63-.66zm6.38 0c-.855 0-1.559.308-2.112.922-.554.615-.83 1.44-.83 2.473 0 1.021.282 1.83.847 2.428.566.594 1.302.892 2.21.892.813 0 1.54-.19 2.179-.568l-.215-.715c-.342.17-.65.3-.928.385a3.102 3.102 0 0 1-.92.129c-.622 0-1.127-.197-1.513-.592-.387-.399-.597-1.01-.63-1.832h4.364l.037-.512c0-.944-.213-1.682-.64-2.21-.423-.534-1.04-.8-1.85-.8zm10.704 0c-.862 0-1.64.161-2.332.483l.276.744a4.359 4.359 0 0 1 1.013-.33 5.049 5.049 0 0 1 1.06-.121c.489 0 .845.115 1.07.347.227.232.34.585.34 1.057v.635h-1.03c-1.038 0-1.794.164-2.27.494-.472.325-.709.837-.709 1.537 0 .586.18 1.043.537 1.373.362.33.842.496 1.436.496.887 0 1.607-.34 2.16-1.02l.11.891h.769v-4.26c0-.821-.212-1.415-.635-1.777-.419-.366-1.018-.549-1.795-.549zm-3.869.067c-.39 0-.763.11-1.117.33-.35.215-.647.555-.89 1.02l-.112-1.282h-.81v6.457h1.013v-3.656c0-.574.179-1.06.537-1.46.362-.398.82-.597 1.373-.597.114 0 .251.017.414.05l.043-.831a2.725 2.725 0 0 0-.45-.031zm-20.24.709c1.025 0 1.562.696 1.611 2.088h-3.516c.057-.643.258-1.153.6-1.528a1.7 1.7 0 0 1 1.305-.56zm13.428 0c1.025 0 1.562.696 1.61 2.088H98.49c.057-.643.258-1.153.6-1.528a1.7 1.7 0 0 1 1.305-.56zm11.334 2.709h.775v1.424c-.484.712-1.143 1.066-1.977 1.066a1.06 1.06 0 0 1-.763-.293c-.204-.195-.305-.472-.305-.83 0-.2.018-.366.055-.5a.95.95 0 0 1 .603-.652 2.8 2.8 0 0 1 .654-.159c.265-.036.583-.056.958-.056zm48.103 40.445c-.59 0-1.033.165-1.326.494-.293.33-.44.888-.44 1.678v.41l-1.14.104-.031.53h1.171v5.817h1.014v-5.816h1.533v-.643h-1.533v-.463c0-.3.018-.543.055-.726.036-.187.098-.325.183-.414a.64.64 0 0 1 .288-.184c.101-.028.237-.043.408-.043.211 0 .42.02.623.06l.074-.7a4.911 4.911 0 0 0-.879-.104zm4.272 0c-.59 0-1.032.165-1.325.494-.293.33-.44.888-.44 1.678v.41l-1.14.104-.031.53h1.172v5.817h1.014v-5.816h1.53v-.643h-1.53v-.463c0-.3.018-.543.054-.726.037-.187.098-.325.184-.414a.634.634 0 0 1 .285-.184c.102-.028.24-.043.41-.043.212 0 .42.02.623.06l.073-.7a4.903 4.903 0 0 0-.88-.104zm-70.008.049l-1 .072v7.063c0 .386.045.708.134.964.09.253.227.444.415.579.187.134.398.228.634.28.24.05.537.075.89.075h.483l.055-.697-.273-.018c-.175-.012-.313-.021-.41-.03a6.175 6.175 0 0 1-.317-.048.929.929 0 0 1-.25-.086 1.513 1.513 0 0 1-.166-.135.44.44 0 0 1-.121-.2 3.153 3.153 0 0 1-.055-.282 3.398 3.398 0 0 1-.02-.385v-7.152zm32.709 0l-1.014.072v2.008l.049 1.47a2.59 2.59 0 0 0-.31-.456 1.962 1.962 0 0 0-.391-.36 1.625 1.625 0 0 0-.555-.258 2.879 2.879 0 0 0-.732-.084c-.855 0-1.533.304-2.034.914-.496.61-.744 1.412-.744 2.4 0 1.043.24 1.869.72 2.483.485.61 1.172.916 2.063.916.924 0 1.595-.421 2.014-1.263l.092 1.142h.842v-8.984zm-51.026.072l-.175 8.912h1.011l.086-5.5v-2.105l2.809 6.61h.92L83.256 108v2.01l.086 5.523h1.002l-.178-8.912h-1.281l-2.9 6.77-2.887-6.77h-1.319zm26.258 0a.666.666 0 0 0-.482.184.614.614 0 0 0-.184.463c0 .19.062.348.184.47a.666.666 0 0 0 .482.184c.191 0 .35-.062.477-.184a.627.627 0 0 0 .19-.47.604.604 0 0 0-.19-.463.645.645 0 0 0-.477-.184zm27.074 0a.661.661 0 0 0-.48.184.614.614 0 0 0-.184.463c0 .19.062.348.184.47a.661.661 0 0 0 .48.184.66.66 0 0 0 .477-.184.627.627 0 0 0 .19-.47.604.604 0 0 0-.19-.463.645.645 0 0 0-.477-.184zm-30.865.684l-.81.06-.166 1.71-.995.068-.025.574h.996v3.88c0 .395.034.716.104.96.069.244.194.444.373.603.183.159.418.27.707.33.289.061.667.092 1.134.092h.422l.05-.697-.515-.024c-.54-.02-.888-.105-1.042-.255-.155-.155-.233-.492-.233-1.008v-3.881h1.71v-.64h-1.71v-1.772zm49.316 0l-.81.06-.166 1.71-.994.068-.026.574h.996v3.88c0 .395.035.716.104.96.07.244.194.444.373.603.183.159.418.27.707.33.289.061.667.092 1.135.092h.422l.049-.697-.514-.024c-.541-.02-.888-.105-1.043-.255-.155-.155-.233-.492-.233-1.008v-3.881h1.71v-.64h-1.71v-1.772zm-40.277 1.636c-.826 0-1.488.362-1.988 1.086l-.117-.953h-.817v6.46h1.012v-3.938c.085-.566.274-1.02.562-1.362.293-.345.688-.517 1.184-.517.452 0 .761.168.928.506.167.333.25.894.25 1.683v3.627h1.013v-3.314c.013-.562.034-.898.067-1.008.11-.484.318-.855.623-1.111a1.574 1.574 0 0 1 1.043-.383c.175 0 .329.025.459.078a.66.66 0 0 1 .316.232c.082.106.147.215.196.325.048.105.083.245.103.42a7.34 7.34 0 0 1 .049.916v3.845h1.014v-4.164c0-1.62-.659-2.428-1.977-2.428-.936 0-1.647.438-2.13 1.313-.151-.411-.365-.733-.641-.965-.277-.232-.66-.348-1.149-.348zm10.127 0c-.854 0-1.558.308-2.111.922-.554.615-.83 1.437-.83 2.471 0 1.021.282 1.832.847 2.43.566.594 1.302.89 2.21.89.813 0 1.54-.188 2.179-.566l-.215-.715c-.342.171-.65.3-.928.385a3.106 3.106 0 0 1-.92.127c-.622 0-1.127-.197-1.513-.592-.387-.399-.597-1.008-.63-1.83h4.364l.037-.514c0-.944-.213-1.68-.64-2.209-.423-.533-1.04-.799-1.85-.799zm16.395 0c-.863 0-1.64.161-2.332.483l.273.744a4.358 4.358 0 0 1 1.014-.33 5.065 5.065 0 0 1 1.062-.121c.488 0 .845.116 1.069.347.227.232.341.583.341 1.055v.635h-1.03c-1.038 0-1.796.164-2.272.494-.472.326-.707.84-.707 1.54 0 .585.179 1.043.537 1.372.362.33.84.494 1.433.494.887 0 1.607-.34 2.16-1.02l.112.893h.767v-4.261c0-.822-.211-1.414-.634-1.776-.42-.366-1.016-.549-1.793-.549zm8.886 0c-.675 0-1.201.163-1.576.489-.374.321-.56.744-.56 1.27 0 .422.106.768.322 1.036.216.265.615.49 1.197.678l.707.225c.468.15.792.311.97.482.18.171.27.383.27.635 0 .366-.108.648-.324.844-.215.19-.517.285-.908.285-.623 0-1.32-.185-2.094-.555v.848a4.66 4.66 0 0 0 2.02.476c.305 0 .585-.036.842-.11.26-.072.493-.183.697-.33.207-.146.37-.34.488-.585.118-.248.176-.532.176-.854 0-.26-.024-.48-.072-.66a1.352 1.352 0 0 0-.27-.511 1.668 1.668 0 0 0-.543-.416 5.237 5.237 0 0 0-.885-.354l-.64-.201c-.42-.134-.694-.261-.824-.38-.13-.117-.196-.309-.196-.573 0-.314.1-.55.299-.713.203-.167.54-.25 1.008-.25.525 0 1.067.14 1.629.426l.238-.75a4.392 4.392 0 0 0-1.97-.452zm-56.629.133v3.944c0 .874.192 1.535.575 1.978.386.44.952.658 1.7.658.53 0 .948-.08 1.253-.238a2.05 2.05 0 0 0 .775-.732l.104.85h.879v-6.46h-1.014v3.627c0 .257-.018.49-.055.701-.036.212-.1.41-.19.598a1.432 1.432 0 0 1-.347.47 1.48 1.48 0 0 1-.537.3 2.317 2.317 0 0 1-.744.109c-.497 0-.853-.148-1.068-.445-.212-.297-.317-.733-.317-1.307v-4.053h-1.014zm15.467 0v6.46h1v-6.46h-1zm27.074 0v6.46h1.002v-6.46h-1.002zm22.01 0v3.944c0 .874.192 1.535.574 1.978.387.44.953.658 1.702.658.529 0 .946-.08 1.252-.238a2.05 2.05 0 0 0 .775-.732l.103.85h.88v-6.46h-1.014v3.627c0 .257-.018.49-.055.701-.037.212-.1.41-.19.598a1.446 1.446 0 0 1-.347.47 1.48 1.48 0 0 1-.537.3 2.321 2.321 0 0 1-.744.109c-.497 0-.853-.148-1.069-.445-.211-.297-.316-.733-.316-1.307v-4.053h-1.014zm-33.18.643c1.026 0 1.563.694 1.612 2.086h-3.516c.057-.643.258-1.151.6-1.526a1.7 1.7 0 0 1 1.305-.56zm6.563 0c.602 0 1.056.222 1.361.67.31.447.463 1.11.463 1.984-.004.802-.152 1.42-.445 1.856-.293.435-.77.652-1.434.652-.63 0-1.097-.232-1.398-.695-.297-.464-.445-1.1-.445-1.91 0-.814.159-1.444.476-1.887.318-.448.791-.67 1.422-.67zm10.461 2.709h.775v1.422c-.484.712-1.144 1.068-1.978 1.068-.305 0-.558-.098-.762-.293-.203-.195-.307-.472-.307-.83 0-.2.02-.366.057-.5a.95.95 0 0 1 .604-.654c.17-.07.387-.122.652-.159.264-.036.585-.054.959-.054zm-29.205 41.5l-1.002.072v7.063c0 .386.045.708.135.964.09.253.229.446.416.58.187.135.398.227.634.28.24.049.537.074.891.074h.483l.054-.695-.275-.02c-.175-.012-.31-.021-.408-.03a6.224 6.224 0 0 1-.319-.048.93.93 0 0 1-.25-.086 1.517 1.517 0 0 1-.164-.135.443.443 0 0 1-.123-.2 3.178 3.178 0 0 1-.055-.282 3.452 3.452 0 0 1-.017-.385v-7.152zm-29.602.072v8.912h2.703c1.429 0 2.552-.389 3.37-1.166.817-.777 1.226-1.882 1.226-3.314 0-.602-.076-1.145-.226-1.63a3.75 3.75 0 0 0-.641-1.251 3.63 3.63 0 0 0-1.006-.867 4.48 4.48 0 0 0-1.318-.518 7.15 7.15 0 0 0-1.582-.166h-2.526zm71.74.684l-.812.062-.164 1.71-.996.066-.023.574h.994v3.88c0 .395.034.715.103.96.07.244.194.444.373.603.183.159.42.27.71.33.288.061.666.092 1.134.092h.42l.049-.695-.512-.026c-.541-.02-.888-.105-1.043-.256-.155-.154-.232-.49-.232-1.007v-3.881h1.709v-.64h-1.71v-1.772zm-70.665.123h1.402c1.225 0 2.154.295 2.789.885.639.585.959 1.51.959 2.771 0 1.188-.3 2.09-.902 2.709-.599.614-1.492.922-2.68.922h-1.568v-7.287zm10.412 1.513c-.855 0-1.558.308-2.112.922-.553.615-.83 1.437-.83 2.471 0 1.021.282 1.832.848 2.43.566.594 1.302.89 2.209.89.814 0 1.54-.188 2.18-.566l-.215-.715c-.342.17-.651.3-.928.385a3.104 3.104 0 0 1-.92.129c-.622 0-1.127-.197-1.514-.592-.386-.399-.596-1.01-.628-1.832h4.363l.037-.512c0-.944-.213-1.682-.64-2.21-.424-.534-1.04-.8-1.85-.8zm13.11 0c-.855 0-1.559.308-2.112.922-.554.615-.83 1.437-.83 2.471 0 1.021.282 1.832.847 2.43.566.594 1.304.89 2.211.89.814 0 1.54-.188 2.178-.566l-.213-.715c-.342.17-.651.3-.928.385a3.117 3.117 0 0 1-.922.129c-.622 0-1.127-.197-1.513-.592-.387-.399-.597-1.01-.63-1.832h4.366l.035-.512c0-.944-.213-1.682-.64-2.21-.423-.534-1.04-.8-1.85-.8zm10.497 0c-.948 0-1.691.31-2.232.928-.537.615-.807 1.428-.807 2.442 0 .988.273 1.793.818 2.416.546.618 1.285.927 2.221.927.916 0 1.654-.31 2.211-.933.557-.627.836-1.43.836-2.41 0-1.014-.27-1.827-.807-2.442-.537-.618-1.284-.928-2.24-.928zm7.416 0c-.932 0-1.635.422-2.111 1.264l-.104-1.129h-.842v9.29h1.012v-2.43l-.043-1.495c.48.81 1.171 1.213 2.07 1.213.847 0 1.505-.303 1.977-.914.472-.61.71-1.417.71-2.418 0-1.041-.229-1.864-.685-2.47-.451-.607-1.113-.91-1.984-.91zm6.922 0c-.826 0-1.49.362-1.99 1.086l-.115-.95h-.819v6.456h1.014v-3.937c.085-.566.271-1.02.56-1.362.293-.345.69-.517 1.186-.517.452 0 .76.168.928.506.166.333.25.896.25 1.685v3.625h1.011v-3.314c.013-.562.036-.898.069-1.008.11-.484.318-.853.623-1.11a1.576 1.576 0 0 1 1.043-.384c.175 0 .327.025.457.078a.665.665 0 0 1 .318.232 1.345 1.345 0 0 1 .299.745 7.273 7.273 0 0 1 .049.916v3.845h1.013v-4.162c0-1.62-.66-2.43-1.978-2.43-.936 0-1.645.438-2.129 1.313-.15-.411-.366-.733-.643-.965-.276-.232-.658-.348-1.146-.348zm10.125 0c-.855 0-1.558.308-2.111.922-.554.615-.83 1.437-.83 2.471 0 1.021.282 1.832.847 2.43.566.594 1.304.89 2.211.89.814 0 1.54-.188 2.178-.566l-.213-.715c-.342.17-.651.3-.928.385a3.117 3.117 0 0 1-.922.129c-.622 0-1.127-.197-1.513-.592-.387-.399-.597-1.01-.63-1.832h4.366l.035-.512c0-.944-.213-1.682-.64-2.21-.424-.534-1.04-.8-1.85-.8zm7.05 0c-.972 0-1.702.342-2.19 1.026l-.11-.89h-.879v6.456h1.012v-3.601c0-1.477.664-2.215 1.99-2.215.492 0 .836.148 1.031.445.196.293.293.73.293 1.313v4.058h1.014v-3.949c0-.887-.177-1.549-.531-1.984-.35-.44-.893-.659-1.63-.659zm-51.74.135l2.497 6.457h1.02l2.446-6.457h-1.03c-.212.594-.534 1.482-.966 2.666a688.635 688.635 0 0 0-.957 2.668c-.264-.7-.648-1.729-1.148-3.088a382.771 382.771 0 0 0-.824-2.246H90.52zm-3.357.64c1.026 0 1.563.697 1.611 2.089h-3.515c.057-.643.258-1.153.6-1.528.345-.374.78-.56 1.304-.56zm13.111 0c1.026 0 1.563.697 1.612 2.089h-3.516c.057-.643.256-1.153.598-1.528.346-.374.782-.56 1.306-.56zm10.473 0c.663 0 1.164.238 1.502.714.338.472.506 1.103.506 1.892 0 .505-.069.946-.207 1.324a1.926 1.926 0 0 1-.672.905c-.305.224-.681.336-1.129.336-.651 0-1.146-.237-1.488-.71-.342-.471-.514-1.092-.514-1.86 0-.786.172-1.415.514-1.887.342-.476.837-.713 1.488-.713zm7.3 0c1.165 0 1.747.865 1.747 2.595 0 1.713-.602 2.57-1.807 2.57-.61 0-1.082-.235-1.416-.703-.33-.468-.496-1.125-.496-1.971.004-.781.167-1.393.488-1.832.322-.44.818-.658 1.485-.658zm17.188 0c1.026 0 1.563.697 1.612 2.089h-3.516c.057-.643.256-1.153.598-1.528.346-.374.781-.56 1.306-.56zM75.47 201.378v5.682c0 1.025.295 1.839.885 2.441.59.602 1.458.902 2.605.902.574 0 1.086-.08 1.533-.244a2.832 2.832 0 0 0 1.092-.695c.285-.301.5-.652.646-1.055.147-.403.221-.848.221-1.332v-5.699h-1.074v5.664c0 .822-.204 1.446-.611 1.873-.407.423-1.01.635-1.807.635-1.611 0-2.416-.836-2.416-2.508v-5.664H75.47zm16.217 0a.665.665 0 0 0-.483.182.619.619 0 0 0-.183.464c0 .192.061.347.183.47a.666.666 0 0 0 .483.183.66.66 0 0 0 .476-.184.623.623 0 0 0 .19-.469.608.608 0 0 0-.19-.464.644.644 0 0 0-.476-.182zm26.048 0a.66.66 0 0 0-.48.182.619.619 0 0 0-.184.464c0 .192.062.347.184.47a.661.661 0 0 0 .48.183.66.66 0 0 0 .477-.184.623.623 0 0 0 .19-.469.608.608 0 0 0-.19-.464.644.644 0 0 0-.477-.182zm3.73.684l-.812.06-.164 1.71-.996.065-.023.575h.994v3.883c0 .394.034.712.103.957.07.244.194.446.373.605.184.158.42.267.71.328.288.06.666.092 1.134.092h.42l.049-.695-.512-.024c-.54-.02-.888-.107-1.043-.258-.154-.154-.232-.489-.232-1.005v-3.883h1.709v-.64h-1.71v-1.77zm-34.21 1.634c-.973 0-1.703.342-2.192 1.026l-.109-.89h-.879v6.456h1.014v-3.601c0-1.477.664-2.215 1.99-2.215.492 0 .836.148 1.031.445.196.293.293.73.293 1.313v4.058h1.012v-3.95c0-.886-.175-1.546-.53-1.981-.35-.44-.894-.66-1.63-.66zm15.998 0c-.855 0-1.558.308-2.111.922-.554.615-.83 1.44-.83 2.473 0 1.021.282 1.83.847 2.428.566.594 1.302.892 2.21.892.813 0 1.54-.19 2.179-.568l-.215-.715c-.342.17-.651.3-.928.385a3.104 3.104 0 0 1-.92.129c-.622 0-1.127-.197-1.513-.592-.387-.399-.597-1.01-.63-1.832h4.364l.037-.512c0-.944-.213-1.682-.64-2.21-.424-.534-1.04-.8-1.85-.8zm10.314 0c-.675 0-1.2.163-1.574.489-.374.321-.562.744-.562 1.27 0 .422.108.768.324 1.036.216.265.613.49 1.195.678l.71.227c.467.15.79.311.97.482a.84.84 0 0 1 .267.635c0 .366-.106.646-.322.842-.215.19-.52.287-.91.287-.622 0-1.32-.187-2.094-.557v.85a4.669 4.669 0 0 0 2.022.476c.305 0 .585-.038.842-.111a2.19 2.19 0 0 0 .695-.328 1.51 1.51 0 0 0 .488-.586c.118-.248.178-.534.178-.856 0-.26-.025-.479-.074-.658a1.355 1.355 0 0 0-.268-.514 1.664 1.664 0 0 0-.543-.414 5.252 5.252 0 0 0-.887-.355l-.64-.201c-.42-.134-.694-.261-.824-.38-.13-.117-.196-.307-.196-.571 0-.314.102-.553.301-.715.204-.167.538-.25 1.006-.25.525 0 1.07.143 1.63.427l.237-.751a4.392 4.392 0 0 0-1.97-.452zm-3.478.067c-.39 0-.763.11-1.117.33-.35.216-.647.555-.89 1.02l-.112-1.282h-.81v6.457h1.013v-3.656c0-.574.179-1.06.537-1.46.362-.398.82-.597 1.373-.597.114 0 .251.016.414.05l.043-.831a2.763 2.763 0 0 0-.451-.031zm-18.908.068v6.457h1v-6.457h-1zm2.343 0l2.497 6.457h1.02l2.446-6.457h-1.03c-.213.594-.534 1.482-.966 2.666a779.947 779.947 0 0 0-.959 2.668c-.264-.7-.646-1.729-1.146-3.088a573.815 573.815 0 0 0-.824-2.246h-1.038zm23.706 0v6.457h1.001v-6.457h-1.001zm6.921 0l2.557 6.262-.951 2.43.908.195 3.4-8.887h-1.025l-1.844 5.156-2.013-5.156h-1.032zm-20.875.64c1.026 0 1.563.697 1.612 2.089h-3.516c.057-.643.258-1.153.6-1.528a1.7 1.7 0 0 1 1.304-.56z" id="path4963" fill="currentColor" fill-opacity="1" stroke="none"/><path class="ColorScheme-Text" d="M127.531 78.422c-.65 0-1.204.193-1.66.58-.456.382-.796.916-1.02 1.6-.22.68-.33 1.488-.33 2.423 0 .676.06 1.289.178 1.842a5.27 5.27 0 0 0 .537 1.453c.24.415.553.74.94.971.39.228.843.342 1.355.342.509 0 .954-.114 1.336-.342a2.51 2.51 0 0 0 .922-.977c.232-.419.406-.903.52-1.453.114-.549.17-1.16.17-1.836 0-.704-.06-1.335-.182-1.892-.122-.562-.303-1.045-.543-1.447a2.478 2.478 0 0 0-.922-.934c-.374-.22-.808-.33-1.3-.33zm-49.04.006c-.815 0-1.587.222-2.315.666l.33.744c.659-.378 1.31-.566 1.953-.566.472 0 .855.119 1.148.359.293.24.443.607.452 1.1v.04c0 1.05-.72 1.577-2.16 1.577h-.264v.816h.256c.297 0 .555.015.775.043.224.029.443.085.654.166.212.077.384.182.518.317.134.13.243.307.324.53.081.22.121.483.121.788 0 .553-.146.976-.44 1.27-.292.292-.7.439-1.22.439-.647 0-1.388-.214-2.227-.64v.915c.753.395 1.506.592 2.258.592.777 0 1.416-.222 1.916-.666.505-.448.763-1.084.776-1.91v-.043c0-.606-.17-1.1-.512-1.483-.338-.382-.788-.632-1.35-.75 1.083-.28 1.623-.959 1.623-2.033v-.037c-.004-.484-.128-.896-.377-1.238a2.13 2.13 0 0 0-.947-.758 3.344 3.344 0 0 0-1.293-.238zm13.14.043l-1.014.074v2.008l.049 1.47a2.6 2.6 0 0 0-.31-.457 1.97 1.97 0 0 0-.391-.36 1.63 1.63 0 0 0-.557-.257 2.87 2.87 0 0 0-.732-.086c-.855 0-1.531.306-2.031.916-.497.61-.747 1.41-.747 2.399 0 1.041.241 1.87.721 2.484.484.61 1.172.916 2.063.916.923 0 1.596-.421 2.015-1.264l.092 1.141h.842v-8.984zm92.015 0l-1.011.074v2.008l.049 1.47a2.562 2.562 0 0 0-.313-.457 1.97 1.97 0 0 0-.39-.36 1.62 1.62 0 0 0-.555-.257 2.87 2.87 0 0 0-.733-.086c-.854 0-1.532.306-2.033.916-.496.61-.744 1.41-.744 2.399 0 1.041.24 1.87.72 2.484.485.61 1.172.916 2.063.916.924 0 1.595-.421 2.014-1.264l.092 1.141h.841v-8.984zm-63.494.074c-.211.146-.53.295-.953.445a8.3 8.3 0 0 1-1.086.31v.807c.273-.036.602-.116.989-.238.39-.122.714-.254.97-.396v7.25h-2.148v.732h5.078v-.732h-1.916v-8.178h-.934zm47.852.684l-.813.06-.164 1.71-.994.066-.025.574h.994v3.883c0 .394.036.712.105.957.07.244.192.446.372.605.183.159.42.267.708.328.29.061.667.092 1.135.092h.422l.049-.695-.514-.024c-.54-.02-.888-.107-1.043-.258-.154-.154-.232-.489-.232-1.005v-3.883h1.709v-.64h-1.71v-1.77zm-40.473.017c1.294 0 1.942 1.248 1.942 3.742 0 1.258-.17 2.209-.508 2.856-.334.643-.811.965-1.434.965-.63 0-1.122-.324-1.476-.971-.35-.651-.526-1.599-.526-2.844-.004-1.192.173-2.114.532-2.765.358-.656.848-.983 1.47-.983zm-31.549 1.617c-.948 0-1.693.31-2.234.928-.537.614-.805 1.428-.805 2.441 0 .99.272 1.796.817 2.418.545.619 1.287.928 2.222.928.916 0 1.652-.31 2.21-.933.557-.627.835-1.432.835-2.413 0-1.013-.267-1.827-.804-2.44-.537-.62-1.284-.929-2.24-.929zm7.098 0c-.9 0-1.63.304-2.191.91-.562.603-.842 1.431-.842 2.485 0 1.009.273 1.814.818 2.416.55.602 1.286.904 2.21.904.394 0 .748-.047 1.062-.14.313-.094.54-.195.677-.305l-.189-.69a2.685 2.685 0 0 1-1.361.354c-.712 0-1.253-.235-1.623-.703-.37-.468-.557-1.08-.557-1.836 0-.798.194-1.432.58-1.904.387-.472.9-.71 1.54-.71.504 0 .952.12 1.347.356l.287-.697c-.138-.094-.36-.19-.67-.287a3.458 3.458 0 0 0-1.088-.153zm4.951 0c-.675 0-1.202.163-1.576.489-.374.321-.56.744-.56 1.27 0 .422.108.77.324 1.038.215.265.613.489 1.195.676l.709.227c.468.15.79.311.969.482.179.17.27.382.27.635 0 .366-.11.646-.325.842-.216.19-.517.287-.908.287-.623 0-1.32-.185-2.094-.555v.848a4.66 4.66 0 0 0 2.02.476c.305 0 .585-.036.841-.11.26-.072.494-.183.698-.33a1.5 1.5 0 0 0 .488-.585c.118-.248.176-.534.176-.856 0-.26-.024-.479-.072-.658a1.36 1.36 0 0 0-.27-.514 1.664 1.664 0 0 0-.543-.414 5.236 5.236 0 0 0-.885-.353l-.64-.203c-.42-.135-.694-.26-.825-.377-.13-.118-.195-.31-.195-.574 0-.314.1-.553.299-.715.203-.167.54-.25 1.008-.25.525 0 1.067.143 1.629.427l.238-.75a4.394 4.394 0 0 0-1.97-.453zm29.174 0c-.863 0-1.64.161-2.332.483l.275.744c.297-.143.636-.25 1.014-.328a5.075 5.075 0 0 1 1.063-.123c.488 0 .842.115 1.066.347.228.232.342.585.342 1.057v.635h-1.031c-1.038 0-1.794.164-2.27.494-.472.325-.709.84-.709 1.539 0 .586.18 1.043.537 1.373.362.33.842.494 1.436.494.887 0 1.606-.34 2.16-1.02l.11.891h.769v-4.26c0-.821-.212-1.413-.635-1.775-.42-.366-1.018-.55-1.795-.55zm7.111 0c-.931 0-1.635.422-2.11 1.264l-.106-1.129h-.842v9.29h1.013v-2.429l-.043-1.496c.48.81 1.17 1.215 2.069 1.215.846 0 1.506-.305 1.978-.916.472-.61.707-1.415.707-2.416 0-1.042-.227-1.866-.683-2.473-.452-.606-1.112-.91-1.983-.91zm7.055 0c-.932 0-1.635.422-2.111 1.264l-.104-1.129h-.842v9.29h1.012v-2.429l-.04-1.496c.48.81 1.168 1.215 2.068 1.215.846 0 1.504-.305 1.976-.916.472-.61.71-1.415.71-2.416 0-1.042-.229-1.866-.685-2.473-.451-.606-1.113-.91-1.984-.91zm5.977 0c-.676 0-1.202.163-1.577.489-.374.321-.56.744-.56 1.27 0 .422.109.77.324 1.038.216.265.614.489 1.195.676l.71.227c.467.15.79.311.968.482.18.17.27.382.27.635 0 .366-.109.646-.324.842-.216.19-.518.287-.909.287-.622 0-1.32-.185-2.093-.555v.848a4.66 4.66 0 0 0 2.02.476c.304 0 .585-.036.84-.11.261-.072.495-.183.698-.33.208-.146.37-.341.488-.585.118-.248.176-.534.176-.856 0-.26-.023-.479-.072-.658a1.36 1.36 0 0 0-.27-.514 1.664 1.664 0 0 0-.543-.414 5.236 5.236 0 0 0-.884-.353l-.641-.203c-.42-.135-.694-.26-.824-.377-.13-.118-.195-.31-.195-.574 0-.314.099-.553.298-.715.204-.167.54-.25 1.008-.25.525 0 1.068.143 1.63.427l.237-.75a4.394 4.394 0 0 0-1.97-.453zm16.418 0c-.948 0-1.694.31-2.235.928-.537.614-.804 1.428-.804 2.441 0 .99.27 1.796.816 2.418.545.619 1.287.928 2.223.928.915 0 1.651-.31 2.209-.933.557-.627.836-1.432.836-2.413 0-1.013-.268-1.827-.805-2.44-.537-.62-1.284-.929-2.24-.929zm13.855 0c-.863 0-1.64.161-2.332.483l.275.744c.297-.143.634-.25 1.012-.328a5.076 5.076 0 0 1 1.063-.123c.488 0 .844.115 1.068.347.228.232.342.585.342 1.057v.635h-1.031c-1.038 0-1.796.164-2.272.494-.472.325-.707.84-.707 1.539 0 .586.18 1.043.537 1.373.362.33.84.494 1.434.494.887 0 1.607-.34 2.16-1.02l.111.891h.768v-4.26c0-.821-.212-1.413-.635-1.775-.419-.366-1.016-.55-1.793-.55zm3.649.135l2.558 6.262-.953 2.43.91.195 3.4-8.887h-1.025l-1.844 5.158-2.013-5.158h-1.033zm-102.448.64c.602 0 1.056.225 1.362.673.309.447.464 1.11.464 1.984-.004.802-.152 1.42-.445 1.855-.293.436-.772.653-1.435.653-.631 0-1.096-.232-1.397-.696-.297-.463-.447-1.1-.447-1.91 0-.814.159-1.443.476-1.886.318-.448.792-.672 1.422-.672zm7.16 0c.664 0 1.165.24 1.502.716.338.472.506 1.103.506 1.892 0 .505-.068.946-.207 1.324a1.92 1.92 0 0 1-.672.903c-.305.223-.681.336-1.129.336-.65 0-1.148-.235-1.49-.707-.342-.472-.512-1.095-.512-1.864 0-.785.17-1.412.512-1.884.342-.477.84-.715 1.49-.715zm48.217 0c1.164 0 1.746.865 1.746 2.594 0 1.713-.602 2.57-1.806 2.57-.61 0-1.083-.232-1.416-.7-.33-.468-.494-1.127-.494-1.973.004-.781.166-1.39.488-1.83.321-.44.815-.66 1.482-.66zm7.057 0c1.164 0 1.746.865 1.746 2.594 0 1.713-.602 2.57-1.807 2.57-.61 0-1.082-.232-1.416-.7-.33-.468-.494-1.127-.494-1.973.004-.781.167-1.39.488-1.83.322-.44.816-.66 1.483-.66zm22.51 0c.663 0 1.164.24 1.502.716.337.472.505 1.103.505 1.892 0 .505-.068.946-.207 1.324a1.92 1.92 0 0 1-.671.903c-.306.223-.682.336-1.13.336-.65 0-1.148-.235-1.49-.707-.341-.472-.511-1.095-.511-1.864 0-.785.17-1.412.511-1.884.342-.477.84-.715 1.49-.715zm7.074 0c.602 0 1.056.225 1.361.673.31.447.463 1.11.463 1.984-.004.802-.152 1.42-.445 1.855-.293.436-.77.653-1.434.653-.63 0-1.097-.232-1.398-.696-.297-.463-.446-1.1-.446-1.91 0-.814.16-1.443.477-1.886.317-.448.791-.672 1.422-.672zm-42.98 2.712h.773v1.421c-.484.713-1.143 1.069-1.977 1.069a1.06 1.06 0 0 1-.763-.293c-.204-.195-.305-.472-.305-.83 0-.2.018-.368.055-.502a.953.953 0 0 1 .605-.652c.171-.07.388-.122.652-.159.265-.036.585-.054.96-.054zm50.413 0h.776v1.421c-.484.713-1.145 1.069-1.979 1.069-.305 0-.558-.098-.761-.293-.204-.195-.305-.472-.305-.83 0-.2.018-.368.055-.502a.943.943 0 0 1 .2-.377.946.946 0 0 1 .403-.275c.171-.07.388-.122.652-.159.265-.036.585-.054.96-.054zm-76.496 1.757c0 .297-.083 1.337-.25 3.12h.592l.178-.684c.118-.452.235-.917.353-1.393.122-.48.184-.746.184-.798v-.245h-1.057zm49.317 0c0 .297-.083 1.337-.25 3.12h.592l.177-.684c.118-.452.236-.917.354-1.393.122-.48.183-.746.183-.798v-.245h-1.056zm-46.428 38.686c-.456 0-.906.067-1.35.201-.443.13-.801.295-1.074.494l.299.776c.28-.183.6-.332.959-.446a3.504 3.504 0 0 1 1.055-.172 2.3 2.3 0 0 1 .445.043c.142.025.293.075.447.153.155.073.287.169.397.287.11.114.2.271.273.47.073.2.112.43.112.69 0 .24-.026.46-.075.66a2.05 2.05 0 0 1-.256.604 5.508 5.508 0 0 1-.335.5c-.098.126-.26.32-.483.58l-2.875 3.394.158.8h4.768l.055-.733h-3.838l2.392-2.803c.29-.338.511-.612.67-.828a5.5 5.5 0 0 0 .445-.697c.139-.253.233-.5.282-.744.053-.245.08-.521.08-.83a2.7 2.7 0 0 0-.158-.952 1.945 1.945 0 0 0-.416-.691 2.144 2.144 0 0 0-.598-.44 2.556 2.556 0 0 0-.684-.244 3.253 3.253 0 0 0-.695-.072zm-23.035.049l-1.014.072v2.01l.049 1.47a2.577 2.577 0 0 0-.31-.458 1.963 1.963 0 0 0-.391-.36 1.63 1.63 0 0 0-.557-.256 2.87 2.87 0 0 0-.732-.086c-.855 0-1.531.306-2.031.916-.497.61-.747 1.41-.747 2.399 0 1.042.241 1.87.721 2.484.484.61 1.172.914 2.063.914.923 0 1.596-.42 2.015-1.261l.092 1.14h.842v-8.984zm79.223 0l-1.012.072v2.01l.049 1.47a2.582 2.582 0 0 0-.313-.458 1.962 1.962 0 0 0-.39-.36 1.62 1.62 0 0 0-.555-.256 2.87 2.87 0 0 0-.733-.086c-.854 0-1.532.306-2.033.916-.496.61-.744 1.41-.744 2.399 0 1.042.24 1.87.72 2.484.485.61 1.172.914 2.063.914.924 0 1.595-.42 2.014-1.261l.092 1.14h.842v-8.984zm-92.084.072c-.212.147-.528.297-.952.447a8.3 8.3 0 0 1-1.086.31v.806a6.1 6.1 0 0 0 .989-.237c.39-.122.714-.256.97-.398v7.252h-2.148v.732h5.078v-.732h-1.916v-8.18h-.935zm76.44.684l-.812.062-.164 1.71-.994.066-.025.574h.994v3.88c0 .395.036.715.105.96.07.244.192.444.372.603.183.159.42.27.709.33.288.061.666.092 1.134.092h.422l.049-.695-.514-.026c-.54-.02-.888-.105-1.043-.256-.154-.154-.232-.49-.232-1.007v-3.881h1.709v-.64h-1.71v-1.772zm-59.228 1.636c-.948 0-1.693.31-2.234.928-.537.615-.805 1.428-.805 2.442 0 .988.272 1.793.817 2.416.545.618 1.287.927 2.222.927.916 0 1.652-.31 2.21-.933.557-.627.835-1.43.835-2.41 0-1.014-.267-1.827-.804-2.442-.537-.618-1.284-.928-2.24-.928zm7.098 0c-.9 0-1.63.304-2.191.91-.562.603-.842 1.43-.842 2.483 0 1.01.273 1.816.818 2.418.55.602 1.286.902 2.21.902a3.74 3.74 0 0 0 1.062-.138c.313-.094.54-.197.677-.307l-.189-.69a2.685 2.685 0 0 1-1.361.354c-.712 0-1.253-.233-1.623-.701-.37-.468-.557-1.081-.557-1.838 0-.798.194-1.432.58-1.904.387-.472.9-.707 1.54-.707.504 0 .952.117 1.347.353l.287-.695c-.138-.094-.36-.19-.67-.287a3.458 3.458 0 0 0-1.088-.153zm21.332 0c-.863 0-1.64.161-2.332.483l.275.744a4.358 4.358 0 0 1 1.014-.33 5.065 5.065 0 0 1 1.063-.121c.488 0 .842.115 1.066.347.228.232.342.585.342 1.057v.635h-1.031c-1.038 0-1.794.164-2.27.494-.472.325-.709.837-.709 1.537 0 .586.18 1.044.537 1.373.362.33.842.494 1.436.494.887 0 1.606-.338 2.16-1.017l.11.89h.769v-4.26c0-.821-.212-1.415-.635-1.777-.42-.366-1.018-.549-1.795-.549zm7.111 0c-.931 0-1.635.422-2.11 1.264l-.106-1.129h-.842v9.29h1.014v-2.43l-.043-1.495c.48.81 1.169 1.213 2.068 1.213.846 0 1.506-.303 1.978-.914.472-.61.707-1.417.707-2.418 0-1.041-.227-1.864-.683-2.47-.452-.607-1.112-.91-1.983-.91zm7.055 0c-.932 0-1.635.422-2.111 1.264l-.104-1.129h-.842v9.29h1.012v-2.43l-.04-1.495c.48.81 1.168 1.213 2.068 1.213.846 0 1.504-.303 1.976-.914.472-.61.71-1.417.71-2.418 0-1.041-.229-1.864-.684-2.47-.452-.607-1.114-.91-1.985-.91zm5.977 0c-.676 0-1.202.163-1.576.489-.375.321-.561.744-.561 1.27 0 .422.109.768.324 1.036.216.265.614.49 1.196.678l.708.227c.468.15.79.311.97.482.178.17.269.383.269.635 0 .366-.109.646-.324.842-.216.19-.518.287-.909.287-.622 0-1.32-.187-2.093-.557v.85c.667.317 1.34.474 2.02.474.304 0 .585-.036.84-.11.261-.072.495-.183.698-.33.208-.146.37-.341.488-.585.118-.248.176-.532.176-.854 0-.26-.023-.48-.072-.66a1.352 1.352 0 0 0-.27-.511 1.668 1.668 0 0 0-.543-.417 5.237 5.237 0 0 0-.884-.353l-.64-.201c-.42-.134-.695-.261-.825-.38-.13-.117-.195-.307-.195-.571 0-.314.099-.552.298-.715.204-.167.54-.25 1.008-.25.525 0 1.068.143 1.63.428l.237-.752a4.392 4.392 0 0 0-1.97-.452zm16.418 0c-.948 0-1.694.31-2.235.928-.537.615-.804 1.428-.804 2.442 0 .988.27 1.793.816 2.416.545.618 1.287.927 2.223.927.915 0 1.651-.31 2.209-.933.557-.627.836-1.43.836-2.41 0-1.014-.268-1.827-.805-2.442-.537-.618-1.284-.928-2.24-.928zm13.855 0c-.863 0-1.64.161-2.332.483l.275.744a4.342 4.342 0 0 1 1.012-.33 5.065 5.065 0 0 1 1.063-.121c.488 0 .844.115 1.068.347.228.232.342.585.342 1.057v.635h-1.031c-1.038 0-1.796.164-2.272.494-.472.325-.707.837-.707 1.537 0 .586.18 1.044.537 1.373.362.33.84.494 1.434.494.887 0 1.607-.338 2.16-1.017l.111.89h.768v-4.26c0-.821-.212-1.415-.635-1.777-.419-.366-1.016-.549-1.793-.549zm3.649.135l2.558 6.262-.953 2.43.91.195 3.4-8.887h-1.025l-1.844 5.156-2.013-5.156h-1.033zm-89.655.64c.602 0 1.056.225 1.362.673.309.447.464 1.107.464 1.982-.004.802-.152 1.42-.445 1.856-.293.435-.772.654-1.435.654-.631 0-1.096-.234-1.397-.697-.297-.464-.447-1.1-.447-1.91 0-.814.159-1.442.476-1.885.318-.448.792-.672 1.422-.672zm7.16 0c.664 0 1.165.238 1.502.714.338.472.506 1.103.506 1.892 0 .505-.068.946-.207 1.324a1.926 1.926 0 0 1-.672.905c-.305.224-.681.336-1.129.336-.65 0-1.148-.237-1.49-.71-.342-.471-.512-1.092-.512-1.86 0-.786.17-1.415.512-1.887.342-.476.84-.713 1.49-.713zm35.424 0c1.164 0 1.746.865 1.746 2.595 0 1.713-.602 2.57-1.806 2.57-.61 0-1.083-.235-1.416-.703-.33-.468-.494-1.125-.494-1.971.004-.781.166-1.393.488-1.832.321-.44.815-.658 1.482-.658zm7.057 0c1.164 0 1.746.865 1.746 2.595 0 1.713-.602 2.57-1.807 2.57-.61 0-1.082-.235-1.416-.703-.33-.468-.494-1.125-.494-1.971.004-.781.167-1.393.488-1.832.322-.44.816-.658 1.483-.658zm22.51 0c.663 0 1.164.238 1.502.714.337.472.505 1.103.505 1.892 0 .505-.068.946-.207 1.324a1.926 1.926 0 0 1-.671.905c-.306.224-.682.336-1.13.336-.65 0-1.148-.237-1.49-.71-.341-.471-.511-1.092-.511-1.86 0-.786.17-1.415.511-1.887.342-.476.84-.713 1.49-.713zm7.074 0c.602 0 1.056.225 1.361.673.31.447.463 1.107.463 1.982-.004.802-.152 1.42-.445 1.856-.293.435-.77.654-1.434.654-.63 0-1.097-.234-1.398-.697-.297-.464-.446-1.1-.446-1.91 0-.814.16-1.442.477-1.885.317-.448.791-.672 1.422-.672zm-42.98 2.71h.773v1.422c-.484.712-1.143 1.068-1.977 1.068a1.06 1.06 0 0 1-.763-.293c-.204-.195-.305-.472-.305-.83 0-.2.018-.366.055-.5a.95.95 0 0 1 .605-.652 2.71 2.71 0 0 1 .652-.16c.265-.037.585-.055.96-.055zm50.413 0h.776v1.422c-.484.712-1.145 1.068-1.979 1.068-.305 0-.558-.098-.761-.293-.204-.195-.305-.472-.305-.83 0-.2.018-.366.055-.5a.95.95 0 0 1 .603-.652 2.71 2.71 0 0 1 .652-.16c.265-.037.585-.055.96-.055zm-69.146 1.758c0 .297-.083 1.336-.25 3.119h.592l.178-.684c.118-.452.235-.914.353-1.39.122-.48.184-.748.184-.801v-.244h-1.057zm41.967 0c0 .297-.083 1.336-.25 3.119h.592l.177-.684c.118-.452.236-.914.354-1.39.122-.48.183-.748.183-.801v-.244h-1.056zM86.15 172.17c-.652 0-1.205.193-1.66.58-.456.382-.797.916-1.02 1.6-.22.68-.33 1.486-.33 2.421 0 .676.06 1.29.177 1.844a5.27 5.27 0 0 0 .537 1.453c.24.415.553.74.94.971.39.228.843.342 1.355.342.509 0 .954-.114 1.336-.342a2.51 2.51 0 0 0 .922-.976c.232-.42.404-.904.518-1.454a9.067 9.067 0 0 0 .172-1.838c0-.703-.062-1.333-.184-1.89-.122-.562-.303-1.045-.543-1.447a2.478 2.478 0 0 0-.922-.934c-.374-.22-.806-.33-1.299-.33zm12.828.049l-1.012.074v2.008l.049 1.47a2.58 2.58 0 0 0-.313-.459 1.963 1.963 0 0 0-.39-.359 1.623 1.623 0 0 0-.555-.256 2.87 2.87 0 0 0-.733-.086c-.854 0-1.532.306-2.033.916-.496.61-.744 1.41-.744 2.399 0 1.041.24 1.87.72 2.484.485.61 1.172.916 2.063.916.924 0 1.595-.421 2.014-1.264l.092 1.141h.842v-8.984zm106.86 0l-1.013.074v2.008l.049 1.47a2.573 2.573 0 0 0-.31-.459 1.962 1.962 0 0 0-.391-.359 1.633 1.633 0 0 0-.557-.256 2.87 2.87 0 0 0-.732-.086c-.855 0-1.531.306-2.032.916-.496.61-.746 1.41-.746 2.399 0 1.041.241 1.87.721 2.484.484.61 1.171.916 2.063.916.923 0 1.596-.421 2.015-1.264l.092 1.141h.842v-8.984zm-126.056.074l-3.984 5.785v.879h4.053v2.246h.962v-2.246h1.02l.074-.781h-1.094v-5.883h-1.03zm48.346 0l-2.008 2.953c-.24.346-.424.624-.555.836-.13.212-.264.458-.402.738a3.51 3.51 0 0 0-.293.836 4.298 4.298 0 0 0-.086.88c0 .365.063.716.19 1.05.126.334.307.63.543.89.236.257.536.463.902.618.366.154.773.232 1.22.232.855 0 1.546-.266 2.071-.795.529-.533.793-1.191.793-1.976 0-.77-.264-1.404-.793-1.905a2.633 2.633 0 0 0-1.88-.752c-.453 0-.874.114-1.265.342.249-.333.462-.632.641-.896l2.076-3.051h-1.154zm58.185.684l-.812.06-.164 1.71-.994.065-.026.575h.994v3.88c0 .395.037.715.106.96.07.244.192.444.371.603.183.159.42.27.709.33.289.061.667.092 1.135.092h.422l.048-.695-.513-.026c-.541-.02-.889-.105-1.043-.256-.155-.154-.233-.489-.233-1.005v-3.883h1.71v-.64h-1.71v-1.77zm-100.164.017c1.294 0 1.94 1.248 1.94 3.742 0 1.258-.168 2.209-.506 2.856-.334.643-.811.965-1.434.965-.63 0-1.124-.324-1.478-.971-.35-.651-.524-1.599-.524-2.844-.004-1.192.172-2.114.53-2.765.358-.656.85-.983 1.472-.983zm-6.298.555v4.627h-3.047l3.047-4.627zm23.478 1.062c-.948 0-1.691.31-2.232.928-.537.614-.807 1.428-.807 2.441 0 .99.273 1.796.818 2.418.546.619 1.285.928 2.221.928.916 0 1.654-.313 2.211-.935.557-.627.836-1.43.836-2.41 0-1.014-.27-1.828-.807-2.442-.537-.618-1.284-.928-2.24-.928zm7.1 0c-.9 0-1.63.304-2.192.91-.561.603-.842 1.431-.842 2.485 0 1.009.272 1.814.817 2.416.55.602 1.287.904 2.21.904.396 0 .748-.047 1.061-.14.314-.094.54-.197.678-.307l-.19-.69a2.68 2.68 0 0 1-1.359.356c-.712 0-1.254-.235-1.625-.703-.37-.468-.554-1.08-.554-1.836 0-.798.193-1.432.58-1.904.386-.472.898-.71 1.537-.71.504 0 .955.118 1.35.354l.287-.695c-.139-.094-.363-.19-.672-.287a3.445 3.445 0 0 0-1.086-.153zm4.949 0c-.676 0-1.2.163-1.574.489-.375.321-.563.744-.563 1.27 0 .422.109.768.324 1.036.216.265.616.49 1.198.678l.707.227c.468.15.791.311.97.482.18.17.268.382.268.635 0 .366-.107.646-.322.842-.216.19-.52.287-.91.287-.623 0-1.321-.187-2.094-.557v.85a4.669 4.669 0 0 0 2.021.476c.305 0 .586-.038.842-.111.26-.073.492-.182.695-.328.208-.147.37-.342.489-.586.118-.248.177-.534.177-.856 0-.26-.025-.479-.074-.658a1.354 1.354 0 0 0-.267-.514 1.664 1.664 0 0 0-.543-.414 5.224 5.224 0 0 0-.885-.355l-.643-.201c-.419-.135-.692-.261-.822-.38-.13-.117-.195-.307-.195-.571 0-.314.1-.553.299-.715.203-.167.538-.25 1.005-.25.525 0 1.07.143 1.631.427l.239-.752a4.4 4.4 0 0 0-1.973-.45zm21.826 0c-.863 0-1.64.161-2.332.483l.275.744a4.36 4.36 0 0 1 1.014-.33 5.065 5.065 0 0 1 1.063-.121c.488 0 .842.115 1.066.347.228.232.342.585.342 1.057v.635h-1.031c-1.038 0-1.794.164-2.27.494-.472.325-.709.837-.709 1.537 0 .586.18 1.043.537 1.373.362.33.842.496 1.436.496.887 0 1.606-.34 2.16-1.02l.11.891h.769v-4.26c0-.821-.212-1.415-.635-1.777-.42-.366-1.018-.549-1.795-.549zm7.111 0c-.931 0-1.635.422-2.11 1.264l-.106-1.129h-.842v9.29h1.013v-2.43l-.043-1.495c.48.81 1.17 1.215 2.069 1.215.846 0 1.506-.306 1.978-.916.472-.61.707-1.417.707-2.418 0-1.042-.227-1.864-.683-2.47-.452-.607-1.112-.91-1.983-.91zm7.055 0c-.932 0-1.635.422-2.111 1.264l-.104-1.129h-.842v9.29h1.012v-2.43l-.04-1.495c.48.81 1.168 1.215 2.068 1.215.846 0 1.504-.306 1.976-.916.472-.61.71-1.417.71-2.418 0-1.042-.229-1.864-.685-2.47-.451-.607-1.113-.91-1.984-.91zm5.977 0c-.676 0-1.202.163-1.577.489-.374.321-.56.744-.56 1.27 0 .422.109.768.324 1.036.216.265.614.49 1.195.678l.71.227c.467.15.79.311.968.482.18.17.27.382.27.635 0 .366-.109.646-.324.842-.216.19-.518.287-.909.287-.622 0-1.32-.187-2.093-.557v.85a4.66 4.66 0 0 0 2.02.476c.304 0 .585-.038.84-.111.261-.073.495-.182.698-.328.208-.147.37-.342.488-.586.118-.248.176-.534.176-.856 0-.26-.023-.479-.072-.658a1.36 1.36 0 0 0-.27-.514 1.664 1.664 0 0 0-.543-.414 5.224 5.224 0 0 0-.884-.355l-.641-.201c-.42-.135-.694-.261-.824-.38-.13-.117-.195-.307-.195-.571 0-.314.099-.553.298-.715.204-.167.54-.25 1.008-.25.525 0 1.068.143 1.63.427l.237-.752a4.392 4.392 0 0 0-1.97-.45zm18.248 0c-.855 0-1.558.308-2.112.922-.553.615-.83 1.44-.83 2.473 0 1.021.284 1.83.85 2.428.566.594 1.302.892 2.209.892.814 0 1.539-.19 2.178-.568l-.213-.715c-.342.17-.651.3-.928.385a3.114 3.114 0 0 1-.922.129c-.622 0-1.127-.197-1.514-.592-.386-.399-.596-1.01-.628-1.832h4.365l.035-.512c0-.944-.213-1.682-.64-2.21-.424-.534-1.04-.8-1.85-.8zm5.847 0c-.675 0-1.2.163-1.574.489-.374.321-.562.744-.562 1.27 0 .422.108.768.324 1.036.216.265.615.49 1.197.678l.707.227c.468.15.792.311.97.482.18.17.268.382.268.635 0 .366-.106.646-.322.842-.215.19-.52.287-.91.287-.623 0-1.32-.187-2.094-.557v.85a4.669 4.669 0 0 0 2.022.476c.305 0 .585-.038.842-.111.26-.073.491-.182.695-.328a1.51 1.51 0 0 0 .488-.586c.118-.248.178-.534.178-.856 0-.26-.026-.479-.074-.658a1.355 1.355 0 0 0-.268-.514 1.664 1.664 0 0 0-.543-.414 5.224 5.224 0 0 0-.885-.355l-.642-.201c-.42-.135-.692-.261-.822-.38-.13-.117-.196-.307-.196-.571 0-.314.1-.553.299-.715.203-.167.538-.25 1.006-.25.525 0 1.07.143 1.63.427l.239-.752a4.4 4.4 0 0 0-1.973-.45zm10.536 0c-.855 0-1.558.308-2.112.922-.553.615-.83 1.44-.83 2.473 0 1.021.282 1.83.848 2.428.565.594 1.301.892 2.209.892.814 0 1.54-.19 2.18-.568l-.213-.715c-.342.17-.651.3-.928.385a3.114 3.114 0 0 1-.922.129c-.623 0-1.127-.197-1.514-.592-.386-.399-.596-1.01-.629-1.832h4.364l.037-.512c0-.944-.214-1.682-.64-2.21-.424-.534-1.04-.8-1.85-.8zm17.834 0c-.863 0-1.64.161-2.333.483l.276.744a4.36 4.36 0 0 1 1.014-.33 5.065 5.065 0 0 1 1.062-.121c.488 0 .843.115 1.066.347.228.232.342.585.342 1.057v.635h-1.031c-1.038 0-1.793.164-2.27.494-.472.325-.709.837-.709 1.537 0 .586.18 1.043.538 1.373.362.33.841.496 1.435.496.887 0 1.607-.34 2.16-1.02l.11.891h.77v-4.26c0-.821-.212-1.415-.636-1.777-.419-.366-1.017-.549-1.795-.549zm-10.999.067c-.39 0-.763.11-1.117.33-.35.215-.646.555-.89 1.02l-.11-1.282h-.812v6.457h1.013v-3.656c0-.574.18-1.06.538-1.46.362-.398.82-.597 1.373-.597.114 0 .25.017.414.049l.043-.83a2.73 2.73 0 0 0-.452-.031zm-32.617.068l2.557 6.262-.951 2.43.908.195 3.4-8.887h-1.025l-1.844 5.156-2.013-5.156h-1.032zm47.266 0l2.557 6.262-.952 2.43.909.195 3.4-8.887h-1.025l-1.844 5.156-2.014-5.156h-1.031zm-117.291.64c.602 0 1.056.225 1.361.673.31.447.463 1.107.463 1.982-.004.802-.152 1.42-.445 1.855-.293.436-.77.655-1.434.655-.63 0-1.097-.234-1.398-.697-.297-.464-.446-1.1-.446-1.91 0-.814.16-1.442.477-1.885.317-.448.791-.672 1.422-.672zm7.158 0c.663 0 1.164.24 1.502.716.338.472.508 1.1.508 1.89 0 .505-.07.946-.21 1.324-.137.375-.36.677-.67.905-.304.224-.682.336-1.13.336-.651 0-1.146-.237-1.488-.71-.342-.471-.514-1.092-.514-1.86 0-.786.172-1.413.514-1.885.342-.476.837-.715 1.488-.715zm40.87 0c1.163 0 1.745.865 1.745 2.594 0 1.714-.602 2.57-1.806 2.57-.61 0-1.083-.234-1.416-.702-.33-.468-.494-1.125-.494-1.971.004-.781.166-1.393.488-1.832.321-.44.815-.658 1.482-.658zm7.056 0c1.164 0 1.746.865 1.746 2.594 0 1.714-.602 2.57-1.807 2.57-.61 0-1.082-.234-1.416-.702-.33-.468-.494-1.125-.494-1.971.004-.781.167-1.393.488-1.832.322-.44.816-.658 1.483-.658zm24.365 0c1.026 0 1.563.697 1.611 2.089h-3.515c.057-.643.256-1.153.597-1.528.346-.374.782-.56 1.307-.56zm16.38 0c1.026 0 1.563.697 1.612 2.089h-3.515c.057-.643.257-1.153.6-1.528.345-.374.78-.56 1.304-.56zm11.03 0c.602 0 1.056.225 1.362.673.309.447.464 1.107.464 1.982-.004.802-.152 1.42-.445 1.855-.293.436-.772.655-1.435.655-.631 0-1.096-.234-1.397-.697-.297-.464-.447-1.1-.447-1.91 0-.814.159-1.442.476-1.885.318-.448.792-.672 1.422-.672zm-75.377 1.302c.582 0 1.038.173 1.367.523.334.346.5.796.5 1.35 0 .549-.17 1.016-.507 1.398-.338.378-.803.566-1.397.566-.59 0-1.047-.184-1.373-.554-.325-.37-.488-.828-.488-1.373 0-.277.04-.528.121-.752a1.55 1.55 0 0 1 .318-.543c.13-.143.279-.26.446-.354.17-.097.339-.164.505-.2.171-.042.341-.062.508-.062zm10.205 1.408h.774v1.424c-.484.712-1.143 1.066-1.977 1.066a1.06 1.06 0 0 1-.763-.293c-.204-.195-.305-.472-.305-.83 0-.2.018-.366.055-.5a.95.95 0 0 1 .605-.652c.171-.07.388-.122.652-.159a7.11 7.11 0 0 1 .96-.056zm72.608 0h.773v1.424c-.484.712-1.142 1.066-1.976 1.066a1.06 1.06 0 0 1-.764-.293c-.203-.195-.305-.472-.305-.83 0-.2.018-.366.055-.5a.95.95 0 0 1 .605-.652c.171-.07.388-.122.653-.159a7.11 7.11 0 0 1 .959-.056zm-91.34 1.758c0 .297-.083 1.336-.25 3.119h.592l.177-.684c.118-.452.236-.914.354-1.39.122-.48.184-.748.184-.801v-.244h-1.057zm41.967 0c0 .297-.083 1.336-.25 3.119h.592l.177-.684c.118-.452.236-.914.354-1.39.122-.48.183-.748.183-.801v-.244h-1.056zm15.754 39.693c-.651 0-1.205.193-1.66.58-.456.382-.796.916-1.02 1.6-.22.68-.33 1.488-.33 2.423 0 .676.06 1.289.178 1.842.122.55.3 1.034.537 1.453.24.415.553.74.94.971.39.228.842.342 1.355.342.508 0 .953-.114 1.336-.342a2.51 2.51 0 0 0 .921-.977c.232-.419.406-.903.52-1.453.114-.549.17-1.16.17-1.836 0-.704-.06-1.335-.182-1.892-.122-.562-.303-1.045-.543-1.447a2.477 2.477 0 0 0-.922-.934c-.374-.22-.808-.33-1.3-.33zm-98.358.006c-.814 0-1.586.222-2.314.666l.33.744c.659-.378 1.31-.568 1.953-.568.472 0 .855.121 1.148.361.293.24.443.605.452 1.098v.043c0 1.05-.72 1.574-2.16 1.574h-.264v.818h.256c.297 0 .555.015.775.043.224.029.443.085.654.166.212.078.384.182.518.317.134.13.243.307.324.53.081.22.121.483.121.788 0 .553-.146.977-.44 1.27-.292.293-.7.439-1.22.439-.647 0-1.388-.213-2.227-.64v.915c.753.395 1.506.592 2.258.592.777 0 1.416-.222 1.916-.666.505-.447.763-1.084.776-1.91v-.043c0-.606-.17-1.1-.512-1.482-.338-.383-.788-.634-1.35-.752 1.083-.281 1.623-.957 1.623-2.032v-.037c-.004-.484-.128-.898-.377-1.24a2.126 2.126 0 0 0-.947-.756 3.343 3.343 0 0 0-1.293-.238zm48.73 0a4.38 4.38 0 0 0-2.314.666l.33.744c.66-.378 1.31-.568 1.953-.568.472 0 .856.121 1.149.361.293.24.443.605.451 1.098v.043c0 1.05-.72 1.574-2.16 1.574h-.264v.818h.256c.297 0 .556.015.775.043.224.029.443.085.655.166.211.078.383.182.517.317.135.13.243.307.325.53.081.22.12.483.12.788 0 .553-.146.977-.439 1.27-.293.293-.7.439-1.22.439-.647 0-1.389-.213-2.227-.64v.915c.753.395 1.505.592 2.258.592.777 0 1.415-.222 1.916-.666.504-.447.763-1.084.775-1.91v-.043c0-.606-.17-1.1-.512-1.482-.337-.383-.788-.634-1.35-.752 1.083-.281 1.624-.957 1.624-2.032v-.037c-.004-.484-.129-.898-.377-1.24a2.126 2.126 0 0 0-.947-.756 3.343 3.343 0 0 0-1.293-.238zm-28.241.043l-1.012.074v2.008l.049 1.47a2.561 2.561 0 0 0-.313-.456 1.968 1.968 0 0 0-.39-.362 1.61 1.61 0 0 0-.555-.256 2.884 2.884 0 0 0-.733-.086c-.854 0-1.532.306-2.033.917-.496.61-.744 1.41-.744 2.398 0 1.042.24 1.87.72 2.484.485.61 1.172.916 2.063.916.924 0 1.595-.421 2.014-1.263l.092 1.14h.842v-8.984zm90.699 0l-1.014.074v2.008l.049 1.47a2.59 2.59 0 0 0-.31-.456 1.968 1.968 0 0 0-.391-.362 1.621 1.621 0 0 0-.557-.256 2.884 2.884 0 0 0-.732-.086c-.855 0-1.531.306-2.032.917-.496.61-.746 1.41-.746 2.398 0 1.042.24 1.87.721 2.484.484.61 1.171.916 2.062.916.924 0 1.597-.421 2.016-1.263l.092 1.14h.842v-8.984zm-102.545.074l-3.987 5.785v.88H87.2v2.245h.965v-2.246h1.02l.072-.781h-1.092v-5.883h-1.031zm82.336 0c-.212.147-.53.295-.953.445-.42.147-.781.25-1.086.311v.807a6.15 6.15 0 0 0 .988-.239c.39-.122.714-.254.97-.396v7.25h-2.148v.732h5.078v-.732h-1.916v-8.178h-.933zm7.379.701c1.294 0 1.941 1.248 1.941 3.742 0 1.258-.17 2.209-.508 2.856-.333.643-.81.965-1.433.965-.631 0-1.123-.324-1.477-.97-.35-.652-.525-1.6-.525-2.845-.004-1.192.173-2.114.53-2.765.359-.655.85-.983 1.472-.983zm-89.649.555v4.627h-3.045l3.045-4.627zm16.131 1.062c-.948 0-1.691.31-2.232.928-.537.615-.807 1.428-.807 2.442 0 .988.273 1.795.818 2.418.546.618 1.285.927 2.221.927.916 0 1.654-.31 2.211-.933.557-.627.836-1.432.836-2.412 0-1.014-.27-1.827-.807-2.442-.537-.618-1.284-.928-2.24-.928zm7.1 0c-.9 0-1.63.304-2.192.91-.561.603-.842 1.431-.842 2.485 0 1.01.272 1.814.817 2.416.55.602 1.287.904 2.21.904.396 0 .748-.047 1.061-.14.314-.094.54-.195.678-.305l-.19-.69a2.678 2.678 0 0 1-1.359.354c-.712 0-1.254-.235-1.625-.703-.37-.468-.554-1.08-.554-1.836 0-.798.193-1.432.58-1.904.386-.472.898-.71 1.537-.71.504 0 .955.12 1.35.356l.286-.697c-.138-.094-.362-.19-.671-.287a3.447 3.447 0 0 0-1.086-.153zm4.949 0c-.676 0-1.2.163-1.574.489-.375.321-.563.744-.563 1.27 0 .422.109.77.324 1.038.216.265.616.489 1.198.676l.707.227c.468.15.791.311.97.482a.84.84 0 0 1 .268.635c0 .366-.107.646-.322.842-.216.19-.52.287-.91.287-.623 0-1.321-.185-2.094-.555v.848a4.669 4.669 0 0 0 2.021.476c.305 0 .586-.036.842-.11.26-.072.492-.183.695-.33.208-.146.37-.341.489-.585.118-.248.177-.534.177-.856 0-.26-.025-.479-.074-.658a1.354 1.354 0 0 0-.267-.513 1.664 1.664 0 0 0-.543-.414 5.237 5.237 0 0 0-.885-.354l-.643-.203c-.419-.134-.692-.26-.822-.377-.13-.118-.195-.31-.195-.574 0-.314.1-.552.299-.715.203-.167.538-.25 1.005-.25.525 0 1.07.143 1.631.428l.239-.75a4.402 4.402 0 0 0-1.973-.454zm21.826 0c-.863 0-1.64.161-2.332.483l.275.744a4.42 4.42 0 0 1 1.014-.328 5.074 5.074 0 0 1 1.063-.123c.488 0 .842.116 1.066.348.228.231.342.584.342 1.056v.635h-1.031c-1.038 0-1.794.164-2.27.494-.472.326-.709.837-.709 1.537 0 .586.18 1.046.537 1.375.362.33.842.494 1.436.494.887 0 1.606-.34 2.16-1.02l.11.891h.769v-4.26c0-.821-.212-1.413-.635-1.775-.42-.366-1.018-.55-1.795-.55zm7.111 0c-.931 0-1.635.422-2.11 1.264l-.106-1.129h-.842v9.29h1.013v-2.428l-.043-1.497c.48.81 1.17 1.215 2.069 1.215.846 0 1.506-.305 1.978-.916.472-.61.707-1.415.707-2.416 0-1.041-.227-1.866-.683-2.472-.452-.607-1.112-.91-1.983-.91zm7.055 0c-.932 0-1.635.422-2.111 1.264l-.104-1.129h-.842v9.29h1.012v-2.428l-.04-1.497c.48.81 1.168 1.215 2.068 1.215.846 0 1.504-.305 1.976-.916.472-.61.71-1.415.71-2.416 0-1.041-.229-1.866-.685-2.472-.451-.607-1.113-.91-1.984-.91zm5.977 0c-.676 0-1.202.163-1.577.489-.374.321-.56.744-.56 1.27 0 .422.108.77.324 1.038.216.265.614.489 1.195.676l.71.227c.467.15.79.311.968.482.18.171.27.383.27.635 0 .366-.109.646-.324.842-.216.19-.518.287-.909.287-.622 0-1.32-.185-2.093-.555v.848a4.66 4.66 0 0 0 2.02.476c.304 0 .585-.036.84-.11.261-.072.495-.183.698-.33.208-.146.37-.341.488-.585.118-.248.176-.534.176-.856 0-.26-.023-.479-.072-.658a1.36 1.36 0 0 0-.27-.513 1.663 1.663 0 0 0-.543-.414 5.237 5.237 0 0 0-.884-.354l-.641-.203c-.42-.134-.694-.26-.824-.377-.13-.118-.195-.31-.195-.574 0-.314.099-.552.298-.715.204-.167.54-.25 1.008-.25.525 0 1.068.143 1.63.428l.237-.75a4.394 4.394 0 0 0-1.97-.454zm36.302 0c-.862 0-1.64.161-2.332.483l.276.744c.297-.142.635-.25 1.013-.328a5.074 5.074 0 0 1 1.063-.123c.488 0 .843.116 1.066.348.228.231.342.584.342 1.056v.635h-1.031c-1.038 0-1.794.164-2.27.494-.472.326-.709.837-.709 1.537 0 .586.18 1.046.537 1.375.363.33.842.494 1.436.494.887 0 1.607-.34 2.16-1.02l.11.891h.77v-4.26c0-.821-.213-1.413-.636-1.775-.419-.366-1.017-.55-1.795-.55zm12.598 0c-.675 0-1.2.163-1.574.489-.375.321-.563.744-.563 1.27 0 .422.109.77.325 1.038.215.265.615.489 1.197.676l.707.227c.468.15.792.311.97.482a.84.84 0 0 1 .268.635c0 .366-.106.646-.322.842-.216.19-.52.287-.91.287-.623 0-1.32-.185-2.094-.555v.848a4.669 4.669 0 0 0 2.021.476c.306 0 .586-.036.842-.11.26-.072.492-.183.696-.33a1.5 1.5 0 0 0 .488-.585c.118-.248.178-.534.178-.856 0-.26-.026-.479-.075-.658a1.354 1.354 0 0 0-.267-.513 1.664 1.664 0 0 0-.543-.414 5.237 5.237 0 0 0-.885-.354l-.643-.203c-.419-.134-.692-.26-.822-.377-.13-.118-.195-.31-.195-.574 0-.314.1-.552.299-.715.203-.167.538-.25 1.006-.25.524 0 1.069.143 1.63.428l.239-.75a4.402 4.402 0 0 0-1.973-.454zm8.691 0c-.862 0-1.64.161-2.332.483l.276.744c.297-.142.635-.25 1.013-.328a5.074 5.074 0 0 1 1.063-.123c.488 0 .843.116 1.066.348.228.231.342.584.342 1.056v.635h-1.031c-1.038 0-1.794.164-2.27.494-.472.326-.709.837-.709 1.537 0 .586.18 1.046.538 1.375.362.33.841.494 1.435.494.887 0 1.607-.34 2.16-1.02l.11.891h.77v-4.26c0-.821-.212-1.413-.636-1.775-.419-.366-1.017-.55-1.795-.55zm6.653 0a2.9 2.9 0 0 0-1.276.27c-.37.175-.666.42-.89.732-.224.314-.392.67-.506 1.069a4.623 4.623 0 0 0-.172 1.287c0 .407.056.794.166 1.16.114.366.279.699.494 1 .216.301.503.542.865.72.367.18.78.27 1.24.27.477 0 .884-.096 1.221-.287a2.02 2.02 0 0 0 .793-.787l.018.756v.178c0 .81-.166 1.392-.5 1.75-.33.358-.84.537-1.531.537-.509 0-1.137-.087-1.881-.262l-.078.856c.732.166 1.385.25 1.959.25 1.054 0 1.81-.29 2.27-.868.463-.573.697-1.423.697-2.55v-5.946h-.922l-.063.928c-.386-.708-1.021-1.063-1.904-1.063zm7.226 0c-.948 0-1.69.31-2.232.928-.537.615-.807 1.428-.807 2.442 0 .988.273 1.795.819 2.418.545.618 1.284.927 2.22.927.916 0 1.654-.31 2.211-.933.558-.627.836-1.432.836-2.412 0-1.014-.27-1.827-.806-2.442-.538-.618-1.284-.928-2.24-.928zm-31.517.135l2.556 6.262-.95 2.43.907.195 3.4-8.887h-1.025l-1.843 5.158-2.014-5.158H197.3zm-101.13.64c.603 0 1.057.225 1.362.673.31.447.463 1.107.463 1.982-.004.802-.152 1.422-.445 1.858-.293.435-.77.652-1.434.652-.63 0-1.097-.232-1.398-.695-.297-.464-.446-1.1-.446-1.91 0-.814.16-1.444.477-1.887.317-.448.791-.672 1.422-.672zm7.16 0c.662 0 1.163.24 1.501.716.338.472.508 1.103.508 1.892 0 .505-.07.946-.21 1.324-.137.375-.36.675-.67.903-.304.224-.682.336-1.13.336-.651 0-1.146-.235-1.488-.707-.342-.472-.514-1.094-.514-1.864 0-.785.172-1.412.514-1.884.342-.476.837-.715 1.488-.715zm40.868 0c1.164 0 1.746.865 1.746 2.595 0 1.713-.602 2.57-1.806 2.57-.61 0-1.083-.233-1.416-.701-.33-.468-.494-1.127-.494-1.973.004-.781.166-1.39.488-1.83.321-.44.815-.66 1.482-.66zm7.057 0c1.164 0 1.746.865 1.746 2.595 0 1.713-.602 2.57-1.807 2.57-.61 0-1.082-.233-1.416-.701-.33-.468-.494-1.127-.494-1.973.004-.781.167-1.39.488-1.83.322-.44.816-.66 1.483-.66zm35.613 0c.602 0 1.056.225 1.361.673.31.447.465 1.107.465 1.982-.004.802-.152 1.422-.445 1.858-.293.435-.772.652-1.436.652-.63 0-1.095-.232-1.396-.695-.297-.464-.447-1.1-.447-1.91 0-.814.159-1.444.476-1.887.318-.448.791-.672 1.422-.672zm34.772 0c1.233 0 1.85.762 1.85 2.284v.543c0 .293-.033.563-.098.807a2.172 2.172 0 0 1-.31.675 1.377 1.377 0 0 1-.581.477 2.09 2.09 0 0 1-.879.172c-.342 0-.638-.07-.89-.21a1.464 1.464 0 0 1-.575-.56 2.841 2.841 0 0 1-.293-.77 4.042 4.042 0 0 1-.092-.884c0-.334.031-.643.092-.928.065-.289.165-.556.3-.804.137-.249.331-.444.58-.586.251-.143.55-.215.896-.215zm7.177 0c.664 0 1.165.24 1.502.716.338.472.508 1.103.508 1.892 0 .505-.07.946-.209 1.324a1.91 1.91 0 0 1-.67.903c-.305.224-.683.336-1.13.336-.652 0-1.147-.235-1.489-.707-.342-.472-.514-1.094-.514-1.864 0-.785.172-1.412.514-1.884.342-.476.837-.715 1.488-.715zm-90.959 2.712h.774v1.422c-.484.712-1.143 1.068-1.977 1.068a1.06 1.06 0 0 1-.763-.293c-.204-.195-.305-.472-.305-.83 0-.2.018-.368.055-.502a.957.957 0 0 1 .605-.652c.171-.07.388-.122.652-.159.265-.036.585-.054.96-.054zm56.446 0h.773v1.422c-.484.712-1.142 1.068-1.976 1.068a1.06 1.06 0 0 1-.764-.293c-.204-.195-.305-.472-.305-.83 0-.2.018-.368.055-.502a.958.958 0 0 1 .605-.652c.171-.07.388-.122.653-.159.264-.036.584-.054.959-.054zm21.289 0h.773v1.422c-.484.712-1.142 1.068-1.976 1.068a1.06 1.06 0 0 1-.764-.293c-.203-.195-.305-.472-.305-.83 0-.2.018-.368.055-.502a.958.958 0 0 1 .605-.652c.171-.07.388-.122.653-.159.264-.036.584-.054.959-.054zm-96.467 1.758c0 .297-.083 1.336-.25 3.119h.592l.177-.684c.118-.452.236-.916.354-1.392.122-.48.184-.747.184-.8v-.243h-1.057zm41.967 0c0 .297-.083 1.336-.25 3.119h.592l.177-.684c.118-.452.236-.916.354-1.392.122-.48.183-.747.183-.8v-.243h-1.056z" id="path4911" fill="currentColor" fill-opacity=".5" stroke="none"/><g transform="translate(-356.571 -457.798)" id="layer1-1" fill-opacity="1" stroke="none"><circle r="14" cy="531.798" cx="400.571" id="path3377" opacity="1" fill="url(#linearGradient4229-2)" stroke-width="4" stroke-miterlimit="4" stroke-dasharray="none" stroke-dashoffset="0" stroke-opacity="1"/><path d="M400.543 517.798a14.01 14.01 0 0 0-5 .928c-.113.104-.26.184-.376.174-.016-.002-.032-.012-.048-.017a13.91 13.91 0 0 0-2.18 1.158c.089.145.115.307-.07.385-.03.013-.42.053-.555.05a13.968 13.968 0 0 0-4.534 5.57c.016-.002.03-.01.047-.01a2.66 2.66 0 0 1 .518.072c.135.028.244.119.36.128.332.025.412-.233.683-.378.28.04.465-.047.718-.019.172.02.296.203.43.214.113.011.212-.106.322-.09.106.017.289.248.306.378.022.161-.119.306-.073.484.17.172.477.207.718.306.158-.13.02-.37 0-.558-.003-.082.012-.156 0-.232-.014-.13-.07-.248-.07-.358-.004-.511.411-.75.754-.952.148-.088.265-.242.394-.306.181-.091.317-.113.467-.197.272-.153.505-.275.718-.449.098-.231.01-.542.018-.77.098-.061.183.025.287.017.164-.034.178-.266.27-.359.054-.052.203-.09.27-.143.163-.128.217-.322.36-.377.05-.021.169-.015.25-.037.106-.028.257-.154.43-.213.113-.04.371-.047.414-.09.053-.055 0-.207.018-.288.087-.405.698-.49 1.058-.627.253-.096.513-.272.79-.218-.054.193-.313.125-.269.358.06.325.495-.092.61-.14.22-.093.595-.149.882-.253.252-.093.704-.233.466-.521-.198-.012-.293.232-.466.306-.12.02-.097-.1-.198-.11-.097-.01-.151.09-.25.073-.1-.016-.238-.172-.253-.287-.04-.3.253-.423.377-.647-.082-.27-.457-.055-.684-.161.022-.161.19-.273.378-.304.154-.025.501-.012.593.07.053.046.004.159.09.234.092.082.204.074.323.054.042-.204-.266-.153-.233-.288.243-.159.637-.028.934-.072.171-.026.35-.146.502-.231.144-.082.331-.225.484-.09.041.146-.133.194-.215.267a5.829 5.829 0 0 0-.77.808c.13.128.368.064.59.09.086.012.195.038.287.054.107.019.221.013.305.036.15.037.191.198.34.198.246 0 .249-.266.11-.432.044-.17.112-.257.053-.376-.11-.221-.516-.012-.537-.287-.013-.18.15-.171.214-.305-.03-.346.284-.371.25-.681-.014-.13-.123-.131-.214-.253-.046-.06-.07-.174-.122-.225-.419-.037-.842-.06-1.271-.06zm-7.225 2.825h.002c.084.011.185.101.286.109.096.003.175-.053.234-.037.15.04.213.266.072.377-.117.015-.163-.05-.251-.035-.244.041-.338.519-.52.503-.172-.015-.265-.433-.09-.558.012-.109-.08-.126-.074-.234.052-.066.2-.137.342-.126zm-.808.056c.05.002.088.013.107.035-.024.192-.173.18-.321.268-.255.154-.403.389-.484.718-.024.096-.275.35-.397.324-.284-.06.079-.585.144-.664.072-.089.168-.166.253-.268.082-.1.135-.233.214-.287a1.06 1.06 0 0 1 .484-.126zm2.125.645c.091.002.173.016.21.053-.058.237-.569.175-.755.09.011-.09.151-.115.269-.127.082-.003.185-.019.276-.016zm-1.162.438a.651.651 0 0 1 .186.028c-.165.138-.344.216-.628.306-.136.043-.372.097-.395-.056-.028-.187.2-.143.324-.16.157-.021.33-.113.513-.119zm17.828 1.063a.356.356 0 0 0-.034.15c.011.087.106.17.127.288.011.062-.03.196 0 .253.086.167.312.047.474.056-.184-.253-.367-.507-.567-.747zm.917 1.235c-.025.123-.11.285-.177.388-.157.238-.37.25-.594.376-.187.106-.267.283-.377.468-.119.199-.193.32-.144.608-.16.318-.403.513-.735.664-.098.045-.233.061-.323.126-.072.052-.112.19-.214.305-.126.14-.258.2-.324.306-.051.083-.07.248-.126.359-.077.15-.24.224-.34.377-.046.07-.077.214-.128.306-.114.207-.308.356-.287.537.02.176.22.207.234.36.003.086-.057.14-.053.234.003.138.096.234.106.34.027.267-.09.373-.14.555-.024.087-.014.185-.038.253-.044.134-.23.254-.233.412-.002.112.115.202.124.36.003.108-.053.224-.034.323.038.196.387.423.539.575.203.203.469.36.556.574.074.181.073.418.215.555.104.1.279.164.413.27.125.097.261.182.395.286.218.171.549.512.897.486.181-.013.368-.162.574-.199.212-.038.487-.057.701-.035.164.016.333.114.503.106.18-.011.387-.144.591-.233.164-.072.366-.151.588-.21.102-.682.156-1.382.156-2.094 0-2.867-.857-5.524-2.324-7.738zm-23.154 4.704c-.298.016-.494.03-.663.107-.389.177-.314.701-.702.826-.134.043-.318.045-.466.072-.127.023-.283.093-.414.09-.037 0-.088-.028-.134-.042a14.02 14.02 0 0 0-.085.745c.37.07.56.56.886.722.09.044.206.046.321.072.093.02.164.06.253.09.19.065.422.057.574.125.23.101.397.531.594.646.011.116-.023.272.017.359.093.126.225.098.378.18.183.099.239.354.413.432.06.027.21.023.305.052.237.072.315.347.52.287.133-.04.122-.177.144-.305.088-.095.185-.247.323-.25.223-.012.243.23.324.447.045.123.165.23.197.358.055.223.027.891-.02 1.024-.056.164-.277.233-.414.415-.064.085-.095.21-.143.269-.088.107-.219.135-.285.234-.037.055-.073.175-.11.25-.107.228-.251.39-.16.664.038.113.214.189.214.322 0 .156-.332.296-.358.467-.02.128.103.355.143.521.03.126.267.204.34.287.127.142.228.342.343.52.227.35.406.775.627 1.114.117.177.282.337.36.521.04.093.034.204.07.287.13.29.696.592.988.736.137.066.289.09.414.16.19.106.567.39.663.557.086.15.14.515.18.754.056.315.001.557.018.898.012.184.07.37.073.555 0 .065-.035.113-.037.18 0 .01.004.022.004.033a13.984 13.984 0 0 0 5.784 1.253c.374 0 .743-.02 1.11-.048.015-.028.03-.057.05-.082.084-.11.159-.208.214-.305.053-.328-.13-.557-.053-.844.086-.322.531-.519.844-.664.107-.05.217-.131.304-.161.217-.076.486-.035.684-.107.336-.123.372-.484.537-.79.078-.145.182-.29.197-.394.014-.093-.034-.18-.019-.29.016-.108.114-.202.144-.321.04-.156.056-.383.056-.557 0-.142-.067-.266-.072-.395-.023-.465.168-.517.34-.77.087-.127.12-.27.18-.36.289-.432.79-.64.754-1.292-.011-.216-.147-.704-.306-.773-.091-.04-.3-.003-.43-.053-.425-.158-.674-.684-1.114-.718-.094-.012-.18.039-.285.037-.174-.012-.437-.122-.63-.144-.122-.013-.285.037-.359 0-.112-.054-.123-.26-.215-.322-.072-.05-.213-.067-.322-.11-.177-.067-.317-.147-.521-.16-.063-.004-.141.029-.215.018-.113-.019-.202-.152-.306-.216-.13-.08-.25-.118-.305-.23.118-.387-.208-.495-.287-.719-.038-.104-.02-.23-.053-.324-.047-.133-.18-.21-.324-.322-.26-.2-.49-.388-.862-.434-.163-.02-.325.05-.522.037-.209-.013-.471-.196-.628-.374-.151-.175-.225-.331-.358-.415-.125-.08-.291-.078-.377-.16-.039-.035-.031-.096-.072-.18-.063-.13-.17-.203-.09-.36-.144-.073-.147.137-.304.11-.14-.198-.257-.292-.574-.234-.145.027-.226.21-.395.215-.139.011-.248-.155-.431-.181-.138-.02-.295.037-.394.019-.153-.03-.2-.158-.34-.25-.103-.068-.302-.183-.36-.18-.18.01-.309.382-.558.25-.12-.153.197-.233.054-.377-.109-.108-.2.05-.287.11-.1.069-.194.137-.304.177-.246.093-.4.045-.593.144-.179.092-.186.247-.287.43-.083.151-.271.37-.395.38-.15.011-.295-.211-.431-.27-.411-.178-.61.158-.952.163-.316.011-.769-.512-.753-.81.003-.181.105-.457.126-.682.019-.179.141-.286.143-.45.003-.218-.289-.385-.43-.411-.336-.062-.801.135-1.186-.02-.073-.121.086-.205.128-.323.023-.068.01-.157.034-.231.043-.115.162-.203.216-.324.04-.093.05-.226.09-.34.047-.131.133-.216.144-.307a.403.403 0 0 0-.128-.34zm4.799 3.8c.121.011.137.262.012.283-.134.02-.202-.21-.072-.271a.11.11 0 0 1 .06-.01v-.003z" id="path34-7-3-3" fill="url(#linearGradient6586)" fill-rule="nonzero" stroke-width=".7"/></g><g transform="translate(-356.571 -410.42)" id="layer1-6" stroke="none"><path id="rect4154" opacity="1" fill="url(#linearGradient4343)" fill-opacity="1" d="M384.571 517.798h32v22h-32z"/><path id="rect4156" opacity="1" fill="url(#linearGradient4223)" fill-opacity="1" d="M384.571 534.798h32v3h-32z"/><rect ry="6" y="520.798" x="394.571" height="12" width="12" id="rect4225" opacity=".3" fill="#ebf9fe" fill-opacity="1"/><path id="path4212" transform="translate(384.571 515.798)" d="M20 7.9L13 15l10 10h9v-5L20 7.9z" opacity=".2" fill="url(#linearGradient4220)" fill-opacity="1" fill-rule="evenodd" stroke-width="1" stroke-linecap="butt" stroke-linejoin="miter" stroke-opacity="1"/><rect transform="scale(1 -1)" id="rect4227" width="10" height="10" x="395.571" y="-531.798" ry="5" opacity="1" fill="url(#linearGradient4235)" fill-opacity="1"/><path id="path4237" d="M398.571 523.798v6l4.5-3z" fill="#fff" fill-rule="evenodd" stroke-width="1" stroke-linecap="butt" stroke-linejoin="miter" stroke-opacity="1"/><path id="rect4319" d="M384.571 517.798v23h32v-23h-32zm1 1h30v18h-30v-18z" opacity="1" fill="url(#linearGradient4338)" fill-opacity="1"/><path id="rect4321" opacity="1" fill="url(#linearGradient4346)" fill-opacity="1" d="M397.571 540.798h6v4h-6z"/><path id="rect4323" opacity="1" fill="#99a1a7" fill-opacity="1" d="M394.571 544.798h12v1h-12z"/><path id="rect4416" opacity="1" fill="#3092df" fill-opacity="1" d="M386.571 535.798h15v1h-15z"/><path id="rect4422" opacity="1" fill="#1c1e20" fill-opacity="1" d="M400.571 535.798h14v1h-14z"/><path id="rect4426" opacity="1" fill="#daebf9" fill-opacity="1" d="M399.571 535.798h1v1h-1z"/></g><g transform="translate(-356.571 -363.043)" id="layer1-66"><circle r="14" cy="531.798" cx="400.571" id="path3377-19" opacity="1" fill="url(#linearGradient4339)" fill-opacity="1" stroke="none" stroke-width="4" stroke-miterlimit="4" stroke-dasharray="none" stroke-dashoffset="0" stroke-opacity="1"/><path id="rect4160" transform="translate(384.571 515.798)" d="M14 4.17a12 12 0 0 0-1 .22V8H9V6.271a12 12 0 0 0-1 .803V8h-.928a12 12 0 0 0-.806 1H8v4H4.395a12 12 0 0 0-.213 1H8v4H4.17a12 12 0 0 0 .22 1H8v4H6.271a12 12 0 0 0 .803 1H8v.928a12 12 0 0 0 1 .806V24h4v3.604a12 12 0 0 0 1 .214V24h4v3.83a12 12 0 0 0 1-.22V24h4v1.729a12 12 0 0 0 1-.803V24h.928a12 12 0 0 0 .806-1H24v-4h3.604a12 12 0 0 0 .214-1H24v-4h3.83a12 12 0 0 0-.22-1H24V9h1.729a12 12 0 0 0-.803-1H24v-.928a12 12 0 0 0-1-.806V8h-4V4.395a12 12 0 0 0-1-.213V8h-4V4.17zM9 9h4v4H9V9zm5 0h4v4h-4V9zm5 0h4v4h-4V9zM9 14h4v4H9v-4zm5 0h4v4h-4v-4zm5 0h4v4h-4v-4zM9 19h4v4H9v-4zm5 0h4v4h-4v-4zm5 0h4v4h-4v-4z" style="isolation:auto;mix-blend-mode:normal;solid-color:#000;solid-opacity:1" class="ColorScheme-ViewBackground" color="#fcfcfc" clip-rule="nonzero" display="inline" overflow="visible" visibility="visible" opacity="1" color-interpolation="sRGB" color-interpolation-filters="linearRGB" fill="currentColor" fill-opacity=".059" fill-rule="nonzero" stroke="none" stroke-width="1" stroke-linecap="butt" stroke-linejoin="miter" stroke-miterlimit="4" stroke-dasharray="none" stroke-dashoffset="0" stroke-opacity=".314" color-rendering="auto" image-rendering="auto" shape-rendering="auto" text-rendering="auto"/><path id="path4267" transform="translate(384.571 515.798)" d="M20 12l-4 4v1l-6 6 6.965 6.965A14 14 0 0 0 29.95 16.95L25 12h-5z" opacity=".2" fill="url(#linearGradient4275)" fill-opacity="1" fill-rule="evenodd" stroke="none" stroke-width="1" stroke-linecap="butt" stroke-linejoin="miter" stroke-opacity="1"/><circle id="circle4174" cx="400.571" cy="531.798" r="14" opacity="1" fill="url(#linearGradient4182)" fill-opacity="1" stroke="none" stroke-width="4" stroke-miterlimit="4" stroke-dasharray="none" stroke-dashoffset="0" stroke-opacity="1"/><path transform="translate(384.571 515.798)" id="circle4238" d="M16 4A12 12 0 0 0 4 16a12 12 0 0 0 12 12 12 12 0 0 0 12-12A12 12 0 0 0 16 4zm0 1a11 11 0 0 1 11 11 11 11 0 0 1-11 11A11 11 0 0 1 5 16 11 11 0 0 1 16 5z" opacity=".2" fill="#fff" fill-opacity="1" stroke="none" stroke-width="3.429" stroke-miterlimit="4" stroke-dasharray="none" stroke-dashoffset="0" stroke-opacity="1"/><path id="path4254" d="M399.571 524.798l4 4 2-2-2-2z" opacity=".2" fill="url(#linearGradient4263)" fill-opacity="1" fill-rule="evenodd" stroke="none" stroke-width="1" stroke-linecap="butt" stroke-linejoin="miter" stroke-opacity="1"/><path id="path4247" transform="translate(384.571 515.798)" d="M18.143 8.014C17.095 8.09 16 8.496 15 8.996c2 0 3 1 4 2l2 2.002V14l1 1 3-3.002-1-1.002h-1l-2-2c-.81-.809-1.81-1.06-2.857-.982zM19 11l-4 4h-1l-6 6 2 2 6-6v-1l4-4-1-1z" fill="url(#linearGradient4291)" fill-opacity="1" fill-rule="evenodd" stroke="none" stroke-width="1" stroke-linecap="butt" stroke-linejoin="miter" stroke-opacity="1"/></g><g transform="translate(-358.171 -315.666)" id="layer1-0" stroke="none" stroke-width=".667"><path id="rect4567-0" fill="url(#linearGradient6588)" fill-opacity="1" d="M384.571 517.798h32v28h-32z"/><path id="rect4778-1" d="M384.571 517.798v28h32v-28h-30.666zm2 2h28v24h-28z" fill="url(#linearGradient6590)" fill-opacity="1"/><path id="rect4553-1" d="M386.571 519.753v24.045h28v-24.045zm1 1.045h26v22h-26z" style="text-decoration-line:none" color="#000" text-decoration="none" display="inline" overflow="visible" visibility="visible" fill="#aa7f41" fill-opacity=".498" fill-rule="nonzero"/><path id="rect4568-6" style="text-decoration-line:none" color="#000" text-decoration="none" display="inline" overflow="visible" visibility="visible" fill="#007ad9" fill-opacity="1" fill-rule="nonzero" d="M403.571 541.798h4v1h-4z"/><path id="rect4570-5" style="text-decoration-line:none" color="#000" text-decoration="none" display="inline" overflow="visible" visibility="visible" fill="#d6d6d6" fill-opacity="1" fill-rule="nonzero" d="M408.571 541.798h4v1h-4z"/></g></svg>