<svg xmlns="http://www.w3.org/2000/svg" viewBox="0 0 256 256"><defs id="defs4"><style id="current-color-scheme" type="text/css">.ColorScheme-Text{color:#4d4d4d}</style></defs><path d="M16 10h224c3.324 0 6 2.676 6 6v224c0 3.324-2.676 6-6 6H16c-3.324 0-6-2.676-6-6V16c0-3.324 2.676-6 6-6z" id="rect4240" fill="currentColor" fill-opacity=".5" stroke="none" color="#31363b"/><path d="M16 12h224c2.216 0 4 1.784 4 4v224c0 2.216-1.784 4-4 4H16c-2.216 0-4-1.784-4-4V16c0-2.216 1.784-4 4-4z" id="rect4238" fill="currentColor" fill-opacity="1" stroke="none" color="#eff0f1"/><path class="ColorScheme-Text" d="M128.016 43.895c-1.413 0-2.561.352-3.448 1.058-.886.706-1.328 1.662-1.328 2.865 0 .923.273 1.717.82 2.387.555.67 1.272 1.15 2.15 1.438-1.058.367-1.876.914-2.452 1.642-.57.72-.854 1.611-.854 2.67 0 .88.235 1.64.703 2.281a4.19 4.19 0 0 0 1.848 1.416c.757.303 1.607.453 2.55.453 1.463 0 2.676-.364 3.641-1.091.966-.728 1.45-1.748 1.45-3.059a4.341 4.341 0 0 0-.887-2.68c-.59-.785-1.383-1.337-2.377-1.654.9-.324 1.61-.806 2.129-1.447.526-.649.789-1.433.789-2.356 0-1.21-.44-2.166-1.318-2.865-.872-.706-2.011-1.058-3.416-1.058zm-80.598.216l.205 1.448h7.078l-5.445 14.33h1.793l5.533-14.502V44.11h-9.164zm156.031 0c-.374.26-.936.523-1.685.79-.742.259-1.384.442-1.924.55v1.426c.483-.065 1.065-.206 1.75-.422.692-.216 1.265-.449 1.719-.701v12.838h-3.805v1.297h8.992v-1.297h-3.394v-14.48h-1.653zm-75.443 1.114c.915 0 1.646.232 2.193.7.548.462.822 1.08.822 1.85 0 .85-.253 1.556-.757 2.118-.505.562-1.257.951-2.258 1.168-.994-.224-1.75-.614-2.27-1.168-.511-.562-.767-1.267-.767-2.118 0-.763.277-1.38.832-1.85.562-.468 1.297-.7 2.205-.7zm0 7.1c1.016.215 1.833.626 2.453 1.232.627.605.94 1.347.94 2.226 0 1.96-1.13 2.94-3.393 2.94-1.11 0-1.96-.256-2.55-.768-.585-.511-.876-1.233-.876-2.162 0-.908.313-1.657.94-2.248.626-.59 1.456-.997 2.486-1.22zm-4.026 67.673l-.302 8.354 1.447.171c.331-.353.75-.632 1.254-.841a4.033 4.033 0 0 1 1.557-.315c.727 0 1.336.162 1.826.487.49.317.84.728 1.049 1.232.208.497.312 1.066.312 1.707 0 1.167-.324 2.076-.973 2.725-.64.64-1.5.96-2.582.96-1.21 0-2.511-.392-3.902-1.177l-.615 1.394c1.563.872 3.11 1.307 4.637 1.307.742 0 1.428-.11 2.062-.334a4.928 4.928 0 0 0 1.666-.973c.483-.432.856-.984 1.123-1.654.274-.677.41-1.436.41-2.28 0-.885-.179-1.686-.539-2.4-.353-.72-.893-1.298-1.62-1.738-.729-.447-1.586-.672-2.573-.672-1.08 0-2.044.286-2.887.856l.174-5.383h6.635l.14-1.426h-8.299zm-71.12.004l-3.557 5.23a33.654 33.654 0 0 0-.983 1.483c-.23.375-.468.81-.713 1.307-.245.497-.418.99-.52 1.48a7.61 7.61 0 0 0-.15 1.557c0 .648.111 1.268.334 1.86a4.92 4.92 0 0 0 .963 1.577c.418.454.952.816 1.6 1.09.648.274 1.368.412 2.16.412 1.513 0 2.735-.47 3.664-1.406.937-.944 1.405-2.11 1.405-3.5 0-1.362-.468-2.487-1.405-3.373-.93-.886-2.038-1.328-3.328-1.328-.8 0-1.547.2-2.238.603.44-.59.818-1.12 1.135-1.588l3.675-5.404H52.86zm152.788.11l-7.056 10.244v1.556h7.176v3.977h1.707v-3.977h1.804l.13-1.383h-1.934v-10.418h-1.827zm.12 2.226v8.191h-5.393l5.393-8.191zm-153.752 5.445c1.03 0 1.838.31 2.422.93.59.612.884 1.409.884 2.389 0 .972-.298 1.797-.896 2.474-.598.67-1.423 1.006-2.475 1.006-1.045 0-1.855-.329-2.431-.984-.577-.656-.866-1.467-.866-2.432 0-.49.073-.932.217-1.328.144-.396.332-.718.563-.963.23-.252.493-.461.789-.627.302-.173.6-.29.896-.355.303-.072.601-.11.897-.11zm75.504 68.112c-1.441 0-2.807.392-4.096 1.177l.582 1.319c1.167-.67 2.32-1.004 3.459-1.004.836 0 1.512.211 2.031.636.519.426.786 1.074.8 1.946v.076c0 1.859-1.275 2.787-3.825 2.787h-.465v1.45h.455c.526 0 .982.025 1.371.075.396.051.782.147 1.156.292.375.136.682.324.92.562.238.23.428.543.572.94.145.389.217.854.217 1.394 0 .98-.26 1.73-.779 2.248-.519.519-1.24.777-2.162.777-1.146 0-2.46-.378-3.943-1.134v1.62c1.332.7 2.665 1.05 3.998 1.05 1.376 0 2.508-.393 3.394-1.178.893-.793 1.35-1.92 1.371-3.383v-.076c0-1.074-.3-1.95-.906-2.627-.598-.677-1.394-1.12-2.389-1.328 1.917-.497 2.875-1.698 2.875-3.6v-.064c-.007-.858-.232-1.588-.672-2.194a3.758 3.758 0 0 0-1.673-1.34c-.678-.28-1.441-.421-2.291-.421zm-75.602.107a8.19 8.19 0 0 0-2.387.357c-.785.23-1.42.522-1.902.875l.53 1.373a6.945 6.945 0 0 1 1.696-.789 6.212 6.212 0 0 1 1.87-.302c.273 0 .537.025.789.076.252.043.515.132.789.27.274.129.506.298.7.507.195.202.358.48.487.832.13.353.196.76.196 1.22 0 .426-.043.816-.13 1.169a3.636 3.636 0 0 1-.454 1.07 9.815 9.815 0 0 1-.594.887 29.28 29.28 0 0 1-.854 1.025l-5.09 6.01.28 1.416h8.441l.098-1.297h-6.799l4.236-4.96a27.66 27.66 0 0 0 1.19-1.471 9.69 9.69 0 0 0 .789-1.23c.245-.448.41-.887.496-1.32a6.95 6.95 0 0 0 .14-1.47c0-.627-.091-1.188-.279-1.686-.187-.504-.433-.91-.736-1.22a3.802 3.802 0 0 0-1.059-.78 4.53 4.53 0 0 0-1.21-.431 5.765 5.765 0 0 0-1.233-.131z" id="path4432" fill="currentColor" fill-opacity="1" stroke="none"/><path class="ColorScheme-Text" d="M20 20v64h64V20H20zm76 0v64h64V20H96zm76 0v64h64V20h-64zM21 21h62v62H21V21zm76 0h62v62H97V21zm76 0h62v62h-62V21zM20 96v64h64V96H20zm76 0v64h64V96H96zm76 0v64h64V96h-64zM21 97h62v62H21V97zm76 0h62v62H97V97zm76 0h62v62h-62V97zM20 172v64h64v-64H20zm76 0v64h64v-64H96zm-75 1h62v62H21v-62zm76 0h62v62H97v-62z" id="rect4877" fill="currentColor" fill-opacity=".5" stroke="none"/></svg>