<svg xmlns="http://www.w3.org/2000/svg" xmlns:xlink="http://www.w3.org/1999/xlink" viewBox="0 0 256 256"><defs><linearGradient gradientTransform="translate(75.571 509.22)" xlink:href="#a" id="e" x1="30" y1="54" x2="30" y2="12" gradientUnits="userSpaceOnUse"/><linearGradient id="a"><stop offset="0" stop-color="#63984b"/><stop offset="1" stop-color="#8fc278"/></linearGradient><linearGradient xlink:href="#b" id="f" gradientUnits="userSpaceOnUse" gradientTransform="translate(75.571 527.22)" x1="-6" y1="6" x2="24" y2="36"/><linearGradient id="b"><stop offset="0" stop-color="#292c2f"/><stop offset="1" stop-opacity="0"/></linearGradient><linearGradient xlink:href="#b" id="g" gradientUnits="userSpaceOnUse" gradientTransform="translate(75.571 521.22)" x1="-6" y1="6" x2="24" y2="36"/><linearGradient xlink:href="#b" id="h" gradientUnits="userSpaceOnUse" x1="-6" y1="6" x2="24" y2="36" gradientTransform="translate(75.571 515.22)"/><linearGradient gradientTransform="translate(75.571 509.22)" xlink:href="#b" id="i" x1="20" y1="20" x2="48" y2="48" gradientUnits="userSpaceOnUse"/><linearGradient xlink:href="#c" id="j" x1="-43" y1="1043.362" x2="-43" y2="1012.362" gradientUnits="userSpaceOnUse" gradientTransform="matrix(.625 0 0 .5484 136.171 -15.953)"/><linearGradient id="c"><stop offset="0" stop-color="#2a2c2f"/><stop offset="1" stop-color="#424649"/></linearGradient><linearGradient xlink:href="#d" id="k" gradientUnits="userSpaceOnUse" gradientTransform="translate(-677.572 -474.377)" x1="386.571" y1="523.798" x2="386.571" y2="516.798"/><linearGradient id="d"><stop offset="0" stop-color="#22a7f0"/><stop offset="1" stop-color="#19b5fe"/></linearGradient><linearGradient xlink:href="#d" id="l" gradientUnits="userSpaceOnUse" gradientTransform="translate(-677.572 -468.377)" x1="386.571" y1="523.798" x2="386.571" y2="516.798"/><linearGradient xlink:href="#d" id="m" gradientUnits="userSpaceOnUse" gradientTransform="translate(-677.572 -462.377)" x1="386.571" y1="523.798" x2="386.571" y2="516.798"/><style/></defs><path d="M16 10h224c3.324 0 6 2.676 6 6v224c0 3.324-2.676 6-6 6H16c-3.324 0-6-2.676-6-6V16c0-3.324 2.676-6 6-6z" fill="currentColor" fill-opacity=".5" color="#31363b"/><path d="M16 12h224c2.216 0 4 1.784 4 4v224c0 2.216-1.784 4-4 4H16c-2.216 0-4-1.784-4-4V16c0-2.216 1.784-4 4-4z" fill="currentColor" color="#eff0f1"/><path d="M77.035 28.432l-1.303.095v11.584h1.303v-3.07l.904-.857 3.332 3.927h1.547l-3.966-4.562 3.666-3.832h-1.596l-3.936 4.261.05-1.73v-5.816zm-54.685.095v11.584h1.293v-6.197l-.112-3.602 6.586 9.8h1.436V28.526h-1.285v6.602l.072 3.262-6.61-9.864h-1.38zm65.705 0l-.229 11.584h1.317l.11-7.148v-2.738l3.651 8.593h1.198l3.673-8.498v2.612l.112 7.18h1.3l-.23-11.585h-1.666l-3.77 8.8-3.751-8.8h-1.715zm32.549 0a.865.865 0 0 0-.627.239.802.802 0 0 0-.239.603c0 .249.08.45.239.61a.865.865 0 0 0 .627.238c.248 0 .455-.08.619-.239a.81.81 0 0 0 .246-.609.789.789 0 0 0-.246-.603.838.838 0 0 0-.62-.239zm-76.403.889l-1.055.08-.214 2.22-1.293.089-.034.746H42.9v5.045c0 .513.045.928.135 1.246.09.317.252.579.485.785.238.206.544.35.92.43.375.079.866.119 1.474.119h.549l.062-.905-.666-.033c-.703-.026-1.156-.136-1.357-.332-.201-.2-.3-.639-.3-1.31V32.55h2.22v-.834h-2.22v-2.301zm81.25 0l-1.055.08-.214 2.22-1.293.089-.034.746h1.295v5.045c0 .513.045.928.135 1.246.09.317.252.579.485.785.238.206.544.35.92.43.375.079.866.119 1.474.119h.549l.062-.905-.666-.033c-.703-.026-1.156-.136-1.357-.332-.201-.2-.3-.639-.3-1.31V32.55h2.22v-.834h-2.22v-2.301zm-88.105 2.127c-1.111 0-2.027.398-2.746 1.197-.72.799-1.079 1.87-1.079 3.213 0 1.328.367 2.38 1.102 3.158.735.773 1.693 1.158 2.873 1.158 1.058 0 2.002-.244 2.832-.736l-.277-.93a8.06 8.06 0 0 1-1.205.5c-.36.112-.76.168-1.2.168-.809 0-1.464-.258-1.966-.771-.503-.518-.776-1.31-.819-2.379h5.674l.047-.668c0-1.227-.277-2.183-.832-2.871-.55-.693-1.352-1.04-2.404-1.04zm26.85 0c-1.233 0-2.2.4-2.903 1.205-.698.799-1.049 1.857-1.049 3.174 0 1.285.356 2.333 1.065 3.142.708.804 1.67 1.205 2.886 1.205 1.19 0 2.149-.403 2.873-1.212.725-.815 1.088-1.86 1.088-3.135 0-1.317-.35-2.375-1.049-3.174-.698-.804-1.669-1.205-2.912-1.205zm40.847 0c-1.233 0-2.2.4-2.904 1.205-.699.799-1.047 1.857-1.047 3.174 0 1.285.353 2.333 1.062 3.142.71.804 1.672 1.205 2.889 1.205 1.19 0 2.148-.403 2.873-1.212.725-.815 1.086-1.86 1.086-3.135 0-1.317-.349-2.375-1.047-3.174-.698-.804-1.669-1.205-2.912-1.205zm9.799 0c-1.264 0-2.213.443-2.848 1.332l-.142-1.158h-1.143v8.394h1.316V35.43c0-1.92.864-2.88 2.588-2.88.64 0 1.086.193 1.34.579.254.38.381.95.381 1.707v5.275h1.316v-5.133c0-1.153-.229-2.014-.69-2.58-.454-.57-1.16-.855-2.118-.855zm18.1 0c-1.233 0-2.201.4-2.905 1.205-.698.799-1.047 1.857-1.047 3.174 0 1.285.354 2.333 1.063 3.142.709.804 1.672 1.205 2.888 1.205 1.19 0 2.149-.403 2.873-1.212.725-.815 1.086-1.86 1.086-3.135 0-1.317-.348-2.375-1.046-3.174-.699-.804-1.67-1.205-2.913-1.205zm-59.225.086a2.71 2.71 0 0 0-1.451.43c-.455.28-.841.72-1.159 1.324l-.142-1.666h-1.057v8.394h1.319V35.36c0-.746.231-1.378.697-1.896.47-.519 1.066-.778 1.785-.778.148 0 .33.02.541.063l.055-1.078a3.553 3.553 0 0 0-.588-.041zm68.746 0c-.508 0-.993.144-1.453.43-.455.28-.841.72-1.158 1.324l-.143-1.666h-1.055v8.394h1.317V35.36c0-.746.233-1.378.699-1.896.47-.519 1.066-.778 1.785-.778.148 0 .328.02.54.063l.056-1.078a3.553 3.553 0 0 0-.588-.041zm-94.881.088l2.355 8.394h1.254l2.205-7.236 2.334 7.236h1.166l2.262-8.394h-1.207l-1.674 6.76-2.19-6.76h-1.403L50.619 38.5l-1.793-6.783h-1.244zm72.363 0v8.394h1.301v-8.394h-1.3zm-82.568.834c1.333 0 2.032.904 2.096 2.713h-4.57c.073-.836.332-1.498.777-1.985.45-.486 1.015-.728 1.697-.728zm26.818 0c.863 0 1.514.309 1.953.927.44.614.659 1.433.659 2.46 0 .655-.09 1.23-.27 1.722a2.49 2.49 0 0 1-.873 1.174c-.397.29-.887.437-1.469.437-.846 0-1.49-.308-1.935-.921-.445-.614-.666-1.42-.666-2.42 0-1.021.221-1.838.666-2.452.444-.618 1.089-.927 1.935-.927zm40.848 0c.862 0 1.514.309 1.953.927.44.614.658 1.433.658 2.46 0 .655-.09 1.23-.27 1.722-.18.487-.47.878-.872 1.174-.397.29-.887.437-1.469.437-.846 0-1.491-.308-1.936-.921-.444-.614-.666-1.42-.666-2.42 0-1.021.222-1.838.666-2.452.445-.618 1.09-.927 1.936-.927zm27.898 0c.863 0 1.513.309 1.952.927.439.614.658 1.433.658 2.46 0 .655-.09 1.23-.27 1.722a2.49 2.49 0 0 1-.873 1.174c-.397.29-.885.437-1.467.437-.846 0-1.49-.308-1.935-.921-.444-.614-.668-1.42-.668-2.42 0-1.021.224-1.838.668-2.452.444-.618 1.089-.927 1.935-.927zM20 50v1h216v-1H20zm24.861 13.65c-.716 0-1.325.212-1.826.637-.501.42-.875 1.008-1.12 1.76-.243.747-.364 1.636-.364 2.666 0 .743.065 1.418.195 2.027.134.604.33 1.137.59 1.598.264.456.61.811 1.035 1.066.43.25.926.377 1.49.377.56 0 1.05-.126 1.471-.377a2.76 2.76 0 0 0 1.014-1.074 5.64 5.64 0 0 0 .57-1.598 9.968 9.968 0 0 0 .188-2.02 9.78 9.78 0 0 0-.202-2.081c-.134-.618-.333-1.149-.597-1.592a2.726 2.726 0 0 0-1.014-1.027c-.412-.242-.888-.362-1.43-.362zm103.645 0c-.716 0-1.325.212-1.826.637-.502.42-.877 1.008-1.123 1.76-.242.747-.362 1.636-.362 2.666 0 .743.066 1.418.196 2.027.134.604.33 1.137.59 1.598a2.92 2.92 0 0 0 1.033 1.066c.43.25.928.377 1.492.377.56 0 1.048-.126 1.469-.377a2.76 2.76 0 0 0 1.013-1.074c.255-.461.447-.993.573-1.598a9.969 9.969 0 0 0 .187-2.02 9.78 9.78 0 0 0-.201-2.081c-.134-.618-.334-1.149-.598-1.592a2.726 2.726 0 0 0-1.013-1.027c-.412-.242-.889-.362-1.43-.362zm52.367 0c-.716 0-1.325.212-1.826.637-.501.42-.875 1.008-1.121 1.76-.242.747-.364 1.636-.364 2.666 0 .743.066 1.418.196 2.027a5.79 5.79 0 0 0 .592 1.598 2.92 2.92 0 0 0 1.033 1.066c.43.25.926.377 1.49.377.56 0 1.05-.126 1.47-.377a2.76 2.76 0 0 0 1.014-1.074 5.61 5.61 0 0 0 .57-1.598 9.968 9.968 0 0 0 .188-2.02 9.78 9.78 0 0 0-.2-2.081c-.135-.618-.335-1.149-.599-1.592a2.726 2.726 0 0 0-1.013-1.027c-.412-.242-.888-.362-1.43-.362zm-165.674.053l-1.113.08v9.803h1.107v-3.887c0-.264.017-.51.053-.738.04-.228.11-.454.21-.678.098-.224.225-.415.382-.572a1.64 1.64 0 0 1 .611-.383c.255-.098.548-.146.88-.146.532 0 .91.168 1.134.503.228.332.342.849.342 1.551v4.35h1.115v-4.39c0-.914-.207-1.62-.62-2.116-.411-.497-1.002-.744-1.777-.744-.505 0-.963.098-1.37.295a2.537 2.537 0 0 0-.993.84l.04-1.391v-2.377zm122.496 0l-1.1.08v9.803h1.1v-2.598l.766-.724 2.82 3.322h1.309l-3.356-3.86 3.102-3.244h-1.35l-3.33 3.606.04-1.463v-4.922zm52.37 0l-1.102.08v9.803h1.101v-2.598l.766-.724 2.82 3.322h1.309l-3.357-3.86 3.101-3.244h-1.35l-3.33 3.606.041-1.463v-4.922zm-46.327.08v9.803h3.653c1.132 0 1.985-.243 2.558-.73.578-.493.865-1.172.865-2.036 0-.622-.17-1.134-.51-1.537-.335-.407-.815-.702-1.437-.88.569-.22.97-.508 1.203-.866.238-.363.356-.812.356-1.35 0-.819-.296-1.423-.887-1.812-.586-.394-1.494-.592-2.725-.592h-3.076zm12.623 0l-4.09 9.803h.967l4.116-9.803h-.993zm15.602 0l-4.088 9.803h.967l4.115-9.803h-.994zm24.144 0v9.803h3.653c1.132 0 1.983-.243 2.556-.73.578-.493.868-1.172.868-2.036 0-.622-.17-1.134-.51-1.537-.336-.407-.816-.702-1.438-.88.569-.22.969-.508 1.201-.866.238-.363.356-.812.356-1.35 0-.819-.294-1.423-.885-1.812-.586-.394-1.495-.592-2.726-.592h-3.075zm12.622 0l-4.088 9.803h.966l4.116-9.803h-.994zm-198.055.752l-.893.068-.181 1.88-1.094.074-.027.63h1.095v4.272c0 .434.037.784.114 1.053.076.268.213.491.41.666a1.7 1.7 0 0 0 .777.361c.318.067.735.102 1.25.102h.463l.053-.766-.563-.027c-.595-.023-.978-.116-1.148-.282-.17-.17-.256-.539-.256-1.107v-4.272h1.88v-.705h-1.88v-1.947zm14.187.022c1.424 0 2.135 1.371 2.135 4.115 0 1.383-.185 2.43-.557 3.142-.367.708-.893 1.06-1.578 1.06-.693 0-1.235-.356-1.625-1.067-.385-.717-.578-1.76-.578-3.13-.004-1.31.19-2.324.584-3.04.394-.721.935-1.08 1.62-1.08zm103.645 0c1.423 0 2.135 1.371 2.135 4.115 0 1.383-.187 2.43-.559 3.142-.367.708-.891 1.06-1.576 1.06-.694 0-1.236-.356-1.625-1.067-.385-.717-.578-1.76-.578-3.13-.004-1.31.19-2.324.584-3.04.394-.721.934-1.08 1.619-1.08zm52.367 0c1.423 0 2.135 1.371 2.135 4.115 0 1.383-.185 2.43-.557 3.142-.367.708-.893 1.06-1.578 1.06-.694 0-1.236-.356-1.625-1.067-.385-.717-.576-1.76-.576-3.13-.004-1.31.19-2.324.584-3.04.394-.721.932-1.08 1.617-1.08zm-35.953.113h1.887c.881 0 1.516.118 1.906.355.39.238.584.672.584 1.303 0 .627-.18 1.066-.537 1.316-.358.247-.881.37-1.57.37h-2.27V64.67zm52.37 0h1.886c.882 0 1.517.118 1.906.355.39.238.584.672.584 1.303 0 .627-.179 1.066-.537 1.316-.358.247-.881.37-1.57.37h-2.27V64.67zM24.872 66.336c-.94 0-1.713.338-2.322 1.014-.609.675-.914 1.581-.914 2.718 0 1.124.311 2.014.933 2.672.622.654 1.434.98 2.432.98.895 0 1.694-.208 2.396-.624l-.236-.786a6.83 6.83 0 0 1-1.02.424c-.304.094-.642.14-1.013.14-.685 0-1.24-.217-1.666-.651-.425-.44-.656-1.11-.692-2.014h4.801l.041-.565c0-1.038-.235-1.847-.705-2.43-.465-.586-1.144-.878-2.035-.878zm156.24 0c-.743 0-1.318.179-1.73.537-.412.354-.62.82-.62 1.396 0 .466.12.846.358 1.141.237.291.674.54 1.315.746l.779.248c.515.166.871.342 1.068.53a.928.928 0 0 1 .295.699c0 .403-.118.71-.355.926-.238.21-.573.316-1.002.316-.685 0-1.453-.204-2.303-.611v.933a5.13 5.13 0 0 0 2.223.524c.335 0 .645-.04.927-.121.287-.081.54-.203.764-.364a1.65 1.65 0 0 0 .537-.644 2.16 2.16 0 0 0 .195-.94 2.78 2.78 0 0 0-.08-.724 1.49 1.49 0 0 0-.295-.565 1.835 1.835 0 0 0-.597-.457 5.781 5.781 0 0 0-.975-.388l-.705-.221c-.46-.148-.763-.286-.906-.416-.143-.13-.215-.342-.215-.633 0-.345.11-.606.33-.785.224-.184.593-.276 1.107-.276.578 0 1.176.158 1.793.471l.262-.826a4.84 4.84 0 0 0-2.17-.496zm52.37 0c-.744 0-1.321.179-1.733.537-.412.354-.617.82-.617 1.396 0 .466.118.846.355 1.141.238.291.677.54 1.317.746l.779.248c.515.166.87.342 1.066.53a.928.928 0 0 1 .295.699c0 .403-.118.71-.355.926-.237.21-.57.316-1 .316-.685 0-1.452-.204-2.303-.611v.933a5.13 5.13 0 0 0 2.223.524c.335 0 .644-.04.926-.121a2.42 2.42 0 0 0 .765-.364 1.65 1.65 0 0 0 .537-.644 2.16 2.16 0 0 0 .196-.94c0-.286-.029-.527-.082-.724a1.49 1.49 0 0 0-.295-.565 1.835 1.835 0 0 0-.598-.457 5.753 5.753 0 0 0-.973-.388l-.705-.221c-.46-.148-.763-.286-.906-.416-.143-.13-.215-.342-.215-.633 0-.345.109-.606.328-.785.224-.184.593-.276 1.108-.276.577 0 1.175.158 1.793.471l.261-.826a4.832 4.832 0 0 0-2.168-.496zM24.9 67.187c1.128 0 1.72.767 1.774 2.297h-3.867c.062-.707.28-1.266.656-1.677.38-.412.86-.62 1.437-.62zm140.02 1.666h1.92c.967 0 1.675.148 2.123.444.447.295.67.793.67 1.496 0 .662-.195 1.143-.584 1.443-.385.3-1 .451-1.846.451h-2.283v-3.834zm52.37 0h1.919c.967 0 1.673.148 2.121.444.448.295.672.793.672 1.496 0 .662-.195 1.143-.584 1.443-.385.3-1.002.451-1.848.451h-2.28v-3.834zM20 226v1h216v-1H20z" fill="currentColor" color="#4d4d4d"/><path d="M20 226V94.6C45.42 119.797 70 206 95 206c20 0 30-53 45-53s10-73 35-73 36 146 61 146z" fill="#3b85b5" fill-rule="evenodd"/><path d="M20 226s47.429-3.929 67.362-3.959c34.513-1.749 30.172-84.705 44.78-84.97 19.93-.032 17.6 66.31 60.21 82.859 6.598 2.713 14.72.945 25.505 2.856L236 226z" opacity=".8" fill="#3bb566" fill-rule="evenodd"/><path d="M81.571 521.22v42h4v-4h12v4h30v-4h6v-26h-48v-12z" fill="url(#e)" transform="translate(-37.388 -209.44) scale(.7619)"/><path d="M90.571 549.22l-5 4 6 6h6v4h7l-14-14z" opacity=".2" fill="url(#f)" fill-rule="evenodd" transform="translate(-37.388 -209.44) scale(.7619)"/><path d="M90.571 543.22l-5 4 12 12 4 4h9l-20-20z" opacity=".2" fill="url(#g)" fill-rule="evenodd" transform="translate(-37.388 -209.44) scale(.7619)"/><path d="M90.571 537.22l-5 4 22 22h9l-26-26z" opacity=".2" fill="url(#h)" fill-rule="evenodd" transform="translate(-37.388 -209.44) scale(.7619)"/><path d="M123.571 539.22l-20 17 6 7h18v-4h6v-10z" opacity=".2" fill="url(#i)" fill-rule="evenodd" transform="translate(-37.388 -209.44) scale(.7619)"/><path fill="#dce269" d="M36.951 218.915h22.857v.762H36.951z"/><path d="M43.047 215.106v.762h.761v-.762h-.761zm.761.762v.762h.762v-.762h-.762zm.762 0h.762v-.762h-.762v.762zm.762 0v.762h.762v-.762h-.762zm.762 0h.762v-.762h-.762v.762zm.762 0v.762h.762v-.762h-.762zm.762 0h.762v-.762h-.762v.762zm.762 0v.762h.762v-.762h-.762zm.762 0h.762v-.762h-.762v.762zm.762 0v.762h.762v-.762h-.762zm.762 0h.761v-.762h-.761v.762zm.761 0v.762h.762v-.762h-.762zm.762 0h.762v-.762h-.762v.762zm.762 0v.762h.762v-.762h-.762zm.762 0h.762v-.762h-.762v.762zm.762 0v.762h.762v-.762h-.762zM30.856 214.344v.762h.762v-.762h-.762zm.762.762v.762h.762v-.762h-.762zm.762 0h.762v-.762h-.762v.762zm.762 0v.762h.762v-.762h-.762zm.762 0h.762v-.762h-.762v.762zm-3.048 0h-.762v.762h.762v-.762z" style="line-height:normal;-inkscape-font-specification:Sans;text-indent:0;text-align:start;text-decoration-line:none;text-transform:none;block-progression:tb;marker:none" color="#000" font-weight="400" font-family="Sans" overflow="visible" opacity=".6" fill="#dee372"/><path fill="url(#j)" fill-rule="evenodd" d="M103.671 539.219h20v17h-20z" transform="translate(-37.388 -209.44) scale(.7619)"/><path fill="#afc0c6" d="M24.76 187.677h3.049v32H24.76z"/><path fill="#96aab5" d="M24.76 187.677h.763v32h-.762z"/><path style="line-height:normal;-inkscape-font-specification:Sans;text-indent:0;text-align:start;text-decoration-line:none;text-transform:none;block-progression:tb;marker:none" d="M55.237 199.106v.762h-.762v-.762h.762zm-.762.762v.762h-.762v-.762h.762zm-.762 0h-.762v-.762h.762v.762zm-.762 0v.762h-.762v-.762h.762zm-.762 0h-.762v-.762h.762v.762zm-.762 0v.762h-.761v-.762h.761zm-.761 0h-.762v-.762h.762v.762zm-.762 0v.762h-.762v-.762h.762zm-.762 0h-.762v-.762h.762v.762zm-.762 0v.762h-.762v-.762h.762zm-.762 0h-.762v-.762h.762v.762zm-.762 0v.762h-.762v-.762h.762zm-.762 0h-.762v-.762h.762v.762zm-.762 0v.762h-.762v-.762h.762zm-.762 0h-.762v-.762h.762v.762zm-.762 0v.762h-.761v-.762h.761z" color="#000" font-weight="400" font-family="Sans" overflow="visible" opacity=".6" fill="#dee372"/><path d="M85.571 537.22v4h3.9c.036 0 .066-.017.1-.02v.02h1v-4h-1v.019c-.034-.004-.064-.02-.1-.02h-3.9z" fill="url(#k)" transform="translate(-37.388 -209.44) scale(.7619)"/><path d="M85.571 543.22v4h3.9c.036 0 .066-.017.1-.02v.02h1v-4h-1v.019c-.034-.004-.064-.02-.1-.02h-3.9z" fill="url(#l)" transform="translate(-37.388 -209.44) scale(.7619)"/><path d="M85.571 549.22v4h3.9c.036 0 .066-.017.1-.02v.02h1v-4h-1v.019c-.034-.004-.064-.02-.1-.02h-3.9z" fill="url(#m)" transform="translate(-37.388 -209.44) scale(.7619)"/><path opacity=".09" d="M27.809 211.296h3.809v.762h-3.81zM27.809 206.724h3.809v.762h-3.81zM27.809 202.153h3.809v.762h-3.81z"/><path fill="#afc0c6" d="M23.999 199.867h1.524v3.048h-1.524zM23.999 204.439h1.524v3.047h-1.524zM23.999 209.01h1.524v3.048h-1.524z"/><path d="M44.57 203.677v6.858h3.81v.761h-3.81v.762h4.19v.762h.763v-.762h4.19v-.762h-3.81v-.761h3.81v-6.858H44.57zm.762.762h7.62v5.334h-7.62v-5.334zm5.334.762v.762h1.523v-.762h-1.523z" fill="#afc0c6" stroke-linecap="round"/></svg>