<svg xmlns="http://www.w3.org/2000/svg" xmlns:xlink="http://www.w3.org/1999/xlink" viewBox="0 0 256 256" id="svg2" version="1.1"><defs id="defs4"><linearGradient xlink:href="#linearGradient4303" id="linearGradient5329" gradientUnits="userSpaceOnUse" gradientTransform="matrix(1.125 0 0 1 -59.072 -8)" x1="409.571" y1="543.798" x2="409.571" y2="503.798"/><linearGradient id="linearGradient4303"><stop id="stop4305" offset="0" stop-color="#c6cdd1" stop-opacity="1"/><stop id="stop4307" offset="1" stop-color="#e0e5e7" stop-opacity="1"/></linearGradient><linearGradient gradientUnits="userSpaceOnUse" y2="532.798" x2="419.571" y1="512.798" x1="399.571" id="linearGradient4881-9" xlink:href="#linearGradient4400"/><linearGradient id="linearGradient4400"><stop id="stop4402" offset="0" stop-color="#020303" stop-opacity="1"/><stop id="stop4404" offset="1" stop-color="#424649" stop-opacity="0"/></linearGradient><linearGradient gradientUnits="userSpaceOnUse" y2="8" x2="32" y1="52" x1="32" id="linearGradient4659-6" xlink:href="#linearGradient4903"/><linearGradient id="linearGradient4903"><stop offset="0" id="stop4905" stop-color="#eef1f2" stop-opacity="1"/><stop offset="1" id="stop4907" stop-color="#f9fafb" stop-opacity="1"/></linearGradient><linearGradient gradientUnits="userSpaceOnUse" y2="41" x2="43" y1="21" x1="23" id="linearGradient4231-8" xlink:href="#linearGradient4400"/><linearGradient gradientUnits="userSpaceOnUse" y2="1033.362" x2="11" y1="1050.362" x1="11" id="linearGradient4793-0" xlink:href="#linearGradient4159"/><linearGradient id="linearGradient4159"><stop offset="0" id="stop4161" stop-color="#2a2c2f" stop-opacity="1"/><stop offset="1" id="stop4163" stop-color="#424649" stop-opacity="1"/></linearGradient><linearGradient gradientTransform="translate(0 -29)" gradientUnits="userSpaceOnUse" y2="497.798" x2="408.571" y1="549.798" x1="408.571" id="linearGradient4291" xlink:href="#linearGradient4251-0"/><linearGradient id="linearGradient4251-0"><stop offset="0" id="stop4253-4" stop-color="#63984b" stop-opacity="1"/><stop offset="1" id="stop4255-2" stop-color="#8fc278" stop-opacity="1"/></linearGradient><linearGradient gradientTransform="translate(8 -11)" y2="527.798" x2="417.571" y1="518.798" x1="408.571" gradientUnits="userSpaceOnUse" id="linearGradient4259" xlink:href="#linearGradient4227"/><linearGradient id="linearGradient4227"><stop offset="0" id="stop4229" stop-color="#292c2f" stop-opacity="1"/><stop offset="1" id="stop4231" stop-color="#000" stop-opacity="0"/></linearGradient><linearGradient y2="527.798" x2="417.571" y1="518.798" x1="408.571" gradientTransform="translate(16 -11)" gradientUnits="userSpaceOnUse" id="linearGradient4263" xlink:href="#linearGradient4227"/><linearGradient gradientTransform="translate(0 -11)" gradientUnits="userSpaceOnUse" y2="527.798" x2="417.571" y1="518.798" x1="408.571" id="linearGradient4184" xlink:href="#linearGradient4227"/><linearGradient gradientTransform="matrix(.85714 0 0 .88889 60.653 46.644)" gradientUnits="userSpaceOnUse" y2="518.798" x2="428.571" y1="527.798" x1="428.571" id="linearGradient4183" xlink:href="#linearGradient4159"/><linearGradient gradientTransform="translate(0 -11)" gradientUnits="userSpaceOnUse" y2="519.798" x2="398.571" y1="526.798" x1="398.571" id="linearGradient4455" xlink:href="#linearGradient4903"/><linearGradient y2="518.798" x2="428.571" y1="527.798" x1="428.571" gradientTransform="matrix(.85714 0 0 .88889 52.653 46.644)" gradientUnits="userSpaceOnUse" id="linearGradient4281" xlink:href="#linearGradient4159"/><linearGradient y2="518.798" x2="428.571" y1="527.798" x1="428.571" gradientTransform="matrix(.85714 0 0 .88889 44.653 46.644)" gradientUnits="userSpaceOnUse" id="linearGradient4324" xlink:href="#linearGradient4159"/><linearGradient y2="497.798" x2="408.571" y1="549.798" x1="408.571" gradientTransform="translate(0 -7)" gradientUnits="userSpaceOnUse" id="linearGradient4304" xlink:href="#linearGradient4251-0"/><linearGradient y2="527.798" x2="417.571" y1="518.798" x1="408.571" gradientTransform="translate(8 11)" gradientUnits="userSpaceOnUse" id="linearGradient4306" xlink:href="#linearGradient4227"/><linearGradient y2="527.798" x2="417.571" y1="518.798" x1="408.571" gradientTransform="translate(16 11)" gradientUnits="userSpaceOnUse" id="linearGradient4308" xlink:href="#linearGradient4227"/><linearGradient y2="527.798" x2="417.571" y1="518.798" x1="408.571" gradientTransform="translate(0 11)" gradientUnits="userSpaceOnUse" id="linearGradient4310" xlink:href="#linearGradient4227"/><linearGradient y2="518.798" x2="428.571" y1="527.798" x1="428.571" gradientTransform="matrix(.85714 0 0 .88889 60.653 68.644)" gradientUnits="userSpaceOnUse" id="linearGradient4312" xlink:href="#linearGradient4159"/><linearGradient y2="519.798" x2="398.571" y1="526.798" x1="398.571" gradientTransform="translate(0 11)" gradientUnits="userSpaceOnUse" id="linearGradient4314" xlink:href="#linearGradient4903"/><linearGradient y2="518.798" x2="428.571" y1="527.798" x1="428.571" gradientTransform="matrix(.85714 0 0 .88889 52.653 68.644)" gradientUnits="userSpaceOnUse" id="linearGradient4316" xlink:href="#linearGradient4159"/><linearGradient y2="518.798" x2="428.571" y1="527.798" x1="428.571" gradientTransform="matrix(.85714 0 0 .88889 44.653 68.644)" gradientUnits="userSpaceOnUse" id="linearGradient4318" xlink:href="#linearGradient4159"/><linearGradient xlink:href="#linearGradient4159" id="linearGradient4399" gradientUnits="userSpaceOnUse" x1="11" y1="1050.362" x2="11" y2="1033.362"/><style id="current-color-scheme" type="text/css">.ColorScheme-Highlight{color:#3daee9}</style></defs><path d="M16 10h224c3.324 0 6 2.676 6 6v224c0 3.324-2.676 6-6 6H16c-3.324 0-6-2.676-6-6V16c0-3.324 2.676-6 6-6z" id="rect4240" fill="currentColor" fill-opacity=".5" stroke="none" color="#31363b"/><path d="M16 12h224c2.216 0 4 1.784 4 4v224c0 2.216-1.784 4-4 4H16c-2.216 0-4-1.784-4-4V16c0-2.216 1.784-4 4-4z" id="rect4238" fill="currentColor" fill-opacity="1" stroke="none" color="#eff0f1"/><path d="M88.951 28.37c-.497 0-.96.057-1.388.173a3.837 3.837 0 0 0-1.167.531 2.43 2.43 0 0 0-.824.946c-.2.396-.302.85-.302 1.363 0 .746.193 1.333.58 1.762.386.423.97.783 1.754 1.08l1.888.72c.74.286 1.237.57 1.49.85.26.275.39.69.39 1.246 0 .481-.116.887-.349 1.215a1.921 1.921 0 0 1-.888.697 3.59 3.59 0 0 1-1.27.207 5.91 5.91 0 0 1-1.85-.318 6.357 6.357 0 0 1-1.712-.865v1.253c.328.291.82.538 1.482.739.661.2 1.348.3 2.057.3.397 0 .77-.032 1.125-.101a4.29 4.29 0 0 0 1.04-.342c.334-.164.618-.368.856-.611s.43-.555.573-.936c.142-.38.214-.809.214-1.285 0-.386-.049-.732-.144-1.033a2.83 2.83 0 0 0-.356-.762 2.306 2.306 0 0 0-.61-.578 5.08 5.08 0 0 0-.755-.453 12.455 12.455 0 0 0-.928-.397l-1.826-.712c-.555-.217-.941-.456-1.158-.715-.212-.265-.316-.64-.316-1.127 0-.397.115-.73.347-1 .233-.27.527-.46.881-.57A3.89 3.89 0 0 1 89 29.47c.492 0 .983.07 1.475.207.497.137.917.324 1.261.562l.508-.982a5.725 5.725 0 0 0-1.555-.65 6.526 6.526 0 0 0-1.738-.239zm-66.435.157l-.23 11.584h1.318l.11-7.148v-2.738l3.65 8.593h1.198l3.674-8.498v2.612l.112 7.18h1.3l-.23-11.585h-1.666l-3.77 8.8-3.752-8.8h-1.714zm73.798.889l-1.054.08-.215 2.22-1.293.089-.031.746h1.293v5.045c0 .513.045.928.134 1.246.09.317.252.579.485.785.238.206.544.35.92.43.375.079.868.119 1.476.119h.547l.065-.905-.668-.033c-.704-.026-1.155-.136-1.356-.332-.2-.2-.303-.639-.303-1.31V32.55h2.223v-.834h-2.223v-2.301zm14.188 0l-1.055.08-.215 2.22-1.293.089-.03.746h1.292v5.045c0 .513.045.928.135 1.246.09.317.252.579.484.785.238.206.545.35.92.43.376.079.868.119 1.477.119h.547l.062-.905-.666-.033c-.703-.026-1.154-.136-1.355-.332-.201-.2-.303-.639-.303-1.31V32.55h2.223v-.834h-2.223v-2.301zm-71.125 2.127c-1.11 0-2.027.398-2.746 1.197-.72.799-1.078 1.87-1.078 3.213 0 1.328.366 2.38 1.101 3.158.736.773 1.694 1.159 2.873 1.159 1.058 0 2.002-.245 2.832-.737l-.277-.93a8.06 8.06 0 0 1-1.205.5c-.36.112-.76.168-1.2.168-.809 0-1.464-.258-1.966-.771-.503-.518-.776-1.31-.818-2.379h5.673l.047-.668c0-1.227-.276-2.183-.832-2.871-.55-.693-1.351-1.039-2.404-1.039zm8.83 0c-1.074 0-1.935.47-2.586 1.412l-.15-1.238h-1.063v8.394h1.317v-5.117c.11-.735.355-1.325.73-1.77.38-.449.894-.673 1.54-.673.586 0 .987.219 1.204.658.217.434.326 1.163.326 2.19v4.712h1.317v-4.308c.016-.73.045-1.166.088-1.309.143-.63.412-1.11.808-1.443.397-.333.85-.5 1.358-.5.227 0 .426.033.595.101a.86.86 0 0 1 .413.303c.105.138.19.277.253.42.064.138.109.32.135.547.027.227.042.421.047.58.01.153.016.357.016.611v4.998h1.318v-5.41c0-2.105-.856-3.158-2.57-3.158-1.217 0-2.14.568-2.77 1.705-.196-.534-.474-.952-.834-1.254-.36-.301-.857-.451-1.492-.451zm13.291 0c-1.232 0-2.2.401-2.904 1.205-.698.799-1.047 1.857-1.047 3.174 0 1.285.354 2.333 1.062 3.142.71.804 1.672 1.206 2.889 1.206 1.19 0 2.148-.404 2.873-1.213.725-.815 1.086-1.86 1.086-3.135 0-1.317-.349-2.375-1.047-3.174-.698-.804-1.669-1.205-2.912-1.205zm41.91 0c-1.121 0-2.132.209-3.031.627l.357.967a5.67 5.67 0 0 1 1.319-.428c.492-.106.95-.158 1.379-.158.634 0 1.097.15 1.388.451.297.301.446.76.446 1.373v.824h-1.342c-1.35 0-2.332.216-2.951.645-.614.423-.92 1.088-.92 1.998 0 .762.232 1.356.697 1.785.47.428 1.093.643 1.865.643 1.153 0 2.09-.441 2.809-1.325l.142 1.159h1v-5.54c0-1.068-.274-1.837-.824-2.308-.545-.476-1.323-.713-2.334-.713zm22.598 0c-.878 0-1.56.212-2.047.635-.487.418-.73.968-.73 1.65 0 .55.141.999.421 1.348.28.344.799.637 1.555.88l.92.296c.608.195 1.029.402 1.262.625a1.1 1.1 0 0 1 .35.826c0 .476-.14.842-.42 1.095-.28.25-.676.373-1.184.373-.81 0-1.716-.24-2.72-.722v1.103c.867.413 1.743.618 2.626.618.397 0 .76-.048 1.094-.143.338-.095.64-.237.904-.428.27-.19.481-.444.635-.761a2.56 2.56 0 0 0 .23-1.112c0-.338-.032-.625-.095-.857a1.754 1.754 0 0 0-.348-.666 2.17 2.17 0 0 0-.707-.54 6.8 6.8 0 0 0-1.15-.46l-.834-.262c-.545-.175-.901-.339-1.07-.492-.17-.154-.255-.402-.255-.746 0-.408.13-.716.389-.928.265-.217.7-.324 1.309-.324.682 0 1.389.184 2.119.554l.308-.976a5.712 5.712 0 0 0-2.562-.586zm-54.986.086a2.71 2.71 0 0 0-1.452.43c-.455.28-.84.72-1.158 1.324l-.144-1.666H67.21v8.394h1.318V35.36c0-.745.232-1.378.698-1.896.47-.519 1.065-.777 1.785-.777.148 0 .327.02.539.062l.056-1.078a3.553 3.553 0 0 0-.587-.041zm1.427.088l3.326 8.14-1.238 3.159 1.182.254 4.42-11.553h-1.334l-2.395 6.705-2.619-6.705h-1.342zm42.022 0v5.125c0 1.137.249 1.995.746 2.572.502.571 1.241.856 2.215.856.687 0 1.23-.103 1.627-.31a2.64 2.64 0 0 0 1.005-.952l.137 1.103h1.143v-8.394h-1.319v4.713c0 .333-.022.637-.07.912-.047.275-.13.534-.246.777a1.901 1.901 0 0 1-.453.611c-.18.164-.412.294-.697.39-.28.094-.604.142-.97.142-.644 0-1.107-.192-1.388-.578-.275-.387-.412-.952-.412-1.698v-5.27h-1.318zm-75.06.834c1.332 0 2.031.904 2.095 2.713h-4.57c.074-.836.333-1.498.777-1.985.45-.486 1.015-.728 1.697-.728zm22.089 0c.862 0 1.514.309 1.953.928.44.613.658 1.432.658 2.459 0 .655-.09 1.23-.27 1.722-.179.487-.47.878-.872 1.174-.397.29-.887.437-1.469.437-.846 0-1.491-.308-1.935-.921-.445-.614-.667-1.42-.667-2.42 0-1.021.222-1.838.666-2.451.445-.62 1.09-.928 1.936-.928zm42.76 3.521h1.008v1.85c-.63.926-1.486 1.389-2.57 1.389-.397 0-.728-.127-.993-.381-.264-.254-.396-.615-.396-1.08 0-.26.022-.476.07-.65a1.235 1.235 0 0 1 .785-.848c.222-.09.506-.16.85-.207.344-.048.76-.073 1.246-.073zM20 50v1h216v-1H20zm203.352 13.65c-.721 0-1.384.13-1.989.39a4.322 4.322 0 0 0-1.523 1.054 4.815 4.815 0 0 0-.953 1.603 5.837 5.837 0 0 0-.336 2.002c0 .716.098 1.378.295 1.987.201.604.492 1.131.873 1.584.38.452.865.807 1.45 1.062.587.255 1.249.383 1.987.383 1.19 0 2.306-.203 3.344-.606v-4.525h-3.229l-.048.941h2.183v2.96a6.878 6.878 0 0 1-2.04.288c-.632 0-1.183-.098-1.653-.294a2.786 2.786 0 0 1-1.135-.84 3.77 3.77 0 0 1-.63-1.282 6.146 6.146 0 0 1-.21-1.666c0-.778.142-1.476.424-2.093a3.41 3.41 0 0 1 1.256-1.471c.555-.367 1.206-.55 1.953-.55.152 0 .299.004.438.013a3.8 3.8 0 0 1 .408.047l.344.06a1.8 1.8 0 0 1 .308.088l.262.094c.067.022.15.06.248.113a7.902 7.902 0 0 1 .57.303l.29-.887c-.73-.506-1.692-.758-2.887-.758zm-192.235.053l-1.113.08v9.803h1.107v-3.887c0-.264.017-.51.053-.738.04-.228.11-.454.209-.678.099-.224.226-.415.383-.572a1.64 1.64 0 0 1 .611-.383c.255-.098.548-.146.88-.146.532 0 .91.168 1.134.504.228.33.342.848.342 1.55v4.35h1.115v-4.39c0-.914-.207-1.62-.62-2.116-.411-.497-1.002-.744-1.777-.744-.505 0-.963.098-1.37.295a2.537 2.537 0 0 0-.993.84l.04-1.39v-2.378zm37.612 0l-1.102.08v7.77c0 .425.05.778.148 1.06.099.278.252.49.457.637a1.9 1.9 0 0 0 .698.309c.264.053.59.082.98.082h.531l.061-.766-.303-.02c-.192-.013-.342-.026-.449-.035a6.732 6.732 0 0 1-.35-.052 1.022 1.022 0 0 1-.275-.094 1.66 1.66 0 0 1-.182-.149.484.484 0 0 1-.134-.22 3.439 3.439 0 0 1-.061-.309 3.801 3.801 0 0 1-.02-.424v-7.869zm-46.555.08v9.803h1.181v-4.74h2.124c1.105 0 1.91-.223 2.416-.67.505-.452.76-1.117.76-1.994 0-.43-.08-.802-.237-1.116a1.775 1.775 0 0 0-.664-.752 3.176 3.176 0 0 0-.994-.402 5.67 5.67 0 0 0-1.262-.129h-3.324zm29.4 0a.73.73 0 0 0-.53.203.676.676 0 0 0-.2.51c0 .21.067.383.2.518a.729.729 0 0 0 .53.2c.21 0 .385-.066.524-.2a.69.69 0 0 0 .209-.518c0-.21-.07-.38-.21-.51a.709.709 0 0 0-.523-.203zm147.682 0c-.233.161-.583.325-1.049.49-.461.162-.86.277-1.195.344v.885c.3-.04.662-.127 1.088-.262a5.79 5.79 0 0 0 1.068-.435v7.976h-2.363v.805h5.586v-.805h-2.108v-8.998h-1.027zm12.42 0l-4.385 6.365v.967h4.459v2.47h1.06v-2.47h1.122l.08-.86h-1.201v-6.472h-1.135zm16.892 0v9.803h3.653c1.132 0 1.983-.243 2.556-.73.578-.493.868-1.172.868-2.036 0-.622-.17-1.134-.51-1.537-.336-.407-.816-.702-1.438-.88.569-.22.969-.508 1.201-.866.238-.362.356-.812.356-1.35 0-.819-.294-1.423-.885-1.812-.586-.394-1.496-.592-2.726-.592h-3.075zm-205.213.887h2.137c.645 0 1.133.117 1.469.35.34.228.512.62.512 1.175 0 .645-.156 1.096-.465 1.356-.305.26-.823.388-1.557.388h-2.096v-3.27zm206.395 0h1.887c.881 0 1.517.118 1.906.355.39.238.584.672.584 1.303 0 .627-.18 1.066-.537 1.317-.358.246-.881.369-1.57.369h-2.27V64.67zm-18 .498v5.088h-3.352l3.352-5.088zM46.988 66.336c-.743 0-1.318.179-1.73.537-.412.354-.62.82-.62 1.397 0 .465.119.845.356 1.14.237.291.676.54 1.317.746l.779.248c.515.166.871.342 1.068.53a.928.928 0 0 1 .295.699c0 .403-.118.71-.355.926-.238.21-.573.316-1.002.316-.685 0-1.453-.204-2.303-.611v.933a5.13 5.13 0 0 0 2.223.524c.335 0 .645-.04.927-.121.287-.081.54-.203.764-.364a1.65 1.65 0 0 0 .537-.644 2.16 2.16 0 0 0 .195-.94 2.78 2.78 0 0 0-.08-.724 1.49 1.49 0 0 0-.295-.565 1.835 1.835 0 0 0-.597-.457 5.781 5.781 0 0 0-.975-.388l-.705-.221c-.46-.148-.763-.286-.906-.416-.143-.13-.215-.342-.215-.633 0-.345.11-.606.33-.785.224-.184.593-.275 1.108-.275.577 0 1.175.157 1.792.47l.262-.826a4.84 4.84 0 0 0-2.17-.496zm10.158 0c-.989 0-1.792.333-2.41 1-.617.662-.925 1.573-.925 2.732 0 1.11.3 1.996.9 2.659.604.662 1.414.994 2.43.994.434 0 .823-.052 1.168-.155.344-.103.594-.215.746-.336l-.21-.757c-.451.26-.951.388-1.497.388-.784 0-1.378-.256-1.785-.771-.408-.515-.612-1.19-.612-2.022 0-.877.214-1.576.639-2.095.425-.52.989-.778 1.691-.778.555 0 1.05.13 1.485.389l.314-.766c-.152-.103-.398-.207-.738-.314-.336-.112-.734-.168-1.196-.168zm5.875 0c-.948 0-1.803.176-2.564.53l.303.82a4.78 4.78 0 0 1 1.113-.364c.416-.09.805-.135 1.168-.135.537 0 .93.128 1.176.383.25.255.377.643.377 1.162v.698h-1.135c-1.141 0-1.974.182-2.498.545-.52.358-.78.921-.78 1.691 0 .645.199 1.15.592 1.512.399.362.923.543 1.577.543.975 0 1.768-.374 2.377-1.121l.12.98h.846v-4.687c0-.905-.231-1.555-.697-1.954-.46-.402-1.12-.603-1.975-.603zm15.086 0c-.908 0-1.637.399-2.187 1.195l-.129-1.049h-.898v7.104h1.113v-4.33c.094-.622.301-1.122.619-1.498.322-.38.755-.57 1.3-.57.498 0 .839.187 1.022.558.184.367.276.983.276 1.852v3.988h1.113V69.94c.013-.617.038-.988.074-1.109.121-.533.35-.939.686-1.22a1.737 1.737 0 0 1 1.148-.424c.193 0 .36.03.504.087.148.054.263.14.348.256.09.117.16.235.215.356.053.116.092.27.115.463.022.192.034.356.039.49.009.13.014.303.014.517v4.229h1.115v-4.578c0-1.782-.726-2.672-2.176-2.672-1.03 0-1.811.481-2.344 1.443-.165-.452-.4-.805-.705-1.06-.304-.255-.724-.383-1.262-.383zm11.14 0c-.94 0-1.714.338-2.323 1.014-.609.675-.914 1.581-.914 2.718 0 1.124.311 2.014.933 2.672.623.654 1.432.98 2.43.98.895 0 1.696-.208 2.398-.624l-.236-.785a6.83 6.83 0 0 1-1.02.423 3.421 3.421 0 0 1-1.013.141c-.685 0-1.24-.218-1.666-.652-.425-.439-.656-1.11-.691-2.014h4.8l.041-.564c0-1.039-.235-1.848-.705-2.43-.465-.587-1.144-.88-2.035-.88zm7.472 0c-.909 0-1.64.399-2.19 1.195l-.127-1.049h-.9v7.104h1.115v-4.33c.094-.622.3-1.122.617-1.498.323-.38.757-.57 1.303-.57.497 0 .838.187 1.022.558.183.367.275.983.275 1.852v3.988h1.113V69.94c.014-.617.039-.988.074-1.109.121-.533.35-.939.686-1.22a1.732 1.732 0 0 1 1.147-.424c.192 0 .36.03.503.087a.73.73 0 0 1 .35.256c.09.117.161.235.215.356.054.116.09.27.113.463.023.192.037.356.041.49.01.13.014.303.014.517v4.229h1.115v-4.578c0-1.782-.726-2.672-2.176-2.672-1.03 0-1.81.481-2.343 1.443-.166-.452-.401-.805-.706-1.06-.304-.255-.724-.383-1.261-.383zm11.246 0c-1.043 0-1.862.34-2.457 1.02-.591.675-.887 1.57-.887 2.685 0 1.088.3 1.973.9 2.658.6.68 1.414 1.022 2.444 1.022 1.007 0 1.816-.343 2.43-1.028.613-.689.92-1.573.92-2.652 0-1.114-.296-2.01-.887-2.686-.591-.68-1.411-1.02-2.463-1.02zm8.056.074c-.43 0-.839.12-1.228.361-.385.238-.712.611-.98 1.122l-.122-1.41h-.892v7.103h1.113v-4.022c0-.63.198-1.164.592-1.603.398-.439.9-.658 1.51-.658.125 0 .278.017.457.052l.047-.912a3.01 3.01 0 0 0-.497-.033zm-78.875.072l2.813 6.89-1.047 2.671 1 .215 3.74-9.776h-1.129l-2.027 5.674-2.215-5.674h-1.135zm13.872 0v7.104h1.101v-7.104h-1.101zm66.212 0l2.813 6.89-1.047 2.671 1 .215 3.738-9.776h-1.127l-2.027 5.674-2.217-5.674h-1.133zm-27.957.706c1.128 0 1.718.766 1.772 2.296h-3.867c.062-.707.282-1.266.658-1.677.38-.412.86-.62 1.437-.62zm18.692 0c.73 0 1.279.261 1.65.785.372.519.559 1.213.559 2.082 0 .555-.076 1.04-.229 1.457a2.115 2.115 0 0 1-.738.994c-.336.246-.75.369-1.242.369-.716 0-1.263-.26-1.639-.78-.376-.519-.564-1.2-.564-2.046 0-.864.188-1.557.564-2.076.376-.524.923-.785 1.639-.785zm121.785 1.666h1.92c.967 0 1.673.147 2.121.443.448.295.672.793.672 1.496 0 .662-.195 1.143-.584 1.443-.385.3-1.002.451-1.848.451h-2.281v-3.833zM63.74 70.17h.854v1.562c-.533.784-1.258 1.176-2.176 1.176-.336 0-.616-.107-.84-.322-.224-.215-.336-.518-.336-.912 0-.22.02-.403.06-.551a1.067 1.067 0 0 1 .665-.719 3.06 3.06 0 0 1 .719-.175 7.88 7.88 0 0 1 1.054-.06zm140.752 1.934c0 .326-.092 1.469-.275 3.43h.65l.201-.753c.13-.497.261-1.007.391-1.531.13-.528.195-.82.195-.879v-.267h-1.162zM20 138v1h216v-1H20zm5.115 13.65c-.42 0-.813.048-1.176.147a3.25 3.25 0 0 0-.986.451 2.053 2.053 0 0 0-.697.799 2.52 2.52 0 0 0-.256 1.154c0 .631.163 1.128.49 1.49.327.358.822.664 1.485.914l1.597.61c.627.242 1.047.481 1.262.719.22.232.328.584.328 1.054 0 .408-.098.75-.295 1.028a1.625 1.625 0 0 1-.752.59 3.037 3.037 0 0 1-1.074.175 4.98 4.98 0 0 1-1.564-.27 5.374 5.374 0 0 1-1.45-.73v1.06c.278.247.697.454 1.256.624a5.95 5.95 0 0 0 1.738.256c.336 0 .654-.03.954-.088.304-.058.597-.155.879-.29.281-.138.525-.309.726-.515a2.24 2.24 0 0 0 .483-.793 3.1 3.1 0 0 0 .181-1.088c0-.326-.04-.618-.121-.873a2.395 2.395 0 0 0-.303-.644 1.945 1.945 0 0 0-.515-.49 4.278 4.278 0 0 0-.639-.381 10.138 10.138 0 0 0-.785-.336l-1.545-.606c-.47-.183-.797-.384-.98-.603-.18-.224-.268-.542-.268-.953 0-.336.098-.618.295-.846.197-.228.446-.39.746-.485a3.29 3.29 0 0 1 1.027-.146c.417 0 .832.057 1.248.174.421.116.778.275 1.069.476l.43-.832a4.851 4.851 0 0 0-1.317-.55 5.52 5.52 0 0 0-1.47-.202zm163.914 0c-.501 0-.994.073-1.482.221-.488.143-.882.326-1.182.545l.328.852c.31-.202.661-.365 1.055-.49a3.852 3.852 0 0 1 1.16-.188c.17 0 .334.015.49.047.157.027.32.083.49.168.17.08.317.186.438.316.121.125.22.296.301.516.08.219.121.473.121.76 0 .264-.026.505-.08.724a2.29 2.29 0 0 1-.281.664 6.093 6.093 0 0 1-.37.55c-.107.14-.285.353-.53.64l-3.163 3.732.174.879h5.244l.06-.805h-4.222l2.63-3.082c.319-.371.565-.677.74-.914.178-.237.342-.49.49-.764a2.89 2.89 0 0 0 .308-.82c.058-.268.088-.572.088-.912 0-.39-.058-.74-.174-1.049a2.126 2.126 0 0 0-.457-.758 2.365 2.365 0 0 0-.658-.484 2.81 2.81 0 0 0-.752-.268 3.584 3.584 0 0 0-.766-.08zm8.164 0c-.716 0-1.325.212-1.826.637-.501.42-.875 1.008-1.12 1.76-.243.747-.362 1.636-.362 2.666 0 .743.063 1.419.193 2.027a5.79 5.79 0 0 0 .592 1.598 2.92 2.92 0 0 0 1.033 1.066c.43.251.926.377 1.49.377.56 0 1.05-.126 1.471-.377a2.76 2.76 0 0 0 1.014-1.074c.255-.46.445-.993.57-1.598.125-.604.19-1.276.19-2.02a9.77 9.77 0 0 0-.204-2.081c-.134-.618-.331-1.149-.595-1.592a2.73 2.73 0 0 0-1.016-1.027c-.412-.242-.888-.362-1.43-.362zm8.084 0c-.716 0-1.325.212-1.826.637-.501.42-.875 1.008-1.12 1.76-.243.747-.364 1.636-.364 2.666 0 .743.065 1.419.195 2.027a5.79 5.79 0 0 0 .592 1.598 2.92 2.92 0 0 0 1.033 1.066c.43.251.926.377 1.49.377.56 0 1.05-.126 1.471-.377a2.76 2.76 0 0 0 1.014-1.074c.255-.46.445-.993.57-1.598a9.968 9.968 0 0 0 .188-2.02 9.78 9.78 0 0 0-.202-2.081c-.134-.618-.333-1.149-.597-1.592a2.725 2.725 0 0 0-1.014-1.027c-.412-.242-.888-.362-1.43-.362zm8.393.133l-.195 9.803h1.115l.094-6.049v-2.316l3.087 7.271h1.014l3.11-7.191v2.209l.093 6.076h1.102l-.195-9.803h-1.41l-3.19 7.447-3.176-7.447h-1.45zm12.125 0a.734.734 0 0 0-.531.203.676.676 0 0 0-.202.51c0 .21.067.383.202.518a.733.733 0 0 0 .53.2.721.721 0 0 0 .524-.2.69.69 0 0 0 .21-.518c0-.21-.07-.38-.21-.51a.709.709 0 0 0-.523-.203zm2.773 0v9.803h3.653c1.132 0 1.983-.243 2.556-.73.578-.493.868-1.172.868-2.036 0-.622-.17-1.134-.51-1.537-.336-.407-.816-.702-1.438-.88.569-.22.969-.508 1.201-.866.238-.362.356-.812.356-1.35 0-.819-.294-1.423-.885-1.812-.586-.394-1.496-.592-2.726-.592h-3.075zm-31.375.774c1.424 0 2.135 1.371 2.135 4.115 0 1.383-.185 2.43-.557 3.142-.367.708-.893 1.061-1.578 1.061-.693 0-1.235-.357-1.625-1.068-.385-.717-.576-1.76-.576-3.13-.004-1.31.19-2.324.584-3.04.394-.72.933-1.08 1.617-1.08zm8.084 0c1.424 0 2.135 1.371 2.135 4.115 0 1.383-.185 2.43-.557 3.142-.367.708-.893 1.061-1.578 1.061-.693 0-1.235-.357-1.625-1.068-.385-.717-.576-1.76-.576-3.13-.004-1.31.19-2.324.584-3.04.394-.72.933-1.08 1.617-1.08zm24.473.113h1.887c.881 0 1.517.118 1.906.355.39.238.584.672.584 1.303 0 .627-.18 1.066-.537 1.317-.358.246-.881.369-1.57.369h-2.27v-3.344zm-186.977 1.666c-.948 0-1.803.176-2.564.53l.3.82a4.796 4.796 0 0 1 1.116-.364c.416-.09.805-.135 1.168-.135.537 0 .93.128 1.176.383.25.255.375.643.375 1.162v.698h-1.135c-1.141 0-1.974.182-2.498.545-.52.358-.777.921-.777 1.691 0 .645.196 1.15.59 1.512.398.362.924.543 1.578.543.975 0 1.768-.374 2.377-1.121l.12.98h.846v-4.687c0-.905-.233-1.555-.699-1.954-.46-.402-1.118-.603-1.973-.603zm7.82 0c-1.024 0-1.798.462-2.322 1.389l-.113-1.243h-.928v10.22h1.116v-2.673l-.047-1.644c.528.89 1.286 1.336 2.275 1.336.931 0 1.657-.337 2.176-1.008.52-.671.78-1.557.78-2.658 0-1.146-.251-2.052-.753-2.72-.496-.666-1.225-1-2.183-1zm-21.33.146l1.995 7.104h1.06l1.868-6.123 1.974 6.123h.986l1.915-7.104h-1.022l-1.416 5.721-1.853-5.72h-1.188l-1.746 5.74-1.518-5.74h-1.054zm195.975 0v7.104h1.1v-7.104h-1.1zm-174.771.706c1.28 0 1.92.95 1.92 2.853 0 1.884-.662 2.826-1.987 2.826-.671 0-1.191-.257-1.558-.771-.363-.515-.543-1.237-.543-2.168.004-.86.183-1.53.537-2.014.354-.483.897-.726 1.63-.726zm179.283 1.666h1.92c.967 0 1.673.147 2.121.443.448.295.672.793.672 1.496 0 .662-.195 1.143-.584 1.443-.385.3-1.002.452-1.848.452h-2.281v-3.834zM43.49 158.17h.854v1.562c-.533.784-1.258 1.176-2.176 1.176a1.16 1.16 0 0 1-.838-.322c-.224-.215-.336-.518-.336-.912 0-.22.02-.403.06-.551a1.042 1.042 0 0 1 .665-.719c.188-.076.428-.135.718-.175.291-.04.641-.06 1.053-.06zM20 226v1h216v-1H20z" id="rect7886" fill="currentColor" fill-opacity="1" stroke="none" color="#4d4d4d"/><path class="ColorScheme-Highlight" d="M20 138V81c40 0 50 10 85 10 20 0 20-5 35-5s30-5 40-5h56v57z" id="path10" fill="currentColor" fill-opacity="1" stroke="none"/><path class="ColorScheme-Highlight" d="M20 226v-55c55 0 65 50 80 50 20 0 30-5 45-5s25 5 50 5h41v5z" id="path12" fill="currentColor" fill-opacity="1" stroke="none"/><g transform="translate(-244.224 -159.468) scale(.69565)" id="layer1-1-8" fill-opacity="1"><rect ry="0" y="497.798" x="385.571" height="52" width="46" id="rect4139-3" opacity="1" fill="url(#linearGradient5329)" stroke="none"/><path id="path4795-0" d="M387.571 543.798l6 6h38v-48l-2-2v44z" opacity=".2" fill="url(#linearGradient4881-9)" fill-rule="evenodd" stroke="none" stroke-width="1" stroke-linecap="butt" stroke-linejoin="miter" stroke-opacity="1"/><path id="rect4492-7" opacity="1" fill="#737b81" stroke="none" stroke-width="2.8" stroke-miterlimit="4" stroke-dasharray="none" stroke-opacity=".55" d="M385.571 548.798h46v1h-46z"/><path id="rect4671-9" opacity="1" fill="#292c2e" stroke="none" stroke-width=".1" stroke-miterlimit="4" stroke-dasharray="none" stroke-opacity="1" d="M393.571 545.798h30v4h-30z"/><rect id="rect4963-4" width="15.6" height="15.6" x="400.772" y="506.898" ry="7.8" opacity="1" fill="#abb9be" stroke="none" stroke-width=".1" stroke-miterlimit="4" stroke-dasharray="none" stroke-opacity="1"/><path transform="translate(376.571 491.798)" id="path4648-3" d="M11 8v44h42V8H11z" fill="url(#linearGradient4659-6)" fill-rule="evenodd" stroke="none" stroke-width="1" stroke-linecap="butt" stroke-linejoin="miter" stroke-opacity="1"/><path id="rect4985-0" opacity="1" fill="#fdbc4a" stroke="none" stroke-width=".1" stroke-miterlimit="4" stroke-dasharray="none" stroke-opacity="1" d="M390.571 532.798h12v5h-12z"/><path id="rect5119-1" opacity="1" fill="#fff" stroke="none" stroke-width=".1" stroke-miterlimit="4" stroke-dasharray="none" stroke-opacity="1" d="M391.571 533.798h10v1h-10z"/><path id="rect5121-8" opacity="1" fill="#fff" stroke="none" stroke-width=".1" stroke-miterlimit="4" stroke-dasharray="none" stroke-opacity="1" d="M391.571 535.798h8v1h-8z"/><path id="rect4194-6" opacity="1" fill="#202324" stroke="none" stroke-opacity="1" d="M393.571 548.798h30v1h-30z"/><rect ry="0" y="546.798" x="395.572" height="1" width="2" id="rect4544-7" opacity="1" fill="#f9cf8d" stroke="none" stroke-opacity="1"/><rect ry="0" y="547.798" x="395.572" height="1" width="2" id="rect4546-52" opacity="1" fill="#f6b44d" stroke="none" stroke-opacity="1"/><rect ry="0" y="546.798" x="419.572" height="1" width="2" id="rect4544-0-7" opacity="1" fill="#f9cf8d" stroke="none" stroke-opacity="1"/><rect ry="0" y="547.798" x="419.572" height="1" width="2" id="rect4546-7-1" opacity="1" fill="#f6b44d" stroke="none" stroke-opacity="1"/><rect ry="0" y="546.798" x="398.572" height="1" width="2" id="rect4544-6-7" opacity="1" fill="#f9cf8d" stroke="none" stroke-opacity="1"/><rect ry="0" y="547.798" x="398.572" height="1" width="2" id="rect4546-5-4" opacity="1" fill="#f6b44d" stroke="none" stroke-opacity="1"/><rect ry="0" y="546.798" x="401.572" height="1" width="2" id="rect4544-1-7" opacity="1" fill="#f9cf8d" stroke="none" stroke-opacity="1"/><rect ry="0" y="547.798" x="401.572" height="1" width="2" id="rect4546-3-3" opacity="1" fill="#f6b44d" stroke="none" stroke-opacity="1"/><rect ry="0" y="546.798" x="407.571" height="1" width="2" id="rect4544-06-6" opacity="1" fill="#f9cf8d" stroke="none" stroke-opacity="1"/><rect ry="0" y="547.798" x="407.571" height="1" width="2" id="rect4546-6-6" opacity="1" fill="#f6b44d" stroke="none" stroke-opacity="1"/><rect ry="0" y="546.798" x="416.572" height="1" width="2" id="rect4544-9-2" opacity="1" fill="#f9cf8d" stroke="none" stroke-opacity="1"/><rect ry="0" y="547.798" x="416.572" height="1" width="2" id="rect4546-0-4" opacity="1" fill="#f6b44d" stroke="none" stroke-opacity="1"/><rect ry="0" y="546.798" x="413.572" height="1" width="2" id="rect4544-8-5" opacity="1" fill="#f9cf8d" stroke="none" stroke-opacity="1"/><rect ry="0" y="547.798" x="413.572" height="1" width="2" id="rect4546-55-52" opacity="1" fill="#f6b44d" stroke="none" stroke-opacity="1"/><rect ry="0" y="546.798" x="410.572" height="1" width="2" id="rect4544-8-8-6" opacity="1" fill="#f9cf8d" stroke="none" stroke-opacity="1"/><rect ry="0" y="547.798" x="410.572" height="1" width="2" id="rect4546-55-5-8" opacity="1" fill="#f6b44d" stroke="none" stroke-opacity="1"/><rect ry="0" y="546.798" x="404.572" height="1" width="2" id="rect4544-8-89-4" opacity="1" fill="#f9cf8d" stroke="none" stroke-opacity="1"/><rect ry="0" y="547.798" x="404.572" height="1" width="2" id="rect4546-55-7-8" opacity="1" fill="#f6b44d" stroke="none" stroke-opacity="1"/><path id="rect4979-6" opacity="1" fill="#f2f2f2" stroke="none" stroke-width=".1" stroke-miterlimit="4" stroke-dasharray="none" stroke-opacity="1" d="M414.571 532.798h13v1h-13z"/><path id="rect4981-9" opacity="1" fill="#f2f2f2" stroke="none" stroke-width=".1" stroke-miterlimit="4" stroke-dasharray="none" stroke-opacity="1" d="M414.571 534.798h13v1h-13z"/><path id="rect4983-9" opacity="1" fill="#f2f2f2" stroke="none" stroke-width=".1" stroke-miterlimit="4" stroke-dasharray="none" stroke-opacity="1" d="M414.571 536.798h13v1h-13z"/><path transform="translate(376.571 491.798)" id="rect4200-3" d="M18.707 14.293l-1.414 1.414 8 8L25 24l30 30V44L30 19l-3.293 3.293-8-8zm-2.146 6.146l-2.122 2.122 5.5 5.5-1.353 1.353L47.17 58h6.953L16.561 20.44z" opacity=".2" fill="url(#linearGradient4231-8)" stroke="none" stroke-opacity="1"/><g id="layer1-7-9" transform="translate(387.571 -527.564)" fill="url(#linearGradient4793-0)"><path d="M7 3c-.554 0-1 .446-1 1s.446 1 1 1 1-.446 1-1-.446-1-1-1zm7 0l-2 2 3 3-3 3 2 2 3-3 2-2-5-5zM4.5 9C3.669 9 3 9.669 3 10.5S3.669 12 4.5 12 6 11.331 6 10.5 5.331 9 4.5 9zM9 15c-1.108 0-2 .892-2 2s.892 2 2 2 2-.892 2-2-.892-2-2-2z" transform="translate(0 1030.362)" id="rect4231-3" opacity="1" fill="url(#linearGradient4399)" fill-opacity="1" stroke="none"/></g></g><g transform="translate(-298.165 -324.18) scale(.8421)" id="layer1-6" fill-opacity="1" stroke="none"><path id="rect4283" d="M382.571 504.798v16h52v-16z" opacity="1" fill="url(#linearGradient4291)"/><path id="path4257" d="M422.571 507.798l-6 8 5 5h13v-1l-12-12z" opacity=".2" fill="url(#linearGradient4259)" fill-rule="evenodd" stroke-width="1" stroke-linecap="butt" stroke-linejoin="miter" stroke-opacity="1"/><path id="path4261" d="M430.571 507.798l-6 8 5 5h5v-9l-4-4z" opacity=".2" fill="url(#linearGradient4263)" fill-rule="evenodd" stroke-width="1" stroke-linecap="butt" stroke-linejoin="miter" stroke-opacity="1"/><path id="path4181" d="M408.571 515.798l6-8 13 13h-15 1z" opacity=".2" fill="url(#linearGradient4184)" fill-rule="evenodd" stroke-width="1" stroke-linecap="butt" stroke-linejoin="miter" stroke-opacity="1"/><path id="rect4293" opacity="1" fill="#dce269" d="M382.571 519.798h52v1h-52z"/><path id="rect4175" opacity="1" fill="url(#linearGradient4183)" d="M424.571 507.798h6v8h-6z"/><path id="rect4193" d="M431.571 507.798v1h1v-1h-1zm1 1v1h1v-1h-1zm0 1h-1v1h1v-1zm0 1v1h1v-1h-1zm0 1h-1v1h1v-1zm0 1v1h1v-1h-1zm0 1h-1v1h1v-1zm0 1v1h1v-1h-1zm0 1h-1v1h1v-1zm0 1v1h1v-1h-1zm-1 0h-1v1h1v-1zm-1 1h-1v1h1v-1zm-1 0v-1h-1v1h1zm-1 0h-1v1h1v-1zm-1 0v-1h-1v1h1z" opacity=".6" fill="#dee372"/><path id="rect4277" opacity="1" fill="url(#linearGradient4455)" d="M385.571 508.798h19v7h-19z"/><path id="rect4279" opacity="1" fill="url(#linearGradient4281)" d="M416.571 507.798h6v8h-6z"/><path id="rect4322" opacity="1" fill="url(#linearGradient4324)" d="M408.571 507.798h6v8h-6z"/><path id="rect4457" opacity="1" fill="#f55" d="M386.571 509.798h8v1h-8z"/><path id="rect4459" opacity="1" fill="#35383b" d="M386.571 511.798h3v1h-3z"/><path id="rect4461" opacity="1" fill="#35383b" d="M390.571 511.798h4v1h-4z"/><path id="rect4463" d="M390.571 513.798v1h-1v1h10v-1h-1v-1h-1v1h-2v-1h-1v1h-1v-1h-1v1h-1v-1h-1z" opacity="1" fill="#35383b"/><path d="M382.571 526.798v16h52v-16z" id="path4275" opacity="1" fill="url(#linearGradient4304)"/><path d="M422.571 529.798l-6 8 5 5h13v-1l-12-12z" id="path4277" opacity=".2" fill="url(#linearGradient4306)" fill-rule="evenodd" stroke-width="1" stroke-linecap="butt" stroke-linejoin="miter" stroke-opacity="1"/><path d="M430.571 529.798l-6 8 5 5h5v-9l-4-4z" id="path4279" opacity=".2" fill="url(#linearGradient4308)" fill-rule="evenodd" stroke-width="1" stroke-linecap="butt" stroke-linejoin="miter" stroke-opacity="1"/><path d="M408.571 537.798l6-8 13 13h-15 1z" id="path4281" opacity=".2" fill="url(#linearGradient4310)" fill-rule="evenodd" stroke-width="1" stroke-linecap="butt" stroke-linejoin="miter" stroke-opacity="1"/><path id="rect4284" opacity="1" fill="#dce269" d="M382.571 541.798h52v1h-52z"/><path id="rect4286" opacity="1" fill="url(#linearGradient4312)" d="M424.571 529.798h6v8h-6z"/><path d="M431.571 529.798v1h1v-1h-1zm1 1v1h1v-1h-1zm0 1h-1v1h1v-1zm0 1v1h1v-1h-1zm0 1h-1v1h1v-1zm0 1v1h1v-1h-1zm0 1h-1v1h1v-1zm0 1v1h1v-1h-1zm0 1h-1v1h1v-1zm0 1v1h1v-1h-1zm-1 0h-1v1h1v-1zm-1 1h-1v1h1v-1zm-1 0v-1h-1v1h1zm-1 0h-1v1h1v-1zm-1 0v-1h-1v1h1z" id="path4288" opacity=".6" fill="#dee372"/><path id="rect4290" opacity="1" fill="url(#linearGradient4314)" d="M385.571 530.798h19v7h-19z"/><path id="rect4292" opacity="1" fill="url(#linearGradient4316)" d="M416.571 529.798h6v8h-6z"/><path id="rect4294" opacity="1" fill="url(#linearGradient4318)" d="M408.571 529.798h6v8h-6z"/><path id="rect4296" opacity="1" fill="#f55" d="M386.571 531.798h8v1h-8z"/><path id="rect4298" opacity="1" fill="#35383b" d="M386.571 533.798h3v1h-3z"/><path id="rect4300" opacity="1" fill="#35383b" d="M390.571 533.798h4v1h-4z"/><path d="M390.571 535.798v1h-1v1h10v-1h-1v-1h-1v1h-2v-1h-1v1h-1v-1h-1v1h-1v-1h-1z" id="path4302" opacity="1" fill="#35383b"/></g></svg>