<svg xmlns="http://www.w3.org/2000/svg" viewBox="0 0 256 256" id="svg2" version="1.1"><defs id="defs4"><style id="current-color-scheme" type="text/css">.ColorScheme-Text{color:#4d4d4d}.ColorScheme-Highlight{color:#3daee9}</style></defs><path d="M16 10h224c3.324 0 6 2.676 6 6v224c0 3.324-2.676 6-6 6H16c-3.324 0-6-2.676-6-6V16c0-3.324 2.676-6 6-6z" id="rect4240" fill="currentColor" fill-opacity=".5" stroke="none" color="#31363b"/><path d="M16 12h224c2.216 0 4 1.784 4 4v224c0 2.216-1.784 4-4 4H16c-2.216 0-4-1.784-4-4V16c0-2.216 1.784-4 4-4z" id="rect4238" fill="currentColor" fill-opacity="1" stroke="none" color="#eff0f1"/><path class="ColorScheme-Text" d="M98.996 26.576a5.29 5.29 0 0 0-1.387.174 3.848 3.848 0 0 0-1.168.531 2.43 2.43 0 0 0-.824.946c-.2.396-.3.85-.3 1.363 0 .746.191 1.333.578 1.762.386.423.97.783 1.753 1.08l1.89.72c.74.286 1.235.57 1.49.85.259.275.39.69.39 1.246 0 .481-.117.885-.35 1.213a1.925 1.925 0 0 1-.888.7 3.59 3.59 0 0 1-1.27.206 5.91 5.91 0 0 1-1.85-.318 6.357 6.357 0 0 1-1.712-.865v1.253c.328.291.82.538 1.482.739.661.2 1.348.3 2.057.3.396 0 .772-.034 1.127-.103a4.27 4.27 0 0 0 1.039-.34c.333-.164.617-.368.855-.611s.43-.555.572-.936a3.65 3.65 0 0 0 .215-1.287c0-.386-.047-.73-.142-1.031a2.83 2.83 0 0 0-.358-.762 2.306 2.306 0 0 0-.611-.578 5.08 5.08 0 0 0-.754-.453 12.457 12.457 0 0 0-.928-.396l-1.826-.715c-.555-.217-.941-.454-1.158-.713-.212-.265-.316-.64-.316-1.127 0-.397.114-.73.347-1 .233-.27.527-.46.881-.57a3.89 3.89 0 0 1 1.215-.176c.492 0 .985.07 1.476.207.498.137.916.324 1.26.562l.508-.982a5.728 5.728 0 0 0-1.555-.653 6.524 6.524 0 0 0-1.738-.236zm-44.25.063l-1.316.095v2.61l.062 1.912a3.32 3.32 0 0 0-.404-.594 2.557 2.557 0 0 0-.508-.469 2.118 2.118 0 0 0-.723-.334 3.731 3.731 0 0 0-.95-.109c-1.112 0-1.993.396-2.643 1.19-.646.793-.97 1.831-.97 3.117 0 1.354.314 2.431.938 3.23.63.794 1.524 1.19 2.682 1.19 1.2 0 2.072-.548 2.617-1.643l.12 1.484h1.095v-11.68zm29.922 0l-1.303.095v11.584h1.303v-3.07l.904-.857 3.332 3.927h1.547l-3.967-4.562 3.666-3.832h-1.595l-3.936 4.26.049-1.729V26.64zm-62.43.095v11.584h1.397v-5.404h6.03v5.404h1.396V26.734h-1.397v5.164h-6.03v-5.164h-1.396zm38.563 0v11.584h3.513c1.857 0 3.318-.505 4.381-1.515 1.064-1.01 1.594-2.447 1.594-4.309 0-.783-.097-1.49-.293-2.119-.196-.635-.472-1.175-.832-1.625a4.73 4.73 0 0 0-1.31-1.127 5.823 5.823 0 0 0-1.713-.676 9.283 9.283 0 0 0-2.055-.213H60.8zm12.4 0a.865.865 0 0 0-.627.239.796.796 0 0 0-.236.601.83.83 0 0 0 .236.612.865.865 0 0 0 .627.238.86.86 0 0 0 .62-.238.814.814 0 0 0 .245-.612.784.784 0 0 0-.246-.601.838.838 0 0 0-.619-.239zm68.262 0v7.387c0 1.333.383 2.391 1.15 3.174.767.783 1.897 1.174 3.389 1.174.746 0 1.408-.105 1.99-.317.582-.217 1.057-.518 1.422-.904.37-.391.65-.85.84-1.373.19-.524.287-1.101.287-1.73v-7.41h-1.398v7.363c0 1.068-.264 1.88-.793 2.435-.53.55-1.311.824-2.348.824-2.095 0-3.143-1.085-3.143-3.26v-7.363h-1.396zm-79.266 1.047h1.824c1.593 0 2.802.384 3.627 1.15.83.762 1.245 1.962 1.245 3.602 0 1.545-.391 2.72-1.174 3.524-.778.798-1.938 1.199-3.483 1.199h-2.039V27.78zM36.488 29.75c-1.121 0-2.132.207-3.031.625l.357.969a5.654 5.654 0 0 1 1.317-.428c.492-.106.952-.16 1.38-.16.635 0 1.098.151 1.39.453.296.301.445.76.445 1.373v.824h-1.342c-1.349 0-2.332.214-2.951.643-.614.423-.92 1.09-.92 2 0 .762.232 1.357.697 1.785.47.428 1.093.643 1.865.643 1.153 0 2.09-.441 2.809-1.325l.142 1.159h1v-5.54c0-1.068-.276-1.837-.826-2.308-.545-.476-1.321-.713-2.332-.713zm42.307 0c-.878 0-1.56.212-2.047.635-.487.418-.73.968-.73 1.65 0 .55.141.999.421 1.348.28.344.799.637 1.555.88l.92.294c.608.195 1.029.404 1.262.627.233.222.35.498.35.826 0 .476-.14.84-.42 1.094-.28.248-.676.373-1.184.373-.81 0-1.716-.24-2.72-.721v1.101c.867.413 1.743.62 2.626.62.397 0 .76-.048 1.094-.143.338-.095.64-.237.904-.428.27-.19.482-.444.635-.761a2.56 2.56 0 0 0 .23-1.112 3.33 3.33 0 0 0-.095-.857 1.754 1.754 0 0 0-.348-.666 2.17 2.17 0 0 0-.707-.54 6.8 6.8 0 0 0-1.15-.46l-.834-.262c-.545-.175-.901-.339-1.07-.492-.17-.154-.255-.402-.255-.746 0-.408.13-.716.39-.928.264-.217.7-.326 1.308-.326.682 0 1.389.186 2.119.556l.31-.976a5.72 5.72 0 0 0-2.564-.586zm29.715 0c-1.212 0-2.125.546-2.744 1.64l-.135-1.466h-1.096V42h1.317v-3.158l-.055-1.944c.624 1.053 1.52 1.579 2.69 1.579 1.1 0 1.958-.396 2.572-1.19.613-.793.92-1.841.92-3.142 0-1.355-.297-2.425-.89-3.213-.586-.789-1.447-1.182-2.58-1.182zm8.277 0c-1.121 0-2.132.207-3.031.625l.357.969a5.654 5.654 0 0 1 1.317-.428c.492-.106.952-.16 1.38-.16.635 0 1.098.151 1.39.453.295.301.443.76.443 1.373v.824h-1.34c-1.35 0-2.334.214-2.953.643-.614.423-.92 1.09-.92 2 0 .762.233 1.357.699 1.785.47.428 1.09.643 1.863.643 1.153 0 2.091-.441 2.81-1.325l.143 1.159h1v-5.54c0-1.068-.276-1.837-.826-2.308-.545-.476-1.322-.713-2.332-.713zm8.83 0c-1.169 0-2.117.393-2.847 1.182-.73.783-1.096 1.858-1.096 3.228 0 1.312.354 2.36 1.062 3.143.714.783 1.673 1.174 2.873 1.174.513 0 .974-.06 1.381-.182.408-.122.701-.254.881-.397l-.246-.896a3.49 3.49 0 0 1-1.77.459c-.925 0-1.63-.304-2.11-.912-.482-.608-.722-1.405-.722-2.389 0-1.037.252-1.86.754-2.474.503-.614 1.168-.92 1.998-.92.656 0 1.241.152 1.754.459l.373-.905c-.18-.121-.47-.246-.873-.373-.396-.132-.867-.197-1.412-.197zm7.086 0c-1.11 0-2.027.399-2.746 1.197-.72.799-1.078 1.87-1.078 3.213 0 1.328.368 2.38 1.103 3.158.736.773 1.692 1.159 2.872 1.159 1.057 0 2.003-.247 2.833-.739l-.279-.927a8.06 8.06 0 0 1-1.205.5c-.36.11-.76.166-1.2.166-.808 0-1.463-.257-1.966-.77-.502-.518-.776-1.31-.818-2.379h5.674l.048-.668c0-1.227-.278-2.183-.834-2.87-.55-.694-1.351-1.04-2.404-1.04zm22.518 0c-.878 0-1.56.212-2.047.635-.487.418-.73.968-.73 1.65 0 .55.14.999.421 1.348.28.344.799.637 1.555.88l.92.294c.608.195 1.029.404 1.262.627a1.1 1.1 0 0 1 .35.826c0 .476-.14.84-.42 1.094-.281.248-.677.373-1.184.373-.81 0-1.716-.24-2.721-.721v1.101c.867.413 1.744.62 2.627.62.397 0 .76-.048 1.094-.143.338-.095.64-.237.904-.428.27-.19.481-.444.635-.761a2.56 2.56 0 0 0 .23-1.112c0-.338-.032-.624-.096-.857a1.755 1.755 0 0 0-.347-.666 2.17 2.17 0 0 0-.707-.54 6.8 6.8 0 0 0-1.15-.46l-.833-.262c-.544-.175-.903-.339-1.072-.492-.17-.154-.254-.402-.254-.746 0-.408.13-.716.389-.928.264-.217.7-.326 1.308-.326.683 0 1.39.186 2.12.556l.31-.976a5.72 5.72 0 0 0-2.564-.586zm7.586 0c-1.122 0-2.132.207-3.032.625l.358.969a5.654 5.654 0 0 1 1.316-.428c.492-.106.953-.16 1.381-.16.635 0 1.098.151 1.389.453.296.301.445.76.445 1.373v.824h-1.342c-1.349 0-2.332.214-2.95.643-.615.423-.92 1.09-.92 2 0 .762.23 1.357.696 1.785.471.428 1.093.643 1.866.643 1.153 0 2.089-.441 2.808-1.325l.143 1.159h1v-5.54c0-1.068-.274-1.837-.824-2.308-.545-.476-1.324-.713-2.334-.713zm8.648 0c-.624 0-1.177.115-1.658.348a2.934 2.934 0 0 0-1.158.953c-.291.407-.51.87-.659 1.388a6.014 6.014 0 0 0-.222 1.674c0 .53.072 1.032.215 1.508.148.476.362.91.642 1.3.28.392.656.704 1.127.936.476.233 1.012.35 1.61.35.618 0 1.148-.124 1.587-.373.445-.249.788-.59 1.032-1.023l.023.984v.23c0 1.053-.217 1.812-.65 2.278-.429.465-1.093.697-1.992.697-.662 0-1.476-.114-2.444-.342l-.103 1.112c.952.216 1.8.326 2.547.326 1.37 0 2.355-.376 2.953-1.127.603-.746.904-1.851.904-3.317v-7.728h-1.2l-.077 1.205c-.503-.92-1.33-1.379-2.477-1.379zm9.268 0c-1.111 0-2.025.399-2.744 1.197-.72.799-1.08 1.87-1.08 3.213 0 1.328.368 2.38 1.103 3.158.735.773 1.691 1.159 2.871 1.159 1.058 0 2.004-.247 2.834-.739l-.277-.927a8.074 8.074 0 0 1-1.207.5c-.36.11-.759.166-1.198.166-.809 0-1.466-.257-1.968-.77-.503-.518-.774-1.31-.817-2.379h5.672l.049-.668c0-1.227-.279-2.183-.834-2.87-.55-.694-1.352-1.04-2.404-1.04zm-135.11.086a2.71 2.71 0 0 0-1.45.43c-.456.28-.844.72-1.161 1.324l-.143-1.666h-1.054v8.394h1.316v-4.752c0-.745.234-1.378.7-1.896.47-.518 1.065-.777 1.784-.777.149 0 .328.02.54.062l.056-1.078a3.551 3.551 0 0 0-.588-.041zm26.93.088v8.394h1.3v-8.394h-1.3zm-21.447.832c.783 0 1.373.291 1.77.873.401.582.603 1.443.603 2.58-.006 1.042-.2 1.846-.58 2.412-.381.566-1.001.848-1.864.848-.82 0-1.427-.302-1.818-.905-.386-.603-.578-1.43-.578-2.482 0-1.058.206-1.877.619-2.453.413-.582 1.028-.873 1.848-.873zm57.263 0c1.513 0 2.27 1.125 2.27 3.373 0 2.227-.782 3.34-2.348 3.34-.793 0-1.408-.304-1.842-.912-.428-.609-.642-1.463-.642-2.563.005-1.015.217-1.81.635-2.38.418-.572 1.06-.858 1.927-.858zm24.375 0c1.333 0 2.033.906 2.096 2.715h-4.57c.074-.836.333-1.498.777-1.985.45-.486 1.015-.73 1.697-.73zm38.786 0c1.602 0 2.404.99 2.404 2.969v.705c0 .38-.042.731-.127 1.049a2.84 2.84 0 0 1-.406.88c-.18.265-.43.47-.752.618-.323.148-.704.222-1.143.222-.444 0-.832-.09-1.16-.27a1.901 1.901 0 0 1-.744-.73 3.688 3.688 0 0 1-.381-1 5.258 5.258 0 0 1-.12-1.15c0-.434.04-.835.12-1.205.085-.376.214-.724.389-1.047.18-.323.43-.577.754-.762.327-.185.716-.28 1.166-.28zm9.234 0c1.333 0 2.032.906 2.096 2.715h-4.57c.073-.836.332-1.498.777-1.985.45-.486 1.015-.73 1.697-.73zM37.338 34.279h1.008v1.85c-.63.926-1.488 1.389-2.573 1.389-.396 0-.725-.127-.99-.381-.264-.254-.396-.615-.396-1.08 0-.26.022-.476.07-.65.048-.18.135-.345.262-.493a1.23 1.23 0 0 1 .523-.357c.222-.09.506-.158.85-.205.344-.048.76-.073 1.246-.073zm80.297 0h1.008v1.85c-.63.926-1.486 1.389-2.57 1.389-.397 0-.728-.127-.993-.381-.264-.254-.396-.615-.396-1.08 0-.26.024-.476.072-.65.047-.18.135-.345.262-.493a1.23 1.23 0 0 1 .523-.357c.222-.09.506-.158.85-.205a9.223 9.223 0 0 1 1.244-.073zm46.021 0h1.008v1.85c-.63.926-1.488 1.389-2.572 1.389-.397 0-.726-.127-.99-.381-.265-.254-.397-.615-.397-1.08 0-.26.023-.476.07-.65.048-.18.135-.345.262-.493a1.23 1.23 0 0 1 .524-.357 3.59 3.59 0 0 1 .85-.205 9.156 9.156 0 0 1 1.245-.073zM20 50v1h216v-1H20zm174.457 15.287a5.12 5.12 0 0 0-1.484.22c-.488.144-.882.326-1.182.546l.328.851a4.323 4.323 0 0 1 1.055-.49 3.864 3.864 0 0 1 1.162-.187c.17 0 .334.015.49.046.157.027.32.083.49.168.17.081.315.187.436.317.12.125.222.296.303.515.08.22.12.474.12.76 0 .264-.028.505-.081.725a2.29 2.29 0 0 1-.281.664 6.093 6.093 0 0 1-.37.55c-.107.14-.285.353-.53.64l-3.163 3.732.176.879h5.242l.06-.805h-4.222l2.633-3.082c.318-.372.563-.677.738-.914.18-.237.343-.49.49-.764a2.89 2.89 0 0 0 .309-.82c.058-.269.088-.572.088-.912 0-.39-.06-.74-.176-1.049a2.126 2.126 0 0 0-.457-.758 2.35 2.35 0 0 0-.656-.482c-.25-.13-.502-.22-.752-.27a3.582 3.582 0 0 0-.766-.08zm20.92 0c-.72 0-1.384.13-1.988.389a4.322 4.322 0 0 0-1.524 1.054 4.814 4.814 0 0 0-.953 1.604 5.837 5.837 0 0 0-.336 2.002c0 .716.098 1.378.295 1.986.202.605.493 1.134.873 1.586.38.452.865.806 1.451 1.06.587.256 1.248.384 1.987.384 1.19 0 2.305-.203 3.343-.606v-4.525h-3.228l-.047.941h2.182v2.961a6.88 6.88 0 0 1-2.041.287c-.632 0-1.183-.098-1.653-.295a2.786 2.786 0 0 1-1.135-.84 3.77 3.77 0 0 1-.63-1.28 6.149 6.149 0 0 1-.207-1.667c0-.779.14-1.476.421-2.094a3.41 3.41 0 0 1 1.256-1.47c.555-.367 1.206-.551 1.953-.551.153 0 .3.005.438.014.143.008.278.024.408.046l.344.061c.098.018.201.048.309.088l.261.094c.067.022.15.06.248.113a7.77 7.77 0 0 1 .57.303l.29-.887c-.73-.506-1.692-.758-2.887-.758zm-184.691.135l-4.09 9.8h.966l4.118-9.8h-.994zm155.734 0c-.233.161-.581.323-1.047.488-.461.161-.86.277-1.195.344v.887c.3-.04.662-.13 1.088-.264.43-.134.784-.279 1.066-.436v7.977h-2.363v.805h5.586v-.805h-2.108v-8.996h-1.027zm13.79 0l-.189 5.19.9.107c.207-.22.467-.394.78-.524s.636-.195.967-.195c.452 0 .83.101 1.135.303.304.197.52.45.65.763.13.31.195.665.195 1.063 0 .725-.202 1.288-.605 1.691-.398.399-.932.598-1.604.598-.751 0-1.56-.245-2.423-.732l-.383.867c.971.541 1.932.81 2.88.81.462 0 .888-.068 1.282-.207a3.06 3.06 0 0 0 1.035-.603c.3-.269.532-.611.697-1.028.17-.42.256-.894.256-1.418 0-.55-.112-1.047-.336-1.49a2.568 2.568 0 0 0-1.008-1.08c-.452-.277-.984-.416-1.597-.416-.672 0-1.27.176-1.793.53l.107-3.344h4.123l.088-.885h-5.156zm20.94 0a.729.729 0 0 0-.529.201.678.678 0 0 0-.203.51c0 .21.069.383.203.517a.729.729 0 0 0 .53.202.72.72 0 0 0 .523-.202.69.69 0 0 0 .209-.517c0-.21-.07-.38-.21-.51a.708.708 0 0 0-.523-.201zm2.774 0v9.8h3.652c1.133 0 1.986-.242 2.559-.73.577-.492.865-1.171.865-2.035 0-.622-.17-1.134-.51-1.537-.335-.407-.815-.7-1.437-.879.568-.22.968-.51 1.2-.867.238-.363.358-.813.358-1.35 0-.819-.296-1.423-.886-1.812-.587-.394-1.496-.59-2.727-.59h-3.074zm1.181.885h1.887c.882 0 1.517.118 1.906.355.39.237.584.672.584 1.303 0 .626-.179 1.066-.537 1.316-.358.246-.88.37-1.57.37h-2.27v-3.344zm-4.511 1.812v7.104h1.101v-7.104h-1.101zm4.511 2.371h1.92c.967 0 1.674.148 2.121.444.448.295.672.793.672 1.496 0 .662-.194 1.143-.584 1.443-.385.3-1 .451-1.845.451h-2.284V70.49zm-46.816 57.797c-.501 0-.994.073-1.482.22-.488.144-.882.326-1.182.546l.328.851c.309-.201.66-.365 1.055-.49a3.852 3.852 0 0 1 1.16-.187c.17 0 .334.015.49.046.157.027.32.083.49.168.17.081.317.187.438.317.12.125.22.296.3.515.081.22.122.474.122.76 0 .264-.026.506-.08.725-.05.215-.143.436-.282.664a6.095 6.095 0 0 1-.369.55 18.2 18.2 0 0 1-.53.64l-3.163 3.732.174.879h5.244l.06-.805h-4.222l2.63-3.082c.319-.372.564-.677.739-.914.18-.237.343-.49.49-.764a2.89 2.89 0 0 0 .309-.82c.058-.269.088-.572.088-.912 0-.39-.058-.74-.174-1.049a2.127 2.127 0 0 0-.457-.758 2.36 2.36 0 0 0-.658-.482 2.851 2.851 0 0 0-.752-.27 3.584 3.584 0 0 0-.766-.08zm8.164 0c-.716 0-1.325.212-1.826.637-.501.42-.875 1.008-1.121 1.76-.242.747-.363 1.636-.363 2.666 0 .743.065 1.418.195 2.027a5.79 5.79 0 0 0 .592 1.598 2.92 2.92 0 0 0 1.033 1.066c.43.25.926.377 1.49.377.56 0 1.05-.126 1.47-.377a2.76 2.76 0 0 0 1.014-1.074 5.62 5.62 0 0 0 .57-1.598c.126-.604.19-1.276.19-2.02 0-.774-.069-1.468-.203-2.081-.134-.618-.333-1.15-.598-1.592a2.725 2.725 0 0 0-1.013-1.028c-.412-.241-.888-.36-1.43-.36zm28.924 0c-.72 0-1.384.13-1.988.389a4.322 4.322 0 0 0-1.524 1.054 4.814 4.814 0 0 0-.953 1.604 5.837 5.837 0 0 0-.336 2.002c0 .716.098 1.378.295 1.986.202.605.493 1.134.873 1.586.38.452.865.806 1.451 1.06.587.256 1.248.384 1.987.384 1.19 0 2.305-.203 3.343-.606v-4.525h-3.228l-.047.941h2.182v2.961a6.88 6.88 0 0 1-2.041.287c-.632 0-1.183-.098-1.653-.295a2.786 2.786 0 0 1-1.135-.84 3.77 3.77 0 0 1-.63-1.28 6.149 6.149 0 0 1-.207-1.667c0-.779.14-1.476.421-2.094a3.41 3.41 0 0 1 1.256-1.47c.555-.367 1.206-.551 1.953-.551.153 0 .3.005.438.014.143.009.278.024.408.046l.344.061c.098.018.201.048.309.088l.261.094c.067.022.15.06.248.113a7.873 7.873 0 0 1 .57.303l.29-.887c-.73-.506-1.692-.758-2.887-.758zm-180.986.053l-1.114.082v9.8h1.108v-3.886c0-.264.017-.51.052-.738.04-.229.111-.454.21-.678.098-.224.226-.416.382-.572a1.64 1.64 0 0 1 .612-.383c.255-.099.547-.147.879-.147.532 0 .91.168 1.134.504.229.331.342.848.342 1.551v4.35h1.115v-4.391c0-.913-.205-1.618-.617-2.115-.412-.497-1.005-.744-1.78-.744-.505 0-.961.098-1.368.295a2.543 2.543 0 0 0-.994.84l.039-1.391v-2.377zm-3.705.082l-4.09 9.8h.967l4.117-9.8h-.994zm164.931 0l-4.383 6.363v.967h4.457v2.47h1.06v-2.47h1.122l.082-.86h-1.203v-6.47h-1.135zm4.594 0l-.19 5.19.9.107c.207-.22.467-.394.78-.524s.636-.195.967-.195c.452 0 .83.101 1.135.303.304.197.52.45.65.763.13.31.195.664.195 1.063 0 .725-.202 1.288-.605 1.691-.398.399-.932.598-1.604.598-.751 0-1.56-.245-2.423-.733l-.383.868c.971.541 1.932.81 2.88.81.462 0 .888-.068 1.282-.207a3.06 3.06 0 0 0 1.035-.603c.3-.269.532-.611.697-1.028.17-.42.256-.894.256-1.418 0-.55-.112-1.047-.336-1.49a2.568 2.568 0 0 0-1.008-1.08c-.452-.277-.984-.416-1.597-.416-.672 0-1.27.176-1.793.53l.107-3.344h4.123l.088-.885h-5.156zm20.94 0a.729.729 0 0 0-.53.201.678.678 0 0 0-.203.51c0 .21.069.383.203.517a.729.729 0 0 0 .53.201c.21 0 .384-.066.523-.2a.69.69 0 0 0 .209-.518c0-.21-.07-.38-.21-.51a.708.708 0 0 0-.523-.201zm2.773 0v9.8h3.652c1.133 0 1.986-.242 2.559-.73.577-.492.865-1.171.865-2.035 0-.622-.17-1.134-.51-1.537-.335-.407-.815-.7-1.437-.88.568-.218.968-.508 1.2-.866.238-.363.358-.813.358-1.35 0-.819-.296-1.423-.886-1.812-.587-.394-1.496-.59-2.727-.59h-3.074zm-37.47.771c1.422 0 2.134 1.372 2.134 4.116 0 1.383-.185 2.43-.557 3.142-.367.707-.893 1.06-1.578 1.06-.694 0-1.235-.356-1.625-1.068-.385-.716-.576-1.759-.576-3.129-.004-1.311.19-2.324.584-3.04.394-.721.932-1.08 1.617-1.08zm38.651.114h1.887c.882 0 1.517.118 1.906.355.39.237.584.672.584 1.303 0 .626-.179 1.066-.537 1.316-.358.246-.88.37-1.57.37h-2.27v-3.344zm-29.414.498v5.088h-3.35l3.35-5.088zm-151.806 1.168c-1.043 0-1.862.339-2.457 1.02-.591.675-.887 1.57-.887 2.685 0 1.087.3 1.975.9 2.66.6.68 1.414 1.02 2.444 1.02 1.007 0 1.816-.343 2.43-1.028.613-.69.92-1.574.92-2.652 0-1.115-.295-2.01-.885-2.686-.591-.68-1.413-1.02-2.465-1.02zm8.01 0c-.91 0-1.64.398-2.19 1.195l-.127-1.049h-.9v7.104h1.115v-4.33c.094-.623.3-1.12.617-1.497.322-.38.757-.572 1.303-.572.497 0 .838.187 1.021.559.184.367.276.983.276 1.851v3.989h1.113v-3.645c.013-.618.038-.987.074-1.107.121-.533.35-.941.686-1.223a1.732 1.732 0 0 1 1.146-.424c.193 0 .361.03.504.088a.73.73 0 0 1 .35.256c.09.116.16.235.215.355.053.117.09.27.113.463.022.193.036.356.041.49.009.13.014.303.014.518v4.229h1.115v-4.579c0-1.78-.726-2.671-2.176-2.671-1.03 0-1.811.48-2.344 1.443-.165-.452-.4-.805-.705-1.06-.304-.256-.724-.383-1.261-.383zm11.138 0c-.94 0-1.715.337-2.324 1.013-.609.676-.912 1.582-.912 2.719 0 1.123.311 2.014.933 2.672.623.653 1.432.98 2.43.98.895 0 1.694-.208 2.397-.625l-.235-.785a6.86 6.86 0 0 1-1.021.424c-.305.094-.642.14-1.014.14-.685 0-1.239-.218-1.664-.652-.425-.438-.656-1.11-.691-2.013h4.8l.04-.565c0-1.038-.236-1.848-.706-2.43-.465-.586-1.142-.878-2.033-.878zm157.56.146v7.104h1.102v-7.104h-1.101zm-176.708.705c.73 0 1.28.264 1.652.787.372.52.557 1.212.557 2.08 0 .555-.077 1.041-.229 1.457a2.116 2.116 0 0 1-.738.995c-.336.246-.75.369-1.242.369-.716 0-1.263-.26-1.639-.78-.376-.519-.564-1.2-.564-2.047 0-.863.188-1.555.564-2.074.376-.523.923-.787 1.639-.787zm19.174 0c1.128 0 1.72.766 1.773 2.297h-3.867c.063-.707.282-1.266.658-1.678a1.87 1.87 0 0 1 1.436-.619zm162.046 1.666h1.92c.967 0 1.674.148 2.121.444.448.295.672.793.672 1.496 0 .662-.194 1.143-.584 1.443-.385.3-1 .451-1.845.451h-2.284v-3.834zm-22.566 55.797c-.501 0-.994.073-1.482.22-.488.144-.882.326-1.182.546l.328.851c.309-.201.66-.365 1.055-.49a3.864 3.864 0 0 1 1.162-.188c.17 0 .334.016.49.047.157.027.318.083.488.168.17.081.317.187.438.317.12.125.222.296.303.515.08.22.119.474.119.76 0 .264-.026.505-.08.725-.05.215-.143.436-.282.664a6.095 6.095 0 0 1-.369.55 18.2 18.2 0 0 1-.53.64l-3.163 3.732.176.879h5.242l.06-.805h-4.222l2.63-3.082c.319-.372.566-.677.741-.914.179-.237.343-.49.49-.764a2.89 2.89 0 0 0 .309-.82c.058-.269.086-.572.086-.912 0-.39-.058-.74-.174-1.05a2.127 2.127 0 0 0-.457-.757 2.36 2.36 0 0 0-.658-.482 2.851 2.851 0 0 0-.752-.27 3.584 3.584 0 0 0-.766-.08zm12.838 0c-.72 0-1.384.13-1.988.389a4.322 4.322 0 0 0-1.524 1.054 4.814 4.814 0 0 0-.953 1.604 5.837 5.837 0 0 0-.336 2.002c0 .716.098 1.377.295 1.986.202.604.493 1.134.873 1.586.38.452.865.806 1.451 1.06.587.256 1.248.383 1.987.383 1.19 0 2.305-.202 3.343-.605v-4.525h-3.228l-.047.941h2.182v2.961a6.88 6.88 0 0 1-2.041.287c-.632 0-1.183-.098-1.653-.295a2.786 2.786 0 0 1-1.135-.84 3.77 3.77 0 0 1-.63-1.28 6.149 6.149 0 0 1-.207-1.667c0-.779.14-1.476.421-2.094a3.41 3.41 0 0 1 1.256-1.47c.555-.367 1.206-.551 1.953-.551.153 0 .3.005.438.014.143.009.278.024.408.046l.344.06c.098.019.201.049.309.089l.261.094c.067.022.15.06.248.113a7.873 7.873 0 0 1 .57.303l.29-.887c-.73-.506-1.692-.758-2.887-.758zm-184.691.135l-4.09 9.8h.966l4.118-9.8h-.994zm190.464 0a.729.729 0 0 0-.529.201.678.678 0 0 0-.203.51c0 .21.069.383.203.517a.729.729 0 0 0 .53.201c.21 0 .384-.066.523-.2a.69.69 0 0 0 .209-.518c0-.21-.07-.38-.21-.51a.708.708 0 0 0-.523-.201zm2.774 0v9.8h3.652c1.133 0 1.986-.242 2.559-.73.577-.492.865-1.171.865-2.035 0-.622-.17-1.134-.51-1.537-.335-.407-.815-.7-1.437-.879.568-.22.968-.51 1.2-.867.238-.363.358-.813.358-1.35 0-.819-.296-1.423-.886-1.812-.587-.394-1.496-.59-2.727-.59h-3.074zm1.181.885h1.887c.882 0 1.517.118 1.906.355.39.237.584.672.584 1.303 0 .626-.179 1.066-.537 1.316-.358.246-.88.37-1.57.37h-2.27v-3.344zM35.44 191.973c-.743 0-1.32.179-1.732.537-.412.353-.617.819-.617 1.396 0 .466.118.845.355 1.14.238.292.675.541 1.315.747l.78.248c.514.166.87.341 1.067.53a.928.928 0 0 1 .295.698c0 .403-.118.711-.355.926-.237.21-.57.317-1 .317-.685 0-1.452-.204-2.303-.612v.934a5.122 5.122 0 0 0 2.22.523c.337 0 .647-.04.929-.12.286-.081.541-.2.765-.362.228-.161.408-.376.537-.645.13-.273.194-.587.194-.941 0-.286-.027-.528-.08-.725a1.49 1.49 0 0 0-.295-.564 1.832 1.832 0 0 0-.598-.455 5.767 5.767 0 0 0-.975-.39l-.703-.221c-.46-.148-.765-.287-.908-.416-.143-.13-.215-.342-.215-.633 0-.345.111-.606.33-.785.224-.184.593-.276 1.108-.276.577 0 1.175.158 1.793.47l.261-.825a4.832 4.832 0 0 0-2.168-.496zm16.784 0c-.95 0-1.804.175-2.565.529l.303.82a4.796 4.796 0 0 1 1.115-.363c.416-.09.806-.135 1.168-.135.537 0 .928.128 1.174.383.25.255.377.643.377 1.162v.697H52.66c-1.141 0-1.974.183-2.498.545-.52.358-.78.922-.78 1.692 0 .644.199 1.149.593 1.511.398.363.924.543 1.578.543.975 0 1.768-.373 2.377-1.12l.119.98h.847v-4.688c0-.904-.233-1.555-.699-1.953-.46-.403-1.12-.603-1.974-.603zm7.822 0c-1.025 0-1.799.462-2.322 1.388l-.116-1.242h-.925v10.219h1.115v-2.672l-.049-1.645c.528.891 1.288 1.336 2.277 1.336.931 0 1.655-.336 2.174-1.007.52-.672.78-1.558.78-2.659 0-1.146-.251-2.052-.752-2.718-.497-.667-1.224-1-2.182-1zm-21.33.146l1.994 7.104h1.06l1.868-6.123 1.972 6.123h.989l1.912-7.104h-1.02l-1.416 5.72-1.853-5.72h-1.19l-1.744 5.74-1.517-5.74h-1.055zm181.879 0v7.104h1.101v-7.104h-1.101zm-160.676.705c1.28 0 1.92.951 1.92 2.854 0 1.884-.664 2.826-1.988 2.826-.672 0-1.19-.257-1.557-.772-.363-.514-.545-1.237-.545-2.168.005-.859.184-1.53.537-2.013.354-.484.899-.727 1.633-.727zm165.187 1.666h1.92c.967 0 1.674.148 2.121.444.448.295.672.793.672 1.496 0 .662-.194 1.143-.584 1.443-.385.3-1 .451-1.845.451h-2.284v-3.834zm-172.164 1.317h.854v1.564c-.533.783-1.258 1.174-2.176 1.174-.336 0-.616-.108-.84-.322-.223-.215-.336-.519-.336-.913 0-.219.02-.403.06-.55a1.05 1.05 0 0 1 .224-.416c.107-.13.255-.231.443-.303.188-.076.426-.136.717-.176.29-.04.643-.058 1.054-.058z" id="path5288" fill="currentColor" fill-opacity="1" stroke="none"/><rect id="rect6597" width="6" height="206" x="-90" y="25" ry="3" transform="rotate(-90)" class="ColorScheme-Text" color="#4d4d4d" opacity=".3" fill="currentColor" fill-opacity="1" stroke="none"/><rect ry="3" y="25" x="-90" height="133.073" width="6" id="rect6599" transform="rotate(-90)" class="ColorScheme-Highlight" color="#3daee9" fill="currentColor" fill-opacity="1" stroke="none"/><rect id="rect6597-7" width="6" height="206" x="-153" y="25" ry="3" transform="rotate(-90)" class="ColorScheme-Text" color="#4d4d4d" opacity=".3" fill="currentColor" fill-opacity="1" stroke="none"/><rect ry="3" y="25" x="-153" height="185" width="6" id="rect6599-9" transform="rotate(-90)" class="ColorScheme-Highlight" color="#3daee9" fill="currentColor" fill-opacity="1" stroke="none"/><rect id="rect6597-7-1" width="6" height="206" x="-214" y="25" ry="3" transform="rotate(-90)" class="ColorScheme-Text" color="#4d4d4d" opacity=".3" fill="currentColor" fill-opacity="1" stroke="none"/><rect ry="3" y="25" x="-214" height="25" width="6" id="rect6599-9-5" transform="rotate(-90)" class="ColorScheme-Highlight" color="#3daee9" fill="currentColor" fill-opacity="1" stroke="none"/></svg>