<svg xmlns="http://www.w3.org/2000/svg" xmlns:xlink="http://www.w3.org/1999/xlink" viewBox="0 0 256 256"><defs><linearGradient gradientTransform="matrix(1 0 0 .99967 0 .176)" gradientUnits="userSpaceOnUse" y2="499.784" x2="414.571" y1="541.798" x1="414.571" id="j" xlink:href="#a"/><linearGradient id="a"><stop offset="0" stop-color="#f89406"/><stop offset="1" stop-color="#faa938"/></linearGradient><linearGradient xlink:href="#b" id="i" gradientUnits="userSpaceOnUse" gradientTransform="matrix(1 0 0 .99967 0 .176)" x1="414.571" y1="541.798" x2="414.571" y2="499.784"/><linearGradient id="b"><stop offset="0" stop-color="#3daee9"/><stop offset="1" stop-color="#6cc1ef"/></linearGradient><linearGradient xlink:href="#b" id="c" gradientUnits="userSpaceOnUse" gradientTransform="matrix(1 0 0 .99967 0 .176)" x1="414.571" y1="541.798" x2="414.571" y2="499.784"/><linearGradient xlink:href="#b" id="d" gradientUnits="userSpaceOnUse" gradientTransform="matrix(1 0 0 .99967 0 .176)" x1="414.571" y1="541.798" x2="414.571" y2="499.784"/><linearGradient xlink:href="#b" id="e" gradientUnits="userSpaceOnUse" gradientTransform="matrix(1 0 0 .99967 0 .176)" x1="414.571" y1="541.798" x2="414.571" y2="499.784"/><linearGradient xlink:href="#b" id="f" gradientUnits="userSpaceOnUse" gradientTransform="matrix(1 0 0 .99967 0 .176)" x1="414.571" y1="541.798" x2="414.571" y2="499.784"/><linearGradient xlink:href="#b" id="g" gradientUnits="userSpaceOnUse" gradientTransform="matrix(1 0 0 .99967 0 .176)" x1="414.571" y1="541.798" x2="414.571" y2="499.784"/><linearGradient xlink:href="#b" id="h" gradientUnits="userSpaceOnUse" gradientTransform="matrix(1 0 0 .99967 0 .176)" x1="414.571" y1="541.798" x2="414.571" y2="499.784"/><style/></defs><path d="M16 10h224c3.324 0 6 2.676 6 6v224c0 3.324-2.676 6-6 6H16c-3.324 0-6-2.676-6-6V16c0-3.324 2.676-6 6-6z" fill="currentColor" fill-opacity=".5" color="#31363b"/><path d="M16 12h224c2.216 0 4 1.784 4 4v224c0 2.216-1.784 4-4 4H16c-2.216 0-4-1.784-4-4V16c0-2.216 1.784-4 4-4z" fill="currentColor" color="#eff0f1"/><path d="M147.758 20.639l-1.303.095v9.18c0 .503.06.92.176 1.254.116.328.296.58.539.754.243.174.52.296.826.365a5.93 5.93 0 0 0 1.158.096h.627l.07-.906-.357-.024a43.839 43.839 0 0 1-.531-.039 8.05 8.05 0 0 1-.412-.064 1.22 1.22 0 0 1-.326-.11 1.957 1.957 0 0 1-.213-.176.576.576 0 0 1-.16-.261 4.067 4.067 0 0 1-.07-.366 4.46 4.46 0 0 1-.024-.5V20.64zm10.75 0l-1.317.095v2.61l.063 1.912a3.321 3.321 0 0 0-.404-.594 2.557 2.557 0 0 0-.508-.469 2.107 2.107 0 0 0-.72-.334 3.747 3.747 0 0 0-.954-.109c-1.11 0-1.992.396-2.643 1.19-.645.793-.966 1.831-.966 3.117 0 1.354.31 2.431.935 3.23.63.794 1.523 1.19 2.682 1.19 1.2 0 2.074-.548 2.619-1.643l.12 1.484h1.093v-11.68zm-76.02.095v11.584h1.395v-5.404h6.031v5.404h1.397V20.734h-1.397v5.164h-6.031v-5.164h-1.395zm46.37 0v11.584h1.42V27.01h4.697v-1.016h-4.698v-4.19h5.047l.078-1.07h-6.545zM97.23 23.75c-1.232 0-2.2.401-2.904 1.205-.698.799-1.049 1.857-1.049 3.174 0 1.285.356 2.333 1.065 3.142.709.805 1.672 1.206 2.888 1.206 1.19 0 2.147-.404 2.872-1.213.724-.815 1.087-1.86 1.087-3.135 0-1.317-.348-2.375-1.046-3.174-.699-.804-1.67-1.205-2.913-1.205zm9.465 0c-1.073 0-1.935.47-2.586 1.412l-.15-1.238h-1.064v8.394h1.318v-5.117c.111-.735.353-1.325.728-1.77.381-.449.894-.675 1.54-.675.587 0 .99.221 1.207.66.216.434.326 1.163.326 2.19v4.712h1.316V28.01c.016-.73.046-1.166.088-1.309.143-.63.412-1.112.809-1.445.396-.333.85-.5 1.357-.5.227 0 .424.035.594.103a.866.866 0 0 1 .414.303c.106.138.19.277.254.42.063.138.108.32.134.547.027.227.042.421.047.58.011.153.016.357.016.611v4.998h1.318v-5.412c0-2.105-.858-3.156-2.572-3.156-1.217 0-2.138.568-2.768 1.705-.195-.534-.474-.952-.833-1.254-.36-.301-.858-.451-1.493-.451zm13.164 0c-1.11 0-2.026.399-2.746 1.197-.72.799-1.078 1.87-1.078 3.213 0 1.328.366 2.38 1.102 3.158.735.773 1.693 1.159 2.873 1.159 1.058 0 2.001-.247 2.832-.739l-.278-.927a8.06 8.06 0 0 1-1.205.5c-.36.11-.76.166-1.199.166-.81 0-1.464-.257-1.967-.77-.502-.518-.776-1.31-.818-2.379h5.674l.047-.668c0-1.227-.277-2.183-.832-2.87-.55-.694-1.352-1.04-2.405-1.04zm20.756 0c-1.232 0-2.2.401-2.904 1.205-.698.799-1.047 1.857-1.047 3.174 0 1.285.356 2.333 1.065 3.142.708.805 1.67 1.206 2.886 1.206 1.19 0 2.149-.404 2.873-1.213.725-.815 1.088-1.86 1.088-3.135 0-1.317-.35-2.375-1.049-3.174-.698-.804-1.669-1.205-2.912-1.205zm23.424 0c-1.11 0-2.027.399-2.746 1.197-.72.799-1.078 1.87-1.078 3.213 0 1.328.366 2.38 1.101 3.158.736.773 1.694 1.159 2.873 1.159 1.058 0 2.002-.247 2.832-.739l-.277-.927a8.06 8.06 0 0 1-1.205.5c-.36.11-.76.166-1.2.166-.808 0-1.463-.257-1.966-.77-.502-.518-.776-1.31-.818-2.379h5.674l.046-.668c0-1.227-.276-2.183-.832-2.87-.55-.694-1.351-1.04-2.404-1.04zm8.887.086c-.508 0-.993.144-1.453.43-.455.28-.841.72-1.159 1.324l-.142-1.666h-1.055v8.394h1.317v-4.752c0-.745.233-1.378.699-1.896.47-.518 1.066-.777 1.785-.777.148 0 .327.02.539.062l.057-1.078a3.551 3.551 0 0 0-.588-.041zm-75.696.92c.863 0 1.513.31 1.952.93.439.613.658 1.432.658 2.459 0 .655-.09 1.23-.27 1.722a2.49 2.49 0 0 1-.873 1.174c-.396.291-.885.436-1.467.436-.846 0-1.493-.307-1.937-.92-.444-.614-.666-1.42-.666-2.42 0-1.021.222-1.838.666-2.451.444-.62 1.091-.93 1.937-.93zm22.66 0c1.334 0 2.033.906 2.096 2.715h-4.57c.074-.836.333-1.498.777-1.985.45-.486 1.015-.73 1.698-.73zm20.725 0c.862 0 1.514.31 1.953.93.44.613.659 1.432.659 2.459 0 .655-.09 1.23-.27 1.722-.18.487-.471.878-.873 1.174-.397.291-.887.436-1.469.436-.846 0-1.491-.307-1.935-.92-.445-.614-.666-1.42-.666-2.42 0-1.021.221-1.838.666-2.451.444-.62 1.089-.93 1.935-.93zm14.244 0c.783 0 1.373.291 1.77.873.402.582.601 1.443.601 2.58-.005 1.042-.197 1.846-.578 2.412-.38.566-1.003.848-1.865.848-.82 0-1.425-.302-1.816-.905-.386-.603-.58-1.43-.58-2.482 0-1.058.206-1.877.619-2.453.412-.582 1.03-.873 1.85-.873zm9.211 0c1.333 0 2.033.906 2.096 2.715h-4.57c.074-.836.333-1.498.777-1.985.45-.486 1.015-.73 1.697-.73z" fill="currentColor" color="#4d4d4d"/><path d="M24.962 54.001v20.77c0 .426.344.769.77.769H67.27c.426 0 .77-.343.77-.77V57.856l-.002-.008h.001v-.769H46.501l-3.077-3.077H24.962z" fill="#147eb8"/><path d="M410.571 499.798l-4 4h-19v1h.002l-.002.012v36.988h58v-42z" fill="url(#c)" transform="translate(-273.938 -322.766) scale(.76923)"/><path d="M24.193 64.77v.77h15.385l2.308-3.846-3.077 3.077z" fill="#fff" fill-opacity=".235" fill-rule="evenodd"/><path d="M24.962 64.001v.77H38.81l3.077-3.077L37.27 64z" fill-opacity=".235" fill-rule="evenodd"/><path d="M24.193 93.232v.77H68.81v-.77H24.193z" fill-opacity=".235"/><path d="M43.424 54.001l2.308 3.846h22.307v-.769H46.501z" fill="#fff" fill-opacity=".235" fill-rule="evenodd"/><path d="M106.462 54.001v20.77c0 .426.344.769.77.769h41.538c.426 0 .77-.343.77-.77V57.856l-.002-.008h.001v-.769h-21.538l-3.077-3.077h-18.462z" fill="#147eb8"/><path d="M410.571 499.798l-4 4h-19v1h.002l-.002.012v36.988h58v-42z" fill="url(#d)" transform="translate(-192.438 -322.766) scale(.76923)"/><path d="M105.693 64.77v.77h15.385l2.308-3.846-3.077 3.077z" fill="#fff" fill-opacity=".235" fill-rule="evenodd"/><path d="M106.462 64.001v.77h13.847l3.077-3.077L118.77 64z" fill-opacity=".235" fill-rule="evenodd"/><path d="M105.693 93.232v.77h44.616v-.77h-44.616z" fill-opacity=".235"/><path d="M124.924 54.001l2.308 3.846h22.307v-.769h-21.538z" fill="#fff" fill-opacity=".235" fill-rule="evenodd"/><path d="M121.078 70.155V85.54h9.23l4.616-4.616V70.155h-13.846zm.77.77h12.307v10h-3.846v3.846h-8.462V70.924z" fill="#1272a5"/><g><path d="M187.962 54.001v20.77c0 .426.344.769.77.769h41.538c.426 0 .77-.343.77-.77V57.856l-.002-.008h.001v-.769h-21.538l-3.077-3.077h-18.462z" fill="#147eb8"/><path d="M410.571 499.798l-4 4h-19v1h.002l-.002.012v36.988h58v-42z" fill="url(#e)" transform="translate(-110.938 -322.766) scale(.76923)"/><path d="M187.193 64.77v.77h15.385l2.308-3.846-3.077 3.077z" fill="#fff" fill-opacity=".235" fill-rule="evenodd"/><path d="M187.962 64.001v.77h13.847l3.077-3.077L200.27 64z" fill-opacity=".235" fill-rule="evenodd"/><path d="M187.193 93.232v.77h44.616v-.77h-44.616z" fill-opacity=".235"/><path d="M206.424 54.001l2.308 3.846h22.307v-.769h-21.538z" fill="#fff" fill-opacity=".235" fill-rule="evenodd"/><path d="M207.193 70.155v5.385h.77v-4.616h3.076v4.616h.77v-5.385h-4.616zm-2.533 5.616l-.544.544 3.303 3.302.006-.006 2.082 2.083 2.076-2.077 3.303-3.301-.544-.544-3.303 3.302-1.538 1.538-1.539-1.538-3.302-3.303zm-2.851 7.461v2.308h15.384v-2.308h-.769v1.539h-13.846v-1.539h-.77z" fill="#1272a5"/></g><g><path d="M24.962 119.001v20.77c0 .426.344.769.77.769H67.27c.426 0 .77-.343.77-.77v-16.915l-.002-.008h.001v-.769H46.501l-3.077-3.077H24.962z" fill="#147eb8"/><path d="M410.571 499.798l-4 4h-19v1h.002l-.002.012v36.988h58v-42z" fill="url(#f)" transform="translate(-273.938 -257.766) scale(.76923)"/><path d="M24.193 129.77v.77h15.385l2.308-3.846-3.077 3.077z" fill="#fff" fill-opacity=".235" fill-rule="evenodd"/><path d="M24.962 129.001v.77H38.81l3.077-3.077L37.27 129z" fill-opacity=".235" fill-rule="evenodd"/><path d="M24.193 158.232v.77H68.81v-.77H24.193z" fill-opacity=".235"/><path d="M43.424 119.001l2.308 3.846h22.307v-.769H46.501z" fill="#fff" fill-opacity=".235" fill-rule="evenodd"/><path d="M38.809 135.155v15.385h15.384v-15.385H38.81zm.769.77h13.846v13.846H39.578v-13.847zm0 13.076h3.077l2.307-2.307-1.538-1.539-3.846 3.846zm13.846 0l-4.615-4.615L44.193 149h9.231zM42.27 136.694a1.92 1.92 0 0 0-1.923 1.923c0 1.065.858 1.923 1.923 1.923s1.923-.858 1.923-1.923-.857-1.923-1.923-1.923z" fill="#1272a5"/></g><g><path d="M106.462 119.001v20.77c0 .426.344.769.77.769h41.538c.426 0 .77-.343.77-.77v-16.915l-.002-.008h.001v-.769h-21.538l-3.077-3.077h-18.462z" fill="#147eb8"/><path d="M410.571 499.798l-4 4h-19v1h.002l-.002.012v36.988h58v-42z" fill="url(#g)" transform="translate(-192.438 -257.766) scale(.76923)"/><path d="M105.693 129.77v.77h15.385l2.308-3.846-3.077 3.077z" fill="#fff" fill-opacity=".235" fill-rule="evenodd"/><path d="M106.462 129.001v.77h13.847l3.077-3.077L118.77 129z" fill-opacity=".235" fill-rule="evenodd"/><path d="M105.693 158.232v.77h44.616v-.77h-44.616z" fill-opacity=".235"/><path d="M124.924 119.001l2.308 3.846h22.307v-.769h-21.538z" fill="#fff" fill-opacity=".235" fill-rule="evenodd"/><path d="M124.155 135.155v11.366a2.302 2.302 0 0 0-3.846 1.711c0 1.279 1.029 2.308 2.307 2.308s2.308-1.03 2.308-2.308v-9.23h10v5.21a2.302 2.302 0 0 0-3.846 1.712c0 1.279 1.03 2.308 2.308 2.308s2.307-1.03 2.307-2.308v-10.769h-11.538zm.769 1.539h10v1.538h-10v-1.538z" fill="#1272a5"/></g><g><path d="M187.962 119.001v20.77c0 .426.344.769.77.769h41.538c.426 0 .77-.343.77-.77v-16.915l-.002-.008h.001v-.769h-21.538l-3.077-3.077h-18.462z" fill="#147eb8"/><path d="M410.571 499.798l-4 4h-19v1h.002l-.002.012v36.988h58v-42z" fill="url(#h)" transform="translate(-110.938 -257.766) scale(.76923)"/><path d="M187.193 129.77v.77h15.385l2.308-3.846-3.077 3.077z" fill="#fff" fill-opacity=".235" fill-rule="evenodd"/><path d="M187.962 129.001v.77h13.847l3.077-3.077L200.27 129z" fill-opacity=".235" fill-rule="evenodd"/><path d="M187.193 158.232v.77h44.616v-.77h-44.616z" fill-opacity=".235"/><path d="M206.424 119.001l2.308 3.846h22.307v-.769h-21.538z" fill="#fff" fill-opacity=".235" fill-rule="evenodd"/><path d="M201.809 135.155v15.385h15.384v-15.385H201.81zm.769.77h1.538v1.538h-1.538v-1.539zm12.308 0h1.538v1.538h-1.538v-1.539zm-10 .769h9.23v5.384h-9.23v-5.384zM202.578 139h1.538v1.539h-1.538V139zm12.308 0h1.538v1.539h-1.538V139zm-12.308 3.077h1.538v1.539h-1.538v-1.539zm12.308 0h1.538v1.539h-1.538v-1.539zm-10 1.539h9.23V149h-9.23v-5.384zm-2.308 1.538h1.538v1.539h-1.538v-1.539zm12.308 0h1.538v1.539h-1.538v-1.539zm-12.308 3.077h1.538v1.539h-1.538v-1.539zm12.308 0h1.538v1.539h-1.538v-1.539z" fill="#1272a5"/></g><g><path d="M106.462 184.001v20.77c0 .426.344.769.77.769h41.538c.426 0 .77-.343.77-.77v-16.915l-.002-.008h.001v-.769h-21.538l-3.077-3.077h-18.462z" fill="#147eb8"/><path d="M410.571 499.798l-4 4h-19v1h.002l-.002.012v36.988h58v-42z" fill="url(#i)" transform="translate(-192.438 -192.766) scale(.76923)"/><path d="M105.693 194.77v.77h15.385l2.308-3.846-3.077 3.077z" fill="#fff" fill-opacity=".235" fill-rule="evenodd"/><path d="M106.462 194.001v.77h13.847l3.077-3.077L118.77 194z" fill-opacity=".235" fill-rule="evenodd"/><path d="M105.693 223.232v.77h44.616v-.77h-44.616z" fill-opacity=".235"/><path d="M124.924 184.001l2.308 3.846h22.307v-.769h-21.538z" fill="#fff" fill-opacity=".235" fill-rule="evenodd"/><path d="M125.693 200.155v1.539h-5.384v.769h1.538v13.077h12.308v-13.077h1.538v-.77h-5.384v-1.538zm.77.77h3.076v1.538h3.847v12.308h-10.77v-12.308h3.846zm-.77 4.615v6.154h.77v-6.154zm3.846 0v6.154h.77v-6.154z" fill="#1272a5"/></g><g><path d="M24.193 223.232v.77H68.81v-.77H24.962z" fill="#2e3132" fill-opacity=".294"/><path d="M24.962 184.001v20.77c0 .426.344.769.77.769H67.27c.426 0 .77-.343.77-.77v-16.915l-.002-.008h.001v-.769H46.501l-3.077-3.077H24.962z" fill="#a3660d"/><path d="M410.571 499.798l-4 4h-19v1h.002l-.002.012v36.988h58v-42z" fill="url(#j)" transform="translate(-273.938 -192.766) scale(.76923)"/><path d="M24.193 194.77v.77h15.385l2.308-3.846-3.077 3.077z" fill="#fff" fill-opacity=".235" fill-rule="evenodd"/><path d="M24.962 194.001v.77H38.81l3.077-3.077L37.27 194z" fill-opacity=".235" fill-rule="evenodd"/><path d="M24.193 223.232v.77H68.81v-.77H24.193z" fill-opacity=".235"/><path d="M43.424 184.001l2.308 3.846h22.307v-.769H46.501z" fill="#fff" fill-opacity=".235" fill-rule="evenodd"/></g></svg>