<svg xmlns="http://www.w3.org/2000/svg" viewBox="0 0 256 256"><defs><style/></defs><path d="M16 10h224c3.324 0 6 2.676 6 6v224c0 3.324-2.676 6-6 6H16c-3.324 0-6-2.676-6-6V16c0-3.324 2.676-6 6-6z" fill="currentColor" fill-opacity=".5" color="#31363b"/><path d="M16 12h224c2.216 0 4 1.784 4 4v224c0 2.216-1.784 4-4 4H16c-2.216 0-4-1.784-4-4V16c0-2.216 1.784-4 4-4z" fill="currentColor" color="#eff0f1"/><path d="M39.957 66v44.813h5.494V90.276h18.17V86.35h-18.17V70.145h19.522L65.279 66H39.957zm35.205 0c-.982 0-1.791.306-2.426.92-.614.593-.92 1.372-.92 2.334s.306 1.75.92 2.363c.635.614 1.444.92 2.426.92.962 0 1.76-.306 2.395-.92.634-.614.95-1.401.95-2.363s-.316-1.74-.95-2.334c-.614-.614-1.413-.92-2.395-.92zm99.047 3.438l-4.082.306-.83 8.594-5.002.338-.123 2.885h5.002v19.521c0 1.985.175 3.59.523 4.818.348 1.228.971 2.241 1.871 3.04.921.797 2.108 1.35 3.56 1.658 1.454.307 3.357.459 5.71.459h2.117l.246-3.498-2.578-.123c-2.721-.103-4.47-.532-5.248-1.29-.778-.777-1.166-2.465-1.166-5.064V81.561h8.594v-3.223h-8.594v-8.9zm-40.883 8.226c-4.297 0-7.838 1.545-10.62 4.635-2.784 3.09-4.175 7.232-4.175 12.43 0 5.135 1.422 9.208 4.266 12.216 2.844 2.988 6.548 4.48 11.111 4.48 4.093 0 7.745-.95 10.957-2.853l-1.074-3.592c-1.719.86-3.273 1.504-4.664 1.934-1.391.43-2.936.645-4.635.645-3.13 0-5.67-.992-7.613-2.977-1.944-2.005-2.997-5.076-3.16-9.209h21.945l.184-2.578c0-4.747-1.074-8.451-3.223-11.111-2.128-2.68-5.227-4.02-9.299-4.02zm69.858 0c-4.768 0-8.513 1.554-11.235 4.664-2.7 3.09-4.05 7.182-4.05 12.277 0 4.973 1.369 9.024 4.11 12.155 2.743 3.11 6.468 4.666 11.175 4.666 4.604 0 8.306-1.565 11.109-4.696 2.803-3.15 4.205-7.193 4.205-12.125 0-5.095-1.35-9.187-4.05-12.277-2.702-3.11-6.456-4.664-11.264-4.664zm-130.569.674v32.475h5.033V78.338h-5.033zm11.785 0l12.553 32.475h5.127l12.307-32.475H109.2c-1.064 2.987-2.68 7.46-4.85 13.414a3856.259 3856.259 0 0 0-4.82 13.412c-1.33-3.52-3.252-8.697-5.77-15.531-2.496-6.835-3.876-10.6-4.142-11.295H84.4zm49.047 3.223c5.157 0 7.858 3.5 8.104 10.498h-17.68c.287-3.233 1.29-5.792 3.008-7.674 1.74-1.883 3.929-2.824 6.568-2.824zm69.737 0c3.335 0 5.85 1.197 7.548 3.591 1.699 2.374 2.55 5.546 2.55 9.516 0 2.537-.35 4.757-1.046 6.66-.695 1.883-1.82 3.397-3.375 4.543-1.534 1.126-3.427 1.688-5.677 1.688-3.274 0-5.772-1.187-7.49-3.561-1.72-2.374-2.579-5.494-2.579-9.361 0-3.95.86-7.111 2.578-9.485 1.72-2.394 4.217-3.591 7.49-3.591zM77.463 144.205l-5.033.37v35.51c0 1.945.225 3.561.675 4.85.45 1.27 1.147 2.241 2.088 2.917a8.66 8.66 0 0 0 3.192 1.412c1.207.245 2.7.367 4.48.367h2.426l.275-3.498-1.38-.092c-.88-.061-1.566-.113-2.057-.154a31.026 31.026 0 0 1-1.596-.246c-.552-.123-.971-.266-1.258-.43a7.515 7.515 0 0 1-.83-.674 2.223 2.223 0 0 1-.613-1.014 15.78 15.78 0 0 1-.275-1.412 17.184 17.184 0 0 1-.094-1.933v-35.973zm-25.168 12.033c-4.297 0-7.836 1.545-10.62 4.635-2.782 3.09-4.173 7.232-4.173 12.43 0 5.136 1.421 9.209 4.266 12.217 2.844 2.987 6.548 4.48 11.11 4.48 4.093 0 7.745-.95 10.958-2.854l-1.074-3.591c-1.72.86-3.275 1.504-4.666 1.933-1.392.43-2.937.645-4.635.645-3.13 0-5.667-.992-7.611-2.977-1.944-2.005-2.997-5.075-3.16-9.209h21.945l.183-2.578c0-4.747-1.074-8.451-3.222-11.111-2.128-2.68-5.23-4.02-9.301-4.02zm52.3 0c-4.296 0-7.836 1.545-10.618 4.635-2.783 3.09-4.174 7.232-4.174 12.43 0 5.136 1.421 9.209 4.265 12.217 2.845 2.987 6.549 4.48 11.112 4.48 4.092 0 7.744-.95 10.957-2.854l-1.075-3.591c-1.718.86-3.272 1.504-4.664 1.933-1.391.43-2.936.645-4.634.645-3.131 0-5.67-.992-7.614-2.977-1.944-2.005-2.996-5.075-3.16-9.209h21.946l.183-2.578c0-4.747-1.074-8.451-3.223-11.111-2.128-2.68-5.228-4.02-9.3-4.02zm65.93 0c-4.297 0-7.836 1.545-10.619 4.635-2.783 3.09-4.176 7.232-4.176 12.43 0 5.136 1.424 9.209 4.268 12.217 2.844 2.987 6.548 4.48 11.111 4.48 4.093 0 7.745-.95 10.957-2.854l-1.074-3.591c-1.719.86-3.274 1.504-4.666 1.933-1.391.43-2.936.645-4.635.645-3.13 0-5.667-.992-7.61-2.977-1.945-2.005-3-5.075-3.163-9.209h21.945l.186-2.578c0-4.747-1.074-8.451-3.223-11.111-2.128-2.68-5.229-4.02-9.3-4.02zm35.452 0c-4.89 0-8.565 1.719-11.02 5.157l-.553-4.483h-4.42v32.475h5.096v-18.11c0-7.427 3.335-11.142 10.006-11.142 2.476 0 4.205.748 5.187 2.242.983 1.473 1.473 3.672 1.473 6.598v20.412h5.096v-19.86c0-4.46-.892-7.785-2.672-9.974-1.76-2.21-4.49-3.315-8.193-3.315zm-84.377.674l12.554 32.475h5.125l12.309-32.475H146.4c-1.064 2.988-2.68 7.46-4.85 13.414a3766.332 3766.332 0 0 0-4.818 13.412c-1.33-3.52-3.254-8.697-5.771-15.531-2.496-6.834-3.877-10.6-4.143-11.295H121.6zm-69.182 3.223c5.156 0 7.858 3.5 8.103 10.498h-17.68c.287-3.233 1.29-5.792 3.009-7.674 1.739-1.883 3.928-2.824 6.568-2.824zm52.3 0c5.157 0 7.859 3.5 8.104 10.498h-17.68c.287-3.233 1.29-5.792 3.008-7.674 1.74-1.883 3.93-2.824 6.569-2.824zm65.93 0c5.157 0 7.858 3.5 8.104 10.498h-17.68c.287-3.233 1.29-5.792 3.008-7.674 1.74-1.883 3.929-2.824 6.568-2.824z" fill="currentColor" color="#4d4d4d"/></svg>