<svg xmlns="http://www.w3.org/2000/svg" xmlns:xlink="http://www.w3.org/1999/xlink" viewBox="0 0 256 256" id="svg2" version="1.1"><defs id="defs4"><linearGradient xlink:href="#linearGradient5215" id="linearGradient5460" gradientUnits="userSpaceOnUse" gradientTransform="matrix(.18088 .03966 -.03622 .16984 -233.513 298.973)" x1="1669.111" y1="669.498" x2="1753.533" y2="641.885"/><linearGradient id="linearGradient5215"><stop offset="0" id="stop5217" stop-color="#f28040" stop-opacity="1"/><stop offset="1" id="stop5219" stop-color="#ff4739" stop-opacity="1"/></linearGradient><linearGradient xlink:href="#linearGradient5223" id="linearGradient5462" gradientUnits="userSpaceOnUse" gradientTransform="matrix(.18088 .03966 -.03622 .16984 -233.249 298.758)" x1="1746.537" y1="643.423" x2="1680.717" y2="660.873"/><linearGradient id="linearGradient5223"><stop offset="0" id="stop5225" stop-color="#febf00" stop-opacity="1"/><stop offset="1" id="stop5227" stop-color="#febf00" stop-opacity="0"/></linearGradient><linearGradient xlink:href="#linearGradient4288-7" id="linearGradient5464" gradientUnits="userSpaceOnUse" gradientTransform="matrix(.18514 .00342 -.00222 .17364 -261.579 361.69)" x1="1759.393" y1="604.612" x2="1806.08" y2="608.9"/><linearGradient id="linearGradient4288-7"><stop id="stop4290-08" stop-color="#fff"/><stop offset="1" id="stop4292-3" stop-color="#bdc3c7" stop-opacity=".588"/></linearGradient><linearGradient xlink:href="#linearGradient4288-7" id="linearGradient14620" gradientUnits="userSpaceOnUse" gradientTransform="matrix(.16417 0 0 .1832 -290.663 491.634)" x1="2187.05" y1="-320.7" x2="2199.32" y2="-320.89"/><linearGradient xlink:href="#linearGradient4288-7" id="linearGradient9965" gradientUnits="userSpaceOnUse" gradientTransform="matrix(-.16417 0 0 .1832 408.056 492)" x1="2187.05" y1="-320.7" x2="2199.32" y2="-320.89"/><linearGradient xlink:href="#linearGradient4288-7" id="linearGradient4269-8" x1="781.5" x2="821.75" gradientUnits="userSpaceOnUse" gradientTransform="matrix(.17974 0 0 .22017 -77.19 576.302)"/><linearGradient xlink:href="#linearGradient4288-7" id="linearGradient4469-0" gradientUnits="userSpaceOnUse" x1="820.32" y1="-820.45" x2="777.78" y2="-834.66" gradientTransform="matrix(.17999 0 0 .21992 -150.21 579.746)"/><linearGradient xlink:href="#linearGradient4288-7" id="linearGradient4294-0" x1="1526.57" y1="186.06" x2="1549.2" y2="161.69" gradientUnits="userSpaceOnUse" gradientTransform="matrix(.255 0 0 .26606 -326.523 303.957)"/><linearGradient xlink:href="#linearGradient4280-4" id="linearGradient4286-7" x1="1535.67" y1="203.22" x2="1524.19" y2="194.53" gradientUnits="userSpaceOnUse" gradientTransform="matrix(.255 0 0 .26606 -326.523 303.957)"/><linearGradient id="linearGradient4280-4"><stop id="stop4282" stop-color="#ecf0f1"/><stop offset="1" id="stop4284" stop-color="#bdc3c7" stop-opacity="0"/></linearGradient><style id="current-color-scheme" type="text/css">.ColorScheme-Text{color:#4d4d4d}</style></defs><path d="M16 10h224c3.324 0 6 2.676 6 6v224c0 3.324-2.676 6-6 6H16c-3.324 0-6-2.676-6-6V16c0-3.324 2.676-6 6-6z" id="rect4240" fill="currentColor" fill-opacity=".5" stroke="none" color="#31363b"/><path d="M16 12h224c2.216 0 4 1.784 4 4v224c0 2.216-1.784 4-4 4H16c-2.216 0-4-1.784-4-4V16c0-2.216 1.784-4 4-4z" id="rect4238" fill="currentColor" fill-opacity="1" stroke="none" color="#eff0f1"/><rect class="ColorScheme-Text" id="rect5114-3-4-2" width="216" height="36" x="20" y="20" rx="0" ry="0" opacity=".5" fill="currentColor" fill-opacity="1" stroke="none" stroke-width=".928" stroke-miterlimit="4" stroke-dasharray="none" stroke-opacity=".2"/><rect id="rect5114-3-4" width="214" height="34" x="21" y="21" rx="0" ry="0" fill="currentColor" fill-opacity="1" stroke="none" stroke-width=".928" stroke-miterlimit="4" stroke-dasharray="none" stroke-opacity=".2" color="#fcfcfc"/><path d="M63.752 82.629v9.8h1.182v-4.033l.873-.806 3.718 4.84h1.383l-4.217-5.444 4.016-4.357h-1.383l-4.39 4.693V82.63zm39.9 0a.733.733 0 0 0-.53.201.676.676 0 0 0-.202.51.7.7 0 0 0 .201.517.733.733 0 0 0 .531.202c.21 0 .385-.067.524-.202a.69.69 0 0 0 .209-.517c0-.21-.07-.38-.21-.51a.708.708 0 0 0-.523-.201zm-28.662 2.55c-1.043 0-1.861.34-2.457 1.02-.59.676-.887 1.571-.887 2.686 0 1.087.301 1.975.9 2.66.6.68 1.415 1.02 2.444 1.02 1.007 0 1.819-.343 2.432-1.028.613-.69.918-1.574.918-2.652 0-1.115-.294-2.01-.885-2.686-.59-.68-1.413-1.02-2.465-1.02zm8.291 0c-1.07 0-1.873.376-2.41 1.128l-.119-.979h-.967v7.102h1.113v-3.961c0-1.625.73-2.436 2.19-2.436.541 0 .92.162 1.135.488.215.323.322.806.322 1.446v4.463h1.113v-4.344c0-.976-.194-1.703-.584-2.182-.385-.483-.983-.724-1.793-.724zm6.95 0c-.985 0-1.759.345-2.323 1.034-.564.69-.845 1.594-.845 2.713 0 1.056.292 1.926.878 2.611.591.685 1.35 1.027 2.276 1.027 1.056 0 1.826-.439 2.304-1.316l-.027 1.66v2.637h1.102V85.328h-1.008l-.121 1.147c-.48-.864-1.225-1.295-2.237-1.295zm5.062.15v4.335c0 .962.21 1.688.63 2.176.426.483 1.05.724 1.874.724.582 0 1.041-.087 1.377-.261.34-.18.625-.447.853-.805l.114.932h.966v-7.102h-1.115v3.986a4.6 4.6 0 0 1-.06.774c-.04.233-.109.452-.207.658a1.6 1.6 0 0 1-.383.516c-.152.138-.35.25-.592.33a2.54 2.54 0 0 1-.818.12c-.546 0-.937-.163-1.174-.49-.233-.326-.35-.806-.35-1.437v-4.457h-1.115zm7.803 0v7.1h1.1v-7.1zm-28.106.704c.73 0 1.281.262 1.653.785.371.52.556 1.212.556 2.08 0 .555-.076 1.041-.228 1.457a2.116 2.116 0 0 1-.739.995c-.335.246-.75.369-1.242.369-.716 0-1.262-.26-1.638-.78-.376-.519-.563-1.2-.563-2.046 0-.864.187-1.556.563-2.075.376-.523.922-.785 1.638-.785zm15.37 0c.707 0 1.234.241 1.583.725.35.479.524 1.14.524 1.986 0 1.983-.706 2.975-2.115 2.975-.717 0-1.26-.256-1.631-.766-.372-.51-.557-1.206-.557-2.088 0-.868.182-1.558.549-2.068.371-.51.921-.764 1.646-.764zm-5.567 36.514l-1.102.082v7.767c0 .426.05.779.149 1.06.098.278.251.492.457.64.206.147.438.25.697.308.264.054.591.08.98.08h.53l.06-.765-.3-.02a40.428 40.428 0 0 1-.451-.033 6.748 6.748 0 0 1-.348-.055 1.028 1.028 0 0 1-.276-.093 1.657 1.657 0 0 1-.181-.149.484.484 0 0 1-.135-.22 3.465 3.465 0 0 1-.06-.31 3.808 3.808 0 0 1-.02-.423v-7.87zm-21.041.082v9.8h1.182v-4.738h2.12c1.106 0 1.913-.224 2.419-.672.505-.452.757-1.116.757-1.994 0-.43-.077-.802-.234-1.115a1.78 1.78 0 0 0-.666-.752 3.165 3.165 0 0 0-.992-.402 5.696 5.696 0 0 0-1.264-.127zm1.182.885h2.134c.645 0 1.135.116 1.471.35.34.227.51.62.51 1.175 0 .644-.154 1.096-.463 1.355-.304.26-.825.391-1.559.391h-2.093zm9.238 1.666c-.949 0-1.804.177-2.565.53l.301.82a4.796 4.796 0 0 1 1.115-.364c.417-.09.806-.133 1.168-.133.538 0 .93.126 1.176.381.25.255.375.643.375 1.162v.7h-1.135c-1.14 0-1.974.18-2.498.542-.519.358-.777.922-.777 1.692 0 .644.196 1.149.59 1.511.398.363.925.543 1.578.543.976 0 1.768-.373 2.377-1.12l.121.98h.846v-4.686c0-.904-.234-1.557-.7-1.955-.46-.403-1.117-.603-1.972-.603zm16.557 0c-.94 0-1.716.337-2.325 1.013-.608.676-.912 1.582-.912 2.719 0 1.123.312 2.014.934 2.672.622.653 1.431.98 2.43.98.895 0 1.693-.206 2.396-.623l-.234-.787c-.376.188-.718.33-1.022.424-.304.094-.642.14-1.014.14-.684 0-1.238-.216-1.664-.65-.425-.438-.655-1.111-.691-2.015h4.8l.04-.563c0-1.038-.235-1.85-.705-2.432-.466-.586-1.143-.878-2.033-.878zm-8.836.074c-.43 0-.84.12-1.229.361-.385.237-.712.611-.98 1.121l-.121-1.408h-.893v7.102h1.115v-4.022c0-.631.196-1.165.59-1.603.398-.44.901-.659 1.51-.659.125 0 .278.017.457.053l.047-.912a3.009 3.009 0 0 0-.496-.033zm12.648.074l2.813 6.887-1.047 2.674 1 .214 3.74-9.775H99.92L97.89 131l-2.214-5.672zm-3.787.705c1.128 0 1.72.764 1.773 2.295H88.66c.063-.707.282-1.266.658-1.678.38-.412.859-.617 1.436-.617zm-15.863 2.98h.851v1.565c-.532.783-1.258 1.174-2.176 1.174a1.16 1.16 0 0 1-.837-.322c-.224-.215-.336-.519-.336-.913 0-.219.02-.403.06-.55a1.042 1.042 0 0 1 .664-.72 3.12 3.12 0 0 1 .719-.173c.29-.04.643-.06 1.055-.06zM63.752 162.63v9.8h1.182v-4.033l.873-.806 3.718 4.84h1.383l-4.217-5.444 4.016-4.357h-1.383l-4.39 4.693v-4.693zm20.994 0a.733.733 0 0 0-.531.201.676.676 0 0 0-.201.51c0 .21.067.383.2.517a.733.733 0 0 0 .532.201c.21 0 .385-.066.524-.2a.69.69 0 0 0 .209-.518c0-.21-.07-.38-.21-.51a.708.708 0 0 0-.523-.201zm-4.17.752l-.892.066-.182 1.881-1.094.072-.027.633h1.094v4.27c0 .434.039.784.115 1.052.076.269.213.492.41.666.201.175.46.295.777.362.318.067.736.101 1.25.101h.463l.053-.765-.563-.028c-.595-.022-.978-.115-1.148-.28-.17-.171-.256-.54-.256-1.108v-4.27h1.881v-.705h-1.88v-1.947zm-6.002 1.799c-.949 0-1.803.177-2.564.53l.303.82a4.78 4.78 0 0 1 1.113-.364c.416-.09.805-.133 1.168-.133.537 0 .93.126 1.176.38.25.256.375.644.375 1.163v.7H75.01c-1.142 0-1.973.18-2.496.542-.52.358-.78.922-.78 1.692 0 .644.196 1.149.59 1.511.399.363.925.543 1.578.543.976 0 1.769-.373 2.377-1.12l.121.98h.846v-4.686c0-.904-.232-1.557-.697-1.955-.461-.403-1.12-.603-1.975-.603zm15.643 0c-.94 0-1.714.337-2.322 1.013-.61.676-.913 1.582-.913 2.719 0 1.123.31 2.014.932 2.672.622.653 1.434.98 2.432.98.895 0 1.693-.206 2.396-.623l-.234-.787c-.376.188-.717.33-1.022.424-.304.094-.642.14-1.013.14-.685 0-1.24-.216-1.664-.65-.426-.438-.658-1.111-.694-2.015h4.801l.041-.563c0-1.038-.235-1.85-.705-2.432-.466-.586-1.144-.878-2.035-.878zm-6.028.148v7.102h1.1v-7.102zm6.055.705c1.128 0 1.72.764 1.774 2.295H88.15c.063-.707.283-1.266.659-1.678.38-.412.858-.617 1.435-.617zm-14.951 2.98h.852v1.565c-.533.783-1.257 1.174-2.174 1.174-.336 0-.616-.108-.84-.322-.224-.215-.336-.519-.336-.913 0-.219.02-.403.06-.55a1.042 1.042 0 0 1 .665-.72 3.11 3.11 0 0 1 .718-.173c.291-.04.643-.06 1.055-.06zm5.512 29.178l-1.102.08v9.803h1.102v-2.598l.765-.724 2.82 3.322h1.31l-3.358-3.86 3.101-3.243h-1.35l-3.33 3.605.042-1.463v-4.922zm-17.053.08v9.803h1.182v-4.726H67.9c.367.828 1.027 2.403 1.98 4.726h1.224c-.14-.322-.36-.83-.665-1.523l-.793-1.834a191.14 191.14 0 0 1-.652-1.537c.564-.162.991-.432 1.277-.813.291-.385.436-.919.436-1.603 0-.855-.246-1.484-.738-1.887-.493-.403-1.25-.606-2.276-.606zm1.182.887h2.779c.68 0 1.157.134 1.43.402.273.265.41.673.41 1.223 0 .327-.027.592-.08.793a1.123 1.123 0 0 1-.31.524c-.149.143-.354.242-.618.3a4.953 4.953 0 0 1-1.033.088h-2.578v-3.33zm10.459 1.666c-.94 0-1.714.338-2.323 1.014-.608.676-.912 1.582-.912 2.719 0 1.123.31 2.013.932 2.671.622.654 1.433.98 2.431.98.896 0 1.694-.208 2.397-.624l-.234-.785c-.376.188-.718.33-1.022.424-.304.094-.642.14-1.014.14-.684 0-1.238-.218-1.664-.652-.425-.439-.657-1.11-.693-2.014h4.8l.042-.564c0-1.039-.235-1.848-.705-2.43-.466-.586-1.145-.879-2.035-.879zm14.046 0c-1.042 0-1.861.34-2.457 1.02-.59.676-.886 1.57-.886 2.685 0 1.088.298 1.974.898 2.658.6.68 1.416 1.022 2.445 1.022 1.008 0 1.817-.343 2.43-1.027.613-.69.92-1.574.92-2.653 0-1.114-.296-2.01-.887-2.685-.59-.68-1.41-1.02-2.463-1.02zm8.291 0c-1.07 0-1.873.375-2.41 1.127l-.12-.98h-.968v7.103h1.116v-3.96c0-1.626.728-2.438 2.187-2.438.542 0 .92.163 1.135.49.215.322.322.803.322 1.443v4.465h1.115v-4.344c0-.975-.194-1.702-.584-2.181-.384-.484-.982-.725-1.793-.725zm6.95 0c-.985 0-1.76.344-2.325 1.033-.563.69-.845 1.594-.845 2.713 0 1.057.294 1.927.88 2.612.591.684 1.35 1.027 2.276 1.027 1.056 0 1.824-.44 2.303-1.317l-.028 1.659v2.638h1.102v-10.218h-1.008l-.12 1.148c-.48-.864-1.224-1.295-2.235-1.295zm-29.26.852c1.128 0 1.72.766 1.773 2.297h-3.867c.063-.708.282-1.268.658-1.68.38-.412.859-.617 1.436-.617zm14.02 0c.729 0 1.278.261 1.65.785.371.519.558 1.214.558 2.082 0 .555-.076 1.04-.228 1.457a2.115 2.115 0 0 1-.738.994c-.336.246-.75.37-1.243.37-.716 0-1.262-.26-1.638-.78-.376-.52-.565-1.201-.565-2.047 0-.864.189-1.557.565-2.076.376-.524.922-.785 1.638-.785zm15.367 0c.707 0 1.235.24 1.584.724.349.48.523 1.143.523 1.989 0 1.982-.703 2.974-2.113 2.974-.716 0-1.262-.255-1.633-.765-.372-.51-.557-1.207-.557-2.088 0-.869.184-1.558.551-2.069.372-.51.92-.765 1.645-.765z" class="ColorScheme-Text" id="path8198-1" color="#4d4d4d" fill="currentColor" fill-opacity="1" stroke="none"/><path d="M219.9 70.375a5.5 5.5 0 0 0-5.5 5.5 5.5 5.5 0 0 0 5.5 5.5 5.5 5.5 0 0 0 5.5-5.5 5.5 5.5 0 0 0-5.5-5.5zm0 1.375a4.125 4.125 0 0 1 4.125 4.125A4.125 4.125 0 0 1 219.9 80a4.125 4.125 0 0 1-4.125-4.125 4.125 4.125 0 0 1 4.125-4.125zm0 11a11 11 0 0 0-10.9 9.625h1.385a9.625 9.625 0 0 1 9.515-8.25 9.625 9.625 0 0 1 1.375.11v-1.387a11 11 0 0 0-1.375-.098zm6.188 0a4.812 4.812 0 0 0-4.813 4.812 4.812 4.812 0 0 0 4.813 4.813 4.812 4.812 0 0 0 4.812-4.813 4.812 4.812 0 0 0-4.812-4.812z" id="path4149" opacity="1" fill="#43be80" fill-opacity="1" stroke="none"/><path d="M219.9 144.143a5.5 5.5 0 0 0-5.5 5.5 5.5 5.5 0 0 0 5.5 5.5 5.5 5.5 0 0 0 5.5-5.5 5.5 5.5 0 0 0-5.5-5.5zm0 1.375a4.125 4.125 0 0 1 4.125 4.125 4.125 4.125 0 0 1-4.125 4.125 4.125 4.125 0 0 1-4.125-4.125 4.125 4.125 0 0 1 4.125-4.125zm0 11a11 11 0 0 0-10.9 9.625h1.385a9.625 9.625 0 0 1 9.515-8.25 9.625 9.625 0 0 1 1.375.11v-1.388a11 11 0 0 0-1.375-.097zm6.188 0a4.812 4.812 0 0 0-4.813 4.812 4.812 4.812 0 0 0 4.813 4.813 4.812 4.812 0 0 0 4.812-4.813 4.812 4.812 0 0 0-4.812-4.812z" id="path4149-7" opacity="1" fill="#f47750" fill-opacity="1" stroke="none"/><path d="M219.9 105.572a5.5 5.5 0 0 0-5.5 5.5 5.5 5.5 0 0 0 5.5 5.5 5.5 5.5 0 0 0 5.5-5.5 5.5 5.5 0 0 0-5.5-5.5zm0 1.375a4.125 4.125 0 0 1 4.125 4.125 4.125 4.125 0 0 1-4.125 4.125 4.125 4.125 0 0 1-4.125-4.125 4.125 4.125 0 0 1 4.125-4.125zm11 9.625l-11 5.5 2.75 1.375 1.375 4.125 1.375-2.75 2.75 1.375 2.75-9.625zm-11 1.375a11 11 0 0 0-10.9 9.625h1.385a9.625 9.625 0 0 1 9.515-8.25 9.625 9.625 0 0 1 1.375.11v-1.39a11 11 0 0 0-1.375-.095z" id="path4149-3" opacity="1" fill="#fdbc4b" fill-opacity="1" stroke="none"/><path d="M219.9 193.281a5.5 5.5 0 0 0-5.5 5.5 5.5 5.5 0 0 0 5.5 5.5 5.5 5.5 0 0 0 5.5-5.5 5.5 5.5 0 0 0-5.5-5.5zm0 1.375a4.125 4.125 0 0 1 4.125 4.125 4.125 4.125 0 0 1-4.125 4.125 4.125 4.125 0 0 1-4.125-4.125 4.125 4.125 0 0 1 4.125-4.125zm0 11a11 11 0 0 0-10.9 9.625h1.385a9.625 9.625 0 0 1 9.515-8.25 9.625 9.625 0 0 1 1.375.11v-1.387a11 11 0 0 0-1.375-.098zm6.188 0a4.812 4.812 0 0 0-4.813 4.813 4.812 4.812 0 0 0 4.813 4.812 4.812 4.812 0 0 0 4.812-4.812 4.812 4.812 0 0 0-4.812-4.813z" id="path4152" opacity="1" fill="#9b59b6" fill-opacity="1" stroke="none"/><path d="M228.15 85.5l-2.75 2.75-1.375-1.375-1.375 1.375L225.4 91l4.125-4.125-1.375-1.375zm-2.75 72.393v4.125h2.75v-1.375h-1.375v-2.75H225.4zm-2.062 51.888a.687.687 0 0 0-.688.688.687.687 0 0 0 .688.687.687.687 0 0 0 .687-.687.687.687 0 0 0-.687-.688zm2.75 0a.687.687 0 0 0-.688.688.687.687 0 0 0 .688.687.687.687 0 0 0 .687-.687.687.687 0 0 0-.687-.688zm2.75 0a.687.687 0 0 0-.688.688.687.687 0 0 0 .688.687.687.687 0 0 0 .687-.687.687.687 0 0 0-.687-.688z" id="path4166" fill="#fff" fill-rule="evenodd" stroke="none" stroke-width="1" stroke-linecap="butt" stroke-linejoin="miter" stroke-opacity="1"/><g transform="translate(-20.571 -267.22)" id="g4630"><path id="path4316-5-7" d="M52.61 348.016l-.711-6.557-2.36-1.288.53 3.353-2.467-4.393-3.03-1.644 3.321 6.095-1.929 1.598 2.036.892 2.157-1.749.418 2.812z" fill="#ffc000"/><path id="path4316-8" d="M64.532 348.012l.712-6.557 2.36-1.287-.53 3.352 2.467-4.393 3.03-1.644-3.321 6.095 1.928 1.598-2.035.892-2.157-1.749-.419 2.812z" fill="#ffc000"/><path id="path4124-8" d="M53.412 362.837c-.15.234 4.392 2.102 6.71 1.58 3.505-.79 5.164-4.31 4.797-4.374.103-.379-3.695-1.797-6.089-1.264-2.157.481-5.448 3.628-5.418 4.058z" fill="#ef5500"/><path id="path4122-9-3-9" d="M49.97 358.28c-.13 3.723 5.705 6.07 9.275 6.12 5.55.078 7.054-8.144 6.47-8.281 0 0-8.97-1.3-11.857-.932-2.6.332-3.829 1.375-3.889 3.093z" fill="#e3311c"/><path id="path4124-2-4-3" d="M53.412 362.837c-.15.234 4.392 2.102 6.71 1.58 3.505-.79 5.164-4.31 4.797-4.374.103-.379-3.695-1.797-6.089-1.264-2.157.481-5.448 3.628-5.418 4.058z" fill="#ef5500"/><path id="path4126-5-3-3" d="M62.058 355.665l1.103 2.396s2.029-2.022 1.893-2.046c-.135-.023-2.996-.35-2.996-.35z" fill="#ecf0f1" fill-opacity=".984"/><path id="path3139-9" d="M58.002 343.148c-6.637 0-12.017 4.973-12.017 11.108 0 6.135 5.38 11.108 12.017 11.108 6.636 0 12.016-4.973 12.016-11.108 0-6.135-5.38-11.108-12.016-11.108zm-2.805 11.973c3.65.002 10.518.998 10.518.998.584.137-.92 8.36-6.47 8.281-3.57-.05-9.406-2.397-9.276-6.12.06-1.718 1.29-2.761 3.889-3.092.36-.046.817-.067 1.339-.067z" color="#000" fill="#97df4e"/><path id="path3944-3-7" d="M65.588 346.84c-1.55 0-2.805 2.174-2.805 4.855 0 .348.024.688.064 1.015 1.356.67 2.934 1.473 4.741 2.386.497-.876.805-2.075.805-3.4 0-2.682-1.256-4.856-2.805-4.856z" color="#000" fill="#fff" fill-opacity=".784" stroke-width=".1"/><path id="path3944-3-4-0" d="M65.588 346.84c-1.55 0-2.805 2.174-2.805 4.855 0 .348.024.688.064 1.015 1.356.67 2.934 1.473 4.741 2.386.497-.876.805-2.075.805-3.4 0-2.682-1.256-4.856-2.805-4.856z" color="#000" fill="url(#linearGradient4294-0)" stroke="#000" stroke-width=".26"/><path id="path3944-4" d="M65.763 348.004c-1.17 0-2.12 1.757-2.12 3.924 0 .434.042.849.112 1.24 1.111.553 2.119 1.055 3.403 1.704.441-.72.725-1.77.725-2.944 0-2.167-.95-3.924-2.12-3.924z" color="#000" fill-opacity=".704" stroke-width=".1"/><path id="path3944-32-6" d="M65.866 349.086c-.952 0-1.724 1.429-1.724 3.191 0 .353.034.69.09 1.008.904.45 1.724.859 2.768 1.386.36-.585.59-1.438.59-2.394 0-1.762-.772-3.191-1.724-3.191z" color="#000" fill-opacity=".704" stroke-width=".1"/><ellipse ry=".485" rx=".32" cy="316.687" cx="148.061" transform="matrix(.95699 .29014 -.2414 .97042 0 0)" id="path4022-1" color="#000" fill="#fff" fill-opacity=".834"/><ellipse ry="1.304" rx=".643" cy="335.529" cx="106.671" transform="matrix(.98417 .17722 -.16319 .9866 0 0)" id="path4053-93" color="#000" fill="#73d412"/><ellipse ry="1.577" rx=".897" cy="306.765" cx="191.061" transform="matrix(.93756 .34783 -.39376 .91921 0 0)" id="path4053-0-4" color="#000" fill="#73d412"/><path id="path4126-2" d="M62.058 355.665l1.103 2.396s2.029-2.022 1.893-2.046c-.135-.023-2.996-.35-2.996-.35z" fill="url(#linearGradient4286-7)"/><ellipse ry=".928" rx=".885" cy="251.026" cx="278.643" transform="matrix(.82223 .56915 -.66601 .74594 0 0)" id="path4022-0-7" color="#000" fill="#fff" fill-opacity=".508"/><ellipse ry="11.108" rx="12.017" cy="354.256" cx="58.002" id="path3139-2-9-6" color="#000" fill="none" stroke="#51950d" stroke-width=".26"/></g><g transform="translate(-20.571 -267.22)" id="g4587"><path id="path4316-5" d="M52.098 428.943l-.658-7.066-2.18-1.388.49 3.613-2.279-4.734-2.8-1.772 3.069 6.569-1.782 1.722 1.88.96 1.993-1.884.387 3.03z" fill="#ff7fd6"/><path id="path4316" d="M65.245 428.848l.657-7.067 2.18-1.388-.488 3.613 2.278-4.734 2.8-1.772-3.07 6.57 1.783 1.721-1.88.961-1.994-1.884-.386 3.03z" fill="#ff7fd6"/><path id="path3139-2-9-4" d="M58.718 421.409c-4.952 0-9.145 3.496-10.574 8.324h.385c.16 0 .292.147.292.327v6.355c0 .179-.131.326-.292.326h-.462c1.346 4.975 5.602 8.61 10.65 8.61 5.172 0 9.52-3.815 10.754-8.977h-.698c-.16 0-.404-.455-.292-.326.204.239.044-3.715 0-6.332-.003-.18.131-.326.292-.326h.416c-1.524-4.65-5.638-7.981-10.471-7.981z" color="#000" fill="#97df4e"/><ellipse ry="1.851" rx="1.023" cy="435.481" cx="-130.483" transform="matrix(.9632 -.26875 .41755 .90866 0 0)" id="path4053" color="#000" fill="#73d412"/><ellipse ry="1.795" rx="1.123" cy="448.575" cx="111.951" transform="matrix(.99072 -.13595 -.11071 .99385 0 0)" id="path4053-0" color="#000" fill="#73d412"/><path id="path4073" d="M68.599 435.086c-2.84.579-7.021 3.509-10.164 3.533-3.727.028-9.38-3.576-10.45-3.435-.738.312 2.107 10.038 9.953 10.007 4.562-.018 6.772-1.141 8.783-3.612 1.281-1.576 2.327-3.718 2.78-5.13h-.62c-.161 0-.288-.147-.288-.326v-1.002c0-.012.004-.024.005-.035z" fill="#73d412"/><path id="path4077-5" d="M53.034 441.771c-.196-.315 2.752 1.984 5.312 2.11 1.666.082 2.246-.294 2.842-.48.585-.181 3.656-2.533 3.51-2.523 0 0-4.317 1.638-6.182 1.626-1.622-.01-5.482-.733-5.482-.733z" fill="#e3311c"/><path id="path4105" d="M51.148 438.91c.068.582-.04.906.232 1.489.527 1.123 4.995 3.494 6.995 3.498 2 .004 2.795-.457 4.034-1.198 1.25-.75 2.588-1.773 3.25-3.174.24-.51.174-1.717.174-1.717" fill="none" stroke="#51950d" stroke-width=".248"/><path id="path3139-2-9" d="M58.718 421.26c-4.979 0-9.209 3.51-10.666 8.382h.246c1.452-4.69 5.558-8.084 10.42-8.084 4.75 0 8.79 3.24 10.327 7.763h.241c-1.546-4.704-5.7-8.061-10.568-8.061zm10.655 15.023c-1.202 5.116-5.51 8.914-10.655 8.914-4.992 0-9.189-3.574-10.533-8.456h-.241c1.348 5.068 5.668 8.76 10.774 8.76 5.258 0 9.687-3.917 10.891-9.218h-.236z" color="#000" fill="#51950d"/><path id="path4195" d="M68.44 429.573s.755-.563 1.046-1.008c.238-.364.554-1.35.554-1.35s.36 1.164.329 1.648c-.032.484-.39 1.145-.39 1.145-.37-.368-.646-.885-1.54-.435z"/><path id="path4163" d="M68.535 429.586c-.086 2.164-.222 4.294.013 6.612 0 0 .761.42 1.102-.007.6-.752.71-2.774.657-3.779-.06-1.104-.063-2.367-.862-3.023-.353-.29-.91.197-.91.197z" fill="url(#linearGradient14620)" stroke="#000" stroke-width=".173"/><path id="path4175" d="M68.452 431.021l.09 5.159s.758.136.928-.22c.435-.908.478-2.082.42-3.029-.044-.715-.119-1.462-.59-1.856-.226-.19-.848-.054-.848-.054z" fill-opacity=".706"/><path id="path4173" d="M68.524 431.711c-.152 1.31-.167 2.43-.007 3.702 0 0 .463.132.651-.068.345-.366.397-1.375.39-2.085-.005-.513.07-1.097-.312-1.5-.19-.199-.722-.049-.722-.049z" fill-opacity=".706"/><ellipse transform="matrix(.97516 .22148 -.1141 .99347 0 0)" id="path4022-04" cx="118.608" cy="408.718" rx=".245" ry=".388" color="#000" fill="#fff" fill-opacity=".834"/><path id="path4195-8" d="M48.954 429.94s-.755-.564-1.046-1.008c-.238-.364-.554-1.351-.554-1.351s-.36 1.164-.329 1.648c.032.485.39 1.145.39 1.145.37-.367.646-.884 1.54-.435z"/><path id="path4163-6" d="M48.859 429.953c.086 2.163.222 4.293-.013 6.611 0 0-.761.421-1.102-.007-.6-.751-.71-2.774-.657-3.778.059-1.105.063-2.368.862-3.023.353-.29.91.196.91.196z" fill="url(#linearGradient9965)" stroke="#000" stroke-width=".173"/><path id="path4175-9" d="M48.941 431.388l-.09 5.158s-.757.136-.927-.219c-.435-.909-.478-2.082-.42-3.03.044-.714.119-1.462.59-1.856.226-.19.847-.053.847-.053z" fill-opacity=".706"/><path id="path4173-8" d="M48.87 432.077c.152 1.31.167 2.43.007 3.702 0 0-.463.132-.651-.067-.345-.366-.397-1.376-.39-2.086.005-.513-.071-1.096.312-1.5.19-.198.722-.049.722-.049z" fill-opacity=".706"/><ellipse transform="matrix(-.97516 .22148 .1141 .99347 0 0)" id="path4022-04-6" cx="1.326" cy="435.233" rx=".245" ry=".388" color="#000" fill="#fff" fill-opacity=".834"/><ellipse ry=".928" rx=".885" cy="316.886" cx="331.58" transform="matrix(.82223 .56915 -.66601 .74594 0 0)" id="path4022-0-7-1" color="#000" fill="#fff" fill-opacity=".508"/></g><g transform="translate(-20.571 -267.22)" id="g4609"><ellipse ry="12.539" rx="13.849" cy="392.801" cx="58.677" id="path4092" color="#000" fill="#dd96e6" stroke="#7d0d95" stroke-width=".053" stroke-linecap="round" stroke-linejoin="round"/><ellipse ry="12.553" rx="13.85" cy="392.791" cx="58.677" id="path4092-4" color="#000" fill="none" stroke="#b251ba" stroke-width=".313" stroke-linecap="round" stroke-linejoin="round"/><ellipse id="path4261" cx="66.895" cy="394.632" rx="3.482" ry="5.477" color="#000" fill="url(#linearGradient4269-8)" stroke="#000" stroke-width=".298" stroke-linecap="round" stroke-linejoin="round"/><ellipse id="path4296" cx="67.596" cy="393.53" rx="1.762" ry="3.73" color="#000" fill-opacity=".706" stroke-width="1.5"/><ellipse id="path4296-2" cx="67.219" cy="393.887" rx="2.644" ry="4.802" color="#000" fill-opacity=".706" stroke-width="1.5"/><ellipse transform="matrix(.80064 -.59914 .62997 .77662 0 0)" id="path4022-1-2" cx="-193.822" cy="354.026" rx=".92" ry=".858" color="#000" fill="#fff" fill-opacity=".834"/><path id="path4338" d="M63.42 393.176s.078-1.629.655-2.638c.577-1.009 1.718-2.105 2.593-2.143.72-.03 1.523.558 2.24.495.718-.064 1.838-.715 1.838-.715-.43.707-1.238.982-1.258 1.951l.302 1.21s-1.074-1.682-1.888-2.09c-.451-.225-1.005-.242-1.486-.109-.683.19-1.32.66-1.787 1.236-.626.775-1.209 2.803-1.209 2.803z"/><path id="path4053-93-8-3-9" d="M55.237 393.417c.469.918.554 1.882.19 2.153-.365.271-.473-.893-.804-1.858-.401-1.169-.747-1.978-.316-1.549.31.308.461.336.93 1.254z" color="#000" fill="#ce64dc"/><path d="M55.416 395.67s.274-.76.019-1.775c-.256-1.016-1.467-2.137-1.467-2.117" id="path4852-8" fill="none" stroke="#b251ba" stroke-width=".232"/><path d="M60.518 394.78c-.36.824-.438 1.21-.745.986-.307-.224-.173-.616.188-1.44.361-.822.878-1.527 1.184-1.303.307.224-.265.935-.627 1.758z" id="path4053-0-4-1-5-8" color="#000" fill="#ce64dc"/><path d="M59.694 396.015s-.052-.455.203-1.471c.256-1.016 1.492-1.734 1.215-1.577" id="path4852-5-6" fill="none" stroke="#b251ba" stroke-width=".233"/><ellipse ry="5.47" rx="3.487" cy="398.289" cx="-5.927" transform="matrix(-.99133 .1314 .1106 .99387 0 0)" id="path4261-3" color="#000" fill="url(#linearGradient4469-0)" stroke="#000" stroke-width=".298" stroke-linecap="round" stroke-linejoin="round"/><ellipse ry="3.726" rx="1.765" cy="397.943" cx="-6.749" transform="matrix(-.99133 .1314 .1106 .99387 0 0)" id="path4296-8" color="#000" fill-opacity=".706" stroke-width="1.5"/><ellipse ry="4.796" rx="2.647" cy="397.816" cx="-6.422" transform="matrix(-.99133 .1314 .1106 .99387 0 0)" id="path4296-2-2" color="#000" fill-opacity=".706" stroke-width="1.5"/><ellipse ry=".867" rx=".911" cy="315.797" cx="-252.074" transform="matrix(-.86936 -.49418 -.53421 .84535 0 0)" id="path4022-1-2-6" color="#000" fill="#fff" fill-opacity=".834"/><path id="path4338-2" d="M53.21 393.164s-.256-1.606-.94-2.532c-.685-.926-1.939-1.864-2.811-1.786-.719.064-1.45.754-2.17.785-.72.032-1.903-.467-1.903-.467.506.645 1.337.812 1.465 1.771l-.167 1.24s.88-1.81 1.644-2.322c.423-.283.97-.373 1.463-.304.7.098 1.384.48 1.91.992.707.686 1.51 2.623 1.51 2.623z"/><path id="path4495" d="M54.433 401.556s1.56 2.074 3.373 2.034c1.62-.037 2.92-1.786 2.92-1.786" fill="none" stroke="#b251ba" stroke-width=".21"/><path id="path4316-5-7-2" d="M56.085 387.508l-.711-6.235-2.36-1.225.53 3.188-2.467-4.177-3.03-1.563 3.321 5.796-1.929 1.52 2.036.847 2.157-1.663.418 2.674z" fill="#ffc000"/><path id="path4316-8-8" d="M60.757 387.742l.712-6.235 2.36-1.225-.53 3.188 2.467-4.177 3.03-1.563-3.321 5.796 1.928 1.52-2.035.847-2.157-1.663-.419 2.674z" fill="#ffc000"/></g><g transform="translate(-20.571 -267.22)" id="g4558"><path d="M64.418 469.312l-.741-7.356-2.458-1.444.55 3.76-2.568-4.927-3.158-1.845 3.46 6.838-2.008 1.793 2.12 1 2.247-1.962.436 3.154z" id="path4316-8-6-4" fill="#ffc000"/><path id="path5001-5-1-2" d="M53.27 481.76l.417-3.163 2.04 1.508z" fill="#999" fill-opacity="1" stroke="none"/><path id="path5001-5-1" d="M55.045 480.293l.418-3.163 2.04 1.508z" fill="#999" fill-opacity="1" stroke="none"/><path id="path5001-5-1-5" d="M57.145 478.27l.442-2.072 1.692 1.335z" fill="#999" fill-opacity="1" stroke="none"/><path id="path5097" d="M61.504 477.092s-.624.37-1.279.494c-.654.124-1.298-.002-2.14.164-.842.165-1.872.479-2.65 1.073-.777.595-2.072 1.87-2.286 2.295-.214.425-.712.525-1.075.959-.183.217-.383.715-.392.986-.005.133.269.73.517.807.788.245 2.343-.253 2.343-.253l7.634-5.823z" fill="#e3311c" fill-opacity="1" stroke="none"/><path id="path5097-6" d="M57.988 477.78a5.91 5.91 0 0 0-1.255.324c-.65.26-1.235.618-1.363.726-.128.108-.763.61-1.238 1.07-.512.498-1.975 2.073-1.996 2.17-.444 1.602 3.755-1.774 5.13-2.875 1.122-1.121 1.357-1.451.722-1.416z" fill="#ef5500" fill-opacity="1" stroke="none"/><path id="path5001-5" d="M54.375 483.255l.418-3.162 2.144 1.7z" fill="#d3d3d3" fill-opacity="1" stroke="none"/><path id="path4848-2" d="M72.39 478.05c-1.376 6.457-15.003 8.642-18.996 6.846-1.6-.72.204-1.701 1.62-2.434 4.858-2.51 8.669-4.094 7.064-5.242-7.077-5.064-7.87-5.501-9.651-6.683.46-2.054-4.75-2.562-3.154-4.072.709-.67 1.357-1.009 2.15-1.475 3.28-1.927 7.095-2.157 10.177-1.544 6.694 1.467 11.456 7.031 11.047 13.06" style="marker:none" color="#000" display="inline" overflow="visible" visibility="visible" fill="#ff776d" fill-opacity="1" fill-rule="nonzero" stroke="none" stroke-width="2"/><path id="path5001-89" d="M52.177 484.654c.061-1.142.127-2.897.485-4.216.878.942 1.124 2.215 1.777 2.759z" fill="#d3d3d3" fill-opacity="1" stroke="none"/><path id="path5001-8" d="M58.692 480.827l.56-2.746 1.702 1.29z" fill="#d3d3d3" fill-opacity="1" stroke="none"/><path id="path5205" d="M59.975 477.537c-.16-.163-14.074 3.027-14.112 3.766l1.732-2.414-2.924-1.055 2.152-.574-2.095-1.99 2.105-.113-.735-2.623c3.883 3.74 9.006 4.02 13.877 5.003z" fill="url(#linearGradient5460)" fill-opacity="1" stroke="none"/><path id="path5207" d="M59.745 477.47c-2.617.395-5.315.82-8.281 1.345-.254-.341 1.443-.563 2.168-.844l-2.934.223-.134-.095c.197-.425.754-.19 1.226-.358 0 0-.995-.342-.868-.36.127-.016 1.14-.11 1.14-.11s-1.7-.632-1.664-.87c.034-.24.276-.14.547-.094.27.047 8.789 1.186 8.8 1.163z" fill="url(#linearGradient5462)" fill-opacity="1" stroke="none"/><path id="path4889-7" d="M56.591 473.242s-.279 1.504-.275 2.175c.004.671.33 2.082.33 2.082.804-.588 1.817-1.538 3.118-2.197z" fill="#d3d3d3" fill-opacity="1" stroke="none"/><path id="path4889-5" d="M59.354 474.23s-.043 1.123-.25 1.94c-.208.818-.132 2.077-.132 2.077.804-.588 2.254-1.297 3.555-1.957z" fill="#d3d3d3" fill-opacity="1" stroke="none"/><path id="path4889-4" d="M53.339 471.24s-.357 1.39-.353 2.06l.015 2.471a55.204 55.204 0 0 1 3.639-2.107z" fill="#d3d3d3" fill-opacity="1" stroke="none"/><path id="path4889" d="M50.096 469.293s-.254 1.268-.25 1.94c.004.67.305 2.316.305 2.316.804-.588 1.817-1.537 3.119-2.197z" fill="#d3d3d3" fill-opacity="1" stroke="none"/><path id="path5001" d="M56.782 481.857s-.044-1.082-.016-1.795c.028-.714.254-1.325.254-1.325.914.458 1.615.92 1.937 1.389z" fill="#d3d3d3" fill-opacity="1" stroke="none"/><path id="path4848" d="M72.39 478.05c-.91 4.115-11.758 7.948-19.183 6.873-1.065-.018-3.915-1.28-1.089-2.727 4.746-1.175 6.413-1.586 8.729-3.54.135-.114.762-.593.58-.777-4.318-4.34-9.814-7.294-11.961-9.045-.736-.599-.589-.514-.606-1.313-.019-.9.537-1.284 1.062-1.689.977-.753 2.19-1.276 3.387-1.732.311-.118-.194 1.159-.254 1.532-.53 3.3 8.878 7.612 11.408 8.528 3.298 1.195 6.007-.288 5.863-3.086-.016-.31.006-2.068.29-1.644 1.415 2.117 2.155 4.589 1.982 7.133" style="marker:none" color="#000" display="inline" overflow="visible" visibility="visible" fill="#ff4739" fill-opacity="1" fill-rule="nonzero" stroke="none" stroke-width="2"/><path id="path4850" d="M56.091 464.505c.214.145.969.146 1.391.032.423-.114 1.443-.468 1.235-.769-.208-.301-1.272-.28-1.758-.096-.487.184-1.082.688-.868.833z" fill="#ff4739" fill-opacity="1" stroke="none"/><path id="path4850-7" d="M59.277 466.12c.11.292 1.24.495 1.89.584.652.09 1.933.049 1.777-.327-.156-.375-1.113-.517-1.915-.64-.802-.125-1.861.09-1.752.382z" fill="#ff4739" fill-opacity="1" stroke="none"/><path id="path5231" d="M63.031 473.024s2.22 1.358 3.17 1.5c.951.144 1.655.262 2.235-.005.58-.268 1.245-.828 1.55-1.408.305-.58.175-1.145.17-1.551-.004-.407-.114-.874-.114-.874l-1.192.944-2.399 1.015-1.687.416z" fill="url(#linearGradient5464)" fill-opacity="1" stroke="#000" stroke-width=".179" stroke-linecap="butt" stroke-linejoin="miter" stroke-opacity="1"/><path id="path5233" d="M70.452 469.464s-.887 1.394-1.538 1.82c-.656.428-1.887 1.01-2.705 1.29-.81.277-1.38.378-2.002.375-.59-.003-1.626-.19-1.626-.19l.106.173s.798.434 1.495.437c.666.003 1.625.013 2.46-.274.827-.283 1.93-.813 2.518-1.411.616-.627.926-1.14.926-1.14.47-.98.39-.982.366-1.08z" style="line-height:normal;-inkscape-font-specification:Sans;text-indent:0;text-align:start;text-decoration-line:none;text-transform:none;block-progression:tb;marker:none" color="#000" font-style="normal" font-variant="normal" font-weight="400" font-stretch="normal" font-size="medium" font-family="Sans" text-decoration="none" letter-spacing="normal" word-spacing="normal" direction="ltr" writing-mode="lr-tb" baseline-shift="baseline" text-anchor="start" display="inline" overflow="visible" visibility="visible" fill="#000" fill-opacity="1" stroke="none" stroke-width="2"/><path id="path4175-8-3" d="M69.41 471.354l-3.248 1.49-2.418.49c1.675.977 2.407 1.389 4.056.752.651-.375 1.317-.986 1.61-2.732z" fill-opacity=".706"/><path id="path4173-4-2" d="M64.436 473.361c.669.907 2.113.506 2.857.154.438-.213.59-.541.776-1.013.093-.233-.078-.137-.078-.137-1.356.546-2.471.928-3.555.996z" fill-opacity=".706"/><ellipse ry=".511" rx=".321" cy="183.104" cx="423.274" transform="matrix(.51127 .85942 -.80419 .59437 0 0)" id="path4022-04-68-7" color="#000" fill="#fff" fill-opacity=".834"/><path d="M64.297 469.312l.741-7.356 2.458-1.444-.55 3.76 2.568-4.927 3.157-1.845-3.46 6.838 2.01 1.793-2.121 1-2.248-1.962-.435 3.154z" id="path4316-8-6" fill="#ffc000"/><ellipse ry=".81" rx=".866" cy="553.052" cx="478.487" transform="matrix(.97733 .21172 -.75272 .65834 0 0)" id="path4022-0-7-1-0-7" color="#000" fill="#fff" fill-opacity=".508"/></g><text xml:space="preserve" style="line-height:1.25;-inkscape-font-specification:Utopia" x="31.047" y="43.598" id="text932" font-style="normal" font-variant="normal" font-weight="400" font-stretch="normal" font-size="16.777" font-family="Utopia" letter-spacing="0" word-spacing="0" fill="#4d4d4d" fill-opacity="1" stroke="none" stroke-width=".419"><tspan id="tspan930" x="31.047" y="43.598" style="-inkscape-font-specification:Utopia" font-style="normal" font-variant="normal" font-weight="400" font-stretch="normal" font-family="Utopia" fill="#4d4d4d" fill-opacity="1" stroke-width=".419">Поиск...</tspan></text></svg>