<svg xmlns="http://www.w3.org/2000/svg" xmlns:xlink="http://www.w3.org/1999/xlink" viewBox="0 0 256 256" id="svg2" version="1.1"><defs id="defs4"><linearGradient gradientUnits="userSpaceOnUse" y2="11" x2="24" y1="44" x1="24" id="linearGradient4205" xlink:href="#linearGradient4143"/><linearGradient id="linearGradient4143"><stop id="stop4145" offset="0" stop-color="#197cf1" stop-opacity="1"/><stop id="stop4147" offset="1" stop-color="#20bcfa" stop-opacity="1"/></linearGradient><linearGradient gradientTransform="matrix(1.125 0 0 1 -51.072 0)" gradientUnits="userSpaceOnUse" y2="513.798" x2="409.571" y1="543.798" x1="409.571" id="linearGradient4158-6" xlink:href="#linearGradient4143"/><linearGradient gradientTransform="translate(-384.571 -499.798)" gradientUnits="userSpaceOnUse" y2="538.798" x2="416.572" y1="522.798" x1="400.571" id="linearGradient4232" xlink:href="#linearGradient4227"/><linearGradient id="linearGradient4227"><stop offset="0" id="stop4229" stop-color="#292c2f" stop-opacity="1"/><stop offset="1" id="stop4231" stop-color="#000" stop-opacity="0"/></linearGradient><linearGradient y2="10" x2="24" y1="14" x1="24" gradientUnits="userSpaceOnUse" id="linearGradient4174" xlink:href="#linearGradient4143"/><linearGradient gradientUnits="userSpaceOnUse" y2="14" x2="25" y1="10" x1="25" id="linearGradient4302" xlink:href="#linearGradient4159"/><linearGradient id="linearGradient4159"><stop id="stop4161" offset="0" stop-color="#1d1e1e" stop-opacity="1"/><stop id="stop4163" offset="1" stop-color="#44484c" stop-opacity="1"/></linearGradient><linearGradient gradientUnits="userSpaceOnUse" y2="503.798" x2="408.571" y1="516.798" x1="408.571" id="linearGradient4187" xlink:href="#linearGradient4143"/><linearGradient gradientUnits="userSpaceOnUse" y2="514.798" x2="400.571" y1="517.798" x1="400.571" id="linearGradient4290" xlink:href="#linearGradient4303-3"/><linearGradient id="linearGradient4303-3"><stop id="stop4305-1" offset="0" stop-color="#c6cdd1" stop-opacity="1"/><stop id="stop4307-9" offset="1" stop-color="#e0e5e7" stop-opacity="1"/></linearGradient><linearGradient gradientUnits="userSpaceOnUse" y2="15" x2="32" y1="18" x1="32" id="linearGradient4282" xlink:href="#linearGradient4303-3"/><linearGradient gradientUnits="userSpaceOnUse" y2="23" x2="24" y1="39" x1="24" id="linearGradient4222" xlink:href="#linearGradient4290-2"/><linearGradient id="linearGradient4290-2"><stop offset="0" id="stop4292" stop-color="#7cbaf8" stop-opacity="1"/><stop offset="1" id="stop4294" stop-color="#f4fcff" stop-opacity="1"/></linearGradient><linearGradient gradientUnits="userSpaceOnUse" y2="503.798" x2="409.571" y1="543.798" x1="409.571" id="linearGradient4165" xlink:href="#linearGradient4159"/><linearGradient gradientUnits="userSpaceOnUse" y2="536.798" x2="425.571" y1="517.798" x1="406.571" id="linearGradient4342" xlink:href="#linearGradient4227"/><linearGradient gradientUnits="userSpaceOnUse" y2="516.798" x2="417.571" y1="530.798" x1="417.571" id="linearGradient4332" xlink:href="#linearGradient4326"/><linearGradient id="linearGradient4326"><stop id="stop4328" offset="0" stop-color="#9ed3fb" stop-opacity="1"/><stop id="stop4330-3" offset="1" stop-color="#effaff" stop-opacity="1"/></linearGradient><linearGradient gradientTransform="translate(0 1)" gradientUnits="userSpaceOnUse" y2="508.798" x2="400.571" y1="516.798" x1="392.571" id="linearGradient4943" xlink:href="#linearGradient4300-7"/><linearGradient id="linearGradient4300-7"><stop id="stop4302-4" offset="0" stop-color="#f39c12" stop-opacity="1"/><stop id="stop4304-1" offset="1" stop-color="#f5ab35" stop-opacity="1"/></linearGradient><linearGradient gradientTransform="translate(0 -1)" gradientUnits="userSpaceOnUse" y2="504.798" x2="428.571" y1="519.798" x1="428.571" id="linearGradient4466-8" xlink:href="#linearGradient4152"/><linearGradient id="linearGradient4152"><stop id="stop4154" offset="0" stop-color="#bd8d48" stop-opacity="1"/><stop id="stop4156" offset="1" stop-color="#e8b971" stop-opacity="1"/></linearGradient><linearGradient gradientUnits="userSpaceOnUse" y2="506.798" x2="406.571" y1="506.798" x1="428.571" id="linearGradient4768" xlink:href="#linearGradient4273"/><linearGradient id="linearGradient4273"><stop id="stop4275" offset="0" stop-color="#e3dfd6" stop-opacity="1"/><stop id="stop4277" offset="1" stop-color="#f4f1e8" stop-opacity="1"/></linearGradient><linearGradient gradientTransform="translate(0 1)" gradientUnits="userSpaceOnUse" y2="504.798" x2="428.571" y1="519.798" x1="428.571" id="linearGradient4466" xlink:href="#linearGradient4152"/><linearGradient gradientUnits="userSpaceOnUse" y2="536.291" x2="437.714" y1="536.291" x1="427.714" id="linearGradient5038" xlink:href="#linearGradient4303-3"/><linearGradient gradientTransform="rotate(-45 -392.172 755.393)" gradientUnits="userSpaceOnUse" y2="544.791" x2="432.714" y1="531.791" x1="432.714" id="linearGradient5050" xlink:href="#linearGradient4213"/><linearGradient id="linearGradient4213"><stop id="stop4215" offset="0" stop-color="#000" stop-opacity="1"/><stop id="stop4217" offset="1" stop-color="#000" stop-opacity="0"/></linearGradient><linearGradient y2="528.513" x2="430.466" y1="541.508" x1="428.756" gradientUnits="userSpaceOnUse" id="linearGradient5040" xlink:href="#linearGradient4303-3"/><linearGradient gradientTransform="translate(384.571 499.798)" gradientUnits="userSpaceOnUse" y2="20" x2="25" y1="44" x1="25" id="linearGradient4486" xlink:href="#linearGradient4903"/><linearGradient id="linearGradient4903"><stop id="stop4905" offset="0" stop-color="#eef1f2" stop-opacity="1"/><stop id="stop4907" offset="1" stop-color="#f9fafb" stop-opacity="1"/></linearGradient><linearGradient gradientUnits="userSpaceOnUse" y2="536.798" x2="426.571" y1="529.798" x1="419.571" id="linearGradient4356" xlink:href="#linearGradient4213"/><linearGradient gradientTransform="translate(58.788 33.941)" gradientUnits="userSpaceOnUse" x2="-14.394" x1="-44.394" id="linearGradient4464" xlink:href="#linearGradient4458"/><linearGradient id="linearGradient4458"><stop id="stop4460" stop-color="#95a5a6"/><stop id="stop4462" offset="1" stop-color="#eff0f1"/></linearGradient><linearGradient gradientTransform="rotate(180 24 24)" gradientUnits="userSpaceOnUse" x2="40" y2="37" x1="6" y1="3" id="linearGradient4472" xlink:href="#linearGradient4458"/><linearGradient gradientUnits="userSpaceOnUse" x2="32.067" y2="40.067" x1="24.817" y1="32.817" id="linearGradient4604" xlink:href="#linearGradient4227"/><linearGradient gradientTransform="translate(-347.959 -469.812) scale(.92857)" x2="0" gradientUnits="userSpaceOnUse" y2="517.798" y1="545.798" xlink:href="#linearGradient4143" id="linearGradient4149"/><linearGradient gradientTransform="matrix(.65 0 0 .65 -241.571 -316.469)" gradientUnits="userSpaceOnUse" x2="0" y2="543.798" y1="503.798" id="linearGradient4305" xlink:href="#linearGradient4299-9"/><linearGradient id="linearGradient4299-9"><stop id="stop4301" stop-color="#abf9c7"/><stop id="stop4303" offset="1" stop-color="#54d883"/></linearGradient><style id="current-color-scheme" type="text/css">.ColorScheme-Text{color:#4d4d4d}</style></defs><path d="M16 10h224c3.324 0 6 2.676 6 6v224c0 3.324-2.676 6-6 6H16c-3.324 0-6-2.676-6-6V16c0-3.324 2.676-6 6-6z" id="rect4240" fill="currentColor" fill-opacity=".5" stroke="none" color="#31363b"/><path d="M16 12h224c2.216 0 4 1.784 4 4v224c0 2.216-1.784 4-4 4H16c-2.216 0-4-1.784-4-4V16c0-2.216 1.784-4 4-4z" id="rect4238" fill="currentColor" fill-opacity="1" stroke="none" color="#eff0f1"/><path class="ColorScheme-Text" d="M25.594 26.734L21.35 38.318h1.427l1.358-3.728h4.435l1.366 3.728h1.378l-4.236-11.584h-1.484zm21.361 0a.865.865 0 0 0-.627.239.798.798 0 0 0-.238.601c0 .249.08.453.238.611a.865.865 0 0 0 .627.239.85.85 0 0 0 .617-.239.814.814 0 0 0 .246-.61.784.784 0 0 0-.246-.602.833.833 0 0 0-.617-.239zm-4.928.889l-1.056.078-.213 2.223-1.293.088-.033.744h1.295v5.047c0 .513.044.928.134 1.246.09.317.25.579.483.785.238.206.546.35.922.43.375.079.866.119 1.474.119v-.002h.55l.062-.905-.666-.03c-.704-.027-1.157-.137-1.358-.333-.2-.2-.3-.639-.3-1.31v-5.047h2.22v-.832h-2.22v-2.301zm-15.68.477l1.905 5.521h-3.793l1.889-5.521zm9.99 1.65c-1.168 0-2.117.393-2.847 1.182-.73.782-1.095 1.858-1.095 3.228 0 1.312.353 2.36 1.062 3.143.714.783 1.672 1.173 2.873 1.173.513 0 .974-.06 1.38-.181.408-.122.702-.254.882-.397l-.246-.896a3.49 3.49 0 0 1-1.77.459c-.926 0-1.63-.304-2.111-.912-.482-.609-.72-1.405-.72-2.389 0-1.037.249-1.86.751-2.475.503-.613 1.17-.92 2-.92.656 0 1.24.153 1.754.46l.373-.905c-.18-.121-.471-.246-.873-.373-.397-.132-.867-.197-1.412-.197zm17.212 0c-1.233 0-2.2.401-2.904 1.205-.699.799-1.05 1.857-1.05 3.174 0 1.285.356 2.333 1.065 3.142.709.804 1.672 1.205 2.889 1.205 1.19 0 2.146-.403 2.87-1.212.726-.815 1.089-1.86 1.089-3.135 0-1.317-.35-2.375-1.049-3.174-.698-.804-1.667-1.205-2.91-1.205zm9.799 0c-1.265 0-2.215.443-2.85 1.332l-.143-1.158h-1.142v8.394h1.318v-4.681c0-1.92.862-2.881 2.586-2.881.64 0 1.086.194 1.34.58.254.38.38.949.38 1.705v5.277h1.32v-5.133c0-1.153-.232-2.014-.692-2.58-.455-.57-1.16-.855-2.117-.855zm7.418 0c-.878 0-1.56.212-2.047.635-.487.418-.73.968-.73 1.65 0 .55.14.999.421 1.348.28.344.798.637 1.555.88l.92.294c.608.195 1.029.404 1.261.627.233.222.35.498.35.826 0 .476-.141.84-.422 1.093-.28.25-.674.373-1.181.373-.81 0-1.716-.239-2.721-.72v1.101c.867.413 1.741.62 2.625.62a3.98 3.98 0 0 0 1.096-.143c.338-.095.64-.237.904-.428.27-.19.481-.444.635-.762a2.56 2.56 0 0 0 .23-1.11c0-.34-.032-.626-.096-.858a1.76 1.76 0 0 0-.35-.666 2.161 2.161 0 0 0-.704-.54 6.8 6.8 0 0 0-1.15-.46l-.835-.262c-.544-.175-.9-.339-1.07-.492-.17-.154-.254-.402-.254-.746 0-.408.13-.716.389-.928.264-.217.7-.326 1.308-.326.683 0 1.39.186 2.12.556l.308-.976a5.712 5.712 0 0 0-2.562-.586zm-24.471.174v8.394h1.303v-8.394h-1.303zm7.254.832c.862 0 1.512.31 1.951.93.439.613.658 1.432.658 2.458 0 .656-.09 1.231-.27 1.723-.18.487-.47.878-.872 1.174-.397.29-.885.435-1.467.435-.847 0-1.493-.306-1.938-.92-.444-.613-.666-1.42-.666-2.42 0-1.02.222-1.837.666-2.45.445-.62 1.091-.93 1.938-.93zM20 50v1h216v-1H20zm116.594 10.42c-.59 0-1.033.164-1.326.494-.293.33-.44.888-.44 1.678v.41l-1.14.103-.032.532h1.172v5.816h1.014v-5.816h1.533v-.643h-1.533v-.463c0-.3.018-.543.055-.726.036-.188.098-.325.183-.414a.64.64 0 0 1 .287-.184c.102-.029.238-.043.408-.043.212 0 .42.02.624.06l.074-.7a4.906 4.906 0 0 0-.88-.104zm-19.838.049l-1 .072v7.062c0 .387.045.709.135.965.09.253.227.444.414.578.187.135.398.229.634.282.24.048.537.074.891.074h.482l.055-.697-.273-.018a30.458 30.458 0 0 1-.41-.031 6.125 6.125 0 0 1-.317-.049.933.933 0 0 1-.25-.084 1.501 1.501 0 0 1-.166-.135.439.439 0 0 1-.12-.201 3.176 3.176 0 0 1-.056-.281 3.401 3.401 0 0 1-.02-.385v-7.152zm-45.104.072v8.912h1.075v-4.31h1.927c1.005 0 1.738-.203 2.198-.61.46-.41.689-1.015.689-1.812 0-.391-.07-.73-.213-1.014a1.618 1.618 0 0 0-.605-.684 2.878 2.878 0 0 0-.903-.365 5.167 5.167 0 0 0-1.148-.117h-3.02zm50.598 0v.654h1.27V68.8h-1.27v.654h3.602V68.8h-1.258v-7.604h1.258v-.654h-3.602zm49.713 0a.666.666 0 0 0-.483.184.614.614 0 0 0-.183.462c0 .192.061.35.183.471a.666.666 0 0 0 .483.184c.191 0 .35-.062.476-.184a.627.627 0 0 0 .19-.47.604.604 0 0 0-.19-.463.645.645 0 0 0-.476-.184zm19.52 0l-.178 8.912h1.013l.086-5.5v-2.105l2.807 6.609h.922l2.826-6.537v2.01l.086 5.523h1l-.178-8.912h-1.281l-2.899 6.77-2.886-6.77h-1.319zm-23.311.684l-.81.062-.167 1.709-.994.066-.025.575h.996v3.88c0 .395.034.715.103.96.07.244.194.444.373.603.184.159.419.269.707.33.29.061.667.092 1.135.092h.422l.049-.695-.514-.026c-.54-.02-.888-.105-1.043-.256-.154-.154-.232-.49-.232-1.007v-3.881h1.709v-.641h-1.71v-1.771zm-95.445.123h1.939c.586 0 1.033.104 1.338.316.31.208.463.564.463 1.068 0 .586-.14.997-.42 1.233-.277.236-.749.355-1.416.355h-1.904v-2.972zm8.677 1.513c-.854 0-1.558.308-2.111.922-.553.615-.83 1.437-.83 2.47 0 1.022.282 1.832.848 2.43.565.595 1.303.891 2.21.891.814 0 1.54-.188 2.178-.566l-.213-.715c-.341.17-.65.3-.927.385a3.117 3.117 0 0 1-.922.127c-.623 0-1.127-.197-1.514-.592-.387-.399-.596-1.008-.629-1.83h4.365l.036-.514c0-.944-.214-1.68-.641-2.209-.423-.533-1.04-.799-1.85-.799zm10.317 0c-.676 0-1.202.163-1.576.489-.375.321-.561.744-.561 1.27 0 .422.107.768.322 1.036.216.265.616.49 1.198.678l.707.225c.467.15.791.311.97.482.18.17.27.382.27.635 0 .366-.109.648-.324.843-.216.192-.518.286-.909.286-.622 0-1.32-.185-2.093-.555v.848a4.66 4.66 0 0 0 2.02.476c.304 0 .585-.036.84-.11.261-.072.495-.183.698-.33.208-.146.37-.341.488-.585.118-.248.176-.532.176-.854 0-.26-.023-.48-.072-.66a1.352 1.352 0 0 0-.27-.512 1.668 1.668 0 0 0-.543-.416 5.236 5.236 0 0 0-.884-.353l-.64-.201c-.42-.135-.695-.261-.825-.38-.13-.117-.195-.309-.195-.573 0-.314.099-.55.298-.713.204-.167.54-.25 1.008-.25.525 0 1.068.14 1.63.425l.237-.75a4.392 4.392 0 0 0-1.97-.45zm6.213 0c-.948 0-1.694.31-2.235.928-.537.614-.804 1.428-.804 2.441 0 .99.27 1.794.816 2.416.545.619 1.287.928 2.223.928.915 0 1.651-.31 2.209-.933.557-.627.836-1.43.836-2.41 0-1.014-.268-1.828-.805-2.442-.537-.618-1.284-.928-2.24-.928zm7.537 0c-.973 0-1.703.342-2.192 1.026l-.11-.893h-.878v6.46h1.014V65.85c0-1.477.663-2.214 1.99-2.214.492 0 .836.148 1.031.445.195.293.293.73.293 1.312v4.06h1.012v-3.95c0-.887-.175-1.55-.53-1.985-.35-.439-.894-.658-1.63-.658zm6.097 0c-.862 0-1.64.161-2.332.483l.276.744a4.358 4.358 0 0 1 1.013-.33 5.049 5.049 0 0 1 1.06-.121c.49 0 .846.115 1.07.347.227.232.341.583.341 1.055v.635h-1.031c-1.038 0-1.794.164-2.27.494-.472.325-.709.84-.709 1.539 0 .586.18 1.043.537 1.373.363.33.842.494 1.436.494.887 0 1.607-.34 2.16-1.02l.11.893h.77v-4.262c0-.821-.213-1.413-.636-1.775-.419-.366-1.017-.549-1.795-.549zm18.977 0c-.973 0-1.703.342-2.191 1.026l-.11-.893h-.879v6.46h1.012V65.85c0-1.477.664-2.214 1.99-2.214.493 0 .836.148 1.031.445.196.293.293.73.293 1.312v4.06h1.014v-3.95c0-.887-.177-1.55-.531-1.985-.35-.439-.893-.658-1.63-.658zm10.576 0c-.948 0-1.691.31-2.232.928-.537.614-.807 1.428-.807 2.441 0 .99.273 1.794.818 2.416.546.619 1.285.928 2.221.928.916 0 1.654-.31 2.211-.933.557-.627.836-1.43.836-2.41 0-1.014-.27-1.828-.807-2.442-.537-.618-1.284-.928-2.24-.928zm11.75 0c-.826 0-1.49.362-1.99 1.086l-.115-.953h-.819v6.46h1.014v-3.938c.085-.566.272-1.02.56-1.362.293-.346.69-.517 1.186-.517.452 0 .76.168.928.506.167.333.25.894.25 1.683v3.627h1.011V66.14c.013-.562.036-.898.069-1.008.11-.484.318-.855.623-1.112a1.574 1.574 0 0 1 1.043-.382c.175 0 .327.025.457.078a.665.665 0 0 1 .318.232c.082.106.147.215.196.324.048.106.083.245.103.42a7.34 7.34 0 0 1 .049.916v3.846h1.014V65.29c0-1.62-.66-2.428-1.979-2.428-.936 0-1.645.438-2.129 1.313-.15-.411-.366-.733-.642-.965-.277-.232-.659-.348-1.147-.348zm9.846 0c-.863 0-1.64.161-2.332.483l.273.744a4.358 4.358 0 0 1 1.014-.33 5.066 5.066 0 0 1 1.062-.121c.489 0 .845.115 1.069.347.228.232.342.583.342 1.055v.635h-1.032c-1.037 0-1.795.164-2.271.494-.472.325-.707.84-.707 1.539 0 .586.179 1.043.537 1.373.362.33.84.494 1.433.494.888 0 1.607-.34 2.16-1.02l.112.893h.768v-4.262c0-.821-.212-1.413-.635-1.775-.42-.366-1.016-.549-1.793-.549zm14.318 0c-.948 0-1.693.31-2.234.928-.537.614-.805 1.428-.805 2.441 0 .99.271 1.794.817 2.416.545.619 1.286.928 2.222.928.916 0 1.652-.31 2.21-.933.557-.627.835-1.43.835-2.41 0-1.014-.268-1.828-.805-2.442-.537-.618-1.284-.928-2.24-.928zm7.537 0c-.972 0-1.703.342-2.191 1.026l-.11-.893h-.878v6.46h1.013V65.85c0-1.477.664-2.214 1.99-2.214.493 0 .836.148 1.032.445.195.293.293.73.293 1.312v4.06h1.011v-3.95c0-.887-.175-1.55-.529-1.985-.35-.439-.894-.658-1.63-.658zm19.6 0c-.863 0-1.64.161-2.332.483l.273.744a4.358 4.358 0 0 1 1.014-.33 5.066 5.066 0 0 1 1.062-.121c.489 0 .845.115 1.069.347.228.232.342.583.342 1.055v.635h-1.032c-1.037 0-1.795.164-2.271.494-.472.325-.707.84-.707 1.539 0 .586.179 1.043.537 1.373.362.33.84.494 1.434.494.887 0 1.606-.34 2.16-1.02l.111.893h.768v-4.262c0-.821-.212-1.413-.635-1.775-.42-.366-1.016-.549-1.793-.549zm7.232 0c-.972 0-1.703.342-2.191 1.026l-.11-.893h-.878v6.46h1.011V65.85c0-1.477.664-2.214 1.99-2.214.493 0 .837.148 1.032.445.195.293.293.73.293 1.312v4.06h1.013v-3.95c0-.887-.177-1.55-.53-1.985-.35-.439-.893-.658-1.63-.658zm6.328 0c-.48 0-.905.089-1.275.268a2.25 2.25 0 0 0-.89.732c-.224.314-.393.67-.506 1.069a4.622 4.622 0 0 0-.172 1.287c0 .407.054.794.164 1.16.114.366.28.7.496 1.002.215.3.503.54.865.719.366.179.78.27 1.24.27.476 0 .883-.097 1.221-.288a2.02 2.02 0 0 0 .793-.787l.018.756v.177c0 .81-.167 1.394-.5 1.752-.33.359-.84.538-1.532.538-.508 0-1.136-.087-1.88-.262l-.079.853c.733.167 1.386.25 1.96.25 1.053 0 1.81-.289 2.269-.867.464-.574.695-1.424.695-2.55v-5.946h-.92l-.062.928c-.387-.708-1.022-1.06-1.905-1.06zm7.13 0c-.855 0-1.559.308-2.112.922-.553.615-.83 1.437-.83 2.47 0 1.022.282 1.832.848 2.43.565.595 1.303.891 2.21.891.814 0 1.54-.188 2.178-.566l-.213-.715c-.341.17-.65.3-.927.385a3.117 3.117 0 0 1-.922.127c-.623 0-1.127-.197-1.514-.592-.387-.399-.596-1.008-.629-1.83h4.365l.036-.514c0-.944-.214-1.68-.641-2.209-.423-.533-1.04-.799-1.85-.799zm-136.622.067c-.39 0-.763.11-1.117.33-.35.215-.646.555-.89 1.02l-.11-1.284h-.812v6.46h1.013v-3.657c0-.574.18-1.06.537-1.46.362-.398.82-.597 1.373-.597.114 0 .254.016.416.049l.043-.83a2.751 2.751 0 0 0-.453-.031zm60.205 0c-.39 0-.763.11-1.117.33-.35.215-.646.555-.89 1.02l-.11-1.284h-.812v6.46h1.013v-3.657c0-.574.18-1.06.537-1.46.363-.398.82-.597 1.373-.597.114 0 .254.016.416.049l.043-.83a2.752 2.752 0 0 0-.453-.031zm83.252 0c-.39 0-.763.11-1.117.33-.35.215-.646.555-.89 1.02l-.11-1.284h-.812v6.46h1.013v-3.657c0-.574.18-1.06.537-1.46.363-.398.82-.597 1.373-.597.114 0 .254.016.416.049l.043-.83a2.751 2.751 0 0 0-.453-.031zm-60.24.066v6.46h1v-6.46h-1zm-90.027.643c1.025 0 1.562.694 1.611 2.086h-3.516c.057-.643.256-1.151.598-1.526.346-.374.782-.56 1.307-.56zm16.504 0c.663 0 1.164.236 1.502.713.337.472.505 1.103.505 1.892 0 .505-.068.946-.207 1.324a1.926 1.926 0 0 1-.671.905c-.306.223-.682.334-1.13.334-.65 0-1.148-.235-1.49-.707-.341-.472-.511-1.093-.511-1.862 0-.785.17-1.414.511-1.886.342-.477.84-.713 1.49-.713zm43.187 0c.663 0 1.164.236 1.502.713.338.472.506 1.103.506 1.892 0 .505-.069.946-.207 1.324a1.926 1.926 0 0 1-.672.905c-.305.223-.681.334-1.129.334-.65 0-1.146-.235-1.488-.707-.342-.472-.514-1.093-.514-1.862 0-.785.172-1.414.514-1.886.342-.477.837-.713 1.488-.713zm35.914 0c.663 0 1.164.236 1.502.713.338.472.506 1.103.506 1.892 0 .505-.069.946-.207 1.324a1.926 1.926 0 0 1-.672.905c-.305.223-.681.334-1.129.334-.65 0-1.148-.235-1.49-.707-.342-.472-.512-1.093-.512-1.862 0-.785.17-1.414.512-1.886.342-.477.84-.713 1.49-.713zm40.746 0c1.233 0 1.85.76 1.85 2.28v.544c0 .293-.033.562-.098.807a2.18 2.18 0 0 1-.31.677 1.378 1.378 0 0 1-.58.477c-.249.114-.542.17-.88.17-.341 0-.638-.069-.89-.207a1.469 1.469 0 0 1-.574-.563 2.824 2.824 0 0 1-.293-.767 4.06 4.06 0 0 1-.092-.887c0-.334.03-.643.092-.928.065-.289.164-.556.299-.805a1.51 1.51 0 0 1 .58-.585c.252-.143.55-.213.896-.213zm7.106 0c1.025 0 1.562.694 1.611 2.086h-3.516c.057-.643.256-1.151.598-1.526.346-.374.782-.56 1.307-.56zM112.22 66.346h.775v1.422c-.484.712-1.142 1.068-1.976 1.068a1.06 1.06 0 0 1-.764-.293c-.204-.195-.305-.472-.305-.83 0-.2.018-.366.055-.5a.95.95 0 0 1 .603-.654 2.8 2.8 0 0 1 .655-.159c.264-.036.582-.054.957-.054zm51.148 0h.776v1.422c-.485.712-1.145 1.068-1.979 1.068-.305 0-.558-.098-.762-.293-.203-.195-.306-.472-.306-.83 0-.2.02-.366.056-.5a.95.95 0 0 1 .604-.654c.17-.07.388-.122.652-.159.265-.036.585-.054.96-.054zm41.455 0h.776v1.422c-.485.712-1.145 1.068-1.979 1.068-.305 0-.558-.098-.762-.293-.203-.195-.306-.472-.306-.83 0-.2.02-.366.056-.5a.95.95 0 0 1 .604-.654c.17-.07.388-.122.652-.159.265-.036.585-.054.96-.054zM71.652 106.469v8.912h1.075v-3.668l.793-.733 3.38 4.4h1.258l-3.834-4.95 3.65-3.961h-1.257l-3.99 4.267v-4.267h-1.075zm10.217 2.32c-.948 0-1.693.31-2.234.928-.537.614-.805 1.428-.805 2.441 0 .989.271 1.794.816 2.416.546.619 1.287.928 2.223.928.916 0 1.652-.311 2.21-.934.557-.626.835-1.43.835-2.41 0-1.013-.268-1.827-.805-2.441-.537-.619-1.284-.928-2.24-.928zm7.537 0c-.972 0-1.703.342-2.191 1.025l-.11-.892h-.878v6.459h1.013v-3.602c0-1.477.664-2.215 1.99-2.215.493 0 .836.149 1.032.446.195.293.293.73.293 1.312v4.059h1.011v-3.95c0-.886-.175-1.548-.529-1.984-.35-.44-.894-.658-1.63-.658zm6.319 0c-.896 0-1.601.313-2.114.94-.512.626-.767 1.447-.767 2.464 0 .96.266 1.753.799 2.375.537.623 1.226.934 2.068.934.96 0 1.658-.398 2.094-1.195l-.024 1.507v2.399h1v-9.291h-.916l-.11 1.045c-.435-.786-1.11-1.178-2.03-1.178zm14.146 0c-.854 0-1.558.307-2.111.922-.554.614-.83 1.437-.83 2.47 0 1.022.282 1.832.847 2.43.566.594 1.304.89 2.211.89.814 0 1.54-.187 2.178-.566l-.213-.714a6.2 6.2 0 0 1-.928.384 3.116 3.116 0 0 1-.921.127c-.623 0-1.128-.197-1.514-.591-.387-.4-.597-1.009-.63-1.83h4.366l.035-.514c0-.944-.213-1.68-.64-2.21-.423-.532-1.04-.798-1.85-.798zm11.084 0c-.948 0-1.691.31-2.232.928-.537.614-.807 1.428-.807 2.441 0 .989.273 1.794.818 2.416.546.619 1.285.928 2.221.928.916 0 1.654-.311 2.211-.934.557-.626.836-1.43.836-2.41 0-1.013-.27-1.827-.807-2.441-.537-.619-1.284-.928-2.24-.928zm-4.248.066c-.39 0-.763.11-1.117.33-.35.216-.647.556-.89 1.02l-.11-1.283h-.813v6.459h1.014v-3.656c0-.574.18-1.06.537-1.46.362-.398.82-.597 1.373-.597.114 0 .253.016.416.049l.043-.83a2.755 2.755 0 0 0-.453-.032zm11.572 0c-.39 0-.763.11-1.117.33-.35.216-.646.556-.89 1.02l-.11-1.283h-.812v6.459h1.013v-3.656c0-.574.18-1.06.537-1.46.363-.398.82-.597 1.373-.597.114 0 .254.016.416.049l.043-.83a2.755 2.755 0 0 0-.453-.032zm-27.953.067v3.943c0 .875.192 1.535.574 1.979.387.44.953.658 1.702.658.529 0 .946-.08 1.252-.238a2.05 2.05 0 0 0 .775-.733l.103.85h.88v-6.46h-1.014v3.628c0 .256-.018.49-.055.7-.037.213-.1.411-.19.599a1.457 1.457 0 0 1-.347.47 1.48 1.48 0 0 1-.537.3 2.35 2.35 0 0 1-.744.108c-.497 0-.853-.148-1.069-.445-.211-.297-.316-.733-.316-1.306v-4.053h-1.014zm-18.457.642c.663 0 1.164.237 1.502.713.338.472.506 1.103.506 1.893 0 .504-.069.946-.207 1.324a1.926 1.926 0 0 1-.672.904c-.305.224-.681.334-1.129.334-.65 0-1.148-.235-1.49-.707-.342-.472-.512-1.092-.512-1.861 0-.785.17-1.415.512-1.887.342-.476.84-.713 1.49-.713zm13.97 0c.644 0 1.123.22 1.44.659.318.435.477 1.037.477 1.806 0 1.803-.64 2.703-1.922 2.703-.651 0-1.147-.231-1.484-.695-.338-.464-.506-1.097-.506-1.898 0-.79.166-1.415.5-1.88.337-.463.837-.695 1.496-.695zm14.057 0c1.026 0 1.563.695 1.612 2.086h-3.516c.057-.643.256-1.15.598-1.525.346-.374.782-.56 1.306-.56zm11.06 0c.662 0 1.163.237 1.501.713.338.472.506 1.103.506 1.893 0 .504-.069.946-.207 1.324a1.926 1.926 0 0 1-.672.904c-.305.224-.681.334-1.129.334-.651 0-1.146-.235-1.488-.707-.342-.472-.514-1.092-.514-1.861 0-.785.172-1.415.514-1.887.342-.476.837-.713 1.488-.713zm-46.632 45.614c-.382 0-.739.043-1.068.132-.33.09-.628.228-.897.41a1.87 1.87 0 0 0-.634.727 2.287 2.287 0 0 0-.233 1.049c0 .574.148 1.026.446 1.355.297.326.747.603 1.35.83l1.452.555c.57.22.951.439 1.147.655.2.211.299.53.299.957 0 .37-.089.68-.268.933a1.48 1.48 0 0 1-.684.537 2.76 2.76 0 0 1-.976.16c-.456 0-.93-.081-1.422-.244a4.896 4.896 0 0 1-1.318-.666v.965c.252.224.632.412 1.14.567a5.413 5.413 0 0 0 1.582.232c.305 0 .593-.025.865-.078a3.3 3.3 0 0 0 .801-.264c.257-.126.475-.281.658-.469.184-.187.33-.427.44-.72.11-.293.166-.622.166-.989a2.64 2.64 0 0 0-.111-.794 2.177 2.177 0 0 0-.274-.586 1.777 1.777 0 0 0-.47-.446 3.9 3.9 0 0 0-.58-.347 9.57 9.57 0 0 0-.714-.305l-1.404-.549c-.427-.167-.724-.351-.89-.55-.163-.204-.245-.492-.245-.866 0-.305.089-.562.268-.77.179-.207.405-.353.678-.439.272-.09.583-.135.933-.135.379 0 .757.053 1.135.159.383.105.706.25.97.433l.391-.756a4.402 4.402 0 0 0-1.195-.502 5.023 5.023 0 0 0-1.338-.181zm43.336 0c-.382 0-.739.043-1.068.132-.33.09-.628.228-.897.41a1.87 1.87 0 0 0-.634.727 2.287 2.287 0 0 0-.233 1.049c0 .574.148 1.026.445 1.355.297.326.748.603 1.35.83l1.451.555c.57.22.953.439 1.149.655.199.211.298.53.298.957 0 .37-.09.68-.269.933a1.48 1.48 0 0 1-.684.537 2.76 2.76 0 0 1-.976.16c-.456 0-.93-.081-1.422-.244a4.896 4.896 0 0 1-1.318-.666v.965c.252.224.634.412 1.142.567a5.4 5.4 0 0 0 1.58.232c.305 0 .595-.025.867-.078.277-.053.543-.142.8-.264.256-.126.476-.281.66-.469.183-.187.329-.427.439-.72.11-.293.164-.622.164-.989a2.61 2.61 0 0 0-.11-.794 2.18 2.18 0 0 0-.275-.586 1.767 1.767 0 0 0-.469-.446 3.9 3.9 0 0 0-.58-.347 9.664 9.664 0 0 0-.715-.305l-1.404-.549c-.427-.167-.724-.351-.89-.55-.163-.204-.245-.492-.245-.866 0-.305.09-.562.27-.77a1.44 1.44 0 0 1 .676-.439 3 3 0 0 1 .935-.135c.379 0 .757.053 1.135.159.383.105.706.25.97.433l.391-.756a4.415 4.415 0 0 0-1.197-.502 5.009 5.009 0 0 0-1.336-.181zm20.465.12a.666.666 0 0 0-.482.184.614.614 0 0 0-.184.463c0 .191.061.349.184.47a.666.666 0 0 0 .482.185c.191 0 .35-.062.477-.184a.627.627 0 0 0 .189-.47.604.604 0 0 0-.19-.464.645.645 0 0 0-.476-.183zM92 155.983l-.81.061-.167 1.709-.994.068-.025.575H91v3.88c0 .395.034.715.104.96.069.244.194.444.373.603.183.159.418.269.707.33.288.061.666.092 1.134.092h.422l.05-.697-.515-.024c-.54-.02-.888-.105-1.043-.256-.154-.154-.232-.49-.232-1.008v-3.88h1.709v-.643H92v-1.77zm37.842 0l-.81.061-.167 1.709-.994.068-.025.575h.996v3.88c0 .395.034.715.103.96.07.244.194.444.373.603.183.159.418.269.707.33.29.061.667.092 1.135.092h.422l.049-.697-.514-.024c-.541-.02-.888-.105-1.043-.256-.154-.154-.232-.49-.232-1.008v-3.88h1.709v-.643h-1.71v-1.77zm4.492 0l-.81.061-.167 1.709-.994.068-.025.575h.996v3.88c0 .395.034.715.103.96.07.244.195.444.374.603.183.159.418.269.707.33.288.061.666.092 1.134.092h.422l.049-.697-.514-.024c-.54-.02-.888-.105-1.043-.256-.154-.154-.232-.49-.232-1.008v-3.88h1.709v-.643h-1.71v-1.77zm-47.203 1.637c-.676 0-1.202.163-1.576.488-.375.322-.56.745-.56 1.27 0 .423.106.768.321 1.037.216.264.616.49 1.198.678l.707.224c.468.15.791.312.97.483.18.17.27.382.27.635 0 .366-.109.648-.324.843-.216.192-.518.285-.908.285-.623 0-1.321-.184-2.094-.554v.847a4.66 4.66 0 0 0 2.02.477c.304 0 .585-.036.841-.11.26-.073.494-.183.697-.33.208-.146.37-.341.489-.585.118-.249.175-.532.175-.854 0-.26-.023-.481-.072-.66a1.352 1.352 0 0 0-.27-.512 1.668 1.668 0 0 0-.542-.416 5.236 5.236 0 0 0-.885-.353l-.64-.202c-.42-.134-.695-.26-.825-.378s-.195-.31-.195-.575c0-.313.1-.55.299-.713.203-.166.54-.25 1.007-.25.525 0 1.068.141 1.63.426l.238-.75a4.392 4.392 0 0 0-1.971-.45zm10.533 0c-.854 0-1.558.308-2.111.922-.554.614-.83 1.437-.83 2.47 0 1.022.282 1.832.847 2.43.566.594 1.304.891 2.211.891.814 0 1.54-.188 2.178-.566l-.213-.715a6.2 6.2 0 0 1-.928.384 3.119 3.119 0 0 1-.922.127c-.622 0-1.127-.197-1.513-.591-.387-.4-.597-1.009-.63-1.83h4.366l.035-.514c0-.944-.213-1.68-.64-2.21-.423-.532-1.04-.798-1.85-.798zm6.793 0c-.826 0-1.488.362-1.988 1.086l-.117-.953h-.817v6.459h1.012v-3.938c.085-.565.273-1.02.562-1.361.293-.346.688-.518 1.184-.518.452 0 .76.169.928.506.167.334.25.895.25 1.684v3.627h1.013v-3.315c.013-.561.034-.898.067-1.007.11-.485.318-.855.623-1.112a1.574 1.574 0 0 1 1.043-.383c.175 0 .329.026.459.079a.66.66 0 0 1 .316.232c.082.106.147.212.196.322.048.106.083.247.103.422a7.34 7.34 0 0 1 .049.916v3.846h1.014v-4.164c0-1.62-.659-2.428-1.977-2.428-.936 0-1.647.438-2.13 1.313-.151-.411-.365-.733-.642-.965-.276-.232-.66-.348-1.148-.348zm20.111 0c-.854 0-1.558.308-2.111.922-.553.614-.83 1.437-.83 2.47 0 1.022.282 1.832.848 2.43.565.594 1.303.891 2.21.891.814 0 1.54-.188 2.178-.566l-.213-.715c-.341.17-.65.299-.927.384a3.119 3.119 0 0 1-.922.127c-.623 0-1.127-.197-1.514-.591-.386-.4-.596-1.009-.629-1.83h4.365l.036-.514c0-.944-.214-1.68-.641-2.21-.423-.532-1.04-.798-1.85-.798zm19.063 0c-.973 0-1.703.342-2.192 1.025l-.109-.892h-.879v6.459h1.012v-3.602c0-1.477.664-2.215 1.99-2.215.492 0 .836.149 1.031.446.196.293.293.73.293 1.312v4.059h1.014v-3.95c0-.886-.177-1.548-.531-1.984-.35-.44-.893-.658-1.63-.658zm6.328 0c-.48 0-.905.089-1.275.268a2.26 2.26 0 0 0-.891.732c-.224.313-.392.67-.506 1.068a4.622 4.622 0 0 0-.172 1.288c0 .406.054.793.164 1.16.114.366.28.7.496 1.002.216.3.503.54.866.718.366.18.78.27 1.24.27.476 0 .883-.096 1.22-.287a2.02 2.02 0 0 0 .794-.787l.017.756v.177c0 .81-.166 1.394-.5 1.752-.33.358-.84.537-1.531.537-.509 0-1.136-.088-1.881-.263l-.078.855c.732.167 1.385.25 1.959.25 1.054 0 1.81-.29 2.27-.867.463-.574.695-1.424.695-2.55v-5.946h-.92l-.063.928c-.386-.708-1.021-1.06-1.904-1.06zm6.459 0c-.675 0-1.202.163-1.576.488-.375.322-.56.745-.56 1.27 0 .423.106.768.322 1.037.215.264.615.49 1.197.678l.707.224c.468.15.791.312.97.483.18.17.27.382.27.635 0 .366-.109.648-.324.843-.216.192-.518.285-.908.285-.623 0-1.321-.184-2.094-.554v.847a4.66 4.66 0 0 0 2.02.477c.305 0 .585-.036.841-.11.26-.073.494-.183.697-.33.208-.146.37-.341.489-.585.118-.249.176-.532.176-.854 0-.26-.024-.481-.073-.66a1.352 1.352 0 0 0-.27-.512 1.668 1.668 0 0 0-.542-.416 5.236 5.236 0 0 0-.885-.353l-.64-.202c-.42-.134-.695-.26-.825-.378s-.195-.31-.195-.575c0-.313.1-.55.299-.713.203-.166.54-.25 1.007-.25.525 0 1.068.141 1.63.426l.238-.75a4.392 4.392 0 0 0-1.971-.45zm-78.236.133l2.558 6.264-.953 2.427.91.196 3.399-8.887H83.07l-1.841 5.158-2.016-5.158h-1.031zm59.437 0v6.459h1v-6.46h-1zm-39.93.642c1.026 0 1.563.695 1.612 2.086h-3.516c.057-.643.256-1.15.598-1.525.346-.374.782-.56 1.306-.56zm26.905 0c1.025 0 1.562.695 1.611 2.086h-3.516c.057-.643.256-1.15.598-1.525.346-.374.782-.56 1.307-.56zm25.414 0c1.233 0 1.85.76 1.85 2.282v.543c0 .293-.033.562-.098.806s-.168.47-.31.678c-.14.204-.333.36-.58.475a2.09 2.09 0 0 1-.88.172c-.342 0-.638-.07-.89-.207a1.469 1.469 0 0 1-.575-.563 2.828 2.828 0 0 1-.293-.768 4.06 4.06 0 0 1-.091-.886c0-.334.03-.643.091-.928.066-.289.165-.556.3-.805.138-.248.331-.443.58-.586.252-.142.55-.213.896-.213zM74.324 201.2c-.382 0-.739.045-1.068.135-.33.09-.628.225-.897.408a1.87 1.87 0 0 0-.634.727 2.296 2.296 0 0 0-.233 1.05c0 .574.148 1.024.445 1.354.298.326.748.602 1.35.83l1.453.557c.57.22.951.436 1.147.652.2.212.299.532.299.959 0 .37-.089.681-.268.934a1.48 1.48 0 0 1-.684.537c-.28.106-.606.158-.976.158-.456 0-.93-.081-1.422-.244a4.896 4.896 0 0 1-1.318-.666v.965c.252.223.632.413 1.14.568a5.413 5.413 0 0 0 1.582.232c.305 0 .593-.027.865-.08.277-.053.545-.14.801-.261.257-.127.475-.284.658-.471.184-.187.33-.428.44-.72.11-.294.166-.623.166-.99 0-.296-.038-.56-.111-.792a2.176 2.176 0 0 0-.274-.586 1.777 1.777 0 0 0-.47-.445 3.92 3.92 0 0 0-.58-.35c-.184-.09-.42-.19-.714-.305l-1.404-.548c-.427-.167-.724-.35-.89-.55-.163-.203-.245-.492-.245-.866 0-.306.089-.562.268-.77.179-.208.405-.354.678-.44.272-.089.583-.134.933-.134a4.2 4.2 0 0 1 1.135.16c.383.106.706.25.97.434l.391-.758a4.4 4.4 0 0 0-1.195-.5 5.027 5.027 0 0 0-1.338-.184zm13.686 0c-.59 0-1.033.165-1.326.494-.293.33-.44.89-.44 1.68v.408l-1.14.104-.032.531h1.172v5.816h1.014v-5.816h1.533v-.64h-1.533v-.466c0-.3.018-.543.055-.726.036-.187.098-.325.183-.414a.64.64 0 0 1 .287-.184c.102-.028.238-.043.408-.043.212 0 .42.022.623.063l.075-.703a4.903 4.903 0 0 0-.88-.104zm40.246 0c-.834 0-1.57.194-2.21.58a3.809 3.809 0 0 0-1.464 1.606c-.342.687-.514 1.474-.514 2.361 0 .692.103 1.327.31 1.904.212.578.505 1.065.88 1.46.374.39.823.696 1.344.915a4.453 4.453 0 0 0 1.709.323c.878 0 1.661-.174 2.35-.524l-.25-.8c-.668.313-1.33.47-1.985.47-1.01 0-1.809-.34-2.399-1.02-.586-.679-.879-1.576-.879-2.69 0-1.112.286-2.01.856-2.698.574-.692 1.355-1.04 2.344-1.04.769 0 1.44.18 2.013.538l.354-.701c-.635-.456-1.454-.684-2.46-.684zm-36.89.807l-.811.06-.166 1.71-.994.066-.026.574h.996v3.88c0 .395.035.716.104.96.069.244.194.445.373.603.183.159.418.27.707.33.289.061.667.092 1.135.092h.421l.05-.695-.514-.026c-.542-.02-.889-.105-1.043-.255-.155-.155-.233-.492-.233-1.008v-3.881h1.71v-.64h-1.71v-1.77zm55.493 0l-.812.06-.164 1.71-.996.066-.024.574h.994v3.88c0 .395.035.716.104.96.07.244.194.445.373.603.183.159.42.27.709.33.289.061.667.092 1.135.092h.42l.048-.695-.511-.026c-.541-.02-.889-.105-1.043-.255-.155-.155-.233-.492-.233-1.008v-3.881h1.71v-.64h-1.71v-1.77zm-65.527 1.635c-.948 0-1.693.309-2.234.927-.537.615-.805 1.429-.805 2.442 0 .988.271 1.795.816 2.418.546.618 1.287.927 2.223.927.916 0 1.652-.313 2.209-.935.557-.627.836-1.43.836-2.41 0-1.013-.268-1.827-.805-2.442-.537-.618-1.284-.927-2.24-.927zm24.914 0c-.863 0-1.64.16-2.332.482l.275.744a4.358 4.358 0 0 1 1.014-.33 5.048 5.048 0 0 1 1.06-.121c.489 0 .845.116 1.069.348.228.232.342.584.342 1.056v.635h-1.031c-1.038 0-1.794.165-2.27.494-.472.326-.709.837-.709 1.537 0 .586.18 1.044.537 1.373.362.33.842.496 1.436.496.887 0 1.606-.34 2.16-1.02l.11.891h.769v-4.26c0-.821-.212-1.414-.635-1.777-.42-.366-1.018-.548-1.795-.548zm11.17 0c-.854 0-1.558.307-2.111.921-.554.615-.83 1.44-.83 2.473 0 1.021.282 1.83.847 2.428.566.594 1.302.892 2.21.892.813 0 1.54-.19 2.179-.568l-.215-.715c-.342.171-.651.3-.928.385a3.1 3.1 0 0 1-.92.129c-.622 0-1.127-.197-1.513-.592-.387-.399-.597-1.01-.63-1.832h4.364l.037-.512c0-.944-.213-1.682-.64-2.21-.424-.534-1.04-.8-1.85-.8zm17.26 0c-.855 0-1.558.307-2.112.921-.553.615-.83 1.44-.83 2.473 0 1.021.282 1.83.848 2.428.566.594 1.304.892 2.211.892.814 0 1.539-.19 2.178-.568l-.213-.715c-.342.171-.651.3-.928.385a3.114 3.114 0 0 1-.922.129c-.622 0-1.127-.197-1.513-.592-.387-.399-.597-1.01-.63-1.832h4.366l.035-.512c0-.944-.213-1.682-.64-2.21-.424-.534-1.04-.8-1.85-.8zm7.05 0c-.972 0-1.703.341-2.19 1.025l-.11-.89h-.88v6.456h1.013v-3.601c0-1.477.663-2.215 1.99-2.215.492 0 .836.148 1.031.445.195.293.293.73.293 1.313v4.058h1.014v-3.949c0-.887-.178-1.547-.532-1.982-.35-.44-.892-.66-1.628-.66zm10.797 0c-.854 0-1.558.307-2.11.921-.554.615-.831 1.44-.831 2.473 0 1.021.282 1.83.848 2.428.565.594 1.301.892 2.209.892.813 0 1.54-.19 2.18-.568l-.215-.715c-.342.171-.652.3-.928.385a3.1 3.1 0 0 1-.92.129c-.623 0-1.127-.197-1.514-.592-.386-.399-.596-1.01-.629-1.832h4.364l.037-.512c0-.944-.214-1.682-.641-2.21-.423-.534-1.04-.8-1.85-.8zm-39.257.066c-.391 0-.764.11-1.118.33-.35.216-.646.556-.89 1.02l-.112-1.282h-.81v6.457h1.014v-3.656c0-.574.179-1.06.537-1.459.362-.399.82-.598 1.373-.598.114 0 .251.017.414.05l.043-.83a2.73 2.73 0 0 0-.451-.032zm46.093 0c-.39 0-.763.11-1.117.33-.35.216-.646.556-.89 1.02l-.112-1.282h-.81v6.457h1.013v-3.656c0-.574.18-1.06.537-1.459.363-.399.82-.598 1.374-.598.113 0 .25.017.414.05l.043-.83a2.73 2.73 0 0 0-.452-.032zm-65.392.068l1.812 6.457h.963l1.697-5.566 1.795 5.566h.897l1.74-6.457h-.928l-1.287 5.2-1.685-5.2h-1.08l-1.588 5.22-1.38-5.22h-.956zm-12.635.641c.663 0 1.164.239 1.502.715.338.472.506 1.101.506 1.89 0 .505-.069.946-.207 1.325a1.926 1.926 0 0 1-.672.904c-.305.224-.681.336-1.129.336-.651 0-1.148-.237-1.49-.71-.342-.471-.512-1.091-.512-1.86 0-.786.17-1.413.512-1.885.342-.476.839-.715 1.49-.715zm36.107 0c1.026 0 1.563.696 1.612 2.088h-3.516c.057-.643.258-1.153.6-1.527.346-.375.78-.561 1.304-.561zm17.262 0c1.026 0 1.563.696 1.611 2.088h-3.515c.057-.643.256-1.153.598-1.527.345-.375.781-.561 1.306-.561zm17.846 0c1.025 0 1.562.696 1.611 2.088h-3.515c.057-.643.257-1.153.6-1.527a1.694 1.694 0 0 1 1.304-.561zm-45.649 2.709h.776v1.424c-.484.712-1.143 1.066-1.977 1.066a1.06 1.06 0 0 1-.763-.293c-.204-.195-.305-.472-.305-.83 0-.2.018-.366.055-.5a.95.95 0 0 1 .603-.652 2.8 2.8 0 0 1 .654-.158c.265-.037.583-.057.957-.057z" id="path4780" fill="currentColor" fill-opacity="1" stroke="none"/><path class="ColorScheme-Text" d="M125.71 78.469l-1.013.072v2.008l.05 1.47a2.715 2.715 0 0 0-.311-.457 1.963 1.963 0 0 0-.391-.359 1.635 1.635 0 0 0-.557-.258 2.878 2.878 0 0 0-.732-.084c-.855 0-1.53.304-2.031.914-.497.61-.747 1.412-.747 2.4 0 1.042.241 1.869.721 2.483.484.61 1.172.916 2.063.916.923 0 1.596-.421 2.015-1.264l.09 1.143h.844V78.47zm25.446 0l-1.002.072v7.062c0 .387.046.709.135.965.09.253.229.444.416.578.187.135.399.229.635.282.24.048.536.074.89.074h.483l.055-.697-.276-.018c-.175-.012-.31-.023-.408-.031a6.2 6.2 0 0 1-.318-.049.933.933 0 0 1-.25-.084 1.491 1.491 0 0 1-.164-.135.443.443 0 0 1-.123-.201 3.176 3.176 0 0 1-.055-.281 3.452 3.452 0 0 1-.018-.385v-7.152zm-76.832.072c-.211.146-.528.295-.951.445-.42.147-.78.252-1.086.313v.804a5.98 5.98 0 0 0 .988-.238 5.25 5.25 0 0 0 .971-.396v7.252h-2.148v.732h5.078v-.732h-1.918v-8.18h-.934zm5.19 0l-.172 4.719.818.097c.187-.199.422-.358.707-.476s.578-.178.88-.178c.41 0 .754.092 1.03.275.277.18.476.41.594.696.118.28.176.602.176.965 0 .659-.183 1.172-.549 1.539-.362.362-.849.543-1.459.543-.684 0-1.418-.223-2.203-.666l-.348.787c.883.492 1.755.738 2.617.738.42 0 .808-.063 1.166-.19a2.78 2.78 0 0 0 .942-.548c.273-.244.482-.555.633-.934.154-.382.232-.81.232-1.287 0-.5-.101-.953-.305-1.355a2.336 2.336 0 0 0-.916-.983c-.41-.252-.893-.379-1.45-.379-.611 0-1.156.161-1.632.483l.098-3.04h3.748l.08-.806h-4.687zm68.181 0a.666.666 0 0 0-.482.184.614.614 0 0 0-.184.462c0 .192.062.35.184.471a.666.666 0 0 0 .482.184.66.66 0 0 0 .477-.184.627.627 0 0 0 .19-.47.604.604 0 0 0-.19-.463.646.646 0 0 0-.477-.184zm-48.644 2.32c-.973 0-1.703.342-2.192 1.026l-.109-.893h-.879v6.46h1.012V83.85c0-1.477.664-2.214 1.99-2.214.492 0 .836.148 1.031.445.196.293.293.73.293 1.312v4.06h1.014v-3.95c0-.887-.177-1.55-.531-1.985-.35-.439-.893-.658-1.63-.658zm10.845 0c-.854 0-1.557.308-2.11.922-.554.615-.83 1.437-.83 2.47 0 1.022.281 1.832.847 2.43.565.595 1.301.891 2.209.891.814 0 1.54-.188 2.18-.566l-.215-.715c-.342.17-.651.3-.928.385a3.104 3.104 0 0 1-.92.127c-.623 0-1.127-.197-1.514-.592-.386-.399-.596-1.008-.629-1.83h4.364l.037-.514c0-.944-.214-1.68-.64-2.209-.424-.533-1.04-.799-1.85-.799zm6.239 0c-.863 0-1.64.161-2.332.483l.273.744a4.358 4.358 0 0 1 1.014-.33 5.066 5.066 0 0 1 1.062-.121c.489 0 .845.115 1.069.347.228.232.341.583.341 1.055v.635h-1.03c-1.038 0-1.796.164-2.272.494-.472.325-.707.84-.707 1.539 0 .586.179 1.043.537 1.373.362.33.84.494 1.433.494.887 0 1.607-.34 2.16-1.02l.112.893h.767v-4.262c0-.821-.211-1.413-.634-1.775-.42-.366-1.016-.549-1.793-.549zm16.96 0c-.825 0-1.489.362-1.99 1.086l-.115-.953h-.818v6.46h1.014v-3.938c.085-.566.271-1.02.56-1.362.293-.346.69-.517 1.186-.517.451 0 .76.168.927.506.167.333.25.894.25 1.683v3.627h1.012V84.14c.012-.562.036-.898.068-1.008.11-.484.318-.855.624-1.112a1.574 1.574 0 0 1 1.043-.382c.174 0 .326.025.457.078a.665.665 0 0 1 .318.232c.081.106.146.215.195.324.049.106.083.245.104.42a7.34 7.34 0 0 1 .049.916v3.846h1.013V83.29c0-1.62-.66-2.428-1.978-2.428-.936 0-1.645.438-2.13 1.313-.15-.411-.365-.733-.642-.965-.276-.232-.658-.348-1.146-.348zm9.846 0c-.862 0-1.64.161-2.332.483l.274.744a4.358 4.358 0 0 1 1.013-.33 5.066 5.066 0 0 1 1.063-.121c.488 0 .845.115 1.068.347.228.232.342.583.342 1.055v.635h-1.031c-1.038 0-1.796.164-2.272.494-.472.325-.707.84-.707 1.539 0 .586.18 1.043.537 1.373.363.33.84.494 1.434.494.887 0 1.607-.34 2.16-1.02l.112.893h.767v-4.262c0-.821-.211-1.413-.635-1.775-.419-.366-1.015-.549-1.793-.549zm12.94 0c-.676 0-1.202.163-1.576.489-.375.321-.56.744-.56 1.27 0 .422.106.768.321 1.036.216.265.616.49 1.198.678l.707.225c.468.15.791.311.97.482.18.17.27.382.27.635 0 .366-.109.648-.324.843-.216.192-.518.286-.908.286-.623 0-1.321-.185-2.094-.555v.848a4.66 4.66 0 0 0 2.02.476c.304 0 .585-.036.841-.11.26-.072.494-.183.697-.33.208-.146.37-.341.489-.585.118-.248.175-.532.175-.854 0-.26-.023-.48-.072-.66a1.352 1.352 0 0 0-.27-.512 1.668 1.668 0 0 0-.542-.416 5.236 5.236 0 0 0-.885-.353l-.64-.201c-.42-.135-.695-.261-.825-.38-.13-.117-.195-.309-.195-.573 0-.314.1-.55.299-.713.203-.167.54-.25 1.007-.25.525 0 1.068.14 1.63.425l.238-.75a4.392 4.392 0 0 0-1.971-.45zm-50.135.067c-.39 0-.763.11-1.117.33-.35.215-.647.555-.89 1.02l-.112-1.284h-.81v6.46h1.013v-3.657c0-.574.18-1.06.537-1.46.362-.398.82-.597 1.373-.597.114 0 .252.016.414.049l.043-.83a2.726 2.726 0 0 0-.45-.031zm-16.773.066v3.943c0 .875.191 1.535.574 1.979.386.44.954.658 1.703.658.529 0 .947-.08 1.252-.238.31-.163.566-.407.773-.733l.106.85h.879v-6.459h-1.014v3.627c0 .256-.018.49-.055.701-.036.212-.1.41-.189.598a1.46 1.46 0 0 1-.348.47 1.48 1.48 0 0 1-.537.3 2.325 2.325 0 0 1-.746.109c-.496 0-.85-.149-1.066-.446-.212-.297-.319-.732-.319-1.306v-4.053h-1.013zm58.216 0v6.46h1v-6.46h-1zm-37.27.643c1.026 0 1.563.694 1.612 2.086h-3.515c.057-.643.257-1.151.6-1.526.345-.374.779-.56 1.304-.56zm12.983 0c.603 0 1.056.222 1.362.67.309.447.465 1.11.465 1.984-.004.802-.155 1.42-.448 1.855-.293.436-.77.653-1.433.653-.631 0-1.098-.232-1.399-.696-.297-.463-.445-1.1-.445-1.91 0-.814.16-1.443.476-1.886.318-.448.792-.67 1.422-.67zm-6.115 2.709h.775v1.422c-.484.712-1.144 1.068-1.978 1.068-.305 0-.558-.098-.762-.293-.203-.195-.306-.472-.306-.83 0-.2.02-.366.056-.5a.95.95 0 0 1 .604-.654c.17-.07.388-.122.652-.159.265-.036.585-.054.96-.054zm26.807 0h.775v1.422c-.484.712-1.144 1.068-1.978 1.068-.306 0-.559-.098-.762-.293-.204-.195-.307-.472-.307-.83 0-.2.02-.366.057-.5a.95.95 0 0 1 .603-.654c.171-.07.388-.122.653-.159.264-.036.584-.054.959-.054zm-71.112 40.05l-1.013.073v8.912h1.006v-3.535c0-.24.016-.463.048-.67.037-.208.1-.414.19-.617.09-.204.205-.378.348-.52.142-.146.328-.262.556-.348.232-.09.498-.134.799-.134.484 0 .828.153 1.031.459.208.3.313.77.313 1.41v3.955h1.011v-3.992c0-.83-.186-1.47-.56-1.922-.374-.452-.913-.678-1.617-.678-.46 0-.876.089-1.246.268-.367.175-.667.43-.903.763l.037-1.263v-2.16zm50.598 0l-1.002.073v7.062c0 .387.045.709.135.965.09.252.229.444.416.578.187.135.399.229.635.281.24.05.536.075.89.075h.483l.054-.698-.275-.017c-.175-.012-.31-.021-.408-.03a6.224 6.224 0 0 1-.319-.048.93.93 0 0 1-.25-.086 1.518 1.518 0 0 1-.164-.135.442.442 0 0 1-.123-.201 3.178 3.178 0 0 1-.054-.281 3.452 3.452 0 0 1-.018-.385v-7.153zm28.137 0l-1 .073v8.912h1v-2.363l.695-.659 2.565 3.022h1.189l-3.05-3.51 2.818-2.95h-1.227l-3.027 3.28.037-1.332v-4.473zm10.627 0l-1.014.073v2.008l.049 1.47a2.6 2.6 0 0 0-.31-.457 1.962 1.962 0 0 0-.391-.36 1.635 1.635 0 0 0-.557-.257 2.879 2.879 0 0 0-.732-.084c-.855 0-1.531.304-2.032.914-.496.61-.746 1.412-.746 2.4 0 1.042.24 1.868.721 2.483.484.61 1.171.916 2.063.916.923 0 1.596-.421 2.015-1.264l.09 1.143h.844v-8.985zm-55.182.073l-3.719 8.912h.88l3.741-8.912h-.902zm5.883 0l-3.717 8.912h.879l3.742-8.912h-.904zm-32.775.683l-.813.063-.164 1.709-.996.066-.024.574h.995v3.881c0 .395.034.715.103.96.07.243.194.444.373.603.183.158.42.269.71.33.288.06.666.092 1.134.092h.42l.049-.696-.512-.025c-.541-.02-.888-.105-1.043-.256-.155-.155-.232-.491-.232-1.008v-3.88h1.709v-.641h-1.71v-1.772zm4.492 0l-.813.063-.164 1.709-.996.066-.023.574h.994v3.881c0 .395.034.715.103.96.07.243.194.444.373.603.183.158.42.269.71.33.288.06.666.092 1.134.092H86l.049-.696-.512-.025c-.541-.02-.888-.105-1.043-.256-.154-.155-.232-.491-.232-1.008v-3.88h1.709v-.641h-1.71v-1.772zm62.816 0l-.81.063-.166 1.709-.995.066-.025.574h.996v3.881c0 .395.034.715.104.96.069.243.194.444.373.603.183.158.418.269.707.33.289.06.667.092 1.134.092h.422l.05-.696-.515-.025c-.54-.02-.888-.105-1.042-.256-.155-.155-.233-.491-.233-1.008v-3.88h1.71v-.641h-1.71v-1.772zm-56.67 1.637c-.932 0-1.637.421-2.113 1.264l-.104-1.131h-.841v9.29h1.013v-2.429l-.043-1.496c.48.81 1.17 1.215 2.069 1.215.846 0 1.506-.306 1.978-.916.472-.61.707-1.415.707-2.416 0-1.042-.228-1.866-.683-2.473-.452-.606-1.112-.908-1.983-.908zm5.975 0c-.676 0-1.2.163-1.574.488-.375.322-.563.745-.563 1.27 0 .423.109.768.324 1.037.216.264.614.49 1.196.678l.709.224c.468.15.791.312.97.483.18.17.268.382.268.634 0 .367-.107.649-.322.844-.216.191-.52.285-.91.285-.623 0-1.321-.184-2.094-.554v.847a4.67 4.67 0 0 0 2.021.477c.305 0 .586-.036.842-.11.26-.073.492-.183.695-.33.208-.146.37-.341.489-.585a1.97 1.97 0 0 0 .177-.854c0-.26-.025-.481-.074-.66a1.347 1.347 0 0 0-.267-.512 1.668 1.668 0 0 0-.543-.416 5.264 5.264 0 0 0-.887-.353l-.64-.202c-.42-.134-.695-.26-.825-.378s-.195-.31-.195-.575c0-.313.101-.55.3-.713.204-.166.538-.25 1.006-.25.525 0 1.07.141 1.631.426l.237-.75a4.392 4.392 0 0 0-1.971-.451zm21.564 0c-.932 0-1.637.421-2.113 1.264l-.104-1.131h-.841v9.29h1.013v-2.429l-.043-1.496c.48.81 1.17 1.215 2.069 1.215.846 0 1.506-.306 1.978-.916.472-.61.707-1.415.707-2.416 0-1.042-.228-1.866-.683-2.473-.452-.606-1.112-.908-1.983-.908zm10.248 0c-.862 0-1.64.161-2.332.482l.274.745a4.36 4.36 0 0 1 1.013-.33 5.065 5.065 0 0 1 1.063-.122c.488 0 .844.116 1.068.348.228.232.342.583.342 1.055v.635h-1.031c-1.038 0-1.796.164-2.272.494-.472.325-.707.839-.707 1.539 0 .586.18 1.043.537 1.373.363.33.84.494 1.434.494.887 0 1.607-.34 2.16-1.02l.111.893h.768v-4.262c0-.822-.212-1.413-.635-1.775-.419-.366-1.016-.549-1.793-.549zm7.233 0c-.973 0-1.703.342-2.192 1.025l-.11-.892h-.878v6.459h1.012v-3.602c0-1.477.663-2.215 1.99-2.215.492 0 .836.149 1.031.446.196.293.293.73.293 1.312v4.059h1.014v-3.95c0-.886-.177-1.548-.531-1.984-.35-.44-.893-.658-1.63-.658zm6.377 0c-.855 0-1.558.307-2.112.922-.553.614-.83 1.437-.83 2.47 0 1.022.282 1.832.848 2.43.566.594 1.303.89 2.21.89.815 0 1.54-.187 2.179-.565l-.213-.715c-.342.17-.651.299-.928.384a3.116 3.116 0 0 1-.922.127c-.622 0-1.127-.197-1.514-.591-.386-.4-.596-1.009-.628-1.83h4.365l.035-.514c0-.944-.214-1.68-.64-2.21-.424-.532-1.04-.798-1.85-.798zm24.293 0c-.855 0-1.558.307-2.112.922-.553.614-.83 1.437-.83 2.47 0 1.022.282 1.832.848 2.43.565.594 1.301.89 2.209.89.814 0 1.54-.187 2.18-.565l-.215-.715c-.342.17-.651.299-.928.384a3.102 3.102 0 0 1-.92.127c-.622 0-1.127-.197-1.514-.591-.386-.4-.596-1.009-.629-1.83h4.364l.037-.514c0-.944-.214-1.68-.64-2.21-.424-.532-1.04-.798-1.85-.798zm9.593 0c-.948 0-1.69.31-2.232.928-.537.614-.807 1.428-.807 2.441 0 .989.273 1.794.819 2.416.545.619 1.285.928 2.22.928.916 0 1.654-.311 2.211-.934.558-.626.836-1.43.836-2.41 0-1.013-.27-1.827-.806-2.441-.537-.619-1.284-.928-2.24-.928zm11.159 0c-.48 0-.906.089-1.276.268a2.26 2.26 0 0 0-.892.732c-.224.313-.392.67-.506 1.068-.114.395-.17.824-.17 1.288 0 .406.054.793.164 1.16.114.366.278.7.494 1.002.216.3.505.54.867.718.366.18.779.27 1.239.27.476 0 .883-.096 1.22-.287a2.02 2.02 0 0 0 .793-.787l.02.756v.177c0 .81-.167 1.394-.5 1.752-.33.358-.842.537-1.534.537-.508 0-1.134-.086-1.878-.261l-.08.853c.732.167 1.385.25 1.958.25 1.054 0 1.812-.29 2.272-.867.464-.574.695-1.424.695-2.55v-5.946h-.922l-.06.928c-.387-.708-1.021-1.061-1.904-1.061zm-3.834.066c-.391 0-.764.11-1.118.33-.35.216-.646.556-.89 1.02l-.11-1.283h-.812v6.459h1.014v-3.656c0-.574.179-1.06.537-1.46.362-.398.82-.597 1.373-.597.114 0 .253.016.416.049l.043-.83a2.755 2.755 0 0 0-.453-.032zm-82.33.067c-.24 0-.425.07-.555.209a.658.658 0 0 0-.195.474c0 .188.065.35.195.489.13.134.314.203.555.203.24 0 .422-.07.548-.203a.69.69 0 0 0 .196-.489.658.658 0 0 0-.196-.474c-.126-.139-.308-.21-.548-.21zm-10.395.642c1.164 0 1.746.865 1.746 2.594 0 1.713-.602 2.569-1.807 2.569-.61 0-1.082-.234-1.416-.702-.33-.468-.494-1.124-.494-1.97.004-.782.167-1.393.489-1.832.321-.44.815-.659 1.482-.659zm27.54 0c1.163 0 1.745.865 1.745 2.594 0 1.713-.602 2.569-1.806 2.569-.61 0-1.083-.234-1.416-.702-.33-.468-.495-1.124-.495-1.97.004-.782.167-1.393.489-1.832.321-.44.815-.659 1.482-.659zm24 0c1.024 0 1.562.695 1.61 2.086h-3.515c.057-.643.256-1.15.597-1.525.346-.374.782-.56 1.307-.56zm17.204 0c.602 0 1.056.223 1.361.67.31.448.465 1.11.465 1.985-.004.801-.154 1.42-.447 1.855-.293.436-.77.653-1.434.653-.63 0-1.097-.232-1.398-.696-.297-.464-.445-1.1-.445-1.91 0-.814.159-1.443.476-1.887.318-.447.791-.67 1.422-.67zm7.086 0c1.025 0 1.563.695 1.611 2.086h-3.515c.057-.643.258-1.15.6-1.525.345-.374.78-.56 1.304-.56zm9.57 0c.664 0 1.165.237 1.502.713.338.472.506 1.103.506 1.893 0 .504-.068.946-.207 1.324a1.926 1.926 0 0 1-.672.904c-.305.224-.681.334-1.129.334-.65 0-1.146-.235-1.488-.707-.342-.472-.514-1.092-.514-1.861 0-.785.172-1.415.514-1.887.342-.476.837-.713 1.488-.713zm11.207 0c1.233 0 1.85.76 1.85 2.282v.543c0 .293-.032.562-.098.806a2.2 2.2 0 0 1-.312.678 1.377 1.377 0 0 1-.58.477 2.09 2.09 0 0 1-.88.17c-.34 0-.637-.07-.89-.208a1.469 1.469 0 0 1-.574-.562 2.829 2.829 0 0 1-.293-.768 4.063 4.063 0 0 1-.09-.886c0-.334.029-.643.09-.928.065-.289.167-.557.3-.805a1.51 1.51 0 0 1 .579-.586 1.8 1.8 0 0 1 .898-.213zm-58.05 2.71h.775v1.421c-.484.712-1.144 1.069-1.978 1.069-.306 0-.559-.098-.762-.293-.204-.196-.307-.472-.307-.83 0-.2.02-.366.057-.5a.95.95 0 0 1 .603-.655c.171-.069.388-.121.653-.158.264-.037.584-.055.959-.055zm-28.162 1.806c-.24 0-.425.067-.555.201a.669.669 0 0 0-.195.483c0 .183.065.344.195.482.13.134.314.201.555.201.24 0 .422-.067.548-.201.13-.138.196-.3.196-.482a.669.669 0 0 0-.196-.483c-.126-.134-.308-.201-.548-.201zm70.039.037c-.216 0-.383.065-.496.195a.685.685 0 0 0-.17.47c0 .178.056.336.17.47.118.13.284.195.496.195.211 0 .37-.065.48-.195a.692.692 0 0 0 .172-.47.687.687 0 0 0-.172-.47c-.11-.13-.269-.195-.48-.195zm-77.49 41.11l-1.003.072v8.912h1.002v-2.363l.696-.659 2.562 3.022h1.192l-3.053-3.51 2.82-2.95h-1.226l-3.028 3.28.037-1.332v-4.472zm27.007 0l-1.013.072v2.008l.048 1.47c-.097-.179-.2-.33-.31-.457a1.963 1.963 0 0 0-.39-.36 1.633 1.633 0 0 0-.557-.257 2.875 2.875 0 0 0-.733-.084c-.854 0-1.53.304-2.031.914-.497.61-.746 1.412-.746 2.4 0 1.042.24 1.869.72 2.483.485.61 1.172.916 2.063.916.924 0 1.596-.421 2.016-1.264l.09 1.143h.843v-8.985zm25.127 0l-1 .072v7.062c0 .387.045.709.135.965.09.252.227.444.414.578.187.135.399.229.635.282.24.048.536.074.89.074h.483l.054-.698-.273-.017a31.114 31.114 0 0 1-.41-.031 6.168 6.168 0 0 1-.317-.05.934.934 0 0 1-.25-.083 1.527 1.527 0 0 1-.166-.135.439.439 0 0 1-.12-.201 3.177 3.177 0 0 1-.055-.281 3.401 3.401 0 0 1-.02-.385v-7.152zm-73.717.072v8.912h5.162l.026-.818h-4.113v-8.094h-1.075zm53.246 0v8.912h1.092v-4.084h3.614v-.781h-3.614v-3.223h3.883l.06-.824h-5.035zm-44.177 2.32c-.948 0-1.692.31-2.233.928-.537.614-.806 1.428-.806 2.441 0 .989.273 1.794.818 2.416.545.619 1.285.928 2.22.928.916 0 1.654-.311 2.212-.934.557-.626.836-1.43.836-2.41 0-1.013-.27-1.827-.807-2.441-.537-.619-1.284-.928-2.24-.928zm7.105 0c-.948 0-1.693.31-2.234.928-.537.614-.805 1.428-.805 2.441 0 .989.271 1.794.817 2.416.545.619 1.286.928 2.222.928.916 0 1.652-.311 2.21-.934.557-.626.835-1.43.835-2.41 0-1.013-.267-1.827-.805-2.441-.537-.619-1.284-.928-2.24-.928zm15.93 0c-.863 0-1.64.161-2.332.483l.275.744a4.358 4.358 0 0 1 1.014-.33 5.047 5.047 0 0 1 1.06-.122c.489 0 .845.116 1.069.348.228.232.342.583.342 1.055v.635h-1.032c-1.037 0-1.793.164-2.27.494-.471.325-.708.839-.708 1.539 0 .586.179 1.043.537 1.373.362.33.841.494 1.435.494.888 0 1.607-.34 2.16-1.02l.11.891h.77v-4.26c0-.822-.212-1.413-.635-1.775-.42-.366-1.018-.549-1.795-.549zm7.232 0c-.972 0-1.703.342-2.191 1.025l-.11-.892h-.878v6.459h1.013v-3.602c0-1.477.664-2.215 1.99-2.215.493 0 .836.149 1.032.446.195.293.293.73.293 1.312v4.059h1.011v-3.95c0-.886-.175-1.548-.529-1.984-.35-.44-.894-.658-1.63-.658zm22.858 0c-.855 0-1.558.308-2.112.922-.553.614-.83 1.437-.83 2.47 0 1.022.282 1.832.848 2.43.566.594 1.303.891 2.21.891.815 0 1.54-.188 2.179-.566l-.213-.715c-.342.17-.651.3-.928.385a3.119 3.119 0 0 1-.922.126c-.622 0-1.127-.197-1.514-.591-.386-.4-.596-1.008-.628-1.83h4.365l.035-.514c0-.944-.213-1.68-.64-2.21-.424-.532-1.04-.798-1.85-.798zm6.52 0c-.855 0-1.559.308-2.112.922-.553.614-.83 1.437-.83 2.47 0 1.022.282 1.832.847 2.43.566.594 1.302.891 2.21.891.813 0 1.54-.188 2.18-.566l-.216-.715c-.341.17-.65.3-.927.385a3.106 3.106 0 0 1-.92.126c-.623 0-1.127-.197-1.514-.591-.387-.4-.596-1.008-.629-1.83h4.363l.037-.514c0-.944-.213-1.68-.64-2.21-.423-.532-1.04-.798-1.85-.798zm-59.645.775c.663 0 1.164.237 1.502.713.337.472.506 1.104.506 1.893 0 .505-.07.946-.208 1.324a1.926 1.926 0 0 1-.671.904c-.306.224-.682.334-1.13.334-.65 0-1.146-.235-1.488-.707-.341-.472-.513-1.092-.513-1.86 0-.786.172-1.416.513-1.888.342-.476.838-.713 1.489-.713zm7.105 0c.663 0 1.164.237 1.502.713.338.472.506 1.104.506 1.893 0 .505-.069.946-.207 1.324a1.926 1.926 0 0 1-.672.904c-.305.224-.681.334-1.129.334-.65 0-1.148-.235-1.49-.707-.342-.472-.512-1.092-.512-1.86 0-.786.17-1.416.512-1.888.342-.476.84-.713 1.49-.713zm29.608 0c.602 0 1.056.223 1.36.67.31.448.466 1.11.466 1.985-.004.801-.155 1.42-.448 1.855-.292.436-.77.653-1.433.653-.63 0-1.097-.232-1.399-.696-.297-.464-.445-1.1-.445-1.91 0-.814.16-1.443.477-1.887.317-.447.79-.67 1.422-.67zm16.437 0c1.026 0 1.563.695 1.611 2.086h-3.515c.057-.642.256-1.15.597-1.525.346-.374.782-.56 1.307-.56zm6.518 0c1.025 0 1.562.695 1.611 2.086h-3.516c.057-.642.258-1.15.6-1.525a1.7 1.7 0 0 1 1.305-.56zm-35.98 2.71h.775v1.421c-.485.712-1.143 1.069-1.977 1.069a1.06 1.06 0 0 1-.764-.293c-.203-.196-.304-.472-.304-.83 0-.2.018-.366.054-.5a.95.95 0 0 1 .604-.655 2.8 2.8 0 0 1 .654-.158c.265-.036.583-.055.957-.055zm37.06 40.095c-.456 0-.904.067-1.348.201-.443.13-.802.295-1.074.494l.299.776c.28-.183.6-.332.959-.445a3.5 3.5 0 0 1 1.054-.17c.155 0 .303.012.446.04.142.025.29.078.445.155.155.073.289.167.398.285.11.114.2.271.274.47.073.2.11.43.11.69 0 .24-.024.461-.073.66a2.05 2.05 0 0 1-.256.604 5.504 5.504 0 0 1-.336.5c-.098.126-.258.32-.482.58l-2.875 3.395.158.798h4.768l.054-.732h-3.84l2.393-2.8c.289-.339.513-.615.672-.83.163-.217.31-.45.445-.698.139-.252.233-.5.281-.744.053-.244.08-.521.08-.83 0-.354-.054-.67-.16-.952a1.934 1.934 0 0 0-.414-.689 2.144 2.144 0 0 0-.597-.44 2.556 2.556 0 0 0-.684-.244 3.27 3.27 0 0 0-.697-.074zm-40.367.049l-1.014.074v2.008l.049 1.47a2.579 2.579 0 0 0-.31-.458 1.963 1.963 0 0 0-.391-.36 1.63 1.63 0 0 0-.557-.256 2.87 2.87 0 0 0-.733-.085c-.854 0-1.53.305-2.03.916-.497.61-.747 1.41-.747 2.398 0 1.042.24 1.87.72 2.484.485.61 1.172.916 2.063.916.924 0 1.597-.421 2.016-1.263l.09 1.14h.843v-8.984zm66.546 0l-1.025.074v8.91h.822l.092-1.134c.22.362.506.662.856.902.35.236.762.355 1.238.355.883 0 1.561-.302 2.033-.904.476-.602.713-1.416.713-2.441 0-1.042-.228-1.863-.684-2.465-.455-.602-1.126-.904-2.013-.904-.436 0-.828.103-1.178.31a2.603 2.603 0 0 0-.861.824l.008-1.123v-2.404zm-92.31.074l-3.986 5.785v.88h4.052v2.245h.965v-2.246h1.02l.074-.781h-1.094v-5.883h-1.031zm58.826 0c-.212.147-.53.295-.953.445a8.3 8.3 0 0 1-1.086.311v.807a6.1 6.1 0 0 0 .988-.239 5.24 5.24 0 0 0 .971-.396v7.25h-2.148v.732h5.078v-.732h-1.916v-8.178h-.934zm12.537 0l-.172 4.717.819.098c.187-.2.422-.359.707-.477s.577-.176.879-.176c.41 0 .754.09 1.03.274.278.179.477.412.595.697.118.28.175.6.175.963 0 .66-.182 1.173-.548 1.539-.363.362-.85.543-1.46.543-.683 0-1.417-.223-2.203-.666l-.347.789c.883.492 1.754.738 2.617.738.42 0 .808-.063 1.166-.19.358-.125.673-.308.941-.548.273-.244.483-.557.633-.936.155-.382.233-.81.233-1.287 0-.5-.102-.952-.305-1.355a2.336 2.336 0 0 0-.916-.983c-.411-.252-.894-.378-1.451-.378-.61 0-1.155.16-1.631.482l.098-3.04h3.748l.08-.804H146.7zm-36.17.684l-.812.06-.164 1.71-.996.066-.024.574h.994v3.88c0 .395.035.716.104.96.069.244.194.445.373.603.183.159.42.27.709.33.289.061.667.092 1.135.092h.42l.048-.695-.511-.026c-.542-.02-.889-.105-1.043-.255-.155-.155-.233-.492-.233-1.008v-3.881h1.71v-.64h-1.71v-1.77zm-35.127.572v4.627H72.36l3.045-4.627zm16.176 1.063c-.932 0-1.637.42-2.113 1.263l-.104-1.129h-.842v9.29h1.014v-2.43l-.043-1.494c.48.81 1.17 1.214 2.069 1.214.846 0 1.506-.305 1.978-.916.472-.61.707-1.417.707-2.418 0-1.041-.228-1.864-.684-2.47-.451-.607-1.111-.91-1.982-.91zm13.494 0c-.862 0-1.64.16-2.332.482l.276.744a4.358 4.358 0 0 1 1.013-.33 5.047 5.047 0 0 1 1.06-.121c.49 0 .845.116 1.07.348.227.232.34.584.34 1.056v.635h-1.03c-1.038 0-1.794.165-2.27.494-.472.326-.709.837-.709 1.537 0 .586.18 1.044.537 1.373.362.33.842.496 1.436.496.887 0 1.607-.34 2.16-1.02l.11.891h.769v-4.26c0-.821-.212-1.415-.635-1.777-.419-.366-1.018-.548-1.795-.548zm11.121 0c-.854 0-1.558.307-2.111.921-.553.615-.83 1.44-.83 2.473 0 1.021.282 1.83.848 2.428.565.594 1.301.892 2.209.892.813 0 1.54-.19 2.18-.568l-.216-.715c-.341.171-.65.3-.927.385a3.1 3.1 0 0 1-.92.129c-.623 0-1.127-.197-1.514-.592-.387-.399-.596-1.01-.629-1.832h4.363l.038-.512c0-.944-.214-1.682-.641-2.21-.423-.534-1.04-.8-1.85-.8zm5.848 0c-.675 0-1.202.162-1.576.488-.375.321-.56.744-.56 1.27 0 .423.106.768.322 1.036.215.265.615.491 1.197.678l.707.227c.468.15.791.311.97.482.18.171.27.383.27.635 0 .366-.109.646-.324.842-.216.191-.518.287-.908.287-.623 0-1.321-.187-2.094-.557v.85a4.66 4.66 0 0 0 2.02.476c.305 0 .585-.038.841-.11a2.21 2.21 0 0 0 .697-.33c.208-.146.37-.34.489-.585a1.97 1.97 0 0 0 .176-.855c0-.26-.024-.48-.073-.659a1.36 1.36 0 0 0-.27-.513 1.664 1.664 0 0 0-.542-.414 5.224 5.224 0 0 0-.885-.356l-.64-.201c-.42-.134-.695-.261-.825-.379s-.195-.308-.195-.572c0-.314.1-.552.299-.715.203-.167.54-.25 1.007-.25.525 0 1.068.143 1.63.428l.238-.752a4.392 4.392 0 0 0-1.971-.451zm37.078 0c-.826 0-1.49.361-1.99 1.085l-.115-.95h-.819v6.456h1.014v-3.937c.085-.566.272-1.018.56-1.36.293-.345.69-.52 1.186-.52.452 0 .76.17.928.507.167.333.25.896.25 1.685v3.625h1.011v-3.314c.013-.562.036-.896.069-1.006.11-.484.318-.855.623-1.111a1.576 1.576 0 0 1 1.043-.385c.175 0 .327.027.457.08a.662.662 0 0 1 .318.23c.082.106.147.215.196.325.048.106.083.247.103.422a7.273 7.273 0 0 1 .049.914v3.845h1.014v-4.162c0-1.62-.66-2.43-1.979-2.43-.936 0-1.645.438-2.129 1.313-.15-.41-.366-.733-.642-.965-.277-.232-.659-.347-1.147-.347zm-77.496.134v3.944c0 .875.192 1.533.574 1.976.387.44.953.66 1.701.66.53 0 .947-.08 1.252-.238a2.05 2.05 0 0 0 .776-.732l.103.847h.88v-6.457h-1.015v3.625c0 .257-.018.49-.054.701-.037.212-.1.413-.19.6s-.205.343-.347.469a1.48 1.48 0 0 1-.537.299 2.307 2.307 0 0 1-.745.111c-.496 0-.852-.148-1.068-.445-.212-.297-.316-.733-.316-1.307v-4.053h-1.014zm87.957.635c1.172 0 1.758.866 1.758 2.6 0 1.713-.602 2.57-1.807 2.57-.61 0-1.082-.226-1.416-.678-.33-.451-.494-1.117-.494-1.996 0-.785.16-1.398.477-1.838.321-.44.815-.658 1.482-.658zm-78.12.006c1.165 0 1.747.864 1.747 2.594 0 1.713-.602 2.57-1.807 2.57-.61 0-1.082-.235-1.416-.703-.33-.468-.494-1.124-.494-1.97.004-.782.167-1.393.488-1.833.322-.44.816-.658 1.483-.658zm6.831 0c.602 0 1.056.224 1.361.672.31.448.465 1.108.465 1.982-.004.802-.154 1.42-.447 1.856-.293.435-.77.654-1.434.654-.63 0-1.097-.233-1.398-.697-.297-.464-.445-1.1-.445-1.91 0-.814.159-1.442.476-1.885.317-.448.791-.672 1.422-.672zm17.926 0c1.025 0 1.562.696 1.611 2.088h-3.516c.057-.643.258-1.153.6-1.527.346-.375.78-.56 1.305-.56zm-10.492 2.71h.775v1.423c-.484.712-1.142 1.066-1.977 1.066a1.06 1.06 0 0 1-.763-.293c-.204-.195-.305-.472-.305-.83 0-.2.018-.365.055-.5a.95.95 0 0 1 .603-.652 2.8 2.8 0 0 1 .655-.158 7.08 7.08 0 0 1 .957-.057zm20.062 1.757c0 .297-.083 1.337-.25 3.119h.592l.178-.684c.118-.451.235-.914.353-1.39.122-.48.184-.748.184-.801v-.244h-1.057z" id="path4831" fill="currentColor" fill-opacity=".5" stroke="none"/><g transform="matrix(.8 0 0 .8 -288.457 -202.907)" id="layer1-6" fill-opacity="1" stroke="none"><path id="path4194" transform="translate(384.571 499.798)" d="M9 11v2l1-1-1-1zm30 0l-1 1 1 1v-2z" fill="url(#linearGradient4205)" fill-rule="evenodd" stroke-width="1" stroke-linecap="butt" stroke-linejoin="miter" stroke-opacity="1"/><rect ry="0" y="513.798" x="390.571" height="30" width="36" id="rect4139-4" opacity="1" fill="url(#linearGradient4158-6)"/><path id="path4224" transform="translate(384.571 499.798)" d="M23 23v7h-7l3 3h3v3l1 1v2h-7l5 5h21V33L32 23v7h-2l-1-1h-3v-3l-3-3zm3 10h5v5h-5v-5z" opacity=".2" fill="url(#linearGradient4232)" fill-rule="evenodd" stroke-width="1" stroke-linecap="butt" stroke-linejoin="miter" stroke-opacity="1"/><path d="M10 10l-1 1 1 1-4 2h36l-4-2 1-1-1-1H10z" transform="translate(384.571 499.798)" id="path4172" fill="url(#linearGradient4174)" fill-rule="evenodd" stroke-width="1" stroke-linecap="butt" stroke-linejoin="miter" stroke-opacity="1"/><path id="path4183" transform="translate(384.571 499.798)" d="M10 10l-1 1 1 1-4 2h36l-4-2 1-1-1-1H10z" opacity=".6" fill="url(#linearGradient4302)" fill-rule="evenodd" stroke-width="1" stroke-linecap="butt" stroke-linejoin="miter" stroke-opacity="1"/><path id="rect4176-8" transform="translate(384.571 499.798)" d="M10 10l-1 1h30l-1-1H10z" opacity=".2" fill="#000" stroke-opacity="1"/><path id="rect4304" d="M400.571 516.798v-5c0-4.432 3.568-8 8-8s8 3.568 8 8v5h-1v-5c0-3.878-3.122-7-7-7s-7 3.122-7 7v5z" opacity="1" fill="url(#linearGradient4187)" stroke-opacity="1"/><path id="path4189" d="M401.071 514.798a1.5 1.5 0 0 1 1.5 1.5 1.5 1.5 0 0 1-1.5 1.5 1.5 1.5 0 0 1-1.5-1.5 1.5 1.5 0 0 1 1.5-1.5zm0 1a.5.5 0 0 0-.5.5.5.5 0 0 0 .5.5.5.5 0 0 0 .5-.5.5.5 0 0 0-.5-.5z" opacity="1" fill="url(#linearGradient4290)" stroke-opacity="1"/><path id="circle4191" transform="translate(384.571 499.798)" d="M31.5 15a1.5 1.5 0 0 0-1.5 1.5 1.5 1.5 0 0 0 1.5 1.5 1.5 1.5 0 0 0 1.5-1.5 1.5 1.5 0 0 0-1.5-1.5zm0 1a.5.5 0 0 1 .5.5.5.5 0 0 1-.5.5.5.5 0 0 1-.5-.5.5.5 0 0 1 .5-.5z" opacity="1" fill="url(#linearGradient4282)" stroke-opacity="1"/><path id="rect4202-5" transform="translate(384.571 499.798)" d="M16 23v7h7v-7h-7zm9 0v7h7v-7h-7zm-8 1h5v5h-5v-5zm9 0h5v5h-5v-5zm-10 8v7h7v-7h-7zm9 0v7h7v-7h-7zm-8 1h5v5h-5v-5zm9 0h5v5h-5v-5z" fill="url(#linearGradient4222)"/><path id="rect4171-0" opacity="1" fill="#1c5593" d="M390.571 542.798h36v1h-36z"/></g><g transform="matrix(.8 0 0 .8 64 116.755)" id="g4548"><g id="layer1-418" transform="translate(-438.571 -458.798)" stroke="none"><rect id="rect4146-0" width="40" height="40" x="388.571" y="503.798" ry="0" opacity="1" fill="url(#linearGradient4165)" fill-opacity="1"/><rect id="rect4157" width="32" height="16" x="392.571" y="515.798" ry="8" opacity="1" fill="#1d99f3" fill-opacity="1"/><path d="M411.571 528.798l15 15h2v-18l-8-8z" id="path4334" opacity=".4" fill="url(#linearGradient4342)" fill-opacity="1" fill-rule="evenodd" stroke-width="1" stroke-linecap="butt" stroke-linejoin="miter" stroke-opacity="1"/><rect ry="7" y="516.798" x="409.671" height="14" width="14" id="rect4159" opacity="1" fill="url(#linearGradient4332)" fill-opacity="1"/><path d="M35.553 19.092A5.974 5.974 0 0 1 37 23c0 3.324-2.676 6-6 6a5.977 5.977 0 0 1-3.453-1.092A5.977 5.977 0 0 0 32.1 30c3.324 0 6-2.676 6-6a5.98 5.98 0 0 0-2.547-4.908z" transform="translate(384.571 499.798)" id="rect4413" opacity="1" fill="#1b83ce" fill-opacity=".119"/><path id="rect4167" opacity="1" fill="#141517" fill-opacity="1" d="M388.571 542.798h40v1h-40z"/></g></g><g transform="matrix(.79376 0 0 .8 -284.432 -345.038)" id="layer1-33" stroke="none"><g transform="rotate(-15 402.071 517.798)" id="g5065" color="#000" visibility="visible" fill-opacity="1" fill-rule="nonzero" stroke-width="1" stroke-linecap="round" stroke-linejoin="round" stroke-miterlimit="4" stroke-dasharray="none" stroke-opacity="1"><path style="marker:none" id="rect4933" display="inline" overflow="visible" opacity="1" fill="url(#linearGradient4943)" d="M392.571 509.798h19v16h-19z"/><path style="marker:none" id="rect4935" display="inline" overflow="visible" opacity=".2" fill="#fff" d="M392.571 509.798h19v3h-19z"/></g><path id="rect4391-6" style="marker:none" color="#000" display="inline" overflow="visible" visibility="visible" opacity="1" fill="url(#linearGradient4466-8)" fill-opacity="1" fill-rule="nonzero" stroke-width="1" stroke-linecap="round" stroke-linejoin="round" stroke-miterlimit="4" stroke-dasharray="none" stroke-opacity="1" d="M406.571 504.798h22v33h-22z"/><path id="rect4391-6-7" style="marker:none" color="#000" display="inline" overflow="visible" visibility="visible" opacity="1" fill="url(#linearGradient4768)" fill-opacity="1" fill-rule="nonzero" stroke-width="1" stroke-linecap="round" stroke-linejoin="round" stroke-miterlimit="4" stroke-dasharray="none" stroke-opacity="1" d="M406.571 505.798h22v33h-22z"/><path id="rect4391" style="marker:none" color="#000" display="inline" overflow="visible" visibility="visible" opacity="1" fill="url(#linearGradient4466)" fill-opacity="1" fill-rule="nonzero" stroke-width="1" stroke-linecap="round" stroke-linejoin="round" stroke-miterlimit="4" stroke-dasharray="none" stroke-opacity="1" d="M406.571 506.798h22v33h-22z"/><g id="layer1-5" transform="translate(-15.143 -17.993)" fill="url(#linearGradient5038)" fill-opacity="1"><path id="rect5042" transform="translate(399.714 517.79)" d="M35.121 11.879L30.88 16.12l2.637 2.637-3.891.148L29 20v3l8.984.229 2.086 2.085 4.244-4.244-9.193-9.191z" style="marker:none" color="#000" display="inline" overflow="visible" visibility="visible" opacity=".2" fill="url(#linearGradient5050)" fill-rule="nonzero" stroke-width="1" stroke-linecap="round" stroke-linejoin="round" stroke-miterlimit="4" stroke-dasharray="none" stroke-opacity="1"/><path d="M432.714 528.79c-1.662 0-3 1.339-3 3 0 1.663 1.338 3 3 3s3-1.337 3-3c0-1.661-1.338-3-3-3zm0 7c-2.77 0-5 .893-5 2v6h10v-6c0-1.107-2.23-2-5-2zm0 1c2.216 0 4 .637 4 1.428v4.573h-8v-4.573c0-.791 1.784-1.427 4-1.427z" id="rect4109" opacity="1" fill="url(#linearGradient5040)"/></g><path id="rect4248" d="M388.571 519.798v24h40v-24z" fill="url(#linearGradient4486)" fill-opacity="1" stroke-opacity="1"/><path id="rect4488" fill="#d1d3d4" fill-opacity="1" stroke-opacity="1" d="M388.571 542.798h40v1h-40z"/><path id="path4188" d="M391.571 543.798l1-2h2l-1 2z" fill="#c0392b" fill-rule="evenodd" stroke-width="1" stroke-linecap="butt" stroke-linejoin="miter" stroke-opacity="1"/><path id="path4188-3" d="M399.571 543.798l1-2h2l-1 2z" fill="#2980b9" fill-rule="evenodd" stroke-width="1" stroke-linecap="butt" stroke-linejoin="miter" stroke-opacity="1"/><path id="path4188-3-0" d="M407.571 543.798l1-2h2l-1 2z" fill="#c0392b" fill-rule="evenodd" stroke-width="1" stroke-linecap="butt" stroke-linejoin="miter" stroke-opacity="1"/><path id="path4188-33" d="M415.571 543.798l1-2h2l-1 2z" fill="#2980b9" fill-rule="evenodd" stroke-width="1" stroke-linecap="butt" stroke-linejoin="miter" stroke-opacity="1"/><path id="path4188-3-7" d="M423.571 543.798l1-2h2l-1 2z" fill="#c0392b" fill-rule="evenodd" stroke-width="1" stroke-linecap="butt" stroke-linejoin="miter" stroke-opacity="1"/><path id="path4188-3-0-2" d="M426.571 537.798l2 1v2l-2-1z" fill="#2980b9" fill-rule="evenodd" stroke-width="1" stroke-linecap="butt" stroke-linejoin="miter" stroke-opacity="1"/><path id="path4188-33-7" d="M426.571 529.798l2 1v2l-2-1z" fill="#c0392b" fill-rule="evenodd" stroke-width="1" stroke-linecap="butt" stroke-linejoin="miter" stroke-opacity="1"/><path id="path4188-3-7-6" d="M426.571 521.798l2 1v2l-2-1z" fill="#2980b9" fill-rule="evenodd" stroke-width="1" stroke-linecap="butt" stroke-linejoin="miter" stroke-opacity="1"/><path id="path4188-3-0-2-3" d="M390.571 538.798l-2 1v2l2-1z" fill="#2980b9" fill-rule="evenodd" stroke-width="1" stroke-linecap="butt" stroke-linejoin="miter" stroke-opacity="1"/><path id="path4188-33-7-1" d="M390.571 530.798l-2 1v2l2-1z" fill="#c0392b" fill-rule="evenodd" stroke-width="1" stroke-linecap="butt" stroke-linejoin="miter" stroke-opacity="1"/><path id="path4188-3-7-6-0" d="M390.571 522.798l-2 1v2l2-1z" fill="#2980b9" fill-rule="evenodd" stroke-width="1" stroke-linecap="butt" stroke-linejoin="miter" stroke-opacity="1"/><path id="path4188-0" d="M390.571 519.798l1 2h2l-1-2z" fill="#c0392b" fill-rule="evenodd" stroke-width="1" stroke-linecap="butt" stroke-linejoin="miter" stroke-opacity="1"/><path id="path4188-3-1" d="M398.571 519.798l1 2h2l-1-2z" fill="#2980b9" fill-rule="evenodd" stroke-width="1" stroke-linecap="butt" stroke-linejoin="miter" stroke-opacity="1"/><path id="path4188-3-0-0" d="M406.571 519.798l1 2h2l-1-2z" fill="#c0392b" fill-rule="evenodd" stroke-width="1" stroke-linecap="butt" stroke-linejoin="miter" stroke-opacity="1"/><path id="path4188-33-1" d="M414.571 519.798l1 2h2l-1-2z" fill="#2980b9" fill-rule="evenodd" stroke-width="1" stroke-linecap="butt" stroke-linejoin="miter" stroke-opacity="1"/><path id="path4188-3-7-4" d="M422.571 519.798l1 2h2l-1-2z" fill="#c0392b" fill-rule="evenodd" stroke-width="1" stroke-linecap="butt" stroke-linejoin="miter" stroke-opacity="1"/><path id="path4340" d="M424.571 523.798l4 4v11l-9-9z" opacity=".2" fill="url(#linearGradient4356)" fill-opacity="1" fill-rule="evenodd" stroke-width="1" stroke-linecap="butt" stroke-linejoin="miter" stroke-opacity="1"/><path id="rect4318" style="marker:none" color="#fcfcfc" display="inline" overflow="visible" visibility="visible" opacity="1" fill="currentColor" fill-opacity="1" fill-rule="nonzero" stroke-width="1" stroke-linecap="round" stroke-linejoin="round" stroke-miterlimit="4" stroke-dasharray="none" stroke-opacity="1" d="M419.571 523.798h5v6h-5z"/><path id="rect4320" style="marker:none" color="#000" display="inline" overflow="visible" visibility="visible" opacity="1" fill="#16a085" fill-opacity="1" fill-rule="nonzero" stroke-width="1" stroke-linecap="round" stroke-linejoin="round" stroke-miterlimit="4" stroke-dasharray="none" stroke-opacity="1" d="M420.571 524.798h3v4h-3z"/><g id="g4382" color="#000" visibility="visible" fill="#bdc3c7" fill-opacity="1" fill-rule="nonzero" stroke-width="1" stroke-linecap="round" stroke-linejoin="round" stroke-miterlimit="4" stroke-dasharray="none" stroke-opacity="1"><path style="marker:none" id="rect4358" display="inline" overflow="visible" opacity="1" d="M404.571 528.798h7v1h-7z"/><path style="marker:none" id="rect4360" display="inline" overflow="visible" opacity="1" d="M404.571 530.798h4v1h-4z"/><path style="marker:none" id="rect4362" display="inline" overflow="visible" opacity="1" d="M404.571 532.798h10v1h-10z"/><path style="marker:none" id="rect4364" display="inline" overflow="visible" opacity="1" d="M404.571 534.798h5v1h-5z"/><path style="marker:none" id="rect4366" display="inline" overflow="visible" opacity="1" d="M392.571 523.798h4v1h-4z"/><path style="marker:none" id="rect4368" display="inline" overflow="visible" opacity="1" d="M392.571 525.798h7v1h-7z"/><path style="marker:none" id="rect4370" display="inline" overflow="visible" opacity="1" d="M392.571 527.798h6v1h-6z"/></g><path id="rect4468" style="marker:none" color="#000" display="inline" overflow="visible" visibility="visible" opacity="1" fill="#7f8c8d" fill-opacity="1" fill-rule="nonzero" stroke-width="1" stroke-linecap="round" stroke-linejoin="round" stroke-miterlimit="4" stroke-dasharray="none" stroke-opacity="1" d="M409.571 503.798h1v4h-1z"/><path id="rect4468-7" style="marker:none" color="#000" display="inline" overflow="visible" visibility="visible" opacity="1" fill="#7f8c8d" fill-opacity="1" fill-rule="nonzero" stroke-width="1" stroke-linecap="round" stroke-linejoin="round" stroke-miterlimit="4" stroke-dasharray="none" stroke-opacity="1" d="M424.571 503.798h1v4h-1z"/><path id="rect4468-7-8" style="marker:none" color="#000" display="inline" overflow="visible" visibility="visible" opacity="1" fill="#7f8c8d" fill-opacity="1" fill-rule="nonzero" stroke-width="1" stroke-linecap="round" stroke-linejoin="round" stroke-miterlimit="4" stroke-dasharray="none" stroke-opacity="1" d="M414.571 503.798h1v4h-1z"/><path id="rect4468-7-8-2-1" style="marker:none" color="#000" display="inline" overflow="visible" visibility="visible" opacity="1" fill="#7f8c8d" fill-opacity="1" fill-rule="nonzero" stroke-width="1" stroke-linecap="round" stroke-linejoin="round" stroke-miterlimit="4" stroke-dasharray="none" stroke-opacity="1" d="M419.571 503.798h1v4h-1z"/></g><g id="layer1" transform="translate(20.544 100.543) scale(.81069)"><circle transform="rotate(15)" id="path4212-7" r="15" cy="16.971" cx="29.394" color="#000" fill="url(#linearGradient4464)" stroke-width="3" stroke-linecap="round" stroke-linejoin="round"/><path d="M27.168 43.736a20 20 0 0 0 3.959-1.054l-.344-3.118a17 17 0 0 0 3.307-1.906l2.521 1.852a20 20 0 0 0 2.897-2.903l-1.85-2.517a17 17 0 0 0 1.92-3.305l3.086.34a20 20 0 0 0 1.06-3.963l-2.841-1.248A17 17 0 0 0 41 24a17 17 0 0 0-.129-1.908l2.865-1.26a20 20 0 0 0-1.054-3.959l-3.118.344a17 17 0 0 0-1.906-3.307l1.852-2.521a20 20 0 0 0-2.903-2.897l-2.517 1.85a17 17 0 0 0-3.305-1.92l.34-3.086a20 20 0 0 0-3.963-1.06l-1.248 2.841A17 17 0 0 0 24 7a17 17 0 0 0-1.908.129l-1.26-2.865a20 20 0 0 0-3.959 1.054l.344 3.118a17 17 0 0 0-3.307 1.906L11.39 8.49a20 20 0 0 0-2.897 2.903l1.85 2.517a17 17 0 0 0-1.92 3.305l-3.086-.34a20 20 0 0 0-1.06 3.963l2.841 1.248A17 17 0 0 0 7 24a17 17 0 0 0 .129 1.908l-2.865 1.26a20 20 0 0 0 1.054 3.959l3.118-.344a17 17 0 0 0 1.906 3.307L8.49 36.61a20 20 0 0 0 2.903 2.897l2.517-1.85a17 17 0 0 0 3.305 1.92l-.34 3.086a20 20 0 0 0 3.963 1.06l1.248-2.841A17 17 0 0 0 24 41a17 17 0 0 0 1.908-.129l1.26 2.865zM24 38a14 14 0 0 1-14-14 14 14 0 0 1 14-14 14 14 0 0 1 14 14 14 14 0 0 1-14 14z" id="path4162" color="#000" fill="url(#linearGradient4472)" stroke-width="3" stroke-linecap="round" stroke-linejoin="round"/><path d="M16.979 5.28l-.106.038.238 2.17.106-.052zm14.04.02l-.234 2.122.106.047.234-2.133a19.83 19.83 0 0 0-.105-.035zm8.086 5.64l-1.447 1.97a17 17 0 0 1 .356.516l1.496-2.037a20 20 0 0 0-.405-.45zm-30.21.001a20 20 0 0 0-.403.452l1.5 2.04c.113-.176.23-.35.35-.523zm34.648 8.975l-2.672 1.176c.033.322.058.645.072.969l2.793-1.229a20.004 20.004 0 0 0-.193-.916zm-39.074.008a20 20 0 0 0-.194.914l2.776 1.219a17 17 0 0 1 .066-.971zm2.556 3.502c-.011.191-.02.382-.025.574a17 17 0 0 0 .057.94l.072-.032a17 17 0 0 1-.104-1.482zm33.95.148c-.013.448-.044.895-.092 1.34l.066.03c.026-.315.043-.63.051-.944a17.101 17.101 0 0 0-.025-.426zm2.556 3.502a20 20 0 0 1-.867 3.049l-3.086-.34a17 17 0 0 1-1.92 3.305l.35.476a17 17 0 0 0 1.57-2.78l3.086.339a20 20 0 0 0 1.06-3.963zm-39.074.008l-.193.084a20 20 0 0 0 1.054 3.959l3.118-.344a17 17 0 0 0 1.55 2.791l.356-.484a17 17 0 0 1-1.906-3.307l-3.118.344a20 20 0 0 1-.861-3.043zm34.648 8.975a20 20 0 0 1-2.494 2.45l-2.521-1.85a17 17 0 0 1-3.307 1.905l.106.948a17 17 0 0 0 3.2-1.854l2.522 1.852a20 20 0 0 0 2.897-2.903zm-30.21.002l-.405.55a20 20 0 0 0 2.903 2.897l2.517-1.85a17 17 0 0 0 3.2 1.873l.105-.953a17 17 0 0 1-3.305-1.92l-2.517 1.85a20.005 20.005 0 0 1-2.498-2.447zm17.013 3.81A17 17 0 0 1 24 40a16.995 16.995 0 0 1-1.914-.117l-1.248 2.842a20 20 0 0 1-3.858-1.026l-.105.965a20 20 0 0 0 3.963 1.06l1.248-2.841A17 17 0 0 0 24 41c.638-.007 1.275-.05 1.908-.129l1.26 2.865a20 20 0 0 0 3.959-1.054l-.106-.961a20 20 0 0 1-3.853 1.015z" id="path4162-5" color="#000" fill="#95a5a6" stroke-width="3" stroke-linecap="round" stroke-linejoin="round"/><path d="M33 15L15 33l7.96 7.96c.347.024.693.038 1.04.04.638-.007 1.275-.05 1.908-.129l1.26 2.865a20 20 0 0 0 3.959-1.054l-.238-2.17-.106-.948a17 17 0 0 0 3.307-1.906l2.521 1.852a20 20 0 0 0 2.897-2.903l-1.5-2.04-.35-.477a17 17 0 0 0 1.92-3.305l3.086.34a20 20 0 0 0 1.06-3.963l-2.775-1.219-.066-.029A17 17 0 0 0 41 24a17 17 0 0 0-.057-.94l.02-.007-.008-.098L33 15z" id="path4596" opacity=".2" fill="url(#linearGradient4604)" fill-rule="evenodd"/><rect id="rect4130" height="26" rx="13" y="11" x="11" width="26" fill="url(#linearGradient4149)"/><path d="M24 11c-.944 0-1.862.104-2.747.293L20.1 13.6l-1.742-1.306a12.961 12.961 0 0 0-6.665 7.53L14.25 18.8l1.95 1.3.65-1.95 8.45-4.55-.515-2.575C24.525 11.01 24.264 11 24 11zm9.627 4.27l-.527 1.58.65.65-2.6 3.9 1.3 4.55 4.311.54c.155-.806.239-1.638.239-2.49 0-2.226-.557-4.316-1.535-6.145L34.4 17.5l.387-.776a12.979 12.979 0 0 0-1.16-1.455zm-22.37 6.13a13.14 13.14 0 0 0-.247 2.198l4.54 1.702-.65-1.95-1.3-1.95zm4.293 3.9l3.25 7.8v2.82A13.001 13.001 0 0 0 24 37c.13 0 .256-.005.385-.009l4.165-7.141L18.15 24l-2.6 1.3z" id="path4179" fill="url(#linearGradient4305)" fill-rule="evenodd"/><path d="M11.025 23.5c-.006.167-.025.331-.025.5 0 7.202 5.798 13 13 13s13-5.798 13-13c0-.169-.02-.333-.025-.5A12.96 12.96 0 0 1 24 36a12.96 12.96 0 0 1-12.975-12.5z" id="rect4130-9" opacity=".2" fill="#172525"/></g></svg>