<svg xmlns="http://www.w3.org/2000/svg" xmlns:xlink="http://www.w3.org/1999/xlink" viewBox="0 0 256 256"><defs><linearGradient xlink:href="#a" id="d" y1="503.079" x1="418.17" y2="531.458" x2="384.571" gradientUnits="userSpaceOnUse" gradientTransform="matrix(1.20833 0 0 1.58889 -77.119 -310.68)"/><linearGradient id="a"><stop stop-color="#4ce0c6"/><stop offset="1" stop-color="#3b85b5"/></linearGradient><linearGradient xlink:href="#b" id="e" y1="521.633" x1="404.045" y2="528.35" x2="430.736" gradientUnits="userSpaceOnUse" gradientTransform="matrix(1.20833 0 0 1.58889 -77.119 -310.68)"/><linearGradient id="b"><stop stop-color="#ffc169"/><stop offset="1" stop-color="#ffa92d"/></linearGradient><linearGradient xlink:href="#c" id="f" y1="542.224" x1="398.092" y2="524.9" x2="394.003" gradientUnits="userSpaceOnUse" gradientTransform="matrix(1.20833 0 0 1.58889 -77.119 -310.68)"/><linearGradient id="c"><stop stop-color="#334545"/><stop offset="1" stop-color="#536161"/></linearGradient><linearGradient xlink:href="#c" id="g" y1="568.798" x1="431.571" y2="562.798" x2="439.571" gradientUnits="userSpaceOnUse" gradientTransform="matrix(-1.20833 0 0 1.58889 936.845 -374.236)"/><linearGradient xlink:href="#c" id="h" y1="572.334" x1="423.054" y2="566.766" x2="431.225" gradientUnits="userSpaceOnUse" gradientTransform="matrix(-1.20833 0 0 1.58889 936.845 -374.236)"/><style/></defs><path d="M16 10h224c3.324 0 6 2.676 6 6v224c0 3.324-2.676 6-6 6H16c-3.324 0-6-2.676-6-6V16c0-3.324 2.676-6 6-6z" fill="currentColor" fill-opacity=".5" color="#31363b"/><path d="M16 12h224c2.216 0 4 1.784 4 4v224c0 2.216-1.784 4-4 4H16c-2.216 0-4-1.784-4-4V16c0-2.216 1.784-4 4-4z" fill="currentColor" color="#eff0f1"/><path d="M387.571 489.798v52h58v-52h-58z" fill="url(#d)" transform="matrix(2.82759 0 0 3.15385 -1049.891 -1498.748)"/><path d="M445.571 489.798l-39.916 30.303 28.58 21.697h11.336v-52z" fill="url(#e)" stroke-width="2" stroke-linecap="round" transform="matrix(2.82759 0 0 3.15385 -1049.891 -1498.748)"/><path d="M405.696 519.986l-18.125 13.761v8.051h46.935l-28.81-21.812z" fill="url(#f)" stroke-width="2" stroke-linecap="round" transform="matrix(2.82759 0 0 3.15385 -1049.891 -1498.748)"/><path d="M415.675 527.563l-9.979-7.576v15.152z" fill="url(#g)" stroke-width="2" stroke-linecap="round" transform="matrix(2.82759 0 0 3.15385 -1049.891 -1498.748)"/><path d="M415.675 527.562v14.236h1.208l8.772-6.66-9.98-7.576z" fill="url(#h)" stroke-width="2" stroke-linecap="round" transform="matrix(2.82759 0 0 3.15385 -1049.891 -1498.748)"/><path d="M97.135 141.576L210.001 46v46.69z" fill="#ffa92d" stroke-width="2" stroke-linecap="round"/></svg>