<svg xmlns="http://www.w3.org/2000/svg" viewBox="0 0 256 256" id="svg2" version="1.1"><defs id="defs4"><style id="current-color-scheme" type="text/css">.ColorScheme-Text{color:#4d4d4d}.ColorScheme-Highlight{color:#3daee9}</style></defs><path d="M16 10h224c3.324 0 6 2.676 6 6v224c0 3.324-2.676 6-6 6H16c-3.324 0-6-2.676-6-6V16c0-3.324 2.676-6 6-6z" id="rect4240" fill="currentColor" fill-opacity=".5" stroke="none" color="#31363b"/><path d="M16 12h224c2.216 0 4 1.784 4 4v224c0 2.216-1.784 4-4 4H16c-2.216 0-4-1.784-4-4V16c0-2.216 1.784-4 4-4z" id="rect4238" fill="currentColor" fill-opacity="1" stroke="none" color="#eff0f1"/><path d="M197.418 44.229v.996h.787v-.996h-.787zm12.89 0c-.538 0-.931.122-1.18.367-.247.242-.37.63-.37 1.162v.334h-.752v.61h.752v4.175h.79v-4.176h1.296v-.61h-1.295v-.423c0-.296.054-.501.162-.615.111-.114.308-.17.59-.17h.752v-.654h-.744zm-23.48.154a5.21 5.21 0 0 0-.812.068 8.38 8.38 0 0 0-.918.205v.768c.324-.108.622-.187.892-.238a4.04 4.04 0 0 1 .76-.079c.433 0 .765.09.996.266.234.174.35.424.35.752 0 .319-.111.563-.336.734-.225.168-.55.252-.975.252h-.777v.71h.742c.47 0 .836.108 1.098.322.265.21.398.503.398.878 0 .408-.143.718-.428.932-.282.214-.693.32-1.234.32-.31 0-.608-.036-.893-.107a2.993 2.993 0 0 1-.787-.314v.832c.302.105.595.183.877.234.285.054.56.082.828.082.798 0 1.413-.173 1.846-.518.433-.344.65-.831.65-1.46 0-.41-.118-.755-.351-1.034-.23-.279-.552-.462-.965-.55.373-.094.661-.262.863-.504.203-.245.303-.546.303-.899 0-.507-.19-.909-.572-1.205-.382-.299-.9-.447-1.555-.447zm6.656 0c-.997 0-1.777.29-2.341.875-.562.58-.842 1.393-.842 2.435 0 1.04.28 1.852.842 2.436.564.581 1.344.871 2.341.871.456 0 .884-.06 1.286-.18.401-.122.77-.3 1.103-.537v-2.74h-2.266v.709h1.41v1.715c-.19.11-.405.194-.644.248-.24.051-.512.076-.816.076-.78 0-1.367-.218-1.76-.654-.39-.436-.586-1.083-.586-1.944 0-.863.196-1.513.586-1.949.393-.436.98-.652 1.76-.652.396 0 .774.068 1.132.205.36.137.697.34 1.016.611v-.92a3.81 3.81 0 0 0-1.037-.453 4.449 4.449 0 0 0-1.184-.152zm6.395.115v6.379h2.29c.716 0 1.266-.156 1.653-.467.388-.31.582-.75.582-1.32 0-.433-.119-.793-.355-1.08-.234-.29-.562-.481-.986-.572.353-.057.62-.201.802-.432.183-.23.274-.542.274-.932 0-.504-.177-.892-.534-1.166-.356-.273-.863-.41-1.521-.41h-2.205zm.863.709h1.278c.421 0 .736.079.94.238.209.16.311.401.311.723 0 .325-.102.567-.31.727-.205.156-.52.234-.941.234h-1.278v-1.922zm13.336.77c-.379 0-.702.07-.967.212-.265.14-.479.354-.644.645v-.742h-.791v4.785h.79v-2.522c0-.54.118-.956.354-1.244.24-.29.581-.435 1.026-.435.125 0 .239.013.341.039.106.023.203.06.292.111l-.004-.808a2.439 2.439 0 0 0-.22-.03 1.365 1.365 0 0 0-.177-.011zm3.049 0c-.718 0-1.289.23-1.713.691-.421.459-.633 1.08-.633 1.863 0 .758.224 1.359.668 1.803.447.444 1.051.666 1.815.666.304 0 .606-.031.902-.094.296-.062.585-.154.867-.273v-.744c-.279.148-.56.26-.845.334a3.442 3.442 0 0 1-.877.111c-.522 0-.928-.142-1.221-.424-.29-.285-.454-.697-.488-1.238h3.615v-.385c0-.712-.189-1.274-.565-1.687-.373-.416-.881-.623-1.525-.623zm5.385 0c-.718 0-1.29.23-1.715.691-.422.459-.631 1.08-.631 1.863 0 .758.222 1.359.666 1.803.447.444 1.053.666 1.816.666.305 0 .605-.031.9-.094.297-.062.586-.154.868-.273v-.744c-.28.148-.56.26-.846.334a3.427 3.427 0 0 1-.875.111c-.52 0-.929-.142-1.222-.424-.29-.285-.452-.697-.487-1.238h3.614v-.385c0-.712-.187-1.274-.563-1.687-.373-.416-.882-.623-1.525-.623zm-25.094.115v4.785h.787v-4.785h-.787zm19.719.55c.387 0 .698.129.931.385.236.257.358.6.364 1.03l-2.803.004c.04-.45.189-.8.451-1.047.265-.248.618-.371 1.057-.371zm5.383 0c.387 0 .698.129.931.385.236.257.357.6.363 1.03l-2.802.004c.04-.45.19-.8.453-1.047.265-.248.616-.371 1.055-.371zm-21.778 1.188h1.385c.464 0 .807.094 1.03.285.224.188.337.482.337.881 0 .396-.113.691-.338.885-.222.19-.565.285-1.029.285h-1.385V47.83zM85.576 72.23v.996h.787v-.996h-.787zm18.238 0c-.538 0-.93.122-1.177.367-.248.242-.373.63-.373 1.162v.334h-.752v.61h.752v4.175h.79v-4.176h1.296v-.61h-1.295v-.423c0-.296.054-.501.162-.615.11-.114.308-.17.59-.17h.752v-.654h-.745zm24.897 0v.996h.785v-.996h-.785zm-47.07.154c-.997 0-1.776.29-2.34.875-.561.58-.842 1.393-.842 2.435 0 1.04.28 1.852.842 2.436.564.581 1.343.871 2.34.871.455 0 .885-.06 1.287-.18a3.78 3.78 0 0 0 1.101-.537v-2.74h-2.263v.709h1.41v1.715c-.191.11-.407.194-.647.248a3.933 3.933 0 0 1-.816.076c-.78 0-1.367-.218-1.76-.654-.39-.436-.584-1.083-.584-1.944 0-.863.194-1.513.584-1.949.393-.436.98-.652 1.76-.652.396 0 .774.068 1.133.205.359.137.698.34 1.017.611v-.92c-.316-.2-.663-.35-1.039-.453a4.449 4.449 0 0 0-1.183-.152zm28.02 0c-.251 0-.527.034-.829.105a6.865 6.865 0 0 0-.975.317v.87c.342-.19.662-.331.961-.425a2.9 2.9 0 0 1 .86-.143c.381 0 .69.11.926.323.239.213.359.489.359.828 0 .208-.055.42-.166.637-.108.213-.3.474-.576.785a35.2 35.2 0 0 1-1.069 1.107c-.564.57-1.01 1.024-1.338 1.363v.727h4.051v-.727h-3.011a489.17 489.17 0 0 0 1.613-1.654c.381-.396.608-.634.68-.717.259-.319.438-.596.535-.83.1-.236.148-.486.148-.748 0-.552-.197-.994-.59-1.324-.393-.33-.919-.494-1.58-.494zm5.864 0c-.715 0-1.261.283-1.64.85-.376.563-.563 1.384-.563 2.46 0 1.074.187 1.894.563 2.461.379.564.925.846 1.64.846.715 0 1.261-.282 1.637-.846.379-.567.568-1.387.568-2.46 0-1.077-.19-1.898-.568-2.462-.376-.566-.922-.85-1.637-.85zm9.25 0c-.997 0-1.775.29-2.34.875-.56.58-.841 1.393-.841 2.435 0 1.04.28 1.852.842 2.436.564.581 1.342.871 2.34.871.455 0 .885-.06 1.287-.18a3.78 3.78 0 0 0 1.101-.537v-2.74H124.9v.709h1.41v1.715c-.19.11-.407.194-.646.248-.24.051-.512.076-.816.076-.78 0-1.367-.218-1.76-.654-.39-.436-.584-1.083-.584-1.944 0-.863.194-1.513.584-1.949.393-.436.98-.652 1.76-.652.396 0 .774.068 1.132.205.36.137.699.34 1.018.611v-.92c-.316-.2-.663-.35-1.039-.453a4.449 4.449 0 0 0-1.184-.152zm-58.25.115L65 72.805v.787l1.533-.309v4.867h-1.41v.727h3.676v-.727h-1.41v-5.652h-.864zm3.803 0v.727h3.063l-2.178 5.652h.9l2.317-6.012v-.367h-4.102zm17.71 0v6.379h2.288c.715 0 1.267-.156 1.654-.467.388-.31.582-.75.582-1.32 0-.433-.119-.793-.355-1.08-.234-.29-.562-.481-.986-.573.353-.056.62-.2.802-.431.183-.23.274-.542.274-.932 0-.504-.18-.892-.535-1.166-.356-.273-.862-.41-1.52-.41h-2.205zm43.134 0v6.379h2.289c.715 0 1.267-.156 1.654-.467.388-.31.582-.75.582-1.32 0-.433-.119-.793-.355-1.08-.234-.29-.562-.481-.987-.573.354-.056.62-.2.803-.431.183-.23.274-.542.274-.932 0-.504-.18-.892-.536-1.166-.356-.273-.861-.41-1.519-.41h-2.205zm-15.647.568c.448 0 .782.218 1.004.657.225.435.338 1.093.338 1.97 0 .875-.113 1.53-.338 1.97-.222.435-.556.653-1.004.653-.444 0-.779-.218-1.004-.654-.222-.439-.332-1.094-.332-1.969 0-.877.11-1.535.332-1.97.225-.439.56-.657 1.004-.657zm-26.625.141h1.278c.421 0 .734.079.94.238.207.16.312.401.312.723 0 .325-.105.567-.313.727-.205.156-.518.234-.94.234H88.9v-1.922zm43.135 0h1.277c.422 0 .735.079.94.238.208.16.312.401.312.723 0 .325-.104.567-.312.727-.205.156-.518.234-.94.234h-1.277v-1.922zm-33.394.77c-.687 0-1.225.221-1.616.666-.387.444-.58 1.06-.58 1.845 0 .784.193 1.399.58 1.846.39.444.93.666 1.616.666.683 0 1.22-.222 1.61-.666.391-.447.587-1.062.587-1.846 0-.786-.196-1.401-.586-1.845-.39-.445-.928-.666-1.611-.666zm-13.065.115v4.785h.787v-4.785h-.787zm43.135 0v4.785h.785v-4.785h-.785zm-30.07.55c.418 0 .75.167.996.5.245.331.367.78.367 1.346 0 .57-.122 1.02-.367 1.35-.245.33-.578.496-.996.496-.425 0-.76-.165-1.004-.492-.242-.33-.364-.781-.364-1.354 0-.572.125-1.024.37-1.351.245-.33.576-.494.998-.494zM88.9 75.83h1.384c.464 0 .807.094 1.03.285.224.188.337.482.337.881 0 .396-.113.691-.338.885-.222.19-.565.285-1.029.285H88.9V75.83zm43.134 0h1.385c.464 0 .807.094 1.03.285.224.188.337.482.337.881 0 .396-.113.691-.338.885-.222.19-.565.285-1.03.285h-1.384V75.83zM19 90v1h216v-1H19zm178.227 27.229v.994h.787v-.994h-.787zm12.89 0c-.538 0-.932.122-1.18.367-.247.242-.37.63-.37 1.162v.334h-.753v.61h.752v4.175h.791v-4.176h1.293v-.61h-1.293v-.423c0-.296.054-.501.163-.615.11-.114.307-.17.59-.17h.751v-.654h-.744zm-23.289.154c-.632 0-1.131.147-1.496.443-.362.296-.543.7-.543 1.21 0 .364.104.673.309.927.208.253.497.424.867.516-.416.096-.741.286-.975.568-.233.282-.35.628-.35 1.035 0 .618.19 1.092.565 1.422.379.33.92.496 1.623.496.704 0 1.243-.166 1.62-.496.378-.33.568-.804.568-1.422 0-.407-.116-.753-.35-1.035-.23-.282-.555-.472-.97-.568.367-.092.654-.263.859-.516.208-.254.31-.563.31-.928 0-.51-.18-.913-.54-1.209-.363-.296-.862-.443-1.497-.443zm6.465 0c-.997 0-1.778.29-2.342.875-.56.58-.842 1.393-.842 2.435 0 1.04.281 1.852.842 2.436.564.581 1.345.871 2.342.871.456 0 .884-.06 1.285-.18.402-.122.768-.3 1.102-.537v-2.74h-2.264v.709h1.41v1.715c-.19.11-.405.194-.644.248a3.92 3.92 0 0 1-.817.076c-.78 0-1.366-.218-1.76-.654-.39-.436-.585-1.083-.585-1.944 0-.863.195-1.513.585-1.949.394-.436.98-.652 1.76-.652.396 0 .772.068 1.131.205.359.137.699.34 1.018.611v-.92a3.81 3.81 0 0 0-1.037-.453 4.449 4.449 0 0 0-1.184-.152zm6.394.115v6.379h2.292c.714 0 1.264-.156 1.652-.467.387-.31.582-.75.582-1.32 0-.433-.12-.793-.356-1.08-.233-.29-.562-.481-.986-.573.353-.056.62-.2.803-.431.182-.23.273-.542.273-.932 0-.504-.177-.892-.533-1.166-.356-.273-.863-.41-1.521-.41h-2.205zm-12.859.568c.37 0 .66.093.867.278.211.185.317.443.317.773s-.106.588-.317.774c-.208.185-.497.277-.867.277-.373 0-.663-.092-.871-.277-.205-.186-.309-.443-.309-.774 0-.33.104-.588.309-.773.208-.185.498-.278.871-.278zm13.723.141h1.277c.422 0 .735.079.94.238.208.16.312.401.312.723 0 .325-.105.567-.312.727-.205.156-.518.234-.94.234h-1.277v-1.922zm13.334.77c-.38 0-.7.07-.965.212-.265.14-.48.354-.645.645v-.742h-.79v4.785h.79v-2.522c0-.54.117-.956.354-1.244.24-.29.581-.435 1.025-.435.126 0 .24.013.342.039.105.023.203.06.291.111l-.004-.808a2.723 2.723 0 0 0-.398-.041zm3.05 0c-.717 0-1.288.23-1.712.691-.422.459-.633 1.08-.633 1.863 0 .758.223 1.359.668 1.803.447.444 1.05.666 1.814.666.305 0 .606-.031.903-.094.296-.062.585-.154.867-.273v-.744c-.28.148-.561.26-.846.334a3.44 3.44 0 0 1-.877.111c-.521 0-.927-.142-1.22-.424-.291-.285-.455-.697-.489-1.238h3.615v-.385c0-.712-.188-1.274-.564-1.687-.373-.416-.882-.623-1.525-.623zm5.383 0c-.717 0-1.288.23-1.713.691-.421.459-.63 1.08-.63 1.863 0 .758.221 1.359.666 1.803.447.444 1.05.666 1.814.666.305 0 .606-.031.902-.094.297-.062.586-.154.868-.273v-.744c-.28.148-.561.26-.846.334a3.425 3.425 0 0 1-.875.111c-.521 0-.93-.142-1.223-.424-.29-.285-.452-.697-.486-1.238h3.613v-.385c0-.712-.188-1.274-.564-1.687-.373-.416-.882-.623-1.526-.623zm-25.091.115v4.785h.787v-4.785h-.787zm19.718.55c.388 0 .696.129.93.385.236.257.357.6.363 1.03l-2.802.004c.04-.45.19-.8.453-1.047.265-.248.618-.371 1.056-.371zm5.383 0c.388 0 .698.129.932.385.236.257.357.6.363 1.03l-2.803.004c.04-.45.191-.8.453-1.047.265-.248.616-.371 1.055-.371zm-21.777 1.188h1.385c.464 0 .807.094 1.029.285.225.188.338.482.338.881 0 .396-.113.691-.338.885-.222.19-.565.285-1.03.285h-1.384v-2.336zm-13.723.018c.413 0 .735.108.969.328.236.22.355.522.355.906 0 .382-.119.684-.355.906-.237.22-.559.328-.969.328-.41 0-.734-.108-.97-.328-.234-.219-.35-.521-.35-.906 0-.384.116-.687.35-.906.236-.22.56-.328.97-.328zM84.82 148.228v.995h.785v-.994h-.785zm18.239 0c-.539 0-.932.123-1.18.368-.248.242-.371.63-.371 1.162v.334h-.752v.61h.752v4.175h.79v-4.176h1.296v-.61h-1.295v-.423c0-.296.054-.501.162-.615.111-.114.308-.17.59-.17h.752v-.654h-.744zm24.896 0v.995h.785v-.994h-.785zm-56.615.155c-.25 0-.526.034-.828.105a6.863 6.863 0 0 0-.975.317v.87c.342-.19.662-.331.961-.425a2.9 2.9 0 0 1 .86-.143c.381 0 .69.107.927.32.24.214.358.492.358.83 0 .209-.055.421-.166.638-.109.213-.3.474-.577.785a34.31 34.31 0 0 1-1.068 1.107c-.564.57-1.01 1.024-1.338 1.363v.727h4.05v-.727h-3.01c.694-.709 1.233-1.26 1.614-1.654.382-.396.607-.634.678-.717.26-.319.438-.596.535-.83.1-.236.149-.486.149-.748 0-.552-.197-.994-.59-1.324-.393-.33-.92-.494-1.58-.494zm9.545 0c-.997 0-1.778.29-2.342.875-.561.58-.842 1.393-.842 2.435 0 1.04.28 1.852.842 2.436.564.581 1.345.871 2.342.871.455 0 .883-.06 1.285-.18.402-.122.77-.3 1.103-.537v-2.74h-2.265v.709h1.41v1.715c-.19.11-.405.194-.645.248a3.92 3.92 0 0 1-.816.076c-.78 0-1.367-.218-1.76-.654-.39-.436-.586-1.083-.586-1.944 0-.863.196-1.513.586-1.949.393-.436.98-.652 1.76-.652.396 0 .774.068 1.133.205.359.137.696.34 1.015.611v-.92a3.81 3.81 0 0 0-1.037-.453 4.449 4.449 0 0 0-1.183-.152zm28.314 0c-.632 0-1.131.147-1.496.443-.362.296-.543.7-.543 1.21 0 .364.104.673.309.927.208.253.497.424.867.516-.416.096-.741.286-.975.568-.233.282-.35.628-.35 1.035 0 .618.187 1.092.563 1.422.379.33.922.496 1.625.496.704 0 1.243-.166 1.62-.496.378-.33.568-.804.568-1.422 0-.407-.118-.753-.352-1.035-.23-.282-.553-.472-.969-.568.368-.092.653-.263.858-.516.208-.254.312-.563.312-.928 0-.51-.18-.913-.543-1.209-.361-.296-.859-.443-1.494-.443zm5.57 0c-.714 0-1.261.283-1.64.85-.376.563-.565 1.384-.565 2.46 0 1.074.189 1.895.565 2.461.379.564.926.846 1.64.846.715 0 1.261-.282 1.637-.846.38-.566.569-1.387.569-2.46 0-1.077-.19-1.898-.569-2.462-.376-.566-.922-.85-1.636-.85zm9.25 0c-.996 0-1.777.29-2.341.875-.561.58-.842 1.393-.842 2.435 0 1.04.28 1.852.842 2.436.564.581 1.345.871 2.342.871.455 0 .883-.06 1.285-.18.401-.122.77-.3 1.103-.537v-2.74h-2.265v.709h1.41v1.715c-.191.11-.406.194-.645.248a3.933 3.933 0 0 1-.816.076c-.78 0-1.367-.218-1.76-.654-.39-.436-.586-1.083-.586-1.944 0-.863.196-1.513.586-1.949.393-.436.98-.652 1.76-.652.396 0 .774.068 1.133.205.359.137.696.34 1.015.611v-.92a3.81 3.81 0 0 0-1.037-.453 4.449 4.449 0 0 0-1.183-.152zM64 148.498v.725h3.063l-2.178 5.654h.9l2.317-6.012v-.367H64zm23.281 0v6.379h2.29c.714 0 1.266-.156 1.654-.467.387-.31.58-.75.58-1.32 0-.433-.117-.793-.354-1.08-.233-.29-.564-.481-.988-.573.353-.057.622-.2.805-.431.182-.23.273-.542.273-.932 0-.504-.18-.892-.535-1.166-.356-.273-.864-.41-1.522-.41h-2.203zm43.135 0v6.379h2.29c.714 0 1.266-.156 1.653-.467.388-.31.58-.75.58-1.32 0-.433-.117-.793-.353-1.08-.234-.29-.564-.481-.988-.573.353-.057.622-.2.804-.431.183-.23.274-.542.274-.932 0-.504-.18-.892-.535-1.166-.356-.273-.864-.41-1.522-.41h-2.203zm-21.217.568c.37 0 .66.093.867.278.211.185.317.443.317.773s-.106.588-.317.774c-.208.185-.497.277-.867.277-.373 0-.665-.092-.873-.277-.205-.186-.306-.443-.306-.774 0-.33.101-.588.306-.773.208-.185.5-.278.873-.278zm5.57 0c.448 0 .782.218 1.004.657.225.435.338 1.093.338 1.97 0 .875-.113 1.53-.338 1.97-.222.435-.556.653-1.003.653-.445 0-.78-.218-1.004-.654-.223-.439-.334-1.094-.334-1.969 0-.877.111-1.535.334-1.97.225-.439.56-.657 1.004-.657zm-26.624.141h1.277c.421 0 .734.079.94.238.207.16.312.401.312.723 0 .325-.105.567-.313.727-.205.156-.518.234-.94.234h-1.276v-1.922zm43.134 0h1.278c.421 0 .734.079.94.238.207.16.312.401.312.723 0 .325-.105.567-.313.727-.205.156-.518.234-.94.234h-1.277v-1.922zm-33.394.77c-.687 0-1.225.221-1.615.666-.388.444-.58 1.06-.58 1.845 0 .784.192 1.399.58 1.846.39.444.928.666 1.615.666.683 0 1.22-.222 1.611-.666.39-.447.584-1.062.584-1.846 0-.786-.194-1.401-.584-1.845-.39-.445-.928-.666-1.611-.666zm-13.065.115v4.785h.785v-4.785h-.785zm43.135 0v4.785h.785v-4.785h-.785zm-30.07.55c.418 0 .75.167.996.5.245.331.367.78.367 1.346 0 .57-.122 1.02-.367 1.35-.245.33-.578.496-.996.496-.425 0-.76-.165-1.004-.492-.242-.33-.363-.781-.363-1.354 0-.572.122-1.022.367-1.35a1.18 1.18 0 0 1 1-.495zm-9.74 1.188h1.382c.465 0 .807.094 1.03.285.225.188.338.482.338.881 0 .396-.113.691-.338.885-.223.19-.565.285-1.03.285h-1.382v-2.336zm43.134 0h1.383c.464 0 .807.094 1.03.285.224.188.337.482.337.881 0 .396-.113.691-.338.885-.222.19-.565.285-1.029.285h-1.383v-2.336zm-22.08.018c.413 0 .735.108.969.328.236.22.355.522.355.906 0 .382-.119.684-.355.906-.236.22-.559.328-.969.328-.41 0-.734-.108-.97-.328-.234-.219-.35-.521-.35-.906 0-.384.116-.687.35-.906.236-.22.56-.328.97-.328zM19 169v1h216v-1H19zm183.99 24.229v.994h.785v-.994h-.785zm12.89 0c-.537 0-.931.122-1.179.367-.248.242-.37.63-.37 1.162v.334h-.753v.61h.752v4.175h.79v-4.176h1.294v-.61h-1.295v-.423c0-.296.054-.501.162-.615.111-.114.308-.17.59-.17h.752v-.654h-.742zm-23.288.154c-.715 0-1.262.283-1.64.85-.377.563-.565 1.384-.565 2.46 0 1.074.188 1.894.564 2.461.379.564.926.846 1.64.846.716 0 1.26-.282 1.636-.846.378-.567.568-1.387.568-2.46 0-1.077-.19-1.898-.568-2.462-.376-.566-.92-.85-1.635-.85zm6.463 0c-.997 0-1.776.29-2.34.875-.561.58-.842 1.393-.842 2.435 0 1.04.28 1.852.842 2.436.564.581 1.343.871 2.34.871.455 0 .885-.06 1.287-.18a3.78 3.78 0 0 0 1.101-.537v-2.74h-2.263v.709h1.41v1.715c-.191.11-.407.194-.647.248a3.92 3.92 0 0 1-.816.076c-.78 0-1.367-.218-1.76-.654-.39-.436-.584-1.083-.584-1.944 0-.863.194-1.513.584-1.949.393-.436.98-.652 1.76-.652.396 0 .774.068 1.133.205.359.137.698.34 1.017.611v-.92c-.316-.2-.663-.35-1.039-.453a4.449 4.449 0 0 0-1.183-.152zm-14.1.115v.725h3.065l-2.18 5.654h.902l2.317-6.012v-.367h-4.104zm20.496 0v6.379h2.29c.714 0 1.266-.156 1.654-.467.387-.31.582-.75.582-1.32 0-.433-.12-.793-.356-1.08-.233-.29-.562-.481-.986-.573.353-.057.62-.2.802-.431.183-.23.274-.542.274-.932 0-.504-.18-.892-.535-1.166-.356-.273-.862-.41-1.52-.41h-2.205zm-12.86.568c.448 0 .783.218 1.005.657.225.435.336 1.093.336 1.97 0 .875-.111 1.53-.336 1.97-.222.435-.557.653-1.004.653-.445 0-.781-.218-1.006-.654-.222-.439-.332-1.094-.332-1.969 0-.877.11-1.535.332-1.97.225-.439.561-.657 1.006-.657zm13.723.141h1.278c.421 0 .734.079.94.238.207.16.312.401.312.723 0 .325-.105.567-.313.727-.205.156-.518.234-.94.234h-1.277v-1.922zm13.334.768c-.378 0-.7.072-.964.214-.265.14-.482.354-.647.645v-.742h-.789v4.785h.79v-2.522c0-.54.118-.956.355-1.244.239-.29.58-.435 1.025-.435.125 0 .24.013.342.039.105.023.2.06.289.111l-.004-.808a2.683 2.683 0 0 0-.217-.03 1.333 1.333 0 0 0-.18-.013zm3.051.002c-.718 0-1.288.23-1.713.691-.421.459-.632 1.08-.632 1.863 0 .758.221 1.359.666 1.803.447.444 1.053.666 1.816.666.305 0 .604-.031.9-.094.297-.062.586-.153.868-.273v-.744c-.28.148-.561.26-.846.334a3.425 3.425 0 0 1-.875.111c-.521 0-.93-.142-1.223-.424-.29-.285-.452-.697-.486-1.238h3.615v-.385c0-.712-.188-1.274-.564-1.687-.374-.416-.882-.623-1.526-.623zm5.383 0c-.718 0-1.288.23-1.713.691-.421.459-.633 1.08-.633 1.863 0 .758.222 1.359.666 1.803.448.444 1.053.666 1.817.666.305 0 .606-.031.902-.094.296-.062.585-.153.867-.273v-.744c-.279.148-.56.26-.845.334a3.44 3.44 0 0 1-.877.111c-.522 0-.928-.142-1.221-.424-.29-.285-.454-.697-.488-1.238h3.615v-.385c0-.712-.189-1.274-.565-1.687-.373-.416-.881-.623-1.525-.623zm-25.092.115v4.785h.785v-4.785h-.785zm19.717.55c.387 0 .698.13.932.385.236.257.357.6.363 1.03l-2.803.004c.04-.45.191-.8.453-1.047.265-.248.616-.371 1.055-.371zm5.383 0c.387 0 .698.13.931.385.237.257.358.6.364 1.03l-2.803.004c.04-.45.191-.8.453-1.047.265-.248.616-.371 1.055-.371zm-21.776 1.188h1.385c.464 0 .807.094 1.03.285.225.188.337.482.337.881 0 .396-.112.691-.337.885-.223.19-.566.285-1.03.285h-1.385v-2.336zm-121.443 27.4v.994h.785v-.994h-.785zm18.238 0c-.538 0-.93.122-1.177.367-.248.242-.373.63-.373 1.162v.334h-.752v.61h.752v4.175h.79v-4.176h1.296v-.61h-1.295v-.423c0-.296.054-.501.162-.615.11-.114.308-.17.59-.17h.752v-.654h-.745zm30.467 0v.994h.787v-.994h-.787zm-67.654.154c-.254 0-.523.023-.81.068a8.414 8.414 0 0 0-.92.205v.768c.324-.108.623-.187.894-.238.27-.052.523-.078.76-.078.433 0 .765.089.996.265.233.174.35.425.35.752 0 .32-.113.564-.338.735-.226.168-.549.251-.973.251h-.78v.711h.745c.47 0 .835.107 1.097.32.265.211.399.504.399.88 0 .407-.143.718-.428.931-.282.214-.693.32-1.234.32-.31 0-.608-.036-.893-.107a2.993 2.993 0 0 1-.787-.314v.832c.302.105.593.183.875.234.285.054.562.082.83.082.798 0 1.413-.173 1.846-.517.433-.345.648-.832.648-1.461 0-.41-.116-.754-.35-1.034-.23-.279-.551-.462-.964-.55.373-.094.659-.264.861-.506.202-.245.305-.544.305-.897 0-.507-.19-.909-.572-1.205-.382-.299-.902-.447-1.557-.447zm5.764 0c-.715 0-1.262.283-1.641.85-.376.563-.563 1.384-.563 2.46 0 1.074.187 1.895.563 2.461.379.564.926.846 1.64.846.715 0 1.261-.282 1.637-.846.38-.566.569-1.387.569-2.46 0-1.077-.19-1.898-.569-2.462-.376-.566-.922-.85-1.636-.85zm9.25 0c-.997 0-1.776.291-2.34.875-.561.58-.842 1.393-.842 2.435 0 1.04.28 1.852.842 2.436.564.581 1.343.871 2.34.871.455 0 .885-.06 1.287-.18a3.78 3.78 0 0 0 1.101-.537v-2.74h-2.263v.709h1.41v1.715c-.191.11-.408.194-.647.248a3.92 3.92 0 0 1-.816.076c-.78 0-1.367-.218-1.76-.654-.39-.436-.584-1.083-.584-1.944 0-.863.194-1.513.584-1.949.393-.436.98-.652 1.76-.652.396 0 .774.068 1.133.205.359.137.698.34 1.017.611v-.92a3.845 3.845 0 0 0-1.039-.453 4.449 4.449 0 0 0-1.183-.152zm33.884 0c-.715 0-1.261.283-1.64.85-.376.563-.563 1.384-.563 2.46 0 1.074.187 1.895.563 2.461.379.564.925.846 1.64.846.715 0 1.261-.282 1.637-.846.379-.566.568-1.387.568-2.46 0-1.077-.19-1.898-.568-2.462-.376-.566-.922-.85-1.637-.85zm5.573 0c-.715 0-1.262.283-1.641.85-.376.563-.565 1.384-.565 2.46 0 1.074.189 1.895.565 2.461.379.564.926.846 1.64.846.715 0 1.261-.282 1.637-.846.38-.566.569-1.387.569-2.46 0-1.077-.19-1.898-.569-2.462-.376-.566-.922-.85-1.636-.85zm9.25 0c-.997 0-1.778.291-2.342.875-.561.58-.842 1.393-.842 2.435 0 1.04.28 1.852.842 2.436.564.581 1.345.871 2.342.871.455 0 .883-.06 1.285-.18.401-.122.77-.3 1.103-.537v-2.74h-2.265v.709h1.41v1.715a2.29 2.29 0 0 1-.645.248 3.92 3.92 0 0 1-.816.076c-.78 0-1.367-.218-1.76-.654-.39-.436-.586-1.083-.586-1.944 0-.863.196-1.513.586-1.949.393-.436.98-.652 1.76-.652.396 0 .774.068 1.133.205.359.137.696.34 1.015.611v-.92a3.81 3.81 0 0 0-1.037-.453 4.449 4.449 0 0 0-1.183-.152zm-42.311.115v6.379h2.29c.714 0 1.266-.156 1.653-.467.388-.31.58-.75.58-1.32 0-.433-.117-.792-.353-1.08-.234-.29-.562-.481-.986-.572.353-.057.62-.201.802-.432.183-.23.274-.542.274-.932 0-.504-.18-.892-.535-1.166-.356-.273-.862-.41-1.52-.41h-2.205zm21.623 0l-1.525.307v.787l1.533-.309v4.867h-1.41v.727h3.676v-.727h-1.41v-5.652h-.864zm27.082 0v6.379h2.291c.715 0 1.267-.156 1.654-.467.388-.31.58-.75.58-1.32 0-.433-.119-.792-.355-1.08-.234-.29-.562-.481-.986-.572.353-.057.62-.201.802-.432.183-.23.274-.542.274-.932 0-.504-.177-.892-.533-1.166-.356-.273-.864-.41-1.522-.41h-2.205zm-64.351.568c.447 0 .781.218 1.003.657.225.436.338 1.093.338 1.97 0 .875-.113 1.53-.338 1.97-.222.435-.556.653-1.003.653-.445 0-.78-.218-1.004-.654-.223-.438-.332-1.094-.332-1.969 0-.877.11-1.534.332-1.97.225-.439.56-.657 1.004-.657zm43.134 0c.447 0 .782.218 1.004.657.225.436.338 1.093.338 1.97 0 .875-.113 1.53-.338 1.97-.222.435-.557.653-1.004.653-.444 0-.779-.218-1.004-.654-.222-.438-.332-1.094-.332-1.969 0-.877.11-1.534.332-1.97.225-.439.56-.657 1.004-.657zm5.573 0c.447 0 .781.218 1.003.657.225.436.338 1.093.338 1.97 0 .875-.113 1.53-.338 1.97-.222.435-.556.653-1.003.653-.445 0-.78-.218-1.004-.654-.222-.438-.334-1.094-.334-1.969 0-.877.112-1.534.334-1.97.225-.439.56-.657 1.004-.657zm-32.198.141h1.278c.421 0 .734.079.94.238.207.16.312.401.312.723 0 .325-.105.567-.313.727-.205.156-.518.234-.94.234h-1.277v-1.922zm48.705 0h1.278c.421 0 .736.079.941.238.208.16.31.401.31.723 0 .325-.102.567-.31.727-.205.156-.52.234-.941.234H136.9v-1.922zm-38.964.77c-.687 0-1.225.221-1.616.666-.387.444-.58 1.06-.58 1.845 0 .784.193 1.399.58 1.846.39.444.93.666 1.616.666.683 0 1.22-.222 1.61-.666.391-.447.587-1.062.587-1.846 0-.786-.196-1.401-.586-1.845-.39-.445-.928-.666-1.611-.666zm-13.065.115v4.785h.785v-4.785h-.785zm48.705 0v4.785h.787v-4.785h-.787zm-35.64.55c.418 0 .75.167.996.5.245.331.367.78.367 1.346 0 .57-.122 1.02-.367 1.35-.245.33-.578.496-.996.496-.425 0-.76-.165-1.004-.492-.242-.33-.364-.781-.364-1.354 0-.572.123-1.022.368-1.35a1.18 1.18 0 0 1 1-.495zm-9.74 1.188h1.384c.464 0 .807.094 1.03.285.224.188.337.482.337.881 0 .396-.113.691-.338.885-.222.19-.565.285-1.029.285h-1.385v-2.336zm48.704 0h1.385c.464 0 .807.094 1.03.285.224.188.337.482.337.881 0 .396-.113.691-.338.885-.222.19-.565.285-1.029.285H136.9v-2.336z" id="path3501" class="ColorScheme-Text" opacity=".45" fill="currentColor" fill-opacity="1" stroke="none"/><rect id="rect6597" width="6.038" height="166" x="-65.038" y="65" ry="3" transform="rotate(-90)" class="ColorScheme-Text" opacity=".3" fill="currentColor" fill-opacity="1" stroke="none"/><rect ry="3" y="65" x="-65" height="110" width="6" id="rect6599" transform="rotate(-90)" class="ColorScheme-Highlight" fill="currentColor" fill-opacity="1" stroke="none"/><rect id="rect6597-7" width="6" height="166" x="-138" y="65" ry="3" transform="rotate(-90)" class="ColorScheme-Text" opacity=".3" fill="currentColor" fill-opacity="1" stroke="none"/><rect ry="3" y="65" x="-138" height="150" width="6" id="rect6599-9" transform="rotate(-90)" class="ColorScheme-Highlight" fill="currentColor" fill-opacity="1" stroke="none"/><rect id="rect6597-7-1" width="6" height="166" x="-214" y="65" ry="3" transform="rotate(-90)" class="ColorScheme-Text" opacity=".3" fill="currentColor" fill-opacity="1" stroke="none"/><rect ry="3" y="65" x="-214" height="55" width="6" id="rect6599-9-5" transform="rotate(-90)" class="ColorScheme-Highlight" fill="currentColor" fill-opacity="1" stroke="none"/><g id="quota" transform="matrix(1.5287 0 0 1.625 -476.933 -832.214)"><path id="rect4127" d="M328.992 537.362v16h10v-1h-9v-8h3v-.01l.008.01 2-2h8.992v3h1v-6H338l-2-2-.008.01v-.01h-6z" class="ColorScheme-Text" fill="currentColor"/><path id="path4203" transform="translate(326 534.362)" d="M17 12a3 1 0 0 0-3 1v5a3 1 0 0 0 3 1 3 1 0 0 0 3-1v-5a3 1 0 0 0-3-1zm0 1a3 1 0 0 1 2 .258v.486A3 1 0 0 1 17 14a3 1 0 0 1-2-.258v-.486A3 1 0 0 1 17 13zm-2 1.744A3 1 0 0 0 17 15a3 1 0 0 0 2-.256v1A3 1 0 0 1 17 16a3 1 0 0 1-2-.258v-.998zm0 2A3 1 0 0 0 17 17a3 1 0 0 0 2-.256v1A3 1 0 0 1 17 18a3 1 0 0 1-2-.258v-.998z" class="ColorScheme-Text" fill="currentColor"/></g><g transform="matrix(1.5287 0 0 1.625 -475.043 -759.214)" id="quota-missing"><path id="rect4127-2" d="M328.992 537.362v16h10v-1h-9v-8h3v-.01l.008.01 2-2h8.992v3h1v-6H338l-2-2-.008.01v-.01h-6z" class="ColorScheme-Text" fill="currentColor"/><path id="path4203-8" transform="translate(326 534.362)" d="M17 12a3 1 0 0 0-3 1v5a3 1 0 0 0 3 1 3 1 0 0 0 3-1v-5a3 1 0 0 0-3-1zm0 1a3 1 0 0 1 2 .258v.486A3 1 0 0 1 17 14a3 1 0 0 1-2-.258v-.486A3 1 0 0 1 17 13zm-2 1.744A3 1 0 0 0 17 15a3 1 0 0 0 2-.256v1A3 1 0 0 1 17 16a3 1 0 0 1-2-.258v-.998zm0 2A3 1 0 0 0 17 17a3 1 0 0 0 2-.256v1A3 1 0 0 1 17 18a3 1 0 0 1-2-.258v-.998z" class="ColorScheme-Text" fill="currentColor"/><path id="path4247" transform="translate(326 534.362)" d="M11 9a1 1 0 0 0-1 1c0 .552.448 4 1 4s1-3.448 1-4a1 1 0 0 0-1-1zm0 6a1 1 0 0 0-1 1 1 1 0 0 0 1 1 1 1 0 0 0 1-1 1 1 0 0 0-1-1z" fill="#f47750" fill-opacity="1" stroke="none"/></g><g transform="matrix(1.5287 0 0 1.625 -476.933 -683.214)" id="g3409"><path d="M328.992 537.362v16h10v-1h-9v-8h3v-.01l.008.01 2-2h8.992v3h1v-6H338l-2-2-.008.01v-.01h-6z" id="path3411" class="ColorScheme-Text" fill="currentColor"/><path d="M17 12a3 1 0 0 0-3 1v5a3 1 0 0 0 3 1 3 1 0 0 0 3-1v-5a3 1 0 0 0-3-1zm0 1a3 1 0 0 1 2 .258v.486A3 1 0 0 1 17 14a3 1 0 0 1-2-.258v-.486A3 1 0 0 1 17 13zm-2 1.744A3 1 0 0 0 17 15a3 1 0 0 0 2-.256v1A3 1 0 0 1 17 16a3 1 0 0 1-2-.258v-.998zm0 2A3 1 0 0 0 17 17a3 1 0 0 0 2-.256v1A3 1 0 0 1 17 18a3 1 0 0 1-2-.258v-.998z" transform="translate(326 534.362)" id="path3413" class="ColorScheme-Text" fill="currentColor"/></g><path style="line-height:125%" d="M68.752 43.541v6.647h.789v-2.704c0-.467.122-.836.367-1.107.245-.27.582-.406 1.006-.406.353 0 .616.113.793.338.177.225.266.564.266 1.017v2.861h.785v-2.886c0-.661-.14-1.161-.422-1.5-.282-.342-.698-.514-1.248-.514-.333 0-.629.073-.885.215a1.925 1.925 0 0 0-.662.644v-2.605h-.789zm93.394 0v2.588a1.614 1.614 0 0 0-.626-.633c-.251-.14-.554-.209-.907-.209-.578 0-1.05.232-1.414.693-.362.462-.543 1.069-.543 1.82 0 .753.181 1.358.543 1.82.365.46.836.693 1.414.693.353 0 .656-.069.907-.206.253-.14.461-.351.626-.636v.717h.788V43.54h-.788zm-33.37.152c-.716 0-1.262.285-1.641.852-.376.564-.565 1.384-.565 2.46 0 1.075.189 1.895.565 2.462.379.564.925.846 1.64.846.715 0 1.261-.282 1.637-.846.379-.567.568-1.387.568-2.461 0-1.077-.19-1.897-.568-2.461-.376-.567-.922-.852-1.637-.852zm4.742 0c-.45 0-.808.158-1.073.471-.265.313-.398.736-.398 1.266 0 .535.132.958.394 1.271.265.31.624.467 1.077.467.452 0 .81-.156 1.076-.467.267-.31.402-.733.402-1.271 0-.533-.135-.955-.402-1.266-.268-.313-.626-.47-1.076-.47zm3.857 0l-3.99 6.62h.683l3.99-6.62h-.683zm-70.152.116L65 51h.727l2.22-7.191h-.724zm27.77 0L92.77 51h.727l2.22-7.191h-.726zm26.148 0v.726h3.062l-2.178 5.653h.9l2.317-6.01v-.37h-4.101zm12.377.427c.245 0 .437.107.58.32.142.214.215.506.215.874 0 .376-.073.668-.215.879a.659.659 0 0 1-.58.316.662.662 0 0 1-.582-.316c-.14-.211-.21-.503-.21-.88 0-.37.07-.662.21-.872a.666.666 0 0 1 .582-.32zm-4.743.141c.448 0 .782.22 1.004.658.225.436.338 1.094.338 1.97 0 .875-.113 1.531-.338 1.97-.222.435-.556.654-1.004.654-.444 0-.778-.219-1.004-.654-.222-.439-.333-1.095-.333-1.97 0-.876.111-1.534.333-1.97.226-.438.56-.658 1.004-.658zm-52.586.91c-.686 0-1.225.224-1.615.668-.387.444-.58 1.06-.58 1.846 0 .783.193 1.398.58 1.845.39.445.929.667 1.615.667.684 0 1.222-.222 1.612-.667.39-.447.584-1.062.584-1.845 0-.786-.194-1.402-.584-1.846-.39-.444-.928-.668-1.612-.668zm5.793 0a1.8 1.8 0 0 0-.892.21c-.25.139-.465.356-.645.65v-.745h-.79v4.785h.79v-2.703c0-.464.117-.833.354-1.103.236-.274.555-.41.957-.41.339 0 .59.112.752.334.162.219.244.56.244 1.021v2.861h.791v-2.703c0-.467.117-.836.353-1.107.237-.27.56-.406.967-.406.334 0 .58.112.742.334.163.222.245.563.245 1.021v2.861h.79v-2.886c0-.644-.135-1.141-.406-1.489-.27-.35-.655-.525-1.154-.525-.37 0-.691.084-.965.252-.273.168-.508.43-.705.783-.117-.336-.298-.593-.543-.77-.242-.176-.537-.265-.885-.265zm8.235 0c-.718 0-1.29.232-1.715.693-.422.459-.63 1.079-.63 1.862 0 .757.22 1.36.665 1.804.447.445 1.053.667 1.817.667.304 0 .604-.032.9-.094.296-.063.585-.154.867-.274v-.744c-.279.148-.56.26-.846.334a3.427 3.427 0 0 1-.875.111c-.52 0-.929-.141-1.222-.423-.29-.285-.452-.697-.487-1.239h3.614V47.6c0-.712-.187-1.275-.563-1.688-.373-.416-.881-.625-1.525-.625zm13.41 0c-.587 0-1.038.122-1.357.367-.32.245-.479.593-.479 1.043 0 .37.108.664.324.877.217.211.568.366 1.055.469l.273.064c.487.106.803.215.946.329.145.113.216.278.216.492 0 .23-.099.41-.298.539-.2.125-.484.187-.854.187a3.29 3.29 0 0 1-.838-.111 4.351 4.351 0 0 1-.86-.342v.813c.308.1.602.172.878.22.279.052.546.079.803.079.615 0 1.096-.13 1.447-.39a1.24 1.24 0 0 0 .531-1.056c0-.39-.119-.693-.355-.91-.234-.22-.63-.388-1.188-.508l-.27-.058c-.421-.094-.702-.193-.841-.295a.512.512 0 0 1-.21-.432c0-.24.098-.42.292-.539.196-.12.488-.18.879-.18.256 0 .505.03.744.086.24.057.47.142.691.256v-.742a3.488 3.488 0 0 0-.709-.193 4.99 4.99 0 0 0-.82-.065zm5.047 0c-.718 0-1.29.232-1.715.693-.422.459-.63 1.079-.63 1.862 0 .757.22 1.36.665 1.804.447.445 1.053.667 1.817.667.304 0 .604-.032.9-.094.296-.063.585-.154.867-.274v-.744c-.279.148-.56.26-.846.334a3.427 3.427 0 0 1-.875.111c-.52 0-.929-.141-1.222-.423-.29-.285-.452-.697-.487-1.239h3.614V47.6c0-.712-.187-1.275-.563-1.688-.373-.416-.881-.625-1.525-.625zm5.75 0c-.379 0-.7.073-.965.215a1.6 1.6 0 0 0-.646.644v-.744h-.79v4.785h.79v-2.519c0-.541.119-.956.355-1.244.24-.29.581-.436 1.025-.436.126 0 .24.014.342.04.105.022.201.06.29.11l-.005-.808a2.403 2.403 0 0 0-.217-.03 1.42 1.42 0 0 0-.18-.013zm36.148 0c-.586 0-1.038.122-1.357.367-.32.245-.479.593-.479 1.043 0 .37.108.664.325.877.216.211.567.366 1.054.469l.274.064c.487.106.803.215.945.329.145.113.217.278.217.492 0 .23-.1.41-.299.539-.2.125-.483.187-.854.187a3.29 3.29 0 0 1-.837-.111 4.351 4.351 0 0 1-.86-.342v.813c.308.1.6.172.877.22a4.4 4.4 0 0 0 .803.079c.615 0 1.099-.13 1.45-.39a1.24 1.24 0 0 0 .528-1.056c0-.39-.119-.693-.355-.91-.234-.22-.63-.388-1.188-.508l-.27-.058c-.42-.094-.701-.193-.84-.295a.512.512 0 0 1-.21-.432c0-.24.097-.42.291-.539.197-.12.49-.18.881-.18.256 0 .503.03.742.086.24.057.471.142.694.256v-.742a3.508 3.508 0 0 0-.711-.193 4.99 4.99 0 0 0-.82-.065zm5.047 0c-.718 0-1.288.232-1.713.693-.421.459-.633 1.079-.633 1.862 0 .757.222 1.36.666 1.804.448.445 1.054.667 1.817.667.305 0 .604-.032.9-.094.296-.063.585-.154.867-.274v-.744c-.279.148-.56.26-.845.334a3.427 3.427 0 0 1-.875.111c-.522 0-.93-.141-1.223-.423-.29-.285-.452-.697-.486-1.239h3.615V47.6c0-.712-.189-1.275-.564-1.688-.374-.416-.882-.625-1.526-.625zm-59.148.115v2.899c0 .658.143 1.156.427 1.498.285.342.703.514 1.252.514.334 0 .625-.07.875-.21.254-.142.478-.36.668-.65v.734h.786v-4.785h-.786v2.713c0 .467-.125.837-.373 1.108-.245.27-.58.406-1.004.406-.353 0-.618-.113-.795-.338-.176-.228-.263-.569-.263-1.021v-2.868h-.787zm46.945 0v2.899c0 .658.143 1.156.428 1.498.285.342.702.514 1.252.514.333 0 .626-.07.877-.21.253-.142.475-.36.666-.65v.734h.785v-4.785h-.785v2.713c0 .467-.126.837-.373 1.108-.245.27-.58.406-1.004.406-.353 0-.619-.113-.795-.338-.177-.228-.264-.569-.264-1.021v-2.868h-.787zm-27.71.262v1.084h.901v-1.084h-.902zm45.099.281c.416 0 .745.166.984.496.24.328.357.782.357 1.36 0 .578-.118 1.03-.357 1.361-.24.328-.568.492-.984.492-.416 0-.743-.164-.983-.492-.236-.33-.353-.783-.353-1.361s.117-1.032.353-1.36c.24-.33.567-.496.983-.496zm-84.616.01c.42 0 .752.167.997.5.245.33.367.779.367 1.346 0 .57-.122 1.019-.367 1.35-.245.33-.578.496-.997.496-.424 0-.758-.165-1.003-.493-.243-.33-.364-.78-.364-1.353s.122-1.024.367-1.352a1.18 1.18 0 0 1 1-.494zm14.036 0c.387 0 .698.127.931.383.237.256.358.601.364 1.031l-2.803.004c.04-.45.19-.799.453-1.047.265-.248.616-.37 1.055-.37zm18.457 0c.387 0 .698.127.931.383.236.256.358.601.364 1.031l-2.803.004c.04-.45.19-.799.453-1.047.265-.248.616-.37 1.055-.37zm46.945 0c.387 0 .698.127.932.383.236.256.357.601.363 1.031l-2.803.004c.04-.45.191-.799.453-1.047.265-.248.616-.37 1.055-.37zm-17.701.883c-.453 0-.813.157-1.08.47-.265.311-.397.735-.397 1.27 0 .533.132.954.397 1.268.265.31.624.467 1.08.467.447 0 .803-.157 1.068-.467.268-.314.402-.735.402-1.268 0-.532-.133-.956-.398-1.27-.265-.313-.622-.47-1.072-.47zm0 .543c.242 0 .434.107.574.32.142.211.213.504.213.877 0 .37-.07.662-.213.875a.656.656 0 0 1-.574.317.668.668 0 0 1-.584-.317c-.14-.213-.21-.505-.21-.875 0-.376.07-.67.21-.88a.668.668 0 0 1 .584-.317zm-22.22 1.723v1.084h.901v-1.084h-.902zM68.751 116.54v6.647h.789v-2.704c0-.467.122-.836.367-1.107.245-.27.582-.406 1.006-.406.353 0 .616.113.793.338.177.225.266.564.266 1.017v2.862h.785V120.3c0-.661-.14-1.161-.422-1.5-.282-.342-.698-.514-1.248-.514-.333 0-.629.073-.885.215a1.925 1.925 0 0 0-.662.645v-2.606h-.789zm41.373 0v6.647h.791v-2.704c0-.467.122-.836.367-1.107.245-.27.58-.406 1.004-.406.353 0 .618.113.795.338.177.225.266.564.266 1.017v2.862h.785V120.3c0-.661-.14-1.161-.422-1.5-.282-.342-.698-.514-1.248-.514-.333 0-.629.073-.885.215a1.925 1.925 0 0 0-.662.645v-2.606h-.791zm5.584 0v.994h.787v-.994h-.787zm59.63 0v2.588a1.613 1.613 0 0 0-.626-.633c-.25-.14-.553-.209-.906-.209-.579 0-1.05.232-1.414.694-.362.46-.543 1.068-.543 1.82s.18 1.357.543 1.818c.364.462.835.694 1.414.694.353 0 .655-.069.906-.206.253-.14.462-.351.627-.636v.717h.787v-6.647h-.787zm-39.044.152c-.644 0-1.16.198-1.547.594-.387.396-.582.923-.582 1.578 0 .67.186 1.197.557 1.584.373.385.877.578 1.515.578.308 0 .589-.066.842-.197.254-.13.464-.32.629-.564-.043.78-.216 1.363-.518 1.748-.299.381-.733.572-1.302.572-.214 0-.432-.028-.655-.082a3.43 3.43 0 0 1-.658-.234v.787c.24.085.471.148.694.191.222.043.441.065.658.065.806 0 1.446-.3 1.922-.899.478-.6.718-1.403.718-2.408 0-1.077-.195-1.897-.586-2.461-.387-.567-.95-.852-1.687-.852zm5.674 0c-.715 0-1.262.285-1.64.852-.377.564-.565 1.384-.565 2.46 0 1.075.188 1.895.564 2.462.379.564.926.846 1.64.846.716 0 1.261-.282 1.637-.846.38-.567.569-1.387.569-2.461 0-1.077-.19-1.897-.569-2.461-.376-.567-.921-.852-1.636-.852zm4.742 0c-.45 0-.807.158-1.072.471-.265.313-.399.734-.399 1.264 0 .535.133.96.395 1.273.265.31.623.467 1.076.467.453 0 .811-.156 1.076-.467.268-.31.402-.735.402-1.273 0-.533-.134-.953-.402-1.264-.268-.313-.626-.47-1.076-.47zm3.857 0l-3.99 6.62h.684l3.99-6.62h-.684zm-83.345.116L65 124h.727l2.22-7.191h-.724zm27.77 0L92.77 124h.727l2.22-7.191h-.726zm51.718.427c.245 0 .438.107.58.32.142.214.215.504.215.872 0 .376-.073.67-.215.88a.659.659 0 0 1-.58.317.662.662 0 0 1-.582-.316c-.14-.211-.21-.505-.21-.881 0-.37.07-.66.21-.871a.666.666 0 0 1 .582-.32zm-10.416.14c.387 0 .693.136.918.403.228.265.342.628.342 1.086 0 .462-.114.823-.342 1.088-.225.265-.53.399-.918.399-.387 0-.696-.134-.924-.399-.225-.265-.336-.626-.336-1.088 0-.458.111-.82.336-1.086.228-.267.537-.402.924-.402zm5.674 0c.447 0 .781.22 1.004.66.225.435.338 1.093.338 1.97 0 .874-.113 1.53-.338 1.969-.223.435-.557.654-1.004.654-.445 0-.78-.219-1.004-.654-.222-.439-.334-1.095-.334-1.97 0-.876.112-1.534.334-1.97.225-.438.56-.658 1.004-.658zm-65.78.911c-.686 0-1.225.224-1.615.668-.387.444-.58 1.06-.58 1.846 0 .783.193 1.398.58 1.845.39.445.929.666 1.615.666.684 0 1.222-.221 1.612-.666.39-.447.584-1.062.584-1.845 0-.786-.194-1.402-.584-1.846-.39-.444-.928-.668-1.612-.668zm5.793 0a1.8 1.8 0 0 0-.892.21c-.25.139-.465.356-.645.65v-.745h-.79v4.785h.79v-2.703c0-.464.117-.833.354-1.103.236-.274.555-.41.957-.41.339 0 .59.112.752.334.162.219.244.56.244 1.021v2.861h.791v-2.703c0-.467.117-.836.353-1.107.237-.27.56-.406.967-.406.334 0 .58.112.742.334.163.222.245.563.245 1.021v2.861h.79V120.3c0-.644-.135-1.141-.406-1.489-.27-.35-.655-.525-1.154-.525-.37 0-.691.084-.965.252-.273.168-.508.43-.705.783-.117-.336-.298-.593-.543-.77-.242-.176-.537-.265-.885-.265zm8.235 0c-.718 0-1.29.232-1.715.693-.422.459-.63 1.079-.63 1.862 0 .757.22 1.36.665 1.804.447.445 1.053.666 1.817.666.304 0 .604-.03.9-.093.296-.063.585-.154.867-.274v-.744c-.279.148-.56.26-.846.334a3.43 3.43 0 0 1-.875.112c-.52 0-.929-.142-1.222-.424-.29-.285-.452-.697-.487-1.239h3.614v-.384c0-.712-.187-1.275-.563-1.688-.373-.416-.881-.625-1.525-.625zm8.013 0c-.256 0-.518.029-.789.086-.27.054-.55.137-.837.248v.727a3.172 3.172 0 0 1 1.546-.393c.43 0 .764.1 1 .299.24.196.358.474.358.836v.078h-1.102c-.715 0-1.253.137-1.615.41-.359.273-.537.678-.537 1.217 0 .461.142.83.43 1.107.29.274.682.41 1.171.41.388 0 .715-.068.983-.205.268-.14.49-.356.67-.646v.726h.787v-2.728c0-.73-.172-1.274-.514-1.633s-.858-.539-1.55-.539zm6.06 0c-.38 0-.7.073-.966.215a1.59 1.59 0 0 0-.644.644v-.744h-.791v4.785h.79v-2.519c0-.541.118-.956.354-1.244.24-.29.581-.436 1.026-.436a1.381 1.381 0 0 1 .632.15l-.004-.808a2.723 2.723 0 0 0-.218-.03 1.333 1.333 0 0 0-.18-.013zm3.11 0c-.746 0-1.335.225-1.765.672-.427.447-.64 1.061-.64 1.842 0 .769.211 1.379.636 1.832.424.453.996.68 1.717.68.265 0 .514-.027.748-.079.236-.05.464-.128.683-.23v-.727a3.128 3.128 0 0 1-.67.28c-.222.06-.448.09-.675.09-.51 0-.906-.163-1.188-.485-.282-.325-.422-.777-.422-1.361s.14-1.038.422-1.36c.282-.324.678-.486 1.188-.486.227 0 .453.031.675.094.225.06.448.15.67.273v-.736a3.075 3.075 0 0 0-.67-.22 3.256 3.256 0 0 0-.709-.079zm17.918 0c-.717 0-1.288.232-1.713.693-.421.459-.632 1.079-.632 1.862 0 .757.221 1.36.666 1.804.447.445 1.053.666 1.816.666.305 0 .606-.03.902-.093.297-.063.586-.154.868-.274v-.744c-.28.148-.561.26-.846.334a3.445 3.445 0 0 1-.877.112c-.521 0-.927-.142-1.22-.424-.291-.285-.455-.697-.489-1.239h3.615v-.384c0-.712-.188-1.275-.564-1.688-.373-.416-.882-.625-1.526-.625zm38.448 0c-.587 0-1.039.122-1.358.367-.319.245-.478.593-.478 1.043 0 .37.107.664.324.877.216.211.568.366 1.055.469l.273.064c.487.106.803.215.945.329.146.114.217.278.217.492 0 .23-.1.41-.299.539-.2.125-.483.187-.853.187-.276 0-.556-.037-.838-.111a4.351 4.351 0 0 1-.86-.342v.813c.308.1.601.172.877.22a4.4 4.4 0 0 0 .803.079c.615 0 1.1-.13 1.45-.39a1.24 1.24 0 0 0 .529-1.056c0-.39-.12-.693-.356-.91-.233-.22-.629-.388-1.187-.508l-.27-.058c-.421-.094-.702-.193-.842-.295a.511.511 0 0 1-.209-.432c0-.24.098-.42.291-.539.197-.12.491-.18.881-.18a3.094 3.094 0 0 1 1.436.342v-.742a3.512 3.512 0 0 0-.711-.193 4.993 4.993 0 0 0-.82-.065zm5.047 0c-.718 0-1.289.232-1.713.693-.422.459-.633 1.079-.633 1.862 0 .757.221 1.36.666 1.804.447.445 1.053.666 1.816.666.305 0 .604-.03.9-.093.297-.063.586-.154.868-.274v-.744c-.28.148-.561.26-.846.334a3.43 3.43 0 0 1-.875.112c-.521 0-.93-.142-1.223-.424-.29-.285-.452-.697-.486-1.239h3.615v-.384c0-.712-.188-1.275-.564-1.688-.373-.416-.882-.625-1.526-.625zm-53.104.115v4.785h.787v-4.785h-.787zm1.863 0l1.795 4.785h1.069l1.794-4.785h-.834l-1.496 4.018-1.494-4.018h-.834zm39.037 0v2.897c0 .658.143 1.158.428 1.5.285.342.702.513 1.252.513.333 0 .626-.069.877-.208.254-.143.475-.36.666-.65v.734h.785v-4.786h-.785v2.713c0 .467-.125.837-.373 1.108-.245.27-.58.406-1.004.406-.353 0-.618-.113-.795-.338-.176-.228-.264-.569-.264-1.021v-2.868h-.787zm-27.71.262v1.084h.902v-1.084h-.903zm45.099.281c.416 0 .745.166.984.496.24.328.358.782.358 1.36 0 .578-.118 1.03-.358 1.361a1.153 1.153 0 0 1-.984.492 1.15 1.15 0 0 1-.982-.492c-.237-.33-.354-.783-.354-1.361s.117-1.032.354-1.36c.239-.33.566-.496.982-.496zm-97.809.01c.42 0 .752.165.997.498.245.33.367.781.367 1.348 0 .57-.122 1.02-.367 1.35-.245.33-.578.496-.997.496-.424 0-.758-.165-1.003-.492-.243-.33-.364-.781-.364-1.354 0-.573.122-1.024.367-1.352a1.18 1.18 0 0 1 1-.494zm14.036 0c.387 0 .698.127.931.383.237.256.358.601.364 1.031l-2.803.004c.04-.45.19-.799.453-1.047.265-.247.616-.37 1.055-.37zm35.103 0c.387 0 .696.127.93.383.236.256.357.601.363 1.031l-2.803.004c.04-.45.191-.799.453-1.047.265-.247.618-.37 1.057-.37zm43.492 0c.388 0 .698.127.932.383.236.256.357.601.363 1.031l-2.803.004c.04-.45.192-.799.454-1.047.265-.247.616-.37 1.054-.37zm-17.7.883c-.454 0-.813.158-1.08.47-.266.311-.397.735-.397 1.27 0 .533.131.955.396 1.268.265.31.624.467 1.08.467.447 0 .804-.157 1.068-.467.268-.313.403-.735.403-1.268 0-.532-.134-.956-.399-1.27-.264-.312-.622-.47-1.072-.47zm0 .543c.241 0 .434.107.573.32.143.211.213.504.213.877 0 .37-.07.662-.213.875a.656.656 0 0 1-.574.317.668.668 0 0 1-.584-.317c-.14-.213-.209-.504-.209-.875 0-.376.07-.67.21-.88a.668.668 0 0 1 .583-.317zm-52.393.402h.78v.176c0 .513-.13.924-.396 1.235-.262.307-.61.46-1.047.46-.316 0-.566-.081-.752-.244-.182-.165-.273-.387-.273-.666 0-.35.122-.599.367-.744.245-.145.685-.217 1.32-.217zm30.171 1.32v1.085h.903v-1.084h-.903zM68.751 192.54v6.647h.789v-2.703c0-.468.122-.837.367-1.108.245-.27.582-.406 1.006-.406.353 0 .616.113.793.338.177.225.266.565.266 1.017v2.862h.785V196.3c0-.66-.14-1.161-.422-1.5-.282-.342-.698-.514-1.248-.514-.333 0-.629.073-.885.215a1.925 1.925 0 0 0-.662.645v-2.606h-.789zm32.334 0v6.647h.789v-2.703c0-.468.122-.837.367-1.108.245-.27.58-.406 1.004-.406.353 0 .618.113.795.338.177.225.266.565.266 1.017v2.862h.785V196.3c0-.66-.14-1.161-.422-1.5-.282-.342-.698-.514-1.248-.514-.333 0-.629.073-.885.215a1.925 1.925 0 0 0-.662.645v-2.606h-.79zm22.9 0v2.588a1.618 1.618 0 0 0-.629-.633c-.25-.14-.553-.209-.906-.209-.578 0-1.05.232-1.414.694-.362.461-.543 1.068-.543 1.82s.181 1.357.543 1.818c.365.462.836.694 1.414.694.353 0 .656-.069.906-.205.254-.14.464-.352.63-.637v.717h.784v-6.647h-.785zm49.047 0v2.588a1.614 1.614 0 0 0-.627-.633c-.25-.14-.553-.209-.906-.209-.578 0-1.05.232-1.414.694-.362.461-.543 1.068-.543 1.82s.181 1.357.543 1.818c.365.462.836.694 1.414.694.353 0 .656-.069.906-.205.254-.14.462-.352.627-.637v.717h.787v-6.647h-.787zm-39.135.153c-.253 0-.524.022-.812.068-.285.046-.59.114-.918.205v.77a6.91 6.91 0 0 1 .893-.239 4.11 4.11 0 0 1 .76-.078c.432 0 .765.09.995.266.234.174.35.424.35.752 0 .319-.113.563-.338.734-.225.168-.548.252-.973.252h-.777v.71h.742c.47 0 .836.106 1.098.32.265.21.398.504.398.88 0 .408-.142.718-.427.932-.282.214-.694.32-1.235.32-.31 0-.607-.036-.892-.107a2.997 2.997 0 0 1-.787-.317v.834c.302.106.595.183.877.235.284.054.56.082.828.082.797 0 1.412-.173 1.845-.518.433-.344.65-.831.65-1.46 0-.41-.117-.755-.35-1.034-.231-.28-.553-.464-.966-.553.373-.094.661-.261.864-.504a1.36 1.36 0 0 0 .302-.896c0-.507-.19-.909-.572-1.205-.382-.3-.9-.45-1.555-.45zm5.764 0c-.715 0-1.262.284-1.64.851-.376.564-.565 1.384-.565 2.461 0 1.074.189 1.894.564 2.461.38.564.926.846 1.641.846s1.259-.282 1.635-.846c.379-.567.568-1.387.568-2.46 0-1.078-.19-1.898-.568-2.462-.376-.567-.92-.851-1.635-.851zm4.742 0c-.45 0-.807.157-1.072.47-.265.314-.398.734-.398 1.264 0 .535.13.96.392 1.273.265.31.625.467 1.078.467.453 0 .812-.156 1.076-.467.268-.31.403-.735.403-1.273 0-.533-.135-.953-.403-1.264-.267-.313-.626-.47-1.076-.47zm3.858 0l-3.99 6.619h.683l3.99-6.62h-.683zm-81.04.115L65 200h.727l2.22-7.191h-.724zm27.77 0L92.772 200h.726l2.22-7.191h-.726zm49.412.427c.245 0 .438.107.58.32.143.214.215.504.215.872 0 .376-.072.67-.215.88a.659.659 0 0 1-.58.317.662.662 0 0 1-.582-.316c-.14-.211-.209-.505-.209-.881 0-.37.07-.66.21-.871a.666.666 0 0 1 .581-.32zm-4.742.141c.447 0 .782.22 1.004.658.225.436.336 1.094.336 1.97 0 .875-.111 1.531-.336 1.97-.222.435-.557.654-1.004.654-.444 0-.779-.219-1.004-.654-.222-.439-.334-1.095-.334-1.97 0-.876.112-1.534.334-1.97.225-.438.56-.658 1.004-.658zm-63.473.91c-.686 0-1.225.224-1.615.668-.387.444-.58 1.06-.58 1.846 0 .783.193 1.398.58 1.845.39.445.929.667 1.615.667.684 0 1.222-.222 1.612-.667.39-.447.584-1.062.584-1.845 0-.786-.194-1.402-.584-1.846-.39-.444-.928-.668-1.612-.668zm5.793 0a1.8 1.8 0 0 0-.892.21c-.25.139-.465.356-.645.65v-.745h-.79v4.786h.79v-2.704c0-.464.117-.833.354-1.103.236-.274.555-.41.957-.41.339 0 .59.112.752.334.162.219.244.56.244 1.021v2.861h.791v-2.703c0-.467.117-.836.353-1.107.237-.27.56-.406.967-.406.334 0 .58.112.742.334.163.222.245.563.245 1.021v2.861h.79V196.3c0-.644-.135-1.141-.406-1.488-.27-.35-.655-.526-1.154-.526-.37 0-.691.084-.965.252-.273.168-.508.43-.705.783-.117-.336-.298-.593-.543-.77-.242-.176-.537-.265-.885-.265zm8.235 0c-.718 0-1.29.232-1.715.693-.422.459-.63 1.079-.63 1.862 0 .757.22 1.36.665 1.804.447.445 1.053.667 1.817.667.304 0 .604-.032.9-.094.296-.063.585-.154.867-.274v-.744c-.279.148-.56.26-.846.334a3.43 3.43 0 0 1-.875.112c-.52 0-.929-.142-1.222-.424-.29-.285-.452-.697-.487-1.239h3.614v-.384c0-.712-.187-1.275-.563-1.688-.373-.416-.881-.625-1.525-.625zm7.855 0c-.586 0-1.038.122-1.357.367-.32.245-.479.593-.479 1.043 0 .37.108.664.325.877.216.211.567.366 1.054.469l.274.064c.487.106.803.217.945.33.145.114.217.277.217.49 0 .231-.1.412-.299.54-.2.125-.483.187-.854.187-.276 0-.555-.037-.837-.111a4.351 4.351 0 0 1-.86-.342v.813c.308.1.6.172.877.22.28.052.547.078.803.078.615 0 1.099-.13 1.45-.388.352-.26.528-.613.528-1.057 0-.39-.119-.692-.355-.908-.234-.22-.63-.39-1.188-.51l-.27-.058c-.42-.094-.701-.193-.84-.295a.512.512 0 0 1-.21-.432c0-.24.097-.42.291-.54.197-.119.49-.179.881-.179.256 0 .503.03.742.086.24.057.471.142.694.256v-.742a3.512 3.512 0 0 0-.711-.194 4.993 4.993 0 0 0-.82-.064zm10.276 0c-.257 0-.519.03-.79.086-.27.054-.55.137-.837.248v.727a3.172 3.172 0 0 1 1.547-.393c.43 0 .763.1 1 .299.239.196.357.474.357.836v.078h-1.102c-.714 0-1.253.137-1.615.41-.359.274-.537.679-.537 1.217 0 .461.144.831.432 1.107.29.274.68.41 1.17.41.387 0 .714-.068.982-.205.268-.14.49-.356.67-.646v.726h.787v-2.728c0-.73-.172-1.274-.514-1.633-.341-.359-.858-.539-1.55-.539zm6.058 0c-.379 0-.7.073-.965.215-.264.14-.479.354-.644.644v-.744h-.791v4.786h.79v-2.52c0-.541.118-.956.354-1.244.24-.29.581-.436 1.026-.436.125 0 .239.014.342.04.105.022.202.06.29.11l-.003-.808a2.723 2.723 0 0 0-.22-.03 1.333 1.333 0 0 0-.179-.013zm3.051 0c-.718 0-1.288.232-1.713.693-.421.459-.633 1.079-.633 1.862 0 .757.222 1.36.666 1.804.448.445 1.053.667 1.817.667.305 0 .606-.032.902-.094.296-.063.585-.154.867-.274v-.744c-.279.148-.56.26-.845.334a3.445 3.445 0 0 1-.877.112c-.522 0-.928-.142-1.221-.424-.29-.285-.454-.697-.488-1.239h3.615v-.384c0-.712-.189-1.275-.565-1.688-.373-.416-.881-.625-1.525-.625zm44.002 0c-.587 0-1.038.122-1.357.367-.32.245-.479.593-.479 1.043 0 .37.108.664.324.877.217.211.568.366 1.055.469l.273.064c.487.106.803.217.946.33.145.114.216.277.216.49a.608.608 0 0 1-.298.54c-.2.125-.484.187-.854.187-.276 0-.556-.037-.838-.111a4.351 4.351 0 0 1-.86-.342v.813c.309.1.602.172.878.22.279.052.546.078.803.078.615 0 1.097-.13 1.447-.388.353-.26.531-.613.531-1.057 0-.39-.119-.692-.355-.908-.234-.22-.63-.39-1.188-.51l-.27-.058c-.421-.094-.702-.193-.841-.295a.511.511 0 0 1-.21-.432c0-.24.098-.42.292-.54.196-.119.489-.179.879-.179.256 0 .505.03.744.086.24.057.47.142.691.256v-.742a3.492 3.492 0 0 0-.709-.194 4.993 4.993 0 0 0-.82-.064zm5.047 0c-.718 0-1.29.232-1.715.693-.422.459-.63 1.079-.63 1.862 0 .757.22 1.36.665 1.804.447.445 1.053.667 1.817.667.304 0 .604-.032.9-.094.296-.063.585-.154.867-.274v-.744c-.279.148-.56.26-.846.334a3.43 3.43 0 0 1-.875.112c-.52 0-.929-.142-1.222-.424-.29-.285-.452-.697-.487-1.239h3.614v-.384c0-.712-.187-1.275-.563-1.688-.373-.416-.881-.625-1.525-.625zm-12.203.115v2.897c0 .658.143 1.158.427 1.5.285.342.703.514 1.252.514.334 0 .625-.07.875-.21a1.94 1.94 0 0 0 .666-.65v.735h.788v-4.786h-.788v2.713c0 .467-.123.837-.37 1.108-.246.27-.58.406-1.005.406-.353 0-.618-.113-.794-.338-.177-.228-.264-.569-.264-1.021v-2.868h-.787zm-27.711.262v1.084h.902v-1.084h-.902zm-3.947.281c.415 0 .743.166.982.496.24.328.36.782.36 1.36 0 .578-.12 1.03-.36 1.361-.24.328-.567.492-.982.492-.416 0-.744-.164-.983-.492-.236-.33-.355-.783-.355-1.361s.119-1.032.355-1.36c.24-.33.567-.496.983-.496zm49.046 0c.416 0 .744.166.983.496.24.328.36.782.36 1.36 0 .578-.12 1.03-.36 1.361-.24.328-.567.492-.983.492a1.15 1.15 0 0 1-.982-.492c-.236-.33-.354-.783-.354-1.361s.118-1.032.354-1.36c.24-.33.567-.496.982-.496zm-95.502.01c.42 0 .752.165.997.498.245.33.367.781.367 1.348 0 .57-.122 1.02-.367 1.35-.245.33-.578.496-.997.496-.424 0-.758-.165-1.003-.492-.243-.33-.364-.781-.364-1.354 0-.572.122-1.024.367-1.352a1.18 1.18 0 0 1 1-.494zm14.036 0c.387 0 .698.127.931.383.237.256.358.601.364 1.031l-2.803.004c.04-.45.19-.799.453-1.047.265-.247.616-.37 1.055-.37zm27.24 0c.387 0 .698.127.931.383.237.256.358.601.364 1.031l-2.803.004c.04-.45.191-.799.453-1.047.265-.247.616-.37 1.055-.37zm49.049 0c.387 0 .698.127.931.383.236.256.358.601.364 1.031l-2.803.004c.04-.45.19-.799.453-1.047.265-.247.616-.37 1.055-.37zm-17.702.883c-.452 0-.812.158-1.08.47-.264.311-.398.735-.398 1.27 0 .533.134.955.398 1.268.265.31.625.467 1.08.467.448 0 .804-.157 1.069-.467.268-.313.402-.735.402-1.268 0-.532-.133-.956-.398-1.27-.265-.312-.622-.47-1.072-.47zm0 .543a.65.65 0 0 1 .573.32c.142.211.215.504.215.877 0 .37-.073.662-.215.875a.653.653 0 0 1-.572.317.668.668 0 0 1-.584-.317c-.14-.213-.211-.504-.211-.875 0-.376.071-.67.21-.88a.668.668 0 0 1 .584-.317zm-39.968.402h.781v.176c0 .513-.132.924-.396 1.235-.263.307-.612.46-1.047.46-.317 0-.567-.081-.752-.244-.183-.165-.274-.386-.274-.666 0-.35.122-.598.367-.744.245-.145.686-.217 1.32-.217zm17.748 1.32v1.085h.902v-1.084h-.902z" id="path4475" class="ColorScheme-Text" font-style="normal" font-weight="400" font-size="8.75" font-family="sans-serif" letter-spacing="0" word-spacing="0" fill="currentColor" fill-opacity="1" stroke="none" stroke-width="1" stroke-linecap="butt" stroke-linejoin="miter" stroke-opacity="1"/></svg>