<svg xmlns="http://www.w3.org/2000/svg" viewBox="0 0 256 256" id="svg2" version="1.1"><defs id="defs4"><style id="current-color-scheme" type="text/css">.ColorScheme-Text{color:#4d4d4d}.ColorScheme-Background{color:#eff0f1}</style></defs><path d="M16 10h224c3.324 0 6 2.676 6 6v224c0 3.324-2.676 6-6 6H16c-3.324 0-6-2.676-6-6V16c0-3.324 2.676-6 6-6z" id="rect4240" fill="currentColor" fill-opacity=".5" stroke="none" color="#31363b"/><path d="M16 12h224c2.216 0 4 1.784 4 4v224c0 2.216-1.784 4-4 4H16c-2.216 0-4-1.784-4-4V16c0-2.216 1.784-4 4-4z" class="ColorScheme-Background" id="rect4238" fill="currentColor" fill-opacity="1" stroke="none"/><path class="ColorScheme-Text" d="M103.527 26.639l-1.316.095v2.61l.062 1.912a3.32 3.32 0 0 0-.404-.594 2.557 2.557 0 0 0-.508-.469 2.118 2.118 0 0 0-.722-.334 3.731 3.731 0 0 0-.952-.109c-1.11 0-1.991.396-2.642 1.19-.645.793-.969 1.831-.969 3.117 0 1.354.313 2.431.938 3.23.63.794 1.523 1.19 2.681 1.19 1.201 0 2.075-.548 2.62-1.643l.119 1.484h1.093v-11.68zm36.65 0l-1.318.095v11.584h1.31v-4.593c0-.312.021-.604.063-.873.048-.27.13-.537.247-.801a2.18 2.18 0 0 1 .453-.676c.185-.19.426-.34.722-.451a2.87 2.87 0 0 1 1.04-.176c.629 0 1.075.199 1.34.596.269.391.404 1.003.404 1.834v5.14h1.318v-5.19c0-1.078-.244-1.912-.73-2.5-.487-.586-1.187-.878-2.102-.878-.598 0-1.138.115-1.62.348a3.001 3.001 0 0 0-1.173.992l.047-1.643V26.64zm-117.939.095v11.584h4.317c1.338 0 2.346-.288 3.023-.865.682-.582 1.024-1.383 1.024-2.404 0-.735-.202-1.34-.604-1.817-.397-.48-.962-.827-1.697-1.039.672-.259 1.145-.6 1.42-1.023.28-.429.42-.961.42-1.596 0-.968-.349-1.682-1.047-2.142-.693-.466-1.768-.698-3.223-.698h-3.633zm87.344 0v11.584h4.316c1.339 0 2.347-.288 3.024-.865.682-.582 1.023-1.383 1.023-2.404 0-.735-.201-1.34-.603-1.817-.397-.48-.962-.827-1.697-1.039.671-.259 1.144-.6 1.42-1.023.28-.429.42-.961.42-1.596 0-.968-.35-1.682-1.047-2.142-.693-.466-1.768-.698-3.223-.698h-3.633zm17.035 0a.865.865 0 0 0-.627.239.798.798 0 0 0-.238.601c0 .249.08.453.238.612a.865.865 0 0 0 .627.238.86.86 0 0 0 .62-.238.814.814 0 0 0 .245-.612.784.784 0 0 0-.246-.601.838.838 0 0 0-.619-.239zm-83.892.889l-1.055.078-.215 2.223-1.293.088-.031.744h1.293v5.047c0 .513.045.928.135 1.246.09.317.251.579.484.785.238.206.544.35.92.43.375.079.868.119 1.476.119h.547l.065-.906-.668-.032c-.704-.026-1.155-.136-1.356-.332-.2-.2-.302-.638-.302-1.31v-5.047h2.222v-.832h-2.222v-2.301zm5.84 0l-1.055.078-.215 2.223-1.293.088-.031.744h1.293v5.047c0 .513.045.928.134 1.246.09.317.252.579.485.785.238.206.544.35.92.43.375.079.868.119 1.476.119h.547l.065-.906-.668-.032c-.704-.026-1.155-.136-1.356-.332-.2-.2-.303-.638-.303-1.31v-5.047h2.223v-.832h-2.223v-2.301zm101.085 0l-1.054.078-.215 2.223-1.293.088-.031.744h1.293v5.047c0 .513.044.928.134 1.246.09.317.252.579.485.785.238.206.544.35.92.43.375.079.868.119 1.476.119h.547l.065-.906-.666-.032c-.704-.026-1.157-.136-1.358-.332-.2-.2-.303-.638-.303-1.31v-5.047h2.223v-.832h-2.223v-2.301zm-126.015.158h2.228c1.042 0 1.794.14 2.254.42.46.28.692.793.692 1.54 0 .74-.212 1.26-.635 1.556-.423.29-1.043.435-1.858.435h-2.681v-3.95zm87.344 0h2.228c1.042 0 1.794.14 2.254.42.46.28.691.793.691 1.54 0 .74-.211 1.26-.634 1.556-.424.29-1.043.435-1.858.435h-2.681v-3.95zM35.63 29.75c-1.122 0-2.13.207-3.03.625l.356.969a5.67 5.67 0 0 1 1.318-.428c.492-.106.953-.16 1.381-.16.635 0 1.096.151 1.387.453.296.301.445.76.445 1.373v.824h-1.342c-1.348 0-2.332.214-2.95.643-.614.423-.92 1.09-.92 2 0 .762.231 1.357.697 1.785.47.428 1.093.643 1.865.643 1.153 0 2.09-.441 2.808-1.325l.143 1.159h1v-5.54c0-1.068-.274-1.837-.824-2.308-.545-.476-1.324-.713-2.334-.713zm20.297 0c-1.111 0-2.025.399-2.744 1.197-.72.799-1.08 1.87-1.08 3.213 0 1.328.368 2.38 1.103 3.158.735.773 1.692 1.159 2.871 1.159 1.058 0 2.004-.247 2.834-.739l-.277-.927a8.074 8.074 0 0 1-1.207.5c-.36.11-.758.166-1.198.166-.809 0-1.466-.257-1.968-.77-.503-.518-.774-1.31-.817-2.379h5.672l.049-.668c0-1.227-.279-2.183-.834-2.87-.55-.694-1.352-1.04-2.404-1.04zm26.168 0c-1.122 0-2.13.207-3.03.625l.356.969a5.67 5.67 0 0 1 1.318-.428c.492-.106.953-.16 1.381-.16.635 0 1.096.151 1.387.453.296.301.445.76.445 1.373v.824H82.61c-1.349 0-2.332.214-2.95.643-.614.423-.92 1.09-.92 2 0 .762.231 1.357.697 1.785.47.428 1.092.643 1.865.643 1.153 0 2.089-.441 2.808-1.325l.143 1.159h1v-5.54c0-1.068-.274-1.837-.824-2.308-.545-.476-1.324-.713-2.334-.713zm9.402 0c-1.264 0-2.213.443-2.848 1.332l-.142-1.158h-1.143v8.394h1.317v-4.681c0-1.92.863-2.881 2.588-2.881.64 0 1.085.194 1.34.58.253.38.38.949.38 1.705v5.277h1.319v-5.132c0-1.154-.232-2.015-.692-2.58-.455-.572-1.162-.856-2.119-.856zm41.523 0c-.624 0-1.178.115-1.66.348a2.934 2.934 0 0 0-1.158.953c-.29.407-.51.87-.658 1.388a6.014 6.014 0 0 0-.223 1.674c0 .53.072 1.032.215 1.508.148.476.362.91.643 1.3.28.392.656.704 1.127.936.476.233 1.013.35 1.611.35.619 0 1.147-.124 1.586-.373.444-.249.788-.59 1.031-1.023l.024.984v.23c0 1.053-.217 1.812-.65 2.278-.43.465-1.092.697-1.991.697-.661 0-1.477-.114-2.445-.342l-.102 1.112c.952.216 1.801.326 2.547.326 1.37 0 2.353-.376 2.951-1.127.603-.746.904-1.851.904-3.317v-7.728h-1.197l-.08 1.205c-.502-.92-1.327-1.379-2.475-1.379zm24.78 0c-1.264 0-2.215.443-2.85 1.332l-.142-1.158h-1.143v8.394h1.318v-4.681c0-1.92.862-2.881 2.586-2.881.64 0 1.086.194 1.34.58.254.38.381.949.381 1.705v5.277h1.318v-5.132c0-1.154-.23-2.015-.691-2.58-.455-.572-1.16-.856-2.117-.856zm8.29 0c-1.11 0-2.026.399-2.745 1.197-.72.799-1.078 1.87-1.078 3.213 0 1.328.368 2.38 1.103 3.158.735.773 1.692 1.159 2.871 1.159 1.058 0 2.004-.247 2.834-.739l-.28-.927a8.06 8.06 0 0 1-1.204.5c-.36.11-.76.166-1.2.166-.809 0-1.464-.257-1.966-.77-.503-.518-.776-1.31-.819-2.379h5.674l.047-.668c0-1.227-.276-2.183-.832-2.87-.55-.694-1.352-1.04-2.404-1.04zm7.602 0c-.878 0-1.56.212-2.047.635-.486.418-.73.968-.73 1.65 0 .55.14.999.42 1.348.28.344.8.637 1.557.88l.92.294c.608.195 1.028.404 1.261.627.233.222.348.498.348.826 0 .476-.14.84-.42 1.094-.28.248-.674.373-1.182.373-.809 0-1.717-.24-2.722-.721v1.101c.867.413 1.743.62 2.627.62a3.98 3.98 0 0 0 1.095-.143c.339-.095.64-.237.905-.428.27-.19.481-.444.634-.761a2.56 2.56 0 0 0 .23-1.112c0-.338-.031-.624-.095-.857a1.76 1.76 0 0 0-.35-.666 2.161 2.161 0 0 0-.705-.54 6.8 6.8 0 0 0-1.15-.46l-.834-.262c-.545-.175-.901-.339-1.07-.492-.17-.154-.254-.402-.254-.746 0-.408.13-.716.389-.928.264-.217.7-.326 1.308-.326.683 0 1.39.186 2.12.556l.308-.976a5.712 5.712 0 0 0-2.563-.586zm7.078 0c-.878 0-1.562.212-2.048.635-.487.418-.729.968-.729 1.65 0 .55.14.999.42 1.348.28.344.798.637 1.555.88l.922.294c.608.195 1.027.404 1.26.627.232.222.349.498.349.826 0 .476-.14.84-.42 1.094-.28.248-.674.373-1.182.373-.809 0-1.717-.24-2.722-.721v1.101c.867.413 1.743.62 2.627.62.396 0 .76-.048 1.093-.143.339-.095.642-.237.907-.428.27-.19.481-.444.635-.761a2.56 2.56 0 0 0 .228-1.112c0-.338-.03-.624-.094-.857a1.76 1.76 0 0 0-.35-.666 2.17 2.17 0 0 0-.706-.54 6.8 6.8 0 0 0-1.15-.46l-.833-.262c-.545-.175-.903-.339-1.072-.492-.17-.154-.254-.402-.254-.746 0-.408.13-.716.389-.928.264-.217.702-.326 1.31-.326.683 0 1.388.186 2.117.556l.311-.976a5.712 5.712 0 0 0-2.563-.586zm-115.957.086a2.71 2.71 0 0 0-1.45.43c-.456.28-.842.72-1.159 1.324l-.142-1.666h-1.057v8.394h1.318v-4.752c0-.745.232-1.378.697-1.896.471-.518 1.066-.777 1.786-.777.148 0 .327.02.539.062l.056-1.078a3.551 3.551 0 0 0-.588-.041zm58.94 0c-.508 0-.993.144-1.453.43-.455.28-.841.72-1.158 1.324L121 29.924h-1.055v8.394h1.317v-4.752c0-.745.231-1.378.697-1.896.47-.518 1.066-.777 1.785-.777.148 0 .33.02.541.062l.055-1.078a3.525 3.525 0 0 0-.586-.041zm-57.512.088l3.326 8.14-1.238 3.159 1.182.254 4.42-11.553H72.6l-2.397 6.705-2.619-6.705h-1.342zm59.717 0v8.394h1.3v-8.394h-1.3zm-69.998.832c1.333 0 2.03.906 2.094 2.715h-4.57c.073-.836.332-1.498.777-1.985.45-.486 1.017-.73 1.699-.73zm43.916 0c.783 0 1.373.291 1.77.873.402.582.603 1.443.603 2.58-.005 1.042-.197 1.846-.578 2.412-.381.566-1.003.848-1.865.848-.82 0-1.425-.302-1.817-.905-.386-.603-.58-1.43-.58-2.482 0-1.058.207-1.877.62-2.453.412-.582 1.027-.873 1.847-.873zm33.207 0c1.603 0 2.404.99 2.404 2.969v.705c0 .38-.042.731-.127 1.049-.084.317-.219.61-.404.88-.18.265-.431.47-.754.618-.323.148-.703.222-1.142.222-.445 0-.83-.09-1.159-.27a1.906 1.906 0 0 1-.746-.73 3.688 3.688 0 0 1-.38-1 5.264 5.264 0 0 1-.12-1.15c0-.434.04-.835.12-1.205.084-.376.214-.724.388-1.047.18-.323.431-.577.754-.762.328-.185.716-.28 1.166-.28zm33.04 0c1.332 0 2.031.906 2.095 2.715h-4.57c.073-.836.332-1.498.777-1.985.45-.486 1.015-.73 1.697-.73zm-142.49 1.969h2.27c1.143 0 1.98.174 2.508.523.53.35.793.94.793 1.77 0 .782-.231 1.35-.691 1.705-.455.354-1.182.533-2.182.533h-2.697v-4.531zm87.345 0h2.27c1.142 0 1.976.174 2.505.523.529.35.795.94.795 1.77 0 .782-.231 1.35-.692 1.705-.454.354-1.181.533-2.181.533h-2.697v-4.531zM36.48 34.279h1.008v1.85c-.63.926-1.486 1.389-2.57 1.389-.397 0-.728-.127-.992-.381-.265-.254-.397-.615-.397-1.08 0-.26.023-.476.07-.65a1.235 1.235 0 0 1 .788-.85c.222-.09.504-.158.847-.205.344-.048.76-.073 1.246-.073zm46.465 0h1.008v1.85c-.63.926-1.486 1.389-2.57 1.389-.397 0-.728-.127-.992-.381-.265-.254-.397-.615-.397-1.08 0-.26.023-.476.07-.65a1.235 1.235 0 0 1 .788-.85c.222-.09.503-.158.847-.205.344-.048.76-.073 1.246-.073zM205.18 65.287c-.878 0-1.59.22-2.14.658-.551.439-.827 1.032-.827 1.78 0 .573.17 1.066.51 1.482.344.416.79.714 1.336.893-.658.228-1.166.569-1.524 1.021-.353.448-.531 1-.531 1.658 0 .546.146 1.018.437 1.416.296.399.679.693 1.149.881.47.188.997.281 1.584.281.908 0 1.662-.225 2.262-.677.6-.452.9-1.086.9-1.9 0-.623-.184-1.177-.55-1.665a2.895 2.895 0 0 0-1.477-1.027c.56-.202 1-.502 1.322-.9.327-.403.49-.89.49-1.463 0-.752-.272-1.346-.818-1.78-.542-.438-1.25-.658-2.123-.658zm8.111 0c-.716 0-1.325.212-1.826.637-.501.42-.875 1.008-1.121 1.76-.242.747-.364 1.636-.364 2.666 0 .743.066 1.418.196 2.027.134.604.33 1.137.59 1.598.264.456.61.81 1.035 1.066.43.25.926.377 1.49.377.56 0 1.05-.126 1.47-.377a2.76 2.76 0 0 0 1.014-1.074 5.62 5.62 0 0 0 .57-1.598 9.968 9.968 0 0 0 .188-2.02 9.78 9.78 0 0 0-.201-2.081c-.134-.618-.334-1.15-.598-1.592a2.726 2.726 0 0 0-1.013-1.028c-.412-.241-.888-.36-1.43-.36zm-118.396.053l-1.116.082v9.8h1.11v-3.886c0-.264.017-.51.052-.738.04-.229.111-.454.21-.678.098-.224.226-.416.382-.572a1.64 1.64 0 0 1 .612-.383c.255-.099.547-.147.878-.147.533 0 .911.169 1.135.504.228.331.342.848.342 1.551v4.35h1.115v-4.391c0-.913-.207-1.618-.619-2.115-.412-.497-1.003-.744-1.777-.744a3.11 3.11 0 0 0-1.371.295 2.537 2.537 0 0 0-.993.84l.04-1.391V65.34zm-25.89.082v9.8h3.653c1.133 0 1.986-.242 2.559-.73.577-.492.865-1.171.865-2.035 0-.622-.17-1.134-.51-1.537-.335-.407-.815-.7-1.437-.879.568-.22.97-.51 1.203-.867.237-.363.355-.813.355-1.35 0-.819-.296-1.423-.886-1.812-.587-.394-1.494-.59-2.725-.59h-3.076zm14.415 0a.729.729 0 0 0-.53.201.676.676 0 0 0-.2.51.7.7 0 0 0 .2.517.729.729 0 0 0 .53.202c.21 0 .387-.067.525-.202a.688.688 0 0 0 .207-.517c0-.21-.068-.38-.207-.51a.712.712 0 0 0-.525-.201zm145.393 0l-5.573 9.8h.887l5.506-9.8h-.82zm-5.68.006c-.72 0-1.28.232-1.678.697-.398.461-.598 1.059-.598 1.793 0 .739.196 1.341.59 1.807.394.465.956.697 1.686.697.725 0 1.287-.232 1.685-.697.399-.47.598-1.073.598-1.807 0-.747-.198-1.348-.592-1.805-.39-.456-.953-.685-1.691-.685zm.008.625c.501 0 .875.166 1.12.502.252.33.376.784.376 1.357 0 .56-.124 1.014-.375 1.363-.246.345-.62.516-1.121.516s-.878-.17-1.13-.51c-.25-.34-.374-.796-.374-1.369 0-.56.124-1.01.375-1.35.25-.34.628-.51 1.129-.51zm-17.967.06c.568 0 1.023.145 1.363.436.34.286.51.67.51 1.148 0 .528-.157.968-.47 1.317-.314.349-.78.59-1.403.724-.618-.138-1.088-.38-1.41-.724-.318-.35-.477-.789-.477-1.317 0-.474.173-.857.518-1.148.349-.291.805-.436 1.369-.436zm-102.264.06l-.892.067-.182 1.88-1.094.073-.027.631h1.096v4.272c0 .434.037.784.113 1.052.076.269.213.492.41.666.202.175.462.295.78.362.317.067.733.101 1.248.101h.462l.055-.765-.564-.028c-.596-.022-.979-.115-1.149-.28-.17-.17-.256-.54-.256-1.108v-4.272h1.881v-.705h-1.88v-1.945zm110.381.02c1.424 0 2.135 1.372 2.135 4.116 0 1.383-.185 2.43-.557 3.142-.367.707-.893 1.06-1.578 1.06-.694 0-1.235-.356-1.625-1.068-.385-.716-.578-1.759-.578-3.129-.004-1.31.19-2.324.584-3.04.394-.721.934-1.08 1.62-1.08zm-143.103.114h1.886c.882 0 1.517.118 1.907.355.39.237.584.672.584 1.303 0 .627-.18 1.066-.537 1.316-.359.246-.881.37-1.57.37h-2.27v-3.344zm18.652 1.666c-.528 0-.997.098-1.404.295a2.484 2.484 0 0 0-.98.806 3.79 3.79 0 0 0-.557 1.174 5.087 5.087 0 0 0-.188 1.416c0 .448.059.875.18 1.277.125.403.308.769.545 1.1.237.331.555.596.953.793.403.197.857.295 1.363.295.524 0 .97-.104 1.342-.315.376-.21.667-.5.873-.867l.021.832v.196c0 .89-.183 1.534-.55 1.927-.363.394-.925.59-1.686.59-.56 0-1.25-.096-2.068-.289l-.088.942c.806.183 1.525.275 2.156.275 1.16 0 1.992-.32 2.498-.955.51-.631.764-1.565.764-2.805v-6.54H91l-.066 1.02c-.425-.778-1.123-1.167-2.094-1.167zm20.967 0c-1.07 0-1.873.375-2.41 1.127l-.121-.98h-.967v7.103h1.113v-3.961c0-1.625.73-2.438 2.19-2.438.541 0 .92.164 1.134.49.215.323.323.804.323 1.444v4.465h1.115v-4.344c0-.976-.195-1.703-.584-2.182-.385-.483-.983-.724-1.793-.724zm7.015 0c-.94 0-1.713.338-2.322 1.013-.609.676-.914 1.582-.914 2.72 0 1.123.312 2.013.934 2.671.622.653 1.431.98 2.43.98.895 0 1.693-.208 2.396-.625l-.234-.785c-.376.188-.716.33-1.02.424-.304.094-.642.14-1.014.14-.684 0-1.24-.217-1.666-.652-.425-.438-.655-1.11-.691-2.013h4.8l.04-.565c0-1.038-.233-1.848-.703-2.43-.466-.586-1.145-.878-2.036-.878zm6.432 0c-.743 0-1.32.179-1.732.537-.412.353-.618.819-.618 1.396 0 .466.119.846.356 1.14.237.292.676.541 1.316.747l.78.248c.514.166.87.341 1.066.53a.93.93 0 0 1 .297.699c0 .402-.12.71-.357.925-.238.21-.57.317-1 .317-.685 0-1.453-.204-2.303-.612v.934a5.13 5.13 0 0 0 2.222.523c.336 0 .644-.04.926-.12.287-.081.542-.2.766-.362.228-.161.407-.376.537-.644.13-.274.195-.588.195-.942a2.79 2.79 0 0 0-.08-.725 1.494 1.494 0 0 0-.297-.564 1.832 1.832 0 0 0-.597-.455 5.74 5.74 0 0 0-.973-.39l-.705-.221c-.461-.148-.763-.287-.906-.416-.144-.13-.215-.342-.215-.633 0-.345.109-.606.328-.785.224-.184.595-.276 1.11-.276.577 0 1.173.158 1.79.471l.262-.826a4.832 4.832 0 0 0-2.168-.496zm5.988 0c-.743 0-1.318.179-1.73.537-.412.353-.62.819-.62 1.396 0 .466.119.846.356 1.14.237.292.677.541 1.317.747l.779.248c.515.166.871.341 1.068.53a.928.928 0 0 1 .295.699c0 .402-.118.71-.355.925-.237.21-.573.317-1.002.317-.685 0-1.453-.204-2.303-.612v.934a5.13 5.13 0 0 0 2.223.523c.335 0 .645-.04.927-.12.287-.081.54-.2.764-.362.228-.161.407-.376.537-.644.13-.274.196-.588.196-.942 0-.286-.027-.528-.08-.725a1.49 1.49 0 0 0-.295-.564 1.832 1.832 0 0 0-.598-.455 5.768 5.768 0 0 0-.975-.39l-.705-.221c-.46-.148-.763-.287-.906-.416-.143-.13-.215-.342-.215-.633 0-.345.11-.606.33-.785.224-.184.593-.276 1.108-.276.577 0 1.175.158 1.793.471l.261-.826a4.84 4.84 0 0 0-2.17-.496zm-48.246.074c-.43 0-.839.12-1.228.361-.385.237-.71.611-.979 1.121l-.12-1.41h-.895v7.104h1.115V71.2c0-.63.198-1.165.592-1.603.398-.439.9-.659 1.51-.659.125 0 .277.017.456.053l.047-.912a3.034 3.034 0 0 0-.498-.033zm1.867.072v7.104h1.102v-7.104h-1.102zm6.03.705c1.356 0 2.035.838 2.035 2.512v.598c0 .322-.036.618-.107.886a2.398 2.398 0 0 1-.344.744 1.51 1.51 0 0 1-.637.524 2.3 2.3 0 0 1-.967.19c-.376 0-.703-.077-.98-.23a1.614 1.614 0 0 1-.631-.618 3.118 3.118 0 0 1-.322-.846 4.443 4.443 0 0 1-.102-.973c0-.367.035-.708.102-1.021.071-.318.18-.612.328-.885a1.66 1.66 0 0 1 .638-.644c.278-.157.606-.237.987-.237zm27.957 0c1.128 0 1.718.766 1.771 2.297h-3.867c.063-.707.282-1.266.658-1.678.38-.411.86-.619 1.438-.619zm112.904 1.405c-.72 0-1.281.231-1.68.697-.398.465-.597 1.067-.597 1.8 0 .74.198 1.34.592 1.805.393.466.956.7 1.685.7.725 0 1.285-.234 1.684-.7.398-.47.597-1.07.597-1.804 0-.748-.196-1.35-.59-1.807-.389-.461-.952-.691-1.69-.691zm-159.566.261h1.92c.966 0 1.673.148 2.12.444.448.295.673.793.673 1.496 0 .662-.195 1.143-.584 1.443-.385.3-1 .451-1.846.451h-2.283V70.49zm134.986.033c.631.135 1.139.39 1.523.766.39.376.584.837.584 1.383 0 1.217-.702 1.826-2.107 1.826-.69 0-1.217-.159-1.584-.476-.363-.318-.545-.767-.545-1.344 0-.564.195-1.03.584-1.397.39-.367.905-.619 1.545-.758zm24.586.336c.501 0 .875.169 1.121.504.25.332.377.783.377 1.356 0 .56-.126 1.014-.377 1.363-.246.35-.62.524-1.121.524s-.878-.17-1.129-.51c-.25-.345-.375-.804-.375-1.377 0-.56.124-1.01.375-1.35.25-.34.628-.51 1.129-.51zM69.006 156.422v9.8h3.652c1.133 0 1.986-.242 2.559-.73.577-.492.865-1.171.865-2.035 0-.622-.17-1.134-.51-1.537-.335-.407-.815-.7-1.437-.879.568-.22.97-.51 1.203-.867.237-.363.356-.813.356-1.35 0-.819-.296-1.423-.887-1.812-.587-.394-1.494-.59-2.725-.59h-3.076zm136.86 0l-2.21 3.248c-.264.38-.468.687-.61.92a9.964 9.964 0 0 0-.444.812c-.152.31-.26.616-.323.92-.062.3-.093.622-.093.967 0 .403.07.787.209 1.154.139.367.338.694.597.98.26.283.59.509.993.679.402.17.851.255 1.343.255.94 0 1.698-.29 2.276-.873.582-.586.873-1.312.873-2.175 0-.846-.291-1.544-.873-2.094a2.89 2.89 0 0 0-2.067-.826c-.496 0-.96.126-1.39.377.273-.367.508-.698.705-.989l2.283-3.355h-1.27zm5.015 0l-.19 5.19.901.107c.206-.22.466-.394.78-.524.313-.13.635-.195.966-.195.452 0 .83.101 1.135.303.304.197.52.45.65.763.13.31.196.665.196 1.063 0 .725-.201 1.289-.604 1.691-.398.399-.934.598-1.605.598-.752 0-1.56-.245-2.424-.732l-.383.867c.971.541 1.932.81 2.88.81.462 0 .888-.068 1.282-.207a3.06 3.06 0 0 0 1.035-.603c.3-.269.532-.611.697-1.028.17-.42.256-.894.256-1.418 0-.55-.112-1.047-.336-1.49a2.568 2.568 0 0 0-1.007-1.08c-.452-.277-.985-.416-1.598-.416-.671 0-1.27.176-1.793.53l.107-3.344h4.123l.088-.885h-5.156zm17.932 0l-5.573 9.8h.887l5.506-9.8h-.82zm-5.68.006c-.72 0-1.28.232-1.678.697-.398.461-.597 1.06-.597 1.793 0 .739.196 1.341.59 1.807.393.465.955.697 1.685.697.725 0 1.287-.232 1.686-.697.398-.47.597-1.073.597-1.807 0-.747-.198-1.348-.592-1.805-.389-.456-.952-.685-1.691-.685zm.008.625c.501 0 .875.166 1.121.502.25.331.375.784.375 1.357 0 .56-.124 1.014-.375 1.364-.246.344-.62.515-1.121.515s-.878-.17-1.129-.51c-.25-.34-.375-.796-.375-1.369 0-.56.124-1.01.375-1.35.25-.34.628-.51 1.129-.51zm-136.799.121l-.892.066-.182 1.88-1.096.074-.025.63h1.094v4.272c0 .434.037.784.113 1.053.076.268.213.491.41.666.201.174.462.294.78.36.317.068.733.103 1.247.103h.463l.055-.766-.564-.027c-.596-.023-.979-.116-1.149-.282-.17-.17-.254-.539-.254-1.107v-4.272h1.88v-.705h-1.88v-1.945zm4.942 0l-.893.066-.182 1.88-1.095.074-.026.63h1.094v4.272c0 .434.037.784.113 1.053.076.268.214.491.41.666a1.7 1.7 0 0 0 .78.36c.318.068.733.103 1.248.103h.463l.054-.766-.564-.027c-.595-.023-.978-.116-1.149-.282-.17-.17-.253-.539-.253-1.107v-4.272h1.878v-.705h-1.878v-1.945zm-21.096.133h1.887c.881 0 1.516.118 1.906.355.39.238.584.672.584 1.303 0 .627-.18 1.066-.537 1.316-.358.247-.881.37-1.57.37h-2.27v-3.344zm10.152 1.666c-.949 0-1.805.176-2.566.53l.303.82a4.796 4.796 0 0 1 1.115-.364c.416-.09.805-.135 1.168-.135.537 0 .93.128 1.176.383.25.255.375.643.375 1.162v.698h-1.135c-1.142 0-1.975.182-2.498.545-.52.358-.778.921-.778 1.69 0 .645.196 1.15.59 1.513.399.362.925.543 1.578.543.976 0 1.769-.374 2.377-1.121l.121.98h.846v-4.688c0-.904-.234-1.554-.7-1.953-.46-.402-1.117-.603-1.972-.603zm17.174 0c-.94 0-1.715.338-2.324 1.014-.609.675-.912 1.581-.912 2.718 0 1.124.311 2.014.933 2.672.622.654 1.432.98 2.43.98.895 0 1.694-.208 2.396-.624l-.234-.786a6.86 6.86 0 0 1-1.021.424c-.305.094-.643.14-1.014.14-.685 0-1.239-.217-1.664-.651-.425-.44-.656-1.11-.692-2.014h4.801l.04-.565c0-1.038-.236-1.847-.706-2.43-.465-.586-1.142-.878-2.033-.878zm7.52.074c-.43 0-.84.12-1.229.361-.385.238-.712.611-.98 1.121l-.121-1.41h-.893v7.104h1.113V162.2c0-.63.198-1.165.592-1.603.398-.439.901-.658 1.51-.658.125 0 .278.017.457.052l.047-.912a3.009 3.009 0 0 0-.496-.033zm1.207.072l2.814 6.889-1.047 2.672 1 .215 3.738-9.776h-1.126l-2.028 5.674-2.217-5.674h-1.134zm-8.702.705c1.128 0 1.72.767 1.774 2.297h-3.867c.062-.707.282-1.266.658-1.677a1.87 1.87 0 0 1 1.435-.62zm132.215 1.405c-.72 0-1.281.232-1.68.697-.398.465-.597 1.067-.597 1.8 0 .74.198 1.34.592 1.805.394.466.956.7 1.685.7.725 0 1.286-.234 1.684-.7.398-.47.598-1.07.598-1.804 0-.748-.196-1.35-.59-1.807-.39-.46-.953-.691-1.692-.691zm-24.412.027c.64 0 1.142.191 1.504.576.367.38.55.876.55 1.485 0 .604-.186 1.116-.558 1.537-.371.416-.883.625-1.537.625-.649 0-1.152-.204-1.51-.612-.358-.407-.537-.912-.537-1.511 0-.305.044-.578.133-.825.09-.246.206-.445.35-.597a1.92 1.92 0 0 1 .49-.39c.188-.108.373-.181.557-.222.188-.044.375-.066.558-.066zm-135.154.234h1.92c.967 0 1.673.148 2.12.444.448.295.673.793.673 1.496 0 .662-.195 1.143-.584 1.443-.385.3-1 .451-1.846.451h-2.283v-3.834zm159.572.37c.501 0 .875.168 1.121.503.25.332.377.783.377 1.356 0 .56-.126 1.014-.377 1.363-.246.35-.62.524-1.12.524-.502 0-.88-.17-1.13-.51-.25-.345-.375-.804-.375-1.377 0-.56.125-1.01.375-1.35.25-.34.628-.51 1.13-.51zm-148.703.947h.854v1.564c-.533.784-1.259 1.174-2.176 1.174a1.16 1.16 0 0 1-.838-.322c-.224-.215-.336-.518-.336-.912 0-.22.02-.403.06-.551a1.042 1.042 0 0 1 .665-.719c.188-.076.427-.133.718-.174.291-.04.641-.06 1.053-.06z" id="path18039" fill="currentColor" fill-opacity="1" stroke="none"/><path class="ColorScheme-Text" d="M20 50v1h216v-1zm48.133 43.518v9.802h1.181v-4.74h2.122c1.105 0 1.912-.224 2.418-.672.505-.452.757-1.117.757-1.994 0-.43-.077-.802-.234-1.115a1.775 1.775 0 0 0-.664-.752 3.176 3.176 0 0 0-.994-.402 5.672 5.672 0 0 0-1.262-.127zm41.445 0l-.195 9.802h1.115l.094-6.05v-2.317l3.088 7.272h1.013l3.11-7.19v2.21l.093 6.075h1.102l-.195-9.802h-1.41l-3.19 7.445-3.176-7.445h-1.449zm75.793.752l-.892.066-.182 1.88-1.094.073-.027.633h1.094v4.27c0 .434.039.786.115 1.054.076.269.211.49.408.664.201.175.462.294.78.362.317.067.733.101 1.247.101h.465l.053-.766-.565-.027c-.595-.022-.978-.115-1.148-.281-.17-.17-.254-.54-.254-1.108v-4.27h1.879v-.704h-1.879V94.27zm-116.057.134h2.135c.645 0 1.135.115 1.47.348.341.228.51.62.51 1.176 0 .644-.153 1.096-.462 1.355-.305.26-.823.39-1.557.39h-2.096zm9.655 1.664c-1.043 0-1.862.342-2.457 1.022-.591.676-.885 1.57-.885 2.685 0 1.088.299 1.974.898 2.659.6.68 1.414 1.02 2.444 1.02 1.007 0 1.818-.343 2.431-1.028.614-.69.92-1.572.92-2.65 0-1.115-.296-2.01-.886-2.686-.591-.68-1.413-1.022-2.465-1.022zm17.94 0c-.94 0-1.714.338-2.323 1.014-.609.676-.912 1.582-.912 2.719 0 1.123.31 2.014.931 2.672.623.653 1.434.98 2.432.98.895 0 1.694-.207 2.397-.623l-.235-.787a6.86 6.86 0 0 1-1.021.424c-.305.094-.642.14-1.014.14-.685 0-1.239-.216-1.664-.65-.425-.439-.658-1.111-.693-2.016h4.8l.041-.562c0-1.039-.235-1.85-.705-2.432-.465-.586-1.144-.879-2.035-.879zm26.626 0c-.949 0-1.803.178-2.564.532l.302.818a4.796 4.796 0 0 1 1.116-.363c.416-.09.805-.133 1.168-.133.537 0 .927.128 1.173.383.251.255.377.64.377 1.16v.7h-1.134c-1.142 0-1.975.18-2.498.542-.52.358-.78.922-.78 1.691 0 .645.198 1.15.592 1.512.398.363.925.543 1.578.543.976 0 1.768-.373 2.377-1.121l.12.98h.847v-4.685c0-.904-.234-1.557-.7-1.955-.46-.403-1.119-.604-1.974-.604zm7.957 0c-1.07 0-1.873.377-2.41 1.13l-.121-.981h-.967v7.103h1.115v-3.963c0-1.624.729-2.435 2.188-2.435.541 0 .92.163 1.135.49.214.322.322.803.322 1.443v4.465h1.115v-4.345c0-.976-.194-1.703-.584-2.182-.385-.483-.983-.725-1.793-.725zm6.707 0c-.949 0-1.803.178-2.564.532l.303.818a4.78 4.78 0 0 1 1.113-.363c.416-.09.805-.133 1.168-.133.537 0 .93.128 1.176.383.25.255.375.64.375 1.16v.7h-1.135c-1.142 0-1.973.18-2.496.542-.52.358-.78.922-.78 1.691 0 .645.196 1.15.59 1.512.399.363.925.543 1.578.543.976 0 1.769-.373 2.377-1.121l.121.98h.846v-4.685c0-.904-.232-1.557-.697-1.955-.461-.403-1.12-.604-1.975-.604zm7.319 0c-.529 0-.997.098-1.405.295a2.478 2.478 0 0 0-.978.807 3.794 3.794 0 0 0-.559 1.174 5.101 5.101 0 0 0-.187 1.418c0 .447.06.872.181 1.275.126.403.306.77.543 1.102.237.33.555.594.953.79.403.198.858.296 1.364.296.523 0 .972-.104 1.343-.315.376-.21.668-.5.873-.867l.02.834v.193c0 .891-.184 1.534-.55 1.928-.363.394-.925.59-1.686.59-.56 0-1.25-.095-2.069-.287l-.086.94c.806.183 1.524.275 2.155.275 1.159 0 1.992-.318 2.498-.953.51-.632.765-1.567.765-2.807v-6.54h-1.013l-.069 1.02c-.425-.778-1.122-1.168-2.093-1.168zm7.841 0c-.94 0-1.715.338-2.324 1.014-.609.676-.912 1.582-.912 2.719 0 1.123.311 2.014.934 2.672.622.653 1.431.98 2.43.98.895 0 1.693-.207 2.396-.623l-.235-.787a6.81 6.81 0 0 1-1.02.424c-.303.094-.643.14-1.015.14-.685 0-1.239-.216-1.664-.65-.425-.439-.655-1.111-.691-2.016h4.8l.04-.562c0-1.039-.235-1.85-.705-2.432-.466-.586-1.143-.879-2.034-.879zm7.473 0c-.909 0-1.639.399-2.19 1.196l-.126-1.047h-.9v7.103h1.114v-4.332c.094-.622.3-1.12.618-1.496.322-.38.756-.57 1.302-.57.497 0 .836.185 1.02.557.183.367.275.985.275 1.853v3.988h1.116v-3.646c.013-.618.038-.987.074-1.108.12-.532.35-.94.685-1.222a1.73 1.73 0 0 1 1.147-.422c.192 0 .36.028.504.086a.73.73 0 0 1 .35.256c.089.116.16.234.214.355.054.116.091.27.113.463.023.192.037.356.041.49.01.13.014.303.014.518v4.23h1.113v-4.58c0-1.781-.723-2.672-2.173-2.672-1.03 0-1.812.481-2.344 1.444-.166-.452-.4-.806-.705-1.06-.305-.256-.725-.384-1.262-.384zm11.139 0c-.94 0-1.716.338-2.325 1.014-.608.676-.912 1.582-.912 2.719 0 1.123.312 2.014.934 2.672.622.653 1.432.98 2.43.98.895 0 1.693-.207 2.396-.623l-.234-.787c-.376.188-.717.33-1.022.424-.304.094-.642.14-1.013.14-.685 0-1.24-.216-1.664-.65-.426-.439-.656-1.111-.692-2.016h4.799l.041-.562c0-1.039-.235-1.85-.705-2.432-.466-.586-1.143-.879-2.033-.879zm7.754 0c-1.07 0-1.873.377-2.41 1.13l-.122-.981h-.966v7.103h1.115v-3.963c0-1.624.728-2.435 2.187-2.435.542 0 .92.163 1.135.49.215.322.322.803.322 1.443v4.465h1.116v-4.345c0-.976-.195-1.703-.584-2.182-.385-.483-.983-.725-1.793-.725zm-75.297.075c-.43 0-.84.12-1.229.36-.385.238-.712.614-.98 1.124l-.12-1.41h-.894v7.103h1.115v-4.023c0-.631.196-1.165.59-1.604.399-.438.903-.658 1.512-.658.125 0 .278.019.457.055l.047-.914a3.034 3.034 0 0 0-.498-.033zm-21.471.074l1.994 7.103h1.06l1.868-6.123 1.975 6.123h.986l1.914-7.103h-1.022l-1.416 5.719-1.853-5.72h-1.188l-1.746 5.741-1.517-5.74zm-3.988.705c.73 0 1.28.261 1.652.785.372.52.557 1.212.557 2.08 0 .555-.077 1.04-.229 1.457a2.115 2.115 0 0 1-.738.994c-.336.246-.75.37-1.242.37-.716 0-1.261-.26-1.637-.78-.376-.52-.564-1.2-.564-2.047 0-.864.188-1.555.564-2.074.376-.524.92-.785 1.637-.785zm17.967 0c1.127 0 1.72.764 1.773 2.295h-3.867c.062-.707.28-1.266.656-1.678.38-.412.86-.617 1.438-.617zm48.634 0c1.357 0 2.035.836 2.035 2.51v.597c0 .323-.035.618-.107.887a2.393 2.393 0 0 1-.342.744 1.52 1.52 0 0 1-.638.526 2.3 2.3 0 0 1-.967.187c-.376 0-.703-.076-.98-.229a1.61 1.61 0 0 1-.632-.617 3.118 3.118 0 0 1-.322-.845 4.464 4.464 0 0 1-.101-.975c0-.367.034-.706.101-1.02.072-.317.183-.613.33-.886.152-.273.364-.488.637-.645.277-.156.606-.234.986-.234zm7.817 0c1.128 0 1.717.764 1.771 2.295h-3.867c.063-.707.282-1.266.658-1.678.38-.412.86-.617 1.438-.617zm18.61 0c1.127 0 1.719.764 1.773 2.295h-3.868c.063-.707.283-1.266.659-1.678.38-.412.858-.617 1.435-.617zm-47.743 2.98h.853v1.565c-.532.783-1.258 1.174-2.175 1.174-.336 0-.616-.108-.84-.323-.224-.215-.334-.518-.334-.912 0-.22.018-.403.058-.55a1.051 1.051 0 0 1 .666-.719c.188-.076.428-.134.72-.174.29-.04.64-.06 1.052-.06zm14.664 0h.852v1.565c-.533.783-1.257 1.174-2.174 1.174-.336 0-.616-.108-.84-.323-.224-.215-.336-.518-.336-.912 0-.22.02-.403.06-.55a1.042 1.042 0 0 1 .665-.72 3.11 3.11 0 0 1 .718-.173c.291-.04.643-.06 1.055-.06zM20 142v1h216v-1zm208.357 48.287c-.5 0-.996.073-1.484.22-.488.144-.882.326-1.182.546l.329.851c.308-.201.66-.365 1.054-.49a3.864 3.864 0 0 1 1.162-.187c.17 0 .334.015.49.046.157.027.32.083.49.168.17.081.315.187.436.317.121.125.223.296.303.515.08.22.121.474.121.76 0 .264-.028.506-.082.725a2.236 2.236 0 0 1-.281.664 6.095 6.095 0 0 1-.37.55 18.2 18.2 0 0 1-.53.64l-3.163 3.732.176.879h5.242l.06-.805h-4.222l2.633-3.082c.318-.372.564-.677.738-.914.18-.237.343-.49.49-.764a2.89 2.89 0 0 0 .31-.82c.057-.269.085-.572.085-.912 0-.39-.057-.74-.174-1.049a2.126 2.126 0 0 0-.457-.758 2.36 2.36 0 0 0-.658-.482c-.25-.13-.501-.22-.752-.27-.246-.053-.5-.08-.764-.08zm-97.355.053l-1.102.082v7.767c0 .426.05.779.149 1.06.098.278.251.49.457.638.206.147.438.252.697.31.264.054.591.08.98.08h.532l.058-.765-.3-.02c-.193-.013-.344-.026-.452-.035a6.62 6.62 0 0 1-.347-.053 1.028 1.028 0 0 1-.276-.093 1.655 1.655 0 0 1-.181-.149.484.484 0 0 1-.135-.22 3.496 3.496 0 0 1-.06-.31 3.81 3.81 0 0 1-.02-.423v-7.87zm4.27 0l-1.1.082v7.767c0 .426.048.779.146 1.06.099.278.251.49.457.638.206.147.438.252.698.31.264.054.59.08.98.08h.531l.06-.765-.302-.02c-.192-.013-.342-.026-.45-.035a6.679 6.679 0 0 1-.349-.053 1.028 1.028 0 0 1-.275-.093 1.655 1.655 0 0 1-.182-.149.484.484 0 0 1-.134-.22 3.51 3.51 0 0 1-.06-.31 3.756 3.756 0 0 1-.02-.423v-7.87zm-67.14.082v.898h2.915v8.903h1.182v-8.903h2.933v-.898zm8.925 0a.733.733 0 0 0-.532.201.676.676 0 0 0-.2.51.7.7 0 0 0 .2.517.733.733 0 0 0 .532.201c.21 0 .384-.066.523-.2a.688.688 0 0 0 .207-.518c0-.21-.068-.38-.207-.51a.708.708 0 0 0-.523-.201zm23.652 0v.898h2.914v8.903h1.182v-8.903h2.933v-.898zm18.785 0v9.8h1.201v-4.49h3.975v-.859h-3.975v-3.545h4.272l.066-.906zm7.701 0a.733.733 0 0 0-.53.201.676.676 0 0 0-.202.51.7.7 0 0 0 .201.517.733.733 0 0 0 .531.201c.21 0 .385-.066.524-.2a.69.69 0 0 0 .209-.518c0-.21-.07-.38-.21-.51a.708.708 0 0 0-.523-.201zm81.444 0c-.233.16-.584.322-1.05.488-.46.161-.859.277-1.194.344v.887c.3-.04.662-.13 1.087-.264a5.73 5.73 0 0 0 1.069-.436v7.977h-2.364v.805h5.586v-.805h-2.107v-8.996zm11.681 0c-.232.16-.581.322-1.047.488-.46.161-.86.277-1.195.344v.887c.3-.04.663-.13 1.088-.264a5.75 5.75 0 0 0 1.066-.436v7.977h-2.363v.805h5.586v-.805h-2.107v-8.996zm-137.49 2.55c-.909 0-1.639.4-2.19 1.196l-.126-1.049h-.9v7.104h1.115v-4.33c.094-.623.299-1.12.617-1.497.322-.38.756-.572 1.302-.572.497 0 .838.187 1.022.559.183.367.275.983.275 1.851v3.989h1.114v-3.645c.013-.618.038-.987.074-1.107.12-.533.35-.941.685-1.223a1.732 1.732 0 0 1 1.147-.424c.192 0 .36.03.504.088a.73.73 0 0 1 .35.256c.089.116.16.235.214.355.054.117.091.27.113.463a7.922 7.922 0 0 1 .055 1.008v4.229h1.115v-4.579c0-1.78-.725-2.671-2.175-2.671-1.03 0-1.811.48-2.344 1.443-.166-.452-.4-.805-.705-1.06-.305-.256-.725-.383-1.262-.383zm11.139 0c-.94 0-1.716.338-2.324 1.014-.61.676-.913 1.582-.913 2.719 0 1.123.312 2.014.934 2.672.622.653 1.432.98 2.43.98.895 0 1.693-.208 2.396-.625l-.234-.785c-.376.188-.717.33-1.022.424-.304.094-.642.14-1.013.14-.685 0-1.24-.218-1.664-.652-.426-.438-.656-1.11-.692-2.013h4.801l.039-.565c0-1.038-.235-1.848-.705-2.43-.466-.586-1.143-.878-2.033-.878zm17.375 0c-1.043 0-1.862.34-2.457 1.02-.591.676-.887 1.571-.887 2.686 0 1.087.3 1.975.9 2.66.6.68 1.414 1.02 2.444 1.02 1.007 0 1.816-.343 2.43-1.028.613-.69.92-1.574.92-2.652 0-1.115-.295-2.01-.885-2.686-.591-.68-1.413-1.02-2.465-1.02zm-34.846.147v7.104H77.6v-7.104zm50.14 0v7.104h1.1v-7.104zm12.575 0c-.264 0-.468.076-.611.229a.727.727 0 0 0-.215.523c0 .206.071.385.215.537.143.148.347.223.61.223.265 0 .466-.075.604-.223a.758.758 0 0 0 .215-.537.727.727 0 0 0-.215-.523c-.138-.153-.339-.229-.603-.229zm75.273 0c-.264 0-.468.076-.611.229a.727.727 0 0 0-.215.523c0 .206.072.385.215.537.143.148.347.223.611.223s.465-.075.604-.223a.758.758 0 0 0 .215-.537.727.727 0 0 0-.215-.523c-.139-.153-.34-.229-.604-.229zm-120.492.705c1.128 0 1.72.766 1.774 2.297H91.9c.063-.707.283-1.266.659-1.678a1.87 1.87 0 0 1 1.435-.619zm17.35 0c.73 0 1.28.264 1.652.787.372.52.557 1.212.557 2.08 0 .555-.077 1.041-.229 1.457a2.116 2.116 0 0 1-.738.995c-.336.246-.75.369-1.242.369-.716 0-1.263-.26-1.639-.78-.376-.519-.564-1.2-.564-2.047 0-.863.188-1.555.564-2.074.376-.523.923-.787 1.639-.787zm27.869 4.969c-.264 0-.468.075-.611.223a.733.733 0 0 0-.215.529c0 .201.071.379.215.531.143.148.347.22.61.22.265 0 .466-.072.604-.22a.752.752 0 0 0 .215-.531.733.733 0 0 0-.215-.53c-.138-.147-.339-.222-.603-.222zm75.273 0c-.264 0-.468.075-.611.223a.733.733 0 0 0-.215.529c0 .201.072.379.215.531.143.148.347.22.611.22s.465-.072.604-.22a.752.752 0 0 0 .215-.531.733.733 0 0 0-.215-.53c-.139-.147-.34-.222-.604-.222zm-141.17 11.494c-.917 0-1.727.212-2.43.637a4.189 4.189 0 0 0-1.61 1.765c-.377.757-.565 1.624-.565 2.6 0 .761.113 1.458.342 2.094.232.635.555 1.171.967 1.605.411.43.903.764 1.476 1.006a4.904 4.904 0 0 0 1.881.358c.967 0 1.828-.194 2.584-.579l-.275-.878c-.735.344-1.461.515-2.182.515-1.11 0-1.99-.373-2.639-1.12-.644-.748-.967-1.735-.967-2.962 0-1.222.315-2.21.942-2.967.63-.76 1.49-1.14 2.578-1.14.846 0 1.584.196 2.215.59l.388-.772c-.698-.501-1.599-.752-2.705-.752zm131.979 0c-.627 0-1.183.139-1.666.416-.483.273-.852.64-1.108 1.102a3.12 3.12 0 0 0-.382 1.537c0 .425.08.824.242 1.195.161.367.376.675.644.926.269.246.58.44.934.584.358.143.732.215 1.121.215.461 0 .898-.112 1.315-.336-.345.443-.572.739-.684.887l-2.545 3.41h1.316l2.397-3.276c.277-.38.488-.678.63-.892.148-.22.306-.486.471-.8a3.78 3.78 0 0 0 .348-.927c.072-.3.108-.622.108-.967 0-.402-.069-.787-.207-1.154a3.056 3.056 0 0 0-.598-.98 2.775 2.775 0 0 0-.994-.686 3.414 3.414 0 0 0-1.342-.254zm-98.887.135a.728.728 0 0 0-.53.201.676.676 0 0 0-.2.51c0 .21.067.383.2.517a.729.729 0 0 0 .53.202c.21 0 .387-.067.526-.202a.688.688 0 0 0 .207-.517c0-.21-.069-.38-.207-.51a.712.712 0 0 0-.526-.201zm104.473 0l-.19 5.19.9.107c.207-.22.467-.394.78-.524s.636-.195.967-.195c.452 0 .83.101 1.135.303.304.197.52.45.65.763.13.31.195.665.195 1.063 0 .725-.2 1.288-.603 1.691-.399.399-.934.598-1.606.598-.752 0-1.56-.245-2.423-.732l-.383.867c.971.541 1.932.81 2.88.81.462 0 .888-.068 1.282-.207a3.06 3.06 0 0 0 1.035-.603c.3-.269.532-.611.697-1.028.17-.42.256-.894.256-1.418 0-.55-.112-1.047-.336-1.49a2.569 2.569 0 0 0-1.008-1.08c-.452-.277-.984-.416-1.597-.416-.672 0-1.27.176-1.793.53l.107-3.344h4.123l.088-.885h-5.156zm17.931 0l-5.572 9.8h.887l5.506-9.8zm-5.68.006c-.72 0-1.279.232-1.677.697-.398.461-.598 1.06-.598 1.793 0 .739.196 1.341.59 1.807.394.465.956.697 1.686.697.725 0 1.287-.232 1.685-.697.399-.47.598-1.073.598-1.807 0-.747-.198-1.348-.592-1.805-.39-.456-.953-.685-1.691-.685zm.009.625c.501 0 .875.166 1.12.502.252.331.376.784.376 1.357 0 .56-.124 1.014-.375 1.364-.246.344-.62.515-1.121.515s-.878-.17-1.13-.51c-.25-.34-.374-.796-.374-1.369 0-.56.124-1.01.375-1.35.25-.34.628-.51 1.129-.51zm-17.813.113c.65 0 1.152.204 1.51.611.358.408.537.912.537 1.512 0 .305-.046.582-.14.832-.09.246-.207.447-.35.604a2.125 2.125 0 0 1-1.06.611 2.59 2.59 0 0 1-.551.06c-.64 0-1.142-.19-1.504-.57-.363-.385-.543-.885-.543-1.498 0-.604.185-1.115.556-1.531.376-.42.892-.63 1.545-.63zm-94.816.008l-.893.067-.181 1.878-1.096.075-.025.63h1.093v4.272c0 .434.038.784.114 1.053.076.268.213.491.41.666.201.174.461.294.78.361.317.067.732.102 1.247.102h.463l.055-.766-.565-.027c-.595-.023-.978-.116-1.148-.282-.17-.17-.254-.538-.254-1.107v-4.271h1.879v-.705h-1.88v-1.946zm-30.441 1.799c-.95 0-1.804.176-2.565.53l.303.82a4.777 4.777 0 0 1 1.113-.364c.416-.09.805-.134 1.168-.134.537 0 .93.127 1.176.382.25.256.377.643.377 1.162v.698h-1.135c-1.141 0-1.974.182-2.498.545-.52.358-.78.921-.78 1.691 0 .645.199 1.15.592 1.512.399.362.923.543 1.577.543.975 0 1.768-.374 2.377-1.121l.12.98h.846v-4.687c0-.905-.231-1.555-.697-1.953-.46-.403-1.12-.604-1.974-.604zm7.822 0c-1.025 0-1.8.462-2.324 1.389l-.114-1.243h-.926v10.22h1.114v-2.673l-.047-1.644c.528.89 1.286 1.336 2.275 1.336.931 0 1.657-.337 2.176-1.008.52-.671.78-1.557.78-2.658 0-1.146-.251-2.052-.753-2.719-.496-.667-1.223-1-2.181-1zm7.002 0c-.95 0-1.804.176-2.565.53l.303.82a4.777 4.777 0 0 1 1.113-.364c.417-.09.806-.134 1.168-.134.537 0 .93.127 1.176.382.25.256.375.643.375 1.162v.698h-1.133c-1.141 0-1.974.182-2.498.545-.519.358-.78.921-.78 1.691 0 .645.199 1.15.593 1.512.398.362.922.543 1.576.543.976 0 1.768-.374 2.377-1.121l.12.98h.847v-4.687c0-.905-.232-1.555-.698-1.953-.46-.403-1.12-.604-1.974-.604zm7.472 0c-.989 0-1.792.333-2.41 1-.617.662-.926 1.573-.926 2.732 0 1.11.3 1.996.899 2.659.604.662 1.415.994 2.432.994.434 0 .823-.052 1.167-.155.345-.102.592-.215.745-.335l-.207-.758a2.95 2.95 0 0 1-1.498.388c-.784 0-1.378-.256-1.786-.771-.407-.515-.61-1.19-.61-2.022 0-.877.213-1.574.638-2.093.425-.52.988-.78 1.691-.78.555 0 1.048.13 1.483.389l.316-.766c-.152-.103-.398-.207-.738-.314-.336-.112-.735-.168-1.196-.168zm3.485.146v7.104h1.101v-7.104zm7.613 0l2.814 6.89-1.048 2.671 1.002.215 3.738-9.776h-1.127l-2.027 5.674-2.217-5.674zm8.588 0c-.264 0-.468.077-.611.229a.726.726 0 0 0-.215.523c0 .206.071.385.215.538.143.147.347.222.61.222.265 0 .466-.075.604-.222a.758.758 0 0 0 .215-.538.726.726 0 0 0-.215-.523c-.138-.152-.339-.229-.603-.229zm-34.29.706c1.281 0 1.923.95 1.923 2.853 0 1.884-.664 2.826-1.989 2.826-.67 0-1.19-.256-1.556-.771-.363-.515-.545-1.237-.545-2.168.004-.86.183-1.53.537-2.014.354-.483.897-.726 1.63-.726zm141.991 1.404c-.72 0-1.281.232-1.68.697-.398.466-.597 1.067-.597 1.8 0 .74.198 1.34.592 1.806.393.465.956.699 1.685.699.725 0 1.285-.234 1.684-.7.398-.47.597-1.07.597-1.804 0-.748-.196-1.35-.59-1.807-.389-.46-.952-.691-1.69-.691zm.006.63c.501 0 .875.169 1.121.505.25.33.377.782.377 1.355 0 .56-.126 1.014-.377 1.363-.246.35-.62.524-1.12.524-.502 0-.88-.17-1.13-.51-.25-.345-.375-.804-.375-1.377 0-.56.125-1.01.375-1.35.25-.34.628-.51 1.13-.51zm-148.97.948h.853v1.564c-.533.784-1.258 1.174-2.176 1.174-.336 0-.616-.107-.84-.322-.224-.215-.336-.518-.336-.912 0-.22.02-.403.06-.55.041-.153.116-.292.224-.417.107-.13.253-.231.441-.303a3.05 3.05 0 0 1 .719-.173c.29-.041.643-.061 1.054-.061zm14.824 0h.851v1.564c-.532.784-1.256 1.174-2.174 1.174-.335 0-.616-.107-.84-.322-.223-.215-.335-.518-.335-.912 0-.22.02-.403.06-.55.04-.153.115-.292.223-.417.107-.13.253-.231.441-.303a3.05 3.05 0 0 1 .719-.173c.29-.041.643-.061 1.055-.061zm26.44 1.986c-.265 0-.469.075-.612.223a.732.732 0 0 0-.215.53c0 .2.071.378.215.53.143.148.347.221.611.221s.465-.073.604-.22a.752.752 0 0 0 .214-.532.732.732 0 0 0-.214-.529c-.14-.148-.34-.223-.604-.223z" id="rect7886" color="#4d4d4d" fill="currentColor" fill-opacity=".5" stroke="none"/><g id="g10275" transform="translate(78.357 -824.796)"><path class="ColorScheme-Text" d="M-44.857 916.296h14v1h-14zm4.09-3h5.819v3h-5.818zm-11.09-21v21h28v-21zm1 1h26v16h-26z" id="path3020" fill="currentColor" fill-opacity="1" stroke="none"/><path class="ColorScheme-Text" id="rect3022" fill="currentColor" fill-opacity=".5" stroke="none" d="M-50.857 893.296h26v16h-26z"/><path d="M-33.894 900.074a3.964 3.964 0 1 1-7.54 2.45 3.964 3.964 0 1 1 7.54-2.45z" id="path4001-3" class="ColorScheme-Background" fill="currentColor" fill-opacity="1" stroke="none"/><path d="M-37.878 898.294a2.978 2.978 0 0 1 2.976 2.983 2.978 2.978 0 0 1-2.976 2.982v-2.982zm-1.92-2.998l.223 2.052a4.294 4.294 0 0 0-1.483 1.075l-1.89-.84 1.383 1.545a4.306 4.306 0 0 0-.58 1.754l-2.015.433 2.027.432c.031.293.091.588.185.878.095.291.212.573.359.828l-1.384 1.545 1.89-.84c.41.459.917.814 1.471 1.062l-.222 2.076 1.05-1.804c.59.132 1.21.146 1.83.012l1.037 1.78-.21-2.052a4.284 4.284 0 0 0 1.458-1.05l1.916.84-1.397-1.557c.304-.521.491-1.11.557-1.718l2.039-.432-2.027-.445c-.03-.3-.089-.604-.186-.902a4.27 4.27 0 0 0-.383-.84l1.384-1.545-1.903.84a4.312 4.312 0 0 0-1.47-1.05l.222-2.077-1.038 1.805a4.291 4.291 0 0 0-1.804-.013zm1.891 2.373a3.63 3.63 0 0 1 1.162 7.082 3.616 3.616 0 0 1-4.56-2.336 3.61 3.61 0 0 1 2.323-4.56c.358-.117.719-.18 1.075-.186z" id="path6938-4-8-9-6-9" class="ColorScheme-Text" fill="currentColor" fill-opacity="1" stroke="none"/></g><path d="M34.5 159v2h6v-2h-6zm6 2v2h4v18h-14v-18h4v-2h-6v22h18v-22h-6zm-1.586 3.434l-5.289 7.935h2.645v6.611l5.289-7.933h-2.645v-6.613zM49.5 175v3h3v-3h-3zm0 5v3h3v-3h-3z" class="ColorScheme-Text" id="path3476" fill="currentColor" fill-opacity="1" stroke="none"/><path id="rect3484" class="ColorScheme-Text" fill="currentColor" fill-opacity=".5" stroke="none" d="M49.5 170h3v3h-3z"/></svg>