<svg xmlns="http://www.w3.org/2000/svg" width="22" height="22" viewBox="0 0 16 16" version="1.1" id="svg7"><defs id="defs3"><style id="current-color-scheme" type="text/css"></style></defs><path d="M8 2.182a2.177 2.177 0 0 0-2.182 2.181v3.638c0 1.208.973 2.181 2.182 2.181a2.177 2.177 0 0 0 2.182-2.181V4.363A2.177 2.177 0 0 0 8 2.182zM3.637 7.275V8a4.367 4.367 0 0 0 3.636 4.296v1.521h1.454v-1.52A4.367 4.367 0 0 0 12.363 8v-.726H10.91V8A2.886 2.886 0 0 1 8 10.909a2.886 2.886 0 0 1-2.909-2.908v-.726z" id="path5" color="#1e333d" fill="currentColor" stroke-width=".727"/></svg>