<svg xmlns="http://www.w3.org/2000/svg" width="22" height="22" viewBox="0 0 16 16" version="1.1" id="svg7"><defs id="defs3"><style id="current-color-scheme" type="text/css"></style></defs><path d="M8 2.182c-2.216 0-4 1.946-4 4.363v2.91c0 2.417 1.784 4.363 4 4.363s4-1.946 4-4.363v-2.91c0-2.417-1.784-4.363-4-4.363zm-.364 1.454H8c.151 0 .286.097.34.228l2.092 2.068.295.273-.318.25L8.545 8l1.864 1.545.318.25-.295.273-2.091 2.068c-.018.044-.058.081-.091.114a.352.352 0 0 1-.25.114h-.364V8.773l-1.568 1.295a.352.352 0 0 1-.25.114h-.363v-.364a.36.36 0 0 1 .136-.273L7.455 8 5.682 6.523c-.034-.015-.063-.045-.091-.068a.359.359 0 0 1-.136-.273v-.364h.363c.09 0 .164.038.227.091l.023.023 1.568 1.295zm.728 1.228v2.363L9.659 6.16zm0 3.909v2.363l1.295-1.295z" id="path5" color="#1e333d" fill="currentColor" stroke-width=".727"/></svg>