<svg xmlns="http://www.w3.org/2000/svg" width="22" height="22" viewBox="0 0 16 16" version="1.1" id="svg7"><defs id="defs3"><style id="current-color-scheme" type="text/css"></style></defs><path d="M8 2.182a4.986 4.986 0 0 0-2.753 9.143h-.572c-1.662 0-1.662 1.662-1.662 1.662v.831h9.974v-.831s0-1.662-1.662-1.662h-.572A4.986 4.986 0 0 0 8 2.182zM8 5.51a1.662 1.662 0 0 1 1.662 1.662A1.662 1.662 0 0 1 8 8.834a1.662 1.662 0 0 1-1.662-1.662A1.662 1.662 0 0 1 8 5.51z" id="path5" color="#1e333d" fill="currentColor" stroke-width=".831"/></svg>