<svg xmlns="http://www.w3.org/2000/svg" width="22" height="22" version="1.1" viewBox="0 0 16 16" id="svg7"><defs id="defs3"><style id="current-color-scheme" type="text/css"></style></defs><path d="M3.054 2.91c-.484 0-.872.416-.872.934v2.494c0 .518.388.935.872.935h.582V8h-.582c-.484 0-.872.417-.872.935v2.494c0 .518.388.935.872.935h.582v.727h.728v-.727h7.272v.727h.728v-.727h.582c.484 0 .872-.417.872-.935V8.935c0-.518-.388-.935-.872-.935h-.582v-.727h.582c.484 0 .872-.417.872-.935V3.844c0-.518-.388-.935-.872-.935zm8.582 1.454a.727.727 0 0 1 .728.727.727.727 0 0 1-.728.727.727.727 0 0 1-.727-.727.727.727 0 0 1 .727-.727zM4.364 7.273h7.272V8H4.364zm7.272 2.182a.727.727 0 0 1 .728.727.727.727 0 0 1-.728.727.727.727 0 0 1-.727-.727.727.727 0 0 1 .727-.727z" id="path5" color="#1e333d" fill="currentColor" stroke-width=".727"/></svg>