<svg xmlns="http://www.w3.org/2000/svg" width="22" height="22" viewBox="0 0 16 16" version="1.1" id="svg7"><defs id="defs3"><style id="current-color-scheme" type="text/css"></style></defs><path d="M7.996 2.182L6.178 5.09H7.27v3.636H5.087v-.924a1.455 1.455 0 1 0-1.455.001v.923c0 1.455 1.455 1.455 1.455 1.455H7.27v.925a1.455 1.455 0 1 0 1.455-.001v-.924h2.182s1.454 0 1.454-1.455V8s.818-.136.727-.727V5.818c.091-.818-.727-.727-.727-.727h-1.454c-.773 0-.728.727-.728.727v1.455c0 .727.728.727.728.727v.727H8.724V5.091h1.09z" id="path5" color="#1e333d" fill="currentColor" stroke-width=".727"/></svg>