<svg xmlns="http://www.w3.org/2000/svg" width="22" height="22" viewBox="0 0 16 16" version="1.1" id="svg7"><defs id="defs3"><style id="current-color-scheme" type="text/css"></style></defs><path d="M3.886 2.182a1.7 1.7 0 0 0-1.704 1.704v8.228a1.7 1.7 0 0 0 1.704 1.704h8.228a1.7 1.7 0 0 0 1.704-1.704V3.886a1.7 1.7 0 0 0-1.704-1.704zM8 4.675a3.325 3.325 0 0 1 0 6.65H4.675V8A3.325 3.325 0 0 1 8 4.675zm0 1.663a1.662 1.662 0 1 0 0 3.324 1.662 1.662 0 0 0 0-3.324z" id="rect818" opacity="1" fill="#1e333d" fill-opacity="1" stroke="none" stroke-width="1.662" stroke-linecap="round" stroke-linejoin="bevel" stroke-miterlimit="4" stroke-dasharray="none" stroke-opacity="1"/></svg>