<svg xmlns="http://www.w3.org/2000/svg" width="22" height="22" viewBox="0 0 16 16" version="1.1" id="svg7"><defs id="defs3"><style id="current-color-scheme" type="text/css"></style></defs><path d="M3.733 3.345s-1.551 0-1.551 1.552v6.206c0 1.552 1.551 1.552 1.551 1.552h8.534s1.551 0 1.551-1.552V4.897c0-1.552-1.551-1.552-1.551-1.552zm.194 1.552h1.164c.107 0 .194.086.194.194v1.164a.194.194 0 0 1-.194.193H3.927a.194.194 0 0 1-.194-.193V5.09c0-.108.087-.194.194-.194zm2.328 0h1.163c.108 0 .194.086.194.194v1.164a.194.194 0 0 1-.194.193H6.255a.194.194 0 0 1-.194-.193V5.09c0-.108.086-.194.194-.194zm2.327 0h1.163c.108 0 .194.086.194.194v1.164a.194.194 0 0 1-.194.193H8.582a.194.194 0 0 1-.194-.193V5.09c0-.108.086-.194.194-.194zm2.327 0h1.164c.107 0 .194.086.194.194v1.164a.194.194 0 0 1-.194.193h-1.164a.194.194 0 0 1-.194-.193V5.09c0-.108.087-.194.194-.194zM3.927 7.224h1.164c.107 0 .194.087.194.194v1.164a.194.194 0 0 1-.194.194H3.927a.194.194 0 0 1-.194-.194V7.418c0-.107.087-.194.194-.194zm2.328 0h1.163c.108 0 .194.087.194.194v1.164a.194.194 0 0 1-.194.194H6.255a.194.194 0 0 1-.194-.194V7.418c0-.107.086-.194.194-.194zm2.327 0h1.163c.108 0 .194.087.194.194v1.164a.194.194 0 0 1-.194.194H8.582a.194.194 0 0 1-.194-.194V7.418c0-.107.086-.194.194-.194zm2.327 0h1.164c.107 0 .194.087.194.194v1.164a.194.194 0 0 1-.194.194h-1.164a.194.194 0 0 1-.194-.194V7.418c0-.107.087-.194.194-.194zM5.48 9.552h5.042c.108 0 .194.086.194.193v1.164a.194.194 0 0 1-.194.194H5.48a.194.194 0 0 1-.194-.194V9.745c0-.107.086-.193.194-.193z" id="path5" color="#1e333d" fill="currentColor" stroke-width=".776"/></svg>