<svg xmlns="http://www.w3.org/2000/svg" width="22" height="22" version="1.1" viewBox="0 0 16 16" id="svg7"><defs id="defs3"><style id="current-color-scheme" type="text/css"></style></defs><path d="M2.872 3.272c-.443-.014-.748.427-.681.84.002 2.663-.008 5.332 0 7.994.03.43.49.673.886.613 2.895-.002 5.78.008 8.675 0 .43-.03.673-.49.613-.885V7.54L10.91 8.995c-.002.754 0 1.51 0 2.27H3.644v-6.54h7.267v.091l1.136-1.135c.05-.051.102-.095.159-.136-.104-.146-.267-.273-.568-.273H2.872zM13.092 4a.737.737 0 0 0-.523.204l-4.36 4.36a.737.737 0 0 0-.204.523v.726h.726a.737.737 0 0 0 .523-.204l4.36-4.36a.737.737 0 0 0 .204-.523.725.725 0 0 0-.727-.726z" id="path5" color="#1e333d" fill="currentColor" stroke-width=".727"/></svg>