<svg xmlns="http://www.w3.org/2000/svg" width="22" height="22" viewBox="0 0 16 16" version="1.1" id="svg7"><defs id="defs3"><style id="current-color-scheme" type="text/css"></style></defs><path d="M5.09 2.182c-.726 0-.726.727-.726.727v10.182s0 .727.727.727h5.818c.727 0 .727-.727.727-.727V2.909s0-.727-.727-.727zm.728 2.184h4.364v6.543H5.818zM8 11.636a.727.727 0 0 1 .727.728.727.727 0 0 1-.727.727.727.727 0 0 1-.727-.727.727.727 0 0 1 .727-.728z" id="path5" color="#1e333d" fill="currentColor" stroke-width=".727"/></svg>