<svg xmlns="http://www.w3.org/2000/svg" xmlns:xlink="http://www.w3.org/1999/xlink" width="32" height="32" version="1"><defs><linearGradient id="a"><stop offset="0" stop-color="#5e737b"/><stop offset="1" stop-color="#a0b1b7"/></linearGradient><linearGradient id="b"><stop offset="0" stop-color="#8998ad"/><stop offset="1" stop-color="#e8eaeb"/></linearGradient><linearGradient xlink:href="#a" id="d" x1="-5.667" y1="22.201" x2="-5.597" y2="10.718" gradientUnits="userSpaceOnUse" gradientTransform="matrix(1.84715 0 0 1.9123 26.881 -14.457)"/><linearGradient xlink:href="#b" id="c" x1="-34.169" y1="21.288" x2="-13.153" y2="7.458" gradientUnits="userSpaceOnUse" gradientTransform="matrix(1.22724 0 0 1.55276 46.268 -6.946)"/></defs><path d="M19.993 2.14c-2.39 0-3.167 1.95-4.395 3.9H4.14C2.4 6.04 1 7.488 1 9.29V24.888c.008.18.046.356.08.528a3.195 3.195 0 0 0 2.551 2.64c.214.046.4.082.628.082h23.624c.227 0 .414-.035.628-.082a3.199 3.199 0 0 0 2.55-2.64c.034-.172.07-.348.079-.528V5.552c0-1.9-1.443-3.413-3.257-3.413h-7.887z" fill="#5e737b" stroke="#a0b1b7" stroke-width=".1"/><rect width="25.793" height="21.475" x="4.434" y="4.634" transform="rotate(.008) skewX(.002)" ry="1.735" opacity=".647" fill="#5d6569" paint-order="markers stroke fill"/><rect width="25.793" height="21.475" x="4.334" y="4.634" transform="rotate(.008) skewX(.002)" ry="1.735" fill="url(#c)" paint-order="markers stroke fill"/><path d="M12.147 2.14c2.39 0 3.167 1.95 4.395 3.9H28c1.74 0 3.14 1.449 3.14 3.25V24.888c-.008.18-.046.356-.08.528a3.195 3.195 0 0 1-2.551 2.64c-.214.046-.4.082-.628.082H4.257c-.227 0-.414-.035-.628-.082a3.199 3.199 0 0 1-2.55-2.64c-.034-.172-.07-.348-.079-.528V5.552c0-1.9 1.443-3.413 3.257-3.413h7.887z" fill="url(#d)" stroke="#a0b1b7" stroke-width=".1"/><g fill="#5d6569"><path d="M13.992 11.4l-2.942 1.92 2.034 1.629 2.966-1.831z" opacity=".647"/><path d="M11.05 16.578l2.942 1.92 2.058-1.718-2.966-1.831zM16.05 16.78l2.058 1.718 2.942-1.92-2.034-1.63z" opacity=".647"/><path d="M21.05 13.32l-2.942-1.92-2.058 1.717 2.966 1.832zM16.056 17.15l-2.064 1.713-.884-.577v.647l2.948 1.768 2.948-1.768v-.647l-.883.577z" opacity=".647"/></g><g fill="#e8eaeb"><path d="M13.892 11.3l-2.942 1.92 2.034 1.629 2.966-1.831zM10.95 16.478l2.942 1.92 2.058-1.718-2.966-1.831zM15.95 16.68l2.058 1.718 2.942-1.92-2.034-1.63z"/><path d="M20.95 13.22l-2.942-1.92-2.058 1.717 2.966 1.832zM15.956 17.05l-2.064 1.713-.884-.577v.647l2.948 1.768 2.948-1.768v-.647l-.883.577z"/></g></svg>