<?xml version="1.0" encoding="UTF-8" standalone="no"?>
<svg
   xmlns:dc="http://purl.org/dc/elements/1.1/"
   xmlns:cc="http://creativecommons.org/ns#"
   xmlns:rdf="http://www.w3.org/1999/02/22-rdf-syntax-ns#"
   xmlns:svg="http://www.w3.org/2000/svg"
   xmlns="http://www.w3.org/2000/svg"
   xmlns:xlink="http://www.w3.org/1999/xlink"
   xmlns:sodipodi="http://sodipodi.sourceforge.net/DTD/sodipodi-0.dtd"
   xmlns:inkscape="http://www.inkscape.org/namespaces/inkscape"
   width="32"
   height="32"
   version="1"
   id="svg14"
   sodipodi:docname="folder-owncloud.svg"
   inkscape:version="0.92.4 5da689c313, 2019-01-14">
  <metadata
     id="metadata20">
    <rdf:RDF>
      <cc:Work
         rdf:about="">
        <dc:format>image/svg+xml</dc:format>
        <dc:type
           rdf:resource="http://purl.org/dc/dcmitype/StillImage" />
        <dc:title />
      </cc:Work>
    </rdf:RDF>
  </metadata>
  <defs
     id="defs18">
    <linearGradient
       id="linearGradient990"
       inkscape:collect="always">
      <stop
         id="stop986"
         offset="0"
         style="stop-color:#5e737b;stop-opacity:1" />
      <stop
         id="stop988"
         offset="1"
         style="stop-color:#a0b1b7;stop-opacity:1" />
    </linearGradient>
    <linearGradient
       inkscape:collect="always"
       id="linearGradient827">
      <stop
         style="stop-color:#5e737b;stop-opacity:1"
         offset="0"
         id="stop823" />
      <stop
         style="stop-color:#ccd7db;stop-opacity:1"
         offset="1"
         id="stop825" />
    </linearGradient>
    <linearGradient
       inkscape:collect="always"
       id="linearGradient889">
      <stop
         style="stop-color:#8998ad;stop-opacity:1"
         offset="0"
         id="stop885" />
      <stop
         style="stop-color:#e8eaeb;stop-opacity:1"
         offset="1"
         id="stop887" />
    </linearGradient>
    <linearGradient
       inkscape:collect="always"
       xlink:href="#linearGradient990"
       id="linearGradient975"
       x1="-5.667089"
       y1="22.200636"
       x2="-5.5973864"
       y2="10.717914"
       gradientUnits="userSpaceOnUse"
       gradientTransform="matrix(1.8471453,0,0,1.9122993,26.881076,-14.456689)" />
    <linearGradient
       inkscape:collect="always"
       xlink:href="#linearGradient889"
       id="linearGradient891-3-3"
       x1="-34.169491"
       y1="21.288134"
       x2="-13.152548"
       y2="7.4576306"
       gradientUnits="userSpaceOnUse"
       gradientTransform="matrix(1.2272405,0,0,1.5527586,46.26793,-6.9461714)" />
    <linearGradient
       gradientTransform="matrix(1.0000063,0,0,1.0352793,32.267284,-2.6374529)"
       inkscape:collect="always"
       xlink:href="#linearGradient827"
       id="linearGradient1037"
       x1="-8.0969543"
       y1="11.094899"
       x2="-8.1753788"
       y2="4.9379373"
       gradientUnits="userSpaceOnUse" />
    <linearGradient
       inkscape:collect="always"
       xlink:href="#linearGradient827"
       id="linearGradient834"
       x1="15.260289"
       y1="22.886885"
       x2="15.24397"
       y2="13.452922"
       gradientUnits="userSpaceOnUse"
       gradientTransform="matrix(1,0,0,1.0419118,-27.389522,-9.8839018)" />
    <filter
       inkscape:collect="always"
       style="color-interpolation-filters:sRGB"
       id="filter2558"
       x="-0.077753022"
       width="1.155506"
       y="-0.12543751"
       height="1.250875">
      <feGaussianBlur
         inkscape:collect="always"
         stdDeviation="0.51522694"
         id="feGaussianBlur2560" />
    </filter>
    <filter
       inkscape:collect="always"
       style="color-interpolation-filters:sRGB"
       id="filter2562"
       x="-0.19023764"
       width="1.3804753"
       y="-0.18258517"
       height="1.3651703">
      <feGaussianBlur
         inkscape:collect="always"
         stdDeviation="0.51522694"
         id="feGaussianBlur2564" />
    </filter>
    <filter
       inkscape:collect="always"
       style="color-interpolation-filters:sRGB"
       id="filter2566"
       x="-0.24730893"
       width="1.4946179"
       y="-0.23736072"
       height="1.4747214">
      <feGaussianBlur
         inkscape:collect="always"
         stdDeviation="0.51522694"
         id="feGaussianBlur2568" />
    </filter>
    <filter
       inkscape:collect="always"
       style="color-interpolation-filters:sRGB"
       id="filter2570"
       x="-0.49461786"
       width="1.9892357"
       y="-0.47472144"
       height="1.9494429">
      <feGaussianBlur
         inkscape:collect="always"
         stdDeviation="0.51522694"
         id="feGaussianBlur2572" />
    </filter>
    <filter
       inkscape:collect="always"
       style="color-interpolation-filters:sRGB"
       id="filter2574"
       x="-0.2248263"
       width="1.4496526"
       y="-0.21578247"
       height="1.4315649">
      <feGaussianBlur
         inkscape:collect="always"
         stdDeviation="0.51522694"
         id="feGaussianBlur2576" />
    </filter>
    <filter
       inkscape:collect="always"
       style="color-interpolation-filters:sRGB"
       id="filter2578"
       x="-0.41218155"
       width="1.8243631"
       y="-0.39560121"
       height="1.7912024">
      <feGaussianBlur
         inkscape:collect="always"
         stdDeviation="0.51522694"
         id="feGaussianBlur2580" />
    </filter>
    <filter
       inkscape:collect="always"
       style="color-interpolation-filters:sRGB"
       id="filter2582"
       x="-0.2747877"
       width="1.5495754"
       y="-0.26373414"
       height="1.5274683">
      <feGaussianBlur
         inkscape:collect="always"
         stdDeviation="0.51522694"
         id="feGaussianBlur2584" />
    </filter>
    <filter
       inkscape:collect="always"
       style="color-interpolation-filters:sRGB"
       id="filter2586"
       x="-0.24730893"
       width="1.4946179"
       y="-0.23736072"
       height="1.4747214">
      <feGaussianBlur
         inkscape:collect="always"
         stdDeviation="0.51522694"
         id="feGaussianBlur2588" />
    </filter>
    <filter
       inkscape:collect="always"
       style="color-interpolation-filters:sRGB"
       id="filter2590"
       x="-0.49461786"
       width="1.9892357"
       y="-0.47472144"
       height="1.9494429">
      <feGaussianBlur
         inkscape:collect="always"
         stdDeviation="0.51522694"
         id="feGaussianBlur2592" />
    </filter>
    <filter
       inkscape:collect="always"
       style="color-interpolation-filters:sRGB"
       id="filter2594"
       x="-0.2747877"
       width="1.5495754"
       y="-0.26373414"
       height="1.5274683">
      <feGaussianBlur
         inkscape:collect="always"
         stdDeviation="0.51522694"
         id="feGaussianBlur2596" />
    </filter>
    <filter
       inkscape:collect="always"
       style="color-interpolation-filters:sRGB"
       id="filter2738"
       x="-0.087967912"
       width="1.1759358"
       y="-0.10564624"
       height="1.2112925">
      <feGaussianBlur
         inkscape:collect="always"
         stdDeviation="0.94543621"
         id="feGaussianBlur2740" />
    </filter>
  </defs>
  <sodipodi:namedview
     pagecolor="#ffffff"
     bordercolor="#666666"
     borderopacity="1"
     objecttolerance="10"
     gridtolerance="10"
     guidetolerance="10"
     inkscape:pageopacity="0"
     inkscape:pageshadow="2"
     inkscape:window-width="1002"
     inkscape:window-height="789"
     id="namedview16"
     showgrid="false"
     inkscape:zoom="17.56"
     inkscape:cx="11.228202"
     inkscape:cy="20.612756"
     inkscape:window-x="199"
     inkscape:window-y="90"
     inkscape:window-maximized="0"
     inkscape:current-layer="svg14"
     showguides="true"
     inkscape:guide-bbox="true"
     inkscape:snap-global="true" />
  <path
     id="path25-2"
     style="opacity:1;fill:url(#linearGradient1037);fill-opacity:1;stroke:none;stroke-width:1.27766156"
     d="m 19.993088,2.1391705 c -2.39087,0 -3.166896,1.9512996 -4.394979,3.8999983 H 4.13978 c -1.7391529,0 -3.1392677,1.4495 -3.1392677,3.2499997 v 1.3000005 11.049997 1.949998 1.137501 0.162507 c 0.0076,0.180693 0.0452,0.3562 0.079111,0.527801 0.1494339,0.898298 0.644175,1.665299 1.3737426,2.152797 0.3478302,0.232701 0.7496567,0.401702 1.1778524,0.487501 0.2134674,0.04549 0.4005666,0.0819 0.62785,0.0819 H 27.882695 c 0.227284,0 0.414383,-0.0351 0.627854,-0.0819 0.42694,-0.0858 0.828767,-0.2548 1.176599,-0.487501 0.729564,-0.487498 1.223057,-1.254499 1.373741,-2.152797 0.0339,-0.171592 0.07032,-0.348401 0.07911,-0.527801 V 24.726665 23.589164 5.5516683 c 0,-1.9005998 -1.442807,-3.4124978 -3.257305,-3.4124978 H 19.9956 Z"
     inkscape:connector-curvature="0" />
  <rect
     ry="1.7347755"
     inkscape:transform-center-y="-6.389833"
     inkscape:transform-center-x="4.5837926"
     transform="matrix(0.99999999,1.0483019e-4,-6.5484411e-5,1,0,0)"
     y="4.6337261"
     x="4.333746"
     height="21.475441"
     width="25.79285"
     id="rect883-5-5-6"
     style="opacity:0.647;vector-effect:none;fill:#000000;fill-opacity:1;fill-rule:nonzero;stroke:none;stroke-width:0.20038263;stroke-linecap:butt;stroke-linejoin:miter;stroke-miterlimit:4;stroke-dasharray:none;stroke-dashoffset:0;stroke-opacity:1;paint-order:markers stroke fill;filter:url(#filter2738)" />
  <rect
     ry="1.7347755"
     inkscape:transform-center-y="-6.389833"
     inkscape:transform-center-x="4.5837926"
     transform="matrix(0.99999999,1.0483019e-4,-6.5484411e-5,1,0,0)"
     y="4.6337266"
     x="4.333746"
     height="21.475441"
     width="25.79285"
     id="rect883-5-5"
     style="opacity:1;vector-effect:none;fill:url(#linearGradient891-3-3);fill-opacity:1;fill-rule:nonzero;stroke:none;stroke-width:0.20038263;stroke-linecap:butt;stroke-linejoin:miter;stroke-miterlimit:4;stroke-dasharray:none;stroke-dashoffset:0;stroke-opacity:1;paint-order:markers stroke fill" />
  <path
     id="path25"
     style="opacity:1;fill:url(#linearGradient975);fill-opacity:1;stroke:none;stroke-width:1.27766156"
     d="m 12.146913,2.1391705 c 2.39087,0 3.166896,1.9512996 4.394979,3.8999983 h 11.458327 c 1.739153,0 3.139268,1.4495 3.139268,3.2499997 v 1.3000005 11.049995 1.949998 1.137501 0.162507 c -0.0076,0.180693 -0.0452,0.3562 -0.07911,0.527801 -0.149434,0.898298 -0.644177,1.665299 -1.373744,2.152797 -0.34783,0.232701 -0.749656,0.401702 -1.177853,0.487501 -0.213466,0.04549 -0.400565,0.0819 -0.62785,0.0819 H 4.2573048 c -0.2272835,0 -0.4143826,-0.03509 -0.627854,-0.0819 -0.4269397,-0.0858 -0.8287662,-0.2548 -1.1765984,-0.487501 C 1.7232878,27.08227 1.2297947,26.315269 1.0791108,25.416971 1.0452205,25.24538 1.0087903,25.06857 1.0000003,24.88917 V 24.726663 23.589162 5.5516683 c 0,-1.9005998 1.442807,-3.4124978 3.2573045,-3.4124978 h 7.8870962 z"
     inkscape:connector-curvature="0" />
  <g
     id="g2608">
    <ellipse
       style="opacity:0.647;fill:#000000;fill-opacity:1;stroke:#5e737b;stroke-width:0.51037037;stroke-linecap:round;stroke-linejoin:round;stroke-opacity:1;filter:url(#filter2594)"
       cx="19.005186"
       cy="15.274783"
       id="circle14-3"
       rx="2.25"
       ry="2.3443015" />
    <ellipse
       style="opacity:0.647;fill:#000000;fill-opacity:1;stroke:#5e737b;stroke-width:0.51037037;stroke-linecap:round;stroke-linejoin:round;stroke-opacity:1;filter:url(#filter2590)"
       cx="23.505188"
       cy="19.44243"
       id="circle16-5"
       rx="1.25"
       ry="1.3023897" />
    <ellipse
       style="opacity:0.647;fill:#000000;fill-opacity:1;stroke:#5e737b;stroke-width:0.51037037;stroke-linecap:round;stroke-linejoin:round;stroke-opacity:1;filter:url(#filter2586)"
       cx="20.755186"
       cy="18.140039"
       id="circle18-6"
       rx="2.5"
       ry="2.6047795" />
    <ellipse
       style="opacity:0.647;fill:#000000;fill-opacity:1;stroke:#5e737b;stroke-width:0.51037037;stroke-linecap:round;stroke-linejoin:round;stroke-opacity:1;filter:url(#filter2582)"
       cx="11.505185"
       cy="18.400518"
       id="circle20-2"
       rx="2.25"
       ry="2.3443015" />
    <ellipse
       style="opacity:0.647;fill:#000000;fill-opacity:1;stroke:#5e737b;stroke-width:0.51037037;stroke-linecap:round;stroke-linejoin:round;stroke-opacity:1;filter:url(#filter2578)"
       cx="13.755186"
       cy="13.451436"
       id="circle22-9"
       rx="1.5"
       ry="1.5628676" />
    <ellipse
       style="opacity:0.647;fill:#000000;fill-opacity:1;stroke:#5e737b;stroke-width:0.51037037;stroke-linecap:round;stroke-linejoin:round;stroke-opacity:1;filter:url(#filter2574)"
       cx="14.005185"
       cy="16.316694"
       id="circle24-1"
       rx="2.75"
       ry="2.8652575" />
    <ellipse
       style="opacity:0.647;fill:#000000;fill-opacity:1;stroke:#5e737b;stroke-width:0.51037037;stroke-linecap:round;stroke-linejoin:round;stroke-opacity:1;filter:url(#filter2570)"
       cx="13.755186"
       cy="19.44243"
       id="circle26-2"
       rx="1.25"
       ry="1.3023897" />
    <ellipse
       style="opacity:0.647;fill:#000000;fill-opacity:1;stroke:#5e737b;stroke-width:0.51037037;stroke-linecap:round;stroke-linejoin:round;stroke-opacity:1;filter:url(#filter2566)"
       cx="16.255188"
       cy="13.972393"
       id="circle28-7"
       rx="2.5"
       ry="2.6047795" />
    <ellipse
       style="opacity:0.647;fill:#000000;fill-opacity:1;stroke:#5e737b;stroke-width:0.51037037;stroke-linecap:round;stroke-linejoin:round;stroke-opacity:1;filter:url(#filter2562)"
       cx="17.005186"
       cy="17.358606"
       id="circle30-0"
       rx="3.25"
       ry="3.3862133" />
    <path
       style="opacity:0.647;fill:#000000;fill-opacity:1;fill-rule:nonzero;stroke:none;stroke-width:0.00517592;stroke-miterlimit:4;stroke-dasharray:none;stroke-opacity:1;paint-order:markers stroke fill;filter:url(#filter2558)"
       d="M 10.867426,20.896702 C 10.14022,20.691765 9.588307,20.20512 9.257114,19.476822 9.084591,19.09744 9.072079,19.024229 9.072079,18.394157 c 0,-0.634032 0.01176,-0.701628 0.190324,-1.094441 0.304176,-0.669122 0.968208,-1.249639 1.618605,-1.415037 0.131319,-0.03339 0.174494,-0.09935 0.255789,-0.390712 0.140699,-0.504273 0.354869,-0.914205 0.648517,-1.241297 l 0.25638,-0.285578 -0.0018,-0.467143 c -0.0029,-0.774257 0.344786,-1.370823 0.982614,-1.685918 0.326821,-0.161453 0.927144,-0.199892 1.256059,-0.08043 0.161749,0.05875 0.212102,0.04561 0.436276,-0.113818 0.366382,-0.260569 0.899984,-0.450052 1.373703,-0.487805 0.942665,-0.07512 1.932585,0.437269 2.44165,1.263829 l 0.185072,0.3005 0.484988,0.02665 c 0.358504,0.0197 0.572918,0.06863 0.822139,0.187627 0.371101,0.177188 0.87048,0.628172 1.083754,0.978729 0.195866,0.321944 0.377445,0.921806 0.377445,1.246926 0,0.191756 0.02459,0.278388 0.07903,0.278388 0.193314,0 0.807103,0.394406 1.118165,0.718505 0.377967,0.393808 0.648406,0.89827 0.747099,1.393596 l 0.06511,0.326779 0.323311,0.07538 c 1.178943,0.274894 1.567169,1.866376 0.653957,2.680812 -0.562299,0.501481 -1.407055,0.496516 -1.928949,-0.01134 l -0.151009,-0.146947 -0.32387,0.182768 c -0.883967,0.498844 -1.97291,0.454876 -2.811558,-0.113524 l -0.266108,-0.18038 -0.211884,0.144562 c -0.116536,0.07951 -0.424147,0.219624 -0.683582,0.311371 -0.385323,0.136266 -0.579666,0.167311 -1.061321,0.169539 -0.674292,0.0031 -1.087855,-0.10166 -1.673869,-0.424076 l -0.376701,-0.207256 -0.104331,0.138196 c -0.05738,0.07601 -0.245982,0.218521 -0.419107,0.316697 -0.436968,0.247796 -0.955523,0.255784 -1.389222,0.0214 l -0.302797,-0.163639 -0.349282,0.146994 c -0.480962,0.202411 -1.059235,0.240717 -1.549249,0.102628 z m 1.353684,-0.54157 c 0.187946,-0.07835 0.238485,-0.127453 0.208762,-0.202826 -0.115474,-0.29284 -0.154856,-0.56612 -0.127267,-0.883171 l 0.03078,-0.353692 -0.37108,-0.371263 c -0.520747,-0.521004 -0.914986,-1.358074 -0.914986,-1.942745 0,-0.245615 -0.08645,-0.260442 -0.449832,-0.07715 -0.361708,0.182439 -0.721485,0.583021 -0.92131,1.025807 -0.159391,0.353189 -0.171668,0.428441 -0.150338,0.921502 0.0273,0.630951 0.164579,0.982003 0.542444,1.387092 0.24329,0.260819 0.653443,0.506679 1.0016,0.600395 0.263271,0.07087 0.861471,0.01686 1.151231,-0.103941 z m 1.878592,0.0634 c 0.216372,-0.0942 0.485348,-0.315892 0.485348,-0.400036 0,-0.02402 -0.119176,-0.194497 -0.264837,-0.378846 -0.14566,-0.184347 -0.357878,-0.544993 -0.471595,-0.801434 l -0.206759,-0.466258 -0.18729,0.05597 c -0.213798,0.06389 -0.492018,0.318548 -0.614169,0.562162 -0.04575,0.09124 -0.08318,0.293039 -0.08318,0.448443 0,0.747992 0.700613,1.259434 1.342482,0.980003 z m 3.644057,-0.02891 c 1.637202,-0.436275 2.609053,-2.182839 2.157893,-3.878058 -0.399692,-1.501822 -1.83918,-2.481784 -3.323387,-2.262463 -1.206336,0.178259 -2.271161,1.211629 -2.517678,2.443305 -0.338328,1.690383 0.700452,3.363618 2.315414,3.729594 0.51487,0.116678 0.837017,0.109052 1.367758,-0.03238 z m 3.456904,0.05499 c 1.133329,-0.250285 1.877476,-1.273303 1.803213,-2.47897 -0.05122,-0.831635 -0.53325,-1.571093 -1.270722,-1.949365 -0.321187,-0.164747 -0.462908,-0.199352 -0.890624,-0.21747 -0.279762,-0.01185 -0.541638,0.0021 -0.581946,0.03087 -0.05701,0.04078 -0.04618,0.132784 0.0488,0.414339 0.367328,1.088914 0.113147,2.473105 -0.626705,3.412838 -0.144496,0.183534 -0.262721,0.349537 -0.262721,0.368897 0,0.07003 0.46209,0.30361 0.772873,0.39069 0.394088,0.110421 0.608264,0.116406 1.007833,0.02816 z m 2.880881,-0.141183 c 0.398628,-0.274857 0.539871,-0.866758 0.321307,-1.346492 -0.117775,-0.258505 -0.425187,-0.498032 -0.720692,-0.561543 -0.173106,-0.03721 -0.192363,-0.02577 -0.223229,0.132608 -0.09507,0.487762 -0.236856,0.856042 -0.467626,1.214602 -0.235366,0.365705 -0.247669,0.403914 -0.157451,0.488983 0.327428,0.308738 0.859668,0.339385 1.247691,0.07184 z m -10.828725,-2.301006 0.289537,-0.112534 -0.01173,-0.45435 c -0.01275,-0.493558 0.13959,-1.230795 0.337282,-1.632288 l 0.115146,-0.233849 -0.141708,-0.291368 c -0.180212,-0.370536 -0.317612,-0.917876 -0.317612,-1.265218 0,-0.263808 -0.0038,-0.269228 -0.162147,-0.22897 -0.302031,0.07681 -0.750638,0.324351 -1.003157,0.553548 -1.100433,0.998806 -1.146911,2.807041 -0.0987,3.839945 l 0.313442,0.308864 0.195057,-0.185623 c 0.10728,-0.102097 0.325348,-0.236264 0.484595,-0.298157 z m 7.338784,-2.694363 0.434617,-0.03515 -0.03517,-0.309373 c -0.0709,-0.623762 -0.513548,-1.264799 -1.082002,-1.566958 -0.212127,-0.112754 -0.946018,-0.290852 -0.99372,-0.241151 -0.01137,0.01186 0.0048,0.208732 0.03586,0.437512 0.0311,0.22878 0.04186,0.476887 0.02392,0.55135 -0.02605,0.108148 0.07177,0.248628 0.486187,0.6982 0.331292,0.359395 0.550765,0.55159 0.607243,0.531767 0.04864,-0.01708 0.284021,-0.04687 0.523062,-0.06619 z M 15.42006,14.137276 c 0.5887,-0.30787 1.037554,-0.400996 1.758593,-0.364864 0.41758,0.02092 0.733628,0.07348 0.968548,0.161033 0.19179,0.07148 0.362182,0.115934 0.37865,0.09877 0.06135,-0.06392 -0.119212,-0.855806 -0.262134,-1.149672 -0.461766,-0.949443 -1.614982,-1.478376 -2.590943,-1.188359 -0.661019,0.196427 -1.223439,0.701877 -1.513452,1.36015 -0.178262,0.404621 -0.190644,1.32197 -0.02375,1.75986 l 0.110661,0.29035 0.400053,-0.385915 c 0.220032,-0.212254 0.56823,-0.473865 0.773774,-0.581358 z m -2.17677,-0.810539 0.338662,-0.09693 0.25798,-0.535576 0.257981,-0.535575 -0.154427,-0.009 c -0.791339,-0.04576 -1.312911,0.362076 -1.446575,1.131136 -0.05409,0.311203 -0.0099,0.3607 0.216612,0.242514 0.105108,-0.05485 0.343501,-0.143336 0.529767,-0.196644 z"
       id="path834-9"
       inkscape:connector-curvature="0" />
  </g>
  <g
     id="g2163"
     transform="translate(28.394708,7.0060971)">
    <g
       id="g2175">
      <ellipse
         ry="2.3443015"
         rx="2.25"
         id="circle14"
         cy="8.2686806"
         cx="-9.3895216"
         style="fill:#e8eaeb;fill-opacity:1;stroke:#5e737b;stroke-width:0.51037037;stroke-linecap:round;stroke-linejoin:round;stroke-opacity:1" />
      <ellipse
         ry="1.3023897"
         rx="1.25"
         id="circle16"
         cy="12.436328"
         cx="-4.8895197"
         style="fill:#e8eaeb;fill-opacity:1;stroke:#5e737b;stroke-width:0.51037037;stroke-linecap:round;stroke-linejoin:round;stroke-opacity:1" />
      <ellipse
         ry="2.6047795"
         rx="2.5"
         id="circle18"
         cy="11.133938"
         cx="-7.6395221"
         style="fill:#e8eaeb;fill-opacity:1;stroke:#5e737b;stroke-width:0.51037037;stroke-linecap:round;stroke-linejoin:round;stroke-opacity:1" />
      <ellipse
         ry="2.3443015"
         rx="2.25"
         id="circle20"
         cy="11.394416"
         cx="-16.889523"
         style="fill:#e8eaeb;fill-opacity:1;stroke:#5e737b;stroke-width:0.51037037;stroke-linecap:round;stroke-linejoin:round;stroke-opacity:1" />
      <ellipse
         ry="1.5628676"
         rx="1.5"
         id="circle22"
         cy="6.4453344"
         cx="-14.639521"
         style="fill:#e8eaeb;fill-opacity:1;stroke:#5e737b;stroke-width:0.51037037;stroke-linecap:round;stroke-linejoin:round;stroke-opacity:1" />
      <ellipse
         ry="2.8652575"
         rx="2.75"
         id="circle24"
         cy="9.3105917"
         cx="-14.389523"
         style="fill:#e8eaeb;fill-opacity:1;stroke:#5e737b;stroke-width:0.51037037;stroke-linecap:round;stroke-linejoin:round;stroke-opacity:1" />
      <ellipse
         ry="1.3023897"
         rx="1.25"
         id="circle26"
         cy="12.436328"
         cx="-14.639521"
         style="fill:#e8eaeb;fill-opacity:1;stroke:#5e737b;stroke-width:0.51037037;stroke-linecap:round;stroke-linejoin:round;stroke-opacity:1" />
      <ellipse
         ry="2.6047795"
         rx="2.5"
         id="circle28"
         cy="6.9662905"
         cx="-12.13952"
         style="fill:#e8eaeb;fill-opacity:1;stroke:#5e737b;stroke-width:0.51037037;stroke-linecap:round;stroke-linejoin:round;stroke-opacity:1" />
      <ellipse
         ry="3.3862133"
         rx="3.25"
         id="circle30"
         cy="10.352504"
         cx="-11.389523"
         style="fill:#e8eaeb;fill-opacity:1;stroke:#5e737b;stroke-width:0.51037037;stroke-linecap:round;stroke-linejoin:round;stroke-opacity:1" />
      <path
         inkscape:connector-curvature="0"
         id="path834"
         d="m -17.527282,13.8906 c -0.727206,-0.204937 -1.279119,-0.691582 -1.610312,-1.41988 -0.172523,-0.379382 -0.185035,-0.452593 -0.185035,-1.082665 0,-0.634032 0.01176,-0.701628 0.190324,-1.094441 0.304176,-0.6691219 0.968208,-1.2496389 1.618605,-1.4150369 0.131319,-0.03339 0.174494,-0.09935 0.255789,-0.390712 0.140699,-0.504273 0.354869,-0.914205 0.648517,-1.241297 l 0.25638,-0.285578 -0.0018,-0.467143 c -0.0029,-0.774257 0.344786,-1.370823 0.982614,-1.685918 0.326821,-0.161453 0.927144,-0.199892 1.256059,-0.08043 0.161749,0.05875 0.212102,0.04561 0.436276,-0.113818 0.366382,-0.260569 0.899984,-0.450052 1.373703,-0.487805 0.942665,-0.07512 1.932585,0.437269 2.4416498,1.263829 l 0.1850722,0.3005 0.484988,0.02665 c 0.3585043,0.0197 0.5729176,0.06863 0.8221392,0.187627 0.3711003,0.177188 0.8704795,0.628172 1.0837538,0.978729 0.1958663,0.321944 0.3774444,0.921806 0.3774444,1.246926 0,0.191756 0.02459,0.278388 0.079031,0.278388 0.1933142,0 0.8071031,0.394406 1.1181651,0.718505 0.3779673,0.393808 0.648406,0.8982699 0.7470997,1.3935959 l 0.06511,0.326779 0.323311,0.07538 c 1.1789424,0.274894 1.5671689,1.866376 0.6539571,2.680812 -0.5622995,0.501481 -1.4070558,0.496516 -1.9289491,-0.01134 l -0.151009,-0.146947 -0.32387,0.182768 c -0.8839676,0.498844 -1.9729104,0.454876 -2.8115587,-0.113524 l -0.2661077,-0.18038 -0.2118843,0.144562 c -0.1165358,0.07951 -0.4241465,0.219624 -0.6835815,0.311371 -0.385323,0.136266 -0.579666,0.167311 -1.061321,0.169539 -0.674292,0.0031 -1.087855,-0.10166 -1.673869,-0.424076 l -0.376701,-0.207256 -0.104331,0.138196 c -0.05738,0.07601 -0.245982,0.218521 -0.419107,0.316697 -0.436968,0.247796 -0.955523,0.255784 -1.389222,0.0214 l -0.302797,-0.163639 -0.349282,0.146994 c -0.480962,0.202411 -1.059235,0.240717 -1.549249,0.102628 z m 1.353684,-0.54157 c 0.187946,-0.07835 0.238485,-0.127453 0.208762,-0.202826 -0.115474,-0.29284 -0.154856,-0.56612 -0.127267,-0.883171 l 0.03078,-0.353692 -0.37108,-0.371263 c -0.520747,-0.521004 -0.914986,-1.358074 -0.914986,-1.9427449 0,-0.245615 -0.08645,-0.260442 -0.449832,-0.07715 -0.361708,0.182439 -0.721485,0.5830209 -0.92131,1.0258069 -0.159391,0.353189 -0.171668,0.428441 -0.150338,0.921502 0.0273,0.630951 0.164579,0.982003 0.542444,1.387092 0.24329,0.260819 0.653443,0.506679 1.0016,0.600395 0.263271,0.07087 0.861471,0.01686 1.151231,-0.103941 z m 1.878592,0.0634 c 0.216372,-0.0942 0.485348,-0.315892 0.485348,-0.400036 0,-0.02402 -0.119176,-0.194497 -0.264837,-0.378846 -0.14566,-0.184347 -0.357878,-0.544993 -0.471595,-0.801434 l -0.206759,-0.466258 -0.18729,0.05597 c -0.213798,0.06389 -0.492018,0.318548 -0.614169,0.562162 -0.04575,0.09124 -0.08318,0.293039 -0.08318,0.448443 0,0.747992 0.700613,1.259434 1.342482,0.980003 z m 3.644057,-0.02891 c 1.6372022,-0.436275 2.6090533,-2.182839 2.1578925,-3.8780579 -0.3996916,-1.501822 -1.8391795,-2.481784 -3.3233865,-2.262463 -1.206336,0.178259 -2.271161,1.211629 -2.517678,2.443305 -0.338328,1.6903829 0.700452,3.3636179 2.315414,3.7295939 0.51487,0.116678 0.837017,0.109052 1.367758,-0.03238 z m 3.4569036,0.05499 c 1.1333292,-0.250285 1.8774759,-1.273303 1.8032134,-2.47897 -0.05122,-0.831635 -0.5332504,-1.5710929 -1.270722,-1.9493649 -0.321187,-0.164747 -0.4629079,-0.199352 -0.8906246,-0.21747 -0.2797618,-0.01185 -0.5416374,0.0021 -0.5819457,0.03087 -0.05701,0.04078 -0.04618,0.132784 0.0488,0.414339 0.3673283,1.0889139 0.1131467,2.4731049 -0.6267049,3.4128379 -0.1444959,0.183534 -0.2627207,0.349537 -0.2627207,0.368897 0,0.07003 0.4620899,0.30361 0.7728729,0.39069 0.3940875,0.110421 0.6082638,0.116406 1.0078333,0.02816 z m 2.8808812,-0.141183 c 0.3986285,-0.274857 0.5398714,-0.866758 0.321307,-1.346492 -0.1177747,-0.258505 -0.4251867,-0.498032 -0.7206915,-0.561543 -0.1731061,-0.03721 -0.1923632,-0.02577 -0.2232294,0.132608 -0.095071,0.487762 -0.2368565,0.856042 -0.467626,1.214602 -0.2353665,0.365705 -0.2476695,0.403914 -0.157451,0.488983 0.3274281,0.308738 0.8596684,0.339385 1.2476909,0.07184 z m -10.8287248,-2.301006 0.289537,-0.112534 -0.01173,-0.45435 c -0.01275,-0.4935579 0.13959,-1.2307949 0.337282,-1.6322879 l 0.115146,-0.233849 -0.141708,-0.291368 c -0.180212,-0.370536 -0.317612,-0.917876 -0.317612,-1.265218 0,-0.263808 -0.0038,-0.269228 -0.162147,-0.22897 -0.302031,0.07681 -0.750638,0.324351 -1.003157,0.553548 -1.100433,0.998806 -1.146911,2.8070409 -0.0987,3.8399449 l 0.313442,0.308864 0.195057,-0.185623 c 0.10728,-0.102097 0.325348,-0.236264 0.484595,-0.298157 z m 7.3387838,-2.6943629 0.4346167,-0.03515 -0.03517,-0.309373 c -0.0709,-0.623762 -0.5135472,-1.264799 -1.0820018,-1.566958 -0.2121273,-0.112754 -0.946018,-0.290852 -0.9937203,-0.241151 -0.01137,0.01186 0.0048,0.208732 0.03586,0.437512 0.0311,0.22878 0.04186,0.476887 0.02392,0.55135 -0.02605,0.108148 0.07177,0.248628 0.4861871,0.6982 0.3312921,0.359395 0.5507654,0.55159 0.6072438,0.531767 0.04864,-0.01708 0.2840208,-0.04687 0.5230613,-0.06619 z m -5.1715428,-1.170784 c 0.5887,-0.30787 1.037554,-0.400996 1.758593,-0.364864 0.41758,0.02092 0.733628,0.07348 0.968548,0.161033 0.19179,0.07148 0.3621817,0.115934 0.3786498,0.09877 0.06135,-0.06392 -0.1192118,-0.855806 -0.2621338,-1.149672 -0.461766,-0.949443 -1.614982,-1.478376 -2.590943,-1.188359 -0.661019,0.196427 -1.223439,0.701877 -1.513452,1.36015 -0.178262,0.404621 -0.190644,1.32197 -0.02375,1.75986 l 0.110661,0.29035 0.400053,-0.385915 c 0.220032,-0.212254 0.56823,-0.473865 0.773774,-0.581358 z m -2.17677,-0.810539 0.338662,-0.09693 0.25798,-0.535576 0.257981,-0.535575 -0.154427,-0.009 c -0.791339,-0.04576 -1.312911,0.362076 -1.446575,1.131136 -0.05409,0.311203 -0.0099,0.3607 0.216612,0.242514 0.105108,-0.05485 0.343501,-0.143336 0.529767,-0.196644 z"
         style="opacity:1;fill:url(#linearGradient834);fill-opacity:1;fill-rule:nonzero;stroke:none;stroke-width:0.00517592;stroke-miterlimit:4;stroke-dasharray:none;stroke-opacity:1;paint-order:markers stroke fill" />
    </g>
  </g>
</svg>
