<?xml version="1.0" encoding="UTF-8" standalone="no"?>
<svg
   xmlns:dc="http://purl.org/dc/elements/1.1/"
   xmlns:cc="http://creativecommons.org/ns#"
   xmlns:rdf="http://www.w3.org/1999/02/22-rdf-syntax-ns#"
   xmlns:svg="http://www.w3.org/2000/svg"
   xmlns="http://www.w3.org/2000/svg"
   xmlns:xlink="http://www.w3.org/1999/xlink"
   xmlns:sodipodi="http://sodipodi.sourceforge.net/DTD/sodipodi-0.dtd"
   xmlns:inkscape="http://www.inkscape.org/namespaces/inkscape"
   width="32"
   height="32"
   version="1"
   id="svg14"
   sodipodi:docname="folder-steam.svg"
   inkscape:version="0.92.4 5da689c313, 2019-01-14">
  <metadata
     id="metadata20">
    <rdf:RDF>
      <cc:Work
         rdf:about="">
        <dc:format>image/svg+xml</dc:format>
        <dc:type
           rdf:resource="http://purl.org/dc/dcmitype/StillImage" />
        <dc:title />
      </cc:Work>
    </rdf:RDF>
  </metadata>
  <defs
     id="defs18">
    <linearGradient
       id="linearGradient990"
       inkscape:collect="always">
      <stop
         id="stop986"
         offset="0"
         style="stop-color:#5e737b;stop-opacity:1" />
      <stop
         id="stop988"
         offset="1"
         style="stop-color:#a0b1b7;stop-opacity:1" />
    </linearGradient>
    <linearGradient
       inkscape:collect="always"
       id="linearGradient889">
      <stop
         style="stop-color:#8998ad;stop-opacity:1"
         offset="0"
         id="stop885" />
      <stop
         style="stop-color:#e8eaeb;stop-opacity:1"
         offset="1"
         id="stop887" />
    </linearGradient>
    <linearGradient
       inkscape:collect="always"
       xlink:href="#linearGradient990"
       id="linearGradient975"
       x1="-5.667089"
       y1="22.200636"
       x2="-5.5973864"
       y2="10.717914"
       gradientUnits="userSpaceOnUse"
       gradientTransform="matrix(1.8471453,0,0,1.9122993,26.881076,-14.456689)" />
    <linearGradient
       inkscape:collect="always"
       xlink:href="#linearGradient889"
       id="linearGradient891-3-3"
       x1="-34.169491"
       y1="21.288134"
       x2="-13.152548"
       y2="7.4576306"
       gradientUnits="userSpaceOnUse"
       gradientTransform="matrix(1.2272405,0,0,1.5527586,46.26793,-6.9461714)" />
    <filter
       inkscape:collect="always"
       style="color-interpolation-filters:sRGB"
       id="filter893"
       x="-0.010995989"
       width="1.021992"
       y="-0.013205781"
       height="1.0264116">
      <feGaussianBlur
         inkscape:collect="always"
         stdDeviation="0.11817953"
         id="feGaussianBlur895" />
    </filter>
    <filter
       inkscape:collect="always"
       style="color-interpolation-filters:sRGB"
       id="filter1061"
       x="-0.010875"
       width="1.02175"
       y="-0.013384616"
       height="1.0267692">
      <feGaussianBlur
         inkscape:collect="always"
         stdDeviation="0.072500001"
         id="feGaussianBlur1063" />
    </filter>
  </defs>
  <sodipodi:namedview
     pagecolor="#ffffff"
     bordercolor="#666666"
     borderopacity="1"
     objecttolerance="10"
     gridtolerance="10"
     guidetolerance="10"
     inkscape:pageopacity="0"
     inkscape:pageshadow="2"
     inkscape:window-width="1002"
     inkscape:window-height="789"
     id="namedview16"
     showgrid="false"
     inkscape:zoom="17.56"
     inkscape:cx="17.169482"
     inkscape:cy="16.056948"
     inkscape:window-x="415"
     inkscape:window-y="124"
     inkscape:window-maximized="0"
     inkscape:current-layer="svg14"
     showguides="true"
     inkscape:guide-bbox="true"
     inkscape:snap-global="true" />
  <path
     id="path25-2"
     style="opacity:1;fill:#5e737b;fill-opacity:1;stroke:#a0b1b7;stroke-width:0.1;stroke-miterlimit:4;stroke-dasharray:none;stroke-opacity:1"
     d="m 19.993088,2.1391705 c -2.39087,0 -3.166896,1.9512996 -4.394979,3.8999983 H 4.13978 c -1.7391529,0 -3.1392677,1.4495 -3.1392677,3.2499997 v 1.3000005 11.049997 1.949998 1.137501 0.162507 c 0.0076,0.180693 0.0452,0.3562 0.079111,0.527801 0.1494339,0.898298 0.644175,1.665299 1.3737426,2.152797 0.3478302,0.232701 0.7496567,0.401702 1.1778524,0.487501 0.2134674,0.04549 0.4005666,0.0819 0.62785,0.0819 H 27.882695 c 0.227284,0 0.414383,-0.0351 0.627854,-0.0819 0.42694,-0.0858 0.828767,-0.2548 1.176599,-0.487501 0.729564,-0.487498 1.223057,-1.254499 1.373741,-2.152797 0.0339,-0.171592 0.07032,-0.348401 0.07911,-0.527801 V 24.726665 23.589164 5.5516683 c 0,-1.9005998 -1.442807,-3.4124978 -3.257305,-3.4124978 H 19.9956 Z"
     inkscape:connector-curvature="0" />
  <rect
     ry="1.7347755"
     inkscape:transform-center-y="-6.389833"
     inkscape:transform-center-x="4.5837926"
     transform="matrix(0.99999999,1.0483019e-4,-6.5484411e-5,1,0,0)"
     y="4.6337261"
     x="4.333746"
     height="21.475441"
     width="25.79285"
     id="rect883-5-5-3"
     style="opacity:0.647;vector-effect:none;fill:#000000;fill-opacity:1;fill-rule:nonzero;stroke:none;stroke-width:0.20038263;stroke-linecap:butt;stroke-linejoin:miter;stroke-miterlimit:4;stroke-dasharray:none;stroke-dashoffset:0;stroke-opacity:1;paint-order:markers stroke fill;filter:url(#filter893)" />
  <rect
     ry="1.7347755"
     inkscape:transform-center-y="-6.389833"
     inkscape:transform-center-x="4.5837926"
     transform="matrix(0.99999999,1.0483019e-4,-6.5484411e-5,1,0,0)"
     y="4.6337266"
     x="4.333746"
     height="21.475441"
     width="25.79285"
     id="rect883-5-5"
     style="opacity:1;vector-effect:none;fill:url(#linearGradient891-3-3);fill-opacity:1;fill-rule:nonzero;stroke:none;stroke-width:0.20038263;stroke-linecap:butt;stroke-linejoin:miter;stroke-miterlimit:4;stroke-dasharray:none;stroke-dashoffset:0;stroke-opacity:1;paint-order:markers stroke fill" />
  <path
     id="path25"
     style="opacity:1;fill:url(#linearGradient975);fill-opacity:1;stroke:#5e737b;stroke-width:0.1;stroke-miterlimit:4;stroke-dasharray:none;stroke-opacity:1"
     d="m 12.146913,2.1391705 c 2.39087,0 3.166896,1.9512996 4.394979,3.8999983 h 11.458327 c 1.739153,0 3.139268,1.4495 3.139268,3.2499997 v 1.3000005 11.049995 1.949998 1.137501 0.162507 c -0.0076,0.180693 -0.0452,0.3562 -0.07911,0.527801 -0.149434,0.898298 -0.644177,1.665299 -1.373744,2.152797 -0.34783,0.232701 -0.749656,0.401702 -1.177853,0.487501 -0.213466,0.04549 -0.400565,0.0819 -0.62785,0.0819 H 4.2573048 c -0.2272835,0 -0.4143826,-0.03509 -0.627854,-0.0819 -0.4269397,-0.0858 -0.8287662,-0.2548 -1.1765984,-0.487501 C 1.7232878,27.08227 1.2297947,26.315269 1.0791108,25.416971 1.0452205,25.24538 1.0087903,25.06857 1.0000003,24.88917 V 24.726663 23.589162 5.5516683 c 0,-1.9005998 1.442807,-3.4124978 3.2573045,-3.4124978 h 7.8870962 z"
     inkscape:connector-curvature="0" />
  <path
     style="opacity:0.647;fill:#000000;fill-opacity:1;filter:url(#filter1061)"
     d="M 8.0999997,17.856 11.108,19.593 C 11.103,19.662 11.1,19.731 11.1,19.8 c 0,1.657 1.343,3 3,3 1.657,0 3,-1.343 3,-3 -0.002,-0.137 -0.013,-0.273 -0.033,-0.408 l 3.638,-2.598 c 1.89,-0.057 3.393,-1.604 3.395,-3.494 0,-1.933 -1.567,-3.5 -3.5,-3.5 -1.933,0 -3.501,1.567 -3.5,3.514 l -2.322,3.568 C 14.556,16.829 14.328,16.801 14.1,16.8 c -0.453,10e-4 -0.9,0.105 -1.307,0.303 L 8.0999997,14.394 M 20.6,10.8 c 1.381,0 2.5,1.119 2.5,2.5 0,1.381 -1.119,2.5 -2.5,2.5 -1.381,0 -2.5,-1.119 -2.5,-2.5 0,-1.381 1.119,-2.5 2.5,-2.5 z m 0,1 c -0.828,0 -1.5,0.672 -1.5,1.5 0,0.828 0.672,1.5 1.5,1.5 0.828,0 1.5,-0.672 1.5,-1.5 0,-0.828 -0.672,-1.5 -1.5,-1.5 z m -6.5,6 c 1.105,0 2,0.895 2,2 0,1.105 -0.895,2 -2,2 -0.954,-0.001 -1.774,-0.676 -1.959,-1.611 l 0.705,0.408 c 0.72,0.415 1.633,0.171 2.049,-0.549 0.415,-0.72 0.171,-1.633 -0.549,-2.049 L 14.008,17.804 C 14.039,17.802 14.069,17.801 14.1,17.8 Z"
     id="path14-3"
     inkscape:connector-curvature="0" />
  <path
     style="opacity:1;fill:#e8eaeb;fill-opacity:1"
     d="m 8.1,17.856 3.008,1.737 C 11.103,19.662 11.1,19.731 11.1,19.8 c 0,1.657 1.343,3 3,3 1.657,0 3,-1.343 3,-3 -0.002,-0.137 -0.013,-0.273 -0.033,-0.408 l 3.638,-2.598 c 1.89,-0.057 3.393,-1.604 3.395,-3.494 0,-1.933 -1.567,-3.5 -3.5,-3.5 -1.933,0 -3.501,1.567 -3.5,3.514 l -2.322,3.568 C 14.556,16.829 14.328,16.801 14.1,16.8 c -0.453,10e-4 -0.9,0.105 -1.307,0.303 L 8.1,14.394 M 20.6,10.8 c 1.381,0 2.5,1.119 2.5,2.5 0,1.381 -1.119,2.5 -2.5,2.5 -1.381,0 -2.5,-1.119 -2.5,-2.5 0,-1.381 1.119,-2.5 2.5,-2.5 z m 0,1 c -0.828,0 -1.5,0.672 -1.5,1.5 0,0.828 0.672,1.5 1.5,1.5 0.828,0 1.5,-0.672 1.5,-1.5 0,-0.828 -0.672,-1.5 -1.5,-1.5 z m -6.5,6 c 1.105,0 2,0.895 2,2 0,1.105 -0.895,2 -2,2 -0.954,-0.001 -1.774,-0.676 -1.959,-1.611 l 0.705,0.408 c 0.72,0.415 1.633,0.171 2.049,-0.549 0.415,-0.72 0.171,-1.633 -0.549,-2.049 L 14.008,17.804 C 14.039,17.802 14.069,17.801 14.1,17.8 Z"
     id="path14"
     inkscape:connector-curvature="0" />
</svg>
