<?xml version="1.0" encoding="UTF-8" standalone="no"?>
<svg
   xmlns:dc="http://purl.org/dc/elements/1.1/"
   xmlns:cc="http://creativecommons.org/ns#"
   xmlns:rdf="http://www.w3.org/1999/02/22-rdf-syntax-ns#"
   xmlns:svg="http://www.w3.org/2000/svg"
   xmlns="http://www.w3.org/2000/svg"
   xmlns:xlink="http://www.w3.org/1999/xlink"
   xmlns:sodipodi="http://sodipodi.sourceforge.net/DTD/sodipodi-0.dtd"
   xmlns:inkscape="http://www.inkscape.org/namespaces/inkscape"
   width="32"
   height="32"
   version="1"
   id="svg14"
   sodipodi:docname="folder-mail.svg"
   inkscape:version="0.92.4 5da689c313, 2019-01-14">
  <metadata
     id="metadata20">
    <rdf:RDF>
      <cc:Work
         rdf:about="">
        <dc:format>image/svg+xml</dc:format>
        <dc:type
           rdf:resource="http://purl.org/dc/dcmitype/StillImage" />
        <dc:title />
      </cc:Work>
    </rdf:RDF>
  </metadata>
  <defs
     id="defs18">
    <linearGradient
       id="linearGradient990"
       inkscape:collect="always">
      <stop
         id="stop986"
         offset="0"
         style="stop-color:#5e737b;stop-opacity:1" />
      <stop
         id="stop988"
         offset="1"
         style="stop-color:#a0b1b7;stop-opacity:1" />
    </linearGradient>
    <linearGradient
       inkscape:collect="always"
       id="linearGradient827">
      <stop
         style="stop-color:#5e737b;stop-opacity:1"
         offset="0"
         id="stop823" />
      <stop
         style="stop-color:#ccd7db;stop-opacity:1"
         offset="1"
         id="stop825" />
    </linearGradient>
    <linearGradient
       inkscape:collect="always"
       id="linearGradient889">
      <stop
         style="stop-color:#8998ad;stop-opacity:1"
         offset="0"
         id="stop885" />
      <stop
         style="stop-color:#e8eaeb;stop-opacity:1"
         offset="1"
         id="stop887" />
    </linearGradient>
    <linearGradient
       inkscape:collect="always"
       xlink:href="#linearGradient990"
       id="linearGradient975"
       x1="-5.667089"
       y1="22.200636"
       x2="-5.5973864"
       y2="10.717914"
       gradientUnits="userSpaceOnUse"
       gradientTransform="matrix(1.8471337,0,0,1.8471337,-1.6973853,-28.433842)" />
    <linearGradient
       inkscape:collect="always"
       xlink:href="#linearGradient889"
       id="linearGradient891-3-3"
       x1="-34.169491"
       y1="21.288134"
       x2="-13.152548"
       y2="7.4576306"
       gradientUnits="userSpaceOnUse"
       gradientTransform="matrix(1.2272328,0,0,1.4998451,17.688366,-21.176367)" />
    <linearGradient
       gradientTransform="translate(3.6887887,-17.017371)"
       inkscape:collect="always"
       xlink:href="#linearGradient827"
       id="linearGradient1037"
       x1="-8.0969543"
       y1="11.094899"
       x2="-8.1753788"
       y2="4.9379373"
       gradientUnits="userSpaceOnUse" />
    <filter
       inkscape:collect="always"
       style="color-interpolation-filters:sRGB"
       id="filter1086"
       x="-0.094350429"
       width="1.1887009"
       y="-0.097678411"
       height="1.1953568">
      <feGaussianBlur
         inkscape:collect="always"
         stdDeviation="0.47174913"
         id="feGaussianBlur1088" />
    </filter>
    <filter
       inkscape:collect="always"
       style="color-interpolation-filters:sRGB"
       id="filter1294"
       x="-0.086456369"
       width="1.1729127"
       y="-0.10749328"
       height="1.2149866">
      <feGaussianBlur
         inkscape:collect="always"
         stdDeviation="0.92918504"
         id="feGaussianBlur1296" />
    </filter>
  </defs>
  <sodipodi:namedview
     pagecolor="#ffffff"
     bordercolor="#666666"
     borderopacity="1"
     objecttolerance="10"
     gridtolerance="10"
     guidetolerance="10"
     inkscape:pageopacity="0"
     inkscape:pageshadow="2"
     inkscape:window-width="1002"
     inkscape:window-height="789"
     id="namedview16"
     showgrid="false"
     inkscape:zoom="17.56"
     inkscape:cx="16"
     inkscape:cy="18.334852"
     inkscape:window-x="247"
     inkscape:window-y="143"
     inkscape:window-maximized="0"
     inkscape:current-layer="g872"
     showguides="true"
     inkscape:guide-bbox="true"
     inkscape:snap-global="true" />
  <g
     id="g872"
     transform="matrix(1.0000063,0,0,1.0352793,28.578472,14.980279)">
    <path
       inkscape:connector-curvature="0"
       d="m -8.5853303,-12.403521 c -2.3908547,0 -3.1668757,1.884805 -4.3949507,3.7670978 h -11.458257 c -1.739142,0 -3.139248,1.4001052 -3.139248,3.1392492 v 1.2557 10.6734457 1.883548 1.098738 0.156969 c 0.0076,0.174536 0.0452,0.344062 0.07911,0.5098153 0.149433,0.867687 0.644171,1.60855 1.373734,2.079436 0.347828,0.224771 0.749652,0.388013 1.177845,0.470888 0.213466,0.04394 0.400564,0.07911 0.627846,0.07911 h 23.62347871 c 0.227282,0 0.41438,-0.0339 0.62785,-0.07911 0.426937,-0.08288 0.828761,-0.246117 1.17659099,-0.470888 0.72956,-0.470886 1.22305,-1.211749 1.373733,-2.079436 0.0339,-0.1657443 0.07032,-0.3365283 0.07911,-0.5098153 V 9.4142577 8.3155197 -9.1073111 c 0,-1.8358329 -1.442798,-3.2962099 -3.25728399,-3.2962099 H -8.5828173 Z"
       style="opacity:1;fill:url(#linearGradient1037);fill-opacity:1;stroke:none;stroke-width:1.2556994"
       id="path25-2" />
    <rect
       style="opacity:0.647;vector-effect:none;fill:#000813;fill-opacity:1;fill-rule:nonzero;stroke:none;stroke-width:0.19693819;stroke-linecap:butt;stroke-linejoin:miter;stroke-miterlimit:4;stroke-dasharray:none;stroke-dashoffset:0;stroke-opacity:1;paint-order:markers stroke fill;filter:url(#filter1294)"
       id="rect883-5-5-3"
       width="25.792688"
       height="20.74362"
       x="-24.245554"
       y="-9.9910784"
       transform="matrix(0.99999999,1.0125852e-4,-6.7794228e-5,1,0,0)"
       inkscape:transform-center-x="4.5837926"
       inkscape:transform-center-y="-6.389833"
       ry="1.6756594" />
    <rect
       style="opacity:1;vector-effect:none;fill:url(#linearGradient891-3-3);fill-opacity:1;fill-rule:nonzero;stroke:none;stroke-width:0.19693819;stroke-linecap:butt;stroke-linejoin:miter;stroke-miterlimit:4;stroke-dasharray:none;stroke-dashoffset:0;stroke-opacity:1;paint-order:markers stroke fill"
       id="rect883-5-5"
       width="25.792688"
       height="20.74362"
       x="-24.245554"
       y="-9.9910784"
       transform="matrix(0.99999999,1.0125852e-4,-6.7794228e-5,1,0,0)"
       inkscape:transform-center-x="4.5837926"
       inkscape:transform-center-y="-6.389833"
       ry="1.6756594" />
    <path
       inkscape:connector-curvature="0"
       d="m -16.431455,-12.403521 c 2.390854,0 3.166876,1.884805 4.394951,3.7670978 h 11.45825471 c 1.73914199,0 3.13924799,1.4001052 3.13924799,3.1392492 v 1.2557 10.6734437 1.883548 1.098738 0.156969 c -0.0076,0.174536 -0.0452,0.344062 -0.07911,0.5098153 -0.149433,0.867687 -0.644173,1.60855 -1.373736,2.079436 -0.34782799,0.224771 -0.74965099,0.388013 -1.17784499,0.470888 -0.213465,0.04394 -0.400563,0.07911 -0.627846,0.07911 H -24.321014 c -0.227282,0 -0.41438,-0.03389 -0.62785,-0.07911 -0.426937,-0.08288 -0.828761,-0.246117 -1.176591,-0.470888 -0.72956,-0.470886 -1.22305,-1.211749 -1.373733,-2.079436 -0.03389,-0.1657433 -0.07032,-0.3365283 -0.07911,-0.5098153 V 9.4142557 8.3155177 -9.1073111 c 0,-1.8358329 1.442798,-3.2962099 3.257284,-3.2962099 h 7.887047 z"
       style="opacity:1;fill:url(#linearGradient975);fill-opacity:1;stroke:none;stroke-width:1.2556994"
       id="path25" />
    <path
       style="opacity:0.647;fill:#000000;fill-opacity:1;stroke-width:0.98281068;filter:url(#filter1086)"
       d="m -12.578393,-4.5043684 c -3.312979,0 -5.999962,2.595435 -5.999962,5.795538 0,3.201068 2.686983,5.7955372 5.999962,5.7955372 h 3.7499772 c 0,0 0.702995,-0.2907428 0.749995,-1.0151852 0,-0.724442 -0.749995,-0.916661 -0.749995,-0.916661 h -3.7499772 c -0.194999,-9.65e-4 -0.388997,-0.01642 -0.581996,-0.0454 -0.699996,-0.07631 -1.255992,-0.28881 -1.67599,-0.629781 l -0.006,-0.0039 c -1.085994,-0.720577 -1.73599,-1.91156 -1.73599,-3.184646 0,-2.133724 1.790989,-3.863692 3.999975,-3.863692 2.208986,0 3.9999752,1.729968 3.9999752,3.863692 0,0.438529 -0.092,0.719612 -0.239998,0.967855 -0.004,0 -0.007,-0.0019 -0.01,-0.0019 h -0.933994 c 0.111999,-0.303297 0.183998,-0.625915 0.183998,-0.96592 0,-1.600535 -1.3429912,-2.897769 -2.9999812,-2.897769 -1.655989,0 -2.999981,1.297234 -2.999981,2.897769 0,1.600534 1.342992,2.897769 2.999981,2.897769 h 3.7499772 c 0.541996,-0.0483 0.922994,-0.358358 1.269993,-0.556372 0.761994,-0.525462 0.979992,-1.265359 0.979992,-2.341397 0,-3.201069 -2.685983,-5.795538 -5.9999622,-5.795538 z m 0,4.829615 c 0.551997,0 0.999994,0.432733 0.999994,0.965923 0,0.533189 -0.447997,0.965923 -0.999994,0.965923 -0.551996,0 -0.999993,-0.432734 -0.999993,-0.965923 0,-0.53319 0.447997,-0.965923 0.999993,-0.965923 z"
       id="path14-3"
       inkscape:connector-curvature="0" />
    <path
       style="opacity:1;fill:#e8eaeb;fill-opacity:1;stroke-width:0.98281068"
       d="m -12.578393,-4.5043682 c -3.312979,0 -5.999962,2.5954348 -5.999962,5.7955377 0,3.2010681 2.686983,5.7955374 5.999962,5.7955374 h 3.7499772 c 0,0 0.702995,-0.2907428 0.749995,-1.015185 0,-0.7244422 -0.749995,-0.9166608 -0.749995,-0.9166608 h -3.7499772 c -0.194999,-9.659e-4 -0.388997,-0.016421 -0.581996,-0.045398 -0.699996,-0.076308 -1.255992,-0.2888105 -1.67599,-0.6297815 l -0.006,-0.0039 c -1.085994,-0.720579 -1.73599,-1.911562 -1.73599,-3.1846481 0,-2.13372369 1.790989,-3.8636919 3.999975,-3.8636919 2.208986,0 3.9999752,1.72996821 3.9999752,3.8636919 0,0.4385291 -0.092,0.7196121 -0.239998,0.9678551 -0.004,0 -0.007,-0.0019 -0.01,-0.0019 h -0.933994 c 0.111999,-0.3033 0.183998,-0.625918 0.183998,-0.9659231 0,-1.60053482 -1.3429912,-2.8977689 -2.9999812,-2.8977689 -1.655989,0 -2.999981,1.29723408 -2.999981,2.8977689 0,1.6005341 1.342992,2.8977691 2.999981,2.8977691 h 3.7499772 c 0.541996,-0.0483 0.922994,-0.358358 1.269992,-0.556372 0.761995,-0.525462 0.979993,-1.265359 0.979993,-2.3413971 0,-3.2010689 -2.685983,-5.7955377 -5.9999622,-5.7955377 z m 0,4.82961492 c 0.551997,0 0.999994,0.432733 0.999994,0.96592278 0,0.5331891 -0.447997,0.9659231 -0.999994,0.9659231 -0.551996,0 -0.999993,-0.432734 -0.999993,-0.9659231 0,-0.53318978 0.447997,-0.96592278 0.999993,-0.96592278 z"
       id="path14"
       inkscape:connector-curvature="0" />
  </g>
</svg>
