<svg xmlns="http://www.w3.org/2000/svg" xmlns:xlink="http://www.w3.org/1999/xlink" width="32" height="32" version="1"><defs><linearGradient id="a"><stop offset="0" stop-color="#5e737b"/><stop offset="1" stop-color="#a0b1b7"/></linearGradient><linearGradient id="b"><stop offset="0" stop-color="#8998ad"/><stop offset="1" stop-color="#e8eaeb"/></linearGradient><linearGradient xlink:href="#a" id="d" x1="-5.667" y1="22.201" x2="-5.597" y2="10.718" gradientUnits="userSpaceOnUse" gradientTransform="matrix(1.84713 0 0 1.84713 -1.697 -28.434)"/><linearGradient xlink:href="#b" id="c" x1="-34.169" y1="21.288" x2="-13.153" y2="7.458" gradientUnits="userSpaceOnUse" gradientTransform="matrix(1.22723 0 0 1.49985 17.688 -21.176)"/></defs><g transform="matrix(1 0 0 1.03528 28.578 14.98)"><path d="M-8.585-12.404c-2.391 0-3.167 1.885-4.395 3.768H-24.44c-1.739 0-3.139 1.4-3.139 3.139V9.57c.008.175.045.344.08.51.149.868.643 1.609 1.373 2.08.348.224.75.387 1.178.47.213.044.4.08.628.08H-.696c.228 0 .415-.034.628-.08a3.352 3.352 0 0 0 1.177-.47 3.082 3.082 0 0 0 1.373-2.08c.034-.166.07-.336.08-.51V-9.107c0-1.836-1.443-3.297-3.258-3.297h-7.887z" fill="#5e737b" stroke="#a0b1b7" stroke-width=".098"/><rect width="25.793" height="20.744" x="-24.146" y="-9.991" transform="rotate(.008) skewX(.002)" ry="1.676" opacity=".647" fill="#5d6569" paint-order="markers stroke fill"/><rect width="25.793" height="20.744" x="-24.246" y="-9.991" transform="rotate(.008) skewX(.002)" ry="1.676" fill="url(#c)" paint-order="markers stroke fill"/><path d="M-16.431-12.404c2.39 0 3.166 1.885 4.394 3.768H-.578c1.739 0 3.139 1.4 3.139 3.139V9.57c-.008.175-.045.344-.08.51a3.078 3.078 0 0 1-1.373 2.08c-.348.224-.75.387-1.178.47-.213.044-.4.08-.628.08H-24.32c-.227 0-.414-.034-.628-.08a3.352 3.352 0 0 1-1.176-.47 3.082 3.082 0 0 1-1.374-2.08c-.034-.166-.07-.336-.08-.51V-9.107c0-1.836 1.444-3.297 3.258-3.297h7.887z" fill="url(#d)" stroke="#a0b1b7" stroke-width=".098"/><path d="M-10.539-3.796c-.496.017-1.097.28-1.453.633-.319.314-.6.814-.525 1.295.553.036 1.12-.239 1.465-.593.344-.354.577-.845.513-1.335zm-.328 1.937c-.657.05-1.258.468-1.598.468-.387 0-.984-.453-1.619-.442-.834.014-1.604.502-2.033 1.276-.866 1.558-.223 3.866.621 5.13.413.618.968 1.29 1.553 1.29s.857-.42 1.61-.42c.751 0 .953.406 1.62.406.667 0 1.093-.63 1.502-1.25.474-.717.671-1.414.683-1.45-.015-.006-1.306-.517-1.319-2.057-.013-1.29 1.016-1.91 1.062-1.94-.577-.875-1.476-.995-1.797-1.009a1.474 1.474 0 0 0-.285-.002z" opacity=".647" fill="#5d6569"/><path d="M-10.64-3.893c-.495.018-1.096.28-1.452.634-.32.314-.6.813-.525 1.294.553.037 1.12-.238 1.465-.592.344-.354.577-.845.513-1.336zm-.327 1.938c-.657.05-1.258.467-1.598.467-.387 0-.984-.453-1.62-.441-.833.013-1.603.501-2.032 1.276-.866 1.558-.223 3.865.62 5.129.414.618.969 1.29 1.554 1.29.585 0 .857-.419 1.609-.419s.954.406 1.62.406c.668 0 1.094-.63 1.503-1.251.474-.717.67-1.413.683-1.449-.015-.007-1.306-.518-1.32-2.057-.012-1.29 1.017-1.91 1.063-1.94-.577-.875-1.476-.996-1.797-1.01a1.474 1.474 0 0 0-.285-.001z" fill="#e8eaeb"/></g></svg>