<svg xmlns="http://www.w3.org/2000/svg" xmlns:xlink="http://www.w3.org/1999/xlink" width="32" height="32" version="1"><defs><linearGradient id="a"><stop offset="0" stop-color="#5e737b"/><stop offset="1" stop-color="#a0b1b7"/></linearGradient><linearGradient id="b"><stop offset="0" stop-color="#8998ad"/><stop offset="1" stop-color="#e8eaeb"/></linearGradient><linearGradient xlink:href="#a" id="d" x1="-5.667" y1="22.201" x2="-5.597" y2="10.718" gradientUnits="userSpaceOnUse" gradientTransform="matrix(1.84713 0 0 1.84713 -1.697 -28.434)"/><linearGradient xlink:href="#b" id="c" x1="-34.169" y1="21.288" x2="-13.153" y2="7.458" gradientUnits="userSpaceOnUse" gradientTransform="matrix(1.22723 0 0 1.49985 17.688 -21.176)"/></defs><g transform="matrix(1 0 0 1.03528 28.578 14.98)"><path d="M-8.585-12.404c-2.391 0-3.167 1.885-4.395 3.768H-24.44c-1.739 0-3.139 1.4-3.139 3.139V9.57c.008.175.045.344.08.51.149.868.643 1.609 1.373 2.08.348.224.75.387 1.178.47.213.044.4.08.628.08H-.696c.228 0 .415-.034.628-.08a3.352 3.352 0 0 0 1.177-.47 3.082 3.082 0 0 0 1.373-2.08c.034-.166.07-.336.08-.51V-9.107c0-1.836-1.443-3.297-3.258-3.297h-7.887z" fill="#5e737b" stroke="#a0b1b7" stroke-width=".098"/><rect width="25.793" height="20.744" x="-24.146" y="-9.991" transform="rotate(.008) skewX(.002)" ry="1.676" opacity=".647" fill="#5d6569" paint-order="markers stroke fill"/><rect width="25.793" height="20.744" x="-24.246" y="-9.991" transform="rotate(.008) skewX(.002)" ry="1.676" fill="url(#c)" paint-order="markers stroke fill"/><path d="M-16.431-12.404c2.39 0 3.166 1.885 4.394 3.768H-.578c1.739 0 3.139 1.4 3.139 3.139V9.57c-.008.175-.045.344-.08.51a3.078 3.078 0 0 1-1.373 2.08c-.348.224-.75.387-1.178.47-.213.044-.4.08-.628.08H-24.32c-.227 0-.414-.034-.628-.08a3.352 3.352 0 0 1-1.176-.47 3.082 3.082 0 0 1-1.374-2.08c-.034-.166-.07-.336-.08-.51V-9.107c0-1.836 1.444-3.297 3.258-3.297h7.887z" fill="url(#d)" stroke="#a0b1b7" stroke-width=".098"/><path d="M-16.36 4.727a.312.312 0 0 0-.137-.039c-.165-.001-.673-.28-.916-.501-.137-.125-.248-.247-.248-.271 0-.024-.028-.066-.061-.093-.128-.103-.307-.535-.366-.884-.112-.658-.08-.989.153-1.57.145-.365.129-.343.5-.71.207-.207.36-.319.559-.408l.273-.124v-.17c0-.554.518-1.332 1.037-1.558.431-.187.537-.208.95-.186.22.012.435.039.478.06l.26.13c.101.05.208.114.237.142.082.078.105.066.254-.135.277-.374.706-.734.972-.815.046-.014.083-.039.083-.054 0-.028.253-.113.595-.2.24-.06.861-.052 1.164.016.263.06.831.314.927.416.01.012.09.072.173.133.19.137.593.63.664.808.013.033.05.106.081.163.032.058.058.14.058.184 0 .043.019.085.041.092.023.008.069.224.102.481.033.258.065.472.07.477.006.005.148.07.316.147.207.094.384.213.55.371.289.277.306.298.428.524.164.305.175.329.216.489.056.213.053 1.294-.004 1.513a2.384 2.384 0 0 1-.59.992c-.143.14-.57.423-.637.423a.181.181 0 0 0-.107.036c-.022.02-.152.064-.29.098-.218.054-.714.062-3.986.062-2.343 0-3.76-.015-3.798-.04z" opacity=".647" fill="#5d6569"/><path d="M-16.46 4.63a.312.312 0 0 0-.137-.038c-.165-.002-.673-.28-.916-.502-.137-.125-.248-.247-.248-.27 0-.025-.028-.067-.061-.093-.128-.103-.307-.535-.366-.885-.112-.657-.08-.988.153-1.57.145-.365.129-.342.5-.71.207-.207.36-.319.559-.408l.273-.123V-.14c0-.554.518-1.332 1.037-1.557.431-.188.537-.208.95-.186.22.011.435.038.478.06.043.02.16.079.26.129.101.05.208.114.237.142.082.079.105.066.254-.135.277-.374.706-.733.972-.815.046-.014.083-.038.083-.054 0-.028.253-.112.595-.199.24-.06.861-.052 1.164.016.263.059.831.314.927.415.01.012.09.072.173.133.19.138.593.63.664.809.013.032.05.105.081.163.032.057.058.14.058.183 0 .044.019.085.041.093.023.007.069.223.102.48.033.258.065.473.07.477.006.005.148.071.316.147.207.094.384.213.55.372.289.276.306.297.428.523.164.305.175.329.216.49.056.213.053 1.293-.004 1.512a2.384 2.384 0 0 1-.59.992c-.143.14-.57.423-.637.423a.181.181 0 0 0-.107.036c-.022.02-.152.064-.29.099-.218.054-.714.061-3.986.061-2.343 0-3.76-.015-3.798-.039z" fill="#e8eaeb"/></g></svg>