<svg xmlns="http://www.w3.org/2000/svg" xmlns:xlink="http://www.w3.org/1999/xlink" width="32" height="32"><defs><linearGradient id="a"><stop offset="0" stop-color="#5e737b"/><stop offset="1" stop-color="#a0b1b7"/></linearGradient><linearGradient xlink:href="#a" id="b" x1="16.766" y1="28.475" x2="16.59" y2="3.525" gradientUnits="userSpaceOnUse"/></defs><g transform="translate(0 -.43)"><rect rx="2.373" ry="2.373" y="3.43" x="1.986" height="25.14" width="28.027" fill="url(#b)" fill-rule="evenodd" stroke="#a0b1b7" stroke-width=".1" stroke-linecap="round" stroke-linejoin="bevel"/><path d="M10.448 23.731a1.53 1.53 0 0 0-1.533 1.534v1.822c0 .85.684 1.533 1.533 1.533h1.823a1.53 1.53 0 0 0 1.535-1.533v-1.822a1.53 1.53 0 0 0-1.535-1.534zm5.747 1.246a1.14 1.14 0 0 0-1.143 1.143v1.357c0 .634.51 1.143 1.143 1.143h1.357a1.14 1.14 0 0 0 1.143-1.143V26.12a1.14 1.14 0 0 0-1.143-1.143zm4.49 0a1.14 1.14 0 0 0-1.143 1.143v1.357c0 .634.51 1.143 1.143 1.143h1.357a1.14 1.14 0 0 0 1.143-1.143V26.12a1.14 1.14 0 0 0-1.143-1.143z" opacity=".647" fill="#5d6569"/><path d="M10.348 23.631a1.53 1.53 0 0 0-1.533 1.534v1.822c0 .85.684 1.533 1.533 1.533h1.823a1.53 1.53 0 0 0 1.535-1.533v-1.822a1.53 1.53 0 0 0-1.535-1.534zm5.747 1.246a1.14 1.14 0 0 0-1.143 1.143v1.357c0 .634.51 1.143 1.143 1.143h1.357a1.14 1.14 0 0 0 1.143-1.143V26.02a1.14 1.14 0 0 0-1.143-1.143zm4.49 0a1.14 1.14 0 0 0-1.143 1.143v1.357c0 .634.51 1.143 1.143 1.143h1.357a1.14 1.14 0 0 0 1.143-1.143V26.02a1.14 1.14 0 0 0-1.143-1.143z" fill="#e8eaeb"/></g></svg>