<svg xmlns="http://www.w3.org/2000/svg" xmlns:xlink="http://www.w3.org/1999/xlink" width="32" height="32" version="1"><defs><linearGradient id="a"><stop offset="0" stop-color="#ae7e2a"/><stop offset="1" stop-color="#d9bd71"/></linearGradient><linearGradient id="b"><stop offset="0" stop-color="#8998ad"/><stop offset="1" stop-color="#ebeae8"/></linearGradient><linearGradient xlink:href="#a" id="d" x1="-5.667" y1="22.201" x2="-5.597" y2="10.718" gradientUnits="userSpaceOnUse" gradientTransform="matrix(1.84715 0 0 1.9123 26.881 -14.457)"/><linearGradient xlink:href="#b" id="c" x1="-34.169" y1="21.288" x2="-13.153" y2="7.458" gradientUnits="userSpaceOnUse" gradientTransform="matrix(1.22724 0 0 1.55276 46.268 -6.946)"/></defs><g transform="translate(.001)"><path d="M19.993 2.14c-2.39 0-3.167 1.95-4.395 3.9H4.14C2.4 6.04 1 7.488 1 9.29V24.888c.008.18.046.356.08.528a3.195 3.195 0 0 0 2.551 2.64c.214.046.4.082.628.082h23.624c.227 0 .414-.035.628-.082a3.199 3.199 0 0 0 2.55-2.64c.034-.172.07-.348.079-.528V5.552c0-1.9-1.443-3.413-3.257-3.413h-7.887z" fill="#ae7e2a" stroke="#d9bd71" stroke-width=".1"/><rect width="25.793" height="21.475" x="4.434" y="4.634" transform="rotate(.008) skewX(.002)" ry="1.735" opacity=".647" fill="#7b6032" paint-order="markers stroke fill"/><rect width="25.793" height="21.475" x="4.334" y="4.634" transform="rotate(.008) skewX(.002)" ry="1.735" fill="url(#c)" paint-order="markers stroke fill"/><path d="M12.147 2.14c2.39 0 3.167 1.95 4.395 3.9H28c1.74 0 3.14 1.449 3.14 3.25V24.888c-.008.18-.046.356-.08.528a3.195 3.195 0 0 1-2.551 2.64c-.214.046-.4.082-.628.082H4.257c-.227 0-.414-.035-.628-.082a3.199 3.199 0 0 1-2.55-2.64c-.034-.172-.07-.348-.079-.528V5.552c0-1.9 1.443-3.413 3.257-3.413h7.887z" fill="url(#d)" stroke="#d9bd71" stroke-width=".1"/><path d="M.992 8.557c.016.029.005 1.684.005 1.684l28.876 17.264c1.29-.998 1.28-2.676 1.28-2.676l-.006-.68L4.096 8.542zm8.884-.015l21.27 12.495V17.52l-15.49-8.979zm11.56 0l9.71 5.632v-3.338l-3.93-2.294zm-20.44 4.76v3.36L19.62 28.185h5.518zm.01 6.974l-.01 3.126 7.688 4.782h5.184z" opacity=".647" fill="#7b6032" stroke="#ebeae8" stroke-width=".01"/><path d="M.99 8.562c.016.029.004 1.684.004 1.684L29.871 27.51c1.291-.998 1.28-2.676 1.28-2.676l-.005-.68L4.093 8.547zm8.884-.015l21.272 12.495v-3.516L15.654 8.547zm11.56 0l9.712 5.632V10.84l-3.931-2.294zm-20.44 4.76v3.36L19.62 28.19h5.517zm.01 6.974l-.01 3.126 7.688 4.782h5.185z" fill="#ebeae8"/><path d="M.99 8.562l30.047-.03" fill="none" stroke="#ebeae8" stroke-width=".1"/></g></svg>