<svg xmlns="http://www.w3.org/2000/svg" xmlns:xlink="http://www.w3.org/1999/xlink" width="32" height="32" version="1"><defs><linearGradient id="a"><stop offset="0" stop-color="#ae7e2a"/><stop offset="1" stop-color="#d9bd71"/></linearGradient><linearGradient id="b"><stop offset="0" stop-color="#8998ad"/><stop offset="1" stop-color="#ebeae8"/></linearGradient><linearGradient xlink:href="#a" id="d" x1="-5.667" y1="22.201" x2="-5.597" y2="10.718" gradientUnits="userSpaceOnUse" gradientTransform="matrix(1.84713 0 0 1.84713 -1.697 -28.434)"/><linearGradient xlink:href="#b" id="c" x1="-34.169" y1="21.288" x2="-13.153" y2="7.458" gradientUnits="userSpaceOnUse" gradientTransform="matrix(1.22723 0 0 1.49985 17.688 -21.176)"/></defs><g transform="matrix(1 0 0 1.03528 28.578 14.98)"><path d="M-8.585-12.404c-2.391 0-3.167 1.885-4.395 3.768H-24.44c-1.739 0-3.139 1.4-3.139 3.139V9.57c.008.175.045.344.08.51.149.868.643 1.609 1.373 2.08.348.224.75.387 1.178.47.213.044.4.08.628.08H-.696c.228 0 .415-.034.628-.08a3.352 3.352 0 0 0 1.177-.47 3.082 3.082 0 0 0 1.373-2.08c.034-.166.07-.336.08-.51V-9.107c0-1.836-1.443-3.297-3.258-3.297h-7.887z" fill="#ae7e2a" stroke="#d9bd71" stroke-width=".098"/><rect width="25.793" height="20.744" x="-24.146" y="-9.991" transform="rotate(.008) skewX(.002)" ry="1.676" opacity=".647" fill="#7b6032" paint-order="markers stroke fill"/><rect width="25.793" height="20.744" x="-24.246" y="-9.991" transform="rotate(.008) skewX(.002)" ry="1.676" fill="url(#c)" paint-order="markers stroke fill"/><path d="M-16.431-12.404c2.39 0 3.166 1.885 4.394 3.768H-.578c1.739 0 3.139 1.4 3.139 3.139V9.57c-.008.175-.045.344-.08.51a3.078 3.078 0 0 1-1.373 2.08c-.348.224-.75.387-1.178.47-.213.044-.4.08-.628.08H-24.32c-.227 0-.414-.034-.628-.08a3.352 3.352 0 0 1-1.176-.47 3.082 3.082 0 0 1-1.374-2.08c-.034-.166-.07-.336-.08-.51V-9.107c0-1.836 1.444-3.297 3.258-3.297h7.887z" fill="url(#d)" stroke="#d9bd71" stroke-width=".098"/></g></svg>