<?xml version="1.0" encoding="UTF-8" standalone="no"?>
<svg
   xmlns:dc="http://purl.org/dc/elements/1.1/"
   xmlns:cc="http://creativecommons.org/ns#"
   xmlns:rdf="http://www.w3.org/1999/02/22-rdf-syntax-ns#"
   xmlns:svg="http://www.w3.org/2000/svg"
   xmlns="http://www.w3.org/2000/svg"
   xmlns:xlink="http://www.w3.org/1999/xlink"
   xmlns:sodipodi="http://sodipodi.sourceforge.net/DTD/sodipodi-0.dtd"
   xmlns:inkscape="http://www.inkscape.org/namespaces/inkscape"
   width="32"
   height="32"
   version="1"
   id="svg14"
   sodipodi:docname="wine-folder.svg"
   inkscape:version="0.92.4 5da689c313, 2019-01-14">
  <metadata
     id="metadata20">
    <rdf:RDF>
      <cc:Work
         rdf:about="">
        <dc:format>image/svg+xml</dc:format>
        <dc:type
           rdf:resource="http://purl.org/dc/dcmitype/StillImage" />
        <dc:title />
      </cc:Work>
    </rdf:RDF>
  </metadata>
  <defs
     id="defs18">
    <linearGradient
       id="linearGradient990"
       inkscape:collect="always">
      <stop
         id="stop986"
         offset="0"
         style="stop-color:#ae7e2a;stop-opacity:1" />
      <stop
         id="stop988"
         offset="1"
         style="stop-color:#d9bd71;stop-opacity:1" />
    </linearGradient>
    <linearGradient
       inkscape:collect="always"
       id="linearGradient889">
      <stop
         style="stop-color:#8998ad;stop-opacity:1"
         offset="0"
         id="stop885" />
      <stop
         style="stop-color:#ebeae8;stop-opacity:1"
         offset="1"
         id="stop887" />
    </linearGradient>
    <linearGradient
       inkscape:collect="always"
       xlink:href="#linearGradient990"
       id="linearGradient975"
       x1="-5.667089"
       y1="22.200636"
       x2="-5.5973864"
       y2="10.717914"
       gradientUnits="userSpaceOnUse"
       gradientTransform="matrix(1.8471453,0,0,1.9122993,26.881076,-14.456689)" />
    <linearGradient
       inkscape:collect="always"
       xlink:href="#linearGradient889"
       id="linearGradient891-3-3"
       x1="-34.169491"
       y1="21.288134"
       x2="-13.152548"
       y2="7.4576306"
       gradientUnits="userSpaceOnUse"
       gradientTransform="matrix(1.2272405,0,0,1.5527586,46.26793,-6.9461714)" />
  </defs>
  <sodipodi:namedview
     pagecolor="#ffffff"
     bordercolor="#666666"
     borderopacity="1"
     objecttolerance="10"
     gridtolerance="10"
     guidetolerance="10"
     inkscape:pageopacity="0"
     inkscape:pageshadow="2"
     inkscape:window-width="1002"
     inkscape:window-height="787"
     id="namedview16"
     showgrid="false"
     inkscape:zoom="17.56"
     inkscape:cx="15.2047"
     inkscape:cy="16.113896"
     inkscape:window-x="438"
     inkscape:window-y="155"
     inkscape:window-maximized="0"
     inkscape:current-layer="g838"
     showguides="true"
     inkscape:guide-bbox="true"
     inkscape:snap-global="true" />
  <g
     id="g834"
     transform="translate(9.9970075e-4,8.2899925e-4)">
    <path
       inkscape:connector-curvature="0"
       d="m 19.993088,2.1391705 c -2.39087,0 -3.166896,1.9512996 -4.394979,3.8999983 H 4.13978 c -1.7391529,0 -3.1392677,1.4495 -3.1392677,3.2499997 v 1.3000005 11.049997 1.949998 1.137501 0.162507 c 0.0076,0.180693 0.0452,0.3562 0.079111,0.527801 0.1494339,0.898298 0.644175,1.665299 1.3737426,2.152797 0.3478302,0.232701 0.7496567,0.401702 1.1778524,0.487501 0.2134674,0.04549 0.4005666,0.0819 0.62785,0.0819 H 27.882695 c 0.227284,0 0.414383,-0.0351 0.627854,-0.0819 0.42694,-0.0858 0.828767,-0.2548 1.176599,-0.487501 0.729564,-0.487498 1.223057,-1.254499 1.373741,-2.152797 0.0339,-0.171592 0.07032,-0.348401 0.07911,-0.527801 V 24.726665 23.589164 5.5516683 c 0,-1.9005998 -1.442807,-3.4124978 -3.257305,-3.4124978 H 19.9956 Z"
       style="opacity:1;fill:#ae7e2a;fill-opacity:1;stroke:#d9bd71;stroke-width:0.1;stroke-miterlimit:4;stroke-dasharray:none;stroke-opacity:1"
       id="path25-2" />
    <rect
       style="opacity:0.647;vector-effect:none;fill:#7b6032;fill-opacity:1;fill-rule:nonzero;stroke:none;stroke-width:0.20038263;stroke-linecap:butt;stroke-linejoin:miter;stroke-miterlimit:4;stroke-dasharray:none;stroke-dashoffset:0;stroke-opacity:1;paint-order:markers stroke fill"
       id="rect883-5-5-3"
       width="25.79285"
       height="21.475441"
       x="4.4335961"
       y="4.6337156"
       transform="matrix(0.99999999,1.0483019e-4,-6.5484411e-5,1,0,0)"
       inkscape:transform-center-x="4.5837926"
       inkscape:transform-center-y="-6.389833"
       ry="1.7347755" />
    <rect
       style="opacity:1;vector-effect:none;fill:url(#linearGradient891-3-3);fill-opacity:1;fill-rule:nonzero;stroke:none;stroke-width:0.20038263;stroke-linecap:butt;stroke-linejoin:miter;stroke-miterlimit:4;stroke-dasharray:none;stroke-dashoffset:0;stroke-opacity:1;paint-order:markers stroke fill"
       id="rect883-5-5"
       width="25.79285"
       height="21.475441"
       x="4.333746"
       y="4.6337266"
       transform="matrix(0.99999999,1.0483019e-4,-6.5484411e-5,1,0,0)"
       inkscape:transform-center-x="4.5837926"
       inkscape:transform-center-y="-6.389833"
       ry="1.7347755" />
    <path
       inkscape:connector-curvature="0"
       d="m 12.146913,2.1391705 c 2.39087,0 3.166896,1.9512996 4.394979,3.8999983 h 11.458327 c 1.739153,0 3.139268,1.4495 3.139268,3.2499997 v 1.3000005 11.049995 1.949998 1.137501 0.162507 c -0.0076,0.180693 -0.0452,0.3562 -0.07911,0.527801 -0.149434,0.898298 -0.644177,1.665299 -1.373744,2.152797 -0.34783,0.232701 -0.749656,0.401702 -1.177853,0.487501 -0.213466,0.04549 -0.400565,0.0819 -0.62785,0.0819 H 4.2573048 c -0.2272835,0 -0.4143826,-0.03509 -0.627854,-0.0819 -0.4269397,-0.0858 -0.8287662,-0.2548 -1.1765984,-0.487501 C 1.7232878,27.08227 1.2297947,26.315269 1.0791108,25.416971 1.0452205,25.24538 1.0087903,25.06857 1.0000003,24.88917 V 24.726663 23.589162 5.5516683 c 0,-1.9005998 1.442807,-3.4124978 3.2573045,-3.4124978 h 7.8870962 z"
       style="opacity:1;fill:url(#linearGradient975);fill-opacity:1;stroke:#ebeae8;stroke-width:0.1;stroke-miterlimit:4;stroke-dasharray:none;stroke-opacity:1"
       id="path25" />
    <g
       id="g838"
       transform="translate(-0.10157717,-0.45331)">
      <path
         style="opacity:0.647;fill:#7b6032;fill-opacity:1;stroke-width:0.72812867"
         d="m 13.853853,10.304965 -0.0593,0.04911 c -0.09426,0.07746 -0.144224,0.207568 -0.316306,0.809013 -0.475371,1.661501 -0.578223,2.192673 -0.578247,3.016305 0,0.367095 0.01509,0.565311 0.05271,0.748859 0.138086,0.673392 0.409202,1.181834 0.897849,1.67818 0.270578,0.274845 0.656621,0.709319 1.161311,0.989475 0.467104,0.259293 0.5105,0.296738 0.56342,0.494738 0.04949,0.185044 0.09284,1.38802 0.08072,2.244121 -0.0098,0.697555 -0.02067,0.861221 -0.06425,1.006662 -0.09773,0.326081 -0.278756,0.520646 -0.584837,0.62855 -0.202813,0.0715 -0.435437,0.135724 -1.008099,0.173098 -0.448624,0.02926 -0.481151,0.03383 -0.673799,0.109259 C 13.06144,22.373538 12.997576,22.605808 12.988947,22.7 h 3.156471 3.154823 c -0.04852,-0.244113 -0.157678,-0.349518 -0.345952,-0.45012 -0.189686,-0.06987 -0.243337,-0.07859 -0.655677,-0.106804 -0.552422,-0.03783 -0.762916,-0.03926 -0.953339,-0.09483 -0.438369,-0.127917 -0.63117,-0.359112 -0.718278,-0.863029 -0.03889,-0.224824 -0.03103,-2.319003 0.0085,-3.038607 0.007,-0.273576 0.447048,-0.373346 0.622464,-0.494175 1.482942,-0.808033 1.865349,-1.551804 2.075188,-2.677834 0.166278,-0.892258 0.03874,-1.872198 -0.505762,-3.746451 -0.198861,-0.684516 -0.24448,-0.804485 -0.331132,-0.874078 l -0.06095,-0.04911 h -2.289925 z m 1.11531,4.178877 c 0.392382,0.03691 0.824239,0.167643 1.253692,0.295861 0.429452,0.128217 0.856161,0.253774 1.237219,0.281129 0.381055,0.02736 0.716548,-0.04368 0.963744,-0.309365 -0.03986,0.401068 -0.141209,0.741971 -0.2883,1.026305 -0.14709,0.284333 -0.33841,0.512284 -0.560126,0.687477 -0.443431,0.350386 -1.003892,0.48992 -1.550228,0.449315 -0.546338,-0.0406 -1.079409,-0.261395 -1.46786,-0.632233 -0.388448,-0.370839 -0.633187,-0.891778 -0.602957,-1.532091 0.269847,-0.24659 0.622432,-0.303301 1.014816,-0.266398 z"
         id="path4522-3"
         inkscape:connector-curvature="0"
         sodipodi:nodetypes="cccccccccccccccccccccccscccccscccccccc" />
      <path
         style="fill:#ebeae8;fill-opacity:1;stroke-width:0.72812867"
         d="m 13.753853,10.204965 -0.0593,0.04911 c -0.09426,0.07746 -0.144224,0.207568 -0.316306,0.809013 -0.475371,1.661501 -0.578223,2.192673 -0.578247,3.016305 0,0.367095 0.01509,0.565311 0.05271,0.748859 0.138086,0.673392 0.409202,1.181834 0.897849,1.67818 0.270578,0.274845 0.656621,0.709319 1.161311,0.989475 0.467104,0.259293 0.5105,0.296738 0.56342,0.494738 0.04949,0.185044 0.09284,1.38802 0.08072,2.244121 -0.0098,0.697555 -0.02067,0.861221 -0.06425,1.006662 -0.09773,0.326081 -0.278756,0.520646 -0.584837,0.62855 -0.202813,0.0715 -0.435437,0.135724 -1.008099,0.173098 -0.448624,0.02926 -0.481151,0.03383 -0.673799,0.109259 C 12.96144,22.273538 12.897576,22.505808 12.888947,22.6 h 3.156471 3.154823 c -0.04852,-0.244113 -0.157678,-0.349518 -0.345952,-0.45012 -0.189686,-0.06987 -0.243337,-0.07859 -0.655677,-0.106804 -0.552422,-0.03783 -0.762916,-0.03926 -0.953339,-0.09483 -0.438369,-0.127917 -0.63117,-0.359112 -0.718278,-0.863029 -0.03889,-0.224824 -0.03103,-2.319003 0.0085,-3.038607 0.007,-0.273576 0.447048,-0.373346 0.622464,-0.494175 1.482942,-0.808033 1.865349,-1.551804 2.075188,-2.677834 0.166278,-0.892258 0.03874,-1.872198 -0.505762,-3.746451 -0.198861,-0.684516 -0.24448,-0.804485 -0.331132,-0.874078 l -0.06095,-0.04911 h -2.289925 z m 1.11531,4.178877 c 0.392382,0.03691 0.824239,0.167643 1.253692,0.295861 0.429452,0.128217 0.856161,0.253774 1.237219,0.281129 0.381055,0.02736 0.716548,-0.04368 0.963744,-0.309365 -0.03986,0.401068 -0.141209,0.741971 -0.2883,1.026305 -0.14709,0.284333 -0.33841,0.512284 -0.560126,0.687477 -0.443431,0.350386 -1.003892,0.48992 -1.550228,0.449315 -0.546338,-0.0406 -1.079409,-0.261395 -1.46786,-0.632233 -0.388448,-0.370839 -0.633187,-0.891778 -0.602957,-1.532091 0.269847,-0.24659 0.622432,-0.303301 1.014816,-0.266398 z"
         id="path4522"
         inkscape:connector-curvature="0"
         sodipodi:nodetypes="cccccccccccccccccccccccscccccscccccccc" />
    </g>
  </g>
</svg>
