<svg xmlns="http://www.w3.org/2000/svg" width="22" height="22" viewBox="0 0 16 16" version="1.1" id="svg7"><defs id="defs3"><style id="current-color-scheme" type="text/css"></style></defs><path d="M4.897 2.182c-1.552 0-1.552 1.551-1.552 1.551v8.534c0 1.551 1.47 1.548 1.552 1.551h6.206s1.552-.003 1.552-1.551V3.733c0-1.551-1.552-1.551-1.552-1.551zM8 3.733a.776.776 0 1 1 0 1.552.776.776 0 0 1 0-1.552zm0 2.328a3.103 3.103 0 1 1 0 6.206A3.103 3.103 0 0 1 8 6.06zm0 1.551a1.551 1.551 0 1 0 0 3.103 1.551 1.551 0 0 0 0-3.103z" id="path5" color="#d3dae3" fill="currentColor" stroke-width=".776"/></svg>