<svg xmlns="http://www.w3.org/2000/svg" width="22" height="22" viewBox="0 0 16 16" version="1.1" id="svg7"><defs id="defs3"><style id="current-color-scheme" type="text/css"></style></defs><path d="M3.844 2.597c-1.662 0-1.662 1.663-1.662 1.663v7.48c0 1.663 1.662 1.663 1.662 1.663h8.312c1.662 0 1.662-1.663 1.662-1.663V4.26s0-1.663-1.662-1.663zm2.494 2.494h4.156v4.571a1.247 1.247 0 1 1-1.247-1.246c.143 0 .287.033.415.078v-1.74H7.17v2.908a1.247 1.247 0 1 1-1.247-1.246c.144 0 .287.033.416.078v-1.74z" id="path5" color="#d3dae3" fill="currentColor" stroke-width=".831"/></svg>