<svg xmlns="http://www.w3.org/2000/svg" width="22" height="22" viewBox="0 0 16 16" version="1.1" id="svg7"><defs id="defs3"><style id="current-color-scheme" type="text/css"></style></defs><path d="M3.844 2.597v.832h-.831s-.831 0-.831.83v8.312s0 .832.831.832h9.974s.831 0 .831-.832V4.26c0-.831-.831-.831-.831-.831h-6.65v-.832zM8 5.091a3.325 3.325 0 0 1 3.325 3.325A3.325 3.325 0 0 1 8 11.74a3.325 3.325 0 0 1-3.325-3.324A3.325 3.325 0 0 1 8 5.09zm0 1.662a1.662 1.662 0 0 0-1.662 1.663A1.662 1.662 0 0 0 8 10.078a1.662 1.662 0 0 0 1.662-1.662A1.662 1.662 0 0 0 8 6.753z" id="path5" color="#d3dae3" fill="currentColor" stroke-width=".831"/></svg>