<svg xmlns="http://www.w3.org/2000/svg" width="22" height="22" viewBox="0 0 16 16" version="1.1" id="svg7"><defs id="defs3"><style id="current-color-scheme" type="text/css"></style></defs><path d="M11.081 3.646a.834.834 0 0 0-.489.163c-.383.274-1.182.567-2.592.568-1.41 0-2.209-.294-2.592-.568a.772.772 0 0 0-.473-.16c-.177.002-.38.049-.587.16-.755.397-1.448 1.699-1.825 3.386-.322 1.434-.44 3.394-.249 4.182.167.678.456.977.969.977.76-.013 1.716-.86 2.322-2 .439-.63 1.455-.918 2.435-.886.98-.034 1.996.255 2.435.886.606 1.14 1.562 1.987 2.322 2 .513 0 .802-.3.969-.977.192-.788.073-2.748-.249-4.182-.377-1.687-1.07-2.989-1.825-3.386a1.205 1.205 0 0 0-.571-.163zM5.115 5.832h.722v.727h.72v.727h-.72v.727h-.722v-.727h-.722V6.56h.722zm5.41 0c.198 0 .36.162.36.363 0 .201-.162.364-.36.364-.2 0-.36-.163-.36-.364 0-.2.16-.363.36-.363zm-.721.727c.2 0 .36.163.36.364 0 .2-.16.363-.36.363-.2 0-.36-.163-.36-.363 0-.201.16-.364.36-.364zm1.442 0c.199 0 .36.163.36.364 0 .2-.161.363-.36.363-.2 0-.361-.163-.361-.363 0-.201.162-.364.36-.364zm-.722.727c.2 0 .361.163.361.364 0 .2-.162.363-.36.363-.2 0-.36-.162-.36-.363 0-.2.16-.364.36-.364z" id="path5" color="#d3dae3" fill="currentColor" stroke-width=".727"/></svg>