<svg xmlns="http://www.w3.org/2000/svg" width="22" height="22" version="1.1" viewBox="0 0 16 16" id="svg7"><defs id="defs3"><style id="current-color-scheme" type="text/css"></style></defs><path d="M3.013 1.35a.83.83 0 0 0-.831.832v2.493h11.636V2.182a.83.83 0 0 0-.831-.831zM8 2.183h.831v1.662H8zm1.662 0h.832v1.662h-.832zm1.663 0h.83v1.662h-.83zM2.182 5.506v3.325h11.636V5.506zM8 6.338h.831V8H8zm1.662 0h.832V8h-.832zm1.663 0h.83V8h-.83zM2.182 9.662v2.494c0 .46.37.831.831.831h4.156v1.662H8.83v-1.662h4.156a.83.83 0 0 0 .831-.831V9.662zM8 10.494h.831v1.662H8zm1.662 0h.832v1.662h-.832zm1.663 0h.83v1.662h-.83z" id="path5" color="#d3dae3" fill="currentColor" stroke-width=".831"/></svg>