<svg xmlns="http://www.w3.org/2000/svg" width="22" height="22" viewBox="0 0 16 16" version="1.1" id="svg7"><defs id="defs3"><style id="current-color-scheme" type="text/css"></style></defs><path d="M8 2.182c-1.842 0-3.325 1.514-3.325 3.376v1.61h-.83A.83.83 0 0 0 3.012 8v4.987c0 .46.37.831.831.831h8.312a.83.83 0 0 0 .831-.831V8a.83.83 0 0 0-.831-.831h-.831v-1.61c0-1.862-1.483-3.377-3.325-3.377zm0 1.662c.92 0 1.662.742 1.662 1.662V7.17H6.338V5.506c0-.92.741-1.662 1.662-1.662z" id="path5" color="#d3dae3" fill="currentColor" stroke-width=".831"/></svg>