<svg xmlns="http://www.w3.org/2000/svg" xmlns:xlink="http://www.w3.org/1999/xlink" viewBox="0 0 256 256" id="svg2" version="1.1"><defs id="defs4"><linearGradient gradientUnits="userSpaceOnUse" y2="3" x2="32" y1="61" x1="32" id="linearGradient4306-2" xlink:href="#linearGradient4300-7" gradientTransform="matrix(.5 0 0 .48276 384.571 516.35)"/><linearGradient id="linearGradient4300-7"><stop id="stop4302-3" offset="0" stop-color="#bdc3c7" stop-opacity="1"/><stop id="stop4304-3" offset="1" stop-color="#dadfe1" stop-opacity="1"/></linearGradient><linearGradient gradientUnits="userSpaceOnUse" y2="47" x2="47" y1="61" x1="47" id="linearGradient4357-8" xlink:href="#linearGradient4351-20" gradientTransform="matrix(.48276 0 0 .48276 385.261 516.108)"/><linearGradient id="linearGradient4351-20"><stop id="stop4353-91" offset="0" stop-color="#566472" stop-opacity="1"/><stop id="stop4355-4" offset="1" stop-color="#5e6b78" stop-opacity="1"/></linearGradient><linearGradient xlink:href="#linearGradient4410" id="linearGradient5285" gradientUnits="userSpaceOnUse" gradientTransform="matrix(.48276 0 0 -.48276 378.502 553.764)" x1="54" y1="31" x2="39.5" y2="16.5"/><linearGradient id="linearGradient4410"><stop id="stop4412" offset="0" stop-color="#383e51" stop-opacity="1"/><stop id="stop4414" offset="1" stop-color="#655c6f" stop-opacity="0"/></linearGradient><linearGradient gradientUnits="userSpaceOnUse" y2="3" x2="32" y1="61" x1="32" id="linearGradient4306-83" xlink:href="#linearGradient4300-2-7" gradientTransform="matrix(.5 0 0 .48276 384.571 516.35)"/><linearGradient id="linearGradient4300-2-7"><stop offset="0" id="stop4302-4-9" stop-color="#7fcc74" stop-opacity="1"/><stop offset="1" id="stop4304-1-9" stop-color="#87d37c" stop-opacity="1"/></linearGradient><linearGradient gradientUnits="userSpaceOnUse" y2="47" x2="47" y1="61" x1="47" id="linearGradient4357-33" xlink:href="#linearGradient4351-4-9" gradientTransform="matrix(.48276 0 0 .48276 385.261 516.108)"/><linearGradient id="linearGradient4351-4-9"><stop id="stop4353-4-1" offset="0" stop-color="#ade2a1" stop-opacity="1"/><stop id="stop4355-3-4" offset="1" stop-color="#cfeec9" stop-opacity="1"/></linearGradient><linearGradient xlink:href="#linearGradient4300-8" id="linearGradient5295" gradientUnits="userSpaceOnUse" gradientTransform="matrix(.5 0 0 .48276 384.571 516.35)" x1="32" y1="61" x2="32" y2="3"/><linearGradient id="linearGradient4300-8"><stop offset="0" id="stop4302-2" stop-color="#f62459" stop-opacity="1"/><stop offset="1" id="stop4304-9-0" stop-color="#f73768" stop-opacity="1"/></linearGradient><linearGradient xlink:href="#linearGradient4351-99" id="linearGradient5297" gradientUnits="userSpaceOnUse" gradientTransform="matrix(.48276 0 0 .48276 385.261 516.108)" x1="47" y1="61" x2="47" y2="47"/><linearGradient id="linearGradient4351-99"><stop offset="0" id="stop4353-0" stop-color="#ffd6af" stop-opacity="1"/><stop offset="1" id="stop4355-83" stop-color="#fffcf9" stop-opacity="1"/></linearGradient><linearGradient gradientUnits="userSpaceOnUse" y2="3" x2="32" y1="61" x1="32" id="linearGradient4306-92" xlink:href="#linearGradient4300-3-4" gradientTransform="matrix(.5 0 0 .48276 384.571 516.35)"/><linearGradient id="linearGradient4300-3-4"><stop id="stop4302-0-1" offset="0" stop-color="#26c281" stop-opacity="1"/><stop id="stop4304-7" offset="1" stop-color="#3fc380" stop-opacity="1"/></linearGradient><linearGradient gradientUnits="userSpaceOnUse" y2="47" x2="47" y1="61" x1="47" id="linearGradient4357-41" xlink:href="#linearGradient4351-4-55" gradientTransform="matrix(.48276 0 0 .48276 385.261 516.108)"/><linearGradient id="linearGradient4351-4-55"><stop id="stop4353-0-6" offset="0" stop-color="#036b53" stop-opacity="1"/><stop id="stop4355-2" offset="1" stop-color="#036b53" stop-opacity="1"/></linearGradient><linearGradient gradientUnits="userSpaceOnUse" y2="3" x2="32" y1="61" x1="32" id="linearGradient4306-9" xlink:href="#linearGradient4300-2-4" gradientTransform="matrix(.5 0 0 .48276 384.571 516.35)"/><linearGradient id="linearGradient4300-2-4"><stop offset="0" id="stop4302-4-6" stop-color="#f5ce5b" stop-opacity="1"/><stop offset="1" id="stop4304-1-8" stop-color="#f5d76e" stop-opacity="1"/></linearGradient><linearGradient gradientUnits="userSpaceOnUse" y2="47" x2="47" y1="61" x1="47" id="linearGradient4357-1" xlink:href="#linearGradient4351-4" gradientTransform="matrix(.48276 0 0 .48276 385.261 516.108)"/><linearGradient id="linearGradient4351-4"><stop id="stop4353-4" offset="0" stop-color="#957209" stop-opacity="1"/><stop id="stop4355-3-0" offset="1" stop-color="#a4800a" stop-opacity="1"/></linearGradient><linearGradient gradientUnits="userSpaceOnUse" y2="3" x2="32" y1="61" x1="32" id="linearGradient4306-06" xlink:href="#linearGradient4300-6" gradientTransform="matrix(.5 0 0 .48276 384.571 516.35)"/><linearGradient id="linearGradient4300-6"><stop offset="0" id="stop4302-6" stop-color="#cf000f" stop-opacity="1"/><stop offset="1" id="stop4304-9" stop-color="#d91e18" stop-opacity="1"/></linearGradient><linearGradient gradientUnits="userSpaceOnUse" y2="47" x2="47" y1="61" x1="47" id="linearGradient4357-6" xlink:href="#linearGradient4351-9" gradientTransform="matrix(.48276 0 0 .48276 385.261 516.108)"/><linearGradient id="linearGradient4351-9"><stop id="stop4353-8" offset="0" stop-color="#fb7d80" stop-opacity="1"/><stop id="stop4355-3" offset="1" stop-color="#fcbcbe" stop-opacity="1"/></linearGradient><linearGradient gradientUnits="userSpaceOnUse" y2="3" x2="32" y1="61" x1="32" id="linearGradient4306-0" xlink:href="#linearGradient4300" gradientTransform="matrix(.5 0 0 .48276 384.571 516.35)"/><linearGradient id="linearGradient4300"><stop id="stop4302" offset="0" stop-color="#22a7f0" stop-opacity="1"/><stop id="stop4304" offset="1" stop-color="#19b5fe" stop-opacity="1"/></linearGradient><linearGradient gradientUnits="userSpaceOnUse" y2="47" x2="47" y1="61" x1="47" id="linearGradient4357-0" xlink:href="#linearGradient4351" gradientTransform="matrix(.48276 0 0 .48276 385.261 516.108)"/><linearGradient id="linearGradient4351"><stop id="stop4353" offset="0" stop-color="#c8e3fe" stop-opacity="1"/><stop id="stop4355" offset="1" stop-color="#fff" stop-opacity="1"/></linearGradient><linearGradient gradientUnits="userSpaceOnUse" y2="3" x2="32" y1="61" x1="32" id="linearGradient4306" xlink:href="#linearGradient4300-3" gradientTransform="matrix(.5 0 0 .48276 384.571 516.35)"/><linearGradient id="linearGradient4300-3"><stop id="stop4302-0" offset="0" stop-color="#f39c12" stop-opacity="1"/><stop id="stop4304-0" offset="1" stop-color="#f9a11f" stop-opacity="1"/></linearGradient><linearGradient gradientUnits="userSpaceOnUse" y2="47" x2="47" y1="61" x1="47" id="linearGradient4357" xlink:href="#linearGradient4351-5" gradientTransform="matrix(.48276 0 0 .48276 385.261 516.108)"/><linearGradient id="linearGradient4351-5"><stop id="stop4353-1" offset="0" stop-color="#fddda3" stop-opacity="1"/><stop id="stop4355-8" offset="1" stop-color="#fde3a7" stop-opacity="1"/></linearGradient><linearGradient xlink:href="#linearGradient4410" id="linearGradient4503" gradientUnits="userSpaceOnUse" gradientTransform="matrix(.48276 0 0 -.48276 378.502 553.764)" x1="54" y1="31" x2="39.5" y2="16.5"/><linearGradient xlink:href="#linearGradient4410" id="linearGradient4505" gradientUnits="userSpaceOnUse" gradientTransform="matrix(.48276 0 0 -.48276 378.502 553.764)" x1="54" y1="31" x2="39.5" y2="16.5"/><linearGradient xlink:href="#linearGradient4410" id="linearGradient4507" gradientUnits="userSpaceOnUse" gradientTransform="matrix(.48276 0 0 -.48276 378.502 553.764)" x1="54" y1="31" x2="39.5" y2="16.5"/><linearGradient xlink:href="#linearGradient4410" id="linearGradient4509" gradientUnits="userSpaceOnUse" gradientTransform="matrix(.48276 0 0 -.48276 378.502 553.764)" x1="54" y1="31" x2="39.5" y2="16.5"/><linearGradient xlink:href="#linearGradient4410" id="linearGradient4511" gradientUnits="userSpaceOnUse" gradientTransform="matrix(.48276 0 0 -.48276 378.502 553.764)" x1="54" y1="31" x2="39.5" y2="16.5"/><linearGradient xlink:href="#linearGradient4410" id="linearGradient4513" gradientUnits="userSpaceOnUse" gradientTransform="matrix(.48276 0 0 -.48276 378.502 553.764)" x1="54" y1="31" x2="39.5" y2="16.5"/><linearGradient xlink:href="#linearGradient4410" id="linearGradient4515" gradientUnits="userSpaceOnUse" gradientTransform="matrix(.48276 0 0 -.48276 378.502 553.764)" x1="54" y1="31" x2="39.5" y2="16.5"/><style id="current-color-scheme" type="text/css">.ColorScheme-Text{color:#4d4d4d}.ColorScheme-Background{color:#eff0f1}</style></defs><path d="M16 10h224c3.324 0 6 2.676 6 6v224c0 3.324-2.676 6-6 6H16c-3.324 0-6-2.676-6-6V16c0-3.324 2.676-6 6-6z" id="rect4240" fill="currentColor" fill-opacity=".5" stroke="none" color="#31363b"/><path d="M16 12h224c2.216 0 4 1.784 4 4v224c0 2.216-1.784 4-4 4H16c-2.216 0-4-1.784-4-4V16c0-2.216 1.784-4 4-4z" class="ColorScheme-Background" id="rect4238" fill="currentColor" fill-opacity="1" stroke="none"/><path d="M16.786 17.026h222v24h-222z" id="rect10264" fill="#1d99f3" fill-opacity="1" stroke="none" color="#3daee9"/><path d="M17.908 18.026h220v22h-220z" class="ColorScheme-Background" id="rect10266" fill="currentColor" fill-opacity="1" stroke="none"/><path class="ColorScheme-Text" d="M27.24 24.41c-.38 0-.733.047-1.06.137-.327.09-.623.227-.889.412-.266.18-.477.425-.63.732-.154.308-.231.661-.231 1.059 0 .578.148 1.033.443 1.365.295.328.74.606 1.338.836l1.44.56c.564.222.944.441 1.138.659.198.213.297.536.297.967 0 .373-.088.687-.266.941-.173.25-.399.43-.677.541a2.7 2.7 0 0 1-.97.16 4.43 4.43 0 0 1-1.411-.246 4.814 4.814 0 0 1-1.307-.67v.971c.25.226.626.416 1.13.572a5.282 5.282 0 0 0 1.57.235c.302 0 .588-.027.859-.08.274-.054.538-.141.793-.264.254-.127.472-.286.654-.475a2.06 2.06 0 0 0 .435-.726 2.86 2.86 0 0 0 .165-.996 2.7 2.7 0 0 0-.11-.801 2.205 2.205 0 0 0-.271-.59 1.776 1.776 0 0 0-.467-.45 3.85 3.85 0 0 0-.574-.35 9.514 9.514 0 0 0-.71-.307l-1.392-.555c-.424-.168-.717-.352-.883-.553-.161-.205-.242-.497-.242-.875 0-.308.088-.566.266-.775.177-.21.401-.356.672-.442.27-.09.578-.136.925-.136.376 0 .752.053 1.127.16.38.106.7.253.963.437l.387-.763a4.325 4.325 0 0 0-1.186-.504 4.905 4.905 0 0 0-1.326-.186zm28.176.05l-1.006.073v8.985h1v-3.563c0-.242.015-.466.047-.676.036-.209.1-.418.19-.623.088-.205.202-.378.343-.521.141-.148.325-.266.551-.352.23-.09.494-.135.793-.135.48 0 .822.154 1.023.461.206.304.309.778.309 1.422v3.987h1.006v-4.024c0-.837-.185-1.484-.557-1.94-.371-.455-.907-.681-1.605-.681-.456 0-.867.089-1.235.27a2.302 2.302 0 0 0-.896.77l.037-1.274V24.46zm-21.322 2.413c-.848 0-1.547.308-2.096.928-.549.62-.824 1.45-.824 2.492 0 1.03.28 1.846.842 2.45.56.598 1.291.898 2.191.898.807 0 1.528-.191 2.162-.573l-.21-.718a6.09 6.09 0 0 1-.923.386c-.274.086-.579.13-.914.13-.617 0-1.116-.199-1.5-.596-.383-.403-.592-1.02-.625-1.848h4.33l.035-.516c0-.951-.21-1.695-.634-2.228-.42-.538-1.031-.805-1.834-.805zm6.185 0c-.855 0-1.626.16-2.312.484l.273.752a4.263 4.263 0 0 1 1.004-.332 4.958 4.958 0 0 1 1.055-.123c.484 0 .836.116 1.058.35.226.234.34.588.34 1.064v.641h-1.023c-1.03 0-1.78.166-2.252.498-.468.328-.703.845-.703 1.55 0 .592.178 1.053.533 1.386.36.332.833.498 1.422.498.88 0 1.595-.343 2.144-1.028l.11.899h.761v-4.295c0-.829-.209-1.426-.628-1.791-.416-.37-1.01-.553-1.782-.553zm11.17 0c-.892 0-1.615.305-2.172.916-.557.607-.836 1.441-.836 2.504 0 1.017.27 1.83.811 2.437.545.608 1.275.91 2.191.91.392 0 .744-.046 1.055-.14.31-.094.535-.198.672-.309l-.188-.695c-.407.238-.859.358-1.351.358-.706 0-1.242-.236-1.61-.708-.367-.471-.55-1.09-.55-1.853 0-.804.19-1.444.574-1.92.383-.476.892-.713 1.525-.713.5 0 .947.12 1.338.358l.285-.704c-.137-.094-.359-.19-.666-.289a3.374 3.374 0 0 0-1.078-.152zm-4.207.066c-.387 0-.756.111-1.107.332-.347.218-.643.562-.885 1.03l-.107-1.293h-.807v6.51h1.006v-3.686c0-.578.178-1.069.533-1.47.36-.403.812-.604 1.361-.604.113 0 .251.018.412.05l.043-.837a2.65 2.65 0 0 0-.449-.032zm-13.125.715c1.017 0 1.55.7 1.598 2.104h-3.486c.056-.648.254-1.16.593-1.537a1.675 1.675 0 0 1 1.295-.567zm6.81 2.733h.77v1.433c-.48.718-1.135 1.076-1.963 1.076-.302 0-.554-.098-.755-.294-.202-.197-.303-.477-.303-.838 0-.201.018-.369.054-.504a.959.959 0 0 1 .6-.658c.17-.07.384-.124.647-.16.262-.038.58-.055.95-.055zm23.909 1.857c-.214 0-.377.066-.49.197a.7.7 0 0 0-.17.473c0 .18.057.34.17.475.117.13.28.197.49.197.21 0 .37-.066.478-.197a.704.704 0 0 0 .17-.475.7.7 0 0 0-.17-.473c-.109-.13-.268-.197-.478-.197zm2.955 0c-.214 0-.377.066-.49.197a.7.7 0 0 0-.17.473c0 .18.057.34.17.475.117.13.28.197.49.197.21 0 .368-.066.477-.197a.704.704 0 0 0 .17-.475.7.7 0 0 0-.17-.473c-.11-.13-.267-.197-.477-.197zm2.953 0c-.214 0-.377.066-.49.197a.7.7 0 0 0-.17.473c0 .18.057.34.17.475.117.13.28.197.49.197.21 0 .37-.066.479-.197a.704.704 0 0 0 .17-.475.7.7 0 0 0-.17-.473c-.11-.13-.269-.197-.479-.197zM34.246 51.94l-1.101.082v7.768c0 .425.05.779.148 1.06.098.278.25.49.455.637.206.148.44.253.7.31.263.055.59.081.98.081h.529l.06-.766-.302-.02c-.193-.013-.342-.025-.45-.034a6.744 6.744 0 0 1-.349-.053 1.022 1.022 0 0 1-.275-.094 1.65 1.65 0 0 1-.18-.148.484.484 0 0 1-.135-.221 3.439 3.439 0 0 1-.06-.309 3.801 3.801 0 0 1-.02-.423v-7.87zm58.129 0l-1.129.082v9.801h.906l.102-1.248c.242.399.554.73.94.994.384.26.839.389 1.363.389.97 0 1.715-.332 2.234-.994.524-.663.787-1.558.787-2.686 0-1.145-.25-2.048-.752-2.71-.501-.663-1.24-.995-2.217-.995-.479 0-.91.114-1.295.342a2.86 2.86 0 0 0-.947.906l.008-1.234v-2.647zm11.238 0l-1.101.082v7.768c0 .425.05.779.148 1.06.099.278.25.49.455.637.206.148.44.253.7.31.264.055.59.081.98.081h.53l.06-.766-.301-.02c-.192-.013-.344-.025-.451-.034a6.687 6.687 0 0 1-.348-.053 1.022 1.022 0 0 1-.275-.094 1.66 1.66 0 0 1-.182-.148.485.485 0 0 1-.135-.221 3.5 3.5 0 0 1-.06-.309 3.808 3.808 0 0 1-.02-.423v-7.87zm-78.431.082v9.801h1.181v-4.738h2.121c1.106 0 1.913-.224 2.418-.672.506-.452.758-1.117.758-1.994 0-.43-.078-.802-.234-1.115a1.775 1.775 0 0 0-.664-.752 3.176 3.176 0 0 0-.994-.403 5.676 5.676 0 0 0-1.262-.127h-3.324zm74.625 0a.733.733 0 0 0-.532.202.676.676 0 0 0-.2.51c0 .21.066.383.2.517a.733.733 0 0 0 .532.201c.21 0 .384-.067.523-.201a.69.69 0 0 0 .21-.518c0-.21-.071-.38-.21-.51a.708.708 0 0 0-.523-.2zm-73.444.885h2.135c.645 0 1.135.117 1.47.35.34.228.51.62.51 1.176 0 .644-.154 1.096-.462 1.355-.305.26-.825.389-1.559.389h-2.094v-3.27zm13.508 1.666c-.949 0-1.803.176-2.564.53l.302.82a4.78 4.78 0 0 1 1.114-.363 5.59 5.59 0 0 1 1.17-.135c.537 0 .927.128 1.173.383.251.255.377.643.377 1.162v.699H40.31c-1.142 0-1.975.18-2.498.543-.52.358-.78.921-.78 1.691 0 .645.198 1.15.592 1.512.398.363.925.543 1.578.543.976 0 1.766-.374 2.375-1.121l.121.98h.846v-4.685c0-.904-.232-1.557-.697-1.955-.461-.403-1.12-.604-1.975-.604zm6.635 0c-.743 0-1.32.18-1.733.537-.411.354-.619.82-.619 1.397 0 .465.12.845.358 1.14.237.291.674.54 1.314.747l.78.248c.514.165.87.343 1.068.53.197.189.295.42.295.698 0 .403-.118.711-.356.926-.237.21-.57.316-1 .316-.685 0-1.454-.204-2.304-.611v.934a5.13 5.13 0 0 0 2.222.523c.336 0 .646-.04.928-.121.286-.08.542-.2.766-.361.228-.162.407-.376.537-.645.13-.273.193-.588.193-.941 0-.287-.026-.528-.08-.725a1.49 1.49 0 0 0-.295-.564 1.832 1.832 0 0 0-.598-.455 5.768 5.768 0 0 0-.974-.391l-.705-.22c-.461-.149-.763-.287-.907-.417-.143-.13-.214-.34-.214-.63 0-.345.11-.609.33-.788.224-.183.592-.275 1.107-.275.578 0 1.175.157 1.793.47l.262-.826a4.832 4.832 0 0 0-2.168-.496zm7.03 0c-.91 0-1.64.399-2.19 1.196l-.127-1.047h-.9v7.101h1.115v-4.33c.094-.622.299-1.12.617-1.496.322-.38.756-.572 1.303-.572.496 0 .836.187 1.019.558.184.367.275.986.275 1.854v3.986h1.116v-3.644c.013-.618.038-.987.074-1.108.12-.532.348-.94.683-1.222a1.737 1.737 0 0 1 1.149-.424c.192 0 .36.03.504.088a.73.73 0 0 1 .35.256c.089.116.16.234.214.355.054.116.091.27.114.463.022.192.036.356.04.49.01.13.014.303.014.518v4.228h1.114v-4.578c0-1.781-.726-2.672-2.176-2.672-1.03 0-1.81.481-2.342 1.444-.166-.452-.4-.806-.705-1.06-.304-.256-.725-.384-1.262-.384zm10.827 0c-.949 0-1.803.176-2.564.53l.303.82a4.78 4.78 0 0 1 1.113-.363 5.59 5.59 0 0 1 1.17-.135c.537 0 .927.128 1.174.383.25.255.377.643.377 1.162v.699H64.8c-1.142 0-1.975.18-2.498.543-.52.358-.78.921-.78 1.691 0 .645.198 1.15.592 1.512.399.363.923.543 1.576.543.976 0 1.769-.374 2.377-1.121l.121.98h.846v-4.685c0-.904-.232-1.557-.697-1.955-.461-.403-1.12-.604-1.975-.604zm10.817 0c-.909 0-1.64.399-2.19 1.196l-.127-1.047h-.898v7.101h1.113v-4.33c.094-.622.3-1.12.617-1.496.323-.38.757-.572 1.303-.572.497 0 .838.187 1.022.558.183.367.275.986.275 1.854v3.986h1.113v-3.644c.014-.618.039-.987.074-1.108.121-.532.35-.94.686-1.222a1.737 1.737 0 0 1 1.148-.424c.193 0 .36.03.502.088a.73.73 0 0 1 .35.256c.09.116.161.234.215.355.054.116.093.27.115.463.022.192.035.356.04.49.008.13.013.303.013.518v4.228h1.115v-4.578c0-1.781-.726-2.672-2.176-2.672-1.03 0-1.81.481-2.344 1.444-.165-.452-.4-.806-.705-1.06-.304-.256-.724-.384-1.261-.384zm11.246 0c-1.043 0-1.862.34-2.457 1.02-.591.676-.887 1.57-.887 2.685 0 1.088.3 1.976.9 2.66.6.68 1.414 1.02 2.444 1.02 1.007 0 1.816-.342 2.43-1.027.613-.69.92-1.574.92-2.653 0-1.114-.297-2.01-.887-2.685-.591-.68-1.411-1.02-2.463-1.02zm23.123 0c-.94 0-1.716.338-2.324 1.014-.61.676-.912 1.582-.912 2.719 0 1.123.31 2.014.933 2.672.622.653 1.432.98 2.43.98.895 0 1.694-.209 2.396-.625l-.234-.785c-.376.188-.717.33-1.022.424-.304.094-.642.14-1.013.14-.685 0-1.24-.216-1.664-.65-.426-.439-.656-1.112-.692-2.016h4.8l.04-.562c0-1.039-.235-1.85-.705-2.432-.465-.586-1.142-.879-2.033-.879zm-10.299.149v7.101h1.1v-7.101h-1.1zm-4.748.697c1.289 0 1.934.953 1.934 2.86 0 1.884-.662 2.827-1.987 2.827-.671 0-1.191-.249-1.558-.746-.363-.496-.543-1.228-.543-2.195 0-.864.174-1.538.523-2.021.354-.484.897-.725 1.631-.725zm-8.076.006c.73 0 1.28.263 1.652.787.372.52.557 1.212.557 2.08 0 .555-.077 1.04-.229 1.457a2.115 2.115 0 0 1-.738.994c-.336.246-.75.37-1.242.37-.716 0-1.263-.26-1.639-.78-.376-.52-.564-1.2-.564-2.047 0-.864.188-1.555.564-2.074.376-.524.923-.787 1.639-.787zm23.148 0c1.128 0 1.72.766 1.774 2.297h-3.868c.063-.707.283-1.266.659-1.678.38-.412.858-.62 1.435-.62zM40.59 58.406h.853v1.565c-.532.783-1.258 1.174-2.175 1.174-.336 0-.616-.108-.84-.323-.224-.215-.336-.518-.336-.912 0-.22.02-.403.06-.55.04-.153.116-.291.223-.417.107-.13.255-.23.443-.302.188-.076.426-.134.717-.174.291-.04.643-.06 1.055-.06zm24.492 0h.854v1.565c-.533.783-1.259 1.174-2.176 1.174-.336 0-.616-.108-.84-.323-.224-.215-.336-.518-.336-.912 0-.22.02-.403.06-.55.04-.153.116-.291.223-.417.108-.13.256-.23.444-.302.188-.076.425-.134.716-.174.291-.04.643-.06 1.055-.06zM60.9 79.127l-1.101.082v9.8H60.9v-2.597l.764-.725 2.82 3.323h1.309l-3.356-3.86 3.102-3.244h-1.35l-3.33 3.606.041-1.463v-4.922zm11.688 0l-1.113.082v2.209l.052 1.617a2.824 2.824 0 0 0-.341-.504 2.163 2.163 0 0 0-.43-.396 1.79 1.79 0 0 0-.611-.281 3.169 3.169 0 0 0-.807-.094c-.94 0-1.684.334-2.234 1.006-.547.671-.82 1.55-.82 2.638 0 1.146.264 2.057.792 2.733.533.671 1.29 1.008 2.27 1.008 1.016 0 1.754-.463 2.215-1.39l.101 1.255h.926v-9.883zm4.68 2.633c-.94 0-1.714.338-2.323 1.013-.608.676-.914 1.582-.914 2.72 0 1.123.312 2.013.934 2.671.622.654 1.431.98 2.43.98.895 0 1.695-.208 2.398-.624l-.236-.786a6.83 6.83 0 0 1-1.02.424c-.304.094-.642.14-1.014.14-.684 0-1.24-.215-1.666-.65-.425-.438-.655-1.111-.691-2.015h4.8l.042-.563c0-1.038-.235-1.85-.705-2.431-.466-.587-1.145-.88-2.035-.88zm10.554 0c-1.043 0-1.861.339-2.457 1.02-.59.675-.886 1.57-.886 2.685 0 1.087.3 1.975.9 2.66.6.68 1.414 1.02 2.443 1.02 1.007 0 1.817-.343 2.43-1.028.613-.69.92-1.573.92-2.652 0-1.115-.296-2.01-.887-2.686-.59-.68-1.41-1.02-2.463-1.02zm12.274 0c-.528 0-.997.098-1.405.295a2.484 2.484 0 0 0-.98.806 3.79 3.79 0 0 0-.557 1.174 5.087 5.087 0 0 0-.187 1.416c0 .448.06.875.181 1.278.126.402.306.768.543 1.1.238.33.555.595.954.792.402.197.857.295 1.363.295.523 0 .97-.104 1.342-.314.376-.21.667-.5.873-.868l.021.834v.194c0 .89-.184 1.534-.55 1.927-.363.394-.925.59-1.686.59-.56 0-1.25-.096-2.069-.289l-.087.942c.805.183 1.525.275 2.156.275 1.16 0 1.992-.318 2.498-.953.51-.631.765-1.567.765-2.807v-6.539h-1.013l-.069 1.02c-.425-.78-1.122-1.168-2.093-1.168zm-4.217.074c-.43 0-.84.12-1.229.361-.385.238-.712.611-.98 1.121l-.121-1.408h-.893v7.102h1.114v-4.022c0-.63.197-1.165.591-1.603.399-.439.901-.658 1.51-.658.125 0 .278.016.457.052l.047-.912a3.01 3.01 0 0 0-.496-.033zm-71.45.074l1.995 7.102h1.06l1.868-6.123 1.972 6.123h.988l1.913-7.102h-1.02l-1.418 5.719-1.851-5.719h-1.19l-1.744 5.74-1.518-5.74H24.43zm10.5 0l1.995 7.102h1.06l1.868-6.123 1.974 6.123h.986l1.915-7.102h-1.022l-1.416 5.719-1.853-5.719h-1.188l-1.746 5.74-1.518-5.74H34.93zm10.503 0l1.992 7.102h1.062l1.866-6.123 1.974 6.123h.986l1.915-7.102h-1.022l-1.416 5.719-1.853-5.719h-1.188l-1.746 5.74-1.518-5.74h-1.052zm24.068.703c.662 0 1.162.248 1.498.74.34.493.51 1.22.51 2.182-.005.882-.168 1.562-.49 2.041-.323.48-.849.719-1.579.719-.693 0-1.205-.255-1.537-.766-.326-.51-.49-1.21-.49-2.101 0-.895.174-1.587.524-2.074.349-.493.87-.74 1.564-.74zm7.795 0c1.128 0 1.718.766 1.771 2.297H75.2c.063-.707.282-1.266.658-1.678.38-.411.86-.619 1.438-.619zm10.527 0c.73 0 1.28.264 1.65.787.372.52.56 1.212.56 2.08 0 .556-.077 1.041-.23 1.458a2.116 2.116 0 0 1-.738.994c-.335.246-.75.369-1.242.369-.716 0-1.262-.26-1.638-.78-.376-.519-.565-1.2-.565-2.046 0-.864.189-1.555.565-2.075.376-.523.922-.787 1.638-.787zm12.326 0c1.357 0 2.036.838 2.036 2.512v.598c0 .322-.036.618-.108.886a2.397 2.397 0 0 1-.344.745 1.51 1.51 0 0 1-.636.523 2.3 2.3 0 0 1-.967.19c-.376 0-.703-.077-.98-.23a1.61 1.61 0 0 1-.631-.616 3.13 3.13 0 0 1-.323-.848 4.446 4.446 0 0 1-.101-.973c0-.367.034-.706.101-1.02.072-.317.18-.613.328-.886.153-.273.366-.488.64-.644.277-.157.605-.237.985-.237zm-42.847 5.01c-.237 0-.418.072-.543.215a.756.756 0 0 0-.19.516c0 .197.064.37.19.517.13.143.31.215.543.215.233 0 .41-.072.531-.215a.76.76 0 0 0 .188-.517.754.754 0 0 0-.188-.516c-.12-.143-.298-.215-.531-.215zm25.056 0c-.237 0-.42.072-.544.215a.755.755 0 0 0-.188.516c0 .197.062.37.188.517.13.143.312.215.544.215.233 0 .409-.072.53-.215a.761.761 0 0 0 .19-.517.756.756 0 0 0-.19-.516c-.121-.143-.297-.215-.53-.215zM60.9 191.127l-1.101.082v9.8H60.9v-2.597l.764-.725 2.82 3.323h1.309l-3.356-3.86 3.102-3.244h-1.35l-3.33 3.606.041-1.463v-4.922zm11.688 0l-1.113.082v2.209l.052 1.617a2.824 2.824 0 0 0-.341-.504 2.163 2.163 0 0 0-.43-.396 1.79 1.79 0 0 0-.611-.281 3.167 3.167 0 0 0-.807-.094c-.94 0-1.684.334-2.234 1.006-.547.671-.82 1.55-.82 2.638 0 1.146.264 2.057.792 2.733.533.671 1.29 1.008 2.27 1.008 1.016 0 1.754-.463 2.215-1.39l.101 1.255h.926v-9.883zm4.68 2.633c-.94 0-1.714.338-2.323 1.013-.608.676-.914 1.582-.914 2.72 0 1.123.312 2.013.934 2.671.622.654 1.431.98 2.43.98.895 0 1.695-.208 2.398-.624l-.236-.786a6.83 6.83 0 0 1-1.02.424c-.304.094-.642.14-1.014.14-.684 0-1.24-.215-1.666-.65-.425-.438-.655-1.111-.691-2.015h4.8l.042-.563c0-1.038-.235-1.85-.705-2.431-.466-.587-1.145-.88-2.035-.88zm10.554 0c-1.043 0-1.861.339-2.457 1.02-.59.675-.886 1.57-.886 2.685 0 1.087.3 1.975.9 2.66.6.68 1.414 1.02 2.443 1.02 1.007 0 1.817-.343 2.43-1.028.613-.69.92-1.573.92-2.652 0-1.115-.296-2.01-.887-2.686-.59-.68-1.41-1.02-2.463-1.02zm12.274 0c-.528 0-.997.098-1.405.295a2.484 2.484 0 0 0-.98.806 3.79 3.79 0 0 0-.557 1.174 5.1 5.1 0 0 0-.187 1.418c0 .448.06.873.181 1.276.126.402.306.768.543 1.1.238.33.555.595.954.792.402.197.857.295 1.363.295.523 0 .97-.104 1.342-.314.376-.21.667-.5.873-.868l.021.832v.196c0 .89-.184 1.534-.55 1.927-.363.394-.925.59-1.686.59-.56 0-1.25-.096-2.069-.289l-.087.942c.805.183 1.525.275 2.156.275 1.16 0 1.992-.318 2.498-.953.51-.631.765-1.567.765-2.807v-6.539h-1.013l-.069 1.02c-.425-.78-1.122-1.168-2.093-1.168zm-4.217.074c-.43 0-.84.12-1.229.361-.385.238-.712.611-.98 1.121l-.121-1.408h-.893v7.102h1.114v-4.022c0-.63.197-1.165.591-1.603.399-.439.901-.658 1.51-.658.125 0 .278.017.457.052l.047-.912a3.008 3.008 0 0 0-.496-.033zm-71.45.074l1.995 7.102h1.06l1.868-6.123 1.972 6.123h.988l1.913-7.102h-1.02l-1.418 5.719-1.851-5.719h-1.19l-1.744 5.74-1.518-5.74H24.43zm10.5 0l1.995 7.102h1.06l1.868-6.123 1.974 6.123h.986l1.915-7.102h-1.022l-1.416 5.719-1.853-5.719h-1.188l-1.746 5.74-1.518-5.74H34.93zm10.503 0l1.992 7.102h1.062l1.866-6.123 1.974 6.123h.986l1.915-7.102h-1.022l-1.416 5.719-1.853-5.719h-1.188l-1.746 5.74-1.518-5.74h-1.052zm24.068.703c.662 0 1.162.248 1.498.74.34.493.51 1.22.51 2.182-.005.882-.168 1.562-.49 2.041-.323.48-.849.719-1.579.719-.693 0-1.205-.255-1.537-.766-.326-.51-.49-1.21-.49-2.101 0-.895.174-1.587.524-2.074.349-.493.87-.74 1.564-.74zm7.795 0c1.128 0 1.718.766 1.771 2.297H75.2c.063-.707.282-1.266.658-1.678.38-.411.86-.619 1.438-.619zm10.527 0c.73 0 1.28.264 1.65.787.372.52.56 1.212.56 2.08 0 .556-.077 1.041-.23 1.458a2.116 2.116 0 0 1-.738.994c-.335.246-.75.369-1.242.369-.716 0-1.262-.26-1.638-.78-.376-.519-.565-1.2-.565-2.046 0-.864.189-1.555.565-2.075.376-.523.922-.787 1.638-.787zm12.326 0c1.357 0 2.036.838 2.036 2.512v.598c0 .322-.036.618-.108.886a2.397 2.397 0 0 1-.344.745 1.51 1.51 0 0 1-.636.523 2.3 2.3 0 0 1-.967.19c-.376 0-.703-.077-.98-.23a1.61 1.61 0 0 1-.631-.616 3.13 3.13 0 0 1-.323-.848 4.446 4.446 0 0 1-.101-.973c0-.367.034-.706.101-1.02.072-.317.18-.613.328-.886.153-.273.366-.488.64-.644.277-.157.605-.237.985-.237zm-42.847 5.01c-.237 0-.418.072-.543.215a.761.761 0 0 0-.19.518c0 .196.064.367.19.515.13.143.31.215.543.215.233 0 .41-.072.531-.215a.755.755 0 0 0 .188-.515.76.76 0 0 0-.188-.518c-.12-.143-.298-.215-.531-.215zm25.056 0c-.237 0-.42.072-.544.215a.76.76 0 0 0-.188.518.77.77 0 0 0 .188.515c.13.143.312.215.544.215.233 0 .409-.072.53-.215a.756.756 0 0 0 .19-.515.761.761 0 0 0-.19-.518c-.121-.143-.297-.215-.53-.215zm-48.24 17.506l-1.1.082v7.768c0 .425.049.778.147 1.06.099.278.251.49.457.637.206.148.438.252.697.31.264.054.591.08.98.08h.532l.06-.765-.302-.02c-.193-.013-.342-.026-.45-.035a6.68 6.68 0 0 1-.349-.053 1.024 1.024 0 0 1-.275-.093 1.656 1.656 0 0 1-.182-.149.48.48 0 0 1-.133-.22 3.433 3.433 0 0 1-.06-.31 3.75 3.75 0 0 1-.022-.423v-7.87zm30.951 0l-1.101.082v9.8h1.101v-2.597l.766-.725 2.82 3.323h1.309l-3.358-3.86 3.104-3.244h-1.35l-3.33 3.606.04-1.463v-4.922zm11.69 0l-1.115.082v2.209l.054 1.617a2.828 2.828 0 0 0-.343-.504 2.163 2.163 0 0 0-.43-.396 1.78 1.78 0 0 0-.61-.281 3.167 3.167 0 0 0-.806-.094c-.94 0-1.686.334-2.237 1.006-.546.671-.818 1.55-.818 2.638 0 1.146.265 2.057.793 2.733.533.671 1.29 1.008 2.27 1.008 1.016 0 1.753-.463 2.214-1.39l.102 1.255h.926v-9.883zm-16.24.834l-.895.066-.18 1.881-1.095.072-.026.631h1.094v4.272c0 .434.037.784.113 1.053.076.268.214.491.41.666.202.174.462.294.78.36.318.068.733.102 1.248.102h.463l.054-.765-.564-.028c-.595-.022-.978-.115-1.149-.28-.17-.17-.253-.54-.253-1.108v-4.272h1.878v-.703h-1.878v-1.947zM28.47 219.76c-1.025 0-1.799.462-2.323 1.388l-.113-1.24h-.928v10.217h1.116v-2.672l-.047-1.644c.528.89 1.286 1.336 2.275 1.336.931 0 1.657-.335 2.176-1.006.52-.672.78-1.56.78-2.66 0-1.146-.251-2.052-.753-2.72-.497-.666-1.225-1-2.183-1zm11.273 0c-.949 0-1.803.175-2.564.53l.302.82a4.779 4.779 0 0 1 1.114-.364c.416-.09.805-.135 1.168-.135.537 0 .93.128 1.175.383.251.255.375.643.375 1.162v.7H40.18c-1.142 0-1.973.18-2.496.542-.52.359-.78.922-.78 1.692 0 .644.196 1.149.59 1.512.398.362.925.543 1.578.543.976 0 1.768-.374 2.377-1.122l.121.98h.846v-4.685c0-.904-.232-1.556-.697-1.955-.461-.403-1.12-.603-1.975-.603zm7.955 0c-1.07 0-1.873.375-2.41 1.127l-.121-.979h-.967v7.102h1.115v-3.961c0-1.625.73-2.438 2.19-2.438.541 0 .92.164 1.135.49.214.323.322.804.322 1.444v4.465h1.113v-4.344c0-.976-.194-1.703-.584-2.182-.385-.483-.983-.724-1.793-.724zm7.018 0c-.94 0-1.716.338-2.324 1.013-.61.676-.913 1.582-.913 2.72 0 1.123.31 2.013.932 2.671.622.654 1.434.98 2.432.98.895 0 1.694-.208 2.396-.624l-.234-.786c-.376.188-.717.33-1.022.424-.304.094-.642.14-1.013.14-.685 0-1.24-.215-1.664-.65-.426-.438-.656-1.111-.692-2.015h4.8l.04-.563c0-1.038-.235-1.85-.705-2.431-.465-.587-1.142-.88-2.033-.88zm26.72 0c-.94 0-1.715.338-2.324 1.013-.608.676-.912 1.582-.912 2.72 0 1.123.312 2.013.934 2.671.622.654 1.431.98 2.43.98.895 0 1.693-.208 2.396-.624l-.234-.786a6.83 6.83 0 0 1-1.02.424c-.304.094-.644.14-1.016.14-.684 0-1.238-.215-1.664-.65-.425-.438-.655-1.111-.691-2.015h4.8l.04-.563c0-1.038-.235-1.85-.705-2.431-.466-.587-1.143-.88-2.034-.88zm10.555 0c-1.043 0-1.864.339-2.459 1.02-.59.675-.885 1.57-.885 2.685 0 1.087.3 1.975.899 2.66.6.68 1.416 1.02 2.445 1.02 1.007 0 1.817-.343 2.43-1.028.613-.69.92-1.573.92-2.652 0-1.115-.296-2.01-.887-2.686-.59-.68-1.411-1.02-2.463-1.02zm12.272 0c-.528 0-.995.098-1.403.295a2.484 2.484 0 0 0-.98.806 3.79 3.79 0 0 0-.557 1.174 5.1 5.1 0 0 0-.19 1.418c0 .448.062.873.182 1.276.126.402.308.768.545 1.1.238.33.555.595.953.792.403.197.858.295 1.364.295.523 0 .97-.104 1.342-.314.376-.21.667-.5.873-.868l.02.832v.196c0 .89-.185 1.534-.552 1.927-.362.394-.922.59-1.683.59-.56 0-1.25-.096-2.069-.289l-.088.942c.806.183 1.526.275 2.157.275 1.159 0 1.99-.318 2.496-.953.51-.631.765-1.567.765-2.807v-6.539h-1.013l-.067 1.02c-.425-.78-1.124-1.168-2.095-1.168zm-4.215.074c-.43 0-.84.12-1.229.361-.385.238-.712.611-.98 1.121l-.121-1.408h-.893v7.102h1.113v-4.022c0-.63.198-1.165.592-1.603.399-.439.901-.658 1.51-.658.125 0 .278.017.457.052l.047-.912a3.008 3.008 0 0 0-.496-.033zm-71.705.777c1.28 0 1.92.952 1.92 2.854 0 1.884-.662 2.828-1.987 2.828-.671 0-1.191-.259-1.558-.773-.363-.515-.543-1.237-.543-2.168.004-.86.183-1.53.537-2.014.353-.484.897-.727 1.63-.727zm26.398 0c1.128 0 1.72.766 1.774 2.297h-3.868c.063-.707.283-1.266.659-1.678.38-.411.858-.619 1.435-.619zm18.928 0c.662 0 1.16.248 1.496.74.34.493.51 1.22.51 2.182-.005.882-.166 1.562-.489 2.041-.322.48-.848.719-1.578.719-.693 0-1.206-.255-1.537-.766-.326-.51-.49-1.21-.49-2.101 0-.895.174-1.587.523-2.074.35-.493.871-.74 1.565-.74zm7.795 0c1.128 0 1.718.766 1.771 2.297H79.37c.063-.707.282-1.266.658-1.678.38-.411.86-.619 1.438-.619zm10.527 0c.73 0 1.28.264 1.65.787.372.52.56 1.212.56 2.08 0 .556-.077 1.041-.23 1.458a2.116 2.116 0 0 1-.738.994c-.335.246-.75.369-1.242.369-.716 0-1.263-.26-1.638-.78-.376-.519-.565-1.2-.565-2.046 0-.864.189-1.555.565-2.075.375-.523.922-.787 1.638-.787zm12.326 0c1.357 0 2.034.838 2.034 2.512v.598c0 .322-.036.618-.108.886a2.393 2.393 0 0 1-.342.745 1.515 1.515 0 0 1-.638.523 2.3 2.3 0 0 1-.967.19 2 2 0 0 1-.979-.23 1.61 1.61 0 0 1-.63-.616 3.135 3.135 0 0 1-.325-.848c-.067-.3-.1-.623-.1-.973 0-.367.033-.706.1-1.02.072-.317.183-.613.33-.886.153-.273.366-.488.639-.644.278-.157.606-.237.986-.237zm-63.855 2.983h.851v1.564c-.532.783-1.256 1.174-2.173 1.174-.336 0-.616-.107-.84-.322-.224-.215-.336-.518-.336-.912 0-.22.02-.403.06-.551a1.042 1.042 0 0 1 .664-.719c.188-.076.428-.133.72-.174.29-.04.642-.06 1.054-.06zm46.062 2.027c-.237 0-.417.072-.543.215a.76.76 0 0 0-.187.518.77.77 0 0 0 .187.515c.13.143.31.215.543.215.233 0 .41-.072.532-.215a.755.755 0 0 0 .187-.515.76.76 0 0 0-.187-.518c-.121-.143-.299-.215-.532-.215z" id="path4986" fill="currentColor" fill-opacity="1" stroke="none"/><path class="ColorScheme-Text" d="M16.008 70.621v1H239.25v-1H16.008zm0 26v1H239.25v-1H16.008zm0 86v1H239.25v-1H16.008zm0 26v1H239.25v-1H16.008z" id="path10300" fill="currentColor" fill-opacity=".5" stroke="none"/><g transform="matrix(1.13636 0 0 1.13636 -413.694 -486.224)" id="layer1-7" stroke="none"><path id="rect3500" d="M389.571 517.798v28h15l7-7v-21h-7z" fill="url(#linearGradient4306)" fill-opacity="1"/><path id="rect4169" opacity="1" fill="#2e3132" fill-opacity=".294" d="M389.571 544.798h15v1h-15z"/><path id="rect4236" opacity="1" fill="#fff" fill-opacity=".412" d="M389.571 517.798h22v1h-22z"/><path id="path4314" d="M411.571 538.798l-7 7v-7z" fill="url(#linearGradient4357)" fill-opacity="1" fill-rule="evenodd" stroke-width="1" stroke-linecap="butt" stroke-linejoin="miter" stroke-opacity="1"/><path d="M397.571 545.798l7-7v7z" id="path4320" opacity=".2" fill="url(#linearGradient4503)" fill-opacity="1" fill-rule="evenodd" stroke-width="1" stroke-linecap="butt" stroke-linejoin="miter" stroke-opacity="1"/><path id="rect4139" d="M396.571 524.798c-1.108 0-2 .892-2 2a1.996 1.996 0 0 0 3.307 1.506 4.9 4.9 0 0 1 .693 2.494 4.9 4.9 0 0 1-.693 2.494 1.996 1.996 0 0 0-3.307 1.506 1.996 1.996 0 0 0 3.725 1h5.275v1h3v-3h-3v1h-5c0-.197-.037-.383-.09-.563a5.95 5.95 0 0 0 1.09-3.437c0-1.28-.416-2.447-1.095-3.418a1.99 1.99 0 0 0 .095-.582h4v2h4v-4h-4v1h-4.275a1.99 1.99 0 0 0-1.725-1zm0 1c.554 0 1 .446 1 1s-.446 1-1 1-1-.446-1-1 .446-1 1-1zm7 0h2v2h-2v-2zm-7 8c.554 0 1 .446 1 1s-.446 1-1 1-1-.446-1-1 .446-1 1-1zm8 1h1v1h-1v-1z" style="isolation:auto;mix-blend-mode:normal;solid-color:#000;solid-opacity:1" color="#000" clip-rule="nonzero" display="inline" overflow="visible" visibility="visible" opacity="1" color-interpolation="sRGB" color-interpolation-filters="linearRGB" fill="#fddda3" fill-opacity="1" fill-rule="nonzero" stroke-width="1" stroke-linecap="butt" stroke-linejoin="miter" stroke-miterlimit="4" stroke-dasharray="none" stroke-dashoffset="0" stroke-opacity="1" color-rendering="auto" image-rendering="auto" shape-rendering="auto" text-rendering="auto"/></g><g transform="matrix(1.13636 0 0 1.13636 -356.028 -486.224)" id="layer1-3"><path id="rect3500-4" d="M389.571 517.798v28h15l7-7v-21h-7z" fill="url(#linearGradient4306-0)" fill-opacity="1" stroke="none"/><path id="rect4169-7" opacity="1" fill="#2e3132" fill-opacity=".294" stroke="none" d="M389.571 544.798h15v1h-15z"/><path id="rect4236-1" opacity="1" fill="#fff" fill-opacity=".41" stroke="none" d="M389.571 517.798h22v1h-22z"/><path id="path4314-6" d="M411.571 538.798l-7 7v-7z" fill="url(#linearGradient4357-0)" fill-opacity="1" fill-rule="evenodd" stroke="none" stroke-width="1" stroke-linecap="butt" stroke-linejoin="miter" stroke-opacity="1"/><path d="M397.571 545.798l7-7v7z" id="path4320-5" opacity=".2" fill="url(#linearGradient4505)" fill-opacity="1" fill-rule="evenodd" stroke="none" stroke-width="1" stroke-linecap="butt" stroke-linejoin="miter" stroke-opacity="1"/><g id="layer1-7-5" transform="translate(392.571 -513.564)" fill="#fff" fill-opacity="1"><path style="marker:none" d="M2 2v1h6V2H2zm0 3v1h12V5H2zm0 3v1h5V8H2zm6 0v6h6V8H8zm1 1h4v4H9V9zm-7 1v1h5v-1H2zm0 3v1h5v-1H2z" transform="translate(0 1036.362)" id="rect4020" color="#000" display="inline" overflow="visible" visibility="visible" fill="#fff" fill-opacity="1" fill-rule="nonzero" stroke="none" stroke-width="1.4"/></g></g><g transform="matrix(1.13636 0 0 1.13636 -240.694 -486.224)" id="layer1-5"><path id="rect3500-5" d="M389.571 517.798v28h15l7-7v-21h-7z" fill="url(#linearGradient4306-06)" fill-opacity="1" stroke="none"/><path id="rect4169-1" opacity="1" fill="#2e3132" fill-opacity=".294" stroke="none" d="M389.571 544.798h15v1h-15z"/><path id="rect4236-4" opacity="1" fill="#fff" fill-opacity=".412" stroke="none" d="M389.571 517.798h22v1h-22z"/><path id="path4314-5" d="M411.571 538.798l-7 7v-7z" fill="url(#linearGradient4357-6)" fill-opacity="1" fill-rule="evenodd" stroke="none" stroke-width="1" stroke-linecap="butt" stroke-linejoin="miter" stroke-opacity="1"/><path d="M397.571 545.798l7-7v7z" id="path4320-2" opacity=".2" fill="url(#linearGradient4507)" fill-opacity="1" fill-rule="evenodd" stroke="none" stroke-width="1" stroke-linecap="butt" stroke-linejoin="miter" stroke-opacity="1"/><g id="layer1-4" transform="matrix(1.00066 0 0 1.00193 392.576 -515.563)" fill="#fcbcbe" fill-opacity="1"><path d="M3.856 1038.362c-.162.01-.336 0-.527.132-1.704.732-.56 2.741 1.611 4.27.013-.288.133-.915.13-1.191-1.853-1.269-2.937-2.504-1.756-2.994 1.245-.516 1.632.893 1.654 2.939.116.12.92.653 1.041.737-.045-1.865-1.038-3.77-1.992-3.877-.05-.01-.107-.01-.16-.01m1.734 3.245l-.388-.15-.321.215-.065.681.406.311.169.226c1.25.828 2.315 1.466 3.716 1.993l.874.13h.575c.53-.312.214-.432 2.14-.672l-2.17.168c-1.675-.649-3.383-1.58-4.937-2.595m3.82 2.715c.251 0 2.21-.17 2.989-.242.77-.12 1.718-.156 1.539.745.204-.48-.261-1.296-.922-1.44-1.022-.228-2.644.398-3.227.59m.94.25c-.304.12-.999.206-1.327.314.465.24 2.8 1.101 3.764.921.154 0 .805-.467.82-.803-.05.612-2.903.156-3.257-.445m.635.011c-.25-.12-1.421-.114-1.68-.21-1.467.513-3.44 1.716-4.852 2.527l-.409.12c-.078.56-.424.754-.74 1.117l.478.48.374-.612c1.653-.997 4.922-2.606 6.828-3.38m-6.828 3.38c-.202.12-.395.24-.578.36-.424 1.201-.918 2.01-1.39 1.975.73.349 2.3-1.367 2.829-2.98m-2.829 2.98c-1.112-.66 1.242-1.863 1.77-2.212.118-.336-.207-.893-.101-1.29-1.66 1.033-2.642 2.527-2.085 3.235.134.168.276.252.417.264m1.616-2.515c.077-.31 1.103-1.013 1.288-1.121.248-1.951.26-2.144.47-3.66a23.06 23.06 0 0 0-1.021-.808c-.15 1.62-.43 3.817-.825 5.284" id="path26" fill="#fcbcbe" fill-opacity="1"/></g></g><g transform="matrix(1.13636 0 0 1.13636 -298.361 -486.224)" id="layer1-55"><path id="rect3500-52" d="M389.571 517.798v28h15l7-7v-21h-7z" fill="url(#linearGradient4306-9)" fill-opacity="1" stroke="none"/><path id="rect4169-96" opacity="1" fill="#2e3132" fill-opacity=".294" stroke="none" d="M389.571 544.798h15v1h-15z"/><path id="rect4236-37" opacity="1" fill="#fff" fill-opacity=".412" stroke="none" d="M389.571 517.798h22v1h-22z"/><path id="path4314-7" d="M411.571 538.798l-7 7v-7z" fill="url(#linearGradient4357-1)" fill-opacity="1" fill-rule="evenodd" stroke="none" stroke-width="1" stroke-linecap="butt" stroke-linejoin="miter" stroke-opacity="1"/><path d="M397.571 545.798l7-7v7z" id="path4320-4" opacity=".2" fill="url(#linearGradient4509)" fill-opacity="1" fill-rule="evenodd" stroke="none" stroke-width="1" stroke-linecap="butt" stroke-linejoin="miter" stroke-opacity="1"/><g id="layer1-9" transform="translate(392.571 -513.564)" fill="#aa810a" fill-opacity="1"><path d="M2 1038.362v12h12v-12zm1 1h4v1h1v-1h5v10H3zm5 1v1h1v-1zm0 1H7v1h1zm0 1v1h1v-1zm0 1H7v1h1zm0 1v1h1v-1zm0 1H7v2h2v-1H8z" id="rect4173" fill="#aa810a" fill-opacity="1" stroke="none"/></g></g><g transform="matrix(1.13636 0 0 1.13636 -240.694 -442.224)" id="layer1-2"><path id="rect3500-3" d="M389.571 517.798v28h15l7-7v-21h-7z" fill="url(#linearGradient4306-92)" fill-opacity="1" stroke="none"/><path id="rect4169-2" opacity="1" fill="#2e3132" fill-opacity=".294" stroke="none" d="M389.571 544.798h15v1h-15z"/><path id="rect4236-49" opacity="1" fill="#fff" fill-opacity=".41" stroke="none" d="M389.571 517.798h22v1h-22z"/><path id="path4314-0" d="M411.571 538.798l-7 7v-7z" fill="url(#linearGradient4357-41)" fill-opacity="1" fill-rule="evenodd" stroke="none" stroke-width="1" stroke-linecap="butt" stroke-linejoin="miter" stroke-opacity="1"/><path d="M397.571 545.798l7-7v7z" id="path4320-6" opacity=".2" fill="url(#linearGradient4511)" fill-opacity="1" fill-rule="evenodd" stroke="none" stroke-width="1" stroke-linecap="butt" stroke-linejoin="miter" stroke-opacity="1"/><path id="rect4139-9" d="M396.571 524.798c-1.108 0-2 .892-2 2a1.996 1.996 0 0 0 3.307 1.506 4.9 4.9 0 0 1 .693 2.494 4.9 4.9 0 0 1-.693 2.494 1.996 1.996 0 0 0-3.307 1.506 1.996 1.996 0 0 0 3.725 1h5.275v1h3v-3h-3v1h-5c0-.197-.037-.383-.09-.563a5.95 5.95 0 0 0 1.09-3.437c0-1.28-.416-2.447-1.095-3.418a1.99 1.99 0 0 0 .095-.582h4v2h4v-4h-4v1h-4.275a1.99 1.99 0 0 0-1.725-1zm0 1c.554 0 1 .446 1 1s-.446 1-1 1-1-.446-1-1 .446-1 1-1zm7 0h2v2h-2v-2zm-7 8c.554 0 1 .446 1 1s-.446 1-1 1-1-.446-1-1 .446-1 1-1zm8 1h1v1h-1v-1z" style="isolation:auto;mix-blend-mode:normal;solid-color:#000;solid-opacity:1" color="#000" clip-rule="nonzero" display="inline" overflow="visible" visibility="visible" opacity="1" color-interpolation="sRGB" color-interpolation-filters="linearRGB" fill="#036b53" fill-opacity="1" fill-rule="nonzero" stroke="none" stroke-width="1" stroke-linecap="butt" stroke-linejoin="miter" stroke-miterlimit="4" stroke-dasharray="none" stroke-dashoffset="0" stroke-opacity="1" color-rendering="auto" image-rendering="auto" shape-rendering="auto" text-rendering="auto"/></g><g transform="matrix(1.13636 0 0 1.13636 -356.028 -442.224)" id="layer1-19"><path id="rect3500-0" d="M389.571 517.798v28h15l7-7v-21h-7z" fill="url(#linearGradient5295)" fill-opacity="1" stroke="none"/><path id="rect4169-95" opacity="1" fill="#2e3132" fill-opacity=".294" stroke="none" d="M389.571 544.798h15v1h-15z"/><path id="rect4236-23" opacity="1" fill="#fff" fill-opacity=".412" stroke="none" d="M389.571 517.798h22v1h-22z"/><path id="path4314-97" d="M411.571 538.798l-7 7v-7z" fill="url(#linearGradient5297)" fill-opacity="1" fill-rule="evenodd" stroke="none" stroke-width="1" stroke-linecap="butt" stroke-linejoin="miter" stroke-opacity="1"/><path d="M397.571 545.798l7-7v7z" id="path4320-7" opacity=".2" fill="url(#linearGradient4513)" fill-opacity="1" fill-rule="evenodd" stroke="none" stroke-width="1" stroke-linecap="butt" stroke-linejoin="miter" stroke-opacity="1"/><g id="layer1-9-5" transform="translate(392.571 -513.564)" fill="#fffcf9" fill-opacity="1"><path d="M13.635 1038.368a1.5 6.75 44.99 0 0-5.584 3.824 1.5 6.75 44.99 0 0-2.657 3.086 2.603 2.603 0 0 1 1.693 1.693 1.5 6.75 44.99 0 0 3.085-2.658 1.5 6.75 44.99 0 0 3.712-5.834 1.5 6.75 44.99 0 0-.25-.112M5 1046.361c-3 .804-.75 2.704-3 4.001 3 0 4.5-1.501 4.5-2.502 0-.5.05-1.418-1.5-1.5" id="path88" fill="#fffcf9" fill-opacity="1"/></g></g><g transform="matrix(1.13636 0 0 1.13636 -298.361 -442.224)" id="layer1-09"><path id="rect3500-1" d="M389.571 517.798v28h15l7-7v-21h-7z" fill="url(#linearGradient4306-83)" fill-opacity="1" stroke="none"/><path id="rect4169-6" opacity="1" fill="#2e3132" fill-opacity=".294" stroke="none" d="M389.571 544.798h15v1h-15z"/><path id="rect4236-34" opacity="1" fill="#fff" fill-opacity=".412" stroke="none" d="M389.571 517.798h22v1h-22z"/><path id="path4314-70" d="M411.571 538.798l-7 7v-7z" fill="url(#linearGradient4357-33)" fill-opacity="1" fill-rule="evenodd" stroke="none" stroke-width="1" stroke-linecap="butt" stroke-linejoin="miter" stroke-opacity="1"/><path d="M397.571 545.798l7-7v7z" id="path4320-29" opacity=".2" fill="url(#linearGradient4515)" fill-opacity="1" fill-rule="evenodd" stroke="none" stroke-width="1" stroke-linecap="butt" stroke-linejoin="miter" stroke-opacity="1"/><g id="layer1-96" transform="translate(392.571 -513.564)" fill="#e3f5df" fill-opacity="1"><path d="M2 2v8.992l-1 1V12h1v2h12v-2.998h1v-.01l-1-1V2H2zm1 1h10v5.992L9.006 5H9v.002h-.006L6.498 7.494 6.004 7h-.008L3 9.994V3zm2 1c-.554 0-1 .446-1 1s.446 1 1 1 1-.446 1-1-.446-1-1-1zm4 2.41l4 3.998V11h-2.992L7.207 8.203 9 6.41zm-3 2l.5.5L8.59 11H3.408L6 8.41zM3 12h6.59l.002.002H11V12h2v1H3v-1z" transform="translate(0 1036.362)" id="rect4139-0" opacity="1" fill="#e3f5df" fill-opacity="1" stroke="none" stroke-opacity="1"/></g></g><g transform="matrix(1.13636 0 0 1.13636 -413.694 -442.224)" id="layer1-90" stroke="none"><path id="rect3500-07" d="M389.571 517.798v28h15l7-7v-21h-7z" fill="url(#linearGradient4306-2)" fill-opacity="1"/><path id="rect4169-45" opacity="1" fill="#2e3132" fill-opacity=".294" d="M389.571 544.798h15v1h-15z"/><path id="rect4236-27" opacity="1" fill="#fff" fill-opacity=".412" d="M389.571 517.798h22v1h-22z"/><path id="path4314-4" d="M411.571 538.798l-7 7v-7z" fill="url(#linearGradient4357-8)" fill-opacity="1" fill-rule="evenodd" stroke-width="1" stroke-linecap="butt" stroke-linejoin="miter" stroke-opacity="1"/><path d="M397.571 545.798l7-7v7z" id="path4320-82" opacity=".2" fill="url(#linearGradient5285)" fill-opacity="1" fill-rule="evenodd" stroke-width="1" stroke-linecap="butt" stroke-linejoin="miter" stroke-opacity="1"/><path id="rect4020-1" d="M394.571 524.798v1h6v-1h-6zm0 3v1h12v-1h-12zm0 3v1h6v-1h-6zm0 2v1h12v-1h-12zm0 3v1h9v-1h-9z" style="marker:none" color="#000" display="inline" overflow="visible" visibility="visible" fill="#5e6b78" fill-opacity="1" fill-rule="nonzero" stroke-width="1.4"/></g></svg>