<svg xmlns="http://www.w3.org/2000/svg" width="22" height="22" version="1.1" id="svg9"><defs id="defs3"><style id="current-color-scheme" type="text/css">.ColorScheme-Text{color:#d3dae3}</style></defs><g id="g4492" transform="matrix(1.14286 0 0 1.14286 1.857 2.429)"><path id="path5" d="M2 1S1 1 1 2v3c0-1 1-1 1-1h5l2 2h5s1 0 1 1V4c0-1-1-1-1-1H9L7 1z" class="ColorScheme-Text" color="#d3dae3" opacity=".3" fill="currentColor"/><path id="path7" d="M2 5S1 5 1 6v7s0 1 1 1h12s1 0 1-1V8c0-1-1-1-1-1H9L7 5z" class="ColorScheme-Text" color="#d3dae3" fill="currentColor"/></g></svg>