<svg xmlns="http://www.w3.org/2000/svg" width="22" height="22" viewBox="0 0 16 16" version="1.1" id="svg7"><defs id="defs3"><style id="current-color-scheme" type="text/css"></style></defs><path d="M3.766 2.6c-.414.036-.696.4-.779.78-.242.741-.492 1.49-.727 2.234l-.078.311v6.65c0 .46.37.831.831.831h9.974a.83.83 0 0 0 .831-.831v-6.65l-.104-.39c-.28-.822-.534-1.676-.83-2.493-.179-.364-.584-.479-.962-.441zm.68 1.663h7.093l.276.831h-7.64l.271-.83zM7.17 6.757H8.83V9.25h1.455L8 11.744 5.714 9.25H7.17z" id="path5" color="#d3dae3" fill="currentColor" stroke-width=".831"/></svg>