<svg xmlns="http://www.w3.org/2000/svg" width="22" height="22" version="1.1" viewBox="0 0 16 16" id="svg7"><defs id="defs3"><style id="current-color-scheme" type="text/css">.ColorScheme-Text{color:#d3dae3}</style></defs><path class="ColorScheme-Text" d="M6.48 2.182s.686.386.202 1.403c-.732 1.53.676 1.88.676 1.88s-.448-.358.148-1.623c.66-1.4-1.025-1.66-1.025-1.66zm2.66 1.53s-1.365.523-.486 1.953c.582.949-.063 1.42-.063 1.42s1.65-.469.854-1.778C8.73 4.123 9.14 3.711 9.14 3.711zm-3.93.038s-1.195.91-.012 2.03c.782.744.27 1.389.27 1.389s1.481-.942.41-1.97c-.967-.93-.668-1.449-.668-1.449zm.257 3.419H2.182l1.662 6.65h6.65l.228-.913c.194.048.394.081.603.081a2.493 2.493 0 0 0 2.493-2.493 2.488 2.488 0 0 0-1.89-2.413l.228-.912zm6.26 1.714a.831 1.662 15 0 1 .028.005.831 1.662 15 0 1 .373 1.822.831 1.662 15 0 1-1.206 1.394z" id="path5" color="#d3dae3" fill="currentColor" stroke-width=".831"/><path id="path4488" d="M6.48 2.182s.686.386.202 1.403c-.732 1.53.676 1.88.676 1.88s-.448-.358.148-1.623c.66-1.4-1.025-1.66-1.025-1.66zm2.66 1.53s-1.365.523-.486 1.953c.582.949-.063 1.42-.063 1.42s1.65-.469.854-1.778C8.73 4.123 9.14 3.711 9.14 3.711zm-3.93.038s-1.195.91-.012 2.03c.782.744.27 1.389.27 1.389s1.481-.942.41-1.97c-.967-.93-.668-1.449-.668-1.449zm.257 3.419H2.182l1.662 6.65h6.65l.228-.913c.194.048.394.081.603.081a2.493 2.493 0 0 0 2.493-2.493 2.488 2.488 0 0 0-1.89-2.413l.228-.912zm6.26 1.714a.831 1.662 15 0 1 .028.005.831 1.662 15 0 1 .373 1.822.831 1.662 15 0 1-1.206 1.394z" class="ColorScheme-Text" color="#d3dae3" fill="currentColor" stroke-width=".831"/></svg>