<svg xmlns="http://www.w3.org/2000/svg" width="22" height="22" version="1.1" id="svg9"><defs id="defs3"><style id="current-color-scheme" type="text/css">.ColorScheme-Text{color:#d3dae3}</style></defs><g id="g4492" transform="matrix(1.23077 0 0 1.23077 1.154 1.77)"><path id="path5" d="M2 1S1 1 1 2v5c0-1 1-1 1-1h5l2 2h5s1 0 1 1V4c0-1-1-1-1-1H9L7 1z" class="ColorScheme-Text" color="#d3dae3" opacity=".3" fill="currentColor"/><path id="path7" d="M2 7S1 7 1 8v5s0 1 1 1h12s1 0 1-1v-3c0-1-1-1-1-1H9L7 7z" class="ColorScheme-Text" color="#d3dae3" fill="currentColor"/></g></svg>