<svg xmlns="http://www.w3.org/2000/svg" width="22" height="22" version="1.1" viewBox="0 0 16 16" id="svg7"><defs id="defs3"><style id="current-color-scheme" type="text/css"></style></defs><path d="M11.082 3.634a.833.833 0 0 0-.49.167c-.386.277-1.184.567-2.588.567-1.41 0-2.21-.29-2.596-.567a.77.77 0 0 0-.473-.16c-.175 0-.379.05-.59.16-.749.401-1.447 1.697-1.825 3.388-.32 1.443-.436 3.403-.247 4.192.167.685.458.985.974.985.757-.014 1.709-.862 2.32-2.007.436-.634 1.456-.918 2.437-.889.975-.037 1.993.255 2.43.89.61 1.144 1.562 1.992 2.326 2.006.509 0 .8-.3.967-.985.19-.79.073-2.75-.247-4.192-.378-1.69-1.076-2.987-1.826-3.388a1.19 1.19 0 0 0-.572-.167zM5.091 5.82h.727v.727h.728v.728h-.728v.727h-.727v-.727h-.727v-.728h.727zm5.454 0a.364.364 0 0 1 .364.364.364.364 0 0 1-.364.363.364.364 0 0 1-.363-.363.364.364 0 0 1 .363-.364zm-.727.727a.364.364 0 0 1 .364.364.364.364 0 0 1-.364.364.364.364 0 0 1-.363-.364.364.364 0 0 1 .363-.364zm1.455 0a.364.364 0 0 1 .363.364.364.364 0 0 1-.363.364.364.364 0 0 1-.364-.364.364.364 0 0 1 .364-.364zm-.728.728a.364.364 0 0 1 .364.363.364.364 0 0 1-.364.364.364.364 0 0 1-.363-.364.364.364 0 0 1 .363-.363z" id="path5" color="#d3dae3" fill="currentColor" stroke-width=".727"/></svg>