<svg xmlns="http://www.w3.org/2000/svg" width="22" height="22" version="1.1" viewBox="0 0 16 16" id="svg7"><defs id="defs3"><style id="current-color-scheme" type="text/css"></style></defs><path d="M2.182 2.182v11.636h11.636V2.182zm3.324 1.662h.832v.831h.415c.54 0 .998.35 1.172.831H6.338v.832h.415c.69 0 1.247.557 1.247 1.246 0 .69-.557 1.247-1.247 1.247h-.415v.831h-.832v-.83h-.415c-.54 0-.997-.35-1.172-.832h1.587v-.831h-.415c-.69 0-1.247-.557-1.247-1.247 0-.69.557-1.247 1.247-1.247h.415zm-.415 1.662a.412.412 0 0 0-.416.416c0 .233.183.416.416.416h.415v-.832zM6.338 7.17V8h.415a.406.406 0 0 0 .416-.416.412.412 0 0 0-.416-.415zM8.83 8.83h3.325v.831H8.83z" id="path5" color="#d3dae3" fill="currentColor" stroke-width=".831"/></svg>