<svg xmlns="http://www.w3.org/2000/svg" width="22" height="22" version="1.1" viewBox="0 0 16 16" id="svg7"><defs id="defs3"><style id="current-color-scheme" type="text/css"></style></defs><path d="M4.121 2.182a.774.774 0 0 0-.776.776v6.981h.776v-.775h.776v-5.43h3.879V6.06h2.327V13.042h.776v-.775h.776V5.285L9.552 2.182zm7.758 10.86v.776h.776v-.776zm-.776 0h-.776v.776h.776zm-.776 0v-.775h-.775v.775zm-.775 0h-.776v.776h.776zm-.776 0v-.775H8v.775zm-.776 0h-.776v.776H8zm-.776 0v-.775h-.776v.775zm-.776 0h-.775v.776h.775zm-.775 0v-.775h-.776v.775zm-.776 0h-.776v.776h.776zm-.776 0v-.775h-.776v.775zm0-.775h.776v-.776h-.776zm0-.776v-.776h-.776v.776zm0-.776h.776V9.94h-.776z" id="path5" color="#d3dae3" fill="currentColor" stroke-width=".776"/></svg>