<svg xmlns="http://www.w3.org/2000/svg" width="22" height="22" version="1.1" viewBox="0 0 16 16" id="svg7"><defs id="defs3"><style id="current-color-scheme" type="text/css"></style></defs><path d="M11.176 8.364c-.014-1.455 1.202-2.182 1.256-2.182a2.635 2.635 0 0 0-2.127-1.164c-.907-.145-1.769.51-2.228.51-.46 0-1.169-.51-1.92-.51-.988 0-1.899.582-2.407 1.455-1.027 1.818-.263 4.436.737 5.89.489.655 1.071 1.455 1.837 1.455.737 0 1.015-.509 1.906-.509.89 0 1.141.51 1.921.51.793 0 1.296-.728 1.78-1.455.561-.8.793-1.6.807-1.673-.018 0-1.547-.582-1.562-2.327zM9.711 4.073c.406-.51.68-1.237.605-1.891-.585 0-1.294.363-1.713.873-.377.436-.707 1.163-.618 1.818.653.072 1.32-.364 1.726-.8z" id="path5" color="#d3dae3" fill="currentColor" stroke-width=".727"/></svg>