<svg xmlns="http://www.w3.org/2000/svg" width="22" height="22" viewBox="0 0 16 16" version="1.1" id="svg7"><defs id="defs3"><style id="current-color-scheme" type="text/css"></style></defs><path d="M8.099 2.19c-.3-.016-.62-.01-.964.017-5.428.437-3.988 6.17-4.068 8.09-.072 1.016-.409 2.258-.885 3.522h1.466c.15-.536.262-1.065.31-1.57.088.062.183.12.284.177.164.097.305.226.454.362.35.318.746.68 1.52.726.052.003.105.003.156.003.783 0 1.318-.343 1.748-.619.206-.132.385-.245.552-.3a2.98 2.98 0 0 0 1.203-.696c.049-.048.094-.096.136-.147.174.635.41 1.349.674 2.062h3.133c-.752-1.162-1.527-2.3-1.511-3.752h-.002c.03-2.691.29-7.63-4.206-7.874zm.278 4.252c.842-.023 1.544.838 1.566 1.922.01.49-.122.942-.346 1.292a2.338 2.338 0 0 0-.155-.071 9.236 9.236 0 0 0-.62-.239c.092-.18.15-.404.155-.649v-.002c.013-.595-.287-1.078-.67-1.08-.383 0-.705.482-.718 1.077v.059a3.333 3.333 0 0 0-.695-.236c0-.022-.003-.045-.003-.068-.022-1.084.643-1.982 1.486-2.005zm-3.784.3c.606-.035 1.142.697 1.196 1.634.002.05.005.101.005.15a2.349 2.349 0 0 0-.521.2l-.002-.02c-.052-.533-.336-.935-.635-.899-.298.037-.498.498-.446 1.03v.001c.023.232.089.439.182.596l-.164.12A70.73 70.73 0 0 0 4 9.707c-.226-.297-.381-.722-.41-1.203-.053-.937.396-1.726 1.003-1.762zm1.766 2.375c.436 0 .919.17 1.433.5.243.158.454.23.721.322.184.063.392.135.67.255l.004.001c.26.107.567.303.553.625-.021.496-.669.961-1.268 1.148l-.003.002c-.249.08-.47.221-.704.371-.395.253-.804.515-1.393.515-.039 0-.078 0-.117-.003-.54-.032-.794-.262-1.114-.554-.168-.153-.341-.313-.566-.445l-.005-.001c-.485-.274-.788-.616-.807-.912-.01-.148.056-.274.195-.379.302-.227.505-.376.64-.474a2.68 2.68 0 0 0 .227-.173l.078-.075c.277-.27.742-.723 1.456-.723zm-1.85 1.369a.33.33 0 0 0-.123.597c.393.267 1.09.466 1.819.518.123.01.26.015.405.015.634 0 1.44-.06 2.3-.461a.33.33 0 1 0-.279-.6c-.93.434-1.796.43-2.378.387-.694-.05-1.251-.24-1.497-.406a.33.33 0 0 0-.248-.05z" id="path5" color="#d3dae3" fill="currentColor" stroke-width=".831"/></svg>