<svg xmlns="http://www.w3.org/2000/svg" width="22" height="22" viewBox="0 0 16 16" version="1.1" id="svg7"><defs id="defs3"><style id="current-color-scheme" type="text/css"></style></defs><path d="M6.745 2.188a4.574 4.574 0 0 0-4.563 4.563c0 2.51 2.05 4.563 4.563 4.563.956 0 1.856-.297 2.592-.803l3.06 3.059a.834.834 0 1 0 1.166-1.193l-3.059-3.059c.507-.735.83-1.613.83-2.567 0-2.51-2.076-4.563-4.59-4.563zm0 1.66A2.89 2.89 0 0 1 9.649 6.75a2.89 2.89 0 0 1-2.904 2.904A2.89 2.89 0 0 1 3.84 6.751a2.89 2.89 0 0 1 2.904-2.903z" id="path5" color="#d3dae3" fill="currentColor" stroke-width=".83"/></svg>