<svg xmlns="http://www.w3.org/2000/svg" width="22" height="22" viewBox="0 0 16 16" version="1.1" id="svg7"><defs id="defs3"><style id="current-color-scheme" type="text/css"></style></defs><path d="M6.658 1.731c-.895 0-.895.895-.895.895H3.078s-.895.001-.895.897v.898l11.634-.003v-.895c0-.895-.895-.897-.895-.897h-2.685s0-.895-.895-.895zm-3.58 3.585s-.932 2.957-.895 4.478c.027 1.235.895 3.58.895 3.58 0 .469.426.895.895.895h8.054c.469 0 .895-.426.895-.895 0 0 .866-2.348.895-3.576.036-1.522-.895-4.475-.895-4.475z" id="path5" color="#d3dae3" fill="currentColor" stroke-width=".895"/></svg>