<svg xmlns="http://www.w3.org/2000/svg" xmlns:xlink="http://www.w3.org/1999/xlink" width="32" height="32" version="1"><defs><linearGradient id="a"><stop offset="0" stop-color="#db1424"/><stop offset="1" stop-color="#ee4730"/></linearGradient><linearGradient id="b"><stop offset="0" stop-color="#8998ad"/><stop offset="1" stop-color="#f3dcd4"/></linearGradient><linearGradient xlink:href="#a" id="d" x1="-5.667" y1="22.201" x2="-5.597" y2="10.718" gradientUnits="userSpaceOnUse" gradientTransform="matrix(1.84715 0 0 1.9123 26.881 -14.457)"/><linearGradient xlink:href="#b" id="c" x1="-34.169" y1="21.288" x2="-13.153" y2="7.458" gradientUnits="userSpaceOnUse" gradientTransform="matrix(1.22724 0 0 1.55276 46.268 -6.946)"/></defs><g transform="translate(.001)"><path d="M19.993 2.14c-2.39 0-3.167 1.95-4.395 3.9H4.14C2.4 6.04 1 7.488 1 9.29V24.888c.008.18.046.356.08.528a3.195 3.195 0 0 0 2.551 2.64c.214.046.4.082.628.082h23.624c.227 0 .414-.035.628-.082a3.199 3.199 0 0 0 2.55-2.64c.034-.172.07-.348.079-.528V5.552c0-1.9-1.443-3.413-3.257-3.413h-7.887z" fill="#db1424" stroke="#ee4730" stroke-width=".1"/><rect width="25.793" height="21.475" x="4.434" y="4.634" transform="rotate(.008) skewX(.002)" ry="1.735" opacity=".647" fill="#972c35" paint-order="markers stroke fill"/><rect width="25.793" height="21.475" x="4.334" y="4.634" transform="rotate(.008) skewX(.002)" ry="1.735" fill="url(#c)" paint-order="markers stroke fill"/><path d="M12.147 2.14c2.39 0 3.167 1.95 4.395 3.9H28c1.74 0 3.14 1.449 3.14 3.25V24.888c-.008.18-.046.356-.08.528a3.195 3.195 0 0 1-2.551 2.64c-.214.046-.4.082-.628.082H4.257c-.227 0-.414-.035-.628-.082a3.199 3.199 0 0 1-2.55-2.64c-.034-.172-.07-.348-.079-.528V5.552c0-1.9 1.443-3.413 3.257-3.413h7.887z" fill="url(#d)" stroke="#ee4730" stroke-width=".1"/><g fill-rule="evenodd"><g fill="#972c35"><path d="M19.611 19.949c0-1.403-2.379-2.118-3.328-2.372 0 0 .04-.786.131-1.075.092-.288.105-.615.144-.707.04-.092.503-.511.529-.904-.006-.235-.053-.29-.168-.29v-1.219c0-.658-.96-1.232-1.589-1.232-.63 0-1.588.574-1.588 1.232v1.219c-.116 0-.162.055-.169.29.026.393.49.812.53.904.038.092.051.42.143.707.092.289.131 1.075.131 1.075-.949.254-3.328.97-3.328 2.372z" opacity=".647"/><path d="M21.049 19.949c0-1.134-1.924-1.713-2.691-1.918 0 0 .032-.636.106-.869.074-.233.085-.498.116-.572.032-.074.407-.413.428-.731-.005-.19-.043-.235-.136-.235v-.985c0-.532-.776-.996-1.285-.996-.509 0-1.284.464-1.284.996v.985c-.094 0-.131.045-.136.235.021.318.396.657.427.731.032.074.043.339.117.572.074.233.106.869.106.869-.767.205-2.691.784-2.691 1.918z" opacity=".647"/></g><g fill="#f3dcd4"><path d="M19.511 19.849c0-1.403-2.379-2.118-3.328-2.372 0 0 .04-.786.131-1.075.092-.288.105-.615.144-.707.04-.092.503-.511.529-.904-.006-.235-.053-.29-.168-.29v-1.219c0-.658-.96-1.232-1.589-1.232-.63 0-1.588.574-1.588 1.232v1.219c-.116 0-.162.055-.169.29.026.393.49.812.53.904.038.092.051.42.143.707.092.289.131 1.075.131 1.075-.949.254-3.328.97-3.328 2.372z"/><path d="M20.949 19.849c0-1.134-1.924-1.713-2.691-1.918 0 0 .032-.636.106-.869.074-.233.085-.498.116-.572.032-.074.407-.413.428-.731-.005-.19-.043-.235-.136-.235v-.985c0-.532-.776-.996-1.285-.996-.509 0-1.284.464-1.284.996v.985c-.094 0-.131.045-.136.235.021.318.396.657.427.731.032.074.043.339.117.572.074.233.106.869.106.869-.767.205-2.691.784-2.691 1.918z"/></g></g></g></svg>