<?xml version="1.0" encoding="UTF-8" standalone="no"?>
<svg
   xmlns:dc="http://purl.org/dc/elements/1.1/"
   xmlns:cc="http://creativecommons.org/ns#"
   xmlns:rdf="http://www.w3.org/1999/02/22-rdf-syntax-ns#"
   xmlns:svg="http://www.w3.org/2000/svg"
   xmlns="http://www.w3.org/2000/svg"
   xmlns:xlink="http://www.w3.org/1999/xlink"
   xmlns:sodipodi="http://sodipodi.sourceforge.net/DTD/sodipodi-0.dtd"
   xmlns:inkscape="http://www.inkscape.org/namespaces/inkscape"
   width="32"
   height="32"
   version="1"
   id="svg14"
   sodipodi:docname="folder-apple.svg"
   inkscape:version="0.92.4 5da689c313, 2019-01-14">
  <metadata
     id="metadata20">
    <rdf:RDF>
      <cc:Work
         rdf:about="">
        <dc:format>image/svg+xml</dc:format>
        <dc:type
           rdf:resource="http://purl.org/dc/dcmitype/StillImage" />
        <dc:title />
      </cc:Work>
    </rdf:RDF>
  </metadata>
  <defs
     id="defs18">
    <linearGradient
       id="linearGradient990"
       inkscape:collect="always">
      <stop
         id="stop986"
         offset="0"
         style="stop-color:#db1424;stop-opacity:1" />
      <stop
         id="stop988"
         offset="1"
         style="stop-color:#ee4730;stop-opacity:1" />
    </linearGradient>
    <linearGradient
       inkscape:collect="always"
       id="linearGradient827">
      <stop
         style="stop-color:#db1424;stop-opacity:1"
         offset="0"
         id="stop823" />
      <stop
         style="stop-color:#e7b2a0;stop-opacity:1"
         offset="1"
         id="stop825" />
    </linearGradient>
    <linearGradient
       inkscape:collect="always"
       id="linearGradient889">
      <stop
         style="stop-color:#8998ad;stop-opacity:1"
         offset="0"
         id="stop885" />
      <stop
         style="stop-color:#f3dcd4;stop-opacity:1"
         offset="1"
         id="stop887" />
    </linearGradient>
    <linearGradient
       inkscape:collect="always"
       xlink:href="#linearGradient990"
       id="linearGradient975"
       x1="-5.667089"
       y1="22.200636"
       x2="-5.5973864"
       y2="10.717914"
       gradientUnits="userSpaceOnUse"
       gradientTransform="matrix(1.8471337,0,0,1.8471337,-1.6973853,-28.433842)" />
    <linearGradient
       inkscape:collect="always"
       xlink:href="#linearGradient889"
       id="linearGradient891-3-3"
       x1="-34.169491"
       y1="21.288134"
       x2="-13.152548"
       y2="7.4576306"
       gradientUnits="userSpaceOnUse"
       gradientTransform="matrix(1.2272328,0,0,1.4998451,17.688366,-21.176367)" />
    <linearGradient
       gradientTransform="translate(3.6887887,-17.017371)"
       inkscape:collect="always"
       xlink:href="#linearGradient827"
       id="linearGradient1037"
       x1="-8.0969543"
       y1="11.094899"
       x2="-8.1753788"
       y2="4.9379373"
       gradientUnits="userSpaceOnUse" />
    <filter
       inkscape:collect="always"
       style="color-interpolation-filters:sRGB"
       id="filter909"
       x="-0.010807046"
       width="1.0216141"
       y="-0.013436661"
       height="1.0268733">
      <feGaussianBlur
         inkscape:collect="always"
         stdDeviation="0.11614813"
         id="feGaussianBlur911" />
    </filter>
    <filter
       inkscape:collect="always"
       style="color-interpolation-filters:sRGB"
       id="filter1193"
       x="-0.0132676"
       width="1.0265352"
       y="-0.010989106"
       height="1.0219782">
      <feGaussianBlur
         inkscape:collect="always"
         stdDeviation="0.044227622"
         id="feGaussianBlur1195" />
    </filter>
  </defs>
  <sodipodi:namedview
     pagecolor="#ffffff"
     bordercolor="#666666"
     borderopacity="1"
     objecttolerance="10"
     gridtolerance="10"
     guidetolerance="10"
     inkscape:pageopacity="0"
     inkscape:pageshadow="2"
     inkscape:window-width="1002"
     inkscape:window-height="789"
     id="namedview16"
     showgrid="false"
     inkscape:zoom="17.56"
     inkscape:cx="16"
     inkscape:cy="18.277905"
     inkscape:window-x="372"
     inkscape:window-y="112"
     inkscape:window-maximized="0"
     inkscape:current-layer="g872"
     showguides="true"
     inkscape:guide-bbox="true"
     inkscape:snap-global="true" />
  <g
     id="g872"
     transform="matrix(1.0000063,0,0,1.0352793,28.578472,14.980279)">
    <path
       inkscape:connector-curvature="0"
       d="m -8.5853303,-12.403521 c -2.3908547,0 -3.1668757,1.884805 -4.3949507,3.7670978 h -11.458257 c -1.739142,0 -3.139248,1.4001052 -3.139248,3.1392492 v 1.2557 10.6734457 1.883548 1.098738 0.156969 c 0.0076,0.174536 0.0452,0.344062 0.07911,0.5098153 0.149433,0.867687 0.644171,1.60855 1.373734,2.079436 0.347828,0.224771 0.749652,0.388013 1.177845,0.470888 0.213466,0.04394 0.400564,0.07911 0.627846,0.07911 h 23.62347871 c 0.227282,0 0.41438,-0.0339 0.62785,-0.07911 0.426937,-0.08288 0.828761,-0.246117 1.17659099,-0.470888 0.72956,-0.470886 1.22305,-1.211749 1.373733,-2.079436 0.0339,-0.1657443 0.07032,-0.3365283 0.07911,-0.5098153 V 9.4142577 8.3155197 -9.1073111 c 0,-1.8358329 -1.442798,-3.2962099 -3.25728399,-3.2962099 H -8.5828173 Z"
       style="opacity:1;fill:url(#linearGradient1037);fill-opacity:1;stroke:none;stroke-width:1.2556994"
       id="path25-2" />
    <rect
       style="opacity:0.647;vector-effect:none;fill:#000000;fill-opacity:1;fill-rule:nonzero;stroke:none;stroke-width:0.19693819;stroke-linecap:butt;stroke-linejoin:miter;stroke-miterlimit:4;stroke-dasharray:none;stroke-dashoffset:0;stroke-opacity:1;paint-order:markers stroke fill;filter:url(#filter909)"
       id="rect883-5-5-3"
       width="25.792688"
       height="20.74362"
       x="-24.245554"
       y="-9.9910784"
       transform="matrix(0.99999999,1.0125852e-4,-6.7794228e-5,1,0,0)"
       inkscape:transform-center-x="4.5837926"
       inkscape:transform-center-y="-6.389833"
       ry="1.6756594" />
    <rect
       style="opacity:1;vector-effect:none;fill:url(#linearGradient891-3-3);fill-opacity:1;fill-rule:nonzero;stroke:none;stroke-width:0.19693819;stroke-linecap:butt;stroke-linejoin:miter;stroke-miterlimit:4;stroke-dasharray:none;stroke-dashoffset:0;stroke-opacity:1;paint-order:markers stroke fill"
       id="rect883-5-5"
       width="25.792688"
       height="20.74362"
       x="-24.245554"
       y="-9.9910784"
       transform="matrix(0.99999999,1.0125852e-4,-6.7794228e-5,1,0,0)"
       inkscape:transform-center-x="4.5837926"
       inkscape:transform-center-y="-6.389833"
       ry="1.6756594" />
    <path
       inkscape:connector-curvature="0"
       d="m -16.431455,-12.403521 c 2.390854,0 3.166876,1.884805 4.394951,3.7670978 h 11.45825471 c 1.73914199,0 3.13924799,1.4001052 3.13924799,3.1392492 v 1.2557 10.6734437 1.883548 1.098738 0.156969 c -0.0076,0.174536 -0.0452,0.344062 -0.07911,0.5098153 -0.149433,0.867687 -0.644173,1.60855 -1.373736,2.079436 -0.34782799,0.224771 -0.74965099,0.388013 -1.17784499,0.470888 -0.213465,0.04394 -0.400563,0.07911 -0.627846,0.07911 H -24.321014 c -0.227282,0 -0.41438,-0.03389 -0.62785,-0.07911 -0.426937,-0.08288 -0.828761,-0.246117 -1.176591,-0.470888 -0.72956,-0.470886 -1.22305,-1.211749 -1.373733,-2.079436 -0.03389,-0.1657433 -0.07032,-0.3365283 -0.07911,-0.5098153 V 9.4142557 8.3155177 -9.1073111 c 0,-1.8358329 1.442798,-3.2962099 3.257284,-3.2962099 h 7.887047 z"
       style="opacity:1;fill:url(#linearGradient975);fill-opacity:1;stroke:none;stroke-width:1.2556994"
       id="path25" />
    <path
       style="opacity:0.647;fill:#000000;fill-opacity:1;stroke-width:0.98281068;filter:url(#filter1193)"
       d="m -10.600405,-4.3129703 c -0.495997,0.01739 -1.096993,0.280118 -1.452991,0.633646 -0.318998,0.313925 -0.599996,0.813307 -0.524997,1.294336 0.552997,0.0367 1.119993,-0.238583 1.464991,-0.59211 0.343998,-0.354494 0.576996,-0.845183 0.512997,-1.335872 z m -0.327998,1.937642 c -0.656996,0.05023 -1.257992,0.467506 -1.59799,0.467506 -0.386998,0 -0.983994,-0.453018 -1.61899,-0.441426 -0.833995,0.01352 -1.60399,0.501314 -2.032987,1.275984 -0.865995,1.558033 -0.222999,3.865623 0.620996,5.129051 0.412997,0.61819 0.967994,1.290472 1.55299,1.290472 0.584996,0 0.856995,-0.41921 1.60899,-0.41921 0.751995,0 0.953994,0.405688 1.62099,0.405688 0.666996,0 1.0929932,-0.629782 1.5019902,-1.250871 0.473997,-0.716714 0.670996,-1.413145 0.682996,-1.448884 -0.015,-0.0068 -1.305992,-0.517735 -1.318992,-2.057416 -0.013,-1.289507 1.015994,-1.909629 1.061994,-1.939573 -0.576997,-0.875126 -1.4759912,-0.995867 -1.7969892,-1.00939 -0.095,-0.01062 -0.190999,-0.0097 -0.284998,-0.0019 z"
       id="path14-3"
       inkscape:connector-curvature="0" />
    <path
       style="opacity:1;fill:#f3dcd4;fill-opacity:1;stroke-width:0.98281068"
       d="m -10.600405,-4.3129702 c -0.495997,0.01739 -1.096993,0.280118 -1.452991,0.633646 -0.318998,0.313925 -0.599996,0.813307 -0.524997,1.294336 0.552997,0.0367 1.119993,-0.238583 1.464991,-0.59211 0.343998,-0.354494 0.576996,-0.845183 0.512997,-1.335872 z m -0.327998,1.937642 c -0.656996,0.05023 -1.257992,0.467506 -1.59799,0.467506 -0.386998,0 -0.983994,-0.453018 -1.61899,-0.441426 -0.833995,0.01352 -1.60399,0.501314 -2.032987,1.275984 -0.865995,1.558033 -0.222999,3.8656232 0.620996,5.1290504 0.412997,0.6181906 0.967994,1.290473 1.55299,1.290473 0.584996,0 0.856995,-0.4192106 1.60899,-0.4192106 0.751995,0 0.953994,0.4056877 1.62099,0.4056877 0.666996,0 1.0929932,-0.6297818 1.5019902,-1.2508702 0.473997,-0.7167148 0.670996,-1.4131452 0.682996,-1.4488844 -0.015,-0.00676 -1.305992,-0.5177347 -1.318992,-2.0574159 -0.013,-1.289507 1.015994,-1.909629 1.061994,-1.939573 -0.576997,-0.875126 -1.4759912,-0.995867 -1.7969892,-1.00939 -0.095,-0.01062 -0.190999,-0.0097 -0.284998,-0.0019 z"
       id="path14"
       inkscape:connector-curvature="0" />
  </g>
</svg>
