<svg xmlns="http://www.w3.org/2000/svg" viewBox="0 0 256 256"><defs id="defs4"><style id="current-color-scheme" type="text/css">.ColorScheme-Text{color:#4d4d4d}.ColorScheme-Background{color:#eff0f1}</style></defs><path d="M16 10h224c3.324 0 6 2.676 6 6v224c0 3.324-2.676 6-6 6H16c-3.324 0-6-2.676-6-6V16c0-3.324 2.676-6 6-6z" id="rect4240" fill="currentColor" fill-opacity=".5" stroke="none" color="#31363b"/><path d="M16 12h224c2.216 0 4 1.784 4 4v224c0 2.216-1.784 4-4 4H16c-2.216 0-4-1.784-4-4V16c0-2.216 1.784-4 4-4z" class="ColorScheme-Background" id="rect4238" fill="currentColor" fill-opacity="1" stroke="none"/><path d="M17 28v200h222V28H17zm1 1h220v30H18V29zm0 31h31v27H18.105v1H49v27H18.105v1H49v27H18.105v1H49v27H18.105v1H49v27H18.105v1H49v27H18V60zm32 0h30v27H50V60zm31 0h31v27H81V60zm32 0h30v27h-30V60zm31 0h31v27h-31V60zm32 0h30v27h-30V60zm31 0h31v27h-31V60zM50 88h30v27H50V88zm31 0h31v27H81V88zm63 0h31v27h-31V88zm32 0h30v27h-30V88zm31 0h31v27h-31V88zM50 116h30v27H50v-27zm31 0h31v27H81v-27zm32 0h30v27h-30v-27zm31 0h31v27h-31v-27zm32 0h30v27h-30v-27zm31 0h31v27h-31v-27zM50 144h30v27H50v-27zm31 0h31v27H81v-27zm32 0h30v27h-30v-27zm31 0h31v27h-31v-27zm32 0h30v27h-30v-27zm31 0h31v27h-31v-27zM50 172h30v27H50v-27zm31 0h31v27H81v-27zm32 0h30v27h-30v-27zm31 0h31v27h-31v-27zm32 0h30v27h-30v-27zm31 0h31v27h-31v-27zM50 200h30v27H50v-27zm31 0h31v27H81v-27zm32 0h30v27h-30v-27zm31 0h31v27h-31v-27zm32 0h30v27h-30v-27zm31 0h31v27h-31v-27z" class="ColorScheme-Text" id="path8" fill="currentColor" fill-opacity="1" stroke="none"/><path class="ColorScheme-Background" d="M188.463 41.79c-.383 0-.739.044-1.068.134-.33.09-.628.227-.897.41-.269.179-.48.42-.635.725a2.296 2.296 0 0 0-.232 1.05c0 .574.148 1.026.445 1.356.297.325.748.602 1.35.83l1.453.555c.57.22.951.436 1.146.652.2.212.3.532.3.959 0 .37-.09.681-.268.934a1.48 1.48 0 0 1-.684.537c-.28.105-.606.158-.977.158-.455 0-.929-.082-1.421-.244a4.89 4.89 0 0 1-1.319-.664v.964c.253.224.632.412 1.14.567a5.413 5.413 0 0 0 1.583.232c.305 0 .593-.027.865-.08.277-.053.545-.14.8-.261.257-.127.476-.284.66-.471.182-.187.329-.426.439-.719.11-.293.166-.624.166-.99a2.63 2.63 0 0 0-.112-.793 2.179 2.179 0 0 0-.273-.586 1.778 1.778 0 0 0-.47-.445 3.899 3.899 0 0 0-.581-.348c-.183-.09-.42-.19-.713-.305l-1.404-.55c-.427-.167-.724-.35-.89-.55-.164-.203-.245-.492-.245-.867 0-.305.089-.56.268-.767.179-.208.405-.354.677-.44.273-.09.584-.134.934-.134.378 0 .756.052 1.135.158.382.106.706.25.97.433l.391-.757a4.4 4.4 0 0 0-1.195-.5 5.026 5.026 0 0 0-1.338-.184zm30.781 0c-.382 0-.739.044-1.068.134-.33.09-.628.227-.897.41-.268.179-.48.42-.634.725a2.296 2.296 0 0 0-.233 1.05c0 .574.148 1.026.445 1.356.297.325.748.602 1.35.83l1.451.555c.57.22.953.436 1.149.652.199.212.298.532.298.959 0 .37-.09.681-.27.934a1.48 1.48 0 0 1-.683.537c-.28.105-.606.158-.976.158-.456 0-.93-.082-1.422-.244a4.89 4.89 0 0 1-1.318-.664v.964c.252.224.633.412 1.142.567a5.4 5.4 0 0 0 1.58.232c.305 0 .595-.027.867-.08.277-.053.543-.14.8-.261.256-.127.476-.284.66-.471.182-.187.329-.426.439-.719.11-.293.164-.624.164-.99a2.63 2.63 0 0 0-.11-.793 2.176 2.176 0 0 0-.275-.586 1.767 1.767 0 0 0-.469-.445 3.9 3.9 0 0 0-.58-.348 9.655 9.655 0 0 0-.715-.305l-1.404-.55c-.427-.167-.724-.35-.89-.55-.163-.203-.245-.492-.245-.867 0-.305.09-.56.27-.767.179-.208.403-.354.676-.44a3 3 0 0 1 .935-.134c.379 0 .757.052 1.135.158.382.106.706.25.97.433l.391-.757a4.412 4.412 0 0 0-1.197-.5 5.012 5.012 0 0 0-1.336-.184zm-88.898.048l-1.012.074v8.91h1.006V47.29c0-.24.016-.464.049-.672.036-.207.1-.412.19-.615.089-.203.204-.377.347-.52.142-.146.329-.262.556-.347.232-.09.498-.135.8-.135.483 0 .827.154 1.03.459.208.301.311.77.311 1.408v3.955h1.014v-3.99c0-.83-.186-1.472-.56-1.924-.375-.451-.914-.678-1.618-.678-.46 0-.876.091-1.246.27-.366.175-.666.43-.902.764l.035-1.264v-2.162zm-104.528.074l-.175 8.91h1.011l.086-5.498V43.22l2.809 6.61h.92l2.826-6.538v2.008l.086 5.523h1.002l-.178-8.91h-1.281l-2.9 6.77-2.887-6.77h-1.319zm33.118 0v.818h2.648v8.092h1.074V42.73h2.668v-.818h-6.39zm28.584 0l2.677 8.91h1.02l2.265-7.44 2.21 7.44h1.042l2.68-8.91h-1.037l-2.174 7.543-2.215-7.353h-1.037l-2.222 7.36-2.192-7.55H87.52zm34.392 0v.818h2.649v8.092h1.074V42.73h2.666v-.818h-6.389zm33.172 0v8.91h1.092V46.74h3.613v-.781h-3.613v-3.223h3.883l.06-.824h-5.035zM38.887 44.23c-.948 0-1.693.31-2.235.928-.537.615-.804 1.428-.804 2.442 0 .988.27 1.795.816 2.418.545.618 1.287.927 2.223.927.915 0 1.651-.31 2.209-.933.557-.627.836-1.432.836-2.412 0-1.014-.268-1.827-.805-2.442-.537-.618-1.284-.928-2.24-.928zm63.965 0c-.855 0-1.56.308-2.114.922-.553.615-.83 1.44-.83 2.473 0 1.021.284 1.832.85 2.43.565.594 1.301.89 2.209.89.814 0 1.54-.19 2.18-.568l-.215-.713c-.342.171-.651.3-.928.385a3.117 3.117 0 0 1-.922.127c-.623 0-1.127-.197-1.514-.592-.386-.399-.596-1.008-.629-1.83h4.366l.037-.514c0-.944-.216-1.68-.643-2.209-.423-.533-1.038-.8-1.847-.8zm92.24 0c-.863 0-1.64.161-2.332.483l.275.746a4.359 4.359 0 0 1 1.014-.33c.378-.081.73-.123 1.06-.123.489 0 .845.116 1.069.348.228.231.342.584.342 1.056v.635h-1.032c-1.037 0-1.793.164-2.27.494-.471.326-.708.84-.708 1.54 0 .585.179 1.043.537 1.372.362.33.841.494 1.435.494.887 0 1.607-.34 2.16-1.02l.11.891h.77v-4.26c0-.821-.212-1.413-.635-1.775-.42-.366-1.018-.55-1.795-.55zm-30.742.069c-.391 0-.764.11-1.118.33-.35.216-.646.554-.89 1.017l-.112-1.28h-.81v6.456h1.014v-3.654c0-.574.179-1.06.537-1.459.362-.399.82-.6 1.373-.6.114 0 .251.017.414.05l.043-.83a2.754 2.754 0 0 0-.451-.03zm-98.041.066v3.944c0 .874.191 1.533.574 1.976.386.44.954.66 1.703.66.529 0 .945-.08 1.25-.238a2.05 2.05 0 0 0 .775-.732l.104.847h.879v-6.457h-1.012v3.625c0 .257-.02.492-.057.703-.036.212-.098.41-.187.598-.09.187-.207.345-.35.47a1.48 1.48 0 0 1-.537.3 2.31 2.31 0 0 1-.744.109c-.496 0-.853-.148-1.068-.445-.212-.297-.317-.733-.317-1.307v-4.053H66.31zm157.158 0v3.944c0 .874.192 1.533.574 1.976.387.44.954.66 1.703.66.53 0 .947-.08 1.252-.238.31-.163.566-.407.774-.732l.105.847h.879v-6.457h-1.014v3.625c0 .257-.018.492-.054.703-.037.212-.1.41-.19.598-.09.187-.205.345-.348.47a1.48 1.48 0 0 1-.537.3c-.215.073-.465.109-.746.109-.496 0-.85-.148-1.066-.445-.212-.297-.319-.733-.319-1.307v-4.053h-1.013zm-184.58.64c.663 0 1.164.24 1.502.716.337.472.506 1.103.506 1.892 0 .505-.07.946-.208 1.325a1.92 1.92 0 0 1-.671.902c-.306.224-.682.336-1.13.336-.65 0-1.148-.235-1.49-.707-.341-.472-.511-1.093-.511-1.862 0-.785.17-1.414.511-1.886.342-.476.84-.715 1.49-.715zm63.988 0c1.025 0 1.563.697 1.611 2.089h-3.515c.057-.643.256-1.151.597-1.526a1.705 1.705 0 0 1 1.307-.562zm92.87 2.712h.775v1.422c-.485.712-1.143 1.068-1.977 1.068a1.06 1.06 0 0 1-.764-.293c-.203-.195-.304-.472-.304-.83 0-.2.018-.368.054-.502a.943.943 0 0 1 .201-.377.947.947 0 0 1 .403-.275 2.8 2.8 0 0 1 .654-.159c.265-.036.583-.054.957-.054zM29.267 69.38a4.86 4.86 0 0 0-2.555.728l.363.817c.728-.415 1.447-.623 2.156-.623.521 0 .945.133 1.268.396.323.263.49.664.498 1.203v.047c0 1.151-.795 1.727-2.385 1.727h-.289v.896h.283c.328 0 .613.016.856.047.247.031.487.09.72.18.234.085.425.2.573.347.148.143.267.337.357.583.09.24.135.528.135.863 0 .606-.163 1.071-.486 1.392-.324.322-.773.48-1.348.48-.714 0-1.534-.232-2.459-.7v1.004c.831.432 1.663.648 2.494.648.858 0 1.563-.242 2.115-.728.557-.491.842-1.19.856-2.096v-.047c0-.665-.19-1.206-.566-1.625-.373-.42-.869-.693-1.489-.822 1.195-.308 1.791-1.051 1.791-2.229v-.04c-.004-.532-.142-.984-.416-1.358a2.345 2.345 0 0 0-1.045-.83 3.716 3.716 0 0 0-1.427-.26zm8.421.127c-.233.16-.585.323-1.052.488a9.26 9.26 0 0 1-1.2.342v.883c.301-.04.666-.128 1.092-.262.431-.134.79-.28 1.073-.436v7.95h-2.373v.802h5.607v-.802h-2.117v-8.965h-1.03zm153.588 111.867c-.898 0-1.748.244-2.552.73l.363.817c.728-.415 1.446-.623 2.156-.623.521 0 .942.131 1.266.394.323.264.49.666.5 1.205v.047c0 1.151-.797 1.727-2.387 1.727h-.289v.896h.283a6.8 6.8 0 0 1 .856.047 3.1 3.1 0 0 1 .72.18c.234.085.424.2.573.348.148.142.267.336.357.582.09.24.135.528.135.863 0 .606-.161 1.07-.485 1.39-.323.322-.772.483-1.347.483-.714 0-1.534-.235-2.46-.703v1.004c.832.432 1.662.65 2.493.65.858 0 1.563-.244 2.115-.73.557-.491.842-1.189.856-2.094v-.047c0-.665-.187-1.206-.565-1.625-.373-.42-.87-.695-1.49-.824 1.195-.308 1.793-1.05 1.793-2.227v-.04c-.004-.532-.144-.984-.418-1.358a2.346 2.346 0 0 0-1.045-.83 3.716 3.716 0 0 0-1.428-.262zm-62.742.13c-.233.161-.584.326-1.05.491-.463.16-.863.273-1.2.34v.883c.301-.04.665-.126 1.092-.26a5.79 5.79 0 0 0 1.07-.436v7.95h-2.37v.802h5.605v-.802h-2.116v-8.967h-1.03zm95.033 0l-4.4 6.345v.963h4.475v2.462h1.064v-2.463h1.125l.08-.855h-1.205v-6.451h-1.139zm-64.05.093a5.14 5.14 0 0 0-1.489.22c-.49.143-.884.323-1.185.541l.33.852c.31-.2.661-.365 1.056-.49.4-.125.79-.186 1.166-.186.171 0 .335.016.493.047.157.027.321.081.492.166.17.08.316.185.437.315.122.124.222.297.303.515.08.219.121.47.121.756 0 .263-.026.504-.08.723-.05.214-.144.434-.283.662-.14.227-.263.41-.371.549-.108.138-.284.349-.531.634l-3.174 3.721.176.877h5.261l.06-.803h-4.238l2.641-3.072c.319-.37.567-.674.742-.91.18-.237.342-.49.49-.762.153-.276.257-.549.311-.816.058-.268.088-.571.088-.91a2.92 2.92 0 0 0-.176-1.043 2.117 2.117 0 0 0-.457-.756 2.37 2.37 0 0 0-.66-.483 2.84 2.84 0 0 0-.756-.267 3.615 3.615 0 0 0-.767-.08zm64.125 1.287v5.072h-3.364l3.364-5.072zm-27.965 26.484c-.719 0-1.331.211-1.834.635-.503.42-.878 1.004-1.125 1.754-.243.745-.364 1.63-.364 2.656 0 .74.066 1.413.196 2.02a5.76 5.76 0 0 0 .594 1.591c.265.455.61.81 1.037 1.065.43.25.93.375 1.496.375.561 0 1.052-.125 1.474-.375.427-.254.766-.611 1.018-1.07.256-.46.446-.99.572-1.592.126-.602.19-1.274.19-2.014 0-.772-.069-1.463-.203-2.074-.135-.616-.335-1.145-.6-1.586-.26-.446-.6-.787-1.018-1.024-.413-.24-.89-.36-1.433-.36zm-67.137.004c-.88 0-1.596.22-2.148.656-.553.437-.829 1.027-.829 1.772 0 .57.17 1.064.512 1.478.346.415.792.713 1.34.89-.66.228-1.17.568-1.53 1.018-.354.446-.53.997-.53 1.653 0 .544.145 1.013.437 1.41.296.397.68.69 1.152.877a4.275 4.275 0 0 0 1.59.281c.912 0 1.668-.225 2.27-.676.602-.45.904-1.08.904-1.892 0-.62-.184-1.174-.553-1.66-.368-.487-.862-.827-1.482-1.024.561-.2 1.005-.5 1.328-.896.328-.402.49-.888.49-1.46 0-.749-.274-1.338-.822-1.77-.544-.438-1.253-.657-2.129-.657zm58.99.129c-.233.16-.583.323-1.05.488a9.25 9.25 0 0 1-1.2.342v.883c.301-.04.665-.126 1.092-.26.431-.134.787-.28 1.07-.435v7.947h-2.37v.804h5.605v-.804h-2.115v-8.965h-1.032zm-156.283.004l-.19 5.172.903.107c.207-.218.469-.392.783-.521a2.52 2.52 0 0 1 .969-.194c.454 0 .833.1 1.139.301.305.196.524.45.654.762.13.307.195.66.195 1.056 0 .723-.203 1.287-.607 1.688-.4.397-.936.594-1.61.594-.754 0-1.564-.243-2.431-.729l-.385.863c.975.54 1.938.81 2.89.81.463 0 .892-.07 1.288-.208.395-.138.74-.338 1.037-.602.3-.267.535-.608.701-1.023.17-.42.256-.89.256-1.412 0-.549-.113-1.043-.338-1.484a2.567 2.567 0 0 0-1.01-1.079c-.453-.276-.988-.414-1.603-.414-.674 0-1.274.175-1.8.528l.108-3.332h4.137l.088-.883h-5.174zm187.145 0c-.234.16-.584.323-1.051.488a9.25 9.25 0 0 1-1.2.342v.883c.302-.04.666-.126 1.092-.26.432-.134.79-.28 1.073-.436v7.948h-2.373v.804h5.605v-.804h-2.115v-8.965h-1.031zm8.113 0c-.234.16-.584.323-1.05.488a9.25 9.25 0 0 1-1.2.342v.883a6.7 6.7 0 0 0 1.09-.26c.43-.134.789-.28 1.072-.436v7.948h-2.371v.804h5.605v-.804h-2.117v-8.965h-1.03zm-66.82.092c-.63 0-1.185.137-1.67.414a2.818 2.818 0 0 0-1.112 1.097 3.09 3.09 0 0 0-.384 1.532c0 .423.08.82.242 1.191.161.366.377.674.646.924.27.245.583.44.938.582.359.143.734.213 1.125.213.462 0 .902-.111 1.32-.334-.346.441-.575.735-.687.883l-2.553 3.4h1.32l2.404-3.266c.279-.379.491-.676.635-.89.148-.219.305-.483.47-.795.167-.317.283-.625.35-.924.072-.299.11-.62.11-.963 0-.401-.07-.786-.21-1.152a3.04 3.04 0 0 0-.599-.977 2.783 2.783 0 0 0-.998-.681 3.454 3.454 0 0 0-1.347-.254zm-94.633.132l-2.217 3.239c-.265.379-.47.686-.613.918a9.87 9.87 0 0 0-.446.808c-.152.308-.259.613-.322.916a4.688 4.688 0 0 0-.096.965c0 .402.07.785.21 1.15.139.366.338.692.599.977.26.281.594.506.998.676.404.17.854.254 1.348.254.943 0 1.703-.29 2.283-.87.584-.584.877-1.306.877-2.167 0-.843-.293-1.54-.877-2.088a2.91 2.91 0 0 0-2.074-.822c-.499 0-.964.125-1.395.375.274-.366.51-.695.707-.985l2.291-3.346h-1.273zm28.894 0l.127.897h4.414l-3.396 8.873h1.119l3.45-8.979v-.79h-5.714zm34.588.465c.57 0 1.026.146 1.367.436.342.285.512.667.512 1.144 0 .527-.156.963-.47 1.31-.315.349-.784.59-1.409.724-.62-.139-1.09-.38-1.414-.723-.319-.348-.478-.784-.478-1.31 0-.473.171-.855.517-1.145.35-.29.81-.436 1.375-.436zm67.143.076c1.428 0 2.142 1.368 2.142 4.102 0 1.378-.187 2.422-.56 3.13-.369.706-.895 1.058-1.582 1.058-.696 0-1.24-.354-1.631-1.063-.386-.714-.58-1.752-.58-3.117-.005-1.307.19-2.318.586-3.031.395-.718.938-1.079 1.625-1.079zm-35.96.204c.652 0 1.159.201 1.518.607.36.406.54.908.54 1.506 0 .303-.049.58-.143.83-.09.245-.206.445-.35.602a2.128 2.128 0 0 1-1.064.609 2.6 2.6 0 0 1-.553.06c-.642 0-1.146-.189-1.51-.568-.364-.384-.545-.881-.545-1.492 0-.602.186-1.11.559-1.525.377-.42.893-.63 1.549-.63zm-95.19 4.074c.642 0 1.143.19 1.507.574.368.38.553.872.553 1.479 0 .602-.186 1.113-.559 1.533-.373.415-.887.62-1.543.62-.651 0-1.156-.2-1.515-.607-.36-.405-.54-.908-.54-1.505 0-.304.046-.577.135-.823.09-.245.206-.444.35-.595.144-.156.308-.286.492-.39.189-.106.375-.18.559-.22a2.43 2.43 0 0 1 .56-.066zm64.007.043c.633.134 1.143.387 1.53.762.39.374.585.834.585 1.378 0 1.214-.704 1.82-2.115 1.82-.692 0-1.221-.16-1.59-.476-.364-.316-.547-.762-.547-1.338 0-.562.198-1.025.588-1.39.391-.366.907-.618 1.55-.756z" id="path4552" fill="currentColor" fill-opacity=".5" stroke="none"/><path style="line-height:125%;-inkscape-font-specification:Oxygen-Sans;text-align:center" d="M128.225 69.38c-.899 0-1.75.243-2.553.73l.363.816c.728-.415 1.447-.623 2.156-.623.521 0 .945.133 1.268.396.323.263.49.664.498 1.203v.047c0 1.151-.795 1.727-2.385 1.727h-.29v.896h.282c.328 0 .613.016.856.047a3.1 3.1 0 0 1 .72.18c.234.085.427.2.575.347.148.143.265.337.355.583.09.24.135.528.135.863 0 .606-.16 1.071-.484 1.392-.324.322-.773.48-1.348.48-.714 0-1.534-.232-2.459-.7v1.004c.831.432 1.661.648 2.492.648.858 0 1.565-.242 2.117-.728.557-.491.842-1.19.856-2.096v-.047c0-.665-.19-1.206-.566-1.625-.373-.42-.869-.693-1.489-.822 1.195-.308 1.791-1.051 1.791-2.229v-.04c-.004-.532-.144-.984-.418-1.358a2.34 2.34 0 0 0-1.043-.83c-.422-.174-.9-.26-1.43-.26zm60.978.124l-.19 5.172.903.105c.207-.218.467-.392.781-.521a2.53 2.53 0 0 1 .971-.194c.454 0 .833.1 1.139.301.305.196.524.452.654.764.13.308.195.66.195 1.056 0 .723-.203 1.285-.607 1.686-.4.397-.936.596-1.61.596-.754 0-1.564-.243-2.431-.729l-.385.862c.975.54 1.938.81 2.89.81.463 0 .893-.069 1.288-.207.395-.138.74-.34 1.037-.603.3-.268.535-.61.701-1.024.17-.42.256-.888.256-1.41 0-.549-.113-1.045-.338-1.486a2.562 2.562 0 0 0-1.01-1.077c-.453-.276-.988-.416-1.603-.416-.674 0-1.274.177-1.8.53l.108-3.332h4.137l.088-.883h-5.174zm33.94.004l-2.217 3.238c-.265.38-.47.684-.613.916-.144.232-.291.503-.444.81a3.795 3.795 0 0 0-.324.917c-.063.299-.094.62-.094.963 0 .401.07.784.21 1.15.138.366.338.691.599.977.26.28.592.506.996.675.404.17.853.254 1.348.254.943 0 1.705-.29 2.285-.869.584-.584.875-1.307.875-2.168 0-.843-.291-1.537-.875-2.086a2.917 2.917 0 0 0-2.077-.824c-.498 0-.963.125-1.394.375.274-.366.51-.693.707-.982l2.291-3.346h-1.273zm-126.467.09c-.503 0-1 .073-1.49.22-.49.143-.885.325-1.186.543l.33.85c.31-.2.663-.363 1.059-.488.4-.125.788-.188 1.166-.188.17 0 .335.016.492.047.157.027.32.083.49.168.17.08.318.185.44.314.12.125.221.296.302.514.081.219.121.47.121.756 0 .263-.026.504-.08.723-.05.214-.144.434-.283.662-.14.227-.263.41-.371.549-.108.138-.286.35-.533.636l-3.172 3.719.174.877h5.261l.063-.803h-4.238l2.64-3.07c.32-.37.565-.674.74-.91a6.02 6.02 0 0 0 .493-.764c.152-.276.256-.549.31-.816a4.27 4.27 0 0 0 .088-.908c0-.389-.059-.738-.176-1.045a2.12 2.12 0 0 0-.459-.756 2.37 2.37 0 0 0-.66-.483 2.83 2.83 0 0 0-.754-.267 3.612 3.612 0 0 0-.767-.08zm-32.319.134c-.233.161-.583.324-1.05.489a9.26 9.26 0 0 1-1.2.341v.883c.301-.04.666-.128 1.092-.261.431-.134.79-.278 1.072-.434v7.947h-2.373v.803h5.606v-.803h-2.115v-8.965h-1.032zm96.327 0l-4.4 6.342v.963h4.474V79.5h1.064v-2.463h1.125l.08-.855h-1.205v-6.45h-1.138zm.074 1.377v5.073h-3.363l3.363-5.073zm61.86 3.215c.642 0 1.145.193 1.509.576.368.38.553.872.553 1.479 0 .602-.186 1.112-.559 1.531-.373.415-.887.623-1.543.623-.651 0-1.158-.203-1.517-.61-.36-.405-.54-.907-.54-1.505 0-.303.045-.577.135-.822.09-.246.208-.444.352-.596.144-.156.308-.286.492-.389.189-.107.374-.18.559-.22a2.42 2.42 0 0 1 .558-.067zM195.595 97.37a5.14 5.14 0 0 0-1.489.22c-.49.144-.884.325-1.185.544l.33.85c.31-.201.661-.364 1.057-.489.4-.125.788-.187 1.166-.187.17 0 .335.015.492.047.157.026.321.08.492.166.17.08.316.185.437.314.122.125.222.297.303.516.081.218.121.47.121.755 0 .264-.026.505-.08.723-.05.214-.144.435-.283.662-.14.228-.263.41-.371.55-.108.137-.284.35-.531.636l-3.174 3.719.176.876h5.261l.06-.802h-4.237l2.64-3.073c.32-.37.567-.671.742-.908a6.02 6.02 0 0 0 .493-.763c.152-.277.254-.55.308-.817.059-.267.088-.571.088-.91a2.92 2.92 0 0 0-.176-1.043 2.118 2.118 0 0 0-.457-.756 2.37 2.37 0 0 0-.66-.482 2.83 2.83 0 0 0-.754-.268 3.63 3.63 0 0 0-.77-.08zm30.6.012c-.899 0-1.75.242-2.553.728l.363.817c.728-.415 1.446-.623 2.156-.623.521 0 .942.131 1.266.394.323.263.49.666.5 1.205v.047c0 1.151-.797 1.727-2.387 1.727h-.29v.896h.284a6.8 6.8 0 0 1 .856.047c.247.031.487.09.72.18.234.085.424.2.573.347.148.143.267.337.357.583.09.24.135.528.135.863 0 .606-.161 1.071-.485 1.392-.323.322-.772.48-1.347.48-.714 0-1.534-.232-2.46-.7v1.002c.832.432 1.662.65 2.493.65.858 0 1.563-.244 2.115-.73.557-.491.842-1.189.856-2.094v-.047c0-.665-.187-1.206-.565-1.625-.373-.42-.87-.693-1.49-.822 1.195-.308 1.793-1.051 1.793-2.229v-.04c-.005-.532-.144-.984-.418-1.358a2.346 2.346 0 0 0-1.045-.83 3.716 3.716 0 0 0-1.428-.26zm-38.665.123c-.233.16-.583.323-1.05.488-.463.16-.863.273-1.2.34v.885c.301-.04.665-.128 1.092-.262a5.79 5.79 0 0 0 1.07-.435v7.949h-2.37v.802h5.605v-.802h-2.115v-8.965h-1.032zm-156.674.004l.127.896h4.414l-3.396 8.871h1.12l3.448-8.978v-.79h-5.713zm187.536 0c-.234.16-.584.323-1.051.488-.463.16-.863.273-1.2.34v.885c.302-.04.666-.128 1.092-.262.432-.134.79-.28 1.073-.436v7.95h-2.373v.802h5.605v-.802h-2.115v-8.965h-1.031zm-154.028.09c-.88 0-1.596.219-2.148.656-.553.437-.83 1.028-.83 1.773 0 .571.17 1.064.511 1.479.346.415.794.71 1.342.889-.66.227-1.17.567-1.53 1.017-.354.446-.532.997-.532 1.652 0 .545.145 1.016.437 1.413.297.397.681.69 1.153.877.471.187 1.001.279 1.59.279.911 0 1.669-.225 2.27-.676.603-.45.903-1.08.903-1.893 0-.62-.184-1.174-.552-1.66-.369-.486-.863-.827-1.483-1.023.562-.2 1.005-.5 1.328-.897.328-.401.492-.886.492-1.457 0-.749-.274-1.34-.822-1.773-.543-.437-1.253-.656-2.129-.656zm32.479 0c-.63 0-1.185.14-1.67.416a2.82 2.82 0 0 0-1.113 1.095c-.256.46-.383.972-.383 1.534 0 .423.08.82.242 1.191.162.366.377.672.646.922a3.095 3.095 0 0 0 2.063.797c.463 0 .902-.111 1.32-.334-.346.441-.575.735-.687.883l-2.553 3.398h1.32l2.405-3.266c.278-.379.489-.674.632-.888a8.81 8.81 0 0 0 .473-.797c.166-.317.282-.625.35-.924.072-.299.107-.62.107-.963 0-.401-.068-.785-.207-1.15a3.039 3.039 0 0 0-.6-.977 2.788 2.788 0 0 0-.998-.683 3.453 3.453 0 0 0-1.347-.254zm58.666.134c-.234.161-.586.324-1.053.489-.463.16-.862.273-1.2.34v.884c.302-.04.666-.128 1.093-.261.43-.134.789-.28 1.072-.436v7.95h-2.373v.802h5.605v-.803h-2.115v-8.965h-1.03zm8.111 0c-.233.161-.584.324-1.05.489-.463.16-.863.273-1.2.34v.884c.301-.04.663-.128 1.09-.261.431-.134.79-.28 1.072-.436v7.95h-2.37v.802h5.605v-.803h-2.116v-8.965h-1.03zm-99.264.69c.57 0 1.028.144 1.37.433.34.286.511.668.511 1.145 0 .526-.158.963-.472 1.31-.315.348-.784.59-1.409.723-.62-.138-1.09-.379-1.414-.722-.319-.348-.478-.785-.478-1.311 0-.473.174-.855.52-1.145.35-.29.806-.433 1.372-.433zm32.52.053c.651 0 1.156.203 1.516.609.359.406.539.906.539 1.504 0 .303-.047.58-.141.83-.09.245-.206.445-.35.602a2.14 2.14 0 0 1-1.064.609 2.59 2.59 0 0 1-.553.06c-.642 0-1.146-.189-1.51-.568-.363-.383-.544-.881-.544-1.492 0-.602.185-1.11.558-1.525.377-.42.893-.63 1.549-.63zm-32.52 4.341c.634.134 1.145.39 1.532.764.39.375.586.833.586 1.377 0 1.213-.707 1.82-2.118 1.82-.691 0-1.221-.158-1.59-.474-.363-.317-.544-.763-.544-1.338 0-.562.195-1.027.586-1.393.39-.365.906-.617 1.548-.756zm131.407 22.553c-.63 0-1.185.14-1.67.416a2.814 2.814 0 0 0-1.112 1.096c-.256.46-.384.971-.384 1.533 0 .424.08.82.242 1.19.162.365.379.674.648.923a3.086 3.086 0 0 0 2.06.797c.463 0 .903-.11 1.321-.334-.346.442-.575.736-.687.883l-2.553 3.398h1.32l2.406-3.265c.279-.38.49-.675.633-.889a8.83 8.83 0 0 0 .471-.797c.166-.316.284-.625.352-.924.071-.298.107-.619.107-.962 0-.402-.07-.785-.209-1.15a3.039 3.039 0 0 0-.6-.977 2.788 2.788 0 0 0-.998-.684 3.453 3.453 0 0 0-1.347-.254zm22.582.004a5.14 5.14 0 0 0-1.489.22c-.49.143-.884.325-1.185.544l.33.85c.31-.201.661-.364 1.057-.489.4-.125.788-.187 1.166-.187.17 0 .335.015.492.046.157.027.321.082.492.166.17.08.316.186.437.315.122.125.222.297.303.516.081.218.121.47.121.755 0 .264-.026.504-.08.723-.05.214-.144.435-.283.662-.14.228-.263.41-.371.549-.108.138-.284.351-.531.637l-3.174 3.718.176.877h5.261l.06-.802h-4.237l2.64-3.07c.32-.37.567-.674.742-.91.18-.237.344-.492.493-.764.152-.277.254-.55.308-.817.059-.268.088-.571.088-.91a2.92 2.92 0 0 0-.176-1.043 2.118 2.118 0 0 0-.457-.756 2.37 2.37 0 0 0-.66-.482 2.828 2.828 0 0 0-.754-.268 3.63 3.63 0 0 0-.77-.08zm8.193 0c-.719 0-1.329.213-1.832.637-.503.419-.878 1.002-1.125 1.752-.243.745-.365 1.63-.365 2.656 0 .74.065 1.413.195 2.02.135.602.333 1.134.594 1.593.265.455.61.809 1.037 1.063.431.25.93.375 1.496.375.562 0 1.052-.125 1.475-.375a2.76 2.76 0 0 0 1.017-1.07c.256-.46.447-.99.573-1.592.125-.602.189-1.274.189-2.014 0-.772-.066-1.463-.201-2.074-.135-.616-.335-1.145-.6-1.586-.26-.446-.6-.787-1.017-1.024-.414-.24-.892-.36-1.436-.36zm-39.008.13c-.233.161-.583.324-1.05.49-.463.16-.863.272-1.2.339v.885c.301-.04.665-.128 1.092-.262a5.79 5.79 0 0 0 1.07-.435v7.949h-2.37v.802h5.605v-.802h-2.115v-8.965h-1.032zm-157.955.005c-.233.16-.583.323-1.05.488-.463.16-.863.273-1.2.34v.885c.301-.04.665-.128 1.092-.262a5.79 5.79 0 0 0 1.07-.436v7.95h-2.37v.802h5.605v-.802h-2.116v-8.965h-1.03zm9.23 0l-4.398 6.342v.963h4.473v2.462h1.064v-2.463h1.125l.082-.855h-1.207v-6.45h-1.138zm85.673 0c-.234.16-.584.323-1.051.488-.463.16-.863.273-1.2.34v.885c.301-.04.666-.128 1.092-.262a5.79 5.79 0 0 0 1.07-.436v7.95h-2.37v.802h5.605v-.802h-2.115v-8.965h-1.031zm5.335 0l.13.896h4.411l-3.394 8.871h1.117l3.451-8.978v-.79h-5.715zm33.813.09c-.88 0-1.596.219-2.148.656-.553.437-.829 1.028-.829 1.773 0 .571.17 1.064.512 1.479.346.415.792.71 1.34.889-.66.227-1.17.567-1.53 1.017-.354.446-.53.997-.53 1.652 0 .545.145 1.016.437 1.413.296.397.68.69 1.152.877.472.187 1.002.279 1.59.279.912 0 1.668-.225 2.27-.676.602-.45.904-1.08.904-1.893 0-.62-.184-1.172-.553-1.658a2.91 2.91 0 0 0-1.482-1.025c.561-.2 1.003-.5 1.326-.897.328-.401.492-.886.492-1.457 0-.749-.274-1.34-.822-1.773-.544-.437-1.253-.656-2.13-.656zm-103.324.134c-.234.161-.584.324-1.051.489a9.26 9.26 0 0 1-1.2.341v.883c.302-.04.664-.128 1.09-.261.432-.134.79-.28 1.073-.436v7.95h-2.371v.802h5.605v-.803h-2.115v-8.965h-1.031zm5.726 0l-.19 5.172.905.106c.207-.219.467-.392.781-.522a2.53 2.53 0 0 1 .971-.193c.454 0 .833.1 1.139.3.305.197.522.452.652.764.13.308.195.66.195 1.057 0 .723-.2 1.284-.605 1.686-.4.397-.938.595-1.611.595-.755 0-1.565-.244-2.432-.73l-.385.863c.975.54 1.939.81 2.89.81.463 0 .893-.068 1.288-.206.395-.139.74-.34 1.037-.604.301-.268.535-.609.701-1.023.17-.42.256-.89.256-1.412 0-.55-.111-1.043-.336-1.485a2.567 2.567 0 0 0-1.012-1.076c-.453-.277-.988-.416-1.603-.416-.674 0-1.273.177-1.799.53l.108-3.333h4.136l.088-.883H66.03zm26.637 0c-.234.161-.584.324-1.05.489a9.26 9.26 0 0 1-1.2.341v.883c.301-.04.665-.128 1.092-.261a5.79 5.79 0 0 0 1.07-.436v7.95h-2.371v.802h5.606v-.803h-2.116v-8.965h-1.031zm8.807 0l-2.217 3.239c-.265.379-.47.684-.613.916-.144.232-.293.5-.446.808-.152.308-.26.615-.322.918-.063.3-.094.62-.094.963 0 .402.07.785.21 1.15.138.366.338.692.599.977.26.281.592.506.996.676.404.17.854.254 1.348.254.943 0 1.703-.29 2.283-.87.584-.584.877-1.306.877-2.167 0-.843-.293-1.538-.877-2.086a2.913 2.913 0 0 0-2.074-.824c-.499 0-.964.125-1.395.375.274-.366.51-.695.707-.985l2.291-3.344h-1.273zm54.037 0c-.234.161-.586.324-1.053.489a9.26 9.26 0 0 1-1.2.341v.883c.302-.04.666-.128 1.093-.261.43-.134.789-.28 1.072-.436v7.95h-2.373v.802h5.605v-.803h-2.115v-8.965h-1.03zm40.289.514c.651 0 1.156.204 1.515.61.36.405.54.906.54 1.503 0 .304-.049.58-.143.83-.09.246-.206.446-.35.602a2.13 2.13 0 0 1-1.064.61c-.184.04-.369.06-.553.06-.642 0-1.146-.19-1.51-.568-.363-.384-.545-.882-.545-1.493 0-.602.186-1.11.56-1.525.376-.42.894-.629 1.55-.629zm30.74.031c1.428 0 2.143 1.366 2.143 4.1 0 1.378-.186 2.424-.559 3.133-.368.704-.897 1.056-1.584 1.056-.696 0-1.24-.355-1.63-1.064-.387-.714-.58-1.752-.58-3.117-.005-1.307.192-2.318.587-3.031.395-.719.936-1.077 1.623-1.077zm-62.918.145c.57 0 1.026.144 1.367.433.342.286.512.668.512 1.145 0 .526-.156.963-.47 1.31-.315.348-.785.59-1.409.723-.62-.138-1.093-.379-1.416-.722-.319-.348-.478-.785-.478-1.311 0-.473.173-.855.52-1.145.35-.29.808-.433 1.374-.433zm-124.74.463v5.072H35.52l3.36-5.072zm62.066 3.664c.643 0 1.146.192 1.51.576.368.38.55.872.55 1.479 0 .602-.185 1.111-.558 1.53-.373.416-.887.624-1.543.624-.651 0-1.156-.204-1.515-.61-.36-.405-.54-.908-.54-1.505 0-.304.045-.577.135-.823.09-.245.206-.444.35-.595.144-.156.308-.286.492-.39.189-.106.377-.18.56-.22.19-.044.375-.066.56-.066zm62.674.267c.633.134 1.143.39 1.53.764.39.375.585.833.585 1.377 0 1.213-.705 1.82-2.115 1.82-.692 0-1.221-.158-1.59-.474-.364-.317-.547-.763-.547-1.338 0-.562.196-1.027.586-1.393.391-.365.909-.617 1.551-.756zm23.863 22.553c-.503 0-.998.074-1.488.22-.49.144-.886.325-1.187.544l.33.85c.31-.201.663-.364 1.058-.489.4-.125.789-.187 1.166-.187.171 0 .335.015.492.047.158.026.32.08.49.166.171.08.319.185.44.314.121.125.222.297.303.516.08.218.121.47.121.755 0 .264-.026.505-.08.723-.05.214-.144.435-.283.662-.14.228-.264.41-.371.55-.108.137-.287.348-.534.634l-3.171 3.72.173.877h5.264l.06-.802h-4.238l2.64-3.073c.32-.37.568-.671.743-.908.18-.236.342-.491.49-.763.153-.277.257-.55.31-.817.06-.267.089-.571.089-.91a2.92 2.92 0 0 0-.176-1.043 2.117 2.117 0 0 0-.457-.756 2.37 2.37 0 0 0-.66-.482 2.84 2.84 0 0 0-.756-.268 3.612 3.612 0 0 0-.768-.08zm-157.955.004c-.503 0-.998.074-1.488.22-.49.143-.885.325-1.186.544l.33.85c.31-.201.662-.364 1.057-.489.4-.125.789-.187 1.166-.187.17 0 .335.015.492.046.158.027.322.082.493.166.17.08.316.186.437.315.121.125.222.297.303.516.08.218.12.47.12.755 0 .264-.025.504-.08.723-.049.214-.143.435-.282.662-.14.228-.264.41-.371.549-.108.138-.285.35-.532.635l-3.174 3.72.176.877h5.262l.06-.802h-4.238l2.64-3.073c.32-.37.568-.671.743-.908a6.02 6.02 0 0 0 .492-.763c.153-.277.255-.55.309-.817.058-.268.088-.571.088-.91a2.92 2.92 0 0 0-.176-1.043 2.117 2.117 0 0 0-.457-.756 2.37 2.37 0 0 0-.66-.482 2.845 2.845 0 0 0-.756-.268 3.613 3.613 0 0 0-.768-.08zm94.903 0c-.503 0-.999.074-1.489.22-.49.143-.884.325-1.185.544l.33.85c.31-.201.661-.364 1.057-.489.4-.125.788-.187 1.166-.187.17 0 .335.015.492.046.157.027.321.082.492.166.17.08.316.186.437.315.122.125.222.297.303.516.081.218.121.47.121.755 0 .264-.026.504-.08.723-.05.214-.144.435-.283.662a6.06 6.06 0 0 1-.371.549c-.108.138-.284.35-.531.635l-3.174 3.72.176.877h5.261l.06-.802h-4.237l2.64-3.073c.32-.37.567-.671.742-.908.18-.236.344-.491.493-.763.152-.277.254-.55.308-.817.059-.268.088-.571.088-.91a2.92 2.92 0 0 0-.176-1.043 2.117 2.117 0 0 0-.457-.756 2.37 2.37 0 0 0-.66-.482 2.845 2.845 0 0 0-.756-.268 3.613 3.613 0 0 0-.767-.08zm93.914 0c-.503 0-.999.074-1.489.22-.49.143-.884.325-1.185.544l.33.85c.31-.201.661-.364 1.057-.489.4-.125.788-.187 1.166-.187.17 0 .335.015.492.046.157.027.321.082.492.166.17.08.316.186.437.315.122.125.222.297.303.516.081.218.121.47.121.755 0 .264-.026.504-.08.723-.05.214-.144.435-.283.662-.14.228-.263.41-.371.549-.108.138-.284.35-.531.635l-3.174 3.72.176.877h5.261l.06-.802h-4.237l2.64-3.073c.32-.37.567-.671.742-.908.18-.236.344-.491.493-.763.152-.277.254-.55.308-.817.059-.268.088-.571.088-.91a2.92 2.92 0 0 0-.176-1.043 2.117 2.117 0 0 0-.457-.756 2.37 2.37 0 0 0-.66-.482 2.832 2.832 0 0 0-.754-.268 3.63 3.63 0 0 0-.77-.08zm-22.008.13l-2.217 3.237c-.265.38-.47.686-.613.918-.144.232-.293.501-.446.809a3.8 3.8 0 0 0-.322.918 4.67 4.67 0 0 0-.095.963c0 .401.07.784.209 1.15.139.366.339.691.6.977.26.28.593.506.997.675.404.17.854.254 1.348.254.943 0 1.704-.289 2.283-.869.584-.584.877-1.307.877-2.168 0-.843-.293-1.54-.877-2.088a2.91 2.91 0 0 0-2.074-.822c-.499 0-.964.125-1.395.375.274-.366.51-.694.707-.984l2.291-3.344h-1.273zm-158.649.005c-.233.16-.585.323-1.052.488-.463.16-.863.273-1.2.34v.885c.301-.04.666-.128 1.092-.262.431-.134.79-.28 1.073-.436v7.95h-2.373v.802h5.607v-.802h-2.117v-8.965h-1.03zm96.02 0l-4.398 6.342v.963h4.472v2.462h1.065v-2.463h1.125l.082-.855h-1.207v-6.45h-1.139zm90.02 0l.128.896h4.413l-3.395 8.871h1.12l3.448-8.978v-.79h-5.714zm-163.473.09c-.503 0-1 .073-1.49.22-.49.143-.885.325-1.186.543l.33.85c.31-.2.663-.363 1.059-.488.4-.125.788-.188 1.166-.188.17 0 .333.016.49.047.157.027.322.081.492.166.17.08.316.185.438.315.121.124.224.297.304.515.081.219.121.47.121.756 0 .263-.028.504-.082.723-.049.214-.144.434-.283.662-.139.227-.261.41-.369.549-.108.138-.286.35-.533.636l-3.174 3.72.176.876h5.262l.06-.803h-4.236l2.64-3.072c.32-.37.565-.672.74-.908.18-.237.345-.492.493-.764.153-.276.256-.549.31-.816.059-.268.088-.571.088-.91a2.92 2.92 0 0 0-.176-1.043 2.12 2.12 0 0 0-.459-.756 2.37 2.37 0 0 0-.66-.483 2.828 2.828 0 0 0-.754-.267 3.613 3.613 0 0 0-.767-.08zm8.111 0a5.14 5.14 0 0 0-1.488.22c-.49.143-.887.325-1.188.543l.332.85c.31-.2.662-.363 1.057-.488.4-.125.789-.188 1.166-.188.17 0 .335.016.492.047.157.027.322.081.492.166.171.08.317.185.438.315.121.124.222.297.303.515.08.219.12.47.12.756 0 .263-.025.504-.08.723-.049.214-.143.434-.282.662-.14.227-.264.41-.372.549a17.57 17.57 0 0 1-.53.636l-3.175 3.72.174.876h5.264l.06-.803h-4.238l2.64-3.072c.32-.37.568-.672.743-.908a6.01 6.01 0 0 0 .49-.764c.153-.276.257-.549.31-.816.06-.268.089-.571.089-.91a2.92 2.92 0 0 0-.176-1.043 2.117 2.117 0 0 0-.457-.756 2.37 2.37 0 0 0-.66-.483 2.84 2.84 0 0 0-.756-.267 3.613 3.613 0 0 0-.768-.08zm24.252 0a5.14 5.14 0 0 0-1.488.22c-.49.143-.885.325-1.186.543l.33.85c.31-.2.662-.363 1.057-.488.4-.125.789-.188 1.166-.188.17 0 .335.016.492.047.157.027.322.081.492.166.171.08.317.185.438.315.121.124.222.297.303.515.08.219.12.47.12.756 0 .263-.025.504-.08.723-.049.214-.143.434-.283.662-.139.227-.263.41-.37.549a17.57 17.57 0 0 1-.532.636l-3.174 3.72.176.876h5.262l.06-.803h-4.238l2.64-3.072c.32-.37.568-.672.743-.908.18-.237.344-.492.492-.764.153-.276.255-.549.309-.816.058-.268.088-.571.088-.91a2.92 2.92 0 0 0-.176-1.043 2.117 2.117 0 0 0-.457-.756 2.37 2.37 0 0 0-.66-.483 2.84 2.84 0 0 0-.756-.267 3.613 3.613 0 0 0-.768-.08zm62.842 0a5.14 5.14 0 0 0-1.488.22c-.49.143-.885.325-1.186.543l.33.85c.31-.2.664-.363 1.059-.488a3.89 3.89 0 0 1 1.164-.188c.17 0 .335.016.492.047.157.027.322.081.492.166.17.08.316.185.438.315.121.124.222.297.302.515.081.219.122.47.122.756 0 .263-.027.504-.08.723-.05.214-.144.434-.284.662-.139.227-.263.41-.37.549-.109.138-.285.35-.532.636l-3.174 3.72.176.876h5.262l.06-.803h-4.238l2.64-3.072c.32-.37.568-.672.743-.908.18-.237.344-.492.492-.764.153-.276.255-.549.308-.816.059-.268.088-.571.088-.91 0-.388-.057-.736-.173-1.043a2.12 2.12 0 0 0-.46-.756 2.37 2.37 0 0 0-.66-.483 2.828 2.828 0 0 0-.754-.267 3.631 3.631 0 0 0-.77-.08zm-54.992.007c-.899 0-1.749.243-2.553.729l.363.816c.728-.414 1.447-.623 2.157-.623.52 0 .942.132 1.265.395.324.263.49.665.498 1.205v.047c0 1.15-.794 1.726-2.385 1.726h-.289v.897h.284a6.8 6.8 0 0 1 .855.047 3.1 3.1 0 0 1 .72.18c.234.084.425.2.573.347.148.143.268.337.357.582.09.241.135.529.135.863 0 .607-.16 1.072-.484 1.393-.324.321-.773.48-1.348.48-.714 0-1.534-.232-2.459-.7v1.001c.831.433 1.661.65 2.492.65.858 0 1.563-.244 2.116-.73.557-.49.842-1.188.855-2.094v-.046c0-.665-.187-1.206-.564-1.625-.373-.42-.87-.693-1.49-.823 1.194-.307 1.792-1.05 1.792-2.228v-.041c-.004-.531-.144-.983-.418-1.358a2.346 2.346 0 0 0-1.045-.83 3.717 3.717 0 0 0-1.427-.26zm60.767.127l-.19 5.172.903.106c.207-.219.467-.392.781-.522a2.53 2.53 0 0 1 .971-.193c.454 0 .833.1 1.139.3.305.197.524.45.654.762.13.308.195.662.195 1.059 0 .723-.203 1.284-.607 1.686-.4.397-.936.595-1.61.595-.754 0-1.564-.244-2.431-.73l-.385.863c.975.54 1.939.81 2.89.81.464 0 .893-.068 1.288-.206.395-.139.74-.34 1.037-.604.301-.268.535-.609.701-1.023.171-.42.256-.89.256-1.412 0-.55-.113-1.043-.338-1.485a2.567 2.567 0 0 0-1.01-1.078c-.453-.276-.988-.414-1.603-.414-.674 0-1.273.177-1.799.53l.108-3.333h4.136l.088-.883h-5.174zm-27.453 1.153v5.072h-3.361l3.361-5.072zm62.03 3.435c.642 0 1.143.191 1.507.575.369.379.553.873.553 1.48 0 .602-.186 1.112-.559 1.531-.372.415-.887.623-1.543.623-.65 0-1.156-.203-1.515-.61-.36-.405-.54-.907-.54-1.505 0-.303.046-.577.136-.822.09-.246.205-.444.35-.596.143-.156.307-.286.491-.389.189-.107.375-.18.559-.22.189-.045.376-.067.56-.067zM29.529 181.373a5.14 5.14 0 0 0-1.488.22c-.49.143-.885.323-1.186.542l.33.851c.31-.2.662-.365 1.057-.49.4-.125.789-.185 1.166-.185.17 0 .335.015.492.046.158.027.322.082.493.166.17.08.316.186.437.315.121.125.222.297.303.516.08.218.12.47.12.755 0 .264-.025.504-.08.723-.049.214-.143.435-.282.662-.14.228-.264.41-.371.549-.108.138-.285.35-.532.635l-3.174 3.72.176.877h5.262l.06-.802h-4.238l2.64-3.073c.32-.37.568-.673.743-.91.18-.236.344-.49.492-.761.153-.277.255-.55.309-.817.058-.268.088-.571.088-.91a2.92 2.92 0 0 0-.176-1.043 2.117 2.117 0 0 0-.457-.756 2.37 2.37 0 0 0-.66-.482 2.85 2.85 0 0 0-.756-.268 3.613 3.613 0 0 0-.768-.08zm8.166 0c-.88 0-1.596.22-2.148.656-.553.437-.83 1.027-.83 1.772 0 .57.17 1.064.512 1.478.345.415.793.713 1.341.89-.66.228-1.17.568-1.529 1.018-.355.447-.533.997-.533 1.653 0 .544.147 1.015.44 1.412.296.397.678.688 1.15.875a4.285 4.285 0 0 0 1.591.281c.912 0 1.668-.225 2.27-.676.602-.45.902-1.08.902-1.892 0-.62-.184-1.174-.552-1.66a2.9 2.9 0 0 0-1.48-1.024c.56-.2 1.002-.5 1.325-.896.328-.402.492-.888.492-1.46 0-.749-.274-1.338-.822-1.77-.543-.438-1.253-.657-2.129-.657zm22.56.225c-.502 0-1 .073-1.49.22-.489.143-.884.323-1.185.541l.33.852c.31-.2.663-.365 1.059-.49.4-.125.788-.186 1.166-.186.17 0 .333.016.49.047.157.027.322.081.492.166.17.08.316.185.438.315.121.124.224.297.304.515.081.219.121.47.121.756 0 .263-.028.504-.082.723-.049.214-.144.434-.283.662-.139.227-.261.41-.369.549-.108.138-.286.349-.533.634l-3.174 3.721.176.877h5.262l.06-.803h-4.236l2.64-3.072c.32-.37.565-.674.74-.91.18-.237.345-.49.493-.762.153-.276.256-.549.31-.816.059-.268.088-.571.088-.91a2.92 2.92 0 0 0-.176-1.043 2.12 2.12 0 0 0-.459-.756 2.37 2.37 0 0 0-.66-.483 2.832 2.832 0 0 0-.754-.267 3.613 3.613 0 0 0-.767-.08zm8.28 0c-.629 0-1.185.137-1.67.414a2.818 2.818 0 0 0-1.111 1.097c-.256.46-.385.972-.385 1.534 0 .423.08.819.242 1.189.162.366.377.674.647.924a3.095 3.095 0 0 0 2.062.797c.463 0 .903-.113 1.32-.336-.345.441-.575.737-.687.885L66.4 191.5h1.32l2.405-3.266c.278-.379.491-.676.635-.89.148-.219.304-.483.47-.795.167-.317.283-.625.35-.924.072-.299.11-.62.11-.963 0-.401-.07-.785-.21-1.15a3.039 3.039 0 0 0-.6-.977 2.788 2.788 0 0 0-.997-.683 3.453 3.453 0 0 0-1.348-.254zm32.278 0c-.72 0-1.33.21-1.833.634-.503.42-.877 1.005-1.125 1.754-.242.745-.365 1.63-.365 2.657 0 .74.065 1.413.196 2.02.134.601.333 1.133.593 1.593.265.455.61.808 1.037 1.062.432.25.93.375 1.496.375.562 0 1.053-.125 1.475-.375a2.76 2.76 0 0 0 1.018-1.07c.256-.46.446-.99.572-1.592.126-.602.19-1.273.19-2.013 0-.772-.067-1.464-.202-2.075-.135-.615-.334-1.144-.6-1.586-.26-.446-.6-.787-1.017-1.023-.413-.24-.892-.361-1.436-.361zm-8.456.006c-.898 0-1.75.244-2.554.73l.365.816c.728-.414 1.445-.623 2.154-.623.521 0 .944.132 1.268.395.323.263.489.665.498 1.205v.047c0 1.15-.795 1.726-2.385 1.726h-.289v.897h.283c.328 0 .613.016.856.047a3.1 3.1 0 0 1 .72.18c.234.084.424.2.573.347.148.143.267.337.357.582.09.241.135.529.135.863 0 .607-.163 1.072-.486 1.393-.324.321-.771.48-1.346.48-.714 0-1.536-.234-2.461-.703v1.004c.83.433 1.663.65 2.494.65.858 0 1.563-.244 2.115-.73.557-.49.842-1.188.856-2.094v-.046c0-.665-.19-1.206-.567-1.625-.372-.42-.868-.695-1.488-.825 1.195-.307 1.793-1.049 1.793-2.226v-.041c-.004-.531-.144-.983-.418-1.358a2.345 2.345 0 0 0-1.045-.83 3.716 3.716 0 0 0-1.428-.261zm-54.668.591c.57 0 1.026.146 1.368.436.341.285.511.667.511 1.144 0 .527-.156.963-.47 1.31-.315.349-.784.59-1.409.724-.62-.139-1.092-.38-1.416-.723-.318-.348-.478-.784-.478-1.31 0-.473.174-.855.52-1.145.35-.29.809-.436 1.374-.436zm30.88.28c.65 0 1.158.201 1.517.607.36.406.539.908.539 1.506 0 .303-.048.58-.143.83-.09.245-.205.445-.35.602a2.13 2.13 0 0 1-1.064.609 2.59 2.59 0 0 1-.552.06c-.643 0-1.146-.189-1.51-.568-.364-.383-.545-.881-.545-1.492 0-.602.186-1.11.559-1.525.377-.42.893-.63 1.548-.63zm32.243.025c1.429 0 2.143 1.367 2.143 4.102 0 1.378-.186 2.421-.559 3.13-.368.705-.896 1.059-1.584 1.059-.696 0-1.24-.355-1.63-1.064-.387-.714-.58-1.753-.58-3.118-.005-1.306.192-2.317.587-3.03.396-.719.936-1.079 1.624-1.079zm-63.123 4.092c.634.134 1.143.387 1.53.762.39.374.586.834.586 1.378 0 1.214-.705 1.82-2.116 1.82-.691 0-1.223-.16-1.591-.476-.364-.317-.545-.762-.545-1.338 0-.562.195-1.025.586-1.39.39-.366.908-.618 1.55-.756z" id="path4549" font-style="normal" font-variant="normal" font-weight="400" font-stretch="normal" font-size="13.75" font-family="Oxygen-Sans" letter-spacing="0" word-spacing="0" text-anchor="middle" fill="#4d4d4d" fill-opacity="1" stroke="none" stroke-width="1" stroke-linecap="butt" stroke-linejoin="miter" stroke-opacity="1"/><path d="M176 116v27h30v-27h-30zm1 1h28v25h-28v-25z" id="rect12792" opacity="1" fill="#970012" fill-opacity="1" stroke="none"/><path d="M50 172v27h30v-27H50zm1 1h28v25H51v-25z" id="rect12792-9" opacity="1" fill="#86b600" fill-opacity="1" stroke="none"/><path d="M113 200v27h30v-27h-30zm1 1h28v25h-28v-25z" id="rect12792-7" opacity="1" fill="#0082e8" fill-opacity="1" stroke="none"/><path d="M132.625 97.373c-.719 0-1.329.213-1.832.637-.503.419-.88 1.002-1.127 1.752-.243.745-.363 1.63-.363 2.656 0 .74.065 1.413.195 2.02.135.602.333 1.134.594 1.593.265.455.61.809 1.037 1.063.431.25.93.375 1.496.375.561 0 1.052-.125 1.475-.375a2.76 2.76 0 0 0 1.017-1.07c.256-.46.447-.99.572-1.592.126-.602.19-1.274.19-2.014 0-.772-.067-1.463-.201-2.074-.135-.616-.335-1.145-.6-1.586-.26-.446-.6-.787-1.017-1.024-.414-.24-.893-.361-1.436-.361zm-8.146.135c-.234.16-.584.323-1.051.488-.463.16-.863.273-1.2.34v.885c.301-.04.666-.128 1.092-.262a5.79 5.79 0 0 0 1.07-.436v7.95h-2.37v.802h5.605v-.802h-2.115v-8.965h-1.031zm8.146.77c1.428 0 2.143 1.365 2.143 4.099 0 1.378-.186 2.424-.559 3.133-.368.704-.897 1.056-1.584 1.056-.696 0-1.24-.355-1.63-1.064-.387-.714-.58-1.752-.58-3.117-.005-1.307.192-2.318.587-3.031.395-.719.936-1.077 1.623-1.077z" id="path4520" fill="currentColor" fill-opacity="1" stroke="none" color="#fcfcfc"/><path class="ColorScheme-Text" d="M188.463 41.79c-.383 0-.739.044-1.068.134-.33.09-.628.227-.897.41-.269.179-.48.42-.635.725a2.296 2.296 0 0 0-.232 1.05c0 .574.148 1.026.445 1.356.297.325.748.602 1.35.83l1.453.555c.57.22.951.436 1.146.652.2.212.3.532.3.959 0 .37-.09.681-.268.934a1.48 1.48 0 0 1-.684.537c-.28.105-.606.158-.977.158-.455 0-.929-.082-1.421-.244a4.89 4.89 0 0 1-1.319-.664v.964c.253.224.632.412 1.14.567a5.413 5.413 0 0 0 1.583.232c.305 0 .593-.027.865-.08.277-.053.545-.14.8-.261.257-.127.476-.284.66-.471.182-.187.329-.426.439-.719.11-.293.166-.624.166-.99a2.63 2.63 0 0 0-.112-.793 2.179 2.179 0 0 0-.273-.586 1.778 1.778 0 0 0-.47-.445 3.899 3.899 0 0 0-.581-.348c-.183-.09-.42-.19-.713-.305l-1.404-.55c-.427-.167-.724-.35-.89-.55-.164-.203-.245-.492-.245-.867 0-.305.089-.56.268-.767.179-.208.405-.354.677-.44.273-.09.584-.134.934-.134.378 0 .756.052 1.135.158.382.106.706.25.97.433l.391-.757a4.4 4.4 0 0 0-1.195-.5 5.026 5.026 0 0 0-1.338-.184zm30.781 0c-.382 0-.739.044-1.068.134-.33.09-.628.227-.897.41-.268.179-.48.42-.634.725a2.296 2.296 0 0 0-.233 1.05c0 .574.148 1.026.445 1.356.297.325.748.602 1.35.83l1.451.555c.57.22.953.436 1.149.652.199.212.298.532.298.959 0 .37-.09.681-.27.934a1.48 1.48 0 0 1-.683.537c-.28.105-.606.158-.976.158-.456 0-.93-.082-1.422-.244a4.89 4.89 0 0 1-1.318-.664v.964c.252.224.633.412 1.142.567a5.4 5.4 0 0 0 1.58.232c.305 0 .595-.027.867-.08.277-.053.543-.14.8-.261.256-.127.476-.284.66-.471.182-.187.329-.426.439-.719.11-.293.164-.624.164-.99a2.63 2.63 0 0 0-.11-.793 2.176 2.176 0 0 0-.275-.586 1.767 1.767 0 0 0-.469-.445 3.9 3.9 0 0 0-.58-.348 9.655 9.655 0 0 0-.715-.305l-1.404-.55c-.427-.167-.724-.35-.89-.55-.163-.203-.245-.492-.245-.867 0-.305.09-.56.27-.767.179-.208.403-.354.676-.44a3 3 0 0 1 .935-.134c.379 0 .757.052 1.135.158.382.106.706.25.97.433l.391-.757a4.412 4.412 0 0 0-1.197-.5 5.012 5.012 0 0 0-1.336-.184zm-88.898.048l-1.012.074v8.91h1.006V47.29c0-.24.016-.464.049-.672.036-.207.1-.412.19-.615.089-.203.204-.377.347-.52.142-.146.329-.262.556-.347.232-.09.498-.135.8-.135.483 0 .827.154 1.03.459.208.301.311.77.311 1.408v3.955h1.014v-3.99c0-.83-.186-1.472-.56-1.924-.375-.451-.914-.678-1.618-.678-.46 0-.876.091-1.246.27-.366.175-.666.43-.902.764l.035-1.264v-2.162zm-104.528.074l-.175 8.91h1.011l.086-5.498V43.22l2.809 6.61h.92l2.826-6.538v2.008l.086 5.523h1.002l-.178-8.91h-1.281l-2.9 6.77-2.887-6.77h-1.319zm33.118 0v.818h2.648v8.092h1.074V42.73h2.668v-.818h-6.39zm28.584 0l2.677 8.91h1.02l2.265-7.44 2.21 7.44h1.042l2.68-8.91h-1.037l-2.174 7.543-2.215-7.353h-1.037l-2.222 7.36-2.192-7.55H87.52zm34.392 0v.818h2.649v8.092h1.074V42.73h2.666v-.818h-6.389zm33.172 0v8.91h1.092V46.74h3.613v-.781h-3.613v-3.223h3.883l.06-.824h-5.035zM38.887 44.23c-.948 0-1.693.31-2.235.928-.537.615-.804 1.428-.804 2.442 0 .988.27 1.795.816 2.418.545.618 1.287.927 2.223.927.915 0 1.651-.31 2.209-.933.557-.627.836-1.432.836-2.412 0-1.014-.268-1.827-.805-2.442-.537-.618-1.284-.928-2.24-.928zm63.965 0c-.855 0-1.56.308-2.114.922-.553.615-.83 1.44-.83 2.473 0 1.021.284 1.832.85 2.43.565.594 1.301.89 2.209.89.814 0 1.54-.19 2.18-.568l-.215-.713c-.342.171-.651.3-.928.385a3.117 3.117 0 0 1-.922.127c-.623 0-1.127-.197-1.514-.592-.386-.399-.596-1.008-.629-1.83h4.366l.037-.514c0-.944-.216-1.68-.643-2.209-.423-.533-1.038-.8-1.847-.8zm92.24 0c-.863 0-1.64.161-2.332.483l.275.746a4.359 4.359 0 0 1 1.014-.33 5.058 5.058 0 0 1 1.06-.123c.489 0 .845.116 1.069.348.228.231.342.584.342 1.056v.635h-1.032c-1.037 0-1.793.164-2.27.494-.471.326-.708.84-.708 1.54 0 .585.179 1.043.537 1.372.362.33.841.494 1.435.494.887 0 1.607-.34 2.16-1.02l.11.891h.77v-4.26c0-.821-.212-1.413-.635-1.775-.42-.366-1.018-.55-1.795-.55zm-30.742.069c-.391 0-.764.11-1.118.33-.35.216-.646.554-.89 1.017l-.112-1.28h-.81v6.456h1.014v-3.654c0-.574.179-1.06.537-1.459.362-.399.82-.6 1.373-.6.114 0 .251.017.414.05l.043-.83a2.754 2.754 0 0 0-.451-.03zm-98.041.066v3.944c0 .874.191 1.533.574 1.976.386.44.954.66 1.703.66.529 0 .945-.08 1.25-.238a2.05 2.05 0 0 0 .775-.732l.104.847h.879v-6.457h-1.012v3.625c0 .257-.02.492-.057.703-.036.212-.098.41-.187.598-.09.187-.207.345-.35.47a1.48 1.48 0 0 1-.537.3 2.31 2.31 0 0 1-.744.109c-.496 0-.853-.148-1.068-.445-.212-.297-.317-.733-.317-1.307v-4.053H66.31zm157.158 0v3.944c0 .874.192 1.533.574 1.976.387.44.954.66 1.703.66.53 0 .947-.08 1.252-.238.31-.163.566-.407.774-.732l.105.847h.879v-6.457h-1.014v3.625c0 .257-.018.492-.054.703-.037.212-.1.41-.19.598-.09.187-.205.345-.348.47a1.48 1.48 0 0 1-.537.3c-.215.073-.465.109-.746.109-.496 0-.85-.148-1.066-.445-.212-.297-.319-.733-.319-1.307v-4.053h-1.013zm-184.58.64c.663 0 1.164.24 1.502.716.337.472.506 1.103.506 1.892 0 .505-.07.946-.208 1.325a1.92 1.92 0 0 1-.671.902c-.306.224-.682.336-1.13.336-.65 0-1.148-.235-1.49-.707-.341-.472-.511-1.093-.511-1.862 0-.785.17-1.414.511-1.886.342-.476.84-.715 1.49-.715zm63.988 0c1.025 0 1.563.697 1.611 2.089h-3.515c.057-.643.256-1.151.597-1.526a1.705 1.705 0 0 1 1.307-.562zm92.87 2.712h.775v1.422c-.485.712-1.143 1.068-1.977 1.068a1.06 1.06 0 0 1-.764-.293c-.203-.195-.304-.472-.304-.83 0-.2.018-.368.054-.502a.943.943 0 0 1 .201-.377.947.947 0 0 1 .403-.275 2.8 2.8 0 0 1 .654-.159c.265-.036.583-.054.957-.054zM29.267 69.38a4.86 4.86 0 0 0-2.555.728l.363.817c.728-.415 1.447-.623 2.156-.623.521 0 .945.133 1.268.396.323.263.49.664.498 1.203v.047c0 1.151-.795 1.727-2.385 1.727h-.289v.896h.283c.328 0 .613.016.856.047.247.031.487.09.72.18.234.085.425.2.573.347.148.143.267.337.357.583.09.24.135.528.135.863 0 .606-.163 1.071-.486 1.392-.324.321-.773.48-1.348.48-.714 0-1.534-.232-2.459-.7v1.004c.831.432 1.663.648 2.494.648.858 0 1.563-.242 2.115-.729.557-.49.842-1.19.856-2.095v-.047c0-.665-.19-1.206-.566-1.625-.373-.42-.869-.693-1.489-.822 1.195-.308 1.791-1.051 1.791-2.229v-.04c-.004-.532-.142-.984-.416-1.358a2.345 2.345 0 0 0-1.045-.83 3.716 3.716 0 0 0-1.427-.26zm8.421.127c-.233.16-.585.323-1.052.488a9.26 9.26 0 0 1-1.2.342v.883c.301-.04.666-.128 1.092-.262.431-.134.79-.28 1.073-.436v7.95h-2.373v.802h5.607v-.802h-2.117v-8.965h-1.03zm153.588 111.867c-.898 0-1.748.244-2.552.73l.363.817c.728-.415 1.446-.623 2.156-.623.521 0 .942.131 1.266.394.323.264.49.666.5 1.205v.047c0 1.151-.797 1.727-2.387 1.727h-.289v.896h.283a6.8 6.8 0 0 1 .856.047 3.1 3.1 0 0 1 .72.18c.234.085.424.2.573.348.148.142.267.336.357.582.09.24.135.528.135.863 0 .607-.161 1.07-.485 1.39-.323.322-.772.483-1.347.483-.714 0-1.534-.235-2.46-.703v1.004c.832.432 1.662.65 2.493.65.858 0 1.563-.244 2.115-.73.557-.49.842-1.189.856-2.094v-.047c0-.665-.187-1.206-.565-1.625-.373-.42-.87-.695-1.49-.824 1.195-.308 1.793-1.05 1.793-2.227v-.04c-.004-.532-.144-.984-.418-1.358a2.346 2.346 0 0 0-1.045-.83 3.716 3.716 0 0 0-1.428-.262zm-62.742.13c-.233.161-.583.326-1.05.491-.463.16-.863.273-1.2.34v.883c.301-.04.665-.126 1.092-.26a5.79 5.79 0 0 0 1.07-.436v7.95h-2.37v.802h5.605v-.802h-2.116v-8.967h-1.03zm95.033 0l-4.4 6.345v.963h4.475v2.462h1.064v-2.463h1.125l.08-.855h-1.205v-6.451h-1.139zm-64.05.093a5.14 5.14 0 0 0-1.489.22c-.49.143-.884.323-1.185.541l.33.852c.31-.2.661-.365 1.056-.49.4-.125.79-.186 1.166-.186.171 0 .335.016.493.047.157.027.321.081.492.166.17.08.316.185.437.315.122.124.222.297.303.515.08.219.121.47.121.756 0 .263-.026.504-.08.723-.05.214-.144.434-.283.662-.14.227-.263.41-.371.549-.108.138-.284.349-.531.634l-3.174 3.721.175.877h5.262l.06-.803h-4.237l2.64-3.072c.32-.37.567-.674.742-.91.18-.237.342-.49.49-.762.153-.276.257-.549.311-.816.059-.268.088-.571.088-.91a2.92 2.92 0 0 0-.176-1.043 2.117 2.117 0 0 0-.457-.756 2.37 2.37 0 0 0-.66-.483 2.84 2.84 0 0 0-.756-.267 3.615 3.615 0 0 0-.767-.08zm64.125 1.287v5.072h-3.364l3.364-5.072zm-27.965 26.484c-.719 0-1.331.211-1.834.635-.503.42-.878 1.004-1.125 1.754-.243.745-.364 1.63-.364 2.656 0 .74.066 1.413.196 2.02a5.76 5.76 0 0 0 .594 1.591c.265.455.61.81 1.037 1.065.43.25.93.375 1.496.375.561 0 1.052-.125 1.474-.375.427-.254.766-.611 1.018-1.07.256-.46.446-.99.572-1.592.126-.602.19-1.274.19-2.014 0-.772-.069-1.463-.203-2.074-.135-.616-.335-1.145-.6-1.586-.26-.446-.6-.787-1.018-1.024-.413-.24-.89-.36-1.433-.36zm-67.137.004c-.88 0-1.596.22-2.148.656-.553.437-.829 1.027-.829 1.772 0 .57.17 1.064.512 1.478.346.415.792.713 1.34.891-.66.227-1.17.567-1.53 1.018-.354.446-.53.996-.53 1.652 0 .544.145 1.013.437 1.41.296.397.68.69 1.152.877a4.275 4.275 0 0 0 1.59.281c.912 0 1.668-.225 2.27-.675.602-.45.904-1.081.904-1.893 0-.62-.184-1.174-.553-1.66-.368-.486-.862-.827-1.482-1.024.561-.2 1.005-.5 1.328-.896.328-.402.49-.888.49-1.46 0-.749-.274-1.338-.822-1.77-.544-.438-1.253-.657-2.129-.657zm58.99.129c-.233.16-.583.323-1.05.488a9.25 9.25 0 0 1-1.2.342v.883c.301-.04.665-.126 1.092-.26.431-.134.787-.28 1.07-.435v7.947h-2.37v.805h5.605v-.805h-2.116v-8.965h-1.03zm-156.283.004l-.19 5.172.903.107c.207-.218.469-.392.783-.521a2.52 2.52 0 0 1 .969-.194c.454 0 .833.1 1.139.301.305.197.524.45.654.762.13.308.195.66.195 1.057 0 .722-.203 1.286-.607 1.687-.4.397-.936.594-1.61.594-.754 0-1.564-.243-2.431-.729l-.385.864c.975.54 1.938.808 2.89.808.463 0 .892-.069 1.288-.207.395-.138.74-.338 1.037-.601.3-.268.535-.609.701-1.024.17-.419.256-.89.256-1.412 0-.549-.113-1.043-.338-1.484a2.567 2.567 0 0 0-1.01-1.078c-.453-.277-.988-.414-1.603-.414-.674 0-1.274.175-1.8.527l.108-3.332h4.137l.088-.883h-5.174zm187.145 0c-.234.16-.584.323-1.051.488a9.25 9.25 0 0 1-1.2.342v.883c.302-.04.666-.126 1.092-.26.432-.134.79-.28 1.073-.435v7.947h-2.373v.805h5.605v-.805h-2.115v-8.965h-1.031zm8.113 0c-.234.16-.584.323-1.05.488a9.25 9.25 0 0 1-1.2.342v.883a6.7 6.7 0 0 0 1.09-.26c.43-.134.789-.28 1.072-.435v7.947h-2.371v.805h5.605v-.805h-2.117v-8.965h-1.03zm-66.82.092c-.63 0-1.185.137-1.67.414a2.818 2.818 0 0 0-1.112 1.098 3.09 3.09 0 0 0-.384 1.53c0 .425.08.822.242 1.192.161.366.377.674.646.924.27.245.583.44.938.582.359.143.734.213 1.125.213.462 0 .902-.111 1.32-.334-.346.442-.575.736-.687.883l-2.553 3.4h1.32l2.404-3.265c.279-.38.491-.677.635-.891.148-.219.305-.483.47-.795.167-.317.283-.625.35-.924.072-.299.11-.62.11-.963 0-.401-.07-.786-.21-1.152a3.04 3.04 0 0 0-.599-.977 2.783 2.783 0 0 0-.998-.681 3.454 3.454 0 0 0-1.347-.254zm-94.633.133l-2.217 3.238c-.265.379-.47.686-.613.918a9.87 9.87 0 0 0-.446.808c-.152.308-.259.613-.322.917a4.688 4.688 0 0 0-.096.964c0 .402.07.785.21 1.15.139.366.338.692.599.977.26.281.594.507.998.676.404.17.854.254 1.348.254.943 0 1.703-.29 2.283-.87.584-.583.877-1.306.877-2.167 0-.843-.293-1.54-.877-2.088a2.91 2.91 0 0 0-2.074-.822c-.499 0-.964.125-1.395.375.274-.366.51-.695.707-.985l2.291-3.345h-1.273zm28.894 0l.127.896h4.414l-3.396 8.873h1.119l3.45-8.978v-.791h-5.714zm34.588.464c.57 0 1.026.146 1.367.436.342.286.512.667.512 1.145 0 .526-.156.962-.47 1.31-.315.348-.785.589-1.409.723-.62-.138-1.09-.38-1.414-.723-.319-.348-.478-.784-.478-1.31 0-.473.171-.855.517-1.145.35-.29.81-.436 1.375-.436zm67.143.077c1.428 0 2.142 1.367 2.142 4.101 0 1.379-.187 2.422-.56 3.131-.369.705-.895 1.057-1.582 1.057-.696 0-1.24-.354-1.631-1.063-.386-.713-.58-1.752-.58-3.117-.005-1.307.19-2.318.586-3.031.395-.718.938-1.078 1.625-1.078zm-35.96.203c.652 0 1.159.201 1.518.607.36.406.54.908.54 1.506 0 .303-.049.58-.143.83-.09.245-.206.446-.35.602a2.128 2.128 0 0 1-1.064.61 2.6 2.6 0 0 1-.553.06c-.642 0-1.146-.19-1.51-.569-.364-.383-.545-.88-.545-1.492 0-.602.186-1.11.559-1.525.377-.42.893-.63 1.549-.63zm-95.19 4.074c.642 0 1.143.19 1.507.574.368.38.553.872.553 1.479 0 .602-.186 1.114-.559 1.533-.373.415-.887.621-1.543.621-.651 0-1.156-.202-1.515-.607-.36-.406-.54-.909-.54-1.506 0-.304.046-.577.135-.822.09-.246.206-.445.35-.596.144-.156.308-.286.492-.389.189-.107.375-.18.559-.22a2.43 2.43 0 0 1 .56-.067zm64.007.043c.633.134 1.143.387 1.53.762.39.374.585.835.585 1.379 0 1.213-.704 1.82-2.115 1.82-.692 0-1.221-.16-1.59-.477-.364-.316-.547-.762-.547-1.337 0-.562.198-1.025.588-1.391.391-.366.907-.618 1.55-.756z" id="path4552-8" fill="currentColor" fill-opacity=".5" stroke="none"/></svg>