<svg xmlns="http://www.w3.org/2000/svg" xmlns:xlink="http://www.w3.org/1999/xlink" viewBox="0 0 256 256" id="svg2" version="1.1"><defs id="defs4"><linearGradient xlink:href="#linearGradient4303" id="linearGradient4158" x1="409.571" y1="543.798" x2="409.571" y2="503.798" gradientUnits="userSpaceOnUse" gradientTransform="matrix(1.125 0 0 1 -59.072 -8)"/><linearGradient id="linearGradient4303"><stop id="stop4305" offset="0" stop-color="#c6cdd1" stop-opacity="1"/><stop id="stop4307" offset="1" stop-color="#e0e5e7" stop-opacity="1"/></linearGradient><linearGradient gradientUnits="userSpaceOnUse" y2="532.798" x2="419.571" y1="512.798" x1="399.571" id="linearGradient4881" xlink:href="#linearGradient4400"/><linearGradient id="linearGradient4400"><stop id="stop4402" offset="0" stop-color="#020303" stop-opacity="1"/><stop id="stop4404" offset="1" stop-color="#424649" stop-opacity="0"/></linearGradient><linearGradient gradientUnits="userSpaceOnUse" y2="8" x2="32" y1="52" x1="32" id="linearGradient4659" xlink:href="#linearGradient4903"/><linearGradient id="linearGradient4903"><stop offset="0" id="stop4905" stop-color="#eef1f2" stop-opacity="1"/><stop offset="1" id="stop4907" stop-color="#f9fafb" stop-opacity="1"/></linearGradient><linearGradient gradientUnits="userSpaceOnUse" y2="41" x2="43" y1="21" x1="23" id="linearGradient4231" xlink:href="#linearGradient4400"/><linearGradient gradientUnits="userSpaceOnUse" y2="1033.362" x2="11" y1="1050.362" x1="11" id="linearGradient4793" xlink:href="#linearGradient4159"/><linearGradient id="linearGradient4159"><stop offset="0" id="stop4161" stop-color="#2a2c2f" stop-opacity="1"/><stop offset="1" id="stop4163" stop-color="#424649" stop-opacity="1"/></linearGradient><linearGradient gradientTransform="translate(0 -29)" gradientUnits="userSpaceOnUse" y2="497.798" x2="408.571" y1="549.798" x1="408.571" id="linearGradient4291-1" xlink:href="#linearGradient4251-0"/><linearGradient id="linearGradient4251-0"><stop offset="0" id="stop4253-4" stop-color="#63984b" stop-opacity="1"/><stop offset="1" id="stop4255-2" stop-color="#8fc278" stop-opacity="1"/></linearGradient><linearGradient gradientTransform="translate(8 -11)" y2="527.798" x2="417.571" y1="518.798" x1="408.571" gradientUnits="userSpaceOnUse" id="linearGradient4259" xlink:href="#linearGradient4227"/><linearGradient id="linearGradient4227"><stop id="stop4229" offset="0" stop-color="#292c2f" stop-opacity="1"/><stop id="stop4231" offset="1" stop-color="#000" stop-opacity="0"/></linearGradient><linearGradient y2="527.798" x2="417.571" y1="518.798" x1="408.571" gradientTransform="translate(16 -11)" gradientUnits="userSpaceOnUse" id="linearGradient4263" xlink:href="#linearGradient4227"/><linearGradient gradientTransform="translate(0 -11)" gradientUnits="userSpaceOnUse" y2="527.798" x2="417.571" y1="518.798" x1="408.571" id="linearGradient4184" xlink:href="#linearGradient4227"/><linearGradient gradientTransform="matrix(.85714 0 0 .88889 60.653 46.644)" gradientUnits="userSpaceOnUse" y2="518.798" x2="428.571" y1="527.798" x1="428.571" id="linearGradient4183" xlink:href="#linearGradient4159"/><linearGradient gradientTransform="translate(0 -11)" gradientUnits="userSpaceOnUse" y2="519.798" x2="398.571" y1="526.798" x1="398.571" id="linearGradient4455" xlink:href="#linearGradient4903"/><linearGradient y2="518.798" x2="428.571" y1="527.798" x1="428.571" gradientTransform="matrix(.85714 0 0 .88889 52.653 46.644)" gradientUnits="userSpaceOnUse" id="linearGradient4281" xlink:href="#linearGradient4159"/><linearGradient y2="518.798" x2="428.571" y1="527.798" x1="428.571" gradientTransform="matrix(.85714 0 0 .88889 44.653 46.644)" gradientUnits="userSpaceOnUse" id="linearGradient4324" xlink:href="#linearGradient4159"/><linearGradient y2="497.798" x2="408.571" y1="549.798" x1="408.571" gradientTransform="translate(0 -7)" gradientUnits="userSpaceOnUse" id="linearGradient4304" xlink:href="#linearGradient4251-0"/><linearGradient y2="527.798" x2="417.571" y1="518.798" x1="408.571" gradientTransform="translate(8 11)" gradientUnits="userSpaceOnUse" id="linearGradient4306" xlink:href="#linearGradient4227"/><linearGradient y2="527.798" x2="417.571" y1="518.798" x1="408.571" gradientTransform="translate(16 11)" gradientUnits="userSpaceOnUse" id="linearGradient4308" xlink:href="#linearGradient4227"/><linearGradient y2="527.798" x2="417.571" y1="518.798" x1="408.571" gradientTransform="translate(0 11)" gradientUnits="userSpaceOnUse" id="linearGradient4310" xlink:href="#linearGradient4227"/><linearGradient y2="518.798" x2="428.571" y1="527.798" x1="428.571" gradientTransform="matrix(.85714 0 0 .88889 60.653 68.644)" gradientUnits="userSpaceOnUse" id="linearGradient4312" xlink:href="#linearGradient4159"/><linearGradient y2="519.798" x2="398.571" y1="526.798" x1="398.571" gradientTransform="translate(0 11)" gradientUnits="userSpaceOnUse" id="linearGradient4314" xlink:href="#linearGradient4903"/><linearGradient y2="518.798" x2="428.571" y1="527.798" x1="428.571" gradientTransform="matrix(.85714 0 0 .88889 52.653 68.644)" gradientUnits="userSpaceOnUse" id="linearGradient4316" xlink:href="#linearGradient4159"/><linearGradient y2="518.798" x2="428.571" y1="527.798" x1="428.571" gradientTransform="matrix(.85714 0 0 .88889 44.653 68.644)" gradientUnits="userSpaceOnUse" id="linearGradient4318" xlink:href="#linearGradient4159"/><linearGradient xlink:href="#linearGradient4159" id="linearGradient4403" gradientUnits="userSpaceOnUse" x1="11" y1="1050.362" x2="11" y2="1033.362"/><style id="current-color-scheme" type="text/css">.ColorScheme-Text{color:#f2f2f2}</style></defs><path d="M16 10h224c3.324 0 6 2.676 6 6v224c0 3.324-2.676 6-6 6H16c-3.324 0-6-2.676-6-6V16c0-3.324 2.676-6 6-6z" id="rect4240" fill="currentColor" fill-opacity=".5" stroke="none" color="#31363b"/><path d="M16 12h224c2.216 0 4 1.784 4 4v224c0 2.216-1.784 4-4 4H16c-2.216 0-4-1.784-4-4V16c0-2.216 1.784-4 4-4z" id="rect4238" fill="currentColor" fill-opacity="1" stroke="none" color="#31363b"/><path class="ColorScheme-Text" d="M113.303 28.37c-.847 0-1.566.25-2.158.753-.593.497-1.034 1.19-1.325 2.078-.285.883-.43 1.934-.43 3.15 0 .879.078 1.678.231 2.397.159.714.393 1.344.7 1.889.311.54.717.958 1.22 1.26.508.296 1.095.445 1.762.445.66 0 1.24-.15 1.738-.446a3.26 3.26 0 0 0 1.197-1.27 6.671 6.671 0 0 0 .676-1.886c.148-.714.22-1.51.22-2.389 0-.915-.077-1.736-.236-2.46-.158-.73-.394-1.356-.707-1.88a3.221 3.221 0 0 0-1.197-1.214c-.487-.286-1.051-.428-1.691-.428zm-58.446.062l-1.318.095v2.61l.065 1.914a3.34 3.34 0 0 0-.405-.596 2.557 2.557 0 0 0-.508-.469 2.115 2.115 0 0 0-.722-.332 3.726 3.726 0 0 0-.951-.111c-1.111 0-1.992.396-2.643 1.19-.645.793-.969 1.833-.969 3.118 0 1.355.314 2.43.938 3.229.63.793 1.523 1.19 2.681 1.19 1.201 0 2.073-.548 2.618-1.643l.119 1.484h1.095v-11.68zm29.922 0l-1.302.095v11.584h1.302v-3.07l.905-.857 3.332 3.927h1.546l-3.966-4.562 3.666-3.832h-1.596l-3.936 4.261.05-1.73v-5.816zm-62.43.095v11.584h1.397V34.71h6.03v5.402h1.396V28.527h-1.397v5.166h-6.029v-5.166H22.35zm38.563 0v11.584h3.514c1.856 0 3.317-.505 4.38-1.515 1.064-1.01 1.594-2.447 1.594-4.309 0-.783-.097-1.488-.293-2.117a4.873 4.873 0 0 0-.834-1.627 4.721 4.721 0 0 0-1.308-1.127 5.82 5.82 0 0 0-1.713-.674 9.298 9.298 0 0 0-2.057-.215h-3.283zm12.4 0a.865.865 0 0 0-.626.239.802.802 0 0 0-.239.603c0 .249.08.45.239.61a.865.865 0 0 0 .626.238c.25 0 .456-.08.62-.239a.81.81 0 0 0 .246-.609.789.789 0 0 0-.246-.603.838.838 0 0 0-.62-.239zm21.924 0v.85h1.65v9.885h-1.65v.85h4.682v-.85h-1.635v-9.885h1.635v-.85h-4.682zm11.252 0l-4.834 11.584h1.143l4.865-11.584h-1.174zm16.733 0l-.229 11.584h1.317l.11-7.148v-2.738l3.651 8.593h1.198l3.673-8.498v2.612l.112 7.18h1.3l-.23-11.585h-1.666l-3.77 8.8-3.751-8.8h-1.715zm32.549 0a.865.865 0 0 0-.627.239.802.802 0 0 0-.239.603c0 .249.08.45.239.61a.865.865 0 0 0 .627.238c.248 0 .455-.08.619-.239a.81.81 0 0 0 .246-.609.789.789 0 0 0-.246-.603.838.838 0 0 0-.62-.239zm4.847.889l-1.054.08-.215 2.22-1.293.089-.034.746h1.295v5.045c0 .513.045.928.135 1.246.09.317.252.579.485.785.238.206.544.35.92.43.375.079.866.119 1.474.119h.549l.062-.905-.666-.033c-.703-.026-1.156-.136-1.357-.332-.201-.2-.3-.639-.3-1.31V32.55h2.22v-.834h-2.22v-2.301zm-47.314.023c1.682 0 2.523 1.621 2.523 4.864 0 1.634-.219 2.873-.658 3.715-.434.835-1.056 1.253-1.865 1.253-.82 0-1.46-.42-1.92-1.261-.455-.847-.682-2.08-.682-3.7-.005-1.55.224-2.747.69-3.593.465-.852 1.102-1.278 1.912-1.278zm-50.994.135h1.824c1.592 0 2.8.384 3.625 1.15.83.762 1.246 1.964 1.246 3.604 0 1.545-.391 2.718-1.174 3.522-.778.798-1.938 1.199-3.482 1.199h-2.04v-9.475zm-25.71 1.969c-1.12 0-2.131.209-3.03.627l.357.967a5.654 5.654 0 0 1 1.316-.428 6.586 6.586 0 0 1 1.381-.158c.635 0 1.098.15 1.389.45.296.302.445.76.445 1.374v.824h-1.342c-1.349 0-2.332.216-2.95.645-.615.423-.92 1.088-.92 1.998 0 .761.23 1.356.696 1.785.471.428 1.093.642 1.866.642 1.153 0 2.089-.44 2.808-1.324l.143 1.158h1v-5.539c0-1.068-.276-1.837-.826-2.308-.545-.476-1.322-.713-2.332-.713zm42.307 0c-.878 0-1.56.211-2.047.635-.486.418-.73.968-.73 1.65 0 .55.141.999.422 1.348.28.344.798.637 1.554.88l.92.295c.609.196 1.03.403 1.262.625a1.1 1.1 0 0 1 .35.827c0 .476-.14.841-.42 1.095-.28.249-.676.373-1.184.373-.81 0-1.715-.24-2.72-.722v1.103c.867.413 1.743.617 2.626.617.397 0 .761-.047 1.094-.142.339-.095.64-.237.904-.428.27-.19.482-.444.635-.762a2.56 2.56 0 0 0 .23-1.11c0-.34-.031-.626-.095-.858a1.754 1.754 0 0 0-.348-.666 2.17 2.17 0 0 0-.707-.54 6.801 6.801 0 0 0-1.15-.46l-.834-.262c-.545-.175-.901-.339-1.07-.492-.17-.154-.254-.403-.254-.746 0-.408.13-.716.388-.928.265-.217.7-.324 1.309-.324.682 0 1.39.184 2.12.554l.308-.976a5.712 5.712 0 0 0-2.563-.586zm61.303 0c-1.233 0-2.2.4-2.904 1.205-.699.799-1.047 1.857-1.047 3.174 0 1.285.353 2.333 1.062 3.142.71.804 1.672 1.205 2.889 1.205 1.19 0 2.148-.403 2.873-1.212.725-.815 1.086-1.86 1.086-3.135 0-1.317-.349-2.375-1.047-3.174-.698-.804-1.669-1.205-2.912-1.205zm9.799 0c-1.264 0-2.213.443-2.848 1.332l-.142-1.158h-1.143v8.394h1.316V35.43c0-1.92.864-2.88 2.588-2.88.64 0 1.086.193 1.34.579.254.38.381.95.381 1.707v5.275h1.316v-5.133c0-1.153-.229-2.014-.69-2.58-.454-.57-1.16-.855-2.118-.855zm18.1 0c-1.233 0-2.201.4-2.905 1.205-.698.799-1.047 1.857-1.047 3.174 0 1.285.354 2.333 1.063 3.142.709.804 1.672 1.205 2.888 1.205 1.19 0 2.149-.403 2.873-1.212.725-.815 1.086-1.86 1.086-3.135 0-1.317-.348-2.375-1.046-3.174-.699-.804-1.67-1.205-2.913-1.205zm-122.383.086c-.508 0-.993.144-1.454.43-.454.28-.84.72-1.158 1.324l-.142-1.666h-1.055v8.394h1.316V35.36c0-.746.234-1.378.7-1.896.47-.519 1.065-.778 1.785-.778.148 0 .327.02.539.063l.056-1.078a3.553 3.553 0 0 0-.587-.041zm131.904 0c-.508 0-.993.144-1.453.43-.455.28-.841.72-1.158 1.324l-.143-1.666h-1.055v8.394h1.317V35.36c0-.746.233-1.378.699-1.896.47-.519 1.066-.778 1.785-.778.148 0 .328.02.54.063l.056-1.078a3.553 3.553 0 0 0-.588-.041zm-104.975.088v8.394h1.301v-8.394h-1.3zm82.457 0v8.394h1.301v-8.394h-1.3zm-103.904.834c.783 0 1.373.289 1.77.87.402.583.603 1.444.603 2.58-.005 1.043-.2 1.847-.58 2.413-.38.566-1.001.848-1.863.848-.82 0-1.427-.302-1.819-.905-.386-.603-.578-1.43-.578-2.482 0-1.058.207-1.877.62-2.453.412-.582 1.027-.871 1.847-.871zm89.002 0c.862 0 1.514.309 1.953.927.44.614.658 1.433.658 2.46 0 .655-.09 1.23-.27 1.722-.18.487-.47.878-.872 1.174-.397.29-.887.437-1.469.437-.846 0-1.491-.308-1.936-.921-.444-.614-.666-1.42-.666-2.42 0-1.021.222-1.838.666-2.452.445-.618 1.09-.927 1.936-.927zm27.898 0c.863 0 1.513.309 1.952.927.439.614.658 1.433.658 2.46 0 .655-.09 1.23-.27 1.722a2.49 2.49 0 0 1-.873 1.174c-.397.29-.885.437-1.467.437-.846 0-1.49-.308-1.935-.921-.444-.614-.668-1.42-.668-2.42 0-1.021.224-1.838.668-2.452.444-.618 1.09-.927 1.935-.927zM37.45 36.072h1.008v1.85c-.63.926-1.488 1.388-2.572 1.388-.397 0-.726-.126-.99-.38-.265-.254-.399-.615-.399-1.08 0-.26.025-.476.072-.65a1.235 1.235 0 0 1 .786-.849 3.63 3.63 0 0 1 .85-.207 9.339 9.339 0 0 1 1.245-.072zM20 50v1h216v-1H20zm32.092 13.207a9.759 9.759 0 0 0-1.283 2.691c-.3.98-.45 2.007-.45 3.077 0 1.181.153 2.311.457 3.39.31 1.074.739 1.993 1.29 2.758h1.033c-1.128-1.772-1.692-3.83-1.692-6.176 0-2.09.567-4.003 1.7-5.74h-1.055zm22.217 0c.613.976 1.049 1.916 1.308 2.82.26.904.389 1.868.389 2.893 0 1.128-.14 2.232-.422 3.31a9.665 9.665 0 0 1-1.27 2.893h1.041c.538-.739.961-1.657 1.27-2.758.313-1.105.469-2.25.469-3.431 0-2.122-.578-4.03-1.733-5.727H74.31zm-16.477.443c-.877 0-1.592.22-2.143.659-.55.438-.824 1.031-.824 1.779 0 .573.17 1.066.51 1.482.345.417.79.714 1.336.893-.658.228-1.165.57-1.523 1.021-.354.448-.532 1-.532 1.659 0 .546.145 1.017.436 1.416.295.398.678.692 1.148.88.47.188 1 .282 1.586.282.909 0 1.662-.226 2.262-.678.6-.452.9-1.086.9-1.9a2.7 2.7 0 0 0-.55-1.667c-.368-.487-.861-.828-1.479-1.025.56-.201 1.002-.502 1.324-.9.327-.403.49-.89.49-1.463 0-.752-.274-1.345-.82-1.78-.541-.438-1.248-.658-2.121-.658zm11.709 0c-.716 0-1.325.212-1.826.637-.501.42-.875 1.008-1.121 1.76-.242.747-.364 1.636-.364 2.666 0 .743.066 1.418.196 2.027.134.604.33 1.137.59 1.598.264.456.61.811 1.035 1.066.43.25.926.377 1.49.377.56 0 1.05-.126 1.47-.377a2.76 2.76 0 0 0 1.014-1.074 5.61 5.61 0 0 0 .57-1.598 9.968 9.968 0 0 0 .188-2.02c0-.774-.067-1.468-.201-2.081-.134-.618-.334-1.149-.598-1.592a2.726 2.726 0 0 0-1.013-1.027c-.412-.242-.888-.362-1.43-.362zm84.846 0c-.716 0-1.325.212-1.826.637-.502.42-.875 1.008-1.122 1.76-.241.747-.363 1.636-.363 2.666 0 .743.066 1.418.195 2.027.135.604.33 1.137.59 1.598.264.456.61.811 1.035 1.066.43.25.927.377 1.49.377.56 0 1.05-.126 1.471-.377a2.76 2.76 0 0 0 1.014-1.074 5.64 5.64 0 0 0 .57-1.598 9.969 9.969 0 0 0 .188-2.02c0-.774-.067-1.468-.201-2.081-.135-.618-.334-1.149-.598-1.592a2.726 2.726 0 0 0-1.014-1.027c-.411-.242-.888-.362-1.43-.362zm53.468 0c-.716 0-1.324.212-1.826.637-.501.42-.875 1.008-1.12 1.76-.242.747-.364 1.636-.364 2.666 0 .743.065 1.418.195 2.027.135.604.332 1.137.592 1.598a2.92 2.92 0 0 0 1.033 1.066c.43.25.926.377 1.49.377.56 0 1.05-.126 1.471-.377a2.76 2.76 0 0 0 1.014-1.074 5.64 5.64 0 0 0 .57-1.598 9.969 9.969 0 0 0 .188-2.02 9.72 9.72 0 0 0-.202-2.081c-.134-.618-.333-1.149-.597-1.592a2.726 2.726 0 0 0-1.014-1.027c-.412-.242-.888-.362-1.43-.362zm-173.83.053l-1.115.08v2.21l.053 1.618a2.824 2.824 0 0 0-.342-.504 2.163 2.163 0 0 0-.43-.396 1.79 1.79 0 0 0-.61-.281 3.153 3.153 0 0 0-.806-.094c-.94 0-1.685.334-2.236 1.006-.546.671-.818 1.55-.818 2.638 0 1.146.263 2.057.79 2.733.533.671 1.29 1.008 2.27 1.008 1.016 0 1.756-.464 2.217-1.391l.1 1.256h.927v-9.883zm128.612.08v9.803h3.652c1.132 0 1.986-.243 2.559-.73.577-.493.867-1.172.867-2.036 0-.622-.172-1.134-.512-1.537-.336-.407-.813-.702-1.435-.88.568-.22.968-.508 1.2-.866.238-.363.356-.812.356-1.35 0-.819-.296-1.423-.887-1.812-.586-.394-1.493-.592-2.724-.592h-3.076zm12.623 0l-4.088 9.803h.967l4.115-9.803h-.994zm15.603 0l-4.09 9.803h.967l4.115-9.803h-.992zm8.875 0c-.232.161-.581.325-1.047.49-.46.161-.86.277-1.195.344v.885c.3-.04.663-.128 1.088-.262.43-.134.784-.279 1.066-.435v7.976h-2.363v.805h5.586v-.805h-2.107v-8.998h-1.028zm16.37 0v9.803h3.652c1.132 0 1.983-.243 2.556-.73.578-.493.868-1.172.868-2.036 0-.622-.17-1.134-.51-1.537-.336-.407-.816-.702-1.438-.88.569-.22.969-.508 1.201-.866.238-.363.356-.812.356-1.35 0-.819-.294-1.423-.885-1.812-.586-.394-1.495-.592-2.726-.592h-3.075zm12.62 0l-4.087 9.803h.966l4.116-9.803h-.994zm-170.902.693c.569 0 1.021.145 1.361.436.34.286.512.67.512 1.148 0 .529-.157.968-.47 1.317-.314.349-.78.59-1.403.724-.618-.138-1.088-.38-1.41-.724-.318-.35-.477-.788-.477-1.317 0-.474.171-.857.516-1.148.35-.29.807-.436 1.371-.436zm11.715.08c1.423 0 2.135 1.372 2.135 4.116 0 1.383-.185 2.43-.557 3.142-.367.708-.893 1.06-1.578 1.06-.694 0-1.236-.356-1.625-1.067-.385-.717-.578-1.76-.578-3.13-.005-1.31.192-2.324.586-3.04.394-.721.932-1.08 1.617-1.08zm84.846 0c1.423 0 2.134 1.372 2.134 4.116 0 1.383-.185 2.43-.556 3.142-.367.708-.893 1.06-1.578 1.06-.694 0-1.236-.356-1.625-1.067-.385-.717-.578-1.76-.578-3.13-.004-1.31.19-2.324.584-3.04.393-.721.934-1.08 1.619-1.08zm53.468 0c1.424 0 2.135 1.372 2.135 4.116 0 1.383-.185 2.43-.556 3.142-.367.708-.894 1.06-1.579 1.06-.693 0-1.235-.356-1.625-1.067-.384-.717-.576-1.76-.576-3.13-.004-1.31.19-2.324.584-3.04.394-.721.933-1.08 1.617-1.08zm-44.037.114h1.887c.882 0 1.519.118 1.908.355.39.238.584.672.584 1.303 0 .627-.179 1.066-.537 1.316-.358.247-.883.37-1.572.37h-2.27V64.67zm53.471 0h1.887c.882 0 1.517.118 1.906.355.39.238.584.672.584 1.303 0 .627-.179 1.066-.537 1.316-.358.247-.881.37-1.57.37h-2.27V64.67zM24.135 66.336c-.743 0-1.32.179-1.733.537-.411.354-.617.82-.617 1.396 0 .466.118.846.356 1.141.237.291.676.54 1.316.746l.78.248c.514.166.869.342 1.066.53a.93.93 0 0 1 .297.699c0 .403-.12.71-.358.926-.237.21-.57.316-1 .316-.685 0-1.452-.204-2.303-.611v.933a5.13 5.13 0 0 0 2.223.524c.336 0 .644-.04.926-.121a2.42 2.42 0 0 0 .766-.364 1.65 1.65 0 0 0 .537-.644 2.16 2.16 0 0 0 .195-.94 2.78 2.78 0 0 0-.08-.724 1.495 1.495 0 0 0-.297-.565 1.835 1.835 0 0 0-.598-.457 5.753 5.753 0 0 0-.972-.388l-.705-.221c-.461-.148-.763-.286-.907-.416-.143-.13-.215-.342-.215-.633 0-.345.11-.606.329-.785.223-.184.594-.276 1.109-.276.577 0 1.173.158 1.791.471l.262-.826a4.832 4.832 0 0 0-2.168-.496zm14.26 0c-.95 0-1.804.176-2.565.53l.303.82a4.796 4.796 0 0 1 1.115-.364c.416-.09.805-.135 1.168-.135.537 0 .928.128 1.174.383.25.255.377.643.377 1.162v.698h-1.135c-1.141 0-1.974.182-2.498.545-.52.358-.78.921-.78 1.69 0 .645.199 1.15.592 1.513.399.362.925.543 1.579.543.975 0 1.768-.374 2.377-1.121l.119.98h.847v-4.687c0-.905-.233-1.555-.699-1.954-.46-.402-1.12-.603-1.974-.603zm141.619 0c-.743 0-1.321.179-1.733.537-.412.354-.617.82-.617 1.396 0 .466.118.846.356 1.141.237.291.676.54 1.316.746l.777.248c.515.166.872.342 1.069.53a.928.928 0 0 1 .295.699c0 .403-.119.71-.356.926-.237.21-.57.316-1 .316-.685 0-1.452-.204-2.303-.611v.933c.734.35 1.474.524 2.221.524.336 0 .646-.04.928-.121a2.42 2.42 0 0 0 .765-.364c.229-.16.408-.376.538-.644a2.16 2.16 0 0 0 .193-.94c0-.286-.027-.527-.08-.724a1.49 1.49 0 0 0-.295-.565 1.835 1.835 0 0 0-.598-.457 5.753 5.753 0 0 0-.972-.388l-.706-.221c-.46-.148-.763-.286-.906-.416-.143-.13-.215-.342-.215-.633 0-.345.11-.606.329-.785.223-.184.592-.276 1.107-.276.577 0 1.175.158 1.793.471l.262-.826a4.832 4.832 0 0 0-2.168-.496zm53.468 0c-.743 0-1.32.179-1.732.537-.412.354-.617.82-.617 1.396 0 .466.118.846.355 1.141.238.291.677.54 1.317.746l.779.248c.515.166.87.342 1.066.53a.928.928 0 0 1 .295.699c0 .403-.118.71-.355.926-.237.21-.57.316-1 .316-.685 0-1.452-.204-2.303-.611v.933a5.13 5.13 0 0 0 2.223.524c.335 0 .644-.04.926-.121a2.42 2.42 0 0 0 .765-.364 1.65 1.65 0 0 0 .537-.644 2.16 2.16 0 0 0 .196-.94c0-.286-.029-.527-.082-.724a1.49 1.49 0 0 0-.295-.565 1.835 1.835 0 0 0-.598-.457 5.753 5.753 0 0 0-.973-.388l-.705-.221c-.46-.148-.763-.286-.906-.416-.143-.13-.215-.342-.215-.633 0-.345.109-.606.328-.785.224-.184.593-.276 1.108-.276.577 0 1.175.158 1.793.471l.261-.826a4.832 4.832 0 0 0-2.168-.496zm-169.808.146c-.264 0-.468.077-.611.229a.727.727 0 0 0-.215.523c0 .206.071.385.215.537.143.148.347.223.61.223.265 0 .466-.075.604-.223a.758.758 0 0 0 .215-.537.727.727 0 0 0-.215-.523c-.138-.152-.34-.229-.603-.229zm-32.738.705c.662 0 1.162.246 1.498.739.34.492.51 1.221.51 2.183-.005.882-.169 1.562-.49 2.041-.323.48-.85.717-1.579.717-.694 0-1.206-.253-1.537-.764-.327-.51-.49-1.21-.49-2.101 0-.895.174-1.588.523-2.076.35-.493.87-.739 1.565-.739zm132.882 1.666h1.922c.967 0 1.674.148 2.121.444.448.295.672.793.672 1.496 0 .662-.194 1.143-.584 1.443-.385.3-1.001.451-1.847.451h-2.284v-3.834zm53.471 0h1.92c.967 0 1.673.148 2.121.444.448.295.672.793.672 1.496 0 .662-.195 1.143-.584 1.443-.385.3-1.002.451-1.848.451h-2.28v-3.834zm-159.463.034c.631.134 1.139.39 1.524.765.389.376.584.837.584 1.383 0 1.218-.702 1.826-2.108 1.826-.69 0-1.219-.159-1.586-.476-.362-.318-.543-.767-.543-1.344 0-.564.195-1.03.584-1.397.39-.367.905-.619 1.545-.757zM39.113 70.17h.854v1.562c-.533.784-1.258 1.176-2.176 1.176-.336 0-.616-.107-.84-.322-.224-.215-.336-.518-.336-.912 0-.22.02-.403.06-.551a1.067 1.067 0 0 1 .667-.719c.188-.076.428-.135.719-.176.29-.04.64-.058 1.052-.058zm24.56 1.986c-.263 0-.467.073-.61.22a.737.737 0 0 0-.215.532c0 .202.071.38.215.531.143.148.347.221.61.221.265 0 .466-.073.604-.22a.752.752 0 0 0 .215-.532.737.737 0 0 0-.215-.531c-.138-.148-.34-.22-.603-.22zm-21.142 2.377v.799h6.016v-.799H42.53zM20 138v1h216v-1H20zm42.7 13.207a9.754 9.754 0 0 0-1.282 2.691c-.3.98-.451 2.007-.451 3.077 0 1.181.152 2.311.457 3.39.309 1.074.738 1.993 1.289 2.758h1.033c-1.128-1.772-1.691-3.83-1.691-6.176 0-2.09.567-4.003 1.699-5.74h-1.055zm22.216 0c.613.976 1.049 1.916 1.309 2.82.26.904.39 1.868.39 2.893a13.03 13.03 0 0 1-.424 3.31 9.665 9.665 0 0 1-1.27 2.893h1.042c.537-.739.96-1.657 1.27-2.758.313-1.105.468-2.25.468-3.431 0-2.122-.576-4.03-1.73-5.727h-1.055zm-36.35.443c-.716 0-1.324.212-1.826.637-.501.42-.875 1.008-1.12 1.76-.243.747-.362 1.636-.362 2.666 0 .743.063 1.418.193 2.027a5.79 5.79 0 0 0 .592 1.598 2.92 2.92 0 0 0 1.033 1.066c.43.25.926.377 1.49.377.56 0 1.05-.126 1.471-.377a2.76 2.76 0 0 0 1.014-1.074 5.64 5.64 0 0 0 .57-1.598c.125-.604.19-1.276.19-2.02 0-.774-.07-1.468-.204-2.081-.134-.618-.333-1.149-.597-1.592a2.726 2.726 0 0 0-1.014-1.027c-.412-.242-.888-.362-1.43-.362zm31.582 0c-.716 0-1.324.212-1.826.637-.501.42-.875 1.008-1.12 1.76-.243.747-.362 1.636-.362 2.666 0 .743.063 1.418.193 2.027a5.79 5.79 0 0 0 .592 1.598 2.92 2.92 0 0 0 1.033 1.066c.43.25.926.377 1.49.377.56 0 1.05-.126 1.471-.377a2.76 2.76 0 0 0 1.014-1.074 5.64 5.64 0 0 0 .57-1.598c.125-.604.19-1.276.19-2.02 0-.774-.07-1.468-.204-2.081-.134-.618-.333-1.149-.597-1.592a2.726 2.726 0 0 0-1.014-1.027c-.412-.242-.888-.362-1.43-.362zm82.323 0c-.716 0-1.325.212-1.826.637-.502.42-.877 1.008-1.124 1.76-.241.747-.36 1.636-.36 2.666 0 .743.065 1.418.194 2.027.135.604.33 1.137.59 1.598a2.92 2.92 0 0 0 1.034 1.066c.43.25.928.377 1.492.377.56 0 1.048-.126 1.468-.377a2.76 2.76 0 0 0 1.014-1.074c.255-.461.447-.993.572-1.598a9.968 9.968 0 0 0 .188-2.02 9.78 9.78 0 0 0-.201-2.081c-.135-.618-.334-1.149-.598-1.592a2.725 2.725 0 0 0-1.014-1.027c-.411-.242-.888-.362-1.43-.362zm45.384 0c-.716 0-1.324.212-1.826.637-.501.42-.875 1.008-1.12 1.76-.242.747-.364 1.636-.364 2.666 0 .743.065 1.418.195 2.027.135.604.332 1.137.592 1.598a2.92 2.92 0 0 0 1.033 1.066c.43.25.926.377 1.49.377.56 0 1.05-.126 1.471-.377a2.76 2.76 0 0 0 1.014-1.074 5.64 5.64 0 0 0 .57-1.598 9.969 9.969 0 0 0 .188-2.02 9.72 9.72 0 0 0-.202-2.081c-.134-.618-.333-1.149-.597-1.592a2.725 2.725 0 0 0-1.014-1.027c-.412-.242-.888-.362-1.43-.362zm-139.421.133c-.233.161-.582.325-1.047.49-.461.162-.86.277-1.196.344v.885c.3-.04.663-.128 1.088-.262.43-.134.785-.279 1.067-.435v7.976h-2.364v.805h5.586v-.805h-2.107v-8.998h-1.027zm102.287 0v9.803h3.652c1.132 0 1.986-.243 2.559-.73.577-.493.865-1.172.865-2.036 0-.622-.17-1.134-.51-1.537-.336-.407-.815-.702-1.437-.88.568-.22.97-.508 1.203-.866.237-.363.355-.812.355-1.35 0-.819-.296-1.423-.887-1.812-.586-.394-1.493-.592-2.724-.592h-3.076zm12.623 0l-4.09 9.803h.967l4.115-9.803h-.992zm15.601 0l-4.088 9.803h.967l4.115-9.803h-.994zm17.162 0v9.803h3.653c1.132 0 1.983-.243 2.556-.73.578-.493.868-1.172.868-2.036 0-.622-.17-1.134-.51-1.537-.336-.407-.816-.702-1.438-.88.569-.22.969-.508 1.201-.866.238-.363.356-.812.356-1.35 0-.819-.294-1.423-.885-1.812-.586-.394-1.495-.592-2.726-.592h-3.075zm12.622 0l-4.088 9.803h.966l4.116-9.803h-.994zm-180.163.774c1.424 0 2.135 1.371 2.135 4.115 0 1.383-.185 2.43-.556 3.142-.367.708-.894 1.06-1.579 1.06-.693 0-1.235-.356-1.625-1.067-.385-.717-.576-1.76-.576-3.13-.004-1.31.19-2.324.584-3.04.394-.721.933-1.08 1.617-1.08zm31.582 0c1.424 0 2.135 1.371 2.135 4.115 0 1.383-.185 2.43-.556 3.142-.367.708-.894 1.06-1.579 1.06-.693 0-1.235-.356-1.625-1.067-.384-.717-.576-1.76-.576-3.13-.004-1.31.19-2.324.584-3.04.394-.721.933-1.08 1.617-1.08zm82.323 0c1.423 0 2.134 1.371 2.134 4.115 0 1.383-.187 2.43-.558 3.142-.367.708-.891 1.06-1.576 1.06-.694 0-1.236-.356-1.625-1.067-.385-.717-.578-1.76-.578-3.13-.004-1.31.19-2.324.584-3.04.393-.721.934-1.08 1.619-1.08zm45.384 0c1.424 0 2.135 1.371 2.135 4.115 0 1.383-.185 2.43-.556 3.142-.367.708-.894 1.06-1.579 1.06-.693 0-1.235-.356-1.625-1.067-.384-.717-.576-1.76-.576-3.13-.004-1.31.19-2.324.584-3.04.394-.721.933-1.08 1.617-1.08zm-35.953.113h1.887c.882 0 1.517.118 1.906.355.39.238.584.672.584 1.303 0 .627-.179 1.066-.537 1.316-.358.247-.88.37-1.57.37h-2.27v-3.344zm45.387 0h1.887c.882 0 1.517.118 1.906.355.39.238.584.672.584 1.303 0 .627-.179 1.066-.537 1.316-.358.247-.881.37-1.57.37h-2.27v-3.344zm-187.81 1.666c-.95 0-1.804.176-2.565.53l.303.82a4.796 4.796 0 0 1 1.115-.364c.416-.09.805-.135 1.168-.135.537 0 .928.128 1.174.383.25.255.377.643.377 1.162v.698h-1.135c-1.141 0-1.974.182-2.498.545-.52.358-.78.921-.78 1.691 0 .644.199 1.15.592 1.512.399.362.925.543 1.579.543.975 0 1.768-.374 2.377-1.121l.119.98h.847v-4.687c0-.905-.233-1.555-.699-1.954-.46-.402-1.12-.603-1.974-.603zm7.673 0c-.908 0-1.637.398-2.187 1.195l-.127-1.049h-.9v7.104h1.115v-4.33c.094-.622.3-1.122.617-1.498.322-.38.757-.57 1.303-.57.496 0 .836.187 1.02.558.183.367.275.983.275 1.852v3.988h1.115v-3.645c.013-.617.038-.988.074-1.109.12-.533.348-.939.684-1.22a1.737 1.737 0 0 1 1.148-.425c.193 0 .36.03.504.088a.73.73 0 0 1 .35.256c.09.117.16.235.214.356.054.116.091.27.114.463a8.058 8.058 0 0 1 .053 1.008v4.228h1.115v-4.578c0-1.782-.726-2.672-2.176-2.672-1.03 0-1.81.48-2.342 1.443-.166-.452-.4-.805-.705-1.06-.304-.255-.727-.383-1.264-.383zm150.944 0c-.743 0-1.319.179-1.73.537-.413.354-.62.82-.62 1.396 0 .466.12.846.358 1.141.237.291.674.54 1.314.746l.78.248c.514.166.87.342 1.068.53a.928.928 0 0 1 .295.699c0 .403-.119.71-.356.926-.237.21-.572.316-1.002.316-.685 0-1.452-.204-2.303-.611v.933a5.13 5.13 0 0 0 2.223.524c.336 0 .646-.04.928-.121.286-.081.54-.203.763-.364.229-.16.408-.376.538-.644a2.16 2.16 0 0 0 .195-.94c0-.286-.027-.527-.08-.724a1.49 1.49 0 0 0-.295-.565 1.835 1.835 0 0 0-.598-.457 5.78 5.78 0 0 0-.974-.388l-.705-.221c-.462-.148-.764-.286-.907-.416-.143-.13-.215-.342-.215-.633 0-.345.111-.606.33-.785.224-.184.593-.276 1.108-.276.577 0 1.175.158 1.793.471l.262-.826a4.84 4.84 0 0 0-2.17-.496zm45.386 0c-.743 0-1.32.179-1.732.537-.412.354-.617.82-.617 1.396 0 .466.118.846.355 1.141.237.291.677.54 1.317.746l.779.248c.515.166.87.342 1.066.53a.928.928 0 0 1 .295.699c0 .403-.118.71-.355.926-.237.21-.57.316-1 .316-.685 0-1.452-.204-2.303-.611v.933a5.13 5.13 0 0 0 2.223.524c.335 0 .644-.04.926-.121a2.42 2.42 0 0 0 .765-.364 1.65 1.65 0 0 0 .537-.644 2.16 2.16 0 0 0 .196-.94c0-.286-.029-.527-.082-.724a1.49 1.49 0 0 0-.295-.565 1.835 1.835 0 0 0-.598-.457 5.752 5.752 0 0 0-.973-.388l-.705-.221c-.46-.148-.763-.286-.906-.416-.143-.13-.215-.342-.215-.633 0-.345.109-.606.328-.785.224-.184.593-.276 1.108-.276.577 0 1.175.158 1.793.471l.261-.826a4.832 4.832 0 0 0-2.168-.496zm-208.26.074a2.3 2.3 0 0 0-1.228.361c-.385.238-.712.611-.98 1.121l-.121-1.41H22v7.104h1.115v-4.022c0-.63.196-1.165.59-1.603.398-.439.903-.658 1.512-.658.125 0 .276.017.455.052l.047-.912a3.009 3.009 0 0 0-.496-.033zm49.06.072c-.265 0-.469.077-.612.229a.727.727 0 0 0-.215.523c0 .206.072.385.215.537.143.148.347.223.611.223s.465-.075.604-.223a.758.758 0 0 0 .215-.537.727.727 0 0 0-.215-.523c-.139-.152-.34-.229-.604-.229zm97.62 2.371h1.92c.967 0 1.676.148 2.123.444.448.295.67.793.67 1.496 0 .662-.194 1.143-.584 1.443-.385.3-1 .451-1.845.451h-2.284v-3.834zm45.387 0h1.92c.967 0 1.673.148 2.121.444.448.295.672.793.672 1.496 0 .662-.195 1.143-.584 1.443-.385.3-1.002.451-1.848.451h-2.28v-3.834zM30.197 158.17h.854v1.562c-.533.784-1.258 1.176-2.176 1.176-.336 0-.616-.107-.84-.322-.224-.215-.336-.518-.336-.912 0-.22.02-.403.06-.551a1.067 1.067 0 0 1 .667-.719c.188-.076.428-.135.719-.176.29-.04.64-.058 1.052-.058zm44.084 1.986c-.264 0-.468.073-.611.22a.737.737 0 0 0-.215.532c0 .202.072.38.215.531.143.148.347.221.611.221s.465-.073.604-.22a.752.752 0 0 0 .215-.532.737.737 0 0 0-.215-.531c-.139-.148-.34-.22-.604-.22zm-21.142 2.377v.799h6.015v-.799H53.14zM20 226v1h216v-1H20z" id="rect7886" fill="currentColor" fill-opacity="1" stroke="none"/><path d="M20 138V86c38.217-8.023 50 45 85 45 20 0 20-30 35-30s30 20 50 20 30 17 46 17z" id="path5466" fill="#3b85b5" fill-opacity="1" fill-rule="evenodd" stroke="none" stroke-width="1" stroke-linecap="butt" stroke-linejoin="miter" stroke-opacity="1"/><path d="M20 226v-55c17.082 0 30 .26 40.1.155C75 171 89.66 201 100 201c20 0 25 25 40 25 4.4 0 10 0 15.26-.49 8.949-.833 7.072-19.51 24.74-19.51 25 0 30 20 55 20h1z" id="path5466-9" fill="#3b85b5" fill-opacity="1" fill-rule="evenodd" stroke="none" stroke-width="1" stroke-linecap="butt" stroke-linejoin="miter" stroke-opacity="1"/><path d="M20 226c13 0 31 0 50.934-.03C81.537 225.954 93.084 216 105 216c20 0 20-25 35-25s30 35 50 35h46z" id="path5466-4" opacity=".8" fill="#3bb566" fill-opacity="1" fill-rule="evenodd" stroke="none" stroke-width="1" stroke-linecap="butt" stroke-linejoin="miter" stroke-opacity="1"/><g transform="translate(-244.224 -247.468) scale(.69565)" id="layer1-1"><rect ry="0" y="497.798" x="385.571" height="52" width="46" id="rect4139" opacity="1" fill="url(#linearGradient4158)" fill-opacity="1" stroke="none"/><path id="path4795" d="M387.571 543.798l6 6h38v-48l-2-2v44z" opacity=".2" fill="url(#linearGradient4881)" fill-opacity="1" fill-rule="evenodd" stroke="none" stroke-width="1" stroke-linecap="butt" stroke-linejoin="miter" stroke-opacity="1"/><path id="rect4492" opacity="1" fill="#737b81" fill-opacity="1" stroke="none" stroke-width="2.8" stroke-miterlimit="4" stroke-dasharray="none" stroke-opacity=".55" d="M385.571 548.798h46v1h-46z"/><path id="rect4671" opacity="1" fill="#292c2e" fill-opacity="1" stroke="none" stroke-width=".1" stroke-miterlimit="4" stroke-dasharray="none" stroke-opacity="1" d="M393.571 545.798h30v4h-30z"/><rect id="rect4963" width="15.6" height="15.6" x="400.772" y="506.898" ry="7.8" opacity="1" fill="#abb9be" fill-opacity="1" stroke="none" stroke-width=".1" stroke-miterlimit="4" stroke-dasharray="none" stroke-opacity="1"/><path transform="translate(376.571 491.798)" id="path4648" d="M11 8v44h42V8H11z" fill="url(#linearGradient4659)" fill-opacity="1" fill-rule="evenodd" stroke="none" stroke-width="1" stroke-linecap="butt" stroke-linejoin="miter" stroke-opacity="1"/><path id="rect4985" opacity="1" fill="#fdbc4a" fill-opacity="1" stroke="none" stroke-width=".1" stroke-miterlimit="4" stroke-dasharray="none" stroke-opacity="1" d="M390.571 532.798h12v5h-12z"/><path id="rect5119" opacity="1" fill="#fff" fill-opacity="1" stroke="none" stroke-width=".1" stroke-miterlimit="4" stroke-dasharray="none" stroke-opacity="1" d="M391.571 533.798h10v1h-10z"/><path id="rect5121" opacity="1" fill="#fff" fill-opacity="1" stroke="none" stroke-width=".1" stroke-miterlimit="4" stroke-dasharray="none" stroke-opacity="1" d="M391.571 535.798h8v1h-8z"/><path id="rect4194" opacity="1" fill="#202324" fill-opacity="1" stroke="none" stroke-opacity="1" d="M393.571 548.798h30v1h-30z"/><rect ry="0" y="546.798" x="395.572" height="1" width="2" id="rect4544" opacity="1" fill="#f9cf8d" fill-opacity="1" stroke="none" stroke-opacity="1"/><rect ry="0" y="547.798" x="395.572" height="1" width="2" id="rect4546" opacity="1" fill="#f6b44d" fill-opacity="1" stroke="none" stroke-opacity="1"/><rect ry="0" y="546.798" x="419.572" height="1" width="2" id="rect4544-0" opacity="1" fill="#f9cf8d" fill-opacity="1" stroke="none" stroke-opacity="1"/><rect ry="0" y="547.798" x="419.572" height="1" width="2" id="rect4546-7" opacity="1" fill="#f6b44d" fill-opacity="1" stroke="none" stroke-opacity="1"/><rect ry="0" y="546.798" x="398.572" height="1" width="2" id="rect4544-6" opacity="1" fill="#f9cf8d" fill-opacity="1" stroke="none" stroke-opacity="1"/><rect ry="0" y="547.798" x="398.572" height="1" width="2" id="rect4546-5" opacity="1" fill="#f6b44d" fill-opacity="1" stroke="none" stroke-opacity="1"/><rect ry="0" y="546.798" x="401.572" height="1" width="2" id="rect4544-1" opacity="1" fill="#f9cf8d" fill-opacity="1" stroke="none" stroke-opacity="1"/><rect ry="0" y="547.798" x="401.572" height="1" width="2" id="rect4546-3" opacity="1" fill="#f6b44d" fill-opacity="1" stroke="none" stroke-opacity="1"/><rect ry="0" y="546.798" x="407.571" height="1" width="2" id="rect4544-06" opacity="1" fill="#f9cf8d" fill-opacity="1" stroke="none" stroke-opacity="1"/><rect ry="0" y="547.798" x="407.571" height="1" width="2" id="rect4546-6" opacity="1" fill="#f6b44d" fill-opacity="1" stroke="none" stroke-opacity="1"/><rect ry="0" y="546.798" x="416.572" height="1" width="2" id="rect4544-9" opacity="1" fill="#f9cf8d" fill-opacity="1" stroke="none" stroke-opacity="1"/><rect ry="0" y="547.798" x="416.572" height="1" width="2" id="rect4546-0" opacity="1" fill="#f6b44d" fill-opacity="1" stroke="none" stroke-opacity="1"/><rect ry="0" y="546.798" x="413.572" height="1" width="2" id="rect4544-8" opacity="1" fill="#f9cf8d" fill-opacity="1" stroke="none" stroke-opacity="1"/><rect ry="0" y="547.798" x="413.572" height="1" width="2" id="rect4546-55" opacity="1" fill="#f6b44d" fill-opacity="1" stroke="none" stroke-opacity="1"/><rect ry="0" y="546.798" x="410.572" height="1" width="2" id="rect4544-8-8" opacity="1" fill="#f9cf8d" fill-opacity="1" stroke="none" stroke-opacity="1"/><rect ry="0" y="547.798" x="410.572" height="1" width="2" id="rect4546-55-5" opacity="1" fill="#f6b44d" fill-opacity="1" stroke="none" stroke-opacity="1"/><rect ry="0" y="546.798" x="404.572" height="1" width="2" id="rect4544-8-89" opacity="1" fill="#f9cf8d" fill-opacity="1" stroke="none" stroke-opacity="1"/><rect ry="0" y="547.798" x="404.572" height="1" width="2" id="rect4546-55-7" opacity="1" fill="#f6b44d" fill-opacity="1" stroke="none" stroke-opacity="1"/><path id="rect4979" class="ColorScheme-Text" color="#f2f2f2" opacity="1" fill="currentColor" fill-opacity="1" stroke="none" stroke-width=".1" stroke-miterlimit="4" stroke-dasharray="none" stroke-opacity="1" d="M414.571 532.798h13v1h-13z"/><path id="rect4981" class="ColorScheme-Text" color="#f2f2f2" opacity="1" fill="currentColor" fill-opacity="1" stroke="none" stroke-width=".1" stroke-miterlimit="4" stroke-dasharray="none" stroke-opacity="1" d="M414.571 534.798h13v1h-13z"/><path id="rect4983" class="ColorScheme-Text" color="#f2f2f2" opacity="1" fill="currentColor" fill-opacity="1" stroke="none" stroke-width=".1" stroke-miterlimit="4" stroke-dasharray="none" stroke-opacity="1" d="M414.571 536.798h13v1h-13z"/><path transform="translate(376.571 491.798)" id="rect4200" d="M18.707 14.293l-1.414 1.414 8 8L25 24l30 30V44L30 19l-3.293 3.293-8-8zm-2.146 6.146l-2.122 2.122 5.5 5.5-1.353 1.353L47.17 58h6.953L16.561 20.44z" opacity=".2" fill="url(#linearGradient4231)" fill-opacity="1" stroke="none" stroke-opacity="1"/><g id="layer1-7" transform="translate(387.571 -527.564)" fill="url(#linearGradient4793)" fill-opacity="1"><path d="M7 3c-.554 0-1 .446-1 1s.446 1 1 1 1-.446 1-1-.446-1-1-1zm7 0l-2 2 3 3-3 3 2 2 3-3 2-2-5-5zM4.5 9C3.669 9 3 9.669 3 10.5S3.669 12 4.5 12 6 11.331 6 10.5 5.331 9 4.5 9zM9 15c-1.108 0-2 .892-2 2s.892 2 2 2 2-.892 2-2-.892-2-2-2z" transform="translate(0 1030.362)" id="rect4231" opacity="1" fill="url(#linearGradient4403)" fill-opacity="1" stroke="none"/></g></g><g transform="translate(-298.165 -238.4) scale(.8421)" id="layer1-5" fill-opacity="1" stroke="none"><path id="rect4283-0" d="M382.571 504.798v16h52v-16z" opacity="1" fill="url(#linearGradient4291-1)"/><path id="path4257" d="M422.571 507.798l-6 8 5 5h13v-1l-12-12z" opacity=".2" fill="url(#linearGradient4259)" fill-rule="evenodd" stroke-width="1" stroke-linecap="butt" stroke-linejoin="miter" stroke-opacity="1"/><path id="path4261" d="M430.571 507.798l-6 8 5 5h5v-9l-4-4z" opacity=".2" fill="url(#linearGradient4263)" fill-rule="evenodd" stroke-width="1" stroke-linecap="butt" stroke-linejoin="miter" stroke-opacity="1"/><path id="path4181" d="M408.571 515.798l6-8 13 13h-15 1z" opacity=".2" fill="url(#linearGradient4184)" fill-rule="evenodd" stroke-width="1" stroke-linecap="butt" stroke-linejoin="miter" stroke-opacity="1"/><path id="rect4293-1" opacity="1" fill="#dce269" d="M382.571 519.798h52v1h-52z"/><path id="rect4175" opacity="1" fill="url(#linearGradient4183)" d="M424.571 507.798h6v8h-6z"/><path id="rect4193" d="M431.571 507.798v1h1v-1h-1zm1 1v1h1v-1h-1zm0 1h-1v1h1v-1zm0 1v1h1v-1h-1zm0 1h-1v1h1v-1zm0 1v1h1v-1h-1zm0 1h-1v1h1v-1zm0 1v1h1v-1h-1zm0 1h-1v1h1v-1zm0 1v1h1v-1h-1zm-1 0h-1v1h1v-1zm-1 1h-1v1h1v-1zm-1 0v-1h-1v1h1zm-1 0h-1v1h1v-1zm-1 0v-1h-1v1h1z" opacity=".6" fill="#dee372"/><path id="rect4277" opacity="1" fill="url(#linearGradient4455)" d="M385.571 508.798h19v7h-19z"/><path id="rect4279" opacity="1" fill="url(#linearGradient4281)" d="M416.571 507.798h6v8h-6z"/><path id="rect4322" opacity="1" fill="url(#linearGradient4324)" d="M408.571 507.798h6v8h-6z"/><path id="rect4457" opacity="1" fill="#f55" d="M386.571 509.798h8v1h-8z"/><path id="rect4459" opacity="1" fill="#35383b" d="M386.571 511.798h3v1h-3z"/><path id="rect4461" opacity="1" fill="#35383b" d="M390.571 511.798h4v1h-4z"/><path id="rect4463" d="M390.571 513.798v1h-1v1h10v-1h-1v-1h-1v1h-2v-1h-1v1h-1v-1h-1v1h-1v-1h-1z" opacity="1" fill="#35383b"/><path d="M382.571 526.798v16h52v-16z" id="path4275" opacity="1" fill="url(#linearGradient4304)"/><path d="M422.571 529.798l-6 8 5 5h13v-1l-12-12z" id="path4277" opacity=".2" fill="url(#linearGradient4306)" fill-rule="evenodd" stroke-width="1" stroke-linecap="butt" stroke-linejoin="miter" stroke-opacity="1"/><path d="M430.571 529.798l-6 8 5 5h5v-9l-4-4z" id="path4279" opacity=".2" fill="url(#linearGradient4308)" fill-rule="evenodd" stroke-width="1" stroke-linecap="butt" stroke-linejoin="miter" stroke-opacity="1"/><path d="M408.571 537.798l6-8 13 13h-15 1z" id="path4281" opacity=".2" fill="url(#linearGradient4310)" fill-rule="evenodd" stroke-width="1" stroke-linecap="butt" stroke-linejoin="miter" stroke-opacity="1"/><path id="rect4284" opacity="1" fill="#dce269" d="M382.571 541.798h52v1h-52z"/><path id="rect4286" opacity="1" fill="url(#linearGradient4312)" d="M424.571 529.798h6v8h-6z"/><path d="M431.571 529.798v1h1v-1h-1zm1 1v1h1v-1h-1zm0 1h-1v1h1v-1zm0 1v1h1v-1h-1zm0 1h-1v1h1v-1zm0 1v1h1v-1h-1zm0 1h-1v1h1v-1zm0 1v1h1v-1h-1zm0 1h-1v1h1v-1zm0 1v1h1v-1h-1zm-1 0h-1v1h1v-1zm-1 1h-1v1h1v-1zm-1 0v-1h-1v1h1zm-1 0h-1v1h1v-1zm-1 0v-1h-1v1h1z" id="path4288" opacity=".6" fill="#dee372"/><path id="rect4290" opacity="1" fill="url(#linearGradient4314)" d="M385.571 530.798h19v7h-19z"/><path id="rect4292" opacity="1" fill="url(#linearGradient4316)" d="M416.571 529.798h6v8h-6z"/><path id="rect4294" opacity="1" fill="url(#linearGradient4318)" d="M408.571 529.798h6v8h-6z"/><path id="rect4296" opacity="1" fill="#f55" d="M386.571 531.798h8v1h-8z"/><path id="rect4298" opacity="1" fill="#35383b" d="M386.571 533.798h3v1h-3z"/><path id="rect4300" opacity="1" fill="#35383b" d="M390.571 533.798h4v1h-4z"/><path d="M390.571 535.798v1h-1v1h10v-1h-1v-1h-1v1h-2v-1h-1v1h-1v-1h-1v1h-1v-1h-1z" id="path4302" opacity="1" fill="#35383b"/></g><path d="M20 138v-3c17.082 0 31.01.977 41.11.872C76.01 135.717 89.66 113 100 113c20 0 25 25 40 25 4.4 0 10 0 15.26-.49 8.949-.833 22.433-11.304 40.102-11.304 25 0 15.638 6.794 40.638 6.794v5z" id="path5466-9-6" opacity=".8" fill="#3bb566" fill-opacity="1" fill-rule="evenodd" stroke="none" stroke-width="1" stroke-linecap="butt" stroke-linejoin="miter" stroke-opacity="1"/></svg>