<svg xmlns="http://www.w3.org/2000/svg" viewBox="0 0 256 256" width="273.067" height="273.067"><defs><style/></defs><path d="M16 10h224c3.324 0 6 2.676 6 6v224c0 3.324-2.676 6-6 6H16c-3.324 0-6-2.676-6-6V16c0-3.324 2.676-6 6-6z" color="#31363b" fill="currentColor" fill-opacity=".5"/><path d="M16 12h224c2.216 0 4 1.784 4 4v224c0 2.216-1.784 4-4 4H16c-2.216 0-4-1.784-4-4V16c0-2.216 1.784-4 4-4z" color="#31363b" fill="currentColor"/><path d="M20 50v1h216v-1zm24.861 13.65c-.716 0-1.325.212-1.826.637-.501.42-.875 1.008-1.12 1.76-.243.747-.364 1.636-.364 2.666 0 .743.065 1.418.195 2.027.134.604.33 1.137.59 1.598.264.456.61.811 1.035 1.066.43.25.926.377 1.49.377.56 0 1.05-.126 1.471-.377a2.76 2.76 0 0 0 1.014-1.074 5.64 5.64 0 0 0 .57-1.598 9.968 9.968 0 0 0 .188-2.02 9.78 9.78 0 0 0-.202-2.081c-.134-.618-.333-1.149-.597-1.592a2.726 2.726 0 0 0-1.014-1.027c-.412-.242-.888-.362-1.43-.362zm103.645 0c-.716 0-1.325.212-1.826.637-.502.42-.877 1.008-1.123 1.76-.242.747-.362 1.636-.362 2.666 0 .743.066 1.418.196 2.027.134.604.33 1.137.59 1.598a2.92 2.92 0 0 0 1.033 1.066c.43.25.928.377 1.492.377.56 0 1.048-.126 1.469-.377a2.76 2.76 0 0 0 1.013-1.074c.255-.461.447-.993.573-1.598a9.969 9.969 0 0 0 .187-2.02 9.78 9.78 0 0 0-.201-2.081c-.134-.618-.334-1.149-.598-1.592a2.726 2.726 0 0 0-1.013-1.027c-.412-.242-.889-.362-1.43-.362zm52.367 0c-.716 0-1.325.212-1.826.637-.501.42-.875 1.008-1.121 1.76-.242.747-.364 1.636-.364 2.666 0 .743.066 1.418.196 2.027a5.79 5.79 0 0 0 .592 1.598 2.92 2.92 0 0 0 1.033 1.066c.43.25.926.377 1.49.377.56 0 1.05-.126 1.47-.377a2.76 2.76 0 0 0 1.014-1.074 5.61 5.61 0 0 0 .57-1.598 9.968 9.968 0 0 0 .188-2.02 9.78 9.78 0 0 0-.2-2.081c-.135-.618-.335-1.149-.599-1.592a2.726 2.726 0 0 0-1.013-1.027c-.412-.242-.888-.362-1.43-.362zm-165.674.053l-1.113.08v9.803h1.107v-3.887c0-.264.017-.51.053-.738.04-.228.11-.454.21-.678.098-.224.225-.415.382-.572a1.64 1.64 0 0 1 .611-.383c.255-.098.548-.146.88-.146.532 0 .91.168 1.134.503.228.332.342.849.342 1.551v4.35h1.115v-4.39c0-.914-.207-1.62-.62-2.116-.411-.497-1.002-.744-1.777-.744-.505 0-.963.098-1.37.295a2.537 2.537 0 0 0-.993.84l.04-1.391v-2.377zm122.496 0l-1.1.08v9.803h1.1v-2.598l.766-.724 2.82 3.322h1.309l-3.356-3.86 3.102-3.244h-1.35l-3.33 3.606.04-1.463v-4.922zm52.37 0l-1.102.08v9.803h1.101v-2.598l.766-.724 2.82 3.322h1.309l-3.357-3.86 3.101-3.244h-1.35l-3.33 3.606.041-1.463v-4.922zm-46.327.08v9.803h3.653c1.132 0 1.985-.243 2.558-.73.578-.493.865-1.172.865-2.036 0-.622-.17-1.134-.51-1.537-.335-.407-.815-.702-1.437-.88.569-.22.97-.508 1.203-.866.238-.363.356-.812.356-1.35 0-.819-.296-1.423-.887-1.812-.586-.394-1.494-.592-2.725-.592zm12.623 0l-4.09 9.803h.967l4.116-9.803zm15.602 0l-4.088 9.803h.967l4.115-9.803zm24.144 0v9.803h3.653c1.132 0 1.983-.243 2.556-.73.578-.493.868-1.172.868-2.036 0-.622-.17-1.134-.51-1.537-.336-.407-.816-.702-1.438-.88.569-.22.969-.508 1.201-.866.238-.363.356-.812.356-1.35 0-.819-.294-1.423-.885-1.812-.586-.394-1.495-.592-2.726-.592zm12.622 0l-4.088 9.803h.966l4.116-9.803zm-198.055.752l-.893.068-.181 1.88-1.094.074-.027.63h1.095v4.272c0 .434.037.784.114 1.053.076.268.213.491.41.666a1.7 1.7 0 0 0 .777.361c.318.067.735.102 1.25.102h.463l.053-.766-.563-.027c-.595-.023-.978-.116-1.148-.282-.17-.17-.256-.539-.256-1.107v-4.272h1.88v-.705h-1.88v-1.947zm14.187.022c1.424 0 2.135 1.371 2.135 4.115 0 1.383-.185 2.43-.557 3.142-.367.708-.893 1.06-1.578 1.06-.693 0-1.235-.356-1.625-1.067-.385-.717-.578-1.76-.578-3.13-.004-1.31.19-2.324.584-3.04.394-.721.935-1.08 1.62-1.08zm103.645 0c1.423 0 2.135 1.371 2.135 4.115 0 1.383-.187 2.43-.559 3.142-.367.708-.891 1.06-1.576 1.06-.694 0-1.236-.356-1.625-1.067-.385-.717-.578-1.76-.578-3.13-.004-1.31.19-2.324.584-3.04.394-.721.934-1.08 1.619-1.08zm52.367 0c1.423 0 2.135 1.371 2.135 4.115 0 1.383-.185 2.43-.557 3.142-.367.708-.893 1.06-1.578 1.06-.694 0-1.236-.356-1.625-1.067-.385-.717-.576-1.76-.576-3.13-.004-1.31.19-2.324.584-3.04.394-.721.932-1.08 1.617-1.08zm-35.953.113h1.887c.881 0 1.516.118 1.906.355.39.238.584.672.584 1.303 0 .627-.18 1.066-.537 1.316-.358.247-.881.37-1.57.37h-2.27zm52.37 0h1.886c.882 0 1.517.118 1.906.355.39.238.584.672.584 1.303 0 .627-.179 1.066-.537 1.316-.358.247-.881.37-1.57.37h-2.27zM24.872 66.336c-.94 0-1.713.338-2.322 1.014-.609.675-.914 1.581-.914 2.718 0 1.124.311 2.014.933 2.672.622.654 1.434.98 2.432.98.895 0 1.694-.208 2.396-.624l-.236-.786a6.83 6.83 0 0 1-1.02.424c-.304.094-.642.14-1.013.14-.685 0-1.24-.217-1.666-.651-.425-.44-.656-1.11-.692-2.014h4.801l.041-.565c0-1.038-.235-1.847-.705-2.43-.465-.586-1.144-.878-2.035-.878zm156.24 0c-.743 0-1.318.179-1.73.537-.412.354-.62.82-.62 1.396 0 .466.12.846.358 1.141.237.291.674.54 1.315.746l.779.248c.515.166.871.342 1.068.53a.928.928 0 0 1 .295.699c0 .403-.118.71-.355.926-.238.21-.573.316-1.002.316-.685 0-1.453-.204-2.303-.611v.933a5.13 5.13 0 0 0 2.223.524c.335 0 .645-.04.927-.121.287-.081.54-.203.764-.364a1.65 1.65 0 0 0 .537-.644 2.16 2.16 0 0 0 .195-.94 2.78 2.78 0 0 0-.08-.724 1.49 1.49 0 0 0-.295-.565 1.835 1.835 0 0 0-.597-.457 5.781 5.781 0 0 0-.975-.388l-.705-.221c-.46-.148-.763-.286-.906-.416-.143-.13-.215-.342-.215-.633 0-.345.11-.606.33-.785.224-.184.593-.276 1.107-.276.578 0 1.176.158 1.793.471l.262-.826a4.84 4.84 0 0 0-2.17-.496zm52.37 0c-.744 0-1.321.179-1.733.537-.412.354-.617.82-.617 1.396 0 .466.118.846.355 1.141.238.291.677.54 1.317.746l.779.248c.515.166.87.342 1.066.53a.928.928 0 0 1 .295.699c0 .403-.118.71-.355.926-.237.21-.57.316-1 .316-.685 0-1.452-.204-2.303-.611v.933a5.13 5.13 0 0 0 2.223.524c.335 0 .644-.04.926-.121a2.42 2.42 0 0 0 .765-.364 1.65 1.65 0 0 0 .537-.644 2.16 2.16 0 0 0 .196-.94c0-.286-.029-.527-.082-.724a1.49 1.49 0 0 0-.295-.565 1.835 1.835 0 0 0-.598-.457 5.753 5.753 0 0 0-.973-.388l-.705-.221c-.46-.148-.763-.286-.906-.416-.143-.13-.215-.342-.215-.633 0-.345.109-.606.328-.785.224-.184.593-.276 1.108-.276.577 0 1.175.158 1.793.471l.261-.826a4.832 4.832 0 0 0-2.168-.496zM24.9 67.187c1.128 0 1.72.767 1.774 2.297h-3.867c.062-.707.28-1.266.656-1.677.38-.412.86-.62 1.437-.62zm140.02 1.666h1.92c.967 0 1.675.148 2.123.444.447.295.67.793.67 1.496 0 .662-.195 1.143-.584 1.443-.385.3-1 .451-1.846.451h-2.283zm52.37 0h1.919c.967 0 1.673.148 2.121.444.448.295.672.793.672 1.496 0 .662-.195 1.143-.584 1.443-.385.3-1.002.451-1.848.451h-2.28zM20 226v1h216v-1z" color="#f2f2f2" fill="currentColor"/><path d="M20 226V94.6C45.42 119.797 70 206 95 206c20 0 30-53 45-53s10-46.05 35-46.05S211 226 236 226z" fill="#3b85b5" fill-rule="evenodd"/><path d="M20 226s38.785-38.083 58.718-38.125c34.513-2.438 32.715-51.452 47.323-51.82 19.93-.046 23.701 58.415 66.312 81.483 6.597 3.783 14.719 1.317 25.504 3.981L236 226z" opacity=".8" fill="#39b500" fill-rule="evenodd"/><g stroke-width=".705"><g stroke-width=".73" fill-rule="evenodd" stroke-linecap="round" stroke-linejoin="bevel"><path d="M35.148 219.497v-29.73h-6.675v22.466c0 3.844 2.935 6.878 6.675 7.264z" fill="#b7b7b7"/><path d="M35.885 182.145a7.397 7.397 0 0 0-7.412 7.414v.207h6.675v29.73c.255.028.476.149.738.149h22.673a7.397 7.397 0 0 0 7.414-7.412V189.56a7.4 7.4 0 0 0-7.414-7.414z" fill="#419d45"/></g><g fill="#f8c44e"><path d="M41.395 213.306h3.169v6.338h-3.17zM46.148 213.306h3.17v6.338h-3.17zM50.902 213.306h3.17v6.338h-3.17zM55.656 213.306h3.17v6.338h-3.17z"/></g><g transform="translate(72.294 192.168) scale(1.32964)"><g fill="#b7b7b7"><path d="M-19.475.604h1.192v2.383h-1.192zM-15.9.604h1.192v2.383H-15.9zM-19.475 10.138h1.192v2.383h-1.192zM-15.9 10.138h1.192v2.383H-15.9zM-11.133 4.179V5.37h-2.383V4.179zM-11.133 7.754v1.192h-2.383V7.754zM-20.667 4.179V5.37h-2.383V4.179zM-20.667 7.754v1.192h-2.383V7.754z"/></g><rect ry="1.43" rx="1.43" y="2.987" x="-20.667" height="7.151" width="7.151" fill="#4e4e4e" stroke-width=".84"/></g></g><text style="line-height:1.25" x="18.932" y="43.144" font-weight="400" font-size="16.779" font-family="sans-serif" letter-spacing="0" word-spacing="0" stroke-width=".937"><tspan x="18.932" y="43.144" fill="#fff">Монитор сети</tspan></text></svg>