<svg xmlns="http://www.w3.org/2000/svg" xmlns:xlink="http://www.w3.org/1999/xlink" viewBox="0 0 256 256" id="svg2" version="1.1" width="273.067" height="273.067"><defs id="defs4"><linearGradient gradientUnits="userSpaceOnUse" y2="11" x2="24" y1="44" x1="24" id="linearGradient4205-8" xlink:href="#linearGradient4143"/><linearGradient id="linearGradient4143"><stop offset="0" id="stop4145" stop-color="#197cf1" stop-opacity="1"/><stop offset="1" id="stop4147" stop-color="#20bcfa" stop-opacity="1"/></linearGradient><linearGradient gradientTransform="matrix(1.125 0 0 1 -51.072 0)" gradientUnits="userSpaceOnUse" y2="513.798" x2="409.571" y1="543.798" x1="409.571" id="linearGradient4158-98" xlink:href="#linearGradient4143"/><linearGradient gradientTransform="translate(-384.571 -499.798)" gradientUnits="userSpaceOnUse" y2="538.798" x2="416.572" y1="522.798" x1="400.571" id="linearGradient4232" xlink:href="#linearGradient4227-6-3"/><linearGradient id="linearGradient4227-6-3"><stop id="stop4229-7-5" offset="0" stop-color="#292c2f" stop-opacity="1"/><stop id="stop4231-53-6" offset="1" stop-color="#000" stop-opacity="0"/></linearGradient><linearGradient y2="10" x2="24" y1="14" x1="24" gradientUnits="userSpaceOnUse" id="linearGradient4174-7" xlink:href="#linearGradient4143"/><linearGradient gradientUnits="userSpaceOnUse" y2="14" x2="25" y1="10" x1="25" id="linearGradient4302-8" xlink:href="#linearGradient4159-7"/><linearGradient id="linearGradient4159-7"><stop offset="0" id="stop4161-4" stop-color="#1d1e1e" stop-opacity="1"/><stop offset="1" id="stop4163-9" stop-color="#44484c" stop-opacity="1"/></linearGradient><linearGradient gradientUnits="userSpaceOnUse" y2="503.798" x2="408.571" y1="516.798" x1="408.571" id="linearGradient4187-2" xlink:href="#linearGradient4143"/><linearGradient gradientUnits="userSpaceOnUse" y2="514.798" x2="400.571" y1="517.798" x1="400.571" id="linearGradient4290-26" xlink:href="#linearGradient4303-7-6"/><linearGradient id="linearGradient4303-7-6"><stop id="stop4305-0-1" offset="0" stop-color="#c6cdd1" stop-opacity="1"/><stop id="stop4307-6-6" offset="1" stop-color="#e0e5e7" stop-opacity="1"/></linearGradient><linearGradient gradientUnits="userSpaceOnUse" y2="15" x2="32" y1="18" x1="32" id="linearGradient4282-9" xlink:href="#linearGradient4303-7-6"/><linearGradient gradientUnits="userSpaceOnUse" y2="23" x2="24" y1="39" x1="24" id="linearGradient4222" xlink:href="#linearGradient4290"/><linearGradient id="linearGradient4290"><stop id="stop4292" offset="0" stop-color="#7cbaf8" stop-opacity="1"/><stop id="stop4294" offset="1" stop-color="#f4fcff" stop-opacity="1"/></linearGradient><linearGradient gradientTransform="matrix(1.125 0 0 1 -51.072 0)" gradientUnits="userSpaceOnUse" y2="503.798" x2="409.571" y1="543.798" x1="409.571" id="linearGradient4158-9" xlink:href="#linearGradient4159-7"/><linearGradient gradientUnits="userSpaceOnUse" y2="7" x2="35" y1="44" x1="35" id="linearGradient4555" xlink:href="#linearGradient4143"/><linearGradient gradientUnits="userSpaceOnUse" y2="18" x2="22" y1="4" x1="8" id="linearGradient4884" xlink:href="#linearGradient4227-6-3"/><linearGradient gradientUnits="userSpaceOnUse" y2="503.798" x2="396.571" y1="520.798" x1="396.571" id="linearGradient4866" xlink:href="#linearGradient4435"/><linearGradient id="linearGradient4435"><stop id="stop4437" offset="0" stop-color="#c61423" stop-opacity="1"/><stop id="stop4439" offset="1" stop-color="#dc2b41" stop-opacity="1"/></linearGradient><linearGradient gradientUnits="userSpaceOnUse" y2="504.798" x2="396.571" y1="527.798" x1="396.571" id="linearGradient5028" xlink:href="#linearGradient4448"/><linearGradient id="linearGradient4448"><stop id="stop4450" offset="0" stop-color="#fff" stop-opacity="0"/><stop id="stop4452" offset="1" stop-color="#fff" stop-opacity=".314"/></linearGradient><linearGradient xlink:href="#linearGradient4152-6-4" id="linearGradient10119" gradientUnits="userSpaceOnUse" gradientTransform="matrix(.45 0 0 .4 -66.797 369.654)" x1="409.571" y1="543.798" x2="409.571" y2="503.798"/><linearGradient id="linearGradient4152-6-4"><stop id="stop4154-5-0" offset="0" stop-color="#bd8d48" stop-opacity="1"/><stop id="stop4156-1-7" offset="1" stop-color="#e8b971" stop-opacity="1"/></linearGradient><linearGradient xlink:href="#linearGradient4303-6-2-4" id="linearGradient10121" gradientUnits="userSpaceOnUse" x1="409.571" y1="542.798" x2="409.571" y2="504.798" gradientTransform="matrix(.4 0 0 .4 -46.368 369.654)"/><linearGradient id="linearGradient4303-6-2-4"><stop id="stop4305-5-2-4" offset="0" stop-color="#977a5c" stop-opacity="1"/><stop id="stop4307-8-7-4" offset="1" stop-color="#9d8062" stop-opacity="1"/></linearGradient><linearGradient xlink:href="#linearGradient4273-8-6-5" id="linearGradient10115" gradientUnits="userSpaceOnUse" x1="408.571" y1="541.798" x2="408.571" y2="505.798" gradientTransform="matrix(.4 0 0 .4 -46.368 369.654)"/><linearGradient id="linearGradient4273-8-6-5"><stop id="stop4275-6-6-5" offset="0" stop-color="#e3dfd6" stop-opacity="1"/><stop id="stop4277-8-5" offset="1" stop-color="#f4f1e8" stop-opacity="1"/></linearGradient><linearGradient xlink:href="#linearGradient4410-0-0-1" id="linearGradient10117" gradientUnits="userSpaceOnUse" x1="414.571" y1="531.798" x2="426.571" y2="543.798" gradientTransform="matrix(.4 0 0 .4 -46.368 369.654)"/><linearGradient id="linearGradient4410-0-0-1"><stop id="stop4412-2-2" offset="0" stop-color="#383e51" stop-opacity="1"/><stop id="stop4414-5-4" offset="1" stop-color="#655c6f" stop-opacity="0"/></linearGradient><linearGradient xlink:href="#linearGradient6165-5-2" id="linearGradient10123" gradientUnits="userSpaceOnUse" x1="413.571" y1="528.798" x2="418.571" y2="533.798" gradientTransform="matrix(.4 0 0 .4 -46.368 369.654)"/><linearGradient id="linearGradient6165-5-2"><stop id="stop6167-5-3" offset="0" stop-color="#bdb49e" stop-opacity=".259"/><stop id="stop6169-3-6" offset="1" stop-color="#bdb49e" stop-opacity="0"/></linearGradient><linearGradient xlink:href="#linearGradient4303-7-6" id="linearGradient17051" gradientUnits="userSpaceOnUse" x1="409.571" y1="543.798" x2="409.571" y2="503.798" gradientTransform="matrix(.4 0 0 .4 -45.968 157.654)"/><linearGradient xlink:href="#linearGradient4227-6-3" id="linearGradient17053" gradientUnits="userSpaceOnUse" gradientTransform="matrix(.4 0 0 .4 -45.968 157.654)" x1="402.571" y1="520.798" x2="418.571" y2="536.798"/><linearGradient xlink:href="#linearGradient4298-8-0" id="linearGradient17055" gradientUnits="userSpaceOnUse" x1="24" y1="33" x2="24" y2="13" gradientTransform="matrix(.4 0 0 .4 107.86 357.573)"/><linearGradient id="linearGradient4298-8-0"><stop offset="0" id="stop4300-4" stop-color="#42a603" stop-opacity="1"/><stop offset="1" id="stop4302-9-9" stop-color="#78da06" stop-opacity="1"/></linearGradient><linearGradient xlink:href="#linearGradient4298-8-0" id="linearGradient17057" gradientUnits="userSpaceOnUse" x1="410.571" y1="539.798" x2="428.571" y2="523.798" gradientTransform="matrix(.4 0 0 .4 -45.968 157.654)"/><linearGradient xlink:href="#linearGradient4298-8-0" id="linearGradient17059" gradientUnits="userSpaceOnUse" gradientTransform="matrix(.36 0 0 .36 -29.625 178.606)" x1="409.571" y1="543.798" x2="409.571" y2="503.798"/><style id="current-color-scheme" type="text/css">.ColorScheme-Background{color:#31363b}.ColorScheme-Highlight{color:#3daee9}</style></defs><path d="M16 10h224c3.324 0 6 2.676 6 6v224c0 3.324-2.676 6-6 6H16c-3.324 0-6-2.676-6-6V16c0-3.324 2.676-6 6-6z" id="rect4240" color="#31363b" fill="currentColor" fill-opacity=".5" stroke="none"/><path d="M16 12h224c2.216 0 4 1.784 4 4v224c0 2.216-1.784 4-4 4H16c-2.216 0-4-1.784-4-4V16c0-2.216 1.784-4 4-4z" class="ColorScheme-Background" id="rect4238" color="#31363b" fill="currentColor" fill-opacity="1" stroke="none"/><path d="M20 50v1h216v-1zm12.781 18.955v1h1v-1zm0 2v1h1v-1zm0 2v1h1v-1zm0 2v1h1v-1zm0 2v1h1v-1zm0 2v1h1v-1zm0 2v1h1v-1zm0 2v1h1v-1zm0 2v1h1v-1zm0 2v1h1v-1zm0 2v1h1v-1zm0 2v1h1v-1zm108.287.99l-1.101.08v9.803h1.101V99.23l.764-.724 2.82 3.322h1.31l-3.357-3.86 3.102-3.243h-1.35l-3.33 3.605.041-1.463v-4.922zm33.717 0l-1.101.08v7.77c0 .425.05.778.148 1.06.099.278.25.49.455.637.206.148.44.25.7.309.263.053.59.082.98.082h.53l.06-.766-.301-.021a40.422 40.422 0 0 1-.451-.034 6.676 6.676 0 0 1-.35-.052 1.011 1.011 0 0 1-.273-.094 1.656 1.656 0 0 1-.182-.148.491.491 0 0 1-.135-.223 3.463 3.463 0 0 1-.06-.309 3.772 3.772 0 0 1-.02-.422v-7.869zm-70.402.08v9.803h5.68l.027-.9h-4.526v-8.903h-1.181zm7.728 0a.733.733 0 0 0-.53.201.68.68 0 0 0-.202.512c0 .21.067.382.201.516a.735.735 0 0 0 .531.203c.21 0 .385-.069.524-.203a.684.684 0 0 0 .207-.516.669.669 0 0 0-.207-.512.708.708 0 0 0-.524-.2zm-79.33.93v1h1v-1zm85.385 1.623c-1.07 0-1.873.375-2.41 1.127l-.121-.98h-.967v7.103h1.115v-3.96c0-1.626.73-2.438 2.19-2.438.541 0 .92.163 1.134.49.215.322.323.803.323 1.443v4.465h1.113v-4.344c0-.975-.195-1.702-.584-2.181-.385-.484-.983-.725-1.793-.725zm31.428 0c-.94 0-1.714.338-2.323 1.014-.608.676-.914 1.582-.914 2.718 0 1.124.312 2.014.934 2.672.622.654 1.434.98 2.432.98.895 0 1.693-.208 2.396-.624l-.236-.785c-.376.188-.715.33-1.02.423a3.421 3.421 0 0 1-1.013.141c-.685 0-1.241-.218-1.666-.652-.426-.439-.656-1.11-.692-2.014h4.801l.041-.564c0-1.039-.235-1.848-.705-2.43-.466-.586-1.145-.879-2.035-.879zm12.67 0c-1.07 0-1.873.375-2.41 1.127l-.122-.98h-.966v7.103h1.113v-3.96c0-1.626.73-2.438 2.19-2.438.54 0 .92.163 1.134.49.215.322.322.803.322 1.443v4.465h1.116v-4.344c0-.975-.195-1.702-.584-2.181-.385-.484-.983-.725-1.793-.725zm7.015 0c-.94 0-1.713.338-2.322 1.014-.609.676-.914 1.582-.914 2.718 0 1.124.311 2.014.934 2.672.622.654 1.431.98 2.43.98.894 0 1.693-.208 2.396-.624l-.235-.785c-.376.188-.715.33-1.02.423a3.416 3.416 0 0 1-1.013.141c-.685 0-1.24-.218-1.666-.652-.425-.439-.655-1.11-.691-2.014h4.8l.04-.564c0-1.039-.234-1.848-.704-2.43-.465-.586-1.144-.879-2.035-.879zm-12.166.072c-.43 0-.839.122-1.228.364-.385.237-.712.61-.98 1.12l-.122-1.41h-.892v7.104h1.115v-4.021c0-.632.196-1.167.59-1.606.398-.439.903-.656 1.511-.656.126 0 .278.017.457.053l.047-.913a3.006 3.006 0 0 0-.498-.035zm-45.56.075v7.103h1.101v-7.103zm10.676 0v4.337c0 .963.21 1.688.63 2.176.426.484 1.05.725 1.873.725.582 0 1.042-.087 1.377-.262.34-.179.624-.448.852-.807l.115.934h.967v-7.103h-1.115v3.988c0 .282-.02.539-.06.771a2.51 2.51 0 0 1-.208.659 1.61 1.61 0 0 1-.383.517 1.62 1.62 0 0 1-.591.328 2.54 2.54 0 0 1-.819.121c-.546 0-.938-.163-1.176-.49-.232-.327-.347-.804-.347-1.435v-4.46h-1.115zm7.109 0l2.47 3.459-2.652 3.644h1.123l2.1-2.853 2.035 2.853h1.242l-2.564-3.592 2.537-3.511h-1.127l-1.947 2.76-1.975-2.76zm-96.557.23v1h1v-1zm116.84.475c1.128 0 1.718.766 1.772 2.296h-3.868c.063-.707.283-1.267.659-1.68.38-.411.86-.616 1.437-.616zm19.686 0c1.128 0 1.717.766 1.771 2.296h-3.867c.063-.707.282-1.267.658-1.68.38-.411.86-.616 1.438-.616zm-135.026.025v1h1v-1zm2 0v1h1v-1zm2 0v1h1v-1zm2 0v1h1v-1zm2 0v1h1v-1zm2 0v1h1v-1zm2 0v1h1v-1zm-13.5 33.5v1h1v-1zm0 2v1h1v-1zm0 2v1h1v-1zm0 2v1h1v-1zm0 2v1h1v-1zm0 2v1h1v-1zm0 2v1h1v-1zm0 2v1h1v-1zm0 2v1h1v-1zm0 2v1h1v-1zm0 2v1h1v-1zm0 2v1h1v-1zm71.602 1.07v9.803h1.181v-4.035l.874-.805 3.718 4.84h1.383l-4.215-5.445 4.014-4.358h-1.383l-4.39 4.694v-4.694zm16.826.752l-.895.069-.18 1.879-1.095.074-.027.63h1.095v4.27c0 .434.038.786.114 1.055.076.268.213.49.41.664.201.174.461.296.78.363.317.067.733.102 1.247.102h.463l.055-.766-.565-.027c-.595-.023-.978-.116-1.148-.281-.17-.17-.254-.541-.254-1.11v-4.27h1.879v-.704h-1.879v-1.948zm-88.428.178v1h1v-1zm82.424 1.623c-.949 0-1.803.176-2.564.53l.302.82a4.796 4.796 0 0 1 1.116-.364c.416-.09.805-.134 1.168-.134.537 0 .927.127 1.173.382.251.256.377.643.377 1.163v.697h-1.134c-1.142 0-1.975.182-2.498.545-.52.358-.78.921-.78 1.691 0 .645.198 1.147.592 1.51.398.362.925.545 1.578.545.976 0 1.766-.374 2.375-1.121l.121.98h.846v-4.687c0-.904-.232-1.555-.697-1.953-.461-.403-1.12-.604-1.975-.604zm12.233 0c-.94 0-1.714.338-2.323 1.014-.608.676-.912 1.582-.912 2.718 0 1.124.31 2.014.932 2.672.622.654 1.433.98 2.431.98.896 0 1.694-.208 2.397-.624l-.234-.785c-.376.188-.718.33-1.022.424-.304.094-.642.14-1.014.14-.684 0-1.238-.218-1.664-.652-.425-.439-.655-1.11-.691-2.014h4.799l.04-.564c0-1.039-.234-1.848-.704-2.43-.466-.586-1.145-.879-2.036-.879zm-94.657.377v1h1v-1zm94.684.475c1.128 0 1.72.766 1.773 2.296h-3.867c.063-.707.282-1.267.658-1.68.38-.411.858-.616 1.436-.616zm-93.184.025v1h1v-1zm2 0v1h1v-1zm2 0v1h1v-1zm2 0v1h1v-1zm2 0v1h1v-1zm2 0v1h1v-1zm2 0v1h1v-1zm69.643 2.955h.853v1.565c-.532.783-1.258 1.175-2.175 1.175-.336 0-.616-.107-.84-.322-.224-.215-.336-.52-.336-.914 0-.22.02-.401.06-.549a1.053 1.053 0 0 1 .666-.719c.188-.076.426-.135.717-.175.291-.04.643-.06 1.055-.06zm-83.143.545v1h1v-1zm0 2v1h1v-1zm0 2v1h1v-1zm0 2v1h1v-1zm0 2v1h1v-1zm0 2v1h1v-1zm0 2v1h1v-1zm0 2v1h1v-1zm0 2v1h1v-1zm0 2v1h1v-1zm0 2v1h1v-1zm0 2v1h1v-1zm75.953.938c-.962 0-1.798.214-2.505.644a4.073 4.073 0 0 0-1.598 1.785c-.363.761-.543 1.647-.543 2.658 0 .994.174 1.863.523 2.606a3.988 3.988 0 0 0 1.584 1.746c.708.42 1.551.63 2.532.63.73 0 1.384-.12 1.966-.362a3.873 3.873 0 0 0 1.444-1.028 4.54 4.54 0 0 0 .88-1.57 6.235 6.235 0 0 0 .31-2.008c0-1.007-.183-1.893-.546-2.658a4.078 4.078 0 0 0-1.584-1.799c-.698-.43-1.518-.644-2.463-.644zm7.438.052l-1.1.08v9.803h1.1v-2.598l.766-.724 2.82 3.322h1.308l-3.355-3.86 3.102-3.243h-1.35l-3.33 3.605.039-1.463v-4.922zm14.623 0l-1.102.08v7.77c0 .425.05.778.149 1.06.098.278.25.49.457.637.206.148.437.25.697.309.264.053.591.082.98.082h.532l.06-.766-.302-.021a39.435 39.435 0 0 1-.45-.034 6.676 6.676 0 0 1-.35-.052 1.028 1.028 0 0 1-.275-.094 1.655 1.655 0 0 1-.181-.148.49.49 0 0 1-.135-.223 3.511 3.511 0 0 1-.059-.309 3.719 3.719 0 0 1-.021-.422v-7.869zm-22.068.88c.743 0 1.375.182 1.894.544a3.17 3.17 0 0 1 1.154 1.47c.247.614.37 1.33.37 2.15 0 .59-.07 1.129-.21 1.616a3.78 3.78 0 0 1-.622 1.27 2.73 2.73 0 0 1-1.075.846c-.443.201-.952.302-1.525.302-.761 0-1.402-.177-1.926-.53a3.074 3.074 0 0 1-1.148-1.425c-.242-.595-.364-1.288-.364-2.08 0-.819.127-1.538.377-2.156a3.209 3.209 0 0 1 1.168-1.47c.528-.359 1.164-.538 1.907-.538zm-75.946.13v1h1v-1zm103.64 1.623c-.948 0-1.803.176-2.564.53l.301.82a4.796 4.796 0 0 1 1.115-.364c.417-.09.806-.134 1.168-.134.538 0 .93.127 1.176.382.25.256.375.643.375 1.163v.697h-1.135c-1.14 0-1.972.182-2.496.545-.519.358-.779.921-.779 1.691 0 .645.196 1.147.59 1.51.398.362.925.545 1.578.545.976 0 1.768-.374 2.377-1.121l.121.98h.846v-4.687c0-.904-.234-1.555-.7-1.953-.46-.403-1.117-.604-1.972-.604zm7.722.072c-.43 0-.84.122-1.229.364-.385.237-.712.61-.98 1.12l-.122-1.41h-.892v7.104h1.115v-4.021c0-.632.196-1.167.59-1.606.398-.439.903-.656 1.512-.656.125 0 .276.017.455.053l.047-.913a2.98 2.98 0 0 0-.496-.035zm-22.184.075v4.337c0 .963.212 1.688.633 2.176.425.484 1.05.725 1.873.725.582 0 1.04-.087 1.375-.262a2.25 2.25 0 0 0 .853-.807l.114.934h.966v-7.103h-1.113v3.988c0 .282-.02.539-.06.771-.04.233-.11.453-.21.659a1.61 1.61 0 0 1-.382.517 1.622 1.622 0 0 1-.59.328c-.237.08-.512.121-.82.121-.546 0-.937-.163-1.174-.49-.233-.327-.35-.804-.35-1.435v-4.46h-1.115zm-89.178.23v1h1v-1zm1.5.5v1h1v-1zm2 0v1h1v-1zm2 0v1h1v-1zm2 0v1h1v-1zm2 0v1h1v-1zm2 0v1h1v-1zm2 0v1h1v-1zm90.86 2.955h.851v1.565c-.532.782-1.257 1.175-2.174 1.175h-.002c-.334 0-.614-.108-.838-.322-.223-.215-.335-.52-.335-.914 0-.22.02-.401.06-.549a1.04 1.04 0 0 1 .664-.719 3.06 3.06 0 0 1 .719-.175c.29-.04.643-.06 1.055-.06zm-104.36.545v1h1v-1zm0 2v1h1v-1zm0 2v1h1v-1zm0 2v1h1v-1zm0 2v1h1v-1zm0 2v1h1v-1zm0 2v1h1v-1zm0 2v1h1v-1zm0 2v1h1v-1zm0 2v1h1v-1zm0 2v1h1v-1zm0 2v1h1v-1zm81.672.99l-1.1.08v9.803h1.1v-2.598l.766-.724 2.82 3.322h1.309l-3.356-3.86 3.102-3.243h-1.35l-3.33 3.605.04-1.463v-4.922zm34.168 0l-1.115.08v2.21l.055 1.618a2.828 2.828 0 0 0-.344-.503 2.163 2.163 0 0 0-.43-.397 1.779 1.779 0 0 0-.61-.281 3.167 3.167 0 0 0-.806-.094c-.94 0-1.686.335-2.236 1.006-.546.671-.819 1.55-.819 2.639 0 1.145.265 2.056.793 2.732.533.671 1.29 1.008 2.27 1.008 1.016 0 1.754-.464 2.215-1.39l.1 1.255h.927v-9.883zm-41.398.08l-3.592 9.803h1.209l1.148-3.156h3.752l1.155 3.156h1.17l-3.586-9.803zm43.935 0a.729.729 0 0 0-.53.202.68.68 0 0 0-.2.511c0 .21.067.382.2.516a.73.73 0 0 0 .53.203c.21 0 .385-.069.524-.203a.686.686 0 0 0 .209-.516.67.67 0 0 0-.21-.511.708.708 0 0 0-.523-.202zm-118.377.93v1h1v-1zm75.08.227l1.612 4.671h-3.21zm15.227 1.396c-1.043 0-1.862.34-2.457 1.02-.591.675-.887 1.57-.887 2.685 0 1.088.3 1.974.9 2.658.6.68 1.414 1.022 2.444 1.022 1.007 0 1.816-.343 2.43-1.027.613-.69.92-1.574.92-2.653 0-1.114-.294-2.01-.885-2.685-.591-.68-1.413-1.02-2.465-1.02zm8.29 0c-1.069 0-1.872.375-2.41 1.127l-.12-.98h-.967v7.103h1.115v-3.96c0-1.626.73-2.438 2.19-2.438.541 0 .92.163 1.134.49.215.322.323.803.323 1.443v4.465h1.113v-4.344c0-.975-.195-1.702-.584-2.181-.385-.484-.983-.725-1.793-.725zm6.708 0c-.949 0-1.804.176-2.565.53l.303.82a4.796 4.796 0 0 1 1.115-.364c.417-.09.806-.134 1.168-.134.538 0 .928.127 1.174.382.25.256.377.643.377 1.163v.697h-1.135c-1.14 0-1.974.182-2.498.545-.519.358-.779.921-.779 1.691 0 .645.198 1.147.592 1.51.398.362.925.545 1.578.545.976 0 1.766-.374 2.375-1.121l.121.98h.846v-4.687c0-.904-.232-1.555-.697-1.953-.461-.403-1.12-.604-1.975-.604zm12.516.147v7.103h1.101v-7.103zm-117.82.23v1h1v-1zm90.306.475c.73 0 1.28.261 1.652.785.372.519.557 1.213.557 2.082 0 .555-.076 1.04-.229 1.457a2.115 2.115 0 0 1-.738.994c-.336.246-.75.37-1.242.37-.716 0-1.263-.261-1.639-.78-.376-.52-.564-1.201-.564-2.047 0-.864.188-1.557.564-2.076.376-.524.923-.785 1.639-.785zm22.445 0c.663 0 1.16.246 1.496.738.34.492.51 1.22.51 2.182-.004.881-.168 1.562-.49 2.04-.322.48-.847.72-1.576.72-.694 0-1.208-.256-1.54-.766-.326-.51-.49-1.211-.49-2.102 0-.895.177-1.586.526-2.074.349-.492.87-.738 1.564-.738zm-111.252.025v1h1v-1zm2 0v1h1v-1zm2 0v1h1v-1zm2 0v1h1v-1zm2 0v1h1v-1zm2 0v1h1v-1zm2 0v1h1v-1zm92.524 2.955h.853v1.565c-.532.783-1.258 1.175-2.176 1.175-.335 0-.616-.107-.84-.322-.223-.215-.335-.52-.335-.914 0-.22.02-.401.06-.549a1.053 1.053 0 0 1 .666-.719c.188-.076.426-.135.717-.175.291-.04.643-.06 1.055-.06z" id="path10832" color="#f2f2f2" fill="currentColor" fill-opacity=".5" stroke="none"/><path style="line-height:125%;-inkscape-font-specification:Oxygen-Sans;text-align:start" d="M49.541 26.639l-1.316.095v2.61l.062 1.912a3.32 3.32 0 0 0-.404-.594 2.557 2.557 0 0 0-.508-.469 2.118 2.118 0 0 0-.723-.334 3.73 3.73 0 0 0-.95-.11c-1.112 0-1.993.397-2.643 1.19-.646.794-.97 1.834-.97 3.12 0 1.354.314 2.43.938 3.228.63.793 1.524 1.19 2.682 1.19 1.2 0 2.072-.548 2.617-1.643l.12 1.484h1.095zm66.12 0l-1.304.095v9.18c0 .503.06.92.176 1.254.117.328.296.58.54.754.243.174.519.296.825.365a5.93 5.93 0 0 0 1.159.096h.627l.07-.907-.358-.023a43.87 43.87 0 0 1-.53-.039 8.052 8.052 0 0 1-.413-.064 1.22 1.22 0 0 1-.326-.11 1.958 1.958 0 0 1-.213-.176.576.576 0 0 1-.16-.261 4.067 4.067 0 0 1-.07-.366 4.46 4.46 0 0 1-.024-.5V26.64zm13.28 0l-1.332.095v11.584h1.07l.12-1.476c.285.47.656.863 1.111 1.176.455.306.993.458 1.611.458 1.148 0 2.028-.39 2.641-1.173.619-.783.93-1.841.93-3.174 0-1.354-.296-2.422-.889-3.205-.592-.783-1.466-1.174-2.619-1.174-.566 0-1.076.134-1.531.404-.45.265-.823.62-1.12 1.07l.009-1.458v-3.127zm9.348 0l-1.3.095v9.18c0 .503.057.92.173 1.254.116.328.296.58.54.754.243.174.519.296.825.365a5.93 5.93 0 0 0 1.159.096h.626l.07-.907-.355-.023a44.735 44.735 0 0 1-.533-.039 8.05 8.05 0 0 1-.412-.064 1.202 1.202 0 0 1-.324-.11 1.967 1.967 0 0 1-.215-.176.573.573 0 0 1-.158-.261 4.054 4.054 0 0 1-.073-.366 4.46 4.46 0 0 1-.023-.5V26.64zM22 26.734v7.387c0 1.333.383 2.391 1.15 3.174.767.783 1.897 1.174 3.39 1.174.745 0 1.407-.105 1.99-.317.581-.217 1.056-.518 1.421-.904.37-.391.65-.85.84-1.373.19-.524.287-1.101.287-1.73v-7.41h-1.396v7.363c0 1.068-.266 1.88-.795 2.435-.53.55-1.311.824-2.348.824-2.095 0-3.143-1.085-3.143-3.26v-7.363zm89.16 0a.865.865 0 0 0-.627.239.798.798 0 0 0-.238.601c0 .249.08.453.238.611a.865.865 0 0 0 .627.239c.249 0 .455-.08.62-.239a.814.814 0 0 0 .245-.61.784.784 0 0 0-.246-.602.838.838 0 0 0-.619-.239zm-49.36.889l-1.056.078-.213 2.223-1.295.088-.03.744h1.292v5.047c0 .513.045.928.135 1.246.09.317.251.579.484.785.238.206.545.35.92.43.376.079.868.119 1.477.119v-.002h.547l.064-.905-.666-.03c-.704-.027-1.156-.137-1.357-.333-.201-.2-.301-.639-.301-1.31v-5.047h2.22v-.832h-2.22v-2.301zM37.163 29.75c-1.211 0-2.125.546-2.744 1.64l-.135-1.466h-1.096V42h1.317v-3.158l-.055-1.944c.624 1.053 1.52 1.578 2.69 1.578 1.1 0 1.958-.396 2.572-1.189.614-.793.92-1.841.92-3.143 0-1.354-.296-2.424-.889-3.212-.587-.789-1.448-1.182-2.58-1.182zm17.545 0c-1.121 0-2.132.207-3.031.625l.357.969a5.654 5.654 0 0 1 1.317-.428c.492-.106.952-.16 1.38-.16.635 0 1.098.151 1.39.453.295.301.443.76.443 1.373v.824h-1.34c-1.35 0-2.335.214-2.953.643-.614.423-.92 1.09-.92 2 0 .761.233 1.356.699 1.785.47.428 1.09.642 1.863.642 1.153 0 2.091-.44 2.81-1.324l.143 1.158h1v-5.539c0-1.068-.276-1.837-.826-2.308-.545-.476-1.322-.713-2.332-.713zm14.457 0c-1.11 0-2.027.398-2.746 1.197-.72.799-1.08 1.87-1.08 3.213 0 1.328.368 2.38 1.103 3.158.736.773 1.694 1.158 2.873 1.158 1.058 0 2.002-.246 2.832-.738l-.277-.928a8.076 8.076 0 0 1-1.207.5c-.36.112-.758.166-1.197.166-.81 0-1.466-.256-1.969-.769-.502-.518-.774-1.31-.816-2.379h5.674l.046-.668c0-1.227-.278-2.183-.834-2.871-.55-.693-1.35-1.04-2.402-1.04zm7.6 0c-.878 0-1.56.212-2.047.635-.487.418-.73.968-.73 1.65 0 .55.14.999.421 1.348.28.344.798.637 1.555.88l.92.294c.608.195 1.029.404 1.262.627a1.1 1.1 0 0 1 .35.826c0 .476-.14.84-.42 1.093-.281.25-.677.373-1.184.373-.81 0-1.716-.239-2.721-.72v1.101c.867.413 1.743.62 2.627.62.397 0 .76-.048 1.094-.143.338-.095.64-.237.904-.428.27-.19.481-.444.635-.762a2.56 2.56 0 0 0 .23-1.11c0-.34-.032-.626-.096-.858a1.754 1.754 0 0 0-.347-.666 2.17 2.17 0 0 0-.707-.54 6.8 6.8 0 0 0-1.15-.46l-.833-.262c-.544-.175-.903-.339-1.072-.492-.17-.154-.254-.402-.254-.746 0-.408.13-.716.389-.928.264-.217.7-.326 1.308-.326.683 0 1.39.186 2.12.556l.31-.976a5.72 5.72 0 0 0-2.564-.586zm11.299 0c-1.122 0-2.13.207-3.03.625l.356.969a5.671 5.671 0 0 1 1.318-.428c.492-.106.952-.16 1.38-.16.636 0 1.099.151 1.39.453.296.301.443.76.443 1.373v.824h-1.342c-1.349 0-2.332.214-2.951.643-.614.423-.92 1.09-.92 2 0 .761.232 1.356.697 1.785.471.428 1.093.642 1.866.642 1.153 0 2.089-.44 2.808-1.324l.143 1.158h1v-5.539c0-1.068-.274-1.837-.825-2.308-.544-.476-1.323-.713-2.333-.713zm16.917 0c-1.121 0-2.132.207-3.03.625l.357.969a5.654 5.654 0 0 1 1.316-.428c.492-.106.952-.16 1.38-.16.636 0 1.099.151 1.39.453.296.301.443.76.443 1.373v.824h-1.34c-1.349 0-2.334.214-2.953.643-.614.423-.92 1.09-.92 2 0 .761.234 1.356.7 1.785.47.428 1.09.642 1.863.642 1.153 0 2.089-.44 2.808-1.324l.145 1.158h1v-5.539c0-1.068-.276-1.837-.826-2.308-.545-.476-1.322-.713-2.333-.713zm17.329 0c-1.122 0-2.132.207-3.032.625l.358.969a5.654 5.654 0 0 1 1.316-.428c.492-.106.953-.16 1.381-.16.635 0 1.098.151 1.389.453.296.301.445.76.445 1.373v.824h-1.342c-1.349 0-2.332.214-2.951.643-.614.423-.92 1.09-.92 2 0 .761.232 1.356.697 1.785.471.428 1.093.642 1.866.642 1.153 0 2.089-.44 2.808-1.324l.143 1.158h1v-5.539c0-1.068-.274-1.837-.824-2.308-.545-.476-1.324-.713-2.334-.713zm22.994 0c-1.111 0-2.025.398-2.744 1.197-.72.799-1.08 1.87-1.08 3.213 0 1.328.368 2.38 1.103 3.158.735.773 1.692 1.158 2.871 1.158 1.058 0 2.004-.246 2.834-.738l-.277-.928a8.076 8.076 0 0 1-1.207.5c-.36.112-.758.166-1.198.166-.809 0-1.466-.256-1.968-.769-.503-.518-.774-1.31-.817-2.379h5.672l.049-.668c0-1.227-.279-2.183-.834-2.871-.55-.693-1.352-1.04-2.404-1.04zm-52.606.174l3.244 8.394h1.327l3.181-8.394h-1.342a541.22 541.22 0 0 1-1.252 3.467c-.555 1.539-.97 2.696-1.246 3.468a546.89 546.89 0 0 1-1.492-4.015 464.167 464.167 0 0 0-1.072-2.92zm17.805 0v8.394h1.3v-8.394zm20.955.824c1.523 0 2.285 1.127 2.285 3.38 0 2.228-.782 3.34-2.347 3.34-.794 0-1.409-.293-1.842-.88-.429-.587-.643-1.451-.643-2.594 0-1.02.207-1.817.62-2.389.417-.57 1.06-.857 1.927-.857zm-94.445.008c1.513 0 2.27 1.125 2.27 3.373 0 2.227-.783 3.34-2.348 3.34-.794 0-1.408-.304-1.842-.912-.429-.609-.643-1.463-.643-2.563.006-1.016.217-1.81.635-2.38.418-.572 1.06-.858 1.928-.858zm8.879 0c.783 0 1.372.291 1.77.873.401.582.603 1.443.603 2.58-.006 1.042-.2 1.846-.58 2.412-.381.566-1.001.848-1.864.848-.82 0-1.427-.302-1.818-.905-.386-.603-.578-1.43-.578-2.482 0-1.058.206-1.877.619-2.453.413-.582 1.028-.873 1.848-.873zm23.304 0c1.333 0 2.03.906 2.094 2.715h-4.57c.074-.836.333-1.498.777-1.985.45-.486 1.017-.73 1.7-.73zm76.139 0c1.333 0 2.032.906 2.096 2.715h-4.57c.073-.836.332-1.498.777-1.985.45-.486 1.015-.73 1.697-.73zm-89.78 3.523h1.008v1.85c-.629.926-1.485 1.388-2.57 1.388-.397 0-.728-.126-.992-.38s-.396-.615-.396-1.08c0-.26.024-.476.072-.65.047-.18.135-.345.262-.493a1.23 1.23 0 0 1 .523-.357c.222-.09.506-.158.85-.206a9.222 9.222 0 0 1 1.244-.072zm33.358 0h1.008v1.85c-.63.926-1.486 1.388-2.57 1.388-.397 0-.728-.126-.993-.38-.264-.254-.396-.615-.396-1.08 0-.26.023-.476.07-.65a1.235 1.235 0 0 1 .787-.85 3.64 3.64 0 0 1 .848-.206c.344-.047.76-.072 1.246-.072zm16.916 0h1.008v1.85c-.63.926-1.486 1.388-2.57 1.388-.397 0-.728-.126-.993-.38-.264-.254-.396-.615-.396-1.08 0-.26.025-.476.072-.65.048-.18.135-.345.262-.493a1.23 1.23 0 0 1 .523-.357 3.64 3.64 0 0 1 .848-.206c.344-.047.76-.072 1.246-.072zm17.33 0h1.008v1.85c-.63.926-1.486 1.388-2.57 1.388-.397 0-.728-.126-.992-.38-.265-.254-.397-.615-.397-1.08 0-.26.023-.476.07-.65.048-.18.135-.345.262-.493a1.23 1.23 0 0 1 .523-.357 3.66 3.66 0 0 1 .85-.206c.344-.047.76-.072 1.246-.072zM53.324 63.428c-.42 0-.813.05-1.176.148-.362.099-.69.248-.986.45a2.059 2.059 0 0 0-.7.798c-.17.336-.253.722-.253 1.156 0 .632.163 1.128.49 1.49.327.359.82.662 1.483.913l1.597.611c.627.242 1.05.482 1.264.719.22.233.328.583.328 1.053 0 .407-.098.75-.295 1.027a1.63 1.63 0 0 1-.752.592 3.038 3.038 0 0 1-1.074.174 4.975 4.975 0 0 1-1.564-.268 5.39 5.39 0 0 1-1.452-.732v1.06c.278.246.697.455 1.256.625.56.17 1.14.256 1.74.256.336 0 .654-.03.954-.088.304-.058.597-.155.879-.289.281-.139.523-.312.724-.518.202-.205.364-.468.484-.79.121-.323.182-.686.182-1.089 0-.326-.04-.617-.121-.873a2.395 2.395 0 0 0-.303-.644 1.955 1.955 0 0 0-.517-.49 4.284 4.284 0 0 0-.637-.383A10.52 10.52 0 0 0 54.09 68l-1.545-.604c-.47-.183-.797-.386-.98-.605-.18-.224-.268-.541-.268-.953 0-.336.098-.618.295-.846.197-.228.444-.388.744-.482a3.27 3.27 0 0 1 1.027-.149c.417 0 .834.058 1.25.174.421.116.776.277 1.067.479l.43-.834a4.838 4.838 0 0 0-1.315-.551 5.52 5.52 0 0 0-1.47-.201zm72.557.054l-1.115.08v2.21l.054 1.617a2.808 2.808 0 0 0-.343-.502 2.163 2.163 0 0 0-.43-.397 1.782 1.782 0 0 0-.61-.283 3.168 3.168 0 0 0-.806-.094c-.94 0-1.686.337-2.236 1.008-.547.671-.819 1.551-.819 2.639 0 1.146.265 2.056.793 2.732.533.672 1.287 1.006 2.268 1.006 1.016 0 1.756-.462 2.217-1.389l.1 1.256h.927v-9.883zm-41.184.08a.729.729 0 0 0-.529.202.676.676 0 0 0-.201.51.7.7 0 0 0 .201.517.729.729 0 0 0 .53.201c.21 0 .384-.067.523-.201a.69.69 0 0 0 .209-.518c0-.21-.07-.38-.21-.51a.708.708 0 0 0-.523-.2zm17.88 0v6.25c0 1.128.325 2.024.974 2.686.649.662 1.603.994 2.865.994.631 0 1.193-.088 1.686-.267.492-.184.894-.44 1.203-.766.313-.331.55-.72.71-1.162a4.25 4.25 0 0 0 .243-1.463v-6.272h-1.182v6.23c0 .905-.224 1.591-.672 2.061-.447.466-1.11.7-1.988.7-1.772 0-2.658-.92-2.658-2.76v-6.23zm-13.776.752l-.895.067-.18 1.88-1.095.075-.027.63h1.095v4.27c0 .434.037.786.114 1.055.076.269.213.49.41.664.201.175.461.296.779.363s.733.1 1.248.1h.463l.055-.766-.565-.025c-.595-.022-.978-.118-1.148-.283-.17-.17-.254-.54-.254-1.108v-4.27h1.879v-.704H88.8v-1.948zm47.453 0l-.893.067-.181 1.88-1.096.075-.025.63h1.093v4.27c0 .434.038.786.114 1.055.076.269.213.49.41.664.201.175.461.296.78.363.317.067.732.1 1.247.1h.463l.055-.766-.565-.025c-.595-.022-.978-.118-1.148-.283-.17-.17-.254-.54-.254-1.108v-4.27h1.879v-.704h-1.88v-1.948zm-75.33 1.8c-.94 0-1.714.337-2.322 1.013-.61.676-.915 1.584-.915 2.72 0 1.124.312 2.015.934 2.672.622.654 1.432.98 2.43.98.895 0 1.694-.208 2.396-.624l-.234-.785a6.802 6.802 0 0 1-1.02.422c-.304.094-.642.14-1.013.14-.685 0-1.241-.216-1.666-.65-.426-.439-.656-1.11-.692-2.014h4.801l.04-.564c0-1.039-.234-1.848-.704-2.43-.466-.586-1.144-.88-2.035-.88zm7.271 0c-.989 0-1.792.332-2.41 1-.618.662-.928 1.574-.928 2.734 0 1.11.301 1.995.9 2.658.605.662 1.414.994 2.43.994.435 0 .824-.053 1.168-.156.345-.103.594-.213.747-.334l-.21-.76c-.451.26-.95.39-1.496.39-.783 0-1.377-.258-1.785-.773-.407-.515-.611-1.187-.611-2.02 0-.877.212-1.576.637-2.095.425-.52.99-.78 1.693-.78a2.83 2.83 0 0 1 1.483.391l.316-.765c-.152-.103-.398-.21-.738-.317-.336-.112-.735-.168-1.196-.168zm47.211 0c-1.025 0-1.798.463-2.322 1.39l-.115-1.242h-.926V76.48h1.115v-2.67l-.047-1.647c.528.89 1.287 1.338 2.276 1.338.93 0 1.656-.336 2.175-1.008.52-.671.778-1.557.778-2.658 0-1.146-.25-2.054-.752-2.72-.497-.668-1.224-1-2.182-1zm14.846 0c-.949 0-1.806.177-2.566.53l.302.819a4.796 4.796 0 0 1 1.116-.362 5.598 5.598 0 0 1 1.167-.134c.538 0 .928.127 1.174.383.251.255.377.64.377 1.16v.699h-1.134c-1.142 0-1.975.18-2.499.543-.519.358-.777.923-.777 1.693 0 .645.196 1.147.59 1.51.398.363.925.545 1.578.545.976 0 1.768-.376 2.377-1.123l.121.98h.846v-4.685c0-.904-.234-1.555-.7-1.953-.46-.403-1.117-.606-1.972-.606zm12.232 0c-.94 0-1.715.337-2.324 1.013-.609.676-.912 1.584-.912 2.72 0 1.124.311 2.015.934 2.672.622.654 1.431.98 2.43.98.895 0 1.693-.208 2.396-.624l-.235-.785a6.817 6.817 0 0 1-1.021.422c-.304.094-.642.14-1.014.14-.685 0-1.239-.216-1.664-.65-.425-.439-.655-1.11-.691-2.014h4.8l.04-.564c0-1.039-.235-1.848-.705-2.43-.466-.586-1.143-.88-2.034-.88zm6.432 0c-.743 0-1.32.178-1.732.536-.412.354-.618.82-.618 1.397 0 .465.119.847.356 1.142.237.291.676.539 1.316.745l.778.248c.514.165.871.343 1.068.53.197.189.295.42.295.698 0 .403-.118.713-.356.928-.237.21-.57.314-1 .314-.684 0-1.452-.202-2.302-.61v.933c.734.349 1.475.525 2.222.525.336 0 .644-.04.926-.121a2.42 2.42 0 0 0 .766-.363 1.66 1.66 0 0 0 .537-.645 2.16 2.16 0 0 0 .195-.94c0-.286-.028-.527-.082-.724a1.49 1.49 0 0 0-.295-.564 1.835 1.835 0 0 0-.597-.458 5.753 5.753 0 0 0-.973-.388l-.705-.223c-.461-.148-.763-.286-.906-.416-.144-.13-.215-.34-.215-.63 0-.345.109-.607.328-.786.224-.183.593-.275 1.107-.275.578 0 1.176.155 1.793.468l.262-.824a4.833 4.833 0 0 0-2.168-.498zm-66.643.073c-.43 0-.839.122-1.228.364-.385.237-.712.61-.98 1.12l-.122-1.41h-.892v7.104h1.115v-4.021c0-.631.196-1.167.59-1.606.398-.438.903-.658 1.512-.658.125 0 .278.019.457.055l.046-.914a3.034 3.034 0 0 0-.498-.034zm-10.85.075V70.6c0 .962.211 1.685.632 2.173.425.484 1.05.727 1.873.727.582 0 1.041-.09 1.377-.264a2.25 2.25 0 0 0 .853-.804l.113.933h.967v-7.103h-1.115v3.988c0 .282-.018.539-.059.771-.04.233-.11.453-.209.659a1.609 1.609 0 0 1-.382.517 1.622 1.622 0 0 1-.59.328c-.237.08-.512.121-.82.121-.547 0-.937-.163-1.174-.49-.233-.327-.35-.806-.35-1.437v-4.457h-1.115zm12.718 0v7.103h1.101v-7.103zm7.613 0l2.812 6.888-1.046 2.672 1 .215 3.74-9.775h-1.13l-2.026 5.673-2.215-5.673zm-30.803.705c1.128 0 1.718.764 1.772 2.295h-3.868c.063-.708.283-1.266.659-1.678.38-.412.86-.617 1.437-.617zm54.328 0c1.28 0 1.92.951 1.92 2.853 0 1.885-.661 2.826-1.986 2.826-.672 0-1.192-.256-1.559-.771-.362-.515-.543-1.239-.543-2.17.004-.86.184-1.53.537-2.014.354-.483.897-.724 1.631-.724zm7.514 0c.662 0 1.16.246 1.496.738.34.492.51 1.22.51 2.182-.004.881-.168 1.562-.49 2.04-.323.48-.847.72-1.577.72-.693 0-1.207-.256-1.539-.766-.326-.51-.49-1.211-.49-2.102 0-.895.176-1.586.526-2.074.349-.492.87-.738 1.564-.738zm19.717 0c1.128 0 1.72.764 1.773 2.295h-3.867c.063-.708.282-1.266.658-1.678.38-.412.858-.617 1.436-.617zm-11.541 2.98h.853v1.565c-.532.783-1.258 1.175-2.176 1.175a1.16 1.16 0 0 1-.837-.322c-.224-.215-.336-.52-.336-.914 0-.22.02-.403.06-.55a1.042 1.042 0 0 1 .664-.72 3.07 3.07 0 0 1 .719-.173c.29-.04.64-.06 1.053-.06zM76.07 123.482l-1.101.08v7.768c0 .425.05.779.148 1.06.099.278.251.492.457.64.206.147.438.25.697.308.265.054.592.08.981.08h.531l.059-.766-.301-.02a40.437 40.437 0 0 1-.451-.032 6.75 6.75 0 0 1-.348-.055 1.025 1.025 0 0 1-.275-.094 1.632 1.632 0 0 1-.182-.146.49.49 0 0 1-.135-.223 3.44 3.44 0 0 1-.06-.309 3.801 3.801 0 0 1-.02-.423v-7.868zm69.844 0l-1.113.08v2.21l.052 1.617a2.804 2.804 0 0 0-.341-.502 2.162 2.162 0 0 0-.43-.397 1.792 1.792 0 0 0-.611-.283 3.151 3.151 0 0 0-.805-.094c-.94 0-1.686.337-2.236 1.008-.546.671-.82 1.551-.82 2.639 0 1.146.264 2.056.792 2.732.533.672 1.29 1.006 2.27 1.006 1.016 0 1.754-.462 2.215-1.389l.101 1.256h.926v-9.883zm-92.691.08l-3.592 9.803h1.209l1.148-3.156h3.752l1.155 3.156h1.17l-3.586-9.803zm26.64 0a.729.729 0 0 0-.529.202.678.678 0 0 0-.203.51c0 .21.069.383.203.517a.729.729 0 0 0 .53.201c.21 0 .384-.067.523-.201a.69.69 0 0 0 .209-.518c0-.21-.07-.38-.21-.51a.708.708 0 0 0-.523-.2zm21.62 0a.733.733 0 0 0-.532.202.676.676 0 0 0-.201.51.7.7 0 0 0 .201.517.733.733 0 0 0 .531.201c.21 0 .385-.067.524-.201a.69.69 0 0 0 .209-.518c0-.21-.07-.38-.21-.51a.708.708 0 0 0-.523-.2zm21.128 0v6.25c0 1.128.324 2.024.973 2.686.649.662 1.605.994 2.867.994.631 0 1.193-.088 1.686-.267.492-.184.892-.44 1.2-.766.314-.331.55-.72.712-1.162a4.25 4.25 0 0 0 .242-1.463v-6.272h-1.182v6.23c0 .905-.224 1.591-.672 2.061-.447.466-1.109.7-1.986.7-1.772 0-2.658-.92-2.658-2.76v-6.23zm-25.299.752l-.892.067-.182 1.88-1.093.075-.028.63h1.094v4.27c0 .434.04.786.115 1.055.076.268.213.49.41.664.202.175.46.296.778.363.317.067.735.1 1.25.1h.463l.052-.766-.562-.025c-.595-.023-.979-.118-1.149-.283-.17-.17-.256-.54-.256-1.108v-4.27h1.881v-.704h-1.88v-1.948zm58.975 0l-.892.067-.182 1.88-1.094.075-.027.63h1.094v4.27c0 .434.039.786.115 1.055.076.268.213.49.41.664.201.175.46.296.777.363.318.067.736.1 1.25.1h.463l.053-.766-.563-.025c-.595-.023-.978-.118-1.148-.283-.17-.17-.256-.54-.256-1.108v-4.27h1.881v-.704h-1.88v-1.948zm-102.426.403l1.612 4.674h-3.21zm8.801 1.396c-1.025 0-1.798.464-2.322 1.39l-.115-1.241h-.926v10.218h1.115v-2.671l-.047-1.647c.528.89 1.286 1.338 2.276 1.338.93 0 1.656-.336 2.175-1.008.52-.671.778-1.557.778-2.658 0-1.146-.25-2.054-.752-2.72-.497-.668-1.224-1-2.182-1zm7.762 0c-1.025 0-1.799.464-2.322 1.39l-.116-1.241h-.925v10.218h1.113v-2.671l-.047-1.647c.528.89 1.288 1.338 2.277 1.338.931 0 1.655-.336 2.174-1.008.52-.671.78-1.557.78-2.658 0-1.146-.251-2.054-.753-2.72-.496-.668-1.223-1-2.181-1zm15.012 0c-.99 0-1.793.333-2.41 1-.618.663-.926 1.575-.926 2.735 0 1.11.298 1.995.898 2.658.604.662 1.416.994 2.432.994.434 0 .823-.053 1.168-.156.344-.103.594-.213.746-.334l-.21-.76c-.451.26-.951.39-1.497.39-.784 0-1.378-.258-1.785-.773-.408-.515-.612-1.187-.612-2.02 0-.877.214-1.576.639-2.095.425-.52.989-.78 1.691-.78.555 0 1.05.132 1.485.391l.314-.765c-.152-.103-.398-.21-.738-.317-.336-.112-.734-.168-1.195-.168zm5.875 0c-.95 0-1.804.178-2.565.531l.303.819a4.78 4.78 0 0 1 1.113-.361c.416-.09.806-.135 1.168-.135.537 0 .93.127 1.176.383.25.255.375.64.375 1.16v.699h-1.133c-1.141 0-1.974.18-2.498.543-.52.358-.78.923-.78 1.693 0 .645.199 1.147.592 1.51.399.363.923.545 1.577.545.975 0 1.768-.376 2.377-1.123l.12.98h.846v-4.685c0-.904-.231-1.555-.697-1.953-.46-.403-1.12-.606-1.974-.606zm15.75 0c-1.043 0-1.862.341-2.457 1.022-.591.676-.885 1.57-.885 2.685 0 1.088.298 1.974.898 2.658.6.68 1.414 1.022 2.444 1.022 1.007 0 1.818-.343 2.431-1.027.613-.69.92-1.574.92-2.653 0-1.114-.296-2.01-.887-2.685-.59-.68-1.413-1.022-2.464-1.022zm8.293 0c-1.07 0-1.874.377-2.41 1.13l-.122-.981h-.967v7.103h1.114v-3.96c0-1.626.73-2.438 2.19-2.438.54 0 .92.163 1.134.49.215.322.322.803.322 1.443v4.465h1.115v-4.344c0-.975-.194-1.702-.584-2.181-.384-.484-.982-.727-1.792-.727zm20.087 0c-1.025 0-1.8.464-2.324 1.39l-.113-1.241h-.926v10.218h1.113v-2.671l-.046-1.647c.528.89 1.286 1.338 2.275 1.338.93 0 1.656-.336 2.176-1.008.519-.671.779-1.557.779-2.658 0-1.146-.25-2.054-.752-2.72-.497-.668-1.224-1-2.182-1zm14.844 0c-.949 0-1.803.178-2.564.531l.302.819a4.78 4.78 0 0 1 1.114-.361c.416-.09.805-.135 1.168-.135.537 0 .93.127 1.175.383.251.255.375.64.375 1.16v.699h-1.132c-1.142 0-1.975.18-2.498.543-.52.358-.78.923-.78 1.693 0 .645.198 1.147.592 1.51.398.363.923.545 1.576.545.976 0 1.769-.376 2.377-1.123l.121.98h.846v-4.685c0-.904-.232-1.555-.697-1.953-.461-.403-1.12-.606-1.975-.606zm12.233 0c-.94 0-1.714.338-2.323 1.014-.608.676-.914 1.584-.914 2.72 0 1.124.312 2.015.934 2.672.622.654 1.433.98 2.431.98.896 0 1.694-.208 2.397-.624l-.236-.785a6.802 6.802 0 0 1-1.02.422c-.304.094-.642.14-1.014.14-.684 0-1.24-.216-1.666-.65-.425-.439-.655-1.11-.691-2.014h4.8l.042-.564c0-1.039-.235-1.848-.705-2.43-.466-.586-1.145-.88-2.035-.88zm6.431 0c-.743 0-1.318.18-1.73.537-.412.354-.62.82-.62 1.397 0 .465.119.847.356 1.142.237.291.676.539 1.316.745l.78.248c.515.165.871.343 1.068.53.197.189.295.42.295.698 0 .403-.118.713-.355.928-.238.21-.573.314-1.002.314-.685 0-1.453-.202-2.303-.61v.933c.734.349 1.475.525 2.223.525.335 0 .643-.04.925-.121a2.42 2.42 0 0 0 .766-.363 1.66 1.66 0 0 0 .537-.645 2.16 2.16 0 0 0 .195-.94 2.79 2.79 0 0 0-.08-.724 1.49 1.49 0 0 0-.295-.564 1.835 1.835 0 0 0-.597-.458 5.78 5.78 0 0 0-.975-.388l-.705-.223c-.461-.148-.763-.286-.906-.416-.143-.13-.215-.34-.215-.63 0-.345.11-.607.33-.786.224-.183.593-.275 1.107-.275.578 0 1.176.155 1.793.468l.262-.824a4.842 4.842 0 0 0-2.17-.498zm-89.642.149v7.103h1.101v-7.103zm21.619 0v7.103h1.1v-7.103zm-38.39.705c1.28 0 1.92.951 1.92 2.853 0 1.885-.662 2.826-1.987 2.826-.672 0-1.192-.256-1.559-.771-.362-.515-.543-1.239-.543-2.17.005-.86.184-1.53.537-2.014.354-.483.897-.724 1.631-.724zm7.76 0c1.281 0 1.92.951 1.92 2.853 0 1.885-.663 2.826-1.987 2.826-.672 0-1.19-.256-1.557-.771-.363-.515-.545-1.239-.545-2.17.004-.86.183-1.53.537-2.014.354-.483.899-.724 1.633-.724zm36.765 0c.73 0 1.28.261 1.652.785.371.52.557 1.214.557 2.082 0 .555-.075 1.04-.227 1.457-.152.412-.4.742-.74.992-.336.246-.75.37-1.242.37-.717 0-1.261-.259-1.637-.778-.376-.52-.565-1.203-.565-2.049 0-.864.189-1.555.565-2.074.376-.524.92-.785 1.637-.785zm28.251 0c1.28 0 1.922.951 1.922 2.853 0 1.885-.663 2.826-1.988 2.826-.671 0-1.19-.256-1.557-.771-.362-.515-.544-1.239-.544-2.17.004-.86.183-1.53.537-2.014.353-.483.896-.724 1.63-.724zm7.514 0c.663 0 1.163.246 1.498.738.34.492.51 1.22.51 2.182-.004.881-.168 1.562-.49 2.04-.323.48-.849.72-1.578.72-.694 0-1.206-.256-1.537-.766-.327-.51-.49-1.211-.49-2.102 0-.895.174-1.586.523-2.074.349-.492.87-.738 1.564-.738zm19.719 0c1.128 0 1.718.764 1.771 2.295h-3.867c.063-.708.282-1.266.658-1.678.38-.412.86-.617 1.438-.617zm-70.516 2.98h.852v1.565c-.533.783-1.256 1.175-2.174 1.175-.336 0-.616-.107-.84-.322-.224-.215-.336-.52-.336-.914 0-.22.02-.403.06-.55a1.064 1.064 0 0 1 .665-.719c.188-.077.428-.134.719-.174.29-.04.643-.06 1.054-.06zm58.975 0h.851v1.565c-.532.783-1.256 1.175-2.173 1.175-.336 0-.616-.107-.84-.322-.224-.215-.336-.52-.336-.914 0-.22.02-.403.06-.55a1.051 1.051 0 0 1 .664-.719c.188-.077.428-.134.72-.174.29-.04.642-.06 1.054-.06z" id="path5316" color="#f2f2f2" font-style="normal" font-variant="normal" font-weight="400" font-stretch="normal" font-size="13.75" font-family="Oxygen-Sans" letter-spacing="0" word-spacing="0" writing-mode="lr-tb" text-anchor="start" fill="currentColor" fill-opacity="1" stroke="none"/><rect ry="2.8" rx="2.8" y="85.954" x="47.282" height="28" width="28" id="rect10238" class="ColorScheme-Background" color="#31363b" fill="currentColor" fill-opacity=".004" stroke="none"/><rect rx="3.448" y="87.112" x="49.44" height="20.842" width="20.842" id="rect10240" opacity=".2" fill="#232629" fill-opacity="1" stroke="none"/><rect class="ColorScheme-Background" id="rect10242" width="19.684" height="19.684" x="48.861" y="86.533" rx="1.968" ry="1.968" color="#31363b" fill="currentColor" fill-opacity="1" stroke="#3daee9" stroke-width="1.158" stroke-miterlimit="4" stroke-dasharray="none" stroke-opacity="1"/><path class="ColorScheme-Highlight" id="rect10244" color="#3daee9" fill="currentColor" fill-opacity="1" stroke="none" d="M51.755 89.428H65.65v13.895H51.755z"/><rect id="rect6327-9" width="28" height="28" x="32.889" y="119.954" rx="2.8" ry="2.8" class="ColorScheme-Background" color="#31363b" fill="currentColor" fill-opacity=".004" stroke="none"/><rect id="rect6329-6" width="20.842" height="20.842" x="23.158" y="120.112" rx="3.448" opacity=".2" fill="#232629" fill-opacity="1" stroke="none"/><rect class="ColorScheme-Background" ry="1.968" rx="1.968" y="119.533" x="22.579" height="19.684" width="19.684" id="rect6331-2" color="#31363b" fill="currentColor" fill-opacity="1" stroke="#3daee9" stroke-width="1.158" stroke-miterlimit="4" stroke-dasharray="none" stroke-opacity="1"/><path class="ColorScheme-Highlight" id="rect6333-5" color="#3daee9" fill="currentColor" fill-opacity="1" stroke="none" d="M25.473 122.428h13.895v13.895H25.473z"/><path class="ColorScheme-Background" id="rect6335-1" d="M27.79 124.744h9.263l-9.264 9.263z" color="#31363b" fill="currentColor" fill-opacity="1" stroke="none"/><g id="g21577" transform="translate(-75.226 -407.91) scale(1.375)" fill-opacity="1" stroke="none"><rect ry="8" y="359.173" x="109.461" height="16" width="16" id="rect4166-6" fill="url(#linearGradient17051)"/><path id="path4696-8" d="M119.06 366.373v4.4h-3.2l4.026 4.026a7.982 7.982 0 0 0 4.987-4.613l-3.812-3.813z" opacity=".2" fill="url(#linearGradient17053)" fill-rule="evenodd"/><path id="rect4318-9" d="M117.46 362.773l-3.6 3.6h2v4.4h3.2v-4.4h2z" fill="url(#linearGradient17055)"/><path id="path4619-7" d="M117.46 374.373c3.99 0 7.2-3.21 7.2-7.2 0-3.988-3.21-7.2-7.2-7.2v.8c3.546 0 6.4 2.855 6.4 6.4 0 3.546-2.854 6.4-6.4 6.4z" opacity=".5" fill="gray"/><path id="rect4681-1" d="M117.46 359.973a7.184 7.184 0 0 0-7.2 7.2c0 3.99 3.212 7.2 7.2 7.2 3.99 0 7.2-3.21 7.2-7.2 0-3.988-3.21-7.2-7.2-7.2zm0 .8c3.546 0 6.4 2.855 6.4 6.4 0 3.546-2.854 6.4-6.4 6.4a6.386 6.386 0 0 1-6.4-6.4c0-3.545 2.855-6.4 6.4-6.4z" fill="url(#linearGradient17057)"/><path id="rect4600-8" d="M117.46 374.373v-.8a6.386 6.386 0 0 1-6.4-6.4c0-3.545 2.855-6.4 6.4-6.4v-.8a7.184 7.184 0 0 0-7.2 7.2c0 3.99 3.212 7.2 7.2 7.2z" fill="url(#linearGradient17059)"/><path id="rect4775-4" d="M109.465 366.973c-.002.067-.005.133-.005.2 0 4.432 3.568 8 8 8s8-3.568 8-8c0-.067-.003-.133-.005-.2a7.98 7.98 0 0 1-7.995 7.8 7.98 7.98 0 0 1-7.995-7.8z" fill="#99a1a7"/></g><g id="g22005" transform="translate(-74.676 -639.41) scale(1.375)" stroke="none"><rect ry="0" y="571.173" x="109.861" height="16" width="14.4" id="rect4139-86-6-9-5" fill="url(#linearGradient10119)" fill-opacity="1"/><path id="rect4250-1-7-3" opacity=".5" fill="url(#linearGradient10121)" fill-opacity="1" d="M110.261 571.573h13.6v15.2h-13.6z"/><path id="rect4171-6-9-1-0" fill="#aa7f41" fill-opacity="1" d="M109.861 586.773h14.4v.4h-14.4z"/><path id="rect4242-7-3-6" fill="url(#linearGradient10115)" fill-opacity="1" d="M110.661 571.973h12.8v14.4h-12.8z"/><path id="rect4236-8-6-3" fill="#bdb49e" fill-opacity="1" d="M118.661 582.373h1.2v.4h-1.2z"/><path id="rect4244-0-4-9" fill="#2d2110" fill-opacity=".314" d="M110.661 585.573h12.8v.8h-12.8z"/><path id="path4252-9-3-3" d="M123.46 581.573l-4 4v-4z" fill="#ebebeb" fill-opacity="1" fill-rule="evenodd"/><path id="path4281-9-4-1" d="M119.46 585.573l1.6 1.6h3.2v-4.8l-.8-.8z" opacity=".2" fill="url(#linearGradient10117)" fill-opacity="1" fill-rule="evenodd"/><path id="rect4301-5-4-1" fill="#2d2110" fill-opacity=".314" d="M110.661 585.973h12.8v.4h-12.8z"/><path id="path6163-2-1-6" d="M119.86 581.973v3.2l3.2-3.2z" fill="url(#linearGradient10123)" fill-opacity="1" fill-rule="evenodd"/><path id="rect4152-1-8-7" fill="#bdb49e" fill-opacity="1" d="M111.461 575.173h.8v.4h-.8z"/><path id="rect4154-7-2-5" fill="#bdb49e" fill-opacity="1" d="M112.661 575.173h1.2v.4h-1.2z"/><path id="rect4156-0-6-8" fill="#bdb49e" fill-opacity="1" d="M114.261 575.173h2v.4h-2z"/><path id="rect4158-5-2-6" fill="#bdb49e" fill-opacity="1" d="M117.061 575.173h2.4v.4h-2.4z"/><path id="rect4160-7-3-9" fill="#bdb49e" fill-opacity="1" d="M119.861 575.173h1.2v.4h-1.2z"/><path id="rect4162-76-0-3" fill="#bdb49e" fill-opacity="1" d="M121.461 575.173h.8v.4h-.8z"/><path id="rect4164-8-7-6-1" fill="#bdb49e" fill-opacity="1" d="M111.461 575.973h1.6v.4h-1.6z"/><path id="rect4166-3-0-6" fill="#bdb49e" fill-opacity="1" d="M113.461 575.973h.8v.4h-.8z"/><path id="rect4168-2-6-6" fill="#bdb49e" fill-opacity="1" d="M114.661 575.973h3.6v.4h-3.6z"/><path id="rect4170-3-2-6" fill="#bdb49e" fill-opacity="1" d="M118.661 575.973h2.4v.4h-2.4z"/><path id="rect4172-9-6-1" fill="#bdb49e" fill-opacity="1" d="M121.461 575.973h1.2v.4h-1.2z"/><path id="rect4174-2-6-2" fill="#bdb49e" fill-opacity="1" d="M111.461 577.573h.8v.4h-.8z"/><path id="rect4176-39-1-4-0" fill="#bdb49e" fill-opacity="1" d="M112.661 577.573h1.2v.4h-1.2z"/><path id="rect4178-8-7-2" fill="#bdb49e" fill-opacity="1" d="M114.261 577.573h2.4v.4h-2.4z"/><path id="rect4180-9-8-4" fill="#bdb49e" fill-opacity="1" d="M117.461 577.573h1.6v.4h-1.6z"/><path id="rect4182-0-1-4" fill="#bdb49e" fill-opacity="1" d="M119.461 577.573h.8v.4h-.8z"/><path id="rect4184-7-0-3" fill="#bdb49e" fill-opacity="1" d="M120.661 577.573h2v.4h-2z"/><path id="rect4186-3-6-6" fill="#bdb49e" fill-opacity="1" d="M111.461 578.373h.8v.4h-.8z"/><path id="rect4188-2-6-9" fill="#bdb49e" fill-opacity="1" d="M112.661 578.373h2v.4h-2z"/><path id="rect4190-00-6-1" fill="#bdb49e" fill-opacity="1" d="M115.061 578.373h1.2v.4h-1.2z"/><path id="rect4192-3-2-9" fill="#bdb49e" fill-opacity="1" d="M116.661 578.373h.4v.4h-.4z"/><path id="rect4194-9-5-4" fill="#bdb49e" fill-opacity="1" d="M117.461 578.373h2v.4h-2z"/><path id="rect4196-94-3-4" fill="#bdb49e" fill-opacity="1" d="M119.861 578.373h1.2v.4h-1.2z"/><path id="rect4198-1-4-9" fill="#bdb49e" fill-opacity="1" d="M121.461 578.373h1.2v.4h-1.2z"/><path id="rect4200-0-8-0-3" fill="#bdb49e" fill-opacity="1" d="M111.461 579.973h2.4v.4h-2.4z"/><path id="rect4202-3-9-0" fill="#bdb49e" fill-opacity="1" d="M114.261 579.973h1.2v.4h-1.2z"/><path id="rect4204-6-0-0" fill="#bdb49e" fill-opacity="1" d="M115.861 579.973h1.2v.4h-1.2z"/><path id="rect4206-6-2-3-6" fill="#bdb49e" fill-opacity="1" d="M117.461 579.973h1.2v.4h-1.2z"/><path id="rect4208-7-6-1" fill="#bdb49e" fill-opacity="1" d="M119.061 579.973h2v.4h-2z"/><path id="rect4210-62-6-1" fill="#bdb49e" fill-opacity="1" d="M121.461 579.973h.4v.4h-.4z"/><path id="rect4214-0-2-4-3" fill="#bdb49e" fill-opacity="1" d="M111.461 580.773h2v.4h-2z"/><path id="rect4216-0-3-4-0" fill="#bdb49e" fill-opacity="1" d="M113.861 580.773h2v.4h-2z"/><path id="rect4218-4-1-8-8" fill="#bdb49e" fill-opacity="1" d="M116.261 580.773h2v.4h-2z"/><path id="rect4220-80-3-1" fill="#bdb49e" fill-opacity="1" d="M118.661 580.773h1.2v.4h-1.2z"/><path id="rect4222-5-8-7" fill="#bdb49e" fill-opacity="1" d="M120.261 580.773h1.2v.4h-1.2z"/><path id="rect4224-2-2-8" fill="#bdb49e" fill-opacity="1" d="M121.861 580.773h.4v.4h-.4z"/><path id="rect4226-5-3-6" fill="#bdb49e" fill-opacity="1" d="M111.461 581.573h.8v.4h-.8z"/><path id="rect4228-4-5-8" fill="#bdb49e" fill-opacity="1" d="M111.461 582.373h1.6v.4h-1.6z"/><path id="rect4230-6-4-6" fill="#bdb49e" fill-opacity="1" d="M113.461 582.373h1.6v.4h-1.6z"/><path id="rect4232-8-1-3" fill="#bdb49e" fill-opacity="1" d="M115.461 582.373h1.6v.4h-1.6z"/><path id="rect4234-4-9-6" fill="#bdb49e" fill-opacity="1" d="M117.461 582.373h.8v.4h-.8z"/><path id="rect4243-68-1-7" fill="#bdb49e" fill-opacity="1" d="M111.461 583.173h1.2v.4h-1.2z"/><path id="rect4245-21-8-5" fill="#bdb49e" fill-opacity="1" d="M113.061 583.173h.4v.4h-.4z"/><path id="rect4247-32-6-6" fill="#bdb49e" fill-opacity="1" d="M113.861 583.173h1.6v.4h-1.6z"/><path id="rect4249-1-0-2" fill="#bdb49e" fill-opacity="1" d="M115.861 583.173h1.2v.4h-1.2z"/><path id="rect4251-8-8-1" fill="#bdb49e" fill-opacity="1" d="M117.461 583.173h2v.4h-2z"/></g><rect rx="3.448" y="60.112" x="23.158" height="20.842" width="20.842" id="rect10240-3" opacity=".2" fill="#232629" fill-opacity="1" stroke="none"/><rect class="ColorScheme-Background" id="rect10242-9" width="19.684" height="19.684" x="22.579" y="59.533" rx="1.968" ry="1.968" color="#31363b" fill="currentColor" fill-opacity="1" stroke="#3daee9" stroke-width="1.158" stroke-miterlimit="4" stroke-dasharray="none" stroke-opacity="1"/><path class="ColorScheme-Highlight" id="rect10244-5" color="#3daee9" fill="currentColor" fill-opacity="1" stroke="none" d="M25.474 62.428h13.895v13.895H25.474z"/><rect ry="2.8" rx="2.8" y="115.954" x="47.282" height="28" width="28" id="rect10238-9" class="ColorScheme-Background" color="#31363b" fill="currentColor" fill-opacity=".004" stroke="none"/><rect ry="2.8" rx="2.8" y="145.954" x="47.282" height="28" width="28" id="rect10238-97" class="ColorScheme-Background" color="#31363b" fill="currentColor" fill-opacity=".004" stroke="none"/><rect rx="3.448" y="147.112" x="49.44" height="20.842" width="20.842" id="rect10240-5" opacity=".2" fill="#232629" fill-opacity="1" stroke="none"/><rect class="ColorScheme-Background" id="rect10242-8" width="19.684" height="19.684" x="48.861" y="146.533" rx="1.968" ry="1.968" color="#31363b" fill="currentColor" fill-opacity="1" stroke="#3daee9" stroke-width="1.158" stroke-miterlimit="4" stroke-dasharray="none" stroke-opacity="1"/><path class="ColorScheme-Highlight" id="rect10244-0" color="#3daee9" fill="currentColor" fill-opacity="1" stroke="none" d="M51.755 149.428H65.65v13.895H51.755z"/><rect rx="3.448" y="177.112" x="49.44" height="20.842" width="20.842" id="rect10240-1-7" opacity=".2" fill="#232629" fill-opacity="1" stroke="none"/><rect class="ColorScheme-Background" id="rect10242-3-9" width="19.684" height="19.684" x="48.861" y="176.533" rx="1.968" ry="1.968" color="#31363b" fill="currentColor" fill-opacity="1" stroke="#3daee9" stroke-width="1.158" stroke-miterlimit="4" stroke-dasharray="none" stroke-opacity="1"/><path class="ColorScheme-Highlight" id="rect10244-7-1" color="#3daee9" fill="currentColor" fill-opacity="1" stroke="none" d="M51.755 179.428H65.65v13.895H51.755z"/><g transform="matrix(.55 0 0 .55 -138.432 -101.135)" id="layer1-51" stroke="none"><rect ry="0" y="503.798" x="390.571" height="40" width="36" id="rect4139" opacity="1" fill="url(#linearGradient4158-9)" fill-opacity="1"/><path id="path4542" transform="translate(384.571 499.798)" d="M42 6.707a16.607 16.607 0 0 0-3.291 1.828c-1.845 1.31-3.592 2.961-5.242 4.951-1.602 1.942-3.059 4.152-4.37 6.627a33.203 33.203 0 0 0-2.84 7.573c-.679 2.62-.97 5.024-.872 7.209.145 2.135.606 3.932 1.383 5.388.776 1.456 1.844 2.5 3.203 3.131 1.359.631 2.962.752 4.806.363 1.796-.388 3.617-1.236 5.461-2.547A26.056 26.056 0 0 0 42 39.83v-4.57a18.5 18.5 0 0 1-1.105.8c-1.457.923-2.866 1.456-4.225 1.602-1.408.146-2.596-.097-3.566-.728-.971-.631-1.724-1.578-2.258-2.84-.486-1.262-.729-2.766-.729-4.514 0-1.796.29-3.739.873-5.826a26.74 26.74 0 0 1 2.477-5.97c1.068-1.943 2.232-3.642 3.494-5.098 1.31-1.505 2.67-2.719 4.078-3.641.322-.214.642-.4.961-.574z" style="line-height:125%;-inkscape-font-specification:'Impregnable Personal Use Only'" font-style="normal" font-variant="normal" font-weight="400" font-stretch="normal" font-size="medium" font-family="Impregnable Personal Use Only" letter-spacing="0" word-spacing="0" fill="url(#linearGradient4555)" fill-opacity="1" stroke-width="1" stroke-linecap="butt" stroke-linejoin="miter" stroke-opacity="1"/><path id="rect4171-3" opacity="1" fill="#080809" fill-opacity="1" d="M390.571 542.798h36v1h-36z"/><path id="rect4965" opacity=".6" fill="#080809" fill-opacity="1" stroke-opacity="1" d="M390.571 503.798h2v40h-2z"/><path id="path4873" transform="translate(384.571 499.798)" d="M16 4v17l-4-2.309L8 21l23 23h11V30z" opacity=".2" fill="url(#linearGradient4884)" fill-opacity="1" fill-rule="evenodd" stroke-width="1" stroke-linecap="butt" stroke-linejoin="miter" stroke-opacity="1"/><path id="rect4967" opacity="1" fill="#8b8f8f" fill-opacity="1" stroke-opacity="1" d="M392.571 541.798h34v1h-34z"/><path id="rect4971" opacity="1" fill="#212323" fill-opacity=".452" stroke-opacity="1" d="M392.571 540.798h34v1h-34z"/><path id="rect4783" d="M392.571 503.798v17l4-2.309 4 2.309v-17z" opacity="1" fill="url(#linearGradient4866)" fill-opacity="1" stroke-opacity="1"/><path id="rect5011" d="M393.571 503.798h6v15l-3-2-3 2z" opacity=".15" fill="url(#linearGradient5028)" fill-opacity="1" stroke-opacity="1"/></g><g id="g21586-8-5-9" transform="translate(-47.198 -208.772) scale(1.15789)"><rect id="rect10240-1-7-4" width="18" height="18" x="83.461" y="359.173" rx="2.978" opacity=".2" fill="#232629" fill-opacity="1" stroke="none"/><rect ry="1.7" rx="1.7" y="358.673" x="82.961" height="17" width="17" id="rect10242-3-9-8" class="ColorScheme-Background" color="#31363b" fill="currentColor" fill-opacity="1" stroke="#3daee9" stroke-width="1" stroke-miterlimit="4" stroke-dasharray="none" stroke-opacity="1"/></g><g transform="matrix(.55 0 0 .55 -138.432 -71.135)" id="layer1-8" fill-opacity="1" stroke="none"><path id="path4194-6" transform="translate(384.571 499.798)" d="M9 11v2l1-1zm30 0l-1 1 1 1z" fill="url(#linearGradient4205-8)" fill-rule="evenodd" stroke-width="1" stroke-linecap="butt" stroke-linejoin="miter" stroke-opacity="1"/><rect ry="0" y="513.798" x="390.571" height="30" width="36" id="rect4139-4" opacity="1" fill="url(#linearGradient4158-98)"/><path id="path4224" transform="translate(384.571 499.798)" d="M23 23v7h-7l3 3h3v3l1 1v2h-7l5 5h21V33L32 23v7h-2l-1-1h-3v-3zm3 10h5v5h-5z" opacity=".2" fill="url(#linearGradient4232)" fill-rule="evenodd" stroke-width="1" stroke-linecap="butt" stroke-linejoin="miter" stroke-opacity="1"/><path d="M10 10l-1 1 1 1-4 2h36l-4-2 1-1-1-1H24z" transform="translate(384.571 499.798)" id="path4172-4" fill="url(#linearGradient4174-7)" fill-rule="evenodd" stroke-width="1" stroke-linecap="butt" stroke-linejoin="miter" stroke-opacity="1"/><path id="path4183-8" transform="translate(384.571 499.798)" d="M10 10l-1 1 1 1-4 2h36l-4-2 1-1-1-1H24z" opacity=".6" fill="url(#linearGradient4302-8)" fill-rule="evenodd" stroke-width="1" stroke-linecap="butt" stroke-linejoin="miter" stroke-opacity="1"/><path id="rect4176-9" transform="translate(384.571 499.798)" d="M10 10l-1 1h30l-1-1H24z" opacity=".2" fill="#000" stroke-opacity="1"/><path id="rect4304-8" d="M400.571 516.798v-5c0-4.432 3.568-8 8-8s8 3.568 8 8v5h-1v-5c0-3.878-3.122-7-7-7s-7 3.122-7 7v5z" opacity="1" fill="url(#linearGradient4187-2)" stroke-opacity="1"/><path id="path4189-6" d="M401.071 514.798a1.5 1.5 0 0 1 1.5 1.5 1.5 1.5 0 0 1-1.5 1.5 1.5 1.5 0 0 1-1.5-1.5 1.5 1.5 0 0 1 1.5-1.5zm0 1a.5.5 0 0 0-.5.5.5.5 0 0 0 .5.5.5.5 0 0 0 .5-.5.5.5 0 0 0-.5-.5z" opacity="1" fill="url(#linearGradient4290-26)" stroke-opacity="1"/><path id="circle4191-5" transform="translate(384.571 499.798)" d="M31.5 15a1.5 1.5 0 0 0-1.5 1.5 1.5 1.5 0 0 0 1.5 1.5 1.5 1.5 0 0 0 1.5-1.5 1.5 1.5 0 0 0-1.5-1.5zm0 1a.5.5 0 0 1 .5.5.5.5 0 0 1-.5.5.5.5 0 0 1-.5-.5.5.5 0 0 1 .5-.5z" opacity="1" fill="url(#linearGradient4282-9)" stroke-opacity="1"/><path id="rect4202-6" transform="translate(384.571 499.798)" d="M16 23v7h7v-7zm9 0v7h7v-7zm-8 1h5v5h-5zm9 0h5v5h-5zm-10 8v7h7v-7zm9 0v7h7v-7zm-8 1h5v5h-5zm9 0h5v5h-5z" fill="url(#linearGradient4222)"/><path id="rect4171-39" opacity="1" fill="#1c5593" d="M390.571 542.798h36v1h-36z"/></g></svg>