<svg xmlns="http://www.w3.org/2000/svg" xmlns:xlink="http://www.w3.org/1999/xlink" viewBox="0 0 256 256"><defs><linearGradient gradientUnits="userSpaceOnUse" y2="517.798" x2="400.571" y1="545.798" x1="400.571" id="C" xlink:href="#a"/><linearGradient id="a"><stop offset="0" stop-color="#197cf1"/><stop offset="1" stop-color="#20bcfa"/></linearGradient><linearGradient gradientUnits="userSpaceOnUse" y2="25" x2="25" y1="9" x1="9" id="D" xlink:href="#b"/><linearGradient id="b"><stop offset="0" stop-color="#292c2f"/><stop offset="1" stop-opacity="0"/></linearGradient><linearGradient gradientUnits="userSpaceOnUse" y2="9" x2="16" y1="23" x1="16" id="E" xlink:href="#c"/><linearGradient id="c"><stop offset="0" stop-color="#7cbaf8"/><stop offset="1" stop-color="#f4fcff"/></linearGradient><linearGradient gradientUnits="userSpaceOnUse" y2="517.798" x2="400.571" y1="545.798" x1="400.571" id="z" xlink:href="#d"/><linearGradient id="d"><stop offset="0" stop-color="#c61423"/><stop offset="1" stop-color="#dc2b41"/></linearGradient><linearGradient gradientUnits="userSpaceOnUse" y2="24" x2="25" y1="8" x1="9" id="A" xlink:href="#b"/><linearGradient gradientUnits="userSpaceOnUse" y2="9" x2="16" y1="23" x1="16" id="B" xlink:href="#e"/><linearGradient id="e"><stop offset="0" stop-color="#f7abb2"/><stop offset="1" stop-color="#f9dce0"/></linearGradient><linearGradient gradientUnits="userSpaceOnUse" y2="517.798" x2="400.571" y1="545.798" x1="400.571" id="w" xlink:href="#f"/><linearGradient id="f"><stop offset="0" stop-color="#8e44ad"/><stop offset="1" stop-color="#9b59b6"/></linearGradient><linearGradient gradientUnits="userSpaceOnUse" y2="24" x2="24" y1="9" x1="9" id="x" xlink:href="#b"/><linearGradient gradientUnits="userSpaceOnUse" y2="9" x2="16" y1="23" x1="16" id="y" xlink:href="#g"/><linearGradient id="g"><stop offset="0" stop-color="#b985ce"/><stop offset="1" stop-color="#e2cdeb"/></linearGradient><linearGradient xlink:href="#h" id="ar" x1="409.571" y1="543.798" x2="409.571" y2="503.798" gradientUnits="userSpaceOnUse"/><linearGradient id="h"><stop offset="0" stop-color="#1d1e1e"/><stop offset="1" stop-color="#44484c"/></linearGradient><linearGradient xlink:href="#b" id="as" x1="406.571" y1="517.798" x2="425.571" y2="536.798" gradientUnits="userSpaceOnUse"/><linearGradient xlink:href="#i" id="at" x1="417.571" y1="530.798" x2="417.571" y2="516.798" gradientUnits="userSpaceOnUse"/><linearGradient id="i"><stop offset="0" stop-color="#9ed3fb"/><stop offset="1" stop-color="#effaff"/></linearGradient><linearGradient xlink:href="#j" id="ai" x1="392.571" y1="516.798" x2="400.571" y2="508.798" gradientUnits="userSpaceOnUse" gradientTransform="translate(0 1)"/><linearGradient id="j"><stop offset="0" stop-color="#f39c12"/><stop offset="1" stop-color="#f5ab35"/></linearGradient><linearGradient xlink:href="#k" id="aj" x1="428.571" y1="519.798" x2="428.571" y2="504.798" gradientUnits="userSpaceOnUse" gradientTransform="translate(0 -1)"/><linearGradient id="k"><stop offset="0" stop-color="#bd8d48"/><stop offset="1" stop-color="#e8b971"/></linearGradient><linearGradient xlink:href="#l" id="ak" x1="428.571" y1="506.798" x2="406.571" y2="506.798" gradientUnits="userSpaceOnUse"/><linearGradient id="l"><stop offset="0" stop-color="#e3dfd6"/><stop offset="1" stop-color="#f4f1e8"/></linearGradient><linearGradient xlink:href="#k" id="al" x1="428.571" y1="519.798" x2="428.571" y2="504.798" gradientUnits="userSpaceOnUse" gradientTransform="translate(0 1)"/><linearGradient xlink:href="#m" id="am" x1="427.714" y1="536.291" x2="437.714" y2="536.291" gradientUnits="userSpaceOnUse"/><linearGradient id="m"><stop offset="0" stop-color="#ebc69a"/><stop offset="1" stop-color="#f4e0c8"/></linearGradient><linearGradient xlink:href="#n" id="an" x1="432.714" y1="531.791" x2="432.714" y2="544.791" gradientUnits="userSpaceOnUse" gradientTransform="rotate(-45 -392.172 755.393)"/><linearGradient id="n"><stop offset="0"/><stop offset="1" stop-opacity="0"/></linearGradient><linearGradient xlink:href="#m" id="ao" gradientUnits="userSpaceOnUse" x1="428.756" y1="541.508" x2="430.466" y2="528.513"/><linearGradient xlink:href="#o" id="ap" x1="25" y1="44" x2="25" y2="20" gradientUnits="userSpaceOnUse" gradientTransform="translate(384.571 499.798)"/><linearGradient id="o"><stop offset="0" stop-color="#eef1f2"/><stop offset="1" stop-color="#f9fafb"/></linearGradient><linearGradient xlink:href="#n" id="aq" x1="419.571" y1="529.798" x2="426.571" y2="536.798" gradientUnits="userSpaceOnUse"/><linearGradient xlink:href="#p" id="ad" x1="-44.394" y1="-16.971" x2="-14.394" y2="-16.971" gradientUnits="userSpaceOnUse" gradientTransform="translate(58.788 33.941)"/><linearGradient id="p"><stop offset="0" stop-color="#95a5a6"/><stop offset="1" stop-color="#eff0f1"/></linearGradient><linearGradient xlink:href="#p" id="ae" x1="6" y1="3" x2="40" y2="37" gradientUnits="userSpaceOnUse" gradientTransform="rotate(180 24 24)"/><linearGradient xlink:href="#b" id="af" x1="24.817" y1="32.817" x2="32.067" y2="40.067" gradientUnits="userSpaceOnUse"/><linearGradient gradientUnits="userSpaceOnUse" y2="503.798" x2="409.571" y1="543.798" x1="409.571" id="ag" xlink:href="#a" gradientTransform="matrix(.65 0 0 .65 -241.571 -316.469)"/><linearGradient xlink:href="#c" id="ah" x1="16" y1="30" x2="16" y2="2" gradientUnits="userSpaceOnUse" gradientTransform="translate(8.373 8.393) scale(.97511)"/><linearGradient xlink:href="#a" id="U" x1="24" y1="44" x2="24" y2="11" gradientUnits="userSpaceOnUse"/><linearGradient xlink:href="#a" id="V" x1="409.571" y1="543.798" x2="409.571" y2="513.798" gradientUnits="userSpaceOnUse" gradientTransform="matrix(1.125 0 0 1 -51.072 0)"/><linearGradient xlink:href="#b" id="W" x1="400.571" y1="522.798" x2="416.572" y2="538.798" gradientUnits="userSpaceOnUse" gradientTransform="translate(-384.571 -499.798)"/><linearGradient xlink:href="#a" id="X" gradientUnits="userSpaceOnUse" x1="24" y1="14" x2="24" y2="10"/><linearGradient xlink:href="#h" id="Y" x1="25" y1="10" x2="25" y2="14" gradientUnits="userSpaceOnUse"/><linearGradient xlink:href="#a" id="Z" x1="408.571" y1="516.798" x2="408.571" y2="503.798" gradientUnits="userSpaceOnUse"/><linearGradient xlink:href="#q" id="aa" x1="400.571" y1="517.798" x2="400.571" y2="514.798" gradientUnits="userSpaceOnUse"/><linearGradient id="q"><stop offset="0" stop-color="#c6cdd1"/><stop offset="1" stop-color="#e0e5e7"/></linearGradient><linearGradient xlink:href="#q" id="ab" x1="32" y1="18" x2="32" y2="15" gradientUnits="userSpaceOnUse"/><linearGradient xlink:href="#c" id="ac" x1="24" y1="39" x2="24" y2="23" gradientUnits="userSpaceOnUse"/><linearGradient xlink:href="#h" id="P" gradientUnits="userSpaceOnUse" gradientTransform="matrix(1.125 0 0 1 -435.643 504.564)" x1="409.571" y1="543.798" x2="409.571" y2="503.798"/><linearGradient xlink:href="#d" id="Q" gradientUnits="userSpaceOnUse" gradientTransform="matrix(-2.83521 0 0 2.83875 47.655 -1933.284)" x1="7.285" y1="1050.339" x2="7.285" y2="1038.362"/><linearGradient xlink:href="#a" id="R" gradientUnits="userSpaceOnUse" gradientTransform="translate(-384.571 504.564)" x1="396.571" y1="520.798" x2="396.571" y2="503.798"/><linearGradient xlink:href="#b" id="S" gradientUnits="userSpaceOnUse" gradientTransform="translate(0 1004.362)" x1="8" y1="4" x2="22" y2="18"/><linearGradient xlink:href="#r" id="T" gradientUnits="userSpaceOnUse" gradientTransform="translate(-384.571 504.564)" x1="396.571" y1="527.798" x2="396.571" y2="504.798"/><linearGradient id="r"><stop offset="0" stop-color="#fff"/><stop offset="1" stop-color="#fff" stop-opacity="0"/></linearGradient><linearGradient xlink:href="#k" id="K" x1="409.571" y1="543.798" x2="409.571" y2="503.798" gradientUnits="userSpaceOnUse" gradientTransform="matrix(1.125 0 0 1 -51.072 0)"/><linearGradient xlink:href="#s" id="L" x1="409.571" y1="542.798" x2="409.571" y2="504.798" gradientUnits="userSpaceOnUse"/><linearGradient id="s"><stop offset="0" stop-color="#977a5c"/><stop offset="1" stop-color="#9d8062"/></linearGradient><linearGradient xlink:href="#l" id="M" x1="408.571" y1="541.798" x2="408.571" y2="505.798" gradientUnits="userSpaceOnUse"/><linearGradient xlink:href="#t" id="N" x1="414.571" y1="531.798" x2="426.571" y2="543.798" gradientUnits="userSpaceOnUse"/><linearGradient id="t"><stop offset="0" stop-color="#383e51"/><stop offset="1" stop-color="#655c6f" stop-opacity="0"/></linearGradient><linearGradient xlink:href="#u" id="O" x1="413.571" y1="528.798" x2="418.571" y2="533.798" gradientUnits="userSpaceOnUse"/><linearGradient id="u"><stop offset="0" stop-color="#bdb49e" stop-opacity=".259"/><stop offset="1" stop-color="#bdb49e" stop-opacity="0"/></linearGradient><linearGradient gradientUnits="userSpaceOnUse" y2="4" x2="26" y1="44" x1="26" id="F" xlink:href="#a" gradientTransform="matrix(-1 0 0 1 432.571 499.798)"/><linearGradient xlink:href="#b" id="G" x1="388.571" y1="503.798" x2="418.571" y2="533.798" gradientUnits="userSpaceOnUse" gradientTransform="translate(-359.572 -505.798)"/><linearGradient xlink:href="#d" id="H" x1="401.571" y1="515.798" x2="401.571" y2="509.798" gradientUnits="userSpaceOnUse" gradientTransform="translate(25 -6)"/><linearGradient xlink:href="#b" id="I" x1="422.85" y1="504.869" x2="428.779" y2="510.798" gradientUnits="userSpaceOnUse" gradientTransform="translate(-384.571 -499.798)"/><linearGradient xlink:href="#v" id="J" x1="41" y1="9" x2="41" y2="5" gradientUnits="userSpaceOnUse" gradientTransform="translate(384.571 499.798)"/><linearGradient id="v"><stop offset="0" stop-color="#f7aeb4"/><stop offset="1" stop-color="#f8d4d9"/></linearGradient><style/></defs><path d="M16 10h224c3.324 0 6 2.676 6 6v224c0 3.324-2.676 6-6 6H16c-3.324 0-6-2.676-6-6V16c0-3.324 2.676-6 6-6z" fill="currentColor" fill-opacity=".5" color="#31363b"/><path d="M16 12h224c2.216 0 4 1.784 4 4v224c0 2.216-1.784 4-4 4H16c-2.216 0-4-1.784-4-4V16c0-2.216 1.784-4 4-4z" fill="#31363b" color="#eff0f1"/><rect ry="0" rx="0" y="20" x="20" height="36" width="216" opacity=".5" fill="#f2f2f2" stroke-width=".928" stroke-opacity=".2"/><rect ry="0" rx="0" y="21" x="21" height="34" width="214" fill="#31363b" stroke-width=".928" stroke-opacity=".2"/><g transform="translate(-417.796 -391.769) scale(1.14286)"><rect width="28" height="28" x="386.571" y="517.798" ry="14" fill="url(#w)"/><path d="M20.883 10.982c-.198.186-.514.492-.73.696A6 6 0 0 1 22 16a6 6 0 0 1-6 6 6 6 0 0 1-4.436-1.969c-.226.233-.508.51-.71.723l8.761 8.762a13.948 13.948 0 0 0 9.9-9.9z" transform="translate(384.571 515.798)" opacity=".2" fill="url(#x)"/><path d="M16 9a7 7 0 0 0-7 7 7 7 0 0 0 7 7 7 7 0 0 0 7-7 7 7 0 0 0-7-7zm-.014 1A6 6 0 0 1 16 10a6 6 0 0 1 1.191.12 6 6 0 0 1 2.196.929 6 6 0 0 1 .002 0 6 6 0 0 1 .914.771 6 6 0 0 1 .396.45 6 6 0 0 1 0 .002 6 6 0 0 1 .35.486 6 6 0 0 1 0 .002 6 6 0 0 1 .543 1.066 6 6 0 0 1 0 .002A6 6 0 0 1 21.914 15 6 6 0 0 1 22 16a6 6 0 0 1-.09 1 6 6 0 0 1 0 .004 6 6 0 0 1-.123.553 6 6 0 0 1-.006.029 6 6 0 0 1-.004.014 6 6 0 0 1-.164.5 6 6 0 0 1-.031.086 6 6 0 0 1-.225.501 6 6 0 0 1-.007.016 6 6 0 0 1-.004.006 6 6 0 0 1-.26.461 6 6 0 0 1-.05.084 6 6 0 0 1-.284.396 6 6 0 0 1-.068.092 6 6 0 0 1-.32.367 6 6 0 0 1-.079.082 6 6 0 0 1-.344.323 6 6 0 0 1-.101.09 6 6 0 0 1-.354.27 6 6 0 0 1-.133.095 6 6 0 0 1-.363.224 6 6 0 0 1-.152.088 6 6 0 0 1-.379.184 6 6 0 0 1-.166.074 6 6 0 0 1-.352.131 6 6 0 0 1-.232.076 6 6 0 0 1-.324.084 6 6 0 0 1-.272.06 6 6 0 0 1-.283.046 6 6 0 0 1-.322.039 6 6 0 0 1-.461.023A6 6 0 0 1 16 22a6 6 0 0 1-1.191-.12 6 6 0 0 1-1.145-.355 6 6 0 0 1-1.05-.574 6 6 0 0 1-.003 0 6 6 0 0 1-.914-.771 6 6 0 0 1-.396-.45 6 6 0 0 1 0-.002 6 6 0 0 1-.35-.486 6 6 0 0 1 0-.002 6 6 0 0 1-.543-1.066 6 6 0 0 1 0-.002A6 6 0 0 1 10.086 17 6 6 0 0 1 10 16a6 6 0 0 1 .09-1 6 6 0 0 1 0-.004 6 6 0 0 1 .123-.553 6 6 0 0 1 .01-.043 6 6 0 0 1 .164-.5 6 6 0 0 1 .031-.086 6 6 0 0 1 .225-.501 6 6 0 0 1 .011-.022 6 6 0 0 1 .26-.46 6 6 0 0 1 .05-.085 6 6 0 0 1 .284-.396 6 6 0 0 1 .068-.092 6 6 0 0 1 .32-.367 6 6 0 0 1 .079-.082 6 6 0 0 1 .344-.323 6 6 0 0 1 .101-.09 6 6 0 0 1 .354-.269 6 6 0 0 1 .133-.096 6 6 0 0 1 .363-.224 6 6 0 0 1 .152-.088 6 6 0 0 1 .38-.184 6 6 0 0 1 .165-.074 6 6 0 0 1 .352-.13 6 6 0 0 1 .232-.077 6 6 0 0 1 .324-.084 6 6 0 0 1 .272-.06 6 6 0 0 1 .283-.046 6 6 0 0 1 .322-.039 6 6 0 0 1 .461-.023 6 6 0 0 1 .033-.002zm1.307 2L14 15.293l-.707.707.707.707L17.293 20l.707-.707L14.707 16 18 12.707 17.293 12z" transform="translate(384.571 515.798)" fill="url(#y)"/></g><g transform="translate(-300.996 -391.769) scale(1.14286)"><rect width="28" height="28" x="386.571" y="517.798" ry="14" fill="url(#z)"/><path d="M17 9v7h-2l4.713 4.713A6 6 0 0 1 16 22a6 6 0 0 1-4.24-1.76l-.71.71 8.565 8.566a13.948 13.948 0 0 0 9.9-9.9L20.95 11.05l-.709.709a6 6 0 0 1 1.155 1.635L17 9z" transform="translate(384.571 515.798)" opacity=".2" fill="url(#A)"/><path d="M15 9v7h2V9h-2zm-1 .295A7 7 0 0 0 9 16a7 7 0 0 0 7 7 7 7 0 0 0 7-7 7 7 0 0 0-5-6.701v1.05A6 6 0 0 1 22 16a6 6 0 0 1-6 6 6 6 0 0 1-6-6 6 6 0 0 1 4-5.65V9.295z" transform="translate(384.571 515.798)" fill="url(#B)"/></g><g transform="translate(-358.596 -391.769) scale(1.14286)"><rect width="28" height="28" x="386.571" y="517.798" ry="14" fill="url(#C)"/><path d="M16 10a6 6 0 0 0-2.463.537l7.928 7.928A6 6 0 0 0 22 16a6 6 0 0 0-6-6zm4.95 1.05l-.003.003a7 7 0 0 1 .074.07l-.072-.072zm.071.073a7 7 0 0 1 1.758 3.162l-.002-.002c.068.263.118.53.155.799v.002a7 7 0 0 1 .013.12c.032.264.054.53.055.796 0 .26-.018.517-.047.773v.01a7 7 0 0 1-.133.77l-.002.008a7 7 0 0 1-.611 1.646l5.07 5.07a13.91 13.91 0 0 0 2.239-4.662l-8.495-8.492zM9.738 12.891a7 7 0 0 0-.254.572c.076-.194.161-.385.254-.572zm.797.644A6 6 0 0 0 10 16a6 6 0 0 0 6 6 6.006 6.006 0 0 0 2.463-.537l-7.928-7.928zm-1.127.137a7 7 0 0 0-.168.539c.049-.182.105-.362.168-.54zm-.226.767a7 7 0 0 0-.104.58 7.19 7.19 0 0 1 .104-.58zm-.135.778A7 7 0 0 0 9 16a6.8 6.8 0 0 1 .047-.783zM9 16a7 7 0 0 0 .055.797A6.98 6.98 0 0 1 9 16zm.068.916a7 7 0 0 0 .153.799l.002.002a6.989 6.989 0 0 1-.155-.8zm1.985 4.031l-.002.002 8.564 8.567a13.91 13.91 0 0 0 4.662-2.239L19.21 22.21A7 7 0 0 1 16 23a7 7 0 0 1-4.947-2.053z" transform="translate(384.571 515.798)" opacity=".2" fill="url(#D)"/><path d="M16 9a7 7 0 0 0-3.209.791l.584.584.164.164 2.664 2.664.707-.707-2.318-2.318A6 6 0 0 1 16 10a6 6 0 0 1 6 6 6 6 0 0 1-.541 2.459l.756.756A7 7 0 0 0 23 16a7 7 0 0 0-7-7zm-6.215 3.785A7 7 0 0 0 9 16a7 7 0 0 0 7 7 7.003 7.003 0 0 0 3.209-.791l-.584-.584-.164-.164-2.664-2.664-.707.707 2.318 2.318A6 6 0 0 1 16 22a6 6 0 0 1-6-6 5.994 5.994 0 0 1 .541-2.459l-.756-.756z" transform="translate(384.571 515.798)" fill="url(#E)"/></g><g transform="matrix(.8 0 0 .8 -287.857 -280.038)"><path d="M425.571 506.798v27h-18l-10 10v-10h-9v-27z" fill="url(#F)" fill-rule="evenodd"/><path transform="translate(384.571 499.798)" d="M41 7l-2 2 2 2V7z" opacity=".2" fill="url(#G)" fill-rule="evenodd"/><circle cy="506.798" cx="425.571" fill="url(#H)" r="3"/><path transform="translate(384.571 499.798)" d="M43 7l-1 .33L40 8l-.35.465 1.53 1.53a3 3 0 0 0 2.69-2.126L43 7z" opacity=".2" fill="url(#I)" fill-rule="evenodd"/><path d="M425.571 504.798c-.277 0-.5.223-.5.5v.293l-.207-.207a.499.499 0 1 0-.707.707l.207.207h-.293a.499.499 0 1 0 0 1h.293l-.207.207a.499.499 0 1 0 .707.707l.207-.207v.293a.499.499 0 1 0 1 0v-.293l.207.207a.499.499 0 1 0 .707-.707l-.207-.207h.293a.499.499 0 1 0 0-1h-.293l.207-.207a.499.499 0 1 0-.707-.707l-.207.207v-.293c0-.277-.223-.5-.5-.5z" fill="url(#J)"/></g><g transform="matrix(.8 0 0 .8 -170.057 -280.038)"><rect ry="0" y="503.798" x="390.571" height="40" width="36" fill="url(#K)"/><path opacity=".5" fill="url(#L)" d="M391.571 504.798h34v38h-34z"/><path fill="#aa7f41" d="M390.571 542.798h36v1h-36z"/><path fill="url(#M)" d="M392.571 505.798h32v36h-32z"/><path fill="#bdb49e" d="M412.571 531.798h3v1h-3z"/><path fill="#2d2110" fill-opacity=".314" d="M392.571 539.798h32v2h-32z"/><path d="M424.571 529.798l-10 10v-10z" fill="#ebebeb" fill-rule="evenodd"/><path d="M414.571 539.798l4 4h8v-12l-2-2z" opacity=".2" fill="url(#N)" fill-rule="evenodd"/><path fill="#2d2110" fill-opacity=".314" d="M392.571 540.798h32v1h-32z"/><path d="M415.571 530.798v8l8-8z" fill="url(#O)" fill-rule="evenodd"/><path fill="#bdb49e" d="M394.571 513.798h2v1h-2zM397.571 513.798h3v1h-3zM401.571 513.798h5v1h-5zM408.571 513.798h6v1h-6zM415.571 513.798h3v1h-3zM419.571 513.798h2v1h-2zM394.571 515.798h4v1h-4zM399.571 515.798h2v1h-2zM402.571 515.798h9v1h-9zM412.571 515.798h6v1h-6zM419.571 515.798h3v1h-3zM394.571 519.798h2v1h-2zM397.571 519.798h3v1h-3zM401.571 519.798h6v1h-6zM409.571 519.798h4v1h-4zM414.571 519.798h2v1h-2zM417.571 519.798h5v1h-5zM394.571 521.798h2v1h-2zM397.571 521.798h5v1h-5zM403.571 521.798h3v1h-3zM407.571 521.798h1v1h-1zM409.571 521.798h5v1h-5zM415.571 521.798h3v1h-3zM419.571 521.798h3v1h-3zM394.571 525.798h6v1h-6zM401.571 525.798h3v1h-3zM405.571 525.798h3v1h-3zM409.571 525.798h3v1h-3zM413.571 525.798h5v1h-5zM419.571 525.798h1v1h-1zM394.571 527.798h5v1h-5zM400.571 527.798h5v1h-5zM406.571 527.798h5v1h-5zM412.571 527.798h3v1h-3zM416.571 527.798h3v1h-3zM420.571 527.798h1v1h-1zM394.571 529.798h2v1h-2zM394.571 531.798h4v1h-4zM399.571 531.798h4v1h-4zM404.571 531.798h4v1h-4zM409.571 531.798h2v1h-2zM394.571 533.798h3v1h-3zM398.571 533.798h1v1h-1zM400.571 533.798h4v1h-4zM405.571 533.798h3v1h-3zM409.571 533.798h5v1h-5z"/></g><g transform="matrix(.8 0 0 .8 137.6 -733.69)"><rect ry="0" y="1008.362" x="6" height="40" width="36" fill="url(#P)"/><path d="M36.721 1014.362c.46.028.953 0 1.495.375 4.83 2.079 1.59 7.782-4.568 12.123-.037-.818-.377-2.599-.369-3.383 5.254-3.601 8.328-7.108 4.98-8.498-3.53-1.465-4.626 2.535-4.689 8.342-.329.34-2.607 1.854-2.953 2.092.128-5.295 2.943-10.7 5.648-11.006.144-.028.303-.028.456-.028m-4.918 9.212l1.1-.428.91.614.184 1.933-1.151.883-.478.64c-3.544 2.352-6.563 4.163-10.536 5.659l-2.477.368h-1.63c-1.503-.886-.607-1.227-6.068-1.908l6.153.477c4.746-1.84 9.59-4.483 13.996-7.366m-10.83 7.708c-.712 0-6.265-.482-8.474-.687-2.186-.34-4.87-.443-4.363 2.113-.578-1.363.74-3.677 2.614-4.085 2.897-.648 7.495 1.128 9.148 1.673m-2.664.708c.862.341 2.831.588 3.761.894-1.318.682-7.937 3.126-10.67 2.615-.437 0-2.283-1.328-2.328-2.282.142 1.738 8.234.443 9.237-1.26m-1.8.03c.709-.34 4.028-.324 4.762-.596 4.158 1.454 9.752 4.87 13.755 7.173l1.16.34c.223 1.591 1.204 2.14 2.098 3.17l-1.355 1.363-1.06-1.738c-4.688-2.828-13.953-7.398-19.357-9.593m19.356 9.593a43.6 43.6 0 0 1 1.639 1.022c1.202 3.411 2.603 5.708 3.941 5.609-2.067.988-6.519-3.882-8.019-8.461m8.019 8.46c3.153-1.873-3.52-5.289-5.015-6.28-.337-.954.585-2.535.284-3.66 4.707 2.93 7.49 7.17 5.91 9.18-.38.478-.782.717-1.182.75m-4.58-7.14c-.22-.877-3.127-2.875-3.651-3.182-.704-5.537-.737-6.084-1.335-10.388.358-.34 2.556-2.055 2.897-2.293.422 4.6 1.216 10.834 2.339 14.998" fill="url(#Q)"/><path fill="#080809" d="M6 1047.362h36v1H6z"/><path d="M8 1008.362v17l4-2.308 4 2.308v-17H8z" fill="url(#R)"/><path opacity=".6" fill="#080809" d="M6 1008.362h2v40H6z"/><path d="M16 1008.362v17l-4-2.308-4 2.308 23 23h11v-14l-26-26z" opacity=".2" fill="url(#S)" fill-rule="evenodd"/><path fill="#8b8f8f" d="M8 1046.362h34v1H8z"/><path fill="#212323" fill-opacity=".452" d="M8 1045.362h34v1H8z"/><path d="M9 1008.362h6v15l-3-2-3 2z" opacity=".15" fill="url(#T)"/></g><g transform="matrix(.8 0 0 .8 -227.657 -330.039)"><path transform="translate(384.571 499.798)" d="M9 11v2l1-1-1-1zm30 0l-1 1 1 1v-2z" fill="url(#U)" fill-rule="evenodd"/><rect ry="0" y="513.798" x="390.571" height="30" width="36" fill="url(#V)"/><path transform="translate(384.571 499.798)" d="M23 23v7h-7l3 3h3v3l1 1v2h-7l5 5h21V33L32 23v7h-2l-1-1h-3v-3l-3-3zm3 10h5v5h-5v-5z" opacity=".2" fill="url(#W)" fill-rule="evenodd"/><path d="M10 10l-1 1 1 1-4 2h36l-4-2 1-1-1-1H10z" transform="translate(384.571 499.798)" fill="url(#X)" fill-rule="evenodd"/><path transform="translate(384.571 499.798)" d="M10 10l-1 1 1 1-4 2h36l-4-2 1-1-1-1H10z" opacity=".6" fill="url(#Y)" fill-rule="evenodd"/><path d="M394.571 509.798l-1 1h30l-1-1h-28z" opacity=".2"/><path d="M400.571 516.798v-5c0-4.432 3.568-8 8-8s8 3.568 8 8v5h-1v-5c0-3.878-3.122-7-7-7s-7 3.122-7 7v5z" fill="url(#Z)"/><path d="M401.071 514.798a1.5 1.5 0 0 1 1.5 1.5 1.5 1.5 0 0 1-1.5 1.5 1.5 1.5 0 0 1-1.5-1.5 1.5 1.5 0 0 1 1.5-1.5zm0 1a.5.5 0 0 0-.5.5.5.5 0 0 0 .5.5.5.5 0 0 0 .5-.5.5.5 0 0 0-.5-.5z" fill="url(#aa)"/><path transform="translate(384.571 499.798)" d="M31.5 15a1.5 1.5 0 0 0-1.5 1.5 1.5 1.5 0 0 0 1.5 1.5 1.5 1.5 0 0 0 1.5-1.5 1.5 1.5 0 0 0-1.5-1.5zm0 1a.5.5 0 0 1 .5.5.5.5 0 0 1-.5.5.5.5 0 0 1-.5-.5.5.5 0 0 1 .5-.5z" fill="url(#ab)"/><path transform="translate(384.571 499.798)" d="M16 23v7h7v-7h-7zm9 0v7h7v-7h-7zm-8 1h5v5h-5v-5zm9 0h5v5h-5v-5zm-10 8v7h7v-7h-7zm9 0v7h7v-7h-7zm-8 1h5v5h-5v-5zm9 0h5v5h-5v-5z" fill="url(#ac)"/><path fill="#1c5593" d="M390.571 542.798h36v1h-36z"/></g><g transform="translate(196.543 69.543) scale(.81069)"><circle transform="rotate(15)" r="15" cy="16.971" cx="29.394" style="marker:none" color="#000" overflow="visible" fill="url(#ad)" stroke-width="3" stroke-linecap="round" stroke-linejoin="round"/><path d="M27.168 43.736a20 20 0 0 0 3.959-1.054l-.344-3.118a17 17 0 0 0 3.307-1.906l2.521 1.852a20 20 0 0 0 2.897-2.903l-1.85-2.517a17 17 0 0 0 1.92-3.305l3.086.34a20 20 0 0 0 1.06-3.963l-2.841-1.248A17 17 0 0 0 41 24a17 17 0 0 0-.129-1.908l2.865-1.26a20 20 0 0 0-1.054-3.959l-3.118.344a17 17 0 0 0-1.906-3.307l1.852-2.521a20 20 0 0 0-2.903-2.897l-2.517 1.85a17 17 0 0 0-3.305-1.92l.34-3.086a20 20 0 0 0-3.963-1.06l-1.248 2.841A17 17 0 0 0 24 7a17 17 0 0 0-1.908.129l-1.26-2.865a20 20 0 0 0-3.959 1.054l.344 3.118a17 17 0 0 0-3.307 1.906L11.39 8.49a20 20 0 0 0-2.897 2.903l1.85 2.517a17 17 0 0 0-1.92 3.305l-3.086-.34a20 20 0 0 0-1.06 3.963l2.841 1.248A17 17 0 0 0 7 24a17 17 0 0 0 .129 1.908l-2.865 1.26a20 20 0 0 0 1.054 3.959l3.118-.344a17 17 0 0 0 1.906 3.307L8.49 36.61a20 20 0 0 0 2.903 2.897l2.517-1.85a17 17 0 0 0 3.305 1.92l-.34 3.086a20 20 0 0 0 3.963 1.06l1.248-2.841A17 17 0 0 0 24 41a17 17 0 0 0 1.908-.129l1.26 2.865zM24 38a14 14 0 0 1-14-14 14 14 0 0 1 14-14 14 14 0 0 1 14 14 14 14 0 0 1-14 14z" style="marker:none" color="#000" overflow="visible" fill="url(#ae)" stroke-width="3" stroke-linecap="round" stroke-linejoin="round"/><path d="M16.979 5.28l-.106.038.238 2.17.106-.052zm14.04.02l-.234 2.122.106.047.234-2.133a19.83 19.83 0 0 0-.105-.035zm8.086 5.64l-1.447 1.97a17 17 0 0 1 .356.516l1.496-2.037a20 20 0 0 0-.405-.45zm-30.21.001a20 20 0 0 0-.403.452l1.5 2.04c.113-.176.23-.35.35-.523zm34.648 8.975l-2.672 1.176c.033.322.058.645.072.969l2.793-1.229a20.004 20.004 0 0 0-.193-.916zm-39.074.008a20 20 0 0 0-.194.914l2.776 1.219a17 17 0 0 1 .066-.971zm2.556 3.502c-.011.191-.02.382-.025.574a17 17 0 0 0 .057.94l.072-.032a17 17 0 0 1-.104-1.482zm33.95.148c-.013.448-.044.895-.092 1.34l.066.03c.026-.315.043-.63.051-.944a17.101 17.101 0 0 0-.025-.426zm2.556 3.502a20 20 0 0 1-.867 3.049l-3.086-.34a17 17 0 0 1-1.92 3.305l.35.476a17 17 0 0 0 1.57-2.78l3.086.339a20 20 0 0 0 1.06-3.963zm-39.074.008l-.193.084a20 20 0 0 0 1.054 3.959l3.118-.344a17 17 0 0 0 1.55 2.791l.356-.484a17 17 0 0 1-1.906-3.307l-3.118.344a20 20 0 0 1-.861-3.043zm34.648 8.975a20 20 0 0 1-2.494 2.45l-2.521-1.85a17 17 0 0 1-3.307 1.905l.106.948a17 17 0 0 0 3.2-1.854l2.522 1.852a20 20 0 0 0 2.897-2.903zm-30.21.002l-.405.55a20 20 0 0 0 2.903 2.897l2.517-1.85a17 17 0 0 0 3.2 1.873l.105-.953a17 17 0 0 1-3.305-1.92l-2.517 1.85a20.005 20.005 0 0 1-2.498-2.447zm17.013 3.81A17 17 0 0 1 24 40a16.995 16.995 0 0 1-1.914-.117l-1.248 2.842a20 20 0 0 1-3.858-1.026l-.105.965a20 20 0 0 0 3.963 1.06l1.248-2.841A17 17 0 0 0 24 41c.638-.007 1.275-.05 1.908-.129l1.26 2.865a20 20 0 0 0 3.959-1.054l-.106-.961a20 20 0 0 1-3.853 1.015z" style="marker:none" color="#000" overflow="visible" fill="#95a5a6" stroke-width="3" stroke-linecap="round" stroke-linejoin="round"/><path d="M33 15L15 33l7.96 7.96c.347.024.693.038 1.04.04.638-.007 1.275-.05 1.908-.129l1.26 2.865a20 20 0 0 0 3.959-1.054l-.238-2.17-.106-.948a17 17 0 0 0 3.307-1.906l2.521 1.852a20 20 0 0 0 2.897-2.903l-1.5-2.04-.35-.477a17 17 0 0 0 1.92-3.305l3.086.34a20 20 0 0 0 1.06-3.963l-2.775-1.219-.066-.029A17 17 0 0 0 41 24a17 17 0 0 0-.057-.94l.02-.007-.008-.098L33 15z" opacity=".2" fill="url(#af)" fill-rule="evenodd"/><circle transform="rotate(-165)" r="13" cy="-16.971" cx="-29.394" style="marker:none" color="#000" overflow="visible" fill="#2a6bae" stroke-width="3" stroke-linecap="round" stroke-linejoin="round"/><g transform="translate(1.846 1.846) scale(.92308)"><rect width="26" height="26" x="11" y="11" ry="13" fill="url(#ag)" stroke-width="2.8" stroke-opacity=".55"/><path d="M24 11c-1.64 0-3.2.313-4.643.862-.105.096-.24.17-.349.161-.014-.001-.03-.01-.044-.016a12.92 12.92 0 0 0-2.025 1.075c.083.135.108.285-.064.358-.028.013-.39.049-.516.046a12.97 12.97 0 0 0-4.21 5.173c.015-.002.028-.009.043-.01a2.58 2.58 0 0 1 .481.067c.126.026.227.11.335.118.308.024.383-.216.634-.35.26.037.432-.044.666-.018.16.018.276.189.4.198.105.01.197-.098.299-.082.098.015.268.23.284.35.02.15-.11.285-.067.45.157.16.442.192.666.284.146-.12.02-.344 0-.518-.002-.077.01-.145 0-.216-.013-.12-.065-.23-.066-.333-.002-.474.383-.696.701-.883.138-.082.246-.225.366-.285.168-.084.294-.104.434-.182.252-.142.469-.256.666-.417.092-.215.01-.503.017-.716.091-.056.17.024.266.017.153-.032.165-.247.252-.333.05-.05.188-.084.25-.133.152-.12.201-.3.334-.35.047-.02.157-.015.232-.035.099-.026.24-.143.4-.198.105-.037.345-.044.385-.084.049-.05-.001-.191.016-.266.08-.377.648-.456.983-.583.235-.089.476-.252.734-.202-.051.179-.291.116-.25.333.056.301.46-.087.566-.131.203-.086.552-.138.819-.235.233-.086.653-.216.432-.484-.183-.01-.272.216-.432.285-.111.017-.09-.093-.185-.102-.09-.01-.14.083-.232.068-.092-.016-.22-.16-.235-.267-.036-.278.235-.393.35-.6-.076-.252-.424-.052-.634-.15.02-.15.175-.254.35-.282.144-.025.466-.012.551.065.05.042.003.147.084.217.085.076.19.068.3.05.04-.19-.247-.142-.216-.267.225-.148.591-.027.867-.068.159-.023.325-.135.466-.214.134-.077.307-.209.45-.084.038.136-.124.181-.2.249a5.414 5.414 0 0 0-.716.75c.122.119.343.06.548.084.08.01.182.034.267.05.1.017.205.012.283.032.14.035.178.184.316.184.228 0 .23-.247.102-.4.04-.158.104-.24.05-.35-.103-.205-.48-.01-.5-.266-.012-.167.14-.16.2-.284-.028-.32.263-.344.232-.632-.014-.12-.115-.122-.2-.235-.042-.055-.064-.161-.112-.21A13.265 13.265 0 0 0 24 11zm-6.708 2.623h.001c.078.011.171.094.265.101.09.002.163-.049.218-.034.139.037.198.247.067.35-.11.014-.152-.047-.234-.032-.226.038-.313.481-.482.467-.16-.014-.246-.403-.084-.518.01-.101-.074-.118-.069-.217.048-.062.185-.128.318-.117zm-.75.052c.046.001.08.013.099.033-.023.178-.162.166-.299.249-.237.143-.374.36-.45.666-.021.09-.255.325-.367.301-.265-.056.073-.543.133-.617.067-.082.156-.154.235-.249.076-.091.126-.215.2-.266a.982.982 0 0 1 .449-.117zm1.972.6c.085 0 .161.014.196.049-.055.22-.529.162-.702.082.011-.083.14-.106.25-.117.077-.002.172-.017.256-.015zm-1.079.405a.624.624 0 0 1 .173.027c-.153.128-.32.201-.583.284-.126.04-.345.09-.367-.052-.026-.173.186-.133.301-.148.146-.02.306-.105.476-.11zm16.555.988a.328.328 0 0 0-.032.14c.01.08.099.158.118.266.01.058-.027.183 0 .235.08.156.29.044.44.052-.17-.235-.34-.47-.526-.693zm.852 1.146a1.21 1.21 0 0 1-.165.361c-.146.221-.343.231-.551.35-.174.098-.249.262-.35.433-.111.185-.18.297-.134.565-.149.296-.374.477-.683.617-.091.041-.216.057-.3.117-.066.048-.104.177-.199.283-.117.13-.24.185-.3.285-.048.076-.065.23-.118.332-.07.14-.222.209-.316.35-.042.066-.07.199-.118.285-.105.192-.286.33-.266.499.019.163.204.192.217.334.002.08-.053.13-.05.217.002.128.09.217.1.316.024.247-.085.346-.131.515-.023.081-.013.172-.035.235-.04.124-.213.236-.217.382-.001.104.107.188.116.334.002.1-.05.208-.032.301.035.181.36.392.5.533.189.189.436.335.517.534.068.168.068.388.2.515.096.094.258.152.383.25.116.091.242.17.366.267.203.158.51.475.833.45.169-.012.342-.15.533-.184.197-.035.453-.053.652-.033.152.015.309.107.467.1.167-.011.359-.135.548-.218.153-.066.34-.14.546-.194C36.95 25.31 37 24.66 37 24c0-2.662-.796-5.13-2.158-7.186zM13.34 21.183c-.277.015-.458.028-.616.099-.36.164-.29.651-.651.767-.125.04-.296.041-.433.067-.118.022-.263.086-.385.084-.034 0-.081-.026-.124-.04-.032.229-.059.46-.079.692.343.066.52.52.823.67.083.042.191.044.298.068.087.02.152.056.235.084.176.06.392.052.533.115.213.095.369.494.551.6.011.108-.02.253.017.333.086.117.208.092.35.168.17.092.222.329.384.401.055.025.195.022.283.048.22.067.293.323.482.267.124-.037.115-.164.135-.283.082-.09.171-.23.3-.232.206-.011.225.214.3.415.043.113.154.212.183.332.052.207.026.827-.018.951-.052.152-.258.216-.384.385-.06.079-.089.194-.134.25-.081.1-.203.125-.264.217-.034.052-.068.163-.101.232-.1.212-.234.363-.15.617.035.105.199.175.2.299 0 .145-.31.275-.333.434-.018.118.095.33.133.484.027.116.247.189.316.266.117.131.21.318.317.483.212.324.377.72.583 1.034.109.165.262.313.334.484.037.086.032.189.066.267.12.268.645.55.917.683.127.061.268.083.384.148.177.099.527.363.616.518.08.14.129.478.168.7.051.292 0 .517.016.834.01.171.066.343.067.515.001.06-.031.105-.034.166l.003.032A12.986 12.986 0 0 0 24 37c.347 0 .69-.018 1.03-.044.014-.026.028-.053.047-.077.078-.102.147-.192.199-.283.05-.304-.121-.517-.05-.783.08-.3.494-.482.784-.617.1-.046.202-.122.283-.15.2-.07.451-.032.635-.099.312-.114.344-.45.498-.734.073-.134.169-.27.183-.365.013-.087-.031-.168-.017-.27.015-.1.105-.187.133-.298.036-.144.052-.356.052-.516 0-.132-.062-.248-.067-.367-.022-.433.156-.481.316-.716.08-.117.11-.25.166-.334.269-.4.734-.594.7-1.2-.01-.2-.136-.653-.284-.717-.084-.037-.277-.002-.4-.05-.393-.147-.625-.635-1.033-.666-.087-.01-.167.036-.265.034-.162-.01-.405-.113-.584-.133-.114-.013-.266.034-.334 0-.104-.05-.115-.243-.2-.3-.067-.046-.197-.062-.299-.101-.164-.063-.294-.137-.484-.15-.058-.002-.131.028-.199.018-.105-.018-.188-.142-.284-.201-.122-.074-.233-.11-.284-.215.11-.359-.193-.459-.266-.666-.035-.097-.02-.214-.05-.301-.043-.124-.166-.196-.3-.3-.242-.185-.456-.36-.8-.402-.152-.02-.302.045-.485.034-.194-.012-.438-.182-.583-.348-.141-.162-.21-.307-.333-.384-.116-.075-.27-.073-.35-.149-.035-.033-.03-.09-.067-.167-.059-.122-.157-.189-.084-.334-.133-.069-.137.126-.282.101-.13-.184-.239-.27-.533-.217-.135.025-.21.195-.367.2-.129.01-.23-.144-.4-.168-.128-.018-.274.035-.366.018-.142-.029-.186-.147-.316-.233-.095-.062-.28-.169-.334-.167-.167.01-.286.356-.518.233-.112-.142.183-.217.05-.35-.101-.101-.186.046-.267.102-.092.064-.18.127-.281.165-.23.085-.372.04-.551.133-.166.086-.173.23-.267.4-.077.14-.252.343-.367.351-.14.011-.273-.195-.4-.25-.382-.165-.566.147-.883.151-.295.011-.715-.475-.7-.751.002-.169.097-.425.117-.634.018-.166.131-.266.133-.417.002-.203-.268-.358-.4-.382-.311-.058-.743.125-1.1-.018-.069-.113.08-.191.118-.301.021-.063.009-.146.031-.215.04-.106.151-.188.201-.3.037-.086.046-.21.084-.317.043-.12.124-.199.133-.284a.374.374 0 0 0-.118-.316zm4.456 3.528c.113.01.127.244.011.263-.124.019-.187-.196-.067-.252a.1.1 0 0 1 .056-.01v-.001z" fill="url(#ah)"/></g></g><g color="#000" stroke-linecap="round" stroke-linejoin="round"><path style="marker:none" overflow="visible" fill="url(#ai)" d="M392.571 509.798h19v16h-19z" transform="scale(.79376 .8) rotate(-15 -1343.906 1672.436)"/><path style="marker:none" overflow="visible" opacity=".2" fill="#fff" d="M25.789 79.984l14.567-3.934.616 2.319-14.567 3.934z"/></g><path style="marker:none" color="#000" overflow="visible" fill="url(#aj)" stroke-linecap="round" stroke-linejoin="round" d="M406.571 504.798h22v33h-22z" transform="matrix(.79376 0 0 .8 -284.432 -330.039)"/><path style="marker:none" color="#000" overflow="visible" fill="url(#ak)" stroke-linecap="round" stroke-linejoin="round" d="M406.571 505.798h22v33h-22z" transform="matrix(.79376 0 0 .8 -284.432 -330.039)"/><path style="marker:none" color="#000" overflow="visible" fill="url(#al)" stroke-linecap="round" stroke-linejoin="round" d="M406.571 506.798h22v33h-22z" transform="matrix(.79376 0 0 .8 -284.432 -330.039)"/><g transform="matrix(.79376 0 0 .8 -296.452 -344.433)" fill="url(#am)"><path transform="translate(399.714 517.79)" d="M35.121 11.879L30.88 16.12l2.637 2.637-3.891.148L29 20v3l8.984.229 2.086 2.085 4.244-4.244-9.193-9.191z" style="marker:none" color="#000" overflow="visible" opacity=".2" fill="url(#an)" stroke-linecap="round" stroke-linejoin="round"/><path d="M432.714 528.79c-1.662 0-3 1.339-3 3 0 1.663 1.338 3 3 3s3-1.337 3-3c0-1.661-1.338-3-3-3zm0 7c-2.77 0-5 .893-5 2v6h10v-6c0-1.107-2.23-2-5-2zm0 1c2.216 0 4 .637 4 1.428v4.573h-8v-4.573c0-.791 1.784-1.427 4-1.427z" fill="url(#ao)"/></g><path d="M388.571 519.798v24h40v-24z" fill="url(#ap)" transform="matrix(.79376 0 0 .8 -284.432 -330.039)"/><path fill="#d1d3d4" d="M24 104.2h31.75v.8H24z"/><path d="M26.381 105l.794-1.6h1.588l-.794 1.6z" fill="#c0392b" fill-rule="evenodd"/><path d="M32.731 105l.794-1.6h1.588l-.794 1.6z" fill="#2980b9" fill-rule="evenodd"/><path d="M39.082 105l.793-1.6h1.588l-.794 1.6z" fill="#c0392b" fill-rule="evenodd"/><path d="M45.432 105l.793-1.6h1.588l-.794 1.6z" fill="#2980b9" fill-rule="evenodd"/><path d="M51.782 105l.793-1.6h1.588l-.794 1.6z" fill="#c0392b" fill-rule="evenodd"/><path d="M54.163 100.2l1.588.8v1.6l-1.588-.8z" fill="#2980b9" fill-rule="evenodd"/><path d="M54.163 93.8l1.588.8v1.6l-1.588-.8z" fill="#c0392b" fill-rule="evenodd"/><path d="M54.163 87.4l1.588.8v1.6l-1.588-.8zM25.588 101l-1.588.8v1.6l1.588-.8z" fill="#2980b9" fill-rule="evenodd"/><path d="M25.588 94.6L24 95.4V97l1.588-.8z" fill="#c0392b" fill-rule="evenodd"/><path d="M25.588 88.2L24 89v1.6l1.588-.8z" fill="#2980b9" fill-rule="evenodd"/><path d="M25.588 85.8l.793 1.6h1.588l-.794-1.6z" fill="#c0392b" fill-rule="evenodd"/><path d="M31.938 85.8l.793 1.6h1.588l-.794-1.6z" fill="#2980b9" fill-rule="evenodd"/><path d="M38.288 85.8l.794 1.6h1.587l-.794-1.6z" fill="#c0392b" fill-rule="evenodd"/><path d="M44.638 85.8l.794 1.6h1.587l-.794-1.6z" fill="#2980b9" fill-rule="evenodd"/><path d="M50.988 85.8l.794 1.6h1.587l-.794-1.6z" fill="#c0392b" fill-rule="evenodd"/><path d="M424.571 523.798l4 4v11l-9-9z" opacity=".2" fill="url(#aq)" fill-rule="evenodd" transform="matrix(.79376 0 0 .8 -284.432 -330.039)"/><path style="marker:none" color="#000" overflow="visible" fill="#fcfcfc" stroke-linecap="round" stroke-linejoin="round" d="M48.607 89h3.968v4.8h-3.968z"/><path style="marker:none" color="#000" overflow="visible" fill="#16a085" stroke-linecap="round" stroke-linejoin="round" d="M49.4 89.8h2.382V93H49.4z"/><g color="#000" fill="#bdc3c7" stroke-linecap="round" stroke-linejoin="round"><path style="marker:none" overflow="visible" d="M36.7 93h5.557v.8H36.7zM36.7 94.6h3.175v.8H36.7zM36.7 96.2h7.938v.8H36.7zM36.7 97.8h3.97v.8H36.7zM27.175 89h3.175v.8h-3.175zM27.175 90.6h5.556v.8h-5.556zM27.175 92.2h4.763v.8h-4.763z"/></g><path style="marker:none" color="#000" overflow="visible" fill="#7f8c8d" stroke-linecap="round" stroke-linejoin="round" d="M40.67 73h.793v3.2h-.794zM52.575 73h.794v3.2h-.794zM44.638 73h.794v3.2h-.794zM48.607 73h.793v3.2h-.793z"/><g transform="matrix(.8 0 0 .8 -229.857 -280.039)"><rect ry="0" y="503.798" x="388.571" height="40" width="40" fill="url(#ar)"/><rect ry="8" y="515.798" x="392.571" height="16" width="32" fill="#1d99f3"/><path d="M411.571 528.798l15 15h2v-18l-8-8z" opacity=".4" fill="url(#as)" fill-rule="evenodd"/><rect width="14" height="14" x="409.671" y="516.798" ry="7" fill="url(#at)"/><path d="M420.124 518.89a5.974 5.974 0 0 1 1.447 3.908c0 3.324-2.676 6-6 6a5.977 5.977 0 0 1-3.453-1.092 5.977 5.977 0 0 0 4.553 2.092c3.324 0 6-2.676 6-6a5.98 5.98 0 0 0-2.547-4.908z" fill="#1b83ce" fill-opacity=".119"/><path fill="#141517" d="M388.571 542.798h40v1h-40z"/></g><g style="line-height:125%;-inkscape-font-specification:Oxygen;text-align:start" font-weight="400" font-size="12.5" font-family="Oxygen-Sans" letter-spacing="0" word-spacing="0" fill="#fff"><path d="M33.836 43.711q-1.003 0-1.938-.289-.937-.288-1.4-.707v-1.203q.718.526 1.616.83.907.305 1.746.305.68 0 1.197-.199.516-.205.839-.67.329-.47.329-1.164 0-.798-.367-1.194-.36-.404-1.407-.814l-1.782-.692q-1.108-.426-1.655-1.035-.546-.617-.546-1.69 0-.738.285-1.31.283-.569.777-.904.495-.342 1.102-.51.606-.167 1.31-.167.823 0 1.639.228.824.22 1.468.623l-.48.944q-.487-.342-1.19-.54-.696-.198-1.393-.198-.644 0-1.146.168-.501.16-.83.549-.33.386-.33.957 0 .7.3 1.081.307.373 1.092.686l1.722.684q.54.212.877.38.344.167.712.434.374.258.576.555.202.297.336.73.135.434.135.99 0 .685-.202 1.232-.202.549-.54.898-.336.35-.808.586-.471.23-.981.328-.5.098-1.063.098zM42.559 43.711q-1.67 0-2.711-1.11-1.04-1.119-1.04-3.029 0-1.932 1.018-3.082t2.59-1.15q1.49 0 2.27.998.785.989.785 2.755l-.046.639h-5.353q.062 1.537.773 2.282.71.738 1.856.738.62 0 1.13-.16.509-.159 1.138-.478l.263.89q-1.176.707-2.674.707zm1.864-4.8q-.09-2.603-1.977-2.603-.965 0-1.602.7-.63.7-.733 1.902h4.312zM49.393 42.791q1.536 0 2.427-1.331v-1.773h-.951q-.69 0-1.176.068-.486.069-.801.197-.314.123-.493.343-.18.212-.248.471-.068.252-.068.624 0 .67.375 1.036.375.365.935.365zm2.427-3.942v-.79q0-.884-.42-1.317-.412-.434-1.31-.434-.606 0-1.303.152-.696.145-1.242.412l-.337-.929q1.273-.6 2.86-.6 1.429 0 2.2.684.78.676.78 2.214v5.31h-.945l-.135-1.109q-1.018 1.27-2.65 1.27-1.091 0-1.758-.617-.659-.616-.659-1.711 0-1.31.868-1.918.876-.617 2.785-.617h1.266zM55.084 43.56v-8.05h.996l.135 1.597q.448-.867 1.091-1.271.653-.412 1.372-.412.336 0 .553.04l-.052 1.035q-.3-.062-.509-.062-1.018 0-1.685.746-.659.746-.659 1.82v4.557h-1.242zM64.104 42.738q.914 0 1.67-.442l.232.86q-.255.206-.83.38-.576.175-1.303.175-1.7 0-2.71-1.126-1.004-1.125-1.004-3.013 0-1.97 1.033-3.097 1.034-1.134 2.689-1.134.77 0 1.332.19.569.184.823.358l-.35.868q-.727-.441-1.657-.441-1.175 0-1.885.882-.712.883-.712 2.374 0 1.415.681 2.29.682.876 1.992.876zM67.541 43.56V32.45l1.243-.092v2.693l-.045 1.575q.435-.623 1.108-.95.682-.335 1.527-.335 1.295 0 1.985.844.688.845.688 2.398v4.976h-1.243v-4.93q0-1.196-.381-1.758-.374-.571-1.266-.571-.553 0-.981.167-.419.16-.681.434-.261.267-.427.647-.164.38-.232.768-.06.389-.06.838v4.405h-1.235zM81.025 43.4q-.202.243-.592.243-.39 0-.606-.243-.209-.251-.209-.586 0-.343.209-.586.21-.243.606-.243.39 0 .592.243.208.243.208.586 0 .342-.208.586zM84.678 43.4q-.203.243-.591.243-.39 0-.606-.243-.21-.251-.21-.586 0-.343.208-.586.211-.243.608-.243.388 0 .59.243.21.243.21.586 0 .342-.208.586zM88.332 43.4q-.203.243-.591.243-.39 0-.608-.243-.208-.251-.208-.586 0-.343.208-.586.21-.243.608-.243.388 0 .59.243.21.243.21.586 0 .342-.21.586z" style="-inkscape-font-specification:Oxygen-Sans"/></g><path d="M217 30a8 8 0 0 0-8 8 8 8 0 0 0 8 8 8 8 0 0 0 8-8 8 8 0 0 0-8-8zm-3.293 4L217 37.293 220.293 34l.707.707L217.707 38 221 41.293l-.707.707L217 38.707 213.707 42l-.707-.707L216.293 38 213 34.707l.707-.707z" fill="#f2f2f2"/></svg>