<svg xmlns="http://www.w3.org/2000/svg" viewBox="0 0 256 256" id="svg2" version="1.1"><defs id="defs4"><style id="current-color-scheme" type="text/css">.ColorScheme-Text{color:#f2f2f2}.ColorScheme-Highlight{color:#3daee9}</style></defs><path d="M16 10h224c3.324 0 6 2.676 6 6v224c0 3.324-2.676 6-6 6H16c-3.324 0-6-2.676-6-6V16c0-3.324 2.676-6 6-6z" id="rect4240" fill="currentColor" fill-opacity=".5" stroke="none" color="#31363b"/><path d="M16 12h224c2.216 0 4 1.784 4 4v224c0 2.216-1.784 4-4 4H16c-2.216 0-4-1.784-4-4V16c0-2.216 1.784-4 4-4z" id="rect4238" fill="currentColor" fill-opacity="1" stroke="none" color="#31363b"/><path class="ColorScheme-Text" d="M43.979 20.576c-1.085 0-2.043.25-2.874.752a4.953 4.953 0 0 0-1.904 2.088c-.444.894-.666 1.917-.666 3.07 0 .9.135 1.726.404 2.477.276.751.656 1.383 1.143 1.896a5.17 5.17 0 0 0 1.746 1.19 5.8 5.8 0 0 0 2.223.42c1.142 0 2.16-.227 3.054-.682l-.326-1.039c-.867.407-1.726.61-2.578.61-1.312 0-2.352-.441-3.119-1.325-.762-.883-1.143-2.05-1.143-3.5 0-1.444.371-2.612 1.112-3.506.746-.899 1.761-1.35 3.047-1.35 1 0 1.871.234 2.617.7l.46-.912c-.824-.593-1.89-.889-3.196-.889zm144.072 0c-.497 0-.96.058-1.389.174a3.837 3.837 0 0 0-1.166.531 2.43 2.43 0 0 0-.824.946 2.97 2.97 0 0 0-.303 1.363c0 .746.194 1.333.58 1.762.386.423.971.783 1.754 1.08l1.887.72c.74.286 1.238.57 1.492.85.26.275.389.69.389 1.246 0 .481-.115.885-.348 1.213a1.925 1.925 0 0 1-.889.7 3.59 3.59 0 0 1-1.27.206 5.903 5.903 0 0 1-1.849-.318 6.357 6.357 0 0 1-1.713-.865v1.253c.328.291.822.538 1.483.739.661.2 1.346.3 2.054.3.397 0 .773-.034 1.127-.103a4.27 4.27 0 0 0 1.04-.34c.333-.164.619-.368.857-.611s.43-.555.572-.936a3.65 3.65 0 0 0 .213-1.287c0-.386-.047-.73-.143-1.031a2.83 2.83 0 0 0-.357-.762 2.295 2.295 0 0 0-.61-.578 5.08 5.08 0 0 0-.753-.453 12.552 12.552 0 0 0-.93-.396l-1.824-.715c-.556-.217-.941-.454-1.158-.713-.212-.265-.319-.64-.319-1.127 0-.397.117-.73.35-1 .233-.27.526-.46.88-.57a3.89 3.89 0 0 1 1.216-.176c.492 0 .982.07 1.474.207.497.137.918.324 1.262.562l.508-.982a5.728 5.728 0 0 0-1.555-.653 6.524 6.524 0 0 0-1.738-.236zm-138.914.158v11.584h1.396v-5.601h2.506c1.307 0 2.26-.264 2.857-.793.598-.534.897-1.32.897-2.358 0-.507-.092-.946-.277-1.316a2.103 2.103 0 0 0-.787-.889 3.749 3.749 0 0 0-1.174-.476c-.44-.1-.935-.15-1.49-.15h-3.928zm9.25 0v7.387c0 1.333.385 2.391 1.152 3.174.767.783 1.895 1.174 3.387 1.174.746 0 1.41-.105 1.992-.317.582-.217 1.055-.518 1.42-.904.37-.391.651-.85.842-1.373.19-.524.285-1.101.285-1.73v-7.41h-1.397v7.363c0 1.068-.264 1.88-.793 2.435-.529.55-1.312.824-2.35.824-2.094 0-3.142-1.085-3.142-3.26v-7.363h-1.396zm40.918 0l-.23 11.584h1.318l.109-7.148v-2.738l3.65 8.593h1.2l3.673-8.498v2.61l.11 7.181h1.302l-.23-11.584h-1.666l-3.77 8.8-3.753-8.8h-1.713zm-48.772 1.047h2.522c.761 0 1.341.137 1.738.412.402.27.603.733.603 1.389 0 .762-.181 1.297-.546 1.604-.36.306-.975.459-1.842.459h-2.475V21.78zm65.633 1.969c-1.11 0-2.027.399-2.746 1.197-.72.799-1.078 1.87-1.078 3.213 0 1.328.366 2.38 1.101 3.158.736.773 1.694 1.159 2.873 1.159 1.058 0 2.002-.247 2.832-.739l-.277-.927a8.06 8.06 0 0 1-1.205.5c-.36.11-.76.166-1.2.166-.809 0-1.463-.257-1.966-.77-.503-.518-.776-1.31-.818-2.379h5.673l.047-.668c0-1.227-.276-2.183-.832-2.87-.55-.694-1.351-1.04-2.404-1.04zm8.83 0c-1.074 0-1.935.47-2.586 1.412l-.15-1.238h-1.065v8.394h1.319v-5.117c.11-.735.355-1.325.73-1.77.381-.449.894-.675 1.54-.675.586 0 .987.221 1.204.66.217.434.326 1.163.326 2.19v4.712h1.317V28.01c.016-.73.045-1.166.088-1.309.143-.63.412-1.112.808-1.445.397-.333.85-.5 1.358-.5.227 0 .426.035.595.103a.86.86 0 0 1 .413.303c.105.138.19.277.253.42.064.138.109.32.135.547.027.227.042.421.047.58.01.153.016.357.016.611v4.998h1.318v-5.412c0-2.105-.858-3.156-2.572-3.156-1.217 0-2.138.568-2.768 1.705-.195-.534-.474-.952-.834-1.254-.36-.301-.857-.451-1.492-.451zm13.291 0c-1.232 0-2.2.401-2.904 1.205-.698.799-1.047 1.857-1.047 3.174 0 1.285.354 2.333 1.062 3.142.71.805 1.672 1.206 2.89 1.206 1.19 0 2.147-.404 2.872-1.213.725-.815 1.086-1.86 1.086-3.135 0-1.317-.349-2.375-1.047-3.174-.698-.804-1.669-1.205-2.912-1.205zm70.633 0c-1.121 0-2.132.207-3.031.625l.357.969a5.654 5.654 0 0 1 1.316-.428c.492-.106.953-.16 1.381-.16.635 0 1.098.151 1.389.453.296.301.443.76.443 1.373v.824h-1.34c-1.348 0-2.334.214-2.953.643-.613.423-.92 1.09-.92 2 0 .762.234 1.357.7 1.785.47.428 1.09.643 1.863.643 1.153 0 2.09-.441 2.809-1.325l.144 1.159h1v-5.54c0-1.068-.276-1.837-.826-2.308-.545-.476-1.322-.713-2.332-.713zm9.242 0c-1.211 0-2.125.546-2.744 1.64l-.135-1.466h-1.095V36h1.316v-3.158l-.055-1.944c.624 1.053 1.52 1.579 2.69 1.579 1.1 0 1.956-.396 2.57-1.19.614-.793.922-1.841.922-3.142 0-1.355-.296-2.425-.889-3.213-.587-.789-1.448-1.182-2.58-1.182zm-70.353.086a2.71 2.71 0 0 0-1.452.43c-.454.28-.842.72-1.16 1.324l-.142-1.666H144v8.394h1.316v-4.752c0-.745.234-1.378.7-1.896.47-.518 1.065-.777 1.785-.777.148 0 .327.02.539.062l.056-1.078a3.551 3.551 0 0 0-.587-.041zm1.427.088l3.325 8.14-1.237 3.159 1.182.254 4.42-11.553h-1.334l-2.397 6.705-2.617-6.705h-1.342zm43.72 0l2.355 8.394h1.253l2.207-7.236 2.333 7.236h1.166l2.261-8.394h-1.205l-1.676 6.76-2.19-6.76h-1.403l-2.063 6.783-1.793-6.783h-1.246zm-76.759.832c1.333 0 2.032.906 2.096 2.715h-4.57c.074-.836.333-1.498.777-1.985.45-.486 1.015-.73 1.697-.73zm22.09 0c.862 0 1.512.31 1.951.93.44.613.66 1.432.66 2.459 0 .655-.091 1.23-.271 1.722a2.5 2.5 0 0 1-.871 1.174c-.397.29-.887.436-1.469.436-.846 0-1.491-.307-1.935-.92-.445-.614-.666-1.42-.666-2.42 0-1.021.221-1.838.666-2.451.444-.62 1.089-.93 1.935-.93zm79.725 0c1.513 0 2.27 1.125 2.27 3.373 0 2.227-.783 3.34-2.348 3.34-.794 0-1.408-.304-1.842-.912-.429-.609-.643-1.463-.643-2.563.005-1.015.217-1.81.635-2.38.418-.572 1.06-.858 1.928-.858zm-8.244 3.523h1.007v1.85c-.63.926-1.486 1.389-2.57 1.389-.397 0-.728-.127-.992-.381-.265-.254-.397-.615-.397-1.08 0-.26.025-.476.073-.65a1.23 1.23 0 0 1 .785-.85c.222-.09.504-.158.848-.205a9.162 9.162 0 0 1 1.246-.073zM22 46v90h62V46H22zm75 0v188h62V46H97zm75 0v188h62V46h-62zM23 47h60v32H23V47zm75 0h60v186H98V47zm75 0h60v186h-60V47zM23 80h60v55H23V80zm-1 64v90h62v-90H22zm1 1h60v12H23v-12zm0 13h60v75H23v-75z" id="path4463" fill="currentColor" fill-opacity="1" stroke="none"/><path id="rect3069-46-5-6-6-3" transform="scale(1 -1)" fill="#c9ce3b" fill-opacity="1" stroke="none" d="M23-213h60v8H23z"/><path id="rect3069-46-5-6-6-5-4" transform="scale(1 -1)" fill="#f67400" fill-opacity="1" stroke="none" d="M23-205h60v12H23z"/><path id="rect3069-46-5-6-8-6-5" transform="scale(1 -1)" fill="#c9ce3b" fill-opacity="1" stroke="none" d="M98-158.833h60V-131H98z"/><path id="rect3069-46-5-6-8-2-9-5" fill="#11d116" fill-opacity="1" stroke="none" d="M98 106h60v25H98z"/><path style="isolation:auto;mix-blend-mode:normal;solid-color:#000;solid-opacity:1" id="rect5264-2" class="ColorScheme-Text" color="#f2f2f2" clip-rule="nonzero" display="inline" overflow="visible" visibility="visible" opacity=".1" color-interpolation="sRGB" color-interpolation-filters="linearRGB" fill="currentColor" fill-opacity="1" fill-rule="nonzero" stroke="none" stroke-width="1.35" stroke-linecap="butt" stroke-linejoin="miter" stroke-miterlimit="4" stroke-dasharray="none" stroke-dashoffset="0" stroke-opacity="1" color-rendering="auto" image-rendering="auto" shape-rendering="auto" text-rendering="auto" d="M174 222h10v3h-10z"/><path style="isolation:auto;mix-blend-mode:normal;solid-color:#000;solid-opacity:1" id="rect5903" class="ColorScheme-Highlight" color="#3daee9" clip-rule="nonzero" display="inline" overflow="visible" visibility="visible" opacity="1" color-interpolation="sRGB" color-interpolation-filters="linearRGB" fill="currentColor" fill-opacity="1" fill-rule="nonzero" stroke="none" stroke-width="1.35" stroke-linecap="butt" stroke-linejoin="miter" stroke-miterlimit="4" stroke-dasharray="none" stroke-dashoffset="0" stroke-opacity="1" color-rendering="auto" image-rendering="auto" shape-rendering="auto" text-rendering="auto" d="M23 213h60v20H23z"/><path id="rect3069-46-5-6-6-3-8" transform="scale(1 -1)" fill="#c9ce3b" fill-opacity="1" stroke="none" d="M23-115h60v8H23z"/><path style="isolation:auto;mix-blend-mode:normal;solid-color:#000;solid-opacity:1" id="rect5903-1" class="ColorScheme-Highlight" color="#3daee9" clip-rule="nonzero" display="inline" overflow="visible" visibility="visible" opacity="1" color-interpolation="sRGB" color-interpolation-filters="linearRGB" fill="currentColor" fill-opacity="1" fill-rule="nonzero" stroke="none" stroke-width="1.35" stroke-linecap="butt" stroke-linejoin="miter" stroke-miterlimit="4" stroke-dasharray="none" stroke-dashoffset="0" stroke-opacity="1" color-rendering="auto" image-rendering="auto" shape-rendering="auto" text-rendering="auto" d="M23 115h60v20H23z"/><path style="isolation:auto;mix-blend-mode:normal;solid-color:#000;solid-opacity:1" id="rect5903-16" class="ColorScheme-Highlight" color="#3daee9" clip-rule="nonzero" display="inline" overflow="visible" visibility="visible" opacity="1" color-interpolation="sRGB" color-interpolation-filters="linearRGB" fill="currentColor" fill-opacity="1" fill-rule="nonzero" stroke="none" stroke-width="1.35" stroke-linecap="butt" stroke-linejoin="miter" stroke-miterlimit="4" stroke-dasharray="none" stroke-dashoffset="0" stroke-opacity="1" color-rendering="auto" image-rendering="auto" shape-rendering="auto" text-rendering="auto" d="M98 158.833h60V233H98z"/><path id="rect3069-46-5-6-8-6-5-7" transform="scale(1 -1)" fill="#c9ce3b" fill-opacity="1" stroke="none" d="M173-221h60v4h-60z"/><path id="rect3069-46-5-6-8-2-9-5-5" fill="#11d116" fill-opacity="1" stroke="none" d="M173 215h60v2h-60z"/><path style="isolation:auto;mix-blend-mode:normal;solid-color:#000;solid-opacity:1" id="rect5903-16-0" class="ColorScheme-Highlight" color="#3daee9" clip-rule="nonzero" display="inline" overflow="visible" visibility="visible" opacity="1" color-interpolation="sRGB" color-interpolation-filters="linearRGB" fill="currentColor" fill-opacity="1" fill-rule="nonzero" stroke="none" stroke-width="1.35" stroke-linecap="butt" stroke-linejoin="miter" stroke-miterlimit="4" stroke-dasharray="none" stroke-dashoffset="0" stroke-opacity="1" color-rendering="auto" image-rendering="auto" shape-rendering="auto" text-rendering="auto" d="M173 221h60v12h-60z"/></svg>