<svg xmlns="http://www.w3.org/2000/svg" viewBox="0 0 256 256" width="273.067" height="273.067"><defs><style/></defs><path d="M16 10h224c3.324 0 6 2.676 6 6v224c0 3.324-2.676 6-6 6H16c-3.324 0-6-2.676-6-6V16c0-3.324 2.676-6 6-6z" color="#31363b" fill="currentColor" fill-opacity=".5"/><path d="M16 12h224c2.216 0 4 1.784 4 4v224c0 2.216-1.784 4-4 4H16c-2.216 0-4-1.784-4-4V16c0-2.216 1.784-4 4-4z" color="#31363b" fill="currentColor"/><g stroke-width=".608"><path d="M146.36 181.535a3.248 3.248 0 0 1 3.254 3.254v27.16a3.248 3.248 0 0 1-3.254 3.255h-36.72a3.248 3.248 0 0 1-3.254-3.254l.002-25.054.001-7.815a2.607 2.607 0 0 1 2.611-2.61h14.02c1.448 0 2.631.571 3.547 1.69l2.78 3.385z" fill="#5294e2" stroke-width=".088"/><path d="M126.458 190.845v6.169h-3.085l4.627 6.17 4.627-6.17h-3.085v-6.17zm-4.627 12.338v3.085h12.338v-3.085z" fill-opacity=".651"/></g><g stroke-width=".608"><path d="M218.59 123.867a3.248 3.248 0 0 1 3.254 3.254v27.16a3.248 3.248 0 0 1-3.254 3.255h-36.72a3.248 3.248 0 0 1-3.254-3.254l.002-25.054.001-7.815a2.607 2.607 0 0 1 2.611-2.61h14.02c1.448 0 2.631.571 3.547 1.69l2.781 3.385z" fill="#5294e2" stroke-width=".088"/><path d="M200.23 133.177l-2.042 6.169h-5.67l4.407 3.486-1.46 5.768 4.765-3.702 4.766 3.702-1.462-5.768 4.408-3.486h-5.67z" opacity=".65"/><path d="M218.59 123.867a3.248 3.248 0 0 1 3.254 3.254v27.16a3.248 3.248 0 0 1-3.254 3.255h-36.72a3.248 3.248 0 0 1-3.254-3.254l.002-25.054.001-7.815a2.607 2.607 0 0 1 2.611-2.61h14.02c1.448 0 2.631.571 3.547 1.69l2.781 3.385z" fill="#5294e2" stroke-width=".088"/><path d="M200.23 133.177l-2.042 6.169h-5.67l4.407 3.486-1.46 5.768 4.765-3.702 4.766 3.702-1.462-5.768 4.408-3.486h-5.67z" fill-opacity=".651"/></g><g stroke-width=".608"><path d="M146.36 123.867a3.248 3.248 0 0 1 3.254 3.254v27.16a3.248 3.248 0 0 1-3.254 3.255h-36.72a3.248 3.248 0 0 1-3.254-3.254l.002-25.054.001-7.815a2.607 2.607 0 0 1 2.611-2.61h14.02c1.448 0 2.631.571 3.547 1.69l2.781 3.385z" fill="#5294e2" stroke-width=".088"/><path d="M132.081 135.137a1.053 1.053 0 0 0-.642.231c-.508.389-1.571 1.31-3.44 1.311-1.87 0-2.928-.922-3.437-1.31a.984.984 0 0 0-.627-.226 1.615 1.615 0 0 0-.778.225c-1 .563-1.915 2.41-2.415 4.8-.426 2.03-.586 4.804-.332 5.922.222.96.603 1.385 1.284 1.385 2.179 0 2.274-1.684 3.078-3.3.581-.895 1.928-1.297 3.227-1.25 1.298-.05 2.648.357 3.23 1.251.803 1.615.898 3.3 3.078 3.3.68 0 1.06-.426 1.283-1.386.254-1.118.094-3.892-.332-5.922-.5-2.39-1.416-4.237-2.415-4.8a1.542 1.542 0 0 0-.762-.231zm-8.706 1.542h1.542v1.543h1.542v1.542h-1.542v1.542h-1.542v-1.542h-1.543v-1.542h1.543zm8.482 0a.771.771 0 0 1 .772.771.771.771 0 0 1-.772.772.771.771 0 0 1-.77-.772.771.771 0 0 1 .77-.77zm-1.542 1.543a.771.771 0 0 1 .771.77.771.771 0 0 1-.77.772.771.771 0 0 1-.772-.771.771.771 0 0 1 .771-.771zm3.085 0a.771.771 0 0 1 .77.77.771.771 0 0 1-.77.772.771.771 0 0 1-.771-.771.771.771 0 0 1 .77-.771zm-1.543 1.542a.771.771 0 0 1 .772.771.771.771 0 0 1-.772.771.771.771 0 0 1-.77-.771.771.771 0 0 1 .77-.771z" fill-opacity=".651"/></g><g stroke-width=".608"><path d="M74.13 123.867a3.248 3.248 0 0 1 3.254 3.254v27.16a3.248 3.248 0 0 1-3.254 3.255H37.41a3.248 3.248 0 0 1-3.254-3.254l.002-25.054.001-7.815a2.607 2.607 0 0 1 2.611-2.61h14.02c1.448 0 2.631.571 3.547 1.69l2.781 3.385z" fill="#5294e2" stroke-width=".088"/><path d="M50.687 132.193l-1.09 1.09 1.776 1.777a2.313 2.313 0 0 0-.228.995 2.313 2.313 0 0 0 1.542 2.177v6.441a2.313 2.313 0 0 0-1.542 2.178 2.313 2.313 0 0 0 2.313 2.313 2.313 2.313 0 0 0 2.314-2.313 2.313 2.313 0 0 0-1.543-2.178v-6.44a2.313 2.313 0 0 0 .226-.093l3.089 3.09a2.313 2.313 0 0 0-.227.994 2.313 2.313 0 0 0 2.314 2.313 2.313 2.313 0 0 0 2.313-2.313 2.313 2.313 0 0 0-2.313-2.314 2.313 2.313 0 0 0-.995.229l-3.091-3.09a2.313 2.313 0 0 0 .23-.994 2.313 2.313 0 0 0-2.314-2.314 2.313 2.313 0 0 0-.995.231l-1.776-1.78z" fill-opacity=".651"/></g><g stroke-width=".608"><path d="M218.59 67.427a3.248 3.248 0 0 1 3.254 3.254v27.16a3.248 3.248 0 0 1-3.254 3.255h-36.72a3.248 3.248 0 0 1-3.254-3.254l.002-25.054.001-7.815a2.607 2.607 0 0 1 2.611-2.61h14.02c1.448 0 2.631.571 3.547 1.69l2.781 3.385z" fill="#5294e2" stroke-width=".088"/><path d="M192.519 84.592h1.542v6.169h4.627v-4.627h3.084v4.627h4.627v-6.17h1.543l-7.712-7.71z" fill-opacity=".651"/></g><g stroke-width=".608"><path d="M74.13 67.427a3.248 3.248 0 0 1 3.254 3.254v27.16a3.248 3.248 0 0 1-3.254 3.255H37.41a3.248 3.248 0 0 1-3.254-3.254l.002-25.054.001-7.815a2.607 2.607 0 0 1 2.611-2.61h14.02c1.448 0 2.631.571 3.547 1.69l2.781 3.385z" fill="#5294e2" stroke-width=".088"/><path d="M49.137 78.697a1.075 1.075 0 0 0-1.078 1.078v10.182c0 .599.48 1.078 1.078 1.078h13.267a1.075 1.075 0 0 0 1.078-1.08v-10.18a1.075 1.075 0 0 0-1.078-1.08zm3.548 4.627l4.627 4.627 2.314-3.085 2.313 3.085v1.542H49.601V86.41z" fill-opacity=".651"/></g><path d="M74.13 181.536a3.246 3.246 0 0 1 3.253 3.254v27.16a3.247 3.247 0 0 1-3.254 3.254H37.411a3.247 3.247 0 0 1-3.254-3.253v-25.054l.002-7.815a2.605 2.605 0 0 1 2.61-2.611h14.022c1.446 0 2.629.573 3.547 1.69l2.779 3.386z" fill="#f49940" stroke-width=".136"/><g stroke-width=".608"><path d="M146.36 67.427a3.248 3.248 0 0 1 3.254 3.254v27.16a3.248 3.248 0 0 1-3.254 3.255h-36.72a3.248 3.248 0 0 1-3.254-3.254l.002-25.054.001-7.815a2.607 2.607 0 0 1 2.611-2.61h14.02c1.448 0 2.631.571 3.547 1.69l2.781 3.385z" fill="#5294e2" stroke-width=".088"/><path d="M126.95 77.744c-4.114 0-3.156 3.448-5.263 4.58-.072.042-.112.078-.177.12 1.388-.826 3.1-1.518 4.918-1.986 1.54-.396 3.1-.618 4.541-.648h.111c-1.39-.393-1.542-2.066-4.13-2.066zm4.482 3.11c-1.44.027-3.002.249-4.54.645-5.075 1.307-8.692 4.146-8.078 6.342.353 1.256 2.056 2.39 4.593 2.544l-.005-.028c-.138-1.188.617-2.221 1.501-2.921.884-.7 2.019-1.21 3.296-1.48 1.277-.27 2.47-.258 3.47.042.94.284 1.823.901 2.04 1.959 2.543-1.425 3.863-3.452 3.48-4.843-.405-1.454-2.612-2.321-5.757-2.26zm-1.509 6.09a7.257 7.257 0 0 0-1.593.165c-2.232.473-3.93 1.82-3.794 3.006.139 1.187 2.06 1.764 4.29 1.29 2.233-.474 3.93-1.82 3.792-3.007-.099-.864-1.162-1.436-2.695-1.454z" color="#31363b" fill-opacity=".651"/></g><text style="line-height:1.25" x="58.198" y="42.059" font-weight="400" font-size="15.601" font-family="sans-serif" letter-spacing="0" word-spacing="0" fill="#fff" stroke-width=".937"><tspan x="58.198" y="42.059">Домашняя папка</tspan></text></svg>