<svg xmlns="http://www.w3.org/2000/svg" xmlns:xlink="http://www.w3.org/1999/xlink" viewBox="0 0 256 256"><defs id="defs4"><linearGradient gradientUnits="userSpaceOnUse" y2="1037.362" x2="115" y1="982.362" x1="60" id="linearGradient4475-5" xlink:href="#linearGradient4459" gradientTransform="matrix(.28 0 0 .28 30 -111.907)"/><linearGradient id="linearGradient4459"><stop id="stop4461" offset="0" stop-color="#000" stop-opacity="1"/><stop id="stop4463" offset="1" stop-color="#000" stop-opacity="0"/></linearGradient><linearGradient gradientTransform="matrix(.28 0 0 .28 29.72 153.355)" gradientUnits="userSpaceOnUse" y2="77.125" x2="60.125" y1="63" x1="46" id="linearGradient4465-2" xlink:href="#linearGradient4459"/><linearGradient gradientTransform="matrix(.28 0 0 .28 29.72 59.16)" gradientUnits="userSpaceOnUse" y2="77.125" x2="60.125" y1="63" x1="46" id="linearGradient4465-1" xlink:href="#linearGradient4459"/><linearGradient gradientTransform="matrix(.28 0 0 .28 30 17.158)" gradientUnits="userSpaceOnUse" y2="77.125" x2="60.125" y1="63" x1="46" id="linearGradient4465" xlink:href="#linearGradient4459"/><linearGradient xlink:href="#linearGradient4459" id="linearGradient4320" gradientUnits="userSpaceOnUse" x1="60" y1="982.362" x2="115" y2="1037.362" gradientTransform="matrix(.28 0 0 .28 30 -248.104)"/><linearGradient xlink:href="#linearGradient4459" id="linearGradient4322" gradientUnits="userSpaceOnUse" x1="60" y1="982.362" x2="115" y2="1037.362" gradientTransform="matrix(.28 0 0 .28 30 -206.661)"/><linearGradient xlink:href="#linearGradient4459" id="linearGradient4324" gradientUnits="userSpaceOnUse" x1="60" y1="982.362" x2="115" y2="1037.362" gradientTransform="matrix(.28 0 0 .2498 30 -130.518)"/><linearGradient xlink:href="#linearGradient4459" id="linearGradient4326" gradientUnits="userSpaceOnUse" gradientTransform="matrix(.28 0 0 .2498 29.72 106.128)" x1="46" y1="63" x2="60.125" y2="77.125"/><style id="current-color-scheme" type="text/css">.ColorScheme-Text{color:#f2f2f2}</style></defs><path d="M16 10h224c3.324 0 6 2.676 6 6v224c0 3.324-2.676 6-6 6H16c-3.324 0-6-2.676-6-6V16c0-3.324 2.676-6 6-6z" id="rect4240" fill="currentColor" fill-opacity=".5" stroke="none" color="#31363b"/><path d="M16 12h224c2.216 0 4 1.784 4 4v224c0 2.216-1.784 4-4 4H16c-2.216 0-4-1.784-4-4V16c0-2.216 1.784-4 4-4z" id="rect4238" fill="currentColor" fill-opacity="1" stroke="none" color="#31363b"/><path class="ColorScheme-Text" d="M86.3 26.639l-1.3.095v9.18c0 .503.057.92.174 1.254.116.328.296.58.539.754.243.174.52.296.826.365a5.93 5.93 0 0 0 1.158.096h.627l.072-.906-.357-.024a44.267 44.267 0 0 1-.531-.039 8.118 8.118 0 0 1-.414-.064 1.203 1.203 0 0 1-.324-.11 1.97 1.97 0 0 1-.215-.176.573.573 0 0 1-.159-.261 4.058 4.058 0 0 1-.072-.366 4.466 4.466 0 0 1-.023-.5V26.64zm-10.71.095v11.584h1.396v-5.601h2.506c1.307 0 2.26-.264 2.858-.793.597-.534.896-1.32.896-2.358 0-.507-.092-.946-.277-1.316a2.099 2.099 0 0 0-.785-.889 3.76 3.76 0 0 0-1.176-.476c-.44-.1-.935-.15-1.49-.15H75.59zm55.303 0v7.387c0 1.333.383 2.391 1.15 3.174.767.783 1.897 1.174 3.389 1.174.745 0 1.41-.105 1.992-.317.582-.217 1.055-.518 1.42-.904.37-.391.651-.85.842-1.373.19-.524.285-1.101.285-1.73v-7.41h-1.397v7.363c0 1.068-.264 1.88-.793 2.435-.529.55-1.313.824-2.35.824-2.094 0-3.142-1.085-3.142-3.26v-7.363h-1.396zm-53.907 1.047h2.524c.761 0 1.34.137 1.736.412.402.27.604.733.604 1.389 0 .762-.182 1.297-.547 1.604-.36.306-.975.459-1.842.459h-2.475V27.78zM92.95 29.75c-1.121 0-2.13.207-3.03.625l.356.969a5.671 5.671 0 0 1 1.319-.428c.492-.106.952-.16 1.38-.16.635 0 1.098.151 1.39.453.296.301.443.76.443 1.373v.824h-1.342c-1.349 0-2.332.214-2.951.643-.614.423-.92 1.09-.92 2 0 .762.232 1.357.697 1.785.47.428 1.093.643 1.865.643 1.153 0 2.09-.441 2.809-1.325l.142 1.159h1v-5.54c0-1.068-.274-1.837-.824-2.308-.545-.476-1.323-.713-2.334-.713zm7.84 0c-.878 0-1.56.212-2.047.635-.486.418-.73.968-.73 1.65 0 .55.141.999.422 1.348.28.344.798.637 1.554.88l.92.294c.609.195 1.03.404 1.262.627.233.222.35.498.35.826 0 .476-.142.84-.422 1.094-.28.248-.674.373-1.182.373-.81 0-1.716-.24-2.72-.721v1.101c.867.413 1.74.62 2.624.62a3.98 3.98 0 0 0 1.096-.143c.339-.095.64-.237.904-.428.27-.19.482-.444.635-.761a2.56 2.56 0 0 0 .23-1.112 3.33 3.33 0 0 0-.095-.857 1.76 1.76 0 0 0-.35-.666 2.161 2.161 0 0 0-.705-.54 6.801 6.801 0 0 0-1.15-.46l-.834-.262c-.545-.175-.901-.339-1.07-.492-.17-.154-.254-.402-.254-.746 0-.408.129-.716.388-.928.265-.217.7-.326 1.309-.326.682 0 1.389.186 2.119.556l.309-.976a5.712 5.712 0 0 0-2.563-.586zm8.309 0c-1.074 0-1.938.47-2.588 1.412l-.15-1.238h-1.063v8.394h1.316v-5.117c.111-.735.355-1.325.73-1.77.382-.449.894-.675 1.54-.675.587 0 .988.221 1.205.66.217.434.326 1.163.326 2.19v4.712h1.316V34.01c.016-.73.046-1.166.088-1.309.143-.63.412-1.112.809-1.445.397-.333.85-.5 1.357-.5.228 0 .427.035.596.103a.861.861 0 0 1 .412.303c.106.138.19.277.254.42.064.138.108.32.135.547.026.227.041.421.047.58.01.153.017.357.017.611v4.998h1.317v-5.412c0-2.105-.857-3.156-2.57-3.156-1.217 0-2.14.568-2.77 1.705-.196-.534-.474-.952-.834-1.254-.36-.301-.856-.451-1.49-.451zm12.797 0c-1.122 0-2.13.207-3.03.625l.356.969a5.671 5.671 0 0 1 1.318-.428c.492-.106.952-.16 1.38-.16.636 0 1.099.151 1.39.453.296.301.443.76.443 1.373v.824h-1.342c-1.349 0-2.332.214-2.951.643-.614.423-.92 1.09-.92 2 0 .762.232 1.357.697 1.785.471.428 1.093.643 1.866.643 1.153 0 2.089-.441 2.808-1.325l.143 1.159h1v-5.54c0-1.068-.274-1.837-.824-2.308-.545-.476-1.324-.713-2.334-.713zm22.757 0c-.878 0-1.56.212-2.047.635-.486.418-.73.968-.73 1.65 0 .55.14.999.42 1.348.28.344.798.637 1.555.88l.921.294c.609.195 1.03.404 1.262.627.233.222.348.498.348.826 0 .476-.14.84-.42 1.094-.28.248-.674.373-1.182.373-.809 0-1.717-.24-2.722-.721v1.101c.867.413 1.743.62 2.627.62a3.98 3.98 0 0 0 1.095-.143c.339-.095.64-.237.905-.428.27-.19.481-.444.634-.761a2.56 2.56 0 0 0 .229-1.112c0-.338-.03-.624-.094-.857a1.76 1.76 0 0 0-.35-.666 2.17 2.17 0 0 0-.707-.54 6.8 6.8 0 0 0-1.15-.46l-.832-.262c-.545-.175-.903-.339-1.072-.492-.17-.154-.254-.402-.254-.746 0-.408.13-.716.389-.928.264-.217.702-.326 1.31-.326.682 0 1.387.186 2.117.556l.31-.976a5.711 5.711 0 0 0-2.562-.586zm7.95 0c-1.111 0-2.025.399-2.745 1.197-.719.799-1.08 1.87-1.08 3.213 0 1.328.369 2.38 1.104 3.158.735.773 1.691 1.159 2.871 1.159 1.058 0 2.003-.247 2.834-.739l-.277-.927a8.075 8.075 0 0 1-1.207.5c-.36.11-.759.166-1.198.166-.809 0-1.466-.257-1.968-.77-.503-.518-.775-1.31-.817-2.379h5.672l.049-.668c0-1.227-.279-2.183-.834-2.87-.55-.694-1.352-1.04-2.404-1.04zm8.886.086a2.71 2.71 0 0 0-1.45.43c-.456.28-.842.72-1.16 1.324l-.142-1.666h-1.056v8.394h1.318v-4.752c0-.745.232-1.378.697-1.896.471-.518 1.066-.777 1.785-.777.149 0 .328.02.54.062l.056-1.078a3.553 3.553 0 0 0-.588-.041zm-8.853.92c1.333 0 2.03.906 2.094 2.715h-4.57c.073-.836.332-1.498.777-1.985.45-.486 1.016-.73 1.699-.73zM93.8 34.279h1.008v1.85c-.63.926-1.486 1.389-2.57 1.389-.397 0-.728-.127-.993-.381-.264-.254-.396-.615-.396-1.08 0-.26.022-.476.07-.65a1.235 1.235 0 0 1 .787-.85c.222-.09.504-.158.848-.205.344-.048.76-.073 1.246-.073zm28.945 0h1.008v1.85c-.63.926-1.486 1.389-2.57 1.389-.397 0-.728-.127-.993-.381-.264-.254-.396-.615-.396-1.08 0-.26.023-.476.07-.65a1.235 1.235 0 0 1 .787-.85c.223-.09.504-.158.848-.205.344-.048.76-.073 1.246-.073zM20 50v1h216v-1H20zm70.756 10l-1.115.08v2.21l.054 1.618a2.824 2.824 0 0 0-.341-.504 2.163 2.163 0 0 0-.43-.396 1.79 1.79 0 0 0-.611-.281 3.169 3.169 0 0 0-.807-.094c-.94 0-1.684.334-2.235 1.006-.546.671-.82 1.55-.82 2.638 0 1.146.265 2.057.793 2.733.533.671 1.29 1.008 2.27 1.008 1.016 0 1.753-.465 2.215-1.391l.101 1.256h.926V60zm42.627 0l-1.102.08v7.768c0 .425.05.78.149 1.062.098.278.249.49.455.637.206.148.44.25.699.308.264.054.591.082.98.082h.53l.06-.765-.302-.022a36.834 36.834 0 0 1-.45-.033 6.745 6.745 0 0 1-.35-.053 1.022 1.022 0 0 1-.275-.093 1.65 1.65 0 0 1-.18-.149.49.49 0 0 1-.134-.222 3.43 3.43 0 0 1-.06-.309 3.771 3.771 0 0 1-.02-.422V60zm-54.78.08l-3.591 9.803h1.209l1.148-3.156h3.752l1.154 3.156h1.17L79.86 60.08h-1.255zm24.338 0v9.803h5.68l.027-.9h-4.525V60.08h-1.182zm-23.699 1.156l1.612 4.672h-3.21l1.598-4.672zm15.885 1.397c-.949 0-1.804.176-2.564.53l.3.817a4.796 4.796 0 0 1 1.116-.36 5.54 5.54 0 0 1 1.167-.136c.538 0 .93.128 1.176.383.25.255.375.643.375 1.162v.698h-1.134c-1.142 0-1.975.182-2.499.544-.519.359-.777.922-.777 1.692 0 .644.196 1.147.59 1.51.398.362.925.545 1.578.545.976 0 1.768-.374 2.377-1.122l.121.981h.846v-4.688c0-.904-.234-1.554-.7-1.953-.46-.403-1.117-.603-1.972-.603zm17.791 0c-1.043 0-1.862.339-2.457 1.02-.59.675-.887 1.57-.887 2.685 0 1.088.3 1.973.9 2.658.6.68 1.415 1.022 2.444 1.022 1.007 0 1.818-.343 2.432-1.028.613-.69.918-1.573.918-2.652 0-1.115-.294-2.01-.885-2.686-.591-.68-1.413-1.02-2.465-1.02zm14.959 0c-.94 0-1.714.338-2.322 1.013-.609.676-.914 1.582-.914 2.72 0 1.123.311 2.013.933 2.671.622.654 1.432.98 2.43.98.895 0 1.694-.208 2.396-.624l-.234-.786a6.802 6.802 0 0 1-1.02.422 3.424 3.424 0 0 1-1.013.143c-.685 0-1.241-.218-1.666-.652-.425-.44-.656-1.11-.692-2.014h4.801l.04-.565c0-1.038-.236-1.847-.706-2.43-.465-.586-1.142-.878-2.033-.878zm11.13 0c-.948 0-1.803.176-2.564.53l.303.817a4.78 4.78 0 0 1 1.113-.36 5.59 5.59 0 0 1 1.17-.136c.537 0 .928.128 1.174.383.25.255.377.643.377 1.162v.698h-1.135c-1.141 0-1.974.182-2.498.544-.519.359-.779.922-.779 1.692 0 .644.198 1.147.592 1.51.398.362.924.545 1.578.545.976 0 1.766-.374 2.375-1.122l.121.981h.846v-4.688c0-.904-.232-1.554-.698-1.953-.46-.403-1.12-.603-1.974-.603zm7.473 0c-.989 0-1.792.333-2.41 1-.617.662-.925 1.573-.925 2.732 0 1.11.298 1.996.898 2.658.604.663 1.416.995 2.432.995.434 0 .823-.052 1.168-.155.344-.103.592-.215.744-.336l-.207-.76c-.452.26-.952.391-1.498.391-.784 0-1.378-.259-1.786-.773-.407-.515-.61-1.187-.61-2.02 0-.877.213-1.576.638-2.095.425-.52.989-.778 1.691-.778.555 0 1.05.13 1.485.389l.314-.766c-.152-.103-.398-.209-.738-.316-.336-.112-.735-.166-1.196-.166zm5.997 0c-.94 0-1.714.338-2.323 1.013-.608.676-.914 1.582-.914 2.72 0 1.123.312 2.013.934 2.671.622.654 1.431.98 2.43.98.895 0 1.693-.208 2.396-.624l-.234-.786a6.801 6.801 0 0 1-1.02.422 3.424 3.424 0 0 1-1.014.143c-.684 0-1.24-.218-1.666-.652-.425-.44-.655-1.11-.691-2.014h4.8l.04-.565c0-1.038-.235-1.847-.705-2.43-.466-.586-1.143-.878-2.033-.878zm-35.301.146l2.744 7.104h1.123l2.691-7.104H122.6a1785.385 1785.385 0 0 0-2.116 5.87c-.29-.77-.71-1.904-1.261-3.399a441.427 441.427 0 0 0-.907-2.47h-1.14zm-29.508.705c.662 0 1.16.246 1.496.739.34.492.512 1.219.512 2.181-.005.882-.168 1.562-.49 2.041-.323.48-.849.72-1.579.72-.693 0-1.205-.256-1.537-.767-.326-.51-.49-1.21-.49-2.101 0-.895.174-1.586.524-2.074.349-.493.87-.739 1.564-.739zm25.25 0c.73 0 1.28.262 1.652.786.372.519.557 1.213.557 2.082 0 .555-.076 1.04-.229 1.457a2.115 2.115 0 0 1-.738.994c-.336.246-.75.369-1.242.369-.716 0-1.263-.26-1.639-.78-.376-.519-.562-1.202-.562-2.048 0-.864.186-1.555.562-2.074.376-.524.923-.786 1.639-.786zm14.986 0c1.128 0 1.718.766 1.772 2.297h-3.867c.062-.707.282-1.268.658-1.68.38-.411.86-.617 1.437-.617zm24.6 0c1.128 0 1.718.766 1.771 2.297h-3.867c.063-.707.282-1.268.658-1.68.38-.411.86-.617 1.438-.617zm-56.658 2.98h.851v1.565c-.532.784-1.258 1.176-2.176 1.176a1.16 1.16 0 0 1-.837-.322c-.224-.215-.336-.52-.336-.914 0-.22.02-.403.06-.551a1.042 1.042 0 0 1 .664-.717c.188-.076.428-.135.719-.176.291-.04.643-.06 1.055-.06zm43.88 0h.854v1.565c-.533.784-1.258 1.176-2.176 1.176-.335 0-.616-.107-.84-.322-.223-.215-.335-.52-.335-.914 0-.22.02-.403.06-.551a1.046 1.046 0 0 1 .666-.717c.188-.076.426-.135.717-.176.29-.04.643-.06 1.055-.06zm-16.369 40.212l-1.113.08v2.209l.053 1.619a2.825 2.825 0 0 0-.342-.504 2.163 2.163 0 0 0-.43-.396 1.79 1.79 0 0 0-.611-.282 3.147 3.147 0 0 0-.805-.095c-.94 0-1.685.336-2.236 1.007-.546.672-.818 1.552-.818 2.64 0 1.145.263 2.056.79 2.732.533.671 1.29 1.007 2.27 1.007 1.016 0 1.756-.464 2.217-1.39l.1 1.256h.925v-9.883zm18.8 0l-1.114.08v2.209l.053 1.619a2.824 2.824 0 0 0-.342-.504 2.163 2.163 0 0 0-.43-.396 1.79 1.79 0 0 0-.611-.282 3.147 3.147 0 0 0-.805-.095c-.94 0-1.686.336-2.236 1.007-.546.672-.819 1.552-.819 2.64 0 1.145.263 2.056.791 2.732.533.671 1.29 1.007 2.27 1.007 1.016 0 1.756-.464 2.217-1.39l.1 1.256h.925v-9.883zm-66.393.08v9.803h5.68l.027-.9h-4.526v-8.903h-1.181zm77.88 0l3.62 9.803h1.033l3.619-9.803h-1.215c-.139.394-.564 1.616-1.275 3.666a620.536 620.536 0 0 1-1.639 4.693c-.295-.819-.607-1.692-.933-2.619-.323-.93-.68-1.965-1.075-3.101-.394-1.142-.697-2.021-.912-2.64h-1.222zm10.333 0a.729.729 0 0 0-.53.201.68.68 0 0 0-.2.512c0 .21.066.381.2.515a.729.729 0 0 0 .53.202.72.72 0 0 0 .523-.202.686.686 0 0 0 .209-.515.67.67 0 0 0-.209-.512.708.708 0 0 0-.523-.201zm17.214 0a.729.729 0 0 0-.529.201.682.682 0 0 0-.203.512c0 .21.069.381.203.515a.729.729 0 0 0 .53.202.72.72 0 0 0 .523-.202.686.686 0 0 0 .209-.515.67.67 0 0 0-.21-.512.708.708 0 0 0-.523-.201zm-95.558 2.55c-.94 0-1.714.338-2.322 1.014-.61.676-.915 1.584-.915 2.721 0 1.123.312 2.014.934 2.672.622.653 1.432.98 2.43.98.895 0 1.695-.208 2.398-.625l-.236-.785a6.803 6.803 0 0 1-1.02.422 3.424 3.424 0 0 1-1.013.143c-.685 0-1.241-.219-1.666-.653-.426-.438-.656-1.11-.692-2.013h4.801l.041-.565c0-1.038-.235-1.848-.705-2.43-.466-.586-1.144-.88-2.035-.88zm7.277 0c-1.043 0-1.862.342-2.457 1.022-.59.676-.885 1.571-.885 2.686 0 1.087.299 1.973.899 2.658.6.68 1.414 1.021 2.443 1.021 1.007 0 1.819-.342 2.432-1.027.613-.69.92-1.574.92-2.652 0-1.115-.296-2.01-.887-2.686-.59-.68-1.413-1.021-2.465-1.021zm8.293 0c-1.07 0-1.873.378-2.41 1.13l-.121-.98h-.967v7.103h1.113v-3.961c0-1.625.73-2.438 2.19-2.438.541 0 .92.164 1.135.49.214.323.322.804.322 1.444v4.465h1.115v-4.344c0-.976-.194-1.703-.584-2.182-.385-.483-.983-.726-1.793-.726zm6.707 0c-.949 0-1.803.178-2.564.532l.3.818a4.796 4.796 0 0 1 1.116-.361c.416-.09.805-.135 1.168-.135.537 0 .93.128 1.175.383.251.255.375.643.375 1.162v.697h-1.134c-1.142 0-1.975.183-2.498.545-.52.358-.778.922-.778 1.692 0 .644.196 1.147.59 1.51.399.362.925.544 1.578.544.976 0 1.769-.373 2.377-1.12l.121.978h.846v-4.686c0-.904-.234-1.555-.7-1.953-.46-.403-1.117-.605-1.972-.605zm20.235 0c-1.043 0-1.862.342-2.457 1.022-.591.676-.885 1.571-.885 2.686 0 1.087.298 1.973.898 2.658.6.68 1.414 1.021 2.444 1.021 1.007 0 1.818-.342 2.431-1.027.613-.69.92-1.574.92-2.652 0-1.115-.296-2.01-.887-2.686-.59-.68-1.413-1.021-2.464-1.021zm18.382 0c-.949 0-1.803.178-2.564.532l.303.818a4.78 4.78 0 0 1 1.113-.361c.416-.09.807-.135 1.17-.135.537 0 .927.128 1.174.383.25.255.377.643.377 1.162v.697h-1.135c-1.142 0-1.975.183-2.498.545-.52.358-.78.922-.78 1.692 0 .644.198 1.147.592 1.51.399.362.925.544 1.578.544.976 0 1.767-.373 2.375-1.12l.122.978h.845v-4.686c0-.904-.232-1.555-.697-1.953-.461-.403-1.12-.605-1.975-.605zm23.506 0c-1.07 0-1.873.378-2.41 1.13l-.121-.98h-.967v7.103h1.115v-3.961c0-1.625.729-2.438 2.188-2.438.541 0 .92.164 1.135.49.215.323.322.804.322 1.444v4.465h1.115v-4.344c0-.976-.194-1.703-.584-2.182-.385-.483-.983-.726-1.793-.726zm7.117 0c-.989 0-1.792.336-2.41 1.003-.617.662-.927 1.573-.927 2.732 0 1.11.3 1.996.9 2.658.604.663 1.414.994 2.43.994.434 0 .823-.05 1.168-.154.344-.103.593-.215.746-.336l-.21-.76c-.451.26-.95.391-1.495.391-.784 0-1.38-.259-1.788-.773-.407-.515-.609-1.187-.609-2.02 0-.877.212-1.576.637-2.096.425-.519.988-.779 1.691-.779.555 0 1.05.131 1.485.39l.316-.765c-.152-.103-.398-.209-.738-.316-.336-.112-.735-.168-1.196-.168zm-61.52.075c-.429 0-.838.121-1.228.363-.385.237-.712.611-.98 1.121l-.121-1.41h-.893v7.104h1.115v-4.022c0-.631.196-1.167.59-1.605.399-.439.901-.659 1.51-.659.125 0 .278.02.457.055l.047-.914a3.008 3.008 0 0 0-.496-.033zm47.79.074v7.104h1.101v-7.104h-1.101zm17.215 0v7.104h1.101v-7.104h-1.101zm-94.975.705c1.128 0 1.718.766 1.772 2.297h-3.868c.063-.707.283-1.268.659-1.68.38-.411.86-.617 1.437-.617zm7.25 0c.73 0 1.281.262 1.653.785.371.52.556 1.214.556 2.082 0 .555-.076 1.041-.228 1.457a2.11 2.11 0 0 1-.739.993c-.335.246-.75.37-1.242.37-.716 0-1.26-.26-1.637-.779-.376-.519-.564-1.203-.564-2.048 0-.864.188-1.555.564-2.075.376-.523.921-.785 1.637-.785zm27.36 0c.662 0 1.162.246 1.498.738.34.493.51 1.22.51 2.182-.005.882-.169 1.562-.49 2.041-.323.479-.85.719-1.579.719-.694 0-1.206-.256-1.537-.766-.327-.51-.49-1.21-.49-2.101 0-.896.174-1.587.523-2.075.35-.492.87-.738 1.565-.738zm7.875 0c.73 0 1.28.262 1.652.785.371.52.557 1.214.557 2.082 0 .555-.077 1.041-.229 1.457a2.11 2.11 0 0 1-.738.993c-.336.246-.75.37-1.242.37-.717 0-1.261-.26-1.637-.779-.376-.519-.565-1.203-.565-2.048 0-.864.189-1.555.565-2.075.376-.523.92-.785 1.637-.785zm10.923 0c.663 0 1.163.246 1.498.738.34.493.51 1.22.51 2.182-.004.882-.168 1.562-.49 2.041-.322.479-.849.719-1.578.719-.694 0-1.206-.256-1.537-.766-.327-.51-.49-1.21-.49-2.101 0-.896.174-1.587.523-2.075.349-.492.87-.738 1.564-.738zm-30.44 2.98h.852v1.565c-.532.783-1.258 1.176-2.175 1.176a1.16 1.16 0 0 1-.838-.322c-.224-.215-.336-.52-.336-.914 0-.22.02-.404.06-.551a1.042 1.042 0 0 1 .665-.717c.188-.076.427-.136.718-.176.291-.04.643-.06 1.055-.06zm38.618 0h.854v1.565c-.533.783-1.259 1.176-2.176 1.176-.336 0-.616-.108-.84-.322-.224-.215-.336-.52-.336-.914 0-.22.02-.404.06-.551a1.046 1.046 0 0 1 .667-.717c.188-.076.425-.136.716-.176.291-.04.643-.06 1.055-.06zM80.27 154c-.721 0-1.385.13-1.989.389a4.322 4.322 0 0 0-1.523 1.054 4.814 4.814 0 0 0-.953 1.604 5.837 5.837 0 0 0-.336 2.002c0 .716.098 1.377.295 1.986.201.604.492 1.132.873 1.584.38.452.863.808 1.449 1.063.586.255 1.25.38 1.988.38 1.19 0 2.306-.2 3.344-.603v-4.525h-3.23l-.047.94h2.181v2.96a6.878 6.878 0 0 1-2.04.289c-.632 0-1.181-.098-1.651-.295a2.786 2.786 0 0 1-1.135-.84 3.77 3.77 0 0 1-.63-1.281 6.146 6.146 0 0 1-.21-1.666c0-.779.142-1.476.424-2.094a3.41 3.41 0 0 1 1.256-1.47c.555-.367 1.206-.551 1.953-.551.152 0 .297.005.436.013.143.01.28.025.41.047l.342.06a1.8 1.8 0 0 1 .308.089l.264.093c.067.023.15.06.248.114a7.855 7.855 0 0 1 .57.303l.29-.887c-.73-.506-1.692-.758-2.887-.758zm33.601.133v9.803h1.182v-4.573h5.103v4.573h1.182v-9.803h-1.182v4.37h-5.103v-4.37h-1.182zm-21.08 2.553c-.949 0-1.805.175-2.566.529l.302.82a4.796 4.796 0 0 1 1.116-.363c.416-.09.805-.135 1.168-.135.537 0 .927.128 1.173.383.251.255.377.643.377 1.162v.697h-1.134c-1.142 0-1.975.183-2.498.545-.52.358-.78.922-.78 1.692 0 .644.198 1.147.592 1.51.398.362.925.544 1.578.544.976 0 1.768-.373 2.377-1.12l.121.98h.846v-4.688c0-.904-.234-1.555-.7-1.953-.46-.403-1.117-.603-1.972-.603zm7.47 0c-.988 0-1.792.333-2.41 1-.617.662-.925 1.573-.925 2.732 0 1.11.3 1.996.9 2.658.604.663 1.414.994 2.43.994a4.08 4.08 0 0 0 1.168-.154c.344-.103.594-.215.746-.336l-.21-.758a2.94 2.94 0 0 1-1.495.389c-.783 0-1.38-.257-1.787-.772-.408-.514-.612-1.189-.612-2.021 0-.877.214-1.577.64-2.096.424-.519.988-.777 1.69-.777.556 0 1.05.129 1.485.389l.314-.766c-.152-.103-.398-.207-.738-.314-.336-.112-.734-.168-1.195-.168zm5.997 0c-.94 0-1.714.337-2.322 1.013-.61.676-.915 1.582-.915 2.719 0 1.123.312 2.014.934 2.672.622.653 1.432.98 2.43.98.895 0 1.695-.208 2.398-.625l-.236-.785a6.83 6.83 0 0 1-1.02.424c-.304.094-.642.14-1.013.14-.685 0-1.241-.218-1.666-.652-.426-.438-.656-1.11-.692-2.013h4.801l.041-.565c0-1.038-.235-1.848-.705-2.43-.466-.586-1.145-.878-2.035-.878zm20.088 0c-1.043 0-1.862.339-2.457 1.02-.591.675-.887 1.57-.887 2.685 0 1.087.3 1.973.9 2.658.6.68 1.414 1.021 2.444 1.021 1.007 0 1.818-.342 2.431-1.027.614-.69.918-1.574.918-2.652 0-1.115-.294-2.01-.884-2.686-.591-.68-1.413-1.02-2.465-1.02zm8.158 0c-1.025 0-1.8.462-2.324 1.388l-.114-1.242h-.925v10.219h1.113v-2.672l-.047-1.645c.528.891 1.286 1.336 2.275 1.336.931 0 1.657-.336 2.176-1.008.52-.67.78-1.557.78-2.658 0-1.146-.251-2.052-.752-2.718-.497-.667-1.224-1-2.182-1zm7.76 0c-1.025 0-1.799.462-2.323 1.388l-.113-1.242h-.928v10.219h1.116v-2.672l-.047-1.645c.528.891 1.286 1.336 2.275 1.336.931 0 1.657-.336 2.176-1.008.52-.67.78-1.557.78-2.658 0-1.146-.251-2.052-.753-2.718-.497-.667-1.226-1-2.183-1zm7.312 0c-.94 0-1.713.337-2.322 1.013-.609.676-.914 1.582-.914 2.719 0 1.123.311 2.014.933 2.672.623.653 1.432.98 2.43.98.895 0 1.694-.208 2.397-.625l-.235-.785a6.83 6.83 0 0 1-1.02.424c-.304.094-.641.14-1.013.14-.685 0-1.24-.218-1.666-.652-.425-.438-.656-1.11-.691-2.013h4.8l.04-.565c0-1.038-.236-1.848-.706-2.43-.465-.586-1.142-.878-2.033-.878zm-61.043.072c-.43 0-.839.121-1.228.363-.385.237-.712.611-.98 1.121l-.122-1.41h-.892v7.104h1.115v-4.022c0-.631.196-1.165.59-1.603.398-.439.903-.659 1.511-.659.126 0 .276.017.455.053l.05-.912a3.005 3.005 0 0 0-.499-.035zm68.563 0c-.43 0-.84.121-1.229.363-.385.237-.712.611-.98 1.121l-.121-1.41h-.893v7.104h1.115v-4.022c0-.631.196-1.165.59-1.603.398-.439.901-.659 1.51-.659.125 0 .278.017.457.053l.047-.912a2.98 2.98 0 0 0-.496-.035zm-50.81.78c1.127 0 1.717.765 1.77 2.296h-3.867c.063-.707.283-1.268.659-1.68.38-.411.86-.617 1.437-.617zm20.06 0c.73 0 1.28.26 1.652.784.372.52.557 1.214.557 2.082 0 .555-.077 1.041-.229 1.457a2.115 2.115 0 0 1-.738.995c-.336.246-.75.369-1.242.369-.716 0-1.263-.26-1.639-.78-.376-.519-.562-1.2-.562-2.047 0-.863.186-1.556.562-2.076.376-.523.923-.785 1.639-.785zm8.029 0c1.28 0 1.922.95 1.922 2.853 0 1.884-.664 2.826-1.988 2.826-.672 0-1.19-.257-1.557-.772-.363-.514-.545-1.237-.545-2.168.004-.859.184-1.532.537-2.015.354-.484.897-.725 1.631-.725zm7.762 0c1.28 0 1.92.95 1.92 2.853 0 1.884-.662 2.826-1.987 2.826-.671 0-1.191-.257-1.558-.772-.363-.514-.543-1.237-.543-2.168.004-.859.183-1.532.537-2.015.353-.484.897-.725 1.63-.725zm7.467 0c1.127 0 1.717.765 1.771 2.296h-3.867c.063-.707.282-1.268.658-1.68.38-.411.86-.617 1.438-.617zm-56.096 2.98h.853v1.564c-.532.783-1.258 1.176-2.175 1.176-.336 0-.617-.108-.84-.322-.224-.215-.334-.52-.334-.914 0-.22.02-.402.06-.55a1.04 1.04 0 0 1 .664-.719c.188-.075.428-.135.72-.175.29-.04.64-.06 1.052-.06zM90 202c-7.756 0-14 6.244-14 14s6.244 14 14 14 14-6.244 14-14-6.244-14-14-14zm58 0c-7.756 0-14 6.244-14 14s6.244 14 14 14 14-6.244 14-14-6.244-14-14-14zm58.25 0v12.25h3.5V202h-3.5zm-1.75.465c-6.047 1.548-10.5 6.992-10.5 13.535 0 7.756 6.244 14 14 14s14-6.244 14-14c0-6.543-4.453-11.987-10.5-13.535v1.814A12.2 12.2 0 0 1 220.25 216c0 6.787-5.463 12.25-12.25 12.25A12.223 12.223 0 0 1 195.75 216a12.2 12.2 0 0 1 8.75-11.72v-1.815zM90 203.75c6.787 0 12.25 5.463 12.25 12.25S96.787 228.25 90 228.25A12.223 12.223 0 0 1 77.75 216c0-6.787 5.463-12.25 12.25-12.25zm58 0c6.787 0 12.25 5.463 12.25 12.25s-5.463 12.25-12.25 12.25A12.223 12.223 0 0 1 135.75 216c0-6.787 5.463-12.25 12.25-12.25zm0 3.5a3.5 3.5 0 0 0-3.5 3.5v3.5H141V223h14v-8.75h-3.5v-3.5a3.5 3.5 0 0 0-3.5-3.5zM92.262 209l-5.762 5.764L85.262 216l1.238 1.238L92.262 223l1.238-1.236L87.736 216l5.764-5.762L92.262 209zM148 209a1.75 1.75 0 0 1 1.75 1.75v3.5h-3.5v-3.5A1.75 1.75 0 0 1 148 209zm-5.25 7h10.5v5.25h-10.5V216z" id="rect7886" fill="currentColor" fill-opacity="1" stroke="none"/><path class="ColorScheme-Text" d="M107.48 77.486a9.759 9.759 0 0 0-1.283 2.692c-.3.98-.449 2.006-.449 3.076 0 1.182.153 2.312.457 3.39.309 1.075.739 1.993 1.29 2.758h1.032c-1.128-1.772-1.691-3.83-1.691-6.175 0-2.09.565-4.004 1.697-5.74h-1.053zm14.133 0c.613.976 1.05 1.917 1.309 2.82.26.905.389 1.868.389 2.893 0 1.128-.14 2.232-.422 3.31a9.664 9.664 0 0 1-1.27 2.893h1.041c.537-.738.96-1.656 1.27-2.757.313-1.106.468-2.25.468-3.432 0-2.122-.577-4.03-1.732-5.727h-1.053zm-24.345.444c-.878 0-1.59.22-2.141.658-.55.439-.826 1.032-.826 1.78 0 .572.17 1.065.51 1.482.344.416.79.713 1.335.892-.657.228-1.165.57-1.523 1.022-.354.447-.531 1-.531 1.658 0 .546.146 1.018.437 1.416.296.398.679.693 1.149.88.47.189.997.282 1.584.282.908 0 1.662-.226 2.261-.678.6-.452.9-1.086.9-1.9 0-.622-.183-1.176-.55-1.664a2.895 2.895 0 0 0-1.477-1.028c.56-.2 1-.502 1.323-.9.326-.403.49-.89.49-1.463 0-.752-.272-1.345-.818-1.78-.542-.438-1.25-.657-2.123-.657zm19.544.134c-.232.162-.58.323-1.046.489a9.33 9.33 0 0 1-1.196.343v.887c.3-.04.663-.13 1.088-.263a5.75 5.75 0 0 0 1.067-.436v7.977h-2.364v.804h5.586v-.804h-2.107v-8.997h-1.028zm-19.55.692c.568 0 1.023.144 1.363.435.34.287.51.67.51 1.149 0 .528-.158.967-.47 1.316-.314.35-.781.59-1.403.725-.618-.139-1.088-.38-1.41-.725-.318-.349-.477-.788-.477-1.316 0-.475.173-.858.518-1.149.349-.29.805-.435 1.369-.435zm-18.692 1.86c-1.043 0-1.861.338-2.457 1.019-.59.676-.886 1.57-.886 2.685 0 1.088.3 1.976.9 2.66.6.68 1.414 1.02 2.443 1.02 1.007 0 1.817-.343 2.43-1.027.613-.69.92-1.574.92-2.653 0-1.114-.296-2.01-.887-2.685-.59-.68-1.41-1.02-2.463-1.02zm8.291 0c-1.07 0-1.873.374-2.41 1.126l-.12-.98h-.968v7.103h1.116v-3.96c0-1.625.73-2.438 2.189-2.438.542 0 .918.163 1.133.49.215.322.322.803.322 1.443v4.465h1.115v-4.344c0-.975-.194-1.702-.584-2.181-.385-.484-.983-.725-1.793-.725zm24.118.146c-.265 0-.469.076-.612.228a.727.727 0 0 0-.215.524c0 .206.072.385.215.537.143.147.347.222.612.222.264 0 .464-.075.603-.222a.758.758 0 0 0 .215-.537.727.727 0 0 0-.215-.524c-.139-.152-.34-.228-.603-.228zm-32.409.705c.73 0 1.281.263 1.653.787.371.52.556 1.212.556 2.08 0 .555-.076 1.04-.228 1.457a2.116 2.116 0 0 1-.739.994c-.335.246-.75.37-1.242.37-.716 0-1.262-.26-1.638-.78-.376-.52-.565-1.2-.565-2.047 0-.864.189-1.555.565-2.074.376-.524.922-.787 1.638-.787zm18.692 1.699c.63.134 1.138.39 1.523.766.39.376.584.836.584 1.382 0 1.218-.702 1.827-2.107 1.827-.69 0-1.217-.16-1.584-.477-.363-.318-.545-.766-.545-1.344 0-.564.194-1.03.584-1.396.39-.367.905-.62 1.545-.758zm13.717 3.27c-.265 0-.469.074-.612.222a.733.733 0 0 0-.215.53c0 .2.072.379.215.53.143.148.347.221.612.221.264 0 .464-.073.603-.22a.752.752 0 0 0 .215-.532.733.733 0 0 0-.215-.529c-.139-.148-.34-.222-.603-.222zm-3.499 37.726a9.759 9.759 0 0 0-1.283 2.692c-.3.98-.449 2.006-.449 3.076 0 1.181.153 2.312.457 3.39.309 1.075.739 1.993 1.29 2.758h1.032c-1.128-1.772-1.691-3.83-1.691-6.176 0-2.09.565-4.003 1.697-5.74h-1.053zm14.133 0c.613.976 1.05 1.916 1.309 2.82.26.905.389 1.868.389 2.893 0 1.128-.14 2.232-.422 3.31a9.664 9.664 0 0 1-1.27 2.893h1.041c.537-.738.96-1.657 1.27-2.758.313-1.105.468-2.25.468-3.431 0-2.122-.577-4.03-1.732-5.727h-1.053zm-24.345.443c-.878 0-1.59.22-2.141.659-.55.438-.826 1.03-.826 1.777 0 .573.17 1.068.51 1.484.344.417.79.714 1.335.893-.657.228-1.165.57-1.523 1.021-.354.448-.531 1-.531 1.659 0 .546.146 1.017.437 1.416.296.398.679.693 1.149.88.47.189.997.282 1.584.282.908 0 1.662-.226 2.261-.678.6-.452.9-1.086.9-1.9a2.7 2.7 0 0 0-.55-1.666 2.895 2.895 0 0 0-1.477-1.028c.56-.201 1-.5 1.323-.898.326-.403.49-.892.49-1.465 0-.752-.272-1.343-.818-1.777-.542-.439-1.25-.659-2.123-.659zm19.544.133c-.232.161-.58.325-1.046.49-.461.162-.86.277-1.196.344v.885c.3-.04.663-.127 1.088-.262.43-.134.785-.279 1.067-.435v7.976h-2.364v.805h5.586v-.805h-2.107v-8.998h-1.028zm-19.55.692c.568 0 1.023.146 1.363.437.34.287.51.67.51 1.149 0 .528-.158.965-.47 1.314-.314.35-.781.592-1.403.727-.618-.14-1.088-.382-1.41-.727-.318-.349-.477-.786-.477-1.314 0-.475.173-.858.518-1.149.349-.29.805-.437 1.369-.437zm-18.692 1.86c-1.043 0-1.861.34-2.457 1.02-.59.675-.886 1.57-.886 2.685 0 1.088.3 1.973.9 2.658.6.68 1.414 1.022 2.443 1.022 1.007 0 1.817-.343 2.43-1.028.613-.689.92-1.573.92-2.652 0-1.114-.296-2.01-.887-2.685-.59-.68-1.41-1.02-2.463-1.02zm8.291 0c-1.07 0-1.873.375-2.41 1.127l-.12-.98h-.968v7.103h1.116v-3.96c0-1.626.73-2.438 2.189-2.438.542 0 .918.163 1.133.49.215.322.322.803.322 1.443v4.465h1.115v-4.344c0-.975-.194-1.702-.584-2.181-.385-.484-.983-.725-1.793-.725zm24.118.147c-.265 0-.469.076-.612.228a.727.727 0 0 0-.215.523c0 .206.072.385.215.538.143.147.347.222.612.222.264 0 .464-.075.603-.222a.758.758 0 0 0 .215-.538.727.727 0 0 0-.215-.523c-.139-.152-.34-.228-.603-.228zm-32.409.705c.73 0 1.281.261 1.653.785.371.519.556 1.213.556 2.082 0 .555-.076 1.04-.228 1.457a2.116 2.116 0 0 1-.739.994c-.335.246-.75.37-1.242.37-.716 0-1.262-.261-1.638-.78-.376-.52-.565-1.201-.565-2.047 0-.864.189-1.557.565-2.076.376-.524.922-.785 1.638-.785zm18.692 1.699c.63.134 1.138.39 1.523.765.39.376.584.837.584 1.383 0 1.218-.702 1.826-2.107 1.826-.69 0-1.217-.158-1.584-.476-.363-.318-.545-.767-.545-1.344 0-.564.194-1.03.584-1.396.39-.367.905-.62 1.545-.758zm13.717 3.27c-.265 0-.469.072-.612.22a.737.737 0 0 0-.215.531c0 .202.072.38.215.532.143.147.347.22.612.22.264 0 .464-.073.603-.22a.752.752 0 0 0 .215-.532.737.737 0 0 0-.215-.531c-.139-.148-.34-.22-.603-.22zM74.89 172.116v.899h2.914v8.902h1.181v-8.902h2.934v-.899h-7.03zm7.492 0v.899h2.914v8.902h1.182v-8.902h2.933v-.899h-7.03zm7.601 0l3.323 5.754v4.047h1.142v-4.06l3.149-5.74H96.43l-2.559 4.765-2.719-4.766h-1.168zm15.147 0c-.233.161-.583.325-1.049.49a9.136 9.136 0 0 1-1.193.342v.887c.3-.04.66-.128 1.086-.262.43-.134.786-.28 1.068-.437v7.976h-2.363v.805h5.586v-.805h-2.108v-8.996h-1.027z" id="text11719-4-8-8" fill="currentColor" fill-opacity=".5" stroke="none"/><path d="M30 18.559v28h28v-28H30zM30 60v28h28V60H30zm0 47.377v28h28v-28H30zm0 47.377v28h28v-28H30z" id="rect4151" opacity="1" fill="#1d99f3" fill-opacity="1" stroke="none" stroke-width=".5" stroke-linecap="butt" stroke-linejoin="round" stroke-miterlimit="4" stroke-dasharray="none" stroke-opacity="1"/><path d="M49.6 23.458l8.4 8.4v14.7H46.8z" id="path4467" opacity=".2" fill="url(#linearGradient4320)" fill-opacity="1" fill-rule="evenodd" stroke="none" stroke-width="1" stroke-linecap="butt" stroke-linejoin="miter" stroke-opacity="1"/><path d="M49.6 63.64l8.4 8.4V88H46.8z" id="path4467-3" opacity=".2" fill="url(#linearGradient4322)" fill-opacity="1" fill-rule="evenodd" stroke="none" stroke-width="1" stroke-linecap="butt" stroke-linejoin="miter" stroke-opacity="1"/><path d="M44 156.155c-7 0-11.2 5.6-9.8 12.6 1.373 6.864 3.08 5.6 1.68 7-1.4 1.4 0 2.8 1.4 4.2 1.4 1.4 3.92 1.4 3.92 1.4h5.6s2.52 0 3.92-1.4 2.8-2.8 1.4-4.2c-1.4-1.4.307-.136 1.68-7 1.4-7-2.8-12.6-9.8-12.6z" id="path4232" fill="#1d99f3" fill-rule="evenodd" stroke="none" stroke-width="1" stroke-linecap="butt" stroke-linejoin="miter" stroke-opacity="1"/><path d="M49.6 111.624l8.4 7.494v13.239h-5.88z" id="path4467-37" opacity=".2" fill="url(#linearGradient4324)" fill-opacity="1" fill-rule="evenodd" stroke="none" stroke-width="1" stroke-linecap="butt" stroke-linejoin="miter" stroke-opacity="1"/><path d="M51.56 159.235l6.44 6.44v17.08H46.8z" id="path4467-9" opacity=".2" fill="url(#linearGradient4475-5)" fill-opacity="1" fill-rule="evenodd" stroke="none" stroke-width="1" stroke-linecap="butt" stroke-linejoin="miter" stroke-opacity="1"/><path d="M44 21.357c-2.923 0-6.848 1.137-8.053 7.301-.088-.007-.18-.02-.261-.02-.86.014-1.391.475-1.473 1.483-.131 1.613.812 1.95.707 2.465-.09.443.162.886.715 1.06.412 6.21 4.05 9.38 4.724 12.913h7.282c.674-3.533 4.312-6.703 4.724-12.913.553-.174.805-.617.715-1.06-.105-.514.838-.852.707-2.465-.082-1.008-.612-1.469-1.473-1.482-.081-.002-.173.012-.261.02-1.205-6.165-5.13-7.302-8.053-7.302zm0 41.444c-3.36 0-8.4 1.487-8.4 10.412 0 4.144 1.93 7.143 3.709 8.85.086 1.275.115 3.89-.909 5.937h11.2c-1.024-2.046-.995-4.662-.909-5.938a12.168 12.168 0 0 0 3.633-7.513c.576-.162.638-.56.756-1.082.116-.512.559-.85.428-2.463-.082-1.008-.333-1.47-1.194-1.484-.085-.002-.182.01-.275.02C50.84 63.873 46.83 62.8 44 62.8zm-8.594 7c-.86.013-1.111.474-1.193 1.482-.131 1.613.31 1.953.426 2.465.12.533.176.937.785 1.092-.04-.644-.041-1.33.002-2.067a14.78 14.78 0 0 1 .455-2.937 3.108 3.108 0 0 0-.475-.035zM44 109.875c-1.576 0-3.517.303-5.139 1.434-.06.02-.107.031-.181.064-2.24 1-3.36 3.998-3.36 3.998s.388-.164.838-.223c-.029.093-.06.18-.088.276-.321.044-1.49.441-1.566 1.27-.098 1.073.105 1.715.271 2.2l-.015-.027c-.287.846.084 3.451-1.4 4.996-1.485 1.545.42 3.246-.84 4.496-1.262 1.25 0 2.587-.84 3.748-.183.254-.546.452-.977.61l-.142 1.662.578-.22.125-1.442c.43-.158.793-.356.976-.61.84-1.161-.421-2.497.84-3.748 1.261-1.25-.644-2.95.84-4.496 1.074-1.117 1.323-2.731 1.305-3.771a.826.826 0 0 0 .357.222c-.056 1.08-.304 2.676-1.383 3.8-1.484 1.544.422 3.245-.84 4.495-1.26 1.25 0 2.587-.84 3.748-.183.254-.545.452-.976.61l-.143 2.41s4.628-1.698 5.32-2.522c.84-.999.406-3.109 1.12-3.746.84-.749-.472-2.104.28-2.998.804-.957.599-1.018 1.071-1.898.068.062.139.12.192.17-.112.479-.244.954-.703 1.59-.752 1.039.28 2.613-.56 3.484-.715.74 0 2.325-.84 3.486-.184.254-.544.454-.975.612l-.145.55s2.948-.426 3.64-1.25c.84-.999-.154-2.109.56-2.746.84-.749-.191-2.104.56-2.998.84-.999.28-1.249.84-2.248l-.078-.045.261.006c-.377.861.034 1.363-.744 2.287-.751.894.56 2.249-.28 2.998-.713.637.001 1.997-.839 2.996-.693.824 3.92 1.25 3.92 1.25s5.173.574 4.48-.25c-.84-.999-.965-2.11-1.68-2.748-.84-.749.752-3.352 0-4.246-.76-.906-.38-1.405-.718-2.234l.166.002c.544.985-.003 1.239.832 2.232.751.894-.56 2.997.28 3.746.713.637.56 2.25 1.4 3.248.692.824 2.8.25 2.8.25l.417-.55c-.431-.158-.794-.358-.977-.612-.84-1.161-.702-2.751-1.416-3.492-.84-.871.017-2.138-.734-3.178-.464-.64-.389-1.337-.362-1.984.093-.082.2-.187.325-.309.434.903-.207 1.227.597 2.184.751.894-.385 2.188.455 2.938.714.636.856 2.754 1.696 3.753.692.824 5.6 2.022 5.6 2.022l-.145-2.41c-.431-.158-.794-.356-.977-.61-.84-1.161.421-1.497-.84-2.748-1.261-1.25-.195-3.2-1.68-4.746-1.098-1.143-1.181-3.054-1.152-4.275a.878.878 0 0 0 .387-.213c-.072 1.134-.029 3.119 1.047 4.238 1.484 1.545.418 3.496 1.68 4.746 1.26 1.25 0 1.587.84 2.748.182.254.545.452.976.61l.123 1.441c.294.113.58.22.58.22l-.145-1.661c-.43-.158-.791-.356-.974-.61-.84-1.161.42-1.497-.842-2.748-1.261-1.25-.195-3.2-1.68-4.746-1.48-1.54-.835-4.634-1.117-5.488.166-.485.362-1.122.266-2.182-.076-.836-1.272-1.236-1.578-1.273-.027-.094-.06-.18-.088-.272.45.06.838.223.838.223s-1.12-2.999-3.36-3.998c-.074-.033-.122-.044-.181-.064-1.622-1.131-3.563-1.434-5.139-1.434zm1.027 47.678a13.274 13.274 0 0 0-1.027.002c-5.664.222-7.84 3.079-7.56 5.879.051.52.002.858-.083 1.138-1.108.09-1.457.728-1.572 2.043-.196 2.24.816 2.979.639 3.701-.132.54.175 1.246.738 1.48.758 3.042 1.69 4.528 2.799 5.638.107.107.231.19.35.28.087.952.115 2.99-.91 5.04H49.6c-1.026-2.05-.998-4.088-.91-5.04.118-.09.242-.173.35-.28 1.103-1.104 2.03-2.58 2.786-5.59.669-.151 1.053-.936.908-1.528-.177-.722.835-1.46.639-3.7-.102-1.17-.39-1.803-1.23-1.993-.054-.287-.079-.64-.024-1.19.263-2.624-2.125-5.69-7.092-5.88z" id="path4245" color="#eff0f2" fill="#f5f6f7" fill-opacity="1" fill-rule="evenodd" stroke="none" stroke-width="1" stroke-linecap="butt" stroke-linejoin="miter" stroke-opacity="1"/><path d="M40.15 28.93c-.301.058-.515.315-.601.668-.114.47.043 1.109.517 1.222.474.114.697-.143.811-.613.114-.47.077-1.152-.397-1.266a.78.78 0 0 0-.33-.011zm7.7 0a.78.78 0 0 0-.33.011c-.474.114-.511.796-.397 1.266.114.47.337.727.81.613.475-.113.632-.752.518-1.222-.086-.353-.3-.61-.601-.668zm-6.668 8.31c-.12.003-.21.026-.262.078-.28.28 1.12 1.96 3.08 1.96s3.36-1.68 3.08-1.96c-.28-.28-1.61.28-3.08.28-1.194 0-2.297-.37-2.818-.358zm6.021 24.44L43.44 62.8c.733 2.931 5.087 9.45 7.674 8.495-.166.496-.107 1.015 0 1.168-.318.263-.84 2.028-.603 2.367-.319.263-.483 1.466-.246 1.805-.319.263-.5 1.589-.264 1.927-.318.263-.743 1.108.129 1.202 1.424.152 2.028-.42 2.068-.721.319-.263 1.356-1.654 1.12-1.992.318-.263 1.353-1.654 1.117-1.992.318-.263 1.08-1.69.841-2.03.319-.263.12-2.458-2.171-2.744a2.528 2.528 0 0 0-.971.045c2.188-3.875-4.93-8.65-4.93-8.65zm-7.123.56l-6.44 3.08 2.018 5.045a2.829 2.829 0 0 0-.74.002c-2.292.286-2.488 2.481-2.17 2.744-.238.34.524 1.769.842 2.032-.237.338.799 1.729 1.117 1.992-.237.338.8 1.727 1.12 1.99.04.3.644.873 2.068.72.872-.093.447-.938.128-1.2.237-.34.055-1.665-.263-1.928.236-.339.072-1.54-.246-1.803.236-.339-.286-2.106-.604-2.37.14-.2.208-1.022-.228-1.605-.098-.624-.412-2.965.318-3.939.84-1.12 6.44-1.68 5.88-4.2l-2.8-.56zm.21 8.961c-.372.018-.741.19-.823.533-.11.458.14.673.594.784.454.11 1.113.075 1.222-.383.11-.458-.178-.79-.633-.9a1.286 1.286 0 0 0-.36-.034zm7.42 0a1.286 1.286 0 0 0-.36.033c-.455.11-.743.443-.633.9.11.459.768.494 1.222.384.455-.11.704-.326.594-.784-.082-.343-.451-.515-.822-.533zm-4.667 7.819c-.255.01-.53.108-.793.359-.35.335-1.05.14-1.05.14.35.67 1.4 1.76 2.8 1.76s2.45-1.09 2.8-1.76c0 0-.7.195-1.05-.14-.7-.67-1.487-.251-1.75 0a1.385 1.385 0 0 0-.957-.36zm-3.148 37.539a.932.932 0 0 0-.336.017c-.513.11-.685.726-.561 1.18.124.453.495.742 1.008.633.512-.11.551-.768.428-1.221-.093-.34-.25-.565-.54-.61zm8.212 0c-.289.044-.448.269-.54.609-.124.453-.085 1.111.427 1.22.513.11.884-.179 1.008-.632.124-.454-.048-1.07-.56-1.18a.921.921 0 0 0-.335-.017zm-6.513 8.171c-.074.212-.103.654-.121.836.492.285 1.5.795 2.527.795 1.026 0 2.035-.51 2.527-.795-.018-.182-.047-.624-.12-.836-.605.065-1.678.133-2.407.133-.73 0-1.802-.068-2.406-.133zm.427 31.582l-4.742 2.127-.523 2.565a14.16 14.16 0 0 1 1.24-1.48c3.714-3.944 5.713.269 5.713.269s5.715-3.394 8.645 2.297l.808-.397-1.601-2.459-2.827-2.07-6.713-.851zm-5.265 4.692c-1.086 1.518-.324 1.586-.324 1.586l.324-1.586zm3.533 5.232c-.37.018-.74.19-.822.534-.11.458.14.67.594.78.454.111 1.113.078 1.222-.38.11-.458-.178-.79-.633-.9a1.285 1.285 0 0 0-.36-.034zm7.422 0a1.285 1.285 0 0 0-.361.034c-.455.11-.743.442-.633.9.11.458.768.491 1.222.38.455-.11.704-.322.594-.78-.082-.344-.451-.516-.822-.534zm-5.139 7.485a.506.506 0 0 0-.322.133c-.35.335-1.33.28-1.33.28.175.336.595.6 1.146.782.552.181 1.234.559 1.934.559s1.382-.378 1.934-.559c.55-.181.971-.446 1.146-.781 0 0-.98.054-1.33-.281-.35-.336-1.05.058-1.75.058-.525 0-1.05-.222-1.428-.191z" id="path4302" fill="#1d99f3" fill-opacity="1" fill-rule="evenodd" stroke="none" stroke-width="1" stroke-linecap="butt" stroke-linejoin="miter" stroke-opacity="1"/><path d="M44.292 30.478c.86.86 1.959 4.88-.292 4.88-.394 0-.686-.124-.894-.332L48.2 40.12l2.867-2.867z" id="path4407" opacity=".1" fill="url(#linearGradient4465)" fill-opacity="1" fill-rule="evenodd" stroke="none" stroke-width="1" stroke-linecap="butt" stroke-linejoin="miter" stroke-opacity="1"/><path d="M44 72.32l-1.174 4.76 5.092 5.092 2.856-3.078z" id="path4407-4" opacity=".1" fill="url(#linearGradient4465-1)" fill-opacity="1" fill-rule="evenodd" stroke="none" stroke-width="1" stroke-linecap="butt" stroke-linejoin="miter" stroke-opacity="1"/><path d="M44 117.619l-1.734 4.496 5.092 4.543 3.416-2.996z" id="path4407-0" opacity=".1" fill="url(#linearGradient4326)" fill-opacity="1" fill-rule="evenodd" stroke="none" stroke-width="1" stroke-linecap="butt" stroke-linejoin="miter" stroke-opacity="1"/><path d="M44 166.515l-1.174 4.76 5.092 5.092 2.856-3.078z" id="path4407-1" opacity=".1" fill="url(#linearGradient4465-2)" fill-opacity="1" fill-rule="evenodd" stroke="none" stroke-width="1" stroke-linecap="butt" stroke-linejoin="miter" stroke-opacity="1"/><path d="M52.12 170.995a.28.28 0 0 0-.28.28.28.28 0 0 0 .191.265l-.191.575.28.28.28-.28-.191-.575a.28.28 0 0 0 .191-.265.28.28 0 0 0-.28-.28z" id="path4282" opacity="1" fill="#2ecc71" fill-opacity="1" stroke="none" stroke-width="2" stroke-linecap="round" stroke-linejoin="round" stroke-miterlimit="4" stroke-dasharray="none" stroke-opacity="1"/><path d="M35.88 170.995a.28.28 0 0 0-.28.28.28.28 0 0 0 .191.265l-.191.575.28.28.28-.28-.191-.575a.28.28 0 0 0 .191-.265.28.28 0 0 0-.28-.28z" id="path4282-7" opacity="1" fill="#2ecc71" fill-opacity="1" stroke="none" stroke-width="2" stroke-linecap="round" stroke-linejoin="round" stroke-miterlimit="4" stroke-dasharray="none" stroke-opacity="1"/><path d="M44 30.318c-.84 0-2.52 5.04 0 5.04s.84-5.04 0-5.04zm-.055 32.188a8.573 8.573 0 0 0-.804.015c-4.304.287-6.899 2.881-6.899 2.881a.28.28 0 0 0 .397.397s2.443-2.446 6.539-2.719c4.054-.27 7.353 2.727 7.353 2.727a.28.28 0 0 0 .38-.412s-3.009-2.78-6.966-2.89zm-.283.982a7.734 7.734 0 0 0-.79.012c-4.253.283-6.536 2.848-6.536 2.848a.14.14 0 0 0 .209.185s2.196-2.477 6.344-2.754c4.12-.274 7.453 3.04 7.453 3.04a.14.14 0 1 0 .197-.198s-2.979-2.994-6.877-3.133zm9.018 1.272a.7.84 0 0 0-.7.84.7.84 0 0 0 .7.84.7.84 0 0 0 .7-.84.7.84 0 0 0-.7-.84zm-1.4 1.4a.7.84 0 0 0-.7.84.7.84 0 0 0 .7.84.7.84 0 0 0 .7-.84.7.84 0 0 0-.7-.84zm1.54.56a.7.84 0 0 0-.7.84.7.84 0 0 0 .7.84.7.84 0 0 0 .7-.84.7.84 0 0 0-.7-.84zM44 72.32c-.42 0-.32 1.78-.84 3.08-.56 1.4-.84 1.96.84 1.96s1.4-.56.84-1.96c-.52-1.3-.42-3.08-.84-3.08zm0 45.3c-.42 0-.849 1.85-1.4 2.997-.84 1.749-.56 1.748 1.4 1.748s2.24 0 1.4-1.748c-.551-1.148-.98-2.998-1.4-2.998zm-3.64 47.214c-1.4 0-2.8.28-3.36.56s-1.12.56-1.12.84c0 .28 1.12 0 1.4.56.28.56.56 1.96 1.96 2.52s3.08.56 3.64-1.4.84-1.959 1.12-1.959c.28 0 .56 0 1.12 1.96s2.24 1.96 3.64 1.4 1.68-1.96 1.96-2.52 1.4-.28 1.4-.56-.56-.56-1.12-.84c-.56-.28-1.96-.561-3.36-.561s-2.52.56-3.64.56-2.24-.56-3.64-.56zm.087.455c.333 0 .683.036 1.033.106 1.4.28 1.4 1.68.84 2.8-.56 1.12-1.96 1.4-3.64.28-.56-.56-.56-1.4-.28-2.24.21-.63 1.05-.946 2.047-.946zm7.106 0c.997 0 1.837.315 2.047.945.28.84.28 1.68-.28 2.24-1.68 1.12-3.08.841-3.64-.279s-.56-2.52.84-2.8c.35-.07.7-.106 1.033-.106zM44 166.795c-.42 0-.6 1.78-1.12 3.08-.28.7-.7 1.189-.56 1.504.14.315.84.736 1.68.736s1.54-.421 1.68-.736c.14-.315-.28-.804-.56-1.504-.52-1.3-.7-3.08-1.12-3.08z" id="path4188" fill="#2ecc71" fill-rule="evenodd" stroke="none" stroke-width="1" stroke-linecap="butt" stroke-linejoin="miter" stroke-opacity="1"/></svg>