<svg xmlns="http://www.w3.org/2000/svg" xmlns:xlink="http://www.w3.org/1999/xlink" viewBox="0 0 256 256"><defs><linearGradient xlink:href="#a" id="V" x1="392.571" y1="516.798" x2="400.571" y2="508.798" gradientUnits="userSpaceOnUse" gradientTransform="translate(0 1)"/><linearGradient id="a"><stop offset="0" stop-color="#f39c12"/><stop offset="1" stop-color="#f5ab35"/></linearGradient><linearGradient xlink:href="#b" id="W" x1="428.571" y1="519.798" x2="428.571" y2="504.798" gradientUnits="userSpaceOnUse" gradientTransform="matrix(.9922 0 0 1 -565.54 -459.798)"/><linearGradient id="b"><stop offset="0" stop-color="#bd8d48"/><stop offset="1" stop-color="#e8b971"/></linearGradient><linearGradient xlink:href="#c" id="X" x1="428.571" y1="506.798" x2="406.571" y2="506.798" gradientUnits="userSpaceOnUse" gradientTransform="matrix(.9922 0 0 1 -565.54 -458.798)"/><linearGradient id="c"><stop offset="0" stop-color="#e3dfd6"/><stop offset="1" stop-color="#f4f1e8"/></linearGradient><linearGradient xlink:href="#b" id="Y" x1="428.571" y1="519.798" x2="428.571" y2="504.798" gradientUnits="userSpaceOnUse" gradientTransform="matrix(.9922 0 0 1 -565.54 -457.798)"/><linearGradient xlink:href="#d" id="Z" x1="427.714" y1="536.291" x2="437.714" y2="536.291" gradientUnits="userSpaceOnUse"/><linearGradient id="d"><stop offset="0" stop-color="#ebc69a"/><stop offset="1" stop-color="#f4e0c8"/></linearGradient><linearGradient xlink:href="#e" id="aa" x1="432.714" y1="531.791" x2="432.714" y2="544.791" gradientUnits="userSpaceOnUse" gradientTransform="rotate(-45 -392.172 755.393)"/><linearGradient id="e"><stop offset="0"/><stop offset="1" stop-opacity="0"/></linearGradient><linearGradient xlink:href="#d" id="ab" gradientUnits="userSpaceOnUse" x1="428.756" y1="541.508" x2="430.466" y2="528.513"/><linearGradient xlink:href="#f" id="ac" x1="25" y1="44" x2="25" y2="20" gradientUnits="userSpaceOnUse" gradientTransform="matrix(.9922 0 0 1 -183.969 41)"/><linearGradient id="f"><stop offset="0" stop-color="#eef1f2"/><stop offset="1" stop-color="#f9fafb"/></linearGradient><linearGradient xlink:href="#e" id="ad" x1="419.571" y1="529.798" x2="426.571" y2="536.798" gradientUnits="userSpaceOnUse" gradientTransform="matrix(.9922 0 0 1 -565.54 -458.798)"/><linearGradient xlink:href="#g" id="S" x1="409.571" y1="543.798" x2="409.571" y2="503.798" gradientUnits="userSpaceOnUse"/><linearGradient id="g"><stop offset="0" stop-color="#1d1e1e"/><stop offset="1" stop-color="#44484c"/></linearGradient><linearGradient xlink:href="#h" id="T" x1="406.571" y1="517.798" x2="425.571" y2="536.798" gradientUnits="userSpaceOnUse"/><linearGradient id="h"><stop offset="0" stop-color="#292c2f"/><stop offset="1" stop-opacity="0"/></linearGradient><linearGradient xlink:href="#i" id="U" x1="417.571" y1="530.798" x2="417.571" y2="516.798" gradientUnits="userSpaceOnUse"/><linearGradient id="i"><stop offset="0" stop-color="#9ed3fb"/><stop offset="1" stop-color="#effaff"/></linearGradient><linearGradient gradientTransform="matrix(-1 0 0 1 432.571 499.798)" xlink:href="#j" id="O" x1="26" y1="44" x2="26" y2="4" gradientUnits="userSpaceOnUse"/><linearGradient id="j"><stop offset="0" stop-color="#2f74c8"/><stop offset="1" stop-color="#4699d7"/></linearGradient><linearGradient xlink:href="#e" id="P" x1="405.571" y1="509.798" x2="427.571" y2="533.798" gradientUnits="userSpaceOnUse"/><linearGradient xlink:href="#e" id="Q" x1="412.571" y1="514.798" x2="425.571" y2="527.798" gradientUnits="userSpaceOnUse"/><linearGradient xlink:href="#k" id="R" x1="34" y1="34" x2="34" y2="4" gradientUnits="userSpaceOnUse"/><linearGradient id="k"><stop offset="0" stop-color="#7cbaf8"/><stop offset="1" stop-color="#f4fcff"/></linearGradient><linearGradient xlink:href="#l" id="F" x1="24" y1="44" x2="24" y2="11" gradientUnits="userSpaceOnUse"/><linearGradient id="l"><stop offset="0" stop-color="#197cf1"/><stop offset="1" stop-color="#20bcfa"/></linearGradient><linearGradient xlink:href="#l" id="G" x1="409.571" y1="543.798" x2="409.571" y2="513.798" gradientUnits="userSpaceOnUse" gradientTransform="matrix(1.125 0 0 1 -51.072 0)"/><linearGradient xlink:href="#h" id="H" x1="400.571" y1="522.798" x2="416.572" y2="538.798" gradientUnits="userSpaceOnUse" gradientTransform="translate(-384.571 -499.798)"/><linearGradient xlink:href="#l" id="I" gradientUnits="userSpaceOnUse" x1="24" y1="14" x2="24" y2="10"/><linearGradient xlink:href="#g" id="J" x1="25" y1="10" x2="25" y2="14" gradientUnits="userSpaceOnUse"/><linearGradient xlink:href="#l" id="K" x1="408.571" y1="516.798" x2="408.571" y2="503.798" gradientUnits="userSpaceOnUse"/><linearGradient xlink:href="#m" id="L" x1="400.571" y1="517.798" x2="400.571" y2="514.798" gradientUnits="userSpaceOnUse"/><linearGradient id="m"><stop offset="0" stop-color="#c6cdd1"/><stop offset="1" stop-color="#e0e5e7"/></linearGradient><linearGradient xlink:href="#m" id="M" x1="32" y1="18" x2="32" y2="15" gradientUnits="userSpaceOnUse"/><linearGradient xlink:href="#k" id="N" x1="24" y1="39" x2="24" y2="23" gradientUnits="userSpaceOnUse"/><linearGradient xlink:href="#g" id="A" gradientUnits="userSpaceOnUse" gradientTransform="matrix(1.125 0 0 1 -435.643 504.564)" x1="409.571" y1="543.798" x2="409.571" y2="503.798"/><linearGradient xlink:href="#n" id="B" gradientUnits="userSpaceOnUse" gradientTransform="matrix(-2.83521 0 0 2.83875 47.655 -1933.284)" x1="7.285" y1="1050.339" x2="7.285" y2="1038.362"/><linearGradient id="n"><stop offset="0" stop-color="#c61423"/><stop offset="1" stop-color="#dc2b41"/></linearGradient><linearGradient xlink:href="#l" id="C" gradientUnits="userSpaceOnUse" gradientTransform="translate(-384.571 504.564)" x1="396.571" y1="520.798" x2="396.571" y2="503.798"/><linearGradient xlink:href="#h" id="D" gradientUnits="userSpaceOnUse" gradientTransform="translate(0 1004.362)" x1="8" y1="4" x2="22" y2="18"/><linearGradient xlink:href="#o" id="E" gradientUnits="userSpaceOnUse" gradientTransform="translate(-384.571 504.564)" x1="396.571" y1="527.798" x2="396.571" y2="504.798"/><linearGradient id="o"><stop offset="0" stop-color="#fff"/><stop offset="1" stop-color="#fff" stop-opacity="0"/></linearGradient><linearGradient xlink:href="#b" id="v" x1="409.571" y1="543.798" x2="409.571" y2="503.798" gradientUnits="userSpaceOnUse" gradientTransform="matrix(1.125 0 0 1 -51.072 0)"/><linearGradient xlink:href="#p" id="w" x1="409.571" y1="542.798" x2="409.571" y2="504.798" gradientUnits="userSpaceOnUse"/><linearGradient id="p"><stop offset="0" stop-color="#977a5c"/><stop offset="1" stop-color="#9d8062"/></linearGradient><linearGradient xlink:href="#c" id="x" x1="408.571" y1="541.798" x2="408.571" y2="505.798" gradientUnits="userSpaceOnUse"/><linearGradient xlink:href="#q" id="y" x1="414.571" y1="531.798" x2="426.571" y2="543.798" gradientUnits="userSpaceOnUse"/><linearGradient id="q"><stop offset="0" stop-color="#383e51"/><stop offset="1" stop-color="#655c6f" stop-opacity="0"/></linearGradient><linearGradient xlink:href="#r" id="z" x1="413.571" y1="528.798" x2="418.571" y2="533.798" gradientUnits="userSpaceOnUse"/><linearGradient id="r"><stop offset="0" stop-color="#bdb49e" stop-opacity=".259"/><stop offset="1" stop-color="#bdb49e" stop-opacity="0"/></linearGradient><linearGradient xlink:href="#m" id="ae" x1="409.571" y1="543.798" x2="409.571" y2="503.798" gradientUnits="userSpaceOnUse"/><linearGradient xlink:href="#h" id="af" x1="402.571" y1="520.798" x2="418.571" y2="536.798" gradientUnits="userSpaceOnUse" gradientTransform="translate(-384.571 -499.798)"/><linearGradient xlink:href="#s" id="ag" x1="24" y1="33" x2="24" y2="13" gradientUnits="userSpaceOnUse"/><linearGradient id="s"><stop offset="0" stop-color="#42a603"/><stop offset="1" stop-color="#78da06" stop-opacity="0"/></linearGradient><linearGradient xlink:href="#s" id="ah" x1="410.571" y1="539.798" x2="428.571" y2="523.798" gradientUnits="userSpaceOnUse"/><linearGradient xlink:href="#s" id="ai" gradientUnits="userSpaceOnUse" x1="409.571" y1="543.798" x2="409.571" y2="503.798" gradientTransform="matrix(.9 0 0 .9 -343.714 -447.418)"/><linearGradient id="t"><stop stop-color="#95a5a6"/><stop offset="1" stop-color="#eff0f1"/></linearGradient><linearGradient gradientTransform="translate(58.788 33.941)" gradientUnits="userSpaceOnUse" x2="-14.394" x1="-44.394" id="aj" xlink:href="#t"/><linearGradient gradientTransform="rotate(180 24 24)" gradientUnits="userSpaceOnUse" x2="40" y2="37" x1="6" y1="3" id="ak" xlink:href="#t"/><linearGradient gradientUnits="userSpaceOnUse" x2="32.067" y2="40.067" x1="24.817" y1="32.817" id="al" xlink:href="#h"/><linearGradient gradientTransform="matrix(.65 0 0 .65 -241.571 -316.469)" gradientUnits="userSpaceOnUse" x2="0" y2="543.798" y1="503.798" id="an" xlink:href="#u"/><linearGradient id="u"><stop stop-color="#abf9c7"/><stop offset="1" stop-color="#54d883"/></linearGradient><linearGradient gradientTransform="translate(-347.959 -469.812) scale(.92857)" x2="0" gradientUnits="userSpaceOnUse" y2="517.798" y1="545.798" xlink:href="#l" id="am"/><style/></defs><path d="M16 10h224c3.324 0 6 2.676 6 6v224c0 3.324-2.676 6-6 6H16c-3.324 0-6-2.676-6-6V16c0-3.324 2.676-6 6-6z" fill="currentColor" fill-opacity=".5" color="#31363b"/><path d="M16 12h224c2.216 0 4 1.784 4 4v224c0 2.216-1.784 4-4 4H16c-2.216 0-4-1.784-4-4V16c0-2.216 1.784-4 4-4z" fill="currentColor" color="#31363b"/><g transform="translate(-253.41 -359.798)"><rect width="36" height="40" x="390.571" y="503.798" ry="0" fill="url(#v)"/><path opacity=".5" fill="url(#w)" d="M391.571 504.798h34v38h-34z"/><path fill="#aa7f41" d="M390.571 542.798h36v1h-36z"/><path fill="url(#x)" d="M392.571 505.798h32v36h-32z"/><path fill="#bdb49e" d="M412.571 531.798h3v1h-3z"/><path fill="#2d2110" fill-opacity=".314" d="M392.571 539.798h32v2h-32z"/><path d="M424.571 529.798l-10 10v-10z" fill="#ebebeb" fill-rule="evenodd"/><path d="M414.571 539.798l4 4h8v-12l-2-2z" opacity=".2" fill="url(#y)" fill-rule="evenodd"/><path fill="#2d2110" fill-opacity=".314" d="M392.571 540.798h32v1h-32z"/><path d="M415.571 530.798v8l8-8z" fill="url(#z)" fill-rule="evenodd"/><path fill="#bdb49e" d="M394.571 513.798h2v1h-2zM397.571 513.798h3v1h-3zM401.571 513.798h5v1h-5zM408.571 513.798h6v1h-6zM415.571 513.798h3v1h-3zM419.571 513.798h2v1h-2zM394.571 515.798h4v1h-4zM399.571 515.798h2v1h-2zM402.571 515.798h9v1h-9zM412.571 515.798h6v1h-6zM419.571 515.798h3v1h-3zM394.571 519.798h2v1h-2zM397.571 519.798h3v1h-3zM401.571 519.798h6v1h-6zM409.571 519.798h4v1h-4zM414.571 519.798h2v1h-2zM417.571 519.798h5v1h-5zM394.571 521.798h2v1h-2zM397.571 521.798h5v1h-5zM403.571 521.798h3v1h-3zM407.571 521.798h1v1h-1zM409.571 521.798h5v1h-5zM415.571 521.798h3v1h-3zM419.571 521.798h3v1h-3zM394.571 525.798h6v1h-6zM401.571 525.798h3v1h-3zM405.571 525.798h3v1h-3zM409.571 525.798h3v1h-3zM413.571 525.798h5v1h-5zM419.571 525.798h1v1h-1zM394.571 527.798h5v1h-5zM400.571 527.798h5v1h-5zM406.571 527.798h5v1h-5zM412.571 527.798h3v1h-3zM416.571 527.798h3v1h-3zM420.571 527.798h1v1h-1zM394.571 529.798h2v1h-2zM394.571 531.798h4v1h-4zM399.571 531.798h4v1h-4zM404.571 531.798h4v1h-4zM409.571 531.798h2v1h-2zM394.571 533.798h3v1h-3zM398.571 533.798h1v1h-1zM400.571 533.798h4v1h-4zM405.571 533.798h3v1h-3zM409.571 533.798h5v1h-5z"/></g><g transform="translate(20 -864.362)"><rect width="36" height="40" x="6" y="1008.362" ry="0" fill="url(#A)"/><path d="M36.721 1014.362c.46.028.953 0 1.495.375 4.83 2.079 1.59 7.782-4.568 12.123-.037-.818-.377-2.599-.369-3.383 5.254-3.601 8.328-7.108 4.98-8.498-3.53-1.465-4.626 2.535-4.689 8.342-.329.34-2.607 1.854-2.953 2.092.128-5.295 2.943-10.7 5.648-11.006.144-.028.303-.028.456-.028m-4.918 9.212l1.1-.428.91.614.184 1.933-1.151.883-.478.64c-3.544 2.352-6.563 4.163-10.536 5.659l-2.477.368h-1.63c-1.503-.886-.607-1.227-6.068-1.908l6.153.477c4.746-1.84 9.59-4.483 13.996-7.366m-10.83 7.708c-.712 0-6.265-.482-8.474-.687-2.186-.34-4.87-.443-4.363 2.113-.578-1.363.74-3.677 2.614-4.085 2.897-.648 7.495 1.128 9.148 1.673m-2.664.708c.862.341 2.831.588 3.761.894-1.318.682-7.937 3.126-10.67 2.615-.437 0-2.283-1.328-2.328-2.282.142 1.738 8.234.443 9.237-1.26m-1.8.03c.709-.34 4.028-.324 4.762-.596 4.158 1.454 9.752 4.87 13.755 7.173l1.16.34c.223 1.591 1.204 2.14 2.098 3.17l-1.355 1.363-1.06-1.738c-4.688-2.828-13.953-7.398-19.357-9.593m19.356 9.593a43.6 43.6 0 0 1 1.639 1.022c1.202 3.411 2.603 5.708 3.941 5.609-2.067.988-6.519-3.882-8.019-8.461m8.019 8.46c3.153-1.873-3.52-5.289-5.015-6.28-.337-.954.585-2.535.284-3.66 4.707 2.93 7.49 7.17 5.91 9.18-.38.478-.782.717-1.182.75m-4.58-7.14c-.22-.877-3.127-2.875-3.651-3.182-.704-5.537-.737-6.084-1.335-10.388.358-.34 2.556-2.055 2.897-2.293.422 4.6 1.216 10.834 2.339 14.998" fill="url(#B)"/><path fill="#080809" d="M6 1047.362h36v1H6z"/><path d="M8 1008.362v17l4-2.308 4 2.308v-17H8z" fill="url(#C)"/><path opacity=".6" fill="#080809" d="M6 1008.362h2v40H6z"/><path d="M16 1008.362v17l-4-2.308-4 2.308 23 23h11v-14l-26-26z" opacity=".2" fill="url(#D)" fill-rule="evenodd"/><path fill="#8b8f8f" d="M8 1046.362h34v1H8z"/><path fill="#212323" fill-opacity=".452" d="M8 1045.362h34v1H8z"/><path d="M9 1008.362h6v15l-3-2-3 2z" opacity=".15" fill="url(#E)"/></g><g transform="translate(-253.571 -431.798)"><path d="M9 11v2l1-1-1-1zm30 0l-1 1 1 1v-2z" transform="translate(384.571 499.798)" fill="url(#F)" fill-rule="evenodd"/><rect width="36" height="30" x="390.571" y="513.798" ry="0" fill="url(#G)"/><path d="M23 23v7h-7l3 3h3v3l1 1v2h-7l5 5h21V33L32 23v7h-2l-1-1h-3v-3l-3-3zm3 10h5v5h-5v-5z" transform="translate(384.571 499.798)" opacity=".2" fill="url(#H)" fill-rule="evenodd"/><path transform="translate(384.571 499.798)" d="M10 10l-1 1 1 1-4 2h36l-4-2 1-1-1-1H10z" fill="url(#I)" fill-rule="evenodd"/><path d="M10 10l-1 1 1 1-4 2h36l-4-2 1-1-1-1H10z" transform="translate(384.571 499.798)" opacity=".6" fill="url(#J)" fill-rule="evenodd"/><path d="M394.571 509.798l-1 1h30l-1-1h-28z" opacity=".2"/><path d="M400.571 516.798v-5c0-4.432 3.568-8 8-8s8 3.568 8 8v5h-1v-5c0-3.878-3.122-7-7-7s-7 3.122-7 7v5z" fill="url(#K)"/><path d="M401.071 514.798a1.5 1.5 0 0 1 1.5 1.5 1.5 1.5 0 0 1-1.5 1.5 1.5 1.5 0 0 1-1.5-1.5 1.5 1.5 0 0 1 1.5-1.5zm0 1a.5.5 0 0 0-.5.5.5.5 0 0 0 .5.5.5.5 0 0 0 .5-.5.5.5 0 0 0-.5-.5z" fill="url(#L)"/><path d="M31.5 15a1.5 1.5 0 0 0-1.5 1.5 1.5 1.5 0 0 0 1.5 1.5 1.5 1.5 0 0 0 1.5-1.5 1.5 1.5 0 0 0-1.5-1.5zm0 1a.5.5 0 0 1 .5.5.5.5 0 0 1-.5.5.5.5 0 0 1-.5-.5.5.5 0 0 1 .5-.5z" transform="translate(384.571 499.798)" fill="url(#M)"/><path d="M16 23v7h7v-7h-7zm9 0v7h7v-7h-7zm-8 1h5v5h-5v-5zm9 0h5v5h-5v-5zm-10 8v7h7v-7h-7zm9 0v7h7v-7h-7zm-8 1h5v5h-5v-5zm9 0h5v5h-5v-5z" transform="translate(384.571 499.798)" fill="url(#N)"/><path fill="#1c5593" d="M390.571 542.798h36v1h-36z"/></g><g fill-rule="evenodd"><path d="M428.571 503.798v30h-20l-11 10v-10h-9v-30z" fill="url(#O)" transform="translate(-198.571 -359.798)"/><path d="M402.571 534.798l-6-6v-3l-3-3v-9h4l1 1v-1l20-6 10 7.461v18.539h-26z" opacity=".2" fill="url(#P)" transform="translate(-198.571 -359.798)"/><path d="M419.571 521.798l9 9v-11l-5-5h-4z" opacity=".2" fill="url(#Q)" transform="translate(-198.571 -359.798)"/><path d="M34 8l-20 6v9l20 6V8zM9 14v9h4v-9H9zm26 1v7h4v-7h-4zm-23 9v5h3v-5h-3z" transform="translate(186 140)" fill="url(#R)"/></g><g transform="translate(-198.571 -431.798)"><rect width="40" height="40" x="388.571" y="503.798" ry="0" fill="url(#S)"/><rect width="32" height="16" x="392.571" y="515.798" ry="8" fill="#1d99f3"/><path d="M411.571 528.798l15 15h2v-18l-8-8z" opacity=".4" fill="url(#T)" fill-rule="evenodd"/><rect ry="7" y="516.798" x="409.671" height="14" width="14" fill="url(#U)"/><path d="M420.124 518.89a5.974 5.974 0 0 1 1.447 3.908c0 3.324-2.676 6-6 6a5.977 5.977 0 0 1-3.453-1.092 5.977 5.977 0 0 0 4.553 2.092c3.324 0 6-2.676 6-6a5.98 5.98 0 0 0-2.547-4.908z" fill="#1b83ce" fill-opacity=".119"/><path fill="#141517" d="M388.571 542.798h40v1h-40z"/></g><g color="#000" stroke-linecap="round" stroke-linejoin="round"><path style="marker:none" overflow="visible" fill="url(#V)" d="M392.571 509.798h19v16h-19z" transform="matrix(.9584 -.25882 .2568 .96593 -424.918 -310.09)"/><path style="marker:none" overflow="visible" opacity=".2" fill="#fff" d="M82.238 80.734l18.21-4.918.77 2.898-18.21 4.918z"/></g><path style="marker:none" color="#000" overflow="visible" fill="url(#W)" stroke-linecap="round" stroke-linejoin="round" d="M-162.14 46h21.828v33h-21.828z" transform="translate(260 27)"/><path style="marker:none" color="#000" overflow="visible" fill="url(#X)" stroke-linecap="round" stroke-linejoin="round" d="M-162.14 47h21.828v33h-21.828z" transform="translate(260 27)"/><path style="marker:none" color="#000" overflow="visible" fill="url(#Y)" stroke-linecap="round" stroke-linejoin="round" d="M-162.14 48h21.828v33h-21.828z" transform="translate(260 27)"/><g transform="matrix(.9922 0 0 1 -320.565 -449.79)" fill="url(#Z)"><path style="marker:none" d="M35.121 11.879L30.88 16.12l2.637 2.637-3.891.148L29 20v3l8.984.229 2.086 2.085 4.244-4.244-9.193-9.191z" transform="translate(399.714 517.79)" color="#000" overflow="visible" opacity=".2" fill="url(#aa)" stroke-linecap="round" stroke-linejoin="round"/><path d="M432.714 528.79c-1.662 0-3 1.339-3 3 0 1.663 1.338 3 3 3s3-1.337 3-3c0-1.661-1.338-3-3-3zm0 7c-2.77 0-5 .893-5 2v6h10v-6c0-1.107-2.23-2-5-2zm0 1c2.216 0 4 .637 4 1.428v4.573h-8v-4.573c0-.791 1.784-1.427 4-1.427z" fill="url(#ab)"/></g><path d="M-180 61v24h39.688V61z" fill="url(#ac)" transform="translate(260 27)"/><path fill="#d1d3d4" d="M80 111h39.688v1H80z"/><path d="M82.977 112l.992-2h1.984l-.992 2z" fill="#c0392b" fill-rule="evenodd"/><path d="M90.914 112l.992-2h1.985l-.992 2z" fill="#2980b9" fill-rule="evenodd"/><path d="M98.852 112l.992-2h1.984l-.992 2z" fill="#c0392b" fill-rule="evenodd"/><path d="M106.79 112l.992-2h1.984l-.992 2z" fill="#2980b9" fill-rule="evenodd"/><path d="M114.727 112l.992-2h1.985l-.993 2z" fill="#c0392b" fill-rule="evenodd"/><path d="M117.704 106l1.984 1v2l-1.984-1z" fill="#2980b9" fill-rule="evenodd"/><path d="M117.704 98l1.984 1v2l-1.984-1z" fill="#c0392b" fill-rule="evenodd"/><path d="M117.704 90l1.984 1v2l-1.984-1zM81.984 107L80 108v2l1.984-1z" fill="#2980b9" fill-rule="evenodd"/><path d="M81.984 99L80 100v2l1.984-1z" fill="#c0392b" fill-rule="evenodd"/><path d="M81.984 91L80 92v2l1.984-1z" fill="#2980b9" fill-rule="evenodd"/><path d="M81.984 88l.993 2h1.984l-.992-2z" fill="#c0392b" fill-rule="evenodd"/><path d="M89.922 88l.992 2h1.985l-.993-2z" fill="#2980b9" fill-rule="evenodd"/><path d="M97.86 88l.992 2h1.984l-.992-2z" fill="#c0392b" fill-rule="evenodd"/><path d="M105.797 88l.992 2h1.985l-.992-2z" fill="#2980b9" fill-rule="evenodd"/><path d="M113.735 88l.992 2h1.984l-.992-2z" fill="#c0392b" fill-rule="evenodd"/><path d="M-144.28 65l3.968 4v11l-8.93-9z" opacity=".2" fill="url(#ad)" fill-rule="evenodd" transform="translate(260 27)"/><path style="marker:none" color="#fcfcfc" overflow="visible" fill="currentColor" stroke-linecap="round" stroke-linejoin="round" d="M110.758 92h4.961v6h-4.961z"/><path style="marker:none" color="#000" overflow="visible" fill="#16a085" stroke-linecap="round" stroke-linejoin="round" d="M111.75 93h2.977v4h-2.977z"/><g color="#000" fill="#bdc3c7" stroke-linecap="round" stroke-linejoin="round"><path style="marker:none" overflow="visible" d="M95.875 97h6.946v1h-6.946zM95.875 99h3.97v1h-3.97zM95.875 101h9.922v1h-9.922zM95.875 103h4.961v1h-4.96zM83.969 92h3.969v1h-3.97zM83.969 94h6.945v1H83.97zM83.969 96h5.953v1H83.97z"/></g><path style="marker:none" color="#000" overflow="visible" fill="#7f8c8d" stroke-linecap="round" stroke-linejoin="round" d="M100.836 72h.992v4h-.992zM115.719 72h.992v4h-.992zM105.797 72h.992v4h-.992zM110.758 72h.992v4h-.992z"/><g transform="translate(-364.571 -431.798)"><rect width="40" height="40" x="388.571" y="503.798" ry="20" fill="url(#ae)" stroke-width="2.8" stroke-opacity=".55"/><path d="M28 22v11h-8l10.064 10.064a19.954 19.954 0 0 0 12.467-11.533L33 22h-5z" transform="translate(384.571 499.798)" opacity=".2" fill="url(#af)" fill-rule="evenodd"/><path d="M24 13l-9 9h5v11h8V22h5z" transform="translate(384.571 499.798)" fill="url(#ag)" stroke-width="2.8" stroke-opacity=".55"/><path d="M408.571 541.798c9.972 0 18-8.028 18-18s-8.028-18-18-18v2c8.864 0 16 7.136 16 16s-7.136 16-16 16v2z" opacity=".5" fill="gray" stroke-width="2.8" stroke-opacity=".55"/><path d="M408.571 505.798c-9.972 0-18 8.028-18 18s8.028 18 18 18 18-8.028 18-18-8.028-18-18-18zm0 2c8.864 0 16 7.136 16 16s-7.136 16-16 16-16-7.136-16-16 7.136-16 16-16z" fill="url(#ah)" stroke-width="2.8" stroke-opacity=".55"/><path d="M24 42v-2c-8.864 0-16-7.136-16-16S15.136 8 24 8V6C14.028 6 6 14.028 6 24s8.028 18 18 18z" transform="translate(384.571 499.798)" fill="url(#ai)" stroke-width="2.8" stroke-opacity=".55"/><path d="M388.583 523.298c-.004.167-.012.332-.012.5 0 11.08 8.92 20 20 20s20-8.92 20-20c0-.168-.008-.333-.012-.5a19.95 19.95 0 0 1-19.988 19.5 19.95 19.95 0 0 1-19.988-19.5z" fill="#99a1a7" stroke-width="2.8" stroke-opacity=".55"/></g><g transform="translate(76 140)"><circle transform="rotate(15)" r="15" cy="16.971" cx="29.394" color="#000" fill="url(#aj)" stroke-width="3" stroke-linecap="round" stroke-linejoin="round"/><path d="M27.168 43.736a20 20 0 0 0 3.959-1.054l-.344-3.118a17 17 0 0 0 3.307-1.906l2.521 1.852a20 20 0 0 0 2.897-2.903l-1.85-2.517a17 17 0 0 0 1.92-3.305l3.086.34a20 20 0 0 0 1.06-3.963l-2.841-1.248A17 17 0 0 0 41 24a17 17 0 0 0-.129-1.908l2.865-1.26a20 20 0 0 0-1.054-3.959l-3.118.344a17 17 0 0 0-1.906-3.307l1.852-2.521a20 20 0 0 0-2.903-2.897l-2.517 1.85a17 17 0 0 0-3.305-1.92l.34-3.086a20 20 0 0 0-3.963-1.06l-1.248 2.841A17 17 0 0 0 24 7a17 17 0 0 0-1.908.129l-1.26-2.865a20 20 0 0 0-3.959 1.054l.344 3.118a17 17 0 0 0-3.307 1.906L11.39 8.49a20 20 0 0 0-2.897 2.903l1.85 2.517a17 17 0 0 0-1.92 3.305l-3.086-.34a20 20 0 0 0-1.06 3.963l2.841 1.248A17 17 0 0 0 7 24a17 17 0 0 0 .129 1.908l-2.865 1.26a20 20 0 0 0 1.054 3.959l3.118-.344a17 17 0 0 0 1.906 3.307L8.49 36.61a20 20 0 0 0 2.903 2.897l2.517-1.85a17 17 0 0 0 3.305 1.92l-.34 3.086a20 20 0 0 0 3.963 1.06l1.248-2.841A17 17 0 0 0 24 41a17 17 0 0 0 1.908-.129l1.26 2.865zM24 38a14 14 0 0 1-14-14 14 14 0 0 1 14-14 14 14 0 0 1 14 14 14 14 0 0 1-14 14z" color="#000" fill="url(#ak)" stroke-width="3" stroke-linecap="round" stroke-linejoin="round"/><path d="M16.979 5.28l-.106.038.238 2.17.106-.052zm14.04.02l-.234 2.122.106.047.234-2.133a19.83 19.83 0 0 0-.105-.035zm8.086 5.64l-1.447 1.97a17 17 0 0 1 .356.516l1.496-2.037a20 20 0 0 0-.405-.45zm-30.21.001a20 20 0 0 0-.403.452l1.5 2.04c.113-.176.23-.35.35-.523zm34.648 8.975l-2.672 1.176c.033.322.058.645.072.969l2.793-1.229a20.004 20.004 0 0 0-.193-.916zm-39.074.008a20 20 0 0 0-.194.914l2.776 1.219a17 17 0 0 1 .066-.971zm2.556 3.502c-.011.191-.02.382-.025.574a17 17 0 0 0 .057.94l.072-.032a17 17 0 0 1-.104-1.482zm33.95.148c-.013.448-.044.895-.092 1.34l.066.03c.026-.315.043-.63.051-.944a17.101 17.101 0 0 0-.025-.426zm2.556 3.502a20 20 0 0 1-.867 3.049l-3.086-.34a17 17 0 0 1-1.92 3.305l.35.476a17 17 0 0 0 1.57-2.78l3.086.339a20 20 0 0 0 1.06-3.963zm-39.074.008l-.193.084a20 20 0 0 0 1.054 3.959l3.118-.344a17 17 0 0 0 1.55 2.791l.356-.484a17 17 0 0 1-1.906-3.307l-3.118.344a20 20 0 0 1-.861-3.043zm34.648 8.975a20 20 0 0 1-2.494 2.45l-2.521-1.85a17 17 0 0 1-3.307 1.905l.106.948a17 17 0 0 0 3.2-1.854l2.522 1.852a20 20 0 0 0 2.897-2.903zm-30.21.002l-.405.55a20 20 0 0 0 2.903 2.897l2.517-1.85a17 17 0 0 0 3.2 1.873l.105-.953a17 17 0 0 1-3.305-1.92l-2.517 1.85a20.005 20.005 0 0 1-2.498-2.447zm17.013 3.81A17 17 0 0 1 24 40a16.995 16.995 0 0 1-1.914-.117l-1.248 2.842a20 20 0 0 1-3.858-1.026l-.105.965a20 20 0 0 0 3.963 1.06l1.248-2.841A17 17 0 0 0 24 41c.638-.007 1.275-.05 1.908-.129l1.26 2.865a20 20 0 0 0 3.959-1.054l-.106-.961a20 20 0 0 1-3.853 1.015z" color="#000" fill="#95a5a6" stroke-width="3" stroke-linecap="round" stroke-linejoin="round"/><path d="M33 15L15 33l7.96 7.96c.347.024.693.038 1.04.04.638-.007 1.275-.05 1.908-.129l1.26 2.865a20 20 0 0 0 3.959-1.054l-.238-2.17-.106-.948a17 17 0 0 0 3.307-1.906l2.521 1.852a20 20 0 0 0 2.897-2.903l-1.5-2.04-.35-.477a17 17 0 0 0 1.92-3.305l3.086.34a20 20 0 0 0 1.06-3.963l-2.775-1.219-.066-.029A17 17 0 0 0 41 24a17 17 0 0 0-.057-.94l.02-.007-.008-.098L33 15z" opacity=".2" fill="url(#al)" fill-rule="evenodd"/><rect height="26" rx="13" y="11" x="11" width="26" fill="url(#am)"/><path d="M24 11c-.944 0-1.862.104-2.747.293L20.1 13.6l-1.742-1.306a12.961 12.961 0 0 0-6.665 7.53L14.25 18.8l1.95 1.3.65-1.95 8.45-4.55-.515-2.575C24.525 11.01 24.264 11 24 11zm9.627 4.27l-.527 1.58.65.65-2.6 3.9 1.3 4.55 4.311.54c.155-.806.239-1.638.239-2.49 0-2.226-.557-4.316-1.535-6.145L34.4 17.5l.387-.776a12.979 12.979 0 0 0-1.16-1.455zm-22.37 6.13a13.14 13.14 0 0 0-.247 2.198l4.54 1.702-.65-1.95-1.3-1.95zm4.293 3.9l3.25 7.8v2.82A13.001 13.001 0 0 0 24 37c.13 0 .256-.005.385-.009l4.165-7.141L18.15 24l-2.6 1.3z" fill="url(#an)" fill-rule="evenodd"/><path d="M11.025 23.5c-.006.167-.025.331-.025.5 0 7.202 5.798 13 13 13s13-5.798 13-13c0-.169-.02-.333-.025-.5A12.96 12.96 0 0 1 24 36a12.96 12.96 0 0 1-12.975-12.5z" opacity=".2" fill="#172525"/></g></svg>