<svg xmlns="http://www.w3.org/2000/svg" xmlns:xlink="http://www.w3.org/1999/xlink" viewBox="0 0 256 256"><defs><linearGradient xlink:href="#a" id="b" gradientUnits="userSpaceOnUse" gradientTransform="matrix(1 0 0 .99967 0 .176)" y1="541.798" x2="0" y2="499.784"/><linearGradient id="a"><stop stop-color="#3e3e3e"/><stop offset="1" stop-color="#494949"/></linearGradient><linearGradient xlink:href="#a" id="d" gradientUnits="userSpaceOnUse" gradientTransform="matrix(1 0 0 .99967 0 .176)" y1="541.798" x2="0" y2="499.784"/><linearGradient gradientTransform="matrix(1 0 0 .99967 0 .176)" x2="0" gradientUnits="userSpaceOnUse" y2="499.784" y1="541.798" xlink:href="#a" id="c"/><style/></defs><path d="M16 10h224c3.324 0 6 2.676 6 6v224c0 3.324-2.676 6-6 6H16c-3.324 0-6-2.676-6-6V16c0-3.324 2.676-6 6-6z" fill="currentColor" fill-opacity=".5" color="#31363b"/><path d="M16 12h224c2.216 0 4 1.784 4 4v224c0 2.216-1.784 4-4 4H16c-2.216 0-4-1.784-4-4V16c0-2.216 1.784-4 4-4z" fill="currentColor" color="#31363b"/><path d="M20 50v1h216v-1zm207 22l-7 9h14zm-7 13.9V88h14v-2.1zm7 49.1l-7 9h14zm-7 13.9v2.1h14v-2.1zm7 47.1l-7 9h14zm-7 13.9v2.1h14v-2.1z" color="#f2f2f2" fill="currentColor"/><path d="M20.782 124.845v18.62c0 .383.307.69.69.69h37.241c.382 0 .69-.307.69-.69V128.3l-.002-.007h.002v-.69h-19.31l-2.76-2.758H20.783z" fill="#2d2d2d"/><path d="M410.571 499.798l-4 4h-19v1h.002l-.002.012v36.988h58v-42z" fill="url(#b)" transform="translate(-247.2 -212.949) scale(.68966)"/><path d="M20.782 133.81v.69h12.414l2.758-2.758-4.138 2.069z" fill-opacity=".235" fill-rule="evenodd"/><path d="M20.092 160.018v.69h40v-.69h-40z" fill-opacity=".235"/><path d="M37.334 124.845l2.069 3.448h20v-.69h-19.31zM20.092 134.5v.69h13.793l2.07-3.448-2.76 2.758z" fill="#fff" fill-opacity=".235" fill-rule="evenodd"/><g fill="#5f5f5f" stroke-width="2"><path opacity=".6" d="M20.092 157.949h2.07v2.758h-2.07zM24.92 157.949h2.758v2.758H24.92zM30.437 157.949h2.759v2.758h-2.759zM35.954 157.949h2.759v2.758h-2.759zM41.472 157.949h2.758v2.758h-2.758zM46.989 157.949h2.759v2.758h-2.759zM52.506 157.949h2.759v2.758h-2.759zM58.024 157.949h2.068v2.758h-2.068zM22.161 155.19h2.759v2.759H22.16zM27.678 155.19h2.76v2.759h-2.76zM33.196 155.19h2.758v2.759h-2.758zM38.713 155.19h2.759v2.759h-2.759zM44.23 155.19h2.759v2.759H44.23zM49.748 155.19h2.758v2.759h-2.758zM55.265 155.19h2.759v2.759h-2.76z"/><path opacity=".6" d="M20.092 152.431h2.07v2.76h-2.07zM24.92 152.431h2.758v2.76H24.92zM30.437 152.431h2.759v2.76h-2.759zM35.954 152.431h2.759v2.76h-2.759zM41.472 152.431h2.758v2.76h-2.758zM46.989 152.431h2.759v2.76h-2.759zM52.506 152.431h2.759v2.76h-2.759zM58.024 152.431h2.068v2.76h-2.068z"/></g><path d="M40.092 140.018a3.44 3.44 0 0 0-3.448 3.448v2.759h-2.069v6.206H45.61v-6.206h-2.07v-2.76a3.44 3.44 0 0 0-3.448-3.447zm0 .69c1.433 0 2.759 1.086 2.759 2.758v2.759h-5.517v-2.76c0-1.67 1.326-2.758 2.758-2.758zm-4.827 6.206h9.655v4.828h-9.655z" fill="#7a7a7a"/><g transform="matrix(2 0 0 2 6 -1928.724)"><rect rx="1" ry="1" y="1037.362" x="7" height="8" width="8" fill="#da4453"/><path d="M9 1038.362l-1 1 2 2-2 2 1 1 2-2 2 2 1-1-2-2 2-2-1-1-2 2-2-2z" fill="#fff" fill-rule="evenodd"/></g><g><path d="M22.782 62.845v18.62c0 .383.307.69.69.69h37.241c.382 0 .69-.307.69-.69V66.3l-.002-.007h.002v-.69h-19.31l-2.76-2.758H22.783z" fill="#2d2d2d"/><path d="M410.571 499.798l-4 4h-19v1h.002l-.002.012v36.988h58v-42z" fill="url(#c)" transform="translate(-245.2 -274.949) scale(.68966)"/><path d="M22.782 71.81v.69h12.414l2.758-2.758-4.138 2.069z" fill-opacity=".235" fill-rule="evenodd"/><path d="M22.092 98.018v.69h40v-.69h-40z" fill-opacity=".235"/><path d="M39.334 62.845l2.069 3.448h20v-.69h-19.31zM22.092 72.5v.69h13.793l2.07-3.448-2.76 2.758z" fill="#fff" fill-opacity=".235" fill-rule="evenodd"/><g fill="#5f5f5f" stroke-width="2"><path opacity=".6" d="M22.092 95.949h2.07v2.758h-2.07zM26.92 95.949h2.758v2.758H26.92zM32.437 95.949h2.759v2.758h-2.759zM37.954 95.949h2.759v2.758h-2.759zM43.472 95.949h2.758v2.758h-2.758zM48.989 95.949h2.759v2.758h-2.759zM54.506 95.949h2.759v2.758h-2.759zM60.024 95.949h2.068v2.758h-2.068zM24.161 93.19h2.759v2.759H24.16zM29.678 93.19h2.76v2.759h-2.76zM35.196 93.19h2.758v2.759h-2.758zM40.713 93.19h2.759v2.759h-2.759zM46.23 93.19h2.759v2.759H46.23zM51.748 93.19h2.758v2.759h-2.758zM57.265 93.19h2.759v2.759h-2.76z"/><path opacity=".6" d="M22.092 90.431h2.07v2.76h-2.07zM26.92 90.431h2.758v2.76H26.92zM32.437 90.431h2.759v2.76h-2.759zM37.954 90.431h2.759v2.76h-2.759zM43.472 90.431h2.758v2.76h-2.758zM48.989 90.431h2.759v2.76h-2.759zM54.506 90.431h2.759v2.76h-2.759zM60.024 90.431h2.068v2.76h-2.068z"/></g><path d="M42.092 78.018a3.44 3.44 0 0 0-3.448 3.448v2.759h-2.069v6.206H47.61v-6.206h-2.07v-2.76a3.44 3.44 0 0 0-3.448-3.447zm0 .69c1.433 0 2.759 1.086 2.759 2.758v2.759h-5.517v-2.76c0-1.67 1.326-2.758 2.758-2.758zm-4.827 6.206h9.655v4.828h-9.655z" fill="#7a7a7a"/></g><g><path d="M20.782 186.845v18.62c0 .383.307.69.69.69h37.241c.382 0 .69-.307.69-.69V190.3l-.002-.007h.002v-.69h-19.31l-2.76-2.758H20.783z" fill="#2d2d2d"/><path d="M410.571 499.798l-4 4h-19v1h.002l-.002.012v36.988h58v-42z" fill="url(#d)" transform="translate(-247.2 -150.949) scale(.68966)"/><path d="M20.782 195.81v.69h12.414l2.758-2.758-4.138 2.069z" fill-opacity=".235" fill-rule="evenodd"/><path d="M20.092 222.018v.69h40v-.69h-40z" fill-opacity=".235"/><path d="M37.334 186.845l2.069 3.448h20v-.69h-19.31zM20.092 196.5v.69h13.793l2.07-3.448-2.76 2.758z" fill="#fff" fill-opacity=".235" fill-rule="evenodd"/><g fill="#5f5f5f" stroke-width="2"><path opacity=".6" d="M20.092 219.949h2.07v2.758h-2.07zM24.92 219.949h2.758v2.758H24.92zM30.437 219.949h2.759v2.758h-2.759zM35.954 219.949h2.759v2.758h-2.759zM41.472 219.949h2.758v2.758h-2.758zM46.989 219.949h2.759v2.758h-2.759zM52.506 219.949h2.759v2.758h-2.759zM58.024 219.949h2.068v2.758h-2.068zM22.161 217.19h2.759v2.759H22.16zM27.678 217.19h2.76v2.759h-2.76zM33.196 217.19h2.758v2.759h-2.758zM38.713 217.19h2.759v2.759h-2.759zM44.23 217.19h2.759v2.759H44.23zM49.748 217.19h2.758v2.759h-2.758zM55.265 217.19h2.759v2.759h-2.76z"/><path opacity=".6" d="M20.092 214.431h2.07v2.76h-2.07zM24.92 214.431h2.758v2.76H24.92zM30.437 214.431h2.759v2.76h-2.759zM35.954 214.431h2.759v2.76h-2.759zM41.472 214.431h2.758v2.76h-2.758zM46.989 214.431h2.759v2.76h-2.759zM52.506 214.431h2.759v2.76h-2.759zM58.024 214.431h2.068v2.76h-2.068z"/></g><path d="M40.092 202.018a3.44 3.44 0 0 0-3.448 3.448v2.759h-2.069v6.206H45.61v-6.206h-2.07v-2.76a3.44 3.44 0 0 0-3.448-3.447zm0 .69c1.433 0 2.759 1.086 2.759 2.758v2.759h-5.517v-2.76c0-1.67 1.326-2.758 2.758-2.758zm-4.827 6.206h9.655v4.828h-9.655z" fill="#7a7a7a"/></g><g transform="matrix(2 0 0 2 6 -1866.724)"><rect rx="1" ry="1" y="1037.362" x="7" height="8" width="8" fill="#da4453"/><path d="M9 1038.362l-1 1 2 2-2 2 1 1 2-2 2 2 1-1-2-2 2-2-1-1-2 2-2-2z" fill="#fff" fill-rule="evenodd"/></g><g style="line-height:1000%;-inkscape-font-specification:'Arial, Normal';text-align:start" font-weight="400" font-size="16.044" font-family="Arial" letter-spacing="0" word-spacing="0" fill="#f2f2f2"><path d="M75.43 83.008q0 .596-.235 1.066-.228.462-.666.783-.439.313-1.081.486-.635.164-1.458.164-.736 0-1.331-.117-.588-.11-1.034-.36-.447-.251-.753-.659-.297-.415-.438-1.01l1.245-.243q.18.681.745 1.003.564.313 1.566.313.455 0 .83-.063.385-.062.659-.211.274-.157.423-.408.157-.258.157-.634 0-.384-.18-.627-.18-.25-.502-.415-.321-.165-.783-.282l-1.003-.274q-.51-.133-1.01-.298-.502-.165-.91-.43-.399-.275-.65-.675-.25-.4-.25-1.002 0-1.16.822-1.763.83-.611 2.413-.611 1.402 0 2.225.493.83.494 1.05 1.583l-1.27.157q-.07-.33-.258-.549-.188-.227-.454-.36-.267-.141-.603-.196-.33-.063-.69-.063-.956 0-1.41.29-.454.29-.454.878 0 .344.164.571.172.22.47.377.306.148.729.266.423.11.932.235.337.086.69.188.352.094.681.235.337.133.627.321.297.18.517.439.22.258.345.603.133.345.133.8zM78.172 81.41q0 .666.133 1.23.14.556.423.964.29.4.736.626.447.22 1.074.22.916 0 1.465-.369.556-.368.752-.932l1.237.353q-.133.352-.376.713-.235.352-.634.642-.4.282-1.003.47-.595.18-1.441.18-1.88 0-2.868-1.12-.979-1.12-.979-3.33 0-1.19.298-2.013.297-.83.814-1.347.518-.517 1.207-.745.69-.235 1.473-.235 1.065 0 1.778.345.72.345 1.152.956.438.603.619 1.426.188.822.188 1.778v.188h-6.048zm4.59-1.081q-.117-1.34-.681-1.95-.564-.62-1.622-.62-.352 0-.744.118-.384.11-.713.4-.329.29-.556.79-.227.494-.259 1.262h4.576zM87.095 81.073q0 .729.102 1.34.11.61.36 1.057.25.44.658.682.415.243 1.019.243.752 0 1.253-.408.51-.407.627-1.253l1.426.094q-.07.525-.306 1.01-.235.486-.642.855-.4.368-.98.595-.58.22-1.34.22-.994 0-1.691-.338-.698-.336-1.136-.924-.431-.595-.627-1.394-.196-.807-.196-1.748 0-.853.141-1.504.141-.658.392-1.143.258-.494.603-.823.345-.337.744-.533.408-.203.854-.29.447-.094.901-.094.713 0 1.27.196.555.196.955.54.407.338.658.8.25.462.353.995l-1.45.11q-.11-.706-.556-1.12-.447-.416-1.27-.416-.602 0-1.01.204-.4.195-.65.603-.25.4-.36 1.01-.102.612-.102 1.434zM94.075 85.35v-6.502q0-.266-.008-.54 0-.282-.007-.54l-.016-.487-.016-.407h1.332q.008.18.016.415.015.227.023.47.016.243.016.47.008.22.008.376h.031q.149-.485.313-.838.173-.36.4-.587.227-.235.54-.345.314-.118.76-.118.173 0 .33.032.156.023.242.047v1.292q-.14-.039-.329-.055-.188-.023-.423-.023-.486 0-.83.22-.337.219-.556.61-.212.384-.314.925-.102.533-.102 1.167v4.419h-1.41zM100.484 81.41q0 .666.133 1.23.14.556.423.964.29.4.736.626.447.22 1.073.22.917 0 1.465-.369.557-.368.753-.932l1.237.353q-.133.352-.376.713-.235.352-.634.642-.4.282-1.003.47-.595.18-1.442.18-1.88 0-2.867-1.12-.98-1.12-.98-3.33 0-1.19.299-2.013.297-.83.814-1.347.517-.517 1.207-.745.69-.235 1.473-.235 1.065 0 1.778.345.72.345 1.152.956.438.603.618 1.426.189.822.189 1.778v.188h-6.048zm4.59-1.081q-.117-1.34-.681-1.95-.564-.62-1.622-.62-.352 0-.744.118-.384.11-.713.4-.33.29-.556.79-.227.494-.259 1.262h4.575zM111.592 85.288q-.32.086-.658.133-.329.055-.767.055-1.693 0-1.693-1.92V77.9h-.979v-1.026h1.034l.415-1.896h.94v1.896h1.567V77.9h-1.566v5.351q0 .611.195.862.204.243.698.243.203 0 .391-.032.196-.031.423-.078v1.042zM124.401 81.073q0 .964-.156 1.779-.157.814-.525 1.402-.36.587-.964.924-.595.33-1.473.33-.908 0-1.59-.345t-1.042-1.129h-.04q.009.016.009.141.008.126.008.314.008.188.008.423.008.227.008.454v3.314h-1.41V78.605q0-.305-.008-.587 0-.282-.008-.51-.008-.234-.016-.399-.008-.164-.016-.235h1.363q.008.023.016.165.016.14.024.344.015.196.023.423.016.227.016.431h.031q.196-.407.447-.69.25-.29.572-.47.32-.187.712-.266.4-.086.894-.086.877 0 1.472.314.604.313.964.885.368.564.525 1.37.157.8.157 1.78zm-1.48.031q0-.783-.094-1.394-.094-.611-.33-1.034-.227-.423-.61-.643-.384-.219-.964-.219-.47 0-.885.133-.416.133-.729.51-.305.376-.486 1.041-.18.659-.18 1.716 0 .901.15 1.528.148.619.43 1.003.29.383.713.556.423.164.971.164.588 0 .972-.227.391-.227.619-.658.235-.43.329-1.05.094-.626.094-1.426zM126.195 85.35v-6.502q0-.266-.008-.54 0-.282-.008-.54l-.015-.487-.016-.407h1.332q.008.18.015.415.016.227.024.47.016.243.016.47.008.22.008.376h.031q.149-.485.313-.838.173-.36.4-.587.227-.235.54-.345.314-.118.76-.118.173 0 .33.032.156.023.242.047v1.292q-.14-.039-.329-.055-.188-.023-.423-.023-.486 0-.83.22-.337.219-.556.61-.212.384-.314.925-.102.533-.102 1.167v4.419h-1.41zM138.69 81.104q0 2.225-.978 3.314-.98 1.09-2.844 1.09-.885 0-1.583-.267-.697-.266-1.183-.815-.478-.548-.736-1.37-.25-.831-.25-1.952 0-4.387 3.799-4.387.987 0 1.7.275.72.274 1.175.822.462.548.682 1.371.219.823.219 1.92zm-1.48 0q0-.987-.156-1.629-.15-.642-.447-1.026-.29-.384-.713-.533-.423-.157-.956-.157-.54 0-.979.165-.43.156-.736.548-.306.384-.47 1.026-.157.643-.157 1.606 0 .988.172 1.638.173.642.47 1.026.306.384.713.54.415.157.901.157.54 0 .98-.149.438-.156.744-.54.305-.384.47-1.034.164-.65.164-1.638zM140.446 75.072v-1.347h1.41v1.347h-1.41zm1.41 11.328q0 .486-.086.901-.079.416-.29.721-.212.306-.58.478-.36.18-.924.18-.267 0-.525-.016-.25-.015-.47-.054v-1.09q.102.016.243.032.14.016.243.016.297 0 .485-.079.196-.078.306-.25.11-.165.149-.431.039-.259.039-.62v-9.314h1.41V86.4zM145.107 81.41q0 .666.133 1.23.141.556.423.964.29.4.737.626.446.22 1.073.22.917 0 1.465-.369.556-.368.752-.932l1.238.353q-.133.352-.376.713-.235.352-.635.642-.4.282-1.002.47-.596.18-1.442.18-1.88 0-2.867-1.12-.98-1.12-.98-3.33 0-1.19.298-2.013.298-.83.815-1.347.517-.517 1.206-.745.69-.235 1.473-.235 1.066 0 1.779.345.72.345 1.151.956.439.603.62 1.426.187.822.187 1.778v.188h-6.048zm4.591-1.081q-.117-1.34-.682-1.95-.564-.62-1.621-.62-.353 0-.744.118-.384.11-.713.4-.33.29-.557.79-.227.494-.258 1.262h4.575zM154.03 81.073q0 .729.102 1.34.11.61.36 1.057.251.44.659.682.415.243 1.018.243.752 0 1.254-.408.509-.407.626-1.253l1.426.094q-.07.525-.305 1.01-.235.486-.643.855-.4.368-.98.595-.579.22-1.339.22-.995 0-1.692-.338-.697-.336-1.136-.924-.43-.595-.627-1.394-.195-.807-.195-1.748 0-.853.14-1.504.142-.658.392-1.143.259-.494.603-.823.345-.337.745-.533.407-.203.854-.29.446-.094.9-.094.713 0 1.27.196.556.196.955.54.408.338.659.8.25.462.352.995l-1.45.11q-.109-.706-.555-1.12-.447-.416-1.27-.416-.603 0-1.01.204-.4.195-.65.603-.251.4-.36 1.01-.103.612-.103 1.434zM164.238 85.288q-.32.086-.658.133-.329.055-.768.055-1.692 0-1.692-1.92V77.9h-.979v-1.026h1.034l.415-1.896h.94v1.896h1.567V77.9h-1.567v5.351q0 .611.196.862.204.243.698.243.203 0 .391-.032.196-.031.423-.078v1.042z"/></g><g style="line-height:1000%;-inkscape-font-specification:'Arial, Normal';text-align:start" font-weight="400" font-size="16.044" font-family="Arial" letter-spacing="0" word-spacing="0" fill="#f2f2f2"><path d="M76.237 144.173q0 .964-.157 1.778-.157.815-.525 1.403-.36.587-.964.924-.595.33-1.472.33-.91 0-1.59-.345-.682-.345-1.043-1.129h-.039q.008.016.008.141.008.126.008.314.008.188.008.423.007.227.007.454v3.314h-1.41v-10.075q0-.305-.008-.587 0-.282-.007-.51-.008-.235-.016-.399-.008-.165-.016-.235h1.363q.008.023.016.164.016.141.024.345.015.196.023.423.016.227.016.431h.031q.196-.407.447-.69.25-.29.572-.47.32-.187.712-.266.4-.086.894-.086.877 0 1.472.313.604.314.964.886.368.564.525 1.37.157.8.157 1.78zm-1.481.031q0-.783-.094-1.394-.094-.611-.33-1.034-.226-.423-.61-.643-.384-.219-.964-.219-.47 0-.885.133-.415.133-.729.51-.305.375-.485 1.041-.18.658-.18 1.716 0 .901.148 1.528.15.619.431 1.003.29.383.713.556.423.164.972.164.587 0 .971-.227.392-.227.619-.658.235-.43.329-1.05.094-.627.094-1.426zM78.03 148.45v-6.502q0-.266-.007-.54 0-.282-.008-.541l-.016-.486q-.007-.227-.015-.407h1.332l.015.415q.016.227.024.47.015.243.015.47.008.22.008.376h.031q.15-.485.314-.838.172-.36.4-.588.227-.235.54-.344.313-.118.76-.118.172 0 .329.032.157.023.243.047v1.292q-.141-.039-.33-.055-.187-.023-.422-.023-.486 0-.83.22-.338.219-.557.61-.211.384-.313.925-.102.532-.102 1.167v4.419h-1.41zM83.35 138.172v-1.347h1.41v1.347h-1.41zm0 10.279v-8.477h1.41v8.477h-1.41zM90.652 148.45h-1.67l-3.078-8.476h1.504l1.865 5.515q.055.173.125.423.078.243.157.51.078.266.14.517l.118.407.118-.407q.078-.251.156-.51.079-.258.157-.501.086-.25.149-.423l1.927-5.531h1.497l-3.165 8.477zM97.115 148.607q-1.277 0-1.92-.674-.642-.673-.642-1.848 0-.839.313-1.371.322-.54.83-.846.518-.306 1.176-.424.658-.117 1.34-.133l1.903-.031v-.462q0-.525-.11-.893-.11-.369-.336-.596-.227-.227-.572-.329-.337-.11-.8-.11-.407 0-.736.063-.329.055-.572.212-.242.149-.391.415-.15.259-.196.658l-1.473-.133q.078-.501.298-.917.22-.423.619-.728.407-.306 1.01-.47.611-.173 1.473-.173 1.598 0 2.405.737.807.728.807 2.115v3.65q0 .627.165.949.164.313.626.313.118 0 .235-.016.118-.015.228-.039v.878q-.267.062-.533.094-.259.03-.556.03-.4 0-.69-.101-.282-.11-.462-.321-.18-.22-.274-.533-.094-.321-.118-.744h-.047q-.227.407-.501.736-.266.33-.627.564-.36.228-.822.353-.455.125-1.05.125zm.321-1.057q.674 0 1.175-.243.51-.25.838-.635.337-.384.502-.838.164-.454.164-.87v-.697l-1.543.031q-.517.008-.987.079-.462.062-.815.258-.352.196-.564.549-.204.352-.204.924 0 .69.369 1.066.376.376 1.065.376zM107.143 148.388q-.322.086-.658.133-.33.055-.768.055-1.692 0-1.692-1.92V141h-.98v-1.026h1.034l.416-1.896h.94v1.896h1.567V141h-1.567v5.351q0 .611.196.862.203.243.697.243.204 0 .392-.032.195-.031.423-.078v1.042zM109.415 144.51q0 .666.133 1.23.14.556.423.964.29.4.736.626.447.22 1.073.22.917 0 1.465-.369.557-.368.753-.932l1.237.353q-.133.352-.376.713-.235.352-.634.642-.4.282-1.003.47-.595.18-1.442.18-1.88 0-2.867-1.12-.98-1.12-.98-3.33 0-1.19.299-2.013.297-.83.814-1.347.517-.518 1.207-.745.69-.235 1.473-.235 1.065 0 1.778.345.72.345 1.152.956.438.603.618 1.426.189.822.189 1.778v.188h-6.049zm4.59-1.081q-.117-1.34-.681-1.95-.564-.62-1.622-.62-.352 0-.744.118-.384.11-.713.4-.33.29-.556.79-.227.494-.259 1.262h4.575zM127.065 147.087q-.392.815-1.042 1.168-.642.352-1.598.352-1.606 0-2.366-1.08-.752-1.082-.752-3.276 0-4.434 3.118-4.434.963 0 1.606.353.642.352 1.034 1.12h.016q0-.078-.008-.243 0-.172-.008-.352v-3.87h1.41v10.466l.016.517.015.408q.008.164.016.235h-1.348q-.015-.079-.03-.22-.009-.149-.024-.337l-.016-.391q-.008-.212-.008-.416h-.031zm-4.277-2.883q0 .878.11 1.505.109.626.352 1.034.243.4.619.587.376.188.916.188.556 0 .98-.18.43-.18.712-.58.29-.407.44-1.057.148-.65.148-1.59 0-.902-.149-1.52-.149-.627-.439-1.011-.29-.384-.712-.548-.416-.173-.964-.173-.517 0-.893.18t-.627.58q-.25.4-.376 1.042-.117.635-.117 1.543zM137.814 144.204q0 2.225-.98 3.314-.979 1.09-2.844 1.09-.885 0-1.582-.267-.697-.266-1.183-.815-.478-.548-.736-1.37-.251-.831-.251-1.952 0-4.387 3.8-4.387.987 0 1.7.274.72.275 1.175.823.462.548.681 1.371.22.823.22 1.92zm-1.481 0q0-.987-.157-1.63-.149-.642-.446-1.025-.29-.384-.713-.533-.423-.157-.956-.157-.54 0-.98.165-.43.156-.736.548-.305.384-.47 1.026-.156.643-.156 1.606 0 .988.172 1.638.172.642.47 1.026.305.384.713.54.415.157.9.157.541 0 .98-.149.439-.156.744-.54.306-.384.47-1.034.165-.65.165-1.638zM140.65 144.173q0 .729.101 1.34.11.61.36 1.057.251.44.659.682.415.243 1.018.243.752 0 1.254-.408.509-.407.626-1.253l1.426.094q-.07.525-.305 1.01-.235.486-.643.854-.4.369-.979.596-.58.22-1.34.22-.995 0-1.692-.338-.697-.337-1.136-.924-.43-.595-.626-1.395-.196-.806-.196-1.747 0-.854.14-1.504.142-.658.392-1.144.259-.493.604-.822.344-.337.744-.533.407-.204.854-.29.446-.094.9-.094.714 0 1.27.196t.956.54q.407.338.658.8.25.462.352.995l-1.45.11q-.109-.706-.555-1.12-.447-.416-1.27-.416-.603 0-1.01.204-.4.195-.65.603-.251.4-.36 1.01-.102.611-.102 1.434zM148.977 139.974v5.374q0 .62.086 1.034.094.416.298.674.204.25.533.36.337.102.83.102.502 0 .901-.172.408-.18.69-.51.29-.336.446-.822.157-.493.157-1.128v-4.912h1.41v7.231l.016.556.015.447q.008.188.016.243h-1.332q-.008-.04-.015-.212-.008-.172-.024-.392l-.016-.454q-.008-.235-.008-.392h-.023q-.204.368-.447.666-.242.298-.564.51-.32.203-.736.313-.415.117-.964.117-.705 0-1.214-.172-.51-.172-.838-.533-.33-.36-.486-.924-.149-.564-.149-1.356v-5.648h1.418zM161.465 148.45v-5.374q0-.619-.078-1.034-.079-.415-.267-.666-.18-.258-.478-.36-.297-.11-.728-.11-.447 0-.807.18-.36.173-.619.51-.25.329-.392.822-.133.486-.133 1.12v4.913h-1.402v-6.667q0-.267-.008-.557 0-.297-.008-.556-.008-.266-.016-.454t-.016-.243h1.332q.008.04.016.211.008.173.016.4.015.22.023.454.008.228.008.384h.024q.188-.368.407-.666.22-.297.51-.501.297-.212.673-.321.384-.118.885-.118.964 0 1.52.384.564.384.784 1.222h.023q.188-.368.423-.666.235-.297.548-.501.314-.212.706-.321.391-.118.893-.118.642 0 1.104.173.47.172.768.532.298.36.439.933.14.564.14 1.347v5.649h-1.394v-5.375q0-.619-.078-1.034-.078-.415-.266-.666-.18-.258-.478-.36-.298-.11-.729-.11-.446 0-.807.173-.36.164-.619.493-.25.33-.391.823-.134.493-.134 1.144v4.912h-1.394zM170.991 144.51q0 .666.134 1.23.14.556.423.964.29.4.736.626.447.22 1.073.22.917 0 1.465-.369.557-.368.752-.932l1.238.353q-.133.352-.376.713-.235.352-.634.642-.4.282-1.003.47-.596.18-1.442.18-1.88 0-2.867-1.12-.98-1.12-.98-3.33 0-1.19.298-2.013.298-.83.815-1.347.517-.518 1.207-.745.69-.235 1.473-.235 1.065 0 1.778.345.72.345 1.151.956.44.603.62 1.426.187.822.187 1.778v.188h-6.048zm4.591-1.081q-.117-1.34-.681-1.95-.564-.62-1.622-.62-.353 0-.744.118-.384.11-.713.4-.33.29-.556.79-.228.494-.259 1.262h4.575zM184.223 148.45v-5.374q0-.619-.094-1.034-.086-.415-.29-.666-.203-.258-.54-.36-.33-.11-.823-.11-.501 0-.908.18-.4.173-.69.51-.282.329-.439.822-.156.486-.156 1.12v4.913h-1.41v-6.667q0-.267-.008-.557 0-.297-.008-.556-.008-.266-.016-.454t-.016-.243h1.332q.008.04.016.211.008.173.015.4.016.22.024.454.008.228.008.384h.023q.204-.368.447-.666.243-.297.564-.501.321-.212.736-.321.416-.118.964-.118.705 0 1.214.173.51.172.839.532.329.36.478.933.156.564.156 1.347v5.649h-1.418zM191.031 148.388q-.32.086-.658.133-.329.055-.768.055-1.692 0-1.692-1.92V141h-.979v-1.026h1.034l.415-1.896h.94v1.896h1.567V141h-1.567v5.351q0 .611.196.862.204.243.698.243.203 0 .391-.032.196-.031.423-.078v1.042zM198.584 146.108q0 .596-.236 1.066-.227.462-.665.783-.44.313-1.082.486-.634.164-1.457.164-.736 0-1.332-.117-.587-.11-1.034-.36-.446-.251-.752-.659-.297-.415-.438-1.01l1.245-.243q.18.681.744 1.003.565.313 1.567.313.455 0 .83-.063.385-.062.659-.211.274-.157.423-.408.157-.258.157-.634 0-.384-.18-.627-.18-.25-.502-.415-.321-.165-.783-.282-.455-.126-1.003-.274-.51-.134-1.01-.298-.502-.165-.91-.431-.4-.274-.65-.674t-.25-1.002q0-1.16.822-1.763.83-.611 2.413-.611 1.402 0 2.225.493.83.494 1.05 1.583l-1.27.156q-.07-.329-.258-.548-.188-.227-.454-.36-.267-.141-.604-.196-.329-.063-.689-.063-.956 0-1.41.29-.455.29-.455.877 0 .345.165.572.172.22.47.376.306.15.729.267.423.11.932.235.337.086.69.188.352.094.68.235.338.133.628.321.297.18.517.439.219.258.344.603.134.345.134.8z"/></g><g style="line-height:1000%;-inkscape-font-specification:'Arial, Normal';text-align:start" font-weight="400" font-size="16.044" font-family="Arial" letter-spacing="0" word-spacing="0" fill="#f2f2f2"><path d="M70.15 205.31q0 .666.133 1.23.14.556.423.963.29.4.736.627.447.22 1.073.22.917 0 1.465-.369.557-.368.752-.932l1.238.353q-.133.352-.376.713-.235.352-.634.642-.4.282-1.003.47-.596.18-1.442.18-1.88 0-2.867-1.12-.98-1.12-.98-3.33 0-1.19.298-2.013.298-.83.815-1.348.517-.517 1.207-.744.69-.235 1.473-.235 1.065 0 1.778.345.72.345 1.152.956.438.603.618 1.425.188.823.188 1.779v.188H70.15zm4.59-1.081q-.117-1.34-.681-1.951-.564-.619-1.622-.619-.353 0-.744.118-.384.11-.713.4-.33.29-.556.79-.228.494-.259 1.262h4.575zM83.381 209.25v-5.374q0-.619-.094-1.034-.086-.415-.29-.666-.203-.258-.54-.36-.33-.11-.823-.11-.501 0-.908.18-.4.173-.69.51-.282.329-.439.822-.156.486-.156 1.12v4.912h-1.41v-6.666q0-.267-.008-.557 0-.297-.008-.556-.008-.266-.016-.454-.007-.188-.015-.243h1.332q.007.04.015.211.008.173.016.4.016.22.023.454.008.228.008.384h.024q.203-.368.446-.666.243-.297.564-.501.321-.212.737-.321.415-.118.963-.118.705 0 1.215.173.509.172.838.532.329.36.478.933.156.564.156 1.347v5.648h-1.418zM88.004 204.973q0 .729.101 1.34.11.61.36 1.057.252.439.659.682.415.243 1.018.243.752 0 1.254-.408.509-.407.627-1.253l1.425.094q-.07.525-.305 1.01-.235.486-.643.854-.4.369-.979.596-.58.22-1.34.22-.994 0-1.692-.338-.697-.337-1.136-.924-.43-.596-.626-1.395-.196-.807-.196-1.747 0-.854.14-1.504.142-.658.392-1.144.259-.493.604-.822.344-.337.744-.533.407-.204.854-.29.446-.094.9-.094.714 0 1.27.196t.956.54q.407.337.658.8.25.462.352.995l-1.449.11q-.11-.706-.556-1.121-.447-.415-1.27-.415-.603 0-1.01.203-.4.196-.65.604-.25.4-.36 1.01-.102.611-.102 1.434zM94.984 209.25v-6.502q0-.266-.008-.54 0-.282-.008-.541l-.015-.486-.016-.407h1.332q.008.18.015.415.016.227.024.47.016.243.016.47.007.22.007.376h.032q.149-.485.313-.838.172-.36.4-.588.227-.235.54-.344.314-.118.76-.118.172 0 .33.031.156.024.242.047v1.293q-.141-.04-.329-.055-.188-.023-.423-.023-.486 0-.83.22-.337.219-.557.61-.211.384-.313.925-.102.532-.102 1.167v4.418h-1.41zM103.962 209.25q-.298.768-.611 1.38-.306.618-.69 1.05-.383.438-.854.665-.47.235-1.08.235-.267 0-.494-.016-.227-.015-.478-.07v-1.058q.149.024.337.032.188.015.321.015.619 0 1.152-.462.532-.462.932-1.473l.133-.337-3.36-8.437h1.503l1.787 4.685q.078.211.195.564.126.352.243.705.126.352.22.634.094.282.11.353.023-.086.109-.337.094-.258.204-.572l.235-.634q.117-.322.196-.557l1.66-4.841h1.489l-3.26 8.476zM115.502 204.973q0 .964-.157 1.778-.157.815-.525 1.403-.36.587-.963.924-.596.33-1.473.33-.91 0-1.59-.346-.682-.344-1.043-1.128h-.039q.008.016.008.141.008.126.008.314.008.188.008.423.008.227.008.454v3.314h-1.41v-10.075q0-.305-.008-.587 0-.282-.008-.51-.008-.235-.016-.4-.008-.164-.015-.234h1.363q.008.023.015.164.016.141.024.345.016.196.023.423.016.227.016.431h.031q.196-.407.447-.69.25-.29.572-.47.321-.187.713-.266.4-.086.893-.086.877 0 1.473.313.603.314.963.886.369.564.525 1.37.157.8.157 1.779zm-1.481.031q0-.783-.094-1.394-.094-.611-.329-1.034-.227-.423-.611-.643-.384-.22-.964-.22-.47 0-.885.134-.415.133-.729.51-.305.375-.485 1.041-.18.658-.18 1.716 0 .9.148 1.528.15.619.431 1.002.29.384.713.557.423.164.972.164.587 0 .971-.227.392-.227.619-.658.235-.431.329-1.05.094-.627.094-1.426zM120.523 209.188q-.32.086-.658.133-.329.055-.767.055-1.693 0-1.693-1.92V201.8h-.979v-1.026h1.034l.415-1.896h.94v1.896h1.567v1.026h-1.566v5.35q0 .612.195.863.204.243.698.243.203 0 .391-.032.196-.031.423-.078v1.042zM122.795 205.31q0 .666.134 1.23.14.556.423.963.29.4.736.627.447.22 1.073.22.917 0 1.465-.369.557-.368.752-.932l1.238.353q-.133.352-.376.713-.235.352-.634.642-.4.282-1.003.47-.596.18-1.442.18-1.88 0-2.867-1.12-.98-1.12-.98-3.33 0-1.19.298-2.013.298-.83.815-1.348.517-.517 1.207-.744.689-.235 1.472-.235 1.066 0 1.779.345.72.345 1.151.956.44.603.62 1.425.187.823.187 1.779v.188h-6.048zm4.591-1.081q-.117-1.34-.681-1.951-.564-.619-1.622-.619-.353 0-.744.118-.384.11-.713.4-.33.29-.556.79-.228.494-.259 1.262h4.575zM135.996 207.887q-.392.815-1.042 1.168-.642.352-1.598.352-1.606 0-2.366-1.081-.752-1.081-.752-3.275 0-4.434 3.118-4.434.963 0 1.606.353.642.352 1.034 1.12h.016q0-.078-.008-.243 0-.172-.008-.352v-3.87h1.41v10.466l.016.517.015.407q.008.165.016.235h-1.348q-.015-.078-.03-.219-.009-.149-.024-.337l-.016-.391q-.008-.212-.008-.416h-.031zm-4.278-2.883q0 .878.11 1.505.11.626.353 1.034.243.4.619.587.376.188.916.188.556 0 .98-.18.43-.18.712-.58.29-.407.44-1.057.148-.65.148-1.59 0-.902-.149-1.52-.149-.627-.439-1.011-.29-.384-.712-.549-.416-.172-.964-.172-.517 0-.893.18t-.627.58q-.25.4-.376 1.042-.118.635-.118 1.543z"/></g><g style="line-height:1000%;-inkscape-font-specification:'Arial, Normal';text-align:start" font-weight="400" font-size="16.044" font-family="Arial" letter-spacing="0" word-spacing="0" fill="#f2f2f2"><path d="M28.114 38.15h-1.552l-4.504-11.038h1.574l3.056 7.772.235.705.211.619q.11.32.212.626.094-.29.203-.61.094-.275.204-.62.118-.344.25-.72l3.04-7.772h1.575l-4.504 11.039zM34.757 38.307q-1.277 0-1.92-.673-.642-.674-.642-1.85 0-.838.314-1.37.32-.54.83-.846.517-.306 1.175-.423.658-.118 1.34-.134l1.903-.031v-.462q0-.525-.11-.893-.109-.369-.336-.596-.227-.227-.572-.329-.337-.11-.8-.11-.406 0-.736.063-.329.055-.571.212-.243.149-.392.415-.149.259-.196.658l-1.473-.133q.079-.502.298-.917.22-.423.619-.728.407-.306 1.01-.47.611-.173 1.473-.173 1.598 0 2.405.737.807.728.807 2.115v3.65q0 .627.165.949.164.313.627.313.117 0 .235-.016.117-.015.227-.039v.878q-.267.062-.533.094-.259.03-.556.03-.4 0-.69-.1-.282-.11-.462-.322-.18-.22-.274-.533-.094-.321-.118-.744h-.047q-.227.407-.5.736-.267.33-.628.564-.36.228-.822.353-.455.125-1.05.125zm.321-1.057q.674 0 1.175-.243.51-.25.839-.635.336-.384.5-.838.165-.454.165-.87v-.697l-1.543.031q-.517.008-.987.079-.462.062-.815.258-.352.196-.564.549-.204.352-.204.924 0 .69.369 1.066.376.376 1.065.376zM42.905 29.674v5.374q0 .62.086 1.034.094.416.297.674.204.25.533.36.337.102.83.102.502 0 .901-.172.408-.18.69-.51.29-.336.446-.822.157-.493.157-1.128v-4.912h1.41v7.231l.016.556q.008.259.016.447.007.188.015.243H46.97q-.007-.04-.015-.212t-.024-.392l-.015-.454q-.008-.235-.008-.392h-.024q-.203.368-.446.666-.243.298-.564.51-.321.203-.737.313-.415.117-.963.117-.705 0-1.215-.172-.509-.172-.838-.533-.329-.36-.486-.924-.148-.564-.148-1.356v-5.648h1.418zM50.457 38.15V26.526h1.41V38.15h-1.41zM57.288 38.088q-.321.086-.658.133-.329.055-.768.055-1.692 0-1.692-1.92V30.7h-.98v-1.026h1.035l.415-1.896h.94v1.896h1.567V30.7H55.58v5.351q0 .611.196.862.204.243.697.243.204 0 .392-.032.196-.031.423-.078v1.042zM64.84 35.808q0 .596-.235 1.066-.227.462-.666.783-.438.313-1.08.486-.635.164-1.458.164-.736 0-1.332-.117-.587-.11-1.034-.36-.446-.251-.752-.659-.298-.415-.439-1.01l1.246-.243q.18.681.744 1.003.564.313 1.567.313.454 0 .83-.063.384-.062.659-.211.274-.157.423-.408.156-.258.156-.634 0-.384-.18-.627-.18-.25-.501-.415-.321-.165-.784-.282l-1.002-.274q-.51-.134-1.011-.298-.501-.165-.909-.43-.4-.275-.65-.675t-.25-1.002q0-1.16.822-1.763.83-.611 2.413-.611 1.402 0 2.225.493.83.494 1.05 1.583l-1.27.157q-.07-.33-.258-.549-.188-.227-.455-.36-.266-.141-.603-.196-.329-.063-.69-.063-.955 0-1.41.29-.454.29-.454.878 0 .344.165.571.172.22.47.377.305.148.728.266.423.11.933.235.337.086.69.188.352.094.68.235.338.133.627.321.298.18.517.439.22.258.345.603.133.345.133.8z"/></g></svg>