<svg xmlns="http://www.w3.org/2000/svg" viewBox="0 0 256 256" version="1.1" id="svg8"><defs id="defs4"><style id="current-color-scheme" type="text/css">.ColorScheme-Text{color:#7b7c7e}</style></defs><path d="M16 10h224c3.324 0 6 2.676 6 6v224c0 3.324-2.676 6-6 6H16c-3.324 0-6-2.676-6-6V16c0-3.324 2.676-6 6-6z" id="rect4240" fill="currentColor" fill-opacity=".5" stroke="none" color="#7b7c7e"/><path d="M16 12h224c2.216 0 4 1.784 4 4v224c0 2.216-1.784 4-4 4H16c-2.216 0-4-1.784-4-4V16c0-2.216 1.784-4 4-4z" id="rect4238" fill="currentColor" fill-opacity="1" stroke="none" color="#31363b"/><path d="M22.5 57.5v141h211v-141h-211zm1 1h34v34h-34v-34zm35 0h34v34h-34v-34zm35 0h34v34h-34v-34zm35 0h34v34h-34v-34zm35 0h34v34h-34v-34zm35 0h34v34h-34v-34zm-175 35h34v34h-34v-34zm35 0h34v34h-34v-34zm35 0h34v34h-34v-34zm35 0h34v34h-34v-34zm35 0h34v34h-34v-34zm35 0h34v34h-34v-34zm-175 35h34v34h-34v-34zm35 0h34v34h-34v-34zm35 0h34v34h-34v-34zm35 0h34v34h-34v-34zm35 0h34v34h-34v-34zm35 0h34v34h-34v-34zm-175 35h34v34h-34v-34zm35 0h34v34h-34v-34zm35 0h34v34h-34v-34zm35 0h34v34h-34v-34zm35 0h34v34h-34v-34zm35 0h34v34h-34v-34z" class="ColorScheme-Text" id="rect4603-4" opacity=".5" fill="currentColor" fill-opacity="1" stroke="none"/><path d="M58.5 58.5v34h34v-34h-34zm70 35v34h34v-34h-34zm70 0v34h34v-34h-34zm-105 35v34h34v-34h-34zm70 0v34h34v-34h-34zm35 0v34h34v-34h-34zm-175 35v34h34v-34h-34z" class="ColorScheme-Text" id="rect4700-4" opacity="1" fill="currentColor" fill-opacity="1" stroke="none"/></svg>