<svg xmlns="http://www.w3.org/2000/svg" width="32" height="32"><rect width="28.203" height="28.203" x="1.898" y="1.898" ry="5.575" fill="#a1252b" fill-rule="evenodd"/><path d="M12.476 7.89c-2.684 0-4.934 2.251-4.934 4.935 0 1.058.358 2.04.945 2.853l-1.852 3.084c-1.41 2.348.28 5.338 3.02 5.34l12.688.008c2.62.001 4.325-2.756 3.154-5.1l-2.82-5.645a3.525 3.525 0 0 0-5.334-1.188c-.33-2.386-2.405-4.287-4.867-4.287z" fill="#fff"/><path d="M12.474 11.416a1.41 1.41 0 0 0-1.41 1.41 1.41 1.41 0 0 0 1.41 1.41 1.41 1.41 0 0 0 1.41-1.41 1.41 1.41 0 0 0-1.41-1.41zm7.052 3.526l-2.116 3.174-2.115-1.763-2.116 2.82-1.41-2.115-2.116 3.522 12.694.008z" fill="#a1252b"/></svg>