<svg xmlns="http://www.w3.org/2000/svg" width="32" height="32" version="1"><rect width="28.203" height="28.203" x="1.898" y="1.898" ry="5.575" fill="#ffb73c" fill-rule="evenodd"/><g transform="matrix(.6826 0 0 .6826 5.078 5.42)"><rect ry="2.75" rx="2.8" y="19" x="2" height="11" width="28" fill="#4f4f4f"/><path d="M12.335 2l-.824 2.411-1.937-1.68-.678 1.978-1.465-1.272-.72 2.106-1.424-.695-.156 2.383-1.987-.97-.164 2.52L1 8.389l.505 2.496L5 19h22l3.495-8.115L31 8.389l-1.98.392-.164-2.52-1.987.97-.156-2.383-1.423.695-.721-2.106-1.465 1.272-.678-1.978-1.937 1.68L19.665 2l-1.936 1.68-.295 1.086v-.623l-1.428-2.118-.006.008-.006-.008-1.428 2.118v.623L14.27 3.68z" fill="#4f4f4f"/><path d="M7.5 13.5h6c-3.263 3.412-4 5.572-4 10M19.5 13.5v10M24.5 13.5l-5 5.786M24.5 23.5l-5-5.643" fill="none" stroke="#ffb73c" stroke-width="3" stroke-linecap="round" stroke-linejoin="round"/><path d="M16 11L10 1h12z" fill="#f45151"/></g></svg>