<svg xmlns="http://www.w3.org/2000/svg" width="32" height="32"><rect width="28.203" height="28.203" x="1.898" y="1.898" ry="5.575" fill="#248afd" fill-rule="evenodd"/><g transform="matrix(.68039 0 0 .68039 5.114 5.114)"><circle cy="16" r="14" cx="16" fill="#fff"/><path d="M22.646 21.368c-4.626 2.35-9.387 4.556-14.441 5.73-1.63-.007-.825-2.187-.562-3.175 1.263-4.196 3.223-8.124 5.086-12.063.738-1.245 1.261-2.96 2.749-3.439 1.445-.165 2.394 1.272 3.142 2.32 3.061 4.816 5.951 9.76 8.486 14.89A299.86 299.86 0 0 1 29 29.657c-1.85-7.763-4.34-15.462-8.356-22.352-.9-1.361-1.72-2.838-2.934-3.932-1.184-.934-2.64.071-3.514.976-2.748 2.832-4.422 6.528-6.062 10.098-1.913 4.223-3.169 8.726-4.09 13.274-.323 1.531 1.21 2.643 2.572 2.168 3.774-.807 7.32-2.499 10.657-4.44 1.924-1.16 3.773-2.479 5.373-4.081z" fill="#ccc"/></g></svg>