<svg xmlns="http://www.w3.org/2000/svg" height="32" width="32" version="1"><g transform="translate(.017 .077)"><path d="M30.085 15.923V7.396a5.563 5.563 0 0 0-5.576-5.574h-8.526v14.101z" fill="#595959"/><path d="M15.983 30.025h8.528a5.563 5.563 0 0 0 5.574-5.576v-8.526H15.983z" fill="#666"/><circle r="6.317" cy="22.715" cx="22.983" fill="#07ce8e" fill-rule="evenodd"/><path d="M20.012 20.959v1.007h6.044v-1.007zm0 3.021v1.008h6.044V23.98z" fill="#ebebeb"/><path d="M7.458 1.822a5.558 5.558 0 0 0-5.576 5.576v8.525h14.101V1.822z" fill="#a6a6a6"/><path d="M8.933 5.851v3.022H5.911V9.88h3.022v3.022H9.94V9.88h3.022V8.873H9.94V5.85zM20.012 8.872V9.88h6.044V8.872z" fill="#ebebeb"/><path d="M1.882 15.923v8.526a5.582 5.582 0 0 0 1.629 3.945 5.563 5.563 0 0 0 3.945 1.63h8.527v-14.1z" fill="#8c8c8c"/><path d="M6.267 19.596l-.712.713 2.665 2.665-2.665 2.665.712.713 2.666-2.666 2.665 2.666.713-.713-2.666-2.665 2.666-2.665-.713-.713-2.665 2.666z" fill="#ebebeb" fill-rule="evenodd"/></g></svg>