<svg xmlns="http://www.w3.org/2000/svg" width="32" height="32" version="1"><g transform="translate(41.983 -.372)"><rect ry="5.575" y="2.27" x="-40.085" height="28.203" width="28.203" fill="#5b5b5b" fill-rule="evenodd"/><path d="M-34.714 2.311c-2.988.113-5.37 2.517-5.37 5.533V24.9a5.561 5.561 0 0 0 5.573 5.574h17.053a5.563 5.563 0 0 0 5.576-5.574V7.844a5.563 5.563 0 0 0-5.576-5.574h-13.256v1.563a.996.996 0 0 1-.293.707.996.996 0 0 1-.707.293h-2a1 1 0 0 1-1-1z" fill="#8e8e8e" fill-rule="evenodd"/><path d="M-34.714 2.311v1.522a.994.994 0 0 0 1 1h2a.996.996 0 0 0 .707-.293c.181-.181.293-.43.293-.707V2.27h-3.797c-.072 0-.131.039-.203.041z" fill="#4d4d4d" fill-rule="evenodd"/><circle r="1" cy="7.67" cx="-16.121" fill="#4d4d4d"/><circle r="8" cy="16.372" cx="-25.983" fill="#4d4d4d"/><circle transform="scale(1 -1)" r="6" cy="-16.372" cx="-25.983" fill="#ba174e"/><circle r="4" cy="16.372" cx="-25.983" fill="#d67495"/></g></svg>