<svg xmlns="http://www.w3.org/2000/svg" height="32" width="32" version="1"><path d="M18.764 30.102v-14.79c0-.387-.158-.735-.41-.988a1.392 1.392 0 0 0-.989-.41H2.45c-.215 0-.369.142-.55.229v10.382a5.565 5.565 0 0 0 5.576 5.577z" fill="#00c5ec" fill-rule="evenodd"/><path d="M18.764 16.863v13.239h5.763a5.563 5.563 0 0 0 5.575-5.577v-7.668c-.006 0-.01.006-.016.006zM15.334 1.898h-7.86a5.563 5.563 0 0 0-5.576 5.575v6.67c.182-.087.336-.229.551-.229h12.822V2.05c0-.06.055-.094.063-.15z" fill="#c2c2c2" fill-rule="evenodd"/><path d="M15.334 1.898c-.008.057-.063.092-.063.15v11.866h2.094c.388 0 .736.157.989.41.252.253.41.601.41.989v1.55h11.322c.006 0 .01-.005.016-.006V7.473a5.561 5.561 0 0 0-5.575-5.575z" fill="#d8dadc" fill-rule="evenodd"/><path d="M25.81 9.482v.526H20.86c.047.741.27 1.306.667 1.696.402.386.96.58 1.673.58a4.7 4.7 0 0 0 1.199-.153c.39-.101.776-.253 1.158-.456v1.018a6.454 6.454 0 0 1-1.187.374 5.947 5.947 0 0 1-1.235.129c-1.045 0-1.873-.304-2.486-.913-.608-.608-.912-1.43-.912-2.468 0-1.072.289-1.922.866-2.55.58-.632 1.362-.948 2.345-.948.881 0 1.577.285 2.088.854.515.566.772 1.336.772 2.31m-1.076-.315c-.008-.589-.173-1.059-.497-1.41-.32-.35-.745-.526-1.275-.526-.6 0-1.082.17-1.445.509-.359.339-.565.817-.62 1.433l3.837-.006m-1.298-5.218h1.187V5.13h-1.187V3.948m-2.287 0h1.187V5.13h-1.187V3.948" fill="#9d9d9d"/><path d="M11.35 22.194c-.939 0-1.589.105-1.95.314-.363.208-.544.565-.544 1.068 0 .401.135.72.404.958.274.234.644.35 1.111.35.644 0 1.16-.22 1.547-.663.391-.446.587-1.038.587-1.775v-.252H11.35m2.317-.466v3.924h-1.162v-1.044a2.519 2.519 0 0 1-.99.927c-.396.197-.88.295-1.452.295-.724 0-1.3-.196-1.73-.59-.425-.397-.637-.926-.637-1.59 0-.773.265-1.356.795-1.75.534-.392 1.33-.589 2.386-.589h1.629v-.11c0-.52-.177-.922-.53-1.204-.35-.287-.842-.43-1.478-.43-.404 0-.797.047-1.18.141a4.757 4.757 0 0 0-1.105.424v-1.044c.425-.16.838-.278 1.238-.356.4-.082.789-.123 1.167-.123 1.023 0 1.787.258 2.292.774.505.516.757 1.298.757 2.346m-3.913-6.135l1.78 2.297h-.966l-2.057-2.297h1.243" fill="#fff"/></svg>