<svg xmlns="http://www.w3.org/2000/svg" height="32" width="32" version="1"><g transform="translate(70.305 -11.255)"><rect width="28.203" height="28.203" x="-68.475" y="13.153" ry="5.575" fill="#ccc" fill-rule="evenodd"/><path d="M-53.83 41.356h8.119a5.582 5.582 0 0 0 3.947-1.628 5.566 5.566 0 0 0 1.629-3.948V18.728a5.582 5.582 0 0 0-1.63-3.946 5.572 5.572 0 0 0-1.773-1.193 5.58 5.58 0 0 0-2.173-.436h-8.12z" fill="#b3b3b3"/></g><path d="M10.291 1.898c-.8 0-.8.686-.8.686v11.314l2-1 2 1V2.584c0-.686-.8-.686-.8-.686z" fill="#c2352a"/></svg>