<svg xmlns="http://www.w3.org/2000/svg" height="32" width="32" version="1"><rect width="28.203" height="28.203" x="1.898" y="1.898" ry="5.575" fill="#c2352a" fill-rule="evenodd"/><g transform="translate(44.644 7.661)"><rect x="-38.051" y="6.458" width="18.814" height="3.763" ry="1.254" rx="1.254" fill="#678bff"/><rect x="-17.119" y="31.153" width="17.559" height="4.39" ry="1.881" rx="1.881" transform="matrix(0 -1 -1 0 0 0)" fill="#fff"/><rect x="-17.119" y="21.746" width="17.559" height="4.39" ry="1.881" rx="1.881" transform="matrix(0 -1 -1 0 0 0)" fill="#fff"/><rect x="-14.61" y="35.542" width="12.542" height="1.881" ry=".941" rx=".941" transform="matrix(0 -1 -1 0 0 0)" fill="#fff"/><rect x="-14.61" y="19.864" width="12.542" height="1.881" ry=".941" rx=".941" transform="matrix(0 -1 -1 0 0 0)" fill="#fff"/></g></svg>