<svg xmlns="http://www.w3.org/2000/svg" height="32" width="32" version="1"><rect width="28.203" height="28.203" x="1.898" y="1.898" ry="5.575" fill="#848484" fill-rule="evenodd"/><path d="M15.861 9.674a6.273 6.273 0 0 0-6.273 6.272 6.273 6.273 0 0 0 6.273 6.273 6.273 6.273 0 0 0 6.273-6.273 6.273 6.273 0 0 0-6.273-6.272zm0 3.763a2.509 2.509 0 1 1 0 5.018 2.509 2.509 0 0 1 0-5.018z" fill="#848484"/><path d="M15.861 4.237a11.683 11.683 0 0 0-11.709 11.71 11.683 11.683 0 0 0 11.709 11.708A11.683 11.683 0 0 0 27.57 15.946 11.683 11.683 0 0 0 15.86 4.237zm0 6.691a5.018 5.018 0 0 1 5.018 5.018 5.018 5.018 0 0 1-5.018 5.018 5.018 5.018 0 0 1-5.018-5.018 5.018 5.018 0 0 1 5.018-5.018z" fill="#fff"/><circle cx="22.552" cy="21.801" r="6.691" fill="#ba22ff"/><path d="M19.206 22.08a3.344 3.344 0 0 0 6.688.056.558.558 0 0 0 .003-.056.558.558 0 0 0-.557-.558.558.558 0 0 0-.558.558 2.23 2.23 0 1 1-2.23-2.23v1.115l2.23-1.673-2.23-1.673v1.115a3.345 3.345 0 0 0-3.345 3.345z" fill="#fff"/></svg>