<svg xmlns="http://www.w3.org/2000/svg" height="32" width="32"><g transform="translate(0 1.898)"><rect ry="5.575" x="1.898" height="28.203" width="28.203" fill="#745145" fill-rule="evenodd"/><g fill="#ff3434"><path d="M21.424 8.74c.213.014.442 0 .692.174 2.236.963.736 3.602-2.114 5.61-.017-.379-.174-1.203-.17-1.566 2.431-1.667 3.853-3.29 2.304-3.933-1.634-.678-2.141 1.173-2.17 3.861-.152.158-1.206.858-1.367.969.06-2.45 1.363-4.953 2.614-5.096.068-.013.14-.013.211-.013m-2.276 4.264l.509-.198.422.284.085.894-.533.41-.221.296c-1.64 1.088-3.038 1.926-4.876 2.618l-1.147.17h-.754c-.696-.41-.281-.567-2.808-.882l2.848.22c2.196-.851 4.438-2.074 6.477-3.409m-5.012 3.568c-.33 0-2.9-.223-3.922-.318-1.011-.158-2.254-.205-2.019.978-.267-.63.343-1.702 1.21-1.89 1.341-.3 3.47.522 4.234.774m-1.233.328c.4.157 1.31.271 1.741.413-.61.316-3.674 1.447-4.939 1.21-.202 0-1.056-.614-1.077-1.056.066.804 3.811.205 4.275-.584m-.833.015c.328-.158 1.865-.15 2.204-.276 1.925.673 4.514 2.254 6.366 3.32l.537.158c.104.736.557.99.971 1.466l-.627.631-.49-.804c-2.17-1.31-6.458-3.424-8.96-4.44m8.96 4.44c.265.158.518.315.758.473.556 1.578 1.205 2.642 1.824 2.596-.957.457-3.017-1.796-3.712-3.916m3.712 3.916c1.46-.868-1.63-2.449-2.323-2.907-.156-.442.27-1.174.131-1.694 2.179 1.356 3.466 3.318 2.735 4.249-.176.22-.362.331-.547.347m-2.12-3.305c-.1-.406-1.446-1.33-1.69-1.473-.325-2.562-.34-2.816-.617-4.808.166-.157 1.183-.95 1.34-1.061.196 2.13.564 5.014 1.083 6.942M8.133 0v12.237l1.748-1.748 1.748 1.748V0z"/></g></g></svg>