<svg xmlns="http://www.w3.org/2000/svg" height="32" width="32" version="1"><rect width="28.203" height="28.203" x="1.898" y="1.898" ry="5.575" fill="#0081be" fill-rule="evenodd"/><g fill="#94d5f4"><path d="M7 9.057S9.101 9 10.831 9c2.4 0 5.169.8 5.169 5s-2.77 5-5.17 4.986c-.53.023-.83.028-.83.028V23H7zm3 7.938c.305.03.304.016.756.01C12.262 16.986 13 15.341 13 13.9c0-1.294-.574-2.845-2.02-2.9-.577-.022-.98 0-.98 0zM18 20c.547.365 1.594 1 2.474 1 .899 0 1.526-.557 1.526-1.094 0-.539-.167-1.2-1.282-1.608-1.975-.732-2.737-1.608-2.717-2.834C18 13.484 19.526 12 21.89 12c1.11 0 2.609 1 2.609 1v2c-.43-.258-1.69-1-2.51-1-.725 0-1.444.583-1.444 1.12 0 .692.68.754 1.854 1.206 1.818.689 2.58 1.7 2.6 3.25 0 1.958-1.387 3.515-4.145 3.42-.946-.032-2.131-.566-2.855-.995v-2z"/></g></svg>