<svg xmlns="http://www.w3.org/2000/svg" height="32" width="32"><rect width="28.203" height="28.203" x="1.898" y="1.898" ry="5.575" fill="#008033" fill-rule="evenodd"/><path d="M13.415 18.078C16.3 19.788 16.592 21.1 16 22.153c-.592 1.053-1.844 1.45-4.73-.261-2.886-1.71-6.149-5.17-6.416-6.345 1.125-.35 5.676.82 8.56 2.531z" fill="#80ffb3"/><path d="M15.746 17.297c1.666 2.962 1.28 4.248.254 4.856-1.026.608-2.304.308-3.97-2.654-1.665-2.962-2.806-7.633-2.465-8.788 1.145.274 4.515 3.625 6.18 6.586z" fill="#2aff80"/><path d="M18.145 17.818c0 3.42-.96 4.335-2.145 4.335s-2.145-.915-2.145-4.335S15.142 9.766 16 8.94c.858.825 2.145 5.456 2.145 8.877z" fill="#00d455"/><path d="M19.97 19.5c-1.666 2.961-2.944 3.26-3.97 2.653-1.026-.608-1.412-1.894.254-4.856 1.666-2.961 5.036-6.312 6.181-6.586.341 1.155-.8 5.826-2.465 8.788z" fill="#0a4"/><path d="M20.73 21.892c-2.886 1.71-4.138 1.314-4.73.26-.592-1.052-.301-2.364 2.585-4.074s7.436-2.881 8.561-2.531c-.267 1.175-3.53 4.635-6.416 6.345z" fill="#fff"/></svg>