<svg xmlns="http://www.w3.org/2000/svg" height="32" width="32"><rect width="28.203" height="28.203" x="1.898" y="1.898" ry="5.575" fill="#006680" fill-rule="evenodd"/><path d="M14.35 10c-2.157 0-3.906 1.76-3.906 3.93.003.1.01.197.02.293a5.82 5.82 0 0 0-.558-.084C7.75 14.139 6 15.899 6 18.069 6 20.24 7.75 22 9.906 22h12.187C24.251 22 26 20.24 26 18.07c0-2.171-1.75-3.931-3.907-3.931a3.4 3.4 0 0 0-1.198.255 2.974 2.974 0 0 0-2.345-1.144c-.121.006-.238.01-.35.02-.312-1.856-1.917-3.27-3.85-3.27z" fill="#33b3bc"/></svg>