<svg xmlns="http://www.w3.org/2000/svg" height="32" width="32" version="1"><g transform="translate(45.153 7.458)"><rect ry="5.575" y="-5.559" x="-43.254" height="28.203" width="28.203" fill="#608ab5" fill-rule="evenodd"/><path d="M-18.684 9.99A10.198 10.198 0 0 1-28.88 20.186 10.198 10.198 0 0 1-39.08 9.989 10.198 10.198 0 0 1-28.88-.209 10.198 10.198 0 0 1-18.684 9.99z" fill="#cddff0"/><path d="M-22.581 19.257c-5.451 3.148-12.421 1.28-15.57-4.17-3.146-5.452-1.279-12.423 4.173-15.57 6.423-.03 10.501 13.85 11.397 19.74z" fill="#85b4df"/><path d="M-17.484 9.79c0 6.294-5.103 11.396-11.397 11.396-6.295 0-11.398-5.102-11.398-11.397 3.186-5.577 17.246-2.17 22.795 0z" fill="#608ab5"/></g></svg>