<svg xmlns="http://www.w3.org/2000/svg" height="32" width="32" version="1"><rect width="28.203" height="28.203" x="1.898" y="1.898" ry="5.575" fill="#d1ff42" fill-rule="evenodd"/><path d="M27 18c-1.823 2-3.851 4.138-6.69 3.945-1.174-.177-2.459-1.492-3.401-2.793-1.193-1.647-2.198-3.576-3.275-5.362-.903-1.356-2.037-2.681-4.23-1.054-.75.527-1.48 1.475-2.047 2.49-.905 1.619.672 3.788 2.143 3.774 6.07-.06 12.812-6.195 16.5-9-3.336 3.584-5.129 5.64-11.957 9.63-1.682.965-3.16 1.58-5.322 2.106-1.293.316-3.198.608-3.616-.765-.434-1.432.603-3.64.819-4.118 1.63-3.608 4.066-7.354 8.324-6.798 4.06.531 4.252 6.87 7.283 8.535 1.492.82 2.605.908 5.468-.59z" fill="#4f4f4f"/></svg>