<svg xmlns="http://www.w3.org/2000/svg" height="32" width="32"><rect width="28.203" height="28.203" x="1.898" y="1.898" ry="5.575" fill="#11ab66" fill-rule="evenodd"/><path d="M11.589 7.177a4.411 4.411 0 0 0-4.412 4.412 4.411 4.411 0 0 0 1.352 3.17 1.089 1.089 0 0 0-.091.434v2.698a.63.63 0 0 0-.63.63.63.63 0 0 0 .63.63v2.95c0 .53.362.956.812.956h2.853l-1.046 1.097a.737.446 0 0 0 .639.669h6.719a.737.446 0 0 0 .736-.46.737.446 0 0 0-.098-.21l-1.047-1.096h2.853c.45 0 .813-.427.813-.957v-2.138l.722.478 1.76 1.164a.446.51 0 0 0 .669-.443V16.51a.446.51 0 0 0-.46-.51.446.51 0 0 0-.21.069l-1.76 1.162-.721.477v-2.515c0-.156-.034-.3-.09-.43a4.411 4.411 0 0 0 1.35-3.174 4.411 4.411 0 0 0-4.411-4.412 4.411 4.411 0 0 0-3.464 1.688 4.411 4.411 0 0 0-3.468-1.688z" fill="#fff"/><path d="M11.274 9.068a2.21 2.21 0 0 0-2.206 2.206 2.21 2.21 0 0 0 2.206 2.205 2.21 2.21 0 0 0 2.205-2.205 2.21 2.21 0 0 0-2.205-2.206zm7.562 0a2.21 2.21 0 0 0-2.206 2.206 2.21 2.21 0 0 0 2.206 2.205 2.21 2.21 0 0 0 2.205-2.205 2.21 2.21 0 0 0-2.205-2.206zm-7.562.63a1.57 1.57 0 0 1 1.575 1.576 1.57 1.57 0 0 1-1.575 1.575 1.57 1.57 0 0 1-1.576-1.575 1.57 1.57 0 0 1 1.576-1.576zm7.562 0a1.57 1.57 0 0 1 1.575 1.576 1.57 1.57 0 0 1-1.575 1.575 1.57 1.57 0 0 1-1.576-1.575 1.57 1.57 0 0 1 1.576-1.576z" fill="#11ab66"/></svg>