<svg xmlns="http://www.w3.org/2000/svg" height="32" width="32" version="1"><rect width="28.203" height="28.203" x="1.898" y="1.898" ry="5.575" fill="#45b449" fill-rule="evenodd"/><circle r="5" cx="16" cy="21" fill="#393939"/><circle r="9" cx="16" cy="15" fill="#393939"/><path d="M9.106 15.106a4.876 4.876 0 0 1 4.465 1.323 4.876 4.876 0 0 1 1.323 4.465 4.876 4.876 0 0 1-4.465-1.323 4.878 4.878 0 0 1-1.323-4.465zM22.894 15.106a4.876 4.876 0 0 0-4.465 1.323 4.876 4.876 0 0 0-1.323 4.465 4.876 4.876 0 0 0 4.465-1.323 4.877 4.877 0 0 0 1.323-4.465z" fill="#df574d"/></svg>