<svg xmlns="http://www.w3.org/2000/svg" height="32" width="32" version="1"><rect width="28.203" height="28.203" x="1.898" y="1.898" ry="5.575" fill="#608ab5" fill-rule="evenodd"/><path d="M17.528 12.483s-1.175-.18-1.852.499c-.678.68-1.266 2.174-1.22 2.627.045.453 1.4-1.54 1.988-1.676.587-.136 1.22-1.133 1.084-1.45z"/><path d="M23.046 6.048c-.49 0-1.438 1.16-1.794 1.343-.356.183-3.173 2.257-3.44 2.624-.267.366-.622.518-1.008.488-.385-.03-1.603-.043-2.019.2-.415.245-2.31 2.24-2.784 2.485-.474.244-1.093.369-1.39.4-.296.03-1.278 1.156-1.545 1.37-.267.213-2.376 1.152-2.672 1.335-.297.183 2.163 2.747 2.519 2.808.356.06-.922.87-.93 1.45-.007.579.612 2.302 4.204 4.33 3.106 1.753 6.387.909 7.625.552.492-.142.311-1.77.402-2.635.06-.549.267-5.156 1.038-6.376.77-1.22 2.974-2.686 3.745-2.838.77-.153.622-.458.622-.732 0-.275-.118-.885-.326-.977-.207-.091-1.017.459-1.284.52-.267.06-1.542.152-1.72-.153-.178-.305 1.439-3.417 1.646-3.783.207-.366.297-.854-.09-1.373-.385-.519-.651-1.037-.8-1.037z" fill="#fff"/><path d="M17.269 12.486s-.976-.145-1.538.398c-.563.543-1.05 1.737-1.013 2.1.037.361 1.163-1.231 1.65-1.34.488-.108 1.013-.905.9-1.158z" fill="#608ab5"/></svg>