<svg xmlns="http://www.w3.org/2000/svg" height="32" width="32" version="1"><rect width="28.203" height="28.203" x="1.898" y="1.898" ry="5.575" fill="#3f5979" fill-rule="evenodd"/><g fill-rule="evenodd"><path d="M17.144 14.874c0 .841.022 1.54-.384 2.286-.327.605-.846.978-1.425.978-.791 0-1.25-.63-1.25-1.56 0-1.836 1.572-2.17 3.06-2.17v.466m2.077 5.25a.414.414 0 0 1-.486.053c-.682-.594-.805-.87-1.182-1.437-1.13 1.206-1.928 1.567-3.395 1.567-1.733 0-3.083-1.117-3.083-3.356 0-1.747.906-2.94 2.194-3.522 1.116-.514 2.679-.605 3.873-.747v-.28c0-.511.039-1.117-.247-1.56-.253-.396-.733-.56-1.157-.56-.786 0-1.485.422-1.656 1.295-.036.194-.17.384-.358.394l-1.997-.223c-.168-.041-.354-.183-.308-.452.461-2.529 2.65-3.294 4.605-3.294 1.003 0 2.313.28 3.102 1.072 1.003.979.907 2.284.907 3.705v3.356c0 1.01.398 1.451.776 1.997.132.193.161.428-.005.573a98.89 98.89 0 0 0-1.579 1.43l-.007-.008" fill="#fff"/><path d="M22.825 20.304c-.56.008-1.22.137-1.72.497-.157.111-.13.265.042.243.563-.07 1.82-.224 2.044.07.226.293-.25 1.505-.46 2.046-.064.163.073.23.217.105.942-.805 1.183-2.492.99-2.735-.094-.122-.553-.234-1.113-.226zm-14.709.324c-.116.016-.168.16-.045.274a11.556 11.556 0 0 0 7.913 3.096c2.187 0 4.724-.707 6.477-2.03l.001-.002c.291-.221.043-.548-.255-.42a15.377 15.377 0 0 1-6.038 1.267c-2.878 0-5.666-.808-7.918-2.152a.209.209 0 0 0-.135-.032z" fill="#f90"/></g></svg>