<svg xmlns="http://www.w3.org/2000/svg" height="32" width="32" version="1"><path d="M7.473 1.898a5.561 5.561 0 0 0-5.575 5.575v17.054a5.561 5.561 0 0 0 5.575 5.575h17.054a5.561 5.561 0 0 0 5.575-5.575V7.473a5.561 5.561 0 0 0-5.575-5.575z" fill="#4094b5" fill-rule="evenodd"/><g fill-rule="evenodd"><path d="M19.744 18.825c-.295.07-.556.266-.704.57a1.05 1.05 0 0 0-.05.823c.093.256.288.476.569.61.32.152.671.117.955-.05.283-.167.497-.466.547-.837.037-.276-.178-.769-.405-.928a1.13 1.13 0 0 0-.912-.188z" fill="#525e9d"/><path d="M18.221 5.472c-.116.14-.28.283-.387.423-.49.643-.882 1.279-1.203 1.909-.483.949-.8 1.882-1.033 2.798-1.524.004-2.978.028-3.25.077-.927.164-1.649.364-2.258.641a5.3 5.3 0 0 0-1.586 1.108c-.48.478-.59.623-.814 1.077-.272.552-.296.64-1.276 4.64-.33 1.392-.436 2.218-.436 3.499 0 1.744 1.117 3.104 2.677 3.634.236-.193.573-.605 1.31-1.457l1.4-1.62.512.023c.615.027 1.15-.115 1.58-.407.429-.293.75-.735.938-1.309l.122-.373h2.901l.034.18c.053.283.332.819.564 1.086.289.332.775.635 1.207.752.347.094.882.093 1.44-.002.16-.028.21.027 1.463 1.6l1.214 1.525c1.56-.529 2.662-1.945 2.662-3.689.132-1.724-.407-3.433-.753-4.905-.464-1.974-.627-2.577-.79-2.928a4.615 4.615 0 0 0-.747-1.132 5.076 5.076 0 0 0-1.069-.898c-.815-.518-1.833-.87-3.034-1.047-.302-.044-1.598-.066-2.983-.072.208-.783.476-1.564.878-2.355.295-.579.657-1.162 1.114-1.756.256-.334.62-.68.94-1.022z" fill="#f2f2f2"/><path d="M19.744 18.825a1.13 1.13 0 0 1 .912.188c.227.16.442.652.405.928-.05.37-.264.67-.547.837a1.01 1.01 0 0 1-.955.05 1.088 1.088 0 0 1-.569-.61 1.05 1.05 0 0 1 .05-.822c.148-.305.409-.501.704-.571zM12.392 18.81a1.053 1.053 0 0 0-.927.296 1.061 1.061 0 0 0 .284 1.705 1.04 1.04 0 0 0 1.214-.198 1.048 1.048 0 0 0 .207-1.217 1.055 1.055 0 0 0-.778-.587zM15.388 18.057v.773h1.436v-.773h-.718z" fill="#999"/><path d="M20.234 15.643a.658.658 0 0 0-.556.479.69.69 0 0 0 .215.715c.193.17.442.213.658.152a.664.664 0 0 0 .469-.465.696.696 0 0 0-.138-.662.722.722 0 0 0-.648-.219z" fill="#525e9d"/><path d="M20.234 15.643a.722.722 0 0 1 .648.22.696.696 0 0 1 .138.66.664.664 0 0 1-.469.466.706.706 0 0 1-.658-.152.69.69 0 0 1-.215-.715.658.658 0 0 1 .556-.479z" fill="#999"/><path d="M19.24 14.292c-.29-.148-.552-.1-.797.145-.159.159-.183.22-.183.458 0 .316.137.534.41.653.23.1.29.096.561-.035a.676.676 0 0 0 .401-.606.685.685 0 0 0-.392-.615z" fill="#525e9d"/><path d="M19.24 14.292a.685.685 0 0 1 .392.615.676.676 0 0 1-.4.606c-.271.131-.331.135-.562.035-.273-.12-.41-.337-.41-.653 0-.237.024-.3.183-.458.245-.245.507-.293.797-.145z" fill="#999"/><path d="M22.034 14.264c-.276-.115-.546-.054-.773.173-.159.159-.183.22-.183.458 0 .316.136.534.409.653.22.096.326.095.558-.002a.671.671 0 0 0 .404-.64.688.688 0 0 0-.415-.642z" fill="#e6e6e6"/><path d="M22.034 14.264a.688.688 0 0 1 .415.642.67.67 0 0 1-.404.64c-.232.097-.337.098-.558.002-.273-.12-.41-.337-.41-.653 0-.237.025-.299.184-.458.227-.227.497-.288.773-.173z" fill="#ffca58"/><path d="M11.133 13.14v1.38H9.751v1.438h1.382v1.436h1.436v-1.436h1.44l-.016-.706-.015-.704-.704-.015-.705-.015V13.14h-.718z" fill="gray"/><path d="M20.752 12.935c-.288-.194-.619-.175-.866.052a.69.69 0 0 0-.235.576c.02.202.135.394.339.518.19.116.4.135.583.072a.688.688 0 0 0 .418-.416c.122-.32.033-.62-.239-.802z" fill="#ee5353"/></g></svg>