<svg xmlns="http://www.w3.org/2000/svg" height="32" width="32" version="1"><rect width="28.203" height="28.203" x="1.898" y="1.898" ry="5.575" fill="#2aa2ee" fill-rule="evenodd"/><path d="M14.171 25.739c-2.185-.224-3.707-.849-4.831-1.985a5.215 5.215 0 0 1-1.02-1.394c-.543-1.085-.713-2.306-.447-3.21.264-.898.865-1.888 1.711-2.82.47-.516.708-.852.925-1.274.262-.508.29-.848.269-1.32-.022-.459-.12-.656-.371-.864-.238-.198-.337-.307-1.073-.271-.72.034-1.072-.01-1.416-.176-.266-.129-.36-.274-.278-.43.428-.333.578-.699 1.049-.87-.69-.587-1.37-1.201-1.393-2.079.049-.47.484-.357.484-.357.682.138 1.387.277 2.029.299.185-.025.38-.075.433-.11.053-.035.198-.243.322-.463.485-.855.997-1.407 1.572-1.692.662-.328 1.598-.503 2.487-.466 1.069.045 1.976.415 2.718 1.106.509.476.846.595 1.33.47.342-.088.35-.088.35.02 0 .14-.113.322-.285.46l-.158.129.16.095c.22.13.194.236-.068.273-.219.032-.382.104-.382.17 0 .022.031.222.07.443.093.541.06 1.59-.068 2.108-.198.803-.498 1.368-1.01 1.905-.398.362-1.523 1.105-1.628 1.171.05 0 .48-.025.769 0 1.056.094 1.791.272 2.852.766 1.002.467 1.428.518 1.982.235.354-.18.86-.566 1.239-1.076.323-.436.516-.62.817-.62.295 0 .506.193.73.534.315.481.487.826.61 1.665.087.6.063 2.008-.046 2.606-.648 3.574-2.93 5.98-6.411 6.764-.94.211-1.319.25-2.621.263-.676.007-1.306.005-1.401-.005z" fill="#fff"/></svg>