<svg xmlns="http://www.w3.org/2000/svg" height="32" width="32" version="1"><rect width="28.203" height="28.203" x="1.898" y="1.898" ry="5.575" fill="#93b133" fill-rule="evenodd"/><path d="M9.246 14.767c-.59 0-1.066.407-1.066.914v4.57c0 .506.476.914 1.066.914.591 0 1.067-.408 1.067-.915v-4.57c0-.506-.476-.913-1.067-.913zM13.222 6.574a.474.474 0 0 0-.523.592l.599 2.235c-2.982 1.432-2.985 5.13-2.985 5.13v6.033c0 1.12.846 2.023 1.896 2.023h.948v1.896c0 .524.423.947.948.947a.946.946 0 0 0 .948-.947v-1.896h1.896v1.896c-.001.524.422.947.947.947a.946.946 0 0 0 .948-.947v-1.896h.948c1.05 0 1.896-.902 1.896-2.023V14.53s-.003-3.697-2.986-5.129l.599-2.235a.473.473 0 1 0-.916-.245l-.575 2.15A6.848 6.848 0 0 0 16 8.842c-.682 0-1.28.083-1.81.227l-.575-2.149a.474.474 0 0 0-.393-.347z" fill="#fff"/><path d="M22.754 14.767c-.591 0-1.067.407-1.067.914v4.57c0 .506.476.914 1.067.914.59 0 1.066-.408 1.066-.915v-4.57c0-.506-.476-.913-1.066-.913z" fill="#fff"/><g transform="matrix(.7109 0 0 .7109 4.626 4.103)" fill="#93b133"><path d="M10.3 14h11.4c.166 0 .3.223.3.5s-.134.5-.3.5H10.3c-.166 0-.3-.223-.3-.5s.134-.5.3-.5z"/><circle r="1" cx="12" cy="11"/><circle r="1" cx="20" cy="11"/></g></svg>