<svg xmlns="http://www.w3.org/2000/svg" height="32" width="32" version="1"><rect width="28.203" height="28.203" x="1.898" y="1.898" ry="5.575" fill="#32867d" fill-rule="evenodd"/><g fill="#7dff7c"><path d="M9.544 13.549c-.575 0-1.044.53-1.044 1.183v4.63c0 .653.469 1.186 1.044 1.186.575 0 .956-.533.956-1.186v-4.63c0-.654-.38-1.184-.956-1.184M11.5 13.549v8.5c0 .235.264.5.5.5h1.5v1.875c0 .622.396 1.125 1 1.125.6 0 1.02-.504 1-1.125v-1.875h1v1.875c0 .622.396 1.125 1 1.125.6 0 1-.512 1-1.125V22.55H20c.236 0 .5-.264.5-.5v-8.5zM22.544 13.549c-.575 0-1.044.53-1.044 1.183v4.63c0 .653.469 1.186 1.044 1.186.575 0 .956-.533.956-1.186v-4.63c0-.654-.38-1.184-.956-1.184M13.365 6.451l-.865.5 1.197 2.074C11.509 10.082 11.5 12.55 11.5 12.55h9s-.01-2.467-2.197-3.524L19.5 6.951l-.865-.5-1.295 2.242a6.059 6.059 0 0 0-1.338-.144c-.504 0-.944.055-1.342.144l-1.295-2.242zm.637 4.098c.277 0 .498.223.498.498a.502.502 0 0 1-.498.502.5.5 0 1 1 0-1zm4 0c.277 0 .498.223.498.498a.502.502 0 0 1-.498.502.5.5 0 1 1 0-1z"/></g></svg>