<svg xmlns="http://www.w3.org/2000/svg" height="32" width="32" version="1"><rect width="28.203" height="28.203" x="1.898" y="1.898" ry="5.575" fill="#865e90" fill-rule="evenodd"/><path d="M9.001 14.496c-.456-.136-2.001 1-2.001 1 .82-3.035 6.003-5.998 6.003-5.998-.5-.184-3.002 0-3.002 0C13.692 5.912 19.006 7.5 19.006 7.5c.136-.783 2.001-1.999 2.001-1.999-.228.229 0 1.5 0 1.5.228-.415 1-.5 1-.5-.41.965-.383 2.909-.383 2.909 1.184 1.197 2.505 5.339 2.505 5.339l.503.736c.637.92.378 2.366-.254 2.709-1.771 1.059-2.572-1.052-2.572-1.052-1.96-.23-3.8-2.645-3.8-2.645-2.49 1.406.326 5.864 1.467 7.36 1.465 1.916-.467 4.636-.467 4.636s-5.002.352-8.75-3.498C8.41 21.017 7 18.81 9 14.495z" fill="#a1a1d7"/></svg>