<svg xmlns="http://www.w3.org/2000/svg" height="32" width="32" version="1"><rect width="28.203" height="28.203" x="1.898" y="1.898" ry="5.575" fill="#ccc" fill-rule="evenodd"/><path d="M14.179 7.21a1.868 1.82 0 0 0-1.37 1.406l-.794 3.882-3.733 1.564a1.868 1.82 0 0 0-.175 3.257l3.544 1.935.373 3.94a1.868 1.82 0 0 0 3.127 1.17l2.986-2.685 3.964.872a1.868 1.82 0 0 0 2.107-2.536l-1.7-3.594 2.078-3.402a1.868 1.82 0 0 0-1.824-2.736l-4.038.464-2.68-2.976a1.868 1.82 0 0 0-1.865-.561z" fill="#1e9ce0"/></svg>