<svg xmlns="http://www.w3.org/2000/svg" height="32" width="32" version="1"><path d="M30 6.969c-.054-.579-.12-1.157-.336-1.67A5.563 5.563 0 0 0 26.7 2.334c-.511-.216-1.089-.28-1.666-.334H16v14h14z" fill="#2086e7"/><path d="M6.965 2c-.577.054-1.155.118-1.666.334a5.563 5.563 0 0 0-2.965 2.965c-.216.511-.28 1.089-.334 1.666V16h14V2zM25.035 30c.577-.054 1.155-.118 1.666-.334a5.563 5.563 0 0 0 2.965-2.965c.216-.511.28-1.089.334-1.666V16H16v14z" fill="#14ddb1"/><path d="M2 25.031c.054.579.12 1.157.336 1.67A5.563 5.563 0 0 0 5.3 29.666c.511.216 1.089.28 1.666.334H16V16H2z" fill="#2086e7"/><rect width="21.424" height="21.424" x="5.288" y="5.288" ry="4.235" fill="#3f3f3f" fill-rule="evenodd"/><g fill="none" stroke="#fff" stroke-width="2" stroke-linecap="round"><path d="M21.294 16s0 .881-1.762.881c-1.763 0-1.763-1.763-1.763-3.525 0-1.763 0-3.526 1.763-3.526 1.762 0 1.762.882 1.762.882M10.718 14.237h3.526m-3.526 2.644v-5.288m3.526 5.288v-5.288m-3.526 0s0-1.763 1.763-1.763 1.763 1.763 1.763 1.763" stroke-linejoin="bevel" stroke-width="1.76272"/><path d="M10.718 22.17h7.05" stroke-width="1.76272"/></g></svg>