<svg xmlns="http://www.w3.org/2000/svg" height="32" width="32" version="1"><rect width="28.203" height="28.203" x="1.898" y="1.898" ry="5.575" fill="#1da6e8" fill-rule="evenodd"/><circle cx="22.237" cy="22.102" r="5" fill="#cc5e55" fill-rule="evenodd"/><path d="M21.612 19.602l-.055.658a1.964 1.964 0 0 0-.574.332l-.598-.282-.625 1.083.543.377a1.964 1.964 0 0 0-.03.332 1.964 1.964 0 0 0 .029.332l-.542.376.625 1.083.597-.281a1.964 1.964 0 0 0 .575.33l.055.66h1.25l.055-.659a1.964 1.964 0 0 0 .574-.332l.599.282.625-1.083-.543-.377a1.964 1.964 0 0 0 .03-.331 1.964 1.964 0 0 0-.029-.333l.542-.376-.625-1.083-.597.282a1.964 1.964 0 0 0-.575-.33l-.055-.66h-1.25zm.625 1.785a.714.714 0 0 1 .715.715.714.714 0 0 1-.715.714.714.714 0 0 1-.714-.714.714.714 0 0 1 .714-.714z" fill="#fff"/><path d="M8.194 17.289c.385.267.74.592 1.067.977l-.578.71a6.563 6.563 0 0 0-1.111-1.11l.622-.577m0 2.799c.355.267.696.563 1.022.889l-.578.755a6.026 6.026 0 0 0-1.067-1.067l.623-.577m.177 3.066l.711.489a14.775 14.775 0 0 1-1.555 3.51l-.755-.578a15.595 15.595 0 0 0 1.6-3.422m2.088-6.22l.844.178c-.06.296-.148.577-.267.844h3.466v.8h-3.821l-.4.666c-.119.237-.311.489-.578.756l-.533-.623c.563-.681.993-1.555 1.29-2.622m-.223 2.755h4.088c0 .919-.015 1.778-.045 2.578h.578v.8h-.622c-.06.622-.104 1.229-.133 1.821h.666v.756h-.755c-.119 1.036-.534 1.555-1.245 1.555-.178 0-.43-.03-.755-.089l-.134-.755c.385.06.682.089.889.089.207 0 .34-.267.4-.8H9.704c.119-.8.222-1.659.311-2.577h-.622v-.8h.71a68 68 0 0 0 .134-2.577m.667 2.577h2.533c.03-.622.044-1.23.044-1.822h-2.444c-.03.652-.074 1.26-.133 1.822m1.112-1.6a5.2 5.2 0 0 1 .889.712l-.533.666a5.653 5.653 0 0 0-.887-.8l.533-.577m1.244 4.221c.06-.622.104-1.23.133-1.822h-2.532c-.06.652-.134 1.26-.223 1.822h2.622m-1.377-1.6a5.9 5.9 0 0 1 .977.711l-.577.667a6.167 6.167 0 0 0-.934-.844l.534-.534M7.219 18v6.976h-.8v-.755h-.755v1.155h-.8V18h2.355m-1.555 5.465h.755v-4.71h-.755v4.71" fill="#1475a3"/><path d="M21.388 10.817l.252-.945c.283-1.023.55-2.22.803-3.306h.063c.267 1.07.55 2.283.834 3.306l.236.945h-2.188m3.292 4.25h2.456L23.924 4.803h-2.786l-3.212 10.264h2.362l.63-2.44h3.132l.63 2.44" fill="#fff"/></svg>