<svg xmlns="http://www.w3.org/2000/svg" height="32" width="32" version="1"><rect width="28.203" height="28.203" x="1.898" y="1.898" ry="5.575" fill="#56a157" fill-rule="evenodd"/><path d="M9.742 9.214l-.13.071a.84.84 0 0 0-.376.428c-.048.127-.052.647-.045 6.347l.01 6.209.068.127c.09.167.216.284.392.364.143.065.162.063 6.369.056l6.224-.006.131-.071a.84.84 0 0 0 .376-.428c.048-.127.052-.647.044-6.347-.008-5.988-.012-6.213-.07-6.32a.87.87 0 0 0-.354-.36l-.127-.07h-6.257zm2.148 4.939c.415 0 .488.008.717.085.418.14.699.37.874.718.073.144.16.496.16.65v.088H12.538l-.039-.167c-.079-.352-.26-.501-.609-.501-.225 0-.363.05-.483.179-.145.154-.185.323-.185.788 0 .452.024.59.135.753.123.181.225.234.472.248.411.024.631-.128.707-.487l.036-.181.522.008c.43.006.525.016.54.056.01.026 0 .147-.02.27-.099.577-.417.945-.97 1.122-.21.068-.335.084-.657.093-.218.005-.44.002-.494-.006h-.001c-1.026-.165-1.524-.836-1.47-1.984.027-.587.162-.959.452-1.254.343-.348.732-.479 1.416-.478zm2.356.044h1.112c1.038 0 1.125.005 1.327.068.183.056.247.096.412.262.264.264.344.465.347.88.005.48-.147.81-.47 1.033-.261.18-.402.21-1.013.21h-.536v1.177H14.246v-1.815zm6.24 0H21.665v1.204c0 1.28-.011 1.402-.164 1.719-.147.305-.51.572-.936.69-.219.06-.94.09-1.166.05-.814-.15-1.239-.557-1.33-1.276-.022-.161-.031-.693-.026-1.32l.008-1.051H19.23l.015 1.21c.016 1.209.016 1.21.093 1.333.097.157.277.241.518.242.298.001.459-.092.57-.333.054-.116.06-.229.06-1.298zm-5.06.86v.732h.319c.312 0 .324-.002.414-.093.079-.079.095-.118.095-.256a.656.656 0 0 0-.035-.23c-.056-.104-.226-.153-.522-.153z" fill="#f9f9f9"/><g transform="matrix(.9197 0 0 .9197 1.286 1.45)" fill="#b3eb88"><rect ry=".369" y="9.928" x="3.964" height="1.743" width="3.359"/><rect ry=".369" y="13.402" x="3.964" height="1.743" width="3.359"/><rect ry=".369" y="16.876" x="3.964" height="1.743" width="3.359"/><rect ry=".369" y="20.35" x="3.964" height="1.743" width="3.359"/></g><g transform="matrix(.9197 0 0 .9197 20.361 1.45)" fill="#b3eb88"><rect ry=".369" y="9.928" x="3.964" height="1.743" width="3.359"/><rect ry=".369" y="13.402" x="3.964" height="1.743" width="3.359"/><rect ry=".369" y="16.876" x="3.964" height="1.743" width="3.359"/><rect ry=".369" y="20.35" x="3.964" height="1.743" width="3.359"/></g><g transform="rotate(90 14.8 16.107) scale(.91971)" fill="#b3eb88"><rect ry=".369" y="9.928" x="3.964" height="1.743" width="3.359"/><rect ry=".369" y="13.402" x="3.964" height="1.743" width="3.359"/><rect ry=".369" y="16.876" x="3.964" height="1.743" width="3.359"/><rect ry=".369" y="20.35" x="3.964" height="1.743" width="3.359"/></g><g transform="rotate(90 5.207 25.7) scale(.91971)" fill="#b3eb88"><rect ry=".369" y="9.928" x="3.964" height="1.743" width="3.359"/><rect ry=".369" y="13.402" x="3.964" height="1.743" width="3.359"/><rect ry=".369" y="16.876" x="3.964" height="1.743" width="3.359"/><rect ry=".369" y="20.35" x="3.964" height="1.743" width="3.359"/></g></svg>