<svg xmlns="http://www.w3.org/2000/svg" height="32" width="32" version="1"><path d="M7.475 1.898a5.563 5.563 0 0 0-5.577 5.575v5.38c.115-.264.053-.274.204-.548.389-.71.904-1.421 1.576-1.953a3.942 3.942 0 0 1 2.512-.887 2.63 2.63 0 0 1 1.63.537c.456.343.832.832 1.155 1.42.646 1.175 1.082 2.743 1.525 4.312.443 1.57.894 3.14 1.57 4.323.339.59.735 1.086 1.213 1.433a2.88 2.88 0 0 0 1.713.555c.837.008 1.635-.25 2.416-.64.782-.392 1.547-.918 2.315-1.444.767-.526 1.537-1.054 2.332-1.45.794-.395 1.613-.66 2.476-.66 1.727 0 3.196.416 4.233.83.842.338 1.155.562 1.334.676V7.473a5.561 5.561 0 0 0-5.575-5.575z" fill="#4f4f4f" fill-rule="evenodd"/><path fill-opacity=".253" d="M1.899 18.76h28.203v2H1.899zM1.899 6.176h28.203v2H1.899zM1.899 14.176h28.203v2H1.899zM1.899 10.176h28.203v2H1.899z"/><path d="M30.102 19.357c-.18-.114-.492-.338-1.334-.675a11.459 11.459 0 0 0-4.233-.83c-.863 0-1.682.264-2.476.66-.795.395-1.565.923-2.332 1.449-.768.526-1.533 1.052-2.315 1.443-.781.392-1.58.649-2.416.64a2.88 2.88 0 0 1-1.713-.554c-.478-.347-.874-.842-1.213-1.433-.676-1.182-1.127-2.753-1.57-4.323-.443-1.569-.88-3.137-1.525-4.312-.323-.588-.7-1.077-1.155-1.42a2.63 2.63 0 0 0-1.63-.537 3.942 3.942 0 0 0-2.512.887c-.672.532-1.187 1.243-1.576 1.953-.15.274-.09.284-.204.549v11.671a5.565 5.565 0 0 0 5.577 5.577h17.052a5.563 5.563 0 0 0 5.575-5.577z" fill="#47da72" fill-rule="evenodd"/><path d="M6.834 5.472c4.936 0 3.29 11.95 8.462 12 3.216.031 5.847-4 9.165-4 3.318 0 5.64 1.584 5.64 1.584v1s-2.322-1.584-5.64-1.584c-3.318 0-5.95 4.031-9.165 4-5.172-.05-3.526-12-8.462-12-3.892 0-4.935 5.416-4.935 5.416v-1s1.043-5.416 4.935-5.416z" fill="gray"/></svg>