<svg xmlns="http://www.w3.org/2000/svg" height="32" width="32" version="1"><g transform="translate(59.254 18.847)"><rect ry="5.575" y="-16.949" x="-57.356" height="28.203" width="28.203" fill="#5b5b5b" fill-rule="evenodd"/><path d="M-51.985-16.908c-2.988.112-5.37 2.517-5.37 5.533V5.68a5.561 5.561 0 0 0 5.573 5.574h17.053a5.563 5.563 0 0 0 5.576-5.574v-17.055a5.563 5.563 0 0 0-5.576-5.574h-13.256v1.562a.996.996 0 0 1-.293.708.996.996 0 0 1-.707.292h-2a1 1 0 0 1-1-1z" fill="#8e8e8e" fill-rule="evenodd"/><path d="M-51.985-16.908v1.521a.994.994 0 0 0 1 1h2a.996.996 0 0 0 .707-.292c.181-.181.293-.43.293-.708v-1.562h-3.797c-.072 0-.131.038-.203.041z" fill="#4d4d4d" fill-rule="evenodd"/><circle r="1" cy="-11.55" cx="-33.393" fill="#4d4d4d"/><circle r="8" cy="-2.847" cx="-43.254" fill="#4d4d4d"/><circle transform="scale(1 -1)" r="6" cy="2.847" cx="-43.254" fill="#009587"/><circle r="4" cy="-2.847" cx="-43.254" fill="#66bfb7"/></g></svg>