<svg xmlns="http://www.w3.org/2000/svg" width="32" height="32" version="1"><rect width="28.203" height="28.203" x="1.898" y="1.898" ry="5.575" fill="#3ea3c0" fill-rule="evenodd"/><path d="M14.106 6.746a.476.476 0 0 0-.405.376l-.39 1.981c-.702.274-1.36.65-1.938 1.113l-1.923-.65a.478.478 0 0 0-.55.202l-1.85 3.21a.478.478 0 0 0 .1.579L8.684 14.9a7.38 7.38 0 0 0-.086 1.1c0 .375.032.738.086 1.098l-1.532 1.345a.478.478 0 0 0-.102.578l1.851 3.21c.108.183.35.272.55.203l1.923-.65a7.45 7.45 0 0 0 1.938 1.113l.39 1.98c.04.208.237.374.448.377h3.702a.477.477 0 0 0 .448-.376l.39-1.981c.701-.274 1.36-.651 1.938-1.114l1.923.65c.2.07.442-.02.55-.202l1.85-3.21a.478.478 0 0 0-.1-.578l-1.533-1.345A7.38 7.38 0 0 0 23.403 16c0-.375-.032-.738-.086-1.099l1.532-1.344a.478.478 0 0 0 .102-.579L23.1 9.768a.478.478 0 0 0-.55-.202l-1.923.65a7.45 7.45 0 0 0-1.937-1.113l-.39-1.981a.478.478 0 0 0-.449-.376h-3.702a.93.93 0 0 0-.043 0z" fill="#fff"/><path d="M15.122 11.373c-.262 0-.444.21-.444.472v5.477h-1.983L16 21.288l3.305-3.966h-1.983v-5.477c0-.262-.182-.472-.444-.472z" fill="#3ea3c0"/></svg>