<svg xmlns="http://www.w3.org/2000/svg" height="32" width="32" version="1"><rect width="28.203" height="28.203" x="1.898" y="1.898" ry="5.575" fill="#c2352a" fill-rule="evenodd"/><path d="M19.497 7.424c-1.434 0-2.724.73-3.628 1.837-.904-1.108-2.195-1.837-3.628-1.837-2.733 0-4.949 2.52-4.949 5.631 0 .836.13 1.64.357 2.408 0 0 .206.693.389 1.074 2.086 4.877 7.83 8.04 7.83 8.04s5.746-3.163 7.831-8.04c2.086-4.877.27-.65.389-1.074a8.857 8.857 0 0 0 .357-2.408c0-3.11-2.216-5.631-4.949-5.631z" fill="#fff"/></svg>