<svg xmlns="http://www.w3.org/2000/svg" height="32" width="32" version="1"><rect width="28.203" height="28.203" x="1.898" y="1.898" ry="5.575" fill="#0286c2" fill-rule="evenodd"/><path d="M14.047 6.458v.002a.488.488 0 0 0-.416.387l-.405 2.043a7.67 7.67 0 0 0-1.996 1.148l-1.984-.672a.492.492 0 0 0-.567.21l-1.908 3.31a.492.492 0 0 0 .106.596l1.58 1.386c-.056.372-.09.746-.09 1.133s.034.761.09 1.133l-1.58 1.387a.492.492 0 0 0-.106.595l1.908 3.31c.111.189.36.28.567.21l1.984-.672a7.684 7.684 0 0 0 1.998 1.148l.403 2.043a.49.49 0 0 0 .46.387h3.817a.492.492 0 0 0 .463-.387l.402-2.043a7.682 7.682 0 0 0 1.998-1.148l1.983.672a.492.492 0 0 0 .566-.21l1.908-3.31a.491.491 0 0 0-.103-.595l-1.58-1.387c.055-.372.09-.746.09-1.133s-.035-.76-.09-1.133l1.58-1.386a.491.491 0 0 0 .103-.596l-1.908-3.31a.492.492 0 0 0-.566-.21l-1.983.672a7.684 7.684 0 0 0-1.998-1.148l-.402-2.043a.494.494 0 0 0-.463-.389H14.047zM16 11.911a4.09 4.09 0 0 1 0 8.18 4.089 4.089 0 0 1-4.088-4.09c0-2.258 1.83-4.09 4.088-4.09z" fill="#fff"/></svg>