<svg xmlns="http://www.w3.org/2000/svg" height="32" width="32"><rect width="28.203" height="28.203" x="1.898" y="1.898" ry="5.575" fill="#6de588" fill-rule="evenodd"/><g transform="translate(49.492 1.856)"><path d="M-42.881 5.53v16.247c0 1.477 1.477 1.477 1.477 1.477h19.2zm3.692 8.029l7.003 6.003h-7.003z" fill="#009688"/><path d="M-33.978 12.177c.387.014.74.23.928.569l5.539 9.97.138 2.754-2.077-1.677-4.57-8.226v-3.386c.015 0 .028-.004.042-.004z" fill="#a2a2a2" fill-rule="evenodd"/><path d="M-34.06 12.177c-.388.014-.74.23-.929.569l-5.538 9.97-.139 2.754 2.077-1.677.78-1.4a8.862 8.862 0 0 0 3.79.861 8.862 8.862 0 0 0 8.862-8.862h-2.216a6.646 6.646 0 0 1-6.646 6.647 6.646 6.646 0 0 1-2.711-.59l2.71-4.882v-3.386c-.013 0-.026-.004-.04-.004z" fill="#ccc"/><path d="M-35.496 7.746V9.96h-.739c-1.477 0-1.477 1.477-1.477 1.477v3.693l2.585 2.584c.664.517 1.766.559 2.337-.121l2.463-2.463v-3.693s0-1.477-1.477-1.477h-.738V7.746z" fill="#4f4f4f"/><circle cx="-34.019" cy="12.915" r="1.477" fill="#fff"/></g></svg>