<svg xmlns="http://www.w3.org/2000/svg" height="32" width="32" version="1"><g fill-rule="evenodd"><path d="M1.957 7.187c-.005.101-.059.186-.059.288v17.052a5.563 5.563 0 0 0 5.577 5.575h17.052a5.561 5.561 0 0 0 5.575-5.575V7.475c0-.102-.052-.187-.057-.288z" fill="#c7c7c7"/><path d="M1.957 7.187h28.088c-.157-2.946-2.53-5.289-5.518-5.289H7.475c-2.987 0-5.361 2.343-5.518 5.29z" fill="#5294e2"/></g><g transform="translate(53.405 5.616)"><rect ry="1.244" rx="1.047" y="15.877" x="-48.405" height="3" width="22" fill="#fff"/><path d="M-29.405 17.377c0 1.932-1.568 3.5-3.5 3.5a3.501 3.501 0 0 1-3.5-3.5c0-1.932 1.568-3.5 3.5-3.5s3.5 1.568 3.5 3.5z" fill="#5294e2" fill-rule="evenodd"/><circle r="1.5" cy="6.377" cx="-46.905" fill="#fffff7"/><rect width="3" height="3" x="-42.405" y="9.877" rx=".472" ry=".516" fill="#5294e2"/><circle cx="-46.905" cy="11.377" r="1.5" fill="#5294e2"/><rect ry=".516" rx=".472" y="4.877" x="-42.405" height="3" width="3" fill="#fff"/></g></svg>