<svg xmlns="http://www.w3.org/2000/svg" height="32" width="32" version="1"><rect width="28.203" height="28.203" x="1.898" y="1.898" ry="5.575" fill="#48cac2" fill-rule="evenodd"/><path d="M15.396 5.5a2 2 0 0 0-1.938 1.511c-.999.55-1.839 1.499-2.472 2.64-.437.785-.787 1.684-1.051 2.66-.873.506-1.651 1.078-2.297 1.702-1.494 1.446-2.386 3.271-1.902 5.075.483 1.803 2.168 2.94 4.185 3.445.237.06.482.109.73.152.107.228.216.452.335.664 1.01 1.818 2.544 3.151 4.41 3.151 1.868 0 3.401-1.333 4.41-3.15.437-.786.788-1.685 1.052-2.66.872-.507 1.65-1.079 2.296-1.703.477-.461.883-.964 1.211-1.489a2 2 0 0 0 .031.002 2 2 0 0 0 2-2 2 2 0 0 0-1.463-1.924c-.595-1.605-2.177-2.637-4.062-3.109-.237-.06-.482-.109-.73-.153a10.55 10.55 0 0 0-.335-.664c-.633-1.14-1.474-2.089-2.472-2.638A2 2 0 0 0 15.396 5.5zM14.07 8.994a2 2 0 0 0 1.326.506 2 2 0 0 0 1.316-.498c.362.27.72.636 1.053 1.138-1.25.021-2.574.203-3.922.565a17.34 17.34 0 0 0-1.342.424c.078-.167.147-.355.232-.508.412-.742.868-1.277 1.336-1.627zm3.55 3.15c.382-.012.737.011 1.092.033a13.71 13.71 0 0 1 .683 4.323c0 1.008-.116 1.957-.295 2.844-.81.402-1.697.76-2.67 1.02-1.547.414-3.04.54-4.351.459a13.669 13.669 0 0 1-.684-4.322c0-1.008.117-1.957.295-2.844a14.394 14.394 0 0 1 5.93-1.512zm3.305.422c1.074.36 1.74.909 2.047 1.531a2 2 0 0 0-.577 1.403 2 2 0 0 0 .256.977c-.224.35-.512.71-.889 1.074-.125.121-.289.236-.429.355.037-.461.062-.927.062-1.406 0-1.396-.167-2.722-.47-3.934zm-5.53.934a3 3 0 0 0-3 3 3 3 0 0 0 3 3 3 3 0 0 0 3-3 3 3 0 0 0-3-3zm-5.937 1.594c-.037.46-.062.927-.062 1.406 0 1.396.167 2.722.47 3.933-1.263-.425-1.993-1.103-2.197-1.864-.231-.864.176-1.975 1.36-3.12.125-.122.288-.237.429-.356zm8.832 6.777c-.079.167-.148.355-.233.508-.8 1.44-1.768 2.121-2.662 2.121-.787 0-1.632-.53-2.369-1.64a16.245 16.245 0 0 0 3.922-.565 17.34 17.34 0 0 0 1.342-.424z" fill="#fff"/><path d="M15.396 5.5a2 2 0 0 0-2 2 2 2 0 0 0 2 2 2 2 0 0 0 2-2 2 2 0 0 0-2-2zm0 8a3 3 0 0 0-3 3 3 3 0 0 0 3 3 3 3 0 0 0 3-3 3 3 0 0 0-3-3zm9 0a2 2 0 0 0-2 2 2 2 0 0 0 2 2 2 2 0 0 0 2-2 2 2 0 0 0-2-2z" fill="#4c4c4c"/></svg>