<svg xmlns="http://www.w3.org/2000/svg" width="32" height="32"><rect width="28.203" height="28.203" x="1.898" y="1.898" ry="5.575" fill="#e6e6e6" fill-rule="evenodd"/><path d="M15.985 5.555c-2.003 0-3.73 1.864-3.73 4.178 0 5.222-2.985 5.745-2.985 9.4 0 4.038 3.006 7.312 6.715 7.312 3.708 0 6.714-3.274 6.714-7.312 0-3.655-2.984-4.178-2.984-9.4 0-2.314-1.727-4.178-3.73-4.178z" fill="#5095ab"/><path d="M15.985 11.524c-1.336 0-2.238 1.13-2.238 2.536 0 3.17-2.239 3.488-2.239 5.707 0 2.452 2.004 4.44 4.477 4.44 2.472 0 4.476-1.988 4.476-4.44 0-2.22-2.238-2.536-2.238-5.707 0-1.405-.903-2.536-2.238-2.536z" fill="#fff"/><path d="M12.641 26.43c-.225-.037-.423-.103-.859-.291-.648-.28-.95-.371-2.138-.642a12.453 12.453 0 0 1-1.326-.361 22.46 22.46 0 0 0-.554-.172c-.319-.092-.404-.127-.52-.22a.566.566 0 0 1-.206-.535c.018-.138.067-.27.2-.55.178-.372.62-.506.647-.873.016-.216.003-.459-.052-.964a4.81 4.81 0 0 1-.04-.6c0-.206.002-.063.024-.141.08-.296.14-.467.423-.54.082-.022-.09-.025.295-.033.239-.007.377-.013.408-.02a.8.8 0 0 0 .398-.207c.107-.102.18-.654.32-.903.218-.383.647-.38.997-.394.1.021.133.035.241.097.11.063.141.089.236.19.24.255.354.413.892 1.227.426.645.556.852.728 1.154.187.33.524.86.649 1.02.02.027.15.191.288.365.137.175.263.338.28.363.257.36.438.773.502 1.186.022.144.023.168.01.333-.015.21-.028.299-.05.345a1.55 1.55 0 0 0-.045.11c-.197.55-.689.962-1.258 1.056-.121.02-.361.02-.49 0zM21.365 26.18c.171-.12.309-.255.592-.585.422-.49.41-.687 1.283-1.39.435-.35.593-.489.95-.832.13-.125.305-.29.388-.365.227-.204.282-.267.34-.39a.503.503 0 0 0-.05-.516c-.073-.105-.169-.193-.395-.364-.302-.23-.389-.427-.563-.713-.103-.168.03-.594-.133-1.025a4.298 4.298 0 0 0-.216-.502c-.085-.168-.103-.197-.153-.251-.189-.207-.399-.277-.664-.222-.076.016-.121.035-.443.185-.2.093-.38.173-.409.18a.737.737 0 0 1-.416-.008c-.131-.039-.235.234-.454.09-.15-.098-.311-.22-.426-.253-.16-.044-.16-.044-.309-.027a.685.685 0 0 0-.367.15.593.593 0 0 0-.16.177.715.715 0 0 0-.116.25c-.093.304-.123.478-.23 1.356-.086.696-.109.916-.125 1.231-.019.344-.079.91-.116 1.09l-.087.414c-.042.197-.078.38-.081.407-.065.396-.044.804.074 1.165a.968.968 0 0 0 .13.274c.1.163.148.23.186.258.015.011.052.043.083.071.391.365.97.499 1.481.343.109-.033.308-.131.406-.2z" fill="#eab108"/><circle r="1.492" cx="14.493" cy="9.285" fill="#fff"/><circle r=".746" cy="9.285" cx="14.493" fill="#323232"/><path d="M18.223 11.15c0 1.443-1.002 2.612-2.238 2.612s-2.238-1.17-2.238-2.611z" fill="#f77d00"/><circle cy="9.285" cx="17.477" r="1.492" fill="#fff"/><circle cx="17.477" cy="9.285" r=".746" fill="#323232"/><path d="M18.223 11.275c0 .249-1.002 1.74-2.238 1.74s-2.238-1.491-2.238-1.74c0-.687 1.002-1.244 2.238-1.244s2.238.557 2.238 1.244z" fill="#eab108"/><path d="M21.544 21.259c-.86 0-.866-.714-1.038-1.556-.19-.937-.312-1.478 1.183-1.556 1.295-.426 1.495 3.062-.145 3.112z" fill="#5095ab"/></svg>