<svg xmlns="http://www.w3.org/2000/svg" height="32" width="32" version="1"><rect width="28.203" height="28.203" x="1.898" y="1.898" ry="5.575" fill="#c2352a" fill-rule="evenodd"/><path d="M5.316 24.717c0-.04.032-.086.072-.101.04-.015.072-.045.072-.066 0-.02.086-.18.192-.354.105-.174.192-.338.192-.365 0-.027.021-.049.048-.049a.049.049 0 0 0 .048-.049c0-.027.094-.205.21-.396.114-.19.263-.444.33-.563.065-.12.35-.614.63-1.101s.51-.891.51-.899c0-.011.392-.678.575-.978l.443-.764.5-.865.222-.39c.067-.121.21-.367.32-.546a4.31 4.31 0 0 0 .197-.345c0-.01.17-.305.378-.655.208-.35.437-.744.508-.876.131-.243.402-.715.687-1.2.086-.145.156-.285.156-.312 0-.027.017-.049.037-.049.02 0 .09-.103.156-.228.066-.126.154-.282.196-.348.042-.066.142-.24.222-.384.14-.254 1.522-2.658 1.699-2.954.047-.079.185-.317.305-.528.376-.66.46-.807.649-1.128.1-.172.225-.389.277-.482.052-.093.245-.428.429-.744.183-.316.348-.613.365-.66.045-.117.095-.104.183.05a7902.598 7902.598 0 0 0 1.479 2.57c.05.088.257.45.462.802l.456.79.592 1.023a432.64 432.64 0 0 1 1.194 2.077c.067.119.355.616.64 1.104.284.489.566.975.625 1.08l.324.58c.12.214.316.549.438.744.121.195.22.373.22.394 0 .022.041.098.09.17.12.173.583.965.583.996 0 .013.054.11.12.215.118.186.875 1.492 1.224 2.112.292.516.73 1.27.77 1.32.02.027.133.221.25.433a123 123 0 0 0 .654 1.145c.242.419.44.78.44.804 0 .024-.146.044-.325.044-.26 0-.384-.029-.628-.145-.371-.175-.412-.176-.638-.02-.099.069-.219.117-.267.108-.048-.009-.148-.13-.222-.268-.075-.138-.157-.252-.182-.252-.026 0-.089.098-.14.216-.073.171-.116.217-.208.217-.158 0-.204-.069-.298-.446-.102-.403-.184-.417-.29-.047-.088.307-.143.396-.243.396-.089 0-.152-.176-.215-.596-.028-.19-.09-.397-.14-.462-.08-.107-.097-.11-.164-.044-.041.04-.107.242-.146.447-.086.445-.14.56-.267.56-.137 0-.178-.147-.242-.875-.06-.668-.134-.95-.253-.95-.095 0-.157.208-.248.84-.087.598-.19.864-.335.864-.14 0-.195-.287-.235-1.2-.052-1.199-.148-1.607-.35-1.484-.111.067-.18.412-.276 1.36-.079.792-.167 1.073-.344 1.099-.245.035-.293-.194-.355-1.695a27.046 27.046 0 0 0-.09-1.48c-.04-.287-.16-.476-.245-.39-.083.083-.185.701-.24 1.461-.094 1.298-.224 1.854-.425 1.815-.157-.03-.203-.362-.274-1.973-.077-1.746-.1-2.012-.199-2.207-.104-.205-.188-.16-.271.144-.087.318-.15.942-.248 2.438-.07 1.092-.134 1.427-.275 1.454-.163.032-.18-.143-.282-2.751a40.364 40.364 0 0 0-.095-1.729c-.048-.449-.162-.792-.263-.792-.167 0-.245.627-.335 2.713-.085 1.968-.166 2.52-.351 2.406-.144-.089-.182-.55-.25-3.054-.06-2.225-.14-2.857-.364-2.857-.218 0-.307.811-.309 2.833-.001 1.498-.054 2.552-.139 2.775-.057.151-.171.17-.24.04-.08-.148-.14-1.067-.196-2.935-.056-1.851-.104-2.453-.218-2.726-.056-.135-.083-.157-.137-.111-.136.112-.175.662-.2 2.789-.024 2.115-.069 2.798-.192 2.963-.057.077-.07.079-.138.012-.12-.117-.166-.664-.217-2.52-.073-2.695-.122-3.33-.275-3.57-.062-.097-.082-.104-.14-.047-.135.136-.206.997-.258 3.114-.057 2.325-.111 2.935-.266 2.995-.036.013-.086-.002-.113-.034-.086-.104-.152-.839-.198-2.217-.068-2.043-.13-2.75-.27-3.133-.133-.364-.257-.216-.331.396-.016.132-.047 1.245-.068 2.473-.032 1.866-.051 2.262-.115 2.412-.053.126-.098.172-.148.152-.148-.057-.215-.486-.317-2.036-.124-1.877-.182-2.35-.309-2.524-.06-.082-.065-.081-.117.016-.057.106-.114.97-.198 3.012-.051 1.241-.109 1.634-.252 1.723-.222.14-.345-.36-.423-1.727-.056-.997-.134-1.473-.259-1.598-.19-.19-.252.118-.313 1.578-.06 1.442-.09 1.766-.175 1.931-.147.284-.315.116-.42-.418a12.397 12.397 0 0 1-.125-.85c-.053-.494-.122-.71-.224-.71-.102 0-.158.314-.213 1.196-.054.868-.109 1.135-.249 1.223-.139.087-.27-.102-.394-.568-.175-.654-.235-.648-.386.043-.118.538-.202.698-.367.698a.873.873 0 0 1-.258-.048c-.11-.041-.141-.03-.232.08-.301.37-.455.497-.603.497-.102 0-.15-.024-.15-.074z" fill="#fff"/></svg>