<svg xmlns="http://www.w3.org/2000/svg" height="32" width="32" version="1"><rect width="28.203" height="28.203" x="1.898" y="1.898" ry="5.575" fill="#19979d" fill-rule="evenodd"/><path d="M10.869 11c-.634 0-1.266.127-1.854.375a4.86 4.86 0 0 0-1.578 1.076 5.024 5.024 0 0 0-1.064 1.623A5.12 5.12 0 0 0 6 15.998c0 .66.126 1.316.373 1.924.247.608.611 1.159 1.064 1.62a4.768 4.768 0 0 0 3.389 1.45l.043.002c1.507.072 2.72-.526 3.61-1.394.607-.594 1.085-1.296 1.52-2.01.436.714.915 1.416 1.522 2.01.89.868 2.103 1.466 3.61 1.394l.043-.002a4.76 4.76 0 0 0 1.81-.373 4.864 4.864 0 0 0 1.578-1.076l.004-.006a4.99 4.99 0 0 0 1.061-1.615A5.12 5.12 0 0 0 26 15.998a5.12 5.12 0 0 0-.373-1.924l-.006-.01a5.02 5.02 0 0 0-1.059-1.613 4.856 4.856 0 0 0-1.578-1.076A4.768 4.768 0 0 0 21.131 11c-1.588 0-2.842.652-3.768 1.561-.535.524-.969 1.124-1.363 1.738-.394-.614-.828-1.214-1.363-1.738-.926-.909-2.18-1.56-3.768-1.56zm.181 2c1.129 0 1.849.38 2.51 1.012.524.5.984 1.181 1.44 1.924-.52.867-1.023 1.66-1.588 2.197-.623.592-1.266.918-2.32.861h-.041a3.076 3.076 0 0 1-2.156-.879l-.012-.01a2.967 2.967 0 0 1-.657-3.246c.15-.358.376-.692.656-.97l.012-.012A3.07 3.07 0 0 1 11.051 13zm9.899 0a3.07 3.07 0 0 1 2.156.877l.012.012a2.957 2.957 0 0 1 0 4.216l-.011.01a3.076 3.076 0 0 1-2.157.878h-.04c-1.055.058-1.699-.269-2.321-.86-.565-.538-1.068-1.33-1.588-2.198.456-.743.915-1.424 1.439-1.924.662-.632 1.382-1.012 2.51-1.012zm-.95 1v1h-1v2h1v1h2v-1h1v-2h-1v-1zM9 15v2h4v-2z" fill="#79ff88"/></svg>