<svg xmlns="http://www.w3.org/2000/svg" width="32" height="32" version="1"><rect width="28.203" height="28.203" x="1.898" y="1.898" ry="5.575" fill="#8e8e8e" fill-rule="evenodd"/><g transform="translate(52.817 1.827)"><rect transform="matrix(0 -1 -1 0 0 0)" ry=".956" rx=".941" y="31.081" x="-23.09" height="11.472" width="15.057" fill="#474747"/><rect transform="matrix(0 -1 -1 0 0 0)" ry=".932" rx=".896" y="27.496" x="-20.939" height="18.643" width="14.34" fill="#474747"/><rect transform="matrix(0 -1 -1 0 0 0)" ry="0" rx="0" y="28.93" x="-19.505" height="15.775" width="11.472" fill="#dc4f47"/><path d="M-39.852 11.87h4.75c.356 0 .356.351.356.351v3.666c0 .35-.355.35-.355.35h-4.75s-.355 0-.355-.35V12.22s0-.35.355-.35zm7.29.546v3.549l-2.184-1.91z" fill="#fff"/></g></svg>