<svg xmlns="http://www.w3.org/2000/svg" height="32" width="32" version="1"><rect width="28.203" height="28.203" x="1.898" y="1.898" ry="5.575" fill="#02a8f3" fill-rule="evenodd"/><path d="M6.533 7.712c-.656 0-1.184.522-1.184 1.171v14.06c0 .65.528.958 1.184.958h10.745l2.556 2.557 2.13-2.557h3.504c.655 0 1.183-.309 1.183-.958V8.883c0-.649-.528-1.171-1.184-1.171z" fill="#fff"/><path d="M16 10.268a5.539 5.539 0 0 0-5.539 5.539A5.539 5.539 0 0 0 16 21.345a5.539 5.539 0 0 0 5.538-5.538A5.539 5.539 0 0 0 16 10.268zm1.06.982a4.686 4.686 0 0 1 2.142 1.147c-.195.183-.4.356-.625.504a5.562 5.562 0 0 0-1.552-1.644l.035-.007zm-2.117.001c.01.003.022.003.032.006a5.562 5.562 0 0 0-1.553 1.644 4.688 4.688 0 0 1-.624-.504 4.686 4.686 0 0 1 2.145-1.146zm.63.64v1.764a4.643 4.643 0 0 1-1.402-.348 4.71 4.71 0 0 1 1.403-1.417zm.853 0a4.71 4.71 0 0 1 1.402 1.416c-.437.185-.909.304-1.402.348zm-4.19 1.14c.246.229.505.443.79.626a5.51 5.51 0 0 0-.413 1.724h-1.278a4.686 4.686 0 0 1 .9-2.35zm7.528.001a4.686 4.686 0 0 1 .9 2.349h-1.277a5.51 5.51 0 0 0-.413-1.724c.284-.183.544-.396.79-.625zm-5.981 1.03a5.52 5.52 0 0 0 1.79.443v.876h-2.108c.043-.462.152-.904.318-1.319zm4.434 0c.166.415.275.857.318 1.319h-2.11v-.876a5.52 5.52 0 0 0 1.792-.443zm-6.88 2.17h1.276a5.51 5.51 0 0 0 .413 1.724c-.274.176-.615.327-.845.55a4.686 4.686 0 0 1-.845-2.273zm2.128 0h2.109v.876a5.52 5.52 0 0 0-1.791.443 4.692 4.692 0 0 1-.318-1.318zm2.96 0h2.11a4.692 4.692 0 0 1-.318 1.319 5.52 5.52 0 0 0-1.791-.443zm2.962 0h1.278a4.686 4.686 0 0 1-.906 2.356c-.246-.23-.5-.45-.785-.632a5.51 5.51 0 0 0 .413-1.723zm-3.813 1.726v1.765a4.71 4.71 0 0 1-1.403-1.416c.437-.186.91-.305 1.403-.349zm.852 0c.493.044.965.163 1.402.349a4.71 4.71 0 0 1-1.402 1.416zm-3.004.754c.4.649.928 1.21 1.553 1.645-.012.002-.024.003-.035.007a4.686 4.686 0 0 1-2.137-1.144 4.6 4.6 0 0 1 .62-.508zm5.155 0c.225.148.43.321.625.505a4.686 4.686 0 0 1-2.146 1.145c-.01-.003-.02-.003-.031-.005a5.562 5.562 0 0 0 1.552-1.645z" fill="#999"/></svg>