<svg xmlns="http://www.w3.org/2000/svg" height="32" width="32"><rect width="28.203" height="28.203" x="1.898" y="1.898" ry="5.575" fill="gray" fill-rule="evenodd"/><path d="M16 16c-.578 0-1.157.116-1.586.346l-6.498 3.5c-.857.46-.856 1.246 0 1.707l6.498 3.499c.857.461 2.316.461 3.172 0l6.498-3.499c.857-.461.856-1.247 0-1.708l-6.498-3.499C17.158 16.116 16.58 16 16 16z" fill="#ea6e41"/><path d="M16 11.301c-.578 0-1.157.116-1.586.346l-6.498 3.5c-.857.46-.856 1.246 0 1.707l6.498 3.499c.857.461 2.316.461 3.172 0l6.498-3.499c.857-.461.856-1.247 0-1.708l-6.498-3.499c-.428-.23-1.007-.346-1.586-.346z" fill="#aed351"/><path d="M16 6.602c-.578 0-1.157.116-1.586.346l-6.498 3.5c-.857.46-.856 1.246 0 1.707l6.498 3.499c.857.461 2.316.461 3.172 0l6.498-3.499c.857-.461.856-1.246 0-1.708l-6.498-3.499c-.428-.23-1.007-.346-1.586-.346z" fill="#3b9dda"/></svg>