<svg xmlns="http://www.w3.org/2000/svg" height="32" width="32"><rect width="28.203" height="28.203" x="1.898" y="1.898" ry="5.575" fill="#3f5979" fill-rule="evenodd"/><g transform="translate(51.025 -.093)"><path d="M-34.65 7.594c-.072.002-.148.01-.229.02-.914.124-1.165.348-1.724 1.535-.377.8-.566.899-1.051 1.004-2.271-1.674-2.271.882-2.718 1.59-.613-.544-1.409-1.72-2.196-2.378-.704-.588-1.4-.945-1.952-.574-.438.311-.81.977-.945 2.506-.185 2.088.002 3.264 1.312 4.994 1.482 1.956 3.69 3.912 7.186 6.368 1.515 1.064 2.784 1.934 2.82 1.934.21 0-2.026-2.94-3.38-4.444-2.024-2.248-2.398-3.047-2.442-4.057-.04-.912.347-1.516.864-1.516.188 0 1.039.646 1.977 1.723.782.855 1.296 2.057 1.92 2.937 1.322 1.67 2.855 1.884 3.425.476.552-1.37.192-3.775-1.07-5.451-.142-.613.127-.706.747-.706.784.001 2.274.54 3.169 1.325 1.106.969 1.292.964 2.524 3.436.726 1.458 1.447 2.819 1.602 3.023.275.362.281.36.286-.093-.233-3.776-1.528-7.37-4.327-9.948-.474-.42-1.864-1.441-3.089-2.27-1.785-1.21-2.197-1.451-2.708-1.434z" fill="#8d8069"/><ellipse transform="matrix(.41803 -.90843 .66936 .74294 0 0)" ry="2.058" rx="1.419" cy="-26.097" cx="-39.608" opacity=".966" fill="#fff"/></g></svg>