<svg xmlns="http://www.w3.org/2000/svg" height="32" width="32" version="1"><rect width="28.203" height="28.203" x="1.898" y="1.898" ry="5.575" fill="#75676a" fill-rule="evenodd"/><g fill="#fff"><path d="M17.53 16.268a1.14 1.14 0 1 1-2.28 0 1.14 1.14 0 0 1 2.28 0"/><path d="M19.364 24.966c-1.498-.246-3.443-1.963-5.22-4.6a25.56 25.56 0 0 1-2.004-3.595c-.098-.225-.137-.278-.166-.245-.06.062-.495 1.005-.724 1.568-.386.949-.655 1.85-.81 2.72-.1.545-.106 1.6-.014 1.93.213.76.68 1.08 1.406.955.524-.089 1.156-.373 1.83-.83.296-.202.376-.238.491-.238.178 0 .308.095.37.267.043.116.043.151 0 .261-.041.11-.11.173-.424.383-.435.297-1.183.676-1.56.798-.999.32-1.776.202-2.327-.35-.505-.507-.713-1.326-.647-2.47.08-1.486.741-3.518 1.773-5.51l.258-.499-.196-.53c-.19-.508-.557-1.682-.557-1.77 0-.066-.112-.051-.61.07-1.14.28-1.985.638-2.59 1.092-1.192.896-.877 1.904.907 2.91.285.163.35.248.35.462 0 .11-.02.154-.112.246-.196.196-.376.154-.982-.22-.871-.542-1.423-1.156-1.619-1.809-.071-.238-.071-.714 0-.955.101-.347.276-.622.59-.937.7-.706 1.865-1.249 3.461-1.613.327-.074.4-.101.389-.143a8.213 8.213 0 0 1-.086-.415c-.216-1.162-.222-2.497-.015-3.239.24-.85.673-1.361 1.364-1.598.282-.095.848-.08 1.234.036.392.115.871.353 1.299.64.51.341.661.484.682.65.047.38-.341.584-.662.344-1.002-.744-1.717-1.032-2.292-.91-.419.088-.736.516-.896 1.203-.066.273-.075.404-.075 1.083 0 .774.012.896.151 1.705l.072.406.166-.02c.768-.092 1.43-.157 1.836-.18l.483-.027.08-.095c.818-1.05 2.005-2.278 2.906-3.001 1.724-1.382 3.2-1.863 4.218-1.37.575.275.936.844 1.08 1.687.091.549.017 1.85-.125 2.218-.048.125-.208.217-.38.217a.304.304 0 0 1-.246-.098c-.1-.086-.107-.113-.107-.288 0-.104.027-.406.06-.667.097-.76.029-1.472-.175-1.878-.104-.199-.309-.409-.49-.495-.134-.068-.207-.077-.516-.077-.333 0-.397.012-.718.124-1.005.344-2.156 1.169-3.396 2.429-.24.243-.59.623-.785.851l-.365.41.311.008c4.36.104 8.034 1.107 9.766 2.66.389.35.726.872.821 1.28.05.206.054.607.003.82-.177.79-1.047 1.57-2.316 2.07-.202.08-.24.087-.353.054a.396.396 0 0 1-.29-.38c0-.21.097-.31.462-.465.785-.33 1.397-.792 1.628-1.237.083-.15.092-.21.092-.457 0-.252-.01-.302-.11-.492-.14-.272-.605-.738-.99-.993-1.893-1.25-5.46-2.065-9.064-2.065h-.593l-.226.302a32.57 32.57 0 0 0-1.349 2.055l-.255.436.175.403c1.758 4.034 4.487 7.444 6.5 8.126.44.143.772.145 1.036.015.5-.246.766-.883.807-1.946.065-1.782-.576-4.246-1.77-6.794-.125-.264-.2-.465-.2-.54 0-.213.178-.382.397-.379.196 0 .282.078.433.395.97 2.028 1.616 4.065 1.86 5.842.08.596.08 1.815 0 2.25-.131.698-.363 1.199-.713 1.555-.43.43-.984.593-1.643.487m-6.957-10.842c.125-.205.365-.567.534-.813.17-.249.305-.459.305-.474 0-.045-1.554.115-1.598.16-.026.03.063.373.27 1.011.145.463.193.557.225.522.024-.026.143-.207.264-.406"/></g></svg>