<svg xmlns="http://www.w3.org/2000/svg" height="32" width="32"><rect width="28.203" height="28.203" x="1.898" y="1.898" ry="5.575" fill="#d89b20" fill-rule="evenodd"/><g fill="#fff"><path d="M17.53 16.273c0 .64-.51 1.159-1.14 1.159a1.15 1.15 0 0 1-1.138-1.16c0-.639.51-1.16 1.139-1.16.628 0 1.138.521 1.138 1.16"/><path d="M19.364 25.123c-1.498-.25-3.443-1.998-5.22-4.681a26.14 26.14 0 0 1-2.004-3.657c-.098-.23-.137-.284-.166-.25-.06.063-.495 1.022-.724 1.596a13.922 13.922 0 0 0-.81 2.767c-.1.555-.106 1.629-.014 1.964.213.772.68 1.098 1.406.972.524-.09 1.156-.38 1.83-.845.296-.206.376-.242.491-.242.178 0 .309.096.37.272.043.117.043.153 0 .265-.041.112-.11.176-.424.39-.435.302-1.183.688-1.56.812-.999.326-1.776.205-2.327-.356-.504-.516-.712-1.35-.647-2.514.08-1.512.742-3.579 1.773-5.607l.258-.506-.195-.54c-.19-.516-.558-1.711-.558-1.802 0-.066-.112-.05-.61.073-1.14.283-1.984.649-2.59 1.11-1.191.912-.877 1.938.908 2.96.284.167.35.254.35.471 0 .112-.02.157-.113.25-.196.2-.376.157-.981-.223-.872-.552-1.424-1.176-1.62-1.84-.071-.242-.071-.727 0-.972.101-.353.276-.634.59-.954.7-.718 1.865-1.27 3.461-1.641.327-.076.4-.103.389-.145a8.485 8.485 0 0 1-.086-.423c-.216-1.182-.222-2.54-.015-3.295.24-.866.673-1.385 1.364-1.626.282-.097.848-.081 1.234.036.392.118.871.36 1.299.652.51.347.661.492.682.66.047.387-.341.595-.662.35-1.002-.756-1.717-1.05-2.292-.926-.419.09-.736.526-.896 1.225-.065.278-.075.41-.075 1.102 0 .788.013.912.152 1.735l.07.413.167-.02c.768-.094 1.43-.16 1.836-.184l.483-.027.08-.097c.818-1.068 2.005-2.317 2.906-3.054 1.724-1.405 3.2-1.894 4.217-1.394.576.28.937.86 1.08 1.717.092.559.017 1.884-.125 2.258-.047.126-.207.22-.38.22a.301.301 0 0 1-.245-.1c-.101-.087-.107-.114-.107-.293 0-.106.026-.413.06-.679.097-.772.029-1.497-.176-1.91-.104-.202-.308-.416-.49-.504-.133-.07-.206-.078-.515-.078-.333 0-.398.012-.718.126-1.005.35-2.156 1.189-3.396 2.471-.24.248-.59.634-.785.866l-.365.417.311.009c4.36.106 8.034 1.125 9.766 2.707.388.356.726.886.821 1.3.05.211.053.62.003.836-.178.803-1.047 1.596-2.316 2.107-.202.08-.24.087-.353.054a.402.402 0 0 1-.29-.386c0-.214.097-.317.461-.474.786-.335 1.397-.806 1.629-1.258.083-.154.092-.214.092-.465 0-.257-.01-.308-.11-.5-.14-.278-.605-.752-.991-1.012-1.892-1.27-5.46-2.1-9.063-2.1h-.593l-.225.307a33.2 33.2 0 0 0-1.35 2.091l-.255.443.175.41c1.758 4.105 4.487 7.575 6.5 8.268.44.146.772.148 1.036.016.5-.25.766-.9.807-1.98.065-1.814-.576-4.321-1.77-6.913-.125-.269-.2-.473-.2-.549 0-.217.178-.39.397-.386.196 0 .282.079.433.402.97 2.064 1.616 4.136 1.86 5.944.079.606.079 1.847 0 2.29-.131.71-.363 1.219-.713 1.581-.43.437-.984.604-1.643.495m-6.956-11.031c.124-.209.364-.576.533-.827.17-.253.305-.467.305-.482 0-.046-1.554.117-1.598.163-.026.03.063.38.27 1.028.145.47.193.567.225.532.024-.027.143-.211.265-.413"/></g></svg>