<svg xmlns="http://www.w3.org/2000/svg" height="32" width="32" version="1"><rect width="28.203" height="28.203" x="1.898" y="1.898" ry="5.575" fill="#ccc" fill-rule="evenodd"/><path d="M17.461 7c5.04 0 5.04 6 5.04 7.92-.72-.72-5-5.76-5-1.92 0 2.663.014 5.347 0 8v.182c-.002.021-.008.041-.009.062a4 4 0 0 1-.074.54 3.849 3.849 0 0 1-.064.287c-.006.021-.016.04-.022.062a3.998 3.998 0 0 1-.256.658 4.002 4.002 0 0 1-.386.616 4 4 0 0 1-.377.433c-.036.035-.073.068-.11.102a4 4 0 0 1-.498.392c-.022.015-.044.027-.066.041a4 4 0 0 1-.62.323l-.02.007A4 4 0 0 1 13.5 25a4.004 4.004 0 0 1-.755-.076l-.106-.023a4 4 0 0 1-.664-.207l-.04-.016A4 4 0 0 1 9.5 21a4 4 0 0 1 4-4c.337.001.673.045 1 .13V8.44C14.5 7 16.02 7 17.46 7z" fill="#3c8cf8"/></svg>