<svg xmlns="http://www.w3.org/2000/svg" height="32" width="32" version="1"><rect width="28.203" height="28.203" x="1.898" y="1.898" ry="5.575" fill="#608ab5" fill-rule="evenodd"/><path d="M10.178 20.477l1.343-7.464.747 11.197.746-10.45.747 9.703.746-8.211.746 5.225 1.493-6.718v8.958l1.493-9.704 1.493 11.197.747-8.211 1.269 3.732" fill="none" stroke="#fbc34f" stroke-linecap="round" stroke-linejoin="round" stroke-width=".74646"/><path d="M16 7.417c-2.166 0-4.14.676-5.598 1.812C8.945 10.364 8 11.989 8 13.796v.653c-1.447.733-2.45 2.655-2.45 4.909 0 2.884 1.642 5.225 3.756 5.225V13.796c0-1.354.7-2.6 1.903-3.536C12.411 9.322 14.11 8.724 16 8.724c1.89 0 3.589.598 4.792 1.535 1.203.938 1.903 2.183 1.903 3.537v10.787c2.115 0 3.755-2.341 3.755-5.225 0-2.254-1.002-4.176-2.449-4.91v-.652c0-1.808-.946-3.432-2.403-4.567C20.14 8.093 18.166 7.417 16 7.417zm-6.205 6.879v10.287a.898.898 0 0 0 .816-.49v-9.471a1.247 1.247 0 0 0-.816-.327zm12.41 0c-.327 0-.653.163-.817.326v9.471a.9.9 0 0 0 .817.49V14.296z" fill="#fff"/></svg>