<svg xmlns="http://www.w3.org/2000/svg" height="32" width="32" version="1"><rect width="28.203" height="28.203" x="1.898" y="1.898" ry="5.575" fill="#4f4f4f" fill-rule="evenodd"/><path d="M16.661 9.003c-.213-.009-.43.004-.656.015-1.335.063-3.698.01-4.62 1.195-.563.723-.3 2.407.562 2.581 1.075.218 2.893-.322 4.058-.189.813.093 1.05.804.388 1.298-.7.522-2.29.364-3.094.626-2.775.908-3.773 2.832-3.093 5.439.443 1.7 2.012 2.96 3.723 3.032 3.292-.008 2.678-1.816 4.272-.875.525.66 1.582.87 2.13.407.88-.744 2.21-1.143 1.272-2.667-.448-.73.597-1.676.362-5.307-.209-3.222-2.103-5.432-5.304-5.555zm-.428 7.786c.741 0 1.326.564 1.326 1.268 0 .703-.585 1.284-1.326 1.284-.741 0-1.353-.581-1.353-1.284 0-.704.612-1.268 1.353-1.268z" fill="#fff"/></svg>