<svg xmlns="http://www.w3.org/2000/svg" height="32" width="32" version="1"><path d="M30.102 21.967H1.898v2.56a5.563 5.563 0 0 0 5.577 5.575h17.052a5.561 5.561 0 0 0 5.575-5.575z" fill="#ccc" fill-rule="evenodd"/><path d="M7.475 1.898a5.565 5.565 0 0 0-5.577 5.577v14.492h28.204V7.475a5.563 5.563 0 0 0-5.575-5.577z" fill="#c2352a" fill-rule="evenodd"/><path d="M12.782 8.22c-.245 0-.444.199-.444.444v9.11c0 .338.361.553.657.39l8.335-4.555a.445.445 0 0 0 0-.78L13.828 8.73l-.833-.455a.442.442 0 0 0-.213-.055z" fill="#fff"/><rect x="20" y="24.779" width="8" height="2" ry="1" fill="#999"/><rect x="4" y="24.779" width="16" height="2" ry="1" fill="#c2352a"/><circle r="2" cy="25.78" cx="20" fill="#fff"/></svg>