<svg xmlns="http://www.w3.org/2000/svg" height="32" width="32" version="1"><rect width="28.203" height="28.203" x="1.898" y="1.898" ry="5.575" fill="#4c7590" fill-rule="evenodd"/><path d="M5.87 24.491l.101 1.04.572.736c1.559.214 1.316-.526 1.086-1.259.374-2.868 10.253-11.22 14.645-15.732l-1.479-1.479z" fill="#5f4d37" stroke="#5f4d37" stroke-width=".09038"/><path d="M5.87 24.491L20.794 7.797 19.757 6.76l-8.18 8.181c.439.821.22 1.77-.744 2.86l-5.057 5.738z" fill="#806749" stroke="#806749" stroke-width=".09038"/><path d="M21.195 8.003c-.485-.507-.929-.984-1.38-1.37.196.209.397.424.61.641.227.233.467.467.725.694l.045.035z"/><path d="M24.824 15.53l-.933-.915c-.054.06-.103.127-.159.185-.181.187-.37.361-.563.523a8.874 8.874 0 0 1-1.77 1.137c-.383.187-.745.335-1.063.45-.035.012-.054.015-.088.027a3.4 3.4 0 0 1-.148 1.222c.212-.048 2.903-.618 4.724-2.63z" fill="#c6c5ca" stroke="#c6c5ca" stroke-width=".09"/><path d="M25.524 10.572c-.005.098.003.205-.006.3-.03.343-.084.669-.158.978a6.333 6.333 0 0 1-.652 1.656c-.14.245-.292.475-.456.69-.114.15-.238.283-.36.419l.932.914c1.01-1.115 1.756-2.668 1.655-4.835a7.928 7.928 0 0 1-.955-.122z" fill="#e0e0e2" stroke="#e0e0e2" stroke-width=".09"/><path d="M15.41 10.407c.464.436.854.824 1.274 1.228l-.015-.016c-.374-.382-.831-.805-1.259-1.212z"/><path d="M23.876 14.633c.128-.141.257-.281.376-.437a6.297 6.297 0 0 0 .832-1.47c.11-.276.203-.568.276-.876a6.9 6.9 0 0 0 .158-.978c.009-.095 0-.202.006-.3-2.073-.381-3.312-1.506-4.33-2.569-.013-.012-.03-.023-.044-.035-.258-.227-.498-.46-.726-.694-.212-.217-.413-.432-.61-.64-.113-.098-.226-.205-.343-.288l-2.003 2.003z" fill="#ff5023" stroke="#ff5023" stroke-width=".09"/><path d="M23.876 14.633l-6.408-6.284-2.058 2.058c.428.407.885.83 1.26 1.212l.014.016c2.006 1.934 3.465 3.588 3.564 5.302.034-.012.053-.015.088-.028a10.466 10.466 0 0 0 1.647-.761c.198-.115.398-.24.597-.378.198-.137.396-.286.589-.447.193-.162.382-.336.563-.523.05-.052.095-.113.144-.167z" fill="#cd2a00" stroke="#cd2a00" stroke-width=".09"/></svg>