<svg xmlns="http://www.w3.org/2000/svg" width="32" height="32" version="1"><rect width="28.203" height="28.203" x="1.898" y="1.898" ry="5.575" fill="#d1002f" fill-rule="evenodd"/><rect width="28.203" height="28.203" x="1.898" y="1.898" ry="5.575" fill="#b81f04" fill-rule="evenodd"/><path d="M12.99 23.017c.035-.117.427-1.252.462-1.34l.024-.063h2.025l-.006-.79-.006-.79-.216-.036a4.564 4.564 0 0 1-2.507-1.281 5.69 5.69 0 0 1-.506-.602 3.682 3.682 0 0 1-.26-.425.687.687 0 0 0-.052-.094c-.113-.185-.288-.642-.371-.97-.13-.51-.13-.496-.139-2.674l-.008-2.014.104-.092a.579.579 0 0 1 .248-.13c.186-.05.322-.022.515.107l.135.09.001 1.788c0 .983.005 1.829.01 1.879.005.05.015.172.021.272a3.55 3.55 0 0 0 .912 2.144c.416.446.951.756 1.613.935.23.063.69.114 1.011.114.322 0 .78-.051 1.011-.114.648-.175 1.115-.44 1.546-.874.599-.604.915-1.33.988-2.273.01-.125.019-1.045.02-2.044l.004-1.818.073-.076c.227-.236.554-.234.83.007l.098.084-.008 2.015c-.01 2.178-.009 2.165-.139 2.674a4.582 4.582 0 0 1-1.21 2.111 4.554 4.554 0 0 1-2.474 1.26l-.228.037-.006.79-.006.79h1.876l.253.75.253.75h-5.922l.03-.097zm2.532-5.018a3.263 3.263 0 0 1-.709-.206 2.262 2.262 0 0 1-1.187-1.304c-.154-.452-.175-.783-.166-2.602l.006-1.398 2.564-.006 2.563-.006-.008 1.745c-.009 1.7-.01 1.749-.058 1.932-.249.951-.826 1.537-1.754 1.782-.237.062-.3.07-.682.076a5.437 5.437 0 0 1-.57-.013zm-2.06-6.436c.019-.533.04-.702.12-.98.241-.824.846-1.412 1.642-1.597.563-.13.986-.133 1.526-.006.913.213 1.552.856 1.774 1.783.04.166.05.3.06.732l.012.528h-5.148z" fill="#ececec"/></svg>