<svg xmlns="http://www.w3.org/2000/svg" height="32" width="32"><rect width="28.203" height="28.203" x="1.898" y="1.898" ry="5.575" fill="#009587" fill-rule="evenodd"/><path d="M9.22 30.102h15.307a5.563 5.563 0 0 0 5.575-5.577V7.473a5.561 5.561 0 0 0-5.575-5.575H9.221z" fill="#009587" fill-rule="evenodd"/><path d="M9.22 30.102V1.898H7.474a5.561 5.561 0 0 0-5.575 5.575v17.052a5.563 5.563 0 0 0 5.575 5.577z" fill="#00776c" fill-rule="evenodd"/><path d="M23.138 16.367a2.97 2.97 0 0 0-1.564-2.621v5.242a2.987 2.987 0 0 0 1.564-2.62zm-9.348-2.542v5.084h2.463l3.574 3.574V10.251l-3.574 3.574zm7.784-3.574v1.31a5.045 5.045 0 0 1 3.495 4.806 5.045 5.045 0 0 1-3.495 4.806v1.31c2.753-.681 4.806-3.145 4.806-6.116 0-2.97-2.053-5.434-4.806-6.116z" fill="#d8f5cd"/></svg>