<svg xmlns="http://www.w3.org/2000/svg" height="32" width="32" version="1"><rect width="28.203" height="28.203" x="1.898" y="1.898" ry="5.575" fill="#e91e63" fill-rule="evenodd"/><g fill="#ff8bff"><path d="M14.808 13.057l3.331 3.33a1.233 1.233 0 0 0 1.744-1.743l-3.331-3.331c-2.384-2.384-6.235-2.423-8.67-.12a1.07 1.07 0 0 0-.065.058l-.03.032-.032.03a6.227 6.227 0 0 0 .062 8.735l3.33 3.33a1.232 1.232 0 1 0 1.744-1.743l-3.33-3.331a3.758 3.758 0 0 1-.03-5.278 3.758 3.758 0 0 1 5.277.03z"/><path d="M19.108 8.622a1.232 1.232 0 0 0 0 1.743l3.332 3.33a3.759 3.759 0 0 1 .03 5.279 3.758 3.758 0 0 1-5.278-.03l-3.33-3.331a1.234 1.234 0 0 0-1.745 1.744l3.33 3.33a6.226 6.226 0 0 0 8.67.121c.022-.019.045-.038.066-.059l.03-.031.032-.03c.02-.022.04-.044.058-.066a6.225 6.225 0 0 0-.12-8.67l-3.33-3.33a1.233 1.233 0 0 0-1.745 0z"/></g></svg>