<svg xmlns="http://www.w3.org/2000/svg" height="32" width="32" version="1"><rect width="28.203" height="28.203" x="1.898" y="1.898" ry="5.575" fill="#666" fill-rule="evenodd"/><path d="M1.898 8.025v16.502a5.561 5.561 0 0 0 5.575 5.575h17.052a5.563 5.563 0 0 0 5.577-5.575V8.025z" fill="#737374" fill-rule="evenodd"/><path d="M8.531 1.898l3.004 3.004-3.123 3.123h4.166l3.123-3.123-3.004-3.004H8.531zm7.29 0l3.003 3.004-3.123 3.123h4.164l3.123-3.123-3.004-3.004H15.82zm7.286 0l3.004 3.004-3.123 3.123h4.164L29.7 5.48c-.08-.208-.2-.382-.303-.577-.934-1.765-2.728-3.004-4.87-3.004h-1.419zm-18.103.637c-1.825.914-3.106 2.752-3.106 4.94v.55h5.473V4.902L5.004 2.535z" fill="#999" fill-rule="evenodd"/><path d="M10.171 13.493c-.554 0-1 .446-1 1v8c0 .554.446 1 1 1h9c.554 0 1-.446 1-1v-8c0-.554-.446-1-1-1zm10 5l4 3v-6z" fill="#bababa"/></svg>