<svg xmlns="http://www.w3.org/2000/svg" height="32" width="32" version="1"><rect width="28.203" height="28.203" x="1.898" y="1.898" ry="5.575" fill="#f39019" fill-rule="evenodd"/><path d="M19.582 30.102c-.135-.42-.224-.84-.48-1.25-.706-1.127-1.973-2.084-2.49-3.215-.357-.78-.421-1.61-.245-2.506.177-.896.593-1.857 1.2-2.899-1.751 1.81-3.156 3.714-4.167 5.538a17.84 17.84 0 0 0-1.214 2.652c-.212.594-.302 1.134-.409 1.68z" fill="#ffff7e" fill-rule="evenodd"/><path d="M22.643 30.102c.219-1.004.274-2.108.134-3.303-.145-1.237-.479-2.558-.988-3.93a26.14 26.14 0 0 0-2.049-4.226 34.637 34.637 0 0 0-3.047-4.311 40.658 40.658 0 0 0-3.986-4.178c1.023 1.633 1.727 3.17 2.025 4.647.15.738.198 1.462.133 2.174a6.827 6.827 0 0 1-.545 2.107c-.437 1.008-1.19 1.982-1.984 2.959-.793.977-1.626 1.957-2.22 2.98C9.431 26.196 9 27.382 8.831 28.51c-.085.571.101 1.059.154 1.592h2.791c.107-.546.197-1.086.409-1.68.301-.85.71-1.74 1.214-2.652 1.011-1.824 2.416-3.728 4.166-5.538-.606 1.042-1.022 2.003-1.199 2.899-.176.896-.112 1.726.244 2.506.518 1.131 1.785 2.088 2.49 3.215.257.41.346.83.481 1.25z" fill="#f3b326" fill-rule="evenodd"/><path d="M16.967 3.443a23.076 23.076 0 0 0-3.658 4.344c-.492.766-.897 1.521-1.176 2.217-.279.696-.43 1.332-.414 1.861.018.613.019 2.427-.03 3.97-.048 1.545-.146 2.819-.326 2.35-1.141-1.208-2.37-2.314-3.734-3.26a17.755 17.755 0 0 0-4.555-2.286c.572.402 1.041.818 1.412 1.248.372.43.645.872.828 1.326.184.454.277.92.286 1.392.008.473-.066.954-.22 1.442-.523 1.67-.875 3.19-1.073 4.572-.199 1.383-.243 2.627-.157 3.746.086 1.103.303 2.079.625 2.947.81.458 1.697.79 2.698.79h1.513c-.053-.533-.239-1.02-.154-1.592.168-1.128.6-2.314 1.283-3.489.595-1.023 1.428-2.003 2.22-2.98.794-.977 1.548-1.95 1.985-2.959.301-.695.48-1.395.545-2.107a7.492 7.492 0 0 0-.133-2.174c-.298-1.476-1.002-3.014-2.025-4.647a40.658 40.658 0 0 1 3.986 4.178 34.637 34.637 0 0 1 3.047 4.31 26.14 26.14 0 0 1 2.05 4.227c.508 1.372.842 2.693.987 3.93.14 1.195.085 2.3-.134 3.303h1.882c1.176 0 2.203-.445 3.1-1.061.104-.201.277-.334.367-.549.449-1.068.713-2.302.723-3.726.01-1.424-.235-3.04-.809-4.87.09.851-.108 1.602-.459 2.215a3.84 3.84 0 0 1-1.37 1.395c-.52.304-1.056.436-1.472.36-.415-.077-.711-.362-.751-.891-.102-1.326-.342-2.452-.68-3.428a10.963 10.963 0 0 0-1.262-2.531c-.975-1.458-2.16-2.522-3.203-3.604-.522-.54-1.007-1.087-1.414-1.687a6.6 6.6 0 0 1-.94-2.02c-.203-.762-.284-1.631-.197-2.658.087-1.027.343-2.21.809-3.604z" fill="#f39019" fill-rule="evenodd"/><path d="M30.102 16.521V7.475a5.565 5.565 0 0 0-5.577-5.577h-6.37c-.096.602-.258 1.318-.29 1.813-.063.99-.003 1.781.156 2.437.16.657.42 1.178.758 1.623.339.446.754.817 1.229 1.174.949.715 2.13 1.374 3.365 2.471.618.549 1.25 1.207 1.875 2.035a17.79 17.79 0 0 1 1.832 3.057c.186.387.45.64.752.78.303.138.644.164.98.099.337-.066.671-.223.96-.45.138-.108.217-.277.33-.416zM16.111 1.898H7.473a5.563 5.563 0 0 0-5.575 5.577v3.564c.516.098 1.145.16 1.592.264 1.303.304 2.267.62 2.606.834.027-.287 1.722-2.402 4.105-4.893a67.97 67.97 0 0 1 3.969-3.838c.643-.57 1.29-.991 1.941-1.508z" fill="#1a1a1a" fill-rule="evenodd"/><path d="M16.111 1.898c-.652.517-1.298.939-1.941 1.508A67.97 67.97 0 0 0 10.2 7.244c-2.383 2.491-4.078 4.606-4.105 4.893-.339-.215-1.303-.53-2.606-.834-.447-.105-1.076-.166-1.592-.264v13.488c0 2.089 1.187 3.83 2.877 4.785a10.812 10.812 0 0 1-.625-2.947c-.086-1.119-.042-2.363.157-3.746.198-1.383.55-2.903 1.074-4.572.153-.488.227-.969.219-1.442a3.879 3.879 0 0 0-.286-1.392 4.767 4.767 0 0 0-.828-1.326 7.694 7.694 0 0 0-1.412-1.248c1.69.56 3.19 1.342 4.555 2.287 1.364.945 2.593 2.051 3.734 3.26.18.468.278-.806.326-2.35.049-1.544.048-3.358.03-3.97-.016-.53.135-1.166.414-1.862.279-.696.684-1.45 1.176-2.217a23.076 23.076 0 0 1 3.658-4.344c-.466 1.394-.722 2.577-.809 3.604-.087 1.027-.006 1.896.197 2.658a6.6 6.6 0 0 0 .94 2.02c.407.6.892 1.146 1.414 1.687 1.043 1.082 2.228 2.146 3.203 3.604.488.728.924 1.555 1.262 2.53.338.977.578 2.103.68 3.429.04.529.336.814.751.89.416.077.952-.055 1.471-.36a3.84 3.84 0 0 0 1.371-1.394c.35-.613.55-1.364.46-2.215.573 1.83.817 3.446.808 4.87-.01 1.424-.274 2.658-.723 3.726-.09.215-.263.348-.367.549 1.46-1.003 2.477-2.6 2.477-4.514v-8.006c-.113.139-.192.308-.33.416a2.276 2.276 0 0 1-.96.45c-.336.065-.677.04-.98-.1-.302-.139-.566-.392-.752-.78a17.79 17.79 0 0 0-1.832-3.056 13.853 13.853 0 0 0-1.875-2.035c-1.236-1.097-2.416-1.756-3.365-2.47-.475-.358-.89-.73-1.229-1.175a4.29 4.29 0 0 1-.758-1.623c-.159-.656-.219-1.448-.156-2.437.032-.495.194-1.21.29-1.813z" fill="#ee1e14" fill-rule="evenodd"/><text y="24.083" x="-35.414" style="line-height:1.25" font-weight="400" font-size="20.656" font-family="sans-serif" letter-spacing="0" word-spacing="0" stroke-width=".516" transform="translate(43.805 2.154)"><tspan style="-inkscape-font-specification:'sans-serif Bold'" y="24.083" x="-35.414" font-weight="700">B</tspan></text></svg>