<svg xmlns="http://www.w3.org/2000/svg" height="32" width="32" version="1"><rect width="28.203" height="28.203" x="1.898" y="1.898" ry="5.575" fill="#e6e6e6" fill-rule="evenodd"/><path d="M15.31 26.809c-.07-.068-.127-.167-.127-.222 0-.071-.03-.085-.11-.05-.061.026-.357.06-.659.074l-.548.025-.1-.188c-.09-.168-.118-.182-.262-.129-.394.146-.785.032-.785-.227 0-.16 0-.16-.404-.12-.23.023-.476.013-.573-.022-.142-.053-.166-.094-.149-.262l.02-.2-.385-.03c-.452-.037-.61-.134-.555-.346.034-.132.017-.146-.175-.148-.263-.003-.426-.118-.49-.345-.039-.144-.077-.171-.213-.156-.257.03-.395-.226-.381-.706.01-.386-.02-.45-.15-.322-.039.037-.137.058-.219.046-.19-.026-.233-.327-.094-.664.111-.27.087-.315-.145-.27-.306.06-.38-.156-.222-.648.042-.129.032-.142-.073-.1-.252.1-.31.072-.33-.162a.925.925 0 0 1 .112-.476c.136-.258.13-.271-.108-.252-.23.018-.24-.16-.024-.496.109-.17.198-.33.198-.356 0-.026-.071-.08-.158-.118-.202-.089-.2-.222.006-.51.174-.245.16-.361-.044-.361-.264 0-.233-.337.065-.702.15-.183.181-.27.153-.425a.59.59 0 0 0-.156-.296c-.065-.056-.12-.155-.12-.219 0-.124.255-.385.49-.503.169-.084.18-.2.04-.407-.093-.14-.093-.164.004-.308.058-.085.199-.2.314-.252a.857.857 0 0 0 .319-.278c.105-.173.105-.187-.005-.305-.18-.194-.016-.413.418-.555.45-.149.564-.254.455-.424-.159-.247.002-.405.525-.518.276-.06.348-.139.306-.341-.03-.15-.01-.189.135-.253.153-.068.168-.1.134-.294-.093-.539-.112-.849-.055-.883.034-.02.15-.005.259.035.108.04.212.056.231.038.02-.02.003-.245-.037-.503-.04-.257-.053-.565-.03-.685.038-.198.06-.217.26-.217.254 0 .246.032.125-.522-.12-.556-.119-.622.023-.76.23-.224.267-.785.105-1.609-.133-.674-.101-1.04.09-1.04.066 0 .176.068.244.153.143.177.234.195.289.056.071-.18.039-.335-.144-.688-.203-.39-.387-.942-.387-1.161 0-.218.145-.173.522.161.356.317.651.79.834 1.34.174.52.282.43.32-.264.027-.473.057-.58.16-.58.118 0 .25.376.381 1.084.118.633.13.852.09 1.69-.023.53-.023 1.026.002 1.103l.046.14.146-.177.145-.177.045.174c.025.095.03.605.013 1.132-.018.528-.02.994-.004 1.036.072.193.42.005.47-.254.044-.234.212-.258.5-.073.147.094.355.196.463.226.166.047.212.034.303-.083.099-.128.121-.132.316-.055.394.157.464.133.446-.153-.01-.166.017-.28.079-.33.055-.044.097-.184.1-.33a1.37 1.37 0 0 1 .052-.372c.03-.077-.027-.326-.163-.706-.346-.966-.255-1.58.17-1.142.208.216.315.198.315-.055 0-.135-.134-.464-.379-.928-.514-.973-.51-1.218.013-.896.36.222.707.62 1.03 1.183.352.614.44.623.394.042-.058-.756.15-.892.459-.298.301.58.38.98.448 2.273.034.658.088 1.222.12 1.253.034.033.102-.035.167-.17.213-.433.32-.183.376.883.047.894.042.88.253.786.148-.066.18-.058.286.068.066.079.12.22.12.313 0 .261.155.354.377.226.163-.093.19-.094.278-.009.054.052.115.198.136.323.058.351.142.505.273.505.166 0 .25.116.298.41.06.371.12.439.267.308.276-.242.46.066.3.504-.053.147-.097.28-.097.295 0 .015.128.008.284-.015.267-.038.285-.032.285.1a.412.412 0 0 1-.096.242c-.148.16-.058.491.133.491.084 0 .178.054.217.126.056.101.038.18-.093.407-.2.349-.2.364.008.462.231.11.242.188.054.404-.193.224-.2.297-.034.34.142.035.174.28.052.398-.057.055-.047.101.042.197.096.103.104.15.044.279a.535.535 0 0 1-.232.224c-.18.08-.202.185-.061.299.074.06.087.144.055.36-.048.325-.12.436-.283.436-.176 0-.197.093-.058.264.216.268.107.502-.17.364-.145-.073-.274-.031-.274.088 0 .05.074.213.163.362.2.33.186.542-.036.571-.247.032-.28.108-.134.307.172.236.176.48.007.533-.161.05-.16.18.005.405.16.218.138.387-.053.413-.176.025-.178.082-.009.231.248.218.278.34.115.46-.13.095-.138.126-.07.27.166.354.05.704-.192.578-.145-.075-.133-.088-.227.233-.058.195-.119.27-.26.317-.115.04-.19.113-.204.2-.032.209-.208.29-.354.162-.168-.148-.188-.136-.236.142-.04.236-.169.429-.284.429-.03 0-.112-.073-.184-.16-.147-.183-.301-.163-.332.042a.327.327 0 0 1-.132.204c-.092.055-.139.035-.264-.117l-.152-.184-.182.169c-.202.186-.382.218-.437.076-.052-.13-.135-.115-.35.062-.103.084-.229.153-.28.153-.05 0-.118-.07-.151-.154-.033-.084-.072-.153-.086-.153-.014 0-.19.07-.39.157-.427.183-.667.177-.756-.02-.042-.091-.096-.125-.158-.099-.48.203-.636.235-.76.16-.105-.064-.197-.06-.5.015-.487.123-.611.118-.763-.029z" fill="#4f4f4f"/><path d="M17.794 20.384a1.23 1.23 0 0 0-.25.024c-.702.138-1.534.645-1.98 1.206-.328.415-.508.898-.552 1.48l-.033.433.332.353c.56.595 1.147.785 2.338.754.53-.013.715-.043.925-.148.353-.176.506-.381.594-.795.094-.438.045-1.838-.078-2.262-.18-.623-.716-1.039-1.296-1.045zm.64 1.448c.14 0 .162.027.162.19 0 .135-.035.2-.12.221-.112.028-.115.046-.032.238.109.253.116.884.014 1.104-.14.299-.656.447-1.093.316-.304-.091-.41-.266-.41-.682-.003-.744.683-1.387 1.48-1.387z" fill="#929292"/><path d="M17.986 23.546c.438-.194.364-1.038-.091-1.038-.218 0-.563.383-.562.624.002.235.042.31.22.409.162.089.242.09.433.005z" fill="#fff"/><path d="M22.151 24.143c.18-.133.254-.715.22-1.727-.033-.961-.118-1.35-.32-1.468-.094-.056-.14-.037-.261.11-.221.266-.594 1.267-.602 1.615 0 .04.082-.009.184-.108.13-.126.246-.18.395-.18.192 0 .224.028.36.316.17.363.163.85-.016 1.024-.215.21-.872.058-.943-.217-.016-.06-.02-.016-.008.097.026.259.12.37.438.51.3.132.405.138.553.028z" fill="#929292"/><path d="M21.91 23.456c.14-.137.122-.361-.047-.553-.19-.214-.399-.162-.475.116-.083.3.024.534.243.534a.459.459 0 0 0 .278-.097z" fill="#fff"/></svg>