<svg xmlns="http://www.w3.org/2000/svg" height="32" width="32"><rect width="28.203" height="28.203" x="1.898" y="1.898" ry="5.575" fill="#4f4f4f" fill-rule="evenodd"/><path d="M7.299 6.692c-.757.771-.757 4.465-.757 6.804 0 8.49 4.918 11.962 9.458 11.962s9.458-3.473 9.458-11.962c0-2.316 0-6.033-.757-6.804-.757-.772-5.77 1.623-7.282 3.167H14.58C13.068 8.315 8.056 5.919 7.3 6.692z" fill="#fff" fill-rule="evenodd"/><g fill="#4f4f4f"><path d="M18.027 20.845c0 1.055-.908 1.91-2.027 1.91-1.12 0-2.027-.855-2.027-1.91s4.054-1.055 4.054 0z"/><path d="M11.947 11.271a3.378 4.053 0 0 0-3.378 4.053 3.378 4.053 0 0 0 3.378 4.054 3.378 4.053 0 0 0 3.377-4.054 3.378 4.053 0 0 0-3.377-4.053zm0 1.351a2.027 2.702 0 0 1 2.026 2.702 2.027 2.702 0 0 1-2.026 2.703 2.027 2.702 0 0 1-2.027-2.703 2.027 2.702 0 0 1 2.027-2.702zM20.053 11.271a3.378 4.053 0 0 0-3.377 4.053 3.378 4.053 0 0 0 3.377 4.054 3.378 4.053 0 0 0 3.378-4.054 3.378 4.053 0 0 0-3.378-4.053zm0 1.351a2.027 2.702 0 0 1 2.027 2.702 2.027 2.702 0 0 1-2.027 2.703 2.027 2.702 0 0 1-2.026-2.703 2.027 2.702 0 0 1 2.026-2.702z" fill-rule="evenodd"/></g></svg>