<svg xmlns="http://www.w3.org/2000/svg" version="1" width="32" height="32"><rect width="28.203" height="28.203" x="1.898" y="1.898" ry="5.575" fill="#4f4f4f" fill-rule="evenodd"/><path d="M5.405 10v12h3v-.264a4.5 4.5 0 0 0 1.5.264 4.5 4.5 0 0 0 4.5-4.5 4.5 4.5 0 0 0-4.5-4.5 4.5 4.5 0 0 0-1.5.264V10zm16 0a6 6 0 0 0-6 6 6 6 0 0 0 6 6 6 6 0 0 0 5.188-3h-5.188a3 3 0 0 1-3-3 3 3 0 0 1 3-3h5.19a6 6 0 0 0-5.19-3zm-11.5 6a1.5 1.5 0 0 1 1.5 1.5 1.5 1.5 0 0 1-1.5 1.5 1.5 1.5 0 0 1-1.5-1.5 1.5 1.5 0 0 1 1.5-1.5z" fill="#74bed2"/></svg>