<svg xmlns="http://www.w3.org/2000/svg" height="32" width="32" version="1"><rect width="28.203" height="28.203" x="1.898" y="1.898" ry="5.575" fill="#ccc" fill-rule="evenodd"/><path d="M16 10.266a8.583 8.583 0 0 0-8.602 8.601A8.583 8.583 0 0 0 16 27.47a8.583 8.583 0 0 0 8.602-8.602A8.583 8.583 0 0 0 16 10.266z" fill="#fff"/><path d="M12.346 4.531c-4.13 0-4.128 4.915-4.128 6.488.59-.59 4.096-4.719 4.096-1.573 0 2.182-.013 4.38 0 6.554v.15c0 .016.005.033.006.05a3.277 3.277 0 0 0 .06.441c.016.08.032.159.053.236.005.018.013.034.018.051a3.277 3.277 0 0 0 .11.314c.03.076.062.151.1.225a3.277 3.277 0 0 0 .211.357c.034.05.07.099.106.147a3.277 3.277 0 0 0 .309.356c.028.028.059.055.09.082a3.277 3.277 0 0 0 .407.322l.054.034a3.277 3.277 0 0 0 .507.264l.018.006a3.277 3.277 0 0 0 .59.178 3.277 3.277 0 0 0 .637.064 3.277 3.277 0 0 0 .62-.062l.086-.02a3.277 3.277 0 0 0 .544-.17l.032-.012A3.277 3.277 0 0 0 18.867 16a3.277 3.277 0 0 0-3.277-3.277 3.277 3.277 0 0 0-.819.107V5.71c0-1.18-1.246-1.179-2.425-1.179zm3.244 9.83A1.638 1.638 0 0 1 17.23 16a1.638 1.638 0 0 1-1.639 1.638A1.638 1.638 0 0 1 13.952 16a1.638 1.638 0 0 1 1.638-1.638z" fill="#3c8cf8"/></svg>