<svg xmlns="http://www.w3.org/2000/svg" xmlns:xlink="http://www.w3.org/1999/xlink" height="32" width="32" version="1"><defs><radialGradient xlink:href="#a" id="b" cx="16.393" cy="16.363" fx="16.393" fy="16.363" r="14.102" gradientUnits="userSpaceOnUse" gradientTransform="matrix(2.06284 .0002 -.00017 1.78703 -17.051 -11.385)"/><linearGradient id="a"><stop offset="0" stop-color="#2c3546"/><stop offset="1" stop-color="#242c3a"/></linearGradient></defs><rect ry="5.575" y="3.109" x="1.85" height="28.203" width="28.203" fill="url(#b)" fill-rule="evenodd"/><path d="M13.45 12.456c-.821-1.875-2.317-1.49-2.32 1.347-.003 1.455.418 2.663.84 3.746 1.463 3.76 4.58 4.524 6.42 3.027-.82.336-1.454.454-1.981.42-1.044-.064-1.834-.513-2.27-.997-1.349-1.497-2.092-3.639-2.126-5.543-.032-1.773.726-2.813 1.447-1.311z" opacity=".1"/><path d="M14.893 8.988c-.47.038-.897.381-1.225 1.121-.784 1.764-.361 5.884 1.395 10.023l.665-.313c-.79-2.2-1.268-4.416-1.174-6.022.21-3.57 1.558-3.733 3.272-.899l.781.078c-1.01-2.2-2.513-4.084-3.714-3.988zm1.12 11.6l-.599.286c.768 1.656 1.731 3.292 2.932 4.757.341.417.658.688.99.769-1.232-1.357-2.428-3.537-3.323-5.813z" opacity=".1"/><path d="M22.339 16.63c2.033.225 2.449-1.263-.007-2.684-1.26-.73-2.515-.969-3.664-1.145-3.988-.613-6.209 1.704-5.833 4.047.12-.878.335-1.487.627-1.927.577-.87 1.362-1.331 2-1.467 1.97-.419 4.193.007 5.863.93 1.551.86 2.072 2.037.411 1.91z" opacity=".1"/><path d="M14.289 22.303c-1.212 1.648-.132 2.752 2.327 1.336 1.261-.726 2.097-1.694 2.824-2.6 2.524-3.146 1.628-6.23-.59-7.075.701.542 1.121 1.033 1.356 1.507.465.934.473 1.845.271 2.464-.623 1.917-2.104 3.63-3.738 4.613-1.52.914-2.8.777-1.859-.598z" opacity=".1"/><path d="M10.564 22.79c.267.39.778.587 1.583.501 1.92-.203 5.276-2.629 7.982-6.219l-.603-.42c-1.51 1.784-3.19 3.306-4.628 4.027-3.196 1.604-4.012.518-2.414-2.383l-.324-.717c-1.4 1.976-2.28 4.22-1.596 5.212zm9.485-6.768l.548.376c1.05-1.493 1.986-3.146 2.654-4.918.19-.504.266-.913.17-1.242-.559 1.746-1.848 3.87-3.372 5.784z" opacity=".1"/><path d="M24.621 19.614c.202-.426.118-.967-.358-1.622-1.136-1.562-4.915-3.255-9.375-3.803l-.061.732c2.299.416 4.457 1.11 5.801 1.995 2.988 1.966 2.455 3.216-.857 3.283l-.459.637c2.412.226 4.794-.134 5.312-1.222zm-10.606-4.829l.051-.662c-1.817-.163-3.716-.147-5.585.16-.531.088-.925.226-1.162.474 1.792-.389 4.277-.335 6.696.029z" opacity=".1"/><g fill="#50b5f4"><path d="M12.78 11.786c-.82-1.874-2.316-1.49-2.32 1.347-.002 1.456.418 2.663.84 3.747 1.463 3.76 4.58 4.524 6.422 3.027-.82.335-1.455.453-1.983.42-1.043-.064-1.834-.513-2.27-.997-1.348-1.498-2.092-3.639-2.125-5.544-.032-1.773.726-2.812 1.447-1.31z"/><path d="M14.223 8.319c-.47.037-.896.381-1.225 1.12-.783 1.765-.36 5.885 1.395 10.023l.665-.313c-.789-2.2-1.267-4.416-1.173-6.021.21-3.57 1.557-3.734 3.271-.9l.782.08c-1.01-2.202-2.513-4.085-3.715-3.989zm1.121 11.6l-.6.286c.768 1.655 1.732 3.292 2.933 4.757.34.416.658.688.99.769-1.232-1.358-2.428-3.537-3.323-5.813z"/><path d="M21.67 15.96c2.033.226 2.448-1.262-.007-2.683-1.26-.73-2.516-.97-3.665-1.146-3.987-.612-6.208 1.704-5.832 4.047.12-.877.335-1.486.627-1.926.577-.87 1.361-1.332 1.999-1.467 1.97-.42 4.194.007 5.863.93 1.552.86 2.073 2.036.412 1.909z"/><path d="M13.62 21.633c-1.213 1.65-.133 2.752 2.326 1.337 1.262-.727 2.097-1.694 2.825-2.601 2.524-3.146 1.627-6.229-.59-7.075.7.543 1.12 1.034 1.356 1.507.464.934.472 1.845.27 2.465-.622 1.916-2.104 3.63-3.737 4.612-1.52.915-2.8.778-1.859-.597z"/><path d="M9.894 22.121c.268.389.778.586 1.583.5 1.92-.203 5.277-2.628 7.983-6.218l-.603-.42c-1.51 1.783-3.19 3.305-4.628 4.027-3.197 1.604-4.012.517-2.415-2.384l-.323-.716c-1.401 1.976-2.28 4.219-1.597 5.211zm9.485-6.768l.549.375c1.05-1.492 1.985-3.145 2.653-4.917.19-.504.267-.914.171-1.243-.56 1.747-1.848 3.871-3.373 5.785z"/><path d="M23.952 18.945c.202-.426.118-.967-.359-1.622-1.136-1.562-4.915-3.255-9.374-3.803l-.061.732c2.299.416 4.457 1.11 5.8 1.994 2.988 1.967 2.456 3.216-.856 3.283l-.46.638c2.413.225 4.795-.134 5.312-1.222zm-10.606-4.83l.051-.662c-1.817-.163-3.716-.147-5.586.161-.53.087-.924.226-1.161.474 1.791-.39 4.277-.335 6.696.028z"/></g></svg>