<svg xmlns="http://www.w3.org/2000/svg" height="32" width="32"><g fill-rule="evenodd"><path d="M8.543 30.102h15.984a5.563 5.563 0 0 0 5.575-5.577V7.473a5.561 5.561 0 0 0-5.575-5.575H8.543z" fill="#3d65c2"/><path d="M8.543 30.102V1.898H7.475a5.563 5.563 0 0 0-5.577 5.575v17.052a5.565 5.565 0 0 0 5.577 5.577z" fill="#31519b"/></g><path d="M16.792 5.632v1.129h-1.346v2.648h1.346v.911h-5.296v2.778h5.296v4.756l-1.042-.458v3.082l1.042.458v6.79h2.821V22.18l.868.382V19.48l-.868-.382v-5.999h5.21V10.32h-5.21V9.41h1.302V6.76h-1.302V5.632z" fill="#ffd972"/></svg>