<svg xmlns="http://www.w3.org/2000/svg" version="1" width="32" height="32"><rect width="28.203" height="28.203" x="1.898" y="1.898" ry="5.575" fill="#0a87c7" fill-rule="evenodd"/><path fill="#086c9f" d="M6.39 4.847h19.22v1.439H6.39z"/><path d="M7.933 5.701v21.452l.403-.454.405-.454.404.454.403.454.405-.454.404-.454.404.454.404.454.404-.454.404-.454.404.454.404.454.404-.454.404-.454.404.454.405.454.404-.454.403-.454.405.454.404.454.404-.454.404-.454.403.454.405.454.404-.454.404-.454.404.454.404.454.404-.454.404-.454.404.454.404.454.405-.454.404-.454.403.454.39.438.39-.438.405-.454.404.454.404.454V5.701z" fill="#fff"/><g aria-label="БИФИТ" style="line-height:1.25;-inkscape-font-specification:'micro.pcf Bold'" font-weight="700" font-size="3.142" font-family="micro.pcf" letter-spacing="0" word-spacing="0" stroke-width=".118"><path d="M10.63 24.512q.185 0 .268-.069.09-.075.09-.218 0-.14-.09-.213-.081-.07-.268-.07h-.347v.57zm.043.402h-.98v-2.29h1.731v.446h-1.141v.426h.39q.434 0 .68.18.225.162.225.53 0 .366-.224.529-.247.18-.681.18zM14.139 22.623v2.291h-.56v-1.571l-.833 1.571h-.66v-2.29h.56v1.57l.833-1.57zM15.198 23.746q0 .23.118.333.12.103.377.125v-.916q-.258.021-.377.125-.118.103-.118.333zm1.581 0q0-.23-.12-.333-.117-.104-.375-.125v.916q.258-.022.376-.125.12-.102.12-.333zm-1.086-1.123h.59v.227q.564.046.834.257.272.21.272.64 0 .429-.272.64-.27.208-.833.254v.273h-.59v-.273q-.564-.046-.836-.255-.271-.21-.271-.64 0-.43.271-.64.272-.21.835-.256zM19.89 22.623v2.291h-.56v-1.571l-.834 1.571h-.66v-2.29h.56v1.57l.834-1.57zM20.197 22.623h2.11v.447h-.759v1.844h-.59V23.07h-.761z" style="-inkscape-font-specification:'micro.pcf Bold'"/></g><path d="M9.699 20.934h3.53v-3.53h-3.53v3.026zm0-4.539h.504v-.504H9.7zm.504-.504h.504v-.504h-.504zm0-.504v-.504H9.7v.504zm0-.504h.504v-.505h-.504zm0-.505v-.504h.504v-.504H9.7v1.008zm.504 1.513v.504h-.504v.505h1.009v-.505h.504v-.504h-.504zm1.009.504v.505h2.017v.504h.504v.504h.504V16.9h-1.008V15.89h-.504v.504h-.505v-.504h.505v-.504H12.22v1.008zm1.513-1.008h.504v.504h1.008v-.504h.505v.504h.504v.504h1.008v1.009h.505v-2.017h-.505v.504h-.504v-.504h.504v-.504h-.504v-.505h-.504v.505h-1.513v-.505h1.513V13.37h-.504v.504h-.505v-.504h-.504v.504h-.504v1.009h-.504zm0-.504v-.505h-.505v-.504h.505v-.504h-.505v-.504h-.504v1.512h-.504v-.504h-.504v1.513h.504v-.504h1.008zm-1.009-2.017v-.505h-.504v.505zm.504 0h.505v-.505h-.505zm1.513.504v-.504h-.504v.504zm.504 0h.505v-.504h.504v-.505h-1.009v.505zm2.522 4.034v.504h.504v1.009h1.513v1.513h-.505v.504h1.009v-1.009h1.513v-1.008h-1.009v-2.522h-.504v-.504h.504v-.504H19.28v.504h-.505v-.504h.505v-1.009H18.27v-.504h1.513v.504h1.008V13.37H19.28v-.504H18.27v-2.522h-1.008v.505H15.75v1.008h.504v-.504h.504v.504h-.504v.504h.504v.505h1.009v1.512h-.504v.505h.504v1.008h.504v.504h-.504v1.009zm-.505-4.538h-.504v1.008h.504v-.504zm.505-2.522V9.84h.504V8.327h-.504v1.009h-.505v.504H15.75v.504h1.008zM15.75 9.84v-.504h-.504v-.504h.504v.504h.504V8.327h-2.017v.505h-.504V9.84h.504V8.832h.504V9.84h.505zm5.547 10.085v1.009h1.008v-.504h-.504v-.505zm.504 0h.504v-.504h-.504zm-5.043-2.521h-.504v.504h.504zm-1.008-1.009h-.504v1.009h.504V16.9zm-1.009 1.513v1.009h-.504v.504h1.009v.504h.504v.505h1.008v.504h1.513v-1.009h.504v-.504h-1.008v.504h-.504v-.504h-.505v.504h-.504v-.504h.504v-.504h-.504v-.505h-.504v.505h-.504v-.505h.504v-.504h-.504zm1.009 2.522h-.504v-.505h-.505v1.009h1.009zm-1.513-1.009h-.504v.504h.504zm0-.504v-.505h-.504v.505zM9.7 12.866h.504v-.505H9.7zm0-1.009h3.53v-3.53h-3.53v3.026zm.504 8.573v-2.522h2.521v2.522h-2.017zm0-9.077V8.832h2.521v2.521h-2.017zm.504 8.572h1.513v-1.513h-1.513v1.009zm0-7.06h.505v-.504h-.505zm0-2.016h1.513V9.336h-1.513v1.008zm3.026 10.085h.504v-.504h-.504zm0-9.077h.504v-.504h-.504zm.504-.504h.504v.504h.505V10.85h-1.009zm0-.504v-.505h-.504v.505zm3.026 1.512v-1.008h.504v1.008zm1.008 6.051V16.9h1.513v1.512h-1.009zm.416-.487h.504v-.504h-.504zm.088-6.068h3.53v-3.53h-3.53v3.026zm.505-.504V8.832H21.8v2.521h-2.017zm.504 1.513h.504v-.505h-.504zm0-2.017h1.513V9.336h-1.513v1.008zm1.008 4.538h.505v-.504h-.505zm.505-.504h.504v.504h-.504v.504h.504v.504h-.504v.505h.504v.504h-.504v.504h.504v1.009h.504V12.866h-.504v.504h-.504v.504h.504v.504h-.504zm.504-2.017v-.505h-.504v.505z"/></svg>