<svg xmlns="http://www.w3.org/2000/svg" width="32" height="32"><rect width="28.203" height="28.203" x="1.898" y="1.898" ry="5.575" fill="#f7931a" fill-rule="evenodd"/><path d="M13.008 7v3h-3v2s1.146-.02 1.128 0c.613-.01.808.436.872.733v6.6c-.024.188-.004.654-.432.667.02.017-1.568 0-1.568 0v2h2.17c.366-.013.476 0 .83 0v3h2v-3h.98l.041 3h1.98l-.021-3c2.543-.185 4.02-1.402 4.004-3.5.016-1.93-1.527-2.994-2.484-3 .957.004 1.5-1.037 1.5-2.5 0-2-1.38-3-3-3V7h-2v3c-.398 0-.596-.015-1 0V7zm2 5c2 0 3 0 3 1.5s-1 1.5-3 1.5zm0 5c2.666 0 4-.167 4 1.5s-1.334 1.5-4 1.5z" fill="#fff"/></svg>