<svg xmlns="http://www.w3.org/2000/svg" height="32" width="32" version="1"><path d="M7.473 1.898a5.561 5.561 0 0 0-5.575 5.575v17.052a5.563 5.563 0 0 0 5.575 5.577h17.054a5.561 5.561 0 0 0 5.575-5.575V7.475a5.563 5.563 0 0 0-5.575-5.577H16z" fill="#666" fill-rule="evenodd"/><path d="M7.475 1.898A5.563 5.563 0 0 0 1.9 7.473V16h28.203V7.473a5.561 5.561 0 0 0-5.574-5.575z" fill="#ececec" fill-rule="evenodd"/><path style="line-height:normal;font-variant-ligatures:normal;font-variant-position:normal;font-variant-caps:normal;font-variant-numeric:normal;font-variant-alternates:normal;font-feature-settings:normal;text-indent:0;text-align:start;text-decoration-line:none;text-decoration-style:solid;text-decoration-color:#000;text-transform:none;text-orientation:mixed;white-space:normal;shape-padding:0;isolation:auto;mix-blend-mode:normal;solid-color:#000;solid-opacity:1" d="M22.98 7.572l-.654-.003-.573-.004c-.853-2.38-3.125-4.09-5.795-4.09-2.61 0-4.838 1.631-5.735 3.926-.012.027-.031.074-.035.08a.135.135 0 0 0-.014.05c0 .012-.011.027-.025.032-.014.006-.318.01-.677.01h-.651v.55l.577.004c.505.003.579.007.574.028l-.036.141c-.038.153-.11.574-.131.763a5.062 5.062 0 0 0-.03.692c.003.772.132 1.466.402 2.18.225.592.58 1.2.993 1.698.846 1.02 1.912 1.698 3.228 2.053.267.072.785.155 1.09.174l.161.011v.94h.566v-.94l.138-.01a4.91 4.91 0 0 0 .37-.041 6.144 6.144 0 0 0 1.172-.274 6.163 6.163 0 0 0 3.096-2.368c.037-.051.074-.103.109-.156.022-.034.042-.07.064-.105.6-.95.954-2.073.954-3.279 0-.52-.073-1.022-.195-1.504.052-.004.23-.007.5-.007h.557v-.275zm-1.572 2.063a5.44 5.44 0 0 1-5.193 5.437v-2.575h2.255l.064-.038a.314.314 0 0 0 .1-.1c.033-.06.036-.08.036-.42 0-.375-.004-.39-.078-.47-.061-.066-.121-.088-.257-.093l-.122-.004.65-.651.653-.652.17.168c.11.108.19.173.222.182.06.017.136 0 .182-.042.017-.015.213-.396.435-.846.585-1.18.66-1.33.68-1.357.13.465.203.954.203 1.46zm-.27-1.695l-.491.243-1.16.574a8.49 8.49 0 0 0-.665.35.177.177 0 0 0-.04.194c.011.029.092.121.178.207l.157.157-.857.857-.857.857h-3.005l-1.84-1.839-1.732-1.732a5.442 5.442 0 0 1 5.132-3.624 5.445 5.445 0 0 1 5.18 3.756zm-5.489 4.557v2.573a5.44 5.44 0 0 1-5.01-6.62c.086.07.523.497 1.423 1.397l1.534 1.532h-.121c-.138 0-.192.017-.255.077-.086.081-.089.098-.089.484 0 .35.002.36.038.422a.311.311 0 0 0 .1.099l.063.036h1.158z" color="#000" font-weight="400" font-family="sans-serif" overflow="visible" fill="#666"/><path style="line-height:normal;font-variant-ligatures:normal;font-variant-position:normal;font-variant-caps:normal;font-variant-numeric:normal;font-variant-alternates:normal;font-feature-settings:normal;text-indent:0;text-align:start;text-decoration-line:none;text-decoration-style:solid;text-decoration-color:#000;text-transform:none;text-orientation:mixed;white-space:normal;shape-padding:0;isolation:auto;mix-blend-mode:normal;solid-color:#000;solid-opacity:1" d="M25.605 7.563h-3.853v.56h3.293v9.754h.56V8.124zM6.382 7.558h3.853v.56H6.942v9.753h-.56V8.118zM16.215 15.072h-.56v3.178h.56z" color="#000" font-weight="400" font-family="sans-serif" overflow="visible" fill="#666"/><path d="M19.238 30.102a3.858 3.858 0 0 0 .088-.143 3.858 3.858 0 0 0 .168-.348 3.858 3.858 0 0 0 .132-.361 3.858 3.858 0 0 0 .096-.375 3.858 3.858 0 0 0 .057-.38 3.858 3.858 0 0 0 .02-.386 3.858 3.858 0 0 0-.01-.273 3.858 3.858 0 0 0-.047-.383 3.858 3.858 0 0 0-.084-.377 3.858 3.858 0 0 0-.121-.365 3.858 3.858 0 0 0-.159-.352 3.858 3.858 0 0 0-.191-.336 3.858 3.858 0 0 0-.225-.312 3.858 3.858 0 0 0-.254-.291 3.858 3.858 0 0 0-.283-.262 3.858 3.858 0 0 0-.306-.234 3.858 3.858 0 0 0-.328-.201 3.858 3.858 0 0 0-.348-.168 3.858 3.858 0 0 0-.363-.133 3.858 3.858 0 0 0-.373-.094 3.858 3.858 0 0 0-.381-.058 3.858 3.858 0 0 0-.385-.02 3.858 3.858 0 0 0-.274.01 3.858 3.858 0 0 0-.382.047 3.858 3.858 0 0 0-.377.084 3.858 3.858 0 0 0-.366.123 3.858 3.858 0 0 0-.353.156 3.858 3.858 0 0 0-.334.191 3.858 3.858 0 0 0-.313.225 3.858 3.858 0 0 0-.29.256 3.858 3.858 0 0 0-.262.281 3.858 3.858 0 0 0-.235.307 3.858 3.858 0 0 0-.2.33 3.858 3.858 0 0 0-.169.346 3.858 3.858 0 0 0-.133.363 3.858 3.858 0 0 0-.095.373 3.858 3.858 0 0 0-.057.383 3.858 3.858 0 0 0-.02.384 3.858 3.858 0 0 0 .01.272 3.858 3.858 0 0 0 .047.385 3.858 3.858 0 0 0 .084.375 3.858 3.858 0 0 0 .121.367 3.858 3.858 0 0 0 .158.351 3.858 3.858 0 0 0 .14.243z" fill="#343b37" fill-rule="evenodd"/><path d="M22.517 30.102a6.875 6.875 0 0 0 .16-.627 6.875 6.875 0 0 0 .104-.68 6.875 6.875 0 0 0 .033-.686 6.875 6.875 0 0 0-.016-.486 6.875 6.875 0 0 0-.084-.682 6.875 6.875 0 0 0-.15-.671 6.875 6.875 0 0 0-.217-.653 6.875 6.875 0 0 0-.281-.627 6.875 6.875 0 0 0-.342-.595 6.875 6.875 0 0 0-.398-.559 6.875 6.875 0 0 0-.453-.518 6.875 6.875 0 0 0-.504-.466 6.875 6.875 0 0 0-.547-.416 6.875 6.875 0 0 0-.586-.36 6.875 6.875 0 0 0-.62-.299 6.875 6.875 0 0 0-.644-.236 6.875 6.875 0 0 0-.666-.17 6.875 6.875 0 0 0-.68-.101 6.875 6.875 0 0 0-.685-.036 6.875 6.875 0 0 0-.486.018 6.875 6.875 0 0 0-.684.082 6.875 6.875 0 0 0-.67.15 6.875 6.875 0 0 0-.652.217 6.875 6.875 0 0 0-.627.281 6.875 6.875 0 0 0-.596.342 6.875 6.875 0 0 0-.558.4 6.875 6.875 0 0 0-.518.454 6.875 6.875 0 0 0-.469.502 6.875 6.875 0 0 0-.414.547 6.875 6.875 0 0 0-.36.586 6.875 6.875 0 0 0-.298.619 6.875 6.875 0 0 0-.236.646 6.875 6.875 0 0 0-.17.664 6.875 6.875 0 0 0-.104.68 6.875 6.875 0 0 0-.033.687 6.875 6.875 0 0 0 .018.487 6.875 6.875 0 0 0 .082.681 6.875 6.875 0 0 0 .15.67 6.875 6.875 0 0 0 .05.155h3.274a3.858 3.858 0 0 1-.139-.243 3.858 3.858 0 0 1-.158-.351 3.858 3.858 0 0 1-.12-.367 3.858 3.858 0 0 1-.085-.375 3.858 3.858 0 0 1-.047-.385 3.858 3.858 0 0 1-.01-.272 3.858 3.858 0 0 1 .02-.384 3.858 3.858 0 0 1 .057-.383 3.858 3.858 0 0 1 .095-.373 3.858 3.858 0 0 1 .133-.363 3.858 3.858 0 0 1 .168-.346 3.858 3.858 0 0 1 .201-.33 3.858 3.858 0 0 1 .235-.307 3.858 3.858 0 0 1 .261-.281 3.858 3.858 0 0 1 .291-.256 3.858 3.858 0 0 1 .313-.225 3.858 3.858 0 0 1 .334-.191 3.858 3.858 0 0 1 .353-.156 3.858 3.858 0 0 1 .366-.123 3.858 3.858 0 0 1 .377-.084 3.858 3.858 0 0 1 .382-.047 3.858 3.858 0 0 1 .274-.01 3.858 3.858 0 0 1 .385.02 3.858 3.858 0 0 1 .38.058 3.858 3.858 0 0 1 .374.094 3.858 3.858 0 0 1 .363.133 3.858 3.858 0 0 1 .348.168 3.858 3.858 0 0 1 .328.2 3.858 3.858 0 0 1 .306.235 3.858 3.858 0 0 1 .283.262 3.858 3.858 0 0 1 .254.29 3.858 3.858 0 0 1 .225.313 3.858 3.858 0 0 1 .191.336 3.858 3.858 0 0 1 .159.352 3.858 3.858 0 0 1 .12.365 3.858 3.858 0 0 1 .085.377 3.858 3.858 0 0 1 .047.383 3.858 3.858 0 0 1 .01.273 3.858 3.858 0 0 1-.02.385 3.858 3.858 0 0 1-.057.381 3.858 3.858 0 0 1-.096.375 3.858 3.858 0 0 1-.132.361 3.858 3.858 0 0 1-.168.348 3.858 3.858 0 0 1-.088.143z" fill="#48524f" fill-rule="evenodd"/><path d="M24.046 30.102a8.358 8.358 0 0 0 .084-.332 8.358 8.358 0 0 0 .125-.827 8.358 8.358 0 0 0 .043-.834 8.358 8.358 0 0 0-.021-.591 8.358 8.358 0 0 0-.102-.83 8.358 8.358 0 0 0-.181-.815 8.358 8.358 0 0 0-.264-.793 8.358 8.358 0 0 0-.342-.762 8.358 8.358 0 0 0-.416-.724 8.358 8.358 0 0 0-.484-.68 8.358 8.358 0 0 0-.553-.629 8.358 8.358 0 0 0-.611-.568 8.358 8.358 0 0 0-.664-.506 8.358 8.358 0 0 0-.713-.438 8.358 8.358 0 0 0-.752-.363 8.358 8.358 0 0 0-.785-.285 8.358 8.358 0 0 0-.809-.207 8.358 8.358 0 0 0-.826-.125 8.358 8.358 0 0 0-.834-.041 8.358 8.358 0 0 0-.592.02 8.358 8.358 0 0 0-.83.101 8.358 8.358 0 0 0-.814.184 8.358 8.358 0 0 0-.793.261 8.358 8.358 0 0 0-.762.342 8.358 8.358 0 0 0-.725.416 8.358 8.358 0 0 0-.68.487 8.358 8.358 0 0 0-.628.55 8.358 8.358 0 0 0-.569.612 8.358 8.358 0 0 0-.505.666 8.358 8.358 0 0 0-.438.71 8.358 8.358 0 0 0-.363.753 8.358 8.358 0 0 0-.285.785 8.358 8.358 0 0 0-.207.81 8.358 8.358 0 0 0-.125.826 8.358 8.358 0 0 0-.043.834 8.358 8.358 0 0 0 .021.59 8.358 8.358 0 0 0 .102.83 8.358 8.358 0 0 0 .127.573h1.535a6.875 6.875 0 0 1-.051-.155 6.875 6.875 0 0 1-.15-.67 6.875 6.875 0 0 1-.082-.681 6.875 6.875 0 0 1-.018-.487 6.875 6.875 0 0 1 .033-.687 6.875 6.875 0 0 1 .104-.68 6.875 6.875 0 0 1 .17-.664 6.875 6.875 0 0 1 .236-.646 6.875 6.875 0 0 1 .299-.62 6.875 6.875 0 0 1 .36-.585 6.875 6.875 0 0 1 .413-.547 6.875 6.875 0 0 1 .469-.502 6.875 6.875 0 0 1 .517-.453 6.875 6.875 0 0 1 .56-.4 6.875 6.875 0 0 1 .595-.343 6.875 6.875 0 0 1 .627-.28 6.875 6.875 0 0 1 .652-.218 6.875 6.875 0 0 1 .67-.15 6.875 6.875 0 0 1 .684-.082 6.875 6.875 0 0 1 .486-.018 6.875 6.875 0 0 1 .685.036 6.875 6.875 0 0 1 .68.101 6.875 6.875 0 0 1 .666.17 6.875 6.875 0 0 1 .645.236 6.875 6.875 0 0 1 .619.3 6.875 6.875 0 0 1 .586.359 6.875 6.875 0 0 1 .547.416 6.875 6.875 0 0 1 .504.466 6.875 6.875 0 0 1 .453.518 6.875 6.875 0 0 1 .398.559 6.875 6.875 0 0 1 .342.595 6.875 6.875 0 0 1 .281.627 6.875 6.875 0 0 1 .217.653 6.875 6.875 0 0 1 .15.671 6.875 6.875 0 0 1 .084.682 6.875 6.875 0 0 1 .016.486 6.875 6.875 0 0 1-.033.686 6.875 6.875 0 0 1-.104.68 6.875 6.875 0 0 1-.16.627z" fill="#5c92c7" fill-rule="evenodd"/><path d="M1.898 16v8.527a5.561 5.561 0 0 0 5.574 5.575h.36a8.358 8.358 0 0 1-.127-.573 8.358 8.358 0 0 1-.102-.83 8.358 8.358 0 0 1-.021-.59 8.358 8.358 0 0 1 .043-.834 8.358 8.358 0 0 1 .125-.826 8.358 8.358 0 0 1 .207-.81 8.358 8.358 0 0 1 .285-.785 8.358 8.358 0 0 1 .363-.752 8.358 8.358 0 0 1 .438-.711 8.358 8.358 0 0 1 .505-.666 8.358 8.358 0 0 1 .569-.612 8.358 8.358 0 0 1 .629-.55 8.358 8.358 0 0 1 .68-.487 8.358 8.358 0 0 1 .724-.416 8.358 8.358 0 0 1 .762-.342 8.358 8.358 0 0 1 .793-.261 8.358 8.358 0 0 1 .814-.184 8.358 8.358 0 0 1 .83-.101 8.358 8.358 0 0 1 .592-.02 8.358 8.358 0 0 1 .834.041 8.358 8.358 0 0 1 .826.125 8.358 8.358 0 0 1 .809.207 8.358 8.358 0 0 1 .785.285 8.358 8.358 0 0 1 .752.363 8.358 8.358 0 0 1 .713.438 8.358 8.358 0 0 1 .664.506 8.358 8.358 0 0 1 .611.568 8.358 8.358 0 0 1 .553.63 8.358 8.358 0 0 1 .484.679 8.358 8.358 0 0 1 .416.724 8.358 8.358 0 0 1 .342.762 8.358 8.358 0 0 1 .264.793 8.358 8.358 0 0 1 .181.815 8.358 8.358 0 0 1 .102.83 8.358 8.358 0 0 1 .021.591 8.358 8.358 0 0 1-.043.834 8.358 8.358 0 0 1-.125.827 8.358 8.358 0 0 1-.084.332h.479a5.563 5.563 0 0 0 5.576-5.575V16z" fill="#46719d" fill-rule="evenodd"/><circle cx="15.94" cy="28.109" r="1.479" fill="#d0d2d1"/><rect width="3.815" height="2.514" x="24.741" y="18.817" ry=".976" fill="#fff"/></svg>