<svg xmlns="http://www.w3.org/2000/svg" version="1" width="32" height="32"><rect width="28.203" height="28.203" x="1.898" y="1.898" ry="5.575" fill="#175ddc" fill-rule="evenodd"/><path d="M16 7s-7.106.004-7.286.112c-.383.23-.364-.054-.364 5.304 0 5.437-.007 5.328.411 6.382.481 1.213 1.256 2.238 2.528 3.353 1.068.935 2.333 1.78 3.744 2.499.477.243.725.354.967.35.242.004.49-.107.967-.35 1.41-.718 2.676-1.564 3.744-2.5 1.272-1.114 2.046-2.139 2.528-3.352.418-1.054.411-.945.411-6.382 0-5.358.02-5.074-.364-5.304C23.106 7.004 16 7 16 7zm4.931 2.712s.013 6.781-.025 7.365c-.038.585.041.175-.177.727-.307.774-.734 1.386-1.797 2.316-.807.707-1.823 1.36-2.932 1.951l-.45-.265V9.702z" fill="#efefef"/></svg>