<?xml version="1.0" encoding="UTF-8" standalone="no"?>
<svg
   xmlns:dc="http://purl.org/dc/elements/1.1/"
   xmlns:cc="http://creativecommons.org/ns#"
   xmlns:rdf="http://www.w3.org/1999/02/22-rdf-syntax-ns#"
   xmlns:svg="http://www.w3.org/2000/svg"
   xmlns="http://www.w3.org/2000/svg"
   xmlns:sodipodi="http://sodipodi.sourceforge.net/DTD/sodipodi-0.dtd"
   xmlns:inkscape="http://www.inkscape.org/namespaces/inkscape"
   version="1"
   width="32"
   height="32"
   id="svg12"
   sodipodi:docname="bitwarden.svg"
   inkscape:version="1.0.1 (3bc2e813f5, 2020-09-07)">
  <metadata
     id="metadata18">
    <rdf:RDF>
      <cc:Work
         rdf:about="">
        <dc:format>image/svg+xml</dc:format>
        <dc:type
           rdf:resource="http://purl.org/dc/dcmitype/StillImage" />
        <dc:title />
      </cc:Work>
    </rdf:RDF>
  </metadata>
  <defs
     id="defs16" />
  <sodipodi:namedview
     pagecolor="#ffffff"
     bordercolor="#666666"
     borderopacity="1"
     objecttolerance="10"
     gridtolerance="10"
     guidetolerance="10"
     inkscape:pageopacity="0"
     inkscape:pageshadow="2"
     inkscape:window-width="1755"
     inkscape:window-height="1014"
     id="namedview14"
     showgrid="false"
     inkscape:zoom="17.257743"
     inkscape:cx="10.418014"
     inkscape:cy="16.035935"
     inkscape:window-x="586"
     inkscape:window-y="536"
     inkscape:window-maximized="0"
     inkscape:current-layer="svg12"
     showguides="true"
     inkscape:guide-bbox="true"
     inkscape:document-rotation="0" />
  <rect
     style="opacity:1;fill:#175ddc;fill-opacity:1;fill-rule:evenodd;stroke:none;stroke-width:1.03534329;stroke-linecap:round;stroke-linejoin:bevel;stroke-miterlimit:4;stroke-dasharray:none;stroke-dashoffset:0;stroke-opacity:1"
     id="rect4497-3"
     width="28.203388"
     height="28.203388"
     x="1.8983059"
     y="1.8983059"
     ry="5.575182" />
  <path
     style="fill:#efefef;stroke-width:0.899995"
     d="m 15.999995,6.9999999 c 0,0 -7.1055574,0.00423 -7.2860965,0.1124095 -0.3832182,0.2297689 -0.3638683,-0.05472 -0.3638683,5.3037646 0,5.436875 -0.00693,5.327975 0.4112981,6.38187 0.4811377,1.213194 1.2557637,2.23829 2.5280877,3.352484 1.067395,0.935096 2.33279,1.781092 3.743983,2.499288 0.476998,0.242999 0.724497,0.353699 0.966596,0.350099 0.242098,0.0036 0.489597,-0.1071 0.966595,-0.350099 1.411194,-0.718196 2.676588,-1.564192 3.743983,-2.499288 1.272594,-1.114194 2.046591,-2.13929 2.528088,-3.352484 0.418498,-1.053895 0.411298,-0.944995 0.411298,-6.38187 0,-5.3584844 0.0198,-5.0739957 -0.363598,-5.3037646 C 23.105462,7.0041399 15.999995,6.9999999 15.999995,6.9999999 Z m 4.931077,2.7122268 c 0,0 0.0126,6.7809283 -0.0252,7.3650253 -0.0378,0.584997 0.0414,0.174599 -0.177299,0.726297 -0.306898,0.774896 -0.733496,1.385993 -1.796391,2.316589 -0.807297,0.706496 -1.823393,1.360793 -2.932187,1.951191 L 15.549997,21.80583 V 9.7016967 Z"
     id="path10" />
</svg>
