<svg xmlns="http://www.w3.org/2000/svg" height="32" width="32"><rect width="28.203" height="28.203" x="1.898" y="1.898" ry="5.575" fill="#e9a84a" fill-rule="evenodd"/><path d="M15.727 6.779a1.383 1.382 0 0 0-.786 2.49l1.571 1.208H8.87a1.384 1.383 0 1 0 0 2.765h3.466l-5.664 4.112a1.383 1.382 0 1 0 1.625 2.236l2.896-2.101a7.377 7.372 0 0 0-.018.36 7.377 7.372 0 0 0 7.377 7.373 7.377 7.372 0 0 0 7.377-7.374 7.377 7.372 0 0 0-3.207-6.079 1.383 1.382 0 0 0-.099-.084l-5.994-4.608a1.383 1.382 0 0 0-.901-.298z" fill="#fff"/><path d="M18.834 13.872a4.256 4.256 0 0 1 4.256 4.256 4.256 4.256 0 0 1-4.256 4.257 4.256 4.256 0 0 1-4.256-4.257 4.256 4.256 0 0 1 4.256-4.256z" fill="#f4b43f"/><circle cy="18.128" cx="18.834" r="2.128" fill="#2397ff"/></svg>