<svg xmlns="http://www.w3.org/2000/svg" height="32" width="32" version="1"><g fill-rule="evenodd"><path d="M30.102 8.6V7.473a5.561 5.561 0 0 0-5.575-5.575H13.23c-.024 1.025-.176 2.055-.11 3.047 1.78-.248 3.544-.309 5.272-.195 1.727.114 3.42.4 5.056.848a26.006 26.006 0 0 1 4.729 1.804c.677.337 1.28.804 1.926 1.198zM30.102 18.664v-8.303c-.19-.122-.35-.283-.543-.4a25.525 25.525 0 0 0-8.625-3.285 25.863 25.863 0 0 0-4.752-.426c-.963.002-1.935.056-2.914.166a23.533 23.533 0 0 0 1.015 3.959 21.902 21.902 0 0 0 1.793 3.848c1.65.035 3.255.219 4.807.537a26.095 26.095 0 0 1 8.574 3.422c.229.142.42.333.645.482zM14.871 30.102h9.656a5.561 5.561 0 0 0 5.575-5.575v-3.814c-.282-.21-.52-.458-.813-.658a26.986 26.986 0 0 0-3.75-2.15 26.415 26.415 0 0 1-2.959 5.218 26.783 26.783 0 0 1-3.969 4.35c-1.15 1.012-2.441 1.83-3.74 2.629zM2.342 26.709a5.559 5.559 0 0 0 5.13 3.393h4.333c.042-.02.09-.025.132-.045a24.708 24.708 0 0 0 5-3.176 25.123 25.123 0 0 0 4.165-4.34 25.794 25.794 0 0 0 3.105-5.375 27.095 27.095 0 0 0-3.955-1.066 22.621 22.621 0 0 0-4.176-.407 25.519 25.519 0 0 1-2.951 3.971 25.81 25.81 0 0 1-3.563 3.256 26.554 26.554 0 0 1-4.044 2.52c-1.022.515-2.101.887-3.176 1.269z" fill="#ccc"/><path d="M2.86 4.521c-.556.868-.962 1.84-.962 2.952v17.054c0 .246.109.455.14.692.764-.274 1.547-.493 2.282-.842a25.727 25.727 0 0 0 3.774-2.203 28.983 28.983 0 0 1-2.576-4.31 27.827 27.827 0 0 1-1.74-4.573 27.023 27.023 0 0 1-.891-4.73c-.13-1.343-.101-2.692-.028-4.04z" fill="#ccc"/><path d="M11.545 1.898H7.473c-1.097 0-2.058.396-2.918.938-.18 1.423-.288 2.862-.223 4.307.074 1.639.308 3.278.705 4.89a24.667 24.667 0 0 0 1.688 4.725c.729 1.528 1.627 3 2.697 4.385 1.035-.81 1.996-1.768 2.883-2.817.887-1.049 1.7-2.189 2.44-3.367a24.445 24.445 0 0 1-1.794-3.877 24.87 24.87 0 0 1-1.08-4.035 25.37 25.37 0 0 1-.394-4.094c-.006-.355.059-.7.068-1.055z" fill="#ccc"/><path d="M11.545 1.898c-.01.354-.074.7-.068 1.055a25.37 25.37 0 0 0 .394 4.094 24.87 24.87 0 0 0 1.08 4.035 24.445 24.445 0 0 0 1.793 3.877 29.513 29.513 0 0 1-2.44 3.367c-.886 1.05-1.847 2.007-2.882 2.817a24.288 24.288 0 0 1-2.697-4.385 24.667 24.667 0 0 1-1.688-4.725 25.205 25.205 0 0 1-.705-4.89c-.065-1.445.043-2.884.223-4.307A5.426 5.426 0 0 0 2.859 4.52c-.073 1.348-.103 2.697.028 4.04.154 1.593.451 3.174.89 4.73a27.827 27.827 0 0 0 1.74 4.572 28.983 28.983 0 0 0 2.577 4.31c-1.196.841-2.46 1.581-3.774 2.204-.735.349-1.518.568-2.283.842.066.511.11 1.032.305 1.49 1.075-.382 2.154-.754 3.176-1.27a26.554 26.554 0 0 0 4.044-2.52 25.81 25.81 0 0 0 3.563-3.255 25.519 25.519 0 0 0 2.951-3.97c1.405 0 2.808.148 4.176.406 1.367.257 2.698.624 3.955 1.066a25.794 25.794 0 0 1-3.105 5.375 25.123 25.123 0 0 1-4.165 4.34 24.708 24.708 0 0 1-5 3.176c-.042.02-.09.025-.132.045h3.066c1.299-.798 2.59-1.617 3.74-2.63a26.783 26.783 0 0 0 3.97-4.349 26.415 26.415 0 0 0 2.958-5.219 26.986 26.986 0 0 1 3.75 2.15c.292.201.53.449.813.659v-2.049c-.224-.15-.416-.34-.645-.482a26.095 26.095 0 0 0-8.574-3.422 26.815 26.815 0 0 0-4.807-.537 21.902 21.902 0 0 1-1.793-3.848 23.533 23.533 0 0 1-1.015-3.959c.98-.11 1.951-.164 2.914-.166a25.863 25.863 0 0 1 4.752.426 25.536 25.536 0 0 1 8.625 3.285c.192.117.353.278.543.4V8.6c-.647-.394-1.249-.861-1.926-1.198a26.006 26.006 0 0 0-4.729-1.804 25.59 25.59 0 0 0-10.328-.653c-.066-.992.086-2.022.11-3.047z" fill="#666"/></g></svg>