<svg xmlns="http://www.w3.org/2000/svg" height="32" width="32" version="1"><path d="M1.898 20.787h9.315v-9.574H1.898v9.574z" fill="#20c931" fill-rule="evenodd"/><path d="M11.213 20.787h9.574v-9.574h-9.574v9.574z" fill="#3182c6" fill-rule="evenodd"/><path d="M20.787 20.787v9.315h3.74a5.561 5.561 0 0 0 5.575-5.575v-3.74h-9.315z" fill="#278e33" fill-rule="evenodd"/><path d="M11.213 20.787v9.315h9.574v-9.315h-9.574z" fill="#1e4f77" fill-rule="evenodd"/><path d="M11.213 30.102v-9.315H1.898v3.74a5.561 5.561 0 0 0 5.575 5.575h3.74z" fill="#278e33" fill-rule="evenodd"/><path d="M30.102 11.213h-9.315v9.574h9.315v-9.574z" fill="#20c931" fill-rule="evenodd"/><path d="M20.787 1.898v9.315h9.315v-3.74a5.561 5.561 0 0 0-5.575-5.575h-3.74z" fill="#66fe76" fill-rule="evenodd"/><path d="M1.898 11.213h9.315V1.898h-3.74a5.561 5.561 0 0 0-5.575 5.575v3.74z" fill="#66b7fe" fill-rule="evenodd"/><path d="M11.213 1.898v9.315h9.574V1.898h-9.574z" fill="#4799e2" fill-rule="evenodd"/></svg>