<svg xmlns="http://www.w3.org/2000/svg" height="32" width="32" version="1"><rect width="28.203" height="28.203" x="1.898" y="1.898" ry="5.575" fill="#35b9f5" fill-rule="evenodd"/><g fill="#fff"><path d="M13.711 14.417l2.561-.001c.592 0 1.076-.433 1.086-1.027.01-.6-.469-1.137-1.069-1.146l-2.544.003a1.086 1.086 0 0 0-.034 2.171zM18.528 17.22h-5.089a1.086 1.086 0 0 0 0 2.172h5.089a1.086 1.086 0 1 0 0-2.171z"/><path d="M16 6.966a9.034 9.034 0 1 0 0 18.068 9.034 9.034 0 0 0 0-18.068zm5.157 14.236c-.698.72-1.683 1.104-2.85 1.114h-4.645c-1.308 0-2.317-.368-3-1.095-.682-.727-.901-1.711-.901-3.077.001-.095-.008-.186-.002-.277l.002-4.804c.057-1.191.589-1.928.99-2.35.647-.682 1.562-1.027 2.72-1.027h.033l2.977-.003.028.001c1.947.054 3.35 1.409 3.364 3.294.05.566.019 1.09-.091 1.562.654.02 1.462.134 1.985.81.462.598.465 1.276.469 2.216 0 .192.006.681.006.681-.012 1.216-.388 2.239-1.085 2.955z"/></g></svg>