<svg xmlns="http://www.w3.org/2000/svg" width="32" height="32"><rect width="28.203" height="28.203" x="1.898" y="1.898" ry="5.575" fill="#e6e6e6" fill-rule="evenodd"/><g stroke-width="1.47"><path d="M16.606 11.638c-.11.001-.23.011-.297.023-.43.073-.773.231-.951.447a.593.593 0 0 0-.109.584c.01.027.016.053.012.057-.005.005-.426.05-.934.103-.414.044-.641.075-.762.092l-.103.011-.068.006c-.002.001.005.018.005.023v.011c.005.038.023.12.069.28.082.286.099.345.086.345-.003 0-.046-.03-.092-.063a1 1 0 0 0-.55-.212.576.576 0 0 0-.48.189c-.004.003-.009.002-.012.005a.617.617 0 0 0-.149.206c-.07.144-.105.272-.114.441-.012.198.032.449.103.613l.023.058h.097c.253 0 .453-.325.664-.424.148-.037.419-.037.602 0 .659.13 1.153.578 1.128 1.025-.007.119-.05.197-.155.303a1.68 1.68 0 0 1-.4.275c-.07.038-.186.104-.259.143a3.9 3.9 0 0 0-.229.138c-.104.07-.234.184-.234.212 0 .024.065.023.343-.006.12-.012.218-.031.32-.046.5-.071.834-.168 1.095-.338.247-.161.434-.417.504-.687.011-.044.022-.074.028-.074.007 0 .052.023.098.051.294.183.536.25.738.206.182-.038.356-.147.676-.423.085-.074.159-.138.166-.138.008 0 .074.146.15.32.074.175.144.327.154.339.017.02.031.022.303-.023.155-.026.286-.057.292-.063.016-.015-.043-.216-.097-.344a1.146 1.146 0 0 0-.418-.51 2.977 2.977 0 0 0-.533-.246c-.285-.109-.432-.179-.567-.269-.133-.09-.262-.208-.246-.223a.711.711 0 0 1 .103-.04c.403-.14.678-.405.86-.83.074-.176.134-.4.234-.843.045-.2.104-.427.126-.504a.739.739 0 0 0 .034-.154l-.017.006c-.04.008-.269.114-.83.395-.462.23-.847.42-.853.418a4.996 4.996 0 0 1 .326-.298l.367-.32c.009-.01.007-.018.011-.03a.264.264 0 0 0 .011-.091c0-.095-.003-.102-.034-.115a1.073 1.073 0 0 0-.235-.011z" fill="#4f4f4f"/><path d="M20.86 7.984a.486.486 0 0 0-.344.195.68.68 0 0 0-.155.487c.025.243.097.443.39 1.025.16.32.213.448.269.704.078.362.11.68.109 1.1-.001.387-.025.669-.086 1.037-.054.322-.147.71-.166.704-.03-.01-.065-.311-.092-.75-.031-.517-.058-.725-.103-.928-.12-.543-.387-.772-.83-.705-.125.019-.325.08-.344.103-.008.01.037.168.16.522.097.278.178.51.178.515 0 .017-.071.042-.086.029a4.517 4.517 0 0 1-.155-.218 5.73 5.73 0 0 0-.355-.481c-.298-.354-.62-.523-.956-.504-.122.007-.307.048-.338.075-.022.018-.017.05.4 1.568l.43 1.553-.097.95c-.053.525-.103.966-.109.98-.009.025-.01.028-.183.028-.097 0-.294-.007-.435-.017-.313-.022-.704-.025-.837-.006a3.364 3.364 0 0 0-2.01 1.174c-.386.46-.714 1.044-1.036 1.85-.097.242-.306.822-.355.98-.122.388-.19.801-.2 1.248-.01.398.02.725.102 1.06.097.39.242.694.441.95.048.061.1.116.155.172l.006.005.006.006v.006c.257.257.536.408.893.48.254.053.699.062.699.013 0-.008-.078-.239-.172-.51a17.469 17.469 0 0 1-.172-.504c0-.012.047-.04.069-.04.005 0 .065.083.131.183.267.405.472.637.705.796.138.095.32.167.464.189.089.014.302.012.39-.006a.779.779 0 0 0 .228-.074l-.687-1.129c.45.351 1.042.69 1.46.808.524.147 1.018.076 1.392-.206.119-.09.241-.21.235-.229a23.39 23.39 0 0 0-.968-.413c-.53-.219-.965-.404-.968-.412-.007-.02.41.003.865.052l.527.057c.467.05.572.057.893.057.342 0 .491-.014.75-.068a3.135 3.135 0 0 0 1.191-.556c.144-.109.215-.175.207-.189-.005-.007-.573-.005-1.673 0-1.132.006-1.647.002-1.666-.006h-.011a2.278 2.278 0 0 1 .131-.36c.005-.006.048.008.092.034.762.453 2.405.336 3.596-.258.342-.17.567-.331.79-.555.268-.268.425-.561.447-.842.007-.083.004-.086-.017-.086-.026 0-.441.114-.664.183l-.47.149c-1.155.365-1.635.464-2.262.476-.359.006-.68-.015-.67-.046.012-.035.5-.203.83-.287.283-.071.431-.102 1.088-.234.972-.196 1.324-.288 1.753-.459.906-.36 1.419-.948 1.58-1.804.042-.222.068-.612.04-.612-.005 0-.47.262-1.036.578-.566.316-1.035.571-1.042.567a.54.54 0 0 1-.075-.166c.003-.003.076-.043.166-.092.435-.233.764-.48 1.123-.836.67-.667 1.06-1.437 1.156-2.262a3.794 3.794 0 0 0-.017-.83c-.04-.241-.136-.597-.165-.607-.007-.002-.412.581-.894 1.294-1.015 1.5-1.068 1.577-1.076 1.569-.019-.018.223-.446.63-1.122.175-.293.365-.61.417-.705.13-.233.314-.62.384-.802.246-.64.28-1.182.109-1.7-.05-.151-.17-.396-.263-.539-.093-.141-.232-.32-.247-.315-.006.002-.285.66-.618 1.46l-.607 1.455-.842 1.437c-.842 1.44-.879 1.51-.888 1.5-.007-.006.07-.222.15-.417.197-.489.4-.878.955-1.833.355-.61.515-.895.659-1.18.447-.885.663-1.601.716-2.382.01-.159.01-.234 0-.337-.056-.54-.246-1.211-.447-1.587-.117-.218-.267-.392-.4-.458-.061-.03-.081-.034-.178-.034-.1 0-.118.003-.195.04-.187.087-.24.225-.24.578 0 .19.014.338.074.762l.04.297-.005.338a6.489 6.489 0 0 1-.046.757c-.076.688-.263 1.479-.54 2.319-.103.316-.256.758-.273.784-.04.062.058-.392.257-1.208.327-1.339.405-1.816.418-2.491.01-.468-.022-.79-.109-1.169a1.563 1.563 0 0 0-.149-.44c-.214-.435-.588-.895-.893-1.094-.158-.103-.3-.147-.43-.138z" fill="#7767c0"/><path d="M14.614 15.171a6.723 6.723 0 0 0-1.394.33c-.467.171-.934.397-1.279.764-.025.044-.156.14-.106.164a167.12 167.12 0 0 0 1.703-.472l.344-.098c.209-.057.416-.117.624-.178l.147-.046c.047-.054.02-.218.027-.313-.014-.05.029-.182-.066-.15z" fill="#d54c41"/><path d="M8.732 15.275c-.01-.011-.231.017-.32.04-.256.063-.409.216-.5.492a.648.648 0 0 0-.028.109c0 .027.01.028.11 0 .207-.058.37-.155.503-.292.108-.112.256-.329.235-.35z" fill="#9182d7"/><path d="M9.54 15.366c-.137.009-.314.05-.424.103-.317.15-.503.423-.59.854-.052.252-.06.39-.063 1.06-.002.348-.007.636-.012.64-.004.005-.02-.006-.04-.028-.071-.083-.163-.23-.292-.487-.047-.094-.086-.157-.126-.229-.022-.039-.052-.109-.063-.126a1.256 1.256 0 0 0-.286-.298.553.553 0 0 0-.264-.091c-.218 0-.411.2-.47.486-.055.276.053.504.281.59.038.014.096.02.207.023a.895.895 0 0 1 .166.012.828.828 0 0 1 .04.103c.05.147.173.39.36.704.198.332.324.573.378.722.058.159.33 1.208.367 1.414.032.18.04.344.023.43a1.777 1.777 0 0 1-.08.235c-.103.246-.11.338-.04.532.14.387.385.65.738.796.09.037.105.04.126-.011a2.51 2.51 0 0 0 .132-.533c.035-.28.01-.48-.137-1.128-.068-.3-.122-.664-.098-.664.006 0 .05.03.098.068.047.039.204.164.349.275.38.29.426.328.859.756.164.162.282.27.384.36.202.18.324.258.492.316.091.031.129.04.206.04.19 0 .277-.08.287-.263.007-.13-.033-.28-.138-.493a1.456 1.456 0 0 0-.343-.47c-.185-.177-.357-.303-.91-.658-.472-.303-.683-.458-.866-.642-.24-.242-.343-.442-.355-.704a.586.586 0 0 1 .184-.492c.142-.144.3-.224.761-.384.488-.17.67-.276.75-.441.029-.057.03-.076.03-.172-.001-.092 0-.117-.024-.16-.106-.203-.426-.325-.945-.355l-.131-.006-.441.44a9.101 9.101 0 0 1-.447.43 54.66 54.66 0 0 1 .235-1.26c.133-.69.246-1.265.246-1.277 0-.02-.01-.023-.115-.017z" fill="#4f4f4f"/><path d="M10.473 16.174l.006.04c.007.077.047.26.08.35.102.28.28.453.572.549.07.023.102.025.11.011a1.922 1.922 0 0 0-.04-.383c-.068-.286-.24-.459-.533-.533a1.24 1.24 0 0 0-.15-.029l-.045-.005zM6.487 17.365c-.012.005-.015.016-.023.034a1.4 1.4 0 0 0-.051.315c0 .195.088.356.257.47.066.044.075.045.075.017 0-.05-.091-.814-.098-.825-.004-.006-.041-.011-.086-.011-.04 0-.062-.005-.074 0zM12.615 19.89c-.02 0-.123.106-.172.178-.135.199-.24.495-.304.859-.022.13-.022.19-.023.47 0 .354.008.434.075.635.074.222.196.37.344.424a.34.34 0 0 0 .097.017c.185.002.356-.203.435-.515.067-.265.017-.489-.229-1.008-.157-.333-.199-.464-.223-.664a1.295 1.295 0 0 1 .005-.338c.005-.04.003-.058-.005-.058zM7.987 22.072c-.015 0-.014.033.012.16.042.209.118.334.258.407.086.045.14.059.269.08l.097.018c.034.004.007-.13-.051-.252a.75.75 0 0 0-.315-.304 1.469 1.469 0 0 0-.27-.109z" fill="#9182d7"/><path d="M14.132 13.576s.255-.178.485-.169c.269.011.446.248.446.248-.594.366-.931-.08-.931-.08z" fill="#d54c41"/><path d="M20.733 7.986zM20.016 10.859c.03.007.055.024.083.035-.028-.01-.052-.029-.083-.035zM17.832 10.893c-.012.01 0 .077.063.323-.062-.243-.075-.313-.063-.323zM20.216 10.953zM20.367 11.112c.078.114.14.259.18.446.046.203.072.41.103.927.027.44.062.741.092.751l.005-.024c-.028-.04-.061-.312-.086-.727-.032-.517-.057-.724-.103-.927a1.192 1.192 0 0 0-.19-.446zM12.905 13.346zM15.228 12.374zM15.218 12.522zM14.49 15.193zM10.221 17.06l-.03-.005h-.01l.04.004zM8.605 21.977c-.054-.166-.048-.266.047-.494-.095.228-.1.328-.047.494zM9.534 15.368zM8.238 15.38zM7.38 16.764l-.005.002a.56.56 0 0 1 .259.09c.087.058.216.192.285.298.012.017.041.086.063.124.04.072.079.136.126.23.13.257.221.404.293.487.019.022.035.033.04.029v-.008c-.008-.003-.016-.005-.03-.021-.071-.083-.163-.23-.292-.487-.048-.094-.086-.158-.126-.23-.022-.038-.052-.107-.063-.124a1.253 1.253 0 0 0-.286-.298.557.557 0 0 0-.264-.092zM7.375 16.766zM7.203 16.815zM6.902 17.41zM9.533 19.429z"/></g></svg>