<svg xmlns="http://www.w3.org/2000/svg" height="32" width="32" version="1"><rect width="28.203" height="28.203" x="1.898" y="1.898" ry="5.575" fill="#b1d6f9" fill-rule="evenodd"/><path d="M20.52 14.425c.697-2.637 1.935-7.59 5.263-7.195-1.956 2.321-1.139 5.416-1.416 6.576-1.537 4.288-.524 6.052 1.79 7.768-2.572.13-3.65-1.057-5.53-2.625z" fill="#73a6db"/><g transform="matrix(.46096 0 0 .46096 36.67 4.438)"><path d="M-65.29 23.96c2.19-6.922 5.988-12.888 10.474-14.948-3.215.457-6.98 1.007-10.067 5.186-2.673 5.134-.656 6.327-.407 9.763z" fill="#5d8cc2"/><path d="M-66.225 18.028c-.214 3.103.098 4.072.935 5.933l2.588-7.335c-1.073-.156-2.068-.113-3.523 1.402z" fill="#f9f9f9"/><ellipse cx="-64.169" cy="20.847" rx="1.78" ry="1.831" fill="#2a3e58" fill-rule="evenodd"/><path d="M-64.296 32.542c-3.729-7.16 1.654-25.368 14.034-23.796 11.065 1.405 14.644 8.14 19.721 15.006.822 1.48.984 2.554.611 4.386-3.784 10.406-11 16.57-17.485 16.608-6.99.04-13.152-5.043-16.88-12.204z" fill="#2b61a4"/><path d="M-40.271 19.932c0 3.154.782 5.765-.694 7.643-1.585 2.019-4.07 2.247-5.608 2.18-3.703-.16-7.122-4.319-7.122-9.823 0-5.504 3.005-9.966 6.712-9.966s6.712 4.462 6.712 9.966z" fill="#5d8cc2" fill-rule="evenodd"/><path d="M-40.378 21.443c0 3.06-3.496 6.8-6.922 6.8-3.427 0-6.335-4.072-6.335-7.133 0-.97-.026-3.41.465-4.203 1.057-1.708 3.641-1.61 5.941-1.186 3.319.61 6.851 2.66 6.851 5.722z" fill="#f9f9f9" fill-rule="evenodd"/><ellipse cx="-44.695" cy="19.831" rx="1.78" ry="1.831" fill="#2a3e58" fill-rule="evenodd"/><path d="M-64.296 32.542c4.49 6.479 15.546 3.088 18.256.754-1.61 9.633-10.811 10.574-15.874 6.976-2.424-1.722-3.936-4.802-2.382-7.73z" fill="#5d8cc2"/><path d="M-64.471 35.427c4.732 5.312 12.406 4.132 15.897.938" fill="none" stroke="#456c9b" stroke-width=".4" stroke-linecap="round"/></g></svg>