<svg xmlns="http://www.w3.org/2000/svg" height="32" width="32" version="1"><rect width="28.203" height="28.203" x="1.898" y="1.898" ry="5.575" fill="#154277" fill-rule="evenodd"/><circle cx="16" cy="16" r="4" fill="#f5ca4a"/><path d="M24.258 4.697l-2.016 3.49-1.53 2.649A7 7 0 0 1 23 16a7 7 0 0 1-.33 2.12l2.64 1.525A10 10 0 0 0 26 16a10 10 0 0 0-1.643-5.477l2.168-3.753a13.98 13.98 0 0 0-2.267-2.073zM6.77 5.475a13.98 13.98 0 0 0-2.073 2.267l3.49 2.016 2.649 1.53A7 7 0 0 1 16 9a7 7 0 0 1 2.12.33l1.525-2.64A10 10 0 0 0 16 6a10 10 0 0 0-5.477 1.643zm-.08 6.88A10 10 0 0 0 6 16a10 10 0 0 0 1.643 5.477L5.475 25.23a13.98 13.98 0 0 0 2.267 2.073l2.016-3.49 1.53-2.649A7 7 0 0 1 9 16a7 7 0 0 1 .33-2.12zm14.474 8.358A7 7 0 0 1 16 23a7 7 0 0 1-2.12-.33l-1.525 2.64A10 10 0 0 0 16 26a10 10 0 0 0 5.477-1.643l3.753 2.168a13.98 13.98 0 0 0 2.073-2.267l-3.49-2.016z" fill="#5286fe"/></svg>