<svg xmlns="http://www.w3.org/2000/svg" height="32" width="32" version="1"><rect width="28.203" height="28.203" x="1.898" y="1.898" ry="5.575" fill="#43c4c4" fill-rule="evenodd"/><path d="M8.73 8.214c-.533.195 1.285 3.562.847 3.807-.765.305-1.737.645-1.737.645v5.193s3.385.439 5.935.742c.511.06-8.16 5.193-8.16 5.193 2.57 0 28.72-6.897 18.35-11.781-1.782-.949-4.397-1.57-7.312-1.57-1.465 0-2.81.173-4.003.444-.574.13-3.42-2.855-3.92-2.673z" fill="#fff"/><path d="M7.84 12.666v-.742H5.615V18.6H7.84v-.742c4.457-.75 6.73-1.69 6.677-2.629-.051-.916-2.324-1.83-6.677-2.564zM21.224 10.996c-.014.119-.03.241-.03.334 0 1.699 2.256 2.662 5.14 2.815-.191-.734-.927-1.453-2.37-2.133a9.931 9.931 0 0 0-1.129-.506c-.057-.022-.112-.045-.17-.066a15.75 15.75 0 0 0-1.44-.443z" fill="#a9dde4"/><path d="M5.615 11.924v.742H7.84v-.742zm2.225.742v.741c3.81.642 6.025 1.423 6.554 2.222a.663.663 0 0 0 .123-.399c-.051-.916-2.324-1.83-6.677-2.564z" opacity=".1" fill="#fff"/></svg>