<svg xmlns="http://www.w3.org/2000/svg" height="32" width="32" version="1"><rect width="28.203" height="28.203" x="1.898" y="1.898" ry="5.575" fill="#00c586" fill-rule="evenodd"/><path d="M23.5 8.5l-15 4.8 5.553 2.31L16 16l.418 1.998 2.281 5.502zm-10.068 9.014c0-.027-.176-.012-.325.027-.569.149-1.394.759-1.837 1.36a3.85 3.85 0 0 0-.77 2.292c0 .228.011.266.078.295.076.033.72-.007.98-.06.753-.154 1.393-.504 1.965-1.078.36-.361.573-.659.782-1.094.136-.285.23-.632.183-.68-.01-.009-.085.035-.168.1-.62.398-1.116.686-1.82.824.183-.692.377-1.22.74-1.717.105-.142.192-.262.192-.27z" fill="#fff"/><path d="M8.5 13.3l5.553 2.31L16 16l7.5-7.5z" fill="#c4f1e3"/></svg>