<svg xmlns="http://www.w3.org/2000/svg" height="32" width="32" version="1"><rect width="28.203" height="28.203" x="1.898" y="1.898" ry="5.575" fill="#dcdcbe" fill-rule="evenodd"/><path d="M8.011 5.348a2.663 2.663 0 0 0-2.663 2.663 2.663 2.663 0 0 0 2.663 2.663 2.663 2.663 0 0 0 2.663-2.663 2.663 2.663 0 0 0-2.663-2.663zm0 1.332A1.331 1.331 0 0 1 9.343 8.01 1.331 1.331 0 0 1 8.01 9.343 1.331 1.331 0 0 1 6.68 8.01 1.331 1.331 0 0 1 8.01 6.68z" fill="#3c79e7"/><path d="M12.006 4.017v7.989h-7.99v1.331h7.99v5.326h-7.99v1.331h7.99v7.99h1.331v-7.99h5.326v7.99h1.331v-7.99h7.99v-1.331h-7.99v-5.326h7.99v-1.331h-7.99v-7.99h-1.331v7.99h-5.326v-7.99zm1.331 9.32h5.326v5.326h-5.326z" fill="gray"/><path d="M23.989 21.326a2.663 2.663 0 0 0-2.663 2.663 2.663 2.663 0 0 0 2.663 2.663 2.663 2.663 0 0 0 2.663-2.663 2.663 2.663 0 0 0-2.663-2.663zm0 1.331a1.331 1.331 0 0 1 1.331 1.332 1.331 1.331 0 0 1-1.331 1.331 1.331 1.331 0 0 1-1.332-1.331 1.331 1.331 0 0 1 1.332-1.332z" fill="#3c79e7"/><path d="M17.413 13.646L16 15.059l-1.413-1.413-.941.941L15.059 16l-1.413 1.413.941.941L16 16.941l1.413 1.413.941-.941L16.941 16l1.413-1.413z" fill="#e74c3c"/></svg>