<svg xmlns="http://www.w3.org/2000/svg" height="32" width="32" version="1"><rect width="28.203" height="28.203" x="1.898" y="1.898" ry="5.575" fill="#41a5c7" fill-rule="evenodd"/><g fill="#fff"><path d="M16.277 11.479a4.252 4.252 0 0 0-4.251 4.251 4.252 4.252 0 0 0 4.251 4.252 4.252 4.252 0 0 0 4.252-4.252 4.252 4.252 0 0 0-4.252-4.251zm0 1.7a2.551 2.551 0 0 1 2.551 2.551 2.551 2.551 0 0 1-2.55 2.551 2.551 2.551 0 0 1-2.552-2.55 2.551 2.551 0 0 1 2.551-2.552zM6.073 14.88c-.47 0-.85.38-.85.85-.06 2.243.08 4.61 0 6.803a4.252 4.252 0 1 0 4.252-4.252 4.252 4.252 0 0 0-2.551.857V15.73c0-.47-.38-.85-.85-.85zm3.402 5.102a2.55 2.55 0 1 1 0 5.102 2.55 2.55 0 0 1 0-5.102zM20.529 5.216a.848.848 0 0 0-.601 1.452l2.104 2.104-2.104 2.104a.85.85 0 1 0 1.204 1.204l2.104-2.104 2.104 2.104a.85.85 0 1 0 1.202-1.204L24.44 8.772l2.104-2.104a.848.848 0 0 0 0-1.203.848.848 0 0 0-1.203 0L23.237 7.57l-2.105-2.104a.85.85 0 0 0-.603-.249z"/></g></svg>