<svg xmlns="http://www.w3.org/2000/svg" height="32" width="32" version="1"><rect width="28.203" height="28.203" x="1.898" y="1.898" ry="5.575" fill="#f5ab35" fill-rule="evenodd"/><path d="M16 6.63c-3.384 0-6.127 2.748-6.127 6.139-.012 1.838 1.611 3.445 2.356 5.195.333.78.943 2.361.943 2.361h5.656s.61-1.582.943-2.361c.745-1.75 2.324-3.377 2.356-5.195 0-3.391-2.743-6.14-6.127-6.14z" fill="#fff"/><path d="M18.828 20.325l-.943 4.109c-.116.506-.42.937-.942.937h-1.885c-.523 0-.834-.43-.943-.937l-.943-4.109z" fill="#434343"/><path d="M13.357 21.046l.161.72h4.964l.16-.72zm.323 1.442l.16.72h4.32l.16-.72zm.323 1.441l.112.504c.017.076.046.146.071.217h3.626c.026-.071.056-.14.073-.217l.113-.504z" opacity=".2" fill="#fff"/><path d="M17.081 8.07l-3.604 5.767h2.163v4.326l3.604-5.767H17.08z" fill="#f5ab35" fill-rule="evenodd"/></svg>