<svg xmlns="http://www.w3.org/2000/svg" width="32" height="32" viewBox="0 0 8.47 8.47"><rect width="7.465" height="7.465" x=".502" y=".502" ry="1.476" fill="#f76f31" fill-rule="evenodd"/><path d="M4.539 6.417c.236-.2.302-.272.596-.481.165-.118.19-.148.164-.19-.022-.033-.528-.267-.782-.369-.268-.107-.296-.107-.555-.002-.233.094-.73.326-.774.368-.045.043-.023.083.092.16.235.16.448.34.66.52.308.262.284.262.599-.005zm-1.235-.989c.32-.15.367-.18.612-.396.205-.18.243-.235.214-.303a3.079 3.079 0 0 0-.343-.315c-.422-.355-.405-.305-.244-.69.095-.228.12-.305.12-.368a.248.248 0 0 0-.108-.217 7.089 7.089 0 0 0-.567-.228c-.282-.105-.512-.198-.51-.206.005-.02.316-.054.543-.06l.17-.003.315.11c.275.095.318.114.339.153a.195.195 0 0 1 .023.073c0 .016-.051.243-.113.505-.109.458-.112.477-.084.505.045.044.484.126.621.116.157-.012.477-.086.509-.118.026-.026.021-.055-.085-.503a11.928 11.928 0 0 1-.114-.505c0-.016.01-.049.024-.073.02-.039.06-.058.305-.143.395-.138.387-.137.745-.105.167.015.31.033.319.041.008.008-.002.02-.025.029l-.512.191c-.26.097-.5.195-.534.216a.246.246 0 0 0-.117.222c0 .063.025.138.118.36.064.154.117.294.117.312 0 .072-.053.13-.35.378-.17.143-.322.281-.336.307a.152.152 0 0 0-.019.087c.008.038.212.235.42.404.087.071.616.331.701.344.071.012.147-.024.271-.126a.738.738 0 0 0 .244-.338c.046-.128.034-.215-.057-.422-.07-.159-.089-.246-.065-.305a7.65 7.65 0 0 1 .42-.396c.49-.445.57-.524.597-.604.03-.088.008-.204-.059-.32-.16-.28-.799-1.186-.855-1.186-.292.047-.526.179-.833.227-.025 0-.127-.025-.229-.055-.433-.131-.573-.167-.657-.167-.084 0-.224.036-.657.167a1.46 1.46 0 0 1-.23.055c-.303-.045-.547-.178-.86-.217-.05.033-.464.645-.643.904-.212.305-.233.344-.25.46-.024.162-.001.19.63.76.211.19.39.359.395.372.023.06.005.15-.064.31-.095.217-.103.278-.057.41a.76.76 0 0 0 .26.358c.118.093.164.115.234.117.024 0 .165-.055.311-.124z" fill="#fff"/></svg>