<svg xmlns="http://www.w3.org/2000/svg" height="32" width="32" version="1"><path d="M7.473 1.898a5.561 5.561 0 0 0-5.575 5.575v17.054a5.561 5.561 0 0 0 5.575 5.575h17.054a5.561 5.561 0 0 0 5.575-5.575V7.473a5.561 5.561 0 0 0-5.575-5.575H7.473z" fill="#4183d7" fill-rule="evenodd"/><g transform="translate(40.078 18.324) scale(.03885)"><path d="M-621.56-217.492A123.661 123.661 0 0 0-745.22-93.83a123.661 123.661 0 0 0 .484 10.178c5.188 75.617 62.11 81.048 55.924 161.211h134.64c-6.48-83.972 56.292-85.935 56.305-172.475h-.07A123.661 123.661 0 0 0-621.56-217.492z" fill="#fad223"/><circle r="24.407" cy="183.322" cx="-622.373" fill="#313433"/><path d="M-690.983 77.56c-4.46 10.17-5.288 20.745 0 32-4.609 10.465-4.775 21.756 1.627 31.728-1.498 13.449 3.125 23.568 12.475 31.593 7.467 7.978 13.462 9.327 19.525 10.983h69.557c6.063-1.656 12.057-3.005 19.525-10.983 9.35-8.025 13.972-18.144 12.475-31.593 6.401-9.972 6.235-21.263 1.627-31.729 5.287-11.254 4.46-21.829 0-32h-68.405z" fill="#cecece"/><path d="M-554.141 109.637l-136.842-.078c.012.026.019.052.031.078-4.609 10.466-4.775 21.757 1.627 31.729z" fill="#9c9c9c"/><path d="M-555.768 141.366h-133.557c-1.498 13.45 3.125 23.568 12.475 31.593z" fill="#9a9a9a"/><path d="M-690.983 77.56c-4.45 10.147-5.278 20.696-.031 31.921l136.842-31.922h-68.405z" opacity=".97" fill="#9a9a9a"/><path d="M-641.247 77.238c3.039-55.585-20.51-106.185-49.878-155.694l32.229 24.657 16.114-27.475 23.788 30.998M-596.741 77.238c3.666-53.153 23.195-104.77 49.877-155.694L-579.092-53.8l-16.114-27.475-23.788 30.998" fill="none" stroke="#fae597" stroke-width="7.559"/></g><rect width="2.563" height=".805" x="7.522" y="13.682" ry=".402" opacity=".97" fill="#fff"/><rect ry=".402" y="3.795" x="12.42" height=".805" width="2.563" transform="rotate(30)" opacity=".97" fill="#fff"/><rect transform="rotate(60)" width="2.563" height=".805" x="11.719" y="-7.217" ry=".402" opacity=".97" fill="#fff"/><rect ry=".402" y="-16.402" x="5.606" height=".805" width="2.563" transform="rotate(90)" opacity=".97" fill="#fff"/><rect transform="rotate(120)" width="2.563" height=".805" x="-4.281" y="-21.301" ry=".402" opacity=".97" fill="#fff"/><rect ry=".402" y="-20.599" x="-15.292" height=".805" width="2.563" transform="rotate(150)" opacity=".97" fill="#fff"/><rect transform="scale(-1)" width="2.563" height=".805" x="-24.478" y="-14.486" ry=".402" opacity=".97" fill="#fff"/><rect ry=".402" y="-4.599" x="-29.376" height=".805" width="2.563" transform="rotate(-150)" opacity=".97" fill="#fff"/><rect transform="rotate(-30)" width="2.563" height=".805" x="-1.663" y="19.795" ry=".402" opacity=".97" fill="#fff"/><rect transform="rotate(-150)" width="2.563" height=".805" x="-29.376" y="-4.599" ry=".402" opacity=".97" fill="#fff"/></svg>