<svg xmlns="http://www.w3.org/2000/svg" height="32" width="32" version="1"><rect width="28.203" height="28.203" x="1.898" y="1.898" ry="5.575" fill="#4f4f4f" fill-rule="evenodd"/><path d="M15.9 6c-.717.002-1.436.08-2.138.236-2.53.56-4.719 2.11-6.284 4.446-.665.992-1.267 2.371-1.267 2.9 0 .452.523.685.874.39a.612.612 0 0 0 .182-.282c.178-.817.805-2.046 1.533-3 .607-.797 1.72-1.803 2.58-2.33 2.683-1.649 6.348-1.682 9.048-.083 1.692 1.001 3.076 2.664 3.887 4.67.176.436.465 1.39.465 1.537 0 .042-.26-.18-.576-.492-.689-.68-.757-.73-1.027-.73-.297 0-.504.192-.539.499-.014.124-.006.26.018.302.05.09 2.238 2.303 2.411 2.44.175.138.501.124.683-.029.24-.202.273-.348.24-1.07-.126-2.694-1.812-5.748-4.136-7.491C20.188 6.663 18.05 5.993 15.9 6zM6 15.865l.03.696c.05 1.187.384 2.408 1.01 3.686 1.26 2.578 3.327 4.442 5.837 5.263.727.238 1.26.35 2.226.464.416.05 1.746.024 2.264-.043 2.939-.38 5.535-2.078 7.257-4.742.558-.863 1.102-2.112 1.17-2.685.026-.224.017-.25-.145-.412-.146-.146-.207-.173-.387-.172-.334.001-.415.099-.635.759-.753 2.258-2.576 4.33-4.728 5.37-1.743.844-3.733 1.08-5.727.678-2.264-.456-4.224-1.833-5.573-3.916-.508-.784-1.038-1.962-1.236-2.745a31.417 31.417 0 0 0-.108-.417c-.015-.054.272.197.638.558l.665.656.251-.024c.343-.033.493-.184.526-.528l.024-.254-1.27-1.27-1.269-1.27s-.24-.162-.538-.029c-.298.133-.282.376-.282.376z" fill="#5cd1ff"/></svg>