<svg xmlns="http://www.w3.org/2000/svg" width="32" height="32"><rect width="28.203" height="28.203" x="1.898" y="1.898" ry="5.575" fill="#cbbb2e" fill-rule="evenodd"/><g transform="matrix(.66285 0 0 .66285 5.06 5.726)"><path d="M20 4l-8 8" fill="#fff" stroke="#fff" stroke-width="6"/><rect transform="scale(-1 1)" ry="0" y="11" x="-13" height="17" width="8" fill="#fff"/><path d="M13 26c1 0 1 1 1 1v2H4v-2c0-1 1-1 1-1z" fill="#fff"/><path d="M15 27c1 0 1 1 1 1v2H2v-2c0-1 1-1 1-1z" fill="#4f4f4f"/><path d="M19 5l4 4" fill="#fff" stroke="#fff" stroke-width="4" stroke-linecap="square"/><rect transform="scale(-1 1)" ry="6" y="9" x="-15" height="12" width="12" fill="#fff"/><rect transform="scale(-1 1)" ry="4" y="11" x="-13" height="8" width="8" fill="#4f4f4f"/><rect transform="scale(-1 1)" ry="3" y="12" x="-12" height="6" width="6" opacity=".1" fill="#fff"/><rect transform="scale(-1 1)" ry="4" y="1" x="-23" height="8" width="8" fill="#fff"/><path d="M25 16l-2-1v-4l2-2h4l1 2" fill="none" stroke="#4f4f4f" stroke-width="2" stroke-linecap="round"/><rect transform="scale(-1 1)" ry="2" y="3" x="-21" height="4" width="4" fill="#4f4f4f"/><path d="M19 1c-2.216 0-4 1.784-4 4 0 .171.028.335.049.5A3.978 3.978 0 0 1 19 2a3.978 3.978 0 0 1 3.951 3.5c.02-.165.049-.329.049-.5 0-2.216-1.784-4-4-4z" opacity=".2" fill="#f9f9f9"/></g></svg>