<svg xmlns="http://www.w3.org/2000/svg" width="32" height="32" version="1"><rect width="28.203" height="28.203" x="1.898" y="1.898" ry="5.575" fill="#ee7737" fill-rule="evenodd"/><path d="M13.919 5.832a.523.523 0 0 0-.445.413l-.43 2.177a8.184 8.184 0 0 0-2.128 1.223L8.803 8.93a.525.525 0 0 0-.604.223L6.165 12.68a.525.525 0 0 0 .111.635l1.684 1.478A8.11 8.11 0 0 0 7.865 16c0 .413.036.812.095 1.208l-1.684 1.478a.525.525 0 0 0-.11.635l2.033 3.527c.118.2.384.299.604.223l2.113-.715a8.186 8.186 0 0 0 2.129 1.223l.429 2.177c.043.228.26.41.492.413h4.068a.524.524 0 0 0 .492-.413l.43-2.177a8.184 8.184 0 0 0 2.128-1.223l2.113.715a.525.525 0 0 0 .604-.223l2.034-3.527a.525.525 0 0 0-.111-.635l-1.684-1.478A8.11 8.11 0 0 0 24.135 16c0-.412-.036-.81-.095-1.207l1.684-1.478a.525.525 0 0 0 .11-.635l-2.033-3.527a.524.524 0 0 0-.603-.223l-2.114.715a8.186 8.186 0 0 0-2.128-1.224l-.43-2.177a.525.525 0 0 0-.492-.413H13.919z" fill="#fff"/><path d="M16 11.642a4.358 4.358 0 1 1 0 8.716 4.358 4.358 0 0 1 0-8.716z" fill="#ee7737"/><path d="M16 9.463A6.543 6.543 0 0 0 9.463 16 6.543 6.543 0 0 0 16 22.537 6.543 6.543 0 0 0 22.537 16 6.543 6.543 0 0 0 16 9.463zm0 .77A5.762 5.762 0 0 1 21.768 16 5.762 5.762 0 0 1 16 21.768 5.762 5.762 0 0 1 10.232 16 5.762 5.762 0 0 1 16 10.232z" fill="#999"/><path d="M15.33 9.498A6.544 6.544 0 0 0 9.462 16a6.543 6.543 0 0 0 6.538 6.537 6.51 6.51 0 0 0 1.566-.197c.047-.108.129-.29.093-.435a.534.534 0 0 0-.263-.314 5.783 5.783 0 0 1-1.396.177A5.762 5.762 0 0 1 10.233 16a5.758 5.758 0 0 1 5.327-5.745.503.503 0 0 0 .138-.435c-.022-.181-.161-.28-.369-.322z" fill="#ffee57"/></svg>