<svg xmlns="http://www.w3.org/2000/svg" height="32" width="32" version="1"><rect width="28.203" height="28.203" x="1.898" y="1.898" ry="5.575" fill="#5f7c8a" fill-rule="evenodd"/><path d="M11.53 6.723a.296.296 0 0 0-.198.015L9.193 7.77a.308.308 0 0 0-.156.343l.326 1.266c-.158.171-.307.35-.443.549a4.72 4.72 0 0 0-.35.613l-1.297.158a.307.307 0 0 0-.263.27l-.178 2.367a.306.306 0 0 0 .217.307l1.254.35c.139.453.35.89.623 1.288l-.508 1.19a.307.307 0 0 0 .102.361l1.959 1.336a.306.306 0 0 0 .373-.037l.921-.908c.47.108.955.147 1.428.111l.783 1.037c.081.109.241.15.364.092l2.138-1.031c.122-.06.19-.21.155-.342l-.325-1.266c.16-.171.306-.352.442-.55.135-.2.25-.404.351-.614l1.297-.158a.305.305 0 0 0 .262-.27l.18-2.367a.306.306 0 0 0-.22-.304l-1.251-.35a4.772 4.772 0 0 0-.623-1.29l.508-1.189a.307.307 0 0 0-.102-.36l-1.959-1.337-.023-.015a.304.304 0 0 0-.35.052l-.922.907a4.772 4.772 0 0 0-1.427-.11l-.784-1.039a.295.295 0 0 0-.166-.107zm1.324 3.338a2.541 2.541 0 1 1-.027 5.082 2.541 2.541 0 0 1 .027-5.082zM21.125 14.035a.23.23 0 0 0-.223.145l-.341.906a3.577 3.577 0 0 0-1.006.371l-.856-.46a.23.23 0 0 0-.277.05l-1.131 1.369a.229.229 0 0 0 .002.281l.617.758a3.555 3.555 0 0 0-.129.514c-.03.177-.043.35-.047.525l-.832.514a.23.23 0 0 0-.093.265l.617 1.665a.23.23 0 0 0 .244.138l.96-.152c.237.265.518.494.827.68l.025.968a.23.23 0 0 0 .184.213l1.748.297a.23.23 0 0 0 .242-.143l.344-.904a3.565 3.565 0 0 0 1.004-.37l.857.46c.09.049.21.025.276-.053l1.13-1.369a.229.229 0 0 0-.001-.281l-.618-.758c.055-.166.1-.334.13-.512.03-.177.043-.352.046-.527l.832-.512a.23.23 0 0 0 .094-.265l-.617-1.666a.23.23 0 0 0-.244-.139l-.961.154a3.57 3.57 0 0 0-.826-.681l-.026-.967a.23.23 0 0 0-.181-.215l-1.75-.295-.02-.004zm.088 2.625a1.902 1.902 0 0 1 1.941 2.217 1.9 1.9 0 1 1-1.941-2.217zM12.422 18.783a.159.159 0 0 0-.154.1l-.237.625c-.244.05-.479.137-.693.256l-.592-.319a.16.16 0 0 0-.191.037l-.782.946a.157.157 0 0 0 .002.193l.426.524a2.437 2.437 0 0 0-.12.716l-.575.356a.158.158 0 0 0-.065.183l.426 1.149c.025.065.1.109.168.097l.664-.107c.163.183.357.343.57.47l.018.669a.16.16 0 0 0 .127.148l1.207.203a.159.159 0 0 0 .168-.097l.236-.625c.244-.051.48-.137.694-.256l.592.318a.16.16 0 0 0 .191-.035l.781-.945a.16.16 0 0 0-.002-.196l-.426-.523a2.436 2.436 0 0 0 .122-.717l.574-.355a.156.156 0 0 0 .064-.182l-.426-1.15a.157.157 0 0 0-.168-.096l-.664.105a2.464 2.464 0 0 0-.57-.47l-.017-.668a.158.158 0 0 0-.127-.147l-1.207-.205-.014-.002zm.06 1.813a1.312 1.312 0 1 1 .092 2.623 1.312 1.312 0 0 1-.092-2.623z" fill="#fff"/></svg>