<svg xmlns="http://www.w3.org/2000/svg" height="32" width="32" version="1"><rect width="28.203" height="28.203" x="1.898" y="1.898" ry="5.575" fill="#ffcca3" fill-rule="evenodd"/><path d="M8.432 6.67v1h-.5c-.83 0-1.5.668-1.5 1.5 0 .83.67 1.5 1.5 1.5h.5v1H6.524c.206.581.754 1 1.408 1h.5v1h1v-1h.5c.831 0 1.5-.67 1.5-1.5 0-.832-.669-1.5-1.5-1.5h-.5v-1h1.908c-.206-.583-.754-1-1.408-1h-.5v-1h-1zm-.5 2h.5v1h-.5a.499.499 0 1 1 0-1zm1.5 2h.5c.277 0 .5.222.5.5 0 .276-.223.512-.5.5h-.5zm3 2v1h5v-1z" fill="#3f3f3f"/></svg>