<svg xmlns="http://www.w3.org/2000/svg" height="32" width="32" version="1"><rect width="28.203" height="28.203" x="1.898" y="1.898" ry="5.575" fill="#a7d285" fill-rule="evenodd"/><path d="M9.17 11.297c0 .691.019 1.478.051 2.09H7.706a1.46 1.46 0 0 0-1.463 1.464v6.167c0 .811.653 1.43 1.463 1.43h3.067c.687 0 1.045-.698 1.045-.698 1.665 1.394 4.09 1.394 5.889 1.394 3.659 0 8.05-.14 8.05-11.847zm-.632 3.484h.731c.287 2.89.927 4.844 1.775 6.158a.798.798 0 0 1-.404.115H8.538c-.499 0-.901-.467-.901-1.046v-4.181c0-.58.402-1.046.901-1.046z" fill="#fff"/></svg>