<svg xmlns="http://www.w3.org/2000/svg" width="32" height="32"><path d="M15.668 30.373a3.085 3.085 0 0 0 .123-.273 3.085 3.085 0 0 0 .096-.293 3.085 3.085 0 0 0 .068-.301 3.085 3.085 0 0 0 .037-.307 3.085 3.085 0 0 0 .008-.217 3.085 3.085 0 0 0-.016-.306 3.085 3.085 0 0 0-.045-.305 3.085 3.085 0 0 0-.076-.299 3.085 3.085 0 0 0-.107-.29 3.085 3.085 0 0 0-.133-.278 3.085 3.085 0 0 0-.162-.262 3.085 3.085 0 0 0-.186-.246 3.085 3.085 0 0 0-.21-.226 3.085 3.085 0 0 0-.231-.204 3.085 3.085 0 0 0-.252-.18 3.085 3.085 0 0 0-.268-.152 3.085 3.085 0 0 0-.28-.127 3.085 3.085 0 0 0-.292-.097 3.085 3.085 0 0 0-.3-.067 3.085 3.085 0 0 0-.307-.039 3.085 3.085 0 0 0-.219-.008 3.085 3.085 0 0 0-.309.016 3.085 3.085 0 0 0-.304.047 3.085 3.085 0 0 0-.3.076 3.085 3.085 0 0 0-.288.106 3.085 3.085 0 0 0-.277.134 3.085 3.085 0 0 0-.264.16 3.085 3.085 0 0 0-.246.188 3.085 3.085 0 0 0-.225.209 3.085 3.085 0 0 0-.205.232 3.085 3.085 0 0 0-.178.25 3.085 3.085 0 0 0-.154.268 3.085 3.085 0 0 0-.127.281 3.085 3.085 0 0 0-.096.293 3.085 3.085 0 0 0-.068.301 3.085 3.085 0 0 0-.037.307 3.085 3.085 0 0 0-.008.218 3.085 3.085 0 0 0 .016.309 3.085 3.085 0 0 0 .045.305 3.085 3.085 0 0 0 .078.299 3.085 3.085 0 0 0 .105.29 3.085 3.085 0 0 0 .09.188h5.504zM23.447 30.373a3.085 3.085 0 0 0 .106-.236 3.085 3.085 0 0 0 .097-.293 3.085 3.085 0 0 0 .069-.301 3.085 3.085 0 0 0 .037-.307 3.085 3.085 0 0 0 .008-.22 3.085 3.085 0 0 0-.016-.307 3.085 3.085 0 0 0-.047-.305 3.085 3.085 0 0 0-.076-.299 3.085 3.085 0 0 0-.105-.29 3.085 3.085 0 0 0-.135-.278 3.085 3.085 0 0 0-.16-.262 3.085 3.085 0 0 0-.188-.246 3.085 3.085 0 0 0-.209-.224 3.085 3.085 0 0 0-.232-.205 3.085 3.085 0 0 0-.252-.178 3.085 3.085 0 0 0-.266-.154 3.085 3.085 0 0 0-.283-.125 3.085 3.085 0 0 0-.291-.098 3.085 3.085 0 0 0-.3-.068 3.085 3.085 0 0 0-.308-.038 3.085 3.085 0 0 0-.218-.007 3.085 3.085 0 0 0-.309.015 3.085 3.085 0 0 0-.305.047 3.085 3.085 0 0 0-.298.076 3.085 3.085 0 0 0-.29.106 3.085 3.085 0 0 0-.277.135 3.085 3.085 0 0 0-.263.162 3.085 3.085 0 0 0-.247.185 3.085 3.085 0 0 0-.224.211 3.085 3.085 0 0 0-.203.23 3.085 3.085 0 0 0-.18.253 3.085 3.085 0 0 0-.152.267 3.085 3.085 0 0 0-.127.281 3.085 3.085 0 0 0-.098.293 3.085 3.085 0 0 0-.066.301 3.085 3.085 0 0 0-.037.307 3.085 3.085 0 0 0-.008.215 3.085 3.085 0 0 0 .015.308 3.085 3.085 0 0 0 .045.305 3.085 3.085 0 0 0 .076.299 3.085 3.085 0 0 0 .106.29 3.085 3.085 0 0 0 .074.155h5.537z" fill="#353535" fill-rule="evenodd"/><path d="M26.713 29.986a6.305 6.034 0 0 0 .107-.306 6.305 6.034 0 0 0 .139-.588 6.305 6.034 0 0 0 .076-.598 6.305 6.034 0 0 0 .016-.426 6.305 6.034 0 0 0-.033-.603 6.305 6.034 0 0 0-.094-.596 6.305 6.034 0 0 0-.156-.584 6.305 6.034 0 0 0-.215-.566 6.305 6.034 0 0 0-.276-.543 6.305 6.034 0 0 0-.328-.516 6.305 6.034 0 0 0-.383-.478 6.305 6.034 0 0 0-.43-.442 6.305 6.034 0 0 0-.472-.398 6.305 6.034 0 0 0-.514-.352 6.305 6.034 0 0 0-.546-.299 6.305 6.034 0 0 0-.575-.248 6.305 6.034 0 0 0-.597-.19 6.305 6.034 0 0 0-.616-.13 6.305 6.034 0 0 0-.627-.074 6.305 6.034 0 0 0-.443-.014 6.305 6.034 0 0 0-.63.031 6.305 6.034 0 0 0-.624.09 6.305 6.034 0 0 0-.61.15 6.305 6.034 0 0 0-.591.208 6.305 6.034 0 0 0-.566.263 6.305 6.034 0 0 0-.538.317 6.305 6.034 0 0 0-.501.365 6.305 6.034 0 0 0-.215.184 6.305 6.034 0 0 0-.49-.381 6.305 6.034 0 0 0-.528-.33 6.305 6.034 0 0 0-.558-.28 6.305 6.034 0 0 0-.586-.224 6.305 6.034 0 0 0-.606-.166 6.305 6.034 0 0 0-.619-.11 6.305 6.034 0 0 0-.629-.048 6.305 6.034 0 0 0-.184-.002 6.305 6.034 0 0 0-.63.029 6.305 6.034 0 0 0-.623.09 6.305 6.034 0 0 0-.61.15 6.305 6.034 0 0 0-.594.207 6.305 6.034 0 0 0-.566.262 6.305 6.034 0 0 0-.537.314 6.305 6.034 0 0 0-.502.366 6.305 6.034 0 0 0-.461.412 6.305 6.034 0 0 0-.416.453 6.305 6.034 0 0 0-.367.49 6.305 6.034 0 0 0-.313.523 6.305 6.034 0 0 0-.257.551 6.305 6.034 0 0 0-.2.572 6.305 6.034 0 0 0-.136.588 6.305 6.034 0 0 0-.077.6 6.305 6.034 0 0 0-.015.428 6.305 6.034 0 0 0 .031.601 6.305 6.034 0 0 0 .094.596 6.305 6.034 0 0 0 .156.586 6.305 6.034 0 0 0 .063.164c.462.14.924.289 1.433.289h2.42a3.085 3.085 0 0 1-.09-.187 3.085 3.085 0 0 1-.105-.291 3.085 3.085 0 0 1-.078-.3 3.085 3.085 0 0 1-.045-.304 3.085 3.085 0 0 1-.016-.309 3.085 3.085 0 0 1 .008-.218 3.085 3.085 0 0 1 .037-.307 3.085 3.085 0 0 1 .068-.3 3.085 3.085 0 0 1 .096-.294 3.085 3.085 0 0 1 .127-.281 3.085 3.085 0 0 1 .154-.268 3.085 3.085 0 0 1 .178-.25 3.085 3.085 0 0 1 .205-.232 3.085 3.085 0 0 1 .225-.209 3.085 3.085 0 0 1 .246-.187 3.085 3.085 0 0 1 .264-.16 3.085 3.085 0 0 1 .277-.135 3.085 3.085 0 0 1 .289-.106 3.085 3.085 0 0 1 .299-.076 3.085 3.085 0 0 1 .304-.047 3.085 3.085 0 0 1 .309-.016 3.085 3.085 0 0 1 .219.008 3.085 3.085 0 0 1 .306.04 3.085 3.085 0 0 1 .301.066 3.085 3.085 0 0 1 .291.097 3.085 3.085 0 0 1 .281.127 3.085 3.085 0 0 1 .268.153 3.085 3.085 0 0 1 .252.18 3.085 3.085 0 0 1 .23.203 3.085 3.085 0 0 1 .211.226 3.085 3.085 0 0 1 .186.246 3.085 3.085 0 0 1 .162.262 3.085 3.085 0 0 1 .133.277 3.085 3.085 0 0 1 .107.291 3.085 3.085 0 0 1 .076.3 3.085 3.085 0 0 1 .045.304 3.085 3.085 0 0 1 .016.306 3.085 3.085 0 0 1-.008.217 3.085 3.085 0 0 1-.037.307 3.085 3.085 0 0 1-.068.3 3.085 3.085 0 0 1-.096.294 3.085 3.085 0 0 1-.123.273h2.242a3.085 3.085 0 0 1-.074-.154 3.085 3.085 0 0 1-.106-.291 3.085 3.085 0 0 1-.076-.3 3.085 3.085 0 0 1-.045-.304 3.085 3.085 0 0 1-.015-.308 3.085 3.085 0 0 1 .008-.215 3.085 3.085 0 0 1 .037-.307 3.085 3.085 0 0 1 .066-.3 3.085 3.085 0 0 1 .098-.294 3.085 3.085 0 0 1 .127-.28 3.085 3.085 0 0 1 .152-.268 3.085 3.085 0 0 1 .18-.252 3.085 3.085 0 0 1 .203-.23 3.085 3.085 0 0 1 .224-.212 3.085 3.085 0 0 1 .247-.185 3.085 3.085 0 0 1 .263-.162 3.085 3.085 0 0 1 .278-.135 3.085 3.085 0 0 1 .289-.106 3.085 3.085 0 0 1 .298-.076 3.085 3.085 0 0 1 .305-.047 3.085 3.085 0 0 1 .309-.015 3.085 3.085 0 0 1 .218.007 3.085 3.085 0 0 1 .307.038 3.085 3.085 0 0 1 .3.068 3.085 3.085 0 0 1 .292.098 3.085 3.085 0 0 1 .283.125 3.085 3.085 0 0 1 .266.154 3.085 3.085 0 0 1 .252.178 3.085 3.085 0 0 1 .232.205 3.085 3.085 0 0 1 .21.224 3.085 3.085 0 0 1 .187.246 3.085 3.085 0 0 1 .16.262 3.085 3.085 0 0 1 .135.277 3.085 3.085 0 0 1 .105.291 3.085 3.085 0 0 1 .076.3 3.085 3.085 0 0 1 .047.304 3.085 3.085 0 0 1 .016.307 3.085 3.085 0 0 1-.008.22 3.085 3.085 0 0 1-.037.307 3.085 3.085 0 0 1-.069.3 3.085 3.085 0 0 1-.097.294 3.085 3.085 0 0 1-.106.236h1.35c.68 0 1.314-.165 1.916-.387z" fill="#d07d7d" fill-rule="evenodd"/><path d="M16.543 12.95c.058.953.027 2.112.057 3.132.03 1.02.119 1.9.418 2.291-.753-.035-1.333.093-1.776.322-.443.23-.748.56-.949.93-.401.74-.385 1.637-.223 2.197a6.67 6.383 0 0 0-.646-.156 6.67 6.383 0 0 0-.66-.094 6.67 6.383 0 0 0-.61-.029 6.67 6.383 0 0 0-.666.031 6.67 6.383 0 0 0-.658.096 6.67 6.383 0 0 0-.646.158 6.67 6.383 0 0 0-.627.219 6.67 6.383 0 0 0-.6.277 6.67 6.383 0 0 0-.568.334 6.67 6.383 0 0 0-.532.387 6.67 6.383 0 0 0-.488.434 6.67 6.383 0 0 0-.44.48 6.67 6.383 0 0 0-.388.518 6.67 6.383 0 0 0-.33.554 6.67 6.383 0 0 0-.274.582 6.67 6.383 0 0 0-.21.606 6.67 6.383 0 0 0-.145.623 6.67 6.383 0 0 0-.08.633 6.67 6.383 0 0 0-.018.453 6.67 6.383 0 0 0 .034.636 6.67 6.383 0 0 0 .1.631 6.67 6.383 0 0 0 .165.62 6.67 6.383 0 0 0 .069.177c.144.053.31.047.459.092a6.305 6.034 0 0 1-.063-.164 6.305 6.034 0 0 1-.156-.586 6.305 6.034 0 0 1-.094-.596 6.305 6.034 0 0 1-.031-.601 6.305 6.034 0 0 1 .015-.428 6.305 6.034 0 0 1 .077-.6 6.305 6.034 0 0 1 .136-.588 6.305 6.034 0 0 1 .2-.572 6.305 6.034 0 0 1 .257-.55 6.305 6.034 0 0 1 .313-.524 6.305 6.034 0 0 1 .367-.49 6.305 6.034 0 0 1 .416-.453 6.305 6.034 0 0 1 .461-.412 6.305 6.034 0 0 1 .502-.366 6.305 6.034 0 0 1 .537-.314 6.305 6.034 0 0 1 .566-.262 6.305 6.034 0 0 1 .594-.207 6.305 6.034 0 0 1 .61-.15 6.305 6.034 0 0 1 .623-.09 6.305 6.034 0 0 1 .63-.03 6.305 6.034 0 0 1 .184.003 6.305 6.034 0 0 1 .629.048 6.305 6.034 0 0 1 .62.11 6.305 6.034 0 0 1 .605.166 6.305 6.034 0 0 1 .586.224 6.305 6.034 0 0 1 .558.28 6.305 6.034 0 0 1 .527.33 6.305 6.034 0 0 1 .49.38 6.305 6.034 0 0 1 .216-.183 6.305 6.034 0 0 1 .502-.365 6.305 6.034 0 0 1 .537-.317 6.305 6.034 0 0 1 .566-.263 6.305 6.034 0 0 1 .592-.207 6.305 6.034 0 0 1 .61-.15 6.305 6.034 0 0 1 .622-.09 6.305 6.034 0 0 1 .631-.032 6.305 6.034 0 0 1 .443.014 6.305 6.034 0 0 1 .627.074 6.305 6.034 0 0 1 .616.13 6.305 6.034 0 0 1 .597.19 6.305 6.034 0 0 1 .575.248 6.305 6.034 0 0 1 .546.3 6.305 6.034 0 0 1 .514.35 6.305 6.034 0 0 1 .473.4 6.305 6.034 0 0 1 .43.44 6.305 6.034 0 0 1 .382.48 6.305 6.034 0 0 1 .328.515 6.305 6.034 0 0 1 .276.543 6.305 6.034 0 0 1 .215.566 6.305 6.034 0 0 1 .156.584 6.305 6.034 0 0 1 .094.596 6.305 6.034 0 0 1 .033.603 6.305 6.034 0 0 1-.016.426 6.305 6.034 0 0 1-.076.598 6.305 6.034 0 0 1-.139.588 6.305 6.034 0 0 1-.107.306c2.13-.783 3.66-2.781 3.66-5.19v-8.878l-1.492-.053c-.077-.483-.22-.841-.408-1.117a2.169 2.169 0 0 0-.672-.627c-.503-.312-1.087-.472-1.565-.832l-9.693-.34z" fill="#424242" fill-rule="evenodd"/><path d="M15.098 2.17c.13.725.025 1.386-.317 1.984-.365.64-.938 1.223-1.59 1.784-1.302 1.12-2.915 2.155-3.793 3.373-.54.377-.962.775-1.296 1.183a5.28 5.28 0 0 0-.762 1.244c-.365.837-.479 1.675-.56 2.428-.083.753-.133 1.423-.366 1.926a1.454 1.454 0 0 1-.514.619c-.235.158-.543.263-.95.307H2.17v7.779c0 2.416 1.54 4.418 3.682 5.195a6.67 6.383 0 0 1-.069-.178 6.67 6.383 0 0 1-.166-.619 6.67 6.383 0 0 1-.1-.63 6.67 6.383 0 0 1-.033-.637 6.67 6.383 0 0 1 .018-.453 6.67 6.383 0 0 1 .08-.633 6.67 6.383 0 0 1 .145-.623 6.67 6.383 0 0 1 .21-.606 6.67 6.383 0 0 1 .274-.582 6.67 6.383 0 0 1 .33-.554 6.67 6.383 0 0 1 .389-.518 6.67 6.383 0 0 1 .44-.48 6.67 6.383 0 0 1 .487-.434 6.67 6.383 0 0 1 .532-.387 6.67 6.383 0 0 1 .568-.334 6.67 6.383 0 0 1 .6-.277 6.67 6.383 0 0 1 .627-.219 6.67 6.383 0 0 1 .646-.158 6.67 6.383 0 0 1 .658-.096 6.67 6.383 0 0 1 .666-.031 6.67 6.383 0 0 1 .61.03 6.67 6.383 0 0 1 .66.093 6.67 6.383 0 0 1 .646.156c-.162-.56-.178-1.457.223-2.197.2-.37.506-.7.95-.93.442-.229 1.022-.357 1.775-.322-.3-.391-.389-1.271-.418-2.291-.03-1.02 0-2.18-.057-3.133l9.693.34c.478.36 1.062.52 1.565.832.251.156.484.351.672.627.187.276.33.634.408 1.117l1.492.053V10.34c-.203.1-.419.277-.617.357-.744.3-1.456.461-2.121.502a4.995 4.995 0 0 1-1.84-.217 4.153 4.153 0 0 1-2.484-2.107 4.548 4.548 0 0 1-.463-1.652 5.46 5.46 0 0 1 .177-1.891 7.157 7.157 0 0 1 .907-2.01c-.809-.082-1.399-.277-1.827-.554-.242-.158-.334-.393-.482-.598h-6.525z" fill="#f9f9f9" fill-rule="evenodd"/><path d="M2.17 17.018h2.78c.407-.044.715-.15.95-.307.236-.158.398-.368.514-.62.233-.502.283-1.172.365-1.925.082-.753.196-1.59.56-2.428a5.28 5.28 0 0 1 .763-1.244 6.362 6.362 0 0 1 1.296-1.183c.878-1.218 2.491-2.252 3.793-3.373.652-.561 1.225-1.144 1.59-1.784.342-.598.448-1.26.317-1.984H7.744A5.561 5.561 0 0 0 2.17 7.744v9.274z" fill="#3f3f3f" fill-rule="evenodd"/><path d="M21.623 2.17c.148.205.24.44.482.598.428.277 1.018.472 1.827.554a7.157 7.157 0 0 0-.907 2.01 5.46 5.46 0 0 0-.177 1.89c.052.598.212 1.155.463 1.653a4.153 4.153 0 0 0 2.484 2.107 4.995 4.995 0 0 0 1.84.217 6.779 6.779 0 0 0 2.12-.502c.2-.08.415-.257.618-.357V7.744a5.563 5.563 0 0 0-5.576-5.574h-3.174z" fill="#424242" fill-rule="evenodd"/><ellipse cx="16.365" cy="6.792" rx="5.553" ry="7.044" transform="rotate(26.193)" fill="#424242"/><ellipse cx="-14.035" cy="21.238" rx="5.553" ry="7.044" transform="scale(-1 1) rotate(25.484)" fill="#424242"/><ellipse cx="-14.069" cy="21.179" rx="5.09" ry="6.458" transform="scale(-1 1) rotate(25.484)" fill="#e6e6e6"/><ellipse cx="16.331" cy="6.733" rx="5.09" ry="6.458" transform="rotate(26.193)" fill="#e6e6e6"/><ellipse cx="14.282" cy="13.507" rx="1.814" ry="1.864" transform="rotate(-3.543)" fill="#272727"/><ellipse cx="-19.471" cy="10.734" rx="2.32" ry="2.386" transform="scale(-1 1) rotate(-4.253)" fill="#272727"/></svg>