<svg xmlns="http://www.w3.org/2000/svg" height="32" width="32" version="1"><path d="M9.084 30.104h15.441a5.565 5.565 0 0 0 5.577-5.576V7.475a5.563 5.563 0 0 0-5.577-5.574H9.084z" fill="#009587" fill-rule="evenodd"/><path d="M9.084 30.104V1.9H7.473a5.561 5.561 0 0 0-5.575 5.574v17.053a5.563 5.563 0 0 0 5.575 5.576z" fill="#00776c" fill-rule="evenodd"/><path d="M18.59 10.14l-.135 1.596a4.76 4.76 0 0 0-1.39.804l-1.45-.682L14.1 14.48l1.317.914a4.76 4.76 0 0 0-.073.803 4.76 4.76 0 0 0 .07.806l-1.314.911 1.515 2.623 1.446-.68a4.76 4.76 0 0 0 1.395.799l.133 1.598h3.029l.133-1.595a4.76 4.76 0 0 0 1.391-.805l1.45.683 1.515-2.623-1.317-.914a4.76 4.76 0 0 0 .073-.803 4.76 4.76 0 0 0-.07-.806l1.314-.91-1.515-2.624-1.446.681a4.76 4.76 0 0 0-1.395-.799l-.133-1.599h-3.029zm1.513 4.327a1.73 1.73 0 0 1 1.731 1.731 1.73 1.73 0 0 1-1.73 1.73 1.73 1.73 0 0 1-1.731-1.73 1.73 1.73 0 0 1 1.73-1.73z" fill="#fff"/></svg>