<svg xmlns="http://www.w3.org/2000/svg" height="32" width="32" version="1"><path d="M9.084 30.104h15.441a5.565 5.565 0 0 0 5.577-5.576V7.475a5.563 5.563 0 0 0-5.577-5.574H9.084z" fill="#009587" fill-rule="evenodd"/><path d="M9.084 30.104V1.9H7.473a5.561 5.561 0 0 0-5.575 5.574v17.053a5.563 5.563 0 0 0 5.575 5.576z" fill="#00776c" fill-rule="evenodd"/><path d="M20.05 12.698c-1.157.01-2.322.275-3.33.847-.403.262-.885.6-1.249.94-.572.56-1.062 1.214-1.393 1.946.907 2.001 2.901 3.468 5.095 3.684 1.439.163 2.945-.085 4.21-.797.401-.262.884-.6 1.248-.941.572-.561 1.061-1.215 1.392-1.946-.906-2-2.901-3.467-5.094-3.684a7.443 7.443 0 0 0-.878-.05zm0 1.493c1.2-.027 2.263 1.047 2.24 2.24.039 1.32-1.275 2.457-2.575 2.211-1.312-.154-2.233-1.626-1.802-2.873.276-.917 1.177-1.589 2.138-1.578zm0 1.494a.747.747 0 0 0-.746.747.747.747 0 0 0 .747.747.747.747 0 0 0 .746-.747.747.747 0 0 0-.746-.746z" fill="#fff" fill-rule="evenodd"/></svg>