<svg xmlns="http://www.w3.org/2000/svg" height="32" width="32" version="1"><rect width="28.203" height="28.203" x="1.898" y="1.898" ry="5.575" fill="#1e8438" fill-rule="evenodd"/><g stroke-width=".726"><g transform="matrix(1.37785 0 0 1.37785 -13.516 -13.341)"><rect width="7.466" height="10.151" x="21.955" y="13.735" ry="1.27" fill="#fff" fill-rule="evenodd"/><path d="M22.454 18.993c0-.863.026-1.18.097-1.209.073-.03.069-.058-.016-.117-.098-.068-.095-.098.019-.224a.627.627 0 0 0 .13-.371c-.003-.215-.008-.219-.116-.076-.103.136-.114.099-.114-.409 0-.49.024-.581.19-.747.268-.268.746-.267.89.003.09.168.085.212-.04.35-.197.217-.461.172-.461-.08 0-.106.043-.193.096-.193.053 0 .093.035.09.078-.005.042-.04.068-.078.057-.038-.01-.07.018-.07.064 0 .045.061.071.136.057.074-.015.135-.095.135-.18 0-.213-.311-.249-.42-.047-.1.189-.036.373.168.483.205.11.55-.138.584-.418.039-.32-.242-.545-.617-.495-.168.023-.373.102-.454.175-.145.131-.202.076-.09-.087.106-.151.53-.275.759-.22.264.062.494.245.494.391 0 .057.034.104.075.104.04 0 .057.045.035.101-.021.056-.006.186.033.29l.072.187.054-.208a.442.442 0 0 0-.069-.383c-.15-.214-.161-.346-.02-.229.058.048.126.064.154.037.027-.028-.01-.094-.084-.148-.074-.053-.109-.123-.078-.153.085-.086.29.12.29.29 0 .088.041.137.097.118.053-.02.092-.143.085-.276-.01-.217.008-.238.168-.197.218.054.519-.03.457-.13-.024-.038-.111-.07-.194-.07-.221 0-.179-.101.1-.232.318-.15.396-.352.108-.28-.117.03-.203.019-.203-.025 0-.167.363-.294.837-.295.387-.001.523.031.643.151.186.186.137.262-.09.14-.152-.08-.165-.071-.143.09.018.127.104.206.292.266l.266.086-.227.12c-.196.104-.209.128-.09.174.075.03.234.035.352.011.2-.04.213-.027.183.175-.048.324.1.349.28.046.151-.258.152-.267.011-.312-.354-.112-.831-.964-.54-.964.043 0 .078.082.078.182 0 .38.593.816.983.723.153-.037.065-.086-.294-.164-.37-.08-.666-.454-.53-.671.055-.088.09-.076.19.065.153.216.417.222.64.014.137-.127.241-.151.515-.121.4.044.524.104.452.22-.03.049-.016.062.034.032.115-.072.247.194.247.495v.245l-.148-.182c-.081-.1-.173-.157-.204-.127-.03.031-.017.104.032.162.161.195-.006.202-.256.01-.298-.226-.376-.238-.315-.045.039.12-.007.153-.272.195-.32.051-.534.193-.534.354 0 .048.04.063.09.032.063-.04.073-.011.033.092a2.836 2.836 0 0 0-.102.373c-.036.178-.022.215.068.18.065-.024.154.02.206.104.05.08.148.146.217.146.09 0 .07-.044-.078-.16a.46.46 0 0 1-.2-.405c.003-.332.16-.516.51-.595.401-.09.953.142.953.402v.175l-.116-.165c-.241-.344-.955-.406-1.12-.097-.247.46.26.961.638.63.254-.221.117-.556-.228-.556-.137 0-.177.043-.177.193 0 .141.041.192.154.192.085 0 .155-.038.155-.085 0-.047-.053-.065-.116-.041-.133.051-.158-.07-.031-.148.046-.029.142.006.212.077.119.121.115.14-.053.278-.206.17-.432.102-.512-.153-.145-.455.564-.656.928-.263.104.112.192.242.195.289.067.874.02 1.19-.121.837-.048-.117-.065-.109-.129.058-.062.162-.043.217.123.35.224.178.251.267.082.267-.064 0-.116.02-.116.044 0 .025.052.097.116.16.092.092.116.34.116 1.212v1.097l-3.24-.003-3.24-.002v-1.17zm1.604.881c.01-.095.032-.243.05-.328l.038-.188c.003-.019.055.033.115.115.06.082.089.184.065.227-.023.043.003.036.058-.015.082-.076.082-.116.002-.212-.087-.105-.067-.114.161-.076.253.042.255.04.079-.065a.527.527 0 0 0-.682.12c-.077.088-.096.134-.043.103.059-.034.096-.012.096.058 0 .062-.036.126-.081.14-.085.029-.019.295.073.295.028 0 .06-.078.07-.174zm1.945.058c.054-.064.062-.116.02-.116-.043 0-.121.052-.174.116-.054.065-.062.116-.019.116.042 0 .12-.052.173-.116zm.656.039c-.026-.043-.008-.077.04-.077.049 0 .073-.044.053-.097-.02-.053-.074-.088-.122-.077-.048.01-.087-.028-.087-.086 0-.072-.074-.097-.231-.079-.127.015-.232-.007-.232-.049 0-.041.035-.075.077-.075.09 0 .08-.607-.011-.663-.035-.022-.043.014-.018.08.025.066.012.12-.03.12-.13 0-.289-.248-.262-.406.016-.093-.007-.131-.058-.1-.156.097-.084.346.148.518.265.196.32.367.06.185-.233-.164-.37-.148-.17.02a.769.769 0 0 1 .214.344c.03.115.078.205.11.2.191-.029.322.03.365.165.027.084.083.154.125.154.042 0 .055-.035.029-.077zm.794-.203c.03-.294-.205-.518-.534-.508-.306.008-.492.165-.218.183.104.006.268.005.363-.003.154-.014.174.02.174.303 0 .373.178.394.215.025zm-2.684.044c0-.045.032-.062.072-.037.04.024.092.01.118-.031.025-.041.106-.053.179-.026.112.043.117.032.033-.072-.102-.125-.352-.108-.537.037-.132.102-.122.21.02.21.063 0 .115-.036.115-.081zm1.068-.159c.073-.117.078-.187.018-.247s-.083-.035-.083.086c0 .094-.03.17-.068.17-.105 0-.246-.2-.185-.262.03-.03-.005-.032-.077-.004-.173.066-.168.097.04.27.22.184.232.184.355-.013zm1.17.017c0-.038-.058-.09-.128-.117-.105-.04-.11-.03-.029.069.111.134.156.148.156.048zm-3.21-.408c.089-.074.276-.157.415-.185.333-.066.219-.21-.274-.343-.522-.141-.787-.29-.866-.484-.05-.124-.07-.135-.073-.04a.403.403 0 0 0 .117.25c.11.111.089.155-.064.131-.032-.005-.058.03-.058.077 0 .052.083.07.207.047.122-.023.25.004.314.068.092.092.084.105-.06.088-.177-.02-.382.201-.28.303.033.033.083.023.113-.021.03-.045.162-.144.295-.221.23-.135.249-.135.424-.004.136.1.146.123.037.086-.224-.077-.51.15-.503.4.003.12.024.162.05.096a.826.826 0 0 1 .206-.248zm1.71-.063c.06 0 .11-.033.11-.075 0-.102-.248-.008-.366.14-.08.099-.097.1-.097.008 0-.061.11-.202.244-.312.189-.156.23-.235.181-.348-.06-.14-.064-.14-.097.009-.019.084-.136.249-.261.365-.195.18-.215.234-.14.374l.087.163.113-.162c.063-.089.164-.162.225-.162zm2.27.146c0-.043-.111-.18-.248-.304-.313-.287-.125-.31.28-.035.156.106.3.193.32.193.082 0 .025-.22-.081-.308-.173-.143-.14-.215.077-.174.112.022.193.001.193-.049 0-.047-.058-.086-.128-.086-.119 0-.119-.01 0-.141.07-.078.125-.19.122-.25-.006-.092-.014-.092-.051.003-.078.197-.355.38-.764.5-.217.065-.478.187-.578.27l-.183.153.252-.07c.14-.038.234-.04.211-.003-.022.037.038.078.134.092a.36.36 0 0 1 .248.193c.072.163.197.173.197.016zm-.954-.496c.09-.098.316-.219.502-.269.567-.153.672-.214.802-.466.225-.435-.03-.83-.466-.72-.244.06-.365.275-.301.531s.399.352.542.156c.117-.16.016-.425-.161-.425-.153 0-.229.152-.126.254.063.063.085.05.085-.045 0-.073.035-.132.078-.132.096 0 .102.284.007.343-.213.132-.47-.272-.303-.474.129-.155.476-.122.588.057.081.13.077.202-.025.417-.13.272-.412.411-.515.252-.044-.067-.077-.07-.119-.007-.032.047-.197.158-.366.245a1.142 1.142 0 0 0-.486.493c-.111.21-.126.266-.038.15.076-.1.212-.261.302-.36zm-2.17.074a1.406 1.406 0 0 0-.466-.386c-.139-.058-.27-.15-.292-.204-.031-.076-.058-.073-.118.014-.066.094-.108.096-.268.01-.296-.158-.41-.426-.281-.666.083-.155.154-.192.34-.174.202.02.24.058.26.264.028.293-.192.427-.349.213-.053-.074-.122-.11-.151-.08-.11.11.188.304.387.254.304-.077.327-.595.034-.752-.366-.196-.73.13-.646.58.048.254.364.509.631.509.258 0 .768.305.909.544.077.13.16.22.183.196.023-.023-.055-.168-.172-.322zm.424-.42c0-.033-.12-.131-.267-.218-.333-.196-.427-.493-.226-.715.104-.115.201-.146.36-.114.134.027.2.014.171-.032-.105-.17-.732.006-.732.206 0 .147-.132.128-.225-.032-.072-.124-.079-.122-.081.02-.001.086.084.221.19.3.106.08.193.201.192.27 0 .077-.023.092-.058.041-.056-.083-.327-.209-.327-.152 0 .115.106.265.163.23.038-.023.069-.005.069.042 0 .056.046.06.135.013.084-.044.207-.04.328.01l.193.08-.232.049-.231.05.212.055c.117.03.212.092.212.136 0 .044-.031.061-.07.037-.038-.023-.05.03-.027.12.038.146.053.137.147-.086.057-.137.104-.276.104-.31zm1.411.387c.023-.084.013-.137-.021-.116-.034.021-.085-.021-.113-.094-.066-.174.165-.343.43-.316.201.021.454-.122.454-.257 0-.039-.072-.032-.159.014-.087.047-.2.07-.25.052-.133-.047-.5.154-.59.325-.058.107-.049.17.036.24.063.052.114.142.114.2 0 .156.053.13.1-.048zm-1.208-.503c-.024-.063-.076-.114-.116-.114-.04 0-.033.084.017.19.091.195.178.128.099-.076zm1.108-.208c.418-.28.392-.596-.049-.599-.176-.001-.303.194-.176.272.041.026.066.001.054-.055-.013-.063.052-.102.17-.102.311 0 .275.221-.072.451-.218.145-.31.259-.304.38l.008.172.05-.17c.027-.092.171-.25.32-.35zm.271.403c.137-.059.13-.067-.058-.072-.117-.003-.212.03-.212.072 0 .09.06.09.27 0zm-.787-.4c.008.013.082-.001.163-.032.137-.053.135-.061-.032-.123-.11-.041-.21-.037-.259.012-.053.053-.123.037-.218-.049-.157-.142-.193-.037-.044.128.059.065.013.055-.115-.025-.117-.073-.212-.1-.212-.06 0 .04.112.14.25.224.23.139.26.14.35.026.056-.069.108-.114.117-.101zm-1.028-.126c-.248-.201-.159-.437.138-.364.16.04.19.03.124-.037-.142-.144-.45-.06-.477.13-.022.155.276.532.357.45.02-.019-.044-.1-.142-.18zm2.297-.237a.427.427 0 0 0 .095-.235c-.001-.085-.046-.064-.153.072-.118.151-.151.165-.152.062-.004-.26-.676-.514-.805-.304-.023.036.045.05.15.03a.616.616 0 0 1 .391.095c.167.11.193.171.155.365-.043.213-.035.225.088.132.074-.056.178-.154.231-.217zm-3.414-.014c0-.142-.262-.19-.374-.068-.069.075-.057.085.053.046.188-.066.333.023.195.12-.085.06-.083.068.01.042.064-.017.116-.08.116-.14zm1.386.087c.025-.04-.025-.067-.111-.06-.086.006-.156.039-.156.072 0 .085.213.076.267-.012zm.77-.123c.171-.129.104-.15-.112-.035-.097.052-.16.051-.193-.002-.027-.044-.02-.07.014-.059.104.034.566-.418.563-.55-.002-.079-.102-.012-.277.186-.155.175-.29.27-.31.22-.075-.186-.413-.527-.413-.417 0 .061.093.209.207.328.187.195.192.216.058.219-.129.002-.123.018.043.113.238.136.237.136.42-.002zm-1.128-.546c.177-.035.245-.092.245-.202 0-.184-.561-.728-.608-.589-.017.052.037.15.12.217.147.118.292.467.195.467-.027 0-.122-.092-.211-.204-.131-.165-.204-.195-.37-.153-.233.058-.288.33-.082.41.121.046.296-.125.209-.205-.025-.022-.06.003-.08.056-.048.134-.176.12-.176-.02 0-.072.073-.115.193-.115.153 0 .193.039.193.188 0 .104-.035.21-.077.236a.175.175 0 0 0-.077.132c0 .047.063.028.14-.042a.96.96 0 0 1 .386-.176zm2.175-.027c-.12-.226-.024-.335.25-.28.199.04.217.03.135-.07a.345.345 0 0 0-.23-.116c-.167 0-.42.272-.352.381.028.045.033.082.01.082-.022 0-.076-.067-.12-.15-.066-.123-.043-.186.128-.345.26-.24.191-.337-.105-.15-.274.175-.332.256-.333.463 0 .128.06.177.273.217.15.028.296.108.323.178.028.074.06.09.078.038.016-.048-.01-.16-.057-.248zm-.85-.384c.339-.444.348-1.01.017-1.005-.123.002-.123.008.003.081a.3.3 0 0 1 .135.234c0 .085-.032.135-.071.11-.04-.023-.094.06-.121.186a1.277 1.277 0 0 1-.209.43l-.158.2-.184-.172c-.1-.095-.183-.233-.183-.307 0-.206-.086-.383-.163-.335-.103.064-.083-.23.024-.337.069-.069.07-.092.003-.092-.05 0-.128.07-.175.158-.118.221.034.645.381 1.06.309.37.242.39.701-.211zm1.264.339c.027-.069.014-.1-.03-.073-.042.026-.076.08-.076.12 0 .11.055.086.106-.047zm-.214-.168c-.079-.079-.143.04-.079.144.049.078.067.078.093 0 .018-.054.012-.119-.014-.144zm-1.235-.716c.048-.258.044-.263-.075-.115-.12.147-.124.14-.106-.17.011-.185-.014-.318-.058-.309-.042.009-.068.155-.056.325.02.28.011.295-.089.168-.146-.185-.238-.034-.118.196.174.336.24.387.351.275.056-.056.124-.223.151-.37zm-2.126.148c.124-.231.06-.244-.133-.026-.117.131-.135.187-.06.187.06 0 .146-.072.193-.16zm-1.056-1.248c.056-.223-.013-.272-.166-.118-.072.072-.093.047-.093-.112 0-.513.831-.897 1.149-.531.18.208.451.21.67.004.218-.204.287-.096.138.212-.108.223-.444.43-.838.514-.11.024-.093.036.06.042a.894.894 0 0 0 .875-.52c.08-.174.171-.316.203-.317.084-.003.067.08-.08.382-.186.38-.65.622-1.08.565-.277-.037-.322-.067-.283-.188.064-.203-.066-.179-.358.066l-.25.211.053-.21zm1.11-.732c-.218-.049-.154-.148.097-.148.127 0 .232.026.232.056 0 .08-.17.127-.328.092zm3.434.003c-.177-.064-.1-.15.135-.15.127 0 .231.01.231.022 0 .06-.28.158-.366.128z" fill="#1e8438"/></g><g transform="matrix(1.37785 0 0 1.37785 -.84 -2.229)"><rect width="7.466" height="10.151" x="4.223" y="5.67" ry="1.27" fill="#fff" fill-rule="evenodd"/><path d="M6.986 13.976c-1.179-1.207-1.438-1.604-1.438-2.199 0-.639.324-1.063.937-1.226.309-.083.406-.078.71.038.194.074.461.26.595.411l.242.276.282-.308c.659-.719 1.69-.59 2.103.263.157.326.165.395.083.784-.12.575-.493 1.109-1.249 1.793-.347.314-.758.727-.913.918l-.282.347zM9.49 7.955c-.425-.435-.518-.578-.518-.792 0-.23.116-.383.337-.442.111-.03.146-.028.256.014.07.027.166.093.214.148l.087.1.102-.111c.237-.26.608-.213.757.094.056.117.059.142.03.282-.044.207-.178.4-.45.646a4.011 4.011 0 0 0-.329.33l-.101.125z" fill="#d10000"/><text style="line-height:1.25" x="6.917" y="7.526" transform="scale(.76244 1.31157)" font-weight="400" font-size="3.494" font-family="sans-serif" letter-spacing="0" word-spacing="0"><tspan x="6.917" y="7.526">A</tspan></text></g><g transform="matrix(1.37785 0 0 1.37785 -.242 -3.212)"><path d="M15.083 19.658c-1.178-1.208-1.437-1.604-1.437-2.2 0-.638.324-1.062.936-1.226.31-.082.407-.077.71.04.194.073.462.258.595.41l.242.276.282-.308c.66-.719 1.69-.59 2.103.263.157.326.165.395.083.784-.12.575-.492 1.109-1.249 1.793-.347.313-.758.726-.913.917l-.282.348z" fill="#d10000"/><rect width="7.466" height="10.151" x="12.321" y="11.352" ry="1.27" fill="#fff" fill-rule="evenodd"/><path d="M14.927 20.483c.482-.17.99-.755 1.11-1.277.06-.259.017-.26-.377-.018-.358.22-.994.26-1.335.083-.425-.221-.594-.487-.594-.933 0-.554.248-.896 1.261-1.74.436-.363.87-.758.966-.878l.173-.217.209.247c.114.136.511.5.882.81.848.706 1.06.934 1.21 1.293.353.843-.157 1.526-1.138 1.526-.318 0-.485-.046-.701-.193a2.047 2.047 0 0 0-.32-.192c-.114 0-.004.487.169.741.213.314.358.443.752.667.233.132.213.134-1.073.128-.72-.003-1.258-.024-1.194-.047zM17.372 14.296c.204-.072.42-.32.47-.54.026-.11.008-.111-.16-.008-.151.093-.42.11-.565.035-.18-.094-.251-.206-.251-.395 0-.235.105-.38.534-.737a4.65 4.65 0 0 0 .409-.372l.073-.092.088.105c.049.058.217.212.374.343.359.299.449.395.513.547.149.357-.067.647-.483.647a.455.455 0 0 1-.296-.082.867.867 0 0 0-.136-.082c-.048 0-.001.207.072.314.09.133.151.188.318.282.099.056.09.058-.454.055-.305-.001-.533-.01-.506-.02z"/><text style="line-height:1.25" x="16.575" y="12.377" transform="scale(.7969 1.25487)" font-weight="400" font-size="3.577" font-family="sans-serif" letter-spacing="0" word-spacing="0"><tspan x="16.575" y="12.377">4</tspan></text></g></g></svg>