<svg xmlns="http://www.w3.org/2000/svg" height="32" width="32"><rect width="28.203" height="28.203" x="1.898" y="1.898" ry="5.575" fill="#4bae4f" fill-rule="evenodd"/><path d="M8.78 25.942c-1.27-.336-2.242-1.268-2.655-2.548-.1-.31-.111-.408-.145-1.321-.02-.543-.03-3.666-.02-6.942l.015-5.956.087-.335c.175-.682.647-1.46 1.15-1.897.486-.421.904-.65 1.56-.85l.351-.108 6.324-.015c6.469-.016 7.415 0 7.856.131.841.25 1.654.842 2.105 1.532.241.37.37.65.525 1.148l.11.355v13.726l-.091.335c-.243.883-.715 1.595-1.402 2.116-.32.242-.95.539-1.363.641-.332.082-.362.083-7.199.08l-6.865-.001zm12.077-1.438l1.992-.025.355-.174c.496-.242.864-.61 1.095-1.095l.166-.348.026-1.263c.033-1.621.034-9.514 0-11.162l-.025-1.262-.173-.355a2.303 2.303 0 0 0-1.086-1.088l-.351-.174-1.325-.031c-.728-.018-3.756-.025-6.728-.016-5.987.017-5.589-.001-6.11.275-.309.163-.757.61-.918.916-.285.543-.264-.041-.262 7.336l.002 6.626.083.257a2.33 2.33 0 0 0 1.22 1.39l.345.168 1.755.02c2.558.032 7.643.034 9.94.005z" fill="#7eec65"/><path d="M14.195 22.578a1.98 1.98 0 0 1-.375-.225c-.237-.177-3.769-3.668-4.317-4.267-.36-.394-.418-.537-.34-.848.04-.164.12-.261.634-.785.323-.33.656-.646.74-.704.213-.148.418-.167.627-.06.102.051.685.593 1.496 1.388 1.254 1.232 1.568 1.524 1.6 1.488.012-.014 1.013-1.488 4.015-5.912 2.133-3.143 2.09-3.083 2.284-3.187a.602.602 0 0 1 .39-.078c.2.013.266.047.79.397.91.61 1.011.699 1.086.955a.79.79 0 0 1 .036.344c-.04.182-2.99 4.584-6.521 9.731-.964 1.406-1.115 1.597-1.35 1.708-.199.095-.613.123-.795.055z" fill="#b0ff89"/></svg>