<svg xmlns="http://www.w3.org/2000/svg" height="32" width="32" version="1"><path d="M29.787 5.872c-1.07 1.472-2.15 2.783-3.24 3.795a18.333 18.333 0 0 1-3.7 2.687 17.327 17.327 0 0 1-3.722 1.499c-1.24.342-2.477.548-3.707.683-2.46.27-4.885.249-7.228.447-1.172.1-2.323.254-3.448.526-.97.234-1.909.613-2.835 1.064v7.953a5.563 5.563 0 0 0 5.574 5.577h17.052a5.565 5.565 0 0 0 5.577-5.577V7.474c0-.57-.166-1.086-.323-1.602z" opacity=".99" fill="#ad7fa8" fill-rule="evenodd"/><path d="M7.48 1.897a5.563 5.563 0 0 0-5.573 5.577v9.1c.926-.452 1.865-.83 2.835-1.065 1.125-.272 2.276-.426 3.448-.526 2.343-.198 4.769-.178 7.228-.447a23.456 23.456 0 0 0 3.707-.683 17.327 17.327 0 0 0 3.723-1.499 18.333 18.333 0 0 0 3.7-2.687c1.09-1.012 2.169-2.323 3.24-3.795-.696-2.287-2.735-3.975-5.255-3.975z" opacity=".99" fill="#c19ebd" fill-rule="evenodd"/><path d="M1.895 18.526l.048 4.362c7.45 5.018 14.132 3.414 20.566-.335.584 2.18-.192-6.904-.192-6.904-6.979 2.787-13.826 4.172-20.422 2.877z" fill="#c09dbd"/><path d="M2.195 19.628l.048 3.836c7.45 5.017 14.132 3.413 20.566-.336l-.192-6.376c-6.979 2.787-13.826 4.171-20.422 2.876z" fill="#eeeeec" stroke="#555753" stroke-width=".6"/><path d="M4.784 20.252L4.64 24.47l.959-4.123zM12.406 19.916l1.534 5.992-.335-6.136zM8.427 20.347l.24 5.657.623-5.752z" fill="#b5b6b2"/><path d="M1.916 11.038c2.46-.67 4.583-.63 6.48-.12-.51-.391-3.215-2.458-6.48-.44zM14.13 10.353c2.98-1.688 5.454-1.78 7.803-1.482-.643-.367-4.46-3.004-7.803 1.482z" fill="#2e3436"/><g transform="matrix(.84987 0 0 .85094 -46.362 .226)" stroke-width="1.176"><path d="M76.106 28.624l-1.055 1.87c-1.586 3.494 11.886 3.159 10.223.047l-1.067-2.445z" fill="#555753" stroke="#555753" stroke-width=".941"/><circle cx="80.034" cy="22.61" r="7.966" fill="#f3f3f3" stroke="#555753" stroke-width=".706" stroke-linecap="round" stroke-linejoin="bevel"/><circle cx="80.034" cy="22.61" r="3.763" fill="#9b9c9a" stroke="#2e3436" stroke-width=".706" stroke-linecap="round" stroke-linejoin="bevel"/><circle cx="75.511" cy="18.845" r=".78" fill="#4e9a06"/><circle cx="80.034" cy="22.61" r="2.712" fill="#555753"/><ellipse cx="79.315" cy="21.508" rx=".661" ry=".692" fill="#e0e0df"/><ellipse cx="80.051" cy="14.864" rx="2.695" ry=".864" fill="#555753" stroke="#555753" stroke-width=".941" stroke-linecap="round" stroke-linejoin="bevel"/></g></svg>