<svg xmlns="http://www.w3.org/2000/svg" width="32" height="32"><rect width="28.203" height="28.203" x="1.898" y="1.898" ry="5.575" fill="#c72828" fill-rule="evenodd"/><path d="M18.725 25.088c-.568-.144-1.304-.462-1.714-.74l-.301-.205.22-.204c.285-.265.888-1.115 1.128-1.59.905-1.795.832-4.188-.175-5.716l-.321-.487.364-.025c.321-.023.402-.073.69-.434.648-.81 1.489-1.185 2.654-1.185 1.176 0 2.085.397 2.885 1.262.965 1.041 1.448 2.276 1.439 3.67-.017 2.52-1.548 4.71-3.828 5.477-.87.293-2.263.374-3.04.177zm-1.206-9.896c-.023-.037-.123-.445-.223-.906-.14-.647-.189-1.224-.217-2.525-.026-1.185-.01-1.65.051-1.56.049.07.234.373.411.674.306.519.326.599.38 1.476.048.807.197 1.76.348 2.237.097.304-.592.86-.75.604z" fill="#ff7b7c"/><path d="M11.395 25.21c-2.168-.35-4.026-2.018-4.605-4.137-.193-.706-.197-2.118-.008-2.834.415-1.574 1.392-2.52 2.908-2.814a3.12 3.12 0 0 1 2.009.249l.546.255.51-.258c.643-.328 1.279-.395 1.998-.21 1.487.38 2.464 1.292 2.905 2.709.239.77.253 2.12.03 2.867-.284.948-.71 1.633-1.525 2.45-.648.65-.881.822-1.563 1.151-.44.214-.976.43-1.19.48-.58.135-1.49.177-2.015.093zm.649-10.384c-.192-.108-.18-.33.072-1.306.688-2.66 2.568-4.972 5.246-6.451.336-.186.611-.37.611-.408 0-.156.798-1.117.986-1.189.273-.104.686.075.979.423.125.149.228.307.228.352 0 .045-.174.267-.386.495l-.387.413.344.089.703.182c1.215.315 2.37 1.212 2.97 2.31.178.326.453.81.612 1.076.16.27.276.568.26.674-.054.388-1.383.818-2.53.821-1.16.003-2.086-.334-2.817-1.025-.758-.717-1.166-1.586-1.27-2.704-.044-.469-.078-.57-.182-.53-.41.158-1.43.946-2.129 1.643-1.274 1.272-1.972 2.484-2.395 4.156-.104.41-.223.776-.265.811-.189.16-.514.244-.65.168z" fill="#fff"/></svg>