<svg xmlns="http://www.w3.org/2000/svg" width="32" height="32"><rect width="28.203" height="28.203" x="1.898" y="1.898" ry="5.575" fill="#666" fill-rule="evenodd"/><path d="M16.826 4.903c-.125.062-.267.109-.38.194a6.628 6.628 0 0 0-.62.534c-.213.21-.433.329-.743.393-.747.151-1.187.318-1.885.611-1.55.653-2.577 1.882-3.308 3.36-.65 1.315-.66 2.74-.608 4.171.11 2.954 1.87 5.11 2.81 7.382h.244c-.367 0-.695.247-.695.554v1.112c0 .307.328.712.695.712h-.523c-.48 0-.965.37-.965.831v1.509c0 .46.485.83.965.83h7.654c.48 0 .892-.37.892-.83v-1.509c0-.46-.412-.831-.892-.831h-.523c.367 0 .623-.405.623-.712v-1.112c0-.307-.256-.554-.623-.554h.102c.238-.22.228-.616.44-.842.962-1.017 1.133-2.462.458-3.698-.33-.604-.794-1.094-1.33-1.513-.603-.471-1.226-.916-1.834-1.38-.174-.133-.152-.284-.384-.493.574.121.855.27 1.317.294.797.039 1.484.383 2.122.847.246.179.532.323.82.423.376.128.562.036.786-.303.059-.09.094-.192.15-.31.444.011.689-.33.81-.74.042-.14.113-.27.164-.407.345-.914.168-1.724-.494-2.43-.147-.161-.323-.295-.477-.45-.516-.515-1.034-1.027-1.537-1.554-.364-.384-.693-.8-1.061-1.181-.183-.188-.337-.375-.421-.627a1.522 1.522 0 0 0-.718-.862c-.124-.07-.56-.15-.65-.208-.144-.42.198-.946-.381-1.21z" fill="#f9f9f9"/></svg>