<svg xmlns="http://www.w3.org/2000/svg" height="32" width="32" version="1"><rect width="28.203" height="28.203" x="1.898" y="1.898" ry="5.575" fill="#ffecac" fill-rule="evenodd"/><g transform="matrix(.73633 0 0 .73633 4.219 4.219)"><path d="M14.812 2.003c.077-.05 1.103.609 2.158 1.384 1.544 1.135 2.526 2.139 3.386 3.468.213.329.388.67.546 1.018.092.143.18.29.26.44 1.67 3.145.764 7.113-2.024 8.863-2.788 1.75-6.402.62-8.072-2.524a6.7 6.7 0 0 1-.215-.443c-.08-.142-.17-.28-.239-.425-.946-2.006-.754-4.153.29-5.98.551-.967 1.658-1.954 2.455-2.456.994-.628 1.33-1.896 1.392-2.999.01-.176.04-.332.062-.346z" fill="#975a34"/><path d="M11.091 12a1.091 1.2 0 0 0-1.054 1.512l3.819 15.6a1.091 1.2 0 0 0 1.053.888h2.182a1.091 1.2 0 0 0 1.053-.888l3.819-15.6A1.091 1.2 0 0 0 20.909 12z" fill="#f1b65c"/><rect ry="1" rx=".727" y="11" x="8" height="2" width="16" fill="#ffcf88"/></g><g transform="matrix(.625 0 0 .625 8.03 8.559)"><circle r="8" cy="23" cx="24" fill="#cc5e55" fill-rule="evenodd"/><path d="M23 19l-.088 1.054a3.143 3.143 0 0 0-.919.53l-.957-.45-1 1.732.87.604a3.143 3.143 0 0 0-.049.53 3.143 3.143 0 0 0 .046.532l-.867.602 1 1.732.955-.45a3.143 3.143 0 0 0 .92.528L23 27h2l.088-1.054a3.143 3.143 0 0 0 .919-.53l.957.45 1-1.732-.87-.604a3.143 3.143 0 0 0 .049-.53 3.143 3.143 0 0 0-.046-.532l.867-.602-1-1.732-.955.45a3.143 3.143 0 0 0-.921-.528L25 19h-2zm1 2.857A1.143 1.143 0 0 1 25.143 23 1.143 1.143 0 0 1 24 24.143 1.143 1.143 0 0 1 22.857 23 1.143 1.143 0 0 1 24 21.857z" fill="#fff"/></g></svg>