<svg xmlns="http://www.w3.org/2000/svg" height="32" width="32" version="1"><defs><filter id="a" color-interpolation-filters="sRGB"><feGaussianBlur stdDeviation="1.71"/></filter></defs><rect width="28.203" height="28.203" x="1.898" y="1.898" ry="5.575" fill="#35b9f5" fill-rule="evenodd"/><path d="M25.576 10.153a7.952 7.952 0 0 1-2.256.609 3.89 3.89 0 0 0 1.727-2.14c-.76.443-1.6.765-2.495.938a3.953 3.953 0 0 0-2.868-1.221c-2.17 0-3.93 1.732-3.93 3.868 0 .303.035.598.102.881a11.215 11.215 0 0 1-8.099-4.041 3.804 3.804 0 0 0-.532 1.945 3.85 3.85 0 0 0 1.748 3.219 3.961 3.961 0 0 1-1.78-.484v.049c0 1.874 1.354 3.437 3.152 3.793a3.992 3.992 0 0 1-1.775.066 3.926 3.926 0 0 0 3.671 2.686 7.963 7.963 0 0 1-4.88 1.656c-.317 0-.63-.018-.937-.054a11.25 11.25 0 0 0 6.023 1.738c7.228 0 11.18-5.894 11.18-11.006 0-.167-.004-.334-.011-.5a7.915 7.915 0 0 0 1.96-2.002z" fill="#fff"/></svg>