<svg xmlns="http://www.w3.org/2000/svg" height="32" width="32" version="1"><g transform="translate(36.746 -7.05)" fill-rule="evenodd"><rect ry="5.575" y="8.949" x="-34.847" height="28.203" width="28.203" fill="#c2352a"/><path d="M-16.911 13.533a1.5 1.5 0 0 0-.668.2l-11.828 6.623-5.44-2.56v3.316l4.86 2.287a1.5 1.5 0 0 0 1.372-.048l12.5-7a1.5 1.5 0 0 0-.646-2.818 1.5 1.5 0 0 0-.15 0zm0 5a1.5 1.5 0 0 0-.668.2l-11.828 6.623-5.44-2.56v3.316l4.86 2.287a1.5 1.5 0 0 0 1.372-.048l12.5-7a1.5 1.5 0 0 0-.646-2.818 1.5 1.5 0 0 0-.15 0zm0 5a1.5 1.5 0 0 0-.668.2l-11.828 6.623-5.44-2.56v3.316l4.86 2.287a1.5 1.5 0 0 0 1.372-.048l12.5-7a1.5 1.5 0 0 0-.646-2.819 1.5 1.5 0 0 0-.15 0z" fill="#fff"/></g></svg>