<svg xmlns="http://www.w3.org/2000/svg" height="32" width="32" version="1"><rect width="28.203" height="28.203" x="1.898" y="1.898" ry="5.575" fill="#feb625" fill-rule="evenodd"/><path d="M23 23.615c-1.616.86-3.395 1.377-5.082 1.385-2.741 0-4.913-.806-6.515-2.417C9.801 20.963 9 18.772 9 16.006c0-2.774.801-4.966 2.403-6.577C13.005 7.809 15.177 7 17.918 7c1.834.02 3.597.581 5.082 1.385v3.696c-1.456-.88-3.17-1.422-4.74-1.431-1.514 0-3.044.511-3.912 1.534-.867 1.023-1.3 2.024-1.3 3.822 0 1.79.433 2.787 1.3 3.81.868 1.023 2.398 1.534 3.912 1.534 1.69-.096 3.518-.572 4.74-1.43z" fill="#424242"/></svg>