<svg xmlns="http://www.w3.org/2000/svg" height="32" width="32" version="1"><g transform="translate(49.416 -3.39)"><path d="M-19.249 10.222c-.064-.526-.112-1.06-.313-1.531a5.554 5.554 0 0 0-1.208-1.772 5.654 5.654 0 0 0-1.798-1.193 5.727 5.727 0 0 0-2.204-.437h-17.29c-.782 0-1.527.156-2.203.437a5.645 5.645 0 0 0-1.796 1.193 5.515 5.515 0 0 0-1.652 3.945v2.673l5.622 9.607.158.313.04.023.354.61 3.262 2.583.905-.382 1.038.646c-.123-.223-.247-.557-.367-.93l6.1-2.57-6.312-10.785c.578-1.314 1.586-2.234 3.359-2.43z" fill="#608ab5"/><path d="M-30.915 33.492h6.22a5.58 5.58 0 0 0 2.175-.436 5.563 5.563 0 0 0 3.4-5.139V10.865c0-.229-.103-.422-.129-.643h-14.088c-.02 0 2.912 1.306 4.149 2.02 3.16 1.824 3.488 8.34 3.496 10.978l.531.307-.541.935v.043l-.205.309z" fill="#cddff0"/><path d="M-47.706 11.501v16.416a5.582 5.582 0 0 0 1.629 3.946 5.563 5.563 0 0 0 1.771 1.193 5.59 5.59 0 0 0 2.176.436h11.215l6.14-10.213c-.695 1.133-3.593 2.585-4.83 3.299-3.957 2.284-8.982.807-11.267-3.15z" fill="#85b4df"/><rect x="-28.559" y="24.186" width="18.339" height="18.339" transform="matrix(0 -1 -1 0 0 0)" rx="9.169" ry="9.169" fill="#fff"/><rect x="-25.939" y="26.806" width="13.099" height="13.099" ry="6.55" rx="6.55" transform="matrix(0 -1 -1 0 0 0)" fill="#779fd3"/></g></svg>