<svg xmlns="http://www.w3.org/2000/svg" height="32" width="32" version="1"><rect width="28.203" height="28.203" x="1.898" y="1.898" ry="5.575" fill="#d44a4a" fill-rule="evenodd"/><path d="M16 6a10 10 0 0 0-8.04 4.074l3.081 5.336a5 5 0 0 1 .018-.14 5 5 0 0 1 .097-.49 5 5 0 0 1 .147-.477 5 5 0 0 1 .164-.399 5 5 0 0 1 .04-.09 5 5 0 0 1 .18-.332 5 5 0 0 1 .061-.103 5 5 0 0 1 .23-.338 5 5 0 0 1 .047-.068 5 5 0 0 1 .248-.297 5 5 0 0 1 .083-.094 5 5 0 0 1 .23-.226 5 5 0 0 1 .145-.135 5 5 0 0 1 .205-.162 5 5 0 0 1 .195-.15 5 5 0 0 1 .21-.137 5 5 0 0 1 .159-.102 5 5 0 0 1 .06-.031 5 5 0 0 1 .118-.063 5 5 0 0 1 .25-.12 5 5 0 0 1 .246-.106 5 5 0 0 1 .207-.076 5 5 0 0 1 .264-.083 5 5 0 0 1 .234-.058 5 5 0 0 1 .246-.05 5 5 0 0 1 .24-.038 5 5 0 0 1 .262-.025 5 5 0 0 1 .229-.012A5 5 0 0 1 16 11h8.644a10 10 0 0 0-8.644-5zm-8.654 5.008A10 10 0 0 0 6 16a10 10 0 0 0 10 10 10 10 0 0 0 4-.848v-6.154a5 5 0 0 1-.057.072 5 5 0 0 1-.128.154 5 5 0 0 1-.194.221 5 5 0 0 1-.154.15 5 5 0 0 1-.211.196 5 5 0 0 1-.17.135 5 5 0 0 1-.217.166 5 5 0 0 1-.21.136 5 5 0 0 1-.159.102 5 5 0 0 1-.06.031 5 5 0 0 1-.118.063 5 5 0 0 1-.25.12 5 5 0 0 1-.246.106 5 5 0 0 1-.207.076 5 5 0 0 1-.263.082 5 5 0 0 1-.235.059 5 5 0 0 1-.246.05 5 5 0 0 1-.24.038 5 5 0 0 1-.262.025 5 5 0 0 1-.228.012A5 5 0 0 1 16 21a5 5 0 0 1-.184-.006 5 5 0 0 1-.082-.004 5 5 0 0 1-.328-.031 5 5 0 0 1-.181-.022 5 5 0 0 1-.307-.062 5 5 0 0 1-.184-.041 5 5 0 0 1-.293-.088 5 5 0 0 1-.187-.064 5 5 0 0 1-.248-.104 5 5 0 0 1-.225-.101 5 5 0 0 1-.197-.108 5 5 0 0 1-.236-.135 5 5 0 0 1-.188-.127 5 5 0 0 1-.23-.164 5 5 0 0 1-.155-.13 5 5 0 0 1-.22-.192 5 5 0 0 1-.151-.154 5 5 0 0 1-.195-.211 5 5 0 0 1-.135-.17 5 5 0 0 1-.166-.217 5 5 0 0 1-.137-.211 5 5 0 0 1-.101-.158l-.06-.104-4.265-7.388zM18.998 12a5 5 0 0 1 .072.057 5 5 0 0 1 .154.129 5 5 0 0 1 .221.193 5 5 0 0 1 .15.154 5 5 0 0 1 .196.211 5 5 0 0 1 .134.17 5 5 0 0 1 .167.217 5 5 0 0 1 .136.21 5 5 0 0 1 .102.16 5 5 0 0 1 .031.06 5 5 0 0 1 .063.117 5 5 0 0 1 .12.25 5 5 0 0 1 .106.246 5 5 0 0 1 .076.207 5 5 0 0 1 .082.264 5 5 0 0 1 .059.234 5 5 0 0 1 .05.246 5 5 0 0 1 .038.24 5 5 0 0 1 .02.135 5 5 0 0 1 .005.127 5 5 0 0 1 .012.229A5 5 0 0 1 21 16v8.644A10 10 0 0 0 26 16a10 10 0 0 0-.848-4h-6.154z" fill="#fff"/></svg>