<svg xmlns="http://www.w3.org/2000/svg" height="32" width="32" version="1"><g fill-rule="evenodd"><path d="M9.898 1.898v8h-8v2.032h8v8.127h-8v2.03h8v8.015h2.032v-8.014h8.127v8.014h2.03v-8.014h8.015v-2.031h-8.014V11.93h8.014V9.898h-8.014v-8h-2.031v8H11.93v-8z" fill="#fff"/><path d="M11.887 11.994v8.055h8.125v-8.055z" fill="#fe8e8e"/><path d="M11.887 11.994h8.125v8.055h-8.125z" fill="#eb6253"/><path d="M20.057 1.898H11.93v8h8.127zM30.102 9.898V7.473a5.561 5.561 0 0 0-5.575-5.575h-2.44v8zM30.102 20.057V11.93h-8.014v8.127z" fill="#4a99e4"/><path d="M22.088 30.102h2.44a5.561 5.561 0 0 0 5.574-5.575v-2.44h-8.014z" fill="#eb6253"/><path d="M11.93 30.102h8.127v-8.014H11.93zM1.898 22.088v2.44a5.561 5.561 0 0 0 5.575 5.574h2.425v-8.014zM1.898 11.93v8.127h8V11.93z" fill="#5eaf3e"/><path d="M9.898 1.898H7.473a5.561 5.561 0 0 0-5.575 5.575v2.425h8z" fill="#eb6253"/></g></svg>