<svg xmlns="http://www.w3.org/2000/svg" height="32" width="32" version="1"><path d="M11.695 8.229v3.226h8.61V8.23h-8.61z" fill="#4d4d4d" fill-rule="evenodd"/><path d="M18.28 30.102c.37-.204.744-.405 1.04-.702a4.445 4.445 0 0 0 1.303-3.154 4.445 4.445 0 0 0-4.457-4.457 4.445 4.445 0 0 0-4.457 4.457 4.445 4.445 0 0 0 1.303 3.154c.296.297.67.498 1.04.702h4.227z" fill="#4587f3" fill-rule="evenodd"/><path d="M16.166 20.008h9.6c-.044-.358-.077-.721-.213-1.041a3.779 3.779 0 0 0-.823-1.205 3.845 3.845 0 0 0-2.722-1.11H10.242a3.836 3.836 0 0 0-3.545 2.314 3.75 3.75 0 0 0-.3 1.48v1.818l3.826 6.537.107.213.027.015.24.414.714.565c-.337-.417-.684-.828-.895-1.328a6.25 6.25 0 0 1-.488-2.434 6.221 6.221 0 0 1 3.805-5.75c.658-.277 1.392-.394 2.144-.43.061-.01.09-.051.154-.058h.135z" fill="#dd4d3e" fill-rule="evenodd"/><path d="M16.166 20.008h-.135c-.064.007-.093.049-.154.058.101-.004.186-.058.289-.058z" fill="#b3b3b3" fill-rule="evenodd"/><path d="M6.402 22.273v7.614c.359.072.69.215 1.07.215h3.901c-.024-.03-.039-.065-.062-.094l-.713-.565-.24-.414-.028-.015-.107-.213-3.82-6.528z" fill="#109f5b" fill-rule="evenodd"/><path d="M21.28 30.102l.726-1.21c-.081.133-.361.28-.518.422-.18.26-.33.54-.529.788h.32z" fill="#b3b3b3" fill-rule="evenodd"/><path d="M21.693 29.148l.05-.085-.061-.036c-.07.093-.128.192-.194.287.062-.055.125-.109.205-.166z" fill="#b3b3b3" fill-rule="evenodd"/><path d="M25.854 29.834v-9.389c0-.155-.07-.287-.088-.437H16.18l.01.004c.855.003 1.67.172 2.41.484a6.221 6.221 0 0 1 3.316 3.317c.315.746.49 1.569.49 2.433 0 .864-.175 1.687-.49 2.434-.055.13-.15.236-.234.347l.06.035-.049.086c.124-.086.264-.175.313-.255l-.727 1.209h3.248c.471 0 .89-.159 1.327-.268z" fill="#ffce41" fill-rule="evenodd"/><path d="M11.695 6.076L9.545 8.23v3.226H1.898v13.072c0 2.709 1.951 4.848 4.504 5.36v-7.614l-.006-.01v-1.818a3.75 3.75 0 0 1 1.125-2.683 3.836 3.836 0 0 1 2.721-1.11h11.766a3.845 3.845 0 0 1 2.723 1.11c.347.343.628.75.822 1.205.136.32.17.683.213 1.04.018.151.088.283.088.438v9.389c2.424-.605 4.248-2.69 4.248-5.307V11.455h-7.647V8.23l-2.15-2.153h-8.61zm0 2.153h8.61v3.226h-8.61V8.23z" fill="#b3b3b3" fill-rule="evenodd"/><path d="M7.473 1.898a5.561 5.561 0 0 0-5.575 5.575v3.982h7.647V8.23l2.15-2.153h8.61l2.15 2.153v3.226h7.647V7.473a5.561 5.561 0 0 0-5.575-5.575H7.473z" fill="#4d4d4d" fill-rule="evenodd"/><rect width="3.332" height="2.073" x="19.971" y="28.024" ry="1.037" fill="#ffce41" fill-rule="evenodd"/><path d="M20.959 30.102c.359-.447.731-.887.957-1.422.315-.747.49-1.57.49-2.434a6.221 6.221 0 0 0-6.24-6.238 6.221 6.221 0 0 0-6.238 6.238c0 .864.173 1.687.488 2.434.226.535.598.975.957 1.422h2.68c-.37-.204-.745-.405-1.041-.702a4.445 4.445 0 0 1-1.303-3.154 4.445 4.445 0 0 1 4.457-4.457 4.445 4.445 0 0 1 4.457 4.457A4.445 4.445 0 0 1 19.32 29.4c-.296.297-.67.498-1.04.702h2.679z" fill="#fff" fill-rule="evenodd"/></svg>