<svg xmlns="http://www.w3.org/2000/svg" height="32" width="32" version="1"><rect width="28.203" height="28.203" x="1.898" y="1.898" ry="5.575" fill="#c2352a" fill-rule="evenodd"/><path d="M9.317 9.177c-1.124.1-1.538.158-2.151.68C6.222 10.688 6 12.316 6 14.81v2.373c0 2.843.378 4.29 1.01 4.818.721.616 1.198.665 1.676.738.186.027 1.508.261 7.362.261 3.65 0 6.785-.173 7.11-.212.523-.067 1.265-.161 1.838-.787.839-.948 1.004-2.522 1.004-4.804v-2.761c0-1.476-.08-3.56-1.004-4.436-.699-.59-.955-.754-2.4-.827-.408-.018-3.97-.174-6.46-.173-2.338 0-5.786.144-6.82.177zM14 13l5 3-5 3" fill="#f9f9f9"/><g transform="matrix(.66667 0 0 .66667 12.52 12.249)"><circle r="7.5" cy="16" cx="16" fill="#03a9f4"/><path d="M17.5 11.5l3 3h-1L17 17c1.5 1.5-.5 2.5-.5 2.5L15 18l-2.5 2.5h-1v-1L14 17l-1.5-1.5s1-2 2.5-.5l2.5-2.5z" fill="#fff"/></g></svg>