<svg xmlns="http://www.w3.org/2000/svg" height="32" width="32" version="1"><rect width="28.203" height="28.203" x="1.898" y="1.898" ry="5.575" fill="#4f4f4f" fill-rule="evenodd"/><path d="M8.515 27.184c-.396-.035-.669-.122-.744-.237a.37.37 0 0 1-.046-.13c-.018-.134.14-.267.368-.31.427-.081 1.842-.85 2.21-1.202.095-.09.113-.12.131-.218.014-.072.025-.925.032-2.327.006-1.257.02-2.318.031-2.457.023-.265.07-.484.123-.577.018-.032.131-.143.251-.247l.505-.437c.423-.367.915-.756 1.346-1.064l.68-.489c.435-.315.564-.39.827-.483.126-.044.202-.105.202-.163 0-.095-.125-.167-.607-.351-1.66-.634-2.103-.839-2.493-1.155l-.085-.069-.015-.778a19.99 19.99 0 0 0-.023-.786c-.004-.005-.349-.02-.765-.036-1.166-.041-1.417-.074-2.172-.285-.472-.13-.599-.184-.727-.302-.137-.126-.174-.213-.227-.522a11.718 11.718 0 0 1-.032-.66 14.56 14.56 0 0 0-.03-.676.496.496 0 0 1 .009-.175c.012-.041.032-.26.043-.486.018-.358.038-.512.153-1.164.207-1.178.207-1.19.104-1.75a3.092 3.092 0 0 1-.058-.645l-.003-.347.122-.114c.156-.145.294-.21.444-.211.227 0 .629.09.834.187.118.055.16.063.476.083.387.025 4.535.014 9.489-.025 2.643-.021 4.683-.015 4.802.015.025.007.046.019.046.028 0 .028-.064.043-.3.072-.217.028-.338.06-.338.093 0 .04.076.066.233.08.095.009.182.022.194.03.012.007.028.112.036.233.019.271.054.412.143.573.092.164.102.246.063.514-.092.65-.092 2.7.001 4.468.036.681.031.791-.046.958-.07.153-.067.266.023.672.04.184.074.365.074.404v.07l-.343.014c-.189.007-.577.013-.863.013h-.52l-.166.192c-.182.213-.255.275-.428.366-.063.033-.169.1-.234.148a2.732 2.732 0 0 1-.218.144c-.055.03-.14.089-.19.128-.073.06-.105.072-.185.072-.162-.001-.263-.06-.73-.419a7.618 7.618 0 0 0-.92-.621c-.226-.127-.632-.318-.673-.319a2.97 2.97 0 0 1-.319-.197c-.662-.444-1.367-.698-2.247-.811-.357-.046-.54-.052-.62-.022-.124.047-.042.2.26.487.168.16 1.362 1.117 1.92 1.541.517.392.742.58.937.786.19.199.29.362.34.555.046.174.061.521.033.732-.045.339-.128.504-.434.87-.223.267-.247.31-.247.433 0 .099.09.594.125.685.011.03.044.166.072.303.09.427.53 1.92.615 2.09.08.159.069.156.47.128.553-.038.78-.032 1.005.025.272.07.717.243.99.386.454.237.73.364.984.449.14.048.4.152.576.232.862.39 1.082.473 1.483.553.27.054.398.107.433.18.042.087.053.47.037 1.26-.02 1.003-.04 1.111-.234 1.197-.269.119-1.375.081-1.508-.052-.021-.02-.036-.08-.041-.163-.01-.161.02-.226.21-.453.075-.089.154-.197.177-.241.093-.183.028-.374-.212-.623-.175-.18-.34-.293-.468-.322-.25-.055-1.279-.198-2.007-.28-.838-.093-1.344-.162-1.663-.228a16.021 16.021 0 0 0-.643-.111c-.394-.06-.612-.115-.76-.19a1.127 1.127 0 0 1-.334-.31c-.032-.048-.18-.254-.327-.458-.47-.647-.81-1.162-1.25-1.894-.316-.525-.46-.785-.565-1.02-.088-.194-.088-.195-.169-.2-.088-.008-.232.026-.826.193-.735.206-1.187.366-1.298.46-.067.055-.068.06-.084.28-.008.124-.016.378-.017.565-.003.48-.034.97-.073 1.163-.018.09-.116.429-.216.752-.101.322-.227.74-.279.926-.052.187-.149.507-.215.71-.066.204-.13.43-.144.5-.015.083-.02.347-.017.731.006.576.005.605-.037.684-.09.173-.227.209-1.12.288-.334.03-.782.072-.995.094a5.762 5.762 0 0 1-1.112.017z" fill="#0b0"/><path d="M22.193 14.326c.024-.022.031-.08.031-.253a.982.982 0 0 0-.017-.241.725.725 0 0 0-.2-.025c-.238-.009-.244.001-.171.267.063.23.078.263.137.285.059.022.18.004.22-.033zM21.507 14.203c.103-.027.078-.12-.042-.156-.118-.035-.68-.035-.778 0-.148.053-.111.113.09.146.124.02.663.028.73.01zM20.271 14.118c.013-.009.034-.054.047-.1.036-.137.043-.14.497-.172.286-.02.397-.043.351-.071-.079-.049-1.444-.052-1.522-.004-.05.031-.02.074.103.149.142.086.422.213.47.213a.118.118 0 0 0 .054-.015zM23.195 14.112c.056-.021.057-.023.017-.046-.057-.033-.514-.033-.548 0-.02.02-.014.03.025.045.068.027.435.028.506 0zM19.527 13.455c.147-.01.61-.03 1.03-.041 2.409-.07 2.705-.085 2.783-.136.027-.017.051-.061.06-.107.018-.094-.005-2.118-.033-2.939-.037-1.079-.073-1.481-.182-2.007l-.036-.175-.586-.015c-1.863-.047-7.775-.05-7.821-.004-.05.05-.092 1.465-.076 2.52.01.72.016.837.044.858.017.012.199.08.402.15.654.223 1.767.69 2.411 1.01.27.135.774.441 1.227.745.264.177.28.184.406.17l.37-.029zM9.594 11.823a.292.292 0 0 0 .118-.103c.063-.131-.047-.324-.184-.325-.091 0-.233-.067-.272-.127-.027-.042-.064-.22-.17-.83-.056-.32-.013-.877.086-1.13.082-.207.33-.48.528-.58.066-.034.176-.062.321-.083.595-.083.923-.153 1.208-.26.41-.153.446-.163.657-.175.347-.02.655.079.9.286.166.141.242.191.261.172.025-.024.015-.403-.013-.53-.038-.173-.068-.2-.25-.226-.272-.039-3.262.015-3.641.066-.186.025-.284.07-.323.146-.08.156-.175 1.037-.137 1.272.035.212.043.324.066.908.035.895.073 1.258.145 1.376.03.05.066.071.178.104.325.095.4.1.522.039z" fill="#4f4f4f"/><path d="M14.137 11.462c.108-.06.175-.113.18-.139.006-.022.02-.657.032-1.41.022-1.412.046-1.993.084-2.094a.46.46 0 0 1 .085-.123c.079-.082.092-.19.06-.47-.04-.333-.092-.383-.414-.397-.164-.007-.776.044-.799.067a2.588 2.588 0 0 0-.025.24c-.01.13-.024.273-.032.32l-.014.086-.178.015c-.328.027-1.14-.019-1.27-.073-.03-.012-.048-.043-.057-.096a9.53 9.53 0 0 0-.057-.29l-.044-.212h-.821l.014.204c.011.165.007.226-.021.316l-.035.112-.127.023c-.297.056-.94.046-1.119-.017-.09-.031-.12-.115-.12-.332 0-.155.006-.187.049-.244.045-.061.046-.068.014-.1-.028-.028-.076-.033-.293-.029a1.67 1.67 0 0 0-.272.017 4.299 4.299 0 0 0-.013.449v.435l.299.006c.164.003.743-.008 1.287-.024a28.767 28.767 0 0 1 2.514.02l.188.012.014.083c.007.046.022.256.033.467.03.552.07.844.185 1.31a10.7 10.7 0 0 1 .277 1.564c.02.19.044.326.063.355.049.074.138.06.333-.05zM15.33 7.713c.034-.019.032-.023-.024-.045-.073-.028-.4-.037-.51-.013-.103.021-.089.061.028.079.124.019.46.005.507-.02zM17.931 7.644c.087-.026.127-.055.112-.081-.007-.01-.108-.017-.224-.014-.341.007-.376-.043-.353-.511l.013-.271-.211-.014a16.775 16.775 0 0 0-.726-.018l-.515-.003-.006.157c-.007.194.04.433.107.533.069.105.187.154.466.196.435.066 1.157.08 1.337.026zM20.846 7.582c.027-.028-.096-.057-.245-.058-.205-.002-.284-.032-.315-.123a7.761 7.761 0 0 1-.131-.419c0-.036.188-.1.35-.12.182-.023.248-.043.222-.07-.053-.052-1.642-.063-1.771-.012-.061.025-.076.08-.027.099.035.013.066.102.084.244.032.255.111.377.273.421a6.315 6.315 0 0 0 1.56.038zM22.753 7.61c.153-.014.202-.03.175-.057a1.642 1.642 0 0 0-.267-.03c-.316-.02-.36-.03-.394-.098a1.135 1.135 0 0 1-.062-.427c.017-.092.042-.109.197-.135a.564.564 0 0 0 .158-.045c.049-.039-.05-.057-.367-.07-.338-.013-.596.005-.652.046-.036.026-.036.03.007.075.06.064.088.193.09.43.004.253.016.294.093.31.083.019.827.02 1.022.001z" fill="#4f4f4f"/><path d="M10.566 7.34c.082-.024.137-.093.102-.128-.056-.056-.903-.093-.955-.042-.054.054.062.158.21.19.115.024.54.011.643-.02zM13.062 7.334c.054-.028.071-.056.072-.114 0-.076-.106-.105-.479-.13-.556-.037-.708-.01-.662.118.03.087.11.132.268.152.176.022.745.004.801-.026zM15.669 7.335c.067-.03.075-.042.087-.134a.422.422 0 0 0-.009-.167c-.021-.06-.03-.065-.118-.065-.116 0-.62.072-.73.103-.084.025-.118.077-.118.187 0 .106.076.124.474.115.247-.005.36-.016.414-.04zM18.567 7.349c.147-.044.196-.096.18-.19-.02-.124-.043-.134-.357-.152a3.88 3.88 0 0 1-.383-.038c-.17-.035-.217-.028-.294.05-.121.12-.072.255.11.298.26.062.595.076.744.032zM21.254 7.237c.074-.017.114-.048.115-.09 0-.008-.034-.03-.077-.05-.06-.026-.149-.033-.407-.034-.286-.001-.338.003-.387.036-.07.046-.063.075.029.122.057.03.124.036.359.036.158 0 .324-.01.368-.02zM23.209 7.218c.088-.034.068-.107-.038-.142-.117-.039-.643-.027-.668.015-.042.067.037.12.225.154.087.015.419-.004.48-.027z" fill="#4f4f4f"/><path d="M8.515 27.184c-.396-.035-.669-.122-.744-.237a.37.37 0 0 1-.046-.13c-.018-.134.14-.267.368-.31.427-.081 1.842-.85 2.21-1.202.095-.09.113-.12.131-.218.014-.072.025-.925.032-2.327.006-1.257.02-2.318.031-2.457.023-.265.07-.484.123-.577.018-.032.131-.143.251-.247l.505-.437c.423-.367.915-.756 1.346-1.064l.68-.489c.435-.315.564-.39.827-.483.126-.044.202-.105.202-.163 0-.095-.125-.167-.607-.351-1.66-.634-2.103-.839-2.493-1.155l-.085-.069-.015-.778a19.99 19.99 0 0 0-.023-.786c-.004-.005-.349-.02-.765-.036-1.166-.041-1.417-.074-2.172-.285-.472-.13-.599-.184-.727-.302-.137-.126-.174-.213-.227-.522a11.774 11.774 0 0 1-.032-.66 14.58 14.58 0 0 0-.03-.676.495.495 0 0 1 .009-.175c.012-.041.032-.26.043-.486.018-.358.038-.512.153-1.164.207-1.178.207-1.19.104-1.75a3.092 3.092 0 0 1-.058-.645l-.003-.347.122-.114c.156-.145.294-.21.444-.211.227 0 .629.09.834.187.118.055.16.063.477.083.387.025 4.534.014 9.488-.025 2.643-.021 4.683-.015 4.802.015.026.007.046.019.046.028 0 .028-.064.043-.3.072-.217.028-.338.06-.338.093 0 .04.076.066.233.08.095.009.182.022.194.03.012.007.028.112.036.233.019.271.054.412.143.573.092.164.102.246.063.514-.092.65-.092 2.7.001 4.468.036.681.031.791-.046.958-.07.153-.067.266.023.672.04.184.074.365.074.404v.07l-.343.014c-.189.007-.577.013-.863.013h-.52l-.166.192c-.182.213-.255.275-.428.366-.063.033-.169.1-.234.148a2.732 2.732 0 0 1-.218.144c-.055.03-.14.089-.19.128-.073.06-.105.072-.185.072-.162-.001-.263-.06-.73-.419a7.618 7.618 0 0 0-.92-.621c-.226-.127-.632-.318-.673-.319a2.97 2.97 0 0 1-.319-.197c-.662-.444-1.367-.698-2.247-.811-.357-.046-.54-.052-.62-.022-.124.047-.042.2.26.487.168.16 1.362 1.117 1.92 1.541.517.392.742.58.937.786.19.199.29.362.34.555.046.174.061.521.033.732-.045.339-.128.504-.434.87-.223.267-.247.31-.247.433 0 .099.09.594.125.685.011.03.044.166.072.303.09.427.53 1.92.616 2.09.08.159.068.156.47.128.552-.038.779-.032 1.004.025.272.07.717.243.99.386.454.237.73.364.984.449.14.048.4.152.576.232.862.39 1.082.473 1.483.553.27.054.398.107.433.18.042.087.053.47.038 1.26-.02 1.003-.041 1.111-.235 1.197-.269.119-1.375.081-1.508-.052-.021-.02-.036-.08-.041-.163-.01-.161.02-.226.21-.453.075-.089.155-.197.177-.241.094-.183.028-.374-.212-.623-.175-.18-.339-.293-.468-.322-.25-.055-1.279-.198-2.007-.28-.838-.093-1.344-.162-1.663-.228a16.021 16.021 0 0 0-.643-.111c-.394-.06-.611-.115-.76-.19a1.127 1.127 0 0 1-.333-.31 31.34 31.34 0 0 0-.328-.458c-.469-.647-.81-1.162-1.25-1.894-.316-.525-.46-.785-.565-1.02-.088-.194-.088-.195-.168-.2-.09-.008-.233.026-.827.193-.735.206-1.187.366-1.298.46-.067.055-.068.06-.084.28-.008.124-.016.378-.017.565-.003.48-.034.97-.073 1.163-.018.09-.116.429-.216.752-.101.322-.226.74-.279.926-.052.187-.149.507-.215.71-.066.204-.13.43-.144.5-.014.083-.02.347-.017.731.006.576.005.605-.036.684-.09.173-.228.209-1.12.288-.335.03-.783.072-.996.094a5.762 5.762 0 0 1-1.112.017zm.72-.336c.236-.028.67-.07.965-.093.956-.075 1.154-.104 1.175-.17.02-.064.015-.34-.01-.523a1.622 1.622 0 0 1-.001-.401c.039-.415.074-.549.504-1.902.396-1.249.454-1.454.514-1.823.044-.272.04-.451-.02-.81-.067-.412-.116-.795-.103-.815.013-.021.501-.241.649-.293.062-.022.41-.122.772-.223.661-.184.852-.242.938-.288a.895.895 0 0 1 .172-.052c.069-.014.196-.059.282-.1.204-.095.557-.215 1.368-.465 1.024-.316 1.265-.415 1.485-.608.18-.158.372-.514.439-.815.015-.068.022-.194.017-.305-.009-.178-.015-.2-.12-.409-.141-.281-.305-.45-.625-.643-.64-.386-1.252-.816-1.63-1.144-.5-.434-1.13-1.074-1.322-1.341-.155-.216-.197-.35-.13-.416.053-.054.186-.056.735-.012.612.048.914.086 1.415.178.443.08.567.138 1.907.892.714.402.937.514 1.06.537.141.025.294.123.659.421.057.047.142.105.19.129l.089.044.076-.04c.104-.055.423-.375.456-.457.015-.037.022-.08.016-.098-.02-.049-.127-.105-.277-.143a7.93 7.93 0 0 1-.867-.272c-.26-.102-.288-.118-.465-.255-.408-.315-1.737-1.156-2.203-1.395-.361-.184-.911-.43-1.4-.625-1.073-.428-1.278-.468-1.7-.336-.244.078-.359.14-.387.21a2.206 2.206 0 0 0-.053.311c-.017.14-.042.268-.055.283-.014.018-.063.03-.124.03-.055 0-.1.004-.1.01s.046.112.102.236c.134.293.134.323-.001.392-.118.06-.193.052-.296-.031-.132-.109-.149-.1-.149.077 0 .126-.01.17-.065.285-.103.214-.086.264.086.265a.25.25 0 0 1 .212.143c.03.063.03.078.005.123-.038.068-.09.08-.337.082-.257.002-.322-.025-.525-.216a1.798 1.798 0 0 1-.38-.478c-.067-.133-.158-.476-.24-.896-.032-.17-.072-.323-.089-.34-.038-.038-.09-.017-.113.045-.047.122-.105 1.305-.111 2.27-.004.554-.002.578.041.674.064.138-.021.1 2.23.975.51.198.839.311 1.009.348.092.02.295.03.648.031.283.001.538.009.566.017.029.008.055.03.059.05.01.05-.092.087-.39.137-.5.085-.796.181-1.112.362a3.54 3.54 0 0 1-.372.182c-.392.155-.694.332-1.255.738-.769.556-1.52 1.167-1.904 1.548-.222.22-.251.258-.263.335-.03.197-.055.999-.085 2.682-.031 1.78-.055 2.416-.094 2.592-.06.267-.149.327-1.501 1.002-.504.252-.934.478-.956.501-.031.035-.034.048-.012.074.07.086.399.093 1 .022zm4.828-14.04c-.024-.028-.011-.095.018-.095.03 0 .067.061.055.092-.015.04-.043.04-.073.003zm9.864 13.226a1.04 1.04 0 0 0 .225-.133.401.401 0 0 0 .158-.2c.064-.173.096-.484.096-.933 0-.375-.003-.418-.04-.482-.07-.118-.213-.181-.488-.217-.273-.036-.387-.075-.575-.197-.178-.116-.869-.458-1.223-.606l-.547-.23a3.62 3.62 0 0 1-.36-.17c-.276-.17-.337-.204-.442-.246a4.992 4.992 0 0 0-.687-.199 2.36 2.36 0 0 0-.877-.021c-.36.055-.541.033-.598-.072a8.457 8.457 0 0 1-.155-.51 56.76 56.76 0 0 0-.563-1.822 8.768 8.768 0 0 1-.197-.699 1.46 1.46 0 0 0-.072-.271c-.026-.026-.374.067-.96.257-.43.14-.996.34-1.105.39-.105.049-.066.172.205.658.092.164.235.437.319.607.083.17.23.43.327.577.097.147.22.343.275.435.198.333.781 1.109.984 1.31.167.164.368.262.621.303.07.01.293.034.497.052.203.017.463.05.576.07.468.089 1.551.22 2.46.3.812.07.995.1 1.19.195.28.136.676.413.774.542.068.09.095.256.095.58 0 .319-.017.401-.101.513-.107.142-.131.197-.103.23.034.042.163.037.29-.01zm-1.734-11.708c.024-.022.031-.08.031-.253a.982.982 0 0 0-.017-.241.725.725 0 0 0-.2-.025c-.238-.009-.244.001-.171.267.063.23.078.263.137.285.059.022.18.004.22-.033zm-.686-.123c.103-.027.078-.12-.042-.156-.118-.035-.68-.035-.778 0-.148.053-.111.113.09.146.124.02.663.028.73.01zm-1.236-.085c.013-.009.034-.054.047-.1.036-.137.043-.14.497-.172.286-.02.397-.043.351-.071-.079-.049-1.444-.052-1.522-.004-.05.031-.02.074.103.149.142.086.422.213.47.213a.118.118 0 0 0 .054-.015zm2.924-.006c.056-.021.057-.023.017-.046-.057-.033-.514-.033-.548 0-.02.02-.014.03.025.045.068.027.435.028.506 0zm-3.668-.657c.147-.01.61-.03 1.03-.041 2.409-.07 2.705-.085 2.783-.136.027-.017.051-.061.06-.107.018-.094-.005-2.118-.033-2.939-.037-1.079-.073-1.481-.182-2.007l-.036-.175-.586-.015c-1.863-.047-7.775-.05-7.821-.004-.05.05-.092 1.465-.076 2.52.01.72.016.837.044.858.017.013.199.08.402.15.654.223 1.767.69 2.411 1.011.27.134.774.44 1.227.744.264.177.28.184.406.17l.37-.029zm-8.344-.144c.082-.04.098-.126.098-.518v-.342l-.386-.012c-.39-.012-.518-.032-.715-.112-.157-.064-.343-.085-.952-.108-.588-.022-.752-.041-.81-.095-.072-.064-.106-.325-.144-1.11-.028-.555-.014-1.95.022-2.233.012-.097.04-.267.063-.378.023-.112.05-.306.062-.433.026-.303.065-.493.152-.753.118-.35.098-.404-.14-.388-.219.014-.472.168-.531.322-.034.089-.023.287.033.57.063.322.065.437.011.708a30.13 30.13 0 0 0-.135.82c-.052.337-.112.696-.134.798-.068.321-.082.514-.094 1.338-.013.86.007 1.295.066 1.384.042.065.068.074.606.214l.69.18c.255.069.645.137.936.166.306.029 1.233.017 1.302-.018zm2.311-.93c0-.056-.008-.07-.04-.07s-.04.013-.037.052c.014.125.077.14.077.019zM12.4 12.4c.09-.378-.068-1.462-.234-1.612-.07-.063-.085-.008-.07.248.022.416.136 1.077.228 1.323.036.097.06.11.076.041zm-1.674-.282c0-.068-.616-.769-.649-.738-.036.035.11.574.173.639.063.065.476.151.476.1zm.884-.244a.587.587 0 0 0 .136-.099c.083-.083.093-.16.058-.47a53.666 53.666 0 0 1-.047-.426c-.029-.277-.064-.359-.347-.804-.147-.23-.26-.45-.291-.567a.41.41 0 0 0-.237-.266c-.197-.092-.363-.046-.458.127a2.215 2.215 0 0 0-.113.319c-.06.209-.068.264-.067.473.002.273.024.366.175.724.056.132.101.252.101.267 0 .082.133.296.276.445.28.293.568.391.814.277zm1.807-.215c-.024-.517-.177-1.397-.322-1.85-.14-.435-.233-.61-.45-.846-.11-.118-.169-.15-.169-.089 0 .017.078.145.173.284.095.14.191.29.214.335.108.213.174.545.303 1.533.041.311.085.608.097.659.032.132.094.247.133.247.03 0 .032-.03.021-.273zm-3.822.165a.292.292 0 0 0 .118-.103c.063-.131-.047-.324-.184-.325-.091 0-.233-.067-.272-.127-.027-.042-.064-.22-.17-.83-.056-.32-.014-.877.086-1.13.082-.207.33-.48.528-.58.066-.034.176-.062.321-.083.595-.083.923-.153 1.208-.26.41-.153.446-.163.657-.175.347-.02.655.079.9.286.166.141.242.191.261.172.025-.024.015-.403-.013-.53-.038-.173-.068-.2-.25-.226-.272-.039-3.262.015-3.641.066-.186.025-.284.07-.323.146-.08.156-.175 1.037-.137 1.272.035.212.043.324.066.908.035.895.073 1.258.145 1.376.03.05.066.071.178.104.325.095.4.1.522.039zm4.543-.36c.108-.062.175-.114.18-.14.006-.022.02-.657.032-1.41.022-1.412.046-1.993.084-2.094a.46.46 0 0 1 .085-.123c.079-.082.092-.19.06-.47-.04-.333-.092-.383-.414-.397-.164-.007-.776.044-.799.067a2.588 2.588 0 0 0-.025.24c-.01.13-.024.273-.032.32l-.014.086-.178.015c-.328.027-1.14-.019-1.27-.073-.03-.012-.048-.043-.057-.096a9.528 9.528 0 0 0-.057-.29l-.044-.211h-.821l.014.204c.011.164.007.225-.021.315l-.035.112-.127.024c-.297.055-.94.045-1.119-.018-.09-.031-.12-.115-.12-.332 0-.155.007-.187.049-.244.045-.061.046-.068.014-.1-.028-.028-.076-.033-.293-.029-.143.003-.265.01-.272.017a4.293 4.293 0 0 0-.013.449v.435l.299.006c.164.003.743-.008 1.287-.024a28.765 28.765 0 0 1 2.514.02l.188.012.014.083c.007.046.022.256.033.467.03.552.07.844.185 1.31a10.7 10.7 0 0 1 .277 1.564c.02.19.044.326.063.355.049.074.138.06.333-.05zm-1.365-.656c.023-.061.012-.34-.02-.499a2.42 2.42 0 0 0-.342-.843c-.061-.089-.153-.164-.174-.143a.63.63 0 0 0 .031.175c.062.239.392 1.242.427 1.296.035.055.06.06.078.014zm-2.92-.33c.018-.095-.002-.236-.036-.258-.086-.055-.118.033-.079.22.019.088.032.112.062.112.029 0 .043-.02.053-.073zm2.321.008c-.004-.066-.194-.575-.29-.778l-.072-.154-.021.068c-.018.057-.01.102.055.298.073.222.215.547.263.606.034.04.07.02.065-.04zm3.158-2.772c.033-.019.03-.023-.025-.045-.073-.028-.4-.037-.51-.013-.103.021-.089.061.028.079.124.019.46.005.507-.02zm2.6-.07c.087-.025.127-.055.112-.08-.007-.01-.108-.017-.224-.015-.341.008-.376-.042-.353-.51l.013-.271-.211-.014a16.764 16.764 0 0 0-.726-.018l-.515-.003-.006.157c-.007.194.04.433.107.533.069.104.187.154.466.196.435.066 1.157.08 1.337.026zm2.915-.061c.027-.028-.096-.057-.245-.058-.205-.002-.284-.033-.315-.123a7.761 7.761 0 0 1-.131-.419c0-.036.188-.1.35-.12.182-.023.248-.043.222-.07-.053-.052-1.642-.063-1.771-.012-.061.025-.076.08-.027.099.035.013.066.102.084.244.032.255.111.377.273.421a6.315 6.315 0 0 0 1.56.038zm1.907.028c.153-.014.202-.03.175-.057a1.644 1.644 0 0 0-.267-.03c-.316-.02-.36-.03-.394-.098a1.135 1.135 0 0 1-.062-.427c.017-.092.042-.109.197-.135a.564.564 0 0 0 .158-.045c.049-.039-.05-.057-.367-.07-.338-.013-.596.005-.652.046-.036.026-.036.03.007.075.06.064.088.193.09.43.004.253.016.294.093.31.083.019.827.02 1.022.001zm-12.187-.27c.082-.024.137-.093.102-.128-.056-.056-.903-.093-.955-.042-.054.054.062.158.21.19.115.024.54.01.643-.02zm2.496-.006c.054-.028.071-.056.072-.114 0-.076-.106-.105-.479-.13-.556-.037-.708-.01-.662.118.03.087.11.132.268.152.176.022.745.004.801-.026zm2.607 0c.067-.028.075-.04.087-.133a.422.422 0 0 0-.009-.167c-.021-.06-.03-.065-.118-.065-.116 0-.62.072-.73.103-.084.025-.118.077-.118.187 0 .106.076.124.474.115.247-.005.36-.016.414-.04zm2.898.015c.147-.044.196-.096.18-.19-.02-.124-.043-.134-.357-.152a3.881 3.881 0 0 1-.383-.038c-.17-.035-.217-.028-.294.05-.121.12-.072.255.11.298.26.062.595.076.744.032zm2.687-.112c.074-.017.114-.048.115-.09 0-.008-.034-.03-.077-.05-.06-.026-.149-.033-.407-.034-.286-.001-.338.003-.387.036-.07.046-.063.075.029.122.057.03.124.036.359.036.158 0 .324-.01.368-.02zm1.955-.02c.088-.033.068-.106-.038-.141-.117-.039-.643-.027-.668.015-.042.067.037.12.225.154.087.015.419-.004.48-.027z" fill="#fff"/></svg>