<svg xmlns="http://www.w3.org/2000/svg" height="32" width="32" version="1"><rect width="28.203" height="28.203" x="1.898" y="1.898" ry="5.575" fill="#ccc" fill-rule="evenodd"/><g fill-rule="evenodd"><path d="M6.943 29.996a10.073 10.073 0 0 1-.955-.246 10.073 10.073 0 0 1-.002 0 10.073 10.073 0 0 1-.945-.344 10.073 10.073 0 0 1-.45-.218 5.42 5.42 0 0 0 2.352.808zM7.635 30.102a10.073 10.073 0 0 1-.65-.098c.169.015.314.098.488.098h.162zM13.012 10.91a10.073 10.073 0 0 0-.047.965 10.073 10.073 0 0 0 .025.713 10.073 10.073 0 0 0 .121 1 10.073 10.073 0 0 0 .221.982 10.073 10.073 0 0 0 .316.955 10.073 10.073 0 0 0 .413.92 10.073 10.073 0 0 0 .5.873 10.073 10.073 0 0 0 .585.819 10.073 10.073 0 0 0 .665.756 10.073 10.073 0 0 1 .002 0 10.073 10.073 0 0 0 .736.687 10.073 10.073 0 0 0 .8.61 10.073 10.073 0 0 0 .86.525 10.073 10.073 0 0 0 .78.377 10.073 10.073 0 0 0 .048-.965 10.073 10.073 0 0 0-.025-.713 10.073 10.073 0 0 0-.121-.998 10.073 10.073 0 0 1 0-.002 10.073 10.073 0 0 0-.221-.982 10.073 10.073 0 0 0-.318-.955 10.073 10.073 0 0 0-.41-.918 10.073 10.073 0 0 1 0-.002 10.073 10.073 0 0 0-.503-.873 10.073 10.073 0 0 0-.585-.819 10.073 10.073 0 0 0-.665-.756 10.073 10.073 0 0 1 0-.002 10.073 10.073 0 0 0-.736-.685 10.073 10.073 0 0 1 0-.002 10.073 10.073 0 0 0-.803-.607 10.073 10.073 0 0 0-.857-.526 10.073 10.073 0 0 0-.781-.377z" fill="#ccc"/><path d="M9.068 10.06a10.073 10.073 0 0 0-.105-.005 10.073 10.073 0 0 0-.713.023 10.073 10.073 0 0 0-.998.123 10.073 10.073 0 0 0-.982.22 10.073 10.073 0 0 0-.957.317 10.073 10.073 0 0 0-.918.412 10.073 10.073 0 0 0-.874.5 10.073 10.073 0 0 0-.82.586 10.073 10.073 0 0 0-.756.664 10.073 10.073 0 0 1-.002 0 10.073 10.073 0 0 0-.045.05v11.577c0 2.008 1.11 3.68 2.694 4.66a10.073 10.073 0 0 0 .449.22 10.073 10.073 0 0 0 .945.343 10.073 10.073 0 0 1 .002 0 10.073 10.073 0 0 0 .955.246c.015.001.027.007.041.008a10.073 10.073 0 0 0 .65.098h2.65a10.073 10.073 0 0 0 .392-.047 10.073 10.073 0 0 0 .982-.221 10.073 10.073 0 0 0 .955-.318 10.073 10.073 0 0 1 0-.002 10.073 10.073 0 0 0 .92-.409 10.073 10.073 0 0 1 0-.001 10.073 10.073 0 0 0 .873-.5 10.073 10.073 0 0 0 .819-.586 10.073 10.073 0 0 1 0-.002 10.073 10.073 0 0 0 .757-.662 10.073 10.073 0 0 0 .686-.737 10.073 10.073 0 0 1 0-.002 10.073 10.073 0 0 0 .61-.8 10.073 10.073 0 0 0 .52-.852 14.104 14.104 0 0 1-1.157-.52 14.104 14.104 0 0 1-1.225-.7 14.104 14.104 0 0 1-1.146-.821 14.104 14.104 0 0 1-1.06-.93 14.104 14.104 0 0 1-.96-1.033 14.104 14.104 0 0 1-.854-1.121 14.104 14.104 0 0 1-.736-1.203 14.104 14.104 0 0 1-.613-1.268 14.104 14.104 0 0 1-.485-1.326 14.104 14.104 0 0 1-.347-1.365 14.104 14.104 0 0 1-.211-1.395 14.104 14.104 0 0 1-.07-1.408 14.104 14.104 0 0 1 .035-.996 14.104 14.104 0 0 1 .1-.816z" fill="#ccc"/><path d="M9.068 10.06a14.104 14.104 0 0 0-.1.817 14.104 14.104 0 0 0-.034.996 14.104 14.104 0 0 0 .07 1.408 14.104 14.104 0 0 0 .21 1.395 14.104 14.104 0 0 0 .348 1.365 14.104 14.104 0 0 0 .485 1.326 14.104 14.104 0 0 0 .613 1.268 14.104 14.104 0 0 0 .736 1.203 14.104 14.104 0 0 0 .854 1.121 14.104 14.104 0 0 0 .96 1.033 14.104 14.104 0 0 0 1.06.93 14.104 14.104 0 0 0 1.146.82 14.104 14.104 0 0 0 1.225.701 14.104 14.104 0 0 0 1.158.52 10.073 10.073 0 0 0 .004-.006 10.073 10.073 0 0 1 0-.002 10.073 10.073 0 0 0 .44-.904 10.073 10.073 0 0 1 0-.002 10.073 10.073 0 0 0 .343-.945 10.073 10.073 0 0 0 .25-.975 10.073 10.073 0 0 1 0-.002 10.073 10.073 0 0 0 .15-.994 10.073 10.073 0 0 1 0-.002 10.073 10.073 0 0 0 .002-.04 10.073 10.073 0 0 1-.779-.376 10.073 10.073 0 0 1-.86-.526 10.073 10.073 0 0 1-.8-.609 10.073 10.073 0 0 1-.736-.687 10.073 10.073 0 0 1-.002 0 10.073 10.073 0 0 1-.665-.756 10.073 10.073 0 0 1-.585-.819 10.073 10.073 0 0 1-.5-.873 10.073 10.073 0 0 1-.413-.92 10.073 10.073 0 0 1-.316-.955 10.073 10.073 0 0 1-.22-.982 10.073 10.073 0 0 1-.122-1 10.073 10.073 0 0 1-.025-.713 10.073 10.073 0 0 1 .047-.965 10.073 10.073 0 0 0-.125-.06 10.073 10.073 0 0 1-.002-.002 10.073 10.073 0 0 0-.946-.344 10.073 10.073 0 0 0-.974-.25 10.073 10.073 0 0 1 0-.002 10.073 10.073 0 0 0-.996-.148 10.073 10.073 0 0 1 0-.002 10.073 10.073 0 0 0-.9-.041z" fill="#7bc450"/><path d="M18.918 30.102a14.104 14.104 0 0 0 .162-.15 14.104 14.104 0 0 0 .932-1.06 14.104 14.104 0 0 0 .818-1.146 14.104 14.104 0 0 0 .703-1.223 14.104 14.104 0 0 0 .574-1.287 14.104 14.104 0 0 0 .446-1.338 14.104 14.104 0 0 0 .308-1.375 14.104 14.104 0 0 0 .17-1.4 14.104 14.104 0 0 0 .035-.998 14.104 14.104 0 0 0-.07-1.406 14.104 14.104 0 0 0-.21-1.395 14.104 14.104 0 0 0-.349-1.365 14.104 14.104 0 0 0-.484-1.326 14.104 14.104 0 0 0-.613-1.268 14.104 14.104 0 0 0-.736-1.203 14.104 14.104 0 0 0-.854-1.121 14.104 14.104 0 0 0-.96-1.033 14.104 14.104 0 0 0-1.06-.93 14.104 14.104 0 0 0-1.146-.82 14.104 14.104 0 0 0-1.225-.701 14.104 14.104 0 0 0-1.285-.577 14.104 14.104 0 0 0-1.338-.443 14.104 14.104 0 0 0-1.377-.308 14.104 14.104 0 0 0-1.398-.17 14.104 14.104 0 0 0-.998-.038 14.104 14.104 0 0 0-1.408.073 14.104 14.104 0 0 0-1.393.209 14.104 14.104 0 0 0-1.367.35 14.104 14.104 0 0 0-1.324.484 14.104 14.104 0 0 0-1.27.613 14.104 14.104 0 0 0-.303.186v5.013a10.073 10.073 0 0 1 .045-.049 10.073 10.073 0 0 1 .002 0 10.073 10.073 0 0 1 .756-.664 10.073 10.073 0 0 1 .82-.586 10.073 10.073 0 0 1 .874-.5 10.073 10.073 0 0 1 .918-.412 10.073 10.073 0 0 1 .957-.316 10.073 10.073 0 0 1 .982-.22 10.073 10.073 0 0 1 .998-.124 10.073 10.073 0 0 1 .713-.023 10.073 10.073 0 0 1 1.006.047 10.073 10.073 0 0 1 0 .002 10.073 10.073 0 0 1 .996.148 10.073 10.073 0 0 1 0 .002 10.073 10.073 0 0 1 .974.25 10.073 10.073 0 0 1 .946.344 10.073 10.073 0 0 1 .002.002 10.073 10.073 0 0 1 .906.437 10.073 10.073 0 0 1 .857.525 10.073 10.073 0 0 1 .803.608 10.073 10.073 0 0 1 0 .002 10.073 10.073 0 0 1 .736.685 10.073 10.073 0 0 1 0 .002 10.073 10.073 0 0 1 .665.756 10.073 10.073 0 0 1 .585.819 10.073 10.073 0 0 1 .502.873 10.073 10.073 0 0 1 0 .002 10.073 10.073 0 0 1 .41.918 10.073 10.073 0 0 1 .319.955 10.073 10.073 0 0 1 .22.982 10.073 10.073 0 0 1 0 .002 10.073 10.073 0 0 1 .122.998 10.073 10.073 0 0 1 .025.713 10.073 10.073 0 0 1-.05 1.004 10.073 10.073 0 0 1 0 .002 10.073 10.073 0 0 1-.151.994 10.073 10.073 0 0 1 0 .002 10.073 10.073 0 0 1-.25.975 10.073 10.073 0 0 1-.344.945 10.073 10.073 0 0 1 0 .002 10.073 10.073 0 0 1-.44.904 10.073 10.073 0 0 1 0 .002 10.073 10.073 0 0 1-.525.857 10.073 10.073 0 0 1-.609.801 10.073 10.073 0 0 1 0 .002 10.073 10.073 0 0 1-.686.737 10.073 10.073 0 0 1-.757.662 10.073 10.073 0 0 1 0 .002 10.073 10.073 0 0 1-.819.586 10.073 10.073 0 0 1-.873.5 10.073 10.073 0 0 1 0 .001 10.073 10.073 0 0 1-.92.409 10.073 10.073 0 0 1 0 .002 10.073 10.073 0 0 1-.955.318 10.073 10.073 0 0 1-.982.22 10.073 10.073 0 0 1-.393.048h8.635z" fill="#318bcf"/><path d="M25.799 2.154a10.073 10.073 0 0 1 .289.075 10.073 10.073 0 0 1 .945.345 10.073 10.073 0 0 1 .002 0 10.073 10.073 0 0 1 .072.035c-.409-.217-.845-.344-1.308-.455z" fill="#ccc"/><path d="M22.936 21.916a10.073 10.073 0 0 0 .175.01 10.073 10.073 0 0 0 .713-.026 10.073 10.073 0 0 0 1-.12 10.073 10.073 0 0 0 .983-.221 10.073 10.073 0 0 0 .955-.319 10.073 10.073 0 0 0 .92-.41 10.073 10.073 0 0 0 .873-.502 10.073 10.073 0 0 0 .818-.586 10.073 10.073 0 0 0 .729-.638V7.473c0-2.14-1.235-3.929-2.995-4.864a10.073 10.073 0 0 0-.072-.035 10.073 10.073 0 0 1-.002 0 10.073 10.073 0 0 0-.945-.345 10.073 10.073 0 0 0-.29-.075c-.42-.1-.819-.256-1.27-.256h-2.905a10.073 10.073 0 0 0-.223.028 10.073 10.073 0 0 0-.982.22 10.073 10.073 0 0 1-.002 0 10.073 10.073 0 0 0-.955.317 10.073 10.073 0 0 0-.918.412 10.073 10.073 0 0 0-.873.5 10.073 10.073 0 0 1-.002 0 10.073 10.073 0 0 0-.818.586 10.073 10.073 0 0 0-.756.664 10.073 10.073 0 0 1-.002.002 10.073 10.073 0 0 0-.686.736 10.073 10.073 0 0 0-.61.801 10.073 10.073 0 0 0-.525.857 10.073 10.073 0 0 1 0 .002 10.073 10.073 0 0 0-.017.038 14.104 14.104 0 0 1 1.105.496 14.104 14.104 0 0 1 1.225.7 14.104 14.104 0 0 1 1.146.821 14.104 14.104 0 0 1 1.06.93 14.104 14.104 0 0 1 .96 1.033 14.104 14.104 0 0 1 .854 1.121 14.104 14.104 0 0 1 .736 1.203 14.104 14.104 0 0 1 .613 1.268 14.104 14.104 0 0 1 .485 1.326 14.104 14.104 0 0 1 .347 1.365 14.104 14.104 0 0 1 .211 1.395 14.104 14.104 0 0 1 .07 1.406 14.104 14.104 0 0 1-.035.998 14.104 14.104 0 0 1-.095.793zM21.818 25.885a14.104 14.104 0 0 1-.285.638 14.104 14.104 0 0 1-.703 1.223 14.104 14.104 0 0 1-.818 1.147 14.104 14.104 0 0 1-.932 1.058 14.104 14.104 0 0 1-.162.15h5.61a5.561 5.561 0 0 0 5.574-5.574v-.44a14.104 14.104 0 0 1-.229.142 14.104 14.104 0 0 1-1.27.613 14.104 14.104 0 0 1-1.324.484 14.104 14.104 0 0 1-1.367.348 14.104 14.104 0 0 1-1.392.21 14.104 14.104 0 0 1-1.409.071 14.104 14.104 0 0 1-.998-.035 14.104 14.104 0 0 1-.295-.035z" fill="#ccc"/><path d="M21.818 25.885a14.104 14.104 0 0 0 .295.035 14.104 14.104 0 0 0 .998.035 14.104 14.104 0 0 0 1.409-.07 14.104 14.104 0 0 0 1.392-.211 14.104 14.104 0 0 0 1.367-.348 14.104 14.104 0 0 0 1.325-.484 14.104 14.104 0 0 0 1.269-.613 14.104 14.104 0 0 0 .229-.141v-4.984a10.073 10.073 0 0 1-.729.638 10.073 10.073 0 0 1-.818.586 10.073 10.073 0 0 1-.873.502 10.073 10.073 0 0 1-.92.41 10.073 10.073 0 0 1-.955.319 10.073 10.073 0 0 1-.983.22 10.073 10.073 0 0 1-1 .121 10.073 10.073 0 0 1-.713.026 10.073 10.073 0 0 1-.175-.01 14.104 14.104 0 0 1-.075.607 14.104 14.104 0 0 1-.308 1.375 14.104 14.104 0 0 1-.446 1.338 14.104 14.104 0 0 1-.289.649z" fill="#7bc450"/><path d="M13.13 1.898H7.474a5.561 5.561 0 0 0-5.575 5.575v.463a14.104 14.104 0 0 1 .303-.186 14.104 14.104 0 0 1 1.27-.613 14.104 14.104 0 0 1 1.324-.485 14.104 14.104 0 0 1 1.367-.35 14.104 14.104 0 0 1 1.393-.208 14.104 14.104 0 0 1 1.408-.073 14.104 14.104 0 0 1 .998.038 14.104 14.104 0 0 1 .295.035 14.104 14.104 0 0 1 .285-.639 14.104 14.104 0 0 1 .703-1.223 14.104 14.104 0 0 1 .819-1.146 14.104 14.104 0 0 1 .931-1.06 14.104 14.104 0 0 1 .137-.128z" fill="#ccc"/><path d="M13.13 1.898a14.104 14.104 0 0 0-.136.127 14.104 14.104 0 0 0-.931 1.06 14.104 14.104 0 0 0-.819 1.147 14.104 14.104 0 0 0-.703 1.223 14.104 14.104 0 0 0-.285.639 14.104 14.104 0 0 1 1.103.135 14.104 14.104 0 0 1 1.377.308 14.104 14.104 0 0 1 1.338.443 14.104 14.104 0 0 1 .18.08 10.073 10.073 0 0 1 .017-.037 10.073 10.073 0 0 1 0-.002 10.073 10.073 0 0 1 .526-.857 10.073 10.073 0 0 1 .61-.8 10.073 10.073 0 0 1 .685-.737 10.073 10.073 0 0 1 .002-.002 10.073 10.073 0 0 1 .756-.664 10.073 10.073 0 0 1 .818-.586 10.073 10.073 0 0 1 .002 0 10.073 10.073 0 0 1 .873-.5 10.073 10.073 0 0 1 .918-.412 10.073 10.073 0 0 1 .955-.317 10.073 10.073 0 0 1 .002 0 10.073 10.073 0 0 1 .982-.22 10.073 10.073 0 0 1 .223-.028h-8.492z" fill="#7bc450"/></g></svg>