<svg xmlns="http://www.w3.org/2000/svg" height="32" width="32" version="1"><rect width="28.203" height="28.203" x="1.898" y="1.898" ry="5.575" fill="#4f4f4f" fill-rule="evenodd"/><path d="M16 6a1 1 0 0 0-.096.006C10.438 6.058 6 10.52 6 16c0 5.511 4.489 10 10 10 5.477 0 9.94-4.436 9.994-9.9A1 1 0 0 0 26 16a1 1 0 0 0-1-1 1 1 0 0 0-1 1c0 4.43-3.57 8-8 8s-8-3.57-8-8 3.57-8 8-8a1 1 0 0 0 1-1 1 1 0 0 0-1-1zm0 4a1 1 0 0 0-.096.004C12.647 10.056 10 12.73 10 16c0 3.302 2.698 6 6 6 3.268 0 5.94-2.645 5.994-5.9A1 1 0 0 0 22 16a1 1 0 0 0-1-1 1 1 0 0 0-1 1c0 2.221-1.779 4-4 4s-4-1.779-4-4 1.779-4 4-4a1 1 0 0 0 1-1 1 1 0 0 0-1-1zm0 4a2 2 0 0 0-2 2 2 2 0 0 0 2 2 2 2 0 0 0 2-2 2 2 0 0 0-2-2z" fill="#fff"/></svg>