<svg xmlns="http://www.w3.org/2000/svg" height="32" width="32"><rect width="28.203" height="28.203" x="1.898" y="1.898" ry="5.575" fill="#ff9426" fill-rule="evenodd"/><path d="M16 2A14 14 0 0 0 2 16a14 14 0 0 0 14 14 14 14 0 0 0 14-14A14 14 0 0 0 16 2z" fill="#ff9426"/><circle r="12" cy="16" cx="16" fill="#fff"/><path d="M15.972 6c-1.247-.006-2.41.246-2.972.52V6.5c.095.197 3 7.5 3 7.5l3-7.5c-.595-.274-1.782-.494-3.028-.5z" fill="#d2e015"/><path d="M15.972 26c-1.247.006-2.41-.246-2.972-.52v.02c.095-.197 3-7.5 3-7.5l3 7.5c-.595.274-1.782.494-3.028.5z" fill="#c74a30"/><path d="M26 15.972c.006-1.247-.246-2.41-.52-2.972h.02c-.197.095-7.5 3-7.5 3l7.5 3c.274-.595.494-1.782.5-3.028z" fill="#ff769d"/><path d="M6 15.972c-.006-1.247.246-2.41.52-2.972H6.5c.197.095 7.5 3 7.5 3l-7.5 3c-.274-.595-.494-1.782-.5-3.028z" fill="#f9a726"/><path d="M23.051 8.91c-.878-.887-1.878-1.532-2.469-1.735-.002.004.017-.017.014-.014-.072.207-3.182 7.425-3.182 7.425l7.425-3.182c-.228-.615-.91-1.61-1.788-2.495z" fill="#89dc3c"/><path d="M8.91 23.051c-.887-.878-1.532-1.878-1.735-2.469l-.014.014c.207-.072 7.425-3.182 7.425-3.182l-3.182 7.425c-.615-.227-1.61-.91-2.495-1.788z" fill="#dc6e33"/><path d="M23.09 23.051c.887-.878 1.532-1.878 1.735-2.469-.004-.002.017.017.014.014-.207-.072-7.425-3.182-7.425-3.182l3.182 7.425c.615-.227 1.61-.91 2.495-1.788z" fill="#dd4f3c"/><path d="M8.949 8.91c.877-.887 1.878-1.532 2.468-1.735l-.013-.014c.071.207 3.182 7.425 3.182 7.425L7.16 11.404c.227-.615.91-1.61 1.788-2.495z" fill="#f8e12e"/></svg>