<svg xmlns="http://www.w3.org/2000/svg" height="32" width="32" version="1"><g fill-rule="evenodd"><path d="M22.227 1.898H9.977l6.15 22.37zM22.623 30.102h1.902a5.565 5.565 0 0 0 5.577-5.577V7.473c0-.74-.16-1.436-.418-2.08z" fill="#c2352a"/><path d="M22.623 30.102l7.06-24.71a5.548 5.548 0 0 0-5.158-3.494h-2.298l-6.1 22.37 1.605 5.834z" fill="#fecd38"/><path d="M2.445 5.135c-.332.715-.547 1.494-.547 2.338v17.052a5.563 5.563 0 0 0 5.575 5.577h2.105z" fill="#c2352a"/><path d="M2.445 5.135l7.133 24.967h8.154L9.977 1.898H7.473c-2.245 0-4.142 1.333-5.028 3.237z" fill="#fed760"/></g></svg>