<svg xmlns="http://www.w3.org/2000/svg" height="32" width="32" version="1"><rect width="28.203" height="28.203" x="1.898" y="1.898" ry="5.575" fill="#e6e6e6" fill-rule="evenodd"/><g stroke-width="1.328"><path d="M23.42 5.457a7.53 7.724 0 0 1-2.43 4.51A9.01 9.01 0 0 0 16 8.468a9.011 9.011 0 0 0-4.992 1.499 7.53 7.724 0 0 1-2.429-4.461 7.53 7.724 0 0 0-.11 1.262 7.53 7.724 0 0 0 1.244 4.243 9 9 0 0 0-2.75 6.494A9.017 9.017 0 0 0 16 26.543a9.017 9.017 0 0 0 9.037-9.037 9.002 9.002 0 0 0-2.749-6.492 7.53 7.724 0 0 0 1.243-4.245 7.53 7.724 0 0 0-.11-1.312z" fill="#e03c3b"/><path d="M15.247 19.765c-.892 1.441-2.866 1.934-4.41 1.102-1.544-.831-2.073-2.673-1.182-4.114z" fill="#fff"/><path d="M12.155 18.1c-.128.886.132 1.949.806 3.12a.014.014 0 0 1 .006-.001c-.361-.838-.308-1.789.02-2.67z" fill="#2c2c2c"/><path d="M16.753 19.765c.892 1.441 2.866 1.935 4.41 1.103 1.544-.832 2.073-2.674 1.182-4.115z" fill="#fff"/><path d="M19.845 18.1l-.833.45c.33.88.382 1.83.02 2.669l.007.001c.674-1.171.934-2.234.806-3.12z" fill="#2c2c2c"/></g></svg>