<svg xmlns="http://www.w3.org/2000/svg" height="32" width="32"><rect width="28.203" height="28.203" x="1.898" y="1.898" ry="5.575" fill="#f56e2c" fill-rule="evenodd"/><path d="M24.287 15a8 8 0 0 0-2.895-5.2c-.325.122-.67.2-1.035.2-1.258 0-2.34-.794-2.783-1.902A8 8 0 0 0 16.357 8a8 8 0 0 0-3.104.627l1.521 2.637A5 5 0 0 1 16.356 11a5 5 0 0 1 4.895 4h3.035zm-.002 2h-3.03a5 5 0 0 1-4.898 4 5 5 0 0 1-1.582-.262l-1.518 2.63a8 8 0 0 0 3.1.632 8 8 0 0 0 1.22-.105c.444-1.104 1.524-1.895 2.78-1.895.365 0 .713.077 1.038.2a8 8 0 0 0 2.89-5.2zM22.357 7a2 2 0 0 0-2-2 2 2 0 0 0-2 2 2 2 0 0 0 2 2 2 2 0 0 0 2-2zm0 18a2 2 0 0 0-2-2 2 2 0 0 0-2 2 2 2 0 0 0 2 2 2 2 0 0 0 2-2zm-9.312-12.736l-1.518-2.63a8 8 0 0 0-2.918 4.413A2.97 2.97 0 0 1 9.357 16a2.97 2.97 0 0 1-.746 1.951 8 8 0 0 0 2.914 4.418l1.52-2.63A5 5 0 0 1 11.357 16a5 5 0 0 1 1.688-3.736zM8.357 16a2 2 0 0 0-2-2 2 2 0 0 0-2 2 2 2 0 0 0 2 2 2 2 0 0 0 2-2z" fill="#fff"/></svg>