<svg xmlns="http://www.w3.org/2000/svg" height="32" width="32" version="1"><rect width="28.203" height="28.203" x="1.898" y="1.898" ry="5.575" fill="#ff8a1a" fill-rule="evenodd"/><path d="M17.603 14.486c-2.624-2.602-3.37-5.067-4.469-6.339-2.9-3.355-9.843 5.638-2.333 13.084s16.569.565 12.956-2.439c-1.29-1.072-3.667-1.84-6.154-4.306z" fill="#f7bd5d"/><path d="M11.61 7.428a9.189 9.189 0 0 0-2.349 6.122 9.189 9.189 0 0 0 9.19 9.189 9.189 9.189 0 0 0 6.123-2.353c-.008-.579-.262-1.132-.817-1.593-1.29-1.072-3.667-1.84-6.154-4.307-2.624-2.601-3.37-5.067-4.469-6.338-.437-.506-.967-.727-1.524-.72z" fill="#fff"/></svg>