<svg xmlns="http://www.w3.org/2000/svg" height="32" width="32" version="1"><path d="M30 6.969c-.054-.579-.12-1.157-.336-1.67A5.563 5.563 0 0 0 26.7 2.334c-.511-.216-1.089-.28-1.666-.334H16v14h14z" fill="#cf4f8c"/><path d="M6.965 2c-.577.054-1.155.118-1.666.334a5.563 5.563 0 0 0-2.965 2.965c-.216.511-.28 1.089-.334 1.666V16h14V2zM25.035 30c.577-.054 1.155-.118 1.666-.334a5.563 5.563 0 0 0 2.965-2.965c.216-.511.28-1.089.334-1.666V16H16v14z" fill="#21d789"/><path d="M2 25.031c.054.579.12 1.157.336 1.67A5.563 5.563 0 0 0 5.3 29.666c.511.216 1.089.28 1.666.334H16V16H2z" fill="#2086e7"/><rect width="21.424" height="21.424" x="5.288" y="5.288" ry="4.235" fill="#3f3f3f" fill-rule="evenodd"/><g fill="none" stroke="#fff" stroke-width="2" stroke-linecap="round"><path d="M11.118 21.702h6.51" stroke-width="1.62746"/><path d="M14.372 16.006s0 .813-1.627.813-1.627-1.627-1.627-3.254c0-1.628 0-3.255 1.627-3.255s1.627.813 1.627.813" stroke-linejoin="bevel" stroke-width="1.62746"/><path d="M17.627 10.31v6.51h3.255" stroke-linejoin="round" stroke-width="1.62746"/></g></svg>