<svg xmlns="http://www.w3.org/2000/svg" height="32" width="32" version="1"><rect width="28.203" height="28.203" x="1.898" y="1.898" ry="5.575" fill="#2095f2" fill-rule="evenodd"/><path d="M11.919 1.898H7.474a5.563 5.563 0 0 0-5.577 5.575v17.052a5.565 5.565 0 0 0 5.577 5.577h17.052a5.565 5.565 0 0 0 5.577-5.577v-7.097a12.61 12.61 0 0 1-.79.453 12.61 12.61 0 0 1-1.15.515 12.61 12.61 0 0 1-1.197.399 12.61 12.61 0 0 1-1.229.275 12.61 12.61 0 0 1-1.252.153 12.61 12.61 0 0 1-.892.03 12.61 12.61 0 0 1-1.258-.062 12.61 12.61 0 0 1-1.246-.189 12.61 12.61 0 0 1-1.223-.313 12.61 12.61 0 0 1-1.183-.431 12.61 12.61 0 0 1-1.135-.549 12.61 12.61 0 0 1-1.074-.658 12.61 12.61 0 0 1-1.004-.762 12.61 12.61 0 0 1-.922-.86 12.61 12.61 0 0 1-.832-.947 12.61 12.61 0 0 1-.735-1.025 12.61 12.61 0 0 1-.627-1.094 12.61 12.61 0 0 1-.513-1.15 12.61 12.61 0 0 1-.399-1.195 12.61 12.61 0 0 1-.275-1.23 12.61 12.61 0 0 1-.152-1.253 12.61 12.61 0 0 1-.032-.892 12.61 12.61 0 0 1 .063-1.258 12.61 12.61 0 0 1 .19-1.246 12.61 12.61 0 0 1 .31-1.223 12.61 12.61 0 0 1 .373-1.018z" fill="#2095f2" fill-rule="evenodd"/><path d="M11.919 1.898a12.61 12.61 0 0 0-.373 1.018 12.61 12.61 0 0 0-.31 1.223 12.61 12.61 0 0 0-.19 1.246 12.61 12.61 0 0 0-.063 1.258 12.61 12.61 0 0 0 .032.892 12.61 12.61 0 0 0 .152 1.252 12.61 12.61 0 0 0 .275 1.23 12.61 12.61 0 0 0 .399 1.196 12.61 12.61 0 0 0 .513 1.15 12.61 12.61 0 0 0 .627 1.094 12.61 12.61 0 0 0 .735 1.025 12.61 12.61 0 0 0 .832.948 12.61 12.61 0 0 0 .922.86 12.61 12.61 0 0 0 1.004.76 12.61 12.61 0 0 0 1.074.659 12.61 12.61 0 0 0 1.135.549 12.61 12.61 0 0 0 1.183.431 12.61 12.61 0 0 0 1.223.313 12.61 12.61 0 0 0 1.246.19 12.61 12.61 0 0 0 1.258.062 12.61 12.61 0 0 0 .892-.031 12.61 12.61 0 0 0 1.252-.153 12.61 12.61 0 0 0 1.229-.275 12.61 12.61 0 0 0 1.197-.399 12.61 12.61 0 0 0 1.15-.515 12.61 12.61 0 0 0 .79-.453V7.473a5.563 5.563 0 0 0-5.577-5.575z" fill="#4daaf5" fill-rule="evenodd"/><path d="M14.57 6c-.395 0-.713.344-.713.77v12.306H11L16 26l5-6.924h-2.857V6.77c0-.427-.32-.77-.715-.77H14.57z" fill="#fff"/></svg>