<svg xmlns="http://www.w3.org/2000/svg" height="32" width="32" version="1"><g fill-rule="evenodd"><path d="M28.127 28.703l-16.734-6.465-7.659 6.373c.99.906 2.285 1.49 3.739 1.49h17.054c1.394 0 2.625-.558 3.6-1.398z" fill="#339c33"/><path d="M29.926 25.28c.039-.26.176-.482.176-.755V7.473a5.561 5.561 0 0 0-5.575-5.575h-7.74z" fill="#ccc"/><path d="M11.406 22.244l8.27 3.194-1.127-9.127z" fill="#fff"/><path d="M16.744 1.898H7.473a5.561 5.561 0 0 0-5.575 5.575v17.052c0 1.18.465 2.187 1.092 3.077z" fill="#ccc"/><path d="M16.744 1.898L2.99 27.602c.243.343.434.726.744 1.01l7.659-6.374.013.006 7.143-5.933-1.78-14.413z" fill="#4a86d8"/><path d="M16.77 1.898l2.906 23.54 8.451 3.265c.995-.856 1.594-2.07 1.799-3.424L16.787 1.9z" fill="#dd3c3d"/></g></svg>