<svg xmlns="http://www.w3.org/2000/svg" height="32" width="32" version="1"><rect width="28.203" height="28.203" x="1.898" y="1.898" ry="5.575" fill="#4f4f4f" fill-rule="evenodd"/><g transform="translate(34.526 33.039)"><path d="M-25.124-20.006a4.79 4.79 0 0 0-4.004 4.718 4.79 4.79 0 0 0 4.79 4.79 4.79 4.79 0 0 0 3.81-1.894 6.386 6.386 0 0 1-2.242-1.092 2.395 2.395 0 0 1-1.569.59 2.395 2.395 0 0 1-2.394-2.394 2.395 2.395 0 0 1 1.524-2.231 6.386 6.386 0 0 1-.087-1.042 6.386 6.386 0 0 1 .172-1.445z" fill="#e16262"/><path d="M-20.348-26.464a4.79 4.79 0 0 0-4.789 4.79 4.79 4.79 0 0 0 .27 1.562 6.386 6.386 0 0 1 2.133-1.414 2.395 2.395 0 0 1-.008-.148 2.395 2.395 0 0 1 2.394-2.395 2.395 2.395 0 0 1 2.395 2.395 2.395 2.395 0 0 1-.008.15 6.386 6.386 0 0 1 2.135 1.41 4.79 4.79 0 0 0 .268-1.56 4.79 4.79 0 0 0-4.79-4.79z" fill="#69db3e"/><circle r="1.596" cx="-20.348" cy="-21.674" fill="#a5e98c"/><circle r="1.596" cx="-24.339" cy="-15.288" fill="#eb9595"/><g transform="matrix(.75 0 0 .75 -5.32 -30.023)" stroke-width="1.333"><circle cx="-11.474" cy="21.842" r="8" fill="#e16262"/><path d="M-11.474 17.842a4 4 0 0 0 0 8 4 4 0 0 0 3.84-2.857h-1.232a2.85 2.85 0 0 1-2.608 1.714 2.857 2.857 0 1 1 0-5.714c.79 0 1.495.329 2.01.848l-1.438 1.438h3.428v-3.428l-1.173 1.173a3.99 3.99 0 0 0-2.827-1.173z" fill="#fff"/></g><g transform="matrix(.75 0 0 .75 -31.947 -29.364)" stroke-width="1.333"><circle cx="24" cy="21" r="8" fill="#69db3e"/><g fill="#fff" stroke-width="1.778"><path d="M19.004 20.05l2.122-2.122 4.95 4.95-2.122 2.121z"/><path d="M23.954 25l-2.121-2.122 6.364-6.364 2.12 2.121z"/></g></g></g></svg>