<svg xmlns="http://www.w3.org/2000/svg" height="32" width="32" version="1"><rect width="28.203" height="28.203" x="1.898" y="1.898" ry="5.575" fill="#4f4f4f" fill-rule="evenodd"/><g transform="translate(44.658 12.79)"><path d="M-35.43.09a4.79 4.79 0 0 0-4.004 4.717 4.79 4.79 0 0 0 4.79 4.79 4.79 4.79 0 0 0 3.81-1.893 6.386 6.386 0 0 1-2.242-1.093 2.395 2.395 0 0 1-1.569.59 2.395 2.395 0 0 1-2.394-2.394 2.395 2.395 0 0 1 1.524-2.231 6.386 6.386 0 0 1-.087-1.042A6.386 6.386 0 0 1-35.43.09z" fill="#e16262"/><path d="M-30.654-6.368a4.79 4.79 0 0 0-4.789 4.79 4.79 4.79 0 0 0 .27 1.561A6.386 6.386 0 0 1-33.04-1.43a2.395 2.395 0 0 1-.008-.149 2.395 2.395 0 0 1 2.394-2.395 2.395 2.395 0 0 1 2.395 2.395 2.395 2.395 0 0 1-.008.15 6.386 6.386 0 0 1 2.135 1.41 4.79 4.79 0 0 0 .268-1.56 4.79 4.79 0 0 0-4.79-4.79z" fill="#69db3e"/><circle r="1.596" cx="-30.654" cy="-1.579" fill="#a5e98c"/><circle r="1.596" cx="-34.645" cy="4.807" fill="#eb9595"/><circle r="6.386" cy="6.404" cx="-24.268" fill="#3facd2"/><circle r="3.193" cx="-24.268" cy="4.807" fill="#fff"/><path fill="#fff" d="M-25.864 5.605h3.193v3.193h-3.193zM-25.864 9.596h3.193v.798h-3.193z"/></g></svg>