<svg xmlns="http://www.w3.org/2000/svg" height="32" width="32" version="1"><rect width="28.203" height="28.203" x="1.898" y="1.898" ry="5.575" fill="#4f4f4f" fill-rule="evenodd"/><g transform="translate(49.438 1.536)"><path d="M-40.035 11.51a4.79 4.79 0 0 0-4.004 4.718 4.79 4.79 0 0 0 4.789 4.79 4.79 4.79 0 0 0 3.81-1.893 6.386 6.386 0 0 1-2.241-1.093 2.395 2.395 0 0 1-1.569.59 2.395 2.395 0 0 1-2.395-2.394 2.395 2.395 0 0 1 1.525-2.231 6.386 6.386 0 0 1-.087-1.042 6.386 6.386 0 0 1 .172-1.445z" fill="#e16262"/><path d="M-35.259 5.053a4.79 4.79 0 0 0-4.79 4.79 4.79 4.79 0 0 0 .27 1.561 6.386 6.386 0 0 1 2.133-1.413 2.395 2.395 0 0 1-.008-.149 2.395 2.395 0 0 1 2.395-2.395 2.395 2.395 0 0 1 2.395 2.395 2.395 2.395 0 0 1-.008.15 6.386 6.386 0 0 1 2.134 1.41 4.79 4.79 0 0 0 .269-1.56 4.79 4.79 0 0 0-4.79-4.79z" fill="#69db3e"/><circle r="1.596" cx="-35.259" cy="9.842" fill="#a5e98c"/><circle r="1.596" cx="-39.25" cy="16.228" fill="#eb9595"/><circle r="3.193" cx="-28.873" cy="16.228" fill="#fff"/><path fill="#fff" d="M-30.469 17.026h3.193v3.193h-3.193zM-30.469 21.018h3.193v.798h-3.193z"/><g transform="matrix(.75 0 0 .75 -20.23 1.493)" stroke-width="1.333"><circle cx="-11.474" cy="21.842" r="8" fill="#e16262"/><path d="M-11.474 17.842a4 4 0 0 0 0 8 4 4 0 0 0 3.84-2.857h-1.232a2.85 2.85 0 0 1-2.608 1.714 2.857 2.857 0 1 1 0-5.714c.79 0 1.495.329 2.01.848l-1.438 1.438h3.428v-3.428l-1.173 1.173a3.99 3.99 0 0 0-2.827-1.173z" fill="#fff"/></g></g></svg>