<svg xmlns="http://www.w3.org/2000/svg" width="32" height="32" version="1"><path d="M16 1.899V15.44l-.002.564L24.143 1.9h-8.096z" fill="#f6eb39" fill-rule="evenodd"/><path d="M16 16V16l8.027 14.102h.498a5.565 5.565 0 0 0 5.577-5.576v-.433z" fill="#ec3323" fill-rule="evenodd"/><path d="M30.102 16.002H16.004l14.098 8.203z" fill="#ef5522" fill-rule="evenodd"/><path d="M30.102 7.923L16 16l.004.001 14.098.11z" fill="#f8991d" fill-rule="evenodd"/><path d="M24.143 1.898L16 16l14.102-7.905v-.62a5.565 5.565 0 0 0-5.577-5.577z" fill="#f8ba15" fill-rule="evenodd"/><path d="M15.814 30.103h8.329L16 16.003h-.002l-.002.002z" fill="#a61d4b" fill-rule="evenodd"/><path d="M15.994 16.005l-14.096 8.03v.492a5.563 5.563 0 0 0 5.575 5.576h.51z" fill="#462e90" fill-rule="evenodd"/><path d="M15.994 16.005L7.855 30.103h8.092l.049-14.098z" fill="#7c3692" fill-rule="evenodd"/><path d="M15.998 16.002l-14.1-.032v8.112l14.1-8.079z" fill="#3e5ca9" fill-rule="evenodd"/><path d="M7.473 1.897A5.563 5.563 0 0 0 1.9 7.473v.324l14.098 8.205h.002v-.004l-.141-.244L7.92 1.9h-.064v-.002z" fill="#64ad45" fill-rule="evenodd"/><path d="M1.9 7.793V16H16z" fill="#0791cc" fill-rule="evenodd"/><path d="M7.918 1.904l8.078 14.101.002-.56V1.904z" fill="#cddc39" fill-rule="evenodd"/><rect width="20.425" height="20.425" x="5.787" y="5.787" ry="4.038" fill="#fff" fill-rule="evenodd"/><path d="M15.502 23.814c-1.74-.184-3.284-1.423-3.837-3.077-.182-.544-.242-.973-.222-1.61.044-1.414.395-2.317 1.656-4.253.926-1.422 1.194-1.866 1.53-2.535.37-.738.7-1.634.907-2.456.103-.412.152-.67.298-1.567.033-.207.299-.207.332 0 .146.896.195 1.155.298 1.567.206.822.537 1.718.907 2.456.336.67.598 1.104 1.522 2.522.868 1.333 1.24 2.059 1.457 2.844.142.513.189.837.207 1.423.02.636-.04 1.065-.222 1.61-.672 2.007-2.704 3.3-4.833 3.076zm-1.413-3.515c.37-.192.531-.56.532-1.22 0-.35.073-1.092.155-1.566.09-.521.243-1.169.493-2.075.237-.857.24-.89.083-1.008-.062-.045-.108-.055-.188-.04-.091.017-.13.056-.283.287-.098.147-.344.495-.547.773-.202.278-.467.657-.587.843-.69 1.065-1 1.978-1.008 2.972-.002.358.005.415.07.56.088.195.345.441.532.51.188.069.58.05.748-.036z" fill="#ec3323"/></svg>