<svg xmlns="http://www.w3.org/2000/svg" height="32" width="32" version="1"><rect width="28.203" height="28.203" x="1.898" y="1.898" ry="5.575" fill="#4f4f4f" fill-rule="evenodd"/><g transform="translate(61.158 6.263)"><path d="M-39.205 7.817l-.053.088a8 8 0 0 1 .2 1.732 8 8 0 0 1-.11 1.272 3 3 0 0 1 2.01 2.828 3 3 0 0 1-3 3 3 3 0 0 1-2.008-.777 8 8 0 0 1-2.758 1.388l-.007.012a6 6 0 0 0 4.773 2.377 6 6 0 0 0 6-6 6 6 0 0 0-5.047-5.92z" fill="#3facd2"/><path d="M-51.142 7.827a6 6 0 0 0-5.016 5.91 6 6 0 0 0 6 6 6 6 0 0 0 4.773-2.371 8 8 0 0 1-2.808-1.37 3 3 0 0 1-1.965.74 3 3 0 0 1-3-3 3 3 0 0 1 1.91-2.794 8 8 0 0 1-.11-1.305 8 8 0 0 1 .216-1.81z" fill="#e16262"/><path d="M-45.158-.263a6 6 0 0 0-6 6 6 6 0 0 0 .338 1.957 8 8 0 0 1 2.672-1.771 3 3 0 0 1-.01-.186 3 3 0 0 1 3-3 3 3 0 0 1 3 3 3 3 0 0 1-.01.188 8 8 0 0 1 2.674 1.767 6 6 0 0 0 .336-1.955 6 6 0 0 0-6-6z" fill="#69db3e"/><circle r="2" cx="-45.158" cy="5.737" fill="#a5e98c"/><circle r="2" cx="-50.158" cy="13.737" fill="#eb9595"/><circle r="2" cx="-40.158" cy="13.737" fill="#8ccde4"/></g></svg>