<svg xmlns="http://www.w3.org/2000/svg" height="32" width="32" version="1"><rect width="28.203" height="28.203" x="1.898" y="1.898" ry="5.575" fill="#4f4f4f" fill-rule="evenodd"/><path d="M21.953 14.08l-.053.088a8 8 0 0 1 .2 1.732 8 8 0 0 1-.11 1.272A3 3 0 0 1 24 20a3 3 0 0 1-3 3 3 3 0 0 1-2.008-.777 8 8 0 0 1-2.758 1.388l-.007.012A6 6 0 0 0 21 26a6 6 0 0 0 6-6 6 6 0 0 0-5.047-5.92zM10.016 14.09A6 6 0 0 0 5 20a6 6 0 0 0 6 6 6 6 0 0 0 4.773-2.371 8 8 0 0 1-2.808-1.369A3 3 0 0 1 11 23a3 3 0 0 1-3-3 3 3 0 0 1 1.91-2.795A8 8 0 0 1 9.8 15.9a8 8 0 0 1 .216-1.81zM16 6a6 6 0 0 0-6 6 6 6 0 0 0 .338 1.957 8 8 0 0 1 2.672-1.771A3 3 0 0 1 13 12a3 3 0 0 1 3-3 3 3 0 0 1 3 3 3 3 0 0 1-.01.188 8 8 0 0 1 2.674 1.767A6 6 0 0 0 22 12a6 6 0 0 0-6-6z" fill="#999"/><circle cy="12" cx="16" r="2" fill="#a5e98c"/><circle cy="20" cx="11" r="2" fill="#eb9595"/><circle cy="20" cx="21" r="2" fill="#8ccde4"/></svg>