<svg xmlns="http://www.w3.org/2000/svg" height="32" width="32" version="1"><rect width="28.203" height="28.203" x="1.898" y="1.898" ry="5.575" fill="#5f7c8a" fill-rule="evenodd"/><path d="M14.047 6.762a.49.49 0 0 0-.418.388l-.402 2.042a7.68 7.68 0 0 0-1.998 1.148l-1.983-.67a.492.492 0 0 0-.566.208l-1.909 3.31a.492.492 0 0 0 .105.596l1.58 1.386a7.61 7.61 0 0 0-.09 1.133c0 .388.035.762.09 1.134l-1.58 1.386a.492.492 0 0 0-.105.596l1.909 3.31c.11.188.36.28.566.209l1.983-.67a7.681 7.681 0 0 0 1.998 1.147l.403 2.043c.04.213.244.384.462.387h3.816a.492.492 0 0 0 .462-.387l.403-2.043a7.68 7.68 0 0 0 1.998-1.148l1.983.671a.492.492 0 0 0 .566-.209l1.909-3.31a.492.492 0 0 0-.105-.596l-1.58-1.386a7.61 7.61 0 0 0 .09-1.134c0-.387-.035-.76-.09-1.133l1.58-1.386a.492.492 0 0 0 .105-.596l-1.909-3.31a.492.492 0 0 0-.566-.209l-1.983.671a7.681 7.681 0 0 0-1.998-1.148l-.402-2.043a.492.492 0 0 0-.463-.387H14.047z" fill="#fff"/><path d="M16 12.214a4.09 4.09 0 1 1 0 8.179 4.09 4.09 0 0 1 0-8.179z" fill="#5f7c8a"/><path d="M19.144 22.945l4.868-8.252c1.532-.916 4.364-.364 4.347 2.5l-4.842 8.434-4.165 2.134z" fill="#f2f2f2"/><path d="M19.282 26.147l.07 1.614 1.444-.74z" fill="#300503"/><path d="M22.193 24.723l-1.749 2.095.344.198 2.729-1.39.054-.1z" fill="#ccc"/><path d="M27.782 18.198l-4.359-2.507-4.28 7.254 4.43 2.583z" fill="#0ab884"/><path d="M28.359 17.19l-4.336-2.501-.011.004-.589.998 4.359 2.507.577-1.005v-.003z" fill="#e3e2db"/><path d="M25.34 14.295a3.003 3.003 0 0 0-1.317.394l4.336 2.5c.01-2.144-1.578-2.991-3.02-2.894z" fill="#f2f2f2"/><path d="M26.36 17.38l-4.167 7.343 1.38.805 4.209-7.33z" fill="#007d68"/><path d="M24.776 16.469L20.56 23.77l1.633.952 4.167-7.343z" fill="#0ab884"/><path d="M24.585 16.359l-4.216 7.3.191.112 4.216-7.302z" fill="#ccc"/></svg>