<svg xmlns="http://www.w3.org/2000/svg" height="32" width="32" version="1"><rect width="28.203" height="28.203" x="1.898" y="1.898" ry="5.575" fill="#ccc" fill-rule="evenodd"/><path d="M14.425 17.024c-.12-.13-.188-.287-.267-.444.075.275.229.511.372.752l-.105-.307m0 0c-.118-.13-.188-.287-.267-.444.075.275.23.511.372.752l-.105-.308m7.332-2.393c.019.513-.147.762-.297 1.203l-.27.136c-.22.436.022.277-.136.623-.344.312-1.043.974-1.267 1.035-.164-.004.11-.197.146-.272-.46.322-.37.483-1.074.679l-.02-.047c-1.737.832-4.15-.817-4.118-3.065-.019.143-.053.107-.091.164-.09-1.157.525-2.318 1.561-2.793 1.014-.511 2.203-.302 2.929.388-.399-.532-1.193-1.096-2.134-1.044-.922.016-1.784.612-2.072 1.259-.472.302-.527 1.166-.733 1.325-.277 2.07.521 2.965 1.87 4.018.213.145.06.168.089.279a3.668 3.668 0 0 1-1.197-.931c.18.266.373.526.623.73-.423-.146-.988-1.043-1.152-1.08.728 1.328 2.956 2.33 4.123 1.832-.54.02-1.226.012-1.832-.216-.256-.134-.602-.41-.54-.462 1.593.605 3.237.458 4.614-.665.35-.278.734-.75.844-.757-.166.255.029.122-.099.348.349-.574-.152-.234.36-.99l.19.265c-.07-.476.58-1.054.514-1.806.15-.23.167.248.009.777.22-.587.058-.682.114-1.166.06.163.141.336.182.508-.143-.568.147-.956.22-1.286-.072-.032-.222.25-.257-.42.006-.29.08-.152.109-.224-.056-.032-.204-.256-.293-.684.064-.1.173.261.262.276-.057-.34-.155-.6-.159-.861-.259-.55-.092.073-.3-.236-.276-.873.227-.203.261-.6.417.615.655 1.568.764 1.962a8.142 8.142 0 0 0-.382-1.398c.127.055-.205-.99.165-.298-.396-1.474-1.686-2.85-2.874-3.497.146.135.33.305.264.332-.591-.358-.488-.386-.572-.537-.482-.2-.513.016-.832 0-.907-.49-1.081-.437-1.915-.744l.038.181c-.601-.204-.7.077-1.35 0-.039-.03.209-.113.413-.143-.581.078-.554-.117-1.123.021.14-.1.289-.166.438-.251-.474.03-1.13.28-.928.052-.773.35-2.145.843-2.915 1.578l-.024-.165c-.353.431-1.539 1.288-1.633 1.847l-.095.022c-.183.316-.302.675-.447 1-.24.416-.352.16-.318.226-.473.974-.708 1.793-.91 2.465.144.22.004 1.322.058 2.205-.237 4.36 3.006 8.592 6.551 9.569.52.19 1.292.182 1.95.201-.776-.226-.876-.12-1.631-.387-.545-.262-.664-.56-1.05-.901l.152.275c-.757-.273-.44-.338-1.056-.536l.163-.217c-.244-.019-.648-.42-.76-.643l-.268.01c-.322-.404-.494-.696-.481-.923l-.087.158c-.098-.172-1.187-1.52-.622-1.205-.105-.098-.245-.159-.396-.439l.115-.133c-.271-.356-.5-.812-.482-.964.145.199.245.236.345.27-.686-1.732-.725-.095-1.244-1.763l.11-.009c-.085-.13-.136-.27-.204-.407l.048-.485c-.493-.581-.138-2.472-.066-3.508.049-.422.412-.87.687-1.574l-.168-.03c.322-.57 1.836-2.291 2.537-2.203.34-.434-.068-.002-.134-.11.746-.787.98-.556 1.484-.697.543-.328-.466.128-.208-.125.939-.244.665-.555 1.89-.679.129.075-.3.116-.408.213.782-.39 2.475-.301 3.575.216 1.275.607 2.71 2.4 2.766 4.088l.065.018c-.033.67.1 1.447-.131 2.16l.156-.338" fill="#f9548f"/></svg>