<svg xmlns="http://www.w3.org/2000/svg" height="32" width="32" version="1"><g fill-rule="evenodd"><path d="M30.102 17.455h-8.135l-2.92 6.56a1.5 1.5 0 0 1-.02.046 1.5 1.5 0 0 1-.072.13 1.5 1.5 0 0 1-.086.123 1.5 1.5 0 0 1-.096.116 1.5 1.5 0 0 1-.107.103 1.5 1.5 0 0 1-.117.094 1.5 1.5 0 0 1-.127.082 1.5 1.5 0 0 1-.135.066 1.5 1.5 0 0 1-.139.055 1.5 1.5 0 0 1-.144.041 1.5 1.5 0 0 1-.149.025 1.5 1.5 0 0 1-.148.01 1.5 1.5 0 0 1-.15-.004 1.5 1.5 0 0 1-.149-.02 1.5 1.5 0 0 1-.146-.034 1.5 1.5 0 0 1-.143-.05 1.5 1.5 0 0 1-.135-.06 1.5 1.5 0 0 1-.13-.076 1.5 1.5 0 0 1-.122-.09 1.5 1.5 0 0 1-.11-.1 1.5 1.5 0 0 1-.102-.109 1.5 1.5 0 0 1-.09-.12 1.5 1.5 0 0 1-.076-.13 1.5 1.5 0 0 1-.065-.134 1.5 1.5 0 0 1-.05-.141 1.5 1.5 0 0 1-.036-.147l-1.988-10.23-1.381 3.103a1.5 1.5 0 0 1-.033.07 1.5 1.5 0 0 1-.076.132 1.5 1.5 0 0 1-.086.123 1.5 1.5 0 0 1-.1.111 1.5 1.5 0 0 1-.11.102 1.5 1.5 0 0 1-.118.091 1.5 1.5 0 0 1-.13.079 1.5 1.5 0 0 1-.134.064 1.5 1.5 0 0 1-.14.053 1.5 1.5 0 0 1-.145.037 1.5 1.5 0 0 1-.149.021 1.5 1.5 0 0 1-.15.008h-9.53a1.5 1.5 0 0 1-.035 0v7.072a5.563 5.563 0 0 0 5.577 5.575h17.052a5.561 5.561 0 0 0 5.575-5.575z" fill="#4f4f4f"/><path d="M30.102 14.455h-9.11a1.5 1.5 0 0 0-.15.008 1.5 1.5 0 0 0-.149.021 1.5 1.5 0 0 0-.144.037 1.5 1.5 0 0 0-.14.051 1.5 1.5 0 0 0-.136.067 1.5 1.5 0 0 0-.128.078 1.5 1.5 0 0 0-.12.09 1.5 1.5 0 0 0-.109.103 1.5 1.5 0 0 0-.1.111 1.5 1.5 0 0 0-.087.124 1.5 1.5 0 0 0-.075.128 1.5 1.5 0 0 0-.033.07l-1.38 3.104L16.251 8.22a1.5 1.5 0 0 0-.035-.147 1.5 1.5 0 0 0-.051-.14 1.5 1.5 0 0 0-.064-.135 1.5 1.5 0 0 0-.079-.129 1.5 1.5 0 0 0-.09-.12 1.5 1.5 0 0 0-.101-.11 1.5 1.5 0 0 0-.111-.1 1.5 1.5 0 0 0-.121-.088 1.5 1.5 0 0 0-.13-.076 1.5 1.5 0 0 0-.136-.063 1.5 1.5 0 0 0-.143-.049 1.5 1.5 0 0 0-.146-.033 1.5 1.5 0 0 0-.149-.02 1.5 1.5 0 0 0-.15-.003 1.5 1.5 0 0 0-.15.01 1.5 1.5 0 0 0-.147.027 1.5 1.5 0 0 0-.144.04 1.5 1.5 0 0 0-.14.054 1.5 1.5 0 0 0-.134.068 1.5 1.5 0 0 0-.127.08 1.5 1.5 0 0 0-.117.094 1.5 1.5 0 0 0-.107.105 1.5 1.5 0 0 0-.096.114 1.5 1.5 0 0 0-.086.125 1.5 1.5 0 0 0-.07.13 1.5 1.5 0 0 0-.02.042l-2.92 6.56H1.934a1.5 1.5 0 0 0-.036.002v2.998a1.5 1.5 0 0 0 .036 0h9.529a1.5 1.5 0 0 0 .15-.008 1.5 1.5 0 0 0 .149-.021 1.5 1.5 0 0 0 .144-.037 1.5 1.5 0 0 0 .14-.053 1.5 1.5 0 0 0 .136-.064 1.5 1.5 0 0 0 .129-.079 1.5 1.5 0 0 0 .119-.091 1.5 1.5 0 0 0 .11-.102 1.5 1.5 0 0 0 .099-.111 1.5 1.5 0 0 0 .086-.123 1.5 1.5 0 0 0 .076-.131 1.5 1.5 0 0 0 .033-.07l1.38-3.104 1.99 10.23a1.5 1.5 0 0 0 .034.147 1.5 1.5 0 0 0 .051.14 1.5 1.5 0 0 0 .065.135 1.5 1.5 0 0 0 .076.13 1.5 1.5 0 0 0 .09.12 1.5 1.5 0 0 0 .101.11 1.5 1.5 0 0 0 .111.1 1.5 1.5 0 0 0 .122.09 1.5 1.5 0 0 0 .13.075 1.5 1.5 0 0 0 .135.06 1.5 1.5 0 0 0 .143.05 1.5 1.5 0 0 0 .146.035 1.5 1.5 0 0 0 .149.02 1.5 1.5 0 0 0 .15.003 1.5 1.5 0 0 0 .148-.01 1.5 1.5 0 0 0 .149-.025 1.5 1.5 0 0 0 .144-.04 1.5 1.5 0 0 0 .14-.056 1.5 1.5 0 0 0 .134-.066 1.5 1.5 0 0 0 .127-.082 1.5 1.5 0 0 0 .117-.094 1.5 1.5 0 0 0 .107-.103 1.5 1.5 0 0 0 .096-.115 1.5 1.5 0 0 0 .086-.124 1.5 1.5 0 0 0 .072-.13 1.5 1.5 0 0 0 .02-.045l2.92-6.56h8.135z" fill="#659fff"/><path d="M7.475 1.898a5.565 5.565 0 0 0-5.577 5.577v6.982a1.5 1.5 0 0 1 .036-.002h8.554l2.92-6.56a1.5 1.5 0 0 1 .02-.042 1.5 1.5 0 0 1 .07-.13 1.5 1.5 0 0 1 .086-.125 1.5 1.5 0 0 1 .096-.114 1.5 1.5 0 0 1 .107-.105 1.5 1.5 0 0 1 .117-.094 1.5 1.5 0 0 1 .127-.08 1.5 1.5 0 0 1 .133-.068 1.5 1.5 0 0 1 .14-.055 1.5 1.5 0 0 1 .145-.04 1.5 1.5 0 0 1 .147-.026 1.5 1.5 0 0 1 .15-.01 1.5 1.5 0 0 1 .15.004 1.5 1.5 0 0 1 .149.02 1.5 1.5 0 0 1 .146.032 1.5 1.5 0 0 1 .143.05 1.5 1.5 0 0 1 .137.062 1.5 1.5 0 0 1 .129.076 1.5 1.5 0 0 1 .12.088 1.5 1.5 0 0 1 .112.1 1.5 1.5 0 0 1 .102.11 1.5 1.5 0 0 1 .09.12 1.5 1.5 0 0 1 .078.129 1.5 1.5 0 0 1 .064.135 1.5 1.5 0 0 1 .05.14 1.5 1.5 0 0 1 .036.147l1.988 10.228 1.381-3.103a1.5 1.5 0 0 1 .033-.07 1.5 1.5 0 0 1 .075-.13 1.5 1.5 0 0 1 .087-.123 1.5 1.5 0 0 1 .1-.11 1.5 1.5 0 0 1 .11-.104 1.5 1.5 0 0 1 .119-.09 1.5 1.5 0 0 1 .128-.078 1.5 1.5 0 0 1 .135-.067 1.5 1.5 0 0 1 .14-.05 1.5 1.5 0 0 1 .145-.038 1.5 1.5 0 0 1 .149-.021 1.5 1.5 0 0 1 .15-.008h9.11v-6.98a5.563 5.563 0 0 0-5.575-5.577z" fill="#4f4f4f"/></g></svg>