<svg xmlns="http://www.w3.org/2000/svg" height="32" width="32"><rect width="28.203" height="28.203" x="1.898" y="1.898" ry="5.575" fill="#834366" fill-rule="evenodd"/><path d="M7.475 1.898a5.563 5.563 0 0 0-5.577 5.575v5.336c.219.205.447.376.645.67.311.461.623 1 1.02 1.517.507.638 1.157.97 1.7 1.389.272.21.517.441.704.744.186.303.314.677.353 1.172.065.937.21 1.794.54 2.47.092.19.237.328.36.487h22.882V7.473a5.561 5.561 0 0 0-5.575-5.575z" fill="#834366" fill-rule="evenodd"/><circle r="8.5" cx="12.934" cy="19.52" class="st11" fill="#ff87a3"/><path d="M30.102 21.258H7.22c.096.124.164.276.283.379.27.234.6.41 1.004.513.95.248 2.003.865 2.978 1.73a11.309 11.309 0 0 1 2.512 3.216c.41.78.991 1.296 1.66 1.63.669.335 1.424.486 2.18.542 1.512.11 3.029-.168 3.861-.168 2.962 0 4.336.056 5.817.125 1.3-.752 2.586-2.463 2.586-4.7z" fill="#db4b73" fill-rule="evenodd"/><path d="M27.516 29.225c-1.48-.07-2.855-.125-5.817-.125-.832 0-2.349.278-3.861.168-.756-.056-1.511-.207-2.18-.541a3.699 3.699 0 0 1-1.66-1.631 11.309 11.309 0 0 0-2.512-3.215c-.975-.866-2.028-1.483-2.978-1.73a2.434 2.434 0 0 1-1.004-.514 2.662 2.662 0 0 1-.645-.866c-.328-.676-.474-1.533-.539-2.47-.039-.495-.167-.87-.353-1.172-.187-.303-.432-.534-.703-.744-.544-.42-1.194-.751-1.702-1.389-.396-.517-.708-1.056-1.019-1.517-.198-.294-.426-.465-.645-.67v11.716a5.565 5.565 0 0 0 5.577 5.577h17.052c1.069 0 2.32-.386 2.99-.877z" fill="#3a2e31" fill-rule="evenodd"/></svg>