<svg xmlns="http://www.w3.org/2000/svg" width="32" height="32" version="1"><rect width="28.203" height="28.203" x="1.898" y="1.898" ry="5.575" fill="#da3e45" fill-rule="evenodd"/><path d="M8.196 6.12a1.686 1.55 0 0 0-1.724 1.55v16.662A1.686 1.55 0 0 0 9 25.674l7.843-4.165 7.843-4.166a1.686 1.55 0 0 0 0-2.686l-7.843-4.165L9 6.326a1.686 1.55 0 0 0-.804-.207z" fill="#fff"/><g transform="matrix(.7058 0 0 .7058 4.354 4.707)" fill="#da3e45" stroke-width="1.417"><rect width="3" height="7" x="11" y="10" rx=".75" ry=".7"/><path d="M7.878 16a.54.878 90 0 0-.26.024.54.878 90 0 0-.5.786l4.622 4.92a.54.878 90 0 0 1.521 0l4.621-4.92a.54.878 90 0 0-.76-.81z"/></g></svg>