<svg xmlns="http://www.w3.org/2000/svg" height="32" width="32" version="1"><rect width="28.203" height="28.203" x="1.898" y="1.898" ry="5.575" fill="#c2352a" fill-rule="evenodd"/><path d="M15.067 15.367l-1.157 1.336-.893.88-.993.675-1.195.637-1.384.521-.867.205-.037.114.05.306.201.51.427.84.416.624.805.854.364.369.327.115 1.483-.013-.88.61-.012.154.528.42.716.42c.927.524 1.761-.51 1.761-.51s-.449.783-.421 1.06h.88l.466-.077.528-.268-.177.28.957.012c1.01-.024 1.678-.615 2.276-1.248l.628-.751.49-.751.365-.688.579-1.363.44-1.108.214-.587h-.209l-1.59-.186c-1.276-.367-1.964-1.321-3.147-2.051l-.981-.612-.78-.471-.112-.166-.023-.065-.043-.028z" fill="#fed24c"/><path d="M22.205 7.003L21.28 8.77l-.8 1.8-.978 1.965-.676 1.616-.75-.32-1.083-.472h-.264l-.226.064-.364.484-1.057 1.413.05.14.113.167.78.47.98.612c1.184.73 1.871 1.684 3.148 2.05l1.59.188h.267l.018-.071.23-1.442.19-1.165.019-.249-.138-.261-.932-.433-.54-.236-.33-.215-.038-.016.044-.072.552-1.388.498-1.225.622-1.656.481-1.172.409-1.045.335-1.011c.2-.756-.682-1.165-1.225-.286z" fill="#fff"/></svg>