<svg xmlns="http://www.w3.org/2000/svg" xmlns:xlink="http://www.w3.org/1999/xlink" height="32" width="32" version="1"><defs><radialGradient xlink:href="#a" id="b" cx="16.393" cy="16.363" fx="16.393" fy="16.363" r="14.102" gradientUnits="userSpaceOnUse" gradientTransform="matrix(2.06284 .0002 -.00017 1.78703 -17.003 -12.596)"/><linearGradient id="a"><stop offset="0" stop-color="#1f505d"/><stop offset="1" stop-color="#1a434e"/></linearGradient></defs><rect width="28.203" height="28.203" x="1.898" y="1.898" ry="5.575" fill="url(#b)" fill-rule="evenodd"/><path d="M15.994 6.762a9.234 9.234 0 0 0-1.05.071l-.703 2.623.001.002a6.772 6.772 0 0 0-1.629.682l-.005-.009-2.356-1.36a9.234 9.234 0 0 0-.788.695 9.234 9.234 0 0 0-.693.794l1.358 2.35.006.004a6.772 6.772 0 0 0-.673 1.632l-.009-.002-2.628.704a9.234 9.234 0 0 0-.065 1.048 9.234 9.234 0 0 0 .07 1.051l2.623.702h.003a6.772 6.772 0 0 0 .681 1.628l-.008.005-1.36 2.357a9.234 9.234 0 0 0 .695.787 9.234 9.234 0 0 0 .794.693l2.35-1.358.004-.006a6.772 6.772 0 0 0 1.631.674l-.002.008.705 2.628a9.234 9.234 0 0 0 1.048.065 9.234 9.234 0 0 0 1.05-.07l.703-2.623-.001-.002a6.772 6.772 0 0 0 1.629-.682l.005.008 2.356 1.36a9.234 9.234 0 0 0 .788-.695 9.234 9.234 0 0 0 .693-.793l-1.358-2.35-.006-.005a6.772 6.772 0 0 0 .673-1.631l.009.002 2.628-.704a9.234 9.234 0 0 0 .065-1.049 9.234 9.234 0 0 0-.07-1.05l-2.623-.703-.003.001a6.772 6.772 0 0 0-.681-1.629l.008-.005 1.36-2.356a9.234 9.234 0 0 0-.695-.788 9.234 9.234 0 0 0-.794-.692l-2.35 1.357-.004.006a6.772 6.772 0 0 0-1.632-.673l.003-.009-.705-2.628a9.234 9.234 0 0 0-1.048-.065z" fill="#20c8ca" paint-order="stroke fill markers"/><path d="M16.322 11.075A4.925 4.925 0 0 0 11.398 16a4.925 4.925 0 0 0 4.924 4.925 4.925 4.925 0 0 0 3.481-1.444l-1.306-1.306a3.078 3.078 0 0 1-2.175.903A3.078 3.078 0 0 1 13.244 16a3.078 3.078 0 0 1 3.078-3.078 3.078 3.078 0 0 1 2.175.903l1.306-1.306a4.925 4.925 0 0 0-3.48-1.444z" fill="#eee" paint-order="stroke fill markers"/></svg>