<?xml version="1.0" encoding="UTF-8" standalone="no"?>
<svg
   xmlns:dc="http://purl.org/dc/elements/1.1/"
   xmlns:cc="http://creativecommons.org/ns#"
   xmlns:rdf="http://www.w3.org/1999/02/22-rdf-syntax-ns#"
   xmlns:svg="http://www.w3.org/2000/svg"
   xmlns="http://www.w3.org/2000/svg"
   xmlns:xlink="http://www.w3.org/1999/xlink"
   xmlns:sodipodi="http://sodipodi.sourceforge.net/DTD/sodipodi-0.dtd"
   xmlns:inkscape="http://www.inkscape.org/namespaces/inkscape"
   height="32"
   width="32"
   version="1"
   id="svg37"
   sodipodi:docname="compton.svg"
   inkscape:version="0.92.4 5da689c313, 2019-01-14">
  <metadata
     id="metadata41">
    <rdf:RDF>
      <cc:Work
         rdf:about="">
        <dc:format>image/svg+xml</dc:format>
        <dc:type
           rdf:resource="http://purl.org/dc/dcmitype/StillImage" />
      </cc:Work>
    </rdf:RDF>
  </metadata>
  <sodipodi:namedview
     pagecolor="#ffffff"
     bordercolor="#666666"
     borderopacity="1"
     objecttolerance="10"
     gridtolerance="10"
     guidetolerance="10"
     inkscape:pageopacity="0"
     inkscape:pageshadow="2"
     inkscape:window-width="1232"
     inkscape:window-height="724"
     id="namedview39"
     showgrid="false"
     inkscape:zoom="12"
     inkscape:cx="18.164634"
     inkscape:cy="16.166667"
     inkscape:window-x="183"
     inkscape:window-y="134"
     inkscape:window-maximized="0"
     inkscape:current-layer="g833" />
  <defs
     id="defs7">
    <linearGradient
       inkscape:collect="always"
       id="linearGradient824">
      <stop
         style="stop-color:#1f505d;stop-opacity:1"
         offset="0"
         id="stop820" />
      <stop
         style="stop-color:#1a434e;stop-opacity:1"
         offset="1"
         id="stop822" />
    </linearGradient>
    <linearGradient
       id="linearGradient4924"
       y2="20.316"
       gradientUnits="userSpaceOnUse"
       y1="18.858"
       x2="16.213"
       x1="12.897"
       gradientTransform="matrix(0.77163247,0,0,0.77163247,3.6538805,3.2680642)">
      <stop
         offset="0"
         id="stop2" />
      <stop
         stop-opacity="0"
         offset="1"
         id="stop4" />
    </linearGradient>
    <radialGradient
       inkscape:collect="always"
       xlink:href="#linearGradient824"
       id="radialGradient828"
       cx="16.392756"
       cy="16.362625"
       fx="16.392756"
       fy="16.362625"
       r="14.101694"
       gradientUnits="userSpaceOnUse"
       gradientTransform="matrix(2.0628363,2.019856e-4,-1.7499358e-4,1.7870342,-17.002582,-12.595779)" />
  </defs>
  <g
     id="g828">
    <rect
       style="opacity:1;fill:url(#radialGradient828);fill-opacity:1;fill-rule:evenodd;stroke:none;stroke-width:1.03534329;stroke-linecap:round;stroke-linejoin:bevel;stroke-miterlimit:4;stroke-dasharray:none;stroke-dashoffset:0;stroke-opacity:1"
       id="rect4497-3"
       width="28.203388"
       height="28.203388"
       x="1.8983059"
       y="1.8983059"
       ry="5.575182"
       inkscape:highlight-color="525360639" />
    <g
       id="g837"
       transform="translate(-0.04011683,-0.95387444)">
      <path
         inkscape:connector-curvature="0"
         d="m 16.034121,7.7161488 a 9.234126,9.2340022 0 0 0 -1.050844,0.070939 l -0.702163,2.6223332 0.0013,0.0024 a 6.7716924,6.7716015 0 0 0 -1.629207,0.681714 l -0.0048,-0.0084 -2.356672,-1.3598156 A 9.234126,9.2340022 0 0 0 9.5041196,10.420289 9.234126,9.2340022 0 0 0 8.8115611,11.213858 l 1.3574789,2.350607 0.006,0.0038 a 6.7716924,6.7716015 0 0 0 -0.6733795,1.631574 l -0.00836,-0.0024 -2.6283388,0.704552 A 9.234126,9.2340022 0 0 0 6.8,16.950354 9.234126,9.2340022 0 0 0 6.870937,18.001182 l 2.622367,0.702154 0.00241,-0.0012 a 6.7716924,6.7716015 0 0 0 0.681726,1.629184 l -0.0084,0.0048 -1.3598806,2.356578 a 9.234126,9.2340022 0 0 0 0.6949599,0.787537 9.234126,9.2340022 0 0 0 0.7935817,0.69255 l 2.35064,-1.357461 0.0036,-0.006 a 6.7716924,6.7716015 0 0 0 1.631608,0.673344 l -0.0024,0.0084 0.704562,2.628304 a 9.234126,9.2340022 0 0 0 1.048436,0.06478 9.234126,9.2340022 0 0 0 1.050844,-0.07094 l 0.702162,-2.622333 -0.0012,-0.0024 a 6.7716924,6.7716015 0 0 0 1.62921,-0.681647 l 0.0048,0.0084 2.356611,1.35986 a 9.234126,9.2340022 0 0 0 0.787547,-0.694951 9.234126,9.2340022 0 0 0 0.69256,-0.793569 l -1.357478,-2.350608 -0.006,-0.0038 a 6.7716924,6.7716015 0 0 0 0.673353,-1.631588 l 0.0084,0.0024 2.628339,-0.704556 a 9.234126,9.2340022 0 0 0 0.06493,-1.048428 9.234126,9.2340022 0 0 0 -0.07094,-1.05083 l -2.622368,-0.702152 -0.0024,0.0012 a 6.7716924,6.7716015 0 0 0 -0.68178,-1.62915 l 0.0084,-0.0048 1.359876,-2.356577 a 9.234126,9.2340022 0 0 0 -0.694933,-0.7876 9.234126,9.2340022 0 0 0 -0.793578,-0.6925492 l -2.35064,1.3574602 -0.0038,0.006 a 6.7716924,6.7716015 0 0 0 -1.631549,-0.673329 l 0.0024,-0.0084 -0.704564,-2.6283487 A 9.234126,9.2340022 0 0 0 16.033961,7.716 Z"
         style="fill:#20c8ca;stroke-width:0.6156038;paint-order:stroke fill markers"
         id="path21" />
    </g>
    <g
       id="g833"
       transform="translate(0.28827782,-0.95015107)">
      <path
         inkscape:connector-curvature="0"
         d="m 16.034121,12.02535 a 4.9248672,4.9248012 0 0 0 -4.924867,4.924801 4.9248672,4.9248012 0 0 0 4.924867,4.924801 4.9248672,4.9248012 0 0 0 3.480835,-1.444014 l -1.305767,-1.305749 a 3.0780419,3.0780007 0 0 1 -2.175068,0.902963 3.0780419,3.0780007 0 0 1 -3.078041,-3.078001 3.0780419,3.0780007 0 0 1 3.078041,-3.078001 3.0780419,3.0780007 0 0 1 2.175068,0.902962 l 1.305767,-1.305748 A 4.9248672,4.9248012 0 0 0 16.034121,12.02535 Z"
         style="fill:#eeeeee;stroke-width:0.6156038;paint-order:stroke fill markers"
         id="path25" />
    </g>
  </g>
</svg>
