<svg xmlns="http://www.w3.org/2000/svg" height="32" width="32" version="1"><rect width="28.203" height="28.203" x="1.898" y="1.898" ry="5.575" fill="#e94a63" fill-rule="evenodd"/><path d="M22.997 25.46a2.492 2.492 0 0 0 1.842-2.427c.004-1.317-.947-2.39-2.246-2.537l-.252-.028-1.997-1.996-1.996-1.995-.08.086a.356.356 0 0 0-.081.11c0 .015.058.102.13.196.188.246.256.516.23.913-.035.533-.185.768-.98 1.526l-.146.14-.235-.06c-.32-.082-.632-.029-.849.144-.037.03.348.437 1.695 1.787l1.743 1.747.026.275c.058.64.423 1.281.96 1.687.318.24.584.367.934.446l.334.076c.146.035.716-.018.968-.09zm-.987-1.445a1.115 1.115 0 0 1-.559-1.777c.217-.274.488-.397.875-.397.24 0 .33.017.471.09.225.114.408.305.532.554.087.174.098.233.086.483-.01.208-.039.332-.106.465a1.25 1.25 0 0 1-.615.552c-.186.066-.517.081-.684.03zM13.08 16.09c.118-.248.13-.517.043-.893-.025-.105-.002-.136.394-.52.467-.453.734-.615 1.136-.686.37-.065.79.042 1.103.28.127.098.134.099.205.035.04-.037.074-.085.073-.107 0-.023-.305-.344-.677-.715-.373-.37-.766-.764-.874-.875l-.196-.201.043-.183c.216-.925.192-1.485-.104-2.445-.055-.176-.316-.657-.495-.91-.573-.81-1.474-1.405-2.41-1.593-.468-.094-.854-.12-1.18-.08-.404.05-.862.146-.862.18 0 .014.485.51 1.078 1.101.594.592 1.094 1.103 1.112 1.135.02.037.015.093-.013.149-.025.05-.085.182-.132.294a35.898 35.898 0 0 0-.387.904l-.2.476-.645.277c-.356.151-.73.314-.832.362-.102.048-.22.097-.26.11-.061.02-.278-.18-1.188-1.09a45.657 45.657 0 0 0-1.133-1.113c-.027 0-.099.263-.152.556-.055.308-.053 1.04.004 1.323.24 1.194.85 2.088 1.866 2.736.118.075.222.136.231.136.01 0 .105.041.213.091a4.16 4.16 0 0 0 1.653.355c.273 0 .855-.086 1.142-.167.058-.017.2.105.686.592.337.338.631.614.655.614.023 0 .07-.057.103-.128z" fill="#fff"/><path d="M10.261 25.722c.19-.087.35-.243 4.054-3.915l1.159-1.149-.022-.28c-.046-.61.276-1.148.86-1.434.201-.1.26-.11.604-.112l.382-.002.274-.272c.365-.363.448-.527.447-.89-.001-.343-.055-.458-.358-.754-.119-.117-.217-.225-.217-.241 0-.016 1.165-1.193 2.59-2.615l2.589-2.585.408-.212c1.18-.614 1.21-.632 1.294-.795.07-.135.282-.52.358-.652.036-.062.145-.262.244-.446.098-.184.246-.45.329-.594.083-.143.175-.306.205-.363l.053-.104-.643-.644-.643-.644-.209.12c-.114.067-.322.182-.46.258l-.39.215-.38.21c-.132.071-.363.203-.513.29a2.53 2.53 0 0 1-.297.161c-.03 0-.063.052-.264.427-.088.163-.189.347-.224.408-.035.062-.152.279-.259.483l-.194.371-2.567 2.57a236.845 236.845 0 0 1-2.586 2.57 2.76 2.76 0 0 1-.26-.228c-.294-.276-.471-.363-.742-.363-.321.001-.55.119-.895.462l-.298.297.024.208a1.47 1.47 0 0 1-.366 1.135c-.28.318-.63.463-1.122.462-.326 0-.34.004-.468.119-.073.065-1.206 1.179-2.519 2.475-2.189 2.163-2.394 2.377-2.491 2.589-.127.276-.138.524-.036.759.1.226 2.6 2.71 2.788 2.77.2.063.55.033.761-.065z" fill="#a43445"/></svg>