<svg xmlns="http://www.w3.org/2000/svg" xmlns:xlink="http://www.w3.org/1999/xlink" height="32" width="32" version="1"><defs><radialGradient xlink:href="#a" id="b" cx="16" cy="16" fx="16" fy="16" r="14.102" gradientUnits="userSpaceOnUse"/><linearGradient id="a"><stop offset="0" stop-color="#b49bce"/><stop offset="1" stop-color="#8b68b6"/></linearGradient></defs><rect ry="5.575" y="1.898" x="1.898" height="28.203" width="28.203" fill="url(#b)" fill-rule="evenodd"/><path d="M14.83 17.268v2.486H12.8c-.201 0-.404.006-.609.008h-.095c-.144 0-.29-.004-.432-.017a2.81 2.81 0 0 1-.43-.115 2.763 2.763 0 0 1-.314-.176l-.062-.044a3.68 3.68 0 0 1-.162-.147 3.523 3.523 0 0 1-.147-.159l-.043-.064a2.667 2.667 0 0 1-.174-.308 2.9 2.9 0 0 1-.12-.436v-.002a5.8 5.8 0 0 1-.025-.503v-.002c-.004-.35.015-.701.015-1.042h.23c.055 0 .099.235.099.527v.96c0-.214.045-.387.101-.387h.416c.056 0 .1.173.1.386V15.24c0-.534.045-.966.1-.966h.416c.056 0 .101.432.101.966v2.03c0-.29.046-.527.1-.527h.415c.056 0 .1.236.1.528v1.803c0-.145.045-.262.099-.262h.416c.056 0 .099.117.099.262v-2.128c0-.316.045-.573.101-.573h.416c.037 0 .068.114.085.282v-.67c0-.396.045-.714.101-.714h.416c.056 0 .101.32.101.713v1.285c0-.292.046-.528.1-.528h.415c.056.002.101.238.101.528zM21.823 17.84a.902.902 0 0 0-.03.228c0 .077-.003.151-.01.228-.028.146-.066.29-.117.43-.052.107-.11.21-.176.312-.015.02-.029.043-.044.064-.047.054-.095.11-.146.161-.052.052-.106.098-.16.145l-.066.046a2.763 2.763 0 0 1-.314.176 2.85 2.85 0 0 1-.428.115 4.53 4.53 0 0 1-.375.015h-.099c-.163 0-.325-.004-.484-.004h-3.991v-5.493c0-.534.045-.966.099-.966h.416c.055 0 .099.432.099.966v3.518c0-.25.045-.451.101-.451h.416c.056 0 .1.202.1.45v.813c0-.184.045-.333.1-.333h.416c.056 0 .102.15.102.333v.608c0-.134.045-.244.099-.244h.416c.055 0 .099.11.099.244v-3.557c0-.533.045-.965.1-.965h.415c.056 0 .1.432.1.965v1.624c0-.292.045-.528.1-.528h.416c.056 0 .101.236.101.528v1.803c0-.145.046-.262.1-.262h.415c.056 0 .102.117.102.262v-2.126c0-.316.045-.573.099-.573h.416c.037 0 .068.114.085.282v-.67c0-.396.045-.714.099-.714h.415c.056 0 .1.32.1.713v1.285c0-.292.045-.528.101-.528h.416c.056 0 .1.236.1.528v.595c.01-.014.022-.024.034-.024h.263z" class="st1" opacity=".4" fill="#fff"/><path d="M23.688 18.066c0 .031 0 .064-.002.097a3.634 3.634 0 0 1-.453 1.65c-.153.28-.345.532-.564.753a3.695 3.695 0 0 1-2.43 1.077 5.181 5.181 0 0 1-.253.007h-.095c-.134 0-.269-.004-.401-.004h-7.189c-.428 0-.844-.004-1.268-.103a3.403 3.403 0 0 1-1.358-.669 3.734 3.734 0 0 1-1.193-1.708c-.158-.459-.172-.932-.174-1.41v-3.764c0-.99.38-1.967 1.108-2.651a3.666 3.666 0 0 1 2.525-.991h8.008c.707 0 1.404.143 2.017.517a3.64 3.64 0 0 1 1.726 3.065c0 .023 0 .047-.002.07-.033.492-.453.85-.936.877H22.7c-.015 0-.027 0-.042-.002a.89.89 0 0 1-.575-.275.989.989 0 0 1-.285-.672v-.017c-.002-.07-.004-.14-.01-.209a2.627 2.627 0 0 0-.12-.432 2.53 2.53 0 0 0-.217-.374 2.159 2.159 0 0 0-.147-.16c-.052-.051-.108-.099-.162-.146a2.71 2.71 0 0 0-.374-.22 2.644 2.644 0 0 0-.434-.117 6.094 6.094 0 0 0-.435-.019h-.095c-.202 0-.405.008-.606.008h-6.576c-.16 0-.323-.004-.484-.004h-.075c-.134 0-.269.004-.401.015a2.622 2.622 0 0 0-.432.118c-.108.051-.211.11-.31.175l-.063.044c-.055.047-.11.095-.16.149-.053.051-.1.107-.15.161l-.043.062c-.064.1-.122.2-.174.308-.052.14-.09.284-.12.43a3.65 3.65 0 0 0-.01.213v.013c-.002.08-.002.161 0 .242v2.572c0 .344-.019.693-.015 1.043v.002c.002.17.009.337.025.502v.003a2.9 2.9 0 0 0 .12.436 2.666 2.666 0 0 0 .217.372c.048.054.095.108.147.16.052.051.108.099.161.146l.062.044c.102.066.207.124.315.175.14.05.283.09.43.116a5 5 0 0 0 .432.017h.095c.205 0 .408-.008.608-.008h6.573c.16 0 .32.004.484.004h.1c.125 0 .25-.004.374-.015.146-.027.29-.066.428-.116a2.763 2.763 0 0 0 .38-.221c.054-.048.108-.095.16-.145.051-.051.099-.105.146-.161a2.57 2.57 0 0 0 .22-.376c.051-.141.09-.284.117-.43.007-.077.01-.152.01-.228a.936.936 0 0 1 .285-.67c.162-.155.38-.257.617-.275l.034-.002h.01c.027-.002.056 0 .083 0 .48.035.874.484.87.951z" class="st2" fill="#efecff"/></svg>