<svg xmlns="http://www.w3.org/2000/svg" height="32" width="32" version="1"><rect width="28.203" height="28.203" x="1.898" y="1.898" ry="5.575" fill="#c2352a" fill-rule="evenodd"/><g transform="translate(45.78 -2.029)"><rect ry=".57" rx=".533" y="10.028" x="-22.228" height="15.972" width="3.194" fill="#fff"/><rect width="3.194" height="15.972" x="-31.013" y="10.028" rx=".533" ry=".57" fill="#fff"/><rect ry=".57" rx=".533" y="10.028" x="-40.596" height="15.972" width="3.194" fill="#fff"/><rect transform="rotate(90)" width="3.194" height="7.986" x="9.949" y="32.62" rx=".533" ry=".57" fill="#d8564d"/><rect ry=".57" rx=".533" y="32.62" x="22.914" height="7.986" width="3.194" transform="rotate(90)" fill="#d8564d"/><path d="M-30.302 9.97a.79.656 0 0 0-.684.984l2.64 3.794 2.64 3.794a.79.656 0 0 0 .646.328.79.656 0 0 0 .722-.328l2.639-3.794 2.639-3.794a.79.656 0 0 0-.684-.984h-5.279z" fill="#d8564d"/></g></svg>