<?xml version="1.0" encoding="UTF-8" standalone="no"?>
<svg
   xmlns:dc="http://purl.org/dc/elements/1.1/"
   xmlns:cc="http://creativecommons.org/ns#"
   xmlns:rdf="http://www.w3.org/1999/02/22-rdf-syntax-ns#"
   xmlns:svg="http://www.w3.org/2000/svg"
   xmlns="http://www.w3.org/2000/svg"
   xmlns:xlink="http://www.w3.org/1999/xlink"
   xmlns:sodipodi="http://sodipodi.sourceforge.net/DTD/sodipodi-0.dtd"
   xmlns:inkscape="http://www.inkscape.org/namespaces/inkscape"
   height="32"
   width="32"
   version="1"
   id="svg22"
   sodipodi:docname="conky-logomark-violet.svg"
   inkscape:version="0.92.4 5da689c313, 2019-01-14">
  <metadata
     id="metadata28">
    <rdf:RDF>
      <cc:Work
         rdf:about="">
        <dc:format>image/svg+xml</dc:format>
        <dc:type
           rdf:resource="http://purl.org/dc/dcmitype/StillImage" />
      </cc:Work>
    </rdf:RDF>
  </metadata>
  <defs
     id="defs26">
    <linearGradient
       inkscape:collect="always"
       id="linearGradient908">
      <stop
         style="stop-color:#b49bce;stop-opacity:1"
         offset="0"
         id="stop904" />
      <stop
         style="stop-color:#8b68b6;stop-opacity:1"
         offset="1"
         id="stop906" />
    </linearGradient>
    <radialGradient
       inkscape:collect="always"
       xlink:href="#linearGradient908"
       id="radialGradient910"
       cx="16"
       cy="16"
       fx="16"
       fy="16"
       r="14.101694"
       gradientUnits="userSpaceOnUse" />
  </defs>
  <sodipodi:namedview
     pagecolor="#ffffff"
     bordercolor="#666666"
     borderopacity="1"
     objecttolerance="10"
     gridtolerance="10"
     guidetolerance="10"
     inkscape:pageopacity="0"
     inkscape:pageshadow="2"
     inkscape:window-width="742"
     inkscape:window-height="635"
     id="namedview24"
     showgrid="false"
     inkscape:zoom="11.8125"
     inkscape:cx="16"
     inkscape:cy="16"
     inkscape:current-layer="svg22"
     inkscape:window-x="615"
     inkscape:window-y="113"
     inkscape:window-maximized="0"
     showguides="true"
     inkscape:guide-bbox="true"
     inkscape:snap-global="true" />
  <g
     id="g925">
    <rect
       ry="5.575182"
       y="1.8983059"
       x="1.8983059"
       height="28.203388"
       width="28.203388"
       id="rect4497-3"
       style="opacity:1;fill:url(#radialGradient910);fill-opacity:1;fill-rule:evenodd;stroke:none;stroke-width:1.03534329;stroke-linecap:round;stroke-linejoin:bevel;stroke-miterlimit:4;stroke-dasharray:none;stroke-dashoffset:0;stroke-opacity:1" />
    <g
       id="g918"
       transform="translate(-0.09249852,0.05002434)">
      <path
         style="opacity:0.4;fill:#ffffff;fill-opacity:1;stroke-width:0.02068122"
         inkscape:connector-curvature="0"
         d="m 14.922958,17.217716 v 2.485844 h -2.030927 c -0.200611,0 -0.40329,0.0062 -0.608038,0.0083 -0.02689,0 -0.05377,0 -0.08273,0 h -0.01241 c -0.144772,0 -0.289542,-0.0041 -0.432245,-0.01655 0,0 0,0 0,0 -0.146839,-0.02689 -0.289541,-0.06618 -0.430176,-0.115813 -0.107544,-0.0517 -0.21302,-0.109609 -0.314359,-0.175787 -0.02068,-0.01448 -0.04136,-0.02895 -0.06204,-0.04343 -0.05584,-0.04757 -0.109612,-0.0972 -0.161316,-0.146835 -0.0517,-0.0517 -0.09927,-0.105472 -0.146839,-0.159243 -0.01448,-0.02068 -0.02895,-0.04343 -0.04343,-0.06411 -0.06618,-0.09927 -0.122021,-0.202673 -0.173725,-0.308146 -0.0517,-0.142698 -0.091,-0.287464 -0.119953,-0.436367 v -0.0021 c -0.01654,-0.165447 -0.02275,-0.33503 -0.02482,-0.502545 v -0.0021 c -0.0041,-0.349507 0.01448,-0.701082 0.01448,-1.042317 h 0.229565 c 0.05584,0 0.09927,0.235762 0.09927,0.527363 v 0.959594 c 0,-0.213014 0.0455,-0.386733 0.101339,-0.386733 h 0.415699 c 0.05584,0 0.09927,0.173719 0.09927,0.386733 V 15.18892 c 0,-0.533567 0.0455,-0.965798 0.101339,-0.965798 h 0.415699 c 0.05584,0 0.10134,0.432231 0.10134,0.965798 v 2.030864 c 0,-0.291601 0.0455,-0.527363 0.09927,-0.527363 h 0.415699 c 0.05584,0 0.09927,0.235762 0.09927,0.527363 v 1.803374 c 0,-0.144766 0.0455,-0.262647 0.09927,-0.262647 h 0.415699 c 0.05584,0 0.09927,0.117881 0.09927,0.262647 v -2.128064 c 0,-0.316418 0.0455,-0.572861 0.10134,-0.572861 h 0.415699 c 0.03723,0 0.06825,0.113745 0.08479,0.28126 v -0.670061 c 0,-0.395005 0.0455,-0.713491 0.10134,-0.713491 h 0.415699 c 0.05584,0 0.101339,0.320554 0.101339,0.713491 v 1.284284 c 0,-0.291601 0.0455,-0.527363 0.09927,-0.527363 h 0.415699 c 0.05584,0.0021 0.10134,0.23783 0.10134,0.527363 z"
         class="st1"
         id="XMLID_790_" />
      <path
         style="opacity:0.4;fill:#ffffff;fill-opacity:1;stroke-width:0.02068122"
         inkscape:connector-curvature="0"
         d="m 21.915384,17.790577 c -0.01861,0.07238 -0.02895,0.146834 -0.02895,0.22749 0,0.07652 -0.0041,0.15097 -0.01034,0.227489 -0.02895,0.146835 -0.06618,0.289533 -0.117883,0.430163 -0.0517,0.107541 -0.109612,0.210945 -0.175794,0.312282 -0.01448,0.02068 -0.02895,0.04343 -0.04343,0.06411 -0.04757,0.05377 -0.09514,0.109609 -0.146839,0.161311 -0.0517,0.0517 -0.105476,0.0972 -0.159248,0.144767 -0.02068,0.01448 -0.04343,0.03102 -0.06618,0.0455 -0.101338,0.06618 -0.206815,0.124085 -0.314357,0.175787 -0.140635,0.04963 -0.283336,0.08893 -0.428106,0.115813 0,0 0,0 0,0 -0.12409,0.01034 -0.250247,0.01448 -0.374336,0.01448 h -0.09927 c -0.163384,0 -0.3247,-0.0041 -0.483948,-0.0041 h -3.991537 v -5.492846 c 0,-0.533568 0.0455,-0.965798 0.09927,-0.965798 h 0.415698 c 0.05584,0 0.09927,0.43223 0.09927,0.965798 v 3.51782 c 0,-0.250239 0.0455,-0.450843 0.101339,-0.450843 h 0.415699 c 0.05584,0 0.09927,0.202672 0.09927,0.450843 v 0.812759 c 0,-0.18406 0.0455,-0.332962 0.101339,-0.332962 h 0.415699 c 0.05584,0 0.10134,0.148902 0.10134,0.332962 v 0.608019 c 0,-0.134426 0.0455,-0.244035 0.09927,-0.244035 h 0.415699 c 0.05584,0 0.09927,0.109609 0.09927,0.244035 v -3.557115 c 0,-0.533567 0.0455,-0.965797 0.09927,-0.965797 h 0.415699 c 0.05584,0 0.09927,0.43223 0.09927,0.965797 v 1.623451 c 0,-0.291601 0.0455,-0.527363 0.10134,-0.527363 h 0.415699 c 0.05584,0 0.101339,0.235762 0.101339,0.527363 v 1.803374 c 0,-0.144766 0.0455,-0.262647 0.09927,-0.262647 h 0.415699 c 0.05584,0 0.101339,0.117881 0.101339,0.262647 v -2.125996 c 0,-0.316418 0.0455,-0.572861 0.09927,-0.572861 h 0.415699 c 0.03723,0 0.06825,0.113745 0.08479,0.28126 v -0.670061 c 0,-0.395005 0.0455,-0.713491 0.09927,-0.713491 h 0.415697 c 0.05584,0 0.09927,0.320554 0.09927,0.713491 v 1.284284 c 0,-0.291601 0.0455,-0.527363 0.10134,-0.527363 h 0.415699 c 0.05584,0 0.09927,0.235762 0.09927,0.527363 v 0.59561 c 0.01034,-0.01448 0.02275,-0.02482 0.03516,-0.02482 h 0.262656 z"
         class="st1"
         id="XMLID_788_" />
      <path
         style="fill:#efecff;fill-opacity:1;stroke-width:0.02068122"
         inkscape:connector-curvature="0"
         d="m 23.780861,18.016 c 0,0.03102 0,0.06411 -0.0021,0.0972 -0.01861,0.579065 -0.171657,1.143654 -0.452926,1.650336 -0.153043,0.279192 -0.345381,0.531499 -0.564606,0.752785 -0.109612,0.111677 -0.225428,0.215081 -0.347449,0.308145 -0.589424,0.459116 -1.321551,0.732104 -2.082632,0.76933 -0.08479,0.0041 -0.16752,0.0062 -0.252314,0.0062 h -0.09514 c -0.13443,0 -0.26886,-0.0041 -0.401222,-0.0041 h -7.188904 c -0.428107,0 -0.843806,-0.0041 -1.267778,-0.103405 C 10.621197,21.374578 10.159999,21.140884 9.7670498,20.824466 9.6408924,20.72313 9.5188713,20.611453 9.407191,20.493572 9.0349233,20.102703 8.7474499,19.631178 8.573725,19.116224 8.4165453,18.657108 8.4020682,18.183515 8.4,17.705786 c 0,-0.09513 0,-0.190264 0,-0.283328 v -1.824055 c 0,-0.49841 0,-0.994752 0,-1.493161 0,-0.05377 0,-0.109609 0,-0.163379 0,-0.990615 0.3805404,-1.966754 1.1085306,-2.651292 0.6886954,-0.645244 1.5821374,-0.990615 2.5252164,-0.990615 0.322632,0 0.645264,0 0.967896,0 h 7.039996 c 0.707309,0 1.404276,0.142698 2.01645,0.517023 1.063031,0.653516 1.716568,1.817851 1.726909,3.064909 0,0.02275 0,0.04757 -0.0021,0.07032 -0.03309,0.492206 -0.452925,0.849985 -0.936873,0.87687 -0.0021,0 -0.0062,0 -0.0083,0 -0.01448,0 -0.03102,0 -0.0455,0 -0.01448,0 -0.02689,0 -0.04136,-0.0021 v 0 c -0.221293,-0.01448 -0.423972,-0.119949 -0.574947,-0.275056 -0.173725,-0.177856 -0.283337,-0.42189 -0.285405,-0.672129 v -0.01655 c -0.0021,-0.07031 -0.0041,-0.14063 -0.01034,-0.208877 -0.02895,-0.146834 -0.06618,-0.291601 -0.119953,-0.432231 -0.0517,-0.10754 -0.107544,-0.210945 -0.173725,-0.310213 -0.01448,-0.02068 -0.02895,-0.04136 -0.04343,-0.06411 -0.04757,-0.05584 -0.09513,-0.109609 -0.146839,-0.159243 -0.0517,-0.0517 -0.107544,-0.09927 -0.161316,-0.146834 -0.02068,-0.01448 -0.04136,-0.02895 -0.06411,-0.04343 -0.09927,-0.06618 -0.204747,-0.124086 -0.310223,-0.175788 -0.140635,-0.0517 -0.287474,-0.091 -0.434312,-0.117881 -0.144771,-0.01241 -0.289542,-0.01655 -0.434313,-0.01861 h -0.09513 c -0.202679,0 -0.405358,0.0083 -0.605969,0.0083 h -6.57673 c -0.159248,0 -0.322632,-0.0041 -0.483948,-0.0041 h -0.0021 c -0.02275,0 -0.04757,0 -0.07239,0 -0.13443,0 -0.26886,0.0041 -0.401222,0.01448 -0.146839,0.02689 -0.29161,0.06618 -0.432244,0.117881 -0.107544,0.0517 -0.210952,0.109609 -0.310223,0.175788 -0.02068,0.01448 -0.04136,0.02895 -0.06204,0.04343 -0.05584,0.04757 -0.109612,0.09513 -0.161316,0.148902 -0.0517,0.0517 -0.09927,0.107541 -0.148907,0.161311 -0.01448,0.02068 -0.02895,0.04136 -0.04343,0.06204 -0.06411,0.09927 -0.122022,0.200605 -0.173725,0.308145 -0.0517,0.14063 -0.091,0.283329 -0.119953,0.430163 -0.0062,0.07032 -0.0083,0.142698 -0.01034,0.213013 0,0.0041 0,0.0083 0,0.01241 -0.0021,0.08066 -0.0021,0.161311 0,0.241966 v 0.01034 c 0,0.05791 0,0.115813 0,0.173719 v 2.388644 c 0,0.343303 -0.01861,0.692811 -0.01448,1.042318 v 0.0021 c 0.0021,0.169583 0.0083,0.337099 0.02482,0.502546 v 0.0021 c 0.02895,0.148902 0.06825,0.293669 0.119953,0.436367 0.0517,0.105472 0.107544,0.208877 0.173725,0.308145 0.01448,0.02275 0.02895,0.04343 0.04343,0.06411 0.04757,0.05377 0.09514,0.107541 0.146839,0.159243 0.0517,0.0517 0.107544,0.09927 0.161316,0.146834 0.02068,0.01448 0.04136,0.02895 0.06204,0.04343 0.10134,0.06618 0.206816,0.124086 0.31436,0.175788 0.140634,0.04963 0.283337,0.08893 0.430176,0.115813 0,0 0,0 0,0 0.142702,0.01241 0.287473,0.01655 0.432244,0.01655 h 0.01241 c 0.02689,0 0.05377,0 0.08273,0 0.204747,0 0.407426,-0.0083 0.608037,-0.0083 h 6.572594 c 0.159248,0 0.320564,0.0041 0.483948,0.0041 h 0.09927 c 0.126158,0 0.250247,-0.0041 0.374336,-0.01448 0,0 0,0 0,0 0.146839,-0.02689 0.289542,-0.06618 0.428108,-0.115813 0.107544,-0.0517 0.21302,-0.109609 0.314359,-0.175788 0.02275,-0.01448 0.04343,-0.02895 0.06618,-0.0455 0.05377,-0.04757 0.107544,-0.09513 0.159248,-0.144766 0.0517,-0.0517 0.09927,-0.105473 0.146839,-0.161311 0.01448,-0.02068 0.02895,-0.04136 0.04343,-0.06411 0.06618,-0.09927 0.12409,-0.204741 0.175793,-0.312282 0.0517,-0.14063 0.091,-0.283328 0.117885,-0.430162 0.0062,-0.07652 0.01034,-0.150971 0.01034,-0.22749 0,-0.07859 0.01034,-0.155107 0.02895,-0.22749 0.04343,-0.171652 0.13443,-0.32469 0.256451,-0.442571 0.161316,-0.155107 0.378472,-0.256444 0.61631,-0.275056 0.01034,0 0.02275,-0.0021 0.03309,-0.0021 v 0 c 0.0041,0 0.0083,0 0.01034,0 0.02689,-0.0021 0.05584,0 0.08273,0 0.479812,0.03516 0.87483,0.483933 0.870693,0.951321 z"
         class="st2"
         id="XMLID_798_" />
    </g>
  </g>
</svg>
