<svg xmlns="http://www.w3.org/2000/svg" height="32" width="32" version="1"><rect width="28.203" height="28.203" x="1.898" y="1.898" ry="5.575" fill="#a559d6" fill-rule="evenodd"/><path d="M11.41 8.79a4.006 4.006 0 1 0 0 8.012 4.006 4.006 0 0 0 0-8.013zM5.8 23.21h11.217c0-4.005-2.4-4.806-5.606-4.806-3.207 0-5.61.8-5.61 4.807z" fill="#f9f9f9"/><path d="M18.199 21.402v1.782h1.782l4.5-4.5-1.782-1.782zm7.858-4.289a.472.472 0 0 0 0-.674l-1.113-1.114a.472.472 0 0 0-.674 0l-.931.937 1.782 1.782z" fill="#fff"/></svg>