<svg xmlns="http://www.w3.org/2000/svg" height="32" width="32" version="1"><path d="M14 8.73v1l6.09 3.48.91-.48zm0 2.1c-6.572 0-12 5.329-12 11.9 0 .156.021.306.027.461.29-6.32 5.582-11.36 11.973-11.36zm10.584 2.121c-.952-.002-1.817 1.478-1.498 2.63.187-.86.812-1.632 1.498-1.63.176 0 .353.051.527.164a11.877 11.877 0 0 1 4.862 9.155c.008-.18.027-.358.027-.54 0-3.95-1.926-7.45-4.889-9.615a.961.961 0 0 0-.527-.164z" opacity=".1" fill="#fff"/><rect width="28.203" height="28.203" x="1.898" y="1.898" ry="5.575" fill="#ececec" fill-rule="evenodd"/><g stroke-width="1.38"><path d="M14.551 5.858V7.38c-4.76 0-8.693 3.86-8.693 8.621a8.609 8.609 0 0 0 3.54 6.965c1.01.654 2.213-1.56 1.035-2.42A6.069 6.069 0 0 1 8.393 16c0-3.36 2.797-6.085 6.158-6.085v1.521l5.071-2.68z" fill="#9ccd44"/><path d="M22.219 8.915c-.89-.002-1.682 1.787-.652 2.539A6.072 6.072 0 0 1 23.607 16c0 3.36-2.797 6.085-6.158 6.085v-1.521l-5.071 2.68 5.07 2.898V24.62c4.762 0 8.694-3.86 8.694-8.621a8.61 8.61 0 0 0-3.54-6.965.702.702 0 0 0-.383-.12z" fill="#5db43e"/></g></svg>