<svg xmlns="http://www.w3.org/2000/svg" height="32" width="32"><rect width="28.203" height="28.203" x="1.898" y="1.898" ry="5.575" fill="#9bcc6e" fill-rule="evenodd"/><g transform="translate(47.895 7.494)"><path d="M-26.797-.22a5.098 5.098 0 0 1 3.675 1.573c.024.023.047.043.07.067.533.532.841 1.041.975 1.54a5.098 5.098 0 0 1 .378 1.894 5.098 5.098 0 0 1-5.098 5.098 5.098 5.098 0 0 1-2.031-.43c-.053-.02-.106-.046-.16-.07a5.098 5.098 0 0 1-.196-.098c-.027-.014-.053-.024-.081-.04-5.169 6.992-12.826 7.939-12.826 7.939L-31.61 6.554a2.337 2.337 0 0 1-.196-.75 5.098 5.098 0 0 1-.09-.948 5.098 5.098 0 0 1 5.098-5.098z" fill="#fff"/><path d="M-36.993-.22a5.098 5.098 0 0 0-3.674 1.573l-.071.067c-.532.532-.84 1.041-.975 1.54a5.098 5.098 0 0 0-.378 1.894 5.098 5.098 0 0 0 5.098 5.098 5.098 5.098 0 0 0 2.031-.43c.053-.02.106-.046.16-.07a5.098 5.098 0 0 0 .196-.098c.027-.014.053-.024.081-.04 5.169 6.992 12.826 7.939 12.826 7.939L-32.18 6.554c.117-.267.177-.515.196-.751a5.098 5.098 0 0 0 .09-.947 5.098 5.098 0 0 0-5.098-5.098z" fill="#48894a"/><circle r="2.185" cx="-36.993" cy="4.879" fill="#9bcc6e"/><circle r=".728" cx="-31.895" cy="9.249" fill="#f9f9f9"/><circle r="2.185" cx="-26.797" cy="4.879" fill="#9bcc6e"/></g></svg>