<svg xmlns="http://www.w3.org/2000/svg" width="32" height="32" viewBox="0 0 8.47 8.47"><rect width="7.465" height="7.465" x=".502" y=".502" ry="1.476" fill="#fb6651" fill-rule="evenodd"/><path d="M3.81 2.651s-.068 0-.097.003c-.666-.003-1.038.724-1.366 1.131l-.26.324c-.251.26-.596.529-.878.69a3.405 3.405 0 0 0 .049.284c.106-.048.231-.094.282-.135.28-.224.768-.589.818-.589.05 0 .135-.02.171.103.036.124-.047.271-.047.271s-.108.185-.104.287c.051.366.346.732.645.783.216.03.535.01.535.01l.007-.055c-.007-.082-.176-.117-.176-.117-.001.001-.214.041-.308-.002-.157-.072-.341-.355-.341-.391 0-.036.053-.198.053-.198s.173.024.23.024c.059 0 .207.007.207.007l.112.173c.035.067.078.033.137.049l.248.003.171-.004v-.087c0 .087 0-.083-.11-.086-.097-.005-.223-.017-.234-.052-.017-.057.008-.205.008-.205s.124-.06.385-.008c.262.051.56.268.56.268-.075.138-.143.168-.157.31-.013.127-.013.127.07.127h.403s0-.17-.116-.161c-.08-.003-.126-.007-.126-.014 0-.033.155-.168.155-.168l.109-.079s.153.103.35.153c.196.05.44.025.44.025.077.046.092.085.13.15.03.119.03.095.097.097.144.004.267-.003.408-.013 0 0 .012-.16-.224-.16 0 0-.086-.054-.101-.135-.016-.081-.007-.293-.007-.293l.117-.01.153.131.096.01.132.212s.264.02.353-.014a1.04 1.04 0 0 0 .341-.223.64.64 0 0 0 .123-.471c-.031-.134-.204-.294-.204-.294-.366-.347-.937-.928-1.292-.931-.056 0-.197.132-.278.074-.507-.35-1.061-.779-1.669-.803zM6.282 4.11a.243.243 0 1 1 0 .486.243.243 0 0 1 0-.486z" fill="#fff" fill-rule="evenodd"/></svg>