<svg xmlns="http://www.w3.org/2000/svg" height="32" width="32" version="1"><rect width="28.203" height="28.203" x="1.898" y="1.898" ry="5.575" fill="#ae5657" fill-rule="evenodd"/><path d="M18.339 17.95c1.574-1.056 5.992-.283 8.643-2.917-1.163-.462-1.815-1.208-2.692-1.83-3.674.136-7.39.25-7.9 2.019z" fill="#e9d9be"/><path d="M18.972 22.276l8.654-3.173c.23-.1.091-.208.117-.22l-1.72-1.99-8.155 2.234-.121 2.14c.332.353.31.785 1.225 1.01z" fill="#79312b"/><path d="M18.339 17.95c-.807 2.588-.572 3.494.226 4.14l.4-.084 7.963-3.124c-1.191-.784-1.014-2.133.054-3.849-.793.548-1.094.889-2.236 1.112-.394.077-1.567-.028-2.341.4-.34.187-.698.44-1.135.488-.892.097-2.502.402-2.931.917z" fill="#d4bb9b"/><path d="M18.4 17.795c-.557 2.042-.85 3.892.572 4.481-.272-.011-.352.208-.969-.218-.793-.883-1.704-2.132-2.315-2.446z" fill="#250000"/><path d="M4.79 16.338c-.166.123-.175.288-.071.424l5.577 8.101c.156.093.44.518.697.257.596.206 5.446-5.743 7.406-7.325l-8.59-5.813z" fill="#7a312b" fill-opacity=".996"/><path d="M5.315 16.307c-.167.123-.176.287-.073.424l5.178 7.587c.156.093.44.518.697.257.576.102 4.662-5.807 7.282-6.78l-8.067-5.845z" fill="#d4bb9b"/><g stroke-width="1.161"><path d="M20.274 19.387c1.949 1.402.829 4.27 2.244 5.342l.128-.074.02-1.043c.308.169.96.478 1.574.539-.037-.028.157-.054.12-.08-1.978-1.438-1.256-3.871-2.529-5.357l-1.567.491z" fill="#6e0e03"/><path d="M20.264 19.205c2.144 1.792 1.003 4.45 2.382 5.45l.148-1.117c.308.169.96.478 1.574.539-2.025-1.511-1.112-3.923-2.409-5.437z" fill="#e73716"/></g><path d="M5.107 15.21c3.541 4.059 4.382 7.342 5.736 7.999.315-.234.504-.984 1.48-2.24.758-.976 1.573-3.305 3.462-3.11.492.05 1.794-.079 2.348-.102l-5.011-4.805c-.804-1.577-2.565-3.777-4.684-1.345-1.055 1.286-2.175 2.768-3.33 3.603z" fill="#f2ead1"/><path d="M5.646 13.473c3.542 4.058 3.945 5.828 5.222 8.236.316-.234.514-.389 1.261-1.793.682-1.28 1.573-2.924 3.463-2.73.491.052 2.253.632 2.807.609l-4.786-6.314c-.803-1.578-2.564-3.778-4.683-1.346-1.056 1.287-2.127 2.503-3.284 3.338z" fill="#fff"/><path d="M13.613 11.481l4.414 6.298c-.552-1.052 1.425-2.536 2.592-2.809.222-.051-1.574-.907-1.421-1.053 3.094 1.496 6.029.88 6.717-.046.526-.708.98-.363 1.263-.614-.781-.29-2.647-1.502-3.958-2.218-1.308-.714-1.583-2.862-2.286-3.326-2.412 3.211-5.368.215-7.32 3.768z" fill="#fff7e8"/></svg>