<svg xmlns="http://www.w3.org/2000/svg" height="32" width="32" version="1"><rect width="28.203" height="28.203" x="1.898" y="1.898" ry="5.575" fill="#7e9c38" fill-rule="evenodd"/><g stroke-width="1.128"><path d="M16 7.79l-9.579 6.842H7.79v8.9c0 .334.249.679.61.679H23.6c.362 0 .612-.345.61-.679v-8.9h1.368z" fill="#fff"/><path d="M16.342 15.316a1.026 1.026 0 0 0-1.026 1.026 1.026 1.026 0 0 0 1.026 1.026 1.026 1.026 0 0 0 1.026-1.026 1.026 1.026 0 0 0-1.026-1.026zm2.737 0a1.026 1.026 0 0 0-1.026 1.026 1.026 1.026 0 0 0 1.026 1.026 1.026 1.026 0 0 0 1.026-1.026 1.026 1.026 0 0 0-1.026-1.026zm2.737 0a1.026 1.026 0 0 0-1.027 1.026 1.026 1.026 0 0 0 1.027 1.026 1.026 1.026 0 0 0 1.026-1.026 1.026 1.026 0 0 0-1.026-1.026zm-5.474 2.737a1.026 1.026 0 0 0-1.026 1.026 1.026 1.026 0 0 0 1.026 1.026 1.026 1.026 0 0 0 1.026-1.026 1.026 1.026 0 0 0-1.026-1.026zm2.737 0a1.026 1.026 0 0 0-1.026 1.026 1.026 1.026 0 0 0 1.026 1.026 1.026 1.026 0 0 0 1.026-1.026 1.026 1.026 0 0 0-1.026-1.026zm2.737 0a1.026 1.026 0 0 0-1.027 1.026 1.026 1.026 0 0 0 1.027 1.026 1.026 1.026 0 0 0 1.026-1.026 1.026 1.026 0 0 0-1.026-1.026zm-5.474 2.736a1.026 1.026 0 0 0-1.026 1.027 1.026 1.026 0 0 0 1.026 1.026 1.026 1.026 0 0 0 1.026-1.026 1.026 1.026 0 0 0-1.026-1.027zm2.737 0a1.026 1.026 0 0 0-1.026 1.027 1.026 1.026 0 0 0 1.026 1.026 1.026 1.026 0 0 0 1.026-1.026 1.026 1.026 0 0 0-1.026-1.027zm2.737 0a1.026 1.026 0 0 0-1.027 1.027 1.026 1.026 0 0 0 1.027 1.026 1.026 1.026 0 0 0 1.026-1.026 1.026 1.026 0 0 0-1.026-1.027z" fill="#7e9c38"/></g></svg>