<svg xmlns="http://www.w3.org/2000/svg" height="32" width="32" version="1"><path d="M30.102 22.117a6.308 6.308 0 0 0-1.198-1.88 6.548 6.548 0 0 0-1.842-1.385 6.686 6.686 0 0 0-2.285-.68 8.888 8.888 0 0 0-1.156-2.904 9.26 9.26 0 0 0-2.057-2.325 9.447 9.447 0 0 0-2.748-1.543 9.593 9.593 0 0 0-3.238-.558 9.55 9.55 0 0 0-2.783.412 9.347 9.347 0 0 0-4.43 2.91 9.137 9.137 0 0 0-1.4 2.246 7.666 7.666 0 0 0-2.522.826 7.474 7.474 0 0 0-2.027 1.58c-.22.244-.333.562-.518.832v4.88a5.561 5.561 0 0 0 5.575 5.574h17.054a5.561 5.561 0 0 0 5.575-5.575z" fill="#f9f9f9" fill-rule="evenodd"/><path d="M7.473 1.898a5.563 5.563 0 0 0-5.575 5.577v12.173c.185-.27.298-.588.518-.832a7.474 7.474 0 0 1 2.027-1.58 7.666 7.666 0 0 1 2.522-.826 9.137 9.137 0 0 1 1.4-2.246 9.347 9.347 0 0 1 4.43-2.91 9.55 9.55 0 0 1 2.783-.412c1.138 0 2.23.197 3.238.558a9.447 9.447 0 0 1 2.748 1.543 9.26 9.26 0 0 1 2.057 2.325 8.888 8.888 0 0 1 1.156 2.904c.817.09 1.588.327 2.285.68.698.353 1.321.823 1.842 1.384.508.548.91 1.187 1.198 1.881V7.475a5.563 5.563 0 0 0-5.575-5.577z" fill="#23cdff" fill-rule="evenodd"/><path d="M16 15.726a2.5 2.5 0 1 0 0 5 2.5 2.5 0 0 0 0-5zm0 6c-4.5.003-4.5 3.201-4.5 3.201v.8h9v-.8s0-3.203-4.5-3.2z" color="#000" opacity=".5" fill="gray"/></svg>