<svg xmlns="http://www.w3.org/2000/svg" height="32" width="32" version="1"><rect width="28.203" height="28.203" x="1.898" y="1.898" ry="5.575" fill="#e6e6e6" fill-rule="evenodd"/><g stroke-width="1.112"><path d="M16.424 5.722c2.222 4.922 12.048 17.045-11.83 15.195 17.071 7.48 30.428 1.078 11.83-15.195z" fill="#f27423"/><path d="M21.561 10.913c1.677-.054 3.614-.003 5.846.17-2.82-1.236-5.517-2.057-8.008-2.553l.096.093c.46.47.89.93 1.292 1.379.277.31.523.61.774.911zM14.65 8.005C6.876 7.962 3.355 12.6 10.39 21.053a38.245 38.245 0 0 0 2.162 2.384c.897.91 1.9 1.857 3.024 2.84-.322-.711-.805-1.596-1.32-2.546-.487-.899-.99-1.857-1.433-2.857-1.857-4.199-2.371-8.795 6.305-9.781-.102-.232-.197-.466-.306-.694-.362-.758-.752-1.473-1.127-2.164a23.267 23.267 0 0 0-3.045-.23z" fill="#1d4a6c"/><path d="M17.695 8.235c.375.691.765 1.406 1.127 2.164.11.228.204.462.306.694.748-.085 1.544-.151 2.433-.18-.25-.301-.497-.6-.774-.911-.402-.45-.832-.91-1.292-1.379l-.096-.093a29.359 29.359 0 0 0-1.704-.295z" fill="#f27423"/></g></svg>