<svg xmlns="http://www.w3.org/2000/svg" height="32" width="32" viewBox="0 0 8.467 8.467"><g fill-rule="evenodd"><path d="M4.26 4.26c-.314 0-.61.06-.889.167a3.168 3.168 0 0 0-.777.438c-.24.182-.462.393-.664.62-.203.227-.385.469-.549.711-.269.399-.45.765-.61 1.096.264.396.693.672 1.207.672h.205c.053-.03.122-.024.172-.065.175-.148.333-.36.502-.614.17-.254.351-.55.575-.868.224-.318.49-.656.828-.995 0 0 .164-.21.417-.41.126-.1.274-.197.435-.265.16-.068.335-.107.512-.088a2.656 2.656 0 0 0-.62-.283c-.249-.08-.518-.132-.744-.116z" fill="#fff"/><path d="M5.09 4.416c.08.028.134.06.205.093-.051-.023-.094-.063-.146-.082-.018-.007-.04-.005-.058-.011z" fill="#fecd38"/><path d="M6.338 7.964c-.053-.03-.123-.024-.172-.065-.175-.148-.333-.36-.502-.614-.17-.254-.351-.55-.575-.868a7.471 7.471 0 0 0-.829-.995 7.465 7.465 0 0 0-.828.995c-.224.317-.405.614-.575.868-.17.254-.327.466-.502.614-.05.041-.12.034-.172.065z" fill="#4f4f4f"/><path d="M7.726 7.248c-.159-.323-.328-.67-.586-1.052a6.714 6.714 0 0 0-.549-.711 4.658 4.658 0 0 0-.664-.62c-.109-.082-.235-.13-.351-.198a1.064 1.064 0 0 0-.464.08 1.913 1.913 0 0 0-.435.266c-.253.2-.417.409-.417.409.339.339.605.677.83.995.223.317.404.614.574.868.17.254.327.466.502.614.05.041.12.034.172.065h.152c.533 0 .977-.295 1.236-.716z" fill="#eba43c"/><path d="M7.742 1.243a8.41 8.41 0 0 1-.602 1.081 6.714 6.714 0 0 1-.549.711 4.662 4.662 0 0 1-.664.62c-.24.182-.5.333-.778.439a2.48 2.48 0 0 1-.889.166c.226-.016.495.036.744.116.035.011.053.028.087.04.018.006.04.004.058.01.052.02.095.06.146.083.114.051.253.1.329.15-.017-.002-.032.01-.048.008.116.069.242.116.35.198.241.182.463.393.665.62.203.227.385.47.549.711.258.383.427.73.586 1.052.138-.225.238-.474.238-.758V1.978c0-.274-.093-.516-.222-.735zM4.26 3.099c.339-.339.605-.678.83-.995.223-.318.404-.614.574-.868.17-.254.327-.466.502-.614.09-.076.21-.08.314-.12H2.04c.104.04.224.044.314.12.175.148.333.36.502.614.17.254.351.55.575.868.224.317.49.656.828.995z" fill="#4f4f4f"/><path d="M3.223 4.01c.052.023.095.064.148.084.019.007.04.004.06.01-.081-.028-.136-.061-.208-.094z" fill="#fecd38"/><path d="M.754 1.199c-.146.229-.252.486-.252.779V6.49c0 .303.113.568.269.802.16-.33.341-.697.61-1.096.164-.242.346-.484.549-.711.202-.227.424-.438.664-.62.24-.181.5-.333.777-.438a2.48 2.48 0 0 1 .89-.167c-.227.016-.495-.036-.744-.116-.035-.01-.053-.027-.087-.04-.018-.006-.04-.003-.059-.01-.053-.02-.096-.06-.148-.084-.113-.051-.25-.099-.326-.149.016.002.031-.009.048-.008-.116-.068-.242-.116-.35-.197a4.662 4.662 0 0 1-.665-.62 6.714 6.714 0 0 1-.549-.712A8.577 8.577 0 0 1 .754 1.2z" fill="#4f4f4f"/><path d="M.754 1.199c.162.336.351.716.627 1.125.164.242.346.485.549.711.202.227.424.44.664.62.109.082.235.13.35.198.16.007.319-.018.465-.08.16-.068.309-.165.435-.265.253-.2.416-.409.416-.409a7.467 7.467 0 0 1-.828-.995c-.224-.318-.405-.614-.575-.868C2.687.982 2.53.77 2.355.622c-.09-.076-.21-.08-.314-.12h-.063c-.525 0-.962.287-1.224.697z" fill="#568cbf"/><path d="M6.48.502c-.104.04-.224.044-.314.12-.175.148-.333.36-.502.614-.17.254-.351.55-.575.868-.224.317-.49.656-.829.995 0 0-.163.209-.416.409-.126.1-.274.197-.435.265a1.036 1.036 0 0 1-.512.088c.143.096.372.204.62.283.249.08.517.132.743.116.315 0 .611-.06.889-.166.278-.106.537-.257.778-.438.24-.182.462-.394.664-.62.203-.227.385-.47.549-.712a8.41 8.41 0 0 0 .602-1.081C7.486.807 7.033.503 6.49.503z" fill="#fff"/></g></svg>