<svg xmlns="http://www.w3.org/2000/svg" height="32" width="32" version="1"><rect width="28.203" height="28.203" x="1.898" y="1.898" ry="5.575" fill="#5f7c8a" fill-rule="evenodd"/><rect ry="1.5" rx="1.5" transform="matrix(0 -1 -1 0 0 0)" height="28" width="22" y="-30" x="-27" fill="#5f7c8a"/><g fill="#fff"><path d="M6.667 20h2.666c.37 0 .667.297.667.667v2.666c0 .37-.297.667-.667.667H6.667A.665.665 0 0 1 6 23.333v-2.666c0-.37.297-.667.667-.667zM12 20h2.667c.37 0 .666.297.666.667v2.666c0 .37-.297.667-.666.667H12a.665.665 0 0 1-.667-.667v-2.666c0-.37.298-.667.667-.667zM17.333 20H20c.37 0 .667.297.667.667v2.666c0 .37-.298.667-.667.667h-2.667a.665.665 0 0 1-.666-.667v-2.666c0-.37.297-.667.666-.667zM22.667 20h2.666c.37 0 .667.297.667.667v2.666c0 .37-.297.667-.667.667h-2.666a.665.665 0 0 1-.667-.667v-2.666c0-.37.297-.667.667-.667z"/></g></svg>