<svg xmlns="http://www.w3.org/2000/svg" height="32" width="32" version="1"><rect width="28.203" height="28.203" x="1.898" y="1.898" ry="5.575" fill="#4f4f4f" fill-rule="evenodd"/><g transform="translate(41.287 -.164)"><rect x="-35.287" y="9.664" width="20" height="5" ry="1.25" rx="1.333" fill="#fff"/><rect x="-35.287" y="17.664" width="20" height="5" ry="1.25" rx="1.333" fill="#fff"/><circle r="1.5" cx="-32.787" cy="12.164" fill="#4fa0ff"/><circle r="1.5" cx="-32.787" cy="20.164" fill="#ff4f4f"/><circle r="1.5" cx="-27.787" cy="12.164" fill="#4fa0ff"/><circle r="1.5" cx="-27.787" cy="20.164" fill="#ff4f4f"/><circle r="1.5" cx="-22.787" cy="12.164" fill="#4fa0ff"/><circle r="1.5" cx="-22.787" cy="20.164" fill="#ff4f4f"/></g><rect ry="5.575" y="1.898" x="1.898" height="28.203" width="28.203" fill="#4f4f4f" fill-rule="evenodd"/><g transform="translate(41.287 -.164)"><rect rx="1.333" ry="1.25" height="5" width="20" y="9.664" x="-35.287" fill="#fff"/><rect rx="1.333" ry="1.25" height="5" width="20" y="17.664" x="-35.287" fill="#fff"/><circle cy="12.164" cx="-32.787" r="1.5" fill="#4fa0ff"/><circle cy="20.164" cx="-32.787" r="1.5" fill="#ff4f4f"/><circle cy="12.164" cx="-27.787" r="1.5" fill="#4fa0ff"/><circle cy="20.164" cx="-27.787" r="1.5" fill="#ff4f4f"/><circle cy="12.164" cx="-22.787" r="1.5" fill="#4fa0ff"/><circle cy="20.164" cx="-22.787" r="1.5" fill="#ff4f4f"/></g></svg>