<svg xmlns="http://www.w3.org/2000/svg" xmlns:xlink="http://www.w3.org/1999/xlink" height="32" width="32" version="1"><defs><radialGradient xlink:href="#a" id="b" gradientUnits="userSpaceOnUse" gradientTransform="matrix(1.5554 0 0 1.5554 -22.05 -9.869)" cx="24.392" cy="16.559" fx="24.392" fy="16.559" r="14.102"/><linearGradient id="a"><stop offset="0" stop-color="#56572b"/><stop offset="1" stop-color="#1a1c0e"/></linearGradient></defs><rect width="28.203" height="28.203" x="1.786" y="1.786" ry="5.575" fill="#56572b" fill-rule="evenodd"/><path d="M17.82 29.99c-.792-.342-1.8-.638-2.45-1.01-1.489-.849-2.633-1.768-3.534-2.728a12.67 12.67 0 0 1-2.07-2.969c-.514-1.01-.885-2.03-1.213-3.031-.328-1-.614-1.981-.957-2.912-.343-.931-.744-1.812-1.303-2.613a7.64 7.64 0 0 0-2.252-2.137c-.578-.363-1.473-.596-2.254-.875v12.7a5.563 5.563 0 0 0 5.574 5.575h10.46z" fill="#222514" fill-rule="evenodd"/><path d="M12.764 1.787H7.36a5.561 5.561 0 0 0-5.574 5.574v4.354c.78.28 1.676.512 2.254.875a7.64 7.64 0 0 1 2.252 2.137c.559.801.96 1.682 1.303 2.613.343.93.629 1.912.957 2.912.328 1 .699 2.021 1.213 3.031a12.67 12.67 0 0 0 2.07 2.969c.9.96 2.045 1.88 3.533 2.728.652.372 1.66.668 2.451 1.01h6.594a5.565 5.565 0 0 0 5.576-5.576v-3.852c-.657-.253-1.462-.448-1.967-.765a7.635 7.635 0 0 1-2.252-2.135c-.559-.801-.96-1.682-1.302-2.613-.343-.931-.63-1.912-.957-2.912-.328-1-.7-2.022-1.213-3.032a12.68 12.68 0 0 0-2.072-2.968c-.901-.96-2.046-1.88-3.534-2.729-1.045-.596-2.51-1.104-3.93-1.62z" fill="url(#b)" fill-rule="evenodd"/><path d="M12.764 1.787c1.419.517 2.884 1.025 3.93 1.621 1.487.85 2.632 1.77 3.533 2.729.9.96 1.558 1.958 2.072 2.968s.885 2.031 1.213 3.032c.328 1 .614 1.98.957 2.912.343.93.743 1.812 1.302 2.613a7.635 7.635 0 0 0 2.252 2.135c.505.317 1.31.512 1.967.765v-13.2a5.563 5.563 0 0 0-5.576-5.575h-11.65z" fill="#56572b" fill-rule="evenodd"/><path d="M18.47 19.672c.117-.107.089-.313-.076-.547-.145-.204-.145-.208-.249-1-.1-.76-.11-.806-.254-1.08-.098-.186-.2-.323-.296-.393-.178-.131-.266-.363-.192-.502.042-.079.027-.112-.157-.345a8.365 8.365 0 0 0-.25-.307 3.114 3.114 0 0 1-.168-.218c-.087-.12-.141-.164-.187-.15-.052.017-.069-.008-.082-.122a.966.966 0 0 0-.046-.21c-.024-.054-.01-.066.068-.066.133 0 .176-.098.176-.396v-.249h.294c.162 0 .352-.016.424-.037.17-.049.335-.208.422-.408.074-.169.144-.2.226-.102.03.035.095.054.166.047.105-.01.118-.025.129-.153.006-.079.023-.143.038-.143s.104.184.198.408c.164.388.177.407.279.4a.314.314 0 0 0 .128-.029c.011-.011-.045-.195-.125-.41l-.16-.429c-.007-.022.061-.071.152-.109.127-.052.174-.096.201-.186l.035-.118.436-.024c.24-.013.44-.026.445-.028.005-.003.01-.03.01-.06 0-.033-.047-.059-.124-.066-.121-.012-.123-.015-.134-.227-.001-.074-.132-.07-.197-.105 0 .105-.01.112-.152.112-.11 0-.152-.016-.152-.057 0-.063-.062-.078-.082-.02-.007.02-.093.049-.192.062l-.18.025v-.115c0-.063-.024-.124-.053-.135-.06-.023-.137.042-.137.115 0 .037-.093.049-.379.049h-.379v-.114c0-.105-.01-.114-.133-.114-.088 0-.132.018-.132.053 0 .064-.082.099-.23.099-.07 0-.123.027-.15.076-.052.1-.286.11-.248.012.23-.6-.1-1.168-.672-1.155-.367.009-.594.324-.595.825 0 .268-.001.271-.121.32-.401.167-.688.803-.674 1.492.005.219-.017.448-.059.628-.044.191-.07.472-.075.853-.007.52-.02.61-.14 1.043-.112.396-.187.737-.28 1.272-.008.043-.108.143-.224.223a1.46 1.46 0 0 0-.503.57l-.077.153.138.36c.172.447.17.443.334.489a.354.354 0 0 0 .264-.016l.128-.053v-.573h.151c.332 0 .583-.379.91-1.371.295-.89.384-1.13.42-1.13.02 0 .035.017.035.039 0 .02.068.146.151.278.175.277.468.567.767.758.187.12.211.15.235.297.014.09.094.367.178.618.084.25.176.587.205.75.068.379.146.486.444.608.278.114.432.125.528.038zm-1.508-6.466c.014-.089.053-.182.088-.208.13-.098.655-.03.655.084 0 .054-.116.094-.272.095a.236.236 0 0 0-.177.095.229.229 0 0 1-.197.095h-.122zM7.1 17.98c.342-.168.387-.259.402-.813l.013-.464H6.366l.012.34.012.342H4.06v-1.971H6.39l-.012.328-.012.328.258-.024c.33-.03.71-.213.84-.405.073-.108.085-.163.067-.298-.034-.252-.147-.403-.394-.524l-.216-.106H3.624l-.2.09c-.263.119-.451.33-.483.542-.013.09-.018.624-.012 1.187.014 1.15.019 1.172.307 1.372.273.19.375.199 2.074.19l1.573-.008zm4.855.085c.219-.056.45-.22.528-.378.053-.104.067-.23.067-.597 0-.551-.04-.679-.262-.826-.278-.183-.474-.204-1.89-.205H9.102v-.645h1.724c1.709 0 1.725 0 1.725-.077a.663.663 0 0 0-.194-.401 1.106 1.106 0 0 0-.28-.152c-.175-.066-.316-.071-1.838-.071h-1.65l-.208.102c-.243.12-.4.33-.439.587-.04.275 0 .812.074.952.083.158.354.332.598.384.112.024.716.04 1.494.04h1.306v.607H9.665c-1.578 0-1.745.006-1.725.06a.38.38 0 0 1 .023.112c0 .155.373.436.673.507.21.05 3.125.05 3.319 0zm11.416-.093c.385-.192.398-.23.398-1.142v-.772h-2.956v.12c0 .171.153.35.407.474.206.102.25.108.815.121l.597.013v.599H20.32v-1.971h3.459l-.02-.156c-.027-.196-.202-.386-.442-.478-.156-.06-.337-.067-1.804-.067h-1.63l-.246.122c-.165.081-.277.168-.34.262-.095.14-.095.14-.107 1.212-.007.662.004 1.127.028 1.218.07.262.3.448.666.543.063.016.822.026 1.687.023l1.573-.007zm4.946.035c.094-.043.226-.142.294-.22l.123-.14v-1.213c0-.824-.013-1.241-.042-1.297-.092-.18-.243-.295-.481-.368-.224-.07-.356-.075-1.748-.075-1.614 0-1.736.012-2.013.199a.806.806 0 0 0-.205.218c-.074.126-.078.19-.078 1.307 0 1.161.001 1.177.086 1.296a.911.911 0 0 0 .22.204c.291.18.352.184 2.063.176 1.544-.008 1.618-.011 1.781-.087zM25.285 16.4v-.985h2.331l-.01.985-.011.986h-2.31z" fill="#fff"/><path style="line-height:normal;font-variant-ligatures:normal;font-variant-position:normal;font-variant-caps:normal;font-variant-numeric:normal;font-variant-alternates:normal;font-feature-settings:normal;text-indent:0;text-align:start;text-decoration-line:none;text-decoration-style:solid;text-decoration-color:#000;text-transform:none;text-orientation:mixed;white-space:normal;shape-padding:0;isolation:auto;mix-blend-mode:normal;solid-color:#000;solid-opacity:1" d="M16.22 9.894c-2.702 0-4.967 1.894-5.545 4.423h.816a4.893 4.893 0 0 1 4.729-3.646 4.89 4.89 0 0 1 4.726 3.646h.817c-.578-2.529-2.841-4.423-5.543-4.423zM11.3 18.43a5.69 5.69 0 0 0 4.92 2.841c2.1 0 3.932-1.145 4.918-2.841h-.928a4.889 4.889 0 0 1-7.983 0z" color="#000" font-weight="400" font-family="sans-serif" overflow="visible" fill="#fff"/></svg>