<svg xmlns="http://www.w3.org/2000/svg" xmlns:xlink="http://www.w3.org/1999/xlink" height="32" width="32" version="1"><defs><radialGradient xlink:href="#a" id="b" gradientUnits="userSpaceOnUse" gradientTransform="matrix(1.5554 0 0 1.5554 -99.783 -11.572)" cx="24.392" cy="16.559" fx="24.392" fy="16.559" r="14.102"/><linearGradient id="a"><stop offset="0" stop-color="#56572b"/><stop offset="1" stop-color="#1a1c0e"/></linearGradient></defs><g transform="translate(77.844 1.816)"><rect ry="5.575" y=".082" x="-75.946" height="28.203" width="28.203" fill="#56572b" fill-rule="evenodd"/><path d="M-59.912 28.286c-.792-.342-1.8-.638-2.451-1.01-1.488-.849-2.633-1.768-3.533-2.728a12.67 12.67 0 0 1-2.07-2.969c-.515-1.01-.885-2.03-1.214-3.031-.328-1-.613-1.981-.957-2.912-.343-.931-.743-1.812-1.302-2.613a7.64 7.64 0 0 0-2.252-2.137c-.579-.363-1.473-.596-2.254-.875v12.7a5.563 5.563 0 0 0 5.574 5.575z" fill="#222514" fill-rule="evenodd"/><path d="M-64.969.083h-5.402a5.561 5.561 0 0 0-5.574 5.574v4.354c.78.28 1.675.512 2.254.875a7.64 7.64 0 0 1 2.252 2.137c.559.801.96 1.682 1.302 2.613.344.93.63 1.912.957 2.912.329 1 .7 2.021 1.213 3.031a12.67 12.67 0 0 0 2.07 2.969c.901.96 2.046 1.88 3.534 2.729.651.371 1.66.667 2.451 1.01h6.594a5.565 5.565 0 0 0 5.576-5.577V18.86c-.657-.254-1.462-.45-1.967-.766a7.635 7.635 0 0 1-2.252-2.135c-.559-.801-.96-1.682-1.303-2.613-.343-.931-.628-1.912-.957-2.912-.328-1-.698-2.021-1.212-3.031a12.68 12.68 0 0 0-2.073-2.97c-.9-.959-2.045-1.878-3.533-2.728-1.045-.596-2.51-1.104-3.93-1.62z" fill="url(#b)" fill-rule="evenodd"/><path d="M-64.969.083c1.42.517 2.885 1.025 3.93 1.621 1.488.85 2.633 1.77 3.533 2.729.9.96 1.559 1.959 2.073 2.969.514 1.01.884 2.03 1.212 3.03.329 1.001.614 1.982.957 2.913.344.93.744 1.812 1.303 2.613a7.635 7.635 0 0 0 2.252 2.135c.505.317 1.31.512 1.967.766V5.657A5.563 5.563 0 0 0-53.318.083z" fill="#56572b" fill-rule="evenodd"/><g fill="#fff"><path d="M-62.563 23.025c.41-.202.465-.31.483-.976l.015-.557h-1.38l.015.41.014.41-1.4-.001h-1.399v-2.367h2.8l-.015.394-.015.394.31-.029c.396-.036.852-.256 1.008-.486.088-.13.103-.196.081-.359-.04-.302-.177-.483-.473-.629l-.26-.127h-3.96l-.238.108c-.317.143-.543.396-.58.65-.017.11-.023.75-.015 1.427.016 1.381.022 1.407.368 1.647.328.227.45.239 2.491.228l1.89-.009zm5.83.102c.263-.067.54-.264.635-.453.062-.125.08-.276.08-.717 0-.662-.05-.816-.316-.992-.333-.22-.568-.246-2.268-.247h-1.559v-.774h2.071c2.052 0 2.071-.001 2.071-.093 0-.141-.112-.374-.233-.481a1.328 1.328 0 0 0-.336-.182c-.21-.08-.379-.086-2.207-.086h-1.98l-.25.123a.927.927 0 0 0-.528.704c-.05.331 0 .976.089 1.144.1.19.425.398.718.461.134.03.86.049 1.794.049h1.568v.728h-2.1c-1.894 0-2.095.007-2.07.072.015.04.027.1.027.135 0 .186.448.523.808.608.252.06 3.753.06 3.986.001z"/><path style="line-height:normal;font-variant-ligatures:normal;font-variant-position:normal;font-variant-caps:normal;font-variant-numeric:normal;font-variant-alternates:normal;font-feature-settings:normal;text-indent:0;text-align:start;text-decoration-line:none;text-decoration-style:solid;text-decoration-color:#000;text-transform:none;text-orientation:mixed;white-space:normal;shape-padding:0;isolation:auto;mix-blend-mode:normal;solid-color:#000;solid-opacity:1" d="M-61.663 6.057a7.429 7.429 0 0 0-7.422 7.422c0 2.048.833 3.904 2.178 5.248h1.215a6.602 6.602 0 0 1-2.592-5.248 6.615 6.615 0 0 1 6.621-6.621 6.615 6.615 0 0 1 6.621 6.62 6.602 6.602 0 0 1-2.592 5.249h1.215a7.399 7.399 0 0 0 2.178-5.248 7.429 7.429 0 0 0-7.422-7.422z" color="#000" font-weight="400" font-family="sans-serif" overflow="visible"/><path d="M-59.585 18.283c.137-.124.104-.363-.087-.635-.168-.237-.169-.24-.289-1.16-.115-.883-.128-.937-.295-1.255-.113-.216-.233-.375-.343-.457-.207-.152-.31-.421-.223-.583.048-.09.03-.129-.183-.4a9.713 9.713 0 0 0-.29-.356 3.616 3.616 0 0 1-.196-.254c-.1-.14-.164-.19-.217-.173-.06.02-.08-.01-.095-.143a1.121 1.121 0 0 0-.053-.243c-.028-.062-.012-.077.079-.077.154 0 .204-.114.204-.46V11.8h.342c.187 0 .409-.02.491-.043.198-.057.39-.243.491-.474.085-.197.167-.234.262-.12.035.042.11.064.193.056.122-.012.137-.03.15-.178.007-.091.027-.166.044-.166.018 0 .121.213.23.474.19.45.205.472.324.464a.365.365 0 0 0 .149-.033c.013-.014-.052-.227-.145-.475a61.381 61.381 0 0 1-.186-.5c-.008-.025.07-.082.177-.126.147-.06.202-.112.232-.217l.04-.137.507-.027c.278-.015.511-.03.517-.033.006-.003.011-.034.011-.069 0-.04-.054-.068-.143-.077-.141-.014-.143-.017-.156-.263-.001-.086-.153-.081-.229-.122 0 .121-.01.13-.176.13-.127 0-.176-.02-.176-.067 0-.073-.072-.09-.095-.022-.008.023-.11.056-.224.072l-.21.028v-.133c0-.073-.026-.144-.06-.157-.07-.026-.16.048-.16.133 0 .043-.108.057-.44.057h-.44v-.132c0-.121-.012-.132-.154-.132-.102 0-.154.02-.154.061 0 .074-.094.115-.266.115-.082 0-.143.031-.174.088-.061.116-.333.13-.289.015.268-.698-.115-1.356-.78-1.341-.425.01-.69.376-.69.958-.001.31-.002.314-.142.372-.465.192-.798.931-.781 1.731.005.254-.02.52-.07.73-.05.221-.08.547-.086.99-.009.604-.023.707-.164 1.21-.128.46-.216.857-.324 1.478-.009.05-.125.166-.26.259a1.695 1.695 0 0 0-.584.662l-.09.177.16.417c.2.52.197.516.389.569a.41.41 0 0 0 .306-.018l.149-.062v-.665h.175c.385 0 .677-.44 1.058-1.593.34-1.033.444-1.312.487-1.312.022 0 .04.02.04.045 0 .025.08.17.176.324.203.322.543.658.89.88.217.138.245.175.272.344.017.104.11.427.207.718.098.29.205.682.239.87.078.44.17.566.515.707.323.132.502.145.613.044zm-1.75-7.508c.016-.102.062-.211.102-.242.15-.113.76-.034.76.099 0 .062-.134.109-.315.11a.275.275 0 0 0-.205.11.266.266 0 0 1-.229.11h-.142z"/></g></g></svg>