<svg xmlns="http://www.w3.org/2000/svg" xmlns:xlink="http://www.w3.org/1999/xlink" height="32" width="32" version="1"><defs><radialGradient xlink:href="#a" id="b" gradientUnits="userSpaceOnUse" gradientTransform="matrix(1.5554 0 0 1.5554 -70.96 -14.296)" cx="24.392" cy="16.559" fx="24.392" fy="16.559" r="14.102"/><linearGradient id="a"><stop offset="0" stop-color="#56572b"/><stop offset="1" stop-color="#1a1c0e"/></linearGradient></defs><g transform="translate(49.021 4.539)"><rect ry="5.575" y="-2.641" x="-47.123" height="28.203" width="28.203" fill="#56572b" fill-rule="evenodd"/><path d="M-31.09 25.563c-.791-.343-1.799-.638-2.45-1.01-1.489-.85-2.633-1.769-3.534-2.728a12.67 12.67 0 0 1-2.07-2.97c-.514-1.01-.885-2.03-1.213-3.03-.328-1-.614-1.982-.957-2.912-.343-.931-.744-1.812-1.303-2.614a7.64 7.64 0 0 0-2.252-2.136c-.578-.363-1.473-.596-2.253-.875v12.699a5.563 5.563 0 0 0 5.574 5.576z" fill="#222514" fill-rule="evenodd"/><path d="M-36.146-2.64h-5.402a5.561 5.561 0 0 0-5.574 5.574v4.354c.78.28 1.675.512 2.253.875a7.64 7.64 0 0 1 2.252 2.136c.56.802.96 1.683 1.303 2.614.343.93.629 1.911.957 2.912.328 1 .699 2.02 1.213 3.03a12.67 12.67 0 0 0 2.07 2.97c.9.96 2.045 1.879 3.534 2.728.651.372 1.659.667 2.45 1.01h6.594a5.565 5.565 0 0 0 5.577-5.576v-3.852c-.657-.254-1.462-.449-1.967-.765a7.635 7.635 0 0 1-2.252-2.135c-.56-.802-.96-1.683-1.303-2.614-.343-.93-.629-1.911-.957-2.912-.328-1-.699-2.02-1.213-3.03a12.68 12.68 0 0 0-2.072-2.97c-.9-.96-2.045-1.879-3.533-2.728-1.045-.597-2.51-1.104-3.93-1.621z" fill="url(#b)" fill-rule="evenodd"/><path d="M-36.146-2.64c1.42.517 2.885 1.024 3.93 1.62 1.488.85 2.632 1.77 3.533 2.73.9.959 1.558 1.958 2.072 2.968s.885 2.03 1.213 3.031c.328 1 .614 1.982.957 2.912.343.931.744 1.812 1.303 2.614a7.635 7.635 0 0 0 2.252 2.135c.505.316 1.31.511 1.967.765V2.934a5.563 5.563 0 0 0-5.577-5.574z" fill="#56572b" fill-rule="evenodd"/><path d="M-30.44 15.245c.118-.107.09-.313-.076-.547-.144-.205-.145-.208-.248-1-.1-.76-.11-.806-.254-1.08-.098-.186-.201-.323-.296-.394-.178-.13-.267-.363-.192-.502.041-.078.026-.111-.158-.345a8.365 8.365 0 0 0-.25-.306 3.114 3.114 0 0 1-.168-.219c-.086-.12-.141-.163-.187-.149-.052.017-.068-.008-.082-.123a.966.966 0 0 0-.046-.21c-.023-.053-.01-.066.068-.066.133 0 .176-.097.176-.395V9.66h.294c.162 0 .353-.017.424-.037.17-.049.336-.209.422-.408.074-.17.145-.201.226-.103.03.036.095.055.166.048.106-.01.118-.026.129-.154.006-.078.024-.142.039-.142s.104.183.198.408c.163.388.176.407.278.4a.314.314 0 0 0 .128-.03c.012-.01-.044-.195-.124-.408l-.16-.43c-.008-.022.06-.072.152-.11.127-.052.174-.095.2-.186l.035-.118.436-.023c.24-.013.44-.026.445-.029.006-.002.01-.03.01-.06 0-.033-.047-.058-.123-.065-.122-.012-.124-.015-.135-.227 0-.074-.131-.07-.197-.105 0 .105-.009.111-.151.111-.11 0-.152-.016-.152-.057 0-.063-.062-.078-.082-.02-.007.022-.094.05-.193.063l-.18.025v-.115c0-.063-.023-.124-.052-.135-.06-.023-.137.041-.137.114 0 .037-.094.05-.38.05h-.379v-.114c0-.105-.01-.114-.132-.114-.088 0-.133.018-.133.053 0 .063-.081.099-.23.099-.07 0-.123.027-.149.075-.053.1-.287.112-.25.013.232-.601-.098-1.168-.67-1.155-.367.008-.595.324-.596.825 0 .268-.001.27-.121.32-.4.166-.688.803-.673 1.492.004.219-.017.447-.06.628-.044.19-.069.472-.074.853-.008.52-.02.609-.141 1.042-.111.396-.186.738-.28 1.272-.007.044-.108.143-.224.224a1.46 1.46 0 0 0-.503.57l-.077.152.139.36c.172.448.169.444.334.49a.354.354 0 0 0 .264-.016l.127-.054v-.572h.152c.331 0 .582-.379.91-1.372.294-.89.383-1.13.42-1.13.02 0 .034.018.034.04 0 .02.069.146.152.278.175.277.468.566.766.757.187.12.212.151.235.297.014.09.094.368.178.618.084.25.177.588.206.75.067.38.146.487.443.609.279.114.433.125.529.038zm-1.508-6.466c.014-.089.054-.183.088-.209.13-.097.655-.03.655.085 0 .054-.116.094-.272.095a.236.236 0 0 0-.176.095.229.229 0 0 1-.197.095h-.123zm-9.861 4.773c.342-.168.387-.258.402-.812l.012-.465h-1.148l.012.342.012.34h-2.331v-1.97h2.331l-.013.327-.012.329.259-.024c.33-.03.709-.213.839-.405.073-.108.085-.163.067-.299-.033-.251-.147-.402-.394-.524l-.216-.106h-3.298l-.198.09c-.264.12-.452.33-.483.542-.014.09-.02.625-.012 1.188.013 1.15.018 1.172.306 1.371.274.19.376.2 2.075.19l1.573-.007zm4.854.085c.22-.055.45-.22.529-.377.052-.104.066-.23.066-.597 0-.551-.04-.68-.262-.826-.277-.183-.474-.205-1.889-.205l-1.298-.001v-.644h1.725c1.708 0 1.724-.001 1.724-.077a.663.663 0 0 0-.194-.402 1.106 1.106 0 0 0-.28-.151c-.175-.066-.315-.072-1.838-.072h-1.649l-.208.103c-.244.12-.4.33-.44.587-.04.275.001.812.075.952.083.158.353.331.598.384.112.024.715.04 1.493.04h1.306v.607h-1.748c-1.578 0-1.745.005-1.724.06a.38.38 0 0 1 .023.112c0 .155.372.436.672.506.21.05 3.125.05 3.32.001zm11.416-.092c.385-.192.398-.23.398-1.143v-.771h-2.956v.12c0 .17.153.35.407.474.207.101.25.108.815.12l.597.014v.599h-2.312v-1.971h3.46l-.022-.157c-.026-.195-.2-.385-.44-.478-.157-.06-.338-.067-1.805-.067h-1.63l-.246.122c-.164.082-.277.168-.34.263-.095.14-.095.14-.107 1.211-.007.663.004 1.127.028 1.218.071.262.3.45.666.544.063.016.822.026 1.687.022l1.573-.006zm4.947.035c.094-.044.226-.142.294-.22l.123-.14v-1.214c0-.823-.014-1.24-.043-1.297-.092-.179-.243-.294-.48-.368-.225-.069-.357-.075-1.749-.075-1.614 0-1.735.012-2.013.2a.806.806 0 0 0-.205.218c-.074.126-.078.19-.078 1.307 0 1.16.002 1.177.086 1.296a.911.911 0 0 0 .221.203c.29.18.351.185 2.062.177 1.544-.008 1.618-.012 1.782-.087zm-3.032-1.608v-.985h2.331l-.011.985-.01.986H-23.625z" fill="#fff"/><path d="M-32.69 5.466c-2.702 0-4.967 1.895-5.545 4.424h.817a4.893 4.893 0 0 1 4.728-3.646 4.89 4.89 0 0 1 4.727 3.646h.816c-.578-2.53-2.84-4.424-5.543-4.424zm-4.92 8.537a5.69 5.69 0 0 0 4.92 2.842c2.1 0 3.932-1.145 4.918-2.842h-.928a4.889 4.889 0 0 1-7.982 0z" style="line-height:normal;font-variant-ligatures:normal;font-variant-position:normal;font-variant-caps:normal;font-variant-numeric:normal;font-variant-alternates:normal;font-feature-settings:normal;text-indent:0;text-align:start;text-decoration-line:none;text-decoration-style:solid;text-decoration-color:#000;text-transform:none;text-orientation:mixed;white-space:normal;shape-padding:0;isolation:auto;mix-blend-mode:normal;solid-color:#000;solid-opacity:1" color="#000" font-weight="400" font-family="sans-serif" overflow="visible" fill="#fff"/></g></svg>