<svg xmlns="http://www.w3.org/2000/svg" xmlns:xlink="http://www.w3.org/1999/xlink" height="32" width="32" version="1"><defs><radialGradient xlink:href="#a" id="b" gradientUnits="userSpaceOnUse" gradientTransform="matrix(1.5554 0 0 1.5554 -67.307 .626)" cx="24.392" cy="16.559" fx="24.392" fy="16.559" r="14.102"/><linearGradient id="a"><stop offset="0" stop-color="#56572b"/><stop offset="1" stop-color="#1a1c0e"/></linearGradient></defs><g transform="translate(45.367 -10.383)"><rect ry="5.575" y="12.281" x="-43.469" height="28.203" width="28.203" fill="#56572b" fill-rule="evenodd"/><path d="M-27.436 40.485c-.791-.342-1.8-.638-2.45-1.01-1.489-.849-2.633-1.768-3.534-2.728a12.67 12.67 0 0 1-2.07-2.969c-.514-1.01-.885-2.03-1.213-3.031-.328-1-.614-1.981-.957-2.912-.343-.931-.744-1.812-1.303-2.613a7.64 7.64 0 0 0-2.252-2.137c-.578-.363-1.473-.596-2.254-.875v12.699a5.563 5.563 0 0 0 5.575 5.576z" fill="#222514" fill-rule="evenodd"/><path d="M-32.492 12.282h-5.402a5.561 5.561 0 0 0-5.575 5.574v4.354c.781.28 1.676.512 2.254.875a7.64 7.64 0 0 1 2.252 2.137c.56.801.96 1.682 1.303 2.613.343.93.629 1.911.957 2.912.328 1 .699 2.021 1.213 3.031a12.67 12.67 0 0 0 2.07 2.969c.9.96 2.045 1.88 3.533 2.728.652.372 1.66.668 2.451 1.01h6.594a5.565 5.565 0 0 0 5.576-5.576v-3.852c-.657-.253-1.462-.449-1.966-.765a7.635 7.635 0 0 1-2.252-2.135c-.56-.801-.96-1.682-1.303-2.613-.343-.931-.629-1.912-.957-2.912-.328-1-.699-2.022-1.213-3.032a12.68 12.68 0 0 0-2.072-2.968c-.9-.96-2.045-1.88-3.533-2.729-1.045-.596-2.511-1.104-3.93-1.621z" fill="url(#b)" fill-rule="evenodd"/><path d="M-32.492 12.282c1.419.517 2.885 1.025 3.93 1.621 1.488.85 2.632 1.769 3.533 2.729.9.96 1.558 1.958 2.072 2.968s.885 2.031 1.213 3.032c.328 1 .614 1.98.957 2.912.343.93.744 1.812 1.303 2.613a7.635 7.635 0 0 0 2.252 2.135c.504.316 1.31.512 1.966.765v-13.2a5.563 5.563 0 0 0-5.576-5.575z" fill="#56572b" fill-rule="evenodd"/><g fill="#fff"><path d="M-33.062 34.842c.342-.168.387-.258.402-.812l.013-.465h-1.149l.012.342.012.34h-2.331v-1.97h2.331l-.012.328-.012.328.258-.024c.33-.03.71-.213.84-.405.073-.108.085-.163.067-.299-.034-.251-.147-.402-.394-.523l-.216-.107H-36.538l-.2.09c-.263.12-.451.33-.483.542-.013.09-.018.625-.012 1.188.014 1.15.019 1.172.307 1.371.273.19.375.2 2.074.19l1.573-.007zm4.855.085c.219-.055.45-.22.528-.377.053-.104.067-.23.067-.597 0-.551-.04-.68-.262-.826-.278-.183-.474-.205-1.89-.205l-1.297-.001v-.644h1.724c1.709 0 1.725-.001 1.725-.077a.663.663 0 0 0-.194-.402 1.106 1.106 0 0 0-.28-.151c-.175-.066-.316-.072-1.838-.072h-1.65l-.208.103c-.243.12-.4.33-.439.587-.04.275 0 .812.074.952.083.158.354.332.598.384.112.024.716.04 1.494.04h1.306v.607h-1.748c-1.578 0-1.745.005-1.725.06a.38.38 0 0 1 .023.112c0 .155.373.436.673.507.21.049 3.125.05 3.319 0zM-22.07 34.927c.22-.055.45-.22.528-.377.053-.104.067-.23.067-.597 0-.551-.04-.68-.262-.826-.278-.183-.474-.205-1.89-.205l-1.297-.001v-.644h1.724c1.709 0 1.725-.001 1.725-.077a.663.663 0 0 0-.194-.402 1.106 1.106 0 0 0-.28-.151c-.175-.066-.316-.072-1.838-.072h-1.65l-.208.103c-.243.12-.4.33-.438.587-.042.275 0 .812.074.952.082.158.353.332.597.384.112.024.716.04 1.494.04h1.306v.607h-1.748c-1.578 0-1.745.005-1.725.06a.38.38 0 0 1 .024.112c0 .155.372.436.672.507.21.049 3.125.05 3.319 0z"/><path style="line-height:normal;font-variant-ligatures:normal;font-variant-position:normal;font-variant-caps:normal;font-variant-numeric:normal;font-variant-alternates:normal;font-feature-settings:normal;text-indent:0;text-align:start;text-decoration-line:none;text-decoration-style:solid;text-decoration-color:#000;text-transform:none;text-orientation:mixed;white-space:normal;shape-padding:0;isolation:auto;mix-blend-mode:normal;solid-color:#000;solid-opacity:1" d="M-29.14 18.511a7.429 7.429 0 0 0-7.422 7.422c0 2.048.833 3.904 2.178 5.248h1.215a6.602 6.602 0 0 1-2.592-5.248 6.615 6.615 0 0 1 6.62-6.621 6.615 6.615 0 0 1 6.622 6.62 6.602 6.602 0 0 1-2.592 5.249h1.215a7.399 7.399 0 0 0 2.178-5.248 7.429 7.429 0 0 0-7.422-7.422z" color="#000" font-weight="400" font-family="sans-serif" overflow="visible"/><path d="M-27.062 30.738c.137-.125.104-.364-.088-.636-.167-.237-.168-.24-.288-1.16-.115-.882-.128-.937-.295-1.254-.114-.217-.233-.376-.344-.458-.206-.152-.31-.421-.223-.583.049-.09.031-.129-.182-.4a9.713 9.713 0 0 0-.29-.356 3.616 3.616 0 0 1-.196-.254c-.1-.139-.164-.19-.217-.173-.06.02-.08-.01-.095-.142a1.121 1.121 0 0 0-.054-.244c-.027-.062-.012-.077.08-.077.153 0 .204-.113.204-.46v-.288h.341c.188 0 .41-.02.492-.043.198-.057.39-.243.49-.474.086-.196.168-.234.263-.12.035.043.11.064.193.056.122-.012.137-.03.149-.178.008-.091.028-.165.045-.165.017 0 .12.213.23.473.19.45.205.472.324.464a.365.365 0 0 0 .148-.033c.013-.013-.052-.227-.145-.475a61.381 61.381 0 0 1-.185-.499c-.009-.026.07-.083.176-.127.147-.06.202-.112.233-.216l.04-.138.507-.027c.278-.015.51-.03.517-.033.006-.003.01-.034.01-.069 0-.039-.054-.068-.142-.077-.141-.013-.143-.017-.156-.263-.002-.086-.153-.081-.23-.122 0 .122-.01.13-.175.13-.127 0-.176-.019-.176-.067 0-.073-.073-.09-.096-.022-.008.024-.108.056-.223.072l-.21.028v-.133c0-.073-.027-.144-.06-.157-.07-.026-.16.049-.16.133 0 .043-.108.057-.44.057h-.44v-.132c0-.121-.012-.132-.154-.132-.102 0-.154.02-.154.062 0 .073-.095.114-.266.114-.082 0-.144.032-.174.088-.062.116-.333.13-.29.015.269-.698-.114-1.356-.779-1.341-.426.01-.69.376-.691.958 0 .311-.002.314-.14.372-.466.193-.8.931-.783 1.732.006.254-.02.519-.068.729-.052.221-.08.547-.087.99-.01.604-.023.707-.164 1.21-.129.46-.216.857-.324 1.478-.01.05-.126.166-.26.259a1.695 1.695 0 0 0-.585.662l-.089.177.16.418c.2.52.197.515.389.568a.41.41 0 0 0 .306-.018l.148-.062v-.665h.176c.385 0 .677-.44 1.057-1.593.342-1.033.445-1.312.488-1.312.022 0 .04.02.04.046 0 .024.079.17.176.323.203.322.543.658.89.88.216.139.245.175.272.344.016.105.11.428.207.718.098.29.205.682.238.871.079.44.17.565.516.706.323.133.501.145.613.045zm-1.75-7.508c.016-.103.062-.212.102-.242.15-.114.76-.035.76.098 0 .062-.134.11-.316.11a.275.275 0 0 0-.204.11.266.266 0 0 1-.229.11h-.142z"/></g></g></svg>