<svg xmlns="http://www.w3.org/2000/svg" width="32" height="32" version="1"><rect width="28.203" height="28.203" x="1.898" y="1.898" ry="5.575" fill="#999" fill-rule="evenodd"/><path d="M8.137 12.44H7.98a2.292 2.292 0 0 0-2.297 2.299v7.244a2.291 2.291 0 0 0 2.297 2.296h16.04a2.291 2.291 0 0 0 2.297-2.296v-7.244a2.292 2.292 0 0 0-2.297-2.298h-.157v5.564c0 .503-.203.955-.531 1.283-.328.328-.78.53-1.283.53H9.951a1.807 1.807 0 0 1-1.813-1.813z" fill="#e6e6e6"/><path d="M8.137 12.44v5.565c0 .503.203.955.531 1.283.328.328.78.53 1.283.53h12.098a1.807 1.807 0 0 0 1.813-1.813v-5.564z" fill="#5b5b5b"/><rect width="13.829" height="2.6" x="9.086" y="21.679" rx="0" ry="0" fill="#525252"/><path fill="#ccc" d="M9.967 22.636h12.067v3.579H9.967z"/><path fill="#ccc" d="M10.868 22.636h10.265v2.725H10.868z"/><circle cx="24.518" cy="21.901" r=".664" fill="#fff"/><path fill="#ccc" d="M9.856 5.785h12.067V13.9H9.856z"/><path fill="#ccc" d="M10.757 6.583h10.265v7.316H10.757z"/></svg>