<svg xmlns="http://www.w3.org/2000/svg" version="1" width="32" height="32"><path d="M30.102 20.613c-.392.357-.864.75-1.018.838-.412.235-.837.281-1.219.406-.382.126-.721.33-.963.881-.089.204-.092.517-.123.787-.03.271-.087.5-.285.534-.692.117-3.086.04-3.418.27-1.507.859-3.357 1.351-5.02 1.825-.317.09-.824 1.104-1.152 1.229-.386.147-.806.158-1.244.092-.438-.066-.894-.21-1.351-.371-.915-.324-1.835-.72-2.633-.72-1.045 0-2.492.516-3.938.852-.723.168-1.445.29-2.119.282-.673-.01-1.298-.151-1.822-.512-.458-.637-.918-1.032-1.438-1.283-.067-.033-.163-.027-.232-.055.539 2.518 2.662 4.434 5.346 4.434h17.052a5.565 5.565 0 0 0 5.577-5.577z" fill="#4d4d4d" fill-rule="evenodd"/><path d="M7.473 1.898a5.561 5.561 0 0 0-5.575 5.575v17.052c0 .406.148.763.229 1.143.07.028.165.022.232.055.52.251.98.646 1.438 1.283.524.36 1.149.502 1.822.512.674.009 1.396-.114 2.12-.282 1.445-.336 2.892-.851 3.937-.851.798 0 1.718.395 2.633.719.457.161.913.305 1.351.37.438.067.858.056 1.244-.091.328-.125.835-1.138 1.153-1.229 1.662-.474 3.512-.966 5.02-1.826.33-.228 2.725-.152 3.417-.27.198-.033.255-.262.285-.533.03-.27.034-.583.123-.787.242-.55.581-.755.963-.88.382-.126.807-.172 1.219-.407.154-.088.626-.481 1.018-.838V7.473a5.563 5.563 0 0 0-5.577-5.575z" fill="#4ab1f1" fill-rule="evenodd"/><path d="M12.097 26.922c-.618-.306-.74-.81-.47-.976.328-.203.14-1.382-.432-2.708-.561-1.303-.57-1.343-.31-1.631.602-.673.571-.71-.503-.607-2.982.288-3.086.781-4.115 1.209-1.355.563-2.576.758-2.576.6 0-.066.18-.171.398-.233l.399-.111-.423-.085c-.42-.085-.42-.087.435-.65 2.514-2.554 4.812-5.62 8.101-7.348.412-.21.884-.52.985-.741.095-.21.173-1.29.173-2.031 0-1.574.254-2.412 1.205-2.697.742-.097.619-.14 1.28.27.44.275 1.004 1.099 1.486 1.158 1.92.238 3.711.971 4.012 1.458.055.088-.09.062-.322-.058-1.253-.648-3.887-1.09-4.816-.649-.76.36-.31.689-.04 2.216.364 2.072.107 3.726-.755 4.856-.207.272-.77.784-1.252 1.138-.481.355-1.47.808-1.573 1.008-.104.2-.315.524-.468.719-.24.305-.282.611-.295 2.186-.01 1.154.044 1.903.146 2.026.088.106.12.355.071.552-.1.402.498 1 1.097 1 .189 0 .47.095.625.212.26.196.225.213-.443.217-.453.005-1.235-.11-1.62-.3zm-.34-4.126a6.7 6.7 0 0 1 .092-1.087c.118-.691-.064-.82-.365-.257-.227.424-.23 1.1-.007 1.516.224.418.297.373.28-.172z" fill="#4d4d4d"/></svg>