<svg xmlns="http://www.w3.org/2000/svg" width="32" height="32" version="1"><g transform="translate(46.78 -.542)"><path d="M-39.307 2.44a5.561 5.561 0 0 0-5.574 5.575v8.916h28.203V8.015a5.561 5.561 0 0 0-5.574-5.574z" fill="#8e8e8e" fill-rule="evenodd"/><path fill="#e6e6e6" d="M-39.672 7.339h17.79v10.657h-17.79z"/><path fill="gray" d="M-37.893 11.602h4.447v3.197h-4.447zM-28.109 11.602h4.447v3.197h-4.447z"/><path d="M-16.678 16.931h-28.203v8.139a5.561 5.561 0 0 0 5.574 5.574h17.055a5.561 5.561 0 0 0 5.574-5.574z" fill="#4d4d4d" fill-rule="evenodd"/><rect ry="1.066" rx="1.066" y="21.194" x="-39.303" height="2.131" width="17.052" fill="gray"/><rect ry="1.066" rx="1.066" y="25.457" x="-37.172" height="2.131" width="12.789" fill="gray"/></g></svg>