<svg xmlns="http://www.w3.org/2000/svg" height="32" width="32"><rect width="28.203" height="28.203" x="1.898" y="1.898" ry="5.575" fill="#fecd38" fill-rule="evenodd"/><g transform="translate(45.894 3.369)"><path d="M-29.938 2.421c-3.912 0-8.342 3.255-9.305 6.857-.453 2.712.075 4.625 1.443 5.939.037.384.11.767.078 1.15 0 .012-.003.023-.004.035a1.727 1.727 0 0 1-.035.216c-.007.03-.018.06-.026.089-.017.055-.032.11-.055.164-.02.046-.047.091-.072.137-.023.042-.042.085-.07.127a1.953 1.953 0 0 1-.206.262c-.32.34-.599.552-.838.69-.718.415-1.077.16-1.077.67 0 .554 1.264 1.556 2.422 1.182a1.72 1.72 0 0 0 .523-.276 2.05 2.05 0 0 0 .246-.224 8.987 8.987 0 0 0 .677-.814c.02.171.008.388-.075.718-.33 1.315-2.077 1.204-1.24 2.138.648.723 2.586.751 3.657-.189-.427.969-1.076 1.55.172 1.55 1.914 0 3.829-1.361 3.829-3.403 0 2.042 1.914 3.403 3.829 3.403 1.248 0 .598-.581.171-1.55 1.072.94 3.01.912 3.658.189.836-.934-.91-.823-1.24-2.138-.084-.33-.095-.548-.076-.719.173.238.389.507.677.815 1.277 1.361 3.191 0 3.191-.681s-.638 0-1.914-1.361c-.713-.76-.44-1.52-.385-2.28 1.476-1.335 1.959-3.234 1.35-5.839-1.36-3.861-5.393-6.857-9.305-6.857z" fill="#fff"/><ellipse cx="-33.541" cy="8.62" ry="1.823" rx="1.459" fill="#fecd38"/><ellipse cx="-32.812" cy="8.62" ry="1.094" rx=".729" fill="#3f3f3f"/><ellipse cx="-25.555" cy="8.547" ry="1.021" rx=".766" fill="#3f3f3f"/><ellipse cx="-26.248" cy="8.62" ry="1.823" rx="1.459" fill="#fecd38"/><ellipse cx="-25.519" cy="8.62" ry="1.094" rx=".729" fill="#3f3f3f"/></g></svg>