<svg xmlns="http://www.w3.org/2000/svg" height="32" width="32" version="1"><path d="M7.475 1.891a5.563 5.563 0 0 0-5.577 5.574v8.528h28.204V7.465a5.561 5.561 0 0 0-5.575-5.574z" fill="#ececec" fill-rule="evenodd"/><path style="line-height:normal;font-variant-ligatures:normal;font-variant-position:normal;font-variant-caps:normal;font-variant-numeric:normal;font-variant-alternates:normal;font-feature-settings:normal;text-indent:0;text-align:start;text-decoration-line:none;text-decoration-style:solid;text-decoration-color:#000;text-transform:none;text-orientation:mixed;white-space:normal;shape-padding:0;isolation:auto;mix-blend-mode:normal;solid-color:#000;solid-opacity:1" d="M22.98 7.565l-.654-.003-.574-.005c-.852-2.38-3.124-4.09-5.795-4.09-2.609 0-4.838 1.632-5.734 3.927l-.035.08a.135.135 0 0 0-.015.05c0 .012-.01.027-.024.032-.014.006-.319.01-.677.01H8.82v.55l.578.003c.505.004.578.008.573.029l-.036.14c-.038.153-.11.575-.131.764a5.062 5.062 0 0 0-.03.692c.003.772.132 1.466.403 2.18.224.592.58 1.2.993 1.698.845 1.02 1.911 1.698 3.228 2.053.266.072.785.155 1.09.174l.16.011v.94h.566v-.94l.138-.011a4.91 4.91 0 0 0 .37-.04 6.144 6.144 0 0 0 1.173-.274 6.163 6.163 0 0 0 3.096-2.368c.036-.052.073-.103.108-.156.022-.034.043-.07.064-.105.6-.95.954-2.073.954-3.279 0-.52-.072-1.022-.194-1.504.051-.004.229-.007.5-.007h.557v-.275zm-1.572 2.063a5.44 5.44 0 0 1-5.194 5.437V12.49h2.255l.064-.038a.314.314 0 0 0 .1-.1c.034-.06.036-.08.036-.42 0-.375-.003-.39-.077-.47-.062-.066-.122-.088-.257-.093l-.123-.005.651-.65.652-.652.17.168c.11.108.19.173.223.182.06.017.135 0 .182-.042.017-.015.212-.396.435-.846.584-1.18.66-1.33.68-1.357.129.465.203.954.203 1.46zm-.27-1.695l-.492.243-1.16.574a8.49 8.49 0 0 0-.664.35.177.177 0 0 0-.04.194c.01.028.091.12.178.207l.157.157-.857.857-.858.857h-3.004l-1.84-1.839-1.733-1.732a5.442 5.442 0 0 1 5.132-3.624 5.445 5.445 0 0 1 5.18 3.756zm-5.49 4.557v2.573a5.44 5.44 0 0 1-5.01-6.62c.087.07.524.497 1.424 1.397l1.533 1.532h-.12c-.139 0-.192.017-.256.077-.086.081-.088.098-.088.484 0 .35.001.36.038.422a.311.311 0 0 0 .1.099l.063.036h1.158z" color="#000" font-weight="400" font-family="sans-serif" overflow="visible" fill="#666"/><path style="line-height:normal;font-variant-ligatures:normal;font-variant-position:normal;font-variant-caps:normal;font-variant-numeric:normal;font-variant-alternates:normal;font-feature-settings:normal;text-indent:0;text-align:start;text-decoration-line:none;text-decoration-style:solid;text-decoration-color:#000;text-transform:none;text-orientation:mixed;white-space:normal;shape-padding:0;isolation:auto;mix-blend-mode:normal;solid-color:#000;solid-opacity:1" d="M25.605 7.556h-3.853v.56h3.292v9.753h.56V8.116zM6.382 7.55h3.853v.56H6.942v9.754h-.56V8.11z" color="#000" font-weight="400" font-family="sans-serif" overflow="visible" fill="#666"/><path d="M6.572 24.38a.685.685 0 0 0-.011-.665.642.642 0 0 0-.563-.322c-.4 0-.664.26-.664.655 0 .126.037.27.092.36.124.204.355.301.584.296.228-.006.454-.116.562-.324z" fill="#666" fill-rule="evenodd"/><path d="M7.674 20.516c0-.216-.021-.28-.143-.418-.26-.295-.647-.331-.937-.088-.193.163-.233.268-.215.565.013.206.041.275.172.41.277.286.702.264.978-.05.124-.142.145-.201.145-.419z" fill="#46719d" fill-rule="evenodd"/><path d="M9.795 28.774c0-.317-.129-.584-.385-.803l-.183-.158-.022-1.566c-.024-1.773-.03-1.817-.361-2.158-.259-.267-.557-.368-1.098-.37l-.377-.002-.14-.289c-.238-.49-.718-.77-1.288-.752-.567.019-1.042.38-1.244.946-.112.314-.083.658.057.963.14.304.388.567.713.716.34.157.705.162 1.027.041.322-.12.603-.367.772-.714l.1-.205h.413c.397 0 .422.006.553.136l.137.137v1.537l-.002 1.535-.19.088a.986.986 0 0 0-.322.27c-.157.216-.226.46-.209.695.017.235.12.464.307.65.326.327.761.38 1.115.239a.987.987 0 0 0 .627-.936zM6.572 24.38c-.108.208-.334.318-.562.324a.655.655 0 0 1-.584-.295.755.755 0 0 1-.092-.361c0-.395.265-.655.664-.655.25 0 .452.133.563.322.11.19.13.436.011.665z" fill="#666" fill-rule="evenodd"/><path d="M9.795 28.774a.987.987 0 0 1-.627.936 1.02 1.02 0 0 1-1.115-.239 1.023 1.023 0 0 1-.307-.65 1.052 1.052 0 0 1 .21-.695.986.986 0 0 1 .321-.27l.19-.088.002-1.535v-1.537l-.137-.137c-.13-.13-.156-.136-.553-.136h-.414l-.1.205c-.168.347-.449.594-.77.714-.323.121-.688.116-1.028-.04a1.46 1.46 0 0 1-.713-.717 1.279 1.279 0 0 1-.057-.963c.202-.566.677-.927 1.244-.946.57-.018 1.05.262 1.288.752l.14.29.377.001c.541.002.84.103 1.098.37.33.34.338.385.361 2.158l.022 1.566.183.158c.256.22.385.486.385.803z" fill="#666" fill-rule="evenodd"/><path d="M13.43 25.1a.975.975 0 0 0-.438-1.025l-.224-.143.029-1.013c.02-.722.007-1.186-.065-1.52a1.256 1.256 0 0 0-.42-.732c-.453-.41-.698-.455-2.492-.455H8.39l-.078-.204a1.373 1.373 0 0 0-.67-.714 1.382 1.382 0 0 0-.975-.118 1.43 1.43 0 0 0-.98.997c-.09.324-.037.672.119.968.155.297.414.542.738.664.334.126.822.109 1.11-.039.24-.123.552-.46.632-.681l.063-.172h1.341c.89 0 1.406.016 1.727.082.32.066.446.182.55.386.102.198.106.256.106 1.391 0 .927-.014 1.184-.06 1.184-.103 0-.407.28-.496.459a.98.98 0 0 0-.079.777c.076.258.25.469.467.602a.965.965 0 0 0 .727.127c.446-.107.726-.447.799-.82zm-5.756-4.584c0 .218-.02.277-.145.418-.276.315-.701.337-.978.051-.131-.135-.16-.204-.172-.41-.018-.297.022-.402.215-.565.29-.243.678-.207.937.088.122.139.143.202.143.418z" fill="#ececec" fill-rule="evenodd"/><path d="M15.744 22.522a.64.64 0 0 0-.183-.783.657.657 0 0 0-.813-.037.682.682 0 0 0-.156.933c.148.209.38.296.603.274a.675.675 0 0 0 .55-.387z" fill="#666" fill-rule="evenodd"/><path d="M16.488 22.083c-.067-.474-.339-.852-.779-1.086-.16-.085-.274-.105-.596-.106-.354 0-.425.013-.648.137a1.4 1.4 0 0 0-.711.96c-.061.272-.014.57.115.835s.338.496.6.637c.261.14.269.149.27.341 0 .169-.018.209-.128.266a.976.976 0 0 0-.506.691 1.032 1.032 0 0 0 1.168 1.211c.339-.054.653-.275.807-.644.184-.44-.034-1.034-.463-1.258-.111-.058-.129-.097-.129-.28 0-.186.015-.214.13-.257.272-.102.51-.323.67-.588.159-.265.24-.576.2-.86zm-.744.44a.675.675 0 0 1-.549.386.653.653 0 0 1-.603-.274.682.682 0 0 1 .156-.933.656.656 0 0 1 .813.037.64.64 0 0 1 .183.783z" fill="#666" fill-rule="evenodd"/><path d="M16.488 22.083c.04.283-.041.594-.2.859-.16.265-.398.486-.67.588-.115.043-.13.071-.13.258 0 .182.018.22.13.279.428.224.646.818.462 1.258-.154.369-.468.59-.807.644a1.032 1.032 0 0 1-1.168-1.21.976.976 0 0 1 .506-.692c.11-.057.128-.097.127-.266 0-.192-.008-.201-.27-.341a1.435 1.435 0 0 1-.599-.637 1.284 1.284 0 0 1-.115-.834 1.4 1.4 0 0 1 .71-.961c.224-.124.295-.137.65-.137.32 0 .435.02.595.106.44.234.712.612.78 1.086z" fill="#666" fill-rule="evenodd"/><path d="M18.426 20.641c.017-.244.007-.287-.112-.427-.138-.165-.366-.284-.54-.284-.166 0-.478.173-.569.315-.133.208-.088.629.086.81a.853.853 0 0 0 .313.194.66.66 0 0 0 .667-.194c.11-.114.139-.193.155-.414z" fill="#46719d" fill-rule="evenodd"/><path d="M19.14 20.368a1.375 1.375 0 0 0-.433-.787 1.377 1.377 0 0 0-.832-.34c-.34-.024-.66.078-.916.271a1.47 1.47 0 0 0-.533.827c-.073.292-.015.62.13.904.147.283.382.522.663.635l.187.074V23.999l-.129.068a1.03 1.03 0 0 0-.525.895c0 .281.114.535.3.72a1.032 1.032 0 0 0 1.759-.72c0-.369-.215-.731-.528-.895l-.129-.068V21.94l.13-.049c.29-.109.533-.335.689-.611.155-.277.225-.604.168-.912zm-.714.273c-.016.22-.045.3-.155.414a.66.66 0 0 1-.667.194.853.853 0 0 1-.313-.194c-.174-.181-.22-.602-.086-.81.09-.142.403-.315.568-.315.175 0 .403.12.541.284.119.14.13.183.112.427z" fill="#ececec" fill-rule="evenodd"/><path d="M25.3 26.8a.658.658 0 0 0-.368-.604.652.652 0 0 0-.766.113.652.652 0 0 0-.133.762.667.667 0 0 0 1.268-.272zM25.758 20.837a.64.64 0 0 0-.184-.784.656.656 0 0 0-.812-.035.68.68 0 0 0-.157.932c.149.208.38.297.604.275a.678.678 0 0 0 .549-.388z" fill="#46719d" fill-rule="evenodd"/><path d="M26.416 20.174a1.39 1.39 0 0 0-.484-.683 1.413 1.413 0 0 0-.729-.276 1.32 1.32 0 0 0-1.322.746c-.163.334-.176.816-.031 1.143l.093.213-1.158 1.647c-1.418 2.016-1.658 2.377-1.812 2.714-.112.244-.126.34-.164 1.225l-.041.959-.16.133c-.171.14-.294.338-.352.568-.02.077-.024.225-.01.328.056.415.318.714.647.842.328.128.723.084 1.043-.185a1 1 0 0 0 .337-.94 1.04 1.04 0 0 0-.627-.795l-.181-.074.021-.816c.022-.79.027-.824.158-1.073.075-.141.737-1.107 1.47-2.146l1.331-1.89.19.07c.253.094.747.088.982-.012.332-.142.588-.4.733-.707.144-.307.176-.66.066-.99zm-.658.663a.678.678 0 0 1-.549.388.654.654 0 0 1-.604-.275.68.68 0 0 1 .157-.932.656.656 0 0 1 .812.035.64.64 0 0 1 .184.784zM19.441 30.094c0-1.058.052-2.118 0-2.29a1.43 1.43 0 0 0-.757-.862l-.317-.156H11.72l-.313.154a1.413 1.413 0 0 0-.744.82c-.074.216-.082.495-.084 2.334z" fill="#ececec" fill-rule="evenodd"/><path d="M24.902 30.018c.004-.205.026-.063.03-.402l.015-1.475.217-.09c.45-.186.805-.731.805-1.236 0-.41-.12-.696-.418-.994-.216-.216-.325-.284-.543-.348-.347-.1-.696-.069-.994.073a1.408 1.408 0 0 0-.69.724c-.05.115-.08.314-.082.516-.003.56.277 1.002.791 1.252l.205.1v1.294c0 .326-.009.41-.013.662h.3c.134 0 .246-.067.377-.076zm.399-3.219a.666.666 0 0 1-1.268.272.652.652 0 0 1 .133-.762.652.652 0 0 1 .766-.113.658.658 0 0 1 .369.603z" fill="#ececec" fill-rule="evenodd"/><path style="line-height:normal;font-variant-ligatures:normal;font-variant-position:normal;font-variant-caps:normal;font-variant-numeric:normal;font-variant-alternates:normal;font-feature-settings:normal;text-indent:0;text-align:start;text-decoration-line:none;text-decoration-style:solid;text-decoration-color:#000;text-transform:none;text-orientation:mixed;white-space:normal;shape-padding:0;isolation:auto;mix-blend-mode:normal;solid-color:#000;solid-opacity:1" d="M16.214 15.065h-.56v3.178h.56z" color="#000" font-weight="400" font-family="sans-serif" overflow="visible" fill="#666"/><path d="M30.102 15.993H1.898v8.527a5.561 5.561 0 0 0 5.575 5.574h3.105c.002-1.838.01-2.118.084-2.334.125-.362.376-.639.744-.82l.313-.154h6.648l.317.156c.375.185.649.495.757.861.052.173 0 1.233 0 2.291h4.784c.004-.251.013-.336.013-.662v-1.295l-.205-.1c-.514-.249-.794-.692-.79-1.251 0-.202.032-.4.081-.516.143-.333.391-.583.69-.724.298-.142.647-.174.994-.073.218.064.327.132.543.348.297.298.418.584.418.994 0 .505-.355 1.05-.805 1.236l-.217.09-.015 1.475c-.004.34-.026.197-.03.402 2.902-.203 5.2-2.543 5.2-5.498zm-3.686 4.181c.11.331.078.684-.066.99-.144.307-.4.566-.733.708-.235.1-.73.106-.982.011l-.19-.07-1.332 1.89c-.732 1.04-1.394 2.006-1.468 2.147-.132.25-.137.284-.159 1.073l-.021.816.181.074c.355.148.572.46.627.795a1 1 0 0 1-.337.94c-.32.269-.715.313-1.043.185a1.032 1.032 0 0 1-.647-.842c-.014-.103-.01-.25.01-.328.058-.23.18-.427.351-.568l.16-.133.042-.959c.038-.885.052-.98.164-1.225.154-.337.394-.698 1.812-2.714l1.158-1.647-.093-.213c-.145-.327-.132-.81.03-1.142a1.32 1.32 0 0 1 1.323-.747 1.39 1.39 0 0 1 1.213.959zm-7.275.194c.057.308-.013.635-.168.912a1.355 1.355 0 0 1-.69.611l-.129.05v2.058l.13.068c.312.164.527.526.527.895a1.028 1.028 0 0 1-1.03 1.02c-.284 0-.542-.115-.728-.3a1.01 1.01 0 0 1-.301-.72c0-.369.212-.731.525-.895l.13-.068V21.952l-.188-.074c-.281-.113-.516-.352-.662-.635-.146-.283-.204-.612-.131-.904a1.47 1.47 0 0 1 .533-.827c.255-.193.575-.295.916-.271.327.022.612.144.832.34.22.196.374.465.434.787zM13.43 25.1a1.048 1.048 0 0 1-.8.82.965.965 0 0 1-.726-.126 1.056 1.056 0 0 1-.467-.602.98.98 0 0 1 .079-.777c.09-.179.393-.46.496-.46.046 0 .06-.256.06-1.183 0-1.135-.004-1.193-.105-1.39-.105-.205-.23-.321-.551-.387-.32-.066-.836-.082-1.727-.082H8.348l-.063.172c-.08.222-.393.558-.633.681-.287.148-.775.165-1.109.04a1.404 1.404 0 0 1-.738-.665 1.334 1.334 0 0 1-.12-.968 1.43 1.43 0 0 1 .981-.997c.322-.087.674-.035.975.118.3.152.551.404.67.714l.078.204H9.82c1.794 0 2.04.045 2.493.455.217.196.348.399.42.732.071.334.084.798.064 1.52l-.03 1.013.225.143c.378.242.51.651.438 1.025z" fill="#46719d" fill-rule="evenodd"/><path d="M9.078 26.814a.658.658 0 0 0-.369-.604.652.652 0 0 0-.765.114.652.652 0 0 0-.133.761.667.667 0 0 0 1.267-.271z" fill="#46719d" fill-rule="evenodd"/><path d="M8.68 30.033c.004-.205.026-.063.03-.403l.015-1.474.217-.09c.45-.186.804-.732.804-1.237 0-.41-.12-.696-.418-.994-.215-.215-.324-.284-.543-.347-.347-.101-.695-.07-.994.072a1.408 1.408 0 0 0-.69.725c-.049.115-.08.313-.081.515-.004.56.277 1.002.79 1.252l.206.1v1.295c0 .325-.01.41-.014.662h.301c.134 0 .245-.067.377-.076zm.398-3.22a.666.666 0 0 1-1.267.272.652.652 0 0 1 .133-.761.652.652 0 0 1 .765-.114.658.658 0 0 1 .37.604z" fill="#ececec" fill-rule="evenodd"/></svg>