<svg xmlns="http://www.w3.org/2000/svg" width="32" height="32"><rect width="28.203" height="28.203" x="1.898" y="1.898" ry="5.575" fill="#e6e6e6" fill-rule="evenodd"/><path d="M16.424 5.722c2.222 4.922 12.048 17.045-11.83 15.195 17.071 7.48 30.428 1.078 11.83-15.195z" fill="#b3b3b3"/><path d="M14.65 8.006c-7.774-.044-11.295 4.592-4.26 13.047a38.204 38.204 0 0 0 2.16 2.384c.898.911 1.902 1.856 3.026 2.84-.321-.712-.805-1.597-1.32-2.547-.488-.899-.991-1.857-1.434-2.857-1.857-4.199-2.37-8.795 6.307-9.781-.102-.232-.198-.465-.307-.694-.362-.758-.752-1.473-1.127-2.164a23.257 23.257 0 0 0-3.045-.228zm4.748.523l.096.094c.46.47.891.93 1.293 1.379.278.31.523.61.774.912 1.676-.054 3.613-.005 5.845.168-2.82-1.236-5.517-2.057-8.008-2.553z" fill="#999"/><circle cx="21.673" cy="21.715" r="6" fill="#e60000"/><path style="line-height:1.25;font-variant-ligatures:normal;font-variant-position:normal;font-variant-caps:normal;font-variant-numeric:normal;font-variant-alternates:normal;font-feature-settings:normal;text-indent:0;text-align:start;text-decoration-line:none;text-decoration-style:solid;text-decoration-color:#000;text-transform:none;text-orientation:mixed;white-space:normal;shape-padding:0;isolation:auto;mix-blend-mode:normal;solid-color:#000;solid-opacity:1" d="M23.89 17.997l-2.159 2.158-2.159-2.16-1.64 1.64 2.16 2.16-2.159 2.158 1.633 1.632 2.157-2.158 2.158 2.158 1.64-1.64-2.157-2.158 2.158-2.158-.491-.49z" color="#000" font-weight="400" font-size="12.124" font-family="sans-serif" letter-spacing="0" word-spacing="0" overflow="visible" fill="#fff"/></svg>