<svg xmlns="http://www.w3.org/2000/svg" width="32" height="32"><rect ry="5.575" y="1.898" x="1.898" height="28.203" width="28.203" fill="#4b5f59" fill-rule="evenodd"/><path d="M14.425 8.073l-.793 2.06v.88l-.678.21c-2.39.795-3.847 3.065-3.422 5.325.218 1.156.92 2.233 1.955 3 .558.413.605.363.11-.117a4.818 4.818 0 0 1-1.133-1.702c-.243-.622-.243-1.715-.002-2.369.403-1.093 1.143-1.905 2.154-2.361.331-.15.602-.232.602-.232l.414-.135v2.652l-.7.71h3.008l-.72-.71v-5.15zm5.638 4.104c-.019.02.093.152.34.392a4.818 4.818 0 0 1 1.133 1.702c.243.622.243 1.715.002 2.369-.403 1.093-1.143 1.905-2.154 2.361-.331.15-.602.232-.602.232l-.414.135v-2.652l.7-.71H16.06l.72.71v5.15l.795 2.06.793-2.06v-.879l.676-.21c2.39-.795 3.85-3.065 3.424-5.325-.218-1.156-.92-2.233-1.955-3-.28-.206-.43-.296-.45-.275z" fill="#ffbe66"/><path d="M14.412 8.073l-.793 2.06v.3l.793-2.061.795 2.06v-.298zm-.793 2.94l-.678.21c-2.15.715-3.533 2.626-3.48 4.649.085-1.909 1.436-3.67 3.48-4.35l.678-.21zm6.431 1.164c-.019.02.092.152.34.392.139.134.267.28.389.43.873.744 1.48 1.71 1.676 2.752.042.226.052.452.058.677.015-.323.003-.649-.058-.976-.218-1.156-.92-2.234-1.955-3-.28-.207-.43-.296-.45-.275zm-6.431 3.107l-.7.709h.295l.405-.41zm1.588 0v.299l.416.41h.304zm6.488.312c-.013.38-.064.756-.17 1.043-.403 1.093-1.143 1.906-2.154 2.362-.331.149-.602.232-.602.232l-.414.135v.299l.414-.135s.27-.083.602-.232c1.01-.456 1.75-1.269 2.154-2.362.134-.364.186-.861.17-1.342zm-5.649.41l.305.3H18.76l.295-.3h-1.492zm-5.767.7c-.016.483.036.974.172 1.322.178.458.434.889.746 1.274.094.08.176.17.277.246.558.413.605.362.11-.118a4.818 4.818 0 0 1-1.133-1.7c-.107-.275-.16-.645-.172-1.024z" opacity=".2" fill="#fff"/></svg>