<svg xmlns="http://www.w3.org/2000/svg" height="32" width="32" version="1"><path d="M30.102 11.045l-9.942 1.842 9.904 11.824c.003-.065.038-.118.038-.184V11.045z" fill="#e3bf20" fill-rule="evenodd"/><path d="M29.1 27.512l-8.286-9.516-4.578 12.106h8.291c1.962 0 3.59-1.064 4.573-2.59z" fill="#28a226" fill-rule="evenodd"/><path d="M13.45 30.102l3.204-8.993-14.756 2.448v.97a5.561 5.561 0 0 0 5.575 5.575h5.976z" fill="#2977d1" fill-rule="evenodd"/><path d="M1.898 20.955l9.942-1.842L1.936 7.29c-.003.065-.038.118-.038.184v13.482z" fill="#c029c0" fill-rule="evenodd"/><path d="M2.9 4.488c-.532.826-.929 1.748-.964 2.801l9.904 11.824-9.942 1.842v2.602l14.756-2.448-3.205 8.993h2.787l4.578-12.106 8.286 9.516c.532-.826.929-1.748.964-2.801L20.16 12.887l9.942-1.842V8.443l-14.756 2.45 3.203-8.995h-2.785l-4.578 12.106L2.9 4.488z" fill="#343434" fill-rule="evenodd"/><path d="M2.9 4.488l8.286 9.516 4.578-12.106H7.473c-1.962 0-3.59 1.064-4.573 2.59z" fill="#c01728" fill-rule="evenodd"/><path d="M18.549 1.898l-3.203 8.995 14.756-2.45v-.97a5.561 5.561 0 0 0-5.575-5.575H18.55z" fill="#e9721a" fill-rule="evenodd"/></svg>