<svg xmlns="http://www.w3.org/2000/svg" height="32" width="32"><rect width="28.203" height="28.203" x="1.898" y="1.898" ry="5.575" fill="#1c75bc" fill-rule="evenodd"/><path d="M16 4.496A11.504 11.504 0 0 0 4.496 16 11.504 11.504 0 0 0 16 27.504 11.504 11.504 0 0 0 27.504 16 11.504 11.504 0 0 0 16 4.496z" fill="#fff"/><path d="M11.436 11.48l-.708 2.466h9.823l-1.707 4.108H9.313l-.708 2.465h10.19c1.135-.02 2.302-.704 2.748-1.786l1.782-5.32c.42-1.723-1.133-1.932-2.334-1.932zm-1.978 3.287l-.853 2.466h5.688l.854-2.466z" fill="#1c75bc"/></svg>