<svg xmlns="http://www.w3.org/2000/svg" height="32" width="32"><rect width="28.203" height="28.203" x="1.898" y="1.898" ry="5.575" fill="#83b8c0" fill-rule="evenodd"/><path d="M7.246 11.984a1.127.973 75 0 0-.649 1.34l3.11 11.607a1.127.973 75 0 0 1.232.837c3.276-.878 5.122-4.694 4.106-8.487-1.017-3.794-4.523-6.175-7.8-5.297z" fill="#9fdb5f"/><path d="M15.411 6.204a1.2 1.278 0 0 0-1.16 1.277V24.52a1.2 1.278 0 0 0 1.2 1.278h8.796a1.2 1.278 0 0 0 1.051-1.894L16.501 6.865a1.2 1.278 0 0 0-1.09-.66z" fill="#fff"/><path d="M19.849 17.05s-3.15.07-3.15 1.05c0 .979 2.8 3.288 2.8 4.268s-3.15.98-3.15.98" fill="none" stroke="#83b8c0" stroke-width="2.099" stroke-linejoin="round"/><path d="M9.146 13.98c-.065.007-.13.016-.197.01l2.463 9.19c1.395-.997 2.223-3.046 1.604-5.355-.57-2.13-2.102-3.512-3.675-3.844a.61.61 0 0 0-.195-.001z" fill="#83b8c0"/></svg>