<svg xmlns="http://www.w3.org/2000/svg" width="32" height="32" version="1"><rect width="28.203" height="28.203" x="1.898" y="1.898" ry="5.575" fill="#8e8e8e" fill-rule="evenodd"/><g transform="translate(46.639 -2.837)"><path d="M-16.537 21.91v-11.6a5.563 5.563 0 0 0-5.574-5.576h-8.366c.928.008 1.805.111 2.623.319.849.215 1.64.53 2.38.931.738.402 1.425.889 2.062 1.448.637.558 1.226 1.189 1.77 1.877 1.085 1.375 1.99 2.98 2.744 4.699.754 1.72 1.357 3.553 1.84 5.387.225.856.345 1.67.52 2.515zM-30.668 4.734h-8.496a5.565 5.565 0 0 0-5.576 5.577v12.246c.206-1.053.37-2.086.654-3.162.483-1.834 1.086-3.668 1.84-5.387.754-1.72 1.66-3.324 2.746-4.7a14.139 14.139 0 0 1 1.768-1.876 11.322 11.322 0 0 1 2.062-1.448c.74-.4 1.53-.716 2.379-.931.818-.208 1.696-.31 2.623-.319z" fill="#8e8e8e" fill-rule="evenodd"/><path d="M-30.668 4.734c-.927.008-1.805.111-2.623.319-.848.215-1.64.53-2.379.931-.739.402-1.425.889-2.062 1.448A14.139 14.139 0 0 0-39.5 9.309c-1.086 1.375-1.992 2.98-2.746 4.699-.754 1.72-1.357 3.553-1.84 5.387-.283 1.076-.448 2.109-.654 3.162v4.806a5.565 5.565 0 0 0 5.576 5.576h17.053a5.563 5.563 0 0 0 5.574-5.576V21.91c-.176-.844-.296-1.66-.522-2.515-.482-1.834-1.085-3.668-1.84-5.387-.754-1.72-1.658-3.324-2.744-4.7a14.152 14.152 0 0 0-1.77-1.876 11.322 11.322 0 0 0-2.062-1.448 10.239 10.239 0 0 0-2.379-.931 11.051 11.051 0 0 0-2.623-.319z" fill="#b49" fill-rule="evenodd"/><path d="M-21.747 20.168a8.825 8.825 0 1 1-13.231-7.648c1.296-.75 2.703 1.284 4.308 1.284 1.663 0 3.318-2.001 4.646-1.201a8.82 8.82 0 0 1 4.277 7.565z" fill="#69e27d"/><circle r="5.516" cy="20.168" cx="-30.572" fill="#00a200"/><path d="M-42.155 12.997s2.673-2.22 4.633-2.206c2.535.017 4.415 3.31 6.95 3.31s4.415-3.293 6.95-3.31c1.96-.013 4.633 2.206 4.633 2.206v0" fill="none" stroke="#3f3f3f" stroke-width="3" stroke-linecap="round" stroke-linejoin="round"/></g></svg>