<svg xmlns="http://www.w3.org/2000/svg" height="32" width="32" version="1"><g transform="translate(47.66 -2.723)"><path d="M-40.186 4.621a5.565 5.565 0 0 0-5.576 5.576V27.25c0 2.635 1.85 4.73 4.3 5.318V21.254c0-1.485.244-2.9.704-4.188a10.456 10.456 0 0 1 1.996-3.42 9.22 9.22 0 0 1 3.112-2.304c1.202-.545 2.561-.846 4.046-.846 1.486 0 2.844.301 4.047.846a9.22 9.22 0 0 1 3.112 2.304 10.46 10.46 0 0 1 1.998 3.42c.46 1.287.705 2.703.705 4.188v11.29c2.392-.627 4.183-2.7 4.183-5.294V10.197a5.563 5.563 0 0 0-5.574-5.576z" fill="#ccc" fill-rule="evenodd"/><circle r="4.034" cx="-37.429" cy="15.427" fill="#6d4c41"/><circle r="4.034" cx="-25.776" cy="15.427" fill="#6d4c41"/><path d="M-21.742 32.545V21.254c0-1.485-.245-2.9-.705-4.188a10.46 10.46 0 0 0-1.998-3.42 9.22 9.22 0 0 0-3.112-2.304c-1.203-.545-2.561-.846-4.047-.846-1.485 0-2.844.301-4.046.846a9.22 9.22 0 0 0-3.112 2.304 10.456 10.456 0 0 0-1.996 3.42 12.433 12.433 0 0 0-.705 4.188v11.314c.422.102.824.256 1.277.256h17.053c.494 0 .935-.16 1.39-.28z" fill="#a1887f" fill-rule="evenodd"/><path fill="#fff" d="M-34.292 23.942h2.689v3.586h-2.689z"/><path fill="#f2f2f2" d="M-31.603 23.494h2.689v4.034h-2.689z"/><path d="M-34.2 21.12c-1.238-.038-1.885 2.033-1.885 3.27a2.241 2.241 0 0 0 2.241 2.242c1.141 0 2.226-.996 2.226-.996h.032s1.084.994 2.224.996a2.241 2.241 0 0 0 2.241-2.241c0-1.238-.608-3.076-1.845-3.113z" fill="#6d4c41"/><path d="M-29.026 21.03c.264 1.158-1.463 2.464-2.577 2.464-1.114 0-2.897-1.292-2.633-2.465.203-.899 1.52-.84 2.633-.84 1.114 0 2.377-.04 2.577.84z" fill="#3e2723"/><g transform="matrix(.09805 0 0 .09805 -85.835 690.016)" stroke-width="1.116"><circle r="22.857" cx="502.86" cy="-6853.1" fill="#fefefe"/><circle r="9.143" cx="-498.29" cy="-6857.7" transform="scale(-1 1)" fill="#333"/></g><g transform="matrix(.09805 0 0 .09805 -75.974 690.016)" stroke-width="1.116"><circle r="22.857" cx="502.86" cy="-6853.1" fill="#fefefe"/><circle r="9.143" cx="-498.29" cy="-6857.7" transform="scale(-1 1)" fill="#333"/></g></g></svg>