<svg xmlns="http://www.w3.org/2000/svg" height="32" width="32" version="1"><rect width="28.203" height="28.203" x="1.898" y="1.898" ry="5.575" fill="#ececec" fill-rule="evenodd"/><g stroke-width="1.362" fill="#b3b3b3"><path d="M6.922 7.263h18.156v3.331H6.922zM6.922 12.204h18.156v3.331H6.922zM6.922 17.145h18.156v3.332H6.922zM6.922 22.087h18.156v3.331H6.922z"/></g><path d="M15.628 20.917l5.642-9.564c1.777-1.062 5.059-.422 5.039 2.896l-5.612 9.776-4.827 2.474z" fill="#fea"/><path d="M15.789 24.628l.08 1.871 1.675-.858z" fill="#300503"/><path d="M19.162 22.977l-2.026 2.429.397.23 3.164-1.611.062-.117z" fill="#ffe681"/><path d="M25.64 15.415l-5.052-2.906-4.96 8.408 5.134 2.994z" fill="#333"/><path d="M26.308 14.246l-5.025-2.899c-.004.003-.009.003-.013.006l-.682 1.156 5.052 2.906.669-1.166v-.003z" fill="#e3e2db"/><path d="M22.81 10.89a3.48 3.48 0 0 0-1.527.457l5.025 2.899c.013-2.486-1.828-3.468-3.498-3.355z" fill="red"/><path d="M23.992 14.467l-4.83 8.51 1.6.934 4.878-8.496z" fill="#1a1a1a"/><path d="M22.156 13.41l-4.886 8.464 1.892 1.103 4.83-8.51z" fill="#333"/><path d="M21.934 13.283l-4.885 8.462.22.129 4.887-8.463z" fill="#ccc"/></svg>