<svg xmlns="http://www.w3.org/2000/svg" height="32" width="32" version="1"><rect width="28.203" height="28.203" x="1.898" y="1.898" ry="5.575" fill="#f2f2f2" fill-rule="evenodd"/><path d="M16.068 5.799a10.123 10.123 0 0 0-7.175 2.97 10.125 10.125 0 0 0-2.973 7.176 10.134 10.134 0 0 0 2.973 7.178 10.123 10.123 0 0 0 7.176 2.97c1.401 0 2.738-.283 3.952-.796a10.152 10.152 0 0 0 3.225-2.174 10.156 10.156 0 0 0 2.176-3.225 10.13 10.13 0 0 0 .797-3.953 10.12 10.12 0 0 0-.797-3.95 10.156 10.156 0 0 0-2.176-3.225 10.152 10.152 0 0 0-3.225-2.174 10.134 10.134 0 0 0-3.953-.797z" fill="#f2f2f2" fill-rule="evenodd"/><path d="M29.7 26.525l-4.993-4.296a10.746 10.746 0 0 0 1.512-2.922c.353-1.057.545-2.187.545-3.362a10.646 10.646 0 0 0-3.135-7.558 10.658 10.658 0 0 0-7.56-3.133 10.647 10.647 0 0 0-7.56 3.133 10.647 10.647 0 0 0-3.133 7.559 10.658 10.658 0 0 0 3.134 7.56 10.646 10.646 0 0 0 7.559 3.135c1.368 0 2.675-.26 3.876-.73a10.763 10.763 0 0 0 3.243-2.003l4.917 4.81c.7-.595 1.258-1.32 1.594-2.193zM16.067 5.8c1.402 0 2.74.283 3.953.797a10.152 10.152 0 0 1 3.225 2.174c.918.918 1.662 2.01 2.176 3.224a10.12 10.12 0 0 1 .797 3.951 10.13 10.13 0 0 1-.797 3.953 10.156 10.156 0 0 1-2.176 3.225c-.918.918-2.01 1.66-3.225 2.174a10.134 10.134 0 0 1-3.953.797 10.123 10.123 0 0 1-7.175-2.971 10.134 10.134 0 0 1-2.973-7.178A10.125 10.125 0 0 1 8.893 8.77a10.123 10.123 0 0 1 7.176-2.97z" fill="#333" fill-rule="evenodd"/><path d="M7.473 1.898a5.561 5.561 0 0 0-5.575 5.575v17.052a5.563 5.563 0 0 0 5.575 5.577h17.054c1.385 0 2.606-.554 3.578-1.383l-4.918-4.81a10.763 10.763 0 0 1-3.242 2.001 10.59 10.59 0 0 1-3.877.73 10.646 10.646 0 0 1-7.558-3.134 10.658 10.658 0 0 1-3.133-7.56 10.647 10.647 0 0 1 3.133-7.56 10.647 10.647 0 0 1 7.559-3.133 10.658 10.658 0 0 1 7.56 3.134 10.646 10.646 0 0 1 3.135 7.559c0 1.174-.192 2.304-.545 3.36a10.746 10.746 0 0 1-1.512 2.923l4.992 4.296c.24-.623.403-1.29.403-2V7.473a5.561 5.561 0 0 0-5.575-5.575z" fill="#f2f2f2" fill-rule="evenodd"/><g transform="matrix(.9082 0 0 .9082 1.517 1.358)" fill-rule="evenodd" stroke-width="1.101"><rect transform="rotate(-8.266)" ry="3.395" y="9.547" x="4.946" height="17.175" width="17.175" fill="#fff"/><path d="M9.627 8.236a3.389 3.389 0 0 0-2.872 3.85l.06.411c1.183.892 2.394 1.795 3.45 2.598a29.463 29.463 0 0 1 2.127 1.751 12.97 12.97 0 0 1 1.699 1.864c.832-2.22 1.607-3.996 2.346-5.47a32.74 32.74 0 0 1 2.12-3.66c.718-1.068 1.408-1.914 2.103-2.795-.252-.02-.495-.08-.756-.042zm14.181 1.765c-.784.711-1.659 1.421-2.295 2.137a25.15 25.15 0 0 0-2.748 3.726 31.012 31.012 0 0 0-1.955 3.856c-.565 1.315-1.064 2.664-1.563 4.059-1.69-1.887-3.412-3.59-5.173-5.079a37.93 37.93 0 0 0-2.657-2.057l.83 5.719a3.388 3.388 0 0 0 3.85 2.87l10.276-1.492a3.388 3.388 0 0 0 2.872-3.848z" fill="#a24242"/></g></svg>