<svg xmlns="http://www.w3.org/2000/svg" height="32" width="32" version="1"><rect width="28.203" height="28.203" x="1.898" y="1.898" ry="5.575" fill="#333" fill-rule="evenodd"/><g stroke-width="1.086"><path d="M4.953 23.365h3.682v1.84H4.953zM4.953 20.603h3.682v1.841H4.953zM4.953 17.841h3.682v1.841H4.953z" fill="#933333"/><path d="M4.953 15.08h3.682v1.84H4.953zM4.953 12.318h3.682v1.84H4.953z" fill="#f88383"/><path d="M9.556 23.365h3.682v1.84H9.556zM9.556 20.603h3.682v1.841H9.556zM9.556 17.841h3.682v1.841H9.556z" fill="#e8aa34"/><path d="M14.159 23.365h3.682v1.84H14.16zM14.159 20.603h3.682v1.841H14.16zM14.159 17.841h3.682v1.841H14.16z" fill="#76185e"/><path d="M14.159 15.08h3.682v1.84H14.16zM14.159 12.318h3.682v1.84H14.16zM14.159 9.556h3.682v1.841H14.16z" fill="#e272c5"/><path d="M18.762 23.365h3.682v1.84h-3.682zM18.762 20.603h3.682v1.841h-3.682zM18.762 17.841h3.682v1.841h-3.682z" fill="#4ab225"/><path d="M18.762 15.08h3.682v1.84h-3.682zM18.762 12.318h3.682v1.84h-3.682z" fill="#98e97b"/><path d="M23.365 23.365h3.682v1.84h-3.682zM23.365 20.603h3.682v1.841h-3.682zM23.365 17.841h3.682v1.841h-3.682z" fill="#0f3b95"/><path d="M23.365 15.08h3.682v1.84h-3.682zM23.365 12.318h3.682v1.84h-3.682zM23.365 9.679h3.682v1.718h-3.682zM23.365 6.794h3.682v1.841h-3.682z" fill="#4fc2e1"/></g></svg>