<svg xmlns="http://www.w3.org/2000/svg" height="32" width="32" version="1">
 <rect style="opacity:1;fill:#285da4;fill-opacity:1;fill-rule:evenodd;stroke:none;stroke-width:1.03534329;stroke-linecap:round;stroke-linejoin:bevel;stroke-miterlimit:4;stroke-dasharray:none;stroke-dashoffset:0;stroke-opacity:1" width="28.203388" height="28.203388" x="1.8983059" y="1.8983059" ry="5.575182"/>
 <path style="fill:#f9f9f9" d="m 5.0255393,9.7194152 c 0,0 0.084175,0.3156068 0.1894444,0.4326878 0.461328,0.51309 0.7360577,0.360832 1.7975587,1.026425 1.341533,0.821474 3.1548436,2.497527 3.2976176,2.779629 -1.3953316,2.429933 -0.7621546,4.580524 -0.9270016,4.809516 -0.118634,0.191057 -1.215311,1.395332 -0.862168,1.573283 0.350385,0.175193 0.907691,-0.100011 0.991838,-0.15381 0.1751927,-0.107598 0.3559026,-0.264169 0.2800326,0.04552 -0.1482926,0.633176 -0.8214736,2.15542 0.107598,1.831934 0.113116,-0.06484 1.60846,-1.713299 1.789171,-1.769857 2.974823,0.77595 6.3021,0.420048 6.918032,0.131739 0.320727,0.02138 1.228417,0.592482 1.745718,0.864927 0.517301,0.269685 1.926428,0.945625 1.509138,-0.282791 -0.12967,-0.388321 -1.055983,-1.379468 -0.905621,-1.444304 0.331073,-0.131739 1.150477,0.342108 1.465685,0.431084 0.942867,0.264168 1.069778,-0.102081 0.474537,-0.90769 -0.587653,-0.80561 -0.675939,-0.681457 -0.862167,-1.053224 -0.145535,-0.299345 0,-0.630417 0.107598,-0.711116 0.191057,-0.145534 3.006551,-1.708472 3.666627,-2.306472 0.978043,-0.889066 0,-1.998849 -0.240028,-2.155418 -2.028508,-1.460167 -4.111505,-1.147718 -4.138404,-1.379469 -0.0138,-0.264167 -0.0082,-1.026324 -0.04346,-1.290493 -0.202093,-1.7891696 -1.029084,-1.3387728 -1.1422,-1.3387728 -0.826992,0.12967 -0.522819,1.3953318 -0.172434,2.5865028 0.0269,0.304173 -0.288309,0.169675 -0.474537,-0.151052 C 18.962179,9.5824812 18.695252,9.6121402 18.520059,9.5610992 18.350385,9.5231592 17.752386,9.887344 17.762732,10.577078 17.765532,10.773652 18,11.711691 18,12 c -0.39039,0.342108 -0.409702,1.118059 -0.819404,1.40085 -1.19324,0.247614 -4.060465,-0.589723 -4.418437,-0.627659 -1.239453,-0.23175 -1.780894,0.698012 -1.980227,0.474538 C 9.1734794,11.404761 7.5756547,10.536782 5.6516964,9.79906 5.4584351,9.7249602 5.2390391,9.6677702 5.036867,9.7121302 c -0.00439,9.63e-4 -0.011328,0.0073 -0.011328,0.0073 m 20.17805,0.5534798 c -0.38832,0.41729 -0.320726,1.977468 -0.240027,1.964363 0.395908,-0.0807 0.358662,-2.089894 0.240027,-1.964363 m 1.123578,0.237269 c -0.04552,-0.126911 -1.067019,1.307046 -0.886309,1.834693 0.0807,0.228991 1.023565,-1.433268 0.886309,-1.834693 m -5.304746,2.43821 c 0.0138,-0.0138 0.02966,0.0056 0.04552,0.02138 0.118634,0.393149 0.250372,0.767674 1.031842,0.862167 0.09174,0.01104 -0.433844,0.317968 -0.794574,0.129671 -0.329004,-0.199334 -0.358661,-0.924244 -0.282791,-1.01322 m 2.026439,1.980227 c 0.07242,-0.01104 0.124152,-0.0082 0.175193,0 0.191056,0.04828 -1.386365,0.870444 -1.509139,0.757328 -0.07518,-0.07242 0.840786,-0.665593 1.336704,-0.757328 m 0.409703,0.520059 c 0.164157,0.0138 -0.913208,1.129095 -1.034601,1.013219 -0.08898,-0.0807 0.698011,-1.040118 1.034601,-1.013219"/>
</svg>
