<svg xmlns="http://www.w3.org/2000/svg" height="32" width="32" version="1"><rect width="28.203" height="28.203" x="1.898" y="1.898" ry="5.575" fill="#285da4" fill-rule="evenodd"/><path d="M5.026 9.72s.084.315.189.432c.461.513.736.36 1.798 1.027 1.341.821 3.154 2.497 3.297 2.78-1.395 2.43-.762 4.58-.927 4.809-.118.19-1.215 1.395-.862 1.573.35.175.908-.1.992-.154.175-.107.356-.264.28.046-.148.633-.822 2.155.107 1.832.114-.065 1.609-1.714 1.79-1.77 2.974.776 6.302.42 6.918.131.32.022 1.228.593 1.745.865.518.27 1.927.946 1.51-.282-.13-.389-1.056-1.38-.906-1.445.331-.131 1.15.342 1.466.431.942.265 1.07-.102.474-.907-.588-.806-.676-.682-.862-1.054-.146-.299 0-.63.108-.71.19-.146 3.006-1.71 3.666-2.307.978-.89 0-1.999-.24-2.156-2.028-1.46-4.111-1.147-4.138-1.379-.014-.264-.008-1.026-.044-1.29-.202-1.79-1.029-1.34-1.142-1.34-.827.13-.523 1.396-.172 2.587.027.304-.289.17-.475-.15-.636-1.707-.903-1.677-1.078-1.728-.17-.038-.768.326-.757 1.016.003.197.237 1.135.237 1.423-.39.342-.41 1.118-.82 1.4-1.193.248-4.06-.589-4.418-.627-1.24-.232-1.78.698-1.98.475-1.609-1.843-3.206-2.711-5.13-3.449-.194-.074-.413-.131-.615-.087-.005.001-.011.007-.011.007m20.178.554c-.389.417-.321 1.977-.24 1.964.395-.08.358-2.09.24-1.964m1.123.237c-.045-.127-1.067 1.307-.886 1.835.08.229 1.023-1.433.886-1.835m-5.305 2.438c.014-.013.03.006.046.022.119.393.25.767 1.032.862.092.011-.434.318-.795.13-.329-.2-.358-.925-.283-1.014m2.027 1.98a.531.531 0 0 1 .175 0c.191.049-1.386.871-1.51.758-.074-.072.842-.666 1.338-.757m.41.52c.163.013-.914 1.129-1.035 1.013-.09-.08.698-1.04 1.034-1.013" fill="#f9f9f9"/></svg>