<svg xmlns="http://www.w3.org/2000/svg" height="32" width="32"><g fill-rule="evenodd"><path d="M1.898 16v8.525a5.563 5.563 0 0 0 5.575 5.577h17.052a5.565 5.565 0 0 0 5.577-5.577V16z" fill="#6469bb"/><path d="M1.898 16h28.204V7.473a5.563 5.563 0 0 0-5.577-5.575H7.473a5.561 5.561 0 0 0-5.575 5.575z" fill="#9293ff"/></g><path d="M8.772 5.158h14.456v8.131H8.772m0-8.131M10.579 18.71H21.42v8.132H10.58m0-8.131" fill="#3e3e3e"/><g transform="matrix(.60234 0 0 .60234 -1.781 11.826)" fill="#ccc" stroke-width="1.107"><rect x="13.02" y="12.93" width="3" height="9" ry="0"/><rect x="15.93" y="-19.02" width="3" height="9" transform="rotate(90)" ry="0"/></g><g transform="matrix(.60234 0 0 .60234 7.589 2.015)" fill="#ccc" stroke-width="1.107"><circle cy="33.718" cx="31.964" r="1.5"/><g transform="translate(-4.556 16.288)"><circle cy="17.43" cx="30.52" r="1.5"/><circle transform="rotate(90)" cy="-33.52" cx="14.43" r="1.5"/></g><circle transform="rotate(90)" cy="-28.964" cx="36.718" r="1.5"/></g><path opacity=".2" d="M4.255 12.386h3.614v.904H4.255zM4.255 10.58h3.614v.903H4.255zM4.255 8.772h3.614v.904H4.255zM24.132 12.386h3.614v.904h-3.614zM24.132 10.58h3.614v.903h-3.614zM24.132 8.772h3.614v.904h-3.614z"/></svg>