<svg xmlns="http://www.w3.org/2000/svg" height="32" width="32" version="1"><rect width="28.203" height="28.203" x="1.898" y="1.898" ry="5.575" fill="#8e8e8e" fill-rule="evenodd"/><g transform="translate(36.1 4.56) scale(.7001)" stroke-width="1.428"><path d="M-29.652 31.32a18.413 18.413 0 0 1-2.931-.419c-2.346-.566-4.6-1.784-5.987-3.234l-.166-.173-.155.083c-.425.227-1.031.265-1.448.092-.269-.112-.582-.427-.736-.74-.327-.667-.48-1.908-.48-3.888v-.964l-.104-.024c-.282-.068-.723-.468-.88-.8-.338-.71-.175-1.698.522-3.171.209-.441.655-1.254.948-1.728l.156-.251-.087-.171c-.284-.56.008-1.578.684-2.383l.272-.323-.362-.043c-.642-.077-1.098-.377-1.253-.822a1.26 1.26 0 0 1 .087-.953c.162-.29.95-1.035 1.401-1.327.779-.503 1.751-.916 2.903-1.234l.655-.18.012-1.34c.012-1.43.054-1.912.249-2.87.249-1.225.812-2.615 1.176-2.903.283-.225.74-.28 1.058-.127.268.129.414.312.634.795.23.508 1.423 2.772 1.99 3.781l.356.631.682.166c.376.091 1.05.269 1.498.395.449.125.823.228.833.228.01 0 .018-.095.018-.21 0-.415.236-.802.609-1 .44-.206.923-.103 1.242.05.185.09.504.285.708.432.205.147.379.268.387.268.058 0 2.862-3.084 3.485-3.834l.535-.638c.44-.513 1.308-.415 1.628.184.1.187.263.977.316 1.528.165 1.727-.166 3.813-.96 6.038-.128.358-.244.68-.26.714-.02.048.065.116.387.302a20.25 20.25 0 0 1 1.618 1.068c.444.333 1.272 1.145 1.503 1.476.554.791.746 1.628.49 2.131l-.086.17.155.252c.294.474.74 1.287.948 1.727.698 1.473.86 2.462.523 3.172-.158.332-.598.732-.88.8l-.104.024v1.002c-.002 1.963-.154 3.183-.48 3.85-.154.312-.468.628-.736.74-.439.182-1.131.122-1.514-.131l-.14-.093-.522.486c-.924.86-1.803 1.449-3.011 2.017a13.599 13.599 0 0 1-3.352 1.093c-1.3.25-2.685.345-4.035.28z" fill="#ee3434"/><ellipse cx="-28.709" cy="17.34" ry="6" rx="7" fill="#fff"/><path d="M-28.71 14.34a2 2.5 0 0 0-.69.155 1.333 1.25 0 0 1 .69 1.095 1.333 1.25 0 0 1-1.332 1.25 1.333 1.25 0 0 1-.661-.165 2 2.5 0 0 0-.006.165 2 2.5 0 0 0 2 2.5 2 2.5 0 0 0 2-2.5 2 2.5 0 0 0-2-2.5z" fill="#272727"/><path d="M-28.71 27.46c0 .807-.788 1.88-1.668 1.88-.88 0-1.331-1.112-1.331-1.919 0-.806.827-.355 1.707-.355.88 0 1.293-.413 1.293.394z" fill="#fff"/><path d="M-30.888 26.752c-1.704-.004-3.373-.402-4.821-1.15 1.53 1.122 3.45 1.737 5.433 1.738 4.73 0 8.567-1.777 8.567-6-1.164 4.171-4.823 5.3-9.179 5.412z" fill="#791414"/><path d="M-35.71 8.988l.01-1.034c.009-1.101.039-1.473.18-2.21.18-.946.586-2.017.85-2.24a.735.735 0 0 1 .765-.097c.194.1.3.24.458.613.167.392 1.029 2.137 1.439 2.915l.256.486c.504 1.612-3.62 2.438-3.957 1.567zM-21.631 10.137l.309-1.006c.33-1.073.418-1.44.523-2.184.136-.953.115-2.074-.042-2.34a.562.562 0 0 0-.627-.245c-.196.058-.331.175-.581.506-.263.348-1.537 1.875-2.127 2.55l-.37.423c-.925 1.468 2.359 3.076 2.915 2.295z" fill="#fff"/></g></svg>