<svg xmlns="http://www.w3.org/2000/svg" height="32" width="32"><rect width="28.203" height="28.203" x="1.898" y="1.898" ry="5.575" fill="#fff" fill-rule="evenodd"/><g fill-rule="evenodd"><path d="M2.814 4.586L29.281 27.27c.475-.82.82-1.723.82-2.744V7.475a5.565 5.565 0 0 0-5.576-5.577H7.473c-2.006 0-3.677 1.107-4.659 2.688zM15.42 7.469h11.402v9.775z" fill="#3e50b4"/><path d="M29.281 27.271L2.814 4.586c-.53.854-.916 1.805-.916 2.889v17.052a5.561 5.561 0 0 0 5.575 5.575h17.052c2.068 0 3.794-1.167 4.756-2.83zM5.176 14.53l11.404 9.776H5.176z" fill="#02a8f3"/></g></svg>