<svg xmlns="http://www.w3.org/2000/svg" width="32" height="32" viewBox="0 0 8.47 8.47"><path d="M7.968 5.273L5.273 7.968h1.22c.817 0 1.475-.658 1.475-1.476z" fill="#4b4b4b" fill-rule="evenodd"/><path d="M1.978.502c-.817 0-1.476.659-1.476 1.476v4.514c0 .818.659 1.476 1.476 1.476h3.295l2.695-2.695V1.978c0-.817-.658-1.476-1.476-1.476z" fill="#ffa234" fill-rule="evenodd"/><path d="M3.03 2.903a1.323 1.323 0 0 0-1.211.794H3.031v1.058H1.82a1.323 1.323 0 0 0 1.21.794 1.323 1.323 0 0 0 1.212-.794h2.493V3.697H4.243a1.323 1.323 0 0 0-1.212-.794z" fill="#4b4b4b"/></svg>