<svg xmlns="http://www.w3.org/2000/svg" width="32" height="32" version="1"><rect width="28.203" height="28.203" x="1.898" y="1.898" ry="5.575" fill="#66b036" fill-rule="evenodd"/><path d="M12.397 7.402c-3.152-.005-5.421 1.836-6.113 4.96-.297 1.338-.124 3.21.41 4.456.3.7 1.031 1.733 1.504 2.123.574.474 1.752 1.067 2.431 1.225l.569.13.074.565c.178 1.34.831 2.118 2.072 2.465.693.194 2.936.163 4.055-.055l.691-.135v-.498c0-.43-.026-.488-.193-.42-.107.044-.623.107-1.147.139-1.077.066-1.896-.134-2.295-.559-.286-.305-.574-.976-.574-1.338 0-.23.067-.283.45-.347.774-.131 1.964-.807 2.699-1.535 1.178-1.17 1.753-2.69 1.763-4.664.01-2.075-.787-3.856-2.297-5.13-1.112-.938-2.421-1.38-4.1-1.382zm.002 1.219c.413-.007.844.089 1.24.263.396.175.757.43 1.027.737.445.506.776 1.189.995 1.957.218.767.323 1.62.316 2.466a8.585 8.585 0 0 1-.356 2.434c-.23.745-.573 1.392-1.025 1.852a3.044 3.044 0 0 1-1.33.787 2.768 2.768 0 0 1-1.496.021c-.637-.177-1.205-.593-1.662-1.187-.458-.595-.803-1.37-.992-2.266-.174-.823-.18-2.769-.012-3.644.187-.974.748-2.104 1.299-2.612.623-.574 1.17-.796 1.996-.808zm10.896.351l-.582.033-.58.034-.508.978c-.474.914-.552 1.004-1.191 1.363-.595.336-.682.428-.682.711 0 .321.01.327.602.327h.601l.036 3.294c.032 3.06.05 3.322.255 3.67.236.4.847.793 1.217.784.123-.004.742-.272 1.377-.594l1.155-.586-.473-.076a1.453 1.453 0 0 1-.783-.385c-.4-.4-.467-1.013-.422-3.893l.033-2.16 1.357-.031 1.358-.031v-1.1h-2.77v-1.168z" fill="#fff"/><path d="M22.455 26.076c1.722-.848 2.924-2.72 3.657-5.693.198-.805.395-1.776.438-2.16l.078-.696-.68.548c-.375.302-1.611 1.033-2.748 1.625-3.044 1.586-3.651 2.04-4.128 3.09-.255.56-.276 1.796-.044 2.562.305 1.004.257 1.019 1.72-.506.731-.762 1.861-1.983 2.511-2.714.65-.73 1.223-1.346 1.273-1.366.445-.182-.862 1.429-3.04 3.747-.945 1.005-1.692 1.871-1.66 1.924.03.053.47.075.973.048.75-.04 1.049-.113 1.65-.41z" fill="#ccedcc"/></svg>