<svg xmlns="http://www.w3.org/2000/svg" height="32" width="32" version="1"><rect width="28.203" height="28.203" x="1.898" y="1.898" ry="5.575" fill="#69b155" fill-rule="evenodd"/><path d="M21.35 25.922c-1.608-.217-3.134-1.552-3.63-3.173-.247-.808-.224-1.488.073-2.182l.072-.168-1.23-1.245a764.63 764.63 0 0 0-2.765-2.776l-1.533-1.532-.196.084c-.627.269-1.143.316-1.862.17-.987-.2-1.981-.878-2.705-1.843-.5-.667-.793-1.44-.829-2.182l-.011-.242.198-.194.2-.194.31.309a36.11 36.11 0 0 0 1.198 1.16c.069.056.144.09.261.121.15.04.2.042.582.03.389-.013.43-.018.605-.076.748-.25 1.618-1.131 1.851-1.877.044-.14.049-.192.046-.51-.003-.38-.038-.619-.114-.766-.064-.126-.259-.34-.9-.991-.33-.335-.6-.618-.6-.629 0-.01.086-.103.193-.204l.193-.183.198.004c1.018.026 1.989.496 2.84 1.374.832.859 1.24 1.75 1.285 2.804.019.43-.05.775-.247 1.226l-.083.193 2.75 2.766a1309.32 1309.32 0 0 0 2.755 2.766l.158-.07c.406-.185.816-.285 1.17-.285.755 0 1.489.227 2.15.667.3.2.468.338.756.622.857.847 1.32 1.792 1.383 2.823l.014.225-.194.2-.195.202-.706-.705c-.64-.639-.723-.715-.889-.81l-.183-.104-.454-.006c-.4-.006-.474-.002-.62.035-.362.092-.772.36-1.196.782-.47.469-.72.877-.786 1.287-.045.274-.015.784.06 1.023.061.2.229.397.936 1.104l.613.614-.194.195-.195.195-.157-.002a3.853 3.853 0 0 1-.376-.032zm-14.59-.048c0-.01.375-1.171.833-2.581l.834-2.564 2.063-2.062a148.713 148.713 0 0 1 2.082-2.062c.012 0 .22.2.465.443l.444.444-1.613 1.612-1.612 1.613.288.287.29.287 1.602-1.615c.882-.888 1.612-1.612 1.623-1.607.01.004.464.456 1.008 1.005l.989.998-2.072 2.072-2.072 2.072-.87.284a1996.406 1996.406 0 0 1-4.194 1.362c-.049.016-.089.021-.089.012zm12.2-10.71l-1.002-1.001.574-.58c.316-.318.65-.657.74-.751l.167-.173-.28-.281-.282-.282-.741.741c-.408.408-.751.741-.763.741-.027 0-.887-.86-.887-.887 0-.012.534-.554 1.185-1.206l1.185-1.184 1.743 1.743 1.743 1.743-1.19 1.19-1.19 1.19zm2.813-4.305l-1.738-1.738 1.148-1.148 1.148-1.148 1.743 1.743 1.743 1.743-1.143 1.143a89.55 89.55 0 0 1-1.153 1.143c-.006 0-.793-.782-1.748-1.738z" fill="#fff"/></svg>