<svg xmlns="http://www.w3.org/2000/svg" width="32" height="32" version="1"><path d="M30.102 19.227h-4.457v2.332a5.207 5.207 0 0 0 1.525 3.695 5.207 5.207 0 0 0 1.658 1.117c.266.112.58.107.867.174.245-.629.407-1.302.407-2.02z" fill="#fec006" fill-rule="evenodd"/><path d="M30.102 12.227h-4.457v7h4.457z" fill="#2095f2" fill-rule="evenodd"/><path d="M29.938 6.654c-.374.07-.77.08-1.11.223a5.201 5.201 0 0 0-3.183 4.81v.54h4.457V7.473c0-.291-.122-.54-.164-.819z" fill="#4bae4f" fill-rule="evenodd"/><path d="M8.283 1.898v28.204h16.242c2.372 0 4.361-1.478 5.17-3.557-.286-.067-.6-.062-.867-.174a5.207 5.207 0 0 1-1.658-1.117 5.207 5.207 0 0 1-1.525-3.695v-9.872a5.215 5.215 0 0 1 3.184-4.81c.34-.143.735-.154 1.108-.223-.408-2.68-2.614-4.756-5.412-4.756z" fill="#f34235" fill-rule="evenodd"/><path d="M8.283 30.102V1.898h-.81a5.561 5.561 0 0 0-5.575 5.575v17.052a5.563 5.563 0 0 0 5.575 5.577z" fill="#4f4f4f" fill-rule="evenodd"/><path d="M11.886 10.228v11.998h3.556c6.222 0 6.444-3.777 6.444-5.999 0-2.222-.223-6.109-6.444-5.999zm3.555 2.666c2.667 0 3.445.667 3.445 3.333 0 2.666-.778 3.333-3.445 3.333h-.555v-6.666z" fill="#f9f9f9"/></svg>