<svg xmlns="http://www.w3.org/2000/svg" width="32" height="32" version="1"><g transform="translate(41.312 7.874)"><path d="M-33.84-5.975a5.561 5.561 0 0 0-5.574 5.574v8.916h28.204V-.401a5.561 5.561 0 0 0-5.575-5.574z" fill="#0054ff" fill-rule="evenodd"/><path fill="#e6e6e6" d="M-34.204-1.077h17.79V9.58h-17.79z"/><path fill="gray" d="M-32.425 3.186h4.447v3.197h-4.447zM-22.641 3.186h4.447v3.197h-4.447z"/><path d="M-11.21 8.515h-28.204v8.139a5.561 5.561 0 0 0 5.575 5.574h17.054a5.561 5.561 0 0 0 5.575-5.574z" fill="#4d4d4d" fill-rule="evenodd"/><rect ry="1.066" rx="1.066" y="12.777" x="-33.835" height="2.131" width="17.052" fill="gray"/><rect ry="1.066" rx="1.066" y="17.04" x="-31.704" height="2.131" width="12.789" fill="gray"/></g></svg>