<svg xmlns="http://www.w3.org/2000/svg" height="32" width="32"><g fill-rule="evenodd"><path d="M5.273 2.352a5.56 5.56 0 0 0-3.375 5.12v17.053c0 2.25 1.339 4.153 3.248 5.036.431-.371.858-.742 1.235-1.172a6.927 6.927 0 0 0 1.146-1.776c.558-1.256.74-2.485.782-3.816.042-1.33-.055-2.763-.055-4.422V5.915c0-.542-.03-.895-.15-1.198-.12-.303-.33-.555-.694-.895-.662-.517-1.418-.996-2.137-1.47z" fill="#333"/><path d="M5.273 2.352c.72.474 1.475.953 2.137 1.47.363.34.574.592.694.895.12.303.15.656.15 1.197v12.461c0 1.66.097 3.091.055 4.422-.043 1.33-.224 2.56-.782 3.816a6.927 6.927 0 0 1-1.146 1.776c-.377.43-.804.8-1.235 1.172.713.329 1.49.54 2.329.54h17.052a5.563 5.563 0 0 0 5.575-5.576V7.473a5.561 5.561 0 0 0-5.575-5.575H7.475c-.784 0-1.526.164-2.202.454z" fill="#e97e10"/><path d="M14.499 6.93c1.716.002 5.235.05 5.925.385 3.015 1.694 3.466 3.724 3.402 6.617.084 2.618-.88 5.44-3.402 6.78-.92.446-6.716.446-6.716.446l-.153-14.226s.372-.004.944-.003z" fill="#fff"/><path d="M11.162 14.062c-.074.037.14.56.374.886.357.498.593.79 1.088 1.24.648.59.816.688 1.089.963.272.276.625.794.625.794v8.022c0 .551-.562.9-.743.965-.255.094-.809.274-.809.274v.276h6.303v-.275s-.645-.181-.9-.275c-.181-.066-.64-.414-.647-.965v-8.159c0-.593.525-.737.732-.826.28-.121.68-.139.816-.414.136-.276-.172-.138-.273-.138-.978.006-3.525 0-3.525 0-.665 0-1.314-.09-1.851-.38a4.588 4.588 0 0 1-1.089-.825l-1.09-1.103c-.05-.051-.083-.069-.1-.06zm16.68 0c-.018-.009-.05.009-.1.06l-1.091 1.103a4.588 4.588 0 0 1-1.088.826c-.538.29-1.185.38-1.85.38 0 0-2.549.005-3.527 0-.101-.001-.409-.139-.273.137.136.275.537.293.817.414.207.089.732.233.732.826v8.159c-.007.551-.466.9-.647.965-.256.094-.89.274-.89.274v.276H26.219v-.276s-.554-.18-.81-.274c-.18-.066-.742-.414-.742-.965v-8.022s.353-.518.625-.794c.272-.275.44-.373 1.088-.963.495-.45.732-.742 1.089-1.24.234-.326.448-.85.373-.886z" fill="#c2352a"/></g></svg>