<svg xmlns="http://www.w3.org/2000/svg" xmlns:xlink="http://www.w3.org/1999/xlink" width="32" height="32" version="1"><defs><linearGradient id="f"><stop offset="0"/><stop offset="1"/></linearGradient><linearGradient id="d"><stop offset="0" stop-color="#666"/><stop offset="1" stop-color="#666" stop-opacity="0"/></linearGradient><linearGradient id="e"><stop offset="0" stop-color="#333"/><stop offset="1" stop-color="#666"/></linearGradient><linearGradient id="b"><stop offset="0" stop-color="#eee"/><stop offset="1" stop-color="#eee"/></linearGradient><linearGradient id="c"><stop offset="0"/><stop offset=".661" stop-color="#666"/><stop offset=".926" stop-color="#727272" stop-opacity=".498"/><stop offset="1" stop-color="#7f7f7f" stop-opacity="0"/></linearGradient><linearGradient id="g"><stop offset="0" stop-opacity="0"/><stop offset="1"/></linearGradient><linearGradient id="a"><stop offset="0"/><stop offset="1" stop-opacity="0"/></linearGradient><linearGradient id="h"><stop offset="0" stop-color="#eee"/><stop offset=".798" stop-color="#909090" stop-opacity=".498"/><stop offset="1"/></linearGradient><linearGradient id="i"><stop offset="0" stop-color="#fff"/><stop offset=".5" stop-color="#48ccff" stop-opacity=".415"/><stop offset="1" stop-color="#009aff" stop-opacity="0"/></linearGradient><linearGradient id="j"><stop offset="0" stop-color="#fff"/><stop offset="1" stop-color="#0073ff" stop-opacity=".154"/></linearGradient><linearGradient gradientTransform="matrix(1.39882 0 0 1.93921 -268.423 164.381)" gradientUnits="userSpaceOnUse" xlink:href="#a" id="m" y2="153.527" x2="610.132" y1="-109.117" x1="610.132"/><linearGradient gradientTransform="matrix(1.63177 0 0 1.99319 -480.924 -922.487)" gradientUnits="userSpaceOnUse" xlink:href="#a" id="n" y2="653.242" x2="569.726" y1="786.058" x1="569.726"/><linearGradient gradientUnits="userSpaceOnUse" xlink:href="#f" id="r" y2="626.221" x2="439.176" y1="426.057" x1="439.176"/><linearGradient gradientUnits="userSpaceOnUse" xlink:href="#a" id="t" y2="485.667" x2="595.32" y1="485.667" x1="287.554"/><linearGradient xlink:href="#a" id="k" gradientUnits="userSpaceOnUse" gradientTransform="matrix(1.39882 0 0 1.93921 -268.423 164.381)" x1="610.132" y1="-109.117" x2="610.132" y2="153.527"/><linearGradient xlink:href="#a" id="l" gradientUnits="userSpaceOnUse" gradientTransform="matrix(1.63177 0 0 1.99319 -480.924 -922.487)" x1="569.726" y1="786.058" x2="569.726" y2="653.242"/><linearGradient x1="260.045" y1="606.191" x2="490.045" y2="261.457" id="p" xlink:href="#d" gradientUnits="userSpaceOnUse" gradientTransform="matrix(.04287 0 0 .04287 .285 .285)"/><linearGradient x1="256.616" y1="610.853" x2="489.809" y2="261.334" id="q" xlink:href="#e" gradientUnits="userSpaceOnUse" gradientTransform="matrix(.04229 0 0 .04229 .582 .444)"/><filter id="s" color-interpolation-filters="sRGB"><feGaussianBlur stdDeviation="1.474"/></filter><filter id="u" color-interpolation-filters="sRGB"><feGaussianBlur stdDeviation="1.477"/></filter><filter id="v" color-interpolation-filters="sRGB"><feGaussianBlur stdDeviation="2.93"/></filter><filter id="w" color-interpolation-filters="sRGB"><feGaussianBlur stdDeviation="6.207"/></filter><filter id="y" color-interpolation-filters="sRGB"><feGaussianBlur stdDeviation="1.482"/></filter><filter id="C" x="-.261" width="1.521" y="-.26" height="1.52" color-interpolation-filters="sRGB"><feGaussianBlur stdDeviation="7.735"/></filter><filter x="-.235" y="-.244" width="1.47" height="1.489" id="D" color-interpolation-filters="sRGB"><feGaussianBlur stdDeviation="7.064"/></filter><filter x="-.24" y="-.24" width="1.481" height="1.479" id="E" color-interpolation-filters="sRGB"><feGaussianBlur stdDeviation="7.129"/></filter><filter id="F" color-interpolation-filters="sRGB"><feGaussianBlur stdDeviation="2.93"/></filter><radialGradient cx="442.447" cy="490.717" r="146.972" fx="442.447" fy="490.717" id="o" xlink:href="#c" gradientUnits="userSpaceOnUse" gradientTransform="matrix(.0665 .06035 -.0602 .06635 16.248 -42.82)"/><radialGradient cx="364.799" cy="367.602" r="234.369" fx="364.799" fy="367.602" id="x" xlink:href="#g" gradientUnits="userSpaceOnUse" gradientTransform="matrix(.0803 -.00035 .0003 .06858 -13.398 -9.093)"/><radialGradient cx="365.479" cy="365.59" r="152.099" fx="365.479" fy="365.59" id="z" xlink:href="#h" gradientUnits="userSpaceOnUse" gradientTransform="matrix(.04229 0 0 .04229 .476 .531)"/><radialGradient cx="521.168" cy="545.93" r="146.472" fx="521.168" fy="545.93" id="A" xlink:href="#i" gradientUnits="userSpaceOnUse" gradientTransform="matrix(-.05223 -.04798 .1861 -.20258 -53.782 146.208)"/><radialGradient cx="539.278" cy="566.042" r="146.472" fx="539.278" fy="566.042" id="B" xlink:href="#j" gradientUnits="userSpaceOnUse" gradientTransform="rotate(93.343 28.525 17.708) scale(.06241)"/></defs><rect width="28" height="28" x="2" y="2" ry="5.535" fill="#628099" fill-rule="evenodd"/><path d="M25.77 16a9.77 9.77 0 0 1-19.54 0 9.77 9.77 0 1 1 19.54 0z" fill-rule="evenodd" stroke="#000" stroke-width=".0670023"/><path d="M29.16 15.988a13.123 13.123 0 0 1-26.246 0 13.123 13.123 0 1 1 26.247 0z" fill="url(#o)" fill-rule="evenodd" stroke="#000" stroke-width=".09" transform="matrix(.74447 0 0 .74447 4.06 4.097)"/><path d="M25.775 16a9.775 9.775 0 0 1-19.55 0 9.775 9.775 0 1 1 19.55 0z" fill="none" stroke="#1a1a1a" stroke-width=".32012209999999997"/><path d="M29.88 15.988a13.842 13.842 0 1 1-27.685 0 13.842 13.842 0 1 1 27.685 0z" fill="url(#p)" stroke="url(#q)" stroke-width="1.565" transform="matrix(.74447 0 0 .74447 4.06 4.097)"/><path d="M587.909 485.667a146.472 146.472 0 1 1-292.944 0 146.472 146.472 0 1 1 292.944 0z" transform="matrix(.06673 0 0 .06673 -13.457 -16.408)" fill="none" stroke="url(#r)" stroke-width="1.946" filter="url(#s)"/><path d="M587.909 485.667a146.472 146.472 0 1 1-292.944 0 146.472 146.472 0 1 1 292.944 0z" transform="scale(.05187) rotate(-82.521 273.974 472.85)" opacity=".523" fill="none" stroke="url(#t)" stroke-width="2.456" filter="url(#u)"/><path d="M587.909 485.667a146.472 146.472 0 1 1-292.944 0 146.472 146.472 0 1 1 292.944 0z" transform="rotate(-82.52 14.794 19.217) scale(.04125)" fill="none" stroke="#000" stroke-width="3.816" stroke-linecap="round" stroke-linejoin="round" filter="url(#v)"/><path d="M16.89 9.522a6.47 6.47 0 1 1-1.683 12.83 6.47 6.47 0 1 1 1.684-12.83z" fill="none" stroke="#1a1a1a" stroke-width=".15708317" stroke-linecap="round" stroke-linejoin="round"/><path d="M17.042 8.372a7.63 7.63 0 1 1-1.986 15.13 7.63 7.63 0 1 1 1.986-15.13z" fill="none" stroke="#1a1a1a" stroke-width=".15708317" stroke-linecap="round" stroke-linejoin="round"/><path d="M17.004 8.662a7.337 7.337 0 0 1-1.91 14.55 7.337 7.337 0 0 1 1.91-14.55z" fill="none" stroke="#1a1a1a" stroke-width=".15708317" stroke-linecap="round" stroke-linejoin="round"/><path d="M16.966 8.953a7.044 7.044 0 1 1-1.834 13.968 7.044 7.044 0 1 1 1.834-13.968z" fill="none" stroke="#1a1a1a" stroke-width=".15708317" stroke-linecap="round" stroke-linejoin="round"/><path d="M16.928 9.244A6.75 6.75 0 1 1 15.17 22.63a6.75 6.75 0 1 1 1.758-13.387z" fill="none" stroke="#1a1a1a" stroke-width=".15708317" stroke-linecap="round" stroke-linejoin="round"/><path d="M17.73 16.064a1.785 1.712 0 1 1-3.57 0 1.785 1.712 0 1 1 3.57 0z"/><path d="M-1649.42 212.42c-85.654 0-155.185 69.53-155.185 155.185 0 85.653 69.531 155.155 155.185 155.155s155.156-69.502 155.156-155.155c0-85.654-69.502-155.186-155.156-155.186zm2.689 109.886l33.316 17.184 11.164 35.83-17.214 33.346-35.8 11.134-33.346-17.184-11.135-35.83 17.185-33.346z" transform="translate(67.96 4.427) scale(.03148)" fill-rule="evenodd" stroke="#000" stroke-width="5.033" filter="url(#w)"/><path d="M25.92 15.988a9.91 9.91 0 1 1-19.822 0 9.91 9.91 0 1 1 19.822 0z" fill="url(#x)" fill-rule="evenodd" transform="matrix(.74447 0 0 .74447 4.06 4.097)"/><path d="M587.909 485.667a146.472 146.472 0 1 1-292.944 0 146.472 146.472 0 1 1 292.944 0z" transform="matrix(.03254 0 0 .03254 1.636 .197)" opacity=".822" fill="none" stroke="#000" stroke-width="9.675" filter="url(#y)"/><path d="M15.932 9.559a6.435 6.435 0 0 0-6.433 6.432 6.422 6.422 0 0 0 2.632 5.187l3.437-3.06-1.193-.581-4.756-.398-.04-.193 4.69.39-.436-1.264-3.167-3.734.097-.15 3.14 3.665.579-1.198.377-4.996.18-.016-.356 4.9 1.36-.468.012.006 3.612-3.404C18.596 9.9 17.381 9.56 15.932 9.56zm3.908 1.251l-3.573 3.35 1.095.596 4.913.17c-.259-1.624-1.206-3.175-2.435-4.116zm-2.369 4.153l.387 1.337 3.285 3.447c.804-1.074 1.22-2.312 1.22-3.756 0-.284-.019-.564-.055-.838zm.3 1.537l-.52 1.163-.343 4.686c1.676-.256 3.115-1.099 4.103-2.386zm-.719 1.226l-1.259.458-3.505 3.11c1.061.773 2.231 1.129 3.644 1.129.267 0 .53-.017.788-.049z" fill="url(#z)" fill-rule="evenodd" stroke="#000" stroke-width=".085" transform="matrix(.74447 0 0 .74447 4.06 4.097)"/><path d="M16.606 5.629a10.389 10.389 0 0 1-1.212 20.742A10.389 10.389 0 1 1 16.606 5.63z" opacity=".592" fill="url(#A)" fill-rule="evenodd" transform="matrix(.74447 0 0 .74447 4.06 4.097)"/><path d="M15.467 25.126a9.142 9.142 0 1 1 1.066-18.252 9.142 9.142 0 1 1-1.066 18.252z" fill="url(#B)" fill-rule="evenodd" transform="matrix(.74447 0 0 .74447 4.06 4.097)"/><path d="M234.76 546.41l-20.081-24.487-23.926 17.174 17.083-26.665-23.727-17.447 30.639 8.007 9.262-27.957 1.852 31.613 29.451.17-29.493 11.53z" transform="matrix(.05768 0 0 .05768 2.202 -10.712)" opacity=".923" fill="#eee" filter="url(#C)"/><path d="M234.76 546.41l-17.73-21.305-20.15 19.031 9.587-26.006-26.557-7.935 27.315-4.701-6.407-26.966 17.73 21.305 20.15-19.032-9.587 26.006 26.557 7.935-27.315 4.702z" transform="rotate(60.656 28.385 26.303) scale(.05768)" fill="#eee" filter="url(#D)"/><path d="M234.76 546.41l-17.694-21.9-20.186 19.626L207 517.864l-27.09-7.669 27.812-4.373-6.904-27.294 17.694 21.899 20.185-19.626-10.118 26.273 27.089 7.668-27.812 4.373z" transform="rotate(-38.048 9.306 3.09) scale(.03407)" opacity=".923" fill="#eee" filter="url(#E)"/><path d="M587.909 485.667a146.472 146.472 0 1 1-292.944 0 146.472 146.472 0 1 1 292.944 0z" transform="scale(.0522) rotate(-82.521 271.684 471.85)" fill="none" stroke="#000" stroke-width="4.594" stroke-linecap="round" stroke-linejoin="round" filter="url(#F)"/><path d="M587.909 485.667a146.472 146.472 0 1 1-292.944 0 146.472 146.472 0 1 1 292.944 0z" transform="scale(.0522) rotate(-82.521 271.684 471.85)" fill="none" stroke="#000" stroke-width="4.594" stroke-linecap="round" stroke-linejoin="round" filter="url(#F)"/></svg>