<svg xmlns="http://www.w3.org/2000/svg" height="32" width="32" version="1"><g fill-rule="evenodd"><path d="M14.896 15.078a1.448 1.448 0 0 0-.101.002 1.448 1.448 0 0 0-.145.018 1.448 1.448 0 0 0-.14.033 1.448 1.448 0 0 0-.139.045 1.448 1.448 0 0 0-.13.058 1.448 1.448 0 0 0-.128.073 1.448 1.448 0 0 0-.117.084 1.448 1.448 0 0 0-.11.095 1.448 1.448 0 0 0-.097.106 1.448 1.448 0 0 0-.088.115 1.448 1.448 0 0 0-.076.125 1.448 1.448 0 0 0-.063.129 1.448 1.448 0 0 0-.048.137 1.448 1.448 0 0 0-.037.14 1.448 1.448 0 0 0-.022.143 1.448 1.448 0 0 0-.006.144 1.448 1.448 0 0 0 .002.104 1.448 1.448 0 0 0 .018.143 1.448 1.448 0 0 0 .033.142 1.448 1.448 0 0 0 .045.137 1.448 1.448 0 0 0 .058.133 1.448 1.448 0 0 0 .073.125 1.448 1.448 0 0 0 .084.117 1.448 1.448 0 0 0 .095.11 1.448 1.448 0 0 0 .106.097 1.448 1.448 0 0 0 .115.088 1.448 1.448 0 0 0 .125.076 1.448 1.448 0 0 0 .129.062 1.448 1.448 0 0 0 .137.051 1.448 1.448 0 0 0 .14.035 1.448 1.448 0 0 0 .143.022 1.448 1.448 0 0 0 .144.008A1.448 1.448 0 0 0 15 17.97a1.448 1.448 0 0 0 .143-.018 1.448 1.448 0 0 0 .142-.031 1.448 1.448 0 0 0 .137-.047 1.448 1.448 0 0 0 .133-.059 1.448 1.448 0 0 0 .125-.072 1.448 1.448 0 0 0 .117-.084 1.448 1.448 0 0 0 .11-.096 1.448 1.448 0 0 0 .097-.105 1.448 1.448 0 0 0 .088-.115 1.448 1.448 0 0 0 .076-.123 1.448 1.448 0 0 0 .062-.131 1.448 1.448 0 0 0 .051-.137 1.448 1.448 0 0 0 .035-.139 1.448 1.448 0 0 0 .022-.144 1.448 1.448 0 0 0 .008-.145 1.448 1.448 0 0 0-.004-.101 1.448 1.448 0 0 0-.018-.145 1.448 1.448 0 0 0-.031-.14 1.448 1.448 0 0 0-.047-.139 1.448 1.448 0 0 0-.059-.13 1.448 1.448 0 0 0-.072-.126 1.448 1.448 0 0 0-.084-.119 1.448 1.448 0 0 0-.095-.107 1.448 1.448 0 0 0-.106-.1 1.448 1.448 0 0 0-.115-.088 1.448 1.448 0 0 0-.123-.076 1.448 1.448 0 0 0-.131-.063 1.448 1.448 0 0 0-.137-.048 1.448 1.448 0 0 0-.14-.037 1.448 1.448 0 0 0-.143-.022 1.448 1.448 0 0 0-.145-.006z" fill="#fff"/><path d="M22.098 30.102c-.015-.016-.03-.028-.045-.043-.332-.358-.664-.716-1.032-.989-.367-.273-.769-.46-1.242-.474-.473-.015-.901.156-1.3.422-.4.265-.77.626-1.127.99-.034.034-.065.06-.098.094zM27.922 28.844c-.109-.089-.314-.159-.41-.248h-.545c-.17.43-.423.764-.645 1.144a5.419 5.419 0 0 0 1.6-.896z" fill="#80cbc4"/><path d="M30.102 14.283c-.514-.899-.996-1.827-1.723-2.554a11.54 11.54 0 0 0-8.184-3.39 11.54 11.54 0 0 0-8.185 3.39 11.54 11.54 0 0 0-3.389 8.186c0 .043.005.085.006.128 0 .046-.006.089-.006.135 0 .61.048 1.21.14 1.795.03.142.08.262.12.392.282.921.79 1.567 1.228 1.983.438.415.807.6.807.6.357.287.8.582 1.313.872h-.043s.268 1.43.783 2.854c.188.52.444.979.697 1.428h3.588c.033-.034.064-.06.098-.094.357-.364.727-.725 1.127-.99.399-.266.827-.437 1.3-.422.473.015.875.201 1.242.474.368.273.7.631 1.032.989.014.015.03.027.045.043h2.43c.637 0 1.225-.166 1.794-.362.222-.38.476-.715.645-1.144h.545c.096.09.301.16.41.248 1.296-1.02 2.18-2.534 2.18-4.319zm-15.206.795a1.448 1.448 0 0 1 .145.006 1.448 1.448 0 0 1 .143.022 1.448 1.448 0 0 1 .14.037 1.448 1.448 0 0 1 .137.048 1.448 1.448 0 0 1 .13.063 1.448 1.448 0 0 1 .124.076 1.448 1.448 0 0 1 .115.088 1.448 1.448 0 0 1 .106.1 1.448 1.448 0 0 1 .095.107 1.448 1.448 0 0 1 .084.12 1.448 1.448 0 0 1 .072.124 1.448 1.448 0 0 1 .06.131 1.448 1.448 0 0 1 .046.139 1.448 1.448 0 0 1 .031.14 1.448 1.448 0 0 1 .018.145 1.448 1.448 0 0 1 .004.101 1.448 1.448 0 0 1-.008.145 1.448 1.448 0 0 1-.022.144 1.448 1.448 0 0 1-.035.14 1.448 1.448 0 0 1-.05.136 1.448 1.448 0 0 1-.063.13 1.448 1.448 0 0 1-.076.124 1.448 1.448 0 0 1-.088.115 1.448 1.448 0 0 1-.098.105 1.448 1.448 0 0 1-.11.096 1.448 1.448 0 0 1-.116.084 1.448 1.448 0 0 1-.125.072 1.448 1.448 0 0 1-.133.059 1.448 1.448 0 0 1-.137.047 1.448 1.448 0 0 1-.142.031 1.448 1.448 0 0 1-.143.018 1.448 1.448 0 0 1-.104.004 1.448 1.448 0 0 1-.144-.008 1.448 1.448 0 0 1-.143-.022 1.448 1.448 0 0 1-.14-.035 1.448 1.448 0 0 1-.137-.05 1.448 1.448 0 0 1-.129-.063 1.448 1.448 0 0 1-.125-.076 1.448 1.448 0 0 1-.115-.088 1.448 1.448 0 0 1-.106-.098 1.448 1.448 0 0 1-.095-.11 1.448 1.448 0 0 1-.084-.116 1.448 1.448 0 0 1-.073-.125 1.448 1.448 0 0 1-.058-.133 1.448 1.448 0 0 1-.045-.137 1.448 1.448 0 0 1-.033-.142 1.448 1.448 0 0 1-.018-.143 1.448 1.448 0 0 1-.002-.104 1.448 1.448 0 0 1 .006-.144 1.448 1.448 0 0 1 .022-.143 1.448 1.448 0 0 1 .037-.14 1.448 1.448 0 0 1 .048-.137 1.448 1.448 0 0 1 .063-.129 1.448 1.448 0 0 1 .076-.125 1.448 1.448 0 0 1 .088-.115 1.448 1.448 0 0 1 .098-.106 1.448 1.448 0 0 1 .11-.095 1.448 1.448 0 0 1 .116-.084 1.448 1.448 0 0 1 .127-.073 1.448 1.448 0 0 1 .131-.058 1.448 1.448 0 0 1 .139-.045 1.448 1.448 0 0 1 .14-.033 1.448 1.448 0 0 1 .145-.018 1.448 1.448 0 0 1 .101-.002z" fill="#009688"/><path d="M8.832 22.207c.04.217.03.446.086.658.195.739.484 1.444.86 2.088a11.609 11.609 0 0 0 1.773 2.652c.449.505 1.007.893 1.537 1.313-.036-.086-.087-.155-.12-.244-.514-1.424-.782-2.854-.782-2.854h.043a9.826 9.826 0 0 1-1.313-.873s-.369-.184-.807-.6a4.566 4.566 0 0 1-1.228-1.982c-.016-.052-.032-.107-.049-.158z" fill="#80cbc4"/><path d="M8.646 20.512c0 .005-.025.053-.025.058 0 .206.064.4.078.604-.019-.22-.046-.439-.053-.662z" fill="#8e8e8e"/><path d="M18.146 8.752c.69-.128 1.323-.414 2.05-.414 1.08 0 2.054.338 3.046.615-.197-.437-.26-.625-.592-1.25-.303-.57-.64-1.14-.966-1.568-.327-.428-.644-.713-.909-.713-.266 0-.604.284-.964.713-.36.428-.743 1-1.09 1.572-.318.522-.353.632-.575 1.045zM12.576 11.346c.937-.833 1.942-1.602 3.113-2.098.183-.077.407-.051.594-.12-.339-.25-.392-.31-.82-.6-1.044-.709-2.174-1.367-2.52-1.17-.305.173-.389 1.5-.396 2.783-.004.613.014.742.03 1.205z" fill="#455a64"/><path d="M30.102 14.13l-.106-.003c.031.055.074.101.106.156z" fill="#8e8e8e"/><path d="M30.102 12.543c-.143.508-.297 1.099-.34 1.238.07.122.165.224.234.346l.106.004z" fill="#8e8e8e"/><path d="M30.102 8.48c-.58-.017-1.716.189-3.127.569-.92.247-1.183.336-1.8.52 1.175.567 2.292 1.247 3.204 2.16.584.584.972 1.328 1.383 2.052.043-.14.197-.73.34-1.238z" fill="#455a64"/><path d="M7.475 1.898a5.563 5.563 0 0 0-5.577 5.575v17.052a5.565 5.565 0 0 0 5.577 5.577h6.191c-.21-.373-.405-.769-.578-1.184-.53-.42-1.088-.808-1.537-1.313a11.609 11.609 0 0 1-1.774-2.652 8.415 8.415 0 0 1-.859-2.088c-.056-.212-.046-.441-.086-.658-.026-.076-.052-.15-.07-.234-.042-.26-.04-.533-.063-.8-.014-.203-.078-.397-.078-.603 0-.004.025-.053.025-.058-.003-.113-.025-.22-.025-.334 0-.046.005-.09.006-.135 0-.043-.006-.085-.006-.129a11.54 11.54 0 0 1 3.389-8.185c.161-.162.396-.232.566-.383-.015-.463-.033-.592-.03-1.205.008-1.284.092-2.61.397-2.784.346-.196 1.476.462 2.52 1.17.428.29.481.35.82.602.587-.213 1.236-.26 1.863-.377.222-.413.257-.523.575-1.045.347-.571.73-1.144 1.09-1.572.36-.429.698-.713.964-.713.265 0 .582.285.909.713.326.428.663.997.966 1.568.333.625.395.813.592 1.25.475.133 1.01.105 1.46.295.178.076.3.236.474.32.616-.183.88-.272 1.799-.52 1.41-.38 2.548-.585 3.127-.568V7.473a5.561 5.561 0 0 0-5.575-5.575z" fill="#8e8e8e"/></g></svg>