<svg xmlns="http://www.w3.org/2000/svg" height="32" width="32" version="1"><rect width="28.203" height="28.203" x="1.898" y="1.898" ry="5.575" fill="#00a4ef" fill-rule="evenodd"/><rect width="21.559" height="21.763" x="5.22" y="5.153" ry="2.321" fill="#00a4ef"/><rect width="21.871" height="22.078" x="5.064" y="5.167" ry="3.328" rx="0" fill="#fff"/><path d="M10.825 1.898v2.341c0 1.143.918 2.063 2.06 2.063h5.302c1.143 0 2.061-.92 2.061-2.063V1.898z" fill="#4e5d72"/><path d="M9.727 9.692a.765.765 0 0 0-.767.767c0 .425.342.77.767.77h12.237a.767.767 0 0 0 .767-.77.765.765 0 0 0-.767-.767zm0 3.03a.765.765 0 0 0-.767.767c0 .426.342.77.767.77h12.237a.767.767 0 0 0 .767-.77.765.765 0 0 0-.767-.767zm0 3.03a.765.765 0 0 0-.767.767c0 .426.342.77.767.77h12.237a.767.767 0 0 0 .767-.77.765.765 0 0 0-.767-.767zm0 3.03a.765.765 0 0 0-.767.767c0 .426.342.77.767.77h12.237a.767.767 0 0 0 .767-.77.765.765 0 0 0-.767-.767zm0 3.03a.765.765 0 0 0-.767.767c0 .426.342.77.767.77h12.237a.767.767 0 0 0 .767-.77.765.765 0 0 0-.767-.767z" fill="#dedfd0"/></svg>