<svg xmlns="http://www.w3.org/2000/svg" width="32" height="32"><g transform="translate(44.42 1.007)"><rect ry="5.575" y=".891" x="-42.521" height="28.203" width="28.203" fill="#e9ae55" fill-rule="evenodd"/><path d="M-30.244 8.493s-1.98-.043-4.078 1.498c-2.098 1.541-3.098 4.731-3.098 9.326 0 0 2.224 2.075 5.444 2.176 0 0 .54-.634.976-1.182-1.85-.547-2.55-2.185-2.55-2.185 1.704.953 2.863 1.35 4.63 1.367 1.768-.017 3.927-.414 5.631-1.367 0 0-.7 1.638-2.55 2.185.437.548.976 1.182.976 1.182 3.22-.1 5.443-2.176 5.443-2.176 0-4.595-1-7.785-3.097-9.326-2.098-1.541-4.078-1.498-4.078-1.498l-.147.172c2.622.735 3.817 2.373 3.817 2.373s-.32-.172-.86-.402c-1.635-.785-3.635-1.143-5.135-1.143s-2.5.358-4.134 1.143c-.54.23-.86.402-.86.402s1.195-1.638 3.817-2.373zm-.676 6c.839 0 1.515.668 1.5 1.5 0 .832-.661 1.5-1.5 1.5a1.501 1.501 0 0 1 0-3zm5 0c.839 0 1.5.668 1.5 1.5a1.501 1.501 0 0 1-3 0 1.483 1.483 0 0 1 1.5-1.5z" fill="#fff"/></g></svg>