<svg xmlns="http://www.w3.org/2000/svg" width="32" height="32"><rect width="28.203" height="28.203" x="1.898" y="1.898" ry="5.575" fill="#7289da" fill-rule="evenodd"/><path d="M14.176 9.5s-1.98-.043-4.078 1.498C8 12.54 7 15.73 7 20.324c0 0 2.224 2.075 5.443 2.176 0 0 .54-.634.977-1.182-1.85-.547-2.55-2.185-2.55-2.185 1.704.953 2.862 1.35 4.63 1.367 1.768-.017 3.926-.414 5.63-1.367 0 0-.7 1.638-2.55 2.185.437.548.977 1.182.977 1.182C22.776 22.4 25 20.324 25 20.324c0-4.595-1-7.785-3.098-9.326C19.805 9.457 17.824 9.5 17.824 9.5l-.146.172c2.622.735 3.816 2.373 3.816 2.373s-.32-.172-.86-.402C19 10.858 17 10.5 15.5 10.5c-1.5 0-2.5.358-4.135 1.143-.539.23-.86.402-.86.402s1.195-1.638 3.817-2.373zm-.676 6c.838 0 1.515.668 1.5 1.5a1.501 1.501 0 1 1-1.5-1.5zm5 0A1.501 1.501 0 1 1 17 17a1.483 1.483 0 0 1 1.5-1.5z" fill="#fff"/></svg>