<svg xmlns="http://www.w3.org/2000/svg" width="32" height="32" version="1"><rect width="28.203" height="28.203" x="1.898" y="1.898" ry="5.575" fill="#e6e6e6" fill-rule="evenodd"/><g stroke-width="1.303"><path d="M14.34 21.628a4.307 4.307 0 0 1-2.634 4.02 4.307 4.307 0 0 1-4.717-.923l3.045-3.045z" fill="#005ab1"/><path d="M6.952 18.672a4.307 4.307 0 0 1 4.706-.98 4.307 4.307 0 0 1 2.683 3.988h-4.307z" fill="#00bd9c"/><path d="M7.026 24.762a4.307 4.307 0 0 1-1.298-3.056 4.307 4.307 0 0 1 1.26-3.071l3.046 3.045z" fill="#f4cc20"/><path d="M10.086 25.986a4.307 4.307 0 0 1-3.097-1.26l3.045-3.046z" fill="#f44a20"/></g><rect width="2.805" height="6.035" x="6.098" y="8.721" ry="0" fill="#e94b35"/><rect width="2.805" height="4.864" x="9.501" y="9.893" ry="0" fill="#f4cc20"/><rect width="2.805" height="3.728" x="12.903" y="11.029" ry="0" fill="#2b3e51"/><rect width="2.805" height="9.259" x="16.305" y="5.497" ry="0" fill="#00bd9c"/><path fill="#999" d="M5.861 16.227h20.077v-.57H5.861z"/><rect width="2.805" height="7.376" x="19.761" y="7.41" ry="0" fill="#004d9c"/><rect width="2.805" height="4.732" x="23.117" y="10.055" ry="0" fill="#2b9c51"/><circle cx="17.204" cy="20.867" r=".829" fill="#e94b35"/><circle cx="17.204" cy="22.887" r=".829" fill="#2b9c51"/><path fill="#999" d="M18.585 19.093h7.383v-.57h-7.383zM18.585 21.121h4.867v-.57h-4.867zM18.585 23.149h5.992v-.57h-5.992z"/><circle cx="17.204" cy="24.891" r=".829" fill="#2b3e51"/><path fill="#999" d="M18.585 25.176h4.37v-.57h-4.37z"/><circle cx="17.171" cy="18.752" r=".829" fill="#f4cc20"/></svg>