<svg xmlns="http://www.w3.org/2000/svg" width="32" height="32" version="1"><rect width="28.203" height="28.203" x="1.898" y="1.898" ry="5.575" fill="#8e8e8e" fill-rule="evenodd"/><g transform="translate(.012 -.132)" fill="#4d4d4d"><circle r="1.438" cy="6.4" cx="25.696"/><circle r="1.438" cy="6.4" cx="6.232"/><circle r="1.438" cy="25.864" cx="25.743"/><circle r="1.438" cy="25.864" cx="6.28"/></g><path d="M16 9a7 7 0 0 0-7 7v7h7a7 7 0 1 0 0-14zm0 3a4 4 0 0 1 4 4 4 4 0 0 1-4 4 4 4 0 0 1-4-4 4 4 0 0 1 4-4z" fill="#4d4d4d"/><path d="M14.47 17.48c.62.631.132 1.4-.568 2.412l-2.648 3.827c-.688.995-2.232.856-3.088 0-.855-.855-1-2.406 0-3.087l3.903-2.66c1.014-.69 1.77-1.135 2.401-.492z" fill="#ffcd4d"/></svg>