<svg xmlns="http://www.w3.org/2000/svg" width="32" height="32" version="1"><rect width="28.203" height="28.203" x="1.898" y="1.898" ry="5.575" fill="#666" fill-rule="evenodd"/><path d="M23.1 23.1a10.04 10.04 0 0 1-7.1 2.94V16z" fill="#ee813a"/><path d="M16 26.04a10.04 10.04 0 0 1-7.1-2.94A10.04 10.04 0 0 1 5.96 16H16z" fill="#fff"/><path d="M5.96 16A10.04 10.04 0 0 1 8.9 8.9L16 16z" fill="#fad62f"/><path d="M8.9 8.9a10.04 10.04 0 0 1 14.2 0 10.04 10.04 0 0 1 0 14.2L16 16z" fill="#97cd78"/><circle cx="16" cy="16" r="3.315" fill="#5aa142"/></svg>