<svg xmlns="http://www.w3.org/2000/svg" width="32" height="32" version="1"><rect width="28.203" height="28.203" x="1.898" y="1.898" ry="5.575" fill="#8e8e8e" fill-rule="evenodd"/><g transform="translate(.012 -.132)" fill="#4d4d4d"><circle r="1.438" cy="6.4" cx="25.696"/><circle r="1.438" cy="6.4" cx="6.232"/><circle r="1.438" cy="25.864" cx="25.743"/><circle r="1.438" cy="25.864" cx="6.28"/></g><path d="M16 9a7 7 0 0 0-7 7v7h7a7 7 0 1 0 0-14zm0 3a4 4 0 0 1 4 4 4 4 0 0 1-4 4 4 4 0 0 1-4-4 4 4 0 0 1 4-4z" fill="#4d4d4d"/></svg>