<svg xmlns="http://www.w3.org/2000/svg" height="32" width="32" version="1"><path d="M7.678 1.695A5.563 5.563 0 0 0 2.102 7.27v17.052c0 1.182.446 2.216 1.068 3.116.394-1.14.688-2.462.687-4.315 0-1.935-.295-4.404-1.054-7.713.837.432 1.6.97 2.283 1.594a11.71 11.71 0 0 1 1.81 2.107c.522.774.962 1.61 1.313 2.49.351.881.614 1.804.787 2.749 0 0 .382-.187.637-.913.127-.362.223-.859.222-1.535 0-.676-.096-1.53-.351-2.607.63 1.396 1.69 2.716 2.629 3.723.938 1.006 1.753 1.7 1.894 1.843.216-.665.57-1.173.953-1.6.383-.426.794-.77 1.127-1.105.333-.335.587-.661.653-1.052.065-.392-.057-.847-.477-1.442 1.347.31 2.37.736 3.15 1.205.782.47 1.322.982 1.704 1.467.763.97.893 1.825 1.054 1.986.376-1.985.696-2.523.79-3.07.093-.547-.038-1.1-.563-3.117 1.07 1.952 1.798 2.911 2.254 3.17.228.13.388.084.488-.102.1-.186.143-.51.133-.94-.02-.857-.243-2.128-.6-3.525a33.704 33.704 0 0 0-1.404-4.277c1.528 1.304 2.726 2.342 3.637 3.236.91.895 1.535 1.646 1.918 2.381.382.735.523 1.453.467 2.278-.057.824-.313 1.757-.72 2.921 1.017-1.216 1.239-1.52 1.714-2.173V7.27a5.561 5.561 0 0 0-5.575-5.575H7.678z" fill="#c94d48" fill-rule="evenodd"/><text style="line-height:1.25" x="-171.048" y="-91.108" font-weight="400" font-size="40" font-family="sans-serif" letter-spacing="0" word-spacing="0"/><g transform="translate(38.167 1.928)" fill="#fff"><text transform="scale(1.00105 .99895)" y="25.978" x="19.676" style="line-height:1.25" font-weight="400" font-size="11.686" font-family="sans-serif" letter-spacing="0" word-spacing="0" stroke="#fff" stroke-width=".4" stroke-linecap="round"><tspan y="25.978" x="19.676">B</tspan></text><path d="M8.014 18.07v7.142M16.392 18.07v7.142M12.265 18.07v7.142M16.496 6.92l-4.224 4.232M16.512 13.46l-8.167-.14M8.124 7.345l5.89 5.9" stroke="#fff" stroke-width="1.7" stroke-linecap="round"/><rect ry="1.233" y="6.599" x="19.308" height="8.058" width="8.517" fill-rule="evenodd"/></g><path d="M16 10.389A5.611 5.611 0 0 0 10.389 16 5.611 5.611 0 0 0 16 21.611 5.611 5.611 0 0 0 21.611 16 5.611 5.611 0 0 0 16 10.389zm0 3.366a2.245 2.245 0 1 1 0 4.49 2.245 2.245 0 0 1 0-4.49z" fill="#858585"/><path d="M16 5.525A10.452 10.452 0 0 0 5.525 16 10.452 10.452 0 0 0 16 26.475 10.452 10.452 0 0 0 26.475 16 10.452 10.452 0 0 0 16 5.525zm0 5.986A4.49 4.49 0 0 1 20.49 16 4.49 4.49 0 0 1 16 20.49 4.49 4.49 0 0 1 11.51 16 4.49 4.49 0 0 1 16 11.51z" fill="#e6e6e6"/><path d="M16 12.965a3.035 3.035 0 1 0 0 6.07 3.035 3.035 0 0 0 0-6.07z" fill="#fff"/><path d="M30.305 21.102c-.475.654-.697.957-1.713 2.173.406-1.164.662-2.097.719-2.921a4.103 4.103 0 0 0-.467-2.278c-.383-.735-1.007-1.486-1.918-2.38-.911-.895-2.109-1.933-3.637-3.237a33.704 33.704 0 0 1 1.404 4.277c.357 1.397.58 2.668.6 3.526.01.428-.032.753-.133.94-.1.185-.26.23-.488.1-.456-.258-1.184-1.217-2.254-3.17.525 2.017.656 2.571.562 3.118-.093.547-.413 1.085-.789 3.07-.16-.16-.29-1.017-1.054-1.986-.382-.485-.922-.997-1.703-1.467-.782-.47-1.804-.895-3.15-1.205.42.595.541 1.05.476 1.442-.066.39-.32.717-.653 1.052-.333.335-.744.68-1.127 1.106-.383.426-.737.934-.953 1.6-.14-.144-.956-.838-1.894-1.844-.939-1.007-2-2.327-2.63-3.723.256 1.077.352 1.931.352 2.607 0 .676-.095 1.173-.222 1.535-.255.726-.637.913-.637.913a14.416 14.416 0 0 0-.787-2.748c-.351-.88-.79-1.717-1.313-2.49a11.71 11.71 0 0 0-1.81-2.108 10.559 10.559 0 0 0-2.283-1.594c.759 3.309 1.054 5.778 1.054 7.713 0 1.853-.293 3.175-.687 4.314 1.004 1.453 2.6 2.461 4.508 2.461H24.73a5.563 5.563 0 0 0 5.575-5.576v-3.22z" fill="#ffb84b" fill-rule="evenodd"/></svg>