<svg xmlns="http://www.w3.org/2000/svg" height="32" width="32" version="1"><rect width="28.203" height="28.203" x="1.898" y="1.898" ry="5.575" fill="#3e50b4" fill-rule="evenodd"/><path d="M17.59 7.349c-1.671.233-3.468 1.112-4.93 3.712-3.34 5.942-3.103 8.01-3.636 8.678-.534.666-1.975 1.027-1.767 1.784.354.71.477.788.477.788s2.046 3.16 8.147 2.306c6.1-.853 6.947-2.244 6.891-2.934-.055-.691-1.343-1.195-1.343-1.195s-.953-3.63-.708-5.12c.245-1.49 1.174-3.662 2.093-4.13.916-.471 1.375 1.58 1.848 1.073.472-.507-.784-3.492-2.319-4.382-1.228-.835-2.581-.754-4.752-.577" fill="#fff"/><g fill="#ffbe4b"><path d="M15.18 13.386l1.719-.092.91-1.383.624 1.578 1.656.598-1.277 1.03-.027 1.672-1.355-.877-1.813.59.508-1.62m-.945-1.496"/><path d="M14.923 18.415l1.615-.601.462-1.596 1.057 1.316 1.757.076-.915 1.366.463 1.605-1.55-.43-1.557 1.107.01-1.7m-1.342-1.143"/><path d="M10.742 16.3l1.716.13 1.074-1.257.422 1.644 1.567.808-1.395.856-.237 1.654-1.231-1.04-1.873.352.705-1.54m-.748-1.606"/></g></svg>