<?xml version="1.0" encoding="UTF-8" standalone="no"?>
<svg
   xmlns:dc="http://purl.org/dc/elements/1.1/"
   xmlns:cc="http://creativecommons.org/ns#"
   xmlns:rdf="http://www.w3.org/1999/02/22-rdf-syntax-ns#"
   xmlns:svg="http://www.w3.org/2000/svg"
   xmlns="http://www.w3.org/2000/svg"
   xmlns:sodipodi="http://sodipodi.sourceforge.net/DTD/sodipodi-0.dtd"
   xmlns:inkscape="http://www.inkscape.org/namespaces/inkscape"
   width="32"
   height="32"
   version="1.1"
   viewBox="0 0 32 32"
   id="svg8"
   sodipodi:docname="distributor-logo-gentoo.svg"
   inkscape:version="0.92.4 5da689c313, 2019-01-14"
   inkscape:label="Gentoo">
  <metadata
     id="metadata14">
    <rdf:RDF>
      <cc:Work
         rdf:about="">
        <dc:format>image/svg+xml</dc:format>
        <dc:type
           rdf:resource="http://purl.org/dc/dcmitype/StillImage" />
        <dc:title />
      </cc:Work>
    </rdf:RDF>
  </metadata>
  <defs
     id="defs12" />
  <sodipodi:namedview
     pagecolor="#ffffff"
     bordercolor="#666666"
     borderopacity="1"
     objecttolerance="10"
     gridtolerance="10"
     guidetolerance="10"
     inkscape:pageopacity="0"
     inkscape:pageshadow="2"
     inkscape:window-width="1920"
     inkscape:window-height="1022"
     id="namedview10"
     showgrid="false"
     inkscape:zoom="14.78125"
     inkscape:cx="16.923247"
     inkscape:cy="16"
     inkscape:window-x="0"
     inkscape:window-y="26"
     inkscape:window-maximized="1"
     inkscape:current-layer="distributor-logo-gentoo" />
  <g
     id="distributor-logo-gentoo"
     inkscape:highlight-color="3891327743">
    <rect
       inkscape:highlight-color="2559702015"
       ry="5.5751052"
       y="1.8985004"
       x="1.8985004"
       height="28.202999"
       width="28.202999"
       id="rect4497"
       style="opacity:1;fill:#9891f3;fill-opacity:1;fill-rule:evenodd;stroke:none;stroke-width:0.15876552;stroke-linecap:round;stroke-linejoin:bevel;stroke-miterlimit:4;stroke-dasharray:none;stroke-dashoffset:0;stroke-opacity:1" />
    <path
       d="m 14.301311,7.4247856 c -3.740937,0.177933 -6.6710484,3.5572164 -6.5242174,5.3965834 0.146831,1.788735 4.6957004,3.359755 4.6450694,3.41328 -0.929448,0.782617 -1.545705,1.311353 -2.322534,2.020193 -1.8675764,1.701215 -3.1586764,2.961214 -2.5062554,4.73259 0.757302,2.042616 2.4071624,1.957989 4.3470674,1.579701 5.012508,-0.985867 13.248068,-7.290924 12.822041,-9.617798 C 24.417465,13.067293 19.817964,9.3466086 17.091824,8.0128326 16.241217,7.5976556 15.27488,7.3799406 14.289015,7.4247856 m 0.785509,3.2295594 c 0.468702,-0.04774 1.011182,0.07378 1.621652,0.367439 1.327989,0.638679 2.703717,2.336278 0,3.302614 -0.734879,0.256774 -3.088515,-0.632892 -3.020524,-1.870468 0.0622,-1.147163 0.618426,-1.732318 1.398872,-1.799585 m 0,0"
       style="opacity:0.647;fill:#655fac;fill-opacity:1;fill-rule:evenodd;stroke:none;stroke-width:0.72330576"
       id="path33-3"
       inkscape:connector-curvature="0"
       inkscape:highlight-color="4294967295" />
    <path
       d="m 14.201122,7.325286 c -3.740937,0.177933 -6.6710495,3.557217 -6.5242185,5.396584 0.146831,1.788735 4.6957015,3.359755 4.6450705,3.41328 -0.929448,0.782617 -1.545705,1.311353 -2.3225355,2.020193 -1.867576,1.701215 -3.158676,2.961214 -2.506255,4.73259 0.757302,2.042615 2.407162,1.957988 4.3470685,1.5797 C 16.85276,23.481767 25.08832,17.17671 24.662293,14.849836 24.317276,12.967794 19.717775,9.247109 16.991635,7.913333 16.141028,7.498156 15.174691,7.280441 14.188826,7.325286 m 0.785509,3.22956 c 0.468702,-0.04774 1.011182,0.07378 1.621652,0.367439 1.327989,0.638679 2.703717,2.336278 0,3.302614 -0.734879,0.256774 -3.088515,-0.632892 -3.020524,-1.870468 0.0622,-1.147163 0.618426,-1.732318 1.398872,-1.799585 m 0,0"
       style="fill:#e7f0f2;fill-opacity:1;fill-rule:evenodd;stroke:none;stroke-width:0.72330576"
       id="path33"
       inkscape:connector-curvature="0"
       inkscape:highlight-color="4294967295" />
  </g>
</svg>
