<svg xmlns="http://www.w3.org/2000/svg" xmlns:xlink="http://www.w3.org/1999/xlink" width="32" height="32"><defs><radialGradient xlink:href="#a" id="b" gradientUnits="userSpaceOnUse" cx="16.4" cy="15.828" fx="16.4" fy="15.828" r="14.101" gradientTransform="matrix(1.34789 .00174 -.00174 1.34789 -5.538 -5.594)"/><linearGradient id="a"><stop offset="0" stop-color="#f9548f"/><stop offset="1" stop-color="#d287a7"/></linearGradient></defs><rect ry="5.575" y="1.899" x="1.899" height="28.203" width="28.203" fill="url(#b)" fill-rule="evenodd"/><path d="M9.54 13.4c.088-.273.104-.437.137-.596-.241.315-.11.382-.136.596m.446-1.897c.043.41-.303.57.076.299.204-.467-.079-.13-.076-.299m6.623-3.586c.189-.07.464-.038.665-.084-.262.022-.522.035-.778.069l.113.015m6.062 7.65l-.041.104a5.12 5.12 0 0 1-.486 1.58 5.045 5.045 0 0 0 .527-1.685M15 17.264c-.098-.109-.154-.24-.22-.372.062.23.189.428.306.63L15 17.265m-.434.017l-.04.2c.184.253.33.528.564.726-.169-.335-.294-.473-.524-.926m2.285-9.143l-.105.022.097-.01.008-.012m-.297-.084c.149.027.321.048.297.084.163-.037.2-.07-.297-.084m3.107 6.993c.034-.512-.098-.35-.143-.155.052.028.093.36.143.155m-.552 1.465c.167-.234.288-.49.33-.754-.037.188-.137.35-.232.523-.521.334-.05-.199 0-.402-.56.72-.078.432-.098.633m-1.497.38c-.28.003.052.145.416.203.101-.08.192-.161.274-.24a2.05 2.05 0 0 1-.69.036M9.54 13.401c.088-.273.103-.437.137-.596-.242.315-.111.382-.137.596m.446-1.897c.044.41-.302.57.077.299.203-.467-.08-.13-.077-.299m6.623-3.586c.189-.07.464-.039.664-.085-.26.022-.52.035-.777.069l.113.016m6.062 7.65l-.04.104a5.12 5.12 0 0 1-.487 1.58 5.045 5.045 0 0 0 .527-1.685m-7.671 1.698c-.097-.11-.154-.24-.219-.372.062.23.188.428.305.63l-.086-.258m-.433.017l-.04.2c.184.253.33.528.563.726-.168-.335-.293-.473-.523-.926m2.284-9.144l-.105.022.098-.009.007-.013m4.16 7.122c.016.43-.12.638-.243 1.007l-.22.115c-.182.365.017.232-.112.522-.283.26-.856.816-1.04.867-.134-.003.091-.165.12-.228-.377.27-.303.405-.88.569l-.017-.04c-1.424.698-3.403-.683-3.377-2.568-.015.12-.043.09-.074.138-.074-.97.43-1.943 1.28-2.341.832-.428 1.806-.253 2.401.325-.327-.445-.978-.918-1.75-.874-.755.013-1.462.512-1.698 1.055-.387.253-.432.977-.6 1.11-.228 1.735.426 2.485 1.533 3.367.173.122.049.14.072.233a3.017 3.017 0 0 1-.981-.78c.147.224.305.441.51.612-.346-.122-.81-.874-.944-.904.597 1.112 2.424 1.951 3.38 1.535-.442.017-1.005.01-1.502-.182-.21-.112-.493-.343-.442-.386 1.305.507 2.654.383 3.783-.558.288-.233.601-.63.692-.634-.136.213.024.102-.081.291.285-.48-.125-.196.295-.83l.156.223c-.058-.4.476-.883.421-1.514.123-.192.137.208.007.652.18-.493.048-.572.094-.978.05.137.116.282.15.426-.118-.476.12-.8.179-1.077-.059-.027-.182.21-.21-.352.004-.244.066-.128.089-.188-.046-.027-.167-.214-.24-.573.053-.085.142.218.215.23-.047-.284-.127-.502-.13-.72-.213-.461-.076.06-.247-.198-.226-.732.187-.17.215-.502.341.514.536 1.313.626 1.643a6.941 6.941 0 0 0-.314-1.171c.104.045-.167-.83.135-.25-.324-1.235-1.382-2.39-2.355-2.93.119.113.27.255.216.277-.485-.3-.4-.323-.47-.45-.394-.166-.42.014-.681 0-.744-.41-.887-.366-1.57-.623l.03.152c-.492-.171-.574.064-1.106 0-.032-.026.17-.095.338-.12-.476.065-.454-.098-.92.018.115-.084.236-.14.359-.21-.389.024-.928.234-.761.043-.634.294-1.759.706-2.39 1.322l-.02-.138c-.29.361-1.262 1.079-1.34 1.547l-.077.019c-.15.265-.247.565-.367.838-.197.349-.288.134-.26.19-.388.816-.58 1.502-.746 2.065.118.184.003 1.108.047 1.848-.194 3.653 2.465 7.2 5.372 8.018.426.16 1.06.153 1.598.169-.635-.19-.717-.1-1.337-.325-.447-.219-.545-.469-.861-.754l.125.23c-.62-.229-.36-.283-.866-.45l.134-.18c-.2-.016-.532-.353-.623-.54l-.22.01c-.264-.34-.405-.585-.395-.774l-.071.131c-.08-.143-.973-1.272-.51-1.01-.086-.08-.2-.132-.324-.367l.094-.112c-.223-.298-.41-.68-.396-.807.12.166.202.198.283.226-.562-1.451-.594-.08-1.02-1.477l.09-.008c-.069-.109-.111-.226-.166-.341l.039-.406c-.405-.488-.113-2.072-.055-2.94.04-.353.338-.73.564-1.32l-.138-.024c.264-.478 1.505-1.92 2.08-1.846.279-.364-.055-.002-.11-.093.612-.659.805-.465 1.218-.584.445-.275-.383.107-.172-.105.77-.204.546-.465 1.55-.568.106.062-.246.096-.334.178.641-.327 2.03-.252 2.931.18 1.046.51 2.222 2.013 2.268 3.427l.053.015c-.027.562.083 1.212-.107 1.81l.128-.283m-4.456-7.207c.15.027.322.048.297.085.164-.037.2-.07-.297-.085m3.109 6.994c.034-.512-.099-.35-.144-.155.052.028.094.361.144.155m-.553 1.465c.166-.234.287-.49.33-.754-.038.188-.137.351-.232.523-.522.334-.05-.199 0-.401-.561.719-.078.43-.098.632m-1.497.38c-.28.004.052.146.416.203.101-.08.192-.16.274-.24a2.05 2.05 0 0 1-.69.037" opacity=".647" fill="#952c52"/><path d="M9.44 13.3c.088-.273.104-.437.137-.595-.241.314-.11.38-.136.595m.446-1.897c.043.41-.303.57.076.299.204-.467-.079-.129-.076-.299m6.623-3.585c.189-.07.464-.039.665-.085-.262.022-.522.035-.778.069l.113.016m6.062 7.648l-.041.105a5.12 5.12 0 0 1-.486 1.58 5.045 5.045 0 0 0 .527-1.685M14.9 17.165c-.098-.11-.154-.241-.22-.373.062.23.189.429.306.63l-.086-.257m-.434.017l-.04.2c.184.253.33.528.564.726-.169-.334-.294-.473-.524-.926m2.285-9.143l-.106.022.098-.009.007-.013m-.296-.084c.149.027.321.048.297.084.163-.037.2-.07-.297-.084m3.107 6.993c.034-.512-.098-.35-.143-.155.052.028.093.361.143.155m-.552 1.465c.167-.234.288-.49.33-.754-.037.189-.137.351-.232.523-.522.334-.05-.199 0-.401-.56.719-.078.43-.098.632m-1.497.38c-.28.003.052.146.416.203.101-.08.192-.161.274-.24a2.05 2.05 0 0 1-.69.037M9.44 13.3c.088-.273.103-.437.137-.596-.242.315-.111.382-.137.596m.446-1.897c.044.41-.302.57.077.299.203-.467-.08-.13-.077-.299m6.623-3.586c.189-.07.464-.039.664-.085-.26.022-.52.036-.777.069l.113.016m6.062 7.65l-.04.104a5.12 5.12 0 0 1-.487 1.58 5.045 5.045 0 0 0 .527-1.685m-7.671 1.698c-.097-.11-.154-.24-.219-.372.062.23.188.429.305.63l-.086-.258m-.433.017l-.04.2c.184.253.33.528.563.726-.168-.334-.293-.473-.523-.926m2.284-9.144l-.105.022.098-.009.007-.013m4.16 7.122c.016.43-.12.638-.243 1.008l-.22.114c-.182.365.017.232-.112.522-.283.261-.856.816-1.04.867-.134-.003.091-.165.12-.228-.377.27-.303.405-.88.57l-.017-.04c-1.424.697-3.403-.684-3.377-2.568-.015.12-.043.09-.074.137-.074-.97.43-1.943 1.28-2.34.831-.429 1.806-.253 2.401.324-.327-.445-.978-.918-1.75-.874-.755.013-1.462.512-1.698 1.055-.387.253-.432.977-.6 1.11-.228 1.735.426 2.485 1.533 3.367.173.122.049.14.072.234a3.017 3.017 0 0 1-.981-.78c.147.223.305.44.51.611-.346-.122-.81-.874-.944-.904.597 1.113 2.423 1.951 3.38 1.535-.442.017-1.005.01-1.502-.182-.21-.112-.493-.343-.442-.386 1.305.507 2.654.384 3.783-.558.287-.233.601-.629.692-.634-.136.214.024.103-.081.291.285-.48-.125-.195.295-.83l.156.223c-.059-.399.476-.883.421-1.514.123-.192.137.208.007.652.18-.492.048-.572.094-.978.05.137.116.282.15.426-.118-.476.12-.8.179-1.077-.059-.027-.182.21-.21-.352.004-.244.065-.128.089-.188-.046-.027-.167-.214-.24-.573.053-.084.142.219.215.23-.047-.284-.127-.502-.13-.72-.213-.461-.076.06-.247-.198-.226-.732.187-.17.215-.502.341.514.536 1.313.626 1.643a6.941 6.941 0 0 0-.314-1.171c.104.045-.167-.83.135-.25-.324-1.235-1.382-2.389-2.355-2.93.119.113.27.255.216.278-.485-.3-.4-.324-.47-.45-.394-.167-.42.013-.681 0-.744-.41-.887-.367-1.57-.624l.03.152c-.492-.17-.574.064-1.106 0-.032-.026.17-.095.338-.12-.476.065-.454-.098-.92.018.114-.084.236-.14.359-.21-.389.024-.928.234-.761.043-.634.294-1.759.707-2.39 1.322l-.02-.138c-.29.362-1.262 1.08-1.34 1.547l-.077.019c-.15.265-.247.565-.367.838-.197.35-.288.135-.26.19-.388.816-.58 1.502-.746 2.065.118.184.003 1.108.047 1.848-.194 3.653 2.465 7.2 5.372 8.018.426.16 1.06.154 1.598.17-.635-.19-.717-.101-1.337-.326-.447-.219-.545-.468-.861-.754l.125.23c-.62-.228-.36-.283-.866-.449l.134-.182c-.2-.015-.532-.352-.623-.539l-.22.01c-.264-.34-.405-.585-.395-.774l-.071.132c-.08-.144-.973-1.273-.51-1.01-.086-.082-.2-.133-.324-.368l.094-.112c-.223-.298-.41-.68-.396-.807.12.167.202.198.283.226-.562-1.451-.594-.08-1.02-1.477l.09-.008c-.069-.108-.111-.226-.167-.34l.04-.407c-.405-.487-.113-2.072-.055-2.94.04-.353.338-.73.564-1.32l-.138-.024c.264-.478 1.505-1.92 2.08-1.846.279-.364-.055-.002-.11-.093.612-.659.805-.465 1.217-.584.446-.275-.382.108-.17-.105.77-.204.545-.464 1.549-.568.106.062-.246.097-.334.178.641-.327 2.03-.252 2.931.18 1.046.51 2.222 2.013 2.268 3.427l.053.015c-.027.562.083 1.212-.107 1.81l.128-.283m-4.456-7.207c.15.027.322.048.297.085.164-.037.2-.07-.297-.085m3.109 6.994c.034-.512-.099-.35-.144-.155.052.028.094.361.144.155m-.554 1.465c.167-.234.288-.49.331-.754-.038.189-.137.351-.232.523-.522.335-.05-.198 0-.401-.561.719-.078.43-.099.632m-1.496.38c-.28.004.052.146.416.203.101-.08.192-.16.273-.24a2.05 2.05 0 0 1-.69.037" fill="#fff"/></svg>