<svg xmlns="http://www.w3.org/2000/svg" width="32" height="32"><g fill-rule="evenodd"><rect ry="5.575" y="1.899" x="1.899" height="28.203" width="28.203" fill="#e7f0f2"/><path d="M16 7.32c-.773 1.894-1.24 3.135-2.1 4.974a13.56 13.56 0 0 0 2.227 1.942c-1.13-.465-1.901-.929-2.478-1.413-1.1 2.297-2.829 5.567-6.33 11.857 2.752-1.588 4.886-2.566 6.873-2.94a5.05 5.05 0 0 1-.13-1.18l.003-.085c.044-1.763.962-3.12 2.048-3.028 1.086.092 1.931 1.599 1.888 3.362-.009.331-.045.65-.11.945 1.965.385 4.076 1.36 6.79 2.926-.536-.985-1.016-1.87-1.472-2.717-.719-.557-1.467-1.282-2.996-2.066 1.051.273 1.806.587 2.392.94C17.967 12.2 17.591 11.051 16 7.32z" fill="#1793d1"/></g></svg>