<svg xmlns="http://www.w3.org/2000/svg" width="32" height="32"><g fill-rule="evenodd"><rect ry="5.575" y="1.899" x="1.899" height="28.203" width="28.203" fill="#9891f3"/><path d="M14.301 7.425c-3.74.178-6.67 3.557-6.524 5.396.147 1.79 4.696 3.36 4.645 3.414a70.877 70.877 0 0 0-2.322 2.02c-1.868 1.701-3.159 2.961-2.507 4.732.758 2.043 2.408 1.958 4.347 1.58 5.013-.986 13.249-7.29 12.822-9.618-.345-1.882-4.944-5.602-7.67-6.936a5.809 5.809 0 0 0-2.803-.588m.786 3.23c.468-.048 1.01.073 1.621.367 1.328.638 2.704 2.336 0 3.302-.735.257-3.088-.632-3.02-1.87.062-1.147.618-1.732 1.399-1.8m0 0" opacity=".647" fill="#655fac"/><path d="M14.201 7.325c-3.74.178-6.67 3.558-6.524 5.397.147 1.789 4.696 3.36 4.645 3.413a70.879 70.879 0 0 0-2.323 2.02c-1.867 1.702-3.158 2.962-2.506 4.733.757 2.043 2.407 1.958 4.347 1.58 5.013-.986 13.248-7.291 12.822-9.618-.345-1.882-4.944-5.603-7.67-6.937a5.809 5.809 0 0 0-2.803-.588m.785 3.23c.469-.048 1.012.074 1.622.367 1.328.639 2.704 2.337 0 3.303-.735.257-3.089-.633-3.02-1.87.062-1.148.618-1.733 1.398-1.8m0 0" fill="#e7f0f2"/></g></svg>