<svg xmlns="http://www.w3.org/2000/svg" height="32" width="32" version="1"><path d="M7.473 1.898a5.561 5.561 0 0 0-5.575 5.575v8.916h28.204V7.473a5.561 5.561 0 0 0-5.575-5.575z" fill="#8e8e8e" fill-rule="evenodd"/><path fill="#e6e6e6" d="M7.108 6.797h17.79v10.657H7.108z"/><path fill="gray" d="M8.887 11.06h4.447v3.197H8.887zM18.671 11.06h4.447v3.197h-4.447z"/><path d="M30.102 16.389H1.898v8.138a5.561 5.561 0 0 0 5.575 5.575h17.054a5.561 5.561 0 0 0 5.575-5.575z" fill="#505686" fill-rule="evenodd"/><rect width="17.052" height="2.131" x="7.477" y="20.651" rx="1.066" ry="1.066" fill="gray"/><rect width="12.789" height="2.131" x="9.608" y="24.914" rx="1.066" ry="1.066" fill="gray"/></svg>