<svg xmlns="http://www.w3.org/2000/svg" width="32" height="32"><path d="M21.187 2H7.536A5.523 5.523 0 0 0 2 7.534v16.93A5.525 5.525 0 0 0 7.536 30h16.93A5.523 5.523 0 0 0 30 24.464V10.813z" fill="#5c7cda" fill-rule="evenodd"/><path d="M15.283 30h5.905L30 21.187V7.536A5.521 5.521 0 0 0 24.467 2h-9.184v28z" fill="#5c7cda" fill-rule="evenodd"/><path d="M7.535 2A5.523 5.523 0 0 0 2 7.535v16.932A5.521 5.521 0 0 0 7.535 30h7.748v-6.994h3.934V27.459l4.252-4.252 4.25-4.25-4.162-4.164c-2.29-2.29-4.204-4.166-4.252-4.166-.048 0-.088.964-.088 2.14v2.141h-3.934V2H7.535z" fill="#002b93" fill-rule="evenodd"/></svg>