<svg xmlns="http://www.w3.org/2000/svg" height="32" width="32" version="1"><rect width="28.203" height="28.203" x="1.898" y="1.898" ry="5.575" fill="#03cd38" fill-rule="evenodd"/><g fill="#fff"><path d="M19.35 23.089c-1.081-.19-1.993-.961-2.34-1.977-.069-.203-.145-.563-.146-.689 0-.2.05-.166-1.609-1.082l-1.576-.87-.161.09c-.65.357-1.576.429-2.306.178a3.012 3.012 0 0 1-2.036-2.837 3.01 3.01 0 0 1 2.034-2.836 2.964 2.964 0 0 1 2.248.148l.286.14 1.538-.81c.847-.445 1.549-.824 1.56-.842a.357.357 0 0 0 .022-.137c.002-.361.246-1.024.521-1.411.943-1.33 2.75-1.676 4.094-.785a2.967 2.967 0 0 1 1.339 2.62 2.979 2.979 0 0 1-2.82 2.86 2.827 2.827 0 0 1-1.493-.316l-.24-.123-1.44.757c-.792.417-1.43.767-1.417.779.012.012.671.38 1.464.818l1.443.796.165-.084c.48-.242.825-.32 1.393-.318.537.003.833.073 1.296.304a2.989 2.989 0 0 1 1.112 4.393c-.287.413-.81.84-1.26 1.027-.518.216-1.166.296-1.672.207z"/><path d="M20.36 22.387c.401-.086.871-.358 1.16-.67.849-.917.844-2.273-.012-3.174a2.275 2.275 0 0 0-2.187-.661c-.221.05-.406.128-.68.285-.187.108-.232.122-.335.11-.088-.01-.556-.255-1.845-.967a261.52 261.52 0 0 1-1.813-1.005c-.118-.073-.165-.175-.165-.358 0-.198.052-.322.164-.391.049-.03.865-.463 1.815-.962 1.919-1.008 1.843-.978 2.074-.821.471.319 1.026.46 1.551.393.557-.07.968-.27 1.363-.66.377-.373.567-.726.664-1.239.134-.707-.083-1.433-.594-1.985a2.457 2.457 0 0 0-1.173-.676 2.698 2.698 0 0 0-1.073.012c-.653.17-1.23.64-1.516 1.237-.14.293-.198.517-.226.89-.017.23-.036.318-.078.376-.084.115-3.54 1.93-3.712 1.949-.117.013-.15 0-.388-.143a2.284 2.284 0 0 0-2.34-.036c-.283.159-.696.571-.855.855a2.269 2.269 0 0 0-.262 1.604c.242 1.17 1.319 1.978 2.471 1.852.392-.043.656-.131 1-.333.138-.08.226-.114.303-.114.09 0 .392.156 1.783.923.921.507 1.746.965 1.832 1.017.205.122.247.21.247.515.001.796.485 1.573 1.228 1.97.487.261 1.027.331 1.6.207z"/></g></svg>