<svg xmlns="http://www.w3.org/2000/svg" height="32" width="32" version="1"><rect width="28.203" height="28.203" x="1.898" y="1.898" ry="5.575" fill="#61b0dd" fill-rule="evenodd"/><path d="M20.693 30.102h3.834a5.561 5.561 0 0 0 5.575-5.575V7.473a5.561 5.561 0 0 0-5.575-5.575h-3.834v28.204z" fill="#e89800" fill-rule="evenodd"/><path d="M11.307 1.898H7.473a5.561 5.561 0 0 0-5.575 5.575v17.054a5.561 5.561 0 0 0 5.575 5.575h3.834V1.898z" fill="#bd1c1c" fill-rule="evenodd"/><g fill-rule="evenodd"><g transform="translate(50.314 -.827)"><rect width="5.622" height="14.055" x="-46.558" y="5.715" ry=".878" fill="#e5e5e5"/><circle cx="-43.747" cy="25.523" r="2.416" fill="#e5e5e5"/><circle cx="-43.747" cy="25.523" r="1.636" fill="#585858"/><rect width="3.478" height="2.298" x="-45.486" y="6.806" ry=".615" fill="#585858"/><rect width="3.478" height=".901" x="-45.486" y="14.938" ry=".241" fill="#585858"/><rect width="3.478" height=".901" x="-45.486" y="16.382" ry=".241" fill="#585858"/><rect width="3.478" height=".901" x="-45.486" y="17.779" ry=".241" fill="#585858"/></g><g transform="translate(59.747 -.827)"><rect width="5.622" height="14.055" x="-46.558" y="5.715" ry=".878" fill="#e5e5e5"/><circle cx="-43.747" cy="25.523" r="2.416" fill="#e5e5e5"/><circle cx="-43.747" cy="25.523" r="1.636" fill="#585858"/><rect width="3.478" height="2.298" x="-45.486" y="6.806" ry=".615" fill="#585858"/><rect width="3.478" height=".901" x="-45.486" y="14.938" ry=".241" fill="#585858"/><rect width="3.478" height=".901" x="-45.486" y="16.382" ry=".241" fill="#585858"/><rect width="3.478" height=".901" x="-45.486" y="17.779" ry=".241" fill="#585858"/></g><g transform="translate(69.18 -.827)"><rect width="5.622" height="14.055" x="-46.558" y="5.715" ry=".878" fill="#e5e5e5"/><circle cx="-43.747" cy="25.523" r="2.416" fill="#e5e5e5"/><circle cx="-43.747" cy="25.523" r="1.636" fill="#585858"/><rect width="3.478" height="2.298" x="-45.486" y="6.806" ry=".615" fill="#585858"/><rect width="3.478" height=".901" x="-45.486" y="14.938" ry=".241" fill="#585858"/><rect width="3.478" height=".901" x="-45.486" y="16.382" ry=".241" fill="#585858"/><rect width="3.478" height=".901" x="-45.486" y="17.779" ry=".241" fill="#585858"/></g></g></svg>