<svg xmlns="http://www.w3.org/2000/svg" height="32" width="32" version="1"><g transform="translate(32.113 -3.29)"><rect ry="5.575" y="5.189" x="-30.215" height="28.203" width="28.203" fill="#999" fill-rule="evenodd"/><path d="M-23.976 15.732h-.158a2.292 2.292 0 0 0-2.296 2.297v7.245a2.291 2.291 0 0 0 2.296 2.296h16.04a2.291 2.291 0 0 0 2.297-2.296v-7.245a2.292 2.292 0 0 0-2.296-2.297h-.158v5.564a1.807 1.807 0 0 1-1.813 1.813h-12.099a1.807 1.807 0 0 1-1.813-1.813z" fill="#e6e6e6"/><path d="M-23.976 15.732v5.564a1.807 1.807 0 0 0 1.813 1.813h12.099a1.807 1.807 0 0 0 1.813-1.813v-5.564z" fill="#5b5b5b"/><rect ry="0" rx="0" y="24.97" x="-23.028" height="2.6" width="13.829" fill="#525252"/><path fill="#ccc" d="M-22.147 25.927h12.067v3.579h-12.067z"/><path fill="#ccc" d="M-21.246 25.927h10.265v2.725h-10.265z"/><circle r=".664" cy="25.191" cx="-7.595" fill="#fff"/><path fill="#ccc" d="M-22.257 9.075h12.067v8.115h-12.067z"/><path fill="#ccc" d="M-21.357 9.874h10.265v7.316h-10.265z"/></g></svg>