<svg xmlns="http://www.w3.org/2000/svg" height="32" width="32" version="1"><path d="M7.473 1.898a5.561 5.561 0 0 0-5.575 5.575v14.035c.522.319 1.193.632 2.041.898a17.57 17.57 0 0 0 3.149.657c1.18.14 2.477.188 3.84.101a21.054 21.054 0 0 0 4.242-.707 19.993 19.993 0 0 0 4.363-1.77A20.213 20.213 0 0 0 23.73 17.6c1.339-1.278 2.603-2.817 3.744-4.66.986-1.594 1.827-3.532 2.6-5.608-.08-3.019-2.507-5.434-5.546-5.434H7.473z" fill="#ececec" fill-rule="evenodd"/><g transform="matrix(.88592 0 0 1.07566 2.468 9.13)" stroke-width="1.024" fill="#c6c6c6"><rect ry=".537" x="3.864" height="8.881" width="13.085"/><g color="#000" font-weight="400" font-family="sans-serif"><path style="line-height:normal;font-variant-ligatures:normal;font-variant-position:normal;font-variant-caps:normal;font-variant-numeric:normal;font-variant-alternates:normal;font-feature-settings:normal;text-indent:0;text-align:start;text-decoration-line:none;text-decoration-style:solid;text-decoration-color:#000;text-transform:none;text-orientation:mixed;white-space:normal;shape-padding:0;isolation:auto;mix-blend-mode:normal;solid-color:#000;solid-opacity:1" d="M18.457 0v.5h9.18V0zM18.457 2.053v.5h9.18v-.5zM18.457 4.107v.5h9.18v-.5zM18.457 8.215v.5h9.18v-.5zM18.457 6.162v.5h9.18v-.5z" overflow="visible"/></g></g><path d="M8.258 30.102c-.216-.76-.363-1.537-.75-2.256-.617-1.147-1.435-2.247-2.408-3.309-.935-1.02-2.026-2.004-3.202-2.967v2.957a5.561 5.561 0 0 0 5.575 5.575h.785z" fill="#ececec" fill-rule="evenodd"/><path d="M30.072 7.332c-.772 2.076-1.613 4.014-2.6 5.607-1.14 1.844-2.404 3.383-3.743 4.66a20.213 20.213 0 0 1-4.196 3.088 19.993 19.993 0 0 1-4.363 1.77c-1.45.399-2.88.62-4.242.707-1.363.087-2.66.04-3.84-.102a17.57 17.57 0 0 1-3.149-.656c-.848-.266-1.519-.58-2.04-.898v.062c1.175.963 2.266 1.947 3.2 2.967.974 1.062 1.792 2.162 2.409 3.309.387.719.534 1.496.75 2.256h16.27a5.561 5.561 0 0 0 5.574-5.575V7.473c0-.05-.028-.091-.03-.141z" fill="#bd0c1e" fill-rule="evenodd"/><g aria-label="PDF" style="line-height:1.25" font-weight="400" font-size="medium" font-family="sans-serif" letter-spacing="0" word-spacing="0" stroke="none" stroke-width=".4" color="#000" fill="#fff"><path style="line-height:1.25;font-variant-ligatures:normal;font-variant-position:normal;font-variant-caps:normal;font-variant-numeric:normal;font-variant-alternates:normal;font-feature-settings:normal;text-indent:0;text-align:start;text-decoration-line:none;text-decoration-style:solid;text-decoration-color:#000;text-transform:none;text-orientation:mixed;white-space:normal;shape-padding:0;isolation:auto;mix-blend-mode:normal;solid-color:#000;solid-opacity:1" d="M15.275 23.258v5.41h1.068v-2.012h.642c.584 0 1.055-.136 1.386-.43.333-.296.497-.739.497-1.272 0-.53-.164-.969-.497-1.264-.33-.297-.802-.432-1.386-.432zm1.068.959h.642c.277 0 .46.067.586.189.126.12.192.287.192.548 0 .263-.066.431-.192.552-.126.121-.309.19-.586.19h-.642zM19.37 23.258v5.41h1.575c.982 0 1.735-.207 2.238-.658.503-.452.744-1.153.744-2.052 0-.893-.24-1.592-.74-2.042-.5-.452-1.256-.658-2.242-.658zm1.068.959h.61c.652 0 1.092.15 1.357.413h.002c.266.26.417.69.417 1.328 0 .643-.15 1.076-.417 1.338h-.002c-.265.263-.705.413-1.357.413h-.61zM24.592 23.258v5.41h1.068v-2.392h1.96v-.972h-1.96V24.23h2.172v-.973z" overflow="visible"/></g></svg>