<svg xmlns="http://www.w3.org/2000/svg" height="32" width="32" version="1"><g fill-rule="evenodd"><path d="M1.898 16.525v8a5.565 5.565 0 0 0 5.577 5.577h17.052a5.563 5.563 0 0 0 5.575-5.577v-8z" fill="#c2352a"/><path d="M1.898 16.525h28.204V7.473a5.561 5.561 0 0 0-5.575-5.575H7.475a5.563 5.563 0 0 0-5.577 5.575z" fill="#6fbb34"/></g><path d="M16 3.658l2 3.5 4 .547-3 2.953.708 4-3.708-2-3.708 2 .708-4-3-2.953 4-.547z" fill="#fff"/><path d="M14.35 18.526l1.1 4.399-4.397-1.1v3.298l4.398-1.1-1.1 4.398h3.298l-1.1-4.398 4.398 1.1v-3.298l-4.398 1.1 1.1-4.399z"/></svg>