<svg xmlns="http://www.w3.org/2000/svg" width="32" height="32"><rect width="28.203" height="28.203" x="1.898" y="1.898" ry="5.575" fill="#0286c2" fill-rule="evenodd"/><g transform="translate(43.86 -.356)"><path d="M-16.379 23.687c-.227-1.14-.646-1.928-1.61-2.367-.01-4.712-1.379-9.943-5.758-12.383.35-.152 1.482-.387 1.83-.452a.793.793 0 0 0 .583-.434.683.683 0 0 0-.063-.685c-.136-.194-1.11-.664-2.469-.829-1.527-.068-2.35-.068-4.342.333-1.057.361-1.57.411-2.164.47-.506.048-1.078.104-1.988.338-2.62.672-3.854 1.738-4.553 2.438-.546.547-.848 1.659-.818 2.11-.13.066-.116.077-.26.153-.96.507-1.293.743-1.37 1.147-.056.298.048.493.293.76.396.371.621.408 1.243.408.983-.153 1.796-.473 2.797-.781.594-.058 1.106.046 2.003.222 1.16.269 2.402.571 3.433.56.2.376.53 1.08 1.065 1.72 1.393 1.672 3.02 1.568 3.186 1.57.301.003.54.013.68-.235a.68.68 0 0 0-.064-.768c-.145-.185-.67-.475-.813-1.23-.04-.216-.022-.398-.019-.57 1.855.544 4.717 2.2 5.094 4.005l.012 1.297c-.005 0 .005 0 0 0a13.064 13.064 0 0 0-.397-.005c-.338 0-.703.034-1.116.1-1.344.215-2.29 1.007-2.381 1.106 0 0-.262.208-.11.473.15.263.447.419.77.393h.015c2.054.287 4.826 1.58 5.67 3.23a.812.812 0 0 0 .792.426c.335-.023.62-.234.713-.53.023-.077.23-1.02.116-1.99z" fill="#f9f9f9"/><circle r=".823" cy="11.404" cx="-35.263" fill="#0286c2"/></g></svg>