<svg xmlns="http://www.w3.org/2000/svg" width="32" height="32"><rect width="28.203" height="28.203" x="1.898" y="1.898" ry="5.575" fill="#fec786" fill-rule="evenodd"/><g transform="translate(49.553 1.79)"><path d="M-27.55 16.129c.55 3.847-2.2 9.165-3.11 8.898-.31.362-6.012-3.134-6.675-6.914-.062-.352-1.646-2.822-.92-2.05 1.032 1.096-1.067-2.168-.6-3.173.69-1.481 4.515-1.699 6.306-1.699 1.635 0 3.551-.742 4.372.192.689.784.388 3.08.627 4.746z" fill="#fff"/><path d="M-32.391 21.851c0-.107.233-.241.957-.55.334-.14.448-.154.526-.061.054.065.08.141.058.168-.038.045-1.414.547-1.501.547-.022 0-.04-.047-.04-.104zM-32.031 20.552c-.394-.168-.504-.421-.13-.3.598.193.618.16.573-.926-.028-.678.001-.992.086-.924.071.057.151.6.178 1.207.054 1.213.022 1.255-.707.943zM-40.283 16.797c-.37-.252-.672-.478-.67-.503 0-.025.191-.2.425-.392.404-.33.459-.621.458-.85 0-.124-1.5-2.194-2.436-3.364-.362-.452-.684-.894-.715-.982-.036-.1.01-.247.12-.39.37-.484.995-1.253 1.34-1.914.343-.656.754-1.195.825-1.08.102.165.205.062 1.019-1.027.818-1.094 1.488-2.116 1.652-2.116.185 0 .108.184-.243.584-.628.67-.824 1.596-.825 2.201-.055 1.142.874 1.964 1.885 2.43 1.295.305 2.5.168 2.728-.914.189-.899-.447-1.45-1.183-1.672-.18.082-.701.633-.867 1.158-.058.184-.225.116-.225-.091 0-.43.486-1.528.743-1.996.362-.657.756-.689 1.08-.624.18.036.318-.077.482-.207l.23-.18c.8.588 1.696 1.02 2.55 1.517.958.68 1.88 1.065 1.89 1.162.006.058.003.06-.008.478-.019.725-.011.76.166.76.359 0 .72-.2 1.2-.78.839-1.012.947-1.022.947-1.872.06-.651-.797-2.045-1.335-1.523-.225.226-.487 1.02-.405 1.233.055.144.4.242.59.169.2-.077.167.082-.059.287-.295.269-.618.315-.855.123-.293-.238-.372-1.183-.15-1.79.212-.576.967-1.188 1.125-1.249.179-.069.38.075 1.093 1.013 1.15 1.73 2.404 3.278 3.526 4.93.14.205.275.504.301.666.044.269-.009.358-.622 1.061-1.011 1.158-1.691 2.097-1.691 2.334 0 .256.523.463.981.534.333.051.551.165.551.286-.545.743-2.696 3.782-2.955 3.575-.026-.041-.068-.53-.094-1.086-.2-1.506-.27-2.318-.447-3.787-.052-.287-.06-.292-.41-.243-.859.12-1.916.186-2.76.326-.682.114-1.279.59-1.557.441-.284-.153-1.783-.423-2.673-.534-2.627-.33-2.196-.274-2.196.05l.576 4.657s.275 1.251.045 1.251c-1.253-.478-2.172-1.388-3.147-2.06z" fill="#4f4f4f"/><circle cx="-33.94" r=".774" cy="18.083" fill="#4f4f4f"/><path d="M-36.05 16.534a.3.3 0 0 0-.103.014c-.042.027-.084.186-.093.354l-.017.306 1.068.052c.601.05 1.27.065 1.835.026.198 0 .22-.015.174-.117-.127-.27-.328-.427-.569-.441a54.227 54.227 0 0 1-1.28-.122 10.19 10.19 0 0 0-1.015-.072zM-31.43 15.76c-.077 0-.123.007-.134.016-.041.038-.062.222-.048.41.024.308.045.338.236.325.532.027 1.069.023 1.61.023.425-.018.948-.287 1.247-.433 0-.044-.04-.079-.09-.079-.05 0-.718-.071-1.485-.158-.615-.07-1.11-.107-1.337-.104z" fill="#4f4f4f"/><circle cy="17.308" cx="-30.842" r=".774" fill="#4f4f4f"/></g></svg>