<?xml version="1.0" encoding="UTF-8" standalone="no"?>
<svg
   xmlns:dc="http://purl.org/dc/elements/1.1/"
   xmlns:cc="http://creativecommons.org/ns#"
   xmlns:rdf="http://www.w3.org/1999/02/22-rdf-syntax-ns#"
   xmlns:svg="http://www.w3.org/2000/svg"
   xmlns="http://www.w3.org/2000/svg"
   version="1.1"
   viewBox="0 0 32 32"
   height="32"
   width="32"
   id="svg6">
  <metadata
     id="metadata12">
    <rdf:RDF>
      <cc:Work
         rdf:about="">
        <dc:format>image/svg+xml</dc:format>
        <dc:type
           rdf:resource="http://purl.org/dc/dcmitype/StillImage" />
        <dc:title></dc:title>
      </cc:Work>
    </rdf:RDF>
  </metadata>
  <defs
     id="defs10">
    <linearGradient
       gradientTransform="matrix(-2.65552,0,0,2.58531,193.7712,-277.73046)"
       id="0"
       x1="67.893997"
       y1="108.69"
       x2="67.853996"
       y2="113.11"
       gradientUnits="userSpaceOnUse">
      <stop
         stop-color="#f9f9f9"
         id="stop2" />
      <stop
         offset="1"
         stop-color="#999"
         id="stop4" />
    </linearGradient>
  </defs>
  <g
     id="g15">
    <rect
       ry="5.575182"
       y="1.8983059"
       x="1.8983059"
       height="28.203388"
       width="28.203388"
       style="opacity:1;fill:#554b48;fill-opacity:1;fill-rule:evenodd;stroke:none;stroke-width:1.035;stroke-linecap:round;stroke-linejoin:bevel;stroke-miterlimit:4;stroke-dasharray:none;stroke-dashoffset:0;stroke-opacity:1"
       id="rect2" />
    <path
       style="fill:#dba34c;fill-opacity:1;stroke:none;stroke-width:0;stroke-miterlimit:4;stroke-dasharray:none;stroke-opacity:1"
       d="m 25.104577,9.9893647 h 2.475897 l 0.132665,1.0257383 -0.787872,0.496774 1.043592,0.993551 L 28,13.224701 h -3.560262 v -0.70808 h 1.954112 l -0.900367,-1.07891 1.330042,-0.825628 h -2.097276 l -0.03114,-0.285471 z m -9.238993,1.4174193 h 1.289158 v 4.812001 l -1.289158,1.078913 z m -9.4639435,0 h 1.3197544 v 4.833412 L 6.4016405,17.319108 Z M 5,10 c 0.1123598,0.125943 0.1123598,0.26448 0.1123598,0.42261 v 10.14275 c 0,0.06997 0.010126,0.380627 -0.051447,0.624118 L 9.1022247,17.984787 C 9.0101756,17.886833 8.9385577,17.805668 8.9282691,17.613955 V 10.474946 L 8.3450818,9.9991602 Z m 15.991384,0 0.665224,2.559581 L 22.423768,10 h 1.667798 c -0.143359,0.139937 -0.143359,0.232296 -0.143359,0.465989 V 20.58733 c 0,0.517766 0,0.877403 0.123189,1.162873 -0.480711,-0.391822 -0.961693,-0.79344 -1.452922,-1.195059 0.102886,-0.05597 0.132668,-0.139938 0.132668,-0.327453 v -5.795756 l -1.155954,4.357348 -1.186953,-5.838157 v 5.869922 c -0.409367,-0.338645 -0.818465,-0.68709 -1.227834,-1.025736 0.11236,-0.09795 0.11236,-0.253284 0.11236,-0.433804 v -6.821631 c 0,-0.359638 -0.08257,-0.538758 -0.194533,-0.538758 h 1.892749 z m -10.006047,1.406784 h 1.411865 v 5.96494 L 10.985337,16.250831 Z M 10.166872,10 9.5939723,10.42261 v 6.969825 l 2.0462867,1.702749 2.015614,-1.681478 V 10.42261 L 13.144298,10 Z m 4.81888,0 -0.378502,0.401619 v 7.011947 l 1.964644,1.586462 1.964333,-1.628724 V 10.46515 L 18.055516,9.9991602 Z"
       id="path4" />
  </g>
</svg>
