<svg xmlns="http://www.w3.org/2000/svg" height="32" width="32"><rect ry="5.575" y="1.898" x="1.898" height="28.203" width="28.203" fill="#554b48" fill-rule="evenodd"/><path d="M25.105 9.99h2.475l.133 1.025-.788.497 1.044.993.031.72h-3.56v-.708h1.954l-.9-1.08 1.33-.825h-2.098l-.03-.285zm-9.24 1.417h1.29v4.812l-1.29 1.079zm-9.463 0h1.32v4.833l-1.32 1.08zM5 10c.112.126.112.264.112.423v10.142c0 .07.01.381-.051.624l4.041-3.204c-.092-.098-.163-.18-.174-.371v-7.14L8.345 10zm15.991 0l.666 2.56.767-2.56h1.668c-.144.14-.144.232-.144.466v10.121c0 .518 0 .878.123 1.163-.48-.392-.961-.793-1.453-1.195.103-.056.133-.14.133-.327v-5.796l-1.156 4.357-1.187-5.838v5.87c-.41-.339-.818-.687-1.228-1.026.113-.098.113-.253.113-.433V10.54c0-.36-.083-.539-.195-.539h1.893zm-10.006 1.407h1.412v5.965l-1.412-1.121zM10.167 10l-.573.423v6.97l2.046 1.702 2.016-1.681v-6.991L13.144 10zm4.819 0l-.379.402v7.012L16.572 19l1.964-1.629v-6.906l-.48-.466z" fill="#dba34c"/></svg>