<svg xmlns="http://www.w3.org/2000/svg" height="32" width="32"><rect width="28.203" height="28.203" x="1.898" y="1.898" ry="5.575" fill="#b76728" fill-rule="evenodd"/><rect rx="2.546" ry="2.546" height="21.895" width="21.895" y="5.053" x="5.053" fill="#4d4d4d"/><path d="M6.877 7.79v.912h.912v5.473h-.912v.913h4.562v-.913h.912V8.702h-.912v-.913zm7.298 0v.912h-.912v5.473h.912v.913h3.65v-.913h.912V8.702h-.912v-.913zm6.386 0v.912h-.912v1.824h.912v.913h1.825v.912h.912v1.824h-1.824v-1.824h-1.825v1.824h.912v.913h3.65v-.913h.912v-1.824h-.912v-.912h-.913v-.913h-1.824V8.702h1.824v1.824h1.825V8.702h-.912v-.913zm-10.947.912h.912v5.473h-.912zm5.474 0h1.824v5.473h-1.824zm-8.21 8.21v.913h.911v5.473h-.912v.913h4.562v-.913h.912v-2.737h-.912v-.912h.912v-1.824h-.912v-.913zm7.297 0v.913h-.912v5.473h.912v.913h3.65v-.913h.912v-5.473h-.912v-.913zm4.562 0v.913h.912v1.824h.912v1.825h-.912v1.824h-.912v.913h1.824v-.913h.913v-.912h.912v.912h.912v.913h1.825v-.913h-.912v-1.824h-.913v-1.825h.913v-1.824h.912v-.913h-1.825v.913h-.912v.912h-.912v-.912h-.913v-.913zm-9.123.913h.912v1.824h-.912zm5.474 0h1.824v5.473h-1.824zM9.614 20.56h.912v2.737h-.912z" fill="#ccc"/></svg>