<svg xmlns="http://www.w3.org/2000/svg" height="32" width="32" version="1"><rect width="28.203" height="28.203" x="1.898" y="1.898" ry="5.575" fill="#c2352a" fill-rule="evenodd"/><path d="M17.709 5.158l-3.723.064-.755.569.062.063-2.458.064.189-.253-5.613-.127-.064.38-.064.569.38.695-.189 1.455-.316 1.265.189 1.202.064.949.378 1.264-.126.633.062.695.442.507.125.822-.818.315.126 2.531.505.38-.316 2.212-.253.127-.189 4.239.222-.03.536.11s.648.225.782.27c.134.044.333-.202.333-.202h.535l.446-.089.247.112.222-.023.558-.043.265-.114.113.27.09-.068.246-.113.511-.044.11.157s.625.067.848.067c.223 0 .18-.18.18-.18s.065-.021.177.09c.111.112.27-.045.27-.045l.221-.112.158.157.156.112.423-.089h.69l.159-.045.645.917.043-.468h1.048c.09 0 .047.312.047.312l.69-.224.357.357.736-.469.401-.068.78-.042h1.115l1.27.087.337-.133.243-.224.67.379.49-.202s.536.205.625.227c.09.023.915-.092.915-.092l.511-.135-.332-.245.222-.089.936.044 1.248.315-.021-8.162v-.516l-.312.047-.402.066v-.246l.222-.203.18-.266.043-.962-.067-.694-.29-.85-.265-.357-.045-.336.066-.223.021-.066.29-.114.046-.113-.222-.378.201-.115.315-.19.125-1.138.064-.76V7.942l-.19-.76.126-.821.064-.318-.568-.252-2.144-.38-.317.443-.126-.507-4.099-.063-.127.697-1.008.126-.126-.442-.883-.127.316-.38z" fill="#fff"/><path d="M20.647 8.643l-3.098 1.549 4.646 3.097v-3.097zm-10.842.774l-2.324.775 13.166 13.165h2.323l1.549-3.872zm-1.55 8.52l-.774 3.871 1.55 1.55h1.548l2.323-.775z" fill="#c2352a"/></svg>