<svg xmlns="http://www.w3.org/2000/svg" height="32" width="32" version="1"><path d="M30 6.969c-.054-.579-.12-1.157-.336-1.67A5.563 5.563 0 0 0 26.7 2.334c-.511-.216-1.089-.28-1.666-.334H16v14h14z" fill="#cf4f8c"/><path d="M6.965 2c-.577.054-1.155.118-1.666.334a5.563 5.563 0 0 0-2.965 2.965c-.216.511-.28 1.089-.334 1.666V16h14V2zM25.035 30c.577-.054 1.155-.118 1.666-.334a5.563 5.563 0 0 0 2.965-2.965c.216-.511.28-1.089.334-1.666V16H16v14z" fill="#ff8c2a"/><path d="M2 25.031c.054.579.12 1.157.336 1.67A5.563 5.563 0 0 0 5.3 29.666c.511.216 1.089.28 1.666.334H16V16H2z" fill="#6655e4"/><rect width="21.424" height="21.424" x="5.288" y="5.288" ry="4.235" fill="#3f3f3f" fill-rule="evenodd"/><g fill="none" stroke="#fff" stroke-width="1.695" stroke-linecap="round"><path d="M10.92 21.942h6.781"/><path d="M10.92 16.856s3.428.297 3.39-3.39c-.036-3.688-3.39-3.39-3.39-3.39m-.012 6.775V10.07M21.092 16.009s0 .847-1.695.847c-1.696 0-1.696-1.695-1.696-3.39s0-3.39 1.696-3.39c1.695 0 1.695.847 1.695.847" stroke-linejoin="bevel"/></g></svg>