<svg xmlns="http://www.w3.org/2000/svg" height="32" width="32" version="1"><path d="M30 6.969c-.054-.579-.12-1.157-.336-1.67A5.563 5.563 0 0 0 26.7 2.334c-.511-.216-1.089-.28-1.666-.334H16v14h14z" fill="#cf4f8c"/><path d="M6.965 2c-.577.054-1.155.118-1.666.334a5.563 5.563 0 0 0-2.965 2.965c-.216.511-.28 1.089-.334 1.666V16h14V2zM25.035 30c.577-.054 1.155-.118 1.666-.334a5.563 5.563 0 0 0 2.965-2.965c.216-.511.28-1.089.334-1.666V16H16v14z" fill="#f7c73c"/><path d="M2 25.031c.054.579.12 1.157.336 1.67A5.563 5.563 0 0 0 5.3 29.666c.511.216 1.089.28 1.666.334H16V16H2z" fill="#6655e4"/><rect width="21.424" height="21.424" x="5.288" y="5.288" ry="4.235" fill="#3f3f3f" fill-rule="evenodd"/><g fill="none" stroke="#fff" stroke-width="2" stroke-linecap="round"><path d="M10.306 21.705h6.51" stroke-width="1.6276"/><path d="M10.306 16.822s3.29.285 3.255-3.255c-.036-3.54-3.255-3.255-3.255-3.255m-.012 6.505v-6.51" stroke-linejoin="bevel" stroke-width="1.6276"/><path d="M21.699 16.822v-6.51m-4.883 0l2.442 3.255 2.44-3.255m-4.882 6.51v-6.51" stroke-linejoin="round" stroke-width="1.6276"/></g></svg>