<svg xmlns="http://www.w3.org/2000/svg" height="32" width="32" version="1"><rect width="28.203" height="28.203" x="1.898" y="1.898" ry="5.575" fill="#d95951" fill-rule="evenodd"/><g stroke-width="1.215" fill="#fff"><path d="M6.126 7.772v3.29h4.029c.372 0 .908.452.908.824v8.228c0 .372-.537.845-.908.823h-4.03v3.291h7.054c.651 0 1.175-.524 1.175-1.175V8.947c0-.651-.524-1.175-1.175-1.175zM25.874 7.772v3.29h-4.03c-.371 0-.907.452-.907.824v8.228c0 .372.536.845.908.823h4.03v3.291H18.82a1.173 1.173 0 0 1-1.175-1.175V8.947c0-.651.524-1.175 1.175-1.175z"/></g></svg>