<svg xmlns="http://www.w3.org/2000/svg" height="32" width="32" version="1"><rect ry="5.575" y="1.898" x="1.898" height="28.203" width="28.203" fill="#699d39" fill-rule="evenodd"/><path d="M30.102 15.031c-2.047-.397-4.093-.778-6.14-.965-2.65-.241-5.3-.32-7.95-.271-2.65.048-5.301.222-7.951.488-2.054.206-4.109.503-6.163.801v9.443a5.561 5.561 0 0 0 5.575 5.575h17.054a5.561 5.561 0 0 0 5.575-5.575v-9.496z" fill="#699d39" fill-rule="evenodd"/><path d="M7.473 1.898a5.561 5.561 0 0 0-5.575 5.575v7.611c2.054-.298 4.109-.595 6.163-.8 2.65-.267 5.3-.44 7.95-.49 2.651-.047 5.302.03 7.952.272 2.046.187 4.092.568 6.139.965V7.473a5.561 5.561 0 0 0-5.575-5.575H7.473z" fill="#90be67" fill-rule="evenodd"/><path d="M15.955 6.986c10.617 7.79 5.309 3.896 0 0zm-4.592 11.785c.306-.127.85-.498 1.21-.823.59-.533.67-.565.809-.317.34.609 1.112 1.344 1.41 1.344.376 0 2.295-1.639 2.295-1.96 0-.123-.192-.515-.428-.87l-.427-.645c-.184-2.209.162-6.85-.71-8.274-1.113-1.522-2.98-1.701-4.113-1.696-2.978.018-4.595 1.02-5.183 3.21-.195.727-.076.828 1.132.964.51.057 1.087.144 1.282.193.305.077.398-.012.659-.618.194-.454.47-.795.771-.95.543-.281 1.455-.316 1.907-.074.393.21.755 1.053.755 1.76v.538l-.895.104c-1.517.176-3.186.552-3.764.85-.718.367-1.625 1.284-1.98 2-.205.414-.282.928-.283 1.89 0 1.125.058 1.425.388 2.01.712 1.255 1.795 1.768 3.51 1.664.605-.037 1.35-.172 1.655-.3zm-1.548-2.368c-.48-.337-.717-1.31-.507-2.09.268-.996 1.505-1.699 3.013-1.712l.445-.003-.063 1.127c-.037.67-.181 1.373-.354 1.73-.505 1.04-1.742 1.503-2.534.948z" fill="#fff"/><rect ry=".09" rx=".128" y="21.089" x="4.646" height="1.381" width="7.039" fill="#fff" fill-rule="evenodd"/><rect ry=".09" rx=".128" y="23.172" x="4.646" height="1.381" width="7.039" fill="#fff" fill-rule="evenodd"/><rect ry=".09" rx=".128" y="25.343" x="4.646" height="1.381" width="7.039" fill="#fff" fill-rule="evenodd"/><rect ry=".09" rx=".128" y="23.172" x="12.337" height="1.381" width="7.039" fill="#fff" fill-rule="evenodd"/><rect ry=".09" rx=".128" y="25.343" x="12.337" height="1.381" width="7.039" fill="#fff" fill-rule="evenodd"/><rect ry=".09" rx=".128" y="21.089" x="20.089" height="1.381" width="7.039" fill="#fff" fill-rule="evenodd"/><rect ry=".09" rx=".128" y="23.172" x="20.089" height="1.381" width="7.039" fill="#fff" fill-rule="evenodd"/><rect ry=".09" rx=".128" y="25.343" x="20.089" height="1.381" width="7.039" fill="#fff" fill-rule="evenodd"/><rect ry=".09" rx=".128" y="18.994" x="20.089" height="1.381" width="7.039" fill="#fff" fill-rule="evenodd"/></svg>