<svg xmlns="http://www.w3.org/2000/svg" height="32" width="32"><g transform="translate(15.107 -2.23)"><rect ry="5.575" y="4.128" x="-13.209" height="28.203" width="28.203" fill="#ffd44a" fill-rule="evenodd"/><path d="M.893 8.125A10.105 10.105 0 0 0-9.212 18.23 10.105 10.105 0 0 0 .893 28.335 10.105 10.105 0 0 0 10.998 18.23 10.105 10.105 0 0 0 .893 8.125z" fill="#f4b400"/><path d="M-.393 8.216a9.997 9.997 0 0 0-3.633 1.198l.714.178.461.324v.277l.786.508-.185.74-.415-.323-.278.323-.323.184-.185-.555.092-.323-.092-.23-.462-.417h-.185l.185.463v.415c-.182-.05-.369-.069-.555-.092l.509.37.046.23.6.51.6-.139v-.37l.279.184-.139.324h.462l.232.416.277.324.554.092-.324.323-.092.324h.416l.508.277v.832h-.23l-.231.231-.51-.23-.184-.51-.37-.23-.046-.185-.6-.138-.324.369-.37.184.231.417-.323-.092-.185-.417.416-.461h-.185l-.37.323-.092.462-.323.416-.093-.6-.185-.094c-.196.208-.343.46-.508.694l-.647.046-.324.232.14.23.368.323h.509l.693-.23.323.046.277.277.74-.74.509-.138.74.092.692.186c.378.436.752.886 1.11 1.34l.416 1.063-.186.184.37.555-.416.97c-.337.389-.68.767-1.017 1.155l-.508-.415-.185.23-.555-.322-.184.184h-.508l-.324.37.184.647-.369.416.046.74-.323.553.231.463c.02.336.046.68.046 1.016-.162.456-.355.882-.509 1.341l-.092.74v.369h-.277l-.462-.277h-.441a10.016 10.016 0 0 0 5.848 1.876c1.643 0 3.186-.398 4.553-1.09l.022-.047-.324-.323-.092-.324-.508-.138-.37-1.017.092-.23-.23-.417-.602-.138-.276-.694.046-.924-.463-.647-.046-.647c.63-.32 1.223-.642 1.85-.97l.322-.648.555-.138.323-.832.74.092.693-.507.693.646v.092c.21-.062.461-.068.648-.184l.138-.462v-.463l.462.047c-.039-.311-.1-.66-.139-.97h.278l.277.369.277.138.37-.23.046-.462-.046-.555-.6-.416H9.12l-.094-.277-.553.138-.417.509-.092-.878-.74-.601-.23-.694-.555-.23-.323-.417-.694-.138-.324-.555h1.018l-.648-.277h-.462l-.6-.23-.094.6-.276-.416.323-.23-.093-.233.232-.23.277-.047-.092-.277.23-.416.463.185-.092-.37.554-.324.416.786-.046.232.415.184.278.601.093-.554.739-.277.138-.417-.97-.555-.416-.415-.046-.509.024-.015c-.105-.07-.219-.132-.329-.199l.167.4H5.84L5.7 9.64l-.415.324h-.37v-.37l.416-.185.37.232-.047-.093c-.185-.134-.364-.287-.553-.416l-.463.14c-.287.198-.544.4-.832.6l-.462-.416.509-.185.184-.462.36-.04c-.194-.072-.388-.146-.588-.206l-.927.662v.416l.37.416-.508 1.016-.37-.184-.416-.693A15.139 15.139 0 0 1 .155 9.5l.046.277-.277.186-.509-.37.232-.277.369.184.046-.046-.454-1.238zm-4.624 1.838c-.157.114-.317.225-.467.348l.184.207.509-.555h-.226zm3.83.509h.278v.277l-.185.23v.417l.093.6-.463-.091-.37-.325.324-.323c.101-.275.196-.521.323-.785zm.693.6l.278.093-.046.554-.416-.23zm-7.209 4.714l-.416.462-.462-.046c-.162.15-.324.28-.475.43-.07.478-.107.968-.107 1.466 0 3.302 1.583 6.212 4.026 8.043l-.625-.742.093-.324-.555-.462.416-.416-.462-.37-.462-.277-.185-.231.138-.508v-1.295l-.369-.785-.416-.463-.509-1.201v-.324c.238.03.46.076.693.093l-.461-.508-.647-.463-.37-.415v-.417c.079-.153.151-.355.231-.508l.323.416.231-.323.37-.278v-.554zm1.802.231l-.415.508-.555 1.156-.323.369.185.416-.323.37c.135.008.276 0 .415 0 .252-.54.455-1.099.647-1.664l.323-.37.186-.693-.14-.092zm16.844 1.817a6.174 6.174 0 0 0-.067.124l-.786.463-.832.23-.324.463-.554.416-.278-.093-.23.139v.046l.277.878.231.324-.046.185.185.693-.694 1.248-.693.646-.323.417.046.97-.232.509.17.746a10.017 10.017 0 0 0 4.156-8.14c0-.088-.004-.176-.006-.264z" fill="#ffd44a"/><path d="M1.655 10.822l.35 2.037-1.483 1.445 2.047.297.916 1.854.916-1.854 2.047-.297-1.483-1.445.35-2.037-1.83.96zm-7.035 1.777l.35 2.04-1.481 1.443 2.047.296.914 1.856.916-1.856 2.047-.296-1.483-1.444.35-2.039-1.83.963zm8.886 5.184l.35 2.039-1.482 1.443 2.047.297.916 1.856.914-1.856 2.046-.297-1.48-1.443.35-2.04-1.83.964zm-8.146 2.222l.35 2.038-1.48 1.443 2.046.299.914 1.853.916-1.853 2.047-.3-1.48-1.442.35-2.038-1.833.961z" fill="#fff"/><path d="M.25 19.937a.885.885 0 0 0-.729 1.338l1.87 3.245-1.87 3.244a.885.885 0 1 0 1.534.883l1.357-2.355 1.358 2.355a.885.885 0 1 0 1.534-.883l-1.87-3.244 1.87-3.245a.885.885 0 0 0-.753-1.338.885.885 0 0 0-.78.455l-1.359 2.356-1.357-2.356a.885.885 0 0 0-.806-.455zm6.413.005a.885.885 0 0 0-.85 1.143l2.124 7.372a.885.885 0 0 0 1.7 0l2.126-7.372a.885.885 0 1 0-1.7-.491l-1.275 4.422-1.275-4.422a.885.885 0 0 0-.85-.652z" style="line-height:normal;font-variant-ligatures:normal;font-variant-position:normal;font-variant-caps:normal;font-variant-numeric:normal;font-variant-alternates:normal;font-feature-settings:normal;text-indent:0;text-align:start;text-decoration-line:none;text-decoration-style:solid;text-decoration-color:#000;text-transform:none;text-orientation:mixed;white-space:normal;shape-padding:0;isolation:auto;mix-blend-mode:normal;solid-color:#000;solid-opacity:1" color="#000" font-weight="400" font-family="sans-serif" overflow="visible" fill="#c2352a"/></g></svg>