<svg xmlns="http://www.w3.org/2000/svg" height="32" width="32" version="1"><g transform="translate(45.017 -9.356)"><rect ry="5.575" y="11.254" x="-43.119" height="28.203" width="28.203" fill="#5f7c8a" fill-rule="evenodd"/><path d="M-23.378 24.557c-.418-.013-.469-.026-.54-.138a3.057 3.057 0 0 1-.099-.461c-.072-.438-.116-.57-.216-.64a7.645 7.645 0 0 0-.882-.383c-.117-.022-.204.017-.592.268-.515.333-.517.333-.839 0-.13-.135-.362-.38-.517-.543-.28-.298-.28-.298-.28-.403 0-.1.013-.126.26-.476.361-.515.355-.467.143-1.02-.172-.446-.23-.544-.358-.595a6.828 6.828 0 0 0-.467-.11 4.905 4.905 0 0 1-.452-.111.3.3 0 0 1-.085-.092c-.037-.062-.042-.11-.04-.45.002-.209.008-.544.017-.744l.014-.364.068-.068c.066-.066.09-.073.527-.15.533-.094.598-.124.686-.315.152-.332.303-.69.32-.757.03-.13-.008-.22-.256-.605a4.933 4.933 0 0 1-.253-.417c-.046-.131-.002-.194.443-.623.627-.605.632-.609.755-.609.098 0 .126.016.472.261.368.262.485.32.6.296.034-.007.24-.082.458-.167.408-.158.51-.22.558-.344.013-.031.062-.241.11-.467.047-.225.101-.433.12-.461a.32.32 0 0 1 .104-.088c.062-.033.14-.035.776-.02.514.011.72.023.761.044.117.06.131.097.219.588.109.612.077.57.61.805.22.097.434.183.474.19.122.025.22-.018.592-.26a3.76 3.76 0 0 1 .422-.25c.134-.037.193.004.563.389.699.727.665.685.665.805 0 .1-.014.125-.262.474-.265.373-.318.482-.294.607.007.037.081.243.166.458.157.4.22.502.344.551.03.013.242.063.469.11.226.05.434.103.461.121a.317.317 0 0 1 .085.102c.033.062.035.142.02.777-.016.777-.02.797-.153.873a3.06 3.06 0 0 1-.478.106c-.428.073-.518.1-.594.181-.053.057-.387.809-.407.917-.021.114.021.207.274.597.13.2.238.386.24.415.013.145 0 .177-.138.309-.65.628-.916.877-.947.89a.475.475 0 0 1-.125.016c-.079.001-.126-.026-.444-.252-.405-.287-.473-.322-.597-.304-.096.013-.82.291-.906.348-.096.062-.143.188-.234.618-.049.23-.105.443-.125.474-.082.125-.133.13-1.215.097z" fill="#ccc"/><path d="M-30.165 36.23c-.115-.054-.144-.089-.381-.46-.52-.813-.503-.79-.685-.887l-.108-.058-.692-.007c-.765-.007-.822 0-.977.128-.045.037-.252.319-.46.627-.367.541-.384.563-.489.607-.193.084-.075.124-1.703-.575a9.146 9.146 0 0 1-.527-.238.482.482 0 0 1-.112-.156c-.07-.142-.077-.084.112-.95.136-.623.138-.672.036-.86-.084-.155-.954-1.033-1.075-1.085-.179-.076-.213-.074-.926.063-.405.077-.704.125-.739.117a.47.47 0 0 1-.257-.167 20.2 20.2 0 0 1-.43-1.026c-.355-.882-.384-.965-.376-1.067.016-.2.051-.234.67-.63.31-.2.59-.393.622-.43a.892.892 0 0 0 .103-.167c.043-.093.045-.132.045-.826 0-.703-.002-.73-.046-.815-.072-.135-.155-.203-.69-.564-.274-.185-.52-.357-.549-.384a.436.436 0 0 1-.112-.318c.013-.091.783-1.909.853-2.013a.47.47 0 0 1 .142-.118c.13-.07.2-.062.889.09.313.07.604.122.673.122.224 0 .303-.055.83-.578.52-.514.568-.583.568-.799 0-.062-.055-.393-.122-.737-.11-.57-.119-.633-.095-.726.05-.2.078-.216 1.15-.644 1.053-.42 1.088-.43 1.262-.34.074.037.13.108.354.45.146.224.314.484.373.578.116.186.184.248.344.319.097.043.143.046.814.05l.71.003.11-.058a.751.751 0 0 0 .165-.12c.03-.033.22-.302.42-.598.328-.485.372-.541.46-.584.174-.084.225-.069 1.268.378.519.223.968.428.997.455a.492.492 0 0 1 .134.288c0 .036-.058.338-.13.67-.073.342-.13.66-.13.729 0 .216.052.288.59.833.428.434.499.496.593.527a.779.779 0 0 0 .197.035c.049 0 .365-.054.703-.12.338-.066.64-.12.673-.119a.47.47 0 0 1 .29.146c.032.037.223.483.443 1.03.43 1.071.434 1.088.328 1.268-.048.082-.127.14-.582.428-.29.184-.572.379-.627.433-.158.155-.169.208-.186.956-.017.71-.006.799.116.966.04.055.249.21.625.466.505.342.57.393.614.48.093.183.089.198-.364 1.26-.452 1.06-.461 1.076-.662 1.132-.09.025-.141.017-.758-.117-.364-.08-.684-.144-.713-.144-.127 0-.355.1-.435.189-.02.022-.227.23-.462.462-.368.366-.433.44-.47.54a.713.713 0 0 0-.043.2c0 .048.054.368.121.712.076.394.117.656.11.708a.428.428 0 0 1-.204.295c-.045.022-.5.208-1.01.413-.637.255-.956.372-1.012.372a.491.491 0 0 1-.168-.04z" fill="#fff"/><circle r="3.787" cy="28.292" cx="-31.976" fill="#5f7c8a"/><circle r="2.445" cy="19.163" cx="-22.931" fill="#5f7c8a"/></g></svg>