<svg xmlns="http://www.w3.org/2000/svg" height="32" width="32" version="1"><rect width="28.203" height="28.203" x="1.898" y="1.898" ry="5.575" fill="#c2352a" fill-rule="evenodd"/><path d="M14.773 20.71l2.368-2.37.013-1.116c.011-1.065.015-1.13.087-1.453a4.7 4.7 0 0 1 .47-1.32 5.026 5.026 0 0 1 1.16-1.5l.244-.218-.012-.88c-.01-.755-.021-.927-.076-1.204-.212-1.064-.653-1.898-1.397-2.642-.43-.43-.434-.433-.778-.661-.508-.335-1.235-.636-1.732-.716-.44-.07-.96-.105-1.168-.079-.125.016-.319.037-.432.048-.525.05-1.221.296-1.776.626a5.019 5.019 0 0 0-2.252 2.954c-.161.57-.162.573-.18 2.26l-.019 1.586-.8.007-.8.008v9.04h4.712zm-2.759-8.204l.009-1.534.086-.206c.394-.937 1.438-1.605 2.314-1.48.723.102 1.452.638 1.799 1.321.155.308.16.363.16 1.956v1.476h-4.376z" fill="#fff"/><path d="M15.755 25.252l.196-.205h.409l.186-.181.187-.181.008-.414.008-.413.41-.008.412-.008.183-.182.184-.182v-.809h1.229l.178-.143c.414-.332.537-.606.567-1.266l.007-.161.396-.008.396-.009.106-.103.107-.104.158.043c.535.146.582.151 1.215.151.667 0 .773-.015 1.335-.195A4.755 4.755 0 0 0 25 20.141c.346-.283.783-.79.996-1.156.096-.165.278-.531.278-.56a4.064 4.064 0 0 0 .263-.932c.083-.626.086-.714.045-1.08-.065-.563-.105-.741-.27-1.185-.423-1.14-1.341-2.044-2.545-2.507-.83-.32-1.985-.336-2.835-.04-.693.24-1.165.529-1.647 1.006-.589.582-.932 1.156-1.151 1.923-.241.844-.201 1.875.102 2.652l.062.157-2.34 2.34-2.34 2.341.01.849.01.848.077.147c.211.397.488.505 1.309.51l.534.004zm-1.193-.78l-.19-.19 2.774-2.773 2.774-2.774.2.192c.11.106.195.206.19.221-.017.05-5.496 5.517-5.527 5.515a1.263 1.263 0 0 1-.22-.191zm9.114-8.073c-.449-.117-.736-.347-.916-.733-.072-.153-.082-.208-.082-.467 0-.258.01-.314.08-.465.156-.332.385-.545.718-.665.148-.053.226-.063.44-.054.222.01.289.025.464.11.824.4.92 1.54.174 2.059-.237.164-.667.27-.878.214z" fill="#ffe2bd"/></svg>