<svg xmlns="http://www.w3.org/2000/svg" height="32" width="32" version="1"><rect width="28.203" height="28.203" x="1.898" y="1.898" ry="5.575" fill="#880716" fill-rule="evenodd"/><path d="M17.942 6.191c-3.074 1.982-6.786 6.335-6.816 6.651-.374-.237-2.13-.696-3.996-.885 1.264.888 1.834 2.821 1.499 3.899-2.226 7.162 3.97 10.036 7.557 9.823 3.587-.214 10.143-1.772 8.392-10.665-.348.76-1.456 1.098-1.866.242-2.603-5.434-6.218-2.68-4.77-9.065z" fill="#ee1e14"/><path d="M17.128 8.042c-1.486 1.365-2.933 3.482-2.898 4.65.02.678.003 4.008-.196 3.49-1.26-1.334-2.71-2.444-4.576-3.063 1.264.888 1.611 1.91 1.273 2.987-2.315 7.373 1.488 9.48 5.623 9.557.315.006 9.346-.451 6.814-8.536.2 1.88-2.148 2.868-2.237 1.7-.447-5.856-5.86-4.63-3.803-10.785z" fill="#f39019"/><path d="M15.961 25.603c-3.419-.363-4.124-3.052-2.616-5.646.657-1.13 1.84-2.166 2.322-3.28.665-1.534.24-3.125-.89-4.929 6.527 5.948 7.903 13.94 1.184 13.855z" fill="#f3b326"/><path d="M16.757 25.606c2.026-.464 2.444-2.107 1.55-3.535-.39-.622-1.09-1.15-1.375-1.774-.394-.861-.142-1.835.527-2.985-3.866 3.997-4.681 8.83-.702 8.294z" fill="#ffff7e"/></svg>