<svg xmlns="http://www.w3.org/2000/svg" height="32" width="32" version="1"><rect width="28.203" height="28.203" x="1.898" y="1.898" ry="5.575" fill="#3b80ae" fill-rule="evenodd"/><path d="M7.633 7.5c-.627 0-1.133.547-1.133 1.227v4.546c0 .68.506 1.227 1.133 1.227h4.705l2.728 5h-.716c-.47 0-.85.392-.85.877v3.246c0 .485.38.877.85.877h4.3c.47 0 .85-.392.85-.877v-3.246a.884.884 0 0 0-.223-.582l1.721-2.295h3.512c.549 0 .99-.469.99-1.05v-3.9c0-.581-.441-1.05-.99-1.05h-5.02c-.487 0-.87.377-.955.867L14.5 11.36V8.727c0-.68-.506-1.227-1.133-1.227H7.633zm6.867 4.889l4 1v3.06c0 .582.441 1.051.99 1.051h.258l-1.5 2h-2.041l-2.734-5.012c.577-.057 1.027-.574 1.027-1.215v-.884z" fill="#c9d0ff"/></svg>