<svg xmlns="http://www.w3.org/2000/svg" height="32" width="32" version="1"><g transform="translate(42.44 -1.22)"><path d="M-34.968 3.119a5.561 5.561 0 0 0-5.574 5.574v8.916h28.203V8.693a5.561 5.561 0 0 0-5.574-5.574z" fill="#8e8e8e" fill-rule="evenodd"/><path fill="#e6e6e6" d="M-35.333 8.017h17.79v10.657h-17.79z"/><path fill="gray" d="M-33.554 12.28h4.447v3.197h-4.447zM-23.77 12.28h4.447v3.197h-4.447z"/><path d="M-12.34 17.609h-28.202v8.139a5.561 5.561 0 0 0 5.574 5.574h17.055a5.561 5.561 0 0 0 5.574-5.574z" fill="#4d4d4d" fill-rule="evenodd"/><rect ry="1.066" rx="1.066" y="21.872" x="-34.964" height="2.131" width="17.052" fill="gray"/><rect ry="1.066" rx="1.066" y="26.135" x="-32.833" height="2.131" width="12.789" fill="gray"/><g transform="matrix(.8 0 0 .8 -39.74 4.55)" stroke-width=".833"><circle cy="23.5" cx="24.5" r="7.5" fill="#3cd240"/><path d="M21 24l3.5 4 3.5-4h-2v-5h-3v5z" fill="#fff"/></g></g></svg>