<svg xmlns="http://www.w3.org/2000/svg" height="32" width="32" version="1"><defs><linearGradient id="a"><stop offset="0"/><stop stop-opacity="0" offset="1"/></linearGradient></defs><rect width="28.203" height="28.203" x="1.898" y="1.898" ry="5.575" fill="#74b2ed" fill-rule="evenodd"/><path d="M22.164 20.592l-1.697.705L16 18.558l-4.441 2.508-1.723-.243v2.397L16 27.034l6.164-3.814z" fill="#3785f2"/><path d="M16 18.558v8.476l6.164-3.853V20.87l-1.762.963z" fill="#1772ed"/><g fill="#fff"><path d="M9.45 14.705L16 10.853 11.377 7l-6.164 4.238zM16 18.558l-6.55-3.853-4.237 3.468 6.164 4.238zM26.787 18.173l-4.237-3.468L16 18.558l4.623 3.725z"/><path d="M16 10.853l6.55 3.852 4.237-3.467L20.623 7z"/></g><path d="M22.55 14.705L16 18.558l-6.55-3.853L16 10.853z" fill="#6db2e8"/><path d="M9.45 14.705L16 18.558v-7.705z" fill="#68aadd"/></svg>