<svg xmlns="http://www.w3.org/2000/svg" height="32" width="32" version="1"><rect width="28.203" height="28.203" x="1.898" y="1.898" ry="5.575" fill="#5db43e" fill-rule="evenodd"/><path d="M10.5 9l2 2.5 1-.5L12 9.5l1.5-.5zm8 0l1.5.5-1.5 1.5 1 .5 2-2.5zM16 10c-1.302.004-3.006.715-3 3.2l3-1.7 3 1.7c.006-2.485-1.698-3.196-3-3.2zm-7.5 1l1 3v-1h2l.5-1zm15 0L20 12l.5 1h2v1zM16 12.5l-1.5.9.2 1.4.5-1.3h1.6l.5 1.3.2-1.4-1.5-.9zM11 14l-4 1.5 2 1V16l1.5-.5zm2.5 0l-2 .8c.013 1.635.928 3.177 1.85 3.928.645.513 1.453 1.101 1.849 1.271.455.17.203-.842.3-1h1c.099.159-.154 1.17.301 1 .397-.17 1.205-.757 1.85-1.271.922-.751 1.837-2.293 1.85-3.927l-2-.801-.5 2h-1.301L16 14l-.699 2H14l-.5-2zm7.5 0l.5 1.5 1.5.5v.5l2-1zm-10 3l-2.5 1 4 5zm10 0l-1.5 6 4-5z" fill="#fff"/></svg>