<svg xmlns="http://www.w3.org/2000/svg" width="32" height="32"><rect ry="5.575" y="1.898" x="1.898" height="28.203" width="28.203" fill="#2a2b2f" fill-rule="evenodd"/><path d="M21.41 7.041l-5.398 9.227.004.005 9.341-5.324a10.932 10.932 0 0 0-3.947-3.908z" fill="#fc9b08"/><path d="M16.047 5.57c-3.593-.01-7.18 1.773-9.264 5.38l9.227 5.325.006-.002-.004-.005L21.41 7.04a10.763 10.763 0 0 0-5.363-1.47z" fill="#ffaf00"/><path d="M16.096 5.564l-.062 10.69.006.003 5.428-9.282a10.931 10.931 0 0 0-5.372-1.41z" fill="#f1e80b"/><path d="M10.755 6.943l5.29 9.288h.008l.06-10.753a10.931 10.931 0 0 0-5.358 1.465z" fill="#31fa1a"/><path d="M6.818 10.807l9.227 5.398.006-.004-5.324-9.342a10.931 10.931 0 0 0-3.909 3.948z" fill="#22f36d"/><path d="M5.342 16.121l10.69.062.002-.006-9.281-5.428a10.932 10.932 0 0 0-1.411 5.372z" fill="#1ef3c8"/><path d="M6.72 21.462l9.288-5.291v-.007l-10.752-.06a10.932 10.932 0 0 0 1.464 5.358z" fill="#14a2eb"/><path d="M10.584 25.398l5.398-9.226-.003-.006-9.342 5.324a10.932 10.932 0 0 0 3.947 3.909z" fill="#1e5cfd"/><path d="M15.899 26.875l.061-10.69-.006-.003-5.428 9.282a10.932 10.932 0 0 0 5.373 1.411z" fill="#5514fd"/><path d="M21.24 25.497l-5.292-9.288h-.007l-.06 10.752a10.932 10.932 0 0 0 5.359-1.464z" fill="#9c00fc"/><path d="M25.176 21.633l-9.227-5.399-.006.004 5.324 9.342a10.932 10.932 0 0 0 3.909-3.947z" fill="#b200af"/><path d="M26.653 16.318l-10.69-.062-.003.007 9.282 5.428a10.932 10.932 0 0 0 1.41-5.373z" fill="#d40235"/><path d="M25.274 10.977l-9.288 5.291v.008l10.753.06a10.932 10.932 0 0 0-1.465-5.359z" fill="#fc3b07"/><path d="M7.473 1.897a5.563 5.563 0 0 0-5.575 5.577v17.052a5.563 5.563 0 0 0 5.575 5.577h17.052a5.565 5.565 0 0 0 5.577-5.577V7.474a5.565 5.565 0 0 0-5.577-5.577zM16 6.25a9.75 9.75 0 0 1 .973.049 9.75 9.75 0 0 1 .965.146 9.75 9.75 0 0 1 .943.24 9.75 9.75 0 0 1 .916.337 9.75 9.75 0 0 1 .877.423 9.75 9.75 0 0 1 .832.508 9.75 9.75 0 0 1 .775.59 9.75 9.75 0 0 1 .713.666 9.75 9.75 0 0 1 .643.73 9.75 9.75 0 0 1 .568.793 9.75 9.75 0 0 1 .484.846 9.75 9.75 0 0 1 .399.89 9.75 9.75 0 0 1 .307.925 9.75 9.75 0 0 1 .212.95 9.75 9.75 0 0 1 .118.968 9.75 9.75 0 0 1 .025.689 9.75 9.75 0 0 1-.049.975 9.75 9.75 0 0 1-.146.963 9.75 9.75 0 0 1-.24.945 9.75 9.75 0 0 1-.335.914 9.75 9.75 0 0 1-.423.879 9.75 9.75 0 0 1-.51.83 9.75 9.75 0 0 1-.59.775 9.75 9.75 0 0 1-.664.715 9.75 9.75 0 0 1-.732.643 9.75 9.75 0 0 1-.793.566 9.75 9.75 0 0 1-.846.484 9.75 9.75 0 0 1-.889.399 9.75 9.75 0 0 1-.926.309 9.75 9.75 0 0 1-.95.212 9.75 9.75 0 0 1-.968.118 9.75 9.75 0 0 1-.689.023 9.75 9.75 0 0 1-.973-.047 9.75 9.75 0 0 1-.965-.146 9.75 9.75 0 0 1-.943-.24 9.75 9.75 0 0 1-.916-.336 9.75 9.75 0 0 1-.877-.424 9.75 9.75 0 0 1-.832-.508 9.75 9.75 0 0 1-.775-.59 9.75 9.75 0 0 1-.713-.666 9.75 9.75 0 0 1-.643-.73 9.75 9.75 0 0 1-.568-.793 9.75 9.75 0 0 1-.484-.846 9.75 9.75 0 0 1-.399-.89 9.75 9.75 0 0 1-.307-.925 9.75 9.75 0 0 1-.212-.95 9.75 9.75 0 0 1-.12-.968A9.75 9.75 0 0 1 6.25 16a9.75 9.75 0 0 1 .049-.973 9.75 9.75 0 0 1 .144-.963 9.75 9.75 0 0 1 .243-.945 9.75 9.75 0 0 1 .334-.916 9.75 9.75 0 0 1 .423-.877 9.75 9.75 0 0 1 .51-.83 9.75 9.75 0 0 1 .59-.775 9.75 9.75 0 0 1 .664-.715 9.75 9.75 0 0 1 .732-.643 9.75 9.75 0 0 1 .793-.566 9.75 9.75 0 0 1 .846-.484 9.75 9.75 0 0 1 .889-.399 9.75 9.75 0 0 1 .926-.309 9.75 9.75 0 0 1 .949-.212 9.75 9.75 0 0 1 .969-.118A9.75 9.75 0 0 1 16 6.25zm0 1.375a8.375 8.375 0 0 0-.592.022 8.375 8.375 0 0 0-.832.101 8.375 8.375 0 0 0-.816.182 8.375 8.375 0 0 0-.795.265 8.375 8.375 0 0 0-.764.342 8.375 8.375 0 0 0-.726.416 8.375 8.375 0 0 0-.68.486 8.375 8.375 0 0 0-.63.553 8.375 8.375 0 0 0-.571.613 8.375 8.375 0 0 0-.506.667 8.375 8.375 0 0 0-.438.712 8.375 8.375 0 0 0-.365.754 8.375 8.375 0 0 0-.285.787 8.375 8.375 0 0 0-.209.813 8.375 8.375 0 0 0-.125.826 8.375 8.375 0 0 0-.041.836 8.375 8.375 0 0 0 .02.594 8.375 8.375 0 0 0 .103.83 8.375 8.375 0 0 0 .182.818 8.375 8.375 0 0 0 .263.793 8.375 8.375 0 0 0 .342.766 8.375 8.375 0 0 0 .416.726 8.375 8.375 0 0 0 .488.68 8.375 8.375 0 0 0 .553.629 8.375 8.375 0 0 0 .613.57 8.375 8.375 0 0 0 .666.508 8.375 8.375 0 0 0 .713.436 8.375 8.375 0 0 0 .754.365 8.375 8.375 0 0 0 .787.287 8.375 8.375 0 0 0 .81.207 8.375 8.375 0 0 0 .83.125 8.375 8.375 0 0 0 .835.041 8.375 8.375 0 0 0 .592-.02 8.375 8.375 0 0 0 .83-.101 8.375 8.375 0 0 0 .818-.182 8.375 8.375 0 0 0 .795-.265 8.375 8.375 0 0 0 .764-.342 8.375 8.375 0 0 0 .726-.416 8.375 8.375 0 0 0 .68-.488 8.375 8.375 0 0 0 .63-.551 8.375 8.375 0 0 0 .571-.615 8.375 8.375 0 0 0 .506-.666 8.375 8.375 0 0 0 .438-.713 8.375 8.375 0 0 0 .365-.754 8.375 8.375 0 0 0 .285-.785 8.375 8.375 0 0 0 .207-.813 8.375 8.375 0 0 0 .127-.826 8.375 8.375 0 0 0 .041-.838 8.375 8.375 0 0 0-.021-.592 8.375 8.375 0 0 0-.102-.83 8.375 8.375 0 0 0-.182-.818 8.375 8.375 0 0 0-.263-.793 8.375 8.375 0 0 0-.342-.766 8.375 8.375 0 0 0-.416-.726 8.375 8.375 0 0 0-.488-.68 8.375 8.375 0 0 0-.553-.629 8.375 8.375 0 0 0-.613-.572 8.375 8.375 0 0 0-.666-.506 8.375 8.375 0 0 0-.713-.436 8.375 8.375 0 0 0-.754-.365A8.375 8.375 0 0 0 18.475 8a8.375 8.375 0 0 0-.81-.207 8.375 8.375 0 0 0-.83-.127A8.375 8.375 0 0 0 16 7.624z" fill="#2a2b2f" fill-rule="evenodd"/><circle cx="16" cy="16" r="6.813" fill="#47484d"/><circle r="5.188" cy="16" cx="16" fill="#151519"/><circle cx="16" cy="16" r="3.862" fill="#2a2b2f"/></svg>