<svg xmlns="http://www.w3.org/2000/svg" width="32" height="32"><rect width="28.203" height="28.203" x="1.898" y="1.898" ry="5.575" fill="#838383" fill-rule="evenodd"/><path d="M16.507 17.727c.254 2.353.952 4.358 2.193 5.353 2.156 1.707 4.805.733 5.771-.755l.004.002.004-.012.01-.011-.005-.003c.806-1.58.31-4.336-2.245-5.35-1.482-.577-3.567-.181-5.732.776zM16.04 16.708c1.91-1.396 3.298-3.004 3.539-4.576.4-2.72-1.768-4.527-3.54-4.62v-.004l-.012.002-.014-.002v.005c-1.772.092-3.911 1.9-3.51 4.62.24 1.571 1.625 3.179 3.536 4.575zM15.482 17.73c-2.165-.957-4.25-1.355-5.732-.778-2.556 1.014-3.037 3.795-2.231 5.376l-.005.002.008.01c.003.004.003.01.006.013l.004-.002c.966 1.488 3.6 2.436 5.756.73 1.24-.995 1.94-2.998 2.194-5.351z" fill="#c8c8c8"/><rect width="8.25" height="8.25" x="19.375" y="19.688" ry="2.188" rx="2.188" fill="#cb2626"/><rect width="4.678" height="1.521" x="21.161" y="23.052" rx=".019" ry="1.521" fill="#c8c8c8"/></svg>