<svg xmlns="http://www.w3.org/2000/svg" height="32" width="32" version="1"><rect width="28.203" height="28.203" x="1.898" y="1.898" ry="5.575" fill="#69c561" fill-rule="evenodd"/><path d="M23.835 6.806L13.174 9.264c-1.503.19-1.446 1.728-1.446 1.728v6.561a3.916 3.916 0 0 0-1.068-.153 3.916 3.916 0 1 0 3.898 4.271h.018v-9.855l7.832-1.862v5.463a3.916 3.916 0 0 0-1.068-.153 3.916 3.916 0 1 0 3.897 4.272h.018V8.145s.019-1.642-1.42-1.339z" fill="#4f4f4f"/><g transform="translate(63.946 11.048)"><circle r="5" cy="11.709" cx="-40.865" fill="#fff"/><g fill="#69c561" stroke-width="1.6"><path d="M-40.865 10.46h.625v3.75h-.625zM-39.615 9.21h.625v5h-.625zM-42.115 11.71h.625v2.5h-.625zM-43.365 12.96h.625v1.25h-.625z"/></g></g></svg>