<svg xmlns="http://www.w3.org/2000/svg" height="32" width="32" version="1"><rect width="28" height="28" x="2" y="2" ry="5.535" fill="#341376" fill-rule="evenodd"/><g transform="matrix(.99279 0 0 .99279 44.992 -.218)" stroke-width="1.007"><rect x="-26.713" y="20.308" width="20.755" height="20.755" ry="10.378" rx="10.378" transform="matrix(0 -1 -1 0 0 0)" fill="#ffab30"/><rect x="-26.713" y="17.343" width="20.755" height="20.755" transform="matrix(0 -1 -1 0 0 0)" rx="10.378" ry="10.378" fill="#5e4095"/><path d="M-37.409 12.63a10.28 10.28 0 0 0-.446 1.482h20.27a10.347 10.347 0 0 0-.447-1.483h-19.376zm-.651 2.964c-.018.247-.038.491-.038.742 0 .25.02.495.038.74h20.68c.016-.245.037-.49.037-.74s-.02-.495-.038-.742zm.205 2.965c.111.511.264 1.004.446 1.483h19.377c.182-.479.335-.972.446-1.483h-20.269z" opacity=".8" fill="#fff"/></g></svg>