<svg xmlns="http://www.w3.org/2000/svg" width="32" height="32"><rect ry="5.575" y="1.899" x="1.899" height="28.203" width="28.203" fill="#e7f0f2" fill-rule="evenodd"/><path d="M23.828 24.51c.296-.152.56-.417.72-.726.176-.34.176-1.033.002-1.372-.134-.258-3.35-3.529-3.47-3.529-.034 0-.153.127-.263.282-.318.444-.876 1.022-1.393 1.444-.262.213-.477.417-.477.45 0 .089 3.106 3.227 3.354 3.39.405.265 1.07.29 1.526.06m-7.425-2.994c.775-.2 1.959-.794 2.636-1.323a7.262 7.262 0 0 0 2.578-4.143c.16-.756.16-2.288.001-3.036a7.191 7.191 0 0 0-2.741-4.304c-.706-.528-1.305-.833-2.223-1.135-.653-.214-.817-.234-2.045-.24-1.163-.005-1.423.019-2.021.191a7.334 7.334 0 0 0-5.2 5.805c-.062.359-.083.963-.055 1.585.085 1.857.763 3.396 2.073 4.707 1.808 1.808 4.498 2.536 7.001 1.893m-3.17-1.843c-2.52-.7-4.117-2.891-3.979-5.461.176-3.253 3.215-5.563 6.426-4.882 1.94.411 3.567 1.99 4.018 3.901.159.676.157 1.879-.005 2.566-.394 1.674-1.734 3.146-3.4 3.736-.763.271-2.326.342-3.06.139m2.052-1.136c.071-.116-.181-.335-.848-.738-.656-.395-1.552-1.284-1.807-1.793a8.992 8.992 0 0 1-.391-.976c-.328-.995-1.108-1.556-1.462-1.05-.17.243-.169.987.003 1.572.393 1.335 1.636 2.487 3.162 2.925.585.169 1.257.198 1.343.06" fill="#42a3ce"/></svg>