<?xml version="1.0" encoding="UTF-8" standalone="no"?>
<svg
   xmlns:dc="http://purl.org/dc/elements/1.1/"
   xmlns:cc="http://creativecommons.org/ns#"
   xmlns:rdf="http://www.w3.org/1999/02/22-rdf-syntax-ns#"
   xmlns:svg="http://www.w3.org/2000/svg"
   xmlns="http://www.w3.org/2000/svg"
   xmlns:sodipodi="http://sodipodi.sourceforge.net/DTD/sodipodi-0.dtd"
   xmlns:inkscape="http://www.inkscape.org/namespaces/inkscape"
   width="32"
   height="32"
   version="1.1"
   viewBox="0 0 32 32"
   id="svg8"
   sodipodi:docname="edit-find.svg"
   inkscape:version="0.92.4 5da689c313, 2019-01-14"
   inkscape:label="edit-find">
  <metadata
     id="metadata14">
    <rdf:RDF>
      <cc:Work
         rdf:about="">
        <dc:format>image/svg+xml</dc:format>
        <dc:type
           rdf:resource="http://purl.org/dc/dcmitype/StillImage" />
        <dc:title />
      </cc:Work>
    </rdf:RDF>
  </metadata>
  <defs
     id="defs12" />
  <sodipodi:namedview
     pagecolor="#ffffff"
     bordercolor="#666666"
     borderopacity="1"
     objecttolerance="10"
     gridtolerance="10"
     guidetolerance="10"
     inkscape:pageopacity="0"
     inkscape:pageshadow="2"
     inkscape:window-width="888"
     inkscape:window-height="661"
     id="namedview10"
     showgrid="false"
     inkscape:zoom="12.28125"
     inkscape:cx="16"
     inkscape:cy="16"
     inkscape:window-x="962"
     inkscape:window-y="160"
     inkscape:window-maximized="0"
     inkscape:current-layer="edit-find1" />
  <g
     id="edit-find1"
     inkscape:highlight-color="3891327743">
    <rect
       inkscape:highlight-color="3891327743"
       ry="5.5751052"
       y="1.8985004"
       x="1.8985004"
       height="28.202999"
       width="28.202999"
       id="rect1"
       style="opacity:1;fill:#e7f0f2;fill-opacity:1;fill-rule:evenodd;stroke:none;stroke-width:0.15876552;stroke-linecap:round;stroke-linejoin:bevel;stroke-miterlimit:4;stroke-dasharray:none;stroke-dashoffset:0;stroke-opacity:1" />
    <path
       inkscape:connector-curvature="0"
       style="fill:#42a3ce;fill-opacity:1;stroke-width:1.1629281"
       d="m 23.827788,24.509643 c 0.296547,-0.151185 0.560533,-0.416329 0.719853,-0.725668 0.17676,-0.340737 0.17676,-1.03268 0.0023,-1.372255 -0.133722,-0.258169 -3.350395,-3.528324 -3.470176,-3.528324 -0.03371,0 -0.152336,0.126758 -0.26282,0.281429 -0.31748,0.44424 -0.875687,1.022216 -1.393187,1.444357 -0.26166,0.21282 -0.476804,0.416329 -0.476804,0.450055 0,0.08838 3.106182,3.227123 3.353887,3.389934 0.404698,0.265147 1.071055,0.290732 1.52576,0.05931 m -7.424134,-2.993375 c 0.77451,-0.200033 1.95837,-0.794279 2.635194,-1.323413 1.292014,-1.010582 2.2398,-2.53402 2.578212,-4.142349 C 21.7752,15.29344 21.7752,13.760701 21.617073,13.012938 21.248414,11.273196 20.286674,9.7625528 18.876041,8.7089393 18.170143,8.1809701 17.571235,7.8762827 16.652526,7.5739216 16.000123,7.3599429 15.83615,7.340173 14.608097,7.3343584 c -1.16293,-0.00582 -1.423425,0.018606 -2.02117,0.1907191 -2.699155,0.7721841 -4.7191614,3.0282645 -5.2006134,5.8053385 -0.06164,0.35818 -0.08255,0.962905 -0.05467,1.58507 0.08488,1.856035 0.762882,3.395751 2.0735014,4.706371 1.808352,1.808354 4.498208,2.536347 7.000828,1.893246 m -3.170142,-1.84324 c -2.518901,-0.698921 -4.1167654,-2.89104 -3.978377,-5.461111 0.175609,-3.252709 3.214333,-5.5622849 6.425178,-4.8819717 1.940925,0.4116775 3.56786,1.9909337 4.017914,3.9016237 0.159328,0.675663 0.157006,1.878129 -0.0046,2.565419 -0.394231,1.674617 -1.733924,3.14572 -3.400399,3.736488 -0.76288,0.270962 -2.325857,0.341901 -3.059664,0.138399 m 2.052567,-1.13618 c 0.07094,-0.11513 -0.181404,-0.334923 -0.848938,-0.737296 -0.655941,-0.395407 -1.551396,-1.283885 -1.806078,-1.793247 -0.113983,-0.229101 -0.290732,-0.668683 -0.391907,-0.975695 -0.327947,-0.995468 -1.107107,-1.555999 -1.461801,-1.050125 -0.169791,0.243051 -0.168618,0.987325 0.0034,1.572278 0.39307,1.335043 1.63624,2.486342 3.162002,2.924765 0.584952,0.168619 1.257125,0.197688 1.343181,0.05931"
       id="edit-find"
       inkscape:highlight-color="1118031615" />
  </g>
</svg>
