<svg xmlns="http://www.w3.org/2000/svg" height="32" width="32" version="1"><rect width="28.203" height="28.203" x="1.898" y="1.898" ry="5.575" fill="#ab4e92" fill-rule="evenodd"/><path d="M16.776 21.886c-.047-.045-.377-.646-1.104-2.01-.57-1.07-1.042-1.952-1.049-1.96-.007-.008-.58.414-1.272.938-1.34 1.014-1.332 1.009-1.419.914-.033-.037-.034-.276-.032-4.79.003-4.524.005-4.753.038-4.799.069-.093.139-.13.248-.13l.103.001 3.821 2.757c2.102 1.516 3.86 2.787 3.906 2.824.076.062.085.077.085.154a.212.212 0 0 1-.035.128c-.028.033-.31.108-1.514.402-.813.198-1.481.362-1.484.364-.002.002.474.892 1.058 1.977.584 1.085 1.071 2.006 1.082 2.047a.19.19 0 0 1-.007.14c-.026.063-.092.098-1.108.587-1.206.582-1.19.576-1.316.456z" fill="#fff"/></svg>