<svg xmlns="http://www.w3.org/2000/svg" width="32" height="32"><rect width="28.203" height="28.203" x="1.898" y="1.898" ry="5.575" fill="#bad4ad" fill-rule="evenodd"/><g transform="matrix(.718 0 0 .718 5.398 5.004)"><path d="M6.616 14.07l-1.63 7.863c6.68 6.932 18.172 2.755 19.367.191l-1.342-7.766z" fill="#333842"/><path d="M14.765 6.688l-18.408 5.177 18.504 8.342 18.313-8.342z" fill="#414753"/><path d="M2.72 14.721v10.61h1.458v-9.965z" fill="#f8b517"/><path d="M2.717 14.733l13.02-2.486S4.16 15.393 4.17 15.377z" fill="#f5ea0a"/><circle r="1.378" cy="17.521" cx="3.451" fill="#fbd303"/><path d="M3.464 18.949c-.726 0-1.313.544-1.396 1.246H2.05v6.184h2.828v-6.184h-.017a1.405 1.405 0 0 0-1.397-1.246z" fill="#fbd303"/><ellipse ry="1.198" rx="1.846" cy="12.476" cx="14.968" fill="#f1f3f7"/></g></svg>