<svg xmlns="http://www.w3.org/2000/svg" width="32" height="32"><rect width="28.203" height="28.203" x="1.898" y="1.898" ry="5.575" fill="#eb5f65" fill-rule="evenodd"/><path d="M21.387 27.058a1.59 1.59 0 0 0 1.078-2.052c-.036-.097-.313-.603-.613-1.123l-2.744-4.75c-.445-.77-.84-1.47-.877-1.554-.136-.306-.138-.351-.138-3.218v-2.739h.07a.75.75 0 0 0 .23-.079c.26-.13.436-.458.391-.732a.899.899 0 0 0-.265-.479c-.196-.156-.165-.154-2.537-.155l-2.218-.002-.159.08a.725.725 0 0 0-.078 1.248.739.739 0 0 0 .26.111l.12.017-.008 2.82-.008 2.82-.069.18a8.027 8.027 0 0 1-.373.707l-1.273 2.207c-.533.923-1.007 1.747-1.054 1.832a1.636 1.636 0 0 1-.126.2.182.182 0 0 0-.043.07.345.345 0 0 1-.045.092c-.21.336-1.33 2.318-1.378 2.438-.088.227-.108.657-.043.907.14.53.475.906.997 1.117.168.068.214.07 1.375.086.66.008 3.036.012 5.28.007 3.615-.006 4.097-.013 4.248-.056zm-10.642-.58c-.486-.153-.79-.667-.678-1.148.04-.174.177-.424 1.15-2.102.122-.212.27-.468.326-.57.057-.101.365-.635.684-1.185 2.122-3.662 2.112-3.643 2.21-3.997.066-.233.067-.277.075-3.337l.01-3.102h-.318c-.333 0-.39-.02-.39-.138 0-.036.016-.081.037-.102.053-.053 4.244-.053 4.297 0 .02.02.037.066.037.102 0 .118-.058.138-.392.138h-.318l.01 3.102c.009 3.068.01 3.104.075 3.337.037.13.111.323.165.43.087.173 1.01 1.78 3.137 5.46 1.037 1.794 1.04 1.8 1.076 1.994a.997.997 0 0 1-.547 1.06l-.174.086-5.172.006c-4.193.005-5.196-.001-5.3-.034zm10.425-.449a.638.638 0 0 0 .333-.507c.012-.147 0-.199-.081-.363-.053-.106-.689-1.217-1.414-2.47l-1.317-2.278h-5.383l-1.378 2.386c-.758 1.312-1.394 2.433-1.413 2.49-.077.226.039.571.234.7.208.136.039.132 5.295.125l4.987-.006zm-3.56-.785c-.181-.079-.308-.303-.266-.474.08-.334.47-.45.709-.211a.403.403 0 0 1 .092.46c-.08.192-.349.304-.534.225zm.268-.154c.173-.09.207-.291.072-.426-.208-.208-.552.022-.44.294.036.086.155.175.238.177.022 0 .08-.02.13-.045zm-1.37-.544c-.176-.05-.423-.306-.476-.495a.735.735 0 0 1 .266-.78c.341-.26.84-.16 1.057.212.086.147.093.18.085.397-.008.205-.022.253-.103.368a.768.768 0 0 1-.829.298zm.426-.221a.63.63 0 0 0 .31-.377c.072-.382-.326-.73-.68-.595a.623.623 0 0 0-.307.297c-.18.42.254.851.677.675zm.358-1.27a.962.962 0 0 1-.655-.923.736.736 0 0 1 .097-.425c.18-.364.487-.555.897-.555a.97.97 0 0 1 .846.51c.115.211.142.555.064.792-.067.2-.286.445-.491.55-.202.103-.55.127-.758.052zm.647-.29a.714.714 0 0 0-.003-1.272c-.695-.347-1.37.502-.867 1.09a.702.702 0 0 0 .87.182zM15.808 9.912c.482-.201.56-.868.136-1.166a.688.688 0 0 0-.878.108.64.64 0 0 0-.11.705c.084.186.139.243.32.328.179.084.37.093.532.025zm-.504-.33a.384.384 0 0 1 .273-.674c.153.002.264.078.34.232.078.154.047.307-.086.44-.09.09-.123.103-.26.103-.135 0-.173-.015-.267-.1zm2.46-.668a.96.96 0 0 0 .173-1.6c-.199-.157-.334-.201-.614-.2-.188.002-.26.017-.391.085-.341.175-.533.475-.536.834-.003.403.188.716.541.886.166.08.212.089.432.08.187-.007.283-.028.395-.085zm-.656-.347a.835.835 0 0 1-.229-.187c-.081-.102-.094-.142-.094-.31 0-.159.014-.215.084-.32.242-.366.801-.327.98.067.132.29.031.589-.247.734-.197.103-.315.107-.494.016zm-1.09-1.35c.235-.089.507-.347.633-.603a1.21 1.21 0 0 0 .058-.905c-.206-.564-.642-.856-1.226-.823a1.207 1.207 0 0 0-1.122 1.029c-.102.612.338 1.235.963 1.366.188.039.492.011.693-.065zm-.635-.426c-.332-.101-.534-.364-.533-.695.001-.42.302-.723.718-.723.19 0 .321.052.477.188.236.208.299.544.157.847-.14.301-.513.476-.819.383z" fill="#fff"/></svg>