<svg xmlns="http://www.w3.org/2000/svg" height="32" width="32"><rect width="28.203" height="28.203" x="1.898" y="1.898" ry="5.575" fill="#ccc" fill-rule="evenodd"/><path d="M24.676 10.744c2.108 0 1.924 2.255 1.924 2.255v1.972c0 .726-.915 2.229-.915 2.229v1.383l1.843.856v1.45H20.15v-1.45l1.842-.856V17.2s-.918-1.502-.913-2.229V13s-.184-2.255 1.924-2.255" fill="gray"/><path d="M6.316 18.122l-1.844-1.845 1.844-1.844z" fill="#289b36"/><path d="M8.046 13.51h4.841c.41 0 .807.454.807.923v3.689c0 .468-.397.922-.807.922H8.046c-.41 0-.807-.453-.807-.922v-3.689c0-.468.397-.922.807-.922z" fill="#ecb64e"/><circle r="5.534" cx="-16.294" cy="14.617" transform="rotate(-90)" fill="#484848"/><rect x="-2.567" y="25.084" width="2.767" height="7.378" ry="1.341" rx="1.383" transform="rotate(-45)" fill="#484848"/><path d="M12.66 14.338a2.753 2.753 0 0 0 0 3.913 2.753 2.753 0 0 0 3.913 0 2.753 2.753 0 0 0 0-3.913 2.753 2.753 0 0 0-3.912 0z" fill="#5d99ff"/></svg>