<svg xmlns="http://www.w3.org/2000/svg" height="32" width="32" version="1"><path d="M30.102 21.137c-.396-.988-.808-1.958-1.307-2.809a17.897 17.897 0 0 0-2.063-2.848 15.959 15.959 0 0 0-2.412-2.214 14.801 14.801 0 0 0-2.675-1.582 14.16 14.16 0 0 0-2.848-.954 13.88 13.88 0 0 0-8.703.916c-.921.415-1.812.934-2.658 1.557a15.628 15.628 0 0 0-2.391 2.18 17.418 17.418 0 0 0-2.031 2.805c-.428.73-.767 1.574-1.116 2.406v3.933a5.561 5.561 0 0 0 5.575 5.575h17.054a5.561 5.561 0 0 0 5.575-5.575v-3.39z" fill="#47ad5d" fill-rule="evenodd"/><path d="M7.473 1.898a5.561 5.561 0 0 0-5.575 5.575v13.12c.35-.831.688-1.676 1.116-2.405a17.418 17.418 0 0 1 2.03-2.805 15.628 15.628 0 0 1 2.392-2.18 14.587 14.587 0 0 1 2.658-1.557 14.045 14.045 0 0 1 2.838-.931 13.859 13.859 0 0 1 5.865.015c.969.213 1.922.531 2.848.954.925.422 1.823.949 2.675 1.582a15.959 15.959 0 0 1 2.412 2.214c.751.844 1.444 1.793 2.063 2.848.499.85.91 1.82 1.307 2.809V7.473a5.561 5.561 0 0 0-5.575-5.575H7.473z" fill="#00512d" fill-rule="evenodd"/><path d="M8.282 22.139c6.049 1.199 8.373 1.573 15.052.068-9.583 6.452-4.28 5.099-15.052-.068z" fill="#ffe700"/><g transform="translate(.388)" fill-rule="evenodd"><ellipse ry="4.123" rx="2.139" cy="16" cx="22.613" fill="#d00b5a"/><ellipse ry="1.559" rx="1.356" cy="16" cx="22.712" fill="#333"/><ellipse ry="4.123" rx="2.139" cy="16" cx="8.61" fill="#d00b5a"/><ellipse ry="1.559" rx="1.356" cy="16" cx="8.709" fill="#333"/></g></svg>