<svg xmlns="http://www.w3.org/2000/svg" height="32" width="32"><rect width="28.203" height="28.203" x="1.898" y="1.898" ry="5.575" fill="#74bfcc" fill-rule="evenodd"/><g transform="translate(-.5 .481)"><path d="M23.51 15.58s1.886-2.522.722-4.951c-1.164-2.43-6.812-.693-11.155 2.34C9.951 15.153 8.445 19.002 8.5 21.5" fill="none" stroke="#3f3f3f" stroke-linecap="round"/><path d="M12.5 22.5s.715 2.91 3.885 3.035c3.171.126 4.515-5.243 4.06-10.52-.328-3.799-1.754-7.314-3.945-8.515" fill="none" stroke="#3f3f3f" stroke-linecap="round"/><path d="M13.5 9.6s-4.409-2.662-5.697.415c-1.288 3.078 2.982 8.707 8.095 10.093 3.568.968 7.571-.188 8.602-.608" fill="none" stroke="#3f3f3f" stroke-linecap="round"/><circle cy="15.5" cx="16.5" r="1.063" fill="#3f3f3f" stroke="#3f3f3f" stroke-width=".874"/><path d="M16.43 5.002a1.5 1.5 0 0 0-1.229.748 1.5 1.5 0 0 0 .549 2.049 1.5 1.5 0 0 0 2.049-.549 1.5 1.5 0 0 0-.549-2.049 1.5 1.5 0 0 0-.82-.199zM24.465 18a1.5 1.5 0 0 0-.715.201 1.5 1.5 0 0 0-.549 2.049 1.5 1.5 0 0 0 2.049.549 1.5 1.5 0 0 0 .549-2.049 1.5 1.5 0 0 0-1.334-.75zM8.5 20A1.5 1.5 0 0 0 7 21.5 1.5 1.5 0 0 0 8.5 23a1.5 1.5 0 0 0 1.5-1.5A1.5 1.5 0 0 0 8.5 20z" fill="#3f3f3f"/><path d="M16.5 6a.5.5 0 0 0-.5.5.5.5 0 0 0 .5.5.5.5 0 0 0 .5-.5.5.5 0 0 0-.5-.5zm8 13a.5.5 0 0 0-.5.5.5.5 0 0 0 .5.5.5.5 0 0 0 .5-.5.5.5 0 0 0-.5-.5zm-16 2a.5.5 0 0 0-.5.5.5.5 0 0 0 .5.5.5.5 0 0 0 .5-.5.5.5 0 0 0-.5-.5z" fill="#74bfcc"/></g></svg>