<svg xmlns="http://www.w3.org/2000/svg" width="32" height="32"><rect width="28.203" height="28.203" x="1.898" y="1.898" ry="5.575" fill="#39c" fill-rule="evenodd"/><path d="M19.532 5.622C18.4 5.57 17.189 5.891 16 6.49c-1.976-.994-4.017-1.203-5.646-.262-1.629.94-2.467 2.81-2.593 5.019-1.849 1.214-3.05 2.876-3.05 4.757 0 1.88 1.201 3.542 3.05 4.756.127 2.208.966 4.079 2.595 5.02 1.629.94 3.668.731 5.644-.263 1.976.994 4.013 1.203 5.643.262 1.629-.94 2.47-2.81 2.596-5.019 1.849-1.214 3.05-2.876 3.05-4.756 0-1.88-1.201-3.543-3.05-4.757-.127-2.208-.966-4.08-2.595-5.02a4.607 4.607 0 0 0-2.112-.604zm-.061.891A3.74 3.74 0 0 1 21.197 7c1.166.673 1.877 1.985 2.095 3.691-1.032-.536-2.219-.955-3.513-1.236-.89-.98-1.846-1.799-2.827-2.424.882-.37 1.736-.551 2.519-.517zm-6.944.002c.783-.034 1.636.147 2.518.516-.98.626-1.936 1.444-2.826 2.423-1.294.28-2.48.701-3.513 1.238.218-1.707.93-3.018 2.095-3.691a3.74 3.74 0 0 1 1.726-.486zm3.473.98a12.063 12.063 0 0 1 2.265 1.695 18.445 18.445 0 0 0-4.533.001A12.054 12.054 0 0 1 16 7.496zm0 2.45c1.159 0 2.27.117 3.31.324a17.035 17.035 0 0 1 1.934 2.705 17.054 17.054 0 0 1 1.378 3.029 17.043 17.043 0 0 1-3.313 5.734 17.042 17.042 0 0 1-6.62 0 17.045 17.045 0 0 1-3.31-5.733 17.04 17.04 0 0 1 3.31-5.735A17.042 17.042 0 0 1 16 9.945zm-4.768.688a18.415 18.415 0 0 0-2.265 3.928 12.07 12.07 0 0 1-.336-2.812 12.056 12.056 0 0 1 2.6-1.116zm9.535 0c.966.294 1.844.67 2.6 1.116.008.877-.106 1.825-.334 2.809a18.457 18.457 0 0 0-2.266-3.925zm-6.458 1.033l-.945 4.152-1.484.229-.217.867 1.503-.232-.635 2.79h6.288l.606-1.735h-3.898l.336-1.472 1.699-.262.217-.868-1.718.266.85-3.735zm-6.555.674c.05 1.164.28 2.402.684 3.664-.403 1.262-.633 2.499-.684 3.661-1.37-1.042-2.148-2.316-2.148-3.662 0-1.347.778-2.62 2.148-3.663zm16.492 0c1.37 1.042 2.148 2.316 2.148 3.663 0 1.346-.778 2.62-2.148 3.662-.05-1.163-.28-2.4-.684-3.662.404-1.262.633-2.5.684-3.663zm-15.28 5.108a18.416 18.416 0 0 0 2.266 3.924 12.056 12.056 0 0 1-2.6-1.116c-.009-.876.107-1.825.335-2.808zm14.067 0c.228.983.342 1.931.334 2.808-.756.445-1.634.822-2.6 1.116.445-.589.865-1.223 1.253-1.895.388-.672.726-1.35 1.013-2.03zM8.706 21.313c1.032.537 2.219.958 3.513 1.238.89.98 1.845 1.798 2.826 2.423-1.587.664-3.076.702-4.242.029-1.166-.674-1.88-1.983-2.097-3.69zm14.586.002c-.218 1.706-.931 3.016-2.097 3.69-1.166.673-2.656.635-4.243-.03.98-.625 1.937-1.442 2.827-2.422 1.294-.28 2.481-.701 3.513-1.238zm-9.56 1.499a18.438 18.438 0 0 0 4.535.002A12.065 12.065 0 0 1 16 24.51a12.048 12.048 0 0 1-2.268-1.696z" fill="#fff"/></svg>