<svg xmlns="http://www.w3.org/2000/svg" width="32" height="32"><rect width="28.203" height="28.203" x="1.898" y="1.898" ry="5.575" fill="#ccc" fill-rule="evenodd"/><g transform="matrix(.8421 0 0 .84154 2.526 2.536)" stroke-width="1.188"><ellipse ry="7.5" rx="12.5" cy="16" cx="16" fill="none" stroke="#259cda" stroke-width="1.225"/><ellipse transform="rotate(60)" cx="21.856" cy="-5.856" rx="12.5" ry="7.5" fill="none" stroke="#259cda" stroke-width="1.225"/><ellipse ry="7.5" rx="12.5" cy="21.856" cx="5.856" transform="scale(-1 1) rotate(60)" fill="none" stroke="#259cda" stroke-width="1.225"/><path d="M14 10v2c-.246.01-.698 0-.934 0H12v1s.36-.015.346 0c.46-.007.606.326.654.549V18.5c-.018.14-.003.49-.324.5.015.013-.676 0-.676 0v1h1.127c.275-.01.607 0 .873 0v2l1-.018V20h.984l.032 2h1l-.032-2c1.908-.138 3.016-.366 3.016-2.5 0-1.5-1-1.999-2.184-2 .75-.057 1.183-.5 1.184-1.75C19 13 18.567 12 18 12h-1v-2h-1v2c-.299 0-.697-.011-1 0v-2zm1 3c1.41 0 2 0 2 1s-.73 1-2 1zm0 3c2 0 3 0 3 1.5S17 19 15 19z" fill="#259cda"/></g></svg>