<svg xmlns="http://www.w3.org/2000/svg" width="32" height="32"><rect width="28.203" height="28.203" x="1.898" y="1.898" ry="5.575" fill="#337d7e" fill-rule="evenodd"/><path d="M10.76 25.115c-.947-.197-1.694-.767-2.094-1.596a2.9 2.9 0 0 1 1.527-3.957 2.896 2.896 0 0 1 2.327.078l.277.13.008-4.203.008-4.202 1.225-.353c.674-.194 2.371-.683 3.773-1.085 4.728-1.359 5.062-1.455 5.12-1.473.055-.018.057.253.049 5.839l-.009 5.857-.086.312a2.968 2.968 0 0 1-2.118 2.108c-.161.045-.332.058-.703.058-.436 0-.52-.01-.777-.088-.998-.305-1.74-1.046-2.017-2.015-.1-.35-.123-.975-.05-1.341.18-.888.741-1.627 1.538-2.023.482-.24.754-.304 1.29-.304.519 0 .824.065 1.26.269l.275.129v-2.483c0-2.348-.003-2.481-.057-2.465l-5.022 1.441c-1.042.299-1.993.573-2.114.61l-.22.065-.01 4.186-.008 4.186-.075.245c-.304.998-1.102 1.776-2.08 2.03-.34.087-.93.109-1.237.045z" fill="#fff"/></svg>