<svg xmlns="http://www.w3.org/2000/svg" height="32" width="32" version="1"><rect width="28.203" height="28.203" x="1.898" y="1.898" ry="5.575" fill="#7572b8" fill-opacity=".992" fill-rule="evenodd"/><path d="M10.537 24.193s1.073.311 2.501.49c.579.071 2.78.323 4.467.317 0 0 2.055.002 3.19-.159 1.187-.169 1.859-.384 2.233-.813.01-.103.18-.436-.28-.758-1.18-.823-2.705-1.048-5.667-1.752-3.275-.823-4.254-1.612-4.743-2.182-.464-.572.087-1.76 2.726-2.343 1.336-.325 6.313-.385 6.313-.385-1.428-1.134-4.108-3.163-4.656-3.595-.48-.378-1.255-.96-1.338-1.478-.113-.506.683-.749 1.104-.777 1.357-.094 3.21.065 4.857.393.828.165.973.14.973.14 1.18.057 2.096-.561 2.05-1.862-.01-1.32-1.33-2.378-2.79-2.424-1.374-.043-4.763.197-4.763.197 3.95.814 4.595 1.022 4.801 1.497.122.281-.203.56-1.29.506-1.186-.06-3.614-.347-3.614-.347-2.31-.355-3.92-.692-4.623.225-.458.599.066 1.329.272 1.76.917 1.6 2.503 2.697 3.509 3.471.379.291 1.535.936 1.535.936-3.594-.983-6.457-.43-8.273.524-2.087 1.235-1.73 3.32 1.582 5.269 1.955 1.15 2.93 1.704 6.132 2.097 1.871.298 2.15.42 2.136.576-.02.22-2.215.303-2.819.344-1.535.106-5.505.133-5.525.133z" fill="#fff"/></svg>