<svg xmlns="http://www.w3.org/2000/svg" version="1" width="32" height="32"><rect width="28.203" height="28.203" x="1.898" y="1.898" ry="5.575" fill="#4d4d4d" fill-rule="evenodd"/><path d="M16.78 24.217c1.086-.133 2.69-.643 2.69-.855 0-.05-.074-.354-.165-.678l-.167-.589-.514.206c-.856.342-1.694.487-2.794.481-.8-.003-1.046-.029-1.564-.163-2.418-.628-3.823-2.424-4.107-5.251-.193-1.92.293-3.977 1.29-5.46.589-.872 1.696-1.814 2.61-2.218a6.361 6.361 0 0 1 4.494-.21c1.365.451 2.394 1.407 2.922 2.712.355.88.423 1.282.423 2.503 0 1.03-.016 1.199-.165 1.757-.28 1.043-.738 1.75-1.329 2.05-.423.214-.816.222-1.03.021-.383-.36-.368-.82.125-4.017.194-1.253.352-2.296.352-2.319 0-.075-.72-.311-1.33-.437-.743-.154-1.782-.164-2.456-.026-1.872.385-3.326 1.776-3.914 3.743-.22.738-.28 2.04-.124 2.703.207.886.743 1.583 1.479 1.925.308.144.446.169.932.168 1.084-.001 2.009-.505 2.658-1.448.245-.355.349-.397.349-.14 0 .517.44 1.138.999 1.413.324.16.425.177.964.172 1.93-.021 3.356-1.348 3.969-3.69.197-.751.27-2.286.15-3.114-.418-2.85-2.258-4.88-5.066-5.585-.782-.197-2.618-.196-3.464 0-3.325.776-5.632 3.265-6.427 6.933-.192.884-.209 2.9-.032 3.706.416 1.891 1.297 3.351 2.628 4.353.916.69 2.118 1.196 3.208 1.353.556.08 1.751.08 2.406 0zM14.8 18.23c-.413-.203-.585-.619-.583-1.408.001-.692.13-1.235.426-1.804.423-.81 1.126-1.368 1.862-1.478.343-.052.899-.015.978.063.077.078-.354 2.701-.515 3.128-.466 1.24-1.394 1.88-2.168 1.499z" fill="#fff"/></svg>