<svg xmlns="http://www.w3.org/2000/svg" height="32" width="32"><rect width="28.203" height="28.203" x="1.898" y="1.898" ry="5.575" fill="#ffc852" fill-rule="evenodd"/><path d="M21.368 10.632v2.684A2.678 2.678 0 0 1 18.684 16h-5.368s-2.684 0-2.684 2.684v4.697c0 1.859 2.095 3.355 4.697 3.355h1.342c2.602 0 4.697-1.496 4.697-3.355v-2.013h2.013c1.859 0 3.355-2.095 3.355-4.697v-1.342c0-2.602-1.496-4.697-3.355-4.697zm-2.684 12.525a.895.895 0 0 1 .895.895.895.895 0 0 1-.895.894.895.895 0 0 1-.895-.894.895.895 0 0 1 .895-.895z" fill="#fff"/><path d="M15.329 5.264c-2.602 0-4.697 1.497-4.697 3.355v2.013H8.62c-1.858 0-3.355 2.095-3.355 4.697v1.342c0 2.602 1.497 4.697 3.355 4.697h2.013v-2.684A2.678 2.678 0 0 1 13.316 16h5.368s2.684 0 2.684-2.684V8.62c0-1.858-2.095-3.355-4.697-3.355z" fill="#4795d1"/><path d="M13.316 7.054a.895.895 0 0 1 .895.894.895.895 0 0 1-.895.895.895.895 0 0 1-.895-.895.895.895 0 0 1 .895-.894z" fill="#fff"/><path d="M21.368 10.632v.895h2.013c1.858 0 3.355 2.095 3.355 4.697v-.895c0-2.602-1.496-4.697-3.355-4.697zm0 2.684A2.678 2.678 0 0 1 18.684 16h-5.368s-2.684 0-2.684 2.684v.895c0-2.684 2.684-2.684 2.684-2.684h5.368a2.678 2.678 0 0 0 2.684-2.684z" opacity=".1" fill="#fff"/><g transform="matrix(.69861 0 0 .69861 30.952 11.336)" stroke-width="1.431"><circle r="7.157" cy="16.52" cx="-11.923" fill="#cc5e55" fill-rule="evenodd"/><path d="M-12.818 12.941l-.079.943a2.812 2.812 0 0 0-.821.475l-.857-.403-.895 1.55.778.54a2.812 2.812 0 0 0-.043.474 2.812 2.812 0 0 0 .041.476l-.776.538.895 1.55.855-.403a2.812 2.812 0 0 0 .823.473l.08.944h1.789l.078-.942a2.812 2.812 0 0 0 .822-.476l.857.404.895-1.55-.778-.54a2.812 2.812 0 0 0 .043-.474 2.812 2.812 0 0 0-.041-.477l.776-.538-.895-1.55-.855.403a2.812 2.812 0 0 0-.824-.472l-.078-.945h-1.79zm.895 2.556A1.022 1.022 0 0 1-10.9 16.52a1.022 1.022 0 0 1-1.023 1.022 1.022 1.022 0 0 1-1.023-1.022 1.022 1.022 0 0 1 1.023-1.023z" fill="#fff"/></g></svg>