<svg xmlns="http://www.w3.org/2000/svg" height="32" width="32" version="1"><rect width="28.203" height="28.203" x="1.898" y="1.898" ry="5.575" fill="#ffba39" fill-rule="evenodd"/><path d="M14.29 24.305c-1.3-.812-2.364-1.507-2.365-1.545-.002-.123 4.695-3.01 4.795-2.947.054.033.098.368.098.745v.684l.39-.063c.698-.113 1.852-.765 2.499-1.412 1.942-1.942 2.128-4.903.443-7.039-.218-.276-.373-.554-.343-.616.125-.267 1.923-1.742 2.06-1.69.08.031.359.328.62.66 2.12 2.701 2.172 6.91.119 9.704-.528.718-1.697 1.797-2.404 2.22-.727.434-1.827.845-2.74 1.025l-.644.126v.762c0 .418-.037.784-.082.812-.045.028-1.146-.614-2.446-1.426zM9.686 21.19c-.611-.712-1.061-1.53-1.42-2.583-.283-.834-.341-1.175-.38-2.239-.054-1.455.11-2.449.594-3.584 1.038-2.44 3.367-4.308 5.97-4.79l.702-.13V7.1c0-.42.04-.788.09-.819.048-.03.81.402 1.691.96.882.557 1.943 1.223 2.358 1.478.415.256.755.495.755.533 0 .117-4.708 3.006-4.804 2.947-.05-.03-.09-.358-.09-.726 0-.58-.026-.671-.19-.671-.346 0-1.208.34-1.777.701-2.713 1.722-3.326 5.32-1.333 7.828.2.253.34.51.312.573-.081.172-1.877 1.727-1.995 1.727-.057 0-.274-.199-.483-.442z" fill="#fff"/></svg>