<svg xmlns="http://www.w3.org/2000/svg" width="32" height="32" version="1"><rect width="28.203" height="28.203" x="1.898" y="1.898" ry="5.575" fill="#ff5a48" fill-rule="evenodd"/><g transform="translate(0 .5)"><path d="M7.5 20v-9.25c0-2.8 2.9-3.25 2.9-3.25h11.9" fill="none" stroke="#fff" stroke-width="3"/><path d="M21.435 4A.441.441 0 0 0 21 4.44V8.56a.441.441 0 0 0 .441.441h4.118a.441.441 0 0 0 .312-.753l-4.118-4.118a.441.441 0 0 0-.318-.13z" fill="#fff"/><rect ry="1.333" y="13" x="12" height="4" width="3" fill="#fff"/><path d="M24.5 11v9.25c0 2.8-2.9 3.25-2.9 3.25H9.7" fill="none" stroke="#fff" stroke-width="3"/><path d="M10.565 27a.441.441 0 0 0 .435-.441V22.44a.441.441 0 0 0-.441-.441H6.44a.441.441 0 0 0-.312.753l4.118 4.118a.441.441 0 0 0 .318.129z" fill="#fff"/><rect ry="1.333" y="13" x="17" height="4" width="3" fill="#fff"/></g></svg>