<svg xmlns="http://www.w3.org/2000/svg" height="32" width="32" version="1"><rect width="28.203" height="28.203" x="1.898" y="1.898" ry="5.575" fill="#a07751" fill-rule="evenodd"/><g stroke-width="10.445"><path d="M22.078 23.934c-.281.503.486.304.742.13-.73 1.003-1.771 1.779-3.386 2.137-.637.133-.035.613.343.988-1.163-.24-2.325-.73-3.487-1.29-.491-.146-.846-.178-.645.262l.443.685c-.677-.22-1.366-.027-2.74-2.438-.468-.595-.994-.405-.787.524-.134-.31-1.257-.273-.987-3.346.025-1.223-1.3-.488-1.089.463-.353-.442-.747-.82.101-3.204.184-.97-.37-.945-1.008-.02-.133-.319-.123-.774.141-1.472-1.095.82-2.495 1.057-3.003 3.003-.156-.491-.216-1.07.081-1.975.939-2.262 2.3-5.062 3.374-7.615.878-2.086.995-2.831 1.272-3.4.387-1.678 1.757-3.64 3.88-2.105l1.733 1.793c.34.404 1.186.103.907-.685.325-.2.682-.033 1.088.705.467.447 1.562.824 1.35-.544.483.013.788.297.867.927.307.915.83.673.867.101-.046-.628.126-1.112-1.39-2.72 1.096.268 2.78 1.587 3.063 4.312.565.776 1.435 1.008 1.068 3.447.483.202.658.725.443 1.653-.233.42-1.684 1.322-2.418.685.12-.657.467-1.28-.645-2.116-.929.296-1.304-.59-1.653-1.532-1.01-.088-2.007-.254-3.225.987 1.634-.331 2.027-.027 2.088.299.076.41-.507.882-1.261.487 1.12.77.133 1.584-.399 1.808-3.48 1.478-3.545 4.514-3.098 5.457l-.656-1.083c.458 6.894 7.409 6.54 7.04 2.822-.355-2.285-3.058-1.365-2.935-.057.045 1.196 1.588 1.183 1.767-.143 1.56 2.67-3.583 3.013-2.908-.598 1.288-3.954 7.151-1.376 5.062 2.668z" fill="#8b4c2e"/><path d="M20.044 4.43l.533.565c.747.793 1.063 1.294 1.2 1.652.131.347.106.578.127.9a.518.518 0 0 1-.068.238c-.031.048-.051.051-.056.052-.005 0-.027.005-.086-.056-.059-.062-.139-.19-.208-.397l.01.045c-.044-.347-.153-.628-.345-.827a1.052 1.052 0 0 0-.744-.301l-.275-.007.042.271c.049.314.013.499-.031.582-.045.083-.083.1-.178.106-.187.013-.55-.157-.744-.337-.202-.357-.398-.606-.626-.743a.728.728 0 0 0-.753 0l-.158.098.062.175c.112.316.013.439-.117.512-.13.073-.306.057-.398-.052l-.005-.006-1.752-1.814-.017-.012c-.559-.404-1.09-.592-1.579-.598-.489-.006-.926.17-1.287.45-.715.555-1.16 1.494-1.365 2.365-.291.611-.405 1.337-1.267 3.386-1.07 2.544-2.431 5.343-3.374 7.616l-.004.008-.002.009c-.31.941-.248 1.591-.082 2.116l.24.759.202-.77c.24-.926.672-1.414 1.194-1.798.366-.269.78-.495 1.195-.745-.091.425-.077.767.038 1.042l.163.387.238-.346c.151-.219.295-.38.412-.478a.484.484 0 0 1 .195-.113l.002.005c.017.058.025.208-.015.424-.42 1.19-.546 1.9-.505 2.4.041.506.279.786.45 1l.403-.193a.75.75 0 0 1 .353-.792c.099-.05.15-.041.185-.016.034.026.102.124.097.39v-.016c-.137 1.564.076 2.379.378 2.853.151.236.325.381.454.476.13.095.188.16.174.128l.435-.141a1.195 1.195 0 0 1-.029-.463c.019-.095.048-.115.055-.119.007-.004.025-.014.091.017.066.03.162.105.261.23.69 1.202 1.22 1.786 1.69 2.093.474.31.866.328 1.164.425l.616.2-.783-1.21-.002-.005c.069.005.183.013.37.068 1.16.559 2.328 1.051 3.512 1.296l.759.157-.55-.545c-.198-.196-.437-.416-.521-.546-.01-.017-.01-.02-.015-.03.016-.006.03-.014.078-.024h.003c1.663-.37 2.764-1.185 3.522-2.226l-.314-.326a1.36 1.36 0 0 1-.398.136c.532-1.047.567-2.032.271-2.834-.299-.81-.92-1.43-1.652-1.782-.732-.352-1.582-.44-2.346-.164-.765.275-1.43.92-1.77 1.965l-.004.014-.002.015c-.179.953.028 1.691.438 2.181s1.003.727 1.566.745c.562.018 1.114-.18 1.425-.611.31-.432.321-1.074-.098-1.79l-.337-.576-.089.66c-.078.577-.419.805-.716.819-.298.014-.575-.155-.594-.654v-.012c-.024-.247.084-.48.288-.678.204-.198.502-.346.806-.393.304-.047.608.004.853.18.245.173.448.477.53.997.083.856-.24 1.48-.788 1.884-.548.405-1.333.575-2.153.43-1.454-.256-3.01-1.488-3.502-4.112l.091.15.404-.217c-.18-.382-.29-1.344.084-2.35.375-1.006 1.208-2.08 2.897-2.797.31-.131.717-.398.932-.804a.933.933 0 0 0 .081-.706c-.014-.05-.054-.095-.078-.143.154-.01.3-.041.421-.105.303-.157.5-.467.44-.791-.045-.238-.257-.487-.626-.577-.226-.055-.548-.052-.93-.017a2.58 2.58 0 0 1 .977-.43c.438-.085.873-.043 1.33-.002.16.426.33.846.593 1.16.266.316.675.492 1.15.395.46.365.598.648.626.909.03.276-.072.57-.137.924l-.024.13.1.085a1.2 1.2 0 0 0 .806.278c.284-.002.566-.077.828-.184a3.28 3.28 0 0 0 .698-.394c.196-.145.347-.284.437-.447l.016-.028.007-.032c.113-.486.13-.884.037-1.213a1.067 1.067 0 0 0-.46-.617c.15-1.141.031-1.84-.225-2.328-.261-.495-.618-.76-.873-1.095C23.706 6.293 22 4.908 20.8 4.614zm-6.172.505c.374.005.806.147 1.303.504l1.716 1.775-.01-.012c.248.295.665.33.973.157.258-.145.415-.467.366-.844.04.001.08.016.138.051.121.073.299.268.492.62l.017.03.025.024c.275.263.683.5 1.104.472a.681.681 0 0 0 .552-.349c.08-.148.1-.342.096-.56.07.027.126.067.177.119.1.104.183.28.22.564l.002.023.007.021c.084.25.185.436.312.568a.577.577 0 0 0 .465.196.548.548 0 0 0 .392-.255.943.943 0 0 0 .145-.466l.001-.016-.001-.016c-.021-.289.01-.614-.158-1.057-.103-.27-.29-.586-.581-.968.855.597 1.757 1.759 1.954 3.658l.007.062.036.05c.31.424.651.663.866 1.071.215.408.34 1.014.16 2.206l-.026.177.165.069c.186.078.29.19.351.405.06.207.055.524-.036.94a1.31 1.31 0 0 1-.293.285 2.853 2.853 0 0 1-.598.338 1.827 1.827 0 0 1-.657.15.764.764 0 0 1-.393-.104c.062-.267.145-.559.108-.904-.045-.409-.288-.843-.875-1.284l-.095-.071-.113.036c-.393.125-.583.026-.798-.23-.215-.257-.396-.695-.57-1.163l-.05-.136-.145-.013c-.499-.044-1.026-.113-1.598-.002-.572.112-1.176.41-1.81 1.058l-.526.535.735-.15c.8-.162 1.283-.16 1.534-.099.25.061.265.127.282.215.016.086-.041.217-.2.3-.159.082-.407.11-.729-.058l-.237.393c.252.173.358.328.395.452a.447.447 0 0 1-.047.36c-.132.249-.484.501-.705.595-1.792.76-2.732 1.943-3.148 3.06a4.445 4.445 0 0 0-.282 1.47l-.038-.064-.426.134c.234 3.524 2.16 5.274 4.02 5.602.928.164 1.84-.021 2.506-.513.666-.492 1.071-1.304.972-2.305v-.006l-.002-.006c-.095-.618-.362-1.055-.72-1.31a1.614 1.614 0 0 0-1.188-.258c-.4.06-.778.246-1.057.517-.278.27-.461.638-.426 1.043.03.693.545 1.115 1.073 1.09.366-.017.718-.245.94-.624.092.34.04.597-.095.784-.194.27-.593.434-1.037.42a1.675 1.675 0 0 1-1.228-.58c-.313-.375-.494-.945-.34-1.788.304-.923.853-1.435 1.481-1.66.632-.228 1.359-.16 1.992.145.633.304 1.167.84 1.42 1.527.253.687.237 1.53-.26 2.494l.003-.007a.656.656 0 0 0-.087.24.378.378 0 0 0 .064.266c.089.12.203.142.31.147-.66.69-1.527 1.223-2.777 1.501-.193.04-.366.122-.435.299-.07.176.003.335.08.454.009.014.023.026.033.04-.884-.26-1.777-.644-2.675-1.077l-.017-.008-.018-.005c-.255-.076-.468-.146-.7-.093-.114.027-.256.137-.288.278-.031.14.008.26.069.393l.007.015.127.196a1.703 1.703 0 0 1-.465-.212c-.383-.251-.88-.773-1.558-1.962l-.008-.015-.011-.013a1.206 1.206 0 0 0-.434-.367.564.564 0 0 0-.503-.003c-.156.086-.25.25-.286.434-.004.022-.001.049-.004.072a1.171 1.171 0 0 1-.192-.23c-.225-.354-.44-1.057-.306-2.566v-.015c.008-.347-.08-.615-.28-.766-.2-.15-.463-.129-.666-.029a1.142 1.142 0 0 0-.511.547c-.013-.057-.026-.114-.032-.187-.032-.39.07-1.057.489-2.234l.005-.017.004-.017c.05-.263.058-.471.004-.652a.503.503 0 0 0-.15-.242.433.433 0 0 0-.276-.1c-.19.001-.347.096-.508.232-.05.042-.101.1-.152.153.012-.218.07-.49.204-.844l.28-.739-.632.473c-.519.388-1.142.652-1.72 1.078a3.476 3.476 0 0 0-1.043 1.22c.009-.28.062-.602.195-1.008.934-2.25 2.293-5.046 3.369-7.604.882-2.097 1.013-2.868 1.266-3.388l.012-.023.005-.026c.185-.8.616-1.67 1.207-2.128.295-.229.623-.36 1-.355z" style="line-height:normal;font-variant-ligatures:normal;font-variant-position:normal;font-variant-caps:normal;font-variant-numeric:normal;font-variant-alternates:normal;font-feature-settings:normal;text-indent:0;text-align:start;text-decoration-line:none;text-decoration-style:solid;text-decoration-color:#000;text-transform:none;text-orientation:mixed;white-space:normal;shape-padding:0;isolation:auto;mix-blend-mode:normal;solid-color:#000;solid-opacity:1" color="#000" font-weight="400" font-family="sans-serif" overflow="visible" fill="#fcac53"/><path d="M10.834 8.25c-.54-.027-1.249.305-.575 1.06.05.086.331.268.356.664.075 1.223.274 3.854.169 4.991-.03.324-.348.81-.414.824-.381.595.24.656.766.685l3.789.022c.306-.009.546-.096.665-.485l.312-.938-.06 5.1c.006.215-.025.546-.212.695-.577.801.17 1.14.545 1.108l4.393-.14c2.747-.712-.176-4.818-1.955-2.822.561.528 1.554 1.767.303 1.713-.603-.142-.947-.874-.97-1.784-.046-1.783-.065-4.076.042-4.02 1.4-1.164.26-1.516-.06-1.512h-2.439c-.282 1.458-1.382 2.143-1.753 2.075-.828.114-.943-.352-.947-.665 0-.654-.01-1.337.11-2.055.171-1.146 1.328-1.025 1.099.14 2.37.358 1.029-4.594-1.149-1.733l.06-1.23c.27-.974 1.8-.677 2.52.364.19.146.476.16.524-.363l-.161-1.31c-.063-.319-.264-.33-.545-.323z" fill="#fcac53"/><path d="M10.845 8.021c-.321-.016-.684.052-.922.31a.645.645 0 0 0-.162.524c.028.188.132.374.3.57.041.07.073.093.105.127.033.035.066.07.097.112a.566.566 0 0 1 .122.324c.076 1.227.27 3.877.17 4.956-.01.098-.083.29-.165.437a1.693 1.693 0 0 1-.115.18l-.014.016-.033.008-.051.08c-.112.174-.174.34-.15.51.025.171.15.303.277.371.253.136.552.143.82.157h.005l3.798.023h.004a.998.998 0 0 0 .52-.135.759.759 0 0 0 .206-.201l-.045 3.785v.004c.003.094-.003.214-.027.313a.377.377 0 0 1-.098.196l-.024.02-.02.026c-.162.225-.246.439-.253.641a.734.734 0 0 0 .184.513c.228.255.551.34.82.317l-.012.001 4.42-.142.024-.006c.748-.194 1.172-.665 1.272-1.202.1-.538-.09-1.107-.422-1.58-.332-.471-.815-.855-1.367-.987s-1.176.02-1.667.572l-.149.166.163.154c.264.25.643.693.778 1 .067.154.057.238.048.252-.01.014-.085.067-.33.062-.216-.057-.396-.212-.535-.478-.142-.273-.23-.652-.241-1.08a99.938 99.938 0 0 1-.037-2.693 21.1 21.1 0 0 1 .02-.955c.006-.107.014-.186.02-.233.334-.284.544-.533.647-.77.107-.25.084-.505-.03-.682a.893.893 0 0 0-.443-.336 1.153 1.153 0 0 0-.428-.087H15.3l-.036.186c-.132.681-.453 1.175-.778 1.489a1.849 1.849 0 0 1-.46.333.672.672 0 0 1-.25.071l-.035-.006-.036.005c-.371.05-.512-.025-.584-.102-.073-.078-.1-.209-.103-.339 0-.656-.009-1.323.108-2.014v-.005c.075-.497.321-.616.446-.601.063.007.12.038.17.137.05.099.08.273.03.527l-.046.236.238.036c.666.1 1.159-.207 1.368-.652.21-.445.187-.992.012-1.461-.175-.47-.524-.889-1.031-.961-.375-.054-.784.098-1.203.483l.027-.55a.508.508 0 0 1 .279-.343.935.935 0 0 1 .548-.054c.435.071.954.375 1.276.841l.02.03.029.022c.136.105.338.188.546.098.208-.09.32-.32.347-.622l.002-.025-.165-1.342-.002-.008c-.04-.205-.163-.378-.322-.45-.156-.069-.303-.062-.444-.058zm-.024.46H10.83l4.418.06h.005a.836.836 0 0 1 .254.02c.027.011.037.007.058.115l.156 1.263c-.022.197-.073.229-.068.226.006-.002-.03-.007-.075-.036-.398-.545-.981-.895-1.54-.986-.289-.047-.575-.026-.822.093-.247.12-.445.346-.528.647l-.007.024-.098 1.995.449-.59c.518-.68.933-.838 1.216-.797.283.04.529.3.665.666.137.366.141.812.003 1.106-.116.248-.31.403-.676.4.009-.211-.011-.405-.088-.558a.692.692 0 0 0-.527-.388c-.439-.05-.855.341-.952.989-.125.743-.114 1.44-.114 2.091v.004c.002.183.034.44.227.646.193.206.524.306.981.243l-.072-.001c.18.032.346-.02.532-.11.186-.09.384-.229.579-.417.356-.344.687-.866.857-1.546h2.268c.036 0 .153.016.255.056.101.04.188.101.224.157.036.057.056.107-.006.25-.062.145-.228.365-.562.642h.002c-.004.003-.014.004-.018.007-.05.045-.06.076-.07.1-.019.048-.023.08-.03.118-.011.077-.02.173-.026.294-.013.243-.019.582-.02.979-.003.793.013 1.813.036 2.706.012.482.108.924.294 1.28s.475.632.853.721l.021.005.022.001c.35.015.624-.057.763-.277.14-.219.08-.467-.014-.683-.156-.355-.45-.696-.715-.968.348-.31.704-.378 1.062-.292.41.098.82.411 1.098.805.278.395.415.86.346 1.23-.068.367-.308.672-.919.836l-4.366.14h-.006c-.105.01-.343-.06-.438-.166a.242.242 0 0 1-.068-.189c.003-.085.042-.215.168-.39l-.044.046a.778.778 0 0 0 .26-.45c.036-.157.042-.31.039-.432v.01l.06-5.1-.447-.075-.314.94v.002c-.049.159-.104.22-.166.26a.57.57 0 0 1-.286.064l-3.774-.023c-.258-.014-.53-.052-.623-.103-.047-.025-.038-.022-.04-.03a.656.656 0 0 1 .068-.166 2.082 2.082 0 0 0 .24-.34c.101-.18.202-.393.222-.618.11-1.197-.093-3.809-.168-5.027a1.058 1.058 0 0 0-.214-.572 1.664 1.664 0 0 0-.131-.152c-.035-.037-.058-.07-.041-.043l-.012-.02-.016-.017c-.15-.167-.203-.294-.214-.367-.01-.073.003-.102.044-.146.083-.09.344-.174.561-.163z" style="line-height:normal;font-variant-ligatures:normal;font-variant-position:normal;font-variant-caps:normal;font-variant-numeric:normal;font-variant-alternates:normal;font-feature-settings:normal;text-indent:0;text-align:start;text-decoration-line:none;text-decoration-style:solid;text-decoration-color:#000;text-transform:none;text-orientation:mixed;white-space:normal;shape-padding:0;isolation:auto;mix-blend-mode:normal;solid-color:#000;solid-opacity:1" color="#000" font-weight="400" font-family="sans-serif" overflow="visible" fill="#8b4c2e"/><path d="M18.211 19.39c-.393.186-.627.456-.885.807-.259.35-.445.714-.53 1.004l-.003.011-.002.012c-.179.953.028 1.691.438 2.181s1.003.727 1.566.745c.562.018 1.114-.18 1.425-.611.31-.432.321-1.074-.098-1.79l-.337-.577-.089.662c-.078.576-.419.804-.716.818-.298.014-.575-.155-.594-.654V21.985c-.013-.127.007-.2.037-.254a.362.362 0 0 1 .164-.14c.17-.087.477-.141.828-.198l-.074-.454c-.347.057-.682.1-.963.242a.832.832 0 0 0-.354.323.88.88 0 0 0-.096.517c.03.693.545 1.115 1.073 1.09.366-.017.718-.245.94-.624.092.34.04.597-.095.784-.194.27-.593.434-1.037.42a1.675 1.675 0 0 1-1.228-.58c-.314-.376-.495-.946-.34-1.79.063-.211.235-.54.454-.851.179-.253.125-.225.66-.643z" style="line-height:normal;font-variant-ligatures:normal;font-variant-position:normal;font-variant-caps:normal;font-variant-numeric:normal;font-variant-alternates:normal;font-feature-settings:normal;text-indent:0;text-align:start;text-decoration-line:none;text-decoration-style:solid;text-decoration-color:#000;text-transform:none;text-orientation:mixed;white-space:normal;shape-padding:0;isolation:auto;mix-blend-mode:normal;solid-color:#000;solid-opacity:1" color="#000" font-weight="400" font-family="sans-serif" overflow="visible" fill="#fcac53"/><path d="M17.185 21.758a2.56 2.56 0 0 1 .78-1.616l.635.655c-.28.096-.517.418-.664.95z" fill="#8b4c2e"/></g></svg>