<svg xmlns="http://www.w3.org/2000/svg" height="32" width="32" version="1"><rect width="28.203" height="28.203" x="1.898" y="1.898" ry="5.575" fill="#7ec242" fill-rule="evenodd"/><path d="M14.59 5.663c-.687-.014-1.283.047-1.528.114-.385.103-.962.321-1.198.654-.16.223-.295.509-.295.906.006.75-.01 1.37 0 2.126 0 .422-.146.62-.58.63H9c-.425 0-.748-.01-.994.1a1.373 1.373 0 0 0-.556.433c-.268.349-.312.998-.312 1.436 0 0 .003.351.092 1.047.075.54.67 4.286 1.236 5.42.22.444.365.627.796.823 1.24.288 5.602 1.74 6.076.74.388-1.015.581-2.69.662-3.354 0 .448.07 2.261 1.293 2.687.484.167 1.484.314 2.503.43.923.102 1.373.456 1.373 2.765 0 1.404-.085 1.503-1.661 1.503-1.423 0-2.031 0-2.031-.738 0-.739.434-.739 1.477-.739V21.17c-2.085 0-2.954 0-2.954 2.434 0 2.219.844 2.736 3.798 2.736 2.317 0 3.134-.078 4.09-2.972.189-.572.65-2.317.927-5.25.173-1.851-.168-7.442-.44-8.86v-.002c-.156-.826-.656-1.23-1.113-1.39-.49-.175-1.485-.35-2.731-.493-1.008-.118-2.34-.256-3.054-.234 0-.517-.344-.946-.804-1.13-.613-.238-1.394-.33-2.082-.345z" fill="#fff"/><path d="M21.908 16.738h-2.216c0-.815.496-1.477 1.108-1.477.612 0 1.108.662 1.108 1.477z" opacity=".2"/><path d="M21.908 16h-2.216c0-.816.496-1.477 1.108-1.477.612 0 1.108.661 1.108 1.477z" fill="#fff"/></svg>