<svg xmlns="http://www.w3.org/2000/svg" height="32" width="32" version="1"><g transform="translate(60.475 -9.627)"><path d="M-31.745 37.717l-.67.168h-24.148c-.113 0-.393-.096-.618-.133 1.021 1.187 2.484 1.977 4.18 1.977h17.053c1.711 0 3.182-.806 4.203-2.012z" fill="#999" fill-rule="evenodd"/><path d="M-30.403 34.309V23.598a1.4 1.4 0 0 0-.563-1.123l.006-.008-13.529-9.938-13.445 9.89v-.003c-.03.019-.057.042-.084.063l-.016.011v.002a1.402 1.402 0 0 0-.543 1.106v10.556c0 1.393.558 2.623 1.397 3.598.224.037.504.133.617.133h24.148l.67-.168c.79-.932 1.304-2.095 1.342-3.408z" fill="#3d4fb2" fill-rule="evenodd"/><path d="M-53 11.526a5.565 5.565 0 0 0-5.577 5.576v6.496c0-.451.215-.848.543-1.106v-.002l.016-.011c.027-.021.055-.044.084-.063v.002A95774.3 95774.3 0 0 0-44.49 12.53l13.53 9.938-.007.008a1.4 1.4 0 0 1 .563 1.123v10.71c.002-.054.03-.099.03-.154V17.102a5.565 5.565 0 0 0-5.575-5.576z" fill="#999" fill-rule="evenodd"/><rect x="-55.557" y="15.547" width="22.136" height="18.112" ry="1.508" rx="1.509" fill="#ebebeb"/><path d="M-44.49 18.566a5.031 5.031 0 0 0-5.03 5.03 5.031 5.031 0 0 0 5.03 5.032h3.522a.502.502 0 1 0 0-1.006h-3.521a4.025 4.025 0 0 1-4.025-4.025 4.025 4.025 0 0 1 4.025-4.025 4.025 4.025 0 0 1 4.024 4.025v1.51a.502.502 0 1 1-1.006 0v-1.51a3.019 3.019 0 0 0-3.018-3.019 3.019 3.019 0 0 0-3.019 3.019 3.019 3.019 0 0 0 3.019 3.018 3.019 3.019 0 0 0 2.144-.896c.234.528.76.897 1.377.897.836 0 1.51-.673 1.51-1.51v-1.509a5.031 5.031 0 0 0-5.031-5.03zm0 3.018a2.012 2.012 0 0 1 2.013 2.013 2.012 2.012 0 0 1-2.012 2.012 2.012 2.012 0 0 1-2.013-2.012 2.012 2.012 0 0 1 2.013-2.013z" fill="#848484"/><path d="M-30.403 34.309V23.598l-23.143 16.021c.189.02.352.11.545.11h17.053c3.034 0 5.459-2.408 5.545-5.42z" fill="#8b96d2" fill-rule="evenodd"/><path d="M-44.49 33.35l-14.085-9.752v10.556c0 2.896 2.212 5.18 5.03 5.465z" fill="#6573c3" fill-rule="evenodd"/></g></svg>