<svg xmlns="http://www.w3.org/2000/svg" height="32" width="32" version="1"><rect width="28.203" height="28.203" x="1.898" y="1.898" ry="5.575" fill="#4f4f4f" fill-rule="evenodd"/><g fill-rule="evenodd"><path d="M1.898 8.025v16.502a5.561 5.561 0 0 0 5.575 5.575h17.052a5.563 5.563 0 0 0 5.577-5.575V8.025z" fill="#4f4f4f"/><path d="M29.7 5.479l-2.548 2.546h2.95v-.55c0-.71-.163-1.374-.403-1.996z" fill="#3f3f3f"/><path d="M29.396 4.902h-3.285l-3.123 3.123h4.164L29.7 5.48c-.08-.208-.2-.382-.303-.577zM19.865 8.025l3.123-3.123h-4.164l-3.123 3.123z" fill="#656565"/><path d="M19.984 1.898l3.004 3.004-3.123 3.123h3.123l3.123-3.123-3.004-3.004zM15.701 4.902l-3.123 3.123h3.123l3.123-3.123-3.004-3.004h-3.123z" fill="#3f3f3f"/><path d="M11.535 4.902L8.412 8.025h4.166l3.123-3.123z" fill="#656565"/><path d="M5.004 2.535L7.37 4.902v3.123h1.041l3.123-3.123-3.004-3.004H7.473c-.901 0-1.718.26-2.47.637z" fill="#3f3f3f"/><path d="M1.898 8.025h5.473V4.902L5.004 2.535c-1.825.914-3.106 2.752-3.106 4.94zM8.531 1.898l3.004 3.004h4.166l-3.004-3.004zM15.82 1.898l3.004 3.004h4.164l-3.004-3.004zM23.107 1.898l3.004 3.004h3.285c-.934-1.765-2.728-3.004-4.87-3.004z" fill="#656565"/></g><path d="M21.271 18.95l-4.5 2.5-4.5 2.5v-10l4.5 2.5z" fill="#bababa"/></svg>