<svg xmlns="http://www.w3.org/2000/svg" height="32" width="32" version="1"><rect ry="5.575" y="1.898" x="1.898" height="28.203" width="28.203" fill="#8767d9" fill-rule="evenodd"/><path d="M7.374 30.071c.168.014-.737.014-.565.014h17.83c.73 0 1.407-.177 2.052-.414l-2.396-2.17-.608-.642a18.964 18.964 0 0 1-2.051-2.54c-.55-.828-.955-1.623-1.187-2.341-.252-.777-.315-1.727-.151-2.288a3.16 3.16 0 0 1 .67-1.246c.314-.353.722-.65 1.24-.91.607-.304 1.135-.495 1.806-.609.671-.114 1.486-.153 2.662-.153.65 0 .952.016 1.063-.067.111-.083.03-.264-.094-.654-.196-.618-.576-1.233-1.078-1.781a6.365 6.365 0 0 0-1.814-1.372 9.575 9.575 0 0 0-1.599-.583c-.236-.06-.412-.2-1.097-.868-.935-.914-1.82-1.618-2.74-2.16a11.13 11.13 0 0 0-2.969-1.203c-1.17-.297-1.919-.369-3.46-.329-1.458.038-2.337.164-3.62.518-.726.2-1.825.588-1.784.63.011.01.444.063.96.119.518.056 1.2.143 1.52.193.64.101 1.675.413 1.868.562.113.087.08.092-.377.057a4.511 4.511 0 0 0-1.634.178 4.923 4.923 0 0 0-1.512.76c-.855.629-1.608 1.542-2.243 2.71-.634 1.167-1.15 2.588-1.53 4.232-.145.621-.274 1.366-.299 1.718l-.044.62.588-.511c.534-.466 1.93-1.515 2.017-1.515.02 0-.1.248-.268.55-1.321 4.336-1.784 8.31.844 11.495zm11.89-18.285c.422.002.603.034.866.151.56.25.97.838 1.105 1.588l.042.237-.426-.008a4.973 4.973 0 0 1-.698-.059 2.465 2.465 0 0 1-1.158-.591 2.393 2.393 0 0 1-.7-1.08c-.036-.12-.009-.143.199-.187.131-.028.476-.052.77-.05z" fill="#fff" fill-rule="evenodd"/><path d="M19.254 11.777a4.96 4.96 0 0 0-.774.05c-.209.044-.236.067-.2.188.123.412.375.79.704 1.085.328.296.733.51 1.163.595.15.03.467.055.702.059l.428.008-.042-.238c-.137-.754-.548-1.344-1.11-1.596-.265-.117-.447-.15-.871-.151z" fill="#3f3f3f" fill-rule="evenodd"/><g fill="#ffb039"><path d="M7.493 8.901l4.278 1.123c.424.094 1.068-.378 1.06-.87-1.102-.197-3.914-.666-5.338-.253zM4.193 20.053c-.877-5.032 8.55-5.349 12.722-5.485-7.588.991-9.97 3.284-12.722 5.485zM7.374 30.071c-.503-.628-1.422-1.865-1.737-3.714 4.735-7.287 10.39-10.231 17.98-9.528-10.734 1.318-13.22 7.018-16.243 13.242z"/></g></svg>