<svg xmlns="http://www.w3.org/2000/svg" height="32" width="32" version="1"><path d="M6.016 29.81c.474.131.94.292 1.457.292h17.052a5.563 5.563 0 0 0 5.577-5.575v-8.275zM26.457 2.287c-.606-.224-1.246-.389-1.932-.389H7.473a5.563 5.563 0 0 0-5.575 5.577v8.636z" fill="#8e8e8e" fill-rule="evenodd"/><path d="M26.457 2.287L1.898 16.111v8.416c0 2.572 1.758 4.634 4.118 5.284l24.086-13.559V7.475c0-2.404-1.522-4.401-3.645-5.188z" fill="#4f4f4f" fill-rule="evenodd"/><path d="M6.831 17.535a.698.698 0 0 0-.256.956l.7 1.213-1.213.7a.698.698 0 0 0-.256.956l.7 1.212c.194.336.62.45.956.256l1.213-.7.7 1.213c.194.336.62.45.956.256l1.212-.7a.698.698 0 0 0 .257-.956l-.7-1.213 1.212-.7a.698.698 0 0 0 .256-.956l-.7-1.212a.698.698 0 0 0-.956-.256l-1.212.7-.7-1.211a.698.698 0 0 0-.956-.257l-1.212.7z" fill="#c6c6c6"/><g transform="rotate(-30 17.144 14.71)"><circle r="1.5" cx="24.5" cy="13.5" fill="#ef5646"/><circle r="1.5" cx="20.5" cy="13.5" fill="#ef5646"/><circle r="1.5" cx="24.5" cy="17.5" fill="#eda836"/><circle r="1.5" cx="20.5" cy="17.5" fill="#eda836"/></g></svg>