<svg xmlns="http://www.w3.org/2000/svg" width="32" height="32" version="1"><rect ry="5.575" y="1.898" x="1.898" height="28.203" width="28.203" fill="#5b5b5b" fill-rule="evenodd"/><rect ry="1.1" rx="1.1" y="8.143" x="5" height="15.714" width="22" fill="#5b5b5b"/><circle r="1.179" cy="11.679" cx="7.75" fill="#ccc"/><circle r="1.179" cy="11.679" cx="11.679" fill="#ccc"/><circle r="1.179" cy="11.679" cx="15.607" fill="#ccc"/><circle r="1.179" cy="11.679" cx="19.536" fill="#ccc"/><circle r="1.179" cy="11.679" cx="23.464" fill="#ff8834"/><circle r="1.179" cy="16.393" cx="10.107" fill="#ccc"/><circle r="1.179" cy="16.393" cx="14.036" fill="#ccc"/><circle r="1.179" cy="16.393" cx="17.964" fill="#ff8834"/><circle r="1.179" cy="16.393" cx="21.893" fill="#ccc"/><rect ry=".589" rx=".589" y="19.929" x="8.143" height="2.357" width="15.714" fill="#ccc"/><g transform="matrix(.75 0 0 .75 3.706 4.233)" stroke-width="1.333"><circle r="8" cy="23" cx="24" fill="#e9541d"/><path d="M23.748 19.002a6.915 6.915 0 0 0-.786.045c-.87.133-1.565.439-2.014.883-.245.24-.391.5-.487.836-.053.203-.07.67-.016.848.183.627.616 1.11 1.431 1.593.347.205.614.34 1.384.687.924.415 1.205.583 1.337.79.05.085.07.128.063.23-.014.16-.095.24-.283.309-.126.044-.171.059-.41.057-.435-.003-.82-.084-1.351-.275a4.919 4.919 0 0 1-1.054-.515c-.308-.202-.333-.21-.424-.16-.07.037-.572.485-.944.847-.241.237-.245.284-.078.447.165.163.627.506.88.653.276.162.46.253.77.367.521.193.958.274 1.777.344.187.015.851.017 1.085 0 1.282-.103 2.328-.522 2.878-1.135.196-.217.316-.404.408-.664.091-.254.114-.752.048-1.054-.11-.49-.405-.933-.881-1.306-.477-.374-.961-.623-2.123-1.089-.811-.323-1.116-.495-1.195-.676-.043-.096-.017-.267.048-.332.127-.13.373-.176.692-.137.593.073 1.355.345 2.028.721.13.072.255.132.283.138.108.028.175-.015.613-.516.539-.617.533-.592.236-.802-.882-.633-1.906-1-3.082-1.111a8.233 8.233 0 0 0-.833-.023z" fill="#fff"/></g></svg>