<svg xmlns="http://www.w3.org/2000/svg" width="32" height="32"><rect width="28.203" height="28.203" x="1.898" y="1.898" ry="5.575" fill="#afba0d" fill-rule="evenodd"/><path d="M20.47 4.53l-.896 1.792A8 8 0 0 1 24 13.471a8 8 0 0 1-4.424 7.152l.89 1.781A10 10 0 0 0 26 13.471a10 10 0 0 0-5.53-8.942zm-8.937.007A10 10 0 0 0 6 13.471a10 10 0 0 0 5.53 8.941l.896-1.793A8 8 0 0 1 8 13.471a8 8 0 0 1 4.424-7.153zm7.149 3.568l-.895 1.791A4 4 0 0 1 20 13.471a4 4 0 0 1-2.21 3.576l.89 1.783A6 6 0 0 0 22 13.47a6 6 0 0 0-3.318-5.365zm-5.362.006a6 6 0 0 0-3.32 5.36 6 6 0 0 0 3.318 5.365l.895-1.791A4 4 0 0 1 12 13.47a4 4 0 0 1 2.21-3.576zm2.68 3.36a2 2 0 0 0-2 2 2 2 0 0 0 1 1.73V27.38a10 15.294 0 0 0 1 .092 10 15.294 0 0 0 1-.076V15.199a2 2 0 0 0 1-1.728 2 2 0 0 0-2-2z" fill="#3f3f3f"/></svg>