<svg xmlns="http://www.w3.org/2000/svg" xmlns:xlink="http://www.w3.org/1999/xlink" version="1" width="32" height="32"><defs><linearGradient id="a"><stop offset="0" stop-color="#fff"/><stop offset="1" stop-color="#fff" stop-opacity="0"/></linearGradient><linearGradient xlink:href="#a" id="b" x1="13.699" y1="10.763" x2="13.577" y2="23.94" gradientUnits="userSpaceOnUse"/></defs><g transform="translate(-7.593 -38.237)"><rect ry="5.575" y="40.135" x="9.492" height="28.203" width="28.203" fill="#c0f371" fill-rule="evenodd"/><path d="M15.067 40.135a5.563 5.563 0 0 0-5.576 5.575v10.713c1.004-.208 2.15-.503 2.979-.602 1.52-.181 2.772-.192 3.865-.086 1.092.106 2.025.33 2.902.625.878.294 1.7.657 2.574 1.04.874.381 1.8.781 2.881 1.151 1.082.37 2.32.71 3.822.97 1.502.258 3.266.435 5.399.482 1.06.023 2.527-.103 3.783-.15V45.71a5.563 5.563 0 0 0-5.576-5.575z" fill="#4d9fc3" fill-rule="evenodd"/><path d="M26.91 58.796c-4.916.45-8.674 3.143-14.437 2.848-1.179-.108-2.151-.334-2.983-.646v1.767c0 .63.1 1.235.291 1.799.94-.5 1.937-.923 2.862-1.15a13.634 13.634 0 0 1 3.127-.377c2.09-.024 4.207.335 6.44.646 1.115.155 2.26.299 3.444.377 1.185.078 2.41.09 3.686-.018a20.586 20.586 0 0 0 3.992-.73c1.389-.4 2.84-.97 4.363-1.77-4.469-2.475-7.835-3.015-10.785-2.746z" fill="#97c607" fill-rule="evenodd"/><g transform="matrix(1.80743 0 0 1.80743 106.036 38.869)" stroke-width=".553"><rect width="1.288" height="1.932" x="-50.373" y="11.932" ry="0" fill="#986005"/><path d="M-46.94 12.676h-5.45l2.725-4.719z" fill="#74a10d"/><path d="M-47.372 11.022h-4.682l2.34-4.055z" fill="#98c305"/><path d="M-47.792 9.162h-3.723l1.861-3.224z" fill="#addb1e"/></g><path d="M37.695 61.542a23.141 23.141 0 0 1-4.363 1.77 20.586 20.586 0 0 1-3.992.73c-1.276.107-2.5.096-3.686.018a47.427 47.427 0 0 1-3.445-.377c-2.232-.31-4.35-.67-6.44-.646-1.044.012-2.084.12-3.126.377-.925.227-1.923.65-2.862 1.15a5.57 5.57 0 0 0 5.286 3.775h17.052a5.563 5.563 0 0 0 5.576-5.574z" fill="#74a10d" fill-rule="evenodd"/><g transform="matrix(1.0129 -.11212 .11212 1.0129 69.404 4.486)" stroke-width=".981"><path d="M-49.534 33.91h8.437c.651 0 1.175.525 1.175 1.175v16.276c-1.361 6.666-10.266 4.536-10.786 0V35.085c0-.65.523-1.174 1.174-1.174z" fill="#cdced0"/><path d="M-49.702 34.558l-.072 8.246c.062 1.382-.015 2.764 1.223 4.146 1.236-1.37 4.068-1.94 6.28 0 .844-.694 1.4-1.927 1.366-4.266v-8.102z"/><g transform="translate(-58.881 33.993)"><circle r="4.712" cy="15.797" cx="13.661" fill="gray"/><path d="M13.66 11.086a4.712 4.712 0 0 0-3.012 1.092l3.022 3.45 2.932-3.507a4.712 4.712 0 0 0-2.942-1.035zm3.096 1.162l-2.883 3.45h4.494a4.712 4.712 0 0 0-1.611-3.45zm-6.258.063a4.712 4.712 0 0 0-1.543 3.386h4.508zm-1.545 3.585a4.712 4.712 0 0 0 1.611 3.45l2.883-3.45zm4.95 0l2.945 3.366a4.712 4.712 0 0 0 1.517-3.366zm-.23.042l-2.954 3.535a4.712 4.712 0 0 0 2.941 1.035 4.712 4.712 0 0 0 3.037-1.115z" fill="url(#b)"/><circle r="1.729" cy="15.797" cx="13.661" fill="#cdced0" stroke="gray" stroke-width=".196" stroke-linecap="round"/></g><circle cx="-45.183" cy="45.95" r=".503" fill="#ab1609"/><ellipse cx="-45.284" cy="45.746" rx=".157" ry=".102" fill="#ab1609" stroke="#e73424" stroke-width=".196" stroke-linecap="round"/><path style="line-height:normal;font-variant-ligatures:normal;font-variant-position:normal;font-variant-caps:normal;font-variant-numeric:normal;font-variant-alternates:normal;font-feature-settings:normal;text-indent:0;text-align:start;text-decoration-line:none;text-decoration-style:solid;text-decoration-color:#000;text-transform:none;text-orientation:mixed;white-space:normal;shape-padding:0;isolation:auto;mix-blend-mode:normal;solid-color:#000;solid-opacity:1" d="M-49.475 42.965V43.568h8.25v-.603H-47.438zm.1.1h1.938v.402h-1.938zm2.037 0h1.938v.402h-1.938zm2.04 0h1.937v.402H-45.3zm2.036 0h1.938v.402h-1.938z" color="#000" font-weight="400" font-family="sans-serif" overflow="visible" fill="#0062cd"/><text style="line-height:1.25" x="-47.518" y="42.446" font-weight="400" font-size="1.005" font-family="sans-serif" letter-spacing="0" word-spacing="0" fill="#0062cd"><tspan x="-47.518" y="42.446">00:00:01</tspan></text><g fill="gray"><path d="M-48.428 48.729l-.442-.795.91.015z"/><path d="M-47.775 49.162l-.442-.796.91.015z"/></g><g fill="gray"><path d="M-42.462 48.035l.91.015-.468.78z"/><path d="M-43.163 48.383l.91.016-.468.78z"/></g><path d="M-41.642 50.946l-.13.273-1.246-.576-.07.153 1.243.574-.123.258.582-.135zM-48.476 51.747l-.132-.272 1.23-.61-.074-.15-1.228.608-.123-.257-.26.538zM-46.814 52.881l-.305.509c1.806.845 3.132.46 4.204-.576-1.463.616-2.833.895-3.899.067z" fill="gray"/></g></g></svg>