<svg xmlns="http://www.w3.org/2000/svg" width="32" height="32" version="1"><rect width="28.203" height="28.203" x="1.898" y="1.898" ry="5.575" fill="#8e8e8e" fill-rule="evenodd"/><path d="M7.473 1.898a5.561 5.561 0 0 0-5.575 5.575v17.052a5.563 5.563 0 0 0 5.575 5.577H16v-7.713a5.563 5.563 0 0 1 3.4-5.139 5.582 5.582 0 0 1 2.174-.438h8.528v-9.34a5.563 5.563 0 0 0-5.577-5.574z" fill="#8e8e8e" fill-rule="evenodd"/><g transform="translate(.012 -.132)" fill="#4d4d4d"><circle cx="25.696" cy="6.4" r="1.438"/><circle cx="6.232" cy="6.4" r="1.438"/><circle cx="25.743" cy="25.864" r="1.438"/><circle cx="6.28" cy="25.864" r="1.438"/></g><path d="M16 9a7 7 0 0 0-7 7v7h7a7 7 0 1 0 0-14zm0 3a4 4 0 0 1 4 4 4 4 0 0 1-4 4 4 4 0 0 1-4-4 4 4 0 0 1 4-4z" fill="#4d4d4d"/><path d="M30.102 16.812h-8.528A5.563 5.563 0 0 0 16 22.388v7.714h8.525a5.565 5.565 0 0 0 5.577-5.577z" fill="#4daaf5" fill-rule="evenodd"/><path d="M23.572 19.402c-.294 0-.592.144-.785.358-.19.21-.303.5-.303.785 0 .281.117.567.303.773l.002.002.002.002c.194.21.49.348.781.348.3 0 .612-.143.809-.367l.002-.002.002-.002c.187-.218.295-.508.295-.795a1.14 1.14 0 0 0-.305-.758 1.122 1.122 0 0 0-.803-.344zm-.785 2.377a2.2 2.2 0 0 0-.592.098 5.096 5.096 0 0 0-.73.271l-.227.102-.316 1.35.803-.211c.04-.01.118-.029.224-.05.062-.01.084-.012.117-.015-.003.043-.003.08-.017.15l-.002.007-.002.005a6.6 6.6 0 0 1-.065.329l-.496 1.99-.002.004a4.65 4.65 0 0 0-.068.332 1.928 1.928 0 0 0-.025.304c0 .3.117.61.326.829l.002.002.002.002c.241.247.587.343.924.343.183 0 .366-.032.564-.086l.008-.002a6.17 6.17 0 0 0 .746-.257l.24-.098.342-1.457-.871.32s-.061.018-.154.031h-.002a1.665 1.665 0 0 1-.184.018h-.004c.002-.032.007-.076.02-.148l.002-.006v-.004c.023-.109.049-.218.078-.33V25.6l.502-1.996v-.002a2.878 2.878 0 0 0 .091-.645c0-.3-.1-.614-.312-.838-.243-.256-.586-.34-.922-.34zm-.664 1.471l.01.01.01.008c-.034-.033-.006.012-.018-.004-.016-.013.024.013-.002-.014z" style="line-height:1.25;font-variant-ligatures:normal;font-variant-position:normal;font-variant-caps:normal;font-variant-numeric:normal;font-variant-alternates:normal;font-feature-settings:normal;text-indent:0;text-align:start;text-decoration-line:none;text-decoration-style:solid;text-decoration-color:#000;text-transform:none;text-orientation:mixed;white-space:normal;shape-padding:0;isolation:auto;mix-blend-mode:normal;solid-color:#000;solid-opacity:1" color="#000" font-weight="400" font-size="9.627" font-family="sans-serif" letter-spacing="0" word-spacing="0" overflow="visible" fill="#fff"/></svg>