<svg xmlns="http://www.w3.org/2000/svg" height="32" width="32" version="1"><rect width="28.203" height="28.203" x="1.898" y="1.898" ry="5.575" fill="#4f4f4f" fill-rule="evenodd"/><g fill-rule="evenodd"><path d="M1.897 19.074c.09.199.095.444.247.596.324.325.775.525 1.273.525h2.396a1.79 1.79 0 0 0 1.797-1.799v-4.792a1.795 1.795 0 0 0-1.797-1.8H3.417c-.498 0-.949.201-1.273.526-.152.152-.157.397-.247.596zM14.478 30.102c.145-.25.324-.487.324-.8V24.27c0-.465-.185-.885-.483-1.188a1.627 1.627 0 0 0-1.166-.49H3.267c-.457 0-.869.187-1.166.49-.126.128-.124.336-.204.5v.945a5.563 5.563 0 0 0 5.577 5.575zM30.103 23.582c-.08-.164-.078-.372-.204-.5a1.627 1.627 0 0 0-1.166-.49h-9.886c-.457 0-.868.187-1.166.49a1.689 1.689 0 0 0-.483 1.188v5.033c0 .312.18.548.324.799h7.004a5.563 5.563 0 0 0 5.577-5.575zM17.522 1.898c-.145.25-.324.487-.324.8V7.73c0 .465.185.885.483 1.188.298.303.71.49 1.166.49h9.886c.457 0 .869-.187 1.166-.49.126-.128.124-.336.204-.5v-.945a5.563 5.563 0 0 0-5.577-5.575z" fill="#f45c49"/><path d="M1.897 8.418v4.508c.09-.199.095-.444.247-.596a1.795 1.795 0 0 1 1.273-.525h2.396a1.79 1.79 0 0 1 1.797 1.799v4.792a1.795 1.795 0 0 1-1.797 1.8H3.417c-.498 0-.949-.201-1.273-.526-.152-.152-.157-.397-.247-.596v4.508c.08-.164.078-.372.204-.5.297-.303.71-.49 1.166-.49h9.886c.457 0 .868.187 1.166.49.298.303.483.723.483 1.188v5.033c0 .312-.18.548-.324.799h3.044c-.145-.25-.324-.487-.324-.8V24.27c0-.465.185-.885.483-1.188.298-.303.71-.49 1.166-.49h9.886c.457 0 .869.187 1.166.49.126.128.124.336.204.5v-4.508c-.09.199-.095.444-.247.596a1.795 1.795 0 0 1-1.273.525h-2.396a1.79 1.79 0 0 1-1.797-1.799v-4.792a1.795 1.795 0 0 1 1.797-1.8h2.396c.498 0 .949.201 1.273.526.152.152.157.397.247.596V8.418c-.08.164-.078.372-.204.5-.297.303-.71.49-1.166.49h-9.886c-.457 0-.868-.187-1.166-.49a1.689 1.689 0 0 1-.483-1.188V2.697c0-.312.18-.548.324-.799h-3.044c.145.25.324.487.324.8V7.73c0 .465-.185.885-.483 1.188-.298.303-.71.49-1.166.49H3.267c-.457 0-.869-.187-1.166-.49-.126-.128-.124-.336-.204-.5z" fill="#4f4f4f"/><path d="M1.897 8.418c.08.164.078.372.204.5.297.303.71.49 1.166.49h9.886c.457 0 .868-.187 1.166-.49.298-.303.483-.723.483-1.188V2.697c0-.312-.18-.548-.324-.799H7.474a5.563 5.563 0 0 0-5.577 5.575z" fill="#f45c49"/><path d="M11.507 11.805c-.415 0-.79.188-1.06.492a1.78 1.78 0 0 0-.438 1.187v5.032c0 .464.167.884.437 1.187.271.304.646.492 1.06.492h8.987c.415 0 .79-.188 1.06-.492a1.78 1.78 0 0 0 .438-1.187v-5.032a1.78 1.78 0 0 0-.437-1.187 1.42 1.42 0 0 0-1.06-.492z" fill="#4f4f4f"/><path d="M11.507 11.805h8.986c.415 0 .79.188 1.06.492.271.303.438.723.438 1.187v5.032c0 .464-.167.884-.437 1.187a1.42 1.42 0 0 1-1.06.492h-8.987a1.42 1.42 0 0 1-1.06-.492 1.78 1.78 0 0 1-.438-1.187v-5.032c0-.464.167-.884.437-1.187a1.42 1.42 0 0 1 1.06-.492zM30.103 12.926c-.09-.199-.095-.444-.247-.596a1.795 1.795 0 0 0-1.273-.525h-2.396a1.79 1.79 0 0 0-1.797 1.799v4.792a1.795 1.795 0 0 0 1.797 1.8h2.396c.498 0 .949-.201 1.273-.526.152-.152.157-.397.247-.596z" fill="#f45c49"/></g></svg>