<svg xmlns="http://www.w3.org/2000/svg" height="32" width="32"><rect width="28.203" height="28.203" x="1.898" y="1.898" ry="5.575" fill="#fe6d40" fill-rule="evenodd"/><path d="M16 5.858c-.058 0-.307.165-.573.367-2.349 1.739-5.652 3.55-8.798 3.998l-.409.063.029.41c.047.696.45 2.541.838 3.838a26.467 26.467 0 0 0 1.77 4.486c1.636 3.247 3.705 5.256 6.247 6.8.331.201.639.31.896.322.257-.013.565-.12.896-.322 2.542-1.544 4.61-3.553 6.248-6.8a26.467 26.467 0 0 0 1.77-4.486c.387-1.297.79-3.142.837-3.837l.029-.411-.409-.063c-3.146-.448-6.45-2.26-8.798-3.998-.266-.202-.515-.367-.573-.367z" fill="#fff"/><path d="M16 8.41c-2.04 1.431-4.516 2.813-7.27 3.542.15.733.239 1.288.439 1.958.466 1.557.96 2.808 1.627 4.132 1.411 2.799 3.06 4.39 5.204 5.737 2.144-1.347 3.793-2.938 5.204-5.737.667-1.324 1.161-2.575 1.627-4.132.2-.67.289-1.225.439-1.958-2.754-.729-5.23-2.111-7.27-3.543z" fill="#fe6d40"/><path fill="#fff" d="M14.913 17.014h2.173v4.057h-2.173z"/><path d="M16 10.93l1.992 3.621 1.992 3.622h-7.968l1.992-3.622z" fill="#fff"/><path d="M16 10.205l1.63 2.535 1.63 2.536h-6.52l1.63-2.536z" fill="#fff"/></svg>