<svg xmlns="http://www.w3.org/2000/svg" width="32" version="1" height="32"><path d="M7.473 1.898a5.561 5.561 0 0 0-5.575 5.575v5.343c2.504 13.427 20.705 23.19 28.204.979V7.473a5.561 5.561 0 0 0-5.575-5.575z" fill="#042c38" fill-rule="evenodd"/><path d="M13.111 22.356c9.402 5.85 18.14-10.79 7.774-18.797 11.678 1.52 6.066 14.08 7.315 22.26-4.373-.195-10.147 3.954-14.062 1.743-.962-.544-.592-4.345-1.027-5.206z" fill="#ffc607"/><path d="M11.363 15.034c-.952 1.86-.516 2.162-.218 2.516 1.014.897 2.667.396 5.665-1.281.144 1.146-.809 2.463-3.292 3.708-.815.408-1.215 1.038-.407 2.38l3.775 4.54-5.263-.447L7.282 15.4z" fill="#d14b01"/><path d="M20.441 7.1c4.571 2.957 3.481 7.233 4.838 10.94l.967-6.829C24.41 8.301 24.12 7.58 20.441 7.1z" fill="#f78f04"/><path d="M23.25 14.207c.43 3.956-.048 6.674.708 6.828l1.358-3.702c-.343-.306-1.14-2.143-2.065-3.126z" fill="#f78f04"/><path d="M5.15 5.137C3.6 7.174 3.11 9.152 3.52 10.98l2.973-2.184C5.808 8.08 5.277 7.039 5.15 5.137z" fill="#dc4a04"/><path d="M11.65 11.952c1.928-.002 3.935.36 5.63-.71-.88 1.3-1.876 2.214-3.736 3.026z" fill="#fff"/><path d="M11.86 9.137c.94.588 1.062 1.406 5.342 1.052.314.333.317.685.078 1.053-1.465.975-3.72 1.038-5.486.654z" fill="#f25900"/><path d="M17.202 10.19c.32.605.004.897-.196 1.195 1.115.149 1.302-1.498.196-1.196z" fill="#656465"/><path d="M30.102 13.795c-.304-.699-.631-1.389-1.106-2.027a10.674 10.674 0 0 0-2.164-2.159c-.955 1.693-1.545 3.508-2.01 5.284-.465 1.775-.805 3.51-1.263 5.044-.23.768-.488 1.486-.807 2.133-.319.648-.697 1.225-1.166 1.711a5.06 5.06 0 0 1-1.707 1.168c-.68.286-1.478.462-2.428.506-1.134.039-2.266-.26-3.295-.803a8.285 8.285 0 0 1-2.672-2.261c-.72-.935-1.234-2.019-1.443-3.157a5.863 5.863 0 0 1 .393-3.48c1.847-.096 3.978-.017 5.17.201-.921-.701-1.643-1.438-2.16-2.21-.518-.773-.83-1.581-.928-2.423-.098-.841.019-1.718.357-2.627.338-.909.898-1.85 1.69-2.824-.769.224-1.535.459-2.264.818-.73.36-1.423.845-2.049 1.567-.527-.344-1.173-.524-1.87-.555a5.878 5.878 0 0 0-2.173.344 6.882 6.882 0 0 0-2.07 1.16 6.117 6.117 0 0 0-1.559 1.889c-.257.439-.474 1.07-.68 1.722v11.711a5.561 5.561 0 0 0 5.575 5.575h17.052a5.563 5.563 0 0 0 5.577-5.575z" fill="#ef5a00" fill-rule="evenodd"/></svg>