<svg xmlns="http://www.w3.org/2000/svg" height="32" width="32" version="1"><path d="M1.898 12.2c.006.014.008.03.014.044a15.247 15.247 0 0 0 3.276 4.86A15.247 15.247 0 0 0 16 21.58c1.055 0 2.085-.108 3.081-.311a15.184 15.184 0 0 0 5.469-2.3 15.348 15.348 0 0 0 4.129-4.128 15.247 15.247 0 0 0 1.408-2.598c.006-.014.008-.03.014-.045V7.473a5.561 5.561 0 0 0-5.575-5.575H7.473a5.561 5.561 0 0 0-5.575 5.575v4.726z" fill="#e2b322" fill-rule="evenodd"/><path d="M1.898 14.299v10.228a5.561 5.561 0 0 0 5.575 5.575h17.054a5.561 5.561 0 0 0 5.575-5.575V14.3c-.207.362-.364.754-.596 1.097a16.383 16.383 0 0 1-4.4 4.4 16.266 16.266 0 0 1-5.825 2.452 16.338 16.338 0 0 1-9.619-.95 16.266 16.266 0 0 1-5.178-3.491 16.383 16.383 0 0 1-1.99-2.41c-.232-.344-.39-.736-.596-1.098z" fill="#e2b322" fill-rule="evenodd"/><g fill-rule="evenodd"><path d="M16 1.898H7.473a5.561 5.561 0 0 0-5.575 5.575v17.052a5.563 5.563 0 0 0 5.575 5.577H16z" fill="#e2b322"/><path d="M16 1.898v28.204h8.525a5.565 5.565 0 0 0 5.577-5.577V7.473a5.563 5.563 0 0 0-5.577-5.575z" fill="#f2cd22"/></g><path d="M13.482 27.74a.969.969 0 0 0 1.937 0 .958.958 0 0 0-.134-.472l.715-.763.715.763c-.08.14-.134.3-.134.472a.969.969 0 1 0 .969-.969.955.955 0 0 0-.254.037l-.8-.824 1.635-1.731v-.581h-.387l-3.04 3.136a.969.969 0 0 0-1.223.933zm.58 0a.387.387 0 1 1 .776 0 .387.387 0 0 1-.775 0zm-.193-3.487l1.441 1.526.496-.508-1.55-1.599h-.387zm3.294 3.488a.387.387 0 1 1 .775 0 .387.387 0 0 1-.775 0zM19.943 8.268l-5.802 1.338c-.818.103-.787.94-.787.94V14.118a2.131 2.131 0 1 0 1.54 2.242h.01v-5.364l4.262-1.013v2.973a2.131 2.131 0 1 0 1.54 2.242h.01v-6.2s.01-.894-.773-.729z" fill="#fff"/><path d="M1.898 14.299c.207.362.364.754.596 1.097a16.383 16.383 0 0 0 4.4 4.4 16.266 16.266 0 0 0 5.825 2.452 16.338 16.338 0 0 0 9.619-.95 16.266 16.266 0 0 0 5.178-3.491 16.383 16.383 0 0 0 1.99-2.41c.232-.344.39-.736.596-1.098v-2.1c-.006.015-.008.03-.014.045a15.247 15.247 0 0 1-3.276 4.86A15.247 15.247 0 0 1 16 21.58c-1.055 0-2.085-.108-3.081-.311a15.184 15.184 0 0 1-5.469-2.3 15.348 15.348 0 0 1-4.129-4.128 15.247 15.247 0 0 1-1.408-2.598c-.006-.014-.008-.03-.014-.045v2.1z" fill="#fff" fill-rule="evenodd"/></svg>