<svg xmlns="http://www.w3.org/2000/svg" height="32" width="32" version="1"><rect width="28.203" height="28.203" x="1.898" y="1.898" ry="5.575" fill="#4f4f4f" fill-rule="evenodd"/><path d="M16 7.865h5.695s-3.651.778-4.068 2.13c-.314 1.02 1.845 1.86 1.627 2.906-.262 1.253-2.994 1.264-3.254 2.518-.246 1.187 2.645 2.098 2.44 3.293-.215 1.259-3.23 1.433-3.254 2.711-.022 1.234 3.255 2.712 3.255 2.712h-8.136z" fill="#ccc"/><path d="M6.238 6.238v2.44h2.44v-2.44zm17.084 0v2.44h2.44v-2.44zM6.238 11.932v2.441h2.44v-2.44zm17.084 0v2.441h2.44v-2.44zM6.238 17.627v2.44h2.44v-2.44zm17.084 0v2.44h2.44v-2.44zM6.238 23.322v2.44h2.44v-2.44zm17.084 0v2.44h2.44v-2.44z" fill="#989898"/></svg>