<svg xmlns="http://www.w3.org/2000/svg" height="32" width="32" version="1"><rect width="28.203" height="28.203" x="1.898" y="1.898" ry="5.575" fill="#ccc" fill-rule="evenodd"/><g stroke-width="1.35"><g transform="matrix(.74063 0 0 .74063 4.15 4.15)" fill="#fff"><rect width="8" height="14" x="12" y="2" ry="2.8"/><path d="M16.223 12.004a4.74 3.869 0 0 0-4.328 1.93l-3.63 5.132-3.63 5.131A4.74 3.869 0 0 0 8.74 30h14.52a4.74 3.869 0 0 0 4.105-5.803l-3.63-5.131-3.63-5.132a4.74 3.869 0 0 0-3.882-1.93z"/></g><g fill="#578aff"><path d="M16.202 9.014a1.11 1.11 0 0 0-1.11 1.11 1.11 1.11 0 0 0 1.11 1.112 1.11 1.11 0 0 0 1.111-1.111 1.11 1.11 0 0 0-1.11-1.111zM14.721 11.976a1.11 1.11 0 0 0-1.111 1.111 1.11 1.11 0 0 0 1.111 1.111 1.11 1.11 0 0 0 1.11-1.11 1.11 1.11 0 0 0-1.11-1.112zM16.943 14.198a1.11 1.11 0 0 0-1.111 1.111 1.11 1.11 0 0 0 1.11 1.111 1.11 1.11 0 0 0 1.112-1.11 1.11 1.11 0 0 0-1.111-1.112zM14.721 17.16a1.11 1.11 0 0 0-1.111 1.112 1.11 1.11 0 0 0 1.111 1.11 1.11 1.11 0 0 0 1.11-1.11 1.11 1.11 0 0 0-1.11-1.111zM11.902 20.864l-.977 1.474c-.788 1.188.197 2.23 1.772 2.23h6.269c1.576 0 2.56-1.042 1.773-2.23l-.977-1.474z"/></g></g></svg>