<svg xmlns="http://www.w3.org/2000/svg" height="32" width="32" version="1"><g transform="translate(33.93 -.908)" fill-rule="evenodd"><rect ry="5.575" y="2.806" x="-32.03" height="28.203" width="28.203" fill="#ffce7b"/><path d="M-26.455 2.806a5.563 5.563 0 0 0-5.576 5.574v10.713c1.004-.207 2.15-.503 2.978-.602 1.52-.18 2.773-.192 3.865-.085 1.093.106 2.025.33 2.903.625.877.294 1.7.657 2.574 1.039.874.382 1.8.782 2.88 1.152 1.083.37 2.322.71 3.823.969 1.502.258 3.266.435 5.399.482 1.06.023 2.527-.103 3.783-.15V8.38a5.563 5.563 0 0 0-5.576-5.574z" fill="#ffce7b"/><path d="M-11.325 6.887a3.976 3.976 0 1 1 0 7.953 3.976 3.976 0 0 1 0-7.953z" fill="#ff8e30"/><path d="M-14.612 21.467c-4.917.449-8.675 3.142-14.438 2.848-1.178-.108-2.15-.335-2.982-.647v1.768c0 .63.166 1.21.357 1.775.94-.5 1.871-.9 2.795-1.127a13.634 13.634 0 0 1 3.127-.377c2.09-.024 4.207.336 6.44.647 1.116.155 2.26.299 3.445.377 1.185.078 2.41.089 3.686-.018a20.586 20.586 0 0 0 3.992-.73c1.389-.4 2.84-.971 4.363-1.77-4.47-2.476-7.835-3.015-10.785-2.746z" fill="#869fcb"/><path d="M-3.827 24.213a23.141 23.141 0 0 1-4.363 1.77 20.586 20.586 0 0 1-3.992.73c-1.276.107-2.5.096-3.686.018a47.427 47.427 0 0 1-3.445-.377c-2.233-.311-4.35-.67-6.44-.647-1.045.012-2.084.12-3.127.377-.924.228-1.856.627-2.795 1.127.746 2.2 2.761 3.799 5.22 3.799h17.052a5.563 5.563 0 0 0 5.576-5.574z" fill="#3862c3"/></g></svg>