<svg xmlns="http://www.w3.org/2000/svg" height="32" width="32" version="1"><rect width="28.203" height="28.203" x="1.898" y="1.898" ry="5.575" fill="#826f3d" fill-rule="evenodd"/><path fill="#fff" d="M4.681 6.567h22.638v13.206H4.681z"/><g fill="#ff6e6e" stroke-width="1.06"><path d="M14.113 12.227v1.886h-5.66v-1.886zM14.113 8.454v1.886h-5.66V8.454z"/><path d="M8.454 8.454h1.886v9.433H8.454z"/></g><circle cy="24.018" cx="25.904" r="1.415" fill="#01d900"/><path fill="#958439" d="M4.681 20.716h13.206v.943H4.681z"/><g fill="#ff6e6e" stroke-width="1.06"><path d="M16.943 17.887h-1.886v-5.66h1.886zM20.716 17.887H18.83v-5.66h1.886zM24.49 17.887h-1.887v-5.66h1.886z"/><path d="M24.49 12.227v1.886h-9.433v-1.886z"/></g><path fill="#958439" d="M4.681 22.603h13.206v.943H4.681zM4.681 24.489h13.206v.943H4.681z"/></svg>