<svg xmlns="http://www.w3.org/2000/svg" height="32" width="32" version="1"><rect width="28.203" height="28.203" x="1.898" y="1.898" ry="5.575" fill="#ccc" fill-rule="evenodd"/><g fill="#404040"><path d="M16.87 9c-1.85 0-2.975 2.069-3.683 3.908L12.3 15.61l-1.131 3.621c-.351 1.02-.598 2.64-1.668 2.77-.468.057-.448-1-1-1a1 1 0 1 0 0 2h.63c2.14 0 3.36-2.69 4.276-5.652l.514-1.672.82-2.639c.424-1.09.6-2.885 1.76-3.037.467-.061.448 1 1 1a1 1 0 1 0 0-2z"/><path d="M9.5 14h8v1h-8z"/><g><path d="M22.87 9c-1.85 0-2.975 2.069-3.683 3.908L18.3 15.61l-1.131 3.621c-.351 1.02-.598 2.64-1.668 2.77-.468.057-.448-1-1-1a1 1 0 1 0 0 2h.63c2.14 0 3.36-2.69 4.276-5.652l.514-1.672.82-2.639c.424-1.09.6-2.885 1.76-3.037.467-.061.448 1 1 1a1 1 0 1 0 0-2z"/><path d="M15.5 14h8v1h-8z"/></g></g></svg>