<svg xmlns="http://www.w3.org/2000/svg" width="32" height="32" version="1"><rect width="28.203" height="28.203" x="1.898" y="1.898" ry="5.575" fill="#6493a6" fill-rule="evenodd"/><path d="M14.6 5.5A5.587 5.587 0 0 0 9 11.1V25.1c0 .775.724 1.4 1.5 1.4s1.5-.625 1.5-1.4v-5.6h4v-3h-1.334C13.142 16.5 12 15.358 12 13.834v-2.668C12 9.642 13.142 8.5 14.666 8.5H16v-3z" fill="#3f3f3f"/><path d="M16 5.5v3h1.334C18.858 8.5 20 9.642 20 11.166v2.668c0 1.524-1.142 2.666-2.666 2.666H16v3h1.4c3.103 0 5.6-2.497 5.6-5.6v-2.8c0-3.103-2.497-5.6-5.6-5.6z" fill="#fff"/></svg>