<svg xmlns="http://www.w3.org/2000/svg" height="32" width="32" version="1"><rect width="28.203" height="28.203" x="1.898" y="1.898" ry="5.575" fill="#d6d6d6" fill-rule="evenodd"/><path d="M11.406 4.684a12.138 12.138 0 0 0-4.04 2.682A12.173 12.173 0 0 0 3.79 16a12.166 12.166 0 0 0 3.576 8.634A12.158 12.158 0 0 0 16 28.21a12.176 12.176 0 0 0 8.634-3.576A12.166 12.166 0 0 0 28.21 16a12.179 12.179 0 0 0-3.576-8.635A12.175 12.175 0 0 0 16 3.79c-1.585 0-3.131.3-4.594.894zM6.842 21.14a8.381 8.381 0 0 1-1.61-1.295 11.511 11.511 0 0 1-.372-6.414c.229-.45.489-.883.783-1.298.09-.127.174-.26.271-.385l2.756 1.63v.07a21.225 21.225 0 0 0 .443 4.403l.003.016-2.137 3.351a1.685 1.685 0 0 1-.137-.078zm8.192 5.665c.476.242.965.447 1.467.614a11.45 11.45 0 0 1-6.195-1.5l4.62.822c.035.023.07.044.108.064zm-.016-.834l-5.451-.972a17.021 17.021 0 0 1-1.705-2.469c-.125-.222-.265-.439-.371-.671l2.135-3.348.16.04c1.335.358 2.694.612 4.062.811.08.011.147.021.204.027l2.56 4.425a98.082 98.082 0 0 1-1.353 1.859c-.076.102-.157.2-.241.298zm9.068-1.885c-.434.434-.894.826-1.376 1.175-.08-.64-.218-1.266-.413-1.877l2.73-5.094c.752-.343 1.478-.731 2.151-1.213a.962.962 0 0 0 .218-.208 11.378 11.378 0 0 1-3.31 7.217zm-.12-6.606l.301.588-2.637 4.92-.045.008a24.056 24.056 0 0 1-4.312.415l-2.632-4.551c.41-.76.816-1.524 1.218-2.288.274-.518.542-1.04.81-1.561l5.448-.56c.667.979 1.299 1.978 1.848 3.029zm-1.106-5.835c-.258.682-.535 1.358-.81 2.035l-5.306.544a4.328 4.328 0 0 0-.199-.244c-.626-.71-1.257-1.415-1.887-2.122l.017-.02-.762-.761 1.477-4.448c.102-.027.204-.05.308-.06.803-.082 1.607-.175 2.412-.221.493-.028.989-.044 1.49-.008l3.655 4.12c-.126.397-.249.795-.395 1.185zm1.226-3.731a11.385 11.385 0 0 1 2.341 3.39 11.607 11.607 0 0 0-2.18-1.172 6.552 6.552 0 0 0-.367-.135l-3.598-4.055c.025-.175.039-.35.044-.528a11.381 11.381 0 0 1 3.76 2.5zM12.338 5.2c.015.01.021.02.03.022.822.284 1.57.702 2.275 1.199l-1.38 4.156a.148.148 0 0 0-.02.007c-.283.117-.57.221-.849.348-1.145.52-2.262 1.097-3.314 1.789L6.356 11.11a.823.823 0 0 1 .048-.248c.183-.487.363-.977.57-1.455.159-.367.34-.723.538-1.07a11.368 11.368 0 0 1 4.852-3.177.795.795 0 0 0-.026.041z" fill="#4f4f4f" stroke-width="1.147"/></svg>