<svg xmlns="http://www.w3.org/2000/svg" width="32" height="32" version="1"><rect width="28.203" height="28.203" x="1.898" y="1.898" ry="5.575" fill="#0074af" fill-rule="evenodd"/><path d="M9.135 10.877a.846.846 0 0 0-.848.848v8.55c0 .47.378.848.848.848h13.73c.47 0 .848-.378.848-.848v-8.55a.846.846 0 0 0-.848-.848H9.135z" fill="#2666ad" fill-rule="evenodd"/><path d="M8.287 1.898h-.814a5.561 5.561 0 0 0-5.575 5.575v17.054a5.561 5.561 0 0 0 5.575 5.575h.814v-7.043c0-.47.378-.848.848-.848h13.73c.47 0 .848.378.848.848v7.043h.814a5.561 5.561 0 0 0 5.575-5.575V7.473a5.561 5.561 0 0 0-5.575-5.575h-.814v7.043c0 .47-.378.848-.848.848H9.135a.846.846 0 0 1-.848-.848V1.898zm.848 8.979h13.73c.47 0 .848.378.848.848v8.55c0 .47-.378.848-.848.848H9.135a.846.846 0 0 1-.848-.848v-8.55c0-.47.378-.848.848-.848z" fill="#5b5b5b" fill-rule="evenodd"/><g stroke-width="1.09" fill="#fff"><g stroke="#4e4e4e" stroke-width=".218" stroke-linecap="round" transform="matrix(.91725 0 0 .91742 -35.18 1.116)"><rect ry=".449" y="8.693" x="42.15" height="2.672" width="3.671"/><rect ry=".449" y="16.953" x="42.15" height="2.672" width="3.671"/><rect ry=".449" y="21.083" x="42.15" height="2.672" width="3.671"/><rect ry=".449" y="25.213" x="42.15" height="2.672" width="3.671"/><rect ry=".449" y="12.823" x="42.15" height="2.672" width="3.671"/><rect ry=".449" y="4.563" x="42.15" height="2.672" width="3.671"/></g><g stroke="#4e4e4e" stroke-width=".218" stroke-linecap="round" transform="matrix(.91725 0 0 .91742 -35.18 1.116)"><rect width="3.671" height="2.672" x="65.774" y="8.693" ry=".449"/><rect width="3.671" height="2.672" x="65.774" y="16.953" ry=".449"/><rect width="3.671" height="2.672" x="65.774" y="21.083" ry=".449"/><rect width="3.671" height="2.672" x="65.774" y="25.213" ry=".449"/><rect width="3.671" height="2.672" x="65.774" y="12.823" ry=".449"/><rect width="3.671" height="2.672" x="65.774" y="4.563" ry=".449"/></g></g><path d="M16.497 5.89c-1.559 5.032-5.369 8.676-6.408 12.279a6.171 6.171 0 0 0-.166.713c-.018.1-.032.2-.045.3a6.171 6.171 0 0 0-.04.506 5.471 5.471 0 0 0-.003.495 6.171 6.171 0 0 0 6.162 5.927 6.171 6.171 0 0 0 6.172-6.172 6.171 6.171 0 0 0-.025-.521c-.033-4.123-4.567-7.77-5.647-13.527z" fill="#f0c612"/><path d="M15.435 11.236c-1.159 4.376 2.678 13.411-1.176 12.21-5.307-1.14-2.143-5.696 1.176-12.21zM3.5-10.359c-.014-.438-.025-1.539-.025-2.447v-1.651H3.37a3.44 3.44 0 0 1-2.965-2.755c-.053-.284-.06-.674-.049-3.108C.37-23.366.36-23.216.6-23.8c.35-.846 1.073-1.561 1.905-1.884.612-.237.352-.228 6.13-.216l5.255.01.276.086c1.287.398 2.216 1.433 2.437 2.716.05.29.057.732.047 3.063-.012 2.676-.014 2.729-.095 3.025-.183.66-.623 1.354-1.116 1.76-.436.358-.817.552-1.408.716-.282.079-.373.082-2.687.095l-2.395.014-.808.723A18862.776 18862.776 0 0 0 3.657-9.68l-.133.117z" fill="#fff"/></svg>