<svg xmlns="http://www.w3.org/2000/svg" height="32" width="32" version="1"><rect width="28.203" height="28.203" x="1.898" y="1.898" ry="5.575" fill="#f18d00" fill-rule="evenodd"/><path d="M26 12.968C24.124 5.045 16.926 5.112 12.58 7.18c-4.573 2.312-7.885 8.236-6.079 13.197 2.792 7.484 13.07 7.372 16.547.412C24.081 18.237 24.84 16.425 22 14v3l-1-2s-.887 2.098-1.83 3.055C17.858 19.385 16 19 16 19c.35 1.326 3 2 3 2-6.878 3.255-7.079-2.185-7-3.5.226-3.784 3.268-6.721 7.277-6.51C20.555 11.086 23 12 23 12c-.92-2.105-2.23-2.606-3-3 3.018-.998 4.629 2.153 6 3.967z" fill="#fff" fill-rule="evenodd"/></svg>