<svg xmlns="http://www.w3.org/2000/svg" height="32" width="32" version="1"><rect width="28.203" height="28.203" x="1.898" y="1.898" ry="5.575" fill="#0286c2" fill-rule="evenodd"/><path d="M24.92 8.64c-.074-.014-.165.059-.281.183-.172.182-.33.723-.54 1.844-.35 1.88-.58 2.664-.911 3.11-.134.182-.216.412-.18.51.093.258.61.593 1.32.854.735.27.992.288 1.055.074.026-.087-.008-1.546-.076-3.244-.1-2.486-.165-3.293-.387-3.332zm-17.352.126c-.08-.01-.168.048-.271.158-.17.18-.208.652-.262 3.235-.035 1.663-.046 3.066-.024 3.119.126.295 1.552-.252 2.057-.79l.252-.269-.31-.562c-.202-.366-.432-1.184-.657-2.332-.364-1.861-.543-2.527-.785-2.559zM19 12.366c-.372-.014-.798.137-1.455.388-.697.267-1.414.485-1.594.485-.18 0-.733-.176-1.228-.391-1.236-.535-1.728-.606-2.233-.322-.224.126-1.056.917-1.85 1.758-1.205 1.277-1.558 1.573-2.154 1.816-.937.382-1.728.475-2.377.277-.88-.269-1.357.233-.978 1.031.361.762 1.806 1.452 3.719 1.778 2.655.452 4.414.034 6.28-1.496.359-.294.754-.536.882-.536.127 0 .562.272.965.602.956.784 1.422 1.033 2.556 1.373.807.242 1.121.27 2.256.197 2.386-.152 3.982-.665 4.822-1.55.283-.298.39-.527.39-.837 0-.621-.33-.779-1.17-.56-.51.134-.795.14-1.31.022-1.257-.288-1.826-.683-3.292-2.286-1.14-1.245-1.61-1.726-2.23-1.75zm5.842 7.998a1.139 1.139 0 0 0-.176.037c-.888.24-1.811.37-3.152.447l-1.467.084-.035.889c-.033.8-.006.92.27 1.216.283.305.388.33 1.44.325 1.184-.006 1.89-.191 2.325-.608.321-.307.953-1.722.953-2.133 0-.204-.023-.27-.158-.258zM7.01 20.37c-.036.042.032.427.15.856.26.938.816 1.665 1.479 1.931.66.266 2.414.27 2.861.006.357-.21.5-.649.5-1.543 0-.88-.027-.9-1.389-.9a16.123 16.123 0 0 1-2.388-.21c-.632-.118-1.177-.18-1.213-.14z" fill="#fff"/></svg>