<svg xmlns="http://www.w3.org/2000/svg" height="32" width="32" version="1"><rect width="28.203" height="28.203" x="1.898" y="1.898" ry="5.575" fill="#4f4f4f" fill-rule="evenodd"/><path d="M7.505 7.72h10.31v3.988h-7.732v3.437h4.296v2.578h-4.296v6.015H7.505z" fill="#ff2106"/><path d="M20.822 11.906v.002l-.761 1.612a5.302 5.302 0 0 0-1.766.294l-1.246-1.279-2.606 2.145 1.016 1.468a5.302 5.302 0 0 0-.389.811 5.302 5.302 0 0 0-.244.867l-1.724.438.554 3.328 1.776-.145a5.302 5.302 0 0 0 1.14 1.38l-.484 1.72 3.16 1.183.762-1.613a5.302 5.302 0 0 0 1.765-.295l1.246 1.28 2.606-2.145-1.016-1.469A5.302 5.302 0 0 0 25 20.68a5.302 5.302 0 0 0 .244-.87l1.725-.437-.555-3.328-1.775.146a5.302 5.302 0 0 0-1.143-1.38l.486-1.721-3.16-1.184zm-.806 4.125a2.808 2.808 0 0 1 2.808 2.809 2.808 2.808 0 0 1-2.808 2.806 2.808 2.808 0 0 1-2.807-2.806 2.808 2.808 0 0 1 2.807-2.809z" fill="#fff"/></svg>