<svg xmlns="http://www.w3.org/2000/svg" height="32" width="32" version="1"><rect width="28.203" height="28.203" x="1.898" y="1.898" ry="5.575" fill="#3f3f3f" fill-rule="evenodd"/><g fill-rule="evenodd"><path d="M16.174 16.865a2.457 2.457 0 0 0-.174.006 2.457 2.457 0 0 0-.244.03 2.457 2.457 0 0 0-.238.054 2.457 2.457 0 0 0-.235.078 2.457 2.457 0 0 0-.224.1 2.457 2.457 0 0 0-.213.123 2.457 2.457 0 0 0-.2.142 2.457 2.457 0 0 0-.183.163 2.457 2.457 0 0 0-.168.18 2.457 2.457 0 0 0-.149.195 2.457 2.457 0 0 0-.128.209 2.457 2.457 0 0 0-.108.22 2.457 2.457 0 0 0-.084.23 2.457 2.457 0 0 0-.06.239 2.457 2.457 0 0 0-.038.244 2.457 2.457 0 0 0-.011.244 2.457 2.457 0 0 0 .006.174 2.457 2.457 0 0 0 .029.244 2.457 2.457 0 0 0 .055.24 2.457 2.457 0 0 0 .078.233 2.457 2.457 0 0 0 .1.225 2.457 2.457 0 0 0 .12.212 2.457 2.457 0 0 0 .145.2 2.457 2.457 0 0 0 .162.185 2.457 2.457 0 0 0 .18.166 2.457 2.457 0 0 0 .195.149 2.457 2.457 0 0 0 .21.129 2.457 2.457 0 0 0 .22.107 2.457 2.457 0 0 0 .23.084 2.457 2.457 0 0 0 .239.06 2.457 2.457 0 0 0 .242.038 2.457 2.457 0 0 0 .246.011 2.457 2.457 0 0 0 .174-.006 2.457 2.457 0 0 0 .244-.029 2.457 2.457 0 0 0 .24-.055 2.457 2.457 0 0 0 .232-.076 2.457 2.457 0 0 0 .225-.101 2.457 2.457 0 0 0 .213-.121 2.457 2.457 0 0 0 .2-.143 2.457 2.457 0 0 0 .183-.162 2.457 2.457 0 0 0 .168-.18 2.457 2.457 0 0 0 .148-.197 2.457 2.457 0 0 0 .13-.209 2.457 2.457 0 0 0 .107-.22 2.457 2.457 0 0 0 .084-.231 2.457 2.457 0 0 0 .06-.238 2.457 2.457 0 0 0 .037-.243 2.457 2.457 0 0 0 .012-.246 2.457 2.457 0 0 0-.006-.174 2.457 2.457 0 0 0-.03-.244 2.457 2.457 0 0 0-.054-.238 2.457 2.457 0 0 0-.076-.234 2.457 2.457 0 0 0-.102-.223 2.457 2.457 0 0 0-.12-.215 2.457 2.457 0 0 0-.145-.2 2.457 2.457 0 0 0-.162-.183 2.457 2.457 0 0 0-.18-.168 2.457 2.457 0 0 0-.195-.148 2.457 2.457 0 0 0-.21-.129 2.457 2.457 0 0 0-.22-.107 2.457 2.457 0 0 0-.23-.084 2.457 2.457 0 0 0-.239-.06 2.457 2.457 0 0 0-.242-.038 2.457 2.457 0 0 0-.246-.012zM24.527 12.934a1.966 1.966 0 0 0-.138.005 1.966 1.966 0 0 0-.196.024 1.966 1.966 0 0 0-.191.043 1.966 1.966 0 0 0-.186.062 1.966 1.966 0 0 0-.18.08 1.966 1.966 0 0 0-.171.098 1.966 1.966 0 0 0-.158.113 1.966 1.966 0 0 0-.149.131 1.966 1.966 0 0 0-.135.143 1.966 1.966 0 0 0-.117.158 1.966 1.966 0 0 0-.103.166 1.966 1.966 0 0 0-.086.178 1.966 1.966 0 0 0-.067.183 1.966 1.966 0 0 0-.048.192 1.966 1.966 0 0 0-.03.193 1.966 1.966 0 0 0-.01.197 1.966 1.966 0 0 0 .004.14 1.966 1.966 0 0 0 .024.194 1.966 1.966 0 0 0 .043.192 1.966 1.966 0 0 0 .062.185 1.966 1.966 0 0 0 .08.18 1.966 1.966 0 0 0 .098.172 1.966 1.966 0 0 0 .115.158 1.966 1.966 0 0 0 .13.149 1.966 1.966 0 0 0 .144.134 1.966 1.966 0 0 0 .156.117 1.966 1.966 0 0 0 .168.104 1.966 1.966 0 0 0 .176.086 1.966 1.966 0 0 0 .185.066 1.966 1.966 0 0 0 .19.05 1.966 1.966 0 0 0 .195.028 1.966 1.966 0 0 0 .195.01 1.966 1.966 0 0 0 .139-.004 1.966 1.966 0 0 0 .195-.023 1.966 1.966 0 0 0 .192-.045 1.966 1.966 0 0 0 .187-.06 1.966 1.966 0 0 0 .18-.08 1.966 1.966 0 0 0 .17-.098 1.966 1.966 0 0 0 .16-.116 1.966 1.966 0 0 0 .146-.128 1.966 1.966 0 0 0 .135-.145 1.966 1.966 0 0 0 .12-.156 1.966 1.966 0 0 0 .1-.168 1.966 1.966 0 0 0 .087-.176 1.966 1.966 0 0 0 .068-.185 1.966 1.966 0 0 0 .049-.19 1.966 1.966 0 0 0 .03-.195 1.966 1.966 0 0 0 .01-.196 1.966 1.966 0 0 0-.007-.138 1.966 1.966 0 0 0-.023-.196 1.966 1.966 0 0 0-.043-.191 1.966 1.966 0 0 0-.063-.187 1.966 1.966 0 0 0-.08-.18 1.966 1.966 0 0 0-.097-.17 1.966 1.966 0 0 0-.114-.16 1.966 1.966 0 0 0-.13-.147 1.966 1.966 0 0 0-.143-.134 1.966 1.966 0 0 0-.158-.12 1.966 1.966 0 0 0-.166-.101 1.966 1.966 0 0 0-.178-.086 1.966 1.966 0 0 0-.184-.068 1.966 1.966 0 0 0-.191-.05 1.966 1.966 0 0 0-.193-.029 1.966 1.966 0 0 0-.198-.01z" fill="#3f3f3f"/><path d="M25.51 9.986a3.931 3.931 0 0 0-.278.01 3.931 3.931 0 0 0-.39.047 3.931 3.931 0 0 0-.383.086 3.931 3.931 0 0 0-.373.125 3.931 3.931 0 0 0-.36.16 3.931 3.931 0 0 0-.34.195 3.931 3.931 0 0 0-.32.229 3.931 3.931 0 0 0-.295.26 3.931 3.931 0 0 0-.267.287 3.931 3.931 0 0 0-.238.312 3.931 3.931 0 0 0-.205.336 3.931 3.931 0 0 0-.17.354 3.931 3.931 0 0 0-.135.369 3.931 3.931 0 0 0-.098.38 3.931 3.931 0 0 0-.058.39 3.931 3.931 0 0 0-.02.392 3.931 3.931 0 0 0 .01.277 3.931 3.931 0 0 0 .047.391 3.931 3.931 0 0 0 .086.383 3.931 3.931 0 0 0 .123.373 3.931 3.931 0 0 0 .162.36 3.931 3.931 0 0 0 .195.34 3.931 3.931 0 0 0 .229.32 3.931 3.931 0 0 0 .26.294 3.931 3.931 0 0 0 .287.268 3.931 3.931 0 0 0 .312.238 3.931 3.931 0 0 0 .334.205 3.931 3.931 0 0 0 .355.17 3.931 3.931 0 0 0 .37.135 3.931 3.931 0 0 0 .38.098 3.931 3.931 0 0 0 .387.058 3.931 3.931 0 0 0 .393.02 3.931 3.931 0 0 0 .28-.01 3.931 3.931 0 0 0 .39-.047 3.931 3.931 0 0 0 .383-.086 3.931 3.931 0 0 0 .373-.123 3.931 3.931 0 0 0 .357-.162 3.931 3.931 0 0 0 .342-.195 3.931 3.931 0 0 0 .32-.229 3.931 3.931 0 0 0 .295-.26 3.931 3.931 0 0 0 .268-.287 3.931 3.931 0 0 0 .238-.312 3.931 3.931 0 0 0 .205-.334 3.931 3.931 0 0 0 .17-.356 3.931 3.931 0 0 0 .135-.369 3.931 3.931 0 0 0 .097-.38 3.931 3.931 0 0 0 .059-.387 3.931 3.931 0 0 0 .02-.393 3.931 3.931 0 0 0-.01-.28 3.931 3.931 0 0 0-.047-.39 3.931 3.931 0 0 0-.086-.383 3.931 3.931 0 0 0-.125-.373 3.931 3.931 0 0 0-.16-.357 3.931 3.931 0 0 0-.196-.342 3.931 3.931 0 0 0-.228-.32 3.931 3.931 0 0 0-.26-.295 3.931 3.931 0 0 0-.287-.268 3.931 3.931 0 0 0-.313-.238 3.931 3.931 0 0 0-.335-.205 3.931 3.931 0 0 0-.354-.17 3.931 3.931 0 0 0-.37-.135 3.931 3.931 0 0 0-.38-.098 3.931 3.931 0 0 0-.389-.058 3.931 3.931 0 0 0-.392-.02zm-.983 2.948a1.966 1.966 0 0 1 .198.01 1.966 1.966 0 0 1 .193.029 1.966 1.966 0 0 1 .191.049 1.966 1.966 0 0 1 .184.068 1.966 1.966 0 0 1 .178.086 1.966 1.966 0 0 1 .166.101 1.966 1.966 0 0 1 .158.12 1.966 1.966 0 0 1 .142.134 1.966 1.966 0 0 1 .131.147 1.966 1.966 0 0 1 .114.16 1.966 1.966 0 0 1 .097.17 1.966 1.966 0 0 1 .08.18 1.966 1.966 0 0 1 .063.187 1.966 1.966 0 0 1 .043.191 1.966 1.966 0 0 1 .023.196 1.966 1.966 0 0 1 .006.138 1.966 1.966 0 0 1-.01.196 1.966 1.966 0 0 1-.029.195 1.966 1.966 0 0 1-.049.19 1.966 1.966 0 0 1-.068.185 1.966 1.966 0 0 1-.086.176 1.966 1.966 0 0 1-.102.168 1.966 1.966 0 0 1-.119.156 1.966 1.966 0 0 1-.135.145 1.966 1.966 0 0 1-.146.128 1.966 1.966 0 0 1-.16.116 1.966 1.966 0 0 1-.17.097 1.966 1.966 0 0 1-.18.08 1.966 1.966 0 0 1-.187.061 1.966 1.966 0 0 1-.192.045 1.966 1.966 0 0 1-.195.023 1.966 1.966 0 0 1-.139.004 1.966 1.966 0 0 1-.195-.01 1.966 1.966 0 0 1-.195-.029 1.966 1.966 0 0 1-.19-.049 1.966 1.966 0 0 1-.185-.066 1.966 1.966 0 0 1-.176-.086 1.966 1.966 0 0 1-.168-.104 1.966 1.966 0 0 1-.156-.117 1.966 1.966 0 0 1-.145-.134 1.966 1.966 0 0 1-.129-.149 1.966 1.966 0 0 1-.115-.158 1.966 1.966 0 0 1-.098-.172 1.966 1.966 0 0 1-.08-.18 1.966 1.966 0 0 1-.062-.185 1.966 1.966 0 0 1-.043-.192 1.966 1.966 0 0 1-.024-.195 1.966 1.966 0 0 1-.004-.139 1.966 1.966 0 0 1 .01-.197 1.966 1.966 0 0 1 .03-.193 1.966 1.966 0 0 1 .048-.192 1.966 1.966 0 0 1 .067-.183 1.966 1.966 0 0 1 .086-.178 1.966 1.966 0 0 1 .103-.166 1.966 1.966 0 0 1 .117-.158 1.966 1.966 0 0 1 .135-.143 1.966 1.966 0 0 1 .149-.13 1.966 1.966 0 0 1 .158-.114 1.966 1.966 0 0 1 .172-.098 1.966 1.966 0 0 1 .18-.08 1.966 1.966 0 0 1 .185-.062 1.966 1.966 0 0 1 .191-.043 1.966 1.966 0 0 1 .196-.024 1.966 1.966 0 0 1 .138-.005z" fill="#fff"/><path d="M21.602 14.291a5.405 5.405 0 0 0-.211-.295 5.405 5.405 0 0 0-.356-.404 5.405 5.405 0 0 0-.396-.37 5.405 5.405 0 0 0-.43-.326 5.405 5.405 0 0 0-.461-.283 5.405 5.405 0 0 0-.486-.234 5.405 5.405 0 0 0-.508-.186 5.405 5.405 0 0 0-.524-.134 5.405 5.405 0 0 0-.533-.08 5.405 5.405 0 0 0-.54-.028 5.405 5.405 0 0 0-.384.014 5.405 5.405 0 0 0-.535.064 5.405 5.405 0 0 0-.527.12 5.405 5.405 0 0 0-.514.17 5.405 5.405 0 0 0-.492.22 5.405 5.405 0 0 0-.469.27 5.405 5.405 0 0 0-.44.314 5.405 5.405 0 0 0-.405.356 5.405 5.405 0 0 0-.37.396 5.405 5.405 0 0 0-.326.43 5.405 5.405 0 0 0-.283.46 5.405 5.405 0 0 0-.234.487 5.405 5.405 0 0 0-.186.508 5.405 5.405 0 0 0-.133.523 5.405 5.405 0 0 0-.082.533 5.405 5.405 0 0 0-.025.541 5.405 5.405 0 0 0 .014.383 5.405 5.405 0 0 0 .064.535 5.405 5.405 0 0 0 .12.528 5.405 5.405 0 0 0 .17.513 5.405 5.405 0 0 0 .22.493 5.405 5.405 0 0 0 .267.468 5.405 5.405 0 0 0 .315.44 5.405 5.405 0 0 0 .357.406 5.405 5.405 0 0 0 .395.37 5.405 5.405 0 0 0 .431.325 5.405 5.405 0 0 0 .46.284 5.405 5.405 0 0 0 .486.234 5.405 5.405 0 0 0 .508.185 5.405 5.405 0 0 0 .523.133 5.405 5.405 0 0 0 .535.082 5.405 5.405 0 0 0 .54.026 5.405 5.405 0 0 0 .382-.014 5.405 5.405 0 0 0 .537-.064 5.405 5.405 0 0 0 .527-.12 5.405 5.405 0 0 0 .512-.17 5.405 5.405 0 0 0 .494-.22 5.405 5.405 0 0 0 .47-.268 5.405 5.405 0 0 0 .439-.314 5.405 5.405 0 0 0 .404-.358 5.405 5.405 0 0 0 .369-.394 5.405 5.405 0 0 0 .326-.432 5.405 5.405 0 0 0 .283-.459 5.405 5.405 0 0 0 .235-.486 5.405 5.405 0 0 0 .185-.508 5.405 5.405 0 0 0 .135-.523 5.405 5.405 0 0 0 .08-.536 5.405 5.405 0 0 0 .027-.539 5.405 5.405 0 0 0-.013-.382 5.405 5.405 0 0 0-.065-.538 5.405 5.405 0 0 0-.006-.021 3.931 3.931 0 0 1-.046-.055 3.931 3.931 0 0 1-.229-.32 3.931 3.931 0 0 1-.195-.34 3.931 3.931 0 0 1-.162-.36 3.931 3.931 0 0 1-.123-.372 3.931 3.931 0 0 1-.086-.383 3.931 3.931 0 0 1-.035-.295zm-5.428 2.574a2.457 2.457 0 0 1 .246.012 2.457 2.457 0 0 1 .242.037 2.457 2.457 0 0 1 .238.06 2.457 2.457 0 0 1 .23.085 2.457 2.457 0 0 1 .222.107 2.457 2.457 0 0 1 .209.129 2.457 2.457 0 0 1 .195.148 2.457 2.457 0 0 1 .18.168 2.457 2.457 0 0 1 .162.184 2.457 2.457 0 0 1 .144.2 2.457 2.457 0 0 1 .121.214 2.457 2.457 0 0 1 .102.223 2.457 2.457 0 0 1 .076.234 2.457 2.457 0 0 1 .055.238 2.457 2.457 0 0 1 .029.244 2.457 2.457 0 0 1 .006.174 2.457 2.457 0 0 1-.012.246 2.457 2.457 0 0 1-.037.243 2.457 2.457 0 0 1-.06.238 2.457 2.457 0 0 1-.084.23 2.457 2.457 0 0 1-.108.221 2.457 2.457 0 0 1-.129.209 2.457 2.457 0 0 1-.148.197 2.457 2.457 0 0 1-.168.18 2.457 2.457 0 0 1-.184.162 2.457 2.457 0 0 1-.199.143 2.457 2.457 0 0 1-.213.12 2.457 2.457 0 0 1-.225.102 2.457 2.457 0 0 1-.232.076 2.457 2.457 0 0 1-.24.055 2.457 2.457 0 0 1-.244.03 2.457 2.457 0 0 1-.174.005 2.457 2.457 0 0 1-.246-.011 2.457 2.457 0 0 1-.242-.037 2.457 2.457 0 0 1-.239-.061 2.457 2.457 0 0 1-.23-.084 2.457 2.457 0 0 1-.22-.107 2.457 2.457 0 0 1-.21-.13 2.457 2.457 0 0 1-.195-.148 2.457 2.457 0 0 1-.18-.166 2.457 2.457 0 0 1-.162-.185 2.457 2.457 0 0 1-.145-.2 2.457 2.457 0 0 1-.12-.212 2.457 2.457 0 0 1-.1-.225 2.457 2.457 0 0 1-.078-.232 2.457 2.457 0 0 1-.055-.24 2.457 2.457 0 0 1-.03-.245 2.457 2.457 0 0 1-.005-.174 2.457 2.457 0 0 1 .011-.244 2.457 2.457 0 0 1 .038-.244 2.457 2.457 0 0 1 .06-.238 2.457 2.457 0 0 1 .084-.23 2.457 2.457 0 0 1 .108-.221 2.457 2.457 0 0 1 .128-.21 2.457 2.457 0 0 1 .149-.195 2.457 2.457 0 0 1 .168-.18 2.457 2.457 0 0 1 .183-.162 2.457 2.457 0 0 1 .2-.142 2.457 2.457 0 0 1 .213-.123 2.457 2.457 0 0 1 .224-.1 2.457 2.457 0 0 1 .235-.078 2.457 2.457 0 0 1 .238-.055 2.457 2.457 0 0 1 .244-.029 2.457 2.457 0 0 1 .174-.006z" fill="#fff"/><path d="M3.213 28.006c.312.135.61.375.92.46.47.132.93.201 1.369.192a2.983 2.983 0 0 0 1.234-.277 9.72 9.72 0 0 0 2.096-1.365 9.802 9.802 0 0 0 1.637-1.78c.452-.636.8-1.304 1.02-1.965.218-.66.307-1.314.24-1.923-.068-.61-.284-1.118-.62-1.514-.335-.396-.79-.68-1.33-.842-.54-.162-1.167-.205-1.847-.115-.68.09-1.415.312-2.172.674-.757.361-1.637.594-2.528.78a48.08 48.08 0 0 1-1.334.251v3.943c0 1.341.532 2.52 1.315 3.48z" fill="#ccc"/><path d="M13.717 23.746c0 .724.44 1.706 1.152 2.508.356.4.778.756 1.248 1.012.47.255.989.41 1.531.41 1.086 0 2.068-.327 2.78-.655.711-.327 1.152-.656 1.152-.656s-.584.049-1.45-.01c-.864-.058-2.01-.221-3.138-.644-1.192-.447-3.275-1.965-3.275-1.965zM11.012 29.371c-1.317-.26-2.53-.77-3.68-1.377l-.016.01c.348.183.67.407 1.036.56.823.348 1.688.617 2.585.8.024.004.05.002.075.007z" fill="#3f3f3f"/><path d="M13.45 21.281a20.642 20.655 0 0 0-.128.217 20.642 20.655 0 0 0-.861 1.877 20.642 20.655 0 0 0-.672 1.953 20.642 20.655 0 0 0-.47 2.01 20.642 20.655 0 0 0-.268 2.037c.863.168 1.752.268 2.666.268.953 0 1.882-.097 2.78-.28a13.679 13.679 0 0 0 6.958-3.742 13.761 13.761 0 0 0 2.943-4.373c.348-.824.617-1.689.8-2.586.082-.407.08-.84.126-1.26a3.931 3.931 0 0 1-.031.018 3.931 3.931 0 0 1-.357.162 3.931 3.931 0 0 1-.374.123 3.931 3.931 0 0 1-.382.086 3.931 3.931 0 0 1-.391.047 3.931 3.931 0 0 1-.28.01 3.931 3.931 0 0 1-.392-.02 3.931 3.931 0 0 1-.387-.058 3.931 3.931 0 0 1-.38-.098 3.931 3.931 0 0 1-.37-.135 3.931 3.931 0 0 1-.355-.17 3.931 3.931 0 0 1-.334-.205 3.931 3.931 0 0 1-.313-.238 3.931 3.931 0 0 1-.287-.268 3.931 3.931 0 0 1-.213-.24 5.405 5.405 0 0 1 .006.022 5.405 5.405 0 0 1 .065.537 5.405 5.405 0 0 1 .014.382 5.405 5.405 0 0 1-.028.54 5.405 5.405 0 0 1-.08.535 5.405 5.405 0 0 1-.135.523 5.405 5.405 0 0 1-.185.508 5.405 5.405 0 0 1-.235.486 5.405 5.405 0 0 1-.283.46 5.405 5.405 0 0 1-.326.43 5.405 5.405 0 0 1-.37.395 5.405 5.405 0 0 1-.403.358 5.405 5.405 0 0 1-.44.314 5.405 5.405 0 0 1-.469.268 5.405 5.405 0 0 1-.494.22 5.405 5.405 0 0 1-.511.17 5.405 5.405 0 0 1-.528.12 5.405 5.405 0 0 1-.537.064 5.405 5.405 0 0 1-.383.014 5.405 5.405 0 0 1-.539-.026 5.405 5.405 0 0 1-.535-.082 5.405 5.405 0 0 1-.523-.132 5.405 5.405 0 0 1-.508-.186 5.405 5.405 0 0 1-.487-.234 5.405 5.405 0 0 1-.459-.284 5.405 5.405 0 0 1-.431-.326 5.405 5.405 0 0 1-.225-.21zm.267 2.465s2.083 1.518 3.275 1.965c1.127.423 2.274.586 3.139.644.865.059 1.45.01 1.45.01s-.442.329-1.153.657c-.712.327-1.694.654-2.78.654-.542 0-1.06-.155-1.53-.41a4.681 4.681 0 0 1-1.249-1.012c-.711-.802-1.152-1.784-1.152-2.508z" fill="#fead38"/><path d="M21.705 12.951a20.642 20.655 0 0 0-.826.494 5.405 5.405 0 0 1 .156.147 5.405 5.405 0 0 1 .356.404 5.405 5.405 0 0 1 .21.295 3.931 3.931 0 0 1-.011-.096 3.931 3.931 0 0 1-.01-.277 3.931 3.931 0 0 1 .02-.393 3.931 3.931 0 0 1 .058-.388 3.931 3.931 0 0 1 .047-.186zM25.71 9.248c.142.255.263.522.388.787a3.931 3.931 0 0 1 .043.006c-.129-.274-.292-.525-.43-.793zM24.262 7.121c.375.452.743.909 1.058 1.406-.068-.112-.114-.239-.187-.347-.257-.38-.579-.707-.871-1.059z" fill="#3f3f3f"/><path d="M23.828 6.598a20.642 20.655 0 0 0-1.98.455 20.642 20.655 0 0 0-1.953.662 20.642 20.655 0 0 0-1.88.853 20.642 20.655 0 0 0-1.785 1.037 20.642 20.655 0 0 0-1.671 1.211 20.642 20.655 0 0 0-1.541 1.371 20.642 20.655 0 0 0-1.399 1.518 20.642 20.655 0 0 0-1.24 1.65 20.642 20.655 0 0 0-1.068 1.766 20.642 20.655 0 0 0-.852 1.79c.462-.012.934-.035 1.32.081.54.163.995.446 1.33.842.336.396.552.904.62 1.514.067.61-.022 1.263-.24 1.923a7.532 7.532 0 0 1-1.02 1.965 9.802 9.802 0 0 1-1.637 1.78c-.452.384-.979.68-1.5.978 1.15.607 2.363 1.116 3.68 1.377.012.003.026.001.039.004a20.642 20.655 0 0 1 .267-2.037 20.642 20.655 0 0 1 .471-2.01 20.642 20.655 0 0 1 .672-1.953 20.642 20.655 0 0 1 .861-1.877 20.642 20.655 0 0 1 .127-.217 5.405 5.405 0 0 1-.17-.158 5.405 5.405 0 0 1-.357-.406 5.405 5.405 0 0 1-.315-.44 5.405 5.405 0 0 1-.267-.468 5.405 5.405 0 0 1-.22-.493 5.405 5.405 0 0 1-.17-.513 5.405 5.405 0 0 1-.12-.528 5.405 5.405 0 0 1-.064-.535 5.405 5.405 0 0 1-.014-.383 5.405 5.405 0 0 1 .025-.54 5.405 5.405 0 0 1 .082-.534 5.405 5.405 0 0 1 .133-.523 5.405 5.405 0 0 1 .186-.508 5.405 5.405 0 0 1 .234-.486 5.405 5.405 0 0 1 .283-.461 5.405 5.405 0 0 1 .326-.43 5.405 5.405 0 0 1 .37-.396 5.405 5.405 0 0 1 .406-.356 5.405 5.405 0 0 1 .44-.314 5.405 5.405 0 0 1 .468-.27 5.405 5.405 0 0 1 .492-.22 5.405 5.405 0 0 1 .514-.17 5.405 5.405 0 0 1 .527-.12 5.405 5.405 0 0 1 .535-.064 5.405 5.405 0 0 1 .383-.014 5.405 5.405 0 0 1 .541.028 5.405 5.405 0 0 1 .533.08 5.405 5.405 0 0 1 .524.134 5.405 5.405 0 0 1 .508.186 5.405 5.405 0 0 1 .486.234 5.405 5.405 0 0 1 .461.283 5.405 5.405 0 0 1 .43.327 5.405 5.405 0 0 1 .24.222 20.642 20.655 0 0 1 .826-.494 3.931 3.931 0 0 1 .05-.195 3.931 3.931 0 0 1 .136-.37 3.931 3.931 0 0 1 .17-.353 3.931 3.931 0 0 1 .205-.336 3.931 3.931 0 0 1 .238-.312 3.931 3.931 0 0 1 .267-.287 3.931 3.931 0 0 1 .295-.26 3.931 3.931 0 0 1 .32-.229 3.931 3.931 0 0 1 .34-.195 3.931 3.931 0 0 1 .36-.16 3.931 3.931 0 0 1 .373-.125 3.931 3.931 0 0 1 .383-.086 3.931 3.931 0 0 1 .39-.047 3.931 3.931 0 0 1 .278-.01 3.931 3.931 0 0 1 .392.02 3.931 3.931 0 0 1 .196.03c-.125-.266-.246-.533-.387-.788-.126-.243-.25-.488-.39-.72-.316-.498-.684-.955-1.06-1.407-.144-.174-.28-.356-.433-.523z" fill="#3f3f3f"/><path d="M5.588 19.604c.052-.024.12-.029.172-.053.757-.362 1.491-.584 2.172-.674.194-.026.342.038.527.033a20.642 20.655 0 0 1 .852-1.789 20.642 20.655 0 0 1 1.068-1.766 20.642 20.655 0 0 1 1.24-1.65 20.642 20.655 0 0 1 1.399-1.518 20.642 20.655 0 0 1 1.54-1.37 20.642 20.655 0 0 1 1.672-1.212 20.642 20.655 0 0 1 1.786-1.037 20.642 20.655 0 0 1 1.879-.853 20.642 20.655 0 0 1 1.953-.662 20.642 20.655 0 0 1 1.98-.455c-.132-.145-.235-.315-.373-.453a13.762 13.762 0 0 0-1.982-1.635 21.003 21.016 0 0 0-1.225.273 21.003 21.016 0 0 0-1.992.662 21.003 21.016 0 0 0-1.918.856 21.003 21.016 0 0 0-1.822 1.045 21.003 21.016 0 0 0-1.707 1.22 21.003 21.016 0 0 0-1.58 1.385 21.003 21.016 0 0 0-1.432 1.535 21.003 21.016 0 0 0-1.272 1.672 21.003 21.016 0 0 0-1.1 1.79 21.003 21.016 0 0 0-.913 1.892 21.003 21.016 0 0 0-.721 1.972 21.003 21.016 0 0 0-.203.792zM11.777 2.318c-.276.04-.568.03-.84.084a13.679 13.679 0 0 0-6.959 3.743A13.762 13.762 0 0 0 2.301 8.18c-.157.233-.26.501-.403.744v4.865a21.003 21.016 0 0 1 .463-1.248 21.003 21.016 0 0 1 .926-1.887 21.003 21.016 0 0 1 1.108-1.783 21.003 21.016 0 0 1 1.28-1.664 21.003 21.016 0 0 1 1.44-1.53 21.003 21.016 0 0 1 1.586-1.376 21.003 21.016 0 0 1 1.715-1.211 21.003 21.016 0 0 1 1.361-.772z" fill="#fead38"/><path d="M11.777 2.318a21.003 21.016 0 0 0-1.361.772A21.003 21.016 0 0 0 8.701 4.3a21.003 21.016 0 0 0-1.586 1.378 21.003 21.016 0 0 0-1.44 1.529 21.003 21.016 0 0 0-1.28 1.664 21.003 21.016 0 0 0-1.108 1.783 21.003 21.016 0 0 0-.926 1.887 21.003 21.016 0 0 0-.463 1.248v6.793c.45-.08.875-.157 1.334-.252.83-.172 1.635-.405 2.356-.726a21.003 21.016 0 0 1 .203-.792 21.003 21.016 0 0 1 .72-1.972 21.003 21.016 0 0 1 .915-1.893 21.003 21.016 0 0 1 1.1-1.789 21.003 21.016 0 0 1 1.27-1.672 21.003 21.016 0 0 1 1.432-1.535 21.003 21.016 0 0 1 1.58-1.385 21.003 21.016 0 0 1 1.708-1.22A21.003 21.016 0 0 1 16.338 6.3a21.003 21.016 0 0 1 1.918-.856 21.003 21.016 0 0 1 1.992-.662 21.003 21.016 0 0 1 1.225-.273c-.02-.013-.034-.03-.053-.043a13.694 13.694 0 0 0-4.924-2.065 13.918 13.918 0 0 0-2.78-.279c-.664 0-1.3.105-1.939.195z" fill="#3f3f3f"/><path d="M14.117 2.164c-.066-.002-.121-.034-.187-.035a20.642 20.655 0 0 0-.03.012c.074 0 .143.02.217.023zM18.629 3.06c-.066-.025-.116-.077-.182-.101-.115-.042-.252-.03-.369-.068.182.06.372.101.55.17zM22.238 5.143a20.642 20.655 0 0 1 .07-.012c-.077-.062-.182-.086-.261-.147.066.05.126.107.191.159z" fill="#3f3f3f"/><path d="M7.475 1.898a5.563 5.563 0 0 0-5.577 5.575v1.45c.143-.242.246-.51.403-.743A13.762 13.762 0 0 1 8.35 3.2a13.679 13.679 0 0 1 2.586-.799c.898-.182 1.827-.279 2.78-.279.063 0 .12.017.183.018a20.642 20.655 0 0 1 .03-.012c.066 0 .121.033.187.035.81.024 1.611.082 2.38.238.548.112 1.058.314 1.581.489.117.039.254.026.37.068.065.024.115.076.18.102.148.056.31.08.454.14.824.347 1.606.772 2.338 1.266.225.152.411.352.627.517.08.06.184.085.262.147a20.642 20.655 0 0 0-.07.012c.412.327.845.63 1.216 1.002a13.762 13.762 0 0 1 1.678 2.035c.393.582.706 1.219 1.008 1.861a3.931 3.931 0 0 1 .15.023 3.931 3.931 0 0 1 .38.098 3.931 3.931 0 0 1 .37.135 3.931 3.931 0 0 1 .354.17 3.931 3.931 0 0 1 .335.205 3.931 3.931 0 0 1 .313.238 3.931 3.931 0 0 1 .287.268 3.931 3.931 0 0 1 .26.295 3.931 3.931 0 0 1 .228.32 3.931 3.931 0 0 1 .196.342 3.931 3.931 0 0 1 .16.357 3.931 3.931 0 0 1 .125.373 3.931 3.931 0 0 1 .086.383 3.931 3.931 0 0 1 .047.39 3.931 3.931 0 0 1 .01.28 3.931 3.931 0 0 1-.02.393 3.931 3.931 0 0 1-.059.386 3.931 3.931 0 0 1-.097.381 3.931 3.931 0 0 1-.135.37 3.931 3.931 0 0 1-.17.355 3.931 3.931 0 0 1-.205.334 3.931 3.931 0 0 1-.238.312 3.931 3.931 0 0 1-.268.287 3.931 3.931 0 0 1-.295.26 3.931 3.931 0 0 1-.32.229 3.931 3.931 0 0 1-.31.177c-.047.42-.045.853-.128 1.26a13.679 13.679 0 0 1-3.742 6.96 13.761 13.761 0 0 1-4.373 2.942c-.824.348-1.689.617-2.586.8a13.918 13.918 0 0 1-8.144-.8c-.365-.153-.688-.377-1.036-.56-.2.115-.37.277-.58.377-.378.18-.795.268-1.234.277-.439.01-.9-.06-1.37-.191-.308-.086-.607-.326-.92-.461 1.022 1.251 2.515 2.096 4.263 2.096h17.052a5.563 5.563 0 0 0 5.575-5.577V7.473a5.561 5.561 0 0 0-5.575-5.575z" fill="#3f3f3f"/></g></svg>