<svg xmlns="http://www.w3.org/2000/svg" height="32" width="32" version="1"><defs><clipPath id="a" clipPathUnits="userSpaceOnUse"><circle cx="286" cy="26" r="10" fill="url(#linearGradient4190)"/></clipPath></defs><rect width="28.203" height="28.203" x="1.898" y="1.898" ry="5.575" fill="#cba606" fill-rule="evenodd"/><circle cx="16" cy="16" r="13.248" fill="#cba606"/><circle r="11.355" cy="16" cx="16" fill="#e4d487"/><path d="M14.927 4.706a11.355 11.355 0 0 0-4.109 1.192c.057.181-.01.386-.219.567-.141.123-.257.314-.257.425 0 .34.308.863.554.94.326.1.217.449-.204.641-.194.09-.433.346-.53.57-.099.225-.243.447-.321.493-.078.046-.142.222-.142.39 0 .236.108.35.461.491.254.102.557.176.674.165.677-.064.724.33.133 1.1-.314.409-.465.511-.68.46-.199-.048-.308.008-.398.206-.096.21-.253.28-.673.31-.414.028-.6.112-.754.339-.114.165-.277.299-.364.299-.087 0-.292.111-.455.246-.332.276-.461.304-.578.124-.153-.239-.485-.118-.979.354-.436.418-.49.53-.423.893.117.646.467 1.218.867 1.418.349.175.355.193.144.417-.122.129-.33.267-.464.307-.384.117-.168.264.518.351.702.09.92.344.592.69-.182.194-.172.23.121.414.574.36 1.03.14.492-.237-.346-.242-.104-.341.403-.165.405.14.485.132.724-.076.491-.425 1.025.204.576.679-.286.302-.2.667.17.717.164.023.504.175.756.339.252.163.527.298.61.298.083 0 .317.166.52.37.412.411.64.463.757.173.14-.348.084-.528-.293-.939-.299-.327-.786-1.196-.786-1.404 0-.128.495-.02.772.17.173.119.454.271.623.34.181.074.368.304.454.555.133.394.186.428.659.428h.513l.078.922c.093 1.11.182 1.335.563 1.427.28.067.58.502.58.841 0 .09-.202.312-.448.492-.306.223-.438.413-.417.598.025.232-.027.269-.356.244-.212-.016-.58.059-.816.166-.28.126-.583.166-.867.115-.328-.059-.438-.036-.438.092 0 .094-.115.27-.255.392-.345.299-.202.457.328.362.33-.06.458-.033.514.109.121.301-.185.733-.47.662-.18-.046-.267.016-.323.23a.526.526 0 0 1-.097.193 11.355 11.355 0 0 0 1.797.531.753.753 0 0 0-.185-.251c-.292-.207-.096-.744.306-.84.41-.1.346-.366-.1-.417-.392-.044-.808-.44-.677-.643.088-.136.462-.116 1.219.064.342.08.575-.082 1.367-.949.458-.502.81-.71 1.197-.71.148 0 .674-.136 1.17-.302.937-.314 1.304-.303 1.269.04-.072.712.387.688 1.133-.058.311-.31.596-.536.633-.5.142.137-.114.803-.414 1.072-.38.342-.399.558-.064.729.183.094.26.284.29.712l.038.583h.475c.166 0 .304.023.415.066a11.355 11.355 0 0 0 5.502-9.372c-.174-.371-.161-.596 0-.848a11.355 11.355 0 0 0-.051-.637 3.515 3.515 0 0 0-.33-.004c-.573.024-1.063-.202-1.063-.49 0-.06-.203-.31-.451-.555-.282-.277-.426-.522-.384-.65.038-.115-.045-.302-.191-.429-.143-.123-.26-.322-.26-.441 0-.19-.12-.214-.995-.193l-.996.024.017.982c.03 1.719.285 2.165 1.075 1.877.362-.132 1.25-.032 1.503.168.091.073.224.336.294.586.07.25.33.682.579.96.503.562.542.782.254 1.443-.252.577-.523.51-.47-.115l.04-.466-.426.08c-.235.045-.53.218-.663.39-.188.245-.276.28-.418.169a.532.532 0 0 1-.178-.366c0-.123-.122-.26-.27-.304-.148-.045-.35-.268-.45-.497-.16-.365-.155-.477.03-.921.188-.45.19-.525.017-.691-.16-.152-.242-.158-.45-.032-.21.125-.31.116-.56-.051a1.372 1.372 0 0 0-.646-.205c-.383 0-.499-.186-.499-.802 0-.57-.34-.777-1.148-.702-.56.052-.685.015-1.137-.334-.28-.215-.722-.733-.983-1.152a31.665 31.665 0 0 0-.625-.973c-.118-.167-.089-.328.142-.784l.292-.573-.616.083c-1.097.149-1.32.29-.847.544.183.098.191.148.05.313-.094.106-.137.276-.097.377.04.1-.01.336-.113.524-.103.188-.189.452-.192.588-.01.423-.735.76-1.543.715-1.223-.068-1.322-.049-1.756.354-.543.505-.613.74-.36 1.207.245.454.68.635 1.432.598.674-.034.75.026.596.471-.131.378-.57.524-.869.287-.23-.182-1.02-.041-1.263.226-.101.111-.252.404-.335.65-.141.423-.183.449-.819.51-.635.062-.696.042-1.152-.379-.51-.469-.596-.828-.35-1.446.108-.273.189-.318.48-.265.575.105.802-.094.802-.71 0-.297-.057-.576-.128-.618-.07-.042-.129-.2-.129-.352 0-.151-.072-.347-.16-.432-.13-.125-.11-.192.095-.338.14-.099.372-.166.514-.149.142.017.533-.044.87-.136.486-.13.63-.23.695-.486.125-.486.43-.876.685-.876.404 0 .413-.95.02-2.33-.058-.204-.217-.334-.499-.403-.228-.057-.476-.213-.551-.347-.074-.134-.211-.243-.304-.243-.092 0-.273-.11-.401-.246a.933.933 0 0 0-.598-.246c-.48 0-.488-.33-.012-.504.502-.185 1.285.057 1.474.454.256.539.54.314.632-.5.113-1.007.46-1.296 1.556-1.296h.787l-.345-.345a1.373 1.373 0 0 1-.259-.368zm4.083.357c-.022.02-.044.036-.066.058-.263.27-.387.308-.794.246-.71-.109-.62.177.168.523.425.187.699.4.792.615.448 1.04.757 1.6.912 1.657.313.115.5-.116.57-.707.08-.679.31-.823.722-.452.16.144.384.262.497.262.352 0 .613.142.613.333 0 .1.119.343.265.54.215.289.361.358.763.358.493 0 .796.092 1.414.434.01.005.019.006.029.012a11.355 11.355 0 0 0-5.885-3.88zM4.647 15.95a11.355 11.355 0 0 0-.002.05 11.355 11.355 0 0 0 .221 2.18c.412.168.526.102.568-.281.022-.198.126-.422.23-.5.163-.12.134-.181-.199-.409-.215-.147-.427-.403-.471-.57-.042-.16-.185-.337-.347-.47zm3.574 3.754c-.106-.01-.234.046-.376.182-.3.287-.255.865.085 1.093.39.262.54.186.59-.297.061-.595-.066-.954-.299-.978zm1.927 1.717c-.116.004-.244.087-.371.262-.136.185-.173.424-.121.786.064.447.036.542-.197.662-.3.153-.365.61-.119.845.244.234.477.172.561-.148.12-.456.788-.51 1.244-.1.195.175.354.264.354.197s-.203-.31-.45-.54c-.38-.352-.45-.502-.45-.955 0-.64-.195-1.017-.451-1.01zm-3.165 1.466a11.355 11.355 0 0 0 .263.331 2.025 2.025 0 0 0-.263-.331zm3.827 1.743c-.057.02-.082.092-.082.218 0 .129-.081.263-.181.3-.133.048-.164.202-.113.57.01.068.013.123.016.18a11.355 11.355 0 0 0 .472.243 1.911 1.911 0 0 1 .131-.717c.174-.492.18-.615.039-.701-.133-.08-.224-.113-.282-.093z" fill="#897f51"/><path d="M29.226 15.373c-.697.38-6.551 3.466-13.226 3.466-6.66 0-12.497-3.07-13.217-3.46a13.248 13.248 0 0 0-.031.621 13.248 13.248 0 0 0 .285 2.663c2.576 1.175 7.462 3.015 12.963 3.015 5.512 0 10.406-1.848 12.978-3.022a13.248 13.248 0 0 0 .27-2.656 13.248 13.248 0 0 0-.022-.627z" fill="#cba606"/><g transform="matrix(.75 0 0 .75 4.586 5.478)" stroke-width="1.333"><circle r="8" cy="23" cx="24" fill="#4f4f4f" fill-rule="evenodd"/><path d="M23 19l-.088 1.054a3.143 3.143 0 0 0-.919.53l-.957-.45-1 1.732.87.604a3.143 3.143 0 0 0-.049.53 3.143 3.143 0 0 0 .046.532l-.867.602 1 1.732.955-.45a3.143 3.143 0 0 0 .92.528L23 27h2l.088-1.054a3.143 3.143 0 0 0 .919-.53l.957.45 1-1.732-.87-.604a3.143 3.143 0 0 0 .049-.53 3.143 3.143 0 0 0-.046-.532l.867-.602-1-1.732-.955.45a3.143 3.143 0 0 0-.921-.528L25 19h-2zm1 2.857A1.143 1.143 0 0 1 25.143 23 1.143 1.143 0 0 1 24 24.143 1.143 1.143 0 0 1 22.857 23 1.143 1.143 0 0 1 24 21.857z" fill="#fff"/></g></svg>