<svg xmlns="http://www.w3.org/2000/svg" height="32" width="32" version="1"><rect width="28.203" height="28.203" x="1.898" y="1.898" ry="5.575" fill="#c2352a" fill-rule="evenodd"/><path d="M18.004 5.73a8.68 8.68 0 0 0-1.07.106c-.738.12-1.86.399-2.902 1.226-1.087.862-1.678 2.116-1.846 3.534-.863.157-1.733.52-2.297 1.152a3.924 3.924 0 0 0-1.004 2.656 3.92 3.92 0 0 0 1.004 2.654c.113.126.294.189.429.3-.37.805-.633 1.66-.635 2.584v.005c0 3.447 2.852 6.33 6.31 6.33 3.457 0 6.308-2.883 6.308-6.33v-.004c0-.923-.263-1.78-.633-2.587.134-.11.316-.173.428-.298a3.92 3.92 0 0 0 1.003-2.654c0-.792-.274-1.605-.815-2.341.4-.546.691-1.13.783-1.737a3.923 3.923 0 0 0-.607-2.795c-.594-.899-1.722-1.564-2.775-1.707-.077-.012-.76-.129-1.681-.094z" fill="#fff"/><path d="M18.125 8.89a5.58 5.58 0 0 0-.683.067c-.473.076-.989.222-1.443.583-.455.36-.792.988-.792 1.695v2.376h-2.361a.787.792 0 1 0 0 1.584h2.36v1.689a3.148 3.168 0 0 0-2.36 3.063 3.148 3.168 0 0 0 3.148 3.168 3.148 3.168 0 0 0 3.148-3.168 3.148 3.168 0 0 0-2.36-3.065v-1.687h2.36a.787.792 0 1 0 0-1.584h-2.36v-2.376c0-.286.055-.344.191-.452.136-.107.407-.213.721-.264.629-.102 1.33-.006 1.33-.006a.787.792 0 1 0 .237-1.566s-.492-.081-1.136-.057zm-2.131 10.265a.787.792 0 0 1 .787.792.787.792 0 0 1-.787.792.787.792 0 0 1-.787-.792.787.792 0 0 1 .787-.792z" fill="#c2352a"/></svg>