<svg xmlns="http://www.w3.org/2000/svg" width="32" height="32"><rect width="28.203" height="28.203" x="1.898" y="1.898" ry="5.575" fill="#91dd48" fill-rule="evenodd"/><path d="M14.995 6.668h2.01c2.227 0 4.02 1.753 4.02 3.93v10.805c0 2.177-1.793 3.929-4.02 3.929h-2.01c-2.227 0-4.02-1.752-4.02-3.93V10.598c0-2.176 1.793-3.929 4.02-3.929z" fill="#fff"/><path style="line-height:normal;font-variant-ligatures:normal;font-variant-position:normal;font-variant-caps:normal;font-variant-numeric:normal;font-variant-alternates:normal;font-feature-settings:normal;text-indent:0;text-align:start;text-decoration-line:none;text-decoration-style:solid;text-decoration-color:#000;text-transform:none;text-orientation:mixed;white-space:normal;shape-padding:0;isolation:auto;mix-blend-mode:normal;solid-color:#000;solid-opacity:1" d="M8.446 5.936a1.077 1.077 0 0 0-1.06 1.09v5.025a1.077 1.077 0 0 0 1.077 1.077h5.025a1.077 1.077 0 1 0 0-2.153H9.54V7.027a1.077 1.077 0 0 0-1.094-1.091z" color="#000" font-weight="400" font-family="sans-serif" overflow="visible" fill="#fff"/><path style="line-height:normal;font-variant-ligatures:normal;font-variant-position:normal;font-variant-caps:normal;font-variant-numeric:normal;font-variant-alternates:normal;font-feature-settings:normal;text-indent:0;text-align:start;text-decoration-line:none;text-decoration-style:solid;text-decoration-color:#000;text-transform:none;text-orientation:mixed;white-space:normal;shape-padding:0;isolation:auto;mix-blend-mode:normal;solid-color:#000;solid-opacity:1" d="M6.31 8.103a1.077 1.077 0 1 0 0 2.154h1.435a1.077 1.077 0 1 0 0-2.154zM8.463 18.87a1.077 1.077 0 0 0-1.077 1.077v5.025a1.077 1.077 0 1 0 2.154 0v-3.948h3.948a1.077 1.077 0 1 0 0-2.153z" color="#000" font-weight="400" font-family="sans-serif" overflow="visible" fill="#fff"/><path style="line-height:normal;font-variant-ligatures:normal;font-variant-position:normal;font-variant-caps:normal;font-variant-numeric:normal;font-variant-alternates:normal;font-feature-settings:normal;text-indent:0;text-align:start;text-decoration-line:none;text-decoration-style:solid;text-decoration-color:#000;text-transform:none;text-orientation:mixed;white-space:normal;shape-padding:0;isolation:auto;mix-blend-mode:normal;solid-color:#000;solid-opacity:1" d="M6.31 21.742a1.077 1.077 0 1 0 0 2.153h1.435a1.077 1.077 0 1 0 0-2.153zM23.52 5.936a1.077 1.077 0 0 0-1.06 1.09v3.949h-3.948a1.077 1.077 0 1 0 0 2.153h5.025a1.077 1.077 0 0 0 1.077-1.077V7.027a1.077 1.077 0 0 0-1.094-1.091z" color="#000" font-weight="400" font-family="sans-serif" overflow="visible" fill="#fff"/><path style="line-height:normal;font-variant-ligatures:normal;font-variant-position:normal;font-variant-caps:normal;font-variant-numeric:normal;font-variant-alternates:normal;font-feature-settings:normal;text-indent:0;text-align:start;text-decoration-line:none;text-decoration-style:solid;text-decoration-color:#000;text-transform:none;text-orientation:mixed;white-space:normal;shape-padding:0;isolation:auto;mix-blend-mode:normal;solid-color:#000;solid-opacity:1" d="M24.255 8.103a1.077 1.077 0 1 0 0 2.154h1.436a1.077 1.077 0 1 0 0-2.154zM18.512 18.87a1.077 1.077 0 1 0 0 2.154h3.948v3.948a1.077 1.077 0 1 0 2.154 0v-5.025a1.077 1.077 0 0 0-1.077-1.076z" color="#000" font-weight="400" font-family="sans-serif" overflow="visible" fill="#fff"/><path style="line-height:normal;font-variant-ligatures:normal;font-variant-position:normal;font-variant-caps:normal;font-variant-numeric:normal;font-variant-alternates:normal;font-feature-settings:normal;text-indent:0;text-align:start;text-decoration-line:none;text-decoration-style:solid;text-decoration-color:#000;text-transform:none;text-orientation:mixed;white-space:normal;shape-padding:0;isolation:auto;mix-blend-mode:normal;solid-color:#000;solid-opacity:1" d="M24.255 21.742a1.077 1.077 0 1 0 0 2.153h1.436a1.077 1.077 0 1 0 0-2.153z" color="#000" font-weight="400" font-family="sans-serif" overflow="visible" fill="#fff"/><circle cy="8.104" cx="12.411" r="2.153" fill="#9a48dd"/><circle cy="8.104" cx="12.411" r="1.436" fill="#fff"/><circle cy="8.104" cx="19.589" r="2.153" fill="#9a48dd"/><circle cy="8.104" cx="19.589" r="1.436" fill="#fff"/></svg>