<svg xmlns="http://www.w3.org/2000/svg" height="32" width="32" version="1"><defs><linearGradient id="a"><stop offset="0" stop-color="#7d329a"/><stop offset="1" stop-color="#ac5cce"/></linearGradient></defs><path d="M6.45 11.429a1.5 1.5 0 0 0-.15.008 1.5 1.5 0 0 0-.147.021 1.5 1.5 0 0 0-.146.037 1.5 1.5 0 0 0-.14.053 1.5 1.5 0 0 0-.136.064 1.5 1.5 0 0 0-.128.078 1.5 1.5 0 0 0-.12.092 1.5 1.5 0 0 0-.109.102 1.5 1.5 0 0 0-.098.113 1.5 1.5 0 0 0-.088.121 1.5 1.5 0 0 0-.074.131 1.5 1.5 0 0 0-.062.137 1.5 1.5 0 0 0-.047.142 1.5 1.5 0 0 0-.033.147 1.5 1.5 0 0 0-.018.148 1.5 1.5 0 0 0-.004.106 1.5 1.5 0 0 0 .008.15 1.5 1.5 0 0 0 .021.149 1.5 1.5 0 0 0 .038.144 1.5 1.5 0 0 0 .052.14 1.5 1.5 0 0 0 .065.135 1.5 1.5 0 0 0 .078.13 1.5 1.5 0 0 0 .092.118 1.5 1.5 0 0 0 .101.11 1.5 1.5 0 0 0 .114.1 1.5 1.5 0 0 0 .12.085 1.5 1.5 0 0 0 .131.077 1.5 1.5 0 0 0 .137.06 1.5 1.5 0 0 0 .143.047 1.5 1.5 0 0 0 .146.033 1.5 1.5 0 0 0 .149.018 1.5 1.5 0 0 0 .105.004 1.5 1.5 0 0 0 .15-.008 1.5 1.5 0 0 0 .149-.022 1.5 1.5 0 0 0 .145-.037 1.5 1.5 0 0 0 .14-.05 1.5 1.5 0 0 0 .135-.067 1.5 1.5 0 0 0 .129-.078 1.5 1.5 0 0 0 .119-.09 1.5 1.5 0 0 0 .11-.103 1.5 1.5 0 0 0 .099-.112 1.5 1.5 0 0 0 .086-.123 1.5 1.5 0 0 0 .076-.13 1.5 1.5 0 0 0 .06-.137 1.5 1.5 0 0 0 .047-.141 1.5 1.5 0 0 0 .034-.146 1.5 1.5 0 0 0 .017-.15 1.5 1.5 0 0 0 .004-.106 1.5 1.5 0 0 0-.008-.15 1.5 1.5 0 0 0-.021-.147 1.5 1.5 0 0 0-.037-.147 1.5 1.5 0 0 0-.053-.14 1.5 1.5 0 0 0-.064-.135 1.5 1.5 0 0 0-.079-.129 1.5 1.5 0 0 0-.09-.12 1.5 1.5 0 0 0-.103-.108 1.5 1.5 0 0 0-.111-.098 1.5 1.5 0 0 0-.123-.088 1.5 1.5 0 0 0-.131-.074 1.5 1.5 0 0 0-.137-.063 1.5 1.5 0 0 0-.14-.047 1.5 1.5 0 0 0-.147-.033 1.5 1.5 0 0 0-.15-.017 1.5 1.5 0 0 0-.106-.004zM11.95 10.429a2 2 0 0 0-.199.01 2 2 0 0 0-.197.03 2 2 0 0 0-.194.05 2 2 0 0 0-.19.068 2 2 0 0 0-.179.086 2 2 0 0 0-.17.105 2 2 0 0 0-.16.121 2 2 0 0 0-.144.137 2 2 0 0 0-.133.15 2 2 0 0 0-.117.163 2 2 0 0 0-.098.174 2 2 0 0 0-.082.181 2 2 0 0 0-.065.19 2 2 0 0 0-.043.195 2 2 0 0 0-.023.2 2 2 0 0 0-.006.14 2 2 0 0 0 .01.199 2 2 0 0 0 .031.2 2 2 0 0 0 .049.193 2 2 0 0 0 .068.187 2 2 0 0 0 .086.18 2 2 0 0 0 .106.17 2 2 0 0 0 .12.16 2 2 0 0 0 .138.146 2 2 0 0 0 .15.131 2 2 0 0 0 .162.117 2 2 0 0 0 .174.1 2 2 0 0 0 .182.082 2 2 0 0 0 .189.062 2 2 0 0 0 .195.043 2 2 0 0 0 .2.026 2 2 0 0 0 .14.004 2 2 0 0 0 .2-.01 2 2 0 0 0 .199-.03 2 2 0 0 0 .193-.05 2 2 0 0 0 .187-.068 2 2 0 0 0 .18-.086 2 2 0 0 0 .17-.106 2 2 0 0 0 .16-.121 2 2 0 0 0 .147-.135 2 2 0 0 0 .13-.15 2 2 0 0 0 .118-.164 2 2 0 0 0 .1-.172 2 2 0 0 0 .081-.184 2 2 0 0 0 .063-.19 2 2 0 0 0 .043-.194 2 2 0 0 0 .025-.198 2 2 0 0 0 .004-.142 2 2 0 0 0-.01-.2 2 2 0 0 0-.029-.197 2 2 0 0 0-.05-.193 2 2 0 0 0-.07-.19 2 2 0 0 0-.085-.18 2 2 0 0 0-.105-.17 2 2 0 0 0-.122-.16 2 2 0 0 0-.134-.144 2 2 0 0 0-.15-.133 2 2 0 0 0-.165-.117 2 2 0 0 0-.172-.098 2 2 0 0 0-.183-.082 2 2 0 0 0-.19-.064 2 2 0 0 0-.195-.043 2 2 0 0 0-.197-.023 2 2 0 0 0-.143-.006z" fill="#3f3f3f" fill-rule="evenodd"/><path d="M13.45 7.429a4.5 4.5 0 0 0-.449.023 4.5 4.5 0 0 0-.445.067 4.5 4.5 0 0 0-.436.11 4.5 4.5 0 0 0-.422.155 4.5 4.5 0 0 0-.404.195 4.5 4.5 0 0 0-.385.237 4.5 4.5 0 0 0-.357.271 4.5 4.5 0 0 0-.33.307 4.5 4.5 0 0 0-.297.338 4.5 4.5 0 0 0-.262.365 4.5 4.5 0 0 0-.223.39 4.5 4.5 0 0 0-.183.41 4.5 4.5 0 0 0-.143.429 4.5 4.5 0 0 0-.097.439 4.5 4.5 0 0 0-.055.445 4.5 4.5 0 0 0-.012.319 4.5 4.5 0 0 0 .024.449 4.5 4.5 0 0 0 .066.445 4.5 4.5 0 0 0 .111.436 4.5 4.5 0 0 0 .155.422 4.5 4.5 0 0 0 .195.406 4.5 4.5 0 0 0 .236.383 4.5 4.5 0 0 0 .272.357 4.5 4.5 0 0 0 .306.33 4.5 4.5 0 0 0 .338.297 4.5 4.5 0 0 0 .366.262 4.5 4.5 0 0 0 .39.222 4.5 4.5 0 0 0 .41.186 4.5 4.5 0 0 0 .428.14 4.5 4.5 0 0 0 .44.1 4.5 4.5 0 0 0 .445.053 4.5 4.5 0 0 0 .318.012 4.5 4.5 0 0 0 .45-.022 4.5 4.5 0 0 0 .445-.068 4.5 4.5 0 0 0 .435-.111 4.5 4.5 0 0 0 .422-.155 4.5 4.5 0 0 0 .406-.195 4.5 4.5 0 0 0 .383-.234 4.5 4.5 0 0 0 .358-.274 4.5 4.5 0 0 0 .33-.307 4.5 4.5 0 0 0 .297-.337 4.5 4.5 0 0 0 .261-.366 4.5 4.5 0 0 0 .223-.39 4.5 4.5 0 0 0 .186-.41 4.5 4.5 0 0 0 .14-.428 4.5 4.5 0 0 0 .1-.438 4.5 4.5 0 0 0 .052-.447 4.5 4.5 0 0 0 .012-.318 4.5 4.5 0 0 0-.021-.45 4.5 4.5 0 0 0-.069-.445 4.5 4.5 0 0 0-.111-.435 4.5 4.5 0 0 0-.154-.422 4.5 4.5 0 0 0-.196-.405 4.5 4.5 0 0 0-.234-.384 4.5 4.5 0 0 0-.273-.358 4.5 4.5 0 0 0-.307-.33 4.5 4.5 0 0 0-.338-.297 4.5 4.5 0 0 0-.365-.261 4.5 4.5 0 0 0-.39-.223 4.5 4.5 0 0 0-.41-.184 4.5 4.5 0 0 0-.429-.142 4.5 4.5 0 0 0-.437-.098 4.5 4.5 0 0 0-.447-.055 4.5 4.5 0 0 0-.319-.011zm-1.5 3a2 2 0 0 1 .143.006 2 2 0 0 1 .197.023 2 2 0 0 1 .195.043 2 2 0 0 1 .19.064 2 2 0 0 1 .183.083 2 2 0 0 1 .172.097 2 2 0 0 1 .164.117 2 2 0 0 1 .15.133 2 2 0 0 1 .135.145 2 2 0 0 1 .122.16 2 2 0 0 1 .105.17 2 2 0 0 1 .086.18 2 2 0 0 1 .068.189 2 2 0 0 1 .051.193 2 2 0 0 1 .03.198 2 2 0 0 1 .01.199 2 2 0 0 1-.005.142 2 2 0 0 1-.025.198 2 2 0 0 1-.043.195 2 2 0 0 1-.063.19 2 2 0 0 1-.082.183 2 2 0 0 1-.1.172 2 2 0 0 1-.116.164 2 2 0 0 1-.131.15 2 2 0 0 1-.147.135 2 2 0 0 1-.16.121 2 2 0 0 1-.17.106 2 2 0 0 1-.18.086 2 2 0 0 1-.187.068 2 2 0 0 1-.193.05 2 2 0 0 1-.2.03 2 2 0 0 1-.199.01 2 2 0 0 1-.14-.004 2 2 0 0 1-.2-.025 2 2 0 0 1-.195-.043 2 2 0 0 1-.19-.063 2 2 0 0 1-.181-.082 2 2 0 0 1-.174-.1 2 2 0 0 1-.162-.117 2 2 0 0 1-.15-.13 2 2 0 0 1-.137-.147 2 2 0 0 1-.121-.16 2 2 0 0 1-.106-.17 2 2 0 0 1-.086-.18 2 2 0 0 1-.068-.187 2 2 0 0 1-.049-.194 2 2 0 0 1-.031-.199 2 2 0 0 1-.01-.2 2 2 0 0 1 .006-.14 2 2 0 0 1 .024-.199 2 2 0 0 1 .043-.195 2 2 0 0 1 .064-.19 2 2 0 0 1 .082-.181 2 2 0 0 1 .098-.174 2 2 0 0 1 .117-.162 2 2 0 0 1 .133-.15 2 2 0 0 1 .144-.137 2 2 0 0 1 .16-.122 2 2 0 0 1 .17-.105 2 2 0 0 1 .18-.086 2 2 0 0 1 .19-.068 2 2 0 0 1 .193-.05 2 2 0 0 1 .197-.03 2 2 0 0 1 .2-.01z" fill="#fff" fill-rule="evenodd"/><path d="M9.206 10.454a3 3 0 0 0-.166-.178 3 3 0 0 0-.225-.197 3 3 0 0 0-.244-.174 3 3 0 0 0-.26-.15 3 3 0 0 0-.273-.121 3 3 0 0 0-.285-.096 3 3 0 0 0-.293-.066 3 3 0 0 0-.297-.035 3 3 0 0 0-.213-.008 3 3 0 0 0-.299.015 3 3 0 0 0-.297.045 3 3 0 0 0-.29.074 3 3 0 0 0-.282.102 3 3 0 0 0-.27.13 3 3 0 0 0-.255.157 3 3 0 0 0-.238.182 3 3 0 0 0-.221.205 3 3 0 0 0-.197.224 3 3 0 0 0-.174.245 3 3 0 0 0-.15.26 3 3 0 0 0-.122.275 3 3 0 0 0-.095.283 3 3 0 0 0-.067.293 3 3 0 0 0-.035.297 3 3 0 0 0-.008.213 3 3 0 0 0 .016.299 3 3 0 0 0 .045.296 3 3 0 0 0 .074.291 3 3 0 0 0 .102.282 3 3 0 0 0 .13.271 3 3 0 0 0 .157.254 3 3 0 0 0 .181.24 3 3 0 0 0 .205.22 3 3 0 0 0 .225.196 3 3 0 0 0 .244.176 3 3 0 0 0 .26.149 3 3 0 0 0 .275.123 3 3 0 0 0 .283.093 3 3 0 0 0 .293.067 3 3 0 0 0 .297.035 3 3 0 0 0 .213.008 3 3 0 0 0 .299-.016 3 3 0 0 0 .297-.043 3 3 0 0 0 .29-.074 3 3 0 0 0 .282-.104 3 3 0 0 0 .272-.13 3 3 0 0 0 .254-.157 3 3 0 0 0 .24-.181 3 3 0 0 0 .219-.205 3 3 0 0 0 .197-.225 3 3 0 0 0 .176-.244 3 3 0 0 0 .003-.008 4.5 4.5 0 0 1-.173-.361 4.5 4.5 0 0 1-.155-.422 4.5 4.5 0 0 1-.111-.436 4.5 4.5 0 0 1-.066-.445 4.5 4.5 0 0 1-.024-.45 4.5 4.5 0 0 1 .012-.318 4.5 4.5 0 0 1 .055-.445 4.5 4.5 0 0 1 .097-.44 4.5 4.5 0 0 1 .092-.27zm-2.756.975a1.5 1.5 0 0 1 .106.004 1.5 1.5 0 0 1 .15.017 1.5 1.5 0 0 1 .147.033 1.5 1.5 0 0 1 .14.047 1.5 1.5 0 0 1 .137.063 1.5 1.5 0 0 1 .13.074 1.5 1.5 0 0 1 .124.088 1.5 1.5 0 0 1 .111.098 1.5 1.5 0 0 1 .104.109 1.5 1.5 0 0 1 .09.119 1.5 1.5 0 0 1 .078.129 1.5 1.5 0 0 1 .064.135 1.5 1.5 0 0 1 .053.14 1.5 1.5 0 0 1 .037.147 1.5 1.5 0 0 1 .021.146 1.5 1.5 0 0 1 .008.15 1.5 1.5 0 0 1-.004.106 1.5 1.5 0 0 1-.017.15 1.5 1.5 0 0 1-.034.147 1.5 1.5 0 0 1-.046.14 1.5 1.5 0 0 1-.06.137 1.5 1.5 0 0 1-.077.131 1.5 1.5 0 0 1-.086.123 1.5 1.5 0 0 1-.1.112 1.5 1.5 0 0 1-.109.103 1.5 1.5 0 0 1-.12.09 1.5 1.5 0 0 1-.128.078 1.5 1.5 0 0 1-.135.067 1.5 1.5 0 0 1-.14.05 1.5 1.5 0 0 1-.145.037 1.5 1.5 0 0 1-.148.022 1.5 1.5 0 0 1-.15.008 1.5 1.5 0 0 1-.106-.004 1.5 1.5 0 0 1-.149-.018 1.5 1.5 0 0 1-.146-.033 1.5 1.5 0 0 1-.143-.047 1.5 1.5 0 0 1-.137-.06 1.5 1.5 0 0 1-.13-.077 1.5 1.5 0 0 1-.121-.086 1.5 1.5 0 0 1-.114-.1 1.5 1.5 0 0 1-.101-.109 1.5 1.5 0 0 1-.092-.119 1.5 1.5 0 0 1-.078-.129 1.5 1.5 0 0 1-.065-.134 1.5 1.5 0 0 1-.052-.14 1.5 1.5 0 0 1-.038-.145 1.5 1.5 0 0 1-.021-.149 1.5 1.5 0 0 1-.008-.15 1.5 1.5 0 0 1 .004-.106 1.5 1.5 0 0 1 .018-.148 1.5 1.5 0 0 1 .033-.147 1.5 1.5 0 0 1 .047-.142 1.5 1.5 0 0 1 .062-.137 1.5 1.5 0 0 1 .074-.13 1.5 1.5 0 0 1 .088-.122 1.5 1.5 0 0 1 .098-.113 1.5 1.5 0 0 1 .11-.102 1.5 1.5 0 0 1 .119-.092 1.5 1.5 0 0 1 .128-.078 1.5 1.5 0 0 1 .135-.064 1.5 1.5 0 0 1 .14-.053 1.5 1.5 0 0 1 .147-.037 1.5 1.5 0 0 1 .147-.021 1.5 1.5 0 0 1 .15-.008z" fill="#fff" fill-rule="evenodd"/><path d="M8.99 14.624c.313.016.584.02.902.049a4.5 4.5 0 0 1-.155-.203 4.5 4.5 0 0 1-.236-.383 4.5 4.5 0 0 1-.022-.045 3 3 0 0 1-.003.008 3 3 0 0 1-.176.244 3 3 0 0 1-.197.225 3 3 0 0 1-.114.105z" fill="#8e8e8e" fill-rule="evenodd"/><path d="M5.327 14.952c-.035.043-.174.037-.2.088-.16.327-.138.827-.169 1.594-.03.866.017 1.852.252 2.695.117.421.282.807.508 1.123.225.317.511.564.873.71.751.301 1.69.334 2.664.165a9.228 9.228 0 0 0 2.877-1.04c.893-.503 1.67-1.136 2.181-1.833.256-.348.444-.712.547-1.084.104-.371.122-.752.036-1.129-.004-.015-.043-.024-.047-.039a4.5 4.5 0 0 1-.069.026 4.5 4.5 0 0 1-.435.11 4.5 4.5 0 0 1-.446.07 4.5 4.5 0 0 1-.449.02 4.5 4.5 0 0 1-.318-.011 4.5 4.5 0 0 1-.445-.053 4.5 4.5 0 0 1-.44-.1 4.5 4.5 0 0 1-.428-.14 4.5 4.5 0 0 1-.41-.186 4.5 4.5 0 0 1-.39-.222 4.5 4.5 0 0 1-.366-.262 4.5 4.5 0 0 1-.338-.297 4.5 4.5 0 0 1-.306-.33 4.5 4.5 0 0 1-.117-.154c-.318-.03-.589-.033-.903-.049a3 3 0 0 1-.105.1 3 3 0 0 1-.24.181 3 3 0 0 1-.254.157 3 3 0 0 1-.272.13 3 3 0 0 1-.281.104 3 3 0 0 1-.291.074 3 3 0 0 1-.297.043 3 3 0 0 1-.299.016 3 3 0 0 1-.213-.008 3 3 0 0 1-.297-.035 3 3 0 0 1-.293-.067 3 3 0 0 1-.283-.093 3 3 0 0 1-.275-.123 3 3 0 0 1-.26-.149 3 3 0 0 1-.002-.002z" fill="#ffc102" fill-rule="evenodd"/><path d="M6.974 21.185a6.126 4.793 45 0 0-.012.093 6.126 4.793 45 0 0-.008.534 6.126 4.793 45 0 0 .049.542 6.126 4.793 45 0 0 .103.55 6.126 4.793 45 0 0 .157.548 6.126 4.793 45 0 0 .209.543 6.126 4.793 45 0 0 .257.535 6.126 4.793 45 0 0 .305.516 6.126 4.793 45 0 0 .35.496 6.126 4.793 45 0 0 .388.47 6.126 4.793 45 0 0 .428.44 6.126 4.793 45 0 0 .322.29 6.126 4.793 45 0 0 .479.376 6.126 4.793 45 0 0 .504.336 6.126 4.793 45 0 0 .523.29 6.126 4.793 45 0 0 .537.241 6.126 4.793 45 0 0 .547.19 6.126 4.793 45 0 0 .55.138 6.126 4.793 45 0 0 .548.086 6.126 4.793 45 0 0 .539.03 6.126 4.793 45 0 0 .527-.026 6.126 4.793 45 0 0 .51-.078 6.126 4.793 45 0 0 .485-.135 6.126 4.793 45 0 0 .457-.185 6.126 4.793 45 0 0 .425-.236 6.126 4.793 45 0 0 .387-.286 6.126 4.793 45 0 0 .348-.332 6.126 4.793 45 0 0 .218-.26 6.126 4.793 45 0 0 .268-.4 6.126 4.793 45 0 0 .22-.435 6.126 4.793 45 0 0 .169-.467 6.126 4.793 45 0 0 .117-.494 6.126 4.793 45 0 0 .06-.516 6.126 4.793 45 0 0 .006-.531 6.126 4.793 45 0 0-.048-.543 6.126 4.793 45 0 0-.102-.55 6.126 4.793 45 0 0-.156-.55 6.126 4.793 45 0 0-.21-.543 6.126 4.793 45 0 0-.257-.533 6.126 4.793 45 0 0-.305-.517 6.126 4.793 45 0 0-.35-.497 6.126 4.793 45 0 0-.39-.47 6.126 4.793 45 0 0-.426-.44 6.126 4.793 45 0 0-.322-.289 6.126 4.793 45 0 0-.479-.377 6.126 4.793 45 0 0-.503-.334 6.126 4.793 45 0 0-.047-.025c-.017.024-.02.05-.037.074-.511.697-1.289 1.33-2.182 1.832a9.228 9.228 0 0 1-2.877 1.041c-.834.145-1.594.051-2.281-.142z" fill="#fcf8fd" fill-rule="evenodd"/><path d="M8.657 25.874a6.126 4.793 45 0 1-.273-.332 6.126 4.793 45 0 1-.35-.496 6.126 4.793 45 0 1-.305-.516 6.126 4.793 45 0 1-.257-.535 6.126 4.793 45 0 1-.21-.543 6.126 4.793 45 0 1-.156-.549 6.126 4.793 45 0 1-.103-.549 6.126 4.793 45 0 1-.049-.542 6.126 4.793 45 0 1 .008-.534 6.126 4.793 45 0 1 .012-.093c-.107-.03-.247.006-.354-.022.022.072.025.148.049.219.043.741.203 1.449.459 2.12A8.425 8.425 0 0 0 8.16 25.41c.128.18.355.293.496.465zM28.644 28.22c-.307.213-.516.418-.85.627-.627.391-1.387.68-2.096 1.02 1.16-.256 2.182-.796 2.946-1.647z" fill="#8e8e8e" fill-rule="evenodd"/><path d="M29.782 13.577c-.391-.25-.719-.57-1.136-.785-1.073-.554-2.212-1-3.32-1.363l-3.376 4.039c.55.396.831 1.354 1.463 1.818a22.763 22.763 0 0 0 4.955 2.754c.56.225 1.16.262 1.735.44v-6.358c-.107-.188-.215-.355-.32-.545z" fill="#64287b" fill-rule="evenodd"/><path d="M16.97 3.429c-.84.012-1.893.365-3.01.99-1.117.625-2.299 1.521-3.402 2.623-.799.797-1.458 1.801-2.12 2.787a3 3 0 0 1 .133.076 3 3 0 0 1 .244.174 3 3 0 0 1 .225.197 3 3 0 0 1 .166.178 4.5 4.5 0 0 1 .05-.156 4.5 4.5 0 0 1 .184-.41 4.5 4.5 0 0 1 .223-.39 4.5 4.5 0 0 1 .262-.366 4.5 4.5 0 0 1 .297-.338 4.5 4.5 0 0 1 .33-.307 4.5 4.5 0 0 1 .357-.271 4.5 4.5 0 0 1 .385-.237 4.5 4.5 0 0 1 .404-.195 4.5 4.5 0 0 1 .422-.154 4.5 4.5 0 0 1 .436-.111A4.5 4.5 0 0 1 13 7.452a4.5 4.5 0 0 1 .45-.023 4.5 4.5 0 0 1 .318.011 4.5 4.5 0 0 1 .447.055 4.5 4.5 0 0 1 .437.098 4.5 4.5 0 0 1 .428.142 4.5 4.5 0 0 1 .41.184 4.5 4.5 0 0 1 .39.223 4.5 4.5 0 0 1 .366.261 4.5 4.5 0 0 1 .338.297 4.5 4.5 0 0 1 .307.33 4.5 4.5 0 0 1 .273.358 4.5 4.5 0 0 1 .234.384 4.5 4.5 0 0 1 .196.405 4.5 4.5 0 0 1 .154.422 4.5 4.5 0 0 1 .111.435 4.5 4.5 0 0 1 .069.445 4.5 4.5 0 0 1 .021.45 4.5 4.5 0 0 1-.012.318 4.5 4.5 0 0 1-.052.447 4.5 4.5 0 0 1-.1.438 4.5 4.5 0 0 1-.14.428 4.5 4.5 0 0 1-.186.41 4.5 4.5 0 0 1-.223.39 4.5 4.5 0 0 1-.261.366 4.5 4.5 0 0 1-.297.337 4.5 4.5 0 0 1-.33.307 4.5 4.5 0 0 1-.358.274 4.5 4.5 0 0 1-.383.234 4.5 4.5 0 0 1-.406.195 4.5 4.5 0 0 1-.353.13c.004.014.043.023.047.038.086.377.068.758-.036 1.13-.096.345-.28.682-.51 1.009a6.126 4.793 45 0 1 .047.025 6.126 4.793 45 0 1 .504.334 6.126 4.793 45 0 1 .479.377 6.126 4.793 45 0 1 .322.29 6.126 4.793 45 0 1 .426.439 6.126 4.793 45 0 1 .39.47 6.126 4.793 45 0 1 .35.497 6.126 4.793 45 0 1 .305.517 6.126 4.793 45 0 1 .258.533 6.126 4.793 45 0 1 .209.543 6.126 4.793 45 0 1 .156.55 6.126 4.793 45 0 1 .101.55 6.126 4.793 45 0 1 .05.543 6.126 4.793 45 0 1-.007.531 6.126 4.793 45 0 1-.06.516 6.126 4.793 45 0 1-.117.494 6.126 4.793 45 0 1-.168.467 6.126 4.793 45 0 1-.221.435 6.126 4.793 45 0 1-.268.4 6.126 4.793 45 0 1-.218.26 6.126 4.793 45 0 1-.348.332 6.126 4.793 45 0 1-.387.286 6.126 4.793 45 0 1-.426.236 6.126 4.793 45 0 1-.457.185 6.126 4.793 45 0 1-.484.135 6.126 4.793 45 0 1-.51.078 6.126 4.793 45 0 1-.527.026 6.126 4.793 45 0 1-.54-.03 6.126 4.793 45 0 1-.548-.086 6.126 4.793 45 0 1-.549-.138 6.126 4.793 45 0 1-.547-.19 6.126 4.793 45 0 1-.537-.242 6.126 4.793 45 0 1-.523-.289 6.126 4.793 45 0 1-.504-.336 6.126 4.793 45 0 1-.086-.066c.532.482.947 1.05 1.559 1.457 1.011.673 2.132 1.143 3.238 1.594h9.814c.417 0 .782-.151 1.172-.237.709-.34 1.47-.628 2.096-1.02.334-.208.543-.413.85-.626.883-.986 1.458-2.26 1.458-3.694V20.48c-.574-.177-1.174-.214-1.734-.439a22.763 22.763 0 0 1-4.955-2.754c-.632-.464-.912-1.422-1.463-1.818l3.375-4.04c1.11.364 2.248.81 3.32 1.364.418.216.746.535 1.137.785-.286-.512-.57-1.041-.861-1.469-.692-1.017-1.533-1.967-2.469-2.843a25.162 25.162 0 0 0-3.037-2.407c-2.14-1.455-4.434-2.607-6.445-3.43zM6.095 20.759c-.527 1.5-.987 3.032-1.145 4.58.708.102 1.37.114 1.988.05.384-.039.723-.157 1.075-.253-.347-.522-.666-1.057-.885-1.633a7.102 7.102 0 0 1-.46-2.121c-.023-.071-.026-.147-.048-.219-.009-.002-.02.001-.03-.002-.205-.082-.336-.26-.495-.402z" fill="#7d329a" fill-rule="evenodd"/><path d="M7.474 1.897a5.565 5.565 0 0 0-5.577 5.577v17.052a5.565 5.565 0 0 0 5.577 5.577h7.238c-1.106-.451-2.227-.921-3.238-1.594-.611-.407-1.027-.975-1.559-1.457a6.126 4.793 45 0 1-.393-.31 6.126 4.793 45 0 1-.322-.29 6.126 4.793 45 0 1-.428-.44 6.126 4.793 45 0 1-.115-.138c-.14-.172-.368-.286-.496-.465-.061-.086-.09-.186-.148-.273-.352.096-.69.214-1.075.254a8.075 8.075 0 0 1-1.988-.051c.158-1.548.618-3.08 1.145-4.58-.121-.108-.28-.17-.377-.307a3.593 3.593 0 0 1-.508-1.123c-.235-.843-.282-1.83-.252-2.695.03-.767.009-1.267.17-1.594.025-.051.164-.045.2-.088a3 3 0 0 1-.243-.174 3 3 0 0 1-.225-.197 3 3 0 0 1-.205-.219 3 3 0 0 1-.181-.24 3 3 0 0 1-.157-.254 3 3 0 0 1-.13-.271 3 3 0 0 1-.102-.282 3 3 0 0 1-.074-.29 3 3 0 0 1-.045-.297 3 3 0 0 1-.016-.3 3 3 0 0 1 .008-.212 3 3 0 0 1 .035-.297 3 3 0 0 1 .067-.293 3 3 0 0 1 .095-.283 3 3 0 0 1 .121-.276 3 3 0 0 1 .15-.26 3 3 0 0 1 .175-.244 3 3 0 0 1 .197-.224 3 3 0 0 1 .22-.205 3 3 0 0 1 .239-.182 3 3 0 0 1 .256-.156 3 3 0 0 1 .27-.131 3 3 0 0 1 .28-.102 3 3 0 0 1 .291-.074 3 3 0 0 1 .297-.045 3 3 0 0 1 .3-.015 3 3 0 0 1 .212.008 3 3 0 0 1 .297.035 3 3 0 0 1 .293.066 3 3 0 0 1 .285.096 3 3 0 0 1 .274.12 3 3 0 0 1 .126.075c.662-.986 1.321-1.99 2.12-2.787 1.103-1.102 2.285-1.998 3.402-2.623 1.117-.625 2.17-.978 3.01-.99 2.01.822 4.306 1.974 6.445 3.43 1.07.727 2.101 1.53 3.037 2.406.936.876 1.777 1.826 2.469 2.843.399.587.788 1.319 1.182 2.014V7.474a5.565 5.565 0 0 0-5.577-5.577z" fill="#666" fill-rule="evenodd"/></svg>