<svg xmlns="http://www.w3.org/2000/svg" width="32" height="32" version="1"><rect width="28.203" height="28.203" x="1.898" y="1.898" ry="5.575" fill="#8a4b2c" fill-rule="evenodd"/><g fill="#fbb64a"><path d="M9.72 27.889c.015-.04.06-.315.1-.612.234-1.78.217-2.92.68-3.681.086-.14.328-.45.54-.689.21-.238.384-.387.384-.417 0-.036-.062-.043-.198-.021-.653.105-1.047-.014-1.226-.32-.093-.159.012.045 0-3.87-.014-4.5.033-4.068.446-4.275.298-.15.67-.383.999-.435.56-.09.94.326 1.218.867.076.149.162.26.193.25.089-.029.105-4.08.017-4.08-.036 0-.102.097-.148.216-.116.303-.39 1-.717 1.145-.341.152-1.429.536-1.656.536-.092 0-.321-.025-.352-.055-.042-.042 0-.753 0-2.92 0-1.575-.02-3.19 0-3.22.175-.273 2.917-.387 3.865-.175.192.042.517.157.722.255.532.254.866.723 1.23 1.41.02.039.066.07.102.07.054 0 .067-.12.077-1.62.008-.99.001-2.15-.013-2.208 0 0-.515.68-.583.815l-.145.122-.893-.016c-.49-.009-2.639 0-4.407-.002-1.769-.002-3.852.028-3.895.044-.157.06 0 .159.4.376.687.373 1.331.673 1.499 1.296.098.365.094 5.542-.004 5.956-.096.402-.416.695-.717 1.017-.142.152-.257.294-.257.317 0 .023.116.155.258.294.286.279.66.616.73.899.069.269.121 8.12.058 8.554-.063.43-.34.616-.698.995-.334.355-.335.354.178.548.417.158 1.202.514 1.361.753.166.247.382.71.559 1.353.08.292.155.547.166.566.035.057.097.039.127-.038zM18.053 5.96c-.05.03-.06.432-.05 1.727.016 1.882-.048 1.274.339.78.537-.685 1.254-.505 1.556-.538.773-.02.96-.01 1.034.062.074.075.145.941.082 2.666v2.32s-.534.424-.825.71c-.099.108-.18.225-.18.26 0 .033.072.142.159.24.22.391.82.728.82.728l.016 4.006c.013 4.376.01 4.106-.09 4.193 0 0-.718.75-.914.846 1.027.338 1.438.61 1.871 1.549.07.23.089.451.129.451.04 0 .058-.22.129-.451.432-.939.844-1.211 1.87-1.549-.195-.097-.913-.846-.913-.846-.101-.087-.104.183-.09-4.193l.016-4.006s.6-.337.82-.728c.087-.098.158-.207.158-.24 0-.035-.08-.152-.18-.26-.29-.286-.824-.71-.824-.71v-2.32c-.063-1.725.007-2.591.082-2.666.073-.072.26-.081 1.033-.062.303.033 1.02-.147 1.557.539.387.493.323 1.101.338-.781.01-1.295 0-1.697-.049-1.727-.178.276-.572.984-.572.984-.076.039-1.463.016-3.375.016-1.913 0-3.3.023-3.375-.016 0 0-.394-.708-.572-.984z"/></g></svg>