<svg xmlns="http://www.w3.org/2000/svg" height="32" width="32"><path d="M30.102 22.826l-7.276 7.276h1.7a5.563 5.563 0 0 0 5.576-5.575z" fill="#24f0ff" fill-rule="evenodd"/><path d="M30.102 17.826L17.826 30.102h5l7.276-7.276z" fill="#66dd23" fill-rule="evenodd"/><path d="M30.102 12.826L12.826 30.102h5l12.276-12.276z" fill="#e6df15" fill-rule="evenodd"/><path d="M30.102 7.826L7.826 30.102h5l17.276-17.276z" fill="#f24c3d" fill-rule="evenodd"/><path d="M7.473 1.898a5.563 5.563 0 0 0-5.575 5.577v17.052a5.561 5.561 0 0 0 5.575 5.575h.353L30.102 7.826v-.351a5.565 5.565 0 0 0-5.577-5.577z" fill="#4f4f4f" fill-rule="evenodd"/><path d="M13.793 4.908l2.857 5-2.857 5h2.286l1.714-3 1.714 3h2.286l-2.857-5 2.857-5h-2.286l-1.714 3-1.714-3zm-9 0h8v1.25l-5.142 6.875h5.142v1.875h-8v-1.25l5.143-6.875H4.793z" fill="#fff"/></svg>