<svg xmlns="http://www.w3.org/2000/svg" height="32" width="32" version="1"><rect width="28.203" height="28.203" x="1.898" y="1.898" ry="5.575" fill="#4f4f4f" fill-rule="evenodd"/><g stroke-width=".994" fill="#ff6363"><path d="M25.204 30.08c5.68-10-1.334-15.761-8.268-17.253 7.34 4.758.84 14.123-8.522 17.268 4.042-.02 12.748.034 16.79-.015z" fill-rule="evenodd"/><path d="M8.203 1.92c-8.3 9.582-.065 15.76 6.869 17.254-7.34-4.759-1.366-13.646 4.793-17.269-4.042.02-7.62-.034-11.663.015z" fill-rule="evenodd"/><path d="M18.398 18.413a3.412 2.059 45 0 1-4.825-4.825 3.412 2.059 45 1 1 4.825 4.825z"/></g></svg>