<svg xmlns="http://www.w3.org/2000/svg" height="32" width="32" version="1"><rect width="28.203" height="28.203" x="1.898" y="1.898" ry="5.575" fill="#3398c3" fill-rule="evenodd"/><g transform="translate(59.858 .962)" fill-rule="evenodd"><path d="M-39.306 6.28c-1.9.541-3.088 3.826-2.884 3.748l.03.761c.295.017.566.054.77.124.733.249 1.662-.202 2.262-.587a4.23 4.23 0 0 0 .019-.437c.324-.274.679-.622.778-.902.194-.554.369-1.646.058-2.08-.156-.218-.382.702-.389.777-.012.138-.345-.144-.45-.054-.192.168-.007.541-.083.531-.1-.013-.132-.19-.23-.173-.263.22-.412.487-.526.747a1.663 1.663 0 0 1-.214-.07c-.099-.043-.087-.304-.053-.408.044-.13.271-.04.332-.162.065-.132-.063-.362.03-.477.055-.067.158.025.212-.043.17-.219.452-1.328.338-1.295z" fill="#a5ccdf"/><path d="M-36.431 8.62c-.188.658-.426 1.09-.704 1.367.039-.168.037-.352-.014-.557l-.814.88a.897.897 0 0 0 .048-.495l-.78.666a.85.85 0 0 0 .178-.611c.011.021-1.689 1.448-2.873 1.045-.986-.336-3.329-.093-4.366 1.16-3.153.315-5.837 3.216-5.593 5.438.254 2.316 2.52 3.735 3.064 3.876.13.042.249.06.361.067.135.905.724 1.88 1.45 2.27.634.34 2.299-.66 2.299-.66-1.093-.646-1.784-1.279-2.299-1.924.813-.054 1.977.244 3.065.467.14-.01-.012-1.532-1.395-1.952-.715-.216-2.061-.336-2.738.329-.247-.579-.453-1.572.05-2.226.524-.68 2.207-1.183 2.963-1.25.07.032.14.07.211.096 2.503.809 8.74-3.967 7.887-7.987z" fill="#fff"/><path d="M-43.663 17.052c-.014.027-.439-.21-.59-.263-.172-.06-.408.377-.3.525.154.211.635.262.61.282l.28-.544z" fill="#3398c3" stroke="#000" stroke-width=".123"/><path d="M-43.383 15.037a1.37 1.37 0 0 0-.645.196c-.351.198-.89 1.604-1.07 2.075-.734.644-.793 2.124-.385 2.86 1.583 2.854 5.925 4.554 7.14 3.092-.257-.403-.71-.462-1.3-.875a.533.533 0 0 0-.316.166l-.32-.546c-.122.019-.224-.161-.345.052-.228-.167-.216-.23-.172-.362.039-.1.087-.179.136-.255.345.115.712.242.952.34.137.056.026-.402.173-.414.205-.016.25.517.455.531.176.012.252-.522.407-.436.234.13 1.129.898 1.067.51-.135-.849-1.194-1.796-1.83-2.162-.32-.185-.936-.273-1.43-.316-.558-.79-1.476-1.728-2.196-2.128-.04-.023-.078-.04-.117-.061.201-.582.54-1.499.281-2.034-.07-.144-.247-.235-.485-.233z" fill="#a5ccdf"/><circle r=".938" cx="-42.294" cy="12.222" fill="#3398c3"/></g></svg>