<svg xmlns="http://www.w3.org/2000/svg" width="32" height="32" version="1"><rect width="28.203" height="28.203" x="1.898" y="1.898" ry="5.575" fill="#956a42" fill-rule="evenodd"/><path d="M24.8 25.56V14.21l-1.433-1.446c-.352-.354-2.529-2.288-3.008-2.38l-4.226-3.147-4.77 3.292c-.407.281-2.482 2.014-2.822 2.38l-1.342 1.447V25.56c0 .512.393.924.88.924h15.842c.487 0 .88-.412.88-.924z" fill="#ccc"/><path fill="gray" d="M7.199 14.004h17.602v.734H7.199z"/><rect width="2.934" height="5.139" x="7.933" y="7.397" rx=".523" ry=".562" fill="#4f4f4f"/><rect width="5.134" height="8.075" x="8.666" y="16.94" rx=".77" ry=".757" fill="#956a42"/><path d="M18.109 16.94c-.753 0-1.376.624-1.376 1.377v3.854c0 .753.623 1.376 1.376 1.376h3.85c.752 0 1.375-.623 1.375-1.376v-3.854c0-.753-.623-1.377-1.375-1.377z" fill="#956a42"/><path d="M18.43 18.408a.22.22 0 0 0-.23.23v3.212c0 .135.094.23.23.23h3.208a.22.22 0 0 0 .23-.23v-3.212a.22.22 0 0 0-.23-.23z" fill="#c2eeff"/><ellipse cx="12.333" cy="20.611" rx=".733" ry=".734" fill="#fff"/><path d="M8.82 12.658c-.299.249-.545.46-.643.561L6.77 14.665v-.5h2.05z" opacity=".05"/><path d="M10.866 10.874a58.42 58.42 0 0 0-2.2 1.623v1.507h2.2z" fill="gray"/><path d="M13.066 9.502l-1.915 1.175c-.051.032-.192.133-.285.197v3.13h2.2z" fill="#ccc"/><path d="M15.267 8.152l-2.2 1.35v4.502h2.2z" fill="gray"/><path d="M16.516 7.385l-1.25.767v5.852h2.2v-5.99z" fill="#ccc"/><path d="M17.467 8.015v5.989h2.2V9.47z" fill="gray"/><path d="M19.667 9.47v4.534h2.2V10.83c-.259-.16-.478-.279-.596-.3z" fill="#ccc"/><path d="M21.867 10.83v3.174h2.2V12.43c-.624-.496-1.554-1.2-2.2-1.6z" fill="gray"/><path d="M23.18 12.591v1.573h2.05v.355l-1.504-1.446a15.962 15.962 0 0 0-.547-.482z" opacity=".05"/><path d="M16 7.03l-9.167 7.34M16 7.03l9.167 7.34" fill="none" stroke="#5d5d5d" stroke-width="3" stroke-linecap="round" stroke-linejoin="round"/></svg>