<svg xmlns="http://www.w3.org/2000/svg" height="32" width="32" version="1"><rect width="28.203" height="28.203" x="1.898" y="1.898" ry="5.575" fill="#1194f0" fill-rule="evenodd"/><path d="M15.5 7C13.053 7 10 9.786 10 13.533 10 17.439 12.354 21 15.617 21c1.611 0 2.31-.607 3.383-2-.526 1.827-1.409 2.989-2.824 3.328-1.116.268-2.37-.346-3.176-1.328h-3c.93 2.535 3.264 4 6.072 4 2.066 0 3.698-.799 4.772-2.307.805-1.165 1.156-2.719 1.156-5.14V7.297h-3v1.6S17.947 7 15.5 7zm.443 3C17.76 10 19 11.642 19 14.047 19 16.428 17.796 18 15.98 18 14.165 18 13 16.452 13 14.047 13 11.618 14.166 10 15.943 10z" fill="#fff"/></svg>