<svg xmlns="http://www.w3.org/2000/svg" height="32" width="32" version="1"><rect ry="5.575" y="1.898" x="1.898" height="28.203" width="28.203" fill="#0b4263" fill-rule="evenodd"/><path d="M10.996 25.557c-.014-.438-.025-1.539-.025-2.447v-1.651h-.103a3.44 3.44 0 0 1-2.965-2.755c-.054-.284-.06-.674-.05-3.108.013-3.046.003-2.896.244-3.48.35-.846 1.072-1.561 1.905-1.884.611-.237.351-.228 6.13-.216l5.255.01.275.086c1.287.398 2.217 1.433 2.438 2.716.05.29.057.732.046 3.063-.011 2.676-.013 2.729-.095 3.025-.183.66-.623 1.354-1.116 1.76-.436.358-.816.552-1.407.716-.282.079-.373.082-2.688.095l-2.395.014-.807.723a18862.776 18862.776 0 0 0-4.485 4.013l-.132.116z" fill="#fff"/></svg>