<svg xmlns="http://www.w3.org/2000/svg" height="32" width="32" version="1"><rect width="28.203" height="28.203" x="1.898" y="1.898" ry="5.575" fill="#4d4d4d" fill-rule="evenodd"/><g transform="matrix(.71556 0 0 .71556 4.55 4.193)"><circle r="1" cx="16" cy="4" fill="#535353"/><path d="M15.986 4c-.078 0-.15.015-.225.022-.092.008-.185.01-.274.027-.024.005-.046.015-.07.021-2.357.509-3.555 3.975-3.412 7.28-.002.096-.015.2-.015.295l-9.706 6.221c-.18.09-.275.247-.284.468v3.148c0 .18.078.328.233.442.163.107.34.136.528.087l9.03-2.816 1.398 6.589-3.588 1.6a.53.53 0 0 0-.18.394l.271 2.223 6.308-1 6.308 1 .272-2.222a.53.53 0 0 0-.18-.394l-3.617-1.6 1.427-6.59 9.03 2.817c.19.049.366.02.53-.087a.527.527 0 0 0 .23-.442v-3.148c-.008-.221-.102-.378-.283-.468l-9.707-6.222c0-.095-.007-.198-.01-.295.144-3.305-1.06-6.77-3.416-7.28-.024-.005-.046-.015-.07-.02-.09-.017-.182-.02-.274-.028-.075-.006-.148-.022-.225-.022L16 4.002 15.986 4z" fill="#fead00"/><path d="M9 13.56l-2 1.284v5.845l2-.623zm14 0v6.504l2 .625v-5.845zM6 15.485l-2 1.282v4.859l2-.623zm20 0v5.518l2 .623v-4.857z" fill="#fe5600"/><rect x="11" y="4" width="10" height="1" ry="1" rx=".625" fill="#292929"/><path d="M20 15.333C20 17.911 18.209 20 16 20s-4-2.089-4-4.667C12 12.756 13.791 12 16 12c2.21 0 4 .756 4 3.333z" fill="#292929"/></g></svg>