<svg xmlns="http://www.w3.org/2000/svg" height="32" width="32" version="1"><rect width="28.203" height="28.203" x="1.898" y="1.898" ry="5.575" fill="#1d81e8" fill-rule="evenodd"/><path d="M16 6A10 10 0 0 0 6 16a10 10 0 0 0 10 10 10 10 0 0 0 10-10A10 10 0 0 0 16 6zm-4.777 7a3.027 2.467 76.77 0 1 2.658 2.346 3.027 2.467 76.77 0 1-1.615 3.582 3.027 2.467 76.77 0 1-3.147-2.274 3.027 2.467 76.77 0 1 1.615-3.582 3.027 2.467 76.77 0 1 .489-.072zm9.554 0a2.467 3.027 13.23 0 1 .489.072 2.467 3.027 13.23 0 1 1.615 3.582 2.467 3.027 13.23 0 1-3.147 2.274 2.467 3.027 13.23 0 1-1.615-3.582A2.467 3.027 13.23 0 1 20.777 13z" fill="#ffc05b"/></svg>