<svg xmlns="http://www.w3.org/2000/svg" height="32" width="32" version="1"><rect width="28.203" height="28.203" x="1.898" y="1.898" ry="5.575" fill="#959595" fill-rule="evenodd"/><path d="M16 7.398c-3.008 0-5.577.99-6.641 2.39-.09.117-.169.237-.236.36a2.454 2.454 0 0 0-.163.357 7.17 3.824 0 0 0-.03.112c-.024.082-.05.164-.066.248a7.17 3.824 0 0 0-.034.357c0 .124.014.248.036.371a7.17 3.824 0 0 0 .099.359 7.17 3.824 0 0 0 .166.356 7.17 3.824 0 0 0 .228.347A7.17 3.824 0 0 0 16 15.045a7.17 3.824 0 0 0 6.641-2.39 7.17 3.824 0 0 0 .003-.003 7.17 3.824 0 0 0 .194-.295c.01-.02.025-.039.036-.058a7.17 3.824 0 0 0 .118-.254c.016-.04.037-.08.052-.12a7.17 3.824 0 0 0 .058-.212c.013-.056.028-.112.038-.168a7.17 3.824 0 0 0 .03-.323 7.17 3.824 0 0 0-.038-.381 2.456 2.456 0 0 0-.488-1.056c-1.065-1.4-3.635-2.39-6.642-2.39zm-6.641 7.17A7.17 3.824 0 0 0 8.83 16 7.17 3.824 0 0 0 16 19.825 7.17 3.824 0 0 0 23.17 16a7.17 3.824 0 0 0-.528-1.434A7.17 3.824 0 0 1 16 16.957a7.17 3.824 0 0 1-6.642-2.39zm0 4.779a7.17 3.824 0 0 0-.529 1.434A7.17 3.824 0 0 0 16 24.605a7.17 3.824 0 0 0 7.17-3.824 7.17 3.824 0 0 0-.529-1.434A7.17 3.824 0 0 1 16 21.737a7.17 3.824 0 0 1-6.642-2.39z" fill="#4d4d4d"/></svg>