<svg xmlns="http://www.w3.org/2000/svg" height="32" width="32" version="1"><g transform="translate(47.322 -4.068)"><rect ry="5.575" y="5.966" x="-45.424" height="28.203" width="28.203" fill="#959595" fill-rule="evenodd"/><path d="M-31.322 11.466c-3.008 0-5.577.99-6.641 2.39-.09.117-.17.237-.237.36a2.454 2.454 0 0 0-.162.356 7.17 3.824 0 0 0-.03.112c-.024.083-.051.165-.066.249a7.17 3.824 0 0 0-.034.356c0 .125.013.249.036.372a7.17 3.824 0 0 0 .098.358 7.17 3.824 0 0 0 .166.357 7.17 3.824 0 0 0 .229.347 7.17 3.824 0 0 0 6.64 2.39 7.17 3.824 0 0 0 6.642-2.39 7.17 3.824 0 0 0 .002-.003 7.17 3.824 0 0 0 .195-.295c.01-.02.025-.039.036-.058a7.17 3.824 0 0 0 .118-.254c.016-.04.037-.08.052-.12a7.17 3.824 0 0 0 .058-.213c.013-.056.028-.111.038-.168a7.17 3.824 0 0 0 .03-.323 7.17 3.824 0 0 0-.038-.38 2.456 2.456 0 0 0-.488-1.056c-1.065-1.4-3.635-2.39-6.642-2.39zm-6.641 7.17a7.17 3.824 0 0 0-.529 1.433 7.17 3.824 0 0 0 7.17 3.824 7.17 3.824 0 0 0 7.17-3.824 7.17 3.824 0 0 0-.528-1.434 7.17 3.824 0 0 1-6.642 2.39 7.17 3.824 0 0 1-6.642-2.39zm0 4.779a7.17 3.824 0 0 0-.529 1.434 7.17 3.824 0 0 0 7.17 3.824 7.17 3.824 0 0 0 7.17-3.824 7.17 3.824 0 0 0-.529-1.434 7.17 3.824 0 0 1-6.642 2.39 7.17 3.824 0 0 1-6.641-2.39z" fill="#4d4d4d"/></g><g transform="matrix(.75 0 0 .75 4.433 5.241)" stroke-width=".833"><circle r="8" cy="23" cx="24" fill="#cc5e55" fill-rule="evenodd"/><path d="M23 19l-.088 1.054a3.143 3.143 0 0 0-.919.53l-.957-.45-1 1.732.87.604a3.143 3.143 0 0 0-.049.53 3.143 3.143 0 0 0 .046.532l-.867.602 1 1.732.955-.45a3.143 3.143 0 0 0 .92.528L23 27h2l.088-1.054a3.143 3.143 0 0 0 .919-.53l.957.45 1-1.732-.87-.604a3.143 3.143 0 0 0 .049-.53 3.143 3.143 0 0 0-.046-.532l.867-.602-1-1.732-.955.45a3.143 3.143 0 0 0-.921-.528L25 19h-2zm1 2.857A1.143 1.143 0 0 1 25.143 23 1.143 1.143 0 0 1 24 24.143 1.143 1.143 0 0 1 22.857 23 1.143 1.143 0 0 1 24 21.857z" fill="#fff"/></g></svg>