<svg xmlns="http://www.w3.org/2000/svg" height="32" width="32" version="1"><rect width="28.203" height="28.203" x="1.898" y="1.898" ry="5.575" fill="#f9548f" fill-rule="evenodd"/><path d="M8.07 12.736c.106-.33.125-.528.165-.72-.291.38-.134.461-.165.72m.54-2.293c.052.495-.366.688.092.361.246-.564-.096-.156-.093-.361m8.008-4.335c.228-.085.56-.047.803-.102-.316.026-.63.043-.94.083l.137.019m7.328 9.247l-.05.127a6.189 6.189 0 0 1-.588 1.91 6.1 6.1 0 0 0 .638-2.037m-9.274 2.053c-.118-.132-.186-.291-.265-.45.075.278.227.518.369.761l-.104-.31m-.524.02l-.048.241c.222.307.398.64.68.879-.203-.405-.354-.572-.632-1.12m2.762-11.053l-.127.026.118-.01.009-.016m-.36-.102c.18.033.39.058.36.102.198-.044.242-.084-.36-.102m3.758 8.454c.04-.618-.12-.423-.174-.187.063.034.113.436.174.187m-.668 1.771c.201-.282.348-.591.4-.91-.046.227-.167.423-.282.631-.63.404-.06-.24 0-.485-.678.87-.093.521-.118.764m-1.81.46c-.338.004.063.176.504.245a4.7 4.7 0 0 0 .33-.29c-.274.068-.553.07-.834.044m-9.758-4.22c.106-.331.125-.53.165-.72-.292.38-.135.46-.165.72m.539-2.294c.052.495-.366.688.092.361.247-.564-.095-.156-.092-.361m8.007-4.336c.228-.085.56-.046.802-.102-.315.027-.63.043-.939.083l.137.02m7.328 9.247l-.05.127a6.19 6.19 0 0 1-.587 1.91 6.1 6.1 0 0 0 .637-2.037m-9.274 2.053c-.117-.133-.186-.292-.264-.45.074.279.227.518.368.762l-.104-.312m-.524.02l-.047.241c.222.307.398.64.68.879-.203-.405-.354-.572-.633-1.12M16.91 6.376l-.127.026.118-.01.01-.016m5.03 8.61c.018.519-.147.771-.295 1.218l-.267.138c-.219.441.021.28-.135.631-.342.316-1.035.987-1.257 1.048-.162-.004.11-.199.145-.275-.456.326-.366.49-1.064.688l-.02-.048c-1.722.843-4.114-.827-4.083-3.105-.018.145-.052.108-.09.167-.089-1.172.52-2.35 1.548-2.83 1.005-.518 2.183-.306 2.903.393-.395-.54-1.183-1.11-2.115-1.058-.914.016-1.769.62-2.054 1.276-.468.306-.522 1.181-.726 1.342-.275 2.098.516 3.004 1.854 4.07.21.148.059.17.087.283a3.647 3.647 0 0 1-1.186-.943c.178.27.37.533.617.739-.42-.147-.979-1.056-1.142-1.093.722 1.345 2.93 2.36 4.087 1.856-.535.02-1.215.011-1.816-.22-.253-.135-.596-.415-.535-.467 1.579.613 3.209.464 4.574-.674.348-.282.727-.76.837-.767-.165.258.028.124-.099.352.346-.58-.15-.236.358-1.003l.187.27c-.07-.483.576-1.068.51-1.83.148-.234.165.25.008.786.218-.594.058-.69.114-1.181.06.165.14.34.18.515-.142-.576.146-.969.217-1.303-.07-.032-.219.254-.253-.425.005-.295.079-.154.107-.227-.055-.033-.201-.26-.29-.693.064-.102.172.264.26.28-.057-.346-.154-.608-.158-.873-.256-.557-.09.074-.298-.24-.273-.884.226-.204.26-.606.413.622.648 1.588.757 1.987a8.392 8.392 0 0 0-.38-1.416c.127.055-.202-1.003.164-.302-.392-1.493-1.67-2.888-2.848-3.543.144.137.326.309.261.336-.586-.362-.483-.39-.567-.544-.477-.202-.508.017-.824 0-.899-.496-1.072-.443-1.899-.753l.038.183c-.596-.207-.694.078-1.337 0-.04-.031.206-.115.408-.145-.576.079-.549-.118-1.112.021.138-.1.285-.168.433-.254-.469.03-1.12.284-.92.052-.765.356-2.126.855-2.889 1.6l-.024-.167c-.35.436-1.525 1.304-1.619 1.87l-.093.022c-.182.32-.3.684-.444 1.014-.238.422-.35.162-.315.228-.468.987-.701 1.817-.902 2.497.143.223.004 1.34.057 2.234-.234 4.417 2.98 8.705 6.494 9.694.516.192 1.281.186 1.933.204-.769-.228-.868-.12-1.617-.392-.54-.265-.658-.567-1.04-.912l.15.278c-.75-.276-.436-.342-1.046-.543l.162-.22c-.242-.018-.643-.425-.753-.651l-.267.01c-.32-.41-.49-.705-.477-.935l-.086.16c-.097-.174-1.176-1.539-.617-1.221-.104-.098-.242-.16-.392-.444l.114-.135c-.269-.36-.495-.823-.478-.977.144.202.243.24.342.274-.68-1.755-.718-.096-1.233-1.786l.108-.01c-.083-.13-.134-.272-.2-.412l.047-.491c-.49-.589-.137-2.504-.066-3.554.048-.427.408-.882.681-1.595l-.166-.03c.319-.578 1.819-2.321 2.514-2.232.337-.44-.067-.001-.133-.112.74-.796.973-.562 1.472-.706.538-.332-.462.13-.207-.126.93-.247.66-.562 1.873-.688.128.076-.297.117-.404.216.776-.395 2.454-.305 3.544.218 1.264.615 2.686 2.433 2.742 4.142l.064.018c-.032.68.1 1.466-.13 2.188l.156-.342m-5.387-8.712c.18.033.389.058.359.102.197-.044.242-.084-.36-.102m3.759 8.455c.04-.619-.12-.423-.174-.187.063.033.113.436.174.187m-.67 1.771c.202-.283.349-.592.4-.911-.045.228-.166.424-.28.632-.631.404-.06-.24-.001-.485-.678.87-.093.521-.118.764m-1.81.46c-.337.004.063.176.504.245.122-.097.232-.194.33-.29a2.46 2.46 0 0 1-.834.044" fill="#fff"/></svg>