<svg xmlns="http://www.w3.org/2000/svg" height="32" width="32" version="1"><rect width="28.203" height="28.203" x="1.898" y="1.898" ry="5.575" fill="#e6e6e6" fill-rule="evenodd"/><g fill-rule="evenodd"><path d="M30.102 18.03l-1.194-1.59-1.783 2.376 1.783 2.377 1.194-1.59z" fill="#e82d2d"/><path d="M30.102 8.12h-13.91c-.428 0-.815.176-1.094.462-.28.286-.452.682-.452 1.121.366 1.35.46 2.69.366 3.877-.094 1.187-.373 2.219-.748 2.945-.376.727-.848 1.148-1.328 1.118-.24-.016-.484-.144-.717-.405-.234-.26-.458-.652-.662-1.195-.278-.723-.61-1.324-1.092-1.74-.483-.417-1.115-.65-1.998-.637h-.774a.779.779 0 0 0-.771.791v1.586a.78.78 0 0 0 .771.793h.774v1.584c.072 1.257.182 2.247.336 3.033.154.786.35 1.37.6 1.813.248.443.547.747.904.974.356.228.771.38 1.25.52.659.239 1.182.472 1.595.746.414.274.716.59.938.99.419.759.515 1.917.527 3.606h9.91a5.561 5.561 0 0 0 5.575-5.575v-4.923l-1.194 1.59-1.783-2.378 1.783-2.377 1.194 1.59z" fill="#fec006"/><path d="M29.992 6.93H16.176c-.058 0-.11.016-.166.023a8.32 3.17 0 0 0-.27.299 8.32 3.17 0 0 0-.187.309 8.32 3.17 0 0 0-.108.314 8.32 3.17 0 0 0-.025.244 8.32 3.17 0 0 0 .025.201c.218-.125.465-.2.73-.2h13.926v-.647c0-.193-.09-.356-.109-.543z" fill="#cba42d"/><path d="M15.525 7.643a8.32 3.17 0 0 0-.068.175 8.32 3.17 0 0 0-.004.036 8.32 3.17 0 0 1 .072-.211zM15.701 7.318a8.32 3.17 0 0 0-.123.186 8.32 3.17 0 0 0-.015.04 8.32 3.17 0 0 1 .138-.226zM15.992 6.973a8.32 3.17 0 0 0-.213.224 8.32 3.17 0 0 0-.027.041 8.32 3.17 0 0 1 .24-.265z" fill="#e6e6e6"/><path d="M29.701 5.914a8.32 3.17 0 0 0-.17-.068 8.32 3.17 0 0 0-.625-.21 8.32 3.17 0 0 0-.677-.183 8.32 3.17 0 0 0-.721-.158 8.32 3.17 0 0 0-.76-.129A8.32 3.17 0 0 0 26 5.07a2.27 1.585 0 0 0 .01-.12 2.27 1.585 0 0 0-.012-.159 2.27 1.585 0 0 0-.033-.158 2.27 1.585 0 0 0-.057-.153 2.27 1.585 0 0 0-.078-.148 2.27 1.585 0 0 0-.1-.143 2.27 1.585 0 0 0-.117-.136 2.27 1.585 0 0 0-.136-.125 2.27 1.585 0 0 0-.157-.115 2.27 1.585 0 0 0-.17-.106 2.27 1.585 0 0 0-.183-.092 2.27 1.585 0 0 0-.197-.078 2.27 1.585 0 0 0-.207-.066 2.27 1.585 0 0 0-.215-.05 2.27 1.585 0 0 0-.223-.034 2.27 1.585 0 0 0-.225-.02 2.27 1.585 0 0 0-.16-.004 2.27 1.585 0 0 0-.226.008 2.27 1.585 0 0 0-.225.024 2.27 1.585 0 0 0-.22.04 2.27 1.585 0 0 0-.214.053 2.27 1.585 0 0 0-.203.07 2.27 1.585 0 0 0-.193.083 2.27 1.585 0 0 0-.182.095 2.27 1.585 0 0 0-.166.108 2.27 1.585 0 0 0-.148.119 2.27 1.585 0 0 0-.133.129 2.27 1.585 0 0 0-.113.138 2.27 1.585 0 0 0-.092.145 2.27 1.585 0 0 0-.072.15 2.27 1.585 0 0 0-.05.155 2.27 1.585 0 0 0-.026.156 2.27 1.585 0 0 0-.006.113 2.27 1.585 0 0 0 .007.12 8.32 3.17 0 0 0-.789.1 8.32 3.17 0 0 0-.757.132 8.32 3.17 0 0 0-.72.16 8.32 3.17 0 0 0-.673.185 8.32 3.17 0 0 0-.623.21 8.32 3.17 0 0 0-.564.232 8.32 3.17 0 0 0-.5.254 8.32 3.17 0 0 0-.432.271 8.32 3.17 0 0 0-.358.285 8.32 3.17 0 0 0-.05.055c.055-.007.106-.023.164-.023h13.816c-.036-.363-.191-.677-.29-1.016z" fill="#fecd38"/><path d="M7.473 1.898a5.561 5.561 0 0 0-5.575 5.575v17.054a5.561 5.561 0 0 0 5.575 5.575h7.144c-.012-1.69-.108-2.847-.527-3.606a2.777 2.777 0 0 0-.938-.99c-.413-.274-.936-.507-1.595-.746-.479-.14-.894-.292-1.25-.52a2.646 2.646 0 0 1-.905-.974c-.248-.443-.445-1.027-.6-1.813-.153-.786-.263-1.776-.335-3.033v-1.584h-.774a.78.78 0 0 1-.771-.793v-1.586c0-.439.343-.791.771-.791h.774c.883-.013 1.515.22 1.998.637.482.416.814 1.017 1.092 1.74.204.543.428.935.662 1.195.233.26.476.39.717.405.48.03.952-.391 1.328-1.118.375-.726.654-1.758.748-2.945.093-1.186 0-2.528-.366-3.877 0-.439.172-.835.452-1.121.279-.286.666-.463 1.093-.463h-.015c-.266 0-.513.076-.73.201a8.32 3.17 0 0 1-.026-.2 8.32 3.17 0 0 1 .025-.245 8.32 3.17 0 0 1 .008-.021 8.32 3.17 0 0 1 .004-.036 8.32 3.17 0 0 1 .068-.175 8.32 3.17 0 0 1 .028-.082 8.32 3.17 0 0 1 .01-.016 8.32 3.17 0 0 1 .015-.041 8.32 3.17 0 0 1 .123-.186 8.32 3.17 0 0 1 .04-.066 8.32 3.17 0 0 1 .011-.014 8.32 3.17 0 0 1 .027-.04 8.32 3.17 0 0 1 .213-.225 8.32 3.17 0 0 1 .018-.02h.002a8.32 3.17 0 0 1 .05-.055 8.32 3.17 0 0 1 .358-.285 8.32 3.17 0 0 1 .432-.271 8.32 3.17 0 0 1 .5-.254 8.32 3.17 0 0 1 .564-.233 8.32 3.17 0 0 1 .623-.209 8.32 3.17 0 0 1 .674-.185 8.32 3.17 0 0 1 .719-.16 8.32 3.17 0 0 1 .758-.131 8.32 3.17 0 0 1 .789-.102 2.27 1.585 0 0 1-.008-.119 2.27 1.585 0 0 1 .006-.113 2.27 1.585 0 0 1 .027-.156 2.27 1.585 0 0 1 .049-.155 2.27 1.585 0 0 1 .072-.15 2.27 1.585 0 0 1 .092-.145 2.27 1.585 0 0 1 .113-.138 2.27 1.585 0 0 1 .133-.13 2.27 1.585 0 0 1 .148-.118 2.27 1.585 0 0 1 .166-.108 2.27 1.585 0 0 1 .182-.095 2.27 1.585 0 0 1 .193-.082 2.27 1.585 0 0 1 .203-.07 2.27 1.585 0 0 1 .213-.053 2.27 1.585 0 0 1 .221-.041 2.27 1.585 0 0 1 .225-.024 2.27 1.585 0 0 1 .226-.008 2.27 1.585 0 0 1 .16.004 2.27 1.585 0 0 1 .225.02 2.27 1.585 0 0 1 .223.035 2.27 1.585 0 0 1 .215.049 2.27 1.585 0 0 1 .207.066 2.27 1.585 0 0 1 .197.078 2.27 1.585 0 0 1 .183.092 2.27 1.585 0 0 1 .17.106 2.27 1.585 0 0 1 .157.115 2.27 1.585 0 0 1 .136.125 2.27 1.585 0 0 1 .117.136 2.27 1.585 0 0 1 .1.143 2.27 1.585 0 0 1 .078.148 2.27 1.585 0 0 1 .057.153 2.27 1.585 0 0 1 .033.158 2.27 1.585 0 0 1 .012.158 2.27 1.585 0 0 1-.01.121 8.32 3.17 0 0 1 .748.096 8.32 3.17 0 0 1 .76.129 8.32 3.17 0 0 1 .72.158 8.32 3.17 0 0 1 .678.184 8.32 3.17 0 0 1 .625.209 8.32 3.17 0 0 1 .17.068c-.676-2.297-2.65-4.016-5.174-4.016z" fill="#e6e6e6"/><path d="M18.21 16.44l-1.782 2.376 1.783 2.377 1.783-2.377z" fill="#e82d2d"/><path d="M18.21 16.44l1.784 2.376-1.783 2.377-1.783-2.377zM23.566 15.248l-2.377 3.566 2.377 3.567 2.38-3.567z" fill="#e82d2d"/><path d="M23.566 15.248l2.38 3.566-2.38 3.567-2.377-3.567z" fill="#e82d2d"/></g></svg>