<svg xmlns="http://www.w3.org/2000/svg" height="32" width="32" version="1"><rect width="28.203" height="28.203" x="1.898" y="1.898" ry="5.575" fill="#6e6e6e" fill-rule="evenodd"/><g transform="translate(53.4 -2.089)"><ellipse transform="matrix(.8425 -.5387 .4344 .90072 0 0)" ry="7.334" rx="9.741" cy="-5.142" cx="-42.177" fill="#fff"/><rect transform="matrix(0 -1 -1 0 0 0)" rx="2.568" ry="2.568" height="5.135" width="5.135" y="35.567" x="-13.32" fill="#3e3e3e"/><rect x="-12.586" y="36.3" width="3.668" height="3.668" ry="1.834" rx="1.834" transform="matrix(0 -1 -1 0 0 0)" fill="#66f"/><rect x="-18.455" y="26.763" width="5.135" height="5.135" ry="2.568" rx="2.568" transform="matrix(0 -1 -1 0 0 0)" fill="#3e3e3e"/><rect transform="matrix(0 -1 -1 0 0 0)" rx="1.834" ry="1.834" height="3.668" width="3.668" y="27.497" x="-17.722" fill="#66f"/><rect transform="matrix(0 -1 -1 0 0 0)" rx="2.568" ry="2.568" height="5.135" width="5.135" y="42.903" x="-19.923" fill="#3e3e3e"/><rect x="-19.189" y="43.637" width="3.668" height="3.668" ry="1.834" rx="1.834" transform="matrix(0 -1 -1 0 0 0)" fill="#66f"/><rect x="-27.993" y="40.702" width="5.135" height="5.135" ry="2.568" rx="2.568" transform="matrix(0 -1 -1 0 0 0)" fill="#3e3e3e"/><rect transform="matrix(0 -1 -1 0 0 0)" rx="1.834" ry="1.834" height="3.668" width="3.668" y="41.436" x="-27.259" fill="#66f"/><rect transform="matrix(0 -1 -1 0 0 0)" rx="2.568" ry="2.568" height="5.135" width="5.135" y="31.165" x="-26.525" fill="#3e3e3e"/><rect x="-25.792" y="31.898" width="3.668" height="3.668" ry="1.834" rx="1.834" transform="matrix(0 -1 -1 0 0 0)" fill="#66f"/></g></svg>