<svg xmlns="http://www.w3.org/2000/svg" height="32" width="32"><rect width="28.203" height="28.203" x="1.898" y="1.898" ry="5.575" fill="#3f3f3f" fill-rule="evenodd"/><g transform="translate(5.793 5.793) scale(.63796)" stroke-width="1.567"><path d="M17.16 29.946C23.351 29.62 28.144 28.574 30 28c-3.082-.995-3-5-1.846-7.09z" fill="#ccc"/><ellipse transform="matrix(.9842 .17701 -.17034 .98538 0 0)" cx="13.054" cy="10.848" rx="2.967" ry="4.024" opacity=".1" fill-rule="evenodd"/><ellipse transform="matrix(.98434 -.1763 .17103 .98527 0 0)" cx="18.467" cy="16.499" rx="2.966" ry="4.025" opacity=".1" fill-rule="evenodd"/><g fill-rule="evenodd"><ellipse cx="16" cy="16" rx="13" ry="14" fill="#ccc"/><circle cx="28" cy="11" r="3" fill="#ccc"/><circle cx="4" cy="11" r="3" fill="#ccc"/><ellipse transform="matrix(.9842 .17701 -.17034 .98538 0 0)" cx="12.884" cy="9.864" rx="2.967" ry="4.024" fill="#3f3f3f"/><ellipse transform="matrix(.98434 -.1763 .17103 .98527 0 0)" cx="18.638" cy="15.515" rx="2.966" ry="4.025" fill="#3f3f3f"/></g></g></svg>