<svg xmlns="http://www.w3.org/2000/svg" width="32" height="32"><defs><linearGradient id="a"><stop offset="0"/><stop offset="1" stop-opacity="0"/></linearGradient></defs><rect width="28.203" height="28.203" x="1.898" y="1.898" ry="5.575" fill="#ffda00" fill-rule="evenodd"/><g fill-rule="evenodd"><path d="M19.227 12.273a6.32 6.32 0 0 0-.631.032 6.32 6.32 0 0 0-.623.093 6.32 6.32 0 0 0-.614.157 6.32 6.32 0 0 0-.593.216 6.32 6.32 0 0 0-.569.276 6.32 6.32 0 0 0-.539.33 6.32 6.32 0 0 0-.502.383 6.32 6.32 0 0 0-.463.43 6.32 6.32 0 0 0-.416.474 6.32 6.32 0 0 0-.367.514 6.32 6.32 0 0 0-.314.549 6.32 6.32 0 0 0-.258.576 6.32 6.32 0 0 0-.2.6 6.32 6.32 0 0 0-.138.617 6.32 6.32 0 0 0-.076.626 6.32 6.32 0 0 0-.016.448 6.32 6.32 0 0 0 .031.63 6.32 6.32 0 0 0 .094.624 6.32 6.32 0 0 0 .156.613 6.32 6.32 0 0 0 .217.594 6.32 6.32 0 0 0 .276.568 6.32 6.32 0 0 0 .33.54 6.32 6.32 0 0 0 .383.501 6.32 6.32 0 0 0 .43.463 6.32 6.32 0 0 0 .474.416 6.32 6.32 0 0 0 .513.367 6.32 6.32 0 0 0 .55.315 6.32 6.32 0 0 0 .575.257 6.32 6.32 0 0 0 .6.2 6.32 6.32 0 0 0 .615.138 6.32 6.32 0 0 0 .627.076 6.32 6.32 0 0 0 .448.016 6.32 6.32 0 0 0 .63-.031 6.32 6.32 0 0 0 .625-.094 6.32 6.32 0 0 0 .614-.156 6.32 6.32 0 0 0 .591-.217 6.32 6.32 0 0 0 .57-.275 6.32 6.32 0 0 0 .538-.33 6.32 6.32 0 0 0 .504-.383 6.32 6.32 0 0 0 .46-.43 6.32 6.32 0 0 0 .419-.475 6.32 6.32 0 0 0 .367-.513 6.32 6.32 0 0 0 .314-.549 6.32 6.32 0 0 0 .258-.576 6.32 6.32 0 0 0 .2-.6 6.32 6.32 0 0 0 .138-.617 6.32 6.32 0 0 0 .076-.627 6.32 6.32 0 0 0 .016-.445 6.32 6.32 0 0 0-.031-.633 6.32 6.32 0 0 0-.096-.623 6.32 6.32 0 0 0-.156-.613 6.32 6.32 0 0 0-.215-.594 6.32 6.32 0 0 0-.276-.569 6.32 6.32 0 0 0-.33-.537 6.32 6.32 0 0 0-.382-.504 6.32 6.32 0 0 0-.43-.462 6.32 6.32 0 0 0-.475-.416 6.32 6.32 0 0 0-.513-.368 6.32 6.32 0 0 0-.55-.314 6.32 6.32 0 0 0-.575-.258 6.32 6.32 0 0 0-.6-.2 6.32 6.32 0 0 0-.617-.138 6.32 6.32 0 0 0-.627-.076 6.32 6.32 0 0 0-.447-.016z" fill="#ff3737"/><path d="M2.084 15.617a6.32 6.32 0 0 0-.01.268 6.32 6.32 0 0 0 .031.63 6.32 6.32 0 0 0 .094.626 6.32 6.32 0 0 0 .156.611 6.32 6.32 0 0 0 .217.594 6.32 6.32 0 0 0 .276.568 6.32 6.32 0 0 0 .33.54 6.32 6.32 0 0 0 .383.501 6.32 6.32 0 0 0 .43.463 6.32 6.32 0 0 0 .474.416 6.32 6.32 0 0 0 .513.37 6.32 6.32 0 0 0 .55.312 6.32 6.32 0 0 0 .575.26 6.32 6.32 0 0 0 .6.199 6.32 6.32 0 0 0 .617.136 6.32 6.32 0 0 0 .627.076 6.32 6.32 0 0 0 .447.016 6.32 6.32 0 0 0 .631-.031 6.32 6.32 0 0 0 .623-.094 6.32 6.32 0 0 0 .614-.156 6.32 6.32 0 0 0 .593-.217 6.32 6.32 0 0 0 .569-.275 6.32 6.32 0 0 0 .537-.33 6.32 6.32 0 0 0 .504-.381 6.32 6.32 0 0 0 .463-.432 6.32 6.32 0 0 0 .168-.191 6.32 6.32 0 0 1-.063-.248 6.32 6.32 0 0 1-.094-.623 6.32 6.32 0 0 1-.03-.631 6.32 6.32 0 0 1 .015-.448A6.32 6.32 0 0 1 13 17.52a6.32 6.32 0 0 1 .139-.618 6.32 6.32 0 0 1 .199-.6 6.32 6.32 0 0 1 .258-.575 6.32 6.32 0 0 1 .314-.55 6.32 6.32 0 0 1 .367-.513 6.32 6.32 0 0 1 .248-.283 6.32 6.32 0 0 0-.093-.363 6.32 6.32 0 0 0-.217-.594 6.32 6.32 0 0 0-.276-.569 6.32 6.32 0 0 0-.33-.539 6.32 6.32 0 0 0-.382-.503 6.32 6.32 0 0 0-.43-.461 6.32 6.32 0 0 0-.475-.418 6.32 6.32 0 0 0-.513-.368 6.32 6.32 0 0 0-.55-.314 6.32 6.32 0 0 0-.575-.258 6.32 6.32 0 0 0-.6-.2 6.32 6.32 0 0 0-.617-.138 6.32 6.32 0 0 0-.487-.058c-.293.354-.483.72-.814 1.064-.877.91-1.858 1.767-2.775 2.514-1.772 1.442-3.204 2.374-3.307 2.441z" fill="#c72828"/><path d="M19.844 12.31a6.32 6.32 0 0 1 .457.055 6.32 6.32 0 0 1 .617.139 6.32 6.32 0 0 1 .6.2 6.32 6.32 0 0 1 .576.257 6.32 6.32 0 0 1 .549.314 6.32 6.32 0 0 1 .513.368 6.32 6.32 0 0 1 .475.416 6.32 6.32 0 0 1 .43.462 6.32 6.32 0 0 1 .382.504 6.32 6.32 0 0 1 .33.538 6.32 6.32 0 0 1 .276.568 6.32 6.32 0 0 1 .215.594 6.32 6.32 0 0 1 .156.613 6.32 6.32 0 0 1 .096.623 6.32 6.32 0 0 1 .03.633 6.32 6.32 0 0 1-.015.445 6.32 6.32 0 0 1-.076.627 6.32 6.32 0 0 1-.139.617 6.32 6.32 0 0 1-.199.6 6.32 6.32 0 0 1-.258.576 6.32 6.32 0 0 1-.314.549 6.32 6.32 0 0 1-.367.513 6.32 6.32 0 0 1-.418.475 6.32 6.32 0 0 1-.461.43 6.32 6.32 0 0 1-.504.383 6.32 6.32 0 0 1-.537.33 6.32 6.32 0 0 1-.57.275 6.32 6.32 0 0 1-.592.217 6.32 6.32 0 0 1-.614.156 6.32 6.32 0 0 1-.625.094 6.32 6.32 0 0 1-.63.031 6.32 6.32 0 0 1-.448-.016 6.32 6.32 0 0 1-.627-.076 6.32 6.32 0 0 1-.615-.138 6.32 6.32 0 0 1-.6-.2 6.32 6.32 0 0 1-.576-.257 6.32 6.32 0 0 1-.549-.315 6.32 6.32 0 0 1-.513-.367 6.32 6.32 0 0 1-.475-.416 6.32 6.32 0 0 1-.43-.463 6.32 6.32 0 0 1-.382-.502 6.32 6.32 0 0 1-.33-.539 6.32 6.32 0 0 1-.276-.568 6.32 6.32 0 0 1-.217-.594 6.32 6.32 0 0 1-.093-.365 6.32 6.32 0 0 1-.168.191 6.32 6.32 0 0 1-.463.432 6.32 6.32 0 0 1-.504.38 6.32 6.32 0 0 1-.537.33 6.32 6.32 0 0 1-.569.276 6.32 6.32 0 0 1-.593.217 6.32 6.32 0 0 1-.614.156 6.32 6.32 0 0 1-.623.094 6.32 6.32 0 0 1-.63.031 6.32 6.32 0 0 1-.448-.015 6.32 6.32 0 0 1-.627-.077 6.32 6.32 0 0 1-.617-.136 6.32 6.32 0 0 1-.6-.2 6.32 6.32 0 0 1-.576-.26 6.32 6.32 0 0 1-.548-.312 6.32 6.32 0 0 1-.514-.369 6.32 6.32 0 0 1-.475-.416 6.32 6.32 0 0 1-.43-.463 6.32 6.32 0 0 1-.382-.502 6.32 6.32 0 0 1-.33-.539 6.32 6.32 0 0 1-.276-.568 6.32 6.32 0 0 1-.217-.594 6.32 6.32 0 0 1-.156-.611 6.32 6.32 0 0 1-.094-.625 6.32 6.32 0 0 1-.03-.631 6.32 6.32 0 0 1 .009-.268l-.117.086-.069.045v8.777a5.563 5.563 0 0 0 5.575 5.577h17.052a5.565 5.565 0 0 0 5.577-5.577V7.473a5.563 5.563 0 0 0-5.577-5.575H13.658c.012.01.01.007.022.016.834.64 1.726 1.347 2.537 2.123.81.776 1.542 1.62 2.058 2.531.537.947.903 2.057 1.164 3.203.194.85.295 1.7.405 2.54z" fill="#ffda00"/><path d="M12.57 11.152a6.32 6.32 0 0 1 .227.2 6.32 6.32 0 0 1 .43.46 6.32 6.32 0 0 1 .382.504 6.32 6.32 0 0 1 .33.54 6.32 6.32 0 0 1 .276.568 6.32 6.32 0 0 1 .217.594 6.32 6.32 0 0 1 .093.363 6.32 6.32 0 0 1 .168-.192 6.32 6.32 0 0 1 .463-.43 6.32 6.32 0 0 1 .502-.382 6.32 6.32 0 0 1 .54-.33 6.32 6.32 0 0 1 .568-.276 6.32 6.32 0 0 1 .048-.017c-.267-1.81-.646-3.822-1.148-4.707-.45-.794-1.855-2.026-3.148-3.1.122.485.264.948.353 1.448.173.963.262 1.937.176 2.857-.06.642-.265 1.275-.477 1.9zM9.953 8.328c-.304.424-.623.846-.973 1.27a6.32 6.32 0 0 1 .487.058 6.32 6.32 0 0 1 .316.07c.059-.217.264-.604.278-.751.012-.132-.102-.476-.108-.647z" fill="#ffda00"/><path d="M9.953 8.328c.006.171.12.515.108.647-.014.147-.22.534-.278.752a6.32 6.32 0 0 1 .301.068 6.32 6.32 0 0 1 .6.2 6.32 6.32 0 0 1 .576.257 6.32 6.32 0 0 1 .549.314 6.32 6.32 0 0 1 .513.368 6.32 6.32 0 0 1 .248.218c.212-.625.417-1.258.477-1.9.086-.92-.003-1.894-.176-2.857-.09-.5-.231-.963-.353-1.448-.273-.226-.394-.446-.663-.652-.483-.37-.497-.347-.908-.637.056.445.17.85.147 1.33a6.682 6.682 0 0 1-.772 2.858c-.086.162-.254.321-.369.482z" fill="#1f711f"/><path d="M10.947 3.658c.411.29.425.266.908.637 1.548 1.185 3.266 2.79 3.811 3.752.502.885.881 2.897 1.148 4.707a6.32 6.32 0 0 1 .545-.2 6.32 6.32 0 0 1 .614-.156 6.32 6.32 0 0 1 .623-.093 6.32 6.32 0 0 1 .63-.032 6.32 6.32 0 0 1 .448.016 6.32 6.32 0 0 1 .17.022c-.11-.84-.21-1.69-.405-2.54-.261-1.146-.627-2.256-1.164-3.203-.516-.91-1.247-1.755-2.058-2.53-.811-.777-1.703-1.484-2.537-2.124l-.022-.016h-3.053c.091.262.128.21.206.514.094.37.084.83.136 1.246z" fill="#248424"/><path d="M1.898 15.748l.069-.045s1.59-1.034 3.424-2.527c.917-.747 1.898-1.605 2.775-2.514.877-.91 1.65-1.87 2.156-2.816a6.682 6.682 0 0 0 .772-2.858 8.785 8.785 0 0 0-.283-2.576c-.078-.304-.115-.252-.206-.514H7.472a5.561 5.561 0 0 0-5.574 5.575z" fill="#32b632"/></g></svg>