<svg xmlns="http://www.w3.org/2000/svg" height="32" width="32"><rect width="28.203" height="28.203" x="1.898" y="1.898" ry="5.575" fill="#4bae4f" fill-rule="evenodd"/><path d="M24.3 24.532a1.911 1.911 0 0 1-.74-.454 1.155 1.155 0 0 1-.178-.222c0-.018.257-.178.573-.356l.676-.382.689-.394.586-.336.088.188c.123.263.117.754-.013 1.102-.115.307-.367.57-.721.75-.235.12-.745.175-.96.104zm-1.297-1.346c-.14-.24-.633-1.096-.785-1.365-.071-.126-.259-.447-.418-.714-.418-.703-.637-1.114-.61-1.142.014-.014.46-.275.993-.581.533-.306 1.088-.628 1.235-.715l.266-.159.275.47c.152.258.374.641.494.852l.485.842c.626 1.081.694 1.212.654 1.25-.037.034-.635.384-1.242.727-.098.055-.412.236-.698.4-.287.166-.528.3-.536.3a.835.835 0 0 1-.113-.165zm-4.207-3.569c-2.011-.126-3.737-1.245-4.783-3.101-.17-.303-.42-.973-.54-1.454-.165-.656-.164-1.98.003-2.648.289-1.16.79-2.049 1.61-2.862.857-.848 1.774-1.343 2.934-1.585a5.895 5.895 0 0 1 6.888 4.108 5.894 5.894 0 0 1-1.475 5.82c-1.067 1.067-2.317 1.63-3.878 1.745a8.991 8.991 0 0 1-.759-.023zm1.677-1.094c2.692-.683 4.307-3.514 3.512-6.158-.457-1.52-1.522-2.673-2.995-3.24-1.278-.494-2.908-.39-4.076.258-.493.274-.73.453-1.134.855-.576.574-.856.99-1.13 1.68a4.929 4.929 0 0 0 1.17 5.373c1.276 1.218 2.954 1.663 4.653 1.232z" fill="#fff"/><text style="line-height:1.25" x="15.448" y="16.8" font-weight="400" font-size="9.01" font-family="sans-serif" letter-spacing="0" word-spacing="0" fill="#c6fbcf"><tspan x="15.448" y="16.8">G</tspan></text><path d="M6.153 14.052c-.318-.198-.313-.865.008-1.057.097-.058.635-.072 2.9-.072h2.78l-.024.118a8.894 8.894 0 0 0-.063.536c-.022.23-.046.447-.053.483-.02.099-5.389.091-5.548-.008zm-.037-2.756c-.11-.076-.198-.318-.198-.542 0-.15.028-.233.124-.37l.124-.178h3.271c1.8 0 3.271.016 3.271.035 0 .02-.072.19-.161.379-.089.189-.19.432-.226.54l-.064.195-3.033-.003c-1.96-.002-3.06-.022-3.108-.056zm.035-2.71c-.134-.077-.233-.31-.233-.546 0-.279.152-.523.355-.57.198-.047 9.21-.042 9.21.005-.001.022-.12.093-.265.159-.307.139-.81.493-1.126.794l-.22.21-3.822-.004c-2.102-.001-3.857-.023-3.899-.048z" fill="#c6fbcf"/></svg>