<svg xmlns="http://www.w3.org/2000/svg" height="32" width="32"><rect width="28.203" height="28.203" x="1.898" y="1.898" ry="5.575" fill="#f5edf3" fill-rule="evenodd"/><path d="M9.176 7.873c2.468 6.95 13.024 5.582 16.493-1.243 3.16 18.263-9.196 19.5-17.284 13.782.343-3.894.908-6.989.791-12.54z" fill="#5c5544"/><g transform="translate(-37.844 2.136) scale(.86327)" fill-rule="evenodd"><ellipse ry="3.617" rx="3.929" cy="13.407" cx="63.387" fill="#ccc"/><ellipse ry="3.501" rx="3.803" cy="13.385" cx="63.363" fill="#f2f2f2"/><circle r="1.727" cy="14.183" cx="64.179" fill="#485256"/><circle r="1.169" cy="14.173" cx="64.168" fill="#0b0d0d"/><circle r=".824" cy="13.477" cx="63.453" fill="#fff"/></g><g transform="matrix(.05325 0 0 .05325 24.065 16.024)" stroke-width="20.977" fill-rule="evenodd"><ellipse transform="rotate(-37.17)" ry="73" rx="51" cy="-183.2" cx="-266.443" fill="#2a3032"/><ellipse ry="26.25" rx="20" cy="-9.75" cx="-348" fill="#fff"/></g><path d="M15.514 19.819c1.68.218 3.375.33 4.652-1.071-.16-.32-.39-.526-.628-.775.99.288 1.755 1.02 1.626 2.316l-.645-.527c-2.633 1.6-3.985.345-5.005.057z" fill="#010100"/><g transform="matrix(.04071 .0044 -.0044 .04071 28.084 17.935)" stroke-width="20.977"><path d="M-193.289 67.575c34.302 25.43 69.555 45.587 107.187 59.025l14.143-33.234c-32.414-16.886-65.455-32.935-101.824-44.547-14 1.178-18.122 7.616-19.506 18.756z" fill="#673907"/><path d="M-188 56c25.81 23.322 63.187 42.562 100 62l9.75-20.5C-120.13 78.04-156.787 64.127-188 56z" fill="#bd680e"/><path d="M-90.5 131.25c-3.195-17.454 3.196-31.712 20-42.5l3.25 9.5 41.5 25.75-13.5 20.5-43.75-17z" fill="#888a85"/><path d="M-82 118.25l50.25 21L-27 127l-45-24.25z" fill="#d8d8d8"/><path d="M-37.925 126.515c-2.874 3.208-4.517 5.332-5.395 8.453-11.08 39.366 30.125 42.867 72.57 63.782-2.776-36.751-34.622-100.629-67.175-72.235z" fill="#242424"/><circle r="12.198" cy="136.121" cx="-21.213" fill="#a9a9a9" fill-rule="evenodd"/><path d="M9.37 170.328C4.901 161.67.421 153.044-5.658 148.76c-3.653-4.327 2.98-7.448 5.127-4.243 5.037 6.55 7.372 16.293 9.9 25.81z" fill="#696969"/></g><g transform="translate(-25.028 6.589) scale(.57143)" fill-rule="evenodd"><ellipse ry="3.617" rx="3.929" cy="13.407" cx="63.387" fill="#ccc"/><ellipse ry="3.501" rx="3.803" cy="13.385" cx="63.363" fill="#f2f2f2"/><circle r="1.727" cy="14.183" cx="64.179" fill="#485256"/><circle r="1.169" cy="14.173" cx="64.168" fill="#0b0d0d"/><circle r=".824" cy="13.477" cx="63.453" fill="#fff"/></g></svg>