<svg xmlns="http://www.w3.org/2000/svg" height="32" width="32"><rect width="28.203" height="28.203" x="1.898" y="1.898" ry="5.575" fill="#7e100e" fill-rule="evenodd"/><g transform="matrix(.83918 0 0 .83918 39.405 5.334)" stroke-width="1.192"><path d="M-34.07 2.117h12.358l.883 1.766V22.42l-.883.883H-34.07l-.883-.883V3.883z" fill="#c2352a"/><path d="M-34.07 1.235h12.358v.882H-34.07zM-34.953 3.883h14.124v.883h-14.124zM-34.953 21.537h14.124v.883h-14.124zM-34.07 23.303h12.358v.883H-34.07z" fill="#fff"/><path d="M-34.098 4.342l7.651 8.06M-30.098 8.316v7.042" fill="none" stroke="#fff"/><circle r="2.207" cx="-25.684" cy="13.152" fill="#fff"/><circle r="2.207" cx="-30.098" cy="16.682" fill="#fff"/><circle r="2.207" cx="-30.098" cy="8.738" fill="#fff"/></g></svg>