<svg xmlns="http://www.w3.org/2000/svg" width="32" height="32" version="1"><rect width="28.203" height="28.203" x="1.898" y="1.898" ry="5.575" opacity=".98" fill="#4f4f4f" fill-rule="evenodd"/><path d="M23.31 9.12c-.425-.02-1.626.073-3.503 1.379-2.01-.606-4.166-.7-6.577 0-1.877-1.306-2.836-1.397-3.262-1.377-.143.007-.211.028-.211.028-.714 1.852-.263 3.22-.127 3.56-.839.94-1.351 2.14-1.351 3.609 0 5.154 3.06 6.307 5.97 6.647-.374.336-.713.93-.832 1.8-.746.344-2.646.937-3.814-1.119 0 0-.692-1.292-2.007-1.387 0 0-1.28-.016-.09.818 0 0 .86.414 1.456 1.968 0 0 .768 2.616 4.413 1.803.006.99.013 1.628.015 2.016.86.167 1.734.252 2.61.254a13.897 13.897 0 0 0 3.893-.565c.003-.625.012-1.592.012-3.107 0-1.254-.417-2.075-.887-2.49C21.937 22.623 25 21.485 25 16.318c0-1.468-.508-2.67-1.348-3.609.134-.34.585-1.708-.13-3.56 0 0-.069-.023-.21-.03z" fill="#fff"/></svg>