<svg xmlns="http://www.w3.org/2000/svg" height="32" width="32" version="1"><rect width="28.203" height="28.203" x="1.898" y="1.898" ry="5.575" fill="#4f4f4f" fill-rule="evenodd"/><path d="M10.48 10.163a8.314 8.314 0 0 0-2.828 6.262 8.324 8.324 0 0 0 4.87 7.588v.065h.134c.402.175.825.31 1.257.421v1.418a9.74 9.74 0 0 1-7.653-9.491 9.74 9.74 0 0 1 .41-2.783H5.233a11.131 11.132 0 0 0-.363 2.783 11.131 11.132 0 0 0 10.435 11.106v-4.917c.24.038.478.067.71.072.242-.01.462-.039.682-.068v4.903A11.131 11.132 0 0 0 27.13 16.425a11.131 11.132 0 0 0-.368-2.782h-1.438a9.74 9.74 0 0 1 .415 2.783 9.74 9.74 0 0 1-7.653 9.501V24.5a8.379 8.379 0 0 0 1.257-.421h.134v-.065a8.324 8.324 0 0 0 4.87-7.588 8.314 8.314 0 0 0-2.829-6.262h-2.492a6.936 6.936 0 0 1 3.93 6.262 6.937 6.937 0 0 1-3.479 6.025v-.902c.481-.464.508-1.165.017-1.695l-.275-.295.094-.54c.139-.806.472-1.411.963-1.753.222-.155.447-.331.5-.395.12-.14.125-.847.011-1.254-.312-1.115-1.952-3.49-3.162-4.58-.687-.62-1.225-.902-1.746-.87-.312.019-.616.15-.944.391-.437.32-1.558 1.497-2.088 2.193-1.133 1.488-1.718 2.69-1.718 3.524 0 .553.05.642.529.96.53.353.836.869.997 1.682l.128.65-.201.18c-.33.298-.47.633-.43 1.038.028.279.17.554.368.762v.904a6.937 6.937 0 0 1-3.478-6.025 6.936 6.936 0 0 1 3.93-6.262H10.48zm3.433 9.74a.696.696 0 0 1 .695.696.696.696 0 0 1-.695.696.696.696 0 0 1-.696-.696.696.696 0 0 1 .696-.695zm4.174 0a.696.696 0 0 1 .696.697.696.696 0 0 1-.696.695.696.696 0 0 1-.696-.695.696.696 0 0 1 .696-.696z" fill="#3fb2ab"/></svg>