<svg xmlns="http://www.w3.org/2000/svg" height="32" width="32" version="1"><path d="M1.898 24.527a5.561 5.561 0 0 0 5.575 5.575h17.054a5.561 5.561 0 0 0 5.575-5.575V7.793l-9.504 9.508-.07-2.537-2.745-.116.057-2.628-2.844-.092 9.992-9.936c-.16-.014-.297-.094-.46-.094H7.472a5.561 5.561 0 0 0-5.575 5.575z" fill="#2d8d7b" fill-rule="evenodd"/><rect width="18.688" height="18.25" x="6.656" y="6.875" ry="4.69" fill="#ccc"/><rect width="12.188" height="2.135" x="9.906" y="19.995" ry="1.067" fill="#999"/><path d="M24.988 1.992l-9.992 9.936 2.844.092-.057 2.628 2.744.116.07 2.537 9.505-9.508v-.32c0-2.925-2.254-5.236-5.114-5.48z" fill="#fda002" fill-rule="evenodd"/><path d="M24.936 12.96L20.598 17.3l4.338-4.336a9.5 9.5 0 0 0 0-.002z" fill="#fff" fill-rule="evenodd"/><rect width="7" height="7.438" x="9.904" y="10.14" ry="2.427" fill="#999"/><path d="M14.998 11.926l2.842.094-.057 2.628 2.742.116.073 2.535 4.338-4.338a9.5 9.5 0 0 0-5.18-5.764z" fill="#fda002" fill-rule="evenodd"/><path d="M12.54 19.93l8.058-2.63V17.3l-.073-2.535-2.742-.116.057-2.629-2.842-.093-.002.002z" fill="#fff" fill-rule="evenodd"/><path d="M12.539 19.93l3.02-.984-2.097-2.034z"/></svg>