<svg xmlns="http://www.w3.org/2000/svg" height="32" width="32" version="1"><g transform="translate(16.136 -13.56)"><rect ry="5.575" y="15.458" x="-14.237" height="28.203" width="28.203" fill="#178528" fill-rule="evenodd"/><g fill="#fff"><path d="M-.136 20.575c2.24 0 4.055 1.905 4.055 4.256 0 2.35-1.815 4.256-4.055 4.256-2.239 0-4.054-1.906-4.054-4.256 0-2.35 1.815-4.256 4.054-4.256zM-.136 31.452c8.109-.005 8.109 5.674 8.109 5.674v1.418H-8.244v-1.418s0-5.67 8.109-5.675z"/></g><path d="M10.119 29.96a3.434 3.434 0 0 0-3.434-3.433 3.434 3.434 0 0 0-3.433 3.433 3.434 3.434 0 0 0 2.146 3.18v1.97H4.11v2.146h1.288v1.288h2.575v-5.403a3.434 3.434 0 0 0 2.146-3.18zm-2.146 0a1.288 1.288 0 0 1-1.288 1.288 1.288 1.288 0 0 1-1.287-1.288 1.288 1.288 0 0 1 1.287-1.287 1.288 1.288 0 0 1 1.288 1.287z" fill="#005400"/></g></svg>