<svg xmlns="http://www.w3.org/2000/svg" width="32" preserveAspectRatio="xMidYMid" height="32"><rect width="28.203" height="28.203" x="1.898" y="1.898" ry="5.575" fill="#ccc" fill-rule="evenodd"/><g fill="#4f8cf6"><path d="M7.62 8.822c-.58 0-1.057.414-1.168.948v.001a2.44 2.44 0 0 0-.021.28v11.932c0 .656.527 1.202 1.19 1.195h1.544V10.05a.926.926 0 0 0-.024-.217c-.08-.342-.484-.727-.897-1.011zM23.966 8.822c-.573.163-1.144.658-1.131 1.195v13.161h1.514c.69 0 1.22-.533 1.22-1.178V10.007c0-.66-.547-1.185-1.196-1.185z"/><path d="M24.234 8.822a1.355 1.355 0 0 0-.852.274L16 14.633 8.615 9.096c-1.383-1.055-3.007 1.21-1.64 2.187l8.204 6.153a1.367 1.367 0 0 0 1.64 0l7.788-5.842.415-.311c1.014-.725.528-2.445-.788-2.46z" fill-rule="evenodd"/></g></svg>