<svg xmlns="http://www.w3.org/2000/svg" height="32" width="32" version="1"><rect width="28.203" height="28.203" x="1.898" y="1.898" ry="5.575" fill="#ac1500" fill-rule="evenodd"/><path d="M19.526 26.007c-.926-.42-2.28-1.145-3.45-1.843-.734-.439-.822-.474-1.269-.511-.713-.06-1.154-.17-1.648-.417a4.03 4.03 0 0 1-1.094-.791c-1.042-1.03-1.712-2.638-1.985-4.768a18.86 18.86 0 0 1-.094-2.77c.14-2.454.917-4.586 2.133-5.856.695-.726 1.347-1.107 2.241-1.31.695-.159 1.687-.11 2.346.117 1.77.607 2.872 2.263 3.338 5.015.139.817.18 1.413.18 2.546 0 2.48-.328 4.26-1.024 5.554-.261.486-.687.992-.994 1.183-.16.1-.197.161-.197.325 0 .082.02.175.045.208.053.07 1.055.477 2.158.876.427.154.79.292.804.305-.236.91-.627 1.588-1.49 2.137zm-4.05-5.193c.674-.218 1.07-1.231 1.276-3.264.074-.733.063-3.669-.017-4.36-.12-1.039-.277-1.644-.551-2.123-.174-.304-.303-.44-.541-.571-.12-.066-.202-.08-.47-.078-1.477.452-1.66 2.495-1.756 3.647-.058.762-.023 3.25.056 3.883.156 1.261.422 2.073.82 2.509.342.375.749.497 1.183.357zm6.29-7.29c0-.01.122-.388.271-.84.553-1.67.971-3.237 1.175-4.399.042-.238.087-.443.1-.454.014-.012.471-.057 1.018-.1.546-.044 1.095-.09 1.219-.101.143-.013.226-.007.226.016 0 .093-.507 1.45-.732 1.958-.337.761-.796 1.699-1.177 2.402-.399.736-.704 1.268-.762 1.33-.047.048-.194.081-.601.134-.548.07-.738.085-.738.054z" fill="#fff"/></svg>