<svg xmlns="http://www.w3.org/2000/svg" height="32" width="32" version="1"><g transform="translate(60.064 -.22)"><rect ry="5.575" y="2.119" x="-58.166" height="28.203" width="28.203" fill="#5fb863" fill-rule="evenodd"/><path d="M-38.425 15.42c-.418-.012-.469-.024-.54-.136a3.057 3.057 0 0 1-.099-.462c-.072-.437-.116-.569-.216-.64a7.645 7.645 0 0 0-.882-.383c-.117-.022-.204.017-.592.269-.515.332-.517.332-.839-.001-.13-.135-.362-.379-.517-.543-.28-.297-.28-.298-.28-.403 0-.1.013-.126.26-.476.361-.514.355-.467.143-1.019-.172-.447-.23-.544-.358-.596a6.828 6.828 0 0 0-.467-.11 4.905 4.905 0 0 1-.452-.11.3.3 0 0 1-.085-.093c-.037-.062-.042-.109-.04-.45.002-.208.008-.543.017-.743l.014-.364.068-.069c.066-.065.09-.072.527-.15.533-.094.598-.124.686-.315.152-.331.303-.689.32-.757.03-.13-.008-.22-.256-.604a4.933 4.933 0 0 1-.253-.418c-.046-.131-.002-.194.443-.623.627-.605.632-.609.756-.609.097 0 .125.016.471.262.368.261.485.318.6.295.034-.006.24-.081.458-.166.408-.159.51-.221.558-.344.013-.032.062-.242.11-.467.047-.226.101-.433.12-.462a.32.32 0 0 1 .104-.088c.062-.032.14-.034.776-.02.514.011.721.024.761.044.117.061.131.097.219.589.109.611.077.57.61.804.22.097.434.183.474.191.122.024.22-.019.592-.26a3.76 3.76 0 0 1 .422-.25c.134-.037.193.003.563.388.699.727.665.686.665.805 0 .1-.014.125-.262.474-.265.373-.318.483-.294.607.007.038.081.244.166.458.157.4.22.503.344.552.03.012.242.062.469.11.226.049.434.103.461.12a.317.317 0 0 1 .086.102c.032.063.034.143.02.777-.017.777-.02.798-.154.873a3.06 3.06 0 0 1-.478.107c-.428.072-.518.1-.594.18-.053.057-.387.81-.407.918-.021.113.021.206.274.596.13.2.238.387.24.416.013.144 0 .176-.138.308-.65.628-.916.877-.947.89a.475.475 0 0 1-.125.016c-.079.002-.126-.025-.444-.251-.405-.288-.473-.322-.597-.305-.096.014-.82.291-.906.348-.096.063-.143.188-.234.618-.049.23-.105.444-.125.474-.082.126-.133.13-1.215.097z" fill="#277445"/><path d="M-45.212 27.094c-.115-.053-.144-.088-.381-.46-.52-.813-.503-.79-.685-.887l-.108-.058-.692-.007c-.765-.007-.822 0-.977.129-.045.036-.252.318-.46.627-.367.54-.384.562-.488.607-.194.083-.076.123-1.704-.576a9.146 9.146 0 0 1-.527-.238.482.482 0 0 1-.112-.155c-.07-.142-.077-.085.112-.95.136-.624.138-.672.036-.86-.084-.156-.954-1.034-1.075-1.086-.179-.076-.213-.073-.926.063-.405.078-.704.125-.739.117a.47.47 0 0 1-.257-.167 20.2 20.2 0 0 1-.43-1.026c-.355-.881-.384-.965-.376-1.067.016-.2.051-.233.67-.63.31-.199.59-.393.622-.43a.892.892 0 0 0 .103-.166c.043-.093.045-.133.045-.826 0-.704-.002-.731-.046-.816-.072-.134-.155-.202-.69-.563-.274-.185-.52-.358-.548-.384a.436.436 0 0 1-.113-.319c.013-.09.783-1.909.853-2.012a.47.47 0 0 1 .142-.118c.13-.07.2-.063.889.09.313.069.604.122.673.121.224 0 .303-.055.83-.578.52-.514.568-.583.568-.799 0-.061-.055-.393-.122-.736-.11-.57-.119-.634-.095-.726.05-.201.078-.216 1.15-.644 1.053-.42 1.088-.43 1.262-.341.074.038.13.108.354.45.146.224.314.484.373.579.116.185.184.248.344.318.097.043.143.046.814.05l.71.004.11-.058a.751.751 0 0 0 .165-.12c.03-.034.22-.303.42-.598.328-.486.372-.542.46-.584.174-.085.225-.07 1.268.378.519.223.968.427.997.454a.492.492 0 0 1 .134.289c0 .035-.058.337-.13.67-.073.341-.13.66-.13.728 0 .216.052.288.59.833.428.434.499.497.593.527a.779.779 0 0 0 .197.035c.049 0 .365-.054.703-.12.338-.065.64-.119.673-.119a.47.47 0 0 1 .29.146c.032.037.223.484.443 1.03.43 1.071.434 1.088.328 1.269-.048.081-.127.14-.582.428-.29.183-.572.378-.627.433-.158.154-.169.207-.186.955-.017.71-.006.8.116.966.04.055.249.21.625.466.505.343.57.393.614.48.093.184.089.199-.364 1.26-.452 1.06-.461 1.076-.662 1.132-.09.025-.141.017-.758-.117-.364-.079-.684-.143-.713-.143-.127 0-.355.1-.435.188-.02.022-.227.23-.462.463-.368.365-.432.438-.47.539a.713.713 0 0 0-.043.201c0 .047.054.367.121.711.076.394.117.657.11.709a.428.428 0 0 1-.204.294c-.045.023-.5.209-1.01.414-.637.255-.956.372-1.012.371a.491.491 0 0 1-.168-.04z" fill="#fff"/><circle r="3.787" cy="19.156" cx="-47.023" fill="#5fb863"/><circle r="2.445" cy="10.027" cx="-37.978" fill="#5fb863"/></g></svg>