<svg xmlns="http://www.w3.org/2000/svg" height="32" width="32" version="1"><g transform="translate(59.007 -11.12)"><path d="M-43.008 27.121h-14.781v8.938a5.83 5.83 0 0 0 5.844 5.843h8.937z" fill="#f2ae37" fill-rule="evenodd"/><path d="M-43.008 27.121v14.781h8.94a5.83 5.83 0 0 0 5.843-5.843V27.12zM-51.945 12.338a5.83 5.83 0 0 0-5.844 5.844v8.94h14.781V12.337z" fill="#fff" fill-rule="evenodd"/><path d="M-43.008 12.338V27.12h14.783v-8.94a5.83 5.83 0 0 0-5.843-5.843z" fill="#f4c165" fill-rule="evenodd"/><rect x="-39.793" y="30.334" width="8.57" height="8.57" ry="1.071" rx="1.071" fill="#6192f5"/><rect x="-54.79" y="15.337" width="8.57" height="8.57" ry="1.071" rx="1.071" fill="#3775f2"/></g></svg>