<svg xmlns="http://www.w3.org/2000/svg" height="32" width="32" version="1"><rect width="28.203" height="28.203" x="1.898" y="1.898" ry="5.575" fill="#ee8827" fill-rule="evenodd"/><path d="M13.896 9.337a3.507 3.507 0 0 0-3.507 3.507v2.104h-.701a3.507 3.507 0 0 0-3.507 3.507v.701a3.507 3.507 0 0 0 3.507 3.507h12.624a3.507 3.507 0 0 0 3.507-3.507v-4.208a3.507 3.507 0 0 0-3.507-3.507h-.294a3.507 3.507 0 0 0-3.212-2.104z" fill="#fff"/><path d="M13.896 12.844v2.805h7.715v2.806H9.688v.701h12.624v-4.208h-7.715v-1.403h4.209v-.701z" fill="#ee8827"/></svg>