<svg xmlns="http://www.w3.org/2000/svg" xmlns:xlink="http://www.w3.org/1999/xlink" height="32" width="32" version="1"><defs><linearGradient id="d" y2="7.016" gradientUnits="userSpaceOnUse" y1="92.54" gradientTransform="scale(1.0059 .99417)" x2="45.448" x1="45.448"><stop offset="0"/><stop stop-opacity=".588" offset="1"/></linearGradient><linearGradient id="a"><stop stop-color="#fff" offset="0"/><stop stop-opacity="0" stop-color="#fff" offset="1"/></linearGradient><linearGradient id="f" x1="36.357" xlink:href="#a" gradientUnits="userSpaceOnUse" x2="36.357" y1="6" y2="63.893"/><linearGradient id="m" x1="48" xlink:href="#a" gradientUnits="userSpaceOnUse" x2="48" y1="20.221" y2="138.66"/><linearGradient id="h" y2="5.988" gradientUnits="userSpaceOnUse" y1="90" gradientTransform="translate(0 100)" x2="48" x1="48"><stop stop-color="#2276c5" offset="0"/><stop stop-color="#68baf4" offset="1"/></linearGradient><linearGradient id="e" y2="90.015" gradientUnits="userSpaceOnUse" y1="6" x2="44.512" x1="44.512"><stop stop-color="#f0f0f0" offset="0"/><stop stop-color="#aaa" offset="1"/></linearGradient><clipPath id="k"><rect rx="6" ry="6" height="84" width="84" y="6" x="6" fill="#fff"/></clipPath><clipPath id="b"><path fill="#fff" d="M0 0v96h96V0H0zm12 6h72c3.324 0 6 2.676 6 6v72c0 3.324-2.676 6-6 6H12c-3.324 0-6-2.676-6-6V12c0-3.324 2.676-6 6-6z"/></clipPath><clipPath id="i"><rect rx="4" ry="4" height="76" width="76" y="10" x="10" fill="#fff"/></clipPath><filter id="c" color-interpolation-filters="sRGB"><feGaussianBlur stdDeviation="1.71"/></filter><filter id="l" height="1.384" width="1.384" y="-.19" x="-.19" color-interpolation-filters="sRGB"><feGaussianBlur stdDeviation="5.28"/></filter><filter id="j" color-interpolation-filters="sRGB"><feGaussianBlur stdDeviation="1.14"/></filter><radialGradient id="g" xlink:href="#a" gradientUnits="userSpaceOnUse" cy="90.172" cx="48" gradientTransform="matrix(1.1573 0 0 .99591 -7.551 .197)" r="42"/></defs><rect width="28.203" height="28.203" x="1.898" y="1.898" ry="5.575" fill="#ececec" fill-rule="evenodd"/><path d="M12.615 21.55a2.25 2.25 0 1 1-2.234 3.908 2.25 2.25 0 0 1 2.234-3.908z" fill="#ffcf3f"/><path d="M10.174 15.596a2.626 2.626 0 1 1-2.606 4.56 2.626 2.626 0 0 1 2.606-4.56z" fill="#7cc327"/><path d="M12.237 8.892a3.002 3.002 0 1 1-2.98 5.211 3.002 3.002 0 0 1 2.98-5.21z" fill="#27adc3"/><path d="M22.175 6.79a4.127 4.127 0 1 1-4.096 7.165 4.127 4.127 0 0 1 4.096-7.165z" fill="#ffcf3f"/><path d="M24.243 15.646a3.001 3.001 0 1 1-2.979 5.21 3.001 3.001 0 0 1 2.98-5.21z" fill="#7cc327"/><path d="M19.804 20.782a2.626 2.626 0 1 1-2.355 4.694 2.626 2.626 0 0 1 2.355-4.694z" fill="#27adc3"/></svg>