<svg xmlns="http://www.w3.org/2000/svg" height="32" width="32" version="1"><rect width="28.203" height="28.203" x="1.898" y="1.898" ry="5.575" fill="#999" fill-rule="evenodd"/><g transform="translate(43.3 2.85)"><path d="M-27.3 2.822c-4.82 0-5.356 4.32-5.356 9.18h2.295c-.057-4.86 1.045-6.885 3.06-6.885 2.016 0 3.117 2.026 3.06 6.886h2.296c0-4.86-.536-9.18-5.356-9.18z" fill="#ccc"/><rect x="-23.478" y="19.65" width="15.301" height="15.301" transform="matrix(0 -1 -1 0 0 0)" rx="7.65" ry="7.65" fill="#fff"/><rect ry="5.355" rx="5.355" transform="matrix(0 -1 -1 0 0 0)" height="10.71" width="10.71" y="21.945" x="-21.183" fill="#4f4f4f"/><path d="M-24.325 12.853l-1.218.405-1.11.371a2.295 2.295 0 0 0-2.27.576 2.295 2.295 0 0 0 0 3.246 2.295 2.295 0 0 0 3.245 0 2.295 2.295 0 0 0 .577-2.274l.37-1.107z" fill="#ff5969"/></g></svg>