<svg xmlns="http://www.w3.org/2000/svg" height="32" width="32"><rect width="28.203" height="28.203" x="1.898" y="1.898" ry="5.575" fill="#484b61" fill-rule="evenodd"/><g transform="matrix(1.14232 0 0 1.14232 56.751 -16.942)" stroke-width=".875"><path d="M-35.674 18.69a10.149 10.149 0 0 0-10.148 10.148 10.149 10.149 0 0 0 10.148 10.149 10.149 10.149 0 0 0 10.149-10.149A10.149 10.149 0 0 0-35.674 18.69z" fill="#484b61"/><circle r="5.799" cy="28.838" cx="-35.674" fill="#9499b2"/><rect transform="rotate(30)" ry="1.047" rx="1.087" y="33.971" x="-17.422" height="9.424" width="2.175" fill="#fff"/><rect transform="rotate(90)" width="1.45" height="2.175" x="28.113" y="26.25" rx=".845" ry=".65" fill="#9499b2"/><rect ry=".65" rx=".845" y="42.923" x="28.113" height="2.175" width="1.45" transform="rotate(90)" fill="#9499b2"/><rect ry=".65" rx=".845" y="-38.262" x="34.949" height="2.175" width="1.45" transform="scale(-1)" fill="#9499b2"/><rect transform="scale(-1)" width="1.45" height="2.175" x="34.949" y="-21.589" rx=".845" ry=".65" fill="#9499b2"/></g></svg>