<svg xmlns="http://www.w3.org/2000/svg" height="32" width="32" version="1"><rect width="28.203" height="28.203" x="1.898" y="1.898" ry="5.575" fill="#ae56b8" fill-rule="evenodd"/><path d="M14.047 6.458a.492.492 0 0 0-.418.389l-.403 2.043c-.722.282-1.4.67-1.996 1.146l-1.984-.67a.492.492 0 0 0-.567.21l-1.908 3.308a.495.495 0 0 0 .106.598l1.58 1.386c-.056.372-.09.746-.09 1.133s.034.761.09 1.133l-1.58 1.387a.492.492 0 0 0-.106.595l1.908 3.31c.111.189.36.279.567.208l1.984-.67a7.673 7.673 0 0 0 1.996 1.148l.405 2.043a.49.49 0 0 0 .46.387h3.817a.492.492 0 0 0 .463-.387l.402-2.043a7.682 7.682 0 0 0 1.998-1.148l1.983.67a.491.491 0 0 0 .566-.207l1.908-3.31a.491.491 0 0 0-.103-.596l-1.58-1.387c.055-.372.09-.746.09-1.133s-.035-.76-.09-1.133l1.58-1.386a.494.494 0 0 0 .103-.598L23.32 9.575a.492.492 0 0 0-.566-.209l-1.983.67a7.684 7.684 0 0 0-1.998-1.148l-.402-2.041a.494.494 0 0 0-.463-.389H14.047zM16 11.911a4.089 4.089 0 1 1 .003 8.178A4.089 4.089 0 0 1 16 11.912z" fill="#fff"/></svg>