<svg xmlns="http://www.w3.org/2000/svg" height="32" width="32" version="1"><rect width="28.203" height="28.203" x="1.898" y="1.898" ry="5.575" fill="#909090" fill-rule="evenodd"/><g transform="translate(50.801 14.046)"><path fill="#4f4f4f" d="M-29.781 10.112V8.857h-10.041v1.255zM-35.429 8.857h1.255V5.719h-1.255z"/><path d="M-41.077.071v1.046c0 2.897 2.8 5.23 6.276 5.23 3.477 0 6.275-2.333 6.275-5.23V.07h-1.255v.837c0 2.318-2.239 4.183-5.02 4.183-2.781 0-5.02-1.865-5.02-4.183V.071z" fill="#4f4f4f"/><rect x="-3.836" y="30.408" width="10.041" height="8.786" transform="matrix(0 -1 -1 0 0 0)" rx="4.184" ry="4.393" fill="#fff"/><path d="M-36.438-5.577a.314.314 0 0 0-.313.314.314.314 0 0 0 .313.314.314.314 0 0 0 .314-.314.314.314 0 0 0-.314-.314zm1.255 0a.314.314 0 0 0-.313.314.314.314 0 0 0 .313.314.314.314 0 0 0 .314-.314.314.314 0 0 0-.314-.314zm1.255 0a.314.314 0 0 0-.313.314.314.314 0 0 0 .313.314.314.314 0 0 0 .314-.314.314.314 0 0 0-.314-.314zm1.256 0a.314.314 0 0 0-.314.314.314.314 0 0 0 .314.314.314.314 0 0 0 .313-.314.314.314 0 0 0-.313-.314zm-4.751.152a4.413 4.413 0 0 0-.49.386.314.314 0 0 0 .22.09.314.314 0 0 0 .314-.314.314.314 0 0 0-.044-.162zm-.27 1.103a.314.314 0 0 0-.314.314.314.314 0 0 0 .314.314.314.314 0 0 0 .314-.314.314.314 0 0 0-.314-.314zm1.255 0a.314.314 0 0 0-.313.314.314.314 0 0 0 .313.314.314.314 0 0 0 .314-.314.314.314 0 0 0-.314-.314zm1.255 0a.314.314 0 0 0-.313.314.314.314 0 0 0 .313.314.314.314 0 0 0 .314-.314.314.314 0 0 0-.314-.314zm1.255 0a.314.314 0 0 0-.313.314.314.314 0 0 0 .313.314.314.314 0 0 0 .314-.314.314.314 0 0 0-.314-.314zm1.256 0a.314.314 0 0 0-.314.314.314.314 0 0 0 .314.314.314.314 0 0 0 .313-.314.314.314 0 0 0-.313-.314zm1.255 0a.314.314 0 0 0-.314.314.314.314 0 0 0 .314.314.314.314 0 0 0 .313-.314.314.314 0 0 0-.313-.314zm-7.243.189c-.086.14-.165.284-.234.434a.314.314 0 0 0 .26-.309.314.314 0 0 0-.026-.125zm-.288 1.066a.314.314 0 0 0-.187.063c-.035.135-.061.273-.081.413a.314.314 0 0 0 .268.152.314.314 0 0 0 .314-.314.314.314 0 0 0-.314-.314zm1.255 0a.314.314 0 0 0-.314.314.314.314 0 0 0 .314.314.314.314 0 0 0 .314-.314.314.314 0 0 0-.314-.314zm1.255 0a.314.314 0 0 0-.313.314.314.314 0 0 0 .313.314.314.314 0 0 0 .314-.314.314.314 0 0 0-.314-.314zm1.255 0a.314.314 0 0 0-.313.314.314.314 0 0 0 .313.314.314.314 0 0 0 .314-.314.314.314 0 0 0-.314-.314zm1.255 0a.314.314 0 0 0-.313.314.314.314 0 0 0 .313.314.314.314 0 0 0 .314-.314.314.314 0 0 0-.314-.314zm1.256 0a.314.314 0 0 0-.314.314.314.314 0 0 0 .314.314.314.314 0 0 0 .313-.314.314.314 0 0 0-.313-.314zm1.255 0a.314.314 0 0 0-.314.314.314.314 0 0 0 .314.314.314.314 0 0 0 .313-.314.314.314 0 0 0-.313-.314zm-7.53 1.255a.314.314 0 0 0-.315.314.314.314 0 0 0 .314.314.314.314 0 0 0 .314-.314.314.314 0 0 0-.314-.314zm1.254 0a.314.314 0 0 0-.314.314.314.314 0 0 0 .314.314.314.314 0 0 0 .314-.314.314.314 0 0 0-.314-.314zm1.255 0a.314.314 0 0 0-.313.314.314.314 0 0 0 .313.314.314.314 0 0 0 .314-.314.314.314 0 0 0-.314-.314zm1.255 0a.314.314 0 0 0-.313.314.314.314 0 0 0 .313.314.314.314 0 0 0 .314-.314.314.314 0 0 0-.314-.314zm1.255 0a.314.314 0 0 0-.313.314.314.314 0 0 0 .313.314.314.314 0 0 0 .314-.314.314.314 0 0 0-.314-.314zm1.256 0a.314.314 0 0 0-.314.314.314.314 0 0 0 .314.314.314.314 0 0 0 .313-.314.314.314 0 0 0-.313-.314zm1.255 0a.314.314 0 0 0-.314.314.314.314 0 0 0 .314.314.314.314 0 0 0 .313-.314.314.314 0 0 0-.313-.314zm-7.53 1.256a.314.314 0 0 0-.311.273c0 .04.004.077.006.116a.314.314 0 0 0 .304.238.314.314 0 0 0 .314-.314.314.314 0 0 0-.314-.313zm1.254 0a.314.314 0 0 0-.314.313.314.314 0 0 0 .314.314.314.314 0 0 0 .314-.314.314.314 0 0 0-.314-.313zm1.255 0a.314.314 0 0 0-.313.313.314.314 0 0 0 .313.314.314.314 0 0 0 .314-.314.314.314 0 0 0-.314-.313zm1.255 0a.314.314 0 0 0-.313.313.314.314 0 0 0 .313.314.314.314 0 0 0 .314-.314.314.314 0 0 0-.314-.313zm1.255 0a.314.314 0 0 0-.313.313.314.314 0 0 0 .313.314.314.314 0 0 0 .314-.314.314.314 0 0 0-.314-.313zm1.256 0a.314.314 0 0 0-.314.313.314.314 0 0 0 .314.314.314.314 0 0 0 .313-.314.314.314 0 0 0-.313-.313zm1.255 0a.314.314 0 0 0-.314.313.314.314 0 0 0 .314.314.314.314 0 0 0 .313-.314.314.314 0 0 0-.313-.313zm-7.53 1.255a.314.314 0 0 0-.16.042c.056.2.123.395.208.581a.314.314 0 0 0 .265-.31.314.314 0 0 0-.314-.313zm1.254 0a.314.314 0 0 0-.314.313.314.314 0 0 0 .314.314.314.314 0 0 0 .314-.314.314.314 0 0 0-.314-.313zm1.255 0a.314.314 0 0 0-.313.313.314.314 0 0 0 .313.314.314.314 0 0 0 .314-.314.314.314 0 0 0-.314-.313zm1.255 0a.314.314 0 0 0-.313.313.314.314 0 0 0 .313.314.314.314 0 0 0 .314-.314.314.314 0 0 0-.314-.313zm1.255 0a.314.314 0 0 0-.313.313.314.314 0 0 0 .313.314.314.314 0 0 0 .314-.314.314.314 0 0 0-.314-.313zm1.256 0a.314.314 0 0 0-.314.313.314.314 0 0 0 .314.314.314.314 0 0 0 .313-.314.314.314 0 0 0-.313-.313zm1.255 0a.314.314 0 0 0-.314.313.314.314 0 0 0 .314.314.314.314 0 0 0 .313-.314.314.314 0 0 0-.313-.313zm-6.276 1.255a.314.314 0 0 0-.314.314.314.314 0 0 0 .314.313.314.314 0 0 0 .314-.313.314.314 0 0 0-.314-.314zm1.255 0a.314.314 0 0 0-.313.314.314.314 0 0 0 .313.313.314.314 0 0 0 .314-.313.314.314 0 0 0-.314-.314zm1.255 0a.314.314 0 0 0-.313.314.314.314 0 0 0 .313.313.314.314 0 0 0 .314-.313.314.314 0 0 0-.314-.314zm1.255 0a.314.314 0 0 0-.313.314.314.314 0 0 0 .313.313.314.314 0 0 0 .314-.313.314.314 0 0 0-.314-.314zm1.256 0a.314.314 0 0 0-.314.314.314.314 0 0 0 .314.313.314.314 0 0 0 .313-.313.314.314 0 0 0-.313-.314zm1.255 0a.314.314 0 0 0-.314.314.314.314 0 0 0 .09.22 4.23 4.23 0 0 0 .405-.477.314.314 0 0 0-.181-.057zm-5.02 1.255a.314.314 0 0 0-.302.228c.188.084.383.16.586.218a.314.314 0 0 0 .029-.132.314.314 0 0 0-.314-.314zm1.254 0a.314.314 0 0 0-.313.314.314.314 0 0 0 .2.293c.064.005.13.006.197.01a.314.314 0 0 0 .23-.303.314.314 0 0 0-.314-.314zm1.255 0a.314.314 0 0 0-.313.314.314.314 0 0 0 .122.248c.159-.026.315-.059.467-.1a.314.314 0 0 0 .038-.148.314.314 0 0 0-.314-.314zm1.256 0a.314.314 0 0 0-.299.216c.135-.062.265-.13.39-.203a.314.314 0 0 0-.091-.013z" opacity=".7" fill="#909090"/></g></svg>