<svg xmlns="http://www.w3.org/2000/svg" height="32" width="32" version="1"><rect width="28.203" height="28.203" x="1.898" y="1.898" ry="5.575" fill="#8e8e8e" fill-rule="evenodd"/><g fill-rule="evenodd"><path d="M1.898 19.643c.056.145.067.314.174.421.198.199.472.32.776.32h6.576a1.09 1.09 0 0 0 1.096-1.097v-6.576a1.092 1.092 0 0 0-1.096-1.096H2.848c-.304 0-.578.123-.776.32-.107.108-.118.276-.174.42z" fill="#adadad"/><path d="M9.78 30.102c.144-.056.312-.067.42-.174.197-.198.32-.472.32-.776v-6.576a1.092 1.092 0 0 0-1.096-1.096H2.848c-.304 0-.578.123-.776.32-.107.108-.118.276-.174.42v2.305a5.563 5.563 0 0 0 5.575 5.577z" fill="#ccc"/><path d="M19.643 30.102c.145-.056.314-.067.421-.174a1.09 1.09 0 0 0 .32-.776v-6.576a1.09 1.09 0 0 0-1.097-1.096h-6.574a1.097 1.097 0 0 0-1.098 1.096v6.576c0 .304.122.578.32.776.108.107.277.118.422.174z" fill="#adadad"/><path d="M30.102 22.22c-.056-.144-.067-.312-.174-.42a1.092 1.092 0 0 0-.776-.32h-6.576a1.092 1.092 0 0 0-1.096 1.096v6.576c0 .304.123.578.32.776.108.107.276.118.42.174h2.307a5.563 5.563 0 0 0 5.575-5.577zM22.22 1.898c-.144.056-.312.067-.42.174-.197.198-.32.472-.32.776v6.576a1.092 1.092 0 0 0 1.096 1.096h6.576c.304 0 .578-.123.776-.32.107-.108.118-.276.174-.42V7.472a5.561 5.561 0 0 0-5.575-5.575z" fill="#ccc"/><path d="M12.357 1.898c-.145.056-.314.067-.421.174a1.09 1.09 0 0 0-.32.776v6.576a1.09 1.09 0 0 0 1.097 1.096h6.574a1.097 1.097 0 0 0 1.098-1.096V2.848a1.09 1.09 0 0 0-.32-.776c-.108-.107-.277-.118-.422-.174z" fill="#adadad"/><path d="M1.898 9.78v2.575c.056-.144.067-.312.174-.42.198-.197.472-.32.776-.32h6.576a1.092 1.092 0 0 1 1.096 1.096v6.576a1.097 1.097 0 0 1-1.096 1.098H2.848a1.09 1.09 0 0 1-.776-.32c-.107-.108-.118-.277-.174-.422v2.578c.056-.145.067-.313.174-.42.198-.198.472-.32.776-.32h6.576a1.092 1.092 0 0 1 1.096 1.095v6.576c0 .304-.123.578-.32.776-.108.107-.276.118-.42.174h2.577c-.145-.056-.314-.067-.421-.174a1.09 1.09 0 0 1-.32-.776v-6.576a1.09 1.09 0 0 1 1.097-1.096h6.574a1.097 1.097 0 0 1 1.098 1.096v6.576c0 .304-.122.578-.32.776-.108.107-.277.118-.422.174h2.578c-.145-.056-.313-.067-.42-.174a1.092 1.092 0 0 1-.32-.776v-6.576a1.092 1.092 0 0 1 1.095-1.096h6.576c.304 0 .578.123.776.32.107.108.118.276.174.42v-2.577c-.056.145-.067.314-.174.421a1.09 1.09 0 0 1-.776.32h-6.576a1.09 1.09 0 0 1-1.096-1.097v-6.576a1.092 1.092 0 0 1 1.096-1.096h6.576c.304 0 .578.123.776.32.107.108.118.276.174.42V9.78c-.056.145-.067.313-.174.42-.198.198-.472.32-.776.32h-6.576a1.092 1.092 0 0 1-1.096-1.095V2.848c0-.304.123-.578.32-.776.108-.107.276-.118.42-.174h-2.577c.145.056.314.067.421.174.199.198.32.472.32.776v6.576a1.09 1.09 0 0 1-1.097 1.096h-6.574a1.097 1.097 0 0 1-1.098-1.096V2.848c0-.304.122-.578.32-.776.108-.107.277-.118.422-.174H9.78c.145.056.313.067.42.174.198.198.32.472.32.776v6.576a1.092 1.092 0 0 1-1.095 1.096H2.848c-.304 0-.578-.123-.776-.32-.107-.108-.118-.276-.174-.42z" fill="#8e8e8e"/><path d="M1.898 9.78c.056.144.067.312.174.42.198.197.472.32.776.32h6.576a1.092 1.092 0 0 0 1.096-1.096V2.848c0-.304-.123-.578-.32-.776-.108-.107-.276-.118-.42-.174H7.472a5.561 5.561 0 0 0-5.575 5.575z" fill="#ccc"/><path d="M12.713 11.615a1.097 1.097 0 0 0-1.098 1.096v6.576a1.095 1.095 0 0 0 1.098 1.098h6.574a1.095 1.095 0 0 0 1.098-1.098v-6.576a1.09 1.09 0 0 0-1.098-1.096z" fill="#8e8e8e"/><path d="M12.713 11.615h6.574a1.097 1.097 0 0 1 1.098 1.096v6.576a1.095 1.095 0 0 1-1.098 1.098h-6.574a1.095 1.095 0 0 1-1.098-1.098v-6.576a1.09 1.09 0 0 1 1.098-1.096z" fill="#ccc"/><path d="M30.102 12.355c-.056-.144-.067-.312-.174-.42a1.092 1.092 0 0 0-.776-.32h-6.576a1.092 1.092 0 0 0-1.096 1.096v6.576a1.097 1.097 0 0 0 1.096 1.098h6.576c.304 0 .578-.122.776-.32.107-.108.118-.277.174-.422z" fill="#adadad"/></g></svg>