<svg xmlns="http://www.w3.org/2000/svg" height="32" width="32" version="1"><rect width="28.203" height="28.203" x="1.898" y="1.898" ry="5.575" fill="#ff7d00" fill-rule="evenodd"/><g transform="translate(44.643 1.455)"><path d="M-16.17 2.073a5.556 5.556 0 0 0-3.946-1.63h-17.053a5.563 5.563 0 0 0-5.576 5.575v17.053a5.565 5.565 0 0 0 5.576 5.576h8.526V14.545z" fill="#ff7d00" fill-rule="evenodd"/><path d="M-16.17 2.073l-12.473 12.472v14.102h8.527a5.563 5.563 0 0 0 5.574-5.576V6.018a5.556 5.556 0 0 0-1.629-3.945z" fill="#ff9025" fill-rule="evenodd"/><path d="M-21.08 6.49l-8.058 7.562.988.989 7.564-8.058-.494-.494z" fill="#5e5e5e"/><path d="M-28.986 14.547v11h.687v-11z" style="line-height:normal;font-variant-ligatures:normal;font-variant-position:normal;font-variant-caps:normal;font-variant-numeric:normal;font-variant-alternates:normal;font-feature-settings:normal;text-indent:0;text-align:start;text-decoration-line:none;text-decoration-style:solid;text-decoration-color:#000;text-transform:none;text-orientation:mixed;white-space:normal;shape-padding:0;isolation:auto;mix-blend-mode:normal;solid-color:#000;solid-opacity:1" color="#000" font-weight="400" font-family="sans-serif" overflow="visible" fill="#fff"/><path d="M-33.891 8.796l-.494.494 5.249 5.75.988-.987z" fill="#3f3f3f"/><circle cy="14.547" cx="-28.642" r=".688" fill="#3f3f3f"/></g></svg>