<svg xmlns="http://www.w3.org/2000/svg" width="32" height="32"><rect width="28.203" height="28.203" x="1.898" y="1.898" ry="5.575" fill="#3465a4" fill-rule="evenodd"/><g fill="#fff"><path d="M8.5 12.5s-.48-.01-.974.24c-.494.247-1.026.843-1.026 1.76h1c0-1 1-1 1-1s1 0 1 1c0 .375-.128.657-.363.958-.235.3-.582.595-.957.908-.375.312-.778.642-1.105 1.06-.328.419-.575.949-.575 1.574v.5h4v-1H7.591c.061-.157.152-.305.272-.457.235-.3.582-.596.957-.909.375-.312.778-.642 1.105-1.06.327-.419.575-.949.575-1.574 0-.917-.532-1.513-1.026-1.76-.495-.247-.974-.24-.974-.24z" fill-rule="evenodd"/><path d="M13.5 12.5c-1.1 0-2 .9-2 2v3c0 1.1.9 2 2 2s2-.9 2-2v-3c0-1.1-.9-2-2-2zm0 1c.563 0 1 .437 1 1v3c0 .563-.437 1-1 1s-1-.437-1-1v-3c0-.563.437-1 1-1z"/><path d="M17.5 12.5v3h2v-3h1v7h-1v-3h-3v-4h1" fill-rule="evenodd"/><path d="M23.5 12.5c-1.1 0-2 .9-2 2 0 .6.273 1.133.694 1.5-.42.367-.694.9-.694 1.5 0 1.1.9 2 2 2s2-.9 2-2c0-.6-.273-1.133-.694-1.5.42-.367.694-.9.694-1.5 0-1.1-.9-2-2-2zm0 1c.563 0 1 .437 1 1s-.437 1-1 1-1-.437-1-1 .437-1 1-1zm0 3c.563 0 1 .437 1 1s-.437 1-1 1-1-.437-1-1 .437-1 1-1z"/></g></svg>