<svg xmlns="http://www.w3.org/2000/svg" height="32" width="32" version="1"><path d="M1.898 22.096v2.43a5.565 5.565 0 0 0 5.577 5.576h17.052a5.563 5.563 0 0 0 5.575-5.577v-2.43H25.14l-4.203 4.803-4.202-4.802z" fill="#57b074" fill-rule="evenodd"/><path d="M1.898 22.096h14.838l4.202 4.802 4.203-4.802h4.96V7.473a5.561 5.561 0 0 0-5.574-5.575H7.475a5.563 5.563 0 0 0-5.577 5.575z" fill="#3a8268" fill-rule="evenodd"/><g fill="#9dc1b4"><path d="M10 7.966v-1h12v1zM10 10.966v-1h12v1zM10 13.966v-1h12v1zM10 16.966v-1h8v1z"/></g></svg>