<svg xmlns="http://www.w3.org/2000/svg" height="32" width="32" version="1"><g fill-rule="evenodd"><path d="M3.527 28.47L16 16 3.527 3.527a5.556 5.556 0 0 0-1.629 3.946v17.054c0 1.544.623 2.936 1.63 3.944z" fill="#c2352a"/><path d="M28.473 28.473L16 16 3.527 28.47v.003a5.557 5.557 0 0 0 3.946 1.629h17.054a5.557 5.557 0 0 0 3.946-1.63z" fill="#a45390"/><path d="M28.47 3.527L16 16l12.473 12.473a5.557 5.557 0 0 0 1.629-3.946V7.473a5.556 5.556 0 0 0-1.63-3.946h-.001z" fill="#6db832"/><path d="M3.527 3.527L16 16 28.47 3.527a5.555 5.555 0 0 0-3.943-1.629H7.473a5.556 5.556 0 0 0-3.946 1.63z" fill="#4987d7"/></g><g fill="#fff"><path d="M10.094 20.575H4.107v-1.313l2.1-2.264q.396-.427.72-.788.323-.36.555-.701.232-.342.36-.696.129-.354.129-.763 0-.452-.275-.702-.269-.25-.726-.25-.483 0-.928.238-.446.238-.934.677l-1.025-1.216q.274-.25.573-.476.3-.232.66-.409.36-.177.793-.28.433-.11.97-.11.641 0 1.148.177.513.177.873.506.36.324.549.788.195.463.195 1.043 0 .525-.183 1.007-.183.476-.5.94-.318.458-.739.916-.415.451-.89.921L6.456 18.9v.086h3.638v1.587zM13.082 8.662q0-.64.068-1.275.073-.635.25-1.215.183-.586.488-1.086.311-.5.781-.867.476-.372 1.136-.58.665-.214 1.55-.214.128 0 .28.007.153.006.306.018.159.006.305.024.147.019.263.043v1.508q-.232-.055-.495-.086-.256-.036-.519-.036-.824 0-1.355.207-.53.201-.842.568-.311.366-.445.879-.129.512-.16 1.135h.074q.122-.22.293-.409.177-.195.409-.33.232-.14.519-.22.293-.079.653-.079.58 0 1.044.19.463.189.78.549.324.36.495.885.171.525.171 1.202 0 .727-.207 1.3-.202.574-.58.977-.379.397-.916.61-.536.207-1.208.207-.659 0-1.233-.232-.573-.238-1-.72-.422-.482-.666-1.215-.238-.738-.238-1.745zm3.101 2.405q.25 0 .452-.092.207-.097.354-.286.152-.196.232-.489.085-.293.085-.695 0-.654-.275-1.026-.268-.378-.823-.378-.281 0-.513.11-.232.11-.397.286-.165.177-.256.397-.086.22-.086.446 0 .311.074.622.079.305.231.556.16.244.385.396.232.153.537.153zM25.207 14.752q.574 0 1.069.177.494.177.86.518.366.342.574.855.207.506.207 1.166 0 .726-.225 1.306-.226.574-.666.976-.44.397-1.092.61-.647.215-1.49.215-.335 0-.664-.031-.33-.03-.635-.091-.3-.055-.574-.147-.268-.091-.488-.213v-1.63q.213.122.494.232.281.104.58.183.305.073.61.122.306.043.58.043.818 0 1.245-.336.428-.342.428-1.08 0-.66-.422-1.001-.415-.348-1.287-.348-.16 0-.342.018-.177.019-.354.05-.171.03-.33.066-.158.03-.274.067l-.751-.402.336-4.547h4.711v1.599h-3.076l-.146 1.751q.195-.042.451-.085.263-.043.672-.043zM14.01 28.575l3.174-7.325h-4.101v-1.587h6.152v1.185l-3.253 7.727h-1.971z"/></g></svg>