<svg xmlns="http://www.w3.org/2000/svg" height="32" width="32"><rect width="28.203" height="28.203" x="1.898" y="1.898" ry="5.575" fill="#716599" fill-rule="evenodd"/><g transform="translate(46.315 3.41)"><path d="M-32.012 23.001c-1.198-.228-2.474-.78-3.543-1.536-1.2-.847-2.44-2.339-3.036-3.652-.6-1.319-.842-2.914-.683-4.487.12-1.19.258-1.742.667-2.69 1.137-2.628 3.361-4.44 6.307-5.138.482-.115.817-.25 1.023-.413.307-.242.308-.245.492-1.439.23-1.49.227-1.479.463-1.538.317-.08 1.8.132 2.524.36 1.167.367 2 .844 2.994 1.716.306.268 1.098.488 1.148.488.3 0 1.134.392 1.47.719 1.005.974 1.14 2.202.375 3.394-.206.32-.48.176-.48.588 0 .276-.046.563-.104.638-.085.11-.836.171-2.461.311-1.48.128-2.375.507-2.466.598-.27.27.354.327 3.23.554 2.69.211 2.932.285 2.727.489-.044.044-1.222.25-2.862.581l-2.983.601-1.874-.722c-1.03-.398-1.906-.623-1.946-.623-.123 0-1.025 1.498-.995 1.652.037.192.414.087.905.155.339.046.433.02.784-.211.78-.516 1.48-.517 1.914-.002.266.315.275.53.03.7-.245.171-.423.165-.783-.028-.507-.271-.83.083-.646.569.12.314.052.484-.19.484-.135 0-.231-.083-.325-.28-.134-.28-.135-.421-.871-.471-.796-.054-1.172.221-1.67-.092-.393-.248-.76-.678-.76-.892 0-.204.39-.98.79-1.572.37-.55.382-.683.058-.683-.173 0-.313.08-.476.273-.287.337-.96 1.733-.96 1.99 0 .356.272.749.995 1.224.572.377.747.4.87.679.184.418.507 1.133.577 1.784.058.541.176.401.391.023.22-.384.825-.46.825-.103 0 .086-.094.207-.209.268-.379.203-.352.545.06.765.122.065.243.036.526-.13.202-.118.424-.215.494-.215.166 0 .39.321.39.56 0 .531-.42.865-1.086.865-.795 0-1.404-.427-1.735-1.216-.176-.42-.864-1.18-1.148-1.485-.28-.302-.43-.354-.665-.32-.263.038-.392.286-.393.926-.003 1.235.387 2.499 1.79 3.19 2.306 1.137 4.52 1.15 6.902.041 1.76-.818 3.115-2.17 3.213-3.59.036-.523.015-.66-.153-.985-.35-.674-1.436-1.065-2.176-.73-.24.11-.424.42-.542.761-.344 1.063.162 1.5.744 1.754.24.104.661.03.736-.267.083-.332-.08-.465-.532-.437-.342.021-.39.003-.413-.16-.034-.244.332-.48.727-.47.234.007.37.001.582.233.33.36.273.78.1 1.108-.208.397-.596.664-1.172.662-.82-.003-1.484-.459-1.677-1.153-.116-.417-.11-1.083.036-1.575.425-1.428 2.826-1.72 3.968-.612.551.534.83 1.14.779 2.102-.112 2.085-2.213 4.094-4.613 5.27-1.42.697-2.219.884-3.948.924-.985.023-1.615-.003-2.03-.082z" fill="#47b0d0"/><circle r="2.5" cy="7.591" cx="-28.822" fill="#fff"/><circle r="1" cy="7.091" cx="-29.322" fill="#5e5e5e"/><path d="M-22.349 6.81c.114.543-.138 1.1-.562 1.246l-.41-1.965c.423-.145.859.177.972.72z" fill="#fff"/></g></svg>