<svg xmlns="http://www.w3.org/2000/svg" height="32" width="32" version="1"><rect width="28.203" height="28.203" x="1.898" y="1.898" ry="5.575" fill="#478cbf" fill-rule="evenodd"/><g stroke-width="1.317"><path d="M13.875 6.133l-.087.05-2.57 1.089.532 2.656-2.446 1.119L8.03 9.928l-2.656 2.657 1.518 1.644v5.508l-1.518-.425v1.772c2.14 3.268 5.844 4.783 10.626 4.783 4.782 0 8.487-1.515 10.626-4.783v-1.772l-1.518.425v-5.508l1.518-1.644-2.656-2.657-1.274 1.119-2.446-1.119.532-2.656-2.657-1.14-.909 1.519h-2.434z" fill="#fff"/><path d="M10.687 13.723a2.277 2.277 0 1 1 0 4.554 2.277 2.277 0 0 1 0-4.554z" fill="#478cbf"/><path d="M12.205 16a1.518 1.518 0 1 1-3.036 0 1.518 1.518 0 1 1 3.036 0z" fill="#353535"/><path d="M16 15.241c.42 0 .759.339.759.76v1.517c0 .42-.339.76-.759.76a.757.757 0 0 1-.759-.76V16c0-.42.339-.759.759-.759zM21.313 13.723a2.277 2.277 0 1 1 0 4.554 2.277 2.277 0 0 1 0-4.554z" fill="#478cbf"/><path d="M22.831 16a1.518 1.518 0 1 1-3.036 0 1.518 1.518 0 1 1 3.036 0z" fill="#353535"/><path d="M5.66 18.046l-.17.74 1.402.32v1.386l2.277 1.057v-1.626l1.518.26v1.45l3.795.577v-1.656h3.036v1.656l3.795-.576v-1.452l1.518-.26v1.627l2.277-1.057v-1.386l1.401-.32-.169-.74-1.99.455v1.506l-.76.353v-1.336l-3.036.518v1.44l-2.277.345v-1.532h-4.554v1.532l-2.277-.346v-1.44l-3.036-.517v1.336l-.76-.353v-1.506z" style="line-height:normal;font-variant-ligatures:normal;font-variant-position:normal;font-variant-caps:normal;font-variant-numeric:normal;font-variant-alternates:normal;font-feature-settings:normal;text-indent:0;text-align:start;text-decoration-line:none;text-decoration-style:solid;text-decoration-color:#000;text-transform:none;text-orientation:mixed;white-space:normal;shape-padding:0;isolation:auto;mix-blend-mode:normal;solid-color:#000;solid-opacity:1" color="#000" font-weight="400" font-family="sans-serif" overflow="visible" fill="#478cbf"/></g></svg>