<svg xmlns="http://www.w3.org/2000/svg" height="32" width="32" version="1"><path d="M30 6.969c-.054-.579-.12-1.157-.336-1.67A5.563 5.563 0 0 0 26.7 2.334c-.511-.216-1.089-.28-1.666-.334H16v14h14z" fill="#21d789"/><path d="M6.965 2c-.577.054-1.155.118-1.666.334a5.563 5.563 0 0 0-2.965 2.965c-.216.511-.28 1.089-.334 1.666V16h14V2z" fill="#2086e7"/><path d="M25.035 30c.577-.054 1.155-.118 1.666-.334a5.563 5.563 0 0 0 2.965-2.965c.216-.511.28-1.089.334-1.666V16H16v14z" fill="#6655e4"/><path d="M2 25.031c.054.579.12 1.157.336 1.67A5.563 5.563 0 0 0 5.3 29.666c.511.216 1.089.28 1.666.334H16V16H2z" fill="#21d789"/><rect width="21.424" height="21.424" x="5.288" y="5.288" ry="4.235" fill="#3f3f3f" fill-rule="evenodd"/><g fill="none" stroke="#fff" stroke-width="2" stroke-linecap="round"><path d="M10.58 22.288h7.187" stroke-width="1.79662"/><path d="M13.276 14.204h1.796m-.898 0s.441 2.694-1.796 2.694c-1.797 0-1.797-1.796-1.797-3.593 0-1.796 0-3.593 1.797-3.593 1.796 0 1.79.899 1.79.899M19.602 9.711c2.156 0 1.797 1.797 1.797 3.594 0 1.796.319 3.647-1.797 3.593-2.11 0-1.796-1.797-1.796-3.593 0-1.797-.392-3.594 1.796-3.594" stroke-linejoin="bevel" stroke-width="1.79662"/></g></svg>