<svg xmlns="http://www.w3.org/2000/svg" height="32" width="32" version="1"><rect width="28.203" height="28.203" x="1.898" y="1.898" ry="5.575" fill="#178528" fill-rule="evenodd"/><circle cx="16.28" cy="16.951" r="3.413" fill="#fff"/><path d="M16 10.626A5.374 5.374 0 0 0 10.626 16 5.374 5.374 0 0 0 16 21.374 5.374 5.374 0 0 0 21.374 16 5.374 5.374 0 0 0 16 10.626zm0 3.224a2.15 2.15 0 1 1 0 4.3 2.15 2.15 0 0 1 0-4.3z" fill="#848484"/><path d="M16 5.252A10.725 10.725 0 0 0 5.252 16 10.725 10.725 0 0 0 16 26.748 10.725 10.725 0 0 0 26.748 16 10.725 10.725 0 0 0 16 5.252zm0 6.449A4.3 4.3 0 0 1 20.3 16a4.3 4.3 0 0 1-4.3 4.3 4.3 4.3 0 0 1-4.3-4.3 4.3 4.3 0 0 1 4.3-4.3z" fill="#ccc"/><g transform="matrix(.75 0 0 .75 4.042 4.904)" stroke-width="1.333"><circle r="8" cy="23" cx="24" fill="#2eac43"/><circle r="2.5" cx="23.5" cy="26.5" fill="#fff"/><rect x="24" y="19" width="2" height="8" ry="1" rx="1" fill="#fff"/></g></svg>