<svg xmlns="http://www.w3.org/2000/svg" width="32" height="32"><rect width="28.203" height="28.203" x="1.898" y="1.898" ry="5.575" fill="#e6e6e6" fill-rule="evenodd"/><path d="M16 16H4.847l5.577-5.576H16" fill="#fec006"/><path d="M16 16V4.847l5.576 5.577V16" fill="#f34235"/><path d="M10.424 16v5.576L16 27.153V16" fill="#4bae4f"/><path d="M16 16h11.153l-5.577 5.576H16" fill="#2095f2"/><path d="M16 16l5.576-5.576V16z" fill="#9c27b0"/><path d="M16 16l-5.576 5.576V16z" fill="#1ea362"/><path d="M21.576 21.576L16 16v5.576z" fill="#3e50b4"/><path d="M10.424 10.424L16 16v-5.576z" fill="#fe9700"/><path d="M16 12.814l-.996 2.19-2.19.996 2.19.996.996 2.19.996-2.19 2.19-.996-2.19-.996z" fill="#fff"/></svg>