<svg xmlns="http://www.w3.org/2000/svg" height="32" width="32" version="1"><path d="M1.898 16.135v8.392a5.561 5.561 0 0 0 5.575 5.575h17.052a5.563 5.563 0 0 0 5.577-5.575v-8.392z" fill="#75a9e4" fill-rule="evenodd"/><path d="M1.898 16.135h28.204V7.473a5.563 5.563 0 0 0-5.577-5.575H7.473a5.561 5.561 0 0 0-5.575 5.575z" fill="#4384f1" fill-rule="evenodd"/><g style="line-height:1.25" aria-label="31" font-weight="400" font-size="15.977" font-family="AvantGarde LT Medium" letter-spacing="0" word-spacing="0" fill="#fff"><path style="-inkscape-font-specification:'AvantGarde LT Medium, '" d="M9.573 18.429q.032.782.336 1.23.303.431.67.655.384.208.72.256.351.047.479.047.495 0 .895-.191.4-.208.67-.512.272-.32.416-.703.144-.383.144-.766 0-.48-.192-.88-.176-.399-.48-.67-.303-.272-.702-.416-.4-.16-.83-.16h-.608v-1.661h.575q.64 0 .99-.24.352-.255.512-.559.176-.304.192-.56.032-.255.032-.287 0-.32-.112-.607-.112-.303-.32-.527-.207-.224-.511-.352-.288-.143-.64-.143-.127 0-.367.047-.223.032-.479.192-.255.16-.463.496-.208.335-.272.926H8.567q.063-1.006.463-1.63.4-.623.927-.958.527-.352 1.054-.463.527-.128.847-.128.703 0 1.278.255.591.24 1.007.687.431.432.67 1.039.24.591.24 1.294 0 .48-.096.83-.095.352-.255.624-.144.256-.336.463-.191.192-.4.384.512.32.816.719.32.4.495.799.176.4.224.783.064.367.064.639 0 .894-.32 1.597-.303.687-.83 1.167-.528.479-1.231.735-.687.255-1.454.255-.75 0-1.438-.271-.687-.272-1.214-.767-.527-.496-.847-1.167-.32-.687-.32-1.501zM22.19 21.912H20.53V11.606h-1.742v-1.518h3.403z"/></g></svg>