<svg xmlns="http://www.w3.org/2000/svg" height="32" width="32" version="1"><rect width="28.203" height="28.203" x="1.898" y="1.898" ry="5.575" fill="#528ff5" fill-rule="evenodd"/><path d="M9.875 7.25A.873.873 0 0 0 9 8.125v15.75c0 .485.39.875.875.875h12.25c.484 0 .875-.39.875-.875V12.85l-4.813-.787L17.4 7.25z" fill="#fff"/><path d="M17.4 7.25v4.667c0 .515.418.933.933.933H23l-5.6-5.6z" fill="#a5c5f9"/><path d="M11.8 15.65v.7h7.7v-.7zm0 2.1v.7h7.7v-.7zm0 2.1v.7h7.7v-.7zm0 2.1v.7h5.6v-.7z" fill="#528ff5"/></svg>