<svg xmlns="http://www.w3.org/2000/svg" height="32" width="32" version="1"><g transform="translate(49.763 3.797)"><path d="M-19.595 3.035c-.064-.526-.112-1.06-.313-1.53a5.554 5.554 0 0 0-1.208-1.772 5.654 5.654 0 0 0-1.798-1.194 5.727 5.727 0 0 0-2.204-.437h-17.29c-.782 0-1.527.156-2.204.437a5.645 5.645 0 0 0-1.796 1.194 5.515 5.515 0 0 0-1.652 3.945V6.35l5.623 9.607.158.313.04.023.354.61 3.262 2.584.905-.383 1.037.646c-.122-.223-.246-.557-.366-.93l6.1-2.57-6.312-10.785c.577-1.314 1.586-2.234 3.359-2.43z" fill="#dd4d3e"/><path d="M-31.261 26.305h6.22a5.58 5.58 0 0 0 2.174-.436 5.563 5.563 0 0 0 3.4-5.138V3.678c0-.228-.102-.422-.128-.643h-14.088c-.02 0 2.912 1.306 4.148 2.02 3.16 1.824 3.489 8.34 3.497 10.978l.53.307-.54.936v.043l-.205.308z" fill="#ffce41"/><path d="M-48.052 4.315V20.73a5.582 5.582 0 0 0 1.629 3.945 5.563 5.563 0 0 0 1.771 1.193 5.59 5.59 0 0 0 2.176.436h11.215l6.14-10.213c-.695 1.133-3.593 2.585-4.83 3.299-3.957 2.285-8.982.807-11.267-3.15z" fill="#109f5b"/><rect x="-21.373" y="24.532" width="18.339" height="18.339" transform="matrix(0 -1 -1 0 0 0)" rx="9.169" ry="9.169" fill="#fff"/><rect x="-18.753" y="27.152" width="13.099" height="13.099" ry="6.55" rx="6.55" transform="matrix(0 -1 -1 0 0 0)" fill="#4587f3"/></g></svg>