<svg xmlns="http://www.w3.org/2000/svg" height="32" width="32" version="1"><rect width="28.203" height="28.203" x="1.898" y="1.898" ry="5.575" fill="#6595c3" fill-rule="evenodd"/><g fill="#fff"><path d="M15.863 6.342a9.697 9.697 0 0 0-3.538.666c.422-.06.927-.096 1.533-.096 3.457 0 5.416 1.537 6.841 3.166.95 1.087 2.602 4.327 3.827 4.327.357-.031.637-.314.858-.747-1.191-4.225-5.003-7.316-9.521-7.316zM9.802 11.586c3.347 0 9.236 7.246 15.494 7.982.16-.507.281-1.031.362-1.57-2.845-.632-6.42-4.024-7.708-5.302-2.01-1.997-3.887-4.002-6.461-4.002-.879 0-1.685.155-2.383.369a10.157 10.157 0 0 0-2.764 4.595c1.033-1.055 2.213-2.072 3.46-2.072zM19.734 22.96c-5.747 0-10.09-3.165-11.634-3.165-.63 0-.993.45-1.202.982a10.055 10.055 0 0 0 4.814 4.88c-.297-.781-.477-1.816.66-1.816 1.004 0 2.004.884 5.71.884 1.693 0 3.252-.361 4.397-.727a10.118 10.118 0 0 0 1.604-1.88c-1.095.398-2.69.843-4.349.843z"/></g></svg>