<svg xmlns="http://www.w3.org/2000/svg" height="32" width="32"><rect width="28.203" height="28.203" x="1.898" y="1.898" ry="5.575" fill="#eb4d27" fill-rule="evenodd"/><g transform="matrix(.74818 0 0 .74818 4.403 4.03)"><path d="M26.86 14.426L5.739 2.362c-.902-.509-1.71-.461-2.2.016C3.19 2.713 3 3.254 3 3.954v24.08c0 .7.206 1.241.538 1.576.507.493 1.299.54 2.201.016L26.86 17.562c1.52-.86 1.52-2.26 0-3.136z" fill="#fff"/><path d="M15.5 5c-1.361 0-2.658.267-3.852.738l-.003-.002a10.5 10.5 0 0 0-.036.016c-.274.11-.542.234-.804.365a10.5 10.5 0 0 0-.149.072c-.258.135-.508.283-.754.438a10.5 10.5 0 0 0-.148.09c-.231.151-.452.316-.67.484a10.5 10.5 0 0 0-.184.137c-.197.16-.381.33-.566.504a10.5 10.5 0 0 0-.213.193c-.228.226-.445.461-.652.707a10.5 10.5 0 0 0-.037.041 10.476 10.476 0 0 0-1.977 3.664 10.5 10.5 0 0 0-.014.051c-.094.316-.175.639-.24.967a10.5 10.5 0 0 0-.02.121c-.053.292-.1.586-.128.887A10.5 10.5 0 0 0 5 15.5c0 .33.019.656.049.979a10.5 10.5 0 0 0 .023.197c.032.28.074.557.127.83a10.5 10.5 0 0 0 .028.137 10.427 10.427 0 0 0 2.25 4.619 10.528 10.528 0 0 0 4.162 3.006c.017.006.029-.004.045 0a10.5 10.5 0 0 0 1.064.353l12.867-7.348A10.5 10.5 0 0 0 26 15.5c0-.453-.038-.896-.094-1.334a10.5 10.5 0 0 0-.041-.309l-.008-.003C25.065 8.839 20.737 5 15.5 5z" fill="#ffd739"/><circle r="6.5" cx="15.5" cy="15.5" fill="#ff8c00"/></g></svg>