<svg xmlns="http://www.w3.org/2000/svg" height="32" width="32" version="1"><g transform="translate(57.898 12.475)"><path d="M-27.73-5.643c-.065-.526-.113-1.06-.314-1.53a5.554 5.554 0 0 0-1.208-1.772 5.654 5.654 0 0 0-1.798-1.194 5.727 5.727 0 0 0-2.204-.437h-17.29c-.782 0-1.526.156-2.203.437a5.645 5.645 0 0 0-1.796 1.194A5.515 5.515 0 0 0-56.195-5v2.672l5.622 9.607.159.313.04.023.354.61 3.261 2.584.905-.383 1.038.646c-.123-.223-.247-.557-.367-.93l6.1-2.57-6.312-10.785c.578-1.314 1.587-2.234 3.359-2.43z" fill="#e64646"/><path d="M-39.397 17.627h6.221a5.58 5.58 0 0 0 2.174-.436 5.563 5.563 0 0 0 3.4-5.138V-5c0-.228-.102-.422-.129-.643h-14.088c-.02 0 2.912 1.306 4.149 2.02 3.16 1.825 3.488 8.341 3.496 10.979l.531.306-.54.936v.043l-.206.308z" fill="#e58989"/><path d="M-56.188-4.363v16.416a5.582 5.582 0 0 0 1.63 3.945 5.563 5.563 0 0 0 1.77 1.193 5.59 5.59 0 0 0 2.176.436h11.215l6.14-10.213c-.695 1.133-3.593 2.585-4.83 3.299-3.956 2.285-8.982.807-11.267-3.15z" fill="#f66f6f"/><rect x="-12.695" y="32.668" width="18.339" height="18.339" transform="matrix(0 -1 -1 0 0 0)" rx="9.169" ry="9.169" fill="#fff"/><rect x="-10.075" y="35.288" width="13.099" height="13.099" ry="6.55" rx="6.55" transform="matrix(0 -1 -1 0 0 0)" fill="#e64646"/></g></svg>