<svg xmlns="http://www.w3.org/2000/svg" height="32" width="32" version="1"><rect width="28.203" height="28.203" x="1.898" y="1.898" ry="5.575" fill="#285b1f" fill-rule="evenodd"/><path d="M21.955 21.539c-3.92 4.457-7.338 4.33-9.684 2.286-3.52-3.068-6.778-14.216-4.92-16.327 1.857-2.11 13.545 1.101 16.051 3.438 2.507 2.336 2.679 5.912-1.448 10.603z" fill="#fff"/><path d="M13.714 13.375c-.929 0-1.655.26-2.18.782-.523.518-.785 1.243-.785 2.174 0 .928.262 1.651.785 2.173.525.518 1.251.778 2.18.778.425 0 .825-.054 1.199-.16.374-.11.777-.27 1.087-.481V16h-1.969v.656h1.31v1.703c-.178.099-.378.173-.601.222-.223.045-.674.067-.958.067-.727 0-1.437-.194-1.803-.583-.364-.389-.573-.966-.573-1.734 0-.77.209-1.35.573-1.74.366-.389 1.076-.583 1.803-.583.37 0 .622.061.957.183.334.122.635.304.933.545v-.82a3.539 3.539 0 0 0-.953-.404 3.587 3.587 0 0 0-1.005-.137zm3.599 0v5.907h.656v-1.97h1.159c.666-.005 1.268-.134 1.607-.421.343-.287.513-.909.513-1.47 0-.557-.17-1.308-.513-1.595-.34-.29-.941-.451-1.607-.451zm.656.657h1.215c.45-.012.797.09 1.043.273.245.183.367.767.367 1.101 0 .338-.122.795-.367.977-.246.183-.593.273-1.043.273H17.97z" fill="#b7d161"/></svg>