<svg xmlns="http://www.w3.org/2000/svg" height="32" width="32" version="1"><rect width="28.203" height="28.203" x="1.898" y="1.898" ry="5.575" fill="#e6e6e6" fill-rule="evenodd"/><rect transform="matrix(0 -1 -1 0 0 0)" rx=".8" ry=".843" height="16.004" width="18.405" y="-25.602" x="-23.202" fill="#66a02c"/><rect ry=".843" rx=".8" transform="matrix(0 -1 -1 0 0 0)" height="16.004" width="18.405" y="-22.402" x="-27.203" fill="#7ebc2e"/><path d="M13.814 13.307c-.222 0-.429.109-.479.288-.186.686.022 1.746.37 3.068l-.105.256c-.266.648-.598 1.294-.89 1.866-1.207 2.362-2.146 3.636-2.772 3.725l-.003-.026c-.013-.295.53-1.054 1.267-1.658.077-.062.405-.38.405-.38s-.443.234-.542.295c-.923.55-1.383 1.103-1.458 1.47-.022.108-.008.242.089.297l.236.119c.642.321 1.432-.525 2.483-2.366 1.069-.35 2.402-.68 3.617-.86 1.087.622 2.334.917 2.813.79a.478.478 0 0 0 .236-.162c.038-.06.092-.303.092-.303s-.09.123-.165.159c-.303.143-1.26-.096-2.242-.577.85-.09 1.557-.093 1.935.027.48.154.48.31.474.343a.913.913 0 0 0 .025-.177.463.463 0 0 0-.133-.303c-.178-.175-.617-.263-1.215-.271-.45-.005-.991.034-1.578.118-.27-.154-.553-.324-.778-.534-.57-.533-1.048-1.272-1.345-2.101.02-.08.04-.157.058-.235.082-.371.141-1.598.141-1.598s-.235.921-.272 1.06a4.178 4.178 0 0 1-.087.28c-.18-.632-.271-1.245-.271-1.71 0-.132.011-.388.049-.59.018-.144.07-.22.124-.255.108.026.228.19.353.466.108.238.101.513.101.684 0 0 .116-.423.089-.672-.017-.15-.16-.536-.462-.531h-.025l-.135-.002zm.103 3.831a5.35 5.35 0 0 0 1.314 1.71c.127.108.261.21.4.305-1.031.192-2.114.462-3.12.883.182-.323.379-.675.58-1.055.39-.738.627-1.307.826-1.843z" fill="#fff" stroke="#fff" stroke-width=".5"/><path d="M16.952 23.467v2.464h2.464l6.224-6.223-2.464-2.465zm10.868-5.931a.653.653 0 0 0 0-.932l-1.54-1.54a.653.653 0 0 0-.932 0l-1.288 1.295 2.465 2.465z" fill="#ffdf2c"/></svg>