<svg xmlns="http://www.w3.org/2000/svg" height="32" width="32" version="1"><rect width="28.203" height="28.203" x="1.899" y="1.898" ry="5.575" fill="#daf8ff" fill-rule="evenodd"/><path d="M22.604 5.98a3.976 3.976 0 1 1 0 7.952 3.976 3.976 0 0 1 0-7.952z" fill="#fff" fill-rule="evenodd"/><g transform="matrix(.71383 0 0 .71383 50.77 11.736)" stroke-width="1.401"><rect ry="0" y="11.932" x="-50.373" height="1.932" width="1.288" fill="#986005"/><path d="M-46.94 12.676h-5.45l2.725-4.719z" fill="#74a10d"/><path d="M-47.372 11.022h-4.682l2.34-4.055z" fill="#98c305"/><path d="M-47.792 9.162h-3.723l1.861-3.224z" fill="#addb1e"/></g><path d="M19.317 20.559c-4.916.449-6.42 2.082-12.184 1.787-1.178-.108-4.404-.997-5.236-1.31v3.492c0 .63.1 1.234.291 1.799.939-.5 1.937-.923 2.861-1.15a13.634 13.634 0 0 1 3.127-.378c2.09-.024 4.207.336 6.44.647 1.116.155 2.26.299 3.445.377 1.185.078 2.41.089 3.686-.018a20.586 20.586 0 0 0 3.992-.73c1.389-.4 2.84-.502 4.363-1.301-4.469-2.476-7.835-3.484-10.785-3.215z" fill="#97c607" fill-rule="evenodd"/><g transform="matrix(1.80743 0 0 1.80743 98.443 -.43)" stroke-width=".553"><rect ry="0" y="11.932" x="-50.373" height="1.932" width="1.288" fill="#986005"/><path d="M-46.94 12.676h-5.45l2.725-4.719z" fill="#74a10d"/><path d="M-47.372 11.022h-4.682l2.34-4.055z" fill="#98c305"/><path d="M-47.792 9.162h-3.723l1.861-3.224z" fill="#addb1e"/></g><path d="M30.102 23.774H1.9v.808a5.563 5.563 0 0 0 5.576 5.575h17.053a5.561 5.561 0 0 0 5.574-5.575z" fill="#74a10d" fill-rule="evenodd"/><g transform="translate(-.274 10.872)" fill="#addb1e"><rect ry=".937" y="14.232" x="6.029" height="3.536" width="3.536"/><rect ry=".937" y="14.232" x="10.267" height="3.536" width="3.536"/><rect ry=".937" y="14.232" x="14.506" height="3.536" width="3.536"/><rect ry=".937" y="14.232" x="18.744" height="3.536" width="3.536"/><rect ry=".937" y="14.232" x="22.982" height="3.536" width="3.536"/></g></svg>