<svg xmlns="http://www.w3.org/2000/svg" height="32" width="32" version="1"><rect width="28.203" height="28.203" x="1.898" y="1.898" ry="5.575" fill="#974fa4" fill-rule="evenodd"/><path d="M15.715 5.563a6.979 6.979 0 0 0-.653.042c-3.437.38-5.94 3.215-5.704 6.38l-.804.09.46 4.162 2.683-.296-.46-4.164-.994.11c-.184-2.712 1.965-5.134 4.913-5.46 2.945-.325 5.584 1.564 6 4.248l-.875.096.46 4.163 2.59-.286-.46-4.163-.832.092c-.438-2.933-3.161-5.065-6.324-5.014z" fill="#4d4d4d"/><path d="M15.32 7.824c-.365.014-.685.208-.937.495-.251.287-.45.67-.617 1.118-.335.897-.54 2.812-.655 4.023-.114 1.21-.133 1.714-.081 2.757.052 1.044.154 1.856.368 2.31.188.396.407.85.5 1.259.095.409.075.735-.166 1-.241.263-.773.5-1.796.555-1.022.055-2.516-.366-4.635-.76-.34-.064-.626-.07-.873.012a.98.98 0 0 0-.56.495c-.235.46-.257 2.137-.291 3.013-.012.283.092.553.275.774.183.221.438.402.755.56.634.318 1.522.546 2.625.709 2.205.325 5.266.376 8.744.175l.003-.001h.004c1.28-.106 3.305-.18 5.05-.623.874-.222 1.681-.535 2.298-1.013.616-.478 1.038-1.14 1.08-1.987.038-.786-.002-1.984-.16-2.362a.93.93 0 0 0-.845-.588c-.696-.014-1.515.367-2.58.616-1.22.287-2.082.165-2.669.12-.586-.044-.879.005-1.06-.228-.181-.233-.263-.578-.3-1.017-.039-.438-.034-.957-.092-1.504a46.008 46.008 0 0 0-.793-4.948c-.236-1.095-.536-2.87-.939-3.646-.202-.388-.428-.714-.7-.95-.271-.235-.6-.377-.954-.363z" fill="#f2f2f2"/><path d="M14.5 13.892a2.227 4.468 2.522 1 1-4.448-.225 2.227 4.468 2.522 1 1 4.449.225z" fill="#fff"/><path d="M13.76 14.56a1.11 1.495 6.89 0 1-2.223-.071 1.11 1.495 6.89 0 1 2.224.071z" fill="#4d4d4d"/><path d="M21.165 13.544a2.57 4.487-6.788 0 1-5.118.472 2.57 4.487-6.788 1 1 5.118-.472z" fill="#fff"/><path d="M19.683 14.626a1.071 1.522 16.98 0 1-2.155-.201 1.071 1.522 16.98 1 1 2.155.201z" fill="#4d4d4d"/></svg>