<svg xmlns="http://www.w3.org/2000/svg" height="32" width="32" version="1"><rect width="28.203" height="28.203" x="1.898" y="1.898" ry="5.575" fill="#1e80ff" fill-rule="evenodd"/><path d="M13.551 4.573v1.952a9.794 9.794 0 0 0-7.023 7.026H4.573v4.898h1.952a9.794 9.794 0 0 0 7.026 7.023v1.955h4.898v-1.952a9.794 9.794 0 0 0 7.023-7.026h1.955V13.55h-1.952a9.794 9.794 0 0 0-7.026-7.023V4.573z" fill="#fff"/><rect x="-21.713" y="-21.713" width="11.427" height="11.427" ry="5.713" rx="5.713" transform="matrix(0 -1 -1 0 0 0)" fill="#1e80ff"/></svg>