<svg xmlns="http://www.w3.org/2000/svg" height="32" width="32" version="1"><rect width="28.203" height="28.203" x="1.898" y="1.898" ry="5.575" fill="#ececec" fill-rule="evenodd"/><path d="M19.536 6.395a.504.504 0 0 0-.69.185l-.686 1.188a9.087 9.087 0 0 0-10.046 4.274 9.087 9.087 0 0 0 3.326 12.414 9.087 9.087 0 0 0 12.413-3.326 9.087 9.087 0 0 0-1.322-10.835l.687-1.19a.504.504 0 0 0-.184-.69l-3.498-2.02z" fill="#4f4f4f"/><path d="M24.713 7.45c-.19-.13-.416-.22-.644-.283-.457-.125-.973-.158-1.467-.157-.988.003-1.908.054-1.908.054l1.251.722c.21-.014.432-.018.66-.019.455-.001.918.037 1.264.132.345.095.529.232.584.368.156.382.068.645-.228 1.009-.297.364-.818.754-1.394 1.153-.575.398-1.202.81-1.726 1.28s-.964 1.014-1.068 1.693c-.113.738.29 1.496.662 2.13.373.635.766 1.127.766 1.127.31.42.93-.073.593-.47 0 0-.365-.458-.707-1.04-.342-.582-.614-1.306-.564-1.632.064-.416.361-.83.823-1.245.462-.415 1.068-.816 1.653-1.221.586-.406 1.153-.812 1.548-1.298.396-.486.606-1.128.343-1.77a1.174 1.174 0 0 0-.44-.533z" fill="#bbb673" fill-rule="evenodd"/><path d="M25.275 14.955l-.898 2.113 2.07 1.087-2.24.596.459 2.268-1.894-1.37-1.498 1.74-.122-2.304-2.326-.097 1.74-1.503-1.402-1.862 2.293.43.577-2.225 1.119 2.04z" fill="#ff6363"/></svg>