<svg xmlns="http://www.w3.org/2000/svg" height="32" width="32" version="1"><rect width="28.203" height="28.203" x="1.898" y="1.898" ry="5.575" fill="#4f4f4f" fill-rule="evenodd"/><path d="M7.02 9l.05.412c.09.77.186 1.02.446 1.153.134.07.267.217.296.33.056.22.198.278.198.08 0-.067-.149-.41-.33-.76-.182-.351-.331-.676-.333-.72 0-.046-.074-.176-.163-.289zm17.96 0l-.165.206c-.089.113-.162.243-.163.288-.001.045-.15.37-.332.72-.182.352-.33.694-.33.761 0 .198.141.14.197-.08.03-.113.163-.26.296-.33.26-.134.355-.382.446-1.153zm-18.803.454c-.05 0-.06.06-.025.143.14.332.144.514.009.514-.074 0-.134.028-.134.063 0 .13.271.444.443.513.204.082.383.102.383.04a.694.694 0 0 0-.08-.186 2.66 2.66 0 0 1-.168-.49c-.087-.346-.268-.597-.428-.597zm19.644 0c-.16 0-.341.251-.428.598-.048.19-.123.41-.167.489a.695.695 0 0 0-.08.186c0 .062.18.042.384-.04.172-.07.441-.383.441-.513 0-.035-.06-.063-.133-.063-.136 0-.132-.182.008-.514.035-.084.025-.143-.025-.143zm-9.849.204c.028.072.003.124-.062.124-.273 0-.38.988-.174 1.603.055.165.054.165-.046 0-.166-.272-.43-.535-.539-.535-.057 0-.129.112-.159.247-.03.136-.089.248-.133.248-.045 0-.06-.037-.032-.082.028-.045.018-.143-.025-.219-.069-.123-.087-.119-.172.039-.073.137-.068.24.03.475.159.377.158.443-.005.443-.172 0-.102.2.083.235.163.032.46-.205.46-.365 0-.058.042-.13.092-.16.129-.08.272.09.188.223a.46.46 0 0 0-.07.164c-.002.03-.106.137-.234.236-.295.232-.286.6.015.642.114.016.173-.005.144-.053-.03-.047.032-.045.145.008.107.05.233.196.281.322.085-.004.164-.014.24-.03.076.016.155.026.24.03a.665.665 0 0 1 .282-.322c.113-.053.173-.055.144-.008-.03.048.032.07.145.053.301-.042.309-.41.014-.642-.128-.1-.233-.206-.233-.236a.46.46 0 0 0-.072-.164c-.084-.132.06-.303.189-.224.05.03.09.103.09.161 0 .16.299.397.462.365.185-.035.255-.235.083-.235-.163 0-.164-.066-.005-.443.098-.234.105-.338.03-.475-.084-.158-.102-.162-.17-.039-.043.076-.055.174-.027.22.028.044.013.081-.032.081-.044 0-.104-.112-.134-.248-.03-.135-.102-.247-.158-.247-.11 0-.373.263-.54.535-.1.165-.1.165-.045 0 .206-.615.1-1.603-.174-1.603-.065 0-.09-.052-.063-.124l-.026.03-.027-.03zm-10.88.23c-.156.054-.103 1.086.069 1.346.128.195.128.212.008.166-.165-.063-.17.049-.016.34.176.337.53.63 1.102.914.284.142.516.269.516.285 0 .09-.788-.136-.967-.277-.329-.257-.478-.215-.263.074.098.133.158.298.132.364-.052.135.17.362.604.62.36.217.438.22.371.01-.069-.216-.029-.208.21.046.165.174.171.2.042.15-.117-.044-.138-.032-.088.049.066.107-.076.094-.565-.052-.128-.038-.143-.014-.093.148.135.432.356.622.9.777.292.084.513.182.49.22-.05.08-.608-.012-.752-.125-.15-.118-.135.185.018.404.138.195.695.48 1.366.693l.454.145-.413-.039a14.336 14.336 0 0 1-.631-.07c-.184-.028-.213-.01-.177.127.062.236.483.56.79.606.146.023.452.072.679.111l.413.072-.37.105a2.045 2.045 0 0 1-.688.063c-.309-.042-.313-.039-.198.135.167.252.567.468 1.026.553l.395.073-.476-.033c-.26-.017-.474-.003-.474.033 0 .035.098.163.218.283.232.23.325.248 1.228.226l.579-.014-.496.216c-.602.26-.703.345-.537.447.1.062.07.13-.177.387-.165.172-.44.496-.61.723-.772 1.025-1.179 1.357-1.67 1.357-.425 0-.467.136-.064.21.404.076.955-.02 1.4-.244.54-.272.507-.132-.078.325-.16.126-.16.128.042.078.113-.03.384-.16.6-.29.413-.25.478-.26.258-.04-.187.186-.078.256.195.125.125-.06.292-.102.37-.091.078.01.315-.142.529-.337.218-.199.348-.278.297-.181-.05.094-.15.218-.221.276-.071.059-.128.14-.128.179 0 .16.198.052.617-.343.26-.245.464-.38.496-.33.03.048.01.087-.043.087s-.074.056-.048.124c.029.075 0 .122-.075.122-.066 0-.12.036-.12.08 0 .164.506-.105.625-.334.16-.309.21-.302.145.021-.037.186-.025.243.043.201a.236.236 0 0 0 .096-.182c0-.07.06-.111.142-.098.097.017.215-.107.37-.387.18-.325.228-.37.23-.216.001.154.036.187.165.153.134-.035.114.02-.116.298-.298.362-.463.794-.304.794.05 0 .091-.033.091-.074 0-.04.122-.115.27-.165l.267-.09-.27.213c-.37.293-.76.99-.756 1.35v.002c.004.256.015.27.103.13.273-.435.624-.729 1.22-1.023l.654-.325v.238c0 .131.037.238.082.238.046 0 .083-.075.083-.167 0-.093.074-.311.164-.486.2-.39 1.312-1.27 1.627-1.314.303.023 1.426.918 1.628 1.314.09.175.164.393.164.486 0 .092.037.169.083.169.045 0 .082-.109.082-.24v-.238l.655.325c.595.294.946.588 1.22 1.023.087.14.098.126.102-.13v-.002c.005-.36-.385-1.055-.755-1.348l-.271-.215.267.09c.148.05.27.124.27.165 0 .041.04.074.09.074.16 0-.005-.432-.303-.794-.23-.279-.25-.333-.116-.298.13.034.164 0 .165-.153.002-.154.05-.108.23.217.155.281.273.403.37.386.081-.013.142.029.142.099 0 .067.043.149.096.181.068.042.08-.015.043-.2-.065-.324-.015-.33.145-.022.12.229.625.498.625.333 0-.043-.054-.078-.12-.078-.074 0-.104-.048-.075-.123.026-.068.005-.124-.048-.124s-.072-.039-.043-.086c.032-.052.236.085.496.33.42.394.617.505.617.344 0-.04-.057-.122-.128-.18a1.095 1.095 0 0 1-.221-.277c-.051-.097.079-.016.297.183.214.195.451.345.53.335.077-.01.244.031.37.091.272.131.381.06.194-.125-.22-.22-.155-.209.258.04.216.13.487.26.6.29.201.05.202.048.041-.078-.584-.457-.618-.597-.077-.325.445.225.996.32 1.4.245.403-.075.361-.21-.065-.21-.49 0-.897-.33-1.67-1.357a9.657 9.657 0 0 0-.609-.724c-.246-.256-.278-.325-.177-.387.166-.102.065-.186-.537-.447l-.496-.216.579.015c.903.02.996.004 1.228-.227.12-.12.218-.248.218-.283 0-.036-.213-.05-.474-.033l-.476.033.395-.073c.46-.085.859-.301 1.026-.553.115-.174.11-.176-.198-.135a2.048 2.048 0 0 1-.688-.063l-.37-.105.414-.073c.227-.04.533-.088.68-.11.306-.048.727-.371.79-.607.035-.136.006-.155-.178-.127-.12.018-.404.05-.63.07l-.414.039.454-.145c.671-.214 1.228-.498 1.366-.693.153-.219.167-.522.018-.404-.144.113-.702.206-.752.124-.023-.037.198-.135.49-.219.544-.155.765-.344.9-.775.05-.162.035-.188-.093-.15-.49.146-.631.159-.565.052.05-.08.03-.093-.088-.048-.129.05-.123.023.042-.151.239-.254.279-.262.21-.045-.067.208.01.206.371-.01.434-.259.656-.486.604-.621-.026-.066.034-.231.132-.363.215-.29.066-.332-.263-.074-.18.14-.967.365-.967.276 0-.016.232-.143.516-.285.572-.284.926-.577 1.102-.913.153-.292.149-.403-.016-.34-.12.046-.12.028.008-.167.172-.26.225-1.292.07-1.346-.053-.018-.119.04-.148.13-.028.09-.208.318-.4.508-.19.19-.286.325-.211.3.223-.076.25.041.058.246-.207.22-.384.246-.453.067-.061-.159-.108-.155-.79.047l-.57.167-.261.542c-.22.457-.35.608-.842.972-.32.237-.653.508-.738.603-.2.223-.124.547.165.698.21.11.197.117-.549.384-1.066.383-1.446.35-1.385-.12.021-.162.197-.274.704-.459.335-.121.348-.242.027-.242-.397 0-.366-.141.079-.364.893-.446 1.976-1.383 2.19-1.892.101-.24.079-.711-.033-.704-.029.002-.14.19-.246.417-.303.641-1.445 1.444-2.491 1.75-.627.182-1.271.568-1.547.928-.44.572-.727.836-.974.89l-.247.057.282-.191c.376-.255.432-.423.117-.351l-.234.053.206-.145c.32-.224.66-.554.66-.638 0-.042-.073-.058-.164-.034-.134.035-.112-.02.118-.3.298-.361.463-.792.304-.792-.05 0-.093.033-.093.074 0 .04-.12.115-.268.165l-.269.09.273-.215c.37-.293.76-.989.755-1.348-.004-.256-.015-.271-.103-.132-.273.435-.624.729-1.22 1.023l-.654.325v-.238c0-.131-.037-.238-.082-.238-.046 0-.083.075-.083.167 0 .34-.342.827-.873 1.242-.614.48-.747.688-.833 1.313l-.086.122-.086-.122c-.085-.625-.216-.832-.83-1.313-.531-.415-.875-.9-.875-1.24 0-.092-.037-.169-.083-.169-.045 0-.082.109-.082.24v.238l-.655-.325c-.595-.295-.946-.59-1.22-1.025-.087-.14-.099-.124-.102.132-.005.36.385 1.057.755 1.35l.273.215-.27-.092c-.147-.05-.267-.124-.267-.165 0-.041-.042-.074-.093-.074-.16 0 .006.43.304.793.23.278.251.334.118.299-.09-.024-.164-.007-.164.035 0 .085.34.413.66.637l.206.145-.235-.053c-.314-.072-.258.096.118.35l.282.192-.248-.056c-.247-.055-.534-.317-.973-.89-.276-.36-.92-.747-1.547-.93-1.046-.305-2.188-1.108-2.49-1.75-.107-.226-.218-.413-.247-.414-.112-.008-.134.461-.033.703.214.509 1.297 1.445 2.19 1.891.445.223.476.364.08.364-.322 0-.309.121.026.243.507.184.683.298.704.46.061.47-.319.503-1.385.12-.746-.267-.759-.276-.549-.386.289-.15.366-.475.165-.698-.085-.094-.417-.366-.738-.603-.493-.364-.623-.515-.842-.972l-.26-.54-.57-.169c-.683-.202-.73-.206-.79-.047-.07.18-.245.152-.452-.067-.193-.205-.167-.32.056-.245.075.026-.02-.11-.211-.3-.192-.19-.372-.419-.4-.509-.03-.09-.095-.148-.147-.13zm1.62 1.837c.043-.01.141.014.288.075a.961.961 0 0 1 .414.382c.078.147.26.39.403.538v.002c.143.148.236.267.206.265-.129-.009-.569-.284-.796-.498a1.824 1.824 0 0 0-.456-.312c-.145-.057-.162-.085-.062-.088.168-.006.187-.094.048-.233-.077-.077-.09-.122-.046-.132zm18.577 0c.044.01.031.054-.046.132-.14.138-.12.227.048.233.1.003.081.031-.063.088a1.816 1.816 0 0 0-.454.312c-.228.214-.668.49-.797.497-.03.002.063-.117.206-.265v-.002c.144-.148.324-.39.402-.538a.961.961 0 0 1 .413-.382c.147-.061.247-.085.291-.075zm-9.429.074c.047-.03.062.004.033.077-.055.142-.114.168-.114.05 0-.043.036-.1.081-.127zm.235 0c.006-.014.021-.015.045 0 .045.027.08.084.08.127 0 .118-.058.092-.113-.05-.014-.037-.018-.063-.012-.077z" fill="#b4b4b4"/></svg>