<svg xmlns="http://www.w3.org/2000/svg" width="32" height="32"><rect width="28.203" height="28.203" x="1.898" y="1.898" ry="5.575" fill="#79de7d" fill-rule="evenodd"/><g transform="matrix(.6963 0 0 .6963 4.86 4.86)" stroke-width="1.436"><circle cy="16" r="14" cx="16" fill="#3f9142"/><circle cy="16" r="12" cx="16" fill="#79de7d"/><path d="M23.001 17.3c0 2.205-.551 3.874-1.653 5.009C20.245 23.436 18.595 24 16.398 24c-1.546 0-2.88-.339-4.005-1.017-1.116-.685-1.96-1.634-2.533-2.846-.573-1.22-.86-2.637-.86-4.25 0-1.526.301-2.885.903-4.077A6.679 6.679 0 0 1 12.5 9.017C13.631 8.339 14.941 8 16.431 8c1.639 0 2.98.417 4.026 1.252 1.052.835 1.905 2.335 2.313 3.748h-2.769c-.265-.656-.832-1.575-1.455-2.003-.622-.428-1.342-.642-2.158-.642-1.317 0-2.447.524-3.392 1.573-.945 1.041-1.417 2.358-1.417 3.949 0 1.07.189 2.04.568 2.91.387.864.945 1.556 1.675 2.077.737.52 1.585.781 2.544.781.752 0 1.418-.093 1.997-.278.587-.193 1.067-.5 1.439-.92.378-.429.579-.84.6-1.447H17v-2h6" fill="#3f9142"/></g></svg>