<svg xmlns="http://www.w3.org/2000/svg" height="32" width="32" version="1"><rect width="28.203" height="28.203" x="1.898" y="1.898" ry="5.575" fill="#0286c2" fill-rule="evenodd"/><path d="M16.082 12.497a3.5 3.5 30 0 0-3.113 1.748 3.5 3.5 30 0 0 1.281 4.781 3.5 3.5 30 0 0 4.781-1.281 3.5 3.5 30 0 0-1.281-4.781 3.5 3.5 30 0 0-1.668-.467zm-.152 2a1.5 1.5 30 0 1 .82.2 1.5 1.5 30 0 1 .549 2.048 1.5 1.5 30 0 1-2.049.549 1.5 1.5 30 0 1-.549-2.049 1.5 1.5 30 0 1 1.229-.748z" fill="#cae8ff"/><g fill="#71c1ff"><path d="M18.121 11.752l4.243-4.242 1.06 3.182-3.181 3.181z"/><path d="M8.575 8.57a10.5 10.5 0 0 0 0 14.85 10.5 10.5 0 0 0 14.85 0 10.5 10.5 0 0 0 0-14.85 10.5 10.5 0 0 0-1.147-.975l-2.149 2.15a7.5 7.5 0 0 1 1.174.947 7.5 7.5 0 0 1 0 10.606 7.5 7.5 0 0 1-10.606 0 7.5 7.5 0 0 1 0-10.606 7.5 7.5 0 0 1 6.357-2.115l2.462-2.462A10.5 10.5 0 0 0 8.576 8.57z"/></g></svg>