<svg xmlns="http://www.w3.org/2000/svg" height="32" width="32" version="1"><rect width="28.203" height="28.203" x="1.898" y="1.898" ry="5.575" fill="#78ac3d" fill-rule="evenodd"/><path d="M15.39 9.868c-3.112.313-5.567 2.936-5.567 6.083 0 3.358 2.8 6.12 6.21 6.12.512 0 1.007-.1 1.483-.216.044-.1.121-.271.088-.405a.565.565 0 0 0-.249-.326c-.423.104-.865.198-1.321.198-3.017 0-5.456-2.4-5.456-5.371 0-2.833 2.218-5.141 5.04-5.35a.464.464 0 0 0 .13-.406c-.021-.169-.071-.272-.267-.312z" fill="#ffee57" stroke="#ffee57" stroke-width=".376"/><path d="M14.062 6.53a.487.487 0 0 0-.415.385l-.398 2.028a7.629 7.629 0 0 0-1.984 1.138l-1.967-.666a.49.49 0 0 0-.563.21l-1.894 3.282a.489.489 0 0 0 .103.592l1.569 1.377c-.056.37-.088.74-.088 1.125 0 .384.032.756.088 1.125l-1.569 1.375a.489.489 0 0 0-.103.592l1.894 3.285c.11.186.358.278.563.207l1.967-.666c.591.474 1.267.86 1.984 1.14l.398 2.026c.041.212.243.382.46.385h3.787a.489.489 0 0 0 .459-.385l.4-2.025a7.624 7.624 0 0 0 1.982-1.14l1.97.665c.204.07.452-.02.562-.207l1.892-3.285a.489.489 0 0 0-.103-.592l-1.569-1.375c.056-.369.09-.74.09-1.125 0-.384-.035-.756-.09-1.125l1.569-1.377a.489.489 0 0 0 .103-.592l-1.892-3.283a.49.49 0 0 0-.563-.209l-1.969.666a7.619 7.619 0 0 0-1.982-1.138l-.4-2.028a.487.487 0 0 0-.457-.385h-3.834zM16 9.913a6.093 6.093 0 0 1 6.088 6.088A6.093 6.093 0 0 1 16 22.09a6.093 6.093 0 0 1-6.088-6.088 6.093 6.093 0 0 1 6.088-6.088zm0 .715a5.367 5.367 0 0 0-5.371 5.373c0 2.971 2.4 5.371 5.371 5.371 2.97 0 5.371-2.4 5.371-5.37 0-2.972-2.4-5.374-5.371-5.374z" fill="#fff"/><path d="M16 11.941a4.059 4.059 0 1 1 0 8.118 4.059 4.059 0 0 1 0-8.118z" fill="#78ac3d"/></svg>