<svg xmlns="http://www.w3.org/2000/svg" width="32" height="32" version="1"><path d="M16 1.899V15.44l-.002.564L24.143 1.9h-8.096z" fill="#f6eb39" fill-rule="evenodd"/><path d="M16 16V16l8.027 14.102h.498a5.565 5.565 0 0 0 5.577-5.576v-.433z" fill="#ec3323" fill-rule="evenodd"/><path d="M30.102 16.002H16.004l14.098 8.203z" fill="#ef5522" fill-rule="evenodd"/><path d="M30.102 7.923L16 16l.004.001 14.098.11z" fill="#f8991d" fill-rule="evenodd"/><path d="M24.143 1.898L16 16l14.102-7.905v-.62a5.565 5.565 0 0 0-5.577-5.577z" fill="#f8ba15" fill-rule="evenodd"/><path d="M15.814 30.103h8.329L16 16.003h-.002l-.002.002z" fill="#a61d4b" fill-rule="evenodd"/><path d="M15.994 16.005l-14.096 8.03v.492a5.563 5.563 0 0 0 5.575 5.576h.51z" fill="#462e90" fill-rule="evenodd"/><path d="M15.994 16.005L7.855 30.103h8.092l.049-14.098z" fill="#7c3692" fill-rule="evenodd"/><path d="M15.998 16.002l-14.1-.032v8.112l14.1-8.079z" fill="#3e5ca9" fill-rule="evenodd"/><path d="M7.473 1.897A5.563 5.563 0 0 0 1.9 7.473v.324l14.098 8.205h.002v-.004l-.141-.244L7.92 1.9h-.064v-.002z" fill="#64ad45" fill-rule="evenodd"/><path d="M1.9 7.793V16H16z" fill="#0791cc" fill-rule="evenodd"/><path d="M7.918 1.904l8.078 14.101.002-.56V1.904z" fill="#cddc39" fill-rule="evenodd"/><path d="M9.655 28.256c.991-.613.87-1.822-.343-3.44-.497-.665-.451-.673-1.056.201-.982 1.42-1.118 2.31-.461 3.01.508.543 1.213.63 1.86.23zm-.04-4.957c.098-.076.363-.298.589-.494l.41-.356.305.221c.168.122.476.258.683.303.624.133 1.099-.012 1.659-.508.166-.147 1.033-.921 1.927-1.721l2.44-2.18c.45-.398.921-.822 1.05-.942l.233-.22.296.297c.163.163.403.32.532.348.984.216 1.697-.82 1.132-1.647-.294-.43-4.378-4.964-4.526-5.025-.583-.237-.992-.17-1.334.22-.392.447-.395.932-.008 1.419.12.15.218.297.218.325 0 .029-.407.416-.905.86-.498.446-1.29 1.16-1.763 1.588-.472.428-1.4 1.262-2.063 1.853-1.425 1.271-1.617 1.556-1.55 2.301.024.26.108.557.204.718l.162.276-.52.484c-.591.548-.68.691-.68 1.09 0 .772.91 1.248 1.51.79zm2.083-1.282c-.15-.06-1.454-1.435-1.69-1.78a.804.804 0 0 1-.03-.787c.05-.085.4-.43.776-.767.377-.337.664-.648.637-.69-.027-.045-.012-.058.033-.03.045.029.598-.413 1.253-1l2.135-1.913c.53-.475 1.002-.887 1.048-.915.081-.05 2.362 2.405 2.362 2.542 0 .035-.734.72-1.63 1.523-.898.803-2.193 1.964-2.88 2.58-1.446 1.299-1.612 1.4-2.014 1.237zm.91-.764a83.785 83.785 0 0 1 1.166-1.049c.408-.361.792-.706.853-.766.098-.096.022-.103-.63-.062-2.425.154-3.543.258-3.621.336-.134.133.109.545.701 1.194.564.616.626.662.894.662.234 0 .353-.058.638-.315zm12.9-9.344c.79-1.185.664-2.646-.323-3.744-.728-.81-1.535-1.166-2.498-1.102-.892.06-1.296.288-2.651 1.499l-2.052 1.835-.906.81.714.789a365.659 365.659 0 0 1 3.231 3.614l.208.247 2.053-1.846c1.13-1.015 2.13-1.962 2.224-2.102z" fill="#fff"/></svg>