<svg xmlns="http://www.w3.org/2000/svg" xmlns:xlink="http://www.w3.org/1999/xlink" width="32" height="32" version="1"><defs><linearGradient id="g" x1="65.263" x2="65.263" y1="64.205" y2="50.069" gradientTransform="matrix(.625 0 0 .625 78.5 32.25)" gradientUnits="userSpaceOnUse"><stop offset="0"/><stop offset="1" stop-opacity="0"/></linearGradient><linearGradient id="f" x1="70" x2="70" y1="54" y2="75.095" gradientTransform="translate(0 4)" gradientUnits="userSpaceOnUse" xlink:href="#a"/><linearGradient id="e" x1="56" x2="88" y1="72" y2="72" gradientTransform="translate(-140.5 3.5) scale(.9375)" gradientUnits="userSpaceOnUse"><stop offset="0" stop-color="#499119"/><stop offset="1" stop-color="#8fd625"/></linearGradient><linearGradient id="j" x1="65.263" x2="65.263" y1="64.205" y2="50.069" gradientTransform="matrix(.625 0 0 .625 28.5 31.25)" gradientUnits="userSpaceOnUse" xlink:href="#a"/><linearGradient id="a"><stop offset="0" stop-color="#fff"/><stop offset="1" stop-color="#fff" stop-opacity="0"/></linearGradient><linearGradient id="b" x1="45.448" x2="45.448" y1="92.54" y2="7.016" gradientTransform="scale(1.0059 .99417)" gradientUnits="userSpaceOnUse"><stop offset="0"/><stop offset="1" stop-opacity=".588"/></linearGradient><filter id="i" color-interpolation-filters="sRGB"><feGaussianBlur stdDeviation=".637"/></filter><filter id="d" color-interpolation-filters="sRGB"><feGaussianBlur stdDeviation="1.2"/></filter><filter id="c" color-interpolation-filters="sRGB"><feGaussianBlur stdDeviation="1.71"/></filter><clipPath id="h"><path fill="#fff" d="M108.81 58a2.803 2.803 0 0 0-2.81 2.812v24.375A2.803 2.803 0 0 0 108.81 88h24.375c1.57 0 2.82-1.254 2.82-2.812V60.813a2.803 2.803 0 0 0-2.81-2.813H108.82zm7.188 4.5h10v8.75h5l-10 13.75-10-13.75h5V62.5z"/></clipPath></defs><rect width="28.203" height="28.203" x="1.898" y="1.898" ry="5.575" fill="#e6e6e6" fill-rule="evenodd"/><g transform="translate(0 -.498)"><rect ry="0" y="24.467" x="11.338" height=".629" width="9.323" fill="#519013"/><rect transform="rotate(90)" ry="0" y="-16.315" x="20.855" height=".629" width="3.123" fill="#519013"/><path d="M15.276 22.998v.957h-1.49v1.584h4.428v-1.584h-1.352v-.957z" fill="#30451d"/><path d="M23.352 14.81a7.352 7.352 0 0 1-7.287 7.35 7.352 7.352 0 0 1-7.416-7.221 7.352 7.352 0 0 1 7.156-7.48 7.352 7.352 0 0 1 7.542 7.09" fill="#519013"/><path d="M21.764 10.309c-.093.106-.187.213-.277.32a.857.857 0 0 0-.075-.042.857.857 0 0 0-.08-.033.857.857 0 0 0-.08-.026.857.857 0 0 0-.085-.017.857.857 0 0 0-.085-.009.857.857 0 0 0-.064 0 .857.857 0 0 0-.085.007.857.857 0 0 0-.085.016.857.857 0 0 0-.083.022.857.857 0 0 0-.08.031.857.857 0 0 0-.075.04.857.857 0 0 0-.071.047.857.857 0 0 0-.068.054.857.857 0 0 0-.06.06.857.857 0 0 0-.056.066.857.857 0 0 0-.046.07.857.857 0 0 0-.042.077.857.857 0 0 0-.033.08.857.857 0 0 0-.024.08.857.857 0 0 0-.012.056 15.45 15.45 0 0 0-3.783.614 1.022 1.022 0 0 0-.05-.088 1.022 1.022 0 0 0-.06-.085 1.022 1.022 0 0 0-.067-.076 1.022 1.022 0 0 0-.074-.07 1.022 1.022 0 0 0-.081-.061 1.022 1.022 0 0 0-.087-.056 1.022 1.022 0 0 0-.091-.043 1.022 1.022 0 0 0-.096-.036 1.022 1.022 0 0 0-.1-.026 1.022 1.022 0 0 0-.1-.016 1.022 1.022 0 0 0-.102-.005 1.022 1.022 0 0 0-.031 0 1.022 1.022 0 0 0-.103.009 1.022 1.022 0 0 0-.1.017 1.022 1.022 0 0 0-.098.03 1.022 1.022 0 0 0-.052.018c-.847-1.05-1.848-1.958-2.93-2.75a7.35 7.35 0 0 0-.127.076 22.896 22.896 0 0 1 2.645 2.977 1.022 1.022 0 0 0-.06.083 1.022 1.022 0 0 0-.053.087 1.022 1.022 0 0 0-.043.093 1.022 1.022 0 0 0-.033.097 1.022 1.022 0 0 0-.024.099 1.022 1.022 0 0 0-.014.102 1.022 1.022 0 0 0-.003.102 1.022 1.022 0 0 0 .008.102 1.022 1.022 0 0 0 .016.093c-.987.41-1.939.911-2.861 1.469a.857.857 0 0 0-.05-.07.857.857 0 0 0-.056-.065.857.857 0 0 0-.062-.059.857.857 0 0 0-.07-.052.857.857 0 0 0-.072-.045.857.857 0 0 0-.076-.036.857.857 0 0 0-.081-.031.857.857 0 0 0-.083-.021.857.857 0 0 0-.085-.014.857.857 0 0 0-.085-.003.857.857 0 0 0-.026 0 .857.857 0 0 0-.084.006.857.857 0 0 0-.085.016.857.857 0 0 0-.083.023.857.857 0 0 0-.08.03.857.857 0 0 0-.076.04.857.857 0 0 0-.07.047.857.857 0 0 0-.068.054.857.857 0 0 0-.06.06.857.857 0 0 0-.056.066.857.857 0 0 0-.049.071.857.857 0 0 0-.04.074.857.857 0 0 0-.032.08.857.857 0 0 0-.025.083.857.857 0 0 0-.017.083.857.857 0 0 0-.009.087.857.857 0 0 0 0 .051.857.857 0 0 0 .007.085.857.857 0 0 0 .014.085.857.857 0 0 0 .023.083.857.857 0 0 0 .03.08.857.857 0 0 0 .04.076.857.857 0 0 0 .03.048c-.5.349-.986.718-1.465 1.093a7.35 7.35 0 0 0 .041.26c.532-.386 1.07-.77 1.628-1.137a.857.857 0 0 0 .071.047.857.857 0 0 0 .076.042.857.857 0 0 0 .08.03.857.857 0 0 0 .081.025.857.857 0 0 0 .085.015.857.857 0 0 0 .085.01.857.857 0 0 0 .04 0 .857.857 0 0 0 .084-.006.857.857 0 0 0 .085-.014.857.857 0 0 0 .083-.02.857.857 0 0 0 .081-.032.857.857 0 0 0 .076-.038.857.857 0 0 0 .073-.045.857.857 0 0 0 .067-.052.857.857 0 0 0 .063-.059.857.857 0 0 0 .055-.065.857.857 0 0 0 .05-.07.857.857 0 0 0 .042-.076.857.857 0 0 0 .034-.077.857.857 0 0 0 .026-.082.857.857 0 0 0 .02-.084.857.857 0 0 0 .008-.085.857.857 0 0 0 .002-.052v-.031a.857.857 0 0 0-.009-.085.857.857 0 0 0-.007-.036c.926-.545 1.88-1.04 2.867-1.462a1.022 1.022 0 0 0 .057.085 1.022 1.022 0 0 0 .065.078 1.022 1.022 0 0 0 .073.072 1.022 1.022 0 0 0 .08.064 1.022 1.022 0 0 0 .084.056 1.022 1.022 0 0 0 .092.046 1.022 1.022 0 0 0 .095.038 1.022 1.022 0 0 0 .099.028 1.022 1.022 0 0 0 .1.017 1.022 1.022 0 0 0 .102.009 1.022 1.022 0 0 0 .035 0 1.022 1.022 0 0 0 .102-.007 1.022 1.022 0 0 0 .1-.015 1.022 1.022 0 0 0 .094-.025c.297.481.586.966.846 1.46a1.022 1.022 0 0 0-.08.064 1.022 1.022 0 0 0-.073.071 1.022 1.022 0 0 0-.065.078 1.022 1.022 0 0 0-.06.085 1.022 1.022 0 0 0-.048.09 1.022 1.022 0 0 0-.04.093 1.022 1.022 0 0 0-.029.099 1.022 1.022 0 0 0-.02.1 1.022 1.022 0 0 0-.01.1 1.022 1.022 0 0 0-.001.066 1.022 1.022 0 0 0 .007.102 1.022 1.022 0 0 0 .017.1 1.022 1.022 0 0 0 .005.02c-.468.413-.92.802-1.384 1.202a.626.626 0 0 0-.058-.023.626.626 0 0 0-.06-.017.626.626 0 0 0-.062-.012.626.626 0 0 0-.062-.005.626.626 0 0 0-.034 0 .626.626 0 0 0-.063.005.626.626 0 0 0-.062.01.626.626 0 0 0-.06.018.626.626 0 0 0-.058.022.626.626 0 0 0-.055.03.626.626 0 0 0-.054.034.626.626 0 0 0-.048.04.626.626 0 0 0-.045.043.626.626 0 0 0-.04.049.626.626 0 0 0-.034.052.626.626 0 0 0-.03.055.626.626 0 0 0-.024.057.626.626 0 0 0-.017.06.626.626 0 0 0-.012.061.626.626 0 0 0-.007.062.626.626 0 0 0 0 .04.626.626 0 0 0 .005.062.626.626 0 0 0 .01.063.626.626 0 0 0 .01.041 171.094 171.094 0 0 0-2.94 2.569 7.35 7.35 0 0 0 .06.055c.946-.657 2.03-1.391 3.199-2.243a.626.626 0 0 0 .057.026.626.626 0 0 0 .059.019.626.626 0 0 0 .062.014.626.626 0 0 0 .062.006.626.626 0 0 0 .047.002.626.626 0 0 0 .062-.003.626.626 0 0 0 .063-.01.626.626 0 0 0 .06-.016.626.626 0 0 0 .059-.023.626.626 0 0 0 .055-.027.626.626 0 0 0 .054-.033.626.626 0 0 0 .05-.038.626.626 0 0 0 .045-.044.626.626 0 0 0 .04-.046.626.626 0 0 0 .036-.052.626.626 0 0 0 .031-.056.626.626 0 0 0 .025-.057.626.626 0 0 0 .02-.058.626.626 0 0 0 .012-.061.626.626 0 0 0 .007-.062.626.626 0 0 0 .002-.04l-.002-.023a.626.626 0 0 0-.005-.062.626.626 0 0 0-.003-.02 41.09 41.09 0 0 0 1.392-1.1 1.022 1.022 0 0 0 .083.058 1.022 1.022 0 0 0 .09.05 1.022 1.022 0 0 0 .094.042 1.022 1.022 0 0 0 .096.03 1.022 1.022 0 0 0 .1.022 1.022 1.022 0 0 0 .101.012 1.022 1.022 0 0 0 .073.002 1.022 1.022 0 0 0 .102-.007 1.022 1.022 0 0 0 .1-.016 1.022 1.022 0 0 0 .043-.01c.263.628.489 1.258.684 1.887a.857.857 0 0 0-.073.045.857.857 0 0 0-.067.052.857.857 0 0 0-.063.059.857.857 0 0 0-.057.064.857.857 0 0 0-.05.07.857.857 0 0 0-.041.075.857.857 0 0 0-.035.078.857.857 0 0 0-.028.081.857.857 0 0 0-.017.085.857.857 0 0 0-.01.085.857.857 0 0 0-.002.072.857.857 0 0 0 .005.085.857.857 0 0 0 .016.085.857.857 0 0 0 .022.083.857.857 0 0 0 .012.034c-2.167.827-4.363 1.442-5.819 1.537a7.35 7.35 0 0 0 .455.273 12.62 12.62 0 0 0 2.273-.44 29.855 29.855 0 0 0 3.202-1.169.857.857 0 0 0 .054.068.857.857 0 0 0 .06.06.857.857 0 0 0 .066.054.857.857 0 0 0 .07.048.857.857 0 0 0 .077.04.857.857 0 0 0 .08.033.857.857 0 0 0 .08.026.857.857 0 0 0 .086.015.857.857 0 0 0 .084.01.857.857 0 0 0 .042 0 .857.857 0 0 0 .009 0c.11.515.2 1.027.257 1.53l.095-.106a15.026 15.026 0 0 0-.124-1.461.857.857 0 0 0 .081-.028.857.857 0 0 0 .078-.038.857.857 0 0 0 .073-.043.857.857 0 0 0 .069-.052.857.857 0 0 0 .062-.057.857.857 0 0 0 .057-.064.857.857 0 0 0 .052-.07.857.857 0 0 0 .043-.072.857.857 0 0 0 .035-.078.857.857 0 0 0 .03-.081.857.857 0 0 0 .018-.083.857.857 0 0 0 .01-.087.857.857 0 0 0 .004-.067l-.002-.031a.857.857 0 0 0-.006-.085.857.857 0 0 0-.014-.073c1.303-.628 2.503-1.296 3.385-1.904-.917.58-2.134 1.186-3.435 1.75a.857.857 0 0 0-.039-.076.857.857 0 0 0-.044-.072.857.857 0 0 0-.054-.068.857.857 0 0 0-.059-.062.857.857 0 0 0-.066-.056.857.857 0 0 0-.069-.05.857.857 0 0 0-.074-.041.857.857 0 0 0-.08-.035.857.857 0 0 0-.081-.026.857.857 0 0 0-.085-.017.857.857 0 0 0-.085-.009.857.857 0 0 0-.072-.002.857.857 0 0 0-.04.002 17.468 17.468 0 0 0-.607-2.012 1.022 1.022 0 0 0 .072-.072 1.022 1.022 0 0 0 .066-.078 1.022 1.022 0 0 0 .057-.085 1.022 1.022 0 0 0 .047-.09 1.022 1.022 0 0 0 .04-.095 1.022 1.022 0 0 0 .03-.097 1.022 1.022 0 0 0 .018-.1 1.022 1.022 0 0 0 .009-.102 1.022 1.022 0 0 0 .002-.04l-.002-.036a1.022 1.022 0 0 0-.009-.102 1.022 1.022 0 0 0-.019-.1 1.022 1.022 0 0 0-.03-.098 1.022 1.022 0 0 0-.037-.095 1.022 1.022 0 0 0-.049-.09 1.022 1.022 0 0 0-.003-.007c.938-.889 1.813-1.85 2.558-2.882a.857.857 0 0 0 .08.033.857.857 0 0 0 .081.023.857.857 0 0 0 .085.017.857.857 0 0 0 .085.007.857.857 0 0 0 .036 0 .857.857 0 0 0 .085-.005.857.857 0 0 0 .084-.014.857.857 0 0 0 .083-.02.857.857 0 0 0 .082-.032.857.857 0 0 0 .076-.038.857.857 0 0 0 .073-.045.857.857 0 0 0 .067-.052.857.857 0 0 0 .062-.059.857.857 0 0 0 .056-.065.857.857 0 0 0 .05-.07.857.857 0 0 0 .041-.076.857.857 0 0 0 .035-.078.857.857 0 0 0 .026-.08.857.857 0 0 0 .019-.086.857.857 0 0 0 .009-.084.857.857 0 0 0 .001-.052l-.001-.031a.857.857 0 0 0-.007-.085.857.857 0 0 0-.018-.085.857.857 0 0 0-.024-.081.857.857 0 0 0-.031-.08.857.857 0 0 0-.04-.076.857.857 0 0 0-.048-.07.857.857 0 0 0-.054-.068.857.857 0 0 0-.06-.06.857.857 0 0 0-.02-.016c.067-.12.131-.24.196-.36a7.35 7.35 0 0 0-.028-.038zm-1.592 1.072h.012a.857.857 0 0 0 .007.085.857.857 0 0 0 .016.085.857.857 0 0 0 .022.083.857.857 0 0 0 .033.08.857.857 0 0 0 .038.075.857.857 0 0 0 .047.071.857.857 0 0 0 .017.023 54.3 54.3 0 0 1-2.77 2.7 1.022 1.022 0 0 0-.096-.03 1.022 1.022 0 0 0-.1-.02 1.022 1.022 0 0 0-.103-.01 1.022 1.022 0 0 0-.072 0 1.022 1.022 0 0 0-.06.003 17.856 17.856 0 0 0-.887-1.578 1.022 1.022 0 0 0 .063-.08 1.022 1.022 0 0 0 .055-.086 1.022 1.022 0 0 0 .045-.091 1.022 1.022 0 0 0 .036-.095 1.022 1.022 0 0 0 .028-.1 1.022 1.022 0 0 0 .016-.101 1.022 1.022 0 0 0 .006-.102 1.022 1.022 0 0 0 0-.012l-.001-.035a1.022 1.022 0 0 0-.01-.102 1.022 1.022 0 0 0-.004-.026c1.192-.376 2.412-.648 3.662-.737z" fill="#f2f2f2"/></g></svg>