<svg xmlns="http://www.w3.org/2000/svg" width="32" height="32"><rect width="28.203" height="28.203" x="1.898" y="1.898" ry="5.575" fill="#f2f2f2" fill-rule="evenodd"/><g stroke-width="1.138"><path d="M16.029 3.697a1.188 1.188 0 0 0-.65.17L6.075 9.383a1.28 1.28 0 0 0-.62 1.104v11.028c-.001.456.236.876.62 1.104l9.304 5.514c.384.228.858.228 1.242 0l9.304-5.514a1.28 1.28 0 0 0 .62-1.104V10.486a1.28 1.28 0 0 0-.62-1.104l-9.304-5.514a1.217 1.217 0 0 0-.592-.17z" fill="#3476cc"/><path d="M16 28.304c-.214 0-.428-.058-.62-.172L6.074 22.62a1.28 1.28 0 0 1-.62-1.104V10.486c0-.185.04-.365.111-.527L16 16.11z" fill="#f56666"/><path d="M16 28.304c.214 0 .428-.058.62-.172l9.306-5.513a1.28 1.28 0 0 0 .62-1.104V10.486c0-.185-.04-.365-.111-.527L16 16.11z" fill="#7cce44"/></g></svg>