<svg xmlns="http://www.w3.org/2000/svg" height="32" width="32" version="1"><rect width="28.203" height="28.203" x="1.898" y="1.898" ry="5.575" fill="#74d159" fill-rule="evenodd"/><path d="M8.034 6.05v1h-.5c-.831 0-1.5.67-1.5 1.5 0 .832.669 1.5 1.5 1.5h.5v1H6.126c.206.583.754 1 1.408 1h.5v1h1v-1h.5c.83 0 1.5-.668 1.5-1.5 0-.83-.67-1.5-1.5-1.5h-.5v-1h1.908c-.206-.581-.754-1-1.408-1h-.5v-1h-1zm-.5 2h.5v1h-.5a.499.499 0 1 1 0-1zm1.5 2h.5c.277 0 .5.224.5.5 0 .278-.223.514-.5.5h-.5zm4 2v1h6v-1z" fill="#fff"/><g transform="matrix(.75 0 0 .75 3.729 4.903)" stroke-width=".814"><circle cy="23" r="8" cx="24" fill="#8561c5"/><path d="M23 19l-.088 1.054a3.143 3.143 0 0 0-.919.53l-.957-.45-1 1.732.87.604a3.143 3.143 0 0 0-.049.53 3.143 3.143 0 0 0 .046.532l-.867.602 1 1.732.955-.45a3.143 3.143 0 0 0 .92.528L23 27h2l.088-1.054a3.143 3.143 0 0 0 .919-.53l.957.45 1-1.732-.87-.604a3.143 3.143 0 0 0 .049-.53 3.143 3.143 0 0 0-.046-.532l.867-.602-1-1.732-.955.45a3.143 3.143 0 0 0-.921-.528L25 19h-2zm1 2.857A1.143 1.143 0 0 1 25.143 23 1.143 1.143 0 0 1 24 24.143 1.143 1.143 0 0 1 22.857 23 1.143 1.143 0 0 1 24 21.857z" fill="#fff"/></g></svg>