<svg xmlns="http://www.w3.org/2000/svg" width="32" height="32" version="1"><g fill-rule="evenodd"><path d="M1.898 11.3v13.227a5.561 5.561 0 0 0 5.575 5.575h17.052a5.563 5.563 0 0 0 5.577-5.575V11.301z" fill="#5b5b5b"/><path d="M1.898 11.3h28.204V7.476a5.565 5.565 0 0 0-5.577-5.577H7.473a5.563 5.563 0 0 0-5.575 5.577z" fill="#63a535"/></g><g transform="translate(0 -.3)"><circle r="6" cy="21" cx="10" fill="#cccccf" fill-opacity=".941"/><circle r="3" cy="21" cx="10" fill="#5b5b5b"/><circle r="6" cy="21" cx="22" fill="#cccccf" fill-opacity=".941"/><circle r="3" cy="21" cx="22" fill="#5b5b5b"/></g><g transform="translate(44.196 1.332)"><circle r="1.5" cy="5.381" cx="-36.696" fill="#5b5b5b"/><path fill="#983a0e" d="M-21.196 3.881h3v3h-3z"/><path fill="#f7bf32" d="M-20.196 4.881h1v1h-1z"/><circle r="1.5" cy="5.381" cx="-32.696" fill="#5b5b5b"/><circle r="1.5" cy="5.381" cx="-28.696" fill="#5b5b5b"/></g></svg>