<svg xmlns="http://www.w3.org/2000/svg" height="32" width="32" version="1"><rect width="28.203" height="28.203" x="1.898" y="1.898" ry="5.575" fill="#7cb14f" fill-rule="evenodd"/><path d="M23 12c-.764-2.423-3.377-2.982-5.483-3-1.855 0-3.218.694-4.09 1.918C12.565 12.134 12 13.38 12 16.006c0 2.603.548 3.92 1.38 5.152.831 1.224 2.525 1.83 3.885 1.836 1.2.006 2.541-.512 3.735-.994v-3.923h-2V17h6v6c-2.627 1.4-5.385 1.989-8.13 2-3.07 0-5.485-.802-7.244-2.406C7.876 20.991 7 18.794 7 16.006c0-2.797.875-4.997 2.626-6.6C11.386 7.801 13.8 7 16.87 7c2.62.086 4.893.618 7.131 1.5V12z" fill="#2e2e2e"/></svg>