<svg xmlns="http://www.w3.org/2000/svg" height="32" width="32" version="1"><rect width="28.203" height="28.203" x="1.898" y="1.898" ry="5.575" fill="#1d3b85" fill-rule="evenodd"/><path d="M9.522 9.92c-5.19.222-5.046 12.022 0 12.14h16.862v-3.354h-5.951l5.904-4.77V9.967zm11.199 3.72l-3.802 3.188v-1.535H13.21v3.59h-2.882c-.59.405-.999-5.086 0-5.196z" fill="#afafaf"/><path d="M9.483 9.684h-.005c-1.391.06-2.438.91-3.104 2.1-.666 1.19-.98 2.725-.97 4.257.009 1.53.341 3.06 1.012 4.235.67 1.176 1.71 2.008 3.067 2.04H26.597V18.47h-5.501l5.454-4.407v-4.33zm.013.493l16.561.046v3.605l-6.355 5.134h6.402v2.861H9.494c-1.166-.027-2.037-.714-2.65-1.79-.614-1.077-.94-2.535-.948-3.996-.01-1.46.299-2.924.908-4.013.609-1.087 1.49-1.795 2.692-1.847zM21.368 13.4l-.682.003-10.405.047-.012.002c-.237.026-.4.205-.503.402a2.503 2.503 0 0 0-.217.715c-.098.553-.121 1.248-.095 1.928.026.68.1 1.34.212 1.825.056.242.115.437.207.593a.483.483 0 0 0 .202.206.36.36 0 0 0 .226.017h3.122v-3.59h3.215v1.817zm-1.362.498l-2.875 2.411v-1.253h-4.2v3.59h-2.64a1.895 1.895 0 0 1-.145-.435c-.1-.434-.175-1.077-.2-1.733-.025-.656 0-1.328.088-1.823.043-.248.105-.45.169-.573.063-.122.105-.138.118-.14z" style="line-height:normal;font-variant-ligatures:normal;font-variant-position:normal;font-variant-caps:normal;font-variant-numeric:normal;font-variant-alternates:normal;font-feature-settings:normal;text-indent:0;text-align:start;text-decoration-line:none;text-decoration-style:solid;text-decoration-color:#000;text-transform:none;text-orientation:mixed;white-space:normal;shape-padding:0;isolation:auto;mix-blend-mode:normal;solid-color:#000;solid-opacity:1" color="#000" font-weight="400" font-family="sans-serif" overflow="visible" fill="#122246"/></svg>