<svg xmlns="http://www.w3.org/2000/svg" height="32" width="32" version="1"><rect width="28.203" height="28.203" x="1.898" y="1.898" ry="5.575" fill="#5584bb" fill-rule="evenodd"/><g fill="#fff"><path d="M14 4h4v2h-4zM14 26h4v2h-4zM28 14v4h-2v-4zM6 14v4H4v-4zM23.073 6.102L25.9 8.931l-1.414 1.414-2.828-2.828zM7.517 21.659l2.828 2.828-1.414 1.414-2.829-2.828zM25.901 23.073L23.073 25.9l-1.414-1.414 2.828-2.828zM10.345 7.517l-2.828 2.828-1.415-1.414 2.829-2.829z"/></g><path d="M12 9.072A8 8 0 0 0 8.633 19.1l13.733-7.929A8 8 0 0 0 12 9.072zM9.634 20.83A8 8 0 0 0 20 22.928a8 8 0 0 0 3.367-10.027z" fill="#fff"/></svg>