<svg xmlns="http://www.w3.org/2000/svg" height="32" width="32" version="1"><rect width="28.203" height="28.203" x="1.898" y="1.898" ry="5.575" fill="#ff6c89" fill-rule="evenodd"/><path d="M9.008 24.141c.053-.522.364-1.651 1.138-4.126 1.31-4.188 2.13-8.947 1.783-10.33-.087-.344-.096-.52-.033-.6.199-.247.994-.516 1.648-.557 1.352-.028 1.285.472 1.24 1.561-.04.976-.297 2.811-.537 4.042-.074.382-.114.751-.088.821.04.105.402.127 2.13.126 1.146-.001 2.13-.032 2.185-.069.175-.115.277-.504 1.02-3.871.396-1.802.79-3.395.872-3.541.19-.334.655-.597 1.056-.597.41 0 1.132.228 1.379.435l.2.167-.191.565c-.436 1.293-1.645 7.06-2.12 10.108a84.342 84.342 0 0 1-.394 2.325c-.197 1.026-.202 1.417-.025 1.892.281.75.268.823-.19 1.033-.226.103-.745.246-1.152.317-1.379.241-1.8-.066-1.8-1.312-.001-.838.077-1.286.605-3.487.233-.97.424-1.84.424-1.936 0-.163-.041-.17-.596-.114-.327.033-1.327.066-2.223.072-.895.006-1.654.038-1.686.071-.032.034-.21.733-.393 1.554a94.667 94.667 0 0 1-.737 3.003c-.221.83-.419 1.757-.439 2.06-.024.359-.085.594-.177.678-.209.192-1.239.495-1.888.557-.791.083-1.07-.265-1.012-.847z" fill="#fff"/></svg>