<svg xmlns="http://www.w3.org/2000/svg" height="32" width="32"><rect width="28.203" height="28.203" x="1.898" y="1.898" ry="5.575" fill="#999" fill-rule="evenodd"/><path d="M12.08 26.51a10.995 10.995 0 0 1-.578-1.026c-.374-.757-.522-.78-1.33-.214-1.014.711-1.402.516-1.093-.548.102-.351.124-.698.048-.77-.076-.072-.545.016-1.043.196-1.138.411-1.48.267-1.086-.458.154-.283.235-.557.18-.609-.054-.052-.425.016-.825.15-1.378.462-1.564.223-.686-.881.295-.37.538-.816.54-.992.003-.175.248-.582.546-.904.679-.735 1.44-2.148 1.434-2.662-1.736-2.53-.954-3.716.182-5.886.298-.624.695-1.86 1.06-2.187 1.544-2 4.547-1.942 6.168-.027.49.305 1.337 2.04 1.5 2.665 2.002 2.402-.442 4.249-.169 5.533.145.664.832 1.817 1.534 2.577.29.315.528.747.528.96 0 .215.202.642.45.95.75.934.54 1.233-.595.853-.875-.294-1.004-.207-.651.44.243.448.24.505-.03.603-.163.06-.687-.01-1.165-.155-.477-.145-.908-.226-.958-.179-.049.047-.042.462.015.922.091.728.063.837-.218.837-.178 0-.589-.192-.913-.428-.325-.235-.675-.427-.78-.427-.104 0-.434.462-.734 1.026-.582 1.097-.916 1.257-1.332.642z" fill="#248afd"/><g stroke-width="1.288"><path d="M9.014 6.698s.526 3.15 3.52 3.868c0 0 .25-2.196-.588-2.954s-2.932-.914-2.932-.914z" fill="#d19e01"/><path d="M16 6.633s-.471 3.11-3.465 3.933c0 0-.278-2.191.548-2.965.826-.773 2.917-.968 2.917-.968z" fill="#d19e01"/><path d="M12.544 5.132s-2.995 2.79-.01 5.434c2.846-2.752.01-5.434.01-5.434z" fill="#fecd38"/></g><g transform="matrix(.38813 0 0 .38813 .087 3.192)" stroke-width="1.288"><circle cx="21.5" cy="28.5" r="6.5" fill="#fecd38"/><path d="M21.5 24.5a4 4 0 0 0-4 4 4 4 0 0 0 4 4 4 4 0 0 0 4-4 4 4 0 0 0-4-4zm0 2.666a1.333 1.333 0 0 1 1.333 1.334 1.333 1.333 0 0 1-1.333 1.333 1.333 1.333 0 0 1-1.333-1.333 1.333 1.333 0 0 1 1.333-1.334z" fill="#535353"/></g><g transform="matrix(.38813 0 0 .38813 .863 3.192)" stroke-width="1.288"><circle cx="41.5" cy="28.5" r="6.5" fill="#fecd38"/><path d="M41.5 24.5a4 4 0 0 0-4 4 4 4 0 0 0 4 4 4 4 0 0 0 4-4 4 4 0 0 0-4-4zm0 2.666a1.333 1.333 0 0 1 1.333 1.334 1.333 1.333 0 0 1-1.333 1.333 1.333 1.333 0 0 1-1.333-1.333 1.333 1.333 0 0 1 1.333-1.334z" fill="#535353"/></g><g stroke-width="1.288"><path d="M9.014 16.045s1.249-1.21 3.423-1.21c2.175 0 3.563 1.48 3.563 1.48s-.046.85-.555 1.12c-.51.268-1.897-1.255-3.193-1.255-1.295 0-2.637 1.075-2.637 1.075z" fill="#fecd38"/><path d="M12.462 15.575c-.958-.004-1.877.209-2.576.63l-.769.465.69 1.318c.441.846 1.016 1.631 1.602 2.188.503.479 1.044.87 1.203.87.474 0 2.16-1.832 2.817-3.062.337-.631.537-1.104.445-1.05-.092.054-.237-.077-.323-.292-.097-.241-.426-.493-.865-.66a6.386 6.386 0 0 0-2.224-.407z" fill="#535353"/></g><g style="line-height:1.25;-inkscape-font-specification:'DejaVu Serif, Bold';font-variant-ligatures:normal;font-variant-caps:normal;font-variant-numeric:normal;font-feature-settings:normal;text-align:start"><path style="-inkscape-font-specification:'DejaVu Serif, Bold';font-variant-ligatures:normal;font-variant-caps:normal;font-variant-numeric:normal;font-feature-settings:normal;text-align:start" d="M24.334 12.172h-1.526l-.405 1.446h1.527zm-.653-3.158l-.555 2.033h1.526l.561-2.033h1.279l-.561 2.033h.937v1.125h-1.244l-.399 1.446h1.643v1.136h-1.944l-.555 2.022h-1.278l.555-2.022H22.12l-.555 2.022h-1.29l.556-2.022h-.949v-1.136h1.232l.405-1.446h-1.637v-1.125h1.955l.555-2.033z" aria-label="#" font-weight="700" font-size="22.165" font-family="DejaVu Serif" letter-spacing="0" word-spacing="0" fill="#f2f2f2" stroke-width=".335"/></g></svg>