<svg xmlns="http://www.w3.org/2000/svg" height="32" width="32" version="1"><rect width="28.203" height="28.203" x="1.898" y="1.898" ry="5.575" fill="#7c5500" fill-rule="evenodd"/><path d="M16.724 8.756l-11.59.035 5.07 9.36v7.267H8.031v.724h5.796v-.724h-2.174v-7.222l5.071-9.44z" fill="#e2e5e7"/><path d="M7.31 10.205c-.004.007-.004.016-.001.027.03.133 2.153 4.022 2.62 4.8.256.426.54.774.726.887.163.1.35.108.512.02.177-.095.527-.517.78-.941.44-.735 2.585-4.66 2.604-4.764.002-.013-.01-.022-.036-.03H7.31z" fill="#b31f13"/><path d="M19.472 11.824c-.793-.51-1.211-1.667-1.792-2.143-.326-.268-.321-.471.105-.447.413.023.979.134 1.657.467 0 0-.447-2.1-1.527-3.287-.283-.312-.24-.428.167-.301.887.276 2.335.88 3.019 2.015 0 0 1.442-2.322 3.723-2.27.427.01.453.258.1.493-.834.557-2.163 1.705-2.184 3.377 0 0 1.83-1.13 3.938.601.327.269.212.508-.215.526-.97.041-2.587.238-3.23 1.061 0 0 .988-.122 1.14.22.15.334-.032.798-.611.906-1.457.272-3.05-.42-4.29-1.218z" fill="#76ae17"/><path d="M24.383 20.39a5.684 7.333 14.121 0 1-7.357 5.596 5.684 7.333 14.121 0 1-3.614-8.58 5.684 7.333 14.121 0 1 7.356-5.598 5.684 7.333 14.121 0 1 3.615 8.582z" fill="#9b7528"/><path d="M21.1 11.916a.525.525 0 0 0-.02.549l.517.908a.513.513 0 0 0 .707.191l.671-.393a5.703 7.342 14.475 0 0-1.875-1.255zm-1.187-.252a5.703 7.342 14.475 0 0-2.095.33l.24.422a.513.513 0 0 0 .708.191l.898-.525a.516.516 0 0 0 .25-.418zm.403.82a.511.511 0 0 0-.393.052l-.898.525a.527.527 0 0 0-.19.717l.517.91a.513.513 0 0 0 .707.19l.899-.526a.527.527 0 0 0 .19-.717l-.517-.908a.515.515 0 0 0-.315-.244zm3.001 1.093l-.754.441a.527.527 0 0 0-.19.717l.517.909a.513.513 0 0 0 .708.191l.69-.403a5.703 7.342 14.475 0 0-.97-1.855zm-5.98-1.375a5.703 7.342 14.475 0 0-1.697 1.225l.173.303a.513.513 0 0 0 .708.192l.898-.527a.527.527 0 0 0 .19-.716l-.271-.477zm.734 1.594a.511.511 0 0 0-.393.053l-.899.527a.527.527 0 0 0-.19.716l.518.908a.513.513 0 0 0 .707.192l.898-.526a.527.527 0 0 0 .19-.716l-.517-.91a.514.514 0 0 0-.314-.244zm3.539.957a.511.511 0 0 0-.394.053l-.898.526a.527.527 0 0 0-.19.717l.517.908a.513.513 0 0 0 .708.191l.898-.525a.527.527 0 0 0 .19-.717l-.517-.909a.516.516 0 0 0-.314-.244zm2.83 1.195l-.583.341a.527.527 0 0 0-.19.717l.518.908a.513.513 0 0 0 .506.258 5.703 7.342 14.475 0 0-.251-2.225zm-9.174-2.129a5.703 7.342 14.475 0 0-1.004 1.418c.004-.003.009-.002.013-.004l.899-.525a.527.527 0 0 0 .19-.717l-.098-.172zm.56 1.289a.512.512 0 0 0-.393.054l-.9.525a.527.527 0 0 0-.19.716l.519.909a.513.513 0 0 0 .707.191l.898-.525a.527.527 0 0 0 .19-.717l-.517-.908a.518.518 0 0 0-.314-.245zm3.539.957a.512.512 0 0 0-.394.053l-.898.526a.527.527 0 0 0-.19.716l.517.908a.513.513 0 0 0 .708.192l.898-.525a.527.527 0 0 0 .19-.717l-.518-.909a.515.515 0 0 0-.314-.245zm3.538.956a.512.512 0 0 0-.393.054l-.898.526a.527.527 0 0 0-.19.716l.517.908a.513.513 0 0 0 .708.192l.899-.525a.527.527 0 0 0 .19-.717l-.519-.91a.52.52 0 0 0-.315-.245zm-5.783.357a.512.512 0 0 0-.394.054l-.898.525a.527.527 0 0 0-.19.717l.517.908a.513.513 0 0 0 .708.191l.898-.525a.527.527 0 0 0 .19-.717l-.517-.909a.518.518 0 0 0-.315-.245zm3.538.957a.512.512 0 0 0-.393.054l-.898.525a.527.527 0 0 0-.19.717l.517.908a.513.513 0 0 0 .708.19l.898-.524a.527.527 0 0 0 .19-.717l-.518-.909a.517.517 0 0 0-.314-.245zm3.54.957a.512.512 0 0 0-.394.054l-.899.525a.527.527 0 0 0-.19.716l.518.909a.512.512 0 0 0 .699.194 5.703 7.342 14.475 0 0 .456-1.307 5.703 7.342 14.475 0 0 .164-.777l-.04-.069a.517.517 0 0 0-.314-.245zm-10.515-2.82a5.703 7.342 14.475 0 0-.307.935 5.703 7.342 14.475 0 0-.262 1.475.511.511 0 0 0 .21-.066l.898-.525a.527.527 0 0 0 .19-.717l-.518-.908a.509.509 0 0 0-.21-.194zm1.191 2.22a.511.511 0 0 0-.393.053l-.9.525a.527.527 0 0 0-.19.717l.519.908a.513.513 0 0 0 .708.191l.899-.525a.527.527 0 0 0 .19-.716l-.517-.908a.516.516 0 0 0-.314-.244zm3.539.957a.511.511 0 0 0-.394.053l-.898.525a.527.527 0 0 0-.19.717l.518.908a.513.513 0 0 0 .707.191l.898-.525a.527.527 0 0 0 .19-.717l-.516-.908a.517.517 0 0 0-.314-.244zm3.538.957a.511.511 0 0 0-.393.053l-.898.525a.527.527 0 0 0-.19.717l.517.908a.513.513 0 0 0 .708.191l.899-.525a.527.527 0 0 0 .19-.717l-.518-.908a.516.516 0 0 0-.315-.244zm-5.783.356a.511.511 0 0 0-.394.053l-.898.526a.527.527 0 0 0-.19.716l.517.91a.513.513 0 0 0 .708.19l.898-.526a.527.527 0 0 0 .19-.716l-.516-.908a.516.516 0 0 0-.314-.244zm3.538.957a.511.511 0 0 0-.393.053l-.898.525a.527.527 0 0 0-.19.717l.517.909a.513.513 0 0 0 .708.191l.898-.526a.527.527 0 0 0 .19-.717l-.517-.908a.516.516 0 0 0-.315-.244zm3.54.957a.511.511 0 0 0-.394.053l-.899.525a.527.527 0 0 0-.19.717l.2.351a5.703 7.342 14.475 0 0 1.33-1.622c-.016-.007-.03-.019-.047-.024zm-10.144-2.349a5.703 7.342 14.475 0 0 .218 1.304.522.522 0 0 0 .141-.673l-.36-.63zm.82 1.749a.511.511 0 0 0-.392.053l-.055.032a5.703 7.342 14.475 0 0 .97 1.854l.12-.07a.527.527 0 0 0 .19-.716l-.518-.91a.516.516 0 0 0-.314-.243zm3.54.957a.511.511 0 0 0-.394.052l-.898.527a.527.527 0 0 0-.19.716l.517.908a.513.513 0 0 0 .708.192l.898-.526a.527.527 0 0 0 .19-.716l-.516-.91a.516.516 0 0 0-.315-.243zm3.538.956a.511.511 0 0 0-.393.053l-.899.527a.527.527 0 0 0-.19.716l.224.393a5.703 7.342 14.475 0 0 1.818-1.014l-.246-.43a.516.516 0 0 0-.314-.245zm-5.784.357a.512.512 0 0 0-.393.054l-.036.02a5.703 7.342 14.475 0 0 1.187.95l-.443-.779a.517.517 0 0 0-.315-.245zm3.539.957a.512.512 0 0 0-.394.053l-.898.526-.004.004a5.703 7.342 14.475 0 0 1.765-.066l-.154-.273a.52.52 0 0 0-.315-.245z" fill="#7c5e20"/></svg>