<svg xmlns="http://www.w3.org/2000/svg" height="32" width="32" version="1"><rect width="28.203" height="28.203" x="1.898" y="1.898" ry="5.575" fill="#1d4498" fill-rule="evenodd"/><g transform="matrix(.75758 0 0 .75758 3.879 3.879)" stroke-width="1.32"><rect x="-27" y="-27" width="7" height="7" ry="3.5" rx="3.5" transform="matrix(0 -1 -1 0 0 0)" fill="#df82d9"/><path d="M4 19l4.215-6.384 3.421 5.926z" fill="#72acef"/><path d="M3 13.5l7-3.5v7z" fill="#4c95eb"/><path d="M4 8.925l7.494-1.534L9.724 14z" fill="#3a8ae9"/><path d="M7 4.616l7.636.459L11.215 11z" fill="#3074c3"/><rect x="-24" y="-29" width="20" height="20" ry="10" rx="10" transform="matrix(0 -1 -1 0 0 0)" fill="#d761cf"/><rect x="-28" y="-18" width="7" height="7" ry="3.5" rx="3.5" transform="matrix(0 -1 -1 0 0 0)" fill="#df82d9"/><g transform="matrix(.66667 0 0 .63636 4.333 -1.182)" fill="#fff"><ellipse ry="5" rx="4" cx="26" cy="22"/><ellipse ry="5" rx="4" cx="30" cy="21"/></g><ellipse cx="22.75" cy="13" ry="1" rx=".75" fill="#1b1b1b"/><path d="M25.299 18c-1.092.262-1.765 1.143-2.842 1.381-.776.151-1.797-.49-2.524-.132-.406.2-1.461.73-.61 1.07 0 0 .502.203 1.134.384.632.18 1.365.387 2.14.256.875-.149 1.58-.655 2.177-1.102.598-.446 1.04-.865 1.04-.865.412-.379.096-.988-.515-.993z" color="#000" opacity=".6" fill-rule="evenodd"/><ellipse cx="25.75" cy="12" ry="1" rx=".75" fill="#1b1b1b"/></g></svg>