<svg xmlns="http://www.w3.org/2000/svg" height="32" width="32" version="1"><rect width="28.203" height="28.203" x="1.898" y="1.898" ry="5.575" fill="#2a88ae" fill-rule="evenodd"/><path d="M16.108 23.234a1.63 1.63 0 0 0 1.325-1.166c.066-.238.068-.786.004-1.015-.205-.741-.873-1.225-1.693-1.225-1.117 0-1.886.92-1.711 2.047a1.62 1.62 0 0 0 1.252 1.336c.327.07.5.075.823.023zm.92-5.108c0-.485.172-.912.506-1.248.25-.252.257-.258.734-.588.82-.567 1.564-1.219 1.8-1.574.225-.34.268-.417.378-.67.294-.681.35-1.525.157-2.374-.36-1.582-1.79-2.652-3.865-2.89-.96-.111-1.958-.035-2.66.203-1.156.393-1.962 1.14-2.404 2.228-.228.56-.39 1.34-.39 1.886v.182h2.833v-.204c0-.112.043-.35.096-.527.264-.886.69-1.3 1.413-1.375.695-.072 1.312.073 1.604.376.277.288.482.834.485 1.29.002.59-.46 1.274-1.205 1.777-.394.266-.472.324-.997.743-.99.79-1.187 1.17-1.232 2.37l-.022.604h2.768z" fill="#fff"/></svg>