<svg xmlns="http://www.w3.org/2000/svg" height="32" width="32" version="1"><rect width="28.203" height="28.203" x="1.898" y="1.898" ry="5.575" fill="#fecd38" fill-rule="evenodd"/><circle cy="16" cx="16" r="12" fill="#31b03b"/><g fill="#fff"><path d="M6 10.5h2v10H6zM9 10.5h2v8H9zM26 10.5h-2v10h2zM23 10.5h-2v8h2zM16 10.5a4 4 0 0 0-4 4 4 4 0 0 0 4 4 4 4 0 0 0 4-4 4 4 0 0 0-4-4zm0 2a2 2 0 0 1 2 2 2 2 0 0 1-2 2 2 2 0 0 1-2-2 2 2 0 0 1 2-2z"/><path d="M6 12.8h4v2H6zM23 10.5l2.716 4.588.102 1.085-.357.544.335 2.483-.167-.444-1.1-1.904-3.13-5.421zM12 19.5h8v2h-8z"/></g></svg>