<svg xmlns="http://www.w3.org/2000/svg" height="32" width="32" version="1"><rect width="28.203" height="28.203" x="1.898" y="1.898" ry="5.575" fill="#2a5083" fill-rule="evenodd"/><path d="M16 7c-4.914 0-9 3.876-9 8.566C7 20.256 11.086 24 16 24h.002c.689-.002 1.365-.134 2.035-.282 1.382.909 3.069 1.53 4.984 1.186.879-.16 1.23-1.03.618-1.678-.656-.693-1.074-1.124-1.094-2.047 1.497-1.537 2.453-3.496 2.455-5.613C25 10.876 20.914 7 16 7zm0 2c3.861 0 6.999 3.036 7 6.564-.002 1.517-.685 2.985-1.887 4.219a2 2 0 0 0-.568 1.439c.013.587.24 1.13.467 1.637a5.699 5.699 0 0 1-1.877-.811 2 2 0 0 0-1.53-.283c-.636.14-1.168.233-1.605.235-3.898 0-7-2.905-7-6.434C9 12.036 12.138 9 16 9z" fill="#fff"/><path d="M13 17.984s1.6 1 3 1 3-1 3-1" fill="none" stroke="#fff" stroke-width="2" stroke-linecap="round" stroke-linejoin="round"/></svg>