<svg xmlns="http://www.w3.org/2000/svg" height="32" width="32" version="1"><rect width="28.203" height="28.203" x="1.898" y="1.898" ry="5.575" fill="#c65c5c" fill-rule="evenodd"/><path d="M10.62 7.642c.001 2.712-.778 5.893 3.207 8.123.221.103.198.533 0 .61-4.156 2.586-3.207 5.738-3.207 8.101h10.76c0-2.363.95-5.515-3.205-8.102-.198-.076-.222-.506 0-.609 3.984-2.23 3.203-5.41 3.205-8.123H16z" fill="#fff"/><rect width="14.849" height="1.9" x="8.575" y="6.699" ry=".943" fill="#f5ce89"/><path d="M12.296 10.699c-.194 1.545.892 2.404 2.592 3.777.408.252.668.633.664 1.238v4.354l-4.932 4.408h10.76l-4.93-4.408v-4.354c-.004-.605.256-.986.664-1.238 1.7-1.373 2.785-2.232 2.592-3.777h-3.705z" fill="#f8e2aa"/><rect width="14.849" height="1.9" x="8.575" y="23.401" ry=".943" fill="#f5ce89"/></svg>