<svg xmlns="http://www.w3.org/2000/svg" height="32" width="32" version="1"><g fill-rule="evenodd"><path d="M1.897 15.162c.037.16.12.315.268.315h5.652c.178 0 .319-.17.319-.377V9.56c0-.207-.141-.374-.319-.374H2.165c-.148 0-.23.153-.268.312zM1.897 22.502c.038.16.12.312.268.312h5.652c.178 0 .319-.167.319-.375V16.9c0-.208-.141-.377-.319-.377H2.165c-.148 0-.23.155-.268.315zM7.862 30.102c.142-.039.274-.144.274-.323v-5.54c0-.209-.141-.376-.319-.376H2.165c-.148 0-.23.154-.268.313v.351a5.563 5.563 0 0 0 5.577 5.575zM15.2 30.102c.142-.039.276-.144.276-.323v-5.54c0-.209-.144-.376-.32-.376H9.504c-.177 0-.32.167-.32.375v5.541c0 .179.133.284.275.323zM22.54 30.102c.142-.039.275-.144.275-.323v-5.54c0-.209-.143-.376-.32-.376h-5.65c-.177 0-.32.167-.32.375v5.541c0 .179.133.284.275.323zM30.103 24.178c-.036-.161-.12-.315-.268-.315h-5.652c-.178 0-.319.167-.319.375v5.541c0 .179.132.284.274.323h.388a5.563 5.563 0 0 0 5.577-5.575zM24.138 1.898c-.142.039-.274.144-.274.323v5.54c0 .209.141.376.319.376h5.652c.149 0 .232-.154.268-.315v-.35a5.563 5.563 0 0 0-5.577-5.574z" fill="#ccc"/><path d="M16.8 1.898c-.142.039-.276.144-.276.323v5.54c0 .209.144.376.32.376h5.651c.177 0 .32-.167.32-.375V2.22c0-.179-.133-.284-.275-.323z" fill="#ff5757"/><path d="M9.46 1.898c-.142.039-.275.144-.275.323v5.54c0 .209.143.376.32.376h5.65c.177 0 .32-.167.32-.375V2.22c0-.179-.133-.284-.275-.323z" fill="#ccc"/><path d="M1.897 7.824v1.674c.038-.16.12-.312.268-.312h5.652c.178 0 .319.167.319.375V15.1c0 .208-.141.377-.319.377H2.165c-.148 0-.23-.155-.268-.315v1.676c.037-.16.12-.315.268-.315h5.652c.178 0 .319.17.319.377v5.54c0 .207-.141.374-.319.374H2.165c-.148 0-.23-.153-.268-.312v1.674c.038-.16.12-.313.268-.313h5.652c.178 0 .319.167.319.375v5.541c0 .179-.132.284-.274.323H9.46c-.142-.039-.275-.144-.275-.323v-5.54c0-.209.143-.376.32-.376h5.65c.177 0 .32.167.32.375v5.541c0 .179-.133.284-.275.323h1.6c-.142-.039-.276-.144-.276-.323v-5.54c0-.209.144-.376.32-.376h5.651c.177 0 .32.167.32.375v5.541c0 .179-.133.284-.275.323h1.598c-.142-.039-.274-.144-.274-.323v-5.54c0-.209.141-.376.319-.376h5.652c.149 0 .232.154.268.315V22.5c-.036.16-.12.314-.268.314h-5.652c-.178 0-.319-.167-.319-.375V16.9c0-.208.141-.377.319-.377h5.652c.149 0 .232.155.268.317v-1.68c-.036.162-.12.317-.268.317h-5.652c-.178 0-.319-.17-.319-.377V9.56c0-.207.141-.374.319-.374h5.652c.149 0 .232.153.268.314V7.822c-.036.161-.12.315-.268.315h-5.652c-.178 0-.319-.167-.319-.375V2.22c0-.179.132-.284.274-.323H22.54c.142.039.275.144.275.323v5.54c0 .209-.143.376-.32.376h-5.65c-.177 0-.32-.167-.32-.375V2.22c0-.179.133-.284.275-.323h-1.6c.142.039.276.144.276.323v5.54c0 .209-.144.376-.32.376H9.504c-.177 0-.32-.167-.32-.375V2.22c0-.179.133-.284.275-.323H7.862c.142.039.274.144.274.323v5.54c0 .209-.141.376-.319.376H2.165c-.148 0-.23-.154-.268-.313z" fill="#ececec"/><path d="M1.897 7.824c.038.16.12.313.268.313h5.652c.178 0 .319-.167.319-.375V2.22c0-.179-.132-.284-.274-.323h-.388a5.563 5.563 0 0 0-5.577 5.575z" fill="#4f4f4f"/><path d="M16.845 16.523c-.177 0-.32.17-.32.377v5.54c0 .207.143.374.32.374h5.65c.177 0 .32-.167.32-.375V16.9c0-.208-.143-.377-.32-.377z" fill="#0286c2"/><path d="M16.845 16.523h5.65c.177 0 .32.17.32.377v5.54c0 .207-.143.374-.32.374h-5.65c-.177 0-.32-.167-.32-.375V16.9c0-.208.143-.377.32-.377z" fill="#ccc"/><path d="M9.505 16.523c-.177 0-.32.17-.32.377v5.54c0 .207.143.374.32.374h5.65c.177 0 .32-.167.32-.375V16.9c0-.208-.143-.377-.32-.377z" fill="#0286c2"/><path d="M9.505 16.523h5.65c.177 0 .32.17.32.377v5.54c0 .207-.143.374-.32.374h-5.65c-.177 0-.32-.167-.32-.375V16.9c0-.208.143-.377.32-.377z" fill="#4f4f4f"/><path d="M16.845 9.186c-.177 0-.32.167-.32.375V15.1c0 .208.143.377.32.377h5.65c.177 0 .32-.17.32-.377V9.56c0-.207-.143-.374-.32-.374z" fill="#0286c2"/><path d="M16.845 9.186h5.65c.177 0 .32.167.32.375V15.1c0 .208-.143.377-.32.377h-5.65c-.177 0-.32-.17-.32-.377V9.56c0-.207.143-.374.32-.374z" fill="#ff5757"/><path d="M9.505 9.186c-.177 0-.32.167-.32.375V15.1c0 .208.143.377.32.377h5.65c.177 0 .32-.17.32-.377V9.56c0-.207-.143-.374-.32-.374z" fill="#0286c2"/><path d="M9.505 9.186h5.65c.177 0 .32.167.32.375V15.1c0 .208-.143.377-.32.377h-5.65c-.177 0-.32-.17-.32-.377V9.56c0-.207.143-.374.32-.374z" fill="#ccc"/><path d="M30.103 16.84c-.036-.162-.12-.317-.268-.317h-5.652c-.178 0-.319.17-.319.377v5.54c0 .207.141.374.319.374h5.652c.149 0 .232-.153.268-.314z" fill="#4ac73e"/><path d="M30.103 9.5c-.036-.16-.12-.314-.268-.314h-5.652c-.178 0-.319.167-.319.375V15.1c0 .208.141.377.319.377h5.652c.149 0 .232-.155.268-.317z" fill="#ccc"/></g></svg>