<svg xmlns="http://www.w3.org/2000/svg" width="32" height="32"><rect width="28.203" height="28.203" x="1.898" y="1.898" ry="5.575" fill="#248afd" fill-rule="evenodd"/><g transform="matrix(.59801 0 0 .59801 30.606 18.753)" fill="#fff"><path d="M-24.43-13.086L-36.225-2.7l-.006.006a1.256 1.256 0 0 0-.376.898V8.861c0 .7.563 1.264 1.263 1.264h3.153V-1.52c.22-.004.98-.004 1.341.01h5.118a1.336 1.336 0 0 1 1.341 1.34v10.295h10.883c.7 0 1.264-.564 1.264-1.264V-1.797c0-.381-.176-.712-.442-.943h.024zm3.405 11.563h3.076c.7 0 1.263.563 1.263 1.263v3.076c0 .7-.563 1.264-1.263 1.264h-3.076c-.7 0-1.264-.564-1.264-1.264V-.26c0-.7.564-1.263 1.264-1.263z"/><path d="M-24.463-19.34c-.026.002-.05.015-.076.02a.715.715 0 0 0-.184.049c-.014.006-.027.015-.04.023-.055.028-.113.05-.16.092L-40.833-5.168a.74.74 0 0 0-.066 1.047l1.142 1.3a.74.74 0 0 0 1.047.067l14.283-12.56 14.285 12.56a.738.738 0 0 0 1.045-.066l1.145-1.301a.74.74 0 0 0-.067-1.047l-5.937-5.22v-3.958c0-.7-.564-1.263-1.264-1.263h-.836c-.7 0-1.263.563-1.263 1.263v1l-6.61-5.81c-.047-.042-.101-.063-.154-.09-.016-.009-.03-.018-.047-.025a.71.71 0 0 0-.182-.05c-.038-.006-.075-.013-.115-.013-.012 0-.024-.007-.037-.006z"/><path d="M-32.191-1.52l5.227 1.728v8.39l-5.227 1.534z" fill-opacity=".619"/><circle r=".494" cy="4.779" cx="-28.182"/></g></svg>