<svg xmlns="http://www.w3.org/2000/svg" height="32" width="32" version="1"><g fill-rule="evenodd"><path d="M22.832 10.95a.366.366 0 0 0-.148.005v-.004a.241.241 0 0 0-.1.067c-1.074 3.006-2.136 6.006-3.213 9.007.592.003 1.2.041 1.791 0 1.042-3.028 2.118-6.05 3.176-9.07-.453-.011-.902.008-1.358 0-.048.007-.098 0-.148-.006z" fill="#0286c2"/><path d="M15.102 30.102c1.056-2.726 2.33-5.715 3.242-8.258 1.227-.024 2.449-.011 3.68-.035a3.29 3.29 0 0 0 1.302-.354c.425-.216.785-.522.914-.902 1.037-2.918 2.073-5.808 3.076-8.739.165-.442.266-.928.133-1.388-.175-.589-.711-1.037-1.289-1.194-.502-.156-1.008-.088-1.523-.1a547.97 547.97 0 0 1-4.77-.032v.002c-.024.051-.038.18-.062.23-2.337 6.554-5.093 14.05-7.512 20.77zm7.73-19.153c.05.006.1.013.148.006.456.008.905-.011 1.358 0-1.058 3.02-2.134 6.042-3.176 9.07-.59.041-1.2.003-1.79 0 1.076-3 2.138-6 3.212-9.007a.241.241 0 0 1 .1-.067v.004a.366.366 0 0 1 .148-.006z" fill="#fff"/><path d="M11.574 1.898h-4.1a5.563 5.563 0 0 0-5.576 5.575v17.052a5.565 5.565 0 0 0 5.577 5.577h4.818c2.42-6.72 5.175-14.216 7.512-20.77.024-.05.038-.179.062-.23V9.1c1.576.016 3.194.03 4.77.033.515.01 1.02-.057 1.523.1.578.156 1.114.604 1.29 1.193.132.46.03.946-.134 1.388-1.003 2.931-2.04 5.821-3.076 8.739-.13.38-.49.686-.914.902a3.29 3.29 0 0 1-1.303.354c-1.23.024-2.452.01-3.68.035-.912 2.543-2.185 5.532-3.241 8.258h9.425a5.563 5.563 0 0 0 5.575-5.577V7.473a5.561 5.561 0 0 0-5.575-5.575h-9.506c-.791 2.26-1.592 4.55-2.369 6.748.618.023 1.403.08 2.143.272.74.192 1.433.517 1.863 1.074.203.263.294.599.307.95.012.35-.055.717-.174 1.037-1.118 3.136-2.267 6.264-3.379 9.4-.982.014-1.96-.008-2.943 0-.138-.003-.269.02-.4-.031 1.251-3.44 2.478-6.912 3.708-10.364-.586-.008-1.165.011-1.754 0-.089.189-.164.401-.232.598-1.134 3.182-2.28 6.35-3.408 9.533-.054.081-.04.264-.166.264-.94.003-1.879-.006-2.815 0-.17-.003-.331.017-.496-.031 2.217-6.14 4.447-13.077 6.668-19.45z" fill="#0286c2"/><path d="M11.574 1.898c-2.221 6.373-4.451 13.31-6.668 19.45.165.048.326.028.496.03.936-.005 1.876.004 2.815 0 .127 0 .112-.182.166-.263 1.128-3.184 2.274-6.351 3.408-9.533.068-.197.143-.409.232-.598.59.011 1.168-.008 1.754 0-1.23 3.452-2.457 6.924-3.709 10.364.132.05.263.028.4.03.983-.007 1.962.015 2.944 0 1.112-3.135 2.261-6.263 3.379-9.4.119-.32.186-.686.174-1.037-.013-.35-.104-.686-.307-.949-.43-.557-1.124-.882-1.863-1.074-.74-.192-1.525-.249-2.143-.272.777-2.199 1.578-4.488 2.37-6.748z" fill="#fff"/></g></svg>