<svg xmlns="http://www.w3.org/2000/svg" height="32" width="32" version="1"><rect width="28.203" height="28.203" x="1.898" y="1.898" ry="5.575" fill="#7767c0" fill-rule="evenodd"/><path d="M21.93 30.102V15.086a5.582 5.582 0 0 0-1.63-3.947 5.558 5.558 0 0 0-3.946-1.63H3.338c-.51 0-.97.162-1.44.29v14.726a5.563 5.563 0 0 0 5.575 5.577z" fill="#9182d7" fill-rule="evenodd"/><path d="M21.93 23.832v6.27h2.595a5.565 5.565 0 0 0 5.577-5.577v-.693zM8.838 1.898H7.473a5.561 5.561 0 0 0-5.575 5.575v2.326c.47-.128.93-.29 1.44-.29h5.5z" fill="#a79bdf" fill-rule="evenodd"/><path d="M8.838 1.898V9.51h7.516a5.558 5.558 0 0 1 5.576 5.576v8.746h8.172V7.472a5.563 5.563 0 0 0-5.577-5.574z" fill="#7767c0" fill-rule="evenodd"/><path d="M11.433 13.014a7 7 0 1 0 0 14 7 7 0 0 0 0-14zm-.701 1.338c.082-.008.185.003.268 0 .01.039-.06.177-.153.38-.592 1.295-.626 2.813-.076 3.624.1.147.19.286.19.304 0 .02-.108.038-.23.038-.284 0-.554-.173-1.105-.61-.245-.193-.562-.356-.686-.38-.193-.039-.245-.023-.496.228-.232.233-.304.36-.304.573 0 .808.96 1.45 2.744 1.828 2.423.513 3.02.975 3.088 2.25.084 1.598-.768 2.803-2.631 3.736-.222.112-.364.154-.457.19-.041-.004-.072.003-.113 0a1.37 1.37 0 0 1-.04-.381c0-.85-.333-1.723-.837-2.211-.136-.131-.516-.409-.84-.61-.324-.2-.652-.433-.725-.533-.12-.165-.13-.267-.038-.572.17-.557.37-.869.762-1.22.205-.185.412-.34.457-.343.046-.003-.26-.096-.722-.19a13.024 13.024 0 0 1-1.489-.42c-.638-.232-1.5-.716-1.828-1.067l-.039-.04a6.13 6.13 0 0 1 3.545-4.153 5.972 5.972 0 0 1 1.145-.344c.198-.04.404-.055.61-.076zm5.719 2.859c.143.088.683 1.26.838 1.83.2.737.184 2.012 0 2.744-.07.279-.16.54-.19.572-.03.034-.14-.153-.267-.38-.128-.227-.537-.71-.877-1.069-.981-1.035-1.136-1.574-.725-2.4.207-.417 1.11-1.365 1.22-1.297z" fill="#fff"/><g transform="matrix(.75 0 0 .75 7.166 4.729)" stroke-width="1.333"><circle cy="23" cx="21" r="8" fill="#4f4f4f" fill-rule="evenodd"/><path d="M22 19v4h1.5L21 26l-2.5-3H20v-4z" fill="#fff"/></g></svg>