<svg xmlns="http://www.w3.org/2000/svg" height="32" width="32" version="1"><path d="M30 6.969c-.054-.579-.12-1.157-.336-1.67A5.563 5.563 0 0 0 26.7 2.334c-.511-.216-1.089-.28-1.666-.334H16v14h14z" fill="#2cbfeb"/><path d="M6.965 2c-.577.054-1.155.118-1.666.334a5.563 5.563 0 0 0-2.965 2.965c-.216.511-.28 1.089-.334 1.666V16h14V2z" fill="#6655e4"/><path d="M25.035 30c.577-.054 1.155-.118 1.666-.334a5.563 5.563 0 0 0 2.965-2.965c.216-.511.28-1.089.334-1.666V16H16v14z" fill="#f7c73c"/><path d="M2 25.031c.054.579.12 1.157.336 1.67A5.563 5.563 0 0 0 5.3 29.666c.511.216 1.089.28 1.666.334H16V16H2z" fill="#2cbfeb"/><rect width="21.424" height="21.424" x="5.288" y="5.288" ry="4.235" fill="#3f3f3f" fill-rule="evenodd"/><g fill="none" stroke="#fff" stroke-width="1.8" stroke-linecap="round"><path d="M10.606 22.306h7.2M10.606 13.306h3.6m0 3.6v-7.2m-3.6 7.2v-7.2h0"/><path d="M17.806 13.306s3.6-.418 3.6 1.8c0 2.219-3.6 1.8-3.6 1.8m0-7.2v7.2m0-3.58s3.6.419 3.6-1.8c0-2.217-3.6-1.8-3.6-1.8m0 7.2v-7.2" stroke-linejoin="bevel"/></g></svg>