<svg xmlns="http://www.w3.org/2000/svg" height="32" width="32" version="1"><g transform="translate(56.271 41.085)"><rect ry="5.575" y="-39.186" x="-54.373" height="28.203" width="28.203" fill="#00ba6e" fill-rule="evenodd"/><path d="M-47.187-10.983h15.441a5.565 5.565 0 0 0 5.576-5.576v-17.053a5.563 5.563 0 0 0-5.576-5.574h-15.441z" fill="#2a88ae" fill-rule="evenodd"/><path d="M-47.187-10.983v-28.203H-48.8a5.561 5.561 0 0 0-5.574 5.574v17.053a5.563 5.563 0 0 0 5.574 5.576z" fill="#396772" fill-rule="evenodd"/><path d="M-48.59-39.162v10.35l2-2 2 2v-10.35z" fill="#b9513f"/><path style="line-height:1.25;-inkscape-font-specification:'Century Schoolbook L';font-variant-ligatures:normal;font-variant-position:normal;font-variant-caps:normal;font-variant-numeric:normal;font-variant-alternates:normal;font-feature-settings:normal;text-indent:0;text-align:start;text-decoration-line:none;text-decoration-style:solid;text-decoration-color:#000;text-transform:none;text-orientation:mixed;white-space:normal;shape-padding:0;isolation:auto;mix-blend-mode:normal;solid-color:#000;solid-opacity:1" d="M-37.7-32.233c-.972 0-1.775.805-1.775 1.777 0 .967.774 1.776 1.756 1.776.98 0 1.795-.803 1.795-1.776 0-.972-.803-1.777-1.776-1.777zm1.57 4.576l-.74.043-4.146.242v2.159h1.646c.068 0 .075.005.118.007-.018-.007-.02-.042-.02.221v5.174c0 .084-.003.088-.008.127-.007-.013-.179.043-.683.043h-.83v2.068h6.203v-2.068h-.83c-.514 0-.69-.056-.7-.045-.004-.04-.01-.042-.01-.125v-.742z" color="#000" font-weight="400" font-family="Century Schoolbook L" letter-spacing="0" word-spacing="0" overflow="visible" fill="#fff"/></g></svg>