<svg xmlns="http://www.w3.org/2000/svg" height="32" width="32" version="1"><rect width="28.203" height="28.203" x="1.898" y="1.898" ry="5.575" fill="#3c424e" fill-rule="evenodd"/><path d="M10.383 21.695a953.141 953.141 0 0 1 3.338-2.772c.008-.003.03.998.05 2.225.02 1.227.041 2.454.048 2.726l.013.495H15.285l2.51-6.83a1360.98 1360.98 0 0 0 2.5-6.836c-.004-.004-.563.193-1.243.436a13899.355 13899.355 0 0 1-9.065 3.242l-1.643.588-.012-1.328c-.007-.73-.014-2.419-.016-3.752l-.003-2.424H6.966v17.07l.047-.037 3.37-2.803zm14.651-.165v-2.84l-.076.047c-.043.026-1.266.826-2.72 1.778a274.786 274.786 0 0 1-2.649 1.723c-.004-.003 1.221-3.31 2.722-7.35 1.501-4.038 2.724-7.347 2.719-7.353-.015-.015-14.91.028-15.367.044l-.375.013.013.442c.007.243.018 1.496.025 2.786.012 2.145.016 2.343.047 2.335l11.932-3.743c.447-.141.817-.253.82-.249.005.004-1.218 3.416-2.716 7.581a1927.242 1927.242 0 0 0-2.725 7.6c0 .02.849.025 4.175.025h4.175z" fill="#fff"/></svg>