<svg xmlns="http://www.w3.org/2000/svg" height="32" width="32" version="1"><rect width="28.203" height="28.203" x="1.898" y="1.898" ry="5.575" fill="#2095f2" fill-rule="evenodd"/><path d="M13.608 14.14l.228 1.367-2.203 1.216v5.924c0 .76-.126 1.29-.38 1.595-.253.303-.683.455-1.29.455a8.129 8.129 0 0 1-1.975-.228l-.304-1.595a6.933 6.933 0 0 0 2.05.304c.254 0 .38-.304.38-.911v-4.785c-.81.355-1.67.709-2.582 1.063L7 16.95a67.321 67.321 0 0 0 3.114-1.215v-3.873H7.608v-1.443h2.506v-3.19h1.519v3.19h2.127v1.443h-2.127v3.266a35.861 35.861 0 0 1 1.975-.988m7.595-6.911l1.67.456a30.952 30.952 0 0 1-1.67 2.962h3.19v1.443h-2.127v4.1H25v1.444h-2.734v7.063h-1.52v-7.063h-3.341c-.354 3.24-1.57 5.62-3.646 7.14l-1.063-1.14c1.772-1.316 2.81-3.317 3.114-6h-2.354V16.19h2.506c.05-.405.076-.836.076-1.291v-2.81h-1.975v-1.443h5.545a23.516 23.516 0 0 0 1.594-3.418m-.455 8.962v-4.101h-3.19v3.038c0 .354-.025.709-.076 1.063h3.266m-4.102-8.734a7.351 7.351 0 0 1 1.367 2.354l-1.595.532a7.983 7.983 0 0 0-1.29-2.43l1.518-.456" fill="#fff"/></svg>