<svg xmlns="http://www.w3.org/2000/svg" height="32" width="32" version="1"><rect width="28.203" height="28.203" x="1.898" y="1.898" ry="5.575" fill="#6573c3" fill-rule="evenodd"/><g transform="matrix(.81203 0 0 .81203 29.903 12.136)" stroke-width="1.231"><rect x="-17.259" y="7.119" width="22" height="22" ry="11" rx="11" transform="matrix(0 -1 -1 0 0 0)" fill="#f2f2f2"/><path d="M-10.487-7.741c-.007 0-.015.005-.022.005a.514.514 0 0 0-.158.04.476.476 0 0 0-.132.074.662.662 0 0 0-.156.205 1.123 1.123 0 0 0-.095.238c-.002.005-.004.008-.005.014-.073-.354-.837-.268-.837-.268v.002h-.002s.064.043.126.104c.031.03.062.065.085.1v.002a.186.186 0 0 1 .035.106c-.131.016-.26.037-.387.065a.599.599 0 0 1-.018-.256c.006-.1.016-.204-.002-.291v.002-.004a1.028 1.028 0 0 0-.122.289 2.104 2.104 0 0 0-.056.307c-.026.007-.05.017-.075.025-.099.029-.198.058-.293.095a2.202 2.202 0 0 0-.224-.31 1.668 1.668 0 0 0-.265-.253l-.051-.039a1.25 1.25 0 0 0-.301-.158l-.01-.005h-.002a1.137 1.137 0 0 0-.337-.055c-.011 0-.021-.005-.033-.005-.019 0-.04.01-.06.01a1.32 1.32 0 0 0-.278.047c-.033.01-.066.017-.1.029a1.892 1.892 0 0 0-.388.185c-.477.3-.701.781-.767 1.314-1.385.293-2.943.54-4.317.546l-.048.001c-1.48 0-2.682.436-3.566 1.238a4.572 4.572 0 0 0-.68.774v.001c-.1.144-.193.294-.28.451-.044.08-.081.167-.122.25-.039.082-.082.16-.118.244a6.937 6.937 0 0 0-.444 1.568c-.008.05-.02.095-.027.145v.001a8.971 8.971 0 0 0-.07.644v.002c-.017.22-.027.446-.029.678-.004.465 0 .886.013 1.267v.002c.012.38.032.72.058 1.024v.001c.026.304.058.572.094.808v.002c.036.236.076.44.12.616v.001c.043.176.09.324.137.448v.002c.048.123.097.223.147.302v.002a.86.86 0 0 0 .146.183.426.426 0 0 0 .138.09c.282.104.197-.027.152-.087a.195.195 0 0 1-.028-.04l.124.077.126.08v-.158l.119.016.103.014.096-.194.031-.062h.284s.112-.07.176-.256c.007-.02.018-.031.024-.054v-.002c.019-.08.03-.176.021-.296-.023-.362.13-.506.1-.746a.752.752 0 0 0-.1-.28c-.124-.222-.256-1.285-.298-2.356 0-.016-.002-.031-.003-.047a12.37 12.37 0 0 1 .025-1.516v-.001c.04-.432.118-.753.244-.858.127-.104.318-.243.553-.396.235-.152.513-.319.813-.479.45-.24.95-.468 1.424-.614.158-.048.312-.088.462-.116.45-.084.852-.182 1.325-.244a7.462 7.462 0 0 1 1.074-.061h.032c.615.01 1.376.086 2.402.275.003.185.018.404.047.672v.006c.08.734.242 1.16.468 1.548.225.389.512.739.838 1.32l.002.002c.099.18.203.34.312.483l.001.001c.11.143.225.267.345.374.12.106.245.194.374.265l.002.001c.129.07.262.124.4.16.557.143 1.187.01 1.878-.382.57-.338.99-.497 1.376-.72a3.35 3.35 0 0 0 .567-.412c.095-.087.192-.185.291-.3.1-.114.204-.242.311-.39.029-.04.035-.06.06-.096.135-.19.255-.364.336-.507.209-.157.418-.316.615-.446.48-.327 1.003-.833 1.326-1.41.161-.288.272-.594.304-.903v-.001c.007-.077.01-.154.007-.231v-.001a1.592 1.592 0 0 0-.186-.694 1.958 1.958 0 0 0-.236-.35c-.027-.032-.056-.054-.084-.082a1.359 1.359 0 0 0-.18-.161c-.037-.026-.075-.046-.112-.067a1.104 1.104 0 0 0-.53-.147c-.027-.001-.054-.004-.082-.003a1.476 1.476 0 0 0-.32.046l-.008.001h-.001a2.19 2.19 0 0 0-.642.294l-.004-.005a3.435 3.435 0 0 0-.189-.243l-.046-.059v-.001c.03-.065.067-.15.095-.243a.877.877 0 0 0 .044-.282c-.123.147-.16.495-.36.291a.216.216 0 0 1-.048-.07.081.081 0 0 1-.003-.054c.005-.015.025-.024.038-.035.07-.063.22-.084.22-.084v-.001s-.238-.183-.426-.192a.23.23 0 0 0-.089.012.17.17 0 0 0-.072.05c.077-.294-.001-.45-.099-.533-.098-.084-.215-.094-.215-.094s.088.096.125.206c.004.012.012.022.014.034v.001a.203.203 0 0 1-.01.124v.002a.155.155 0 0 1-.059.065c-.009.005-.02.006-.03.01-.019.008-.038.017-.059.02-.052-.032-.106-.063-.159-.093-.02-.01-.038-.023-.058-.034a.327.327 0 0 1 0-.188v-.002a.273.273 0 0 0-.288.05 4.963 4.963 0 0 0-.164-.071l.044-.229.055-.285-.001.003V-7.3l-.278.443a4.513 4.513 0 0 0-.124-.043c-.01-.135-.058-.286-.198-.376a.487.487 0 0 0-.174-.067c-.047.18-.141.26-.242.282-.036-.007-.073-.012-.11-.018-.035-.006-.071-.013-.107-.018a.35.35 0 0 1-.12-.107.214.214 0 0 1-.038-.139.272.272 0 0 1 .076-.158c.122-.131.344-.189.344-.189s-.038-.018-.1-.033a.646.646 0 0 0-.17-.018zM-22.592 7.246v.353l-.252-.161v.193l-.284-.16.063.16-.253-.128.032.32-.252-.256.093.448-.252-.128.222.577-.317-.416.221.577-.189-.128.252.513-.22-.193.253.352-.222-.128s1.137 2.181 3.032 3.432c.473.313 1 .671 1.59 1.025.59.354 1.244.702 1.97.995a10.358 10.358 0 0 0 5.314.674c.53-.068.99-.203 1.39-.387a3.97 3.97 0 0 0 1.027-.68c.432-.396.751-.861.985-1.337v-.002c.7-1.428.64-2.95.64-2.95-1.18 2.71-2.241 3.572-4.033 3.082a9.047 9.047 0 0 1-1.367-.548c-3.372-1.688-8.243-4.619-8.243-4.619l-.03.225-.474-.416v.128l-.221-.225-.032.193-.222-.321v.257l-.22-.321z" fill="#9db9ff" fill-rule="evenodd"/></g></svg>