<svg xmlns="http://www.w3.org/2000/svg" height="32" width="32"><rect width="28.203" height="28.203" x="1.898" y="1.898" ry="5.575" fill="#37b648" fill-rule="evenodd"/><g transform="translate(79.664 -.56)"><path d="M-66.647 27.528a2.848 2.848 0 0 1-1.068-.323c-.723-.384-1.213-1.055-1.39-1.905-.06-.286-.06-.943 0-1.239.158-.784.492-1.367 1.63-2.845.69-.897 1.937-2.43 1.976-2.43.011 0 .103.057.203.128.354.25.774.42 1.234.496.047.008.09.023.096.034.007.01.048.501.092 1.09.159 2.13.22 3.404.19 3.937a4.085 4.085 0 0 1-.37 1.467c-.293.614-.783 1.112-1.349 1.37-.386.176-.88.263-1.244.22zm5.684-1.176c-.954-.182-1.662-1.017-1.989-2.348-.152-.618-.63-3.63-.696-4.379l-.015-.175.1-.012c.555-.066.774-.124 1.128-.299.128-.063.308-.169.4-.235.09-.065.171-.12.178-.12.014 0 .929 1.038 1.396 1.582.726.846 1.309 1.571 1.51 1.877.58.886.786 1.888.546 2.664-.11.36-.308.657-.596.898-.535.447-1.325.667-1.962.546zm4.57-3.804c-.732-.076-1.444-.394-2.069-.926a55.474 55.474 0 0 1-1.91-1.773c-.42-.414-1.239-1.263-1.239-1.285 0-.01.05-.08.11-.153.313-.376.508-.778.64-1.318l.024-.099 1.142.01c3.256.03 3.547.047 4.19.238.783.234 1.412.723 1.75 1.362.389.733.38 1.638-.024 2.476-.13.269-.222.404-.43.63a2.511 2.511 0 0 1-1.366.779 3.653 3.653 0 0 1-.817.059zm-4.406-6.165a4.058 4.058 0 0 0-.049-.501 3.224 3.224 0 0 0-.426-1.07c-.05-.076-.085-.153-.078-.17.025-.069 1.79-1.57 2.527-2.148.505-.397.798-.595 1.16-.781 1.114-.576 2.146-.542 2.913.095.352.293.65.783.774 1.276.082.326.088.839.012 1.153-.233.97-.95 1.637-2.045 1.902-.377.091-1.755.284-2.871.403a68.09 68.09 0 0 1-1.84.166h-.064l-.013-.325zm-10.441.135c-.823-.087-1.499-.385-1.955-.863-.747-.784-.875-2-.327-3.106.37-.75.964-1.226 1.747-1.403.289-.065.906-.06 1.22.01.456.102.941.314 1.345.586.494.334 2.09 1.63 2.934 2.38l.416.372-.04.062a6.046 6.046 0 0 1-.133.195c-.22.31-.412.808-.481 1.245l-.038.237-.104.014c-.395.053-2.081.201-2.822.249-.55.035-1.527.047-1.762.023zm9.549-2.22c-.35-.38-.994-.704-1.579-.792a2.714 2.714 0 0 1-.247-.044 14.34 14.34 0 0 1-.05-.63c-.138-2-.18-3.19-.14-3.954.039-.752.104-1.092.29-1.511.19-.429.61-.941.988-1.204a3.18 3.18 0 0 1 2.77-.44c1.468.454 2.34 2.123 1.949 3.726-.186.761-.663 1.512-1.786 2.81-.422.487-2.017 2.136-2.067 2.136-.021 0-.079-.044-.128-.098zm-5-1.09c-1.836-1.903-2.375-2.602-2.64-3.425a2.69 2.69 0 0 1-.14-1.054c.014-.43.058-.63.21-.964.29-.637.78-1.066 1.5-1.31a2.487 2.487 0 0 1 1.477-.063c.264.07.648.276.876.467.413.347.748.9.885 1.459.097.4.24 1.374.421 2.89.172 1.43.258 2.23.243 2.247a.726.726 0 0 1-.185.042 2.856 2.856 0 0 0-1.422.63.752.752 0 0 1-.186.126c-.017 0-.486-.47-1.04-1.045z" fill="#f9f9f9"/><path d="M-70.33 22.11c-.895-.106-1.759-.94-2.016-1.946a2.713 2.713 0 0 1-.033-.98c.084-.431.284-.797.613-1.126.525-.523 1.173-.794 2.595-1.088.856-.176 2.548-.437 2.594-.4.014.011.033.1.041.199.047.538.292 1.143.634 1.565.078.096.151.188.163.204.015.022-.006.065-.068.145-.134.17-1.661 1.755-1.99 2.065-.314.297-.87.795-1.01.909a2.572 2.572 0 0 1-.661.36c-.176.061-.537.126-.647.117a13.835 13.835 0 0 1-.215-.024z" fill="#f15b43"/><circle r="3.137" cx="-63.664" cy="16.56" fill="#ffca2b"/></g></svg>