<svg xmlns="http://www.w3.org/2000/svg" height="32" width="32" version="1"><rect width="28.203" height="28.203" x="1.898" y="1.898" ry="5.575" fill="#e6e6e6" fill-rule="evenodd"/><rect x="5.798" y="-26.202" width="13.846" height="13.846" ry="1.093" rx="1.093" transform="rotate(90)" fill="#85aeff"/><path d="M14.543 10.17v-.729h8.744v.73zM14.543 12.356v-.728h8.744v.728zM14.543 14.543v-.73h8.744v.73zM14.543 16.729V16h5.83v.729z" fill="#6a8bcc"/><rect x="12.356" y="-19.644" width="13.846" height="13.846" transform="rotate(90)" rx="1.093" ry="1.093" fill="#a7baff"/><path d="M7.984 16.729V16h8.745v.729zM7.984 18.915v-.729h8.745v.729zM7.984 21.101v-.729h8.745v.73zM7.984 23.287v-.728h5.83v.728z" fill="#535d7f"/></svg>