<svg xmlns="http://www.w3.org/2000/svg" width="32" height="32"><rect width="28.203" height="28.203" x="1.898" y="1.898" ry="5.575" fill="#3ebce8" fill-rule="evenodd"/><path d="M7.475 1.898a5.563 5.563 0 0 0-5.577 5.575v6.478c.132-.024.285-.119.415-.139a12.396 12.396 0 0 1 4.042.053c1.292.225 2.539.631 3.776 1.14 1.237.51 2.464 1.124 3.717 1.763 1.252.639 2.531 1.303 3.869 1.916 1.337.612 2.734 1.173 4.226 1.603 1.493.43 3.079.732 4.795.824 1.036.056 2.226-.145 3.364-.257V7.473a5.561 5.561 0 0 0-5.575-5.575H7.475z" fill="#3ebce8" fill-rule="evenodd"/><path d="M30.102 20.854c-20 1.524-19.322-10.561-28.204-10.428v14.1a5.565 5.565 0 0 0 5.577 5.576h17.052a5.563 5.563 0 0 0 5.575-5.577z" fill="#97c607" fill-rule="evenodd"/><g transform="translate(54.44 -18.847)"><circle r="10.115" cy="34.847" cx="-38.441" fill="#e6e6e6"/><circle r="4.458" cy="34.847" cx="-38.441" fill="#666"/><circle r="3.212" cy="34.847" cx="-38.441" fill="#fffee4"/></g><path d="M30.074 18.658c-12.044-1.955-14.735 8.109-28.145 5.575-.018 0-.04-.005-.058-.004v.293a5.561 5.561 0 0 0 5.574 5.574h17.053a5.563 5.563 0 0 0 5.576-5.574z" fill="#74a10d" fill-rule="evenodd"/></svg>