<svg xmlns="http://www.w3.org/2000/svg" xmlns:xlink="http://www.w3.org/1999/xlink" width="32" height="32" version="1"><defs><linearGradient id="g" x1="65.263" x2="65.263" y1="64.205" y2="50.069" gradientTransform="matrix(.625 0 0 .625 78.5 32.25)" gradientUnits="userSpaceOnUse"><stop offset="0"/><stop offset="1" stop-opacity="0"/></linearGradient><linearGradient id="f" x1="70" x2="70" y1="54" y2="75.095" gradientTransform="translate(0 4)" gradientUnits="userSpaceOnUse" xlink:href="#a"/><linearGradient id="e" x1="56" x2="88" y1="72" y2="72" gradientTransform="translate(-140.5 3.5) scale(.9375)" gradientUnits="userSpaceOnUse"><stop offset="0" stop-color="#499119"/><stop offset="1" stop-color="#8fd625"/></linearGradient><linearGradient id="j" x1="65.263" x2="65.263" y1="64.205" y2="50.069" gradientTransform="matrix(.625 0 0 .625 28.5 31.25)" gradientUnits="userSpaceOnUse" xlink:href="#a"/><linearGradient id="a"><stop offset="0" stop-color="#fff"/><stop offset="1" stop-color="#fff" stop-opacity="0"/></linearGradient><linearGradient id="b" x1="45.448" x2="45.448" y1="92.54" y2="7.016" gradientTransform="scale(1.0059 .99417)" gradientUnits="userSpaceOnUse"><stop offset="0"/><stop offset="1" stop-opacity=".588"/></linearGradient><filter id="i" color-interpolation-filters="sRGB"><feGaussianBlur stdDeviation=".637"/></filter><filter id="d" color-interpolation-filters="sRGB"><feGaussianBlur stdDeviation="1.2"/></filter><filter id="c" color-interpolation-filters="sRGB"><feGaussianBlur stdDeviation="1.71"/></filter><clipPath id="h"><path fill="#fff" d="M108.81 58a2.803 2.803 0 0 0-2.81 2.812v24.375A2.803 2.803 0 0 0 108.81 88h24.375c1.57 0 2.82-1.254 2.82-2.812V60.813a2.803 2.803 0 0 0-2.81-2.813H108.82zm7.188 4.5h10v8.75h5l-10 13.75-10-13.75h5V62.5z"/></clipPath></defs><g transform="translate(41.51 5.259)"><rect ry="5.575" y="-3.36" x="-39.612" height="28.203" width="28.203" fill="#d13232" fill-rule="evenodd"/><path d="M-31.768 3.955l-.131.071a.84.84 0 0 0-.376.428c-.048.127-.052.647-.044 6.347l.01 6.21.067.126c.09.167.216.284.393.364.143.065.161.064 6.369.056l6.224-.006.13-.07a.84.84 0 0 0 .376-.429c.048-.127.052-.646.045-6.347-.009-5.987-.012-6.213-.07-6.32a.87.87 0 0 0-.354-.36l-.127-.07h-6.257zm2.148 4.94c.415 0 .487.008.716.084.418.14.7.37.875.719.072.143.159.495.16.649v.088H-28.972l-.04-.167c-.078-.351-.26-.501-.608-.501-.226 0-.363.051-.484.18-.145.153-.185.322-.185.787 0 .452.025.591.135.753.123.181.225.235.472.249.412.023.632-.129.707-.488l.037-.18.522.007c.43.006.524.016.54.056.01.026 0 .147-.02.27-.1.577-.417.945-.971 1.123-.21.067-.335.084-.657.092-.218.006-.44.003-.493-.006h-.002c-1.025-.165-1.523-.836-1.47-1.984.028-.587.162-.959.453-1.254.343-.348.731-.478 1.416-.478zm2.356.044h1.111c1.039 0 1.125.005 1.328.067.182.056.247.097.412.262.263.264.343.465.347.88.004.48-.147.81-.47 1.033-.262.18-.402.21-1.014.21h-.535v1.177h-1.18v-1.815zm6.24 0H-19.846v1.204c0 1.279-.012 1.402-.165 1.718-.146.305-.51.572-.936.69-.218.06-.94.09-1.165.05-.815-.15-1.24-.557-1.331-1.276-.021-.161-.03-.692-.025-1.32l.007-1.051h1.18l.015 1.21c.016 1.21.016 1.21.092 1.333.098.157.278.242.518.243.299 0 .46-.093.57-.334.054-.116.06-.229.06-1.298zm-5.061.859v.732h.32c.312 0 .323-.002.414-.093.078-.078.094-.117.094-.256a.656.656 0 0 0-.035-.23c-.055-.103-.226-.153-.522-.153z" fill="#f9f9f9"/><g transform="matrix(.9197 0 0 .9197 -40.225 -3.808)" fill="#871c16"><rect width="3.359" height="1.743" x="3.964" y="9.928" ry=".369"/><rect width="3.359" height="1.743" x="3.964" y="13.402" ry=".369"/><rect width="3.359" height="1.743" x="3.964" y="16.876" ry=".369"/><rect width="3.359" height="1.743" x="3.964" y="20.35" ry=".369"/></g><g transform="matrix(.9197 0 0 .9197 -21.15 -3.808)" fill="#871c16"><rect width="3.359" height="1.743" x="3.964" y="9.928" ry=".369"/><rect width="3.359" height="1.743" x="3.964" y="13.402" ry=".369"/><rect width="3.359" height="1.743" x="3.964" y="16.876" ry=".369"/><rect width="3.359" height="1.743" x="3.964" y="20.35" ry=".369"/></g><g transform="rotate(90 -3.326 -7.277) scale(.91971)" fill="#871c16"><rect width="3.359" height="1.743" x="3.964" y="9.928" ry=".369"/><rect width="3.359" height="1.743" x="3.964" y="13.402" ry=".369"/><rect width="3.359" height="1.743" x="3.964" y="16.876" ry=".369"/><rect width="3.359" height="1.743" x="3.964" y="20.35" ry=".369"/></g><g transform="rotate(90 -12.918 2.315) scale(.91971)" fill="#871c16"><rect width="3.359" height="1.743" x="3.964" y="9.928" ry=".369"/><rect width="3.359" height="1.743" x="3.964" y="13.402" ry=".369"/><rect width="3.359" height="1.743" x="3.964" y="16.876" ry=".369"/><rect width="3.359" height="1.743" x="3.964" y="20.35" ry=".369"/></g></g></svg>