<svg xmlns="http://www.w3.org/2000/svg" height="32" width="32" version="1"><rect width="28.203" height="28.203" x="1.898" y="1.898" ry="5.575" fill="#5b5b5b" fill-rule="evenodd"/><path d="M16 5.037c-.627 0-1.238.234-1.719.73l-8.55 8.815A2.598 2.598 0 0 0 5 16.344v.043c0 1.889 5.044.055 5.5 2.365.247 1.25-2.75.678-2.75 1.936 0 1.475 4.242.46 5.457 1.675.5 1.216-1.624 1.02-1.246 2.15.712.736 2.313.318 2.621 1.505.351 1.355 2.653 1.121 3.996.128.712-.735-1.099-1.07-.387-1.804.712-.735 4.229-.587 4.254-2.194-.336-1.009-1.655-1.172-1.675-2.365-.071-1.01 1.08-.713 4.726-1.719 1.458-.683 1.51-1.048 1.504-1.677v-.043c-.008-.635-.302-1.275-.773-1.762l-8.508-8.814A2.356 2.356 0 0 0 16 5.038zm.455 1.608c.97.008 3.627 3.289 5.998 5.746.667.892-.258 1.806-.258 1.806l-4.966-2.71-2.194 2.968-1.935-2.904-1.16 4.52-3.42-2.067.902-1.162 5.355-5.487c.411-.417.726-.718 1.678-.71zm9.512 13.484a1.696 1.696 0 0 0-.473.04c-.233.068-1.337.109-1.246.948 1 .42 2.525.754 2.707-.086.137-.63-.467-.883-.988-.902zM8.91 22.922c-.097.01-.163.05-.258.086-.758.288-1.267.897-.558 1.162.709.265 1.183-.015 1.804-.344.622-.329.604-.389.559-.515-.086.017-.651-.337-1.246-.39a1.562 1.562 0 0 0-.3 0z" fill="#fff" fill-rule="evenodd"/></svg>