<svg xmlns="http://www.w3.org/2000/svg" width="32" height="32" version="1"><rect width="28.203" height="28.203" x="1.898" y="1.901" ry="5.575" fill="#c74ab4" fill-rule="evenodd"/><path d="M9.084 30.104h15.441a5.565 5.565 0 0 0 5.577-5.576V7.475A5.563 5.563 0 0 0 24.525 1.9H9.084z" fill="gray" fill-rule="evenodd"/><path d="M9.084 30.104V1.9H7.473a5.561 5.561 0 0 0-5.575 5.574v17.053a5.563 5.563 0 0 0 5.575 5.576z" fill="#4d4d4d" fill-rule="evenodd"/><path d="M13.46 19.75v2.832h2.832l7.151-7.151-2.831-2.832zm12.488-6.815c.3-.3.3-.771 0-1.07l-1.77-1.77a.75.75 0 0 0-1.07 0l-1.48 1.488 2.831 2.831z" fill="#65d77d"/></svg>