<svg xmlns="http://www.w3.org/2000/svg" height="32" width="32" version="1"><rect width="28.203" height="28.203" x="1.898" y="1.898" ry="5.575" fill="#765a4d" fill-rule="evenodd"/><path d="M16 1.898v3.96H3.828V3.323c-1.163 1.02-1.93 2.473-1.93 4.149v17.054a5.561 5.561 0 0 0 5.575 5.575h17.054a5.561 5.561 0 0 0 5.575-5.575V7.473a5.561 5.561 0 0 0-5.575-5.575H16z" fill="#765a4d" fill-rule="evenodd"/><path d="M12.957 1.898v3.96H16v-3.96h-3.043z" fill="#498fb4" fill-rule="evenodd"/><path d="M9.914 1.898v3.96h3.043v-3.96H9.914z" fill="#50b449" fill-rule="evenodd"/><path d="M6.871 2.02v3.837h3.043V1.898H7.473c-.214 0-.395.098-.602.122z" fill="#f1a24a" fill-rule="evenodd"/><path d="M3.828 3.324v2.533h3.043V2.02c-1.163.13-2.21.574-3.043 1.304z" fill="#e15a5a" fill-rule="evenodd"/><path d="M26.143 3.828a2.029 2.029 0 0 1 2.029 2.029 2.029 2.029 0 0 1-2.029 2.028 2.029 2.029 0 0 1-2.028-2.028 2.029 2.029 0 0 1 2.028-2.029z" fill="#383838"/><path d="M16 7.885A8.115 8.115 0 0 1 24.115 16 8.115 8.115 0 0 1 16 24.115 8.115 8.115 0 0 1 7.885 16 8.115 8.115 0 0 1 16 7.885z" fill="#9b9b9b"/><path d="M16 10.928A5.072 5.072 0 0 0 10.928 16 5.072 5.072 0 0 0 16 21.072 5.072 5.072 0 0 0 21.072 16 5.072 5.072 0 0 0 16 10.928z" fill="#c4c4c4"/></svg>