<svg xmlns="http://www.w3.org/2000/svg" width="32" height="32"><rect width="28.203" height="28.203" x="1.898" y="1.898" ry="5.575" fill="#426b65" fill-rule="evenodd"/><path d="M7.553 5.356c-.618.14-1.105.524-1.052 1.227l.826 13.235c.032.422.233.804.547 1.04l7.438 5.552c.417.311.96.311 1.376 0l7.438-5.553c.314-.235.515-.617.547-1.04l.826-13.234c.053-.703-.434-1.088-1.052-1.227z" fill="#58807c"/><path d="M16.528 11.21l-1.584 1.597h1.584l.528.532 1.056-1.596-.528-.533zm2.112.533l-1.056 1.596.527 1.596 1.584-1.596v.532l-1.584 1.597.528 1.064 2.112-2.129v.532l-2.112 2.13h2.112L21.807 16v-1.065l-.528-.532V13.34l-1.056-.532-.528-1.064zm-4.752 1.596l-.528.532 1.056 3.725-4.363 4.887 3.268 2.44 4.263-5.73h1.056l.527-.532 1.056-.533.528-.532h-2.64L17.585 16h-.528l-.528 1.596h-1.056L16 16l-1.056-1.065.528-.532 1.056 1.065h1.056v-.533l-1.056-1.596zm-1.056 1.064l.528 2.661v.532L8.91 21.631l.29.216c.641-.585 3.117-2.843 4.687-4.25l-1.056-3.194zm3.696 4.79h.528l-2.64 3.193 2.112-3.193z" fill="#ececec" fill-rule="evenodd"/></svg>