<svg xmlns="http://www.w3.org/2000/svg" height="32" width="32" version="1"><g transform="translate(149.288 -42.807)"><path d="M-120.559 70.896l-.67.168h-24.148c-.113 0-.393-.095-.617-.132 1.02 1.187 2.484 1.976 4.18 1.976h17.052c1.711 0 3.182-.806 4.203-2.012z" fill="#999" fill-rule="evenodd"/><path d="M-119.217 67.488v-10.71a1.4 1.4 0 0 0-.562-1.124l.006-.008-13.53-9.937-13.445 9.889v-.002c-.029.018-.057.041-.084.062l-.016.012v.002a1.402 1.402 0 0 0-.542 1.105v10.557c0 1.393.558 2.623 1.396 3.598.224.037.505.132.617.132h24.149l.67-.168c.789-.932 1.304-2.094 1.341-3.408z" fill="#fe9700" fill-rule="evenodd"/><path d="M-141.814 44.705a5.565 5.565 0 0 0-5.577 5.576v6.496c0-.45.215-.848.543-1.105v-.002l.016-.012c.027-.02.055-.044.084-.062v.002a95774.3 95774.3 0 0 0 13.445-9.889l13.53 9.937-.006.008a1.4 1.4 0 0 1 .562 1.123v10.711c.002-.054.031-.1.031-.154V50.281a5.565 5.565 0 0 0-5.576-5.576z" fill="#999" fill-rule="evenodd"/><rect x="-144.371" y="48.727" width="22.136" height="18.112" ry="1.508" rx="1.509" fill="#ebebeb"/><path d="M-133.303 51.745a5.031 5.031 0 0 0-5.03 5.031 5.031 5.031 0 0 0 5.03 5.031h3.522a.502.502 0 1 0 0-1.006h-3.522a4.025 4.025 0 0 1-4.025-4.025 4.025 4.025 0 0 1 4.025-4.025 4.025 4.025 0 0 1 4.025 4.025v1.51a.502.502 0 1 1-1.006 0v-1.51a3.019 3.019 0 0 0-3.019-3.018 3.019 3.019 0 0 0-3.018 3.018 3.019 3.019 0 0 0 3.018 3.019 3.019 3.019 0 0 0 2.144-.896c.235.528.76.896 1.378.896.836 0 1.509-.673 1.509-1.509v-1.51a5.031 5.031 0 0 0-5.031-5.03zm0 3.019a2.012 2.012 0 0 1 2.012 2.012 2.012 2.012 0 0 1-2.012 2.013 2.012 2.012 0 0 1-2.012-2.013 2.012 2.012 0 0 1 2.012-2.012z" fill="#848484"/><path d="M-119.217 67.488v-10.71l-23.142 16.02c.188.02.351.11.545.11h17.052c3.034 0 5.46-2.407 5.545-5.42z" fill="#fecd38" fill-rule="evenodd"/><path d="M-133.303 66.53l-14.086-9.753v10.557c0 2.895 2.212 5.18 5.03 5.465z" fill="#fec006" fill-rule="evenodd"/></g></svg>