<svg xmlns="http://www.w3.org/2000/svg" height="32" width="32" version="1"><rect width="28.203" height="28.203" x="1.898" y="1.898" ry="5.575" fill="#0286c2" fill-rule="evenodd"/><path d="M12.496 5.876c-.647 0-1.168.521-1.168 1.168v10.903c0 .647.52 1.168 1.168 1.168h10.902c.647 0 1.168-.521 1.168-1.168V8.213l2.336-2.337z" fill="#fff"/><path d="M5.098 12.885l2.336 2.336v9.735c0 .647.52 1.168 1.168 1.168h10.902c.647 0 1.168-.521 1.168-1.168V14.053c0-.647-.52-1.168-1.168-1.168z" fill="#35b9f5"/><path d="M9.77 16.779v.778h8.566v-.778zm0 2.336v.779h8.566v-.779zm0 2.336v.779h6.541v-.779z" fill="#aee3fb"/></svg>