<svg xmlns="http://www.w3.org/2000/svg" width="32" height="32" version="1"><rect width="28.203" height="28.203" x="1.898" y="1.898" ry="5.575" fill="#ccc" fill-rule="evenodd"/><path d="M14 11.484c-.899 0-1.892.16-2.344.438-.447.274-.656.696-.656 1.281v1.281c0 .35-.164.578-.438.75-.269.17-1.003.282-1.562.282v1c1.102 0 2 .365 2 1.062v1.094c0 .641.207 1.121.625 1.406.422.289 1.418.43 2.375.438v-1.032c-.476-.007-1.476-.092-1.688-.25-.21-.157-.312-.38-.312-.687v-1.188c0-.306-.114-1.208-1.063-1.343v-.063c.949-.146 1.063-.873 1.063-1.312v-1.188c0-.307.101-.502.313-.656.215-.158 1.215-.263 1.687-.281zm4 0v1.032c.472.018 1.472.123 1.688.28.21.155.312.35.312.657v1.188c0 .439.114 1.166 1.063 1.312v.063C20.113 16.15 20 17.053 20 17.359v1.188c0 .307-.101.53-.313.687-.21.158-1.21.243-1.687.25v1.032c.957-.008 1.953-.15 2.375-.438.418-.285.625-.765.625-1.406v-1.094c0-.697.898-1.062 2-1.062v-1c-.56 0-1.293-.113-1.563-.282-.273-.172-.437-.4-.437-.75v-1.28c0-.586-.209-1.008-.656-1.282-.452-.278-1.445-.438-2.344-.438z" fill="#446f7d"/></svg>