<svg xmlns="http://www.w3.org/2000/svg" height="32" width="32" version="1"><rect width="28.203" height="28.203" x="1.898" y="1.898" ry="5.575" fill="#ccf0be" fill-rule="evenodd"/><path d="M12.496 5.876c-.647 0-1.168.521-1.168 1.168v10.903c0 .647.52 1.168 1.168 1.168h10.902c.647 0 1.168-.521 1.168-1.168V8.213l2.336-2.337z" fill="#4bae4f"/><path d="M5.098 12.885l2.336 2.336v9.735c0 .647.52 1.168 1.168 1.168h10.902c.647 0 1.168-.521 1.168-1.168V14.053c0-.647-.52-1.168-1.168-1.168z" fill="#8ac249"/><path d="M13.031 15.68l-.42 2.258H10.27v.753h2.2l-.422 2.257H10.27v.752h1.638l-.422 2.257h.796l.421-2.257h1.99l-.421 2.257h.795l.421-2.257h2.739v-.752h-2.599l.423-2.257h2.176v-.753h-2.036l.421-2.257h-.796l-.42 2.257h-1.99l.421-2.257zm.235 3.01h1.99l-.423 2.258h-1.99z" fill="#fff" fill-rule="evenodd"/></svg>