<svg xmlns="http://www.w3.org/2000/svg" height="32" width="32" version="1"><rect width="28.203" height="28.203" x="1.898" y="1.898" ry="5.575" fill="#0286c2" fill-rule="evenodd"/><g transform="translate(41.396 -1.007)"><rect x="-26.531" y="15.873" width="19.049" height="19.049" ry="9.524" rx="9.524" transform="matrix(0 -1 -1 0 0 0)" fill="#ccc"/><path d="M-26.295 11.568c-1.388-.04-2.723.245-3.955.535-1.816.428-4.805 1.753-4.805 1.753-.721.313-.733 1.336-.019 1.665 1.028.526 2.585.745 2.802 1.93.32 1.748-1.516 3.349-2.489 4.96-.582.926.658 1.909 1.418 1.123 0 0 4.707-4.37 10.853-4.535 1.144-.031 2.668.477 3.858 1.027 1.19.55 2.038.968 2.038.968.752.491 1.682-.5 1.327-1.328-1.762-4.118-5.41-7.506-10.422-8.058l-.008-.001c-.2-.02-.4-.033-.598-.039z" fill="#f2f2f2"/></g></svg>