<svg xmlns="http://www.w3.org/2000/svg" width="32" height="32"><rect width="28.203" height="28.203" x="1.898" y="1.898" ry="5.575" fill="#fa5c5c" fill-rule="evenodd"/><path d="M10.86 8.005a4.524 8.278 17.882 0 0-.333.002 4.524 8.278 17.882 0 0-5.984 6.932 4.524 8.278 17.882 0 0 2.045 8.992A4.524 8.278 17.882 0 0 11.5 21h9a8.278 4.524 72.118 0 0 4.91 2.93 8.278 4.524 72.118 0 0 2.047-8.992 8.278 4.524 72.118 0 0-6.77-6.868 8.278 4.524 72.118 0 0-2.383 2.93h-4.61a4.524 8.278 17.882 0 0-2.384-2.93 4.524 8.278 17.882 0 0-.45-.066zM13.95 13h4v3h1l-3 3-3-3h1z" fill="#ffc0ff"/></svg>