<svg xmlns="http://www.w3.org/2000/svg" height="32" width="32" version="1"><rect width="28.203" height="28.203" x="1.898" y="1.898" ry="5.575" fill="#55648f" fill-rule="evenodd"/><path d="M7.227 7c3.888 4.429 4.402 9 4.197 12-.18 2.63-1.799 3.614-2.108 3.738-.644.26-2.158.646-4.316-.738 0 1.615 1.388 3 3.803 3s4.392-1.939 4.793-4.123c1.393-11.275-1.258-12.86-1.258-12.86S9.91 7.002 7.227 7zM15 7c.706 2.992 6 4.17 6 5.592 0 1.423-4.058 1.667-4 3.972.059 3.188 5.176 7.406 10 8.436-2.118-2.452-7.47-7.798-5.705-9.172C27.648 11.512 21.823 7.981 15 7z" fill="#fff" fill-rule="evenodd"/></svg>