<svg xmlns="http://www.w3.org/2000/svg" height="32" width="32" version="1"><rect width="28.203" height="28.203" x="1.898" y="1.898" ry="5.575" fill="#19416f" fill-rule="evenodd"/><path d="M18 5.5a2 2 0 0 0-2 2 2 2 0 0 0 2 2 2 2 0 0 0 2-2 2 2 0 0 0-2-2zm-2.332 5c-.924 0-1.668.669-1.668 1.5s.744 1.5 1.668 1.5H17v8.799c0 .797-.29 1.446-1.037 1.828A2 2 0 0 0 14 22.5a2 2 0 0 0-2 2 2 2 0 0 0 2 2c3.75 0 6 0 6-4.201V10.5h-2.668z" style="line-height:125%" font-size="35" font-family="Noto Sans Saurashtra" letter-spacing="0" word-spacing="0" fill="#fff"/></svg>