<svg xmlns="http://www.w3.org/2000/svg" height="32" width="32" version="1"><rect width="28.203" height="28.203" x="1.898" y="1.898" ry="5.575" fill="#e74c3c" fill-rule="evenodd"/><g clip-rule="evenodd" fill="#fff" fill-rule="evenodd"><path d="M13.509 21.467s-.725.445.516.595c1.505.18 2.273.154 3.93-.176 0 0 .437.288 1.046.537-3.716 1.678-8.41-.097-5.492-.956zm-.455-2.189s-.813.634.43.77c1.607.174 2.875.188 5.072-.257 0 0 .303.324.78.502-4.492 1.384-9.496.109-6.282-1.016zm3.828-3.715c.916 1.11-.24 2.11-.24 2.11s2.325-1.264 1.257-2.848c-.997-1.477-1.762-2.21 2.378-4.74 0 0-6.498 1.71-3.395 5.478z"/><path d="M21.797 23.087s.537.466-.59.826c-2.145.685-8.928.891-10.812.028-.677-.311.593-.741.992-.832.417-.095.655-.078.655-.078-.754-.559-4.869 1.098-2.09 1.573 7.576 1.293 13.81-.583 11.845-1.517zm-7.939-6.078s-3.45.863-1.222 1.177c.941.133 2.816.102 4.564-.052 1.428-.127 2.86-.397 2.86-.397s-.502.228-.867.49c-3.504.97-10.271.518-8.323-.474 1.648-.84 2.988-.744 2.988-.744zm6.189 3.644c3.561-1.95 1.914-3.823.765-3.57-.281.061-.407.115-.407.115s.104-.173.304-.248c2.274-.842 4.022 2.484-.734 3.802 0 0 .055-.053.072-.1zM17.9 6s1.972 2.079-1.871 5.275c-3.082 2.564-.703 4.026-.001 5.697-1.8-1.71-3.12-3.215-2.234-4.616 1.3-2.057 4.901-3.054 4.106-6.356z"/><path d="M14.208 25.937c3.418.23 8.668-.128 8.792-1.832 0 0-.239.646-2.825 1.159-2.918.578-6.517.511-8.65.14 0 0 .436.381 2.683.533z"/></g></svg>