<svg xmlns="http://www.w3.org/2000/svg" height="32" width="32" version="1"><rect width="28.203" height="28.203" x="1.898" y="1.898" ry="5.575" fill="#37a0f2" fill-rule="evenodd"/><path d="M10.86 5.438a11.197 11.197 0 0 0-.876.47h.115l.058.188-.165.154.705.02.108.254-.794-.03-.039-.195-.463-.1a11.197 11.197 0 0 0-.473.338h.277v.185l-.122.162h-.58V6.86a11.197 11.197 0 0 0-3.492 4.997l.061.03v.935l.47.803.382.06.05-.276-.452-.697-.088-.678h.264l.111.698.652.953-.167.307.414.635 1.03.256v-.167l.41.059-.038.294.323.059.5.137.705.806.902.067.087.737-.616.432-.029.659-.088.402.892 1.12.068.382s.323.089.363.089c.039 0 .725.52.725.52v2.023l.245.07-.167.932.412.55-.076.925.544.958.693.606a11.197 11.197 0 0 0 .037.007l.67.012.068-.227-.515-.435.03-.216.091-.265.02-.27-.349-.011-.176-.221.29-.28.04-.21-.324-.093.02-.196.46-.07.7-.337.236-.432.735-.943-.167-.737.226-.393.675.021.455-.362.148-1.422.504-.642.089-.414-.46-.147-.305-.499-1.039-.01-.823-.316-.038-.588-.276-.481-.744-.011-.43-.677-.383-.187-.02.206-.695.041-.255-.355-.725-.148-.598.692-.939-.158-.069-1.063-.687-.117.276-.521-.079-.3-.902.605-.567-.07-.203-.445.124-.457.313-.578.72-.365h1.391l-.003.424.5.233-.04-.726.36-.364.727-.478.05-.337.725-.756.771-.428-.067-.057.521-.492.192.05.088.111.198-.22.048-.022-.216-.03-.221-.075V9.08L14 8.984h.257l.118.051.102.207.125-.018v-.019l.035.012.362-.055.052-.177.205.052v.192l-.19.131.028.21.654.202.002.01.151-.014.01-.284-.52-.237-.029-.136.431-.148.019-.413-.45-.275-.03-.696-.617.304h-.225l.059-.53-.84-.2-.348.264v.803l-.625.199-.25.524-.273.043v-.67l-.588-.081-.293-.192-.119-.434 1.051-.616.514-.157.052.346.287-.014.022-.174.3-.044.005-.06-.13-.054-.029-.184.369-.031.222-.233.012-.016h.003l.068-.07.774-.098.342.292-.898.48 1.143.27.148-.383h.5l.175-.334-.352-.089v-.422l-1.107-.492-.764.089-.431.226.03.55-.452-.069-.07-.304.433-.393-.784-.039-.226.068-.097.265.293.05-.058.294-.5.03-.077.195-.725.021s-.02-.412-.05-.412l.568-.01.432-.423-.235-.118-.314.305-.519-.03-.278-.381zm12.139 1.624l-.357.14-.228.25.052.29.281.04.169.424.484-.196.08.567h-.146l-.398-.06-.44.075-.427.604-.61.096-.089.524.258.06-.074.337-.606-.122-.555.122-.118.31.096.65.326.153.547-.003.37-.033.112-.296.577-.75.38.077.375-.34.07.266.92.623-.112.15L23.52 11l.16.226.256.056.298-.125-.006-.36.133-.067-.107-.114-.615-.343-.16-.456h.51l.163.162.44.38.018.46.456.485.17-.666.315-.173.059.545.308.339.143-.003A11.197 11.197 0 0 0 24.4 8.51l-.743-.006-.05-.169.442-.225a11.197 11.197 0 0 0-1.05-1.048zm-13.696.116c.022 0 0 .257 0 .257l-.581.037-.11-.132.41-.118s.258-.044.28-.044zm.706 1.252l.279.067-.096.375-.302.096-.19-.391zm.764.89h.463v.141h.102v.243h-.706l-.263-.073.065-.17.34-.14zm.69.104l.243.221-.243.06v-.28zm.534.34l.18.112-.145.119-.142-.12.107-.112zm-1.356.036h.39l-.5.7-.205-.111.043-.294.273-.295zm.626 0h.395v.235l-.176.114-.22.042V9.8zm.492.258h.03l.447.133v.228h-.375l-.102-.148v-.213zm-.185.213v.23l-.169.169h-.375l.06-.257.177-.016.036-.088.27-.038zm11.656.973l-1.323.103-.41.22h-.525l-.258-.026-.637.356v.668l-1.305.942.108.403h.265l-.069.382-.186.07-.01 1 1.127 1.287h.49l.03-.078h.882l.253-.236h.501l.273.276.746.077-.098.993.826 1.463-.435.835.03.392.342.344v.944l.45.607v.413a11.197 11.197 0 0 0 2.584-7.147 11.197 11.197 0 0 0-.476-3.198h-.557l-.573-.428-.602.06v.368h-.191l-.206-.148-1.045-.265v-.677z" fill="#a2f46a"/><g transform="matrix(.75 0 0 .75 4.047 5.016)" stroke-width="1.333"><circle r="8" cy="23" cx="24" fill="#ffc921"/><path d="M23.983 27L21 23h2v-4h2v4h2z" fill="#2e2e2e"/></g></svg>