<svg xmlns="http://www.w3.org/2000/svg" width="32" height="32" version="1"><g fill-rule="evenodd"><path d="M6.918 29.99V7.63h-5.02v16.897c0 2.892 2.207 5.173 5.02 5.463z" fill="#b7b7b7"/><path d="M7.473 1.898a5.563 5.563 0 0 0-5.575 5.577v.156h5.02v22.36c.192.019.358.11.555.11h17.052a5.563 5.563 0 0 0 5.577-5.574V7.475a5.565 5.565 0 0 0-5.577-5.577z" fill="#419d45"/></g><g fill="#f8c44e"><path d="M11.615 25.335h2.383v4.767h-2.383zM15.19 25.335h2.384v4.767H15.19zM18.765 25.335h2.384v4.767h-2.384zM22.34 25.335h2.384v4.767h-2.383z"/></g><g transform="translate(34.854 9.437)"><g fill="#b7b7b7"><path d="M-19.475.604h1.192v2.383h-1.192zM-15.9.604h1.192v2.383H-15.9zM-19.475 10.138h1.192v2.383h-1.192zM-15.9 10.138h1.192v2.383H-15.9zM-11.133 4.18v1.19h-2.383V4.18zM-11.133 7.754v1.192h-2.383V7.754zM-20.667 4.18v1.19h-2.383V4.18zM-20.667 7.754v1.192h-2.383V7.754z"/></g><rect width="7.151" height="7.151" x="-20.667" y="2.987" rx="1.43" ry="1.43" fill="#4e4e4e"/></g></svg>