<svg xmlns="http://www.w3.org/2000/svg" height="32" width="32" version="1"><rect width="28.203" height="28.203" x="1.898" y="1.898" ry="5.575" fill="#4f3b21" fill-rule="evenodd"/><g transform="matrix(.73148 0 0 .73148 4.296 4.296)" stroke-width="1.367"><path d="M20.319 3.007c-4.562.072-14.42.77-16.222 3.655-.315.83-.878 3.752-1.153 5.985-.064.515-.124 1.172-.186 1.778A6.136 6.158 0 0 0 1 18.737a6.136 6.158 0 0 0 1.108 3.525l-.065.92c-.084 2.859-.016 2.96 2.698 4.091 2.17.905 4.517 1.375 8.084 1.619 3.052.208 6.14.112 8.492-.265 4.138-.663 7.728-2.017 8.126-3.066.11-.287.274-1.463.367-2.612.018-.232.03-.429.045-.643A6.136 6.158 0 0 0 31 18.737a6.136 6.158 0 0 0-1.59-4.125 333.36 333.36 0 0 0-.687-4.219c-.511-2.683-1.12-5.253-1.353-5.71-.682-1.338-1.518-1.595-5.46-1.674a38.66 38.66 0 0 0-1.591-.002z" fill="#7a6143"/><path d="M18.48 26.625c.921-.413 1.314-.98.774-1.117-.181-.045-.656.098-1.056.32-.892.495-2.128.53-3.217.092-1.368-.55-2.025-.248-.933.428 1.208.749 3.113.868 4.432.277z" fill="#372c1e"/><circle r="5.5" cx="7.5" cy="18.5" fill="#37a643"/><circle r="1" cx="7" cy="18" fill="#372c1e"/><circle r="5.5" cx="24.5" cy="18.5" fill="#37a643"/><circle r="1" cx="25" cy="18" fill="#372c1e"/><path d="M25.944 6.065c.046.103-2.943 1.32-5.478 2.449-2.536 1.128-3.658 1.74-3.704 1.637-.026-.06 1.536-1.052 2.593-1.563 2.041-.881 4.098-1.828 6.589-2.523z" fill="#372c1e"/><path d="M23.796 11.308c-.109.029-1.355-1.165-2.544-2.757s-1.87-2.978-1.762-3.007c.109-.029.87 1.238 2.059 2.83s2.355 2.905 2.247 2.934z" fill="#372c1e"/></g></svg>