<svg xmlns="http://www.w3.org/2000/svg" height="32" width="32" version="1"><rect width="28.203" height="28.203" x="1.898" y="1.898" ry="5.575" fill="#858585" fill-rule="evenodd"/><path d="M16 10.389A5.611 5.611 0 0 0 10.389 16 5.611 5.611 0 0 0 16 21.611 5.611 5.611 0 0 0 21.611 16 5.611 5.611 0 0 0 16 10.389zm0 3.366a2.245 2.245 0 1 1 0 4.49 2.245 2.245 0 0 1 0-4.49z" fill="#858585"/><path d="M16 5.525A10.452 10.452 0 0 0 5.525 16 10.452 10.452 0 0 0 16 26.475 10.452 10.452 0 0 0 26.475 16 10.452 10.452 0 0 0 16 5.525zm0 5.986A4.49 4.49 0 0 1 20.49 16 4.49 4.49 0 0 1 16 20.49 4.49 4.49 0 0 1 11.51 16 4.49 4.49 0 0 1 16 11.51z" fill="#ccc"/><path d="M16 12.965a3.035 3.035 0 1 0 0 6.07 3.035 3.035 0 0 0 0-6.07z" fill="#fff"/><g transform="matrix(.75 0 0 .75 4.619 5.174)" stroke-width=".833"><circle r="8" cy="23" cx="24" fill="#ff4d4d"/><path d="M24 18a5 5 0 0 0-5 5 5 5 0 0 0 5 5 5 5 0 0 0 5-5 5 5 0 0 0-5-5zm0 3a2 2 0 0 1 2 2 2 2 0 0 1-2 2 2 2 0 0 1-2-2 2 2 0 0 1 2-2z" fill="#fff"/></g></svg>