<svg xmlns="http://www.w3.org/2000/svg" height="32" width="32" version="1"><g transform="translate(69.695 5.695)"><rect ry="5.575" y="-3.797" x="-67.797" height="28.203" width="28.203" fill="#9a4350" fill-rule="evenodd"/><path d="M-54.983 3.972a3.678 3.678 0 1 1 0 7.356 3.678 3.678 0 0 1 0-7.356zM-54.983 13.372c7.356-.004 7.356 4.904 7.356 4.904V19.5H-62.34v-1.225s0-4.901 7.356-4.905zM-47.695 7.362a2 2 0 1 1 .001 3.999 2 2 0 0 1 0-4z" fill="#fff"/><path d="M-47.695 12.362c4-.002 4 3.2 4 3.2v.8h-8v-.8s0-3.198 4-3.2z" fill="#fff"/></g></svg>