<svg xmlns="http://www.w3.org/2000/svg" height="32" width="32" version="1"><rect width="28.203" height="28.203" x="1.898" y="1.898" ry="5.575" fill="#913b3b" fill-rule="evenodd"/><g transform="translate(36.701 3.117)"><path d="M-20.702 1.703l-3.274 3.274h-4.631v4.631l-3.275 3.275 3.275 3.275v4.631h4.631l3.275 3.275 3.275-3.275h4.63v-4.63l3.276-3.276-3.275-3.274V4.978h-4.631l-3.275-3.275z" fill="#fec006"/><path d="M-24.98 2.553l-1.773 4.279-4.279 1.773 1.772 4.278-1.772 4.279 4.279 1.773 1.773 4.278 4.278-1.772 4.278 1.772 1.774-4.278 4.278-1.773-1.772-4.28 1.771-4.279-4.278-1.772-1.773-4.279-4.279 1.772-4.277-1.772z" fill="#fecd38"/><rect x="-21.483" y="12.101" width="17.201" height="17.201" ry="8.6" rx="8.6" transform="matrix(0 -1 -1 0 0 0)" fill="#fed96a"/><g transform="matrix(.86003 0 0 .86003 -34.462 .843)" fill="#3f3f3f" stroke-width="1.163"><circle r="2" cx="11" cy="11"/><circle r="2" cx="21" cy="11"/></g><path d="M-25.282 15.463c.945 1.964 2.69 3.438 4.581 3.44 1.889-.003 3.633-1.477 4.577-3.44H-25.282z" fill="#913b3b"/></g></svg>