<svg xmlns="http://www.w3.org/2000/svg" width="32" height="32"><path d="M29.455 4.99h-.637l-3.785 3.785h5.047l.022-.021v-1.28c0-.907-.265-1.728-.647-2.484z" fill="#d2d2d2" fill-rule="evenodd"/><path d="M8.064 1.898h-.591c-1.253 0-2.347.486-3.276 1.178L6.111 4.99v3.785H1.898v15.752a5.561 5.561 0 0 0 5.575 5.575h17.052a5.563 5.563 0 0 0 5.577-5.575V8.754l-.022.021h-5.047l3.785-3.785-2.591-2.592c-.56-.195-1.07-.5-1.702-.5H21.94l3.094 3.092h-5.045l-3.093-3.092h-3.786l3.094 3.092h-5.047z" fill="#524162" fill-rule="evenodd"/><path d="M8.064 1.898l3.092 3.092h5.047L13.11 1.898zM16.895 1.898l3.093 3.092h5.045L21.94 1.898zM26.227 2.398l2.591 2.592h.637c-.652-1.29-1.856-2.11-3.228-2.592z" fill="#bebebe" fill-rule="evenodd"/><path d="M1.898 8.775h4.213V4.99L4.197 3.076C2.836 4.091 1.898 5.638 1.898 7.475z" fill="#d2d2d2" fill-rule="evenodd"/><path d="M11.8 12.56a.63.7 0 0 0-.643.701v11.213a.63.7 0 0 0 .944.609l8.83-5.606a.63.7 0 0 0 0-1.218l-8.83-5.607a.63.7 0 0 0-.3-.092z" fill="#d2d2d2"/><path d="M11.157 4.99L7.372 8.776h5.046l3.785-3.784zM19.987 4.99l-3.784 3.785h5.046l3.784-3.784z" fill="#d2d2d2" fill-rule="evenodd"/></svg>