<svg xmlns="http://www.w3.org/2000/svg" height="32" width="32" version="1"><rect width="28.203" height="28.203" x="1.898" y="1.898" ry="5.575" fill="#e74c3c" fill-rule="evenodd"/><path d="M13 19.844c-.474-.025-1.017.193-1.45.626L9.67 22.348c-.693.694-.833 1.67-.313 2.19.52.521 1.497.381 2.191-.312l1.878-1.878c.694-.694.833-1.67.313-2.19a1.108 1.108 0 0 0-.74-.314zm5.95 0a1.106 1.106 0 0 0-.739.313c-.52.52-.38 1.497.313 2.191l1.878 1.878c.694.693 1.67.833 2.191.313.52-.52.38-1.497-.313-2.191l-1.878-1.878c-.433-.433-.978-.651-1.452-.626z" fill="maroon"/><path d="M9.044 7.147a3.162 3.162 0 0 0-3.162 3.162 3.162 3.162 0 0 0 1.745 2.824A8.87 8.87 0 0 0 7.147 16 8.834 8.834 0 0 0 16 24.853 8.834 8.834 0 0 0 24.853 16a8.87 8.87 0 0 0-.48-2.868 3.162 3.162 0 0 0 1.745-2.823 3.162 3.162 0 0 0-3.162-3.162A3.162 3.162 0 0 0 20.47 8.36 8.824 8.824 0 0 0 16 7.147c-1.635 0-3.16.447-4.471 1.214a3.162 3.162 0 0 0-2.485-1.214z" fill="maroon"/><rect transform="matrix(0 -1 -1 0 0 0)" rx="7.588" ry="7.588" height="15.177" width="15.177" y="-23.588" x="-23.588" fill="#fff" fill-opacity=".92"/><path d="M15.134 16.36l1.378 2.352a.916.916 0 0 0 1.245.329.89.89 0 0 0 .334-1.228l-1.368-2.337 3.16-1.798a.445.445 0 0 0 .166-.614.458.458 0 0 0-.623-.165l-3.788 2.158c-.517.254-.713.918-.504 1.302zM16 9.044a.632.632 0 0 0-.632.632.632.632 0 0 0 .632.633.632.632 0 0 0 .632-.633.632.632 0 0 0-.632-.632zM16 21.691a.632.632 0 0 0-.632.633.632.632 0 0 0 .632.632.632.632 0 0 0 .632-.632.632.632 0 0 0-.632-.633zM22.956 16a.632.632 0 0 0-.632-.632.632.632 0 0 0-.633.632.632.632 0 0 0 .633.632.632.632 0 0 0 .632-.632zM10.309 16a.632.632 0 0 0-.633-.632.632.632 0 0 0-.632.632.632.632 0 0 0 .632.632.632.632 0 0 0 .633-.632z" fill="#9c3c3c"/></svg>