<svg xmlns="http://www.w3.org/2000/svg" height="32" width="32"><rect width="28.203" height="28.203" x="1.898" y="1.898" ry="5.575" fill="#de554c" fill-rule="evenodd"/><path d="M8 8a3 3 0 1 0 1.875 5.344l2.316 1.438a4 4 0 0 0-.19 1.218 4 4 0 0 0 .194 1.217l-2.32 1.439A3 3 0 1 0 11 21c0-.231-.044-.44-.094-.656l2.338-1.453A4 4 0 0 0 16 20a4 4 0 0 0 2.76-1.107l2.334 1.45c-.05.217-.094.426-.094.657a3 3 0 1 0 1.125-2.344l-2.316-1.439A4 4 0 0 0 20 16a4 4 0 0 0-.193-1.215l2.318-1.44A3 3 0 1 0 21 11c0 .23.044.44.094.655l-2.338 1.453A4 4 0 0 0 16 12a4 4 0 0 0-2.76 1.107l-2.334-1.45c.05-.217.094-.426.094-.657a3 3 0 0 0-3-3z" fill="#ffb668"/></svg>