<svg xmlns="http://www.w3.org/2000/svg" height="32" width="32" version="1"><rect width="28.203" height="28.203" x="1.898" y="1.898" ry="5.575" fill="#6b664c" fill-rule="evenodd"/><g fill="#fff" fill-opacity=".791"><path d="M6.5 11h2.635v3.65L12.934 11h3.059l-4.921 4.735L16.5 21h-3.299l-4.066-3.938V21H6.5V11z"/><path d="M25.5 20.096q-1.008.452-2.094.678-1.085.226-2.241.226-2.612 0-4.138-1.343-1.527-1.35-1.527-3.654 0-2.33 1.555-3.667Q18.609 11 21.312 11q1.043 0 1.996.18.96.181 1.807.536v1.995q-.876-.458-1.744-.684-.862-.226-1.73-.226-1.61 0-2.486.833-.868.826-.868 2.369 0 1.53.84 2.363t2.388.833q.42 0 .777-.046.365-.051.652-.155v-1.872h-1.646v-1.665H25.5v4.635z"/></g></svg>