<svg xmlns="http://www.w3.org/2000/svg" height="32" width="32" version="1"><rect width="28.203" height="28.203" x="1.898" y="1.898" ry="5.575" fill="#e9a84a" fill-rule="evenodd"/><path d="M15.553 4.35A1.5 1.5 0 0 0 14.06 5.52s-.291 1.258-.607 3.12l-.01-.005c.002.006.008.015.008.018a.047.047 0 0 0-.002.012.534.534 0 0 1-.141-.074c.027.016.099.029.135.044-.025-.057-.177-.23-.258-.445-.13-.34-.203-.656-.203-.656a1.5 1.5 0 0 0-1.525-1.186 1.5 1.5 0 0 0-1.401 1.852s.11.491.322 1.053c.213.56.364 1.28 1.352 1.89.41.254.839.433 1.277.567a49.959 49.959 0 0 0-.273 3.037c-.007.122.002.248-.004.371-.792.133-1.581.28-2.31.545-1.825.665-3.468 1.803-4.27 3.59-.386.86-.286 1.816.023 2.545.309.728.793 1.31 1.344 1.808 1.102.997 2.45 1.72 3.963 1.76 1.007.027 1.919-.292 2.79-.725.624 1.098 1.43 2.051 2.63 2.594 2.141.971 4.44.094 6.25-1.158.905-.626 1.704-1.395 2.264-2.326.56-.932.888-2.113.546-3.299-.533-1.849-1.979-3.162-3.66-4.039.178-.278.502-.768.502-.768a1.5 1.5 0 1 0-2.566-1.552s-.703.926-.897 1.224a16.743 16.743 0 0 0-2.953-.433c-.22-.013-.435.024-.656.019.056-.996.15-1.969.262-2.894a28.53 28.53 0 0 0 1.53-.123c1.834-.188 3.352-.561 3.352-.561a1.5 1.5 0 1 0-.71-2.914s-1.346.327-2.946.49c-.255.026-.518.03-.78.04.285-1.644.54-2.725.54-2.725a1.5 1.5 0 0 0-1.426-1.868zm.664 13.53c.388.022.75.114 1.13.168-.156.193-.12.197-.286.39-.367.429-.787.738-1.184 1.14-.065-.556-.145-1.082-.168-1.683.172.004.337-.025.508-.015zm-3.511.312c.053 1.254.188 2.486.455 3.645-.621.325-1.194.544-1.6.533-.372-.01-1.412-.426-2.031-.986-.31-.281-.52-.581-.594-.756-.074-.175-.048-.144-.047-.145.36-.802 1.227-1.514 2.56-2 .374-.136.83-.198 1.257-.291zm7.781.699c.111.05.256.078.361.13 1.246.634 1.989 1.426 2.231 2.265.055.192.035.47-.235.92-.27.449-.782.98-1.4 1.408-1.236.855-2.835 1.102-3.305.889-.573-.26-1.022-.856-1.406-1.617.92-.792 1.846-1.607 2.607-2.496.468-.546.753-.982 1.147-1.5z" color="#000" fill-rule="evenodd" fill-opacity=".4"/></svg>