<svg xmlns="http://www.w3.org/2000/svg" width="32" height="32" version="1"><g transform="translate(43.525 14.44)"><rect ry="5.575" y="-12.542" x="-41.627" height="28.203" width="28.203" fill="#5b5b5b" fill-rule="evenodd"/><path d="M-36.256-12.501c-2.988.112-5.371 2.516-5.371 5.533v17.055a5.561 5.561 0 0 0 5.574 5.574H-19a5.563 5.563 0 0 0 5.576-5.574V-6.968A5.563 5.563 0 0 0-19-12.542h-13.256v1.562a.996.996 0 0 1-.293.707.996.996 0 0 1-.707.293h-2a1 1 0 0 1-1-1z" fill="#5b5b5b" fill-rule="evenodd"/><path d="M-36.256-12.501v1.521a.994.994 0 0 0 1 1h2a.996.996 0 0 0 .707-.293c.18-.18.293-.43.293-.707v-1.562h-3.797c-.072 0-.131.038-.203.04z" fill="#373737" fill-rule="evenodd"/><circle r="1" cy="-7.143" cx="-17.664" fill="#373737"/><circle r="8" cy="1.559" cx="-27.525" fill="#373737"/><circle transform="scale(1 -1)" r="6" cy="-1.559" cx="-27.525" fill="#009587"/><circle r="4" cy="1.559" cx="-27.525" fill="#66bfb7"/></g></svg>