<svg xmlns="http://www.w3.org/2000/svg" height="32" width="32" version="1"><path d="M1.898 8.893v15.634a5.561 5.561 0 0 0 5.575 5.575h17.054a5.561 5.561 0 0 0 5.575-5.575V8.893z" fill="#ececec" fill-rule="evenodd"/><path d="M1.898 8.893h28.204v-1.42a5.561 5.561 0 0 0-5.575-5.575H7.473a5.561 5.561 0 0 0-5.575 5.575v1.42z" fill="#265cff" fill-rule="evenodd"/><g fill="gray"><path d="M13.114 23.963v2.63h2.63l6.642-6.642-2.63-2.63zm11.599-6.33a.697.697 0 0 0 0-.995l-1.644-1.644a.697.697 0 0 0-.995 0L20.7 16.377l2.63 2.63zM8.243 26.593v-1.185h3.529v1.185zm0-3.555v-1.186h3.566v1.186zm0-3.556v-1.185h6.888v1.185zm0-3.556v-1.185h11.57v1.185H8.244z"/></g></svg>