<svg xmlns="http://www.w3.org/2000/svg" height="32" width="32" version="1"><rect width="28.203" height="28.203" x="1.898" y="1.898" ry="5.575" fill="#4f4f4f" fill-rule="evenodd"/><path d="M13.033 23.747c0-.415.06-.765.179-1.053.12-.286.284-.518.497-.695.211-.176.461-.304.748-.384a3.453 3.453 0 0 1 1.801 0c.278.08.523.208.735.384.212.177.379.409.503.695.124.288.185.638.185 1.053 0 .398-.061.738-.185 1.02a1.98 1.98 0 0 1-.503.703 1.992 1.992 0 0 1-.735.404 3.031 3.031 0 0 1-.88.126c-.328 0-.634-.042-.92-.126a1.962 1.962 0 0 1-.749-.403 1.893 1.893 0 0 1-.497-.703c-.119-.282-.179-.623-.179-1.02m.437-4.53v-.98c0-.45.046-.858.14-1.224.092-.367.233-.715.423-1.047.19-.33.435-.653.735-.967.3-.313.663-.638 1.086-.973.371-.291.685-.552.94-.782.257-.229.463-.457.623-.682.158-.225.274-.46.344-.708.071-.248.107-.535.107-.86 0-.504-.172-.92-.51-1.246-.34-.327-.86-.49-1.557-.49-.609 0-1.265.128-1.967.383-.701.257-1.428.57-2.179.941l-1.35-2.927c.38-.221.792-.43 1.238-.629.447-.199.91-.375 1.39-.53.482-.154.97-.276 1.464-.364.495-.089.98-.133 1.457-.133.9 0 1.713.109 2.436.325.725.216 1.339.531 1.841.946.505.415.89.92 1.16 1.51.27.593.404 1.267.404 2.027a5.51 5.51 0 0 1-.186 1.49 4.487 4.487 0 0 1-.548 1.219 6.055 6.055 0 0 1-.915 1.085c-.366.35-.793.718-1.278 1.106-.371.292-.674.546-.908.762a3.722 3.722 0 0 0-.549.615 1.81 1.81 0 0 0-.272.604 3.27 3.27 0 0 0-.073.734v.795H13.47z" fill="#b7b7b7"/></svg>