<svg xmlns="http://www.w3.org/2000/svg" height="32" width="32" version="1"><path d="M16 16H2v8.465A5.522 5.522 0 0 0 7.535 30h8.464z" fill="#86b837" fill-rule="evenodd"/><path d="M16 16v14h8.465A5.522 5.522 0 0 0 30 24.465v-8.464zM7.535 2A5.522 5.522 0 0 0 2 7.535V16h14V2zM16 2v14h14V7.536A5.522 5.522 0 0 0 24.465 2z" fill="#e94a63" fill-rule="evenodd"/><g transform="matrix(1.07547 0 0 1.07547 -2.306 -.475)" stroke-width=".93" fill="#fff"><circle r="3" cx="24.021" cy="8.319"/><circle r="3" cx="10.021" cy="22.319"/></g><path fill="#fff" fill-rule="evenodd" d="M1.898 14.746h28.203v2.508H1.898z"/><path fill="#fff" fill-rule="evenodd" d="M14.746 30.102V1.899h2.508v28.203z"/></svg>