<svg xmlns="http://www.w3.org/2000/svg" height="32" width="32" version="1"><rect width="28.203" height="28.203" x="1.898" y="1.898" ry="5.575" fill="#ffdb76" fill-rule="evenodd"/><path d="M19.127 7.561h-8.229a3.33 3.33 0 0 0-3.337 3.336v10.205a3.33 3.33 0 0 0 3.337 3.337h10.205a3.33 3.33 0 0 0 3.336-3.337v-8.229z" fill="#f9f9f9" fill-rule="evenodd"/><path d="M24.439 12.873l-5.312-5.312v1.976a3.328 3.328 0 0 0 3.336 3.336z" fill="#b3b3b3" fill-opacity=".325" fill-rule="evenodd"/><path d="M11.73 13.957v.766h8.428v-.766zm0 2.298v.767h8.428v-.767zm0 2.3v.765h8.428v-.766zm0 2.298v.766h6.13v-.766z" fill="#b3b3b3" fill-opacity=".498"/><path d="M20.668 22.716l-.14.082 1.858 3.22.48-1.793 1.762.473-1.788-3.096c-.045.014-.076.044-.119.053-.307.066-.468.2-.62.52-.227.474-.418.55-1.345.535-.027 0-.06.006-.088.006zM17.86 21.62l-1.605 2.78 1.79-.48.474 1.766 1.701-2.947c-.304.013-.633.022-.84.056-.439.072-.626.04-.804-.138-.128-.128-.234-.354-.234-.502 0-.139-.22-.346-.483-.536z" fill="#bb5b51"/><path d="M18.794 22.23c-.112-.112-.203-.308-.203-.436 0-.14-.195-.357-.487-.54-.402-.255-.488-.377-.491-.703a1.708 1.708 0 0 0-.179-.698c-.376-.658-.126-1.33.61-1.637.263-.11.497-.34.65-.637.69-1.345 1.729-1.528 2.68-.472.225.25.57.51.765.578.417.145.714.65.715 1.218 0 .22.11.566.243.767.3.452.313 1.057.03 1.307-.117.103-.394.227-.616.274-.299.063-.455.194-.603.504-.22.462-.406.536-1.308.522a7.594 7.594 0 0 0-1.106.073c-.381.063-.546.034-.7-.12z" fill="#e67365"/><circle cx="20.317" cy="19.612" r="1.774" fill="#fff"/><circle cx="20.317" cy="19.612" r="1.433" fill="#bb5b51"/></svg>