<svg xmlns="http://www.w3.org/2000/svg" height="32" width="32" version="1"><rect width="28.203" height="28.203" x="1.898" y="1.898" ry="5.575" fill="#2a88ae" fill-rule="evenodd"/><path d="M14.719 26.501a8.996 8.996 0 0 1-4.898-2.17C8.414 23.09 7.413 21.365 7 19.466c-.1-.463-.117-.699-.119-1.75 0-1.07.013-1.281.12-1.777.37-1.73 1.134-3.165 2.355-4.418a8.798 8.798 0 0 1 4.176-2.41l.633-.163.016-.38.015-.381h-2.01v-.253c0-1.136.922-2.214 2.088-2.44.213-.042.753-.056 1.61-.042 1.2.02 1.313.03 1.608.145.414.161.825.435 1.063.708.36.413.652 1.177.652 1.704v.178H17.253v.78l.41.092c1.006.224 2.118.717 3.075 1.364.688.465 1.683 1.446 2.179 2.146.43.607.983 1.698 1.196 2.36.566 1.753.565 3.786-.002 5.524-.704 2.158-2.276 4.009-4.324 5.092a8.966 8.966 0 0 1-5.068.956zm.273-2.647c.018-.46.045-.627.12-.742.269-.408.911-.398 1.157.018.066.112.086.284.086.732 0 .678-.054.634.632.504.857-.163 1.884-.605 2.642-1.137a8.15 8.15 0 0 0 .873-.759 6.755 6.755 0 0 0 .839-8.539c-.992-1.49-2.52-2.518-4.313-2.902-.702-.15-1.958-.16-2.598-.021-2.045.445-3.662 1.605-4.647 3.331-.387.677-.743 1.72-.833 2.44l-.029.224h.555c.785 0 1.027.136 1.1.617a.655.655 0 0 1-.35.664c-.138.07-.311.092-.747.092-.312 0-.568.01-.568.02 0 .012.037.22.081.463.511 2.773 2.655 4.963 5.39 5.507.636.126.584.17.61-.512zm7.577-12.911l-1.203-1.205.658-.64c.69-.672.843-.76 1.181-.676.092.022.477.365 1.03.918l.885.883v.569l-.674.678-.673.678z" fill="#fff"/><path d="M15.759 14.503v-3.167h.277c.432 0 1.23.147 1.754.322 2.215.74 3.88 2.66 4.276 4.928.045.256.081.605.081.775v.31H15.76z" fill="#a8dbf0"/></svg>