<svg xmlns="http://www.w3.org/2000/svg" height="32" width="32" version="1"><rect width="28.203" height="28.203" x="1.898" y="1.898" ry="5.575" fill="#7e8687" fill-rule="evenodd"/><path d="M8.537 23.463h2.634c.73 0 1.317.587 1.317 1.317s-.587 1.317-1.317 1.317H8.537c-.73 0-1.317-.588-1.317-1.317 0-.73.588-1.317 1.317-1.317z" fill="#92e763"/><path d="M20.829 23.463h2.634c.73 0 1.317.587 1.317 1.317s-.588 1.317-1.317 1.317h-2.634c-.73 0-1.317-.588-1.317-1.317 0-.73.587-1.317 1.317-1.317z" fill="#e76363"/><path d="M17.165 5.903l-2.468.225v9.618l2.442-.35v-4.1l3.285 4.55 2.573-.774-3.364-4.374 3.39-4.126-2.626-.569-3.258 4.126.026-4.225zM11.57 8.248c-.028.005-.058.01-.079.03l-.97.918a.113.113 0 0 0-.016.145l1.134 1.77c-.202.32-.365.664-.48 1.028l-2.083.41a.124.124 0 0 0-.1.119v1.297c0 .055.044.102.1.115l2.02.464c.108.421.274.824.495 1.192l-1.17 1.686a.115.115 0 0 0 .015.15l.97.917a.13.13 0 0 0 .154.015l1.835-1.052c.36.196.75.354 1.16.459l.427 1.945a.124.124 0 0 0 .122.096h1.37a.123.123 0 0 0 .122-.09l.506-1.956a4.972 4.972 0 0 0 1.192-.473l1.809 1.122c.05.03.116.025.158-.015l.965-.918a.113.113 0 0 0 .021-.144l-.659-1.028-.216.065a.08.08 0 0 1-.085-.03s-.416-.58-.96-1.332c-.65 1.203-1.974 2.025-3.5 2.025-2.17 0-3.93-1.665-3.93-3.716 0-1.51.955-2.806 2.321-3.388v-.957a4.984 4.984 0 0 0-.717.299v-.005l-1.85-1.146a.12.12 0 0 0-.08-.015z" fill="#fff"/></svg>