<svg xmlns="http://www.w3.org/2000/svg" height="32" width="32" version="1"><rect width="28.203" height="28.203" x="1.898" y="1.898" ry="5.575" fill="#4f4f4f" fill-rule="evenodd"/><path d="M15.625 7.004l.03 18.742h1.47V7.004z" fill="#f38577"/><path d="M12.626 10.003v1.499h1.5v-1.5zm-1.499 2.249v1.499h2.999v-1.5zM8.128 14.5V16h5.998v-1.5zM6.63 16.75v1.499h7.497v-1.5zm1.5 2.249v1.499h5.997v-1.5zm2.998 2.249v1.5h2.999v-1.5z" fill="#83b9f5" fill-rule="evenodd"/><path d="M19.374 6.254h-5.998l1.5 2.25 1.499 2.248 1.5-2.249z" fill="#d85656"/><path d="M19.207 12.027c-.276.015-.574.258-.573.527l-.01 7.942c0 .358.528.67.83.457l5.69-3.984c.303-.21.302-.704 0-.916l-5.68-3.957a.406.406 0 0 0-.257-.069z" fill="#527eb2"/></svg>