<svg xmlns="http://www.w3.org/2000/svg" height="32" width="32" version="1"><rect width="28.203" height="28.203" x="1.898" y="1.898" ry="5.575" fill="#6eaa36" fill-rule="evenodd"/><path d="M13.84 5.449a.543.543 0 0 0-.462.428l-.444 2.26a8.496 8.496 0 0 0-2.21 1.269l-2.193-.742a.543.543 0 0 0-.625.23l-2.111 3.66a.545.545 0 0 0 .116.66l1.747 1.534c-.061.41-.098.824-.098 1.252 0 .428.037.842.098 1.253l-1.747 1.533a.545.545 0 0 0-.116.66l2.11 3.66c.123.207.398.31.626.23l2.193-.741c.66.527 1.41.958 2.21 1.27l.444 2.258c.046.236.27.425.511.428h4.22a.545.545 0 0 0 .513-.428l.444-2.258a8.518 8.518 0 0 0 2.21-1.27l2.192.741a.545.545 0 0 0 .627-.23l2.11-3.66a.545.545 0 0 0-.116-.66l-1.747-1.533c.062-.411.098-.825.098-1.253 0-.428-.037-.842-.098-1.252l1.747-1.534a.546.546 0 0 0 .117-.66l-2.111-3.66a.546.546 0 0 0-.627-.23l-2.192.742a8.506 8.506 0 0 0-2.21-1.27l-.444-2.259a.545.545 0 0 0-.513-.428H13.84z" fill="#f2f2f2"/><path d="M14.762 11.101v3.392l3.015-3.392 3.014.377-4.522 4.899 4.522 4.522-3.014.377-3.015-3.015V20.9l-2.26.377v-9.798z" fill="#6eaa36"/></svg>