<svg xmlns="http://www.w3.org/2000/svg" height="32" width="32"><rect width="28.203" height="28.203" x="1.898" y="1.898" ry="5.575" fill="#4ea71e" fill-rule="evenodd"/><g fill="#fff"><path d="M16 7.637a4.562 4.562 0 0 0-4.562 4.561A4.562 4.562 0 0 0 16 16.76a4.562 4.562 0 0 0 4.562-4.562A4.562 4.562 0 0 0 16 7.637zm0 .76a2.28 2.28 0 0 1 2.28 2.28A2.28 2.28 0 0 1 16 12.96a2.28 2.28 0 0 1-2.28-2.281A2.28 2.28 0 0 1 16 8.397z"/><path d="M13.72 15.24v7.552L16 24.363l2.28-1.57v-.66l.761-.76-.76-.76v-.811l1.52-1.14-1.52-1.141V15.24zm.76 2.28h.76v4.562h-.76z"/></g></svg>