<svg xmlns="http://www.w3.org/2000/svg" height="32" width="32" version="1"><rect width="28.203" height="28.203" x="1.898" y="1.898" ry="5.575" fill="#2a88ae" fill-rule="evenodd"/><g transform="rotate(45 16.863 16.969)" fill="#fff"><path d="M12 12a4 5 0 0 0-4 5 4 5 0 0 0 4 5 4 5 0 0 0 4-5 4 5 0 0 0-4-5zm0 1a2 2 0 0 1 2 2 2 2 0 0 1-2 2 2 2 0 0 1 2 2 2 2 0 0 1-2 2 2 2 0 0 1-2-2 2 2 0 0 1 2-2 2 2 0 0 1-2-2 2 2 0 0 1 2-2z"/><rect rx="1.375" ry="1" height="2" width="11" y="16" x="14"/><rect rx=".375" ry=".5" height="1" width="3" y="14" x="20"/><rect transform="rotate(90)" rx=".438" ry=".5" height="1" width="3.5" y="-22" x="14.5"/></g></svg>