<svg xmlns="http://www.w3.org/2000/svg" height="32" width="32" version="1"><rect width="28.203" height="28.203" x="1.898" y="1.898" ry="5.575" fill="#69c276" fill-rule="evenodd"/><path d="M16 8.579c-2.595 0-4.811.853-5.73 2.062a2.504 2.504 0 0 0-.203.31c-.056.101-.103.203-.14.308a6.185 3.299 0 0 0-.026.097c-.021.07-.044.142-.057.214a6.185 3.299 0 0 0-.03.308c.001.107.012.214.032.32a6.185 3.299 0 0 0 .084.31 6.185 3.299 0 0 0 .144.307 6.185 3.299 0 0 0 .196.3A6.185 3.299 0 0 0 16 15.176a6.185 3.299 0 0 0 5.73-2.061 6.185 3.299 0 0 0 .001-.004 6.185 3.299 0 0 0 .168-.254c.01-.017.022-.033.03-.05a6.185 3.299 0 0 0 .103-.22c.014-.034.032-.067.045-.102a6.185 3.299 0 0 0 .05-.184c.011-.048.025-.096.032-.145a6.185 3.299 0 0 0 .026-.278 6.185 3.299 0 0 0-.033-.329 2.119 2.119 0 0 0-.42-.91c-.92-1.209-3.136-2.063-5.73-2.063zm-5.73 6.185A6.185 3.299 0 0 0 9.815 16 6.185 3.299 0 0 0 16 19.3a6.185 3.299 0 0 0 6.185-3.3 6.185 3.299 0 0 0-.455-1.236A6.185 3.299 0 0 1 16 16.826a6.185 3.299 0 0 1-5.73-2.062zm0 4.123a6.185 3.299 0 0 0-.455 1.237 6.185 3.299 0 0 0 6.185 3.3 6.185 3.299 0 0 0 6.185-3.3 6.185 3.299 0 0 0-.455-1.236A6.185 3.299 0 0 1 16 20.95a6.185 3.299 0 0 1-5.73-2.062z" fill="#fff"/></svg>