<svg xmlns="http://www.w3.org/2000/svg" height="32" width="32" version="1"><rect width="28.203" height="28.203" x="1.898" y="1.898" ry="5.575" fill="#2d96d0" fill-rule="evenodd"/><g transform="translate(.5 2.116)"><path d="M15.5 11A10.5 10.5 0 0 0 5 21.5 10.5 10.5 0 0 0 7.283 28H23.72A10.5 10.5 0 0 0 26 21.5 10.5 10.5 0 0 0 15.5 11z" fill="#f4deb9"/><path d="M15.5 11a10.49 10.49 0 0 0-8.869 4.884 5.506 5.506 0 0 0-.685 1.122 10.452 10.452 0 0 0-.63 1.966c-.102.414-.189.833-.24 1.265-.005.038.007.046.025.04-.02.167-.044.324-.06.498-.049.558-.054.787-.016.787L11 14.5l-1.052 5.901c.01.01.207-.072.44-.18 1.433-.659 2.723-.952 4.301-1.14.545-.065 2.433-.073 3-.014 1.15.12 2.198.384 3.489.74.572.157.852.194 1.32.177.47-.017.745-.08 1.092-.246.864-.415 1.317-1.768 1.19-2.741-.011-.092-.036-.18-.054-.268.037-.092.001-.247-.145-.502a4.906 4.906 0 0 0-.676-1.198c-2.164-2.378-4.99-4.075-8.405-4.029z" fill="#ff8e49"/><circle cy="22.5" cx="11.5" r="1.5" fill="#252524"/><circle r="1.5" cy="22.5" cx="20.5" fill="#252524"/><path d="M13.337 5c-.046 0-.347.51-.634 1.072-.42.823-.62 1.457-.688 2.189-.017.18-.015.357-.003.532a2.935 2.935 0 0 0-.012.236C12 10.67 13.343 12 15 12s3-1.33 3-2.97c0-.076-.003-.152-.009-.227.003-.075.01-.15.006-.225-.053-1.017-.647-1.714-1.544-2.173-.475-.243-1.202-.357-1.676-.358-.591-.001-1.04-.51-1.33-.927-.046-.066-.096-.12-.11-.12z" fill="#ff8e49"/></g></svg>