<svg xmlns="http://www.w3.org/2000/svg" height="32" width="32"><rect width="28.203" height="28.203" x="1.898" y="1.898" ry="5.575" fill="#dea71e" fill-rule="evenodd"/><path d="M12.268 25.414c-.082-.044-.58-.512-1.106-1.04l-.956-.96-.321.313a3.121 3.121 0 0 1-.556.434c-.212.111-.273.123-.66.123-.397 0-.447-.009-.712-.14a1.596 1.596 0 0 1-.765-.817c-.129-.33-.126-.825.006-1.172.093-.244.263-.421 4.037-4.2l3.94-3.946-.152-.356a5.151 5.151 0 0 1 .47-4.887c.3-.45.9-1.058 1.343-1.36 2.333-1.593 5.549-1.015 7.136 1.284a5.146 5.146 0 0 1-2.292 7.725c-1.212.5-2.739.483-3.952-.043l-.34-.147-1.644 1.645-1.645 1.645.963.958c.606.603.992 1.021 1.042 1.129a.8.8 0 0 1 .017.65c-.081.196-2.903 3.042-3.138 3.164a.846.846 0 0 1-.715-.002zm7.985-11.855a1.973 1.973 0 0 0 1.385-1.308c.077-.228.09-.347.077-.704-.014-.394-.029-.456-.174-.751-.558-1.13-1.93-1.479-2.947-.75-.78.558-1.041 1.671-.59 2.518.242.453.753.86 1.248.995.257.07.74.07 1.001 0z" fill="#fff"/></svg>