<svg xmlns="http://www.w3.org/2000/svg" width="32" height="32" version="1"><rect width="28.203" height="28.203" x="1.898" y="1.898" ry="5.575" fill="#e6e6e6" fill-rule="evenodd"/><path d="M8.6 18.815a2.011 2.011 0 0 1-.985-.519 1.879 1.879 0 0 1-.536-.927l-.043-.191.006-4.586.006-4.585.069-.198c.128-.368.33-.659.618-.89a2.042 2.042 0 0 1 1.134-.446c.161-.014 1.44-.019 3.827-.014 3.896.009 3.64 0 3.981.12a1.96 1.96 0 0 1 1.266 1.358c.045.173.046.187.053 2.211l.007 2.038H16V8.37H9.017v8.588h3.981V18.856l-2.11-.002c-1.952-.001-2.123-.004-2.287-.039z" fill="#8400ff"/><path d="M15.797 25.524a1.98 1.98 0 0 1-1.74-1.472l-.048-.184v-4.533c0-4.232.003-4.543.037-4.674.097-.379.262-.674.517-.93.247-.246.508-.4.89-.519l.182-.057 3.778-.006c3.641-.005 3.785-.004 3.971.034.423.087.78.285 1.07.593.182.193.268.325.373.57.145.337.136.001.136 4.997 0 3.873-.005 4.533-.03 4.657-.177.84-.889 1.445-1.792 1.525-.278.025-7.088.024-7.344-.001zm7.186-6.19v-4.293H16v8.588H22.983zM9.674 24.648c-.894-.858-1.633-1.56-1.641-1.56-.009-.001-.016.552-.016 1.229v1.23h-1.98V19.813h5.982l-.005.954-.005.954-1.278.01-1.278.01 1.622 1.552c.892.853 1.624 1.557 1.627 1.564a46.12 46.12 0 0 1-1.36 1.316c-.04.032-.097-.02-1.668-1.526z" fill="#00b471"/><path d="M22.326 7.352c.894.858 1.633 1.56 1.641 1.56.009.001.016-.552.016-1.229v-1.23h1.98V12.187h-5.982l.005-.954.005-.954 1.278-.01 1.278-.01-1.622-1.552a220.113 220.113 0 0 1-1.627-1.564 46.12 46.12 0 0 1 1.36-1.316c.04-.032.097.02 1.668 1.526z" fill="#8400ff"/></svg>