<svg xmlns="http://www.w3.org/2000/svg" width="32" height="32" version="1"><g transform="translate(45.424 1.898)"><rect ry="5.575" x="-43.525" height="28.203" width="28.203" fill="#5b5b5b" fill-rule="evenodd"/><path d="M-35.985 0a1.32 1.32 0 0 0-.184.666v8c0 .739.595 1.334 1.334 1.334h13.332c.739 0 1.334-.595 1.334-1.334v-8c0-.245-.07-.47-.184-.666zm9.53 2h3.571c.396 0 .715.297.715.666v4.668c0 .369-.319.666-.715.666h-3.57c-.396 0-.715-.297-.715-.666V2.666c0-.37.319-.666.715-.666z" fill="#b7b7b7"/></g><path d="M7.25 14.407c-.693 0-1.25.595-1.25 1.334v7.666h20V15.74c0-.74-.558-1.334-1.25-1.334zm-.885 11.609zm19.27 0z" fill="#fff"/><path d="M26 23.407v1.667c0 .738-.558 1.333-1.25 1.333H7.25c-.693 0-1.25-.595-1.25-1.333v-1.667z" fill="#ffae3f"/></svg>