<svg xmlns="http://www.w3.org/2000/svg" height="32" width="32" version="1"><path d="M30.102 13.678c-.025-.001-.039-.026-.063-.026l-12.63.008-2.065-2.514a3.43 3.43 0 0 0-1.17-.939 3.344 3.344 0 0 0-1.463-.316H2.3c-.157 0-.256.13-.403.166v14.468a5.565 5.565 0 0 0 5.577 5.577h17.052a5.563 5.563 0 0 0 5.575-5.577z" fill="#2a88ae" fill-rule="evenodd"/><path d="M7.475 1.898a5.563 5.563 0 0 0-5.577 5.575v2.584c.147-.035.246-.166.403-.166h10.41c.537 0 1.024.106 1.463.316.439.21.829.524 1.17.94l2.064 2.513 12.631-.008c.024 0 .038.025.063.026V7.473a5.561 5.561 0 0 0-5.575-5.575z" fill="#a8dbf0" fill-rule="evenodd"/><g stroke-width=".48" fill="#fff"><path d="M22.515 16A6.515 6.515 0 0 0 16 9.485 6.515 6.515 0 0 0 9.485 16 6.515 6.515 0 0 0 16 22.515 6.515 6.515 0 0 0 22.515 16zm-1.303 0A5.212 5.212 0 0 1 16 21.212 5.212 5.212 0 0 1 10.788 16 5.212 5.212 0 0 1 16 10.788 5.212 5.212 0 0 1 21.212 16z"/><path d="M21.863 19.909l-1.628-2.606-1.63-2.606h6.516l-1.629 2.606zM10.137 12.091l-1.63 2.606-1.628 2.606h6.515l-1.629-2.606z"/></g></svg>