<svg xmlns="http://www.w3.org/2000/svg" height="32" width="32"><rect width="28.203" height="28.203" x="1.898" y="1.898" ry="5.575" fill="#90caf9" fill-rule="evenodd"/><rect ry="10.936" height="21.872" width="21.872" y="5.064" x="5.064" fill="#2095f2"/><path d="M16 5.064c-1.38 0-2.692.263-3.906.725-.088.081-.203.143-.293.136-.013-.001-.025-.01-.038-.014-.598.25-1.165.557-1.703.904.07.114.09.24-.054.301-.024.01-.328.041-.434.039a10.912 10.912 0 0 0-3.542 4.352c.013-.002.024-.008.037-.009.119-.001.29.033.404.057.106.022.191.093.282.1.26.02.322-.182.533-.295.219.03.364-.037.561-.015.134.015.232.158.336.166.089.01.166-.082.251-.07.083.014.226.194.24.296.017.126-.093.24-.057.378.132.134.372.161.56.239.124-.101.017-.29 0-.436 0-.064.01-.122 0-.181-.011-.101-.055-.193-.055-.28-.002-.399.322-.586.59-.743.115-.069.206-.19.307-.24.142-.07.248-.087.365-.153.212-.12.395-.215.56-.35.078-.182.009-.424.015-.603.076-.047.142.02.224.014.128-.027.139-.208.211-.28.043-.041.158-.071.21-.112.128-.1.17-.252.282-.295.04-.016.132-.012.195-.029.083-.022.201-.12.336-.166.089-.031.29-.037.324-.07.041-.043 0-.162.014-.225.068-.317.545-.384.827-.49.197-.075.4-.212.617-.17-.043.15-.245.097-.21.28.047.253.386-.073.476-.11.17-.072.464-.116.689-.198.196-.072.55-.182.364-.407-.155-.009-.23.182-.364.24-.093.014-.076-.078-.155-.086-.076-.009-.118.07-.196.057-.077-.013-.185-.134-.197-.225-.031-.234.198-.33.295-.505-.065-.211-.357-.043-.534-.126.017-.126.147-.213.294-.237.121-.02.392-.01.464.055.041.035.002.124.07.182.072.065.16.058.252.043.034-.16-.207-.12-.181-.225.19-.124.497-.023.73-.057.133-.02.273-.114.391-.18.113-.065.259-.176.378-.07.033.114-.104.152-.167.208-.215.191-.436.41-.603.632.103.1.288.05.462.07.067.009.152.029.224.042.083.015.173.01.238.028.118.028.15.154.266.154.192 0 .194-.207.085-.337.035-.132.089-.201.042-.294-.086-.173-.403-.009-.42-.224-.01-.14.118-.134.169-.238-.024-.27.22-.29.195-.532-.012-.101-.097-.103-.168-.198-.035-.046-.054-.136-.095-.176-.327-.03-.658-.047-.993-.047zM10.357 7.27c.066.01.145.08.224.086.075.001.136-.042.182-.03.118.032.167.209.057.296-.092.011-.127-.04-.196-.028-.19.032-.264.405-.406.393-.135-.012-.207-.338-.07-.436.008-.085-.063-.098-.058-.182.04-.052.155-.108.267-.099zm-.631.044c.039 0 .068.01.083.028-.019.15-.136.14-.251.21-.2.12-.315.303-.378.56-.018.075-.215.273-.31.253-.222-.047.062-.457.112-.52.056-.068.132-.129.198-.208.064-.078.106-.182.168-.225a.826.826 0 0 1 .378-.098zm1.66.504c.07.001.134.013.164.042-.046.185-.445.136-.59.07.009-.07.118-.09.21-.099.064-.002.144-.015.215-.013zm-.909.342c.048 0 .096.01.146.022-.129.108-.269.17-.49.24-.107.033-.29.075-.309-.044-.022-.146.156-.112.253-.125.123-.017.257-.088.4-.093zm13.927.83a.276.276 0 0 0-.027.118c.01.068.083.133.1.225.009.048-.023.153 0 .197.067.131.244.037.37.044a10.603 10.603 0 0 0-.443-.583zm.717.965c-.02.097-.086.223-.14.304-.122.185-.288.194-.463.293-.146.083-.209.221-.295.366-.092.155-.15.25-.112.475-.125.248-.315.4-.574.519-.077.034-.182.047-.252.098-.056.04-.088.149-.168.238-.098.11-.201.156-.253.24-.04.064-.054.193-.098.28-.06.117-.188.175-.266.294-.036.055-.06.167-.1.24-.088.16-.24.277-.224.419.016.137.172.161.183.28.001.069-.045.11-.042.183.002.108.075.184.083.266.021.209-.07.292-.11.434-.018.068-.01.144-.028.198-.035.104-.18.198-.183.321 0 .088.09.158.097.28.002.086-.042.176-.027.254.03.153.303.33.421.449.159.158.366.281.435.448.057.142.057.327.168.434.081.079.217.128.322.21.098.077.204.143.309.224.17.134.428.4.7.38.142-.01.288-.127.449-.155.166-.03.38-.045.548-.028.128.013.26.09.393.083.14-.009.301-.113.461-.182.129-.056.286-.118.46-.164.079-.533.121-1.08.121-1.636 0-2.24-.67-4.315-1.815-6.045zM7.033 13.63c-.233.013-.386.024-.518.084-.304.138-.245.548-.548.645-.105.033-.249.035-.364.056-.1.018-.221.073-.324.07-.029 0-.069-.021-.104-.032-.027.192-.05.386-.067.582.289.055.438.437.692.563.07.035.161.037.251.057.073.016.128.047.198.07.148.051.33.045.449.098.178.08.31.415.463.505.009.09-.018.212.014.28.072.098.175.077.295.14.143.078.187.277.322.338.047.021.164.018.238.04.186.057.247.272.406.225.105-.03.096-.138.113-.238.07-.075.145-.193.252-.196.175-.009.19.18.254.35.035.095.129.179.153.28.044.174.022.695-.015.8-.043.127-.217.181-.323.323-.05.066-.074.164-.112.21-.069.084-.171.106-.222.183-.03.043-.058.137-.086.195-.084.179-.197.305-.126.52.03.088.167.147.168.25 0 .123-.26.232-.28.366-.015.1.08.277.112.407.023.098.208.159.266.224.098.11.177.267.267.406.178.273.317.606.49.87.092.139.22.263.281.407.031.073.027.16.056.224.1.226.542.463.77.575.108.052.226.07.324.125.149.083.443.305.518.436.067.117.109.402.141.588.044.246 0 .435.014.702.01.144.055.289.057.433 0 .05-.027.089-.029.14l.002.027c1.378.623 2.904.978 4.519.978.292 0 .58-.015.866-.037.013-.022.024-.044.04-.064.065-.087.124-.162.167-.238.042-.256-.102-.435-.041-.66.067-.251.415-.405.659-.518.084-.04.17-.103.238-.126.169-.06.38-.028.534-.084.262-.096.29-.378.42-.617.06-.113.141-.227.153-.308.01-.072-.026-.14-.015-.226.013-.085.089-.158.112-.251.031-.121.044-.3.044-.435 0-.11-.052-.208-.056-.308-.019-.364.131-.405.266-.603.067-.098.092-.21.14-.28.225-.338.617-.5.589-1.01-.01-.168-.115-.55-.24-.603-.07-.031-.233-.002-.336-.042-.331-.124-.526-.534-.869-.56-.073-.01-.14.03-.223.028-.136-.009-.34-.095-.491-.112-.096-.01-.224.029-.281 0-.088-.042-.097-.204-.168-.252-.056-.039-.166-.052-.252-.085-.138-.053-.248-.115-.407-.126-.05-.002-.11.023-.168.015-.088-.015-.157-.12-.239-.17-.102-.061-.196-.091-.238-.18.092-.302-.162-.386-.224-.56-.03-.082-.016-.18-.042-.254-.036-.104-.14-.164-.253-.252-.203-.156-.383-.302-.673-.338-.127-.016-.254.038-.408.029-.163-.01-.368-.153-.49-.293-.119-.136-.176-.258-.28-.324-.098-.062-.228-.06-.295-.124-.03-.028-.024-.076-.056-.141-.05-.102-.132-.16-.07-.281-.112-.058-.116.106-.238.085-.109-.155-.2-.228-.448-.183-.114.021-.177.165-.309.168-.108.01-.193-.12-.336-.14-.108-.016-.231.029-.308.014-.12-.024-.157-.123-.266-.195-.08-.053-.236-.143-.28-.141-.142.009-.242.3-.437.196-.094-.12.154-.183.042-.295-.085-.085-.156.039-.224.086-.078.054-.151.107-.237.139-.193.072-.313.034-.464.112-.14.072-.145.193-.224.336-.065.118-.212.289-.309.296-.117.01-.23-.163-.336-.21-.32-.138-.477.124-.743.127-.248.01-.601-.399-.589-.632.002-.142.082-.357.099-.533.014-.14.11-.223.112-.35.001-.171-.226-.302-.337-.322-.262-.049-.625.105-.926-.015-.057-.095.067-.161.1-.253.018-.053.008-.123.026-.18.034-.09.127-.16.17-.254.03-.072.038-.176.07-.266.036-.102.104-.168.112-.24a.314.314 0 0 0-.1-.265zm3.748 2.968c.096.01.107.205.01.221-.105.016-.158-.164-.057-.211a.084.084 0 0 1 .047-.009z" fill="#bee5e4"/></svg>