<svg xmlns="http://www.w3.org/2000/svg" height="32" width="32" version="1"><rect width="28.203" height="28.203" x="1.898" y="1.898" ry="5.575" fill="#4e91d9" fill-rule="evenodd"/><path fill="#fff" d="M6 19h4v1H6z"/><path d="M21.5 7l.334.867.869-.273-.453.809.75.526-.899.141.066.93-.667-.633-.668.633.066-.93L20 8.93l.75-.527-.453-.809.869.273z" fill="#ffeb5d"/><path fill="#742424" d="M23 24h-4v-1h4z"/><path fill="#ad3131" d="M19 24h-4v-1h4z"/><path fill="#742424" d="M15 24h-4v-1h4z"/><path fill="#ad3131" d="M11 24H7v-1h4z"/><path fill="#742424" d="M7 24H3v-1h4zM29 24h-2v-1h2z"/><path fill="#ad3131" d="M21 25h-4v-1h4z"/><path fill="#742424" d="M17 25h-4v-1h4z"/><path fill="#ad3131" d="M13 25H9v-1h4z"/><path fill="#742424" d="M9 25H5v-1h4z"/><path d="M5 25H3v-1h2zM27 24h-4v-1h4zM29 25h-4v-1h4z" fill="#ad3131"/><path fill="#742424" d="M25 25h-4v-1h4zM11 12h2v1h-2z"/><path d="M13 12h4v1h-4z" fill="#ad3131"/><path d="M17 12h4v1h-4z" fill="#742424"/><path d="M21 12h4v1h-4z" fill="#ad3131"/><path d="M25 12h4v1h-4zM3 12h2v1H3z" fill="#742424"/><path d="M11 11h4v1h-4z" fill="#ad3131"/><path d="M15 11h4v1h-4z" fill="#742424"/><path d="M19 11h4v1h-4z" fill="#ad3131"/><path d="M23 11h4v1h-4z" fill="#742424"/><path d="M27 11h2v1h-2zM3 11h2v1H3z" fill="#ad3131"/><path fill="#fff" d="M6 10h1v12H6zM9 10h1v12H9z"/><path fill="#fff" d="M6 15h4v1H6zM6 11h4v1H6z"/></svg>