<svg xmlns="http://www.w3.org/2000/svg" height="32" width="32" version="1"><text style="line-height:1.25" x="-53.831" y="24.678" font-weight="400" font-size="40" font-family="sans-serif" letter-spacing="0" word-spacing="0"/><rect ry="5.575" y="1.898" x="1.898" height="28.203" width="28.203" style="line-height:1.25" font-weight="400" font-family="sans-serif" letter-spacing="0" word-spacing="0" fill="#46729d" fill-rule="evenodd"/><g style="line-height:1.25"><path style="-inkscape-font-specification:'Blue Highway'" d="M6.104 8.324v15.367h3.134V20.28l2.553-3.023 3.826 6.435h3.885l-5.797-8.82 5.38-6.547h-3.523L9.239 16.59V8.324H6.104zm15.798 5.25v10.178h3.657V13.574h-3.657z" font-family="Blue Highway" aria-label="K" font-weight="400" font-size="27.738" letter-spacing="0" word-spacing="0" fill="#fff" stroke-width=".693"/></g><path style="line-height:1.25;-inkscape-font-specification:'Blue Highway'" d="M23.849 12.305c-.56 0-1.048-.195-1.462-.585a1.94 1.94 0 0 1-.585-1.425c0-.585.195-1.072.585-1.462.39-.39.877-.585 1.462-.585s1.072.195 1.462.585c.39.39.585.877.585 1.462 0 .56-.207 1.036-.621 1.425a1.94 1.94 0 0 1-1.426.585z" font-weight="400" font-size="36.551" font-family="Blue Highway" letter-spacing="0" word-spacing="0" fill="#ff8b00"/></svg>