<svg xmlns="http://www.w3.org/2000/svg" height="32" width="32" version="1"><rect width="28.203" height="28.203" x="1.898" y="1.898" ry="5.575" fill="#1da6e8" fill-rule="evenodd"/><rect ry="9.688" rx="9.688" transform="matrix(0 -1 -1 0 0 0)" height="19.376" width="19.376" y="-25.688" x="-25.688" fill="#fff"/><path d="M9.426 11.156v9.688h2.076v-2.906l2.768 2.906h2.076L12.886 16l3.46-4.844H14.27l-2.768 2.906v-2.906zm7.612 2.076v3.46h5.536v-3.46H21.19v2.076h-.692v-2.076h-1.384v2.076h-.692v-2.076zm0 4.152v1.384h5.536v-1.384zm0 2.076v1.384h1.384V19.46zm2.076 0v1.384h3.46V19.46z" fill="#1da6e8" stroke-width="1.445"/></svg>