<svg xmlns="http://www.w3.org/2000/svg" height="32" width="32" version="1"><rect width="28.203" height="28.203" x="1.898" y="1.898" ry="5.575" fill="#333" fill-rule="evenodd"/><path d="M22.866 25.905a.59.59 0 0 0 .31-.314c.05-.112.05-.14.05-4.453l.001-4.341h-.135a2.13 2.13 0 0 1-.575-.108 2.179 2.179 0 0 1-1.45-1.879l-.014-.18H8.405V25.5l.052.107a.73.73 0 0 0 .366.328c.074.022 1.784.03 7.008.03l6.91-.001.125-.059zm-4.371-8.784a448.576 448.576 0 0 0-1.057-1.65l-.046-.07 1.267.002h1.267l.103.168c.185.3.56.906.822 1.327.141.227.264.432.273.455.015.04-.067.042-1.223.036l-1.239-.007zm-4.56-.703c-.322-.537-.59-.985-.594-.996-.004-.011.56-.018 1.256-.014l1.264.006.125.2.278.448.481.778c.181.29.329.535.329.542 0 .007-.575.013-1.277.012H14.52zm-4.086.002a87.714 87.714 0 0 1-.593-.997c-.005-.012.55-.021 1.249-.021h1.257l.1.156c.054.085.248.396.43.69.182.295.413.669.514.83.1.161.182.299.182.305 0 .006-.574.012-1.276.012h-1.277l-.586-.975zm13.696-.284c.282-.061.518-.195.742-.42.228-.23.337-.417.41-.703a1.531 1.531 0 0 0-1.113-1.863 2.08 2.08 0 0 0-.78-.003c-.54.143-.98.597-1.109 1.139-.256 1.09.745 2.09 1.85 1.85zm-2.298-2.46a2.176 2.176 0 0 1 2.56-1.11c.106.029.2.047.207.04.008-.008.077-.164.155-.347.133-.311.142-.345.142-.532 0-.171-.01-.215-.067-.313-.122-.208.269-.038-4.754-2.054L16.924 8.33c-.24-.098-1.467-.59-2.727-1.096L11.56 6.174c-.478-.193-.658-.186-.892.034-.132.124-.15.166-.695 1.521-.134.336-.312.773-.394.972-.082.198-.142.368-.133.376.01.009.623.26 1.363.557a2946.428 2946.428 0 0 1 5.032 2.03l4.557 1.842c.41.166.753.301.763.301.01 0 .049-.058.086-.13zm-2.124-1.526a24.817 24.817 0 0 1-1.002-.41c.001-.007.159-.125.351-.262.192-.137.465-.333.605-.436.586-.428.913-.66.933-.66.011 0 .538.207 1.171.46.931.372 1.144.465 1.118.49a52.03 52.03 0 0 1-.936.69l-.904.658-.167-.066-1.169-.464zm-3.083-1.257l-1.142-.454c-.461-.183-.562-.231-.535-.256a64.646 64.646 0 0 1 1.84-1.326c.037-.01 2.28.871 2.321.911.01.01-.174.157-.41.328l-1.262.915c-.102.073-.197.128-.212.121l-.6-.24zm-4.328-1.746a41.294 41.294 0 0 1-1.146-.468c-.014-.014 1.675-1.276 1.817-1.358.016-.01.552.192 1.19.448l1.159.464-.156.116-.579.425c-.233.17-.58.425-.77.567-.191.14-.357.256-.368.256-.01 0-.527-.202-1.147-.45z" fill="#fff"/></svg>