<svg xmlns="http://www.w3.org/2000/svg" height="32" width="32" version="1"><rect width="28.203" height="28.203" x="1.898" y="1.898" ry="5.575" fill="#6ec95b" fill-rule="evenodd"/><path d="M16 6.29A9.669 9.669 0 0 0 6.29 16 9.669 9.669 0 0 0 16 25.71c.863 0 1.618-.756 1.618-1.619 0-.431-.108-.755-.431-1.079-.216-.323-.432-.647-.432-1.078 0-.864.755-1.619 1.618-1.619h1.942c3.02 0 5.394-2.373 5.394-5.394 0-4.747-4.315-8.63-9.71-8.63z" fill="#fff"/><path d="M9.278 16c-.796 0-1.493-.697-1.493-1.494s.697-1.493 1.493-1.493c.797 0 1.494.696 1.494 1.493 0 .797-.697 1.494-1.494 1.494z" fill="#fd8e08"/><path d="M13.013 11.519c-.797 0-1.494-.697-1.494-1.494 0-.796.697-1.494 1.494-1.494.796 0 1.493.698 1.493 1.494 0 .797-.697 1.494-1.493 1.494z" fill="#3f90dc"/><path d="M18.24 11.519c-.796 0-1.493-.697-1.493-1.494 0-.796.697-1.494 1.494-1.494.796 0 1.493.698 1.493 1.494 0 .797-.697 1.494-1.493 1.494z" fill="#56a913"/><path d="M21.975 16c-.797 0-1.494-.697-1.494-1.494 0-.796.697-1.493 1.494-1.493s1.494.697 1.494 1.493c0 .797-.697 1.494-1.494 1.494z" fill="#f35b5b"/></svg>