<svg xmlns="http://www.w3.org/2000/svg" height="32" width="32" version="1"><g transform="translate(40.95 -3.254)" fill-rule="evenodd"><rect ry="5.575" y="5.153" x="-39.051" height="28.203" width="28.203" fill="#98c305"/><path d="M-32.208 20.752c-1.093-.106-2.346-.095-3.865.086-.829.1-1.975.394-2.979.602v4.574c.832.312 1.804.539 2.983.646 2.603.238 5.927.06 9.426-.17 3.498-.229 7.17-.51 10.464-.478 1.648.016 3.201.11 4.592.328.285.045.47.164.74.219v-1.69c-1.255.048-2.722.174-3.783.15-2.133-.046-3.897-.223-5.398-.482a24.432 24.432 0 0 1-3.823-.968c-1.081-.37-2.007-.77-2.88-1.153-.874-.382-1.697-.745-2.575-1.039a12.855 12.855 0 0 0-2.902-.625z" fill="#98c305"/><path d="M-33.476 5.153a5.563 5.563 0 0 0-5.576 5.574V21.44c1.004-.208 2.15-.503 2.979-.602 1.52-.181 2.772-.192 3.865-.086 1.093.107 2.025.331 2.902.625.878.294 1.7.657 2.575 1.04.873.381 1.799.782 2.88 1.152 1.082.37 2.321.71 3.823.968 1.501.259 3.265.436 5.398.483 1.06.023 2.528-.103 3.783-.15V10.726a5.563 5.563 0 0 0-5.576-5.574z" fill="#a3daff"/><path d="M-18.345 9.234a3.976 3.976 0 1 1 0 7.952 3.976 3.976 0 0 1 0-7.952z" fill="#fff"/><path d="M-10.847 26.559c-11.918-6.602-16.002.573-25.222.101-1.179-.107-2.151-.334-2.983-.646v1.768a5.563 5.563 0 0 0 5.576 5.574h17.053a5.563 5.563 0 0 0 5.576-5.574z" fill="#addb1e"/></g></svg>