<svg xmlns="http://www.w3.org/2000/svg" xmlns:xlink="http://www.w3.org/1999/xlink" height="32" width="32" version="1"><defs><radialGradient xlink:href="#a" id="b" cx="-45.629" cy="27.136" fx="-45.629" fy="27.136" r="23.443" gradientTransform="matrix(1 0 0 .98887 0 .302)" gradientUnits="userSpaceOnUse"/><linearGradient id="a"><stop offset="0" stop-color="#c3d77f"/><stop offset="1" stop-color="#c3d77f" stop-opacity="0"/></linearGradient></defs><rect width="28.203" height="28.203" x="1.898" y="1.898" ry="5.575" fill="#28c66a" fill-rule="evenodd"/><g transform="matrix(.4853 0 0 .4853 37.293 2.761)" stroke-width="2.061"><path d="M-62.102 32.814c-13.776-5.112-4.856-22.806 7.119-15.865 2.041-1.46 4.185-2.859 8-3.254C-44.658-1.007-28.15 2.113-29.22 15.186c7.208.622 7.474 7.634 6.78 10.848-2.081 10.59-5.058 14.827-5.831 16.407-6.469 9.24-11.11 8.584-16.136 6.78l-12.068-5.424c-7.84-5.65-5.899-9.455-5.627-10.983z" fill="#0e6f40"/><path d="M-62.102 32.814c-13.776-5.112-4.856-22.806 7.119-15.865 2.041-1.46 4.185-2.859 8-3.254C-44.658-1.007-28.15 2.113-29.22 15.186c7.208.622 7.474 7.634 6.78 10.848-2.081 10.59-5.058 14.827-5.831 16.407-6.469 9.24-11.11 8.584-16.136 6.78l-12.068-5.424c-7.84-5.65-5.899-9.455-5.627-10.983z" fill="url(#b)"/><path d="M-59.118 37.943c5.044-3.103 6.017-7.252 17.203-7.476 6.742-1.551 9.909-5.095 14.25-9.047-5.96 22.106-14.712 27.381-31.453 16.523z" fill="#d0d873"/><path d="M-57.966 37.83c4.398-2.705 6.584-6.448 16.339-6.644 5.878-1.353 9.434-5.028 13.22-8.474-5.197 19.277-14.961 24.587-29.56 15.119z" fill="#0c0d0c"/><ellipse ry="1.085" rx=".814" cy="29.017" cx="-54.712" fill="#0e6f40"/><ellipse ry=".847" rx=".78" cy="22.746" cx="-41.254" fill="#0e6f40"/><g transform="translate(-88.407 -1.763)"><circle cx="50" cy="15.085" r="5.051" fill="#d0d873"/><ellipse cx="49.661" cy="14.847" rx="3.22" ry="3.051" fill="#0c0d0c"/><ellipse cx="48.407" cy="14.24" rx=".949" ry=".952" fill="#fff"/></g><circle r="5.051" cy="23.864" cx="-60.678" fill="#d0d873"/><ellipse ry="3.051" rx="3.22" cy="23.627" cx="-61.017" fill="#0c0d0c"/><ellipse ry=".952" rx=".949" cy="23.02" cx="-62.271" fill="#fff"/><path d="M-43.433 44.56c6.217.325 10.018-2.37 11.122-8.437-3.183 5.958-7.201 6.906-11.122 8.437z" fill="#0e6f40"/></g></svg>