<svg xmlns="http://www.w3.org/2000/svg" height="32" width="32" version="1"><rect width="28.203" height="28.203" x="1.898" y="1.898" ry="5.575" fill="#98c305" fill-rule="evenodd"/><path d="M8.741 17.498c-1.092-.106-2.345-.095-3.865.086-.829.099-1.974.394-2.979.602v4.574c.832.312 1.804.539 2.983.646 2.603.238 5.928.06 9.426-.17s7.17-.51 10.465-.478c1.647.016 3.2.11 4.591.328.285.045.47.163.74.219v-1.69c-1.255.048-2.722.174-3.783.15-2.133-.046-3.897-.223-5.398-.482a24.432 24.432 0 0 1-3.822-.969c-1.082-.37-2.007-.77-2.881-1.152-.874-.382-1.697-.745-2.574-1.039a12.855 12.855 0 0 0-2.903-.625z" fill="#98c305" fill-rule="evenodd"/><path d="M7.474 1.898a5.563 5.563 0 0 0-5.577 5.575v10.713c1.005-.208 2.15-.503 2.979-.602 1.52-.181 2.773-.192 3.865-.086 1.093.106 2.025.331 2.903.625.877.294 1.7.657 2.574 1.04.874.381 1.799.781 2.88 1.151 1.082.37 2.321.71 3.823.97 1.501.258 3.265.435 5.398.482 1.06.023 2.528-.103 3.784-.15V7.472a5.563 5.563 0 0 0-5.577-5.575z" fill="#ff766a" fill-rule="evenodd"/><path d="M22.604 5.98a3.976 3.976 0 1 1 0 7.952 3.976 3.976 0 0 1 0-7.952z" fill="#fff" fill-rule="evenodd"/><path d="M30.103 23.305c-11.918-6.602-16.002.573-25.223.101-1.179-.107-2.151-.334-2.983-.646v1.767a5.563 5.563 0 0 0 5.577 5.575h17.052a5.563 5.563 0 0 0 5.577-5.575z" fill="#addb1e" fill-rule="evenodd"/></svg>