<svg xmlns="http://www.w3.org/2000/svg" height="32" width="32" version="1"><defs><linearGradient id="f"><stop offset="0" stop-color="#710005"/><stop offset=".5" stop-color="#880012" stop-opacity=".961"/><stop offset="1" stop-color="red"/></linearGradient><linearGradient id="d"><stop offset="0" stop-color="gray"/><stop offset="1" stop-color="gray" stop-opacity="0"/></linearGradient><linearGradient id="c"><stop offset="0" stop-color="#fff"/><stop offset="1" stop-color="#fff" stop-opacity="0"/></linearGradient><linearGradient id="a"><stop offset="0" stop-color="#f5f5f5" stop-opacity=".221"/><stop offset="1" stop-color="#f5f5f5" stop-opacity=".287"/></linearGradient><linearGradient id="b"><stop offset="0" stop-color="#3771c8"/><stop offset="1" stop-color="#214478"/></linearGradient><linearGradient id="e"><stop offset="0"/><stop offset="1" stop-color="#333"/></linearGradient></defs><rect width="28.203" height="28.203" x="1.898" y="1.898" ry="5.575" fill="#333" fill-rule="evenodd"/><g stroke-width="4.628" color="#000" font-weight="400" font-family="sans-serif" fill="#afcf41"><path d="M8.898 13.678l-.144.464c-.93 3.012-.883 5.556.048 7.452.93 1.896 2.765 3.056 5.06 3.271h.007c2.328.197 4.42-.899 6.07-2.754 1.648-1.855 2.912-4.472 3.753-7.502l.228-.823-.853-.006zm.995 1.315l12.273.088c-.794 2.523-1.888 4.68-3.204 6.162-1.46 1.643-3.115 2.477-4.98 2.32-1.941-.182-3.275-1.054-4.007-2.545-.689-1.404-.791-3.455-.082-6.025z" style="line-height:normal;font-variant-ligatures:normal;font-variant-position:normal;font-variant-caps:normal;font-variant-numeric:normal;font-variant-alternates:normal;font-feature-settings:normal;text-indent:0;text-align:start;text-decoration-line:none;text-decoration-style:solid;text-decoration-color:#000;text-transform:none;text-orientation:mixed;white-space:normal;shape-padding:0;isolation:auto;mix-blend-mode:normal;solid-color:#000;solid-opacity:1" overflow="visible" fill-rule="evenodd"/><path d="M11.306 7.16c-.6 0-1.099.5-1.099 1.1 0 .6.498 1.097 1.099 1.097.6 0 1.098-.497 1.098-1.098 0-.6-.498-1.098-1.098-1.098zM19.061 7.111c-.6 0-1.098.498-1.098 1.099 0 .6.498 1.098 1.098 1.098.6 0 1.098-.498 1.098-1.098 0-.6-.498-1.099-1.098-1.099z" style="line-height:normal;font-variant-ligatures:normal;font-variant-position:normal;font-variant-caps:normal;font-variant-numeric:normal;font-variant-alternates:normal;font-feature-settings:normal;text-indent:0;text-align:start;text-decoration-line:none;text-decoration-style:solid;text-decoration-color:#000;text-transform:none;text-orientation:mixed;white-space:normal;shape-padding:0;isolation:auto;mix-blend-mode:normal;solid-color:#000;solid-opacity:1" overflow="visible"/></g></svg>