<svg xmlns="http://www.w3.org/2000/svg" xmlns:xlink="http://www.w3.org/1999/xlink" width="32" height="32"><defs><linearGradient gradientTransform="matrix(.3016 0 0 .3016 -109.33 -175.338)" gradientUnits="userSpaceOnUse" xlink:href="#c" id="i" y2="645.994" x2="458.414" y1="601.773" x1="457.262"/><linearGradient gradientTransform="matrix(.14283 0 0 .14284 -31.52 -79.055)" gradientUnits="userSpaceOnUse" xlink:href="#d" id="h" y2="614.226" x2="457.599" y1="631.218" x1="457.599"/><linearGradient id="f"><stop offset="0" stop-color="#710005"/><stop offset=".5" stop-color="#880012" stop-opacity=".961"/><stop offset="1" stop-color="red"/></linearGradient><linearGradient id="d"><stop offset="0" stop-color="gray"/><stop offset="1" stop-color="gray" stop-opacity="0"/></linearGradient><linearGradient id="c"><stop offset="0" stop-color="#fff"/><stop offset="1" stop-color="#fff" stop-opacity="0"/></linearGradient><linearGradient id="a"><stop offset="0" stop-color="#f5f5f5" stop-opacity=".221"/><stop offset="1" stop-color="#f5f5f5" stop-opacity=".287"/></linearGradient><linearGradient id="b"><stop offset="0" stop-color="#3771c8"/><stop offset="1" stop-color="#214478"/></linearGradient><linearGradient id="e"><stop offset="0"/><stop offset="1" stop-color="#333"/></linearGradient><linearGradient xlink:href="#d" id="g" gradientUnits="userSpaceOnUse" gradientTransform="matrix(.14283 0 0 .14284 -41.839 -79.055)" x1="457.599" y1="631.218" x2="457.599" y2="614.226"/></defs><rect width="28.203" height="28.203" x="1.898" y="1.898" ry="5.575" fill="#ececec" fill-rule="evenodd"/><path d="M27.118 16a11.118 11.118 0 1 1-22.236 0 11.118 11.118 0 1 1 22.236 0z" fill="#fff" stroke="gray" stroke-width=".2" stroke-linecap="round" stroke-linejoin="round" stroke-opacity=".929"/><path d="M15.458 16a4.617 4.617 0 1 1-9.234 0 4.617 4.617 0 1 1 9.234 0z" fill="#06f" stroke="url(#g)" stroke-width=".132" stroke-linecap="round" stroke-linejoin="round" stroke-opacity=".929"/><path d="M25.776 16a4.617 4.617 0 1 1-9.234 0 4.617 4.617 0 1 1 9.234 0z" fill="#ff2a7f" stroke="url(#h)" stroke-width=".132" stroke-linecap="round" stroke-linejoin="round" stroke-opacity=".929"/><path d="M25.75 15.912c0 5.382-4.542-3.106-9.924-3.106-5.381 0-9.575 8.488-9.575 3.106s4.367-9.75 9.749-9.75c5.382 0 9.75 4.368 9.75 9.75z" fill="url(#i)"/></svg>