<svg xmlns="http://www.w3.org/2000/svg" height="32" width="32" version="1"><path d="M1.898 11.13v13.395a5.565 5.565 0 0 0 5.577 5.577h17.052a5.563 5.563 0 0 0 5.575-5.577V7.473c0-.32-.129-.596-.18-.9-1.776-.098-3.604-.208-5.496-.641a24.072 24.072 0 0 1-3.54-1.09 18.39 18.39 0 0 1-3.308-1.71 15.358 15.358 0 0 1 1.637 3.108 14.44 14.44 0 0 1 .805 3.022c.15.981.193 1.933.16 2.836a16.59 16.59 0 0 1-.293 2.545c-.306 1.579-.788 2.9-1.194 3.824a12.719 12.719 0 0 1-.734 1.455s-1.087-1.078-2.305-2.875a22.11 22.11 0 0 1-1.804-3.193c-.555-1.215-1.023-2.564-1.284-4.004-.414-2.295-.439-4.093-.261-5.496-.43.68-1.022 1.394-1.832 2.115-.81.72-1.84 1.447-3.145 2.146a50.689 50.689 0 0 1-5.43 2.516z" fill="#8a1c13" fill-rule="evenodd"/><path d="M1.898 11.13a50.689 50.689 0 0 0 5.43-2.515c1.306-.7 2.334-1.426 3.145-2.146.81-.721 1.402-1.435 1.832-2.115-.178 1.403-.153 3.201.261 5.496.261 1.44.73 2.79 1.284 4.004a22.11 22.11 0 0 0 1.804 3.193c1.218 1.797 2.305 2.875 2.305 2.875s.329-.53.734-1.455c.406-.925.888-2.245 1.194-3.824.152-.79.26-1.643.293-2.545.033-.903-.01-1.855-.16-2.836a14.44 14.44 0 0 0-.805-3.022 15.358 15.358 0 0 0-1.637-3.107 18.39 18.39 0 0 0 3.309 1.709c1.153.46 2.343.816 3.539 1.09 1.892.433 3.72.543 5.496.64-.444-2.639-2.626-4.674-5.395-4.674H7.475a5.563 5.563 0 0 0-5.577 5.575z" fill="#50b344" fill-rule="evenodd"/></svg>