<svg xmlns="http://www.w3.org/2000/svg" width="32" height="32" version="1"><g transform="translate(57.356 -1.356)" fill-rule="evenodd"><rect ry="5.575" y="3.254" x="-55.458" height="28.203" width="28.203" fill="#98c305"/><path d="M-48.615 18.854c-1.092-.106-2.345-.095-3.865.086-.829.099-1.974.394-2.978.601v4.575c.831.312 1.803.538 2.982.646 2.603.238 5.928.06 9.426-.17s7.17-.51 10.465-.478c1.647.016 3.2.11 4.591.328.285.045.47.163.74.219v-1.69c-1.255.048-2.722.174-3.783.15-2.132-.046-3.897-.223-5.398-.482a24.432 24.432 0 0 1-3.822-.969c-1.082-.37-2.007-.77-2.881-1.152-.874-.382-1.697-.745-2.574-1.039a12.855 12.855 0 0 0-2.903-.625z" fill="#98c305"/><path d="M-49.882 3.254a5.563 5.563 0 0 0-5.576 5.575V19.54c1.004-.207 2.15-.502 2.978-.601 1.52-.181 2.773-.192 3.865-.086 1.093.106 2.025.33 2.903.625.877.294 1.7.657 2.574 1.039.874.382 1.799.782 2.88 1.152 1.083.37 2.321.71 3.823.97 1.501.258 3.266.435 5.398.482 1.06.023 2.528-.103 3.784-.15V8.828a5.563 5.563 0 0 0-5.577-5.575z" fill="#3e5d9e"/><path d="M-34.752 7.336a3.976 3.976 0 1 1 0 7.952 3.976 3.976 0 0 1 0-7.952z" fill="#fff"/><path d="M-27.253 24.66c-11.918-6.6-16.002.574-25.223.102-1.179-.108-2.151-.334-2.982-.646v1.767a5.563 5.563 0 0 0 5.576 5.574h17.052a5.563 5.563 0 0 0 5.577-5.574z" fill="#addb1e"/></g></svg>