<svg xmlns="http://www.w3.org/2000/svg" height="32" width="32" version="1"><rect width="28.203" height="28.203" x="1.927" y="1.886" ry="5.575" fill="#a3daff" fill-rule="evenodd"/><path d="M30.074 25.327l-.728-1.852s-2.309 2.403-2.309 2.168c0-.234-.498-2.168-.498-2.168l-1.9 2.344-.907-1.406-2.306 1.523-.86-1.933-1.494 2.228-2.037-2.228-1.447 2.345-1.178-2.463-1.176 2.405-1.81-2.463-.815 2.756-1.312-2.522-.951 1.582-2.217-2.05s-.59 2.052-.68 2.814c-.045.38-.476-.559-.894-1.592-.419-1.033-.824-2.16-.824-2.16s-.835 1.955-1.407 3.305c.646 2.365 2.71 4.13 5.285 4.13h17.053c2.8 0 5.006-2.08 5.412-4.763z" opacity=".977" fill="#96c503" fill-rule="evenodd"/><path d="M30.117 23.546c-.633 1.01-1.143 2.22-1.549 3.6.109-2.212.358-4.36.592-6.514a128.4 128.4 0 0 0-1.34 5.576c-.107-.544-.238-1.036-.363-1.54.113-1.115.281-2.053.547-2.66-.197.335-.373.71-.54 1.102.064-.57.114-1.148.177-1.719-.178.68-.348 1.36-.516 2.04a11.205 11.205 0 0 0-.578-1.503c.188.518.309 1.304.402 2.2-.172.712-.33 1.419-.488 2.129-.144-.558-.308-1.115-.465-1.674.127-1.427.282-2.843.436-4.258a153.284 153.284 0 0 0-.768 3.066 136.3 136.3 0 0 0-.812-2.68c.1.762.203 1.522.302 2.284-.044-.1-.084-.212-.13-.307.075.208.128.515.187.787.053.42.1.843.146 1.266l-.06.26a10.569 10.569 0 0 0-.564-1.23c.186.452.32 1.093.427 1.827-.022.1-.049.203-.07.303-.325-1.646-.716-3.144-1.272-4.28.418 1.15.567 3.373.584 6.128-.18-.672-.372-1.33-.6-1.912-.13-.442-.246-.882-.382-1.325.157-.42.31-.839.508-1.267-.193.325-.402.635-.606.947-.11-.358-.201-.712-.314-1.07l.172 1.3c-.151.231-.301.464-.447.7a11.308 11.308 0 0 0-.729-1.658c.211.51.362 1.235.473 2.101-.099.17-.2.34-.291.52-.24.214-.45.495-.653.798a4.138 4.138 0 0 0-.441-.347c-.026.012-.047.038-.072.053l-.063-.08c.138-.95.298-1.838.527-2.536-.34.588-.634 1.28-.894 2.043-.207-.395-.43-.773-.666-1.13.014-.047.024-.108.039-.153-.022.037-.041.083-.062.121-.407-.61-.847-1.182-1.352-1.67.083.141.118.357.191.512l.016-.03c-.004.013-.006.03-.01.042.284.602.548 1.236.742 1.976l-.047.108c-.085.077-.163.168-.242.26-.198-.585-.407-1.145-.607-1.723.052-.204.096-.433.154-.621l-.006-.012c-.076.137-.144.291-.217.436-.012-.034-.024-.064-.035-.098.01.04.015.077.025.117-.154.31-.3.64-.435.99-.016-.964-.01-1.84.162-2.42-.426.875-.563 2.298-.752 3.553-.176-.489-.356-.973-.524-1.48.157.61.292 1.213.405 1.808a4.797 4.797 0 0 0-.45.78c-.106-.491-.226-.953-.363-1.376-.018-1.009-.016-1.927.162-2.527-.213.44-.355 1.018-.466 1.643-.167-.46-.334-.917-.493-1.395.165.64.302 1.273.418 1.897l-.222 1.468c-.16-.34-.352-.67-.588-1.082-.021-1.469-.096-2.79.144-3.597-.29.598-.438 1.46-.568 2.342-.09-.47-.187-.928-.324-1.33.035-.08.065-.166.101-.24-.046.053-.083.12-.129.175a3.787 3.787 0 0 0-.28-.639c.081.229.132.498.163.797-.173.223-.35.442-.508.688.018-.058.027-.114.045-.172-.05.126-.102.244-.154.367-.342.557-.647 1.17-.922 1.828-.098-.164-.213-.38-.336-.598.168-.622.36-1.197.6-1.687a9.385 9.385 0 0 0-.86 1.21c-.011-.022-.02-.03-.03-.054.01.027.013.043.023.069-.204.333-.401.678-.58 1.048-.15-.37-.324-.7-.496-1.037.196-.857.422-1.662.736-2.302-.405.47-.756 1.02-1.084 1.605l-.03-.06c.049-.434.098-.867.145-1.301-.094.358-.174.712-.266 1.07-.169-.312-.34-.622-.5-.947.142.37.253.733.366 1.097-.076-.12-.144-.255-.223-.369.088.223.15.507.225.76-.044.173-.078.345-.121.518-.183.383-.356.782-.514 1.2a23.078 23.078 0 0 0-.633-1.269l.145-1.302c-.094.357-.172.714-.264 1.072-.051-.095-.1-.193-.15-.287.123-1.323.263-2.64.406-3.953a141.81 141.81 0 0 0-1.004 4.086c-.116-.224-.22-.463-.338-.682l.143-1.303c-.094.358-.172.715-.264 1.072-.088-.16-.173-.327-.26-.49.07-.64.13-1.284.2-1.924-.137.52-.262 1.04-.393 1.559l-.049-.094c.016.042.026.084.041.125-.038.15-.078.3-.115.451a11.254 11.254 0 0 0-.578-1.504c.188.52.308 1.308.402 2.207-.23.947-.448 1.888-.65 2.83-.111-.561-.245-1.07-.375-1.59.036-.476.09-.943.136-1.415.035-.083.059-.195.096-.27-.03.044-.053.096-.082.14.115-1.17.232-2.34.36-3.505-.32 1.22-.618 2.437-.903 3.65a10.82 10.82 0 0 0-.508-1.289c.166.457.282 1.13.373 1.885l-.031.137c-.201-.54-.415-1.05-.664-1.496.224.542.369 1.363.48 2.3l-.027.12c-.027.066-.05.137-.076.205-.296-1.485-.654-2.836-1.133-3.914.01-.023.016-.053.026-.075-.01.019-.019.042-.03.06-.041-.092-.08-.197-.123-.286.035.095.053.252.084.361-.451.8-.793 1.797-1.1 2.863-.241-.714-.513-1.374-.83-1.943.273.66.443 1.686.553 2.92-.026.106-.06.197-.086.305-.252-.979-.567-1.966-.855-2.95-.444 4.689 2.53 6.995 6.22 6.828 2.199.06 8.437.005 10.999.005.046-.525.083-1.08.138-1.58.057.531.087 1.054.127 1.58h2.948l.21-.165.079.165h1.908c2.2 0 4.122-1.18 5.029-3.159.022-.275-.027-.663.002-.918.11-.965.311-1.659.543-2.265zm-22.365.06c.064.2.137.4.2.6-.053.203-.096.406-.147.61-.043-.173-.08-.358-.125-.524.024-.229.047-.458.072-.686zm6.732.14c.069.966-.014 2.206.008 3.538-.038.14-.08.278-.127.4-.165-.319-.374-.65-.623-1.101.187-1.059.425-2.022.743-2.836zm4.088.667c.157.646.286 1.282.395 1.912-.264.361-.507.777-.752 1.183.275-.235.544-.526.818-.77l.016.09a23.331 23.331 0 0 0-.719 2.723c-.067-.524-.162-.99-.267-1.427.017-.34.026-.673.029-1.004.118-1.016.282-1.91.48-2.707zm-10.478.224c.087.304.155.604.228.905-.055.248-.116.498-.17.746-.044-.227-.102-.423-.15-.643.035-.334.055-.674.092-1.008zm15.156.307c.07.522.133 1.046.195 1.57a5.276 5.276 0 0 0-.412-.412c-.022-.076-.043-.157-.066-.232.09-.308.175-.615.283-.926zm-14.195.021c.031.102.07.205.101.307-.043.17-.078.34-.12.51-.017.009-.032.022-.048.031l-.008-.02c.022-.277.05-.552.075-.828zm.244.739c.026.09.045.177.07.267a2.582 2.582 0 0 0-.09-.052c.008-.072.013-.144.02-.215zm3.25.158c.077.242.174.51.228.727-.176.453-.337.922-.488 1.414-.028-.148-.072-.275-.105-.414a21.32 21.32 0 0 1 .365-1.727zm-1.543.46c.07.383.144.753.201 1.165-.156.411-.305.833-.441 1.275-.02-.1-.049-.186-.07-.283.035-.292.08-.566.119-.851.079.062.156.132.236.19-.073-.1-.149-.192-.22-.292.056-.405.108-.818.175-1.203zm8.652.015h.002c.001.001 0 .004.004.005.103.457.193.934.276 1.42-.073.112-.143.224-.213.34a13.474 13.474 0 0 0-.25-1.125c.03-.194.054-.407.088-.592.03-.013.062-.038.093-.048zm-4.289.125c.165.565.282 1.087.34 1.554a5.134 5.134 0 0 1-.348-1.045c.002-.17.008-.342.008-.51zm-6.055.181c.086.022.167.07.25.108.045.187.088.374.127.56-.042.13-.09.252-.13.385a9.272 9.272 0 0 0-.264-1.041l.018-.012zm4.397.143c.171.517.307 1 .385 1.42a.866.866 0 0 1-.367.293c-.057-.3-.11-.478-.165-.696.049-.341.092-.69.147-1.017zm8.064.246c-.008.021-.014.047-.021.068l-.027-.027c.016-.015.032-.027.048-.041zm.852.162c.02.328.03.687.043 1.041-.065-.095-.136-.18-.203-.271.047-.256.103-.513.16-.77zm-2.639.84c.006.033.01.064.014.098-.051.22-.105.43-.152.66-.025-.195-.065-.35-.096-.532.078-.077.156-.149.234-.226zm3.576.13c.02.038.045.07.065.108.012.126.025.25.035.375-.033-.16-.065-.324-.1-.482zm-7.001.239c0 .01 0 .02.002.03l-.002.011v-.041z" opacity=".977" fill="#addb1f" fill-rule="evenodd"/><path d="M3.558 21.016c.283 2.62.514 5.263.552 7.996.456.313.928.57 1.468.74-.012-1.604 0-3.11.082-4.337.088-1.34.243-2.407.492-3.098-.552 1.138-.94 2.64-1.262 4.291-.394-1.855-.847-3.72-1.332-5.592zm19.511.08c.318 2.949.665 5.882.625 8.995h.917c.168 0 .333-.01.498-.024-.016-1.693-.02-3.318.065-4.601.09-1.327.244-2.383.49-3.069-.551 1.138-.941 2.64-1.263 4.291-.394-1.855-.848-3.72-1.332-5.592zm-8.677 2.016c.208.707.183 1.783.163 3.025-.02 1.224-.028 2.61.192 3.954h2.03c.025-.657.05-1.264.151-1.928.105-.684.29-1.43.64-2.358-.364.75-.62 1.092-.832 1.502-.214.41-.384.89-.576 1.907-.305-.12-.515-.452-.673-.91-.157-.46-.262-1.044-.355-1.669-.184-1.248-.322-2.655-.74-3.523zm7.16.4c.046.436.094.872.142 1.307-.563 1.047-1.118 2.106-1.397 3.59a17.939 17.939 0 0 0-1.034-2.68c-.398-.812-.854-1.536-1.38-2.154.388.803.666 1.811.882 2.937.213 1.108.365 2.332.504 3.579H23.081a111.254 111.254 0 0 0-1.189-5.182c.13-.422.255-.844.417-1.274-.159.327-.328.639-.496.952-.09-.359-.169-.716-.262-1.075zm5.944.17c-.45.818-.812 1.806-1.12 2.905-.284 1.018-.505 2.246-.72 3.402a5.96 5.96 0 0 0 1.17-.336c.017-1.235.051-2.413.146-3.373.109-1.102.276-1.991.524-2.598zm-19.545.483c-.42.763-.76 1.68-1.053 2.695a36.643 36.643 0 0 0-.731 3.067c.362.071.736.164 1.12.164h1.057c.28-.576.547-1.18.848-1.713.31-.553.655-1.031 1.087-1.332.501.155.956.763 1.43 1.175-.49-.824-.961-1.699-1.654-2.045-.593.404-1.072.981-1.512 1.62-.44.638-.844 1.336-1.282 1.978.048-2.52.243-4.514.69-5.61zm3.223.203c.462 1.424.69 3.505.869 5.723h1.22c.145-1.836.385-3.706.883-5.663-.49 1.5-1.094 2.738-1.351 4.772-.396-1.937-.914-3.595-1.621-4.832z" opacity=".977" fill="#73a00c" fill-rule="evenodd"/><path d="M7.329 22.891c-.539 1.503-1.043 3-1.48 4.49-.36-1.325-.793-2.53-1.407-3.445.274.55.446 1.398.545 2.461.08.868.042 2.032.04 3.142.483.24 1.068.39 1.62.482-.02-2.423.338-4.828.682-7.13zm18.826.98c.276.555.449 1.41.547 2.485.085.929.131 2.097.123 3.297.42-.18.791-.42 1.15-.694a33.247 33.247 0 0 0-.59-2.277c-.324-1.076-.715-2.043-1.23-2.81zm-9.17.637c-.465.698-.617 1.827-.822 2.83-.103.502-.22.972-.395 1.34-.175.369-.41.637-.75.733-.213-.817-.401-1.2-.638-1.53-.238-.329-.524-.605-.93-1.207.4.761.605 1.348.719 1.885.11.518.132.994.16 1.532h2.266c.24-1.074.233-2.18.21-3.157-.022-.995-.051-1.859.18-2.426zm-7.967.325c-.103.288-.191.575-.293.863-.186-.251-.373-.502-.55-.764.18.346.32.683.464 1.022-.478 1.371-.962 2.766-1.343 4.125.07.003.166.012.236.012h4.031c.155-.995.321-1.972.557-2.856.24-.902.551-1.71.982-2.353a8.569 8.569 0 0 0-1.537 1.73 12.324 12.324 0 0 0-1.15 2.152c-.31-1.191-.929-2.042-1.555-2.882l.158-1.05zm-6.613.136c.275.486.461 1.198.582 2.08.023.164.028.748.046.923.313.453.646.698 1.077 1.04-.152-.51-.28-1.247-.463-1.716-.34-.88-.743-1.671-1.242-2.327zm21.748.387c.249.44.426 1.06.549 1.822.123.764.192 1.671.219 2.682-.487-.516-.935-1.076-1.426-1.588-.49-.512-1.024-.975-1.684-1.299-.77.278-1.295.979-1.841 1.64.528-.33 1.035-.82 1.593-.944.478.24.86.623 1.203 1.064.33.423.621.901.928 1.358h.89c.521 0 1.059-.06 1.536-.192a23.7 23.7 0 0 0-.797-2.385c-.324-.813-.704-1.546-1.17-2.158zm-3.586.162c-.786.994-1.364 2.325-1.804 3.881-.286-1.633-.959-2.628-1.504-3.832.55 1.563.818 3.057.98 4.524h1.363c.2-1.771.453-3.435.965-4.573z" opacity=".977" fill="#4d8304" fill-rule="evenodd"/><path d="M7.481 24.31c.46 1.438.687 3.537.863 5.78h1.184c.142-1.853.384-3.743.879-5.72-.483 1.498-1.077 2.738-1.33 4.771-.39-1.937-.9-3.595-1.596-4.832z" fill="#73a00c"/><path d="M22.424 5.872a3.976 3.976 0 1 1 0 7.952 3.976 3.976 0 0 1 0-7.952z" fill="#fff" fill-rule="evenodd"/></svg>