<svg xmlns="http://www.w3.org/2000/svg" height="32" width="32" version="1"><g transform="translate(39.107 -.563)"><rect ry="5.575" y="2.45" x="-37.18" height="28.203" width="28.203" fill="#ff766a" fill-rule="evenodd"/><path d="M-9.033 25.89l-.728-1.851s-2.309 2.402-2.309 2.168c0-.235-.498-2.168-.498-2.168l-1.9 2.344-.906-1.407-2.307 1.524-.86-1.934-1.494 2.229-2.037-2.229-1.447 2.346-1.178-2.463-1.175 2.404-1.81-2.463-.815 2.756-1.313-2.521-.951 1.582-2.217-2.051s-.589 2.052-.68 2.814c-.045.381-.476-.558-.894-1.591-.418-1.034-.824-2.16-.824-2.16s-.835 1.954-1.407 3.304c.646 2.365 2.71 4.131 5.286 4.131h17.052c2.8 0 5.006-2.08 5.412-4.764z" opacity=".977" fill="#96c503" fill-rule="evenodd"/><path d="M-8.99 24.11c-.633 1.01-1.143 2.22-1.548 3.599.108-2.211.357-4.36.591-6.514a128.4 128.4 0 0 0-1.34 5.576c-.107-.543-.238-1.036-.363-1.539.113-1.116.282-2.054.547-2.66-.197.334-.373.71-.539 1.102.063-.571.114-1.148.176-1.72-.178.681-.347 1.361-.516 2.04a11.205 11.205 0 0 0-.578-1.502c.188.517.309 1.304.402 2.2-.172.711-.33 1.418-.488 2.128-.144-.558-.308-1.115-.465-1.674.127-1.427.282-2.843.436-4.258a153.284 153.284 0 0 0-.768 3.067 136.3 136.3 0 0 0-.812-2.68c.1.761.204 1.522.303 2.283-.045-.1-.085-.211-.131-.306.075.207.128.514.187.787.053.42.1.843.147 1.265-.02.087-.041.173-.06.26a10.569 10.569 0 0 0-.565-1.23c.187.453.32 1.093.427 1.828-.021.1-.048.202-.07.303-.325-1.647-.715-3.145-1.271-4.28.418 1.15.566 3.373.584 6.127-.182-.672-.373-1.33-.6-1.912-.131-.442-.247-.882-.383-1.324.158-.42.31-.84.508-1.268-.193.326-.401.636-.605.948-.111-.358-.202-.713-.315-1.07l.172 1.3c-.151.23-.3.463-.447.7a11.308 11.308 0 0 0-.729-1.659c.211.511.362 1.236.473 2.102-.098.17-.2.34-.291.52-.24.214-.45.495-.653.798a4.138 4.138 0 0 0-.44-.348c-.027.013-.048.039-.073.053l-.063-.08c.138-.95.298-1.837.528-2.535-.34.588-.634 1.28-.895 2.043-.207-.395-.43-.773-.666-1.131.014-.046.024-.107.04-.152-.022.037-.042.083-.063.12-.407-.61-.846-1.182-1.352-1.67.083.142.118.357.192.512l.015-.029c-.004.012-.006.029-.01.041.284.602.548 1.237.742 1.977l-.047.107c-.085.078-.163.169-.242.26-.198-.585-.407-1.145-.607-1.723.052-.204.096-.432.154-.62l-.006-.013c-.076.137-.144.292-.217.436-.011-.034-.024-.064-.035-.098.01.04.016.078.026.118-.155.309-.3.639-.436.99-.016-.965-.01-1.841.162-2.42-.426.875-.563 2.297-.752 3.553-.176-.49-.355-.973-.523-1.48.157.61.291 1.212.404 1.808a4.797 4.797 0 0 0-.45.779c-.106-.49-.226-.953-.363-1.375-.018-1.009-.016-1.928.163-2.527-.214.439-.356 1.017-.467 1.642-.167-.46-.334-.916-.492-1.394.164.64.301 1.272.418 1.896-.076.493-.15.989-.223 1.469-.16-.341-.352-.67-.588-1.082-.02-1.47-.096-2.79.145-3.598-.292.599-.439 1.46-.569 2.342-.089-.47-.187-.927-.324-1.33.035-.079.065-.165.102-.24-.047.054-.084.12-.13.176a3.787 3.787 0 0 0-.28-.64c.081.23.132.499.163.798-.173.222-.35.441-.507.687.017-.058.026-.113.045-.172-.05.126-.103.245-.155.368-.342.556-.647 1.17-.922 1.828-.098-.165-.212-.38-.336-.598.168-.623.36-1.198.6-1.688a9.385 9.385 0 0 0-.86 1.211c-.011-.022-.02-.03-.03-.054.01.026.013.042.023.068-.204.333-.401.679-.58 1.049-.15-.37-.324-.701-.496-1.037.196-.858.423-1.662.736-2.303-.405.47-.756 1.02-1.084 1.606-.01-.02-.019-.042-.03-.061.049-.434.098-.867.145-1.3-.093.357-.174.712-.265 1.07-.17-.312-.34-.622-.5-.948.142.371.252.734.365 1.098-.076-.12-.144-.255-.223-.37.088.224.15.508.225.76-.044.173-.078.345-.121.518-.182.384-.355.782-.514 1.201a23.078 23.078 0 0 0-.633-1.27c.048-.433.098-.868.145-1.302-.094.358-.172.715-.264 1.072-.051-.094-.1-.192-.15-.287.123-1.322.263-2.64.406-3.953a141.81 141.81 0 0 0-1.004 4.086c-.116-.224-.219-.463-.338-.682l.143-1.302c-.094.358-.172.714-.264 1.072-.088-.161-.173-.327-.26-.49.07-.64.13-1.285.2-1.924-.137.52-.262 1.04-.393 1.558l-.049-.093c.016.041.026.083.041.125-.038.15-.078.3-.115.45a11.254 11.254 0 0 0-.578-1.503c.188.519.308 1.308.402 2.207-.23.947-.448 1.888-.65 2.83-.111-.561-.245-1.071-.375-1.59.037-.476.09-.944.136-1.416.035-.083.059-.195.096-.27-.03.044-.053.097-.082.141.115-1.17.233-2.34.36-3.506-.32 1.22-.618 2.437-.903 3.65a10.82 10.82 0 0 0-.508-1.288c.166.456.282 1.13.373 1.885l-.03.136c-.202-.54-.416-1.049-.665-1.496.224.542.369 1.363.48 2.3l-.027.12c-.027.066-.05.138-.076.205-.296-1.485-.654-2.835-1.133-3.914.01-.022.016-.052.026-.074-.01.018-.019.042-.03.06-.041-.093-.079-.198-.123-.287.035.096.053.252.084.362-.451.8-.793 1.797-1.1 2.863-.241-.715-.513-1.374-.83-1.943.273.66.443 1.686.553 2.92-.026.106-.06.197-.085.304-.253-.978-.568-1.966-.856-2.95-.444 4.69 2.53 6.995 6.22 6.828 2.2.06 8.437.005 10.999.005.046-.525.083-1.079.138-1.58.057.532.087 1.054.127 1.58h2.948l.21-.164.079.164h1.908c2.201 0 4.122-1.18 5.03-3.158.02-.276-.028-.664.001-.918.11-.965.312-1.66.543-2.266zm-22.365.06c.064.2.138.4.2.6-.052.202-.096.405-.147.609-.043-.173-.08-.357-.125-.524.024-.228.047-.458.072-.685zm6.733.14c.068.965-.015 2.205.008 3.537-.04.141-.08.279-.127.4-.166-.318-.375-.65-.623-1.1.186-1.06.424-2.022.742-2.837zm4.088.666c.156.646.285 1.283.394 1.912-.264.362-.507.777-.752 1.184.275-.236.544-.527.818-.77l.016.09a23.331 23.331 0 0 0-.719 2.723c-.067-.525-.162-.991-.267-1.428.018-.34.027-.672.029-1.004.119-1.015.283-1.91.48-2.707zm-10.479.225c.087.304.156.603.229.904-.056.249-.117.498-.17.746-.045-.226-.103-.422-.15-.642.034-.335.054-.675.091-1.008zm15.156.307c.07.521.133 1.046.196 1.57a5.276 5.276 0 0 0-.413-.412c-.022-.077-.043-.158-.066-.233.09-.308.175-.614.283-.925zm-14.195.021c.032.102.07.205.101.307-.043.17-.078.34-.12.51-.017.008-.032.021-.048.03l-.008-.019c.022-.277.05-.552.075-.828zm.244.738c.026.09.046.178.07.268a2.582 2.582 0 0 0-.09-.053c.009-.072.013-.143.02-.215zm3.25.158c.077.243.175.51.229.727-.177.453-.338.923-.489 1.414-.028-.148-.072-.274-.105-.414a21.32 21.32 0 0 1 .365-1.727zm-1.543.461c.07.382.144.753.201 1.164-.156.412-.305.834-.441 1.276-.02-.101-.049-.186-.07-.283.035-.293.08-.566.119-.852.079.063.156.133.236.19-.072-.1-.148-.191-.22-.291.056-.405.108-.818.175-1.204zm8.652.014h.002c.001.002.001.005.004.006.103.456.193.934.276 1.42-.072.112-.143.224-.213.34a13.474 13.474 0 0 0-.25-1.125c.03-.194.054-.407.088-.592.031-.013.062-.039.094-.049zm-4.289.125c.165.566.282 1.087.34 1.555a5.134 5.134 0 0 1-.347-1.045c.002-.17.008-.343.008-.51zm-6.054.182c.085.021.166.07.25.107.044.188.087.374.127.56-.043.131-.09.252-.131.385a9.272 9.272 0 0 0-.264-1.04l.018-.012zm4.396.142c.171.518.307 1 .385 1.42a.866.866 0 0 1-.367.293c-.057-.3-.11-.477-.164-.695.048-.342.09-.69.146-1.018zm8.065.246l-.022.069-.027-.028.049-.04zm.851.163c.02.327.03.687.043 1.04-.065-.094-.136-.18-.203-.271.047-.255.104-.512.16-.77zm-2.638.84c.006.033.009.064.013.097-.05.221-.105.431-.152.66-.025-.194-.065-.35-.096-.531.079-.078.156-.15.235-.227zm3.576.13c.02.038.044.07.064.108.012.125.025.249.035.375-.033-.161-.065-.324-.1-.483zm-7.002.238c0 .01 0 .02.002.03l-.002.012v-.042z" opacity=".977" fill="#addb1f" fill-rule="evenodd"/><path d="M-35.548 21.58c.282 2.62.514 5.263.551 7.996.456.312.928.57 1.469.74-.013-1.605 0-3.11.08-4.338.09-1.34.244-2.406.493-3.097-.552 1.138-.94 2.64-1.262 4.29-.393-1.855-.847-3.72-1.331-5.591zm19.51.08c.318 2.948.665 5.881.625 8.994h.917c.168 0 .333-.01.498-.023-.016-1.694-.02-3.319.066-4.602.088-1.326.243-2.383.49-3.068-.552 1.138-.942 2.64-1.264 4.29-.394-1.855-.847-3.72-1.332-5.591zm-8.677 2.015c.209.707.183 1.784.163 3.026-.02 1.224-.028 2.61.193 3.953h2.03c.024-.656.049-1.264.15-1.928.105-.684.29-1.43.641-2.357-.365.75-.62 1.091-.833 1.502-.213.41-.384.89-.576 1.906-.305-.119-.515-.451-.672-.91-.158-.459-.263-1.044-.356-1.668-.184-1.249-.322-2.655-.74-3.524zm7.16.4c.046.436.095.873.142 1.308-.563 1.047-1.117 2.106-1.397 3.59a17.939 17.939 0 0 0-1.033-2.68c-.399-.812-.855-1.536-1.381-2.155.388.803.666 1.812.883 2.938.212 1.108.364 2.332.504 3.578h3.811a111.254 111.254 0 0 0-1.188-5.182c.13-.421.254-.844.416-1.273-.159.326-.328.638-.496.951-.09-.359-.169-.715-.262-1.074zm5.944.17c-.45.819-.811 1.806-1.119 2.905-.285 1.018-.506 2.247-.72 3.402a5.96 5.96 0 0 0 1.168-.335c.018-1.235.052-2.413.147-3.374.109-1.101.277-1.991.524-2.597zm-19.544.483c-.42.764-.761 1.68-1.054 2.696a36.643 36.643 0 0 0-.731 3.067c.362.07.736.163 1.12.163h1.058c.28-.575.547-1.179.847-1.713.31-.552.656-1.03 1.087-1.332.502.156.956.764 1.43 1.176-.49-.825-.961-1.699-1.654-2.045-.593.403-1.071.981-1.512 1.62-.44.637-.844 1.335-1.282 1.978.048-2.52.243-4.514.69-5.61zm3.222.203c.463 1.424.69 3.505.87 5.723h1.22c.144-1.836.385-3.705.882-5.662-.49 1.499-1.094 2.738-1.35 4.771-.397-1.937-.915-3.595-1.622-4.832z" opacity=".977" fill="#73a00c" fill-rule="evenodd"/><path d="M-31.778 23.455c-.539 1.502-1.043 3-1.48 4.49-.36-1.325-.793-2.531-1.407-3.445.274.55.447 1.398.545 2.46.081.869.042 2.032.04 3.142.484.241 1.068.39 1.62.483-.019-2.423.339-4.828.682-7.13zm18.826.98c.276.554.449 1.41.547 2.485.085.928.131 2.096.123 3.297.42-.18.791-.421 1.15-.695a33.247 33.247 0 0 0-.59-2.276c-.324-1.076-.714-2.043-1.23-2.81zm-9.17.637c-.465.697-.616 1.827-.822 2.83-.103.502-.219.971-.394 1.34-.176.368-.41.637-.75.732-.213-.816-.402-1.2-.64-1.529-.236-.33-.522-.605-.929-1.207.4.76.605 1.347.719 1.885.11.517.132.993.16 1.531h2.266c.24-1.074.233-2.179.21-3.156-.022-.996-.05-1.86.18-2.426zm-7.966.324c-.104.289-.192.575-.293.863-.187-.25-.374-.501-.551-.763.181.345.32.682.465 1.021-.479 1.372-.962 2.766-1.344 4.126.07.002.166.011.236.011h4.031c.155-.994.321-1.971.557-2.855.24-.903.551-1.71.983-2.354a8.569 8.569 0 0 0-1.538 1.73 12.324 12.324 0 0 0-1.15 2.153c-.31-1.192-.928-2.042-1.555-2.883l.159-1.049zm-6.614.137c.275.486.461 1.198.582 2.08.023.163.029.748.047.922.312.454.646.699 1.076 1.04-.152-.51-.28-1.247-.463-1.716-.34-.88-.742-1.671-1.242-2.326zm21.748.387c.25.44.426 1.059.55 1.822.122.763.191 1.67.218 2.682-.487-.516-.935-1.077-1.426-1.588-.49-.512-1.024-.975-1.683-1.3-.771.279-1.295.98-1.842 1.641.528-.33 1.035-.82 1.593-.945.478.24.86.623 1.204 1.065.329.423.62.9.927 1.357h.891c.52 0 1.058-.06 1.535-.191a23.7 23.7 0 0 0-.797-2.385c-.324-.814-.704-1.547-1.17-2.158zm-3.586.162c-.786.993-1.364 2.325-1.804 3.88-.286-1.633-.958-2.628-1.504-3.831.55 1.562.818 3.057.98 4.523h1.364c.198-1.77.452-3.435.964-4.572z" opacity=".977" fill="#4d8304" fill-rule="evenodd"/><path d="M-31.626 24.873c.46 1.438.687 3.538.864 5.781h1.183c.142-1.854.384-3.743.879-5.72-.483 1.498-1.077 2.737-1.33 4.77-.39-1.936-.9-3.594-1.596-4.831z" fill="#73a00c"/><path d="M-16.683 6.436a3.976 3.976 0 1 1 0 7.952 3.976 3.976 0 0 1 0-7.952z" fill="#fff" fill-rule="evenodd"/></g></svg>