<svg xmlns="http://www.w3.org/2000/svg" height="32" width="32" version="1"><defs><linearGradient id="f"><stop offset="0" stop-color="#710005"/><stop offset=".5" stop-color="#880012" stop-opacity=".961"/><stop offset="1" stop-color="red"/></linearGradient><linearGradient id="d"><stop offset="0" stop-color="gray"/><stop offset="1" stop-color="gray" stop-opacity="0"/></linearGradient><linearGradient id="c"><stop offset="0" stop-color="#fff"/><stop offset="1" stop-color="#fff" stop-opacity="0"/></linearGradient><linearGradient id="a"><stop offset="0" stop-color="#f5f5f5" stop-opacity=".221"/><stop offset="1" stop-color="#f5f5f5" stop-opacity=".287"/></linearGradient><linearGradient id="b"><stop offset="0" stop-color="#3771c8"/><stop offset="1" stop-color="#214478"/></linearGradient><linearGradient id="e"><stop offset="0"/><stop offset="1" stop-color="#333"/></linearGradient></defs><rect width="28.203" height="28.203" x="1.898" y="1.898" ry="5.575" fill="#f2f2f2" fill-rule="evenodd"/><path style="line-height:normal;font-variant-ligatures:normal;font-variant-position:normal;font-variant-caps:normal;font-variant-numeric:normal;font-variant-alternates:normal;font-feature-settings:normal;text-indent:0;text-align:start;text-decoration-line:none;text-decoration-style:solid;text-decoration-color:#000;text-transform:none;text-orientation:mixed;white-space:normal;shape-padding:0;isolation:auto;mix-blend-mode:normal;solid-color:#000;solid-opacity:1" d="M16 4.59C9.703 4.59 4.593 9.703 4.596 16c-.003 6.297 5.107 11.41 11.402 11.41 6.296 0 11.407-5.113 11.404-11.41C27.406 9.703 22.295 4.59 16 4.59zm0 .716c5.908 0 10.69 4.784 10.688 10.694.002 5.91-4.78 10.694-10.689 10.694C10.091 26.694 5.31 21.91 5.312 16 5.31 10.09 10.091 5.306 16 5.306z" color="#000" font-weight="400" font-family="sans-serif" overflow="visible" fill="#1a1a1a" fill-opacity=".929"/><g stroke="none" stroke-width="8.586" fill-rule="evenodd"><path d="M6.389 18.658l8.803-8.12-3.718-3.463C7.763 9.36 4.918 13.126 6.389 18.658z" fill="#905cae"/><path d="M12.542 6.605l7.607 6.924-.043-6.753c-2.633-1.007-5.159-1.102-7.564-.171z" fill="#ff272c"/><path d="M21.217 7.46l.085 11.84h4.103c1.993-6.44-1.374-9.969-4.188-11.84z" fill="#ff8f00"/><path d="M10.79 16.051v8.591c-1.548-1.181-3.089-2.37-4.102-4.83z" fill="#016bd8"/><path d="M24.977 20.368l-13.076.085.043 4.745c7.207 2.643 11.491-1.488 13.033-4.83z" fill="#00bf00"/></g></svg>