<svg xmlns="http://www.w3.org/2000/svg" height="32" width="32" version="1"><path d="M1.898 13.617v10.908a5.563 5.563 0 0 0 5.575 5.577h17.052a5.565 5.565 0 0 0 5.577-5.577V13.617z" fill="#5f7c8a" fill-rule="evenodd"/><path d="M1.898 13.617h28.204V7.473a5.563 5.563 0 0 0-5.577-5.575H7.473a5.561 5.561 0 0 0-5.575 5.575z" fill="#fff" fill-rule="evenodd"/><path d="M24.66 17.5a1.5 1.5 0 0 1-1.5 1.5 1.5 1.5 0 0 1-1.5-1.5 1.5 1.5 0 0 1 1.5-1.5 1.5 1.5 0 0 1 1.5 1.5z" fill="#fff"/><path d="M10.992 4h9.333c.74 0 1.334.62 1.334 1.39v9.74c0 2.087-4.667 3.479-6 4.87-1.333-1.391-6-2.783-6-4.87V5.39c0-.77.595-1.391 1.333-1.391z" fill="#10c36e"/><path d="M9.66 17.5a1.5 1.5 0 0 1-1.5 1.5 1.5 1.5 0 0 1-1.5-1.5 1.5 1.5 0 0 1 1.5-1.5 1.5 1.5 0 0 1 1.5 1.5zM7.66 21.5a1.5 1.5 0 0 1-1.5 1.5 1.5 1.5 0 0 1-1.5-1.5 1.5 1.5 0 0 1 1.5-1.5 1.5 1.5 0 0 1 1.5 1.5zM12.66 21.5a1.5 1.5 0 0 1-1.5 1.5 1.5 1.5 0 0 1-1.5-1.5 1.5 1.5 0 0 1 1.5-1.5 1.5 1.5 0 0 1 1.5 1.5zM17.66 21.5a1.5 1.5 0 0 1-1.5 1.5 1.5 1.5 0 0 1-1.5-1.5 1.5 1.5 0 0 1 1.5-1.5 1.5 1.5 0 0 1 1.5 1.5zM22.66 21.5a1.5 1.5 0 0 1-1.5 1.5 1.5 1.5 0 0 1-1.5-1.5 1.5 1.5 0 0 1 1.5-1.5 1.5 1.5 0 0 1 1.5 1.5zM27.66 21.5a1.5 1.5 0 0 1-1.5 1.5 1.5 1.5 0 0 1-1.5-1.5 1.5 1.5 0 0 1 1.5-1.5 1.5 1.5 0 0 1 1.5 1.5z" fill="#fff"/><rect rx=".733" ry=".75" height="3" width="22" y="23.999" x="4.659" fill="#4c636e"/><path d="M17.206 15l-1.971-3.4-.775.866V15h-1.801V6.766h1.8v3.656l2.661-3.656h2.094l-2.807 3.533L19.33 15h-2.124z" fill="#fff"/></svg>