<svg xmlns="http://www.w3.org/2000/svg" height="32" width="32" version="1"><rect width="28.203" height="28.203" x="1.898" y="1.898" ry="5.575" fill="#e6e6e6" fill-rule="evenodd"/><path d="M10.399 25.867c-1.095-.165-1.949-.59-2.707-1.35-.635-.637-1.075-1.412-1.26-2.223-.18-.786-.18-1.401.003-2.196a4.58 4.58 0 0 1 1.053-1.988c.246-.276 3.022-3.05 3.067-3.066.02-.007.032.113.033.313.001.569.112 1.18.334 1.855l.112.34-1.04 1.04c-1.036 1.037-1.149 1.165-1.317 1.493a2.43 2.43 0 0 0-.256 1.149c.004 1.477 1.373 2.703 2.84 2.543a2.463 2.463 0 0 0 1.175-.434c.263-.18 4.678-4.612 4.845-4.865.63-.951.514-2.255-.275-3.098-.156-.166-.516-.467-.56-.467-.09 0 .039-.147.72-.828l.75-.749.187.163c.22.19.676.666.752.784.028.045.07.1.092.124.062.065.35.563.437.756.276.611.415 1.264.415 1.944 0 1.038-.297 1.93-.934 2.805-.076.104-1.21 1.26-2.523 2.571-1.716 1.714-2.457 2.433-2.638 2.56-.964.68-2.207.99-3.305.824z" fill="#3266f7"/><path d="M21.601 6.133c1.095.165 1.949.59 2.707 1.35.635.637 1.075 1.412 1.26 2.223.18.786.18 1.401-.003 2.196a4.58 4.58 0 0 1-1.053 1.988c-.246.276-3.022 3.05-3.067 3.066-.02.007-.032-.113-.033-.313-.001-.569-.112-1.18-.334-1.855l-.112-.34 1.04-1.04c1.036-1.037 1.149-1.165 1.317-1.493a2.43 2.43 0 0 0 .256-1.149c-.004-1.477-1.373-2.703-2.84-2.543a2.463 2.463 0 0 0-1.175.434c-.263.18-4.678 4.612-4.845 4.865-.63.951-.514 2.255.275 3.098.156.166.516.467.56.467.09 0-.039.147-.72.828l-.75.749-.187-.163c-.22-.19-.676-.666-.752-.784a1.02 1.02 0 0 0-.092-.124c-.062-.065-.35-.563-.437-.756a4.698 4.698 0 0 1-.415-1.944c0-1.038.297-1.93.934-2.805.076-.104 1.21-1.26 2.523-2.571 1.716-1.714 2.457-2.433 2.638-2.56.964-.68 2.207-.99 3.305-.824z" fill="#29a734"/></svg>