<svg xmlns="http://www.w3.org/2000/svg" height="32" width="32" version="1"><rect width="28.203" height="28.203" x="1.898" y="1.898" ry="5.575" fill="#c2352a" fill-rule="evenodd"/><path d="M13.659 5.18c-.164.145-.205.362-.205.616 0 .47.164 1.049.246 1.266 0 0 .123 2.533.164 2.822-.37.036-1.026.073-1.272.145h-.328c-.697.036-1.354.072-1.64.326l-.124.108.123.145c.205.217.287.832.37 1.484.204 1.338.45 3.003 1.681 3.654l.246.109V15.6s.042-.108.042-.253c0-.108-.042-.29-.082-.543.328.037 1.025.109 1.271.109C14.192 15.204 15.26 27 15.26 27h.41s.451-11.651.451-12.013c.287 0 1.56.036 1.928.072-.082.217-.41 1.122-.41 1.122l.575-.47c.164-.109 3.733-2.967 3.24-4.85-.164-.614-.738-1.048-1.682-1.265h-.082c-.533 0-2.174.036-3.405.108.041-.94.041-1.447.041-1.7v-.326c0-.181.205-.434.37-.615.164-.218.369-.398.369-.616 0-.072-.041-.144-.082-.217-.246-.325-2.051-1.158-2.83-1.23-.247.036-.411.072-.493.181zm.04 5.935h.206c0 .325.123 2.605.164 2.93-.328-.036-1.107-.108-1.354-.108-.123-.47-.164-.977-.205-1.484a11.974 11.974 0 0 0-.164-1.266c.37 0 1.354-.072 1.354-.072zm2.503 1.121s.041-.868.041-1.158c.534.073 1.231.109 1.888.109h.738c0 .145-.041.326-.041.326-.082.796-.205 1.736-.574 2.677-.247 0-1.764-.072-2.093-.108 0-.254.041-1.846.041-1.846z" fill="#fff"/></svg>