<svg xmlns="http://www.w3.org/2000/svg" height="32" width="32" version="1"><rect width="28.203" height="28.203" x="1.898" y="1.898" ry="5.575" fill="#2a88ae" fill-rule="evenodd"/><g fill="#fff"><g transform="translate(-.002 -2.584)"><path d="M10.939 9a.589.589 0 0 0-.496.232c-.673.863-1.376 2.028-2.045 3.069l-.796-1.367a.59.59 0 1 0-1.018.594l1.271 2.18a.589.589 0 0 0 .997.032c.827-1.227 1.764-2.815 2.519-3.783A.589.589 0 0 0 10.939 9z" color="#000" fill-rule="evenodd"/><rect rx="1" ry="1" height="2" width="13" y="11" x="12.5"/></g><g transform="translate(-.002 -.585)"><rect rx="1" ry="1" height="2" width="13" y="16" x="12.5"/><circle cy="17" cx="8.5" r="1"/></g><g transform="translate(-.002 .415)"><rect rx="1" ry="1" height="2" width="13" y="21" x="12.5"/><circle cy="22" cx="8.5" r="1"/></g></g></svg>