<svg xmlns="http://www.w3.org/2000/svg" width="32" height="32" version="1"><rect width="28.203" height="28.203" x="1.898" y="1.898" ry="5.575" fill="#e6e6e6" fill-rule="evenodd"/><circle cx="-16" cy="-16" r="9.492" transform="scale(-1)" fill="#1a1a1a"/><circle cx="-16" cy="-16" r="8.644" transform="scale(-1)" fill="gray"/><path d="M10.393 17a.96.96 0 0 0 .91-.656h.73v-.613h-.73a.96.96 0 0 0-.91-.653.96.96 0 0 0-.91.653h-.73v.613h.73a.96.96 0 0 0 .91.655zM17.458 24.712h-2.746v-1.356h2.746zM11.33 12.728a.96.96 0 0 0 1.108.181l.515.516.433-.434-.516-.516a.96.96 0 0 0-.181-1.105.96.96 0 0 0-1.105-.181l-.516-.517-.434.434.517.516a.96.96 0 0 0 .18 1.106zM15.05 10.371a.96.96 0 0 0 .654.911v.73h.613v-.731a.96.96 0 0 0 .653-.91.96.96 0 0 0-.653-.909v-.73h-.613v.73a.96.96 0 0 0-.655.91zM19.284 11.309a.96.96 0 0 0-.18 1.107l-.516.516.433.433.517-.517a.96.96 0 0 0 1.105-.18.96.96 0 0 0 .18-1.105l.517-.517-.433-.433-.517.516a.96.96 0 0 0-1.106.18zM21.641 15.076a.96.96 0 0 0-.91.655H20v.613h.73a.96.96 0 0 0 .91.653.96.96 0 0 0 .91-.653h.73v-.613h-.73a.96.96 0 0 0-.91-.655z" fill="#1a1a1a"/></svg>