<svg xmlns="http://www.w3.org/2000/svg" height="32" width="32" version="1"><rect width="28.203" height="28.203" x="1.898" y="1.898" ry="5.575" fill="#4f4f4f" fill-rule="evenodd"/><path d="M14.018 5.933a.506.506 0 0 0-.423.409l-.409 2.155a7.722 7.722 0 0 0-2.027 1.211L9.148 9a.49.49 0 0 0-.575.22l-1.936 3.493c-.11.2-.063.479.106.629l1.603 1.463c-.056.392-.09.787-.09 1.195 0 .41.034.804.09 1.196l-1.603 1.463a.535.535 0 0 0-.106.63l1.936 3.492a.49.49 0 0 0 .575.22l2.012-.708a7.724 7.724 0 0 0 2.026 1.211l.409 2.155a.505.505 0 0 0 .469.41h3.872a.505.505 0 0 0 .47-.41l.408-2.155a7.723 7.723 0 0 0 2.026-1.211l2.012.708a.49.49 0 0 0 .575-.22l1.936-3.493a.534.534 0 0 0-.106-.629l-1.603-1.463c.056-.392.09-.787.09-1.196a8.35 8.35 0 0 0-.09-1.195l1.603-1.463a.535.535 0 0 0 .106-.63L23.427 9.22a.49.49 0 0 0-.575-.22l-2.011.708a7.724 7.724 0 0 0-2.027-1.212l-.409-2.155a.506.506 0 0 0-.469-.409H14.02z" fill="#b3b3b3"/></svg>