<svg xmlns="http://www.w3.org/2000/svg" height="32" width="32" version="1"><path opacity=".1" fill="#fff" d="M16 2C8.244 2 2 8.244 2 16c0 .169.02.333.025.5A13.957 13.957 0 0 1 16 3c7.588 0 13.711 5.98 13.975 13.5.006-.167.026-.331.026-.5 0-7.756-6.244-14-14-14z"/><rect width="28.203" height="28.203" x="1.898" y="1.898" ry="5.575" fill="#fe4d38" fill-rule="evenodd"/><g transform="translate(36.312 -.794)"><rect x="-27.617" y="9.489" width="21.645" height="21.645" transform="matrix(0 -1 -1 0 0 0)" rx="10.823" ry="10.823" fill="#fff"/><path d="M-26.282 19.887c1.232 2.39 3.509 3.863 5.973 3.865 2.462-.005 4.736-1.477 5.967-3.865 1.105-2.144-2.239-2.32-5.97-2.32s-7.076.175-5.97 2.32z" fill="#3f3f3f"/><ellipse cx="-24.177" cy="12.543" ry="1.933" rx="1.546" fill="#3f3f3f"/><ellipse cx="-16.447" cy="12.543" ry="1.933" rx="1.546" fill="#3f3f3f"/></g></svg>