<svg xmlns="http://www.w3.org/2000/svg" height="32" width="32" version="1"><rect width="28.203" height="28.203" x="1.898" y="1.898" ry="5.575" fill="#ffc947" fill-rule="evenodd"/><path d="M16 5.702A10.236 10.236 0 0 1 26.298 16 10.236 10.236 0 0 1 16 26.298 10.236 10.236 0 0 1 5.702 16 10.236 10.236 0 0 1 16 5.702z" fill="#b38d32"/><path d="M13.832 9.135c-.713 0-1.287.51-1.287 1.144V21.72c0 .634.574 1.145 1.287 1.145s1.287-.51 1.287-1.145v-2.8l1.966 3.405c.317.55 1.07.706 1.688.349.618-.357.86-1.087.543-1.636l-2.905-5.031 2.905-5.03c.317-.55.075-1.278-.543-1.635a1.402 1.402 0 0 0-.722-.19c-.4.006-.768.194-.966.537l-1.966 3.406V10.28c0-.633-.574-1.144-1.287-1.144z" fill="#ffc947"/></svg>