<svg xmlns="http://www.w3.org/2000/svg" width="32" height="32" version="1"><rect width="28.203" height="28.203" x="1.898" y="1.898" ry="5.575" fill="#5294e2" fill-rule="evenodd"/><path d="M16 6.384A9.616 9.616 0 0 0 6.384 16 9.616 9.616 0 0 0 16 25.616 9.616 9.616 0 0 0 25.616 16 9.616 9.616 0 0 0 16 6.384zM15.1 8.3c.105-.01.237.006.342 0 .013.05-.074.23-.193.49-.76 1.66-.805 3.604-.1 4.643.128.189.244.368.244.391 0 .023-.137.049-.293.049-.365 0-.711-.222-1.418-.781-.314-.249-.72-.457-.879-.489-.248-.05-.314-.028-.635.293-.298.299-.39.461-.39.735 0 1.036 1.231 1.859 3.52 2.344 3.107.658 3.871 1.249 3.957 2.883.108 2.049-.982 3.593-3.371 4.79-.286.142-.467.199-.586.245-.053-.005-.096.005-.149 0-.02-.063-.049-.21-.049-.488 0-1.088-.428-2.21-1.074-2.836-.174-.168-.658-.524-1.074-.782-.416-.257-.837-.556-.93-.683-.155-.212-.166-.342-.047-.733.217-.714.474-1.115.977-1.566.263-.237.527-.433.586-.438.058-.005-.336-.125-.928-.246a16.71 16.71 0 0 1-1.908-.537c-.82-.296-1.925-.92-2.346-1.37-.018-.018-.034-.031-.05-.048a7.86 7.86 0 0 1 4.546-5.327c.47-.199.955-.335 1.467-.44.255-.051.518-.072.781-.099zm7.333 3.666c.184.114.878 1.616 1.076 2.348.256.945.237 2.58 0 3.518-.09.357-.207.691-.246.733-.038.041-.18-.196-.344-.487-.164-.29-.685-.91-1.12-1.369-1.259-1.327-1.457-2.02-.93-3.078.265-.535 1.422-1.752 1.564-1.665z" fill="#fff"/><rect width="28.203" height="28.203" x="51.755" y="1.515" ry="5.575" fill="#5294e2" fill-rule="evenodd"/><circle cx="65.857" cy="15.616" r="11.097" fill="#fff"/><path d="M65.405 4.487c-.411.013-.808.07-1.206.124l.383.328-1.036.554 1.319.313.168-.444h.577l.202-.385-.407-.103zm-1.206.124l-.011-.01-.47.06c.156-.028.322-.028.48-.05zm-3.914 1.27a11.3 11.3 0 0 0-5.544 7.317l.035.054-.096.179c-.018.083-.03.167-.047.252l.43.66 1.185.294v-.192l.474.068-.045.34.372.067.575.16.814.931 1.04.078.1.853-.71.497-.034.764-.101.465 1.028 1.296.078.44s.372.102.418.102c.024 0 .237.166.457.33l.077-.078c.138.1.294.21.294.21v2.34l.283.08-.192 1.077.474.636-.087 1.07.009.018c.59.232 1.198.425 1.831.557l.024-.069.024-.31-.403-.013-.203-.254.335-.323.046-.245-.374-.107.022-.226.531-.081.809-.39.27-.5.847-1.09-.193-.852.26-.453.778.024.525-.418.17-1.647.582-.741.101-.478-.53-.17-.35-.577-1.197-.013-.949-.364-.026-.4-.01-.14-.316-.555-.86-.013-.495-.785-.44-.214-.025.237-.8.048-.295-.411-.834-.17-.69.799-1.084-.183-.08-1.228-.791-.137.318-.603-.09-.348-1.04.7-.655-.08-.233-.513.142-.53.36-.667.833-.423h1.602l-.003.49.575.27-.046-.84.416-.422.838-.55.057-.391.838-.875.886-.494-.076-.065.601-.571.219.059.103.13.228-.258.055-.024-.25-.035-.255-.085v-.246l.137-.111h.294l.137.061.117.239.146-.023v-.02l.039.013.42-.063.057-.205.237.06v.221l-.22.152.033.244.753.235s.002.003.003.01l.174-.016.011-.329-.597-.274-.035-.157.496-.17.024-.477-.52-.319-.035-.806-.71.351h-.26l.067-.614-.967-.23-.4.306v.929l-.721.23-.29.604-.313.052v-.775l-.678-.095-.338-.22-.137-.503c-.597.517 2.196-1.477.156-.346zM73.29 7.337l-.159.026-.488.699-.705.113-.102.605.296.068-.085.39-.699-.14-.638.14-.137.357.111.753.353.165.128-.128.516-.004.426-.038.129-.34.666-.87.44.089.43-.39.08.305 1.06.72-.129.175-.477-.026.183.26.294.066.346-.143-.01-.418.156-.078-.126-.13-.708-.397-.183-.527h.388c-.276-.35-.6-.656-.915-.97l-.063.064c-.125-.134-.241-.275-.378-.396zm.68 2.952l-1.523.12-.474.256h-.605l-.297-.03-.694.388-.04.041v.755l-1.503 1.087.124.467h.304l-.078.442-.217.077-.01 1.16 1.298 1.487h.566l.035-.09h1.014l.294-.272h.577l.314.318.86.09-.112 1.148.95 1.69-.5.966.033.455.395.396v1.093l.111.148a11.267 11.267 0 0 0 2.288-6.822 11.343 11.343 0 0 0-.965-4.582l-.483.046v.426h-.22l-.237-.17-1.206-.306z" fill="#6db3de" fill-rule="evenodd"/></svg>