<svg xmlns="http://www.w3.org/2000/svg" height="32" width="32" version="1"><rect width="28" height="29.397" x="2" y="1.301" ry="5.811" fill="#0066c4" fill-rule="evenodd"/><path d="M14.426 26.644c-3.206-1.75-.999-1.916-2.257-2.651l-.178-.375.18-.57.18-.568.362-.19.363-.19v-1.144l.366-.193.367-.192v-.769l.361-.19.362-.19.181-.574.181-.572-.181-.384-.181-.383-.376-.198c-.368-.195-.38-.203-.55-.383l-.172-.184h-.358l-.181-.38-.181-.38-.36-.186-.358-.188h-.741l-.178.186-.177.185-.18-.378-.18-.377h-.733l-.183.192-.182.192h-.724v-.395l-.183-.192-.183-.191v-.376h-.358l-.173.183c-.095.1-.177.182-.183.182-.006 0-.088-.164-.183-.365l-.173-.364.182-.193.183-.192h1.052l.37.194.369.194.37-.39.372-.389.178-.75.177-.752.37-.39.368-.39h1.07v-.374c0-.206.003-.375.006-.375l.547.19.542.19.364-.382.363-.382h-.356l-.191-.4c-.187-.39-.195-.404-.364-.579l-.172-.179-.37.194-.368.194H10.887l-.18.378-.18.378-.177-.186-.177-.185h-.356v-.76l.535-.187.535-.186.174.182c.096.1.187.182.203.182.016 0 .263-.082.55-.182l.519-.183h.372c.204 0 .371-.005.371-.01 0-.006-.079-.177-.175-.38-.171-.36-.18-.374-.361-.566l-.186-.198h-.735l-.178.188c-.174.184-.185.191-.544.38l-.366.19-.188-.195c-.182-.188-.2-.201-.526-.374L9.48 7.24l-.184-.01-.183-.011.174-.12a9.886 9.886 0 0 1 4.753-1.735 13.58 13.58 0 0 1 1.64 0c1.787.166 3.406.753 4.82 1.747l.184.129.005.567.005.566.178.19c.175.184.186.192.543.38l.364.193-.18.19-.181.191h-.735l-.178.188-.178.188v.747l-.179-.187-.178-.187h-.733l-.183.385-.182.385.182.385.183.384h.734l.173-.184c.17-.18.182-.188.55-.383.367-.194.38-.203.549-.383l.173-.184.178.37.178.37v.191l.002.192.186.197.186.196.367-.193.366-.192-.36-.378-.36-.379.179-.187.179-.186.361.38.361.379v.374h.358l.182.193.183.192h.412l.043.116c.075.21.153.456.222.704l.077.278c.01.033-.016.036-.367.036h-.377l-.367-.193-.366-.192-.371.194c-.361.189-.376.2-.55.38l-.178.184-.347-.18c-.341-.18-.35-.185-.535-.38l-.188-.198h-1.11l-.366.192-.366.192h-.724l-.178.188-.178.188v1.154l-.183.191-.183.192V16.37l.183.577.183.577.357.187.357.187h.752l.366-.192.366-.192h.695l.366.192.367.192v.75l.184.387.185.388-.363.382-.363.381.362.76.361.759v.759l.226.237.226.238-.049.056c-.455.527-.758.837-1.16 1.188a9.899 9.899 0 0 1-5.433 2.41 16.12 16.12 0 0 1-1.138.068c-.027 0-.2-.01-.386-.017zm-1.523-14.648l.182-.192-.192-.198-.193-.197.183.198.183.197-.178.187-.178.187-.188-.192-.188-.192.183.197c.1.109.187.198.193.198.005 0 .092-.087.193-.193zm.729-.38l.178-.189-.006-.201-.006-.202-.004.203-.005.203-.173.182-.174.181-.183-.191-.183-.192-.004-.193-.004-.193-.007.192-.006.19.188.2c.104.109.193.198.2.198.005 0 .09-.085.188-.188zm5.075-1.908l.183-.192-.193-.197-.192-.198.183.198.183.197-.178.187-.178.187-.174-.181-.174-.182-.004-.203-.004-.203-.006.202-.007.2.179.19c.098.103.183.188.19.188.005 0 .092-.087.192-.193zm.936.071c.016-.033.025-.06.02-.06-.005 0-.023.027-.04.06-.016.034-.025.061-.02.061.005 0 .023-.027.04-.06zm.115-.222c.017-.034.026-.061.02-.061-.005 0-.023.027-.039.06-.016.034-.026.061-.02.061.005 0 .023-.027.04-.06zm-.684-.233l-.183-.193.175-.184.175-.183.35.183c.193.102.357.184.365.183.008 0-.15-.088-.35-.194l-.365-.193-.185.194-.184.194.182.193c.1.105.187.192.192.192.006 0-.072-.087-.172-.192zm.79.03c.022-.044.035-.08.03-.08a.286.286 0 0 0-.049.08c-.022.045-.035.081-.03.081a.287.287 0 0 0 .05-.08zm.093-.193c-.006-.006-.017.005-.024.025-.01.03-.008.031.01.012.014-.014.02-.03.014-.037z" fill="#52a8ea"/><path d="M-15.605-14.36A10.555 10.556 0 0 1-12.12-1.782a10.555 10.556 0 0 1-11.406 6.348 10.555 10.556 0 0 1-8.854-9.592 10.555 10.556 0 0 1 7.24-10.862" transform="rotate(-149.998) skewX(.005)" fill="none" stroke="#52a8ea" stroke-width=".856" stroke-linecap="round" stroke-linejoin="bevel"/><path d="M14.532 11.178l-2.868.456v10.892l2.868-.809V17.51L17.4 22.47l2.868-1.129-3.585-4.517 3.587-4.892-2.783-.754-2.955 4.937zm-5.84 2.954a.259.259 0 0 0-.187.082l-1.128 1.184c-.104.11-.079.265 0 .395l1.167 1.924a5.036 5.036 0 0 0-.224.58l-.01.025-2.116.494c-.144.034-.266.125-.266.28v1.479c0 .154.122.246.266.28l2.116.493c.004.015.012.028.017.043.06.193.133.381.217.565l-1.167 1.921c-.079.13-.104.287 0 .396l1.128 1.183c.104.11.27.11.375 0l1.829-1.223c.18.092.365.171.554.238l.037.017.469 2.22c0 .154.119.28.266.28h1.592c.147 0 .234-.13.266-.28l.47-2.288a4.56 4.56 0 0 0 .626-.304l1.785 1.34c.104.11.271.11.375 0l1.128-1.183c.104-.11.079-.265 0-.396l-.68-1.082-.07.028a.35.35 0 0 1-.434-.157l-.714-1.235c-.595 1.494-2 2.545-3.64 2.545-2.178 0-3.943-1.854-3.943-4.14 0-1.755 1.041-3.251 2.51-3.854v-.825l-.006.026c-.016.006-.03.015-.046.021-.187.065-.37.143-.548.232L8.88 14.214a.259.259 0 0 0-.188-.082z" fill="#fff"/></svg>