<svg xmlns="http://www.w3.org/2000/svg" height="32" width="32" version="1"><rect width="28.203" height="28.203" x="1.898" y="1.898" ry="5.575" fill="#5b5b5b" fill-rule="evenodd"/><g transform="matrix(.72028 0 0 .72028 4.476 4.476)" stroke-width="1.388"><rect x="11" y="17" width="10" height="12" ry="1.333" rx="1.429" fill="#6f6f6f"/><circle r="6" cx="8" cy="8" fill="#6f6f6f"/><circle r="6" cx="24" cy="8" fill="#6f6f6f"/><path d="M11 22.5V19s-.884.04-1.313.16c-1.773.499-3.063 2.399-2.588 4.26.476 1.861 2.286 2.958 4.06 2.46 1.774-.5.316-1.52-.159-3.38zM21 22.5V19s.9.04 1.328.16c1.774.499 3.063 2.399 2.588 4.26-.476 1.861-2.286 2.958-4.06 2.46-1.774-.5-.331-1.52.144-3.38zM23 30h-6a3 3 0 1 1 6 0zM15 30H9a3 3 0 1 1 6 0zM13.273 19h5.455c4.544 0 7.271-1.935 7.271-7.742C26 7.388 22.363 4.03 16 4 9.636 3.995 6 7.387 6 11.258 6 17.065 8.727 19 13.272 19z" fill="#a0a3a4"/><circle r="2.5" cx="9.5" cy="11.5" fill="#74b8ff"/><circle r="1.5" cx="9.5" cy="11.5" fill="#4d4d4d"/><path d="M13.406 16a3 1.333 0 0 0-.406.667A3 1.333 0 0 0 16 18a3 1.333 0 0 0 3-1.333 3 1.333 0 0 0-.406-.667 3 1.333 0 0 1-2.594.667A3 1.333 0 0 1 13.406 16zM13 11.3c.019 4 1.858 4 3 4 1.143 0 2.982 0 3-4 .003-3.199-1.928-6-3-6s-3.003 2.801-3 6z" fill="#4d4d4d"/><path d="M14 13.967a1 .667 0 0 0-.494.088c.31.61.728.913 1.168 1.07a1 .667 0 0 0 .326-.492 1 .667 0 0 0-1-.667zm4 0a1 .667 0 0 0-1 .666 1 .667 0 0 0 .327.493c.44-.158.858-.462 1.168-1.07a1 .667 0 0 0-.495-.09z" fill="#343434"/><circle r="2.5" cx="22.5" cy="11.5" fill="#74b8ff"/><circle r="1.5" cx="22.5" cy="11.5" fill="#4d4d4d"/></g></svg>