<svg xmlns="http://www.w3.org/2000/svg" width="32" height="32"><rect width="28.203" height="28.203" x="1.898" y="1.898" ry="5.575" fill="#4d4d4d" fill-rule="evenodd"/><g transform="translate(4.214 4.582) scale(.73663)" stroke-width="1.358"><path d="M16.016 2.003c-.935-.04-1.817.398-2.285 1.137L2.088 21.516c-.453 1.778.893 3.1 2.907 4.07 3.776 1.82 9.9 2.397 10.903 2.413 1.653.035 6.664-.723 10.242-2.144 2.721-1.082 4.613-2.547 3.568-4.339L18.065 3.14c-.426-.672-1.198-1.1-2.049-1.137z" fill="#8e8e8e"/><path d="M16.016 2.002c-.936-.04-1.817.4-2.286 1.139L12 5.87v20.287C12 28.29 14.293 29 16 29c1.708 0 4-.71 4-2.842V6.195l-1.936-3.054c-.425-.673-1.197-1.102-2.048-1.139z" fill="#686868"/><rect ry="2.125" rx="2.25" y="11" x="6" height="17" width="3" fill="#afafb1"/><ellipse ry="3.5" rx="3" cy="20.5" cx="16" fill="#64b0ff"/><rect ry="2.125" rx="2.25" y="11" x="23" height="17" width="3" fill="#afafb1"/></g></svg>