<svg xmlns="http://www.w3.org/2000/svg" height="32" width="32"><rect width="28.203" height="28.203" x="1.898" y="1.898" ry="5.575" fill="#8e8e8e" fill-rule="evenodd"/><g stroke-width=".932"><path d="M16.689 4.656l10.655 10.655c.382.382.36 1.017-.047 1.424L16.735 27.297c-.407.408-1.042.429-1.424.047L4.656 16.689c-.382-.382-.36-1.017.047-1.424L15.265 4.703c.407-.408 1.042-.429 1.424-.047z" fill="#fff"/><path d="M15.983 4.383c-.256.01-.516.116-.719.32l-3.413 3.412v10.689l9.492-9.493-4.654-4.654a.94.94 0 0 0-.702-.274 1.14 1.14 0 0 0-.004 0zm-6.621 6.222l-4.66 4.659a1.076 1.076 0 0 0-.317.717 1.14 1.14 0 0 0 0 .012.939.939 0 0 0 .272.696l4.655 4.654.05-.05zm13.742.467l-5.205 5.203 4.93 4.93 4.469-4.469c.202-.202.307-.461.317-.717a1.14 1.14 0 0 0 0-.012.938.938 0 0 0-.272-.696zm-6.965 6.963l-4.288 4.289v1.559l3.46 3.46a.94.94 0 0 0 .7.274 1.14 1.14 0 0 0 .002 0c.257-.008.519-.115.723-.32l4.331-4.33z" fill="#31afe1"/></g></svg>