<svg xmlns="http://www.w3.org/2000/svg" height="32" width="32" version="1"><g fill-rule="evenodd"><path d="M15.426 1.898H13.8a2.818 2.818 0 0 1 .12.391 2.815 2.815 0 0 1-.127 1.66 2.816 2.816 0 0 1-.61.938 2.815 2.815 0 0 1-1.663.822 2.815 2.815 0 0 1-.84-.024 2.816 2.816 0 0 1-.54-.152 2.816 2.816 0 0 1-.938-.611 2.816 2.816 0 0 1-.822-1.662 2.815 2.815 0 0 1 .023-.842c.017-.092.037-.183.063-.274.025-.083.053-.165.086-.246h-1.08c-1.075 0-2.02.382-2.87.905h.008a2.814 2.814 0 0 1 .834.105 2.816 2.816 0 0 1 .524.207 2.816 2.816 0 0 1 1.04.926 2.815 2.815 0 0 1 .339.682 2.816 2.816 0 0 1 .123.548 2.815 2.815 0 0 1-.022.842 2.816 2.816 0 0 1-.154.541 2.816 2.816 0 0 1-.258.498 2.816 2.816 0 0 1-.351.44 2.816 2.816 0 0 1-.928.625 2.816 2.816 0 0 1-3.68-1.518 2.816 2.816 0 0 1-.016-.043c-.042.279-.164.528-.164.819v4.72l.018.006a2.813 2.813 0 0 1 .5.258 2.816 2.816 0 0 1-.518 4.982v1.627l.11-.082a2.816 2.816 0 0 1 .494-.267 2.818 2.818 0 0 1 .457-.145 2.816 2.816 0 0 1 3.225 1.664 2.816 2.816 0 0 1 .144.457 2.816 2.816 0 0 1-1.41 3.104 2.814 2.814 0 0 1-.44.19 2.815 2.815 0 0 1-2.43-.31 2.814 2.814 0 0 1-.15-.109v.957a5.55 5.55 0 0 0 1.655 3.963 2.816 2.816 0 0 1 .113-1.709 2.815 2.815 0 0 1 .424-.728 2.815 2.815 0 1 1 3.836 4.049h5.181l.016-.026a2.816 2.816 0 0 1 .352-.44 2.816 2.816 0 0 1 .927-.624 2.815 2.815 0 0 1 .735-.196 2.822 2.822 0 0 1 .563-.014 2.816 2.816 0 0 1 .552.1 2.815 2.815 0 0 1 .766.348 2.816 2.816 0 0 1 .84.852h1.58a2.814 2.814 0 0 1-.055-.114 2.815 2.815 0 0 1-.195-.734 2.817 2.817 0 0 1 .023-.842 2.817 2.817 0 0 1 .27-.797 2.816 2.816 0 0 1 .494-.682 2.816 2.816 0 0 1 .671-.503 2.818 2.818 0 0 1 2.372-.14 2.813 2.813 0 0 1 .728.423 2.815 2.815 0 0 1 .854 3.23 2.819 2.819 0 0 1-.07.159c1.246-.001 2.337-.484 3.263-1.17a2.815 2.815 0 0 1-1.074-.531 2.815 2.815 0 0 1 3.383-4.495v-5.119a2.815 2.815 0 0 1 0-3.566v-1.953a2.82 2.82 0 0 1-.176.03 2.815 2.815 0 0 1-.84-.02 2.818 2.818 0 0 1-.541-.155 2.818 2.818 0 0 1-.729-.422 2.816 2.816 0 0 1-.4-.394 2.816 2.816 0 0 1-.17-.225 2.816 2.816 0 0 1-.266-.496 2.815 2.815 0 0 1-.195-.734 2.817 2.817 0 0 1 .024-.842 2.817 2.817 0 0 1 .41-1.04 2.815 2.815 0 0 1 1.467-1.134 2.816 2.816 0 0 1 1.416-.096v-.265c0-.884-.247-1.69-.61-2.43a2.814 2.814 0 0 1-2.832 1.77 2.815 2.815 0 0 1-.28-.038 2.815 2.815 0 0 1-.54-.152 2.816 2.816 0 0 1-.729-.424 2.815 2.815 0 0 1-.244-4.168l.059-.055c-.14-.01-.259-.08-.4-.08h-4.602a2.827 2.827 0 0 1-.055.077 2.815 2.815 0 0 1-2.963.945 2.815 2.815 0 0 1-.265-.092 2.815 2.815 0 0 1-.729-.422 2.815 2.815 0 0 1-.486-.508zm4.886 1.996a2.814 2.814 0 0 1 1.829.62 2.816 2.816 0 1 1-1.829-.62zm-6.5 2.704a2.814 2.814 0 0 1 1.829.619 2.816 2.816 0 1 1-4.577 2.261 2.815 2.815 0 0 1 .106-.834 2.816 2.816 0 0 1 .348-.767 2.816 2.816 0 0 1 .353-.438 2.816 2.816 0 0 1 .926-.627 2.816 2.816 0 0 1 1.016-.215zM7.312 9.3a2.816 2.816 0 0 1 2.231 1.013 2.816 2.816 0 0 1 .436.72 2.815 2.815 0 0 1 .195.735 2.815 2.815 0 0 1-.024.842 2.816 2.816 0 0 1-.41 1.04 2.816 2.816 0 0 1-1.467 1.134 2.815 2.815 0 1 1-.96-5.484zm2.704 6.5a2.812 2.812 0 0 1 1.601.455 2.817 2.817 0 0 1 .438.351 2.815 2.815 0 0 1 .822 1.662 2.817 2.817 0 0 1-.023.842 2.817 2.817 0 0 1-.27.797 2.815 2.815 0 0 1-.143.242 2.816 2.816 0 0 1-.351.44 2.816 2.816 0 0 1-.672.504 2.817 2.817 0 0 1-3.5-.676 2.816 2.816 0 0 1-.168-.227 2.816 2.816 0 0 1-.463-1.228 2.815 2.815 0 0 1 .024-.842 2.816 2.816 0 0 1 .412-1.041 2.816 2.816 0 0 1 2.293-1.28zm2.7 6.498a2.812 2.812 0 0 1 1.602.455 2.816 2.816 0 1 1-1.601-.455z" fill="#ccc"/><path d="M12.717 22.299a2.816 2.816 0 0 0-.281.021 2.816 2.816 0 0 0-.278.047 2.816 2.816 0 0 0-.27.076 2.816 2.816 0 0 0-.187.07 2.816 2.816 0 0 0-.254.122 2.816 2.816 0 0 0-.24.146 2.816 2.816 0 0 0-.227.168 2.816 2.816 0 0 0-.207.192 2.816 2.816 0 0 0-.185.21 2.816 2.816 0 0 0-.166.227 2.816 2.816 0 0 0-.14.244 2.816 2.816 0 0 0-.118.256 2.816 2.816 0 0 0-.09.266 2.816 2.816 0 0 0-.062.275 2.816 2.816 0 0 0-.037.28 2.816 2.816 0 0 0-.006.28 2.816 2.816 0 0 0 .02.282 2.816 2.816 0 0 0 .048.277 2.816 2.816 0 0 0 .076.27 2.816 2.816 0 0 0 .07.187 2.816 2.816 0 0 0 .122.254 2.816 2.816 0 0 0 .144.24 2.816 2.816 0 0 0 .17.225 2.816 2.816 0 0 0 .19.207 2.816 2.816 0 0 0 .21.188 2.816 2.816 0 0 0 .229.166 2.816 2.816 0 0 0 .242.14 2.816 2.816 0 0 0 .256.117 2.816 2.816 0 0 0 .268.09 2.816 2.816 0 0 0 .273.063 2.816 2.816 0 0 0 .28.037 2.816 2.816 0 0 0 .28.006 2.816 2.816 0 0 0 .282-.02 2.816 2.816 0 0 0 .277-.049 2.816 2.816 0 0 0 .272-.076 2.816 2.816 0 0 0 .185-.07 2.816 2.816 0 0 0 .254-.121 2.816 2.816 0 0 0 .242-.145 2.816 2.816 0 0 0 .225-.17 2.816 2.816 0 0 0 .207-.19 2.816 2.816 0 0 0 .187-.21 2.816 2.816 0 0 0 .165-.229 2.816 2.816 0 0 0 .142-.242 2.816 2.816 0 0 0 .115-.258 2.816 2.816 0 0 0 .09-.265 2.816 2.816 0 0 0 .065-.274 2.816 2.816 0 0 0 .035-.279 2.816 2.816 0 0 0 .008-.281 2.816 2.816 0 0 0-.022-.281 2.816 2.816 0 0 0-.049-.278 2.816 2.816 0 0 0-.074-.271 2.816 2.816 0 0 0-.07-.186 2.816 2.816 0 0 0-.121-.256 2.816 2.816 0 0 0-.147-.24 2.816 2.816 0 0 0-.168-.225 2.816 2.816 0 0 0-.191-.207 2.816 2.816 0 0 0-.211-.187 2.816 2.816 0 0 0-.227-.164 2.816 2.816 0 0 0-.244-.143 2.816 2.816 0 0 0-.256-.115 2.816 2.816 0 0 0-.267-.092 2.816 2.816 0 0 0-.274-.062 2.816 2.816 0 0 0-.279-.035 2.816 2.816 0 0 0-.281-.008z" fill="#f2f2f2"/><path d="M19.217 19.596a2.816 2.816 0 0 0-.281.021 2.816 2.816 0 0 0-.278.047 2.816 2.816 0 0 0-.271.076 2.816 2.816 0 0 0-.186.07 2.816 2.816 0 0 0-.254.122 2.816 2.816 0 0 0-.242.146 2.816 2.816 0 0 0-.225.168 2.816 2.816 0 0 0-.207.191 2.816 2.816 0 0 0-.187.21 2.816 2.816 0 0 0-.164.228 2.816 2.816 0 0 0-.143.244 2.816 2.816 0 0 0-.115.256 2.816 2.816 0 0 0-.092.266 2.816 2.816 0 0 0-.062.275 2.816 2.816 0 0 0-.035.28 2.816 2.816 0 0 0-.008.28 2.816 2.816 0 0 0 .021.282 2.816 2.816 0 0 0 .047.275 2.816 2.816 0 0 0 .076.272 2.816 2.816 0 0 0 .07.187 2.816 2.816 0 0 0 .122.254 2.816 2.816 0 0 0 .146.24 2.816 2.816 0 0 0 .168.225 2.816 2.816 0 0 0 .192.207 2.816 2.816 0 0 0 .21.187 2.816 2.816 0 0 0 .227.166 2.816 2.816 0 0 0 .244.141 2.816 2.816 0 0 0 .256.117 2.816 2.816 0 0 0 .266.09 2.816 2.816 0 0 0 .275.063 2.816 2.816 0 0 0 .28.035 2.816 2.816 0 0 0 .28.008 2.816 2.816 0 0 0 .282-.02 2.816 2.816 0 0 0 .277-.049 2.816 2.816 0 0 0 .27-.076 2.816 2.816 0 0 0 .187-.07 2.816 2.816 0 0 0 .254-.121 2.816 2.816 0 0 0 .24-.145 2.816 2.816 0 0 0 .225-.17 2.816 2.816 0 0 0 .207-.19 2.816 2.816 0 0 0 .188-.21 2.816 2.816 0 0 0 .166-.229 2.816 2.816 0 0 0 .14-.242 2.816 2.816 0 0 0 .117-.258 2.816 2.816 0 0 0 .09-.265 2.816 2.816 0 0 0 .063-.276 2.816 2.816 0 0 0 .037-.277 2.816 2.816 0 0 0 .006-.281 2.816 2.816 0 0 0-.02-.282 2.816 2.816 0 0 0-.049-.277 2.816 2.816 0 0 0-.076-.271 2.816 2.816 0 0 0-.07-.186 2.816 2.816 0 0 0-.121-.256 2.816 2.816 0 0 0-.145-.24 2.816 2.816 0 0 0-.17-.225 2.816 2.816 0 0 0-.19-.207 2.816 2.816 0 0 0-.21-.187 2.816 2.816 0 0 0-.229-.164 2.816 2.816 0 0 0-.242-.143 2.816 2.816 0 0 0-.258-.115 2.816 2.816 0 0 0-.265-.092 2.816 2.816 0 0 0-.274-.062 2.816 2.816 0 0 0-.279-.036 2.816 2.816 0 0 0-.281-.007z" fill="#ccc"/><path d="M19.217 19.596a2.816 2.816 0 0 1 .281.007 2.816 2.816 0 0 1 .28.036 2.816 2.816 0 0 1 .273.062 2.816 2.816 0 0 1 .265.092 2.816 2.816 0 0 1 .258.115 2.816 2.816 0 0 1 .242.143 2.816 2.816 0 0 1 .229.164 2.816 2.816 0 0 1 .21.187 2.816 2.816 0 0 1 .19.207 2.816 2.816 0 0 1 .17.225 2.816 2.816 0 0 1 .145.24 2.816 2.816 0 0 1 .12.256 2.816 2.816 0 0 1 .071.186 2.816 2.816 0 0 1 .076.271 2.816 2.816 0 0 1 .05.277 2.816 2.816 0 0 1 .019.282 2.816 2.816 0 0 1-.006.28 2.816 2.816 0 0 1-.037.278 2.816 2.816 0 0 1-.063.276 2.816 2.816 0 0 1-.09.265 2.816 2.816 0 0 1-.117.258 2.816 2.816 0 0 1-.14.242 2.816 2.816 0 0 1-.166.229 2.816 2.816 0 0 1-.188.21 2.816 2.816 0 0 1-.207.19 2.816 2.816 0 0 1-.225.17 2.816 2.816 0 0 1-.24.145 2.816 2.816 0 0 1-.254.12 2.816 2.816 0 0 1-.187.071 2.816 2.816 0 0 1-.27.076 2.816 2.816 0 0 1-.277.049 2.816 2.816 0 0 1-.281.02 2.816 2.816 0 0 1-.282-.008 2.816 2.816 0 0 1-.279-.035 2.816 2.816 0 0 1-.275-.063 2.816 2.816 0 0 1-.266-.09 2.816 2.816 0 0 1-.256-.117 2.816 2.816 0 0 1-.244-.14 2.816 2.816 0 0 1-.227-.167 2.816 2.816 0 0 1-.21-.187 2.816 2.816 0 0 1-.192-.207 2.816 2.816 0 0 1-.168-.225 2.816 2.816 0 0 1-.146-.24 2.816 2.816 0 0 1-.121-.254 2.816 2.816 0 0 1-.07-.187 2.816 2.816 0 0 1-.077-.272 2.816 2.816 0 0 1-.047-.275 2.816 2.816 0 0 1-.021-.281 2.816 2.816 0 0 1 .008-.282 2.816 2.816 0 0 1 .035-.279 2.816 2.816 0 0 1 .062-.275 2.816 2.816 0 0 1 .092-.266 2.816 2.816 0 0 1 .115-.256 2.816 2.816 0 0 1 .143-.244 2.816 2.816 0 0 1 .164-.229 2.816 2.816 0 0 1 .187-.209 2.816 2.816 0 0 1 .207-.191 2.816 2.816 0 0 1 .225-.168 2.816 2.816 0 0 1 .242-.146 2.816 2.816 0 0 1 .254-.122 2.816 2.816 0 0 1 .186-.07 2.816 2.816 0 0 1 .271-.076 2.816 2.816 0 0 1 .278-.047 2.816 2.816 0 0 1 .28-.021z" fill="#f2f2f2"/><path d="M25.715 16.893a2.816 2.816 0 0 0-.281.021 2.816 2.816 0 0 0-.278.047 2.816 2.816 0 0 0-.27.076 2.816 2.816 0 0 0-.187.07 2.816 2.816 0 0 0-.254.121 2.816 2.816 0 0 0-.24.147 2.816 2.816 0 0 0-.225.168 2.816 2.816 0 0 0-.207.191 2.816 2.816 0 0 0-.187.21 2.816 2.816 0 0 0-.166.228 2.816 2.816 0 0 0-.14.244 2.816 2.816 0 0 0-.118.256 2.816 2.816 0 0 0-.09.265 2.816 2.816 0 0 0-.062.276 2.816 2.816 0 0 0-.037.28 2.816 2.816 0 0 0-.006.28 2.816 2.816 0 0 0 .02.282 2.816 2.816 0 0 0 .048.275 2.816 2.816 0 0 0 .076.271 2.816 2.816 0 0 0 .07.188 2.816 2.816 0 0 0 .122.254 2.816 2.816 0 0 0 .144.24 2.816 2.816 0 0 0 .17.225 2.816 2.816 0 0 0 .19.207 2.816 2.816 0 0 0 .21.187 2.816 2.816 0 0 0 .229.166 2.816 2.816 0 0 0 .242.14 2.816 2.816 0 0 0 .258.118 2.816 2.816 0 0 0 .266.09 2.816 2.816 0 0 0 .273.062 2.816 2.816 0 0 0 .28.036 2.816 2.816 0 0 0 .28.007 2.816 2.816 0 0 0 .282-.02 2.816 2.816 0 0 0 .277-.048 2.816 2.816 0 0 0 .272-.076 2.816 2.816 0 0 0 .185-.07 2.816 2.816 0 0 0 .254-.122 2.816 2.816 0 0 0 .242-.144 2.816 2.816 0 0 0 .225-.17 2.816 2.816 0 0 0 .207-.19 2.816 2.816 0 0 0 .188-.21 2.816 2.816 0 0 0 .164-.229 2.816 2.816 0 0 0 .142-.242 2.816 2.816 0 0 0 .115-.258 2.816 2.816 0 0 0 .09-.266 2.816 2.816 0 0 0 .065-.275 2.816 2.816 0 0 0 .035-.277 2.816 2.816 0 0 0 .008-.283 2.816 2.816 0 0 0-.022-.28 2.816 2.816 0 0 0-.049-.277 2.816 2.816 0 0 0-.074-.272 2.816 2.816 0 0 0-.07-.185 2.816 2.816 0 0 0-.121-.256 2.816 2.816 0 0 0-.147-.24 2.816 2.816 0 0 0-.168-.225 2.816 2.816 0 0 0-.191-.207 2.816 2.816 0 0 0-.211-.187 2.816 2.816 0 0 0-.227-.164 2.816 2.816 0 0 0-.244-.143 2.816 2.816 0 0 0-.256-.115 2.816 2.816 0 0 0-.267-.092 2.816 2.816 0 0 0-.274-.063 2.816 2.816 0 0 0-.279-.035 2.816 2.816 0 0 0-.281-.008z" fill="#ccc"/><path d="M10.016 15.8a2.816 2.816 0 0 0-.28.022 2.816 2.816 0 0 0-.277.049 2.816 2.816 0 0 0-.272.076 2.816 2.816 0 0 0-.187.069 2.816 2.816 0 0 0-.254.12 2.816 2.816 0 0 0-.24.147 2.816 2.816 0 0 0-.225.168 2.816 2.816 0 0 0-.207.192 2.816 2.816 0 0 0-.187.21 2.816 2.816 0 0 0-.164.227 2.816 2.816 0 0 0-.143.244 2.816 2.816 0 0 0-.115.256 2.816 2.816 0 0 0-.092.268 2.816 2.816 0 0 0-.062.273 2.816 2.816 0 0 0-.036.28 2.816 2.816 0 0 0-.007.28 2.816 2.816 0 0 0 .02.282 2.816 2.816 0 0 0 .048.277 2.816 2.816 0 0 0 .076.27 2.816 2.816 0 0 0 .07.187 2.816 2.816 0 0 0 .122.254 2.816 2.816 0 0 0 .146.24 2.816 2.816 0 0 0 .168.227 2.816 2.816 0 0 0 .191.207 2.816 2.816 0 0 0 .21.185 2.816 2.816 0 0 0 .228.166 2.816 2.816 0 0 0 .244.141 2.816 2.816 0 0 0 .256.117 2.816 2.816 0 0 0 .265.09 2.816 2.816 0 0 0 .276.065 2.816 2.816 0 0 0 .28.035 2.816 2.816 0 0 0 .28.008 2.816 2.816 0 0 0 .28-.022 2.816 2.816 0 0 0 .277-.049 2.816 2.816 0 0 0 .272-.076 2.816 2.816 0 0 0 .187-.07 2.816 2.816 0 0 0 .254-.121 2.816 2.816 0 0 0 .24-.145 2.816 2.816 0 0 0 .225-.17 2.816 2.816 0 0 0 .207-.19 2.816 2.816 0 0 0 .187-.21 2.816 2.816 0 0 0 .164-.229 2.816 2.816 0 0 0 .143-.242 2.816 2.816 0 0 0 .117-.256 2.816 2.816 0 0 0 .09-.267 2.816 2.816 0 0 0 .063-.274 2.816 2.816 0 0 0 .035-.279 2.816 2.816 0 0 0 .007-.281 2.816 2.816 0 0 0-.02-.282 2.816 2.816 0 0 0-.048-.277 2.816 2.816 0 0 0-.076-.271 2.816 2.816 0 0 0-.07-.186 2.816 2.816 0 0 0-.121-.254 2.816 2.816 0 0 0-.145-.242 2.816 2.816 0 0 0-.17-.225 2.816 2.816 0 0 0-.191-.207 2.816 2.816 0 0 0-.21-.187 2.816 2.816 0 0 0-.228-.164 2.816 2.816 0 0 0-.244-.14 2.816 2.816 0 0 0-.256-.118 2.816 2.816 0 0 0-.265-.09 2.816 2.816 0 0 0-.276-.064 2.816 2.816 0 0 0-.28-.035 2.816 2.816 0 0 0-.28-.008z" fill="#f2f2f2"/><path d="M16.516 13.098a2.816 2.816 0 0 0-.282.021 2.816 2.816 0 0 0-.277.049 2.816 2.816 0 0 0-.27.076 2.816 2.816 0 0 0-.187.068 2.816 2.816 0 0 0-.254.122 2.816 2.816 0 0 0-.24.146 2.816 2.816 0 0 0-.227.168 2.816 2.816 0 0 0-.207.191 2.816 2.816 0 0 0-.185.211 2.816 2.816 0 0 0-.166.227 2.816 2.816 0 0 0-.14.244 2.816 2.816 0 0 0-.118.256 2.816 2.816 0 0 0-.09.267 2.816 2.816 0 0 0-.064.274 2.816 2.816 0 0 0-.036.28 2.816 2.816 0 0 0-.007.28 2.816 2.816 0 0 0 .021.282 2.816 2.816 0 0 0 .049.277 2.816 2.816 0 0 0 .076.27 2.816 2.816 0 0 0 .07.187 2.816 2.816 0 0 0 .12.254 2.816 2.816 0 0 0 .146.24 2.816 2.816 0 0 0 .17.227 2.816 2.816 0 0 0 .19.207 2.816 2.816 0 0 0 .21.185 2.816 2.816 0 0 0 .229.166 2.816 2.816 0 0 0 .242.141 2.816 2.816 0 0 0 .256.117 2.816 2.816 0 0 0 .268.09 2.816 2.816 0 0 0 .273.063 2.816 2.816 0 0 0 .28.037 2.816 2.816 0 0 0 .28.007 2.816 2.816 0 0 0 .282-.021 2.816 2.816 0 0 0 .277-.049 2.816 2.816 0 0 0 .272-.076 2.816 2.816 0 0 0 .185-.07 2.816 2.816 0 0 0 .254-.121 2.816 2.816 0 0 0 .242-.145 2.816 2.816 0 0 0 .225-.17 2.816 2.816 0 0 0 .207-.19 2.816 2.816 0 0 0 .187-.21 2.816 2.816 0 0 0 .164-.229 2.816 2.816 0 0 0 .141-.242 2.816 2.816 0 0 0 .117-.256 2.816 2.816 0 0 0 .09-.267 2.816 2.816 0 0 0 .065-.274 2.816 2.816 0 0 0 .035-.28 2.816 2.816 0 0 0 .007-.28 2.816 2.816 0 0 0-.021-.282 2.816 2.816 0 0 0-.049-.277 2.816 2.816 0 0 0-.076-.271 2.816 2.816 0 0 0-.068-.186 2.816 2.816 0 0 0-.121-.254 2.816 2.816 0 0 0-.147-.242 2.816 2.816 0 0 0-.168-.225 2.816 2.816 0 0 0-.191-.207 2.816 2.816 0 0 0-.211-.187 2.816 2.816 0 0 0-.227-.164 2.816 2.816 0 0 0-.244-.143 2.816 2.816 0 0 0-.256-.115 2.816 2.816 0 0 0-.267-.09 2.816 2.816 0 0 0-.274-.064 2.816 2.816 0 0 0-.28-.036 2.816 2.816 0 0 0-.28-.007z" fill="#ccc"/><path d="M16.516 13.098a2.816 2.816 0 0 1 .28.007 2.816 2.816 0 0 1 .28.036 2.816 2.816 0 0 1 .274.064 2.816 2.816 0 0 1 .267.09 2.816 2.816 0 0 1 .256.115 2.816 2.816 0 0 1 .244.143 2.816 2.816 0 0 1 .227.164 2.816 2.816 0 0 1 .21.187 2.816 2.816 0 0 1 .192.207 2.816 2.816 0 0 1 .168.225 2.816 2.816 0 0 1 .147.242 2.816 2.816 0 0 1 .12.254 2.816 2.816 0 0 1 .069.186 2.816 2.816 0 0 1 .076.271 2.816 2.816 0 0 1 .049.277 2.816 2.816 0 0 1 .021.282 2.816 2.816 0 0 1-.007.28 2.816 2.816 0 0 1-.035.28 2.816 2.816 0 0 1-.065.274 2.816 2.816 0 0 1-.09.267 2.816 2.816 0 0 1-.117.256 2.816 2.816 0 0 1-.14.242 2.816 2.816 0 0 1-.165.229 2.816 2.816 0 0 1-.187.21 2.816 2.816 0 0 1-.207.19 2.816 2.816 0 0 1-.225.17 2.816 2.816 0 0 1-.242.145 2.816 2.816 0 0 1-.254.12 2.816 2.816 0 0 1-.185.071 2.816 2.816 0 0 1-.272.076 2.816 2.816 0 0 1-.277.049 2.816 2.816 0 0 1-.282.021 2.816 2.816 0 0 1-.28-.007 2.816 2.816 0 0 1-.28-.037 2.816 2.816 0 0 1-.273-.063 2.816 2.816 0 0 1-.268-.09 2.816 2.816 0 0 1-.256-.117 2.816 2.816 0 0 1-.242-.14 2.816 2.816 0 0 1-.229-.167 2.816 2.816 0 0 1-.21-.185 2.816 2.816 0 0 1-.19-.207 2.816 2.816 0 0 1-.17-.227 2.816 2.816 0 0 1-.146-.24 2.816 2.816 0 0 1-.12-.254 2.816 2.816 0 0 1-.07-.187 2.816 2.816 0 0 1-.076-.27 2.816 2.816 0 0 1-.049-.277 2.816 2.816 0 0 1-.021-.282 2.816 2.816 0 0 1 .007-.28 2.816 2.816 0 0 1 .036-.28 2.816 2.816 0 0 1 .064-.274 2.816 2.816 0 0 1 .09-.267 2.816 2.816 0 0 1 .117-.256 2.816 2.816 0 0 1 .14-.244 2.816 2.816 0 0 1 .167-.227 2.816 2.816 0 0 1 .185-.21 2.816 2.816 0 0 1 .207-.192 2.816 2.816 0 0 1 .227-.168 2.816 2.816 0 0 1 .24-.146 2.816 2.816 0 0 1 .254-.122 2.816 2.816 0 0 1 .188-.068 2.816 2.816 0 0 1 .269-.076 2.816 2.816 0 0 1 .277-.049 2.816 2.816 0 0 1 .282-.021zm9.199 3.795a2.816 2.816 0 0 1 .281.007 2.816 2.816 0 0 1 .28.035 2.816 2.816 0 0 1 .273.063 2.816 2.816 0 0 1 .267.092 2.816 2.816 0 0 1 .256.115 2.816 2.816 0 0 1 .244.143 2.816 2.816 0 0 1 .227.164 2.816 2.816 0 0 1 .21.187 2.816 2.816 0 0 1 .192.207 2.816 2.816 0 0 1 .168.225 2.816 2.816 0 0 1 .147.24 2.816 2.816 0 0 1 .12.256 2.816 2.816 0 0 1 .071.185 2.816 2.816 0 0 1 .074.272 2.816 2.816 0 0 1 .05.277 2.816 2.816 0 0 1 .02.28 2.816 2.816 0 0 1-.007.283 2.816 2.816 0 0 1-.035.277 2.816 2.816 0 0 1-.065.275 2.816 2.816 0 0 1-.09.266 2.816 2.816 0 0 1-.115.258 2.816 2.816 0 0 1-.142.242 2.816 2.816 0 0 1-.164.229 2.816 2.816 0 0 1-.188.21 2.816 2.816 0 0 1-.207.19 2.816 2.816 0 0 1-.225.17 2.816 2.816 0 0 1-.242.144 2.816 2.816 0 0 1-.254.122 2.816 2.816 0 0 1-.185.07 2.816 2.816 0 0 1-.272.076 2.816 2.816 0 0 1-.277.049 2.816 2.816 0 0 1-.281.02 2.816 2.816 0 0 1-.282-.008 2.816 2.816 0 0 1-.279-.036 2.816 2.816 0 0 1-.273-.062 2.816 2.816 0 0 1-.266-.09 2.816 2.816 0 0 1-.258-.117 2.816 2.816 0 0 1-.242-.14 2.816 2.816 0 0 1-.228-.167 2.816 2.816 0 0 1-.211-.187 2.816 2.816 0 0 1-.19-.207 2.816 2.816 0 0 1-.17-.225 2.816 2.816 0 0 1-.144-.24 2.816 2.816 0 0 1-.121-.254 2.816 2.816 0 0 1-.07-.187 2.816 2.816 0 0 1-.077-.272 2.816 2.816 0 0 1-.049-.275 2.816 2.816 0 0 1-.02-.282 2.816 2.816 0 0 1 .007-.28 2.816 2.816 0 0 1 .037-.28 2.816 2.816 0 0 1 .062-.276 2.816 2.816 0 0 1 .09-.265 2.816 2.816 0 0 1 .117-.256 2.816 2.816 0 0 1 .141-.244 2.816 2.816 0 0 1 .166-.229 2.816 2.816 0 0 1 .187-.209 2.816 2.816 0 0 1 .208-.191 2.816 2.816 0 0 1 .224-.168 2.816 2.816 0 0 1 .24-.147 2.816 2.816 0 0 1 .254-.12 2.816 2.816 0 0 1 .188-.07 2.816 2.816 0 0 1 .27-.077 2.816 2.816 0 0 1 .277-.047 2.816 2.816 0 0 1 .28-.021z" fill="#f2f2f2"/><path d="M23.016 10.394a2.816 2.816 0 0 0-.282.02 2.816 2.816 0 0 0-.277.049 2.816 2.816 0 0 0-.271.076 2.816 2.816 0 0 0-.186.07 2.816 2.816 0 0 0-.254.121 2.816 2.816 0 0 0-.242.145 2.816 2.816 0 0 0-.225.17 2.816 2.816 0 0 0-.207.19 2.816 2.816 0 0 0-.187.21 2.816 2.816 0 0 0-.164.229 2.816 2.816 0 0 0-.14.242 2.816 2.816 0 0 0-.118.258 2.816 2.816 0 0 0-.09.265 2.816 2.816 0 0 0-.064.274 2.816 2.816 0 0 0-.036.28 2.816 2.816 0 0 0-.007.28 2.816 2.816 0 0 0 .021.282 2.816 2.816 0 0 0 .049.277 2.816 2.816 0 0 0 .076.271 2.816 2.816 0 0 0 .068.186 2.816 2.816 0 0 0 .122.254 2.816 2.816 0 0 0 .146.242 2.816 2.816 0 0 0 .168.225 2.816 2.816 0 0 0 .191.207 2.816 2.816 0 0 0 .211.187 2.816 2.816 0 0 0 .227.164 2.816 2.816 0 0 0 .244.143 2.816 2.816 0 0 0 .256.115 2.816 2.816 0 0 0 .268.092 2.816 2.816 0 0 0 .273.062 2.816 2.816 0 0 0 .28.036 2.816 2.816 0 0 0 .28.007 2.816 2.816 0 0 0 .282-.021 2.816 2.816 0 0 0 .277-.047 2.816 2.816 0 0 0 .27-.076 2.816 2.816 0 0 0 .187-.07 2.816 2.816 0 0 0 .254-.122 2.816 2.816 0 0 0 .24-.146 2.816 2.816 0 0 0 .227-.168 2.816 2.816 0 0 0 .207-.191 2.816 2.816 0 0 0 .185-.211 2.816 2.816 0 0 0 .166-.227 2.816 2.816 0 0 0 .141-.244 2.816 2.816 0 0 0 .117-.256 2.816 2.816 0 0 0 .09-.267 2.816 2.816 0 0 0 .063-.274 2.816 2.816 0 0 0 .037-.28 2.816 2.816 0 0 0 .007-.28 2.816 2.816 0 0 0-.021-.282 2.816 2.816 0 0 0-.049-.277 2.816 2.816 0 0 0-.076-.27 2.816 2.816 0 0 0-.07-.187 2.816 2.816 0 0 0-.121-.254 2.816 2.816 0 0 0-.145-.24 2.816 2.816 0 0 0-.17-.225 2.816 2.816 0 0 0-.19-.207 2.816 2.816 0 0 0-.21-.187 2.816 2.816 0 0 0-.229-.166 2.816 2.816 0 0 0-.242-.141 2.816 2.816 0 0 0-.256-.117 2.816 2.816 0 0 0-.267-.09 2.816 2.816 0 0 0-.274-.063 2.816 2.816 0 0 0-.28-.037 2.816 2.816 0 0 0-.28-.006z" fill="#ccc"/><path d="M23.016 10.394a2.816 2.816 0 0 1 .28.006 2.816 2.816 0 0 1 .28.037 2.816 2.816 0 0 1 .274.063 2.816 2.816 0 0 1 .267.09 2.816 2.816 0 0 1 .256.117 2.816 2.816 0 0 1 .242.14 2.816 2.816 0 0 1 .229.167 2.816 2.816 0 0 1 .21.187 2.816 2.816 0 0 1 .19.207 2.816 2.816 0 0 1 .17.225 2.816 2.816 0 0 1 .145.24 2.816 2.816 0 0 1 .12.254 2.816 2.816 0 0 1 .071.187 2.816 2.816 0 0 1 .076.27 2.816 2.816 0 0 1 .049.277 2.816 2.816 0 0 1 .021.282 2.816 2.816 0 0 1-.007.28 2.816 2.816 0 0 1-.037.28 2.816 2.816 0 0 1-.063.274 2.816 2.816 0 0 1-.09.267 2.816 2.816 0 0 1-.117.256 2.816 2.816 0 0 1-.14.244 2.816 2.816 0 0 1-.167.227 2.816 2.816 0 0 1-.185.21 2.816 2.816 0 0 1-.207.192 2.816 2.816 0 0 1-.227.168 2.816 2.816 0 0 1-.24.146 2.816 2.816 0 0 1-.254.122 2.816 2.816 0 0 1-.187.07 2.816 2.816 0 0 1-.27.076 2.816 2.816 0 0 1-.277.047 2.816 2.816 0 0 1-.282.021 2.816 2.816 0 0 1-.28-.007 2.816 2.816 0 0 1-.28-.036 2.816 2.816 0 0 1-.273-.062 2.816 2.816 0 0 1-.268-.092 2.816 2.816 0 0 1-.256-.115 2.816 2.816 0 0 1-.244-.143 2.816 2.816 0 0 1-.227-.164 2.816 2.816 0 0 1-.21-.187 2.816 2.816 0 0 1-.192-.207 2.816 2.816 0 0 1-.168-.225 2.816 2.816 0 0 1-.146-.242 2.816 2.816 0 0 1-.122-.254 2.816 2.816 0 0 1-.068-.186 2.816 2.816 0 0 1-.076-.271 2.816 2.816 0 0 1-.049-.277 2.816 2.816 0 0 1-.021-.282 2.816 2.816 0 0 1 .007-.28 2.816 2.816 0 0 1 .036-.28 2.816 2.816 0 0 1 .064-.274 2.816 2.816 0 0 1 .09-.265 2.816 2.816 0 0 1 .117-.258 2.816 2.816 0 0 1 .14-.242 2.816 2.816 0 0 1 .165-.229 2.816 2.816 0 0 1 .187-.21 2.816 2.816 0 0 1 .207-.19 2.816 2.816 0 0 1 .225-.17 2.816 2.816 0 0 1 .242-.145 2.816 2.816 0 0 1 .254-.12 2.816 2.816 0 0 1 .186-.071 2.816 2.816 0 0 1 .271-.076 2.816 2.816 0 0 1 .277-.049 2.816 2.816 0 0 1 .282-.02zM7.312 9.3a2.816 2.816 0 0 0-.279.022 2.816 2.816 0 0 0-.277.049 2.816 2.816 0 0 0-.272.076 2.816 2.816 0 0 0-.185.069 2.816 2.816 0 0 0-.256.12 2.816 2.816 0 0 0-.24.147 2.816 2.816 0 0 0-.225.168 2.816 2.816 0 0 0-.207.192 2.816 2.816 0 0 0-.187.21 2.816 2.816 0 0 0-.164.227 2.816 2.816 0 0 0-.143.244 2.816 2.816 0 0 0-.115.256 2.816 2.816 0 0 0-.092.268 2.816 2.816 0 0 0-.063.273 2.816 2.816 0 0 0-.035.28 2.816 2.816 0 0 0-.008.28 2.816 2.816 0 0 0 .022.282 2.816 2.816 0 0 0 .047.277 2.816 2.816 0 0 0 .076.27 2.816 2.816 0 0 0 .07.187 2.816 2.816 0 0 0 .121.254 2.816 2.816 0 0 0 .147.24 2.816 2.816 0 0 0 .168.227 2.816 2.816 0 0 0 .191.207 2.816 2.816 0 0 0 .21.185 2.816 2.816 0 0 0 .228.166 2.816 2.816 0 0 0 .244.141 2.816 2.816 0 0 0 .256.117 2.816 2.816 0 0 0 .265.09 2.816 2.816 0 0 0 .276.063 2.816 2.816 0 0 0 .28.037 2.816 2.816 0 0 0 .28.008 2.816 2.816 0 0 0 .282-.022 2.816 2.816 0 0 0 .275-.049 2.816 2.816 0 0 0 .271-.076 2.816 2.816 0 0 0 .188-.07 2.816 2.816 0 0 0 .254-.121 2.816 2.816 0 0 0 .24-.145 2.816 2.816 0 0 0 .225-.17 2.816 2.816 0 0 0 .207-.19 2.816 2.816 0 0 0 .187-.21 2.816 2.816 0 0 0 .166-.229 2.816 2.816 0 0 0 .14-.242 2.816 2.816 0 0 0 .118-.256 2.816 2.816 0 0 0 .09-.267 2.816 2.816 0 0 0 .062-.274 2.816 2.816 0 0 0 .036-.279 2.816 2.816 0 0 0 .007-.281 2.816 2.816 0 0 0-.02-.282 2.816 2.816 0 0 0-.048-.277 2.816 2.816 0 0 0-.076-.271 2.816 2.816 0 0 0-.07-.186 2.816 2.816 0 0 0-.122-.254 2.816 2.816 0 0 0-.144-.242 2.816 2.816 0 0 0-.17-.225 2.816 2.816 0 0 0-.19-.207 2.816 2.816 0 0 0-.21-.187 2.816 2.816 0 0 0-.229-.164 2.816 2.816 0 0 0-.242-.143 2.816 2.816 0 0 0-.258-.115 2.816 2.816 0 0 0-.266-.09 2.816 2.816 0 0 0-.275-.064 2.816 2.816 0 0 0-.277-.035 2.816 2.816 0 0 0-.284-.008zM13.812 6.598a2.816 2.816 0 0 0-.28.021 2.816 2.816 0 0 0-.276.049 2.816 2.816 0 0 0-.272.076 2.816 2.816 0 0 0-.187.068 2.816 2.816 0 0 0-.254.122 2.816 2.816 0 0 0-.24.146 2.816 2.816 0 0 0-.225.168 2.816 2.816 0 0 0-.207.191 2.816 2.816 0 0 0-.187.211 2.816 2.816 0 0 0-.166.227 2.816 2.816 0 0 0-.141.244 2.816 2.816 0 0 0-.117.256 2.816 2.816 0 0 0-.09.267 2.816 2.816 0 0 0-.063.274 2.816 2.816 0 0 0-.035.28 2.816 2.816 0 0 0-.008.28 2.816 2.816 0 0 0 .02.282 2.816 2.816 0 0 0 .049.277 2.816 2.816 0 0 0 .076.27 2.816 2.816 0 0 0 .07.187 2.816 2.816 0 0 0 .121.254 2.816 2.816 0 0 0 .145.24 2.816 2.816 0 0 0 .17.227 2.816 2.816 0 0 0 .19.207 2.816 2.816 0 0 0 .21.185 2.816 2.816 0 0 0 .229.166 2.816 2.816 0 0 0 .242.141 2.816 2.816 0 0 0 .258.117 2.816 2.816 0 0 0 .265.09 2.816 2.816 0 0 0 .274.063 2.816 2.816 0 0 0 .28.037 2.816 2.816 0 0 0 .28.007 2.816 2.816 0 0 0 .282-.021 2.816 2.816 0 0 0 .277-.049 2.816 2.816 0 0 0 .271-.076 2.816 2.816 0 0 0 .186-.07 2.816 2.816 0 0 0 .256-.121 2.816 2.816 0 0 0 .24-.145 2.816 2.816 0 0 0 .225-.17 2.816 2.816 0 0 0 .207-.19 2.816 2.816 0 0 0 .187-.21 2.816 2.816 0 0 0 .164-.229 2.816 2.816 0 0 0 .143-.242 2.816 2.816 0 0 0 .115-.256 2.816 2.816 0 0 0 .092-.267 2.816 2.816 0 0 0 .062-.274 2.816 2.816 0 0 0 .036-.28 2.816 2.816 0 0 0 .007-.28 2.816 2.816 0 0 0-.021-.282 2.816 2.816 0 0 0-.047-.277 2.816 2.816 0 0 0-.076-.271 2.816 2.816 0 0 0-.07-.186 2.816 2.816 0 0 0-.122-.254 2.816 2.816 0 0 0-.146-.242 2.816 2.816 0 0 0-.168-.225 2.816 2.816 0 0 0-.191-.207 2.816 2.816 0 0 0-.211-.187 2.816 2.816 0 0 0-.227-.164 2.816 2.816 0 0 0-.244-.143 2.816 2.816 0 0 0-.256-.115 2.816 2.816 0 0 0-.266-.09 2.816 2.816 0 0 0-.275-.064 2.816 2.816 0 0 0-.28-.036 2.816 2.816 0 0 0-.28-.007zM20.312 3.894a2.816 2.816 0 0 0-.28.022 2.816 2.816 0 0 0-.278.049 2.816 2.816 0 0 0-.272.074 2.816 2.816 0 0 0-.185.07 2.816 2.816 0 0 0-.254.121 2.816 2.816 0 0 0-.242.147 2.816 2.816 0 0 0-.225.168 2.816 2.816 0 0 0-.207.191 2.816 2.816 0 0 0-.187.211 2.816 2.816 0 0 0-.164.227 2.816 2.816 0 0 0-.143.244 2.816 2.816 0 0 0-.115.256 2.816 2.816 0 0 0-.09.267 2.816 2.816 0 0 0-.065.274 2.816 2.816 0 0 0-.035.28 2.816 2.816 0 0 0-.007.28 2.816 2.816 0 0 0 .021.282 2.816 2.816 0 0 0 .049.277 2.816 2.816 0 0 0 .076.27 2.816 2.816 0 0 0 .068.187 2.816 2.816 0 0 0 .121.254 2.816 2.816 0 0 0 .147.24 2.816 2.816 0 0 0 .168.227 2.816 2.816 0 0 0 .191.207 2.816 2.816 0 0 0 .211.185 2.816 2.816 0 0 0 .227.166 2.816 2.816 0 0 0 .244.14 2.816 2.816 0 0 0 .256.118 2.816 2.816 0 0 0 .267.09 2.816 2.816 0 0 0 .274.062 2.816 2.816 0 0 0 .28.038 2.816 2.816 0 0 0 .28.005 2.816 2.816 0 0 0 .282-.02 2.816 2.816 0 0 0 .277-.048 2.816 2.816 0 0 0 .27-.076 2.816 2.816 0 0 0 .187-.07 2.816 2.816 0 0 0 .254-.122 2.816 2.816 0 0 0 .24-.144 2.816 2.816 0 0 0 .227-.17 2.816 2.816 0 0 0 .207-.19 2.816 2.816 0 0 0 .185-.21 2.816 2.816 0 0 0 .166-.229 2.816 2.816 0 0 0 .14-.242 2.816 2.816 0 0 0 .118-.256 2.816 2.816 0 0 0 .09-.268 2.816 2.816 0 0 0 .062-.273 2.816 2.816 0 0 0 .038-.28 2.816 2.816 0 0 0 .007-.28 2.816 2.816 0 0 0-.021-.282 2.816 2.816 0 0 0-.049-.277 2.816 2.816 0 0 0-.076-.272 2.816 2.816 0 0 0-.07-.185 2.816 2.816 0 0 0-.122-.254 2.816 2.816 0 0 0-.144-.242 2.816 2.816 0 0 0-.17-.225 2.816 2.816 0 0 0-.19-.207 2.816 2.816 0 0 0-.21-.187 2.816 2.816 0 0 0-.229-.164 2.816 2.816 0 0 0-.242-.143 2.816 2.816 0 0 0-.256-.115 2.816 2.816 0 0 0-.268-.09 2.816 2.816 0 0 0-.273-.065 2.816 2.816 0 0 0-.28-.035 2.816 2.816 0 0 0-.28-.008zM8.553 1.898a2.816 2.816 0 0 0-.086.246 2.816 2.816 0 0 0-.063.274 2.816 2.816 0 0 0-.035.28 2.816 2.816 0 0 0-.008.28 2.816 2.816 0 0 0 .02.282 2.816 2.816 0 0 0 .049.277 2.816 2.816 0 0 0 .076.272 2.816 2.816 0 0 0 .07.187 2.816 2.816 0 0 0 .121.254 2.816 2.816 0 0 0 .147.24 2.816 2.816 0 0 0 .168.225 2.816 2.816 0 0 0 .191.207 2.816 2.816 0 0 0 .21.187 2.816 2.816 0 0 0 .228.164 2.816 2.816 0 0 0 .244.143 2.816 2.816 0 0 0 .256.117 2.816 2.816 0 0 0 .265.09 2.816 2.816 0 0 0 .276.062 2.816 2.816 0 0 0 .279.036 2.816 2.816 0 0 0 .281.007 2.816 2.816 0 0 0 .28-.02 2.816 2.816 0 0 0 .277-.048 2.816 2.816 0 0 0 .271-.076 2.816 2.816 0 0 0 .188-.07 2.816 2.816 0 0 0 .254-.121 2.816 2.816 0 0 0 .24-.147 2.816 2.816 0 0 0 .225-.168 2.816 2.816 0 0 0 .207-.191 2.816 2.816 0 0 0 .187-.211 2.816 2.816 0 0 0 .166-.227 2.816 2.816 0 0 0 .14-.244 2.816 2.816 0 0 0 .118-.256 2.816 2.816 0 0 0 .09-.267 2.816 2.816 0 0 0 .062-.274 2.816 2.816 0 0 0 .035-.28 2.816 2.816 0 0 0 .008-.28 2.816 2.816 0 0 0-.021-.282 2.816 2.816 0 0 0-.047-.277 2.816 2.816 0 0 0-.076-.27 2.816 2.816 0 0 0-.045-.12zM2.062 6.656a2.816 2.816 0 0 0 .016.043 2.816 2.816 0 0 0 .12.254 2.816 2.816 0 0 0 .146.24 2.816 2.816 0 0 0 .17.225 2.816 2.816 0 0 0 .19.207 2.816 2.816 0 0 0 .21.187 2.816 2.816 0 0 0 .227.166 2.816 2.816 0 0 0 .244.141 2.816 2.816 0 0 0 .256.117 2.816 2.816 0 0 0 .267.09 2.816 2.816 0 0 0 .274.063 2.816 2.816 0 0 0 .279.037 2.816 2.816 0 0 0 .281.006 2.816 2.816 0 0 0 .281-.02 2.816 2.816 0 0 0 .278-.049 2.816 2.816 0 0 0 .27-.076 2.816 2.816 0 0 0 .187-.07 2.816 2.816 0 0 0 .254-.121 2.816 2.816 0 0 0 .242-.145 2.816 2.816 0 0 0 .225-.17 2.816 2.816 0 0 0 .207-.19 2.816 2.816 0 0 0 .187-.21 2.816 2.816 0 0 0 .164-.229 2.816 2.816 0 0 0 .14-.242 2.816 2.816 0 0 0 .118-.256 2.816 2.816 0 0 0 .09-.267 2.816 2.816 0 0 0 .064-.274 2.816 2.816 0 0 0 .035-.28 2.816 2.816 0 0 0 .008-.28 2.816 2.816 0 0 0-.021-.282 2.816 2.816 0 0 0-.05-.277 2.816 2.816 0 0 0-.073-.271 2.816 2.816 0 0 0-.07-.188 2.816 2.816 0 0 0-.122-.254 2.816 2.816 0 0 0-.146-.24 2.816 2.816 0 0 0-.168-.225 2.816 2.816 0 0 0-.192-.207 2.816 2.816 0 0 0-.21-.187 2.816 2.816 0 0 0-.227-.164 2.816 2.816 0 0 0-.244-.143 2.816 2.816 0 0 0-.256-.117 2.816 2.816 0 0 0-.268-.09 2.816 2.816 0 0 0-.273-.062 2.816 2.816 0 0 0-.28-.036 2.816 2.816 0 0 0-.28-.007 2.816 2.816 0 0 0-.008 0 5.427 5.427 0 0 0-2.541 3.853zM1.898 17.441a2.816 2.816 0 0 0 .063-.023 2.816 2.816 0 0 0 .254-.12 2.816 2.816 0 0 0 .242-.146 2.816 2.816 0 0 0 .225-.17 2.816 2.816 0 0 0 .207-.19 2.816 2.816 0 0 0 .187-.21 2.816 2.816 0 0 0 .164-.229 2.816 2.816 0 0 0 .143-.242 2.816 2.816 0 0 0 .115-.256 2.816 2.816 0 0 0 .09-.267 2.816 2.816 0 0 0 .064-.274 2.816 2.816 0 0 0 .035-.279 2.816 2.816 0 0 0 .008-.281 2.816 2.816 0 0 0-.021-.281 2.816 2.816 0 0 0-.049-.278 2.816 2.816 0 0 0-.076-.271 2.816 2.816 0 0 0-.069-.186 2.816 2.816 0 0 0-.12-.254 2.816 2.816 0 0 0-.147-.242 2.816 2.816 0 0 0-.168-.224 2.816 2.816 0 0 0-.192-.208 2.816 2.816 0 0 0-.21-.187 2.816 2.816 0 0 0-.227-.164 2.816 2.816 0 0 0-.244-.14 2.816 2.816 0 0 0-.256-.118 2.816 2.816 0 0 0-.018-.006zM1.898 23.57a2.816 2.816 0 0 0 .15.11 2.816 2.816 0 0 0 .243.14 2.816 2.816 0 0 0 .256.117 2.816 2.816 0 0 0 .267.09 2.816 2.816 0 0 0 .274.065 2.816 2.816 0 0 0 .28.035 2.816 2.816 0 0 0 .28.008 2.816 2.816 0 0 0 .282-.022 2.816 2.816 0 0 0 .277-.049 2.816 2.816 0 0 0 .272-.076 2.816 2.816 0 0 0 .185-.07 2.816 2.816 0 0 0 .254-.12 2.816 2.816 0 0 0 .242-.146 2.816 2.816 0 0 0 .225-.17 2.816 2.816 0 0 0 .207-.19 2.816 2.816 0 0 0 .185-.21 2.816 2.816 0 0 0 .166-.229 2.816 2.816 0 0 0 .141-.242 2.816 2.816 0 0 0 .117-.256 2.816 2.816 0 0 0 .09-.267 2.816 2.816 0 0 0 .064-.274 2.816 2.816 0 0 0 .036-.279 2.816 2.816 0 0 0 .007-.281 2.816 2.816 0 0 0-.021-.281 2.816 2.816 0 0 0-.049-.278 2.816 2.816 0 0 0-.076-.271 2.816 2.816 0 0 0-.068-.186 2.816 2.816 0 0 0-.122-.254 2.816 2.816 0 0 0-.146-.242 2.816 2.816 0 0 0-.17-.224 2.816 2.816 0 0 0-.19-.208 2.816 2.816 0 0 0-.21-.187 2.816 2.816 0 0 0-.229-.164 2.816 2.816 0 0 0-.242-.14 2.816 2.816 0 0 0-.256-.118 2.816 2.816 0 0 0-.267-.09 2.816 2.816 0 0 0-.274-.064 2.816 2.816 0 0 0-.28-.035 2.816 2.816 0 0 0-.28-.008 2.816 2.816 0 0 0-.282.021 2.816 2.816 0 0 0-.277.05 2.816 2.816 0 0 0-.272.075 2.816 2.816 0 0 0-.185.069 2.816 2.816 0 0 0-.254.12 2.816 2.816 0 0 0-.24.147 2.816 2.816 0 0 0-.11.082zM7.926 30.102a2.816 2.816 0 0 0 .16-.12 2.816 2.816 0 0 0 .207-.191 2.816 2.816 0 0 0 .187-.211 2.816 2.816 0 0 0 .165-.227 2.816 2.816 0 0 0 .142-.244 2.816 2.816 0 0 0 .115-.256 2.816 2.816 0 0 0 .092-.265 2.816 2.816 0 0 0 .063-.276 2.816 2.816 0 0 0 .035-.279 2.816 2.816 0 0 0 .008-.281 2.816 2.816 0 0 0-.02-.281 2.816 2.816 0 0 0-.049-.278 2.816 2.816 0 0 0-.076-.27 2.816 2.816 0 0 0-.07-.187 2.816 2.816 0 0 0-.121-.254 2.816 2.816 0 0 0-.147-.242 2.816 2.816 0 0 0-.168-.224 2.816 2.816 0 0 0-.191-.207 2.816 2.816 0 0 0-.21-.188 2.816 2.816 0 0 0-.228-.164 2.816 2.816 0 0 0-.244-.143 2.816 2.816 0 0 0-.256-.115 2.816 2.816 0 0 0-.265-.092 2.816 2.816 0 0 0-.276-.062 2.816 2.816 0 0 0-.279-.035 2.816 2.816 0 0 0-.281-.008 2.816 2.816 0 0 0-.28.02 2.816 2.816 0 0 0-.277.048 2.816 2.816 0 0 0-.271.076 2.816 2.816 0 0 0-.188.07 2.816 2.816 0 0 0-.254.122 2.816 2.816 0 0 0-.24.146 2.816 2.816 0 0 0-.227.168 2.816 2.816 0 0 0-.207.192 2.816 2.816 0 0 0-.185.209 2.816 2.816 0 0 0-.166.228 2.816 2.816 0 0 0-.14.244 2.816 2.816 0 0 0-.118.256 2.816 2.816 0 0 0-.09.266 2.816 2.816 0 0 0-.064.275 2.816 2.816 0 0 0-.035.28 2.816 2.816 0 0 0-.008.28 2.816 2.816 0 0 0 .021.28 2.816 2.816 0 0 0 .05.277 2.816 2.816 0 0 0 .013.051 5.551 5.551 0 0 0 3.92 1.612zM17.857 30.102a2.816 2.816 0 0 0-.04-.067 2.816 2.816 0 0 0-.17-.225 2.816 2.816 0 0 0-.19-.207 2.816 2.816 0 0 0-.21-.187 2.816 2.816 0 0 0-.23-.166 2.816 2.816 0 0 0-.242-.14 2.816 2.816 0 0 0-.255-.118 2.816 2.816 0 0 0-.268-.09 2.816 2.816 0 0 0-.273-.062 2.816 2.816 0 0 0-.28-.037 2.816 2.816 0 0 0-.281-.006 2.816 2.816 0 0 0-.281.02 2.816 2.816 0 0 0-.278.048 2.816 2.816 0 0 0-.271.076 2.816 2.816 0 0 0-.186.07 2.816 2.816 0 0 0-.254.122 2.816 2.816 0 0 0-.242.144 2.816 2.816 0 0 0-.224.17 2.816 2.816 0 0 0-.207.19 2.816 2.816 0 0 0-.188.21 2.816 2.816 0 0 0-.164.23 2.816 2.816 0 0 0-.016.024zM24.53 30.102a2.816 2.816 0 0 0 .07-.159 2.816 2.816 0 0 0 .091-.267 2.816 2.816 0 0 0 .063-.274 2.816 2.816 0 0 0 .035-.279 2.816 2.816 0 0 0 .008-.281 2.816 2.816 0 0 0-.02-.282 2.816 2.816 0 0 0-.048-.277 2.816 2.816 0 0 0-.077-.27 2.816 2.816 0 0 0-.07-.187 2.816 2.816 0 0 0-.121-.254 2.816 2.816 0 0 0-.147-.24 2.816 2.816 0 0 0-.168-.227 2.816 2.816 0 0 0-.19-.207 2.816 2.816 0 0 0-.21-.185 2.816 2.816 0 0 0-.228-.166 2.816 2.816 0 0 0-.245-.14 2.816 2.816 0 0 0-.255-.118 2.816 2.816 0 0 0-.266-.09 2.816 2.816 0 0 0-.275-.062 2.816 2.816 0 0 0-.28-.037 2.816 2.816 0 0 0-.281-.006 2.816 2.816 0 0 0-.28.02 2.816 2.816 0 0 0-.277.048 2.816 2.816 0 0 0-.271.076 2.816 2.816 0 0 0-.188.07 2.816 2.816 0 0 0-.254.122 2.816 2.816 0 0 0-.24.144 2.816 2.816 0 0 0-.224.17 2.816 2.816 0 0 0-.207.19 2.816 2.816 0 0 0-.188.21 2.816 2.816 0 0 0-.164.229 2.816 2.816 0 0 0-.143.242 2.816 2.816 0 0 0-.117.256 2.816 2.816 0 0 0-.09.268 2.816 2.816 0 0 0-.062.273 2.816 2.816 0 0 0-.035.28 2.816 2.816 0 0 0-.008.28 2.816 2.816 0 0 0 .02.282 2.816 2.816 0 0 0 .048.277 2.816 2.816 0 0 0 .077.272 2.816 2.816 0 0 0 .07.185 2.816 2.816 0 0 0 .055.113H24.529zM30.102 23.906a2.816 2.816 0 0 0-.086-.062 2.816 2.816 0 0 0-.243-.14 2.816 2.816 0 0 0-.255-.118 2.816 2.816 0 0 0-.268-.09 2.816 2.816 0 0 0-.273-.062 2.816 2.816 0 0 0-.28-.038 2.816 2.816 0 0 0-.281-.007 2.816 2.816 0 0 0-.281.021 2.816 2.816 0 0 0-.278.049 2.816 2.816 0 0 0-.271.076 2.816 2.816 0 0 0-.186.07 2.816 2.816 0 0 0-.254.122 2.816 2.816 0 0 0-.242.144 2.816 2.816 0 0 0-.224.17 2.816 2.816 0 0 0-.207.19 2.816 2.816 0 0 0-.186.21 2.816 2.816 0 0 0-.166.229 2.816 2.816 0 0 0-.14.242 2.816 2.816 0 0 0-.118.256 2.816 2.816 0 0 0-.09.267 2.816 2.816 0 0 0-.064.274 2.816 2.816 0 0 0-.035.28 2.816 2.816 0 0 0-.008.28 2.816 2.816 0 0 0 .022.282 2.816 2.816 0 0 0 .048.277 2.816 2.816 0 0 0 .077.272 2.816 2.816 0 0 0 .068.185 2.816 2.816 0 0 0 .121.254 2.816 2.816 0 0 0 .146.242 2.816 2.816 0 0 0 .17.225 2.816 2.816 0 0 0 .19.207 2.816 2.816 0 0 0 .21.187 2.816 2.816 0 0 0 .23.164 2.816 2.816 0 0 0 .241.143 2.816 2.816 0 0 0 .256.115 2.816 2.816 0 0 0 .268.09 2.816 2.816 0 0 0 .08.02c1.368-1.015 2.309-2.564 2.309-4.405zM30.102 15.22a2.816 2.816 0 0 0-.018.02 2.816 2.816 0 0 0-.164.229 2.816 2.816 0 0 0-.143.244 2.816 2.816 0 0 0-.115.256 2.816 2.816 0 0 0-.09.265 2.816 2.816 0 0 0-.064.276 2.816 2.816 0 0 0-.035.279 2.816 2.816 0 0 0-.008.281 2.816 2.816 0 0 0 .021.28 2.816 2.816 0 0 0 .05.277 2.816 2.816 0 0 0 .073.271 2.816 2.816 0 0 0 .07.188 2.816 2.816 0 0 0 .122.254 2.816 2.816 0 0 0 .146.24 2.816 2.816 0 0 0 .155.207zM30.102 7.74a2.816 2.816 0 0 0-.028-.006 2.816 2.816 0 0 0-.28-.037 2.816 2.816 0 0 0-.28-.006 2.816 2.816 0 0 0-.28.02 2.816 2.816 0 0 0-.277.049 2.816 2.816 0 0 0-.271.076 2.816 2.816 0 0 0-.188.07 2.816 2.816 0 0 0-.254.121 2.816 2.816 0 0 0-.24.145 2.816 2.816 0 0 0-.225.17 2.816 2.816 0 0 0-.207.19 2.816 2.816 0 0 0-.187.21 2.816 2.816 0 0 0-.166.229 2.816 2.816 0 0 0-.14.242 2.816 2.816 0 0 0-.118.258 2.816 2.816 0 0 0-.09.265 2.816 2.816 0 0 0-.062.274 2.816 2.816 0 0 0-.036.279 2.816 2.816 0 0 0-.007.281 2.816 2.816 0 0 0 .02.281 2.816 2.816 0 0 0 .048.278 2.816 2.816 0 0 0 .076.271 2.816 2.816 0 0 0 .07.186 2.816 2.816 0 0 0 .122.254 2.816 2.816 0 0 0 .144.242 2.816 2.816 0 0 0 .17.225 2.816 2.816 0 0 0 .191.207 2.816 2.816 0 0 0 .21.187 2.816 2.816 0 0 0 .228.164 2.816 2.816 0 0 0 .244.143 2.816 2.816 0 0 0 .256.115 2.816 2.816 0 0 0 .266.09 2.816 2.816 0 0 0 .275.064 2.816 2.816 0 0 0 .28.035 2.816 2.816 0 0 0 .28.008 2.816 2.816 0 0 0 .28-.021 2.816 2.816 0 0 0 .176-.031zM24.926 1.978a2.816 2.816 0 0 0-.059.055 2.816 2.816 0 0 0-.187.211 2.816 2.816 0 0 0-.164.227 2.816 2.816 0 0 0-.143.244 2.816 2.816 0 0 0-.115.256 2.816 2.816 0 0 0-.09.265 2.816 2.816 0 0 0-.064.276 2.816 2.816 0 0 0-.036.279 2.816 2.816 0 0 0-.007.281 2.816 2.816 0 0 0 .021.28 2.816 2.816 0 0 0 .047.277 2.816 2.816 0 0 0 .076.271 2.816 2.816 0 0 0 .07.188 2.816 2.816 0 0 0 .121.254 2.816 2.816 0 0 0 .147.24 2.816 2.816 0 0 0 .168.227 2.816 2.816 0 0 0 .191.207 2.816 2.816 0 0 0 .21.185 2.816 2.816 0 0 0 .228.166 2.816 2.816 0 0 0 .244.14 2.816 2.816 0 0 0 .256.118 2.816 2.816 0 0 0 .265.09 2.816 2.816 0 0 0 .276.062 2.816 2.816 0 0 0 .28.037 2.816 2.816 0 0 0 .28.008 2.816 2.816 0 0 0 .28-.021 2.816 2.816 0 0 0 .277-.05 2.816 2.816 0 0 0 .272-.075 2.816 2.816 0 0 0 .187-.07 2.816 2.816 0 0 0 .254-.122 2.816 2.816 0 0 0 .24-.144 2.816 2.816 0 0 0 .227-.17 2.816 2.816 0 0 0 .207-.19 2.816 2.816 0 0 0 .185-.21 2.816 2.816 0 0 0 .166-.229 2.816 2.816 0 0 0 .141-.242 2.816 2.816 0 0 0 .115-.254 5.495 5.495 0 0 0-4.566-3.067zM15.426 1.898a2.816 2.816 0 0 0 .086.114 2.816 2.816 0 0 0 .191.207 2.816 2.816 0 0 0 .21.187 2.816 2.816 0 0 0 .228.164 2.816 2.816 0 0 0 .244.143 2.816 2.816 0 0 0 .256.115 2.816 2.816 0 0 0 .265.092 2.816 2.816 0 0 0 .276.062 2.816 2.816 0 0 0 .279.036 2.816 2.816 0 0 0 .281.007 2.816 2.816 0 0 0 .28-.021 2.816 2.816 0 0 0 .277-.049 2.816 2.816 0 0 0 .271-.074 2.816 2.816 0 0 0 .186-.07 2.816 2.816 0 0 0 .254-.122 2.816 2.816 0 0 0 .24-.146 2.816 2.816 0 0 0 .227-.168 2.816 2.816 0 0 0 .207-.191 2.816 2.816 0 0 0 .185-.21 2.816 2.816 0 0 0 .055-.076z" fill="#f2f2f2"/></g></svg>