<svg xmlns="http://www.w3.org/2000/svg" height="32" width="32" version="1"><rect width="28.203" height="28.203" x="1.898" y="1.898" ry="5.575" fill="#00a4ef" fill-rule="evenodd"/><g transform="matrix(.62695 0 0 .62695 6.935 7.216)"><path d="M11.379.656C-3.646 6.8-2.533 18.85 2.905 25.52c6.075 7.453 20.3 7.934 26.24-3.885 4.277-9.616-2.8-13.964-8.94-12.635-1.466.008-2.67-.417-2.406-2.566.47-4.763-2.336-6.82-6.42-5.778zm.478 3.826a2.213 2.213 0 0 1 .655.1c.07.021.14.046.209.074a2.212 2.212 0 0 1 .386.213 2.213 2.213 0 0 1 .614.631 2.212 2.212 0 0 1 .35 1.195 2.225 2.225 0 0 1-.044.44 2.213 2.213 0 1 1-3.71-2.028 2.213 2.213 0 0 1 1.165-.593 2.213 2.213 0 0 1 .375-.032z" fill="#ecf0f1"/><circle r="2.95" cy="21.787" cx="7.177" fill="#00af67"/><circle r="2.95" cy="24.766" cx="14.44" fill="#1380b6"/><circle r="2.95" cy="22.27" cx="21.303" fill="#f89b36"/><circle r="2.95" cy="15.716" cx="25.333" fill="#c6362b"/><circle r="1.362" cy="21.22" cx="6.979" fill="#00ca77"/><circle r="1.362" cy="24.284" cx="14.014" fill="#1c99d8"/><circle r="1.362" cy="21.957" cx="20.652" fill="#f4c342"/><circle r="1.362" cy="15.319" cx="24.681" fill="#ee483c"/></g><path d="M17.85 14.497l1.077.637c1.949 3.208-3.313 5.575-4.895 3.426 2.74.32-.031-3.701 3.818-4.063z" fill="#94a5a6"/><path d="M17.85 14.497l.783-1.321 1.004.563-.71 1.395z" fill="#f89b36"/><path d="M18.633 13.176c1.794-3.469 3.28-9.086 5.605-8.836 1.676 2.03-2.477 6.063-4.601 9.399z" fill="#32495d"/></svg>