<svg xmlns="http://www.w3.org/2000/svg" height="32" width="32" version="1"><rect width="28.203" height="28.203" x="1.898" y="1.898" ry="5.575" fill="#fecd38" fill-rule="evenodd"/><path d="M16.024 4.61a1.041 1.068 0 0 0-.545.143L6.758 9.915a1.041 1.068 0 0 0-.521.924v10.323a1.041 1.068 0 0 0 .52.924l8.723 5.162a1.041 1.068 0 0 0 1.04 0l8.722-5.163a1.041 1.068 0 0 0 .521-.923V10.838a1.041 1.068 0 0 0-.521-.923L16.52 4.753a1.041 1.068 0 0 0-.496-.143z" fill="#fff"/><path d="M12.3 23.14c-.037-.037-.066-.169-.066-.295 0-.28-.153-.297-.295-.032-.168.313-.306.227-.275-.172.023-.287-.003-.36-.118-.33-.657.17-.661.164-.221-.315.47-.51.555-.819.196-.706a5.326 5.326 0 0 1-.786.121c-.956.088-1.941-.533-1.941-1.223 0-.291.508-.699 1.24-.994.372-.15.688-.336.701-.411.014-.076-.13-.239-.322-.362-.438-.282-.684-.677-.943-1.52-.299-.968-.233-2.644.148-3.747 1.32-3.827 5.155-5.413 8.775-3.63 2.316 1.14 3.99 2.947 4.355 4.7.099.475.089.577-.087.922-.232.453-.75.998-.95.998-.077 0-.26-.143-.408-.318-.388-.46-2.135-2.186-2.863-2.83l-.622-.549.069-.55c.066-.528.058-.557-.186-.668-.37-.168-.887-.003-.93.298-.025.17.102.367.488.757l.52.526-.585.002c-1.065.002-1.27.17-.747.61.388.326.523.612.49 1.038l-.03.36.465-.023c.356-.018.464.01.464.123 0 .08-.044.146-.099.146-.163 0-.11.277.074.385.134.079.144.12.046.185-.07.046-.098.157-.063.247.095.247-.1.203-.862-.196-.628-.33-.706-.406-.927-.904-.39-.882-.724-1.117-.724-.512 0 .15-.093.622-.207 1.049-.363 1.358-.405 1.217.367 1.217.774 0 1.334.131 1.519.353.135.163.152.61.043 1.187-.063.335-.056.345.185.285.235-.059.247-.045.191.233-.057.285-.047.295.297.295.196 0 .356.044.356.098 0 .054-.035.098-.08.098-.043 0-.164.063-.268.139-.186.135-.186.142-.004.343.213.234.188.243-.581.208-.581-.027-.703-.108-.79-.525-.101-.486-.326-.789-.486-.656-.304.251.284 1.288 1.015 1.79 1.034.71 2.212.876 3.297.465.738-.28 1.809-1.316 2.4-2.323.658-1.122.802-1.102.563.077-.399 1.961-1.75 3.436-3.731 4.074-.636.205-.99.256-1.777.257-1.64.003-2.58-.457-4.1-2.01-.955-.974-1.24-1.05-.75-.196l.313.547-.317.965c-.175.531-.33.966-.344.966-.014 0-.055-.03-.091-.066zm.435-5.29c-.852-1.701-1.042-2.386-1.042-3.765 0-1.034.022-1.17.264-1.626.732-1.385 2.296-2.193 4.249-2.197.915-.002 1.951.16 2.366.368.51.257 1.24.923 1.984 1.816.87 1.044.941 1.243.303.855-.177-.108-.417-.196-.534-.196-.378-.001-.518-.11-.583-.456-.046-.248-.183-.43-.512-.68-.745-.567-1.028-.312-.514.462.434.653 2.823 2.949 3.03 2.91.3-.055.529-.656.48-1.257-.083-1.018-.801-2.077-1.924-2.835-1.026-.692-2.97-1.576-3.845-1.748-2.791-.549-5.516 1.187-5.916 3.77-.24 1.546.617 3.591 2.222 5.301.266.284.5.5.52.48.02-.02-.226-.561-.548-1.202z" fill="#3f3f3f"/></svg>