<svg xmlns="http://www.w3.org/2000/svg" height="32" width="32" version="1"><rect width="28.203" height="28.203" x="1.898" y="1.898" ry="5.575" fill="#b28a63" fill-rule="evenodd"/><g transform="translate(46.812 -1.158)"><circle r="8" cx="-30.811" cy="17.158" fill="#fff"/><path d="M-38.31 10.76a11.727 4.112 29.547 0 0-2.691.996 11.727 4.112 29.547 0 0 8.115 9.352 11.727 4.112 29.547 0 0 12.269 2.251 11.727 4.112 29.547 0 0-2.29-5.026c-.026.171-.049.344-.086.512a9.382 3.525 29.496 0 1 .633 2.84 9.382 3.525 29.496 0 1-9.935-1.593 9.382 3.525 29.496 0 1-6.377-7.681 9.382 3.525 29.496 0 1 2.208-.895c.153-.154.31-.303.475-.444a11.727 4.112 29.547 0 0-2.32-.313z" fill="#fede7b"/></g></svg>