<svg xmlns="http://www.w3.org/2000/svg" height="32" width="32" version="1"><g transform="translate(55.186 -.678)"><path d="M-26.457 28.768l-.67.168h-24.148c-.113 0-.393-.096-.617-.133 1.02 1.187 2.483 1.977 4.18 1.977h17.052c1.711 0 3.182-.806 4.203-2.012z" fill="#999" fill-rule="evenodd"/><path d="M-25.115 25.36V14.649a1.4 1.4 0 0 0-.563-1.123l.006-.008L-39.2 3.58l-13.445 9.889v-.002c-.03.019-.057.042-.084.062l-.016.012v.002a1.402 1.402 0 0 0-.543 1.106v10.556c0 1.393.558 2.623 1.397 3.598.224.037.504.133.617.133h24.148l.67-.168c.79-.932 1.305-2.095 1.342-3.408z" fill="#fe9700" fill-rule="evenodd"/><path d="M-47.713 2.576a5.565 5.565 0 0 0-5.576 5.577v6.496c0-.451.215-.848.543-1.106v-.002l.016-.012c.027-.02.055-.043.084-.062v.002A95774.3 95774.3 0 0 0-39.201 3.58l13.53 9.938-.007.008a1.4 1.4 0 0 1 .563 1.123v10.71c.002-.054.031-.099.031-.154V8.153a5.565 5.565 0 0 0-5.576-5.577z" fill="#999" fill-rule="evenodd"/><rect x="-50.269" y="6.598" width="22.136" height="18.112" ry="1.508" rx="1.509" fill="#ebebeb"/><path d="M-25.115 25.36V14.649L-48.258 30.67c.189.02.352.11.545.11h17.053c3.034 0 5.459-2.408 5.545-5.42z" fill="#fecd38" fill-rule="evenodd"/><path d="M-39.201 24.4l-14.086-9.751v10.556c0 2.895 2.212 5.18 5.03 5.465z" fill="#fec006" fill-rule="evenodd"/><path d="M-39.186 9.712l-4 5h2v4.5c0 .326.183.5.5.5h3c.316 0 .5-.174.5-.5v-4.5h2z" fill="#848484"/></g></svg>