<svg xmlns="http://www.w3.org/2000/svg" height="32" width="32" version="1"><rect width="28.203" height="28.203" x="1.898" y="1.898" ry="5.575" fill="#f13c3c" fill-rule="evenodd"/><g fill="#fff" stroke-width="1.793"><g transform="matrix(.5577 0 0 .5577 2.614 2.06)"><rect rx="2" ry="2" height="4" width="26" y="16" x="15"/><path d="M13.988 11.988a1 1 0 0 0-.813.455c-1.02 1.526-2.087 3.575-3.11 5.44L8.9 15.553a1 1 0 0 0-1.79.895l2 4a1 1 0 0 0 1.762.052c1.3-2.248 2.772-5.16 3.965-6.943a1 1 0 0 0-.85-1.569z" color="#000" fill-rule="evenodd"/></g><g transform="matrix(.5577 0 0 .5577 2.614 2.619)"><rect rx="2" ry="2" height="4" width="26" y="24" x="15"/><circle cy="26" cx="10" r="2"/></g><g transform="matrix(.5577 0 0 .5577 2.614 3.176)"><rect rx="2" ry="2" height="4" width="26" y="32" x="15"/><circle cy="34" cx="10" r="2"/></g></g></svg>