<svg xmlns="http://www.w3.org/2000/svg" height="32" width="32" version="1"><rect width="28.203" height="28.203" x="1.898" y="1.898" ry="5.575" fill="#ccc" fill-rule="evenodd"/><g fill="#e74c3c"><path d="M13.701 12C12.214 12 11 13.117 11 14.5c0 .72.326 1.377.848 1.833L15.933 20l4.22-3.667A2.432 2.432 0 0 0 21 14.5c0-1.383-1.214-2.5-2.7-2.5-.98 0-1.829.481-2.3 1.208-.47-.727-1.32-1.208-2.299-1.208zM8.08 10c-.595 0-1.08.419-1.08.938 0 .269.13.516.34.687L8.972 13l1.688-1.375a.89.89 0 0 0 .339-.687c0-.519-.486-.938-1.08-.938-.392 0-.732.18-.92.453-.188-.273-.528-.453-.92-.453zM9.904 8.271H8.291L8.037 9H7l1.482-4h1.23l1.481 4h-1.037zM8.55 7.53h1.095l-.546-1.591-.55 1.591zM23.92 22c.594 0 1.08-.419 1.08-.938a.89.89 0 0 0-.339-.687L23.027 19l-1.688 1.375a.89.89 0 0 0-.339.687c0 .519.486.938 1.08.938.392 0 .732-.18.92-.453.188.273.528.453.92.453zM22.096 23.729h1.613l.254-.729H25l-1.482 4h-1.23l-1.481-4h1.037l.252.729zm1.356.742h-1.096l.546 1.592.55-1.592z"/></g></svg>