<svg xmlns="http://www.w3.org/2000/svg" height="32" width="32" version="1"><g transform="translate(67.119 2.983)"><path d="M-37.017 18.984H-65.22v2.56a5.563 5.563 0 0 0 5.576 5.575h17.053a5.561 5.561 0 0 0 5.574-5.575z" fill="#ccc" fill-rule="evenodd"/><path d="M-59.644-1.085a5.565 5.565 0 0 0-5.576 5.577v14.492h28.203V4.492a5.563 5.563 0 0 0-5.574-5.577z" fill="#239a69" fill-rule="evenodd"/><path d="M-54.337 5.236c-.245 0-.444.2-.444.445v9.11c0 .338.362.553.657.39l8.335-4.555a.445.445 0 0 0 0-.78l-7.502-4.099-.833-.455a.442.442 0 0 0-.213-.055z" fill="#fff"/><rect x="-47.119" y="21.796" width="8" height="2" ry="1" fill="#999"/><rect x="-63.119" y="21.796" width="16" height="2" ry="1" opacity=".99" fill="#239a69"/><circle r="2" cy="22.797" cx="-47.119" fill="#fff"/></g></svg>