<svg xmlns="http://www.w3.org/2000/svg" width="32" height="32" version="1"><defs><clipPath id="a" clipPathUnits="userSpaceOnUse"><circle cx="286" cy="26" r="10" fill="url(#linearGradient4190)"/></clipPath></defs><rect width="28.203" height="28.203" x="1.898" y="1.898" ry="5.575" fill="#2c80c2" fill-rule="evenodd"/><circle cx="16" cy="16" r="10.504" fill="#37a0f2"/><path d="M15.008 5.553a10.504 10.504 0 0 0-3.802 1.102c.053.169-.008.358-.202.526-.13.113-.238.29-.238.393 0 .314.285.798.512.868.302.094.2.416-.187.594-.18.083-.4.32-.491.527-.091.208-.225.413-.297.456-.072.043-.131.205-.131.361 0 .218.1.323.426.454.235.094.515.162.624.152.625-.059.67.306.122 1.018-.29.378-.43.473-.628.425-.184-.044-.285.008-.369.191-.088.194-.233.26-.622.286-.383.027-.554.105-.698.314-.105.153-.256.277-.336.277-.08 0-.27.103-.42.228-.308.255-.428.28-.535.114-.143-.22-.45-.11-.906.328-.404.387-.453.49-.392.826.108.597.432 1.127.802 1.311.323.162.33.18.134.386-.113.12-.306.247-.43.284-.355.108-.155.244.48.324.65.083.85.319.548.64-.17.178-.16.212.111.382.53.334.953.13.455-.219-.32-.224-.096-.315.373-.153.374.13.448.123.67-.07.454-.393.948.19.532.628-.264.28-.184.617.158.664.151.02.466.161.699.313.233.151.487.276.564.276.077 0 .293.154.481.341.381.381.593.43.7.161.13-.322.078-.489-.27-.868-.277-.303-.727-1.106-.727-1.299 0-.119.457-.018.714.157.16.11.42.25.576.315.167.068.34.28.42.513.123.364.172.396.609.396h.475l.071.853c.087 1.027.17 1.235.522 1.32.26.062.536.463.536.778 0 .083-.187.288-.414.454-.283.207-.405.382-.386.554.023.215-.025.248-.33.226-.195-.015-.535.054-.754.153a1.37 1.37 0 0 1-.802.106c-.303-.054-.406-.033-.406.085 0 .087-.105.25-.234.362-.32.277-.188.424.302.336.305-.055.424-.03.476.1.112.28-.172.679-.435.613-.166-.042-.247.015-.298.212a.496.496 0 0 1-.09.18 10.504 10.504 0 0 0 1.661.49.695.695 0 0 0-.17-.232c-.27-.191-.09-.688.283-.777.38-.092.32-.338-.093-.385-.362-.041-.747-.407-.626-.595.081-.126.427-.107 1.127.058.316.075.533-.075 1.265-.877.424-.464.75-.657 1.108-.657.136 0 .623-.125 1.082-.28.867-.289 1.205-.279 1.173.038-.066.658.358.637 1.049-.053.287-.288.55-.496.584-.463.132.126-.105.743-.382.992-.352.316-.369.515-.06.674.17.086.241.263.268.658l.036.54h.439c.154 0 .281.02.384.06a10.504 10.504 0 0 0 5.09-8.668c-.162-.344-.15-.551 0-.785a10.504 10.504 0 0 0-.048-.589 3.338 3.338 0 0 0-.306-.004c-.529.022-.982-.187-.982-.452 0-.056-.188-.288-.418-.514-.26-.257-.394-.483-.355-.601.036-.107-.04-.28-.176-.397-.132-.114-.24-.298-.24-.408 0-.176-.112-.199-.921-.179l-.921.023.015.907c.027 1.59.264 2.003.995 1.737.334-.122 1.156-.03 1.39.156.084.067.207.31.272.541.065.231.305.63.535.888.466.52.502.724.235 1.335-.233.534-.484.472-.434-.107l.037-.43-.394.074c-.218.04-.491.202-.613.36-.175.227-.256.26-.387.156a.493.493 0 0 1-.165-.338c0-.113-.113-.24-.25-.281-.136-.042-.324-.248-.416-.46-.147-.338-.144-.441.028-.852.174-.417.176-.485.015-.639-.147-.14-.223-.145-.416-.03-.195.117-.286.108-.517-.047a1.27 1.27 0 0 0-.598-.189c-.355 0-.462-.172-.462-.742 0-.527-.314-.718-1.061-.65-.52.048-.634.014-1.053-.308-.258-.2-.667-.678-.909-1.066a30.48 30.48 0 0 0-.577-.9c-.11-.154-.083-.303.131-.725l.27-.53-.57.077c-1.015.137-1.22.268-.784.502.17.091.177.138.046.29-.086.099-.126.256-.09.348.038.093-.009.311-.104.485-.095.175-.174.419-.177.544-.01.392-.68.703-1.427.662-1.131-.063-1.223-.045-1.625.328-.502.466-.567.683-.333 1.116.227.42.629.587 1.325.553.623-.031.694.024.551.436-.121.35-.528.484-.803.265-.212-.168-.944-.038-1.169.209-.094.103-.233.374-.31.6-.13.393-.169.416-.757.474-.587.057-.644.038-1.066-.351-.471-.434-.551-.766-.324-1.338.1-.253.175-.294.444-.245.533.098.743-.088.743-.656 0-.276-.054-.534-.12-.573-.065-.038-.118-.185-.118-.325s-.067-.32-.15-.4c-.118-.116-.101-.178.09-.312a.807.807 0 0 1 .475-.138c.131.015.493-.041.804-.125.45-.122.583-.214.643-.45.116-.45.398-.811.634-.811.374 0 .381-.878.019-2.155-.054-.189-.201-.309-.462-.374-.211-.052-.44-.196-.51-.32-.069-.123-.196-.224-.281-.224-.086 0-.253-.103-.372-.228a.863.863 0 0 0-.553-.228c-.443 0-.45-.305-.01-.466.464-.17 1.187.052 1.362.42.238.499.5.29.585-.463.105-.93.426-1.199 1.44-1.199h.727l-.319-.319a1.27 1.27 0 0 1-.239-.34zm3.776.33c-.02.019-.04.034-.061.055-.244.248-.358.284-.734.226-.658-.1-.573.165.154.484.394.173.647.37.733.57.415.962.7 1.48.844 1.532.29.107.463-.107.527-.654.074-.628.287-.76.668-.418.148.133.355.242.46.242.325 0 .567.131.567.308 0 .093.11.318.245.5.199.267.334.33.706.33.456 0 .736.086 1.307.402.01.005.018.006.027.011a10.504 10.504 0 0 0-5.442-3.588zM5.499 15.954a10.504 10.504 0 0 0-.002.046 10.504 10.504 0 0 0 .205 2.017c.38.155.486.094.525-.26.02-.183.116-.391.214-.463.15-.11.123-.167-.185-.377-.2-.136-.396-.374-.436-.528-.04-.149-.171-.312-.321-.435zm3.306 3.473c-.098-.01-.217.042-.348.168-.278.266-.236.8.08 1.011.36.242.5.172.545-.275.056-.55-.062-.882-.277-.904zm1.783 1.587c-.108.004-.226.08-.344.242-.125.172-.16.393-.112.729.06.412.033.5-.182.611-.278.142-.337.564-.11.782.226.216.441.16.519-.137.11-.422.728-.472 1.15-.092.18.161.328.244.328.181 0-.062-.188-.287-.417-.499-.35-.325-.415-.464-.415-.883 0-.592-.181-.941-.417-.934zM7.66 22.37a10.504 10.504 0 0 0 .243.307 1.907 1.907 0 0 0-.243-.306zm3.54 1.613c-.053.018-.076.085-.076.202 0 .118-.076.243-.168.277-.123.045-.151.187-.104.527.01.064.012.115.015.167a10.504 10.504 0 0 0 .437.225 1.776 1.776 0 0 1 .12-.664c.162-.454.168-.568.037-.648-.124-.075-.207-.104-.261-.086z" fill="#2c80c2"/><path d="M24.82 27.79h-7.959v-3.979h7.96z" fill="#b7b7b7"/><rect rx=".557" ry=".564" height="6.765" width="11.143" y="-24.209" x="-26.413" transform="scale(-1)" fill="#999"/><g stroke-width="1.537" fill="gray"><path d="M24.025 22.617h-6.368v-.796h6.368zM23.229 21.025h-4.776v-.796h4.776zM22.433 19.433h-3.184v-.796h3.184z"/></g><path fill="gray" d="M24.025 26.995h-1.99v-1.194h1.99zM19.647 26.995h-1.99v-1.194h1.99z"/></svg>