<svg xmlns="http://www.w3.org/2000/svg" height="32" width="32" version="1"><rect width="28.203" height="28.203" x="1.898" y="1.898" ry="5.575" fill="#8e8e8e" fill-rule="evenodd"/><rect width="20.896" height="15.642" x="5.552" y="8.179" ry="3.363" rx="3.363" fill="#474747"/><rect width="19.018" height="13.662" x="6.491" y="9.169" ry="2.445" rx="2.547" fill="#232323"/><g transform="matrix(.75 0 0 .75 4.014 4.65)" stroke-width="1.333"><circle r="8" cy="23" cx="24" fill="#48cd42" fill-rule="evenodd"/><g fill="#fff" stroke-width="2.133" color="#000"><path d="M20 19.001h.672c4.05 0 7.33 3.278 7.33 7.328v.672h-.672a.666.666 0 0 1-.656-.672 6 6 0 0 0-6-6 .666.666 0 0 1-.67-.656v-.672z"/><path d="M20 21.673h.672a4.649 4.649 0 0 1 4.656 4.656v.672h-.656a.68.68 0 0 1-.67-.672 3.327 3.327 0 0 0-3.33-3.328.68.68 0 0 1-.67-.672v-.656z"/><path d="M21.33 24.329c.736 0 1.344.607 1.344 1.344 0 .736-.61 1.328-1.34 1.328-.74 0-1.33-.592-1.33-1.328 0-.737.592-1.344 1.328-1.344z"/></g></g></svg>