<svg xmlns="http://www.w3.org/2000/svg" height="32" width="32" version="1"><rect width="28.203" height="28.203" x="1.898" y="1.898" ry="5.575" fill="#0286c2" fill-rule="evenodd"/><g fill-rule="evenodd"><path d="M19.047 12.65v3.143h1.838c.629 0 1.101-.132 1.416-.395.32-.262.48-.659.48-1.189 0-.52-.158-.909-.472-1.166-.315-.263-.79-.393-1.424-.393zM19.047 8.004v2.539h1.732c.494 0 .868-.106 1.123-.32.255-.215.383-.532.383-.95 0-.412-.128-.725-.383-.939-.255-.22-.63-.33-1.123-.33z" fill="#2297fd"/><path d="M15.914 5.898v12h5.2c.808 0 1.512-.07 2.115-.212.602-.142 1.102-.355 1.498-.64a2.68 2.68 0 0 0 .89-1.073c.198-.432.297-.935.297-1.514 0-.756-.184-1.394-.553-1.914-.369-.52-.89-.876-1.562-1.068.526-.199.926-.501 1.203-.909.277-.412.416-.912.416-1.496 0-.554-.095-1.032-.285-1.435a2.372 2.372 0 0 0-.854-.983c-.377-.252-.872-.44-1.482-.566-.61-.126-1.336-.19-2.18-.19zm3.133 2.106h1.732c.494 0 .868.11 1.123.33.255.214.383.527.383.94 0 .417-.128.734-.383.949-.255.214-.63.32-1.123.32h-1.732zm0 4.646h1.838c.634 0 1.109.13 1.424.393.314.257.472.646.472 1.166 0 .53-.16.927-.48 1.19-.315.262-.787.394-1.416.394h-1.838z" fill="#fff"/><path d="M21.914 21.898v7.5c0 .276-.162.482-.291.704h2.904a5.561 5.561 0 0 0 5.575-5.575v-2.914c-.219.124-.419.285-.688.285z" fill="#0286c2"/><path d="M9.98 20.559l-.634 1.927h3.136l-.193-.588h-.875c-.415 0-.791-.168-1.062-.439-.23-.23-.33-.56-.372-.9z" fill="#f3443f"/><path d="M9.914 14.898h-.76l-4.24 12h2.967l.728-2.185h4.618l.72 2.185h2.967l-1.768-5H12.29l.193.588H9.346l.634-1.927c-.007-.061-.066-.098-.066-.16z" fill="#fff"/><path d="M2.414 9.898c-.202 0-.34.142-.516.213v14.416a5.561 5.561 0 0 0 5.575 5.575h14.15c.129-.222.291-.428.291-.704v-7.5h-6.768l1.768 5h-2.967l-.72-2.185H8.609l-.728 2.185H4.914l4.24-12h.76v-5z" fill="#f3443f"/><path d="M7.473 1.898a5.563 5.563 0 0 0-5.575 5.577v2.636c.176-.071.314-.213.516-.213h7.5v-7.5c0-.195.138-.329.205-.5z" fill="#0286c2"/><path d="M10.12 1.898c-.068.171-.206.305-.206.5v18a1.498 1.498 0 0 0 1.5 1.5h18c.27 0 .47-.161.688-.285V7.475a5.563 5.563 0 0 0-5.575-5.577zm5.794 4h4.703c.844 0 1.57.064 2.18.19.61.126 1.105.314 1.482.566.38.252.664.58.854.983.19.403.285.88.285 1.435 0 .584-.14 1.084-.416 1.496-.277.408-.677.71-1.203.909.672.192 1.193.548 1.562 1.068.37.52.553 1.158.553 1.914 0 .579-.099 1.082-.297 1.514a2.68 2.68 0 0 1-.89 1.074c-.396.284-.896.497-1.498.639-.603.142-1.307.212-2.116.212h-5.199z" fill="#2297fd"/></g></svg>