<svg xmlns="http://www.w3.org/2000/svg" height="32" width="32"><g fill-rule="evenodd"><path d="M17.027 5.775a3.068 3.068 0 0 0-.216.006 3.068 3.068 0 0 0-.305.037 3.068 3.068 0 0 0-.299.069 3.068 3.068 0 0 0-.291.095 3.068 3.068 0 0 0-.28.125 3.068 3.068 0 0 0-.265.155 3.068 3.068 0 0 0-.25.177 3.068 3.068 0 0 0-.23.202 3.068 3.068 0 0 0-.21.224 3.068 3.068 0 0 0-.185.244 3.068 3.068 0 0 0-.16.262 3.068 3.068 0 0 0-.133.277 3.068 3.068 0 0 0-.105.288 3.068 3.068 0 0 0-.077.296 3.068 3.068 0 0 0-.046.303 3.068 3.068 0 0 0-.014.307 3.068 3.068 0 0 0 .006.217 3.068 3.068 0 0 0 .037.304 3.068 3.068 0 0 0 .068.3 3.068 3.068 0 0 0 .096.29 3.068 3.068 0 0 0 .125.281 3.068 3.068 0 0 0 .154.266 3.068 3.068 0 0 0 .178.248 3.068 3.068 0 0 0 .201.23 3.068 3.068 0 0 0 .225.21 3.068 3.068 0 0 0 .244.185 3.068 3.068 0 0 0 .262.162 3.068 3.068 0 0 0 .277.133 3.068 3.068 0 0 0 .287.105 3.068 3.068 0 0 0 .297.075 3.068 3.068 0 0 0 .303.047 3.068 3.068 0 0 0 .306.015 3.068 3.068 0 0 0 .217-.008 3.068 3.068 0 0 0 .305-.037 3.068 3.068 0 0 0 .299-.066 3.068 3.068 0 0 0 .29-.098 3.068 3.068 0 0 0 .282-.125 3.068 3.068 0 0 0 .266-.152 3.068 3.068 0 0 0 .248-.18 3.068 3.068 0 0 0 .23-.201 3.068 3.068 0 0 0 .209-.225 3.068 3.068 0 0 0 .186-.244 3.068 3.068 0 0 0 .162-.261 3.068 3.068 0 0 0 .133-.276 3.068 3.068 0 0 0 .105-.289 3.068 3.068 0 0 0 .076-.297 3.068 3.068 0 0 0 .045-.303 3.068 3.068 0 0 0 .016-.306 3.068 3.068 0 0 0-.008-.217 3.068 3.068 0 0 0-.037-.305 3.068 3.068 0 0 0-.067-.299 3.068 3.068 0 0 0-.097-.29 3.068 3.068 0 0 0-.125-.28 3.068 3.068 0 0 0-.153-.265 3.068 3.068 0 0 0-.18-.25 3.068 3.068 0 0 0-.2-.23 3.068 3.068 0 0 0-.225-.21 3.068 3.068 0 0 0-.244-.185 3.068 3.068 0 0 0-.262-.16 3.068 3.068 0 0 0-.275-.133 3.068 3.068 0 0 0-.29-.106 3.068 3.068 0 0 0-.296-.076 3.068 3.068 0 0 0-.303-.047 3.068 3.068 0 0 0-.307-.014z" fill="#fff"/><path d="M15.508 1.898c-.474.076-.978.082-1.412.237a6.65 6.65 0 0 0-2.201 1.289A5.923 5.923 0 0 0 10.41 5.45a6.552 6.552 0 0 0-.545 2.676c0 .988.211 1.868.576 2.648s.886 1.462 1.506 2.05c.621.586 1.34 1.08 2.108 1.488.767.407 1.58.73 2.384.972.786.238 1.633.6 2.463 1.074.83.474 1.642 1.059 2.356 1.737.713.677 1.329 1.447 1.765 2.297.437.849.696 1.777.696 2.765 0 .988-.193 1.929-.543 2.785a7.188 7.188 0 0 1-1.485 2.276 6.939 6.939 0 0 1-2.203 1.535c-.512.224-1.1.256-1.666.348h6.705a5.561 5.561 0 0 0 5.575-5.575V7.473a5.561 5.561 0 0 0-5.575-5.575h-9.019zm1.52 3.877a3.068 3.068 0 0 1 .306.014 3.068 3.068 0 0 1 .303.047 3.068 3.068 0 0 1 .297.076 3.068 3.068 0 0 1 .289.106 3.068 3.068 0 0 1 .275.132 3.068 3.068 0 0 1 .262.16 3.068 3.068 0 0 1 .244.186 3.068 3.068 0 0 1 .225.21 3.068 3.068 0 0 1 .2.23 3.068 3.068 0 0 1 .18.25 3.068 3.068 0 0 1 .153.265 3.068 3.068 0 0 1 .125.28 3.068 3.068 0 0 1 .097.29 3.068 3.068 0 0 1 .067.3 3.068 3.068 0 0 1 .037.304 3.068 3.068 0 0 1 .008.217 3.068 3.068 0 0 1-.016.306 3.068 3.068 0 0 1-.045.303 3.068 3.068 0 0 1-.076.297 3.068 3.068 0 0 1-.105.29 3.068 3.068 0 0 1-.133.274 3.068 3.068 0 0 1-.162.262 3.068 3.068 0 0 1-.186.244 3.068 3.068 0 0 1-.209.225 3.068 3.068 0 0 1-.23.201 3.068 3.068 0 0 1-.248.18 3.068 3.068 0 0 1-.266.152 3.068 3.068 0 0 1-.281.125 3.068 3.068 0 0 1-.291.098 3.068 3.068 0 0 1-.3.066 3.068 3.068 0 0 1-.304.037 3.068 3.068 0 0 1-.217.008 3.068 3.068 0 0 1-.306-.015 3.068 3.068 0 0 1-.303-.047 3.068 3.068 0 0 1-.297-.075 3.068 3.068 0 0 1-.287-.105 3.068 3.068 0 0 1-.277-.133 3.068 3.068 0 0 1-.262-.162 3.068 3.068 0 0 1-.244-.185 3.068 3.068 0 0 1-.225-.21 3.068 3.068 0 0 1-.201-.23 3.068 3.068 0 0 1-.178-.248 3.068 3.068 0 0 1-.154-.266 3.068 3.068 0 0 1-.125-.28 3.068 3.068 0 0 1-.096-.292 3.068 3.068 0 0 1-.068-.299 3.068 3.068 0 0 1-.037-.304 3.068 3.068 0 0 1-.006-.217 3.068 3.068 0 0 1 .014-.307 3.068 3.068 0 0 1 .046-.303 3.068 3.068 0 0 1 .077-.296 3.068 3.068 0 0 1 .105-.288 3.068 3.068 0 0 1 .133-.277 3.068 3.068 0 0 1 .16-.262 3.068 3.068 0 0 1 .186-.244 3.068 3.068 0 0 1 .209-.224 3.068 3.068 0 0 1 .23-.202 3.068 3.068 0 0 1 .25-.177 3.068 3.068 0 0 1 .266-.155 3.068 3.068 0 0 1 .279-.125 3.068 3.068 0 0 1 .291-.095 3.068 3.068 0 0 1 .299-.069 3.068 3.068 0 0 1 .305-.037 3.068 3.068 0 0 1 .216-.006z" fill="#f65e5e"/><path d="M16.492 30.102h1.33c.567-.092 1.154-.124 1.666-.348a6.939 6.939 0 0 0 2.203-1.535 7.188 7.188 0 0 0 1.485-2.276c.35-.856.543-1.797.543-2.785 0-.988-.259-1.916-.696-2.765-.436-.85-1.052-1.62-1.765-2.297a12.283 12.283 0 0 0-2.356-1.737 12.104 12.104 0 0 0-2.463-1.074 13.298 13.298 0 0 1-2.384-.973 9.658 9.658 0 0 1-2.108-1.488 6.782 6.782 0 0 1-1.506-2.049 6.176 6.176 0 0 1-.576-2.648c0-.988.195-1.887.545-2.676.35-.79.858-1.469 1.485-2.027a6.65 6.65 0 0 1 2.2-1.29c.435-.154.939-.16 1.413-.236h-1.33c-.566.092-1.154.124-1.666.348a6.93 6.93 0 0 0-2.201 1.535 7.188 7.188 0 0 0-1.485 2.276 7.337 7.337 0 0 0-.545 2.785c0 .988.259 1.916.696 2.765.436.85 1.052 1.62 1.765 2.297a12.285 12.285 0 0 0 2.356 1.737c.83.473 1.677.836 2.463 1.074.803.243 1.617.565 2.384.973a9.658 9.658 0 0 1 2.108 1.488 6.782 6.782 0 0 1 1.506 2.049c.365.78.576 1.66.576 2.648 0 .988-.195 1.887-.545 2.676-.35.79-.858 1.469-1.485 2.027a6.652 6.652 0 0 1-2.2 1.29c-.435.154-.94.16-1.413.236z" fill="#fff"/><path d="M7.473 1.898a5.561 5.561 0 0 0-5.575 5.575v17.054a5.561 5.561 0 0 0 5.575 5.575h9.019c.474-.076.978-.082 1.412-.237a6.652 6.652 0 0 0 2.201-1.289 5.923 5.923 0 0 0 1.485-2.027c.35-.79.545-1.688.545-2.676 0-.988-.211-1.868-.576-2.648a6.782 6.782 0 0 0-1.506-2.05 9.658 9.658 0 0 0-2.108-1.488c-.767-.407-1.58-.73-2.384-.972a12.11 12.11 0 0 1-2.463-1.074 12.285 12.285 0 0 1-2.356-1.737c-.713-.677-1.329-1.447-1.765-2.297-.437-.849-.696-1.777-.696-2.765 0-.988.195-1.929.545-2.785a7.188 7.188 0 0 1 1.485-2.276 6.93 6.93 0 0 1 2.2-1.535c.513-.224 1.1-.256 1.667-.348H7.473z" fill="#8d62ad"/><path d="M14.982 20.09a3.068 3.068 0 0 0-.216.008 3.068 3.068 0 0 0-.305.037 3.068 3.068 0 0 0-.299.066 3.068 3.068 0 0 0-.29.098 3.068 3.068 0 0 0-.28.125 3.068 3.068 0 0 0-.268.152 3.068 3.068 0 0 0-.248.18 3.068 3.068 0 0 0-.23.201 3.068 3.068 0 0 0-.21.225 3.068 3.068 0 0 0-.185.244 3.068 3.068 0 0 0-.16.262 3.068 3.068 0 0 0-.135.275 3.068 3.068 0 0 0-.103.289 3.068 3.068 0 0 0-.076.297 3.068 3.068 0 0 0-.047.303 3.068 3.068 0 0 0-.016.306 3.068 3.068 0 0 0 .008.217 3.068 3.068 0 0 0 .037.305 3.068 3.068 0 0 0 .068.299 3.068 3.068 0 0 0 .096.29 3.068 3.068 0 0 0 .125.28 3.068 3.068 0 0 0 .152.265 3.068 3.068 0 0 0 .18.25 3.068 3.068 0 0 0 .201.23 3.068 3.068 0 0 0 .225.21 3.068 3.068 0 0 0 .244.185 3.068 3.068 0 0 0 .262.16 3.068 3.068 0 0 0 .275.133 3.068 3.068 0 0 0 .29.106 3.068 3.068 0 0 0 .296.076 3.068 3.068 0 0 0 .303.047 3.068 3.068 0 0 0 .306.014 3.068 3.068 0 0 0 .217-.006 3.068 3.068 0 0 0 .305-.037 3.068 3.068 0 0 0 .299-.069 3.068 3.068 0 0 0 .29-.095 3.068 3.068 0 0 0 .282-.125 3.068 3.068 0 0 0 .266-.155 3.068 3.068 0 0 0 .248-.177 3.068 3.068 0 0 0 .23-.202 3.068 3.068 0 0 0 .21-.224 3.068 3.068 0 0 0 .185-.244 3.068 3.068 0 0 0 .16-.262 3.068 3.068 0 0 0 .135-.277 3.068 3.068 0 0 0 .105-.288 3.068 3.068 0 0 0 .074-.296 3.068 3.068 0 0 0 .047-.303 3.068 3.068 0 0 0 .016-.307 3.068 3.068 0 0 0-.008-.217 3.068 3.068 0 0 0-.037-.304 3.068 3.068 0 0 0-.069-.3 3.068 3.068 0 0 0-.095-.29 3.068 3.068 0 0 0-.125-.281 3.068 3.068 0 0 0-.153-.266 3.068 3.068 0 0 0-.18-.248 3.068 3.068 0 0 0-.2-.23 3.068 3.068 0 0 0-.225-.21 3.068 3.068 0 0 0-.244-.185 3.068 3.068 0 0 0-.262-.162 3.068 3.068 0 0 0-.275-.133 3.068 3.068 0 0 0-.29-.105 3.068 3.068 0 0 0-.296-.075 3.068 3.068 0 0 0-.303-.047 3.068 3.068 0 0 0-.307-.015z" fill="#fff"/><path d="M14.982 20.09a3.068 3.068 0 0 1 .307.015 3.068 3.068 0 0 1 .303.047 3.068 3.068 0 0 1 .297.075 3.068 3.068 0 0 1 .289.105 3.068 3.068 0 0 1 .275.133 3.068 3.068 0 0 1 .262.162 3.068 3.068 0 0 1 .244.186 3.068 3.068 0 0 1 .225.208 3.068 3.068 0 0 1 .2.231 3.068 3.068 0 0 1 .18.248 3.068 3.068 0 0 1 .153.266 3.068 3.068 0 0 1 .125.28 3.068 3.068 0 0 1 .096.292 3.068 3.068 0 0 1 .068.299 3.068 3.068 0 0 1 .037.304 3.068 3.068 0 0 1 .008.217 3.068 3.068 0 0 1-.016.307 3.068 3.068 0 0 1-.047.303 3.068 3.068 0 0 1-.074.296 3.068 3.068 0 0 1-.105.288 3.068 3.068 0 0 1-.135.277 3.068 3.068 0 0 1-.16.262 3.068 3.068 0 0 1-.186.244 3.068 3.068 0 0 1-.209.224 3.068 3.068 0 0 1-.23.202 3.068 3.068 0 0 1-.248.177 3.068 3.068 0 0 1-.266.155 3.068 3.068 0 0 1-.281.125 3.068 3.068 0 0 1-.291.095 3.068 3.068 0 0 1-.3.069 3.068 3.068 0 0 1-.304.037 3.068 3.068 0 0 1-.217.006 3.068 3.068 0 0 1-.306-.014 3.068 3.068 0 0 1-.303-.047 3.068 3.068 0 0 1-.297-.076 3.068 3.068 0 0 1-.289-.106 3.068 3.068 0 0 1-.275-.132 3.068 3.068 0 0 1-.262-.16 3.068 3.068 0 0 1-.244-.186 3.068 3.068 0 0 1-.225-.21 3.068 3.068 0 0 1-.2-.23 3.068 3.068 0 0 1-.18-.25 3.068 3.068 0 0 1-.153-.265 3.068 3.068 0 0 1-.125-.28 3.068 3.068 0 0 1-.096-.29 3.068 3.068 0 0 1-.068-.3 3.068 3.068 0 0 1-.037-.304 3.068 3.068 0 0 1-.008-.217 3.068 3.068 0 0 1 .016-.306 3.068 3.068 0 0 1 .047-.303 3.068 3.068 0 0 1 .076-.297 3.068 3.068 0 0 1 .103-.29 3.068 3.068 0 0 1 .135-.274 3.068 3.068 0 0 1 .16-.262 3.068 3.068 0 0 1 .186-.244 3.068 3.068 0 0 1 .209-.225 3.068 3.068 0 0 1 .23-.201 3.068 3.068 0 0 1 .248-.18 3.068 3.068 0 0 1 .268-.152 3.068 3.068 0 0 1 .28-.125 3.068 3.068 0 0 1 .29-.098 3.068 3.068 0 0 1 .299-.066 3.068 3.068 0 0 1 .305-.037 3.068 3.068 0 0 1 .216-.008z" fill="#fff"/></g></svg>