<svg xmlns="http://www.w3.org/2000/svg" height="32" width="32" version="1"><rect width="28.203" height="28.203" x="1.898" y="1.898" ry="5.575" fill="#4f4f4f" fill-rule="evenodd"/><path d="M16 6.525A9.435 9.435 0 0 0 6.525 16 9.435 9.435 0 0 0 16 25.475c.842 0 1.58-.737 1.58-1.58 0-.42-.106-.736-.422-1.052-.21-.316-.421-.632-.421-1.053 0-.842.737-1.579 1.58-1.579h1.894c2.947 0 5.264-2.316 5.264-5.263 0-4.633-4.212-8.423-9.475-8.423z" fill="#fff"/><path d="M9.44 16c-.777 0-1.457-.68-1.457-1.458 0-.777.68-1.457 1.458-1.457.777 0 1.457.68 1.457 1.457 0 .778-.68 1.458-1.457 1.458z" fill="#f1a443"/><path d="M13.085 11.627c-.778 0-1.458-.68-1.458-1.457 0-.778.68-1.458 1.458-1.458.777 0 1.457.68 1.457 1.458 0 .777-.68 1.457-1.457 1.457z" fill="#3f90dc"/><path d="M18.187 11.627c-.778 0-1.458-.68-1.458-1.457 0-.778.68-1.458 1.458-1.458.777 0 1.457.68 1.457 1.458 0 .777-.68 1.457-1.457 1.457z" fill="#56a913"/><path d="M21.83 16c-.777 0-1.457-.68-1.457-1.458 0-.777.68-1.457 1.458-1.457.777 0 1.457.68 1.457 1.457 0 .778-.68 1.458-1.457 1.458z" fill="#f35b5b"/></svg>