<svg xmlns="http://www.w3.org/2000/svg" height="32" width="32" version="1"><g transform="translate(61.73 10.44)"><rect ry="5.575" y="-8.541" x="-59.832" height="28.203" width="28.203" fill="#96ba42" fill-rule="evenodd"/><rect x="-39.215" y="-40.441" width="5.902" height="5.902" transform="rotate(-45)" rx=".984" ry=".984" fill="#597123"/><rect x="-15.755" y="35.543" width="20.376" height="20.376" ry="10.188" rx="10.188" transform="matrix(0 -1 -1 0 0 0)" fill="#fff"/><circle r="7.377" cx="-45.73" cy="5.567" fill="#ccc"/><rect x="-37.853" y="22.379" width="2.108" height="6.324" transform="rotate(30)" rx="1.054" ry=".904" fill="#f45246"/><circle r="1.757" cx="-45.73" cy="5.567" fill="#4d4d4d"/><g transform="matrix(.70262 0 0 .70262 -57.324 -5.324)" fill="#4d4d4d" stroke-width="1.423"><circle r="1.5" cy="23.5" cx="16.5"/><circle r="1.5" cx="16.5" cy="7.5"/><circle r="1.5" cx="15.5" cy="-8.5" transform="rotate(90)"/><circle r="1.5" cy="-24.5" transform="rotate(90)" cx="15.5"/></g></g></svg>