<svg xmlns="http://www.w3.org/2000/svg" height="32" width="32" version="1"><g fill-rule="evenodd"><path d="M1.898 21.33l9.897-3.77a4.384 4.384 0 0 1-.137-.415 4.384 4.384 0 0 1-.094-.428 4.384 4.384 0 0 1-.05-.436 4.384 4.384 0 0 1-.01-.281 4.384 4.384 0 0 1 .025-.438 4.384 4.384 0 0 1 .067-.433 4.384 4.384 0 0 1 .109-.424 4.384 4.384 0 0 1 .094-.266l-9.9-3.771zM21.258 30.102l-3.809-10.008a4.384 4.384 0 0 1-.418.136 4.384 4.384 0 0 1-.427.094 4.384 4.384 0 0 1-.436.051 4.384 4.384 0 0 1-.28.01 4.384 4.384 0 0 1-.437-.024 4.384 4.384 0 0 1-.433-.068 4.384 4.384 0 0 1-.424-.11 4.384 4.384 0 0 1-.264-.091l-3.812 10.01zM30.102 10.584l-10.12 3.855a4.384 4.384 0 0 1 .137.416 4.384 4.384 0 0 1 .092.43 4.384 4.384 0 0 1 .05.434 4.384 4.384 0 0 1 .01.281 4.384 4.384 0 0 1-.023.437 4.384 4.384 0 0 1-.066.434 4.384 4.384 0 0 1-.112.424 4.384 4.384 0 0 1-.09.262l10.122 3.859z" fill="#e74c3c"/><path d="M10.518 1.898H7.473a5.563 5.563 0 0 0-5.575 5.577v3.193l9.9 3.771a4.384 4.384 0 0 0-.093.266 4.384 4.384 0 0 0-.11.424 4.384 4.384 0 0 0-.066.433 4.384 4.384 0 0 0-.025.438 4.384 4.384 0 0 0 .01.281 4.384 4.384 0 0 0 .05.436 4.384 4.384 0 0 0 .094.428 4.384 4.384 0 0 0 .137.416l-9.897 3.77v3.196a5.561 5.561 0 0 0 5.575 5.575h3.045l3.812-10.01a4.384 4.384 0 0 0 .264.092 4.384 4.384 0 0 0 .424.109 4.384 4.384 0 0 0 .433.068 4.384 4.384 0 0 0 .438.024 4.384 4.384 0 0 0 .279-.01 4.384 4.384 0 0 0 .436-.05 4.384 4.384 0 0 0 .427-.095 4.384 4.384 0 0 0 .418-.136l3.809 10.008h3.27a5.561 5.561 0 0 0 5.574-5.575v-3.111l-10.122-3.86a4.384 4.384 0 0 0 .09-.261 4.384 4.384 0 0 0 .112-.424 4.384 4.384 0 0 0 .066-.434 4.384 4.384 0 0 0 .024-.437 4.384 4.384 0 0 0-.01-.281 4.384 4.384 0 0 0-.051-.434 4.384 4.384 0 0 0-.092-.43 4.384 4.384 0 0 0-.137-.416l10.12-3.855v-3.11a5.563 5.563 0 0 0-5.575-5.576h-3.27l-3.81 10.01a4.384 4.384 0 0 0-.263-.092 4.384 4.384 0 0 0-.426-.109 4.384 4.384 0 0 0-.432-.066 4.384 4.384 0 0 0-.437-.024 4.384 4.384 0 0 0-.28.01 4.384 4.384 0 0 0-.435.049 4.384 4.384 0 0 0-.428.094 4.384 4.384 0 0 0-.416.136z" fill="#d2d2d2"/><path d="M10.518 1.898l3.812 10.008a4.384 4.384 0 0 1 .416-.136 4.384 4.384 0 0 1 .428-.094 4.384 4.384 0 0 1 .435-.049 4.384 4.384 0 0 1 .28-.01 4.384 4.384 0 0 1 .437.024 4.384 4.384 0 0 1 .432.066 4.384 4.384 0 0 1 .426.11 4.384 4.384 0 0 1 .263.091l3.81-10.01z" fill="#e74c3c"/></g></svg>