<svg xmlns="http://www.w3.org/2000/svg" height="32" width="32" version="1"><rect width="28.203" height="28.203" x="1.898" y="1.898" ry="5.575" fill="#309fff" fill-rule="evenodd"/><circle cx="-104.862" cy="20.915" r="9.22" fill="#e6e6e6" fill-rule="evenodd" transform="translate(120.862 -4.915)"/><g transform="translate(131.215 -8.95)" fill-rule="evenodd"><path d="M-111.203 33.236l-1.092-2.209 1.05 2.23a9.22 9.22 0 0 0 .042-.02z" fill="#f2f2f2"/><path d="M-109.55 32.21l-5.264-6.538 2.52 5.355 1.09 2.21a9.22 9.22 0 0 0 1.653-1.026z" fill="#fff"/><path d="M-115.17 24.918l.356.754 5.263 6.539a9.22 9.22 0 0 0 .951-.838 9.22 9.22 0 0 0 .596-.68 9.22 9.22 0 0 0 .02-.023 9.22 9.22 0 0 0 .494-.69 9.22 9.22 0 0 0 .06-.093 9.22 9.22 0 0 0 .39-.68 9.22 9.22 0 0 0 .073-.143 9.22 9.22 0 0 0 .297-.664 9.22 9.22 0 0 0 .08-.205 9.22 9.22 0 0 0 .215-.644 9.22 9.22 0 0 0 .072-.254 9.22 9.22 0 0 0 .1-.445z" fill="#f2f2f2"/><path d="M-115.215 15.729a9.22 9.22 0 0 0-4.99 1.468l4.959 7.803-9.152-.791a9.22 9.22 0 0 0-.038.74 9.22 9.22 0 0 0 9.221 9.22 9.22 9.22 0 0 0 3.97-.911l-3.925-8.34 8.967 1.934a9.22 9.22 0 0 0 .209-1.903 9.22 9.22 0 0 0-9.22-9.22z" fill="#e6e6e6"/><path d="M-121.77 18.479a9.22 9.22 0 0 0-2.628 5.73l9.152.791z" fill="#f2f2f2"/><path d="M-121.77 18.479l6.524 6.521-4.96-7.803a9.22 9.22 0 0 0-1.564 1.282z" fill="#fff"/><circle cx="-115.215" cy="24.949" r="3.304" fill="#b3b3b3"/><circle cx="-115.215" cy="24.949" r="2.441" fill="#fff"/></g><path d="M30.103 17.809c-.535.084-1.119.249-1.641.312-2.016.245-3.943.34-5.787.299a35.22 35.22 0 0 1-10.186-1.71 38.344 38.344 0 0 1-4.529-1.798 46.015 46.015 0 0 1-4.236-2.281c-.638-.386-1.205-.89-1.827-1.3v13.196a5.563 5.563 0 0 0 5.577 5.575h17.052a5.563 5.563 0 0 0 5.577-5.575z" fill="#2f7dbc" fill-rule="evenodd"/><g stroke-width="1.215" fill="#fff" fill-rule="evenodd"><path d="M22.078 23.813l-4.644 2.682v-5.363zM10.87 21.132h5.335v5.335h-5.334z"/></g></svg>