<svg xmlns="http://www.w3.org/2000/svg" height="32" width="32" version="1"><rect width="28.203" height="28.203" x="1.898" y="1.898" ry="5.575" fill="#ccc" fill-rule="evenodd"/><path d="M13.659 5.18c-.164.145-.205.362-.205.615 0 .47.164 1.05.246 1.267 0 0 .123 2.533.164 2.822-.37.036-1.026.073-1.272.145h-.328c-.697.036-1.354.072-1.64.326l-.124.108.123.145c.205.217.287.832.37 1.483.204 1.34.45 3.004 1.681 3.655l.246.109V15.6s.042-.108.042-.253c0-.109-.042-.29-.082-.543.328.036 1.025.109 1.271.109C14.192 15.204 15.26 27 15.26 27h.41s.451-11.651.451-12.013c.287 0 1.56.036 1.928.072-.082.217-.41 1.122-.41 1.122l.575-.47c.164-.11 3.733-2.968 3.24-4.85-.164-.614-.738-1.049-1.682-1.266h-.082c-.533 0-2.174.037-3.405.109.041-.94.041-1.447.041-1.7v-.326c0-.181.205-.435.37-.616.164-.217.369-.398.369-.615 0-.072-.041-.144-.082-.217-.244-.325-2.05-1.157-2.83-1.23-.245.036-.41.073-.491.181zm.04 5.934h.206c0 .326.123 2.606.164 2.931-.328-.036-1.107-.108-1.354-.108-.123-.47-.164-.977-.205-1.484a11.974 11.974 0 0 0-.164-1.266c.37 0 1.354-.073 1.354-.073zm2.503 1.122s.041-.868.041-1.158c.534.073 1.231.109 1.888.109h.738c0 .145-.041.325-.041.325-.082.796-.205 1.737-.574 2.678-.247 0-1.764-.072-2.093-.109 0-.253.041-1.845.041-1.845z" fill="#4d4d4d"/></svg>