<svg xmlns="http://www.w3.org/2000/svg" height="32" width="32" version="1"><defs><linearGradient id="a" gradientUnits="userSpaceOnUse" y1="24" gradientTransform="matrix(.91792 0 0 1 -5.015 -8)" x2="0" y2="19"><stop stop-color="#484848" offset="0"/><stop stop-color="#505050" offset=".494"/><stop stop-color="#484848" offset="1"/></linearGradient></defs><circle cy="19" cx="14" fill="#8d6a3e"/><rect width="28.203" height="28.203" x="1.898" y="1.898" ry="5.575" fill="#ccc" fill-rule="evenodd"/><path d="M6.49 11c-.272 0-.49.223-.49.5v4c0 .277.218.5.49.5h16.032c.976 0 1.76-.772 1.823-1.752A.688.75 0 0 0 25 13.5a.688.75 0 0 0-.654-.748c-.063-.98-.848-1.752-1.823-1.752z" fill="url(#a)" fill-rule="evenodd" transform="translate(0 -.5)"/><path d="M12 15.5v2h10l4 4v-1l-4-5z" fill="#8d6a3e"/><path d="M14 15.5a3 3 0 0 0-3 3 3 3 0 0 0 3 3 3 3 0 0 0 3-3 3 3 0 0 0-3-3zm.3.621a2.4 2.4 0 0 1 1.17.485l-1.17 1.17V16.12m-.6.001v1.654l-1.17-1.17a2.4 2.4 0 0 1 1.17-.484m2.195.907a2.4 2.4 0 0 1 .483 1.171h-1.653zm-3.788.002l1.17 1.169H11.62a2.4 2.4 0 0 1 .486-1.17m-.484 1.77h1.653l-1.17 1.17a2.4 2.4 0 0 1-.483-1.17m3.102 0h1.654a2.4 2.4 0 0 1-.485 1.17l-1.17-1.168m-1.024.424v1.655a2.4 2.4 0 0 1-1.17-.486l1.17-1.17m.6 0l1.17 1.171a2.4 2.4 0 0 1-1.17.482v-1.653z" fill="#b58a55"/></svg>