<svg xmlns="http://www.w3.org/2000/svg" height="32" width="32" version="1"><rect width="28.203" height="28.203" x="1.898" y="1.898" ry="5.575" fill="#f29237" fill-rule="evenodd"/><path d="M15.048 5.97a10.157 10.157 0 0 0-3.676 1.066c.051.163-.008.346-.195.508-.126.11-.23.28-.23.38 0 .304.275.772.495.84.292.09.194.402-.182.574-.173.08-.387.31-.474.51-.088.201-.217.4-.287.44-.07.042-.127.199-.127.35 0 .21.096.312.413.44.226.09.497.156.603.146.604-.057.647.295.118.984-.281.365-.416.457-.607.411-.179-.042-.276.008-.358.185-.085.187-.225.25-.602.277-.37.025-.535.1-.674.303-.101.148-.248.268-.325.268-.078 0-.261.1-.407.22-.297.247-.413.272-.517.11-.137-.213-.434-.105-.876.318-.39.374-.438.474-.379.798.105.577.418 1.09.776 1.269.312.156.318.172.129.373a1.164 1.164 0 0 1-.415.274c-.343.105-.15.236.464.314.627.08.823.307.53.618-.164.173-.155.205.107.37.513.322.921.125.44-.212-.31-.216-.093-.305.36-.148.363.126.434.118.649-.067.439-.38.916.182.514.607-.255.27-.178.597.153.642.146.02.45.156.676.302.225.147.47.267.545.267.074 0 .284.149.465.33.369.369.574.416.678.156.125-.312.075-.473-.262-.84-.268-.293-.703-1.07-.703-1.256 0-.115.442-.017.69.152.155.106.406.242.557.304.162.067.33.272.406.496.12.352.167.383.59.383h.459l.069.825c.084.993.163 1.194.504 1.276.25.06.519.449.519.753 0 .08-.181.278-.401.44-.273.199-.391.368-.373.535.023.208-.024.24-.318.218-.19-.014-.519.052-.73.148-.25.113-.522.149-.776.103-.293-.053-.392-.032-.392.082 0 .084-.102.242-.227.35-.31.268-.181.41.293.325.294-.053.409-.03.46.097.108.27-.166.656-.42.592-.162-.04-.24.015-.29.205a.479.479 0 0 1-.087.174 10.157 10.157 0 0 0 1.607.475.672.672 0 0 0-.165-.225c-.261-.185-.086-.665.274-.752.367-.088.31-.326-.09-.372-.35-.04-.722-.394-.605-.575.078-.122.413-.104 1.09.056.306.073.515-.072 1.223-.848.41-.448.725-.635 1.071-.635.132 0 .603-.122 1.047-.27.838-.28 1.165-.27 1.134.036-.064.636.346.615 1.014-.052.278-.278.532-.479.565-.447.128.122-.102.718-.37.959-.34.305-.356.498-.057.651.164.084.233.255.259.637l.035.522h.424c.149 0 .272.02.372.058a10.157 10.157 0 0 0 4.92-8.382c-.155-.332-.143-.533 0-.759a10.157 10.157 0 0 0-.045-.57 3.265 3.265 0 0 0-.295-.003c-.512.021-.95-.18-.95-.438 0-.054-.182-.277-.404-.496-.252-.249-.381-.468-.344-.582.035-.103-.04-.27-.17-.384-.128-.11-.232-.288-.232-.394 0-.17-.109-.192-.891-.173l-.89.022.014.878c.027 1.537.256 1.937.962 1.679.324-.118 1.118-.029 1.344.15.082.066.2.301.263.524.063.224.296.61.518.858.45.504.485.7.227 1.292-.225.516-.467.456-.42-.103l.036-.417-.38.071c-.211.04-.476.196-.594.35-.168.218-.247.25-.374.15a.476.476 0 0 1-.16-.327c0-.11-.108-.232-.24-.272-.133-.04-.314-.24-.403-.444-.143-.327-.14-.427.027-.824.168-.403.17-.47.014-.618-.142-.137-.215-.141-.402-.03-.188.113-.277.105-.5-.045-.15-.1-.41-.182-.578-.182-.343 0-.447-.167-.447-.718 0-.51-.304-.695-1.026-.628-.502.046-.613.013-1.018-.299-.25-.192-.645-.656-.879-1.03a29.469 29.469 0 0 0-.558-.87c-.106-.15-.08-.293.127-.702l.26-.512-.551.074c-.981.133-1.18.26-.758.486.165.088.172.133.045.28-.083.096-.122.247-.086.337.036.09-.01.3-.102.47-.091.168-.168.404-.171.525-.01.379-.658.68-1.38.64-1.094-.06-1.183-.043-1.571.317-.486.45-.548.66-.322 1.08.219.405.608.567 1.281.534.603-.03.67.023.533.421-.117.338-.51.469-.777.257-.205-.163-.913-.037-1.13.202-.09.1-.226.361-.3.58-.126.38-.163.403-.732.458-.568.055-.622.037-1.03-.34-.457-.419-.534-.74-.314-1.293.097-.244.17-.284.43-.237.514.095.717-.084.717-.634 0-.267-.051-.516-.115-.554-.063-.037-.115-.179-.115-.314a.616.616 0 0 0-.143-.387c-.116-.112-.099-.172.085-.302a.78.78 0 0 1 .46-.134c.127.016.476-.04.778-.12.435-.118.563-.207.622-.436.111-.435.384-.784.613-.784.36 0 .368-.849.017-2.084-.052-.182-.194-.298-.446-.36-.204-.051-.426-.19-.493-.31s-.19-.217-.272-.217c-.083 0-.245-.1-.36-.22a.834.834 0 0 0-.534-.22c-.43 0-.436-.296-.01-.452.449-.165 1.148.051 1.317.407.23.482.484.28.566-.448.1-.9.411-1.16 1.391-1.16h.705l-.309-.308a1.228 1.228 0 0 1-.231-.33zm3.651.32c-.02.017-.038.032-.058.052-.236.24-.346.275-.71.219-.636-.097-.554.159.15.468.38.167.624.358.708.55.401.93.677 1.432.816 1.483.28.103.448-.104.51-.633.071-.607.277-.736.646-.404.143.129.342.234.444.234.315 0 .548.127.548.298 0 .09.107.307.237.483.193.258.323.32.683.32.441 0 .712.083 1.265.388.008.005.017.006.025.01a10.157 10.157 0 0 0-5.262-3.469zM5.853 16.027a10.157 10.157 0 0 0-.002.044 10.157 10.157 0 0 0 .199 1.95c.368.15.47.091.507-.251.02-.177.113-.378.207-.448.145-.107.119-.161-.179-.364-.192-.132-.382-.361-.421-.51-.038-.144-.166-.302-.31-.42zm3.197 3.358c-.095-.01-.21.04-.336.162-.269.257-.228.774.076.978.349.234.484.166.528-.265.054-.533-.06-.853-.268-.875zm1.724 1.535c-.104.003-.218.078-.332.234-.122.166-.155.38-.108.704.057.4.032.485-.177.592-.268.137-.326.545-.106.755.218.21.427.155.502-.132.107-.408.704-.456 1.113-.089.174.156.316.236.316.176s-.181-.278-.403-.483c-.339-.315-.401-.45-.401-.854 0-.572-.176-.91-.404-.903zm-2.83 1.311a10.157 10.157 0 0 0 .234.297 1.844 1.844 0 0 0-.235-.296zm3.422 1.56c-.051.017-.073.082-.073.195 0 .115-.073.235-.163.268-.119.043-.146.181-.1.51.009.061.01.11.014.161a10.157 10.157 0 0 0 .422.217 1.718 1.718 0 0 1 .117-.641c.156-.44.162-.55.035-.627-.12-.072-.2-.101-.252-.083z" fill="#c2752c"/><path style="line-height:normal;font-variant-ligatures:normal;font-variant-position:normal;font-variant-caps:normal;font-variant-numeric:normal;font-variant-alternates:normal;font-feature-settings:normal;text-indent:0;text-align:start;text-decoration-line:none;text-decoration-style:solid;text-decoration-color:#000;text-transform:none;text-orientation:mixed;white-space:normal;shape-padding:0;isolation:auto;mix-blend-mode:normal;solid-color:#000;solid-opacity:1" d="M16 5.78C10.335 5.78 5.738 10.356 5.738 16c0 5.643 4.597 10.22 10.262 10.22S26.262 21.644 26.262 16c0-5.643-4.597-10.22-10.262-10.22zm0 .3c5.504 0 9.96 4.44 9.96 9.92 0 5.48-4.456 9.92-9.96 9.92-5.504 0-9.96-4.44-9.96-9.92 0-5.48 4.456-9.92 9.96-9.92z" color="#000" font-weight="400" font-family="sans-serif" overflow="visible" fill="#c2752c"/></svg>