<svg xmlns="http://www.w3.org/2000/svg" height="32" width="32" version="1"><rect width="28.203" height="28.203" x="1.898" y="1.898" ry="5.575" fill="#47ad5d" fill-rule="evenodd"/><rect width="7.249" height="7.249" x="4.463" y="4.469" ry=".968" fill="#fff" fill-rule="evenodd"/><rect width="7.249" height="7.249" x="12.388" y="4.469" ry=".968" fill="#fff" fill-rule="evenodd"/><rect width="7.249" height="7.249" x="20.288" y="4.469" ry=".968" fill="#fff" fill-rule="evenodd"/><rect width="7.249" height="7.249" x="4.463" y="12.401" ry=".968" fill="#fff" fill-rule="evenodd"/><rect width="7.249" height="7.249" x="12.388" y="12.401" ry=".968" fill="#fff" fill-rule="evenodd"/><rect width="7.249" height="7.249" x="20.288" y="12.401" ry=".968" fill="#fff" fill-rule="evenodd"/><rect width="7.249" height="7.249" x="4.463" y="20.282" ry=".968" fill="#fff" fill-rule="evenodd"/><rect width="7.249" height="7.249" x="12.388" y="20.282" ry=".968" fill="#fff" fill-rule="evenodd"/><rect width="7.249" height="7.249" x="20.288" y="20.282" ry=".968" fill="#fff" fill-rule="evenodd"/><text style="line-height:1.25" x="6.147" y="10.284" font-weight="400" font-size="6.016" font-family="sans-serif" letter-spacing="0" word-spacing="0" fill="#005b00"><tspan x="6.147" y="10.284">S</tspan></text><text style="line-height:1.25" x="13.811" y="10.244" font-weight="400" font-size="6.016" font-family="sans-serif" letter-spacing="0" word-spacing="0" fill="#005b00"><tspan x="13.811" y="10.244">U</tspan></text><text style="line-height:1.25" x="13.579" y="18.218" font-weight="400" font-size="6.016" font-family="sans-serif" letter-spacing="0" word-spacing="0" fill="#005b00"><tspan x="13.579" y="18.218">D</tspan></text><text style="line-height:1.25" x="21.545" y="18.215" font-weight="400" font-size="6.016" font-family="sans-serif" letter-spacing="0" word-spacing="0" fill="#005b00"><tspan x="21.545" y="18.215">O</tspan></text><text style="line-height:1.25" x="5.756" y="26.099" font-weight="400" font-size="6.016" font-family="sans-serif" letter-spacing="0" word-spacing="0" fill="#005b00"><tspan x="5.756" y="26.099">K</tspan></text><text style="line-height:1.25" x="13.811" y="26.056" font-weight="400" font-size="6.016" font-family="sans-serif" letter-spacing="0" word-spacing="0" fill="#005b00"><tspan x="13.811" y="26.056">U</tspan></text></svg>