<svg xmlns="http://www.w3.org/2000/svg" height="32" width="32" version="1"><rect width="28.203" height="28.203" x="1.898" y="1.898" ry="5.575" fill="#bda461" fill-rule="evenodd"/><path d="M8.816 12.137c0 .728.02 1.555.054 2.2H7.277c-.853 0-1.54.685-1.54 1.539v6.486c0 .853.687 1.503 1.54 1.503h3.225c.722 0 1.1-.733 1.1-.733 1.75 1.466 4.3 1.466 6.193 1.466 3.848 0 8.467-.147 8.467-12.46zm-.664 3.665h.768c.302 3.04.976 5.094 1.867 6.477a.84.84 0 0 1-.425.12h-2.21c-.525 0-.948-.49-.948-1.1v-4.397c0-.61.423-1.1.948-1.1z" fill="#fff"/><path d="M22.432 7.402s-1.091 1.059-2.272 1.486c-8.74 3.161-5.054 9.323-4.934 9.343 0 0 .49-.854 1.152-1.34 4.202-3.09 5.056-6.645 5.056-6.645s-.943 4.279-4.68 6.94c-.827.588-1.385 2.035-1.622 3.481 0 0 .585-.236.837-.3.098-.64.303-1.254.65-1.801 5.224.622 6.935-3.588 7.159-5.056.528-3.467-1.346-6.108-1.346-6.108z" fill="#5b6d40"/></svg>