<svg xmlns="http://www.w3.org/2000/svg" height="32" width="32" version="1"><rect width="28.203" height="28.203" x="1.898" y="1.898" ry="5.575" fill="#ffbd8e" fill-rule="evenodd"/><g fill="#4d4d4d"><g transform="matrix(.7 0 0 .7 -37.937 2.258)"><circle r="2.857" cx="69.91" cy="12.489"/><circle r="2.857" cx="84.196" cy="12.489"/><path d="M69.444 24.355a8.795 10.554 0 0 0 7.61 5.277 8.795 10.554 0 0 0 7.602-5.277h-1.068a8.795 10.554 0 0 1-6.535 3.518 8.795 10.554 0 0 1-6.537-3.518z"/></g><path d="M16 14a4 3 0 0 0-4 3 4 3 0 0 0 4 3 4 3 0 0 0 4-3 4 3 0 0 0-4-3zm-2 2a1 1 0 0 1 1 1 1 1 0 0 1-1 1 1 1 0 0 1-1-1 1 1 0 0 1 1-1zm4 0a1 1 0 0 1 1 1 1 1 0 0 1-1 1 1 1 0 0 1-1-1 1 1 0 0 1 1-1z"/></g></svg>