<svg xmlns="http://www.w3.org/2000/svg" height="32" width="32" version="1"><rect width="28.203" height="28.203" x="1.898" y="1.898" ry="5.575" fill="#478f30" fill-rule="evenodd"/><g transform="translate(45.368 8.736)"><path d="M-29.368-4.105a3.241 3.241 0 0 0-3.249 3.248v3.792l-1.438-1.438a2.481 2.481 0 0 0-3.516 0 2.481 2.481 0 0 0 0 3.516l4.686 4.686-4.686 4.687a2.481 2.481 0 0 0 0 3.516 2.481 2.481 0 0 0 3.516 0l3-3c.493.3 1.066.482 1.687.482.62 0 1.193-.183 1.686-.483l3 3.001a2.481 2.481 0 0 0 3.516 0 2.481 2.481 0 0 0 0-3.516l-4.686-4.687 4.686-4.686a2.481 2.481 0 0 0 0-3.516 2.481 2.481 0 0 0-3.516 0l-1.438 1.438V-.857c0-1.8-1.449-3.248-3.248-3.248z" fill="#fff"/><rect x="-17.82" y="22.06" width="17.053" height="14.617" ry="7.308" rx="8.526" transform="matrix(0 -1 -1 0 0 0)" fill="#b08e57"/></g></svg>