<svg xmlns="http://www.w3.org/2000/svg" height="32" width="32" version="1"><g transform="translate(39.72 -4.476)" fill-rule="evenodd"><rect ry="5.575" y="6.374" x="-37.822" height="28.203" width="28.203" fill="#8e8e8e"/><path d="M-37.822 24.118c.056.145.067.314.174.422.198.198.472.32.775.32h6.577a1.09 1.09 0 0 0 1.095-1.097v-6.577a1.092 1.092 0 0 0-1.095-1.095h-6.577c-.303 0-.577.122-.775.32-.107.107-.118.276-.174.42z" fill="#94d551"/><path d="M-29.941 34.577c.144-.055.313-.066.42-.174.198-.198.32-.472.32-.775v-6.576a1.092 1.092 0 0 0-1.095-1.096h-6.577c-.303 0-.577.122-.775.32-.107.108-.118.276-.174.42v2.305a5.563 5.563 0 0 0 5.574 5.576z" fill="#4b95d5"/><path d="M-20.078 34.577c.145-.055.314-.066.422-.174a1.09 1.09 0 0 0 .32-.775v-6.576a1.09 1.09 0 0 0-1.097-1.096h-6.574a1.097 1.097 0 0 0-1.098 1.096v6.576c0 .303.122.577.32.775.108.108.277.119.422.174z" fill="#ffc539"/><path d="M-9.619 26.696c-.055-.144-.066-.312-.174-.42a1.092 1.092 0 0 0-.775-.32h-6.576a1.092 1.092 0 0 0-1.096 1.096v6.576c0 .303.122.577.32.775.108.108.276.119.42.174h2.307a5.563 5.563 0 0 0 5.574-5.576z" fill="#d55045"/><path d="M-17.5 6.374c-.144.055-.312.067-.42.174-.198.198-.32.472-.32.775V13.9a1.092 1.092 0 0 0 1.096 1.096h6.576c.304 0 .577-.122.775-.32.108-.108.119-.276.174-.42v-2.307a5.561 5.561 0 0 0-5.574-5.574z" fill="#94d551"/><path d="M-27.363 6.374c-.145.055-.314.066-.422.174a1.09 1.09 0 0 0-.32.775V13.9a1.09 1.09 0 0 0 1.098 1.096h6.574a1.097 1.097 0 0 0 1.097-1.096V7.323a1.09 1.09 0 0 0-.32-.775c-.108-.108-.277-.119-.422-.174z" fill="#ffc539"/><path d="M-37.822 14.255v2.576c.056-.144.067-.313.174-.42.198-.198.472-.32.775-.32h6.577a1.092 1.092 0 0 1 1.095 1.095v6.577a1.097 1.097 0 0 1-1.095 1.097h-6.577a1.09 1.09 0 0 1-.775-.32c-.107-.108-.118-.277-.174-.422v2.578c.056-.144.067-.312.174-.42.198-.198.472-.32.775-.32h6.577a1.092 1.092 0 0 1 1.095 1.096v6.576c0 .303-.122.577-.32.775-.107.108-.276.119-.42.174h2.578c-.145-.055-.314-.066-.422-.174a1.09 1.09 0 0 1-.32-.775v-6.576a1.09 1.09 0 0 1 1.098-1.096h6.574a1.097 1.097 0 0 1 1.097 1.096v6.576c0 .303-.121.577-.32.775-.108.108-.277.119-.422.174h2.578c-.144-.055-.312-.066-.42-.174a1.092 1.092 0 0 1-.32-.775v-6.576a1.092 1.092 0 0 1 1.096-1.096h6.576c.304 0 .577.122.775.32.108.108.119.276.174.42v-2.578c-.055.145-.066.314-.174.422a1.09 1.09 0 0 1-.775.32h-6.576a1.09 1.09 0 0 1-1.096-1.097v-6.577a1.092 1.092 0 0 1 1.096-1.095h6.576c.304 0 .577.122.775.32.108.107.119.276.174.42v-2.576c-.055.144-.066.312-.174.42-.198.198-.471.32-.775.32h-6.576A1.092 1.092 0 0 1-18.24 13.9V7.323c0-.303.122-.577.32-.775.108-.107.276-.119.42-.174h-2.578c.145.055.314.066.422.174.199.198.32.472.32.775V13.9a1.09 1.09 0 0 1-1.097 1.096h-6.574a1.097 1.097 0 0 1-1.098-1.096V7.323c0-.303.122-.577.32-.775.108-.108.277-.119.422-.174h-2.578c.144.055.313.067.42.174.198.198.32.472.32.775V13.9a1.092 1.092 0 0 1-1.095 1.096h-6.577c-.303 0-.577-.122-.775-.32-.107-.108-.118-.276-.174-.42z" fill="#f9f9f9"/><path d="M-37.822 14.255c.056.144.067.312.174.42.198.198.472.32.775.32h6.577a1.092 1.092 0 0 0 1.095-1.096V7.323c0-.303-.122-.577-.32-.775-.107-.107-.276-.119-.42-.174h-2.307a5.561 5.561 0 0 0-5.574 5.574z" fill="#d55045"/><path d="M-27.007 16.09a1.097 1.097 0 0 0-1.098 1.096v6.577a1.095 1.095 0 0 0 1.098 1.097h6.574a1.095 1.095 0 0 0 1.097-1.097v-6.577a1.09 1.09 0 0 0-1.097-1.095z" fill="#8e8e8e"/><path d="M-27.007 16.09h6.574a1.097 1.097 0 0 1 1.097 1.096v6.577a1.095 1.095 0 0 1-1.097 1.097h-6.574a1.095 1.095 0 0 1-1.098-1.097v-6.577a1.09 1.09 0 0 1 1.098-1.095z" fill="#4b95d5"/><path d="M-9.619 16.831c-.055-.144-.066-.313-.174-.42a1.092 1.092 0 0 0-.775-.32h-6.576a1.092 1.092 0 0 0-1.096 1.095v6.577a1.097 1.097 0 0 0 1.096 1.097h6.576c.304 0 .577-.122.775-.32.108-.108.119-.277.174-.422z" fill="#94d551"/></g></svg>