<svg xmlns="http://www.w3.org/2000/svg" width="32" height="32" version="1"><rect width="28.203" height="28.203" x="1.898" y="1.898" ry="5.575" fill="#8e8e8e" fill-rule="evenodd"/><g transform="matrix(.9138 0 0 .9138 1.417 1.378)"><path d="M19.272 10.235a8.438 8.438 0 0 0-8.439 8.438v8.438h8.439a8.438 8.438 0 1 0 0-16.876zm0 3.616a4.822 4.822 0 0 1 4.821 4.822 4.822 4.822 0 0 1-4.821 4.822 4.822 4.822 0 0 1-4.822-4.822 4.822 4.822 0 0 1 4.822-4.822z" fill="#666"/><ellipse ry="4.949" rx="5.258" cy="13.106" cx="13.734" fill="#8e8e8e"/><path d="M13.615 4.865a8.438 8.438 0 0 0-8.438 8.439v8.438h8.438a8.438 8.438 0 1 0 0-16.877zm0 3.617a4.822 4.822 0 0 1 4.822 4.822 4.822 4.822 0 0 1-4.822 4.821 4.822 4.822 0 0 1-4.822-4.821 4.822 4.822 0 0 1 4.822-4.822z" fill="#333"/></g></svg>