<svg xmlns="http://www.w3.org/2000/svg" height="32" width="32" version="1"><rect width="28.203" height="28.203" x="1.898" y="1.898" ry="5.575" fill="#2a9722" fill-rule="evenodd"/><path d="M9.055 30.102h15.472a5.561 5.561 0 0 0 5.575-5.575V8.737a22.225 22.225 0 0 1-.07 1.4 22.225 22.225 0 0 1-.333 2.195 22.225 22.225 0 0 1-.549 2.152 22.225 22.225 0 0 1-.761 2.088 22.225 22.225 0 0 1-.967 2 22.225 22.225 0 0 1-1.162 1.895 22.225 22.225 0 0 1-1.344 1.767 22.225 22.225 0 0 1-1.514 1.627 22.225 22.225 0 0 1-1.67 1.465 22.225 22.225 0 0 1-1.806 1.293 22.225 22.225 0 0 1-1.928 1.106 22.225 22.225 0 0 1-2.027.908 22.225 22.225 0 0 1-2.11.7 22.225 22.225 0 0 1-2.166.485 22.225 22.225 0 0 1-2.207.268 22.225 22.225 0 0 1-.433.016z" fill="#8500db" fill-rule="evenodd"/><path d="M9.055 30.102c.144-.004.289-.01.433-.016A22.226 22.226 0 0 0 29.15 14.484a22.225 22.225 0 0 0 .881-4.347c.038-.466.062-.933.07-1.4V7.474c0-2.782-1.993-5.036-4.535-5.493.096.268.241.674.325.946A18.652 18.652 0 0 1 2.404 25.736c-.094-.033-.29-.058-.385-.093.525 2.535 2.758 4.459 5.454 4.459z" fill="#5631d4" fill-rule="evenodd"/><path d="M2.02 25.643c.093.035.29.06.384.093a18.653 18.653 0 0 0 6.832.787 18.654 18.654 0 0 0 14.077-8.074c.35-.513.675-1.044.972-1.59.299-.545.57-1.105.813-1.677a18.652 18.652 0 0 0 1.379-5.403 18.653 18.653 0 0 0-.586-6.851 25.664 25.664 0 0 0-.325-.946c-.365-.075-.65-.084-1.039-.084h-2.314c.06.13.119.261.176.393a15.526 15.526 0 0 1 1.015 4.527A15.522 15.522 0 0 1 6.367 23.365a15.526 15.526 0 0 1-3.039-.615c-.485-.15-.962-.324-1.43-.521v2.298c0 .393.045.746.121 1.116z" fill="#018dc1" fill-rule="evenodd"/><path d="M1.898 22.229a15.526 15.526 0 0 0 1.43.521 15.526 15.526 0 0 0 1.504.385 15.526 15.526 0 0 0 1.535.23 15.526 15.526 0 0 0 1.549.078 15.526 15.526 0 0 0 1.1-.039 15.526 15.526 0 0 0 1.54-.187 15.526 15.526 0 0 0 1.514-.34 15.526 15.526 0 0 0 1.473-.488 15.526 15.526 0 0 0 1.416-.635 15.526 15.526 0 0 0 1.348-.772 15.526 15.526 0 0 0 1.261-.902 15.526 15.526 0 0 0 1.166-1.025 15.526 15.526 0 0 0 1.059-1.135 15.526 15.526 0 0 0 .94-1.236 15.526 15.526 0 0 0 .81-1.323 15.526 15.526 0 0 0 .674-1.398 15.526 15.526 0 0 0 .533-1.457 15.526 15.526 0 0 0 .385-1.504 15.526 15.526 0 0 0 .23-1.535 15.526 15.526 0 0 0 .078-1.549 15.526 15.526 0 0 0-.039-1.1 15.526 15.526 0 0 0-.187-1.54 15.526 15.526 0 0 0-.34-1.514 15.526 15.526 0 0 0-.488-1.473 15.526 15.526 0 0 0-.176-.393H18.4a12.103 12.103 0 0 1 .303.53 12.103 12.103 0 0 1 .494 1.103 12.103 12.103 0 0 1 .381 1.149 12.103 12.103 0 0 1 .266 1.18 12.103 12.103 0 0 1 .144 1.2 12.103 12.103 0 0 1 .032.858 12.103 12.103 0 0 1-.061 1.207 12.103 12.103 0 0 1-.182 1.197 12.103 12.103 0 0 1-.298 1.172 12.103 12.103 0 0 1-.415 1.137 12.103 12.103 0 0 1-.527 1.088 12.103 12.103 0 0 1-.63 1.031 12.103 12.103 0 0 1-.733.963 12.103 12.103 0 0 1-.824.887 12.103 12.103 0 0 1-.91.797 12.103 12.103 0 0 1-.985.705 12.103 12.103 0 0 1-1.049.601 12.103 12.103 0 0 1-1.103.494 12.103 12.103 0 0 1-1.149.381 12.103 12.103 0 0 1-1.18.266 12.103 12.103 0 0 1-1.2.146 12.103 12.103 0 0 1-.858.03 12.103 12.103 0 0 1-1.207-.061 12.103 12.103 0 0 1-1.197-.18 12.103 12.103 0 0 1-1.172-.3 12.103 12.103 0 0 1-1.137-.415 12.103 12.103 0 0 1-1.088-.527 12.103 12.103 0 0 1-.217-.133z" fill="#2a9722" fill-rule="evenodd"/><path d="M1.898 18.404a12.103 12.103 0 0 0 .217.133 12.103 12.103 0 0 0 1.088.527 12.103 12.103 0 0 0 1.137.415 12.103 12.103 0 0 0 1.172.3 12.103 12.103 0 0 0 1.197.18 12.103 12.103 0 0 0 1.207.06 12.103 12.103 0 0 0 .857-.029 12.103 12.103 0 0 0 1.202-.146 12.103 12.103 0 0 0 1.18-.266 12.103 12.103 0 0 0 1.148-.38 12.103 12.103 0 0 0 1.103-.495 12.103 12.103 0 0 0 1.05-.601 12.103 12.103 0 0 0 .983-.705 12.103 12.103 0 0 0 .91-.797 12.103 12.103 0 0 0 .825-.887 12.103 12.103 0 0 0 .732-.963 12.103 12.103 0 0 0 .631-1.031 12.103 12.103 0 0 0 .527-1.088 12.103 12.103 0 0 0 .415-1.137 12.103 12.103 0 0 0 .298-1.172 12.103 12.103 0 0 0 .182-1.197 12.103 12.103 0 0 0 .06-1.207 12.103 12.103 0 0 0-.03-.857 12.103 12.103 0 0 0-.145-1.202 12.103 12.103 0 0 0-.266-1.18 12.103 12.103 0 0 0-.38-1.148 12.103 12.103 0 0 0-.495-1.103 12.103 12.103 0 0 0-.303-.53h-3.605a9.15 9.15 0 0 1 .29.33 9.15 9.15 0 0 1 .532.745 9.15 9.15 0 0 1 .455.793 9.15 9.15 0 0 1 .373.836 9.15 9.15 0 0 1 .29.867 9.15 9.15 0 0 1 .2.892 9.15 9.15 0 0 1 .11.909 9.15 9.15 0 0 1 .023.648 9.15 9.15 0 0 1-.046.912 9.15 9.15 0 0 1-.137.904 9.15 9.15 0 0 1-.227.887 9.15 9.15 0 0 1-.312.86 9.15 9.15 0 0 1-.399.824 9.15 9.15 0 0 1-.478.779 9.15 9.15 0 0 1-.553.729 9.15 9.15 0 0 1-.623.67 9.15 9.15 0 0 1-.688.603 9.15 9.15 0 0 1-.744.531 9.15 9.15 0 0 1-.793.455 9.15 9.15 0 0 1-.836.373 9.15 9.15 0 0 1-.867.29 9.15 9.15 0 0 1-.892.2 9.15 9.15 0 0 1-.909.11 9.15 9.15 0 0 1-.648.023 9.15 9.15 0 0 1-.912-.046 9.15 9.15 0 0 1-.904-.137 9.15 9.15 0 0 1-.887-.227 9.15 9.15 0 0 1-.86-.312 9.15 9.15 0 0 1-.824-.399 9.15 9.15 0 0 1-.779-.478 9.15 9.15 0 0 1-.728-.553 9.15 9.15 0 0 1-.124-.115z" fill="#e8e022" fill-rule="evenodd"/><path d="M1.898 14.8a9.15 9.15 0 0 0 .123.116 9.15 9.15 0 0 0 .729.553 9.15 9.15 0 0 0 .78.478 9.15 9.15 0 0 0 .824.399 9.15 9.15 0 0 0 .859.312 9.15 9.15 0 0 0 .887.227 9.15 9.15 0 0 0 .904.137 9.15 9.15 0 0 0 .912.046 9.15 9.15 0 0 0 .648-.023 9.15 9.15 0 0 0 .909-.11 9.15 9.15 0 0 0 .892-.2 9.15 9.15 0 0 0 .867-.29 9.15 9.15 0 0 0 .836-.373 9.15 9.15 0 0 0 .793-.455 9.15 9.15 0 0 0 .744-.531 9.15 9.15 0 0 0 .688-.604 9.15 9.15 0 0 0 .623-.67 9.15 9.15 0 0 0 .553-.728 9.15 9.15 0 0 0 .478-.78 9.15 9.15 0 0 0 .399-.824 9.15 9.15 0 0 0 .312-.859 9.15 9.15 0 0 0 .227-.887 9.15 9.15 0 0 0 .136-.904 9.15 9.15 0 0 0 .047-.912 9.15 9.15 0 0 0-.023-.648 9.15 9.15 0 0 0-.11-.909 9.15 9.15 0 0 0-.2-.892 9.15 9.15 0 0 0-.29-.867 9.15 9.15 0 0 0-.373-.836 9.15 9.15 0 0 0-.455-.793 9.15 9.15 0 0 0-.531-.744 9.15 9.15 0 0 0-.291-.33H9.762a6.297 6.297 0 0 1 .015.003 6.297 6.297 0 0 1 .592.215 6.297 6.297 0 0 1 .567.274 6.297 6.297 0 0 1 .537.33 6.297 6.297 0 0 1 .5.38 6.297 6.297 0 0 1 .46.428 6.297 6.297 0 0 1 .417.473 6.297 6.297 0 0 1 .365.514 6.297 6.297 0 0 1 .314.545 6.297 6.297 0 0 1 .256.574 6.297 6.297 0 0 1 .2.598 6.297 6.297 0 0 1 .138.615 6.297 6.297 0 0 1 .074.623 6.297 6.297 0 0 1 .016.447 6.297 6.297 0 0 1-.031.627 6.297 6.297 0 0 1-.094.623 6.297 6.297 0 0 1-.156.61 6.297 6.297 0 0 1-.215.591 6.297 6.297 0 0 1-.274.567 6.297 6.297 0 0 1-.33.537 6.297 6.297 0 0 1-.38.5 6.297 6.297 0 0 1-.428.46 6.297 6.297 0 0 1-.473.417 6.297 6.297 0 0 1-.514.365 6.297 6.297 0 0 1-.545.314 6.297 6.297 0 0 1-.574.256 6.297 6.297 0 0 1-.597.2 6.297 6.297 0 0 1-.616.138 6.297 6.297 0 0 1-.623.074 6.297 6.297 0 0 1-.447.018 6.297 6.297 0 0 1-.627-.033 6.297 6.297 0 0 1-.623-.094 6.297 6.297 0 0 1-.61-.154 6.297 6.297 0 0 1-.591-.217 6.297 6.297 0 0 1-.567-.274 6.297 6.297 0 0 1-.537-.33 6.297 6.297 0 0 1-.5-.38 6.297 6.297 0 0 1-.46-.428 6.297 6.297 0 0 1-.417-.473 6.297 6.297 0 0 1-.365-.514 6.297 6.297 0 0 1-.314-.544 6.297 6.297 0 0 1-.256-.575 6.297 6.297 0 0 1-.15-.45z" fill="#d76100" fill-rule="evenodd"/><path d="M1.898 9.748a6.297 6.297 0 0 0 .15.451 6.297 6.297 0 0 0 .257.574 6.297 6.297 0 0 0 .314.545 6.297 6.297 0 0 0 .365.514 6.297 6.297 0 0 0 .416.473 6.297 6.297 0 0 0 .461.427 6.297 6.297 0 0 0 .5.381 6.297 6.297 0 0 0 .537.33 6.297 6.297 0 0 0 .567.274 6.297 6.297 0 0 0 .592.217 6.297 6.297 0 0 0 .609.154 6.297 6.297 0 0 0 .623.094 6.297 6.297 0 0 0 .627.033 6.297 6.297 0 0 0 .447-.018 6.297 6.297 0 0 0 .623-.074 6.297 6.297 0 0 0 .616-.139 6.297 6.297 0 0 0 .597-.199 6.297 6.297 0 0 0 .574-.256 6.297 6.297 0 0 0 .545-.314 6.297 6.297 0 0 0 .514-.365 6.297 6.297 0 0 0 .473-.416 6.297 6.297 0 0 0 .427-.461 6.297 6.297 0 0 0 .381-.5 6.297 6.297 0 0 0 .33-.537 6.297 6.297 0 0 0 .274-.567 6.297 6.297 0 0 0 .215-.592 6.297 6.297 0 0 0 .156-.609 6.297 6.297 0 0 0 .094-.623 6.297 6.297 0 0 0 .03-.627 6.297 6.297 0 0 0-.015-.447 6.297 6.297 0 0 0-.074-.623 6.297 6.297 0 0 0-.139-.616 6.297 6.297 0 0 0-.199-.597 6.297 6.297 0 0 0-.256-.574 6.297 6.297 0 0 0-.314-.545 6.297 6.297 0 0 0-.365-.514 6.297 6.297 0 0 0-.416-.473 6.297 6.297 0 0 0-.461-.427 6.297 6.297 0 0 0-.5-.381 6.297 6.297 0 0 0-.537-.33 6.297 6.297 0 0 0-.567-.274 6.297 6.297 0 0 0-.592-.215 6.297 6.297 0 0 0-.015-.004h-2.29a5.563 5.563 0 0 0-5.574 5.577z" fill="#ab1406" fill-rule="evenodd"/><path d="M8.973 9.624v.938l1.246.095.202.285-2.006 10.685-.309.296-1.27.095v.973h5.557v-.973l-1.235-.084-.214-.308.82-4.476h1.258l1.805 3.799c.737 1.515 1.255 2.164 2.849 2.185.458.006.643.04 1.88 0 4.265-3.562 6.443-6.276 6.787-7.504.208-.743-.123-1.199-.832-1.199-.345 0-.741.146-1.187.44l-.32 2.552c-.873 1.14-2.037 2.384-3.455 3.68l.938-4.903c.195-1.003.259-1.538-.392-1.745l-2.908.641-.155.546 1.342.214c.093.346-.01 1.097-.214 2.256l-.653 3.597c-.01.037-.017.077-.024.119-.423-.228-.69-.633-.997-1.247l-2.552-5.105 4.665-4.725 1.591-.154v-.974h-4.986v.974l1.235.095.118.32-4.998 5.153h-.593l.985-5.224.261-.285 1.318-.095v-.938z" fill="#fff"/></svg>