<svg xmlns="http://www.w3.org/2000/svg" height="32" width="32" version="1"><rect width="28.203" height="28.203" x="1.898" y="1.898" ry="5.575" fill="#fff" fill-rule="evenodd"/><path d="M7.473 1.898a5.561 5.561 0 0 0-5.575 5.575v17.052c0 .665.123 1.299.334 1.89h1.3v.634H2.503a5.556 5.556 0 0 0 4.969 3.053h17.054a5.563 5.563 0 0 0 5.574-5.577V7.473a5.561 5.561 0 0 0-5.574-5.575zM2.97 4.951H5.51v.635H2.97zm3.81 0h2.54v.635H6.78zm3.809 0h2.54v.635h-2.54zm3.81 0h2.54v.635H14.4zm3.81 0h2.54v.635h-2.54zm3.81 0h.501l.856.086.062.014.797.246.059.023.33.18-.303.559-.297-.163-.738-.228-.81-.082h-.458zm3.724 1.365l.51.618.035.05.389.721.025.057.246.799.012.06.01.086-.633.063-.004-.05-.23-.743-.358-.659-.492-.6zm.67 3.688h.635v2.54h-.635zm0 3.81h.635v2.54h-.635zm0 3.811h.635v2.54h-.635zm0 3.809h.635v1.054l-.002.032-.086.857-.012.062-.184.596-.607-.187.176-.57.08-.801zm-.803 3.414l.49.402-.365.443-.043.043-.627.518-.05.033-.721.39-.059.024-.318.1-.188-.608.287-.088.672-.363.577-.476zm-3.062 1.558l.062.631-.09.01-.033.002h-2.447v-.635h2.434zM4.8 26.414h2.54v.635h-2.54zm3.81 0h2.54v.635H8.61zm3.81 0h2.54v.635h-2.54zm3.81 0h2.54v.635h-2.54z" fill="#c49a6c" fill-rule="evenodd"/><path d="M24.502 12h5.6v8h-5.6c-.776 0-1.4-.595-1.4-1.333v-5.334c0-.739.624-1.334 1.4-1.334z" fill="#9b6e3e"/><path d="M24.908 12.5v.166l-.018-.165-.066.007.037.33.047-.005h.706v-.334h-.706zm1.058 0v.333h.706V12.5zm1.06 0v.333h.705V12.5zm1.058 0v.333h.706V12.5zm1.059 0v.333h.459V12.5h-.46zm-4.697.086l-.032.009-.018.005-.015.008-.192.103-.015.007-.014.01-.166.136-.013.01-.01.013-.139.164-.01.013-.008.014-.004.008.201.099.098.073.13-.154.136-.112.163-.086.015-.006-.001-.002.003-.001-.007-.01-.102-.302zm-.787.836l-.027.084-.005.014-.002.017-.022.224-.001.008v.362h.353v-.355l.02-.194.021-.066-.337-.095zm-.057 1.042v.667h.353v-.667zm0 1v.667h.353v-.667zm0 1v.667h.353v-.667zm0 1v.667h.353v-.667zm.374.95l-.338.096.06.192.005.016.008.013.103.189.009.014.01.013.137.164.011.013.013.01.034.028.23-.253-.019-.016-.119-.14-.09-.163-.054-.176zm.541.667l-.172.29.036.02.015.008.018.005.211.066.018.005.018.001.229.022.01.001h.22v-.333h-.212l-.195-.02-.178-.055-.018-.01zm.956.085v.333h.706v-.333zm1.059 0v.333h.706v-.333zm1.058 0v.333h.706v-.333zm1.06 0v.333h.705v-.333zM27.233 16.066a.94.946 0 0 1-.94.946.94.946 0 0 1-.941-.946.94.946 0 0 1 .94-.946.94.946 0 0 1 .94.946z" fill="#fff"/><path d="M10.755 15.311l-1.757.16v6.847l1.738-.249V19.15l2.339 3.239 1.832-.55-2.395-3.115 2.413-2.937-1.869-.405-2.32 2.937.019-3.008zm-3.983 1.67c-.02.003-.042.006-.056.02l-.691.655a.08.08 0 0 0-.011.103l.807 1.26a3.17 3.17 0 0 0-.342.732l-1.483.29a.088.088 0 0 0-.071.086v.923c0 .039.031.072.071.082l1.438.33c.077.3.196.587.353.849l-.833 1.2a.082.082 0 0 0 .01.106l.691.654c.03.027.074.03.11.01l1.306-.749c.256.14.533.252.825.327l.305 1.385a.086.086 0 0 0 .086.067h.976c.041 0 .077-.026.086-.064l.36-1.392c.302-.077.586-.19.85-.337l1.287.799a.095.095 0 0 0 .112-.01l.687-.654a.08.08 0 0 0 .015-.103l-.469-.732-.154.046a.057.057 0 0 1-.06-.021l-.683-.948c-.463.856-1.406 1.442-2.493 1.442-1.544 0-2.796-1.185-2.796-2.646 0-1.074.679-1.997 1.652-2.411v-.682c-.177.059-.348.13-.511.213v-.004l-1.318-.817a.086.086 0 0 0-.056-.01z" color="#31363b" fill-opacity=".494"/></svg>