<svg xmlns="http://www.w3.org/2000/svg" height="32" width="32" version="1"><rect width="28.203" height="28.203" x="1.898" y="1.898" ry="5.575" fill="#6929d8" fill-rule="evenodd"/><g color="#000" font-weight="400" font-family="sans-serif" fill-rule="evenodd"><path d="M7.254 5.422c-.67 0-1.241.37-1.569.798-.327.43-.479.934-.479 1.46v11.283c0 .527.152 1.031.48 1.46.327.429.899.797 1.568.797h13.603c.67 0 1.242-.368 1.57-.797.327-.429.479-.933.479-1.46V7.68c0-.526-.152-1.03-.48-1.46-.327-.428-.9-.798-1.569-.798z" style="line-height:normal;font-variant-ligatures:normal;font-variant-position:normal;font-variant-caps:normal;font-variant-numeric:normal;font-variant-alternates:normal;font-feature-settings:normal;text-indent:0;text-align:start;text-decoration-line:none;text-decoration-style:solid;text-decoration-color:#000;text-transform:none;text-orientation:mixed;white-space:normal;shape-padding:0;isolation:auto;mix-blend-mode:normal;solid-color:#000;solid-opacity:1" font-size="12" overflow="visible" fill="#6929d8"/><path d="M7.889 6.577c-.349 0-.653.19-.844.44-.191.25-.291.566-.291.905v.883a.457.457 0 0 0 0 .031v10.37c0 .34.1.654.29.904.192.25.496.44.845.44h13.603c.349 0 .653-.19.844-.44.19-.25.291-.565.291-.904V8.846l.002-.01a.457.457 0 0 0-.002-.044v-.87c0-.34-.1-.656-.291-.906a1.08 1.08 0 0 0-.844-.44zm0 .914h13.603c.028 0 .063.009.117.08a.6.6 0 0 1 .106.351v.914a.2.2 0 0 1-.21.21H7.876a.2.2 0 0 1-.209-.21v-.914a.6.6 0 0 1 .105-.351c.055-.071.09-.08.118-.08zm12.672.193a.274.274 0 0 0-.192.47l.131.132-.115.115a.274.274 0 1 0 .386.389l.118-.118.115.118a.274.274 0 0 0 .387-.39l-.116-.114.116-.118a.274.274 0 0 0-.387-.386l-.115.115-.131-.129a.274.274 0 0 0-.197-.084zM7.666 9.917c.07.014.135.042.209.042h13.63c.074 0 .14-.029.21-.042v9.289a.6.6 0 0 1-.106.351c-.054.071-.09.08-.117.08H7.89c-.028 0-.063-.009-.118-.08a.6.6 0 0 1-.105-.351z" style="line-height:normal;font-variant-ligatures:normal;font-variant-position:normal;font-variant-caps:normal;font-variant-numeric:normal;font-variant-alternates:normal;font-feature-settings:normal;text-indent:0;text-align:start;text-decoration-line:none;text-decoration-style:solid;text-decoration-color:#000;text-transform:none;text-orientation:mixed;white-space:normal;shape-padding:0;isolation:auto;mix-blend-mode:normal;solid-color:#000;solid-opacity:1" overflow="visible" fill="#fff"/><path d="M11.142 10.78c-.67 0-1.241.369-1.569.798-.327.428-.479.933-.479 1.46V24.32c0 .527.152 1.032.48 1.46.327.43.899.798 1.568.798h13.604c.67 0 1.24-.369 1.569-.798.327-.428.479-.933.479-1.46V13.038c0-.527-.152-1.032-.48-1.46-.327-.43-.899-.798-1.568-.798z" style="line-height:normal;font-variant-ligatures:normal;font-variant-position:normal;font-variant-caps:normal;font-variant-numeric:normal;font-variant-alternates:normal;font-feature-settings:normal;text-indent:0;text-align:start;text-decoration-line:none;text-decoration-style:solid;text-decoration-color:#000;text-transform:none;text-orientation:mixed;white-space:normal;shape-padding:0;isolation:auto;mix-blend-mode:normal;solid-color:#000;solid-opacity:1" font-size="12" overflow="visible" fill="#6929d8"/><path d="M11.142 11.701c-.346 0-.646.188-.836.436-.19.248-.29.563-.29.9V24.32c0 .338.1.652.29.9.19.249.49.436.836.436h13.603c.346 0 .647-.187.837-.436.19-.248.29-.562.29-.9V13.038c0-.338-.1-.653-.29-.901a1.07 1.07 0 0 0-.837-.436zm0 .896h13.603c.031 0 .07.01.125.083a.61.61 0 0 1 .106.358V24.32c0 .155-.05.284-.106.357-.055.073-.094.083-.125.083H11.142c-.03 0-.069-.01-.124-.083a.608.608 0 0 1-.107-.357V13.038a.61.61 0 0 1 .107-.358c.055-.073.093-.083.124-.083z" style="line-height:normal;font-variant-ligatures:normal;font-variant-position:normal;font-variant-caps:normal;font-variant-numeric:normal;font-variant-alternates:normal;font-feature-settings:normal;text-indent:0;text-align:start;text-decoration-line:none;text-decoration-style:solid;text-decoration-color:#000;text-transform:none;text-orientation:mixed;white-space:normal;shape-padding:0;isolation:auto;mix-blend-mode:normal;solid-color:#000;solid-opacity:1" overflow="visible" fill="#fff"/><path d="M11.129 11.669a1.12 1.12 0 0 0-1.113 1.113v1.17c0 .61.504 1.113 1.113 1.113h13.63a1.12 1.12 0 0 0 1.113-1.113v-1.17a1.12 1.12 0 0 0-1.113-1.113zm0 .896h13.63c.128 0 .217.089.217.217v1.17c0 .128-.089.218-.217.218h-13.63a.208.208 0 0 1-.218-.218v-1.17c0-.128.09-.217.218-.217z" style="line-height:normal;font-variant-ligatures:normal;font-variant-position:normal;font-variant-caps:normal;font-variant-numeric:normal;font-variant-alternates:normal;font-feature-settings:normal;text-indent:0;text-align:start;text-decoration-line:none;text-decoration-style:solid;text-decoration-color:#000;text-transform:none;text-orientation:mixed;white-space:normal;shape-padding:0;isolation:auto;mix-blend-mode:normal;solid-color:#000;solid-opacity:1" overflow="visible" fill="#fff"/><path d="M11.143 11.693c-.349 0-.653.188-.844.438-.191.25-.291.566-.291.906v.883a.457.457 0 0 0 0 .031v10.37c0 .339.1.656.29.906.192.25.496.437.845.437h13.603c.348 0 .653-.187.844-.437.19-.25.29-.567.29-.907V13.96c0-.002.003-.005.003-.009a.457.457 0 0 0-.002-.045v-.869c0-.34-.1-.656-.291-.906a1.078 1.078 0 0 0-.844-.438H11.143zm0 .912h13.603c.028 0 .063.01.117.08a.6.6 0 0 1 .106.352v.914a.2.2 0 0 1-.21.21H11.13a.2.2 0 0 1-.21-.21v-.914a.6.6 0 0 1 .106-.351c.055-.072.09-.08.118-.08zm12.666.233a.256.256 0 0 0-.153.44l.123.122-.11.11a.256.256 0 1 0 .362.361l.11-.11.109.11a.256.256 0 1 0 .363-.361l-.11-.11.11-.109a.257.257 0 1 0-.363-.363l-.11.11-.122-.124a.256.256 0 0 0-.184-.076.256.256 0 0 0-.025 0zm-12.89 2.193c.071.014.136.043.21.043h13.63c.074 0 .14-.029.21-.043v9.29a.6.6 0 0 1-.106.35c-.054.072-.09.081-.117.081H11.143c-.028 0-.063-.009-.118-.08a.6.6 0 0 1-.105-.352v-9.289zm7.241.899a.504.504 0 0 0-.523.521v4.047c0 .151.05.273.146.365.1.093.226.139.377.139a.502.502 0 0 0 .518-.504v-1.787l1.799 1.967c.113.117.205.2.277.25.074.05.158.074.248.074.154 0 .283-.04.387-.121.104-.084.156-.205.156-.363 0-.1-.026-.19-.078-.272a1.248 1.248 0 0 0-.215-.258l-1.602-1.69 1.31-1.304c.12-.12.208-.221.263-.303a.46.46 0 0 0 .08-.253.464.464 0 0 0-.155-.366.51.51 0 0 0-.359-.142.54.54 0 0 0-.404.197l-1.707 1.836V16.45c0-.162-.05-.29-.147-.383a.507.507 0 0 0-.37-.138zm-2.246.802l-.68.559.616 1.05-.35.858-1.201.2-.004.912 1.238.316.34.834-.785 1.008.666.697 1.08-.729.857.381.286 1.25.92-.007.253-1.286.858-.34 1.078.7.508-.7-1.225-1.154c-3.139 2.88-5.85-1.56-3.154-3.416V17.2l-.319.158-.982-.625z" style="line-height:normal;font-variant-ligatures:normal;font-variant-position:normal;font-variant-caps:normal;font-variant-numeric:normal;font-variant-alternates:normal;font-feature-settings:normal;text-indent:0;text-align:start;text-decoration-line:none;text-decoration-style:solid;text-decoration-color:#000;text-transform:none;text-orientation:mixed;white-space:normal;shape-padding:0;isolation:auto;mix-blend-mode:normal;solid-color:#000;solid-opacity:1" overflow="visible" fill="#fff"/></g></svg>