<svg xmlns="http://www.w3.org/2000/svg" width="32" height="32"><rect width="28.203" height="28.203" x="1.898" y="1.898" ry="5.575" fill="#5aa331" fill-rule="evenodd"/><g transform="translate(42 -5.474)"><circle cy="21.474" cx="-26" r="10" fill="#efefef"/><path d="M-29.412 29.374a.741.741 0 0 1-.206-.182 4.64 4.64 0 0 0-.33-.35c-.188-.184-.242-.22-.339-.227a.475.475 0 0 1-.228-.088c-.12-.084-.334-.335-.334-.39 0-.045-.137-.09-.27-.09-.233 0-.41-.117-.463-.306a4.067 4.067 0 0 0-.1-.289c-.056-.144-.085-.178-.18-.215-.525-.206-.539-.215-.624-.417a1.239 1.239 0 0 0-.118-.214c-.05-.066-.058-.11-.041-.226a.345.345 0 0 0-.045-.26c-.059-.107-.06-.127-.02-.217a.339.339 0 0 1 .08-.119.353.353 0 0 0 .085-.107c.049-.087.048-.088-.088-.202a2.534 2.534 0 0 0-.272-.196c-.11-.065-.145-.108-.183-.225-.082-.253-.066-.323.112-.492.087-.083.159-.174.159-.203 0-.03-.055-.108-.121-.176a3.925 3.925 0 0 1-.235-.27c-.16-.203-.245-.27-.425-.334a12.505 12.505 0 0 1-.616-.231.566.566 0 0 1-.13-.162c-.128-.215-.19-.259-.393-.274-.286-.022-.31-.108-.208-.751.044-.277.09-.386.237-.55.184-.207.341-.28.641-.3.234-.015.265-.01.488.082.131.054.26.11.288.126.113.064.582.697.617.832.01.04.057.125.105.188.077.103.12.126.397.211.172.053.355.129.407.17.122.094.151.093.297-.014.213-.156.313-.198.524-.22.335-.035.349-.044.349-.237 0-.125.02-.197.08-.292.115-.18.19-.172.399.046.091.095.231.205.311.244.144.071.148.071.273.021a.781.781 0 0 0 .362-.37c.056-.129.017-.314-.09-.428-.197-.209-.447-.59-.447-.68 0-.126.22-.43.379-.521.152-.09.2-.154.273-.367.085-.248.147-.35.26-.43.118-.083.125-.123.054-.304-.12-.307-.031-.492.31-.637.237-.101.277-.175.153-.28-.099-.081-.081-.19.044-.283a.476.476 0 0 0 .176-.495 1.398 1.398 0 0 0-.097-.235c-.116-.21-.07-.324.169-.415.124-.048.247-.171.247-.248 0-.027-.063-.106-.141-.177-.153-.137-.201-.254-.145-.35.05-.087.178-.076.28.024a.423.423 0 0 0 .166.102c.12.026.381-.097.501-.237.079-.091.132-.123.23-.139a.75.75 0 0 0 .261-.113c.121-.085.134-.106.134-.223 0-.126.003-.13.116-.147a.493.493 0 0 0 .33-.188c.049-.067.048-.078-.015-.17a.39.39 0 0 1-.066-.162.924.924 0 0 0-.037-.187.576.576 0 0 1-.014-.236c.04-.195.26-.217.436-.044.107.105.113.174.03.299-.053.079-.055.098-.018.146.042.052.051.053.202.01.22-.066.348-.06.53.025a.803.803 0 0 0 .283.073c.183 0 .28.055.305.171.047.212.179.22.314.02.084-.126.166-.148.335-.093.109.035.14.036.206 0 .113-.057.201-.05.426.032.117.043.224.065.259.054.033-.01.152-.11.266-.22.178-.172.221-.2.317-.2.14.001.3.089.362.2a.62.62 0 0 0 .156.16c.079.056.114.106.128.188.01.062.069.176.13.255a.555.555 0 0 1 .13.328c.02.166.032.191.112.229a.344.344 0 0 0 .386-.039c.057-.045.158-.118.224-.163a.708.708 0 0 0 .207-.248c.078-.151.096-.167.212-.184.143-.022.308.034.38.127.07.093.027.39-.085.572-.079.13-.09.173-.072.273.023.123.052.158.25.297a.712.712 0 0 1 .178.196c.084.151.32.284.426.24.056-.024.077-.061.09-.167.009-.075.033-.152.054-.17.046-.043.449-.036.54.01.045.021.064.06.064.129 0 .054.024.148.052.21.038.082.05.19.047.384-.006.307.003.33.232.577.239.257.314.357.46.608.178.307.25.493.276.704a.588.588 0 0 0 .11.297c.219.294.238.48.149 1.43-.034.368-.042.596-.024.672.019.075.013.26-.017.532-.047.437-.093.59-.317 1.053-.089.185-.12.29-.127.438-.051.996-.278 1.436-.74 1.436-.095 0-.187.037-.405.165-.445.26-.521.295-.782.356-.313.073-.439.14-.51.275-.07.131-.054.165.152.31.217.151.228.175.164.356-.097.277-.212.296-.513.086-.125-.087-.242-.146-.291-.146-.045 0-.19.051-.324.114-.415.195-.517.211-.748.118-.167-.068-.185-.063-.413.122-.09.073-.112.111-.112.198 0 .131-.046.178-.17.178a.283.283 0 0 0-.157.051.313.313 0 0 1-.175.051c-.108 0-.116.01-.155.132-.044.142-.167.263-.267.263a.758.758 0 0 0-.214.07c-.325.152-.559.137-.88-.058-.287-.173-.324-.207-.41-.363-.101-.182-.17-.23-.398-.28a3.628 3.628 0 0 1-.404-.118c-.183-.067-.234-.074-.449-.057-.133.01-.256.018-.273.018-.017 0-.144 0-.28-.01-.222-.01-.257-.015-.318-.08-.085-.091-.29-.204-.37-.204-.073 0-.218.13-.3.271-.056.094-.058.122-.024.24.058.2.05.243-.065.308-.088.05-.136.056-.325.041-.194-.015-.24-.01-.358.05a1.906 1.906 0 0 0-.328.243c-.179.162-.191.182-.175.277.039.222-.058.297-.226.176-.1-.072-.147-.072-.318-.001-.166.069-.17.11-.016.132.066.01.187.037.27.062.137.042.16.042.292 0 .14-.05.145-.05.294.019.18.082.225.18.17.37-.046.156-.109.185-.462.215-.7.058-.758.059-.864.01zm8.31-2.747a.745.745 0 0 0 .132-.172c.07-.128.07-.112.06-1.214-.008-.682.01-.765.211-.98.096-.104.18-.154.385-.231.451-.17.705-.337.8-.525.075-.151.074-.27-.004-.475-.08-.21-.128-.258-.216-.215-.086.042-.155.015-.178-.07-.017-.062-.037-.07-.174-.069-.132.001-.16.011-.19.071-.045.092-.124.09-.164-.01-.027-.066-.045-.074-.126-.059-.077.014-.094.01-.094-.036 0-.029.03-.089.067-.132.067-.078.067-.08.003-.094a.45.45 0 0 1-.159-.137c-.09-.115-.095-.138-.103-.443-.014-.552-.007-.615.075-.706.06-.066.08-.13.095-.316.01-.129.035-.377.053-.552.037-.345.007-.566-.096-.733-.067-.108-.127-.539-.115-.828.008-.186 0-.219-.056-.255-.057-.037-.072-.034-.146.032-.1.088-.114.09-.136.014-.01-.035-.043-.058-.083-.058-.096 0-.082-.06.033-.148.083-.063.094-.085.066-.133-.068-.116.073-.17.327-.124.042.01.06 0 .053-.03a.264.264 0 0 1 .028-.125c.046-.1-.002-.17-.116-.17-.083 0-.14-.076-.14-.188a.136.136 0 0 0-.063-.11c-.077-.045-.08-.079-.014-.124.046-.03.044-.045-.02-.143-.08-.126-.208-.196-.41-.227l-.366-.054a19.159 19.159 0 0 1-.476-.079c-.492-.09-.792-.105-1.042-.054-.512.105-.875.296-.99.521a2.702 2.702 0 0 1-.322.491c-.073.09-.148.215-.167.277-.033.11-.077.18-.326.513a8.05 8.05 0 0 1-.579.601c-.371.357-.484.485-.576.657a2.291 2.291 0 0 0-.14.3 2.357 2.357 0 0 1-.09.234c-.036.08-.098.228-.139.329-.063.16-.11.214-.374.44-.368.315-.51.536-.446.697.034.088.028.112-.073.284-.107.182-.108.19-.05.237.057.048.057.052-.018.153-.053.072-.07.127-.058.183.013.062.002.088-.05.114-.037.018-.067.051-.067.073s-.035.064-.077.094c-.074.051-.076.061-.043.192.03.117.028.146-.016.191-.032.033-.056.119-.063.227-.01.167-.007.177.086.233a.349.349 0 0 1 .131.154c.065.185.168.244.495.286.163.021.37.04.46.04.089 0 .21.02.27.041.058.023.27.056.469.074.199.018.376.041.392.05.077.044.292.072.642.083.478.015.778.033.993.06.15.018.177.013.248-.049.08-.068.082-.069.126-.013a.233.233 0 0 1 .045.123c0 .041.043.097.112.148.155.112.238.251.237.398 0 .067.003.22.008.34.007.201.014.22.078.229.085.011.122.136.074.252-.037.09.002.162.087.162.048 0 .047.033-.012.27-.028.116.077.11.124-.01.045-.108.15-.12.15-.017 0 .134.143.117.2-.023.03-.07.133.072.133.18 0 .092.01.107.063.1.165-.02.61 0 .643.036.013.012.163.016.333.01.246-.01.324-.025.377-.069zm-3.53-4.247c-.19-.03-.408-.12-.487-.201-.055-.058-.057-.076-.021-.187.022-.068.05-.178.064-.246a.732.732 0 0 1 .105-.235c.12-.165.247-.406.248-.466 0-.149.257-.432.57-.63l.197-.126c.08-.051.132-.067.165-.05.092.047.324.352.366.48.044.138.088.248.186.479.034.08.071.18.081.22.02.074.219.203.314.203.065 0 .148.092.183.201.032.104-.002.213-.12.388-.12.176-.248.2-1.036.196a9.78 9.78 0 0 1-.816-.026zm3.876-4.13c0-.021-.036-.061-.08-.087-.074-.045-.079-.045-.079.01 0 .062.058.123.117.123a.04.04 0 0 0 .042-.04zm-2.23 10.403c-.038-.097.141-.263.23-.212.052.03.037.148-.026.2-.069.057-.185.064-.205.012zm1.706-.205a.75.75 0 0 1-.117-.092c-.031-.042.021-.116.115-.162.072-.035.097-.034.193.01.127.056.13.068.057.21-.061.118-.115.126-.248.037zm-1.311-.133c-.075-.053-.103-.194-.054-.267.028-.043.257-.018.326.035.083.063-.034.286-.148.285a.283.283 0 0 1-.124-.053z" fill="#ff352e"/></g></svg>