<svg xmlns="http://www.w3.org/2000/svg" height="32" width="32" version="1"><rect width="28.203" height="28.203" x="1.898" y="1.898" ry="5.575" fill="#c2352a" fill-rule="evenodd"/><path d="M12.054 20.953c-.32-.044-.89-.232-1.27-.418-2.474-1.204-3.487-4.238-2.268-6.793 1.393-2.921 5.192-3.666 7.479-1.466.661.636.955 1.178 1.95 3.582 1.04 2.513 1.231 2.909 1.568 3.244.36.356.695.476 1.335.476 1.05 0 1.801-.66 1.801-1.58 0-.78-.27-1.029-1.645-1.525-2.094-.767-2.773-1.46-2.775-2.853 0-.743.185-1.238.656-1.751.676-.733 1.842-.975 2.874-.611.44.159 1.361.986 1.361 1.223 0 .115-.534.467-.83.55-.156.041-.291-.012-.471-.188-.366-.357-.613-.467-1.051-.467-.756 0-1.224.462-1.224 1.207 0 .743.298.994 1.786 1.505 2.052.703 2.658 1.339 2.67 2.809.012 1.27-.551 2.186-1.672 2.728-.51.244-.682.276-1.515.276-1.188 0-1.722-.225-2.388-.987-.447-.513-.902-1.475-2.356-4.988-.604-1.456-1.378-2.17-2.67-2.45-.654-.142-1.565-.01-2.16.307-.578.308-1.225 1.002-1.53 1.637-.253.515-.277.66-.277 1.556 0 .855.034 1.057.245 1.526a3.77 3.77 0 0 0 1.642 1.734c.5.257.657.288 1.455.288.767 0 .964-.037 1.421-.258.522-.26 1.224-.895 1.51-1.37l.15-.248.293.682c.164.376.296.73.296.794 0 .188-.664.804-1.272 1.187-.924.58-1.984.796-3.117.64m-.003 0" fill="#fff"/></svg>