<svg xmlns="http://www.w3.org/2000/svg" width="32" height="32"><rect width="28.203" height="28.203" x="1.898" y="1.898" ry="5.575" fill="#00b88a" fill-rule="evenodd"/><path d="M16 5A11 11 0 0 0 5 16a11 11 0 0 0 11 11 11 11 0 0 0 11-11A11 11 0 0 0 16 5zm-2 2h4l-1 4-1 4-1-4zm-2.95 1.223l2.122 3.535 2.121 3.535-3.535-2.121-3.535-2.121 1.414-1.414zm9.9 0l1.413 1.414 1.414 1.414-3.535 2.12-3.535 2.122 2.121-3.535zM7 14.023l4 1 4 1-4 1-4 1zm18 0v4l-4-1-4-1 4-1zm-9.707 2.707l-2.12 3.535L11.05 23.8l-1.414-1.414-1.414-1.414 3.535-2.121zm1.414 0l3.535 2.12 3.536 2.122-1.414 1.414-1.415 1.414-2.12-3.535zm-.707.3l1 4 1 4h-4l1-4z" fill="#fff763"/></svg>