<svg xmlns="http://www.w3.org/2000/svg" width="32" height="32"><rect width="28.203" height="28.203" x="1.898" y="1.898" ry="5.575" fill="#d2a35c" fill-rule="evenodd"/><path d="M23.262 4.751c-.84 0-1.644.22-2.416.664-.755.426-1.47 1.049-2.14 1.867-.655.802-1.251 1.79-1.788 2.967-.537 1.16-.997 2.473-1.383 3.94a26.51 26.51 0 0 1-.806 2.634c-.269.716-.545 1.312-.83 1.79-.621-.24-1.234-.959-1.838-1.112a6.465 6.465 0 0 0-1.813-.256c-.487 0-.931.077-1.334.23-.386.154-.72.341-1.006.563a2.999 2.999 0 0 0-.68.715C7.079 19.01 7 19.775 7 19.997c0 .358.168.656.504.895.336.238.84.357 1.512.357 1.778 0 3.28-.468 4.505-1.406.772.341 1.56.664 2.366.97.822.29 1.728.436 2.718.436 1.125 0 2.023-.237 2.694-.715.671-.494 1.056-1.126 1.459-2.047.017-.103-.005-.171-.072-.205-.05-.05-.111-.05-.178 0-.285.58-.496.947-.932 1.254-.436.307-1.075.461-1.914.461-1.007 0-1.928-.112-2.767-.334a29.78 29.78 0 0 1-2.368-.793c1.04-1.245 1.856-3.01 2.444-5.295.352-1.432.695-2.625 1.03-3.58.337-.955.697-1.712 1.083-2.275.386-.58.807-.908 1.26-1.13.47-.238 1.022-.355 1.66-.355.47 0 .854.086 1.156.256.319.154.554.358.705.614.151.255.237.462.254.769.017.307-.026.912-.127 1.219-.017.086.007.146.074.18a.216.216 0 0 0 .229-.026c.168-.29.325-.957.476-1.4.152-.46.229-.864.229-1.205 0-.53-.162-.97-.48-1.328-.32-.376-.738-.563-1.258-.563zM9.14 18.091c.721 0 1.401.1 2.039.305.637.204 1.267.97 1.888 1.244-.386.375-.824.629-1.31.765-.47.12-1.005.18-1.61.18-.688 0-1.227-.11-1.613-.332-.369-.222-.553-1.028-.553-1.37 0-.528.387-.792 1.159-.792zm2.359 4.158a1.5 1.5 0 0 0-1.5 1.5 1.5 1.5 0 0 0 1.5 1.5 1.5 1.5 0 0 0 1.5-1.5 1.5 1.5 0 0 0-1.5-1.5zm8 0a1.5 1.5 0 0 0-1.5 1.5 1.5 1.5 0 0 0 1.5 1.5 1.5 1.5 0 0 0 1.5-1.5 1.5 1.5 0 0 0-1.5-1.5zm-4 2a1.5 1.5 0 0 0-1.5 1.5 1.5 1.5 0 0 0 1.5 1.5 1.5 1.5 0 0 0 1.5-1.5 1.5 1.5 0 0 0-1.5-1.5z" style="line-height:125%" font-weight="700" font-family="Tangerine" letter-spacing="0" word-spacing="0" fill="#fff"/></svg>