<svg xmlns="http://www.w3.org/2000/svg" height="32" width="32"><rect width="28.203" height="28.203" x="1.898" y="1.898" ry="5.575" fill="#769edc" fill-rule="evenodd"/><path d="M16.681 7.5c-.108 0-.087.42.026.516.127.107.314.482.369.742l.043.203-.35.074c-.833.176-.995.751-.457 1.621.189.306.19.314.152.977-.027.496-.012.748.057.986.108.37.408.709.723.817.347.118 1.291.062 1.642-.098.384-.176.884-.697 1.024-1.068.164-.438.101-1.042-.16-1.569-.252-.507-.908-1.196-1.364-1.431-.24-.125-.355-.23-.435-.409-.116-.253-1.148-1.361-1.27-1.361zm-5.974 2a.047.047 0 0 0-.04.016c-.124.125-.226.782-.214 1.396.01.58-.005.701-.12.895-.381.643-.446 1.821-.136 2.49.274.591.728.952 1.42 1.125.483.12.809.104 1.263-.063 1.253-.458 1.47-1.35.57-2.357-.364-.408-.533-.741-.533-1.043 0-.367-.134-.727-.36-.969-.205-.218-.216-.22-.606-.185-.219.02-.477.054-.573.078-.159.04-.184.018-.298-.237a1.69 1.69 0 0 1-.127-.574c-.002-.251-.146-.563-.246-.572zm12.707 1.002c-.158-.031-.207.334-.08.6.058.122.096.33.085.46l-.02.239-.335.006c-.26.005-.386.046-.568.185-.214.163-.54.713-.541.914 0 .045-.2.477-.442.961s-.46.977-.486 1.094c-.137.628.243 1.098 1.152 1.426.384.138.786.149 1.22.033.708-.189 1.163-.545 1.438-1.129.145-.308.165-.433.162-.992-.003-.725-.14-1.183-.511-1.705a2.54 2.54 0 0 1-.315-.705c-.117-.46-.609-1.357-.76-1.387zm-16.334 5c-.017-.004-.029-.002-.038.008-.13.14.066 1.501.264 1.826.049.08.117.352.154.603.17 1.142.966 2.208 1.87 2.504.308.102.978.064 1.412-.078.358-.117.478-.198.748-.502.56-.63.663-1.254.287-1.76-.1-.133-.404-.383-.676-.554a30.796 30.796 0 0 1-1.05-.703c-.896-.63-.99-.689-1.237-.762-.313-.093-.632.006-.893.277l-.205.211-.127-.224c-.07-.125-.128-.29-.129-.366 0-.136-.267-.454-.38-.48zm11.423.998a6.053 6.053 0 0 0-1.37.191c-1.48.357-2.18.783-2.499 1.518-.138.318-.149.428-.111 1.037.038.62.028.709-.117 1.018-.148.314-.318.49-1.1 1.148-.248.209-.27.258-.299.64-.026.357 0 .475.18.856.384.815 1.076 1.362 1.943 1.531.41.08.682.08 1.387.002 2.74-.305 5.89-1.292 6.79-2.128.47-.438.657-.84.689-1.48.06-1.223-.49-1.956-1.473-1.96-.769-.003-1.542-.45-1.86-1.074-.234-.462-.71-.924-1.156-1.12-.278-.122-.61-.181-1.004-.179z" fill="#313131"/></svg>