<svg xmlns="http://www.w3.org/2000/svg" height="32" width="32" version="1"><g fill-rule="evenodd"><path d="M30.102 13.003c-.205-.104-.384-.256-.631-.256H2.529c-.247 0-.426.152-.63.256v11.523a5.563 5.563 0 0 0 5.574 5.577h17.054a5.563 5.563 0 0 0 5.575-5.577z" fill="#e49815"/><path d="M27.602 12.747c.04-.127.158-.218.158-.357v-1.426c0-.395-.171-.75-.448-1.008a1.576 1.576 0 0 0-1.08-.416h-7.636a1.58 1.58 0 0 0-1.08.416 1.373 1.373 0 0 0-.448 1.008v1.426c0 .14.119.23.159.357zM14.773 12.747c.04-.127.159-.218.159-.357v-1.426c0-.395-.172-.75-.448-1.008a1.58 1.58 0 0 0-1.082-.416H5.768c-.424 0-.804.158-1.08.416a1.374 1.374 0 0 0-.448 1.008v1.426c0 .14.119.23.158.357z" fill="#f2b740"/><path d="M7.473 1.897a5.563 5.563 0 0 0-5.575 5.577v5.529c.205-.104.384-.256.631-.256H4.4c-.04-.127-.159-.218-.159-.357v-1.426c0-.395.171-.75.447-1.008a1.576 1.576 0 0 1 1.08-.416h7.635c.424 0 .806.158 1.082.416s.448.613.448 1.008v1.426c0 .14-.119.23-.159.357h2.454c-.04-.127-.159-.218-.159-.357v-1.426c0-.395.172-.75.448-1.008a1.58 1.58 0 0 1 1.08-.416h7.636c.424 0 .804.158 1.08.416.277.258.448.613.448 1.008v1.426c0 .14-.119.23-.158.357h1.869c.247 0 .426.152.63.256v-5.53a5.563 5.563 0 0 0-5.574-5.576z" fill="#8e8e8e"/></g></svg>