<svg xmlns="http://www.w3.org/2000/svg" height="32" width="32" version="1"><rect width="28.203" height="28.203" x="1.898" y="1.898" ry="5.575" fill="#4ab3e4" fill-rule="evenodd"/><g transform="translate(49.842 11.737)"><circle r="4.5" cy="-1.237" cx="-35.342" opacity=".2"/><circle r="2.5" cx="-35.342" cy="-1.237" opacity=".2" fill="#041218"/><path d="M-35.363-1.737c-1.501 0-1.502 1-1.505 2-.01.618-.008 1.908.004 3.81.018 3.042.013 3.997-.024 4.128-1.036-.11-2.605-.529-3.306-1.084-.459-.364-.914-.697-1.01-.74-.403-.179-.974-.066-1.302.258-.226.224-.31.424-.33.783-.015.275-.006.34.078.521.053.115.15.269.213.342.064.074.937 1.206 1.94 2.518 1.859 2.43 3.708 3.33 4.026 3.421.195.056 10.239.057 10.44.002a.852.852 0 0 0 .319-.203c.132-.131.182-.227.285-.545.295-.91.589-2.292.672-3.06.037-.893.017-.927 0-1.65 0-.014-.003-.026-.004-.04.002-.643.006-1.186 0-1.46.003-1 .006-2-1.492-2-1.352 0-1.478.818-1.493 1.712-.002.024-.01.048-.01.072 0-.241.003-.637 0-.785.003-1 .003-2-1.495-2-1.343 0-1.476.809-1.493 1.696l-.011.005-.002-.064c0-.18.002-.517 0-.637.003-1 .003-2-1.495-2-1.139 0-1.412.579-1.48 1.295l-.025.006c-.021.008-.004-1.215-.004-2.531 0-.902.007-1.437 0-1.77.003-1 .004-2-1.497-2z" fill="#ebebeb"/></g></svg>