<svg xmlns="http://www.w3.org/2000/svg" height="32" width="32" version="1"><path d="M30.286 12.114V7.329a5.602 5.602 0 0 0-5.615-5.615h-4.785z" fill="#fec006" fill-rule="evenodd"/><path d="M18.124 1.802H7.414a5.602 5.602 0 0 0-5.616 5.613v17.172a5.604 5.604 0 0 0 5.615 5.615h17.172a5.602 5.602 0 0 0 5.613-5.615V13.876z" fill="#fffefc" fill-rule="evenodd"/><path d="M18.111 1.799l12.09 12.09v-1.68l-10.41-10.41z" fill="#fffefc" fill-rule="evenodd"/><path style="line-height:normal;font-variant-ligatures:normal;font-variant-position:normal;font-variant-caps:normal;font-variant-numeric:normal;font-variant-alternates:normal;font-feature-settings:normal;text-indent:0;text-align:start;text-decoration-line:none;text-decoration-style:solid;text-decoration-color:#000;text-transform:none;text-orientation:mixed;white-space:normal;shape-padding:0;isolation:auto;mix-blend-mode:normal;solid-color:#000;solid-opacity:1" d="M22.04 12.195c-.38-.127-.843-.194-1.274.047-.725.404-.982 1.205-.983 1.934 0 .728.181 1.486.348 2.215.166.728.316 1.427.31 1.923-.005.497-.076.686-.375.836-.24.122-.39.13-.543.1-.153-.03-.33-.122-.539-.3-.416-.359-.896-1.042-1.44-1.774-.542-.732-1.16-1.52-1.993-2.08-.833-.56-1.912-.857-3.158-.575l-.012.004-.012.002c-.808.218-1.412.834-1.832 1.586-.42.753-.68 1.667-.807 2.639-.02.154.018.316.004.473-.281-.02-.52-.117-.804-.123L7.54 19.07l-.6-.011-.025 1.197.598.012 1.39.029c.306.007.543.104.842.127.036 1.443.26 2.88.947 3.986l.012.02.014.017c1.065 1.46 2.883 1.884 4.232 1.362.675-.262 1.254-.815 1.432-1.58.178-.766-.038-1.658-.66-2.62-.595-.918-1.615-1.51-2.805-1.9-.595-.195-1.322-.203-1.992-.303.012-.166-.03-.338-.008-.5.111-.855.346-1.638.664-2.209.317-.567.693-.897 1.094-1.007.936-.208 1.59-.015 2.207.4.621.418 1.177 1.092 1.701 1.799.524.706 1.006 1.438 1.621 1.967.308.264.662.483 1.082.568.42.084.885.015 1.318-.203.74-.373 1.026-1.17 1.034-1.893.007-.722-.174-1.475-.34-2.205-.167-.73-.32-1.435-.32-1.947s.08-.727.37-.889c.005-.002.1-.027.31.043.21.07.485.222.741.397.513.349.944.765.944.765l.427.416.836-.855-.43-.418s-.484-.477-1.105-.899a4.297 4.297 0 0 0-1.033-.54zm-11.095 8.409c.533.088 1.145.093 1.6.242 1.035.339 1.8.835 2.174 1.414.508.785.58 1.344.498 1.697-.082.353-.312.584-.7.734-.77.299-2.076.055-2.814-.937-.485-.794-.691-1.955-.758-3.15z" color="#000" font-weight="400" font-family="sans-serif" overflow="visible" fill="#fec006"/><path style="line-height:normal;font-variant-ligatures:normal;font-variant-position:normal;font-variant-caps:normal;font-variant-numeric:normal;font-variant-alternates:normal;font-feature-settings:normal;text-indent:0;text-align:start;text-decoration-line:none;text-decoration-style:solid;text-decoration-color:#000;text-transform:none;text-orientation:mixed;white-space:normal;shape-padding:0;isolation:auto;mix-blend-mode:normal;solid-color:#000;solid-opacity:1" d="M7.637 1.71A6.046 6.046 0 0 0 1.59 7.757v16.607a6.047 6.047 0 0 0 6.047 6.047h16.607a6.046 6.046 0 0 0 6.045-6.047v-10.36l-.18-.435L18.433 1.89l-.436-.18zm0 1.235H17.74L29.055 14.26v10.103a4.787 4.787 0 0 1-4.81 4.813H7.636a4.79 4.79 0 0 1-4.813-4.813V7.756a4.787 4.787 0 0 1 4.813-4.81z" color="#000" font-weight="400" font-family="sans-serif" overflow="visible" fill="#fec006" fill-rule="evenodd"/></svg>