<svg xmlns="http://www.w3.org/2000/svg" height="32" width="32" version="1"><path d="M30.286 12.114V7.329a5.602 5.602 0 0 0-5.615-5.615h-4.785z" fill="#e81d62" fill-rule="evenodd"/><path d="M18.124 1.802H7.414a5.602 5.602 0 0 0-5.616 5.613v17.172a5.604 5.604 0 0 0 5.615 5.615h17.172a5.602 5.602 0 0 0 5.613-5.615V13.876z" fill="#faf3f6" fill-rule="evenodd"/><path d="M18.111 1.799l12.09 12.09v-1.68L19.791 1.8z" fill="#faf3f6" fill-rule="evenodd"/><path style="line-height:normal;font-variant-ligatures:normal;font-variant-position:normal;font-variant-caps:normal;font-variant-numeric:normal;font-variant-alternates:normal;font-feature-settings:normal;text-indent:0;text-align:start;text-decoration-line:none;text-decoration-style:solid;text-decoration-color:#000;text-transform:none;text-orientation:mixed;white-space:normal;shape-padding:0;isolation:auto;mix-blend-mode:normal;solid-color:#000;solid-opacity:1" d="M7.637 1.71A6.046 6.046 0 0 0 1.59 7.757v16.607a6.047 6.047 0 0 0 6.047 6.047h16.607a6.046 6.046 0 0 0 6.045-6.047v-10.36l-.18-.435L18.433 1.89l-.436-.18zm0 1.235H17.74L29.055 14.26v10.103a4.787 4.787 0 0 1-4.81 4.813H7.636a4.79 4.79 0 0 1-4.813-4.813V7.756a4.787 4.787 0 0 1 4.813-4.81z" color="#000" font-weight="400" font-family="sans-serif" overflow="visible" fill="#e81d62" fill-rule="evenodd"/><path d="M14.981 25.313c-2.786-.293-4.81-1.481-5.233-3.071-.04-.153-.058-.496-.058-1.174v-.957l.267.25c1.306 1.222 3.658 1.98 6.14 1.978 2.397-.001 4.766-.772 6.043-1.966l.28-.262v.957c-.001 1.021-.024 1.189-.222 1.62-.141.31-.378.62-.726.955-.815.783-2.14 1.336-3.854 1.609-.483.077-2.127.115-2.637.061zm4.624-1.363c.666-.278.681-1.219.022-1.342-.584-.11-1.117.639-.797 1.118.176.263.475.35.775.224zm-4.66-2.851c-2.509-.263-4.247-1.007-5.03-2.155l-.205-.298-.012-1.263-.012-1.262.242.237c.815.797 2.2 1.427 3.802 1.73 1.412.266 3.354.256 4.75-.024 1.565-.314 2.815-.89 3.686-1.696l.258-.239-.013 1.259-.012 1.258-.2.292c-.562.823-1.633 1.454-3.111 1.833-.974.25-1.57.32-2.845.333-.622.007-1.206.004-1.298-.005zm4.681-1.246c.074-.032.195-.121.268-.199.437-.461.206-1.125-.392-1.125-.713 0-1.06 1.01-.453 1.316.158.08.402.083.577.008zm-4.2-2.776c-2.822-.121-4.901-.965-5.582-2.265l-.16-.303.013-1.246c.013-1.218.015-1.25.112-1.435.382-.724 1.263-1.234 2.775-1.608 2.738-.677 6.53-.443 8.464.522.65.324 1.02.645 1.252 1.086.097.185.1.217.112 1.435l.013 1.246-.15.282c-.198.376-.484.692-.886.98-1.036.744-2.501 1.168-4.455 1.29-.655.041-.87.044-1.507.016zm4.335-1.429c.456-.312.467-.967.02-1.192-.196-.098-.363-.092-.585.021-.273.14-.43.358-.452.632-.048.584.514.883 1.017.54zm-1.759-1.869c1.66-.234 2.944-.702 3.277-1.195.125-.186.12-.224-.055-.417-.635-.703-2.489-1.187-4.771-1.246-1.982-.052-3.763.232-4.904.782-.348.168-.746.484-.793.63-.043.137.139.37.437.563.74.478 1.874.781 3.584.957.093.01.743.013 1.445.007.923-.007 1.417-.03 1.78-.081z" fill="#e81d62"/></svg>