<svg xmlns="http://www.w3.org/2000/svg" height="32" width="32" version="1"><path d="M30.286 12.114V7.329a5.602 5.602 0 0 0-5.615-5.615h-4.785z" fill="gray" fill-rule="evenodd"/><path d="M18.124 1.802H7.414a5.602 5.602 0 0 0-5.616 5.613v17.172a5.604 5.604 0 0 0 5.615 5.615h17.172a5.602 5.602 0 0 0 5.613-5.615V13.876z" fill="#fdf6f6" fill-rule="evenodd"/><path d="M18.111 1.799l12.09 12.09v-1.68l-10.41-10.41z" fill="#fdf6f6" fill-rule="evenodd"/><path d="M12.289 13.192h12.198v1.172H13.241l-2.233 10.66-.367 1.649-.733-1.502-2.344-4.689 1.026-.513 1.575 3.187 2.015-9.488zm2.82 2.344h1.173l2.344 3.737 2.345-3.737h1.172l-2.93 4.69 2.93 4.688h-1.172l-2.345-3.736-2.344 3.736H15.11l2.93-4.689z" color="#000" fill="gray" stroke="#fff" stroke-width=".3"/><path style="line-height:normal;font-variant-ligatures:normal;font-variant-position:normal;font-variant-caps:normal;font-variant-numeric:normal;font-variant-alternates:normal;font-feature-settings:normal;text-indent:0;text-align:start;text-decoration-line:none;text-decoration-style:solid;text-decoration-color:#000;text-transform:none;text-orientation:mixed;white-space:normal;shape-padding:0;isolation:auto;mix-blend-mode:normal;solid-color:#000;solid-opacity:1" d="M7.637 1.71A6.046 6.046 0 0 0 1.59 7.757v16.607a6.047 6.047 0 0 0 6.047 6.047h16.607a6.046 6.046 0 0 0 6.045-6.047v-10.36l-.18-.435L18.433 1.89l-.436-.18zm0 1.235H17.74L29.055 14.26v10.103a4.787 4.787 0 0 1-4.81 4.813H7.636a4.79 4.79 0 0 1-4.813-4.813V7.756a4.787 4.787 0 0 1 4.813-4.81z" color="#000" font-weight="400" font-family="sans-serif" overflow="visible" fill="gray" fill-rule="evenodd"/></svg>