<svg xmlns="http://www.w3.org/2000/svg" height="32" width="32" version="1"><g fill-rule="evenodd"><path d="M16.21 30.103h8.317a5.563 5.563 0 0 0 5.575-5.577V7.474a5.563 5.563 0 0 0-5.575-5.577h-8.316z" fill="#ffb063"/><path d="M16.21 30.103V1.897H7.476a5.565 5.565 0 0 0-5.577 5.577v17.052a5.565 5.565 0 0 0 5.577 5.577z" fill="#e68f48"/></g><g fill="#ffdf98"><path d="M9.158 7.5a5 5 0 0 0-5 5 5 5 0 0 0 5 5 5 5 0 0 0 5-5 5 5 0 0 0-5-5zm0 3a2 2 0 0 1 2 2 2 2 0 0 1-2 2 2 2 0 0 1-2-2 2 2 0 0 1 2-2z"/><path d="M8.158 24.5h2v-10h-2zM10.158 22.5h2v-2h-2z"/></g></svg>