<svg xmlns="http://www.w3.org/2000/svg" height="32" width="32" version="1"><rect width="28.203" height="28.203" x="1.898" y="1.898" ry="5.575" fill="#4f4f4f" fill-rule="evenodd"/><path d="M13.856 25.91c.156-.509.924-1.78 1.338-2.212.254-.266.462-.508.462-.539 0-.21-.63-.672-3.43-2.52-1.499-.988-2.312-1.694-3.062-2.659l-.633-.816-.263-1.24c-.199-.935-.244-1.307-.184-1.52.06-.212.049-.308-.044-.383-.17-.139-.163-.76.01-.825.094-.036.13-.165.121-.45-.015-.537.07-.72.853-1.83.458-.65.788-1.024 1.035-1.175.2-.122.593-.435.873-.694.46-.427.536-.467.8-.419.21.04.35.01.502-.103.338-.252.87-.536 1.004-.536.145 0 .977-.466 1.23-.689.292-.256 1.42-.796 1.596-.763.09.017.176.117.192.224.015.106.054.193.087.193.032 0 .336-.132.675-.293.34-.161 1.058-.414 1.597-.562 1.055-.29 1.333-.276 1.524.074.086.158.18.177.89.177.816 0 1.239.121 1.341.384.028.072.31.25.627.397.468.218.575.304.575.47 0 .129.099.273.268.392.391.272.319.496-.268.834-.266.153-.544.314-.616.357-.108.065-.087.1.11.19.133.06.242.166.242.236 0 .189-.754 1.188-1.056 1.399-.318.221-.322.316-.057 1.084.114.329.296.986.406 1.46a29.8 29.8 0 0 0 .365 1.424 15 15 0 0 1 .307 1.38c.247 1.428.04 2.341-.753 3.315-.533.654-1.803 1.856-2.544 2.409l-.56.418.051.43c.04.332.125.51.37.775.384.417 1.096 1.819 1.096 2.157v.244h-7.136l.06-.194zm4.486-9.593c.119-.116.216-.312.216-.435s-.097-.319-.216-.435c-.61-.598-1.502.266-.912.882.254.265.635.26.912-.012zm3.925-1.57c.054-.271-.19-.633-.465-.691-.26-.055-.62.164-.676.42-.06.278.194.656.476.711.262.052.612-.182.665-.44z" fill="#fff"/></svg>