<svg xmlns="http://www.w3.org/2000/svg" width="32" height="32" version="1"><rect width="28.203" height="28.203" x="1.898" y="1.898" ry="5.575" fill="#f57f38" fill-rule="evenodd"/><g stroke-width=".884"><path d="M16 6.364c-.27 0-.534.013-.797.035-2.383.169-4.297 1.05-6.019 2.77a9.55 9.55 0 0 0-2.726 5.501c-.014.105-.03.209-.04.314a9.81 9.81 0 0 0-.045.681c-.002.058-.005.116-.005.174a9.61 9.61 0 0 0 9.366 9.79l.122.003c.049.001.096.004.144.004.232 0 .462-.012.69-.028l.084-.005a9.604 9.604 0 0 0 7.831-5.269l.002-.001c.095-.19.192-.379.275-.575.451-1.02.696-2.1.74-3.232.003-.037.003-.074.005-.11.003-.109.009-.216.008-.325l.001-.091V7.809c0-.801-.644-1.445-1.445-1.445h-8.118z" fill="#fff"/><path d="M16.945 10.494a.442.442 0 0 0-.444.428c-.002.235.199.433.442.434 1.052.008 1.916.34 2.613.995.689.649 1.048 1.548 1.057 2.722a.442.442 0 0 0 .45.426.442.442 0 0 0 .443-.433v-.001c-.005-.685-.117-1.314-.334-1.867a4.035 4.035 0 0 0-.991-1.466c-.863-.81-1.964-1.23-3.232-1.239h-.004zm-4.515 1.012a.893.893 0 0 0-.536.091h-.015l-.02.012a3.97 3.97 0 0 0-.958.777l-.023.026v.023c-.207.258-.343.517-.375.776-.01.044-.01.084-.01.126 0 .119.018.239.054.356l.01.034.02.011c.119.405.386 1.034.971 2.1.39.707.789 1.297 1.185 1.794.208.262.444.534.718.808l.028.026c.004.004.01.014.025.028l.027.028h.002l.018.018.005.006.005.005c.274.271.544.509.808.716.497.396 1.087.797 1.793 1.188 1.068.588 1.703.855 2.105.97l.015.018.024.009c.114.038.233.055.35.054.048.002.09-.001.13-.01.276-.032.549-.163.819-.39l.003-.003.003-.002.004-.005.006-.007c.32-.291.577-.609.771-.948l.013-.022v-.02c.178-.371.107-.75-.182-.992a32.99 32.99 0 0 0-.319-.263 15.506 15.506 0 0 0-.527-.416 10.05 10.05 0 0 0-.916-.585h-.001c-.452-.253-.925-.106-1.133.164l-.365.456c-.147.185-.44.168-.449.167-2.473-.636-3.138-3.123-3.143-3.14 0-.008-.018-.303.167-.452l.455-.364c.27-.207.422-.68.167-1.133-.133-.235-.39-.65-.585-.916a17.42 17.42 0 0 0-.419-.53l-.184-.226-.057-.068-.017-.019-.005-.006a.768.768 0 0 0-.463-.27zm4.542.992a.44.44 0 0 0-.47.392.433.433 0 0 0 .406.452c.59.042.987.215 1.286.531v.001c.305.322.444.69.432 1.192v.002a.433.433 0 0 0 .428.432h.011a.434.434 0 0 0 .438-.415c.016-.69-.209-1.306-.662-1.784-.456-.48-1.101-.749-1.87-.803z" fill="#f57f38"/></g></svg>