<svg xmlns="http://www.w3.org/2000/svg" width="32" height="32" version="1"><rect width="28.203" height="28.203" x="1.898" y="1.898" ry="5.575" fill="#8e8e8e" fill-rule="evenodd"/><rect width="20.896" height="15.642" x="5.552" y="8.179" ry="3.363" rx="3.363" fill="#474747"/><rect width="19.018" height="13.662" x="6.491" y="9.169" ry="2.445" rx="2.547" fill="#1d83af"/><g transform="translate(35.021 -.455)"><circle cx="-14.84" cy="13.794" r="2.661" fill="#f0f9fd"/><circle cx="-23.963" cy="16.835" r="1.901" fill="#c4e7f5"/><circle cx="-17.5" cy="20.256" r="1.52" fill="#a6daf0"/><circle cx="-20.161" cy="13.794" r="1.14" fill="#c4e7f5"/><circle r="1" cy="19.254" cx="-13.452" fill="#d3edf8"/></g><g transform="matrix(.75 0 0 .75 4.536 4.73)" stroke-width="1.333"><circle r="8" cy="23" cx="24" fill="#c149c0" fill-rule="evenodd"/><path d="M23 19l-.088 1.054a3.143 3.143 0 0 0-.919.53l-.957-.45-1 1.732.87.604a3.143 3.143 0 0 0-.049.53 3.143 3.143 0 0 0 .046.532l-.867.602 1 1.732.955-.45a3.143 3.143 0 0 0 .92.528L23 27h2l.088-1.054a3.143 3.143 0 0 0 .919-.53l.957.45 1-1.732-.87-.604a3.143 3.143 0 0 0 .049-.53 3.143 3.143 0 0 0-.046-.532l.867-.602-1-1.732-.955.45a3.143 3.143 0 0 0-.921-.528L25 19h-2zm1 2.857A1.143 1.143 0 0 1 25.143 23 1.143 1.143 0 0 1 24 24.143 1.143 1.143 0 0 1 22.857 23 1.143 1.143 0 0 1 24 21.857z" fill="#fff"/></g></svg>