<svg xmlns="http://www.w3.org/2000/svg" width="32" height="32" version="1"><rect width="28.203" height="28.203" x="1.898" y="1.898" ry="5.575" fill="#0071e8" fill-rule="evenodd"/><path d="M18.453 25.955a2.573 2.573 0 0 1-1.804-1.66c-.177-.52-.135-1.138.15-2.243.124-.48.13-.512.128-.885a5.68 5.68 0 0 0-.137-1.187 34.5 34.5 0 0 1-.056-.265c-.008-.037-.07-.259-.137-.492-.133-.458-.141-.511-.088-.555.076-.063 1.025-.478 1.045-.457.012.012.286.514.609 1.116.323.6 1.033 1.92 1.576 2.933a272.797 272.797 0 0 0 1.047 1.938c.157.263.196.607.094.836-.114.26-.405.501-.887.74-.398.196-.612.25-.986.247a2.073 2.073 0 0 1-.554-.066zm.655-.624c.324-.126.604-.436.725-.804.027-.083.056-.268.064-.413.02-.329-.047-.625-.218-.968-.23-.462-.718-.852-1.178-.942-.683-.134-1.31.296-1.462 1.003-.086.401-.03.776.184 1.207.116.235.179.323.353.498.23.229.508.394.784.464.207.053.551.032.748-.045zm-12.244-3.75a1.611 1.611 0 0 1-1.172-1.113l-.066-.213v-5.84c0-6.423-.01-6.038.17-6.407.125-.255.47-.594.73-.717.383-.18-.105-.17 7.353-.162l6.788.007.198.074c.269.1.462.23.657.44.196.212.362.542.403.8.018.116.028 1.384.028 3.54v3.36l-.214-.02c-.176-.016-.68-.106-.969-.174l-.062-.015v-2.45c0-1.74-.009-2.479-.031-2.553-.049-.162-.215-.357-.384-.453l-.152-.086-2.75-.014-2.748-.013-.323-.554c-.437-.748-.638-.947-1.08-1.07-.244-.068-1.096-.074-1.222-.009-.118.061-.145.189-.134.617.01.347.013.367.08.434.042.042.12.079.19.09l.12.021.08.22c.044.12.08.23.08.242 0 .012-1.112.022-2.47.022h-2.47l-.166.08a.841.841 0 0 0-.412.417l-.059.126v4.137c0 4.727-.022 4.313.247 4.581.255.255-.158.235 4.639.235h4.225l.072.256c.251.9.362 1.715.286 2.103l-.02.104-4.642-.003c-3.876-.002-4.667-.008-4.8-.04zm1.5-.814c.075-.075.09-.19.08-.592-.009-.34-.012-.351-.086-.426-.076-.076-.078-.076-.522-.086-.515-.01-.614.002-.705.093-.064.064-.066.08-.066.493 0 .39.005.432.057.5l.058.072h.565c.523 0 .57-.004.619-.054zm2.424-.014c.066-.066.068-.08.068-.484v-.416l-.08-.09-.081-.09-.465-.01c-.757-.015-.766-.007-.753.637.012.556-.035.521.692.521.548 0 .552 0 .62-.068zm2.418-.005c.053-.067.058-.11.058-.5 0-.412-.002-.428-.066-.492-.091-.09-.19-.104-.705-.093-.445.01-.446.01-.522.086l-.077.077v.426c0 .413.002.428.067.498l.067.071h1.121zm2.401.013c.062-.058.064-.076.064-.507 0-.445 0-.448-.07-.514-.07-.065-.09-.068-.516-.077-.513-.01-.613.002-.704.093-.064.064-.066.08-.066.502 0 .601-.046.563.675.563.53 0 .556-.003.617-.06zM8.367 8.983l.082-.09v-.39c0-.423-.026-.515-.159-.576-.04-.018-.265-.03-.564-.03h-.5l-.08.081-.081.081v.425c0 .454.017.522.148.577.033.013.288.022.567.018l.507-.006zm2.338.071c.127-.058.151-.149.151-.562 0-.598-.006-.602-.743-.59-.657.012-.623-.017-.636.539-.01.457.012.549.146.607.112.05.977.054 1.082.006zm4.895-.048c.07-.066.071-.07.071-.502 0-.24-.007-.456-.017-.48-.04-.105-.155-.127-.658-.127-.296 0-.51.012-.552.031-.11.05-.129.137-.129.573 0 .436.019.505.149.56.032.013.285.022.562.018.49-.005.505-.007.574-.073zm2.367.04c.112-.057.14-.169.14-.559 0-.392-.035-.517-.157-.564-.047-.018-.275-.026-.585-.02l-.509.008-.066.078c-.064.074-.067.094-.067.493 0 .23.013.439.028.468.062.116.154.135.658.136.37.001.497-.008.558-.04zm2.41 0a.298.298 0 0 0 .109-.096c.016-.03.028-.236.028-.468 0-.4-.002-.419-.066-.493l-.067-.078-.504-.009c-.741-.012-.746-.008-.746.592 0 .415.028.513.164.563.04.014.28.027.536.028.364.002.482-.007.546-.04zm-.52 12.192c-.11-.211-.2-.391-.2-.4 0-.01.167-.017.371-.017.368 0 .372 0 .429-.073.052-.067.057-.11.057-.5 0-.412-.002-.428-.066-.492-.09-.09-.19-.104-.703-.093-.425.01-.447.012-.515.077-.04.037-.072.083-.072.103 0 .064-.04.039-.084-.054a12.42 12.42 0 0 0-.189-.359l-.147-.27h.662c.787 0 .856-.015 1.075-.233.175-.175.233-.332.233-.63 0-.143.01-.216.032-.216.017 0 .207.096.422.213.214.117.477.259.584.315l.194.103.007.751c.006.615 0 .783-.037.923-.114.444-.42.837-.812 1.04-.268.14-.5.197-.805.197h-.235l-.201-.385zm5.597-1.326c-.116-.041-2.064-1.074-3.708-1.967-.555-.301-.535-.29-1.64-.88-.505-.27-.919-.502-.92-.514 0-.012.103-.247.228-.522.166-.364.245-.509.291-.53.05-.022.11-.012.277.045.669.23 1.538.385 2.165.389.398.002.452-.004.747-.085 1.04-.282 1.847-.352 2.339-.201a2.54 2.54 0 0 1 1.776 2.268 1.9 1.9 0 0 1-.196 1.01c-.392.83-.855 1.166-1.359.987zm.11-1.084c.755-.282 1.044-1.022.69-1.763-.183-.383-.498-.68-.929-.876-.513-.234-1.013-.239-1.46-.015-.816.408-.933 1.387-.252 2.11.283.301.573.474.962.572.293.075.75.062.99-.028zm-9.11-.547a1234.368 1234.368 0 0 0-.96-2.483c-.08-.214-.904-2.34-1.11-2.864l-1.15-2.975c-.087-.228-.246-.639-.353-.913-.14-.356-.185-.503-.162-.518.053-.034.328-.023.441.018.247.088.277.129 1.086 1.51l.733 1.245c.194.327.704 1.193 1.134 1.924a767.156 767.156 0 0 0 1.596 2.701c.14.235.133.275-.17.884-.24.482-.262.543-.262.686a.73.73 0 0 0 .055.277c.03.066.055.126.055.133 0 .014-.364.186-.7.33-.195.084-.217.089-.233.045zm-.072-2.716c.194-.089.267-.323.163-.524-.062-.12-.251-.208-.39-.182-.2.038-.355.273-.307.466.026.103.15.235.248.263.128.037.158.035.286-.023zm2.375.783a.615.615 0 0 0-.519-.01l-.145.055.01-.125c.005-.07.002-.167-.008-.217-.009-.05-.177-.364-.373-.698-.196-.333-.354-.61-.35-.613.004-.005 1.764.673 1.902.734.04.017.02.079-.162.476-.115.252-.21.458-.213.46a1.422 1.422 0 0 1-.142-.062zm-4.151-.985l-.996-.589-1.176-.692a569.08 569.08 0 0 1-2.228-1.314 13.402 13.402 0 0 1-.464-.282c-.095-.068-.212-.265-.247-.418-.03-.135-.006-.352.04-.352.017 0 .206.069.42.152l1.4.541a6040.957 6040.957 0 0 1 2.739 1.057.841.841 0 0 1 .183.088c.017.017.109.23.203.473.415 1.067.615 1.596.606 1.604a5.992 5.992 0 0 1-.48-.268z" fill="#fff"/><path d="M18.453 25.955a2.573 2.573 0 0 1-1.804-1.66c-.177-.52-.135-1.138.15-2.243.124-.48.13-.512.128-.885a5.68 5.68 0 0 0-.137-1.187 34.5 34.5 0 0 1-.056-.265c-.008-.037-.07-.259-.137-.492-.133-.458-.141-.511-.088-.555.076-.063 1.025-.478 1.045-.457.012.012.286.514.609 1.116.323.6 1.033 1.92 1.576 2.933a272.797 272.797 0 0 0 1.047 1.938c.157.263.196.607.094.836-.114.26-.405.501-.887.74-.398.196-.612.25-.986.247a2.073 2.073 0 0 1-.554-.066z" fill="#b2ece3"/><path d="M19.108 25.331c.324-.126.604-.436.725-.804.027-.083.056-.268.064-.413.02-.329-.047-.625-.218-.968-.23-.462-.718-.852-1.178-.942-.683-.134-1.31.296-1.462 1.003-.086.401-.03.776.184 1.207.116.235.179.323.353.498.23.229.508.394.784.464.207.053.551.032.748-.045z" fill="#0071e8"/><path d="M25.454 19.912c-.116-.041-2.064-1.074-3.708-1.967-.555-.3-.535-.29-1.64-.88-.505-.27-.919-.502-.92-.514 0-.012.103-.247.228-.522.166-.364.245-.509.291-.53.05-.022.11-.012.277.045.669.23 1.538.385 2.165.389.398.002.452-.004.747-.084 1.04-.283 1.847-.353 2.339-.202a2.54 2.54 0 0 1 1.776 2.268 1.9 1.9 0 0 1-.196 1.01c-.392.83-.855 1.166-1.359.987z" fill="#b2ece3"/><path d="M25.565 18.828c.754-.282 1.043-1.022.689-1.763-.183-.383-.498-.68-.929-.876-.513-.234-1.013-.239-1.46-.015-.816.408-.933 1.387-.252 2.11.283.301.573.474.962.572.293.075.75.062.99-.028z" fill="#0071e8"/></svg>