<svg xmlns="http://www.w3.org/2000/svg" height="32" width="32" version="1"><rect width="28.203" height="28.203" x="1.898" y="1.898" ry="5.575" fill="#42ba4f" fill-rule="evenodd"/><g transform="translate(0 .299)"><path d="M19.121 7.686a.49.49 0 0 0-.556.123l-1.377 1.562a7.682 7.682 0 0 0-2.304-.015l-1.374-1.58a.492.492 0 0 0-.595-.104L9.6 9.57a.491.491 0 0 0-.21.566l.667 1.995a7.606 7.606 0 0 0-.649.934 7.602 7.602 0 0 0-.493 1.023l-2.065.4a.494.494 0 0 0-.39.465l-.02 3.82c.001.217.17.423.384.465l2.05.419c.275.712.666 1.39 1.148 1.999l-.682 1.967a.492.492 0 0 0 .205.567l3.296 1.924c.19.107.452.063.595-.101l1.377-1.562c.766.12 1.55.127 2.304.015l1.374 1.58a.492.492 0 0 0 .595.104l3.315-1.896a.494.494 0 0 0 .212-.568l-.668-1.995c.236-.293.454-.599.649-.933.195-.335.354-.675.493-1.024l2.065-.4a.491.491 0 0 0 .39-.463l.02-3.821a.492.492 0 0 0-.384-.466l-2.05-.419a7.684 7.684 0 0 0-1.148-1.999l.682-1.967a.492.492 0 0 0-.205-.567L19.16 7.709a.972.972 0 0 0-.039-.023zm-.07 3.995a6.054 6.054 0 1 1-6.102 10.46 6.054 6.054 0 1 1 6.102-10.46z" fill="#fff"/><circle r="1.763" cy="6.144" cx="16" fill="#fff" fill-rule="evenodd"/><path d="M16 13.44v6.942" fill="none" stroke="#fff" stroke-width="3.2" stroke-linecap="round"/></g></svg>