<svg xmlns="http://www.w3.org/2000/svg" width="32" height="32"><g transform="translate(48.422 -16.842)" fill-rule="evenodd"><path d="M-44.893 45.313l24.944-24.944a5.556 5.556 0 0 0-3.946-1.629h-17.052a5.565 5.565 0 0 0-5.576 5.576V41.37c0 1.544.623 2.936 1.63 3.943z" fill="#f8b417"/><path d="M-31.133 46.943v-8.23h-2.285v8.23z" fill="#ccc"/><path d="M-32.744 33.164l-12.149 12.148v.003a5.556 5.556 0 0 0 3.946 1.628h7.529v-8.23h2.285v8.23h7.238c1.377 0 2.59-.548 3.561-1.369z" fill="#662c8f"/><path d="M-32.744 33.164l12.41 12.41c1.207-1.02 2.014-2.493 2.014-4.205V24.316a5.56 5.56 0 0 0-1.63-3.947z" fill="#02a8d8"/><circle r="7.958" cy="33.119" cx="-32.275" fill="#496220"/><path d="M-38.723 23.648a.487.487 0 0 0-.423.722l1.148 2.15a8.746 8.746 0 0 0-3.012 6.363h17.471a8.746 8.746 0 0 0-3.013-6.36l1.15-2.153a.487.487 0 0 0-.424-.722.487.487 0 0 0-.435.263l-1.073 2.01a8.746 8.746 0 0 0-4.942-1.548 8.746 8.746 0 0 0-4.943 1.538l-1.07-2a.487.487 0 0 0-.434-.263zm-2.275 10.101a8.746 8.746 0 0 0 8.722 8.116 8.746 8.746 0 0 0 8.714-8.116z" fill="#92c642"/><g transform="translate(42.871 26.836) scale(.37425)" stroke-width="2.672" fill="#fff"><circle cx="-210" cy="7.526" r="3.684"/><circle cx="-191.579" cy="7.526" r="3.684"/></g></g></svg>