<svg xmlns="http://www.w3.org/2000/svg" height="32" width="32" version="1"><rect width="28.203" height="28.203" x="1.898" y="1.898" ry="5.575" fill="#ccc" fill-rule="evenodd"/><path d="M16 9.245c-2.623 0-4.857 1.557-5.818 3.761-2.442.352-4.315 2.37-4.315 4.836 0 2.714 2.268 4.913 5.067 4.913H21.7c2.448 0 4.433-1.924 4.433-4.299 0-2.206-1.711-4.014-3.919-4.26-.575-2.817-3.14-4.951-6.214-4.951z" fill="#f9f9f9"/><path d="M16 11.271A4.729 4.729 0 0 0 11.271 16 4.729 4.729 0 0 0 16 20.729 4.729 4.729 0 0 0 20.729 16 4.729 4.729 0 0 0 16 11.271zm0 1.351A3.378 3.378 0 0 1 19.378 16 3.378 3.378 0 0 1 16 19.378 3.378 3.378 0 0 1 12.622 16 3.378 3.378 0 0 1 16 12.622z" fill="#666"/><circle cy="16" cx="16" r="2.027" fill="#666"/></svg>