<svg xmlns="http://www.w3.org/2000/svg" height="32" width="32" version="1"><rect width="28.203" height="28.203" x="1.898" y="1.898" ry="5.575" fill="#ccc" fill-rule="evenodd"/><g fill="#e74c3c"><path d="M15.997 11.002l4 5-4 5-4-5zM9.903 8.271H8.29L8.036 9H6.999l1.482-4h1.23l1.481 4h-1.037zM8.548 7.53h1.095l-.546-1.591-.55 1.591zM9 9.003l2.001 2.5-2 2.5-2-2.5zM22.095 23.729h1.613l.254-.729h1.037l-1.482 4h-1.23l-1.48-4h1.036l.252.729zm1.356.742h-1.096l.547 1.592.549-1.592z"/><path d="M23 23.004l-2-2.5 2-2.5 2 2.5z"/></g></svg>