<svg xmlns="http://www.w3.org/2000/svg" height="32" width="32" version="1"><rect width="28.203" height="28.203" x="1.898" y="1.898" ry="5.575" fill="#f58411" fill-rule="evenodd"/><path d="M16.5 8a3 3 0 0 0-3 3c0 .231.044.44.094.656l-3.219 2a3 3 0 1 0 0 4.688l3.219 2c-.05.216-.094.425-.094.656a3 3 0 1 0 1.125-2.344l-3.219-2c.05-.216.094-.425.094-.656 0-.23-.044-.44-.094-.656l3.219-2A3 3 0 1 0 16.5 8zm7 0a3 3 0 0 0-3 3 3 3 0 0 0 3 3 3 3 0 0 0 3-3 3 3 0 0 0-3-3zm0 10a3 3 0 0 0-3 3 3 3 0 0 0 3 3 3 3 0 0 0 3-3 3 3 0 0 0-3-3z" fill="#fff"/></svg>