<svg xmlns="http://www.w3.org/2000/svg" width="32" height="32"><rect width="28.203" height="28.203" x="1.898" y="1.898" ry="5.575" fill="#7e572d" fill-rule="evenodd"/><circle cx="15.912" cy="24.881" r="3.552" fill="#8f6943"/><rect width="1.332" height="2.664" x="14.58" y="24.881" rx=".333" ry=".333" fill="#fff"/><rect width="1.332" height="2.664" x="15.912" y="24.881" rx=".333" ry=".333" fill="#fff"/><path d="M5.652 3.572a.968.968 0 0 0-.254.008.571.571 0 0 0-.258.111c-.583.463-.4 2.299.609 6.118.566 2.142 1.033 3.282 1.837 4.49.528.792.783 1.094 1.655 1.956.78.86 1.766 2.063 1.786 3.075-.224 1.999-1.687 3.045-1.776 4.746 0 2.06.96 3.47 3.02 3.47 1.292.129 2.484-1.544 3.64-1.777 1.158.233 2.35 1.906 3.642 1.776 2.06 0 3.02-1.41 3.02-3.469-.09-1.7-1.552-2.747-1.777-4.746.02-1.012 1.006-2.215 1.787-3.075.872-.862 1.127-1.164 1.655-1.957.804-1.207 1.27-2.347 1.837-4.489 1.01-3.82 1.192-5.655.609-6.118a.571.571 0 0 0-.259-.11.968.968 0 0 0-.253-.01c-.28.024-.642.145-1.093.365-.895.436-1.77 1.08-2.756 2.03-1.48 1.424-2.008 2.24-3.75 5.786-.52 1.056-1.16 2.083-1.94 3.206-.226.156-.721.154-.721.154s-.495.002-.722-.154c-.78-1.123-1.419-2.15-1.94-3.206C11.51 8.207 10.98 7.39 9.5 5.965c-.985-.949-1.86-1.593-2.756-2.03-.45-.22-.812-.34-1.092-.363z" fill="#b08458"/><path d="M6.08 5.002c.002.134-.014.183.004.368.086.865.37 2.243.867 4.123.55 2.085.944 3.029 1.67 4.121.505.76.639.915 1.494 1.76l.024.024.022.025c.366.403.815.868 1.207 1.413a6.217 6.217 0 0 1 2.326-1.633c-.627-1.013-1.14-2.05-1.559-2.9v-.001c-1.73-3.525-2.08-4.076-3.496-5.439-.924-.89-1.692-1.445-2.44-1.81-.103-.05-.036-.021-.119-.051zm19.84.006c-.055.024-.056.014-.119.045-.748.365-1.515.92-2.44 1.81-1.415 1.363-1.765 1.914-3.496 5.438v.002c-.419.85-.932 1.887-1.56 2.902a6.217 6.217 0 0 1 2.327 1.633c.393-.546.841-1.012 1.207-1.415l.022-.025.024-.023c.856-.846.99-1 1.495-1.761h-.001c.727-1.092 1.12-2.036 1.67-4.12.498-1.881.782-3.26.867-4.124.019-.182.002-.23.004-.362z" fill="#7c5d3e"/><path d="M5.398 3.58a.568.568 0 0 0-.258.112c-.583.462-.4 2.299.609 6.12.566 2.142 1.033 3.282 1.837 4.49.528.794.783 1.095 1.655 1.957.78.86 1.766 2.064 1.786 3.076 0 .445-.22.796-.58 1.513-.58 1.16-.617 1.812-.663 3.042-.077 2.034.221 3.29 1.249 4.009.575.402 1.054.528 2.01.527 1.085.075 1.948-.416 2.957-.596 1.01.18 1.872.67 2.958.596.956 0 1.435-.125 2.01-.527 1.027-.719 1.326-1.975 1.249-4.01-.047-1.23-.083-1.88-.664-3.04-.36-.718-.58-1.069-.58-1.514.02-1.012 1.006-2.216 1.787-3.076.871-.862 1.127-1.163 1.654-1.957.804-1.208 1.271-2.348 1.838-4.49 1.01-3.821 1.191-5.658.608-6.12-.285-.226-.802-.148-1.604.244-.895.436-1.77 1.081-2.756 2.031-1.48 1.425-2.009 2.24-3.75 5.787-.521 1.057-1.16 2.351-1.94 3.474-.227.156-.81.159-.81.159s-.583-.003-.81-.16c-.78-1.122-1.418-2.416-1.939-3.473-1.742-3.546-2.27-4.362-3.75-5.787-.986-.95-1.862-1.595-2.757-2.031-.601-.294-1.043-.41-1.346-.356z" fill="none"/><path d="M18.474 25.07c0 1.171-1.11 2.12-2.48 2.12-1.37 0-2.48-.949-2.48-2.12 0-1.17 1.11-5.34 2.48-5.34 1.37 0 2.48 4.17 2.48 5.34z" fill="none"/><path d="M15.912 25.77c-1.43-.089-2.657-1.362-2.07-1.99.626-.495 1.412-.68 2.07-.675.658-.006 1.444.18 2.07.675.587.628-.64 1.901-2.07 1.99z" fill="#bf3667"/><path d="M13.093 23.105c-.844 0-2.064-.596-2.064-1.332 0-.736-.08-1.332.764-1.332 2.17.225 2.294 2.664 1.3 2.664z" opacity=".2"/><path d="M13.093 22.217c-.844 0-2.064-.597-2.064-1.333 0-.735-.08-1.332.764-1.332 2.17.225 2.294 2.665 1.3 2.665z" fill="#fff"/><circle cx="13.247" cy="21.773" r=".444" fill="#323232"/><path d="M18.73 23.105c.845 0 2.065-.596 2.065-1.332 0-.736.08-1.332-.765-1.332-2.17.225-2.293 2.664-1.3 2.664z" opacity=".2"/><path d="M18.73 22.217c.845 0 2.065-.597 2.065-1.333 0-.735.08-1.332-.765-1.332-2.17.225-2.293 2.665-1.3 2.665z" fill="#fff"/><circle cx="-18.576" cy="21.773" r=".444" transform="scale(-1 1)" fill="#323232"/></svg>