<svg xmlns="http://www.w3.org/2000/svg" height="32" width="32"><g transform="translate(45.874 4.14)"><rect ry="5.575" y="-2.242" x="-43.976" height="28.203" width="28.203" fill="#8c6b5f" fill-rule="evenodd"/><path d="M-28.518 3.612a9.493 9.493 0 0 0-9.493 9.493 9.493 9.493 0 0 0 9.493 9.492 9.493 9.493 0 0 0 9.493-9.492 9.493 9.493 0 0 0-9.493-9.493z" fill="#f8bd2b"/><path d="M-28.708 6.795c1.176.278 1.304 1.777 2.25 2.142 1.262.513 1.37-1.092.718-1.94" fill="#8c6b5f"/><path d="M-30.276-.908c-6.621-.006-12.077 5.447-12.251 12.325-.177 6.988 5.163 12.8 11.926 12.984 3.295.089 5.868-1.175 8.124-3.303.241-.201.372-.326.372-.326s2.447-2.569 2.579-4.689c-.625 1.032-1.197 2.065-2.752 2.83a20.12 20.12 0 0 1-2.024.833l-.128.03c-.311.075-.638.138-.981.185l-.126.016c-.355.045-.722.078-1.101.094-.04.001-.08 0-.119.002-.374.013-.756.012-1.145-.004h-.075c-.395-.018-.344-.054-.745-.101-.057-.007-.114-.011-.172-.019-.39-.05-.78-.115-1.169-.192l-.188-.039a15.57 15.57 0 0 1-1.48-.39c-.088-.028-.176-.056-.264-.086-.125-.042-.247-.088-.37-.134-.1-.038-.2-.074-.299-.114-.114-.046-.224-.096-.336-.145-.094-.041-.19-.08-.283-.124-.201-.095-.4-.195-.59-.3a5.707 5.707 0 0 1-1.277-.954c-1.291-1.317-1.231-2.866-1.164-3.87.086-1.26 1.143-4.027 4.622-5.493 2.15-.759 4.677-1.29 6.79-.61 1.59.36 2.734.881 4.245 1.415 0 0-.012.026.406.13 2.94.465 2.61-1.957 2.61-1.957l-.23-.566c-.052-.299.172-.535.172-.535s-.181-.667-.15-1.109c.03-.441.005-1.007-.09-1.813-.097-.807-.627-1.49-.798-1.615-.172-.125-.974-.73-1.742-1.03-.768-.302-1.545-.525-2.501-.39-.107.015-.207.031-.312.047-.018-.006-.033-.013-.053-.018-.365-.109-.623-.97-.921-.964a.863.863 0 0 0-.14.015.933.933 0 0 0-.074.017.49.49 0 0 0-.078.029c-.174.08-.281 1.02-.347 1.22a11.88 11.88 0 0 0-5.37-1.282zm6.743 20.421z" fill="#8c6b5f"/><path d="M-24.935 2.72c-1.325 0-2.76.387-3.81.751-1.988.704-3.228 1.274-4.84 2.425-.427.31-2.106 1.543-3.126 3.263-2.82 4.984-.825 10.277 2.822 11.48 4.008 1.5 7.845 1.932 12.672-2.333-.416.332 0 0-2.317 1.207-2.73 1.017-7.101.69-10.34-1.087-2.605-1.441-2.343-3.563-2.258-4.824.085-1.261.962-4.028 4.44-5.494 2.15-.759 4.677-1.29 6.79-.61 1.59.36 2.733 1.009 4.245 1.542 0 0-.013.026.405.13 2.94.465 3.035-2.122 3.035-2.122l-.084-.471-.256-.64-.122-.274-.073-.149s-.021-.187-.051-.377c-.056.71-.34 1.096-.34 1.096-2.284-.433-2.693-2.403-5.102-3.23-.51-.2-1.088-.282-1.69-.282zm3.718 15.586c.266-.213.395-.359.395-.359-.132.124-.264.243-.395.359z" fill="#d3c9c6"/><path d="M-37.09 9.134l-.014.113c.92-.047 2.046.152 2.882.739.648.437 1.232 1.09 2.063.795.568-.2.6-.537.382-1.092-.184-.45-.488-1.23-.864-1.528-.541-.429-1.941-.279-2.011-1.175-.053-.424.214-.742.45-1.051 0 0-2.71.681-2.888 3.199z" fill="#8c6b5f"/><path d="M-18.098 6.324s-.104.328-.593.357c-.49.03-.405.71.02 1.09.423.38.755.485 1.038.193.282-.292.975-.776-.465-1.64zM-21.024 5.075a.906.906 0 0 1-1.425-1.119.906.906 0 0 1 1.425 1.119zM-17.468 5.126c-.026.349-.248.61-.495.584-.247-.026-.425-.329-.398-.678.027-.349.249-.61.495-.584.247.026.425.33.398.678z" fill="#3f3f3f"/></g></svg>