<svg xmlns="http://www.w3.org/2000/svg" height="32" width="32" version="1"><rect width="28.203" height="28.203" x="1.898" y="1.898" ry="5.575" fill="#fff" fill-rule="evenodd"/><path d="M28.473 3.53L3.527 28.472a5.556 5.556 0 0 0 3.946 1.629h17.054a5.561 5.561 0 0 0 5.575-5.575V7.473a5.555 5.555 0 0 0-1.63-3.944z" fill="#4f4f4f" fill-rule="evenodd"/><path d="M28.473 3.527a5.556 5.556 0 0 0-3.946-1.629H7.473a5.561 5.561 0 0 0-5.575 5.575v17.054c0 1.545.622 2.938 1.63 3.946L28.472 3.529v-.002z" fill="#727272" fill-rule="evenodd"/><path d="M8.23 23.77l6.8-8.741.92.92 1.022 1.022z" fill="#f2f2f2"/><path d="M23.771 8.23l-8.741 6.8 1.942 1.942z" fill="#f34235"/></svg>