<svg xmlns="http://www.w3.org/2000/svg" height="32" width="32" version="1"><rect width="28.203" height="28.203" x="1.898" y="1.898" ry="5.575" fill="#f2f2f2" fill-rule="evenodd"/><g fill-rule="evenodd" stroke-width=".742"><path d="M8.259 20.815l-3.832-8.874 3.179-1.47 2.47 5.957 2.985-1.52 1.344 2.866z" fill="#4587cf"/><path d="M19.426 8.841l3.37.647.725 2.185L25 9.985l3.691.779-3.316 3.692 1.872 5.502-3.974-.386-.706-2.983-1.796 2.455-3.09-.965 3.107-4.396z" fill="#de5328"/><path d="M10.921 11.866l3.857.524 1.145 2.393 1.443-2.07 3.882.5-3.559 5.085-.87 4.86-3.609-.573.623-4.362z" fill="#dfa722"/></g></svg>