<svg xmlns="http://www.w3.org/2000/svg" height="32" width="32" version="1"><rect width="28.203" height="28.203" x="1.898" y="1.898" ry="5.575" fill="#246e9a" fill-rule="evenodd"/><path d="M16 6A10 10 0 0 0 6 16a10 10 0 0 0 10 10 10 10 0 0 0 10-10A10 10 0 0 0 16 6zm0 3c1.108 0 2 .804 2 1.801v8.398c0 .997-.892 1.801-2 1.801s-2-.804-2-1.801v-8.398C14 9.804 14.892 9 16 9zm-6 4c1.108 0 2 .892 2 2v4c0 1.108-.892 2-2 2s-2-.892-2-2v-4c0-1.108.892-2 2-2zm12 0c1.108 0 2 .892 2 2v4c0 1.108-.892 2-2 2s-2-.892-2-2v-4c0-1.108.892-2 2-2z" fill="#fff"/></svg>