<svg xmlns="http://www.w3.org/2000/svg" height="32" width="32" version="1"><path d="M28.73 28.09l-.67.168H3.91c-.112 0-.393-.096-.617-.133 1.02 1.187 2.484 1.977 4.18 1.977h17.052c1.712 0 3.182-.806 4.204-2.012z" fill="#999" fill-rule="evenodd"/><path d="M30.071 24.682V13.97a1.4 1.4 0 0 0-.562-1.123l.006-.008-13.53-9.938L2.54 12.791v-.002c-.029.019-.057.042-.084.063l-.015.011v.002a1.402 1.402 0 0 0-.543 1.106v10.556c0 1.393.558 2.623 1.396 3.598.224.037.505.133.617.133H28.06l.67-.168c.789-.932 1.304-2.095 1.341-3.408z" fill="#285f74" fill-rule="evenodd"/><path d="M7.474 1.898a5.565 5.565 0 0 0-5.577 5.577v6.496c0-.451.216-.848.543-1.106v-.002l.016-.011c.027-.021.055-.044.084-.063v.002a95774.3 95774.3 0 0 0 13.445-9.889l13.53 9.938-.006.008a1.4 1.4 0 0 1 .562 1.123v10.71c.002-.054.031-.099.031-.154V7.475a5.565 5.565 0 0 0-5.576-5.577z" fill="#999" fill-rule="evenodd"/><rect rx="1.509" ry="1.508" height="18.112" width="22.136" y="5.92" x="4.917" fill="#ebebeb"/><path d="M30.071 24.682V13.97L6.93 29.992c.188.02.351.11.545.11h17.052c3.034 0 5.46-2.408 5.545-5.42z" fill="#2a88ae" fill-rule="evenodd"/><path d="M15.985 23.723L1.9 13.97v10.556c0 2.895 2.212 5.18 5.03 5.465z" fill="#5aadce" fill-rule="evenodd"/><g fill="#3b9abd"><path d="M20.734 15.587l-4.973-.008-4.495.008 2.496-3.092L16 9.693l2.477 3.1z"/><path d="M14.441 13.77h3.119v4.677h-3.119z"/></g></svg>