<svg xmlns="http://www.w3.org/2000/svg" height="32" width="32" version="1"><rect width="28.203" height="28.203" x="1.898" y="1.898" ry="5.575" fill="#0286c2" fill-rule="evenodd"/><g transform="translate(45.203 6.945)"><path d="M-29.203 3.118a5.937 5.937 0 0 0-5.937 5.937 5.937 5.937 0 0 0 5.937 5.938 5.937 5.937 0 0 0 5.938-5.938 5.937 5.937 0 0 0-5.938-5.937zm0 3.562a2.375 2.375 0 1 1 0 4.75 2.375 2.375 0 0 1 0-4.75z" fill="#848484"/><path d="M-29.203-2.028A11.059 11.059 0 0 0-40.286 9.055c0 6.14 4.943 11.083 11.083 11.083 6.14 0 11.083-4.943 11.083-11.083 0-6.14-4.943-11.083-11.083-11.083zm0 6.333a4.75 4.75 0 0 1 4.75 4.75 4.75 4.75 0 0 1-4.75 4.75 4.75 4.75 0 0 1-4.75-4.75 4.75 4.75 0 0 1 4.75-4.75z" fill="#ccc"/><rect rx="1.131" ry="1.131" y="12.222" x="-37.119" height="7.917" width="15.833" fill="#64cd4a"/><path d="M-31.977 18.154v-3.947m-3.16 0l1.58 1.973 1.58-1.973m-3.16 3.947v-3.947" fill="none" stroke="#fff" stroke-linecap="round" stroke-linejoin="round"/><path d="M-27.227 18.154l-2.368-2.467m2.368-1.48l-2.368 2.467m0 1.48v-3.948" fill="none" stroke="#fff" stroke-linecap="round"/><path d="M-23.267 14.206l-1.186 3.954-1.186-3.954" fill="none" stroke="#fff" stroke-linecap="round" stroke-linejoin="round"/></g></svg>