<svg xmlns="http://www.w3.org/2000/svg" height="32" width="32" version="1"><rect width="28.203" height="28.203" x="1.898" y="1.898" ry="5.575" fill="#2a88ae" fill-rule="evenodd"/><path d="M16.017 7.593c1.753.004 3.531.556 4.92 1.647.976 1.135-.884 2.35-1.722 1.243-2.522-1.54-6.079-.997-7.976 1.305a6.36 6.36 0 0 0-1.572 4.197h1.667L8.667 20.02 6 15.985h1.667c-.053-3.654 2.551-7.13 6.048-8.076a8.315 8.315 0 0 1 2.302-.316zm7.317 4.373L26 16.002h-1.667c.047 3.698-2.624 7.212-6.181 8.109-2.401.676-5.116.183-7.089-1.365-1.007-1.154.88-2.357 1.725-1.24 2.443 1.495 5.865 1.02 7.794-1.116a6.353 6.353 0 0 0 1.751-4.388h-1.667l2.667-4.036z" fill="#fff"/></svg>