<svg xmlns="http://www.w3.org/2000/svg" height="32" width="32"><path d="M27.492 29.13L16.418 18.06 5.028 29.483c.744.368 1.554.62 2.445.62h17.054c1.118 0 2.095-.41 2.965-.971z" fill="#2095f2" fill-rule="evenodd"/><path d="M29.723 26.412L18.89 15.58l-2.473 2.48 11.074 11.07c1.014-.653 1.814-1.563 2.23-2.718z" fill="#ffe500" fill-rule="evenodd"/><path d="M29.453 4.986L18.891 15.58l10.832 10.832c.214-.594.379-1.215.379-1.885V7.473c0-.909-.267-1.73-.649-2.487z" fill="#00a31c" fill-rule="evenodd"/><path d="M27.03 2.557L2.546 27.016a5.503 5.503 0 0 0 2.48 2.466L29.453 4.986a5.496 5.496 0 0 0-2.424-2.43z" fill="#fff" fill-rule="evenodd"/><path d="M7.473 1.898a5.561 5.561 0 0 0-5.575 5.575v17.054c0 .91.266 1.732.649 2.489l24.482-24.46c-.76-.387-1.586-.658-2.502-.658z" fill="#e9e5dc" fill-rule="evenodd"/><g stroke-width="1.735"><path d="M9.644 4.754c-2.546 0-4.61 2.027-4.61 4.527 0 .156.013.3.029.453.012.151.033.304.057.452.528 3.182 2.68 5.436 4.524 7.246 1.844-1.81 3.996-4.064 4.524-7.246a5.65 5.65 0 0 0 .057-.452c.016-.152.03-.297.03-.453 0-2.5-2.065-4.527-4.61-4.527z" fill="#f34235"/><path d="M9.644 7.06a1.729 1.729 0 1 1 0 3.457 1.729 1.729 0 0 1 0-3.458z" fill="#fff"/></g></svg>