<svg xmlns="http://www.w3.org/2000/svg" height="32" width="32" version="1"><rect width="28.203" height="28.203" x="1.898" y="1.898" ry="5.575" fill="#fff" fill-rule="evenodd"/><g fill-rule="evenodd"><path d="M28.473 3.529L3.527 28.472a5.556 5.556 0 0 0 3.946 1.63h17.054a5.561 5.561 0 0 0 5.575-5.575V7.472a5.555 5.555 0 0 0-1.63-3.943z" fill="#328fe3"/><path d="M15.518 4.174c-.434.014-.853.074-1.274.131l.404.346-1.093.586 1.392.33.178-.469h.61l.212-.406-.43-.11zm-1.274.131l-.012-.01-.496.063c.166-.03.34-.03.508-.053zm-.996.153a11.873 11.873 0 0 0-5.777 3.164 11.903 11.903 0 0 0-3.213 5.75l.037.056-.102.19c-.018.088-.032.176-.049.265l.454.698 1.252.31v-.203l.5.072-.047.36.392.07.608.168.859.984 1.098.082.105.9-.75.526-.035.807-.107.49 1.086 1.37.082.464s.393.107.441.107c.026 0 .25.176.482.348l4-3.998-.01-.148-.333-.586-.909-.014-.523-.828-.465-.227-.025.25-.846.051-.31-.434-.881-.18-.729.845-1.144-.194-.084-1.297-.836-.144.336-.637-.096-.367-1.098.74-.691-.086-.246-.54.15-.561.381-.704.879-.447h1.691l-.004.518.608.285-.049-.887.44-.445.884-.582.06-.412.886-.924.935-.522-.08-.068.635-.603.23.062.11.137.24-.272.058-.025-.263-.037-.27-.09v-.26l.145-.117h.31l.145.064.123.252.154-.023v-.022l.041.014.444-.066.06-.217.25.064v.233l-.232.16.035.258.795.248.004.01.183-.016.012-.348-.63-.289-.038-.166.523-.18.026-.503-.549-.336-.037-.852-.75.371h-.274l.07-.648-1.02-.242-.423.322v.98L11.801 7l-.307.638-.33.055v-.818l-.715-.1-.357-.232-.145-.532 1.28-.754.624-.19.065.423.348-.016.027-.215.365-.052.006-.075-.156-.064-.037-.225.449-.037.271-.285.014-.021.004.002zm10.596 2.726l-.168.027-.516.739-.744.119-.107.639.312.072-.09.412-.738-.149-.674.149-.144.377.117.795.373.174 2.853-2.854c-.163-.162-.302-.347-.474-.5zm-3.067 4.041l-.043.024v.02z" opacity=".441" fill="#007dff" fill-opacity=".555"/><path d="M7.473 1.899a5.561 5.561 0 0 0-5.575 5.574v17.055c0 1.544.622 2.937 1.63 3.945l7.036-7.037c-.231-.172-.456-.348-.482-.348-.048 0-.441-.107-.441-.107l-.082-.465-1.086-1.369.107-.49.035-.807.75-.525-.105-.9-1.098-.083-.86-.984-.607-.168-.392-.07.047-.36-.5-.072v.203l-1.252-.31-.454-.698c.017-.089.03-.177.05-.265l.1-.19-.036-.056a11.903 11.903 0 0 1 8.99-8.914l.004-.002-.004.002-.041.043-.004-.002-.014.021-.271.285-.45.037.038.225.156.064-.006.075-.365.052-.027.215-.348.016-.065-.422-.625.19-1.279.753.145.531.357.233.715.1v.818l.33-.055.307-.639.761-.242v-.98l.422-.322 1.022.242-.07.648h.273l.75-.37.037.85.549.337-.026.504-.523.18.037.165.631.29-.012.347-.183.016-.004-.01-.795-.248-.035-.258.232-.16v-.233l-.25-.064-.06.217-.444.066-.04-.014v.022l-.155.023-.123-.252-.145-.064h-.31l-.145.117v.26l.27.09.263.037-.058.025-.24.272-.11-.137-.23-.062-.635.603.08.068-.935.522-.885.924-.06.412-.886.582-.439.445.049.887-.608-.285.004-.518H7.084l-.879.447-.38.704-.151.56.246.541.691.086 1.098-.74.096.367-.336.637.836.144.084 1.297 1.144.194.729-.844.88.18.311.433.846-.05.025-.25.465.226.523.828.909.014.334.586.01.148 6.17-6.17v-.02l.042-.023.688-.687-.373-.174-.117-.795.144-.377.674-.149.738.149.09-.412-.312-.072.107-.64.744-.118.516-.739.168-.027c.172.153.311.338.474.5l4.155-4.154v-.002a5.556 5.556 0 0 0-3.946-1.63zm8.045 2.275v.409l.43.109-.214.406h-.61l-.177.469-1.392-.33 1.093-.586-.404-.346c-.168.023-.342.023-.508.053l.496-.063.012.01c.42-.057.84-.117 1.274-.13z" fill="#42b2f6"/><path d="M24.309 7.536l-2.856 2.855.025.012.666-.004.45-.041.136-.36.704-.917.464.093.453-.412.086.322 1.12.76-.137.186-.504-.028.193.276.31.068.366-.15-.01-.442.164-.082-.132-.138-.749-.418-.193-.557h.41c-.292-.37-.633-.692-.967-1.023zm.251 2.765l-1.607.127-.5.27h-.639l-.314-.031-.732.41-.043.043v.797l-1.586 1.148.13.492h.32l-.081.467-.229.082-.011 1.225 1.37 1.57h.598l.037-.096h1.07l.311-.287h.61l.332.336.908.096-.12 1.21 1.005 1.786-.53 1.02.035.48.418.418v1.154l.118.156a11.896 11.896 0 0 0 2.416-7.203 11.976 11.976 0 0 0-1.02-4.838l-.51.05v.448h-.232l-.25-.18-1.274-.322zM14.555 17.29l-4 3.998c.193.143.402.289.402.289v2.47l.299.084-.203 1.137.5.672-.092 1.129.01.02c.622.245 1.264.448 1.933.587l.026-.072.025-.328-.426-.014-.215-.267.354-.342.049-.258-.395-.113.024-.239.56-.085.854-.413.285-.527.894-1.15-.203-.9.274-.48.822.026.555-.441.18-1.739.613-.783.107-.504-.56-.18-.37-.609-1.263-.013-1.002-.385z" fill="#c1dfff"/></g><path d="M8.23 23.77l6.799-8.742.92.92 1.022 1.023z" fill="#f2f2f2"/><path d="M23.77 8.23l-8.741 6.799 1.942 1.942z" fill="#f34235"/></svg>