<svg xmlns="http://www.w3.org/2000/svg" height="32" width="32" version="1"><rect width="28.203" height="28.203" x="1.898" y="1.898" ry="5.575" fill="maroon" fill-rule="evenodd"/><path d="M15.742 24.15c-.268-.075-.425-.202-1.102-.89-2.638-2.684-4.352-5.143-5.008-7.187-.234-.73-.316-1.395-.258-2.091.072-.856.26-1.578.602-2.307a6.65 6.65 0 0 1 5.412-3.829 6.665 6.665 0 0 1 7.236 6.093c.158 1.772-.617 3.76-2.398 6.15-.77 1.034-1.488 1.85-2.69 3.054-.731.734-.843.834-1.036.924-.25.117-.53.148-.758.083zm.819-7.588a2.598 2.598 0 0 0 1.313-.697c.295-.277.502-.567.645-.904.167-.392.213-.627.213-1.085 0-.458-.046-.69-.213-1.087a2.774 2.774 0 0 0-1.95-1.597 3.355 3.355 0 0 0-1.138 0c-1.304.268-2.252 1.502-2.171 2.828.044.728.333 1.345.864 1.844.392.369.804.59 1.294.696.288.062.848.063 1.143.002z" fill="#fff"/></svg>