<svg xmlns="http://www.w3.org/2000/svg" height="32" width="32" version="1"><path d="M7.533 2h16.934A5.535 5.535 0 0 1 30 7.533v16.934A5.535 5.535 0 0 1 24.467 30H7.533A5.535 5.535 0 0 1 2 24.467V7.533A5.535 5.535 0 0 1 7.533 2zm0 0" fill="#c23f2c" fill-rule="evenodd"/><g stroke-width="1.511"><path d="M16 5.14c5.995 0 10.86 4.865 10.86 10.86 0 5.995-4.865 10.86-10.86 10.86-5.995 0-10.86-4.865-10.86-10.86 0-5.995 4.865-10.86 10.86-10.86zm0 0" fill="#9b200d"/><path d="M16 5.14c-1.369 0-2.672.263-3.878.721-.087.083-.2.145-.29.135a.072.072 0 0 1-.038-.014c-.593.248-1.158.555-1.693.9.07.11.09.237-.051.3-.024.01-.328.037-.431.037a10.81 10.81 0 0 0-3.517 4.32c.01 0 .021-.007.035-.007.117-.003.29.031.403.055.104.021.19.09.28.097.258.02.32-.18.527-.29.217.028.362-.038.558-.017.135.017.231.159.335.165.086.01.165-.079.248-.068.083.013.224.193.238.293.017.124-.093.237-.055.375.13.135.369.162.555.238.124-.1.017-.286 0-.434 0-.062.01-.12 0-.18-.01-.1-.055-.19-.055-.275 0-.397.32-.583.586-.738.113-.069.203-.19.303-.238.141-.072.248-.09.366-.155.21-.117.39-.214.555-.348.075-.18.006-.42.013-.597.076-.048.142.021.224.014.128-.027.138-.207.21-.279.042-.041.156-.069.208-.11.127-.1.168-.249.279-.293.041-.014.13-.01.193-.028.083-.02.2-.12.334-.165.09-.031.29-.038.32-.07.042-.044 0-.161.015-.223.069-.314.54-.38.824-.487.193-.075.396-.21.61-.168-.042.148-.242.096-.207.279.045.251.383-.073.472-.11.17-.073.462-.118.683-.197.196-.072.548-.18.362-.403-.152-.01-.228.179-.362.237-.093.014-.073-.079-.152-.086-.076-.01-.117.07-.196.055-.076-.01-.183-.13-.197-.22-.027-.235.197-.328.293-.504-.062-.21-.351-.04-.527-.124.014-.124.145-.21.29-.234.12-.02.389-.01.461.052.042.038.004.124.07.182.072.066.158.059.25.042.032-.159-.206-.117-.178-.224.186-.121.493-.021.724-.056.13-.02.268-.113.39-.179.11-.062.254-.172.371-.069.035.114-.103.152-.165.207-.214.19-.431.407-.596.628.1.1.286.048.458.068.066.01.148.032.22.042.083.014.173.01.239.027.117.031.148.156.262.156.193 0 .193-.207.086-.335.034-.134.086-.2.041-.293-.086-.172-.4-.01-.417-.224-.01-.138.117-.13.165-.234-.02-.27.221-.29.197-.528-.014-.103-.097-.103-.169-.196-.034-.049-.052-.135-.093-.176A11.654 11.654 0 0 0 16 5.14zm-5.602 2.193c.065.01.141.08.22.083.076.003.138-.038.183-.028.117.031.166.207.055.293-.09.01-.127-.038-.193-.027-.19.03-.262.403-.403.39-.134-.011-.207-.335-.072-.432.01-.086-.059-.1-.056-.182.038-.052.156-.107.266-.097zm-.628.042c.038.003.07.013.083.027-.017.148-.134.141-.248.21-.2.118-.314.3-.376.555-.017.076-.213.273-.307.252-.22-.045.059-.452.11-.514.056-.069.132-.13.197-.21.062-.076.104-.18.166-.22a.816.816 0 0 1 .375-.1zm1.648.503c.07 0 .135.01.162.041-.044.183-.44.135-.586.07.01-.07.118-.09.21-.1.063 0 .142-.015.214-.011zm-.9.338c.045 0 .094.01.142.024-.128.107-.266.165-.486.234-.104.035-.286.076-.307-.041-.02-.145.155-.11.252-.124.124-.017.255-.09.4-.093zm13.825.824c-.014.041-.028.079-.024.117.007.069.079.13.096.224.01.048-.02.152 0 .196.07.128.245.035.369.042a10.256 10.256 0 0 0-.441-.58zm.713.958c-.02.097-.086.22-.138.3-.12.186-.286.196-.461.293-.145.083-.207.22-.293.362-.09.155-.149.248-.11.472-.125.248-.315.4-.57.517-.079.035-.182.045-.251.097-.055.041-.086.148-.166.234-.1.11-.2.155-.251.238-.042.066-.056.193-.1.28-.059.117-.183.175-.262.292-.035.056-.059.166-.1.238-.087.159-.238.276-.221.417.014.135.169.16.18.28.003.065-.046.107-.042.179.003.107.076.183.083.265.02.207-.07.29-.107.431-.02.066-.01.142-.031.193-.035.107-.176.2-.18.321 0 .086.09.159.097.28 0 .082-.041.172-.028.25.031.153.3.328.418.446.158.158.365.279.43.444.06.142.06.324.17.431.079.08.213.128.32.21.097.076.2.142.303.221.173.135.428.397.697.376.141-.01.286-.124.444-.152.166-.03.38-.045.545-.027.128.014.259.09.39.082.141-.01.3-.113.458-.182.128-.055.286-.117.459-.162.076-.528.12-1.072.12-1.624 0-2.224-.665-4.285-1.803-6.002zm-17.96 3.647c-.232.014-.383.025-.514.083-.3.138-.242.545-.542.641-.106.035-.248.035-.362.059-.1.017-.22.072-.324.069-.027 0-.065-.02-.103-.035-.028.194-.048.387-.066.58.287.055.435.434.69.558.069.035.158.038.248.059.073.014.128.045.197.069.144.048.327.044.444.096.176.08.307.414.459.5.01.093-.017.214.014.28.072.096.175.075.293.14.141.076.186.273.32.335.049.02.162.017.238.038.183.059.245.272.404.224.103-.031.093-.138.11-.234.069-.076.145-.193.251-.197.173-.007.187.18.252.348.035.093.128.176.152.276.045.176.02.693-.014.796-.045.128-.217.18-.32.321-.052.066-.076.162-.114.21-.07.083-.17.104-.221.18-.028.044-.055.138-.083.193-.086.179-.196.303-.127.517.03.086.169.145.169.248 0 .12-.259.231-.28.362-.013.1.08.276.11.407.025.096.208.155.266.22.097.11.176.266.266.404.175.272.313.603.486.865.09.138.217.262.279.403.031.073.028.159.055.225.1.224.538.458.765.568.107.052.225.07.321.124.148.083.441.304.514.431.069.118.11.4.141.586.041.245 0 .431.014.697.01.145.055.286.055.43 0 .049-.024.087-.028.139 0 .01.004.017.004.027 1.365.617 2.882.972 4.485.972.29 0 .576-.017.858-.038.014-.02.025-.044.042-.065.065-.083.124-.159.165-.234.042-.256-.1-.431-.041-.655.065-.249.414-.404.655-.514.083-.041.169-.104.234-.128.17-.058.38-.027.531-.082.262-.093.29-.376.417-.614.062-.11.142-.224.152-.303.01-.073-.024-.142-.014-.225.014-.086.09-.158.11-.251.032-.12.045-.297.045-.431 0-.11-.051-.207-.055-.307-.017-.358.131-.4.262-.596.07-.097.093-.21.142-.28.224-.334.613-.496.582-1.003-.007-.165-.114-.544-.234-.596-.073-.031-.235-.004-.335-.042-.33-.124-.524-.53-.865-.558-.072-.01-.138.031-.22.028-.135-.007-.338-.094-.49-.11-.093-.011-.22.027-.276 0-.09-.042-.096-.204-.169-.252-.055-.038-.165-.052-.248-.083-.138-.052-.248-.114-.403-.124-.052-.004-.11.02-.17.014-.086-.014-.154-.118-.237-.17-.1-.061-.193-.089-.235-.179.09-.3-.162-.382-.224-.555-.027-.082-.013-.179-.041-.251-.035-.104-.138-.166-.252-.252-.2-.155-.379-.3-.669-.334-.124-.018-.251.037-.403.027-.162-.01-.365-.152-.486-.29-.117-.134-.176-.258-.28-.32-.096-.062-.223-.062-.292-.124-.028-.028-.024-.076-.055-.142-.049-.1-.131-.158-.07-.279-.11-.055-.113.107-.237.086-.107-.155-.197-.227-.445-.182-.11.02-.176.162-.307.165-.107.01-.19-.117-.33-.138-.111-.013-.232.028-.308.014-.12-.024-.155-.12-.265-.193-.08-.052-.234-.141-.28-.141-.137.01-.237.3-.43.196-.093-.12.152-.183.041-.293-.086-.086-.155.038-.224.086-.076.052-.148.104-.234.138-.19.07-.31.031-.459.11-.141.073-.145.19-.224.335-.065.117-.21.286-.307.293-.117.01-.227-.162-.334-.207-.317-.138-.472.12-.738.124-.245.01-.596-.396-.582-.627 0-.142.079-.355.096-.528.014-.141.11-.224.11-.351.004-.17-.224-.297-.334-.317-.259-.049-.62.103-.917-.014-.059-.097.065-.162.097-.252.02-.055.01-.124.027-.18.035-.089.128-.158.169-.25.031-.073.038-.177.069-.266.034-.1.103-.166.11-.238a.31.31 0 0 0-.096-.262zm3.723 2.948c.093.01.106.203.01.22-.104.018-.159-.161-.055-.21a.053.053 0 0 1 .045-.007zm0 0" fill="#e57452"/></g></svg>