<svg xmlns="http://www.w3.org/2000/svg" height="32" width="32" version="1"><rect width="28.203" height="28.203" x="1.898" y="1.898" ry="5.575" fill="#267eb6" fill-rule="evenodd"/><path d="M21.208 22.548c1.32-.757 3.323-2.528 3.323-2.939 0-.2-.345-.057-1.02.423-2.346 1.667-3.276 1.777-3.267.387.01-1.717 1.792-4.854 4.387-7.728l1.42-1.574-.396-.679c-.218-.373-.548-.708-.733-.744-.474-.091-4.056 2.977-6.311 5.406-1.043 1.123-1.93 2.01-1.97 1.97-.04-.041.377-.833.927-1.762 2.196-3.71 2.652-5.05 1.922-5.655-.175-.146-.538-.21-.805-.143-.828.208-3.198 2.33-4.884 4.375-.885 1.073-1.635 1.926-1.666 1.896-.03-.03.391-.998.938-2.152.851-1.798.977-2.233.884-3.061-.063-.554-.289-1.146-.53-1.388-.379-.378-.519-.395-1.358-.17-.514.139-1.685.63-2.601 1.09-.917.46-1.734.838-1.816.838-.082 0 .085-.259.37-.575l.521-.574-.644.446c-1.125.78-1.654 1.507-1.847 2.538-.103.551-.135 1.087-.07 1.191.16.261 1.199-.203 3.562-1.594 2.892-1.703 3.329-1.767 3.186-.47-.098.901-2.177 4.355-4.548 7.56l-.67.903.373.974c.204.536.5.974.659.974.158 0 1.117-1.24 2.131-2.756 2.097-3.135 4.895-6.603 5.908-7.324.52-.37.744-.428.934-.238.355.355-.768 2.439-2.992 5.552-.988 1.382-1.857 2.74-1.932 3.015-.153.567.262 2.18.562 2.18.108 0 .99-.99 1.96-2.199 1.928-2.401 6.62-7.243 7.02-7.243.453 0 .265.332-1.285 2.264-2.656 3.31-3.457 5.854-2.23 7.081.683.684 1.268.662 2.588-.095z" fill="#fff"/></svg>