<svg xmlns="http://www.w3.org/2000/svg" xmlns:xlink="http://www.w3.org/1999/xlink" height="32" width="32" version="1"><defs><linearGradient id="a"><stop offset="0" stop-color="#d6393a"/><stop offset="1" stop-color="#a03236"/></linearGradient><linearGradient xlink:href="#a" id="b" x1="3.773" y1="4.75" x2="27.727" y2="27.75" gradientUnits="userSpaceOnUse"/></defs><rect width="28.203" height="28.203" x="1.898" y="1.898" ry="5.575" fill="url(#b)" fill-rule="evenodd"/><path d="M17.75 7.687v3.476h.793V9.958h.523c.392 0 .692-.1.9-.295.21-.197.315-.477.315-.842 0-.363-.104-.644-.314-.84-.209-.197-.51-.294-.9-.294zm3.09 0v3.476h.836c.461 0 .808-.037 1.039-.111.23-.076.429-.205.594-.385.144-.157.25-.338.32-.543.07-.206.105-.44.105-.703 0-.26-.035-.49-.105-.695a1.516 1.516 0 0 0-.32-.543 1.348 1.348 0 0 0-.59-.383c-.228-.076-.576-.113-1.043-.113zm3.502 0v3.476h.793V9.69h1.267v-.677h-1.267v-.649h1.347v-.677zm-5.799.65h.44c.153 0 .271.041.355.125.084.084.125.204.125.36 0 .155-.041.275-.125.36-.084.084-.202.126-.356.126h-.439zm3.09.027h.285c.325 0 .572.09.742.27.17.18.256.442.256.787 0 .346-.086.611-.258.793-.17.182-.416.271-.74.271h-.285zm-6.569 4.584l-5.152.022c.176.136.517.301.725.693l3.804 8.686c.132.282.369.22.528-.145l2.435-5.525-1.812-3.49c-.114-.181-.299-.248-.528-.24zm-5.3.393L4.997 24.267l5.424.005 2.197-5.242-2.267-4.998c-.1-.305-.38-.602-.589-.691zm11.484 2.43c-.173-.002-.37.04-.574.105l-2.957.973-2.53 5.68c-.174.474.522.371.805.28l7.617-2.94c.827-.3.982-.413 1.532-.17l-3.461-3.774c-.11-.107-.259-.153-.432-.154zm3.466 4.152a.823.823 0 0 0-.295.035l-3.882 1.487 1.238 2.868h5.227l-1.766-4.019a.593.593 0 0 0-.522-.37z" fill="#fff"/></svg>