<svg xmlns="http://www.w3.org/2000/svg" height="32" width="32" version="1"><rect width="28.203" height="28.203" x="1.898" y="1.898" ry="5.575" fill="#8f2713" fill-rule="evenodd"/><g transform="translate(40 .951)"><rect rx="1.633" ry="1.524" y="9.968" x="-26.178" height="15.243" width="4.355" fill="#b83229"/><path d="M-25.194 15.04c-2.4-.046-3.373-.086-3.969-.164-.436-.058-.65-.114-.893-.233-.4-.198-.648-.473-.827-.917-.164-.406-.23-.729-.292-1.41-.07-.77-.075-.91-.082-2.11-.008-1.41.009-1.872.103-2.808.05-.49.122-.817.259-1.162.123-.315.236-.49.442-.68.259-.241.542-.388.9-.465.536-.115 2.953-.204 5.554-.204 2.601 0 5.019.089 5.554.204.386.083.67.237.947.514.217.217.329.414.462.813.137.412.19.777.267 1.856.037.512.037 2.87 0 3.383a17.18 17.18 0 0 1-.132 1.323c-.09.491-.269.95-.47 1.212a1.98 1.98 0 0 1-.638.5c-.23.11-.45.163-.804.198-1.098.108-4.45.187-6.38.15z" fill="#d54c41"/><g stroke-width="1.378" fill="none" stroke="#fefefe"><path d="M-29.444 11.783v-3.63l1.524 1.452 1.38-1.452v3.63M-25.087 11.783l1.524-3.63 1.525 3.63M-20.008 11.783v-3.63h0M-21.454 8.153h2.898" stroke-linecap="round" stroke-linejoin="round" stroke-width="1.00024886"/><path d="M-24.579 11.057h2.033" stroke-width="1.00024886"/></g></g></svg>