<?xml version="1.0" encoding="UTF-8" standalone="no"?>
<svg
   xmlns:dc="http://purl.org/dc/elements/1.1/"
   xmlns:cc="http://creativecommons.org/ns#"
   xmlns:rdf="http://www.w3.org/1999/02/22-rdf-syntax-ns#"
   xmlns:svg="http://www.w3.org/2000/svg"
   xmlns="http://www.w3.org/2000/svg"
   xmlns:sodipodi="http://sodipodi.sourceforge.net/DTD/sodipodi-0.dtd"
   xmlns:inkscape="http://www.inkscape.org/namespaces/inkscape"
   width="32"
   height="32"
   version="1.1"
   viewBox="0 0 32 32"
   id="svg8"
   sodipodi:docname="mate.svg"
   inkscape:version="0.92.4 5da689c313, 2019-01-14">
  <metadata
     id="metadata14">
    <rdf:RDF>
      <cc:Work
         rdf:about="">
        <dc:format>image/svg+xml</dc:format>
        <dc:type
           rdf:resource="http://purl.org/dc/dcmitype/StillImage" />
        <dc:title />
      </cc:Work>
    </rdf:RDF>
  </metadata>
  <defs
     id="defs12" />
  <sodipodi:namedview
     pagecolor="#ffffff"
     bordercolor="#666666"
     borderopacity="1"
     objecttolerance="10"
     gridtolerance="10"
     guidetolerance="10"
     inkscape:pageopacity="0"
     inkscape:pageshadow="2"
     inkscape:window-width="1059"
     inkscape:window-height="610"
     id="namedview10"
     showgrid="false"
     inkscape:zoom="10.6875"
     inkscape:cx="16"
     inkscape:cy="16"
     inkscape:window-x="411"
     inkscape:window-y="187"
     inkscape:window-maximized="0"
     inkscape:current-layer="svg8" />
  <g
     id="mate"
     transform="translate(-54.618632,2.9695411)"
     inkscape:highlight-color="2110276351">
    <rect
       ry="5.575182"
       y="-1.0719293"
       x="56.517632"
       height="28.203388"
       width="28.203388"
       id="mate-2"
       style="opacity:1;fill:#7dc842;fill-opacity:1;fill-rule:evenodd;stroke:none;stroke-width:1.03534329;stroke-linecap:round;stroke-linejoin:bevel;stroke-miterlimit:4;stroke-dasharray:none;stroke-dashoffset:0;stroke-opacity:1"
       inkscape:highlight-color="2110276351" />
    <path
       sodipodi:nodetypes="ssscsssssssssscsssssssscsscsccscssscsscssssscssscc"
       inkscape:connector-curvature="0"
       id="mate-1"
       d="m 70.044508,22.091589 c -2.009286,-0.181591 -3.809934,-1.038718 -5.284296,-2.515383 -0.463784,-0.464506 -0.649563,-0.694208 -0.649563,-0.803132 0,-0.123022 0.108681,-0.221135 0.561366,-0.506774 0.308755,-0.194822 0.598257,-0.354219 0.643346,-0.354219 0.04509,0 0.341434,0.250272 0.658543,0.556162 0.945875,0.912412 1.848962,1.43536 3.061788,1.772997 0.571995,0.159235 0.708316,0.172385 1.760692,0.169878 1.02562,-0.0026 1.20219,-0.01937 1.750259,-0.167782 1.201185,-0.325253 2.150868,-0.878513 3.074422,-1.791071 1.95561,-1.932322 2.555012,-4.808152 1.53654,-7.372054 C 76.432636,9.255177 74.902974,7.7847186 73.077771,7.158278 70.480486,6.2668451 67.646088,6.9574386 65.774223,8.9377708 65.55642,9.1681982 65.350614,9.356728 65.316875,9.356728 65.228955,9.356728 64.221,8.7203704 64.12649,8.6051917 64.08292,8.5520987 64.04728,8.4891872 64.04728,8.465391 c 0,-0.076122 0.670956,-0.7983321 1.119017,-1.2045028 2.469763,-2.2388439 6.179162,-2.7843488 9.204276,-1.3535803 2.538024,1.2003965 4.339494,3.5883505 4.794262,6.3550841 0.155736,0.947468 0.101107,2.460995 -0.120623,3.341892 -0.55187,2.192489 -1.824482,3.974322 -3.70643,5.189509 -1.524473,0.984363 -3.473612,1.462252 -5.293271,1.297796 z M 61.892632,13.551997 V 8.0376351 l 4.641991,2.7401249 c 2.553097,1.50707 4.641991,2.761228 4.641991,2.787013 0,0.04054 -8.991429,5.383344 -9.204766,5.469568 -0.06301,0.02547 -0.07921,-1.096031 -0.07921,-5.482344 z m 7.967993,5.278072 c -0.639913,-0.121377 -1.39037,-0.413595 -1.887699,-0.735038 -0.49662,-0.320988 -1.137288,-0.926254 -1.137288,-1.074446 0,-0.127013 1.035324,-0.818881 1.226032,-0.819311 0.06436,-1.26e-4 0.241329,0.109162 0.393261,0.242903 0.36646,0.322572 0.916614,0.60894 1.422561,0.740472 0.591162,0.15368 1.592602,0.10305 2.163919,-0.109406 1.061607,-0.39478 1.893233,-1.308672 2.233302,-2.454214 0.128907,-0.434229 0.133471,-1.433757 0.0087,-1.902659 -0.349874,-1.314734 -1.447866,-2.350802 -2.789925,-2.632572 -0.557875,-0.1171305 -0.899203,-0.1174535 -1.447086,-0.0015 -0.555302,0.11766 -0.989612,0.320296 -1.476718,0.688987 -0.213911,0.161909 -0.434589,0.294381 -0.490394,0.294381 -0.05581,0 -0.358453,-0.159728 -0.672552,-0.354945 -0.7381,-0.458745 -0.741814,-0.508407 -0.07995,-1.068577 2.088083,-1.767264 5.09471,-1.7114986 7.047519,0.1307133 1.119614,1.0562077 1.67644,2.3548127 1.668456,3.8911017 -0.0027,0.527874 -0.04054,0.868556 -0.137102,1.235773 -0.283755,1.079104 -0.974984,2.159825 -1.813486,2.835348 -0.504253,0.406242 -1.377279,0.848395 -1.979309,1.002442 -0.664946,0.170148 -1.628037,0.208808 -2.252226,0.09041 z"
       style="fill:#fefeff;fill-opacity:1;stroke-width:0.06337243"
       inkscape:highlight-color="4278124543" />
  </g>
</svg>
