<svg xmlns="http://www.w3.org/2000/svg" width="32" height="32" version="1"><rect width="28.203" height="28.203" x="1.898" y="1.898" ry="5.575" fill="#8e8e8e" fill-rule="evenodd"/><rect width="20.896" height="15.642" x="5.552" y="8.179" ry="3.363" rx="3.363" fill="#474747"/><rect width="19.018" height="13.662" x="6.491" y="9.169" ry="2.445" rx="2.547" fill="#232323"/><path d="M15.916 12.8c-1.034.01-2.074.247-2.975.757-.358.234-.79.536-1.114.84a5.8 5.8 0 0 0-1.243 1.737c.81 1.787 2.59 3.096 4.548 3.29 1.285.145 2.63-.077 3.759-.713.358-.234.79-.536 1.114-.84a5.827 5.827 0 0 0 1.243-1.737c-.81-1.786-2.59-3.096-4.548-3.29a6.647 6.647 0 0 0-.784-.044zm0 1.334c1.071-.024 2.02.934 2 2 .034 1.177-1.14 2.194-2.3 1.974-1.17-.138-1.994-1.452-1.608-2.565.246-.82 1.05-1.419 1.908-1.41zm0 1.333a.667.667 0 0 0-.666.668.667.667 0 0 0 .666.666.667.667 0 0 0 .667-.666.667.667 0 0 0-.667-.666z" fill="#fff" fill-rule="evenodd"/></svg>