<svg xmlns="http://www.w3.org/2000/svg" width="32" height="32"><g transform="translate(-54.619 2.97)"><rect ry="5.575" y="-1.072" x="56.518" height="28.203" width="28.203" fill="#7dc842" fill-rule="evenodd"/><path d="M70.045 22.092c-2.01-.182-3.81-1.04-5.285-2.516-.464-.464-.65-.694-.65-.803 0-.123.11-.221.562-.507.309-.195.598-.354.643-.354.045 0 .342.25.659.556.946.913 1.849 1.436 3.062 1.773.572.16.708.173 1.76.17 1.026-.002 1.203-.02 1.75-.168 1.202-.325 2.152-.878 3.075-1.79a6.787 6.787 0 0 0 1.537-7.373c-.725-1.825-2.255-3.295-4.08-3.922-2.598-.891-5.432-.2-7.304 1.78-.218.23-.423.419-.457.419-.088 0-1.096-.637-1.19-.752-.044-.053-.08-.116-.08-.14 0-.076.671-.798 1.12-1.204 2.47-2.239 6.178-2.784 9.204-1.354a8.593 8.593 0 0 1 4.794 6.355c.156.948.1 2.461-.12 3.342-.553 2.193-1.825 3.975-3.707 5.19-1.525.984-3.474 1.462-5.293 1.298zm-8.152-8.54V8.038l4.642 2.74c2.553 1.507 4.642 2.761 4.642 2.787 0 .04-8.992 5.383-9.205 5.47-.063.025-.08-1.097-.08-5.483zm7.968 5.278c-.64-.121-1.39-.414-1.888-.735-.497-.321-1.137-.926-1.137-1.074 0-.127 1.035-.82 1.226-.82.064 0 .241.11.393.243.366.323.917.61 1.422.74.592.154 1.593.104 2.164-.109 1.062-.395 1.894-1.308 2.234-2.454.129-.434.133-1.434.008-1.903a3.693 3.693 0 0 0-2.79-2.632c-.557-.117-.899-.118-1.447-.002-.555.118-.99.32-1.476.69-.214.161-.435.294-.49.294-.057 0-.36-.16-.673-.355-.738-.459-.742-.509-.08-1.069 2.088-1.767 5.094-1.711 7.047.13 1.12 1.057 1.677 2.356 1.669 3.892-.003.528-.04.869-.137 1.236-.284 1.079-.975 2.16-1.814 2.835-.504.406-1.377.848-1.98 1.003-.664.17-1.627.208-2.251.09z" fill="#fefeff"/></g></svg>