<svg xmlns="http://www.w3.org/2000/svg" height="32" width="32" version="1"><rect width="28.203" height="28.203" x="1.898" y="1.898" ry="5.575" fill="#ff9959" fill-rule="evenodd"/><path d="M20.02 7.038c-.327.256-1.291 2.041-2.256 4.17-.39.867-.944 2.001-1.223 2.523-.83 1.545-2.855 4.356-3.792 5.253l-.875.845.652.694c.4.428.929 1.317 1.367 2.31.833 1.894.977 2.167 1.136 2.167.076 0 .502-.235.977-.53 1.061-.672 2.053-1.575 3.402-3.111 2.106-2.395 3.687-2.902 5.634-1.803.526.299.958.486.958.417 0-.074-.268-.795-.59-1.607-.32-.812-1.198-3.105-1.943-5.095-.532-.874-2.268-6.842-3.446-6.227m-4.198 4.899c-.009 0-.02 0-.033.006-1.781.78-2.424 1.134-2.95 1.63-.346.33-.628.683-.628.785 0 .32 1.403 1.173 1.634.994.112-.088.55-.715.974-1.398.749-1.217 1.136-2 1.004-2.017m-4.988 3.444c-.303 0-4.609 1.627-4.813 1.82-.06.056.003.16.141.236.139.079.926.604 1.76 1.17.833.566 1.557 1.026 1.609 1.029.05 0 .433-.2.841-.446.86-.516 2.518-2.113 2.51-2.419-.007-.272-1.66-1.392-2.05-1.392m.003.003" fill="#4d4d4d"/></svg>