<svg xmlns="http://www.w3.org/2000/svg" height="32" width="32"><rect width="28.203" height="28.203" x="1.898" y="1.898" ry="5.575" fill="#966129" fill-rule="evenodd"/><g transform="translate(48.029 7.199) scale(1.08431)" stroke-width=".922"><path d="M-36.236 3.199a4.583 4.583 0 0 0-4.583 4.583 4.583 4.583 0 0 0 4.583 4.582 4.583 4.583 0 0 0 4.582-4.582 4.583 4.583 0 0 0-4.582-4.583z" fill="#f8bb88"/><path d="M-36.236 5.314a2.468 2.468 0 0 0-2.468 2.468 2.468 2.468 0 0 0 2.468 2.467 2.468 2.468 0 0 0 2.467-2.467 2.468 2.468 0 0 0-2.467-2.468z" fill="#b3733f"/><path d="M-22.84 3.199a4.583 4.583 0 0 0-4.583 4.583 4.583 4.583 0 0 0 4.582 4.582 4.583 4.583 0 0 0 4.583-4.582 4.583 4.583 0 0 0-4.583-4.583z" fill="#f8bb88"/><path d="M-22.84 5.314a2.468 2.468 0 0 0-2.468 2.468 2.468 2.468 0 0 0 2.467 2.467 2.468 2.468 0 0 0 2.468-2.467 2.468 2.468 0 0 0-2.468-2.468z" fill="#b3733f"/><path d="M-29.538 1.084a7.755 7.755 0 0 1 .595.025 7.755 7.755 0 0 0-.595-.025zm0 0a7.755 7.755 0 0 0-6.82 4.076 7.755 7.755 0 0 1 6.82-4.076zm.967.07a7.755 7.755 0 0 1 .406.056 7.755 7.755 0 0 0-.406-.056zm.72.126a7.755 7.755 0 0 1 .448.107 7.755 7.755 0 0 0-.448-.107zm.72.198a7.755 7.755 0 0 1 .463.161 7.755 7.755 0 0 0-.462-.161zm.688.26a7.755 7.755 0 0 1 .493.23 7.755 7.755 0 0 0-.493-.23zm.637.313a7.755 7.755 0 0 1 .524.31 7.755 7.755 0 0 0-.524-.31zm.656.404a7.755 7.755 0 0 1 .498.367 7.755 7.755 0 0 0-.498-.367zm.587.446a7.755 7.755 0 0 1 .489.44 7.755 7.755 0 0 0-.49-.44zm.559.516a7.755 7.755 0 0 1 .455.502 7.755 7.755 0 0 0-.455-.502zm-9.412.404a3.878 3.878 0 0 0-2.96 1.373 7.755 7.755 0 0 0-.002.001 7.755 7.755 0 0 0-.916 3.644 7.755 7.755 0 0 0 7.756 7.755 7.755 7.755 0 0 0 7.755-7.755 7.755 7.755 0 0 0-.904-3.623 3.878 3.878 0 0 0 0-.001 3.878 3.878 0 0 0-2.974-1.394A3.878 3.878 0 0 0-29.538 7.7a3.878 3.878 0 0 0 .011.228h-.02a3.878 3.878 0 0 0 .008-.228 3.878 3.878 0 0 0-3.877-3.878zm10.728 1.394a7.755 7.755 0 0 0-.388-.655 7.755 7.755 0 0 1 .388.655zm-.821-1.243a7.755 7.755 0 0 1 .426.576 7.755 7.755 0 0 0-.426-.576z" fill="#f59d56"/><path d="M-29.538 1.084a7.755 7.755 0 0 0-6.84 4.111 3.878 3.878 0 0 1 2.962-1.374A3.878 3.878 0 0 1-29.538 7.7a3.878 3.878 0 0 1 3.877-3.878 3.878 3.878 0 0 1 2.974 1.395 7.755 7.755 0 0 0-6.851-4.132zm0 6.615a3.878 3.878 0 0 1-.008.228h.02a3.878 3.878 0 0 1-.012-.228z" fill="#b3733f"/><circle r="1.41" cy="8.839" cx="-32.359" fill="#3f3f3f"/><circle cx="-26.718" cy="8.839" r="1.41" fill="#3f3f3f"/><path d="M-33.056 12.358a.705.705 0 0 0-.467 1.246s1.752 1.58 3.984 1.58c2.233 0 3.985-1.58 3.985-1.58a.705.705 0 1 0-.918-1.07s-1.54 1.24-3.067 1.24c-1.527 0-3.065-1.24-3.065-1.24a.705.705 0 0 0-.452-.176z" style="line-height:normal;font-variant-ligatures:normal;font-variant-position:normal;font-variant-caps:normal;font-variant-numeric:normal;font-variant-alternates:normal;font-feature-settings:normal;text-indent:0;text-align:start;text-decoration-line:none;text-decoration-style:solid;text-decoration-color:#000;text-transform:none;text-orientation:mixed;white-space:normal;shape-padding:0;isolation:auto;mix-blend-mode:normal;solid-color:#000;solid-opacity:1" color="#000" font-weight="400" font-family="sans-serif" overflow="visible" fill="#3f3f3f"/></g></svg>