<svg xmlns="http://www.w3.org/2000/svg" width="32" height="32"><g transform="matrix(.65924 0 0 .65925 .416 -163.904)"><path d="M44.978 272.042H2.387v13.633a8.399 8.399 0 0 0 8.418 8.418H36.56a8.399 8.399 0 0 0 8.418-8.418z" fill="#334d5c" fill-rule="evenodd"/><path d="M44.978 264.114H2.387v7.928h42.59z" fill="#d07e34" fill-rule="evenodd"/><path d="M10.805 251.502a8.399 8.399 0 0 0-8.418 8.418v4.194h42.59v-4.194a8.399 8.399 0 0 0-8.417-8.418z" fill="gray" fill-rule="evenodd"/><path d="M44.978 270.869H2.387v14.995a8.399 8.399 0 0 0 8.418 8.418h25.752a8.401 8.401 0 0 0 8.42-8.418z" fill="#eaad43" fill-rule="evenodd"/><circle r="1.548" cy="275.919" cx="11.654" fill="#cb7f2c" fill-rule="evenodd"/><circle r="1.548" cy="275.944" cx="36.45" fill="#cb7f2c" fill-rule="evenodd"/><path d="M11.748 275.568a.92.92 0 0 0-.935.995c.602 9.289 7.026 13.804 13.369 13.578 6.342-.227 12.632-5.107 13.086-13.59a.92.92 0 1 0-1.838-.098c-.408 7.63-5.85 11.653-11.313 11.848-5.462.195-10.916-3.347-11.469-11.858a.92.92 0 0 0-.9-.875z" style="line-height:normal;font-variant-ligatures:normal;font-variant-position:normal;font-variant-caps:normal;font-variant-numeric:normal;font-variant-alternates:normal;font-feature-settings:normal;text-indent:0;text-align:start;text-decoration-line:none;text-decoration-style:solid;text-decoration-color:#000;text-transform:none;text-orientation:mixed;white-space:normal;shape-padding:0;isolation:auto;mix-blend-mode:normal;solid-color:#000;solid-opacity:1" color="#000" font-weight="400" font-family="sans-serif" overflow="visible" fill="#fff"/></g></svg>