<svg xmlns="http://www.w3.org/2000/svg" height="32" width="32"><rect width="28.203" height="28.203" x="1.898" y="1.898" ry="5.575" fill="#8e8e8e" fill-rule="evenodd"/><path d="M7.229 27.163h17.542V19.19H7.229z" fill="#b7b7b7"/><path fill="#666" d="M9.621 25.568h3.189v-2.392H9.621zM19.189 25.568h3.189v-2.392h-3.189z"/><path d="M16 4.837A11.163 11.163 0 0 0 4.837 16a11.163 11.163 0 0 0 1.09 4.784h20.144A11.163 11.163 0 0 0 27.163 16 11.163 11.163 0 0 0 16 4.837z" fill="#5161a2"/><path d="M18.79 7.229a3.588 3.588 0 0 0-3.587 3.588v1.994h-1.994a3.588 3.588 0 1 0 3.588 3.588v-1.994h1.994a3.588 3.588 0 0 0 0-7.176zm0 1.595a1.993 1.993 0 0 1 0 3.987h-1.586c-.185 0-.407 0-.407-.438v-1.556c0-1.1.893-1.993 1.994-1.993zm-5.58 5.581h1.586c.185 0 .407 0 .407.438v1.556a1.993 1.993 0 1 1-1.994-1.994z" fill="#fff" fill-opacity=".454"/><path d="M18.79 7.229a3.588 3.588 0 0 0-3.587 3.588v1.994h-1.994a.797.797 0 0 0-.08.003.797.797 0 0 0-.717.794.797.797 0 0 0 .797.797h1.587c.185 0 .407 0 .407.438v1.556c0 1.1-.893 1.993-1.994 1.993-.306 0-.592-.074-.852-.198a.796.796 0 0 0-.344-.08.797.797 0 0 0-.357 1.508v.007c.47.227.996.358 1.553.358a3.588 3.588 0 0 0 3.588-3.588v-1.994h1.595a.797.797 0 0 0 .797-.797.797.797 0 0 0-.797-.797h-1.188c-.185 0-.407 0-.407-.438v-1.556c0-1.1.893-1.993 1.994-1.993.2 0 .39.039.574.094l-.001-.007a.797.797 0 0 0 .99-.985l.003-.036c-.006-.01-.019-.021-.026-.032a.797.797 0 0 0-.592-.494l-.017-.009a3.583 3.583 0 0 0-.931-.126z" fill="#fff"/></svg>