<svg xmlns="http://www.w3.org/2000/svg" width="32" height="32" version="1"><rect width="28.203" height="28.203" x="1.898" y="1.898" ry="5.575" fill="#fbba22" fill-rule="evenodd"/><path d="M11.843 5.11a6.424 9.448 0 0 0-6.424 9.448 6.424 9.448 0 0 0 6.424 9.447 6.424 9.448 0 0 0 4.153-2.252 6.424 9.448 0 0 0 4.161 2.252 6.424 9.448 0 0 0 6.424-9.447 6.424 9.448 0 0 0-6.424-9.448 6.424 9.448 0 0 0-4.153 2.253 6.424 9.448 0 0 0-4.161-2.253z" fill="#fff"/><path d="M7.308 24.383s3.932-.756 8.692-.756 8.692.756 8.692.756" fill="none" stroke="#ea8504" stroke-width="5" stroke-linecap="round" stroke-linejoin="round"/><path d="M11.794 8.133c-.466 0-1.263.28-1.998 1.413-.736 1.133-1.326 2.995-1.326 5.109s.59 3.976 1.326 5.11c.343.528.759 1.145 1.092 1.474a55.194 55.194 0 0 1 3.6-.229v-9.731a7.559 7.559 0 0 0-.847-1.733c-.735-1.133-1.38-1.413-1.847-1.413zm8.462 0c-.466 0-1.112.28-1.847 1.413-.301.464-.675 1.057-.897 1.733v9.731c1.334.041 2.571.128 3.643.233.334-.327.753-.946 1.098-1.479.735-1.133 1.327-2.995 1.327-5.109s-.592-3.976-1.327-5.11c-.735-1.132-1.53-1.412-1.997-1.412z" fill="#fbba22"/></svg>