<svg xmlns="http://www.w3.org/2000/svg" height="32" width="32" version="1"><rect width="28.203" height="28.203" x="1.898" y="1.898" ry="5.575" fill="#e45f0a" fill-rule="evenodd"/><path d="M29.979 6.857c-.319-2.782-2.581-4.959-5.452-4.959H11.322c-.726.595-1.443 1.214-2.056 1.938A15.36 15.36 0 0 0 7.314 6.75a13.525 13.525 0 0 0-1.183 3.256 11.38 11.38 0 0 0-.238 3.418 9.98 9.98 0 0 0 .851 3.205 10.228 10.228 0 0 0 1.854 2.805c.76.808 1.64 1.457 2.611 1.87a6.245 6.245 0 0 0 3.164.471 5.169 5.169 0 0 0 1.805-.527 4.31 4.31 0 0 0 1.369-1.094c.369-.448.643-.977.803-1.57a5.01 5.01 0 0 0 .109-1.959c-.003-.007.003-.02 0-.027-.072-.194-.207-.328-.39-.442-.202-.124-.482-.195-.78-.234a3.035 3.035 0 0 0-.365-.026l-.156.545c-.168.633-.688 1.277-1.457 1.694-.385.208-.843.35-1.336.379a3.222 3.222 0 0 1-1.551-.303l-.028-.025c-.649-.373-1.244-.953-1.734-1.67a7.748 7.748 0 0 1-1.101-2.495 7 7 0 0 1-.116-2.888 6.223 6.223 0 0 1 1.285-2.834c.665-.83 1.375-1.54 2.116-2.139a11.946 11.946 0 0 1 2.308-1.469 11.46 11.46 0 0 1 2.44-.855 12.024 12.024 0 0 1 2.504-.297c1.675-.025 3.35.27 4.955.805a19.182 19.182 0 0 1 4.54 2.238c.133.088.257.184.386.275z" fill="#94c3e4" fill-rule="evenodd"/><path d="M2.03 25.174c.332 2.766 2.584 4.928 5.443 4.928h13.22c.724-.595 1.436-1.214 2.047-1.936a15.383 15.383 0 0 0 1.948-2.908 13.507 13.507 0 0 0 1.181-3.248c.247-1.12.336-2.266.238-3.408a9.97 9.97 0 0 0-.851-3.204 10.24 10.24 0 0 0-1.854-2.806c-.76-.808-1.64-1.46-2.611-1.881a6.186 6.186 0 0 0-3.164-.486 5.184 5.184 0 0 0-1.813.533 4.39 4.39 0 0 0-1.363 1.08 3.997 3.997 0 0 0-.79 1.502 4.804 4.804 0 0 0-.12 1.906c.137.456.576.701 1.17.807.116.02.246.044.365.05l.156-.519c.168-.633.688-1.275 1.457-1.691a3.212 3.212 0 0 1 2.89-.079h.025c.649.373 1.244.96 1.734 1.684s.874 1.585 1.101 2.506c.228.92.288 1.91.116 2.89a6.223 6.223 0 0 1-1.285 2.835 13.9 13.9 0 0 1-2.116 2.138 11.948 11.948 0 0 1-2.308 1.469c-.795.384-1.612.666-2.44.855-.827.19-1.666.287-2.504.3-1.675.024-3.35-.271-4.955-.805a19.181 19.181 0 0 1-4.54-2.24c-.13-.087-.251-.182-.378-.272z" fill="#94c3e4" fill-rule="evenodd"/><path d="M2.03 25.174c.126.09.246.185.376.271 1.4.932 2.936 1.706 4.541 2.24 1.606.535 3.28.83 4.955.805.838-.012 1.677-.11 2.504-.299.828-.189 1.645-.47 2.44-.855.795-.385 1.567-.87 2.308-1.469a13.9 13.9 0 0 0 2.116-2.138 6.223 6.223 0 0 0 1.285-2.834c.172-.98.112-1.97-.116-2.891a7.874 7.874 0 0 0-1.101-2.506c-.49-.724-1.085-1.31-1.734-1.684h-.026a3.212 3.212 0 0 0-2.889.078c-.769.417-1.29 1.06-1.457 1.692l-.156.52c-.12-.007-.25-.03-.365-.051-.594-.106-1.033-.351-1.17-.807-.088-.7-.04-1.337.12-1.906.158-.57.429-1.07.79-1.502a4.39 4.39 0 0 1 1.363-1.08 5.184 5.184 0 0 1 1.813-.533 6.186 6.186 0 0 1 3.164.486c.972.42 1.851 1.073 2.611 1.88a10.24 10.24 0 0 1 1.854 2.807 9.97 9.97 0 0 1 .851 3.204c.098 1.142.009 2.289-.238 3.408a13.507 13.507 0 0 1-1.181 3.248 15.383 15.383 0 0 1-1.948 2.908c-.611.722-1.323 1.341-2.047 1.936h3.834a5.561 5.561 0 0 0 5.575-5.575V7.473c0-.219-.1-.404-.123-.616-.13-.091-.253-.187-.385-.275a19.182 19.182 0 0 0-4.541-2.238c-1.606-.534-3.28-.83-4.955-.805-.838.012-1.677.108-2.504.297a11.46 11.46 0 0 0-2.44.855c-.795.385-1.567.871-2.308 1.47-.741.597-1.45 1.307-2.116 2.138a6.223 6.223 0 0 0-1.285 2.834 7 7 0 0 0 .116 2.888c.227.921.611 1.777 1.101 2.495.49.717 1.085 1.297 1.734 1.67l.028.025c.53.245 1.057.331 1.55.303.494-.029.952-.171 1.337-.38.769-.416 1.29-1.06 1.457-1.693l.156-.545c.125.002.242.01.365.026.298.039.578.11.78.234.183.114.318.248.39.442.003.006-.003.02 0 .027a5.01 5.01 0 0 1-.11 1.959 4.154 4.154 0 0 1-.802 1.57 4.31 4.31 0 0 1-1.37 1.094 5.169 5.169 0 0 1-1.804.527 6.245 6.245 0 0 1-3.164-.47c-.972-.414-1.851-1.063-2.611-1.871a10.228 10.228 0 0 1-1.854-2.805 9.98 9.98 0 0 1-.851-3.205 11.38 11.38 0 0 1 .238-3.418A13.525 13.525 0 0 1 7.314 6.75a15.36 15.36 0 0 1 1.952-2.914c.613-.724 1.33-1.343 2.056-1.938h-3.85a5.561 5.561 0 0 0-5.574 5.575v17.054c0 .23.105.425.131.647z" fill="#e45f0a" fill-rule="evenodd"/></svg>