<svg xmlns="http://www.w3.org/2000/svg" height="32" viewBox="-2.01 0.002 32 32" width="32"><rect width="28.203" height="28.203" x="-.112" y="1.9" ry="5.575" fill="#5f81d4" fill-rule="evenodd"/><g transform="translate(44.084 -.671)"><circle cy="16.673" r="6.485" cx="-26.041" fill="#fff"/><circle cy="12.215" r="6.891" cx="-33.742" fill="#fff"/><circle cy="21.132" r="6.891" cx="-33.742" fill="#fff"/><circle cy="16.673" r="4.053" cx="-36.579" fill="#dce8e0"/><circle cy="20.727" r="4.053" cx="-29.283" fill="#dce8e0"/><circle cy="12.62" r="4.053" cx="-29.283" fill="#dce8e0"/><path d="M-36.315 8.612c.28-.137.547.082.547.082l6.395 3.728 6.183 3.608s.392.189.392.639a.644.644 0 0 1-.395.598l-6.194 3.608-6.54 3.81s-.19.166-.436.059c-.28-.123-.208-.436-.208-.436V9.113s-.03-.36.256-.5z" fill="#ffbf00"/></g></svg>