<svg xmlns="http://www.w3.org/2000/svg" height="32" width="32"><rect width="28.203" height="28.203" x="1.898" y="1.898" ry="5.575" fill="#be212e" fill-rule="evenodd"/><path d="M10.348 8.502c-.87.027-1.712.43-2.356 1.039-.654.619-1.123 1.47-1.219 2.385-.047.457 0 .925.145 1.359.146.434.393.834.72 1.143.387.364.871.594 1.315.879.222.142.435.3.62.494.183.192.337.42.421.678.075.228.092.474.06.712-.035.239-.12.47-.243.674a2.105 2.105 0 0 1-1.086.864c-.509.184-1.069.193-1.559.425a2.036 2.036 0 0 0-.918.893 2.26 2.26 0 0 0-.234 1.287c.058.517.297 1.008.654 1.373.357.365.83.603 1.324.682a2.37 2.37 0 0 0 2.03-.657 2.338 2.338 0 0 0 .639-2.091c-.057-.286-.165-.557-.266-.83-.102-.27-.199-.548-.223-.838a1.978 1.978 0 0 1 .473-1.42 2.36 2.36 0 0 1 1.27-.752c.311-.073.635-.09.95-.033.315.056.62.185.875.384.255.2.46.47.572.782.114.31.134.66.043.978-.092.326-.29.607-.492.875-.2.268-.413.537-.533.854a1.876 1.876 0 0 0-.055 1.105c.091.363.281.695.532.965.277.299.628.522 1.01.644.381.123.77.145 1.17.145.398 0 .815-.022 1.197-.145a2.366 2.366 0 0 0 1.01-.644c.25-.27.44-.602.531-.965.09-.363.077-.756-.055-1.105-.12-.317-.332-.586-.533-.854-.202-.268-.4-.55-.492-.875a1.596 1.596 0 0 1 .043-.978 1.77 1.77 0 0 1 .572-.782c.255-.2.56-.328.875-.384.315-.057.64-.04.951.033a2.36 2.36 0 0 1 1.27.752c.327.386.515.907.472 1.42-.024.29-.12.568-.223.839-.1.272-.209.543-.265.829a2.338 2.338 0 0 0 .64 2.09 2.37 2.37 0 0 0 2.028.658 2.389 2.389 0 0 0 1.324-.682c.357-.365.596-.856.654-1.373.05-.44-.03-.898-.234-1.287a2.038 2.038 0 0 0-.918-.893c-.49-.232-1.05-.241-1.559-.425a2.109 2.109 0 0 1-1.086-.864 1.806 1.806 0 0 1-.242-.674 1.59 1.59 0 0 1 .06-.712c.083-.257.237-.486.421-.678a3.3 3.3 0 0 1 .62-.494c.443-.285.927-.515 1.313-.88a2.8 2.8 0 0 0 .721-1.142 3.24 3.24 0 0 0 .145-1.36c-.095-.914-.565-1.765-1.219-2.384-.644-.61-1.485-1.012-2.356-1.04a2.937 2.937 0 0 0-1.273.241c-.4.176-.766.45-1.043.799-.318.4-.518.885-.7 1.367-.184.483-.357.977-.634 1.408-.457.712-1.179 1.387-2.002 1.387-.823 0-1.545-.675-2.002-1.387-.277-.431-.45-.925-.633-1.408-.183-.482-.383-.967-.7-1.367a2.745 2.745 0 0 0-1.044-.799 2.937 2.937 0 0 0-1.273-.24zM16 14.5a1 1 0 0 1 1 1 1 1 0 0 1-1 1 1 1 0 0 1-1-1 1 1 0 0 1 1-1z" fill="#fff"/></svg>