<svg xmlns="http://www.w3.org/2000/svg" height="32" width="32" version="1"><rect width="28.203" height="28.203" x="1.898" y="1.898" ry="5.575" fill="maroon" fill-rule="evenodd"/><path d="M14.047 6.459a.49.49 0 0 0-.418.387l-.402 2.043a7.682 7.682 0 0 0-1.998 1.148l-1.983-.672a.492.492 0 0 0-.566.21l-1.909 3.31a.491.491 0 0 0 .104.595l1.582 1.387c-.056.372-.09.746-.09 1.133s.034.761.09 1.133L6.875 18.52a.494.494 0 0 0-.104.597l1.909 3.309c.11.187.36.28.566.209l1.983-.672a7.684 7.684 0 0 0 1.998 1.148l.402 2.043c.04.214.245.384.463.387h3.816a.492.492 0 0 0 .463-.387l.402-2.043a7.682 7.682 0 0 0 1.998-1.148l1.983.672a.492.492 0 0 0 .566-.21l1.909-3.308a.494.494 0 0 0-.104-.597l-1.582-1.387c.056-.372.09-.746.09-1.133s-.034-.761-.09-1.133l1.582-1.387a.491.491 0 0 0 .104-.595l-1.909-3.31a.492.492 0 0 0-.566-.21l-1.983.672a7.684 7.684 0 0 0-1.998-1.148l-.402-2.043a.492.492 0 0 0-.463-.387H14.047zM16 11.91a4.09 4.09 0 1 1 0 8.18 4.09 4.09 0 0 1 0-8.18z" fill="#fff"/></svg>