<svg xmlns="http://www.w3.org/2000/svg" width="32" height="32" version="1"><path d="M7.473 1.898a5.561 5.561 0 0 0-5.575 5.575v17.054a5.561 5.561 0 0 0 5.575 5.575h17.054a5.561 5.561 0 0 0 5.575-5.575V7.473c0-.05-.027-.09-.028-.139-.077-3.02-2.507-5.436-5.547-5.436H7.473z" fill="#666" fill-rule="evenodd"/><path d="M24.321 12.187C16.609 9.909 10.076 9.5 5.743 16.112c-.62 1.039.242 1.317.61 2.215 4.263 4.072 15.426 2.127 12.008 2.503 2.696-.965 3.655-3.913 4.008-7.563z" fill="#f2f2f2"/><circle cx="13" cy="14.674" r="5.08" fill="#73a747"/><path d="M5.632 18.395c4.587-8.097 16.284-6.68 19.748-5.295l-7.507-9.137-14.921 10.3z" fill="#666"/><circle cx="13" cy="14.674" r="1.72" fill="#060905"/><circle cx="11.756" cy="13.661" r=".733" fill="#fff"/><path d="M17.299 11.275c-3.977-.037-9.106 1.308-11.643 6.67 5.891 5.612 17.772 5.633 16.973-4.246 3.315.306 4.415-1.004 6.451-1.63-3.046 1.06-4.29.959-7.426-.133-.98-.342-2.548-.644-4.355-.66zm-1.21 1.14c1.785-.079 3.7.206 5.655.939.435 12.381-14.832 6.25-15.203 4.238l-.014.006C7.915 15 11.585 12.61 16.09 12.414z"/></svg>