<svg xmlns="http://www.w3.org/2000/svg" width="32" height="32"><rect width="28.203" height="28.203" x="1.898" y="1.898" ry="5.575" fill="#8e8e8e" fill-rule="evenodd"/><path d="M29.676 26.64a5.567 5.567 0 0 0 .426-2.113V7.473a5.561 5.561 0 0 0-5.575-5.575H22.23c.138.074.319.076.424.196.232.262.39.621.496 1.004l6.526 23.543zM9.77 1.898H7.473a5.561 5.561 0 0 0-5.575 5.575v17.054c0 .751.16 1.461.426 2.114L8.85 3.098c.106-.383.264-.742.496-1.004.105-.12.286-.122.424-.196z" fill="#8e8e8e" fill-rule="evenodd"/><path d="M13.068 1.898H9.77c-.138.074-.319.076-.424.196-.232.262-.39.621-.496 1.004L2.324 26.64a5.549 5.549 0 0 0 5.149 3.46h17.054a5.549 5.549 0 0 0 5.149-3.46L23.15 3.098c-.106-.383-.264-.742-.496-1.004-.105-.12-.286-.122-.424-.196h-3.298L16 6.785l-2.932-4.887z" fill="#3cb2d4" fill-rule="evenodd"/><path d="M13.068 1.898L16 6.785l2.932-4.887h-5.864z" fill="#fff" fill-rule="evenodd"/><circle cy="24.192" cx="16" r="4.096" fill="#fff"/><rect ry="1.67" rx="1.478" transform="rotate(30)" height="21.503" width="3.072" y="-7.044" x="24.379" fill="#febe43"/></svg>