<svg xmlns="http://www.w3.org/2000/svg" height="32" width="32" version="1"><rect width="28.203" height="28.203" x="1.898" y="1.898" ry="5.575" fill="#ccc" fill-rule="evenodd"/><g transform="translate(0 -.5)"><rect x="9" y="7" width="14" height="8" ry="0" rx="0" fill="#4d4d4d" fill-rule="evenodd"/><path d="M9.8 19c-.388 0-.7.312-.7.7v1.4H7.7c-.388 0-.7.312-.7.7v1.4c0 .388.312.7.7.7h1.4v1.4c0 .388.312.7.7.7h1.4c.388 0 .7-.312.7-.7v-1.4h1.4c.388 0 .7-.312.7-.7v-1.4c0-.388-.312-.7-.7-.7h-1.4v-1.4c0-.388-.312-.7-.7-.7H9.8z" fill="#4f4f4f"/><g transform="translate(-1 7)"><circle r="1.5" cx="24.5" cy="13.5" fill="#ef5646"/><circle r="1.5" cx="20.5" cy="13.5" fill="#ef5646"/><circle r="1.5" cx="24.5" cy="17.5" fill="#eb9200"/><circle r="1.5" cx="20.5" cy="17.5" fill="#eb9200"/></g></g></svg>