<svg xmlns="http://www.w3.org/2000/svg" height="32" width="32" version="1"><rect width="28.203" height="28.203" x="1.898" y="1.898" ry="5.575" fill="#6b6b6b" fill-rule="evenodd"/><path d="M8.854 30.102v-6.956H1.898v1.381a5.561 5.561 0 0 0 5.575 5.575h1.38z" fill="#785439" fill-rule="evenodd"/><path d="M16 30.102v-6.956H8.854v6.956H16z" fill="#583c28" fill-rule="evenodd"/><path d="M23.146 30.102v-6.956H16v6.956h7.146z" fill="#b8845b" fill-rule="evenodd"/><path d="M30.102 23.146h-6.956v6.956h1.381a5.561 5.561 0 0 0 5.575-5.575v-1.38z" fill="#956b49" fill-rule="evenodd"/><path d="M8.854 23.146V16H1.898v7.146h6.956z" fill="#785439" fill-rule="evenodd"/><path d="M23.146 23.146V16H16v7.146h7.146z" fill="#6b6b6b" fill-rule="evenodd"/><path d="M30.102 16h-6.956v7.146h6.956V16z" fill="#9bca6b" fill-rule="evenodd"/><path d="M30.102 8.854h-6.956V16h6.956V8.854z" fill="#72b248" fill-rule="evenodd"/><path d="M23.146 8.854H16V16h7.146V8.854zM16 16H8.854v7.146H16V16z" fill="#956b49" fill-rule="evenodd"/><path d="M16 8.854H8.854V16H16V8.854z" fill="#9bca6b" fill-rule="evenodd"/><path d="M23.146 1.898v6.956h6.956V7.473a5.561 5.561 0 0 0-5.575-5.575h-1.38z" fill="#60a036" fill-rule="evenodd"/><path d="M16 1.898H8.854v6.956H16V1.898z" fill="#72b248" fill-rule="evenodd"/><path d="M16 1.898v6.956h7.146V1.898H16z" fill="#56962c" fill-rule="evenodd"/><path d="M1.898 8.854V16h6.956V8.854H1.898z" fill="#583c28" fill-rule="evenodd"/><path d="M1.898 8.854h6.956V1.898H7.473a5.561 5.561 0 0 0-5.575 5.575v1.38z" fill="#56962c" fill-rule="evenodd"/></svg>