<svg xmlns="http://www.w3.org/2000/svg" width="32" height="32"><rect width="28.203" height="28.203" x="1.898" y="1.898" ry="5.575" fill="#02864f" fill-rule="evenodd"/><path d="M15.953 13.864c-.331.007-.638.056-1 .258l-8.139 4.546c-.362.203-.741.585-.783 1.159-.042.574.383 1.116.779 1.338l8.147 4.55c.396.221.76.264 1.09.256.331-.007.638-.056 1-.258l8.139-4.546c.362-.202.741-.584.783-1.159.042-.574-.383-1.116-.779-1.338l-8.147-4.55a2.04 2.04 0 0 0-1.09-.256z" fill="#fff"/><path d="M11.726 15.288h2.85v3.917l-1.425 1.069-1.425-1.069z" fill="#a0722e"/><path d="M13.18 6.028a1.265 1.215 0 0 0-.661.162L8.797 8.254a1.265 1.215 0 0 0-.632 1.052v4.128a1.265 1.215 0 0 0 .632 1.052l3.721 2.064a1.265 1.215 0 0 0 1.265 0l3.721-2.064a1.265 1.215 0 0 0 .633-1.052V9.306a1.265 1.215 0 0 0-.633-1.052l-3.72-2.064a1.265 1.215 0 0 0-.603-.162z" fill="#74ba2f"/></svg>