<svg xmlns="http://www.w3.org/2000/svg" height="32" width="32" version="1"><rect width="28.203" height="28.203" x="1.898" y="1.898" ry="5.575" fill="#dd4545" fill-rule="evenodd"/><g transform="translate(38.885 -.336)"><path d="M-15.385 16.336c0-8.308-3.333-9-10-9-6.666 0-10 .692-10 9s3.334 9 10 9c6.667 0 10-.692 10-9zM-14.385 20.336v1h4v-1zM-14.385 22.336v1h4v-1zM-14.385 24.336v1h4v-1z" fill="#323232"/><circle r="2" cx="-12.385" cy="11.336" fill="#c7c7c7"/><circle r="2" cx="-12.385" cy="16.336" fill="#c7c7c7"/><path d="M-20.385 16.335l-4 2.5-4 2.5v-10l4 2.5z" fill="#c7c7c7"/></g></svg>