<svg xmlns="http://www.w3.org/2000/svg" height="32" width="32"><defs><linearGradient id="a" y2="4.001" gradientUnits="userSpaceOnUse" y1="92.001" gradientTransform="matrix(.36866 0 0 .37037 -.793 -1.778)" x2="56" x1="56"><stop stop-color="#f2f2f2" offset="0"/><stop stop-color="#fff" offset="1"/></linearGradient></defs><rect width="28.203" height="28.203" x="1.898" y="1.898" ry="5.575" fill="#7ec242" fill-rule="evenodd"/><path d="M4 6v5.926h2.95v6.736c0 4.062 3.26 7.338 7.303 7.338h12.604V13.338c0-4.062-3.26-7.338-7.304-7.338zm1.475 1.481h14.078c3.252 0 5.83 2.59 5.83 5.857v11.18h-11.13c-3.251 0-5.829-2.59-5.829-5.856v-6.736c0-.776-.703-1.482-1.475-1.482H5.475z" fill="url(#a)" transform="matrix(.90508 0 0 .90508 2.036 1.519)"/><path d="M11.662 9.63v9.387a2.67 2.67 0 0 0 2.67 2.682h6.006a2.67 2.67 0 0 0 2.67-2.682v-5.028a2.341 2.341 0 0 0-2.337-2.347 2.32 2.32 0 0 0-1.668.713 2.32 2.32 0 0 0-1.668-.713 2.341 2.341 0 0 0-2.336 2.347v4.022h1.335V13.99c0-.556.448-1.006 1-1.006.554 0 1.002.45 1.002 1.006v4.022h1.334V13.99c0-.556.449-1.006 1.001-1.006.553 0 1.001.45 1.001 1.006v5.028c0 .743-.595 1.34-1.334 1.34h-6.006c-.74 0-1.335-.597-1.335-1.34V9.63z" fill="#fff"/></svg>