<svg xmlns="http://www.w3.org/2000/svg" height="32" width="32" version="1"><g fill-rule="evenodd"><path d="M16 1.898H7.475a5.563 5.563 0 0 0-5.577 5.575v17.052a5.565 5.565 0 0 0 5.577 5.577H16z" fill="#2867ab"/><path d="M16 1.898v28.204h8.527a5.563 5.563 0 0 0 5.575-5.577V7.473a5.561 5.561 0 0 0-5.575-5.575z" fill="#77b1e3"/></g><path d="M9.91 7.76c-5.853 8.26.576 15.21 5.921 16.544 7.948-2.115 10.25-10.888 5.923-16.544-2.33 1.218-4.232 1.085-5.794-.064-2.055 1.496-4.055.865-6.05.064z" fill="silver"/><path d="M15.916 12.233a2.28 2.28 0 0 0-2.28 2.28 2.28 2.28 0 0 0 1.134 1.966v2.14a1.145 1.145 0 1 0 2.293 0v-2.14a2.28 2.28 0 0 0 1.132-1.966 2.28 2.28 0 0 0-2.279-2.28z" fill="#1e3151"/></svg>