<svg xmlns="http://www.w3.org/2000/svg" height="32" width="32" version="1"><rect width="28.203" height="28.203" x="1.898" y="1.898" ry="5.575" fill="#8e8e8e" fill-rule="evenodd"/><g fill-rule="evenodd"><path d="M24.832 1.959v14.488c0 .624.3 1.127.672 1.127h1.375c.372 0 .67-.503.67-1.127V2.907c-.799-.53-1.698-.89-2.717-.948zM20.756 1.898v14.55c0 .623.3 1.126.672 1.126h1.375c.372 0 .67-.503.67-1.127V1.898zM16.68 1.898v14.55c0 .623.3 1.126.672 1.126h1.373c.372 0 .671-.503.671-1.127V1.898zM8.525 1.898v14.55c0 .623.3 1.126.672 1.126h1.375c.373 0 .672-.503.672-1.127V1.898z" fill="#4f4f4f"/><path d="M26.191 17.574v12.194c2.256-.714 3.91-2.743 3.91-5.24V7.472c0-1.947-1.048-3.57-2.552-4.567v13.541c0 .624-.298 1.127-.67 1.127z" fill="#a860a2"/><path d="M22.115 17.574v12.528h2.412c.591 0 1.13-.166 1.664-.334V17.574h-.687c-.372 0-.672-.503-.672-1.127V1.96c-.107-.006-.196-.06-.305-.06h-1.054v14.548c0 .624-.298 1.127-.67 1.127z" fill="#476eb9"/><path d="M18.04 17.574v12.528h4.075V17.574h-.687c-.373 0-.672-.503-.672-1.127V1.898h-1.36v14.55c0 .623-.3 1.126-.671 1.126z" fill="#4cb094"/><path d="M13.96 1.898v28.204h4.08V17.574h-.688c-.373 0-.672-.503-.672-1.127V1.898z" fill="#40a95d"/><path d="M9.885 17.574v12.528h4.076V1.898h-2.717v14.55c0 .623-.3 1.126-.672 1.126z" fill="#ecb554"/><path d="M5.809 17.574v12.194c.533.168 1.073.334 1.664.334h2.412V17.574h-.688c-.372 0-.672-.503-.672-1.127V1.898H7.473c-.109 0-.198.055-.305.061v14.488c0 .624-.3 1.127-.672 1.127z" fill="#eb8644"/><path d="M5.809 29.768V17.574h-.686c-.373 0-.674-.503-.674-1.127V2.908C2.946 3.905 1.9 5.527 1.9 7.473v17.054c0 2.498 1.654 4.527 3.91 5.24z" fill="#da6156"/><path d="M4.45 2.908v13.54c0 .623.3 1.126.673 1.126h1.373c.373 0 .672-.503.672-1.127V1.96c-1.02.058-1.92.42-2.719.95z" fill="#4f4f4f"/></g></svg>