<svg xmlns="http://www.w3.org/2000/svg" height="32" width="32" version="1"><path d="M29.908 25.484c-.859-.516-1.66-1.092-2.613-1.502a27.091 27.091 0 0 0-5.186-1.613 30.483 30.483 0 0 0-5.56-.621 29.48 29.48 0 0 0-5.578.414c-1.824.315-3.59.81-5.244 1.49-1.303.536-2.46 1.281-3.592 2.051.523 2.371 2.463 4.141 4.949 4.32h17.832c2.562-.184 4.549-2.06 4.992-4.539z" fill="#eed83e" fill-rule="evenodd"/><path d="M7.473 1.898a5.561 5.561 0 0 0-5.575 5.575v17.054c0 .418.15.785.237 1.176 1.132-.77 2.29-1.515 3.592-2.05a24.972 24.972 0 0 1 5.244-1.49 29.48 29.48 0 0 1 5.578-.415c1.876.037 3.75.247 5.56.621 1.81.375 3.558.915 5.186 1.613.953.41 1.754.986 2.613 1.502.058-.323.194-.617.194-.957V7.473a5.561 5.561 0 0 0-5.575-5.575H7.473z" fill="#434750" fill-rule="evenodd"/><path fill="#c37700" d="M14.544 10.872h3.483v14.077h-3.483z"/><path d="M6.272 16.435c.682-12.9 19.765-11.665 19.495.436-1.443-1.766-2.65-3.862-4.692-4.79.27 2.215-.527 4.126-1.113 6.096-1.242-1.963-2.483-3.606-3.725-4.16-1.682 1.008-3.152 2.335-4.063 4.498-1.636-3.684-1.2-4.625-1.016-6.192-1.92.894-3.61 2.188-4.886 4.112z" fill="#4e9a06" stroke="#407612" stroke-width=".432"/></svg>