<svg xmlns="http://www.w3.org/2000/svg" version="1" width="32" height="32"><rect width="28.203" height="28.203" x="1.898" y="1.898" ry="5.575" fill="#ccc" fill-rule="evenodd"/><path d="M16 9.028c-2.625 0-4.86 1.607-5.823 3.882-2.444.363-4.318 2.447-4.318 4.992 0 2.8 2.27 5.07 5.07 5.07h10.775a4.437 4.437 0 0 0 4.437-4.437 4.425 4.425 0 0 0-3.922-4.397c-.576-2.907-3.143-5.11-6.219-5.11z" fill="#fff"/><path style="line-height:normal;font-variant-ligatures:normal;font-variant-position:normal;font-variant-caps:normal;font-variant-numeric:normal;font-variant-alternates:normal;font-feature-settings:normal;text-indent:0;text-align:start;text-decoration-line:none;text-decoration-style:solid;text-decoration-color:#000;text-transform:none;text-orientation:mixed;white-space:normal;shape-padding:0;isolation:auto;mix-blend-mode:normal;solid-color:#000;solid-opacity:1" d="M16.93 12.165a.95.95 0 0 0-.429 1.774s1.363.69 1.363 3.038c0 1.169-.374 1.882-.731 2.34-.357.46-.635.601-.635.601a.95.95 0 1 0 .906 1.671s.654-.364 1.23-1.103c.574-.738 1.132-1.913 1.132-3.51 0-3.184-2.29-4.671-2.29-4.671a.95.95 0 0 0-.545-.14z" color="#000" font-weight="400" font-family="sans-serif" overflow="visible" fill="gray"/><path style="line-height:normal;font-variant-ligatures:normal;font-variant-position:normal;font-variant-caps:normal;font-variant-numeric:normal;font-variant-alternates:normal;font-feature-settings:normal;text-indent:0;text-align:start;text-decoration-line:none;text-decoration-style:solid;text-decoration-color:#000;text-transform:none;text-orientation:mixed;white-space:normal;shape-padding:0;isolation:auto;mix-blend-mode:normal;solid-color:#000;solid-opacity:1" d="M13.123 13.46a.95.95 0 0 0-.322 1.84s1.297.512 1.298 1.703c0 1.19-1.254 1.582-1.254 1.582a.95.95 0 1 0 .606 1.802s2.55-.887 2.549-3.384c0-2.498-2.506-3.473-2.506-3.473a.95.95 0 0 0-.371-.07z" color="#000" font-weight="400" font-family="sans-serif" overflow="visible" fill="gray"/></svg>