<svg xmlns="http://www.w3.org/2000/svg" height="32" width="32" version="1"><rect width="28.203" height="28.203" x="1.898" y="1.898" ry="5.575" fill="#333" fill-rule="evenodd"/><path d="M11.79 7.105c-.81 0-1.462.65-1.462 1.46v3.818H6.65a.813.813 0 0 0-.814.814c0 .451.363.815.814.815h3.678v3.818c0 .809.652 1.46 1.461 1.46h8.422c.809 0 1.46-.651 1.46-1.46v-3.818h3.679a.813.813 0 0 0 .814-.815.813.813 0 0 0-.814-.814h-3.678V8.564c0-.808-.652-1.459-1.461-1.459h-8.422z" fill="#fff"/><rect ry="1.46" y="8.228" x="12.603" height="7.356" width="6.794" fill="#333"/><rect ry=".702" y="9.407" x="15.298" height="5.222" width="1.404" fill="#fff"/><g transform="translate(-.196)" fill="#fff"><rect width=".73" height="4.099" x="15.831" y="20.412" ry=".365"/><rect width=".73" height="4.099" x="24.899" y="20.412" ry=".365"/><rect width=".73" height="4.099" x="6.763" y="20.412" ry=".365"/><rect width=".73" height="3.088" x="9.03" y="20.412" ry=".275"/><rect width=".73" height="3.088" x="22.632" y="20.412" ry=".275"/><rect width=".73" height="2.527" x="20.365" y="20.412" ry=".225"/><rect width=".73" height="2.527" x="11.297" y="20.412" ry=".225"/><rect width=".73" height="1.965" x="13.564" y="20.412" ry=".175"/><rect width=".73" height="1.965" x="18.098" y="20.412" ry=".175"/></g></svg>