<svg xmlns="http://www.w3.org/2000/svg" height="32" width="32"><rect width="28.203" height="28.203" x="1.898" y="1.898" ry="5.575" fill="#d75908" fill-rule="evenodd"/><path d="M13.335 16.935c2.975 1.762 3.276 3.115 2.665 4.2-.61 1.086-1.901 1.495-4.876-.269-2.975-1.762-6.339-5.33-6.615-6.541 1.16-.361 5.851.846 8.826 2.61z" fill="#fec8a4"/><path d="M15.738 16.13c1.718 3.053 1.32 4.378.262 5.005-1.058.627-2.375.318-4.092-2.736-1.717-3.053-2.894-7.868-2.542-9.06 1.18.284 4.655 3.737 6.372 6.79z" fill="#fba66f"/><path d="M18.212 16.666c0 3.526-.99 4.47-2.212 4.47-1.221 0-2.211-.944-2.211-4.47s1.327-8.3 2.211-9.151c.885.85 2.212 5.625 2.212 9.15z" fill="#f8863b"/><path d="M20.092 18.4c-1.717 3.053-3.034 3.362-4.092 2.735-1.058-.627-1.456-1.952.262-5.005 1.717-3.054 5.192-6.507 6.372-6.79.352 1.19-.824 6.006-2.542 9.06z" fill="#f76d12"/><path d="M20.876 20.866c-2.975 1.764-4.265 1.355-4.876.27-.61-1.086-.31-2.439 2.665-4.201 2.975-1.764 7.665-2.971 8.826-2.61-.276 1.212-3.64 4.778-6.615 6.541z" fill="#fff"/><path d="M16.383 23.985c-1.09-.085-.776-1.516-.766-2.298" fill="none" stroke="#3aa03d" stroke-linecap="round" stroke-linejoin="bevel"/></svg>