<svg xmlns="http://www.w3.org/2000/svg" width="32" height="32"><rect width="28.203" height="28.203" x="1.898" y="1.898" ry="5.575" fill="#329c32" fill-rule="evenodd"/><path d="M21.789 11.593l-3.739.593c-.187-.476-.358-.804-.512-.985-.148-.188-.396-.375-.744-.563v2.905c2.037.542 3.397 1.115 4.08 1.718.905.811 1.357 1.84 1.357 3.086 0 .73-.164 1.4-.492 2.01a4.808 4.808 0 0 1-1.247 1.528 5.039 5.039 0 0 1-1.608.894c-.57.18-1.266.288-2.09.322V25h-1.467v-1.9c-.985-.087-1.786-.244-2.402-.472a4.994 4.994 0 0 1-1.588-.965 4.776 4.776 0 0 1-1.025-1.316c-.242-.476-.422-.677-.543-1.347l4.06-1c.12.663.282 1.298.483 1.593.207.295.546.556 1.015.784v-3.548c-1.354-.375-2.315-.7-2.885-.975-.562-.274-1.052-.713-1.467-1.316-.415-.61-.623-1.35-.623-2.221 0-1.193.415-2.188 1.246-2.985.838-.804 2.08-1.25 3.729-1.337V7h1.467v.995c1.5.094 2.647.449 3.437 1.065.798.617 1.317 1.46 1.558 2.533zm-6.462-1.005c-.43.14-.727.315-.895.523a1.133 1.133 0 0 0-.251.733c0 .295.084.553.251.774.174.214.472.395.895.543zm1.467 9.89c.57-.128.985-.336 1.246-.624.268-.295.402-.623.402-.985 0-.315-.114-.603-.342-.864-.22-.268-.656-.516-1.306-.744z" fill="#262626"/></svg>