<svg xmlns="http://www.w3.org/2000/svg" height="32" width="32"><rect width="28.203" height="28.203" x="1.898" y="1.898" ry="5.575" fill="#ff7c40" fill-rule="evenodd"/><path d="M19 8a6 2 0 0 0-6 2 6 2 0 0 0 6 2 6 2 0 0 0 6-2 6 2 0 0 0-6-2zm5.803 3.498A6 2 0 0 1 19 13a6 2 0 0 1-5.803-1.498A6 2 0 0 0 13 12a6 2 0 0 0 6 2 6 2 0 0 0 6-2 6 2 0 0 0-.197-.502zm0 2A6 2 0 0 1 19 15a6 2 0 0 1-5.803-1.498A6 2 0 0 0 13 14a6 2 0 0 0 .865 1.03c1.818.088 3.36.442 4.266.947A6 2 0 0 0 19 16a6 2 0 0 0 6-2 6 2 0 0 0-.197-.502zm0 2A6 2 0 0 1 19 17v1a6 2 0 0 0 6-2 6 2 0 0 0-.197-.502zm0 2A6 2 0 0 1 19 19v1a6 2 0 0 0 6-2 6 2 0 0 0-.197-.502zm0 2A6 2 0 0 1 19 21v1a6 2 0 0 0 6-2 6 2 0 0 0-.197-.502zm0 2A6 2 0 0 1 19 23c0 .357-.304.688-.797.979A6 2 0 0 0 19 24a6 2 0 0 0 6-2 6 2 0 0 0-.197-.502z" fill="#d75e32"/><path d="M19 7a6 2 0 0 0-6 2 6 2 0 0 0 6 2 6 2 0 0 0 6-2 6 2 0 0 0-6-2zm5.803 3.498A6 2 0 0 1 19 12a6 2 0 0 1-5.803-1.498A6 2 0 0 0 13 11a6 2 0 0 0 6 2 6 2 0 0 0 6-2 6 2 0 0 0-.197-.502zm0 2A6 2 0 0 1 19 14a6 2 0 0 1-5.803-1.498A6 2 0 0 0 13 13a6 2 0 0 0 .865 1.03c1.818.088 3.36.442 4.266.947A6 2 0 0 0 19 15a6 2 0 0 0 6-2 6 2 0 0 0-.197-.502zm0 2A6 2 0 0 1 19 16v1a6 2 0 0 0 6-2 6 2 0 0 0-.197-.502zm0 2A6 2 0 0 1 19 18v1a6 2 0 0 0 6-2 6 2 0 0 0-.197-.502zm0 2A6 2 0 0 1 19 20v1a6 2 0 0 0 6-2 6 2 0 0 0-.197-.502zm0 2A6 2 0 0 1 19 22c0 .357-.304.688-.797.979A6 2 0 0 0 19 23a6 2 0 0 0 6-2 6 2 0 0 0-.197-.502z" fill="#ffd8c6"/><path d="M13 15a6 2 0 0 0-6 2 6 2 0 0 0 6 2 6 2 0 0 0 6-2 6 2 0 0 0-6-2zm5.803 3.498A6 2 0 0 1 13 20a6 2 0 0 1-5.803-1.498A6 2 0 0 0 7 19a6 2 0 0 0 6 2 6 2 0 0 0 6-2 6 2 0 0 0-.197-.502zm0 2A6 2 0 0 1 13 22a6 2 0 0 1-5.803-1.498A6 2 0 0 0 7 21a6 2 0 0 0 6 2 6 2 0 0 0 6-2 6 2 0 0 0-.197-.502zm0 2A6 2 0 0 1 13 24a6 2 0 0 1-5.803-1.498A6 2 0 0 0 7 23a6 2 0 0 0 6 2 6 2 0 0 0 6-2 6 2 0 0 0-.197-.502z" fill="#d75e32"/><path d="M13 14a6 2 0 0 0-6 2 6 2 0 0 0 6 2 6 2 0 0 0 6-2 6 2 0 0 0-6-2zm5.803 3.498A6 2 0 0 1 13 19a6 2 0 0 1-5.803-1.498A6 2 0 0 0 7 18a6 2 0 0 0 6 2 6 2 0 0 0 6-2 6 2 0 0 0-.197-.502zm0 2A6 2 0 0 1 13 21a6 2 0 0 1-5.803-1.498A6 2 0 0 0 7 20a6 2 0 0 0 6 2 6 2 0 0 0 6-2 6 2 0 0 0-.197-.502zm0 2A6 2 0 0 1 13 23a6 2 0 0 1-5.803-1.498A6 2 0 0 0 7 22a6 2 0 0 0 6 2 6 2 0 0 0 6-2 6 2 0 0 0-.197-.502z" fill="#fff"/></svg>