<svg xmlns="http://www.w3.org/2000/svg" height="32" width="32" version="1"><defs><clipPath id="a"/></defs><rect width="28.203" height="28.203" x="1.898" y="1.898" ry="5.575" fill="#5e6884" fill-rule="evenodd"/><g clip-path="url(#a)" transform="matrix(.66653 0 0 .66708 -.002 .006)"><path d="M14.04 35.926c0-.148 5.01-6.172 5.117-6.148.059.016 2.301.965 4.973 2.113 4.57 1.961 4.875 2.078 4.996 1.914.188-.254.832-1.598 1.172-2.449l.289-.723-.484-.266c-.691-.375-1.703-1.215-2.336-1.938-.578-.66-1.621-2.25-1.621-2.473 0-.074.332.262.738.746 1.137 1.352 3.758 3.477 3.922 3.176.195-.359.324-1.414.316-2.641-.008-1.496-.203-2.66-.719-4.266l-.289-.902-1.422-.445c-.785-.25-1.57-.492-1.746-.551-.617-.195-.23-.184.668.02a34.49 34.49 0 0 0 2.852.527c.602.074.73-.043.793-.703.082-.848-.461-3.191-1.016-4.352-.219-.465-.32-.57-.762-.77-1.465-.684-6.06-1.309-8.01-1.105-.844.086-1.707.293-1.98.465-.074.059.469.191 1.402.363.84.156 1.453.293 1.363.316-.102.016-1.414-.129-2.941-.324-2.672-.344-2.77-.352-2.965-.18-.391.352-.945 1.309-1.063 1.824-.109.496-.102.555.145 1.059.422.863 1.211 1.492 2.996 2.395.844.438 1.516.797 1.492.824-.027.023-.75-.246-1.602-.602l-1.559-.645-2.285.641c-1.254.348-2.324.637-2.375.637-.063 0-.094-1.516-.094-4.086 0-3.934.008-4.098.203-4.5.117-.246.348-.508.555-.633l.359-.223 10.461-.031c5.75-.016 10.699 0 10.977.031.641.078 1.219.547 1.371 1.113.066.246.09 3.969.074 11.05l-.027 10.668-.223.355a1.671 1.671 0 0 1-.633.559c-.41.199-.492.203-10.738.203-5.68 0-10.332-.035-10.332-.074m-.02.02" fill="#fff"/></g></svg>