<svg xmlns="http://www.w3.org/2000/svg" height="32" width="32"><rect width="28.203" height="28.203" x="1.898" y="1.898" ry="5.575" fill="#5e6884" fill-rule="evenodd"/><path d="M11.68 7.513c-3.03.204-6.713 3.013-6.68 7.563.032 4.318 1.336 6.704 2.469 9.424l2.366-1.02c-1.35-2.058-3.364-6.228-3.247-8.981.077-1.815.71-3.086 1.808-4.11 2.648-2.47 6.298-1.89 8.443.744 1.218 1.552 1.427 3.832.31 5.497-1.896 2.825-6.2 1.451-6.496-1.822-.14-1.555 1.353-2.751 2.725-2.765-1.407-.816-3.584.69-3.466 2.538.347 5.444 6.274 5.55 8.102 2.446 3.263-5.543-2.278-9.788-6.332-9.515z" fill="#f9f9f9"/><path d="M24.465 7.5l-2.553 1.08c1.538 2.99 3.322 5.281 3.325 8.973a5.434 5.434 0 0 1-1.808 4.033c-1.156 1.038-2.664 1.65-4.461 1.398-1.881-.264-3.174-1.135-3.98-2.128-1.268-1.691-1.478-3.852-.455-5.434.584-.902 1.88-1.668 3.165-1.556 2.266.197 3.534 1.467 3.514 3.387-.02 1.954-1.389 2.704-2.924 2.57 1.437.642 3.607-.197 3.599-2.35-.012-2.901-1.945-4.298-4.032-4.31-2.155-.012-3.347.8-4.038 1.9-.691 1.1-.878 2.55-.8 3.736.078 1.203.94 2.659 2.247 3.784 1.304 1.124 3.056 1.917 4.89 1.917 2.954 0 6.878-3.04 6.846-7.508-.033-4.469-1.32-7.122-2.536-9.49z" fill="#7fafdb"/></svg>