<svg xmlns="http://www.w3.org/2000/svg" width="32" height="32" version="1"><rect ry="5.575" y="1.898" x="1.898" height="28.203" width="28.203" fill="#5f7c8a" fill-rule="evenodd"/><circle r="1.179" cy="10.75" cx="7.935" fill="#72dba9"/><circle r="1.179" cy="10.75" cx="11.864" fill="#ccc"/><circle r="1.179" cy="10.75" cx="15.792" fill="#ccc"/><circle r="1.179" cy="10.75" cx="19.721" fill="#ccc"/><circle r="1.179" cy="10.75" cx="23.649" fill="#72dba9"/><circle r="1.179" cy="15.464" cx="10.292" fill="#ccc"/><circle r="1.179" cy="15.464" cx="14.221" fill="#ccc"/><circle r="1.179" cy="15.464" cx="22.078" fill="#ccc"/><rect ry=".589" rx=".226" y="19" x="8.328" height="2.357" width="6.033" fill="#ccc"/><path d="M24.42 13.449a3.311 3.311 0 0 0-4.694.001l-1.179 1.179-.393.393-2.214 2.214-.388.389-1.232 1.231a3.311 3.311 0 0 0-.002 4.694l.924.924.374.374.924.924a3.312 3.312 0 0 0 4.695 0l1.179-1.179.393-.393 2.214-2.214.387-.387 1.233-1.233c1.3-1.3 1.3-3.395 0-4.695l-.924-.925-.373-.373z" fill="#5f7c8a"/><path d="M15.278 19.204a2.767 2.767 0 0 0 0 3.921l1.855 1.856a2.767 2.767 0 0 0 3.921 0l3.163-3.163a14.931 14.931 0 0 1-3.064-2.31 14.92 14.92 0 0 1-2.673-3.506z" fill="#ccc"/><path d="M18.809 15.673a14.372 14.372 0 0 0 2.302 3.162l3.376-3.376-.772-.771a2.767 2.767 0 0 0-3.92 0z" fill="#72dba9"/><path d="M21.422 19.15l.04.042a14.454 14.454 0 0 0 3.079 2.302l1.03-1.03a2.767 2.767 0 0 0 0-3.92l-.771-.772z" fill="#ccc"/></svg>