<svg xmlns="http://www.w3.org/2000/svg" height="32" width="32" version="1"><defs><linearGradient id="a" y2="506.8" gradientUnits="userSpaceOnUse" y1="540.8" gradientTransform="translate(-18.597 -60.355) scale(.08468)" x2="409.57" x1="409.57"><stop stop-color="#2a2c2f" offset="0"/><stop stop-color="#424649" offset="1"/></linearGradient></defs><rect ry="5.575" y="1.898" x="1.898" height="28.203" width="28.203" fill-rule="evenodd" fill="#feb925"/><path d="M26.797 16A10.797 10.797 0 0 1 16 26.797 10.797 10.797 0 0 1 5.203 16 10.797 10.797 0 0 1 16 5.203 10.797 10.797 0 0 1 26.797 16z" fill="#4f4f4f"/><path d="M10.016 7.026a10.767 10.767 0 0 0-4.8 8.987h8.637c0-.875.523-1.624 1.271-1.963l-5.11-7.024zM21.984 24.974a10.767 10.767 0 0 0 4.8-8.987h-8.637c0 .875-.523 1.624-1.271 1.963l5.108 7.024z" opacity=".1" fill="#fff"/><rect ry="4.319" height="8.637" width="8.637" y="11.681" x="11.681" fill="#feb925"/><rect transform="scale(1 -1)" ry="1.44" height="2.879" width="2.879" y="-17.44" x="14.56" fill="url(#a)"/></svg>