<svg xmlns="http://www.w3.org/2000/svg" height="32" width="32" version="1"><path d="M30 6.969c-.054-.579-.12-1.157-.336-1.67A5.563 5.563 0 0 0 26.7 2.334c-.511-.216-1.089-.28-1.666-.334H16v14h14z" fill="#21d789"/><path d="M6.965 2c-.577.054-1.155.118-1.666.334a5.563 5.563 0 0 0-2.965 2.965c-.216.511-.28 1.089-.334 1.666V16h14V2z" fill="#f7c73c"/><path d="M25.035 30c.577-.054 1.155-.118 1.666-.334a5.563 5.563 0 0 0 2.965-2.965c.216-.511.28-1.089.334-1.666V16H16v14z" fill="#2086e7"/><path d="M2 25.031c.054.579.12 1.157.336 1.67A5.563 5.563 0 0 0 5.3 29.666c.511.216 1.089.28 1.666.334H16V16H2z" fill="#21d789"/><rect width="21.424" height="21.424" x="5.288" y="5.288" ry="4.235" fill="#3f3f3f" fill-rule="evenodd"/><g fill="none" stroke="#fff" stroke-linecap="round"><path d="M9.192 21.615h6.41" stroke-width=".80132"/><path d="M13.196 16.801v-6.41m-4.006 0l2 3.205 2.006-3.205M9.19 16.8v-6.41" stroke-linejoin="round" stroke-width=".80132"/><path d="M14.801 13.623s3.205.372 3.205-1.603-3.205-1.603-3.205-1.603m0 6.41v-6.41" stroke-linejoin="bevel" stroke-width=".80132"/><path d="M19.606 16.005s.404.802 1.603.802c1.198 0 1.602-.802 1.602-1.603 0-3.377-3.205.17-3.195-3.198-.01-.809.378-1.61 1.593-1.61 1.215 0 1.602.801 1.602.801" stroke-linejoin="round" stroke-width=".80132"/></g></svg>