<svg xmlns="http://www.w3.org/2000/svg" height="32" width="32"><rect width="28.203" height="28.203" x="1.898" y="1.898" ry="5.575" fill="#de554c" fill-rule="evenodd"/><path d="M9.472 7.497a1.5 1.5 0 0 0-1.451 1.5v6.761a1.5 1.5 0 0 0 0 .49v6.749a1.5 1.5 0 1 0 3 0v-5.563c1.05.018 2.561.096 5.174-.207 1.698-.197 3.416-.507 4.87-1.119.728-.306 1.404-.687 1.964-1.266s.977-1.43.97-2.336c-.007-.903-.43-1.745-.992-2.32-.561-.575-1.237-.958-1.965-1.265-1.454-.616-3.17-.93-4.865-1.133-3.39-.405-6.705-.291-6.705-.291zm1.549 3.06c.992-.011 2.426-.074 4.8.21 1.547.184 3.072.502 4.053.917.491.208.832.44.985.596.152.157.14.167.14.25 0 .081.02.076-.127.226-.145.151-.48.381-.968.586-.977.41-2.505.725-4.055.905-2.385.276-3.835.206-4.828.191z" fill="#fff"/></svg>