<svg xmlns="http://www.w3.org/2000/svg" width="32" height="32"><rect width="28.203" height="28.203" x="1.898" y="1.898" ry="5.575" fill="#0286c2" fill-rule="evenodd"/><g transform="translate(42.241 -2.462)"><path d="M-29.551 7.344c-3.666 0-6.617 3.06-6.617 6.862v3.747c0 .12.011.235.017.353.06 2.65.41 7.136 2.099 9.058 1.7 1.937 5.667 2.215 7.27 2.215 2.847 0 4.114-1.115 4.114-1.115v-1.832s-1.717.6-3.745.565c-1.393-.025-2.586-.39-3.185-1.292-.216-.326-.2-.646-.266-1.108.104.006.207.018.313.018h6.62c3.666 0 6.616-3.06 6.616-6.862v-3.747c0-3.802-2.95-6.862-6.616-6.862z" fill="#fff"/><circle r="1.191" cy="14.094" cx="-30.212" fill="#0286c2"/></g></svg>