<svg xmlns="http://www.w3.org/2000/svg" height="32" width="32" version="1"><rect width="28.203" height="28.203" x="1.898" y="1.898" ry="5.575" fill="#c2352a" fill-rule="evenodd"/><path d="M7.334 6C6.595 6 6 6.595 6 7.334v17.332C6 25.405 6.595 26 7.334 26h17.332c.739 0 1.334-.595 1.334-1.334V7.334C26 6.595 25.405 6 24.666 6zM8 9h5l3 5 3-5h5v14h-4v-9l-3 6h-2l-3-6v9H8z" fill="#fff"/><g stroke-width="1.333"><circle r="12" cy="33.744" cx="-24.232" fill="#ffa822" transform="matrix(.5 0 0 .5 34.617 5.476)"/><path d="M18.002 20.098v1.5h1.5v3h1.5v-3h1.5v-1.5zM22.502 20.098l1.5 4.5h1.5l1.5-4.5h-1.5l-.75 2.625-.75-2.625z" fill="#fff"/></g></svg>