<svg xmlns="http://www.w3.org/2000/svg" width="32" height="32"><rect width="28.203" height="28.203" x="1.898" y="1.898" ry="5.575" fill="#4e6275" fill-rule="evenodd"/><g transform="translate(-2.5 -1.5)"><path d="M18.32 25.771c.506-.13 1.467-.4 1.879-.598.835-.404 1.801-.9 1.801-1.173-.531-.92-1.207-2.01-2-2.5.588-.38 1.12-.72 1-1.4 0 0-.197-.156.23-.485 1.75-1.756 4.336-3.898 5.27-5.983 0-.537-.306-.654-1.112-.632-.391.01-1.696-.014-2.9 0-2.174.025-2.983 0-2.983 0s-2.272-.042-2.965.505c-1.753 1.386-2.54 1.3-4.008 1.79-1.367.455-1.432-.195-1.432 3.055-.297 1.84.237 3.675-1.017 5.31-.152.201-.116.294.286.728.795.858 2.17 1.192 3.698 1.49 1.035.201 3.282.145 4.254-.107z" fill="#d2943b"/><path d="M13.5 9C11 9 9 11.287 9 13.8c0 1.08.38 2.472 1.009 3.253.139.356-.005.65-.009.729-.013.268.572.383 2.138-.122 1.81-.585 2.58-1.103 4.464-2.616.704-.566 1.366-1.3 2.154-1.661.683-.313 1.244-.367 1.244-.434 0-.7-.9-.835-1.4-.9h-.562C17.35 10.41 16 9 13.5 9z" fill="#ffd548"/><circle cx="26.5" cy="13.5" r="1.5" fill="#efc286"/><path d="M17.152 21.83c-.569-.19-1.301-.708-1.868-1.32-.317-.344-.349-.425-.193-.5.116-.055.468.12.934.462.84.619 1.634.99 2.165 1.01.196.007.48.06.633.115.262.097.253.11-.166.261-.547.197-.854.19-1.505-.027z" opacity=".2"/></g></svg>