<svg xmlns="http://www.w3.org/2000/svg" width="32" height="32" version="1"><g transform="translate(51.245 13.203)"><path d="M-21.143 8.764h-28.203v2.56A5.563 5.563 0 0 0-43.77 16.9h17.053a5.561 5.561 0 0 0 5.574-5.574z" fill="#ccc" fill-rule="evenodd"/><path d="M-43.77-11.304a5.565 5.565 0 0 0-5.576 5.576V8.764h28.203V-5.728a5.563 5.563 0 0 0-5.574-5.576z" fill="#8e8e8e" fill-rule="evenodd"/><path d="M-38.463-4.983c-.245 0-.444.199-.444.445v9.11c0 .337.362.552.657.39l8.335-4.556a.445.445 0 0 0 0-.78l-7.502-4.099-.833-.455a.442.442 0 0 0-.213-.055z" fill="#fff"/><rect x="-31.245" y="11.576" width="8" height="2" ry="1" fill="#999"/><rect x="-47.245" y="11.576" width="16" height="2" ry="1" opacity=".99" fill="#8e8e8e"/><circle r="2" cy="12.577" cx="-31.245" fill="#fff"/></g></svg>