<svg xmlns="http://www.w3.org/2000/svg" xmlns:xlink="http://www.w3.org/1999/xlink" height="32" width="32" version="1"><defs><radialGradient xlink:href="#a" id="b" gradientUnits="userSpaceOnUse" gradientTransform="matrix(3.84537 -.04602 .03085 2.57762 117.314 -32.946)" cx="-27.763" cy="19.764" fx="-27.763" fy="19.764" r="14.102"/><linearGradient id="a"><stop offset="0" stop-color="#ff7730"/><stop offset="1" stop-color="#8e80cb" stop-opacity="0"/></linearGradient></defs><rect width="28.203" height="28.203" x="1.899" y="1.898" ry="5.575" fill="#a77da8" fill-rule="evenodd"/><path d="M7.474 1.898a5.563 5.563 0 0 0-5.576 5.574v10.713c1.004-.207 2.15-.502 2.978-.601 1.52-.182 2.773-.193 3.866-.086 1.092.106 2.024.33 2.902.625.877.294 1.7.657 2.574 1.039.874.382 1.8.782 2.881 1.152 1.082.37 2.32.71 3.822.969 1.502.258 3.266.435 5.399.482 1.06.024 2.527-.103 3.783-.15V7.472a5.563 5.563 0 0 0-5.576-5.574z" fill="#a77da8" fill-rule="evenodd"/><rect width="28.203" height="28.203" x="1.899" y="1.898" ry="5.575" fill="url(#b)" fill-rule="evenodd"/><path d="M13.265 29.47a8.339 8.339 0 0 0 .23-.203 8.339 8.339 0 0 0 .569-.61 8.339 8.339 0 0 0 .506-.663 8.339 8.339 0 0 0 .435-.711 8.339 8.339 0 0 0 .361-.75 8.339 8.339 0 0 0 .288-.784 8.339 8.339 0 0 0 .205-.808 8.339 8.339 0 0 0 .125-.824 8.339 8.339 0 0 0 .04-.832 8.339 8.339 0 0 0-.019-.59 8.339 8.339 0 0 0-.101-.828 8.339 8.339 0 0 0-.182-.813 8.339 8.339 0 0 0-.264-.79 8.339 8.339 0 0 0-.34-.76 8.339 8.339 0 0 0-.414-.725 8.339 8.339 0 0 0-.486-.678 8.339 8.339 0 0 0-.549-.625 8.339 8.339 0 0 0-.611-.568 8.339 8.339 0 0 0-.662-.506 8.339 8.339 0 0 0-.711-.436 8.339 8.339 0 0 0-.752-.361 8.339 8.339 0 0 0-.781-.287 8.339 8.339 0 0 0-.809-.205 8.339 8.339 0 0 0-.824-.125 8.339 8.339 0 0 0-.832-.041 8.339 8.339 0 0 0-.59.02 8.339 8.339 0 0 0-.828.1 8.339 8.339 0 0 0-.813.182 8.339 8.339 0 0 0-.79.264 8.339 8.339 0 0 0-.762.34 8.339 8.339 0 0 0-.723.414 8.339 8.339 0 0 0-.678.486 8.339 8.339 0 0 0-.596.522v6.619a5.563 5.563 0 0 0 5.575 5.576z" opacity=".977" fill="#fff" fill-rule="evenodd"/><g transform="matrix(.71383 0 0 .71383 52.406 11.294)" stroke-width="1.401"><rect ry="0" y="11.932" x="-50.373" height="1.932" width="1.288" fill="#986005"/><path d="M-46.94 12.676h-5.45l2.725-4.719z" fill="#74a10d"/><path d="M-47.372 11.022h-4.682l2.34-4.055z" fill="#98c305"/><path d="M-47.792 9.162h-3.723l1.861-3.224z" fill="#addb1e"/></g><path d="M19.317 20.559c-4.916.449-8.674 3.143-14.437 2.848-1.179-.108-2.151-.335-2.983-.647v1.768c0 .63.166 1.21.358 1.775.938-.5 1.87-.9 2.794-1.127a13.634 13.634 0 0 1 3.127-.377c2.09-.024 4.207.336 6.44.647 1.116.155 2.26.299 3.445.377 1.185.078 2.41.089 3.686-.018a20.586 20.586 0 0 0 3.992-.73c1.389-.4 2.84-.971 4.363-1.77-4.469-2.475-7.835-3.015-10.785-2.746z" fill="#97c607" fill-rule="evenodd"/><g transform="matrix(1.80743 0 0 1.80743 113.401 .638)" stroke-width=".553"><rect ry="0" y="11.932" x="-50.373" height="1.932" width="1.288" fill="#986005"/><path d="M-46.94 12.676h-5.45l2.725-4.719z" fill="#74a10d"/><path d="M-47.372 11.022h-4.682l2.34-4.055z" fill="#98c305"/><path d="M-47.792 9.162h-3.723l1.861-3.224z" fill="#addb1e"/></g><path d="M30.102 23.305a23.141 23.141 0 0 1-4.363 1.77 20.586 20.586 0 0 1-3.992.73c-1.276.107-2.5.096-3.686.018a47.427 47.427 0 0 1-3.445-.377c-2.233-.311-4.35-.67-6.44-.647-1.045.012-2.084.12-3.127.377-.924.228-1.856.628-2.794 1.127.745 2.2 2.76 3.799 5.218 3.799h17.053a5.563 5.563 0 0 0 5.576-5.574z" fill="#74a10d" fill-rule="evenodd"/></svg>