<svg xmlns="http://www.w3.org/2000/svg" xmlns:xlink="http://www.w3.org/1999/xlink" width="32" height="32" version="1"><defs><linearGradient id="g" gradientUnits="userSpaceOnUse" x1="18.217" y1="25.185" x2="17.967" y2="13.138"><stop offset="0" stop-color="#e5e5e5"/><stop offset="1" stop-color="#fff"/></linearGradient><linearGradient id="a" gradientUnits="userSpaceOnUse" x1="29.138" y1="14.878" x2="29.138" y2="23.95"><stop offset="0" stop-color="#fed716"/><stop offset="1" stop-color="#e89309"/></linearGradient><linearGradient id="b" gradientUnits="userSpaceOnUse" x1="5.458" y1="13.589" x2="5.458" y2="25.052"><stop offset="0" stop-color="#575757"/><stop offset="1" stop-color="#2e2d2d"/></linearGradient><linearGradient id="c" gradientUnits="userSpaceOnUse" x1="2.577" y1="18.236" x2="2.577" y2="15.094"><stop offset="0" stop-color="#ffec80"/><stop offset="1" stop-color="#fff"/></linearGradient><linearGradient id="d" gradientUnits="userSpaceOnUse" x1=".858" y1="16.841" x2=".858" y2="22.336"><stop offset="0" stop-color="#4c4c4c"/><stop offset="1" stop-color="#333"/></linearGradient><linearGradient gradientTransform="translate(5.181 4.84) scale(.66458)" id="i" gradientUnits="userSpaceOnUse" xlink:href="#d" x1="31.222" y1="16.841" x2="31.222" y2="22.336"/><linearGradient gradientTransform="translate(5.181 4.84) scale(.66458)" xlink:href="#d" id="h" gradientUnits="userSpaceOnUse" x1=".858" y1="16.841" x2=".858" y2="22.336"/><linearGradient gradientTransform="translate(5.181 4.84) scale(.66458)" id="f" gradientUnits="userSpaceOnUse" x1="16.103" y1="19.147" x2="15.564" y2="3.868"><stop offset="0" stop-color="#191919"/><stop offset="1" stop-color="#4c4c4c"/></linearGradient><linearGradient gradientTransform="translate(5.181 4.84) scale(.66458)" id="e" gradientUnits="userSpaceOnUse" x1="15.733" y1="2.699" x2="15.884" y2="17.304"><stop offset="0" stop-color="#666"/><stop offset="1" stop-color="#333"/></linearGradient></defs><rect width="28.203" height="28.203" x="1.898" y="1.898" ry="5.575" fill="#ececec" fill-rule="evenodd"/><path class="fil10" d="M5.827 17.05c0-.55.057-1.257.168-2.023.102-.7.25-1.454.444-2.19 1.083-4.11 3.466-6.89 9.183-6.89 6.239-.136 8.256 2.738 9.31 6.881.192.753.34 1.535.444 2.259.114.8.173 1.531.173 2.075h-.924c0-.508-.055-1.193-.162-1.945-.098-.69-.241-1.44-.425-2.162-.468-1.841-1.46-3.308-2.885-4.308-1.418-.996-3.28-1.538-5.497-1.538-2.232 0-4.06.532-5.448 1.515-1.413 1-2.386 2.478-2.878 4.348a19.018 19.018 0 0 0-.422 2.085c-.105.719-.158 1.38-.158 1.894h-.923z" clip-rule="evenodd" fill="url(#e)" image-rendering="optimizeQuality" shape-rendering="geometricPrecision" text-rendering="geometricPrecision" transform="translate(.16 .409)"/><path class="fil11" d="M6.482 18.223c0-1.024.203-2.601.597-4.096 1.027-3.903 4.057-6.207 8.771-6.207 4.658 0 7.841 2.314 8.829 6.194.394 1.546.602 3.215.602 4.22" clip-rule="evenodd" fill="none" image-rendering="optimizeQuality" shape-rendering="geometricPrecision" text-rendering="geometricPrecision"/><path class="fil12" d="M6.13 17.815c0-.552.058-1.258.17-2.025.101-.698.25-1.454.444-2.19.547-2.08 1.37-3.735 2.968-4.864 1.546-1.095 3.553-1.687 5.978-1.687 2.41 0 4.452.602 6.027 1.707 1.61 1.128 2.42 2.741 2.944 4.802.192.752.341 1.535.444 2.258.114.8.173 1.532.173 2.076l-.619.034c0-.508.181-1.228.074-1.98-.61-4.311-3.328-8.143-9.01-8.177-2.552.111-4.404.703-5.743 1.651-1.517 1.074-2.376 2.606-2.853 4.415-.285 1.086-.58 2.812-.58 3.911l-.417.069z" clip-rule="evenodd" fill="url(#f)" image-rendering="optimizeQuality" shape-rendering="geometricPrecision" text-rendering="geometricPrecision" transform="translate(.16 .409)"/><path class="fil13" d="M16.097 10.145c4.211 0 7.626 3.471 7.626 7.752s-3.415 7.752-7.626 7.752-7.626-3.47-7.626-7.752c0-4.28 3.415-7.752 7.626-7.752z" clip-rule="evenodd" fill="#5e9dd5" fill-rule="evenodd" image-rendering="optimizeQuality" shape-rendering="geometricPrecision" text-rendering="geometricPrecision"/><path class="fil14" d="M16.097 10.145c4.211 0 7.626 3.471 7.626 7.752s-3.415 7.752-7.626 7.752-7.626-3.47-7.626-7.752c0-4.28 3.415-7.752 7.626-7.752zm4.684 2.968a6.549 6.549 0 0 0-9.366 0 6.802 6.802 0 0 0-1.947 4.784c0 1.87.744 3.563 1.946 4.784a6.55 6.55 0 0 0 9.367 0 6.804 6.804 0 0 0 1.945-4.784c0-1.87-.744-3.562-1.945-4.784z" clip-rule="evenodd" fill="#8bc5f5" fill-rule="evenodd" image-rendering="optimizeQuality" shape-rendering="geometricPrecision" text-rendering="geometricPrecision"/><path class="fil19" transform="translate(5.342 5.249) scale(.66458)" clip-rule="evenodd" fill="url(#g)" fill-rule="evenodd" image-rendering="optimizeQuality" shape-rendering="geometricPrecision" text-rendering="geometricPrecision" d="M12.967 25.08V13.243l5.125 2.96 5.125 2.96-5.125 2.959z"/><path d="M7.864 14.16c-.607 0-1.314.52-1.833 1.346v.001c-.438.701-.564 1.663-.564 2.678s.126 1.91.564 2.61v.002c.519.825 1.226 1.346 1.833 1.346.622 0 .992-.479 1.2-1.254.186-.696.244-1.65.244-2.705 0-1.055-.058-2.024-.244-2.736-.206-.793-.577-1.288-1.2-1.288zM24.135 14.16c-.623 0-.994.495-1.2 1.287-.186.713-.244 1.682-.244 2.737 0 1.055.058 2.01.244 2.705.208.775.578 1.254 1.2 1.254.607 0 1.316-.521 1.834-1.346v-.002c.439-.7.565-1.595.565-2.61s-.126-1.977-.565-2.678v-.001c-.518-.825-1.227-1.346-1.834-1.346z" clip-rule="evenodd" fill="#fed74d" fill-rule="evenodd" image-rendering="optimizeQuality" shape-rendering="geometricPrecision" text-rendering="geometricPrecision"/><path class="fil28" d="M8.348 13.398h1.313c.193 0 .349.207.35.46l.038 8.395c.002.252-.158.458-.35.458H8.388c-.192 0-.35-.205-.35-.458l-.038-8.396c-.001-.252.157-.459.35-.459zM23.622 13.398h-1.28c-.188 0-.34.207-.34.46l-.038 8.395c-.001.252.154.458.34.458h1.28c.187 0 .34-.205.341-.458l.038-8.396c0-.252-.153-.459-.34-.459z" clip-rule="evenodd" fill="#333" fill-rule="evenodd" image-rendering="optimizeQuality" shape-rendering="geometricPrecision" text-rendering="geometricPrecision"/><path class="fil29" d="M10.036 13.976l.93.067c.148.01.244.2.27.427l.994 9.087c.025.229-.485.176-.621.088l-1.631-1.052c-.136-.088-.25-.195-.27-.427l-.731-7.729c-.021-.232.91-.471 1.059-.461zM21.964 13.976l-.93.067c-.147.01-.244.2-.27.427l-.994 9.087c-.025.229.485.176.621.088l1.631-1.052c.136-.088.25-.195.27-.428l.731-7.728c.021-.232-.91-.471-1.059-.461z" clip-rule="evenodd" image-rendering="optimizeQuality" shape-rendering="geometricPrecision" text-rendering="geometricPrecision" fill="none"/><path class="fil29" d="M22.045 13.908l-1.005.068c-.162.01-.267.2-.294.427L19.67 23.49c-.028.228.525.176.672.088l1.766-1.052c.147-.088.27-.196.293-.428l.792-7.728c.023-.232-.986-.472-1.148-.462z" clip-rule="evenodd" image-rendering="optimizeQuality" shape-rendering="geometricPrecision" text-rendering="geometricPrecision" fill="none"/><path class="fil41" d="M5.5 15.873h.502c.162 0 .294.215.294.476v3.018c0 .262-.133.476-.294.476H5.5c-.162 0-.295-.213-.295-.476V16.35c0-.262.132-.476.295-.476z" clip-rule="evenodd" fill="url(#h)" fill-rule="evenodd" image-rendering="optimizeQuality" shape-rendering="geometricPrecision" text-rendering="geometricPrecision" transform="translate(.16 .409)"/><path class="fil42" d="M26.18 15.873h-.499c-.162 0-.294.215-.294.476v3.018c0 .262.132.476.294.476h.5c.16 0 .293-.213.293-.476V16.35c0-.262-.132-.476-.294-.476z" clip-rule="evenodd" fill="url(#i)" fill-rule="evenodd" image-rendering="optimizeQuality" shape-rendering="geometricPrecision" text-rendering="geometricPrecision" transform="translate(.16 .409)"/><path class="fil45" d="M23.3 21.761h-.533c-.086 0-.155.011-.156.024l-.017.41c0 .014.07.024.155.024h.583c.085 0 .156-.01.156-.024l.042-2.395c0-.013-.145 1.961-.23 1.961z" clip-rule="evenodd" fill="#4c4c4c" fill-rule="evenodd" image-rendering="optimizeQuality" shape-rendering="geometricPrecision" text-rendering="geometricPrecision"/></svg>