<?xml version="1.0" encoding="UTF-8" standalone="no"?>
<svg
   xmlns:dc="http://purl.org/dc/elements/1.1/"
   xmlns:cc="http://creativecommons.org/ns#"
   xmlns:rdf="http://www.w3.org/1999/02/22-rdf-syntax-ns#"
   xmlns:svg="http://www.w3.org/2000/svg"
   xmlns="http://www.w3.org/2000/svg"
   xmlns:sodipodi="http://sodipodi.sourceforge.net/DTD/sodipodi-0.dtd"
   xmlns:inkscape="http://www.inkscape.org/namespaces/inkscape"
   height="32"
   width="32"
   version="1"
   id="svg24"
   sodipodi:docname="multimedia-video-player.svg"
   inkscape:version="0.92.4 5da689c313, 2019-01-14">
  <metadata
     id="metadata30">
    <rdf:RDF>
      <cc:Work
         rdf:about="">
        <dc:format>image/svg+xml</dc:format>
        <dc:type
           rdf:resource="http://purl.org/dc/dcmitype/StillImage" />
      </cc:Work>
    </rdf:RDF>
  </metadata>
  <defs
     id="defs28">
    <filter
       inkscape:collect="always"
       style="color-interpolation-filters:sRGB"
       id="filter1160"
       x="-0.10004768"
       width="1.2000954"
       y="-0.092267107"
       height="1.1845342">
      <feGaussianBlur
         inkscape:collect="always"
         stdDeviation="0.38444476"
         id="feGaussianBlur1162" />
    </filter>
    <filter
       inkscape:collect="always"
       style="color-interpolation-filters:sRGB"
       id="filter2458"
       x="-0.06"
       width="1.12"
       y="-0.24"
       height="1.48">
      <feGaussianBlur
         inkscape:collect="always"
         stdDeviation="0.2"
         id="feGaussianBlur2460" />
    </filter>
    <filter
       inkscape:collect="always"
       style="color-interpolation-filters:sRGB"
       id="filter3069"
       x="-0.054"
       width="1.108"
       y="-0.432"
       height="1.864">
      <feGaussianBlur
         inkscape:collect="always"
         stdDeviation="0.36"
         id="feGaussianBlur3071" />
    </filter>
    <filter
       inkscape:collect="always"
       style="color-interpolation-filters:sRGB"
       id="filter3569"
       x="-0.096"
       width="1.192"
       y="-0.096"
       height="1.192">
      <feGaussianBlur
         inkscape:collect="always"
         stdDeviation="0.16"
         id="feGaussianBlur3571" />
    </filter>
  </defs>
  <sodipodi:namedview
     pagecolor="#ffffff"
     bordercolor="#666666"
     borderopacity="1"
     objecttolerance="10"
     gridtolerance="10"
     guidetolerance="10"
     inkscape:pageopacity="0"
     inkscape:pageshadow="2"
     inkscape:window-width="774"
     inkscape:window-height="655"
     id="namedview26"
     showgrid="false"
     inkscape:zoom="7.375"
     inkscape:cx="16"
     inkscape:cy="16"
     inkscape:window-x="550"
     inkscape:window-y="167"
     inkscape:window-maximized="0"
     inkscape:current-layer="svg24" />
  <path
     inkscape:connector-curvature="0"
     style="opacity:1;fill:#cccccc;fill-opacity:1;fill-rule:evenodd;stroke:none;stroke-width:1.03534329;stroke-linecap:round;stroke-linejoin:bevel;stroke-miterlimit:4;stroke-dasharray:none;stroke-dashoffset:0;stroke-opacity:1"
     d="M 30.101562,21.966797 H 1.898437 v 2.560547 c 0,3.08865 2.487521,5.574218 5.576172,5.574218 h 17.052734 c 3.088651,0 5.574219,-2.485568 5.574219,-5.574218 z"
     id="path4519" />
  <path
     inkscape:connector-curvature="0"
     style="opacity:1;fill:#424647;fill-opacity:1;fill-rule:evenodd;stroke:none;stroke-width:1.03534329;stroke-linecap:round;stroke-linejoin:bevel;stroke-miterlimit:4;stroke-dasharray:none;stroke-dashoffset:0;stroke-opacity:1"
     d="m 7.474609,1.8984377 c -3.088651,0 -5.576172,2.4875207 -5.576172,5.5761717 V 21.966797 H 30.101562 V 7.4746094 c 0,-3.088651 -2.485568,-5.5761717 -5.574219,-5.5761717 z"
     id="rect4497-3" />
  <path
     d="m 12.782374,8.2189614 c -0.24524,-1.3e-4 -0.44409,0.1991 -0.44396,0.44482 v 9.1097996 c -8e-5,0.33795 0.36131,0.55243 0.65706,0.38996 l 8.3346,-4.5549 c 0.30749,-0.16869 0.30749,-0.61122 0,-0.77991 l -7.502,-4.0991996 -0.833,-0.4552 c -0.0653,-0.0359 -0.13859,-0.0548 -0.2131,-0.0548 z"
     style="fill:#000000;fill-opacity:1;filter:url(#filter1160);opacity:0.647"
     id="path20-3-3"
     inkscape:connector-curvature="0" />
  <path
     d="m 12.781974,8.2195314 c -0.24524,-1.3e-4 -0.44409,0.1991 -0.44396,0.44482 v 9.1097996 c -8e-5,0.33795 0.36131,0.55243 0.65706,0.38996 l 8.3346,-4.5549 c 0.30749,-0.16869 0.30749,-0.61122 0,-0.77991 l -7.502,-4.0991996 -0.833,-0.4552 c -0.0653,-0.0359 -0.13859,-0.0548 -0.2131,-0.0548 z"
     style="fill:#da2570;fill-opacity:1"
     id="path20-3"
     inkscape:connector-curvature="0" />
  <rect
     ry="1"
     height="2"
     width="8"
     y="24.778645"
     x="20.000004"
     id="rect8-6-7"
     style="fill:#000000;fill-opacity:1;filter:url(#filter2458);opacity:0.647" />
  <rect
     ry="1"
     height="2"
     width="8"
     y="24.778645"
     x="19.999998"
     id="rect8-6"
     style="fill:#999999" />
  <rect
     ry="1"
     height="2"
     width="16"
     y="24.778645"
     x="3.9999981"
     id="rect10-7-5"
     style="opacity:0.647;fill:#000000;fill-opacity:1;filter:url(#filter3069)" />
  <rect
     ry="1"
     height="2"
     width="16"
     y="24.778645"
     x="4.0000029"
     id="rect10-7"
     style="opacity:0.98999999;fill:#da2570;fill-opacity:1" />
  <circle
     style="fill:#030001;fill-opacity:1;opacity:0.647;filter:url(#filter3569)"
     cx="20"
     cy="25.780001"
     r="2"
     id="circle14-5-6" />
  <circle
     style="fill:#da2570;fill-opacity:1"
     cx="19.999998"
     cy="25.779648"
     r="2"
     id="circle14-5" />
</svg>
