<svg xmlns="http://www.w3.org/2000/svg" height="32" width="32" version="1"><rect width="28.203" height="28.203" x="1.899" y="1.898" ry="5.575" fill="#bcedf7" fill-rule="evenodd"/><path d="M7.474 1.898a5.563 5.563 0 0 0-5.576 5.574v10.713c1.004-.207 2.15-.502 2.978-.601 1.52-.182 2.773-.193 3.866-.086 1.092.106 2.024.33 2.902.625.877.294 1.7.657 2.574 1.039.874.382 1.8.782 2.881 1.152 1.082.37 2.32.71 3.822.969 1.502.258 3.266.435 5.399.482 1.06.024 2.527-.103 3.783-.15V7.472a5.563 5.563 0 0 0-5.576-5.574z" fill="#bcedf7" fill-rule="evenodd"/><path d="M22.604 5.98a3.976 3.976 0 1 1 0 7.952 3.976 3.976 0 0 1 0-7.952z" fill="#fff" fill-rule="evenodd"/><g transform="matrix(.71383 0 0 .71383 50.77 11.736)" stroke-width="1.401"><rect ry="0" y="11.932" x="-50.373" height="1.932" width="1.288" fill="#986005"/><path d="M-46.94 12.676h-5.45l2.725-4.719z" fill="#74a10d"/><path d="M-47.372 11.022h-4.682l2.34-4.055z" fill="#98c305"/><path d="M-47.792 9.162h-3.723l1.861-3.224z" fill="#addb1e"/></g><path d="M19.317 20.559c-4.916.449-8.674 3.143-14.437 2.848-1.179-.108-2.151-.335-2.983-.647v1.768c0 .63.1 1.234.291 1.799.939-.5 1.937-.923 2.861-1.15a13.634 13.634 0 0 1 3.127-.378c2.09-.024 4.207.336 6.44.647 1.116.155 2.26.299 3.445.377 1.185.078 2.41.089 3.686-.018a20.586 20.586 0 0 0 3.992-.73c1.389-.4 2.84-.971 4.363-1.77-4.469-2.475-7.835-3.015-10.785-2.746z" fill="#97c607" fill-rule="evenodd"/><g transform="matrix(1.80743 0 0 1.80743 98.443 .632)" stroke-width=".553"><rect ry="0" y="11.932" x="-50.373" height="1.932" width="1.288" fill="#986005"/><path d="M-46.94 12.676h-5.45l2.725-4.719z" fill="#74a10d"/><path d="M-47.372 11.022h-4.682l2.34-4.055z" fill="#98c305"/><path d="M-47.792 9.162h-3.723l1.861-3.224z" fill="#addb1e"/></g><path d="M30.102 23.305a23.141 23.141 0 0 1-4.363 1.77 20.586 20.586 0 0 1-3.992.73c-1.276.107-2.5.096-3.686.018a47.427 47.427 0 0 1-3.445-.377c-2.233-.311-4.35-.67-6.44-.647-1.045.012-2.084.12-3.127.377-.924.228-1.922.65-2.86 1.15a5.57 5.57 0 0 0 5.284 3.776h17.053a5.563 5.563 0 0 0 5.576-5.574z" fill="#74a10d" fill-rule="evenodd"/></svg>