<svg xmlns="http://www.w3.org/2000/svg" xmlns:xlink="http://www.w3.org/1999/xlink" height="32" width="32" version="1"><defs><radialGradient xlink:href="#a" id="b" cx="-12.409" cy="2.822" fx="-12.409" fy="2.822" r="14.102" gradientUnits="userSpaceOnUse" gradientTransform="matrix(-.97244 -.93142 .91776 -.95818 -31.362 9.45)"/><linearGradient id="a"><stop offset="0" stop-color="#fff"/><stop offset="1" stop-color="#ffff6f" stop-opacity="0"/></linearGradient></defs><rect width="28.203" height="28.203" x="1.898" y="1.898" ry="5.575" fill="#abd121" fill-rule="evenodd"/><g transform="translate(38.977 -7.754)"><path d="M-10.4 36.053h-25.164c1.016 1.09 2.44 1.79 4.054 1.79h17.055c1.615 0 3.038-.7 4.055-1.79z" fill="#bcedf7" fill-rule="evenodd"/><path d="M-8.938 32.55V30.56c-1.04-1.112-1.909-2.177-2.248-2.266-.344-.09-.743.046-1.158.303-.415.256-.847.634-1.258 1.029-.821.79-1.558 1.653-1.91 1.738-.351.086-1.569.006-2.33-.224-.76-.231-1.416-.527-1.699-.612a19.265 19.265 0 0 1-1.545-.611c-.462-.21-.869-.406-1.215-.51-.346-.105-1.873-.477-2.984-.7-1.111-.224-2.153-.413-2.57-.413-.418-.016-1.756.125-2.565.283-.808.161-1.504.322-1.889.278-.384-.044-1.616-.737-2.441-1.249-.413-.256-.818-.479-1.207-.58-.389-.1-.762-.08-1.102.149-.005.004-.016.028-.025.047v5.049c0 1.473.592 2.788 1.52 3.783H-10.4a5.516 5.516 0 0 0 1.463-3.502z" fill="#97c607" fill-rule="evenodd"/><path d="M-31.51 9.64a5.561 5.561 0 0 0-5.574 5.575V27.22c.009-.019.02-.043.025-.047.34-.23.713-.25 1.102-.149.389.101.794.324 1.207.58.825.512 2.057 1.205 2.441 1.249.385.044 1.08-.117 1.89-.278.808-.158 2.146-.299 2.564-.283.417 0 1.459.189 2.57.412 1.11.224 2.638.596 2.984.701.346.104.753.3 1.215.51.462.208 1.262.525 1.545.611.283.085.938.381 1.7.612.76.23 1.978.31 2.33.224.35-.085 1.088-.947 1.91-1.738.41-.395.842-.773 1.257-1.03.415-.256.814-.392 1.158-.302.339.09 1.207 1.154 2.248 2.266v1.992c.006-.099.057-.182.057-.281V15.215a5.561 5.561 0 0 0-5.574-5.574z" fill="#bcedf7" fill-rule="evenodd"/><rect ry="5.575" y="9.641" x="-37.016" height="28.203" width="28.203" opacity=".977" fill="url(#b)" fill-rule="evenodd"/><path d="M-8.937 33.081l-.728-1.851s-2.309 2.402-2.309 2.168c0-.235-.498-2.168-.498-2.168l-1.9 2.343-.906-1.406-2.307 1.524-.86-1.934-1.494 2.229-2.037-2.229-1.447 2.346-1.178-2.463-1.176 2.404-1.81-2.463-.815 2.756-1.312-2.521-.951 1.582-2.217-2.051s-.59 2.052-.68 2.814c-.045.381-.476-.558-.894-1.591-.419-1.034-.824-2.16-.824-2.16s-.835 1.954-1.407 3.304c.646 2.365 2.71 4.13 5.285 4.13h17.053c2.8 0 5.006-2.08 5.412-4.763z" opacity=".977" fill="#96c503" fill-rule="evenodd"/><path d="M-8.894 31.3c-.633 1.011-1.143 2.22-1.549 3.6.109-2.212.358-4.36.592-6.514a128.4 128.4 0 0 0-1.34 5.576c-.107-.543-.238-1.036-.363-1.539.113-1.116.281-2.054.547-2.66-.197.334-.373.71-.539 1.101.063-.57.114-1.147.176-1.718-.178.68-.347 1.36-.516 2.039a11.205 11.205 0 0 0-.578-1.502c.188.517.309 1.304.402 2.199-.172.712-.33 1.42-.488 2.129-.144-.558-.308-1.115-.465-1.674.127-1.427.282-2.843.436-4.258a153.284 153.284 0 0 0-.768 3.067 136.3 136.3 0 0 0-.812-2.68c.1.761.203 1.522.302 2.283-.044-.1-.084-.212-.13-.306.075.207.128.514.187.787.053.42.1.842.147 1.265l-.061.26a10.569 10.569 0 0 0-.564-1.23c.186.452.32 1.093.427 1.828-.021.1-.049.202-.07.302-.325-1.646-.716-3.144-1.271-4.279.417 1.15.566 3.373.584 6.127-.182-.672-.373-1.33-.6-1.912-.131-.442-.247-.882-.383-1.324.158-.42.31-.84.508-1.268-.193.326-.401.636-.606.947-.11-.357-.201-.712-.314-1.07l.172 1.3c-.151.231-.3.464-.447.7a11.308 11.308 0 0 0-.729-1.658c.211.511.362 1.236.473 2.102-.098.17-.2.34-.291.52-.24.214-.45.495-.653.798a4.138 4.138 0 0 0-.441-.348c-.026.013-.047.039-.072.053l-.063-.08c.138-.95.298-1.837.528-2.535-.34.588-.634 1.28-.895 2.043-.207-.395-.43-.773-.666-1.131.014-.047.024-.107.04-.153-.023.038-.042.084-.063.122-.407-.61-.847-1.183-1.352-1.67.083.14.118.356.191.511l.016-.029c-.004.012-.006.029-.01.041.284.602.548 1.236.742 1.977l-.047.107c-.085.078-.163.169-.242.26-.198-.585-.407-1.145-.607-1.723.052-.204.096-.432.154-.62l-.006-.013c-.076.137-.144.291-.217.436-.012-.034-.024-.064-.035-.098.01.04.015.078.025.117-.154.31-.3.64-.435.99-.016-.964-.01-1.84.162-2.42-.426.876-.563 2.298-.752 3.553-.176-.489-.356-.972-.523-1.48.157.61.291 1.213.404 1.809a4.797 4.797 0 0 0-.45.779c-.106-.49-.226-.953-.363-1.375-.018-1.01-.016-1.928.162-2.527-.213.439-.355 1.017-.466 1.642-.167-.46-.334-.916-.493-1.394.165.64.302 1.272.418 1.896l-.222 1.469c-.16-.341-.352-.67-.588-1.082-.02-1.47-.096-2.79.144-3.598-.29.599-.438 1.46-.568 2.342-.09-.47-.187-.927-.324-1.33.035-.079.065-.165.101-.24-.046.054-.083.12-.128.175a3.787 3.787 0 0 0-.282-.638c.082.228.133.498.164.797-.173.222-.35.441-.507.687.017-.058.026-.114.044-.172-.05.126-.102.245-.154.367-.342.557-.647 1.17-.922 1.829-.098-.165-.213-.38-.336-.598.168-.623.36-1.198.6-1.688a9.385 9.385 0 0 0-.86 1.211c-.011-.022-.02-.03-.03-.054.01.026.013.042.023.068-.204.333-.401.679-.58 1.049-.15-.37-.324-.701-.496-1.037.196-.858.422-1.662.736-2.303-.405.47-.756 1.02-1.084 1.605l-.03-.06c.049-.434.098-.867.145-1.3-.093.357-.174.712-.265 1.07-.17-.312-.34-.622-.5-.948.142.371.252.733.365 1.098-.076-.12-.144-.256-.223-.37.088.224.15.508.225.76-.044.173-.078.345-.121.518-.183.384-.355.782-.514 1.201a23.078 23.078 0 0 0-.633-1.27l.145-1.302c-.094.358-.172.715-.264 1.072-.051-.094-.1-.192-.15-.287.123-1.322.263-2.64.406-3.953a141.81 141.81 0 0 0-1.004 4.086c-.116-.224-.22-.463-.338-.682l.143-1.302c-.094.358-.172.714-.264 1.072-.088-.161-.173-.327-.26-.49.07-.64.13-1.285.2-1.924-.137.52-.262 1.039-.393 1.558l-.049-.093c.016.041.026.083.041.125-.038.15-.078.3-.115.45a11.254 11.254 0 0 0-.578-1.503c.188.519.308 1.308.402 2.207-.23.947-.448 1.888-.65 2.83-.111-.562-.245-1.071-.375-1.59.036-.476.09-.944.136-1.416.035-.083.059-.195.096-.27-.03.044-.053.097-.082.141.115-1.17.233-2.34.36-3.506-.32 1.22-.618 2.437-.903 3.65a10.82 10.82 0 0 0-.508-1.288c.166.456.282 1.13.373 1.884l-.03.137c-.202-.54-.416-1.049-.665-1.496.224.542.369 1.363.48 2.3l-.027.12c-.027.066-.05.138-.076.205-.296-1.485-.654-2.835-1.133-3.914.01-.022.016-.053.026-.074-.01.018-.019.042-.03.06-.041-.093-.08-.198-.123-.287.035.096.053.252.084.362-.451.8-.793 1.797-1.1 2.863-.241-.715-.513-1.374-.83-1.944.273.661.443 1.687.553 2.92-.026.107-.06.198-.086.305-.252-.978-.567-1.966-.855-2.95-.444 4.69 2.53 6.995 6.22 6.828 2.2.06 8.437.005 10.999.005.046-.525.083-1.079.138-1.58.057.531.087 1.054.127 1.58h2.948l.21-.164.079.164h1.908c2.2 0 4.122-1.18 5.03-3.158.02-.276-.028-.664.001-.918.11-.965.311-1.66.543-2.266zm-22.365.06c.064.2.137.401.2.6-.053.203-.096.406-.147.61-.043-.173-.08-.358-.125-.524.024-.228.047-.458.072-.685zm6.732.141c.069.965-.014 2.205.008 3.537-.038.141-.08.279-.126.4-.166-.318-.375-.65-.624-1.1.187-1.06.425-2.023.743-2.837zm4.088.666c.157.646.286 1.283.395 1.912-.264.362-.507.777-.752 1.184.275-.236.544-.527.818-.77l.016.09a23.331 23.331 0 0 0-.719 2.723c-.067-.525-.162-.991-.267-1.428.017-.34.026-.672.029-1.004.119-1.015.283-1.91.48-2.707zm-10.478.225c.087.304.155.603.228.904-.055.249-.116.498-.17.746-.044-.226-.102-.422-.15-.642.035-.335.055-.675.092-1.008zm15.156.306c.07.522.133 1.047.195 1.57a5.276 5.276 0 0 0-.412-.411c-.022-.077-.043-.158-.066-.233.09-.308.175-.614.283-.926zm-14.195.022c.031.102.07.205.101.307-.043.17-.078.339-.12.51-.017.008-.032.021-.048.03l-.008-.019c.022-.277.05-.552.075-.828zm.244.738c.026.09.046.178.07.268a2.582 2.582 0 0 0-.09-.053c.008-.072.013-.143.02-.215zm3.25.158c.077.243.174.51.228.727-.176.453-.337.923-.488 1.414-.028-.148-.072-.274-.105-.414a21.32 21.32 0 0 1 .365-1.727zm-1.543.461c.07.382.144.753.201 1.164-.156.412-.305.834-.441 1.276-.02-.101-.049-.186-.07-.283.035-.293.08-.566.119-.852.079.063.156.133.236.19-.073-.1-.149-.191-.22-.292.056-.404.108-.818.175-1.203zm8.652.014h.002c.001.002 0 .005.004.006.103.456.193.934.276 1.42-.073.112-.143.224-.213.34a13.474 13.474 0 0 0-.25-1.125c.03-.194.054-.407.088-.592.03-.013.062-.039.093-.049zm-4.289.125c.165.565.282 1.087.34 1.555a5.134 5.134 0 0 1-.348-1.045c.002-.17.008-.343.008-.51zm-6.054.182c.085.021.166.07.25.107.044.188.087.374.127.56-.043.131-.09.252-.131.385a9.272 9.272 0 0 0-.264-1.04c.007-.004.011-.009.018-.012zm4.396.142c.171.518.307 1 .385 1.42a.866.866 0 0 1-.367.293c-.057-.3-.11-.477-.164-.695.048-.342.09-.69.146-1.018zm8.064.246c-.008.022-.014.047-.021.069l-.027-.028.048-.04zm.852.162c.02.328.03.688.043 1.041-.065-.094-.136-.18-.203-.271.047-.255.104-.512.16-.77zm-2.639.84c.006.034.01.065.014.098-.05.22-.105.431-.152.66-.025-.194-.065-.35-.096-.531l.234-.227zm3.577.131c.02.038.044.07.064.108.012.125.025.249.035.375-.033-.161-.065-.325-.1-.483zm-7.002.238c0 .01 0 .02.002.03l-.002.011v-.04z" opacity=".977" fill="#addb1f" fill-rule="evenodd"/><path d="M-35.453 28.77c.283 2.621.515 5.264.552 7.997.456.312.928.57 1.468.74-.012-1.605 0-3.11.082-4.338.088-1.34.243-2.406.492-3.098-.552 1.139-.94 2.64-1.262 4.292-.393-1.856-.847-3.721-1.332-5.592zm19.511.08c.318 2.949.665 5.882.625 8.995h.917c.168 0 .333-.01.498-.024-.016-1.693-.02-3.318.065-4.601.09-1.326.244-2.383.49-3.068-.551 1.138-.941 2.64-1.263 4.29-.394-1.855-.848-3.72-1.332-5.591zm-8.677 2.016c.208.707.183 1.784.163 3.026-.02 1.224-.028 2.61.192 3.953h2.03c.025-.656.05-1.264.151-1.928.105-.684.29-1.43.641-2.357-.365.75-.62 1.091-.833 1.502-.213.41-.384.89-.576 1.906-.305-.119-.515-.452-.672-.91-.158-.459-.263-1.044-.356-1.668-.184-1.249-.322-2.655-.74-3.524zm7.16.4c.046.436.094.873.142 1.307-.563 1.047-1.117 2.107-1.397 3.59a17.939 17.939 0 0 0-1.034-2.68c-.398-.811-.854-1.535-1.38-2.154.388.803.666 1.812.882 2.938.213 1.108.365 2.332.504 3.578H-15.93a111.254 111.254 0 0 0-1.188-5.182c.13-.422.254-.844.416-1.273-.159.326-.328.638-.496.951-.09-.359-.169-.715-.262-1.074zm5.944.17c-.45.819-.811 1.806-1.12 2.905-.284 1.018-.505 2.247-.72 3.402a5.96 5.96 0 0 0 1.17-.336c.017-1.234.051-2.412.146-3.373.109-1.101.276-1.991.524-2.597zm-19.544.483c-.42.764-.762 1.68-1.054 2.695a36.643 36.643 0 0 0-.731 3.068c.362.07.736.163 1.12.163h1.057c.28-.575.547-1.179.848-1.713.31-.552.655-1.03 1.087-1.332.501.156.956.764 1.43 1.176-.49-.825-.961-1.7-1.654-2.045-.593.403-1.072.98-1.512 1.619-.44.638-.844 1.336-1.282 1.979.048-2.52.243-4.514.69-5.61zm3.222.203c.462 1.424.69 3.505.869 5.723h1.22c.145-1.836.385-3.705.883-5.662-.49 1.498-1.094 2.738-1.351 4.771-.396-1.937-.914-3.595-1.621-4.832z" opacity=".977" fill="#73a00c" fill-rule="evenodd"/><path d="M-31.682 30.646c-.539 1.502-1.043 3-1.48 4.49-.36-1.326-.793-2.532-1.407-3.445.274.55.446 1.397.545 2.46.08.869.042 2.032.04 3.142.483.241 1.068.39 1.62.483-.019-2.423.339-4.828.682-7.13zm18.826.98c.276.554.449 1.41.547 2.485.085.928.131 2.096.123 3.296.42-.18.791-.42 1.15-.694a33.247 33.247 0 0 0-.59-2.276c-.324-1.076-.715-2.043-1.23-2.81zm-9.17.637c-.465.697-.617 1.827-.822 2.83-.103.502-.22.971-.395 1.34-.175.368-.41.637-.75.732-.213-.817-.401-1.2-.638-1.53-.237-.328-.524-.604-.93-1.206.4.76.605 1.347.719 1.885.11.517.132.993.16 1.53h2.266c.24-1.073.233-2.178.21-3.155-.022-.996-.05-1.86.18-2.426zm-7.967.324c-.103.289-.191.575-.293.863-.186-.25-.373-.501-.55-.763.18.345.32.682.465 1.021-.479 1.371-.963 2.766-1.344 4.125.07.003.166.012.236.012h4.031c.155-.994.321-1.972.557-2.856.24-.902.551-1.71.982-2.353a8.569 8.569 0 0 0-1.537 1.73 12.324 12.324 0 0 0-1.15 2.153c-.31-1.192-.929-2.042-1.555-2.883l.158-1.049zm-6.613.137c.275.486.461 1.198.582 2.08.023.163.028.747.046.922.313.454.646.699 1.077 1.04-.152-.51-.28-1.247-.463-1.716-.34-.88-.743-1.671-1.242-2.326zm21.748.387c.249.44.426 1.059.549 1.822.123.763.192 1.67.219 2.681-.487-.515-.935-1.076-1.426-1.587-.49-.512-1.024-.976-1.684-1.3-.77.279-1.295.98-1.841 1.641.528-.33 1.035-.82 1.593-.945.478.24.86.623 1.203 1.065.33.423.621.9.928 1.357h.89c.521 0 1.059-.06 1.536-.191a23.7 23.7 0 0 0-.797-2.385c-.324-.814-.704-1.547-1.17-2.158zm-3.586.162c-.786.993-1.364 2.325-1.804 3.88-.286-1.633-.959-2.628-1.504-3.832.55 1.563.818 3.057.98 4.524h1.363c.2-1.771.453-3.435.965-4.572z" opacity=".977" fill="#4d8304" fill-rule="evenodd"/><path d="M-31.53 32.064c.46 1.438.687 3.538.863 5.78h1.184c.142-1.853.384-3.743.879-5.72-.483 1.499-1.077 2.738-1.33 4.772-.39-1.938-.9-3.595-1.596-4.832z" fill="#73a00c"/><path d="M-17.001 14.378a3.976 3.976 0 1 1 0 7.952 3.976 3.976 0 0 1 0-7.952z" fill="#fffee4" fill-rule="evenodd"/></g></svg>