<svg xmlns="http://www.w3.org/2000/svg" xmlns:xlink="http://www.w3.org/1999/xlink" height="32" width="32" version="1"><defs><radialGradient xlink:href="#a" id="c" gradientUnits="userSpaceOnUse" gradientTransform="matrix(3.84537 -.04602 .03085 2.57762 108.915 -1.213)" cx="-27.763" cy="19.764" fx="-27.763" fy="19.764" r="14.102"/><radialGradient xlink:href="#b" id="d" cx="-23.55" cy="10.598" fx="-23.55" fy="10.598" r="14.102" gradientUnits="userSpaceOnUse" gradientTransform="matrix(1.3456 -.05032 .05356 1.43226 30.36 37.628)"/><linearGradient id="b"><stop offset="0" stop-color="#ffff1d"/><stop offset="1" stop-color="#ffff6f" stop-opacity="0"/></linearGradient><linearGradient id="a"><stop offset="0" stop-color="#ff7730"/><stop offset="1" stop-color="#8e80cb" stop-opacity="0"/></linearGradient></defs><g transform="translate(8.399 -31.733)"><rect ry="5.575" y="33.631" x="-6.5" height="28.203" width="28.203" fill="#a77da8" fill-rule="evenodd"/><path d="M-.925 33.631A5.563 5.563 0 0 0-6.5 39.205v10.713c1.004-.207 2.15-.502 2.979-.601 1.52-.182 2.772-.192 3.865-.086 1.093.106 2.025.33 2.902.625.878.294 1.7.657 2.575 1.039.873.382 1.799.782 2.88 1.152 1.082.37 2.321.71 3.823.969 1.501.259 3.265.435 5.398.482 1.06.024 2.528-.103 3.783-.15V39.205a5.563 5.563 0 0 0-5.576-5.574z" fill="#a77da8" fill-rule="evenodd"/><rect ry="5.575" y="33.631" x="-6.5" height="28.203" width="28.203" fill="url(#c)" fill-rule="evenodd"/><rect ry="5.575" y="33.631" x="-6.5" height="28.203" width="28.203" opacity=".977" fill="url(#d)" fill-rule="evenodd"/><path d="M4.866 61.203a8.339 8.339 0 0 0 .23-.203 8.339 8.339 0 0 0 .57-.61 8.339 8.339 0 0 0 .505-.663 8.339 8.339 0 0 0 .436-.711 8.339 8.339 0 0 0 .36-.75 8.339 8.339 0 0 0 .288-.783 8.339 8.339 0 0 0 .205-.81 8.339 8.339 0 0 0 .125-.823 8.339 8.339 0 0 0 .041-.832 8.339 8.339 0 0 0-.02-.59 8.339 8.339 0 0 0-.101-.828 8.339 8.339 0 0 0-.182-.813 8.339 8.339 0 0 0-.263-.79 8.339 8.339 0 0 0-.34-.76 8.339 8.339 0 0 0-.414-.725 8.339 8.339 0 0 0-.487-.678 8.339 8.339 0 0 0-.548-.625 8.339 8.339 0 0 0-.612-.568 8.339 8.339 0 0 0-.662-.506 8.339 8.339 0 0 0-.71-.436 8.339 8.339 0 0 0-.753-.361 8.339 8.339 0 0 0-.781-.287 8.339 8.339 0 0 0-.809-.205 8.339 8.339 0 0 0-.824-.125 8.339 8.339 0 0 0-.832-.041 8.339 8.339 0 0 0-.59.02 8.339 8.339 0 0 0-.828.1 8.339 8.339 0 0 0-.812.183 8.339 8.339 0 0 0-.791.263 8.339 8.339 0 0 0-.762.34 8.339 8.339 0 0 0-.723.414 8.339 8.339 0 0 0-.677.486 8.339 8.339 0 0 0-.596.522v6.619a5.563 5.563 0 0 0 5.574 5.576z" opacity=".977" fill="#fff" fill-rule="evenodd"/><g transform="matrix(.71383 0 0 .71383 44.007 43.027)" stroke-width="1.401"><rect width="1.288" height="1.932" x="-50.373" y="11.932" ry="0" fill="#986005"/><path d="M-46.94 12.676h-5.45l2.725-4.719z" fill="#74a10d"/><path d="M-47.372 11.022h-4.682l2.34-4.055z" fill="#98c305"/><path d="M-47.792 9.162h-3.723l1.861-3.224z" fill="#addb1e"/></g><path d="M10.918 52.292c-4.916.45-8.674 3.143-14.437 2.848-1.179-.108-2.151-.334-2.982-.647v1.768c0 .63.166 1.211.357 1.775.939-.5 1.87-.899 2.795-1.127a13.634 13.634 0 0 1 3.127-.377c2.09-.024 4.207.336 6.44.647 1.116.155 2.26.299 3.445.377 1.185.078 2.41.09 3.685-.018a20.586 20.586 0 0 0 3.992-.73c1.39-.4 2.84-.971 4.364-1.77-4.47-2.475-7.836-3.015-10.786-2.746z" fill="#97c607" fill-rule="evenodd"/><g transform="matrix(1.80743 0 0 1.80743 105.003 32.371)" stroke-width=".553"><rect width="1.288" height="1.932" x="-50.373" y="11.932" ry="0" fill="#986005"/><path d="M-46.94 12.676h-5.45l2.725-4.719z" fill="#74a10d"/><path d="M-47.372 11.022h-4.682l2.34-4.055z" fill="#98c305"/><path d="M-47.792 9.162h-3.723l1.861-3.224z" fill="#addb1e"/></g><path d="M21.704 55.038a23.141 23.141 0 0 1-4.364 1.77 20.586 20.586 0 0 1-3.992.73c-1.276.107-2.5.096-3.685.018a47.427 47.427 0 0 1-3.446-.377c-2.232-.31-4.35-.67-6.44-.647-1.044.012-2.083.12-3.126.377-.925.228-1.856.628-2.795 1.127.746 2.2 2.76 3.8 5.219 3.8h17.052a5.563 5.563 0 0 0 5.577-5.575z" fill="#74a10d" fill-rule="evenodd"/></g></svg>