<svg xmlns="http://www.w3.org/2000/svg" height="32" width="32" version="1"><rect width="28.203" height="28.203" x="1.898" y="1.898" ry="5.575" fill="#4f4f4f" fill-rule="evenodd"/><path d="M16 6.404c-2.421 0-4.629.757-6.258 2.026-1.629 1.27-2.688 3.085-2.688 5.106v.73c-1.617.82-2.738 2.968-2.738 5.488 0 3.225 1.835 5.842 4.199 5.842v-12.06c0-1.514.782-2.907 2.127-3.955C11.987 8.533 13.887 7.865 16 7.865c2.113 0 4.013.668 5.358 1.716 1.344 1.048 2.127 2.441 2.127 3.955V24.76h-.548V14.095c-.365 0-.73.182-.912.364v10.302h-2.082c.143-.246.23-.528.23-.834v-.835c0-.924-.745-1.669-1.67-1.669h-3.338c-.924 0-1.669.745-1.669 1.67v.834c0 .925.745 1.669 1.67 1.669h8.345v-.002c2.352-.019 4.173-2.627 4.173-5.84 0-2.52-1.12-4.669-2.738-5.488v-.73c0-2.021-1.06-3.836-2.688-5.106C20.628 7.16 18.42 6.404 16 6.404zm-6.938 7.69v11.502c.366 0 .73-.183.913-.548V14.46a1.397 1.397 0 0 0-.913-.364z" fill="#f9f9f9"/></svg>