<svg xmlns="http://www.w3.org/2000/svg" height="32" width="32" version="1"><rect width="28.203" height="28.203" x="1.898" y="1.898" ry="5.575" fill="#f8d7ae" fill-rule="evenodd"/><path d="M21.999 9c-1.745 0-2.728.907-3.143 1.787-.414.881-.357 1.742-.357 1.742l1-.058s-.03-.639.262-1.258c.291-.62.808-1.213 2.238-1.213s1.947.593 2.238 1.213c.292.619.262 1.258.262 1.258l1 .058s.057-.861-.357-1.742C24.727 9.907 23.744 9 21.999 9zm0 3a.5.5 0 0 0-.5.5.5.5 0 0 0 .5.5.5.5 0 0 0 .5-.5.5.5 0 0 0-.5-.5zm-11.998 1c-1.745 0-2.728.907-3.143 1.787-.414.881-.357 1.742-.357 1.742V23h1v-6.529s-.03-.639.262-1.258C8.054 14.593 8.57 14 10 14c1.429 0 1.946.593 2.238 1.213.292.619.262 1.258.262 1.258V23h1v-6.529s-.03-.639.262-1.258c.291-.62.808-1.213 2.238-1.213 1.429 0 1.946.593 2.238 1.213.292.619.262 1.258.262 1.258v.013l-.002 2.016v.971s-.057.861.357 1.742c.415.88 1.398 1.787 3.143 1.787 1.745 0 2.728-.907 3.143-1.787.414-.881.357-1.742.357-1.742V13h-1v6.529s.03.639-.262 1.258c-.291.62-.808 1.213-2.238 1.213s-1.947-.593-2.238-1.213c-.292-.619-.262-1.258-.262-1.258V18.5l.002-1.971s.057-.861-.357-1.742c-.415-.88-1.398-1.787-3.143-1.787-1.573 0-2.524.737-3 1.527-.476-.79-1.427-1.527-3-1.527z" fill="#2a567b" fill-rule="evenodd"/></svg>