<svg xmlns="http://www.w3.org/2000/svg" height="32" width="32" version="1"><g fill-rule="evenodd"><path d="M15.889 30.102h8.638a5.563 5.563 0 0 0 5.575-5.577V7.473a5.561 5.561 0 0 0-5.575-5.575H15.89z" fill="#ffba58"/><path d="M15.889 30.102V1.898H7.475a5.563 5.563 0 0 0-5.577 5.575v17.052a5.565 5.565 0 0 0 5.577 5.577z" fill="#736dab"/></g><circle cy="16" cx="16" r="10" fill="#fff"/><path d="M13.5 10v7.051A2.5 2.5 0 0 0 13 17a2.5 2.5 0 0 0-2.5 2.5A2.5 2.5 0 0 0 13 22a2.5 2.5 0 0 0 2.5-2.5V12h4v3.051A2.5 2.5 0 0 0 19 15a2.5 2.5 0 0 0-2.5 2.5A2.5 2.5 0 0 0 19 20a2.5 2.5 0 0 0 2.5-2.5V10z" fill="#333"/></svg>