<svg xmlns="http://www.w3.org/2000/svg" width="32" height="32" version="1"><g transform="translate(45.288 4.881)"><path d="M-16.559 23.208l-.67.168h-24.148c-.112 0-.393-.095-.617-.132 1.02 1.187 2.484 1.976 4.18 1.976h17.052c1.712 0 3.182-.806 4.203-2.012z" fill="#999" fill-rule="evenodd"/><path d="M-15.217 19.8V9.09a1.4 1.4 0 0 0-.562-1.124l.006-.007-13.53-9.938-13.445 9.889v-.002c-.029.018-.057.041-.084.062l-.015.012v.002a1.402 1.402 0 0 0-.543 1.105v10.557c0 1.393.558 2.623 1.396 3.598.224.037.505.132.617.132h24.149l.67-.167c.789-.933 1.304-2.095 1.341-3.409z" fill="#4e4e4e" fill-rule="evenodd"/><path d="M-37.814-2.983a5.565 5.565 0 0 0-5.577 5.576V9.09c0-.45.215-.848.543-1.105v-.002l.016-.012c.027-.02.055-.044.084-.062v.002A95774.3 95774.3 0 0 0-29.303-1.98l13.53 9.937-.006.008a1.4 1.4 0 0 1 .562 1.123V19.8c.002-.054.031-.1.031-.154V2.593a5.565 5.565 0 0 0-5.576-5.576z" fill="#999" fill-rule="evenodd"/><rect x="-40.371" y="1.039" width="22.136" height="18.112" ry="1.508" rx="1.509" fill="#ebebeb"/><path d="M-29.303 4.057a5.031 5.031 0 0 0-5.03 5.031 5.031 5.031 0 0 0 5.03 5.031h3.522a.502.502 0 1 0 0-1.006h-3.522a4.025 4.025 0 0 1-4.025-4.025 4.025 4.025 0 0 1 4.025-4.024 4.025 4.025 0 0 1 4.025 4.024v1.51a.502.502 0 1 1-1.006 0v-1.51a3.019 3.019 0 0 0-3.019-3.018 3.019 3.019 0 0 0-3.018 3.018 3.019 3.019 0 0 0 3.018 3.019 3.019 3.019 0 0 0 2.144-.896c.235.528.76.896 1.378.896.836 0 1.509-.673 1.509-1.509v-1.51a5.031 5.031 0 0 0-5.031-5.03zm0 3.019a2.012 2.012 0 0 1 2.013 2.012 2.012 2.012 0 0 1-2.013 2.013 2.012 2.012 0 0 1-2.012-2.013 2.012 2.012 0 0 1 2.012-2.012z" fill="#848484"/><path d="M-15.217 19.8V9.09l-23.142 16.02c.188.02.351.11.545.11h17.052c3.034 0 5.46-2.407 5.545-5.42z" fill="#6a6a6a" fill-rule="evenodd"/><path d="M-29.303 18.841L-43.389 9.09v10.557c0 2.895 2.212 5.18 5.03 5.465z" fill="#4f4f4f" fill-rule="evenodd"/></g></svg>