<svg xmlns="http://www.w3.org/2000/svg" height="32" width="32" version="1"><rect width="28.203" height="28.203" x="1.898" y="1.898" ry="5.575" fill="#3e50b4" fill-rule="evenodd"/><g transform="translate(.5)" fill="#92aeff"><circle cy="9.5" cx="20.5" r="3.5"/><path d="M20.5 15a3.5 3.438 0 0 0-3.5 3.438 3.5 3.438 0 0 0 .003.076l-.003.003V26h7v-7.522l-.001-.003a3.5 3.438 0 0 0 0-.037A3.5 3.438 0 0 0 20.5 15z"/><circle cy="9.5" cx="14" r="3"/><path d="M14 14a3 3.125 0 0 0-3 3.125 3 3.125 0 0 0 .002.07l-.002.002V24h6v-6.841a3 3.125 0 0 0 0-.034A3 3.125 0 0 0 14 14z"/><circle cy="9.5" cx="9" r="2"/><path d="M9 13a2 2.188 0 0 0-2 2.188 2 2.188 0 0 0 .002.048L7 15.238V20h4v-4.788a2 2.188 0 0 0 0-.023A2 2.188 0 0 0 9 13z"/></g></svg>