<svg xmlns="http://www.w3.org/2000/svg" height="32" width="32" version="1"><rect width="28.203" height="28.203" x="1.898" y="1.898" ry="5.575" fill="#26557c" fill-rule="evenodd"/><path d="M7.525 7c-.782-.016-1.15.525-.988 1.457.052.3.315.73.883 1.442.63.79.885 1.222 1.16 1.97.433 1.18.634 1.575.986 1.943.274.287.274.288.09.872-.285.905-.344 2.72-.115 3.574.342 1.277.764 1.857 1.352 1.857.419 0 .763-.35.886-.904.043-.192.123-.466.178-.609.095-.248.12-.229.494.38.216.353.629.88.916 1.168.664.67 1.575 1.422 1.64 1.358.029-.027-.237-.422-.59-.879-.351-.457-1.014-1.519-1.474-2.359-.536-.98-.9-1.529-1.013-1.53-.371-.002-.716.58-.916 1.547-.231 1.114-.637.927-.967-.445-.19-.79-.091-1.856.264-2.854.16-.453.293-.873.293-.93 0-.059-.258-.545-.573-1.08-.315-.538-.685-1.298-.822-1.69-.333-.955-.49-1.233-1.159-2.044-.687-.835-.753-1.22-.205-1.217.426.003 1.113.29 1.803.754.438.294.586.334 1.288.334.88 0 1.07.073 2.293.877 1.244.82 2.172 1.582 2.814 2.313.57.65.882 1.214 2.56 4.656.645 1.321 1.216 1.96 2.004 2.232 1.218.422 1.632.613 2.168.998l.567.407-.381.074c-.21.04-.67.106-1.018.146-.727.084-1.203.386-1.203.764 0 .426 1.45 1.645 2.906 2.441.7.383 1.372.76 1.495.838.326.21.414.184.33-.09-.177-.579-.773-1.14-2.43-2.296-.972-.678-.982-.653.316-.782.926-.092 1.393-.25 1.393-.472 0-.102-.47-.644-1.045-1.203-.9-.877-1.204-1.094-2.195-1.577-1.35-.656-1.842-1.177-2.153-2.283-.464-1.65-1.712-3.587-3.371-5.23-1.712-1.696-3.347-2.634-4.845-2.781-.61-.06-.924-.153-1.24-.366-.533-.36-1.771-.768-2.376-.78zm2.963 3.002c-.122-.008-.23.008-.302.06-.274.186-.241.414.08.555.15.067.365.302.476.522.375.74.95.244.694-.598-.081-.265-.58-.515-.948-.539z" fill="#fff"/></svg>