<svg xmlns="http://www.w3.org/2000/svg" height="32" width="32" version="1"><defs><linearGradient id="a"><stop offset="0"/><stop stop-opacity="0" offset="1"/></linearGradient></defs><rect width="28.203" height="28.203" x="1.898" y="1.898" ry="5.575" fill="gray" fill-rule="evenodd"/><path d="M21.228 26.145c.268-.068.477-.19.68-.397.185-.189.206-.223 2.675-4.492 1.368-2.366 2.504-4.351 2.523-4.41.12-.368.093-.765-.074-1.095-.095-.188-4.846-8.38-4.963-8.558a1.541 1.541 0 0 0-.743-.562l-.146-.054-5.104-.007-5.104-.007-.188.059c-.294.091-.579.287-.751.517-.077.102-4.946 8.512-5.017 8.664-.166.359-.15.83.042 1.205.17.333 4.946 8.541 5.036 8.654.173.218.541.436.831.495.052.01 2.36.02 5.129.021 4.425.002 5.051-.002 5.174-.033z" fill="#f2f2f2"/><path d="M10.749 26.814c-.404-.107-.911-.422-1.165-.724-.136-.163-5.06-8.688-5.136-8.894-.1-.268-.128-.446-.128-.8 0-.384.047-.635.17-.898.116-.25 4.93-8.582 5.053-8.745.24-.32.78-.665 1.216-.776.183-.047.252-.047 5.282-.047 5.02 0 5.1 0 5.28.047.5.127 1.026.485 1.298.882.095.138 4.953 8.582 4.998 8.688.126.293.182.75.138 1.12-.058.482.067.248-2.649 4.96-1.578 2.739-2.534 4.374-2.608 4.463-.257.307-.765.62-1.175.725-.185.047-.233.048-5.292.047-5.002-.002-5.11-.003-5.282-.048zm10.48-.669c.267-.068.476-.19.679-.397.185-.189.206-.223 2.675-4.492 1.368-2.366 2.504-4.351 2.523-4.41.12-.368.093-.765-.074-1.095-.095-.188-4.846-8.38-4.963-8.558a1.541 1.541 0 0 0-.743-.562l-.146-.054-5.104-.007-5.104-.007-.188.059c-.294.091-.579.287-.751.517-.077.102-4.946 8.512-5.017 8.664-.166.359-.15.83.042 1.205.17.333 4.946 8.541 5.036 8.654.173.218.541.436.831.495.052.01 2.36.02 5.129.021 4.425.002 5.051-.002 5.174-.033zM11.03 25.032c-.073-.039-.358-.52-2.545-4.287-1.354-2.333-2.47-4.278-2.478-4.32a.303.303 0 0 1 .018-.166c.032-.08 4.724-8.205 4.855-8.407a.513.513 0 0 1 .134-.136c.074-.045.153-.046 5.015-.046 4.75 0 4.943.002 5.021.043.073.039.286.395 1.876 3.135 3.036 5.233 3.137 5.41 3.15 5.487a.342.342 0 0 1-.022.157c-.033.078-4.734 8.215-4.854 8.402a.509.509 0 0 1-.133.135c-.075.045-.153.046-5.015.046-4.763 0-4.943-.001-5.022-.043zm8.385-1.815a1.24 1.24 0 0 0 .381-.13c.409-.2.288-.017 2.184-3.311 1.877-3.26 1.767-3.042 1.746-3.482a1.223 1.223 0 0 0-.058-.356c-.034-.088-2.53-4.444-3.538-6.174l-.103-.177-.015.341c-.008.188-.016 1.59-.018 3.117-.002 2.178-.01 2.788-.033 2.834-.045.09-.132.088-.22-.005-.062-.065-.823-1.367-3.11-5.32-.325-.563-.43-.691-.688-.844a1.929 1.929 0 0 0-.303-.14c-.148-.05-.19-.052-1.443-.06-1.369-.009-1.587.003-1.811.093a1.625 1.625 0 0 0-.534.372c-.1.12-3.368 5.78-3.442 5.963-.07.172-.07.698 0 .87.034.083 3.478 6.089 3.629 6.327.008.013.02-1.395.026-3.128.013-3.444.006-3.284.144-3.3.045-.006.08.014.131.073.04.044.816 1.385 1.727 2.98 1.216 2.13 1.687 2.934 1.773 3.03.198.218.487.377.773.425.17.028 2.6.03 2.802.002z"/><path d="M16.042 5.931c-5.03 0-5.099.001-5.282.048-.436.11-.978.456-1.217.776-.123.163-4.936 8.494-5.053 8.744-.122.263-.17.513-.17.898 0 .354.03.531.129.8.077.205 4.999 8.73 5.135 8.894.253.302.76.617 1.165.723.172.046.28.047 5.282.048 5.06.001 5.107.002 5.292-.046.41-.105.919-.419 1.175-.725.075-.09 1.03-1.723 2.608-4.462 2.716-4.712 2.591-4.478 2.65-4.96.043-.37-.012-.828-.138-1.12-.045-.106-4.903-8.551-4.998-8.69-.272-.396-.799-.755-1.297-.882-.181-.047-.26-.046-5.28-.046zm-5.07.632l5.105.007 5.105.006.145.057c.316.118.583.32.741.56.117.178 4.869 8.37 4.963 8.558.168.33.196.728.077 1.095-.02.06-1.157 2.043-2.526 4.41-2.469 4.269-2.49 4.305-2.675 4.493-.203.208-.41.33-.678.398v-.002c-.123.031-.748.037-5.174.035-2.769-.002-5.076-.012-5.128-.022-.29-.058-.66-.278-.832-.495-.09-.113-4.868-8.32-5.038-8.654-.19-.375-.207-.847-.04-1.206.07-.151 4.94-8.562 5.017-8.664.172-.23.458-.426.752-.517z"/><path d="M19.416 23.217a1.24 1.24 0 0 0 .381-.13c.409-.2.288-.017 2.184-3.311 1.877-3.26 1.767-3.042 1.746-3.482a1.223 1.223 0 0 0-.058-.356c-.034-.088-2.53-4.444-3.538-6.174l-.103-.177-.015.341c-.008.188-.016 1.59-.018 3.117-.002 2.178-.01 2.788-.033 2.834-.045.09-.132.088-.22-.005-.062-.065-.823-1.367-3.11-5.32-.325-.563-.43-.691-.688-.844a1.929 1.929 0 0 0-.303-.14c-.148-.05-.19-.052-1.443-.06-1.369-.009-1.587.003-1.811.093a1.625 1.625 0 0 0-.534.372c-.1.12-3.368 5.78-3.442 5.963-.07.172-.07.698 0 .87.034.083 3.478 6.089 3.629 6.327.008.013.02-1.395.026-3.128.013-3.444.006-3.284.144-3.3.045-.006.08.014.131.073.04.044.816 1.385 1.727 2.98 1.216 2.13 1.687 2.934 1.773 3.03.198.218.487.377.773.425.17.028 2.6.03 2.802.002z" fill="#f2f2f2"/></svg>