<svg xmlns="http://www.w3.org/2000/svg" width="32" height="32" version="1"><rect width="28.203" height="28.203" x="1.898" y="1.898" ry="5.575" fill="#4f4f4f" fill-rule="evenodd"/><path d="M14.5 4.5v5h3v-5zm0 9v5h3v-5zm0 9v5h3v-5z" fill="#fff"/><g transform="matrix(.75 0 0 .75 4.75 5.212)" stroke-width="1.333"><circle r="8" cy="23" cx="24" fill="#3f8ce6" fill-rule="evenodd"/><path d="M23 16v2.102A5 5 0 0 0 19.105 22H17v2h2.102A5 5 0 0 0 23 27.895V30h2v-2.102A5 5 0 0 0 28.895 24H31v-2h-2.102A5 5 0 0 0 25 18.105V16zm1 5a2 2 0 0 1 2 2 2 2 0 0 1-2 2 2 2 0 0 1-2-2 2 2 0 0 1 2-2z" fill="#fff"/></g></svg>