<svg xmlns="http://www.w3.org/2000/svg" height="32" width="32"><rect width="28.203" height="28.203" x="1.898" y="1.898" ry="5.575" fill="#40a000" fill-rule="evenodd"/><path d="M16.608 13.663c-1.875-.099-4.015.209-5.427 1.34-2.284 1.83-3.356 4.568-2.153 7.75.35.929 1.656 1.751 2.88 2.419 5.083 1.905 10.083-.26 12.847-3.593.949-1.17.36-2.514-.207-3.292-1.708-2.345-3.899-4.41-7.94-4.624zm-.813-7.546c-3.14-.03-6.331 1.729-7.92 3.808-1.303 1.708-2.3 3.432-2.519 5.502h.002c.054 1.177.656 1.962 2.02 2.021.37.016.74.023 1.111.032.449-1.153 1.177-2.262 2.246-2.993 1.661-1.137 3.844-1.54 5.833-1.458.331.013.658.04.976.08.22-1.624.522-3.259.454-4.91-.055-1.32-1.223-2.054-2.204-2.082zm6.273 2.39c-.888 1.767-1.872 3.365-2.834 4.972 2.295.717 4.346 2.335 5.776 4.556.131.204.238.4.327.593.647-.093 1.006-.694 1.108-1.362.714-4.672-.598-7.023-2.295-8.942-.79-.887-1.485-.964-2.081.184z" fill="#fff"/></svg>