<svg xmlns="http://www.w3.org/2000/svg" height="32" width="32"><rect width="28.203" height="28.203" x="1.898" y="1.898" ry="5.575" fill="#10a0b0" fill-rule="evenodd"/><path d="M16.614 13.64c-1.893-.1-4.055.211-5.48 1.354-2.306 1.848-3.388 4.612-2.174 7.825.354.937 1.672 1.768 2.909 2.442 5.131 1.923 10.18-.263 12.97-3.628.959-1.181.364-2.538-.208-3.324-1.725-2.368-3.937-4.453-8.017-4.669zm-.821-7.619c-3.17-.03-6.393 1.746-7.996 3.846-1.316 1.724-2.324 3.464-2.544 5.555h.001c.055 1.188.663 1.98 2.04 2.04.374.017.748.023 1.122.033.453-1.165 1.188-2.285 2.267-3.023 1.678-1.147 3.882-1.554 5.89-1.472.335.014.665.04.986.081.222-1.64.527-3.29.458-4.957-.055-1.334-1.235-2.074-2.225-2.103zm6.334 2.413c-.896 1.784-1.89 3.398-2.861 5.021 2.317.723 4.387 2.357 5.831 4.6.133.206.24.404.33.599.654-.094 1.017-.701 1.12-1.376.72-4.717-.604-7.09-2.318-9.029-.797-.895-1.5-.973-2.101.186z" fill="#fff"/></svg>