<svg xmlns="http://www.w3.org/2000/svg" height="32" width="32" version="1"><rect width="28.203" height="28.203" x="1.898" y="1.898" ry="5.575" fill="#e32e2e" fill-rule="evenodd"/><path d="M13.169 8.46c-4.94 2.286-6.26 6.026-5.386 9.864 1.993 8.74 8.759 7.083 9.935 6.886 1.948-.327 5.843-1.259 6.628-6.12.802-4.969-2.439-6.935-4.393-7.366-2.455-.542-4.467-.2-5.583 1.531-1.035 1.606-1.121 3.59-.468 4.923.596 1.216 1.151 1.26 2.074 1.282 3.184.071 3.615-1.388 3.268-3.251-.805-3.964-2.662-5.088-2.023-8.151.654-2.064 2.8-1.776 4.248-.599" fill="none" stroke="#fff" stroke-width="3" stroke-linecap="round" stroke-linejoin="round"/></svg>