<svg xmlns="http://www.w3.org/2000/svg" height="32" width="32" version="1"><rect width="28.203" height="28.203" x="1.898" y="1.898" ry="5.575" fill="#4f4f4f" fill-rule="evenodd"/><path d="M13.118 6.001a.312.312 0 0 0-.294.243c-.024.13.005.192.058.304.248.46.492.82.588 1.094.166.38.163.733.118.973l-.294 1.459c-1.485.355-2.918.714-4.352 1.215-.28.093-.492.186-.706.304a.176.176 0 0 0-.059 0c-.075.046-.078.115-.117.183-.02.034-.054.073-.06.121a.292.292 0 0 0 .06.183c.125.178.293.252.529.364.236.113.506.229.706.304a14.6 14.6 0 0 0 3.293.79c-.273 1.272-.536 2.53-.94 3.769a10.49 10.49 0 0 1-.354.912c-.37.849-.839 1.624-1.294 2.37-.48.696-.885 1.375-1.411 2.006-.098.107-.257.2-.353.304-.048.052-.083.136-.118.182-.017.023-.043.033-.058.06-.015.029-.006.044 0 .122a.194.194 0 0 0 0 .061.184.184 0 0 0 .058.061.184.184 0 0 0 .06.06c.019.004.039.004.058 0 .105.017.192-.027.294-.06.102-.033.172-.062.294-.122.244-.118.558-.252.823-.425.382-.25.663-.503.883-.669.387-.292 1.26-1.131 1.705-1.702.513-.602 1.058-1.249 1.47-2.066.008-.016-.007-.045 0-.06.029-.051.192-.373.236-.487.088-.228.147-.454.176-.547l1.294-4.073 4.529-1.094c-.113.982-.239 1.934-.353 2.918-.088.811-.147 1.138-.236 2.006-.002.026.003.033 0 .06-.05.268-.196 1.02-.235 1.216-.3 1.51-.623 2.879-1.294 4.073-.16.232-.346.477-.529.668a1.967 1.967 0 0 0-.823-.243h-.06a.176.176 0 0 0-.058 0l-.059.06a.184.184 0 0 0-.059.062c-.025.138.02.244.06.364.038.12.07.255.117.365.34.795.739 1.481 1.117 2.188a.184.184 0 0 0 .059.061.184.184 0 0 0 .059.06c.02.004.04.004.059 0 .02.004.039.004.058 0a.185.185 0 0 0 .06-.06c.564-.553 1.228-1.445 1.705-2.188a19.552 19.552 0 0 0 2.293-4.924c.084-.286.153-.576.236-.911l1.764-6.99c.075-.31.16-.653.176-.912a.188.188 0 0 0 0-.06c-.036-.09-.116-.138-.176-.183-.06-.046-.1-.083-.176-.122a5.098 5.098 0 0 0-.528-.245 26.652 26.652 0 0 0-2.764-.79.558.558 0 0 0-.294-.061 3.581 3.581 0 0 0-.412.06c-.255.05-.518.142-.706.183l-2.353.547c.1-.323.263-.8.118-1.398-.2-.68-.719-1.076-1.294-1.277-.49-.171-.968-.323-1.47-.486-.082-.026-.45-.161-.824-.182z" fill="#b7b7b7"/></svg>