<svg xmlns="http://www.w3.org/2000/svg" height="32" width="32" version="1"><g transform="translate(0 -.16)" fill-rule="evenodd"><rect ry="5.575" y="1.898" x="1.898" height="28.203" width="28.203" fill="#4966ff"/><path d="M30.102 20.174c-.347.256-1.066.805-2.397 1.611-.805.488-1.691.976-2.537 1.342-.846.366-1.65.611-2.295.611-.644 0-1.45-.27-2.35-.676-.899-.405-1.891-.946-2.912-1.486-1.02-.54-2.067-1.08-3.074-1.486-1.007-.405-1.973-.674-2.832-.674-.86 0-1.666.269-2.418.674-.752.405-1.45.946-2.094 1.486-.644.54-1.234 1.081-1.771 1.486-.537.406-1.02.676-1.45.676-.429 0-.806-.245-1.128-.611-.322-.366-.59-.854-.805-1.342-.094-.213-.067-.223-.14-.426v3.598a5.561 5.561 0 0 0 5.574 5.574h17.054a5.561 5.561 0 0 0 5.575-5.574z" fill="#19c171"/><path d="M7.473 1.79a5.561 5.561 0 0 0-5.575 5.574v7.516c.255-.309.457-.615 1.215-1.231a8.819 8.819 0 0 1 1.907-1.2c.724-.326 1.53-.544 2.388-.544.86 0 1.672.178 2.46.445.786.267 1.547.624 2.306.977.758.353 1.513.703 2.287.96.774.259 1.566.424 2.398.407a2.89 2.89 0 0 0 1.22-.32c.396-.196.785-.47 1.165-.8.76-.656 1.489-1.525 2.193-2.392.705-.867 1.385-1.733 2.051-2.38.666-.649 1.319-1.079 1.963-1.079 1.289 0 2.577.453 3.543.907.664.311.852.458 1.108.623v-1.89a5.561 5.561 0 0 0-5.575-5.573z" fill="#494949"/></g></svg>