<svg xmlns="http://www.w3.org/2000/svg" height="32" width="32" version="1"><rect width="28.203" height="28.203" x="1.898" y="1.898" ry="5.575" fill="#dcdcbe" fill-rule="evenodd"/><g fill="#2a2a2a"><path d="M5 10v1h22v-1zm0 3v1h22v-1zm0 3v1h22v-1zm0 3v1h22v-1zm0 3v1h22v-1z" opacity=".5" fill-rule="evenodd"/><path d="M14.196 16.388a3.002 3.002 0 0 0-2.452-.93c-.084-.156-.422-1.706-.422-1.706s1.183-1.628 1.437-1.938c1.268-1.86 1.352-3.333.591-4.806C13.097 6.465 12.42 6 11.744 6c-.507 0-.93.388-1.183.853-.845 1.318-.845 3.798-.423 5.504 0 0-.422.387-.845.852-.845.853-1.775 1.783-2.113 3.024-.423 1.395-.085 2.713.845 3.72 1.015 1.163 2.536 1.706 4.396 1.55.338 1.474.591 2.404.084 3.257-.169.31-.507.62-1.099.62-.169 0-.253 0-.422-.078.507-.232.93-.697.93-1.24 0-.775-.677-1.395-1.522-1.395-1.437.077-1.522 1.395-1.522 1.395 0 .465.17.93.508 1.24.422.388 1.098.698 1.86.698.93 0 1.859-.31 2.197-1.55.338-1.008-.254-2.636-.338-3.179.93-.387 1.775-1.55 1.86-2.325.169-.853-.17-1.86-.761-2.558zM11.49 7.783a.472.472 0 0 1 .422-.233c.085 0 .254.078.339.155.338.156.422.466.422.93-.084 1.163-1.183 2.559-1.775 3.024-.253-1.085-.084-3.1.592-3.876zM9.04 19.953c-.592-.542-.846-1.317-.761-2.093.169-1.24 1.099-2.248 1.86-3.023.168-.155.337-.31.422-.465.085.388.338 1.008.423 1.318-1.015.388-1.606 1.628-1.522 2.636 0 .465.17.775.423 1.085.084.077.169.155.253.155.085 0 .254-.078.254-.155a.221.221 0 0 0 0-.31c-.085-.078-.085-.155-.085-.31-.084-.698.423-1.24 1.015-1.473.084.465.676 2.868.76 3.41-1.098.31-2.282 0-3.042-.775zm3.803.466c-.169-.543-.253-1.163-.422-1.86-.085-.466-.17-1.009-.338-1.474 1.098 0 1.436.853 1.521 1.163.254.853 0 1.705-.76 2.17z"/></g></svg>