<svg xmlns="http://www.w3.org/2000/svg" height="32" width="32" version="1"><rect width="28.203" height="28.203" x="1.898" y="1.898" ry="5.575" fill="#39a7da" fill-rule="evenodd"/><path d="M25.306 24.017l-.76-.524-.01.29-.01.29h-2.602v-4.916H20.603v4.916h-4.292V15.01H14.99V24.073H13.779v-7.998h-1.32v7.998H7.541v-6.494c0-3.571.007-6.493.016-6.493.009 0 1.42.99 3.138 2.202a293.274 293.274 0 0 0 3.167 2.219c.027.01.467-.668 1.107-1.706l1.062-1.72.277.192c.152.106 1.449 1 2.881 1.985 1.433.986 2.618 1.803 2.633 1.815.015.013-.34.39-.789.838l-.816.814h5.374v-5.661l-.119.136c-.377.43-1.773 1.962-1.788 1.963-.01.001-1.9-1.36-4.199-3.024s-4.194-3.012-4.211-2.995c-.017.017-.516.822-1.108 1.79-.592.966-1.095 1.757-1.117 1.757-.022 0-1.274-.867-2.783-1.926L7.524 7.839l.321-.01c.177-.007.321-.02.321-.03 0-.031-1.148-1.52-1.17-1.518-.013 0-.256.343-.542.761l-.52.76.272.01.272.011v17.244l9.016-.006 9.016-.005.01.331.011.332.767-.59.768-.59z" fill="#fff"/></svg>