<svg xmlns="http://www.w3.org/2000/svg" xmlns:xlink="http://www.w3.org/1999/xlink" height="32" width="32" version="1"><defs><radialGradient xlink:href="#a" id="b" cx="16.393" cy="16.363" fx="16.393" fy="16.363" r="14.102" gradientUnits="userSpaceOnUse" gradientTransform="matrix(2.06284 .0002 -.00017 1.78703 -17.051 -11.385)"/><linearGradient id="a"><stop offset="0" stop-color="#eef4f7"/><stop offset="1" stop-color="#e6e6e6"/></linearGradient></defs><rect width="28.203" height="28.203" x="1.85" y="3.109" ry="5.575" fill="url(#b)" fill-rule="evenodd"/><path fill="#fffdf0" d="M9.06 12.743h7.478v2.719H9.06z"/><path d="M18.665 10.704c-1.294 0-1.714 1.02-2.379 2.04h-6.203c-.942 0-1.7.757-1.7 1.699V22.6c.004.095.025.187.043.276.08.47.349.871.744 1.126.188.122.406.21.637.255.116.024.217.043.34.043h12.79c.123 0 .224-.018.34-.043.23-.045.448-.133.636-.255.395-.255.663-.656.744-1.126.019-.09.038-.182.043-.276V12.488c0-.994-.781-1.784-1.763-1.784h-4.27z" fill-opacity=".102"/><path d="M9.4 11.384c-.942 0-1.7.758-1.7 1.7v6.457h2.72v-8.157z" fill="#617fa1"/><path d="M13.818 11.384v8.157h4.08v-8.157z" fill="#cdc22c"/><path d="M10.42 11.384v8.157h3.398v-8.157z" fill="#5a945c"/><path d="M9.4 11.384c-.942 0-1.7.758-1.7 1.7v.679c0-.942.758-1.7 1.7-1.7h12.236c.942 0 1.7.758 1.7 1.7v-.68c0-.941-.758-1.7-1.7-1.7z" opacity=".2" fill="#fff"/><path d="M9.474 14.103c-1.065 0-1.774.945-1.774 2.02v5.704a1.78 1.78 0 0 0 1.774 1.794h.945v-9.517h-.945" fill="#9ab9dd"/><path d="M13.818 13.71a4.466 4.466 0 0 1-1.507.393H10.42v9.517h3.4z" fill="#9add9c"/><path d="M17.986 10.024c-.032 0-.058.008-.09.01V23.62h3.4V10.024z" fill="#edb968"/><path d="M21.296 10.024V23.62h.947c.978 0 1.766-.792 1.772-1.78V11.804a1.78 1.78 0 0 0-1.772-1.78h-.947" fill="#ed8e68"/><path d="M17.897 10.03c-1.996.08-1.873 2.651-4.079 3.677v9.91h4.08z" fill="#f3f284"/><path d="M7.7 21.24v.68c0 .942.79 1.7 1.774 1.7h12.768c.983 0 1.774-.758 1.774-1.7v-.68c0 .942-.79 1.7-1.774 1.7H9.474c-.983 0-1.774-.758-1.774-1.7z" opacity=".15"/></svg>