<?xml version="1.0" encoding="UTF-8" standalone="no"?>
<svg
   xmlns:dc="http://purl.org/dc/elements/1.1/"
   xmlns:cc="http://creativecommons.org/ns#"
   xmlns:rdf="http://www.w3.org/1999/02/22-rdf-syntax-ns#"
   xmlns:svg="http://www.w3.org/2000/svg"
   xmlns="http://www.w3.org/2000/svg"
   xmlns:xlink="http://www.w3.org/1999/xlink"
   xmlns:sodipodi="http://sodipodi.sourceforge.net/DTD/sodipodi-0.dtd"
   xmlns:inkscape="http://www.inkscape.org/namespaces/inkscape"
   height="32"
   width="32"
   version="1"
   id="svg37"
   sodipodi:docname="qcalcfilehash (1-я копия).svg"
   inkscape:version="0.92.4 5da689c313, 2019-01-14">
  <metadata
     id="metadata41">
    <rdf:RDF>
      <cc:Work
         rdf:about="">
        <dc:format>image/svg+xml</dc:format>
        <dc:type
           rdf:resource="http://purl.org/dc/dcmitype/StillImage" />
      </cc:Work>
    </rdf:RDF>
  </metadata>
  <sodipodi:namedview
     pagecolor="#ffffff"
     bordercolor="#666666"
     borderopacity="1"
     objecttolerance="10"
     gridtolerance="10"
     guidetolerance="10"
     inkscape:pageopacity="0"
     inkscape:pageshadow="2"
     inkscape:window-width="915"
     inkscape:window-height="663"
     id="namedview39"
     showgrid="false"
     inkscape:zoom="12.34375"
     inkscape:cx="16"
     inkscape:cy="16.935795"
     inkscape:window-x="536"
     inkscape:window-y="180"
     inkscape:window-maximized="0"
     inkscape:current-layer="svg37" />
  <defs
     id="defs7">
    <linearGradient
       inkscape:collect="always"
       id="linearGradient824">
      <stop
         style="stop-color:#eef4f7;stop-opacity:1;"
         offset="0"
         id="stop820" />
      <stop
         style="stop-color:#e6e6e6;stop-opacity:1"
         offset="1"
         id="stop822" />
    </linearGradient>
    <linearGradient
       id="linearGradient4924"
       y2="20.316"
       gradientUnits="userSpaceOnUse"
       y1="18.858"
       x2="16.213"
       x1="12.897"
       gradientTransform="matrix(0.77163247,0,0,0.77163247,3.6538805,3.2680642)">
      <stop
         offset="0"
         id="stop2" />
      <stop
         stop-opacity="0"
         offset="1"
         id="stop4" />
    </linearGradient>
    <radialGradient
       inkscape:collect="always"
       xlink:href="#linearGradient824"
       id="radialGradient828"
       cx="16.392756"
       cy="16.362625"
       fx="16.392756"
       fy="16.362625"
       r="14.101694"
       gradientUnits="userSpaceOnUse"
       gradientTransform="matrix(2.0628363,2.019856e-4,-1.7499358e-4,1.7870342,-17.051019,-11.384748)" />
  </defs>
  <g
     id="g885">
    <rect
       style="opacity:1;fill:url(#radialGradient828);fill-opacity:1;fill-rule:evenodd;stroke:none;stroke-width:1.03534329;stroke-linecap:round;stroke-linejoin:bevel;stroke-miterlimit:4;stroke-dasharray:none;stroke-dashoffset:0;stroke-opacity:1"
       id="rect4497-3"
       width="28.203388"
       height="28.203388"
       x="1.8498688"
       y="3.1093371"
       ry="5.575182"
       inkscape:highlight-color="3873892095" />
    <g
       id="g869">
      <rect
         width="7.4779062"
         height="2.7192388"
         x="9.0596189"
         y="12.743229"
         style="fill:#fffdf0;fill-opacity:1;stroke:none;stroke-width:0.67980969"
         id="rect23" />
      <path
         inkscape:connector-curvature="0"
         d="m 18.66533,10.703801 c -1.294358,0 -1.71448,1.020394 -2.379334,2.039429 h -6.203263 c -0.9415365,0 -1.6995243,0.757988 -1.6995243,1.699524 v 0.67981 5.778382 1.019714 0.594834 0.08498 c 0.00408,0.09449 0.024473,0.186268 0.042828,0.276003 0.080897,0.469748 0.3487424,0.870836 0.7437118,1.125764 C 9.3580558,24.123927 9.5755949,24.212303 9.80741,24.25717 9.922978,24.28096 10.024269,24.3 10.147315,24.3 h 12.789259 c 0.123046,0 0.224337,-0.01835 0.339905,-0.04283 0.231135,-0.04487 0.448674,-0.133243 0.636982,-0.254929 0.394969,-0.254928 0.662134,-0.656016 0.743711,-1.125764 0.01835,-0.08973 0.03807,-0.182189 0.04283,-0.276003 v -0.08498 -0.594834 -9.432359 c 0,-0.993882 -0.781101,-1.7845 -1.763426,-1.7845 h -4.269884 z"
         style="fill:#000000;fill-opacity:0.10199998;stroke:none;stroke-width:0.67980969"
         id="path25" />
      <path
         inkscape:connector-curvature="0"
         d="M 9.3995242,11.383611 C 8.4579878,11.383611 7.7,12.141598 7.7,13.083135 v 6.458191 h 2.719239 v -8.157715 z"
         style="opacity:1;fill:#617fa1;fill-opacity:1;fill-rule:nonzero;stroke:none;stroke-width:0.67980969"
         id="path27" />
      <path
         inkscape:connector-curvature="0"
         d="m 13.818287,11.383611 v 8.157715 h 4.078858 v -8.157715 z"
         style="fill:#cdc22c;fill-opacity:1;stroke:none;stroke-width:0.67980969"
         id="path29" />
      <path
         inkscape:connector-curvature="0"
         d="m 10.419239,11.383611 v 8.157715 h 3.399048 v -8.157715 z"
         style="opacity:1;fill:#5a945c;fill-opacity:1;fill-rule:nonzero;stroke:none;stroke-width:0.67980969"
         id="path31" />
      <path
         inkscape:connector-curvature="0"
         d="M 9.3995242,11.383611 C 8.4579878,11.383611 7.7,12.141598 7.7,13.083135 v 0.679809 C 7.7,12.821408 8.4579878,12.06342 9.3995242,12.06342 H 21.636098 c 0.941537,0 1.699524,0.757988 1.699524,1.699524 v -0.679809 c 0,-0.941537 -0.757987,-1.699524 -1.699524,-1.699524 z"
         style="opacity:0.2;fill:#ffffff;fill-opacity:1;stroke:none;stroke-width:0.67980969"
         id="path33" />
      <path
         inkscape:connector-curvature="0"
         d="M 9.4736234,14.102849 C 8.4090415,14.102849 7.7,15.047785 7.7,16.123923 v 5.702923 c 0,0.993882 0.7912984,1.794018 1.7736234,1.794018 H 10.419239 V 14.103529 H 9.4736234"
         style="opacity:1;fill:#9ab9dd;fill-opacity:1;fill-rule:nonzero;stroke:none;stroke-width:0.67980969"
         id="path35" />
      <path
         inkscape:connector-curvature="0"
         d="m 13.818287,13.709919 c -0.413324,0.192386 -0.898708,0.337186 -1.507138,0.39293 h -1.89191 v 9.517335 h 3.399048 z"
         style="opacity:1;fill:#9add9c;fill-opacity:1;fill-rule:nonzero;stroke:none;stroke-width:0.67980969"
         id="path37" />
      <path
         inkscape:connector-curvature="0"
         d="m 17.98552,10.023991 c -0.03195,0 -0.05778,0.0082 -0.08906,0.0095 v 13.586693 h 3.399049 V 10.023991 Z"
         style="opacity:1;fill:#edb968;fill-opacity:1;fill-rule:nonzero;stroke:none;stroke-width:0.67980969"
         id="path39" />
      <path
         inkscape:connector-curvature="0"
         d="m 21.296193,10.023991 v 13.596193 h 0.946975 c 0.978246,0 1.765466,-0.792658 1.772264,-1.780421 v -10.03535 c -0.0075,-0.987764 -0.794698,-1.780422 -1.772264,-1.780422 h -0.946975"
         style="opacity:1;fill:#ed8e68;fill-opacity:1;fill-rule:nonzero;stroke:none;stroke-width:0.67980969"
         id="path41" />
      <path
         inkscape:connector-curvature="0"
         d="m 17.897145,10.03079 c -1.995921,0.07886 -1.872876,2.650577 -4.078858,3.67641 v 9.910265 h 4.078858 z"
         style="opacity:1;fill:#f3f284;fill-opacity:1;fill-rule:nonzero;stroke:none;stroke-width:0.67980969"
         id="path43" />
      <path
         inkscape:connector-curvature="0"
         d="m 7.7,21.240851 v 0.679809 c 0,0.941537 0.7906186,1.699524 1.7736234,1.699524 H 22.242488 c 0.982325,0 1.773624,-0.757987 1.773624,-1.699524 v -0.679809 c 0,0.941536 -0.790619,1.699524 -1.773624,1.699524 H 9.4736234 C 8.4912984,22.940375 7.7,22.182387 7.7,21.240851 Z"
         style="opacity:0.15;fill:#000000;fill-opacity:1;stroke:none;stroke-width:0.67980969"
         id="path45" />
    </g>
  </g>
</svg>
