<svg xmlns="http://www.w3.org/2000/svg" height="32" width="32" version="1"><rect width="28.203" height="28.203" x="1.898" y="1.898" ry="5.575" fill="#ccc" fill-rule="evenodd"/><g color="#000" font-weight="400" font-family="sans-serif"><path d="M4.974 10.089a1.176 1.176 0 1 0 .126 2.347c3.787-.203 5.499 1.127 6.924 2.955 1.425 1.828 2.283 4.261 4.086 5.944 1.455 1.357 3.55 2.192 5.592 2.773 2.043.581 3.992.873 5.286.873a1.176 1.176 0 1 0 0-2.352c-.902 0-2.793-.257-4.641-.782-1.848-.526-3.694-1.355-4.633-2.231-1.156-1.079-2.12-3.473-3.834-5.672-1.715-2.199-4.461-4.094-8.906-3.855z" style="line-height:normal;font-variant-ligatures:normal;font-variant-position:normal;font-variant-caps:normal;font-variant-numeric:normal;font-variant-alternates:normal;font-feature-settings:normal;text-indent:0;text-align:start;text-decoration-line:none;text-decoration-style:solid;text-decoration-color:#000;text-transform:none;text-orientation:mixed;white-space:normal;shape-padding:0;isolation:auto;mix-blend-mode:normal;solid-color:#000;solid-opacity:1" overflow="visible" fill="#4a61cc"/><path d="M19.621 7.034c-1.164-.12-2.05.494-2.586 1.008a5.187 5.187 0 0 0-.793.976l-.775.968a1.176 1.176 0 0 0 .363 1.789c-.148.208-.302.409-.383.76-.347 1.51.361 2.85 1.222 3.769.623.664 1.384.978 2.078 1.228.347.125.676.22.965.286.288.066.434.13.862.1 1.245-.091 2.24-.476 2.966-1.068.725-.591 1.144-1.325 1.462-1.978.652-1.34.254-2.669-.043-3.618a1.176 1.176 0 0 0-.023-.067c-.975-2.56-3.321-3.919-5.3-4.15a1.176 1.176 0 0 0-.015-.003zm-.246 2.343c1.033.125 2.735 1.072 3.344 2.613.24.787.316 1.548.168 1.852-.26.536-.506.918-.833 1.185-.326.266-.77.48-1.653.545.246-.018.024-.003-.162-.046a6.336 6.336 0 0 1-.694-.207c-.512-.184-1.05-.508-1.16-.624-.44-.471-.725-1.287-.645-1.633-.073.317.074-.047.329-.25.254-.201.502-.35.502-.35a1.176 1.176 0 0 0-.35-2.173 1.176 1.176 0 0 0 .08-.157l-.01.029-.03.064-.008.014c.014-.022.041-.065.08-.118.075-.105.194-.251.33-.381.269-.258.525-.38.712-.363zm-.985.347l.002.002-.002.014a1.176 1.176 0 0 0 0-.016zm-.047.291l-.002.01-.015.04a1.176 1.176 0 0 0 .017-.05z" style="line-height:normal;font-variant-ligatures:normal;font-variant-position:normal;font-variant-caps:normal;font-variant-numeric:normal;font-variant-alternates:normal;font-feature-settings:normal;text-indent:0;text-align:start;text-decoration-line:none;text-decoration-style:solid;text-decoration-color:#000;text-transform:none;text-orientation:mixed;white-space:normal;shape-padding:0;isolation:auto;mix-blend-mode:normal;solid-color:#000;solid-opacity:1" overflow="visible" fill="#e84343"/></g></svg>