<svg xmlns="http://www.w3.org/2000/svg" height="32" width="32" version="1"><rect width="28.203" height="28.203" x="1.898" y="1.898" ry="5.575" fill="#81d547" fill-rule="evenodd"/><path d="M16 6C10.477 6 6 10.477 6 16a10 10 0 0 0 9 9.94V26h1c5.523 0 10-4.477 10-10S21.523 6 16 6zm1 2.07a8 8 0 0 1 .746.131c.149.252.793 1.392 1.389 3.12-.628.073-1.342.126-2.135.154zm-2 .002v3.403a26.226 26.226 0 0 1-2.135-.155c.596-1.724 1.237-2.862 1.387-3.117a8 8 0 0 1 .748-.13zm5.58 1.373a8 8 0 0 1 1.453 1.315 14.13 14.13 0 0 1-.879.224c-.183-.566-.38-1.07-.574-1.539zm-9.166.01c-.193.465-.386.968-.568 1.53-.36-.082-.661-.159-.885-.225a8 8 0 0 1 1.453-1.305zM8.82 12.492c.189.068.673.22 1.528.414-.173.823-.3 2.19-.332 3.094h-1.99c.065-1.045.335-2.567.794-3.508zm14.364 0c.46.94.732 2.463.798 3.508h-1.998c-.033-.905-.16-2.27-.332-3.094.86-.195 1.346-.347 1.532-.414zm-10.862.764c.782.105 1.676.18 2.678.215V16h-2.984c.034-.773.15-2.026.306-2.744zm7.356 0c.156.718.272 1.971.306 2.744H17v-2.53a27.367 27.367 0 0 0 2.678-.214zM8.148 18h1.938c.105.99.31 1.412.553 2.273-.442.136-.816.27-1.125.395-.68-.944-1.146-1.525-1.366-2.668zm3.952 0H15v1.541c-.88.045-1.69.134-2.406.264-.21-.724-.392-.992-.494-1.805zm4.9 0h2.9c-.102.813-.284 1.081-.494 1.805A19.105 19.105 0 0 0 17 19.54zm4.914 0h1.94c-.22 1.143-.686 1.724-1.366 2.668-.31-.125-.684-.259-1.127-.395.243-.86.448-1.284.553-2.273zM15 21.54v2.39a8 8 0 0 1-.746-.131c-.117-.2-.52-.908-1.006-2.094.524-.08 1.12-.133 1.752-.166zm2 0c.632.032 1.228.085 1.752.165-.484 1.183-.885 1.89-1.004 2.092a8 8 0 0 1-.748.13zm-5.742.61c.055.142.107.274.162.407a8 8 0 0 1-.424-.323c.086-.028.168-.055.262-.084zm9.484 0l.268.086a8 8 0 0 1-.424.309c.054-.13.103-.258.156-.395z" fill="#feff5e"/><g transform="matrix(.75 0 0 .75 4.111 5.273)" stroke-width="1.333"><circle r="8" cy="23" cx="24" fill="#f34235"/><g fill="#fff" stroke-width="1.778"><path d="M23 20h2v8h-2zM23 17h2v2h-2z"/></g></g></svg>