<svg xmlns="http://www.w3.org/2000/svg" height="32" width="32" version="1"><rect width="28.203" height="28.203" x="1.898" y="1.898" ry="5.575" fill="#4ca341" fill-rule="evenodd"/><path d="M8.043 15.027s2.348-2.822 5.959-3.114v-1.024C10.002 11.229 6 14.81 6 14.81s2.501 5.999 8.002 6.548V20.27c-4.037-.538-5.959-5.244-5.959-5.244zm5.959 3.079v.997c-3.051-.576-4.438-3.93-4.438-3.93s2.005-1.717 4.438-1.996v1.094h-.004c-1.277-.163-2.814 1.1-2.814 1.1s1.098 2.124 2.818 2.735m0-9.106v1.889c.118-.01-.304-.018-.186-.022 4.546-.162 7.508 3.944 7.508 3.944s-3.402 4.377-6.947 4.377c-.324 0-.089-.032-.375-.085v1.167c.245.033-.042.053.223.053 3.298 0 5.683-1.783 7.993-3.892.383.325 1.951 1.114 2.273 1.46-2.196 1.945-7.314 3.513-10.216 3.513-.28 0-.008-.018-.272-.045V23H26V9H14.002zm0 4.177v-1.264c.117-.008-.306-.016-.186-.02 3.269-.108 5.414 2.973 5.414 2.973s-2.317 3.403-4.8 3.403c-.358 0-.14-.06-.428-.163v-3.835c1.273.163 1.233.758 1.998 2.107l1.459-1.518s-1.243-1.724-3.337-1.724c-.227 0 .094.017-.12.041" fill="#262626"/></svg>