<svg xmlns="http://www.w3.org/2000/svg" height="32" width="32"><g fill-rule="evenodd"><path d="M23.242 1.898H10.717l12.525 17.887z" fill="#e6e6e6"/><path d="M23.242 1.898v17.887l5.649 8.067c.713-.937 1.21-2.051 1.21-3.325V7.473a5.561 5.561 0 0 0-5.574-5.575z" fill="#6ba63f"/><path d="M8.758 30.102h12.525L8.758 12.215z" fill="#e6e6e6"/><path d="M8.758 30.102V12.215L3.109 4.148C2.396 5.085 1.9 6.2 1.9 7.473v17.054a5.561 5.561 0 0 0 5.574 5.575z" fill="#42afe6"/><path d="M3.11 4.148l18.173 25.954h3.244c1.815 0 3.347-.915 4.364-2.25L10.717 1.898H7.473c-1.815 0-3.347.915-4.364 2.25z" fill="#96ca6b"/></g></svg>