<svg xmlns="http://www.w3.org/2000/svg" height="32" width="32" version="1"><rect width="28.203" height="28.203" x="1.898" y="1.898" ry="5.575" fill="#4f4f4f" fill-rule="evenodd"/><g fill="#fff"><path d="M13.86 22.54c.951-.292 2.092-1.093 2.627-1.844l.177-.248-.221-.668c-.808-2.443.658-4.906 3.171-5.33 1.826-.308 3.743.81 4.403 2.568.158.418.163.423.111.101-.151-.95-.622-1.826-1.387-2.582-.798-.79-1.725-1.237-2.883-1.392-.356-.048-.392-.034-.526.192-.206.35-.806.933-1.25 1.216-1.193.763-3.033.763-4.23.001-1.351-.861-2.115-2.51-1.867-4.03a4.09 4.09 0 0 1 1.082-2.18c.422-.447.45-.496.207-.357-.41.235-1.371 1.279-1.644 1.786-.314.585-.57 1.62-.568 2.303.001.587.155 1.368.381 1.933.132.329.149.34.637.394.275.032.71.13.967.218 2.27.78 3.341 3.398 2.279 5.568-.725 1.48-2.402 2.432-3.969 2.254-.638-.072-.57.014.137.175.627.143 1.77.105 2.366-.078z"/><path d="M16 6C10.484 6 6 10.484 6 16s4.484 10 10 10 10-4.484 10-10S21.516 6 16 6zm0 1.074A8.917 8.917 0 0 1 24.926 16 8.917 8.917 0 0 1 16 24.926 8.917 8.917 0 0 1 7.074 16 8.917 8.917 0 0 1 16 7.074z" color="#000"/></g></svg>