<svg xmlns="http://www.w3.org/2000/svg" height="32" width="32" version="1"><rect width="28.203" height="28.203" x="1.898" y="1.898" ry="5.575" fill="#fdbb28" fill-rule="evenodd"/><g transform="translate(41.958 -6.937)"><circle r="8.349" cy="24.455" cx="-25.958" fill="#fff"/><path d="M-25.958 13.07c-2.36 0-4.512.718-6.099 1.923-1.587 1.205-2.25 2.928-2.25 4.846v.821c-1.576.778-3.036 2.69-3.036 5.082 0 3.06 2.25 5.544 4.554 5.544V19.84c0-1.436.3-2.606 1.611-3.601 1.31-.995 3.16-1.65 5.22-1.65 2.06 0 3.91.655 5.22 1.65 1.31.995 1.611 2.165 1.611 3.6v11.448c2.304 0 4.554-2.485 4.554-5.546 0-2.391-1.46-4.302-3.036-5.08v-.821c0-1.918-.663-3.642-2.25-4.846-1.587-1.205-3.74-1.923-6.099-1.923zm-3.795 7.59a1.518 1.518 0 0 0-1.518 1.518 1.518 1.518 0 0 0 1.518 1.518 1.518 1.518 0 0 0 1.518-1.518 1.518 1.518 0 0 0-1.518-1.518zm7.59 0a1.518 1.518 0 0 0-1.518 1.518 1.518 1.518 0 0 0 1.518 1.518 1.518 1.518 0 0 0 1.518-1.518 1.518 1.518 0 0 0-1.518-1.518zm-.759 6.831l-6.072.015a3.023 3.023 0 0 0 3.036 3.021 3.036 3.036 0 0 0 3.036-3.036z" fill="#4f4f4f"/></g></svg>