<svg xmlns="http://www.w3.org/2000/svg" width="32" height="32" version="1"><rect width="28.203" height="28.203" x="1.898" y="1.898" ry="5.575" fill="#62aeff" fill-rule="evenodd"/><path d="M17.309 19.411l6.113 6.113c1.413 1.473 3.593-.707 2.12-2.12l-6.205-6.207c-2.37.788-1.37.788-2.028 2.214z" fill="#a27fbd"/><path d="M13.967 5.985a8 8 0 0 0-8 8 8 8 0 0 0 8 8 8 8 0 0 0 8-8 8 8 0 0 0-8-8z" fill="#fff"/><path d="M9.967 10.414V17.557c0 1.428 1 1.428 1 1.428s1 0 1-1.428v-1.572h4v1.572c0 1.428 1 1.428 1 1.428s1 0 1-1.428v-7.143s0-1.429-1.333-1.429H11.3c-1.333 0-1.333 1.429-1.333 1.429zm2 .571h4v3h-4z" fill="#62aeff"/></svg>