<svg xmlns="http://www.w3.org/2000/svg" height="32" width="32" version="1"><rect width="28.203" height="28.203" x="1.898" y="1.898" ry="5.575" fill="#ccc" fill-rule="evenodd"/><g transform="translate(53.535 13.762)"><path d="M-37.035-8.762a11 11 0 0 0-11 11 11 11 0 0 0 11 11 11 11 0 0 0 11-11 11 11 0 0 0-11-11zm1.25 2.5a8.25 8.25 0 0 1 8.25 8.25 8.25 8.25 0 0 1-8.25 8.25 8.25 8.25 0 0 1-8.25-8.25 8.25 8.25 0 0 1 8.25-8.25z" fill="#3c8cf8"/><rect x="-49.035" y="-1.762" width="8" height="8" ry="1.6" rx="1.6" fill="#fc924d"/><rect x="-31.035" y="4.238" width="5" height="5" ry="1" rx="1" fill="#fc924d"/><rect x="-33.035" y="-7.762" width="4" height="4" ry=".8" rx=".8" fill="#fc924d"/></g></svg>