<svg xmlns="http://www.w3.org/2000/svg" height="32" width="32" version="1"><path d="M1.97 24.885c.194 2.91 2.543 5.217 5.504 5.217h17.052a5.565 5.565 0 0 0 5.577-5.577v-.275a2.425 2.425 0 0 1-.877.713c-.743.362-1.672.465-2.416.465-.745 0-1.674-.103-2.416-.465-.372-.181-.696-.427-.928-.756-.232-.329-.371-.741-.371-1.256a1.92 1.92 0 0 1-.393 1.115c-.234.313-.557.57-.926.772-.736.403-1.654.59-2.398.59-.744 0-1.673-.103-2.416-.465-.372-.181-.696-.427-.928-.756-.232-.329-.373-.741-.373-1.256a1.918 1.918 0 0 1-.39 1.115c-.235.313-.56.57-.928.772-.737.403-1.652.59-2.397.59-.744 0-1.673-.103-2.416-.465-.371-.181-.697-.427-.93-.756-.231-.329-.37-.741-.37-1.256 0 .515-.14.93-.372 1.26-.232.33-.556.578-.927.76-.743.364-1.672.467-2.416.457-.806-.011-1.736-.116-2.463-.475-.033-.016-.05-.05-.082-.068z" fill="#028649" fill-rule="evenodd"/><path d="M1.97 24.885c.032.017.049.052.082.068.727.36 1.657.464 2.463.475.744.01 1.673-.093 2.416-.457.371-.182.695-.43.927-.76.232-.33.371-.745.371-1.26 0 .515.14.927.372 1.256.232.329.558.575.93.756.742.362 1.671.465 2.415.465.745 0 1.66-.187 2.397-.59.368-.202.693-.459.928-.772.234-.313.378-.684.39-1.115 0 .515.141.927.373 1.256.232.329.556.575.928.756.743.362 1.672.465 2.416.465s1.662-.187 2.398-.59c.369-.202.692-.459.926-.772a1.92 1.92 0 0 0 .393-1.115c0 .515.139.927.37 1.256.233.329.557.575.929.756.742.362 1.671.465 2.416.465.744 0 1.673-.103 2.416-.465.35-.17.648-.412.877-.713V7.473a5.563 5.563 0 0 0-5.577-5.575H7.474a5.563 5.563 0 0 0-5.577 5.575v17.052c0 .128.064.234.073.36z" fill="#3fc778" fill-rule="evenodd"/><g stroke-width=".807"><g transform="matrix(1.2387 0 0 1.2387 -5.612 -4.579)"><rect ry="3" height="6" width="6" y="9" x="9" fill="#ecf0f1"/><rect ry="1" height="2" width="2" y="11" x="13" fill="#494949"/></g><g transform="matrix(1.2387 0 0 1.2387 8.014 -4.579)"><rect ry="3" height="6" width="6" y="9" x="9" fill="#ecf0f1"/><rect ry="1" height="2" width="2" y="11" x="13" fill="#494949"/></g></g></svg>