<svg xmlns="http://www.w3.org/2000/svg" height="32" width="32" version="1"><rect width="28.203" height="28.203" x="1.898" y="1.898" ry="5.575" fill="#e9803b" fill-rule="evenodd"/><path d="M9.237 25.082c-.205-.103-.382-.374-.382-.585 0-.06.044-.195.096-.299.144-.285.364-.381.87-.381h.395v-2.041H9.141c-1.03 0-1.083-.004-1.265-.096a.577.577 0 0 1-.286-.285l-.095-.19V12.82l.095-.19c.103-.204.375-.381.585-.381.21 0 .482.177.585.38l.095.19V20.416H13.728l.19.096c.204.103.38.374.38.584 0 .21-.176.482-.38.585-.182.092-.235.096-1.265.096h-1.076v2.041h.394c.468.002.706.089.838.306.13.212.15.393.067.61-.23.602-1.073.563-1.26-.058l-.052-.178h-1.34l-.027.12a.689.689 0 0 1-.375.477c-.235.107-.355.104-.585-.012zm6.123 0a.577.577 0 0 1-.285-.285l-.096-.19v-4.869l-2.2-.012c-2.159-.013-2.205-.015-2.402-.106-.282-.13-.6-.443-.72-.706l-.1-.221v-3.02c0-2.88.004-3.03.082-3.232.107-.278.438-.624.718-.75.207-.094.27-.1 1.029-.1 1.021.002 1.047.01 2.305.766l.944.567 1.16.014c1.266.015 1.296.02 1.58.284.497.46.37 1.306-.244 1.635-.17.09-.214.093-1.599.093h-1.424l-.234-.13c-.129-.071-.392-.229-.585-.35l-.351-.222v3.44l1.52.013c1.493.013 1.525.015 1.742.114.263.119.577.438.707.72.091.197.093.233.105 2.741l.012 2.541h.393c.505 0 .725.096.869.381.052.104.095.24.095.3 0 .21-.176.481-.38.584-.183.092-.233.096-1.32.096-1.088 0-1.138-.004-1.32-.096zm4.6.037c-.222-.123-.215.026-.216-4.183l-.002-3.923h-2.21c-1.621 0-2.238-.014-2.32-.051-.172-.079-.233-.242-.233-.63 0-.387.06-.55.233-.63.083-.037.805-.05 2.794-.05h2.683l-.112-.088a.327.327 0 0 1 0-.504c.1-.08.17-.089.66-.089h.547v-2.557l-.34.184c-.328.177-.343.191-.402.396l-.199.695c-.186.651-.18.648-.824.47-.379-.103-.51-.158-.56-.233-.059-.09-.004-.304.796-3.13.472-1.668.874-3.075.894-3.126.072-.19.172-.197.702-.051.7.192.679.124.368 1.215l-.252.884.238.488.238.487.012 2.48.013 2.479h.85c.95 0 1.058.024 1.14.26.033.096.047 1.424.047 4.533 0 4.777.01 4.571-.232 4.682-.17.077-4.173.07-4.313-.009zM11.3 10.86c-1.66-.249-2.332-2.26-1.151-3.442 1.083-1.083 2.884-.637 3.366.833.05.151.077.362.077.596 0 .885-.523 1.627-1.347 1.91-.248.086-.72.137-.944.103z" fill="#fff"/></svg>