<svg xmlns="http://www.w3.org/2000/svg" height="32" width="32" version="1"><rect width="28.203" height="28.203" x="1.898" y="1.898" ry="5.575" fill="#4f4f4f" fill-rule="evenodd"/><g opacity=".5" fill="#fff" color="#000"><path d="M7.346 5A.346.344 0 0 0 7 5.344V8.78a.346.344 0 0 0 .346.344h2.077a.346.344 0 0 0 .346-.344V5.344A.346.344 0 0 0 9.423 5zm.346.688h1.385v2.75H7.692z"/><path d="M12.187 5a.346.343 0 0 0-.341.348v3.43a.346.343 0 1 0 .692 0v-3.43A.346.343 0 0 0 12.187 5zM14.956 5a.346.343 0 0 0-.34.348v3.43a.346.343 0 1 0 .692 0v-3.43A.346.343 0 0 0 14.956 5z" fill-rule="evenodd"/><path d="M17.73 5a.346.344 0 0 0-.345.344V8.78a.346.344 0 0 0 .346.344h2.077a.346.344 0 0 0 .346-.344V5.344A.346.344 0 0 0 19.808 5zm.347.688h1.385v2.75h-1.385zM22.577 5a.346.344 0 0 0-.346.344V8.78a.346.344 0 0 0 .346.344h2.077A.346.344 0 0 0 25 8.781V5.344A.346.344 0 0 0 24.654 5zm.346.688h1.385v2.75h-1.385zM24.654 11.188a.346.344 0 0 1 .346.343v3.438a.346.344 0 0 1-.346.344h-2.077a.346.344 0 0 1-.346-.344V11.53a.346.344 0 0 1 .346-.344zm-.346.687h-1.385v2.75h1.385z"/><path d="M19.813 11.188a.346.343 0 0 1 .341.348v3.429a.346.343 0 1 1-.692 0v-3.43a.346.343 0 0 1 .351-.347zM17.044 11.188a.346.343 0 0 1 .34.348v3.429a.346.343 0 1 1-.692 0v-3.43a.346.343 0 0 1 .352-.347z" fill-rule="evenodd"/><path d="M14.27 11.188a.346.344 0 0 1 .345.343v3.438a.346.344 0 0 1-.346.344h-2.077a.346.344 0 0 1-.346-.344V11.53a.346.344 0 0 1 .346-.344zm-.347.687h-1.385v2.75h1.385z"/><path d="M8.736 11.188a.346.343 0 0 1 .341.348v3.429a.346.343 0 1 1-.692 0v-3.43a.346.343 0 0 1 .351-.347z" fill-rule="evenodd"/><g><path d="M24.654 16.688a.344.346 90 0 1 .346.343v3.438a.344.346 90 0 1-.346.343h-2.077a.344.346 90 0 1-.346-.343V17.03a.344.346 90 0 1 .346-.343zm-.346.687h-1.385v2.75h1.385z"/><path d="M19.813 16.688a.343.346 90 0 1 .341.348v3.429a.343.346 90 1 1-.692 0v-3.43a.343.346 90 0 1 .351-.347zM17.044 16.688a.343.346 90 0 1 .34.348v3.429a.343.346 90 1 1-.692 0v-3.43a.343.346 90 0 1 .352-.347z" fill-rule="evenodd"/><path d="M14.27 16.688a.344.346 90 0 1 .345.343v3.438a.344.346 90 0 1-.346.343h-2.077a.344.346 90 0 1-.346-.343V17.03a.344.346 90 0 1 .346-.343zm-.347.687h-1.385v2.75h1.385zM9.423 16.688a.344.346 90 0 1 .346.343v3.438a.344.346 90 0 1-.346.343H7.346A.344.346 90 0 1 7 20.47V17.03a.344.346 90 0 1 .346-.343zm-.346.687H7.692v2.75h1.385zM7.346 22.875a.344.346 90 0 0-.346.344v3.437a.344.346 90 0 0 .346.344h2.077a.344.346 90 0 0 .346-.344V23.22a.344.346 90 0 0-.346-.344zm.346.688h1.385v2.75H7.692z"/><path d="M12.187 22.875a.343.346 90 0 0-.341.348v3.43a.343.346 90 1 0 .692 0v-3.43a.343.346 90 0 0-.351-.348zM14.956 22.875a.343.346 90 0 0-.34.348v3.43a.343.346 90 1 0 .692 0v-3.43a.343.346 90 0 0-.352-.348z" fill-rule="evenodd"/><path d="M17.73 22.875a.344.346 90 0 0-.345.344v3.437a.344.346 90 0 0 .346.344h2.077a.344.346 90 0 0 .346-.344V23.22a.344.346 90 0 0-.346-.344zm.347.688h1.385v2.75h-1.385z"/><path d="M23.264 22.875a.343.346 90 0 0-.341.348v3.43a.343.346 90 1 0 .692 0v-3.43a.343.346 90 0 0-.351-.348z" fill-rule="evenodd"/></g></g><path d="M23.465 21.545l-2.443 2.444 2.443-2.443z" fill="#fff" fill-rule="evenodd"/><g stroke-width=".594"><path d="M20.005 7.604l-9.468 9.415 2.695.087-.054 2.491 2.6.11.067 2.404 9.006-9.01v-.303c0-2.772-2.136-4.962-4.846-5.194z" fill="#fda002" fill-rule="evenodd"/><path d="M10.539 17.018l2.693.088-.054 2.491 2.598.11.069 2.402 4.11-4.11a9.003 9.003 0 0 0-4.908-5.462z" fill="#fda002" fill-rule="evenodd"/><path d="M8.209 24.602l7.636-2.491v-.002l-.069-2.402-2.598-.11.054-2.49-2.693-.09-.002.002z" fill="#fff" fill-rule="evenodd"/><path d="M8.208 24.601l2.865-.93-1.994-1.93z"/></g></svg>