<svg xmlns="http://www.w3.org/2000/svg" height="32" width="32" version="1"><rect width="28.203" height="28.203" x="1.898" y="1.898" ry="5.575" fill="#ececec" fill-rule="evenodd"/><path d="M7.473 1.898a5.561 5.561 0 0 0-5.575 5.575v16.093c.18-.04.457-.16.614-.189 1.83-.346 3.25-.513 4.488-.498a10.37 10.37 0 0 1 3.396.594c1.026.355 1.313.394 2.395.338.931-.05 1.953-.23 2.95-.51.995-.28 1.964-.66 2.786-1.106.748-.404 1.044-.736 1.483-1.226a12.637 20.22 30 0 1-.451.06 12.637 20.22 30 0 1-1.373.008 12.637 20.22 30 0 1-1.311-.18 12.637 20.22 30 0 1-1.232-.363 12.637 20.22 30 0 1-1.143-.543 12.637 20.22 30 0 1-.75-.49 12.637 20.22 30 0 1-.963-.838 12.637 20.22 30 0 1-.848-1 12.637 20.22 30 0 1-.718-1.152 12.637 20.22 30 0 1-.586-1.291 12.637 20.22 30 0 1-.446-1.418 12.637 20.22 30 0 1-.302-1.533 12.637 20.22 30 0 1-.155-1.63 12.637 20.22 30 0 1-.005-1.71 12.637 20.22 30 0 1 .142-1.776 12.637 20.22 30 0 1 .29-1.824 12.637 20.22 30 0 1 .433-1.85 12.637 20.22 30 0 1 .474-1.54H7.473z" fill="#ececec" fill-rule="evenodd"/><path d="M11.066 1.898a12.637 20.22 30 0 0-.474 1.541 12.637 20.22 30 0 0-.434 1.85 12.637 20.22 30 0 0-.289 1.824 12.637 20.22 30 0 0-.142 1.776 12.637 20.22 30 0 0 .005 1.71 12.637 20.22 30 0 0 .155 1.63 12.637 20.22 30 0 0 .302 1.533 12.637 20.22 30 0 0 .446 1.418 12.637 20.22 30 0 0 .586 1.29 12.637 20.22 30 0 0 .718 1.153 12.637 20.22 30 0 0 .848 1 12.637 20.22 30 0 0 .963.838 12.637 20.22 30 0 0 .75.49 12.637 20.22 30 0 0 1.143.543 12.637 20.22 30 0 0 1.232.363 12.637 20.22 30 0 0 1.31.18 12.637 20.22 30 0 0 1.374-.008 12.637 20.22 30 0 0 1.425-.191 12.637 20.22 30 0 0 1.461-.377 12.637 20.22 30 0 0 1.483-.557 12.637 20.22 30 0 0 1.488-.73 12.637 20.22 30 0 0 1.482-.899 12.637 20.22 30 0 0 1.457-1.054 12.637 20.22 30 0 0 1.422-1.205 12.637 20.22 30 0 0 .325-.317v-2.857a9.647 15.436 30 0 1-.266.326 9.647 15.436 30 0 1-1.012 1.09 9.647 15.436 30 0 1-1.056.994 9.647 15.436 30 0 1-1.096.887 9.647 15.436 30 0 1-1.12.771 9.647 15.436 30 0 1-1.132.65 9.647 15.436 30 0 1-1.137.52 9.647 15.436 30 0 1-1.129.385 9.647 15.436 30 0 1-1.107.246 9.647 15.436 30 0 1-1.078.105 9.647 15.436 30 0 1-1.035-.037 9.647 15.436 30 0 1-.985-.177 9.647 15.436 30 0 1-.922-.317 9.647 15.436 30 0 1-.609-.308 9.647 15.436 30 0 1-.795-.55 9.647 15.436 30 0 1-.71-.675 9.647 15.436 30 0 1-.62-.799 9.647 15.436 30 0 1-.52-.91 9.647 15.436 30 0 1-.416-1.016 9.647 15.436 30 0 1-.308-1.109 9.647 15.436 30 0 1-.197-1.193 9.647 15.436 30 0 1-.086-1.264 9.647 15.436 30 0 1 .029-1.322 9.647 15.436 30 0 1 .14-1.368 9.647 15.436 30 0 1 .254-1.398 9.647 15.436 30 0 1 .364-1.416 9.647 15.436 30 0 1 .468-1.42 9.647 15.436 30 0 1 .57-1.41 9.647 15.436 30 0 1 .11-.229h-3.635z" fill="#3191cd" fill-rule="evenodd"/><path d="M23.079 17.968a7.83 7.83 0 0 0-1.746.158c-.187.035-.652.151-.892.227-.826.26-1.93.797-2.457 1.195l-.112.084c-.251.201-.483.422-.622.73l-.05.1c-.045.096-.05.101-.105.09a6.301 6.301 0 0 0-.501-.012c-.406 0-.462.005-.682.052-.561.12-1.09.353-1.566.692l-.137.098-.096-.073a2.898 2.898 0 0 0-.653-.318c-.378-.108-.784-.146-1.365-.13-1.516.044-2.765.347-3.943.957-.648.336-1.315.791-1.666 1.138-.225.222-.317.388-.35.627-.02.15-.02.151-.088.175a6.01 6.01 0 0 0-.7.357c-.081.058-.09.071-.09.14 0 .085.04.197.078.22.018.011.021.007.01-.02-.037-.09-.051-.198-.03-.236.03-.057.355-.242.613-.348l.223-.091.014.104a.837.837 0 0 0 .053.191c.027.063.03.089.014.094l-.282.093c-.143.048-.31.1-.369.117-.115.03-.154.062-.162.13a.644.644 0 0 1-.01.068c-.004.015.026.044.07.067.127.068.28.054.556-.051.126-.049.236-.083.243-.075.006.007.032.066.057.129a3.7 3.7 0 0 0 .534.918c.191.224.486.423.763.512l.098.032-.393.387c-.45.444-1.138 1.168-1.138 1.198 0 .03.092.207.155.298a1.672 1.672 0 0 0 .436.409c.007 0 .315-.3.686-.665a75.66 75.66 0 0 1 1.098-1.059l.423-.396h.23c.208-.001.619-.033.89-.069.26.369.55.923.3-.04.003-.003.092-.023.197-.045 1.595-.325 2.956-1.049 3.702-1.971.277-.342.364-.58.37-1.004l.003-.253.078-.027.422-.154c.731-.27.859-.31 1.193-.37.434-.08 1.112-.195 1.116-.19l.057.11c.143.284.367.533.594.66.261.144.706.283 1.137.353 1.309.215 2.996-.088 4.414-.794.112-.055.25-.128.306-.161.085-.05.116-.058.172-.048.158.028.993.226 1.007.238.146.033.367.102.367.102.013-.013.059-.002.853.207.362.096.67.169.685.163.027-.01.106-.199.146-.347.03-.111.047-.372.032-.474l-.013-.088-.283-.09a42.344 42.344 0 0 0-1.476-.418l-.214-.055-.02-.075c-.02-.072-.016-.08.073-.211.113-.167.197-.359.254-.58.037-.147.042-.22.042-.578 0-.266-.008-.46-.025-.551a.497.497 0 0 1-.015-.151 1.62 1.62 0 0 1 .236-.048c.315-.05.46-.122.537-.267.034-.065.034-.073-.001-.073-.016 0-.03-.011-.03-.026 0-.014-.025-.037-.057-.05-.048-.02-.084-.016-.245.025-.166.043-.539.118-.591.118-.01 0-.027-.05-.034-.11a.665.665 0 0 0-.051-.183l-.04-.075.062-.01a3.31 3.31 0 0 1 .648-.047l.259.005.033.086.045.122c.02.065.034.016.02-.073a.328.328 0 0 0-.06-.145l-.05-.057h-.214c-.204 0-.58.026-.688.049-.044.008-.058-.002-.113-.086-.106-.164-.295-.296-.553-.385-.008-.003-.042-.008-.054-.01h-.014c-.556-.082-1.041-.149-1.558-.163zm-.15.047c.36 0 .721.013.915.038.584.075.81.127 1.01.234.068.037.11.063.091.057a7.932 7.932 0 0 0-1.072-.234 8.827 8.827 0 0 0-1.577-.047c-.99.09-1.913.353-2.96.843-.567.294-1.158.581-1.67 1.058-.17.176-.253.302-.313.482a1.522 1.522 0 0 0-.055.24l-.016.121-.002-.112c-.003-.094-.01-.113-.042-.122-.051-.013-.05-.022.027-.172.202-.395.587-.774 1.098-1.079.17-.101.512-.285.568-.304.045-.016.046-.015.01.012-.084.065.026.019.36-.15a8.344 8.344 0 0 1 2.716-.828c.192-.024.552-.037.912-.037zm-.21.057a7 7 0 0 1 .664.01c.278.025.706.08.694.092a1.38 1.38 0 0 1-.206-.012c-1.042-.103-2.038-.036-2.944.199-.34.088-.38.095-.208.038.344-.114.88-.23 1.327-.287.162-.02.418-.034.672-.04zm.532.1c.155.005.312.019.468.032l.032-.015c.305.034.509.068.672.107.021.003.042.005.063.01l-.017.005c.103.027.202.055.277.093.199.1.278.19.398.46.073.164.073.166.032.181-.12.044-.723.18-1.361.31-.807.162-1.088.23-1.338.317-.145.05-.33.134-.237.106.456-.134 1.767-.432 2.45-.557.095-.017.257-.052.36-.076l.188-.044.027.088.025.09-.271.078c-1.602.465-2.274.649-2.719.742-.363.075-.37.074-.37-.105 0-.073.009-.098.04-.114.055-.03.046-.072-.025-.116a.177.177 0 0 0-.13-.028c-.176.026-2.44.76-3.921 1.27a11.78 11.78 0 0 1-.466.154c-.015 0-.026-.054-.042-.205l.103-.326-.08.026c.29-1.116 2.97-2.561 5.842-2.482zm.888.014c.013-.006.03-.004.037.002.006.006-.005.01-.025.01-.023-.001-.028-.006-.012-.012zm.703.166c.036 0 .279.087.304.109.017.015.036.059.043.097.007.04.086.293.175.563.14.427.235.79.21.814a.143.143 0 0 1-.051.013.362.362 0 0 0-.075.017c-.026.01-.032-.014-.042-.175-.033-.518-.24-1.107-.468-1.334a.796.796 0 0 1-.096-.104zm.378.214c.002-.004.01.002.02.022.012.019.017.038.012.043-.005.005-.015-.004-.021-.021-.01-.025-.013-.04-.011-.044zm.063.205c-.002-.015.005-.005.02.021.015.026.034.08.042.12.018.096.001.09-.028-.01a1.306 1.306 0 0 1-.034-.13zm.7.215c.03-.002.042.005.056.019.027.027.025.034-.023.078a.696.696 0 0 1-.2.097c-.08.026-.172.053-.205.06-.057.011-.06.008-.08-.066-.022-.088-.05-.073.29-.154.085-.02.132-.032.162-.034zm-.548.13c.043 0 .05.014.079.134.018.074.046.221.062.327.033.22.029.289-.007.115a5.825 5.825 0 0 0-.169-.544c-.009-.024 0-.032.035-.032zm-.142.306c.044 0 .056.055.08.398.02.27-.003.633-.05.822-.065.24-.296.611-.296.611a.636.636 0 0 1-.09.1l-.074.068-.336-.073a19.725 19.725 0 0 0-2.933-.398 8.323 8.323 0 0 0-1.048.01l-.163.009.442-.153c1.014-.35 1.2-.422 1.25-.482a.2.2 0 0 0 .048-.102c0-.025.006-.046.015-.046.115 0 .68-.13 1.168-.269.871-.247 1.868-.495 1.987-.495zm-7.248.265a2.444 2.444 0 0 1-.143.147c-.204.2-.346.393-.464.63-.067.134-.073.16-.08.354-.006.121 0 .257.013.324.026.127.203.663.268.809a.335.335 0 0 1 .035.1c-.014.015-.135-.28-.217-.528-.138-.419-.169-.678-.113-.94.069-.322.288-.617.644-.866.047-.032.069-.046.057-.03zm1.867.137l-.145.049c.049-.016.097-.032.145-.05zm-3.354.724h.157l.022.061a.183.183 0 0 1 .015.063 6.07 6.07 0 0 1-.27.027 4.695 4.695 0 0 0-1.475.39c-.1.048-.226.114-.28.146-.107.062-.123.056-.123-.047 0-.048.11-.12.395-.262a3.772 3.772 0 0 1 1.559-.378zm.738.261v.117c0 .156.039.328.142.64.147.443.318.743.563.984.154.152.42.337.463.32.014-.005.022-.002.016.007-.013.022.208.121.402.18.505.156 1.534.21 2.24.12a8.027 8.027 0 0 0 2.46-.755c.271-.135.425-.225.798-.467.157-.102.289-.182.293-.178.005.004-.02.03-.054.056-1.017.77-2.492 1.305-3.93 1.428-.27.023-.805.022-1.066-.002a4.596 4.596 0 0 1-1.227-.285c-.42-.17-.642-.39-.86-.846-.19-.4-.435-1.214-.358-1.193.01.003.042-.024.069-.06zm-1.431.018c.022-.001.031.006.042.021.014.018.024.04.024.048a.441.441 0 0 1-.14.054 8.835 8.835 0 0 0-.224.068c-.116.037-.136.035-.136-.019 0-.052.051-.075.308-.144a.732.732 0 0 1 .126-.028zm.892.013a.945.945 0 0 1 .29.038c.066.028.067.03.09.197a.602.602 0 0 1 .01.183c-.008.006-.297.111-.643.233l-.628.222-.631.115c-.347.063-.654.12-.681.126-.047.01-.053.002-.091-.102a.741.741 0 0 1-.042-.146c0-.052.169-.216.32-.31.375-.232 1.034-.452 1.602-.534.13-.018.276-.025.404-.022zm-4.276.04c.391.01.786.07 1.051.166.202.073.456.208.484.256.011.02.04.054.063.073a.65.65 0 0 1 .103.167.712.712 0 0 0 .09.157c.047.038.136.253.196.47.2.717.204 1.269.011 1.647-.159.312-.7.85-1.17 1.162-.977.652-2.22 1.07-3.563 1.197-.503.048-1.213.026-1.498-.047-.074-.018-.072-.019.03-.01.058.006.179.019.268.03.247.03.965.025 1.298-.01a7.893 7.893 0 0 0 2.365-.62c.318-.14.7-.347.778-.422.027-.027.137-.11.242-.185.594-.42 1.053-.933 1.164-1.3.013-.045.031-.077.04-.072.033.02.064-.203.063-.458-.001-.228-.012-.323-.073-.632-.1-.51-.12-.574-.215-.727a1.009 1.009 0 0 0-.386-.369c-.444-.262-.998-.375-1.882-.386l-.23-.003.182-.023.183-.024-.125-.006c-.095-.004-.06-.008.145-.022.124-.009.255-.011.385-.008zm-.8.089c0 .007-.128.028-.284.047-1.592.19-2.798.619-3.986 1.42-.4.27-.673.48-.833.641-.161.163-.193.219-.233.405-.058.28.056.816.295 1.37.043.101.08.192.08.202 0 .01-.018.023-.039.028-.05.013-.124-.092-.24-.336-.088-.185-.195-.515-.169-.524.062-.022.063-.038.013-.145a.92.92 0 0 1-.069-.308c-.024-.248-.001-.338.14-.555.122-.186.282-.344.585-.579a7.912 7.912 0 0 1 3.529-1.56c.423-.073 1.211-.143 1.211-.106zm.802.07c.583.025.99.149 1.375.401.15.099.219.18.31.362.105.207.105.211.008.226-.537.082-3.041.595-4.235.869-.344.079-.372.114-.309.375.015.063.028.128.029.145 0 .035-.265.13-.714.254-.554.154-2.26.58-2.314.578a.332.332 0 0 0-.1.013c-.05.017-.066-.007-.07-.104-.004-.074-.033-.062.92-.37.912-.296 1.21-.388 1.587-.488.351-.094.366-.099.24-.085-.201.022-.524.113-1.221.345-1.137.377-1.523.489-1.56.452-.03-.03-.044-.428-.018-.537.05-.21.235-.423.627-.725.925-.714 1.851-1.17 2.945-1.447.573-.145 1.117-.221 1.852-.26a6.81 6.81 0 0 1 .648-.005zm8.305.797c.803.005 1.57.094 2.537.271.254.047.468.085.477.085.049 0-.04.055-.291.18a7.74 7.74 0 0 1-2.523.748c-.3.035-.908.05-1.163.027-.742-.065-1.399-.277-1.7-.548-.158-.141-.374-.445-.34-.479.006-.006.117-.026.247-.045 1.114-.164 1.953-.244 2.756-.24zm-2.177 1.087c.005-.005.027.001.048.013.022.011.141.05.266.086.125.036.21.066.188.066-.08 0-.521-.145-.502-.165zm-4.195.09c.013 0 .017.071.01.215-.019.365-.11.58-.39.913-.7.834-1.91 1.482-3.328 1.785-.172.037-.317.068-.322.068-.032-.141-.078-.297-.098-.446l-.05-.122-.024-.157.168-.143c.859-.662 1.853-1.226 3-1.702.484-.201 1.012-.41 1.034-.41zm4.76.083a.075.075 0 0 1 .048 0c.013.005.002.01-.024.01-.027 0-.038-.005-.024-.01zm.115.02a.075.075 0 0 1 .049 0c.013.005.002.009-.025.009-.026 0-.037-.005-.024-.01zm.136.018c.014-.006.03-.004.037.002.007.006-.005.01-.025.01-.022-.001-.027-.006-.012-.012zm-7.887.185c.009 0-.11.066-.263.146-.824.43-1.568.951-2.634 1.843-.185.155-.422.36-.527.456a2.2 2.2 0 0 1-.203.171 2.729 2.729 0 0 1-.402-.163c-.308-.176-.587-.499-.807-.935a2.992 2.992 0 0 1-.177-.412c0-.04.973-.321 1.981-.571.572-.142.71-.182 1.05-.306l.116-.043.05.05c.027.026.07.055.096.061.051.013.342-.036 1.163-.193.298-.057.549-.104.557-.104zm-5.336.934c.008.007.017.042.02.079l.006.066-.164.042c-.157.04-.29.053-.342.032-.03-.012-.03-.076-.002-.093.044-.027.47-.139.482-.126zm3.822 1.295c0 .024.01.086.022.14.018.082.028.095.066.095.046 0 .052.016.074.21.002.021-.038.033-.17.05-.096.013-.312.03-.48.037l-.31.012.093-.086c.05-.047.223-.196.383-.33z" fill="#666" stroke="#666" stroke-width=".3"/></svg>