<svg xmlns="http://www.w3.org/2000/svg" height="32" width="32" version="1"><rect width="28.203" height="28.203" x="1.898" y="1.898" ry="5.575" fill="#5f7c8a" fill-rule="evenodd"/><path d="M6.798 10.623a.31.31 0 0 0-.31.31v1.862c0 .172.138.31.31.31h1.86a.31.31 0 0 0 .311-.31v-1.861a.31.31 0 0 0-.31-.31zm4.136 0a.31.31 0 0 0-.31.31v1.862c0 .172.138.31.31.31h1.86a.31.31 0 0 0 .31-.31v-1.861a.31.31 0 0 0-.31-.31zm4.135 0a.31.31 0 0 0-.31.31v1.862c0 .172.138.31.31.31h1.862a.31.31 0 0 0 .31-.31v-1.861a.31.31 0 0 0-.31-.31zm4.136 0a.31.31 0 0 0-.31.31v1.862c0 .172.138.31.31.31h1.861a.31.31 0 0 0 .31-.31v-1.861a.31.31 0 0 0-.31-.31zm4.136 0a.31.31 0 0 0-.31.31v1.862c0 .172.138.31.31.31h1.861a.31.31 0 0 0 .31-.31v-1.861a.31.31 0 0 0-.31-.31zM6.798 14.76a.31.31 0 0 0-.31.31v1.862c0 .172.138.31.31.31h1.86a.31.31 0 0 0 .311-.31v-1.862a.31.31 0 0 0-.31-.31zm4.136 0a.31.31 0 0 0-.31.31v1.862c0 .172.138.31.31.31h1.86a.31.31 0 0 0 .31-.31v-1.862a.31.31 0 0 0-.31-.31zm4.135 0a.31.31 0 0 0-.31.31v1.862c0 .172.138.31.31.31h1.862a.31.31 0 0 0 .31-.31v-1.862a.31.31 0 0 0-.31-.31zm4.136 0a.31.31 0 0 0-.31.31v1.862c0 .172.138.31.31.31h1.861a.31.31 0 0 0 .31-.31v-1.862a.31.31 0 0 0-.31-.31zm4.136 0a.31.31 0 0 0-.31.31v1.862c0 .172.138.31.31.31h1.861a.31.31 0 0 0 .31-.31v-1.862a.31.31 0 0 0-.31-.31zm-12.407 4.136a.31.31 0 0 0-.31.31v1.861c0 .173.138.31.31.31h10.132a.31.31 0 0 0 .31-.31v-1.86a.31.31 0 0 0-.31-.31z" fill="#ebebeb"/></svg>