<svg xmlns="http://www.w3.org/2000/svg" height="32" width="32" version="1"><rect width="28.203" height="28.203" x="1.898" y="1.898" ry="5.575" fill="#1d3c65" fill-rule="evenodd"/><g stroke-width="6.185"><path d="M13.76 15.342c-5.987-2.705-8.247-3.84-8.296-4.168-.032-.215.089-.43.33-.588.208-.137 2.377-1.171 4.82-2.3 3.982-1.839 4.53-2.05 5.328-2.05s1.346.211 5.329 2.05c2.442 1.129 4.606 2.16 4.81 2.294.746.488.488.836-1.207 1.63-9.33 4.364-8.75 4.2-11.114 3.132z" fill="#2aaadf"/><path d="M14.655 20.534c-.43-.174-5.358-2.418-7.29-3.33-1.032-.486-1.921-1.004-1.978-1.15-.144-.376.242-.657 2.026-1.477l1.543-.71 3.132 1.45c2.477 1.145 3.286 1.448 3.86 1.448.576 0 1.385-.303 3.86-1.449l3.133-1.448 1.544.71c.848.39 1.674.821 1.835.959.646.553.578.593-6.491 3.858-2.263 1.045-1.895.843-2.55 1.15-.947.39-1.646.382-2.624-.011z" fill="#81ae21"/><path d="M14.719 25.464c-.43-.173-5.358-2.418-7.29-3.33-1.031-.486-1.921-1.004-1.977-1.15-.144-.375.24-.656 2.025-1.477l1.543-.71 3.133 1.45c2.476 1.145 3.285 1.449 3.86 1.449.575 0 1.384-.304 3.86-1.45l3.133-1.448 1.543.71c.849.39 1.674.822 1.835.96.646.552.578.593-6.491 3.858-2.263 1.045-1.894.843-2.55 1.15-.947.39-1.646.382-2.624-.012z" fill="#eb541d"/></g></svg>