<svg xmlns="http://www.w3.org/2000/svg" height="32" width="32" version="1"><rect width="28.203" height="28.203" x="1.898" y="1.898" ry="5.575" fill="#257833" fill-rule="evenodd"/><rect ry=".671" rx=".671" transform="scale(1 -1) rotate(-45)" height="12.536" width="12.536" y="-9.578" x="16.359" fill="#4bae4f"/><rect ry=".671" rx=".671" transform="scale(1 -1) rotate(-45)" height="12.536" width="12.536" y="-6.268" x="19.669" fill="#4bae4f"/><rect ry=".855" rx=".855" transform="scale(1 -1) rotate(-45)" height="15.956" width="15.956" y="-7.978" x="14.65" fill="#f58411"/><path d="M16.78 20.292c.613-.05.7-.205 1.02-.483.326-.277.368-.599.368-1.078 0-.434.028-.926-.292-1.23-.32-.302-.478-.565-1.096-.722zm-1.562-8.587c-.558.035-.727.248-1.036.515-.31.263-.351.602-.351 1.046 0 .404.028.753.31 1.02.288.267.47.375 1.077.542zm-3.122 8.587V18.34h.867c.022.692.218.988.63 1.341.413.353.811.596 1.625.611V16.78c-1.248-.323-1.858-.91-2.363-1.328-.505-.423-.76-.983-.76-1.68 0-.807.301-1.455.898-1.944.597-.49 1.162-.842 2.225-.903V8.973h1.562v1.951c.548.176.732.217 1.097.328.532.161 1.109.285 1.592.492v1.913H18.6c-.065-.586-.305-1.029-.679-1.367-.374-.338-.502-.54-1.142-.585v3.513c1.335.338 1.787.695 2.318 1.134.538.434.804.867.804 1.598 0 .838-.35 1.614-.942 2.162-.562.522-1.035.885-2.18.96v1.952h-1.562v-1.951c-.504-.112-.795-.171-1.354-.302-.559-.126-1.16-.227-1.768-.479z" aria-label="$" font-size="39.066" font-family="DejaVu Serif" letter-spacing="0" word-spacing="0" fill="#fff" stroke-width="1.251"/></svg>