<svg xmlns="http://www.w3.org/2000/svg" height="32" width="32" version="1"><rect width="28.203" height="28.203" x="1.898" y="1.898" ry="5.575" fill="#728e93" fill-rule="evenodd"/><path d="M22.6 22.506c.681-.683 1.239-1.29 1.239-1.35 0-.163-3.445-3.534-4.053-3.966a37.643 37.643 0 0 0-1.08-.734c-.564-.366-.727-.562-1.45-1.738-.307-.5-.75-.964-.92-.964-.096 0-.322.17-.603.454l-.45.454-1.256-1.24c-.691-.682-1.378-1.382-1.527-1.555-.305-.353-.604-.906-.779-1.442-.065-.197-.174-.41-.243-.472-.265-.24-2.075-1.44-2.172-1.44-.121 0-.772.622-.772.738 0 .044.167.312.37.597.203.284.515.737.695 1.006.362.543.606.737 1.18.934.213.073.496.188.627.254.13.066.922.8 1.758 1.63l1.52 1.51-.376.387c-.445.456-.535.615-.46.811.09.238.686.715 1.323 1.059.882.476.927.516 1.437 1.294.258.394.699 1 .98 1.345.573.709 3.545 3.67 3.682 3.67.05 0 .647-.56 1.33-1.242zm-11.9 1.019c.185-.055.86-.685 2.742-2.56l2.497-2.488-.156-.168c-.085-.091-.393-.287-.684-.434-.621-.313-1.13-.677-1.444-1.035l-.225-.256-2.17 2.167c-1.194 1.191-2.284 2.329-2.421 2.528-.311.449-.375.865-.202 1.319.338.886 1.081 1.22 2.064.927zm-.747-.967c-.084-.034-.203-.157-.263-.274-.298-.575.452-1.129.91-.671.282.282.226.738-.114.914-.222.115-.312.12-.533.031zm9.599-7.31c1.427.226 2.237.026 3.09-.764.52-.481.806-1.02.946-1.778.144-.788.175-1.688.06-1.728-.048-.017-.426.298-.84.7-.892.867-1.076.974-1.664.97-.923-.004-1.498-.586-1.498-1.515 0-.214.048-.503.106-.643.059-.14.455-.608.882-1.04.432-.439.754-.82.728-.862-.149-.24-1.958.045-2.725.43a3.102 3.102 0 0 0-1.652 3.26c.079.486.076.574-.027.771-.063.123-.155.238-.205.257-.057.022.065.194.336.471.253.26.566.691.77 1.063.19.344.424.73.519.857l.172.231.367-.362c.344-.34.382-.359.635-.319z" fill="#fff"/><path style="line-height:normal;font-variant-ligatures:normal;font-variant-position:normal;font-variant-caps:normal;font-variant-numeric:normal;font-variant-alternates:normal;font-feature-settings:normal;text-indent:0;text-align:start;text-decoration-line:none;text-decoration-style:solid;text-decoration-color:#000;text-transform:none;text-orientation:mixed;white-space:normal;shape-padding:0;isolation:auto;mix-blend-mode:normal;solid-color:#000;solid-opacity:1" d="M5.128 17.016v6.513c0 1.94 1.52 3.53 3.414 3.53h14.916c1.893 0 3.414-1.59 3.414-3.53v-6.513h-.89v6.513c0 1.48-1.127 2.639-2.524 2.639H8.542c-1.397 0-2.523-1.16-2.523-2.639v-6.513z" color="#000" font-weight="400" font-family="sans-serif" overflow="visible" fill="#fff"/></svg>