<svg xmlns="http://www.w3.org/2000/svg" height="32" width="32" version="1"><rect width="28.203" height="28.203" x="1.898" y="1.898" ry="5.575" fill="#303877" fill-rule="evenodd"/><path d="M16 9c-2.198.002-4.392.54-6.066 1.604-3.682 2.338-3.935 6.384-.553 8.869.31.224.593.433.629.461l-.936 1.664L11 23l5-8.32L21 23l1.926-1.402-.936-1.664c.036-.028.318-.237.629-.461 3.382-2.485 3.129-6.532-.553-8.869C20.392 9.54 18.198 9.002 16 9zm-.506 1l-4.5 8c-5-4 .5-8 4.5-8zm1.006 0c4 0 9.5 4 4.5 8zm-.5 7l-2 2.998L16 23l2-3.002z" fill="#9c9c9c"/></svg>