<svg xmlns="http://www.w3.org/2000/svg" height="32" width="32" version="1"><rect width="28.203" height="28.203" x="1.898" y="1.898" ry="5.575" fill="#fff" fill-rule="evenodd"/><path d="M16 3.898v5.187A5.186 6.915 0 0 1 21.186 16 5.186 6.915 0 0 1 16 22.915a2.593 2.593 0 0 0-2.593 2.593A2.593 2.593 0 0 0 16 28.102a2.593 2.593 0 0 0 .221-.012c6.6-.119 11.88-5.46 11.88-12.09A12.075 12.075 0 0 0 16 3.898z" fill="#ccc"/><path d="M16 3.898a2.593 2.593 0 0 0-.221.012C9.179 4.03 3.899 9.37 3.899 16c0 6.617 5.26 11.95 11.843 12.088a2.593 2.593 0 0 1-2.335-2.58A2.593 2.593 0 0 1 16 22.915 5.186 6.915 0 0 1 10.814 16 5.186 6.915 0 0 1 16 9.085a2.593 2.593 0 0 0 2.593-2.593A2.593 2.593 0 0 0 16 3.898z" fill="#e74c3c"/></svg>