<svg xmlns="http://www.w3.org/2000/svg" width="32" height="32"><g fill-rule="evenodd"><path d="M4.349 29.023l18.3-17.7c-.525-1.304-1.046-2.414-1.533-3.223-.487-.81-.94-1.32-1.334-1.424a.923.923 0 0 0-.326-.022v-.002c-.475.04-1.153.34-1.975.84-.821.5-1.787 1.198-2.835 2.037-2.097 1.678-4.53 3.915-6.817 6.235-2.279 2.31-4.41 4.699-5.932 6.699v2.064c0 1.902 1.006 3.491 2.452 4.496z" fill="#63a8d3"/><path d="M27.374 29.21c-.019-.145-.008-.232-.03-.382-.382-2.726-1.135-6.143-2.048-9.473L14.188 30.102h10.338c1.066 0 2.003-.377 2.848-.891z" fill="#cde4fd"/><path d="M25.26 19.389c.01-.028.029-.045.038-.073-.807-2.938-1.733-5.795-2.649-8.064l-.025.016c.009.021.017.032.025.054L4.35 29.023c.902.628 1.938 1.079 3.125 1.079h6.714z" fill="#9cc7f4"/><path d="M7.474 1.898a5.563 5.563 0 0 0-5.577 5.575v14.99c1.523-2 3.653-4.389 5.932-6.7 2.288-2.319 4.72-4.556 6.817-6.234 1.048-.839 2.014-1.538 2.835-2.037.822-.5 1.5-.8 1.975-.84v.002a.924.924 0 0 1 .326.022c.394.105.847.614 1.334 1.424.479.795.991 1.893 1.508 3.168.01-.005.016-.011.025-.016.916 2.269 1.842 5.126 2.649 8.064-.01.028-.028.045-.037.073l.035-.033-.002-.004h.006l-.004.004c.913 3.33 1.666 6.746 2.049 9.472.02.15.01.237.029.383 1.604-.977 2.729-2.66 2.729-4.684V7.473a5.563 5.563 0 0 0-5.577-5.575z" fill="#007eff"/></g></svg>