<svg xmlns="http://www.w3.org/2000/svg" width="32" height="32" version="1"><rect width="28.203" height="28.203" x="1.898" y="1.898" ry="5.575" fill="#353535" fill-rule="evenodd"/><path d="M24.512 25.288c-.453-.648-1.727-1.935-2.113-2.135-.33-.171-.37-.168-.526.043-.194.262-.115.928.16 1.356.097.15.355.366.572.48.48.25 1.656.638 1.963.647.203.006.198-.028-.056-.39zm-3.183-.061c.363-.942.266-1.768-.28-2.384-.372-.42-.526-.423-.683-.01-.211.555.317 2.73.662 2.73.094 0 .23-.151.3-.336zm-1.743-2.445c-.124-1.243-.384-1.911-.984-2.529-.292-.3-.565-.672-.607-.826-.047-.173.498.308 1.413 1.247.82.84 1.423 1.434 1.34 1.32-.083-.115-.11-.275-.06-.356.052-.085.038-.114-.034-.07-.068.042-.459-.348-.868-.867-.41-.52-.944-1.178-1.188-1.463-.426-.498-.433-.52-.16-.515.902.014 1.947.34 2.57.803 1.358 1.01 1.465 1.044 2.756.886 1.204-.147 1.928-.337 1.79-.47-.228-.22-2.291-.995-3.313-1.244-.808-.197-1.483-.265-2.734-.274l-1.66-.011-.968-.905a44.319 44.319 0 0 0-1.945-1.698c-.538-.436-.963-.844-.944-.907.018-.063-.013-.086-.069-.051-.056.034-.752-.456-1.547-1.091-.794-.635-1.386-1.155-1.316-1.155.07 0 .78.188 1.574.418 1.314.379 1.501.47 2.045.993.736.708 1.6 1.108 2.638 1.222.435.048.906.162 1.047.254.218.143.29.142.492-.01a.993.993 0 0 1 .49-.184c.65-.01.344-.345-.865-.948-.858-.428-2.077-.837-4.265-1.432-.866-.235-1.598-.451-1.627-.48-.028-.028.693-.091 1.603-.14 1.521-.081 2.187-.033 3.602.26.242.05.28.02.228-.182-.06-.231-.016-.239 1.023-.171 1.125.072 1.283.004.891-.388-.53-.531-2.023-.936-3.533-.96-.81-.012-1.104.04-1.711.307a5.87 5.87 0 0 1-1.457.396 6.239 6.239 0 0 0-1.467.386c-.409.171-.838.34-.955.377-.278.086-2.828-2.44-3.444-3.414-.565-.89-.659-1.332-.376-1.763.21-.32.208-.335-.057-.55-.31-.251-.672-.14-.794.244-.187.588.823 2.26 2.435 4.028.699.768 1.087 1.341 1.603 2.37.374.747.63 1.391.567 1.432-.062.041-.182.204-.266.363-.124.237-.116.38.046.807.323.844 1.085 1.376 1.737 1.212.743-.187.581-1.216-.34-2.166-.59-.607-1.817-2.37-1.529-2.194.436.265 2.28 1.925 2.328 2.096.74 2.63.729 2.57.55 3.109-.24.727-.178 1.7.183 2.837.312.98.996 2.268 1.248 2.349.19.06.311-2.998.153-3.867a5.789 5.789 0 0 0-.476-1.355c-.594-1.14-1.325-2.937-1.155-2.84.656.37 4.46 3.75 4.46 3.962 0 .063-.114.366-.255.674-.24.53-.244.586-.06 1.067.2.523 1.992 2.882 2.19 2.882.062 0 .074-.355.027-.825zm5.533.72c.22-.14-1.049-1.269-1.89-1.68-.596-.292-.65-.298-1.073-.121-.329.137-.53.154-.764.065-.176-.067-.342-.098-.37-.07-.027.027.122.11.332.183.225.078.348.188.3.266-.192.311.733.934 1.775 1.195 1.14.285 1.449.314 1.69.161zm-3.156-.543c0-.02-.207-.227-.459-.458l-.458-.421.421.458c.392.427.496.514.496.421zm-5.442-3.74c.09-.416-.087-.91-.409-1.135-.133-.094-.336-.404-.45-.69-.239-.595-.398-.6-.191-.006.12.342.105.424-.11.623-.182.17-.224.314-.164.56.116.47.412.89.706.999.36.133.533.034.618-.352zm2.34-1.552c.34-.091.56-.577.424-.935-.276-.72-1.68-1.342-2.407-1.065-.258.098-.519.04-1.39-.309-.59-.236-1.149-.427-1.241-.425-.093.002.358.225 1 .495 1.05.44 1.186.534 1.323.912.172.477.771.984 1.45 1.226.542.193.512.19.841.101z" fill="#fff"/></svg>