<?xml version="1.0" encoding="UTF-8" standalone="no"?>
<svg
   xmlns:dc="http://purl.org/dc/elements/1.1/"
   xmlns:cc="http://creativecommons.org/ns#"
   xmlns:rdf="http://www.w3.org/1999/02/22-rdf-syntax-ns#"
   xmlns:svg="http://www.w3.org/2000/svg"
   xmlns="http://www.w3.org/2000/svg"
   height="32"
   width="32"
   version="1"
   id="svg16">
  <metadata
     id="metadata22">
    <rdf:RDF>
      <cc:Work
         rdf:about="">
        <dc:format>image/svg+xml</dc:format>
        <dc:type
           rdf:resource="http://purl.org/dc/dcmitype/StillImage" />
        <dc:title></dc:title>
      </cc:Work>
    </rdf:RDF>
  </metadata>
  <defs
     id="defs20" />
  <rect
     style="opacity:1;fill:#2a88ae;fill-opacity:1;fill-rule:evenodd;stroke:none;stroke-width:1.03534;stroke-linecap:round;stroke-linejoin:bevel;stroke-miterlimit:4;stroke-dasharray:none;stroke-dashoffset:0;stroke-opacity:1"
     id="rect4497-3"
     width="28.203388"
     height="28.203388"
     x="1.8983059"
     y="1.8983059"
     ry="5.575182" />
  <g
     id="g920"
     transform="translate(-0.99982608)">
    <rect
       style="fill:#7f7f7f;fill-opacity:1;stroke-width:0.75"
       width="15"
       height="18"
       x="7"
       y="5"
       rx="0.75"
       ry="0.75"
       id="rect4" />
    <rect
       style="fill:#a4a4a4;fill-opacity:1;stroke-width:0.75"
       width="15"
       height="18"
       x="8.5"
       y="6.5"
       rx="0.75"
       ry="0.75"
       id="rect10" />
    <rect
       style="fill:#cccccc;fill-opacity:1;stroke-width:0.75"
       width="15"
       height="18"
       x="10"
       y="8"
       rx="0.75"
       ry="0.75"
       id="rect16" />
    <g
       id="g26"
       transform="matrix(0.91543065,0,0,0.97777777,1.4723736,0.71111129)">
      <path
         style="fill:#d3af61;fill-opacity:1;stroke-width:0.75"
         d="M 11.5,9.5000001 11.50019,20.75 H 23.5 c -11.999999,0 -12,-11.2499999 -12,-11.2499999 z"
         id="path18" />
      <path
         id="path899"
         style="fill:#84af77;fill-opacity:1;stroke:#000000;stroke-width:0;stroke-linecap:butt;stroke-linejoin:miter;stroke-miterlimit:4;stroke-dasharray:none;stroke-opacity:1"
         d="M 11.5,9.4999999 V 11.75 c 0,0 0,9 10.5,9 h 1.5 V 9.4999999 Z" />
      <path
         style="fill:#4a7ea6;fill-opacity:1;stroke-width:0.75"
         d="M 11.5,9.4999999 H 23.499998 V 20.749999 C 11.5,20.749999 11.5,9.4999999 11.5,9.4999999 Z"
         id="path20" />
    </g>
  </g>
</svg>
