<svg xmlns="http://www.w3.org/2000/svg" height="32" width="32" version="1"><rect width="28.203" height="28.203" x="1.898" y="1.898" ry="5.575" fill="#4b9d90" fill-rule="evenodd"/><g transform="translate(.054 -.003)"><path d="M16.479 25.234c.25-.127.346-.295.346-.606 0-.31-.096-.478-.346-.606-.133-.067-.289-.08-1.015-.08h-.858v-.201c0-.193.01-.208.217-.327a6.172 6.172 0 0 0 1.846-1.72 6.43 6.43 0 0 0 .706-1.469l.124-.4h.97c.91 0 .975-.006 1.069-.093.208-.194.167-.499-.084-.626-.157-.08-5.263-.085-5.411-.005-.242.128-.291.423-.102.612.11.11.12.112.96.112.974 0 .932-.025.705.424-.568 1.127-1.522 1.895-2.724 2.192-.314.078-.53.099-.975.095-1.099-.008-1.992-.37-2.782-1.126-.825-.79-1.246-1.782-1.247-2.939a3.937 3.937 0 0 1 1.074-2.749c.337-.363.73-.667 1.11-.857l.235-.118.222.115c.443.23.968.193 1.389-.097l.225-.155 1.064 1.224c.585.673 1.145 1.3 1.243 1.394.217.206.448.265.63.16.111-.063.132-.064.182-.004.071.086.288.2.38.2.038 0 .143-.066.234-.146l.166-.145.251.283c.139.155.27.282.29.282.058 0 .686-.555.686-.605 0-.023-.102-.161-.228-.306a2.132 2.132 0 0 1-.229-.29c0-.015.062-.089.137-.164.163-.163.18-.353.046-.523-.083-.106-.085-.126-.023-.246.094-.18.086-.29-.034-.51-.057-.103-1.45-1.731-3.096-3.619-3.112-3.567-3.214-3.672-3.49-3.603-.064.016-.222.125-.352.24l-.235.213-.193-.222c-.307-.35-.354-.39-.445-.375-.132.022-.87.677-.87.772 0 .046.115.218.255.383l.255.3-.235.218c-.208.192-.236.238-.237.404a.735.735 0 0 0 .05.286c.029.054.493.604 1.032 1.222l.979 1.125-.178.183c-.098.1-.19.223-.206.27-.017.054-.192.168-.448.291-1.772.857-2.956 2.457-3.236 4.371-.078.535-.032 1.607.091 2.106.359 1.453 1.206 2.665 2.427 3.47.235.154.442.281.458.281.017 0 .03.093.03.206v.206h-.932c-.712 0-.962.015-1.056.064-.53.276-.521 1.006.014 1.244.11.05.978.061 4.574.063 4.137.001 4.448-.004 4.595-.079z" fill="#f5f5f5"/><path d="M16.457 25.24c.246-.116.36-.314.36-.62 0-.301-.098-.471-.345-.598-.133-.067-.289-.08-1.015-.08h-.858v-.2c0-.195.006-.202.286-.373a5.91 5.91 0 0 0 2.172-2.378c.153-.307.232-.515.404-1.063.013-.045-.174-.057-.839-.054l-.856.003-.218.443c-.502 1.025-1.472 1.809-2.619 2.117-.475.128-1.395.14-1.875.024-.841-.203-1.388-.507-2.005-1.116-1.616-1.592-1.584-4.22.069-5.804.282-.27.91-.714 1.089-.77.05-.017.185.024.33.1.203.107.297.127.585.127.407-.001.647-.096.97-.383.684-.609.466-1.789-.404-2.187-.321-.147-.78-.157-1.083-.023-.217.096-.545.401-.65.605-.04.08-.163.165-.35.249a5.733 5.733 0 0 0-3.31 4.299 5.732 5.732 0 0 0 2.51 5.701c.227.15.426.271.443.271.016 0 .032.093.033.206l.003.206h-.922c-1.035 0-1.152.028-1.344.316-.218.325-.09.799.263.976.148.075.463.08 4.59.08 3.993 0 4.445-.007 4.586-.074zm-5.682-10.945c-.44-.268-.503-.79-.14-1.142a.712.712 0 0 1 1.135.177c.171.32.054.767-.251.955-.2.124-.549.129-.744.01z" fill="#f5f5f5"/><circle r="1.553" cy="13.429" cx="11.063" fill="#96e652" stroke="#f5f5f5" stroke-width=".652" stroke-linecap="round" stroke-linejoin="round"/><g transform="translate(6.688 12.5)" stroke="#f5f5f5" stroke-linecap="round" stroke-linejoin="round"><rect width="3.627" height="12.344" x="14.187" y=".3" ry="1.813" fill="#96e652" stroke-width=".6"/><rect width="3.746" height="7.694" x="14.127" y=".236" ry="0" fill="#f5f5f5" stroke-width=".481"/></g><rect ry=".331" y="11.662" x="19.704" height=".663" width="5.966" fill="#f5f5f5"/><path d="M21.498 13.742a.15.15 0 0 0 .016.301h1.027a.15.15 0 0 0 0-.3h-1.027a.15.15 0 0 0-.016 0zm-.006.584a.15.15 0 0 0 .016.301h.46a.15.15 0 0 0 0-.3h-.46a.15.15 0 0 0-.016 0zm-.008.586a.151.151 0 0 0 .03.3h1.027a.15.15 0 0 0 0-.3h-1.027a.15.15 0 0 0-.016 0 .15.15 0 0 0-.014 0zm.008.584a.15.15 0 0 0 .016.299h.46a.15.15 0 1 0 0-.299h-.46a.15.15 0 0 0-.016 0zm.006.584a.15.15 0 0 0 .016.3h1.027a.15.15 0 0 0 0-.3h-1.027a.15.15 0 0 0-.016 0zm-.006.584a.15.15 0 0 0 .016.3h.46a.15.15 0 1 0 0-.3h-.46a.15.15 0 0 0-.016 0zm-.008.586a.151.151 0 0 0 .03.3h1.027a.15.15 0 0 0 0-.3h-1.027a.15.15 0 0 0-.016 0 .15.15 0 0 0-.014 0zm.008.584a.15.15 0 0 0 .016.299h.46a.15.15 0 1 0 0-.299h-.46a.15.15 0 0 0-.016 0zm.006.584a.15.15 0 0 0 .016.3h1.027a.15.15 0 0 0 0-.3h-1.027a.15.15 0 0 0-.016 0zm-.006.584a.15.15 0 0 0 .016.3h.46a.15.15 0 0 0 0-.3h-.46a.15.15 0 0 0-.016 0z" style="line-height:normal;font-variant-ligatures:normal;font-variant-position:normal;font-variant-caps:normal;font-variant-numeric:normal;font-variant-alternates:normal;font-feature-settings:normal;text-indent:0;text-align:start;text-decoration-line:none;text-decoration-style:solid;text-decoration-color:#000;text-transform:none;text-orientation:mixed;white-space:normal;shape-padding:0;isolation:auto;mix-blend-mode:normal;solid-color:#000;solid-opacity:1" color="#000" font-weight="400" font-family="sans-serif" overflow="visible" fill="#b3b3b3"/><circle transform="scale(-1 1)" r=".715" cy="7.825" cx="-21.807" fill="#f5f5f5"/><circle transform="scale(-1 1)" r=".929" cy="9.612" cx="-19.782" fill="#f5f5f5"/><circle transform="scale(-1 1)" r=".405" cy="10.517" cx="-22.022" fill="#f5f5f5"/><circle transform="scale(-1 1)" r=".405" cy="6.967" cx="-19.806" fill="#f5f5f5"/></g></svg>