<svg xmlns="http://www.w3.org/2000/svg" xmlns:xlink="http://www.w3.org/1999/xlink" version="1.0" width="32" height="32"><defs><linearGradient id="a"><stop offset="0"/><stop offset="1" stop-opacity="0"/></linearGradient><linearGradient id="d"><stop offset="0" stop-color="#a0a0a0"/><stop offset=".519" stop-color="#828282"/><stop offset=".685" stop-color="#5a5a5a"/><stop offset=".765" stop-color="#5a5a5a"/><stop offset=".914" stop-color="#828282"/><stop offset="1" stop-color="#6e6e6e"/></linearGradient><linearGradient id="c"><stop offset="0" stop-opacity="0"/><stop offset=".584" stop-opacity=".265"/><stop offset="1" stop-opacity="0"/></linearGradient><linearGradient id="b"><stop offset="0" stop-color="#fff"/><stop offset="1" stop-color="#65c02a"/></linearGradient><linearGradient id="e"><stop offset="0" stop-color="#fff"/><stop offset="1" stop-color="#fff" stop-opacity="0"/></linearGradient><linearGradient x1="40.125" y1="12.625" x2="44.563" y2="17.125" id="f" xlink:href="#b" gradientUnits="userSpaceOnUse" gradientTransform="matrix(.47127 0 0 .48935 -49.36 -7.842)"/></defs><g transform="translate(50.983 10.847)"><g transform="translate(-.95 -14.102)"><rect width="28.203" height="28.203" x="-48.136" y="5.153" ry="5.575" fill="#5f7c8a" fill-rule="evenodd"/><path d="M-27.037 28.714a2.492 2.492 0 0 0 1.842-2.427c.004-1.317-.947-2.39-2.246-2.537l-.252-.028-1.997-1.995-1.996-1.995-.08.085a.356.356 0 0 0-.081.111c0 .014.058.102.13.195.188.247.256.516.23.914-.034.533-.185.767-.98 1.526l-.146.14-.235-.06c-.32-.082-.632-.03-.848.143-.038.03.347.437 1.694 1.787l1.743 1.747.026.275c.058.64.423 1.281.96 1.687.318.24.584.367.934.446l.334.077c.146.034.716-.02.968-.091zm-.987-1.445a1.115 1.115 0 0 1-.558-1.777c.216-.273.487-.397.874-.397.24 0 .33.017.471.09.225.114.408.305.533.554.087.175.097.233.085.483-.01.208-.039.332-.106.465a1.25 1.25 0 0 1-.615.552c-.186.067-.517.081-.684.03zm-8.93-7.925c.117-.25.13-.518.042-.894-.025-.105-.002-.136.394-.52.467-.453.734-.614 1.136-.685.37-.066.79.041 1.104.28.127.097.133.098.204.034.04-.037.074-.085.073-.107 0-.023-.305-.344-.677-.715-.372-.37-.766-.764-.874-.875l-.196-.201.043-.183c.216-.925.192-1.485-.104-2.445-.055-.176-.316-.657-.495-.91-.573-.81-1.474-1.405-2.41-1.593-.468-.093-.854-.12-1.18-.079-.404.05-.862.145-.862.179 0 .014.485.51 1.079 1.102.593.592 1.093 1.102 1.111 1.135.02.036.016.092-.013.148-.025.05-.084.182-.132.294-.047.112-.109.254-.136.316-.028.06-.141.326-.25.588l-.2.477-.646.276c-.356.152-.73.315-.832.362-.102.048-.22.097-.26.11-.061.02-.278-.18-1.188-1.09a45.656 45.656 0 0 0-1.133-1.113c-.027 0-.099.264-.152.557-.055.307-.053 1.039.004 1.322.24 1.194.85 2.088 1.867 2.736.117.075.221.136.23.136.01 0 .105.041.213.091a4.16 4.16 0 0 0 1.653.355c.273 0 .855-.085 1.142-.167.059-.017.2.106.686.592.337.338.631.614.655.614.023 0 .07-.057.103-.127z" fill="#fff"/><path d="M-39.773 28.977c.19-.088.35-.243 4.054-3.916l1.159-1.149-.022-.28c-.046-.61.276-1.147.86-1.434.202-.1.26-.11.605-.112l.381-.002.274-.272c.366-.363.448-.527.447-.89-.001-.343-.055-.458-.358-.754-.119-.117-.217-.225-.217-.241 0-.016 1.166-1.192 2.59-2.614l2.589-2.586.408-.212c1.18-.613 1.21-.631 1.294-.794.07-.136.282-.521.359-.653.035-.061.145-.262.243-.446.098-.183.246-.45.329-.594.083-.143.175-.306.205-.363l.053-.104-.643-.644-.643-.644-.209.12a24.21 24.21 0 0 1-.46.258l-.39.215a26.56 26.56 0 0 1-.379.21c-.133.072-.364.203-.514.291a2.53 2.53 0 0 1-.297.16c-.03 0-.063.052-.264.427-.088.164-.189.347-.224.409-.035.06-.152.278-.258.482l-.195.371-2.567 2.571a236.845 236.845 0 0 1-2.586 2.57 2.76 2.76 0 0 1-.26-.229c-.293-.276-.47-.363-.742-.362-.321 0-.55.118-.895.461l-.298.297.024.208a1.47 1.47 0 0 1-.366 1.135c-.28.318-.63.463-1.122.463-.326 0-.34.003-.468.118-.073.065-1.206 1.18-2.519 2.476-2.188 2.162-2.394 2.376-2.491 2.588-.127.276-.138.525-.036.759.1.226 2.6 2.71 2.788 2.77.2.063.55.033.761-.064z" fill="#ccc"/></g><rect ry="5.575" y="-8.949" x="-49.085" height="28.203" width="28.203" fill="#b5eb6e" fill-rule="evenodd"/><path d="M-31.915 7.708a4.618 4.618 0 0 0-.614-1.583c-.1-.211-.172-.46-.172-.777 0-1.473.131-1.825.36-2.035.413-.38.611-.965.191-1.351a.81.81 0 0 0-.56-.229c-.264 0-.548.132-.82.382-.592.463-.386 1.461-.386 2.356 0 .41-.881.7-1.234.78-1.03.004-3.96.15-4.912 1.43-.858 1.154-4.395 6.856-4.395 7.764 0 .081.072.146.16.146 1.488 0 11.623-5.032 12.03-5.397.347-.31.469-.824.352-1.486z" fill="url(#XMLID_8_)"/><path d="M-28.231-3.322l-5.02 4.375a1.084 1.084 0 0 0 0 1.571l.369.357c.448.433 1.603.098 2.051-.335l4.416-4.185c.448-.433.559-1.086.11-1.52l-.369-.356c-.448-.433-1.109-.34-1.557.093z" fill="url(#f)"/><path d="M-32.633 1.625c-.24-.001-.48.141-.681.343-.428.43-.313.933-.313 2.44 0 .44-1.145.917-1.43.917h-.041c-.913 0-3.882.13-4.794 1.384-.913 1.256-4.33 6.961-4.33 7.798 1.368 0 11.31-4.973 11.82-5.44.617-.566.317-1.707-.081-2.467.002-.004-.002-.01 0-.014.01-.027.008-.064-.028-.123a2.222 2.222 0 0 1-.327-1.22c0-1.267.133-1.915.45-2.234.285-.287.537-.83.177-1.192a.588.588 0 0 0-.422-.192z" fill="#fff"/><path d="M-32.561 3.101c-.332.305-.582.996-.582 2.21 0 .48.432.86.656 1.204.458.7-3.196-1.131-2.758-1.131.3 0 1.488-.418 1.488-.84 0-1.442-.108-1.914.34-2.326.337-.309.777-.5 1.155-.153.378.348 0 .762-.3 1.036z" fill="url(#XMLID_12_)"/><path d="M-35.209 5.397c-.92 0-3.802.131-4.722 1.367-.88 1.183-4.074 6.367-4.348 7.548.028.257 3.396-1.232 6.072-2.482 2.786-1.302 5.51-2.595 5.773-2.83.92-.824-.082-2.84-.541-3.045-.46-.206-1.311-.708-2.234-.558z" fill="url(#XMLID_13_)"/><path d="M-35.061 5.365c.484-.085 1.304-.451 1.304-.821l.683.321c0 .745.168 1.117.439 1.436.041.067-2.495-.924-2.426-.936z" fill="url(#XMLID_14_)"/><path d="M-32.424 2.371a.337.337 0 1 1-.674 0 .337.337 0 0 1 .674 0z" opacity=".6" fill="#fff" fill-rule="evenodd"/></g></svg>