<svg xmlns="http://www.w3.org/2000/svg" height="32" width="32" version="1"><rect width="28.203" height="28.203" x="1.898" y="1.898" ry="5.575" fill="#4e91d9" fill-rule="evenodd"/><path d="M15.977 15.712l-.206.256-.023.32.457-.039.047-.32z" fill="#4e91d9" fill-rule="evenodd"/><path d="M16.363 15.586l-.25.006-.13.336h-.633v.326h.152s.008.069.021.16l.387-.033.242-.15.063-.303.312-.028.123-.253-.285-.061z" fill="#4e91d9" fill-rule="evenodd"/><path d="M20.208 23.72l.139-.782-.457-.126v-3.776s-1.282-.973-1.356-.973c-.074 0-.68-.164-.68-.164l-.126-.712-1.668-2.088.166-.752.054-1.227 1.155-.807-.166-1.375-1.684-.125-1.318-1.505-.936-.256-.603-.114.074-.548-.77-.11v.313l-.379-.094v9.645a5.565 5.565 0 0 0 5.576 5.576z" fill="#83b2e4" fill-rule="evenodd"/><path d="M16.239 1.897l.03.745.841.513-.033.772-.807.273.055.256.971.44-.02.53-.28.024c-.002-.008-.005-.013-.005-.013l-1.224-.377-.05-.393.355-.246v-.36l-.385-.095-.096.33-.676.105-.068-.023v.033l-.233.037-.192-.386-.219-.096h-.482l-.217.18v.398l.41.137.407.056-.092.041-.372.412-.162-.207-.36-.093-.975.918.127.103-1.443.8-1.357 1.411-.093.627-1.361.895-.674.675.076 1.356-.937-.436.008-.793-2.604.002-1.347.682-.586 1.078-.231.854.377.83 1.064.129 1.687-1.127.149.558-.517.973 1.285.219.129 1.982 1.76.299 1.118-1.291 1.358.273.475.664 1.302-.076.037-.385.716.346.805 1.264 1.394.02.514.898.073 1.097 1.542.586 1.941.02.57.933.862.276-.165.771-.944 1.198-.276 2.654-.852.672-1.265-.035-.42.73.313 1.377-.929 1.186h8.44a5.567 5.567 0 0 0 5.581-5.577v-6.275l-.557-.059-.512-.513h-.937l-.477.44h-1.65l-.055.146h-.918l-2.108-2.399.018-1.867.348-.129.13-.715h-.496l-.201-.75 2.438-1.758V9.401l1.192-.662.485.047h.98l.768-.41 1.552-.121v-.781c0-.368-.142-.688-.21-1.036l-.592-.12-1.08 1.402-.214.549-.688.06-1.022.008-.612-.285-.18-1.211.219-.58 1.04-.227 1.134.227.139-.627-.481-.114.164-.976 1.142-.178.09-.125c-.075-.102-.13-.216-.212-.312l-.166.199-.854.08h-.64l.071-.76.534-.11-.045-.357-.497-.31-.348-.238V2.4a5.542 5.542 0 0 0-2.273-.504zm10.36.717l.423.184-.04.476-.906.641h-.512v-.457h.002l.441-.705zM15.025 5.29h.002l.286.06-.123.254-.313.028-.063.303-.242.15-.387.033c-.014-.09-.022-.16-.022-.16h-.152v-.326h.633l.131-.336zm-1.675.342l.276.217-.047.32-.458.039.024-.32z" fill="#83b2e4" fill-rule="evenodd"/><path d="M15.777 15.993l-.002.014h.422l.028-.014z" fill="#4e91d9" fill-rule="evenodd"/><path d="M14.063 14.966l.083.308.55.36 1.099.15v1.25l.508-.082.467-.976 1.167-.37v-.64z" fill="#83b2e4" fill-rule="evenodd"/><path d="M11.909 7.004c-5.058.187-5.67 2.654-4.235 6.01.434 1.016 1.821.93 1.043-.103-3.266-10.172 18.44-.873 14.08 5.166-1.231 1.364-3.178 1.73-4.742 1.039-.712-.314-2.01.094-.962.683 2.124 1.197 7.161.512 7.765-2.334 1.502-7.09-9.3-10.595-12.95-10.461m6.87 5.18c-2.992 3.269-5.924 10.047-7.526 11.648-.867.866-2.073-.718-2.436-.224-.661.9.686 1.376 2.048 1.392 3.209.059 9.187-13.95 7.914-12.816z" fill="#333"/></svg>