<svg xmlns="http://www.w3.org/2000/svg" height="32" width="32" version="1"><rect width="28.203" height="28.203" x="1.898" y="1.898" ry="5.575" fill="#7ad354" fill-rule="evenodd"/><path d="M15.557 4.89A2.154 2.154 0 0 0 13.4 7.048v2.159H8.363c-.798 0-1.44.641-1.44 1.439v4.316h2.16c1.195 0 2.158.963 2.158 2.159a2.154 2.154 0 0 1-2.159 2.158H6.924v5.036c0 .797.641 1.44 1.439 1.44h5.036v-1.44c0-1.195.963-2.158 2.158-2.158 1.196 0 2.159.963 2.159 2.158v1.44h4.316c.798 0 1.44-.643 1.44-1.44V19.28h2.158a2.154 2.154 0 0 0 2.158-2.158 2.154 2.154 0 0 0-2.158-2.159h-2.16v-4.316c0-.798-.641-1.44-1.439-1.44h-4.316V7.049a2.154 2.154 0 0 0-2.159-2.158z" fill="#fff"/></svg>