<svg xmlns="http://www.w3.org/2000/svg" height="32" width="32" version="1"><g transform="translate(36.426 1.021)"><rect ry="5.575" y=".877" x="-34.527" height="28.203" width="28.203" fill="#042c38" fill-rule="evenodd"/><path d="M-28.953.877a5.563 5.563 0 0 0-5.574 5.576v5.342c.206-.652.423-1.284.68-1.723a6.117 6.117 0 0 1 1.558-1.888 6.882 6.882 0 0 1 2.07-1.16 5.878 5.878 0 0 1 2.174-.344c.697.03 1.342.21 1.87.555a6.385 6.385 0 0 1 2.048-1.567c.73-.36 1.496-.594 2.264-.818-.791.974-1.351 1.915-1.69 2.824-.338.909-.455 1.785-.357 2.627.098.842.41 1.65.928 2.422.517.772 1.24 1.51 2.16 2.21-1.192-.217-3.322-.296-5.17-.2a5.863 5.863 0 0 0-.392 3.48c.208 1.138.723 2.222 1.443 3.156a8.285 8.285 0 0 0 2.672 2.262c1.028.542 2.16.842 3.295.803.95-.044 1.748-.22 2.427-.506a5.06 5.06 0 0 0 1.707-1.168c.469-.487.848-1.064 1.166-1.711.32-.647.578-1.365.807-2.133.459-1.535.799-3.27 1.264-5.045.465-1.775 1.054-3.59 2.01-5.283.879.663 1.59 1.387 2.164 2.158.474.639.802 1.329 1.105 2.028v-6.32A5.565 5.565 0 0 0-11.9.876z" fill="#042c38" fill-rule="evenodd"/><path d="M-23.315 21.335c9.403 5.85 18.14-10.79 7.775-18.798 11.677 1.52 6.066 14.08 7.314 22.26-4.373-.195-10.147 3.955-14.062 1.743-.962-.543-.592-4.344-1.027-5.205z" fill="#3365ad"/><path d="M-25.062 14.013c-.953 1.86-.517 2.161-.218 2.516 1.014.896 2.666.395 5.665-1.282.143 1.147-.81 2.463-3.293 3.71-.815.406-1.215 1.036-.407 2.378l3.775 4.541-5.262-.447-4.342-11.051z" fill="#26477f"/><path d="M-15.984 6.078c4.57 2.958 3.48 7.234 4.837 10.94l.968-6.828c-1.837-2.91-2.127-3.631-5.805-4.112z" fill="#4c92cf"/><path d="M-13.175 13.186c.43 3.955-.048 6.674.707 6.828l1.358-3.703c-.342-.305-1.14-2.142-2.065-3.125z" fill="#233e71"/><path d="M-31.275 4.116c-1.552 2.036-2.04 4.015-1.631 5.841l2.973-2.183c-.684-.715-1.216-1.756-1.342-3.658z" fill="#3e7ac4"/><path d="M-24.776 10.931c1.928-.002 3.935.36 5.63-.71-.88 1.3-1.876 2.214-3.735 3.025z" fill="#fff"/><path d="M-24.565 8.116c.94.587 1.061 1.405 5.341 1.052.314.333.317.685.079 1.053-1.466.974-3.72 1.038-5.487.654z" fill="#4c8ec8"/><path d="M-19.224 9.168c.321.605.004.898-.195 1.195 1.115.15 1.302-1.498.195-1.195z" fill="#656465"/><path d="M-6.324 12.774c-.303-.699-.63-1.389-1.105-2.028a10.674 10.674 0 0 0-2.165-2.158c-.955 1.693-1.544 3.508-2.01 5.283-.464 1.776-.804 3.51-1.263 5.045-.23.768-.488 1.486-.807 2.133-.318.647-.697 1.224-1.166 1.711a5.06 5.06 0 0 1-1.707 1.168c-.679.286-1.477.462-2.427.506-1.135.039-2.267-.26-3.295-.803a8.285 8.285 0 0 1-2.672-2.262c-.72-.934-1.235-2.018-1.444-3.156a5.863 5.863 0 0 1 .393-3.48c1.848-.096 3.978-.017 5.17.2-.92-.7-1.643-1.438-2.16-2.21-.518-.773-.83-1.58-.928-2.422-.098-.842.019-1.718.357-2.627.339-.909.899-1.85 1.69-2.824-.768.224-1.534.458-2.264.818-.73.36-1.423.845-2.049 1.567-.527-.345-1.172-.525-1.869-.555a5.878 5.878 0 0 0-2.174.344 6.882 6.882 0 0 0-2.07 1.16 6.117 6.117 0 0 0-1.558 1.888c-.257.44-.474 1.071-.68 1.723v11.711a5.561 5.561 0 0 0 5.574 5.574H-11.9a5.563 5.563 0 0 0 5.576-5.574z" fill="#4a8ac7" fill-rule="evenodd"/></g></svg>