<svg xmlns="http://www.w3.org/2000/svg" height="32" width="32" version="1"><g stroke-width="1.439"><path d="M4.167 15.833V3.852H28.13v23.963H4.167z" fill="#d6effa"/><path d="M4.167 15.833V3.852H28.13v23.963H4.167zm8.097-2.49c0-1.226-.023-1.254-1.022-1.254-.421 0-.807-.041-.858-.092-.15-.15-1.23-.305-2.285-.329a21.386 21.386 0 0 1-1.568-.09c-.453-.053-.594-.04-.629.057-.025.07-.014.653.023 1.297l.068 1.17 1.123.02c.618.011 1.376.059 1.685.107.309.047 1.214.08 2.012.073l1.451-.013zm7.074.915c.004-.034.025-.625.047-1.313l.04-1.25-.772.08c-.425.044-1.137.08-1.583.08-.446 0-.768.027-.715.059.183.113-.111.188-.745.189-.347 0-1.052.012-1.567.024l-.936.023-.06.274c-.074.343-.097 1.573-.033 1.74.039.1.67.128 3.183.141 1.724.01 3.138-.012 3.141-.047zm2.096-.233c.1-.1.309-.157.566-.157.407 0 .61-.117.415-.238-.094-.058-.497-.09-1.562-.124-.403-.013-.525-.131-.246-.238.084-.032.605-.08 1.159-.107.553-.027 1.148-.09 1.321-.139.173-.05.737-.095 1.252-.1.515-.005 1.042-.04 1.17-.077.13-.037.348-.037.487.001.313.086.42-.038.41-.476l-.007-.328-1.592.025c-1.897.03-2.403-.02-2.366-.233.017-.096-.074-.178-.255-.231-.36-.107-1.85.005-1.94.145-.103.16-.086 1.04.025 1.334a.738.738 0 0 1 .007.514.952.952 0 0 0-.037.463c.049.184.102.2.545.163.289-.024.556-.105.648-.197zm4.8.074c.065-.02.118-.13.118-.24 0-.198-.02-.201-.913-.14-.502.034-1.256.064-1.676.067-.657.005-.77.03-.808.176-.025.094-.144.19-.266.212-.122.023.6.024 1.604.003 1.004-.022 1.878-.056 1.942-.078zM10.58 11.34c-.032-.051-.213-.093-.403-.092-.258.001-.31.025-.205.092.187.121.683.121.608 0zm1.592-.569c0-.108-.366-.145-2.013-.2-2.68-.088-4.249-.03-4.289.156-.034.163.86.202 4.242.187 1.714-.008 2.06-.032 2.06-.143zm2.106.037c.37-.05.392-.066.187-.128-.426-.127-1.404-.102-1.404.036 0 .069.02.145.044.17.047.046.483.017 1.173-.078z" fill="#a9d9f7"/><path d="M4.167 15.833V3.852H28.13v23.963H4.167zm8.072-1.481c.1-.1.06-4.085-.042-4.187-.037-.037-.427-.1-.865-.14-.546-.05-.898-.134-1.114-.268-.226-.14-.473-.195-.867-.196-.333 0-.661-.061-.831-.154-.154-.085-.526-.186-.825-.224-.299-.039-.615-.134-.702-.212-.087-.077-.304-.155-.482-.173l-.324-.032-.22.749c-.23.78-.24 1.497-.058 3.848l.06.758 1.416.06c.778.033 1.669.115 1.977.182.626.135 2.738.127 2.877-.011zm7.114.017c.086-.053.096-3.294.012-3.8-.067-.405-.244-.45-.823-.208-.284.118-.666.136-2.187.098-1.015-.025-2.076-.094-2.36-.154-.798-.168-.865-.161-.93.1-.03.128-.056 1.076-.054 2.105l.002 1.873 2.48.053c2.375.052 3.705.029 3.86-.067zm7.046-1.53v-1.64l-.375-.028a15.241 15.241 0 0 1-1.17-.176 11.1 11.1 0 0 0-1.357-.164c-.74-.022-.896-.056-.615-.134.124-.035.243-.113.263-.173.057-.17-.513-.233-1.286-.142-.386.046-.896.066-1.133.044-.422-.038-.433-.032-.492.262-.033.166-.06 1.054-.06 1.975v1.673l1.1.01c.605.005 1.352.042 1.661.08.31.04 1.215.067 2.013.06l1.45-.01z" fill="#95b5d5"/><path d="M4.167 15.833V3.852H28.13v23.963H4.167zm7.395-1.006c0-.064.105-.117.234-.117a.648.648 0 0 0 .398-.164c.146-.146.164-.39.164-2.307v-2.143l-.515-.17c-.283-.095-.632-.173-.775-.174a1.962 1.962 0 0 1-.597-.143 2.002 2.002 0 0 0-.637-.14c-.28 0-1.221-.278-1.477-.436-.062-.038-.276-.058-.476-.043-.289.02-.418-.026-.626-.225-.216-.207-.315-.24-.556-.187-.185.04-.345.021-.433-.052-.318-.264-.457.272-.567 2.18-.043.741-.018 1.221.095 1.826.084.452.163 1.023.176 1.27l.023.45 1.216.026c.955.02 1.436.081 2.23.282.558.141 1.169.243 1.358.227.193-.017.337.011.328.064-.008.051.087.093.21.093.125 0 .227-.052.227-.117zm14.92-.265c.032-.081.057-.903.057-1.825V11.06h-.328c-.217 0-.461-.096-.716-.281-.327-.237-.475-.281-.94-.281-.303 0-.83-.07-1.17-.155-.513-.13-.758-.14-1.44-.061-.454.052-1.014.065-1.247.03-.256-.039-.462-.026-.52.033-.061.06-.098.822-.098 2.032 0 2.235-.013 2.2.772 2.115.27-.03 1.124.002 1.896.07.772.069 1.916.13 2.54.137.958.01 1.146-.012 1.194-.137zm-7.05-.145c.137-.257.085-4.24-.058-4.382-.067-.067-.343-.052-.889.048-1.097.201-3.353.203-4.482.004-.71-.126-.897-.133-.958-.037-.09.144-.106 4.414-.016 4.504.034.034 1.465.063 3.179.063 3.087 0 3.118-.002 3.224-.2zm2.946-4.674c.033-.055.042-.12.018-.143-.065-.065-.35.064-.35.16 0 .116.257.104.332-.017z" fill="#cab59a"/><path d="M4.167 15.833V3.852H28.13v23.963H4.167zm5.055 5.804c0-.051-.158-.093-.351-.092-.261 0-.315.025-.21.092.184.12.561.12.561 0zm2.06-.5c0-.057-.087-.017-.192.088-.12.12-.167.25-.128.352.052.138.08.125.19-.087.071-.137.13-.295.13-.352zm-.39.173c.083-.084-.124-.37-.291-.404-.082-.016-.173.057-.207.164-.044.137-.141.193-.336.193-.15 0-.274.042-.274.095 0 .099 1.003.055 1.107-.048zm2.484-.44c-.093-.15-.316-.07-.316.113 0 .162.024.172.181.074.1-.062.16-.146.135-.188zm-6.12-3.582c.18-.084.473-.257.65-.385.19-.137.383-.208.468-.172.188.078.295.077.497-.007.116-.048.164-.024.164.082 0 .083.031.15.07.15.039 0 .611-.061 1.272-.135 1.14-.127 1.653-.29 1.653-.522 0-.05.063-.091.14-.091.164 0 .202-.606.045-.704-.053-.032-.085-.127-.07-.21.017-.1-.077-.182-.279-.24-.36-.107-.409-.344-.07-.344a.7.7 0 0 0 .423-.189c.18-.18.188-.29.164-2.307l-.025-2.118-.515-.171c-.283-.094-.632-.172-.775-.173a1.962 1.962 0 0 1-.597-.143 2.002 2.002 0 0 0-.637-.14c-.28 0-1.221-.278-1.477-.436-.062-.038-.276-.058-.476-.043-.289.02-.418-.026-.626-.225-.216-.207-.315-.24-.556-.187-.19.042-.345.021-.44-.057-.22-.184-.364.077-.46.83-.139 1.106-.04 4.437.141 4.779.047.087.402.128 1.276.147.95.021 1.431.083 2.235.286.613.155 1.148.24 1.332.21.17-.028.33-.016.355.026.1.163-.285.334-.97.429-.61.084-.712.125-.712.282 0 .1-.046.261-.103.357-.088.149-.171.165-.562.109-.252-.037-.985-.073-1.628-.081l-1.17-.015-.02.832-.02.832.488-.052c.268-.03.635-.121.815-.204zm3.415-1.825c.077-.125.667-.225.809-.138.085.053.067.092-.064.144-.266.104-.81.1-.745-.006zm2.61.204c.03-.048-.007-.167-.08-.264-.123-.161-.135-.13-.13.337.004.41.02.464.08.265.042-.138.1-.29.13-.338zm13.201-1.105c.032-.081.057-.903.057-1.825V11.06h-.328c-.217 0-.461-.096-.716-.281-.327-.237-.475-.281-.94-.281-.303 0-.83-.07-1.17-.155-.513-.13-.758-.14-1.44-.061-.454.052-1.014.065-1.247.03-.256-.039-.462-.026-.52.033-.061.06-.098.822-.098 2.032 0 2.235-.013 2.2.772 2.115.27-.03 1.124.002 1.896.07.772.069 1.916.13 2.54.137.958.01 1.146-.012 1.194-.137zm-7.05-.145c.137-.257.085-4.24-.058-4.382-.067-.067-.343-.052-.889.048-1.097.201-3.353.203-4.482.004-.71-.126-.897-.133-.958-.037-.09.144-.106 4.414-.016 4.504.034.034 1.465.063 3.179.063 3.087 0 3.118-.002 3.224-.2zm2.946-4.674c.033-.055.042-.12.018-.143-.065-.065-.35.064-.35.16 0 .116.257.104.332-.017z" fill="#67a0e0"/><path d="M4.167 15.833V3.852H28.13v23.963H4.167zm5.055 5.804c0-.051-.158-.093-.351-.092-.261 0-.315.025-.21.092.184.12.561.12.561 0zm2.06-.5c0-.057-.087-.017-.192.088-.12.12-.167.25-.128.352.052.138.08.125.19-.087.071-.137.13-.295.13-.352zm-.39.173c.083-.084-.124-.37-.291-.404-.082-.016-.173.057-.207.164-.044.137-.141.193-.336.193-.15 0-.274.042-.274.095 0 .099 1.003.055 1.107-.048zm2.484-.44c-.093-.15-.316-.07-.316.113 0 .162.024.172.181.074.1-.062.16-.146.135-.188zm-6.12-3.582c.18-.084.473-.257.65-.385.19-.137.383-.208.468-.172.188.078.295.077.497-.007.116-.048.164-.024.164.082 0 .083.031.15.07.15.039 0 .611-.061 1.272-.135 1.14-.127 1.653-.29 1.653-.522 0-.05.063-.091.14-.091.164 0 .202-.606.045-.704-.053-.032-.085-.127-.07-.21.017-.1-.077-.182-.279-.24-.36-.107-.409-.344-.07-.344a.697.697 0 0 0 .421-.187c.176-.176.188-.311.186-2.27 0-1.145-.038-2.14-.082-2.21-.087-.138-.7-.283-1.22-.29-.178-.002-.493-.086-.703-.185-.21-.1-.688-.223-1.065-.274-.377-.051-.787-.16-.912-.242-.125-.082-.428-.175-.673-.206-.245-.032-.536-.14-.647-.24-.243-.221-.959-.401-1.086-.274-.146.146-.3 1.584-.292 2.728.009 1.26.125 2.896.217 3.07.047.087.402.128 1.276.147.95.021 1.431.083 2.235.286.613.155 1.148.24 1.332.21.17-.028.33-.016.355.026.1.163-.285.334-.97.429-.61.084-.712.125-.712.282 0 .1-.046.261-.103.357-.088.149-.171.165-.562.109-.252-.037-.985-.073-1.628-.081l-1.17-.015-.02.832-.02.832.488-.052c.268-.03.635-.121.815-.204zm3.415-1.825c.077-.125.667-.225.809-.138.085.053.067.092-.064.144-.266.104-.81.1-.745-.006zm2.61.204c.03-.048-.007-.167-.08-.264-.123-.161-.135-.13-.13.337.004.41.02.464.08.265.042-.138.1-.29.13-.338zm13.201-1.105c.071-.184.054-3.659-.025-5.047l-.058-1.03-.266-.03c-.167-.02-.393.055-.608.2a2.21 2.21 0 0 1-.804.288c-.254.032-.528.119-.61.193-.082.074-.467.174-.856.222-.389.048-.838.156-.998.238-.162.084-.658.178-1.117.212-.454.033-.878.102-.943.152-.087.07-.117.63-.117 2.223 0 2.452-.02 2.394.772 2.309.27-.03 1.124.002 1.896.07.772.069 1.916.13 2.54.137.958.01 1.146-.012 1.194-.137zm-7.054-.139c.135-.252.086-4.248-.053-4.388-.068-.067-.342-.052-.89.048-1.097.201-3.353.203-4.482.004-.71-.126-.897-.133-.958-.037-.09.144-.106 4.414-.016 4.504.034.034 1.465.063 3.179.063 3.053 0 3.119-.004 3.22-.194z" fill="#9a9b9f"/><path d="M4.167 15.833V3.852H28.13v23.963H4.167zm2.099 8.462c.226-.087.176-.224-.08-.224-.236 0-.375.115-.269.22.075.076.16.076.349.004zm20.222-.03c.077-.124-.09-.206-.276-.135-.125.048-.131.077-.032.14.163.103.242.101.308-.006zm-4.161-1.317c0-.052-.066-.094-.146-.094-.08 0-.12.042-.088.094.032.051.097.093.146.093.048 0 .088-.042.088-.093zm-8.759-.573c-.065-.105-.508-.11-.508-.005 0 .14.093.177.329.132.126-.024.207-.081.18-.127zm5.814.098c.086-.14-.014-.215-.193-.146-.083.032-.124.1-.092.152.076.123.207.12.285-.006zm-10.16-.836c0-.051-.158-.093-.351-.092-.261 0-.315.025-.21.092.184.12.561.12.561 0zm2.06-.5c0-.057-.087-.017-.192.088-.12.12-.167.25-.128.352.052.138.08.125.19-.087.071-.137.13-.295.13-.352zm-.39.173c.083-.084-.124-.37-.291-.404-.082-.016-.173.057-.207.164-.044.137-.141.193-.336.193-.15 0-.274.042-.274.095 0 .099 1.003.055 1.107-.048zm2.484-.44c-.093-.15-.316-.07-.316.113 0 .162.024.172.181.074.1-.062.16-.146.135-.188zm-6.24-3.513c.195-.09.478-.261.629-.383.198-.16.354-.209.561-.177.158.024.357.007.442-.037.105-.055.17-.038.205.051.038.1.206.125.688.103.35-.016.707-.058.792-.093.085-.036.182-.02.216.036.114.184.71.049 1.268-.289a1.86 1.86 0 0 1 .312-.142c.15-.05.171-.168.172-.957 0-.494.014-1.742.03-2.771.03-2.028-.005-2.52-.197-2.712-.068-.068-.39-.155-.712-.192-.324-.037-.701-.125-.84-.195-.137-.07-.601-.185-1.03-.254-.43-.068-.885-.192-1.013-.274-.128-.082-.485-.179-.794-.215-.356-.04-.636-.132-.764-.25-.238-.217-.958-.402-1.083-.277-.127.126-.41 2.316-.383 2.965.071 1.758.148 2.586.285 3.073.128.453.136.635.047 1.076-.061.307-.083.856-.05 1.303l.056.772h.404c.223 0 .564-.072.76-.161zm-.39-2.826a.105.105 0 0 1 .034-.144.105.105 0 0 1 .144.034.105.105 0 0 1-.034.144.105.105 0 0 1-.144-.034zm7.227 1.716c.516-.082.65-.175.506-.349-.13-.156.024-.252.402-.252a.485.485 0 0 0 .332-.14c.102-.123.02-.14-.658-.14-.752 0-.77-.006-.616-.176.087-.097.146-.233.131-.304-.032-.153.254-.17 3.229-.201 1.694-.018 2.054-.045 2.128-.162.098-.155.124-3.676.032-4.236l-.058-.35h-.497c-.273 0-.763.059-1.088.132-1.157.26-1.675.27-2.805.056-.586-.11-1.273-.188-1.528-.171-.443.028-.466.043-.527.344-.081.399-.034 6.043.051 6.181.045.072.143.062.33-.035.145-.075.432-.164.636-.197zm12.57-1.637c.103-.193.063-2.691-.082-5.095l-.062-1.03-.266-.03c-.167-.02-.393.055-.608.2a2.21 2.21 0 0 1-.804.288c-.254.032-.529.12-.611.194-.085.076-.534.181-1.037.242-.5.06-.953.166-1.038.242-.095.084-.46.157-.96.192-.494.035-.848.106-.91.182-.147.176-.146 4.295.001 4.472.083.099.405.13 1.345.133 1.013.002 2.459.06 4.674.189.171.01.288-.048.358-.18z" fill="#75889e"/><path d="M4.167 15.833V3.852H28.13v23.963H4.167zm2.129 8.46c.262-.07.183-.222-.116-.222-.23 0-.368.116-.263.22.073.074.111.074.379.002zm20.243-.082c0-.149-.329-.196-.413-.06-.07.112.038.2.242.2.094 0 .171-.063.171-.14zm-17.926-.797c-.033-.052-.098-.07-.146-.041-.13.08-.106.136.058.136.08 0 .12-.043.088-.095zm13.714-.466c0-.052-.063-.094-.14-.094-.078 0-.14.042-.14.094 0 .051.062.093.14.093.077 0 .14-.042.14-.093zm-8.77-.461c.041-.004.05-.05.018-.101-.07-.113-.515-.126-.515-.016 0 .13.097.186.264.154.086-.016.191-.033.233-.037zm5.868-.054c0-.151-.086-.174-.32-.084-.19.073-.097.224.138.224.1 0 .182-.063.182-.14zm-10.203-.796c0-.051-.158-.093-.351-.092-.261 0-.315.025-.21.092.184.12.561.12.561 0zm2.06-.5c0-.057-.087-.017-.192.088-.12.12-.167.25-.128.352.052.138.08.125.19-.087.071-.137.13-.295.13-.352zm-.39.173c.083-.084-.124-.37-.291-.404-.082-.016-.173.057-.207.164-.044.137-.141.193-.336.193-.15 0-.274.042-.274.095 0 .099 1.003.055 1.107-.048zm2.484-.44c-.093-.15-.316-.07-.316.113 0 .162.024.172.181.074.1-.062.16-.146.135-.188zm-6.24-3.513c.195-.09.478-.261.629-.383.198-.16.354-.209.561-.177.158.024.357.007.442-.037.105-.055.17-.038.205.051.038.1.206.125.688.103.35-.016.707-.058.792-.093.085-.036.182-.02.216.036.114.184.71.049 1.268-.289.077-.047.207-.108.29-.136.124-.043.16-.29.21-1.463.09-2.087.074-4.74-.03-4.935-.09-.17-.285-.226-2.296-.678a25.482 25.482 0 0 1-1.404-.359 9.423 9.423 0 0 0-.903-.226 1.527 1.527 0 0 1-.562-.222c-.292-.22-1.19-.441-1.309-.323-.137.138-.314 1.824-.307 2.927.004.54.063 1.53.133 2.2.07.67.131 1.617.137 2.106.005.49.019 1.153.03 1.474l.02.585h.418c.23 0 .577-.072.772-.161zm6.766-1.098c.615-.122.666-.15.608-.334-.045-.144.008-.186.3-.24a2.41 2.41 0 0 0 .543-.16c.103-.055.828-.125 1.61-.157 1.15-.048 1.457-.09 1.599-.218a.786.786 0 0 1 .458-.159c.461 0 .507-.232.514-2.62.004-1.169-.024-2.221-.061-2.339-.076-.24-.005-.24-2.177.009-.858.098-1.25.098-2.107 0-2.243-.256-2.11-.26-2.23.046-.112.286-.063 6.212.053 6.4.038.061.147.05.31-.034.14-.071.4-.158.58-.194zm.656-1.216c0-.022.042-.067.093-.099.052-.032.094-.013.094.041 0 .055-.042.1-.094.1-.051 0-.093-.019-.093-.042zm7.122.034c.17-.147.293-.179.506-.13.343.077.59.077 2.665.003 1.125-.04 1.657-.094 1.707-.173.083-.132.079-3.839-.007-5.356l-.059-1.03-.514.033c-.341.021-.58.092-.708.21-.107.099-.397.202-.655.233-.255.03-.727.158-1.049.282-.322.124-.722.228-.89.23-.166.004-.808.123-1.425.267l-1.124.261-.065.366c-.035.2-.067 1.187-.07 2.19-.004 1.558.019 1.874.159 2.154.147.295.197.324.502.298.277-.024.348.006.389.164.065.249.35.248.638-.002z" fill="#a38d65"/><path d="M4.167 15.833V3.852H28.13v23.963H4.167zm2.37 8.37c.244-.083.438-.208.438-.281 0-.073-.042-.132-.093-.132a.094.094 0 0 0-.094.094c0 .051-.187.093-.415.093-.413 0-.585.102-.474.281.076.124.124.12.639-.056zm20.002.008c0-.149-.329-.196-.413-.06-.07.112.038.2.242.2.094 0 .171-.063.171-.14zM8.66 23.416c0-.052-.063-.094-.14-.094-.077 0-.14.042-.14.094 0 .051.063.093.14.093.077 0 .14-.042.14-.093zm15.353-.14c-.064-.076-.154-.116-.2-.087-.12.074-.006.227.169.227.119 0 .125-.027.03-.14zm-13.593-.352c.068-.083.057-.172-.04-.304-.116-.16-.148-.166-.224-.046-.21.33.023.64.264.35zm12.047-.07c0-.168-.318-.226-.515-.094-.124.083-.124.104 0 .188.197.132.515.074.515-.094zm-16.219-.207c-.153-.153-.234-.18-.312-.102-.153.153-.017.309.27.309h.25zm7.771-.229c.61-.098.376-.313-.34-.313-.443 0-.782.187-.669.37.047.076.176.096.365.058.162-.032.451-.084.644-.115zm5.406-.032c0-.164-.062-.187-.51-.187-.28 0-.535.042-.566.093-.035.056.075.094.27.094.18 0 .353.042.385.093.108.175.421.105.421-.093zM7.25 22.328c.223-.111.33-.123.407-.047.141.142.255.132.255-.021 0-.286.307-.42.795-.344.285.044.56.035.702-.024.397-.165.872-.164 1.122.002.155.102.477.165.938.182.699.026.7.026.478-.147-.268-.206-.202-.355.205-.46.27-.07.302-.115.328-.47l.029-.392-.684-.007a9.86 9.86 0 0 1-1.105-.071c-.392-.06-.442-.044-.713.24-.16.169-.316.306-.345.306-.03 0-.066-.115-.083-.257-.029-.252-.042-.257-.66-.26-.44 0-.69.045-.832.152-.215.162-.17.393.062.305.075-.03.137-.007.137.05 0 .103-.122.141-.354.11-.085-.01-.102.058-.057.237.06.236.047.249-.199.202-.207-.04-1.312.158-1.429.256-.097.082.196.509.372.543.119.022.241.047.272.054.03.007.192-.056.359-.139zm1.337-1.173c.05-.153.394-.264.538-.175.067.04.092.121.057.179-.087.14-.642.136-.595-.004zm3-.136c.032-.031.112-.035.18-.008.075.03.052.053-.057.057-.098.004-.154-.018-.122-.05zm3.665 1.216c.244-.093.167-.224-.133-.224-.187 0-.28.047-.28.14 0 .148.162.18.413.084zm4.033-.879c0-.083-.105-.152-.258-.17-.21-.024-.257.008-.257.17 0 .163.048.194.257.17.153-.017.258-.086.258-.17zm-6.086-.09c.03-.05.266-.12.523-.154s.444-.085.416-.113c-.094-.094-.746-.295-.961-.297-.179 0-.21.049-.21.327 0 .313.113.429.232.236zm1.827-.243c0-.023-.066-.041-.146-.041-.08 0-.12.043-.087.095.053.086.233.045.233-.054zm2.869-.803c-.124-.072-.202-.07-.276.003-.076.076-.029.103.173.1.242-.002.254-.015.103-.103zm-10.452-2c.065-.077.238-.14.386-.14.149 0 .27-.038.27-.084 0-.114-1.11-.108-1.18.006-.03.05.022.15.117.222.222.167.266.167.407-.004zm1.545-.237c0-.087-.115-.148-.316-.167-.376-.036-.56.1-.4.295.142.17.716.067.716-.128zm2.106-.184c0-.051-.084-.093-.187-.093s-.187.042-.187.093c0 .052.084.094.187.094s.187-.042.187-.094zm-3.617-.3c.223-.157.307-.17.502-.082.179.082.267.08.373-.008.172-.143 2.014-.365 2.465-.297.409.061 1.11-.117 1.181-.3.029-.075.108-.136.177-.136a.252.252 0 0 0 .192-.108c.116-.188.163-6.304.05-6.515-.102-.191-.242-.234-2.306-.697a25.482 25.482 0 0 1-1.404-.359 9.423 9.423 0 0 0-.903-.226 1.527 1.527 0 0 1-.562-.222c-.292-.22-1.19-.441-1.309-.323-.137.138-.314 1.824-.307 2.927.004.54.063 1.53.131 2.2.069.67.114 1.897.1 2.728-.023 1.388-.01 1.519.149 1.614.253.15 1.152.03 1.471-.195zm6.714-1.164a.55.55 0 0 1 .298-.127c.235 0 .293-.186.103-.326-.158-.114-.14-.131.2-.193.206-.037.458-.111.561-.165.103-.054.828-.124 1.61-.156 1.15-.048 1.457-.09 1.599-.218a.786.786 0 0 1 .458-.159c.461 0 .507-.232.514-2.62.004-1.169-.024-2.221-.061-2.339-.076-.24-.005-.24-2.177.009-.858.098-1.25.098-2.107 0-2.244-.256-2.11-.26-2.228.046-.112.294-.083 6.276.031 6.462.08.13.987-.032 1.199-.214zm.367-1.292c0-.022.042-.067.093-.099.052-.032.094-.013.094.041 0 .055-.042.1-.094.1-.051 0-.093-.019-.093-.042zm7.122.034c.17-.147.293-.179.506-.13.343.077.59.077 2.665.003 1.125-.04 1.657-.094 1.707-.173.083-.132.079-3.839-.007-5.356l-.059-1.03-.514.033c-.341.021-.58.092-.708.21-.107.099-.397.202-.655.233-.255.03-.727.158-1.049.282-.322.124-.722.228-.89.23-.166.004-.808.123-1.425.267l-1.124.261-.065.366c-.035.2-.067 1.187-.07 2.19-.004 1.558.019 1.874.159 2.154.147.295.197.324.502.298.277-.024.348.006.389.164.065.249.35.248.638-.002z" fill="#69788b"/><path d="M4.167 15.833V3.852H28.13v23.963H4.167zm2.343 8.462c.548-.18.759-.377.505-.474-.1-.038-.184-.02-.206.046-.02.062-.214.11-.444.11-.424 0-.567.1-.477.332.064.169.063.169.622-.014zm20.01.038c.208-.208.116-.262-.441-.262-.358 0-.569-.041-.596-.117-.023-.065-.076-.085-.118-.046-.1.094.235.343.472.348.103.003.25.046.328.096.182.118.22.116.355-.02zm-17.7-.882c.05-.151-.322-.225-.436-.087-.053.063-.067.145-.03.181.095.096.426.029.467-.094zm15.244.05c.035-.057.002-.165-.073-.24-.119-.119-.152-.117-.262.017-.107.128-.105.165.008.237.178.112.25.109.327-.015zm-13.362-.508c.016-.014-.085-.14-.223-.278-.197-.197-.27-.225-.332-.127-.11.174-.102.303.03.435.092.092.405.074.525-.03zm11.715.005c.245-.295-.176-.452-.517-.193-.157.12-.163.152-.041.233.2.134.427.118.558-.04zm-16.169-.351c-.153-.153-.234-.18-.312-.102-.153.154-.017.309.27.309h.25zm7.912-.128c.242-.05.281-.273.062-.357-.234-.09-.876-.066-1.075.04-.204.11-.24.335-.064.396.118.042.69 0 1.077-.08zm5.307.063c.029-.047.027-.153-.005-.234-.074-.195-.944-.2-1.198-.008-.21.158-.124.207.459.26l.533.051c.087.009.182-.023.21-.07zM7.25 22.328c.223-.11.33-.123.407-.046.141.14.255.131.255-.022 0-.286.307-.42.795-.344.285.044.56.035.702-.024.397-.165.872-.164 1.122.002.155.102.477.165.938.182.699.026.7.026.478-.147-.268-.206-.202-.355.205-.46.27-.07.302-.115.328-.47l.029-.392-.684-.007a9.86 9.86 0 0 1-1.105-.071c-.392-.06-.442-.044-.713.24-.16.169-.316.306-.345.306-.03 0-.066-.115-.083-.257-.029-.252-.042-.257-.66-.26-.44 0-.69.045-.832.152-.215.162-.17.393.062.305.075-.03.137-.007.137.05 0 .103-.122.141-.354.11-.085-.01-.102.058-.057.237.06.236.047.249-.199.202-.207-.04-1.312.158-1.429.256-.097.082.196.509.372.543.119.022.241.047.272.054.03.007.192-.056.359-.139zm1.337-1.173c.05-.153.394-.264.538-.175.067.04.092.121.057.179-.087.14-.642.136-.595-.004zm3-.136c.032-.031.112-.035.18-.008.075.03.052.053-.057.057-.098.004-.154-.018-.122-.05zm3.665 1.216c.244-.093.167-.224-.133-.224-.187 0-.28.047-.28.14 0 .148.162.18.413.084zm4.033-.879c0-.083-.105-.152-.258-.17-.21-.024-.257.008-.257.17 0 .163.048.194.257.17.153-.017.258-.086.258-.17zm-6.086-.09c.03-.05.266-.12.523-.154s.444-.085.416-.113c-.094-.094-.746-.295-.961-.297-.179 0-.21.049-.21.327 0 .313.113.429.232.236zm1.827-.243c0-.023-.066-.041-.146-.041-.08 0-.12.043-.087.095.053.086.233.045.233-.054zm2.869-.803c-.124-.072-.202-.07-.276.003-.076.076-.029.103.173.1.242-.002.254-.014.103-.103zm-10.452-2c.065-.077.238-.14.386-.14.149 0 .27-.038.27-.084 0-.114-1.11-.108-1.18.006-.03.05.022.15.117.222.222.168.266.167.407-.004zm1.545-.237c0-.087-.115-.148-.316-.167-.376-.036-.56.1-.4.295.142.17.716.067.716-.128zm2.106-.184c0-.051-.084-.093-.187-.093s-.187.042-.187.093c0 .052.084.094.187.094s.187-.042.187-.094zm-3.617-.3c.223-.157.307-.17.502-.082.179.082.267.08.373-.008.172-.143 2.014-.365 2.465-.297.409.061 1.11-.117 1.181-.3.073-.19.311-.17.321.028.005.09.046.037.092-.117.127-.427.132-6.667.005-6.82-.113-.137-.786-.337-1.93-.575a22.577 22.577 0 0 1-1.512-.382c-.419-.125-.855-.227-.97-.227-.114 0-.403-.101-.641-.225-.857-.446-1.464-.55-1.545-.266-.025.09-.116.797-.2 1.57-.14 1.293-.141 1.495-.005 2.474.082.586.172 2.017.2 3.18.046 1.827.074 2.13.21 2.234.219.17 1.114.055 1.454-.186zm6.144-.963c.232-.037.487-.125.566-.195.08-.07.459-.176.843-.235.384-.06.782-.145.885-.19.103-.044.271-.082.374-.084.853-.017 3.008-.23 3.054-.302.033-.05.11-.392.171-.76.143-.846.1-4.776-.052-4.928-.075-.075-.522-.064-1.647.043-1.382.132-1.708.133-3.125.008-1.411-.124-1.597-.124-1.723.003-.121.122-.138.578-.12 3.203.023 3.245.056 3.744.242 3.594.061-.05.3-.12.532-.157zM24.34 15.41l1.826-.081.421-.02.054-.978c.03-.539.038-2.116.02-3.506-.028-2.054-.06-2.553-.17-2.664-.107-.107-.161-.112-.25-.024a.54.54 0 0 1-.332.113c-.12 0-.49.127-.82.281-.33.155-.7.281-.824.281-.122 0-.472.088-.776.196-.304.108-.995.275-1.536.37-1.061.188-1.658.348-1.858.5-.102.077-.12.606-.093 2.768.018 1.47.062 2.717.098 2.772.07.107 1.682.104 4.24-.008z" fill="#88754e"/><path d="M4.167 15.833V3.852H28.13v23.963H4.167zm2.34 8.463c.586-.204.675-.292.55-.54a1.314 1.314 0 0 0-.27-.34c-.122-.103-.154-.225-.118-.453.047-.298.064-.31.365-.253.248.046.316.028.316-.086 0-.202.245-.18.468.043a.744.744 0 0 0 .505.187c.265 0 .327-.04.38-.248.046-.186.088-.22.168-.14.182.181.324.121.526-.22.11-.189.267-.328.368-.328.146 0 .176.078.185.489.012.541.196.772.53.67.267-.082.29-.116.163-.243-.205-.206-.125-.422.18-.483.229-.046.324-.014.458.152.164.202.176.203.356.04a.615.615 0 0 1 .453-.139c.234.025.272-.005.299-.244.02-.177-.021-.302-.117-.356-.202-.113-.186-.229.039-.288.156-.04.187-.127.187-.525v-.477l-.678-.006c-1.022-.008-1.428-.1-1.428-.324 0-.132-.073-.194-.257-.215-.227-.026-.258.002-.258.234 0 .264-.001.264-.636.264-.448 0-.71-.048-.886-.164-.318-.208-.318-.208-.388.07-.033.129-.1.234-.15.234-.051 0-.093.087-.093.193 0 .13-.054.187-.164.173a.735.735 0 0 0-.304.036c-.077.03-.224.07-.327.086-.127.02-.188.103-.188.257 0 .175-.066.243-.297.303a.673.673 0 0 0-.445.372c-.197.394-.192.883.01.96.118.046.13.086.046.17-.174.173-.127.32.098.313.284-.01.343.295.065.336-.25.037-.417.277-.337.486.072.187.1.187.626.004zm1.663-1.858c-.055-.288.028-.305.256-.052.094.103.146.187.116.187a.796.796 0 0 0-.19.052c-.092.036-.15-.025-.182-.187zm18.35 1.895c.208-.208.116-.262-.441-.262-.358 0-.569-.041-.596-.117-.023-.065-.076-.085-.118-.046-.1.094.235.343.472.348.103.003.25.046.328.096.182.118.22.116.355-.02zM8.83 23.49c.062-.061.112-.146.112-.187 0-.108-.54-.092-.608.019-.15.243.277.388.496.168zm15.329.02c.11 0-.11-.628-.257-.733-.301-.214-.081-.316.246-.113.386.238.407.237.443-.02.037-.257.396-.335.623-.136.224.196.55.278.625.157.085-.137-.22-.466-.431-.466-.092 0-.195-.045-.229-.1-.04-.066-.115-.051-.221.045-.145.13-.182.13-.382-.01-.208-.147-.218-.146-.159.007.05.13.02.158-.147.134-.141-.02-.201-.084-.183-.195.016-.091-.047-.193-.14-.228a.738.738 0 0 1-.279-.21c-.098-.13-.117-.127-.177.027-.036.094-.023.313.03.486.11.356.078.418-.214.418-.296 0-.483-.249-.348-.464.122-.196-.007-.378-.27-.378-.09 0-.189-.042-.22-.094-.033-.051-.15-.092-.264-.09-.196.003-.193.012.053.214.328.269.34.462.023.383-.363-.092-.544.012-.422.24.073.137.071.244-.006.388-.083.156-.078.217.02.28a.55.55 0 0 0 .658-.072c.247-.224.214-.407-.074-.407-.21 0-.228-.021-.127-.142.224-.271.808.082.7.423-.066.209.052.241.334.09.16-.086.18-.065.18.183 0 .292.228.506.453.426a.826.826 0 0 1 .162-.044zm.766-.211c-.058-.178-.35-.203-.35-.03 0 .086.08.147.194.147.115 0 .18-.049.156-.117zm-10.6-.821c.154-.044.588-.108.963-.142.447-.042.671-.1.648-.17-.02-.059-.104-.107-.187-.107-.084 0-.209-.078-.278-.173-.112-.153-.173-.16-.523-.066-.218.059-.68.13-1.025.159-.345.028-.702.09-.792.139-.189.1-.22.42-.047.48.153.051.883-.02 1.24-.12zm5.151.09c.085-.137-.129-.624-.302-.69-.115-.045-.102-.087.071-.227.27-.22.192-.447-.215-.618-.296-.125-.312-.12-.483.15-.15.235-.158.312-.059.498.157.292.057.424-.32.424-.23 0-.352-.062-.467-.236-.117-.18-.192-.216-.309-.15-.098.054-.214.047-.322-.02-.22-.137-.498.115-.415.376.046.146.157.18.628.193.322.009.665.077.783.155.117.076.397.155.622.175.226.02.482.043.569.052.087.01.186-.028.22-.083zm2.402-1.137c-.05-.05-.373-.099-.718-.107-.48-.011-.654-.053-.748-.181-.103-.142-.13-.146-.175-.027-.03.078-.013.166.038.197.05.032.08.17.066.308-.026.249-.022.25.598.25.343 0 .657.033.697.074.041.04.133-.038.204-.174.085-.163.098-.28.038-.34zm4.199.29c.069-.128.166-.18.284-.148.28.073.21-.088-.092-.213-.583-.241-1.133.09-.697.422.243.183.384.166.505-.06zm-12.347-.463c.224-.004.589-.004.81 0 .222.003.475-.031.562-.077.16-.083.957-.004 1.258.125.127.054.164.025.164-.127 0-.16-.056-.197-.304-.194-.743.007-1.944-.113-2.484-.248-.672-.168-.862-.094-.862.334 0 .321.074.396.284.283.091-.048.349-.092.572-.096zm4.292.01c0-.126-.17-.214-.282-.145-.053.032-.071.098-.042.146.07.114.324.113.324 0zm.842-.843c0-.049-.105-.202-.234-.341-.128-.14-.234-.283-.234-.32 0-.036-.262-.093-.584-.127-.527-.055-.598-.042-.736.142-.103.135-.208.182-.318.14a.326.326 0 0 0-.293.044c-.075.062-.27.084-.463.053-.335-.054-.788.082-.788.237 0 .046.263.078.585.071.85-.017 2.7.074 2.763.136.086.087.302.061.302-.035zm.468-.005c0-.051-.063-.093-.14-.093-.077 0-.14.042-.14.093 0 .052.063.094.14.094.077 0 .14-.042.14-.094zM7.724 19.5c0-.273.18-.39.427-.277.241.11.554.034.463-.113-.032-.051-.268-.094-.524-.094-.329 0-.481-.041-.52-.142-.08-.209.14-.42.44-.42.144 0 .479-.05.744-.111.374-.086.524-.086.661 0 .238.148.275.141.276-.052.004-.385.124-.43.784-.3.387.077.62.17.62.247 0 .078.118.123.327.123.18 0 .327-.042.327-.094 0-.051-.06-.093-.135-.093-.074 0-.191-.116-.26-.258-.12-.25-.144-.257-.917-.259-.437 0-.836.026-.887.06-.166.11-1.077-.024-1.077-.158 0-.208.184-.251.417-.099.183.12.239.124.325.02.176-.213.818-.29 2.002-.24.483.02.576-.007.842-.247.164-.148.246-.208.182-.134-.153.176-.149.285.011.285.203 0 .244-.638.256-4.002.008-2.15-.02-3.152-.091-3.238-.114-.137-.787-.338-1.931-.576a22.577 22.577 0 0 1-1.512-.382c-.419-.125-.855-.227-.97-.227-.114 0-.403-.101-.641-.225-.525-.273-.995-.43-1.289-.43-.264 0-.265.006-.46 1.768-.139 1.247-.138 1.43.008 2.48.104.746.163 1.84.172 3.194.01 1.478.047 2.119.132 2.27.09.157.094.26.018.402-.057.105-.09.347-.074.538.028.338.04.347.403.347.333 0 .372.023.353.21-.015.135.028.211.117.211.076 0 .139-.073.139-.162 0-.104.085-.037.238.188.203.3.265.336.421.253.1-.054.183-.173.183-.263zm-.146-1.834c.208-.17.334-.19.334-.054 0 .051-.04.094-.086.094-.048 0-.164.024-.258.054-.157.05-.156.042.01-.094zm-1.398 1.88c0-.243-.184-.228-.219.019-.021.151.008.208.094.18.069-.024.125-.113.125-.198zm7.254-.53c.23-.18.23-.183.03-.185-.114-.001-.232-.044-.264-.096-.114-.184-.234-.088-.234.187 0 .328.135.355.468.094zm2.383-.474c-.08-.13-.136-.106-.136.058 0 .08.043.12.095.088.052-.033.07-.098.041-.146zm-2.617-.727c0-.183-.182-.168-.218.018-.022.114.01.16.092.133.07-.023.126-.091.126-.151zm-.047-.69c0-.151-.027-.178-.104-.102-.057.058-.076.15-.041.206.097.157.145.122.145-.104zm.68-.496c.192-.03.35-.095.35-.143 0-.153.66-.372 1.123-.372.283 0 .488-.051.563-.14.064-.078.227-.143.362-.144.817-.007 3.063-.224 3.112-.3.033-.05.11-.392.171-.76.143-.846.1-4.776-.052-4.928-.075-.075-.522-.064-1.647.043-1.382.132-1.708.133-3.125.008-1.411-.124-1.597-.124-1.723.003-.121.122-.138.578-.12 3.203.012 1.684.045 3.198.074 3.363.046.266.083.297.306.262l.605-.095zm10.506-1.218l1.826-.081.421-.02.054-.978c.03-.539.038-2.116.02-3.506-.028-2.054-.06-2.553-.17-2.664-.107-.107-.161-.112-.25-.024a.54.54 0 0 1-.332.113c-.12 0-.49.127-.82.281-.33.155-.7.281-.824.281-.122 0-.472.088-.776.196-.304.108-.995.275-1.536.37-1.061.188-1.658.348-1.858.5-.102.077-.12.606-.093 2.768.018 1.47.062 2.717.098 2.772.07.107 1.682.104 4.24-.008z" fill="#71674f"/><path d="M4.26 15.833V3.852H28.13v23.963H4.261zm2.403 8.473c.265-.082.507-.213.537-.291.06-.154-.17-.56-.383-.679-.092-.051-.114-.153-.071-.325.065-.26.182-.307.406-.166.071.045.25.048.398.005.147-.042.268-.042.268 0s.148.104.33.139c.295.055.314.076.187.204-.305.304-.075.558.403.444.137-.033.303-.102.367-.152.182-.144.14-.456-.07-.51-.252-.066-.236-.157.055-.313.133-.07.302-.246.376-.39.213-.41.411-.337.411.153 0 .612.063.71.455.71.502-.002 1-.164 1.316-.43.184-.154.368-.225.541-.206l.262.027.078-.878c.089-1.013.035-1.399-.171-1.228-.085.07-.343.093-.722.063-.939-.074-1.183-.15-1.215-.377-.044-.308-.516-.333-.63-.033-.06.157-.181.243-.398.279a2.972 2.972 0 0 0-.455.109c-.078.031-.224-.003-.324-.075-.151-.111-.16-.157-.06-.28.174-.208.04-.392-.16-.22-.085.073-.3.182-.477.241-.426.143-.591-.004-.305-.272.113-.105.206-.276.206-.38 0-.15.055-.186.257-.17.416.032.62-.005.813-.15.215-.164.165-.23-.246-.327-.278-.066-.284-.075-.063-.083.135-.005.298-.073.362-.15.13-.158.468-.191.468-.047 0 .051.082.094.182.094.1 0 .208-.043.24-.094.031-.051.152-.094.267-.094.115 0 .257-.046.314-.104.057-.057.148-.077.203-.043.127.079-.24.455-.393.4-.134-.048-.438.097-.438.209 0 .104.635-.04.989-.224.15-.078.37-.143.488-.143.117 0 .354-.06.526-.132l.313-.13.106.355c.059.195.086.412.06.481-.026.07.01.287.078.483.111.319.13.098.178-2.106.1-4.545.084-7.216-.046-7.458-.15-.283-.81-.533-1.897-.72a14.744 14.744 0 0 1-1.572-.374c-.402-.126-.844-.229-.983-.229-.14 0-.396-.087-.57-.194-.175-.106-.575-.274-.89-.373-.5-.157-.584-.162-.675-.04-.145.193-.443 2.917-.38 3.472.155 1.37.247 3.392.27 5.95.015 1.579.06 2.905.102 2.946.106.106.249-.152.25-.452.001-.139.048-.28.105-.316.059-.036.08-.18.05-.333-.042-.204-.02-.27.09-.27.1 0 .126.056.086.185-.047.146-.005.196.204.242.487.107.52.13.465.34-.037.14.031.298.223.517.152.173.277.346.277.384 0 .038-.256.145-.567.238-.476.141-.55.19-.455.304.162.195.034.272-.437.262l-.413-.009v1.371c0 1.35.066 1.668.324 1.556.053-.024.314-.11.58-.193zm-.53-.703a.094.094 0 0 1 .187 0 .094.094 0 0 1-.093.093.094.094 0 0 1-.094-.093zm5.667-6.078c-.07-.112.107-.223.232-.146.104.065.036.233-.095.233-.046 0-.107-.04-.137-.087zm14.833 6.628c0-.15-.074-.176-.505-.176-.362 0-.52-.04-.559-.14-.088-.231-.358-.173-.323.07.023.164.153.253.591.406.594.205.796.165.796-.16zm-1.993-.595c.414-.006.603-.203.365-.38a1.54 1.54 0 0 0-.281-.168c-.165-.061.069-.385.304-.42.11-.016.2.015.2.07 0 .055-.041.1-.093.1-.051 0-.094.068-.094.15 0 .108.047.131.164.081.09-.038.29-.088.445-.11.528-.077.54-.098.262-.447-.16-.201-.344-.329-.473-.329-.125 0-.21-.057-.21-.14 0-.078.079-.14.175-.14.097 0 .229.062.293.14.148.178.374.182.374.005 0-.201.176-.272.34-.135.13.108.13.131-.01.233-.098.072-.118.135-.055.174.055.034.1.312.1.617 0 .687.183.747.197.065.006-.27.026-.75.045-1.065l.034-.573-.423-.008c-.232-.005-.463-.034-.513-.065-.177-.11-.445.06-.568.357a2.116 2.116 0 0 1-.263.462c-.117.137-.16.142-.283.036a1.214 1.214 0 0 0-.426-.192c-.513-.122-.697-.45-.32-.569.29-.092.142-.165-.188-.093-.24.053-.288.108-.288.331 0 .363-.132.419-.446.187a1.715 1.715 0 0 0-.633-.252c-.205-.033-.396-.095-.425-.14-.03-.044-.341-.095-.693-.113-.58-.03-.651-.055-.768-.28l-.13-.246h.419c.432 0 .62-.128.444-.304-.071-.071-.135-.071-.221 0-.075.062-.266.074-.502.03l-.381-.07-.004.772-.004.77.278.056c.152.03.441.03.641-.003.373-.06.699.086.59.263-.03.05.022.15.117.224.169.13.168.138-.008.274-.1.078-.237.14-.304.14-.274 0-.099.184.228.239.193.032.42.078.504.1.085.023.285-.068.445-.203.258-.217.292-.226.297-.073.01.35.863.827 1.258.704.103-.032.323-.06.488-.062zm-.324-.204c-.165-.067-.146-.406.023-.406.088 0 .14.088.14.234 0 .128-.01.23-.023.226a3.897 3.897 0 0 1-.14-.054zm-1.19-.932c-.217-.216-.173-.333.113-.3.146.017.269.095.285.182.04.212-.226.29-.399.118zm-1.127-.504c-.032-.052-.013-.094.042-.094.054 0 .099.042.099.094 0 .051-.019.093-.042.093-.022 0-.067-.042-.099-.093zm-1.076.749a.094.094 0 0 0-.094-.094.094.094 0 0 0-.093.094c0 .051.042.093.093.093a.094.094 0 0 0 .094-.093zm-6.016-.1c1.506-.126 1.512-.128 1.256-.4-.11-.118-.201-.259-.201-.313 0-.063-.273-.085-.773-.062-1.007.046-1.164.065-1.248.15-.038.038-.27.07-.516.07-.47 0-.629.16-.498.501.071.185.326.192 1.98.054zm4.569-.624c-.03-.704-.04-.73-.345-.93-.402-.266-.515-.267-.658-.008-.165.3-.19.544-.07.687.056.068.075.168.042.222-.113.182-.5.101-.694-.144-.128-.163-.246-.224-.362-.187-.12.038-.29-.062-.563-.331-.234-.232-.444-.365-.527-.334-.075.029-.698-.013-1.384-.092a32.969 32.969 0 0 0-1.621-.159c-.36-.012-.376 0-.405.3-.04.42.043.628.198.5.103-.087.553-.123 1.377-.111.129.002.552-.023.94-.054.582-.048.729-.031.83.092a.45.45 0 0 0 .3.15c.205 0 .237.17.047.242-.08.03-.12.163-.106.348l.023.299.879.105c.483.057 1.16.11 1.504.117l.626.012zm1.962.536c.031-.051-.008-.093-.088-.093-.08 0-.146.042-.146.093 0 .052.04.094.088.094.048 0 .114-.042.146-.094zm-3.323-1.17c0-.197-.044-.234-.281-.234-.334 0-.36.11-.07.312.293.204.35.191.35-.078zm-.75.047a.094.094 0 0 0-.093-.093.094.094 0 0 0-.093.093c0 .052.042.094.093.094a.094.094 0 0 0 .094-.094zm5.388-.349c-.091-.237-.27.01-.19.261.06.191.076.196.157.051a.422.422 0 0 0 .033-.312zm-16.844 0c-.031-.03-.053.024-.05.123.005.11.027.131.057.057.027-.068.024-.149-.007-.18zm18.758-.212c0-.125-.062-.188-.187-.188-.18 0-.254.184-.125.312.129.13.312.056.312-.124zm1.966-.472c0-.355-.012-.371-.198-.272-.142.076-.225.077-.299.003-.188-.188-.44-.119-.44.12 0 .274.148.404.516.458.154.022.312.047.35.055.04.008.07-.156.07-.364zm-7.227.127c-.024-.118-.11-.165-.281-.154-.305.02-.446-.244-.168-.317.242-.063.243-.214 0-.214-.103 0-.187.05-.187.11s-.095.024-.21-.082c-.144-.13-.398-.21-.792-.248-.528-.052-.595-.038-.727.15-.125.18-.17.191-.333.09-.157-.098-.198-.094-.244.025-.065.17-.419.188-.577.03-.086-.086-.17-.068-.374.083-.159.117-.49.22-.843.26-.426.05-.58.106-.58.21 0 .112.073.129.35.08.194-.033.625-.08.958-.102.334-.023.652-.058.707-.08.055-.02.199.015.32.08.12.064.392.1.603.079.211-.021.574-.004.806.039.231.042.688.09 1.014.104.531.024.59.01.558-.143zm-5.597-1.63c0-.046.094-.086.21-.088.116-.002.313-.06.438-.129l.227-.126-.205-.064c-.12-.039-.323-.006-.498.082-.416.207-.708.188-.784-.051-.089-.279.153-.51.398-.378.131.07.246.064.412-.022.127-.066.37-.12.54-.12.35 0 .503-.169.43-.476-.039-.168-.006-.214.164-.226a6.17 6.17 0 0 0 .353-.037c.077-.012.194-.026.26-.031.065-.006.159-.115.208-.244.102-.27.42-.313.707-.097.18.136.18.138-.005.152a2.45 2.45 0 0 1-.364-.006c-.124-.013-.16.025-.123.123.075.194-.134.346-.385.28-.178-.046-.197-.026-.136.14.04.106.093.2.118.21.026.01.363-.018.75-.061.385-.043.833-.067.993-.053.232.02.303-.016.345-.178.046-.175.102-.197.41-.157a4 4 0 0 1 .568.115c.173.056.21.034.21-.125 0-.106.065-.23.143-.273.105-.059.152-.297.182-.922.023-.463.084-1.03.137-1.259.126-.548.13-4.493.004-4.823l-.096-.253-1.028.065c-.566.036-1.266.104-1.557.15-.37.061-.878.046-1.706-.051-1.554-.182-2.013-.178-2.175.017-.104.126-.125.739-.111 3.206.023 4.13.053 6.128.092 6.203.045.084.874-.383.874-.492zm-.332-1.214c-.086-.14-.023-.181.367-.244.265-.043.34-.024.34.087 0 .236-.579.364-.707.157zm3.889-.263c0-.058-.058-.105-.13-.105-.164 0-.387-.264-.297-.354.037-.037.118.002.18.087.063.085.214.17.336.187.203.03.209.044.067.161-.102.084-.156.092-.156.024zm-2.715-.48c0-.113.263-.237.34-.16.028.028-.037.098-.145.156-.135.072-.195.074-.195.004zm3.765-.079c-.066-.042-.095-.144-.063-.227.037-.095-.014-.195-.137-.272-.107-.067-.195-.175-.195-.24 0-.143.245-.157.33-.02.034.054.152.086.263.07.174-.024.199.013.176.253-.049.513-.12.597-.374.436zm-2.719-.264c.046-.235.265-.267.265-.04 0 .116-.06.196-.148.196-.087 0-.135-.064-.117-.156zm1.638-.28c-.128-.128-.056-.22.171-.22.146 0 .234.054.234.141 0 .14-.288.196-.405.078zm-2.173 2.863c-.03-.048-.146-.086-.259-.084-.198.003-.2.007-.027.137.183.139.382.102.286-.053zm-5.472-.077c0-.105-.243-.203-.318-.128-.113.112-.052.212.13.212.104 0 .188-.038.188-.084zm6.242-.28c.025-.096.147-.222.272-.278.124-.057.226-.147.226-.201 0-.06-.103-.045-.26.036-.18.093-.311.107-.422.045-.115-.065-.225-.043-.392.078-.31.226-.31.439 0 .38.13-.025.258-.01.286.035.086.14.242.09.29-.094zm3.493-.338c0-.078-.038-.14-.084-.14-.045 0-.107.062-.137.14-.033.085 0 .14.084.14a.14.14 0 0 0 .137-.14zm7.176-.821c-.026-.064-.046.01-.044.165.002.155.023.207.047.116a.535.535 0 0 0-.003-.281zm-11.201.02c0-.049-.063-.089-.14-.089-.145 0-.186.11-.08.216.074.075.22-.01.22-.128zm5.71-1.072c0-.093-.094-.14-.28-.14-.439 0-.33.253.116.274.09.004.164-.056.164-.134zm0-.925c.129.003.55.017.936.032.386.014.995-.015 1.354-.064.377-.052.801-.057 1.008-.01.225.05.511.041.777-.026.232-.058.649-.087.927-.064l.507.042.067-.803c.037-.441.04-2.065.006-3.609-.05-2.249-.09-2.833-.197-2.94-.095-.096-.169-.106-.255-.037-.067.053-.321.126-.565.16-.243.036-.467.105-.497.154-.093.15-.702.368-1.026.368-.167 0-.542.105-.833.234-.291.129-.686.234-.878.235-.191 0-.685.087-1.097.192l-.957.244c-.41.103-.423.188-.402 2.722.011 1.326.032 2.526.046 2.668.014.142.031.342.038.446.01.169.052.181.41.12.218-.039.502-.067.631-.064z" fill="#51514c"/><path d="M4.26 15.833V3.852H28.13v23.963H4.261zm2.471 8.524c.304-.105.61-.24.679-.297.19-.158.153-.336-.084-.401-.391-.107-.644-.395-.578-.659.063-.249.183-.295.404-.155.071.045.25.048.398.005.147-.042.268-.042.268 0s.157.106.348.142c.287.054.32.081.187.155-.211.119-.21.522.003.587.223.068.876-.09.965-.234.089-.143-.166-.552-.344-.552-.207 0-.15-.145.113-.286.133-.07.302-.246.376-.39.22-.424.411-.336.411.19 0 .7.129.808.875.738.695-.065 1.036-.204.963-.393-.087-.228.203-.376.51-.26.19.072.29.073.333.004.034-.054.058-1.387.054-2.963-.004-1.576.023-3.392.06-4.035.065-1.137.069-1.097.146 1.382.043 1.404.115 2.575.16 2.603.045.028.082-.014.082-.093 0-.08.168-.23.374-.335.206-.105.375-.233.375-.283 0-.05.094-.093.21-.095.116-.002.313-.06.438-.13l.227-.125-.205-.064c-.12-.039-.323-.006-.498.082-.416.207-.708.188-.784-.051-.089-.279.153-.51.398-.378.131.07.246.064.412-.022.127-.066.367-.12.533-.12.184 0 .35-.067.426-.17.085-.116.145-.137.19-.065.048.079.113.077.246-.006.126-.08.21-.084.279-.015.069.069.316.068.821-.004.398-.056.91-.095 1.139-.086.228.009.523-.026.655-.077a2.33 2.33 0 0 1 .52-.118l.425-.039c.08-.007.153-.087.164-.177.163-1.303.247-2.935.25-4.864.004-2.088-.014-2.378-.153-2.517-.143-.144-.304-.148-1.825-.055-1.081.067-2.031.073-2.698.019-1.317-.109-1.84-.112-1.999-.012-.07.044-.158.223-.196.397l-.07.316-.089-.32c-.048-.176-.15-.35-.224-.387-.673-.329-1.08-.452-1.681-.507-.386-.035-.886-.144-1.11-.243-.224-.098-.687-.223-1.03-.276a4.875 4.875 0 0 1-1.09-.317c-.986-.462-1.575-.608-1.692-.418-.043.068-.149.778-.236 1.577-.15 1.368-.128 2.613.057 3.435.025.112.048 2.699.051 5.75.004 3.608.04 5.608.102 5.725.059.11.157.16.252.13.086-.028.404-.137.707-.243zm-.598-.754a.094.094 0 0 1 .187 0 .094.094 0 0 1-.093.093.094.094 0 0 1-.094-.093zm-.148-2.072c-.141-.228-.134-.936.011-1.081.076-.075.137-.258.137-.405 0-.148.046-.298.103-.333.059-.036.08-.18.05-.333-.042-.204-.02-.27.09-.27.1 0 .126.056.086.185-.047.146-.005.196.204.242.487.107.52.13.465.34-.037.14.031.298.223.517.152.173.277.346.277.384 0 .038-.256.145-.567.238-.476.141-.55.19-.455.304.139.167.101.207-.26.28-.19.038-.313.015-.364-.068zm2.63-1.145c-.152-.111-.162-.157-.06-.28.173-.208.038-.392-.161-.22-.085.073-.3.182-.477.241-.426.144-.591-.004-.305-.272.113-.105.206-.276.206-.38 0-.15.055-.186.257-.17.416.032.62-.005.813-.15.215-.164.165-.23-.246-.327-.278-.066-.284-.075-.063-.083.135-.005.298-.073.362-.15.13-.158.468-.191.468-.047 0 .052.082.094.182.094.1 0 .208-.042.24-.094.031-.051.152-.094.267-.094.115 0 .257-.046.314-.104.057-.057.148-.077.203-.043.127.079-.24.455-.393.4-.134-.048-.438.097-.438.209 0 .104.635-.04.989-.224.15-.078.37-.143.488-.143.117 0 .354-.06.526-.132l.313-.13.092.341c.051.188.088.678.083 1.09l-.01.749-.61-.013c-.885-.02-1.2-.108-1.234-.348-.044-.308-.516-.333-.63-.033-.06.157-.181.243-.398.279a2.972 2.972 0 0 0-.455.11c-.078.03-.224-.004-.324-.076zm1.075-1.36c0-.105-.243-.203-.318-.128-.113.112-.052.212.13.212.104 0 .188-.038.188-.084zm16.946 5.412c.147-.273.13-16.26-.017-16.437-.135-.163-.31-.157-.454.016-.064.078-.24.14-.391.14-.151 0-.516.12-.81.266-.309.153-.77.29-1.088.323-.337.035-.655.132-.814.25a1.13 1.13 0 0 1-.614.192c-.977.002-2.387.42-2.512.745-.073.191-.062 4.875.015 6.111.072 1.164.055 1.15 1.022.81.98-.345 2.434-.579 2.851-.459.196.056.368.054.48-.006.12-.064.176-.063.176.003 0 .053.158.097.352.097.274 0 .373-.046.445-.209.087-.198.947-.606 1.053-.5.052.052.075.418.158 2.534.05 1.27.036 1.525-.086 1.68-.112.141-.17.157-.256.07-.194-.193-.45-.134-.45.103 0 .286.169.44.481.44.278 0 .418.24.32.55-.05.152-.109.164-.475.096-.528-.099-.653-.05-.806.32-.068.164-.185.37-.261.46-.117.136-.16.141-.283.035a1.214 1.214 0 0 0-.426-.192c-.513-.122-.697-.45-.32-.569.29-.092.142-.165-.188-.093-.24.053-.288.108-.288.331 0 .363-.132.419-.446.187a1.715 1.715 0 0 0-.633-.252c-.205-.033-.396-.095-.425-.14-.03-.044-.341-.095-.693-.113-.58-.03-.651-.055-.768-.28l-.13-.246h.419c.435 0 .62-.129.44-.308-.076-.076-.132-.076-.209 0-.116.117-.715.056-.901-.09-.088-.07-.117-.03-.117.158 0 .143.04.226.093.193.146-.09.11.138-.046.294-.18.18-.177.265.012.454.114.115.126.18.047.26a.478.478 0 0 0-.105.298c0 .106.032.15.07.096.09-.124 1.345-.148 1.491-.028.061.05.09.145.065.212-.026.067.028.15.12.186.281.108-.039.229-.545.205-.45-.02-.6.08-.458.308.092.15.68.284 1.25.287.373.002.486-.04.675-.255.222-.252.227-.253.23-.047.001.116.045.21.096.21.052 0 .094.086.094.19 0 .326.949.54 1.258.283.08-.067.242-.094.368-.062.147.036.267.004.349-.094.105-.126.097-.169-.05-.276a1.532 1.532 0 0 0-.277-.165c-.165-.061.069-.385.304-.42.11-.016.2.015.2.07 0 .055-.041.1-.093.1-.051 0-.094.068-.094.15 0 .108.047.131.164.081.09-.038.29-.088.445-.11.528-.077.54-.098.262-.447-.16-.201-.344-.329-.473-.329-.125 0-.21-.057-.21-.14 0-.078.079-.14.175-.14.097 0 .229.062.293.14.162.196.343.175.401-.047.027-.103.09-.187.14-.187.05 0 .114.084.141.187.027.103.01.187-.04.187-.054 0-.053.064.003.168.108.203.16 1.444.066 1.596-.037.06-.21.108-.383.108-.233 0-.331-.049-.375-.187-.09-.283-.796-.234-.796.055 0 .146.652.507.915.507.095 0 .254.061.354.137.252.19.392.176.513-.05zm-2.325-1.135c-.156-.156-.14-.355.028-.355.088 0 .14.088.14.234 0 .266-.013.276-.168.121zm-1.186-.881c-.216-.216-.172-.333.114-.3.146.017.269.095.285.182.04.212-.226.29-.399.118zM22 21.918c-.032-.052-.013-.094.042-.094.054 0 .099.042.099.094 0 .051-.019.093-.042.093-.022 0-.067-.042-.099-.093zm-5.803.712c.103 0 .89.033 1.75.073l1.565.074.061-.244c.036-.144.014-.3-.055-.383-.072-.087-.097-.284-.066-.518.048-.358.032-.39-.313-.608-.448-.282-.519-.284-.665-.019-.165.3-.19.544-.07.687.056.068.075.168.042.222-.113.182-.501.101-.694-.144-.128-.163-.246-.224-.362-.187-.12.038-.29-.062-.563-.331-.234-.232-.444-.365-.527-.334-.075.029-.698-.013-1.384-.092a33.012 33.012 0 0 0-1.62-.159c-.357-.012-.378.003-.46.333-.063.254-.054.386.035.493.106.128.134.129.226.009.096-.127.405-.16 1.368-.146.129.002.552-.023.94-.054.582-.048.729-.031.83.092a.45.45 0 0 0 .3.15c.212 0 .234.17.033.247-.093.036-.122.12-.085.24.048.15.02.177-.158.152a.467.467 0 0 1-.314-.226c-.088-.177-.163-.192-.845-.163-.937.04-1.093.06-1.242.155-.065.042-.318.064-.561.049-.423-.027-.444-.016-.473.235-.064.554-.069.553 1.599.471.836-.04 1.605-.074 1.708-.074zm5.242-.15c.031-.052-.008-.094-.088-.094-.08 0-.146.042-.146.093 0 .052.04.094.088.094.048 0 .114-.042.146-.094zm-3.323-1.17c0-.198-.044-.235-.281-.235-.334 0-.36.11-.07.312.293.204.35.191.35-.078zm-.75.046a.094.094 0 0 0-.093-.093.094.094 0 0 0-.093.093c0 .052.042.094.093.094a.094.094 0 0 0 .094-.094zm5.388-.349c-.091-.237-.27.01-.19.261.06.191.076.196.157.051a.422.422 0 0 0 .033-.312zm1.914-.212c0-.125-.062-.188-.187-.188-.18 0-.254.184-.125.312.129.13.312.056.312-.124zm-5.26-.345c-.025-.118-.111-.165-.282-.154-.305.02-.446-.244-.168-.317.242-.063.243-.214 0-.214-.103 0-.187.05-.187.11s-.095.024-.21-.082c-.144-.13-.398-.21-.792-.248-.528-.052-.595-.038-.727.15-.125.18-.17.191-.333.09-.157-.098-.198-.094-.244.025-.065.17-.419.188-.577.03-.086-.086-.17-.068-.374.083-.159.117-.49.22-.843.26-.426.05-.58.106-.58.21 0 .112.073.129.35.08.194-.033.625-.08.958-.102.334-.023.652-.058.707-.08.055-.02.199.015.32.08.12.064.392.1.603.079.211-.021.574-.004.806.039.231.042.688.09 1.014.104.531.024.59.01.558-.143zm.642-.802c-.026-.064-.048-.012-.048.117s.022.181.048.117a.361.361 0 0 0 0-.234zm-4.887-.545c-.03-.048-.146-.086-.259-.084-.198.003-.2.007-.027.137.183.139.382.102.286-.053zm.77-.356c.025-.097.147-.223.272-.28.124-.056.226-.146.226-.2 0-.06-.103-.045-.26.036-.18.093-.311.107-.422.045-.115-.065-.225-.043-.392.078-.31.226-.31.439 0 .38.13-.025.258-.01.286.035.086.14.242.09.29-.094zm4.122-.55c-.022-.142-.04-.026-.04.257 0 .284.018.4.04.258a2.068 2.068 0 0 0 0-.515zm-.629.21c0-.077-.038-.14-.084-.14-.045 0-.107.063-.137.14-.033.086 0 .141.084.141a.14.14 0 0 0 .137-.14zm.752-.795c.033-.245 0-.374-.097-.374-.051 0-.093.155-.093.346 0 .33.147.351.19.028z" fill="#5c5331"/><path d="M4.26 15.833V3.852H28.13v23.963H4.261zm2.504 8.515c.595-.203.848-.438 1.052-.975.11-.29.344-.273.301.022-.042.29.263.417.74.31.48-.108.557-.22.441-.637-.072-.263-.059-.359.072-.503.232-.256.3-.225.411.186.108.402.226.478.736.475.599-.004 1.064-.16 1.278-.427.162-.203.252-.242.447-.193.147.037.271.018.311-.046.036-.059.063-1.396.059-2.972-.004-1.576.023-3.392.06-4.035.064-1.139.068-1.102.144 1.357.043 1.39.098 2.56.123 2.602.024.041.101.027.172-.031.624-.518 1.363-.557 1.53-.081.07.204.153.271.333.271.141 0 .239.053.239.13 0 .136-.422.258-.875.254-.213-.003-.289.055-.375.284-.103.274-.125.285-.519.23-.512-.07-.665.047-.665.506 0 .385.172.598.41.507.239-.092.183.184-.059.29-.264.116-.358.762-.125.852.08.03.83.019 1.668-.025.86-.046 2.23-.045 3.148.001 1.307.066 1.641.058 1.702-.04.041-.067.052-.42.024-.783-.043-.558-.086-.689-.28-.837l-.228-.176.217-.11c.152-.077.208-.177.19-.339a20.045 20.045 0 0 1-.047-.463c-.022-.252-.114-.281-1.435-.458-.315-.042-.62-.106-.68-.142-.166-.104-.123-.349.07-.4.12-.03.162-.103.13-.225-.025-.098-.01-.178.035-.177.136.004.471.316.536.5.048.136.09.15.19.067.138-.114.086-.54-.111-.908-.076-.142-.076-.222 0-.297.168-.17.406.029.58.484.194.51.758.953.699.55a.999.999 0 0 1 .049-.38c.045-.133.029-.266-.043-.352-.1-.122-.136-.12-.29.02-.206.186-.398.066-.342-.214.024-.123.116-.174.313-.174.264 0 .28-.022.303-.421a63.2 63.2 0 0 1 .136-1.592c.062-.643.114-2.232.116-3.53.004-2.088-.014-2.378-.153-2.517-.143-.144-.304-.148-1.825-.055-1.08.067-2.031.074-2.698.019-1.317-.109-1.84-.112-1.999-.012-.07.044-.158.223-.196.397l-.07.316-.089-.32c-.048-.176-.15-.35-.224-.387-.673-.329-1.08-.452-1.681-.507-.386-.035-.886-.144-1.11-.243-.224-.098-.687-.223-1.03-.276a4.875 4.875 0 0 1-1.09-.317c-.986-.462-1.575-.608-1.692-.418-.043.069-.149.778-.236 1.577-.149 1.368-.128 2.613.057 3.435.025.112.048 2.699.051 5.75.004 3.608.04 5.608.102 5.725.059.11.157.16.252.13l.74-.252zm.282-1.034c-.177-.193-.215-.366-.081-.366.079 0 .385.406.385.511 0 .1-.144.031-.304-.145zm11.069-1.49c0-.051.042-.093.093-.093.052 0 .094.042.094.093a.094.094 0 0 1-.094.094.094.094 0 0 1-.093-.094zm-1.148-.898c-.037-.192.002-.257.2-.333.226-.087.817-.054.922.05.1.102-.096.242-.422.3a2.356 2.356 0 0 0-.501.142c-.12.062-.164.026-.2-.16zm-10.834-.038c0-.051.019-.093.041-.093.023 0 .068.042.1.093.031.052.013.094-.042.094-.054 0-.099-.042-.099-.094zm.608-.093c-.031-.052-.013-.094.042-.094.054 0 .099.042.099.094 0 .051-.019.093-.041.093-.023 0-.068-.042-.1-.093zm8.846.03a2.37 2.37 0 0 1-.468-.095.813.813 0 0 0-.327-.039c-.136.014-.11-.023.093-.134.207-.113.458-.144.957-.12.58.029.998.173.862.299-.075.07-.787.126-1.117.089zm-4.33-.388c-.283-.032-.346-.243-.1-.338.147-.056.147-.07-.001-.219-.134-.134-.188-.14-.352-.037-.162.1-.231.096-.422-.03-.126-.082-.267-.126-.313-.098-.088.054-.379-.191-.379-.32 0-.13.222-.261.562-.33.18-.037.42-.126.535-.199a.847.847 0 0 1 .354-.13c.19 0 .283.248.152.407-.116.14-.049.247.154.247.098 0 .119-.065.076-.235-.048-.194-.016-.252.185-.328.334-.127.443-.033.376.327-.04.213-.015.34.085.422.192.16.193.84.002.856-.368.03-.678.032-.913.005zm-4.426-.117c-.034-.055-.039-.122-.012-.15.068-.067.25.052.25.162 0 .12-.162.112-.238-.012zm1.943-.102c.023-.069.117-.14.21-.158.106-.02.15.013.124.094-.023.07-.117.14-.209.158-.106.02-.151-.013-.125-.094zm-.832-.414c-.03-.08-.015-.186.035-.236.125-.125.402-.003.343.15-.075.194-.315.248-.378.086zm.859-.133c-.077-.123.026-.28.182-.28.137 0 .26.229.17.318-.087.087-.288.066-.352-.038zm4.594-1.204c-.04-.065-.048-.144-.017-.175.084-.084.175.04.13.175-.032.095-.054.095-.113 0zm1.35-.2c-.085-.054-.096-.091-.03-.092.062 0 .138.04.17.092.072.116.04.116-.14 0zm1.929-.054c-.116-.302-.063-.382.225-.34.32.047.415.15.334.362-.046.119-.083.125-.196.031-.097-.08-.14-.083-.14-.01 0 .157-.158.126-.223-.043zm9.962 6.225c.147-.273.13-16.26-.017-16.437-.135-.163-.31-.157-.454.016-.064.078-.24.14-.391.14-.151 0-.516.12-.81.266-.309.153-.77.29-1.088.323-.337.035-.655.132-.814.25a1.13 1.13 0 0 1-.614.192c-.977.002-2.387.42-2.512.745-.073.191-.062 4.875.015 6.111.072 1.164.055 1.15 1.022.81.98-.345 2.434-.579 2.851-.459.192.055.368.054.473-.002.108-.058.179-.057.199 0 .017.05.163.118.325.15.258.051.31.026.421-.205.088-.184.267-.317.584-.434.252-.094.483-.144.515-.112.032.031.069.57.082 1.196.013.626.048 1.529.077 2.005.045.747.031.874-.1.925-.085.033-.25.008-.368-.055a.843.843 0 0 0-.438-.083c-.213.03-.225.067-.225.685 0 .783-.172.913-.468.355-.152-.286-.247-.359-.504-.383-.294-.028-.313-.014-.27.21.054.285-.04.375-.53.51-.416.113-.615.02-.615-.29 0-.245-.35-.728-.53-.728-.078 0-.247.082-.374.182-.335.264-.904 0-.807-.374.036-.135 0-.182-.139-.182a.383.383 0 0 1-.379-.438c.021-.124-.03-.17-.184-.17-.28 0-.392-.192-.394-.674 0-.215-.04-.416-.089-.446-.053-.033-.086.342-.084.937.004.812.028.981.136.94.15-.058.598.122.598.24 0 .044-.165.079-.366.079h-.365l-.033.468a8.14 8.14 0 0 0 0 .931l.032.464.436.028c.474.03.595.197.179.245-.305.035-.312.057-.082.286.096.097.192.225.212.286.084.252 1.619.394 1.848.17.096-.094.169-.06.37.176.304.356.544.437 1.252.42.416-.009.56.023.603.133.065.17.697.512.947.512.095 0 .255.061.354.137.252.19.392.176.514-.05zm-.66-.526c-.425-.066-.639-.918-.231-.918.16 0 .182.054.156.398-.03.412.061.501.265.256.09-.108.147-.116.246-.034.098.081.104.138.023.235-.058.07-.132.122-.165.114a6.693 6.693 0 0 0-.295-.05zm-.041-1.52a.102.102 0 0 1 .033-.14c.11-.069.384.034.384.144 0 .11-.348.108-.417-.004zm-4.825-.235c0-.098.18-.14.233-.053.032.052-.007.095-.087.095-.08 0-.146-.019-.146-.042zm3.183-.332c-.536-.211-.559-.42-.047-.426.206-.002.45-.04.542-.082.237-.11.295-.01.196.335-.106.367-.163.381-.691.173zm-1.163-.175c-.04-.066-.048-.144-.017-.175.084-.084.175.04.13.175-.032.095-.054.095-.113 0zm2.895-.47c-.364-.077-.421-.342-.091-.425.365-.091.622.019.587.25-.033.228-.113.256-.496.175zm-4.892-.079c-.306-.038-.39-.148-.202-.265.056-.034.149-.016.206.042.157.157.238.126.27-.106.017-.115.103-.223.192-.24.13-.025.159.034.148.303-.009.244-.052.33-.16.319a26.667 26.667 0 0 1-.454-.053zm.978-.18c-.033-.032-.037-.096-.01-.141.06-.097.226-.013.226.114 0 .1-.127.117-.216.028zm1.543-.36c-.025-.138-.228-.114-.277.032-.027.08.018.114.126.094.092-.018.16-.075.151-.126zm-.765-.52c0-.055-.043-.074-.094-.042-.052.032-.094.076-.094.1 0 .022.042.04.094.04.051 0 .094-.044.094-.099zm-1.08-.927c.072-.117-.25-.285-.547-.285-.129 0-.26-.042-.292-.094-.032-.051-.145-.093-.25-.093-.136 0-.175.042-.135.148a.979.979 0 0 1 .057.185c0 .02.123.012.274-.018a.628.628 0 0 1 .489.096c.247.173.327.185.404.061zm-1.585-1.32c.082-.132-.03-.556-.145-.556-.051 0-.092.147-.092.327 0 .319.114.429.237.229zm5.964-.408c.013-.047-.03-.104-.093-.125-.065-.022-.117.031-.117.117 0 .158.167.165.21.008z" fill="#433c2c"/><path d="M4.26 15.833V3.852H28.13v23.963H4.261zm2.555 8.519c.265 0 .684-.251.89-.532.169-.233.209-.246.435-.143.31.14.593.143.98.008.291-.101.3-.119.271-.582-.023-.38.002-.483.124-.508.099-.02.173.053.212.206.107.425.399.532 1.186.433.576-.073.728-.129.886-.327a.576.576 0 0 1 .481-.24c.33 0 .402-.15.404-.84.001-.382.014-.405.151-.268.117.117.127.191.047.342a1.058 1.058 0 0 0-.103.42c0 .442.149.472 2.04.42.963-.026 2.362-.02 3.108.013.747.034 1.431.026 1.521-.016.136-.065.164-.205.164-.82 0-.658-.022-.754-.196-.847l-.196-.105.2-.187c.144-.134.181-.243.133-.39a1.34 1.34 0 0 1-.05-.431c.02-.27-.117-.376-.5-.382a1.246 1.246 0 0 1-.49-.122c-.193-.107-.199-.133-.071-.315.153-.218.44-.202.72.04.207.179.36.074.352-.24-.04-1.515.197-6.768.294-6.519.04.101.08 2.332.088 4.958.009 2.626.045 4.879.08 5.007.036.129.148.248.249.264.1.017.269.133.373.258.156.185.33.245.934.321.409.052.876.07 1.039.04.233-.045.324-.015.434.142.165.235.614.38 1.18.38.297 0 .483.063.682.23.15.127.43.258.622.292.191.033.441.12.555.19.343.215.56.162.673-.164.114-.327.134-15.768.021-16.171a.641.641 0 0 0-.228-.328c-.133-.082-.198-.063-.326.097-.11.137-.302.215-.614.247-.27.028-.575.137-.749.266-.21.157-.476.236-.93.278-.463.043-.692.113-.848.26-.17.16-.33.2-.78.2-.739 0-1.502.149-1.68.327-.078.078-.199.141-.269.141-.307 0-.42.283-.427 1.06-.01 1.191-.141 1.285-.219.158-.037-.538-.117-1.038-.178-1.111-.092-.111-.362-.12-1.609-.06-1.818.09-1.552.09-3.383 0l-1.511-.074-.135.256-.134.256-.159-.242c-.087-.133-.236-.243-.331-.243-.095 0-.281-.085-.414-.19-.18-.14-.44-.204-1.019-.246-.525-.038-.932-.128-1.254-.278a4.03 4.03 0 0 0-1.077-.282c-.339-.034-.705-.134-.843-.23A2.115 2.115 0 0 0 7 8.173a2.044 2.044 0 0 1-.596-.237c-.285-.2-.522-.194-.634.015-.125.234-.333 2.245-.33 3.202 0 .438.05 1.217.111 1.732.072.61.111 2.782.113 6.241.002 5.986-.024 5.765.637 5.41.19-.101.421-.184.515-.184zm18.848-1.001c-.112-.112-.06-.31.08-.31.078 0 .14.06.14.135 0 .156-.133.262-.22.175zm-5.583-1.059c0-.051.066-.093.146-.093.08 0 .12.042.088.093-.031.052-.097.094-.146.094-.048 0-.088-.042-.088-.094zm4.376-.483c-.298-.109-.331-.224-.083-.29.22-.057.481.086.481.263 0 .155-.04.158-.398.027zm-1.328-.725c-.126-.203.058-.336.464-.336.52 0 .56.186.069.322-.43.12-.467.12-.533.014zm2.826.02c-.204-.053-.212-.177-.016-.253.25-.096.485-.063.538.075.087.228-.095.29-.522.178zm-8.963-.197c0-.171.247-.3.575-.3.502 0 .523.148.038.27-.493.124-.613.13-.613.03zm8.12.019c-.031-.03-.036-.11-.01-.177.098-.257-.985-.574-1.134-.332-.035.056-.141.05-.286-.015-.19-.087-.264-.075-.42.067-.148.133-.215.146-.302.059-.088-.088-.087-.153.002-.296.206-.33.144-.403-.293-.343-.224.03-.561.03-.749 0-.285-.046-.341-.093-.341-.285 0-.127.093-.306.208-.398.173-.141.188-.192.087-.314-.066-.08-.255-.172-.418-.205-.547-.11-.626-.15-.626-.327 0-.096.042-.201.094-.233.051-.032.093-.203.093-.38 0-.37.123-.405.468-.135.298.233.375.233.375 0 0-.103-.042-.187-.094-.187-.051 0-.093-.066-.093-.146 0-.08.04-.12.091-.09.084.053.703-.07 1.032-.205.077-.032.246-.07.374-.083l.683-.076c.343-.039.46-.018.501.087.03.076.159.138.287.138.213 0 .231.03.196.328-.02.18-.004.328.037.328.097 0 .093.107-.011.271-.046.073-.214.128-.373.124-.191-.006-.29.037-.29.124 0 .222.397.249.796.054.281-.137.405-.157.5-.078.096.08.148.066.215-.055.104-.185.344-.202.557-.04.163.126.28.95.204 1.448-.05.33-.231.391-.517.174a.582.582 0 0 0-.403-.079c-.19.037-.251.003-.296-.167-.052-.2-.063-.202-.177-.047a.288.288 0 0 1-.313.117c-.14-.037-.192-.006-.192.117 0 .21.238.414.381.326.148-.091.278.145.216.39-.027.111-.005.23.051.264a.255.255 0 0 1 .101.198c0 .138-.111.18-.212.079zm-1.474-.88c0-.052-.094-.093-.21-.092-.17 0-.184.018-.07.092.181.117.28.117.28 0zm.375-1.317c0-.146-.05-.187-.204-.164-.257.038-.329.234-.106.292.294.076.31.07.31-.128zm.655-1.106c0-.045-.06-.131-.132-.191-.147-.122-.297.016-.196.18.072.115.328.124.328.011zM21.484 20.8c0-.054.043-.099.094-.099.052 0 .094.019.094.041 0 .023-.042.068-.094.1-.051.031-.094.013-.094-.042zm-6.06-.073c-.37-.046-.404-.208-.047-.226.398-.02.996.026 1.093.085.048.03.006.086-.093.125-.19.074-.449.078-.954.016zm-2.72-2.09l.02-2.101.05 1.607c.029.884.087 1.642.13 1.684.043.043.139-.006.214-.108.074-.102.187-.19.25-.196.062-.006.228-.017.368-.025.184-.01.24-.052.2-.154-.037-.097.006-.14.14-.14.129 0 .178.044.145.13-.028.072-.006.159.05.193.139.086.125.425-.018.426-.064 0-.251.126-.416.28-.21.197-.393.28-.613.28-.173 0-.364.051-.426.113-.088.087-.108-.355-.094-1.989zm-1.564 1.688c-.036-.058.013-.162.109-.233.167-.124.167-.133-.014-.272-.103-.079-.25-.118-.328-.087-.349.142-.5.08-.584-.24-.092-.348.01-.487.3-.411a.183.183 0 0 0 .221-.105.243.243 0 0 1 .208-.148c.118 0 .138.06.09.273-.048.222-.024.284.133.333.271.086.39-.018.324-.284-.05-.2-.025-.229.194-.229.233 0 .247.023.189.29-.05.226-.02.328.138.476a.507.507 0 0 1 .173.437c-.027.232-.063.25-.559.276-.317.017-.556-.014-.594-.076zm.563-.466c.031-.052.015-.094-.036-.094-.052 0-.12.042-.152.094-.031.051-.015.093.036.093.052 0 .12-.042.152-.093zM11 19.297c0-.052-.045-.094-.1-.094-.054 0-.073.042-.04.094.03.051.076.093.098.093.023 0 .042-.042.042-.093zm10.39.842c0-.051.042-.093.093-.093.052 0 .094.042.094.093a.094.094 0 0 1-.094.094.094.094 0 0 1-.093-.094zm-.426-.57c-.089-.143.103-.308.28-.24.08.03.146.12.146.199 0 .164-.331.196-.426.042zm-3.342-.2c-.313-.107-.317-.165-.027-.376.22-.16.227-.158.361.111.16.321.062.4-.334.265zm2.687-.453c-.033-.055-.039-.122-.011-.15.067-.067.25.052.25.162 0 .12-.162.112-.239-.012zm.053-.719c0-.09.037-.22.081-.29.113-.178.228.026.15.267-.072.23-.233.246-.231.023zm.185-.957c0-.081.474-.377.604-.377.14 0 .022.165-.22.308-.312.184-.384.197-.384.069zm.958-.303c.022-.066.184-.134.36-.15.373-.036.28.11-.133.209-.197.046-.256.03-.227-.059zm.935-.182c.049-.146.252-.17.277-.032.01.051-.059.108-.151.126-.108.02-.153-.013-.126-.094zm3.513-.433c-.26-.033-.355-.252-.14-.326.138-.048.538.116.538.221 0 .111-.114.141-.398.105z" fill="#32322a"/><path d="M4.26 15.833V3.852H28.13v23.963H4.261zm2.2 8.8c.155-.103.345-.187.422-.188.387-.003.856-.212.934-.416.078-.206.119-.216.695-.17.905.073 1.295-.252.989-.824-.06-.112-.063-.181-.007-.181.05 0 .118.084.15.187.104.326.39.403 1.256.336.697-.054.829-.092.992-.29.225-.271-.077-.255 4.344-.228 2.982.018 3.326.004 3.427-.134.1-.137.126-.138.23-.013a.5.5 0 0 0 .342.142c.152 0 .253.074.311.225.078.205.156.231.886.292.44.037.915.045 1.054.018.194-.037.31.014.506.223.234.25.305.272.918.272.365 0 .664.039.664.087 0 .193.302.366.745.427.258.035.571.145.696.243s.31.179.411.179c.452 0 .44.22.467-8.352.017-5.372-.007-8.162-.072-8.404-.129-.477-.396-.57-.734-.255-.175.162-.4.248-.755.287-.3.034-.586.129-.702.234-.135.123-.4.195-.851.234-.485.042-.694.104-.803.237-.12.147-.328.191-1.153.247-.865.06-1.043.1-1.27.291-.146.123-.332.223-.414.223-.082 0-.2.081-.263.181-.111.178-.115.178-.238.003-.12-.17-.283-.18-3.415-.179-2.117 0-3.331.035-3.406.096-.12.101-.223.06-.88-.346-.24-.149-.549-.22-1.158-.266-.6-.045-.899-.113-1.076-.243-.168-.124-.476-.2-.972-.242-.55-.047-.798-.115-1.024-.282-.165-.121-.431-.22-.594-.22a.661.661 0 0 1-.46-.182.987.987 0 0 0-.446-.244c-.492-.108-.62.129-.733 1.364-.191 2.07-.209 2.635-.097 3.135.076.34.12 2.309.141 6.385.022 4.242.061 5.948.14 6.095.135.253.436.26.804.015zm13.11-3.645c-.03-.048-.012-.113.04-.146.053-.032.096.007.096.087 0 .165-.056.19-.137.06zm-2.179-.25c.031-.031.112-.034.18-.007.074.03.052.052-.057.056-.099.004-.154-.018-.123-.049zm-4.238-.443c0-.174.09-.245.238-.188.156.06.07.313-.107.313a.128.128 0 0 1-.13-.125zm-1.924-.053c.071-.115.866-.381.934-.313.03.03.054.132.054.226 0 .146-.078.172-.52.172-.287 0-.497-.038-.468-.085zm12.655-.15c.06-.157.184-.183.262-.056.029.046-.014.11-.096.14-.21.081-.226.073-.166-.083zm-13.381-.388c-.096-.096-.077-.5.023-.5.127 0 .227.378.127.478-.048.047-.115.057-.15.022zm.778-.033a.094.094 0 0 1 .187 0 .094.094 0 0 1-.093.094.094.094 0 0 1-.094-.094zm11.907.03c-.091-.036-.08-.08.047-.174.142-.106.15-.155.05-.318-.136-.223-.115-.228.573-.133.347.047.435.096.435.24 0 .137-.045.167-.184.122-.122-.038-.24.007-.349.135-.161.188-.329.226-.572.128zm-3.56-.217c0-.129.02-.181.046-.117a.361.361 0 0 1 0 .234c-.026.064-.047.012-.047-.117zm2.576.02c-.229-.253-.196-.316.146-.283.232.022.304.074.304.215 0 .247-.253.285-.45.068zm3.867-.047c0-.076.067-.193.15-.261.13-.108.145-.096.117.098-.036.243-.267.384-.267.163zm-7.371-.035c-.2-.08-.129-.233.093-.202.116.017.2.072.187.124-.028.113-.124.14-.28.078zm6.05-.072c-.109-.111.032-.508.254-.717l.225-.211v.347c0 .314-.018.338-.181.25-.156-.083-.186-.062-.211.146-.016.134-.055.217-.086.185zm-.457-.615c0-.051.063-.093.14-.093.077 0 .14.042.14.093 0 .052-.063.094-.14.094-.077 0-.14-.042-.14-.094zm1.661-.158c-.204-.053-.214-.296-.016-.372.177-.068.463.188.373.334-.066.107-.086.109-.357.038z" fill="#010101"/></g><path d="M7.473 1.898a5.561 5.561 0 0 0-5.575 5.575v17.054a5.561 5.561 0 0 0 5.575 5.575h17.054a5.561 5.561 0 0 0 5.575-5.575V7.473a5.561 5.561 0 0 0-5.575-5.575H7.473zM4.787 6.086h22.52v19.887H4.787V6.086z" fill-rule="evenodd"/></svg>