<svg xmlns="http://www.w3.org/2000/svg" height="32" width="32"><rect width="28.203" height="28.203" x="1.898" y="1.898" ry="5.575" fill="#4bae4f" fill-rule="evenodd"/><path d="M9.756 25.012c-.35-.108-.632-.496-.707-.974-.048-.307-.048-8.438 0-8.77.061-.425.286-.767.61-.928.146-.073.236-.091.438-.091h.254l.019-1.144c.019-1.15.04-1.37.184-1.943.481-1.91 1.985-3.486 3.837-4.023.575-.167.903-.21 1.609-.21s1.034.043 1.61.21c1.851.537 3.355 2.113 3.836 4.023.144.573.165.793.184 1.943l.019 1.144h.254c.202 0 .292.018.437.09.325.162.55.504.611.928.048.332.048 8.464 0 8.771-.075.48-.364.87-.722.976-.258.077-12.224.075-12.473-.002zm7.12-2.412a.768.768 0 0 0 .18-.23c.078-.153.08-.178.08-1.445v-1.29l.122-.16c.246-.322.358-.836.267-1.222-.152-.645-.625-1.087-1.26-1.178-.873-.126-1.594.348-1.79 1.178-.091.386.021.9.267 1.222l.123.16v1.28c0 1.35.008 1.429.17 1.61.132.149.236.165 1.007.156.677-.008.741-.014.833-.081zm2.414-9.46c-.012-1-.021-1.135-.09-1.384a3.421 3.421 0 0 0-2.402-2.407c-.406-.11-1.19-.11-1.596 0a3.421 3.421 0 0 0-2.402 2.407c-.069.249-.078.385-.09 1.384l-.014 1.109h6.608z" fill="#fff"/></svg>