<svg xmlns="http://www.w3.org/2000/svg" height="32" width="32" version="1"><path d="M7.475 1.898a5.563 5.563 0 0 0-5.577 5.575V16h28.204V7.473a5.561 5.561 0 0 0-5.575-5.575z" fill="#ececec" fill-rule="evenodd"/><path style="line-height:normal;font-variant-ligatures:normal;font-variant-position:normal;font-variant-caps:normal;font-variant-numeric:normal;font-variant-alternates:normal;font-feature-settings:normal;text-indent:0;text-align:start;text-decoration-line:none;text-decoration-style:solid;text-decoration-color:#000;text-transform:none;text-orientation:mixed;white-space:normal;shape-padding:0;isolation:auto;mix-blend-mode:normal;solid-color:#000;solid-opacity:1" d="M22.98 7.572l-.654-.003-.574-.004c-.852-2.38-3.124-4.09-5.795-4.09-2.609 0-4.838 1.631-5.734 3.926l-.035.08a.135.135 0 0 0-.015.05c0 .012-.01.027-.024.032-.014.006-.319.01-.677.01H8.82v.55l.578.004c.505.003.578.007.573.028l-.036.141c-.038.153-.11.574-.131.763a5.062 5.062 0 0 0-.03.692c.003.772.132 1.467.403 2.18.224.592.58 1.2.993 1.698.845 1.02 1.911 1.698 3.228 2.053.266.072.785.155 1.09.174l.16.011v.94h.566v-.94l.138-.01a4.91 4.91 0 0 0 .37-.041 6.144 6.144 0 0 0 1.173-.274 6.163 6.163 0 0 0 3.096-2.367c.036-.052.073-.103.108-.156l.064-.106c.6-.95.954-2.073.954-3.278 0-.52-.072-1.022-.194-1.505.051-.004.229-.007.5-.007h.557v-.275zm-1.572 2.063a5.44 5.44 0 0 1-5.194 5.437v-2.575h2.255l.064-.038a.314.314 0 0 0 .1-.1c.034-.06.036-.08.036-.42 0-.375-.003-.39-.077-.47-.062-.066-.122-.088-.257-.093l-.123-.004.651-.651.652-.652.17.168c.11.108.19.173.223.182.06.017.135 0 .182-.041.017-.016.212-.397.435-.846.584-1.182.66-1.331.68-1.358.129.465.203.954.203 1.46zm-.27-1.695l-.492.243-1.16.574a8.49 8.49 0 0 0-.664.35.177.177 0 0 0-.04.195c.01.028.091.12.178.206l.157.157-.857.857-.858.857h-3.004l-1.84-1.839-1.733-1.732a5.442 5.442 0 0 1 5.132-3.624 5.445 5.445 0 0 1 5.18 3.756zm-5.49 4.557v2.573a5.44 5.44 0 0 1-5.01-6.619c.087.07.524.496 1.424 1.396l1.533 1.532h-.12c-.139 0-.192.017-.256.077-.086.081-.088.098-.088.484 0 .35.001.36.038.422a.311.311 0 0 0 .1.1l.063.035h1.158z" color="#000" font-weight="400" font-family="sans-serif" overflow="visible" fill="#666"/><path style="line-height:normal;font-variant-ligatures:normal;font-variant-position:normal;font-variant-caps:normal;font-variant-numeric:normal;font-variant-alternates:normal;font-feature-settings:normal;text-indent:0;text-align:start;text-decoration-line:none;text-decoration-style:solid;text-decoration-color:#000;text-transform:none;text-orientation:mixed;white-space:normal;shape-padding:0;isolation:auto;mix-blend-mode:normal;solid-color:#000;solid-opacity:1" d="M25.605 7.564h-3.853v.56h3.292v9.753h.56V8.124zM6.382 7.558h3.853v.56H6.942v9.753h-.56V8.118z" color="#000" font-weight="400" font-family="sans-serif" overflow="visible" fill="#666"/><path d="M1.898 16v8.525a5.582 5.582 0 0 0 1.63 3.946 5.563 5.563 0 0 0 3.945 1.63h17.054a5.563 5.563 0 0 0 5.574-5.576V16H1.899z" fill="#46719d"/><circle cx="23" cy="22.792" r="6.317" fill="#4b4b4b" fill-rule="evenodd"/><path d="M20.029 21.036v1.007h6.043v-1.007zm0 3.021v1.008h6.043v-1.008z" fill="#ebebeb"/><path d="M6.284 19.672l-.713.714 2.666 2.665-2.666 2.665.713.713 2.665-2.666 2.665 2.666.714-.713-2.667-2.665 2.667-2.665-.714-.714L8.95 22.34z" fill="#ebebeb" fill-rule="evenodd"/></svg>