<svg xmlns="http://www.w3.org/2000/svg" height="32" width="32" version="1"><rect width="28.203" height="28.203" x="1.898" y="1.898" ry="5.575" fill="#ececec" fill-rule="evenodd"/><path d="M20.527 3.752c-.617 0-1.178.253-1.586.66-.407.407-.66.967-.66 1.584 0 .525.183 1.007.489 1.389.305.382.734.663 1.222.785v2.8l.004.034c.054.411.216.77.484 1.014.268.243.605.348.924.382l.028.004h8.62v-1.043h-8.548c-.166-.02-.265-.062-.322-.115-.059-.053-.117-.145-.149-.369v-2.7c.496-.115.93-.397 1.24-.78.311-.384.498-.871.498-1.4 0-.618-.253-1.178-.66-1.585a2.236 2.236 0 0 0-1.584-.66zm0 .982a1.258 1.258 0 0 1 1.262 1.262 1.259 1.259 0 0 1-1.262 1.264 1.258 1.258 0 0 1-1.263-1.264 1.257 1.257 0 0 1 1.263-1.262zM1.898 11.01h4.125c.208-.004.26.036.297.074.037.038.092.134.104.361v7.037c-.471.134-.881.415-1.174.791a2.206 2.206 0 0 0-.469 1.36c0 .617.253 1.178.66 1.586a2.234 2.234 0 0 0 3.17 0c.407-.408.66-.97.66-1.586a2.254 2.254 0 0 0-1.807-2.201V11.39c-.02-.383-.127-.756-.396-1.034-.269-.277-.663-.397-1.062-.39H1.898v1.043zm5.13 8.361a1.258 1.258 0 0 1 1.261 1.262 1.258 1.258 0 0 1-1.262 1.262 1.258 1.258 0 0 1-1.261-1.262 1.258 1.258 0 0 1 1.261-1.262zM14.283 30.102v-4.338c-.016-.545-.22-.993-.562-1.196-.342-.202-.632-.174-.76-.197l-.047-.008H1.898v.164c0 .312.128.58.176.877H12.82c.215.038.37.061.37.06-.001 0 .041-.036.052.329v4.309h1.041zM18.52 30.102v-8.766l-.002.041c.025-.318.004-.588-.094-.832a1.097 1.097 0 0 0-.488-.543c-.39-.204-.71-.172-.844-.205l-.063-.016h-4.06c-.2 0-.287-.042-.309-.06-.021-.019-.068-.057-.064-.305V13.195a2.274 2.274 0 0 0 1.218-.785c.305-.38.487-.861.487-1.385a2.24 2.24 0 0 0-.66-1.586 2.234 2.234 0 0 0-3.17 0c-.407.408-.66.97-.66 1.586 0 .531.186 1.02.498 1.405.311.384.748.664 1.246.779V19.4c-.007.437.123.846.418 1.104.293.258.66.321.998.32h3.95c.272.059.505.087.53.1.015.008-.007-.022.006.01.013.031.039.144.022.36v8.808h1.04zm-6.465-20.34a1.257 1.257 0 0 1 1.261 1.263 1.258 1.258 0 0 1-1.261 1.262 1.258 1.258 0 0 1-1.262-1.262 1.259 1.259 0 0 1 1.262-1.263zM26.818 29.586v-12.92c.004-.14.03-.17.055-.195.025-.025.097-.07.27-.09h2.771V15.34h-2.853l-.028.002c-.336.037-.658.152-.896.39-.239.24-.352.578-.36.909V29.85c.353-.083.718-.118 1.041-.264z" fill="#666" fill-rule="evenodd"/><path d="M23.883 1.898V6.7l.006.035c.034.256.074.608.322.938.248.33.675.549 1.24.629l.035.004h4.616v-.832c0-.075-.04-.136-.043-.21h-4.477c-.375-.056-.486-.146-.539-.216-.051-.068-.086-.21-.117-.43V1.98c-.139-.01-.257-.08-.399-.08h-.644zM15.895 1.898v12.924l.001.03c.026.225.03.558.262.894.231.337.679.534 1.223.549H21c.25.064.462.102.502.125.046.027.087-.01.082.389v6.33a2.163 2.163 0 0 0-1.664 2.101 2.163 2.163 0 0 0 1.664 2.102v2.76h1.043v-2.77a2.163 2.163 0 0 0 1.62-2.092 2.163 2.163 0 0 0-1.62-2.09v-6.328c.008-.602-.24-1.092-.602-1.302-.361-.211-.673-.205-.82-.247l-.068-.02H17.41c-.358-.009-.374-.067-.394-.097-.02-.029-.053-.177-.08-.402V1.898h-1.041zM11.486 1.898v3.586c.01.332-.299.39-.443.385-.025.015-8.647.05-8.936.057-.08.322-.13.511-.187 1.04h.049c.228-.005 6.767.116 9.162-.012.474-.025.784-.156.848-.194.193-.116.367-.316.457-.553.09-.237.11-.498.09-.797l.001.037V1.898z" fill="#666" fill-rule="evenodd"/><circle cx="20.524" cy="6.011" r="1.464" fill="#ececec" stroke="#666" stroke-width=".599" stroke-linecap="round"/><circle cx="12.083" cy="11.021" r="1.464" fill="#ececec" stroke="#666" stroke-width=".599" stroke-linecap="round"/><circle cx="7.03" cy="20.641" r="1.464" fill="#ececec" stroke="#666" stroke-width=".599" stroke-linecap="round"/><circle cx="22.083" cy="25.24" r="1.464" fill="#ececec" stroke="#666" stroke-width=".599" stroke-linecap="round"/><path d="M19.079 28.04l-.405-.006-.063-.032c-.193-.1-.338-.23-.4-.357-.058-.121-.06-.168-.061-1.15 0-.84.001-.918.02-.985a.401.401 0 0 1 .049-.111c.063-.083.288-.32.804-.848.77-.786 5.692-5.575 5.71-5.575.007 0 .6.585 1.317 1.3l1.303 1.299-2.728 2.597c-1.817 1.73-3.337 3.33-3.471 3.457-.302.286-.392.359-.47.382-.133.04-.482.046-1.605.03zm6.97-7.764l-1.377-1.24.403-.411c.19-.184.386-.365.436-.403.116-.089.235-.149.381-.192.312-.092.58-.088.905.015.14.044.237.096.359.191.127.1.863.84.947.954.08.107.135.217.177.35.047.146.053.184.06.365.018.42-.075.702-.33 1.001-.07.084-.646.669-.657.669-1.188-.33-.975-.727-1.303-1.3z" fill="#ececec"/><path d="M19.483 27.548l-.327-.005-.05-.026c-.157-.081-.274-.186-.324-.289-.047-.097-.05-.135-.05-.928 0-.678.001-.741.017-.796a.324.324 0 0 1 .04-.09c.05-.067.232-.258.65-.684a846 846 0 0 1 5.013-5.01c.007 0 .485.473 1.064 1.05l1.053 1.05-2.606 2.604a610.112 610.112 0 0 1-2.804 2.792c-.244.23-.317.29-.38.309-.107.031-.389.036-1.296.023zm6.406-7.171l-1.056-1.057.278-.27c.153-.148.312-.294.353-.325a.92.92 0 0 1 .307-.155c.252-.075.47-.071.731.012a.838.838 0 0 1 .29.155c.103.08.697.679.765.77.064.086.11.175.143.283a.839.839 0 0 1 .049.294c.014.34-.061.567-.267.81-.057.067-.522.54-.53.54-.004 0-.481-.476-1.063-1.057z" fill="#46719d"/></svg>