<svg xmlns="http://www.w3.org/2000/svg" height="32" width="32" version="1"><rect width="28.203" height="28.203" x="1.898" y="1.898" ry="5.575" fill="#225670" fill-rule="evenodd"/><g transform="translate(36.787 17.863)"><path d="M-30.581-5.83l.077 3.39c.077.538.527 1.513 1.21 2.282A5.188 5.188 0 0 0-25.4 1.58h9.21l3.454 4.56c1.727 2.28 3.674.403 3.454-1.14L-9.857-5.83z" fill="#5f7c8a"/><path d="M-26.517-10.929h11.5c2.868 0 5.176 2.265 5.176 5.079 0 1.289-.485 2.463-1.286 3.357a5.203 5.203 0 0 1-3.89 1.72h-9.2l-4.6 6.771c-1.741 2.292-3.813.969-3.45-1.128l.574-10.72c.151-2.81 2.309-5.078 5.176-5.078z" fill="#7f96a1"/><rect x="-6.808" y="24.069" width="1.648" height="4.944" ry="0" transform="rotate(90)" fill="#dfe5e8"/><g transform="matrix(.82407 0 0 .82407 -33.958 -15.873)" fill="#dfe5e8" stroke-width="1.213"><circle r="1" cx="21" cy="12"/><circle r="1" cx="25" cy="12"/><circle transform="rotate(90)" r="1" cx="10" cy="-23"/><circle transform="rotate(90)" r="1" cx="14" cy="-23"/></g><rect x="25.717" y="3.512" width="1.648" height="4.944" transform="scale(-1)" ry="0" fill="#dfe5e8"/></g></svg>