<svg xmlns="http://www.w3.org/2000/svg" height="32" width="32" version="1"><rect width="28.203" height="28.203" x="1.898" y="1.763" ry="5.575" fill="#6787c3" fill-rule="evenodd"/><path d="M28.47 28.472L3.53 3.528l-.08-.06c-1.064 1.01-1.552 2.474-1.552 4.006v17.052a5.565 5.565 0 0 0 5.577 5.577h17.052a5.557 5.557 0 0 0 3.944-1.631z" fill="#d51f33" fill-rule="evenodd"/><path d="M28.473 28.472a5.556 5.556 0 0 0 1.629-3.946V7.474a5.563 5.563 0 0 0-5.575-5.577H7.475a5.561 5.561 0 0 0-3.946 1.631l24.942 24.944h.002z" fill="#6787c3" fill-rule="evenodd"/><path d="M22.668 8.353c2.563 2.565 4.66 4.678 4.66 4.697 0 .042-9.307 9.353-9.349 9.353-.016 0-.03-1.389-.03-3.086V16.23h-.49c-4.141.002-6.986 1.242-8.192 3.574-.747 1.442-.886 3.361-.391 5.392.219.901.692 2.177 1.102 2.977.194.377.241.48.218.48-.046 0-.896-1.044-1.218-1.497-.199-.28-.768-1.141-.768-1.162 0-.008-.093-.174-.206-.37-1.04-1.795-1.691-4.02-1.78-6.088-.099-2.279.599-4.499 1.936-6.165.355-.443.521-.615.999-1.033 1.938-1.696 4.757-2.597 8.139-2.6h.651V6.711c0-1.664.014-3.025.03-3.023.017 0 2.127 2.1 4.69 4.664z" fill="#fff"/><text style="line-height:1.25" x="12.895" y="14.85" font-weight="400" font-size="4.496" font-family="sans-serif" letter-spacing="0" word-spacing="0" fill="#6787c3" stroke-width=".112"><tspan x="12.895" y="14.85" style="-inkscape-font-specification:'sans-serif Bold'" font-weight="700">PNG</tspan></text><text style="line-height:1.25" x="10.026" y="28.578" font-weight="400" font-size="6.06" font-family="sans-serif" letter-spacing="0" word-spacing="0" fill="#fff" stroke-width=".152"><tspan x="10.026" y="28.578" style="-inkscape-font-specification:'sans-serif Bold'" font-weight="700">PDF</tspan></text></svg>