<svg xmlns="http://www.w3.org/2000/svg" height="32" width="32" version="1"><g transform="translate(41.684 3.895)"><path d="M-19.57 5.918h5.24c.806 0 1.534.325 2.06.851.426.426.59 1.044.687 1.668v-4.86a5.561 5.561 0 0 0-5.574-5.573h-4.932c.625.096 1.24.263 1.667.69.526.525.851 1.251.851 2.058zM-39.786 15.701v4.93a5.565 5.565 0 0 0 5.576 5.576h5.112c-.708-.06-1.376-.29-1.848-.762a2.903 2.903 0 0 1-.851-2.06v-5.166h-5.24a2.899 2.899 0 0 1-2.06-.852c-.425-.426-.592-1.041-.689-1.666z" fill="#ececec" fill-rule="evenodd"/><path d="M-39.786 15.701c.097.625.264 1.24.69 1.666a2.899 2.899 0 0 0 2.058.852h5.24v-9.39a2.903 2.903 0 0 1 2.913-2.911h9.314V.752c0-.807-.325-1.533-.851-2.059-.426-.426-1.042-.593-1.667-.69h-12.12a5.563 5.563 0 0 0-5.577 5.575z" fill="#2e72be" fill-rule="evenodd"/><rect x="-22.294" y="15.496" width="20.377" height="20.377" transform="matrix(0 -1 -1 0 0 0)" rx="2.911" ry="2.911" fill="#459df7"/><path d="M-11.583 8.437c-.096-.624-.261-1.242-.687-1.668a2.903 2.903 0 0 0-2.06-.851h-14.555a2.903 2.903 0 0 0-2.912 2.912v14.555c0 .806.325 1.534.851 2.06.472.472 1.14.703 1.848.762h11.941a5.563 5.563 0 0 0 5.574-5.576z" fill="#90c2fa" fill-rule="evenodd"/><path d="M-22.498 12.053a6.83 4.427 38.859 0 0-3.156 1.737 6.83 4.427 38.859 0 0 3.645 7.774 6.83 4.427 38.859 0 0 7.663-.247 6.83 4.427 38.859 0 0-3.645-7.774 6.83 4.427 38.859 0 0-4.507-1.49z" fill="#f34e51"/><path d="M-21.258 14.055a4.301 3.123 32.313 0 1 1.86.328 4.301 3.123 32.313 0 1 3.353 4.652 4.301 3.123 32.313 0 1-4.557 1.688 4.301 3.123 32.313 0 1-3.353-4.652 4.301 3.123 32.313 0 1 2.697-2.016z" fill="#fff"/><path d="M-28 11.053l6 5" fill="none" stroke="#f34e51" stroke-width="2" stroke-linecap="round" stroke-linejoin="round"/></g></svg>