<svg xmlns="http://www.w3.org/2000/svg" height="32" width="32" version="1"><path d="M7.473 1.898a5.561 5.561 0 0 0-5.575 5.575v17.054a5.561 5.561 0 0 0 5.575 5.575h.187v-2.245a4.523 4.523 0 0 1 1.326-3.21c.41-.41.898-.744 1.442-.973a4.552 4.552 0 0 1 1.771-.356h7.602a4.529 4.529 0 0 1 3.213 1.328 4.523 4.523 0 0 1 1.326 3.211v2.245h.187a5.561 5.561 0 0 0 5.575-5.575V7.473a5.561 5.561 0 0 0-5.575-5.575z" fill="#c4191f" fill-rule="evenodd"/><g fill="#dc4749" stroke-width="1.583"><path d="M14.495 8.665c11.474 2.898 15.547 9.268 1.968 15.286-1.12.496 2.822.352 1.635 1.259 16.522-7.128 8.512-13.99-3.603-16.545z"/><path d="M10.828 8.513c10.584 2.813 16.374 5.646 8.348 13.242 12.55-6.384 1.166-12.253-8.348-13.242z"/><path d="M3.772 8.677c11.74 2.489 23.373 5.885 9.87 15.017 20.017-9.592.852-14.547-9.87-15.017z"/></g><path d="M24.34 30.102v-2.245a4.523 4.523 0 0 0-1.326-3.21 4.529 4.529 0 0 0-1.442-.973 4.552 4.552 0 0 0-1.771-.356h-7.602a4.529 4.529 0 0 0-3.213 1.328 4.523 4.523 0 0 0-1.326 3.211v2.245z" fill="#ccc" fill-rule="evenodd"/><path d="M16.308 19.323l1.883-1.882c-.56 1.7.054 3.75 2.045 3.597 1.633-.494 2.826-1.338 4.195-2.39.22-.25.33-.602.188-.602-1.566 1.302-4.533 2.956-5.126 1.561-1.353-5.099 7.637-9.461 4.853-12.601-4.564 2.755-4.694 8.801-8.47 11.996 1.661-4.068 2.475-8.561 4.35-11.886-.63-.297-.905-.068-1.536.181-1.26 2.386-1.985 5.097-3.271 7.019-1.948 2.897-2.042 3.03-2.552 3.638-1.2 1.428-2.658 2.35-3.618 2.288-.617-.04-1.033-.457-1.131-1.131-.037-.252-.034-.354.017-.654.721-2.25 1.74-3.234 2.94-4.947-.461-.034-.913.145-1.349.258-1.429 1.239-2.634 3.442-2.665 5.33 0 .665.116 1.05.429 1.432.174.213.628.51.866.567.237.057.953.025 1.258-.056 1.142-.303 2.678-1.732 4.72-4.39.921-1.2 1.474-1.903 1.542-1.965.073-.067.074-.066.074.088-.54 2.226-1.355 4.114-1.698 6.391.035.02.088.038.118.039.03 0 .902-.846 1.938-1.881zm4.528-5.657c.588-2.102 1.473-4.054 2.773-5.62-.206 2.272-1.463 3.867-2.74 5.682-.02.022-.033-.003-.033-.062z" fill="#fff"/><text style="line-height:1.25" x="10.925" y="28.841" font-weight="400" font-size="5.31" font-family="sans-serif" letter-spacing="0" word-spacing="0" fill="#c4191f"><tspan x="10.925" y="28.841" style="-inkscape-font-specification:Geometria" font-family="Geometria">PDF</tspan></text></svg>