<svg xmlns="http://www.w3.org/2000/svg" height="32" width="32" version="1"><g transform="translate(48.105 -3.932)"><path d="M-25.992 13.744h5.24c.806 0 1.534.326 2.06.852.426.426.592 1.043.688 1.668v-4.86a5.561 5.561 0 0 0-5.574-5.574h-4.932c.625.097 1.24.264 1.666.69.526.526.852 1.252.852 2.058zM-46.207 23.527v4.93a5.565 5.565 0 0 0 5.576 5.576h5.111c-.707-.059-1.375-.29-1.847-.762a2.903 2.903 0 0 1-.852-2.06v-5.166h-5.24a2.899 2.899 0 0 1-2.059-.852c-.425-.425-.592-1.04-.689-1.666z" fill="#ececec" fill-rule="evenodd"/><path d="M-46.207 23.527c.097.625.264 1.24.69 1.666a2.899 2.899 0 0 0 2.058.852h5.24v-9.389a2.903 2.903 0 0 1 2.912-2.912h9.315V8.578c0-.806-.326-1.532-.852-2.058-.426-.426-1.041-.593-1.666-.69h-12.12a5.563 5.563 0 0 0-5.577 5.574z" fill="#db7da0" fill-rule="evenodd"/><rect x="-30.12" y="21.917" width="20.377" height="20.377" transform="matrix(0 -1 -1 0 0 0)" rx="2.911" ry="2.911" fill="#a6eb7d"/><path d="M-18.004 16.264c-.096-.625-.262-1.242-.687-1.668a2.903 2.903 0 0 0-2.061-.852h-14.555a2.903 2.903 0 0 0-2.912 2.912v14.555c0 .806.326 1.534.852 2.06.472.472 1.14.703 1.847.762h11.942a5.563 5.563 0 0 0 5.574-5.576z" fill="#5fa6fa" fill-rule="evenodd"/><path d="M-29.566 19.91a.51.51 0 0 0-.502.517v8.151a.51.51 0 0 0 .394.501.51.51 0 0 0 .329-.031c.204.013 1.024.098 2.065-.374 1.164-.529 2.344-1.796 2.32-4.17-.023-2.37-1.197-3.63-2.35-4.158-1.01-.464-1.769-.382-1.997-.368a.51.51 0 0 0-.26-.068zm.517 1.116c.294 0 .662-.052 1.314.247.874.401 1.736 1.18 1.757 3.242.02 2.058-.836 2.828-1.722 3.23-.663.3-1.05.249-1.349.248zM-23.445 19.918a.51.51 0 0 0-.283.091.51.51 0 0 0-.004.002.51.51 0 0 0-.035.028.51.51 0 0 0-.034.03.51.51 0 0 0-.006.006.51.51 0 0 0-.006.006.51.51 0 0 0-.058.078.51.51 0 0 0-.076.358v3.898a.51.51 0 0 0 0 .177v3.992a.51.51 0 1 0 1.02 0v-3.566h3.565a.51.51 0 1 0 0-1.019h-3.566v-3.056h3.566a.51.51 0 1 0 0-1.02h-4a.51.51 0 0 0-.083-.005zM-35.671 19.918a.51.51 0 0 0-.366.163.51.51 0 0 0-.012.012.51.51 0 0 0-.124.428v3.898a.51.51 0 0 0 0 .177v3.988a.51.51 0 1 0 1.02 0v-3.59c.36.027.795.097 1.623-.062.559-.107 1.145-.298 1.626-.686.48-.388.826-1.01.826-1.775a2.25 2.25 0 0 0-.826-1.773c-.48-.388-1.067-.58-1.626-.687-1.02-.196-1.838-.093-2.002-.075a.51.51 0 0 0-.14-.018zm.517 1.04c.307-.02.732-.08 1.43.054.46.089.895.249 1.179.478.284.229.448.491.448.98 0 .49-.164.755-.448.984-.284.23-.718.39-1.178.478-.7.134-1.124.075-1.43.053z" style="line-height:normal;font-variant-ligatures:normal;font-variant-position:normal;font-variant-caps:normal;font-variant-numeric:normal;font-variant-alternates:normal;font-feature-settings:normal;text-indent:0;text-align:start;text-decoration-line:none;text-decoration-style:solid;text-decoration-color:#000;text-transform:none;text-orientation:mixed;white-space:normal;shape-padding:0;isolation:auto;mix-blend-mode:normal;solid-color:#000;solid-opacity:1" color="#000" font-weight="400" font-family="sans-serif" overflow="visible" fill="#fff"/></g></svg>