<svg xmlns="http://www.w3.org/2000/svg" height="32" width="32" version="1"><path d="M1.898 17.615c.13-.096.29-.22.315-.22.064 0 .578-.315.805-.493.047-.036.489-.263.982-.502l1.713-.83c.449-.218.841-.396.873-.396.032 0 .3-.148.598-.33.297-.182.622-.357.722-.389.31-.098 1.9-1.17 2.608-1.756.776-.644 1.85-1.803 2.07-2.232.081-.158.178-.307.213-.33.067-.045.225-.349.67-1.282.55-1.206.897-2.714.916-4.2a8.643 8.643 0 0 0-.233-2.173c-.052-.213-.182-.38-.254-.584H7.473a5.561 5.561 0 0 0-5.575 5.575v10.142zM27.412 29.186c-.22-.069-.6-.178-.933-.264-1.069-.278-3.447-1.354-4.245-1.922-.23-.165-.453-.3-.494-.3-.04 0-.278-.153-.527-.34a24.351 24.351 0 0 0-3.586-2.25c-1.289-.655-2.657-1.188-4.06-1.52-.9-.198-2.682-.215-3.547-.033-1.188.249-2.305.63-3.264 1.101-.96.472-1.761 1.035-2.32 1.645-.545.594-1.086 1.652-1.165 2.279-.032.258.197.552.28.906a5.551 5.551 0 0 0 3.922 1.614h17.054c1.082 0 2.032-.387 2.885-.916z" fill="#4eaf44" fill-rule="evenodd"/><path d="M30.102 24.148V22.15c-.064-.004-.126.029-.19.02a7.275 7.275 0 0 1-2.314-.75 9.66 9.66 0 0 1-2.182-1.55c-.94-.879-1.264-1.234-1.71-1.878-.843-1.213-1.356-2.475-1.79-4.398-.185-.82-.147-4.886.059-6.403.231-1.707.199-3.556-.07-5.293H19.76c.007.043.037.111.043.15.149 1.056.174 3.323.05 4.362-.21 1.775-.29 4.223-.185 5.733.114 1.643.222 2.262.621 3.558.285.926.989 2.466 1.3 2.848.106.128.28.376.386.553.106.176.22.32.254.32.032 0 .124.107.203.236.192.315.77.93 1.351 1.44.262.23.604.53.762.672.158.14.41.333.56.427.15.094.403.272.561.395.477.37 1.232.746 2.027 1.039.795.293 1.63.502 2.262.54.056.004.093-.025.147-.023zM1.97 24.879c.093 1.405.643 2.681 1.58 3.61-.082-.355-.31-.65-.279-.907.079-.627.62-1.685 1.165-2.28.559-.61 1.36-1.172 2.32-1.644.959-.471 2.076-.852 3.264-1.101.865-.182 2.646-.165 3.546.033 1.404.332 2.772.865 4.061 1.52a24.351 24.351 0 0 1 3.586 2.25c.249.187.487.34.527.34.04 0 .263.135.494.3.798.568 3.176 1.644 4.245 1.922.333.086.713.195.933.264a5.78 5.78 0 0 0 1.973-2.075c-1.063-.206-2.683-.587-3.26-.83a27.875 27.875 0 0 0-.838-.338c-.18-.066-.629-.293-1-.504-.37-.21-.696-.382-.72-.382-.026 0-.233-.135-.462-.3-.228-.164-.443-.298-.474-.298-.032 0-.277-.162-.545-.361-.268-.2-.551-.403-.629-.45a69.541 69.541 0 0 1-1.707-1.076c-.448-.308-1.484-.848-2.59-1.35-.769-.348-1.254-.508-2.775-.921-.75-.204-.946-.221-2.604-.223-1.86-.002-2.267.053-3.457.453-.258.087-.667.218-.908.291-.527.161-2.112.899-2.152 1.002a.124.124 0 0 1-.106.074c-.092 0-1.015.583-1.176.743-.062.062-.252.219-.421.347-.339.257-.924.868-1.127 1.176-.072.108-.247.363-.39.566-.018.028-.05.112-.073.149zM16.338 1.898h-2.442c.072.204.202.371.254.584.171.692.242 1.43.233 2.172-.02 1.487-.366 2.995-.916 4.201-.445.933-.603 1.237-.67 1.282-.035.023-.132.172-.213.33-.22.43-1.294 1.588-2.07 2.232-.708.587-2.299 1.658-2.608 1.756-.1.032-.425.207-.722.389-.297.182-.566.33-.598.33-.032 0-.424.178-.873.396L4 16.4c-.493.24-.935.466-.982.502-.227.178-.74.493-.805.493-.026 0-.185.124-.315.22v2.576c.056-.046.108-.106.155-.136.138-.089.45-.316.693-.504.55-.426.93-.665 1.693-1.07.99-.527 1.078-.571 1.963-.975.938-.428 1.137-.53 2.391-1.22 1.478-.815 2.14-1.236 2.68-1.704.205-.179.416-.339.468-.357.222-.078 1.572-1.444 2.133-2.157.633-.803 1.438-2.319 1.92-3.617.113-.303.306-1.192.53-2.433.18-1.003.214-2.473.076-3.329-.049-.3-.172-.452-.262-.79z" fill="#fff" fill-rule="evenodd"/><path d="M16.338 1.898c.09.34.213.492.262.791.138.856.104 2.326-.077 3.329-.223 1.24-.416 2.13-.529 2.433-.482 1.298-1.287 2.814-1.92 3.617-.56.713-1.911 2.08-2.133 2.157-.052.018-.263.178-.468.357-.54.468-1.202.889-2.68 1.703-1.254.691-1.453.793-2.39 1.22-.886.405-.973.449-1.964.975-.763.406-1.143.645-1.693 1.07-.243.19-.555.416-.693.505-.047.03-.099.09-.155.136v4.336c0 .125.065.229.073.352.022-.037.055-.121.074-.149.142-.203.317-.458.389-.566.203-.308.788-.92 1.127-1.176.169-.128.359-.285.421-.347.161-.16 1.084-.743 1.176-.743.042 0 .09-.033.106-.074.04-.103 1.625-.84 2.152-1.002.24-.073.65-.204.908-.29 1.19-.401 1.597-.456 3.457-.454 1.658.002 1.854.02 2.604.223 1.521.413 2.006.573 2.775.922 1.106.501 2.142 1.041 2.59 1.35.199.136 1.302.832 1.707 1.075.078.047.36.25.629.45.268.2.513.361.545.361.031 0 .246.134.474.299.23.164.436.299.461.299.025 0 .35.172.721.382.371.21.82.438 1 .504.18.067.556.22.838.338.577.243 2.197.624 3.26.83.434-.765.717-1.628.717-2.584v-.379c-.054-.002-.091.027-.147.024-.633-.04-1.467-.248-2.262-.541-.795-.293-1.55-.67-2.027-1.04-.158-.122-.41-.3-.56-.394a5.097 5.097 0 0 1-.561-.427c-.158-.141-.5-.443-.762-.672-.58-.51-1.159-1.125-1.351-1.44-.08-.129-.17-.236-.203-.236s-.148-.144-.254-.32a5.777 5.777 0 0 0-.385-.553c-.312-.382-1.016-1.922-1.3-2.848-.4-1.296-.508-1.915-.622-3.558-.104-1.51-.026-3.958.186-5.733.123-1.04.098-3.306-.051-4.361-.006-.04-.036-.108-.043-.15h-3.422z" fill="#f08d25" fill-rule="evenodd"/><path d="M21.904 1.898c.27 1.737.302 3.586.07 5.293-.205 1.517-.243 5.583-.058 6.403.434 1.923.947 3.185 1.79 4.398.446.644.77 1 1.71 1.877a9.66 9.66 0 0 0 2.182 1.55c.758.389 1.539.644 2.314.75.064.01.126-.023.19-.019V7.473a5.561 5.561 0 0 0-5.575-5.575h-2.623z" fill="#4eaf44" fill-rule="evenodd"/></svg>