<svg xmlns="http://www.w3.org/2000/svg" height="32" width="32" version="1"><path d="M30.018 7.057a23.595 23.616 0 0 1-.05 1.412 23.595 23.616 0 0 1-.318 2.34 23.595 23.616 0 0 1-.548 2.295 23.595 23.616 0 0 1-.774 2.23 23.595 23.616 0 0 1-.994 2.14 23.595 23.616 0 0 1-1.203 2.032 23.595 23.616 0 0 1-1.399 1.9 23.595 23.616 0 0 1-1.582 1.752 23.595 23.616 0 0 1-1.064 1 23.595 23.616 0 0 1-1.846 1.469 23.595 23.616 0 0 1-1.984 1.28 23.595 23.616 0 0 1-2.1 1.073 23.595 23.616 0 0 1-2.197.858 23.595 23.616 0 0 1-2.272.635 23.595 23.616 0 0 1-2.324.404 23.595 23.616 0 0 1-2.213.16c.114.007.21.065.325.065h17.052a5.561 5.561 0 0 0 5.575-5.575V7.475c0-.149-.073-.273-.084-.418z" fill="#7de63e" fill-rule="evenodd"/><path d="M24.85 1.963a23.595 23.616 0 0 0-2.213.16 23.595 23.616 0 0 0-2.323.404 23.595 23.616 0 0 0-2.273.635 23.595 23.616 0 0 0-2.195.86 23.595 23.616 0 0 0-2.102 1.074 23.595 23.616 0 0 0-1.982 1.277 23.595 23.616 0 0 0-1.846 1.47 23.595 23.616 0 0 0-1.066 1 23.595 23.616 0 0 0-1.58 1.753 23.595 23.616 0 0 0-1.4 1.9 23.595 23.616 0 0 0-1.202 2.031 23.595 23.616 0 0 0-.994 2.141 23.595 23.616 0 0 0-.776 2.228 23.595 23.616 0 0 0-.548 2.297 23.595 23.616 0 0 0-.317 2.34 23.595 23.616 0 0 0-.049 1.418c.218 2.765 2.387 4.92 5.166 5.086a23.595 23.616 0 0 0 2.213-.16 23.595 23.616 0 0 0 2.324-.404 23.595 23.616 0 0 0 2.272-.635 23.595 23.616 0 0 0 2.197-.858 23.595 23.616 0 0 0 2.1-1.074 23.595 23.616 0 0 0 1.984-1.279 23.595 23.616 0 0 0 1.846-1.469 23.595 23.616 0 0 0 1.064-1 23.595 23.616 0 0 0 1.582-1.752 23.595 23.616 0 0 0 1.399-1.9 23.595 23.616 0 0 0 1.203-2.031 23.595 23.616 0 0 0 .994-2.141 23.595 23.616 0 0 0 .774-2.23 23.595 23.616 0 0 0 .548-2.295 23.595 23.616 0 0 0 .319-2.34 23.595 23.616 0 0 0 .049-1.412c-.215-2.77-2.386-4.928-5.168-5.094z" fill="#5abb3e" fill-rule="evenodd"/><path d="M7.475 1.898a5.565 5.565 0 0 0-5.577 5.577v17.052c0 .15.075.277.086.424a23.595 23.616 0 0 1 .05-1.418 23.595 23.616 0 0 1 .316-2.34 23.595 23.616 0 0 1 .548-2.297 23.595 23.616 0 0 1 .776-2.228 23.595 23.616 0 0 1 .994-2.14 23.595 23.616 0 0 1 1.201-2.032 23.595 23.616 0 0 1 1.4-1.9 23.595 23.616 0 0 1 1.58-1.752 23.595 23.616 0 0 1 1.067-1 23.595 23.616 0 0 1 1.846-1.471 23.595 23.616 0 0 1 1.982-1.277 23.595 23.616 0 0 1 2.102-1.075 23.595 23.616 0 0 1 2.195-.859 23.595 23.616 0 0 1 2.273-.635 23.595 23.616 0 0 1 2.323-.404 23.595 23.616 0 0 1 2.213-.16c-.113-.007-.208-.065-.323-.065z" fill="#7de63e" fill-rule="evenodd"/><circle cy="16.001" cx="16" r="6.023" fill="#3f832c"/><circle cy="16.001" cx="16" r="4.015" fill="#ffc20c"/><circle r="3.011" cx="24.03" cy="7.971" fill="#3f832c"/><circle r="2.008" cx="24.03" cy="7.971" fill="#ffc20c"/><circle r="3.011" cx="7.97" cy="24.031" fill="#3f832c"/><circle r="2.008" cx="7.97" cy="24.031" fill="#ffc20c"/></svg>