<svg xmlns="http://www.w3.org/2000/svg" height="32" width="32"><g fill-rule="evenodd"><path d="M13.686 5.861l-1.53 9.358h4.16c.85 0 1.586-.107 2.23-.31a4.947 4.947 0 0 0 1.675-.895c.475-.39.865-.862 1.17-1.434.304-.572.523-1.246.654-2.049.13-.796.131-1.466.014-2.035a3.007 3.007 0 0 0-.704-1.428c-.348-.391-.802-.694-1.38-.898-.578-.204-1.28-.309-2.13-.309z" fill="#ff8e20"/><path d="M9.723 30.102h14.804a5.561 5.561 0 0 0 5.575-5.575V7.475a5.563 5.563 0 0 0-5.575-5.577h-.966c1.004.392 1.938.85 2.609 1.547v.002c.802.82 1.334 1.84 1.603 3.03.27 1.19.278 2.55.032 4.054-.248 1.516-.702 2.886-1.362 4.082a9.669 9.669 0 0 1-2.593 3.041l-.002.002c-1.065.821-2.299 1.42-3.69 1.817-1.39.396-2.94.588-4.633.588h-4.16zM8.787 1.898H7.475a5.565 5.565 0 0 0-5.577 5.577v17.052c0 1.905 1.007 3.497 2.456 4.502z" fill="#ff8e20"/><path d="M8.787 1.898L4.354 29.03c.9.625 1.936 1.073 3.12 1.073h2.249l1.642-10.041h4.16c1.694 0 3.242-.193 4.633-.588 1.391-.396 2.625-.996 3.69-1.817l.002-.002a9.669 9.669 0 0 0 2.593-3.04c.66-1.197 1.114-2.567 1.362-4.083.246-1.504.238-2.865-.032-4.054-.27-1.19-.801-2.21-1.603-3.03v-.002c-.67-.697-1.605-1.155-2.61-1.547zm4.899 3.963h4.16c.849 0 1.55.105 2.129.309.578.204 1.032.507 1.38.898.35.392.586.86.704 1.428.117.57.116 1.24-.014 2.035-.131.803-.35 1.477-.654 2.05a4.655 4.655 0 0 1-1.17 1.433 4.947 4.947 0 0 1-1.674.894c-.645.204-1.382.31-2.23.31h-4.16z" fill="#fff"/></g></svg>