<svg xmlns="http://www.w3.org/2000/svg" height="32" width="32"><rect width="28.203" height="28.203" x="1.898" y="1.898" ry="5.575" fill="#ccc" fill-rule="evenodd"/><path d="M25.525 29.9V16.775l-6-3.3-6 3.3v13.327h11c.356 0 .667-.132 1-.202z" fill="#fea332" fill-rule="evenodd"/><path d="M19.525 12.475l-7 3.6v14.027h1V16.775l6-3.3 6 3.3V29.9c.334-.07.689-.079 1-.199V16.074z" fill="#4e4e4e" fill-rule="evenodd"/><path d="M7.473 1.898a5.563 5.563 0 0 0-5.575 5.577v17.052a5.561 5.561 0 0 0 5.575 5.575h5.052V16.074l7-3.6 7 3.6v13.627c2.089-.804 3.577-2.795 3.577-5.174V7.475a5.565 5.565 0 0 0-5.577-5.577z" fill="#ccc" fill-rule="evenodd"/><path d="M21.525 16.474a2 1 0 0 1-1 .866 2 1 0 0 1-2 0 2 1 0 0 1-1-.866" fill="#4e4e4e"/></svg>