<svg xmlns="http://www.w3.org/2000/svg" height="32" width="32" version="1"><rect width="28.203" height="28.203" x="1.898" y="1.898" ry="5.575" fill="#ea4141" fill-rule="evenodd"/><g fill="#fff"><path d="M15 18.5c-2.1 2.8-1.978 5.023-2.5 8-.7-3.157-.4-5.2-2.5-8l2.5.5zM22 18.5c-2.1 2.8-1.978 5.023-2.5 8-.7-3.157-.4-5.2-2.5-8l2.5.5zM10 12.5c2.8 2.1 9.023 1.978 12 2.5-3.157.7-9.2.4-12 2.5l.5-2.5zM10 5.5c2.8 2.1 9.023 1.978 12 2.5-3.157.7-9.2.4-12 2.5l.5-2.5z"/><path d="M12 9c2.8 2.1 5.023 1.978 8 2.5-3.157.7-5.2.4-8 2.5l.5-2.5z"/></g></svg>