<svg xmlns="http://www.w3.org/2000/svg" height="32" width="32" version="1"><rect width="28.203" height="28.203" x="1.898" y="1.898" ry="5.575" fill="#0286c2" fill-rule="evenodd"/><path d="M11.018 8.5c-1.235-.014-2.707 1.277-2.973 4.945-.284 3.913.828 4.3 2.035 4.3 1.005 0 1.812-.504 2.697-1.538.134-.156.284-.238.342-.18l.098.1c-.005-.004-.07.15-.133.348-.174.543-.44 1.6-.172 2.341.07.195.216.167.276-.03.14-.473.414-1.285.71-1.694.12-.167.26-.072.254.135-.038 1.26.368 3.553 2.22 5.011 1.939 1.526 4.763 1.486 6.294.834.187-.08.48-.075.68-.039.123.023.279.036.474.026.567-.033-.38-.514-.443-.772s.443-.308.545-1.129c.103-.822-.543-.03-.543-.03s-.475.556-2.367.434c-1.744-.11-3.822-1.009-3.752-4.169.005-.208.069-.393.13-.418.062-.025.234.068.34.244.264.434.499 1.14.627 1.566.06.198.205.227.276.033.232-.645.062-1.529-.102-2.105-.055-.199.004-.45.135-.574.13-.125.332-.104.465.052.89 1.044 1.7 1.555 2.71 1.555 1.207 0 2.32-.386 2.036-4.299-.284-3.913-1.942-5.12-3.22-4.927a3.142 3.142 0 0 0-1.692.835 1.29 1.29 0 0 0-.25.303c0 .016-.118-.089-.276-.22a3.869 3.869 0 0 0-2.492-.918c-.927 0-1.782.334-2.467.894-.158.13-.274.24-.275.232 0-.008-.102-.147-.25-.289a3.153 3.153 0 0 0-1.693-.837 1.65 1.65 0 0 0-.244-.02zm3.482 3a.5.5 0 1 1 0 1 .5.5 0 0 1 0-1zm3 0a.5.5 0 1 1 0 1 .5.5 0 0 1 0-1z" fill="#ececec"/></svg>