<svg xmlns="http://www.w3.org/2000/svg" height="32" width="32" version="1"><rect width="28.203" height="28.203" x="1.898" y="1.898" ry="5.575" fill="#54b23f" fill-rule="evenodd"/><path d="M16 7.233c-6.181 0-11.158 5.48-11.158 8.767 0 3.288 4.977 8.767 11.158 8.767 6.181 0 11.158-5.48 11.158-8.767 0-3.288-4.977-8.767-11.158-8.767z" fill="#4f4f4f"/><path d="M15.24 9.188c-.334 0-.602.373-.602.837v.702a5.45 5.45 0 0 0-1.402.583l-.498-.499c-.328-.328-.782-.401-1.018-.165l-1.074 1.074c-.236.236-.163.69.165 1.018l.5.499a5.45 5.45 0 0 0-.58 1.4h-.706c-.464 0-.837.27-.837.603v1.52c0 .334.373.602.837.602h.702a5.45 5.45 0 0 0 .583 1.401l-.499.499c-.328.328-.401.782-.165 1.018l1.074 1.073c.236.237.69.163 1.018-.165l.499-.498a5.45 5.45 0 0 0 1.4.578v.706c0 .464.27.838.604.838h1.52c.333 0 .601-.374.601-.838v-.702a5.45 5.45 0 0 0 1.401-.583l.5.5c.327.327.78.4 1.017.164l1.074-1.074c.236-.236.163-.69-.165-1.017l-.499-.5a5.45 5.45 0 0 0 .578-1.4h.707c.464 0 .837-.269.837-.603v-1.52c0-.333-.373-.602-.837-.602h-.703a5.45 5.45 0 0 0-.582-1.4l.499-.5c.327-.328.4-.781.165-1.017l-1.074-1.074c-.236-.236-.69-.163-1.018.165l-.498.499a5.45 5.45 0 0 0-1.402-.58v-.706c0-.463-.268-.836-.602-.836h-1.52zm.76 4.087A2.725 2.725 0 0 1 18.725 16 2.725 2.725 0 0 1 16 18.725 2.725 2.725 0 0 1 13.275 16 2.725 2.725 0 0 1 16 13.275z" fill="#54b23f"/></svg>