<svg xmlns="http://www.w3.org/2000/svg" height="32" width="32" version="1"><rect width="28.203" height="28.203" x="1.898" y="1.898" ry="5.575" fill="#54b23f" fill-rule="evenodd"/><path d="M16 7.564c-5.948 0-10.737 5.272-10.737 8.436 0 3.164 4.789 8.436 10.737 8.436S26.737 19.164 26.737 16c0-3.164-4.789-8.436-10.737-8.436z" fill="#4f4f4f"/><path d="M17.157 10.63c-2.323 0-4.242 1.898-4.242 4.218 0 .882.299 1.693.767 2.373l-2.828 2.828a.771.771 0 0 0 1.079 1.102l2.828-2.828c.68.469 1.513.743 2.396.743a4.228 4.228 0 0 0 4.218-4.218 4.228 4.228 0 0 0-4.218-4.218zm0 1.534a2.671 2.671 0 0 1 2.684 2.684 2.671 2.671 0 0 1-2.684 2.684 2.671 2.671 0 0 1-2.684-2.684 2.671 2.671 0 0 1 2.684-2.684z" fill="#54b23f"/></svg>