<svg xmlns="http://www.w3.org/2000/svg" width="32" height="32" version="1"><rect width="28.203" height="28.203" x="1.898" y="1.898" ry="5.575" fill="#fff" fill-rule="evenodd"/><path d="M30.102 9.898V7.473a5.561 5.561 0 0 0-5.575-5.575h-4.459v8h10.034z" fill="#5fb319" fill-rule="evenodd"/><path d="M14.982 30.102h9.545a5.561 5.561 0 0 0 5.575-5.575V12.95h-15.12v17.153z" fill="#e74b4b" fill-rule="evenodd"/><path d="M1.898 12.95v11.577a5.561 5.561 0 0 0 5.575 5.575h4.459V12.949H1.898z" fill="#35abe4" fill-rule="evenodd"/><path d="M17.018 1.898H7.473a5.561 5.561 0 0 0-5.575 5.575v2.425h15.12v-8z" fill="#ffc129" fill-rule="evenodd"/><path d="M17.018 1.898v8H1.898v3.051h10.034v17.153h3.05V12.949H30.102V9.9H20.068v-8h-3.05z" fill="#fff" fill-rule="evenodd"/><path fill="#fff" d="M-58.299 22.657h28v3h-28z"/></svg>