<svg xmlns="http://www.w3.org/2000/svg" height="32" width="32" version="1"><rect width="28.203" height="28.203" x="1.898" y="1.898" ry="5.575" fill="#4f4f4f" fill-rule="evenodd"/><g stroke-width="1.118"><path d="M26.737 5.263h-2.684v2.684h2.684zm0 18.79h-2.684v2.684h2.684zm-6.263-18.79h-2.685v2.684h2.685zm0 18.79h-2.685v2.684h2.685zM14.21 5.263h-2.685v2.684h2.685zm0 18.79h-2.685v2.684h2.685zM7.947 5.263H5.263v2.684h2.684zm0 18.79H5.263v2.684h2.684z" fill="#fff"/><path d="M15.105 16.895c-1.06 1.711-3.405 2.297-5.24 1.309-1.834-.988-2.462-3.177-1.403-4.888z" fill="#beff4c"/><path d="M11.432 14.916c-.152 1.053.157 2.315.958 3.707a.017.017 0 0 1 .007-.001c-.43-.996-.367-2.125.024-3.172z" fill="#2c2c2c"/><path d="M16.895 16.895c1.059 1.711 3.405 2.298 5.24 1.31 1.833-.99 2.462-3.178 1.403-4.89z" fill="#beff4c"/><path d="M20.568 14.916l-.989.534c.391 1.047.454 2.176.024 3.172l.007.001c.801-1.392 1.11-2.654.958-3.707z" fill="#2c2c2c"/></g></svg>