<svg xmlns="http://www.w3.org/2000/svg" height="32" width="32" version="1"><g transform="translate(44.526 -7.158)"><path d="M-14.526 14.127c-.054-.579-.12-1.158-.336-1.67a5.563 5.563 0 0 0-2.965-2.965c-.512-.216-1.089-.28-1.666-.334h-9.033v14h14z" fill="#6655e4"/><path d="M-37.561 9.158c-.578.054-1.155.118-1.666.334a5.563 5.563 0 0 0-2.965 2.965c-.216.511-.28 1.089-.334 1.666v9.035h14v-14z" fill="#cf4f8c"/><path d="M-19.491 37.158c.577-.055 1.154-.118 1.666-.334a5.563 5.563 0 0 0 2.965-2.965c.215-.511.28-1.089.334-1.666v-9.035h-14v14z" fill="#cf4f8c"/><path d="M-42.526 32.19c.054.578.12 1.156.336 1.67a5.563 5.563 0 0 0 2.964 2.964c.512.216 1.09.28 1.666.334h9.034v-14h-14z" fill="#6655e4"/><rect ry="4.235" y="12.446" x="-39.238" height="21.424" width="21.424" fill="#3f3f3f" fill-rule="evenodd"/></g><g stroke-width="2.539" fill="none" stroke="#fff" stroke-linecap="round"><path d="M9 23h8" transform="matrix(.78544 0 0 .78986 4.222 3.377)"/><path d="M9 13s4 .464 4-2c0-2.465-4-2-4-2m0 8V9" stroke-linejoin="bevel" transform="matrix(.78544 0 0 .78986 4.222 3.377)"/><path d="M17 16s.505 1 2 1c1.496 0 2-1 2-2 0-4.215-4 .21-3.988-3.99C17 10 17.484 9 19 9s2 1 2 1" stroke-linejoin="round" transform="matrix(.78544 0 0 .78986 4.222 3.377)"/></g></svg>