<svg xmlns="http://www.w3.org/2000/svg" height="32" width="32" version="1"><rect width="28.203" height="28.203" x="1.898" y="1.898" ry="5.575" fill="#771b85" fill-rule="evenodd"/><path d="M23.835 6.806L13.174 9.264c-1.503.19-1.446 1.728-1.446 1.728v6.561a3.916 3.916 0 0 0-1.068-.153 3.916 3.916 0 1 0 3.898 4.271h.018v-9.855l7.832-1.862v5.463a3.916 3.916 0 0 0-1.068-.153 3.916 3.916 0 1 0 3.897 4.272h.018V8.145s.019-1.642-1.42-1.339z" fill="#eb743b"/><path d="M26.549 18.783c-.947-1.631-4.793-1.145-5.639-.676l-6.885 3.954a.75.75 0 0 0-.277 1.029l2.65 4.565a.758.758 0 0 0 1.035.276l6.885-3.954c.536-.319 3.178-3.564 2.231-5.194zm-1.312.753a.757.753 0 0 1-.277 1.028.757.753 0 0 1-1.034-.275.757.753 0 0 1 .277-1.029.757.753 0 0 1 1.034.276z" fill="#fff"/><path d="M14.782 23.365l.379.652.655-.376 1.515 2.608.656-.376-1.515-2.609.656-.376-.379-.653-.656.377-.655.376zm2.623-1.506l.379.652.378.652.379.652.757 1.305.656-.377-.757-1.304.655-.377.758 1.305.655-.377-1.893-3.26-1.311.752-.656.377zm2.623-1.506l.379.652 1.514 2.609.656-.377 1.312-.753-.379-.652-.19-.326.329-.189-.379-.652-1.312.753.38.652.327-.188.19.326-.657.377-1.135-1.957 1.311-.753-.378-.652-1.968 1.13zm-1.588 1.781l.655-.376.379.652-.656.377z" fill="#999"/></svg>