<svg xmlns="http://www.w3.org/2000/svg" height="32" width="32" version="1"><rect width="28.203" height="28.203" x="1.898" y="1.898" ry="5.575" fill="#a002c2" fill-rule="evenodd"/><path d="M12.788 6.722c-.593 0-1.07.477-1.07 1.07v9.992c0 .593.477 1.07 1.07 1.07h9.992c.593 0 1.07-.477 1.07-1.07V8.863l2.142-2.141z" fill="#f9f9f9"/><path d="M6.008 13.145l2.141 2.141v8.922c0 .593.478 1.07 1.07 1.07h9.993c.593 0 1.07-.477 1.07-1.07v-9.992c0-.593-.477-1.07-1.07-1.07z" fill="#d335f5"/><path d="M10.29 16.714v.713h7.851v-.713zm0 2.14v.715h7.851v-.714zm0 2.142v.714h5.995v-.714z" fill="#edaefb"/></svg>