<svg xmlns="http://www.w3.org/2000/svg" height="32" width="32" version="1"><rect width="28.203" height="28.203" x="1.898" y="1.898" ry="5.575" fill="#387068" fill-rule="evenodd"/><g fill="#ffcd59"><path d="M16.357 19.503c-2.15-.02-4.139.068-5.865.264-3.091.35-4.36.505-4.443.547-.149.075.025.154.724.324.423.104.703.22.782.325.097.129.151.144.256.073.203-.138.69.03 1.12.388.387.321.477.357.573.23.032-.043.214-.079.405-.08.19 0 .41-.032.487-.072.097-.05.237-.027.452.078.172.083.453.15.624.15.171 0 .56.105.865.233a57.7 57.7 0 0 0 1.393.55c.462.176 1.161.469 1.554.652.392.183.757.334.809.335.051.001.241-.072.422-.164.759-.383 3.293-1.374 3.515-1.374.133 0 .268-.038.303-.084.035-.046.166-.061.295-.035.175.036.312-.01.558-.187.4-.287.957-.326 1.145-.08.162.213.267.195.615-.108.408-.354.858-.53 1.2-.47.204.037.35.004.581-.135.17-.101.498-.232.731-.29.546-.133.599-.157.504-.234-.105-.084-1.756-.356-2.762-.455a78.04 78.04 0 0 0-6.843-.38zm-1.527.527c.204-.006.369.04.369.138 0 .22-1.123 1.009-1.676 1.178-.614.188-.634.189-.866-.001-.368-.302-.176-.51.737-.804.319-.102.692-.258.828-.346.16-.103.404-.16.608-.165zm2.483.006c.342.002 1.347.343 1.728.61.19.135.21.198.154.504-.035.192-.113.348-.172.346-.149-.006-.889-.374-1.31-.652-.325-.214-.626-.685-.503-.786.018-.015.054-.022.103-.022zm-4.626.055c.13.06-.222.318-.504.369-.146.026-.319.1-.383.163-.065.063-.227.16-.36.215-.377.156-.686.186-1.019.1-.27-.068-.44-.286-.224-.286.044 0 .245-.093.446-.206.269-.152.58-.231 1.167-.299.44-.05.834-.076.877-.056zm7.094.032c.101-.004.247.002.426.017.428.037.647.099.823.234.132.1.386.243.564.317.306.126.314.14.147.24-.21.125-.162.129-.748-.06-.553-.18-1.37-.6-1.37-.706 0-.023.057-.037.158-.042zm-3.625.028l.229.231c.126.127.3.36.386.52.087.159.186.288.22.288.149 0 1.125.583 1.125.671 0 .109-.474.332-.705.332-.082 0-.37.12-.639.27-.58.32-.747.327-1.245.053a10.069 10.069 0 0 0-.847-.4c-.259-.106-.47-.244-.47-.307 0-.062.244-.244.54-.405.335-.181.609-.404.72-.581.1-.158.294-.373.433-.48l.253-.192zm-6.507.137c.2.022.174.138-.117.284-.171.085-.354.153-.406.15-.2-.013-.61-.164-.61-.226s.147-.096.858-.196c.116-.016.208-.02.275-.012zm13.313.063c.188-.003.423.018.614.063l.235.055-.301.13c-.166.07-.356.127-.423.126-.169-.003-.452-.188-.452-.295 0-.048.14-.075.327-.079zm-3.146.695c.152.003.286.07.23.144-.076.1-.395.1-.471 0-.032-.043.007-.098.088-.124a.485.485 0 0 1 .153-.02zm-7.724.029c.069 0 .143.043.164.095.023.058-.043.097-.164.097-.122 0-.188-.04-.165-.097.022-.052.096-.095.165-.095zM25.404 19.255c-1.507-.32-1.526-.34-1.297-1.272.179-.732.536-1.483.705-1.483.274 0 .623.24.781.539.1.188.27.41.377.491.139.107.194.273.194.584 0 .504.193.87.57 1.079.146.081.266.187.266.234 0 .13-.355.092-1.596-.172zM9.863 12.5l-.478.224c-.62.29-.908.66-1.073 1.385-.073.323-.214.67-.313.773-.098.103-.303.58-.454 1.06-.15.48-.327.94-.394 1.023-.108.136-.138.122-.282-.135-.089-.157-.202-.285-.254-.285-.177 0-.618.76-.799 1.375-.205.698-.4 1.085-.69 1.377-.147.148-.163.202-.06.203.118.001 3.025-.404 4.363-.608.415-.063.431-.078.592-.56.092-.272.313-.748.493-1.058l.326-.565-.012-1.567c-.014-1.697.008-1.62-.636-2.297l-.328-.345zm.89 5.162c-.043.007-.084.04-.122.108-.177.314-.325.83-.265.92.078.117.208.116.446 0 .143-.07.189-.19.189-.483 0-.337-.122-.566-.248-.546zM21.689 18.36c-2.622-.432-5.613-.554-7.994-.326-.81.078-1.329.092-1.379.037-.044-.048-.142-.473-.219-.943-.132-.808-.13-.907.014-1.77.219-1.296.324-1.637.64-2.07.285-.391.576-.497.734-.267.187.273.534 1.7.534 2.197 0 .816.163.475.263-.548.097-1.004.124-1.137.525-2.62.162-.6.322-1.387.355-1.752.036-.391.12-.749.206-.873.08-.116.195-.346.255-.512.188-.518.257-.528 1.014-.148l.69.346.203.706c.112.387.282.925.379 1.195.096.27.325 1.129.508 1.91.203.87.386 1.463.471 1.532.158.127.505 1.118.594 1.695.032.21.115.459.184.553.113.156.12.118.073-.388a8.5 8.5 0 0 0-.136-.913c-.102-.436.015-1.214.25-1.664.093-.175.251-.655.353-1.066.237-.96.312-1.05.689-.837.726.41.874.623 1.169 1.683.153.548.35 1.132.44 1.299.188.352.494 1.795.496 2.339.003.653-.266 1.389-.49 1.343-.032-.007-.401-.069-.821-.138z"/></g></svg>