<svg xmlns="http://www.w3.org/2000/svg" height="32" width="32" version="1"><rect width="28.203" height="28.203" x="1.898" y="1.898" ry="5.575" fill="#41a5c7" fill-rule="evenodd"/><path d="M16 6.5a3 3 0 0 0-3 3 3 3 0 0 0 2 2.824V13.5h-2.75v2H15V21c0 .75-.783.565-1.277.5-2.214-.29-3.665.007-4.698-.951l1.17-.07-1.292-1.206-1.295-1.205C7.12 19.173 7.063 20.27 7 21.45l.801-.79c.385 1.589 5.642 2.59 6.385 3.243L16 25.5l1.814-1.596c.744-.655 6-1.656 6.379-3.246l.807.793c0-1.201-.261-2.254-.608-3.383l-1.295 1.205L22 20.48l.98.068c-1.032.956-2.476.661-4.681.952-.501.066-1.3.25-1.3-.5v-5.5h2.75v-2h-2.75v-1.173a2.999 2.999 0 0 0-1-5.826zm0 2a1 1 0 1 1 0 2 1 1 0 0 1 0-2z" fill="#fff"/></svg>