<svg xmlns="http://www.w3.org/2000/svg" width="32" height="32"><defs><linearGradient id="a" y1="537.22" y2="505.83" x1="423.04" gradientUnits="userSpaceOnUse" x2="398.97" gradientTransform="matrix(.53776 0 0 .53776 -203.714 -265.681)"><stop stop-color="#197cf1"/><stop offset="1" stop-color="#20bcfa"/></linearGradient><linearGradient id="b" y1="506.87" y2="536.3" x1="398.46" x2="427.88" gradientUnits="userSpaceOnUse" gradientTransform="matrix(.53776 0 0 .53776 -203.713 -265.68)"><stop stop-color="#abdaf9"/><stop offset="1" stop-color="#7cbcec"/></linearGradient></defs><rect width="28.203" height="28.203" x="1.898" y="1.898" ry="5.575" fill="#1ea9f7" fill-rule="evenodd"/><rect height="21.511" rx="10.755" y="5.244" x="5.245" width="21.511" fill="url(#a)"/><path d="M16 5.244c-.78 0-1.54.086-2.273.243l-.953 1.909-1.441-1.081a10.724 10.724 0 0 0-5.514 6.23l2.115-.847 1.613 1.075.538-1.613 6.991-3.764-.426-2.13c-.215-.013-.431-.022-.65-.022m7.965 3.532l-.436 1.308.537.538-2.15 3.227 1.075 3.764 3.567.446c.128-.666.197-1.354.197-2.06 0-1.841-.46-3.57-1.27-5.083l-.88-.294.32-.641a10.727 10.727 0 0 0-.96-1.204M5.458 13.849c-.119.59-.186 1.198-.205 1.818l3.756 1.409-.538-1.613-1.075-1.614zm3.551 3.227l2.689 6.453v2.333c1.317.573 2.77.894 4.302.894.107 0 .212-.005.318-.008l3.446-5.908L11.16 16z" fill="url(#b)" fill-rule="evenodd"/><path d="M16.937 10.41l-1.978.185v7.638l1.956-.266v-3.265l2.608 3.614 2.043-.616-2.673-3.47 2.695-3.285-2.087-.452-2.586 3.285zm-4.456 1.868a.149.149 0 0 0-.065.021l-.76.74c-.032.032-.045.085-.022.123l.891 1.397c-.16.254-.278.532-.369.82l-1.652.33c-.046.011-.087.037-.087.082v1.026c0 .044.043.092.087.103l1.608.37c.086.334.216.652.391.944l-.935 1.335c-.026.038-.012.092.022.124l.76.718c.033.03.092.045.131.021l1.457-.842c.286.157.586.286.912.37l.348 1.54c.01.044.04.082.087.082h1.086c.046 0 .098-.04.11-.082l.39-1.54c.337-.086.664-.227.957-.39l1.434.903c.04.023.097.012.13-.021l.76-.719c.034-.032.046-.086.023-.123l-.522-.82-.174.06c-.025.013-.05 0-.065-.02 0 0-.329-.47-.76-1.068-.517.955-1.57 1.602-2.782 1.602-1.724 0-3.13-1.308-3.13-2.937 0-1.198.762-2.228 1.848-2.69v-.76a3.875 3.875 0 0 0-.565.227h-.021l-1.457-.904a.113.113 0 0 0-.065-.02" color="#000" fill="#fcfcfc"/></svg>