<svg xmlns="http://www.w3.org/2000/svg" height="32" width="32"><rect width="28.203" height="28.203" x="1.898" y="1.898" ry="5.575" fill="#f2f2f2" fill-rule="evenodd"/><g stroke-width="1.108"><path d="M16.134 16.043c2.626 4.779 1.416 13.868-3.167 11.22-1.34-.775-1.864-1.59-1.952-2.352-.704.305-1.67.26-3.014-.513-5.09-2.939 2.682-8.24 8.13-8.353" fill="#37a0f2"/><path d="M16.134 16.043a8.75 8.75 0 0 0 .56-.03c5.37-.461 12.003-5.768 7.573-8.324-1.342-.773-2.309-.818-3.012-.514-.088-.762-.61-1.577-1.952-2.353-4.864-2.809-5.723 5.634-3.499 10.556.103.228.059.475.175.686" fill="#e74c3c"/><path d="M15.957 16.09c.116 5.45 5.708 12.718 8.353 8.133.773-1.342.819-2.31.515-3.013.761-.088 1.576-.61 2.353-1.95 2.939-5.091-6.442-5.796-11.217-3.17" fill="#fecd38"/><path d="M15.957 16.09c-4.778 2.626-13.867 1.416-11.22-3.167.776-1.341 1.591-1.864 2.352-1.952-.304-.704-.26-1.67.514-3.014 2.938-5.09 8.239 2.682 8.353 8.13" fill="#a4c639"/></g></svg>