<svg xmlns="http://www.w3.org/2000/svg" width="32" height="32"><rect width="28.203" height="28.203" x="1.898" y="1.898" ry="5.575" fill="#ee4056" fill-rule="evenodd"/><path d="M8.963 8C7.876 8 7 8.902 7 10.022 7 18.32 8.474 24.03 16 24c7.526-.03 9-5.687 9-13.978C25 8.902 24.124 8 23.037 8H8.963zm2.828 4.551c.314 0 .628.123.87.367l3.34 3.3 3.34-3.4a1.222 1.222 0 0 1 1.738 0 1.264 1.264 0 0 1 0 1.77l-4.116 4.168a1.209 1.209 0 0 1-.963.351 1.209 1.209 0 0 1-.963-.351l-4.115-4.168a1.264 1.264 0 0 1 0-1.77c.241-.244.556-.367.87-.367z" fill="#fff"/></svg>