<svg xmlns="http://www.w3.org/2000/svg" height="32" width="32" version="1"><rect width="28.203" height="28.203" x="1.898" y="1.898" ry="5.575" fill="#02a8f3" fill-rule="evenodd"/><path d="M7 8.5c0 1.056.45 1.5 1.5 1.5C15.956 10 22 16.044 22 23.5c0 .933.509 1.5 1.5 1.5 1.02 0 1.5-.596 1.5-1.5C25 14.387 17.613 7 8.5 7 7.503 7 7 7.485 7 8.5zm0 6c0 1.027.42 1.5 1.5 1.5a7.5 7.5 0 0 1 7.5 7.5c0 .883.507 1.5 1.5 1.5.969 0 1.5-.538 1.5-1.5C19 17.701 14.299 13 8.5 13c-.969 0-1.5.428-1.5 1.5zm3 4.5a3 3 0 1 0 0 6 3 3 0 0 0 0-6z" fill="#fff"/></svg>