<svg xmlns="http://www.w3.org/2000/svg" height="32" width="32" version="1"><rect width="28.203" height="28.203" x="1.898" y="1.898" ry="5.575" fill="#dd9f59" fill-rule="evenodd"/><g transform="translate(50.632 6.737)"><rect x="-20.263" y="23.632" width="22" height="22" transform="matrix(0 -1 -1 0 0 0)" rx="2.807" ry="2.807" fill="#fff"/><path d="M-38.602-.738c-1.056.649-4.281 1.48-6.03 1.987l.055.154c.832-.083 2.02-.2 2.854-.342v1.227h-2.897l.07 1.035h2.424c-.416 1.712-1.38 2.432-2.476 3.754l.166.154c1.028-.745 2.059-1.406 2.71-2.388v3.42h.266c.708 0 1.867-.273 1.88-.357V4.42c.527.475.628 1.031.726 1.623a.87.87 0 0 0 .554.223c.375 0 .694-.271.694-.649 0-.51-.184-.983-1.975-1.385v-.91h2.344c.375 0 .556-.86.652-1.012l-2.017-1.049-.45 1.024h-.529V.778c.626-.142 1.21-.284 1.682-.426.274.007 1.297-.09 1.297-.09zM-35.632 1.294v6.97c1.305 0 1.973-.522 1.973-.497v-.465h2.022v.737c1.098 0 1.986-.32 1.986-.342v-5.27c.291-.059.515-.152.598-.26L-30.66 1.3l-1.115.961h-1.815zm1.973 2.004h2.022v3.004h-2.022zM-35.632 11.263v8h2v-3h1.133a4 4 0 0 0 3.867 3 4 4 0 1 0 0-8 4 4 0 0 0-3.87 3h-1.13v-3zm7 2a2 2 0 1 1 0 4 2 2 0 0 1 0-4z" fill="#6b6b6b"/></g></svg>