<svg xmlns="http://www.w3.org/2000/svg" height="32" width="32" version="1"><rect width="28.203" height="28.203" x="1.898" y="1.898" ry="5.575" fill="#c12d25" fill-rule="evenodd"/><rect ry="12.105" rx="12.105" transform="matrix(0 -1 -1 0 0 0)" height="24.211" width="24.211" y="-28.105" x="-28.105" fill="#c12d25"/><path d="M16 3.895c-.892 0-1.758.102-2.594.283v5.56L9.475 5.805a12.088 12.088 0 0 0-3.67 3.67l3.933 3.931h-5.56A12.211 12.211 0 0 0 3.895 16c0 .892.102 1.758.283 2.594h5.56l-3.933 3.931a12.088 12.088 0 0 0 3.67 3.67l3.931-3.933v5.56c.836.18 1.702.283 2.594.283.892 0 1.758-.102 2.594-.283v-5.56l3.931 3.933a12.088 12.088 0 0 0 3.67-3.67l-3.933-3.931h5.56c.18-.836.283-1.702.283-2.594 0-.892-.102-1.758-.283-2.594h-5.56l3.933-3.931a12.088 12.088 0 0 0-3.67-3.67l-3.931 3.933v-5.56A12.211 12.211 0 0 0 16 3.895z" fill="#fff"/><rect ry="10.376" rx="10.376" transform="matrix(0 -1 -1 0 0 0)" height="20.752" width="20.752" y="-26.376" x="-26.376" fill="#ffcb05"/><rect transform="matrix(0 -1 -1 0 0 0)" rx="8.647" ry="8.647" height="17.293" width="17.293" y="-24.647" x="-24.647" fill="#c12d25"/><g stroke-width="1.157" fill="#fffcf7"><path d="M11.677 11.677h1.729v8.646h-1.73z"/><path d="M15.135 11.677v1.729H9.947v-1.73zM16 11.677h1.73v8.646H16z"/><path d="M21.188 15.135v1.73H16v-1.73z"/><path d="M19.459 11.677h1.729v8.646h-1.73z"/></g></svg>