<svg xmlns="http://www.w3.org/2000/svg" height="32" width="32" version="1"><rect width="28.203" height="28.203" x="1.898" y="1.898" ry="5.575" fill="#ff3939" fill-rule="evenodd"/><path d="M18.027 16.746c3.498-.118 5.618-.483 5.805-1 .038-.106.028-.133-.086-.229l-.13-.109.109-.068c.06-.038.204-.155.32-.26.774-.698.597-1.958-.358-2.556-.128-.08-.223-.169-.21-.196.427-.962.514-1.316.541-2.21.024-.773-.026-1.165-.23-1.772-.568-1.7-2.109-3.15-3.947-3.715-.695-.213-1.04-.264-1.812-.263-.646 0-.77.013-1.168.116-1.698.441-2.875 1.43-3.87 3.25-.125.23-.234.418-.241.418-.008 0-.199-.178-.424-.396-.63-.608-1.18-.877-1.876-.918-.478-.029-.788.036-1.238.255-.661.323-1.197.997-1.373 1.727-.19.793.054 1.692.654 2.4l.168.199-.124.084c-.309.208-.748.696-.892.99-.29.59-.215 1.306.192 1.846.218.29.538.516.783.554a.493.493 0 0 1 .183.052c.008.015-.003.156-.025.314-.051.368.011.497.326.675 1.07.604 4.852.948 8.923.811z" fill="#ffe9b5"/><path d="M17.797 27.541c1.464-.19 2.764-.598 3.712-1.168.336-.2.948-.677 1.003-.78.024-.043.323-2.303.664-5.021.642-5.113.66-5.314.48-5.347-.038-.007-.094.032-.124.087-.225.415-1.522.728-3.865.933-1.064.092-4.575.13-5.91.064-2.804-.14-4.611-.428-5.272-.84-.116-.074-.224-.121-.239-.106-.015.015.256 2.31.601 5.1l.629 5.072.163.168c.209.214.853.64 1.31.868 1.053.523 2.562.905 4.09 1.035.63.054 2.115.02 2.758-.064z" fill="#fff"/><path d="M21.428 10.96a1.163 1.163 0 0 1-1.163 1.162 1.163 1.163 0 0 1-1.163-1.163 1.163 1.163 0 0 1 1.163-1.163 1.163 1.163 0 0 1 1.163 1.163z" fill="#1b1b1b"/><path d="M18.326 13.673c0 .857-1.041 1.551-2.326 1.551-1.285 0-2.326-.694-2.326-1.55 2.388.245 4.652 0 4.652 0z" fill="#952525"/><path d="M12.898 10.96a1.163 1.163 0 0 1-1.163 1.162 1.163 1.163 0 0 1-1.163-1.163 1.163 1.163 0 0 1 1.163-1.163 1.163 1.163 0 0 1 1.163 1.163z" fill="#1b1b1b"/><path d="M22.152 16.834a8.53 2.326 0 0 1-2.356.474l-.574 9.181c.876-.219 1.663-.514 2.288-.889.028-.016.068-.05.099-.07l.543-8.696zm-12.304.002l.541 8.631c.191.12.39.244.56.329a9.479 9.479 0 0 0 1.827.652l-.571-9.141a8.53 2.326 0 0 1-2.357-.472zm4.601.676v9.245c.197.026.392.058.59.075.574.048 1.802.018 2.512-.049v-9.27a8.53 2.326 0 0 1-1.551.04 8.53 2.326 0 0 1-1.55-.042z" fill="#ff3939"/></svg>