<svg xmlns="http://www.w3.org/2000/svg" height="32" width="32" version="1"><g transform="translate(-.596)"><rect ry="5.575" y="1.898" x="1.898" height="28.203" width="28.203" fill="#f2f2f2" fill-rule="evenodd"/><circle r="14.105" cx="16" cy="16" fill="#56aad4"/><path d="M23.285 1.898h-9.367L22.01 9.99l-.002.002a8.5 8.5 0 0 1 .27.283 8.5 8.5 0 0 1 .536.659 8.5 8.5 0 0 1 .471.707zM30.102 12.203v-4.73a5.561 5.561 0 0 0-5.575-5.575H24.5V16a8.5 8.5 0 0 1-.012.39 8.5 8.5 0 0 1-.084.846 8.5 8.5 0 0 1-.17.832zm-1.997-8.13a17 17 0 0 1 .46.503c-.154-.168-.3-.342-.46-.504zm1.053 1.179a17 17 0 0 1 .465.61c-.153-.206-.303-.412-.465-.61zm.951 1.287c.145.215.28.436.414.658a17 17 0 0 0-.414-.658zm.83 1.38c.124.23.244.46.358.696a17 17 0 0 0-.358-.695zM30.102 23.285v-9.367L22.01 22.01l-.002-.002a8.5 8.5 0 0 1-.283.27 8.5 8.5 0 0 1-.659.536 8.5 8.5 0 0 1-.707.471zM19.799 30.102h4.728a5.561 5.561 0 0 0 5.575-5.575V24.5H16a8.5 8.5 0 0 1-.39-.012 8.5 8.5 0 0 1-.844-.084 8.5 8.5 0 0 1-.834-.17zm8.127-1.997a17 17 0 0 1-.469.428c.157-.143.318-.28.469-.428zm-1.192 1.067a17 17 0 0 1-.558.424c.187-.14.377-.277.558-.424zM8.715 30.102h9.367L9.99 22.01l.002-.002a8.5 8.5 0 0 1-.267-.283 8.5 8.5 0 0 1-.54-.659 8.5 8.5 0 0 1-.47-.707zM1.898 19.797v4.73a5.561 5.561 0 0 0 5.575 5.575H7.5V16a8.5 8.5 0 0 1 .012-.39 8.5 8.5 0 0 1 .084-.844 8.5 8.5 0 0 1 .17-.834zm.456 6.31c.16.218.319.436.49.645a17 17 0 0 1-.49-.645zm1.08 1.317c.152.169.301.34.46.502a17 17 0 0 1-.46-.502zM1.898 8.715v9.367L9.99 9.99l.002.002a8.5 8.5 0 0 1 .285-.27 8.5 8.5 0 0 1 .657-.536 8.5 8.5 0 0 1 .707-.471zM12.203 1.898h-4.73a5.561 5.561 0 0 0-5.575 5.575V7.5H16a8.5 8.5 0 0 1 .39.012 8.5 8.5 0 0 1 .846.084 8.5 8.5 0 0 1 .832.17zm-6.342.479c-.205.152-.411.303-.609.465a17 17 0 0 1 .61-.465zM4.576 3.436c-.168.152-.342.3-.504.459a17 17 0 0 1 .504-.46z" fill="#56aad4" fill-rule="evenodd"/><path d="M12.203 1.898l5.865 5.868a8.5 8.5 0 0 0-.832-.17 8.5 8.5 0 0 0-.845-.084A8.5 8.5 0 0 0 16 7.5H1.898v1.215h9.743a8.5 8.5 0 0 0-.707.47 8.5 8.5 0 0 0-.657.538 8.5 8.5 0 0 0-.285.27L9.99 9.99l-8.092 8.092v1.715l5.868-5.865a8.5 8.5 0 0 0-.17.834 8.5 8.5 0 0 0-.084.843A8.5 8.5 0 0 0 7.5 16v14.102h1.215v-9.743a8.5 8.5 0 0 0 .47.707 8.5 8.5 0 0 0 .54.659 8.5 8.5 0 0 0 .267.283l-.002.002 8.092 8.092h1.717l-5.867-5.868a8.5 8.5 0 0 0 .834.17 8.5 8.5 0 0 0 .843.084A8.5 8.5 0 0 0 16 24.5h14.102v-1.215h-9.743a8.5 8.5 0 0 0 .707-.47 8.5 8.5 0 0 0 .659-.538 8.5 8.5 0 0 0 .283-.27l.002.003 8.092-8.092v-1.715l-5.868 5.865a8.5 8.5 0 0 0 .17-.832 8.5 8.5 0 0 0 .084-.845A8.5 8.5 0 0 0 24.5 16V1.898h-1.215v9.743a8.5 8.5 0 0 0-.47-.707 8.5 8.5 0 0 0-.538-.659 8.5 8.5 0 0 0-.27-.283l.003-.002-8.092-8.092z" fill="#f2f2f2" fill-rule="evenodd"/></g><g transform="matrix(.75 0 0 .75 4.272 5.563)" stroke-width="1.333"><circle r="8" cy="23" cx="24" fill="#ba22ff"/><path d="M27 27h-4.98v-1.015l1.747-1.751q.33-.33.6-.609.268-.278.461-.543.193-.264.3-.538.106-.274.106-.59 0-.35-.228-.543-.224-.193-.604-.193-.401 0-.772.184-.37.184-.777.524L22 20.987q.228-.193.477-.368.249-.18.548-.316.3-.137.66-.217.36-.085.807-.085.533 0 .955.137.426.136.726.391.299.25.456.61.163.358.163.806 0 .406-.152.78-.153.367-.417.726-.264.354-.614.708-.345.35-.741.713l-.893.835v.066H27v1.228z" fill="#fff"/></g></svg>