<svg xmlns="http://www.w3.org/2000/svg" height="32" width="32" version="1"><rect width="28.203" height="28.203" x="1.898" y="1.898" ry="5.575" fill="#4f4f4f" fill-rule="evenodd"/><path style="line-height:normal;font-variant-ligatures:normal;font-variant-position:normal;font-variant-caps:normal;font-variant-numeric:normal;font-variant-alternates:normal;font-feature-settings:normal;text-indent:0;text-align:start;text-decoration-line:none;text-decoration-style:solid;text-decoration-color:#000;text-transform:none;text-orientation:mixed;white-space:normal;shape-padding:0;isolation:auto;mix-blend-mode:normal;solid-color:#000;solid-opacity:1" d="M12.316 5.963l-4.052 4.03V19.548l7.665 7.666 7.641-7.644V9.927l-3.963-3.964zm.33.801h6.63l3.495 3.495v8.98l-6.844 6.844-6.864-6.866v-8.891z" color="#000" font-weight="400" font-family="sans-serif" overflow="visible" fill="#ffffe2"/><path d="M10 10.38l2.901-2.9h6.033l2.902 2.9h-4.452v12.88l-1.415 1.414-1.43-1.43V10.38z" fill="#ffffe2"/><path d="M10 11.828v6.962l2.239 2.238 2.059-2.059-1.455-1.455v-5.686zM21.931 11.828v6.962l-2.238 2.238-2.059-2.059 1.455-1.455v-5.686z" fill="#ffffe2"/></svg>