<svg xmlns="http://www.w3.org/2000/svg" height="32" width="32" version="1"><rect width="28.203" height="28.203" x="1.898" y="1.898" ry="5.575" fill="#0093cd" fill-rule="evenodd"/><g transform="translate(43.684 -1.368)"><rect transform="rotate(-33.05)" x="-44.572" y="-6.487" width="23.789" height="11.895" ry="3.568" rx="3.568" fill="#4f4f4f"/><path fill="#0093cd" d="M-34.986 17.051l9.97-6.487 4.634 7.121-9.97 6.487z"/><g fill="none" stroke="#fff" stroke-width=".588"><path d="M-30.318 22.123l-1.46-2.243 1.995-1.298-1.298-1.994-2.243 1.46M-27.983 14.573l-1.246.81 2.595 3.988-1.247.811M-24.62 18.416l-1.46-2.243 1.994-1.298-1.298-1.994-2.243 1.46" stroke-width=".49957656"/></g><g fill="#697e83" stroke-width="1.177"><path d="M-36.623 20.144a.509.509 0 0 0-.15.705l.557.854-.855.556a.509.509 0 0 0-.15.706l.557.854a.509.509 0 0 0 .705.15l.855-.556.556.854a.509.509 0 0 0 .705.15l.855-.557a.509.509 0 0 0 .149-.705l-.556-.854.854-.556a.509.509 0 0 0 .15-.706l-.556-.854a.509.509 0 0 0-.706-.15l-.854.556-.556-.854a.509.509 0 0 0-.706-.15z"/><g transform="scale(.84962) rotate(-33.05 -.805 100.099)"><circle transform="rotate(90)" r="1" cx="14" cy="-26"/><circle transform="rotate(90)" r="1" cx="18" cy="-26"/><circle transform="scale(-1)" r="1" cx="-28" cy="-16"/><circle transform="scale(-1)" r="1" cx="-24" cy="-16"/></g></g></g></svg>