<svg xmlns="http://www.w3.org/2000/svg" height="32" width="32" version="1"><rect width="28.203" height="28.203" x="1.898" y="1.898" ry="5.575" fill="#3c6eb4" fill-rule="evenodd"/><path d="M20.007 7c-.1-.006-.26.058-.552.186-.348.151-1.136.275-1.754.275-2.187.045-3.936.794-5.354 2.205-1.924 1.929-2.53 4.355-1.652 6.608.203.52.326 1.049.273 1.175-.052.127-.422.477-.82.78-.864.657-1.462 1.716-1.611 2.855-.09.684-.028 1.01.353 1.824.82 1.748 2.677 2.497 4.656 1.877 1.147-.358 2.293-1.632 3.211-3.564.793-1.669.827-1.71 1.678-2.01 1.435-.506 2.34-1.066 3.238-2.004 1.594-1.663 2.185-3.818 1.614-5.877-.257-.925-.473-1.244-1.635-2.422-.736-.746-1.388-1.5-1.451-1.677-.053-.149-.094-.225-.194-.23zM16.14 9c.681.003 1.208.209 1.352.617.047.135-.152.767-.444 1.405-.75 1.64-.99 2.54-1.443 5.433-.562 3.588-1.177 5.137-2.408 6.069-.776.587-1.73.637-2.238.119-.44-.448-.569-1.01-.364-1.598.163-.466.32-.54 1.502-.715.823-.12 1.403-.69 1.403-1.437 0-.47-.19-.74-.829-1.416-.989-1.046-1.42-2.05-1.425-3.319-.007-1.982.963-3.668 2.62-4.554.759-.405 1.593-.607 2.274-.604zm2.533 1.002c.205-.03.464.209.83.707 1.45 1.97 1.3 4.952-.332 6.664-.695.73-.859.774-1.341.381-.28-.227-.333-.433-.33-1.265.003-1.275.382-4.396.677-5.582.143-.575.292-.874.496-.905z" fill="#fff"/></svg>