<svg xmlns="http://www.w3.org/2000/svg" width="32" height="32" version="1"><rect width="28.203" height="28.203" x="1.898" y="1.898" ry="5.575" fill="#b3b3b3" fill-rule="evenodd"/><path d="M16 5.297l-.033.002h-.003c-3.945.021-7.88 3.575-7.88 6.243v8.818c0 3.624 2.969 6.343 7.916 6.343 4.947 0 7.915-2.717 7.915-6.342v-8.576c0-2.772-3.952-6.463-7.915-6.485z" fill="#5b5b5b"/><path d="M16 5.297l-.032.001h-.004c-3.945.022-7.88 3.576-7.88 6.243V16h15.831v-4.215c0-2.772-3.952-6.462-7.915-6.485z" fill="#666"/><path d="M16 5.297l-.032.001h-.004c-3.945.022-7.88 3.576-7.88 6.243V16H16V5.3z" fill="#333"/><path d="M16 8.355c.485 0 .88.44.88.983v2.622c0 .542-.395.982-.88.982s-.88-.44-.88-.983V9.338c0-.542.395-.983.88-.983" fill="#ccc"/></svg>