<svg xmlns="http://www.w3.org/2000/svg" height="32" width="32" version="1"><rect width="28.203" height="28.203" x="1.898" y="1.898" ry="5.575" fill="#5f7c8a" fill-rule="evenodd"/><path d="M15.098 25.692a8.996 8.996 0 0 1-4.898-2.17c-1.407-1.24-2.408-2.967-2.822-4.865-.1-.464-.117-.699-.119-1.75-.001-1.07.013-1.281.12-1.777.37-1.73 1.134-3.165 2.355-4.419a8.798 8.798 0 0 1 4.176-2.408l.633-.164.016-.381.015-.38h-2.011v-.254c0-1.136.923-2.213 2.09-2.44.212-.041.752-.055 1.61-.04 1.199.019 1.312.029 1.607.143.414.162.825.436 1.063.708.36.414.652 1.178.652 1.705v.177H17.632v.781l.41.092c1.006.224 2.118.717 3.074 1.364.688.465 1.684 1.445 2.18 2.145.43.607.983 1.699 1.196 2.36.566 1.754.565 3.787-.002 5.525-.705 2.158-2.276 4.008-4.324 5.092a8.966 8.966 0 0 1-5.068.956zm.273-2.647c.018-.46.045-.628.12-.742.269-.408.911-.398 1.157.018.066.111.086.284.086.732 0 .677-.054.634.631.504.858-.163 1.885-.605 2.643-1.137a8.15 8.15 0 0 0 .873-.759 6.755 6.755 0 0 0 .839-8.539c-.992-1.49-2.52-2.518-4.313-2.902-.702-.15-1.959-.16-2.598-.021-2.045.445-3.662 1.605-4.648 3.331-.386.677-.742 1.72-.833 2.44l-.028.224h.555c.785 0 1.027.136 1.1.617a.655.655 0 0 1-.35.664c-.138.07-.311.092-.747.092-.312 0-.568.01-.568.02 0 .012.037.22.081.463.511 2.772 2.655 4.963 5.39 5.506.636.127.584.17.61-.511zm7.577-12.911l-1.203-1.205.658-.64c.69-.672.842-.76 1.181-.676.091.022.477.365 1.03.918l.885.882v.57l-.674.678-.673.678z" fill="#f2f2f2"/><path d="M16.138 13.694v-3.167h.277c.432 0 1.23.147 1.754.322 2.215.74 3.88 2.66 4.276 4.928.045.256.081.605.081.775v.31h-6.388z" fill="#72dba9"/></svg>