<svg xmlns="http://www.w3.org/2000/svg" height="32" width="32" version="1"><rect width="28.203" height="28.203" x="1.898" y="1.898" ry="5.575" fill="#5db43e" fill-rule="evenodd"/><path d="M21.534 7c-3.555 0-4.222 5.342-2.222 5.342 2 0 5.777-5.342 2.222-5.342zm-5.476.822c-.056 0-.117.005-.18.011-2.014.252-1.305 3.624-.233 3.687 1.038.061 2.175-3.692.412-3.698zm-3.493 1.245a.938.938 0 0 0-.412.076c-1.619.658-.245 3.373.661 3.19.823-.165.94-3.19-.25-3.267zm-2.643 2.219a.73.73 0 0 0-.455.164c-1.296.956.436 3.267 1.199 2.91.667-.315.241-3.039-.744-3.074zm7.655 2.206c-2.808-.047-6.513 1.362-7.145 4.193C9.75 20.75 13.25 25 16.902 25c1.797 0 3.87-1.624 4.258-3.68.296-1.569-3.485-.94-3.35.097.163 1.244-.912 1.859-1.964 1.057-3.351-2.553 5.548-3.826 4.961-7.314-.183-1.086-1.545-1.639-3.23-1.667z" fill="#fff"/></svg>