<svg xmlns="http://www.w3.org/2000/svg" xmlns:xlink="http://www.w3.org/1999/xlink" height="32" width="32" version="1"><defs><linearGradient id="a"><stop offset="0" stop-color="#ffa001"/><stop offset="1" stop-color="#ff7f01" stop-opacity="0"/></linearGradient><linearGradient id="b"><stop offset="0" stop-color="#f8b249"/><stop offset="1" stop-color="#f8b249" stop-opacity="0"/></linearGradient><linearGradient xlink:href="#a" id="c" x1="18.034" y1="-8.271" x2="17.635" y2="6.681" gradientUnits="userSpaceOnUse" gradientTransform="translate(-1.492 11.458)"/><linearGradient xlink:href="#b" id="d" x1="14.17" y1="35.254" x2="14.448" y2="26.194" gradientUnits="userSpaceOnUse" gradientTransform="translate(-.384 -5.398)"/></defs><g transform="translate(48.25 12.75)"><rect ry="5.575" y="-10.852" x="-46.343" height="28.203" width="28.203" fill="#443919" fill-rule="evenodd"/><g transform="translate(-48.241 -12.75)"><rect width="28.203" height="28.203" x="1.898" y="1.898" ry="5.575" fill="#ffdb60" fill-rule="evenodd"/><rect width="28.203" height="28.203" x="1.898" y="1.898" ry="5.575" fill="url(#c)" fill-rule="evenodd"/><path d="M17.349 8.538a3.548 3.476 0 0 0-3.547 3.475 3.548 3.476 0 0 0 .94 2.351 2.78 2.996 0 0 0-.51 1.725 2.78 2.996 0 0 0 2.781 2.996 2.78 2.996 0 0 0 2.027-.951 1.366 1.606 0 0 0 .633.183 1.366 1.606 0 0 0 1.348-1.353 3.38 3.38 0 0 0 1.385.299 3.38 3.38 0 0 0 3.38-3.38 3.38 3.38 0 0 0-3.38-3.38 3.38 3.38 0 0 0-1.682.455 3.548 3.476 0 0 0-3.375-2.42z" fill="#716300"/><path d="M21.32 19.828c-.023-.108-.203-.707-.203-.707-.469-.908-1.12-1.554-1.81-2.145-2.533.39-2.763 1.039-3.164 1.162l-.216-.084c.615-.702 1.526-.86 2.325-1.222l-1.534-.575.048-.228 2.205.707c-.082-.344-.508-.687-.898-1.03l.203-.192c.339.33.697.724 1.007.97.567.745 1.135.992 1.702 1.486l.036-1.006c-1.15-1.114-2.137-1.574-3.032-1.666l-.084-.228c.78.196 1.437.195 2.577.959a4.86 4.86 0 0 1-.803-1.63l.227-.048c.262 1.04.673 1.395 1.019 1.93.015-1.702.318-2.651.647-3.536l.264.24c-1.122 2.455-.24 4.995.42 6.34z" fill="#4d3a02"/><path d="M21.136 30.084l3.632-7.457-6.677-1.185-6.746-1.051.068-.238-3.136-.017 5.474 1.27-5.254.544-.373 1.086 4.238 1.05-9.424 2.237 1.824 2.353c.116.007 2.157 1.384 2.275 1.384z" fill="#fffba0" fill-rule="evenodd"/><path d="M21.136 30.084l3.632-7.457-6.677-1.185-6.746-1.051.068-.238-3.136-.017 5.474 1.27-5.254.544-.373 1.086 4.238 1.05-9.424 2.237 1.824 2.353c.116.007 2.133 1.406 2.252 1.408 3.53.04 9.414 0 14.122 0z" fill="url(#d)" fill-rule="evenodd"/><path d="M8.554 20.38l12.687.218-.031-1-3.563-.172-.53-.453-.532.438-.906-.156-1.063.593-2.047-.797-.437.22-.297.25-1.11.062z" fill="#feb202"/><path d="M9.06 22.825l1.043.334s-.617-.492-.644-.656c-.027-.163.01-.37.263-.545.506-.351 4.845-.211 4.809-.37-.036-.16-6.012-1.372-7.413-1.863-.253-.191-1.805-.456-2.853-.568-.517-.189-1.762-.592-2.376-.562v3.635c1.217-.014 2.335-.047 4.096.035 1.025.124 2.05.383 3.074.56z" fill="#dcba44" fill-rule="evenodd"/><path d="M2.938 26.323c3.627-.852 6.2-1.294 9.928-2.095-.11-.215-.338-.558-1.246-.75-1.952-.62-3.683-.945-5.635-1.213-1.667-.088-2.945-.05-4.096-.035.012 1.18-.073 2.659.109 3.321z" fill="#c2a525" fill-rule="evenodd"/><path d="M7.129 30.092l.447-.469c.25-.208.339-.406.334-.6-.005-.193-.104-.382-.234-.568a56.87 56.87 0 0 0-5.239-2.717c-.166-.076-.274-.115-.44-.187.45 2.497 2.496 4.46 5.132 4.54z" fill="#3f3303" fill-rule="evenodd"/><path d="M16.207 21.457c1.646.52 3.356.84 5.225.66l1.654-1.99c-3.559-.076-5.65.45-6.88 1.33z" fill="#dcba44"/><path d="M30.101 18.86l-.39.16c-.399-.238-.762-.085-1.282-.02-.39-.205-1.691-.52-2.652-.694-.635-.46-1.512-.442-2.354-.49-.773.37-2.12.995-2.33 1.365l-.955.948c-.256.478-.244.614.053 1.117-.257.178-.655.51-.967.87-.312.362-.537.753-.453 1.054l.44.394c-1.097.907-1.623 1.693-2.338 2.945 0 0-.192.2-.096.442.06.15.497.533.623.703.184.25.072.285.178.45l1.4 1.991h5.547a5.563 5.563 0 0 0 5.576-5.574z" fill="#443919" fill-rule="evenodd"/><path d="M26.183 29.81c-1.558-.758-4.683-2.704-4.457-2.568.254.152 1.152 2.762 1.152 2.762s-2.677-3.017-3.253-3.559c-.577-.542-.152-.407-1.034-.525-.44-.06-.581.063-.66.257-.078.195-.094.463-.289.692-.195.229-.195.228-.32.185-.019-.006-.135-.002-.16-.01.134.18.422.454.529.598.184.25.072.285.178.45l1.308 1.863.13.129h5.509c.486 0 .919-.158 1.367-.274zM19.093 23.586l.057.074s.623-.587 1.139-.791c.515-.204 1.199.035 1.199.035s.094-.156 1.22-.084c1.127.072 3.97 1.066 3.97 1.066s-1.476-1.233-2.747-1.808a4.305 4.305 0 0 0-1.65-.385c-.429-.012-.697.049-.697.049l-2.553.723c-.093.188-.28.392-.236.548l.439.395c-.066.055-.079.124-.14.178z" fill="#2c1c0d" fill-rule="evenodd"/><path d="M13.225 29.85c.397.12.794.247 1.23.247h8.261l-4.872-2.336c-.963.082-1.926-.066-2.89.31-.993.453-1.23.79-1.732 1.168-.173.28-.095.45.003.611z" fill="#443919"/><path d="M19.095 1.9a4.437 4.347 28.583 0 0-.05.046 4.437 4.347 28.583 0 0-.288.326 4.437 4.347 28.583 0 0-.254.352 4.437 4.347 28.583 0 0-.156.263 4.437 4.347 28.583 0 0-.187.393 4.437 4.347 28.583 0 0-.147.408 4.437 4.347 28.583 0 0-.105.422 4.437 4.347 28.583 0 0-.061.432 4.437 4.347 28.583 0 0-.018.435 4.437 4.347 28.583 0 0 .028.438 4.437 4.347 28.583 0 0 .07.431 4.437 4.347 28.583 0 0 .043.186 3.477 3.747 28.583 0 0-.314.19 3.477 3.747 28.583 0 0-.297.218 3.477 3.747 28.583 0 0-.276.248 3.477 3.747 28.583 0 0-.254.274 3.477 3.747 28.583 0 0-.226.297 3.477 3.747 28.583 0 0-.2.318 3.477 3.747 28.583 0 0-.025.045 3.477 3.747 28.583 0 0-.162.338 3.477 3.747 28.583 0 0-.133.35 3.477 3.747 28.583 0 0-.097.359 3.477 3.747 28.583 0 0-.063.365 3.477 3.747 28.583 0 0-.03.369 3.477 3.747 28.583 0 0 .009.367 3.477 3.747 28.583 0 0 .04.364 3.477 3.747 28.583 0 0 .079.353 3.477 3.747 28.583 0 0 .111.342 3.477 3.747 28.583 0 0 .143.326 3.477 3.747 28.583 0 0 .176.309 3.477 3.747 28.583 0 0 .207.285 3.477 3.747 28.583 0 0 .232.261 3.477 3.747 28.583 0 0 .258.235 3.477 3.747 28.583 0 0 .283.205 3.477 3.747 28.583 0 0 .209.125 3.477 3.747 28.583 0 0 .314.148 3.477 3.747 28.583 0 0 .33.116 3.477 3.747 28.583 0 0 .34.08 3.477 3.747 28.583 0 0 .348.043 3.477 3.747 28.583 0 0 .354.006 3.477 3.747 28.583 0 0 .353-.032 3.477 3.747 28.583 0 0 .352-.068 3.477 3.747 28.583 0 0 .345-.102 3.477 3.747 28.583 0 0 .06-.023 1.709 2.008 28.583 0 0 .097.148 1.709 2.008 28.583 0 0 .11.135 1.709 2.008 28.583 0 0 .124.121 1.709 2.008 28.583 0 0 .135.106 1.709 2.008 28.583 0 0 .119.072 1.709 2.008 28.583 0 0 .156.072 1.709 2.008 28.583 0 0 .162.055 1.709 2.008 28.583 0 0 .17.035 1.709 2.008 28.583 0 0 .174.016 1.709 2.008 28.583 0 0 .176-.002 1.709 2.008 28.583 0 0 .177-.024 1.709 2.008 28.583 0 0 .178-.04 1.709 2.008 28.583 0 0 .176-.061 1.709 2.008 28.583 0 0 .172-.08 1.709 2.008 28.583 0 0 .164-.096 1.709 2.008 28.583 0 0 .158-.111 1.709 2.008 28.583 0 0 .149-.13 1.709 2.008 28.583 0 0 .138-.14 1.709 2.008 28.583 0 0 .127-.154 1.709 2.008 28.583 0 0 .014-.022 4.227 4.227 0 0 0 .271.325 4.227 4.227 0 0 0 .303.294 4.227 4.227 0 0 0 .33.264 4.227 4.227 0 0 0 .356.229 4.227 4.227 0 0 0 .082.046 4.227 4.227 0 0 0 .38.184 4.227 4.227 0 0 0 .399.145 4.227 4.227 0 0 0 .408.103 4.227 4.227 0 0 0 .418.063 4.227 4.227 0 0 0 .422.021 4.227 4.227 0 0 0 .422-.021 4.227 4.227 0 0 0 .418-.065 4.227 4.227 0 0 0 .41-.103 4.227 4.227 0 0 0 .396-.147 4.227 4.227 0 0 0 .381-.183 4.227 4.227 0 0 0 .36-.221 4.227 4.227 0 0 0 .336-.256 4.227 4.227 0 0 0 .308-.289 4.227 4.227 0 0 0 .28-.318 4.227 4.227 0 0 0 .11-.157V7.475A5.565 5.565 0 0 0 24.528 1.9z" fill="#514b01" fill-rule="evenodd"/><path d="M24.588 19.07c-.808 1.261-.343-1.5-.343-1.5.344-1.039-1.014-4.122-1.103-4.386-2.303-.721-1.085-.624-1.475-.685l-.147-.16c.626.074 1.184.406 1.792.304.073-.324-.145-.792-.332-1.244l.252-.078c.148.42.288.902.448 1.239.915 2.044.751 1.496 1.025 2.15-.091-1.86.21-2.935 1.047-4.339l1.162-.097c-2.154 1.545-1.72 7.212-1.327 8.759z" fill="#4d3a02"/></g></g></svg>