<svg xmlns="http://www.w3.org/2000/svg" height="32" width="32" version="1"><rect width="28.203" height="28.203" x="1.898" y="1.898" ry="5.575" fill="#5f7c8a" fill-rule="evenodd"/><path d="M16 6.183c-.995.982-1.947 2.1-2.953 3.076H9.259v3.788C8.282 14.053 7.165 15.005 6.183 16c.982.995 2.1 1.985 3.076 2.994v3.747h3.788c1.006.977 1.958 2.094 2.953 3.076.995-.982 1.985-2.1 2.994-3.076h3.747v-3.748c.977-1.01 2.094-1.998 3.076-2.993-.982-.995-2.1-1.947-3.076-2.953V9.259h-3.747c-1.01-.977-1.999-2.094-2.994-3.076zm0 5.772a4.045 4.045 0 0 0 0 8.09z" fill="#fff"/><path d="M16 10.312a5.393 5.393 0 0 0-5.393 5.393A5.393 5.393 0 0 0 16 21.098z" fill="#5f7c8a"/></svg>