<svg xmlns="http://www.w3.org/2000/svg" height="32" width="32" version="1"><g transform="translate(50.034 -3.254)"><rect ry="5.575" y="5.153" x="-48.136" height="28.203" width="28.203" fill="#5f7c8a" fill-rule="evenodd"/><path d="M-27.037 28.714a2.492 2.492 0 0 0 1.842-2.427c.004-1.317-.947-2.39-2.246-2.537l-.252-.028-1.997-1.995-1.996-1.995-.08.085a.356.356 0 0 0-.081.111c0 .014.058.102.13.195.188.247.256.516.23.914-.034.533-.185.767-.98 1.526l-.146.14-.235-.06c-.32-.082-.632-.03-.848.143-.038.03.347.437 1.694 1.787l1.743 1.747.026.275c.058.64.423 1.281.96 1.687.318.24.584.367.934.446l.334.077c.146.034.716-.02.968-.091zm-.987-1.445a1.115 1.115 0 0 1-.558-1.777c.216-.273.487-.397.874-.397.24 0 .33.017.471.09.225.114.408.305.533.554.087.175.097.233.085.483-.01.208-.039.332-.106.465a1.25 1.25 0 0 1-.615.552c-.186.067-.517.081-.684.03zm-8.93-7.925c.117-.25.13-.518.042-.894-.025-.105-.002-.136.394-.52.467-.453.734-.614 1.136-.685.37-.066.79.041 1.104.28.127.097.133.098.204.034.04-.037.074-.085.073-.107 0-.023-.305-.344-.677-.715-.372-.37-.766-.764-.874-.875l-.196-.201.043-.183c.216-.925.192-1.485-.104-2.445-.055-.176-.316-.657-.495-.91-.573-.81-1.474-1.405-2.41-1.593-.468-.093-.854-.12-1.18-.079-.404.05-.862.145-.862.179 0 .014.485.51 1.079 1.102.593.592 1.093 1.102 1.111 1.135.02.036.016.092-.013.148-.025.05-.084.182-.132.294-.047.112-.109.254-.136.316-.028.06-.141.326-.25.588l-.2.477-.646.276c-.356.152-.73.315-.832.362-.102.048-.22.097-.26.11-.061.02-.278-.18-1.188-1.09a45.656 45.656 0 0 0-1.133-1.113c-.027 0-.099.264-.152.557-.055.307-.053 1.039.004 1.322.24 1.194.85 2.088 1.867 2.736.117.075.221.136.23.136.01 0 .105.041.213.091a4.16 4.16 0 0 0 1.653.355c.273 0 .855-.085 1.142-.167.059-.017.2.106.686.592.337.338.631.614.655.614.023 0 .07-.057.103-.127z" fill="#fff"/><path d="M-39.773 28.977c.19-.088.35-.243 4.054-3.916l1.159-1.149-.022-.28c-.046-.61.276-1.147.86-1.434.202-.1.26-.11.605-.112l.381-.002.274-.272c.366-.363.448-.527.447-.89-.001-.343-.055-.458-.358-.754-.119-.117-.217-.225-.217-.241 0-.016 1.166-1.192 2.59-2.614l2.589-2.586.408-.212c1.18-.613 1.21-.631 1.294-.794.07-.136.282-.521.359-.653.035-.061.145-.262.243-.446.098-.183.246-.45.329-.594.083-.143.175-.306.205-.363l.053-.104-.643-.644-.643-.644-.209.12a24.21 24.21 0 0 1-.46.258l-.39.215a26.56 26.56 0 0 1-.379.21c-.133.072-.364.203-.514.291a2.53 2.53 0 0 1-.297.16c-.03 0-.063.052-.264.427-.088.164-.189.347-.224.409-.035.06-.152.278-.258.482l-.195.371-2.567 2.571a236.845 236.845 0 0 1-2.586 2.57 2.76 2.76 0 0 1-.26-.229c-.293-.276-.47-.363-.742-.362-.321 0-.55.118-.895.461l-.298.297.024.208a1.47 1.47 0 0 1-.366 1.135c-.28.318-.63.463-1.122.463-.326 0-.34.003-.468.118-.073.065-1.206 1.18-2.519 2.476-2.188 2.162-2.394 2.376-2.491 2.588-.127.276-.138.525-.036.759.1.226 2.6 2.71 2.788 2.77.2.063.55.033.761-.064z" fill="#ccc"/></g></svg>