<svg xmlns="http://www.w3.org/2000/svg" height="32" width="32" version="1"><g transform="translate(38.148 13.147)"><rect ry="5.575" y="-11.249" x="-36.25" height="28.203" width="28.203" fill="#81d35f" fill-rule="evenodd"/><path d="M-16.789 2.398c-.418-.012-.469-.025-.54-.137a3.057 3.057 0 0 1-.099-.462c-.072-.437-.116-.568-.216-.64a7.645 7.645 0 0 0-.882-.383c-.117-.022-.204.018-.592.269-.515.332-.517.332-.839 0-.13-.135-.362-.38-.517-.543-.28-.298-.28-.298-.28-.404 0-.1.013-.126.26-.476.361-.514.355-.467.143-1.019-.172-.447-.23-.544-.358-.595a6.828 6.828 0 0 0-.467-.111 4.905 4.905 0 0 1-.452-.11.3.3 0 0 1-.085-.092c-.037-.062-.042-.11-.04-.45.002-.21.008-.544.017-.744l.014-.364.068-.069c.066-.065.09-.072.527-.15.533-.093.598-.123.686-.314.152-.332.303-.69.32-.757.03-.131-.008-.221-.256-.605a4.933 4.933 0 0 1-.253-.418c-.046-.13-.002-.194.443-.623.627-.604.632-.608.755-.608.098 0 .126.015.472.261.368.262.485.319.6.296.034-.007.24-.082.458-.167.408-.158.51-.221.558-.344.013-.032.062-.242.11-.467.047-.225.101-.433.12-.461a.32.32 0 0 1 .104-.088c.062-.033.14-.035.776-.02.514.01.72.023.761.044.117.06.131.097.219.588.109.612.077.57.61.804.22.097.434.183.474.191.122.025.22-.019.592-.26a3.76 3.76 0 0 1 .422-.25c.134-.037.193.003.563.388.699.727.665.686.665.806 0 .1-.014.125-.262.474-.265.373-.318.482-.294.606.007.038.081.244.166.459.157.4.22.502.344.551.03.012.242.062.469.11.226.049.434.103.461.12a.317.317 0 0 1 .086.103c.032.062.034.142.02.777-.017.776-.02.797-.154.873a3.06 3.06 0 0 1-.478.106c-.428.072-.518.1-.594.181-.053.056-.387.809-.407.917-.021.113.021.207.274.597.13.199.238.386.24.415.013.144 0 .177-.138.308-.65.629-.916.878-.947.89a.475.475 0 0 1-.125.017c-.079.001-.126-.026-.444-.252-.405-.288-.473-.322-.597-.305-.096.014-.82.292-.906.348-.096.063-.143.189-.234.618-.049.23-.105.444-.125.474-.082.126-.133.13-1.215.097z" fill="#53904c"/><path d="M-23.576 14.071c-.115-.053-.144-.088-.381-.459-.52-.813-.503-.791-.685-.888l-.108-.057-.692-.007c-.765-.008-.822 0-.977.128-.045.036-.252.319-.46.627-.367.54-.384.562-.488.607-.194.084-.076.123-1.704-.576a9.146 9.146 0 0 1-.527-.238.482.482 0 0 1-.112-.155c-.07-.142-.077-.084.112-.95.136-.623.138-.672.036-.86-.084-.156-.954-1.033-1.075-1.085-.179-.076-.213-.074-.926.063-.405.077-.704.125-.739.116a.47.47 0 0 1-.257-.166 20.2 20.2 0 0 1-.43-1.026c-.355-.882-.384-.965-.376-1.067.016-.2.051-.234.67-.63.31-.2.59-.393.622-.43a.892.892 0 0 0 .103-.167c.043-.093.045-.133.045-.826 0-.703-.002-.731-.046-.815-.072-.135-.155-.203-.69-.564-.274-.185-.52-.358-.549-.384a.436.436 0 0 1-.112-.318c.013-.091.783-1.91.853-2.013a.47.47 0 0 1 .142-.118c.13-.07.2-.062.889.09.313.07.604.122.673.122.224 0 .303-.056.83-.579.52-.513.568-.582.568-.798 0-.062-.055-.393-.122-.737-.11-.57-.119-.633-.095-.726.05-.2.078-.216 1.15-.644 1.053-.42 1.088-.43 1.262-.34.074.037.13.108.354.45.146.224.314.484.373.578.116.185.184.248.344.319.097.043.143.045.814.05l.71.003.11-.058a.751.751 0 0 0 .165-.12c.03-.033.22-.303.42-.598.328-.486.372-.541.46-.584.174-.084.225-.069 1.268.378.519.223.968.427.997.454a.492.492 0 0 1 .134.289c0 .036-.058.337-.13.67-.073.341-.13.66-.13.729 0 .215.052.287.59.832.428.435.499.497.593.528a.779.779 0 0 0 .197.034c.049 0 .365-.053.703-.12.338-.065.64-.119.673-.118a.47.47 0 0 1 .29.146c.032.037.223.483.443 1.03.43 1.07.434 1.088.328 1.268-.048.081-.127.14-.582.428-.29.184-.572.378-.627.433-.158.155-.169.208-.186.955-.017.71-.006.8.116.966.04.056.249.211.625.466.505.343.57.394.614.48.093.184.089.199-.364 1.26-.452 1.06-.461 1.076-.662 1.132-.09.026-.141.018-.758-.116-.364-.08-.684-.144-.713-.144-.127 0-.355.1-.435.189-.02.021-.227.23-.462.462-.368.365-.433.439-.47.539a.713.713 0 0 0-.043.201c0 .047.054.368.121.712.076.393.117.656.11.708a.428.428 0 0 1-.204.294c-.045.023-.5.21-1.01.414-.637.255-.956.372-1.012.372a.491.491 0 0 1-.168-.04z" fill="#fff"/><circle r="3.787" cy="6.133" cx="-25.387" fill="#81d35f"/><circle r="2.445" cy="-2.995" cx="-16.342" fill="#81d35f"/></g></svg>