<svg xmlns="http://www.w3.org/2000/svg" height="32" width="32" version="1"><rect width="28.203" height="28.203" x="1.898" y="1.898" ry="5.575" fill="#68ba32" fill-rule="evenodd"/><path d="M16 30.102V1.898H7.473a5.561 5.561 0 0 0-5.575 5.575v17.054a5.561 5.561 0 0 0 5.575 5.575H16z" fill="#70c836" fill-rule="evenodd"/><path d="M16 7.58c-2.639 0-4.678 2.146-4.678 4.812v1.737h-1.037c-.462 0-.834.442-.834.908v8.54c0 .467.372.843.834.843h11.43a.837.837 0 0 0 .834-.842v-8.54c0-.466-.374-.939-.834-.909h-1.037v-1.737c0-2.666-2.04-4.811-4.678-4.811zm0 1.871c1.65 0 2.807 1.275 2.807 2.94v1.738h-5.614v-1.737c0-1.667 1.158-2.94 2.807-2.94z" fill="#fff"/><text y="18.364" x="10.672" style="line-height:1.25" font-weight="400" font-size="5.131" font-family="sans-serif" letter-spacing="0" word-spacing="0" fill="#68ba32" transform="translate(.068 2.78)"><tspan style="-inkscape-font-specification:'sans-serif Bold'" y="18.364" x="10.672" font-weight="700">SSL</tspan></text></svg>