<svg xmlns="http://www.w3.org/2000/svg" height="32" width="32"><path d="M29.936 25.357H2.066c.414 2.675 2.615 4.745 5.409 4.745h17.052c2.794 0 4.995-2.07 5.409-4.745z" fill="#29809c" fill-rule="evenodd"/><path d="M7.475 1.898a5.565 5.565 0 0 0-5.577 5.577v17.052c0 .295.125.548.168.83h27.87c.043-.282.166-.535.166-.83V7.475a5.563 5.563 0 0 0-5.575-5.577z" fill="#6ab8d7" fill-rule="evenodd"/><path d="M13.5 16.008v5.334c0 .37.334.666.75.666h10.5c.416 0 .75-.297.75-.666v-5.334z" fill="#fff"/><path d="M14.25 14.008h10.5c.416 0 .75.297.75.667v1.333h-12v-1.333c0-.37.335-.666.75-.666z" fill="#4f4f4f"/><rect rx=".375" ry=".375" height="3" width="3" y="7.008" x="6.5" fill="#fff"/><rect rx=".375" ry=".375" height="3" width="3" y="11.008" x="6.5" fill="#fff"/><rect rx=".375" ry=".375" height="3" width="3" y="15.008" x="6.5" fill="#fff"/><rect rx=".375" ry=".375" height="3" width="3" y="19.008" x="6.5" fill="#fff"/></svg>