<svg xmlns="http://www.w3.org/2000/svg" height="32" width="32" version="1"><rect width="28.203" height="28.203" x="1.898" y="1.898" ry="5.575" fill="#999" fill-rule="evenodd"/><rect transform="rotate(-90)" rx=".37" ry=".361" y="5.223" x="-23.994" height="7.164" width="10.781" fill="#666"/><rect rx=".629" ry=".656" y="7.996" x="8.127" height="13.007" width="18.307" fill="#666"/><path d="M5.381 24.367a.893.893 0 0 1-.258-.222l-.115-.151-.012-5.29c-.01-5.205-.01-5.29.075-5.456a.88.88 0 0 1 .226-.268l.141-.101h3.344c3.326 0 3.345 0 3.466.09.067.05.166.154.219.232l.097.143v10.588l-.094.168a.634.634 0 0 1-.272.253c-.173.084-.265.086-3.426.085-2.919 0-3.262-.008-3.39-.071zm3.527-.444c.021 0 .078-.04.125-.086.203-.204.032-.603-.258-.603-.268 0-.447.356-.285.57.067.088.241.163.32.137a.39.39 0 0 1 .098-.018zm3.051-.945c.03-.056.045-1.48.045-4.317 0-3.763-.008-4.245-.067-4.33l-.067-.096H8.813c-2.026 0-3.086.015-3.141.045-.081.043-.083.137-.083 4.361 0 3.3.012 4.33.051 4.369.04.04.8.052 3.163.052 3.033 0 3.113-.003 3.156-.084zm-2.363-9.175c.046-.024.083-.072.083-.106 0-.123-.17-.15-.92-.15-.627 0-.764.01-.82.067a.324.324 0 0 0-.068.083c0 .009.03.046.067.083.057.056.194.068.821.068.437 0 .788-.019.837-.045zm3.984 10.482c-.05-.133-.029-.83.028-.866.03-.019.5-.044 1.044-.056l.99-.022.022-.394c.011-.218.037-.411.057-.431.02-.02.805-.041 1.744-.048 1.438-.01 1.722-.002 1.794.05.071.052.09.128.107.443l.022.38 1.304.022c1.096.018 1.31.032 1.345.086.06.096.052.79-.01.853-.04.039-1.039.051-4.236.051-3.776 0-4.187-.007-4.21-.068zm-1.209-2.726c-.202-.124-.231-.271-.231-1.156 0-.906.036-1.053.286-1.157.118-.05 2.575-.06 7.67-.06h6.116V13.87c0-5.26 0-5.318-.086-5.403-.086-.086-.144-.086-8.755-.086H8.702l-.082.09c-.077.086-.083.185-.091 1.647-.006.856-.01 2.8-.011 2.854-.001.096.123.587-.378.086l-.377-.013-.013-2.899c-.008-1.073.004-1.757.032-1.853.064-.223.332-.512.581-.628l.218-.101h8.765c9.759-.001 9-.025 9.329.295.09.088.203.236.25.33.082.167.084.297.084 6.413v6.243l-.093.173c-.118.22-.29.392-.51.51l-.172.092-6.157.011c-5.997.01-7.575.01-7.706-.071zm5.255-.947c.41-.25.224-.866-.262-.866-.36 0-.573.374-.404.713.11.22.433.295.666.153z" fill="#fff"/></svg>