<svg xmlns="http://www.w3.org/2000/svg" height="32" width="32" version="1"><path d="M19.818 18.576v11.526h4.71a5.561 5.561 0 0 0 5.574-5.575v-5.95z" fill="gray" fill-rule="evenodd"/><path d="M13.695 12.355H1.898v12.172a5.563 5.563 0 0 0 5.577 5.575h12.343V18.576h-6.123z" fill="#ccc" fill-rule="evenodd"/><path d="M7.475 1.898a5.565 5.565 0 0 0-5.577 5.577v4.88h11.797V1.898z" fill="gray" fill-rule="evenodd"/><text y="26.179" x="-30.849" style="line-height:1.25" font-weight="400" font-size="10.338" font-family="sans-serif" letter-spacing="0" word-spacing="0" fill="#a3a3a3" stroke-width=".258" transform="translate(37.26 -.404)"><tspan y="26.179" x="-30.849">Я</tspan></text><path d="M13.695 1.898v16.678h16.407V7.475a5.563 5.563 0 0 0-5.575-5.577z" fill="#2095f2" fill-rule="evenodd"/><path d="M20.453 11.511l.25-.937c.28-1.016.546-2.203.796-3.281h.063c.265 1.062.547 2.265.828 3.28l.234.938h-2.171m3.266 4.218h2.437L22.969 5.543h-2.765l-3.188 10.186h2.344l.625-2.421h3.109l.625 2.421" fill="#fff"/></svg>