<svg xmlns="http://www.w3.org/2000/svg" height="32" width="32"><rect width="28.203" height="28.203" x="1.898" y="1.898" ry="5.575" fill="#fcc733" fill-rule="evenodd"/><path d="M17.628 22.073c3.89-1.414 7.095-2.59 7.12-2.613.058-.054-.293-.997-.506-1.36-.348-.594-.682-.863-1.355-1.092-.65-.22-1.148-.586-1.5-1.098-.19-.274-.657-1.356-1.209-2.792-.7-1.822-1.195-2.624-2.062-3.337-.95-.78-1.827-1.09-3.268-1.15l-.864-.036-.202-.412c-.244-.499-.305-.574-.585-.716-.742-.379-1.698.277-1.577 1.082.02.139.077.345.124.46.126.3.066.433-.339.757-1.464 1.173-2.138 2.64-2.041 4.437.047.858.095 1.053.782 3.113.683 2.048.718 2.198.688 2.896-.025.573-.076.715-.58 1.634-.18.326-.189.372-.189.95 0 .56.018.658.223 1.228.122.34.232.62.244.62.012 0 3.206-1.157 7.096-2.571zm.738 2.308c.62-.17 1.257-.715 1.58-1.351.189-.37.304-.75.228-.75-.078 0-4.224 1.508-4.278 1.556-.06.055.442.376.77.491.544.192 1.13.211 1.7.054z" fill="#fff"/></svg>