<svg xmlns="http://www.w3.org/2000/svg" height="32" width="32" version="1"><g transform="translate(33.45 4.422)"><rect ry="5.575" y="-2.524" x="-31.552" height="28.203" width="28.203" fill="#8e8e8e" fill-rule="evenodd"/><g transform="translate(-1.141 -4.42) scale(.91814)" stroke-width="1.089"><path d="M-25.283 8.785a3.56 3.56 0 0 0-3.569 3.569v9.462a3.56 3.56 0 0 0 3.569 3.569h1.926a2.461 2.461 0 0 0 2.441 2.14h6.307a2.46 2.46 0 0 0 2.441-2.14h1.926a3.56 3.56 0 0 0 3.568-3.569v-9.462a3.56 3.56 0 0 0-3.568-3.569z" fill="#474747"/><rect width="20.183" height="14.5" x="-27.854" y="9.835" ry="2.594" rx="2.703" fill="#232323"/></g></g><path d="M17.788 12.23c-.742 0-1.342.601-1.342 1.342 0 .104.02.197.041.294l-1.44.895a1.342 1.342 0 1 0 .002 2.096l1.44.894a1.098 1.098 0 0 0-.044.296 1.342 1.342 0 1 0 .503-1.049l-1.44-.895c.022-.096.042-.19.042-.293 0-.104-.02-.197-.042-.294l1.44-.895c.233.184.524.291.841.291a1.342 1.342 0 0 0 0-2.685z" opacity=".8" fill="#8e8e8e"/></svg>