<svg xmlns="http://www.w3.org/2000/svg" height="32" width="32" version="1"><g transform="translate(69.695 2.305)"><path d="M-41.223 1.223a5.556 5.556 0 0 0-3.945-1.63h-17.053a5.563 5.563 0 0 0-5.576 5.575v17.053a5.565 5.565 0 0 0 5.576 5.576h8.526V13.695z" fill="#ebebeb" fill-rule="evenodd"/><path d="M-41.223 1.223l-12.472 12.472v14.102h8.527a5.563 5.563 0 0 0 5.574-5.576V5.168a5.556 5.556 0 0 0-1.629-3.945z" fill="#c4c4c4" fill-rule="evenodd"/><path d="M-53.694 2.697c-3.047 0-5.79 1.234-7.777 3.222a10.942 10.942 0 0 0-3.225 7.776c0 6.094 4.906 11 11 11v-11l7.778-7.777a10.942 10.942 0 0 0-7.776-3.225z" fill="#ebebeb"/><path d="M-46.132 5.64l-8.058 7.562.989.989 7.563-8.059-.494-.493z" fill="#5e5e5e"/><path d="M-53.694 13.697v11" fill="none" stroke="#f34235" stroke-width=".688"/><path d="M-58.943 7.946l-.494.494 5.249 5.75.988-.988z" fill="#3f3f3f"/><circle cy="13.697" cx="-53.694" r=".688" fill="#3f3f3f"/></g></svg>