<svg xmlns="http://www.w3.org/2000/svg" height="32" width="32" version="1"><rect width="28.203" height="28.203" x="1.898" y="1.898" ry="5.575" fill="#5db43e" fill-rule="evenodd"/><path d="M24 8s-2.4-.067-4.798 1.133a7.736 7.736 0 0 0-2.199 1.533c-1.077 1.077-2.75 3.06-4.069 4.664h-2.927l-1.332 1.999 2.26.61c.007.081.028.195.09.35l-.35.771s-.134.267.866 1.333c1.066 1.067 1.399.933 1.399.933l.828-.376a.975.975 0 0 0 .276.052l.628 2.322 1.999-1.332v-3.016c1.614-1.306 3.595-2.946 4.664-3.98.666-.666 1.2-1.466 1.598-2.199C24.065 10.4 24 8.001 24 8.001zm-4.665 5.997c-.733 0-1.332-.6-1.332-1.332 0-.734.599-1.333 1.332-1.333.733 0 1.333.6 1.333 1.333s-.6 1.332-1.333 1.332zm-6.996 7.996c.134.067.2.133.334.2-.134.133-.267.333-.4.466-1.534 1.532-4.264 1.332-4.264 1.332s-.2-2.732 1.332-4.263c.133-.134.333-.266.467-.4.066.133.132.2.2.333-1 1.265-.867 3.198-.867 3.198s1.932.133 3.198-.866z" fill="#fff"/></svg>