<svg xmlns="http://www.w3.org/2000/svg" height="32" width="32" version="1"><g fill-rule="evenodd"><path d="M27.225 2.688a14.034 13.972 0 0 1-.35.817 14.034 13.972 0 0 1-.676 1.224 14.034 13.972 0 0 1-.795 1.149 14.034 13.972 0 0 1-.908 1.066 14.034 13.972 0 0 1-1.01.971 14.034 13.972 0 0 1-1.1.863 14.034 13.972 0 0 1-1.183.752 14.034 13.972 0 0 1-1.252.63 14.034 13.972 0 0 1-1.308.501 14.034 13.972 0 0 1-1.354.371 14.034 13.972 0 0 1-.943.174 14.034 13.972 0 0 1 .158 1.387 14.034 13.972 0 0 1 .03.832 14.034 13.972 0 0 1-.073 1.394 14.034 13.972 0 0 1-.209 1.381 14.034 13.972 0 0 1-.348 1.354 14.034 13.972 0 0 1-.482 1.312 14.034 13.972 0 0 1-.61 1.258 14.034 13.972 0 0 1-.734 1.19 14.034 13.972 0 0 1-.85 1.11 14.034 13.972 0 0 1-.957 1.022 14.034 13.972 0 0 1-1.054.922 14.034 13.972 0 0 1-1.14.81 14.034 13.972 0 0 1-1.218.696 14.034 13.972 0 0 1-1.28.57 14.034 13.972 0 0 1-1.333.44 14.034 13.972 0 0 1-1.369.304 14.034 13.972 0 0 1-1.393.168 14.034 13.972 0 0 1-.687.028c.978 1.598 2.66 2.719 4.678 2.719h17.052a5.563 5.563 0 0 0 5.575-5.577V7.474c0-2.089-1.187-3.83-2.877-4.786z" fill="#dfbe57"/><path d="M7.475 1.897a5.565 5.565 0 0 0-5.577 5.577v17.052c0 1.07.38 2.01.899 2.858a14.034 13.972 0 0 0 .687-.028 14.034 13.972 0 0 0 1.393-.168 14.034 13.972 0 0 0 1.37-.304 14.034 13.972 0 0 0 1.331-.44 14.034 13.972 0 0 0 1.281-.57 14.034 13.972 0 0 0 1.217-.695 14.034 13.972 0 0 0 1.14-.81 14.034 13.972 0 0 0 1.055-.923 14.034 13.972 0 0 0 .958-1.021 14.034 13.972 0 0 0 .85-1.112 14.034 13.972 0 0 0 .733-1.189 14.034 13.972 0 0 0 .61-1.258 14.034 13.972 0 0 0 .482-1.312 14.034 13.972 0 0 0 .348-1.354 14.034 13.972 0 0 0 .209-1.38 14.034 13.972 0 0 0 .072-1.395 14.034 13.972 0 0 0-.03-.832 14.034 13.972 0 0 0-.157-1.387 14.034 13.972 0 0 0 .943-.174 14.034 13.972 0 0 0 1.354-.37 14.034 13.972 0 0 0 1.308-.503 14.034 13.972 0 0 0 1.252-.629 14.034 13.972 0 0 0 1.184-.752 14.034 13.972 0 0 0 1.1-.863 14.034 13.972 0 0 0 1.01-.97 14.034 13.972 0 0 0 .907-1.067 14.034 13.972 0 0 0 .795-1.149 14.034 13.972 0 0 0 .676-1.224 14.034 13.972 0 0 0 .35-.817c-.81-.457-1.697-.79-2.698-.79z" fill="#858585"/></g></svg>