<svg xmlns="http://www.w3.org/2000/svg" width="32" height="32" version="1"><path d="M7.473 1.898a5.561 5.561 0 0 0-5.575 5.575v17.054a5.561 5.561 0 0 0 5.575 5.575h17.054a5.561 5.561 0 0 0 5.575-5.575V7.473a5.561 5.561 0 0 0-5.575-5.575H7.473z" fill="#e6e6e6" fill-rule="evenodd"/><path d="M18.49 4.814c-.13.156-.314.316-.432.472-.548.719-.987 1.43-1.345 2.134-.717 1.408-1.109 2.786-1.382 4.127l1.087.222c.263-1.288.613-2.557 1.27-3.85.33-.647.735-1.3 1.245-1.963.286-.374.693-.761 1.05-1.142z" fill="#666" fill-rule="evenodd"/><path d="M24.174 26.903l-1.32-1.658c-1.4-1.759-1.457-1.82-1.636-1.79-.623.107-1.22.108-1.608.004a2.972 2.972 0 0 1-1.35-.842c-.259-.298-.57-.897-.63-1.213l-.037-.201H14.35l-.136.416c-.21.642-.57 1.136-1.05 1.463-.48.327-1.078.486-1.766.456l-.571-.025-1.565 1.81c-.823.951-1.174 1.364-1.438 1.58.449.152.91.283 1.412.283h13.528c.501 0 .962-.131 1.41-.283z" fill="#e6e6e6" fill-rule="evenodd"/><path d="M27.186 20.915l-.034-.145c-.085-.356-.448-1.898-.807-3.427-.518-2.206-.7-2.88-.883-3.272a5.158 5.158 0 0 0-.835-1.266 5.673 5.673 0 0 0-1.195-1.004c-.91-.578-2.048-.972-3.391-1.17-.793-.116-7.46-.115-8.116.002-1.035.184-1.842.407-2.524.717a5.924 5.924 0 0 0-1.772 1.238c-.537.534-.66.697-.91 1.204-.304.617-.331.715-1.427 5.187l-.478 1.957v1.828c0 1.95 1.267 3.547 3.01 4.139.264-.216.615-.629 1.438-1.58l1.565-1.81.571.025c.688.03 1.287-.13 1.767-.456.48-.327.839-.821 1.049-1.463l.136-.416H17.593l.037.201c.06.316.371.915.63 1.213.323.371.867.71 1.35.842.387.104.985.103 1.608-.004.18-.03.235.031 1.636 1.79l1.32 1.658c1.744-.592 3.012-2.19 3.012-4.139zM21.2 12.946c.303.205.402.54.266.897a.769.769 0 0 1-.466.465.765.765 0 0 1-.653-.08.765.765 0 0 1-.378-.58.772.772 0 0 1 .262-.643c.277-.254.646-.276.969-.059zm-10.751.23h1.605v1.54l.787.017.787.017.017.787.019.788h-1.61v1.605h-1.605v-1.605H8.904V14.72h1.545v-.772zm4.755 5.495h1.605v.865h-1.605v-.433zm-3.349.841c.36.061.691.287.87.656.123.254.149.511.102.747a1.202 1.202 0 0 1-.333.613 1.161 1.161 0 0 1-1.357.222 1.186 1.186 0 0 1 .718-2.238z" fill="#666" fill-rule="evenodd"/><path d="M20.073 19.53a1.17 1.17 0 0 0-.787.638c-.148.307-.16.632-.056.919.104.286.323.532.636.681.358.17.75.131 1.067-.056.317-.186.556-.52.612-.935.041-.308-.2-.86-.452-1.037a1.262 1.262 0 0 0-1.02-.21z" fill="#e6e6e6" fill-rule="evenodd"/><path d="M20.073 19.53c.33-.079.699-.015 1.02.21.253.178.493.729.452 1.037a1.278 1.278 0 0 1-.612.935c-.316.187-.709.227-1.067.056a1.216 1.216 0 0 1-.636-.681 1.174 1.174 0 0 1 .056-.92c.165-.34.457-.56.787-.638zM11.855 19.512c-.359-.06-.746.042-1.036.332a1.186 1.186 0 0 0 .318 1.906 1.161 1.161 0 0 0 1.357-.222c.166-.165.286-.378.333-.613.047-.236.02-.493-.102-.747a1.179 1.179 0 0 0-.87-.656zM15.204 18.671v.865h1.605v-.865h-.803zM20.62 15.974a.735.735 0 0 0-.621.534.771.771 0 0 0 .24.8.79.79 0 0 0 .736.17.742.742 0 0 0 .524-.52.777.777 0 0 0-.154-.74c-.164-.183-.424-.285-.725-.244z" fill="#e6e6e6" fill-rule="evenodd"/><path d="M20.62 15.974c.301-.04.561.06.725.244.164.184.233.45.154.74a.742.742 0 0 1-.524.52.79.79 0 0 1-.736-.17.771.771 0 0 1-.24-.8.735.735 0 0 1 .621-.534zM19.51 14.463c-.325-.165-.618-.111-.892.163-.177.177-.204.246-.204.511 0 .354.153.597.458.73.258.112.325.108.628-.039a.756.756 0 0 0 .448-.677.766.766 0 0 0-.439-.688z" fill="#e6e6e6" fill-rule="evenodd"/><path d="M19.51 14.463c.294.15.44.42.438.688a.756.756 0 0 1-.448.677c-.303.147-.37.151-.628.039-.305-.133-.458-.376-.458-.73 0-.265.027-.334.204-.511.274-.274.567-.328.891-.163zM22.633 14.432c-.309-.129-.61-.06-.865.194-.177.177-.204.246-.204.511 0 .354.151.597.457.73.247.107.365.107.624-.002.304-.127.453-.421.451-.716a.769.769 0 0 0-.463-.717z" fill="#e6e6e6" fill-rule="evenodd"/><path d="M22.633 14.432c.305.128.46.423.463.717.003.295-.147.59-.45.716-.26.109-.378.11-.625.002-.306-.133-.457-.376-.457-.73 0-.265.027-.334.204-.511.255-.255.556-.323.865-.194z" fill="#ffca58" fill-rule="evenodd"/><path d="M10.449 13.176V14.719H8.904v1.606h1.545v1.605h1.605v-1.605h1.61l-.019-.788-.017-.787-.787-.017-.787-.017v-1.54h-.803z" fill="#e6e6e6" fill-rule="evenodd"/><path d="M21.2 12.946c-.323-.217-.692-.195-.969.06a.772.772 0 0 0-.262.642c.022.226.15.44.378.58.214.13.448.15.653.08a.769.769 0 0 0 .466-.465c.136-.357.037-.692-.266-.897z" fill="#ee5353" fill-rule="evenodd"/></svg>