<svg xmlns="http://www.w3.org/2000/svg" height="32" width="32" version="1"><rect width="28.203" height="28.203" x="1.898" y="1.898" ry="5.575" fill="#2279bf" fill-rule="evenodd"/><path d="M15.557 4.347A2.154 2.154 0 0 0 13.4 6.506v2.158H8.363c-.798 0-1.44.642-1.44 1.44v4.316h2.16c1.195 0 2.158.963 2.158 2.158a2.154 2.154 0 0 1-2.159 2.159H6.924v5.036c0 .797.641 1.439 1.439 1.439h5.036v-1.44c0-1.195.963-2.157 2.158-2.157 1.196 0 2.159.962 2.159 2.158v1.439h4.316c.798 0 1.44-.642 1.44-1.44v-5.035h2.158a2.154 2.154 0 0 0 2.158-2.159 2.154 2.154 0 0 0-2.158-2.158h-2.16v-4.317c0-.797-.641-1.439-1.439-1.439h-4.316V6.506a2.154 2.154 0 0 0-2.159-2.159z" fill="#fff"/></svg>