<svg xmlns="http://www.w3.org/2000/svg" height="32" width="32" version="1"><g transform="translate(41.12 -4.303)"><rect ry="5.575" y="6.201" x="-39.222" height="28.203" width="28.203" fill="#5f7c8a" fill-rule="evenodd"/><path d="M-25.61 26.341v1.236l-1.64.015c-1.749.015-1.697.01-2.058.207-.161.089-.4.297-.48.42l-.068.103-1.716.02-1.717.019-.167.114c-.484.329-.434 1.037.09 1.275.141.064.285.07 1.83.07h1.677l.057.11c.123.24.581.538.932.608.093.019 1.937.03 4.112.027l3.943-.005.209-.086c.292-.12.49-.266.644-.474l.133-.18h1.63c1.004 0 1.684-.015 1.77-.04a.747.747 0 0 0 .521-.698c-.001-.32-.234-.61-.561-.702-.082-.023-.786-.038-1.75-.038h-1.611l-.151-.191a1.503 1.503 0 0 0-.683-.477c-.17-.062-.36-.07-1.81-.082l-1.621-.013V26.34z" fill="#112938"/><path d="M-17.318 12.196c.768 0 1.385.618 1.385 1.385v11.562c0 .767-.617 1.385-1.385 1.385h-15.63a1.382 1.382 0 0 1-1.385-1.385V14.478l.001-3.327c0-.616.496-1.111 1.111-1.111h5.969c.616 0 1.12.244 1.51.72l1.183 1.44z" fill="#8fa9ff"/><g stroke-width="2.251" fill="#1d344f"><path d="M-25.79 15.499a1.634 1.634 0 1 1 0 3.268 1.634 1.634 0 0 1 0-3.268zM-25.79 19.675c3.268-.001 3.268 2.18 3.268 2.18v.544h-6.537v-.545s0-2.177 3.269-2.18zM-22.552 17.005a.888.888 0 1 1 0 1.777.888.888 0 0 1 0-1.777z"/><path d="M-22.552 19.227c1.777-.001 1.777 1.422 1.777 1.422v.355h-3.554v-.355s0-1.421 1.777-1.422z"/></g></g></svg>