<svg xmlns="http://www.w3.org/2000/svg" height="32" width="32" version="1"><rect width="28.203" height="28.203" x="1.898" y="1.898" ry="5.575" fill="#fecd38" fill-rule="evenodd"/><path d="M13.005 7a2.5 2.5 0 1 0 0 5 2.5 2.5 0 0 0 0-5zm-2 6a1 1 0 0 0-.924.615l-2.5 5c-.552 1.247 1.35 2.04 1.846.77l1.11-2.66L10.5 17v7c0 .554.446 1 1 1h.004c.554 0 1-.446 1-1l-.004-4h1l.004 4c0 .554.446 1 1 1s1-.446 1-1l-.004-7-.037-.299 1.117 2.684a1 1 0 0 0 1.43.502l1.53-.082c-.014.065-.04.126-.04.195v4.5a.499.499 0 1 0 1 0l-.004-2.5h1.004l.004 2.5a.5.5 0 1 0 1 0v-3.791l1.143 1.144c.471.491 1.198-.235.707-.707l-1.996-2a.5.5 0 0 0-.354-.146H20.14l-1.627.021c0-.14-.03-.278-.086-.406l-2.5-5a1 1 0 0 0-.922-.615zm9.996 1.75c-.963 0-1.75.786-1.75 1.75s.787 1.75 1.75 1.75c.964 0 1.75-.786 1.75-1.75s-.786-1.75-1.75-1.75z" fill="#333"/></svg>