<svg xmlns="http://www.w3.org/2000/svg" height="32" width="32" version="1"><path d="M19.186 18.305v11.797h5.34a5.565 5.565 0 0 0 5.576-5.577v-6.22zM13.424 1.898H7.473a5.561 5.561 0 0 0-5.575 5.575v5.271h11.526z" fill="#999" fill-rule="evenodd"/><path d="M13.424 1.898v10.846h5.762v5.56h10.916V7.474a5.563 5.563 0 0 0-5.577-5.575z" fill="#c2c2c2" fill-rule="evenodd"/><path d="M25.45 11.022v.637h-5.993c.056.898.326 1.582.807 2.055.487.467 1.162.701 2.026.701.501 0 .985-.061 1.453-.184.472-.123.94-.307 1.402-.553v1.233c-.467.198-.947.35-1.438.453-.491.104-.99.156-1.495.156-1.265 0-2.269-.368-3.01-1.105-.737-.737-1.105-1.733-1.105-2.99 0-1.298.349-2.328 1.048-3.088.704-.765 1.65-1.148 2.84-1.148 1.068 0 1.91.345 2.53 1.035.623.684.935 1.617.935 2.798m-1.304-.383c-.01-.713-.21-1.282-.602-1.707-.387-.425-.902-.638-1.544-.638-.728 0-1.31.206-1.75.617-.435.41-.685.99-.75 1.735l4.646-.007M22.574 4.32h1.438v1.431h-1.438v-1.43m-2.77 0h1.438v1.43h-1.438v-1.43" fill="#9d9d9d"/><path d="M19.186 30.102V12.744H1.898v11.781a5.563 5.563 0 0 0 5.575 5.577z" fill="#d3d3d3" fill-rule="evenodd"/><path d="M11.437 22.857c-1.1 0-1.863.122-2.287.367-.424.245-.636.662-.636 1.252 0 .47.158.845.473 1.123.32.274.755.41 1.303.41.754 0 1.359-.258 1.812-.777.46-.523.689-1.216.689-2.08v-.295h-1.354m2.716-.547v4.6H12.79v-1.224c-.31.49-.698.852-1.161 1.087-.464.23-1.031.346-1.702.346-.849 0-1.524-.23-2.028-.691-.498-.466-.747-1.087-.747-1.864 0-.907.31-1.591.932-2.052.627-.46 1.56-.69 2.797-.69h1.91v-.13c0-.61-.208-1.08-.622-1.411-.41-.336-.987-.504-1.732-.504-.473 0-.934.055-1.383.165-.45.11-.88.276-1.295.497v-1.224a9.045 9.045 0 0 1 1.45-.417 6.817 6.817 0 0 1 1.369-.144c1.199 0 2.094.302 2.686.907.592.604.888 1.521.888 2.75M9.566 15.12l2.087 2.692H10.52L8.109 15.12h1.457" fill="#7e7e7e"/></svg>