<svg xmlns="http://www.w3.org/2000/svg" height="32" width="32" version="1"><path d="M1.898 17.566h11.063c.388 0 .7-.297.7-.666V8.232c0-.369-.312-.666-.7-.666H1.898zM22.66 30.102v-7.87c0-.369-.311-.666-.7-.666H9.36c-.388 0-.7.297-.7.666v7.87zM30.102 7.566H18.359c-.388 0-.699.297-.699.666V16.9c0 .37.311.666.7.666h11.742z" fill="#f9f9f9" fill-rule="evenodd"/><path d="M7.473 1.898a5.561 5.561 0 0 0-5.575 5.575v.093h11.063c.388 0 .7.297.7.666V16.9c0 .37-.312.666-.7.666H1.898v6.96a5.563 5.563 0 0 0 5.575 5.576H8.66v-7.87c0-.369.312-.666.7-.666h12.6c.389 0 .7.297.7.666v7.87h1.865a5.565 5.565 0 0 0 5.577-5.577v-6.959H18.359c-.388 0-.699-.297-.699-.666V8.232c0-.369.311-.666.7-.666h11.742v-.093a5.563 5.563 0 0 0-5.577-5.575z" fill="#4ab3e4" fill-rule="evenodd"/></svg>