<svg xmlns="http://www.w3.org/2000/svg" height="32" width="32" version="1"><path d="M16 1.898V15.44l-.002.565 8.145-14.106H16zm-8.082.006l8.078 14.102.002-.56V1.903h-8.08z" fill="#f6ef3f" fill-rule="evenodd"/><path d="M16 16v.002l8.027 14.102h.498a5.565 5.565 0 0 0 5.577-5.577v-8.525H16.004L16 16z" fill="#ef4a51" fill-rule="evenodd"/><path d="M24.143 1.898L16 16l.004.002 14.098.11V7.473a5.565 5.565 0 0 0-5.577-5.576h-.382z" fill="#fecd40" fill-rule="evenodd"/><path d="M15.998 16.004l-.002.002h-.002L7.855 30.104h16.288L16 16.004h-.002z" fill="#d3ccef" fill-rule="evenodd"/><path d="M1.898 15.97v8.557a5.563 5.563 0 0 0 5.575 5.577h.51l8.011-14.098.004-.002v-.002l-14.1-.031z" fill="#32a6d9" fill-rule="evenodd"/><path d="M7.473 1.896a5.563 5.563 0 0 0-5.575 5.577v.324l.002.002v8.199h14.09l.006.004h.002v-.004l-.14-.244L7.92 1.898h-.065v-.002h-.382z" fill="#add038" fill-rule="evenodd"/></svg>