<svg xmlns="http://www.w3.org/2000/svg" height="32" width="32" version="1"><rect width="28.203" height="28.203" x="1.898" y="1.898" ry="5.575" fill="#b33" fill-rule="evenodd"/><path d="M17.51 8.998c-3.03 0-5.532 2.475-5.532 5.5 0 1.15.39 2.208 1 3.094L9.291 21.28a1.006 1.006 0 0 0 1.406 1.437l3.688-3.687c.887.61 1.973.968 3.125.968 3.028 0 5.5-2.474 5.5-5.5 0-3.025-2.472-5.5-5.5-5.5zm0 2c1.947 0 3.5 1.555 3.5 3.5s-1.553 3.5-3.5 3.5a3.483 3.483 0 0 1-3.5-3.5c0-1.945 1.552-3.5 3.5-3.5z" fill="#fff"/></svg>