<svg xmlns="http://www.w3.org/2000/svg" height="32" width="32" version="1"><rect width="28.203" height="28.203" x="1.898" y="1.898" ry="5.575" fill="#b22736" fill-rule="evenodd"/><g fill="#fff"><path d="M16 7.015c2.24 0 4.054 1.906 4.054 4.256 0 2.35-1.815 4.256-4.054 4.256-2.24 0-4.054-1.905-4.054-4.256 0-2.35 1.815-4.256 4.054-4.256zM16 17.892c8.108-.004 8.108 5.675 8.108 5.675v1.418H7.892v-1.418s0-5.67 8.108-5.676z"/></g><path d="M26.254 16.4a3.434 3.434 0 0 0-3.433-3.433 3.434 3.434 0 0 0-3.434 3.434 3.434 3.434 0 0 0 2.146 3.18v1.97h-1.287v2.146h1.287v1.288h2.575v-5.403a3.434 3.434 0 0 0 2.146-3.181zm-2.146 0a1.288 1.288 0 0 1-1.287 1.288 1.288 1.288 0 0 1-1.288-1.287 1.288 1.288 0 0 1 1.288-1.288 1.288 1.288 0 0 1 1.287 1.288z" fill="#710000"/></svg>