<svg xmlns="http://www.w3.org/2000/svg" height="32" width="32" version="1"><rect width="28.203" height="28.203" x="1.898" y="1.898" ry="5.575" fill="#1e95d4" fill-rule="evenodd"/><path d="M5.535 10.978a4.366 4.366 0 0 0-.05.624 4.366 4.366 0 0 0 4.367 4.365 4.366 4.366 0 0 0 4.365-4.365 4.366 4.366 0 0 0-.051-.624z" fill="#fff"/><path d="M5.535 10.978h8.631a4.366 4.366 0 0 0-4.314-3.74 4.366 4.366 0 0 0-4.317 3.74z" fill="#63c2ff"/><circle cx="11.445" cy="13.092" r=".762" fill="#4d4d4d"/><path d="M14.166 10.978a6.473 6.473 0 0 0-.075.925 6.473 6.473 0 0 0 6.476 6.472 6.473 6.473 0 0 0 6.472-6.472 6.473 6.473 0 0 0-.075-.925z" fill="#fff"/><path d="M14.166 10.978h12.798a6.473 6.473 0 0 0-6.397-5.547 6.473 6.473 0 0 0-6.401 5.547z" fill="#63c2ff"/><circle cx="17.931" cy="13.916" r="1.13" fill="#4d4d4d"/><path style="line-height:normal;font-variant-ligatures:normal;font-variant-position:normal;font-variant-caps:normal;font-variant-numeric:normal;font-variant-alternates:normal;font-feature-settings:normal;text-indent:0;text-align:start;text-decoration-line:none;text-decoration-style:solid;text-decoration-color:#000;text-transform:none;text-orientation:mixed;white-space:normal;shape-padding:0;isolation:auto;mix-blend-mode:normal;solid-color:#000;solid-opacity:1" d="M25.696 18.838a.913.913 0 0 0-.41.105c-2.696 1.373-5.849 3.146-8.822 3.977-2.973.831-5.593.781-7.76-1.33a.914.914 0 1 0-1.275 1.308c2.706 2.637 6.236 2.7 9.527 1.78 3.292-.92 6.522-2.765 9.158-4.108a.913.913 0 0 0-.418-1.732z" color="#000" font-weight="400" font-family="sans-serif" overflow="visible" fill="#63c2ff"/><rect width="28.203" height="28.203" x="-50.441" y="2.034" ry="5.575" fill="#d761cb" fill-rule="evenodd"/><path d="M-46.804 11.114a4.366 4.366 0 0 0-.05.624 4.366 4.366 0 0 0 4.367 4.365 4.366 4.366 0 0 0 4.365-4.365 4.366 4.366 0 0 0-.051-.624z" fill="#fff"/><path d="M-46.804 11.114h8.631a4.366 4.366 0 0 0-4.314-3.741 4.366 4.366 0 0 0-4.317 3.74z" fill="#e0accb"/><circle cx="-40.894" cy="13.227" r=".762" fill="#4d4d4d"/><path d="M-38.173 11.114a6.473 6.473 0 0 0-.075.925 6.473 6.473 0 0 0 6.476 6.472 6.473 6.473 0 0 0 6.472-6.472 6.473 6.473 0 0 0-.075-.925z" fill="#fff"/><path d="M-38.173 11.114h12.798a6.473 6.473 0 0 0-6.397-5.547 6.473 6.473 0 0 0-6.401 5.547z" fill="#e0accb"/><circle cx="-34.408" cy="14.052" r="1.13" fill="#4d4d4d"/><path style="line-height:normal;font-variant-ligatures:normal;font-variant-position:normal;font-variant-caps:normal;font-variant-numeric:normal;font-variant-alternates:normal;font-feature-settings:normal;text-indent:0;text-align:start;text-decoration-line:none;text-decoration-style:solid;text-decoration-color:#000;text-transform:none;text-orientation:mixed;white-space:normal;shape-padding:0;isolation:auto;mix-blend-mode:normal;solid-color:#000;solid-opacity:1" d="M-26.643 18.973a.913.913 0 0 0-.41.106c-2.696 1.373-5.849 3.145-8.822 3.977-2.973.83-5.593.78-7.76-1.33a.914.914 0 1 0-1.275 1.308c2.706 2.637 6.236 2.7 9.527 1.78 3.292-.921 6.522-2.766 9.158-4.108a.913.913 0 0 0-.418-1.733z" color="#000" font-weight="400" font-family="sans-serif" overflow="visible" fill="#e0accb"/></svg>