<svg xmlns="http://www.w3.org/2000/svg" height="32" width="32" version="1"><rect width="28.203" height="28.203" x="1.898" y="1.898" ry="5.575" fill="#2d2d69" fill-rule="evenodd"/><path d="M9.204 10.384l-1.267-.846-1.415.564.413-1.466-.974-1.172 1.522-.06.814-1.288.527 1.429 1.477.375-1.196.944zM12.767 11.899l-.93-.62-1.037.413.303-1.075-.715-.86 1.117-.044.597-.945.387 1.049 1.082.275-.877.692zM9.38 24.852l-1.731-.05L6.626 26.2l-.488-1.662-1.646-.54 1.43-.978.007-1.733L7.3 22.346l1.65-.53-.583 1.631z" fill="#ffe680"/><path d="M11.606 21.659a7.807 7.807 0 0 0 9.135 4.336 7.807 7.807 0 0 0 5.521-9.562 7.807 7.807 0 0 0-4.09-4.976 8.956 8.956 0 0 1 .097.872 8.956 8.956 0 0 1 .01.895 8.956 8.956 0 0 1-.078.893 8.956 8.956 0 0 1-.167.878 8.956 8.956 0 0 1-.254.859 8.956 8.956 0 0 1-.34.828 8.956 8.956 0 0 1-.42.79 8.956 8.956 0 0 1-.497.747 8.956 8.956 0 0 1-.569.69 8.956 8.956 0 0 1-.634.632 8.956 8.956 0 0 1-.695.565 8.956 8.956 0 0 1-.748.493 8.956 8.956 0 0 1-.792.415 8.956 8.956 0 0 1-.83.334 8.956 8.956 0 0 1-.607.185 8.956 8.956 0 0 1-.875.188 8.956 8.956 0 0 1-.89.1 8.956 8.956 0 0 1-.895.011 8.956 8.956 0 0 1-.891-.079 8.956 8.956 0 0 1-.491-.094z" fill="#e3e2db"/><path d="M11.606 21.659a8.956 8.956 0 0 0 .49.094 8.956 8.956 0 0 0 .892.08 8.956 8.956 0 0 0 .895-.012 8.956 8.956 0 0 0 .89-.1 8.956 8.956 0 0 0 .875-.188 8.956 8.956 0 0 0 .607-.185 8.956 8.956 0 0 0 .83-.334 8.956 8.956 0 0 0 .792-.415 8.956 8.956 0 0 0 .748-.493 8.956 8.956 0 0 0 .695-.565 8.956 8.956 0 0 0 .634-.632 8.956 8.956 0 0 0 .57-.69 8.956 8.956 0 0 0 .496-.746 8.956 8.956 0 0 0 .42-.79 8.956 8.956 0 0 0 .34-.829 8.956 8.956 0 0 0 .254-.859 8.956 8.956 0 0 0 .167-.878 8.956 8.956 0 0 0 .079-.893 8.956 8.956 0 0 0-.011-.895 8.956 8.956 0 0 0-.097-.872 7.807 7.807 0 0 0-5.472-.544 7.807 7.807 0 0 0-5.52 9.56 7.807 7.807 0 0 0 .426 1.186z" fill="#141950"/><path d="M25.978 11.438l-.929-.62-1.038.413.303-1.076-.714-.859 1.116-.044.597-.945.387 1.048 1.083.276-.877.692z" fill="#ffe680"/></svg>