<svg xmlns="http://www.w3.org/2000/svg" height="32" width="32" version="1"><rect width="28.203" height="28.203" x="1.898" y="1.898" ry="5.575" fill="#05b4f2" fill-rule="evenodd"/><path d="M15.865 30.102h8.662a5.561 5.561 0 0 0 5.575-5.575V7.473a5.561 5.561 0 0 0-5.575-5.575h-8.662v28.204z" fill="#05b4f2" fill-rule="evenodd"/><path d="M15.865 30.102V1.898H7.473a5.561 5.561 0 0 0-5.575 5.575v17.054a5.561 5.561 0 0 0 5.575 5.575h8.392z" fill="#0599f2" fill-rule="evenodd"/><path d="M8.87 24.05c0-.48.054-.636.273-.78.125-.084.16-.09.574-.1l.44-.011v-.4c0-.341.01-.421.07-.546.097-.2.3-.325.57-.354l.206-.022.038-.517c.105-1.427.462-2.51 1.12-3.4.222-.3.65-.733 1.194-1.21.724-.633.717-.799-.063-1.469-.533-.458-1.033-.983-1.258-1.322-.595-.893-.925-2.001-1.005-3.371l-.023-.385-.207-.022c-.273-.03-.475-.155-.572-.354-.06-.125-.07-.205-.07-.549v-.402h-.403c-.478 0-.635-.055-.78-.274-.083-.125-.089-.16-.1-.574l-.01-.44h14.272l-.01.44c-.011.413-.017.449-.1.574-.145.219-.302.274-.78.274h-.403v.402c0 .344-.01.424-.07.549-.097.2-.3.325-.572.354l-.207.022-.023.368c-.065 1.056-.264 1.937-.599 2.655-.37.795-.802 1.32-1.698 2.07-.458.383-.593.55-.594.736 0 .21.104.345.599.773.586.508.834.751 1.08 1.062.722.914 1.122 2.11 1.212 3.625l.022.385.208.022c.273.029.475.154.571.354.06.125.071.205.071.546v.4l.44.01c.413.01.448.017.574.1.219.145.274.302.274.78v.403H8.869zm4.57-2.43c.054-.62.229-1.185.514-1.66.21-.35.356-.538.837-1.087.927-1.057 1.05-1.33.976-2.18a3.644 3.644 0 0 0-.345-1.301c-.17-.345-.337-.574-.818-1.118-.348-.395-.471-.587-.491-.767l-.011-.099 1.927-.008 1.928-.009-.018.135c-.031.232-.175.465-.538.873-.475.535-.62.728-.79 1.048-.365.691-.481 1.622-.272 2.172.138.362.28.558 1.08 1.484.752.87 1.04 1.513 1.142 2.55l.019.19h1.374l-.014-.222c-.097-1.524-.416-2.463-1.114-3.286a9.186 9.186 0 0 0-.699-.67c-.669-.586-.788-.713-.924-.988a1.556 1.556 0 0 1-.014-1.326c.13-.265.311-.463.856-.935.784-.678 1.05-.997 1.358-1.626.318-.65.494-1.452.534-2.427l.008-.207h-7.898l.014.24c.054.975.2 1.66.494 2.312.279.622.593 1.02 1.263 1.606.616.539.832.773.967 1.05.106.216.11.236.11.637 0 .4-.004.42-.108.63-.152.31-.322.505-.818.936-.719.626-1.063 1.031-1.338 1.574-.274.542-.494 1.4-.542 2.108-.01.154-.027.351-.036.438l-.017.156h1.384z" fill="#fff"/></svg>