<svg xmlns="http://www.w3.org/2000/svg" height="32" width="32" version="1"><rect width="28.203" height="28.203" x="1.898" y="1.898" ry="5.575" fill="#5f7c8a" fill-rule="evenodd"/><path d="M15.51 22.039v1.236l-1.64.014c-1.748.015-1.696.01-2.057.208-.162.088-.4.296-.481.419l-.068.104-1.716.019-1.717.02-.166.113c-.484.33-.435 1.037.09 1.275.14.064.284.07 1.83.07h1.676l.057.11c.123.24.581.539.932.609.093.018 1.937.03 4.112.026l3.943-.005.21-.086c.291-.12.488-.266.643-.474l.133-.18h1.63c1.005 0 1.684-.015 1.771-.04a.747.747 0 0 0 .52-.698c0-.32-.234-.61-.561-.702-.082-.022-.786-.038-1.75-.038h-1.61l-.152-.191a1.503 1.503 0 0 0-.682-.477c-.17-.062-.36-.07-1.811-.082l-1.62-.013v-1.237z" fill="#112938"/><path d="M23.803 7.893c.767 0 1.385.618 1.385 1.385V20.84c0 .767-.618 1.385-1.385 1.385H8.173a1.382 1.382 0 0 1-1.386-1.385V10.175l.001-3.327c0-.615.496-1.111 1.112-1.111h5.968c.616 0 1.12.244 1.51.72l1.183 1.44z" fill="#8fa9ff"/><g stroke-width="2.251" fill="#1d344f"><path d="M15.33 11.196a1.634 1.634 0 1 1 0 3.268 1.634 1.634 0 0 1 0-3.268zM15.33 15.372c3.268-.001 3.268 2.18 3.268 2.18v.544h-6.536v-.545s0-2.177 3.268-2.179zM18.568 12.702a.888.888 0 1 1 0 1.777.888.888 0 0 1 0-1.777z"/><path d="M18.568 14.924c1.777-.001 1.777 1.422 1.777 1.422v.355h-3.554v-.355s0-1.421 1.777-1.422z"/></g></svg>