<svg xmlns="http://www.w3.org/2000/svg" height="32" width="32" version="1"><rect width="28.203" height="28.203" x="1.898" y="1.898" ry="5.575" fill="#35b9f5" fill-rule="evenodd"/><path d="M12.593 6.158c-.629 0-1.136.506-1.136 1.136v10.599c0 .629.507 1.135 1.136 1.135h10.6c.628 0 1.135-.506 1.135-1.135V8.429l2.271-2.271z" fill="#ef4444"/><path d="M5.4 12.972l2.272 2.27v9.464c0 .63.507 1.136 1.136 1.136h10.599c.629 0 1.136-.506 1.136-1.136V14.107c0-.629-.507-1.135-1.136-1.135z" fill="#f9f9f9"/><path d="M9.943 16.757v.757h8.328v-.757zm0 2.271v.757h8.328v-.757zm0 2.272v.757h6.36V21.3z" fill="#aee3fb"/></svg>