<svg xmlns="http://www.w3.org/2000/svg" height="32" width="32" version="1"><rect width="28.203" height="28.203" x="1.898" y="1.898" ry="5.575" fill="#ec6295" fill-rule="evenodd"/><path d="M16 8.21c-3.025 0-5.6 1.796-6.71 4.338-2.815.406-4.974 2.733-4.974 5.576 0 3.13 2.615 5.665 5.842 5.665h12.415c2.823 0 5.111-2.219 5.111-4.957 0-2.544-1.973-4.629-4.518-4.912-.664-3.248-3.622-5.71-7.166-5.71z" fill="#fff"/><path d="M19.116 12.105l-4.674.78v4.104a1.558 1.558 0 0 0-.779-.21 1.558 1.558 0 0 0-1.558 1.557 1.558 1.558 0 0 0 1.558 1.558 1.558 1.558 0 0 0 1.558-1.558v-4.024l3.116-.52v2.418a1.558 1.558 0 0 0-.78-.21A1.558 1.558 0 0 0 16 17.556a1.558 1.558 0 0 0 1.558 1.558 1.558 1.558 0 0 0 1.558-1.558v-5.452z" fill="#ec6295"/></svg>