<svg xmlns="http://www.w3.org/2000/svg" height="32" width="32" version="1"><rect width="28.203" height="28.203" x="1.898" y="1.898" ry="5.575" fill="#222b00" fill-rule="evenodd"/><path d="M24.652 1.924v28.152c3.027-.07 5.45-2.506 5.45-5.55V7.472c0-3.045-2.423-5.48-5.45-5.55z" fill="#222b00" fill-rule="evenodd"/><path d="M23.61 1.898v28.204h.917c.045 0 .081-.025.125-.026V1.924c-.044-.001-.08-.026-.125-.026z" fill="#94ad8f" fill-rule="evenodd"/><path d="M19.203 1.898v28.204h4.406V1.898z" fill="#222b00" fill-rule="evenodd"/><path d="M18.158 1.898v28.204h1.045V1.898z" fill="#94ad8f" fill-rule="evenodd"/><path d="M13.754 1.898v28.204h4.404V1.898z" fill="#222b00" fill-rule="evenodd"/><path d="M12.709 1.898v28.204h1.045V1.898z" fill="#94ad8f" fill-rule="evenodd"/><path d="M8.303 30.102h4.406V1.898H8.303zM7.26 1.941c-2.983.119-5.362 2.52-5.362 5.532v17.052c0 3.013 2.38 5.415 5.362 5.534z" fill="#222b00" fill-rule="evenodd"/><path d="M7.26 1.941V30.06c.075.003.138.043.215.043h.828V1.898h-.828c-.077 0-.14.04-.215.043z" fill="#94ad8f" fill-rule="evenodd"/><path d="M10.23 20.296a2.5 2.5 0 0 1-2.5 2.5 2.5 2.5 0 0 1-2.5-2.5 2.5 2.5 0 0 1 2.5-2.5 2.5 2.5 0 0 1 2.5 2.5zM15.924 13.084a2.5 2.5 0 0 1-2.5 2.5 2.5 2.5 0 0 1-2.5-2.5 2.5 2.5 0 0 1 2.5-2.5 2.5 2.5 0 0 1 2.5 2.5zM21.196 18.983a2.5 2.5 0 0 1-2.5 2.5 2.5 2.5 0 0 1-2.5-2.5 2.5 2.5 0 0 1 2.5-2.5 2.5 2.5 0 0 1 2.5 2.5zM26.636 11.66a2.5 2.5 0 0 1-2.5 2.5 2.5 2.5 0 0 1-2.5-2.5 2.5 2.5 0 0 1 2.5-2.5 2.5 2.5 0 0 1 2.5 2.5z" fill="#94ad8f"/></svg>