<svg xmlns="http://www.w3.org/2000/svg" height="32" width="32" version="1"><rect width="28.203" height="28.203" x="1.898" y="1.898" ry="5.575" fill="#4ab367" fill-rule="evenodd"/><g fill="#f9f9f9"><path d="M8.167 10.5h2.666c.368 0 .667.272.667.61v9.779c0 .337-.3.611-.666.611H8.167c-.367 0-.666-.274-.666-.61v-9.78c0-.338.299-.61.666-.61M13.129 10.5a.618.618 0 0 0-.63.61v9.777a.62.62 0 0 0 .63.611c1.895 0 3.789.003 5.685.003C21.954 21.5 24.5 19.037 24.5 16c0-3.037-2.546-5.5-5.685-5.5H13.13z"/></g></svg>