<svg xmlns="http://www.w3.org/2000/svg" width="32" height="32"><rect width="28.203" height="28.203" x="1.898" y="1.898" ry="5.575" fill="#8e8e8e" fill-rule="evenodd"/><g transform="translate(42.87 2.794)"><path d="M-29.99 2.481a2.816 2.816 0 0 0-2.823 2.823v7.486a2.816 2.816 0 0 0 2.822 2.822h1.524c.13.958.937 1.694 1.931 1.694h4.989c.994 0 1.802-.736 1.931-1.694h1.523a2.816 2.816 0 0 0 2.823-2.822V5.304a2.816 2.816 0 0 0-2.823-2.823z" fill="#474747"/><rect rx="2.138" ry="2.052" y="3.312" x="-32.025" height="11.47" width="15.966" fill="#266ad7"/><path d="M-35.648 9.106a2.816 2.816 0 0 0-2.822 2.823v7.485a2.816 2.816 0 0 0 2.822 2.823h1.524c.13.957.937 1.693 1.931 1.693h4.989c.994 0 1.802-.736 1.931-1.693h1.524a2.816 2.816 0 0 0 2.822-2.823V11.93a2.816 2.816 0 0 0-2.822-2.823z" fill="#474747"/><rect rx="2.138" ry="2.052" y="9.936" x="-37.681" height="11.47" width="15.966" fill="#ffbe47"/></g></svg>