<svg xmlns="http://www.w3.org/2000/svg" height="32" width="32" version="1"><path d="M30 6.969c-.054-.579-.12-1.157-.336-1.67A5.563 5.563 0 0 0 26.7 2.334c-.511-.216-1.089-.28-1.666-.334H16v14h14z" fill="#2cbfeb"/><path d="M6.965 2c-.577.054-1.155.118-1.666.334a5.563 5.563 0 0 0-2.965 2.965c-.216.511-.28 1.089-.334 1.666V16h14V2z" fill="#a2e36e"/><path d="M25.035 30c.577-.054 1.155-.118 1.666-.334a5.563 5.563 0 0 0 2.965-2.965c.216-.511.28-1.089.334-1.666V16H16v14z" fill="#f7c73c"/><path d="M2 25.031c.054.579.12 1.157.336 1.67A5.563 5.563 0 0 0 5.3 29.666c.511.216 1.089.28 1.666.334H16V16H2z" fill="#2086e7"/><rect width="21.424" height="21.424" x="5.288" y="5.288" ry="4.235" fill="#3f3f3f" fill-rule="evenodd"/><g fill="none" stroke="#fff" stroke-width="2" stroke-linecap="round"><path d="M10.435 22.517h7.429" stroke-width="1.85716"/><path d="M10.435 13.231s3.714.432 3.714-1.857c0-2.288-3.714-1.857-3.714-1.857m0 7.429V9.517M21.578 16.017s0 .929-1.857.929-1.857-1.858-1.857-3.715c0-1.857 0-3.714 1.857-3.714s1.857.929 1.857.929" stroke-linejoin="bevel" stroke-width="1.85716"/></g></svg>