<svg xmlns="http://www.w3.org/2000/svg" height="32" width="32" version="1"><g transform="translate(33.119 -3.357)"><path d="M-3.119 10.325c-.054-.578-.12-1.157-.336-1.67A5.563 5.563 0 0 0-6.42 5.691c-.511-.216-1.089-.28-1.666-.334h-9.033v14h14z" fill="#2cbfeb"/><path d="M-26.154 5.357c-.577.054-1.155.118-1.666.334a5.563 5.563 0 0 0-2.965 2.964c-.216.512-.28 1.09-.334 1.666v9.036h14v-14z" fill="#a2e36e"/><path d="M-8.084 33.357c.577-.055 1.155-.119 1.666-.334a5.563 5.563 0 0 0 2.965-2.965c.216-.512.28-1.09.334-1.666v-9.035h-14v14z" fill="#f7c73c"/><path d="M-31.119 28.388c.054.578.12 1.157.336 1.67a5.563 5.563 0 0 0 2.965 2.965c.511.215 1.089.28 1.666.334h9.033v-14h-14z" fill="#2086e7"/><rect ry="4.235" y="8.645" x="-27.831" height="21.424" width="21.424" fill="#3f3f3f" fill-rule="evenodd"/></g><g stroke-width="2.296" fill="none" stroke="#fff" stroke-linecap="round"><path d="M9 23h8" transform="matrix(.86965 0 0 .87233 2.955 2.059)"/><path d="M9 13s4 .464 4-2c0-2.465-4-2-4-2m0 8V9M17 17h4m-4-4h4m-4-4h4m-4 8V9" stroke-linejoin="bevel" transform="matrix(.86965 0 0 .87233 2.955 2.059)"/></g></svg>