<svg xmlns="http://www.w3.org/2000/svg" height="32" width="32" version="1"><path d="M22 22v7.5c0 .235-.152.404-.248.602h2.775a5.561 5.561 0 0 0 5.575-5.575v-2.775c-.198.096-.367.248-.602.248z" fill="#4f4f4f" fill-rule="evenodd"/><path d="M10 10H2.5c-.235 0-.404.152-.602.248v14.28a5.561 5.561 0 0 0 5.575 5.574h14.279c.096-.198.248-.367.248-.602V22H11.5a1.497 1.497 0 0 1-1.5-1.5z" fill="#2297fd" fill-rule="evenodd"/><path d="M7.473 1.898a5.561 5.561 0 0 0-5.575 5.575v2.775c.198-.096.367-.248.602-.248H10V2.5c0-.235.152-.404.248-.602z" fill="#4f4f4f" fill-rule="evenodd"/><path d="M13.312 24.814H8.696L7.967 27H5l4.24-12h3.52L17 27h-2.967l-.72-2.186zm-3.88-2.226h3.136l-1.564-4.775z" fill="#fff"/><path d="M10.248 1.898c-.096.198-.248.367-.248.602v18a1.497 1.497 0 0 0 1.5 1.5h18c.235 0 .404-.152.602-.248V7.472a5.561 5.561 0 0 0-5.575-5.574z" fill="#f3af3f" fill-rule="evenodd"/><path d="M20.866 10.646q.74 0 1.123-.322.382-.321.382-.948 0-.619-.382-.94-.383-.33-1.123-.33h-1.733v2.54h1.733zm.106 5.248q.944 0 1.416-.393.48-.394.48-1.19 0-.78-.472-1.165-.472-.394-1.424-.394h-1.84v3.143h1.84zm2.913-4.315q1.009.289 1.562 1.069.553.78.553 1.912 0 1.737-1.188 2.589Q23.624 18 21.2 18H16V6h4.703q2.53 0 3.662.756 1.139.755 1.139 2.42 0 .875-.415 1.494-.415.611-1.204.909z" fill="#fff"/></svg>