<svg xmlns="http://www.w3.org/2000/svg" height="32" width="32" version="1"><rect width="28.203" height="28.203" x="1.898" y="1.898" ry="5.575" fill="#8e8e8e" fill-rule="evenodd"/><path d="M10.978 25.78a.527.527 0 0 1-.408-.52c0-.17.067-.296.28-.516a18.72 18.72 0 0 0 1.434-1.712c.28-.376.921-1.32.906-1.335a.686.686 0 0 0-.156.037 4.54 4.54 0 0 1-1.47.177 4.872 4.872 0 0 1-2.637-.844 4.096 4.096 0 0 1-.75-.616 4.99 4.99 0 0 1-1.345-2.372 5.263 5.263 0 0 1-.118-1.629c.203-2.19 1.772-3.96 3.946-4.447.193-.043.226-.057.222-.095-.076-.838-.048-1.285.12-1.93.096-.373.168-.574.32-.897a4.997 4.997 0 0 1 2.322-2.355c1.385-.684 3-.694 4.39-.026a4.971 4.971 0 0 1 2.332 2.308c.407.833.57 1.68.506 2.634l-.01.171.252.043a4.953 4.953 0 0 1 2.663 1.351 4.95 4.95 0 0 1 1.269 2.013 4.992 4.992 0 0 1-.26 3.807 4.994 4.994 0 0 1-2.57 2.42 4.654 4.654 0 0 1-1.799.373c-.624.015-1.047-.04-1.575-.203a1.169 1.169 0 0 0-.238-.06c-.016.017.434.731.718 1.142a17.793 17.793 0 0 0 1.585 1.976c.15.158.287.324.306.368a.559.559 0 0 1-.138.61c-.177.149.256.137-5.132.14-2.693.003-4.927-.003-4.965-.013z" fill="#ccc"/><path d="M10.978 25.78a.527.527 0 0 1-.408-.52c0-.17.067-.296.28-.516a18.72 18.72 0 0 0 1.434-1.712c.28-.376.921-1.32.906-1.335a.686.686 0 0 0-.156.037 4.54 4.54 0 0 1-1.47.177 4.872 4.872 0 0 1-2.637-.844 4.096 4.096 0 0 1-.75-.616 4.99 4.99 0 0 1-1.345-2.372 5.263 5.263 0 0 1-.118-1.629c.203-2.19 1.772-3.96 3.946-4.447.193-.043.226-.057.222-.095-.076-.838-.048-1.285.12-1.93.096-.373.168-.574.32-.897a4.997 4.997 0 0 1 2.322-2.355c1.385-.684 3-.694 4.39-.026a4.971 4.971 0 0 1 2.332 2.308c.407.833.57 1.68.506 2.634l-.01.171.252.043a4.953 4.953 0 0 1 2.663 1.351 4.95 4.95 0 0 1 1.269 2.013 4.992 4.992 0 0 1-.26 3.807 4.994 4.994 0 0 1-2.57 2.42 4.654 4.654 0 0 1-1.799.373c-.624.015-1.047-.04-1.575-.203a1.169 1.169 0 0 0-.238-.06c-.016.017.434.731.718 1.142a17.793 17.793 0 0 0 1.585 1.976c.15.158.287.324.306.368a.559.559 0 0 1-.138.61c-.177.149.256.137-5.132.14-2.693.003-4.927-.003-4.965-.013zm8.499-1.087a22.326 22.326 0 0 1-1.807-2.573c-.435-.746-.93-1.734-.978-1.95a.533.533 0 0 1 .533-.642c.159 0 .28.053.43.194.147.136.509.4.703.513.348.202.803.373 1.216.457.323.065 1.154.059 1.48-.012a4.19 4.19 0 0 0 1.496-.64c.318-.225.779-.695.985-1.005.652-.978.848-2.095.565-3.215a3.956 3.956 0 0 0-2.872-2.84 3.593 3.593 0 0 0-.833-.108c-.339-.01-.43-.036-.554-.155-.168-.159-.195-.319-.118-.684a3.909 3.909 0 0 0-1.021-3.534 3.802 3.802 0 0 0-1.834-1.082 3.522 3.522 0 0 0-1.006-.126c-.405 0-.68.036-1.05.138a3.946 3.946 0 0 0-2.88 3.53c-.03.414.008.812.118 1.248.068.265.035.432-.115.594-.106.114-.213.153-.492.177-1.038.091-1.884.495-2.596 1.238a3.79 3.79 0 0 0-1.067 2.53c-.027.704.1 1.284.418 1.92a3.945 3.945 0 0 0 2.654 2.078c.472.109 1.144.12 1.582.027a4.089 4.089 0 0 0 1.72-.832c.217-.172.289-.205.455-.205.41 0 .65.386.487.782-.029.07-.161.328-.295.574a21.255 21.255 0 0 1-2.115 3.187c-.187.234-.34.43-.34.435 0 .005 1.61.01 3.576.01 2.858 0 3.572-.006 3.555-.03z" fill="#333"/></svg>