<svg xmlns="http://www.w3.org/2000/svg" height="32" width="32"><rect width="28.203" height="28.203" x="1.898" y="1.898" ry="5.575" fill="#f2f2f2" fill-rule="evenodd"/><path d="M21.217 10.783v2.609A2.603 2.603 0 0 1 18.608 16h-5.216s-2.609 0-2.609 2.608v4.565c0 1.807 2.037 3.26 4.565 3.26h1.304c2.528 0 4.565-1.453 4.565-3.26v-1.956h1.956c1.807 0 3.26-2.037 3.26-4.565v-1.304c0-2.528-1.453-4.565-3.26-4.565z" fill="#ffc851"/><path d="M18.608 22.956a.87.87 0 0 1 .87.87.87.87 0 0 1-.87.869.87.87 0 0 1-.87-.87.87.87 0 0 1 .87-.87z" fill="#fff"/><path d="M15.348 5.566c-2.528 0-4.565 1.455-4.565 3.26v1.957H8.827c-1.806 0-3.26 2.037-3.26 4.565v1.304c0 2.528 1.454 4.565 3.26 4.565h1.956v-2.609A2.603 2.603 0 0 1 13.392 16h5.216s2.609 0 2.609-2.608V8.827c0-1.806-2.037-3.26-4.565-3.26z" fill="#4795d1"/><path d="M13.392 7.305a.87.87 0 0 1 .87.87.87.87 0 0 1-.87.87.87.87 0 0 1-.87-.87.87.87 0 0 1 .87-.87z" fill="#fff"/></svg>