<svg xmlns="http://www.w3.org/2000/svg" height="32" width="32" version="1"><g fill-rule="evenodd"><path d="M9.707 30.102L16 16 1.898 9.707v14.82a5.561 5.561 0 0 0 5.575 5.575z" fill="#009c5b"/><path d="M30.102 22.293L16 16 9.707 30.102h14.82a5.561 5.561 0 0 0 5.575-5.575z" fill="#00c95b"/><path d="M22.293 1.898L16 16l14.102 6.293V7.473a5.561 5.561 0 0 0-5.575-5.575z" fill="#009c5b"/><path d="M1.898 9.707L16 16l6.293-14.102H7.473a5.561 5.561 0 0 0-5.575 5.575z" fill="#00c95b"/></g><path d="M12.331 25.794c.044-.046.187-.141.319-.21.228-.12.267-.129.799-.175.679-.06 1.216-.16 1.456-.275.363-.171.578-.48.694-1 .051-.231.064-.491.075-1.6.015-1.363-.037-3.278-.095-3.573-.063-.315-.113-.374-.667-.786-.598-.446-1.318-1.137-1.639-1.575-.579-.79-.902-1.598-1.066-2.67-.044-.291-.06-.607-.06-1.19 0-1.31.12-2.157.684-4.8.204-.957.264-1.163.376-1.286l.07-.078h5.432l.072.078c.103.11.156.3.392 1.39.646 2.981.797 4.463.6 5.883-.25 1.791-1.082 3.068-2.84 4.353-.214.157-.41.326-.436.376-.09.175-.127.475-.16 1.274-.046 1.144-.048 3.52-.002 3.878.104.802.331 1.17.851 1.373.226.088.705.169 1.36.23.489.044.553.058.777.17.135.066.283.16.328.209l.083.088h-7.482z" fill="#fff"/><path d="M12.659 13.228c-.183 5.21 6.292 6.53 6.775.003-1.499 2.161-5.139-2.01-6.775-.003z" fill="#bb002f"/></svg>