<svg xmlns="http://www.w3.org/2000/svg" height="32" width="32" version="1"><rect width="28.203" height="28.203" x="1.898" y="1.898" ry="5.575" fill="#2f67ba" fill-rule="evenodd"/><path d="M9.5 10.5A5.5 5.5 0 0 0 4 16a5.5 5.5 0 0 0 5.5 5.5 5.5 5.5 0 0 0 2.5-.607V26.5h3v-16h-3v.602a5.5 5.5 0 0 0-2.5-.602zm0 3A2.5 2.5 0 0 1 12 16a2.5 2.5 0 0 1-2.5 2.5A2.5 2.5 0 0 1 7 16a2.5 2.5 0 0 1 2.5-2.5z" fill="#7fc1de"/><path d="M22.5 21.5A5.5 5.5 0 0 0 28 16a5.5 5.5 0 0 0-5.5-5.5 5.5 5.5 0 0 0-2.5.607V5.5h-3v16h3v-.602a5.5 5.5 0 0 0 2.5.602zm0-3A2.5 2.5 0 0 1 20 16a2.5 2.5 0 0 1 2.5-2.5A2.5 2.5 0 0 1 25 16a2.5 2.5 0 0 1-2.5 2.5z" fill="#fff"/></svg>