<svg xmlns="http://www.w3.org/2000/svg" height="32" width="32" version="1"><path d="M7.473 1.898a5.561 5.561 0 0 0-5.575 5.575v17.054a5.561 5.561 0 0 0 5.575 5.575h16.734l-9.508-9.504 2.537-.07.116-2.745 2.628.057.092-2.844 9.936 9.992c.014-.16.094-.297.094-.46V7.472a5.561 5.561 0 0 0-5.575-5.575H7.473z" fill="#2d427b" fill-rule="evenodd"/><circle cx="16" cy="16" r="8.742" fill="#d7e2ec" fill-rule="evenodd"/><path d="M30.008 24.988l-9.936-9.992-.092 2.844-2.628-.057-.116 2.744-2.537.07 9.508 9.505h.32c2.925 0 5.236-2.254 5.48-5.114z" fill="#fda002" fill-rule="evenodd"/><path d="M19.04 24.936L14.7 20.598l4.336 4.338a9.5 9.5 0 0 0 .002 0z" fill="#fff" fill-rule="evenodd"/><path d="M20.074 14.998l-.094 2.842-2.628-.057-.116 2.742-2.535.073 4.338 4.338a9.5 9.5 0 0 0 5.764-5.18l-4.729-4.758z" fill="#fda002" fill-rule="evenodd"/><path d="M12.07 12.54l2.63 8.058h.001l2.535-.073.116-2.742 2.628.057.094-2.842-.002-.002-8.002-2.457z" fill="#fff" fill-rule="evenodd"/><path d="M12.07 12.539l.996 3.016 2.002-2.07z"/></svg>