<svg xmlns="http://www.w3.org/2000/svg" height="32" width="32" version="1"><defs><linearGradient id="a"><stop stop-color="#f9f9f9"/><stop offset="1" stop-color="#999"/></linearGradient><linearGradient id="b"><stop stop-color="#55c03f"/><stop offset="1" stop-color="#198b26"/></linearGradient></defs><rect width="28.203" height="28.203" x="1.898" y="1.898" ry="5.575" fill="#dfdfdf" fill-rule="evenodd"/><path d="M10.1 24.9s0 1-2 1-2-2-2-4 0-4 2-4 2 1 2 1m-4-9h4m0 4v-8m-4 8v-8" fill="none" stroke="#0070cb" stroke-width="2" stroke-linecap="round" stroke-linejoin="round"/><path d="M17.6 20.4v6h4m5-1s0 1-2 1-2-1-2-3 0-3 2-3 2 .998 2 .998m-14 3h3m-3 2v-4s0-2 1.5-2 1.5 2 1.5 2v4m2-12.998s.5.998 2 .998 2-.499 2-1.498c0-3-4 0-4-3 0-.998.5-1.498 2-1.498s2 .999 2 .999m-9 2.999h3m-3 2v-4.001s0-2 1.5-2 1.5 2 1.5 2v4m8-3h3m0 3v-6m-3 6v-6" fill="none" stroke="#0070cb" stroke-linecap="round" stroke-linejoin="round"/></svg>