<?xml version="1.0" encoding="UTF-8" standalone="no"?>
<svg
   xmlns:dc="http://purl.org/dc/elements/1.1/"
   xmlns:cc="http://creativecommons.org/ns#"
   xmlns:rdf="http://www.w3.org/1999/02/22-rdf-syntax-ns#"
   xmlns:svg="http://www.w3.org/2000/svg"
   xmlns="http://www.w3.org/2000/svg"
   xmlns:xlink="http://www.w3.org/1999/xlink"
   height="32"
   width="32"
   version="1"
   id="svg8">
  <metadata
     id="metadata14">
    <rdf:RDF>
      <cc:Work
         rdf:about="">
        <dc:format>image/svg+xml</dc:format>
        <dc:type
           rdf:resource="http://purl.org/dc/dcmitype/StillImage" />
        <dc:title></dc:title>
      </cc:Work>
    </rdf:RDF>
  </metadata>
  <defs
     id="defs12">
    <linearGradient
       xlink:href="#1"
       id="0"
       gradientUnits="userSpaceOnUse"
       x1="17.658001"
       y1="-133.50999"
       x2="15.02"
       y2="-125.58" />
    <linearGradient
       id="1">
      <stop
         stop-color="#f9f9f9"
         id="stop9" />
      <stop
         offset="1"
         stop-color="#999"
         id="stop11" />
    </linearGradient>
    <linearGradient
       xlink:href="#3"
       id="2"
       gradientUnits="userSpaceOnUse"
       x1="15.879"
       y1="-141.91"
       x2="30.32"
       y2="-129.74001" />
    <linearGradient
       id="3">
      <stop
         stop-color="#55c03f"
         id="stop4" />
      <stop
         offset="1"
         stop-color="#198b26"
         id="stop6" />
    </linearGradient>
    <linearGradient
       xlink:href="#3"
       id="4"
       gradientUnits="userSpaceOnUse"
       x1="27.558001"
       y1="-133.46001"
       x2="22.09"
       y2="-134.42999" />
    <radialGradient
       xlink:href="#1"
       id="5"
       cx="-176.59"
       cy="-120.91"
       r="3.01"
       gradientUnits="userSpaceOnUse"
       gradientTransform="matrix(2.21087,0.05719,-0.05496,2.12455,412.97,145.84)" />
  </defs>
  <rect
     style="fill:#dfdfdf;fill-opacity:1;fill-rule:evenodd;stroke:none;stroke-width:0;stroke-linecap:round;stroke-linejoin:bevel;stroke-miterlimit:4;stroke-dasharray:none;stroke-dashoffset:0;stroke-opacity:1"
     width="28.203388"
     height="28.203388"
     x="1.898"
     y="1.898"
     ry="5.575182"
     id="rect2" />
  <path
     style="fill:none;stroke:#0070cb;stroke-width:2;stroke-linecap:round;stroke-linejoin:round;stroke-opacity:1"
     d="m 10.100898,24.899188 c 0,0 0,1 -2.0000003,1 -2,0 -2,-2 -2,-4 0,-2 0,-4 2,-4 2.0000003,0 2.0000003,1 2.0000003,1 M 6.1008977,9.8991882 h 4.0000003 m 0,3.9999998 V 5.8993882 M 6.1008977,13.899188 V 5.8993882"
     id="path4" />
  <path
     style="fill:none;stroke:#0070cb;stroke-width:0.999974;stroke-linecap:round;stroke-linejoin:round;stroke-opacity:1"
     d="m 17.600881,20.399059 v 6.000142 h 4.000014 m 5.000016,-0.998692 c 0,0 0,0.998692 -2.000006,0.998692 -2.000007,0 -2.000007,-0.998692 -2.000007,-3.000071 0,-1.999381 0,-3.000071 2.000007,-3.000071 2.000006,0 2.000006,0.998692 2.000006,0.998692 m -14.000046,3.00107 h 3.00001 m -3.00001,1.999781 v -4.000761 c 0,0 0,-1.999381 1.500005,-1.999381 1.500005,0 1.500005,1.999381 1.500005,1.999381 v 4.000761 m 2.000006,-12.998976 c 0,0 0.500002,0.998692 2.000007,0.998692 1.500005,0 2.000007,-0.499346 2.000007,-1.498038 0,-3.0000708 -4.000014,0 -4.000014,-3.0000708 0,-0.9986917 0.500002,-1.4980377 2.000007,-1.4980377 1.500005,0 2.000007,0.998692 2.000007,0.998692 m -9.00003,2.9986725 h 3.00001 m -3.00001,1.999781 v -4.00076 c 0,0 0,-1.9993816 1.500005,-1.9993816 1.500005,0 1.500005,1.9993816 1.500005,1.9993816 v 4.00076 m 8.000026,-3.000071 h 3.00001 m 0,3.000071 V 8.3991754 m -3.00001,6.0001416 V 8.3991754"
     id="path6" />
</svg>
