<svg xmlns="http://www.w3.org/2000/svg" height="32" width="32" version="1"><rect width="28.203" height="28.203" x="1.898" y="1.898" ry="5.575" fill="#ccc" fill-rule="evenodd"/><path d="M16 5.5a5.465 5.465 0 0 0-3.875 1.625 5.442 5.442 0 0 0-1.594 3.375H6v13h9V25h1v-4h-1v1.5H7v-11h3.531a5.442 5.442 0 0 0 1.594 3.375 5.466 5.466 0 0 0 7.75 0 5.442 5.442 0 0 0 1.594-3.375H25v11h-7v-3h-1v7h1v-3h8v-13h-4.531a5.442 5.442 0 0 0-1.594-3.375A5.465 5.465 0 0 0 16 5.5zm0 1.031c.983 0 1.963.316 2.781.969L16 10.281 13.219 7.5A4.434 4.434 0 0 1 16 6.531zm-3.5 1.688L15.281 11 12.5 13.781a4.442 4.442 0 0 1 0-5.563zm7 0a4.442 4.442 0 0 1 0 5.563l-2.781-2.781L19.5 8.22zm-3.5 3.5l2.781 2.781a4.442 4.442 0 0 1-5.563 0l2.781-2.781z" fill="#474747"/></svg>