<svg xmlns="http://www.w3.org/2000/svg" height="32" width="32" version="1"><rect width="28.203" height="28.203" x="1.898" y="1.898" ry="5.575" fill="#66a6de" fill-rule="evenodd"/><g stroke-width="1.081"><path d="M15.075 9.522a4.627 4.627 0 0 1-4.627 4.627A4.627 4.627 0 0 1 5.82 9.522a4.627 4.627 0 0 1 4.627-4.627 4.627 4.627 0 0 1 4.627 4.627z" fill="#fff"/><path d="M15.075 22.478a4.627 4.627 0 0 1-4.627 4.627 4.627 4.627 0 0 1-4.627-4.627 4.627 4.627 0 0 1 4.627-4.627 4.627 4.627 0 0 1 4.627 4.627z" fill="#4d4d4d"/><path d="M26.18 22.478a4.627 4.627 0 0 0-4.628-4.627 4.627 4.627 0 0 0-4.627 4.627 4.627 4.627 0 0 0 4.627 4.627 4.627 4.627 0 0 0 4.627-4.627z" fill="#fff"/><path d="M26.18 9.522a4.627 4.627 0 0 0-4.628-4.627 4.627 4.627 0 0 0-4.627 4.627 4.627 4.627 0 0 0 4.627 4.627 4.627 4.627 0 0 0 4.627-4.627z" fill="#4d4d4d"/></g></svg>