<svg xmlns="http://www.w3.org/2000/svg" width="32" height="32" version="1"><rect width="28.203" height="28.203" x="1.898" y="1.898" ry="5.575" fill="#5b5b5b" fill-rule="evenodd"/><path d="M14.512 8.557h2.977v6.699h-2.977z" fill="#b7b7b7"/><path d="M13.342 14.511h5.316c.59 0 1.063.443 1.063.993v9.923c0 .55-.474.993-1.063.993h-5.316c-.59 0-1.063-.443-1.063-.993v-9.923c0-.55.474-.993 1.063-.993z" fill="#fff"/><path d="M16 5.58l1.489.745-.569 2.232h-1.84l-.568-2.232z" fill="#b7b7b7"/><path fill="#5b5b5b" d="M14.512 12.65h2.977v.373h-2.977zM14.512 11.163h2.977v.372h-2.977z"/></svg>