<svg xmlns="http://www.w3.org/2000/svg" width="32" height="32"><path d="M19.139 1.898H7.473a5.561 5.561 0 0 0-5.575 5.575v17.054a5.561 5.561 0 0 0 5.575 5.575h17.054a5.561 5.561 0 0 0 5.575-5.575V7.473a5.561 5.561 0 0 0-5.575-5.575h-3.506c-.45.481-.963.97-1.324 1.44a15.816 15.816 0 0 0-1.568 2.474c-.829 1.63-1.27 3.23-1.602 4.854l-1.37-.28c.344-1.69.838-3.427 1.741-5.202a17.59 17.59 0 0 1 1.696-2.69c.15-.197.382-.398.545-.596z" fill="#83a7e6" fill-rule="evenodd"/><path d="M19.139 1.898c-.163.198-.395.4-.545.596a17.59 17.59 0 0 0-1.696 2.69c-.903 1.775-1.397 3.512-1.742 5.203l1.371.279c.332-1.623.773-3.223 1.602-4.854.414-.815.925-1.637 1.568-2.474.361-.47.874-.959 1.324-1.44H19.14z" fill="#003870" fill-rule="evenodd"/><path d="M26.305 29.744l-1.664-2.09c-1.767-2.217-1.837-2.294-2.063-2.256-.785.135-1.54.136-2.027.004-.61-.165-1.295-.592-1.701-1.06-.327-.376-.72-1.132-.795-1.53l-.047-.253H13.92l-.172.525c-.264.808-.717 1.432-1.322 1.844-.605.412-1.36.612-2.227.574l-.72-.031-1.973 2.281c-1.038 1.2-1.48 1.72-1.813 1.992.566.192 1.148.358 1.78.358h17.054c.632 0 1.213-.166 1.778-.358z" fill="#83a7e6" fill-rule="evenodd"/><path d="M30.102 22.195l-.043-.181c-.108-.45-.565-2.394-1.018-4.32-.654-2.782-.883-3.632-1.113-4.126a6.502 6.502 0 0 0-1.053-1.595 7.152 7.152 0 0 0-1.506-1.266c-1.148-.729-2.582-1.226-4.275-1.475-.999-.146-9.403-.145-10.23.002-1.306.232-2.323.514-3.182.905a7.468 7.468 0 0 0-2.235 1.56c-.677.674-.83.878-1.146 1.518-.384.778-.418.901-1.799 6.539-.19.773-.39 1.598-.604 2.467v2.304c0 2.457 1.598 4.47 3.795 5.217.333-.272.775-.792 1.813-1.992l1.973-2.281.72.031c.867.038 1.622-.162 2.227-.574.605-.412 1.058-1.036 1.322-1.844l.172-.525h4.088l.047.253c.074.398.468 1.154.795 1.53.406.468 1.092.895 1.7 1.06.489.132 1.243.13 2.028-.004.226-.038.296.04 2.063 2.256l1.664 2.09c2.198-.746 3.797-2.76 3.797-5.217v-2.332zM22.555 12.15c.383.258.508.681.336 1.131a.97.97 0 0 1-.588.586.964.964 0 0 1-.823-.101.964.964 0 0 1-.476-.73.973.973 0 0 1 .33-.811c.349-.32.814-.348 1.22-.075zm-13.553.29H11.025v1.94l.993.022.992.022.021.992.024.994H11.025v2.024H9.002V16.41H7.055v-2.025h1.947v-1.946zm5.994 6.927h2.024v1.09h-2.024v-1.09zm-4.22 1.06c.453.077.87.362 1.095.827.155.32.188.645.129.941-.059.297-.21.565-.42.774-.21.208-.477.357-.773.414a1.464 1.464 0 0 1-.938-.135 1.495 1.495 0 0 1 .906-2.82z" fill="#0061ac" fill-rule="evenodd"/><path d="M21.135 20.45a1.474 1.474 0 0 0-.992.804 1.48 1.48 0 0 0-.07 1.158c.13.361.405.672.8.86.452.214.947.165 1.346-.07.399-.236.701-.658.771-1.18.052-.388-.251-1.083-.57-1.307a1.592 1.592 0 0 0-1.285-.266z" fill="#e6e6e6" fill-rule="evenodd"/><path d="M21.135 20.45c.416-.1.88-.02 1.285.265.319.224.622.919.57 1.306a1.61 1.61 0 0 1-.771 1.18c-.4.236-.894.285-1.346.07a1.533 1.533 0 0 1-.8-.859 1.48 1.48 0 0 1 .07-1.158c.207-.43.576-.706.992-.805zM10.775 20.428a1.484 1.484 0 0 0-1.306.418 1.495 1.495 0 0 0 .4 2.402 1.464 1.464 0 0 0 1.711-.28c.21-.208.361-.476.42-.773.059-.296.026-.62-.129-.941a1.486 1.486 0 0 0-1.096-.826zM14.996 19.367v1.09h2.024v-1.09h-2.024zM21.824 15.967a.927.927 0 0 0-.783.674.972.972 0 0 0 .303 1.007c.272.24.623.3.927.215a.936.936 0 0 0 .66-.656c.101-.364.014-.7-.193-.932-.206-.231-.534-.36-.914-.308z" fill="#e6e6e6" fill-rule="evenodd"/><path d="M21.824 15.967c.38-.051.708.077.914.308.207.232.294.568.194.932a.936.936 0 0 1-.66.656.995.995 0 0 1-.928-.215.972.972 0 0 1-.303-1.007.927.927 0 0 1 .783-.674zM20.424 14.063c-.409-.21-.778-.14-1.123.205-.224.223-.258.31-.258.644 0 .446.193.752.578.92.325.142.41.136.791-.049.374-.18.562-.516.565-.853.002-.338-.182-.678-.553-.867z" fill="#e6e6e6" fill-rule="evenodd"/><path d="M20.424 14.063c.371.189.555.53.553.867-.003.337-.191.672-.565.853-.382.185-.466.19-.79.049-.386-.168-.579-.474-.579-.92 0-.334.034-.421.258-.644.345-.346.714-.414 1.123-.206zM24.361 14.023c-.388-.162-.769-.076-1.09.245-.223.223-.257.31-.257.644 0 .446.19.752.576.92.311.136.46.135.787-.002.383-.16.571-.531.568-.902-.003-.372-.198-.744-.584-.905z" fill="#e6e6e6" fill-rule="evenodd"/><path d="M24.361 14.023c.386.161.581.533.584.905.003.371-.185.742-.568.902-.327.137-.476.138-.787.002-.385-.168-.576-.474-.576-.92 0-.334.034-.421.257-.644.321-.321.702-.407 1.09-.245zM9.002 12.44V14.384H7.055v2.025h1.947v2.024H11.025V16.41H13.055l-.024-.994-.021-.992-.992-.022-.993-.021v-1.942H9.002zM22.555 12.15c-.407-.273-.872-.245-1.221.075a.973.973 0 0 0-.33.81c.027.285.19.556.476.73.27.165.565.19.823.102a.97.97 0 0 0 .588-.586c.172-.45.047-.873-.336-1.13z" fill="#e6e6e6" fill-rule="evenodd"/></svg>