<svg xmlns="http://www.w3.org/2000/svg" height="32" width="32" version="1"><rect width="28.203" height="28.203" x="1.898" y="1.898" ry="5.575" fill="#e75177" fill-rule="evenodd"/><g transform="translate(40.28 -3.916)"><path d="M-27.22 10.378c-.22 0-.398.19-.398.424 0 .191.12.352.283.405.248.896.83 1.74 1.633 2.353a1.67 2.15 0 0 0-.247 1.12 1.67 2.15 0 0 0 .557 1.6v10.766c0 .934.444 1.614 1.113 1.614.668 0 1.11-.708 1.112-1.613V16.278a1.67 2.15 0 0 0 .557-1.6 1.67 2.15 0 0 0-.246-1.119c.803-.613 1.384-1.457 1.631-2.352a.42.42 0 0 0 .284-.405c0-.235-.179-.425-.399-.425-.22 0-.4.19-.4.425 0 .129.055.243.14.32-.225.792-.746 1.539-1.46 2.09a1.67 2.15 0 0 0-1.22-.684 1.67 2.15 0 0 0-1.218.685c-.715-.552-1.236-1.299-1.461-2.09a.434.434 0 0 0 .14-.321c0-.234-.18-.425-.4-.425z" fill="#4f4f4f"/><path d="M-30.4 12.762c-2.765 0-5.008 2.652-5.008 5.923.002 2.539 1.372 4.794 3.405 5.606a5.505 5.505 0 0 0-.067.856c0 2.379 1.496 4.308 3.34 4.308 1.843 0 3.338-1.93 3.338-4.308v-6.462c0-3.271-2.242-5.923-5.007-5.923zm12.24 0c-2.765 0-5.007 2.652-5.007 5.923v6.462c0 2.379 1.495 4.308 3.339 4.308 1.843 0 3.34-1.93 3.34-4.308 0-.288-.024-.574-.068-.856 2.034-.812 3.403-3.067 3.405-5.606 0-3.271-2.242-5.923-5.009-5.923z" fill="#fff" stroke-width="1.258"/><ellipse rx="2.64" transform="matrix(.9686 -.24866 .26933 .96305 0 0)" ry="4.071" cy="11.003" cx="-34.281" fill="#ff85aa"/><ellipse rx="2.64" ry="4.071" transform="matrix(-.9686 -.24866 -.26933 .96305 0 0)" cy="23.081" cx="12.494" fill="#ff85aa"/><path d="M-27.552 25.486a2.02 1.547 73.663 0 1-.962 2.34 2.02 1.547 73.663 0 1-2.032-1.557 2.02 1.547 73.663 0 1 .962-2.34 2.02 1.547 73.663 0 1 2.032 1.557zM-21.007 25.486a1.547 2.02 16.337 0 0 .962 2.34 1.547 2.02 16.337 0 0 2.032-1.557 1.547 2.02 16.337 0 0-.963-2.34 1.547 2.02 16.337 0 0-2.031 1.557z" fill="#ff85aa"/><path d="M-30.808 15.148a4.07 2.639 73.487 0 0-.53.053 4.07 2.639 73.487 0 0-1.46 4.577 4.07 2.639 73.487 0 0 3.653 3.263 4.07 2.639 73.487 0 0 1.46-4.577 4.07 2.639 73.487 0 0-3.123-3.316zm13.057 0a2.639 4.07 16.513 0 0-3.124 3.316 2.639 4.07 16.513 0 0 1.46 4.577 2.639 4.07 16.513 0 0 3.654-3.263 2.639 4.07 16.513 0 0-1.461-4.577 2.639 4.07 16.513 0 0-.53-.053zm-11.525 8.742a2.02 1.547 73.663 0 0-.307.04 2.02 1.547 73.663 0 0-.963 2.339 2.02 1.547 73.663 0 0 2.031 1.557 2.02 1.547 73.663 0 0 .963-2.34 2.02 1.547 73.663 0 0-1.724-1.596zm9.992 0a1.547 2.02 16.337 0 0-1.723 1.596 1.547 2.02 16.337 0 0 .963 2.34 1.547 2.02 16.337 0 0 2.03-1.557 1.547 2.02 16.337 0 0-.962-2.34 1.547 2.02 16.337 0 0-.308-.039z" fill="#ff85aa"/></g></svg>