<svg xmlns="http://www.w3.org/2000/svg" height="32" width="32" version="1"><rect width="28.203" height="28.203" x="1.898" y="1.898" ry="5.575" fill="#15425b" fill-rule="evenodd"/><path d="M9.219 8.451c1.607 5.153 1.12 10.114-.09 15.009-.212.744.478.885.896.608l7.165-3.93 6.628-3.635c.512-.253.376-.877.002-1.04l-6.63-3.637-7.169-3.932c-.597-.293-.928.177-.802.557z" fill="#1a6f1a"/><path d="M10.031 24.09l1.287-.707-1.33-4.815a44.17 44.17 0 0 1-.781 4.457c-.036.15-.031.305-.068.455-.212.743.474.883.892.61z" fill="#64d943" fill-opacity=".605"/><path d="M11.314 23.363l-.002-.002-1.287.707h.004l1.285-.705z" fill="#1a6f1a"/><path d="M23.875 16.494c.233-.128.336-.332.32-.531a.583.583 0 0 0-.318-.465l-.72-.396.427 1.552.291-.16z" fill="#64d943"/><path d="M18.994 12.818l1.526 5.518 3.064-1.682-.428-1.552-4.162-2.284z" fill="#64d943" fill-opacity=".941"/><path d="M14.832 10.537l2.62 9.483 3.068-1.684-1.526-5.518-1.785-.978-2.377-1.303z" fill="#64d943" fill-opacity=".902"/><path d="M10.672 8.254L14.385 21.7l2.824-1.549.242-.132-2.619-9.483-4.16-2.283z" fill="#64d943" fill-opacity=".784"/><path d="M10.67 8.254L14.385 21.7 10.672 8.254h-.002z" fill="#64d943"/><path d="M14.379 21.678l-3.066 1.683.005.022 3.067-1.682-.006-.023z" fill="#64d943" fill-opacity=".706"/><path d="M10.006 7.889c-.285-.13-.513-.097-.65.027a.507.507 0 0 0-.131.531c.401 1.288.674 2.564.836 3.83.23 2.094.14 4.606-.073 6.291l1.325 4.793 3.066-1.683-3.71-13.424z" fill="#64d943" fill-opacity=".695"/></svg>