<svg xmlns="http://www.w3.org/2000/svg" width="32" height="32" version="1"><rect width="28.203" height="28.203" x="1.898" y="1.898" ry="5.575" fill="#303d75" fill-rule="evenodd"/><path d="M16 10a5 5 0 0 0-.438.021 4.667 4.667 0 0 0-.097.012A5 5 0 0 0 11 15a5 5 0 0 0 .002.037A3.5 3.5 0 0 0 8 18.5a3.5 3.5 0 0 0 .002.086 3.333 3.333 0 0 0-.002.08A3.333 3.333 0 0 0 11.334 22H20a4 4 0 0 0 4-4 4 4 0 0 0-3.08-3.883 5 5 0 0 0-4.24-4.064 4.667 4.667 0 0 0-.065-.01 5 5 0 0 0-.304-.027A4.667 4.667 0 0 0 16 10zm-.01 2.002c.052.001.103.002.154.006a2 2 0 0 0 .05.004c.06.003.12.01.18.017a2 2 0 0 0 .034.004 2.985 2.985 0 0 1 2.543 2.44 2 2 0 0 0 1.51 1.591 1.98 1.98 0 0 1 1.537 1.938A1.97 1.97 0 0 1 20 20h-8.666c-.76 0-1.334-.574-1.334-1.334v-.008a2 2 0 0 0 0-.142V18.5c0-.76.534-1.374 1.287-1.482A2 2 0 0 0 13 15.002a2.977 2.977 0 0 1 2.68-2.98 2 2 0 0 0 .045-.006l.023-.002c.08-.008.161-.011.242-.012z" fill="#5d8cb9"/></svg>