<svg xmlns="http://www.w3.org/2000/svg" width="32" height="32" version="1"><path d="M30.102 16.357l-16.975 8.727 2.58 5.018h8.82a5.561 5.561 0 0 0 5.575-5.575v-8.17z" fill="#00dd0e" fill-rule="evenodd"/><path d="M13.137 25.08L6.965 13.072l-5.067 2.604v8.851a5.561 5.561 0 0 0 5.575 5.575h8.234l-2.58-5.018.01-.004z" fill="#00a9ff" fill-rule="evenodd"/><path d="M18.873 6.95L6.965 13.071l6.172 12.008 11.91-6.123-6.174-12.008z" fill="#666" fill-rule="evenodd"/><path d="M1.898 15.676l16.975-8.727-2.596-5.05H7.473a5.561 5.561 0 0 0-5.575 5.574v8.203z" fill="#ff6a00" fill-rule="evenodd"/><path d="M16.277 1.898l8.77 17.059 5.055-2.6V7.473c0-.05-.027-.09-.028-.139-.077-3.02-2.507-5.436-5.547-5.436h-8.25z" fill="#bfff00" fill-rule="evenodd"/><circle cx="16" cy="16" r="9.5"/><circle cx="16" cy="16" r="7.821" fill="silver"/><circle r="7.114" cy="16" cx="16" fill="#727272"/><circle r="5.257" cy="16" cx="16" fill="#303030"/><circle cx="16" cy="16" r="3.224"/><circle cx="16.125" cy="15.75" r="1.5" fill="#fff"/><circle cx="18.875" cy="12.875" r="2.375" fill="#fff"/></svg>