<svg xmlns="http://www.w3.org/2000/svg" height="32" width="32" version="1"><rect width="28.203" height="28.203" x="1.898" y="1.898" ry="5.575" fill="#c2352a" fill-rule="evenodd"/><path d="M5.566 5.566v6.956h6.956V5.566zm8.695 0v3.478H16V7.305h1.739V5.566H16zM16 9.044v3.478h1.739V9.044zm0 3.478h-1.739v1.74H16zm0 1.74V16h1.739v-1.739zM17.739 16v1.739h3.478V14.26h-1.74V16zm3.478 1.739v1.739h1.739v1.739h1.739v-3.478zm3.478 0h1.739V14.26h-3.478V16h1.739zm-3.478 1.739h-1.74v1.739h1.74zm-1.74 1.739H17.74v1.739h1.739zm0 1.739v1.739h1.74v-1.74zm1.74 1.739v1.739h1.739v-1.74zm1.739 0h3.478v-1.74h-3.478zm-5.217-1.74H14.26v1.74H16v1.739h1.739v-1.74zm0-1.738v-3.478H14.26v1.739H16v1.739zm-3.478-3.478V14.26h-1.739V16h-1.739v1.739zM10.783 16v-1.739H5.566v3.478h3.478V16zm8.695-10.434v6.956h6.956V5.566zM7.305 7.306h3.478v3.477H7.305zm13.912 0h3.478v3.477h-3.478zm-13.042.869v1.739h1.739v-1.74zm13.911 0v1.739h1.74v-1.74zM5.566 19.478v6.956h6.956v-6.956zm1.74 1.739h3.477v3.478H7.305zm.869.87v1.738h1.739v-1.739z" fill="#fef7c0"/></svg>