<svg xmlns="http://www.w3.org/2000/svg" height="32" width="32" version="1"><rect width="28.203" height="28.203" x="1.898" y="1.898" ry="5.575" fill="#ececec" fill-rule="evenodd"/><path d="M11.531 24.723c-2.057-.406-3.81-1.302-3.506-1.793.096-.156.717-.457 1.379-.669.662-.211 1.326-.496 1.475-.633.425-.39-.253-1.357-1.69-2.412-4.32-3.172-3.068-9.37 2.385-11.799 1.291-.575 2.218-.719 4.671-.726 3.483-.011 5.457.653 7.358 2.474 2.99 2.867 3.068 6.223.224 9.694-1.454 1.775-1.479 2.582-.091 2.98 2.286.656.547 2.097-3.456 2.862-2.914.558-5.995.565-8.749.022zm10.03-.877c1.957-.522 2.302-.924 1.394-1.623-.934-.718-1.674-.738-2.691-.072-.506.331-2.19.65-4.668.886-3.726.353-4.736.75-3.155 1.243.991.309 7.495 0 9.12-.434zm.799-5.194c1.966-1.004 2.678-2.1 2.824-4.345.169-2.588-.558-3.824-2.983-5.074-2.482-1.279-5.81-1.511-7.968-.557-2.664 1.18-5.355 4.17-4.931 5.482.214.661 2.107 1.998 2.83 1.998.285 0 1.326-.906 2.314-2.014l1.796-2.013.002 2.127c.003 4.25 2.661 6.161 6.116 4.396zM21 15.894c.141-1.48.099-1.596-.665-1.788-.45-.113-1.039-.12-1.31-.016-.66.254-1.182-.103-.968-.66.255-.665 2.015-1.177 3.248-.946 2.17.407 2.372 2.282.447 4.126l-.905.867z" fill="#00008c"/></svg>