<svg xmlns="http://www.w3.org/2000/svg" height="32" width="32" version="1"><rect width="28.203" height="28.203" x="1.898" y="1.898" ry="5.575" fill="#7ec242" fill-rule="evenodd"/><g fill="#fff"><path d="M20.824 13.807h-.875l-.002-1.755h.877V9.42h2.63v2.632h1.755l.004 1.755h-1.755l-.004 4.285c0 .45.09.979 1.316.979h.44l.002 2.629s-2.809.006-2.808 0c-1.11.003-1.58-1.05-1.58-1.592v-6.301zM9.321 6.788c-1.267 0-2.534 1.23-2.534 2.458v10c0 1.228 1.267 2.455 2.534 2.455h2.591c.041.007.098-.021.139.05v2.215c0 .614.767 1.243 1.268 1.243 0 .006 3.12 0 3.12 0l-.003-2.629h-.584c-1.267 0-1.162-.401-1.162-.852 0-.024-.009 0-.014-.023l.014-.004h.968c1.267 0 2.534-1.227 2.534-2.455v-10c0-1.228-1.267-2.458-2.534-2.458h-3.144zm1.94 2.632h2.457c1.02 0 1.842.807 1.842 1.81v6.031c0 1.003-.821 1.81-1.842 1.81h-2.457c-1.02 0-1.842-.807-1.842-1.81V11.23c0-1.003.821-1.81 1.842-1.81z"/></g></svg>