<svg xmlns="http://www.w3.org/2000/svg" height="32" width="32" viewBox="-1250 -1050 160 160"><rect width="141.017" height="141.017" x="-1240.508" y="-1040.508" ry="27.876" fill="#1b61a4" fill-rule="evenodd"/><path style="line-height:normal;font-variant-ligatures:normal;font-variant-position:normal;font-variant-caps:normal;font-variant-numeric:normal;font-variant-alternates:normal;font-feature-settings:normal;text-indent:0;text-align:start;text-decoration-line:none;text-decoration-style:solid;text-decoration-color:#000;text-transform:none;text-orientation:mixed;white-space:normal;shape-padding:0;isolation:auto;mix-blend-mode:normal;solid-color:#000;solid-opacity:1" d="M-1170-1026.234c-8.86 0-16.651 3.671-21.73 9.46-5.078 5.79-7.556 13.386-7.556 21.212v46.146h15v-46.146c0-4.651 1.483-8.641 3.832-11.318 2.348-2.678 5.452-4.354 10.455-4.354s8.104 1.676 10.453 4.354c2.348 2.677 3.832 6.667 3.832 11.318v46.146h15v-46.146c0-7.826-2.478-15.422-7.557-21.211-5.078-5.79-12.868-9.461-21.728-9.461z" color="#000" font-weight="400" font-family="sans-serif" overflow="visible" fill="#e6e6e6"/><path d="M-1170-913.766l-36.733-37.993A23.35 24.15 0 1 1-1170-980.91a23.35 24.15 0 1 1 36.732 29.152z" fill="#f9f9f9"/><g transform="matrix(.7922 0 0 .7922 -243.117 -200.779)" stroke-width="1.262" fill="#272727"><circle r="10" cy="960" transform="scale(1 -1)" cx="-1170"/><path d="M-1170.333-959.75L-1180-930h20l-10-29.75z"/></g></svg>