<svg xmlns="http://www.w3.org/2000/svg" width="32" height="32" version="1"><rect width="28.203" height="28.203" x="1.898" y="1.898" ry="5.575" fill="#c2352a" fill-rule="evenodd"/><path d="M4.783 4.783v7.478h7.478V4.783zm9.348 0v3.74H16v-1.87h1.87v-1.87H16zM16 8.523v3.738h1.87V8.522zm0 3.738h-1.87v1.87H16zm0 1.87V16h1.87v-1.87zM17.87 16v1.87h3.738v-3.74h-1.87V16zm3.738 1.87v1.869h1.87v1.87h1.87v-3.74zm3.74 0h1.869v-3.74h-3.74V16h1.87zm-3.74 1.869h-1.87v1.87h1.87zm-1.87 1.87H17.87v1.869h1.87zm0 1.869v1.87h1.87v-1.87zm1.87 1.87v1.869h1.87v-1.87zm1.87 0h3.739v-1.87h-3.74zm-5.609-1.87h-3.738v1.87H16v1.869h1.87v-1.87zm0-1.87V17.87h-3.738v1.87H16v1.87zm-3.738-3.739v-3.738h-1.87V16h-1.87v1.87zM10.39 16v-1.87H4.784v3.74h3.74V16zM19.74 4.783v7.478h7.478V4.783zM6.653 6.653h3.739v3.739h-3.74zm14.955 0h3.74v3.739h-3.74zm-14.02.934v1.87h1.869v-1.87zm14.955 0v1.87h1.87v-1.87zM4.783 19.74v7.478h7.478v-7.478zm1.87 1.87h3.739v3.738h-3.74zm.934.934v1.87h1.87v-1.87z" opacity=".5"/></svg>