<svg xmlns="http://www.w3.org/2000/svg" height="32" width="32" version="1"><defs><radialGradient id="a" fx="143.62" fy="122.04" gradientUnits="userSpaceOnUse" cy="109.06" cx="198.31" gradientTransform="matrix(.09448 -.0082 .00975 .12744 4.043 -1.167)" r="63.508"><stop stop-opacity=".667" stop-color="#1d1100" offset="0"/><stop stop-opacity=".302" stop-color="#4f340c" offset=".527"/><stop stop-opacity="0" stop-color="#3d3001" offset="1"/></radialGradient></defs><rect width="28.203" height="28.203" x="1.898" y="1.898" ry="5.575" fill="#8f704f" fill-rule="evenodd"/><g transform="matrix(.77623 0 0 .77623 2.804 3.58)" stroke-width="1.288"><path d="M18.333 9L19 15.316s-4.412-.54-6 .632C11.502 17.052 11 21 11 21H9s.125-4.5 1.333-6.316c1.777-2.672 8-5.684 8-5.684z" fill="#c6ae91"/><ellipse cx="19.899" cy="17.409" ry="8.587" transform="matrix(.96315 -.26898 .24899 .96851 0 0)" rx="6.373" fill="#d1bda5"/><path d="M18.793 4.554c-1.593 1.598-1.81 6.088.094 10.762 1.89 4.605 7.625 4.158 9.052 2.527 1.44-1.562 3.47-5.477-.26-11.081-3.704-5.467-7.242-3.82-8.886-2.21z" fill="url(#a)" fill-rule="evenodd"/><rect x="7" y="19" width="11" height="1" ry="1" rx="1.322" fill="#0b0b0b"/><path d="M5.308 20h14.384c.725 0 1.308.502 1.308 1.125v6.75c0 .623-.583 1.125-1.308 1.125H5.308C4.583 29 4 28.498 4 27.875v-6.75C4 20.502 4.583 20 5.307 20z" fill="#c6ae91"/><rect x="7" y="21" width="11" height="7" ry=".875" rx=".846" fill="#c69191"/></g></svg>