<svg xmlns="http://www.w3.org/2000/svg" height="32" width="32" version="1"><rect width="28.203" height="28.203" x="-30.116" y="1.857" ry="5.575" transform="rotate(-90)" fill="#f2f2f2" fill-rule="evenodd"/><path d="M14.53 1.912l-1.078.404-3.345 1.256 1.254 3.346 3.345-1.254 3.344-1.256 3.346-1.254 3.215-1.207c-.062-.002-.113-.035-.174-.035z" fill="#fecd38" fill-rule="evenodd"/><path d="M13.58 12.533l3.382 1.144 3.385 1.145 3.385 1.144 1.144-3.384-3.385-1.145 1.145-3.385-3.385-1.146-1.144 3.387-3.383-1.145z" fill="#8ebcd3" fill-rule="evenodd"/><path d="M3.946 6.5l2.196 2.818 2.193 2.82 2.819-2.193-2.194-2.82-2.195-2.82zM12.439 30.2v-3.502H5.294v3.014c.667.284 1.375.488 2.15.488z" fill="#ce4e4f" fill-rule="evenodd"/><path d="M16.01 30.2v-7.074H8.867v3.572h3.573V30.2z" fill="#30a446" fill-rule="evenodd"/><path d="M19.583 30.2V19.552h-3.572V30.2z" fill="#ffb426" fill-rule="evenodd"/><path d="M26.728 29.725v-6.601h-7.145V30.2H24.5c.796 0 1.545-.177 2.229-.475z" fill="#ce224f" fill-rule="evenodd"/><path d="M30.073 23.126H26.73V29.723a5.55 5.55 0 0 0 3.343-5.097z" fill="#fecd38" fill-rule="evenodd"/><path d="M26.73 23.126h-.002v6.599l.002-.002v-3.025z" fill="#4d4d4d" fill-rule="evenodd"/><path d="M30.073 15.977H26.73v3.575h-7.147v3.572h7.144v.002h3.346z" fill="#0890d5" fill-rule="evenodd"/><path d="M5.294 29.712v-3.014H2.288c.55 1.376 1.65 2.435 3.006 3.014z" fill="#30a4ee" fill-rule="evenodd"/><path d="M2.288 26.698H8.866v-3.572H5.294v-3.574H1.87v5.074c0 .736.161 1.43.418 2.072z" fill="#ce4e4f" fill-rule="evenodd"/></svg>