<?xml version="1.0" encoding="UTF-8" standalone="no"?>
<svg
   xmlns:dc="http://purl.org/dc/elements/1.1/"
   xmlns:cc="http://creativecommons.org/ns#"
   xmlns:rdf="http://www.w3.org/1999/02/22-rdf-syntax-ns#"
   xmlns:svg="http://www.w3.org/2000/svg"
   xmlns="http://www.w3.org/2000/svg"
   xmlns:xlink="http://www.w3.org/1999/xlink"
   height="32"
   width="32"
   version="1"
   id="svg6">
  <metadata
     id="metadata12">
    <rdf:RDF>
      <cc:Work
         rdf:about="">
        <dc:format>image/svg+xml</dc:format>
        <dc:type
           rdf:resource="http://purl.org/dc/dcmitype/StillImage" />
        <dc:title></dc:title>
      </cc:Work>
    </rdf:RDF>
  </metadata>
  <defs
     id="defs10">
    <linearGradient
       xlink:href="#2"
       id="1"
       x1="-188.02"
       y1="-134.17999"
       x2="-190.66"
       y2="-126.24"
       gradientUnits="userSpaceOnUse" />
    <linearGradient
       id="2">
      <stop
         stop-color="#f9f9f9"
         id="stop12" />
      <stop
         offset="1"
         stop-color="#999"
         id="stop14" />
    </linearGradient>
    <linearGradient
       id="3"
       x1="-189.8"
       y1="-142.57001"
       x2="-175.35001"
       y2="-130.39999"
       gradientUnits="userSpaceOnUse">
      <stop
         stop-color="#ff383f"
         id="stop7" />
      <stop
         offset="1"
         stop-color="#a02d26"
         id="stop9" />
    </linearGradient>
    <linearGradient
       id="4"
       x1="-178.12"
       y1="-134.12"
       x2="-183.59"
       y2="-135.10001"
       gradientUnits="userSpaceOnUse">
      <stop
         stop-color="#7c0000"
         id="stop2" />
      <stop
         offset="1"
         stop-color="#7c0000"
         stop-opacity="0"
         id="stop4" />
    </linearGradient>
    <radialGradient
       xlink:href="#2"
       id="5"
       cx="-176.59"
       cy="-120.91"
       r="3.01"
       gradientUnits="userSpaceOnUse"
       gradientTransform="matrix(2.21087,0.05719,-0.05496,2.12455,207.3,145.17)" />
  </defs>
  <g
     id="g29"
     transform="matrix(0.99998624,0,0,1,0.10002476,-0.10061181)">
    <rect
       style="fill:#4b4b4b;fill-opacity:1;fill-rule:evenodd;stroke:none;stroke-width:0;stroke-linecap:round;stroke-linejoin:bevel;stroke-miterlimit:4;stroke-dasharray:none;stroke-dashoffset:0;stroke-opacity:1"
       width="28.203388"
       height="28.203388"
       x="1.798"
       y="1.9986118"
       ry="5.575182"
       id="rect2" />
    <path
       style="fill:#ffd2a9;fill-opacity:1;stroke-width:0.692612"
       d="M 13.498047,8 A 5.9960768,5.7803259 0 0 0 10,13.246094 a 5.9960768,5.7803259 0 0 0 4.982422,5.695312 v 2.882813 L 15.962891,25 16.945312,21.824219 V 18.953125 A 5.9960768,5.7803259 0 0 0 21.992187,13.246094 5.9960768,5.7803259 0 0 0 18.49414,8.0039062 v 0.1132813 a 4.9967307,4.8169383 0 0 1 2.498047,4.1660155 4.9967307,4.8169383 0 0 1 -4.046875,4.728516 V 15 l 0.783203,-1.027344 H 16.845703 15.080078 14.197266 L 14.982422,15 v 1.998047 A 4.9967307,4.8169383 0 0 1 11,12.283203 4.9967307,4.8169383 0 0 1 13.498047,8.1191406 Z"
       id="path4" />
  </g>
</svg>
