<svg xmlns="http://www.w3.org/2000/svg" height="32" width="32" version="1"><defs><linearGradient id="a"><stop stop-color="#f9f9f9"/><stop offset="1" stop-color="#999"/></linearGradient></defs><g transform="matrix(.99999 0 0 1 .1 -.1)"><rect width="28.203" height="28.203" x="1.798" y="1.999" ry="5.575" fill="#4b4b4b" fill-rule="evenodd"/><path d="M13.498 8A5.996 5.78 0 0 0 10 13.246a5.996 5.78 0 0 0 4.982 5.695v2.883l.98 3.176.983-3.176v-2.87a5.996 5.78 0 0 0 5.047-5.708 5.996 5.78 0 0 0-3.498-5.242v.113a4.997 4.817 0 0 1 2.498 4.166 4.997 4.817 0 0 1-4.047 4.729V15l.784-1.027h-3.532L14.982 15v1.998A4.997 4.817 0 0 1 11 12.283a4.997 4.817 0 0 1 2.498-4.164z" fill="#ffd2a9"/></g></svg>