<svg xmlns="http://www.w3.org/2000/svg" height="32" width="32" version="1"><rect width="28.203" height="28.203" x="1.898" y="1.898" ry="5.575" fill="#f2f2f2" fill-rule="evenodd"/><path d="M13.114 5.693a4.535 4.535 0 1 0 0 9.07 4.516 4.516 0 0 0 1.237-.177v10.072c0 1.649 1.649 1.649 3.298 1.649 5.772 0 5.772-6.871 5.772-9.07-.825.824-5.772 6.596-5.772 2.198 0-3.118.02-6.264 0-9.37a4.542 4.542 0 0 0-4.535-4.372z" fill="#4f4f4f"/><path d="M13.114 8.991a1.237 1.237 0 0 1 1.237 1.237 1.237 1.237 0 0 1-1.237 1.237 1.237 1.237 0 0 1-1.237-1.237 1.237 1.237 0 0 1 1.237-1.237z" fill="#fff"/></svg>