<svg xmlns="http://www.w3.org/2000/svg" height="32" width="32" version="1"><g fill-rule="evenodd"><path d="M1.898 23.422c1.555-1.727 3.122-3.255 4.707-4.5 1.702-1.336 3.422-2.409 5.165-3.244a24.06 24.06 0 0 1 5.292-1.826c1.787-.39 3.598-.57 5.434-.57 1.01 0 2.281.452 3.305.55-1.637-.72-4.594-2.372-8.006-3.846-1.706-.736-3.525-1.428-5.35-1.935-1.824-.508-3.653-.832-5.379-.832-.964 0-1.886.032-2.795.185-.793.135-1.579.423-2.373.803z" fill="#fff"/><path d="M13.678 17.139a8.908 8.908 0 0 0-2.432.527 12.26 12.26 0 0 0-2.264 1.115c-1.458.903-2.821 2.085-4.12 3.317 1.557-.617 3.021-1.004 4.402-1.139 1.38-.135 2.676-.02 3.896.367.422.134 1.683.698 2.8 1.254 1.42.705 2.479 1.179 3.43 1.508a13.24 13.24 0 0 0 2.782.639c1.178.12 2.332.032 3.482-.165 1.15-.196 2.294-.501 3.453-.812l-2.662-.943c-1.242-.53-2.748-1.336-4.896-2.578-1.454-.785-2.718-1.607-3.97-2.208a9.791 9.791 0 0 0-1.893-.703 6.449 6.449 0 0 0-2.008-.18z" fill="#7ed1f3"/><path d="M7.473 1.898a5.563 5.563 0 0 0-5.575 5.577v.732c.794-.38 1.58-.668 2.373-.803.909-.153 1.831-.185 2.795-.185 1.726 0 3.555.324 5.38.832 1.824.507 3.643 1.199 5.349 1.935 3.412 1.474 6.37 3.126 8.006 3.846-1.024-.098-2.296-.55-3.305-.55-1.836 0-3.647.18-5.434.57-1.786.39-3.55.99-5.292 1.826-1.743.835-3.463 1.907-5.165 3.244-1.585 1.245-3.152 2.773-4.707 4.5v1.105a5.561 5.561 0 0 0 5.575 5.575h17.052a5.563 5.563 0 0 0 5.577-5.575V7.475a5.565 5.565 0 0 0-5.577-5.577zm6.205 15.24a6.449 6.449 0 0 1 2.008.18 9.791 9.791 0 0 1 1.892.703c1.253.601 2.517 1.423 3.97 2.208 2.149 1.242 3.655 2.048 4.897 2.578l2.662.943c-1.159.311-2.303.616-3.453.812-1.15.197-2.304.284-3.482.165a13.24 13.24 0 0 1-2.781-.64c-.952-.328-2.012-.802-3.43-1.507-1.118-.556-2.38-1.12-2.8-1.254-1.221-.387-2.517-.502-3.897-.367s-2.845.522-4.403 1.139c1.3-1.232 2.663-2.414 4.121-3.317a12.26 12.26 0 0 1 2.264-1.115 8.908 8.908 0 0 1 2.432-.527z" fill="#0286c2"/></g></svg>