<svg xmlns="http://www.w3.org/2000/svg" height="32" width="32" version="1"><rect width="28.203" height="28.203" x="1.898" y="1.898" ry="5.575" fill="#02a8f3" fill-rule="evenodd"/><path d="M17.5 6c-.553 0-1 .446-1 1v7.185l-1.062 1.063A5 5 0 0 0 10.5 11a5 5 0 0 0-5 5 5 5 0 0 0 5 5 5 5 0 0 0 3-1.008V25c0 .554.446 1 1 1s1-.446 1-1v-6.986l1.09-1.09A5 5 0 0 0 21.5 21a5 5 0 0 0 5-5 5 5 0 0 0-5-5 5 5 0 0 0-3 1.008V7c0-.554-.446-1-1-1zm-7 7a3 3 0 0 1 3 3 3 3 0 0 1-3 3 3 3 0 0 1-3-3 3 3 0 0 1 3-3zm11 0a3 3 0 0 1 3 3 3 3 0 0 1-3 3 3 3 0 0 1-3-3 3 3 0 0 1 3-3z" fill="#015479"/></svg>