<svg xmlns="http://www.w3.org/2000/svg" height="32" width="32" version="1"><rect width="28.203" height="28.203" x="1.898" y="1.898" ry="5.575" fill="#c4c4c4" fill-rule="evenodd"/><circle r="9" cx="16" cy="16" fill="#3f3f3f"/><circle r="7" cx="16" cy="-16" transform="scale(1 -1)" fill="#ba174e"/><circle r="4" cx="16" cy="16" fill="#d67495"/><g transform="translate(6.49 6.154)"><circle r="6" cy="16" cx="16" fill="#55cc98"/><path d="M15.243 13l-.066.79a2.378 2.357 0 0 0-.696.398l-.724-.338-.757 1.3.658.452a2.378 2.357 0 0 0-.036.398 2.378 2.357 0 0 0 .034.4l-.656.45.757 1.3.723-.338a2.378 2.357 0 0 0 .696.396l.067.792h1.514l.066-.79a2.378 2.357 0 0 0 .696-.398l.724.338.757-1.3-.658-.452a2.378 2.357 0 0 0 .036-.398 2.378 2.357 0 0 0-.034-.4l.656-.45-.757-1.3-.723.338a2.378 2.357 0 0 0-.697-.396L16.757 13h-1.514zM16 15.143a.865.857 0 0 1 .865.857.865.857 0 0 1-.865.857.865.857 0 0 1-.865-.857.865.857 0 0 1 .865-.857z" fill="#fff"/></g></svg>