<svg xmlns="http://www.w3.org/2000/svg" height="32" width="32" version="1"><rect width="28.203" height="28.203" x="1.898" y="1.898" ry="5.575" fill="#81d547" fill-rule="evenodd"/><path d="M16.017 8c1.753.004 3.531.529 4.92 1.567.976 1.08-.884 2.236-1.722 1.183-2.522-1.465-6.079-.949-7.976 1.242a5.884 5.884 0 0 0-1.572 3.994h1.667l-2.667 3.84L6 15.986h1.667C7.614 12.508 10.218 9.2 13.715 8.3a8.71 8.71 0 0 1 2.302-.3zm7.317 4.16L26 16.003h-1.667c.047 3.519-2.624 6.863-6.181 7.716-2.401.644-5.116.174-7.089-1.299-1.007-1.097.88-2.243 1.725-1.18 2.443 1.423 5.865.972 7.794-1.061 1.117-1.105 1.76-2.636 1.751-4.176h-1.667l2.667-3.84z" fill="#fff"/><g transform="matrix(.75 0 0 .75 4.378 4.792)" stroke-width="1.333"><circle r="8" cy="23" cx="24" fill="#f34235"/><g fill="#fff"><path d="M19.553 20h6.25c.446 0 .446.429.446.429v5.142c0 .428-.448.428-.448.428h-6.249s-.447 0-.447-.429v-5.142s0-.428.447-.428z"/><path d="M29.105 20.5V25l-3-2.348z"/></g></g></svg>