<svg xmlns="http://www.w3.org/2000/svg" height="32" width="32" version="1"><rect width="28.203" height="28.203" x="1.898" y="1.898" ry="5.575" fill="#2095f2" fill-rule="evenodd"/><path d="M9.91 26.4c-2.943-.977-3.884-3.664-1.749-4.991.717-.446 2.226-.441 3.199.009.395.183.778.272.85.199.175-.179.502-1.979 1.278-7.031.67-4.357.773-5.853.468-6.745-.136-.398-.131-.585.02-.77.498-.613 4.878-1.573 7.17-1.571 1.885.002 2.912.538 3.579 1.872 1.135 2.27-1.344 6.17-5.593 8.798l-.448.277.347.7c.675 1.364 2.052 3.374 2.88 4.205.461.463.839.927.839 1.03 0 .114-.31.188-.787.188-1.541 0-3.132-1.152-5.26-3.81-.328-.408-.633-.704-.68-.657-.046.047-.305 1.24-.577 2.65-.627 3.256-1.18 4.485-2.343 5.208-.611.379-1.015.5-1.788.532-.55.024-1.182-.018-1.405-.092zm8.695-13.366c1.252-.906 2.324-1.965 2.99-2.954.428-.633.597-.765.883-.687.244.066.203.006-.135-.196-.836-.502-4.478-.248-4.933.343-.175.229-.835 4.443-.724 4.628.087.145.435-.06 1.919-1.134z" fill="#fff"/></svg>