<svg xmlns="http://www.w3.org/2000/svg" height="32" width="32" version="1"><rect width="28.203" height="28.203" x="1.898" y="1.898" ry="5.575" fill="#4c636b" fill-rule="evenodd"/><circle cy="15" cx="11" r="7" fill="#3d4f56"/><path d="M6.05 10.05a7 7 0 0 0-.652.762l2.159 2.159a4 4 0 0 0 .615 4.857 4 4 0 0 0 4.855.613l2.159 2.159a7 7 0 0 0 .764-.65 7 7 0 0 0 .652-.763l-2.16-2.158a4 4 0 0 0-.614-4.857 4 4 0 0 0-4.856-.614L6.814 9.4a7 7 0 0 0-.764.651z" fill="#ee5858"/><circle cy="15" cx="11" r="2" fill="#f3c4c4"/><rect rx="1" ry="1" height="2" width="8" y="9" x="20" fill="#3d4f56"/><circle cy="22.5" cx="26.5" r="1.5" fill="#58c4ee"/><circle cy="22.5" cx="22.5" r="1.5" fill="#58c4ee"/><rect rx="1" ry="1" height="2" width="8" y="12" x="20" fill="#3d4f56"/><rect rx="1" ry="1" height="2" width="8" y="15" x="20" fill="#3d4f56"/><rect rx="1" ry="1" height="2" width="8" y="18" x="20" fill="#3d4f56"/></svg>