<svg xmlns="http://www.w3.org/2000/svg" height="32" width="32" version="1"><rect width="28.203" height="28.203" x="1.898" y="1.898" ry="5.575" fill="#cd8652" fill-rule="evenodd"/><path d="M22.222 10.832c.368-.326.866-.404 1.238-.217l.072-.07c.224-.535.629-1.127 1.19-1.673.562-.546 1.17-.94 1.72-1.159l.242-.235c.134-.13.053-.42-.181-.648l-1.376-1.338c-.233-.228-.53-.308-.662-.179l-.24.233c-.223.537-.63 1.132-1.194 1.681-.564.549-1.175.945-1.727 1.162l-.05.048c.237.367.163.89-.19 1.268l-3.695 3.573c-.16-.01-.417-.135-.76-.654-.615-.926-2.05-1.454-3.231.54-1.182 1.994-.202 2.324-3.567 2.704v.001c-1.187.064-2.313.506-3.172 1.341-2.036 1.983-1.804 5.422.519 7.683s5.859 2.487 7.895.505c.037-.036.072-.073.107-.11v.001l.036-.038c.163-.174.31-.357.44-.55.524-.723 1.273-2.025 1.105-3.385-.253-2.052 1.724-1.959 2.544-2.475.82-.516 1.109-.961 1.132-1.478 0 0-.976.669-1.868-.2-.717-.697-.398-1.885-.089-2.515l3.761-3.816z" fill="#fff" stroke-width="1.396"/></svg>