<svg xmlns="http://www.w3.org/2000/svg" height="32" width="32" version="1"><rect width="28.203" height="28.203" x="1.898" y="1.898" ry="5.575" fill="#5a4080" fill-rule="evenodd"/><g fill-rule="evenodd"><path d="M17.896 30.102c.165-.72.355-1.379.42-2.323.099-1.42.085-2.818-.04-3.351-.168-.657-.599-1.837-.57-1.883.028-.046.733.025 1.331.025.707 0 1.225.026 1.6-.088.317-.096.695-.251.92-.24.5.025 1.066-.076 1.548-.295.483-.218.882-.553 1.05-.998.103-.276.539-.632.654-.79.188-.26.286-.474.166-.882-.17-.576-.867-.914-1.604-1.586-.558-.51-.837-.564-.865-1.109-.02-.4.086-.68-.131-.885-.246-.232-.87-.083-.91-.088-.13-.15-.255-.304-.29-.474-.034-.17.023-.357.26-.574.36-.33.57-.476.57-.836 0-.354-.208-.457-.52-.73-.207-.182-.427-.329-.493-.329-.065 0-.398-.264-.736-.586-.328-.312-.608-.446-.87-.502-.26-.056-.504-.033-.76-.033a.517.517 0 0 1-.464-.275c-.104-.176-.156-.426-.156-.725.275-.996.818-1.88 1.396-2.574s1.191-1.196 1.604-1.426a4.78 4.78 0 0 0-2.764.416c-.815.38-1.543.955-2.236 1.584-.065-.73.92-2.524 1-2.998-.74.388-1.322 1.058-1.803 1.795-.48.738-.86 1.542-1.195 2.203-.426-.576-.335-1.784-.5-2.5-.655.862-1.126 2.035-1.5 3.207-.374 1.172-.65 2.345-.914 3.207-.374 1.226-.798 2.216-1.3 3.008-.5.792-1.078 1.386-1.757 1.824-.807.52-1.53.788-3.094 1.143-.243.072-1.796.616-3.045 1.05v4.043a5.563 5.563 0 0 0 5.577 5.575z" fill="#7abccb"/><path d="M7.475 1.898a5.565 5.565 0 0 0-5.577 5.577v13.01c1.25-.435 2.802-.98 3.045-1.051 1.564-.355 2.287-.622 3.094-1.143.68-.438 1.257-1.032 1.758-1.824.501-.792.925-1.782 1.299-3.008.263-.862.54-2.035.914-3.207.374-1.172.845-2.345 1.5-3.207.165.716.074 1.924.5 2.5.335-.66.714-1.465 1.195-2.203.48-.737 1.063-1.407 1.803-1.795v-.002.002c-.08.474-1.065 2.267-1 2.998.693-.63 1.42-1.204 2.236-1.584a4.78 4.78 0 0 1 2.764-.416c-.413.23-1.026.732-1.604 1.426-.578.693-1.121 1.578-1.396 2.574 0 .299.052.55.156.725a.517.517 0 0 0 .465.275c.255 0 .498-.023.76.033.261.056.54.19.869.502.338.322.67.586.736.586.066 0 .286.147.492.328.313.274.522.377.522.73 0 .36-.21.508-.57.837-.238.217-.295.403-.26.574.034.17.16.324.289.474.04.005.664-.144.91.088.217.205.11.484.13.885.029.545.308.6.866 1.11.737.671 1.434 1.01 1.604 1.585.12.408.022.622-.166.881-.115.159-.551.515-.655.791-.167.445-.566.78-1.049.998-.482.219-1.049.32-1.548.295-.225-.011-.603.144-.92.24-.375.114-.893.088-1.6.088-.598 0-1.303-.071-1.332-.025-.028.046.403 1.226.57 1.883.126.533.14 1.93.041 3.351-.065.944-.255 1.603-.42 2.323h6.631a5.561 5.561 0 0 0 5.575-5.575V7.475a5.563 5.563 0 0 0-5.575-5.577z" fill="#5a4080"/></g></svg>