<svg xmlns="http://www.w3.org/2000/svg" height="32" width="32"><path d="M15.701 20.463c-1.257 0-2.478.251-3.387.726-.454.238-.83.533-1.091.88-.262.346-.41.744-.41 1.193 0 .449.224.957.601 1.467.377.509.905 1.02 1.512 1.474a9.252 9.252 0 0 0 1.982 1.139c.691.285 1.387.455 2.016.455.503 0 .985-.216 1.424-.559.438-.342.833-.812 1.166-1.318.665-1.013 1.078-2.174 1.078-2.77 0-.318-.148-.643-.41-.955-.262-.311-.638-.608-1.092-.865-.908-.513-2.132-.867-3.389-.867zM24.26 11.934c-.675 0-1.288.203-1.73.533-.443.33-.716.784-.716 1.287 0 .503.273.958.715 1.287.443.33 1.056.533 1.73.533.676 0 1.287-.204 1.73-.533.442-.33.714-.784.714-1.287 0-.503-.272-.958-.715-1.287-.442-.33-1.053-.533-1.728-.533z" fill="#ccc" fill-rule="evenodd"/><path d="M29.033 4.361c-.315.264-1.22 1.055-3.217 2.33a39.836 39.836 0 0 1-4.056 2.276 31.171 31.171 0 0 1-5.008 1.935 9.39 9.39 0 0 1-.66 1.752 8.353 8.353 0 0 1-1.309 1.934 6.674 6.674 0 0 1-2.113 1.564c-.857.399-1.875.645-3.08.645a7.892 7.892 0 0 1-1.94-.23 6.473 6.473 0 0 1-1.574-.622c-.936-.522-1.654-1.236-2.205-2.01a9.635 9.635 0 0 1-1.203-2.36 12.684 12.684 0 0 1-.508-1.901c-.119-.086-.142-.13-.262-.235v15.088a5.561 5.561 0 0 0 5.575 5.575h17.054a5.561 5.561 0 0 0 5.575-5.575V7.473c0-1.181-.447-2.212-1.069-3.112zm-4.773 7.573c.675 0 1.286.203 1.728.533.443.33.715.784.715 1.287 0 .503-.272.958-.715 1.287-.442.33-1.053.533-1.728.533s-1.288-.204-1.73-.533c-.443-.33-.716-.784-.716-1.287 0-.503.273-.958.715-1.287.443-.33 1.056-.533 1.73-.533zM15.7 20.463c1.257 0 2.48.354 3.389.867.454.257.83.554 1.092.865.262.312.41.637.41.955 0 .596-.413 1.757-1.078 2.77-.333.506-.728.976-1.166 1.318-.439.343-.92.559-1.424.559-.629 0-1.325-.17-2.016-.455a9.252 9.252 0 0 1-1.982-1.139c-.607-.455-1.135-.965-1.512-1.474-.377-.51-.601-1.018-.601-1.467 0-.45.148-.847.41-1.194.262-.346.637-.64 1.091-.879.909-.475 2.13-.726 3.387-.726z" fill="#4f4f4f" fill-rule="evenodd"/><path d="M28.229 3.363c-.279.235-1.961 1.688-5.061 3.412-1.67.93-3.648 1.869-5.822 2.594a27.154 27.154 0 0 1-3.395.9 22.514 22.514 0 0 1-3.605.415 13.258 13.258 0 0 1-3.508-.344 12.44 12.44 0 0 1-2.48-.88c-1.267-.603-2.359-1.673-2.46-1.77v1.75c.12.104.143.148.262.234.087.466.24 1.145.508 1.9a9.635 9.635 0 0 0 1.203 2.362c.551.773 1.27 1.487 2.205 2.01.468.26.991.473 1.574.62.584.148 1.228.23 1.94.23 1.205 0 2.223-.245 3.08-.644a6.674 6.674 0 0 0 2.113-1.564 8.353 8.353 0 0 0 1.309-1.934c.319-.644.53-1.26.66-1.752a31.171 31.171 0 0 0 5.008-1.935 39.836 39.836 0 0 0 4.056-2.276c1.997-1.275 2.902-2.066 3.217-2.33-.247-.358-.482-.708-.804-.998z" fill="#ccc" fill-rule="evenodd"/><path d="M7.473 1.898a5.561 5.561 0 0 0-5.575 5.575v.216c.101.098 1.193 1.168 2.46 1.772a12.44 12.44 0 0 0 2.48.879c.995.237 2.16.386 3.508.344a22.514 22.514 0 0 0 3.605-.414 27.154 27.154 0 0 0 3.395-.9c2.174-.726 4.152-1.666 5.822-2.595 3.1-1.724 4.782-3.177 5.06-3.412-.986-.887-2.263-1.465-3.7-1.465H7.472z" fill="#4f4f4f" fill-rule="evenodd"/></svg>