<svg xmlns="http://www.w3.org/2000/svg" width="32" height="32" version="1"><rect width="28.203" height="28.203" x="1.898" y="-30.102" ry="5.575" transform="rotate(90)" fill="#0074af" fill-rule="evenodd"/><path d="M30.102 8.287v-.814a5.561 5.561 0 0 0-5.575-5.575H7.473a5.561 5.561 0 0 0-5.575 5.575v.814h4.19c.47 0 .848.378.848.848v13.73c0 .47-.378.848-.848.848h-4.19v.814a5.561 5.561 0 0 0 5.575 5.575h17.054a5.561 5.561 0 0 0 5.575-5.575v-.814h-4.078a.846.846 0 0 1-.848-.848V9.135c0-.47.378-.848.848-.848zm-8.979.848v13.73c0 .47-.378.848-.848.848h-8.55a.846.846 0 0 1-.848-.848V9.135c0-.47.378-.848.848-.848h8.55c.47 0 .848.378.848.848z" fill="#5b5b5b" fill-rule="evenodd"/><g fill="#fff" stroke-width="1.09"><g stroke="#4e4e4e" stroke-width=".218" stroke-linecap="round" transform="matrix(0 .91725 -.91742 0 30.884 -35.18)"><rect ry=".449" y="8.693" x="42.15" height="2.672" width="3.671"/><rect ry=".449" y="16.953" x="42.15" height="2.672" width="3.671"/><rect ry=".449" y="21.083" x="42.15" height="2.672" width="3.671"/><rect ry=".449" y="25.213" x="42.15" height="2.672" width="3.671"/><rect ry=".449" y="12.823" x="42.15" height="2.672" width="3.671"/><rect ry=".449" y="4.563" x="42.15" height="2.672" width="3.671"/></g><g stroke="#4e4e4e" stroke-width=".218" stroke-linecap="round" transform="matrix(0 .91725 -.91742 0 30.884 -35.18)"><rect width="3.671" height="2.672" x="65.774" y="8.693" ry=".449"/><rect width="3.671" height="2.672" x="65.774" y="16.953" ry=".449"/><rect width="3.671" height="2.672" x="65.774" y="21.083" ry=".449"/><rect width="3.671" height="2.672" x="65.774" y="25.213" ry=".449"/><rect width="3.671" height="2.672" x="65.774" y="12.823" ry=".449"/><rect width="3.671" height="2.672" x="65.774" y="4.563" ry=".449"/></g></g><path d="M3.5-10.359c-.014-.438-.025-1.539-.025-2.447v-1.651H3.37a3.44 3.44 0 0 1-2.965-2.755c-.053-.284-.06-.674-.049-3.108C.37-23.366.36-23.216.6-23.8c.35-.846 1.073-1.561 1.905-1.884.612-.237.352-.228 6.13-.216l5.255.01.276.086c1.287.398 2.216 1.433 2.437 2.716.05.29.057.732.047 3.063-.012 2.676-.014 2.729-.095 3.025-.183.66-.623 1.354-1.116 1.76-.436.358-.817.552-1.408.716-.282.079-.373.082-2.687.095l-2.395.014-.808.723A18862.776 18862.776 0 0 0 3.657-9.68l-.133.117z" fill="#fff"/><path d="M1.898 23.713h4.497c.3 0 .54-.378.54-.848V9.135c0-.47-.24-.848-.54-.848H1.898z" fill="#779dc6" fill-rule="evenodd"/><path d="M30.102 8.287h-4.397c-.293 0-.529.378-.529.848v13.73c0 .47.236.848.53.848h4.396z" fill="#ef2929" fill-rule="evenodd"/><path d="M25.99 6.822c0-.628-.737-1.133-1.653-1.133H7.663c-.916 0-1.653.505-1.653 1.133v18.356c0 .628.737 1.133 1.653 1.133h16.674c.916 0 1.653-.505 1.653-1.133z" fill="#78c828" fill-rule="evenodd"/><circle cx="15.942" cy="15.991" r="4.429" fill="#b3b3b3"/><path style="line-height:normal;font-variant-ligatures:normal;font-variant-position:normal;font-variant-caps:normal;font-variant-numeric:normal;font-variant-alternates:normal;font-feature-settings:normal;text-indent:0;text-align:start;text-decoration-line:none;text-decoration-style:solid;text-decoration-color:#000;text-transform:none;text-orientation:mixed;white-space:normal;shape-padding:0;isolation:auto;mix-blend-mode:normal;solid-color:#000;solid-opacity:1" d="M15.992 7.353a.52.52 0 0 0-.512.526v1.98a.52.52 0 1 0 1.04 0v-1.98a.52.52 0 0 0-.528-.526zm-5.739 2.38a.52.52 0 0 0-.363.894l1.4 1.398a.52.52 0 1 0 .735-.736l-1.4-1.398a.52.52 0 0 0-.372-.158zm11.477 0a.52.52 0 0 0-.357.158l-1.398 1.398a.52.52 0 1 0 .735.736l1.398-1.398a.52.52 0 0 0-.378-.894zM7.88 15.479a.52.52 0 1 0 0 1.04h1.98a.52.52 0 1 0 0-1.04zm14.26 0a.52.52 0 1 0 0 1.04h1.98a.52.52 0 1 0 0-1.04zm-10.493 4.337a.52.52 0 0 0-.357.158l-1.4 1.398a.52.52 0 1 0 .735.736l1.4-1.398a.52.52 0 0 0-.378-.894zm8.69 0a.52.52 0 0 0-.362.894l1.398 1.398a.52.52 0 1 0 .735-.736l-1.398-1.398a.52.52 0 0 0-.374-.158zm-4.345 1.796a.52.52 0 0 0-.512.528v1.98a.52.52 0 1 0 1.04 0v-1.98a.52.52 0 0 0-.528-.528z" color="#000" font-weight="400" font-family="sans-serif" overflow="visible" fill="#5b5b5b"/><circle cx="17.566" cy="17.39" r=".839" fill="#fff"/><path d="M15.953 22.063a6.04 6.04 0 0 0 5.963-6.037 6.04 6.04 0 0 0-5.963-6.034z" fill="#888a85"/><path d="M15.953 22.063V9.992a6.04 6.04 0 0 0-.077-.003 6.04 6.04 0 0 0-6.04 6.037 6.04 6.04 0 0 0 6.04 6.04 6.04 6.04 0 0 0 .077-.003z" fill="#fff"/><path style="line-height:normal;font-variant-ligatures:normal;font-variant-position:normal;font-variant-caps:normal;font-variant-numeric:normal;font-variant-alternates:normal;font-feature-settings:normal;text-indent:0;text-align:start;text-decoration-line:none;text-decoration-style:solid;text-decoration-color:#000;text-transform:none;text-orientation:mixed;white-space:normal;shape-padding:0;isolation:auto;mix-blend-mode:normal;solid-color:#000;solid-opacity:1" d="M15.874 9.49a6.535 6.535 0 0 0-6.528 6.527c0 3.6 2.929 6.53 6.528 6.53 3.6 0 6.528-2.93 6.528-6.53S19.473 9.49 15.874 9.49zm0 .978a5.542 5.542 0 0 1 5.55 5.55 5.544 5.544 0 0 1-5.55 5.552 5.546 5.546 0 0 1-5.552-5.553 5.544 5.544 0 0 1 5.552-5.55z" color="#000" font-weight="400" font-family="sans-serif" overflow="visible" fill="#666"/><circle cx="16.007" cy="13.082" r="1.144" fill="#fff"/><circle cx="13.49" cy="17.888" r="1.144" fill="#888a85"/><circle cx="18.355" cy="17.522" r="1.144" fill="#fff"/></svg>