<svg xmlns="http://www.w3.org/2000/svg" height="32" width="32" version="1"><g transform="translate(35.39 .406)"><path d="M-5.288 15.6h-14.11l12.472 12.472a5.557 5.557 0 0 0 1.638-3.953z" fill="#ffac29" fill-rule="evenodd"/><path d="M-19.397 15.6v14.095h8.533c1.54 0 2.93-.62 3.938-1.623z" fill="#73ff44" fill-rule="evenodd"/><path d="M-19.383 15.6l-.014-.014v.014z" fill="#ccc" fill-rule="evenodd"/><path d="M-19.397 15.586l-12.473 12.47a5.553 5.553 0 0 0 3.953 1.64h8.52V15.6z" fill="#80ffe5" fill-rule="evenodd"/><path d="M-19.41 15.6h-14.08v8.52c0 1.539.618 2.93 1.62 3.937z" fill="#53bdff" fill-rule="evenodd"/><path d="M-19.41 15.6l.013-.014L-31.86 3.12h-.002a5.557 5.557 0 0 0-1.629 3.945V15.6z" fill="#5964ff" fill-rule="evenodd"/><path d="M-6.919 3.121l-12.47 12.473.006.006h14.095V7.066c0-1.544-.62-2.937-1.629-3.945h-.002z" fill="#ff7221" fill-rule="evenodd"/><path d="M-19.397 1.492v14.094l.008.008L-6.92 3.12a5.561 5.561 0 0 0-3.945-1.629z" fill="#ff3636" fill-rule="evenodd"/><path d="M-19.397 15.586V1.492h-8.52a5.556 5.556 0 0 0-3.943 1.629z" fill="#e647ff" fill-rule="evenodd"/><circle r="6.356" cx="-19.39" cy="15.593" fill="#fff"/></g></svg>