<svg xmlns="http://www.w3.org/2000/svg" height="32" width="32" version="1"><rect width="28.203" height="28.203" x="1.898" y="1.898" ry="5.575" fill="#d54747" fill-rule="evenodd"/><path d="M16.018 8.007a8.717 8.717 0 0 0-2.303.3c-3.497.901-5.768 4.21-5.715 7.686H6l3 4.014 3-4.014h-2c-.007-1.456.229-2.907 1.238-3.994 1.762-1.992 5.256-2.807 7.778-1.342.837 1.053 2.697-.103 1.72-1.183-1.388-1.039-2.965-1.463-4.718-1.467zM23 11.993l-3 4.014h2c.007 1.456-.229 2.907-1.238 3.994-1.898 2.19-5.256 2.807-7.778 1.342-.837-1.053-2.697.102-1.72 1.182 1.388 1.038 2.965 1.465 4.718 1.468l.002-.002a8.702 8.702 0 0 0 2.301-.298c3.497-.901 5.768-4.209 5.715-7.686h2z" fill="#fff"/></svg>