<svg xmlns="http://www.w3.org/2000/svg" height="32" width="32"><rect width="28.203" height="28.203" x="1.898" y="1.898" ry="5.575" fill="#caa17d" fill-rule="evenodd"/><g transform="translate(-.5)"><path d="M13 19v6.667c0 .738.446 1.333 1 1.333h1c.554 0 1-.595 1-1.333V19z" fill="#855629"/><path d="M13 5s7 3.871 7 14h-7z" fill="#ccc"/><circle r=".5" cy="21.5" cx="14.5" fill="#ccc"/><circle cx="14.5" cy="24.5" r=".5" fill="#ccc"/></g><g transform="translate(-3.592 -2.733)"><circle r="6" cy="25" cx="26" fill="#e74c3c"/><path d="M24.667 18.333v.825a6 6 0 0 0-4.01 3.127c.45-.079 1.38-.313 2.787-1.08.559-.305 1.039-.575 1.223-.872-1.595 2 .134 2.294 1 3.334 0 0 2.027-1.334.333-3.334 2 .974 4 .667 4 .667s.01-.196-.003-.466A6 6 0 0 0 26 19v-.667z" fill="#a6ef4d" fill-rule="evenodd"/></g></svg>