<svg xmlns="http://www.w3.org/2000/svg" height="32" width="32" version="1"><rect width="28.203" height="28.203" x="1.898" y="1.898" ry="5.575" fill="#2bc3ef" fill-rule="evenodd"/><path d="M19.255 7.098H10.6a3.501 3.501 0 0 0-3.51 3.508V21.34a3.502 3.502 0 0 0 3.51 3.51h10.733a3.501 3.501 0 0 0 3.508-3.51v-8.654z" fill="#f2f2f1" fill-rule="evenodd"/><path d="M24.842 12.685l-5.587-5.587v2.079a3.5 3.5 0 0 0 3.508 3.508z" fill="#b1e1f3" fill-rule="evenodd"/><path d="M16.857 13.996v.806h3.569v-.806zm-5.296 2.418v.806h8.865v-.806zm0 2.417v.806h8.865v-.806zm0 2.418v.806h6.447v-.806z" fill="#a0bec7"/><rect width="4.529" height="4.602" x="11.458" y="10.211" ry=".777" fill="#fbb116"/><path style="line-height:normal;font-variant-ligatures:normal;font-variant-position:normal;font-variant-caps:normal;font-variant-numeric:normal;font-variant-alternates:normal;font-feature-settings:normal;text-indent:0;text-align:start;text-decoration-line:none;text-decoration-style:solid;text-decoration-color:#000;text-transform:none;text-orientation:mixed;white-space:normal;shape-padding:0;isolation:auto;mix-blend-mode:normal;solid-color:#000;solid-opacity:1" d="M21.149 15.69a3.85 3.85 0 0 0-5.434 0 3.85 3.85 0 0 0 0 5.435c1.258 1.258 3.177 1.444 4.648.586l3.557 3.556a1.078 1.078 0 1 0 1.523-1.523L21.84 20.14c.73-1.442.512-3.247-.69-4.45zm-.723.724a2.812 2.812 0 0 1 0 3.988 2.812 2.812 0 0 1-3.988 0 2.812 2.812 0 0 1 0-3.988 2.812 2.812 0 0 1 3.988 0z" color="#000" font-weight="400" font-family="sans-serif" overflow="visible" fill="#3d4651"/></svg>