<svg xmlns="http://www.w3.org/2000/svg" width="32" height="32" viewBox="0 0 8.47 8.47"><rect width="7.465" height="7.465" x=".502" y=".502" ry="1.476" fill="#ff6a33" fill-rule="evenodd"/><path d="M4.502 1.986a.132.132 0 0 0-.133.113l-.227 1.478a2.117 1.455 0 0 0-1.389.413.53.53 0 0 0-.37-.152.53.53 0 0 0-.53.53.53.53 0 0 0 .286.469 2.117 1.455 0 0 0-.02.192 2.117 1.455 0 0 0 2.116 1.455A2.117 1.455 0 0 0 6.352 5.03a2.117 1.455 0 0 0-.022-.192.53.53 0 0 0 .286-.47.53.53 0 0 0-.529-.529.53.53 0 0 0-.371.153 2.117 1.455 0 0 0-1.308-.412l.201-1.3.688.153a.397.397 0 0 0 .393.348.397.397 0 0 0 .397-.397.397.397 0 0 0-.397-.397.397.397 0 0 0-.336.186L4.53 1.99a.132.132 0 0 0-.027-.003zm-.928 2.382a.397.397 0 0 1 .396.396.397.397 0 0 1-.396.397.397.397 0 0 1-.397-.397.397.397 0 0 1 .397-.396zm1.322 0a.397.397 0 0 1 .397.396.397.397 0 0 1-.397.397.397.397 0 0 1-.396-.397.397.397 0 0 1 .396-.396zm.258 1.318a.133.133 0 0 1 .105.226s-.086.092-.251.168a1.775 1.775 0 0 1-.776.14 1.976 1.976 0 0 1-.767-.148.91.91 0 0 1-.25-.157.132.132 0 0 1 .082-.226.132.132 0 0 1 .012 0 .132.132 0 0 1 .095.04s.038.043.168.1c.13.058.343.12.666.126.32.005.53-.057.658-.116.128-.059.166-.105.166-.105a.133.133 0 0 1 .092-.048z" fill="#fff"/></svg>