<svg xmlns="http://www.w3.org/2000/svg" height="32" width="32" version="1"><rect width="28.203" height="28.203" x="1.898" y="1.898" ry="5.575" fill="#426ea7" fill-rule="evenodd"/><g fill="#fff"><path d="M22.5 14.26c-1.738 4.429-13.169 5.108-13.756 3.326-1.017-3.426 1.237-6.948 5.035-7.866 3.8-.918 7.703 1.116 8.721 4.54z"/><path d="M22.5 15.5s-9.428 6.822-15.479 4.638c-1.052-.827.944-2.207.941-2.522-2.315.92-3.462 2.116-3.462 3.557.985 3.207 9.924-.32 11.41-.992 2.942-1.413 6.59-4.681 6.59-4.681z"/><path d="M10.5 22.5s11.56-2.67 14.158-8.376c.123-1.28-1.893-.799-2.122-1.005 3.238-1.484 5.12.043 4.954 1.005-.302 1.744-3.897 4.593-8.592 6.453C15.813 21.753 10.5 22.5 10.5 22.5z"/></g></svg>