<svg xmlns="http://www.w3.org/2000/svg" width="32" height="32" version="1"><rect width="28.203" height="28.203" x="1.898" y="1.898" ry="5.575" fill="#e74c3c" fill-rule="evenodd"/><g stroke-width="1.382"><path d="M16 6.594c-3.396 0-6.15 2.759-6.15 6.162-.013 1.846 1.617 3.459 2.365 5.215.334.783.947 2.37.947 2.37h5.677s.612-1.587.946-2.37c.748-1.756 2.333-3.39 2.365-5.215 0-3.403-2.754-6.162-6.15-6.162z" fill="#fff"/><path d="M18.839 20.341l-.947 4.125c-.116.508-.422.94-.946.94h-1.892c-.524 0-.836-.43-.946-.94l-.947-4.125z" fill="#4f4f4f"/><path d="M13.347 21.065l.162.724h4.982l.162-.724zm.324 1.447l.161.724h4.336l.161-.724zm.324 1.447l.113.506c.017.077.046.146.072.218h3.64c.025-.072.056-.141.072-.218l.113-.506z" opacity=".2" fill="#fff"/></g></svg>