<svg xmlns="http://www.w3.org/2000/svg" height="32" width="32"><g transform="translate(37.259 1.677)" fill-rule="evenodd"><rect ry="5.575" y=".22" x="-35.36" height="28.203" width="28.203" fill="#008295"/><path d="M-28.175 28.426V.222h-1.611a5.561 5.561 0 0 0-5.574 5.575v17.052a5.563 5.563 0 0 0 5.574 5.577z" fill="#006877"/><path d="M-17.785 7.322a6.985 6.985 0 0 0-6.495 4.42 6.888 6.888 0 0 0-.148.402c-.01.028-.02.055-.028.083a6.873 6.873 0 0 0-.348 2.145c0 3.833 3.13 6.95 6.98 6.95a6.99 6.99 0 0 0 6.47-4.346v-.002c.075-.175.138-.355.198-.538a6.888 6.888 0 0 0 .352-2.164c0-3.833-3.132-6.95-6.981-6.95zm-.503 1.084v2.34a12.696 12.696 0 0 1-1.893-.205c.089-.206.182-.405.283-.586.466-.836 1.03-1.357 1.61-1.548zm.998.04c.052.008.105.014.157.023.525.23 1.03.726 1.454 1.486.1.178.19.372.278.575-.587.113-1.224.187-1.89.214V8.445zm-3.125.478a5.67 5.67 0 0 0-.355.549c-.145.26-.274.54-.393.834a7.974 7.974 0 0 1-.814-.286 5.974 5.974 0 0 1 1.562-1.097zm5.361.15c.273.108.481.21.69.312.266.184.517.39.748.613-.249.106-.517.204-.806.29a7.535 7.535 0 0 0-.385-.816 6.135 6.135 0 0 0-.247-.4zm2.09 1.675a5.902 5.902 0 0 1 1.137 3.03h-1.877a11.01 11.01 0 0 0-.394-2.548c.398-.121.772-.26 1.114-.42.009-.021.014-.042.02-.062zm-9.691.066c.358.165.752.309 1.171.434a11.02 11.02 0 0 0-.39 2.53h-1.87a5.902 5.902 0 0 1 1.089-2.964zm7.588.662c.199.695.327 1.473.365 2.301h-2.589v-2.041a13.457 13.457 0 0 0 2.224-.26zm-5.448.014c.694.14 1.443.223 2.227.248v2.04h-2.587c.037-.823.164-1.596.36-2.288zm-3.23 3.28h1.872c.037.926.178 1.801.407 2.594a8.83 8.83 0 0 0-1.147.422 5.903 5.903 0 0 1-1.131-3.016zm2.87 0h2.587v2.11c-.777.024-1.52.106-2.21.243a10.061 10.061 0 0 1-.377-2.353zm3.584 0h2.588a10.056 10.056 0 0 1-.381 2.367 13.47 13.47 0 0 0-2.207-.256v-2.111zm3.587 0h1.877a5.902 5.902 0 0 1-1.154 3.046l-.004-.01a8.65 8.65 0 0 0-1.131-.424c.231-.798.374-1.68.411-2.612zm-4.584 3.102v2.269c-.58-.192-1.144-.711-1.61-1.546a6.236 6.236 0 0 1-.256-.523c.582-.108 1.21-.177 1.866-.2zm.997.002c.656.026 1.283.098 1.863.209-.08.18-.162.352-.251.512-.467.835-1.03 1.355-1.612 1.546v-2.267zm-3.846.43c.112.27.232.531.367.772.106.19.221.367.343.537a5.971 5.971 0 0 1-1.491-1.037c.244-.098.5-.192.78-.272zm6.69.017c.276.082.531.176.772.276a5.97 5.97 0 0 1-1.477 1.02 5.902 5.902 0 0 0 .705-1.296z" fill="#fff"/></g></svg>