<svg xmlns="http://www.w3.org/2000/svg" height="32" width="32" version="1"><rect width="28.203" height="28.203" x="1.898" y="1.898" ry="5.575" fill="#a0002f" fill-rule="evenodd"/><g fill-rule="evenodd"><path d="M9.707 30.102L16 16 1.898 9.707v14.82a5.561 5.561 0 0 0 5.575 5.575z" fill="#a0002f"/><path d="M30.102 22.293L16 16 9.707 30.102h14.82a5.561 5.561 0 0 0 5.575-5.575z" fill="#c3283a"/><path d="M22.293 1.898L16 16l14.102 6.293V7.473a5.561 5.561 0 0 0-5.575-5.575z" fill="#a0002f"/><path d="M1.898 9.707L16 16l6.293-14.102H7.473a5.561 5.561 0 0 0-5.575 5.575z" fill="#c3283a"/></g><path d="M7.22 22.757v-2.024H11.266v4.048H7.219zm4.733 0v-2.024H16v4.048H11.953zm4.733 0v-2.024H20.733v4.048H16.686zm-9.467-4.733V16h4.048V20.047H7.219zm4.734 0V16H16V20.047H11.953zm7.535-2.045c-.354-1.05-.639-1.914-.632-1.92.017-.017 3.765-1.283 3.797-1.283.028 0 1.322 3.803 1.3 3.82a655 655 0 0 1-3.786 1.28c-.018.006-.324-.848-.679-1.897zM7.22 13.29v-2.023h4.048V15.314H7.219zm7.625-1.505c-.872-.634-1.602-1.17-1.623-1.191-.028-.028.277-.47 1.13-1.646.643-.885 1.183-1.613 1.202-1.62.028-.009 3.08 2.18 3.22 2.31.04.037-.152.319-1.125 1.659a90.993 90.993 0 0 1-1.196 1.628c-.013.007-.736-.506-1.608-1.14zm5.89-2.542V7.219H24.78v4.048h-4.048z" fill="#fff"/></svg>