<svg xmlns="http://www.w3.org/2000/svg" height="32" width="32" version="1"><g fill-rule="evenodd"><path d="M16 30.102h8.527a5.563 5.563 0 0 0 5.575-5.577V7.473a5.561 5.561 0 0 0-5.575-5.575H16z" fill="#ccc"/><path d="M16 30.102V1.898H7.475a5.563 5.563 0 0 0-5.577 5.575v17.052a5.565 5.565 0 0 0 5.577 5.577z" fill="#aeaeae"/></g><path opacity=".6" d="M4.316 7.053h6v1h-6zM4.316 10.053h9v1h-9zM4.316 13.053h10v1h-10zM4.316 16.053h7v1h-7zM4.316 19.053h9v1h-9z"/><path d="M17.684 7v18h3v-8l3 8h4v-3h-2l-2-5h4V7zm3 3h4v4h-4z" fill="#c2352a"/></svg>