<svg xmlns="http://www.w3.org/2000/svg" width="32" height="32" version="1"><rect width="28.203" height="28.203" x="1.898" y="1.898" ry="5.575" fill="#52845f" fill-rule="evenodd"/><path d="M23 30.102V13.188H9v4h8.6a1.397 1.397 0 0 1 1.4 1.398v11.516h4z" fill="#52845f" fill-rule="evenodd"/><path d="M26 29.805V11.883c0-.462-.197-.885-.508-1.194a1.7 1.7 0 0 0-1.191-.502H7.699a1.7 1.7 0 0 0-1.191.502A1.685 1.685 0 0 0 6 11.883v6.607c0 .462.197.89.508 1.2.31.31.736.503 1.191.497H16v9.915h3V18.586a1.397 1.397 0 0 0-1.4-1.398H9v-4h14V30.1h1.527c.523 0 .994-.163 1.473-.296z" fill="#fbc295" fill-rule="evenodd"/><path d="M7.473 1.898a5.561 5.561 0 0 0-5.575 5.575v17.054a5.561 5.561 0 0 0 5.575 5.575H16v-9.915H7.7a1.667 1.667 0 0 1-1.192-.498A1.701 1.701 0 0 1 6 18.49v-6.607c0-.462.197-.885.508-1.194a1.7 1.7 0 0 1 1.191-.502h16.602a1.7 1.7 0 0 1 1.191.502c.311.31.508.732.508 1.194V29.805c2.351-.655 4.102-2.712 4.102-5.278V7.473a5.561 5.561 0 0 0-5.575-5.575H7.473z" fill="#52845f" fill-rule="evenodd"/></svg>