<svg xmlns="http://www.w3.org/2000/svg" width="32" height="32" version="1"><path d="M30 6.969c-.054-.579-.12-1.157-.336-1.67A5.563 5.563 0 0 0 26.7 2.334c-.511-.216-1.089-.28-1.666-.334H16v14h14z" fill="#2086e7"/><path d="M6.965 2c-.577.054-1.155.118-1.666.334a5.563 5.563 0 0 0-2.965 2.965c-.216.511-.28 1.089-.334 1.666V16h14V2zM25.035 30c.577-.054 1.155-.118 1.666-.334a5.563 5.563 0 0 0 2.965-2.965c.216-.511.28-1.089.334-1.666V16H16v14z" fill="#c72566"/><path d="M2 25.031c.054.579.12 1.157.336 1.67A5.563 5.563 0 0 0 5.3 29.666c.511.216 1.089.28 1.666.334H16V16H2z" fill="#ff8c2a"/><rect width="21.424" height="21.424" x="5.288" y="5.288" ry="4.235" fill="#3f3f3f" fill-rule="evenodd"/><g fill="none" stroke="#fff" stroke-width="2" stroke-linecap="round"><path d="M10.615 22.306h7.188" stroke-width="1.79708"/><path d="M17.803 16.915s3.634.315 3.595-3.594c-.04-3.909-3.595-3.594-3.595-3.594m-.012 7.188V9.727" stroke-linejoin="bevel" stroke-width="1.79708"/><path d="M14.21 16.915l-1.798-2.696m-1.797-.898s3.594.417 3.594-1.797c0-2.215-3.594-1.797-3.594-1.797m0 7.188V9.727" stroke-width="1.79708"/></g></svg>