<svg xmlns="http://www.w3.org/2000/svg" height="32" width="32"><rect width="27.256" height="27.256" x="2.372" y="2.372" ry="5.388" fill="#7bc9a4" fill-rule="evenodd"/><path d="M14.912 1.897c1.03.055 2.038.204 2.942.57a8.786 8.786 0 0 1 2.779 1.802 8.4 8.4 0 0 1 1.873 2.67 8.09 8.09 0 0 1 .687 3.269c0 1.083-.374 2.303-1.035 3.469a10.555 10.555 0 0 1-2.754 3.152l-2.709-3.719a4.304 4.304 0 0 0-1.588-1.441 4.514 4.514 0 0 0-3.81-.195 4.425 4.425 0 0 0-1.39.904 4.23 4.23 0 0 0-.94 1.336 4.02 4.02 0 0 0-.346 1.63v.003c.002.866.282 1.708.803 2.416l.002.002v.002l.613.843H8.621v6.536c0 .434-.1.826-.277 1.17-.178.343-.434.639-.746.88-.625.483-1.474.75-2.377.75-.904 0-1.755-.267-2.38-.75-.223-.173-.375-.404-.532-.63.813 2.068 2.801 3.537 5.166 3.537h17.052a5.563 5.563 0 0 0 5.575-5.577V7.474a5.563 5.563 0 0 0-5.575-5.577zm-1.92 10.18c.554.001 1.091.13 1.569.37.477.239.897.588 1.214 1.025l6.801 9.334a3.146 3.146 0 0 1 .35 3.145 3.27 3.27 0 0 1-.729 1.038 3.411 3.411 0 0 1-1.08.7 3.515 3.515 0 0 1-2.892-.114 3.357 3.357 0 0 1-1.213-1.023l-6.801-9.336a3.146 3.146 0 0 1-.352-3.145c.172-.39.421-.743.729-1.039a3.42 3.42 0 0 1 1.082-.699 3.503 3.503 0 0 1 1.322-.256z" fill="#7bc9a4" fill-rule="evenodd"/><path d="M12.992 12.077c-.47 0-.915.09-1.322.256a3.42 3.42 0 0 0-1.082.7 3.27 3.27 0 0 0-.729 1.038 3.146 3.146 0 0 0 .352 3.145l6.8 9.336c.318.436.736.784 1.214 1.023a3.515 3.515 0 0 0 2.892.113 3.411 3.411 0 0 0 1.08-.699 3.27 3.27 0 0 0 .729-1.039 3.146 3.146 0 0 0-.35-3.144l-6.8-9.334a3.369 3.369 0 0 0-1.215-1.026 3.513 3.513 0 0 0-1.569-.369z" fill="#b47bb5" fill-rule="evenodd"/><path d="M8.004 1.897c.46.374.86.817 1.133 1.336.29.555.455 1.18.455 1.842a4.02 4.02 0 0 1-.346 1.631 4.23 4.23 0 0 1-.94 1.336c-.396.38-.866.689-1.388.902a4.48 4.48 0 0 1-1.697.332 4.39 4.39 0 0 1-1.916-.437 4.443 4.443 0 0 1-1.407-1.102v16.79c0 .724.161 1.405.41 2.038.158.227.31.458.534.631.624.483 1.475.75 2.379.75.903 0 1.752-.267 2.377-.75.312-.241.568-.537.746-.88.177-.344.277-.736.277-1.17V18.61h1.418l-.613-.843v-.002l-.002-.002c-.52-.708-.801-1.55-.803-2.416v-.002c0-.577.124-1.129.346-1.631a4.23 4.23 0 0 1 .94-1.336c.396-.381.867-.69 1.39-.904a4.514 4.514 0 0 1 3.81.195c.638.34 1.189.83 1.588 1.441l2.71 3.72a10.555 10.555 0 0 0 2.753-3.153c.66-1.166 1.035-2.386 1.035-3.469a8.09 8.09 0 0 0-.687-3.27 8.399 8.399 0 0 0-1.873-2.67 8.786 8.786 0 0 0-2.78-1.8c-.903-.367-1.912-.516-2.94-.57z" fill="#fff" fill-rule="evenodd"/><path d="M2.115 6.4c-.072.36-.217.692-.217 1.074v.263c.391.45.86.837 1.407 1.102a4.39 4.39 0 0 0 1.916.437c.6 0 1.174-.118 1.697-.332a4.411 4.411 0 0 0 1.389-.902 4.23 4.23 0 0 0 .94-1.336 4.02 4.02 0 0 0 .345-1.63c0-.663-.165-1.288-.455-1.843-.272-.52-.673-.962-1.133-1.336h-.53c-.321 0-.599.13-.906.182a3.4 3.267 0 0 1 .194.084 3.4 3.267 0 0 1 .295.162 3.4 3.267 0 0 1 .277.19 3.4 3.267 0 0 1 .256.216 3.4 3.267 0 0 1 .23.239 3.4 3.267 0 0 1 .207.26 3.4 3.267 0 0 1 .178.279 3.4 3.267 0 0 1 .147.293 3.4 3.267 0 0 1 .117.306 3.4 3.267 0 0 1 .084.317 3.4 3.267 0 0 1 .05.324 3.4 3.267 0 0 1 .018.326 3.4 3.267 0 0 1-.008.23 3.4 3.267 0 0 1-.04.325 3.4 3.267 0 0 1-.077.318 3.4 3.267 0 0 1-.105.31 3.4 3.267 0 0 1-.141.3 3.4 3.267 0 0 1-.168.283 3.4 3.267 0 0 1-.197.265 3.4 3.267 0 0 1-.225.245 3.4 3.267 0 0 1-.25.222 3.4 3.267 0 0 1-.27.2 3.4 3.267 0 0 1-.29.17 3.4 3.267 0 0 1-.305.142 3.4 3.267 0 0 1-.32.111 3.4 3.267 0 0 1-.329.08 3.4 3.267 0 0 1-.335.05 3.4 3.267 0 0 1-.34.017 3.4 3.267 0 0 1-.242-.008 3.4 3.267 0 0 1-.338-.041 3.4 3.267 0 0 1-.33-.07 3.4 3.267 0 0 1-.325-.104 3.4 3.267 0 0 1-.308-.133 3.4 3.267 0 0 1-.295-.164 3.4 3.267 0 0 1-.278-.19 3.4 3.267 0 0 1-.255-.214 3.4 3.267 0 0 1-.23-.24 3.4 3.267 0 0 1-.208-.26 3.4 3.267 0 0 1-.176-.277 3.4 3.267 0 0 1-.12-.243z" fill="#7bc9a4" fill-rule="evenodd"/><path d="M2.115 6.4a3.4 3.267 0 0 0 .121.242 3.4 3.267 0 0 0 .176.277 3.4 3.267 0 0 0 .207.26 3.4 3.267 0 0 0 .23.24 3.4 3.267 0 0 0 .256.215 3.4 3.267 0 0 0 .278.19 3.4 3.267 0 0 0 .295.163 3.4 3.267 0 0 0 .308.133 3.4 3.267 0 0 0 .325.104 3.4 3.267 0 0 0 .33.07 3.4 3.267 0 0 0 .338.041 3.4 3.267 0 0 0 .242.008 3.4 3.267 0 0 0 .34-.018 3.4 3.267 0 0 0 .335-.049 3.4 3.267 0 0 0 .329-.08 3.4 3.267 0 0 0 .32-.111 3.4 3.267 0 0 0 .305-.143 3.4 3.267 0 0 0 .29-.17 3.4 3.267 0 0 0 .27-.199 3.4 3.267 0 0 0 .25-.222 3.4 3.267 0 0 0 .225-.245 3.4 3.267 0 0 0 .197-.265 3.4 3.267 0 0 0 .168-.283 3.4 3.267 0 0 0 .14-.3 3.4 3.267 0 0 0 .106-.31 3.4 3.267 0 0 0 .076-.318 3.4 3.267 0 0 0 .041-.324 3.4 3.267 0 0 0 .008-.23 3.4 3.267 0 0 0-.017-.327 3.4 3.267 0 0 0-.051-.324 3.4 3.267 0 0 0-.084-.317 3.4 3.267 0 0 0-.117-.306 3.4 3.267 0 0 0-.147-.293 3.4 3.267 0 0 0-.178-.28 3.4 3.267 0 0 0-.207-.26 3.4 3.267 0 0 0-.23-.238 3.4 3.267 0 0 0-.256-.216 3.4 3.267 0 0 0-.277-.19 3.4 3.267 0 0 0-.295-.162 3.4 3.267 0 0 0-.194-.084c-2.272.384-4 2.072-4.453 4.32z" fill="#b47bb5" fill-rule="evenodd"/></svg>