<svg xmlns="http://www.w3.org/2000/svg" xmlns:xlink="http://www.w3.org/1999/xlink" height="32" width="32" version="1"><defs><linearGradient id="a" y1="61.2" x1="-162.29" y2="505.06" gradientUnits="userSpaceOnUse" x2="737.63" gradientTransform="matrix(.06535 .02041 -.01819 .05824 8.418 -1.328)"><stop stop-color="#fafafa"/><stop offset="1" stop-color="#939393"/></linearGradient><linearGradient id="b" y1="41" x1="41" y2="18.25" x2="21.13" gradientUnits="userSpaceOnUse"><stop stop-color="#502ae3"/><stop offset="1" stop-color="#4db4f6"/></linearGradient><linearGradient xlink:href="#a" id="c" gradientUnits="userSpaceOnUse" gradientTransform="matrix(.06535 .02041 -.01819 .05824 8.418 -1.328)" x1="-162.29" y1="61.2" x2="737.63" y2="505.06"/><linearGradient xlink:href="#b" id="d" gradientUnits="userSpaceOnUse" x1="41" y1="41" x2="21.13" y2="18.25"/></defs><rect ry="5.575" y="1.898" x="1.898" height="28.203" width="28.203" fill="#ececec" fill-rule="evenodd"/><ellipse cx="19.943" cy="11.241" rx="10.228" ry="8.38" transform="rotate(14.502)" fill="#fff"/><g fill-rule="evenodd"><path d="M28.889 5.374A21.4 17.01 17.344 0 0 3.39 15.232a21.4 17.01 17.344 0 0 15.356 22.616 21.4 17.01 17.344 0 0 25.497-9.858A21.4 17.01 17.344 0 0 28.89 5.374m1.026 6.583A15.96 12.68 17.344 0 1 41.37 28.82a15.96 12.68 17.344 0 1-19.016 7.345A15.96 12.68 17.344 0 1 10.9 19.305a15.96 12.68 17.344 0 1 19.015-7.348" color="#000" fill="url(#c)" transform="matrix(.54883 0 0 .54883 2.928 3.6)"/><path d="M41.546 41.02l-6.863.004-4.677-6.913s-.753-1.295-1.216-1.671c-.386-.313-.551-.425-.933-.425h-.868l.002 9-5.958.003v-23h12.972s5.257.97 5.364 6.177c.119 5.805-5.081 7.513-5.081 7.513.713.292 6.449 7.967 7.259 9.308m-10.285-18.01l-4.212-.003-.002 3.911 4.214-.001s1.952-.006 1.952-1.989c0-2.023-1.952-1.917-1.952-1.917" fill="url(#d)" transform="matrix(.54883 0 0 .54883 2.928 3.6)"/><g fill="#fff" fill-opacity=".196"><path d="M14.47 13.49v.548h7.12s2.897.54 2.943 2.842c-.058-2.858-2.943-3.39-2.943-3.39z"/><path d="M21.155 17.278c0 1.089-1.072 1.092-1.072 1.092H17.77v.55h2.312s1.072.046 1.072-1.642" color="#000"/></g><path d="M11.993 6.124a11.745 9.336 17.344 0 0-.328.078c.11-.025.217-.057.329-.079m5.643.118c.382.087.763.19 1.146.308a11.745 9.336 17.344 0 0-1.146-.307m1.146.307c.324.101.637.218.948.338a11.745 9.336 17.344 0 0-.948-.338m-7.823-.173a11.745 9.336 17.344 0 0-.413.138c.138-.046.273-.097.413-.138m-.992.34a11.745 9.336 17.344 0 0-.384.169c.128-.057.252-.118.383-.17m10.36.423c.155.068.31.135.46.207a11.745 9.336 17.344 0 0-.46-.206m-11.303.004a11.745 9.336 17.344 0 0-.334.189c.111-.063.22-.13.334-.189m-.877.51a11.745 9.336 17.344 0 0-.288.204c.096-.068.19-.139.288-.204m13.244.008c.138.075.277.149.411.227a11.745 9.336 17.344 0 0-.411-.227m-14.043.58a11.745 9.336 17.344 0 0-.251.22c.083-.073.164-.15.25-.22m15.064.029c.113.074.228.146.338.223a11.745 9.336 17.344 0 0-.338-.223m.926.664c.104.082.21.162.311.247a11.745 9.336 17.344 0 0-.311-.247m-6.573.251C13.1 9.1 9.841 11.213 8.91 14.195a8.76 6.96 17.344 0 1 10.436-4.033 8.76 6.96 17.344 0 1 6.53 7.298c-.123-3.227-2.703-6.655-6.53-7.847a9.376 9.376 0 0 0-2.582-.428m7.389.45c.106.1.216.196.318.298a11.745 9.336 17.344 0 0-.318-.298m.752.764c.099.11.202.217.296.329a11.745 9.336 17.344 0 0-.293-.33m-19.47.078a11.745 9.336 17.344 0 0-.02.035l.02-.035m20.14.738c.09.119.185.235.269.356a11.745 9.336 17.344 0 0-.268-.357m-20.54.07a11.745 9.336 17.344 0 0-.048.119c.015-.04.032-.079.049-.118m21.129.797c.073.121.153.24.221.363a11.745 9.336 17.344 0 0-.222-.363m.557 1.037c.033.072.072.143.104.216a11.745 9.336 17.344 0 0-.104-.216M8.77 14.77a5.27 5.27 0 0 0-.06.4 8.76 6.96 17.344 0 1 .06-.4m-.092.676a5.541 5.541 0 0 0-.013.458 8.76 6.96 17.344 0 1 .013-.458m-.01.696c.008.157.023.313.043.469a8.76 6.96 17.344 0 1-.043-.47m.076.712c.025.156.06.31.098.465a8.76 6.96 17.344 0 1-.098-.464m.157.703c.044.151.097.3.151.45a8.76 6.96 17.344 0 1-.151-.451m-3.734.021a11.745 9.336 17.344 0 0 .144.297c-.047-.1-.1-.197-.144-.297m20.711.148a8.76 6.96 17.344 0 1-.01.4c.009-.133.01-.266.01-.4m-16.732.536c.057.14.123.278.19.416a8.76 6.96 17.344 0 1-.19-.416m-3.536.215a11.745 9.336 17.344 0 0 .236.386c-.079-.13-.163-.256-.237-.384m20.218.02a8.76 6.96 17.344 0 1-.05.325c.021-.107.035-.217.05-.326m-16.362.447c.072.135.153.267.235.399a8.76 6.96 17.344 0 1-.235-.401m-3.316.402a11.745 9.336 17.344 0 0 .285.381c-.095-.127-.196-.251-.285-.381m20.856.186l-.041.098a11.745 9.336 17.344 0 0 .04-.098m-17.145.074c.09.133.188.261.286.39a8.76 6.96 17.344 0 1-.285-.39m15.522.465a8.76 6.96 17.344 0 1-.329.616c.122-.198.232-.402.33-.616m-.33.616a8.76 6.96 17.344 0 1-1.44 1.598 6.081 6.081 0 0 0 1.44-1.598m-1.44 1.598a8.76 6.96 17.344 0 1-.597.419c.208-.13.407-.27.598-.42M6.796 20.191a11.745 9.336 17.344 0 0 .29.323c-.098-.107-.198-.213-.289-.324m3.528.04c.12.15.252.292.384.434a8.76 6.96 17.344 0 1-.384-.433m16.263.167c-.01.02-.021.038-.032.057a11.745 9.336 17.344 0 0 .032-.056m-15.736.425c.187.193.384.379.592.559a8.76 6.96 17.344 0 1-.592-.559m.592.559a10.21 10.21 0 0 0 2.134 1.414 8.76 6.96 17.344 0 1-2.134-1.414m2.134 1.413c.256.128.519.245.79.354a8.76 6.96 17.344 0 1-.79-.353m-6.044-1.803a11.745 9.336 17.344 0 0 .292.273c-.097-.089-.198-.18-.292-.273m18.532.213l-.018.023a11.745 9.336 17.344 0 0 .018-.023m-17.713.532a11.745 9.336 17.344 0 0 .328.259c-.11-.086-.22-.172-.329-.26m.883.676a11.745 9.336 17.344 0 0 .363.242c-.122-.08-.244-.159-.362-.241m15.676.034c-.088.078-.173.158-.264.233a11.745 9.336 17.344 0 0 .264-.233m-2.106.37a8.76 6.96 17.344 0 1-.441.242c.152-.074.296-.158.44-.242m-12.59.223a11.745 9.336 17.344 0 0 .361.2c-.12-.066-.243-.131-.361-.2m13.95.003c-.107.076-.21.155-.322.227a11.745 9.336 17.344 0 0 .322-.227m-2.086.143a8.76 6.96 17.344 0 1-.42.18c.144-.055.281-.118.42-.18m-.724.281a8.76 6.96 17.344 0 1-.446.142c.152-.042.298-.093.446-.142m1.992.098c-.127.072-.25.147-.38.214a11.745 9.336 17.344 0 0 .38-.214m-12.132.006a11.745 9.336 17.344 0 0 .476.215c-.16-.07-.32-.14-.476-.215m4.697.067c.17.04.338.074.506.106a8.76 6.96 17.344 0 1-.506-.107m4.665.05a8.76 6.96 17.344 0 1-.446.098c.15-.028.297-.062.444-.097m-3.824.117c.184.03.366.05.549.07a8.76 6.96 17.344 0 1-.55-.07m3.043.03a8.76 6.96 17.344 0 1-.504.062c.17-.015.337-.037.504-.062m-2.184.071c.185.014.368.02.554.025a8.76 6.96 17.344 0 1-.552-.025m1.416.009a8.76 6.96 17.344 0 1-.573.022 9.86 9.86 0 0 0 .573-.022m3.419.106c-.137.06-.27.126-.412.182a11.745 9.336 17.344 0 0 .412-.182m-10.179.008a11.745 9.336 17.344 0 0 .952.34c-.326-.101-.64-.218-.952-.34m9.182.378c-.136.045-.268.095-.406.135a11.745 9.336 17.344 0 0 .406-.135m-1.114.31c-.11.024-.215.055-.326.077a11.745 9.336 17.344 0 0 .326-.077" color="#000" fill-opacity=".103"/></g></svg>