<svg xmlns="http://www.w3.org/2000/svg" xmlns:xlink="http://www.w3.org/1999/xlink" height="32" width="32" version="1"><defs><linearGradient id="i"><stop offset="0" stop-color="#4b8f41"/><stop offset="1" stop-color="#53aa46"/></linearGradient><linearGradient id="a"><stop offset="0" stop-color="#c8812a"/><stop offset="1" stop-color="#6a5d42"/></linearGradient><linearGradient xlink:href="#b" id="l" x1="25.451" y1="41.64" x2="32.088" y2="16.489" gradientUnits="userSpaceOnUse" gradientTransform="matrix(.4121 0 0 .4121 7.389 7.384)"/><linearGradient id="b"><stop offset="0" stop-color="#579a4d"/><stop offset="1" stop-color="#53aa46"/></linearGradient><linearGradient xlink:href="#c" id="m" x1="25.451" y1="41.64" x2="18.458" y2="22.05" gradientUnits="userSpaceOnUse" gradientTransform="matrix(.4121 0 0 .4121 7.389 7.384)"/><linearGradient id="c"><stop offset="0" stop-color="#4b8a43"/><stop offset="1" stop-color="#56bc48"/></linearGradient><linearGradient xlink:href="#d" id="p" x1="25.451" y1="41.64" x2="5.96" y2="36.31" gradientUnits="userSpaceOnUse" gradientTransform="matrix(.4121 0 0 .4121 7.389 7.384)"/><linearGradient id="d"><stop offset="0" stop-color="#4b9640"/><stop offset="1" stop-color="#56bc48"/></linearGradient><linearGradient xlink:href="#e" id="n" x1="5.96" y1="36.31" x2=".974" y2="17.525" gradientUnits="userSpaceOnUse" gradientTransform="matrix(.4121 0 0 .4121 7.389 7.384)"/><linearGradient id="e"><stop offset="0" stop-color="#409535"/><stop offset="1" stop-color="#91bf8a"/></linearGradient><linearGradient xlink:href="#f" id="q" x1="21.9" y1="20.603" x2="12.632" y2="6.077" gradientUnits="userSpaceOnUse" gradientTransform="matrix(.4121 0 0 .4121 7.389 7.384)"/><linearGradient id="f"><stop offset="0" stop-color="#84e077"/><stop offset="1" stop-color="#56bc48"/></linearGradient><linearGradient xlink:href="#g" id="r" x1="38.99" y1="16.563" x2="18.734" y2=".656" gradientUnits="userSpaceOnUse" gradientTransform="matrix(.4121 0 0 .4121 7.389 7.384)"/><linearGradient id="g"><stop offset="0" stop-color="#5cb151"/><stop offset="1" stop-color="#56bc48"/></linearGradient><linearGradient id="h"><stop offset="0" stop-color="#42d53e"/><stop offset="1" stop-color="#fbfefb"/></linearGradient><radialGradient xlink:href="#a" id="j" cx="16.393" cy="16.363" fx="16.393" fy="16.363" r="14.102" gradientUnits="userSpaceOnUse" gradientTransform="matrix(2.06284 .0002 -.00017 1.78703 -17.003 -12.596)"/><radialGradient xlink:href="#h" id="o" cx="10.088" cy="23.849" fx="10.088" fy="23.849" r="8.824" gradientTransform="matrix(-1.2409 1.01035 -.83406 -1.02439 47.922 31.46)" gradientUnits="userSpaceOnUse"/><radialGradient xlink:href="#i" id="k" cx="24.554" cy="18.545" fx="24.554" fy="18.545" r="2.018" gradientTransform="matrix(.78992 -.61322 1.96248 2.52798 -31.188 -12.596)" gradientUnits="userSpaceOnUse"/></defs><rect width="28.203" height="28.203" x="1.898" y="1.898" ry="5.575" fill="url(#j)" fill-rule="evenodd"/><g paint-order="fill markers stroke"><path d="M20.643 14.128l2.814-2.689 1.146 7.79z" fill="url(#k)" transform="translate(-.196 -.085)"/><path d="M20.643 14.128l3.96 5.1-6.726 5.315c.92-3.46 1.814-6.964 2.766-10.415z" fill="url(#l)" transform="translate(-.196 -.085)"/><path d="M14.849 21.126c-1.66-1.895-3.019-3.457-3.018-3.472.002-.03 8.812-3.526 8.812-3.526l-2.766 10.415c-.001-.002-1.369-1.522-3.028-3.417z" fill="url(#m)" transform="translate(-.196 -.085)"/><path d="M7.79 14.606l4.041 3.048-1.986 4.693z" fill="url(#n)" transform="translate(-.196 -.085)"/><path d="M7.79 14.606l7.27-6.98-3.229 10.028z" fill="url(#o)" transform="translate(-.196 -.085)"/><path d="M13.798 23.455c-2.165-.601-3.944-1.1-3.953-1.108-.018-.015 1.986-4.693 1.986-4.693l6.046 6.89s-1.913-.487-4.079-1.089z" fill="url(#p)" transform="translate(-.196 -.085)"/><path d="M13.421 12.588l1.639-4.962 2.678 3.123c.985 1.122 2.905 3.38 2.905 3.379L16.26 15.89a708.48 708.48 0 0 1-4.429 1.764c.489-1.787 1.103-3.567 1.59-5.066z" fill="url(#q)" transform="translate(-.196 -.085)"/><path d="M17.89 10.959c-1.51-1.756-2.83-3.333-2.83-3.333l8.397 3.813-2.814 2.689c-.001 0-1.244-1.414-2.754-3.17z" fill="url(#r)" transform="translate(-.196 -.085)"/></g></svg>