<svg xmlns="http://www.w3.org/2000/svg" height="32" width="32"><rect width="28.203" height="28.203" x="1.898" y="1.898" ry="5.575" fill="#c1272d" fill-rule="evenodd"/><path d="M6.414 7.053c.754 1.057 1.299 3.087 1.594 5.425A9.586 6.39 0 0 0 6.414 16a9.586 6.39 0 0 0 1.683 3.606c-.248 2.303-.788 4.297-1.683 5.34 2.6 0 4.933-1.115 6.568-2.886a9.586 6.39 0 0 0 3.018.33A9.586 6.39 0 0 0 25.586 16 9.586 6.39 0 0 0 16 9.61a9.586 6.39 0 0 0-3.016.333 8.911 8.911 0 0 0-6.57-2.89z" fill="#fff"/><path d="M16 10.887c-2.417 0-4.585.668-6.07 1.658-1.485.99-2.238 2.207-2.238 3.454.003.9.4 1.82 1.294 2.688a1.278 1.278 0 0 1 .381 1.055c-.138 1.28-.345 2.475-.684 3.543 1.296-.407 2.457-1.113 3.36-2.091a1.278 1.278 0 0 1 1.218-.38c.879.195 1.807.297 2.741.299 2.416 0 4.584-.668 6.068-1.658 1.485-.99 2.238-2.208 2.238-3.455 0-1.247-.753-2.465-2.238-3.455-1.485-.99-3.653-1.658-6.07-1.658z" fill="#c1272d"/><path d="M12.165 14.722A1.278 1.278 0 0 0 10.887 16a1.278 1.278 0 0 0 1.278 1.278A1.278 1.278 0 0 0 13.444 16a1.278 1.278 0 0 0-1.279-1.278zm3.835 0A1.278 1.278 0 0 0 14.722 16 1.278 1.278 0 0 0 16 17.278 1.278 1.278 0 0 0 17.278 16 1.278 1.278 0 0 0 16 14.722zm3.835 0A1.278 1.278 0 0 0 18.556 16a1.278 1.278 0 0 0 1.279 1.278A1.278 1.278 0 0 0 21.113 16a1.278 1.278 0 0 0-1.278-1.278z" fill="#fff"/></svg>