<svg xmlns="http://www.w3.org/2000/svg" height="32" width="32" version="1"><rect width="28.203" height="28.203" x="1.898" y="1.898" ry="5.575" fill="#007eff" fill-rule="evenodd"/><g stroke-width="1.089"><path d="M15.783 7.212c-.921.001-1.846.055-2.712.172-1.282.174-2.474.473-3.554.938-1.235.51-2.125 1.236-2.43 2.015-.173.457-.128.46-.139.534a2.843 2.843 0 0 0-.02.153c-.045.34-.028.676-.02 1 .605 3.246 1.944 7.021 3.754 9.284.543.654.96 1.087 1.69 1.66.717.562 1.422.996 2.304 1.421a18.194 18.194 0 0 0 .376.175c.022.01.045.02.096.04.026.011.056.024.13.049.036.012.08.027.17.051.046.012.193.043.193.043l.45.04s.457-.039.558-.062c.102-.023.16-.041.206-.056.094-.03.138-.048.176-.063.074-.03.11-.047.144-.062a22.012 22.012 0 0 0 .567-.278c.938-.408 1.77-1.128 2.529-1.692.198-.176.345-.327.565-.55l.004-.005c2.635-2.696 3.795-6.214 4.26-9.996.082-.652-.087-1.345-.18-1.686-.264-.819-.85-1.163-1.492-1.552a9.856 9.856 0 0 0-.937-.463c-1.08-.465-2.271-.764-3.553-.938-.94-.127-1.95-.18-2.948-.17l-.187-.002z" fill="#f2f2f2"/><path d="M15.791 9.723c-.82 0-1.65.05-2.376.149-1.098.149-2.086.406-2.899.756-.459.197-1.044.526-1.074.603-.01.026-.024.245-.033.486.062.505.137.998.225 1.478.04.297.162.896.28 1.36.167.656.275.884.549 1.155.165.165.292.252.541.376.361.178.785.295 1.552.43.475.082.924.19 1.3.31 2.378.765 4.473 2.485 4.576 3.76.007.086.017.17.023.186.013.044.163-.088.573-.507 2.138-2.187 3.135-5.068 3.563-8.548a4.372 4.372 0 0 0-.033-.486c-.03-.077-.615-.406-1.074-.603-.813-.35-1.8-.607-2.899-.756A18.552 18.552 0 0 0 16 9.724h-.209zm-3.996 7.603a1.286 1.286 0 0 0-.321.026.488.488 0 0 0-.175.104c-.115.116-.097.218.096.54.354.59.788 1.205 1.207 1.71.258.31 1.027 1.068 1.307 1.288.62.487 1.05.75 1.844 1.134.17.082.315.149.322.149.036 0 .927-.458 1.152-.592.394-.234.697-.44.775-.53.038-.043.095-.134.126-.202.11-.239.064-.558-.128-.882-.663-1.118-2.778-2.235-4.952-2.616a8.37 8.37 0 0 0-1.253-.129z" fill="#0087db"/></g><g transform="matrix(.77622 0 0 .77622 4.741 4.3)" stroke-width="1.288"><circle r="5" cy="7" cx="6" fill="#e6e6e6"/><circle cx="6" cy="7" r="3" fill="#4f4f4f"/></g></svg>