<svg xmlns="http://www.w3.org/2000/svg" height="32" width="32" version="1"><rect width="28.203" height="28.203" x="1.898" y="1.898" ry="5.575" fill="#37a0f2" fill-rule="evenodd"/><path d="M15.844 6.5a.934.934 0 0 0-.934.934.934.934 0 0 0 .283.669l-1.131 2.45a.934.934 0 0 0-.087-.004.934.934 0 0 0-.722.345l-2.643-.943a.934.934 0 0 0-.271-.623.934.934 0 0 0-1.322 0 .934.934 0 0 0 0 1.322.934.934 0 0 0 .623.272l.943 2.64a.934.934 0 0 0-.345.724h-.623l-.7.084-2.415.291v2.99l2.413.29a7.164 7.164 0 0 0 .769 1.853L8.18 21.707l2.114 2.113 1.912-1.501a7.164 7.164 0 0 0 1.853.766l.29 2.416h2.99v-.002l.29-2.412a7.164 7.164 0 0 0 1.853-.768l1.913 1.501 2.113-2.114-1.501-1.913-.436-.555-.478-.478a.934.934 0 0 0 .358-.736.934.934 0 0 0-.005-.086l2.45-1.132a.934.934 0 0 0 .67.284.934.934 0 0 0 .934-.935.934.934 0 0 0-.934-.934.934.934 0 0 0-.67.283l-2.45-1.13a.934.934 0 0 0 .005-.088.934.934 0 0 0-.344-.724l.943-2.641a.934.934 0 0 0 .621-.271.934.934 0 0 0 0-1.322.934.934 0 0 0-1.321 0 .934.934 0 0 0-.273.623l-2.64.942a.934.934 0 0 0-.724-.344.934.934 0 0 0-.086.005l-1.13-2.45a.934.934 0 0 0 .282-.67.934.934 0 0 0-.934-.934zm.087 1.863l1.13 2.45a.934.934 0 0 0-.228.359h-1.978a.934.934 0 0 0-.229-.358l1.13-2.45a.934.934 0 0 0 .088.004.934.934 0 0 0 .087-.005zm-5.505 2.183l2.615.935a.934.934 0 0 0 0 .002.934.934 0 0 0 .092.402l-1.56 1.56a.934.934 0 0 0-.4-.093.934.934 0 0 0-.003 0l-.935-2.615a.934.934 0 0 0 .104-.087.934.934 0 0 0 .087-.104zm10.836 0a.934.934 0 0 0 .088.104.934.934 0 0 0 .104.088l-.935 2.614a.934.934 0 0 0-.002 0 .934.934 0 0 0-.402.092l-1.56-1.56a.934.934 0 0 0 .093-.401.934.934 0 0 0 0-.002l2.615-.935zm-6.407 1.248h1.978a.934.934 0 0 0 .88.623.934.934 0 0 0 .402-.09l1.56 1.558a.934.934 0 0 0-.093.401.934.934 0 0 0 .623.881v1.977a.934.934 0 0 0-.623.88.934.934 0 0 0 .22.601 4.672 4.672 0 0 1-3.957 2.202 4.672 4.672 0 0 1-4.672-4.672 4.672 4.672 0 0 1 .098-.94.934.934 0 0 0 .836-.929.934.934 0 0 0-.093-.402l1.56-1.559a.934.934 0 0 0 .402.092.934.934 0 0 0 .88-.623zm6.33 3.143l2.451 1.132a.934.934 0 0 0-.005.086.934.934 0 0 0 .005.086l-2.45 1.13a.934.934 0 0 0-.358-.227v-1.978a.934.934 0 0 0 .357-.229z" color="#000" fill-rule="evenodd" fill="#fff"/></svg>