<svg xmlns="http://www.w3.org/2000/svg" height="32" width="32" version="1"><path d="M7.473 1.898a5.561 5.561 0 0 0-5.575 5.575v8.916h28.204V7.473a5.561 5.561 0 0 0-5.575-5.575z" fill="#f2f2f2" fill-rule="evenodd"/><path fill="#ccc" d="M7.108 6.797h17.79v10.657H7.108z"/><path fill="#999" d="M8.887 11.06h4.447v3.197H8.887zM18.671 11.06h4.447v3.197h-4.447z"/><path d="M30.102 16.389H1.898v8.138a5.561 5.561 0 0 0 5.575 5.575h17.054a5.561 5.561 0 0 0 5.575-5.575z" fill="#4b88e8" fill-rule="evenodd"/><path d="M20.857 27.043a3.681 3.681 0 0 0 3.68-3.682 3.681 3.681 0 0 0-3.68-3.681 3.681 3.681 0 0 0-3.249 1.953H9.006l-1.702 1.702 1.664 1.662h2.454l.487-.842.477.825h1.002l.651-1.127.714 1.236h.807l.723-.721.573.573h.68a3.681 3.681 0 0 0 3.321 2.102zm0-2.141a1.54 1.54 0 0 1-.154-.008 1.54 1.54 0 0 1-.152-.024 1.54 1.54 0 0 1-.15-.037 1.54 1.54 0 0 1-.144-.053 1.54 1.54 0 0 1-.138-.067 1.54 1.54 0 0 1-.132-.08 1.54 1.54 0 0 1-.122-.094 1.54 1.54 0 0 1-.113-.104 1.54 1.54 0 0 1-.101-.117 1.54 1.54 0 0 1-.09-.125 1.54 1.54 0 0 1-.077-.133 1.54 1.54 0 0 1-.063-.14 1.54 1.54 0 0 1-.048-.147 1.54 1.54 0 0 1-.034-.15 1.54 1.54 0 0 1-.018-.152 1.54 1.54 0 0 1-.004-.11 1.54 1.54 0 0 1 .007-.154 1.54 1.54 0 0 1 .023-.151 1.54 1.54 0 0 1 .039-.15 1.54 1.54 0 0 1 .052-.144 1.54 1.54 0 0 1 .067-.14 1.54 1.54 0 0 1 .08-.13 1.54 1.54 0 0 1 .094-.122 1.54 1.54 0 0 1 .105-.114 1.54 1.54 0 0 1 .115-.101 1.54 1.54 0 0 1 .125-.09 1.54 1.54 0 0 1 .134-.076 1.54 1.54 0 0 1 .14-.063 1.54 1.54 0 0 1 .147-.048 1.54 1.54 0 0 1 .15-.035 1.54 1.54 0 0 1 .153-.017 1.54 1.54 0 0 1 .11-.004 1.54 1.54 0 0 1 .153.006 1.54 1.54 0 0 1 .152.024 1.54 1.54 0 0 1 .148.038 1.54 1.54 0 0 1 .145.053 1.54 1.54 0 0 1 .14.067 1.54 1.54 0 0 1 .13.08 1.54 1.54 0 0 1 .123.093 1.54 1.54 0 0 1 .112.106 1.54 1.54 0 0 1 .103.115 1.54 1.54 0 0 1 .088.125 1.54 1.54 0 0 1 .077.133 1.54 1.54 0 0 1 .063.141 1.54 1.54 0 0 1 .049.146 1.54 1.54 0 0 1 .033.15 1.54 1.54 0 0 1 .019.154 1.54 1.54 0 0 1 .004.108 1.54 1.54 0 0 1-.008.154 1.54 1.54 0 0 1-.023.153 1.54 1.54 0 0 1-.038.149 1.54 1.54 0 0 1-.053.144 1.54 1.54 0 0 1-.067.138 1.54 1.54 0 0 1-.08.131 1.54 1.54 0 0 1-.093.124 1.54 1.54 0 0 1-.106.112 1.54 1.54 0 0 1-.115.102 1.54 1.54 0 0 1-.125.09 1.54 1.54 0 0 1-.134.076 1.54 1.54 0 0 1-.14.062 1.54 1.54 0 0 1-.146.05 1.54 1.54 0 0 1-.15.033 1.54 1.54 0 0 1-.153.019 1.54 1.54 0 0 1-.109.004z" fill="#fff"/></svg>