<svg xmlns="http://www.w3.org/2000/svg" width="32" height="32" version="1"><rect width="28.203" height="28.203" x="1.898" y="1.898" ry="5.575" fill="#4b88e8" fill-rule="evenodd"/><path d="M15.71 27.18c-.15-.108-.35-.25-.444-.316l-.172-.12v-1.48c-.001-.813-.015-1.487-.03-1.497-.033-.02-.025-.024-.954.534l-.654.392-.381-.247-.381-.247V23.108l.39-.222c.215-.122.554-.316.754-.432.465-.268.514-.296.918-.526l.336-.192v-.977c0-.683-.012-.978-.04-.978-.021 0-.23.118-.463.261a81.653 81.653 0 0 1-1.042.63l-.327.197-.01-.988c-.005-.543-.024-1.003-.043-1.02-.02-.02-.081-.005-.154.039-.066.04-.484.257-.929.482l-.808.409-.01 1.438-.01 1.438-.364.264c-.2.146-.376.266-.39.266-.015.001-.166-.108-.337-.241l-.31-.244v-.938c0-.578-.013-.938-.034-.938-.02 0-.187.087-.373.194-.185.107-.624.355-.974.55-.839.472-.9.506-1.086.612l-.159.09-.186-.065a20.253 20.253 0 0 1-.586-.228l-.4-.162-.01-.583-.01-.584.1-.071c.056-.04.191-.12.301-.18.11-.06.38-.212.6-.338l.546-.31.979-.558c.058-.034.111-.077.118-.096.006-.019-.303-.182-.686-.362-.384-.18-.764-.362-.845-.405l-.148-.078v-1.108l.487-.27c.283-.157.51-.26.542-.248.052.02.702.402 1.734 1.018.24.143.503.298.584.343l.149.082.823-.485c.453-.267.824-.496.825-.51 0-.025-.66-.422-1.372-.826-.185-.105-.336-.201-.336-.215 0-.013.118-.095.263-.182.145-.086.403-.244.573-.35.17-.107.414-.259.543-.338.129-.078.24-.158.246-.177.012-.037-.117-.116-.94-.577-.292-.165-.57-.325-.615-.357-.09-.063-.13-.047-.652.265-.09.054-.32.188-.51.299-.19.11-.571.334-.848.497-.277.163-.525.296-.551.296-.026 0-.254-.1-.506-.22l-.46-.22.01-.532.01-.532.17-.1.327-.187c.9-.503 1.16-.66 1.15-.689-.006-.019-.159-.112-.338-.207l-.581-.312-.545-.294-.71-.386-.417-.23v-1.193l.555-.254.555-.254.19.103c.105.056.558.306 1.008.555 1.094.606 1.403.77 1.45.77.029 0 .04-.275.04-.92v-.92l.1-.092c.056-.051.212-.178.348-.282l.247-.189.135.08.457.281.322.2-.026 1.458-.025 1.457.14.077c.207.114.855.485 1.248.714.19.11.357.194.372.185.015-.009.028-.467.028-1.018 0-.939.004-1 .063-.977.035.013.375.193.755.4.814.442.984.529 1.034.529.025 0 .038-.326.038-.978v-.977l-.336-.192-.446-.253-.49-.286c-.21-.122-.55-.317-.755-.431l-.372-.21V7.803l.381-.247.382-.247.654.392c.929.558.921.554.953.534.016-.01.03-.684.03-1.497l.003-1.48.17-.12c.095-.065.298-.208.453-.317l.281-.197.454.317.455.317v1.48c0 .816.015 1.488.033 1.499.018.01.12-.027.227-.083l.632-.332c.24-.125.554-.292.7-.372l.262-.144.5.271.5.271.011.494.01.493-1.437.717-1.437.717v.976c0 .692.012.976.04.976.023 0 .264-.126.537-.278l.696-.389c.11-.06.29-.163.4-.228l.2-.117.008 1.006c.005.553.018 1.027.027 1.053.013.034.297-.094.963-.436l.945-.484v-1.55l.001-1.552.34-.203.341-.203.369.202.368.202v.98c0 .683.012.979.04.979.036 0 .911-.447.996-.509.02-.014.192-.108.382-.209l.673-.355c.18-.095.405-.215.5-.268l.175-.095.19.104c.103.058.34.194.526.303l.337.198-.01.547-.01.547-.254.145a256.625 256.625 0 0 0-.873.5l-.581.332c-.1.058-.334.19-.519.293-.184.103-.336.197-.336.209 0 .011.207.135.459.275s.567.317.7.393c.132.075.294.161.359.19l.118.054v1.085l-.371.189c-.204.104-.4.207-.437.23-.05.031-.087.027-.165-.02a30.94 30.94 0 0 0-.408-.24c-.17-.098-.555-.322-.855-.498-1.2-.703-1.164-.685-1.261-.634-.082.043-.728.462-1.329.86-.351.234-.387.164.318.608.88.552 1.02.649.992.676-.016.016-.307.187-.647.38-.903.516-1.045.605-1.011.637.016.015.418.227.893.47l.863.442.427-.234c.236-.128.665-.363.955-.523.29-.159.67-.366.845-.46l.318-.171.436.277.437.277v1.008l-.154.087-.763.43c-.335.187-.603.357-.597.377.01.035.69.46 1.605 1.007.24.143.53.323.645.4l.21.14V21.772l-.282.12-.572.244c-.16.068-.315.126-.346.128-.045.003-2.053-1.08-2.45-1.321a.585.585 0 0 0-.14-.07c-.016 0-.028.423-.028.94v.939l-.33.246c-.38.284-.326.286-.787-.032l-.3-.207-.01-1.441-.009-1.442-.09-.047a88.1 88.1 0 0 1-.655-.35c-1.007-.543-1.12-.6-1.142-.579-.012.012-.022.446-.022.965v.944l-.087-.058a5.379 5.379 0 0 0-.282-.162c-.107-.059-.26-.143-.34-.189-.635-.363-1.107-.618-1.14-.618-.03 0-.041.284-.041.978v.977l.336.192c.398.226.447.254.91.52l.708.409c.195.111.375.22.4.241.036.029.045.183.037.62l-.01.58-.374.198-.373.197-.789-.472c-.433-.26-.8-.464-.817-.454-.015.01-.029.683-.029 1.497v1.48l-.173.12c-.614.43-.737.515-.745.513-.005-.002-.13-.09-.28-.198zm1.413-10.107c.094-.18.256-.483.36-.674l.187-.346-.308-.58c-.169-.32-.343-.65-.386-.735l-.079-.153-.788-.01a16.806 16.806 0 0 0-.847 0c-.034.007-.1.081-.147.164l-.4.702c-.172.302-.313.57-.313.596 0 .04.403.7.76 1.245l.09.137.85-.01.85-.01z" fill="#fff"/></svg>