<svg xmlns="http://www.w3.org/2000/svg" xmlns:xlink="http://www.w3.org/1999/xlink" width="32" height="32"><defs><radialGradient xlink:href="#a" id="c" cx="16.63" cy="19.652" fx="16.63" fy="19.652" r="6.344" gradientTransform="matrix(.00134 2.10564 -1.60027 .00102 47.139 -17.555)" gradientUnits="userSpaceOnUse"/><radialGradient xlink:href="#b" id="d" cx="14.693" cy="18.677" fx="14.693" fy="18.677" r="6.328" gradientTransform="matrix(1.77549 -.01337 .0133 1.76717 -10.01 -14.878)" gradientUnits="userSpaceOnUse"/><linearGradient id="b"><stop offset="0" stop-color="#fff"/><stop offset="1" stop-color="#3fb7ff"/></linearGradient><linearGradient id="a"><stop offset="0" stop-color="#fff"/><stop offset="1" stop-color="#019cff"/></linearGradient></defs><rect width="28.203" height="28.203" x="1.899" y="1.899" ry="5.575" fill="#4b88e8" fill-rule="evenodd"/><path d="M18.209 7.32c-.73.007-1.596.04-2.655.123-4.538.352-8.217 4-8.025 8.713.19 4.676 3.796 8.524 8.474 8.524 4.676 0 8.475-3.838 8.475-8.549-.005-2.803-1.083-5.127-1.02-8.072v-.005c.008-.098.016-.18.011-.263a.434.434 0 0 0-.149-.325.44.44 0 0 0-.315-.093c-.081.002-.157.012-.253.021-.92.083-1.66.015-2.699-.035a31.363 31.363 0 0 0-1.844-.038zm3.095 1.207a6.45 6.45 0 0 0-.383.756c-.283.647-.677 1.69-1.514 3.884-1.233 3.236-3.107 4.782-4.994 5.58-1.72.728-3.44.796-4.678.783a8.039 8.039 0 0 1-.913-3.426c-.164-4.02 2.92-7.066 6.833-7.37 2.913-.226 4.385-.178 5.649-.207zm1.13.586c.144 2.65.745 4.893.75 7.02-.001 4.018-3.212 7.252-7.181 7.252-2.199 0-4.11-.995-5.41-2.567 1.22-.04 2.759-.215 4.327-.878 2.113-.893 3.905-1.832 5.247-5.352 1.261-3.308 1.784-4.596 2.268-5.475z" style="line-height:normal;font-variant-ligatures:normal;font-variant-position:normal;font-variant-caps:normal;font-variant-numeric:normal;font-variant-alternates:normal;font-feature-settings:normal;text-indent:0;text-align:start;text-decoration-line:none;text-decoration-style:solid;text-decoration-color:#000;text-transform:none;text-orientation:mixed;white-space:normal;shape-padding:0;isolation:auto;mix-blend-mode:normal;solid-color:#000;solid-opacity:1" color="#000" font-weight="400" font-family="sans-serif" overflow="visible" fill="#fff"/><path d="M15.173 23.75c-1.602-.126-3.06-.797-4.258-1.956-.28-.272-.509-.511-.509-.533 0-.021.127-.039.283-.039.42 0 1.429-.126 2.044-.255 1.725-.361 3.742-1.31 4.834-2.274.79-.698 1.506-1.714 2.025-2.875.11-.246.51-1.25.89-2.232.742-1.918 1.252-3.145 1.524-3.67l.17-.329.013.226c.029.529.162 1.676.349 3.005.317 2.25.356 2.647.356 3.637 0 .664-.02 1.015-.077 1.321-.292 1.566-.968 2.858-2.064 3.943a7.081 7.081 0 0 1-5.58 2.03z" fill="url(#c)" stroke="#fff" stroke-width=".2" paint-order="markers fill stroke" transform="translate(.248 -.413)"/><path d="M9.308 19.534a8.55 8.55 0 0 1-.562-1.746c-.11-.515-.12-.652-.121-1.559 0-.93.008-1.028.127-1.536.296-1.266.858-2.32 1.716-3.219 1.193-1.248 2.685-2.002 4.434-2.244.985-.136 3.28-.252 4.999-.252h1.113l-.15.282c-.193.365-.513 1.153-1.243 3.067-.685 1.795-.926 2.352-1.307 3.015-1.475 2.573-3.621 4.02-6.618 4.46-.25.038-.85.08-1.335.093l-.881.026z" fill="url(#d)" stroke="#fff" stroke-width=".2" paint-order="markers fill stroke" transform="translate(.248 -.413)"/></svg>