<svg xmlns="http://www.w3.org/2000/svg" xmlns:xlink="http://www.w3.org/1999/xlink" height="32" width="32" version="1"><defs><linearGradient id="b"><stop offset="0" stop-color="#e83903"/><stop offset="1" stop-color="#fbd843"/></linearGradient><linearGradient id="a"><stop offset="0" stop-color="#e83903"/><stop offset="1" stop-color="#fbd843"/></linearGradient><linearGradient xlink:href="#a" id="d" x1="14.35" y1="7.262" x2="14.779" y2="22.914" gradientUnits="userSpaceOnUse" gradientTransform="rotate(17.75 19.74 18.597)"/><linearGradient xlink:href="#b" id="c" x1="14.35" y1="7.262" x2="14.779" y2="22.914" gradientUnits="userSpaceOnUse" gradientTransform="rotate(17.75 19.74 18.597)"/></defs><rect width="28.203" height="28.203" x="1.898" y="1.898" ry="5.575" fill="#4d4d4d" fill-rule="evenodd"/><path d="M8.407 15.387l-.113.03-.49.138c-.51.143-1.595.618-2.06.903-.4.245-.784.505-.802.544-.027.056.608.699 1.077 1.09a9.217 9.217 0 0 0 3.413 1.827c.422.123 1.305.297 1.676.33.083.007.157.023.162.035.005.011-.028.048-.075.082-.3.215-.884.751-1.244 1.145a9.768 9.768 0 0 0-1.418 2.058c-.345.668-.733 1.828-.861 2.579-.054.315-.088.29.39.305 1.202.037 2.482-.169 3.55-.571a9.435 9.435 0 0 0 4.67-3.767c.172-.267.087-.204.108-.26a8.895 9.184 66.327 0 1-.05-.002 8.895 9.184 66.327 0 1-.902-.112 8.895 9.184 66.327 0 1-.884-.199 8.895 9.184 66.327 0 1-.859-.285 8.895 9.184 66.327 0 1-.824-.368 8.895 9.184 66.327 0 1-.78-.45 8.895 9.184 66.327 0 1-.727-.52 8.895 9.184 66.327 0 1-.67-.594 8.895 9.184 66.327 0 1-.603-.657 8.895 9.184 66.327 0 1-.533-.713 8.895 9.184 66.327 0 1-.456-.764 8.895 9.184 66.327 0 1-.272-.567 8.895 9.184 66.327 0 1-.316-.832 8.895 9.184 66.327 0 1-.107-.405z" fill="#6ea50c"/><path d="M19.774 6.628l-.492-.137c-1.47-.409-2.922-.528-4.203-.347-1.33.188-2.231.65-2.697 1.382a1.705 1.705 0 0 0-.216.81c.035 1.187 1.476 2.603 3.537 3.475.307.13 1.239.436 1.495.491 1.1.237 2.123.242 2.904.015.284-.083.676-.303.848-.477.204-.207.324-.48.311-.71-.032-.577-.638-1.278-1.543-1.784-1.271-.71-2.733-.936-3.57-.55-.426.195-.567.498-.385.828.1.18.339.43.566.59.23.163.673.394.887.463l.13.042-.107.304-.11.305-.238-.084c-.83-.293-1.472-.818-1.75-1.432-.148-.327-.158-.538-.037-.857.12-.32.312-.524.677-.714.742-.386 1.802-.392 2.964-.02l.47.152.28-.873zm1.929 3.685c-.004.011.032.11.08.219.104.239.155.54.13.77-.012.119-.365 1.242-1.193 3.805l-1.175 3.637-.196.337a5.63 5.63 0 0 1-1.998 2.041 6.426 6.426 0 0 1-1.087.5c-.051.015.1.181.126.232a9.184 8.895 17.75 0 0 .05-.007 9.184 8.895 17.75 0 0 .885-.204 9.184 8.895 17.75 0 0 .86-.289 9.184 8.895 17.75 0 0 .824-.372 9.184 8.895 17.75 0 0 .783-.45 9.184 8.895 17.75 0 0 .728-.528 9.184 8.895 17.75 0 0 .67-.594 9.184 8.895 17.75 0 0 .605-.66 9.184 8.895 17.75 0 0 .533-.715 9.184 8.895 17.75 0 0 .456-.764 9.184 8.895 17.75 0 0 .375-.807 9.184 8.895 17.75 0 0 .212-.593 9.184 8.895 17.75 0 0 .228-.86 9.184 8.895 17.75 0 0 .065-.414h-.01l-.007-.222c-.035-1.124-.528-2.422-1.276-3.362-.2-.251-.658-.73-.668-.7zm-9.951-.925l-.259.807-.258.805.243.222c.507.457 1.113 1.167 1.55 1.819.335.497.859 1.536 1.067 2.109.658 1.813.795 3.655.41 5.51-.053.25-.102.477-.11.502-.02.065.054.078.343.063.378-.02.555-.041.837-.103 1.239-.273 2.363-1.046 3.031-2.084.332-.515.361-.595 1.305-3.544l.882-2.755-.166.078c-.575.267-1.587.391-2.47.304-1.06-.104-2.243-.45-3.322-.977-1.302-.634-2.389-1.556-2.925-2.482zm-3.9.408l-.043.132c-.126.395-.26 1.24-.3 1.873a9.48 9.48 0 0 0 .598 3.893c.174.46.689 1.46.962 1.868 1.047 1.568 2.6 2.83 4.324 3.513l.306.12.084-.331a9.87 9.87 0 0 0 .27-2.506 11.658 11.658 0 0 0-.254-1.931c-.606-2.415-2.078-4.473-4.114-5.749-.548-.343-1.26-.699-1.64-.82z" fill="url(#c)" stroke="url(#d)" stroke-width=".031"/><path d="M23.665 14.598l.115.019.501.086c.523.09 1.651.451 2.143.686.423.203.832.422.854.458.032.054-.533.758-.959 1.197a9.218 9.218 0 0 1-3.206 2.168c-.407.166-1.267.43-1.633.5-.083.017-.154.04-.158.053-.004.012.033.045.083.073.321.183.956.657 1.356 1.01a9.768 9.768 0 0 1 1.622 1.902c.412.629.918 1.742 1.123 2.476.086.308.117.28-.356.344-1.193.161-2.487.088-3.59-.202a9.435 9.435 0 0 1-5.035-3.265c-.198-.248-.107-.194-.134-.248a9.184 8.895 17.75 0 0 .05-.007 9.184 8.895 17.75 0 0 .885-.204 9.184 8.895 17.75 0 0 .86-.289 9.184 8.895 17.75 0 0 .824-.372 9.184 8.895 17.75 0 0 .782-.45 9.184 8.895 17.75 0 0 .729-.528 9.184 8.895 17.75 0 0 .67-.594 9.184 8.895 17.75 0 0 .605-.66 9.184 8.895 17.75 0 0 .532-.715 9.184 8.895 17.75 0 0 .456-.764 9.184 8.895 17.75 0 0 .375-.807 9.184 8.895 17.75 0 0 .213-.593 9.184 8.895 17.75 0 0 .228-.86 9.184 8.895 17.75 0 0 .065-.414z" fill="#6ea50c"/></svg>