<svg xmlns="http://www.w3.org/2000/svg" height="32" width="32"><rect width="28.203" height="28.203" x="1.898" y="1.898" ry="5.575" fill="#75aadb" fill-rule="evenodd"/><path d="M12.499 17h2.952c1.009.36 3.218 3.67 4.419 6h1.597c1.033 0 2.033 0 2.033-1s-1-1-2.033-1h-.312c-1.009-1.609-1.897-3.115-3.026-4.1 1.753-.96 2.37-1.887 2.37-3.4C20.5 10.978 18.563 9 15.44 9h-5.355C9.5 9 8.5 9 8.5 10c.001 1 1 1 2 1v9.998h-.415C9.5 21 8.5 21 8.501 22c0 1 .999 1 1.585 1h3.602c.812 0 1.812 0 1.812-1s-1-1-1.812-1.001H12.5V17zm0-2v-4h3.036c1.965 0 2.965 1 2.965 2.203C18.5 15 16.954 15 14.67 15z" fill="#fff"/></svg>