<svg xmlns="http://www.w3.org/2000/svg" height="32" width="32" version="1"><g transform="translate(43.158 19.368)"><path d="M-13.158-12.4c-.054-.578-.12-1.157-.336-1.67a5.563 5.563 0 0 0-2.965-2.964c-.511-.216-1.089-.28-1.666-.334h-9.033v14h14z" fill="#ff8c2a"/><path d="M-36.193-17.368c-.577.054-1.155.118-1.666.334a5.563 5.563 0 0 0-2.965 2.964c-.216.512-.28 1.09-.334 1.666v9.036h14v-14z" fill="#6655e4"/><path d="M-18.123 10.632c.577-.055 1.155-.119 1.666-.334a5.563 5.563 0 0 0 2.965-2.965c.216-.512.28-1.09.334-1.666v-9.035h-14v14z" fill="#fe4b71"/><path d="M-41.158 5.663c.054.578.12 1.157.336 1.67a5.563 5.563 0 0 0 2.965 2.965c.511.215 1.089.28 1.666.334h9.033v-14h-14z" fill="#c72566"/><rect ry="4.235" y="-14.08" x="-37.87" height="21.424" width="21.424" fill="#3f3f3f" fill-rule="evenodd"/></g><g stroke-width="2.162" fill="none" stroke="#fff" stroke-linecap="round"><path d="M33-13.947h8" transform="matrix(.92494 0 0 .92494 -20.995 35.392)"/><path d="M47-19.948v-8m-6 0l3 4 3-4m-6 8v-8" stroke-linejoin="round" transform="matrix(.92494 0 0 .92494 -20.995 35.392)"/><path d="M37-19.948l-2-3m-2-1s4 .465 4-2c0-2.464-4-2-4-2m0 8v-8" transform="matrix(.92494 0 0 .92494 -20.995 35.392)"/></g></svg>