<svg xmlns="http://www.w3.org/2000/svg" width="32" height="32"><rect width="28.203" height="28.203" x="1.898" y="1.898" ry="5.575" fill="#38738f" fill-rule="evenodd"/><path d="M16 5.518A10.482 10.482 0 0 0 5.518 16 10.482 10.482 0 0 0 16 26.482 10.482 10.482 0 0 0 26.482 16 10.482 10.482 0 0 0 16 5.518z" fill="#fff"/><g fill="#38738f" stroke-width="1.333"><path d="M12.677 12.816h2.25v9.976l-1.125 1.279-1.125-1.28z"/><path d="M13.09 12.065v.005c-.426.003-.76.01-1.154.1-.4.093-.76.17-.76.671l.525.25s.274-.207.526-.25c.287-.049.61.115.863.274v.226h1.087s.72-.581 1.2-.5c.252.043.527.25.527.25l.524-.25c0-.5-.36-.578-.76-.67-.5-.115-.846-.099-1.49-.106h-.751z"/><path d="M14.177 9.514v3.001h-.75V9.514z"/><path d="M14.928 9.064c0 .414-.504.75-1.126.75-.621 0-1.125-.336-1.125-.75zM12.676 16.197l1.126 1.126-1.126 1.125-1.125-1.125zM16.924 12.065c.15.228.255.506.255.776a.75.75 0 0 1-.23.54c.616.43.98 1.207.98 1.973 0 1.42-.791 1.545-2.251 1.964.876 2.141 2.622 4.036 4.348 5.016 1.473.89 2.823 1.517 4.656 1.737-2.024-2.471-5.177-3.559-6.753-6.003 1.053-.552 2.251-1.03 2.251-2.855 0-1.48-1.35-3.148-2.355-3.148z"/></g></svg>