<svg xmlns="http://www.w3.org/2000/svg" height="32" width="32" version="1"><rect width="28.203" height="28.203" x="1.898" y="1.898" ry="5.575" fill="#ff4848" fill-rule="evenodd"/><path d="M9.68 1.888c.059.21.152.57.152.57l.174.521-.006.002.012.035a3.986 3.986 0 0 1 .186 1.284 4.011 4.011 0 0 1-.22 1.25 3.04 3.04 0 0 1-.366.725l.013-.004a3.71 3.71 0 0 0-.4.724 3.675 3.675 0 0 0-.139.39 3.66 3.66 0 0 0-.09.408 3.642 3.642 0 0 0-.044.844c.01.143.03.288.057.431a3.576 3.576 0 0 0 .796 1.665c.15.177.319.336.498.477.178.141.367.264.569.368a3.573 3.573 0 0 0 1.992.369 3.84 3.84 0 0 0 .35-.06c.117-.026.235-.06.35-.098a3.39 3.39 0 0 0 .34-.126c.108-.049.212-.106.314-.166a3.567 3.567 0 0 0 1.034-.909 3.56 3.56 0 0 0 .608-1.22 3.544 3.544 0 0 0-.035-2.099 3.624 3.624 0 0 0-.364-.788 3.653 3.653 0 0 0-.242-.348 3.553 3.553 0 0 0-.59-.583 3.672 3.672 0 0 0-.704-.427 3.568 3.568 0 0 0-.383-.15l.02-.008a2.954 2.954 0 0 1-.72-.366 3.91 3.91 0 0 1-1.147-1.234 3.923 3.923 0 0 1-.204-.384 4.072 4.072 0 0 1-.12-.307l.006-.002-.222-.67-.032-.114zm10.038 7.058a3.538 3.538 0 0 0-.424.01c-.143.011-.285.03-.427.06a3.528 3.528 0 0 0-1.658.81 3.598 3.598 0 0 0-.837 1.073 3.58 3.58 0 0 0-.362 1.307 3.55 3.55 0 0 0 .077 1.04c.026.116.06.233.1.348.04.116.082.229.132.337a3.507 3.507 0 0 0 1.088 1.34 3.562 3.562 0 0 0 1.22.599c.223.06.452.1.684.118a3.586 3.586 0 0 0 1.058-.075c.118-.026.237-.061.354-.1.142-.047.279-.101.41-.164a3.29 3.29 0 0 0 .718-.45c.108-.089.213-.182.309-.282a3.51 3.51 0 0 0 .498-.658 3.473 3.473 0 0 0 .336-.748l.009.02a3.09 3.09 0 0 1 .36-.725 3.772 3.772 0 0 1 .541-.64c.103-.097.21-.192.323-.278.114-.087.235-.166.359-.24.123-.075.25-.143.381-.204.1-.045.2-.086.303-.124l.004.006c.604-.122 1.166-.126 1.814-.126V9.797c-.655 0-1.332.008-2.132.16l-.004-.007-.033.012a4.13 4.13 0 0 1-.422.114 4.13 4.13 0 0 1-1.705-.008 3.669 3.669 0 0 1-.405-.118 3.275 3.275 0 0 1-.378-.153 3.155 3.155 0 0 1-.351-.205l.006.016a3.747 3.747 0 0 0-.354-.22 3.698 3.698 0 0 0-.373-.174c-.128-.052-.26-.1-.393-.138a3.614 3.614 0 0 0-.406-.087 3.58 3.58 0 0 0-.42-.043zM9.312 12.978c-.117.003-.236.01-.354.023a3.958 3.958 0 0 0-.707.16 3.415 3.415 0 0 0-.785.373 3.38 3.38 0 0 0-.652.529 3.497 3.497 0 0 0-.837 1.4l-.006-.018a2.969 2.969 0 0 1-.155.368 3.26 3.26 0 0 1-.203.356c-.18.224-.426.343-.7.41v2.238h.424a3.826 3.826 0 0 1 1.25.207 3.43 3.43 0 0 1 .729.358l-.006-.013a3.59 3.59 0 0 0 .726.393c.129.052.26.099.394.136.134.037.268.062.406.085.138.022.28.04.421.047.14.006.281 0 .423-.01a3.58 3.58 0 0 0 1.197-.302c.11-.05.216-.103.319-.163a3.458 3.458 0 0 0 1.042-.907c.14-.18.262-.37.364-.573a3.573 3.573 0 0 0 .287-2.347 3.174 3.174 0 0 0-.102-.348 3.496 3.496 0 0 0-.131-.335 3.736 3.736 0 0 0-.17-.313 3.513 3.513 0 0 0-1.5-1.384 3.583 3.583 0 0 0-1.325-.36 3.338 3.338 0 0 0-.349-.01zm7.149 3.051a3.505 3.505 0 0 0-.699.079 3.68 3.68 0 0 0-.349.099c-.116.038-.23.08-.338.13a3.576 3.576 0 0 0-1.349 1.072 3.625 3.625 0 0 0-.61 1.223 3.58 3.58 0 0 0 .197 2.507 3.502 3.502 0 0 0 1.738 1.735c.124.058.253.11.383.153l-.02.004c.124.043.247.097.367.159a3.191 3.191 0 0 1 .686.463c.105.09.206.19.303.293.097.104.192.214.277.328.086.115.163.234.236.358.074.125.142.251.202.382.045.101.082.204.12.308l-.009.004.23.671s.614 1.865.68 4.115h1.396c-.066-2.514-.758-4.574-.758-4.574l-.176-.518.008-.002-.012-.037a4.025 4.025 0 0 1-.105-.421 4.092 4.092 0 0 1-.066-.428 4.433 4.433 0 0 1 .016-.861 3.653 3.653 0 0 1 .35-1.202 3.01 3.01 0 0 1 .208-.348l-.017.008a3.785 3.785 0 0 0 .4-.726 3.418 3.418 0 0 0 .23-.797 3.63 3.63 0 0 0 .046-.42c.007-.141.01-.283 0-.425a3.518 3.518 0 0 0-.059-.43 3.63 3.63 0 0 0-.235-.769 3.5 3.5 0 0 0-1.057-1.375 3.533 3.533 0 0 0-1.2-.62 3.486 3.486 0 0 0-1.014-.138z" fill="#fff"/></svg>