<?xml version="1.0" encoding="UTF-8" standalone="no"?>
<svg
   xmlns:dc="http://purl.org/dc/elements/1.1/"
   xmlns:cc="http://creativecommons.org/ns#"
   xmlns:rdf="http://www.w3.org/1999/02/22-rdf-syntax-ns#"
   xmlns:svg="http://www.w3.org/2000/svg"
   xmlns="http://www.w3.org/2000/svg"
   xmlns:xlink="http://www.w3.org/1999/xlink"
   width="32"
   height="32"
   version="1.1"
   viewBox="0 0 32 32"
   id="svg22">
  <metadata
     id="metadata28">
    <rdf:RDF>
      <cc:Work
         rdf:about="">
        <dc:format>image/svg+xml</dc:format>
        <dc:type
           rdf:resource="http://purl.org/dc/dcmitype/StillImage" />
        <dc:title></dc:title>
      </cc:Work>
    </rdf:RDF>
  </metadata>
  <defs
     id="defs26">
    <clipPath
       id="SVGID_2_">
      <use
         xlink:href="#SVGID_1_"
         style="overflow:visible"
         id="use7"
         x="0"
         y="0"
         width="100%"
         height="100%" />
    </clipPath>
    <clipPath
       id="clipPath4588">
      <use
         xlink:href="#SVGID_1_"
         style="overflow:visible"
         id="use4586"
         x="0"
         y="0"
         width="100%"
         height="100%" />
    </clipPath>
    <path
       id="SVGID_1_"
       d="m 49.738,86.357 c -20.146,0 -36.536,-16.389 -36.536,-36.538 0,-20.145 16.39,-36.535 36.536,-36.535 20.145,0 36.536,16.39 36.536,36.535 -0.001,20.15 -16.389,36.538 -36.536,36.538 z" />
    <defs
       id="defs5">
      <path
         id="path864"
         d="m 49.738,86.357 c -20.146,0 -36.536,-16.389 -36.536,-36.538 0,-20.145 16.39,-36.535 36.536,-36.535 20.145,0 36.536,16.39 36.536,36.535 -0.001,20.15 -16.389,36.538 -36.536,36.538 z" />
    </defs>
    <clipPath
       id="clipPath4595">
      <use
         xlink:href="#SVGID_1_"
         style="overflow:visible"
         id="use4593"
         x="0"
         y="0"
         width="100%"
         height="100%" />
    </clipPath>
    <clipPath
       id="clipPath860">
      <use
         xlink:href="#SVGID_1_"
         style="overflow:visible"
         id="use858"
         x="0"
         y="0"
         width="100%"
         height="100%" />
    </clipPath>
    <path
       id="path864-5"
       d="m 49.738,86.357 c -20.146,0 -36.536,-16.389 -36.536,-36.538 0,-20.145 16.39,-36.535 36.536,-36.535 20.145,0 36.536,16.39 36.536,36.535 -0.001,20.15 -16.389,36.538 -36.536,36.538 z" />
    <defs
       id="defs5-7">
      <path
         d="m 49.738,86.357 c -20.146,0 -36.536,-16.389 -36.536,-36.538 0,-20.145 16.39,-36.535 36.536,-36.535 20.145,0 36.536,16.39 36.536,36.535 -0.001,20.15 -16.389,36.538 -36.536,36.538 z"
         id="path868" />
    </defs>
    <clipPath
       id="clipPath4595-3">
      <use
         height="100%"
         width="100%"
         y="0"
         x="0"
         id="use4593-5"
         style="overflow:visible"
         xlink:href="#SVGID_1_" />
    </clipPath>
    <clipPath
       id="SVGID_2_-3">
      <use
         xlink:href="#SVGID_1_-3"
         style="overflow:visible"
         id="use7-6"
         x="0"
         y="0"
         width="100%"
         height="100%" />
    </clipPath>
    <clipPath
       id="clipPath939">
      <use
         xlink:href="#SVGID_1_-3"
         style="overflow:visible"
         id="use937"
         x="0"
         y="0"
         width="100%"
         height="100%" />
    </clipPath>
    <path
       id="SVGID_1_-3"
       d="m 49.738,86.357 c -20.146,0 -36.536,-16.389 -36.536,-36.538 0,-20.145 16.39,-36.535 36.536,-36.535 20.145,0 36.536,16.39 36.536,36.535 -0.001,20.15 -16.389,36.538 -36.536,36.538 z" />
    <clipPath
       id="clipPath1018">
      <use
         xlink:href="#SVGID_1_-1"
         style="overflow:visible"
         id="use1016"
         x="0"
         y="0"
         width="100%"
         height="100%" />
    </clipPath>
    <path
       id="SVGID_1_-1"
       d="m 49.738,86.357 c -20.146,0 -36.536,-16.389 -36.536,-36.538 0,-20.145 16.39,-36.535 36.536,-36.535 20.145,0 36.536,16.39 36.536,36.535 -0.001,20.15 -16.389,36.538 -36.536,36.538 z" />
    <clipPath
       clipPathUnits="userSpaceOnUse"
       id="clipPath995">
      <use
         xlink:href="#SVGID_1_-1"
         style="overflow:visible;opacity:0"
         id="use997"
         x="0"
         y="0"
         width="100%"
         height="100%"
         transform="translate(5.8297719e-8,-0.04832972)" />
    </clipPath>
    <clipPath
       clipPathUnits="userSpaceOnUse"
       id="clipPath1006">
      <use
         xlink:href="#SVGID_1_-1"
         style="overflow:visible;opacity:0"
         id="use1008"
         x="0"
         y="0"
         width="100%"
         height="100%"
         transform="translate(5.8297719e-8,-0.04832972)" />
    </clipPath>
  </defs>
  <rect
     ry="5.575182"
     y="1.8983059"
     x="1.8983059"
     height="28.203388"
     width="28.203388"
     id="rect4497-3"
     style="fill:#747270;fill-opacity:1;fill-rule:evenodd;stroke:none;stroke-width:0;stroke-linecap:round;stroke-linejoin:bevel;stroke-miterlimit:4;stroke-dasharray:none;stroke-dashoffset:0;stroke-opacity:1" />
  <g
     id="g1004"
     transform="matrix(0.21015468,0,0,0.21015244,5.5973433,5.6731851)">
    <g
       id="g1014">
      <circle
         cx="49.5"
         cy="51.518356"
         id="circle70"
         style="opacity:0.2;fill:#ffffff;fill-opacity:1;stroke:none;stroke-width:0;stroke-miterlimit:4;stroke-dasharray:none"
         r="47.584" />
      <circle
         cx="49.5"
         cy="49.139637"
         id="circle2"
         style="opacity:1;fill:#444445;fill-opacity:1;stroke:none;stroke-width:0;stroke-miterlimit:4;stroke-dasharray:none"
         r="47.584" />
      <path
         id="circle909"
         style="opacity:0.2;fill-opacity:1;stroke:none;stroke-width:0;stroke-miterlimit:4;stroke-dasharray:none"
         d="M 49.416353,1.5551509 A 47.583999,47.584 0 0 0 1.9160016,49.139659 a 47.583999,47.584 0 0 0 0.0186,1.105968 47.583999,47.584 0 0 1 47.5654154,-46.3112501 47.583999,47.584 0 0 1 47.574705,46.5621821 47.583999,47.584 0 0 0 0.0093,-1.3569 47.583999,47.584 0 0 0 -47.583998,-47.5845081 47.583999,47.584 0 0 0 -0.08365,0 z" />
    </g>
    <g
       id="g925"
       transform="matrix(1.3024225,0,0,1.3024225,-15.27858,-14.584591)">
      <g
         id="g14"
         transform="matrix(0.99997247,0,0,1,3.6344504e-4,-0.63441893)">
        <defs
           id="defs5-9">
          <path
             id="path996"
             d="m 49.738,86.357 c -20.146,0 -36.536,-16.389 -36.536,-36.538 0,-20.145 16.39,-36.535 36.536,-36.535 20.145,0 36.536,16.39 36.536,36.535 -0.001,20.15 -16.389,36.538 -36.536,36.538 z" />
        </defs>
        <clipPath
           id="clipPath1027">
          <use
             xlink:href="#SVGID_1_-1"
             style="overflow:visible"
             id="use1025"
             x="0"
             y="0"
             width="100%"
             height="100%" />
        </clipPath>
        <path
           style="fill:#565656;fill-opacity:1;stroke:#cac2ab;stroke-width:6;stroke-opacity:1"
           d="M 13.149,63.763 42.232,27.094 99.64,43.278 c 0,0 -33.383,53.614 -32.118,53.108 C 68.787,95.88 17.955,88.04 17.955,88.04 Z"
           clip-path="url(#clipPath1006)"
           id="path10" />
        <path
           style="opacity:1;fill:#cdb178;fill-opacity:1;stroke:#565656;stroke-width:6;stroke-opacity:1"
           d="m 14.414,68.568 29.083,-36.67 57.408,16.186 c 0,0 -33.383,53.613 -32.118,53.107 1.265,-0.506 -49.567,-8.346 -49.567,-8.346 z"
           clip-path="url(#clipPath995)"
           id="path12" />
      </g>
      <g
         id="g902">
        <path
           style="opacity:0.2;fill:#000000;fill-opacity:1;stroke:none;stroke-width:0;stroke-miterlimit:4;stroke-dasharray:none;stroke-opacity:1"
           d="m 75.281,5.5001228 c 2.328,-1.63 4.909,0.433 4.909,0.433 0,0 2.791,1.492 3.177,3.032 0.386,1.5400002 -12.223,26.2300012 -12.223,26.2300012 0,0 -1.193,3.23 -0.8,5.391 0.605,3.32 5.404,6.146 6.015,8.448 0.669,2.527 -0.211,4.641 -0.211,4.641 0,0 -10.203,23.68 -10.973,25.22 -0.771,1.542 -1.927,7.508 -9.241,3.851 -7.315,-3.658 -7.315,-3.658 -7.315,-3.658 0,0 -7.701,-3.465 -6.353,-10.395 1.347,-6.932 5.621,-22.421 6.737,-25.219 1.042,-2.614 1.191,-5.588 7.893,-5.392 6.354,0.186 6.93,-2.31 8.085,-5.39 1.157,-3.08 7.508,-22.7170012 7.508,-22.7170012 0,0 0.866,-3.127 2.792,-4.475 z"
           id="path890" />
        <path
           style="fill:#a59287;fill-opacity:1;stroke:none;stroke-width:0;stroke-miterlimit:4;stroke-dasharray:none;stroke-opacity:1"
           d="m 75.281,3.308 c 2.328,-1.63 4.909,0.433 4.909,0.433 0,0 2.791,1.492 3.177,3.032 0.386,1.54 -12.223,26.23 -12.223,26.23 0,0 -1.193,3.23 -0.8,5.391 0.605,3.32 5.404,6.146 6.015,8.448 0.669,2.527 -0.211,4.641 -0.211,4.641 0,0 -10.203,23.68 -10.973,25.22 -0.771,1.542 -1.927,7.508 -9.241,3.851 -7.315,-3.658 -7.315,-3.658 -7.315,-3.658 0,0 -7.701,-3.465 -6.353,-10.395 1.347,-6.932 5.621,-22.421 6.737,-25.219 1.042,-2.614 1.191,-5.588 7.893,-5.392 6.354,0.186 6.93,-2.31 8.085,-5.39 1.157,-3.08 7.508,-22.717 7.508,-22.717 0,0 0.866,-3.127 2.792,-4.475 z"
           id="path19" />
        <path
           id="path891"
           style="opacity:0.2;fill:#ffffff;fill-opacity:1;stroke:none;stroke-width:0;stroke-miterlimit:4;stroke-dasharray:none;stroke-opacity:1"
           d="m 77.01727,2.6879821 c -0.569344,0.0358 -1.173392,0.213316 -1.755392,0.620817 -1.926,1.348 -2.790075,4.474157 -2.790075,4.474157 0,0 -6.349799,19.6404419 -7.506799,22.7204419 -1.155,3.080001 -1.730795,5.573541 -8.084794,5.387543 -6.702002,-0.196013 -6.850129,2.780679 -7.892129,5.394676 -1.116002,2.798 -5.389142,18.285978 -6.73614,25.217979 -0.147053,0.756023 -0.167914,1.460067 -0.121296,2.133611 0.02375,-0.338391 0.05192,-0.677947 0.121296,-1.034697 1.346998,-6.931997 5.620138,-22.419974 6.73614,-25.217975 1.042,-2.614001 1.190127,-5.590677 7.892129,-5.394679 6.353999,0.186001 6.929794,-2.307542 8.084794,-5.387541 1.157,-3.080001 7.506799,-22.7204427 7.506799,-22.7204427 0,0 0.864075,-3.1261582 2.790075,-4.4741572 2.328,-1.630001 4.90939,0.435284 4.90939,0.435284 0,0 2.316705,1.281282 2.982739,2.690203 0.06545,-0.250293 0.223054,-0.663635 0.199799,-0.756396 -0.386,-1.54 -3.18254,-3.032722 -3.18254,-3.032722 0,0 -1.445966,-1.163539 -3.153996,-1.056102 z M 70.309674,37.596401 c -0.07068,0.655544 -0.08484,1.313901 0.02141,1.898127 0.605,3.319999 5.40443,6.146808 6.01543,8.448807 0.133258,0.503356 0.163129,0.970026 0.192663,1.427164 0.05631,-0.741051 0.05781,-1.579973 -0.192663,-2.526078 -0.611,-2.302 -5.41043,-5.128808 -6.01543,-8.448808 -0.04473,-0.245993 -0.01366,-0.531871 -0.02141,-0.799212 z" />
        <path
           d="m 46.99,71.475 c 0,0 8.714,-17.805 10.441,-22.034 0.885,-2.165 2.32,-4.267 5.42,-3.097 3.156,1.191 4.287,1.787 4.287,1.787 0,0 2.884,1.048 1.729,3.709 -1.158,2.66 -9.604,23.6 -9.257,23.83 0.348,0.232 2.893,-2.545 3.819,-4.625 0.925,-2.084 7.776,-17.549 7.776,-17.549 0,0 2.245,-4.276 -0.489,-6.632 -2.437,-2.099 -4.772,-3.517 -6.94,-4.28 -3.586,-1.263 -8.284,-2.362 -9.673,-1.552 -1.388,0.809 -1.979,2.644 -2.474,3.866 -0.932,2.294 -5.628,18.711 -5.904,19.857 -0.416,1.727 -1.369,4.528 1.265,6.72 z"
           id="path21"
           style="opacity:0.2;fill-opacity:1;stroke:none;stroke-width:0;stroke-miterlimit:4;stroke-dasharray:none" />
        <path
           style="opacity:1;fill:#cdb178;fill-opacity:1;stroke:#cfb786;stroke-width:0.475843;stroke-miterlimit:4;stroke-dasharray:none;stroke-opacity:1"
           d="m 41.117,73.636 c 2.034,-1.78 3.306,-0.922 5.04,-1.626 2.172,-0.882 1.603,-0.341 3.638,0.677 2.035,1.017 3.154,-0.759 4.164,0.521 3.815,4.832 6.066,1.349 6.91,3.218 1.113,2.468 -1.392,3.951 1.222,5.123 2.285,1.025 -0.921,2.493 -0.921,2.493 L 53.799,82.146 41.472,76.084 Z"
           id="path23" />
        <path
           style="fill:#caaf79;fill-opacity:1"
           d="m 38.841,73.636 c 0,0 3.631,-0.433 6.341,1.084 2.71,1.518 16.421,6.991 17.722,8.671 1.328,1.716 -8.563,1.464 -8.563,1.464 0,0 -14.795,-8.294 -14.904,-8.076 -0.109,0.218 -0.596,-3.143 -0.596,-3.143 z"
           id="path25" />
      </g>
      <circle
         cx="44"
         cy="42.667"
         r="1.1670001"
         id="circle28"
         style="opacity:0.2;fill-opacity:1" />
      <circle
         cx="38.167"
         cy="54.667"
         r="1.1670001"
         id="circle30"
         style="opacity:0.2;fill-opacity:1" />
      <circle
         cx="75.75"
         cy="63.75"
         r="1.1670001"
         id="circle32"
         style="opacity:0.2;fill-opacity:1" />
      <circle
         cx="81.333"
         cy="53.333"
         r="1.1670001"
         id="circle34"
         style="opacity:0.2;fill-opacity:1" />
      <circle
         cx="28.667"
         cy="67.167"
         r="1.1670001"
         id="circle36"
         style="opacity:0.2;fill-opacity:1" />
      <circle
         cx="40"
         cy="79.834"
         r="1.1670001"
         id="circle38"
         style="opacity:0.2;fill-opacity:1" />
      <circle
         cx="51.167"
         cy="78"
         r="1.1670001"
         id="circle40"
         style="opacity:0.2;fill-opacity:1" />
      <circle
         cx="37.5"
         cy="64.417"
         r="0.583"
         id="circle42"
         style="opacity:0.2;fill-opacity:1" />
      <circle
         cx="30.25"
         cy="60"
         r="0.583"
         id="circle44"
         style="opacity:0.2;fill-opacity:1" />
      <circle
         cx="34.667"
         cy="72.417"
         r="0.583"
         id="circle46"
         style="opacity:0.2;fill-opacity:1" />
      <circle
         cx="81.999001"
         cy="59.583"
         r="0.583"
         id="circle48"
         style="opacity:0.2;fill-opacity:1" />
      <circle
         cx="73.5"
         cy="70.75"
         r="0.583"
         id="circle50"
         style="opacity:0.2;fill-opacity:1" />
      <circle
         cx="39.833"
         cy="48.25"
         r="0.583"
         id="circle52"
         style="opacity:0.2;fill-opacity:1" />
      <circle
         cx="57.834"
         cy="78.833"
         r="0.583"
         id="circle54"
         style="opacity:0.2;fill-opacity:1" />
      <circle
         cx="46.667"
         cy="74.667"
         r="0.583"
         id="circle56"
         style="opacity:0.2;fill-opacity:1" />
    </g>
  </g>
</svg>
