<svg xmlns="http://www.w3.org/2000/svg" height="32" width="32"><rect ry="5.575" y="1.898" x="1.898" height="28.203" width="28.203" fill="#7a7a7a" fill-rule="evenodd"/><circle cx="16" cy="16" r="10" fill="#7fc2ff" paint-order="stroke fill markers"/><path d="M13.353 8.222l-7.258 9.149A10 10 0 0 0 16 26a10 10 0 0 0 2.131-.229 10 10 0 0 0 .258-.06 10 10 0 0 0 .514-.141A10 10 0 0 0 26 16a10 10 0 0 0-1.08-4.518z" fill="#d9d4c6"/><path d="M13.653 9.222l-7.34 9.252A10 10 0 0 0 16 25.999a10 10 0 0 0 10-10 10 10 0 0 0-.623-3.472z" fill="#a3967a"/><path d="M13.999 10.537l-7.28 9.182a10 10 0 0 0 9.282 6.28 10 10 0 0 0 10-10 10 10 0 0 0-.232-2.144z" fill="#c9b895"/><path d="M21.361 2.615c.637-.446 1.344.119 1.344.119s.764.408.87.83c.105.421-3.346 7.18-3.346 7.18s-.327.883-.22 1.475c.166.908 1.48 1.682 1.647 2.312.183.692-.058 1.27-.058 1.27s-2.792 6.482-3.003 6.903c-.211.422-.528 2.055-2.53 1.054l-2.002-1.001s-2.107-.949-1.739-2.845c.37-1.898 1.539-6.137 1.844-6.903.286-.715.326-1.53 2.16-1.476 1.74.051 1.898-.632 2.214-1.475.316-.843 2.055-6.218 2.055-6.218s.237-.856.764-1.225z" fill="#d09a7b"/><path d="M21.836 2.446a.929.929 0 0 0-.48.17c-.527.368-.764 1.224-.764 1.224s-1.738 5.376-2.055 6.219c-.316.843-.473 1.525-2.212 1.475-1.835-.054-1.875.76-2.16 1.476-.306.766-1.476 5.005-1.844 6.902-.04.207-.046.4-.034.584a2.42 2.42 0 0 1 .034-.283c.368-1.897 1.538-6.136 1.843-6.902.286-.716.326-1.53 2.16-1.477 1.74.051 1.897-.631 2.213-1.474.317-.843 2.055-6.22 2.055-6.22s.237-.855.764-1.224c.637-.446 1.344.12 1.344.12s.634.35.816.736c.018-.069.061-.182.055-.207-.106-.422-.871-.83-.871-.83s-.396-.319-.864-.29zM20 12c-.019.18-.023.36.006.52.166.909 1.48 1.682 1.647 2.312.036.138.044.266.052.391a2.023 2.023 0 0 0-.052-.691c-.168-.63-1.481-1.404-1.647-2.313-.012-.067-.003-.146-.006-.219z" opacity=".2" fill="#fff"/><path d="M13.617 21.273s2.386-4.873 2.858-6.03c.243-.593.635-1.169 1.484-.848.864.326 1.173.489 1.173.489s.79.287.473 1.015c-.317.728-2.628 6.46-2.533 6.522.095.064.792-.696 1.045-1.266l2.128-4.803s.615-1.17-.133-1.815c-.668-.575-1.307-.963-1.9-1.172-.982-.345-2.267-.646-2.648-.424-.38.221-.541.723-.677 1.058-.255.628-1.54 5.121-1.616 5.435-.114.473-.374 1.24.346 1.84z" opacity=".2"/><path d="M12.01 21.865c.557-.488.905-.253 1.38-.445.594-.242.438-.094.995.185.557.278.864-.208 1.14.142 1.044 1.323 1.66.37 1.891.881.305.676-.38 1.082.335 1.402.625.281-.252.683-.252.683l-2.018-.52-3.374-1.658z" fill="#c9b895" stroke="#c9b895" stroke-width=".13"/><path d="M11.387 21.865s.994-.119 1.736.296c.741.416 4.494 1.914 4.85 2.374.364.47-2.343.4-2.343.4s-4.05-2.27-4.08-2.21c-.03.06-.163-.86-.163-.86z" fill="#c9b895"/><g><circle cx="13.363" cy="13.148" opacity=".2" r=".319"/><circle cx="11.766" cy="16.433" opacity=".2" r=".319"/><circle cx="22.053" cy="18.919" opacity=".2" r=".319"/><circle cx="23.581" cy="16.068" opacity=".2" r=".319"/><circle cx="9.166" cy="19.854" opacity=".2" r=".319"/><circle cx="12.268" cy="23.321" opacity=".2" r=".319"/><circle cx="15.325" cy="22.819" opacity=".2" r=".319"/><circle cx="11.584" cy="19.101" opacity=".2" r=".16"/><circle cx="9.599" cy="17.892" opacity=".2" r=".16"/><circle cx="10.808" cy="21.291" opacity=".2" r=".16"/><circle cx="23.764" cy="17.778" opacity=".2" r=".16"/><circle cx="21.437" cy="20.835" opacity=".2" r=".16"/><circle cx="12.222" cy="14.676" opacity=".2" r=".16"/><circle cx="17.149" cy="23.047" opacity=".2" r=".16"/><circle cx="14.093" cy="21.907" opacity=".2" r=".16"/></g></svg>