<?xml version="1.0" encoding="UTF-8" standalone="no"?>
<svg
   xmlns:dc="http://purl.org/dc/elements/1.1/"
   xmlns:cc="http://creativecommons.org/ns#"
   xmlns:rdf="http://www.w3.org/1999/02/22-rdf-syntax-ns#"
   xmlns:svg="http://www.w3.org/2000/svg"
   xmlns="http://www.w3.org/2000/svg"
   xmlns:xlink="http://www.w3.org/1999/xlink"
   xmlns:sodipodi="http://sodipodi.sourceforge.net/DTD/sodipodi-0.dtd"
   xmlns:inkscape="http://www.inkscape.org/namespaces/inkscape"
   width="32"
   height="32"
   version="1.1"
   viewBox="0 0 32 32"
   id="svg22"
   sodipodi:docname="sandbox.svg"
   inkscape:version="0.92.4 5da689c313, 2019-01-14">
  <metadata
     id="metadata28">
    <rdf:RDF>
      <cc:Work
         rdf:about="">
        <dc:format>image/svg+xml</dc:format>
        <dc:type
           rdf:resource="http://purl.org/dc/dcmitype/StillImage" />
      </cc:Work>
    </rdf:RDF>
  </metadata>
  <defs
     id="defs26">
    <clipPath
       id="SVGID_2_">
      <use
         xlink:href="#SVGID_1_"
         style="overflow:visible"
         id="use7"
         x="0"
         y="0"
         width="100%"
         height="100%" />
    </clipPath>
    <clipPath
       id="clipPath4588">
      <use
         xlink:href="#SVGID_1_"
         style="overflow:visible"
         id="use4586"
         x="0"
         y="0"
         width="100%"
         height="100%" />
    </clipPath>
    <path
       id="SVGID_1_"
       d="m 49.738,86.357 c -20.146,0 -36.536,-16.389 -36.536,-36.538 0,-20.145 16.39,-36.535 36.536,-36.535 20.145,0 36.536,16.39 36.536,36.535 -0.001,20.15 -16.389,36.538 -36.536,36.538 z"
       inkscape:connector-curvature="0" />
    <defs
       id="defs5">
      <path
         id="path864"
         d="m 49.738,86.357 c -20.146,0 -36.536,-16.389 -36.536,-36.538 0,-20.145 16.39,-36.535 36.536,-36.535 20.145,0 36.536,16.39 36.536,36.535 -0.001,20.15 -16.389,36.538 -36.536,36.538 z"
         inkscape:connector-curvature="0" />
    </defs>
    <clipPath
       id="clipPath4595">
      <use
         xlink:href="#SVGID_1_"
         style="overflow:visible"
         id="use4593"
         x="0"
         y="0"
         width="100%"
         height="100%" />
    </clipPath>
    <clipPath
       id="clipPath860">
      <use
         xlink:href="#SVGID_1_"
         style="overflow:visible"
         id="use858"
         x="0"
         y="0"
         width="100%"
         height="100%" />
    </clipPath>
    <path
       id="path864-5"
       d="m 49.738,86.357 c -20.146,0 -36.536,-16.389 -36.536,-36.538 0,-20.145 16.39,-36.535 36.536,-36.535 20.145,0 36.536,16.39 36.536,36.535 -0.001,20.15 -16.389,36.538 -36.536,36.538 z"
       inkscape:connector-curvature="0" />
    <defs
       id="defs5-7">
      <path
         inkscape:connector-curvature="0"
         d="m 49.738,86.357 c -20.146,0 -36.536,-16.389 -36.536,-36.538 0,-20.145 16.39,-36.535 36.536,-36.535 20.145,0 36.536,16.39 36.536,36.535 -0.001,20.15 -16.389,36.538 -36.536,36.538 z"
         id="path868" />
    </defs>
    <clipPath
       id="clipPath4595-3">
      <use
         height="100%"
         width="100%"
         y="0"
         x="0"
         id="use4593-5"
         style="overflow:visible"
         xlink:href="#SVGID_1_" />
    </clipPath>
  </defs>
  <sodipodi:namedview
     pagecolor="#ffffff"
     bordercolor="#666666"
     borderopacity="1"
     objecttolerance="10"
     gridtolerance="10"
     guidetolerance="10"
     inkscape:pageopacity="0"
     inkscape:pageshadow="2"
     inkscape:window-width="1920"
     inkscape:window-height="1022"
     id="namedview24"
     showgrid="false"
     inkscape:zoom="26.3125"
     inkscape:cx="16"
     inkscape:cy="16"
     inkscape:current-layer="g916"
     showguides="true"
     inkscape:guide-bbox="true"
     inkscape:window-x="0"
     inkscape:window-y="26"
     inkscape:window-maximized="1" />
  <g
     id="g916">
    <rect
       ry="5.575182"
       y="1.8983059"
       x="1.8983059"
       height="28.203388"
       width="28.203388"
       id="rect4497-3"
       style="opacity:1;fill:#747474;fill-opacity:1;fill-rule:evenodd;stroke:#b3b3b3;stroke-width:1.03534329;stroke-linecap:round;stroke-linejoin:bevel;stroke-miterlimit:4;stroke-dasharray:none;stroke-dashoffset:0;stroke-opacity:1" />
    <g
       transform="translate(2.5e-7,0.2463739)"
       id="g885">
      <path
         style="fill:#cac2ab;fill-opacity:1;stroke:#b3b3b3;stroke-width:0.5;stroke-miterlimit:4;stroke-dasharray:none;stroke-opacity:1"
         d="M 16,5.51773 A 10.48227,10.48227 0 0 0 5.5177305,16 10.48227,10.48227 0 0 0 16,26.482269 10.48227,10.48227 0 0 0 26.482269,16 10.48227,10.48227 0 0 0 16,5.51773 Z"
         id="path4"
         inkscape:connector-curvature="0" />
      <g
         id="g910"
         transform="translate(7.4487879e-4,0.00910903)">
        <path
           inkscape:connector-curvature="0"
           id="path900-3-3"
           d="m 7.2308379,17.328825 c -0.0932,-0.155132 -0.201652,-0.347281 -0.241013,-0.426996 l -0.07157,-0.144936 3.4693561,-4.39558 c 1.908146,-2.4175686 3.490671,-4.4026845 3.516725,-4.4113695 0.07455,-0.02485 9.640506,2.6995045 9.675378,2.7555155 0.03096,0.04973 0.192362,1.01448 0.172455,1.030815 -0.0057,0.0047 -0.412591,-0.106389 -0.904168,-0.246849 -5.52989,-1.5800376 -8.6327,-2.4398825 -8.682047,-2.4059545 -0.03208,0.02205 -1.539549,1.9206505 -3.349936,4.2191025 -1.8103881,2.298451 -3.3195431,4.208098 -3.3536761,4.243657 -0.05121,0.05336 -0.09167,0.01538 -0.23151,-0.217405 z"
           style="opacity:0.647;fill:#939393;fill-opacity:1;fill-rule:evenodd;stroke:none;stroke-width:0.00483122;stroke-linecap:round;stroke-linejoin:round;stroke-miterlimit:4;stroke-dasharray:none;stroke-dashoffset:0;stroke-opacity:1;paint-order:markers fill stroke" />
        <path
           inkscape:connector-curvature="0"
           id="path900-3"
           d="M 7.2307653,17.429049 C 7.1375666,17.273917 7.0291132,17.081768 6.9897525,17.002053 l -0.071571,-0.144936 3.4693565,-4.39558 c 1.908146,-2.417569 3.490671,-4.4026852 3.516725,-4.4113695 0.07455,-0.024849 9.640506,2.6995045 9.675378,2.7555155 0.03096,0.04973 0.192362,1.01448 0.172455,1.030815 -0.0057,0.0047 -0.412591,-0.106389 -0.904168,-0.246849 -5.529891,-1.580038 -8.6327,-2.4398833 -8.682047,-2.405955 -0.03208,0.022054 -1.539549,1.920651 -3.349936,4.219103 -1.8103882,2.298451 -3.3195435,4.208098 -3.3536761,4.243657 -0.051215,0.05336 -0.091666,0.01538 -0.2315103,-0.217405 z"
           style="opacity:1;fill:#b3b3b3;fill-opacity:1;fill-rule:evenodd;stroke:none;stroke-width:0.00483122;stroke-linecap:round;stroke-linejoin:round;stroke-miterlimit:4;stroke-dasharray:none;stroke-dashoffset:0;stroke-opacity:1;paint-order:markers fill stroke" />
        <path
           inkscape:connector-curvature="0"
           id="path902-6"
           d="M 8.0317227,18.558946 C 7.8854156,18.378637 7.6854859,18.118193 7.5874343,17.980183 L 7.4091574,17.729255 7.6941458,17.376281 c 0.1567436,-0.194136 1.4874317,-1.874808 2.9570852,-3.734827 1.469652,-1.860018 2.858968,-3.6171 3.087369,-3.9046253 0.410373,-0.5166014 0.417309,-0.5224577 0.587478,-0.4960628 0.234194,0.036326 2.142545,0.5598751 5.383697,1.4769991 1.488016,0.421052 2.998979,0.848343 3.357697,0.949536 0.358718,0.10119 0.668187,0.206315 0.687709,0.233606 0.01952,0.02729 0.03583,0.371758 0.03623,0.765481 6.82e-4,0.659413 -0.0059,0.713861 -0.08381,0.690505 -0.618811,-0.185577 -6.822442,-1.931483 -8.479967,-2.386542 l -0.520535,-0.142907 -3.166371,4.015862 c -1.741505,2.208725 -3.1836129,4.022076 -3.2046851,4.029669 -0.021073,0.0076 -0.1580202,-0.13372 -0.3043272,-0.314029 z"
           style="opacity:1;fill:#565656;fill-opacity:1;fill-rule:evenodd;stroke:none;stroke-width:0.00483122;stroke-linecap:round;stroke-linejoin:round;stroke-miterlimit:4;stroke-dasharray:none;stroke-dashoffset:0;stroke-opacity:1;paint-order:markers fill stroke" />
        <path
           inkscape:connector-curvature="0"
           id="path903"
           d="M 15.581361,24.19834 C 12.715883,24.048179 10.102631,22.376014 8.7555177,19.830628 8.445824,19.245457 8.3063297,18.891807 8.3677908,18.847649 c 0.058882,-0.0423 1.2657907,-1.561012 4.1278962,-5.194316 1.159557,-1.472 2.136197,-2.706206 2.170312,-2.742681 0.05835,-0.06238 0.08965,-0.05858 0.527483,0.06407 0.256,0.07171 1.320727,0.369036 2.366061,0.660718 1.045333,0.291682 2.848545,0.799579 4.007138,1.128658 1.158593,0.32908 2.132116,0.598327 2.163385,0.598327 0.07082,0 0.100038,0.07651 0.223006,0.58393 0.18016,0.743421 0.234529,1.204824 0.235132,1.995464 0.001,1.340687 -0.256415,2.469981 -0.831169,3.646061 -1.214319,2.48478 -3.624531,4.215294 -6.340523,4.552448 -0.365561,0.04538 -1.105478,0.07529 -1.435151,0.05801 z"
           style="opacity:1;fill:#d0bf95;fill-opacity:1;fill-rule:evenodd;stroke:none;stroke-width:0.00387879;stroke-linecap:round;stroke-linejoin:round;stroke-miterlimit:4;stroke-dasharray:none;stroke-dashoffset:0;stroke-opacity:1;paint-order:markers fill stroke" />
      </g>
      <path
         inkscape:connector-curvature="0"
         id="path16-3"
         d="m 15.994418,6.3177647 c 5.29324,0 9.583919,4.3141583 9.583919,9.6358673 0,5.321489 -4.290899,9.635868 -9.583919,9.635868 -5.293019,0 -9.583918,-4.314379 -9.583918,-9.635868 0,-5.32171 4.290679,-9.6358673 9.583918,-9.6358673 m 0,1.2044558 c -4.624205,0 -8.385736,3.7823635 -8.385736,8.4314115 0,4.648828 3.761752,8.431413 8.385736,8.431413 4.624205,0 8.385956,-3.782585 8.385956,-8.431413 0,-4.649048 -3.761751,-8.4314115 -8.385956,-8.4314115 z"
         style="fill:#747474;fill-opacity:1;stroke:#565656;stroke-width:0.32100001;stroke-miterlimit:4;stroke-dasharray:none;stroke-opacity:1" />
      <path
         style="fill:#b3b3b3;fill-opacity:1;stroke:#565656;stroke-width:0.6626727;stroke-opacity:1"
         d="m 21.6212,5.2419465 c 0.512846,-0.3610269 1.081427,0.095904 1.081427,0.095904 0,0 0.614842,0.330461 0.699876,0.6715536 0.08503,0.341093 -2.692662,5.8096499 -2.692662,5.8096499 0,0 -0.262811,0.715408 -0.176236,1.194045 0.133279,0.735343 1.190473,1.361271 1.325073,1.871138 0.147377,0.559701 -0.04648,1.027929 -0.04648,1.027929 0,0 -2.247667,5.244853 -2.417294,5.585946 -0.169847,0.341536 -0.424507,1.662937 -2.03574,0.852952 -1.611455,-0.810205 -1.611455,-0.810205 -1.611455,-0.810205 0,0 -1.69649,-0.767458 -1.399533,-2.302374 0.296737,-1.535361 1.238277,-4.966 1.484126,-5.585726 0.229546,-0.578971 0.262371,-1.237678 1.738785,-1.194266 1.39975,0.0412 1.52664,-0.511639 1.78108,-1.193826 0.254881,-0.682184 1.653972,-5.0315592 1.653972,-5.0315592 0,0 0.190776,-0.6925952 0.615063,-0.991162 z"
         id="path19"
         inkscape:connector-curvature="0" />
      <path
         d="m 15.388846,20.34017 c 0,0 1.919648,-3.943608 2.300097,-4.880283 0.194961,-0.479523 0.511082,-0.945093 1.193995,-0.685952 0.695249,0.263794 0.944403,0.395801 0.944403,0.395801 0,0 0.63533,0.232121 0.380889,0.821502 -0.255101,0.58916 -2.115708,5.227135 -2.039266,5.278077 0.07666,0.05139 0.637311,-0.563688 0.841304,-1.024386 0.203773,-0.461583 1.713011,-3.886906 1.713011,-3.886906 0,0 0.494561,-0.947085 -0.107724,-1.468912 -0.536858,-0.464906 -1.051246,-0.778977 -1.528845,-0.947973 -0.789975,-0.27974 -1.824919,-0.523156 -2.130908,-0.34375 -0.305769,0.179183 -0.435963,0.585616 -0.545009,0.856275 -0.205314,0.508095 -1.239819,4.144276 -1.30062,4.398102 -0.09164,0.382512 -0.301583,1.002901 0.278673,1.488405 z"
         id="path21"
         inkscape:connector-curvature="0"
         style="fill:#565656;fill-opacity:1;stroke-width:0.22089089" />
      <path
         style="fill:#dbcfa7;fill-opacity:0.97356825;stroke:none;stroke-width:0.22471228;stroke-opacity:1"
         d="m 14.095056,20.818807 c 0.448079,-0.39425 0.728294,-0.204212 1.110285,-0.360141 0.47848,-0.195353 0.353132,-0.07553 0.801432,0.149948 0.448299,0.225255 0.694809,-0.16811 0.917307,0.115396 0.840424,1.070233 1.336306,0.298788 1.522234,0.712751 0.245188,0.546633 -0.306649,0.8751 0.2692,1.134686 0.503373,0.227025 -0.202891,0.55217 -0.202891,0.55217 l -1.62379,-0.419943 -2.715573,-1.342663 z"
         id="path23"
         inkscape:connector-curvature="0" />
      <path
         style="fill:#dbcfa7;fill-opacity:1;stroke:none;stroke-width:0.22089089;stroke-opacity:1"
         d="m 13.593665,20.818807 c 0,0 0.79989,-0.09591 1.396888,0.240094 0.596999,0.33622 3.617457,1.548426 3.90406,1.920528 0.292552,0.380075 -1.88638,0.32426 -1.88638,0.32426 0,0 -3.25926,-1.837027 -3.283272,-1.788743 -0.02401,0.04828 -0.131296,-0.696139 -0.131296,-0.696139 z"
         id="path25"
         inkscape:connector-curvature="0" />
      <g
         id="sand"
         transform="matrix(0.22029464,0,0,0.22148875,5.095916,4.9789863)"
         style="fill:none;fill-opacity:1;stroke:none">
        <circle
           cx="44"
           cy="42.667"
           r="1.1670001"
           id="circle28"
           style="fill:#ddd5c6;fill-opacity:1;stroke:none;stroke-opacity:1" />
        <circle
           cx="38.167"
           cy="54.667"
           r="1.1670001"
           id="circle30"
           style="fill:#ddd5c6;fill-opacity:1;stroke:none;stroke-opacity:1" />
        <circle
           cx="75.75"
           cy="63.75"
           r="1.1670001"
           id="circle32"
           style="fill:#ddd5c6;fill-opacity:1;stroke:none;stroke-opacity:1" />
        <circle
           cx="81.333"
           cy="53.333"
           r="1.1670001"
           id="circle34"
           style="fill:#ddd5c6;fill-opacity:1;stroke:none;stroke-opacity:1" />
        <circle
           cx="28.667"
           cy="67.167"
           r="1.1670001"
           id="circle36"
           style="fill:#ddd5c6;fill-opacity:1;stroke:none;stroke-opacity:1" />
        <circle
           cx="40"
           cy="79.834"
           r="1.1670001"
           id="circle38"
           style="fill:#ddd5c6;fill-opacity:1;stroke:none;stroke-opacity:1" />
        <circle
           cx="51.167"
           cy="78"
           r="1.1670001"
           id="circle40"
           style="fill:#ddd5c6;fill-opacity:1;stroke:none;stroke-opacity:1" />
        <circle
           cx="37.5"
           cy="64.417"
           r="0.583"
           id="circle42"
           style="fill:#ddd5c6;fill-opacity:1;stroke:none;stroke-opacity:1" />
        <circle
           cx="30.25"
           cy="60"
           r="0.583"
           id="circle44"
           style="fill:#ddd5c6;fill-opacity:1;stroke:none;stroke-opacity:1" />
        <circle
           cx="34.667"
           cy="72.417"
           r="0.583"
           id="circle46"
           style="fill:#ddd5c6;fill-opacity:1;stroke:none;stroke-opacity:1" />
        <circle
           cx="81.999001"
           cy="59.583"
           r="0.583"
           id="circle48"
           style="fill:#ddd5c6;fill-opacity:1;stroke:none;stroke-opacity:1" />
        <circle
           cx="73.5"
           cy="70.75"
           r="0.583"
           id="circle50"
           style="fill:#ddd5c6;fill-opacity:1;stroke:none;stroke-opacity:1" />
        <circle
           cx="39.833"
           cy="48.25"
           r="0.583"
           id="circle52"
           style="fill:#ddd5c6;fill-opacity:1;stroke:none;stroke-opacity:1" />
        <circle
           cx="57.834"
           cy="78.833"
           r="0.583"
           id="circle54"
           style="fill:#ddd5c6;fill-opacity:1;stroke:none;stroke-opacity:1" />
        <circle
           cx="46.667"
           cy="74.667"
           r="0.583"
           id="circle56"
           style="fill:#ddd5c6;fill-opacity:1;stroke:none;stroke-opacity:1" />
      </g>
    </g>
  </g>
</svg>
