<svg xmlns="http://www.w3.org/2000/svg" xmlns:xlink="http://www.w3.org/1999/xlink" height="32" width="32" version="1"><defs><linearGradient xlink:href="#a" id="b" x1="19.973" y1="32.474" x2="20.017" y2="36.188" gradientUnits="userSpaceOnUse"/><linearGradient id="a"><stop offset="0" stop-color="#fff"/><stop offset="1" stop-color="#fff" stop-opacity="0"/></linearGradient><filter x="-.053" width="1.106" y="-.958" height="2.916" id="c"><feGaussianBlur stdDeviation=".942"/></filter><filter x="-.056" width="1.111" y="-.495" height="1.99" id="d"><feGaussianBlur stdDeviation=".727"/></filter></defs><rect width="28.203" height="28.203" x="1.898" y="1.898" ry="5.575" fill="#a33849" fill-rule="evenodd"/><path d="M4.082 28.846c-.014-.21-.086-.353-.088-.578-.016-1.572.26-3.432.26-3.432L7.496 7.639l.604.007-2.938-5.218c-1.92.878-3.264 2.788-3.264 5.045v17.054c0 1.786.886 3.3 2.184 4.319z" fill="#a33849" fill-rule="evenodd"/><path d="M27.82 28.912c.028-.261.132-.446.131-.734-.004-1.57-.523-3.412-.523-3.412L23.814 7.852l-.375-.006-.476.793L8.61 8.557l-.511-.91-.604-.008-3.242 17.197s-.276 1.86-.26 3.432c.002.225.074.369.088.578.947.743 2.088 1.256 3.39 1.256h17.053c1.26 0 2.363-.49 3.295-1.19z" fill="#b3b3b3" fill-rule="evenodd"/><path d="M26.74 2.363l-3.3 5.483.374.006 3.614 16.914s.52 1.842.523 3.412c0 .288-.103.473-.13.734 1.352-1.015 2.28-2.556 2.28-4.385V7.473a5.556 5.556 0 0 0-3.36-5.11z" fill="#a33849" fill-rule="evenodd"/><path d="M5.162 2.428l3.45 6.129 14.35.082 3.778-6.276a5.56 5.56 0 0 0-2.215-.465H7.473c-.832 0-1.603.206-2.31.53z" fill="#9a9c97" fill-rule="evenodd"/><path style="marker:none" d="M8.691 10.971L7.195 22.258c-.053.336-.027.779.319.779h16.738c.279 0 .438-.266.372-.779l-2.131-11.222z" color="#000" overflow="visible" fill="gray" fill-rule="evenodd"/><path d="M4.612 34.188H38.35" style="marker:none" transform="matrix(.60138 0 0 .80067 2.958 -2.202)" color="#000" overflow="visible" opacity=".5" fill="#fff" fill-rule="evenodd" stroke="url(#b)" stroke-width="1.966" stroke-linecap="round" filter="url(#c)"/><path d="M9.613 22.562h23.195" style="marker:none" transform="matrix(.60138 0 0 .80067 2.958 -2.202)" color="#000" overflow="visible" fill="none" stroke="#fce94f" stroke-width="2.937" stroke-linecap="round" stroke-linejoin="round" stroke-opacity=".553" filter="url(#d)"/><path style="marker:none" d="M8.739 15.863h14.046" color="#000" overflow="visible" fill="#fff" fill-rule="evenodd" stroke="#fff" stroke-width=".694" stroke-linecap="round" stroke-linejoin="round"/><path style="line-height:normal;font-variant-ligatures:normal;font-variant-position:normal;font-variant-caps:normal;font-variant-numeric:normal;font-variant-alternates:normal;font-feature-settings:normal;text-indent:0;text-align:start;text-decoration-line:none;text-decoration-style:solid;text-decoration-color:#000;text-transform:none;text-orientation:mixed;white-space:normal;shape-padding:0;isolation:auto;mix-blend-mode:normal;solid-color:#000;solid-opacity:1;marker:none" d="M11.848 26.75a.835.835 0 1 0 0 1.67h2.414a.835.835 0 1 0 0-1.67zM16.658 26.75a.835.835 0 1 0 0 1.67h.01a.835.835 0 1 0 0-1.67zM19.063 26.75a.835.835 0 1 0 0 1.67h.01a.835.835 0 1 0 0-1.67zM21.469 26.75a.835.835 0 1 0 0 1.67h.01a.835.835 0 1 0 0-1.67z" color="#000" font-weight="400" font-family="sans-serif" overflow="visible" fill="#f9f9f9" fill-rule="evenodd" enable-background="accumulate"/><path d="M11.8 27.532h2.526" style="marker:none" color="#000" overflow="visible" opacity=".369" fill="#f9f9f9" fill-rule="evenodd"/></svg>