<svg xmlns="http://www.w3.org/2000/svg" height="32" width="32" version="1"><rect width="28.203" height="28.203" x="1.898" y="1.898" ry="5.575" fill="#d5b380" fill-rule="evenodd"/><path d="M5.004 20h3.7c2.088 0 2.8-.7 2.8-2.1 0-5.81-5-.008-5-5.8-.017-1.41.083-2.1 2.2-2.1h4.3" fill="none" stroke="#ff4141" stroke-width="3"/><path d="M20.003 14h7m-3.5 7.5V14" fill="none" stroke="#fff" stroke-width="3"/><g fill="#353535"><path d="M16.003 14.5h1v3h-1zM16.003 10.5h1v3h-1zM16.003 6.5h1v3h-1zM16.003 22.5h1v3h-1zM16.003 18.5h1v3h-1z"/></g></svg>