<svg xmlns="http://www.w3.org/2000/svg" width="32" height="32"><rect width="28.203" height="28.203" x="1.898" y="1.898" ry="5.575" fill="#88c5cc" fill-rule="evenodd"/><g transform="matrix(1.1297 0 0 1.1297 2.197 -2.727)"><path d="M16.533 25.231c.25-.127.346-.295.346-.606 0-.31-.096-.478-.346-.606-.133-.068-.289-.08-1.015-.08h-.858v-.202c0-.192.01-.207.217-.326a6.172 6.172 0 0 0 1.846-1.72 6.43 6.43 0 0 0 .706-1.469l.124-.4h.97c.91 0 .975-.006 1.069-.093.208-.194.167-.5-.084-.626-.157-.08-5.263-.085-5.411-.006-.242.13-.291.424-.102.613.11.11.12.112.96.112.974 0 .932-.026.705.424-.568 1.127-1.522 1.895-2.724 2.192-.314.078-.53.099-.975.095-1.099-.008-1.992-.37-2.782-1.127-.825-.789-1.246-1.781-1.247-2.938a3.937 3.937 0 0 1 1.074-2.749c.337-.363.73-.667 1.11-.858l.235-.117.222.115c.443.23.968.193 1.389-.097l.225-.155 1.064 1.224c.585.673 1.145 1.3 1.243 1.394.217.206.448.265.63.16.111-.064.132-.064.182-.004.071.085.288.2.38.2.038 0 .143-.066.234-.146l.166-.145.251.282c.139.156.27.283.29.283.058 0 .686-.555.686-.605 0-.024-.102-.161-.228-.306a2.132 2.132 0 0 1-.229-.29c0-.015.062-.089.137-.164.163-.164.18-.353.046-.523-.083-.106-.085-.126-.023-.246.094-.18.086-.29-.034-.51-.057-.103-1.45-1.731-3.096-3.619-3.112-3.567-3.214-3.672-3.49-3.603-.064.016-.222.124-.352.24l-.235.212-.193-.22c-.307-.351-.354-.391-.445-.376-.132.022-.87.676-.87.772 0 .046.115.218.255.383l.255.3-.235.218c-.208.192-.236.238-.237.404a.735.735 0 0 0 .05.286c.029.054.493.604 1.032 1.222l.979 1.124-.178.184c-.098.1-.19.222-.206.27-.017.054-.192.167-.448.291-1.772.857-2.956 2.457-3.236 4.371-.078.535-.032 1.607.091 2.106.359 1.453 1.206 2.665 2.427 3.47.235.154.442.281.458.281.017 0 .03.093.03.206v.206h-.932c-.712 0-.962.015-1.056.064-.53.276-.521 1.006.014 1.244.11.05.978.061 4.574.063 4.137.001 4.448-.004 4.595-.079z" fill="#f5f5f5"/><path d="M16.511 25.237c.246-.116.36-.314.36-.62 0-.302-.098-.471-.345-.598-.133-.068-.289-.08-1.015-.08h-.858v-.2c0-.195.006-.202.286-.373a5.91 5.91 0 0 0 2.172-2.378c.153-.307.232-.515.404-1.063.013-.045-.174-.057-.839-.054l-.856.003-.218.443c-.503 1.025-1.472 1.809-2.619 2.117-.475.128-1.395.14-1.875.024-.841-.203-1.388-.508-2.005-1.116-1.616-1.592-1.584-4.221.069-5.804.282-.27.91-.714 1.089-.771.05-.016.185.025.33.1.203.108.297.128.585.128.407-.002.647-.096.97-.384.684-.608.466-1.788-.404-2.186-.321-.147-.78-.157-1.083-.023-.217.096-.545.401-.65.605-.04.079-.163.165-.35.248a5.733 5.733 0 0 0-3.31 4.3 5.732 5.732 0 0 0 2.51 5.701c.227.15.426.271.443.271.016 0 .032.093.033.206l.003.206h-.922c-1.035 0-1.152.028-1.344.315-.218.326-.09.8.263.977.148.075.463.08 4.59.08 3.993 0 4.445-.007 4.586-.074zM10.83 14.292c-.44-.269-.503-.79-.14-1.143a.712.712 0 0 1 1.135.178c.171.32.054.767-.251.955-.2.124-.549.128-.744.01z" fill="#f5f5f5"/><circle r="1.553" cy="13.426" cx="11.117" fill="#96e652" stroke="#f5f5f5" stroke-width=".652" stroke-linecap="round" stroke-linejoin="round"/></g></svg>