<svg xmlns="http://www.w3.org/2000/svg" height="32" width="32" version="1"><rect width="28.203" height="28.203" x="1.898" y="1.898" ry="5.575" fill="#e74c3c" fill-rule="evenodd"/><path d="M4 16.367c0-6.064 3.136-9.19 4.97-9.19 1.835 0 2.136.906 2.136 2.394 0 2.889-3.402 1.702-3.402 7.124 0 1.795.787 4.015 2.835 4.015 1.643 0 2.247-1.958 3.08-5.463C15.001 9.977 16.4 6 21.121 6c4.587 0 6.88 3.86 6.88 9.923 0 6.063-3.552 9.923-5.387 9.923-1.834 0-2.305-.732-2.305-2.22 0-2.89 3.855-2.475 3.855-7.896 0-1.796-.787-4.44-2.835-4.44-1.643 0-2.223.115-3.231 3.957C17.55 19.352 16.246 26 11.257 26 6.67 26 4 22.43 4 16.367z" fill="#fff"/></svg>