<svg xmlns="http://www.w3.org/2000/svg" width="32" height="32"><rect width="28.203" height="28.203" x="1.898" y="1.898" ry="5.575" fill="#997954" fill-rule="evenodd"/><g transform="translate(87.945 -.19)"><path d="M-68.316 2.164c-.005-.025-.009-.05-.02-.076h-.264c.065.015.132.027.196.043.031.008.056.025.088.033z" fill="#007eff" fill-rule="evenodd"/><path d="M-80.594 18.922c-.067.024-.124.075-.191.098-.372-.86-.916-1.741-1.45-2.74-.532-1-1.052-2.119-1.376-3.45l-.022-.08c-.04-.173-.06-.338-.09-.508-.332.334-1.196 1.424-1.256 1.383-.112-.077-.661-2.238-1.068-3.494v14.586a5.563 5.563 0 0 0 5.576 5.574h17.053a5.561 5.561 0 0 0 5.574-5.574V10.418c-.36 1.096-.877 3.136-.98 3.207-.06.041-.924-1.049-1.256-1.383-.03.17-.05.335-.09.508-.007.028-.015.052-.021.08-.324 1.331-.846 2.45-1.38 3.45-.532.999-1.077 1.88-1.449 2.74-.045-.016-.083-.05-.128-.067-.003.194-.012.392-.051.5l-.004-.002-.025.074c-.867 2.511-1.254 4.412-1.84 5.825-.293.706-.636 1.288-1.114 1.765-.477.477-1.089.849-1.92 1.127-1.337.445-2.417.658-3.8.639-1.384.019-2.462-.194-3.8-.639-.83-.278-1.442-.65-1.92-1.127-.476-.477-.82-1.06-1.112-1.765-.586-1.413-.973-3.314-1.84-5.825-.008-.024-.021-.048-.03-.072-.054-.152-.028-.343.01-.531z" fill="#997954" fill-rule="evenodd"/><path d="M-80.594 18.922c-.038.188-.064.379-.01.531.009.024.022.049.03.072.867 2.511 1.254 4.413 1.84 5.825.293.706.636 1.288 1.113 1.765.477.477 1.089.849 1.92 1.127 1.337.445 2.415.658 3.799.639 1.383.019 2.463-.194 3.8-.639.831-.278 1.443-.65 1.92-1.127.478-.477.82-1.06 1.114-1.765.586-1.412.973-3.314 1.84-5.825l.025-.074.004.002c.039-.108.048-.306.05-.5a11.79 11.79 0 0 1-2.847-1.449 11.624 11.624 0 0 1-2.485-2.36 10.97 10.97 0 0 1-1.7-3.103c-.405-1.15-.632-2.41-.632-3.762a23.37 23.37 0 0 1 .202-3.267c.143-1.034.408-2.031.777-2.924h-4.135c.369.893.634 1.89.778 2.924a23.38 23.38 0 0 1 .2 3.267c0 1.353-.225 2.613-.63 3.762a10.97 10.97 0 0 1-1.701 3.104 11.624 11.624 0 0 1-2.485 2.359c-.866.609-1.815 1.067-2.787 1.418z" fill="#d7cec7" fill-rule="evenodd"/><path d="M-69.834 2.088c-.369.893-.634 1.89-.777 2.924a23.37 23.37 0 0 0-.201 3.267c0 1.352.226 2.613.63 3.762a10.97 10.97 0 0 0 1.702 3.104 11.624 11.624 0 0 0 2.484 2.359 11.81 11.81 0 0 0 2.976 1.516c.372-.86.917-1.741 1.45-2.74.533-1 1.055-2.119 1.379-3.45.006-.028.014-.052.021-.08.04-.173.06-.338.09-.508-.8-.804-1.603-1.6-3.025-3.326-2.014-2.442-3.977-4.92-3.977-4.92s-.74-.787-1.197-1.687c-.025-.049-.03-.097-.037-.145-.032-.008-.057-.025-.088-.033-.064-.016-.131-.028-.196-.043z" fill="#de8c4a" fill-rule="evenodd"/><path d="M-75.203 2.088h-.266c-.011.026-.015.05-.02.076.033-.008.058-.025.09-.033.065-.016.131-.028.196-.043z" fill="#007eff" fill-rule="evenodd"/><path d="M-75.203 2.088c-.065.015-.131.027-.195.043-.033.008-.058.025-.09.033-.008.048-.013.096-.037.145-.458.9-1.196 1.687-1.196 1.687s-1.963 2.478-3.976 4.92c-1.423 1.725-2.227 2.522-3.026 3.326.03.17.05.335.09.508l.022.08c.324 1.331.844 2.45 1.377 3.45.533.999 1.077 1.88 1.449 2.74a11.822 11.822 0 0 0 2.978-1.516c.927-.651 1.771-1.444 2.485-2.36a10.97 10.97 0 0 0 1.7-3.103c.406-1.15.632-2.41.632-3.762a23.372 23.372 0 0 0-.201-3.267 12.079 12.079 0 0 0-.778-2.924z" fill="#de8c4a" fill-rule="evenodd"/><path d="M-86.047 10.13c.407 1.257.956 3.418 1.068 3.495.204.14 2.268-2.267 4.282-4.709 2.013-2.442 3.976-4.92 3.976-4.92s.738-.787 1.196-1.687c.037-.074.023-.146.056-.221h-5.002a5.565 5.565 0 0 0-5.576 5.576zM-68.336 2.088c.033.075.02.147.057.22.458.901 1.197 1.688 1.197 1.688s1.963 2.478 3.977 4.92c2.013 2.442 4.077 4.849 4.28 4.709.104-.071.621-2.11.981-3.207V7.664a5.563 5.563 0 0 0-5.574-5.576z" fill="#86522b" fill-rule="evenodd"/><path d="M-72.702 21.256c-.761 0-1.378.553-1.378 1.235 0 .69 1.419 2.033 2.178 2.033.76 0 2.179-1.343 2.179-2.033 0-.682-.617-1.235-1.379-1.235h-.8z" fill="#3f3f3f"/><circle r="2.179" cy="13.631" cx="-78.438" fill="#3f3f3f"/><circle r=".545" cy="13.086" cx="-78.982" fill="#fff"/><path d="M-69.723 27.325c0 .86-.975 1.556-2.179 1.556-1.203 0-2.178-.696-2.178-1.556 0-.185.045-.363.128-.527.303-.6 1.062-.266 2.006-.266.943 0 1.79-.335 2.094.264.083.165.129.343.129.53z" fill="#d86f6f"/><path d="M-75.714 26.158s.963.537 1.867.777c.56.149 1.945-.778 1.945-.778s1.385.927 1.946.778c.903-.24 1.867-.777 1.867-.777" fill="none" stroke="#79431b" stroke-linecap="round" stroke-linejoin="round"/><circle transform="scale(-1 1)" r="2.179" cy="13.631" cx="65.366" fill="#3f3f3f"/><circle transform="scale(-1 1)" r=".545" cy="13.086" cx="65.91" fill="#fff"/></g></svg>