<svg xmlns="http://www.w3.org/2000/svg" height="32" width="32" version="1"><rect width="28.203" height="28.203" x="1.898" y="1.898" ry="5.575" fill="#569cde" fill-rule="evenodd"/><g transform="translate(43.692 -.447)"><path d="M-29.166 7.796a7.372 7.209 0 0 0-7.373 7.209 7.372 7.209 0 0 0 .247 1.834 3.879 3.879 0 0 0-2.213 3.501v.864c0 2.156 1.752 3.893 3.928 3.893h13.77c2.176 0 3.929-1.737 3.929-3.893v-.864a3.883 3.883 0 0 0-2.442-3.604 4.424 4.325 0 0 0 .967-2.692 4.424 4.325 0 0 0-4.424-4.326 4.424 4.325 0 0 0-1.208.167 7.372 7.209 0 0 0-5.181-2.089z" fill="#fff"/><path d="M-27.692 11.4a5.767 5.767 0 0 0-5.767 5.767 5.767 5.767 0 0 0 5.767 5.767 5.767 5.767 0 0 0 5.767-5.767 5.767 5.767 0 0 0-5.767-5.767zm0 1.442a4.325 4.325 0 0 1 4.326 4.325 4.325 4.325 0 0 1-4.326 4.326 4.325 4.325 0 0 1-4.325-4.326 4.325 4.325 0 0 1 4.325-4.325z" fill="#aaceee"/><path d="M-27.692 14.284a2.884 2.884 0 0 0-2.883 2.883 2.884 2.884 0 0 0 2.883 2.884 2.884 2.884 0 0 0 2.884-2.884 2.884 2.884 0 0 0-2.884-2.883z" fill="#569cde"/><circle r="1.081" cx="-32.377" cy="11.04" fill="#569cde"/></g></svg>