<svg xmlns="http://www.w3.org/2000/svg" xmlns:xlink="http://www.w3.org/1999/xlink" height="32" width="32" version="1"><defs><linearGradient id="a"><stop offset="0" stop-color="#fff"/><stop offset="1" stop-color="#ccc"/></linearGradient><linearGradient xlink:href="#a" id="b" x1="-45.122" y1="-6.136" x2="-37.53" y2="-3.408" gradientUnits="userSpaceOnUse"/></defs><g transform="translate(59.348 17.94)"><rect ry="5.575" y="-16.031" x="-57.449" height="28.203" width="28.203" fill="#37a0f2" fill-rule="evenodd"/><path d="M-43.547-16.05c-.545 1.073-1.194 2.142-1.691 3.216-1.48 3.196-2.737 6.392-3.682 9.574-1.001 3.406-1.904 6.934-2.781 10.356 1.429.123.54-.009 1.642.002a19.314 19.314 0 0 1 2.678-3.344A24.835 24.835 0 0 1-44.09.988a29.177 29.177 0 0 1 3.592-2.16 28.756 28.756 0 0 1 3.574-1.53c.025-1.744-.051-3.622.041-5.444.046-.912.134-1.81.297-2.67.163-.862.403-1.686.75-2.452.371-.831.921-1.801 1.435-2.751-.056-.002-.103-.032-.16-.032z" fill="url(#b)" fill-rule="evenodd"/><path d="M-50.412 6.98c1.11-4.986 3.083-10.488 4.908-14.7" fill="none" stroke="#637f75" stroke-width=".4" stroke-linecap="round" stroke-opacity=".404"/><ellipse transform="rotate(16.34)" ry="1.043" rx=".656" cy="9.48" cx="-46.266" fill="#c0cbc7"/></g></svg>