<svg xmlns="http://www.w3.org/2000/svg" height="32" width="32" version="1"><rect width="28.203" height="28.203" x="1.898" y="1.898" ry="5.575" fill="#fea238" fill-rule="evenodd"/><path d="M10.431 21.9c-.908-.337-1.423-1.25-1.192-2.11.128-.477.467-.868.99-1.143.349-.183.438-.264.4-.367-.36-.975-.13-2.108.576-2.843.95-.987 2.461-1.046 3.459-.134.14.128.287.233.326.233.038 0 .128-.19.198-.423.263-.867.754-1.559 1.446-2.037 1.932-1.333 4.44-.635 5.445 1.516.292.627.315.723.342 1.46.021.58-.004.908-.096 1.237-.069.246-.105.468-.08.494.025.026.161-.084.302-.244.274-.31.297-.314.936-.113.62.194 1.21.816 1.426 1.502.146.465.113 1.21-.075 1.652-.188.444-.67.984-1.089 1.22-.285.16-.407.17-2.586.194-1.446.015-2.384-.006-2.552-.057-.688-.212-1.215-1.005-1.215-1.83 0-.988.761-1.842 1.643-1.842h.28l-.275.262c-.434.414-.544.906-.314 1.41.136.297.595.59.928.59.336 0 .811-.276.983-.57.197-.334.195-1.01-.005-1.564-.215-.596-.655-1.084-1.256-1.392-.441-.226-.57-.256-1.101-.254-1.048.004-1.145.075-3.707 2.717-1.945 2.005-2.262 2.302-2.586 2.415-.438.152-1.171.162-1.551.021zm-3.256-6.321c-.224-.234-.232-.425-.028-.695.12-.159.221-.205.446-.205.278 0 .294-.014.341-.293.084-.494.414-1.04.767-1.274.447-.295.97-.417 1.335-.312.158.045.313.055.344.022.032-.032.092-.25.135-.485.161-.893.732-1.692 1.507-2.11.46-.249 1.568-.306 2.075-.107.83.325 1.401.95 1.665 1.818.082.273.15.542.15.598 0 .056-.155.29-.345.518a6.45 6.45 0 0 0-.572.832c-.164.297-.263.403-.35.374a42.346 42.346 0 0 1-.57-.21c-.67-.25-1.617-.195-2.29.133-.575.28-.964.615-1.289 1.112-.128.197-.27.384-.314.415-.044.032-.697.058-1.451.059-1.357.001-1.374-.001-1.556-.19z" fill="#fff"/></svg>