<svg xmlns="http://www.w3.org/2000/svg" height="32" width="32"><rect width="28.203" height="28.203" x="1.898" y="1.898" ry="5.575" fill="#3a68b6" fill-rule="evenodd"/><g fill-rule="evenodd"><path d="M24.421 18.008c.25.086.743.376.966.43 2.51.605 3.813.687 4.715.644v-1.713c-.285-.088-.496-.208-.893-.24-.706-.057-1.594 0-2.686.262-.651.156-1.454.368-2.102.617z" fill="#595afd"/><path d="M1.898 18.088v6.44a5.561 5.561 0 0 0 5.575 5.574h17.052a5.563 5.563 0 0 0 5.577-5.575v-5.445c-.902.043-2.204-.04-4.715-.645-.223-.053-.716-.343-.966-.429-1.443.557-2.717 1.284-4.093 1.887-.997.436-1.97.808-2.902 1.005-.933.198-1.828.222-2.674-.039-1.192-.368-2.674-1.214-4.1-1.978-.53.072-1.05.183-1.591.197a11.726 11.726 0 0 1-3.04-.309c-2.18-.521-3.323-.694-4.123-.683z" fill="#4882e3"/><path d="M1.898 18.088c.8-.011 1.943.162 4.123.683 1.028.246 2.044.334 3.04.31.542-.015 1.061-.126 1.591-.198-.597-.32-1.134-.508-1.716-.828-.988-.542-1.93-1.056-2.75-1.44-.82-.384-1.52-.64-2.014-.668-.6-.032-1.147.09-1.623.278-.26.101-.437.234-.65.359z" fill="#595afd"/><path d="M30.102 14.967c-.468.02-.912-.003-1.454.178-.755.251-2.358.68-4.23 1.033-1.872.352-4.011.63-5.848.58-1.178-.077-2.292-.366-3.37-.756-1.08-.39-2.126-.881-3.167-1.361-1.04-.48-2.076-.95-3.138-1.297-1.063-.348-2.151-.574-3.295-.567h-.002c-.65.004-1.322.195-2.016.471-.542.215-1.11.495-1.684.764v2.572c.214-.125.391-.258.65-.36a3.849 3.849 0 0 1 1.624-.277c.495.027 1.193.284 2.014.668.82.384 1.762.898 2.75 1.44 1.974 1.084 4.124 2.284 5.816 2.806.846.261 1.74.237 2.674.04.933-.198 1.905-.57 2.902-1.006 1.994-.873 4.09-2 6.195-2.504 1.092-.262 1.98-.319 2.686-.262.397.032.608.152.893.24z" fill="#9d83c0"/><path d="M30.102 13.873c-1.058.288-2.432.675-4.104 1.059-1.896.435-3.982.82-5.791.9-1.61-.082-3.116-.407-4.59-.785-1.473-.378-2.915-.808-4.394-1.1-.323-.063-.681-.01-1.008-.058.606.249 1.215.473 1.818.752 1.041.48 2.087.971 3.166 1.361 1.08.39 2.193.68 3.371.756 1.837.05 3.976-.228 5.848-.58 1.872-.353 3.475-.782 4.23-1.033.542-.181.986-.159 1.454-.178z" fill="#7767c0"/><path d="M7.473 1.898a5.563 5.563 0 0 0-5.575 5.577v6.537c.573-.27 1.142-.549 1.684-.764.694-.276 1.365-.467 2.016-.47H5.6c1.144-.008 2.232.218 3.295.566.446.146.88.364 1.32.545.327.048.685-.005 1.008.058 1.48.292 2.92.722 4.394 1.1 1.474.378 2.98.703 4.59.785 1.809-.08 3.895-.465 5.791-.9 1.672-.384 3.046-.771 4.104-1.059V7.475a5.565 5.565 0 0 0-5.577-5.577z" fill="#3a68b6"/></g><path d="M21.822 6.473c-1.236-.061-2.445.647-3.164 1.637l-.002.001c-.858 1.198-1.31 2.857-1.686 4.23-.519 1.922-1.395 3.74-2.498 5.402-2.286 3.428-5.257 6.41-9.12 7.916a.21.21 0 0 0-.066.043l-.155.144a.21.21 0 0 0 .167.36c2.708-.317 4.451-2.334 6.45-3.935 1.605-.157 3.451-.258 5.004-.672l.002-.001c2.182-.614 4.55-1.581 6.039-3.42 1.484-1.82 1.733-4.354 1.19-6.549-.184-.877-.94-1.776-1.898-1.966l-.077-.271c.208-.228.88-.473 1.086-.771.23-.332.39-.992.272-1.446a.21.21 0 0 0-.03-.067c-.253-.365-1.098-.634-1.515-.635z" fill="#50beee"/></svg>