<svg xmlns="http://www.w3.org/2000/svg" height="32" width="32" version="1"><rect width="28.203" height="28.203" x="1.898" y="1.898" ry="5.575" fill="#b87425" fill-rule="evenodd"/><g transform="rotate(-45 14.514 16.615)" fill="#edcc5c"><path d="M16 9.5A6.5 6.5 0 0 0 9.5 16a6.5 6.5 0 0 0 6.5 6.5 6.5 6.5 0 0 0 6.5-6.5A6.5 6.5 0 0 0 16 9.5zm0 3a3.5 3.5 0 0 1 3.5 3.5 3.5 3.5 0 0 1-3.5 3.5 3.5 3.5 0 0 1-3.5-3.5 3.5 3.5 0 0 1 3.5-3.5z"/><rect rx="1.5" ry="1.4" height="7" width="3" y="20" x="14.5"/></g></svg>