<svg xmlns="http://www.w3.org/2000/svg" height="32" width="32" version="1"><rect width="28.203" height="28.203" x="1.898" y="1.898" ry="5.575" fill="#4f4f4f" fill-rule="evenodd"/><path d="M7.71 5.974v1h-.5c-.83 0-1.5.669-1.5 1.5 0 .83.67 1.5 1.5 1.5h.5v1H5.803c.206.582.754 1 1.409 1h.5v1h1v-1h.5c.83 0 1.5-.67 1.5-1.5 0-.831-.67-1.5-1.5-1.5h-.5v-1h1.908c-.206-.582-.754-1-1.408-1h-.5v-1h-1zm-.5 2h.5v1h-.5a.499.499 0 1 1 0-1zm1.5 2h.5c.278 0 .5.223.5.5s-.223.513-.5.5h-.5zm4 2v1h6v-1z" fill="#fff"/><g transform="matrix(.75 0 0 .75 4.421 4.96)" stroke-width="1.333"><circle r="8" cy="23.001" cx="24" fill="#bb46da" fill-rule="evenodd"/><g fill="#fff" color="#000"><path d="M20 19.002h.672c4.05 0 7.33 3.278 7.33 7.328v.672h-.672a.666.666 0 0 1-.656-.672 6 6 0 0 0-6-6 .666.666 0 0 1-.67-.656v-.672z"/><path d="M20 21.674h.672a4.649 4.649 0 0 1 4.656 4.656v.672h-.656a.68.68 0 0 1-.67-.672 3.327 3.327 0 0 0-3.33-3.328.68.68 0 0 1-.67-.672v-.656z"/><path d="M21.33 24.33c.736 0 1.344.607 1.344 1.344 0 .736-.61 1.328-1.34 1.328-.74 0-1.33-.592-1.33-1.328 0-.737.592-1.344 1.328-1.344z"/></g></g></svg>