<svg xmlns="http://www.w3.org/2000/svg" height="32" width="32" version="1"><rect width="28.203" height="28.203" x="1.898" y="1.898" ry="5.575" fill="#f4b668" fill-rule="evenodd"/><path d="M15.894 4.598L6.549 7.944a.324.324 0 0 0-.213.305c0 3.386.882 7.301 2.421 10.74 1.248 2.79 3.493 6.51 7.097 8.396a.314.314 0 0 0 .292 0c3.604-1.886 5.848-5.607 7.097-8.396 1.539-3.44 2.42-7.354 2.42-10.74a.324.324 0 0 0-.212-.305l-9.345-3.346a.316.316 0 0 0-.212 0zm.048 5.262a.176.176 0 0 1 .116 0l5.097 1.802h.001c.07.025.115.09.115.165 0 1.823-.48 3.93-1.32 5.782-.68 1.502-1.904 3.505-3.87 4.52a.179.179 0 0 1-.08.02.171.171 0 0 1-.08-.02c-1.966-1.015-3.19-3.018-3.87-4.52-.84-1.851-1.322-3.959-1.322-5.782 0-.074.047-.14.117-.165z" fill="#fff"/></svg>