<svg xmlns="http://www.w3.org/2000/svg" width="32" height="32"><rect width="28.203" height="28.203" x="1.898" y="1.898" ry="5.575" fill="#4f4f4f" fill-rule="evenodd"/><path d="M11.5 10.5v1h3v1h-4v3h-1v-3h-1v7h1v-3h1v3l2 2H19l1-1h1.5v1h1l1-1v-6l-1-1h-1v1h-.875l-2-2H15.5v-1h3v-1zm0 3H18l2 2h2.5v4h-3l-1 1h-5.375L11.5 18.8z" fill="#ffa92c"/><g transform="matrix(.75 0 0 .75 41.618 8.127)" stroke-width="1.333"><circle r="8" cy="19.441" cx="-25.245" fill="#3f92e7" fill-rule="evenodd"/><path d="M-26.245 15.441l-.088 1.054a3.143 3.143 0 0 0-.919.531l-.957-.45-1 1.731.87.604a3.143 3.143 0 0 0-.049.53 3.143 3.143 0 0 0 .046.533l-.867.601 1 1.732.955-.45a3.143 3.143 0 0 0 .92.528l.089 1.056h2l.088-1.053a3.143 3.143 0 0 0 .919-.532l.957.451 1-1.732-.87-.604a3.143 3.143 0 0 0 .049-.53 3.143 3.143 0 0 0-.046-.532l.867-.602-1-1.732-.955.45a3.143 3.143 0 0 0-.921-.528l-.088-1.056h-2zm1 2.858a1.143 1.143 0 0 1 1.143 1.143 1.143 1.143 0 0 1-1.143 1.143 1.143 1.143 0 0 1-1.143-1.143 1.143 1.143 0 0 1 1.143-1.143z" fill="#fff"/></g></svg>