<svg xmlns="http://www.w3.org/2000/svg" height="32" width="32" version="1"><rect width="28.203" height="28.203" x="1.898" y="1.898" ry="5.575" fill="#0086ff" fill-rule="evenodd"/><path d="M13.107 24.983c.612-.428.331-1.098-1.005-2.397-1.067-1.037-1.43-1.718-1.434-2.686-.003-.607.053-.748.443-1.119.602-.57 1.188-.848 2.28-1.08 1.336-.283 1.258-.336 1.258.858 0 .895.046 1.104.299 1.374.58.617 1.023.463 3.105-1.083 6.342-4.709 6.077-4.477 6.077-5.325 0-.659-.136-.795-2.725-2.718-5.817-4.323-5.46-4.09-5.98-3.892-.657.25-.776.506-.776 1.666v1.09h-.535c-.294 0-.957.13-1.472.29-3.036.937-4.76 3.588-4.773 7.335-.006 1.684.248 2.729 1.07 4.404.727 1.48 1.654 2.478 2.865 3.083.967.483.911.475 1.303.2z" fill="#fff"/></svg>