<svg xmlns="http://www.w3.org/2000/svg" height="32" width="32" version="1"><rect width="28.203" height="28.203" x="1.898" y="1.898" ry="5.575" fill="#3e50b4" fill-rule="evenodd"/><path d="M8.797 6.422a1.695 1.503 0 0 0-1.744 1.502v16.151a1.695 1.503 0 0 0 2.542 1.302l7.884-4.038 7.884-4.038a1.695 1.503 0 0 0 0-2.604l-7.884-4.037-7.884-4.038a1.695 1.503 0 0 0-.798-.2z" fill="#fff"/><path d="M15.884 11.895a.726.644 0 0 1 .748.643v6.923a.726.644 0 0 1-1.09.558l-3.379-1.731-3.379-1.73a.726.644 0 0 1 0-1.117l3.38-1.73 3.378-1.73a.726.644 0 0 1 .342-.087z" fill="#3e50b4"/></svg>