<svg xmlns="http://www.w3.org/2000/svg" height="32" width="32"><rect width="28.203" height="28.203" x="1.898" y="1.898" ry="5.575" fill="#37a0f2" fill-rule="evenodd"/><path d="M23.038 5.054c-3.06.035-7.78.893-9.255 2.665h-.003c-1.177 1.725-1.327 8.477-1.022 8.06 2.506-3.427 8.512-7.66 12.098-9.361 1.937-.923.562-1.392-1.818-1.364zm-2.954 5.59c-2.07.151-5.713 3.705-5.201 3.685 4.235-.147 6.88.097 10.185 1.132.49.153-.528-4.468-4.984-4.816zm-2.24 3.7c-.11.007-.154.036-.118.089 2.42 3.504 3.65 5.878 4.582 9.237.139.499 3.436-2.872 1.307-6.833-1.092-1.464-5.006-2.533-5.771-2.492zm1.26 2.81c-.024-.007-.04.005-.049.036-1.072 4.133-2.062 6.62-3.989 9.517-.288.427 4.397.766 6-3.44l.001.002c.422-1.917-1.604-6.021-1.963-6.116zm-1.176 2.64c-.01-.002-.022 0-.036.006-3.824 1.844-6.347 2.688-9.79 3.069-.508.059 2.255 3.885 6.479 2.407l.004-.001c1.78-.943 3.647-5.404 3.343-5.481z" fill="#fff"/><path d="M11.61 8.91c-.773.133-3.875 2.289-3.16 6.163v.002c.678 1.98 5.023 4.61 4.873 4.115-1.234-4.085-1.68-6.728-1.542-10.212.002-.064-.06-.086-.171-.067zm-4.982 6.102c-.398-.053-1.332 4.333 2.39 6.561 1.924.791 6.749-.767 6.28-.982-3.862-1.755-6.126-3.16-8.634-5.56a.064.064 0 0 0-.036-.02z" fill="#4f4f4f"/></svg>