<svg xmlns="http://www.w3.org/2000/svg" height="32" width="32"><rect width="28.203" height="28.203" x="1.898" y="1.898" ry="5.575" fill="#661e1a" fill-rule="evenodd"/><path d="M15.701 6.5c-2.114 0-3.715.969-4.478 2.711-.255.582-.303.792-.338 1.461-.071 1.372.35 2.481 1.267 3.334.67.622.924.768 3.19 1.826 2.799 1.307 3.277 1.584 3.926 2.285.882.954 1.334 2.258 1.115 3.217-.281 1.23-1.063 2.47-2.004 2.961-1.413.736-3.297.715-4.594-.05-.532-.315-1.458-.931-1.78-1.516-.142-.26-.335-.805-.429-1.211-.39-1.697.462-2.716 1.809-3.028.892-.206 2.139.133 2.672.909.29.42.292 1.012-.059 1.53A1.5 1.5 0 1 0 14.5 22.5c1.957-.037 2.444-1.897 2.467-3.135 0-1.82-4.074-2.68-5.9-.6-1.044 1.203-1.43 2.565-.668 4.54.135.352.226.324.253.715.028.387.078.613.112.673.048.087.231.091.861.016.747-.09.851.06 1.576.262 1.23.584 2.622.613 3.953.428 1.911-.287 3.629-1.42 4.315-2.848.42-.874.539-1.452.531-2.588-.012-1.769-.436-3.006-1.389-4.04-.65-.705-1.288-1.08-3.351-1.976-2.49-1.08-3.29-1.544-4.059-2.355-.598-.631-.73-1.866-.324-2.807.218-.504.858-1.115 1.41-1.345.626-.261 1.658-.325 2.31-.141 1.098.31 2.146 1.141 2.563 2.033.252.539.333 1.835.176 2.649-.056.288-.079.547-.053.576.094.102.6-.065.926-.305.371-.274.656-.69.799-1.172.135-.453-.08-1.443-.23-2.16a5.676 5.676 0 0 1-.112-1.117c.017-.53-.077-.71-.33-.633-.066.02-.39.084-.719.143-.599.106-.4.034-1.119-.278-.893-.388-1.663-.535-2.797-.535z" fill="#fff"/></svg>