<svg xmlns="http://www.w3.org/2000/svg" height="32" width="32" version="1"><rect width="28.203" height="28.203" x="1.898" y="1.898" ry="5.575" fill="#e8e8e7" fill-rule="evenodd"/><path d="M6.465 16.104A9.54 9.54 0 0 0 16 25.539a9.54 9.54 0 0 0 9.533-9.418 38.373 38.373 0 0 1-3.012.676 38.373 38.373 0 0 1-3.806.463 38.373 38.373 0 0 1-2.715.095 38.373 38.373 0 0 1-3.83-.19 38.373 38.373 0 0 1-3.793-.573 38.373 38.373 0 0 1-1.912-.488z" fill="#019be2"/><circle cx="16" cy="16" r="10.355" fill="#3283e2"/><path d="M16 9.738A6.261 6.261 0 0 0 9.738 16a6.261 6.261 0 0 0 .06.807A6.261 6.261 0 0 0 16 22.262a6.261 6.261 0 0 0 6.2-5.426 6.261 6.261 0 0 0 .062-.836A6.261 6.261 0 0 0 16 9.738z" fill="#00b3ed"/><circle r="4.127" cy="16" cx="16" fill="#e8e8e7"/></svg>