<svg xmlns="http://www.w3.org/2000/svg" height="32" width="32" version="1"><path d="M7.473 1.897a5.563 5.563 0 0 0-5.575 5.577v6.564l4.672-2.572 3.768 2.074V9.849l5.787-3.188L21.91 9.85v3.554l3.52-1.937 4.672 2.572V7.474a5.565 5.565 0 0 0-5.577-5.577z" fill="#4d4d4d" fill-rule="evenodd"/><path d="M30.102 11.162L25.43 8.589v21.332c2.637-.445 4.672-2.627 4.672-5.395z" fill="#019cdf" fill-rule="evenodd"/><path d="M21.91 30.103V6.973l-5.785-3.188v26.318z" fill="#4fa03f" fill-rule="evenodd"/><path d="M16.125 3.785l-5.787 3.187v23.13h5.787z" fill="#8dc73f" fill-rule="evenodd"/><path d="M25.43 8.59l-3.52 1.937v19.576h2.615c.321 0 .599-.13.905-.182z" fill="#0057a7" fill-rule="evenodd"/><path d="M10.338 10.664L6.57 8.589v21.332c.306.051.582.182.903.182h2.865z" fill="#652d90" fill-rule="evenodd"/><path d="M6.57 8.59l-4.672 2.572v13.364c0 2.768 2.035 4.95 4.672 5.395z" fill="#dd1a74" fill-rule="evenodd"/><text style="line-height:1.25" x="6.949" y="21.432" font-weight="400" font-size="13.792" font-family="sans-serif" letter-spacing="0" word-spacing="0" fill="#f9f9f9" stroke-width=".345"><tspan x="6.949" y="21.432" style="-inkscape-font-specification:'Mont Bold'" font-weight="700" font-family="Mont">3D</tspan></text></svg>