<svg xmlns="http://www.w3.org/2000/svg" height="32" width="32" version="1"><rect width="28.203" height="28.203" x="1.898" y="1.898" ry="5.575" fill="#ccc" fill-rule="evenodd"/><path d="M10.187 5.795C6.327 7.86 4 11.588 3.995 15.757 4.003 21.5 8.56 26.522 14.61 27.38c.434.043.565.024.885 0 2.93 0 5.307-2.23 5.307-4.981-.002-1.888-1.136-3.574-2.86-4.415 0 0-1.907-.82-2.75-1.244-1.221-.573-2.566-1.08-3.846-1.814-.64-.368-1.286-.796-1.867-1.458-.581-.662-1.061-1.654-1.061-2.692 0-2.013.775-3.547 1.769-4.98z" fill="#4893d5"/><path d="M21.813 26.205c3.86-2.065 6.186-5.793 6.192-9.962C27.997 10.5 23.441 5.478 17.39 4.62c-.434-.043-.565-.024-.884 0-2.932 0-5.308 2.23-5.308 4.981.002 1.888 1.136 3.574 2.861 4.415 0 0 1.906.82 2.749 1.244 1.221.573 2.566 1.08 3.846 1.814.64.368 1.287.796 1.868 1.458.58.662 1.06 1.654 1.06 2.692 0 2.013-.775 3.547-1.769 4.98z" fill="#4893d5"/></svg>