<svg xmlns="http://www.w3.org/2000/svg" xmlns:xlink="http://www.w3.org/1999/xlink" height="32" width="32" version="1"><defs><linearGradient xlink:href="#a" id="b" x1="19.973" y1="32.474" x2="20.017" y2="36.188" gradientUnits="userSpaceOnUse"/><linearGradient id="a"><stop offset="0" stop-color="#fff"/><stop offset="1" stop-color="#fff" stop-opacity="0"/></linearGradient><filter x="-.056" width="1.111" y="-.495" height="1.99" id="d"><feGaussianBlur stdDeviation=".727"/></filter><filter x="-.053" width="1.106" y="-.958" height="2.916" id="c"><feGaussianBlur stdDeviation=".942"/></filter></defs><g transform="translate(62.956 7.892)"><rect ry="5.575" y="-5.994" x="-61.058" height="28.203" width="28.203" fill="#a33849" fill-rule="evenodd"/><path d="M-58.874 20.953c-.015-.209-.086-.352-.088-.578-.016-1.571.26-3.432.26-3.432L-55.46-.254l.603.008-2.937-5.219c-1.92.879-3.264 2.788-3.264 5.045v17.055c0 1.786.885 3.3 2.184 4.318z" fill="#0864d2" fill-rule="evenodd"/><path d="M-35.136 21.02c.028-.262.132-.447.13-.735-.003-1.57-.523-3.412-.523-3.412L-39.142-.04l-.375-.006-.476.793-14.352-.082-.512-.91-.603-.008-3.242 17.197s-.276 1.86-.26 3.432c.002.226.073.37.088.578.947.743 2.088 1.256 3.39 1.256h17.053c1.26 0 2.363-.49 3.295-1.19z" fill="#b3b3b3" fill-rule="evenodd"/><path d="M-36.216-5.53l-3.3 5.483.374.006 3.613 16.914s.52 1.842.524 3.412c0 .288-.103.473-.131.735 1.352-1.015 2.281-2.556 2.281-4.385V-.42a5.556 5.556 0 0 0-3.361-5.11z" fill="#0864d2" fill-rule="evenodd"/><path d="M-57.794-5.465l3.449 6.13 14.352.081 3.777-6.275a5.56 5.56 0 0 0-2.215-.465h-17.053c-.831 0-1.603.205-2.31.53z" fill="#9a9c97" fill-rule="evenodd"/><path d="M-54.265 3.079l-1.496 11.287c-.053.336-.027.778.319.778h16.737c.28 0 .439-.265.372-.778l-2.13-11.222z" style="marker:none" color="#000" overflow="visible" fill="gray" fill-rule="evenodd"/><path transform="matrix(.60138 0 0 .80067 -59.999 -10.094)" style="marker:none" d="M4.612 34.188H38.35" color="#000" overflow="visible" opacity=".5" fill="#fff" fill-rule="evenodd" stroke="url(#b)" stroke-width="1.966" stroke-linecap="round" filter="url(#c)"/><path transform="matrix(.60138 0 0 .80067 -59.999 -10.094)" style="marker:none" d="M9.613 22.562h23.195" color="#000" overflow="visible" fill="none" stroke="#fce94f" stroke-width="2.937" stroke-linecap="round" stroke-linejoin="round" stroke-opacity=".553" filter="url(#d)"/><path d="M-54.217 7.97h14.046" style="marker:none" color="#000" overflow="visible" fill="#fff" fill-rule="evenodd" stroke="#fff" stroke-width=".694" stroke-linecap="round" stroke-linejoin="round"/><path d="M-51.109 18.858a.835.835 0 1 0 0 1.67h2.414a.835.835 0 1 0 0-1.67zM-46.298 18.858a.835.835 0 1 0 0 1.67h.01a.835.835 0 1 0 0-1.67zM-43.894 18.858a.835.835 0 1 0 0 1.67h.01a.835.835 0 1 0 0-1.67zM-41.488 18.858a.835.835 0 1 0 0 1.67h.01a.835.835 0 1 0 0-1.67z" style="line-height:normal;font-variant-ligatures:normal;font-variant-position:normal;font-variant-caps:normal;font-variant-numeric:normal;font-variant-alternates:normal;font-feature-settings:normal;text-indent:0;text-align:start;text-decoration-line:none;text-decoration-style:solid;text-decoration-color:#000;text-transform:none;text-orientation:mixed;white-space:normal;shape-padding:0;isolation:auto;mix-blend-mode:normal;solid-color:#000;solid-opacity:1;marker:none" color="#000" font-weight="400" font-family="sans-serif" overflow="visible" fill="#f9f9f9" fill-rule="evenodd" enable-background="accumulate"/><path style="marker:none" d="M-51.157 19.64h2.527" color="#000" overflow="visible" opacity=".369" fill="#f9f9f9" fill-rule="evenodd"/></g></svg>