<svg xmlns="http://www.w3.org/2000/svg" height="32" width="32" version="1"><rect width="28.203" height="28.203" x="1.898" y="1.898" ry="5.575" fill="#303bb5" fill-rule="evenodd"/><path d="M8.456 16.258c1.233-1.094 2.77-1.86 4.622-2.282-1.141-.829-1.823-1.563-2.526-2.54-.322-.44.024-.687.468-1.034 2.663-1.019 7.339-1.597 9.705.15.63.51-.763 1.36-1.44 1.625 2.484.441 4.403 1.15 5.492 2.826 1.71-2.536 1.029-6.218-.913-7.419-1.942-1.2-8.603-3.734-16.036-.228-3.36 1.62-1.944 5.463.628 8.902z" fill="#fff"/><path d="M9.498 17.177c3.483-.86 7.008-1.727 11.863 0-2.201-4.45-7.967-2.726-11.863 0z" fill="#fff"/><path d="M18.456 14.11c4.952 1.99 7.02 7.137.262 9.2-3.385 1.113-8.979.22-10.481-.907-1.183-.905.184-2.353 1.846-2.946-2.04.006-3.133.508-3.8 1.644-.347.793-.254 1.298-.168 1.626 2.364 5.718 19.541 4.727 20.028-2.382.136-3.827-4.343-6.093-7.687-6.235z" fill="#fff"/><g transform="matrix(1.16874 0 0 1.16874 -2.7 -2.881)" fill-rule="evenodd"><circle r="2.952" cy="19.579" cx="15.909" fill="#c3b694"/><circle r="2.365" cy="19.597" cx="15.926" fill="#082585"/><path d="M16.421 21.477l-.46-.895-.39.927-.025-1.005-.755.665.414-.917-.969.272.77-.647-.99-.174.975-.249-.817-.587.986.199-.48-.884.801.607-.05-1.004.46.895.39-.927.026 1.005.754-.665-.413.917.968-.272-.77.647.99.175-.974.248.816.587-.986-.199.481.884-.802-.607z" fill="#fff"/></g></svg>