<svg xmlns="http://www.w3.org/2000/svg" height="32" width="32" version="1"><rect width="28.203" height="28.203" x="1.898" y="1.898" ry="5.575" fill="#ffc947" fill-rule="evenodd"/><g fill="#b38d32"><path d="M16 9.62a6.38 6.38 0 0 0-5.912 3.987H8.822l-.798 1.595h1.653A6.38 6.38 0 0 0 9.62 16l-.797 1.595h1.01A6.38 6.38 0 0 0 16 22.381a6.38 6.38 0 0 0 4.98-2.393h-2.34a4.785 4.785 0 0 1-2.64.797 4.785 4.785 0 0 1-4.506-3.19h5.304L17.595 16h-6.38a4.785 4.785 0 0 1 .071-.798h6.31l.797-1.595H11.86A4.785 4.785 0 0 1 16 11.215a4.785 4.785 0 0 1 2.64.797h2.334A6.38 6.38 0 0 0 16 9.62z"/><path d="M16 5.632A10.346 10.346 0 0 0 5.632 16 10.346 10.346 0 0 0 16 26.368 10.346 10.346 0 0 0 26.368 16 10.346 10.346 0 0 0 16 5.632zm0 1.595A8.72 8.72 0 0 1 24.773 16 8.719 8.719 0 0 1 16 24.773 8.72 8.72 0 0 1 7.227 16 8.72 8.72 0 0 1 16 7.227z"/></g></svg>