<svg xmlns="http://www.w3.org/2000/svg" height="32" width="32" version="1"><rect width="28.203" height="28.203" x="1.898" y="1.898" ry="5.575" fill="#5481c5" fill-rule="evenodd"/><path d="M13.517 6.895a5.68 5.68 0 0 0-5.229 3.456c-2.194.324-3.876 2.179-3.876 4.445 0 2.494 2.038 4.515 4.552 4.515h9.675c2.2 0 3.983-1.769 3.983-3.95 0-2.029-1.537-3.69-3.521-3.916a5.692 5.692 0 0 0-5.584-4.55z" fill="#a1bde8"/><path d="M18.483 12.689a5.68 5.68 0 0 0-5.228 3.457c-2.194.323-3.877 2.178-3.877 4.444 0 2.494 2.038 4.515 4.552 4.515h9.675c2.2 0 3.983-1.769 3.983-3.95 0-2.029-1.537-3.69-3.52-3.916a5.692 5.692 0 0 0-5.585-4.55z" fill="#ececec"/></svg>