<svg xmlns="http://www.w3.org/2000/svg" height="32" width="32" version="1"><rect width="28.203" height="28.203" x="1.898" y="1.898" ry="5.575" fill="#2d9cf2" fill-rule="evenodd"/><path d="M11.674 7.142a5.128 5.128 0 0 0-5.132 5.13c0 .876.222 1.723.609 2.444a9.114 9.114 0 0 0-.199 1.882c0 4.994 4.051 9.045 9.053 9.045.646 0 1.271-.068 1.88-.196a5.13 5.13 0 0 0 2.441.61 5.128 5.128 0 0 0 5.132-5.13c0-.881-.222-1.722-.612-2.447a9.086 9.086 0 0 0 .197-1.879c0-4.99-4.052-9.045-9.047-9.045-.649 0-1.274.066-1.883.197a5.213 5.213 0 0 0-2.444-.611" fill="#fff"/><path d="M16.171 11.329c2.667 0 4.043 1.408 4.043 2.235 0 .83-.397.954-1.052.954-1.272 0-.75-1.533-3.133-1.533-.788 0-1.773.36-1.773 1.282 0 .74.872 1.013 2.411 1.393 2.321.621 4.062 1.241 4.062 3.372 0 2.069-1.684 3.105-4.351 3.105s-4.37-1.594-4.37-2.421c0-.827.314-1.034.968-1.034 1.274 0 1.103 1.74 3.485 1.74.79 0 1.958-.361 1.958-1.285 0-.738-.062-.994-1.752-1.45-1.805-.245-4.72-.832-4.72-3.084 0-2.069 1.56-3.273 4.227-3.273" fill="#2d9cf2"/></svg>