<svg xmlns="http://www.w3.org/2000/svg" width="32" height="32"><rect width="28.203" height="28.203" x="1.898" y="1.898" ry="5.575" fill="none"/><path d="M30.102 19.303l-4.487 1.287 2.356 8.22c1.27-1.02 2.13-2.52 2.13-4.283v-5.224z" fill="#d5100d" fill-rule="evenodd"/><path d="M12.172 30.102l-1.5-5.225-8.018 2.297c.947 1.72 2.708 2.928 4.819 2.928h4.699z" fill="#390f39" fill-rule="evenodd"/><path d="M10.66 24.88L6.385 9.976l-.022-.002-4.465 1.28v13.274c0 .979.317 1.85.756 2.647l8.006-2.293z" fill="#48c39e" fill-rule="evenodd"/><path d="M25.602 20.553l-14.93 4.283c-.004.015-.002.028-.006.043l.006-.002 1.5 5.225h12.355c1.326 0 2.49-.525 3.444-1.291l-2.354-8.213h-.002l-.013-.045z" fill="#d81768" fill-rule="evenodd"/><path d="M21.338 5.68l-.01.002L6.385 9.967l-.022.006c.008 0 .014 0 .022.002L10.66 24.88l.006-.002c.004-.015.002-.028.006-.043l14.93-4.283L21.338 5.68z" fill="#fff" fill-rule="evenodd"/><path d="M21.338 5.68l4.277 14.918h.002l-.002-.008 4.487-1.287V7.473a5.54 5.54 0 0 0-1.569-3.856L21.338 5.68z" fill="#ecb524" fill-rule="evenodd"/><path d="M6.385 9.967l14.943-4.285-1.084-3.784H7.473c-1.175 0-2.2.444-3.096 1.059l2.008 7.01z" fill="#81d2e0" fill-rule="evenodd"/><path d="M20.244 1.898l1.084 3.784 7.205-2.065a5.532 5.532 0 0 0-4.006-1.719h-4.283z" fill="#77971f" fill-rule="evenodd"/><path d="M1.898 11.254l4.487-1.287-2.008-7.01C2.915 3.96 1.898 5.558 1.898 7.473v3.78z" fill="#20a48e" fill-rule="evenodd"/><path d="M19.741 18.018c0 .962-.316 1.7-.95 2.212-.628.513-1.558.77-2.788.77-.85 0-1.59-.141-2.219-.423-.624-.282-1.132-.737-1.525-1.366l1.504-1.151c.222.314.433.55.632.707.198.157.434.28.707.368.273.088.587.131.943.131.532 0 .945-.09 1.241-.27.3-.185.451-.465.451-.84a.872.872 0 0 0-.16-.533 1.199 1.199 0 0 0-.464-.368c-.208-.106-.569-.226-1.082-.36-.5-.134-.97-.268-1.415-.403a4.439 4.439 0 0 1-1.144-.534 2.414 2.414 0 0 1-.756-.818c-.185-.328-.277-.742-.277-1.241 0-.911.307-1.62.922-2.13.615-.512 1.496-.769 2.643-.769 1.66 0 2.834.569 3.522 1.706l-1.49 1.165c-.264-.407-.56-.698-.888-.874-.328-.175-.72-.263-1.172-.263-.453 0-.823.083-1.11.25-.282.161-.423.418-.423.77 0 .309.148.547.444.713.296.162.811.326 1.546.493.407.106.81.222 1.207.347.398.12.751.289 1.061.506.314.217.566.501.756.853.19.351.284.802.284 1.352" fill="#5a3856"/></svg>