<svg xmlns="http://www.w3.org/2000/svg" xmlns:xlink="http://www.w3.org/1999/xlink" height="32" width="32" version="1"><defs><linearGradient id="a"><stop offset="0" stop-color="#d3e2ff"/><stop offset="1" stop-color="#d3e2ff" stop-opacity="0"/></linearGradient><linearGradient xlink:href="#a" id="b" x1="19.722" y1="16.053" x2="18.954" y2="18.152" gradientUnits="userSpaceOnUse"/><linearGradient gradientTransform="translate(-32.068 -32.087)" xlink:href="#a" id="c" x1="19.722" y1="16.053" x2="18.954" y2="18.152" gradientUnits="userSpaceOnUse"/></defs><rect width="28.203" height="28.203" x="1.898" y="1.898" ry="5.575" fill="#6c92f1" fill-rule="evenodd"/><g stroke-width=".939"><path d="M13.162 11.457l-.188 9.215 5.738 5.13 3.84-2.401-.13-9.762z" fill="#fff"/><g stroke-width="1.267"><path d="M19.03 16.452s-.018 7.17.052 7.187c.07.018 3.14-1.692 3.14-1.692l.07-7.624z" fill="#a7ceff"/><path style="line-height:normal;font-variant-ligatures:normal;font-variant-position:normal;font-variant-caps:normal;font-variant-numeric:normal;font-variant-alternates:normal;font-feature-settings:normal;text-indent:0;text-align:start;text-decoration-line:none;text-decoration-style:solid;text-decoration-color:#000;text-transform:none;text-orientation:mixed;white-space:normal;shape-padding:0;isolation:auto;mix-blend-mode:normal;solid-color:#000;solid-opacity:1" d="M12.91 10.906V20.99l5.56 4.919.354.057.002-9.817zm.34.758l5.234 4.638v9.173l-5.233-4.638z" color="#000" font-weight="400" font-family="sans-serif" overflow="visible" fill="#84a0fe"/><path style="line-height:normal;font-variant-ligatures:normal;font-variant-position:normal;font-variant-caps:normal;font-variant-numeric:normal;font-variant-alternates:normal;font-feature-settings:normal;text-indent:0;text-align:start;text-decoration-line:none;text-decoration-style:solid;text-decoration-color:#000;text-transform:none;text-orientation:mixed;white-space:normal;shape-padding:0;isolation:auto;mix-blend-mode:normal;solid-color:#000;solid-opacity:1" d="M18.472 16.123v.212l.076 9.467.276.165 4.004-2.401V13.51zm.365.206l3.626-2.174v9.204l-3.626 2.175z" color="#000" font-weight="400" font-family="sans-serif" overflow="visible" fill="#84a0fe"/><path d="M17.04 8.807v5.983l1.432 1.333 4.227-2.32z" fill="#f7b11f"/><path d="M13.118 11.2l3.923-2.393v5.983z" fill="#ffd04d"/><path d="M13.46 11.715l-.1 7.475 4.885 4.417v-7.624z" fill="#b0d5ff"/><path style="line-height:normal;font-variant-ligatures:normal;font-variant-position:normal;font-variant-caps:normal;font-variant-numeric:normal;font-variant-alternates:normal;font-feature-settings:normal;text-indent:0;text-align:start;text-decoration-line:none;text-decoration-style:solid;text-decoration-color:#000;text-transform:none;text-orientation:mixed;white-space:normal;shape-padding:0;isolation:auto;mix-blend-mode:normal;solid-color:#000;solid-opacity:1" d="M17.093 8.648l-4.132 2.556-.011.23 5.682 5.035 4.347-2.606zm-.044.488l5.265 4.667-3.636 2.179-5.264-4.666z" color="#000" font-weight="400" font-family="sans-serif" overflow="visible" fill="#84a0fe"/><path d="M17.04 8.807l5.659 4.997 2.299-2.567-5.589-4.934z" fill="#ffe692"/><path style="line-height:normal;font-variant-ligatures:normal;font-variant-position:normal;font-variant-caps:normal;font-variant-numeric:normal;font-variant-alternates:normal;font-feature-settings:normal;text-indent:0;text-align:start;text-decoration-line:none;text-decoration-style:solid;text-decoration-color:#000;text-transform:none;text-orientation:mixed;white-space:normal;shape-padding:0;isolation:auto;mix-blend-mode:normal;solid-color:#000;solid-opacity:1" d="M19.465 6.033L16.79 8.906l.15.134 5.72 5.068 2.675-2.872zm.026.55l5.28 4.68-2.137 2.295-5.28-4.68z" color="#000" font-weight="400" font-family="sans-serif" overflow="visible" fill="#84a0fe"/><path d="M11.786 9.054l3.886-2.332 1.369 2.085-3.923 2.393z" fill="#ffe692"/><path style="line-height:normal;font-variant-ligatures:normal;font-variant-position:normal;font-variant-caps:normal;font-variant-numeric:normal;font-variant-alternates:normal;font-feature-settings:normal;text-indent:0;text-align:start;text-decoration-line:none;text-decoration-style:solid;text-decoration-color:#000;text-transform:none;text-orientation:mixed;white-space:normal;shape-padding:0;isolation:auto;mix-blend-mode:normal;solid-color:#000;solid-opacity:1" d="M15.776 6.372l-4.33 2.597.104.17 1.463 2.416 4.33-2.595zm-.134.542l1.158 1.91-3.653 2.191-1.158-1.912z" color="#000" font-weight="400" font-family="sans-serif" overflow="visible" fill="#84a0fe"/><path d="M21.861 14.37l.838-.566 2.774.794-3.777 2.407-2.859-.676z" fill="#ffe692"/><path style="line-height:normal;font-variant-ligatures:normal;font-variant-position:normal;font-variant-caps:normal;font-variant-numeric:normal;font-variant-alternates:normal;font-feature-settings:normal;text-indent:0;text-align:start;text-decoration-line:none;text-decoration-style:solid;text-decoration-color:#000;text-transform:none;text-orientation:mixed;white-space:normal;shape-padding:0;isolation:auto;mix-blend-mode:normal;solid-color:#000;solid-opacity:1" d="M22.615 13.621l-4.143 2.502.169.303 3.054.771.07-.042 4.398-2.636zm.062.423l2.472.624-3.515 2.107-2.47-.623z" color="#000" font-weight="400" font-family="sans-serif" overflow="visible" fill="#84a0fe"/><path d="M13.723 14.877l3.908 3.524.105 4.954s-4.397-3.524-4.257-3.593c.14-.07.244-4.885.244-4.885z" fill="#88baff"/><g transform="matrix(.7895 0 0 .7895 -1.553 7.75)"><circle cx="16" cy="16" r="6.58" fill="#fff"/><path d="M22.613 16.044a6.58 6.58 0 0 1-.926 3.366l-5.653-3.366z" fill="url(#b)"/><path d="M14.808 9.58a6.58 6.58 0 0 1 5.47 1.435l-4.244 5.029z" fill="#d3e2ff"/><path d="M14.808 9.58a6.58 6.58 0 0 1 3.223.194l-1.997 6.27z" fill="#c3d6ff"/><path d="M17.021 22.549a6.58 6.58 0 0 1-5.412-1.636l4.425-4.87z" fill="#d3e2ff"/><path d="M17.021 22.549a6.58 6.58 0 0 1-3.213-.314l2.226-6.191z" fill="#c3d6ff"/><path d="M-9.454-16.044a6.58 6.58 0 0 1-.926 3.367l-5.654-3.367z" transform="scale(-1)" fill="url(#c)"/><path style="line-height:normal;font-variant-ligatures:normal;font-variant-position:normal;font-variant-caps:normal;font-variant-numeric:normal;font-variant-alternates:normal;font-feature-settings:normal;text-indent:0;text-align:start;text-decoration-line:none;text-decoration-style:solid;text-decoration-color:#000;text-transform:none;text-orientation:mixed;white-space:normal;shape-padding:0;isolation:auto;mix-blend-mode:normal;solid-color:#000;solid-opacity:1" d="M16.128 9.304a6.77 6.77 0 0 0 0 13.537 6.773 6.773 0 0 0 6.77-6.77 6.771 6.771 0 0 0-6.77-6.767zm0 .377a6.388 6.388 0 0 1 6.39 6.39 6.388 6.388 0 0 1-6.39 6.391 6.388 6.388 0 0 1-6.391-6.39 6.388 6.388 0 0 1 6.39-6.39z" color="#000" font-weight="400" font-family="sans-serif" overflow="visible" fill="#84a0fe"/><circle cx="16" cy="16" r="2.106" fill="#84a0fe" fill-opacity=".574"/><circle cx="16" cy="16" r="1.184" fill="#fffffe"/></g><path d="M19.611 21.61l.009 1.99 2.163-.977.026-2.102zM19.601 20.96v.468l2.208-1.073v-.469zM19.606 20.256v.469l2.208-1.074v-.468z" fill="#88baff"/></g></g></svg>