<svg xmlns="http://www.w3.org/2000/svg" width="32" height="32" version="1"><rect width="28.203" height="28.203" x="1.898" y="1.898" ry="5.575" fill="#704b91" fill-rule="evenodd"/><path fill="#4c8a4c" d="M7 16h3v3H7z"/><path fill="#e45e5e" d="M10 16h3v3h-3z"/><path fill="#7079ff" d="M13 16h3v3h-3z"/><path fill="#cdcdcd" d="M16 16h3v3h-3z"/><path fill="#ffbd1a" d="M19 16h3v3h-3z"/><path fill="#f3f3f3" d="M22 16h3v3h-3z"/><path fill="#7079ff" d="M7 13h3v3H7z"/><path fill="#f3f3f3" d="M10 13h3v3h-3z"/><path fill="#4c8a4c" d="M13 13h3v3h-3z"/><path fill="#f3f3f3" d="M16 13h3v3h-3z"/><path fill="#cdcdcd" d="M19 13h3v3h-3z"/><path fill="#7079ff" d="M22 13h3v3h-3z"/><path fill="#f3f3f3" d="M7 10h3v3H7z"/><path fill="#ffee35" d="M10 10h3v3h-3z"/><path fill="#ffbd1a" d="M13 10h3v3h-3z"/><path fill="#db5fe8" d="M16 10h3v3h-3z"/><path fill="#ffee35" d="M19 10h3v3h-3z"/><path fill="#ffbd1a" d="M10 19h3v3h-3z"/><path fill="#db5fe8" d="M13 19h3v3h-3z"/><path fill="#e45e5e" d="M16 19h3v3h-3z"/><path fill="#ffee35" d="M19 19h3v3h-3z"/><path fill="#e45e5e" d="M22 19h3v3h-3z"/><path fill="#7079ff" d="M13 22h3v3h-3z"/><path fill="#f3f3f3" d="M16 22h3v3h-3z"/><path fill="#4c8a4c" d="M19 22h3v3h-3z"/><path fill="#db5fe8" d="M22 22h3v3h-3z"/><path fill="#ffbd1a" d="M7 7h3v3H7z"/><path fill="#e45e5e" d="M10 7h3v3h-3z"/><path fill="#ffee35" d="M13 7h3v3h-3z"/><path fill="#7079ff" d="M16 7h3v3h-3z"/></svg>