<svg xmlns="http://www.w3.org/2000/svg" height="32" width="32" version="1"><rect width="28.203" height="28.203" x="1.898" y="1.898" ry="5.575" fill="#8e8e8e" fill-rule="evenodd"/><path d="M22.957 16A6.957 6.957 0 0 1 16 22.957 6.957 6.957 0 0 1 9.043 16 6.957 6.957 0 0 1 16 9.043 6.957 6.957 0 0 1 22.957 16z" fill="#4f4f4f"/><path d="M16 5.177A10.799 10.799 0 0 0 5.177 16 10.799 10.799 0 0 0 16 26.823 10.799 10.799 0 0 0 26.823 16 10.799 10.799 0 0 0 16 5.177zm0 2.32a3.092 3.092 0 0 1 3.092 3.092A3.092 3.092 0 0 1 16 13.68a3.092 3.092 0 0 1-3.092-3.092A3.092 3.092 0 0 1 16 7.496zm-5.411 5.41A3.092 3.092 0 0 1 13.68 16a3.092 3.092 0 0 1-3.092 3.092A3.092 3.092 0 0 1 7.496 16a3.092 3.092 0 0 1 3.093-3.092zm10.822 0A3.092 3.092 0 0 1 24.504 16a3.092 3.092 0 0 1-3.093 3.092A3.092 3.092 0 0 1 18.32 16a3.092 3.092 0 0 1 3.092-3.092zM16 18.32a3.092 3.092 0 0 1 3.092 3.092A3.092 3.092 0 0 1 16 24.504a3.092 3.092 0 0 1-3.092-3.093A3.092 3.092 0 0 1 16 18.32z" fill="#ccc"/><path d="M17.339 15.227a.387.387 0 0 0-.528-.142.387.387 0 0 0-.142.528.387.387 0 0 0 .528.142.387.387 0 0 0 .142-.528zm-1.584-.424a.387.387 0 0 0-.528-.142.387.387 0 0 0-.142.528.387.387 0 0 0 .528.142.387.387 0 0 0 .142-.528zm1.16 2.008a.387.387 0 0 0-.528-.141.387.387 0 0 0-.142.528.387.387 0 0 0 .528.141.387.387 0 0 0 .142-.528zm-1.584-.424a.387.387 0 0 0-.528-.142.387.387 0 0 0-.142.528.387.387 0 0 0 .528.142.387.387 0 0 0 .142-.528z" fill="#4f4f4f"/></svg>