<svg xmlns="http://www.w3.org/2000/svg" height="32" width="32" version="1"><rect width="28.203" height="28.203" x="1.898" y="1.898" ry="5.575" fill="#66b744" fill-rule="evenodd"/><g transform="translate(51.478 -4.633)"><rect x="1.563" y="30.743" width="17.866" height="17.866" ry="1.787" rx="1.787" transform="scale(-1 1) rotate(-45)" fill="#fff"/><path d="M-35.474 11.089c-1.517 0-2.813.18-3.908.55l-3.46 3.46c-.194.811-.282 1.7-.21 2.278.376 3.006 3.53 4.99 7.578 4.99 2.892 0 4.336 1.487 4.394 1.95.029.232.054 1.24-.48 1.607-.534.366-1.977.78-3.914.78-2.376 0-5.212-1.506-5.212-1.506-.898-.533-1.983-.143-2.419.704l3.557 3.556c1.16.386 2.566.717 4.074.717 1.517 0 2.813-.181 3.907-.55l3.46-3.46c.195-.812.283-1.7.21-2.278-.375-3.007-3.529-4.99-7.577-4.99-2.892 0-4.25-1.487-4.308-1.95-.029-.232-.054-1.241.48-1.607.534-.366 1.89-.781 3.828-.781 2.375 0 5.212 1.506 5.212 1.506.897.534 1.982.143 2.418-.703l-3.557-3.557c-1.16-.386-2.565-.716-4.073-.716z" fill="#66b744" fill-rule="evenodd"/></g></svg>