<svg xmlns="http://www.w3.org/2000/svg" height="32" width="32" version="1"><rect width="28.203" height="28.203" x="1.898" y="1.898" ry="5.575" fill="#5db43e" fill-rule="evenodd"/><path d="M16.02 5.424c2.104.005 4.238.698 5.904 2.071 1.172 1.428-1.06 2.957-2.066 1.565-3.026-1.937-7.295-1.255-9.572 1.64-1.21 1.438-1.894 3.356-1.886 5.281h2l-3.2 5.077L4 15.98h2c-.063-4.597 3.062-8.97 7.258-10.16a9.548 9.548 0 0 1 2.762-.397zm8.78 5.5l3.2 5.079h-2c.057 4.651-3.149 9.073-7.418 10.2-2.881.852-6.139.23-8.506-1.716-1.209-1.452 1.055-2.966 2.07-1.561 2.931 1.882 7.038 1.285 9.352-1.403 1.34-1.46 2.112-3.484 2.102-5.52h-2l3.2-5.078z" fill="#fff"/><path d="M14.745 10.98l-.11 1.322a3.945 3.945 0 0 0-1.154.667l-1.202-.566-1.255 2.174 1.091.758a3.945 3.945 0 0 0-.06.665 3.945 3.945 0 0 0 .057.668l-1.088.756 1.255 2.174 1.2-.565a3.945 3.945 0 0 0 1.155.663l.11 1.325h2.511l.11-1.322a3.945 3.945 0 0 0 1.154-.667l1.202.566 1.255-2.174-1.091-.758a3.945 3.945 0 0 0 .06-.666 3.945 3.945 0 0 0-.057-.668l1.088-.755-1.255-2.174-1.2.564a3.945 3.945 0 0 0-1.155-.663l-.11-1.325h-2.511zM16 14.565A1.435 1.435 0 0 1 17.435 16 1.435 1.435 0 0 1 16 17.435 1.435 1.435 0 0 1 14.565 16 1.435 1.435 0 0 1 16 14.566z" fill="#fff"/></svg>