<svg xmlns="http://www.w3.org/2000/svg" width="32" height="32" version="1"><g transform="translate(52.626 12.38)"><path d="M-22.524-2.581h-28.203v5.25h28.203z" fill="#436a7f" fill-rule="evenodd"/><path d="M-45.153-10.933a5.561 5.561 0 0 0-5.574 5.574v2.778h28.203V-5.36a5.561 5.561 0 0 0-5.574-5.574z" fill="#b3b3b3" fill-rule="evenodd"/><path d="M-22.524 2.669h-28.203v9.93a5.561 5.561 0 0 0 5.574 5.574H-28.1a5.563 5.563 0 0 0 5.576-5.575z" fill="#2a88ae" fill-rule="evenodd"/><circle r="1.025" cy="5.235" cx="-44.591" fill="#3c5d6f" fill-rule="evenodd"/><circle r="1.025" cy="5.252" cx="-28.171" fill="#3c5d6f" fill-rule="evenodd"/><path d="M-44.54 5.622c.765 11.787 15.73 10.67 16.301 0" fill="none" stroke="#fff" stroke-width="1.291" stroke-linecap="round"/></g></svg>