<svg xmlns="http://www.w3.org/2000/svg" width="32" height="32" version="1"><rect width="28.203" height="28.203" x="1.898" y="1.898" ry="5.575" fill="#029499" fill-rule="evenodd"/><path d="M12.299 6.59L9.7 8.09l1.918 3.322a6 6 0 0 0-1.53 3.088H6v3h4.35a6 6 0 0 0 1.636 2.451l-2.285 3.96 2.598 1.5 2.35-4.071A6 6 0 0 0 16 21.5a6 6 0 0 0 1.35-.162L19.7 25.41l2.598-1.5-2.285-3.959a6 6 0 0 0 1.634-2.451H26v-3h-4.086a6 6 0 0 0-1.531-3.092l1.916-3.318-2.598-1.5-1.851 3.205A6 6 0 0 0 16 9.5a6 6 0 0 0-1.848.299zM16 11.5a4 4 0 0 1 4 4 4 4 0 0 1-4 4 4 4 0 0 1-4-4 4 4 0 0 1 4-4z" fill="#fff"/></svg>