<svg xmlns="http://www.w3.org/2000/svg" height="32" width="32" version="1"><rect width="28.203" height="28.203" x="1.898" y="1.898" ry="5.575" fill="#e73c4f" fill-rule="evenodd"/><path d="M16.803 1.921l.007 9.986.014 10.986h3.03l.007-2.888c.006-2.288.013-2.887.04-2.877.018.007.51.882 1.095 1.945a131.77 131.77 0 0 0 1.23 2.2c.187.304.552.726.79.907.497.38 1.015.576 1.816.684.429.058 1.877.079 1.922.027.02-.022.026-.544.021-1.656l-.008-1.623-.535-.02c-.606-.022-.738-.05-1.084-.246-.268-.151-.58-.48-.81-.853a73.49 73.49 0 0 1-.92-1.658c-.747-1.374-.769-1.42-.729-1.49.023-.04.954-1.539 2.069-3.33a404.344 404.344 0 0 0 2.043-3.3c.012-.035-.273-.042-1.795-.042h-1.813l-1.63 2.62c-.898 1.442-1.647 2.627-1.665 2.634-.03.01-.03-8.346-.013-11.992-.097 0-.19-.012-.286-.012h-2.797zm-6.745 7c-.373.003-.738.021-.914.055-1.44.274-2.461 1.048-3.013 2.29a4.533 4.533 0 0 0-.35 1.235c-.045.308-.049.441-.037.942.01.409.027.667.062.867.242 1.365.935 2.23 2.14 2.682.388.145.63.201 1.671.375.578.096 1.019.182 1.111.22.398.163.584.457.617.973.042.635-.267 1.07-.89 1.25-.25.072-.708.113-1.03.092-1.057-.07-1.747-.33-2.345-.887l-.07-.067-.905 1.059c-.498.582-.906 1.083-.906 1.111 0 .071.418.49.738.742.809.635 1.667.934 3.027 1.053.286.025 1.34-.012 1.584-.055 1.831-.32 3.094-1.416 3.508-3.045.193-.757.188-1.901-.01-2.75-.145-.623-.334-1.013-.7-1.446-.385-.45-.715-.685-1.294-.912-.39-.153-.719-.226-1.761-.396-1.112-.183-1.245-.229-1.498-.506-.288-.314-.338-.732-.145-1.19.136-.323.414-.557.815-.685.209-.066 1.045-.073 1.378-.011.449.082.87.287 1.168.57.088.082.174.15.192.15.05 0 1.783-2.037 1.783-2.095 0-.068-.335-.4-.66-.655-.627-.491-1.373-.793-2.302-.928a7.628 7.628 0 0 0-.963-.039z" fill="#fff"/></svg>