<svg xmlns="http://www.w3.org/2000/svg" height="32" width="32" version="1"><rect width="28.203" height="28.203" x="1.898" y="1.898" ry="5.575" fill="#f83" fill-rule="evenodd"/><path d="M5.25 16.98c-.047 0-.083.037-.09.09L5 18.35l.16 1.256c.007.053.043.09.09.09.044 0 .08-.037.087-.09l.19-1.257-.19-1.28c-.007-.052-.044-.09-.088-.09zm.904-.699c-.008-.055-.045-.093-.092-.093-.046 0-.085.04-.091.093l-.217 2.068.217 2.022c.006.055.044.094.091.094.046 0 .084-.038.092-.093l.246-2.023zm3.408-1.907c-.089 0-.162.076-.167.172l-.172 3.805.172 2.459c.004.096.078.171.167.171.088 0 .161-.076.166-.172v.002l.195-2.46-.195-3.804c-.005-.097-.078-.173-.166-.173zm-1.764 1.323c-.068 0-.124.057-.13.133l-.193 2.52.194 2.44c.005.075.06.132.129.132.067 0 .123-.057.129-.133l.22-2.438-.22-2.522c-.006-.076-.062-.133-.129-.133zm3.556 5.285c.11 0 .2-.093.204-.212l.17-2.417-.17-5.066c-.003-.118-.093-.211-.203-.211-.111 0-.201.093-.205.212L11 18.352l.15 2.419c.004.118.094.21.204.21zm3.67.011c.151 0 .276-.13.28-.29l.117-2.349-.118-5.85c-.003-.16-.128-.29-.28-.29-.15 0-.276.13-.278.29l-.106 5.848.106 2.352c.002.159.128.29.279.29zm-1.849-.01c.132 0 .238-.11.242-.251v.002l.143-2.381-.144-5.102c-.004-.141-.11-.252-.241-.252-.133 0-.24.11-.242.252l-.127 5.102.127 2.38c.003.14.11.25.242.25zm-4.498-.021c.078 0 .141-.066.147-.152l.208-2.46-.208-2.34c-.006-.086-.069-.151-.147-.151-.08 0-.143.066-.148.153l-.183 2.338.183 2.459c.005.087.068.152.148.152zm-1.75-.135c.057 0 .103-.048.11-.113l.233-2.364-.233-2.453c-.007-.066-.053-.113-.11-.113-.058 0-.105.047-.11.113L6.61 18.35l.205 2.364c.006.066.053.114.11.114zm7.17-7.661c-.144 0-.259.119-.262.272l-.116 4.915.116 2.366c.003.15.118.27.261.27.143 0 .257-.12.26-.272v.002l.131-2.365-.13-4.916c-.004-.153-.118-.272-.26-.272zm-3.642 7.82c.099 0 .18-.084.185-.191l.182-2.443-.182-4.674c-.005-.108-.086-.193-.185-.193-.1 0-.181.085-.185.193l-.161 4.674.16 2.444c.005.106.086.19.186.19zm2.03-.23v-.001l.155-2.402-.156-5.236c-.004-.13-.102-.232-.222-.232-.122 0-.22.102-.223.232l-.139 5.235.139 2.404c.003.129.101.23.223.23.12 0 .218-.101.222-.231v.002zm11.81-5.421c-.372 0-.725.078-1.047.22-.216-2.553-2.26-4.555-4.756-4.555-.61 0-1.205.126-1.73.338-.205.083-.26.168-.261.334v8.989c.002.173.13.317.292.334.007.002 7.453.005 7.501.005C25.788 21 27 19.732 27 18.168c0-1.565-1.211-2.833-2.706-2.833zm-8.347-3.671c-.163 0-.296.14-.299.311l-.122 6.38.123 2.316c.002.169.135.308.298.308.162 0 .295-.139.298-.31v.002l.132-2.316-.132-6.38a.308.308 0 0 0-.298-.311z" fill="#fff"/></svg>