<svg xmlns="http://www.w3.org/2000/svg" height="32" width="32" version="1"><rect width="28.203" height="28.203" x="1.898" y="1.898" ry="5.575" fill="#5b3a2b" fill-rule="evenodd"/><g fill-rule="evenodd"><path d="M9.285 30.102h15.242a5.563 5.563 0 0 0 5.575-5.577V7.473c0-1.26-.49-2.362-1.19-3.293.204.44.455.86.455 1.398 0 .632-.302 1.226-.658 1.611-.356.385-.758.63-1.188.838-.858.416-1.87.676-3.044.895-1.772.33-3.421.447-5.643.574 2.202.257 3.833.509 5.56.79 1.142.184 2.106.374 2.885.612.39.12.732.239 1.09.454.18.107.415.261.613.502.199.24.36.566.383 1.015.025.462-.17.896-.37 1.152a2.06 2.06 0 0 1-.585.51c-.366.226-.705.344-1.096.463-.78.238-1.752.425-2.906.611-2.307.374-3.624.72-6.597 1.104-2.974.385-6.24.813-8.315 1.31-.636.153-.962.302-1.39.456.5.233.977.466 1.724.734 1.855.664 4.724 1.34 7.254 1.937.134-.034.237-.089.371-.123 1.51-.379 2.595-.618 3.61-.757 1.014-.14 1.956-.18 3.18-.157 1.223.024 2.316.164 3.292.65.488.244.944.567 1.28.98a2.366 2.366 0 0 1 .548 1.6c-.035.663-.474 1.086-.914 1.397-.44.312-.874.439-1.322.532-.896.185-1.903.191-3.082.12-2.358-.14-3.66-.432-6.65-1.097-.09-.02-.157-.05-.247-.07-2.486.68-5.323 1.476-7.162 2.277-1.057.46-1.924.914-2.45 1.266-.166.11-.224.169-.311.244.08.523.365.952.826 1.324.545.441 1.1.656 1.1.656.055.022.08.086.132.114z" fill="#5b3a2b"/><path d="M19.72 1.898H7.476a5.563 5.563 0 0 0-5.577 5.575v17.052c0 1.946 1.047 3.57 2.55 4.567-.144-.448-.256-.922-.239-1.455.023-.72.365-1.15.666-1.479.301-.328.637-.587 1.023-.845.774-.517 1.754-1.014 2.91-1.518.826-.36 2.003-.64 2.971-.988-.96-.287-2.13-.533-2.945-.825-1.142-.408-2.104-.807-2.867-1.23-.382-.211-.713-.421-1.028-.713-.293-.272-.655-.696-.699-1.406-.055-.61.17-1.236.487-1.615.34-.41.724-.652 1.132-.866.817-.428 1.792-.722 2.948-1 2.31-.554 5.624-.979 8.625-1.367 2.295-.297 2.648-.563 4.58-.834-1.896-.261-2.203-.52-4.451-.781-2.949-.343-6.217-.695-8.497-1.113-1.14-.21-2.102-.426-2.892-.713-.395-.144-.747-.293-1.111-.563a2.296 2.296 0 0 1-.57-.607 1.785 1.785 0 0 1-.284-1.006c.01-.411.188-.598.465-.68.277-.081.655-.056 1.066-.04 0 0 6.173.22 11.994.005 1.201-.047 2.707-.076 4.223-.34a11.944 11.944 0 0 0 2.244-.601 7.77 7.77 0 0 0 2.04-1.137c.004-.002 0-.003.005-.006-.071-.216-.184-.524-.842-1.012-.793-.588-1.994-1.187-3.216-1.677-1.2-.481-1.575-.523-2.465-.782z" fill="#5b3a2b"/><path d="M19.72 1.898c.891.259 1.267.301 2.466.782 1.222.49 2.423 1.089 3.216 1.677.658.488.77.796.842 1.012-.005.003 0 .004-.006.006A7.77 7.77 0 0 1 24.2 6.512c-.726.28-1.486.47-2.244.601-1.516.264-3.022.293-4.223.34-5.821.214-11.994-.006-11.994-.006-.41-.015-.789-.04-1.066.041-.277.082-.455.269-.465.68-.01.4.113.736.283 1.006.17.27.388.472.57.607.365.27.717.42 1.112.563.79.287 1.753.503 2.892.713 2.28.418 5.548.77 8.497 1.113 2.247.261 2.555.52 4.45.781-1.931.27-2.284.537-4.58.834-3 .388-6.314.813-8.624 1.367-1.156.278-2.13.572-2.948 1-.408.214-.792.457-1.132.866-.317.379-.542 1.006-.487 1.615.044.71.406 1.134.7 1.406.314.292.645.502 1.027.713.763.423 1.725.822 2.867 1.23.815.292 1.985.538 2.945.825-.969.348-2.145.628-2.97.988-1.157.504-2.137 1-2.91 1.518-.387.258-.723.517-1.024.845-.301.328-.643.758-.666 1.479-.017.533.095 1.007.238 1.455.883.586 1.884 1.01 3.028 1.01h1.81c-.052-.028-.077-.092-.133-.114 0 0-.554-.215-1.1-.656-.46-.372-.744-.801-.825-1.324.087-.075.145-.134.31-.244.527-.352 1.394-.805 2.451-1.266 1.84-.801 4.676-1.598 7.162-2.277.09.02.157.05.246.07 2.99.665 4.293.956 6.65 1.098 1.18.07 2.188.064 3.083-.121.448-.093.882-.22 1.322-.532.44-.311.879-.734.914-1.396l.002-.08a2.366 2.366 0 0 0-.55-1.522c-.336-.412-.792-.735-1.28-.978-.976-.487-2.07-.627-3.293-.65-1.223-.024-2.165.016-3.18.156-1.014.139-2.1.378-3.609.757-.134.034-.237.089-.371.123-2.53-.596-5.4-1.273-7.254-1.937-.747-.268-1.225-.501-1.725-.734.429-.154.755-.303 1.391-.455 2.075-.498 5.34-.926 8.315-1.311 2.973-.385 4.29-.73 6.597-1.104 1.154-.186 2.125-.373 2.906-.61.391-.12.73-.238 1.096-.464a2.06 2.06 0 0 0 .584-.51c.2-.256.396-.69.371-1.152a1.688 1.688 0 0 0-.383-1.015 2.309 2.309 0 0 0-.613-.502c-.358-.215-.7-.334-1.09-.454-.779-.238-1.743-.428-2.884-.613-1.728-.28-3.36-.532-5.561-.789 2.222-.127 3.87-.245 5.643-.574 1.174-.219 2.186-.48 3.044-.895.43-.207.832-.453 1.188-.838.356-.385.658-.98.658-1.61 0-.54-.251-.958-.455-1.4-1.015-1.351-2.556-2.28-4.385-2.28z" fill="#f19037"/></g></svg>