<svg xmlns="http://www.w3.org/2000/svg" height="32" width="32" version="1"><rect width="28.203" height="28.203" x="1.898" y="1.898" ry="5.575" fill="#86316b" fill-rule="evenodd"/><path d="M11.5 11.5l8-3 4 5-3 9-7 1-5-4zM16.5 18.5l3-10M16.5 18.5l-5-7M16.5 18.5l-8 1M16.5 18.5l4 4M16.5 18.5l-3 5M16.5 18.5l7-5" fill="none" stroke="#fff"/><circle cy="8.5" cx="19.5" r="1.5" fill="#fff"/><circle cy="13.5" cx="23.5" r="1.5" fill="#fff"/><circle cy="22.5" cx="20.5" r="1.5" fill="#fff"/><circle cy="23.5" cx="13.5" r="1.5" fill="#fff"/><circle cy="19.5" cx="8.5" r="1.5" fill="#fff"/><circle cy="11.5" cx="11.5" r="1.5" fill="#fff"/><circle cy="18.5" cx="16.5" r="1.5" fill="#fff"/></svg>