<svg xmlns="http://www.w3.org/2000/svg" height="32" width="32" version="1"><rect width="28.203" height="28.203" x="1.898" y="1.898" ry="5.575" fill="#007eff" fill-rule="evenodd"/><g stroke-width="1.404"><path d="M16 10.658A5.342 5.342 0 0 0 10.658 16 5.342 5.342 0 0 0 16 21.342 5.342 5.342 0 0 0 21.342 16 5.342 5.342 0 0 0 16 10.658zm0 3.205a2.137 2.137 0 1 1 0 4.274 2.137 2.137 0 0 1 0-4.274z" fill="#858585"/><path d="M16 5.316A10.66 10.66 0 0 0 5.316 16 10.66 10.66 0 0 0 16 26.684 10.66 10.66 0 0 0 26.684 16 10.66 10.66 0 0 0 16 5.316zm0 6.41A4.274 4.274 0 0 1 20.274 16 4.274 4.274 0 0 1 16 20.274 4.274 4.274 0 0 1 11.726 16 4.274 4.274 0 0 1 16 11.726z" fill="#ccc"/></g><path d="M23.614 15.986c-1.272 1.78-5.595 6.804-3.753 9.708 1.424 2.246 6.267 2.257 7.675 0 1.833-2.938-2.838-7.928-3.92-9.708z" fill="#ff9f26"/><circle cx="16" cy="16" r="2.368" fill="#fff"/></svg>