<svg xmlns="http://www.w3.org/2000/svg" height="32" width="32" version="1"><rect width="28.203" height="28.203" x="1.898" y="1.898" ry="5.575" fill="#f57635" fill-rule="evenodd"/><path d="M17.035 10c-2.096.003-4.01 1.148-4.939 2.955a2.85 2.85 0 0 0-1.268-.301c-1.523 0-2.76 1.189-2.76 2.655.001.092.007.185.018.277A3.298 3.298 0 0 0 6 18.682C6 20.52 7.436 22 9.22 22h12.873c.287 0 .56-.051.826-.123 1.787-.328 3.08-1.831 3.082-3.582-.001-1.909-1.532-3.494-3.51-3.637l.012-.012c-.347-2.652-2.688-4.643-5.467-4.646zM16 13l2 2 2 2h-3v4h-2v-4h-3l2-2z" fill="#fff"/></svg>