<svg xmlns="http://www.w3.org/2000/svg" height="32" width="32" version="1"><rect width="28.203" height="28.203" x="1.898" y="1.898" ry="5.575" fill="#3c6290" fill-rule="evenodd"/><path d="M21.545 5.49a2.058 2.058 0 0 0-1.398.526c-.674.616-.838 1.664-.388 2.472.253.454.9.897 1.431.978 1.208.185 2.316-.761 2.316-1.979 0-.756-.5-1.529-1.187-1.833a1.954 1.954 0 0 0-.774-.164z" fill="#fff"/><path d="M12.506 13.49l2.6-3h4.9l3 3 2.5-3" fill="none" stroke="#fff" stroke-width="2" stroke-linecap="round" stroke-linejoin="round"/><path d="M7.006 18.99h5.3l2.7-3 4 3-1 6" fill="none" stroke="#fff" stroke-width="3" stroke-linecap="round" stroke-linejoin="round"/><path fill="#fff" d="M13.206 15.77l5.005-6.195 3.051 2.314-5.006 6.196z"/></svg>