<svg xmlns="http://www.w3.org/2000/svg" height="32" width="32" version="1"><rect width="28.203" height="28.203" x="1.898" y="1.898" ry="5.575" fill="#1ed760" fill-rule="evenodd"/><path d="M14.057 10c-1.696 0-3.336.174-4.734.52-.718.18-.772.2-.971.368a.907.907 0 0 0-.352.76c0 .405.193.717.557.896.299.147.492.142 1.144-.023.659-.167 1.593-.327 2.411-.414.832-.088 3.457-.074 4.297.023 2.276.263 3.898.696 5.469 1.459.402.195.8.37.885.39.45.103.985-.172 1.172-.601.093-.214.085-.607-.016-.818-.123-.26-.376-.447-1.05-.774a16.338 16.338 0 0 0-3.744-1.265A24.55 24.55 0 0 0 14.057 10zm-.679 4.004a9.468 9.468 0 0 0-.738.032c-1.14.116-2.621.43-3.091.657-.495.239-.67 1.008-.365 1.5.117.19.466.399.664.399.075 0 .434-.084.8-.185 1.066-.295 1.78-.392 3.08-.417.844-.016 1.585-.002 2.077.055 2.089.241 3.924.652 5.695 1.695.244.143.496.26.56.26.528-.001.986-.652.896-1.178-.079-.459-.276-.65-1.182-1.156-1.5-.837-3.447-1.274-5.404-1.562-.336-.05-1.018-.082-1.703-.096a49.506 49.506 0 0 0-1.289-.004zm1.111 4a6.07 6.07 0 0 0-.59.032c-.913.115-2.098.43-2.475.657-.395.239-.535 1.008-.291 1.5.093.19.372.399.53.399.06 0 .35-.084.642-.185.852-.295 1.422-.392 2.463-.417.675-.016.682-.002 1.076.055 1.67.241 2.598.652 4.015 1.695.195.143.399.26.45.26.423-.001.787-.553.714-1.078-.063-.46-.218-.65-.942-1.156-1.2-.837-2.218-1.374-3.784-1.662-.268-.05-.814-.083-1.362-.096-.274-.007-.204-.009-.446-.004z" fill="#fff"/></svg>