<svg xmlns="http://www.w3.org/2000/svg" height="32" width="32"><rect width="28.203" height="28.203" x="1.898" y="1.898" ry="5.575" fill="#007eff" fill-rule="evenodd"/><path d="M16 16a10.105 5.053 0 0 0-10.105 5.053A10.105 5.053 0 0 0 16 26.105a10.105 5.053 0 0 0 10.105-5.052A10.105 5.053 0 0 0 16 16z" fill="#696969"/><path d="M16 10.947A10.105 5.053 0 0 0 5.895 16 10.105 5.053 0 0 0 16 21.053 10.105 5.053 0 0 0 26.105 16 10.105 5.053 0 0 0 16 10.947z" fill="#919191"/><path d="M16 5.895a10.105 5.053 0 0 0-10.105 5.052A10.105 5.053 0 0 0 16 16a10.105 5.053 0 0 0 10.105-5.053A10.105 5.053 0 0 0 16 5.895z" fill="#ccc"/></svg>