<svg xmlns="http://www.w3.org/2000/svg" height="32" width="32" version="1"><rect width="28.203" height="28.203" x="1.898" y="1.898" ry="5.575" fill="#3c5771" fill-rule="evenodd"/><g transform="translate(42.132 -1)"><path d="M-26.132 5.421a1.5 1.5 0 0 0-1.5 1.5 1.5 1.5 0 0 0 1.5 1.5 1.5 1.5 0 0 0 1.5-1.5 1.5 1.5 0 0 0-1.5-1.5zm-6.035 2a1.5 1.5 0 0 0-.715.2 1.5 1.5 0 0 0-.548 2.05 1.5 1.5 0 0 0 2.048.549 1.5 1.5 0 0 0 .55-2.049 1.5 1.5 0 0 0-1.335-.75zm12.07 0a1.5 1.5 0 0 0-1.333.75 1.5 1.5 0 0 0 .548 2.049 1.5 1.5 0 0 0 2.05-.549 1.5 1.5 0 0 0-.55-2.05 1.5 1.5 0 0 0-.714-.2zm-15.997 4a1.5 1.5 0 0 0-.108.002 1.5 1.5 0 0 0-1.228.748 1.5 1.5 0 0 0 .55 2.049 1.5 1.5 0 0 0 2.05-.549 1.5 1.5 0 0 0-.55-2.049 1.5 1.5 0 0 0-.714-.2zm19.925 0a1.5 1.5 0 0 0-.715.201 1.5 1.5 0 0 0-.548 2.05 1.5 1.5 0 0 0 2.048.548 1.5 1.5 0 0 0 .551-2.049 1.5 1.5 0 0 0-1.228-.748 1.5 1.5 0 0 0-.108-.002zm-20.963 6a1.5 1.5 0 0 0-1.5 1.5 1.5 1.5 0 0 0 1.5 1.5 1.5 1.5 0 0 0 1.5-1.5 1.5 1.5 0 0 0-1.5-1.5zm22 0a1.5 1.5 0 0 0-1.5 1.5 1.5 1.5 0 0 0 1.5 1.5 1.5 1.5 0 0 0 1.5-1.5 1.5 1.5 0 0 0-1.5-1.5zm-20.035 5a1.5 1.5 0 0 0-.713.201 1.5 1.5 0 0 0-.55 2.05 1.5 1.5 0 0 0 2.05.548 1.5 1.5 0 0 0 .55-2.049 1.5 1.5 0 0 0-1.337-.75zm17.963 0a1.5 1.5 0 0 0-1.228.75 1.5 1.5 0 0 0 .548 2.049 1.5 1.5 0 0 0 2.051-.549 1.5 1.5 0 0 0-.55-2.049 1.5 1.5 0 0 0-.713-.2 1.5 1.5 0 0 0-.108 0z" fill="#64dedc"/><path d="M-17.438 20.25l-8.116-.621.777-2.898z" fill="#f0f2f7"/><circle transform="rotate(105)" cx="24.073" cy="20.603" r="2.5" fill="#24303e"/></g></svg>