<svg xmlns="http://www.w3.org/2000/svg" height="32" width="32" version="1"><rect width="28.203" height="28.203" x="1.898" y="1.898" ry="5.575" fill="#ccc" fill-rule="evenodd"/><g transform="translate(32.95 6.237)"><path d="M-22.222 4.797a3.39 3.39 0 0 0-2.938 1.695 3.39 3.39 0 0 0 0 3.389 3.39 3.39 0 0 0 2.051 1.574 3.39 3.39 0 0 0 .283.064 3.39 3.39 0 0 0 .194.032 3.39 3.39 0 0 0 .091.011 3.39 3.39 0 0 0 2.053-.431 3.39 3.39 0 0 0 1.696-2.936h-3.43z" fill="#ff5e42"/><rect ry=".653" y="5.582" x="-16.995" height="1.307" width="8.711" fill="#666"/><rect ry=".653" y="9.502" x="-16.995" height="1.307" width="8.711" fill="#666"/><rect ry=".653" y="13.422" x="-24.835" height="1.307" width="13.073" fill="#666"/></g></svg>