<svg xmlns="http://www.w3.org/2000/svg" height="32" width="32" version="1"><rect width="28.203" height="28.203" x="1.898" y="1.898" ry="5.575" fill="#f2f2f2" fill-rule="evenodd"/><path d="M16 5.368c.993.015 1.7.613 2.033 1.602l-.012-.044 1.56 4.518h5.293c.628.02 1.194.389 1.594.875L16 16z" fill="#f74545"/><path d="M22.91 26.075l.014-.012a2.112 2.112 0 0 0 .602-2.203l-.005-.017-1.605-4.986 4.136-3.022c1.096-.739 1.278-2.526.415-3.516L16 16s6.924 10.063 6.91 10.075z" fill="#707070"/><path d="M9.076 26.063l.014.012a2.13 2.13 0 0 0 2.667.165L16 23.214l4.243 3.026.047.032a2.13 2.13 0 0 0 2.62-.197l.014-.012L16 16z" fill="#7b4188"/><path d="M16 5.368c-.993.015-1.7.613-2.033 1.602l.012-.044-1.56 4.518H7.127c-.628.02-1.194.389-1.593.875L16 16z" fill="#ff9d45"/><path d="M9.09 26.075l-.014-.012a2.112 2.112 0 0 1-.602-2.203l.005-.017 1.605-4.986-4.136-3.022c-1.096-.739-1.278-2.526-.415-3.516L16 16S9.076 26.063 9.09 26.075z" fill="#ffd945"/></svg>