<svg xmlns="http://www.w3.org/2000/svg" height="32" width="32"><rect width="28.203" height="28.203" x="1.898" y="1.898" ry="5.575" fill="#7767c0" fill-rule="evenodd"/><path d="M18.726 4.614l-1.49 2.256a6.5 6.5 0 0 0-.844-.063 6.5 6.5 0 0 0-2.491.498l-2.02-1.79.544 2.653a6.5 6.5 0 0 0-1.414 1.515 22 22 0 0 0-7.62-1.376 22 22 0 0 0-1.5.075v1.037a21.5 21.5 0 0 1 2-.112 21.5 21.5 0 0 1 21.46 20.5h.015a22 22 0 0 0-4.074-12.255 6.5 6.5 0 0 0 1.086-1.728l2.726-.163-2.277-1.503a6.5 6.5 0 0 0 .065-.851 6.5 6.5 0 0 0-.488-2.463l1.799-2.027-2.657.543a6.5 6.5 0 0 0-2.658-2.05zm-2.334 3.193a5.5 5.5 0 0 1 5.5 5.5 5.5 5.5 0 0 1-1.225 3.446 22 22 0 0 0-8.718-6.675 5.5 5.5 0 0 1 4.443-2.271z" fill="#fff"/></svg>