<svg xmlns="http://www.w3.org/2000/svg" height="32" width="32" version="1"><rect width="28.203" height="28.203" x="1.898" y="1.898" ry="5.575" fill="#62c1ec" fill-rule="evenodd"/><path d="M16 7.79c-3.188 0-5.903 1.892-7.072 4.571-2.968.428-5.244 2.881-5.244 5.878 0 3.298 2.757 5.972 6.158 5.972h13.086c2.976 0 5.388-2.34 5.388-5.226 0-2.681-2.08-4.88-4.763-5.177-.7-3.424-3.817-6.019-7.553-6.019z" fill="#fff"/><path d="M13.537 12.716v4.105h-1.642l2.052 2.053L16 20.926l2.053-2.052 2.052-2.053h-1.642v-4.105z" fill="#62c1ec"/></svg>