<svg xmlns="http://www.w3.org/2000/svg" height="32" width="32" version="1"><rect width="28.203" height="28.203" x="1.898" y="1.898" ry="5.575" fill="#324b6c" fill-rule="evenodd"/><g transform="translate(4)" fill="#fff"><path d="M11 17a3 3 0 0 0-3 3 3 3 0 0 0 3 3 3 3 0 0 0 3-3 3 3 0 0 0-3-3zm0 1a2 2 0 0 1 2 2 2 2 0 0 1-2 2 2 2 0 0 1-2-2 2 2 0 0 1 2-2zM18 9a4 4 0 0 0-4 4 4 4 0 0 0 4 4 4 4 0 0 0 4-4 4 4 0 0 0-4-4zm0 1a3 3 0 0 1 3 3 3 3 0 0 1-3 3 3 3 0 0 1-3-3 3 3 0 0 1 3-3z"/><path d="M10.964 17.2l3.5-4.798.905 2.855 3.167 1.099-4.873 3.604-1.123-1.628zM2.094 14.422A14.233 14.233 0 0 0 2 16c0 .566.043 1.12.107 1.668l7.854 3.219a1.497 1.497 0 0 0 1.957-.819 1.497 1.497 0 0 0-.818-1.957z"/><circle r="2" cy="13" cx="18"/></g></svg>