<svg xmlns="http://www.w3.org/2000/svg" height="32" width="32" version="1"><rect width="28.203" height="28.203" x="1.898" y="1.898" ry="5.575" fill="#276ed6" fill-rule="evenodd"/><path d="M15.602 5.246c-.968 0-1.9.142-2.788.388a10.324 10.324 0 0 1 7.567 9.968c0 4.769-3.195 8.755-7.567 9.968a10.333 10.333 0 0 0 13.143-9.968A10.333 10.333 0 0 0 15.602 5.247z" fill="#ffc947"/><path d="M10.424 17.195l1.354 2.622 3.027.42-2.19 2.042.517 2.882-2.708-1.361-2.708 1.36.517-2.881-2.19-2.041 3.027-.42z" fill="#478aff"/><path d="M14.407 12.416l1.107 2.097 2.477.337-1.792 1.633.423 2.305-2.215-1.088-2.216 1.088.423-2.305-1.792-1.633 2.477-.337z" fill="#6fa4ff"/><path d="M11.619 9.23l.738 1.31 1.652.21-1.195 1.021.282 1.441-1.477-.68-1.477.68.282-1.44-1.195-1.021 1.651-.21z" fill="#90b9ff"/><path d="M14.216 6.14c-.478.065-.947.164-1.402.29a10.318 10.318 0 0 1 7.55 9.57c.005-.133.017-.264.017-.398 0-4.242-2.53-7.86-6.165-9.463zm-4.175 5.304l-.812.103 1.061.907.134-.683zm3.155 0l-.382.327.134.683 1.06-.907-.812-.103zm-1.577 1.088l-1.305.6-.172.877 1.477-.68 1.477.68-.172-.877zm-.036 3.01l-.76.105 1.666 1.518.126-.683zm5.648 0l-1.032.94.126.683 1.666-1.518zm8.706.458a10.324 10.324 0 0 1-11.721 9.86c-.452.2-.919.372-1.402.507a10.333 10.333 0 0 0 13.143-9.968c0-.135-.015-.266-.02-.399zm-11.53 1.7l-2.055 1.008-.16.877 2.215-1.09 2.215 1.09-.16-.877zm-7.62 3.23l-.744.104 2.068 1.928.122-.683zm7.274 0l-1.446 1.35.122.682 2.068-1.928zm-3.637 2.87l-2.55 1.28-.157.877 2.707-1.361 2.707 1.361-.058-.323c-.086-.023-.174-.04-.26-.064.08-.022.157-.053.236-.076l-.075-.413z" fill-opacity=".157"/></svg>