<svg xmlns="http://www.w3.org/2000/svg" height="32" width="32" version="1"><rect width="28.203" height="28.203" x="1.898" y="1.898" ry="5.575" fill="#63c4ad" fill-rule="evenodd"/><path d="M11 10v1h1.555l-2.389 5.094A2.5 2.5 0 0 0 9.5 16 2.5 2.5 0 0 0 7 18.5 2.5 2.5 0 0 0 9.5 21a2.5 2.5 0 0 0 2.5-2.5 2.5 2.5 0 0 0-.943-1.953L13.658 11H17v6.055a2.5 2.5 0 0 0-2 2.445 2.5 2.5 0 0 0 2.5 2.5 2.5 2.5 0 0 0 2.5-2.5 2.5 2.5 0 0 0-2-2.449V11h4v6.055a2.5 2.5 0 0 0-2 2.445 2.5 2.5 0 0 0 2.5 2.5 2.5 2.5 0 0 0 2.5-2.5 2.5 2.5 0 0 0-2-2.449V11h2v-1z" fill="#fff"/></svg>