<svg xmlns="http://www.w3.org/2000/svg" height="32" width="32" version="1"><rect width="28.203" height="28.203" x="1.898" y="1.898" ry="5.575" fill="#050505" fill-opacity=".2" fill-rule="evenodd"/><path d="M16 5.18c-.567 0-1.134.21-1.558.634l-8.628 8.629a2.224 2.224 0 0 0 .001 3.113l8.628 8.629c.848.847 2.267.848 3.114 0l8.628-8.628a2.225 2.225 0 0 0 0-3.114l-8.628-8.629A2.197 2.197 0 0 0 16 5.18z" fill="#67428d"/><path d="M16.716 15.704v.046c1.88.241 2.89 1.132 2.89 2.673 0 1.04-.358 1.858-1.076 2.457-.719.594-1.757.891-3.116.891-1.26 0-2.266-.202-3.02-.606v-1.306a6.468 6.468 0 0 0 2.99.737c1.842 0 2.763-.74 2.763-2.22 0-1.32-.991-1.98-2.975-1.98h-.615v-1.117h.615c.833 0 1.262-.238 1.72-.627.458-.389.687-.903.687-1.543 0-.522-.177-.935-.53-1.237-.355-.307-.828-.46-1.422-.46-.926 0-1.605.31-2.469.929l-.719-.96c.974-.768 1.892-1.152 3.188-1.152 1.072 0 1.753.253 2.351.76.604.507.906 1.183.906 2.027 0 .707-.07 1.298-.496 1.774-.427.477-.88.781-1.672.914z" fill="#8b93ff" stroke-width="1.386"/></svg>