<svg xmlns="http://www.w3.org/2000/svg" height="32" width="32" version="1"><rect width="28.203" height="28.203" x="1.898" y="1.898" ry="5.575" fill="#3c8cf8" fill-rule="evenodd"/><path d="M23.973 6.645l-10.849 2.5c-1.529.193-1.47 1.76-1.47 1.76V17.58a3.984 3.984 0 0 0-1.087-.156 3.985 3.985 0 1 0 3.966 4.347h.018V11.743l7.97-1.895v5.559a3.985 3.985 0 0 0-1.088-.156 3.985 3.985 0 1 0 3.967 4.347h.018V8.006s.019-1.67-1.445-1.361z" fill="#fff"/><g transform="matrix(.75 0 0 .75 4.097 4.747)" stroke-width="1.333"><circle r="8" cy="23" cx="24" fill="#f5c839"/><path d="M21 18v2h-2v2h2v2h-2v2h2v2h2v-2h2v2h2v-2h2v-2h-2v-2h2v-2h-2v-2h-2v2h-2v-2zm2 4h2v2h-2z" fill="#fff"/></g></svg>