<svg xmlns="http://www.w3.org/2000/svg" height="32" width="32" version="1"><rect width="28.203" height="28.203" x="1.898" y="1.898" ry="5.575" fill="#ffc04b" fill-rule="evenodd"/><path d="M6.527 6.485c-.656 0-1.184.676-1.184 1.332v13.321c0 .656.529 1.307 1.184 1.332h9.853l2.664 3.045 2.665-3.045h3.763c.656 0 1.185-.676 1.185-1.332V7.818c0-.657-.529-1.333-1.185-1.333z" fill="#4f4f4f"/><g fill="#ffc04b" stroke-width="1.314"><path d="M11.433 11.052v-.761h9.134v.761zM11.433 13.336v-.761h9.134v.76zM11.433 15.62v-.762h9.134v.761zM11.433 17.903v-.761h6.09v.761z"/></g></svg>