<svg xmlns="http://www.w3.org/2000/svg" height="32" width="32"><rect width="28.203" height="28.203" x="1.898" y="1.898" ry="5.575" fill="#c79027" fill-rule="evenodd"/><rect rx=".647" ry=".965" height="5.525" width="1.381" y="9.781" x="10.475" fill="#41b941"/><path d="M15.033 9.788c-.535 0-1.105.427-1.105.956v1.117c-1.794.567-2.97 2.15-3.453 3.107-.483-.957-3.453-1.382-3.453-1.382v2.417h-.69v2.763h.69v2.072c-.019 0 2.97-.425 3.453-1.382.484.957 3.108 2.763 6.975 2.763 3.868 0 8.218-2.09 8.218-5.26-.004-2.251-1.895-4.173-4.834-5.1v-1.115a.96.96 0 0 0-.967-.956z" fill="#ffca1d"/><circle r="1.381" cx="17.381" cy="16.694" fill="#fff"/><circle r="1.381" cx="20.834" cy="16.694" fill="#fff"/><circle r="1.381" cx="13.928" cy="16.694" fill="#fff"/><path d="M10.475 14.968c-.483-.957-3.453-1.382-3.453-1.382v2.417h-.69v2.763h.69v2.072c-.019 0 2.97-.425 3.453-1.382z" fill="none"/></svg>