<svg xmlns="http://www.w3.org/2000/svg" height="32" width="32" version="1"><rect width="28.203" height="28.203" x="1.898" y="1.898" ry="5.575" fill="#9dc1b4" fill-rule="evenodd"/><path d="M25.032 6.927c.626 0 1.13.645 1.13 1.27V20.9c0 .626-.505 1.246-1.13 1.27h-9.395l-2.54 2.904-2.54-2.904H6.968c-.626 0-1.13-.644-1.13-1.27V8.197c0-.625.504-1.27 1.13-1.27z" fill="#3a8268"/><g fill="#9dc1b4" stroke-width="1.378"><path d="M11.645 11.282v-.726h8.71v.726zM11.645 13.46v-.726h8.71v.726zM11.645 15.637v-.726h8.71v.726zM11.645 17.815v-.726h5.807v.726z"/></g><g transform="translate(42.775 -.361) scale(1.03332)" stroke-width=".968"><circle r="5.807" cy="21.611" cx="-20.307" fill="#772bbe" fill-rule="evenodd"/><path d="M-23.21 23.221v1.294h1.293l3.266-3.267-1.293-1.293zm5.703-3.113a.343.343 0 0 0 0-.489l-.808-.808a.343.343 0 0 0-.49 0l-.675.68 1.293 1.293z" fill="#fff"/></g></svg>