<svg xmlns="http://www.w3.org/2000/svg" height="32" width="32" version="1"><rect width="28.203" height="28.203" x="1.898" y="1.898" ry="5.575" fill="#d99800" fill-rule="evenodd"/><g transform="translate(2.493 2.494) scale(.84413)" stroke-width="1.185"><path d="M16 3l-3.808 3.808H6.808v5.384L3 16l3.808 3.808v5.385h5.385L16 29l3.807-3.808h5.385v-5.385L29 16l-3.808-3.807V6.808H19.81L16 3z" fill="#fec006"/><path d="M11.025 3.99L8.963 8.963 3.99 11.026 6.049 16l-2.06 4.975 4.974 2.062 2.062 4.974L16 25.951l4.974 2.06 2.062-4.974 4.975-2.062-2.06-4.976 2.059-4.975-4.974-2.062-2.062-4.974-4.975 2.06-4.974-2.06z" fill="#fecd38"/><rect x="-26" y="-26" width="20" height="20" ry="10" rx="10" transform="matrix(0 -1 -1 0 0 0)" fill="#4d4d4d"/></g></svg>