<svg xmlns="http://www.w3.org/2000/svg" height="32" width="32" version="1"><g transform="translate(58.21 6.842)"><path d="M-50.736-4.943A5.563 5.563 0 0 0-56.313.63v17.053c0 .173.083.319.098.488.03-.321.135-.627.354-.842a1.37 1.37 0 0 1 .965-.394h1.302c.378 0 .719.151.965.394.247.243.399.58.399.951v1.678c0-.696.29-1.358.808-1.961.519-.603 1.267-1.146 2.186-1.602.918-.455 2.007-.825 3.207-1.08 1.2-.255 2.511-.394 3.875-.394 1.363 0 2.675.14 3.875.394 1.2.255 2.288.625 3.207 1.08.918.456 1.667 1 2.185 1.602.518.601.806 1.263.807 1.957v-1.674c0-.372.152-.708.398-.95.246-.244.586-.395.963-.395h1.305c.378 0 .718.151.965.394.17.169.216.421.277.66.006-.107.063-.198.063-.306V.63a5.561 5.561 0 0 0-5.575-5.574z" fill="#fecd38" fill-rule="evenodd"/><path d="M-42.153-3.214c-5.208 0-9.43 4.114-9.43 9.19 0 .893.136 1.754.38 2.57 0 0-1.443 5.14-.978 7.676.136.739.414 1.45.783 2.12 1.434-1.933 5.12-3.217 9.244-3.22 4.121.001 7.808 1.283 9.246 3.214.367-.668.646-1.378.781-2.114.466-2.537-.978-7.676-.978-7.676.246-.816.38-1.677.38-2.57.001-5.076-4.218-9.19-9.427-9.19z" fill="#4f4f4f" stroke-width=".993"/><circle r="2.015" cx="-47.192" cy="3.839" fill="#fff"/><circle r="2.015" cx="-37.117" cy="3.839" fill="#fff"/><ellipse cx="-42.154" cy="14.417" ry="7.758" rx="7.053" fill="#fff"/><circle r="1.008" cx="-47.192" cy="3.839" fill="#303030"/><circle r="1.008" cx="-37.117" cy="3.839" fill="#303030"/><path d="M-44.17 4.846h4.03c-.322 3.105-2.014 6.045-2.014 6.045s-2.015-3.49-2.015-6.045z" fill="#cd5252"/><path d="M-42.154 10.891a4.03 4.03 0 0 0-4.03 4.03 4.03 4.03 0 0 0 4.03 4.03 4.03 4.03 0 0 0 4.03-4.03 4.03 4.03 0 0 0-4.03-4.03zm0 1.612a2.418 2.418 0 0 1 1.57.581l-1.57.907-1.57-.906a2.418 2.418 0 0 1 1.57-.582zm2.377 1.976a2.418 2.418 0 0 1 .041.442 2.418 2.418 0 0 1-1.612 2.278v-1.813l1.571-.907zm-4.753.001l1.57.906v1.812a2.418 2.418 0 0 1-1.612-2.276 2.418 2.418 0 0 1 .042-.442z" fill="#303030"/><ellipse cx="-33.873" cy="-26.818" ry="4.427" transform="matrix(.70175 -.71242 .86961 .49374 0 0)" rx="2.504" fill="#4f4f4f"/><ellipse cx="9.218" cy="35.359" ry="4.427" transform="matrix(-.70175 -.71242 -.86961 .49374 0 0)" rx="2.504" fill="#4f4f4f"/><path d="M-32.08 19.955c-.001-.694-.29-1.356-.807-1.957-.518-.603-1.267-1.146-2.185-1.602-.919-.455-2.007-.825-3.207-1.08a18.759 18.759 0 0 0-3.875-.394c-1.364 0-2.675.14-3.875.394-1.2.255-2.289.625-3.207 1.08-.919.456-1.667 1-2.186 1.602-.518.603-.808 1.265-.808 1.961-.003 1.014 0 1.945 0 3 .485.137.963.3 1.494.3h17.052c.57 0 1.087-.164 1.604-.321v-1.971s-.006-.518 0-1.004z" fill="#f5432a" fill-rule="evenodd"/><path d="M-40.475 18.615c-.186 0-.336.3-.336.672v1.342c0 .372.15.672.336.672.186 0 .336-.3.336-.672v-1.342c0-.372-.15-.672-.336-.672z" fill="#fff" fill-rule="evenodd"/><path d="M-40.475 18.615c.187 0 .336.3.336.672v1.342c0 .372-.15.672-.336.672-.186 0-.336-.3-.336-.672v-1.342c0-.372.15-.672.336-.672zM-43.834 18.615c-.186 0-.336.3-.336.672v1.342c0 .372.15.672.336.672.186 0 .336-.3.336-.672v-1.342c0-.372-.15-.672-.336-.672z" fill="#fff" fill-rule="evenodd"/><path d="M-43.834 18.615c.186 0 .336.3.336.672v1.342c0 .372-.15.672-.336.672-.186 0-.336-.3-.336-.672v-1.342c0-.372.15-.672.336-.672zM-42.49 17.943c-.186 0-.336.45-.336 1.008v2.016c0 .558.15 1.008.336 1.008.185 0 .336-.45.336-1.008 0 .558.15 1.008.336 1.008.186 0 .336-.45.336-1.008V18.95c0-.558-.15-1.008-.336-1.008-.186 0-.336.45-.336 1.008 0-.558-.15-1.008-.336-1.008z" fill="#fff" fill-rule="evenodd"/><path d="M-42.49 17.943c.186 0 .336.45.336 1.008 0-.558.15-1.008.336-1.008.186 0 .336.45.336 1.008v2.016c0 .558-.15 1.008-.336 1.008-.186 0-.336-.45-.336-1.008 0 .558-.15 1.008-.336 1.008-.186 0-.336-.45-.336-1.008V18.95c0-.558.15-1.008.336-1.008zM-36.613 18.145a1.511 1.41 0 0 0-.108.003 1.511 1.41 0 0 0-.148.018 1.511 1.41 0 0 0-.149.031 1.511 1.41 0 0 0-.142.043 1.511 1.41 0 0 0-.139.059 1.511 1.41 0 0 0-.13.07 1.511 1.41 0 0 0-.124.082 1.511 1.41 0 0 0-.113.094 1.511 1.41 0 0 0-.104.101 1.511 1.41 0 0 0-.09.114 1.511 1.41 0 0 0-.08.119 1.511 1.41 0 0 0-.066.127 1.511 1.41 0 0 0-.05.133 1.511 1.41 0 0 0-.038.136 1.511 1.41 0 0 0-.023.14 1.511 1.41 0 0 0-.008.142 1.511 1.41 0 0 0 .004.1 1.511 1.41 0 0 0 .02.138 1.511 1.41 0 0 0 .033.139 1.511 1.41 0 0 0 .047.132 1.511 1.41 0 0 0 .062.13 1.511 1.41 0 0 0 .074.122 1.511 1.41 0 0 0 .088.116 1.511 1.41 0 0 0 .1.105 1.511 1.41 0 0 0 .111.096 1.511 1.41 0 0 0 .12.086 1.511 1.41 0 0 0 .128.072 1.511 1.41 0 0 0 .137.062 1.511 1.41 0 0 0 .14.05 1.511 1.41 0 0 0 .147.032 1.511 1.41 0 0 0 .15.022 1.511 1.41 0 0 0 .15.008 1.511 1.41 0 0 0 .108-.004 1.511 1.41 0 0 0 .15-.018 1.511 1.41 0 0 0 .147-.031 1.511 1.41 0 0 0 .145-.043 1.511 1.41 0 0 0 .136-.059 1.511 1.41 0 0 0 .131-.07 1.511 1.41 0 0 0 .123-.082 1.511 1.41 0 0 0 .113-.092 1.511 1.41 0 0 0 .104-.103 1.511 1.41 0 0 0 .092-.113 1.511 1.41 0 0 0 .078-.12 1.511 1.41 0 0 0 .066-.127 1.511 1.41 0 0 0 .051-.132 1.511 1.41 0 0 0 .037-.137 1.511 1.41 0 0 0 .024-.139 1.511 1.41 0 0 0 .007-.14 1.511 1.41 0 0 0-.003-.1 1.511 1.41 0 0 0-.018-.14 1.511 1.41 0 0 0-.033-.14 1.511 1.41 0 0 0-.05-.132 1.511 1.41 0 0 0-.06-.129 1.511 1.41 0 0 0-.076-.123 1.511 1.41 0 0 0-.088-.113 1.511 1.41 0 0 0-.1-.108 1.511 1.41 0 0 0-.109-.095 1.511 1.41 0 0 0-.12-.084 1.511 1.41 0 0 0-.13-.075 1.511 1.41 0 0 0-.136-.062 1.511 1.41 0 0 0-.141-.047 1.511 1.41 0 0 0-.146-.035 1.511 1.41 0 0 0-.15-.022 1.511 1.41 0 0 0-.151-.007z" fill="#fff" fill-rule="evenodd"/><path d="M-36.613 18.145a1.511 1.41 0 0 1 .15.007 1.511 1.41 0 0 1 .15.022 1.511 1.41 0 0 1 .147.035 1.511 1.41 0 0 1 .14.047 1.511 1.41 0 0 1 .137.062 1.511 1.41 0 0 1 .13.075 1.511 1.41 0 0 1 .12.084 1.511 1.41 0 0 1 .11.095 1.511 1.41 0 0 1 .1.108 1.511 1.41 0 0 1 .087.113 1.511 1.41 0 0 1 .076.123 1.511 1.41 0 0 1 .06.129 1.511 1.41 0 0 1 .05.133 1.511 1.41 0 0 1 .033.138 1.511 1.41 0 0 1 .018.141 1.511 1.41 0 0 1 .003.1 1.511 1.41 0 0 1-.007.14 1.511 1.41 0 0 1-.024.139 1.511 1.41 0 0 1-.037.137 1.511 1.41 0 0 1-.05.132 1.511 1.41 0 0 1-.067.127 1.511 1.41 0 0 1-.078.12 1.511 1.41 0 0 1-.092.113 1.511 1.41 0 0 1-.104.103 1.511 1.41 0 0 1-.113.092 1.511 1.41 0 0 1-.123.082 1.511 1.41 0 0 1-.13.07 1.511 1.41 0 0 1-.137.06 1.511 1.41 0 0 1-.145.042 1.511 1.41 0 0 1-.146.031 1.511 1.41 0 0 1-.15.018 1.511 1.41 0 0 1-.108.004 1.511 1.41 0 0 1-.15-.008 1.511 1.41 0 0 1-.151-.022 1.511 1.41 0 0 1-.147-.033 1.511 1.41 0 0 1-.14-.049 1.511 1.41 0 0 1-.137-.062 1.511 1.41 0 0 1-.129-.072 1.511 1.41 0 0 1-.119-.086 1.511 1.41 0 0 1-.111-.096 1.511 1.41 0 0 1-.1-.105 1.511 1.41 0 0 1-.088-.116 1.511 1.41 0 0 1-.074-.123 1.511 1.41 0 0 1-.062-.129 1.511 1.41 0 0 1-.047-.132 1.511 1.41 0 0 1-.034-.14 1.511 1.41 0 0 1-.02-.138 1.511 1.41 0 0 1-.003-.1 1.511 1.41 0 0 1 .008-.142 1.511 1.41 0 0 1 .023-.139 1.511 1.41 0 0 1 .037-.136 1.511 1.41 0 0 1 .051-.133 1.511 1.41 0 0 1 .067-.127 1.511 1.41 0 0 1 .08-.12 1.511 1.41 0 0 1 .09-.113 1.511 1.41 0 0 1 .103-.101 1.511 1.41 0 0 1 .113-.094 1.511 1.41 0 0 1 .123-.082 1.511 1.41 0 0 1 .131-.07 1.511 1.41 0 0 1 .139-.059 1.511 1.41 0 0 1 .142-.043 1.511 1.41 0 0 1 .149-.031 1.511 1.41 0 0 1 .148-.018 1.511 1.41 0 0 1 .108-.003zM-47.786 18.382a1.511 1.41 0 0 1 .15.008 1.511 1.41 0 0 1 .151.021 1.511 1.41 0 0 1 .147.035 1.511 1.41 0 0 1 .14.047 1.511 1.41 0 0 1 .137.063 1.511 1.41 0 0 1 .129.074 1.511 1.41 0 0 1 .121.084 1.511 1.41 0 0 1 .11.096 1.511 1.41 0 0 1 .1.107 1.511 1.41 0 0 1 .087.113 1.511 1.41 0 0 1 .076.123 1.511 1.41 0 0 1 .06.13 1.511 1.41 0 0 1 .05.132 1.511 1.41 0 0 1 .033.139 1.511 1.41 0 0 1 .017.14 1.511 1.41 0 0 1 .004.1 1.511 1.41 0 0 1-.008.14 1.511 1.41 0 0 1-.023.14 1.511 1.41 0 0 1-.037.136 1.511 1.41 0 0 1-.05.133 1.511 1.41 0 0 1-.067.127 1.511 1.41 0 0 1-.078.119 1.511 1.41 0 0 1-.092.113 1.511 1.41 0 0 1-.104.104 1.511 1.41 0 0 1-.113.092 1.511 1.41 0 0 1-.123.082 1.511 1.41 0 0 1-.131.07 1.511 1.41 0 0 1-.137.059 1.511 1.41 0 0 1-.144.042 1.511 1.41 0 0 1-.147.032 1.511 1.41 0 0 1-.15.017 1.511 1.41 0 0 1-.108.004 1.511 1.41 0 0 1-.15-.008 1.511 1.41 0 0 1-.15-.021 1.511 1.41 0 0 1-.147-.033 1.511 1.41 0 0 1-.14-.05 1.511 1.41 0 0 1-.137-.062 1.511 1.41 0 0 1-.13-.072 1.511 1.41 0 0 1-.118-.086 1.511 1.41 0 0 1-.112-.095 1.511 1.41 0 0 1-.1-.106 1.511 1.41 0 0 1-.087-.115 1.511 1.41 0 0 1-.074-.123 1.511 1.41 0 0 1-.063-.13 1.511 1.41 0 0 1-.047-.132 1.511 1.41 0 0 1-.033-.139 1.511 1.41 0 0 1-.02-.138 1.511 1.41 0 0 1-.003-.1 1.511 1.41 0 0 1 .008-.142 1.511 1.41 0 0 1 .023-.14 1.511 1.41 0 0 1 .037-.136 1.511 1.41 0 0 1 .05-.133 1.511 1.41 0 0 1 .067-.127 1.511 1.41 0 0 1 .08-.119 1.511 1.41 0 0 1 .09-.113 1.511 1.41 0 0 1 .104-.102 1.511 1.41 0 0 1 .113-.093 1.511 1.41 0 0 1 .123-.082 1.511 1.41 0 0 1 .13-.07 1.511 1.41 0 0 1 .14-.06 1.511 1.41 0 0 1 .142-.042 1.511 1.41 0 0 1 .149-.032 1.511 1.41 0 0 1 .148-.017 1.511 1.41 0 0 1 .107-.004z" fill="#fff" fill-rule="evenodd"/><path d="M-28.172 17.99c-.06-.239-.106-.491-.277-.66a1.37 1.37 0 0 0-.965-.394h-1.305c-.377 0-.717.151-.963.394-.246.243-.398.58-.398.951v4.657c2.187-.666 3.773-2.573 3.908-4.948zM-52.23 22.959v-4.678a1.33 1.33 0 0 0-.399-.95 1.37 1.37 0 0 0-.965-.395h-1.302a1.37 1.37 0 0 0-.965.394c-.219.215-.324.52-.354.842.211 2.328 1.802 4.17 3.985 4.787z" fill="#303030" fill-rule="evenodd"/></g></svg>