<?xml version="1.0" encoding="UTF-8" standalone="no"?>
<svg
   xmlns:dc="http://purl.org/dc/elements/1.1/"
   xmlns:cc="http://creativecommons.org/ns#"
   xmlns:rdf="http://www.w3.org/1999/02/22-rdf-syntax-ns#"
   xmlns:svg="http://www.w3.org/2000/svg"
   xmlns="http://www.w3.org/2000/svg"
   xmlns:xlink="http://www.w3.org/1999/xlink"
   xmlns:sodipodi="http://sodipodi.sourceforge.net/DTD/sodipodi-0.dtd"
   xmlns:inkscape="http://www.inkscape.org/namespaces/inkscape"
   height="32"
   width="32"
   version="1"
   id="svg37"
   sodipodi:docname="supertux2.svg"
   inkscape:version="0.92.4 5da689c313, 2019-01-14">
  <metadata
     id="metadata41">
    <rdf:RDF>
      <cc:Work
         rdf:about="">
        <dc:format>image/svg+xml</dc:format>
        <dc:type
           rdf:resource="http://purl.org/dc/dcmitype/StillImage" />
      </cc:Work>
    </rdf:RDF>
  </metadata>
  <sodipodi:namedview
     pagecolor="#ffffff"
     bordercolor="#666666"
     borderopacity="1"
     objecttolerance="10"
     gridtolerance="10"
     guidetolerance="10"
     inkscape:pageopacity="0"
     inkscape:pageshadow="2"
     inkscape:window-width="915"
     inkscape:window-height="663"
     id="namedview39"
     showgrid="false"
     inkscape:zoom="11.9375"
     inkscape:cx="23.537546"
     inkscape:cy="16.700458"
     inkscape:window-x="665"
     inkscape:window-y="143"
     inkscape:window-maximized="0"
     inkscape:current-layer="g4567"
     inkscape:snap-global="false"
     showguides="true"
     inkscape:guide-bbox="true" />
  <defs
     id="defs7">
    <linearGradient
       id="linearGradient988">
      <stop
         id="stop984"
         offset="0"
         style="stop-color:#ffb300;stop-opacity:1" />
      <stop
         id="stop986"
         offset="1"
         style="stop-color:#998100;stop-opacity:1" />
    </linearGradient>
    <linearGradient
       id="linearGradient982">
      <stop
         id="stop978"
         offset="0"
         style="stop-color:#ffb300;stop-opacity:1" />
      <stop
         id="stop980"
         offset="1"
         style="stop-color:#998100;stop-opacity:1" />
    </linearGradient>
    <linearGradient
       inkscape:collect="always"
       id="linearGradient974">
      <stop
         style="stop-color:#c0e1ff;stop-opacity:1"
         offset="0"
         id="stop970" />
      <stop
         style="stop-color:#72ade4;stop-opacity:1"
         offset="1"
         id="stop972" />
    </linearGradient>
    <linearGradient
       id="linearGradient968">
      <stop
         id="stop964"
         offset="0"
         style="stop-color:#c0e1ff;stop-opacity:1;" />
      <stop
         id="stop966"
         offset="1"
         style="stop-color:#128dff;stop-opacity:0" />
    </linearGradient>
    <linearGradient
       id="linearGradient4924"
       y2="20.316"
       gradientUnits="userSpaceOnUse"
       y1="18.858"
       x2="16.213"
       x1="12.897"
       gradientTransform="matrix(0.77163247,0,0,0.77163247,3.6538805,3.2680642)">
      <stop
         offset="0"
         id="stop2" />
      <stop
         stop-opacity="0"
         offset="1"
         id="stop4" />
    </linearGradient>
    <linearGradient
       xlink:href="#linearGradient3212"
       id="linearGradient3477"
       gradientUnits="userSpaceOnUse"
       x1="-90.15844"
       y1="485.35376"
       x2="-90.15844"
       y2="695.35144"
       gradientTransform="matrix(0.0624236,0,0,0.0624236,4.3479175,-13.543197)" />
    <linearGradient
       id="linearGradient3212">
      <stop
         style="stop-color:#c0e1ff;stop-opacity:1;"
         offset="0"
         id="stop3214" />
      <stop
         style="stop-color:#128dff;stop-opacity:1;"
         offset="1"
         id="stop3216" />
    </linearGradient>
    <linearGradient
       xlink:href="#linearGradient3224"
       id="linearGradient3479"
       gradientUnits="userSpaceOnUse"
       gradientTransform="matrix(0.05987952,0,0,0.05987952,4.1246795,-12.035006)"
       x1="-194.70923"
       y1="485.85883"
       x2="18.207338"
       y2="698.77539" />
    <linearGradient
       id="linearGradient3224">
      <stop
         id="stop3226"
         offset="0"
         style="stop-color:#bbdfff;stop-opacity:1;" />
      <stop
         id="stop3228"
         offset="1"
         style="stop-color:#47a6ff;stop-opacity:1;" />
    </linearGradient>
    <linearGradient
       id="linearGradient1641">
      <stop
         style="stop-color:#ffb300;stop-opacity:1"
         offset="0"
         id="stop1637" />
      <stop
         style="stop-color:#998100;stop-opacity:1"
         offset="1"
         id="stop1639" />
    </linearGradient>
    <linearGradient
       id="linearGradient1623">
      <stop
         style="stop-color:#696969;stop-opacity:1;"
         offset="0"
         id="stop1619" />
      <stop
         style="stop-color:#696969;stop-opacity:0;"
         offset="1"
         id="stop1621" />
    </linearGradient>
    <linearGradient
       id="linearGradient1677-3">
      <stop
         style="stop-color:#fdfdfd;stop-opacity:1"
         offset="0"
         id="stop1673" />
      <stop
         style="stop-color:#a6a6a6;stop-opacity:1"
         offset="1"
         id="stop1675" />
    </linearGradient>
    <radialGradient
       inkscape:collect="always"
       xlink:href="#linearGradient974"
       id="radialGradient976"
       cx="8.4122963"
       cy="9.420455"
       fx="8.4122963"
       fy="9.420455"
       r="14.101694"
       gradientUnits="userSpaceOnUse"
       gradientTransform="translate(0.04713123,-1.2107253)" />
  </defs>
  <rect
     inkscape:highlight-color="3236036607"
     ry="5.575182"
     y="1.8986118"
     x="1.897"
     height="28.203388"
     width="28.203388"
     id="rect4497-3"
     style="opacity:1;fill:url(#radialGradient976);fill-opacity:1;fill-rule:evenodd;stroke:none;stroke-width:1.03534329;stroke-linecap:round;stroke-linejoin:bevel;stroke-miterlimit:4;stroke-dasharray:none;stroke-dashoffset:0;stroke-opacity:1" />
  <g
     id="g958"
     transform="translate(30.575455,19.308645)">
    <path
       sodipodi:nodetypes="cccscscscssccc"
       id="path4525-3"
       d="m -11.258533,1.2503844 c -4.916542,0.448879 -8.67453,3.1426187 -14.4375,2.8476567 -1.178586,-0.107742 -2.150999,-0.334324 -2.982422,-0.646485 v 1.767578 c 0,0.630642 0.09967,1.234495 0.291016,1.798828 0.938884,-0.499681 1.936949,-0.922758 2.861328,-1.15039 1.042639,-0.256754 2.081904,-0.364996 3.126953,-0.376953 2.090099,-0.02391 4.206997,0.335643 6.439453,0.646484 1.116228,0.155421 2.260317,0.298951 3.445313,0.376953 1.184995,0.078 2.409665,0.08924 3.6855468,-0.01758 1.275881,-0.10682 2.6033,-0.33142 3.992187,-0.730469 1.388887,-0.399048 2.83927,-0.97085 4.36328097,-1.769531 C -4.9426222,1.5209084 -8.3086072,0.98105536 -11.258533,1.2503824 Z"
       style="opacity:1;fill:#c9d9dd;fill-opacity:1;fill-rule:evenodd;stroke:none;stroke-width:1.03534329;stroke-linecap:round;stroke-linejoin:bevel;stroke-miterlimit:4;stroke-dasharray:none;stroke-dashoffset:0;stroke-opacity:1"
       inkscape:connector-curvature="0" />
    <path
       sodipodi:nodetypes="csssscscsssc"
       id="path4627"
       d="m -0.47337723,3.9964781 c -1.52401097,0.798681 -2.97439397,1.370483 -4.36328097,1.769531 -1.388887,0.399049 -2.716306,0.623649 -3.992187,0.730469 -1.2758818,0.106821 -2.5005518,0.09558 -3.6855468,0.01758 -1.184996,-0.078 -2.329085,-0.221532 -3.445313,-0.376953 -2.232456,-0.310841 -4.349354,-0.670399 -6.439453,-0.646484 -1.045049,0.01196 -2.084314,0.120199 -3.126953,0.376953 -0.924379,0.227632 -1.922444,0.650707 -2.861328,1.150388 0.745813,2.199562 2.827147,3.7753929 5.285156,3.7753929 h 17.0527348 c 3.08865,0 5.57617097,-2.4855689 5.57617097,-5.5742189 z"
       style="opacity:1;fill:#afc9d3;fill-opacity:1;fill-rule:evenodd;stroke:none;stroke-width:1.03534329;stroke-linecap:round;stroke-linejoin:bevel;stroke-miterlimit:4;stroke-dasharray:none;stroke-dashoffset:0;stroke-opacity:1"
       inkscape:connector-curvature="0" />
  </g>
  <path
     inkscape:connector-curvature="0"
     id="path10-3-3"
     style="fill:#fcea84;fill-opacity:1;fill-rule:evenodd;stroke-width:0.52279121;enable-background:new"
     d="m 8.0837694,5.7412963 c 1.1548982,0 2.0911646,0.9362666 2.0911646,2.0911649 0,1.154898 -0.9362664,2.091164 -2.0911646,2.091164 -1.1548973,0 -2.0911638,-0.936266 -2.0911638,-2.091164 0,-1.1548983 0.9362665,-2.0911649 2.0911638,-2.0911649 z" />
  <g
     id="g4567"
     transform="matrix(0.71946663,0,0,0.71466607,31.487799,8.2251503)">
    <path
       style="fill:#2d4860;stroke-width:1;fill-opacity:1;opacity:1"
       d="m -21.574986,0.17085053 c -2.167543,0 -4.036739,2.01643157 -4.036739,4.52114697 0,5.6514335 -3.229391,6.2165765 -3.229391,10.1726615 0,4.369607 3.253157,7.911926 7.26613,7.911926 4.012972,0 7.266129,-3.542319 7.266129,-7.911926 0,-3.956085 -3.229391,-4.521228 -3.229391,-10.1726615 0,-2.5047154 -1.869196,-4.52114697 -4.036738,-4.52114697 z"
       id="path4"
       inkscape:connector-curvature="0" />
    <path
       style="fill:#ffffff;stroke-width:1"
       d="m -21.574986,6.6296319 c -1.445028,0 -2.422044,1.224262 -2.422044,2.7449013 0,3.4313078 -2.422043,3.7743498 -2.422043,6.1762098 0,2.653025 2.168772,4.803799 4.844087,4.803799 2.675314,0 4.844086,-2.150774 4.844086,-4.803799 0,-2.40186 -2.422043,-2.744902 -2.422043,-6.1762098 0,-1.5206393 -0.977016,-2.7449013 -2.422043,-2.7449013 z"
       id="path8"
       inkscape:connector-curvature="0" />
    <path
       style="fill:#eab108;stroke-width:1"
       d="m -25.193226,22.760034 c -0.243272,-0.03875 -0.458393,-0.111171 -0.929739,-0.314542 -0.701755,-0.302917 -1.028986,-0.401171 -2.313385,-0.694319 -0.640664,-0.146211 -0.879429,-0.211122 -1.435485,-0.390999 -0.202273,-0.0654 -0.471872,-0.148875 -0.599107,-0.185447 -0.345399,-0.09939 -0.436971,-0.138057 -0.563518,-0.237684 -0.172634,-0.135957 -0.253087,-0.345625 -0.222232,-0.579191 0.01977,-0.149682 0.07202,-0.293471 0.216234,-0.595257 0.192748,-0.403432 0.671316,-0.548512 0.700676,-0.945404 0.01727,-0.233647 0.0031,-0.496358 -0.05617,-1.043255 -0.03509,-0.323666 -0.0431,-0.442911 -0.04361,-0.648865 -5.29e-4,-0.223474 0.0023,-0.06782 0.02533,-0.153235 0.08642,-0.320033 0.152192,-0.504754 0.458121,-0.584358 0.08855,-0.02341 -0.09672,-0.02664 0.318859,-0.03472 0.2587,-0.0081 0.408475,-0.01453 0.441641,-0.02261 0.179244,-0.04117 0.309744,-0.108104 0.431361,-0.223958 0.115848,-0.110445 0.195133,-0.707479 0.346345,-0.976487 0.235385,-0.415138 0.699739,-0.411021 1.078934,-0.426441 0.107507,0.02261 0.143251,0.03714 0.260997,0.105278 0.118504,0.06782 0.15202,0.09543 0.255065,0.205147 0.259317,0.276194 0.38311,0.446625 0.964725,1.327603 0.460977,0.698436 0.601825,0.921829 0.787641,1.249451 0.202421,0.35709 0.567327,0.929822 0.702603,1.102837 0.02292,0.02987 0.163272,0.207569 0.311883,0.395923 0.148618,0.188677 0.284529,0.365002 0.302032,0.392129 0.27909,0.389303 0.475014,0.836735 0.544709,1.283763 0.02343,0.155818 0.02425,0.182138 0.01113,0.360481 -0.01663,0.226461 -0.03108,0.323262 -0.05564,0.372672 -0.0098,0.02018 -0.03149,0.07428 -0.04809,0.120052 -0.213389,0.594531 -0.745282,1.040591 -1.361487,1.141913 -0.131038,0.0218 -0.390879,0.0218 -0.529826,0 z"
       id="path12"
       inkscape:connector-curvature="0" />
    <path
       style="fill:#eab108;stroke-width:1"
       d="m -15.752704,22.490865 c 0.185706,-0.130468 0.334074,-0.276759 0.640624,-0.633364 0.456374,-0.530912 0.444563,-0.743729 1.388253,-1.50417 0.470745,-0.37913 0.641819,-0.528974 1.028396,-0.901081 0.14064,-0.135311 0.329608,-0.312685 0.419955,-0.394147 0.24525,-0.221052 0.305173,-0.289676 0.368776,-0.42192 0.08679,-0.180361 0.0665,-0.382844 -0.05596,-0.559411 -0.07851,-0.11319 -0.181539,-0.208376 -0.426366,-0.393986 -0.327262,-0.248178 -0.420858,-0.46156 -0.609937,-0.771017 -0.111252,-0.182137 0.03394,-0.642729 -0.14384,-1.10978 -0.105179,-0.276274 -0.148025,-0.376062 -0.233077,-0.543102 -0.09229,-0.181169 -0.111194,-0.212333 -0.165603,-0.271754 -0.204498,-0.224039 -0.431534,-0.299687 -0.718343,-0.239701 -0.08304,0.01776 -0.131851,0.03795 -0.47993,0.200464 -0.216976,0.100676 -0.411691,0.186901 -0.44232,0.194248 -0.165441,0.04037 -0.301793,0.03795 -0.450746,-0.0081 -0.14191,-0.04198 -0.25441,0.253345 -0.491438,0.09696 -0.162151,-0.106166 -0.33619,-0.238733 -0.46073,-0.273126 -0.173037,-0.04763 -0.172466,-0.04763 -0.334162,-0.02987 -0.155652,0.01938 -0.270331,0.06378 -0.396955,0.1626 -0.07981,0.06217 -0.103224,0.08881 -0.172795,0.191584 -0.06988,0.103663 -0.0865,0.139187 -0.126437,0.269977 -0.100483,0.329236 -0.132435,0.517591 -0.249295,1.467758 -0.09253,0.753336 -0.116657,0.991504 -0.134795,1.332527 -0.01975,0.371461 -0.08476,0.983834 -0.125154,1.179051 -0.0068,0.0331 -0.0493,0.234534 -0.09437,0.447674 -0.04502,0.213221 -0.08454,0.411344 -0.08781,0.440408 -0.06993,0.428944 -0.04682,0.870886 0.0809,1.26132 0.0452,0.135634 0.05547,0.157352 0.140355,0.296458 0.107748,0.176567 0.159899,0.249066 0.200768,0.279019 0.01631,0.01211 0.0568,0.04683 0.08974,0.0775 0.423695,0.394551 1.049958,0.539066 1.603095,0.37025 0.117546,-0.03552 0.33309,-0.141851 0.439459,-0.215723 z"
       id="path16"
       inkscape:connector-curvature="0" />
    <circle
       style="fill:#ffffff;stroke-width:1"
       cx="-23.189682"
       cy="4.2074766"
       r="1.6146953"
       id="circle20" />
    <circle
       style="fill:#323232;stroke-width:1"
       cx="-23.189682"
       cy="4.2074766"
       r="0.80734766"
       id="circle22" />
    <path
       style="fill:#f77d00;stroke-width:1"
       d="m -19.152943,6.2259581 c 0,1.5606837 -1.084386,2.8257168 -2.422043,2.8257168 -1.337658,0 -2.422044,-1.2650331 -2.422044,-2.8257168 z"
       id="path26"
       inkscape:connector-curvature="0" />
    <circle
       style="fill:#ffffff;stroke-width:1"
       cx="-19.960291"
       cy="4.2074766"
       r="1.6146953"
       id="circle30" />
    <circle
       style="fill:#323232;stroke-width:1"
       cx="-19.960291"
       cy="4.2074766"
       r="0.80734766"
       id="circle32" />
    <path
       style="fill:#eab108;stroke-width:1"
       d="m -19.152943,6.3605429 c 0,0.269089 -1.084386,1.8837843 -2.422043,1.8837843 -1.337658,0 -2.422044,-1.6146953 -2.422044,-1.8837843 0,-0.7431635 1.084386,-1.3456064 2.422044,-1.3456064 1.337657,0 2.422043,0.6024429 2.422043,1.3456064 z"
       id="path34"
       inkscape:connector-curvature="0" />
    <path
       style="fill:#2c4963;stroke-width:1;fill-opacity:1"
       d="m -15.559341,17.16455 c -0.929834,0 -0.936763,-0.77247 -1.122409,-1.683643 -0.206539,-1.013706 -0.338552,-1.599759 1.280013,-1.683643 1.401447,-0.460511 1.618004,3.313274 -0.157604,3.367286 z"
       id="path38"
       inkscape:connector-curvature="0" />
  </g>
</svg>
