<svg xmlns="http://www.w3.org/2000/svg" height="32" width="32"><rect width="28.203" height="28.203" x="1.898" y="1.898" ry="5.575" fill="#9f3830" fill-rule="evenodd"/><path d="M16 6.06c-2.97.081-6.291.538-8.854 1.194-.7.182-.961.283-1.086.474v17.27c0 .62 3.727.932 4.33.942.64-.01 3.48-.321 3.48-.942V23.1h4.26v1.898c0 .62 2.84.932 3.48.942.603-.01 4.33-.321 4.33-.942V7.728c-.125-.191-.387-.292-1.086-.474C22.291 6.598 18.97 6.141 16 6.06z" fill="#e84343"/><path d="M10.338 14.225c.862-.086.859-.095 2.39-.223.167-.484.317-.773-.287-1.675-.666-1.004-1.735-.571-2.17.187-.37.852-.27 1.387.067 1.71m0 0" fill="#2f2f2f"/><path d="M11.74 12.734a.356.356 0 0 1-.71 0 .356.356 0 0 1 .71 0m0 0" fill="#fff"/><path d="M19.063 14.573c.872.017 2.144-.002 2.255-.002.355-.252.606-1.234-.023-2.2-.69-1.08-1.804-.614-2.255.201-.385.915-.121 1.52.023 1.996" opacity=".2"/><path d="M19.063 13.863c.872.017 2.144-.003 2.255-.003.355-.251.606-1.233-.023-2.199-.69-1.08-1.804-.614-2.255.201-.385.915-.121 1.52.023 1.996" fill="#2f2f2f"/><path d="M20.26 12.095a.354.354 0 1 1-.709.001.354.354 0 0 1 .71-.001m0 0" fill="#fff"/><path d="M10.32 15.518c3.774-.24 7.555-.362 11.36 0-.627 3.911-2.921 3.954-5.207 4.016-2.57.17-5.699-1.011-6.153-4.016m0 0" fill="#2f2f2f"/><path d="M11.03 16.781c.046.218-.077.445.13.583 1.278.852 3.678 1.444 5.306 1.476 2.155.01 3.853-.382 4.432-1.124.126-.163.047-.71.057-.952l-1.214-.029 1.214-.11v-.58h-5.662l-.006.665h-1.411l-.012-.71h-2.832l.002.684.932.03" fill="#fff"/><path d="M9.618 14.841v.027a.167.167 0 0 0 0 .104.284.284 0 0 0 .066.11.683.683 0 0 0 .432.204c.167.017.693-.019.841-.09.13-.063.243-.15.372-.213.126-.06.261-.091.406-.1.207-.008.413.04.624.02a.62.62 0 0 0 .289-.091.398.398 0 0 0 .105-.098.259.259 0 0 0 .05-.134.297.297 0 0 0-.037-.164.481.481 0 0 0-.112-.135c-.092-.078-.203-.135-.308-.199-.057-.035-.115-.074-.185-.092-.08-.022-.17-.007-.257-.017-.092-.009-.174-.042-.261-.064a1.31 1.31 0 0 0-.547-.02c-.18.029-.35.096-.507.185-.149.083-.64.194-.708.337-.013.028-.023.058-.037.087a1.184 1.184 0 0 1-.226.343" opacity=".2"/><path d="M9.618 14.131v.027a.167.167 0 0 0 0 .104.284.284 0 0 0 .066.11.683.683 0 0 0 .432.204c.167.017.693-.019.841-.09.13-.063.243-.15.372-.213.126-.06.261-.091.406-.1.207-.008.413.04.624.02a.62.62 0 0 0 .289-.091.398.398 0 0 0 .105-.098.259.259 0 0 0 .05-.134.297.297 0 0 0-.037-.164.481.481 0 0 0-.112-.135c-.092-.078-.203-.135-.308-.2-.057-.034-.115-.073-.185-.091-.08-.022-.17-.007-.257-.017-.092-.009-.174-.042-.261-.064a1.31 1.31 0 0 0-.547-.02c-.18.029-.35.096-.507.185-.149.083-.64.194-.708.337-.013.028-.023.058-.037.087a1.184 1.184 0 0 1-.226.343" fill="#cd5d82"/><path d="M11.595 7.388l.832-.567c.15-.102.358-.045.453.108l.457.91 1.436 2.135c.1.15-.212.461-.364.56l-.69.446a.329.329 0 0 1-.452-.108L12.4 9.247l-1.029-1.42c-.105-.146.072-.337.222-.44z" fill="#e6e6e6"/><path d="M14.576 7.005l.647.764c.116.138.075.345-.073.45l-.888.522-2.055 1.58c-.143.11-.486-.168-.6-.31l-.511-.634a.314.314 0 0 1 .072-.452l1.582-.979 1.36-1.121c.14-.116.35.042.466.18z" fill="#efefef"/></svg>