<svg xmlns="http://www.w3.org/2000/svg" width="32" height="32" version="1"><rect width="28.203" height="28.203" x="1.898" y="1.898" ry="5.575" fill="#ececec" fill-rule="evenodd"/><g transform="matrix(.70526 0 0 .70526 4.716 4.716)" stroke-width="1.418"><path d="M25.456 13.508a9.632 9.632 0 0 0 .398-2.734C25.854 5.376 21.444 1 16 1c-5.44 0-9.852 4.376-9.852 9.774 0 .95.143 1.866.398 2.734-1.24.989-6.056 5.273-4.075 10.828 0 0 1.676-.142 3.052-2.667a10.655 10.655 0 0 0 2.259 4.31c-1.555.455-2.61 1.336-2.61 2.348 0 1.476 2.245 2.673 5.015 2.673 1.88 0 3.516-.552 4.374-1.367.472.062.949.105 1.437.105.49 0 .967-.043 1.438-.105.86.815 2.496 1.367 4.375 1.367 2.77 0 5.017-1.198 5.017-2.673 0-1.01-1.056-1.893-2.611-2.348a10.669 10.669 0 0 0 2.26-4.31c1.375 2.524 3.049 2.667 3.049 2.667 1.984-5.556-2.832-9.84-4.071-10.828z" fill="#4f4f4f"/><circle r="2" cy="8" cx="11" fill="#fff"/><circle r="2" cy="8" cx="21" fill="#fff"/><ellipse ry="8" rx="7" cy="19" cx="16" fill="#fff"/><circle r="1" cy="9" cx="12" fill="#303030"/><circle r="1" cy="9" cx="22" fill="#303030"/><path d="M14 9h4c-.32 3.081-2 6-2 6s-2-3.464-2-6z" fill="#cd5252"/></g></svg>