<svg xmlns="http://www.w3.org/2000/svg" xmlns:xlink="http://www.w3.org/1999/xlink" height="32" width="32" version="1"><defs><linearGradient id="c"><stop offset="0" stop-color="#c0e1ff"/><stop offset="1" stop-color="#72ade4"/></linearGradient><linearGradient id="a"><stop offset="0" stop-color="#c0e1ff"/><stop offset="1" stop-color="#128dff"/></linearGradient><linearGradient id="b"><stop offset="0" stop-color="#bbdfff"/><stop offset="1" stop-color="#47a6ff"/></linearGradient><radialGradient xlink:href="#c" id="d" cx="8.412" cy="9.42" fx="8.412" fy="9.42" r="14.102" gradientUnits="userSpaceOnUse" gradientTransform="translate(.047 -1.21)"/></defs><rect ry="5.575" y="1.899" x="1.897" height="28.203" width="28.203" fill="url(#d)" fill-rule="evenodd"/><g fill-rule="evenodd"><path d="M19.317 20.559c-4.917.449-8.675 3.143-14.438 2.848-1.178-.108-2.15-.335-2.982-.647v1.768c0 .63.1 1.234.291 1.799.939-.5 1.937-.923 2.861-1.15a13.634 13.634 0 0 1 3.127-.378c2.09-.024 4.207.336 6.44.647 1.116.155 2.26.299 3.445.377 1.185.078 2.41.089 3.686-.018a20.586 20.586 0 0 0 3.992-.73c1.389-.4 2.84-.971 4.363-1.77-4.47-2.475-7.835-3.015-10.785-2.746z" fill="#c9d9dd"/><path d="M30.102 23.305a23.141 23.141 0 0 1-4.363 1.77 20.586 20.586 0 0 1-3.992.73c-1.276.107-2.5.096-3.686.018a47.427 47.427 0 0 1-3.445-.377c-2.233-.311-4.35-.67-6.44-.647-1.045.012-2.084.12-3.127.377-.924.228-1.922.65-2.861 1.15a5.57 5.57 0 0 0 5.285 3.776h17.053a5.563 5.563 0 0 0 5.576-5.574z" fill="#afc9d3"/></g><path d="M8.084 5.741a2.091 2.091 0 1 1 0 4.183 2.091 2.091 0 0 1 0-4.183z" fill="#fcea84" fill-rule="evenodd"/><g transform="matrix(.71947 0 0 .71467 31.488 8.225)"><path d="M-21.575.17c-2.168 0-4.037 2.017-4.037 4.522 0 5.651-3.23 6.217-3.23 10.173 0 4.37 3.254 7.912 7.267 7.912s7.266-3.543 7.266-7.912c0-3.956-3.23-4.522-3.23-10.173 0-2.505-1.868-4.521-4.036-4.521z" fill="#2d4860"/><path d="M-21.575 6.63c-1.445 0-2.422 1.224-2.422 2.745 0 3.43-2.422 3.774-2.422 6.176 0 2.653 2.169 4.804 4.844 4.804 2.675 0 4.844-2.151 4.844-4.804 0-2.402-2.422-2.745-2.422-6.176 0-1.521-.977-2.745-2.422-2.745z" fill="#fff"/><path d="M-25.193 22.76c-.243-.039-.459-.111-.93-.315-.702-.302-1.029-.4-2.313-.694-.641-.146-.88-.21-1.436-.39a24.28 24.28 0 0 0-.599-.186c-.345-.1-.437-.138-.563-.238a.612.612 0 0 1-.223-.58c.02-.149.072-.293.217-.594.192-.404.67-.549.7-.946.017-.233.003-.496-.056-1.043a5.202 5.202 0 0 1-.044-.649c0-.223.003-.068.026-.153.086-.32.152-.505.458-.585.088-.023-.097-.026.319-.034a4.84 4.84 0 0 0 .441-.023.865.865 0 0 0 .432-.224c.116-.11.195-.707.346-.976.235-.415.7-.411 1.079-.427a.691.691 0 0 1 .261.106.85.85 0 0 1 .255.205c.26.276.383.446.965 1.327.46.699.602.922.787 1.25.203.357.568.93.703 1.103l.312.396c.149.188.284.365.302.392.28.389.475.836.545 1.283.023.156.024.183.01.36-.016.227-.03.324-.055.374a1.7 1.7 0 0 0-.048.12 1.772 1.772 0 0 1-1.361 1.142c-.131.021-.391.021-.53 0zM-15.753 22.49c.186-.13.334-.276.64-.632.457-.531.445-.744 1.39-1.505.47-.379.641-.529 1.028-.9.14-.136.33-.313.42-.395.245-.22.305-.29.368-.422a.544.544 0 0 0-.056-.56c-.078-.112-.181-.208-.426-.393-.327-.248-.42-.462-.61-.771-.111-.182.034-.643-.144-1.11a4.651 4.651 0 0 0-.233-.543c-.092-.181-.111-.212-.165-.272-.205-.224-.432-.3-.719-.24-.083.018-.132.038-.48.2-.217.102-.411.188-.442.195a.797.797 0 0 1-.45-.008c-.143-.042-.255.253-.492.097-.162-.106-.336-.239-.461-.273-.173-.048-.172-.048-.334-.03a.742.742 0 0 0-.397.163.641.641 0 0 0-.173.191.774.774 0 0 0-.126.27c-.1.33-.133.518-.25 1.468-.092.753-.116.991-.134 1.332-.02.372-.085.984-.126 1.18l-.094.447c-.045.213-.084.412-.088.44-.07.43-.047.871.081 1.262.045.136.056.157.14.296.108.177.16.25.201.28.017.011.057.046.09.077a1.67 1.67 0 0 0 1.603.37c.118-.035.333-.142.44-.216z" fill="#eab108"/><circle cx="-23.19" cy="4.207" r="1.615" fill="#fff"/><circle cx="-23.19" cy="4.207" r=".807" fill="#323232"/><path d="M-19.153 6.226c0 1.56-1.084 2.826-2.422 2.826s-2.422-1.265-2.422-2.826z" fill="#f77d00"/><circle cx="-19.96" cy="4.207" r="1.615" fill="#fff"/><circle cx="-19.96" cy="4.207" r=".807" fill="#323232"/><path d="M-19.153 6.36c0 .27-1.084 1.884-2.422 1.884s-2.422-1.614-2.422-1.883c0-.744 1.084-1.346 2.422-1.346s2.422.602 2.422 1.346z" fill="#eab108"/><path d="M-15.56 17.165c-.93 0-.936-.773-1.122-1.684-.206-1.014-.338-1.6 1.28-1.684 1.402-.46 1.618 3.314-.157 3.368z" fill="#2c4963"/></g></svg>