<?xml version="1.0" encoding="UTF-8" standalone="no"?>
<svg
   xmlns:dc="http://purl.org/dc/elements/1.1/"
   xmlns:cc="http://creativecommons.org/ns#"
   xmlns:rdf="http://www.w3.org/1999/02/22-rdf-syntax-ns#"
   xmlns:svg="http://www.w3.org/2000/svg"
   xmlns="http://www.w3.org/2000/svg"
   xmlns:xlink="http://www.w3.org/1999/xlink"
   xmlns:sodipodi="http://sodipodi.sourceforge.net/DTD/sodipodi-0.dtd"
   xmlns:inkscape="http://www.inkscape.org/namespaces/inkscape"
   height="32"
   width="32"
   version="1"
   id="svg37"
   sodipodi:docname="supertux2.svg"
   inkscape:version="0.92.4 5da689c313, 2019-01-14">
  <metadata
     id="metadata41">
    <rdf:RDF>
      <cc:Work
         rdf:about="">
        <dc:format>image/svg+xml</dc:format>
        <dc:type
           rdf:resource="http://purl.org/dc/dcmitype/StillImage" />
      </cc:Work>
    </rdf:RDF>
  </metadata>
  <sodipodi:namedview
     pagecolor="#ffffff"
     bordercolor="#666666"
     borderopacity="1"
     objecttolerance="10"
     gridtolerance="10"
     guidetolerance="10"
     inkscape:pageopacity="0"
     inkscape:pageshadow="2"
     inkscape:window-width="915"
     inkscape:window-height="663"
     id="namedview39"
     showgrid="false"
     inkscape:zoom="11.9375"
     inkscape:cx="3.7544837"
     inkscape:cy="16.700458"
     inkscape:window-x="716"
     inkscape:window-y="139"
     inkscape:window-maximized="0"
     inkscape:current-layer="svg37"
     inkscape:snap-global="false" />
  <defs
     id="defs7">
    <linearGradient
       id="linearGradient891"
       inkscape:collect="always">
      <stop
         id="stop887"
         offset="0"
         style="stop-color:#526067;stop-opacity:1" />
      <stop
         id="stop889"
         offset="1"
         style="stop-color:#253841;stop-opacity:1" />
    </linearGradient>
    <linearGradient
       id="linearGradient988">
      <stop
         id="stop984"
         offset="0"
         style="stop-color:#ffb300;stop-opacity:1" />
      <stop
         id="stop986"
         offset="1"
         style="stop-color:#998100;stop-opacity:1" />
    </linearGradient>
    <linearGradient
       id="linearGradient982">
      <stop
         id="stop978"
         offset="0"
         style="stop-color:#ffb300;stop-opacity:1" />
      <stop
         id="stop980"
         offset="1"
         style="stop-color:#998100;stop-opacity:1" />
    </linearGradient>
    <linearGradient
       inkscape:collect="always"
       id="linearGradient974">
      <stop
         style="stop-color:#c0e1ff;stop-opacity:1"
         offset="0"
         id="stop970" />
      <stop
         style="stop-color:#72ade4;stop-opacity:1"
         offset="1"
         id="stop972" />
    </linearGradient>
    <linearGradient
       id="linearGradient968">
      <stop
         id="stop964"
         offset="0"
         style="stop-color:#c0e1ff;stop-opacity:1;" />
      <stop
         id="stop966"
         offset="1"
         style="stop-color:#128dff;stop-opacity:0" />
    </linearGradient>
    <linearGradient
       id="linearGradient4924"
       y2="20.316"
       gradientUnits="userSpaceOnUse"
       y1="18.858"
       x2="16.213"
       x1="12.897"
       gradientTransform="matrix(0.77163247,0,0,0.77163247,3.6538805,3.2680642)">
      <stop
         offset="0"
         id="stop2" />
      <stop
         stop-opacity="0"
         offset="1"
         id="stop4" />
    </linearGradient>
    <linearGradient
       gradientTransform="matrix(0.24137317,0,0,0.24137317,-3.0519569,11.766693)"
       inkscape:collect="always"
       xlink:href="#linearGradient3063"
       id="linearGradient3103"
       x1="-20.542372"
       y1="40.855934"
       x2="-23.084745"
       y2="43.296612"
       gradientUnits="userSpaceOnUse" />
    <linearGradient
       inkscape:collect="always"
       id="linearGradient3063">
      <stop
         style="stop-color:#a9a9a9;stop-opacity:1;"
         offset="0"
         id="stop3059" />
      <stop
         style="stop-color:#a9a9a9;stop-opacity:0;"
         offset="1"
         id="stop3061" />
    </linearGradient>
    <linearGradient
       xlink:href="#linearGradient3212"
       id="linearGradient3477"
       gradientUnits="userSpaceOnUse"
       x1="-90.15844"
       y1="485.35376"
       x2="-90.15844"
       y2="695.35144"
       gradientTransform="matrix(0.0624236,0,0,0.0624236,4.3479175,-13.543197)" />
    <linearGradient
       id="linearGradient3212">
      <stop
         style="stop-color:#c0e1ff;stop-opacity:1;"
         offset="0"
         id="stop3214" />
      <stop
         style="stop-color:#128dff;stop-opacity:1;"
         offset="1"
         id="stop3216" />
    </linearGradient>
    <linearGradient
       xlink:href="#linearGradient3224"
       id="linearGradient3479"
       gradientUnits="userSpaceOnUse"
       gradientTransform="matrix(0.05987952,0,0,0.05987952,4.1246795,-12.035006)"
       x1="-194.70923"
       y1="485.85883"
       x2="18.207338"
       y2="698.77539" />
    <linearGradient
       id="linearGradient3224">
      <stop
         id="stop3226"
         offset="0"
         style="stop-color:#bbdfff;stop-opacity:1;" />
      <stop
         id="stop3228"
         offset="1"
         style="stop-color:#47a6ff;stop-opacity:1;" />
    </linearGradient>
    <linearGradient
       gradientTransform="matrix(0.24137317,0,0,0.24137317,-3.0519569,11.766693)"
       inkscape:collect="always"
       xlink:href="#linearGradient1641"
       id="linearGradient3081"
       x1="-59.612179"
       y1="51.185791"
       x2="-43.792229"
       y2="51.185791"
       gradientUnits="userSpaceOnUse" />
    <linearGradient
       id="linearGradient1641">
      <stop
         style="stop-color:#ffb300;stop-opacity:1"
         offset="0"
         id="stop1637" />
      <stop
         style="stop-color:#998100;stop-opacity:1"
         offset="1"
         id="stop1639" />
    </linearGradient>
    <linearGradient
       inkscape:collect="always"
       xlink:href="#linearGradient1623"
       id="linearGradient898"
       x1="9.1967115"
       y1="34.349342"
       x2="9.8710985"
       y2="35.137787"
       gradientUnits="userSpaceOnUse"
       gradientTransform="matrix(0.34431463,0,0,0.34431463,-19.733626,9.9948787)" />
    <linearGradient
       id="linearGradient1623">
      <stop
         style="stop-color:#696969;stop-opacity:1;"
         offset="0"
         id="stop1619" />
      <stop
         style="stop-color:#696969;stop-opacity:0;"
         offset="1"
         id="stop1621" />
    </linearGradient>
    <linearGradient
       y2="614.41449"
       x2="228.806"
       y1="611.17914"
       x1="228.806"
       gradientTransform="matrix(0.18861525,0,0,0.18861525,-52.314554,-101.54712)"
       gradientUnits="userSpaceOnUse"
       id="linearGradient928"
       xlink:href="#linearGradient982"
       inkscape:collect="always" />
    <linearGradient
       gradientTransform="matrix(0.24137317,0,0,0.24137317,-3.0519569,11.766693)"
       inkscape:collect="always"
       xlink:href="#linearGradient3029"
       id="linearGradient3035"
       x1="-46.135342"
       y1="23.190022"
       x2="-43.23418"
       y2="22.644533"
       gradientUnits="userSpaceOnUse" />
    <linearGradient
       inkscape:collect="always"
       id="linearGradient3029">
      <stop
         style="stop-color:#172f3b;stop-opacity:1"
         offset="0"
         id="stop3025" />
      <stop
         style="stop-color:#232323;stop-opacity:0;"
         offset="1"
         id="stop3027" />
    </linearGradient>
    <linearGradient
       gradientTransform="matrix(0.24137317,0,0,0.24137317,-3.0519569,11.766693)"
       inkscape:collect="always"
       xlink:href="#linearGradient3021"
       id="linearGradient3055"
       x1="-52.513775"
       y1="23.456799"
       x2="-50.72718"
       y2="25.210815"
       gradientUnits="userSpaceOnUse" />
    <linearGradient
       inkscape:collect="always"
       id="linearGradient3021">
      <stop
         style="stop-color:#808080;stop-opacity:1;"
         offset="0"
         id="stop3017" />
      <stop
         style="stop-color:#808080;stop-opacity:0;"
         offset="1"
         id="stop3019" />
    </linearGradient>
    <linearGradient
       inkscape:collect="always"
       xlink:href="#linearGradient891"
       id="linearGradient3065"
       x1="-42.771389"
       y1="-3.1232314"
       x2="-39.251423"
       y2="0.26740336"
       gradientUnits="userSpaceOnUse"
       gradientTransform="matrix(0.20449934,0.12822258,-0.12822258,0.20449934,-3.8055099,16.323069)" />
    <linearGradient
       gradientTransform="matrix(0.24137317,0,0,0.24137317,-3.0519569,11.766693)"
       inkscape:collect="always"
       xlink:href="#linearGradient988"
       id="linearGradient3073"
       x1="-23.465322"
       y1="44.578014"
       x2="-12.070152"
       y2="44.578014"
       gradientUnits="userSpaceOnUse" />
    <linearGradient
       gradientTransform="matrix(0.24137317,0,0,0.24137317,-3.0519569,11.766693)"
       inkscape:collect="always"
       xlink:href="#linearGradient1677-3"
       id="linearGradient3091"
       x1="-27.665209"
       y1="26.670006"
       x2="-26.186441"
       y2="36.636108"
       gradientUnits="userSpaceOnUse" />
    <linearGradient
       id="linearGradient1677-3">
      <stop
         style="stop-color:#fdfdfd;stop-opacity:1"
         offset="0"
         id="stop1673" />
      <stop
         style="stop-color:#a6a6a6;stop-opacity:1"
         offset="1"
         id="stop1675" />
    </linearGradient>
    <radialGradient
       inkscape:collect="always"
       xlink:href="#linearGradient974"
       id="radialGradient976"
       cx="8.4122963"
       cy="9.420455"
       fx="8.4122963"
       fy="9.420455"
       r="14.101694"
       gradientUnits="userSpaceOnUse"
       gradientTransform="translate(0.04713123,-1.2107253)" />
  </defs>
  <rect
     inkscape:highlight-color="3236036607"
     ry="5.575182"
     y="1.8986118"
     x="1.897"
     height="28.203388"
     width="28.203388"
     id="rect4497-3"
     style="opacity:1;fill:url(#radialGradient976);fill-opacity:1;fill-rule:evenodd;stroke:none;stroke-width:1.03534329;stroke-linecap:round;stroke-linejoin:bevel;stroke-miterlimit:4;stroke-dasharray:none;stroke-dashoffset:0;stroke-opacity:1" />
  <g
     id="g958"
     transform="translate(30.575455,19.308645)">
    <path
       sodipodi:nodetypes="cccscscscssccc"
       id="path4525-3"
       d="m -11.258533,1.2503844 c -4.916542,0.448879 -8.67453,3.1426187 -14.4375,2.8476567 -1.178586,-0.107742 -2.150999,-0.334324 -2.982422,-0.646485 v 1.767578 c 0,0.630642 0.09967,1.234495 0.291016,1.798828 0.938884,-0.499681 1.936949,-0.922758 2.861328,-1.15039 1.042639,-0.256754 2.081904,-0.364996 3.126953,-0.376953 2.090099,-0.02391 4.206997,0.335643 6.439453,0.646484 1.116228,0.155421 2.260317,0.298951 3.445313,0.376953 1.184995,0.078 2.409665,0.08924 3.6855468,-0.01758 1.275881,-0.10682 2.6033,-0.33142 3.992187,-0.730469 1.388887,-0.399048 2.83927,-0.97085 4.36328097,-1.769531 C -4.9426222,1.5209084 -8.3086072,0.98105536 -11.258533,1.2503824 Z"
       style="opacity:1;fill:#c9d9dd;fill-opacity:1;fill-rule:evenodd;stroke:none;stroke-width:1.03534329;stroke-linecap:round;stroke-linejoin:bevel;stroke-miterlimit:4;stroke-dasharray:none;stroke-dashoffset:0;stroke-opacity:1"
       inkscape:connector-curvature="0" />
    <path
       sodipodi:nodetypes="csssscscsssc"
       id="path4627"
       d="m -0.47337723,3.9964781 c -1.52401097,0.798681 -2.97439397,1.370483 -4.36328097,1.769531 -1.388887,0.399049 -2.716306,0.623649 -3.992187,0.730469 -1.2758818,0.106821 -2.5005518,0.09558 -3.6855468,0.01758 -1.184996,-0.078 -2.329085,-0.221532 -3.445313,-0.376953 -2.232456,-0.310841 -4.349354,-0.670399 -6.439453,-0.646484 -1.045049,0.01196 -2.084314,0.120199 -3.126953,0.376953 -0.924379,0.227632 -1.922444,0.650707 -2.861328,1.150388 0.745813,2.199562 2.827147,3.7753929 5.285156,3.7753929 h 17.0527348 c 3.08865,0 5.57617097,-2.4855689 5.57617097,-5.5742189 z"
       style="opacity:1;fill:#afc9d3;fill-opacity:1;fill-rule:evenodd;stroke:none;stroke-width:1.03534329;stroke-linecap:round;stroke-linejoin:bevel;stroke-miterlimit:4;stroke-dasharray:none;stroke-dashoffset:0;stroke-opacity:1"
       inkscape:connector-curvature="0" />
  </g>
  <g
     id="g925"
     transform="translate(27.705224,-0.70812314)">
    <path
       sodipodi:nodetypes="cccc"
       inkscape:connector-curvature="0"
       id="path3095"
       d="m -10.992725,19.707454 3.4189031,2.256466 -0.497878,1.192311 c 0,0 -2.8325601,-2.2717 -2.9210251,-3.448777 z"
       style="fill:url(#linearGradient3103);fill-opacity:1;fill-rule:evenodd;stroke:none;stroke-width:0.24137315px;stroke-linecap:butt;stroke-linejoin:miter;stroke-opacity:1" />
    <path
       style="fill:#172f3b;fill-opacity:1;fill-rule:evenodd;stroke:none;stroke-width:0.24137315px;stroke-linecap:butt;stroke-linejoin:miter;stroke-opacity:1"
       d="m -10.587708,15.792305 c 1.2764131,-0.871397 3.1581741,-2.365741 3.3628591,-3.043761 0.196372,-0.650479 1.006404,-0.527743 0.822306,0.208645 -0.184099,0.736397 -1.190502,3.645149 -2.773746,5.584314"
       id="path930"
       inkscape:connector-curvature="0"
       sodipodi:nodetypes="cssc" />
    <path
       style="fill:#172f3b;fill-opacity:1;fill-rule:evenodd;stroke:none;stroke-width:0.24137315px;stroke-linecap:butt;stroke-linejoin:miter;stroke-opacity:1"
       d="m -17.043418,22.383016 c 0.722454,-0.21225 1.126537,-1.045273 1.655258,-1.566817 0.958269,0.879645 5.9474841,2.570821 3.354196,2.614014 -1.332574,-0.07672 -2.107914,0.646933 -2.834025,1.237245 z"
       id="path899"
       inkscape:connector-curvature="0"
       sodipodi:nodetypes="ccccc" />
    <path
       sodipodi:nodetypes="cssssccsssc"
       style="fill:#253841;fill-opacity:1;fill-rule:evenodd;stroke:none;stroke-width:0.24136457;stroke-linecap:butt;stroke-linejoin:miter;stroke-miterlimit:4;stroke-dasharray:none;stroke-opacity:1"
       d="m -11.470073,10.352252 c -1.891908,0.03472 -2.516758,1.475336 -2.516758,2.186978 0,0.711634 0.233702,2.190819 -0.339077,3.162808 -0.378403,0.642138 -1.577384,2.164031 -1.917325,3.589039 -0.339527,1.423267 -0.0744,4.426019 3.870598,4.495447 4.0614891,0.07144 3.7824581,0.939235 3.7824581,0.939235 l 1.441181,-2.753164 c -0.376817,-0.180075 -0.953452,-0.453178 -0.929527,-0.503901 0.724303,-1.535412 -1.214744,-4.390012 -1.57924,-5.500857 -0.3644951,-1.110844 0.06398,-1.385579 0.359052,-2.062495 0.295068,-0.676923 0.414822,-3.55309 -2.1713621,-3.55309 z"
       id="path889"
       inkscape:connector-curvature="0" />
    <path
       style="fill:none;fill-rule:evenodd;stroke:none;stroke-width:0.24137315px;stroke-linecap:butt;stroke-linejoin:miter;stroke-opacity:1"
       d="m -10.914651,19.516721 c 1.0587731,0.902559 3.6276001,2.377896 3.7317421,2.516753"
       id="path893"
       inkscape:connector-curvature="0" />
    <path
       style="fill:url(#linearGradient3081);fill-opacity:1;fill-rule:evenodd;stroke:none;stroke-width:0.24137315px;stroke-linecap:butt;stroke-linejoin:miter;stroke-opacity:1"
       d="m -16.798655,22.432684 c -0.357437,-0.285861 -0.664325,0.110003 -0.450408,0.490717 0.213916,0.380714 2.038734,2.212428 2.562871,2.789748 0.524136,0.57732 1.436605,-0.265582 0.612937,-0.740756 -0.823666,-0.475172 -2.367964,-2.253847 -2.7254,-2.539709 z"
       id="path895"
       inkscape:connector-curvature="0"
       sodipodi:nodetypes="zzzzz" />
    <path
       sodipodi:nodetypes="cscc"
       inkscape:connector-curvature="0"
       id="path888"
       d="m -16.309516,20.83314 c 0.148555,0.569464 -0.550257,1.25221 -0.923413,1.603543 -0.485367,0.456986 0.01238,0.705644 0.173316,0.693263 0.160936,-0.01238 1.357517,-0.445047 2.285994,0.07487"
       style="fill:#172f3b;fill-opacity:1;fill-rule:evenodd;stroke:none;stroke-width:0.24102022;stroke-linecap:butt;stroke-linejoin:miter;stroke-miterlimit:4;stroke-dasharray:none;stroke-opacity:1" />
    <path
       sodipodi:nodetypes="csscc"
       inkscape:connector-curvature="0"
       id="path890"
       d="m -16.09425,20.797024 c -0.09159,0.61505 -0.422816,1.126255 -1.166438,1.842665 -0.132554,0.127705 -0.04269,0.162365 0.04377,0.131303 0.240892,-0.08653 1.544265,-0.858145 1.519141,-0.883268 z"
       style="fill:url(#linearGradient898);fill-opacity:1;fill-rule:evenodd;stroke:none;stroke-width:0.34431466px;stroke-linecap:butt;stroke-linejoin:miter;stroke-opacity:1" />
    <path
       sodipodi:nodetypes="cscscc"
       inkscape:connector-curvature="0"
       id="path973"
       d="m -9.6503699,15.293607 c 0,0 2.375353,-1.897193 2.534741,-2.449634 0.06627,-0.229726 0.154747,-0.445666 0.488998,-0.374489 -0.313437,0.158525 -0.249463,0.445482 -0.399245,0.651483 -0.750437,1.032089 -2.488318,2.90923 -2.488318,2.90923 z"
       style="fill:#253841;fill-opacity:1;fill-rule:evenodd;stroke:none;stroke-width:0.34431466px;stroke-linecap:butt;stroke-linejoin:miter;stroke-opacity:1" />
    <path
       id="path918"
       d="m -10.235439,11.781147 c -0.485096,-0.0052 -0.823469,0.545742 -0.570021,1.194522 0.145269,0.371865 1.1004991,0.351454 1.1611441,-0.03602 0.103429,-0.66085 -0.111266,-1.153011 -0.5911231,-1.158482 z"
       style="fill:#fdfdfd;fill-opacity:1;fill-rule:evenodd;stroke:none;stroke-width:0.18957873;stroke-linecap:butt;stroke-linejoin:miter;stroke-miterlimit:4;stroke-dasharray:none;stroke-opacity:1"
       inkscape:connector-curvature="0"
       sodipodi:nodetypes="ssss" />
    <path
       d="m -10.355685,12.357415 a 0.38323634,0.46490761 0 0 1 0.5412561,-8.37e-4 0.38323634,0.46490761 0 0 1 0.0022,0.656595 0.38323634,0.46490761 0 0 1 -0.5412451,0.0042 0.38323634,0.46490761 0 0 1 -0.005,-0.656579"
       id="path920"
       style="fill:#351700;fill-opacity:1;fill-rule:evenodd;stroke:none;stroke-width:0.22512066;stroke-linecap:round;stroke-linejoin:round;stroke-miterlimit:4;stroke-dasharray:none;stroke-opacity:1"
       inkscape:connector-curvature="0" />
    <path
       id="path922"
       d="m -9.1435489,14.319504 c 0.25261,0.0084 1.751427,-0.286287 1.768267,-0.496798 0.01684,-0.210505 -1.052541,-0.311547 -1.263049,-0.404175 -0.210507,-0.09262 -1.233645,-0.365818 -1.220945,0.319973 0.01269,0.685791 0.463118,0.57258 0.715727,0.581 z"
       style="fill:url(#linearGradient928);fill-opacity:1;fill-rule:evenodd;stroke:none;stroke-width:0.14146143;stroke-linecap:butt;stroke-linejoin:miter;stroke-miterlimit:4;stroke-dasharray:none;stroke-opacity:1"
       inkscape:connector-curvature="0" />
    <path
       id="path924"
       d="m -9.7801249,13.913709 c 0.724177,0.157253 1.602344,0.210443 2.087892,0.129478"
       style="fill:none;fill-rule:evenodd;stroke:none;stroke-width:0.12818037;stroke-linecap:butt;stroke-linejoin:miter;stroke-miterlimit:4;stroke-dasharray:none;stroke-opacity:1"
       inkscape:connector-curvature="0" />
    <path
       style="fill:none;fill-opacity:1;fill-rule:evenodd;stroke:none;stroke-width:0.19227055;stroke-linecap:butt;stroke-linejoin:miter;stroke-miterlimit:4;stroke-dasharray:none;stroke-opacity:1"
       d="m -9.2581069,14.343455 c 0.34334,0.01146 2.380493,-0.389114 2.403381,-0.675235 0.02289,-0.286112 -1.430585,-0.423446 -1.716702,-0.549344 -0.286116,-0.125889 -1.6767371,-0.497209 -1.6594761,0.434899 0.01725,0.932108 0.6294571,0.778235 0.9727971,0.78968 z"
       id="path926"
       inkscape:connector-curvature="0" />
    <path
       sodipodi:nodetypes="csc"
       inkscape:connector-curvature="0"
       id="path3037"
       d="m -13.751895,15.243061 c -1.704321,1.443246 -4.380571,4.892834 -3.84518,5.228289 0.461692,0.289275 3.213321,-2.096461 4.376928,-2.339849"
       style="fill:url(#linearGradient3035);fill-opacity:1;fill-rule:evenodd;stroke:none;stroke-width:0.24137315px;stroke-linecap:butt;stroke-linejoin:miter;stroke-opacity:1" />
    <path
       style="fill:none;fill-opacity:1;fill-rule:evenodd;stroke:none;stroke-width:0.24137315px;stroke-linecap:butt;stroke-linejoin:miter;stroke-opacity:1"
       d="m -14.418287,15.872994 c -1.079297,1.143622 -2.620207,2.959257 -3.106098,3.943468 -0.479611,0.759076 0.07522,1.042303 0.725594,0.419548 0.88334,-0.487747 2.207391,-1.645265 3.075292,-1.826796"
       id="path891"
       inkscape:connector-curvature="0"
       sodipodi:nodetypes="cccc" />
    <path
       sodipodi:nodetypes="csssc"
       inkscape:connector-curvature="0"
       id="path3039"
       d="m -17.5098,20.308842 c 0.19147,0.123531 0.962458,-1.306479 1.761359,-2.205793 0.557589,-0.627675 2.155978,-1.854135 2.692588,-2.171988 0.442949,-0.26237 0.108291,-0.87087 -0.743185,-0.460098 -0.754267,0.363882 -4.149399,4.703005 -3.710762,4.837879 z"
       style="fill:url(#linearGradient3055);fill-opacity:1;fill-rule:evenodd;stroke:none;stroke-width:0.24137315px;stroke-linecap:butt;stroke-linejoin:miter;stroke-opacity:1" />
    <path
       sodipodi:nodetypes="zszz"
       inkscape:connector-curvature="0"
       id="path3057"
       d="m -13.643717,11.778974 c -0.537869,1.345959 0.963936,-0.57107 1.674494,-0.733962 0.710559,-0.1629 2.7986231,0.406087 1.69503,-0.269188 -1.103591,-0.675268 -2.831656,-0.3428 -3.369524,1.00315 z"
       style="fill:url(#linearGradient3065);fill-opacity:1;fill-rule:evenodd;stroke:none;stroke-width:0.24137315px;stroke-linecap:butt;stroke-linejoin:miter;stroke-opacity:1" />
    <path
       style="fill:url(#linearGradient3073);fill-opacity:1;fill-rule:evenodd;stroke:none;stroke-width:0.24137315px;stroke-linecap:butt;stroke-linejoin:miter;stroke-opacity:1"
       d="m -7.0914019,20.729085 c 0.04818,-0.687766 1.011433,-0.802035 1.00532,0.0394 -0.0069,0.957106 -1.303106,3.272869 -1.791105,3.851143 -0.470283,0.557275 -0.937375,0.12143 -0.607492,-0.41657 0.329733,-0.537758 1.328312,-2.546636 1.393277,-3.474009 z"
       id="path897"
       inkscape:connector-curvature="0"
       sodipodi:nodetypes="sssss" />
    <path
       sodipodi:nodetypes="csccc"
       inkscape:connector-curvature="0"
       id="path3083"
       d="m -9.4836309,16.785743 c -0.327036,-0.145039 -0.442482,0.701795 -0.7143571,1.09745 -0.327537,0.476654 -0.643098,0.935488 -0.401994,1.689261 l 2.4918291,1.729568 c 0.321341,-1.264769 -0.540339,-3.106321 -1.375478,-4.516279 z"
       style="fill:url(#linearGradient3091);fill-opacity:1;fill-rule:evenodd;stroke:none;stroke-width:0.24137315px;stroke-linecap:butt;stroke-linejoin:miter;stroke-opacity:1" />
    <path
       transform="rotate(45.236716)"
       d="m 1.7827334,15.771962 a 0.13060676,0.0831374 0 0 1 0.1844601,-1.56e-4 0.13060676,0.0831374 0 0 1 7.352e-4,0.117416 0.13060676,0.0831374 0 0 1 -0.1844562,7.8e-4 0.13060676,0.0831374 0 0 1 -0.00172,-0.117412"
       sodipodi:open="true"
       sodipodi:end="3.9163618"
       sodipodi:start="3.9269908"
       sodipodi:ry="0.0831374"
       sodipodi:rx="0.13060676"
       sodipodi:cy="15.830749"
       sodipodi:cx="1.8750863"
       sodipodi:type="arc"
       id="path3093"
       style="fill:#ffffff;fill-opacity:1;fill-rule:evenodd;stroke:none;stroke-width:0.61099207;stroke-linecap:round;stroke-linejoin:round;stroke-miterlimit:4;stroke-dasharray:none;stroke-opacity:1" />
    <path
       sodipodi:nodetypes="ccsccsscc"
       inkscape:connector-curvature="0"
       id="path965"
       d="m -13.723499,18.409214 c -0.827901,0.812133 -1.357525,1.321606 -1.653758,1.754422 0.285613,1.150842 1.417594,2.112147 2.532584,2.029375 1.316889,-0.09776 3.3381601,0.733151 4.4384141,1.676578 l -0.236351,0.420183 c 0,0 -0.292321,-0.134489 -1.015436,-0.358904 -1.2692951,-0.393923 -2.2740021,-0.18875 -3.3526911,-0.280122 -2.444605,-0.207064 -3.105793,-2.176171 -3.25065,-3.707349 0.887851,-0.762725 1.714842,-1.160288 2.537888,-1.534183 z"
       style="fill:#172f3b;fill-opacity:1;fill-rule:evenodd;stroke:none;stroke-width:0.34431466px;stroke-linecap:butt;stroke-linejoin:miter;stroke-opacity:1" />
    <path
       sodipodi:nodetypes="ccscc"
       inkscape:connector-curvature="0"
       id="path967"
       d="m -13.840894,13.609969 c 0.211957,0.846817 0.60756,1.310972 1.724917,1.573594 -0.158807,0.201994 -0.369154,0.240502 -0.529398,0.173365 -0.312834,-0.131075 -1.042586,-0.20631 -1.68014,0.517898 0.330243,-0.518558 0.519036,-1.422958 0.484621,-2.264857 z"
       style="fill:#172f3b;fill-opacity:1;fill-rule:evenodd;stroke:none;stroke-width:0.34431466px;stroke-linecap:butt;stroke-linejoin:miter;stroke-opacity:1" />
    <path
       sodipodi:nodetypes="cscc"
       inkscape:connector-curvature="0"
       id="path971"
       d="m -9.8717629,14.810998 c -0.1670641,0.259342 -0.4552501,0.40899 -0.6222681,0.440512 -0.192557,0.03631 0.185506,0.243832 0.5908801,0.223227 -0.03475,-0.36978 0.0051,-0.477005 0.03139,-0.663739 z"
       style="fill:#172f3b;fill-opacity:1;fill-rule:evenodd;stroke:none;stroke-width:0.34431466px;stroke-linecap:butt;stroke-linejoin:miter;stroke-opacity:1" />
  </g>
  <path
     inkscape:connector-curvature="0"
     id="path10-3-3"
     style="fill:#fcea84;fill-opacity:1;fill-rule:evenodd;stroke-width:0.52279121;enable-background:new"
     d="m 8.0837694,5.7412963 c 1.1548982,0 2.0911646,0.9362666 2.0911646,2.0911649 0,1.154898 -0.9362664,2.091164 -2.0911646,2.091164 -1.1548973,0 -2.0911638,-0.936266 -2.0911638,-2.091164 0,-1.1548983 0.9362665,-2.0911649 2.0911638,-2.0911649 z" />
</svg>
