<svg xmlns="http://www.w3.org/2000/svg" height="32" width="32" version="1"><rect width="28.203" height="28.203" x="1.898" y="1.898" ry="5.575" fill="#6eaa36" fill-rule="evenodd"/><path d="M15.643 4.801c-4.295 0-6.75 1.759-8.351 3.74 1.227.337 2.085.617 2.36.709l.034-1.858.024-.053.062-.02c.378.055 8.43 1.246 11.822 3.223.42.247.626.505.886.77.938.97 2.183 5.004 2.315 5.838l-.054.086c-.048.018-.166.1-.32.206-.792.553-2.642 1.848-5.014 1.638-2.133-.19-4.916-1.414-8.274-3.625.148.349.846 2.006.962 2.284l.049.057c.486.251 5.15 2.63 7.465 2.581 1.867-.037 3.86-.948 4.659-1.427l.254-.048c.07.056.06.164.038.264a7.245 7.245 0 0 1-.235.843l-.062.162c-.091.242-.18.474-.35.614-.47.428-1.223.766-2.399 1.282-1.818.794-4.765 1.294-7.503 1.278-.98-.023-1.928-.131-2.761-.226-1.739-.198-3.15-.357-3.994.298a11.172 11.172 0 0 0 8.389 3.783c6.185 0 11.205-5.014 11.205-11.2 0-6.185-5.02-11.2-11.205-11.2h-.002zm2.96 5.928a3.4 3.4 0 0 0-2.294.924 3.415 3.415 0 0 0-1.095 2.4 3.465 3.465 0 0 0 3.327 3.567 3.42 3.42 0 0 0 2.47-.93 3.427 3.427 0 0 0 1.092-2.394 3.458 3.458 0 0 0-3.327-3.567c-.058-.002-.116-.001-.173 0zm-.091 1.015c.079-.005.154-.003.235 0a2.407 2.407 0 0 1 1.561 4.162c-.47.436-1.08.66-1.724.641a2.413 2.413 0 0 1-2.318-2.49c.02-.641.296-1.234.762-1.672.408-.383.93-.607 1.484-.64zm.631 1.202c-.59 0-1.068.32-1.068.714 0 .391.478.713 1.068.713.589 0 1.063-.321 1.063-.713 0-.394-.474-.714-1.063-.714z" fill="#fff"/></svg>