<svg xmlns="http://www.w3.org/2000/svg" version="1" width="32" height="32"><rect width="28.203" height="28.203" x="1.898" y="1.898" ry="5.575" fill="#355681" fill-rule="evenodd"/><path d="M18.704 21.21c-3.42-.448-6.559-2.072-8.562-4.429l-.227-.267v-1.06l.322.024c1.791.134 3.982-.501 5.366-1.557.342-.26.776-.726.984-1.055l.181-.287.556.298c.306.163.57.31.585.324.035.033-.164.372-.423.721-.99 1.336-2.868 2.364-4.97 2.72-.186.032-.338.069-.338.082 0 .038.704.616 1.058.87.174.123.343.224.376.224.103 0 .676-.19.875-.29.28-.141.506-.292.679-.454.084-.08.154-.136.154-.125 0 .082-.572.922-.803 1.178-.12.134-.142.174-.106.197.128.083.816.419 1.154.563l.386.165.21-.055c.588-.153 1.49-.708 2.263-1.392.126-.112.234-.198.24-.191.016.016-.312.706-.498 1.048-.14.256-.48.779-.647.996-.035.046-.053.09-.04.098.09.052 1.059.247 1.442.29l.193.022.205-.294c.722-1.038 1.45-2.528 2.017-4.128.098-.276.19-.515.204-.53.035-.035 1.258.386 1.258.434 0 .11-.379 1.121-.705 1.883-.595 1.391-1.328 2.696-2.088 3.72l-.24.32-.313-.002a7.665 7.665 0 0 1-.748-.06zm1.501-8.214c-1.588-.714-2.892-1.311-2.897-1.327-.012-.035.139-.265.289-.44.169-.197.545-.434.842-.531.214-.07.319-.085.604-.087.353-.002.412.01.81.16a.897.897 0 0 0 .224.069c.007-.007.624-1.194 1.37-2.637.747-1.443 1.37-2.636 1.384-2.651.023-.025 1.134.449 1.2.51.012.012-.451 1.272-1.03 2.8a802.273 802.273 0 0 0-1.051 2.787c0 .004.123.068.275.142a1.88 1.88 0 0 1 1.065 1.801c-.016.24-.12.656-.172.688-.013.008-1.324-.57-2.913-1.284zm-8.905.2c-.45-.088-.943-.48-1.149-.913-.319-.673-.194-1.385.336-1.916.374-.374.88-.546 1.388-.473a1.716 1.716 0 0 1 1.44 1.44c.046.316-.014.672-.165.977-.124.252-.45.585-.71.723-.33.175-.76.237-1.14.162zM8.763 8.517c-.58-.12-.942-.773-.735-1.324.084-.224.278-.445.485-.554.142-.075.196-.085.46-.085.263 0 .317.01.459.085.345.181.562.557.54.936a1.014 1.014 0 0 1-1.209.942zm3.069.004c-.33-.107-.503-.334-.503-.66a.53.53 0 0 1 .163-.43.65.65 0 0 1 .994 0 .53.53 0 0 1 .163.43.7.7 0 0 1-.167.463c-.149.16-.468.256-.65.197z" fill="#fff"/><text style="line-height:1.25;-inkscape-font-specification:sans-serif" x="9.757" y="27.465" font-weight="400" font-size="6.011" font-family="sans-serif" letter-spacing="0" word-spacing="0" fill="#f9f9f9" stroke-width=".15"><tspan x="9.757" y="27.465" style="-inkscape-font-specification:sans-serif">SVG</tspan></text></svg>