<svg xmlns="http://www.w3.org/2000/svg" width="32" height="32"><path d="M11.906 6.531c.412-.625.905-1.175 1.512-1.54a4.981 4.981 0 0 1 2.268-.702 5.1 5.1 0 0 1 2.865.682c.605.349 1.111.8 1.51 1.318.398.518.687 1.102.859 1.717a4.93 4.93 0 0 1 .148 1.9c-.063.54-.271 1.065-.523 1.574.806-.393 1.661-.633 2.508-.566.795.063 1.57.32 2.256.748a5.117 5.117 0 0 1 1.72 1.787c.35.605.561 1.25.647 1.897a5.036 5.036 0 0 1-.113 1.916 4.923 4.923 0 0 1-.82 1.718c-.33.442-.778.798-1.26 1.116.566.037 1.124.12 1.622.334a4.924 4.924 0 0 1 1.57 1.078c.447.456.808.998 1.057 1.601.209.505.287 1.07.325 1.645.003-.08.045-.146.045-.227V7.473a5.561 5.561 0 0 0-5.575-5.575H7.473c-.08 0-.147.042-.227.045.574.038 1.14.116 1.645.325.603.249 1.145.61 1.601 1.056.456.447.824.979 1.078 1.57.216.503.3 1.065.336 1.637z" fill="#ccc" fill-rule="evenodd"/><rect width="28.203" height="28.203" x="1.898" y="1.898" ry="5.575" fill="#ccc" fill-rule="evenodd"/><path d="M6.924 22.835a2.241 2.241 0 0 0-.158.006 2.241 2.241 0 0 0-.224.028 2.241 2.241 0 0 0-.22.048 2.241 2.241 0 0 0-.212.072 2.241 2.241 0 0 0-.204.09 2.241 2.241 0 0 0-.193.112 2.241 2.241 0 0 0-.182.13 2.241 2.241 0 0 0-.17.147 2.241 2.241 0 0 0-.151.165 2.241 2.241 0 0 0-.137.178 2.241 2.241 0 0 0-.117.191 2.241 2.241 0 0 0-.098.202 2.241 2.241 0 0 0-.076.21 2.241 2.241 0 0 0-.054.217 2.241 2.241 0 0 0-.035.222 2.241 2.241 0 0 0-.01.223 2.241 2.241 0 0 0 .006.159 2.241 2.241 0 0 0 .026.223 2.241 2.241 0 0 0 .05.217 2.241 2.241 0 0 0 .07.213 2.241 2.241 0 0 0 .09.206 2.241 2.241 0 0 0 .113.193 2.241 2.241 0 0 0 .13.182 2.241 2.241 0 0 0 .148.17 2.241 2.241 0 0 0 .163.152 2.241 2.241 0 0 0 .18.136 2.241 2.241 0 0 0 .19.117 2.241 2.241 0 0 0 .203.096 2.241 2.241 0 0 0 .21.078 2.241 2.241 0 0 0 .217.054 2.241 2.241 0 0 0 .221.035 2.241 2.241 0 0 0 .224.01 2.241 2.241 0 0 0 .158-.006 2.241 2.241 0 0 0 .222-.026 2.241 2.241 0 0 0 .219-.05 2.241 2.241 0 0 0 .212-.07 2.241 2.241 0 0 0 .204-.09 2.241 2.241 0 0 0 .196-.113 2.241 2.241 0 0 0 .182-.13 2.241 2.241 0 0 0 .167-.148 2.241 2.241 0 0 0 .154-.163 2.241 2.241 0 0 0 .135-.18 2.241 2.241 0 0 0 .117-.19 2.241 2.241 0 0 0 .098-.202 2.241 2.241 0 0 0 .076-.211 2.241 2.241 0 0 0 .056-.217 2.241 2.241 0 0 0 .032-.221 2.241 2.241 0 0 0 .011-.224 2.241 2.241 0 0 0-.004-.158 2.241 2.241 0 0 0-.028-.222 2.241 2.241 0 0 0-.048-.219 2.241 2.241 0 0 0-.072-.212 2.241 2.241 0 0 0-.09-.204 2.241 2.241 0 0 0-.111-.196 2.241 2.241 0 0 0-.13-.182 2.241 2.241 0 0 0-.148-.167 2.241 2.241 0 0 0-.165-.154 2.241 2.241 0 0 0-.178-.135 2.241 2.241 0 0 0-.19-.117 2.241 2.241 0 0 0-.203-.097 2.241 2.241 0 0 0-.21-.076 2.241 2.241 0 0 0-.217-.057 2.241 2.241 0 0 0-.222-.032 2.241 2.241 0 0 0-.223-.013z" fill="#fff" fill-rule="evenodd"/><path d="M2.809 22.29c-.079.117-.232.182-.3.306-.038.07-.021.16-.056.232.097-.196.236-.36.356-.539z" fill="#8e8e8e" fill-rule="evenodd"/><path d="M25.482 20.096c.483-.318.93-.674 1.26-1.116.385-.516.662-1.1.82-1.718.16-.618.2-1.269.114-1.916a5.135 5.135 0 0 0-.647-1.897 5.117 5.117 0 0 0-1.72-1.787 5.006 5.006 0 0 0-2.256-.748 4.861 4.861 0 0 0-2.826.639L4.33 20.729c-.114.066-.155.193-.262.267.275-.193.515-.432.827-.566a4.867 4.867 0 0 1 1.927-.397h18.356c.108 0 .198.056.304.063z" fill="#e74949" fill-rule="evenodd"/><path d="M20.545 11.48c.252-.51.46-1.034.523-1.574a4.93 4.93 0 0 0-.148-1.9 5.039 5.039 0 0 0-.86-1.717 5.14 5.14 0 0 0-1.51-1.318 5.1 5.1 0 0 0-2.864-.682 4.981 4.981 0 0 0-2.268.701 4.86 4.86 0 0 0-1.705 1.74L2.617 22.486c.07-.061.141-.121.192-.197.174-.26.297-.559.515-.781.212-.216.497-.338.744-.512.107-.074.148-.201.262-.267l15.897-9.176c.1-.058.216-.023.318-.073z" fill="#4d4e99" fill-rule="evenodd"/><path d="M11.906 6.531c-.035-.572-.12-1.134-.336-1.636a4.924 4.924 0 0 0-1.078-1.57 5.032 5.032 0 0 0-1.601-1.057c-.505-.209-1.07-.287-1.645-.325-2.976.125-5.348 2.521-5.348 5.53v17.054c0 .08.042.147.045.227.038-.574.116-1.14.325-1.645.043-.106.135-.179.185-.28.035-.073.018-.163.057-.233.024-.045.068-.075.107-.11L11.713 6.73c.049-.084.14-.118.193-.199z" fill="#4f4f4f" fill-rule="evenodd"/><path d="M30.116 24.753c-.037-.576-.116-1.144-.325-1.65a5.05 5.05 0 0 0-1.06-1.608 4.941 4.941 0 0 0-1.577-1.082 4.885 4.885 0 0 0-1.934-.398H6.798c-.687 0-1.34.143-1.935.398a4.941 4.941 0 0 0-1.576 1.082 5.05 5.05 0 0 0-1.06 1.607c-.21.507-.288 1.075-.326 1.65.126 2.988 2.53 5.368 5.55 5.368h17.116c3.02 0 5.424-2.38 5.55-5.367zM6.9 23.05a2.024 2.024 0 0 1 .202.012 2.024 2.024 0 0 1 .2.03 2.024 2.024 0 0 1 .196.05 2.024 2.024 0 0 1 .19.07 2.024 2.024 0 0 1 .182.087 2.024 2.024 0 0 1 .173.106 2.024 2.024 0 0 1 .16.122 2.024 2.024 0 0 1 .15.139 2.024 2.024 0 0 1 .133.15 2.024 2.024 0 0 1 .117.165 2.024 2.024 0 0 1 .1.177 2.024 2.024 0 0 1 .083.184 2.024 2.024 0 0 1 .064.192 2.024 2.024 0 0 1 .043.198 2.024 2.024 0 0 1 .026.2 2.024 2.024 0 0 1 .004.143 2.024 2.024 0 0 1-.01.202 2.024 2.024 0 0 1-.03.2 2.024 2.024 0 0 1-.05.196 2.024 2.024 0 0 1-.069.19 2.024 2.024 0 0 1-.088.182 2.024 2.024 0 0 1-.106.173 2.024 2.024 0 0 1-.122.163 2.024 2.024 0 0 1-.139.147 2.024 2.024 0 0 1-.15.133 2.024 2.024 0 0 1-.165.118 2.024 2.024 0 0 1-.177.102 2.024 2.024 0 0 1-.184.082 2.024 2.024 0 0 1-.192.063 2.024 2.024 0 0 1-.198.045 2.024 2.024 0 0 1-.2.023 2.024 2.024 0 0 1-.143.006 2.024 2.024 0 0 1-.202-.01 2.024 2.024 0 0 1-.2-.031 2.024 2.024 0 0 1-.196-.05 2.024 2.024 0 0 1-.19-.07 2.024 2.024 0 0 1-.182-.086 2.024 2.024 0 0 1-.173-.106 2.024 2.024 0 0 1-.163-.123 2.024 2.024 0 0 1-.147-.137 2.024 2.024 0 0 1-.133-.153 2.024 2.024 0 0 1-.117-.165 2.024 2.024 0 0 1-.102-.174 2.024 2.024 0 0 1-.083-.187 2.024 2.024 0 0 1-.062-.192 2.024 2.024 0 0 1-.046-.196 2.024 2.024 0 0 1-.023-.202 2.024 2.024 0 0 1-.006-.143 2.024 2.024 0 0 1 .01-.202 2.024 2.024 0 0 1 .031-.2 2.024 2.024 0 0 1 .05-.196 2.024 2.024 0 0 1 .068-.19 2.024 2.024 0 0 1 .088-.182 2.024 2.024 0 0 1 .106-.173 2.024 2.024 0 0 1 .123-.16 2.024 2.024 0 0 1 .138-.15 2.024 2.024 0 0 1 .153-.133 2.024 2.024 0 0 1 .164-.117 2.024 2.024 0 0 1 .175-.1 2.024 2.024 0 0 1 .184-.082 2.024 2.024 0 0 1 .192-.065 2.024 2.024 0 0 1 .198-.043 2.024 2.024 0 0 1 .202-.026 2.024 2.024 0 0 1 .143-.006z" fill="#ffc255" fill-rule="evenodd"/></svg>