<svg xmlns="http://www.w3.org/2000/svg" height="32" width="32" version="1"><path d="M15.999 16.001H1.218v8.937a5.83 5.83 0 0 0 5.844 5.844h8.937z" fill="#4785e2" fill-rule="evenodd"/><path d="M15.999 16.001v14.781h8.94a5.83 5.83 0 0 0 5.843-5.844v-8.937z" fill="#77e247" fill-rule="evenodd"/><path d="M7.062 1.218a5.83 5.83 0 0 0-5.844 5.844V16h14.781V1.218z" fill="#f2ae37" fill-rule="evenodd"/><path d="M15.999 1.218V16h14.783v-8.94a5.83 5.83 0 0 0-5.844-5.843z" fill="#4785e2" fill-rule="evenodd"/><path d="M9.114 4.114l1.545 3.291 3.455.528-2.5 2.563.59 3.618-3.09-1.709-3.09 1.709.59-3.618-2.5-2.563 3.454-.528z" fill="#3f3f3f"/><circle cy="9.113" cx="23.113" r="5" fill="#3f3f3f"/><path fill="#3f3f3f" d="M18.113 18.113h10v10h-10z"/><circle cy="23.113" cx="9.113" r="5" fill="#3f3f3f"/></svg>