<svg xmlns="http://www.w3.org/2000/svg" height="32" width="32"><rect width="28.203" height="28.203" x="1.898" y="1.898" ry="5.575" fill="#06987e" fill-rule="evenodd"/><g transform="matrix(.7356 0 0 .7356 4.23 4.23)" stroke-width="1.359"><rect x="-30" y="-30" width="28" height="28" transform="matrix(0 -1 -1 0 0 0)" rx="14" ry="14" fill="#20b293"/><path d="M15.097 7v2.026c-2.964.357-5.368 2.46-6.098 5.216h1.873c.769-1.99 2.807-3.542 5.029-3.526h.161c.81.01 1.603.2 2.322.549 1.296.567 2.258 1.687 2.726 2.98H23c-.73-2.755-3.135-4.86-6.098-5.217V7.003h-1.805zm.902 5.173c-2.198 0-3.978 1.726-3.978 3.87 0 0-.027.363.087.774h6.112a2.303 2.303 0 0 1-.864 1.12c-.924.71-2.325.45-3.112-.344h-1.892c.615 1.366 2.015 2.32 3.647 2.32 2.2 0 3.979-1.73 3.979-3.87 0 0 0-.397-.08-.773h-6.112c.344-.847 1.167-1.53 2.12-1.539h.143c.64.014 1.26.308 1.692.768h1.906c-.615-1.366-2.018-2.323-3.648-2.323zm-7 5.585c.73 2.755 3.134 4.86 6.098 5.217V25h1.805v-2.026c2.964-.36 5.367-2.46 6.097-5.216h-1.862c-.73 2.09-2.989 3.602-5.269 3.524-2.223.01-4.235-1.534-4.99-3.524H9z" fill="#fff"/></g></svg>