<svg xmlns="http://www.w3.org/2000/svg" height="32" width="32" version="1"><rect width="28.203" height="28.203" x="1.898" y="1.898" ry="5.575" fill="#0083c4" fill-rule="evenodd"/><g transform="matrix(.80384 0 0 .80384 3.139 3.139)" stroke-width="1.244"><rect x="-30" y="-30" width="28" height="28" ry="14" rx="14" transform="matrix(0 -1 -1 0 0 0)" fill="#1ca4d4"/><path d="M16 6A10 10 0 0 0 6 16a10 10 0 0 0 10 10 10 10 0 0 0 10-10 10 10 0 0 0-.615-3.414l.021-.016-.052-.074A10 10 0 0 0 16 6zm0 1a9 9 0 0 1 7.988 4.861l-6.24 4.459-10.646.967A9 9 0 0 1 7 16a9 9 0 0 1 9-9zm8.539 6.189A9 9 0 0 1 25 16a9 9 0 0 1-2.607 6.326l-3.434-5.15zm-6.891 4.545l3.674 5.51A9 9 0 0 1 16 25a9 9 0 0 1-8.586-6.334l10.234-.932z" fill="#fff"/><g fill="#fff"><circle r="2" cx="7" cy="18"/><circle r="2" cx="22" cy="23"/><circle r="2" cx="25" cy="12"/><circle r="2" cx="18" cy="17"/></g></g></svg>