<svg xmlns="http://www.w3.org/2000/svg" height="32" width="32"><rect width="28.203" height="28.203" x="1.898" y="1.898" ry="5.575" fill="#196260" fill-rule="evenodd"/><g fill-rule="evenodd"><path d="M15.934 1.898l-1.96 2.452L16 6.88V16h9.12l2.53-2.025 2.452 1.959V7.473a5.563 5.563 0 0 0-5.577-5.575h-7.132z" fill="#196260"/><path d="M1.898 16.066l2.452 1.96L6.88 16H16V6.88l-2.025-2.53 1.959-2.452H7.473a5.563 5.563 0 0 0-5.575 5.577v7.132z" fill="#5d7dbd"/><path d="M30.102 15.934l-2.452-1.96L25.12 16H16v9.12l2.025 2.53-1.959 2.452h8.461a5.563 5.563 0 0 0 5.575-5.577v-7.132z" fill="#3f96b9"/><path d="M16.066 30.102l1.96-2.452L16 25.12V16H6.88l-2.53 2.025-2.452-1.959v8.461a5.563 5.563 0 0 0 5.577 5.575h7.132z" fill="#97c33d"/></g><circle cx="16" r="9" cy="16" fill="#f9f9f9"/></svg>