<svg xmlns="http://www.w3.org/2000/svg" height="32" width="32" viewBox="0 0 8.47 8.47"><rect width="7.465" height="7.465" x=".502" y=".502" ry="1.476" fill="#0d69bc" fill-rule="evenodd"/><g stroke-width="1.262"><path d="M4.243 1.299c-.02 0-.04.007-.054.02a11.776 11.776 0 0 0-.597.628 6.432 6.432 0 0 0-1.064 1.661c-.237.545-.375 1.016-.5 1.702a10.217 10.217 0 0 0-.096.664.892.892 0 0 0-.003.082c0 .004 0 .008.003.015.002.008 0 .023.032.041.018.01.02.008.024.01A.185.185 0 0 0 2 6.123l.023.002.06.004c.176.01.437.05.61.098a2.306 2.306 0 0 1 .375.132l.022.008.007.003.003.002h.005l.003.002h-.003l.019.01.074.038c.279.145.487.294.82.59a6.523 6.523 0 0 0 .168.142l.008.005a.085.085 0 0 0 .009.004c.004.002.008.006.028.007.024.001.029-.004.034-.006l.01-.004a3.97 3.97 0 0 1 .792-.62c.417-.258.79-.372 1.363-.416l.046-.004c.037-.003.066-.032.066-.066v-.026c0-.052-.014-.16-.032-.296a9.904 9.904 0 0 0-.062-.404c-.126-.692-.269-1.18-.508-1.731a6.368 6.368 0 0 0-.896-1.456c-.248-.272-.488-.557-.75-.822a.075.075 0 0 0-.05-.021z" fill="#0278dc"/><path d="M4.243 1.3c-.02 0-.04.007-.054.02-.172.167-.344.35-.507.53l.555 3.215.55-3.21c-.161-.18-.322-.36-.493-.533a.075.075 0 0 0-.05-.022zm-.006 3.765l1.688-1.487a6 6 0 0 0-.421-.778zm0 0l2.089-.3a6.892 6.892 0 0 0-.175-.604zm0 0L6.47 6.123h.006c.037-.003.066-.032.066-.067v-.022c0-.052-.014-.16-.032-.294-.009-.068-.02-.133-.031-.203l-.04-.15zm0 0l.818 1.473.044-.016c.156-.093.306-.166.464-.224zm0 0l-.347 1.84c.042.035.082.068.128.109a6.485 6.485 0 0 0 .154.131l.014.011a.129.129 0 0 0 .008.006h.002l.04.008.115-.069c.032-.027.072-.06.115-.098.042-.037.066-.054.102-.085zm0 0l-1.314 1.24.076.028.069.028.021.009.008.002.003.002.005.001.003.001h-.003l.019.01.074.038c.075.039.144.078.212.12zm0 0l-2.216.29a10.324 10.324 0 0 0-.09.624.889.889 0 0 0-.003.058v.02l.004.016c.002.007 0 .022.032.04.018.01.02.009.025.01l.01.002.024.003.06.004.106.009zm0 0L2.32 4.16a6.74 6.74 0 0 0-.17.578zm0 0L2.973 2.787c-.153.24-.286.486-.401.738z" fill="#48a0f8" fill-rule="evenodd"/></g></svg>