<svg xmlns="http://www.w3.org/2000/svg" height="32" width="32"><rect width="28.203" height="28.203" x="1.898" y="1.898" ry="5.575" fill="#2293da" fill-rule="evenodd"/><path d="M18.132 8.54a4.974 4.974 0 0 0-4.622 3.148 3.553 3.553 0 0 0-2.484-1.017 3.553 3.553 0 0 0-3.552 3.553 3.553 3.553 0 0 0 .347 1.523 4.263 4.263 0 0 0-1.768 3.45 4.263 4.263 0 0 0 4.263 4.263h9.947a5.684 5.684 0 0 0 5.684-5.684 5.684 5.684 0 0 0-2.895-4.95 4.974 4.974 0 0 0-4.92-4.286z" fill="#46b4ff"/><g stroke-width="1.407" fill="#fff"><path d="M16 13.522a3.553 3.553 0 0 0-3.478 2.842h1.471A2.132 2.132 0 0 1 16 14.944a2.132 2.132 0 0 1 2.008 1.42h1.472A3.553 3.553 0 0 0 16 13.522zm-3.48 4.263A3.553 3.553 0 0 0 16 20.627a3.553 3.553 0 0 0 3.478-2.842h-1.471A2.132 2.132 0 0 1 16 19.206a2.132 2.132 0 0 1-2.008-1.42z"/><path d="M19.553 16.364H16.71l2.842-2.842zM12.447 17.075h2.842l-2.842 2.842z"/></g></svg>