<svg xmlns="http://www.w3.org/2000/svg" width="32" height="32"><rect width="28.203" height="28.203" x="1.898" y="1.898" ry="5.575" fill="#48aeff" fill-rule="evenodd"/><g fill="#fff"><g><rect ry="1.444" y="10" x="10" height="13" width="3"/><path d="M11.446 9.001a.998.743 0 0 0-.81.37l-3.502 4.515A.998.743 0 0 0 7.998 15h7.004a.998.743 0 0 0 .864-1.114L12.364 9.37a.998.743 0 0 0-.918-.37z"/></g><g transform="matrix(1 0 0 -1 9 32)"><rect ry="1.444" y="10" x="10" height="13" width="3"/><path d="M11.446 9.001a.998.743 0 0 0-.81.37l-3.502 4.515A.998.743 0 0 0 7.998 15h7.004a.998.743 0 0 0 .864-1.114L12.364 9.37a.998.743 0 0 0-.918-.37z"/></g></g></svg>