<svg xmlns="http://www.w3.org/2000/svg" width="32" height="32"><rect width="28.203" height="28.203" x="1.898" y="1.898" ry="5.575" fill="#00ba6e" fill-rule="evenodd"/><path d="M9.084 30.102h15.441a5.565 5.565 0 0 0 5.577-5.577V7.473a5.563 5.563 0 0 0-5.577-5.575H9.084z" fill="#54d081" fill-rule="evenodd"/><path d="M9.084 30.102V1.898H7.473a5.561 5.561 0 0 0-5.575 5.575v17.052a5.563 5.563 0 0 0 5.575 5.577z" fill="#00ba6e" fill-rule="evenodd"/><path d="M7.68 1.922v10.35l2-2 2 2V1.922z" fill="#afe789"/><path d="M18.287 23.793a1.63 1.63 0 0 0 1.325-1.166c.066-.238.068-.785.004-1.014-.205-.742-.874-1.226-1.693-1.226-1.117 0-1.886.92-1.711 2.048a1.62 1.62 0 0 0 1.252 1.335c.327.07.5.075.823.023zm.92-5.108c0-.485.172-.911.506-1.248.25-.252.257-.258.734-.588.82-.567 1.564-1.219 1.8-1.573.224-.34.268-.417.377-.67.295-.682.351-1.526.158-2.374-.36-1.583-1.79-2.653-3.865-2.892-.96-.11-1.958-.033-2.66.205-1.156.392-1.963 1.14-2.404 2.227-.228.56-.39 1.34-.39 1.886v.182h2.833v-.204c0-.112.043-.35.096-.527.264-.885.69-1.3 1.413-1.375.695-.072 1.311.073 1.604.376.277.288.482.834.485 1.29.002.59-.46 1.275-1.205 1.777-.394.266-.472.324-.997.743-.99.79-1.187 1.17-1.232 2.37l-.022.604h2.768z" fill="#fff"/></svg>