<svg xmlns="http://www.w3.org/2000/svg" width="32" height="32" version="1"><path d="M30.102 10.187H1.898v5.25h28.204z" fill="#436a7f" fill-rule="evenodd"/><path d="M7.473 1.836A5.561 5.561 0 0 0 1.898 7.41v2.777h28.204V7.41a5.561 5.561 0 0 0-5.575-5.574H7.473z" fill="#ccc" fill-rule="evenodd"/><path d="M30.102 15.437H1.898v9.93a5.561 5.561 0 0 0 5.575 5.574h17.052a5.563 5.563 0 0 0 5.577-5.574z" fill="#2a88ae" fill-rule="evenodd"/><circle cx="8.035" cy="18.004" r="1.025" fill="#3c5d6f" fill-rule="evenodd"/><circle cx="24.454" cy="18.021" r="1.025" fill="#3c5d6f" fill-rule="evenodd"/><path d="M8.086 18.39c.765 11.788 15.73 10.67 16.301 0" fill="none" stroke="#fff" stroke-width="1.291" stroke-linecap="round"/></svg>