<svg xmlns="http://www.w3.org/2000/svg" height="32" width="32" version="1"><g transform="translate(45.424 -3.797)"><rect ry="5.575" y="5.695" x="-43.525" height="28.203" width="28.203" fill="#5f7c8a" fill-rule="evenodd"/><path d="M-23.784 18.997c-.42-.012-.47-.025-.54-.137a3.057 3.057 0 0 1-.1-.462c-.072-.437-.116-.568-.216-.64a7.645 7.645 0 0 0-.882-.383c-.117-.022-.204.018-.592.269-.515.332-.516.332-.838-.001-.13-.134-.363-.379-.518-.542-.28-.298-.28-.298-.28-.404 0-.1.014-.126.26-.476.362-.514.355-.467.143-1.019-.172-.447-.23-.544-.358-.595a6.828 6.828 0 0 0-.467-.111 4.905 4.905 0 0 1-.452-.11.3.3 0 0 1-.084-.092c-.038-.062-.042-.11-.04-.45.002-.21.007-.544.016-.744l.014-.364.069-.069c.065-.065.09-.072.526-.15.533-.093.599-.123.686-.314.152-.332.303-.69.32-.757.031-.131-.007-.221-.256-.605a4.933 4.933 0 0 1-.253-.418c-.046-.13-.002-.194.443-.623.627-.604.633-.608.756-.608.097 0 .125.015.471.261.369.262.485.319.6.296.034-.007.24-.082.458-.167.408-.159.51-.221.559-.344.012-.032.061-.242.109-.467.047-.225.101-.433.12-.461a.32.32 0 0 1 .104-.088c.063-.033.14-.035.776-.02.515.01.721.023.761.044.118.06.131.097.219.588.109.612.077.57.61.804.22.097.434.183.474.191.122.025.221-.019.593-.26a3.76 3.76 0 0 1 .421-.25c.134-.037.193.003.563.388.7.727.665.686.665.806 0 .1-.014.125-.262.474-.264.373-.317.482-.294.606.007.038.082.244.166.459.157.4.22.502.344.55.031.013.242.063.469.112.226.048.434.102.461.12a.317.317 0 0 1 .086.102c.032.062.034.142.02.777-.017.776-.02.797-.154.873a3.06 3.06 0 0 1-.477.106c-.43.072-.518.1-.595.181-.053.056-.387.809-.407.917-.021.113.022.206.275.597.129.199.237.386.24.415.013.144-.002.177-.138.308-.651.629-.917.878-.948.89a.475.475 0 0 1-.125.017c-.079.001-.126-.026-.444-.252-.405-.288-.472-.322-.597-.305-.096.014-.82.292-.906.348-.095.063-.143.189-.234.618-.049.23-.105.444-.125.474-.082.126-.133.13-1.215.097z" fill="#ccc"/><path d="M-30.572 30.67c-.115-.053-.144-.088-.381-.459-.52-.813-.503-.791-.684-.888l-.11-.058-.69-.006c-.766-.008-.823 0-.978.128-.045.036-.252.319-.46.627-.367.54-.384.562-.488.607-.194.083-.076.123-1.704-.576a9.146 9.146 0 0 1-.527-.238.482.482 0 0 1-.112-.155c-.07-.142-.076-.084.112-.95.136-.623.138-.672.037-.86-.085-.156-.955-1.033-1.076-1.085-.178-.076-.213-.074-.926.063-.405.077-.704.125-.738.116a.47.47 0 0 1-.258-.166 20.2 20.2 0 0 1-.43-1.026c-.355-.882-.384-.966-.376-1.068.016-.2.052-.233.67-.63.31-.199.59-.392.622-.43a.892.892 0 0 0 .103-.166c.043-.093.046-.133.046-.826 0-.703-.003-.731-.047-.815-.072-.135-.155-.203-.69-.564-.274-.185-.52-.358-.548-.384a.436.436 0 0 1-.112-.318c.012-.091.782-1.91.852-2.013a.47.47 0 0 1 .142-.118c.13-.07.2-.062.889.09.313.07.604.122.674.122.223 0 .302-.056.83-.579.518-.513.567-.582.567-.798 0-.062-.055-.393-.122-.737-.11-.57-.119-.634-.095-.726.05-.2.078-.216 1.15-.644 1.053-.42 1.088-.43 1.262-.34.075.037.13.108.354.45.146.224.314.484.373.578.117.185.184.248.344.319.097.043.144.045.814.05l.71.003.11-.058a.751.751 0 0 0 .165-.12c.031-.033.22-.303.42-.598.328-.486.372-.541.46-.584.174-.084.225-.07 1.268.378.52.223.968.427.997.454a.492.492 0 0 1 .135.289c0 .036-.059.337-.13.67-.074.341-.13.66-.13.729 0 .215.05.287.59.832.428.435.498.497.593.528a.779.779 0 0 0 .196.034c.049 0 .366-.054.703-.12.338-.065.641-.119.674-.118a.47.47 0 0 1 .29.146c.03.037.222.483.442 1.03.43 1.07.434 1.088.328 1.268-.047.081-.127.14-.581.428-.29.184-.572.378-.628.433-.158.155-.169.208-.186.955-.016.71-.006.8.116.966.04.056.249.211.625.466.506.343.57.394.615.48.092.184.088.199-.365 1.26-.452 1.06-.461 1.076-.662 1.132-.09.025-.14.018-.757-.116-.364-.08-.685-.144-.714-.144-.127 0-.354.1-.434.189-.02.021-.228.23-.463.462-.368.365-.432.439-.47.539a.713.713 0 0 0-.043.201c0 .047.054.367.121.712.077.393.118.656.11.708a.428.428 0 0 1-.204.294c-.045.023-.5.21-1.01.414-.637.255-.955.372-1.011.372a.491.491 0 0 1-.17-.04z" fill="#fff"/><circle r="3.787" cy="22.732" cx="-32.383" fill="#5f7c8a"/><circle r="2.445" cy="13.604" cx="-23.337" fill="#5f7c8a"/></g></svg>