<svg xmlns="http://www.w3.org/2000/svg" height="32" width="32" version="1"><rect width="28.203" height="28.203" x="1.898" y="1.898" ry="5.575" fill="#3e913a" fill-rule="evenodd"/><path d="M19.2 23.95c1.548-.598 2.786-1.686 3.485-3.063a6.22 6.22 0 0 0 .66-2.302 9.868 9.868 0 0 0 0-1.158c-.115-1.214-.478-2.394-1.09-3.553l-.138-.26H10.75l-.138.26c-.612 1.159-.975 2.34-1.09 3.553-.023.24-.023.932 0 1.158a6.22 6.22 0 0 0 .66 2.302c.699 1.377 1.949 2.475 3.489 3.064l.174.066h5.182l.171-.067zm4.834-3.555c.77-.387 1.425-.874 1.868-1.39.26-.303.406-.516.556-.813.18-.355.282-.683.347-1.11.03-.196.034-.637.007-.786a2.64 2.64 0 0 0-.716-1.384c-.448-.464-.977-.733-1.642-.834a5.145 5.145 0 0 0-.928-.006c-.09.01-.17.02-.179.023-.01.003.019.088.082.24.054.128.128.313.164.41l.065.176h.286c.304 0 .43.013.64.07a1.9 1.9 0 0 1 1.285 1.14c.095.24.117.427.088.722-.066.65-.34 1.211-.846 1.73-.263.27-.593.535-.905.727-.057.036-.105.074-.105.085 0 .04-.096.454-.144.618a8.51 8.51 0 0 1-.101.324c-.03.088-.053.163-.05.165.002.003.105-.045.228-.107zM9.01 20.342a7.762 7.762 0 0 1-.277-1.116c-.193-1.15-.103-2.394.265-3.66l.041-.141-.093-.096a1.75 1.75 0 0 1-.294-.382c-.137-.227-.21-.411-.348-.879-.12-.406-.174-.563-.25-.723-.145-.31-.346-.495-.615-.568-.08-.022-.171-.024-1.016-.024h-.928l-.076.036a.416.416 0 0 0-.25.392c0 .091.006.114.048.196.04.078.064.106.147.168.113.086.157.145.242.324.126.268.208.558.538 1.922.298 1.227.607 2.051 1.046 2.784.395.658.876 1.17 1.468 1.56.164.108.352.219.352.207zm12.57-7.62a5.518 5.518 0 0 0-.75-.751 6.072 6.072 0 0 0-2.134-1.087 7.84 7.84 0 0 0-.762-.177.226.226 0 0 1-.064-.014c0-.003.03-.058.067-.123.262-.457.3-1.026.099-1.516a1.764 1.764 0 0 0-.988-.961 1.762 1.762 0 0 0-1.272.017c-.433.177-.797.55-.961.987a1.743 1.743 0 0 0 .116 1.475.93.93 0 0 1 .064.122 3.35 3.35 0 0 1-.173.034c-.979.177-1.943.595-2.682 1.163-.301.231-.667.588-.853.832-.017.022.23.024 5.147.024 4.916 0 5.164-.002 5.146-.024zm-5.329-2.163a.875.875 0 0 1-.427-.237.853.853 0 0 1 0-1.22.853.853 0 0 1 1.22 0 .853.853 0 0 1 0 1.22.856.856 0 0 1-.793.237z" fill="#fff"/></svg>