<svg xmlns="http://www.w3.org/2000/svg" height="32" width="32" version="1"><rect width="28.203" height="28.203" x="1.898" y="1.898" ry="5.575" fill="#d65c2f" fill-rule="evenodd"/><path d="M16.866 5.04a11 11 0 0 0-10.789 6.23l6.016 1.613a5 5 0 0 1 3.16-1.82l1.613-6.022zm3.863 1.037l-1.612 6.017a5 5 0 0 1 1.82 3.159l6.023 1.613a11 11 0 0 0-6.231-10.79zM5.04 15.134a11 11 0 0 0 6.23 10.789l1.613-6.016a5 5 0 0 1-1.821-3.16L5.04 15.134zm14.866 3.983a5 5 0 0 1-3.159 1.82l-1.613 6.023a11 11 0 0 0 10.789-6.23l-6.017-1.613z" fill="#fff"/></svg>