<svg xmlns="http://www.w3.org/2000/svg" height="32" width="32" version="1"><rect width="28.203" height="28.203" x="1.898" y="1.898" ry="5.575" fill="#3d6080" fill-rule="evenodd"/><g transform="translate(43.463 -1.193)"><path d="M-28.717 31.295V29.25l2.791-.035c.607 0 1.193-.254 1.627-.658.434-.405.717-.96.717-1.565v-2.89l1.23-.018c.58-.008.997-.172 1.202-.463.205-.29.197-.708-.073-1.223l-2.345-3.7-.014-.714v-1.916l-.002-.095c.01-.162.011-.327.014-.489 0-.063-.011-.122-.014-.185l.008-.2a10.251 10.251 0 0 0-3.012-7.269 10.251 10.251 0 0 0-7.27-3.012c-.727.003-2.35-.014-3.96.043-1.006.036-1.647.188-2.416.305-.794.963-1.33 2.151-1.33 3.502v17.053a5.563 5.563 0 0 0 5.576 5.574z" fill="#7a9bbb" fill-rule="evenodd"/><path d="M-35.988 3.092c-1.738 0-3.225.835-4.246 2.074.77-.117 1.41-.27 2.416-.305 1.61-.057 3.233-.04 3.96-.043a10.251 10.251 0 0 1 7.27 3.012 10.251 10.251 0 0 1 3.012 7.27l-.008.199c.003.063.014.122.014.185-.003.162-.004.327-.014.489l.002.095v1.916l.014.713 2.345 3.701c.27.515.278.933.073 1.223-.205.29-.622.455-1.202.463l-1.23.018v2.89c0 .605-.283 1.16-.717 1.565a2.416 2.416 0 0 1-1.627.658l-2.79.035v2.045h9.78a5.561 5.561 0 0 0 5.575-5.574V8.668a5.563 5.563 0 0 0-5.575-5.576z" fill="#3d6080" fill-rule="evenodd"/><rect x="-37.711" y="4.819" width="3.855" height="7.71" ry="1.927" rx="1.927" fill="#4c4c4c"/><circle cy="26.021" cx="-24.219" r="1.927" fill="#4c4c4c"/><path d="M-35.784 15.741l11.565 10.28" fill="none" stroke="#4c4c4c"/><path d="M-31.287 15.741a4.497 4.497 0 0 1-4.497 4.498 4.497 4.497 0 0 1-4.497-4.498 4.497 4.497 0 0 1 4.497-4.497 4.497 4.497 0 0 1 4.497 4.497z" fill="#4cff83"/></g></svg>