<svg xmlns="http://www.w3.org/2000/svg" height="32" width="32" version="1"><path d="M30 6.969c-.054-.579-.12-1.157-.336-1.67A5.563 5.563 0 0 0 26.7 2.334c-.511-.216-1.089-.28-1.666-.334H16v14h14z" fill="#21d789"/><path d="M6.965 2c-.577.054-1.155.118-1.666.334a5.563 5.563 0 0 0-2.965 2.965c-.216.511-.28 1.089-.334 1.666V16h14V2z" fill="#6655e4"/><path d="M25.035 30c.577-.054 1.155-.118 1.666-.334a5.563 5.563 0 0 0 2.965-2.965c.216-.511.28-1.089.334-1.666V16H16v14z" fill="#2086e7"/><path d="M2 25.031c.054.579.12 1.157.336 1.67A5.563 5.563 0 0 0 5.3 29.666c.511.216 1.089.28 1.666.334H16V16H2z" fill="#14ddb1"/><rect width="21.424" height="21.424" x="5.288" y="5.288" ry="4.235" fill="#3f3f3f" fill-rule="evenodd"/><g fill="none" stroke="#fff" stroke-width="2" stroke-linecap="round"><path d="M20.815 16.007s0 .805-1.602.805c-1.603 0-1.603-1.61-1.603-3.222 0-1.61 0-3.222 1.603-3.222 1.602 0 1.602.806 1.602.806" stroke-linejoin="bevel"/><path d="M11.199 21.645h6.41M11.199 10.369h3.205m-1.603 6.443V10.37"/></g></svg>