<svg xmlns="http://www.w3.org/2000/svg" height="32" width="32"><rect width="28.203" height="28.203" x="1.898" y="1.898" ry="5.575" fill="#fdc33b" fill-rule="evenodd"/><g transform="translate(48 .454)"><path d="M-23.785 23.51c-.002 1.455-.361 1.94-4.936 1.94-1.3 0-2.884.115-3.717-.408-.787-.494-.504-1.218-.504-1.955 0-1.518 1.487-2.583 4.016-2.583s5.143 1.487 5.141 3.006z" fill="#e9980a"/><path d="M-32 5.631a9.207 9.207 0 0 0-9.207 9.207A9.207 9.207 0 0 0-32 24.045a9.207 9.207 0 0 0 9.207-9.207A9.207 9.207 0 0 0-32 5.63z" fill="#fff"/><path d="M-31.292 23.51c-.002 1.455-.361 1.94-4.936 1.94-1.3 0-2.884.115-3.717-.408-.787-.494-.504-1.218-.504-1.955 0-1.518 1.487-2.583 4.016-2.583s5.143 1.487 5.141 3.006z" fill="#e9980a"/><ellipse ry="2.125" rx="1.416" cy="13.421" cx="-33.416" fill="#414141"/><ellipse cx="-29.167" cy="13.421" rx="1.416" ry="2.125" fill="#414141"/></g></svg>