<svg xmlns="http://www.w3.org/2000/svg" height="32" width="32"><rect width="28.203" height="28.203" x="1.898" y="1.898" ry="5.575" fill="#7d122b" fill-rule="evenodd"/><path d="M16.72 10.596a7.926 7.926 0 0 0-7.925 7.926 7.926 7.926 0 0 0 7.926 7.925 7.926 7.926 0 0 0 7.925-7.925 7.926 7.926 0 0 0-7.925-7.926z" fill="#ba122b"/><path d="M16.72 5.553a6.485 6.485 0 0 0-6.484 6.484 6.485 6.485 0 0 0 6.485 6.485 6.485 6.485 0 0 0 6.484-6.485 6.485 6.485 0 0 0-6.484-6.484z" fill="#e9314e"/><path d="M12.397 9.155A5.044 5.044 0 0 0 7.354 14.2a5.044 5.044 0 0 0 5.043 5.043 5.044 5.044 0 0 0 5.044-5.043 5.044 5.044 0 0 0-5.044-5.044z" fill="#ef6e82"/><g stroke-width="1.388" fill="#fff"><path d="M16.72 12.037a6.485 6.485 0 0 0-6.484 6.485 6.485 6.485 0 0 0 6.485 6.484 6.485 6.485 0 0 0 6.484-6.484 6.485 6.485 0 0 0-6.484-6.485zm0 1.441a5.044 5.044 0 0 1 5.044 5.044 5.044 5.044 0 0 1-5.043 5.043 5.044 5.044 0 0 1-5.044-5.043 5.044 5.044 0 0 1 5.044-5.044z"/><path d="M12.397 10.596A3.603 3.603 0 0 0 8.795 14.2a3.603 3.603 0 0 0 3.602 3.602A3.603 3.603 0 0 0 16 14.2a3.603 3.603 0 0 0-3.603-3.603zm0 1.441A2.162 2.162 0 0 1 14.56 14.2a2.162 2.162 0 0 1-2.162 2.161 2.162 2.162 0 0 1-2.161-2.161 2.162 2.162 0 0 1 2.161-2.162z"/><path d="M16.72 6.994a5.044 5.044 0 0 0-5.043 5.043 5.044 5.044 0 0 0 5.044 5.044 5.044 5.044 0 0 0 5.043-5.044 5.044 5.044 0 0 0-5.043-5.043zm0 1.44a3.603 3.603 0 0 1 3.603 3.603 3.603 3.603 0 0 1-3.602 3.603 3.603 3.603 0 0 1-3.603-3.603 3.603 3.603 0 0 1 3.603-3.602z"/></g></svg>