<svg xmlns="http://www.w3.org/2000/svg" height="32" width="32" version="1"><rect width="28.203" height="28.203" x="1.898" y="1.898" ry="5.575" fill="#1c4458" fill-rule="evenodd"/><path d="M17.197 22.386c-.362-.22-.593-.6-1.599-2.633-.556-1.126-1.086-2.126-1.177-2.222-.102-.108-.941-.554-2.194-1.166-2.476-1.208-2.727-1.4-2.727-2.085 0-.32.156-.625.4-.784.084-.055 2.673-.981 5.752-2.058 5.412-1.893 5.613-1.958 5.982-1.935.32.02.413.052.567.198.23.22.334.525.289.85-.048.35-3.933 11.324-4.078 11.518-.308.415-.83.551-1.215.318z" fill="#fff"/></svg>