<svg xmlns="http://www.w3.org/2000/svg" width="32" height="32"><rect width="28.203" height="28.203" x="1.898" y="1.898" ry="5.575" fill="#80bbb2" fill-rule="evenodd"/><g transform="translate(44.082 -1.194)"><path d="M-28.056 6.538a1.127 1.127 0 0 0-.586.147l-8.395 4.777a1.1 1.1 0 0 0-.56.956v9.553c0 .394.213.758.56.955l8.395 4.777c.346.197.773.197 1.12 0l8.395-4.777a1.1 1.1 0 0 0 .56-.955v-9.553a1.1 1.1 0 0 0-.56-.956l-8.395-4.777a1.133 1.133 0 0 0-.534-.147z" fill="#9ed5ca"/><circle r="3.045" cy="14.91" cx="-30.746" fill="#ffd16d"/><path d="M-27.32 14.15a3.425 3.425 0 0 0-2.854 1.532 3.425 3.425 0 0 0-.192-.01 3.425 3.425 0 0 0-3.425 3.425 3.425 3.425 0 0 0 3.425 3.425h6.47a2.284 2.284 0 0 0 2.284-2.283 2.284 2.284 0 0 0-2.284-2.284 2.284 2.284 0 0 0-.023.002 3.425 3.425 0 0 0 .023-.382 3.425 3.425 0 0 0-3.425-3.426z" fill="#e8f3f2"/></g></svg>