<svg xmlns="http://www.w3.org/2000/svg" height="32" width="32" version="1"><rect width="28.203" height="28.203" x="1.898" y="1.898" ry="5.575" fill="#d42c2c" fill-rule="evenodd"/><g fill-rule="evenodd"><path d="M16 16H1.898v8.525a5.563 5.563 0 0 0 5.575 5.577H16z" fill="#d84141"/><path d="M16 16v14.102h8.525a5.565 5.565 0 0 0 5.577-5.577V16z" fill="#dc5454"/><path d="M16 1.898H7.473a5.561 5.561 0 0 0-5.575 5.575V16H16z" fill="#d42c2c"/><path d="M16 1.898V16h14.102V7.473a5.563 5.563 0 0 0-5.577-5.575z" fill="#d84141"/></g><path d="M4.125 11.752h5v1h-5zM4.125 5.752h11v1h-11zM4.125 7.752h8v1h-8zM4.125 9.752h6v1h-6zM17.634 23.177h7v1h-7zM17.634 19.177h8v1h-8zM17.634 21.177h11v1h-11zM17.634 25.177h9v1h-9z" fill="#fff"/></svg>