<svg xmlns="http://www.w3.org/2000/svg" height="32" width="32" version="1"><rect width="28.203" height="28.203" x="1.898" y="1.898" ry="5.575" fill="#5d5544" fill-rule="evenodd"/><g fill="#ffbe23"><path d="M7.463 6.65v1h-.5c-.831 0-1.5.668-1.5 1.5 0 .83.669 1.5 1.5 1.5h.5v1H5.554c.206.581.754 1 1.409 1h.5v1h1v-1h.5c.83 0 1.5-.67 1.5-1.5 0-.832-.67-1.5-1.5-1.5h-.5v-1h1.908c-.206-.583-.754-1-1.408-1h-.5v-1h-1zm-.5 2h.5v1h-.5a.499.499 0 1 1 0-1zm1.5 2h.5c.277 0 .5.222.5.5 0 .276-.224.512-.5.5h-.5z"/><path opacity=".5" d="M12.463 6.65h5v7h-5z"/></g></svg>