<svg xmlns="http://www.w3.org/2000/svg" height="32" width="32" version="1"><rect width="28.203" height="28.203" x="1.898" y="1.898" ry="5.575" fill="#846037" fill-rule="evenodd"/><path d="M15.729 14.978a2.195 2.195 0 0 1-1.082.287c-.04 0-.077-.008-.116-.01v4.096l-.936-1.043a.98.98 0 0 1-.779.385.98.98 0 0 1-.024.211l1.739 1.901v3.107c-1.208.387-1.47 1.303-1.47 2.373h5.878c0-1.07-.262-1.986-1.47-2.373V22.9l1.775-1.715a.98 1.05 0 0 1-.06-.356.98 1.05 0 0 1 .132-.527.98 1.05 0 0 1-.006-.008.98 1.05 0 0 1-.126.01.98 1.05 0 0 1-.414-.099l-1.3 1.24v-6.289c-.212.066-.43.11-.658.11-.38 0-.754-.1-1.083-.287z" fill="#a57959"/><path d="M15.729 5.715c-.575 0-1.126.225-1.531.624a2.205 2.205 0 0 0-.634-.093c-1.196 0-2.166.95-2.166 2.122.001.5.182.984.511 1.366a2.114 2.114 0 0 0-1.052 1.818 2.132 2.132 0 0 0 1.682 2.066c.226.963 1.1 1.646 2.108 1.647.38 0 .754-.1 1.082-.287.329.187.702.287 1.083.287.78 0 1.5-.413 1.884-1.079 1.087-.128 1.904-1.032 1.906-2.105 0-.06-.005-.12-.01-.18.354-.388.55-.89.55-1.41a2.132 2.132 0 0 0-1.681-2.067 2.15 2.15 0 0 0-1.85-1.631 2.173 2.173 0 0 0-1.882-1.078zm-3.892 11.02a.98.98 0 0 0-.98.98.98.98 0 0 0 .132.489.98.98 0 0 0-.132.49.98.98 0 0 0 .98.98.98.98 0 0 0 .979-.98.98.98 0 0 0 .98-.98.98.98 0 0 0-.98-.98.98.98 0 0 0-.49.133.98.98 0 0 0-.489-.132zm7.347 1.469a.98 1.05 0 0 0-.98 1.049.98 1.05 0 0 0 .98 1.05.98 1.05 0 0 0 .126-.01.98 1.05 0 0 0 .006.008.98 1.05 0 0 0-.132.527.98 1.05 0 0 0 .979 1.05.98 1.05 0 0 0 .98-1.05.98 1.05 0 0 0-.133-.525.98 1.05 0 0 0 .133-.525.98 1.05 0 0 0-.98-1.049.98 1.05 0 0 0-.127.01.98 1.05 0 0 0-.852-.535z" fill="#1c8d43"/></svg>