<svg xmlns="http://www.w3.org/2000/svg" height="32" width="32" version="1"><rect width="28.203" height="28.203" x="1.898" y="1.898" ry="5.575" fill="#8e8e8e" fill-rule="evenodd"/><path d="M18.193 21.32a.47.47 0 0 1-.011-.131c0-.19-.03-.3-.16-.602-.043-.1-.114-.275-.156-.388-.108-.284-.318-.762-.37-.838a1.068 1.068 0 0 1-.08-.15 15.833 15.833 0 0 1-.58-1.463 7.26 7.26 0 0 0-.162-.432 7.116 7.116 0 0 1-.168-.45 9.65 9.65 0 0 0-.196-.525c-.144-.35-.351-.978-.387-1.17a6.895 6.895 0 0 0-.041-.209 1.044 1.044 0 0 1-.015-.181c0-.115.035-.376.054-.408.021-.034.053-.013.114.075.169.241.287.285.87.32.323.02.5.047.594.094.16.078.288.268.45.668.27.664.357.895.507 1.333.063.185.105.286.12.29.06.011.377-.484.526-.82.187-.422.508-1.268.576-1.518.053-.194.232-.463.527-.793.088-.098.19-.202.227-.23.149-.115.527-.166.785-.107.056.013.226.028.38.034.198.007.282.016.294.03.021.027-.015.16-.087.316a2.165 2.165 0 0 0-.086.23.888.888 0 0 1-.047.133 1.427 1.427 0 0 0-.063.166 1.371 1.371 0 0 1-.063.166c-.042.053-.33.921-.422 1.278l-.104.398-.103.38a7.389 7.389 0 0 0-.073.277.634.634 0 0 1-.054.134c-.123.23-.351.754-.61 1.399-.277.693-.33.814-.45 1.027-.113.2-.48.772-.528.821a.861.861 0 0 0-.071.097 3.45 3.45 0 0 1-.379.46 1.033 1.033 0 0 1-.37.246c-.122.052-.168.063-.189.042zm-2.302-.708a.351.351 0 0 1-.056-.104 1.338 1.338 0 0 0-.094-.186.747.747 0 0 1-.062-.111.474.474 0 0 0-.05-.091 2.196 2.196 0 0 1-.118-.245 17.76 17.76 0 0 0-.398-.9l-.083-.167-.39-.005c-.216-.003-.436 0-.49.005-.148.016-.164.036-.24.308l-.085.309c-.046.162-.197.57-.237.639a.973.973 0 0 1-.28.28.838.838 0 0 1-.376.1 2.41 2.41 0 0 1-.332-.047 2.161 2.161 0 0 0-.36-.047c-.123 0-.125 0-.22-.073-.1-.076-.112-.1-.07-.135.056-.046.142-.313.194-.597.016-.092.044-.235.062-.316.037-.174.04-.26.01-.285a.439.439 0 0 0-.134-.032.41.41 0 0 1-.13-.03c-.01-.011.001-.038.037-.084.04-.05.053-.082.053-.13 0-.054-.01-.07-.074-.127l-.074-.065.063-.103.09-.147c.096-.16.241-.357.286-.388.046-.032.064-.035.132-.025.043.007.098.012.123.013.051.002.034.039.189-.417l.133-.388c.033-.095.086-.256.117-.356l.15-.474c.05-.16.107-.346.124-.411a2.49 2.49 0 0 1 .1-.277l.168-.395c.102-.244.361-.773.468-.956.066-.113.21-.285.24-.285.01 0 .027.015.039.033.028.046.082.035.284-.056.188-.085.407-.143.407-.107a.559.559 0 0 1-.078.1 1.3 1.3 0 0 0-.244.384 1.298 1.298 0 0 0-.033.239l-.008.158.081.237c.09.26.196.497.425.94.179.348.493.985.546 1.108a9.132 9.132 0 0 0 .453.876.963.963 0 0 0 .3.296c.119.06.153.095.177.178.04.137.033.17-.063.281a.401.401 0 0 0-.086.132c0 .017.046.124.103.237.278.554.523 1.05.523 1.056a.852.852 0 0 1-.153.017c-.245.016-.327.067-.705.441-.173.172-.2.192-.262.202-.043.006-.078.004-.092-.007zm-1.266-2.778c.012-.02-.05-.177-.139-.346-.075-.145-.085-.158-.121-.158-.039 0-.04.003-.102.224-.053.189-.064.266-.043.287.018.018.393.012.405-.007zm7.5 2.663a1.504 1.504 0 0 1-.363-.183c-.108-.084-.164-.11-.264-.118-.12-.011-.156 0-.242.075-.079.069-.082.07-.138.048-.055-.021-.061-.057-.042-.24.036-.325.13-.598.27-.778a.831.831 0 0 0 .103-.174c.086-.226.21-.86.285-1.45.026-.204.065-.474.086-.6.098-.591.13-1.115.077-1.292-.023-.08-.093-.167-.206-.254-.08-.062-.08-.089.006-.183.109-.121.206-.304.402-.762.012-.026.043-.118.071-.205.073-.23.147-.418.169-.426a.59.59 0 0 1 .16.063c.25.122.32.133.85.133.465 0 .956-.035 1.157-.083.132-.031.707-.025.872.01.169.035.56.159.67.211.093.044.34.274.448.416.086.112.17.252.16.263a.371.371 0 0 1-.115-.058c-.099-.06-.113-.065-.19-.057-.105.01-.122.026-.278.253-.166.24-.375.522-.438.59-.05.053-.058.056-.12.046a2.793 2.793 0 0 1-.23-.06c-.22-.065-.348-.071-.618-.029-.368.057-.571.079-.753.08-.234 0-.224-.013-.294.372-.03.165-.063.366-.073.447-.017.131-.016.15.007.173.026.027.053.03.808.066.263.012.348.023.477.057.086.023.164.048.173.056.016.013.039.127.061.3.02.164.194.408.312.44.07.018.063.063-.014.091-.291.107-.28.105-.634.117-.288.01-.736.053-1.15.11l-.136.016c-.015 0-.049.02-.075.044-.039.034-.056.073-.086.19-.052.2-.077.446-.048.475.015.015.114.025.355.035.689.03 1.08.049 1.422.071.193.013.51.023.705.023.337 0 .355.002.383.033.028.032.028.033-.025.074-.109.082-.279.269-.32.35-.05.101-.09.234-.125.413-.056.29-.114.441-.2.514-.124.107-.402.197-.606.197-.073 0-.225.007-.336.016a27.04 27.04 0 0 1-1.455.064c-.361.009-.706.019-.767.022a.803.803 0 0 1-.148-.001zm-13.993-.102a3.292 3.292 0 0 1-.722-.166c-.327-.11-.646-.255-.677-.31-.013-.024-.033-.044-.043-.044-.01 0-.034-.02-.052-.044a.666.666 0 0 0-.122-.103 3.025 3.025 0 0 1-.283-.253c-.312-.312-.428-.474-.56-.784a1.883 1.883 0 0 1-.168-.643 21.789 21.789 0 0 0-.05-.388 9.525 9.525 0 0 1-.077-.909c-.041-.75-.046-1.067-.016-1.257a44.5 44.5 0 0 0 .065-.442c.021-.153.05-.345.063-.428.013-.082.038-.242.054-.355.054-.363.116-.624.191-.8.039-.09.1-.236.136-.323.082-.196.297-.714.515-1.03.13-.19.294-.359.469-.51.24-.207.6-.444.789-.537.18-.089.524-.229.8-.295.294-.07.655-.11.9-.102.515.014.57.012.848.07.194.04.39.095.564.19.28.157.535.369.746.61.145.167.475.658.569.848.038.077.085.19.104.25.02.061.052.151.073.201.02.05.059.2.085.332.045.224.048.258.04.455-.011.259-.04.41-.107.576-.045.109-.07.144-.19.265-.147.147-.301.26-.519.38-.183.103-.739.376-.762.376-.014 0-.03.007-.035.016-.012.02-.18.072-.276.086-.065.01-.076.006-.122-.037-.044-.042-.05-.055-.04-.1.015-.073.028-.081.122-.077.081.003.085.001.138-.065.11-.136.113-.145.11-.303-.006-.215-.046-.52-.08-.61a4.65 4.65 0 0 0-.256-.506c-.084-.138-.14-.197-.363-.376a4.556 4.556 0 0 1-.203-.17.955.955 0 0 0-.134-.084c-.205-.113-.406-.123-.593-.027-.169.086-.545.506-.724.807a3.193 3.193 0 0 0-.433 1.333c-.01.09-.017.387-.017.66 0 .635.016.727.18 1.02.039.068.07.13.07.138 0 .008.015.031.032.052.018.02.077.108.133.194a1.904 1.904 0 0 0 .362.405c.004 0 .055.043.115.094.123.107.269.182.493.253.263.083.389.098.866.101.374.003.449-.001.556-.026a3.91 3.91 0 0 1 .211-.044 5.41 5.41 0 0 0 .22-.04.47.47 0 0 1 .078-.008c.022 0 .05-.007.065-.015a.584.584 0 0 1 .141-.021 5.02 5.02 0 0 0 .202-.018c.084-.01.155.008.155.038a.669.669 0 0 1-.056.106 8.408 8.408 0 0 0-.393.766c-.039.108-.035.297.009.37.046.08.043.104-.021.18a.288.288 0 0 0-.055.08c0 .01-.01.023-.02.03a.152.152 0 0 0-.042.05c-.058.112-.497.61-.586.665-.14.087-.626.195-1.174.262a6.47 6.47 0 0 1-.61.03c-.36.005-.415.001-.688-.04zm10.674-6.298c-.006-.006-.54-.066-.93-.105-.403-.04-.655-.098-.71-.164-.03-.038.002-.198.17-.832.025-.1.062-.281.08-.403.018-.122.047-.285.065-.362a.835.835 0 0 0 .025-.257c-.007-.096-.004-.116.016-.116.012 0 .105.014.204.03.1.018.295.043.432.057a7.788 7.788 0 0 0 .812.071c.197.01.365.02.372.026.008.005.053.087.1.184.078.158.084.177.062.2-.064.065-.649.046-1.111-.037-.29-.052-.274-.056-.303.092-.04.212-.022.238.187.263.24.027.374.052.375.07v.106c-.003.079.003.095.046.145.027.031.044.065.038.075-.007.012-.091.014-.302.005-.345-.015-.408-.013-.436.015-.03.03-.054.266-.03.29.04.04.455.115.732.132.15.01.353.028.452.04.098.013.209.023.245.023.08 0 .097.022.053.07-.018.019-.033.042-.033.051 0 .01-.017.043-.038.075-.058.086-.064.127-.026.188.018.03.028.058.023.064-.011.011-.559.015-.57.004zm-2.274-.414c-.093-.065-.147-.068-.298-.021-.155.048-.156.045-.155-.267 0-.148.013-.33.03-.45l.028-.2-.051-.06a.565.565 0 0 0-.282-.179c-.123-.037-.147-.038-.17-.01-.009.01-.027.109-.04.217-.053.432-.061.446-.287.521-.084.028-.173.06-.199.072-.19.084-.305.12-.305.093a1.9 1.9 0 0 1 .077-.155c.092-.172.1-.208.134-.551.027-.28.02-.362-.035-.412a.536.536 0 0 0-.245-.107c-.037 0-.056-.007-.056-.021 0-.023.237-.185.37-.253.096-.049.084-.015.17-.477.067-.364.064-.356.083-.356a.98.98 0 0 1 .14.117c.068.064.175.147.235.183a.9.9 0 0 1 .127.087c.012.014.01.059-.007.153a5.357 5.357 0 0 0-.033.207l-.01.074.121.076.223.143a.542.542 0 0 0 .123.067c.046 0 .099-.181.1-.342 0-.141.01-.144.213-.06.138.056.189.07.267.07.054 0 .1.006.104.012.005.006-.005.122-.02.257-.017.135-.037.384-.046.553-.022.394-.028.44-.075.576-.06.178-.085.28-.092.378-.01.144-.02.148-.14.065zm-2.91-.16a.252.252 0 0 1-.062-.031.232.232 0 0 0-.106-.022c-.07 0-.074-.003-.067-.035a7.39 7.39 0 0 0 .093-.534c.006-.057.02-.28.033-.498l.033-.554c.012-.182-.008-.28-.06-.312-.027-.015-.143-.018-.48-.015-.47.006-.488.003-.452-.066a.34.34 0 0 0 .008-.133.302.302 0 0 0-.066-.187.967.967 0 0 0-.119-.14c-.033-.031-.06-.064-.06-.072 0-.03.52-.019.774.017.236.033.297.033.641.002.152-.013.311-.054.33-.084.005-.008.021-.014.037-.014.023 0 .03.017.04.085a.345.345 0 0 0 .028.11c.027.038.206.057.54.057.316 0 .322.003.284.1a.88.88 0 0 1-.103.155c-.12.151-.176.174-.459.193a1.75 1.75 0 0 0-.239.025c-.01.01-.052.508-.07.832-.006.111.001.286.018.483.021.238.023.33.01.4-.02.108-.065.18-.133.209a1.426 1.426 0 0 1-.392.028z" fill="#ccc"/></svg>