<svg xmlns="http://www.w3.org/2000/svg" xmlns:xlink="http://www.w3.org/1999/xlink" width="32" height="32" version="1"><defs><linearGradient id="g" x1="65.263" x2="65.263" y1="64.205" y2="50.069" gradientTransform="matrix(.625 0 0 .625 78.5 32.25)" gradientUnits="userSpaceOnUse"><stop offset="0"/><stop offset="1" stop-opacity="0"/></linearGradient><linearGradient id="f" x1="70" x2="70" y1="54" y2="75.095" gradientTransform="translate(0 4)" gradientUnits="userSpaceOnUse" xlink:href="#a"/><linearGradient id="e" x1="56" x2="88" y1="72" y2="72" gradientTransform="translate(-140.5 3.5) scale(.9375)" gradientUnits="userSpaceOnUse"><stop offset="0" stop-color="#499119"/><stop offset="1" stop-color="#8fd625"/></linearGradient><linearGradient id="j" x1="65.263" x2="65.263" y1="64.205" y2="50.069" gradientTransform="matrix(.625 0 0 .625 28.5 31.25)" gradientUnits="userSpaceOnUse" xlink:href="#a"/><linearGradient id="a"><stop offset="0" stop-color="#fff"/><stop offset="1" stop-color="#fff" stop-opacity="0"/></linearGradient><linearGradient id="b" x1="45.448" x2="45.448" y1="92.54" y2="7.016" gradientTransform="scale(1.0059 .99417)" gradientUnits="userSpaceOnUse"><stop offset="0"/><stop offset="1" stop-opacity=".588"/></linearGradient><filter id="i" color-interpolation-filters="sRGB"><feGaussianBlur stdDeviation=".637"/></filter><filter id="d" color-interpolation-filters="sRGB"><feGaussianBlur stdDeviation="1.2"/></filter><filter id="c" color-interpolation-filters="sRGB"><feGaussianBlur stdDeviation="1.71"/></filter><clipPath id="h"><path fill="#fff" d="M108.81 58a2.803 2.803 0 0 0-2.81 2.812v24.375A2.803 2.803 0 0 0 108.81 88h24.375c1.57 0 2.82-1.254 2.82-2.812V60.813a2.803 2.803 0 0 0-2.81-2.813H108.82zm7.188 4.5h10v8.75h5l-10 13.75-10-13.75h5V62.5z"/></clipPath></defs><rect width="28.203" height="28.203" x="1.898" y="1.898" ry="5.575" fill="#b7b7b7" fill-rule="evenodd"/><path d="M16 7c-1.662 0-3 1.338-3 3v6.008A5 5 0 0 0 11 20a5 5 0 0 0 5 5 5 5 0 0 0 5-5 5 5 0 0 0-2-3.992V10c0-1.662-1.338-3-3-3zm0 2c.589 0 1 .411 1 1v7.008l.8.6a2.997 2.997 0 0 1 1.2 2.394A2.97 2.97 0 0 1 16 23a2.97 2.97 0 0 1-3-2.998V20a2.997 2.997 0 0 1 1.2-2.393l.8-.6V10c0-.589.411-1 1-1z" fill="#4d4d4d"/><path d="M15 13v4.008l-.8.6A2.997 2.997 0 0 0 13 20v.002A2.97 2.97 0 0 0 16 23a2.97 2.97 0 0 0 3-2.998 2.997 2.997 0 0 0-1.2-2.395l-.8-.6V13z" fill="#f75f5f"/></svg>