<svg xmlns="http://www.w3.org/2000/svg" width="32" height="32"><path d="M40.404-54.312a20.426 20.426 0 1 1 40.153-7.522 20.426 20.426 0 1 1-40.153 7.522z" fill="none"/><path d="M7.06 8.719c-.1.107-.242.187-.338.297-.432.5-.844 1.09-1.164 1.726-.32.637-.546 1.323-.607 2.02a6.17 6.17 0 0 0 .959 3.896c-.784-.406-1.405-.632-1.856-1.347-.12-.09-.08.274-.059.609.164 1.498.43 2.964.877 4.38l-.017-.005c.016.024.052.39.252.986s.564 1.42 1.234 2.363c.473.68 1.02 1.343 1.613 1.93.594.587 1.233 1.1 1.887 1.483.39.227.705.649 1.12.712-.816.01-1.648-.216-2.46-.61-.81-.396-1.6-.96-2.334-1.626a14.686 14.686 0 0 1-1.99-2.232 13.635 13.635 0 0 1-1.424-2.438 16.624 16.624 0 0 1-.855-2.717v6.381a5.561 5.561 0 0 0 5.574 5.575h17.055a5.561 5.561 0 0 0 5.574-5.575v-8.392a12.732 12.732 0 0 1-.684 4.3 13.677 13.677 0 0 1-2.338 4.206l-.044.052c-.083.108-.162.217-.247.325-.136.172-.365.381-.498.533-.997 1.137-1.951 1.658-1.95 1.658-.589.43-1.195.69-1.887.91-.692.22-1.47.4-2.403.66 1.018-.608 2.435-2.612 2.02-2.021 0 0-.55.553-1.455 1.082a7.348 7.348 0 0 1-1.602.705c-.607.18-1.279.282-1.992.234.536-.231 1.19-.628 1.887-1.195a13.02 13.02 0 0 0 2.129-2.219 15.002 15.002 0 0 0 1.888-3.29c.536-1.281.952-2.748 1.166-4.407-.601.57-1.353.825-1.957.936a4.584 4.584 0 0 1-1.078.076l.008-.002c.503-.644.797-1.389.94-2.186.142-.797.134-1.646.033-2.496-.163-1.3-.657-2.624-1.37-3.764h.004c-.249-.39-.816-.926-1.134-1.255-.684.307-1.392.66-2.1.937-.709.277-1.419.477-2.11.477-.722 0-1.354-.238-1.947-.395-.593-.157-1.146-.235-1.709.088-.853.393-1.552.962-2.414 1.336-.381.186-.814.386-1.176.65-.361.265-.651.594-.75 1.037-.31-.342-.405-.768-.388-1.205.016-.436.143-.885.273-1.277.129-.057-.036-.62-.023-.889-.04-.33-.088-.675-.133-1.017z" fill="#ebebeb" fill-rule="evenodd"/><path d="M6.34 23.645c1.227 1.765 2.811 3.845 4.62 4.124-.707-.41-2.476-2.011-3.03-5.05.588 1.151 3.243 2.679 4.04 3.03-.396-.37-1.916-2.587-2.02-3.89l-5.095-1.565c.032.048.144 1.465 1.485 3.351z" fill="#375389"/><path d="M24.482 12.107l-9.186-3.221-9.845.656-2.512 3.135c.447 2.899.17 6.036 1.726 8.568L22.07 26.76l2.397-6.691z" fill-opacity=".2"/><path d="M24.482 11.097l-9.186-3.221-9.845.656-2.512 3.135c.447 2.899.17 6.036 1.726 8.568L22.07 25.75l2.397-6.691z" fill="#ebebeb"/><path d="M23.735 13.874l-1.363-4.477-16.67-.168-.094.117-.157.196 6.312 8.925z" fill-opacity=".2"/><path d="M23.735 12.864l-1.363-4.477-16.67-.168-.094.117-.157.196 6.312 8.925z" fill="#f7f7f7"/><path d="M10.236 1.898c-.043.046-.1.07-.14.118-.754.857-1.324 1.942-1.796 2.888-.34.602-.693 1.315-.99 1.883-.284.448-.342.94-.315 1.443.028.503.139 1.017.198 1.506-.013.269.152.832.023.889-.13.392-.257.84-.273 1.277-.017.437.078.863.388 1.205.099-.443.389-.772.75-1.037.362-.264.795-.464 1.176-.65.862-.374 1.56-.943 2.414-1.336.563-.323 1.116-.245 1.71-.088.592.157 1.224.395 1.947.395.69 0 1.4-.2 2.109-.477.708-.276 1.416-.63 2.1-.937.318.329.885.865 1.134 1.255h-.004c.713 1.14 1.207 2.464 1.37 3.764.1.85.11 1.7-.034 2.496-.142.797-.436 1.542-.94 2.186l-.007.002h.008c.01.001.466.034 1.07-.076.604-.11 1.356-.365 1.957-.936a17.041 17.041 0 0 1-1.166 4.406 15.002 15.002 0 0 1-1.888 3.291 13.02 13.02 0 0 1-2.13 2.219c-.696.567-1.35.964-1.886 1.195a5.647 5.647 0 0 0 1.992-.234 7.348 7.348 0 0 0 1.602-.705 7.716 7.716 0 0 0 1.455-1.082c.415-.591-1.002 1.413-2.02 2.021.932-.26 1.71-.44 2.403-.66.692-.22 1.298-.48 1.886-.91 0 0 .954-.52 1.951-1.658.133-.151.362-.361.498-.533.085-.107.164-.217.247-.325l.044-.052a13.677 13.677 0 0 0 2.338-4.205c.492-1.432.703-2.898.684-4.301V7.473a5.561 5.561 0 0 0-5.574-5.575h-12.99z" fill="#5996d2" fill-rule="evenodd"/><path d="M8.243 10.598c3.367-.097 1.253-2.184 5.747-6.06-3.661 1.895-7.146 1.893-5.742 6.06h-.005z" fill="#4271a3"/><path d="M7.472 1.898a5.561 5.561 0 0 0-5.574 5.575v10.673c.2.932.5 1.834.855 2.717.356.802.843 1.637 1.424 2.438.581.8 1.257 1.567 1.99 2.232.733.666 1.523 1.23 2.334 1.625.812.395 1.644.622 2.46.612-.415-.064-.73-.486-1.12-.713-.654-.383-1.293-.895-1.887-1.483a13.916 13.916 0 0 1-1.613-1.93c-.67-.942-1.034-1.767-1.234-2.363-.2-.596-.236-.962-.252-.986l.017.006c-.447-1.417-.713-2.883-.877-4.381-.02-.335-.062-.699.06-.61.45.716 1.071.942 1.855 1.348a6.17 6.17 0 0 1-.959-3.896c.06-.697.287-1.383.607-2.02a8.575 8.575 0 0 1 1.164-1.726c.096-.11.239-.19.338-.297-.022-.164-.056-.325-.065-.489-.027-.503.031-.995.315-1.443.297-.568.65-1.281.99-1.883.062-.124.17-.252.237-.38.433-.848.904-1.764 1.558-2.508.041-.047.098-.072.14-.118z" fill="#4271a3" fill-rule="evenodd"/><path d="M10.764 8.9c-.323.59-1.076.828-1.493.606-.426-.222-.423-.964-.094-1.554.319-.59 1.724-.325 1.731-.325.007 0 .179.686-.144 1.274z" fill="#fff"/><path d="M8.85 11.592s.18-.175.086-.495c-1.13.374-1.685-.708-1.681-.708.004 0-.847 2.23.169 3.24.087-.833 1.383-1.994 1.387-1.994" fill="#5c5f60"/></svg>