<svg xmlns="http://www.w3.org/2000/svg" height="32" width="32" version="1"><path d="M14.123 1.897H7.18c-1.482 0-2.808.598-3.804 1.536.04.07.123.242.246.537l.597 1.435c.458 1.098.512 1.372.508 2.573-.003 1.006-.019 1.141-.402 3.57a11.94 11.94 0 0 0-.143 1.422c-.007.52.006.599.121.824a.843.843 0 0 0 .3.344c.17.095.169.094.585-.035.23-.072.68-.195 1.004-.278.323-.083.764-.207.977-.275.4-.128 1.476-.574 1.476-.612 0-.011-.056-.126-.123-.255-.197-.38-.307-.843-.328-1.336a4.485 4.485 0 0 1 .207-1.524c.1-.318.157-.397.281-.398.13-.002.166.175.09.453-.095.348-.095.71.002 1.168.173.818.388 1.225.754 1.43.185.103.283.119.676.119.632 0 .604.016 2.05-1.16a6.568 6.568 0 0 1 1.76-1.014c.693-.276 1.514-.498 2.528-.693 1.718-.331 2.914-.406 4.547-.28.898.07 1.516.082 2.052.01.537-.072.994-.227 1.57-.494.765-.354 1.076-.403 1.342-.21.343.25.439.706.23 1.104-.294.565-.99 1.16-2.437 2.088-1.076.691-1.364.903-2.068 1.522-.239.21-.633.542-.875.738-.496.401-.895.863-1.475 1.709-.5.73-.812 1.064-1.398 1.494-.803.59-1.464.867-2.277.961-.612.07-1.942.027-2.457-.082-.947-.2-1.978-.62-3.604-1.475-.889-.466-1.685-.651-3.588-.828-.87-.08-.947-.08-1.113-.004-.243.114-.228.236.062.54.303.316 1.082.701 1.702.843.706.162 1.2.319 1.73.6.53.28 1.097.686 1.95 1.35.946.736 1.393 1.041 1.794 1.22.36.161.83.276 1.117.276.128 0 .526.033.885.074 1.007.115 1.88.315 2.46.535.578.22.863.461.69.664-.084.1-.186.097-1.05-.049-.408-.068-.866-.125-1.018-.125-.151 0-.696.079-1.21.178-1.1.211-2.182.272-2.727.15-.451-.1-.876-.326-1.387-.742-1.163-.945-2.04-1.527-3.84-2.545-1.41-.797-1.86-1.079-2.357-1.472-.712-.564-1.167-1.228-1.375-2.041-.209-.814-.171-1.778.097-2.942.083-.357.277-1.12.432-1.697.332-1.235.438-1.862.436-2.604-.004-1.014-.211-1.756-.825-2.955l-.205-.398c-.434.794-.746 1.66-.746 2.633v17.052a5.563 5.563 0 0 0 5.574 5.577h6.995c-.992-.15-1.977-.273-3.083-.666a23.115 23.115 0 0 1-4.619-2.258c-.86-.55-1.814-1.387-2.01-1.762a.788.788 0 0 1-.074-.598.547.547 0 0 1 .377-.37c.42-.124.964.103 2.27.94a19.384 19.384 0 0 0 3.064 1.56c1.635.634 3.161 1.022 4.614 1.167 1.452.145 2.831.048 4.173-.289 1.51-.379 4.248-1.34 5.352-1.879.913-.445 1.738-.97 2.498-1.595a13.62 13.62 0 0 0 2.11-2.192c.326-.42.652-.7.962-.963V7.474a5.563 5.563 0 0 0-5.574-5.577h-8.465c-.151.41-.241.74-.531 1.332a48.2 48.2 0 0 0-.717 1.528c-.381.885-.447 1.009-.799 1.531-.311.463-.625.818-.904 1.033-.279.216-.521.294-.69.201a.95.95 0 0 1-.255-.246c-.104-.148-.118-.218-.098-.474.03-.365.206-.756.666-1.483.368-.58 1.094-1.969 1.508-2.884.09-.2.108-.353.172-.538zm-5.43.338h.404l.184.762c.286 1.186.337 1.544.254 1.756-.06.15-.266.09-.424-.123-.082-.111-.222-.398-.31-.637-.148-.397-.512-1.62-.512-1.719 0-.022.182-.039.404-.039zM23.283 3.9c.31-.012.626-.011.95 0 .916.034 2.05.177 2.655.336.876.231 1.777.695 2.284 1.176.46.438.592.815.377 1.074-.084.101-.14.118-.395.114-.164-.003-.654-.087-1.09-.186-1.468-.333-3.392-.562-4.344-.516-1.138.056-2.911.413-4.01.807-1.88.676-2.716.846-3.142.637-.382-.188-.527-.664-.3-.987.133-.19.534-.488.911-.675.393-.195 2.889-1.155 3.483-1.34a10.065 10.065 0 0 1 2.62-.44z" fill="#ff7f2a" fill-rule="evenodd"/><path d="M3.498 9.772c3.038-2.888 8.239-1.39 9.585-1.421 1.345-.03 8.735-4.61 17.31-2.004l-.11 4.555c-6.906-.003-5.086 12.15-13.702 10.896l-5.393-.473-7.69-4.957z" fill="#fff"/><path d="M14.957 13.37c-.544 0-.903.35-1.004.76a.971.971 0 0 0 .05.623.994.994 0 0 0 .49.492 1.01 1.01 0 0 0 1.243-.242c.247-.275.322-.615.211-.94-.15-.44-.513-.693-.99-.693z" fill-rule="evenodd"/><path d="M16.437 10.737c-.076-.01-.157.002-.304.032-.483.096-1.478.438-1.934.662a7.819 7.819 0 0 0-1.467.95l-.732.606a4.759 4.759 0 0 1-.703.485l-.291.144-.038.389c-.044.46.008.945.143 1.408.135.463.354.905.64 1.275.178.23.219.253.526.315.812.164 2.035.19 2.99.06.566-.076 1.103-.336 1.735-.834.676-.532 1.436-1.26 1.734-1.66.236-.316.241-.33.21-.6a3.97 3.97 0 0 0-2.226-3.12c-.135-.067-.206-.101-.283-.112zm-1.48 2.633c.477 0 .84.253.99.693.111.325.036.665-.21.94a1.01 1.01 0 0 1-1.243.242.994.994 0 0 1-.49-.492.971.971 0 0 1-.051-.623c.101-.41.46-.76 1.004-.76z" fill="#8dde81" fill-rule="evenodd"/><path d="M23.283 3.9c-.929.036-1.799.182-2.621.439-.594.185-3.09 1.145-3.483 1.34-.377.187-.778.485-.912.675-.226.323-.08.8.301.987.426.209 1.262.04 3.143-.637 1.098-.394 2.87-.751 4.01-.807.951-.046 2.875.183 4.343.516.436.099.926.183 1.09.186.255.004.31-.013.395-.114.215-.26.083-.636-.377-1.074-.507-.48-1.408-.945-2.284-1.176-.606-.16-1.74-.302-2.656-.336-.323-.011-.64-.012-.95 0zM8.693 2.235c-.222 0-.404.017-.404.04 0 .098.364 1.321.512 1.718.088.24.228.526.31.637.158.214.365.274.424.123.083-.212.032-.57-.254-1.756l-.184-.762z" fill="#4f4f4f" fill-rule="evenodd"/><path d="M2.353 4.84l.205.4c.614 1.198.821 1.94.825 2.954.002.742-.104 1.37-.436 2.604a61.54 61.54 0 0 0-.432 1.697c-.268 1.164-.306 2.128-.097 2.942.208.813.663 1.477 1.375 2.04.496.394.947.676 2.357 1.473 1.8 1.018 2.677 1.6 3.84 2.545.511.416.936.642 1.387.742.545.122 1.628.061 2.726-.15.515-.099 1.06-.178 1.211-.178.152 0 .61.057 1.018.125.864.146.966.149 1.05.049.173-.203-.112-.444-.69-.664-.58-.22-1.453-.42-2.46-.535a11.724 11.724 0 0 0-.885-.074c-.288 0-.756-.115-1.117-.276-.4-.179-.849-.484-1.795-1.22-.852-.664-1.419-1.07-1.949-1.35-.53-.281-1.024-.438-1.73-.6-.62-.142-1.399-.527-1.702-.843-.29-.304-.305-.426-.062-.54.166-.077.242-.076 1.113.004 1.903.177 2.7.362 3.588.828 1.626.854 2.657 1.276 3.604 1.475.515.109 1.845.153 2.457.082.813-.094 1.474-.372 2.277-.96.586-.431.898-.765 1.398-1.495.58-.846.979-1.308 1.475-1.709.242-.196.636-.528.875-.738.704-.619.992-.83 2.068-1.522 1.447-.928 2.143-1.523 2.438-2.088.208-.398.112-.854-.23-1.103-.267-.194-.579-.145-1.342.209-.577.267-1.034.422-1.57.494-.537.072-1.155.06-2.053-.01-1.633-.126-2.83-.051-4.547.28-1.014.195-1.835.417-2.528.693a6.568 6.568 0 0 0-1.76 1.014c-1.446 1.176-1.418 1.16-2.05 1.16-.393 0-.49-.016-.676-.12-.366-.204-.58-.61-.754-1.43-.097-.458-.097-.819-.002-1.167.076-.278.04-.455-.09-.453-.124.001-.18.08-.281.398a4.485 4.485 0 0 0-.207 1.524c.021.493.13.955.328 1.336.067.13.123.244.123.255 0 .038-1.076.484-1.476.612-.213.068-.654.192-.977.275-.323.083-.775.206-1.004.278-.416.129-.415.13-.586.035a.843.843 0 0 1-.299-.344c-.115-.225-.128-.304-.12-.824.004-.332.065-.932.142-1.422.383-2.429.399-2.564.402-3.57.004-1.201-.05-1.475-.508-2.573L3.623 3.97a5.66 5.66 0 0 0-.246-.537c-.426.4-.741.89-1.024 1.408zm14.084 5.897c.077.01.148.045.283.112.621.306 1.138.747 1.518 1.28a3.97 3.97 0 0 1 .707 1.84c.032.27.027.284-.209.6-.298.4-1.058 1.128-1.734 1.66-.632.498-1.169.758-1.735.834-.955.13-2.178.104-2.99-.06-.307-.062-.348-.085-.525-.315a3.87 3.87 0 0 1-.64-1.275 3.774 3.774 0 0 1-.144-1.408l.038-.389.29-.144c.16-.08.476-.297.704-.485l.732-.605c.436-.36.97-.707 1.467-.951.456-.224 1.45-.566 1.934-.662.147-.03.228-.042.304-.032z" fill="#4f4f4f" fill-rule="evenodd"/><path d="M29.629 25.427l-5.127 3.156a33.665 33.665 0 0 1-4.758 1.352c-.592.12-1.048.093-1.606.168h6.098c2.769 0 4.95-2.037 5.393-4.676z" fill="#ff7f2a" fill-rule="evenodd"/><path d="M29.81 21.198c-.31.262-.636.543-.963.963a13.62 13.62 0 0 1-2.109 2.192c-.76.624-1.585 1.15-2.498 1.595-1.104.54-3.841 1.5-5.352 1.88a12.036 12.036 0 0 1-4.173.288c-1.453-.145-2.979-.533-4.614-1.168a19.384 19.384 0 0 1-3.064-1.558c-1.306-.838-1.85-1.065-2.27-.942a.547.547 0 0 0-.377.371.788.788 0 0 0 .075.598c.195.375 1.149 1.211 2.01 1.762 1.44.921 3.05 1.699 4.618 2.258 1.106.393 2.09.515 3.083.666h3.962c.558-.075 1.014-.048 1.606-.168a33.665 33.665 0 0 0 4.758-1.352l5.127-3.156c.05-.305.181-.58.181-.9zM14.123 1.897c-.064.185-.082.338-.172.538-.414.915-1.14 2.303-1.508 2.884-.46.727-.637 1.118-.666 1.483-.02.256-.006.326.098.474a.95.95 0 0 0 .256.246c.168.093.41.015.69-.2.278-.216.592-.571.903-1.034.352-.522.418-.646.8-1.531a48.2 48.2 0 0 1 .716-1.528c.29-.593.38-.921.531-1.332z" fill="#4f4f4f" fill-rule="evenodd"/></svg>