<svg xmlns="http://www.w3.org/2000/svg" height="32" width="32" version="1"><rect width=".454" height=".454" x="-16.794" y="44.028" ry=".227" fill="#37a0f2" fill-rule="evenodd"/><path d="M16.682 30.102h7.845a5.563 5.563 0 0 0 5.575-5.577V7.473a5.561 5.561 0 0 0-5.575-5.575h-7.845z" fill="#8e8e8e" fill-rule="evenodd"/><path d="M16.682 30.102V1.898H7.475a5.563 5.563 0 0 0-5.577 5.575v17.052a5.565 5.565 0 0 0 5.577 5.577z" fill="#4f4f4f" fill-rule="evenodd"/><path d="M7.995 8.021v.903h-.452c-.75 0-1.354.604-1.354 1.354 0 .75.604 1.354 1.354 1.354h.452v.903H6.272c.186.525.68.903 1.271.903h.452v.902h.902v-.902h.452c.75 0 1.354-.604 1.354-1.355 0-.75-.604-1.354-1.354-1.354h-.452v-.902h1.723a1.347 1.347 0 0 0-1.271-.903h-.452V8.02zm-.452 1.806h.452v.902h-.452a.45.45 0 1 1 0-.902zm1.354 1.805h.452a.45.45 0 0 1 .451.451c0 .25-.202.464-.451.452h-.452zm3.611 1.806v.902h1.806v-.902zM19.73 8.021v.903h-1.354v.903h1.354v2.708h-1.354v.903h1.354v.902h.903v-.902h1.805v.902h.903v-.902h1.354v-.903h-1.354V9.827h1.354v-.903h-1.354V8.02h-.903v.903h-1.805V8.02zm.903 1.806h1.805v2.708h-1.805zm5.416 3.61v.903h1.806v-.902z" fill="#fff"/></svg>