<svg xmlns="http://www.w3.org/2000/svg" xmlns:xlink="http://www.w3.org/1999/xlink" height="32" width="32" version="1"><defs><linearGradient id="g"><stop offset="0" stop-color="#565c66"/><stop offset="1" stop-color="#565c66" stop-opacity="0"/></linearGradient><linearGradient id="f"><stop offset="0" stop-color="#7e8c93"/><stop offset="1" stop-color="#7e8c93" stop-opacity="0"/></linearGradient><linearGradient id="e"><stop offset="0" stop-color="#fe9212"/><stop offset="1" stop-color="#fe9212" stop-opacity="0"/></linearGradient><linearGradient id="d"><stop offset="0" stop-color="#86959c"/><stop offset="1" stop-color="#86959c" stop-opacity="0"/></linearGradient><linearGradient id="c"><stop offset="0" stop-color="#86959c"/><stop offset="1" stop-color="#86959c" stop-opacity="0"/></linearGradient><linearGradient id="b"><stop offset="0" stop-color="#86959c"/><stop offset="1" stop-color="#86959c" stop-opacity="0"/></linearGradient><linearGradient id="a"><stop offset="0" stop-color="#86959c"/><stop offset="1" stop-color="#86959c" stop-opacity="0"/></linearGradient><linearGradient xlink:href="#a" id="j" x1="-43.813" y1="27.299" x2="-37.593" y2="27.299" gradientUnits="userSpaceOnUse" gradientTransform="matrix(.7334 0 0 .7334 35.586 2.927)"/><linearGradient xlink:href="#b" id="h" x1="-16.665" y1="23.508" x2="-13.157" y2="32.914" gradientUnits="userSpaceOnUse" gradientTransform="matrix(.7334 0 0 .7334 35.586 2.927)"/><linearGradient xlink:href="#c" id="n" x1="-26.967" y1="25.486" x2="-24.468" y2="35.304" gradientUnits="userSpaceOnUse" gradientTransform="matrix(.7334 0 0 .7334 35.586 2.927)"/><linearGradient xlink:href="#d" id="i" x1="-36.956" y1="28.922" x2="-39.662" y2="34.203" gradientUnits="userSpaceOnUse" gradientTransform="matrix(.7334 0 0 .7334 35.586 2.927)"/><linearGradient xlink:href="#e" id="o" x1="-29.591" y1="10.198" x2="-28.316" y2="17.783" gradientUnits="userSpaceOnUse" gradientTransform="matrix(.7334 0 0 .7334 35.586 2.927)"/><linearGradient xlink:href="#f" id="m" x1="-31.803" y1="2.656" x2="-29.784" y2="9.257" gradientUnits="userSpaceOnUse" gradientTransform="matrix(.7334 0 0 .7334 35.586 2.927)"/><linearGradient xlink:href="#g" id="l" x1="7.785" y1="21.072" x2="10.897" y2="21.072" gradientUnits="userSpaceOnUse"/><linearGradient xlink:href="#g" id="k" x1="10.486" y1="20.667" x2="19.019" y2="20.667" gradientUnits="userSpaceOnUse"/></defs><rect width="28.203" height="28.203" x="1.898" y="1.898" ry="5.575" fill="#282838" fill-rule="evenodd"/><path d="M29.452 25.152c-.032-.597-.07-.924-.132-1.142a9.093 9.093 0 0 0-.846-2.015c-.34-.59-.727-1.074-1.125-1.394-1.025-.82-2.258-1.463-4.049-2.106-.366-.131-.68-.298-1.416-.75-.776-.476-1.14-.666-2.035-1.062-.599-.266-1.6-.664-2.223-.884-.623-.22-1.173-.427-1.223-.46-.124-.077-.231-.315-.288-.636-.06-.348.004-.917.235-2.085.263-1.33.263-1.556.015-2.898-.416-2.248-.667-2.957-1.329-3.76a3.387 3.387 0 0 0-.458-.422c-.498-.379-1.128-.655-1.792-.809-.664-.154-1.36-.185-1.988-.067-1.073.201-2.092.766-2.882 1.526s-1.351 1.716-1.51 2.7c-.098.604-.04 1.087.3 2.534.168.72.328 1.362.353 1.429.076.198.277.459.694.899l.392.414.597 1.316c.328.724.585 1.346.572 1.381-.013.035-.286.288-.605.562-.651.559-.898.794-1.277 1.213-.254.281-.27.29-.567.344-.597.107-1.375.598-2.094 1.322-.843.848-1.339 1.795-1.525 2.908-.078.467-.078.485.025 2.762-.082 2.097 2.2 3.12 3.709 3.143h18.296c.848.152 3.452-1.343 4.176-3.963z" fill="#33333f" fill-rule="evenodd"/><path d="M20.47 20.799c.014.041.016.022.035.096.14.533.307.791.937 1.455.692.73 1.021 1.25 1.196 1.89.193.707.56 1.204 1.245 1.687a6.59 6.59 0 0 0 1.438.753c.49.17 1.296.54 1.656.761.514.317.757.438 1.104.552.408.133.579.113.867-.1.248-.184.361-.327.405-.51l.033-.135-.034-2.132c-.047-.834-.055-.887-.224-1.393-.204-.615-.755-1.788-.82-1.748-.025.015-.036.002-.024-.03.013-.032-.008-.098-.047-.145-.038-.047-.057-.056-.041-.02.015.036-.003.027-.04-.02a.302.302 0 0 1-.07-.143c0-.095-.135-.274-.184-.244-.027.017-.033.008-.014-.023.045-.073-.476-.598-.894-.9a12.91 12.91 0 0 0-1.76-1.043c-.533-.256-1.639-.705-1.808-.735a2.89 2.89 0 0 1-.39-.133c-.416-.17-.656-.142-.788.091-.061.11-.08.114-.478.118-.372.003-.436.016-.623.126-.54.317-.683.562-.728 1.245l-.02.312z" fill="url(#h)"/><path d="M9.832 28.582c-.163-1.02-.127-2.048-.018-2.609.037-.192-.001-.32-.001-.357 0-.17-.152-.4-.49-.74-.363-.367-.491-.558-1.09-1.63-.23-.41-.584-.79-.912-.977-.282-.161-.81-.29-1.023-.25-.172.032-.384.256-.542.573a1.41 1.41 0 0 1-.187.29c-.046.046-.186.292-.31.547l-.225.464.007.699c.006.56.026.766.102 1.046.051.192.11.483.132.647.527 3.018 2.875 2.605 4.612 2.64z" fill="url(#i)"/><path d="M5.077 26.373l.128-.194-.08-.315c-.17-.679-.216-1.564-.1-1.928.156-.484.853-1.558 1.122-1.728.111-.07.184-.081.42-.061.305.026.693.142.897.268.069.043.219.167.334.276l.21.2-.027-.236a5.89 5.89 0 0 0-.12-.61c-.073-.29-.094-.51-.096-.984-.002-.553.01-.65.124-1.024l.127-.414-.073-.457a7.29 7.29 0 0 1-.074-.567c-.001-.098-.026-.082-.25.16-.242.262-.258.271-.589.337-.618.125-1.239.502-1.94 1.18-.69.665-1.13 1.321-1.4 2.092-.075.216-.145.51-.156.653l-.06.828a8.942 8.942 0 0 0-.004 1.133c.021.312.052.955.069 1.43.176.852 1.151.841 1.538-.04z" fill="url(#j)"/><path d="M11.289 25.12a4.189 4.189 0 0 0 1.07-.751 88.555 88.555 0 0 1 2.451-2.127.515.515 0 0 0 .186-.247c.038-.172.3-.707.468-.953.075-.11.523-.591.995-1.07 1.201-1.219 1.264-1.303 1.476-1.961.139-.432.407-.973.584-1.18a1.15 1.15 0 0 1 .328-.256c.275-.124.287-.114-.478-.388-.378-.135-.428-.143-.544-.09-.348.158-.648.465-.698.713-.013.062-.102.386-.198.722-.223.78-.416 1.174-.707 1.448-.36.34-1.554.986-2.49 1.347-.877.338-1.967.817-2.054.903a.517.517 0 0 0-.12.211c-.024.105-.01.127.122.182.088.037.202.14.273.248.108.163.123.226.123.523 0 .304-.013.355-.132.524-.072.103-.22.252-.326.331-.108.08-.217.16-.242.182a.54.54 0 0 1-.142.067c-.052.017-.095.055-.095.085 0 .112-.222.51-.349.622-.09.08-.117.132-.087.162.078.078.048.19-.105.39-.115.151-.135.202-.087.22.076.03.08.164.007.241-.098.105.492.03.77-.098z" fill="url(#k)"/><path d="M9.718 24.847c.04-.015.046-.083.025-.248-.034-.25-.023-.292.072-.292.05 0 .054-.019.019-.085-.077-.143-.057-.307.038-.307.08 0 .081-.007.013-.18-.065-.167-.065-.183.005-.234.069-.05.064-.066-.056-.194-.153-.164-.219-.372-.22-.69 0-.264.068-.451.234-.648.183-.217.564-.448.788-.479.183-.025.198-.037.198-.152 0-.07.023-.163.051-.208.082-.13-.288-.677-.822-1.216-.347-.35-.483-.523-.6-.764-.37-.757-.37-1.277 0-1.839.339-.517.125-.481-.384.063-.114.122-.218.217-.23.211-.053-.022-.64.52-.76.703-.14.21-.168.452-.088.747.095.351.082.578-.068 1.176-.08.324-.147.66-.148.748-.001.275.137 1.184.204 1.344.035.083.13.345.211.58.241.704.834 1.722 1.231 2.114l.205.203.014-.166c.007-.091.038-.175.068-.187z" fill="url(#l)"/><path d="M12.728 20.563c1.254-.508 1.937-.816 2.48-1.12.242-.136.529-.294.636-.351.108-.058.24-.147.295-.198.168-.158.473-.852.664-1.515.1-.347.198-.641.216-.653a.66.66 0 0 0 .105-.162c.096-.187.269-.342.505-.453.232-.11.243-.101-.45-.34-.721-.249-.925-.367-1.026-.595a2.124 2.124 0 0 1-.112-.325c-.024-.107-.041-.126-.073-.08-.029.041-.035.02-.02-.071.038-.229.07-.656.045-.6-.014.031-.046.042-.072.026-.03-.018-.037-.002-.019.046.016.041.011.064-.01.05-.021-.013-.131.134-.244.327-.113.193-.214.343-.223.333-.01-.01.114-.23.275-.492l.292-.475.012-.474c.014-.524.055-.68.065-.24.003.153.014.23.024.17s.065-.335.122-.61c.178-.865.244-1.307.246-1.65 0-.286-.222-1.73-.296-1.923-.014-.036-.06.13-.102.37-.041.24-.125.554-.186.698a7.938 7.938 0 0 0-.553 2.235c-.025.247-.057 1.08-.072 1.852-.02 1.041-.042 1.426-.085 1.494-.031.05-.151.139-.267.196-.194.097-.258.104-.863.102-.74-.004-.837-.032-.858-.248-.013-.135-.034-.15-.537-.369a6.576 6.576 0 0 0-.564-.23c-.085-.001.44.489.673.629.422.254.782.347 1.352.349.482.002.514-.003.793-.141.16-.08.332-.195.381-.257.05-.063.1-.104.113-.091.047.047-.385.378-.582.447-.664.23-1.753.064-2.25-.343-.105-.086-.402-.236-.702-.354-1.509-.59-2.765-1.583-3.3-2.608-.131-.251-.14-.294-.14-.725 0-.428.009-.473.137-.718.175-.333.27-.418.66-.596l.318-.145-.247-.196a5.862 5.862 0 0 1-.942-.999c-.23-.338-.378-.604-.35-.631.013-.014.083.077.154.203.21.37.66.92 1.014 1.239.182.163.351.304.377.314.026.009-.13-.18-.345-.42-.215-.241-.494-.572-.619-.736-.41-.54-.826-1.525-.835-1.976a.792.792 0 0 0-.04-.24c-.03-.068-.039-.05-.04.087-.005.372.1.874.283 1.347.023.059.017.074-.019.052-.031-.02-.15.067-.304.221-.217.217-.27.304-.369.602-.092.281-.11.311-.09.155.042-.315.175-.563.441-.825l.25-.245-.1-.348a4.215 4.215 0 0 1-.126-.615c-.027-.283.016-.771.066-.741.016.01.032-.062.036-.16l.007-.177-.115.148c-.252.322-.58.863-.705 1.161-.24.576-.283.804-.278 1.495.004.573.019.688.16 1.241.085.336.185.689.222.785.037.095.068.224.069.285.004.241.19.988.287 1.157.242.42 1.153 1.233 1.833 1.638.093.055.287.175.43.266.144.09.438.264.654.385.538.302.818.492 1.185.807.313.27.812.588 1.013.648a.458.458 0 0 1 .163.088c.085.085.641.2 1.084.226.581.033.935-.083 1.407-.46.26-.21.338-.354.447-.835.108-.478.194-.63.148-.262-.056.445-.164.79-.301.97-.438.57-1.312.813-2.227.62a3.285 3.285 0 0 0-.384-.065c-.114 0-.838-.367-.979-.496-.603-.55-1.796-1.364-1.796-1.225 0 .008.082.237.181.508.221.603.46 1.131.79 1.739.769 1.424.816 1.874.265 2.553-.08.1-.13.194-.107.208.023.013.075.118.117.231.043.114.082.214.089.223.006.009.116-.072.243-.179.399-.336 1.327-.905 1.478-.905.091 0 .949-.444 1.263-.654.153-.102.478-.387.722-.633.398-.4.467-.494.66-.898a4.82 4.82 0 0 0 .423-1.529c.016-.137.047-.239.069-.225.022.013.031.037.021.054a2.99 2.99 0 0 0-.045.4 4.607 4.607 0 0 1-.088.61 6.905 6.905 0 0 0-.085.392c-.057.33-.313.768-.72 1.231-.27.307-1.323.99-2.122 1.377-.556.27-.978.527-1.355.827-.212.169-.224.189-.178.29.027.06.06.109.072.109.012 0 .455-.175.985-.39z" fill="#232729"/><path d="M11.111 20.757c.07-.053.074-.08.03-.214-.028-.085-.18-.326-.337-.537-.4-.537-.495-.791-.625-1.686-.032-.223-.102-.413-.268-.731-.124-.236-.237-.415-.253-.396-.016.019-.08.154-.145.3-.336.77-.104 1.54.701 2.335.234.23.503.547.599.705.095.157.184.285.196.285a.354.354 0 0 0 .102-.06z" fill="#232729"/><path d="M11.24 19.953c.169-.202.306-.524.326-.768.028-.332-.075-.624-.542-1.537-.443-.867-.726-1.5-.94-2.099-.074-.203-.162-.403-.197-.444a2.249 2.249 0 0 0-.359-.25 9.485 9.485 0 0 1-.7-.48c-.222-.17-.41-.301-.418-.293-.018.018 1.179 2.664 1.264 2.793.035.054.185.332.333.617.228.441.278.578.328.911.073.48.234.963.407 1.219.212.314.325.459.358.459.017 0 .08-.058.14-.128zM13.536 15.727c0-.368-.081-.864-.193-1.174-.037-.104-.055-.21-.04-.235.016-.025.008-.033-.017-.017-.025.015-.058-.002-.072-.04-.016-.042-.008-.056.022-.037.15.093-.247-.673-.588-1.133a7.425 7.425 0 0 0-1.473-1.426c-1.15-.799-1.749-1.339-1.974-1.777-.056-.11-.256-.356-.445-.547a12.523 12.523 0 0 1-.488-.523l-.146-.174.143.261c.078.144.25.405.38.581.222.3.855 1.041.942 1.102.021.016.026.049.01.074-.015.025-.004.06.024.077.035.021.039.012.014-.03-.02-.034.07.035.2.152.13.117.31.262.4.322a.74.74 0 0 1 .164.128c0 .03-.3-.16-.554-.35l-.227-.169-.128.09c-.303.217-.747.795-.747.975 0 .032.099.133.219.225.12.091.232.188.248.214.039.063-.191-.087-.395-.257-.154-.129-.158-.14-.108-.283.077-.226.24-.466.464-.684l.202-.196-.267.135a.855.855 0 0 0-.42.38c-.296.472-.325 1.003-.081 1.485.263.52.933 1.25 1.56 1.698.413.295.759.493.82.469.032-.012.111.028.177.089.066.06.136.1.157.087.021-.013.038-.001.038.025 0 .027.017.039.038.026.02-.012.173.043.34.123.168.08.35.16.408.178l.103.033-.118-.14c-.065-.077-.104-.163-.088-.19.015-.029.012-.037-.008-.019-.04.037-.196-.087-.196-.155 0-.024.035-.014.077.022.073.063.975.472 1.175.534.09.027.096.019.073-.115a2.422 2.422 0 0 0-.041-.197c-.01-.03-.233-.162-.497-.295-.265-.133-.482-.25-.482-.26 0-.011.197.07.437.18.24.111.449.189.465.173.016-.016-.009-.122-.055-.236l-.084-.206-.843-.428c-.918-.466-.885-.464-.703-.043.069.159.124.206.42.357.188.096.326.176.308.177a1.83 1.83 0 0 1-.299-.131c-.145-.074-.27-.128-.279-.12-.007.008.063.129.157.269s.16.271.148.292c-.014.022-.003.078.023.127.026.048.032.087.013.086-.047-.001-.428-.66-.42-.726.002-.03-.01-.049-.03-.044-.018.005-.165-.164-.326-.376-.334-.442-.721-.843-.978-1.013-.098-.065-.168-.126-.157-.137.035-.036.526.366.757.62.122.133.324.38.448.547.125.167.233.303.24.303a.646.646 0 0 0-.082-.163.778.778 0 0 1-.102-.273 3.647 3.647 0 0 0-.032-.283c-.016-.102-.013-.129.006-.065.026.087.184.186.803.5.423.215.785.376.802.359.018-.018-.05-.155-.15-.304-.141-.21-.152-.237-.048-.12.177.202.544.964.603 1.255.026.127.047.317.047.423 0 .198.066.279.23.282.066.001.075-.044.075-.344z" fill="#232729"/><path d="M14.82 15.969c.322-.139.328-.151.329-.764.001-.747.074-2.287.132-2.793.075-.653.201-1.182.48-2.011.301-.898.342-1.162.24-1.56a2.252 2.252 0 0 0-.088-.297c-.01-.009-.058.006-.108.032-.097.052-.26.346-.353.634-.03.096-.118.272-.195.392-.402.631-1.102.928-2.07.879-.604-.03-1.28-.179-2.754-.603-.67-.192-1.227-.34-1.24-.327-.04.04.144.394.346.666.23.31.714.725 1.448 1.24.928.652 1.814 1.62 2.214 2.419.223.445.422 1.345.422 1.909 0 .126.014.244.032.263.061.062.98 0 1.164-.08z" fill="#fefa12"/><path d="M13.884 10.406c.34-.053.837-.283 1.04-.48.293-.283.483-.695.653-1.413.041-.174.041-.174.046-.031l.004.142.128-.094c.07-.052.154-.084.187-.071.05.02.052-.017.01-.223-.312-1.51-.941-2.443-2.014-2.986-.336-.17-.978-.375-1.173-.375-.094 0-.192-.022-.22-.05-.028-.028-.286-.057-.629-.07-.67-.025-1.114.041-1.725.257-.634.224-1.579.744-1.579.87 0 .024-.02.031-.044.016-.024-.015-.21.136-.414.337l-.37.363v.528c0 .589.075.912.3 1.3.172.294.924 1.09.966 1.02.043-.07.241-.029.865.176.278.092.613.198.745.236l.24.07-.156-.141a44.757 44.757 0 0 0-.862-.725c-.728-.6-1.285-1.173-1.445-1.488-.125-.246-.261-.798-.256-1.04.004-.168.013-.145.059.15.072.468.18.78.362 1.058.154.233.81.87 1.302 1.264.465.371 1.011.834 1.039.879.015.023.256.113.536.2.753.232.703.225.576.078-.094-.109-.088-.106.046.017.133.123.209.15.544.203.48.074.87.082 1.24.023z" fill="url(#m)"/><path d="M20.39 20.582l-.007-.471c-.006-.423.005-.496.105-.708.121-.256.296-.422.644-.612.2-.11.267-.123.616-.12.365.001.397-.006.476-.106a.673.673 0 0 1 .229-.168.456.456 0 0 0 .145-.078c0-.054-.697-.43-.887-.48-1.54-.533-2.592 1.461-2.5 1.843-.31.61-.486.87-.767 1.129-.171.157-.293.244-.79.56l-.132.082.305.025c.214.017.09.027-.414.033-1.064.013-1.493.129-2.2.595-.358.235-.698.52-2.418 2.026-1.133.991-1.488 1.2-2.113 1.248a2.052 2.052 0 0 0-.414.066c-.44.172-.574 1.446-.328 3.095.032.215.07.402.084.416.08.08 2.777.083 3.6.208 1.383.212 2.83.238 3.974-.109 1.079-.327 1.435-.11 2.467-.852 1.181-.85 2.16-1.64 2.944-2.377l.26-.244-.134-.17a3.499 3.499 0 0 1-.557-1.127 5.098 5.098 0 0 0-.217-.61c-.162-.339-.52-.823-.762-1.027-.12-.101-.209-.2-.197-.22.013-.02-.101-.16-.253-.314-.475-.537-.498-.678-.76-1.533z" fill="url(#n)"/><path d="M12.851 10.696l1.627-.252c-.005.14-.075.169.14.489.113.169.132.182.315.377.293.311-.468 3.018.118 4.383l-1.008.32c-.121-.98-.153-1.932-1.003-3.163-.166-.484-.444-1.001-.118-1.342.177-.261.205-.53-.07-.812z" fill="url(#o)"/></svg>