<svg xmlns="http://www.w3.org/2000/svg" width="32" height="32" version="1"><g transform="translate(45.018 4.746)"><path d="M-37.543-2.848a5.565 5.565 0 0 0-5.576 5.577v6.267a4.995 4.995 0 0 1 1.025-1.525 5.007 5.007 0 0 1 3.547-1.465h18.979a5.014 5.014 0 0 1 3.547 1.465c.452.452.817.992 1.07 1.592.023.053.014.12.035.175v-6.51a5.563 5.563 0 0 0-5.574-5.576z" fill="#07603e" fill-rule="evenodd"/><rect ry="2.563" y="2.971" x="-29.626" height="5.766" width="7.248" fill="#e8bd00"/><path d="M-14.916 9.238c-.02-.055-.012-.122-.035-.176a4.993 4.993 0 0 0-4.617-3.056h-18.979a5.014 5.014 0 0 0-3.547 1.465 4.995 4.995 0 0 0-1.025 1.525v10.785a5.563 5.563 0 0 0 5.576 5.574h17.053a5.561 5.561 0 0 0 5.574-5.574z" fill="#20a366" fill-rule="evenodd"/><ellipse ry="5.871" rx="5.878" cy="15.713" cx="-29.058" fill="#64b3b3"/><path d="M-25.828-1.7c-.2.013-.35.113-.348.23v2.863c-.007.31.796.31.789 0V-1.47c.003-.138-.204-.247-.44-.23z" style="line-height:normal;font-variant-ligatures:normal;font-variant-position:normal;font-variant-caps:normal;font-variant-numeric:normal;font-variant-alternates:normal;font-feature-settings:normal;text-indent:0;text-align:start;text-decoration-line:none;text-decoration-style:solid;text-decoration-color:#000;text-transform:none;text-orientation:mixed;white-space:normal;shape-padding:0;isolation:auto;mix-blend-mode:normal;solid-color:#000;solid-opacity:1" color="#000" font-weight="400" font-family="sans-serif" overflow="visible" fill="#e8bd00"/><path d="M-28.752 9.11c-3.746 0-6.805 3.056-6.805 6.797 0 3.742 3.059 6.792 6.805 6.792 3.746 0 6.8-3.05 6.8-6.792 0-3.741-3.054-6.797-6.8-6.797zm0 1.85a4.937 4.937 0 0 1 4.954 4.947 4.937 4.937 0 0 1-4.954 4.948 4.937 4.937 0 0 1-4.954-4.948 4.937 4.937 0 0 1 4.954-4.948z" style="line-height:normal;font-variant-ligatures:normal;font-variant-position:normal;font-variant-caps:normal;font-variant-numeric:normal;font-variant-alternates:normal;font-feature-settings:normal;text-indent:0;text-align:start;text-decoration-line:none;text-decoration-style:solid;text-decoration-color:#000;text-transform:none;text-orientation:mixed;white-space:normal;shape-padding:0;isolation:auto;mix-blend-mode:normal;solid-color:#000;solid-opacity:1" color="#000" font-weight="400" font-family="sans-serif" overflow="visible" fill="#022804"/><path d="M-19.197.352c-.151-.133-.328-.168-.409-.083l-2.024 2.024c-.224.213.344.781.558.557l2.024-2.024c.1-.095.03-.319-.149-.474zM-32.603.281c.152-.132.329-.168.41-.083l2.023 2.024c.225.214-.344.782-.557.558L-32.751.756c-.1-.096-.03-.32.148-.475z" style="line-height:normal;font-variant-ligatures:normal;font-variant-position:normal;font-variant-caps:normal;font-variant-numeric:normal;font-variant-alternates:normal;font-feature-settings:normal;text-indent:0;text-align:start;text-decoration-line:none;text-decoration-style:solid;text-decoration-color:#000;text-transform:none;text-orientation:mixed;white-space:normal;shape-padding:0;isolation:auto;mix-blend-mode:normal;solid-color:#000;solid-opacity:1" color="#000" font-weight="400" font-family="sans-serif" overflow="visible" fill="#e8bd00"/></g></svg>