<svg xmlns="http://www.w3.org/2000/svg" height="32" width="32"><path d="M30.102 10.187H1.898v5.25h28.204z" fill="#d07e34" fill-rule="evenodd"/><path d="M7.473 1.836A5.561 5.561 0 0 0 1.898 7.41v2.777h28.204V7.41a5.561 5.561 0 0 0-5.575-5.574z" fill="gray" fill-rule="evenodd"/><path d="M30.102 15.437H1.898v9.93a5.561 5.561 0 0 0 5.575 5.574h17.052a5.563 5.563 0 0 0 5.577-5.574z" fill="#eaad43" fill-rule="evenodd"/><circle cx="8.035" cy="18.004" r="1.025" fill="#cb7f2c" fill-rule="evenodd"/><circle cx="24.454" cy="18.021" r="1.025" fill="#cb7f2c" fill-rule="evenodd"/><path d="M8.086 18.39c.765 11.788 15.73 10.67 16.301 0" fill="none" stroke="#fff" stroke-width="1.291" stroke-linecap="round"/><circle cx="22.763" cy="22.254" r="5" fill="#00b200" fill-rule="evenodd"/><g aria-label="RPM" style="line-height:1.25" font-weight="400" font-size="3.722" font-family="sans-serif" letter-spacing="0" word-spacing="0" fill="#fff"><path d="M20.515 22.525q.118.04.229.17.112.131.225.36l.373.742h-.395L20.6 23.1q-.134-.273-.262-.362-.125-.09-.343-.09h-.4v1.148h-.367v-2.714h.829q.465 0 .694.195.229.194.229.587 0 .256-.12.425-.118.17-.345.235zm-.92-1.14v.963h.462q.265 0 .4-.121.136-.124.136-.362t-.136-.358q-.135-.122-.4-.122zM22.183 21.385v1.02h.462q.256 0 .396-.133t.14-.378q0-.244-.14-.376-.14-.133-.396-.133zm-.367-.302h.829q.456 0 .688.208.235.205.235.603 0 .402-.235.607-.232.205-.688.205h-.462v1.09h-.367zM24.062 21.083h.547l.692 1.847.696-1.847h.547v2.714h-.358v-2.383l-.7 1.861h-.368l-.7-1.86v2.382h-.356z"/></g></svg>