<svg xmlns="http://www.w3.org/2000/svg" height="32" width="32" version="1"><rect width="28.203" height="28.203" x="1.898" y="1.898" ry="5.575" fill="#666" fill-rule="evenodd"/><path d="M14.539 4.746L4.746 26.015v.033c0 .666.535 1.202 1.2 1.206L16 5.418l10.055 21.836c.664-.003 1.199-.54 1.199-1.206v-.033L17.462 4.746h-2.923z" fill="#ed5050" stroke-width="1.244"/><path d="M5.89 4.753a1.197 1.197 0 0 0-1.137 1.136L14.863 16 4.753 26.112c.032.616.52 1.104 1.136 1.136L16 17.137l10.112 10.11a1.197 1.197 0 0 0 1.136-1.136L17.137 16l10.11-10.11a1.197 1.197 0 0 0-1.136-1.138L16 14.863 5.89 4.753z" fill="#70ed50"/><path d="M5.952 4.746c-.668 0-1.206.538-1.206 1.206v.402h10.45v20.9h1.608v-20.9h10.45v-.402c0-.668-.538-1.206-1.206-1.206z" fill="#5093ed"/></svg>