<svg xmlns="http://www.w3.org/2000/svg" height="32" width="32"><rect width="28.203" height="28.203" x="1.898" y="1.898" ry="5.575" fill="#8e8e8e" fill-rule="evenodd"/><g transform="matrix(.80384 0 0 .80384 5.154 5.538)" stroke-width="1.244"><path d="M2.495 14.762c-.04-2.897.456-5.652 1.47-8.18C5.235 3.377 7.087.106 10.366-.777c.756-.193 3.03-.28 3.173-.137.036.036-.24.4-.613.81-.802.879-1.946 2.061-2.232 3.18-.262 1.026-.26 1.317.03 1.506.627.41 5.832.705 6.484.348.13-.071.562-.316.96-.714.912-.911 2.55-1.915 3.758-2.101.868-.134 2.497-.023 2.565.183.021.065-.265.335-.637.6-.748.534-1.611 1.259-1.858 1.778-.15.315-.142.41.1 1.337.38 1.463.528 3.491.375 5.278-.167 1.946-.71 5.578-1.134 7.58-1.07 5.055-3.028 7.48-5.867 8.076-.688.144-2.582.014-2.582.014-6.798-.377-10.266-6.195-10.393-12.2z" fill="#4f4f4f"/><circle r="1.5" cx="10.993" cy="19.515" fill="#fff"/><circle cx="18.993" cy="20.515" r="1.5" fill="#fff"/></g></svg>