<svg xmlns="http://www.w3.org/2000/svg" height="32" width="32" version="1"><rect width="28.203" height="28.203" x="1.898" y="1.898" ry="5.575" fill="#e74c3c" fill-rule="evenodd"/><path d="M16 6a10 10 0 0 1 10 10 10 10 0 0 1-3 7.139V11.416c0-.785-.713-1.416-1.6-1.416h-.8c-.887 0-1.6.631-1.6 1.416v3.125l-3.646-2.045-4.288-2.404a.711.69 0 0 0-.339-.092.711.69 0 0 0-.727.689v9.62a.711.69 0 0 0 1.066.599l4.288-2.406L19 16.459v9.068A10 10 0 0 1 16 26 10 10 0 0 1 6 16 10 10 0 0 1 16 6z" fill="#fff"/></svg>