<svg xmlns="http://www.w3.org/2000/svg" height="32" width="32" version="1"><path d="M75.53-10.56c-11.08 0-20 8.92-20 20 0 .167-.004.333 0 .5.264-10.847 9.088-19.5 20-19.5s19.736 8.653 20 19.5c.004-.167 0-.333 0-.5 0-11.08-8.92-20-20-20z" opacity=".1" fill="#fff"/><rect width="28.203" height="28.203" x="1.898" y="1.898" ry="5.575" fill="#7d4698" fill-rule="evenodd"/><path d="M16 4.983A11.017 11.017 0 0 0 4.983 16 11.017 11.017 0 0 0 16 27.017zm6.2 1.912c.08.054.153.117.232.173a11.017 11.017 0 0 0-.232-.173zm.858.649c.103.086.199.18.299.27a11.017 11.017 0 0 0-.3-.27zm.79.73c.1.101.191.21.287.314a11.017 11.017 0 0 0-.286-.314zm.726.815c.089.11.169.227.254.34a11.017 11.017 0 0 0-.254-.34zm.631.866c.082.124.155.254.231.382a11.017 11.017 0 0 0-.23-.382zm.557.95c.062.118.117.24.175.361a11.017 11.017 0 0 0-.175-.361zm.458.994c.048.12.09.243.133.364a11.017 11.017 0 0 0-.133-.364zm.356 1.035c.038.13.069.263.102.396a11.017 11.017 0 0 0-.102-.396zm.274 1.165l.01.053a11.017 11.017 0 0 0-.01-.053zm.133 1.07l.008.11a11.017 11.017 0 0 0-.008-.11zM25.105 22.2c-.054.08-.117.153-.173.232a11.017 11.017 0 0 0 .173-.232zm-.649.858c-.086.103-.18.199-.27.299a11.017 11.017 0 0 0 .27-.3zm-.73.79c-.101.1-.21.191-.314.287a11.017 11.017 0 0 0 .314-.286zm-.815.726c-.11.089-.227.169-.34.254a11.017 11.017 0 0 0 .34-.254zm-.866.631c-.124.082-.254.155-.382.231a11.017 11.017 0 0 0 .382-.23zm-.95.557c-.118.062-.24.117-.361.175a11.017 11.017 0 0 0 .361-.175zm-.994.458c-.12.048-.243.09-.364.133a11.017 11.017 0 0 0 .364-.133zm-1.035.356c-.13.038-.263.069-.396.102a11.017 11.017 0 0 0 .396-.102zm-1.165.274l-.053.01a11.017 11.017 0 0 0 .053-.01zm-1.07.133l-.11.008a11.017 11.017 0 0 0 .11-.008z" fill="#ffe2ac"/><circle cx="16" cy="16" r="8.656" fill="#ccb58a"/><circle r="6.295" cx="16" cy="16" fill="#a3916e"/><circle cx="16" cy="16" r="3.935" fill="#827458"/><path d="M27.017 16c0 6.084-4.933 11.017-11.017 11.017V4.983c6.084 0 11.017 4.933 11.017 11.017z" fill="#7d4698"/></svg>