<svg xmlns="http://www.w3.org/2000/svg" width="32" height="32" version="1"><rect width="28.203" height="28.203" x="1.898" y="1.898" ry="5.575" fill="#4f4f4f" fill-rule="evenodd"/><path d="M16 4.993a1.5 1.5 0 0 0-1.5 1.5 1.5 1.5 0 0 0 1.5 1.5 1.5 1.5 0 0 0 1.5-1.5 1.5 1.5 0 0 0-1.5-1.5zm-6.035 2a1.5 1.5 0 0 0-.715.199 1.5 1.5 0 0 0-.549 2.05 1.5 1.5 0 0 0 2.049.55 1.5 1.5 0 0 0 .549-2.05 1.5 1.5 0 0 0-1.334-.75zm12.07 0a1.5 1.5 0 0 0-1.334.75 1.5 1.5 0 0 0 .549 2.049 1.5 1.5 0 0 0 2.049-.55 1.5 1.5 0 0 0-.549-2.05 1.5 1.5 0 0 0-.715-.2zm-15.998 4a1.5 1.5 0 0 0-.107.002 1.5 1.5 0 0 0-1.229.748 1.5 1.5 0 0 0 .551 2.049 1.5 1.5 0 0 0 2.049-.55 1.5 1.5 0 0 0-.549-2.048 1.5 1.5 0 0 0-.715-.201zm19.926 0a1.5 1.5 0 0 0-.715.2 1.5 1.5 0 0 0-.549 2.05 1.5 1.5 0 0 0 2.049.549 1.5 1.5 0 0 0 .55-2.05 1.5 1.5 0 0 0-1.228-.747 1.5 1.5 0 0 0-.107-.002zM5 16.993a1.5 1.5 0 0 0-1.5 1.5 1.5 1.5 0 0 0 1.5 1.5 1.5 1.5 0 0 0 1.5-1.5 1.5 1.5 0 0 0-1.5-1.5zm22 0a1.5 1.5 0 0 0-1.5 1.5 1.5 1.5 0 0 0 1.5 1.5 1.5 1.5 0 0 0 1.5-1.5 1.5 1.5 0 0 0-1.5-1.5zm-20.035 5a1.5 1.5 0 0 0-.713.2 1.5 1.5 0 0 0-.55 2.05 1.5 1.5 0 0 0 2.05.549 1.5 1.5 0 0 0 .549-2.05 1.5 1.5 0 0 0-1.336-.75zm17.963 0a1.5 1.5 0 0 0-1.229.75 1.5 1.5 0 0 0 .549 2.049 1.5 1.5 0 0 0 2.05-.55 1.5 1.5 0 0 0-.55-2.048 1.5 1.5 0 0 0-.713-.201 1.5 1.5 0 0 0-.107 0z" fill="#ff5757"/><g transform="translate(-.5 1.993)" fill="#ffa6a6"><path d="M25.193 17.83l-8.115-.622.776-2.898z"/><circle cx="10.701" cy="-19.949" r="2.5" transform="rotate(105)"/></g></svg>