<svg xmlns="http://www.w3.org/2000/svg" height="32" width="32"><rect width="28.203" height="28.203" x="1.898" y="1.898" ry="5.575" fill="#bad632" fill-rule="evenodd"/><path d="M16 5.402a10.598 9.841 0 0 0-10.598 9.841 10.598 9.841 0 0 0 3.785 7.537v3.818l2.817-2.246a10.598 9.841 0 0 0 3.996.732 10.598 9.841 0 0 0 10.598-9.841A10.598 9.841 0 0 0 16 5.402z" fill="#fff"/><path d="M16 8.43a6.813 6.813 0 0 0-6.813 6.813A6.813 6.813 0 0 0 16 22.056a6.813 6.813 0 0 0 .757-.05v3.042a10.598 9.841 0 0 0 2.271-.378v-3.327a6.813 6.813 0 0 0 3.785-6.1A6.813 6.813 0 0 0 16 8.428z" fill="#578418"/><path d="M16 11.458a3.785 3.785 0 0 0-3.785 3.785v5.658a6.813 6.813 0 0 0 2.271.976V18.71a3.785 3.785 0 0 0 1.514.318 3.785 3.785 0 0 0 3.785-3.785A3.785 3.785 0 0 0 16 11.458z" fill="#252920"/></svg>