<svg xmlns="http://www.w3.org/2000/svg" height="32" width="32" version="1"><rect width="28.203" height="28.203" x="1.898" y="1.898" ry="5.575" fill="#65c57a" fill-rule="evenodd"/><g transform="translate(47.628 -.594)"><path d="M-31.628 6.149a2.978 2.978 0 0 0-2.985 2.984v3.484l-1.321-1.321a2.28 2.28 0 0 0-3.231 0 2.28 2.28 0 0 0 0 3.23l4.306 4.306-4.306 4.307a2.28 2.28 0 0 0 0 3.23 2.28 2.28 0 0 0 3.23 0l2.758-2.757c.452.275.978.443 1.549.443.57 0 1.097-.168 1.549-.443l2.757 2.757a2.28 2.28 0 0 0 3.23 0 2.28 2.28 0 0 0 0-3.23l-4.306-4.307 4.307-4.306a2.28 2.28 0 0 0 0-3.23 2.28 2.28 0 0 0-3.231 0l-1.322 1.321V9.133a2.978 2.978 0 0 0-2.984-2.984z" fill="#2d5a37"/><rect x="-26.293" y="24.167" width="15.668" height="14.922" ry="7.461" rx="7.834" transform="matrix(0 -1 -1 0 0 0)" fill="#6d7481"/><path d="M-36.083 14.334a.746.746 0 0 0-.756.758h-.002v2.868a.746.746 0 0 0-.001.007.746.746 0 0 0-.003.026.746.746 0 0 0-.005.061.746.746 0 0 0 .002.067.746.746 0 0 0 .003.035.746.746 0 0 0 .004.038v2.867a.746.746 0 0 0 .01.126.746.746 0 0 0 .016.073.746.746 0 0 0 .022.07.746.746 0 0 0 0 .003.746.746 0 0 0 .028.064.746.746 0 0 0 .001.004.746.746 0 0 0 .037.063.746.746 0 0 0 .042.061.746.746 0 0 0 .048.057.746.746 0 0 0 .05.05.746.746 0 0 0 .004.003.746.746 0 0 0 .002.001.746.746 0 0 0 .056.044.746.746 0 0 0 .062.04.746.746 0 0 0 .004.002.746.746 0 0 0 .045.022.746.746 0 0 0 .028.013.746.746 0 0 0 .061.023.746.746 0 0 0 .128.03.746.746 0 0 0 .037.004.746.746 0 0 0 .011 0 .746.746 0 0 0 .056.003.746.746 0 0 0 .054-.003.746.746 0 0 0 .008 0 .746.746 0 0 0 .003 0 .746.746 0 0 0 .037-.005.746.746 0 0 0 .128-.029.746.746 0 0 0 .067-.026.746.746 0 0 0 .001 0 .746.746 0 0 0 .005-.001.746.746 0 0 0 .06-.032.746.746 0 0 0 .002 0 .746.746 0 0 0 .003-.002.746.746 0 0 0 .118-.083.746.746 0 0 0 .006-.004.746.746 0 0 0 .05-.05.746.746 0 0 0 .048-.057.746.746 0 0 0 .042-.06.746.746 0 0 0 .037-.064.746.746 0 0 0 .001-.004.746.746 0 0 0 .028-.064.746.746 0 0 0 0-.003.746.746 0 0 0 .022-.07.746.746 0 0 0 .016-.073.746.746 0 0 0 .01-.127v-2.238h1.49v2.238a.746.746 0 0 0 .01.127.746.746 0 0 0 .017.073.746.746 0 0 0 .022.07.746.746 0 0 0 0 .003.746.746 0 0 0 .027.064.746.746 0 0 0 .002.004.746.746 0 0 0 .036.063.746.746 0 0 0 .043.061.746.746 0 0 0 .048.057.746.746 0 0 0 .05.05.746.746 0 0 0 .004.003.746.746 0 0 0 .001.001.746.746 0 0 0 .057.044.746.746 0 0 0 .061.04.746.746 0 0 0 .003 0 .746.746 0 0 0 .001.002.746.746 0 0 0 .046.022.746.746 0 0 0 .019.01.746.746 0 0 0 .008.003.746.746 0 0 0 .061.023.746.746 0 0 0 .129.03.746.746 0 0 0 .036.004.746.746 0 0 0 .012 0 .746.746 0 0 0 .055.003.746.746 0 0 0 .054-.003.746.746 0 0 0 .009 0 .746.746 0 0 0 .003 0 .746.746 0 0 0 .036-.004.746.746 0 0 0 .128-.03.746.746 0 0 0 .067-.026.746.746 0 0 0 .002 0 .746.746 0 0 0 .004-.001.746.746 0 0 0 .061-.032.746.746 0 0 0 .002 0 .746.746 0 0 0 .003-.002.746.746 0 0 0 .118-.083.746.746 0 0 0 .001-.001.746.746 0 0 0 .005-.003.746.746 0 0 0 .05-.05.746.746 0 0 0 .047-.057.746.746 0 0 0 .043-.06.746.746 0 0 0 .036-.064.746.746 0 0 0 0-.001.746.746 0 0 0 .001-.003.746.746 0 0 0 .028-.064.746.746 0 0 0 0-.002.746.746 0 0 0 0-.001.746.746 0 0 0 .022-.07.746.746 0 0 0 .016-.073.746.746 0 0 0 .01-.127v-2.866a.746.746 0 0 0 .005-.038.746.746 0 0 0 .002-.035.746.746 0 0 0 .002-.04.746.746 0 0 0-.002-.044.746.746 0 0 0 0-.003.746.746 0 0 0 0-.008.746.746 0 0 0-.007-.06.746.746 0 0 0 0-.007v-2.868h-.001a.746.746 0 0 0-.757-.757.746.746 0 0 0-.503.207.746.746 0 0 0-.052.054.746.746 0 0 0-.037.046.746.746 0 0 0-.024.034.746.746 0 0 0-.01.013.746.746 0 0 0-.11.519v2.123h-1.49v-2.123a.746.746 0 0 0-.111-.52.746.746 0 0 0-.002-.002.746.746 0 0 0-.022-.032.746.746 0 0 0-.01-.012.746.746 0 0 0-.036-.046.746.746 0 0 0-.053-.054.746.746 0 0 0-.503-.207zm6.693 1.514a2.238 2.238 0 0 0-2.238 2.238 2.238 2.238 0 0 0 2.238 2.239 2.238 2.238 0 0 0 .554-.073c-.017.062-.027.136-.047.192-.107.308-.241.491-.374.58-.133.09-.306.152-.725.063a.746.746 0 1 0-.309 1.46c.701.149 1.368.05 1.864-.283.497-.333.782-.832.955-1.33.346-.996.32-2.102.32-2.848a.746.746 0 0 0-.004-.086 2.238 2.238 0 0 0-2.234-2.152zm0 1.492a.746.746 0 0 1 .746.746.746.746 0 0 1-.746.746.746.746 0 0 1-.746-.746.746.746 0 0 1 .746-.746z" fill="#c4c4c4"/></g></svg>