<svg xmlns="http://www.w3.org/2000/svg" height="32" width="32" version="1"><rect width="28.203" height="28.203" x="1.898" y="1.898" ry="5.575" fill="#5f7c8a" fill-rule="evenodd"/><path d="M13.794 5.224a.554.554 0 0 0-.472.438l-.454 2.307a8.673 8.673 0 0 0-2.256 1.296l-2.24-.757a.556.556 0 0 0-.64.235l-2.154 3.738a.556.556 0 0 0 .117.674L7.48 14.72c-.063.42-.1.842-.1 1.28 0 .437.037.86.1 1.279l-1.785 1.566a.556.556 0 0 0-.117.673l2.155 3.738a.556.556 0 0 0 .64.236l2.239-.758c.673.54 1.44.978 2.256 1.297l.455 2.307a.556.556 0 0 0 .522.437h4.31a.556.556 0 0 0 .522-.437l.455-2.307a8.673 8.673 0 0 0 2.256-1.297l2.24.758a.556.556 0 0 0 .64-.236l2.154-3.738a.556.556 0 0 0-.117-.673L24.52 17.28c.063-.42.1-.842.1-1.28a8.6 8.6 0 0 0-.1-1.28l1.785-1.565a.556.556 0 0 0 .117-.674l-2.155-3.738a.556.556 0 0 0-.64-.235l-2.239.757a8.68 8.68 0 0 0-2.257-1.297l-.454-2.306a.556.556 0 0 0-.522-.438h-4.361z" fill="#fff"/><path d="M11.382 12.098v3.079h3.079v6.158h3.078v-6.158h3.08v-3.079z" fill="#5f7c8a"/></svg>