<svg xmlns="http://www.w3.org/2000/svg" height="32" width="32" version="1"><rect width="28.203" height="28.203" x="1.898" y="1.898" ry="5.575" fill="#258dcb" fill-rule="evenodd"/><g stroke-width="1.421"><path d="M17.705 5.799l-2.993 4.22a8.383 8.328 0 0 0-2.421 1.325c-2.98-.709-6.14 1.669-6.14 1.669l3.067 6.297a8.383 8.328 0 0 0 8.249 6.891 8.383 8.328 0 0 0 8.383-8.327 8.383 8.328 0 0 0-3.36-6.655c-.511-3.48-4.785-5.42-4.785-5.42z" fill="#50beee"/><path d="M8.362 13.538c-.252.001-.52.028-.805.087 0 0 1.765.195 2.643 1.388-.37 1.56-.853 2.746-.853 2.746l1.728-3.017s-.95-1.217-2.713-1.204zM17.407 7.206L16 10.02l.858-.275s.433-1.174.55-2.54zM13.674 18.292a1.759 1.765 0 0 0-.382 1.823 1.759 1.765 0 0 0 2.254 1.055 1.759 1.765 0 0 0 1.051-2.262 1.759 1.765 0 0 0-1.46-1.15l-.005.12-.087 1.91-1.29-1.407zM19.302 15.478a1.759 1.765 0 0 0-.382 1.823 1.759 1.765 0 0 0 2.255 1.055 1.759 1.765 0 0 0 1.05-2.262 1.759 1.765 0 0 0-1.46-1.15l-.005.12-.087 1.91-1.29-1.407zM21.833 20.573a.51.559 0 0 0-.05.002.51.559 0 0 0-.344.19c-.21.254-.63.312-1.08.244a3.31 3.31 0 0 1-.777-.217.51.559 0 0 0-.239-.07.51.559 0 0 0-.534.598c-.024.132-.083.42-.227.779-.183.456-.451.82-.76.882a.51.56 0 0 0 .187 1.1c.818-.166 1.261-.923 1.505-1.531.08-.197.136-.38.183-.55.157.045.328.088.521.117.6.09 1.42.074 1.978-.604a.51.559 0 0 0-.363-.94z" fill="#fff"/></g></svg>