<svg xmlns="http://www.w3.org/2000/svg" height="32" width="32" version="1"><rect width="28.203" height="28.203" x="1.898" y="1.898" ry="5.575" fill="#4f4f4f" fill-rule="evenodd"/><path fill="gray" d="M10 4.5h12v10H10z"/><g fill="#fff"><path d="M6 4.5h3v3H6zM6 9.5h3v3H6zM6 14.5h3v3H6zM6 19.5h3v3H6zM6 24.5h3v3H6zM23 4.5h3v3h-3zM23 9.5h3v3h-3zM23 14.5h3v3h-3zM23 19.5h3v3h-3zM23 24.5h3v3h-3z"/></g><path fill="gray" d="M10 17.5h12v10H10z"/><g transform="matrix(.75 0 0 .75 4.562 5.335)" stroke-width="1.333"><circle r="8" cy="23" cx="24" fill="#4269cd" fill-rule="evenodd"/><path d="M24 19a4 4 0 0 0 0 8 4 4 0 0 0 3.84-2.857h-1.233A2.85 2.85 0 0 1 24 25.857a2.857 2.857 0 1 1 0-5.714c.79 0 1.495.329 2.009.848l-1.437 1.438H28V19l-1.173 1.173A3.99 3.99 0 0 0 24 19z" fill="#fff"/></g></svg>