<svg xmlns="http://www.w3.org/2000/svg" height="32" width="32" version="1"><rect width="28.203" height="28.203" x="1.898" y="1.898" ry="5.575" fill="#9b6bca" fill-rule="evenodd"/><path d="M6.384 5.21c.771 1.067 1.165 2.199 0 3.853-.123 1.447.384 2.288 2.115 2.257.41-.028 1.06-.109 1.401-.43.542-.664.332-1.011.109-1.057-.232-.07-.794.278-.255.535.114.464-1.18.417-1.42.026-.898-1.61 1.493-2.766 4.216-1.716.558 4.392 1.19 9.988.507 15.216-.448 1.038-.927 1.661-2.049 2.125v.771c1.542-.77 5.395-.77 7.707-.77v-.771c-.996-.18-1.788-1.106-1.905-2.037-.388-5.182-.67-8.978.364-14.149h3.83c.477.011.673.407.794 1.542h1.542c-.538-1.285-.77-2.312-.77-3.854-5.758.89-9.96.1-16.186-1.541zm16.462 12.34c-1.065-.01-1.88.341-2.476 1.242a1.323 1.323 0 0 0-.154.595c-.013.278.043.5.191.744.045.073.165.209.23.257.147.112.378.222.491.235.03.003.073.01.095.015.366-.014.557-.32.557-.717 0-.5.92-1.503 1.235-.152-.079.856-.532 1.026-1.137 1.456-.066.04-.104.092-.104.147.197.41.384.79.527 1.22.05.12.079.152.139.152.026 0 .048-.015.09-.059.234-.322.382-.765.622-.348.075.143.11.243.162.47.012.052.016.126.021.298.005.168 0 .228-.036.455-.355.938-.925 1.39-2.097 1.123-.112-.06-.218-.163-.218-.213 0-.032.06-.046.184-.045.158.002.258-.026.328-.087a.542.542 0 0 0 .185-.194c.009-.016.018-.033.021-.036a.611.611 0 0 0 .078-.26c.024-.246-.003-.235-.107-.42-.117-.211-.387-.401-.644-.455a.955.955 0 0 0-.266-.03c-.524-.007-.993.426-1.24 1.112-.06.335-.065.378-.044.611.018.206.056.362.135.551a2.704 2.704 0 0 0 .172.334c.047.083.122.19.158.226.01.01.018.023.018.029a3.283 3.283 0 0 0 .424.414 2.245 2.245 0 0 0 .73.384c.093.033.345.101.413.11l.111.025c.046.01.13.025.188.033.059.009.192.017.295.018.227.003.655-.017.713-.033a.91.91 0 0 1 .076-.016c.037-.006.27-.053.301-.06.06-.016.111-.031.205-.06.058-.017.128-.036.154-.042a.253.253 0 0 0 .058-.02 3.005 3.005 0 0 0 .656-.322c.011-.006.052-.034.091-.061a.671.671 0 0 1 .078-.05c.013 0 .136-.089.193-.14l.092-.078a2.166 2.166 0 0 0 .363-.39c.081-.096.147-.185.147-.199 0-.005.025-.046.054-.091a.846.846 0 0 0 .053-.088c0-.003.019-.047.042-.096l.059-.125a2.408 2.408 0 0 0 .168-.712 3.118 3.118 0 0 0-.003-.467 2.813 2.813 0 0 1-.02-.152 2.921 2.921 0 0 0-.147-.635 7.99 7.99 0 0 1-.06-.163.414.414 0 0 0-.035-.076.089.089 0 0 1-.016-.04c0-.028-.15-.318-.221-.427a2.344 2.344 0 0 1-.077-.123.37.37 0 0 0-.044-.07.413.413 0 0 1-.034-.05.477.477 0 0 0-.041-.058.571.571 0 0 1-.042-.054.568.568 0 0 0-.075-.094c-.04-.049-.179-.201-.308-.338-.137-.147-.251-.15-.26-.19-.009-.04.021-.094.092-.167.08-.083.168-.208.22-.309a.213.213 0 0 1 .027-.04c.012-.013.144-.272.16-.315.006-.013.015-.045.023-.07a2.117 2.117 0 0 0 .114-.513 3.244 3.244 0 0 0-.022-.668 2.917 2.917 0 0 0-.135-.388 4.551 4.551 0 0 1-.063-.128 1.31 1.31 0 0 0-.26-.357 3.499 3.499 0 0 0-.364-.319 2.21 2.21 0 0 0-.278-.164 3.858 3.858 0 0 0-.241-.105.239.239 0 0 1-.053-.026.046.046 0 0 0-.027-.01.198.198 0 0 1-.054-.016 1.903 1.903 0 0 0-.536-.125z" fill="#fff"/></svg>