<svg xmlns="http://www.w3.org/2000/svg" height="32" width="32" version="1"><rect width="28.203" height="28.203" x="1.898" y="1.898" ry="5.575" fill="#fecd38" fill-rule="evenodd"/><path d="M6.493 5.343c.762 1.054 1.15 2.172 0 3.806-.121 1.429.38 2.26 2.089 2.229.404-.027 1.046-.108 1.384-.425.535-.655.327-.998.107-1.044-.23-.068-.784.275-.252.53.113.458-1.166.41-1.402.024-.887-1.589 1.474-2.731 4.163-1.694.551 4.337 1.177 9.864.501 15.027-.442 1.026-.915 1.641-2.023 2.1v.76c1.522-.76 5.328-.76 7.612-.76v-.762c-.985-.177-1.766-1.092-1.882-2.011-.383-5.118-.662-8.867.36-13.974h3.782c.471.01.665.402.785 1.523h1.522c-.531-1.269-.761-2.284-.761-3.806-5.686.879-9.837.098-15.985-1.523zm15.71 12.18a4.928 4.928 0 0 0-.85.078c-.536.096-1.214.393-1.35.92-.125.483-.156 1.147.671 1.337l.281-.052v-.761c.46-.94 1.522-1 2.158-.296.787 1.429-.227 3.092-.96 4.16-.72 1.188-1.732 1.4-2.72 2.225v.762s3.38.209 4.567.76c.167-.69 1.815-2.026 1.48-2.687-.45-.575-1.48-.357-1.48.404l.666-.015c.122-.257.057-.306.217-.15.094.462-.393.696-.712.842-.932.085-2.455.085-2.46.044 2.059-2.054 4.742-4.568 2.927-6.68-.702-.654-1.575-.895-2.435-.892z" fill="#fff"/></svg>