<svg xmlns="http://www.w3.org/2000/svg" height="32" width="32" version="1"><rect width="28.203" height="28.203" x="1.898" y="1.898" ry="5.575" fill="#fecd38" fill-rule="evenodd"/><path d="M7.354 4.985c.788 1.09 1.19 2.245 0 3.934-.125 1.477.392 2.335 2.16 2.303.417-.028 1.081-.11 1.43-.439.553-.677.338-1.032.11-1.079-.236-.07-.809.285-.26.547.117.474-1.204.425-1.448.026-.918-1.642 1.523-2.823 4.303-1.751.57 4.483 1.215 10.196.517 15.532-.456 1.06-.946 1.696-2.091 2.17v.787c1.574-.787 5.507-.787 7.868-.787v-.787c-1.018-.183-1.826-1.128-1.946-2.079-.395-5.29-.684-9.164.372-14.443h3.91c.487.011.687.416.81 1.574h1.574c-.549-1.312-.786-2.36-.786-3.934-5.877.908-10.167.1-16.523-1.574z" fill="#fff"/></svg>