<svg xmlns="http://www.w3.org/2000/svg" height="32" width="32" version="1"><rect width="28.203" height="28.203" x="1.898" y="1.898" ry="5.575" fill="#af6835" fill-rule="evenodd"/><g transform="translate(50.746 -3.343)"><path d="M-27.699 17.486c.191-.647.297-1.33.297-2.037 0-4.023-3.287-7.284-7.344-7.284-4.054 0-7.342 3.26-7.342 7.284 0 .708.106 1.39.297 2.037-.925.737-4.513 3.93-3.037 8.07 0 0 1.249-.106 2.275-1.988a7.94 7.94 0 0 0 1.683 3.213c-1.16.338-1.946.995-1.946 1.75 0 1.1 1.674 1.991 3.738 1.991 1.4 0 2.62-.411 3.26-1.018.352.046.707.078 1.071.078.365 0 .721-.032 1.072-.078.64.607 1.86 1.018 3.26 1.018 2.065 0 3.74-.892 3.74-1.992 0-.753-.787-1.41-1.947-1.75a7.95 7.95 0 0 0 1.684-3.212c1.025 1.881 2.273 1.988 2.273 1.988 1.478-4.141-2.11-7.334-3.034-8.07z" fill="#4f4f4f"/><circle r="1.491" cx="-38.473" cy="13.381" fill="#fff"/><circle r="1.491" cx="-31.02" cy="13.381" fill="#fff"/><ellipse cx="-34.746" cy="21.579" ry="5.962" rx="5.217" fill="#fff"/><circle r=".745" cx="-37.727" cy="14.126" fill="#303030"/><circle r=".745" cx="-30.275" cy="14.126" fill="#303030"/><path d="M-36.237 14.126h2.981c-.239 2.297-1.49 4.472-1.49 4.472s-1.49-2.581-1.49-4.472z" fill="#cd5252"/><path d="M-28.582 21.363c.358-.074.707.063.877.326l.072-.018c.343-.266.824-.5 1.388-.645.564-.145 1.102-.173 1.537-.108l.244-.063c.135-.035.19-.255.124-.492l-.388-1.395c-.066-.236-.227-.4-.36-.366l-.24.062c-.344.266-.827.502-1.394.648-.567.146-1.108.173-1.544.107l-.05.013c.016.329-.225.643-.594.757l-3.705.941c-.1-.066-.218-.246-.247-.714-.051-.838-.778-1.725-2.28-.867-1.501.858-.993 1.443-3.3.422-.788-.406-1.677-.542-2.54-.32-2.048.527-3.177 2.863-2.522 5.218.656 2.355 2.847 3.837 4.895 3.31l.109-.031s.014-.003.037-.011c.17-.052.332-.117.488-.193.606-.275 1.571-.844 1.969-1.796.6-1.437 1.837-.63 2.557-.658.719-.028 1.07-.21 1.278-.539 0 0-.877.069-1.129-.835-.202-.727.445-1.384.878-1.678l3.839-1.075z" fill="#cd8652" stroke-width="1.342"/><circle r="1.491" cx="-37.727" cy="23.07" fill="#212121"/></g></svg>