<svg xmlns="http://www.w3.org/2000/svg" width="32" height="32"><rect width="28.203" height="28.203" x="1.898" y="1.898" ry="5.575" fill="#8e8e8e" fill-rule="evenodd"/><g transform="translate(32.309 -.329) scale(.91814)" stroke-width="1.089"><path d="M-25.283 8.785a3.56 3.56 0 0 0-3.569 3.569v9.462a3.56 3.56 0 0 0 3.569 3.569h1.926a2.461 2.461 0 0 0 2.441 2.14h6.307c1.256 0 2.277-.93 2.441-2.14h1.926a3.56 3.56 0 0 0 3.568-3.569v-9.462a3.56 3.56 0 0 0-3.568-3.569z" fill="#474747"/><rect rx="2.703" ry="2.594" y="9.835" x="-27.854" height="14.5" width="20.183" fill="#232323"/></g></svg>