<svg xmlns="http://www.w3.org/2000/svg" height="32" width="32" version="1"><rect width="28.203" height="28.203" x="1.898" y="1.898" ry="5.575" fill="#54abed" fill-rule="evenodd"/><path d="M6.25 7.983c-.646 0-1.166.515-1.166 1.155v13.688c0 .64.52 1.112 1.166 1.112h7.23l2.52 2.52 2.52-2.52h7.23c.646 0 1.166-.472 1.166-1.112V9.138c0-.64-.52-1.155-1.166-1.155z" fill="#fff"/><path d="M22.718 11.792a5.511 5.511 0 0 1-1.583.434 2.765 2.765 0 0 0 1.212-1.525 5.52 5.52 0 0 1-1.75.67 2.757 2.757 0 0 0-4.697 2.514 7.826 7.826 0 0 1-5.683-2.88 2.755 2.755 0 0 0 .853 3.68 2.745 2.745 0 0 1-1.248-.345v.034c0 1.336.95 2.45 2.21 2.703a2.76 2.76 0 0 1-1.244.047 2.76 2.76 0 0 0 2.575 1.915 5.53 5.53 0 0 1-4.081 1.141 7.803 7.803 0 0 0 4.226 1.239c5.07 0 7.843-4.2 7.843-7.843 0-.12-.002-.238-.008-.357a5.603 5.603 0 0 0 1.376-1.427" fill="#54abed"/></svg>