<svg xmlns="http://www.w3.org/2000/svg" height="32" width="32"><rect width="28.203" height="28.203" x="1.898" y="1.898" ry="5.575" fill="#ccc" fill-rule="evenodd"/><path d="M16 9.343c-2.585 0-4.786 1.535-5.734 3.707-2.406.347-4.251 2.336-4.251 4.765 0 2.674 2.235 4.842 4.992 4.842h10.61c2.412 0 4.368-1.897 4.368-4.237 0-2.174-1.686-3.956-3.861-4.197-.568-2.776-3.095-4.88-6.124-4.88z" fill="#666"/><path d="M14.669 13.337h2.662c1.332 0 1.332 1.332 1.332 1.332v5.325H17.33v-1.997H14.67v1.997h-1.332v-5.325c0-1.332 1.332-1.332 1.332-1.332zm0 1.332v1.997h2.662v-1.997z" opacity=".5" fill="#fff"/></svg>