<svg xmlns="http://www.w3.org/2000/svg" width="32" height="32"><rect width="28.203" height="28.203" x="1.898" y="1.898" ry="5.575" fill="#e6e6e6" fill-rule="evenodd"/><g stroke-width="1.817"><path d="M17.428 26.242c.904-.103 1.502-.227 2.241-.468 1.872-.607 3.338-1.678 4.328-3.16.652-.975 1.036-2.005 1.241-3.32.054-.344.115-2.116.073-2.116-.011 0-.038.065-.06.146-.07.265-.374.99-.605 1.443-.417.822-.857 1.423-1.479 2.023-.42.405-.666.599-1.125.883-1.382.857-3.202 1.257-5.218 1.147-1.357-.074-2.38-.33-3.327-.83a5.634 5.634 0 0 0-.334-.168c-.027 0 .126.503.246.808.469 1.192 1.45 2.388 2.54 3.098.316.206.946.562.997.564.019 0 .236-.022.482-.05z" fill="#98999e"/><path d="M15.929 26.302c-.002-.014-.142-.117-.312-.23-.527-.345-1.212-.989-1.655-1.553a6.69 6.69 0 0 1-1.378-3.059c-.075-.411-.075-.427-.075-4.755v-4.343h-1.152l-.01 2.141-.008 2.142h-1.17v-2.546l-.575-.01-.575-.009-.01.577-.01.577H7.849l-.009-3.182L7.83 8.87l-.394-.011a5.108 5.108 0 0 0-.578.01l-.183.024.012 5.028c.013 5.46.001 5.1.202 6.06a7.66 7.66 0 0 0 2.182 3.9c.29.274 1.075.899 1.13.899.009 0 .084.045.166.101.083.056.312.186.51.29 1.111.583 2.458.963 3.85 1.086.237.02.484.042.55.049.252.023.654.02.652-.004zm-5.777-13.957v-.568H9.017V12.912H10.152zm1.17-1.72v-.568H10.187V11.192H11.322zm1.173-.92c.001-.024.004-.283.006-.577l.002-.533-.573-.01-.574-.009V9.747h.568c.43 0 .568-.01.57-.043zm-2.343-1.11v-.567H9.017V9.163H10.152zm1.17-1.17v-.567H10.187V7.993H11.322zm-3.517-1.17l.01-.567H6.678v.566c0 .666-.075.597.636.58l.482-.013z" fill="#1d97d8"/><path d="M20.094 22.006a6.506 6.506 0 0 0 2.012-.945c1.05-.738 1.87-1.821 2.44-3.222.15-.372.3-.825.626-1.897l.15-.496V5.678l-.576.024c-2.147.09-3.509.486-4.321 1.257a2.615 2.615 0 0 0-.708 1.103c-.199.6-.184.127-.209 6.897-.023 6.507-.017 6.225-.156 7.093l-.023.144.219-.051c.12-.028.366-.09.546-.14z" fill="#050507"/></g></svg>