<svg xmlns="http://www.w3.org/2000/svg" height="32" width="32"><rect width="28.203" height="28.203" x="1.898" y="1.898" ry="5.575" fill="#7ec639" fill-rule="evenodd"/><g fill="#4d4d4d"><path d="M24.293 15a8 8 0 0 0-2.895-5.2c-.325.122-.67.2-1.035.2-1.258 0-2.34-.794-2.783-1.902A8 8 0 0 0 16.363 8a8 8 0 0 0-3.104.627l1.522 2.637A5 5 0 0 1 16.363 11a5 5 0 0 1 4.894 4h3.036zm-.002 2h-3.029a5 5 0 0 1-4.898 4 5 5 0 0 1-1.582-.262l-1.518 2.63a8 8 0 0 0 3.1.632 8 8 0 0 0 1.22-.105c.444-1.104 1.524-1.895 2.78-1.895.365 0 .712.077 1.038.2a8 8 0 0 0 2.89-5.2zM22.363 7a2 2 0 0 0-2-2 2 2 0 0 0-2 2 2 2 0 0 0 2 2 2 2 0 0 0 2-2zm0 18a2 2 0 0 0-2-2 2 2 0 0 0-2 2 2 2 0 0 0 2 2 2 2 0 0 0 2-2zm-9.312-12.736l-1.518-2.63a8 8 0 0 0-2.918 4.413A2.97 2.97 0 0 1 9.363 16a2.97 2.97 0 0 1-.746 1.951 8 8 0 0 0 2.914 4.418l1.52-2.63A5 5 0 0 1 11.363 16a5 5 0 0 1 1.688-3.736zM8.363 16a2 2 0 0 0-2-2 2 2 0 0 0-2 2 2 2 0 0 0 2 2 2 2 0 0 0 2-2z"/><path d="M15.363 12l-.088 1.054a3.143 3.143 0 0 0-.918.53l-.958-.45-1 1.732.87.604a3.143 3.143 0 0 0-.049.53 3.143 3.143 0 0 0 .046.532l-.867.602 1 1.732.955-.45a3.143 3.143 0 0 0 .921.528L15.363 20h2l.088-1.054a3.143 3.143 0 0 0 .919-.53l.958.45 1-1.732-.87-.604a3.143 3.143 0 0 0 .048-.53 3.143 3.143 0 0 0-.046-.532l.868-.602-1-1.732-.956.45a3.143 3.143 0 0 0-.92-.528L17.363 12h-2zm1 2.857A1.143 1.143 0 0 1 17.506 16a1.143 1.143 0 0 1-1.143 1.143A1.143 1.143 0 0 1 15.22 16a1.143 1.143 0 0 1 1.143-1.143z"/></g></svg>