<svg xmlns="http://www.w3.org/2000/svg" width="32" height="32"><rect width="28.203" height="28.203" x="1.898" y="1.898" ry="5.575" fill="#243a85" fill-rule="evenodd"/><path d="M16.394 25.027c-2.32-.302-4.54-.985-5.875-2.137-.379-.326-1.136-1.118-1.07-1.14.217.042.67.242 1.11.254.442.012.674-.454.89-.81v-3.73c0-4.116.095-4.046-.196-4.3-.354-.309-1.398-.213-2.102.259-1.074.72-2.354 2.315-3.263 3.973a9.18 9.18 0 0 1-.323.564c-.017.016-.02-.304-.007-.71.035-1.122.243-1.906.813-3.063.52-1.056.782-1.338 1.892-2.547 1.84-2.005 3.658-3.39 5.455-4.16.425-.181 1.741-.53 1.832-.53.014 0-.62.37-.769.479-.89.65-1.198 1.103-1.328 1.895-.095.586.237 1.299.495 1.588.134.15.183.176.37.194.255-.027.869-.134 1.131-.156v9.3c0 .7.299.744.995.744.707 0 1.307-.532 2.005-.985v-7.834l-.248-.897c-.102-.37-.379-.813-.752-1.328.716.014 1.174.87 1.8 1.1 1.825-1.445 3.117-2.618 5.2-3.1-.907 1.438-1.03 2.052-2 3.45v8.37c.1.119.62.269.862.29 1.648-.233 2.045-1.16 3.138-2.11.033.032-.849 1.695-1.221 2.253-1.134 1.699-2.766 2.76-4.275 3.72-.283.18-.286.18-.385.103-.712-.325-1.119-.5-1.949-1.13-.81.771-1.203 1.335-2.049 2.154l-.176-.023z" fill="#fff"/></svg>