<svg xmlns="http://www.w3.org/2000/svg" height="32" width="32" version="1"><rect width="28.203" height="28.203" x="1.898" y="1.898" ry="5.575" fill="#999" fill-rule="evenodd"/><path d="M15.361 23.566c-.92-.124-1.54-.262-1.59-.354-.083-.157-.42-1.961-.573-3.07-.083-.61-.206-1.844-.185-1.865.008-.007.211.11.452.259a31.772 31.772 0 0 0 6.71 3.124l.575.19c.07.027.02.069-.534.443-.977.66-2.112 1.081-3.351 1.241-.412.053-1.217.07-1.504.032zm-2.364-.602a7.586 7.586 0 0 1-3.83-3.675c-.216-.45-.452-1.09-.53-1.438l-.036-.162.472-.422c1.014-.907 2.357-1.977 3.177-2.53l.277-.187.001 1.386c.002 2.442.223 4.58.69 6.692.054.24.09.441.083.449-.007.007-.144-.043-.304-.113zm7.254-1.707a33.108 33.108 0 0 1-2.78-1.068c-.884-.397-.978-.442-.978-.472 0-.016.185-.127.412-.247a44.267 44.267 0 0 0 1.659-.95c1.317-.791 3.244-2.24 4.512-3.391.192-.175.366-.319.386-.319.05 0 .126.736.126 1.207 0 .806-.224 1.968-.524 2.72-.394.99-.987 1.91-1.65 2.563l-.262.257zm-.79-5.21c-.004-1.8-.085-2.954-.326-4.63-.097-.673-.345-2.035-.44-2.414l-.025-.101.194.077c.374.147.965.463 1.338.716 1.525 1.032 2.641 2.572 3.096 4.271l.091.342-.478.431c-.264.237-.715.629-1.004.87-.714.596-2.338 1.81-2.423 1.81-.011 0-.022-.618-.023-1.372zM8.502 17.16a5.87 5.87 0 0 1-.064-.566c-.116-1.322.165-2.76.777-3.984.344-.69.902-1.468 1.396-1.95l.225-.219.959.323c.527.177 1.278.45 1.668.606.865.347 2.033.873 2.033.916 0 .017-.121.092-.27.167-.432.218-1.483.83-2.097 1.22a30.804 30.804 0 0 0-4.215 3.199c-.355.322-.38.34-.412.288zm10.367-3.475c-.09-.084-1.15-.712-1.858-1.1a32.072 32.072 0 0 0-5.063-2.2l-.709-.237c-.07-.025-.017-.069.517-.43 1.112-.752 2.298-1.16 3.714-1.28.81-.067 1.5.002 2.627.265.05.011.105.057.123.102.097.23.377 1.711.535 2.823.088.62.23 1.905.23 2.078 0 .048-.053.038-.116-.021z" fill="#fff"/><path style="line-height:normal;font-variant-ligatures:normal;font-variant-position:normal;font-variant-caps:normal;font-variant-numeric:normal;font-variant-alternates:normal;font-feature-settings:normal;text-indent:0;text-align:start;text-decoration-line:none;text-decoration-style:solid;text-decoration-color:#000;text-transform:none;text-orientation:mixed;white-space:normal;shape-padding:0;isolation:auto;mix-blend-mode:normal;solid-color:#000;solid-opacity:1" d="M16 6.518c-5.23 0-9.482 4.252-9.482 9.482 0 5.23 4.252 9.482 9.482 9.482 5.23 0 9.482-4.252 9.482-9.482 0-5.23-4.252-9.482-9.482-9.482zm0 1.16A8.313 8.313 0 0 1 24.322 16 8.313 8.313 0 0 1 16 24.322 8.313 8.313 0 0 1 7.678 16 8.313 8.313 0 0 1 16 7.678z" color="#000" font-weight="400" font-family="sans-serif" overflow="visible" fill="#487aae" fill-rule="evenodd"/></svg>