<svg xmlns="http://www.w3.org/2000/svg" width="32" height="32" version="1"><rect width="28.203" height="28.203" x="1.898" y="1.898" ry="5.575" fill="#29dc47" fill-rule="evenodd"/><path d="M14.32 24.212c-1.24-.78-2.256-1.444-2.257-1.476-.002-.065 4.503-2.9 4.607-2.9.034 0 .062.333.062.739v.738l.37-.07c1.167-.218 2.39-1.007 3.178-2.047a5.284 5.284 0 0 0 .026-6.37c-.253-.338-.45-.643-.435-.677.015-.034.447-.445.961-.914l.934-.853.502.55c.688.753 1.38 2.206 1.631 3.421.253 1.225.253 2.063-.001 3.293-.633 3.069-3.17 5.626-6.18 6.229l-.934.187-.03.794c-.017.437-.064.79-.104.783-.04-.005-1.089-.648-2.33-1.427zm-4.676-3.25c-1.033-1.314-1.733-3.32-1.733-4.966 0-2.385 1.284-4.97 3.184-6.407 1.081-.818 2.666-1.484 3.82-1.605l.312-.033.03-.811c.017-.447.067-.797.112-.779.229.093 4.578 2.845 4.58 2.897 0 .063-4.513 2.897-4.615 2.897-.03 0-.055-.327-.055-.726 0-.851 0-.851-1.038-.484-.871.309-1.472.694-2.094 1.342a5.311 5.311 0 0 0-.411 6.924c.236.313.425.593.42.623-.01.07-1.837 1.708-1.938 1.738-.043.012-.3-.262-.574-.61z" fill-opacity=".668"/></svg>