<svg xmlns="http://www.w3.org/2000/svg" version="1" width="32" height="32"><rect width="28.203" height="28.203" x="1.898" y="1.898" ry="5.575" fill="#dfd4d3" fill-rule="evenodd"/><path d="M13.539 26.508c-.1-.034-1.165-.468-2.943-1.202-.43-.177-.803-.343-.83-.367-.027-.025.16-.533.414-1.13l.463-1.084-.201-.149c-.11-.081-.489-.445-.84-.807l-.64-.66-1.062.449c-.585.246-1.085.427-1.112.402-.062-.058-.98-2.261-.98-2.353 0-.042 1.13-.068 3.022-.068h3.022l.393.36c.546.498 1.34.945 2.026 1.14.817.23 2.114.233 2.906.005a5.32 5.32 0 0 0 3.71-3.774c.193-.73.178-2.023-.032-2.695-.564-1.809-1.822-3.059-3.654-3.633-.742-.233-2.13-.23-2.882.004-.782.245-1.562.677-2.081 1.152l-.458.42H8.787c-2.821 0-2.991-.007-2.949-.124.295-.812.947-2.284 1.012-2.286.047 0 .54.19 1.095.425.556.235 1.031.419 1.055.408.025-.01.21-.203.412-.427.202-.225.551-.574.776-.776.224-.203.417-.405.428-.45.012-.044-.172-.539-.409-1.098-.236-.56-.405-1.041-.375-1.07.092-.09 3.732-1.556 3.803-1.532.036.012.262.483.501 1.047l.435 1.025h2.363l.448-1.048c.523-1.224.33-1.159 1.724-.583 2.282.942 2.624 1.093 2.61 1.154-.007.035-.203.519-.435 1.074l-.42 1.011.849.844.85.845 1.015-.425c.559-.234 1.051-.426 1.094-.426.044 0 .11.072.147.16.788 1.851 1.485 3.632 1.44 3.677-.033.033-.522.248-1.087.48-.842.345-1.024.444-1.007.552.011.072.025.6.032 1.174l.011 1.042 1.05.439c.578.241 1.05.467 1.05.5 0 .035-.163.45-.362.924-.2.474-.484 1.184-.633 1.577-.316.84-.549 1.39-.588 1.39-.015 0-.476-.19-1.024-.42a21.924 21.924 0 0 0-1.098-.444c-.055-.012-.263.17-.46.403a7.512 7.512 0 0 1-.788.78c-.236.195-.43.379-.433.407-.002.029.187.5.421 1.047.234.548.425 1.035.424 1.083 0 .048-.423.26-.94.47-.515.211-1.336.55-1.824.753-.488.203-.954.39-1.038.417-.137.043-.184-.033-.522-.859-.58-1.416-.36-1.253-1.693-1.257l-1.142-.004-.067.177c-.18.48-.79 1.875-.838 1.919-.03.027-.102.034-.161.014z" fill="#813352"/><path d="M1.898 19.603h13.895A3.595 3.595 0 0 0 19.395 16a3.595 3.595 0 0 0-3.602-3.604H1.898z" fill="#d1c0bf" fill-rule="evenodd"/><circle r="2.227" cy="16" cx="16" fill="#373737"/><circle r="1.625" cy="16" cx="16" fill="#ff8600"/><path d="M4.016 18.365c-.121-.122-.121-4.602 0-4.724.059-.058.402-.085 1.086-.085.683 0 1.027.027 1.085.085.054.055.085.334.085.78v.695h-.709v-.851H4.57v3.476h.993v-.922h.709v.698c0 .947.018.933-1.215.933-.649 0-.983-.028-1.04-.085zm3.009-.048c-.099-.109-.117-.253-.1-.798l.02-.665.337-.022.337-.021v.93h.922v-.809l-.815-.826-.816-.825v-.745c0-1-.026-.98 1.215-.98.648 0 .983.027 1.04.085.054.054.085.326.085.745v.66h-.709v-.78H7.62v.763l.816.779.815.779v.814c0 1.077.032 1.049-1.182 1.049-.812 0-.938-.016-1.043-.133zm2.981.003c-.104-.115-.117-.382-.117-2.33 0-2.04.01-2.208.13-2.316.107-.098.298-.118 1.12-.118.676 0 1.018.027 1.076.085.055.055.085.334.085.78v.695h-.709v-.851h-.993v3.476h.993v-.922h.709v.698c0 .947.019.933-1.218.933-.838 0-.973-.016-1.076-.13z" fill="#813352"/></svg>