<svg xmlns="http://www.w3.org/2000/svg" height="32" width="32"><rect width="28.203" height="28.203" x="1.898" y="1.898" ry="5.575" fill="#8e8e8e" fill-rule="evenodd"/><g stroke-width="1.251"><path d="M20.158 21.197H4.806s3.358 4.798 13.433 4.798c6.716 0 8.955-3.359 8.955-5.038 0-1.452 0-2.158-1.12-2.158h-4.797c-1.12 0-1.12 1.056-1.12 2.398z" fill="#784421"/><path d="M18.399 9.204v11.993S13.6 18.457 13.6 15.2c0-3.256 4.798-5.996 4.798-5.996z" fill="#ccc"/><path d="M18.399 9.204V6.005l3.998 1.6z" fill="#c83737"/><path d="M11.203 13.201v7.996S8.004 19.37 8.004 17.2c0-2.17 3.199-3.998 3.199-3.998z" fill="#ccc"/><path d="M20.797 20.131s0-.533.4-.533.4.533.4.533v1.066h-.8zM23.196 20.131s0-.533.4-.533.4.533.4.533v1.066h-.8zM25.595 20.131s0-.533.4-.533.4.533.4.533v1.066h-.8z" opacity=".4"/></g></svg>