<svg xmlns="http://www.w3.org/2000/svg" height="32" width="32" version="1"><path d="M30.102 21.856c-1.042-.337-1.91-.66-2.248-.687-.69-.054-1.595.164-2.417.404-.821.24-1.558.502-1.91.528-.351.025-1.569.001-2.33-.069-.76-.07-1.416-.16-1.699-.185a52.175 52.175 0 0 1-1.545-.186c-.462-.064-.868-.123-1.215-.154-.346-.032-1.873-.145-2.984-.213s-2.153-.125-2.57-.125a54.716 54.716 0 0 0-2.565.086c-.808.049-1.504.097-1.889.084-.384-.013-1.616-.224-2.44-.379-.826-.156-1.63-.27-2.31-.13-.018.003-.061.04-.082.046v2.648h28.204z" fill="#ffbf47"/><path d="M7.475 1.966A5.58 5.58 0 0 0 5.3 2.4a5.572 5.572 0 0 0-2.965 2.965 5.582 5.582 0 0 0-.438 2.174v13.336c.02-.006.064-.043.082-.047.68-.14 1.484-.025 2.31.131.824.155 2.056.366 2.44.379.385.013 1.08-.035 1.89-.084a54.73 54.73 0 0 1 2.564-.086c.417 0 1.459.057 2.57.125 1.111.068 2.638.181 2.984.213.347.031.753.09 1.215.154.462.063 1.262.16 1.545.186.283.025.938.115 1.7.185.76.07 1.978.094 2.33.069.351-.026 1.088-.288 1.91-.528.82-.24 1.727-.458 2.416-.404.338.027 1.206.35 2.248.687V7.54a5.58 5.58 0 0 0-.436-2.174 5.563 5.563 0 0 0-5.139-3.4z" fill="#ffd36a"/><path d="M22.022 7.954a3.976 3.976 0 1 1 0 7.952 3.976 3.976 0 0 1 0-7.952z" fill="#fffee4" fill-rule="evenodd"/><path d="M1.898 23.524v.934a5.582 5.582 0 0 0 1.63 3.947 5.566 5.566 0 0 0 3.947 1.63h17.052a5.582 5.582 0 0 0 3.946-1.63 5.572 5.572 0 0 0 1.193-1.773 5.58 5.58 0 0 0 .436-2.174v-.934z" fill="#d2892e"/><g transform="matrix(.66667 0 0 .66667 6.248 7.142)" stroke-width="1.5"><circle r="7.5" cx="24.5" cy="23.5" fill="#7bbe4d" fill-rule="evenodd"/><rect x="23" y="21" width="3" height="7" ry=".453" rx=".444" fill="#fff"/><path d="M24.5 19l1.75 2.5L28 24h-7l1.75-2.5z" fill="#fff"/></g></svg>