<svg xmlns="http://www.w3.org/2000/svg" height="32" width="32" version="1"><path d="M30 6.969c-.054-.579-.12-1.157-.336-1.67A5.563 5.563 0 0 0 26.7 2.334c-.511-.216-1.089-.28-1.666-.334H16v14h14z" fill="#ff8c2a"/><path d="M6.965 2c-.577.054-1.155.118-1.666.334a5.563 5.563 0 0 0-2.965 2.965c-.216.511-.28 1.089-.334 1.666V16h14V2zM25.035 30c.577-.054 1.155-.118 1.666-.334a5.563 5.563 0 0 0 2.965-2.965c.216-.511.28-1.089.334-1.666V16H16v14z" fill="#2086e7"/><path d="M2 25.031c.054.579.12 1.157.336 1.67A5.563 5.563 0 0 0 5.3 29.666c.511.216 1.089.28 1.666.334H16V16H2z" fill="#6655e4"/><rect width="21.424" height="21.424" x="5.288" y="5.288" ry="4.235" fill="#3f3f3f" fill-rule="evenodd"/><g stroke-width="2.14" fill="none" stroke="#fff" stroke-linecap="round"><path d="M5.936-11.496h8" transform="matrix(.93393 0 0 .9353 4.859 33.317)"/><path d="M9.936-25.497v6c0 1.515-1.044 2.025-2 2-.896.004-2-.466-2-2v-6M13.936-21.497s4 .465 4-2c0-2.464-4-2-4-2m0 8v-8" stroke-linejoin="bevel" transform="matrix(.93393 0 0 .9353 4.859 33.317)"/></g></svg>