<svg xmlns="http://www.w3.org/2000/svg" width="32" height="32"><rect width="28.203" height="28.203" x="1.898" y="1.898" ry="5.575" fill="#7cca3e" fill-rule="evenodd"/><path d="M5 11.127v7.4c0 .128.016.255.049.38 0 0 .223.853.887 1.638.663.785 1.91 1.582 3.564 1.582 1.654 0 2.901-.797 3.564-1.582a4.663 4.663 0 0 0 .887-1.639 1.5 1.5 0 0 0 .049-.379v-2.75c.39.446.361.466.805.938.285.305.609.559.908.86-.006.028-.016.055-.022.084-.675 3.39-.691 7.732-.691 8.468h3c0-.494.214-2.985.47-5.193.83.621 1.655 1.147 2.77 1.19 1.721.068 3.243-.584 4.246-1.636C26.49 19.436 27 18.041 27 16.627c0-3.005-2.495-5.5-5.5-5.5-3.571.043-3.854 2.483-4.793 3.202-1.257-1.377-2.275-2.673-2.707-3.202h-3v7.101c-.018.054-.042.163-.227.381-.224.265-.477.518-1.273.518-.796 0-1.05-.253-1.273-.518-.185-.218-.209-.327-.227-.38v-7.102zm16.5 3c1.195 0 2.5 1.305 2.5 2.5 0 .686-.255 1.341-.684 1.79-.428.45-1.007.75-1.957.712.047.002-.774-.292-1.629-.97-.18-.144-.387-.383-.576-.548.249-.82.455-1.756.782-2.297.545-.902.956-1.187 1.564-1.187z" fill="#fff" fill-rule="evenodd"/></svg>