<svg xmlns="http://www.w3.org/2000/svg" height="32" width="32" version="1"><rect width="28.203" height="28.203" x="1.898" y="1.898" ry="5.575" fill="#2a74c2" fill-rule="evenodd"/><g stroke-width="1.279"><path d="M4.193 12.128l4.532-1.214 2.429 9.064-4.532 1.215zM6.824 21.948l4.532-1.214.608 2.266-4.533 1.214z" fill="#fff"/><path d="M5.15 12.681l3.022-.81 2.024 7.554-3.021.81zM7.782 22.501l3.021-.81.203.756-3.022.81z" fill="#b0b0b0"/><g><path d="M16.034 7.004l4.532 1.214-2.429 9.065-4.532-1.215zM13.403 16.824l4.532 1.214-.607 2.266-4.533-1.214z" fill="#fff"/><path d="M16.587 7.961l3.021.81-2.024 7.554-3.021-.81zM13.956 17.781l3.021.81-.202.755-3.022-.81z" fill="#b0b0b0"/></g><g><path d="M23.744 11.814l4.063 2.346-4.692 8.127-4.064-2.346zM18.66 20.619l4.064 2.346-1.173 2.031-4.064-2.346z" fill="#fff"/><path d="M24.03 12.882l2.709 1.564-3.91 6.773-2.71-1.564zM18.947 21.687l2.709 1.564-.391.677-2.71-1.564z" fill="#b0b0b0"/></g></g></svg>