<svg xmlns="http://www.w3.org/2000/svg" height="32" width="32" version="1"><rect width="28.203" height="28.203" x="1.898" y="1.898" ry="5.575" fill="#5db43e" fill-rule="evenodd"/><path d="M9.5 7C8.503 7 8 7.486 8 8.5c0 1.056.45 1.5 1.5 1.5C16.956 10 22 15.044 22 22.5c0 .933.509 1.5 1.5 1.5 1.02 0 1.5-.596 1.5-1.5C25 13.387 18.613 7 9.5 7zM21 7l4 4V9c0-1.108-.892-2-2-2zM9.5 13c-.969 0-1.5.428-1.5 1.5 0 1.027.42 1.5 1.5 1.5 4.142 0 6.5 2.358 6.5 6.5 0 .883.507 1.5 1.5 1.5.969 0 1.5-.538 1.5-1.5 0-5.799-3.701-9.5-9.5-9.5zm.5 6a3 3 0 1 0 0 6 3 3 0 0 0 0-6z" fill="#fff"/></svg>