<svg xmlns="http://www.w3.org/2000/svg" height="32" width="32" version="1"><rect width="28.203" height="28.203" x="1.898" y="1.898" ry="5.575" fill="#7ea540" fill-rule="evenodd"/><path d="M15.586 19.585c1.15-1.143 1.325-1.269 1.938-1.92a3.177 3.177 0 0 1-.164-.964v-1.12l-.796.332c-1.173.49-3.402.322-4.313-.326l-.702-.5-.832.55c-1.357.898-2.392 2.655-2.766 4.694l-.187 1.019h6.048zm.851-4.69c1.384-.67 2.074-1.955 1.953-3.636-.133-1.841-1.128-3.03-2.87-3.426-2.289-.522-4.594 1.298-4.594 3.629 0 2.942 2.854 4.72 5.511 3.433z" fill="#fff"/><path d="M14.006 24.94a.854.854 0 0 1-.493-.502c-.054-.153-.052-1.507.003-1.64.028-.07.681-.739 2.47-2.529l2.43-2.433-.06-.169a5.299 5.299 0 0 1-.13-.459c-.062-.268-.068-.33-.068-.789-.001-.432.006-.534.055-.763a3.916 3.916 0 0 1 3.058-3.058c.231-.05.33-.056.775-.055.576 0 .793.035 1.256.195.57.199 1.04.495 1.48.934.438.439.735.909.933 1.48.162.467.195.677.195 1.267 0 .59-.033.8-.195 1.268a3.776 3.776 0 0 1-.934 1.479c-.32.32-.595.523-.967.713-.54.276-1.018.4-1.622.422-.532.019-1-.051-1.438-.215l-.136-.05-.459.458-.459.458v.528c0 .634-.022.726-.229.933-.201.201-.307.23-.865.23h-.461v.46c0 .559-.028.664-.23.866-.206.206-.299.229-.93.229h-.527l-.366.36c-.288.283-.387.366-.466.389-.15.043-1.498.037-1.62-.008zm1.648-1.056c.198-.194.372-.34.452-.383l.13-.069.566-.007.565-.008v-.46c0-.556.028-.662.23-.863.2-.202.306-.23.863-.23h.46l.007-.565.008-.565.07-.134c.052-.1.245-.31.757-.825l.687-.692.228.112c.273.134.532.223.817.279.284.055.82.055 1.104 0a3.12 3.12 0 0 0 2.491-2.491 3.81 3.81 0 0 0 0-1.128 3.12 3.12 0 0 0-2.491-2.49 4.076 4.076 0 0 0-1.074-.011 3.4 3.4 0 0 0-1.24.5c-.234.155-.66.58-.814.815a3.099 3.099 0 0 0-.484 2.311c.046.246.152.555.279.81l.103.21-2.556 2.542-2.557 2.542v1.114h1.077zm7.287-6.73c-.274-.147-1.017-.843-1.38-1.294-.281-.348-.314-.41-.299-.564.015-.155.176-.479.324-.651.33-.386.85-.642 1.071-.528.367.19 1.288 1.091 1.616 1.582.127.19.128.29.001.558a1.625 1.625 0 0 1-.819.832c-.244.12-.378.137-.514.064zm.491-.501c.067-.045.173-.132.235-.196.117-.118.288-.411.287-.491-.002-.126-.765-.943-1.208-1.293l-.25-.196-.09.037a1.41 1.41 0 0 0-.678.65l-.08.168.15.197c.206.27.831.893 1.107 1.104l.227.174.09-.037c.048-.02.143-.073.21-.117z" fill="#fff"/></svg>