<svg xmlns="http://www.w3.org/2000/svg" height="32" width="32" version="1"><rect width="28.203" height="28.203" x="1.898" y="1.898" ry="5.575" fill="#999" fill-rule="evenodd"/><path d="M9.007 6.651v1h-.5c-.83 0-1.5.67-1.5 1.5 0 .831.67 1.5 1.5 1.5h.5v1H7.1c.206.582.754 1 1.408 1h.5v1h1v-1h.5c.831 0 1.5-.669 1.5-1.5 0-.83-.669-1.5-1.5-1.5h-.5v-1h1.908c-.206-.582-.754-1-1.408-1h-.5v-1h-1zm-.5 2h.5v1h-.5a.499.499 0 1 1 0-1zm1.5 2h.5c.277 0 .5.223.5.5s-.223.513-.5.5h-.5zm4 2v1h6v-1z" fill="#fff"/></svg>