<svg xmlns="http://www.w3.org/2000/svg" height="32" width="32" version="1"><g transform="translate(-33.22 2.712)"><rect ry="5.575" y="-.814" x="35.119" height="28.203" width="28.203" fill="#e94a63" fill-rule="evenodd"/><path d="M56.218 22.748a2.492 2.492 0 0 0 1.842-2.427c.003-1.317-.947-2.39-2.246-2.537l-.253-.028-1.996-1.995-1.997-1.995-.08.085a.356.356 0 0 0-.08.111c0 .014.057.102.129.195.188.247.256.516.23.913-.034.533-.185.768-.98 1.527l-.146.14-.235-.06c-.32-.082-.632-.03-.848.143-.038.03.347.437 1.694 1.787l1.744 1.747.025.275c.059.64.424 1.281.96 1.687.319.24.584.367.934.446l.334.076c.147.035.717-.018.969-.09zm-.987-1.445a1.115 1.115 0 0 1-.56-1.777c.217-.274.489-.397.875-.397.24 0 .33.017.471.09.225.114.409.305.533.554.087.175.097.233.085.483-.01.208-.038.332-.105.465a1.25 1.25 0 0 1-.616.552c-.186.067-.516.081-.683.03zm-8.932-7.926c.118-.248.131-.517.043-.893-.025-.105-.002-.136.394-.52.467-.453.734-.614 1.136-.685.37-.066.79.04 1.104.28.127.097.134.098.205.034.04-.037.073-.085.073-.107 0-.023-.305-.344-.678-.715-.372-.37-.765-.764-.873-.875l-.197-.201.043-.183c.216-.925.193-1.485-.104-2.445-.054-.176-.316-.657-.495-.91-.573-.81-1.474-1.405-2.41-1.593-.468-.093-.853-.12-1.18-.079-.404.05-.862.145-.862.179 0 .014.485.51 1.079 1.102.593.592 1.093 1.102 1.111 1.135.02.036.016.092-.013.148-.025.05-.084.182-.131.294l-.137.316c-.028.06-.14.326-.25.588l-.2.477-.646.276c-.355.151-.73.315-.832.362-.102.048-.219.097-.26.11-.061.02-.278-.18-1.188-1.09a45.656 45.656 0 0 0-1.133-1.113c-.027 0-.099.263-.151.557-.056.307-.054 1.039.003 1.322.24 1.194.85 2.088 1.867 2.736.118.075.221.136.23.136.01 0 .106.041.213.091a4.16 4.16 0 0 0 1.653.355c.273 0 .856-.086 1.142-.167.059-.017.2.106.686.592.337.338.631.614.655.614.023 0 .07-.057.103-.128z" fill="#fff"/><path d="M43.482 23.01c.188-.087.35-.243 4.054-3.915l1.158-1.149-.022-.28c-.046-.61.276-1.147.86-1.434.202-.1.26-.11.605-.112l.381-.002.275-.272c.365-.363.447-.527.446-.89 0-.343-.055-.458-.357-.754-.12-.117-.217-.225-.217-.241 0-.016 1.165-1.193 2.589-2.615l2.59-2.585.407-.212c1.18-.614 1.21-.632 1.294-.794.07-.136.282-.521.359-.653.035-.062.145-.262.243-.446.098-.183.246-.45.33-.594.082-.143.174-.306.204-.363l.053-.104-.643-.644-.643-.644-.208.12a24.21 24.21 0 0 1-.46.258c-.14.075-.315.172-.39.215a26.56 26.56 0 0 1-.38.21c-.133.072-.364.203-.513.29a2.53 2.53 0 0 1-.298.161c-.03 0-.062.052-.264.427-.088.163-.188.347-.224.408-.035.062-.151.279-.258.483l-.195.371-2.567 2.57a236.847 236.847 0 0 1-2.585 2.57 2.76 2.76 0 0 1-.26-.228c-.294-.276-.472-.363-.743-.362-.321 0-.55.118-.895.461l-.298.297.024.208a1.47 1.47 0 0 1-.366 1.135c-.28.318-.63.463-1.121.463-.326 0-.34.003-.47.118-.072.065-1.205 1.18-2.517 2.476-2.19 2.162-2.395 2.376-2.492 2.588-.126.276-.138.525-.035.759.099.226 2.599 2.71 2.788 2.77.199.063.549.033.76-.065z" fill="#a43445"/></g></svg>