<svg xmlns="http://www.w3.org/2000/svg" height="32" width="32" version="1"><rect width="28.203" height="28.203" x="1.898" y="1.898" ry="5.575" fill="#256ed5" fill-rule="evenodd"/><path d="M10.666 11.219c4.15-.052 6.136-1.046 8.136-2.034 2.496 1.625 5.257 1.922 8.035 2.136 1.514 12.556-3.993 14.838-7.933 16.577-6.981-2.383-9.696-7.967-8.238-16.679z" fill="#fff"/><path d="M12.413 12.814c3.247-.041 4.8-.818 6.364-1.591 1.952 1.271 4.112 1.504 6.285 1.67 1.185 9.822-3.123 11.607-6.205 12.967-5.46-1.864-7.584-6.231-6.444-13.046z" fill="#c73439"/><g style="line-height:1.25"><path d="M9.077 4.102c-.961 0-1.756.794-1.756 1.756 0 .972.808 1.756 1.756 1.756.952 0 1.757-.78 1.757-1.756 0-.966-.79-1.756-1.757-1.756zm-.49 4.7l-.063.015-3.618.781v1.553l1.607.3-1.128 5.702-.003.006a6.993 6.993 0 0 0-.135 1.209c0 .563.138 1.095.506 1.475.368.38.9.536 1.46.536.934 0 2.011-.28 3.223-.787l.377-.159v-1.906l-.802.258c-.625.201-1.085.29-1.38.29-.242 0-.35-.056-.37-.072-.02-.016-.033 0-.033-.14 0-.059.015-.205.053-.417v-.006l1.664-8.638z" style="line-height:1.25;-inkscape-font-specification:'Bitstream Charter Italic';font-variant-ligatures:normal;font-variant-position:normal;font-variant-caps:normal;font-variant-numeric:normal;font-variant-alternates:normal;font-feature-settings:normal;text-indent:0;text-align:start;text-decoration-line:none;text-decoration-style:solid;text-decoration-color:#000;text-transform:none;text-orientation:mixed;white-space:normal;shape-padding:0;isolation:auto;mix-blend-mode:normal;solid-color:#000;solid-opacity:1" color="#000" font-style="italic" font-size="medium" font-family="Bitstream Charter" overflow="visible" stroke="none" aria-label="i" font-weight="400" letter-spacing="0" word-spacing="0" fill="#fff" stroke-width=".522"/></g><path d="M16.723 14.85l-1.726 1.726 1.965 1.965-1.965 1.967 1.726 1.725 1.967-1.964 1.965 1.964 1.726-1.725-1.967-1.967 1.967-1.965-1.726-1.726-1.965 1.967z" fill="#fff"/></svg>