<svg xmlns="http://www.w3.org/2000/svg" height="32" width="32" version="1"><rect width="28.203" height="28.203" x="1.898" y="1.898" ry="5.575" fill="#4f4f4f" fill-rule="evenodd"/><path d="M16 5.947c-2.9 0-4.833 2.011-4.833 4.953v3.087H9.136s-.869.002-.869 1.008v10.052c0 1.006.869 1.006.869 1.006h13.728s.869 0 .869-1.006V14.995c0-1.006-.869-1.008-.869-1.008l-2.028.005-.006-3.124c.003-2.91-1.93-4.92-4.83-4.92z" fill="#fff"/><path d="M16 8.267c1.708 0 3.093 1.358 3.093 3.066 0 2.063-2.19 4.64-2.706 4.667 0 0 .217-1.574-.387-1.574a3.093 3.093 0 0 1-3.093-3.093c0-1.708 1.385-3.066 3.093-3.066zM16 17.547a1.736 1.736 0 0 1 .424 3.422h.156c.58 0 .935.529 1.282.997.325.438.458 1.046.458 1.267v.437a.838.838 0 0 1-.84.836h-2.958a.84.84 0 0 1-.841-.837l.002-.036-.002-.4c0-.221.102-.84.412-1.287.328-.473.748-.978 1.327-.978h.157A1.736 1.736 0 0 1 16 17.547z" fill="#4f4f4f"/></svg>