<svg xmlns="http://www.w3.org/2000/svg" width="32" height="32" version="1"><rect width="28.203" height="28.203" x="1.898" y="1.898" ry="5.575" fill="#8e8e8e" fill-rule="evenodd"/><g transform="translate(32.309 -.67) scale(.91814)" stroke-width="1.089"><path d="M-25.283 8.785a3.56 3.56 0 0 0-3.569 3.569v9.462a3.56 3.56 0 0 0 3.569 3.569h1.926a2.461 2.461 0 0 0 2.441 2.14h6.307c1.256 0 2.277-.93 2.441-2.14h1.926a3.56 3.56 0 0 0 3.568-3.569v-9.462a3.56 3.56 0 0 0-3.568-3.569z" fill="#474747"/><rect width="20.183" height="14.5" x="-27.854" y="9.835" ry="2.594" rx="2.703" fill="#232323"/></g><path d="M19.3 12.032a1.488 1.488 0 1 0 0 2.976 1.488 1.488 0 0 0 0-2.976zM12.732 16.89c-1.636 0-3.272 1.19-3.272 4.202v.558h13.088s-1.09-3.57-2.727-3.57c-1.636 0-1.636 1.785-2.726 1.785s-2.727-2.974-4.362-2.974z" fill="#c0ca33"/></svg>