<svg xmlns="http://www.w3.org/2000/svg" height="32" width="32" version="1"><rect width="28.203" height="28.203" x="1.898" y="1.898" ry="5.575" fill="#7f4fc8" fill-rule="evenodd"/><g transform="rotate(-45 -11.353 -43.118)"><path d="M-36.96 11.116c-1.121 0-2.122.062-2.81.768h-2.106c-1.914 0-3.456 1.694-3.456 3.608v5.068c0 1.915 1.542 3.609 3.456 3.609h2.105c.689.706 1.69.768 2.811.768h6.292c1.121 0 2.122-.062 2.81-.768h2.106c1.914 0 3.455-1.694 3.455-3.609v-5.068c0-1.914-1.54-3.608-3.455-3.608h-2.105c-.689-.706-1.69-.768-2.811-.768z" fill="#fff"/><circle r="1.152" cx="-24.216" cy="16.875" fill="#7f4fc8"/><circle r="1.152" cx="18.41" cy="27.288" transform="rotate(90)" fill="#7f4fc8"/><path fill="#7b92ed" d="M-38.421 13.419h9.214v9.214h-9.214z"/><circle transform="rotate(90)" cy="25.368" cx="13.419" r=".768" fill="#52ff41"/><path d="M-42.26 14.955a.766.766 0 0 0-.768.768v.768h-.768a.766.766 0 0 0-.768.768v.767c0 .426.343.768.768.768h.768v.768c0 .425.342.768.768.768h.768a.766.766 0 0 0 .767-.768v-.768h.768a.766.766 0 0 0 .768-.768v-.767a.766.766 0 0 0-.768-.768h-.768v-.768a.766.766 0 0 0-.767-.768z" fill="#7f4fc8"/></g></svg>