<svg xmlns="http://www.w3.org/2000/svg" height="32" width="32"><rect ry="5.575" y="1.898" x="1.898" height="28.203" width="28.203" fill="#4f4f4f" fill-rule="evenodd"/><path d="M11.223 6.997c-.225 0-.462.008-.717.008-1.285-.027-2.572.016-3.857 0-.891-.007-.686 1.085-.428 1.545 2.852 5.081 6.222 10.773 9.363 16.136.604.89 1.24-.318 1.579-.836.854-1.307 1.558-2.676 2.28-4.046.306-.921-.547-1.63-.85-2.41-1.854-3.291-3.802-6.52-5.694-9.782-.453-.543-1.001-.614-1.676-.615zm9.319.008c-.96 0-.35 1.08-.35 1.08s1.437 2.725 2.266 4.217c.828 1.491 1.275.208 1.482-.205.746-1.486 1.395-3.034 1.918-4.063.523-1.029-.566-1.03-.566-1.03z" fill="#ccc"/></svg>