<svg xmlns="http://www.w3.org/2000/svg" height="32" width="32" version="1"><rect width="28.203" height="28.203" x="1.898" y="1.898" ry="5.575" fill="#7d529d" fill-rule="evenodd"/><path d="M17.373 8a.641.641 0 0 0-.646.621.642.642 0 0 0 .644.631c1.527.012 2.783.494 3.795 1.446 1 .943 1.522 2.25 1.536 3.955v.001a.642.642 0 0 0 .654.618c.353-.003.647-.288.644-.63-.008-.996-.17-1.91-.486-2.714a5.863 5.863 0 0 0-1.44-2.13C20.82 8.622 19.22 8.013 17.379 8h-.006zm-6.56 1.47a1.297 1.297 0 0 0-.779.133h-.021l-.03.017c-.494.28-.957.657-1.39 1.13l-.035.036v.034c-.3.374-.498.751-.544 1.128C8 12.012 8 12.07 8 12.131c0 .172.025.346.078.517l.014.049.03.017c.172.588.56 1.502 1.41 3.051a18.595 18.595 0 0 0 1.721 2.607 13.955 13.955 0 0 0 1.084 1.211c.006.007.015.02.037.041l.04.04h.002a.442.442 0 0 1 .026.027l.007.009.007.007c.398.394.791.739 1.175 1.04a18.612 18.612 0 0 0 2.605 1.726c1.55.855 2.474 1.242 3.058 1.41l.021.026.036.012c.166.056.338.081.508.079a.68.68 0 0 0 .19-.015c.4-.046.796-.236 1.188-.565l.005-.006.004-.002c.006-.006.002-.004.006-.008l.008-.01a5.701 5.701 0 0 0 1.12-1.377l.02-.032v-.03c.258-.539.156-1.089-.265-1.44-.01-.009-.212-.178-.463-.382-.256-.209-.56-.455-.766-.605a14.6 14.6 0 0 0-1.33-.85h-.002c-.657-.368-1.344-.154-1.646.238l-.53.663c-.214.27-.64.244-.652.243-3.594-.925-4.56-4.538-4.567-4.564 0-.011-.026-.439.243-.656l.66-.529c.393-.3.613-.987.243-1.646-.193-.34-.566-.946-.85-1.331a25.322 25.322 0 0 0-.607-.769l-.268-.33-.083-.098-.025-.027-.007-.009a1.116 1.116 0 0 0-.673-.393zm6.599 1.441c-.347-.024-.658.235-.683.57-.026.335.244.633.59.657.857.061 1.434.313 1.868.772v.001c.444.468.645 1.002.628 1.732v.003a.629.629 0 0 0 .622.627h.016c.343 0 .629-.27.636-.602.024-1.003-.303-1.898-.961-2.592-.663-.698-1.6-1.088-2.717-1.168z" fill="#fff"/></svg>