<svg xmlns="http://www.w3.org/2000/svg" height="32" width="32"><rect width="28.203" height="28.203" x="1.898" y="1.898" ry="5.575" fill="#32434d" fill-rule="evenodd"/><path d="M16 6.004a10 10 0 0 0-10 10 10 10 0 0 0 6.484 9.35c-.005-.143-.005-.326-.015-.432-.03-.331.051-1.812.124-2.263.024-.155.115-.462.2-.68.171-.433.363-1.082.432-1.465a7.17 7.17 0 0 1 .137-.568c.078-.273.088-.392.061-.756-.024-.332-.014-.48.04-.646.09-.283.087-.381-.02-.635a1.418 1.418 0 0 1-.09-.503l-.003-.292-.086.111a1.379 1.379 0 0 0-.156.39c-.171.67-.434 1.06-1.196 1.78-.275.26-.518.52-.54.577-.296.79-.325.904-.301 1.208.012.167.037.35.054.407.041.138-.096.195-.208.087-.046-.044-.114-.064-.156-.048-.06.026-.07.079-.052.273.025.291.04.311.23.305.123 0 .155.017.196.135.028.08.032.142.01.142-.023 0-.043.063-.043.145 0 .14-.007.146-.198.146-.173 0-.203.014-.215.108-.01.069-.05.116-.114.125-.133.02-.497-.372-.639-.687-.142-.317-.115-.806.075-1.417.076-.24.16-.568.191-.728.072-.38.157-.55.29-.586.083-.021.16-.144.33-.523.123-.272.271-.636.328-.81.124-.376.259-.6.62-1.03.147-.175.293-.402.324-.505.03-.105.15-.407.263-.673l.206-.486.028-.874c.016-.48.052-.953.08-1.047.028-.094.162-.318.299-.496.146-.192.248-.372.248-.44 0-.137.21-.465.37-.579a.886.886 0 0 1 .244-.112c.253-.061.287-.08.334-.173.037-.077.017-.157-.095-.395a5.076 5.076 0 0 0-.203-.397c-.054-.084-.051-.103.027-.162.05-.038.215-.097.37-.13.262-.058.282-.068.294-.202.012-.129-.014-.16-.27-.322-.59-.372-.802-.615-.8-.91.004-.332.18-.52.689-.733.258-.108.326-.158.338-.248a.373.373 0 0 1 .055-.16c.023-.027.042-.137.042-.247 0-.333.096-.769.197-.89.187-.224.335-.272.816-.27.377 0 .481.019.644.11.22.123.264.21.414.832.054.227.136.448.181.491a.462.462 0 0 1 .11.197c.02.088.095.146.298.233.524.225.806.622.709 1-.084.33-.514.702-.809.702-.047 0-.085.034-.085.073 0 .04.028.072.061.072.044 0 .07.103.089.36.016.197.052.417.081.486.051.121.068.125.44.125.33 0 .439.02.746.154.198.086.376.184.396.22.02.037.132.117.248.182.295.163.716.648 1.038 1.192.15.254.315.513.365.576.05.06.09.146.09.186 0 .041.047.143.103.227a.774.774 0 0 1 .108.335c.01.237.186.637.634 1.43.278.493.37.7.393.891.018.137.045.825.06 1.528.028 1.23.034 1.283.13 1.393.1.114.099.114.058 1.304-.022.655-.06 1.248-.085 1.32a.452.452 0 0 1-.18.203c-.074.041-.145.115-.16.164-.014.05-.149.153-.299.23-.15.078-.283.158-.294.177-.012.02.065.218.168.44.107.228.234.416.398.617A10 10 0 0 0 26 16.003a10 10 0 0 0-10-10zm2.697 9.485c-.018 0-.029.113-.023.253.009.207-.01.288-.102.423a6.402 6.402 0 0 0-.32.607l-.207.44.856 1.82c.945 2.007 1.038 2.185 1.133 2.185.036 0 .144-.124.24-.278h.002c.097-.153.247-.373.335-.487.11-.14.178-.294.216-.485.03-.153.07-.3.087-.327.112-.168.09-.367-.097-.882-.215-.591-.303-1.041-.307-1.554l-.003-.348-.318-.137c-.254-.11-.4-.219-.715-.538-.219-.22-.429-.401-.468-.401-.038 0-.094-.049-.123-.108-.054-.11-.126-.18-.186-.182zm-.123 4.603c-.064-.052-.055.14-.047.517.009.426.15 1.105.237 1.137.03.011.107.077.17.146l.116.125.058 1.89c.025.81.053 1.251.077 1.564a10 10 0 0 0 2.025-.942c-.549-.316-1.046-.946-1.414-1.836a53.947 53.947 0 0 0-.742-1.647c-.282-.603-.417-.901-.48-.954zm2.112 1.309c-.03-.014-.058-.012-.095.013-.203.118-.198.244.032.771.143.328.228.471.252.43.02-.036.036-.263.036-.508 0-.409-.007-.457-.114-.593a.4.4 0 0 0-.111-.113zm-5.198 2.44c-.045 0-.065.054-.065.181 0 .18-.14 1.029-.228 1.384-.014.054-.06.345-.095.553a10 10 0 0 0 .77.039c-.001-.328-.1-.914-.2-1.167-.05-.13-.07-.297-.061-.53.014-.356-.014-.461-.121-.461z" fill="#fff"/></svg>