<svg xmlns="http://www.w3.org/2000/svg" height="32" width="32" version="1"><path d="M7.473 1.898a5.561 5.561 0 0 0-5.575 5.575v17.052a5.563 5.563 0 0 0 5.575 5.577h8.422v-7.58c0-.773.154-1.507.435-2.174a5.563 5.563 0 0 1 5.139-3.4h8.633V7.472a5.563 5.563 0 0 0-5.577-5.575z" fill="#642c68" fill-rule="evenodd"/><g stroke-width="1.14" fill="#fff"><path d="M5.473 5.474v2.632h2.632V5.474zm18.422 0v2.632h2.632V5.474zm-18.422 6.14v2.632h2.632v-2.632zm18.422 0v2.632h2.632v-2.632zm-18.422 6.14v2.632h2.632v-2.632zm18.422 0v2.632h2.632v-2.632zm-18.422 6.14v2.632h2.632v-2.632zm18.422 0v2.632h2.632v-2.632zM9.86 6.351h12.28v7.895H9.86zM9.86 17.754h12.28v7.895H9.86z"/></g><path d="M30.102 16.947h-8.633a5.58 5.58 0 0 0-2.174.436 5.563 5.563 0 0 0-3.4 5.139v7.58h8.63a5.565 5.565 0 0 0 5.577-5.577z" fill="#64bc68" fill-rule="evenodd"/><path d="M20.659 19.591a1.539 1.539 0 0 0 0 3.077c.275 0 .527-.086.75-.212l1.212 1.135-1.211 1.135a1.522 1.522 0 0 0-.75-.212 1.539 1.539 0 1 0 1.538 1.538c0-.14-.022-.274-.058-.403l1.308-1.27 2.75 2.597h.923v-.616l-4.98-4.826c.035-.13.057-.263.057-.404 0-.85-.689-1.54-1.539-1.54zm0 .923a.615.615 0 1 1 0 1.231.615.615 0 0 1 0-1.23zm5.538-.307l-2.423 2.288.808.788 2.538-2.46v-.616zm-5.538 5.23a.615.615 0 1 1 0 1.23.615.615 0 0 1 0-1.23z" fill="#fff"/></svg>