<svg xmlns="http://www.w3.org/2000/svg" width="32" height="32" version="1"><g fill-rule="evenodd"><path d="M30.103 12.475H1.897v12.05a5.565 5.565 0 0 0 5.577 5.577h17.052a5.565 5.565 0 0 0 5.577-5.577z" fill="#8e8e8e"/><path d="M30.103 9.004H1.897v3.47h28.206z" fill="#ffcd54"/><path d="M29.722 5.578H2.278c-.216.596-.38 1.222-.38 1.895v1.53h28.205v-1.53c0-.673-.165-1.299-.381-1.895z" fill="#89e058"/><path d="M7.474 1.898c-2.416 0-4.418 1.54-5.196 3.68h27.444c-.778-2.14-2.78-3.68-5.196-3.68z" fill="#2a88ae"/></g><rect ry="1" rx="1" y="18.719" x="11" height="3" width="10" fill="#ececec"/></svg>