<svg xmlns="http://www.w3.org/2000/svg" height="32" width="32" version="1"><rect width="28.203" height="28.203" x="1.898" y="1.898" ry="5.575" fill="#43c22a" fill-rule="evenodd"/><rect transform="scale(1 -1) rotate(45)" rx=".878" ry=".878" height="17.555" width="17.555" y="-31.405" x="-8.778" fill="#fff"/><g fill="#43c22a" stroke-width="1.079"><path d="M10.902 9.975v.927h.927v11.123h1.39l6.025-11.123h.927v-.927h-3.708v.927h.927l-3.707 6.488v-6.488h.927v-.927zM15.537 19.244h.926v2.781h-.926z"/><path d="M15.537 17.39h.926v.927h-.926zM17.39 19.244v2.781h.927v-1.144l.927.68.927-.694v1.158h.927v-2.781h-.927l-.927.927-.927-.927z"/></g></svg>