<svg xmlns="http://www.w3.org/2000/svg" height="32" width="32" version="1"><rect width="28.203" height="28.203" x="1.898" y="1.898" ry="5.575" fill="#c2352a" fill-rule="evenodd"/><path d="M22.795 7.5c-.361 0-.727.078-1.02.229-.427.22-.857.686-1.048 1.136-.203.478-.232 1.322-.061 1.77l.277.723c.181.471.246 1.507.131 2.089a4.018 4.018 0 0 1-1 1.887c-1.412 1.427-3.546 1.452-4.949.058-.483-.481-.552-.596-2.736-4.584-.741-1.354-1.406-2.487-1.544-2.634-.434-.47-1.038-.638-1.59-.64-1.188-.02-2.012.93-2.207 1.952-.144.817-.21.676 3.627 7.673 2.422 4.416 3.574 6.452 3.762 6.652.67.709 1.622.885 2.513.463.235-.11.5-.31.67-.502.332-.376 7.197-12.847 7.309-13.276a2.908 2.908 0 0 0-.07-1.53c-.195-.55-.734-1.114-1.266-1.325a2.186 2.186 0 0 0-.798-.141z" fill="#fff"/></svg>