<svg xmlns="http://www.w3.org/2000/svg" height="32" width="32" version="1"><rect width="28.203" height="28.203" x="1.898" y="1.898" ry="5.575" fill="#6184a6" fill-rule="evenodd"/><path d="M15.764 22.445h1.315s.397-.045.6-.271c.187-.208.18-.599.18-.599s-.025-1.827.794-2.096c.807-.266 1.844 1.766 2.943 2.547.83.591 1.462.462 1.462.462l2.938-.043s1.537-.098.808-1.35c-.06-.102-.425-.926-2.185-2.618-1.843-1.77-1.596-1.484.623-4.547 1.352-1.866 1.892-3.005 1.723-3.493-.16-.464-1.155-.342-1.155-.342l-3.308.022s-.245-.035-.427.078c-.178.11-.292.367-.292.367s-.523 1.444-1.221 2.672c-1.473 2.59-2.063 2.728-2.303 2.567-.56-.375-.42-1.506-.42-2.31 0-2.511.367-3.558-.716-3.829-.36-.09-.625-.15-1.544-.159-1.18-.012-2.18.004-2.745.291-.377.19-.667.616-.49.64.219.03.714.14.976.509.34.478.327 1.55.327 1.55s.195 2.956-.455 3.323c-.445.252-1.057-.262-2.37-2.613C10.149 12 9.64 10.668 9.64 10.668s-.098-.248-.273-.381c-.211-.162-.507-.213-.507-.213l-3.144.021s-.472.014-.645.227c-.154.189-.012.58-.012.58s2.46 5.963 5.247 8.969c2.556 2.756 5.457 2.575 5.457 2.575" fill="#fff" fill-rule="evenodd"/></svg>