<svg xmlns="http://www.w3.org/2000/svg" height="32" width="32" version="1"><rect width="28.203" height="28.203" x="1.898" y="1.898" ry="5.575" fill="#6184a6" fill-rule="evenodd"/><g fill="#fff"><path d="M15.93 17.61h1.088s.329-.038.497-.226c.154-.172.15-.495.15-.495s-.022-1.512.655-1.735c.668-.219 1.526 1.462 2.435 2.108.688.49 1.21.382 1.21.382l2.431-.035s1.272-.081.669-1.117c-.05-.084-.352-.766-1.808-2.166-1.525-1.465-1.32-1.228.516-3.763 1.118-1.543 1.565-2.486 1.425-2.89-.133-.384-.955-.282-.955-.282l-2.737.017s-.203-.028-.354.065c-.147.091-.241.304-.241.304s-.434 1.194-1.011 2.21c-1.22 2.144-1.707 2.258-1.906 2.124-.463-.31-.348-1.246-.348-1.91 0-2.078.305-2.945-.592-3.169-.297-.074-.517-.123-1.277-.131-.977-.01-1.804.003-2.272.24-.311.158-.551.51-.405.53.181.025.59.115.808.42.28.396.27 1.284.27 1.284s.162 2.445-.376 2.749c-.369.208-.875-.217-1.961-2.162-.557-.996-.978-2.097-.978-2.097s-.08-.206-.225-.316c-.175-.134-.42-.176-.42-.176l-2.601.018s-.39.01-.534.187c-.128.156-.01.48-.01.48s2.036 4.934 4.342 7.421c2.114 2.28 4.515 2.13 4.515 2.13" fill-rule="evenodd"/><path d="M9.14 23.695q0 .323-.113.584-.109.258-.324.443-.21.182-.521.28-.308.1-.707.1-.35 0-.677-.073-.324-.073-.602-.218v-.951q.159.076.32.148.163.07.328.126.168.056.333.09.169.032.334.032.168 0 .287-.036.123-.04.195-.106.076-.07.11-.162.036-.095.036-.208 0-.135-.06-.238-.056-.105-.162-.194-.102-.093-.25-.179-.146-.086-.328-.181-.152-.08-.34-.192-.188-.112-.357-.278-.165-.168-.277-.402-.113-.238-.113-.569 0-.323.106-.578.11-.257.307-.432.199-.179.48-.271.283-.093.634-.093.175 0 .34.023.168.023.33.066.165.043.33.106.166.063.34.145l-.33.796q-.148-.069-.277-.122-.129-.053-.251-.089t-.241-.053q-.116-.02-.235-.02-.257 0-.396.14-.136.135-.136.362 0 .123.04.218.043.093.132.176.093.082.235.168.145.086.35.195.248.132.456.27.208.136.356.305.152.165.235.376.082.212.082.496zM12.79 25.036l-.331-1.15h-1.665l-.334 1.15H9.427l1.569-4.85h1.251l1.576 4.85h-1.034zm-.57-2.009l-.31-1.057q-.02-.059-.059-.194l-.086-.298q-.043-.165-.082-.33-.04-.165-.057-.28-.013.072-.036.17-.02.1-.05.212-.026.11-.056.222l-.056.211q-.026.1-.05.175l-.03.112-.306 1.057h1.179zM16.72 20.206h1.034l-1.507 4.83h-1.116l-1.503-4.83h1.034l.82 2.907q.016.056.042.188.03.133.06.291.033.159.062.317.03.159.047.268.016-.11.046-.268.03-.158.063-.314l.062-.29q.033-.132.05-.192l.806-2.907zM21.14 25.036h-2.782v-4.83h2.781v.84h-1.757v1.06h1.635v.839h-1.635v1.245h1.757v.846zM23.174 22.35h.278q.426 0 .61-.169.186-.171.186-.502 0-.343-.198-.489-.199-.145-.615-.145h-.26v1.305zm0 .832v1.853H22.15v-4.829h1.322q.928 0 1.37.36.443.357.443 1.087 0 .248-.066.45-.066.2-.178.36-.11.154-.255.273-.142.116-.3.195.366.588.657 1.05.126.199.241.387l.212.337q.092.149.151.238l.057.092h-1.137l-1.047-1.853h-.446z"/></g></svg>