<svg xmlns="http://www.w3.org/2000/svg" height="32" width="32" version="1"><rect width="28.203" height="28.203" x="1.898" y="1.898" ry="5.575" fill="#ffe08d" fill-rule="evenodd"/><path d="M10.16 17.922a.899.899 0 0 0-.829.552l-2.246 5.27a.899.899 0 0 0 .829 1.245h16.172a.899.899 0 0 0 .83-1.244l-2.247-5.27a.899.899 0 0 0-.83-.553z" fill="#f80" fill-rule="evenodd"/><path d="M16.001 7.011a3.196 3.196 0 0 0-1.235.23.899.899 0 0 0-.526.58l-.827 2.793c1.307 2.811 3.935.921 5.173 0L17.76 7.82a.899.899 0 0 0-.57-.595c-.38-.13-.78-.209-1.189-.214zm-3.65 7.197l-.998 3.37c.323 2.86 5.347 2.262 9.26-.115l-.963-3.255c-2.47.983-3.473-1.884-7.3 0z" fill="#f80" fill-rule="evenodd"/><path d="M13.413 10.614l-2.06 6.962.997-3.369c2.752 1.236 4.829.983 7.3 0l.963 3.255c-3.91 2.369-8.292.682-9.26.114l-.707 2.388c-.11.37.03.77.348.991 1.385.966 3.183 1.355 4.973 1.337 1.79-.017 3.585-.442 4.996-1.308a.899.899 0 0 0 .39-1.02l-2.766-9.35c-1.24.899-3.935.899-5.174 0z" fill="#fff" fill-rule="evenodd"/><path d="M15.932 7.014c-.954 0-1.588.29-1.588.674 0 .106.068.215.18.32.25-.213.75-.353 1.408-.353.66 0 1.262.178 1.577.414.133-.106.23-.212.23-.302 0-.384-.853-.753-1.807-.753z" opacity=".2" fill="#fff"/></svg>