<svg xmlns="http://www.w3.org/2000/svg" height="32" width="32" version="1"><rect width="28.203" height="28.203" x="1.898" y="1.898" ry="5.575" fill="#4e91d9" fill-rule="evenodd"/><g transform="matrix(.8607 0 0 .8607 37.068 -.238)" stroke-width="1.162"><path d="M-30.808 6.866c-.925 0-1.67.745-1.67 1.67v12.66c0 .925.745 1.67 1.67 1.67h12.66c.925 0 1.67-.745 1.67-1.67V8.536c0-.925-.745-1.67-1.67-1.67h-12.66zm2.33 4h8v8h-8z" fill="#a3caf6"/><g fill="#fae695"><path d="M-26.478 22.866h4v4h-4z"/><path d="M-34.478 25.866h20v4h-20z"/></g><circle r="3" cx="-33.478" cy="27.866" fill="#ffad53"/><circle r="3" cx="-24.478" cy="27.866" fill="#ffad53"/><circle r="3" cx="-15.478" cy="27.866" fill="#ffad53"/></g></svg>