<svg xmlns="http://www.w3.org/2000/svg" height="32" width="32" version="1"><rect width="28.203" height="28.203" x="1.898" y="1.898" ry="5.575" fill="#4e91d9" fill-rule="evenodd"/><path d="M7.429 6C6.637 6 6 6.637 6 7.43v6.428c0 .792.637 1.429 1.429 1.429.791 0 1.428-.637 1.428-1.429v-2.99L11 13.008v2.277h2.857v-.714c0-.396.319-.714.715-.714h.714V11h-2.277l-2.143-2.142h2.991c.792 0 1.429-.638 1.429-1.43 0-.79-.637-1.428-1.429-1.428H7.43zm10.714 0c-.792 0-1.429.637-1.429 1.429 0 .791.637 1.428 1.429 1.428h2.99L18.992 11h-2.277v2.857h.714c.396 0 .715.319.715.715v.714H21v-2.277l2.143-2.143v2.991c0 .792.637 1.429 1.428 1.429.792 0 1.429-.637 1.429-1.429V7.43C26 6.637 25.363 6 24.57 6h-6.428zM11 16.714v2.857c0 .792.637 1.43 1.429 1.43h2.857v-2.858h-.714a.713.713 0 0 1-.715-.714v-.714H11zm7.143 0v.714a.713.713 0 0 1-.715.715h-.714V21h2.277l2.143 2.143h-2.991c-.792 0-1.429.637-1.429 1.428 0 .792.637 1.429 1.429 1.429h6.428A1.424 1.424 0 0 0 26 24.572v-6.429c0-.791-.637-1.428-1.428-1.428-.792 0-1.429.637-1.429 1.428v2.991l-2.143-2.142v-2.276h-2.857z" fill="#fae695"/></svg>