<svg xmlns="http://www.w3.org/2000/svg" height="32" width="32" version="1"><rect width="28.203" height="28.203" x="1.898" y="1.898" ry="5.575" fill="#4e91d9" fill-rule="evenodd"/><path d="M20.5 26c.831 0 1.5-.669 1.5-1.5v-13c0-.831-.669-1.5-1.5-1.5h-13c-.831 0-1.5.669-1.5 1.5v13c0 .831.669 1.5 1.5 1.5zM18 22h-8v-8h8z" fill="#ffad53"/><path d="M24.5 22c.831 0 1.5-.669 1.5-1.5v-13c0-.831-.669-1.5-1.5-1.5h-13c-.831 0-1.5.669-1.5 1.5V10h12v8h-8v-4h-4v6.5c0 .831.669 1.5 1.5 1.5z" fill="#a3caf6"/></svg>