<svg xmlns="http://www.w3.org/2000/svg" height="32" width="32" version="1"><rect width="28.203" height="28.203" x="1.898" y="1.898" ry="5.575" fill="#72a7ce" fill-rule="evenodd"/><path d="M23.999 8s-2.4-.067-4.797 1.133a7.737 7.737 0 0 0-2.199 1.533c-1.077 1.077-2.751 3.06-4.069 4.664h-2.927l-1.333 1.998 2.26.611c.007.081.028.195.091.349l-.351.772s-.133.267.866 1.333c1.067 1.067 1.4.933 1.4.933l.828-.376a.975.975 0 0 0 .276.052l.628 2.323 2-1.333v-3.016c1.614-1.305 3.594-2.946 4.663-3.98.667-.666 1.2-1.466 1.599-2.199C24.066 10.4 24 8.001 24 8.001z" fill="#ffca68"/><path d="M19.335 13.997c-.734 0-1.333-.6-1.333-1.333s.6-1.332 1.333-1.332 1.333.599 1.333 1.332c0 .733-.6 1.333-1.333 1.333z" fill="#fff"/><path d="M12.339 21.993c.133.067.2.133.333.2-.133.133-.266.333-.4.466-1.533 1.532-4.264 1.333-4.264 1.333s-.2-2.733 1.333-4.264c.133-.134.333-.266.466-.4.067.133.133.2.2.333-1 1.265-.866 3.198-.866 3.198s1.931.133 3.198-.866z" fill="#ffca68"/></svg>