<svg xmlns="http://www.w3.org/2000/svg" height="32" width="32" version="1"><rect width="28.203" height="28.203" x="1.898" y="1.898" ry="5.575" fill="#4f4f4f" fill-rule="evenodd"/><path d="M17 4.5a8 8 0 0 0-8 8 8 8 0 0 0 .006.156c-.002.049-.012.096-.012.145.002.126.004.253.012.379l-.002.074v1.492l-.01.555-1.826 2.881c-.42.801-.023 1.298.879 1.31l.957.014v2.25c0 .941.879 1.73 1.824 1.73l2.172.028v3.935c.332.023.662.051 1 .051a13.95 13.95 0 0 0 8.014-2.516V19.1c0-.13-.008-.238-.01-.36A8 8 0 0 0 25 12.5a8 8 0 0 0-8-8z" fill="#6084ff"/><g transform="translate(-2 -2.5)" fill="#fff"><path d="M19.5 10a4.5 4.5 0 0 0-4.5 4.5 4.5 4.5 0 0 0 4.5 4.5 4.5 4.5 0 0 0 4.5-4.5 4.5 4.5 0 0 0-4.5-4.5zm0 2a2.5 2.5 0 0 1 2.5 2.5 2.5 2.5 0 0 1-2.5 2.5 2.5 2.5 0 0 1-2.5-2.5 2.5 2.5 0 0 1 2.5-2.5z"/><circle r="1.5" cx="19.5" cy="14.5"/></g></svg>