<svg xmlns="http://www.w3.org/2000/svg" height="32" width="32" version="1"><rect width="28.203" height="28.203" x="1.898" y="1.898" ry="5.575" fill="#4f4f4f" fill-rule="evenodd"/><path d="M13.205 25.712c-1.76-.436-3.265-1.335-4.805-2.869-1.215-1.211-1.403-1.48-1.878-2.69-.47-1.2-.526-1.508-.522-2.849.007-2.138.424-3.427 1.623-5.018 1.127-1.497 1.635-1.91 3.429-2.79 1.257-.617 2.069-.857 3.842-1.135.722-.113.746-.362.077-.829-.856-.597-1.77-1.43-1.676-1.526.1-.103 3.47 1.063 5.014 1.736 1.963.855 4.378 2.526 5.482 3.793.434.498.637 1.021.397 1.021-.11 0-1.53-.643-2.967-1.344-.6-.293-1.162-.49-1.246-.437-.085.053.018.17.228.262.211.091.419.213.462.271.043.058.379.196.746.306.367.11.667.261.667.334 0 .074.089.138.197.143.108.005.546.176.973.38l.777.37-.62.173c-.958.268-1.375.218-3.15-.38-2.075-.7-4.186-.87-6.086-.49-1.874.374-2.045.663-1.117 1.888.716.945 1.439 1.177 2.515.81.44-.152.904-.21 1.151-.144.378.1.387.12.102.226-.286.106-.274.136.157.371.319.174.38.258.194.262-.3.007-.37.245-.118.402.297.185.16.418-.18.309-.273-.087-.319-.057-.237.158.08.21.036.245-.212.166-.234-.075-.314-.028-.317.187-.003.222-.105.166-.442-.244-.418-.508-.502-.538-1.92-.676-1.75-.17-2.217-.335-2.743-.964l-.391-.469-.419.922c-.545 1.2-.674 2.987-.298 4.13.852 2.583 2.644 3.681 4.474 2.74 1.242-.638 1.594-1.818.86-2.883-.424-.618-.427-1.296-.004-.942.255.212.413.078.426-.363.009-.296.027-.289.171.066l.161.395.24-.356c.299-.441.515-.462.406-.04-.093.358.103.415.411.12.169-.162.186-.13.095.173-.1.332-.073.36.257.268.316-.09.293-.04-.16.352l-.53.456.113 1.741.113 1.742-.48.407c-.476.404-.477.408-.121.498.511.13 2.706-.147 3.633-.458 1.557-.522 3.405-1.93 4.169-3.175.96-1.565 1.493-4.605 1.033-5.882-.196-.544-.202-.673-.033-.673.424 0 .866 1.73.872 3.41.007 2.074-.746 4.006-2.203 5.653-2.286 2.586-6.928 3.894-10.592 2.985z" fill="#fecd38"/></svg>