<svg xmlns="http://www.w3.org/2000/svg" width="32" height="32" version="1"><path d="M29.846 25.793c-.041-.409-.087-.819-.244-1.182a3.983 3.983 0 0 0-.88-1.27 4.112 4.112 0 0 0-1.306-.853 4.216 4.216 0 0 0-1.602-.312H6.094c-.57 0-1.11.11-1.602.312a4.112 4.112 0 0 0-1.306.854c-.372.36-.67.792-.877 1.27-.129.295-.148.635-.2.962.504 2.565 2.648 4.528 5.364 4.528h17.054c2.639 0 4.734-1.855 5.319-4.309z" fill="#666" fill-rule="evenodd"/><path d="M1.898 16.873v7.652c0 .373.142.697.211 1.05.052-.328.071-.668.2-.964.207-.477.505-.909.877-1.27.37-.36.814-.651 1.306-.853a4.216 4.216 0 0 1 1.602-.312h19.72c.57 0 1.11.11 1.602.312s.935.493 1.307.854c.37.36.671.792.879 1.27.157.362.203.772.244 1.181.1-.419.256-.817.256-1.268v-7.652z" fill="#38592b" fill-rule="evenodd"/><path d="M7.473 1.898a5.561 5.561 0 0 0-5.575 5.575v11.22h28.204V7.473a5.561 5.561 0 0 0-5.575-5.575z" fill="#e6e6e6" fill-rule="evenodd"/><g transform="matrix(1.33034 0 0 1.33034 -3.335 -3.1)" fill="#b3b3b3" stroke-width=".752"><circle r="2" cy="22" cx="7"/><circle r="2" cy="22" cx="12"/><circle r="2" cy="22" cx="17"/><circle r="2" cy="22" cx="22"/></g><path d="M14.498 13.122c-3.243 0-5.871 2.19-5.871 4.893.002.234.025.468.067.699h11.608c.042-.231.064-.465.066-.7-.001-.473-.085-.71-.25-1.164h9.943v-1.864H19.308c-1.096-1.311-2.892-1.861-4.81-1.864z" fill="#5b7338"/></svg>