<svg xmlns="http://www.w3.org/2000/svg" width="32" height="32" version="1"><rect width="28.203" height="28.203" x="1.898" y="1.898" ry="5.575" fill="#4f4f4f" fill-rule="evenodd"/><g transform="translate(44.303 11.022)"><rect transform="rotate(30)" ry=".194" rx=".19" y="7.142" x="-22.179" height="4.36" width="1.453" fill="#ffd38d"/><path d="M-24.893-3.707a.484.484 0 0 0-.662.177l-.658 1.14a8.72 8.72 0 0 0-9.64 4.102 8.72 8.72 0 0 0 3.192 11.91 8.72 8.72 0 0 0 11.91-3.191A8.72 8.72 0 0 0-22.02.035l.66-1.143a.483.483 0 0 0-.177-.661l-3.356-1.938z" fill="#fff"/><path d="M-29.401-.468c-.129-.001-.246.003-.348.013-.963.085-2.218.943-3.282 2.243-1.03 1.257-1.326 2.262-.887 3.002.494.833 1.066 1.306 1.864 1.545.683.204.887.328 1.472.894.944.914 1.27 1.016 3.254 1.022.838.002 1.848-.032 2.244-.075.585-.064.832-.14 1.315-.403 1.282-.701 1.489-1.178 1.111-2.55a26.555 26.555 0 0 1-.427-2.011c-.117-.678-.264-1.338-.328-1.466-.283-.571-1.196-1.12-2.77-1.668-.862-.3-2.32-.54-3.218-.546zm-.558 2.906c.763.032.935.7.931 1.273 0 .808-.116 1.12-.534 1.43-.311.23-1.073.277-1.3.08-.239-.206-.346-.592-.346-1.247 0-.987.446-1.536 1.25-1.536zm3.87 0h.001c.189-.003.39.057.63.177.25.126.53.328.622.449.222.29.223.94.004 1.665-.33 1.093-.988 1.534-1.893 1.265-.348-.103-.759-.594-.833-.996-.12-.65.413-2.026.914-2.363.191-.128.367-.193.555-.197zm-6.372 4.36c-.305-.002-.63.1-.942.306-.382.254-1.129 1.135-1.327 1.568-.375.82.248 2.089 1.182 2.406.329.111.334.11.632-.033.353-.17.527-.4 1.14-1.51.415-.75.526-1.03.555-1.412.034-.432.012-.508-.228-.817a1.265 1.265 0 0 0-1.012-.508zm3.023 2.18c-.705 0-1.206.443-1.533 1.352-.283.788-.315 1.457-.08 1.691.407.409 1.917.739 2.378.52.192-.092.252-.227.343-.78.088-.53-.034-1.714-.223-2.17-.168-.408-.465-.614-.885-.614zm3.31 0c-.064-.001-.137.003-.225.01-.523.04-.805.217-1.057.665-.168.299-.184.408-.15 1.013.044.755.16 1.142.364 1.198.219.06 1.203-.028 1.635-.148.531-.146.893-.435.893-.71 0-.295-.765-1.691-1.035-1.89a.628.628 0 0 0-.426-.139z" fill="#4f4f4f"/></g></svg>