<svg xmlns="http://www.w3.org/2000/svg" height="32" width="32"><rect width="28.203" height="28.203" x="1.898" y="1.898" ry="5.575" fill="#41a6cc" fill-rule="evenodd"/><g stroke-width=".993"><path d="M16.298 7.192a8.772 8.772 0 0 0-8.772 8.772 8.772 8.772 0 0 0 8.772 8.772 8.772 8.772 0 0 0 8.772-8.772 8.772 8.772 0 0 0-8.772-8.772z" fill="#354358"/><path d="M17.144 3.667c-.255.001-.741.044-.99.113-.831.23-1.606 1.312-1.893 2.099-.043.118-.099.226-.124.239a1.553 1.553 0 0 1-.22.057c-.984.206-2.185.657-3.008 1.128-1.85 1.06-3.27 2.564-4.194 4.443-.522 1.061-.818 2.035-.989 3.254-.072.518-.072 2.084 0 2.602.328 2.333 1.306 4.333 2.913 5.96 1.83 1.855 4.181 2.912 6.84 3.076.33.02 1.33-.011 1.72-.055a10.506 10.506 0 0 0 3.233-.927 10.361 10.361 0 0 0 5.853-8.184c.02-.175.038-.654.038-1.069.063-1.184-.424-2.36-.911-3.225-.504-1.043-.601-1.948-.675-3.06a.359.359 0 0 0-.002-.156c-1.335.41-2.477 1.489-3.18 2.487-.475.758-.786 1.532-.788 2.214.067 1.74 1.557 2.994 1.59 4.566 0 1.668-1.005 3.281-2.2 4.435-.24.232-.297.274-.324.248-.008-.009.03-.111.082-.228.831-1.823.657-4.009-.62-5.54-.179-.214-.881-.908-.98-.97a3.973 3.973 0 1 1-3.156-3.169l.038.002c.037-.031.06-.06.06-.07 0-.061-.978-1.04-1.25-1.25-.55-.428-1.178-.943-1.903-1.13-.194-.05-.296-.09-.296-.116 0-.074.689-.28 1.454-.433.929-.188 1.532-.233 3.333-.252.755-.008 1.5-.027 1.655-.043 1.942-.313 3.504-1.585 4.2-3.006.019-.065.016-.065-.285-.065-.638 0-1.28-.133-1.891-.402-.791-.45-1.488-.97-2.335-1.152-.22-.047-.812-.055-1.144-.1-.078-.667.218-1.633.503-2.062.07-.101.123-.2.118-.216-.011-.032-.119-.044-.272-.043z" fill="#fff"/></g></svg>