<svg xmlns="http://www.w3.org/2000/svg" height="32" width="32"><rect width="28.203" height="28.203" x="1.898" y="1.898" ry="5.575" fill="#f3b616" fill-rule="evenodd"/><path d="M24.62 4.862c.439 0 .684.346.736 1.038l-.555 3.258h.136l.29-.242h.078v.073c-.4.306-.788 1.142-1.162 2.51a16.353 16.353 0 0 1-.717 3.258c-.298 1.03-.446 1.98-.446 2.848l-.562 1.714c0 .144.213.29.64.434-.078.338-.194.507-.35.507v.096h.136v.073c0 .177-.22.265-.659.265l.078.097v.338h-.136c.09.338.284.507.582.507v.168h-.582v.097c.194 0 .29.145.29.434l-.813.338.077.097v.072c0 .113-.096.17-.29.17v.096c.245 0 .368.056.368.169-.349.145-.807.86-1.376 2.148-.581 1.142-1.085 1.713-1.511 1.713h-.155c-.323-.257-.588-1.11-.795-2.558-.827-2.204-1.24-3.5-1.24-3.886 0-.997-.265-1.881-.795-3.008-.142-.498-.239-1.37-.29-2.127h-.35c-.878 1.658-1.336 2.923-1.375 3.856-.246.547-.44 1.207-.581 1.98.53.176.794.345.794.506v.097c-.413-.065-.704-.185-.872-.362-.18.434-.42 1.373-.717 3.352-.232.918-.523 1.26-.872 1.26-.982-.403-1.802-.946-2.461-1.863-.103 0-.271-.458-.504-1.376-.142 0-.239-.458-.29-1.375a16.048 16.048 0 0 1-1.008-4.198v-2.51h-.078l-.348.097v-.097c0-.113.116-.169.348-.169l-.077-1.448v-1.134l-.562-3.62V7.187c.245-.965.672-1.448 1.279-1.448l.232.241-.232-.072c.943 1.287 1.498 2.195 1.666 3.08h.66v.169h-.505v.193c.194.74.336 1.11.427 1.11h.155l.349-.097.077.097.078-.097.077.097v.072a1.417 1.417 0 0 0-.523.797h-.058v.169h.135c.181 2.687.517 5.079 1.008 6.463l.29.266h.156c.194 0 .6-1.055 1.22-2.938.401-.853.692-1.477.873-2.12l-.078-.266c.4-.628.814-.914 1.24-.914h.136c.271 0 .465.15.581.503.362.531.653 1.204.872 2.266l1.086 2.243a.938.938 0 0 1 .213.603c.4.95.762 2.1 1.085 2.405h.232c.272 0 .633-1.697 1.086-4.046.077 0 .29-.628.64-1.883v-.096l-.37-.17-.29.097h-.368v-.193l.736-.072h.582c.555-2.076 1.066-3.685 1.53-4.827.156-2.35.369-3.524.64-3.524l1.059-.434" fill="#fff"/></svg>