<svg xmlns="http://www.w3.org/2000/svg" height="32" width="32" version="1"><rect width="28.203" height="28.203" x="1.898" y="1.898" ry="5.575" fill="#666" fill-rule="evenodd"/><path d="M12.628 7.567l-1.976 1.976H7.857v2.794l-1.975 1.976 1.975 1.975v2.795h2.795l1.976 1.975 1.975-1.975h2.795v-2.795l1.975-1.975-1.975-1.976V9.543h-2.795z" fill="#fec006"/><path d="M10.048 8.08l-1.07 2.581-2.582 1.07 1.07 2.582-1.07 2.581 2.582 1.07 1.07 2.581 2.581-1.069 2.582 1.07 1.07-2.582 2.58-1.07-1.068-2.581 1.069-2.582-2.582-1.07-1.07-2.581-2.58 1.069z" fill="#fecd38"/><rect transform="matrix(0 -.46377 -.46377 0 -59.718 -104.409)" rx="12" ry="12" height="24" width="24" y="-168" x="-268" fill="#fed96a"/><path d="M16 10.941c-2.62 0-4.85 1.555-5.81 3.756-2.439.352-4.309 2.367-4.309 4.83 0 2.71 2.265 4.906 5.06 4.906h10.751c2.445 0 4.427-1.922 4.427-4.293 0-2.203-1.709-4.01-3.913-4.254-.575-2.813-3.137-4.945-6.206-4.945z" fill="#d8d8d8"/></svg>