<svg xmlns="http://www.w3.org/2000/svg" height="32" width="32" version="1"><g transform="translate(54.373 -1.085)"><rect ry="5.575" y="2.983" x="-52.475" height="28.203" width="28.203" fill="#666" fill-rule="evenodd"/><path d="M-41.745 8.652l-1.976 1.975h-2.794v2.795l-1.976 1.976 1.976 1.975v2.795h2.794l1.976 1.975 1.975-1.975h2.795v-2.795L-35 15.398l-1.975-1.976v-2.795h-2.795z" fill="#fec006"/><path d="M-44.325 9.165l-1.07 2.581-2.581 1.07 1.069 2.581-1.07 2.582 2.582 1.07 1.07 2.581 2.581-1.069 2.582 1.07 1.07-2.582 2.581-1.07-1.07-2.582 1.07-2.581-2.581-1.07-1.07-2.581-2.582 1.069z" fill="#fecd38"/><rect x="-268" y="-168" width="24" height="24" ry="12" rx="12" transform="matrix(0 -.46377 -.46377 0 -114.091 -103.324)" fill="#fed96a"/><path d="M-38.373 12.026c-2.62 0-4.85 1.555-5.81 3.756-2.439.351-4.309 2.367-4.309 4.83 0 2.71 2.265 4.906 5.06 4.906h10.751c2.445 0 4.427-1.922 4.427-4.293 0-2.204-1.709-4.01-3.913-4.254-.575-2.814-3.136-4.945-6.206-4.945z" fill="#d8d8d8"/></g></svg>