<svg xmlns="http://www.w3.org/2000/svg" height="32" width="32" version="1"><path d="M30 6.969c-.054-.579-.12-1.157-.336-1.67A5.563 5.563 0 0 0 26.7 2.334c-.511-.216-1.089-.28-1.666-.334H16v14h14z" fill="#f7c73c"/><path d="M6.965 2c-.577.054-1.155.118-1.666.334a5.563 5.563 0 0 0-2.965 2.965c-.216.511-.28 1.089-.334 1.666V16h14V2zM25.035 30c.577-.054 1.155-.118 1.666-.334a5.563 5.563 0 0 0 2.965-2.965c.216-.511.28-1.089.334-1.666V16H16v14z" fill="#14ddb1"/><path d="M2 25.031c.054.579.12 1.157.336 1.67A5.563 5.563 0 0 0 5.3 29.666c.511.216 1.089.28 1.666.334H16V16H2z" fill="#2086e7"/><rect width="21.424" height="21.424" x="5.288" y="5.288" ry="4.235" fill="#3f3f3f" fill-rule="evenodd"/><g fill="none" stroke="#fff" stroke-width="2" stroke-linecap="round"><path d="M9.568 21.636h6.435" stroke-width="1.60874"/><path d="M16.003 10.375v4.826c0 1.219-.84 1.63-1.609 1.61-.72.002-1.608-.376-1.608-1.61v-4.826m0 0v4.826c0 1.219-.84 1.63-1.609 1.61-.72.002-1.609-.376-1.609-1.61v-4.826" stroke-linejoin="bevel" stroke-width="1.60874"/><path d="M19.22 16.006s.406.805 1.61.805c1.203 0 1.608-.805 1.608-1.61 0-3.39-3.217.17-3.208-3.21-.01-.811.38-1.616 1.6-1.616 1.219 0 1.608.805 1.608.805" stroke-linejoin="round" stroke-width="1.60874"/></g></svg>