<svg xmlns="http://www.w3.org/2000/svg" height="32" width="32" version="1"><rect width="28.203" height="28.203" x="1.898" y="1.898" ry="5.575" fill="#f25b6f" fill-rule="evenodd"/><g stroke-width=".878"><path d="M16.064 4.444a2.722 2.628 0 0 0-1.425.35L6.629 9.26a2.722 2.628 0 0 0-1.36 2.276v8.93a2.722 2.628 0 0 0 1.36 2.275l8.01 4.465a2.722 2.628 0 0 0 2.722 0l8.01-4.465a2.722 2.628 0 0 0 1.36-2.277v-8.929a2.722 2.628 0 0 0-1.36-2.276l-8.01-4.464a2.722 2.628 0 0 0-1.296-.35z" fill="#4f4f4f"/><path d="M19.143 9.396c-1.242 0-2.36.632-3.143 1.592-.783-.96-1.9-1.592-3.143-1.592-2.367 0-4.287 2.184-4.287 4.878 0 .724.113 1.42.31 2.086 0 0 .178.6.336.93C11.023 21.516 16 24.256 16 24.256s4.977-2.74 6.784-6.964c1.807-4.225.233-.563.336-.93.188-.67.31-1.363.31-2.087 0-2.694-1.92-4.878-4.287-4.878z" fill="#f25b6f" stroke-width="1.211"/></g></svg>