<svg xmlns="http://www.w3.org/2000/svg" width="32" height="32"><rect width="28.203" height="28.203" x="1.898" y="1.898" ry="5.575" fill="#fff" fill-rule="evenodd"/><g transform="matrix(.64125 0 0 .64125 5.099 5.74)"><path d="M16 1A14 13 0 0 0 2 14a14 13 0 0 0 5 9.957V29l3.721-2.967A14 13 0 0 0 16 27a14 13 0 0 0 14-13A14 13 0 0 0 16 1z" fill="#50bcff"/><circle r="2" cy="11" cx="9" fill="#3f3f3f"/><circle r="2" cy="12" cx="23" opacity=".1"/><circle cx="23" cy="11" r="2" fill="#3f3f3f"/><path d="M22.003 11a10 9.5 0 0 1 .853.04c.206.017.408.044.61.071a10 9.5 0 0 1 .32.046c.288.049.57.11.849.18a10 9.5 0 0 1 .055.015C28.91 12.45 32 16.062 32 20.35l-.003.093A10 9.5 0 0 1 32 20.5a10 9.5 0 0 1-3.901 7.514V31l-2.751-1.56A10 9.5 0 0 1 22 30a10 9.5 0 0 1-9.975-9.015 8.749 8.749 0 0 1-.018-.334A10 9.5 0 0 1 12 20.5a10 9.5 0 0 1 .002-.062L12 20.35c0-4.842 3.938-8.833 9.002-9.302a10 9.5 0 0 1 .832-.04c.056 0 .111-.008.167-.008h.002z" fill="#ccc"/><circle cx="17" cy="19" r="2" fill="#3f3f3f"/><circle r="2" cy="19" cx="27" fill="#3f3f3f"/></g></svg>