<svg xmlns="http://www.w3.org/2000/svg" width="32" height="32" version="1"><g transform="translate(61.277 -6.355)"><rect ry="5.575" y="8.253" x="-59.378" height="28.203" width="28.203" fill="#067bff" fill-rule="evenodd"/><path d="M-37.627 15.833l-7.564-2.709a.254.254 0 0 0-.172 0l-7.564 2.71a.262.262 0 0 0-.173.246c0 2.741.715 5.91 1.96 8.694 1.01 2.258 2.828 5.27 5.745 6.796a.255.255 0 0 0 .237 0c2.917-1.526 4.734-4.538 5.744-6.796 1.246-2.784 1.96-5.953 1.96-8.694 0-.11-.069-.21-.172-.247z" fill="#4f4f4f" stroke-width="1.406"/><path d="M-41.104 18.843l-4.126-1.458a.14.14 0 0 0-.094 0l-4.126 1.458a.141.141 0 0 0-.094.133c0 1.476.39 3.182 1.07 4.681.55 1.216 1.541 2.838 3.133 3.66a.14.14 0 0 0 .129 0c1.59-.822 2.582-2.444 3.133-3.66.68-1.499 1.07-3.205 1.07-4.68a.141.141 0 0 0-.095-.134z" fill="#067bff" stroke-width="1.406"/><path d="M-49.25 17.668l1.633-.943 7.547 13.072.363 2.514-1.997-1.57z" fill="#fff"/><path d="M-50.435 12.402a.459.459 0 0 0-.172.059l-.841.484a.457.457 0 0 0-.168.626l1.423 2.463-1.239.714a.457.457 0 0 0-.167.626l.485.841c.127.22.406.295.626.168l4.109-2.372a.457.457 0 0 0 .167-.626l-.485-.841a.457.457 0 0 0-.626-.168l-1.237.714-1.422-2.462a.457.457 0 0 0-.453-.226z" fill="#3f3f3f"/><path d="M-41.281 17.668l-1.634-.943-7.547 13.072-.362 2.514 1.996-1.57z" fill="#fff"/><path d="M-40.097 12.402a.459.459 0 0 1 .173.059l.84.484c.22.127.295.406.168.626l-1.422 2.463 1.238.714c.22.127.295.406.168.626l-.486.841a.457.457 0 0 1-.625.168l-4.11-2.372a.457.457 0 0 1-.167-.626l.486-.841a.457.457 0 0 1 .625-.168l1.237.714 1.422-2.462a.457.457 0 0 1 .453-.226z" fill="#3f3f3f"/></g></svg>