<svg xmlns="http://www.w3.org/2000/svg" width="32" height="32" version="1"><rect width="28.203" height="28.203" x="1.898" y="1.898" ry="5.575" fill="#ffb706" fill-rule="evenodd"/><g stroke-width="1.406"><path d="M23.65 9.478L16.086 6.77a.254.254 0 0 0-.172 0L8.349 9.478a.262.262 0 0 0-.172.248c0 2.74.714 5.91 1.96 8.693 1.01 2.258 2.827 5.27 5.745 6.796a.255.255 0 0 0 .236 0c2.918-1.526 4.734-4.538 5.745-6.796 1.246-2.784 1.96-5.953 1.96-8.693 0-.111-.07-.21-.172-.248z" fill="#4f4f4f"/><path d="M20.172 12.488l-4.126-1.458a.14.14 0 0 0-.093 0l-4.126 1.458a.141.141 0 0 0-.094.134c0 1.475.39 3.182 1.069 4.68.55 1.217 1.542 2.839 3.133 3.66a.14.14 0 0 0 .13 0c1.59-.822 2.581-2.444 3.133-3.66.68-1.498 1.069-3.205 1.069-4.68a.141.141 0 0 0-.094-.134z" fill="#ffb706"/><path d="M12.026 11.314l1.634-.944 7.547 13.072.362 2.514-1.996-1.57z" fill="#fff"/><path d="M10.842 6.047a.459.459 0 0 0-.173.06l-.84.484a.457.457 0 0 0-.168.625l1.422 2.463-1.238.715a.457.457 0 0 0-.168.625l.486.841c.127.22.406.295.625.168l4.11-2.372a.457.457 0 0 0 .167-.626l-.486-.84a.457.457 0 0 0-.625-.168l-1.237.714-1.422-2.463a.457.457 0 0 0-.453-.226z" fill="#3f3f3f"/><path d="M19.996 11.314l-1.634-.944-7.547 13.072-.363 2.514 1.997-1.57z" fill="#fff"/><path d="M21.18 6.047a.459.459 0 0 1 .172.06l.841.484c.22.127.295.406.168.625L20.938 9.68l1.239.715c.22.127.294.406.167.625l-.485.841a.457.457 0 0 1-.626.168l-4.109-2.372a.457.457 0 0 1-.167-.626l.485-.84a.457.457 0 0 1 .626-.168l1.237.714 1.422-2.463a.457.457 0 0 1 .453-.226z" fill="#3f3f3f"/></g></svg>