<svg xmlns="http://www.w3.org/2000/svg" height="32" width="32" version="1"><rect width="28.203" height="28.203" x="1.898" y="1.898" ry="5.575" fill="#47ad5d" fill-rule="evenodd"/><path d="M16 6.746c-.223 0-.443.01-.662.026l-.082.007a9.223 9.223 0 0 0-7.52 5.059l-.001.001c-.092.183-.185.364-.265.553a8.422 8.422 0 0 0-.711 3.103l-.004.106c-.003.104-.009.207-.008.311L6.746 16c0 1.076.19 2.104.526 3.063.134.43.29.864.477 1.304.466 1.096.524 1.395.45 2.31-.05.638-.223 1.29-.44 1.656-.195.332-.352.675-.352.762 0 .27 1.56.175 2.94-.178 1.618-.414 1.759-.414 3.085.003.607.19 1.3.293 2.08.321.033.002.066.002.1.003.106.003.209.01.32.01l.025-.001H16c.258 0 .513-.012.766-.033 2.288-.162 4.126-1.009 5.78-2.66a9.172 9.172 0 0 0 2.618-5.283c.014-.1.028-.2.038-.301.023-.216.036-.435.044-.655.001-.056.004-.111.004-.167a9.23 9.23 0 0 0-9.112-9.404c-.046 0-.092-.004-.138-.004z" fill="#fff"/><g transform="matrix(.661 0 0 .661 5.424 5.424)" fill="#47ad5d"><circle r="2" cx="16" cy="16"/><circle r="2" cx="8" cy="16"/><circle r="2" cx="24" cy="16"/></g></svg>