<svg xmlns="http://www.w3.org/2000/svg" height="32" width="32" version="1"><rect width="28.203" height="28.203" x="1.898" y="1.898" ry="5.575" fill="#47ad5d" fill-rule="evenodd"/><path d="M16.271 6.746a9.423 9.423 0 0 0-.743.032 9.223 9.223 0 0 0-7.52 5.06h-.002c-.092.183-.185.365-.265.553a8.424 8.424 0 0 0-.711 3.104l-.004.106c-.003.104-.008.206-.008.311L7.017 16c0 1.076.19 2.103.525 3.062.135.43.29.866.478 1.306.466 1.095.524 1.394.45 2.31-.05.637-.224 1.288-.44 1.654-.196.332-.352.676-.352.763 0 .27 1.559.176 2.94-.178 1.617-.414 1.759-.413 3.085.003.607.19 1.3.293 2.081.321l.098.003c.107.003.21.01.32.01l.026-.001.043.001c.259 0 .514-.013.767-.033 2.288-.163 4.125-1.01 5.779-2.661a9.174 9.174 0 0 0 2.62-5.283c.013-.1.026-.2.037-.301.022-.216.036-.436.044-.656.001-.055.003-.11.003-.166.002-.051.004-.102.004-.154a9.23 9.23 0 0 0-9.114-9.25c-.047-.001-.094-.004-.14-.004zm-2.967 4.63c.573.024.75.016 1.276 1.311.457 1.125.457 1.14-.066 1.753-.178.209-.324.428-.324.488.443 1.403 1.834 2.471 3.202 2.84.117 0 .271-.145.631-.592.578-.718.496-.714 1.837-.068 1.056.508 1.095.645 1.01 1.184-.111.706-.435 1.122-1.128 1.453-.672.321-1.383.295-2.53-.094-1.878-.636-3.181-1.657-4.517-3.537-.778-1.096-1.047-1.754-1.05-2.574-.004-.645.133-1.066.517-1.589.37-.505.556-.599 1.142-.574z" fill="#fff"/></svg>