<svg xmlns="http://www.w3.org/2000/svg" height="32" width="32" version="1"><rect width="28.203" height="28.203" x="1.898" y="1.898" ry="5.575" fill="#999" fill-rule="evenodd"/><path d="M16.045 7.702c-4.38 0-8.32 1.556-11.59 3.969l11.59 12.627 11.5-12.673c-3.256-2.386-7.154-3.924-11.5-3.924z" fill="#4f4f4f"/><path d="M16 11.017a15.606 15.606 0 0 0-9.326 3.076L16.049 24.3l9.277-10.206A15.606 15.606 0 0 0 16 11.017z" fill="#797979"/><path d="M16 14.337c-2.616 0-5.044.858-6.995 2.307l7.032 7.655 6.957-7.654A11.703 11.703 0 0 0 16 14.338z" fill="#ccc"/></svg>