<svg xmlns="http://www.w3.org/2000/svg" width="32" height="32"><rect width="28.203" height="28.203" x="1.898" y="1.898" ry="5.575" fill="#5b5b5b" fill-rule="evenodd"/><g color="#000" font-weight="400" font-family="sans-serif"><path d="M8.614 6.635A1.67 1.67 0 0 0 6.97 8.329v11.357a1.67 1.67 0 0 0 2.475 1.464l5.876-3.232 5.876 3.232a1.67 1.67 0 0 0 2.475-1.464V8.33a1.67 1.67 0 1 0-3.34 0v8.534l-4.206-2.314a1.67 1.67 0 0 0-1.61 0l-4.206 2.314V8.329a1.67 1.67 0 0 0-1.695-1.694z" style="line-height:normal;font-variant-ligatures:normal;font-variant-position:normal;font-variant-caps:normal;font-variant-numeric:normal;font-variant-alternates:normal;font-feature-settings:normal;text-indent:0;text-align:start;text-decoration-line:none;text-decoration-style:solid;text-decoration-color:#000;text-transform:none;text-orientation:mixed;white-space:normal;shape-padding:0;isolation:auto;mix-blend-mode:normal;solid-color:#000;solid-opacity:1" overflow="visible" fill="#508d4c"/><path d="M15.295 9.975a1.67 1.67 0 0 0-1.645 1.694v12.026a1.67 1.67 0 0 0 1.67 1.67h8.017a1.67 1.67 0 1 0 0-3.34H16.99V11.669a1.67 1.67 0 0 0-1.695-1.694z" style="line-height:normal;font-variant-ligatures:normal;font-variant-position:normal;font-variant-caps:normal;font-variant-numeric:normal;font-variant-alternates:normal;font-feature-settings:normal;text-indent:0;text-align:start;text-decoration-line:none;text-decoration-style:solid;text-decoration-color:#000;text-transform:none;text-orientation:mixed;white-space:normal;shape-padding:0;isolation:auto;mix-blend-mode:normal;solid-color:#000;solid-opacity:1" overflow="visible" fill="#ff6f57"/></g></svg>