<svg xmlns="http://www.w3.org/2000/svg" height="32" width="32" version="1"><rect width="28.203" height="28.203" x="1.898" y="1.898" ry="5.575" fill="#ccc" fill-rule="evenodd"/><path d="M19.114 9.5c-.71 0-1.553.002-2.07.006l-.051.035v.372c0 .046.019.078.056.105.039.03.077.047.12.047l.164.017c.423.018.622.133.68.204.101.127.149.268-.096.816l-1.463 2.993-1.322-2.778c-.434-.888-.54-1.165.114-1.217l.26-.035c.126 0 .188-.045.188-.134v-.39l-.097-.035-3.568.006-.05.034v.39c0 .088.089.112.26.135.612.082.597.148 1.203 1.38l.357.74 1.378 2.784.403.914-2.002 4.1-.114-.029s-3.11-6.734-4.01-8.987c-.093-.233-.136-.405-.136-.512 0-.229.2-.35.601-.367l.471-.023c.124 0 .187-.05.187-.152v-.367l-.045-.04s-3.723-.005-4.492 0L6 9.554v.384c0 .07.082.114.255.134.473.026.787.104.936.232.149.131.307.46.516.973 1.13 2.788 3.533 7.767 4.702 10.6.337.774.757.895 1.271-.023.554-1.056 1.524-3.094 2.309-4.759.011-.161.011.15.153.053.733 1.658 1.618 3.653 2.11 4.694.381.808.813.885 1.253.023 1.152-2.628 4.521-10.536 4.521-10.536.146-.388.346-.685.607-.902.26-.216.66-.337 1.203-.361.11 0 .164-.051.164-.152v-.373l-.04-.04h-4.135l-.05.04v.373c0 .044.018.077.056.105.038.03.077.047.119.047l.346.017c.424.018.54.104.703.25.164.15.184.404.057.764l-3.658 8.917-.142-.041-2.326-4.875.057-.117 1.9-3.651c.222-.386.436-.731.545-.892.198-.293.309-.346.85-.372.11 0 .165-.05.165-.152v-.367l-.04-.04s-.582-.005-1.293-.006z" fill="#4d4d4d"/></svg>