<svg xmlns="http://www.w3.org/2000/svg" height="32" width="32" version="1"><g fill-rule="evenodd"><path d="M9.707 30.102L16 16 1.898 9.707v14.82a5.561 5.561 0 0 0 5.575 5.575z" fill="#a0002f"/><path d="M30.102 22.293L16 16 9.707 30.102h14.82a5.561 5.561 0 0 0 5.575-5.575z" fill="#c3283a"/><path d="M22.293 1.898L16 16l14.102 6.293V7.473a5.561 5.561 0 0 0-5.575-5.575z" fill="#a0002f"/><path d="M1.898 9.707L16 16l6.293-14.102H7.473a5.561 5.561 0 0 0-5.575 5.575z" fill="#c3283a"/></g><path d="M15.86 24.166a.333.333 0 0 1-.18-.164l-.031-.064-.003-.775-.004-.774-.124-.008a6.355 6.355 0 0 1-3.635-1.486l-.149-.126-.535.535c-.604.602-.597.596-.742.596a.333.333 0 0 1-.26-.115.318.318 0 0 1-.1-.245c0-.145-.007-.137.596-.742l.534-.535-.092-.108a6.525 6.525 0 0 1-.974-1.533 6.473 6.473 0 0 1-.546-2.154l-.007-.114-.775-.003-.774-.003-.064-.031a.33.33 0 0 1-.165-.185.323.323 0 0 1-.02-.157c.008-.144.066-.239.185-.297l.064-.031.776-.003.776-.004v-.05c0-.079.032-.373.063-.572a6.42 6.42 0 0 1 1.482-3.203l.072-.082-.534-.536c-.604-.607-.588-.586-.587-.742 0-.073.005-.107.023-.146a.37.37 0 0 1 .17-.174c.054-.026.076-.03.157-.03.157 0 .136-.017.742.587l.535.533.127-.108c.247-.211.58-.45.878-.63.199-.12.662-.346.901-.44a6.332 6.332 0 0 1 1.947-.438h.056l.003-.77.003-.771.03-.063a.386.386 0 0 1 .167-.168c.04-.021.065-.025.153-.025.09 0 .114.004.154.025.074.04.132.098.166.168l.031.063.003.77.003.771h.056a6.332 6.332 0 0 1 1.947.437c.24.095.703.322.901.442.302.182.632.418.878.63l.127.107.53-.528c.604-.604.59-.592.747-.593.081 0 .103.005.157.031a.37.37 0 0 1 .17.174c.018.04.023.073.023.146 0 .156.017.136-.587.742l-.534.535.082.094c.316.362.643.853.87 1.307.37.739.608 1.598.66 2.388l.008.12.775.003.774.003.064.031c.12.059.187.174.187.32 0 .145-.068.26-.187.319l-.064.031-.774.003-.775.003-.008.12a6.391 6.391 0 0 1-1.54 3.707l-.072.081.535.536c.603.605.597.597.596.742 0 .06-.007.098-.024.136a.442.442 0 0 1-.188.192.263.263 0 0 1-.148.032c-.145 0-.138.006-.742-.596l-.535-.534-.149.125a6.363 6.363 0 0 1-3.635 1.486l-.125.008-.003.775-.003.774-.031.064c-.06.12-.175.187-.323.186a.403.403 0 0 1-.136-.022zm-1.257-7.824a1.969 1.969 0 0 0 1.565-1.112c.198-.416.24-.927.113-1.37a1.968 1.968 0 0 0-1.295-1.333 1.646 1.646 0 0 0-.59-.085c-.253 0-.382.019-.588.085a1.978 1.978 0 0 0-1.119.908 1.964 1.964 0 0 0 .032 1.973c.164.27.403.507.674.67.356.213.798.31 1.208.264z" fill="#fff"/></svg>