<svg xmlns="http://www.w3.org/2000/svg" height="32" width="32" version="1"><rect width="28.203" height="28.203" x="1.898" y="1.898" ry="5.575" fill="#a0002f" fill-rule="evenodd"/><g fill-rule="evenodd"><path d="M9.707 30.102L16 16 1.898 9.707v14.82a5.561 5.561 0 0 0 5.575 5.575z" fill="#a0002f"/><path d="M30.102 22.293L16 16 9.707 30.102h14.82a5.561 5.561 0 0 0 5.575-5.575z" fill="#c3283a"/><path d="M22.293 1.898L16 16l14.102 6.293V7.473a5.561 5.561 0 0 0-5.575-5.575z" fill="#a0002f"/><path d="M1.898 9.707L16 16l6.293-14.102H7.473a5.561 5.561 0 0 0-5.575 5.575z" fill="#c3283a"/></g><path d="M12.331 26.245c.044-.046.187-.141.319-.21.228-.12.267-.129.799-.175.679-.06 1.216-.16 1.456-.275.363-.171.578-.48.694-1 .051-.231.064-.491.075-1.6.015-1.363-.037-3.278-.095-3.573-.063-.315-.113-.374-.667-.786-.598-.446-1.318-1.137-1.639-1.575-.579-.79-.902-1.598-1.066-2.67-.044-.291-.06-.607-.06-1.19 0-1.31.12-2.157.684-4.8.204-.957.264-1.163.376-1.286l.07-.078h5.432l.072.078c.103.11.156.3.392 1.39.646 2.981.797 4.463.6 5.883-.25 1.791-1.082 3.068-2.84 4.353-.214.157-.41.326-.436.376-.09.175-.127.475-.16 1.274-.046 1.145-.048 3.52-.002 3.878.104.802.331 1.17.851 1.373.226.088.705.169 1.36.23.489.044.553.058.777.17.135.066.283.16.328.209l.083.088h-7.482z" fill="#fff"/><path d="M12.659 13.68c-.183 5.21 6.292 6.528 6.775.002-1.499 2.161-5.139-2.01-6.775-.003z" fill="#bb002f"/><g transform="matrix(.625 0 0 .625 8.093 8.207)" stroke-width="1.6"><circle cy="23" cx="23" r="8" fill="#fa6257"/><path d="M21.517 26.874c0-.208.03-.383.09-.527a.884.884 0 0 1 .248-.347.986.986 0 0 1 .374-.192 1.727 1.727 0 0 1 .9 0 .919.919 0 0 1 .619.54c.062.143.093.318.093.526 0 .199-.03.369-.093.51a.99.99 0 0 1-.251.351.995.995 0 0 1-.368.202 1.634 1.634 0 0 1-.9 0 .984.984 0 0 1-.374-.202.95.95 0 0 1-.249-.35 1.319 1.319 0 0 1-.089-.51m.219-2.266v-.49c0-.225.023-.429.07-.612.046-.183.116-.357.212-.523.094-.165.217-.327.367-.483.15-.157.331-.32.543-.487.185-.146.342-.276.47-.391a2.04 2.04 0 0 0 .311-.341c.08-.113.137-.23.172-.354.036-.124.054-.268.054-.43a.827.827 0 0 0-.255-.623c-.17-.164-.43-.245-.779-.245-.304 0-.632.064-.983.191-.35.129-.714.285-1.09.47l-.675-1.463a6.92 6.92 0 0 1 1.314-.58c.241-.076.485-.137.732-.181.248-.044.49-.066.73-.066.45 0 .855.054 1.217.162.362.108.67.266.92.473.253.208.446.46.58.755.135.296.202.634.202 1.013 0 .278-.03.527-.092.745a2.243 2.243 0 0 1-.275.61 3.027 3.027 0 0 1-.457.543 9.86 9.86 0 0 1-.64.553 7.66 7.66 0 0 0-.453.38c-.117.109-.209.212-.274.308a.905.905 0 0 0-.136.302 1.632 1.632 0 0 0-.037.367v.397h-1.748z" fill="#fff"/></g></svg>