<svg xmlns="http://www.w3.org/2000/svg" height="32" width="32" version="1"><path d="M6.84 3.032a2.345 2.345 0 0 0-.48.024L4.796 3.3a2.36 2.36 0 0 0-1.254.61 2.41 2.41 0 0 0-.739 2.12l.065.387a2.389 2.389 0 0 0 .045.234 2.389 2.389 0 0 0 0 .002 2.389 2.389 0 0 0 .072.227 2.389 2.389 0 0 0 .092.219 2.389 2.389 0 0 0 .115.209 2.389 2.389 0 0 0 0 .002 2.389 2.389 0 0 0 .135.193 2.389 2.389 0 0 0 .154.184 2.389 2.389 0 0 0 0 .002 2.389 2.389 0 0 0 .174.162 2.389 2.389 0 0 0 0 .002A2.389 2.389 0 0 0 3.842 8a2.389 2.389 0 0 0 .199.131 2.389 2.389 0 0 0 .002 0 2.389 2.389 0 0 0 .21.11 2.389 2.389 0 0 0 .223.083 2.389 2.389 0 0 0 .233.06 2.389 2.389 0 0 0 0 .003 2.389 2.389 0 0 0 .066.017l.203 1.313 1.29-1.406.878-.139c.652-.1 1.2-.454 1.559-.947.36-.494.53-1.125.43-1.778l-.06-.39a2.377 2.377 0 0 0-1.693-1.926c-.043-.013-.086-.027-.13-.037a2.34 2.34 0 0 0-.4-.06c-.005 0-.008-.002-.012-.003z" fill="#febf02" fill-rule="evenodd"/><path d="M20.523 2.894a2.337 2.337 0 0 0-.472.027l-1.541.248a2.327 2.327 0 0 0-1.526.943 2.347 2.347 0 0 0-.416 1.748l.063.383a2.349 2.349 0 0 0 1.89 1.941l.203 1.294 1.258-1.393.87-.14a2.324 2.324 0 0 0 1.527-.938c.35-.487.516-1.11.414-1.752l-.06-.385a2.342 2.342 0 0 0-2.21-1.976z" fill="#fe5ebd" fill-rule="evenodd"/><path d="M29.449 4.532l-6.59 3.56.268.497a.561.561 0 0 1 .035-.018.561.561 0 0 1 .05-.023.561.561 0 0 1 .055-.014.561.561 0 0 1 .002 0 .561.561 0 0 1 .057-.011.561.561 0 0 1 .05-.002.561.561 0 0 1 .057 0 .561.561 0 0 1 .057.005.561.561 0 0 1 .004.002.561.561 0 0 1 .053.014.561.561 0 0 1 .052.016.561.561 0 0 1 .05.025.561.561 0 0 1 .048.027.561.561 0 0 1 .047.032.561.561 0 0 1 .002.004.561.561 0 0 1 .041.037.561.561 0 0 1 .037.039.561.561 0 0 1 .033.043.561.561 0 0 1 .03.047.56.56 0 0 1 .015.037.56.56 0 0 1 .024.05.56.56 0 0 1 0 .002.56.56 0 0 1 .015.053.56.56 0 0 1 0 .004.56.56 0 0 1 .01.055.56.56 0 0 1 .004.055.56.56 0 0 1 0 .054.56.56 0 0 1-.006.055.56.56 0 0 1-.002.002.56.56 0 0 1-.012.053.56.56 0 0 1-.015.052.56.56 0 0 1-.002.004.56.56 0 0 1-.024.051.56.56 0 0 1-.029.045.56.56 0 0 1-.002.002.56.56 0 0 1-.033.045.56.56 0 0 1-.037.04.56.56 0 0 1-.04.038.56.56 0 0 1-.001.002.56.56 0 0 1-.043.033.56.56 0 0 1-.047.03l1.6 2.954a.561.561 0 0 1 .035-.015.561.561 0 0 1 .054-.02.561.561 0 0 1 .053-.017.561.561 0 0 1 .057-.01.561.561 0 0 1 .002 0 .561.561 0 0 1 .052-.004.561.561 0 0 1 .057 0 .561.561 0 0 1 .055.008.561.561 0 0 1 .054.015.561.561 0 0 1 .002 0 .561.561 0 0 1 .053.014.561.561 0 0 1 .05.025.561.561 0 0 1 .05.028.561.561 0 0 1 .043.033.561.561 0 0 1 .043.037.561.561 0 0 1 .039.041.561.561 0 0 1 .002.002.561.561 0 0 1 .03.043.561.561 0 0 1 .034.047.56.56 0 0 1 .016.033.56.56 0 0 1 .021.053.56.56 0 0 1 0 .002.56.56 0 0 1 .016.053.56.56 0 0 1 .006.056.56.56 0 0 1 .002.002.56.56 0 0 1 .008.055.56.56 0 0 1-.002.057.56.56 0 0 1-.006.054.56.56 0 0 1-.014.053.56.56 0 0 1-.021.053.56.56 0 0 1 0 .002.56.56 0 0 1-.022.05.56.56 0 0 1-.025.051.56.56 0 0 1-.034.043.56.56 0 0 1-.037.043.56.56 0 0 1-.04.037.56.56 0 0 1-.046.036.56.56 0 0 1-.046.027l.263.494 4.121-2.228V7.153c0-.967-.308-1.83-.738-2.62zm-.766 1.563a.456.456 0 0 1 0 .002.456.456 0 0 1 .045.004.456.456 0 0 1 .047.004.456.456 0 0 1 0 .002.456.456 0 0 1 .043.011.456.456 0 0 1 .041.018.456.456 0 0 1 .041.02.456.456 0 0 1 .002.001.456.456 0 0 1 .037.024.456.456 0 0 1 .035.03.456.456 0 0 1 0 .001.456.456 0 0 1 .034.03.456.456 0 0 1 .029.034.456.456 0 0 1 0 .002.456.456 0 0 1 .025.038.456.456 0 0 1 .022.039.451.451 0 0 1 .015.033.451.451 0 0 1 .014.043.451.451 0 0 1 .008.04.451.451 0 0 1 .004.046.451.451 0 0 1 0 .002.451.451 0 0 1 .004.045.451.451 0 0 1 0 .002.451.451 0 0 1-.004.04.451.451 0 0 1-.006.044.451.451 0 0 1-.002.003.451.451 0 0 1-.014.043.451.451 0 0 1-.015.041.451.451 0 0 1-.02.04.451.451 0 0 1-.002.003.451.451 0 0 1-.025.038.451.451 0 0 1-.03.033.451.451 0 0 1-.027.033.451.451 0 0 1-.002.002.451.451 0 0 1-.037.021.451.451 0 0 1-.002.002.451.451 0 0 1-.037.026.451.451 0 0 1-.037.021.458.458 0 0 1-.608-.215.451.451 0 0 1-.011-.029.451.451 0 0 1-.016-.043.451.451 0 0 1-.002-.004.451.451 0 0 1-.008-.04.451.451 0 0 1-.004-.046.451.451 0 0 1 0-.002.451.451 0 0 1 0-.04.451.451 0 0 1 .004-.046.451.451 0 0 1 0-.002.451.451 0 0 1 .008-.045.451.451 0 0 1 0-.001.451.451 0 0 1 .014-.042.451.451 0 0 1 .015-.042.451.451 0 0 1 .022-.038.451.451 0 0 1 .021-.039.451.451 0 0 1 .03-.037.451.451 0 0 1 .033-.03.451.451 0 0 1 .033-.028.451.451 0 0 1 .039-.026.451.451 0 0 1 .037-.021.456.456 0 0 1 .03-.014.456.456 0 0 1 .042-.012.456.456 0 0 1 .045-.013.456.456 0 0 1 .002 0 .456.456 0 0 1 .041-.004.456.456 0 0 1 .047-.002zm-1.642.775a.456.456 0 0 1 0 .002.456.456 0 0 1 .04.004.456.456 0 0 1 .048.002.456.456 0 0 1 0 .002.456.456 0 0 1 .045.012.456.456 0 0 1 .002.002.456.456 0 0 1 .04.015.456.456 0 0 1 .04.022.456.456 0 0 1 .037.025.456.456 0 0 1 .037.026.456.456 0 0 1 .002.003.456.456 0 0 1 .033.03.456.456 0 0 1 .03.035.456.456 0 0 1 0 .004.456.456 0 0 1 .025.037.456.456 0 0 1 .021.039.451.451 0 0 1 .012.033.451.451 0 0 1 .014.041.451.451 0 0 1 .011.043.451.451 0 0 1 .004.045.451.451 0 0 1 0 .002.451.451 0 0 1 0 .045.451.451 0 0 1-.004.043.451.451 0 0 1-.006.043.451.451 0 0 1-.002.004.451.451 0 0 1-.013.04.451.451 0 0 1-.014.042.451.451 0 0 1-.002.002.451.451 0 0 1-.02.039.451.451 0 0 1-.001.002.451.451 0 0 1-.024.037.451.451 0 0 1-.002.002.451.451 0 0 1-.025.033.451.451 0 0 1-.031.031.451.451 0 0 1-.002.002.451.451 0 0 1-.034.026.451.451 0 0 1-.037.023.451.451 0 0 1-.002.002.451.451 0 0 1-.039.02.451.451 0 0 1-.002.002.453.453 0 0 1-.603-.215.451.451 0 0 1-.016-.03.451.451 0 0 1-.011-.044.451.451 0 0 1-.002-.002.451.451 0 0 1-.008-.041.451.451 0 0 1-.006-.045.451.451 0 0 1-.002-.002.451.451 0 0 1 0-.043.451.451 0 0 1 .004-.045.451.451 0 0 1 .008-.045.451.451 0 0 1 0-.002.451.451 0 0 1 .013-.043.451.451 0 0 1 .016-.041.451.451 0 0 1 .021-.04.451.451 0 0 1 .026-.036.451.451 0 0 1 .029-.033.451.451 0 0 1 .03-.034.451.451 0 0 1 .033-.03.451.451 0 0 1 .039-.026.451.451 0 0 1 .04-.02.456.456 0 0 1 .026-.013.456.456 0 0 1 .045-.012.456.456 0 0 1 .002 0 .456.456 0 0 1 .043-.014.456.456 0 0 1 .045-.004.456.456 0 0 1 .047-.002zm-1.768.584a.561.561 0 0 1 .057.002.561.561 0 0 1 0 .002.561.561 0 0 1 .056.004.561.561 0 0 1 .002.002.561.561 0 0 1 .053.014.561.561 0 0 1 .051.02.561.561 0 0 1 .05.02.561.561 0 0 1 .052.024.561.561 0 0 1 0 .002.561.561 0 0 1 .044.033.561.561 0 0 1 .002.002.561.561 0 0 1 .043.035.561.561 0 0 1 0 .002.561.561 0 0 1 .038.041.561.561 0 0 1 .03.045.561.561 0 0 1 .032.045.561.561 0 0 1 0 .002.56.56 0 0 1 .016.04.56.56 0 0 1 .021.048.56.56 0 0 1 .016.053.56.56 0 0 1 0 .004.56.56 0 0 1 .01.054.56.56 0 0 1 0 .002.56.56 0 0 1 .005.051.56.56 0 0 1-.002.055.56.56 0 0 1-.002.002.56.56 0 0 1-.005.054.56.56 0 0 1-.002.002.56.56 0 0 1-.006.055.56.56 0 0 1 0 .004.56.56 0 0 1-.022.05.56.56 0 0 1-.021.052.56.56 0 0 1-.03.046.56.56 0 0 1 0 .002.56.56 0 0 1-.033.043.56.56 0 0 1-.037.041.56.56 0 0 1-.04.037.56.56 0 0 1-.046.036.56.56 0 0 1 0 .002.56.56 0 0 1-.047.025.561.561 0 0 1-.033.018.561.561 0 0 1-.055.017.561.561 0 0 1 0 .002.561.561 0 0 1-.052.018.561.561 0 0 1-.055.013.561.561 0 0 1-.057 0 .561.561 0 0 1-.056 0 .561.561 0 0 1-.055-.008.561.561 0 0 1-.055-.01.561.561 0 0 1-.054-.019.561.561 0 0 1-.002 0 .561.561 0 0 1-.051-.021.561.561 0 0 1-.049-.032.561.561 0 0 1-.043-.03.561.561 0 0 1-.043-.038.561.561 0 0 1-.035-.039.561.561 0 0 1-.035-.045.561.561 0 0 1-.002-.004.561.561 0 0 1-.026-.045.56.56 0 0 1-.021-.039.56.56 0 0 1-.022-.05.56.56 0 0 1-.011-.053.56.56 0 0 1-.012-.055.56.56 0 0 1-.004-.057.56.56 0 0 1 0-.002.56.56 0 0 1-.002-.056.56.56 0 0 1 .01-.053.56.56 0 0 1 .012-.055.56.56 0 0 1 .017-.052.56.56 0 0 1 .022-.051.56.56 0 0 1 .03-.047.56.56 0 0 1 .032-.049.56.56 0 0 1 .035-.043.56.56 0 0 1 .043-.037.56.56 0 0 1 .047-.03.56.56 0 0 1 .047-.032.561.561 0 0 1 .033-.016.561.561 0 0 1 .051-.022.561.561 0 0 1 .055-.015.561.561 0 0 1 .002 0 .561.561 0 0 1 .054-.008.561.561 0 0 1 .055-.008zm3.295 2.69A.456.456 0 0 1 29 10.4a.451.451 0 0 1 .011.03.451.451 0 0 1 .018.04.451.451 0 0 1 .008.044.451.451 0 0 1 0 .004.451.451 0 0 1 .004.045.451.451 0 0 1 0 .002.451.451 0 0 1 0 .04.451.451 0 0 1 0 .046.451.451 0 0 1 0 .002.451.451 0 0 1-.008.043.451.451 0 0 1-.012.042.451.451 0 0 1-.002.002.451.451 0 0 1-.013.041.451.451 0 0 1-.002.002.451.451 0 0 1-.022.038.451.451 0 0 1-.023.037.451.451 0 0 1-.002.002.451.451 0 0 1-.03.033.451.451 0 0 1-.03.031.451.451 0 0 1-.003.002.451.451 0 0 1-.033.028.451.451 0 0 1-.002.002.451.451 0 0 1-.037.025.451.451 0 0 1-.037.021.458.458 0 0 1-.608-.214.451.451 0 0 1-.011-.034.451.451 0 0 1-.016-.043.451.451 0 0 1-.002 0 .451.451 0 0 1-.008-.04.451.451 0 0 1-.004-.046.451.451 0 0 1 0-.002.451.451 0 0 1-.004-.044.451.451 0 0 1-.002-.002.451.451 0 0 1 .006-.045.451.451 0 0 1 .008-.043.451.451 0 0 1 .012-.041.451.451 0 0 1 .017-.043.451.451 0 0 1 .022-.041.451.451 0 0 1 0-.002.451.451 0 0 1 .025-.037.451.451 0 0 1 .03-.034.451.451 0 0 1 .029-.033.451.451 0 0 1 .037-.025.451.451 0 0 1 .039-.026.451.451 0 0 1 .037-.021.457.457 0 0 1 .176-.043zm-1.642.773c.177-.007.35.09.431.26a.451.451 0 0 1 .012.03.451.451 0 0 1 .014.042.451.451 0 0 1 0 .002.451.451 0 0 1 .007.043.451.451 0 0 1 .008.043.451.451 0 0 1 0 .004.451.451 0 0 1 0 .041.451.451 0 0 1-.002.045.451.451 0 0 1-.002.002.451.451 0 0 1-.006.043.451.451 0 0 1-.002.004.451.451 0 0 1-.013.04.451.451 0 0 1-.014.042.451.451 0 0 1-.002.002.451.451 0 0 1-.022.037.451.451 0 0 1-.023.037.451.451 0 0 1-.002.002.451.451 0 0 1-.027.035.451.451 0 0 1-.002.002.451.451 0 0 1-.03.03.451.451 0 0 1-.033.029.451.451 0 0 1-.037.023.451.451 0 0 1-.002.002.451.451 0 0 1-.039.02.451.451 0 0 1-.002.002.458.458 0 0 1-.607-.215.451.451 0 0 1-.012-.033.451.451 0 0 1-.014-.043.451.451 0 0 1-.012-.041.451.451 0 0 1-.003-.045.451.451 0 0 1-.002-.002.451.451 0 0 1 0-.047.451.451 0 0 1 .005-.041.451.451 0 0 1 .008-.045.451.451 0 0 1 0-.002.451.451 0 0 1 .012-.043.451.451 0 0 1 .018-.041.451.451 0 0 1 .021-.041.451.451 0 0 1 0-.002.451.451 0 0 1 .025-.037.451.451 0 0 1 .026-.035.451.451 0 0 1 .033-.033.451.451 0 0 1 .033-.026.451.451 0 0 1 .04-.025.451.451 0 0 1 .04-.02.46.46 0 0 1 .176-.045z" fill="#ff8900" fill-rule="evenodd"/><path d="M15.267 1.58a1.17 1.17 0 0 0-.043.029 1.17 1.17 0 0 0-.091.068 1.17 1.17 0 0 0-.002.002 1.17 1.17 0 0 0-.084.08 1.17 1.17 0 0 0-.075.088 1.17 1.17 0 0 0-.002.002 1.17 1.17 0 0 0-.066.095 1.17 1.17 0 0 0-.03.047c-.16.284-.189.607-.109.899.08.292.27.554.551.715.282.16.602.19.89.109a1.189 1.189 0 0 0 .818-1.453 1.17 1.17 0 0 0-.526-.682z" fill="#9c00fe" fill-rule="evenodd"/><path d="M9.717 1.58H7.558a5.561 5.561 0 0 0-5.574 5.573v5.864l.858-.81a.56.56 0 0 0 .037.036.56.56 0 0 1 .002 0 .56.56 0 0 0 .045.033.56.56 0 0 1 .001 0 .56.56 0 0 0 .045.032.56.56 0 0 0 .051.023.56.56 0 0 0 .049.022.56.56 0 0 0 .004 0 .56.56 0 0 0 .053.013.56.56 0 0 0 .054.008.56.56 0 0 0 .055.004.56.56 0 0 0 .004 0 .56.56 0 0 0 .055 0 .56.56 0 0 0 .054-.008.56.56 0 0 1 .002-.002.56.56 0 0 0 .053-.011.56.56 0 0 0 .05-.02.56.56 0 0 0 .052-.021.56.56 0 0 1 .002-.002.56.56 0 0 0 .046-.028.56.56 0 0 0 .043-.033.56.56 0 0 0 .034-.025.561.561 0 0 1 .002-.002.561.561 0 0 0 .037-.041.561.561 0 0 0 .033-.043.561.561 0 0 1 .002-.002.561.561 0 0 0 .027-.047.561.561 0 0 1 .002-.002.561.561 0 0 0 .024-.05.561.561 0 0 0 .021-.05.561.561 0 0 0 .012-.055.561.561 0 0 0 .01-.054.561.561 0 0 0 .003-.055.561.561 0 0 0 .002-.004.561.561 0 0 0-.002-.055.561.561 0 0 0-.01-.054.561.561 0 0 1 0-.002.561.561 0 0 0-.011-.055.561.561 0 0 0-.022-.049.561.561 0 0 0-.021-.05.561.561 0 0 0 0-.004.561.561 0 0 0-.03-.047.561.561 0 0 1 0-.002.561.561 0 0 0-.033-.045.561.561 0 0 0-.025-.03l.404-.382 6.166 6.52-.408.382a.56.56 0 0 0-.039-.04.56.56 0 0 0-.045-.032.56.56 0 0 0-.047-.03.56.56 0 0 1 0-.002.56.56 0 0 0-.05-.023.56.56 0 0 0-.051-.021.56.56 0 0 0-.055-.012.56.56 0 0 0-.055-.008.56.56 0 0 1-.002-.002.56.56 0 0 0-.056-.006.56.56 0 0 0-.055 0 .56.56 0 0 0-.055.012.56.56 0 0 0-.054.012.56.56 0 0 0-.051.021.56.56 0 0 1-.002 0 .56.56 0 0 0-.053.021.56.56 0 0 0-.047.03.56.56 0 0 0-.047.033.56.56 0 0 0-.029.025.561.561 0 0 0-.037.043.561.561 0 0 0-.033.041.561.561 0 0 1 0 .002.561.561 0 0 0-.03.05.561.561 0 0 0-.025.05.561.561 0 0 0-.021.05.561.561 0 0 0-.014.055.561.561 0 0 0-.012.055.561.561 0 0 0 0 .055.561.561 0 0 1 0 .002.561.561 0 0 0 0 .056.561.561 0 0 0 .008.055.561.561 0 0 0 .014.055.561.561 0 0 0 .015.05.561.561 0 0 1 .002.003.561.561 0 0 0 .024.052.561.561 0 0 0 .03.047.561.561 0 0 1 .001 0 .561.561 0 0 0 .031.047.561.561 0 0 0 .026.03l-2.442 2.31a.56.56 0 0 0-.039-.037.56.56 0 0 0-.045-.033.56.56 0 0 0-.047-.03.56.56 0 0 1 0-.002.56.56 0 0 0-.05-.023.56.56 0 0 0-.051-.022.56.56 0 0 1 0-.002.56.56 0 0 0-.055-.015.56.56 0 0 0-.055-.008.56.56 0 0 1-.001-.002.56.56 0 0 0-.057-.002.56.56 0 0 0-.055.004.56.56 0 0 0-.054.008.56.56 0 0 0-.055.013.56.56 0 0 0-.05.016.56.56 0 0 0-.052.025.56.56 0 0 1-.002 0 .56.56 0 0 0-.049.03.56.56 0 0 0-.044.035.56.56 0 0 0-.032.025.561.561 0 0 0-.037.041.561.561 0 0 0-.033.043.561.561 0 0 0-.03.045.561.561 0 0 0-.025.05.561.561 0 0 1 0 .003.561.561 0 0 0-.021.053.561.561 0 0 0-.014.054.561.561 0 0 0-.012.055.561.561 0 0 0 0 .055.561.561 0 0 0 0 .054.561.561 0 0 0 .002.004.561.561 0 0 0 .006.057.561.561 0 0 0 .014.055.561.561 0 0 0 .016.048.561.561 0 0 1 .002 0 .561.561 0 0 0 .023.051.561.561 0 0 1 .002.002.561.561 0 0 0 .027.05.561.561 0 0 0 .035.042.561.561 0 0 0 .026.03l-.41.386-3.354-3.549v5.56c0 2.462 1.604 4.479 3.809 5.221.15-.289.36-.602.715-.92.419-.375.951-.736 1.53-1.003.872-.402 1.833-.586 2.532-.553.233.011.436.046.598.105.415.152.675.78.625 1.463a.53.53 0 0 1-.018.121c-.008.023-.024.029-.13.034-.215.013-.455.033-.872.064-.242.019-.405.03-.523.037-.142.008-.14.01-.19-.101l-.185-.405-.125-.273-.295.055a4.335 4.335 0 0 0-.203.043 4.335 4.335 0 0 0-.412.117 4.335 4.335 0 0 1-.002 0 4.335 4.335 0 0 0-.403.164 4.343 4.343 0 0 0-.185.09 4.343 4.343 0 0 0-.375.222 4.343 4.343 0 0 0-.35.256l-.234.19.125.273.168.377h4.357a.882.882 0 0 1-.002-.031.882.882 0 0 0 .002-.002.882.882 0 0 1 .006-.088.882.882 0 0 1 .012-.084.882.882 0 0 1 .002-.004.882.882 0 0 1 .02-.084.882.882 0 0 1 .034-.08.882.882 0 0 1 .038-.08.882.882 0 0 0 .002-.002.882.882 0 0 1 .044-.074.882.882 0 0 1 .055-.067.882.882 0 0 0 .002-.002.882.882 0 0 1 .057-.066.888.888 0 0 1 1.254.025.883.883 0 0 1 .043.05.883.883 0 0 0 .002.003.883.883 0 0 1 .052.07.883.883 0 0 0 .002 0 .883.883 0 0 1 .045.076.883.883 0 0 1 .037.08.883.883 0 0 1 .03.079.883.883 0 0 1 .002.004.883.883 0 0 1 .02.085.883.883 0 0 1 .013.084.883.883 0 0 1 .004.088.883.883 0 0 1-.002.02h2.336l-1.561-1.619a.883.883 0 0 1-.045-.047.883.883 0 0 1-.05-.07.883.883 0 0 0 0-.002.883.883 0 0 1-.048-.074.883.883 0 0 1-.037-.08.883.883 0 0 0 0-.002.883.883 0 0 1-.029-.082.883.883 0 0 1-.021-.084.883.883 0 0 1 0-.004.883.883 0 0 1-.014-.086.883.883 0 0 1-.004-.088.883.883 0 0 1 .004-.088.883.883 0 0 1 .014-.084.883.883 0 0 1 .002-.006.883.883 0 0 1 .023-.084.883.883 0 0 1 .03-.08.883.883 0 0 1 .036-.08.883.883 0 0 1 .047-.074.883.883 0 0 1 .055-.068.883.883 0 0 1 .002-.004.883.883 0 0 1 .06-.063.889.889 0 0 1 .043-.039.889.889 0 0 0 .002-.002.889.889 0 0 1 .07-.053.889.889 0 0 1 .075-.047.889.889 0 0 1 .08-.037.889.889 0 0 0 .002 0 .889.889 0 0 1 .082-.029.889.889 0 0 1 .086-.021.889.889 0 0 1 .088-.012.889.889 0 0 1 .088-.006.889.889 0 0 1 .088.004.889.889 0 0 1 .004 0 .889.889 0 0 1 .086.014.889.889 0 0 1 .084.021.889.889 0 0 0 .002 0 .889.889 0 0 1 .082.033.889.889 0 0 1 .08.037.889.889 0 0 0 .002 0 .889.889 0 0 1 .074.047.889.889 0 0 0 .002 0 .889.889 0 0 1 .068.055.889.889 0 0 1 .065.058.883.883 0 0 1 .045.051.883.883 0 0 0 .002 0 .883.883 0 0 1 .048.072.883.883 0 0 0 .002 0 .883.883 0 0 1 .045.077.883.883 0 0 1 .037.08.883.883 0 0 1 .032.08.883.883 0 0 0 .002 0 .883.883 0 0 1 .017.088.883.883 0 0 1 .014.084.883.883 0 0 1 .004.088.883.883 0 0 1-.004.09.883.883 0 0 1-.014.087.883.883 0 0 1-.025.084.883.883 0 0 1-.03.084.883.883 0 0 1-.037.08.883.883 0 0 1-.046.073.883.883 0 0 1-.055.07.883.883 0 0 1-.063.064.884.884 0 0 1-.029.03.884.884 0 0 1-.068.054.884.884 0 0 1-.076.047.884.884 0 0 1-.075.037.884.884 0 0 0-.002 0 .884.884 0 0 1-.084.034.884.884 0 0 1-.084.025.884.884 0 0 1-.087.014l1.304 1.353h2.727l-.315-.24a.92.92 0 0 1-.059-.047.92.92 0 0 1-.062-.066.92.92 0 0 0 0-.002.92.92 0 0 1-.059-.07.92.92 0 0 1-.05-.077.92.92 0 0 0 0-.002.92.92 0 0 1-.047-.078.92.92 0 0 1-.034-.084.92.92 0 0 1-.025-.088.92.92 0 0 1 0-.004.92.92 0 0 1-.022-.087.92.92 0 0 1-.003-.09.92.92 0 0 1 0-.092.92.92 0 0 1 0-.004.92.92 0 0 1 .007-.09.92.92 0 0 1 .022-.088.92.92 0 0 1 .025-.088.92.92 0 0 1 .037-.084.92.92 0 0 0 .002-.002.92.92 0 0 1 .045-.078.92.92 0 0 1 .051-.076l.74-.96-1.957-.122a.25.25 0 0 1-.181-.404l2.152-2.793a.252.252 0 0 1 .242-.096.25.25 0 0 1 .2.168l.624 1.85.74-.961a.933.933 0 0 1 1.305-.172l3.336 2.547a.92.92 0 0 1 .059.047.92.92 0 0 0 .002 0 .92.92 0 0 1 .062.066.92.92 0 0 0 .002 0 .92.92 0 0 1 .057.072.92.92 0 0 1 .05.076.92.92 0 0 1 .046.08.92.92 0 0 1 .035.085.92.92 0 0 1 .025.087.92.92 0 0 0 .002.002.92.92 0 0 1 .014.092.92.92 0 0 1 .01.088.92.92 0 0 1 0 .092.92.92 0 0 0 0 .002.92.92 0 0 1-.01.092.92.92 0 0 1-.022.088.92.92 0 0 1-.023.088.92.92 0 0 1-.04.083.92.92 0 0 1-.046.08.92.92 0 0 1-.05.077l-.798 1.033c2.717-.377 4.83-2.602 4.83-5.426V11.78l-4.12 2.229-.265-.494a.56.56 0 0 0 .047-.028.56.56 0 0 0 .045-.035.56.56 0 0 0 .041-.037.56.56 0 0 0 .037-.043.56.56 0 0 0 .034-.043.56.56 0 0 0 .025-.05.56.56 0 0 0 .021-.051.56.56 0 0 1 0-.002.56.56 0 0 0 .022-.053.56.56 0 0 0 .014-.053.56.56 0 0 0 .006-.054.56.56 0 0 0 .002-.057.56.56 0 0 0-.008-.055.56.56 0 0 1-.002-.002.56.56 0 0 0-.006-.056.56.56 0 0 0-.016-.053.56.56 0 0 1 0-.002.56.56 0 0 0-.021-.053.56.56 0 0 0-.016-.033.561.561 0 0 0-.033-.047.561.561 0 0 0-.031-.043.561.561 0 0 1-.002-.002.561.561 0 0 0-.04-.041.561.561 0 0 0-.042-.037.561.561 0 0 0-.043-.033.561.561 0 0 0-.05-.028.561.561 0 0 0-.05-.025.561.561 0 0 0-.053-.014.561.561 0 0 1-.002 0 .561.561 0 0 0-.054-.015.561.561 0 0 0-.055-.008.561.561 0 0 0-.057 0 .561.561 0 0 0-.052.004.561.561 0 0 1-.002 0 .561.561 0 0 0-.057.01.561.561 0 0 0-.053.017.561.561 0 0 0-.055.02.561.561 0 0 0-.035.015l-1.6-2.955a.56.56 0 0 0 .048-.03.56.56 0 0 0 .043-.032.56.56 0 0 1 .002-.002.56.56 0 0 0 .039-.037.56.56 0 0 0 .037-.041.56.56 0 0 0 .033-.045.56.56 0 0 1 .002-.002.56.56 0 0 0 .03-.045.56.56 0 0 0 .023-.05.56.56 0 0 0 .002-.005.56.56 0 0 0 .015-.053.56.56 0 0 0 .012-.052.56.56 0 0 1 .002-.002.56.56 0 0 0 .006-.055.56.56 0 0 0 0-.055.56.56 0 0 0-.004-.054.56.56 0 0 0-.01-.055.56.56 0 0 0 0-.004.56.56 0 0 0-.015-.053.56.56 0 0 1 0-.002.56.56 0 0 0-.024-.05.56.56 0 0 0-.015-.037.561.561 0 0 0-.03-.047.561.561 0 0 0-.033-.043.561.561 0 0 0-.037-.04.561.561 0 0 0-.041-.036.561.561 0 0 0-.002-.004.561.561 0 0 0-.047-.032.561.561 0 0 0-.049-.027.561.561 0 0 0-.049-.025.561.561 0 0 0-.052-.016.561.561 0 0 0-.053-.014.561.561 0 0 0-.004-.002.561.561 0 0 0-.057-.006.561.561 0 0 0-.056 0 .561.561 0 0 0-.051.002.561.561 0 0 0-.057.012.561.561 0 0 1-.002 0 .561.561 0 0 0-.054.014.561.561 0 0 0-.051.023.561.561 0 0 0-.035.018l-.268-.496 6.59-3.56c-.943-1.736-2.716-2.954-4.838-2.954h-8.113c.262.162.452.403.527.682a1.189 1.189 0 0 1-.818 1.453c-.289.081-.61.052-.89-.11a1.176 1.176 0 0 1-.552-.714c-.08-.292-.05-.615.11-.899a1.17 1.17 0 0 1 .03-.047 1.17 1.17 0 0 1 .065-.095 1.17 1.17 0 0 0 .002-.002 1.17 1.17 0 0 1 .075-.088 1.17 1.17 0 0 1 .084-.08 1.17 1.17 0 0 0 .002-.002 1.17 1.17 0 0 1 .091-.068 1.17 1.17 0 0 1 .043-.03h-3.394l-.95 1.684 3.467 1.984a1.176 1.176 0 0 1 .442 1.608 1.166 1.166 0 0 1-1.6.443 1.188 1.188 0 0 1-.438-1.61 1.17 1.17 0 0 1 .026-.046 1.17 1.17 0 0 1 .066-.096 1.17 1.17 0 0 0 .002-.002 1.17 1.17 0 0 1 .075-.088 1.17 1.17 0 0 1 .084-.08 1.17 1.17 0 0 0 .002-.002 1.17 1.17 0 0 1 .091-.068 1.17 1.17 0 0 0 .002-.002 1.17 1.17 0 0 1 .098-.063 1.17 1.17 0 0 1 .102-.054L9.062 2.74l.115-.203zm14.73.45a.76.76 0 0 1 .824.678l.04.375.118 1.215a.463.463 0 0 1 .004.043.463.463 0 0 1 0 .047.463.463 0 0 1-.007.04.463.463 0 0 0 0 .003.463.463 0 0 1-.014.045.463.463 0 0 1-.012.043.463.463 0 0 1-.021.04.463.463 0 0 1-.022.044.463.463 0 0 1-.03.037.463.463 0 0 1-.028.033.463.463 0 0 1-.034.03.463.463 0 0 0-.002.001.463.463 0 0 1-.037.03.463.463 0 0 1-.04.02.463.463 0 0 1-.044.02.463.463 0 0 1-.04.018.463.463 0 0 1-.048.008.463.463 0 0 1-.046.008.473.473 0 0 1-.514-.424l-.129-1.31a.186.186 0 0 1-.006-.018.186.186 0 0 1 .006-.016.186.186 0 0 1 0-.004.186.186 0 0 1 0-.017.186.186 0 0 1 .004-.018.186.186 0 0 1 .008-.016.186.186 0 0 1 .004-.017.186.186 0 0 0 .002-.002.186.186 0 0 1 .011-.014.186.186 0 0 1 .008-.013.186.186 0 0 1 .002-.004.186.186 0 0 1 .012-.014.186.186 0 0 1 .012-.012.186.186 0 0 0 .002-.002.186.186 0 0 1 .015-.006.186.186 0 0 1 .016-.01.186.186 0 0 0 .002-.001.186.186 0 0 1 .015-.006.186.186 0 0 1 .016-.008.186.186 0 0 1 .018-.004.186.186 0 0 1 .004-.002.186.186 0 0 1 .017.002.19.19 0 0 1 .008-.006.19.19 0 0 1 .004-.002.19.19 0 0 1 .017.002.19.19 0 0 1 .018.006.19.19 0 0 0 .002 0 .19.19 0 0 1 .018.004.19.19 0 0 1 .017.004.19.19 0 0 1 .018.008.19.19 0 0 1 .015.01.19.19 0 0 0 .002 0 .19.19 0 0 1 .016.011.19.19 0 0 1 .012.014.19.19 0 0 1 .013.012.19.19 0 0 0 .002 0 .19.19 0 0 1 .01.017.19.19 0 0 1 .01.016.19.19 0 0 1 .008.017.19.19 0 0 1 .008.018.19.19 0 0 1 .005.016.19.19 0 0 0 .002.002.19.19 0 0 1 .002.02l.131 1.31a.094.094 0 0 0 0 .008.094.094 0 0 0 .004.007.094.094 0 0 0 0 .008.094.094 0 0 1 .002 0 .094.094 0 0 0 .002.01.094.094 0 0 0 .004.008.094.094 0 0 0 .004.002.094.094 0 0 0 .006.006.094.094 0 0 0 .004.005.094.094 0 0 1 .002 0 .094.094 0 0 0 .006.008.094.094 0 0 0 .008.004.094.094 0 0 1 .002 0 .094.094 0 0 0 .007.004.094.094 0 0 1 .002 0 .094.094 0 0 0 .006.006.094.094 0 0 0 .008.004.094.094 0 0 1 .002 0 .094.094 0 0 0 .008.004.094.094 0 0 0 .008 0 .094.094 0 0 0 .007 0 .094.094 0 0 1 .002 0 .094.094 0 0 0 .008 0 .091.091 0 0 0 .004 0 .091.091 0 0 0 .008 0 .091.091 0 0 0 .008-.004.091.091 0 0 1 .002-.002.091.091 0 0 0 .008-.002.091.091 0 0 0 .007 0 .091.091 0 0 1 .002-.002.091.091 0 0 0 .006-.004.091.091 0 0 0 .004-.008.091.091 0 0 1 .002-.002.091.091 0 0 0 .008-.002.091.091 0 0 1 .002-.002.091.091 0 0 0 .002-.007.091.091 0 0 1 .002-.002.091.091 0 0 0 .006-.006.091.091 0 0 0 .004-.004.091.091 0 0 1 .002-.002.091.091 0 0 0 .004-.006.091.091 0 0 1 .002-.002.091.091 0 0 0 .002-.008.091.091 0 0 0 0-.008.091.091 0 0 0 0-.003.091.091 0 0 0 0-.008.091.091 0 0 1 .002-.002.091.091 0 0 0 .002-.008.091.091 0 0 0-.004-.008l-.125-1.217-.037-.37a.38.38 0 0 0 0-.022.38.38 0 0 0-.008-.037.38.38 0 0 0 0-.004.38.38 0 0 0-.013-.035.38.38 0 0 0-.016-.034.38.38 0 0 0-.017-.033.38.38 0 0 0-.022-.03.38.38 0 0 1 0-.001.38.38 0 0 0-.025-.027.38.38 0 0 1 0-.002.38.38 0 0 0-.03-.024.38.38 0 0 1 0-.002.38.38 0 0 0-.029-.023.38.38 0 0 0-.03-.022.38.38 0 0 0-.003-.004.38.38 0 0 0-.035-.013.38.38 0 0 0-.033-.012.38.38 0 0 0-.038-.008.38.38 0 0 1-.002-.002.38.38 0 0 0-.037-.008.38.38 0 0 0-.037 0 .38.38 0 0 0-.037 0 .372.372 0 0 0-.031.006.372.372 0 0 0-.033.008.372.372 0 0 0-.037.012.372.372 0 0 0-.034.014.372.372 0 0 0-.03.021.372.372 0 0 0-.034.02.372.372 0 0 0-.026.025.372.372 0 0 0-.025.025.372.372 0 0 0-.025.03.372.372 0 0 0-.016.035.372.372 0 0 0-.018.033.372.372 0 0 0-.011.033.372.372 0 0 1 0 .002.372.372 0 0 0-.01.037.372.372 0 0 0-.008.033.372.372 0 0 0 0 .038.372.372 0 0 1 0 .001.372.372 0 0 0 0 .038l.127 1.212.037.375a.664.664 0 0 0 .72.594.65.65 0 0 0 .056-.01.65.65 0 0 0 .062-.011.65.65 0 0 0 .059-.022.65.65 0 0 1 .002-.002.65.65 0 0 0 .058-.023.65.65 0 0 1 .002-.002.65.65 0 0 0 .057-.031.65.65 0 0 0 .05-.04.65.65 0 0 1 .003-.001.65.65 0 0 0 .049-.04.65.65 0 0 1 0-.001.65.65 0 0 0 .04-.05.65.65 0 0 1 .003-.001.65.65 0 0 0 .04-.049.65.65 0 0 0 .034-.055.65.65 0 0 0 .025-.058.65.65 0 0 0 .026-.059.65.65 0 0 1 .002-.002.65.65 0 0 0 .013-.062.65.65 0 0 0 .002-.004.65.65 0 0 0 .008-.063.65.65 0 0 0 .004-.064.65.65 0 0 0-.004-.063l-.135-1.308a.186.186 0 0 1 0-.018.186.186 0 0 1 0-.017.186.186 0 0 1 .004-.016.186.186 0 0 1 .002-.004.186.186 0 0 1 .002-.018.186.186 0 0 1 .004-.017.186.186 0 0 1 .01-.016.186.186 0 0 0 .002-.002.186.186 0 0 1 .006-.015.186.186 0 0 1 .011-.012.186.186 0 0 1 .004-.004.186.186 0 0 1 .01-.014.186.186 0 0 1 .012-.013.186.186 0 0 0 .002-.002.186.186 0 0 1 .015-.006.186.186 0 0 0 .002-.002.186.186 0 0 1 .016-.006.186.186 0 0 1 .016-.01.186.186 0 0 0 .002-.002.186.186 0 0 1 .015-.005.186.186 0 0 1 .018-.004.186.186 0 0 1 .015 0 .19.19 0 0 1 .014-.004.19.19 0 0 1 .016 0 .19.19 0 0 1 .004 0 .19.19 0 0 1 .017.004.19.19 0 0 1 .018.004.19.19 0 0 1 .004 0 .19.19 0 0 1 .017.003.19.19 0 0 1 .016.01.19.19 0 0 0 .002 0 .19.19 0 0 1 .016.008.19.19 0 0 1 .011.014.19.19 0 0 0 .002 0 .19.19 0 0 1 .016.011.19.19 0 0 1 .012.014.19.19 0 0 0 .002 0 .19.19 0 0 1 .011.016.19.19 0 0 0 .002 0 .19.19 0 0 1 .006.017.19.19 0 0 1 .01.016.19.19 0 0 0 .002 0 .19.19 0 0 1 .006.018.19.19 0 0 1 .004.017.19.19 0 0 1 0 .02l.135 1.306a1.026 1.026 0 0 1-1.684.889 1.041 1.041 0 0 1-.375-.7l-.04-.374-.12-1.213a.743.743 0 0 1-.004-.063.743.743 0 0 1 0-.072.743.743 0 0 1 .002-.004.743.743 0 0 1 .01-.072.743.743 0 0 1 .017-.07.743.743 0 0 0 .002-.002.743.743 0 0 1 .018-.07.743.743 0 0 1 .002-.005.743.743 0 0 1 .033-.064.743.743 0 0 1 .037-.063.743.743 0 0 1 .043-.058.743.743 0 0 0 .002-.002.743.743 0 0 1 .049-.053.743.743 0 0 0 .002-.002.743.743 0 0 1 .053-.049.743.743 0 0 0 .002-.002.743.743 0 0 1 .056-.044.743.743 0 0 1 .063-.038.743.743 0 0 1 .068-.029.743.743 0 0 0 .002-.002.743.743 0 0 1 .069-.023.743.743 0 0 1 .072-.018.743.743 0 0 1 .072-.012zm-3.924.864a2.342 2.342 0 0 1 2.209 1.977l.06.384a2.356 2.356 0 0 1-.413 1.752 2.324 2.324 0 0 1-1.528.937l-.869.141-1.258 1.393-.203-1.293a2.349 2.349 0 0 1-1.89-1.942l-.063-.383a2.347 2.347 0 0 1 .416-1.748c.351-.487.885-.84 1.526-.943l1.54-.248c.16-.026.318-.034.473-.027zM6.84 3.032l.011.002c.137.008.27.03.4.06.045.011.088.025.132.038.07.02.137.045.205.072.191.076.376.17.54.291a2.406 2.406 0 0 1 .948 1.563l.059.39c.1.653-.07 1.284-.43 1.778-.36.493-.907.846-1.559.947l-.879.139-1.289 1.406-.203-1.313a2.389 2.389 0 0 1-.066-.017 2.389 2.389 0 0 0 0-.002 2.389 2.389 0 0 1-.233-.06 2.389 2.389 0 0 1-.222-.085 2.389 2.389 0 0 1-.211-.109 2.389 2.389 0 0 0-.002 0 2.389 2.389 0 0 1-.2-.13 2.389 2.389 0 0 1-.185-.15 2.389 2.389 0 0 0 0-.001 2.389 2.389 0 0 1-.174-.162 2.389 2.389 0 0 0 0-.002 2.389 2.389 0 0 1-.154-.184 2.389 2.389 0 0 1-.135-.193 2.389 2.389 0 0 0 0-.002 2.389 2.389 0 0 1-.115-.21 2.389 2.389 0 0 1-.092-.218 2.389 2.389 0 0 1-.072-.227 2.389 2.389 0 0 0 0-.001 2.389 2.389 0 0 1-.045-.235l-.065-.387a2.392 2.392 0 0 1 .739-2.12 2.382 2.382 0 0 1 1.254-.61l1.562-.244c.162-.025.323-.032.48-.024zm-.36 19.256l.324.215-.455.691.743.485.394-.598.33.215-.396.602 1.035.681-.227.35-2.433-1.604zm20.516.237l.34.2-1.414 2.376-.346-.201zm.996.568a.668.668 0 0 1 .066 0 .668.668 0 0 1 .004.002.668.668 0 0 1 .065.01.705.705 0 0 1 .029.008.705.705 0 0 1 .066.019.705.705 0 0 1 .004 0 .705.705 0 0 1 .065.025.705.705 0 0 0 .002 0 .705.705 0 0 1 .06.036.702.702 0 0 1 .03.015.702.702 0 0 1 .054.043.702.702 0 0 1 .051.047.702.702 0 0 1 .047.049.66.66 0 0 1 .033.043.66.66 0 0 1 .033.055.66.66 0 0 1 .03.058.66.66 0 0 0 .002.002.66.66 0 0 1 .023.06c.026.08.035.165.025.257a.717.717 0 0 1-.105.287l-.744 1.25a.72.72 0 0 1-.203.226.61.61 0 0 1-.24.102.657.657 0 0 1-.249 0 .7.7 0 0 1-.033-.008.7.7 0 0 1-.068-.018.7.7 0 0 0-.002 0 .7.7 0 0 1-.065-.029.7.7 0 0 1-.058-.03.702.702 0 0 1-.03-.02.702.702 0 0 1-.06-.038.702.702 0 0 1-.05-.05.702.702 0 0 1-.046-.051.592.592 0 0 1-.145-.475.706.706 0 0 1 .102-.283l.073-.121.34.2-.07.124c-.05.082-.066.153-.044.219a.281.281 0 0 0 .004.008.281.281 0 0 1 .002.002.281.281 0 0 0 .012.023.281.281 0 0 0 .012.025.281.281 0 0 0 .002.004.281.281 0 0 0 .015.022.281.281 0 0 0 .018.021.281.281 0 0 0 .02.016.281.281 0 0 0 .02.017.281.281 0 0 1 .003.002.281.281 0 0 0 .023.014.283.283 0 0 0 .004.008.283.283 0 0 0 .025.012.283.283 0 0 0 .026.006.283.283 0 0 0 .004.002.283.283 0 0 0 .025.01.283.283 0 0 1 .002 0 .283.283 0 0 0 .027.003.283.283 0 0 0 .026.004.283.283 0 0 0 .004 0 .283.283 0 0 0 .027 0 .283.283 0 0 1 .002-.002.283.283 0 0 0 .027-.002c.07-.012.127-.06.176-.143l.746-1.252c.05-.082.063-.156.041-.222a.273.273 0 0 0-.125-.153.283.283 0 0 0-.01-.004.283.283 0 0 0-.025-.011.283.283 0 0 0-.024-.014.283.283 0 0 1-.002-.002.283.283 0 0 0-.029-.006.283.283 0 0 0-.025-.004.283.283 0 0 1 0-.002.283.283 0 0 0-.03.002.283.283 0 0 1 0-.002.283.283 0 0 0-.029.002.283.283 0 0 0-.025.004c-.07.012-.127.057-.176.139l-.27.447.274.158-.182.301-.609-.363.445-.746a.697.697 0 0 1 .203-.223.634.634 0 0 1 .24-.105.668.668 0 0 1 .046-.004.668.668 0 0 0 .002-.002.668.668 0 0 1 .066-.002zm-22.422.572l2.436 1.602-.229.345-2.433-1.601zm-.156.924h.002a.72.72 0 0 1 .289.117l.127.084-.233.346-.12-.08c-.085-.055-.162-.071-.233-.051a.303.303 0 0 0-.172.127.282.282 0 0 0-.047.201.224.224 0 0 0 .041.104.36.36 0 0 0 .098.09l1.285.847c.084.055.16.07.23.05a.295.295 0 0 0 .01 0 .295.295 0 0 1 .002 0 .295.295 0 0 0 .026-.01.295.295 0 0 0 .001-.003.295.295 0 0 0 .026-.012.295.295 0 0 1 .002-.002.295.295 0 0 0 .023-.015.295.295 0 0 1 .002-.002.295.295 0 0 0 .024-.016.295.295 0 0 0 .02-.02.295.295 0 0 0 .017-.02.295.295 0 0 1 .002-.003.295.295 0 0 0 .017-.021.295.295 0 0 0 .002-.002.288.288 0 0 0 .047-.201v-.002a.226.226 0 0 0-.04-.102.373.373 0 0 0-.099-.092h-.002l-.457-.303-.181.278-.309-.201.414-.623.762.5c.1.066.18.141.232.224a.64.64 0 0 1 .092.256.731.731 0 0 1-.113.496v.002a.737.737 0 0 1-.022.03.737.737 0 0 1-.046.054.737.737 0 0 1-.051.049.737.737 0 0 0 0 .002.737.737 0 0 1-.028.025.737.737 0 0 1-.027.024.698.698 0 0 1-.045.031.698.698 0 0 1-.06.033.698.698 0 0 0-.002.002.698.698 0 0 1-.065.028.698.698 0 0 1-.062.021.668.668 0 0 1-.276.012.742.742 0 0 1-.295-.121l-1.283-.842a.76.76 0 0 1-.228-.225.636.636 0 0 1-.096-.256.694.694 0 0 1-.01-.054.694.694 0 0 0 0-.002.694.694 0 0 1 0-.069.694.694 0 0 1 0-.002.694.694 0 0 1 .008-.06.694.694 0 0 1 .002-.006.694.694 0 0 0 0-.002.694.694 0 0 1 .012-.066.733.733 0 0 1 .01-.038.733.733 0 0 0 0-.002.733.733 0 0 1 .025-.066.733.733 0 0 0 .002-.002.733.733 0 0 1 .027-.066.733.733 0 0 1 .037-.063.737.737 0 0 1 .022-.03.737.737 0 0 1 .047-.054.737.737 0 0 1 .048-.055.737.737 0 0 1 .055-.046.697.697 0 0 1 .047-.03.697.697 0 0 1 .059-.033.697.697 0 0 1 .004-.002.697.697 0 0 1 .06-.025.697.697 0 0 1 .004-.002.697.697 0 0 1 .062-.022.671.671 0 0 1 .278-.012z" fill="#f9f9f9" fill-rule="evenodd"/><path d="M9.717 1.58l-.54.958-.115.203 4.28 2.446a1.17 1.17 0 0 0-.102.054 1.17 1.17 0 0 0-.098.063 1.17 1.17 0 0 0-.002.002 1.17 1.17 0 0 0-.091.068 1.17 1.17 0 0 0-.002.002 1.17 1.17 0 0 0-.084.08 1.17 1.17 0 0 0-.075.088 1.17 1.17 0 0 0-.002.002 1.17 1.17 0 0 0-.066.096 1.17 1.17 0 0 0-.025.047 1.188 1.188 0 0 0 .437 1.609 1.167 1.167 0 0 0 1.6-.443 1.184 1.184 0 0 0-.442-1.608l-3.467-1.984.95-1.684z" fill="#9c00fe" fill-rule="evenodd"/><path d="M13.233 7.959a.176.176 0 0 1 .305.05l.43 1.274.511-.662a.646.646 0 0 1 .9-.119l2.301 1.757a.635.635 0 0 1 .041.032.635.635 0 0 1 .044.047.635.635 0 0 1 .04.05.635.635 0 0 1 .035.052.635.635 0 0 1 .032.055.635.635 0 0 1 .023.058.635.635 0 0 1 .018.06.635.635 0 0 1 .011.065.635.635 0 0 1 .006.06.635.635 0 0 1 0 .065.635.635 0 0 1-.006.064.635.635 0 0 1-.014.06.635.635 0 0 1-.018.062.635.635 0 0 1-.026.058.635.635 0 0 1-.032.055.635.635 0 0 1-.035.052l-1.766 2.29a.645.645 0 0 1-.9.118l-2.3-1.757a.635.635 0 0 1-.042-.032.635.635 0 0 1-.043-.047.635.635 0 0 1-.04-.049.635.635 0 0 1-.036-.052.635.635 0 0 1-.032-.055.635.635 0 0 1-.023-.058.635.635 0 0 1-.017-.061.635.635 0 0 1-.015-.064.635.635 0 0 1-.003-.061.635.635 0 0 1 0-.064.635.635 0 0 1 .006-.064.635.635 0 0 1 .015-.061.635.635 0 0 1 .017-.061.635.635 0 0 1 .026-.058.635.635 0 0 1 .032-.056.635.635 0 0 1 .035-.052l.511-.662-1.35-.084a.173.173 0 0 1-.125-.28z" fill="#0046ef" fill-rule="evenodd"/><path d="M5.414 24.589a.671.671 0 0 0-.278.012.697.697 0 0 0-.062.021.697.697 0 0 0-.004.002.697.697 0 0 0-.06.026.697.697 0 0 0-.004.002.697.697 0 0 0-.059.033.697.697 0 0 0-.047.03.737.737 0 0 0-.055.046.737.737 0 0 0-.048.055.737.737 0 0 0-.047.054.737.737 0 0 0-.022.03.733.733 0 0 0-.037.062.733.733 0 0 0-.027.067.733.733 0 0 0-.002.002.733.733 0 0 0-.026.066.733.733 0 0 0 0 .002.733.733 0 0 0-.01.037.694.694 0 0 0-.011.066.694.694 0 0 0 0 .002.694.694 0 0 0-.002.006.694.694 0 0 0-.008.06.694.694 0 0 1 0 .003.694.694 0 0 0 0 .068.694.694 0 0 0 0 .002.694.694 0 0 0 .01.055.636.636 0 0 0 .096.256.76.76 0 0 0 .228.224l1.283.842c.1.066.199.107.295.121.097.015.19.012.276-.011a.698.698 0 0 0 .062-.022.698.698 0 0 0 .065-.027.698.698 0 0 0 .002-.002.698.698 0 0 0 .06-.033.698.698 0 0 0 .045-.032.737.737 0 0 0 .027-.023.737.737 0 0 0 .028-.025.737.737 0 0 0 0-.002.737.737 0 0 0 .05-.05.737.737 0 0 0 .047-.054.737.737 0 0 0 .022-.03v-.001a.731.731 0 0 0 .113-.496.64.64 0 0 0-.092-.256.765.765 0 0 0-.232-.225l-.762-.5-.414.623.309.201.181-.277.457.303h.002c.042.027.075.06.098.092a.226.226 0 0 1 .041.101v.002a.288.288 0 0 1-.047.201.295.295 0 0 0-.002.002.295.295 0 0 1-.017.022.295.295 0 0 1-.002.002.295.295 0 0 1-.018.021.295.295 0 0 1-.02.02.295.295 0 0 1-.023.015.295.295 0 0 1-.002.002.295.295 0 0 1-.023.016.295.295 0 0 1-.002.002.295.295 0 0 1-.026.012.295.295 0 0 0-.001.002.295.295 0 0 1-.026.011.295.295 0 0 1-.002 0 .295.295 0 0 1-.01 0c-.07.02-.146.004-.23-.05l-1.285-.848a.36.36 0 0 1-.098-.09.224.224 0 0 1-.04-.103.282.282 0 0 1 .046-.201.303.303 0 0 1 .172-.127c.07-.02.148-.005.232.05l.121.08.233-.345-.127-.084a.72.72 0 0 0-.29-.117zM5.57 23.665l-.226.346 2.433 1.601.229-.345z" fill="#5a1df9" fill-rule="evenodd"/><path d="M27.992 23.093v.002a.668.668 0 0 0-.066.002.668.668 0 0 0-.002.002.668.668 0 0 0-.045.004.634.634 0 0 0-.24.105.697.697 0 0 0-.204.223l-.445.746.61.363.181-.3-.273-.159.27-.447c.048-.082.106-.127.175-.139a.283.283 0 0 1 .025-.004.283.283 0 0 1 .03-.002.283.283 0 0 1 0 .002.283.283 0 0 1 .029-.002.283.283 0 0 1 0 .002.283.283 0 0 1 .025.004.283.283 0 0 1 .03.006.283.283 0 0 1 .002.002.283.283 0 0 1 .023.014.283.283 0 0 1 .025.012.283.283 0 0 1 .01.003.273.273 0 0 1 .125.153c.023.066.008.14-.04.222l-.747 1.252c-.05.082-.107.131-.176.143a.283.283 0 0 1-.027.002.283.283 0 0 1-.002.002.283.283 0 0 1-.027 0 .283.283 0 0 1-.004 0 .283.283 0 0 1-.026-.004.283.283 0 0 1-.027-.004.283.283 0 0 1-.002 0 .283.283 0 0 1-.025-.01.283.283 0 0 1-.004-.002.283.283 0 0 1-.026-.006.283.283 0 0 1-.025-.011.283.283 0 0 1-.004-.008.281.281 0 0 1-.024-.014.281.281 0 0 1-.002-.002.281.281 0 0 1-.021-.017.281.281 0 0 1-.02-.016.281.281 0 0 1-.017-.021.281.281 0 0 1-.016-.022.281.281 0 0 1-.002-.004.281.281 0 0 1-.011-.025.281.281 0 0 1-.012-.024.281.281 0 0 1-.002-.002.281.281 0 0 1-.004-.008c-.022-.065-.006-.136.043-.218l.07-.123-.34-.201-.072.12a.706.706 0 0 0-.101.284.591.591 0 0 0 .144.474.702.702 0 0 0 .045.051.702.702 0 0 0 .05.051.702.702 0 0 0 .061.037.702.702 0 0 0 .03.022.7.7 0 0 0 .058.029.7.7 0 0 0 .065.03.7.7 0 0 0 .002 0 .7.7 0 0 0 .068.017.7.7 0 0 0 .033.008.657.657 0 0 0 .248 0 .61.61 0 0 0 .24-.102.72.72 0 0 0 .204-.227l.744-1.25a.717.717 0 0 0 .105-.287.606.606 0 0 0-.025-.256.66.66 0 0 0-.024-.06.66.66 0 0 0-.002-.002.66.66 0 0 0-.029-.059.66.66 0 0 0-.033-.054.66.66 0 0 0-.033-.043.702.702 0 0 0-.047-.05.702.702 0 0 0-.05-.046.702.702 0 0 0-.056-.043.702.702 0 0 0-.029-.016.705.705 0 0 0-.06-.035.705.705 0 0 0-.002 0 .705.705 0 0 0-.065-.025.705.705 0 0 0-.004 0 .705.705 0 0 0-.066-.02.705.705 0 0 0-.03-.008.668.668 0 0 0-.064-.01.668.668 0 0 0-.004-.001.668.668 0 0 0-.066 0zM26.996 22.525l-1.42 2.375.346.2 1.414-2.374z" fill="#febf02" fill-rule="evenodd"/><path d="M6.48 22.288l-.685 1.037 2.433 1.604.227-.35-1.035-.681.396-.602-.33-.215-.394.598-.743-.485.455-.69z" fill="#5a1df9" fill-rule="evenodd"/><path d="M26.322 22.128l-.607 1.012-.586-.346-.194.316.59.348-.43.72-.677-.4-.19.32 1.02.604 1.414-2.37z" fill="#febf02" fill-rule="evenodd"/><path d="M18.306 20.53l-.601.127a2.465 2.465 0 0 0 .017.084 2.465 2.465 0 0 0 .059.239 2.465 2.465 0 0 0 0 .002 2.465 2.465 0 0 0 .084.23 2.465 2.465 0 0 0 .105.219 2.465 2.465 0 0 0 .131.209 2.465 2.465 0 0 0 0 .002 2.465 2.465 0 0 0 .147.197 2.465 2.465 0 0 0 0 .002 2.465 2.465 0 0 0 .17.178 2.465 2.465 0 0 0 0 .002 2.465 2.465 0 0 0 .183.164 2.465 2.465 0 0 0 .2.144 2.465 2.465 0 0 0 .07.045 2.465 2.465 0 0 0 .219.114 2.465 2.465 0 0 0 .002.002 2.465 2.465 0 0 0 .226.095 2.465 2.465 0 0 0 .236.07 2.465 2.465 0 0 0 0 .003 2.465 2.465 0 0 0 .24.047 2.465 2.465 0 0 0 .247.021 2.465 2.465 0 0 0 .002.002 2.465 2.465 0 0 0 .244-.004 2.465 2.465 0 0 0 .244-.025 2.465 2.465 0 0 0 .242-.051 2.465 2.465 0 0 0 .002 0l-.13-.602a1.846 1.846 0 0 1-1.508-.23 1.853 1.853 0 0 1-.08-.055 1.853 1.853 0 0 1-.143-.115 1.853 1.853 0 0 1-.133-.129 1.853 1.853 0 0 1-.002-.002 1.853 1.853 0 0 1-.117-.143 1.853 1.853 0 0 1-.106-.15 1.853 1.853 0 0 1-.087-.164 1.853 1.853 0 0 1-.002-.002 1.853 1.853 0 0 1-.07-.168 1.853 1.853 0 0 1-.051-.176 1.853 1.853 0 0 1-.04-.181z" fill="#5a1df9" fill-rule="evenodd"/><path d="M20.67 18.019c-.024.002-.046.011-.069.015a1.201 1.201 0 0 0-.45.168l-.06.045a1.17 1.17 0 0 0-.302.309l-.69 1.06a1.206 1.206 0 0 0-.164.91 1.25 1.25 0 0 0 .988.951 1.2 1.2 0 0 0 1.23-.521l.693-1.066a1.222 1.222 0 0 0-.371-1.68 1.237 1.237 0 0 0-.805-.191zM25.039 14.187a.546.546 0 0 0-.174.074c-.016.01-.033.025-.049.037a.904.904 0 0 0-.11.096c-.08.082-.16.198-.237.326a4.342 4.342 0 0 0-.233.455c-.025.056-.05.101-.076.162a13.18 13.18 0 0 0-.324.867c-.194.572-.351 1.149-.453 1.67-.103.522-.15.988-.127 1.336a.382.382 0 0 0 .13.266.377.377 0 0 0 .277.094.387.387 0 0 0 .339-.26v-.002a.39.39 0 0 0 .02-.153c-.038-.57.186-1.65.542-2.703.1-.295.2-.567.303-.804-.025.18-.053.39-.096.64l-.072.408c-.037.21-.058.318-.076.418-.19 1.079-.293 1.792-.27 2.266.006.119.02.222.043.312.023.091.052.168.092.235l.002.002c.04.066.09.121.148.168.06.047.129.086.21.117.24.093.413.054.558-.102.145-.155.262-.429.389-.804.129-.383.221-.735.467-1.715l.029-.113c.216-.861.341-1.315.476-1.692.019-.05.034-.1.051-.144 0 .068-.004.145-.01.228-.028.408-.104.852-.295 1.785l-.023.135c-.22 1.072-.343 1.75-.34 2.2.002.336.075.545.233.695.052.05.114.093.185.132h.002c.079.044.156.078.23.102.076.024.15.04.221.045.424.03.763-.27.967-.791.171-.438.267-.989.371-1.945l.026-.227c.09-.85.149-1.315.218-1.602a4.5 4.5 0 0 1 .012.094c.082.691.052 1.67-.07 2.23a.388.388 0 0 0 .29.462.386.386 0 0 0 .46-.295 5.26 5.26 0 0 0 .086-.557c.021-.204.035-.422.043-.644.014-.446 0-.907-.045-1.293-.054-.457-.142-.78-.305-.973-.172-.203-.363-.252-.545-.19a.702.702 0 0 0-.262.172 1.324 1.324 0 0 0-.224.305c-.053.095-.096.19-.133.303v.002c-.037.112-.07.242-.1.404-.06.326-.111.783-.187 1.502l-.026.223c-.096.885-.183 1.398-.32 1.748-.12.308-.174.335-.338.244.03.016.028.01.018-.05a2.106 2.106 0 0 1 0-.503c.034-.378.105-.781.281-1.642l.03-.13c.198-.97.28-1.436.312-1.892.013-.184.016-.352.004-.502v-.002a1.452 1.452 0 0 0-.082-.396.732.732 0 0 0-.184-.284.7.7 0 0 0-.3-.162c-.237-.064-.415-.009-.567.155a1.369 1.369 0 0 0-.21.32c-.068.133-.13.29-.196.473-.148.41-.274.88-.496 1.767l-.032.12c-.173.693-.268 1.06-.353 1.347.03-.367.1-.818.22-1.508.018-.1.034-.213.07-.422.03-.17.053-.289.073-.408.211-1.237.275-1.806.045-2.064a.447.447 0 0 0-.14-.106.807.807 0 0 0-.196-.062.486.486 0 0 0-.195 0zM21.506 9.628a1.496 1.496 0 0 0-1.276.604l-1.457 1.962-.447.606c-.34.46-.46 1.012-.383 1.537.078.525.354 1.023.813 1.365.458.342 1.01.463 1.533.387a2.053 2.053 0 0 0 1.36-.809l1.566-2.117a.378.378 0 0 0 .013-.021.378.378 0 0 0 .022-.03.378.378 0 0 0 .011-.033.378.378 0 0 0 .014-.037.378.378 0 0 0 0-.002.378.378 0 0 0 .008-.037.378.378 0 0 0 .004-.039.378.378 0 0 0 .004-.037.378.378 0 0 0-.004-.037.378.378 0 0 0-.008-.035.378.378 0 0 0-.008-.038.378.378 0 0 0-.017-.033.378.378 0 0 0-.016-.035.378.378 0 0 0-.002 0 .378.378 0 0 0-.02-.033.378.378 0 0 0-.001 0 .378.378 0 0 0-.02-.03.378.378 0 0 0-.027-.025.378.378 0 0 0-.002 0 .378.378 0 0 0-.026-.025.375.375 0 0 0-.025-.016.375.375 0 0 0-.033-.017.375.375 0 0 0-.002 0 .375.375 0 0 0-.034-.018.375.375 0 0 0-.033-.012.375.375 0 0 0-.037-.004.375.375 0 0 0-.037-.005.375.375 0 0 0-.002 0 .375.375 0 0 0-.037-.004.375.375 0 0 0-.037.002.375.375 0 0 0-.002.002.375.375 0 0 0-.033.01.375.375 0 0 0-.036.005.375.375 0 0 0-.002.002.375.375 0 0 0-.033.016.375.375 0 0 0-.002.002.375.375 0 0 0-.033.016.375.375 0 0 0-.031.02.375.375 0 0 0-.002.001.375.375 0 0 0-.026.022.375.375 0 0 0-.027.023.375.375 0 0 0-.002.002.375.375 0 0 0-.021.03l-1.57 2.113c-.217.291-.53.466-.864.515a1.31 1.31 0 0 1-.977-.246 1.323 1.323 0 0 1-.275-1.844l.451-.607 1.457-1.961a.753.753 0 0 1 1.205.9l-.447.608-1.457 1.967a.183.183 0 0 1-.26.033.187.187 0 0 1-.043-.262l1.57-2.117a.378.378 0 0 0 .018-.022.378.378 0 0 0 .016-.035.378.378 0 0 0 .017-.033.378.378 0 0 0 .014-.037.378.378 0 0 0 .008-.037.378.378 0 0 0 0-.002.378.378 0 0 0 .004-.033.378.378 0 0 0 0-.037.378.378 0 0 0-.002-.04.378.378 0 0 0-.002 0 .378.378 0 0 0-.004-.037.378.378 0 0 0-.012-.037.378.378 0 0 0-.002 0 .378.378 0 0 0-.012-.035.378.378 0 0 0-.017-.033.378.378 0 0 0-.02-.033.378.378 0 0 0-.002 0 .378.378 0 0 0-.023-.03.378.378 0 0 0-.002 0 .378.378 0 0 0-.025-.025.378.378 0 0 0-.028-.025.378.378 0 0 0-.002 0 .375.375 0 0 0-.025-.014.375.375 0 0 0-.03-.022.375.375 0 0 0-.033-.011.375.375 0 0 0-.035-.014.375.375 0 0 0-.002 0 .375.375 0 0 0-.035-.008.375.375 0 0 0-.004 0 .375.375 0 0 0-.033-.004.375.375 0 0 0-.037-.002.375.375 0 0 0-.002.002.375.375 0 0 0-.037 0 .375.375 0 0 0-.036.006.375.375 0 0 0-.002.002.375.375 0 0 0-.035.008.375.375 0 0 0-.004.002.375.375 0 0 0-.033.016.375.375 0 0 0-.033.017.375.375 0 0 0-.03.022.375.375 0 0 0-.029.02.375.375 0 0 0-.023.027.375.375 0 0 0-.002.002.375.375 0 0 0-.023.027.375.375 0 0 0-.002.004l-1.573 2.117a.944.944 0 0 0 .893 1.494.921.921 0 0 0 .615-.365l1.457-1.967.451-.605a1.507 1.507 0 0 0-1.14-2.407z" fill="#5a1df9" fill-rule="evenodd"/><path d="M21.506 9.628a1.509 1.509 0 0 1 1.14 2.406l-.45.606-1.458 1.967a.921.921 0 0 1-.615.365.944.944 0 0 1-1.067-.799.93.93 0 0 1 .174-.695l1.572-2.118.002-.003a.377.377 0 0 1 .024-.028l.002-.002a.377.377 0 0 1 .023-.027.374.374 0 0 1 .03-.02.382.382 0 0 1 .095-.054l.004-.002a.353.353 0 0 1 .035-.008l.002-.002a.38.38 0 0 1 .036-.006h.037l.002-.002a.375.375 0 0 1 .074.006.353.353 0 0 1 .072.021.382.382 0 0 1 .033.012l.03.022a.374.374 0 0 1 .027.013c.01.008.019.017.027.026a.38.38 0 0 1 .051.054h.002a.37.37 0 0 1 .02.033l.017.034a.369.369 0 0 1 .012.035h.002a.377.377 0 0 1 .012.037.385.385 0 0 1 .004.037h.002a.392.392 0 0 1 .002.076.374.374 0 0 1-.026.11.376.376 0 0 1-.017.033.369.369 0 0 1-.016.035.37.37 0 0 1-.017.022l-1.57 2.117a.187.187 0 0 0 .042.261c.085.064.199.05.26-.033l1.457-1.967.447-.607a.753.753 0 0 0-1.205-.9l-1.457 1.96-.451.608a1.323 1.323 0 0 0 .275 1.844c.292.217.644.295.977.246.333-.049.647-.224.863-.516l1.57-2.113a.378.378 0 0 1 .022-.03l.002-.001a.38.38 0 0 1 .027-.024.373.373 0 0 1 .026-.021l.002-.002a.379.379 0 0 1 .064-.035l.002-.002a.39.39 0 0 1 .033-.016l.002-.002a.38.38 0 0 1 .036-.006.383.383 0 0 1 .033-.01l.002-.002a.383.383 0 0 1 .037-.002.38.38 0 0 1 .039.004.358.358 0 0 1 .037.006.38.38 0 0 1 .037.004.376.376 0 0 1 .127.063.38.38 0 0 1 .028.025l.027.025a.376.376 0 0 1 .021.03.37.37 0 0 1 .038.068l.017.033a.39.39 0 0 1 .008.037.353.353 0 0 1 .012.072.381.381 0 0 1-.004.038.371.371 0 0 1-.037.148.38.38 0 0 1-.022.03.388.388 0 0 1-.013.02l-1.567 2.118c-.34.459-.836.732-1.36.809a2.056 2.056 0 0 1-1.532-.387 2.078 2.078 0 0 1-.813-1.365 2.063 2.063 0 0 1 .383-1.537l.447-.606 1.457-1.963a1.496 1.496 0 0 1 1.276-.603zm3.533 4.559h.002a.486.486 0 0 1 .195 0c.075.015.14.035.195.062a.447.447 0 0 1 .141.106c.23.258.166.827-.045 2.064l-.072.408c-.037.21-.053.322-.07.422-.121.69-.19 1.14-.221 1.508.085-.287.18-.654.353-1.348l.032-.119c.222-.887.348-1.358.496-1.767.065-.182.128-.34.195-.473.066-.132.135-.24.211-.32.152-.164.33-.22.566-.155a.7.7 0 0 1 .301.162c.08.075.14.17.184.284.043.113.07.246.082.396v.002c.012.15.009.318-.004.502-.032.456-.114.922-.313 1.893l-.029.129c-.176.861-.247 1.264-.281 1.642-.02.219-.02.389 0 .502.01.06.012.067-.018.05.164.092.218.065.338-.243.137-.35.224-.863.32-1.748l.026-.223c.076-.719.127-1.176.187-1.502.03-.162.063-.292.1-.404v-.002c.037-.113.08-.208.133-.303.066-.12.142-.223.224-.305a.702.702 0 0 1 .262-.172c.182-.062.373-.013.545.19.163.193.25.516.305.973.045.386.06.847.045 1.293-.008.222-.022.44-.043.644a5.26 5.26 0 0 1-.086.557.386.386 0 0 1-.598.232.388.388 0 0 1-.152-.398c.122-.56.152-1.54.07-2.23a4.244 4.244 0 0 0-.012-.095c-.07.287-.128.752-.218 1.602l-.026.227c-.104.956-.2 1.507-.37 1.945-.205.521-.544.821-.968.79a.962.962 0 0 1-.22-.044 1.297 1.297 0 0 1-.23-.102h-.003a.888.888 0 0 1-.185-.132c-.158-.15-.23-.359-.233-.696-.003-.449.12-1.127.34-2.199l.023-.135c.191-.933.267-1.377.295-1.785.006-.083.01-.16.01-.228-.017.044-.032.094-.05.144-.136.377-.261.83-.477 1.692l-.03.113c-.245.98-.337 1.332-.466 1.715-.127.375-.244.649-.389.804-.145.156-.319.195-.559.102a.793.793 0 0 1-.209-.117.627.627 0 0 1-.148-.168l-.002-.002a.836.836 0 0 1-.092-.235 1.642 1.642 0 0 1-.043-.312c-.023-.474.08-1.187.27-2.266.017-.1.039-.209.076-.418l.072-.408c.043-.25.071-.46.096-.64-.102.237-.203.509-.303.804-.356 1.053-.58 2.134-.543 2.703a.39.39 0 0 1-.02.153v.002a.387.387 0 0 1-.49.24.381.381 0 0 1-.125-.074.382.382 0 0 1-.13-.266c-.023-.348.024-.814.127-1.336.102-.521.26-1.098.453-1.67.11-.328.217-.613.324-.867.025-.061.05-.106.076-.162.077-.17.155-.328.232-.455.078-.128.158-.244.239-.326a.903.903 0 0 1 .11-.096c.015-.012.032-.027.048-.037a.546.546 0 0 1 .174-.074z" fill="#fb0807" fill-rule="evenodd"/><path d="M10.133 8.974a.991.991 0 0 0-.227.047c-.617.177-1.16.48-1.547.843-.387.364-.62.787-.615 1.202.006.646.292 1.524.79 2.455.5.93 1.21 1.912 2.065 2.76a11.937 11.937 0 0 0 2.782 2.04c.938.494 1.823.78 2.474.786h.022c.414 0 .838-.232 1.203-.616.364-.383.669-.918.847-1.525.083-.284.093-.258-.171-.371-.36-.16-.773-.348-1.483-.672a98.912 98.912 0 0 1-.914-.404c-.149-.065-.2-.086-.232-.086-.018 0-.045.013-.088.047a.916.916 0 0 0-.094.084l-.58.578-.404.398-.489-.289a8.227 8.227 0 0 1-2.847-2.818l-.29-.48.4-.4.585-.585c.163-.16.163-.156.055-.4a65.036 65.036 0 0 0-.412-.897c-.331-.712-.522-1.127-.688-1.496-.08-.185-.098-.201-.142-.201z" fill="#5a1df9" fill-rule="evenodd"/><path d="M10.133 8.974c.044 0 .063.016.142.2.166.37.357.785.688 1.497.193.414.32.694.412.897.108.244.108.24-.055.4l-.586.586-.398.398.289.48a8.231 8.231 0 0 0 2.847 2.82l.489.288.404-.398.58-.578a.916.916 0 0 1 .094-.084c.043-.034.07-.047.088-.047.033 0 .083.02.232.086a98.912 98.912 0 0 0 .914.404c.71.324 1.123.513 1.483.672.264.113.254.087.171.371-.178.608-.483 1.142-.847 1.525-.365.384-.789.616-1.203.616h-.022c-.65-.007-1.536-.292-2.474-.786a11.937 11.937 0 0 1-2.782-2.04 11.861 11.861 0 0 1-2.064-2.76c-.499-.93-.785-1.81-.791-2.455-.004-.415.228-.838.615-1.202.387-.363.93-.666 1.547-.843a.991.991 0 0 1 .227-.047z" fill="#00c800" fill-rule="evenodd"/><path d="M1.984 18.646l3.354 3.548.41-.386a.563.563 0 0 1-.06-.072.561.561 0 0 1-.028-.05l-.002-.001a.562.562 0 0 1-.06-.211l-.003-.004v-.11a.564.564 0 0 1 .012-.054.561.561 0 0 1 .06-.16.561.561 0 0 1 .063-.088.56.56 0 0 1 .037-.041.578.578 0 0 1 .032-.026.56.56 0 0 1 .146-.09.562.562 0 0 1 .106-.029.56.56 0 0 1 .109-.012.56.56 0 0 1 .057.002.56.56 0 0 1 .111.025v.003a.554.554 0 0 1 .05.021.569.569 0 0 1 .051.026.563.563 0 0 1 .131.1l2.442-2.311a.571.571 0 0 1-.112-.176l-.002-.002a.56.56 0 0 1-.029-.105.56.56 0 0 1 .018-.278.562.562 0 0 1 .047-.101.56.56 0 0 1 .129-.16.56.56 0 0 1 .148-.085.556.556 0 0 1 .05-.021.573.573 0 0 1 .055-.012.572.572 0 0 1 .055-.012.56.56 0 0 1 .111.006l.002.002a.56.56 0 0 1 .211.065v.002a.563.563 0 0 1 .131.101l.408-.382-6.166-6.52-.404.383a.57.57 0 0 1 .088.127.56.56 0 0 1 .021.05.562.562 0 0 1 .022.05.563.563 0 0 1 .012.056.56.56 0 0 1 .011.11.561.561 0 0 1-.072.268l-.002.001a.56.56 0 0 1-.027.047l-.002.002a.562.562 0 0 1-.07.084l-.002.002a.55.55 0 0 1-.034.025.56.56 0 0 1-.09.06l-.001.003a.556.556 0 0 1-.051.021.568.568 0 0 1-.051.02.535.535 0 0 1-.053.012l-.002.002a.56.56 0 0 1-.113.007.557.557 0 0 1-.162-.025.559.559 0 0 1-.234-.146l-.858.81zm2.658.658a.634.634 0 0 1 .004 0 .557.557 0 0 1 .055.006.54.54 0 0 1 .11.021l.001.002a.554.554 0 0 1 .145.076c.015.01.03.022.045.034l.002.002a.56.56 0 0 1 .095.113.563.563 0 0 1 .032.047.56.56 0 0 1 .025.049.56.56 0 0 1 .016.054.56.56 0 0 1-.002.333c-.001 0-.002 0-.002.002a.563.563 0 0 1-.041.1l-.002.001a.56.56 0 0 1-.063.088l-.004.004a.56.56 0 0 1-.068.066.557.557 0 0 1-.043.034l-.002.002a.56.56 0 0 1-.047.025.558.558 0 0 1-.049.023c0 .001 0 .002-.002.002a.554.554 0 0 1-.052.014l-.002.002a.55.55 0 0 1-.053.016l-.002.002a.556.556 0 0 1-.055.004.556.556 0 0 1-.109 0 .56.56 0 0 1-.055-.008.565.565 0 0 1-.054-.018.565.565 0 0 1-.106-.04.566.566 0 0 1-.088-.07.56.56 0 0 1-.101-.109.561.561 0 0 1-.028-.048c0-.001 0-.002-.002-.002a.56.56 0 0 1-.021-.051.56.56 0 0 1-.022-.051.563.563 0 0 1-.02-.111l-.001-.002a.561.561 0 0 1 .014-.164.564.564 0 0 1 .011-.055.562.562 0 0 1 .047-.106.562.562 0 0 1 .03-.046.561.561 0 0 1 .035-.041.562.562 0 0 1 .037-.043.55.55 0 0 1 .033-.026.562.562 0 0 1 .193-.105.573.573 0 0 1 .112-.02.557.557 0 0 1 .054-.006z" fill="#febf02" fill-rule="evenodd"/><path d="M7.584 29.782l-.168-.377-.125-.273.234-.19a4.343 4.343 0 0 1 .35-.255 4.343 4.343 0 0 1 .375-.223 4.343 4.343 0 0 1 .185-.09 4.335 4.335 0 0 1 .403-.164 4.335 4.335 0 0 1 .002 0 4.335 4.335 0 0 1 .412-.117 4.335 4.335 0 0 1 .203-.043l.295-.055.125.274.185.404c.05.111.048.11.19.102.118-.008.28-.019.523-.038.417-.03.657-.05.871-.064.107-.005.123-.01.131-.033a.53.53 0 0 0 .018-.121c.05-.684-.21-1.311-.625-1.463a2.053 2.053 0 0 0-.598-.106c-.699-.033-1.66.152-2.531.553a6.281 6.281 0 0 0-1.531 1.004c-.354.317-.565.63-.715.92.561.19 1.138.355 1.765.355z" fill="#00c800" fill-rule="evenodd"/><path d="M13.715 29.782a.883.883 0 0 0 .002-.02.883.883 0 0 0-.004-.087.883.883 0 0 0-.014-.084.883.883 0 0 0-.02-.086.883.883 0 0 0-.001-.004.883.883 0 0 0-.03-.078.883.883 0 0 0-.037-.08.883.883 0 0 0-.045-.076.883.883 0 0 0-.002 0 .883.883 0 0 0-.053-.07.883.883 0 0 0-.002-.003.883.883 0 0 0-.043-.05.887.887 0 0 0-1.253-.026.882.882 0 0 0-.057.067.882.882 0 0 0-.002.002.882.882 0 0 0-.055.066.882.882 0 0 0-.045.074.882.882 0 0 0-.002.002.882.882 0 0 0-.037.08.882.882 0 0 0-.035.08.882.882 0 0 0-.02.084.882.882 0 0 0-.001.004.882.882 0 0 0-.012.084.882.882 0 0 0-.006.088.882.882 0 0 0-.002.002.882.882 0 0 0 .002.031zM16.54 29.782l-1.304-1.353a.884.884 0 0 0 .088-.014.884.884 0 0 0 .084-.025.884.884 0 0 0 .084-.033.884.884 0 0 0 .002 0 .884.884 0 0 0 .074-.038.884.884 0 0 0 .076-.046.884.884 0 0 0 .069-.055.884.884 0 0 0 .029-.03.883.883 0 0 0 .062-.064.883.883 0 0 0 .055-.07.883.883 0 0 0 .047-.072.883.883 0 0 0 .037-.08.883.883 0 0 0 .03-.084.883.883 0 0 0 .025-.084.883.883 0 0 0 .014-.088.883.883 0 0 0 .003-.09.883.883 0 0 0-.003-.088.883.883 0 0 0-.014-.084.883.883 0 0 0-.018-.088.883.883 0 0 0-.002 0 .883.883 0 0 0-.031-.08.883.883 0 0 0-.037-.08.883.883 0 0 0-.045-.076.883.883 0 0 0-.002 0 .883.883 0 0 0-.049-.073.883.883 0 0 0-.002 0 .883.883 0 0 0-.045-.05.889.889 0 0 0-.064-.059.889.889 0 0 0-.069-.055.889.889 0 0 0-.002 0 .889.889 0 0 0-.074-.046.889.889 0 0 0-.002 0 .889.889 0 0 0-.08-.038.889.889 0 0 0-.082-.033.889.889 0 0 0-.002 0 .889.889 0 0 0-.084-.021.889.889 0 0 0-.086-.014.889.889 0 0 0-.004 0 .889.889 0 0 0-.088-.004.889.889 0 0 0-.087.006.889.889 0 0 0-.088.012.889.889 0 0 0-.086.021.889.889 0 0 0-.082.03.889.889 0 0 0-.002 0 .889.889 0 0 0-.08.037.889.889 0 0 0-.075.047.889.889 0 0 0-.07.052.889.889 0 0 0-.002.002.889.889 0 0 0-.043.04.883.883 0 0 0-.06.062.883.883 0 0 0-.002.004.883.883 0 0 0-.055.068.883.883 0 0 0-.047.074.883.883 0 0 0-.037.08.883.883 0 0 0-.03.08.883.883 0 0 0-.023.084.883.883 0 0 0-.002.006.883.883 0 0 0-.014.084.883.883 0 0 0-.003.088.883.883 0 0 0 .003.088.883.883 0 0 0 .014.086.883.883 0 0 0 0 .004.883.883 0 0 0 .022.084.883.883 0 0 0 .029.082.883.883 0 0 0 0 .002.883.883 0 0 0 .037.08.883.883 0 0 0 .047.074.883.883 0 0 0 0 .002.883.883 0 0 0 .05.07.883.883 0 0 0 .046.047l1.56 1.62z" fill="#5a1df9" fill-rule="evenodd"/><path d="M25.357 29.632l.797-1.033a.92.92 0 0 0 .05-.076.92.92 0 0 0 .048-.08.92.92 0 0 0 .039-.084.92.92 0 0 0 .023-.088.92.92 0 0 0 .022-.088.92.92 0 0 0 .01-.092.92.92 0 0 0 0-.002.92.92 0 0 0 0-.092.92.92 0 0 0-.01-.088.92.92 0 0 0-.014-.092.92.92 0 0 0-.002-.002.92.92 0 0 0-.025-.087.92.92 0 0 0-.036-.084.92.92 0 0 0-.044-.08.92.92 0 0 0-.051-.077.92.92 0 0 0-.057-.072.92.92 0 0 0-.002 0 .92.92 0 0 0-.062-.066.92.92 0 0 0-.002 0 .92.92 0 0 0-.059-.047l-3.336-2.547a.93.93 0 0 0-1.304.172l-.74.96-.626-1.849a.25.25 0 0 0-.199-.168.252.252 0 0 0-.242.096l-2.152 2.793a.25.25 0 0 0 .181.404l1.957.121-.74.961a.92.92 0 0 0-.05.076.92.92 0 0 0-.046.079.92.92 0 0 0-.002.002.92.92 0 0 0-.037.084.92.92 0 0 0-.025.087.92.92 0 0 0-.022.088.92.92 0 0 0-.007.09.92.92 0 0 0 0 .004.92.92 0 0 0 0 .092.92.92 0 0 0 .003.09.92.92 0 0 0 .022.088.92.92 0 0 0 0 .003.92.92 0 0 0 .025.088.92.92 0 0 0 .033.084.92.92 0 0 0 .047.078.92.92 0 0 0 0 .002.92.92 0 0 0 .051.077.92.92 0 0 0 .059.07.92.92 0 0 0 0 .002.92.92 0 0 0 .062.066.92.92 0 0 0 .059.047l.314.24h5.344c.265 0 .491-.114.746-.15z" fill="#2391d3" fill-rule="evenodd"/><path d="M12.01 23.49a1.474 1.474 0 0 0 1.894-.863 1.467 1.467 0 0 0-.865-1.889 1.474 1.474 0 0 0-1.894.863c-.285.76.103 1.606.865 1.89m.143 1.306l-1.109-.412a.377.377 0 0 1-.23-.394l.044-.302-.711-.264a.587.587 0 0 1-.344-.757l1.027-2.749a.59.59 0 0 1 .757-.347l3.315 1.232a.587.587 0 0 1 .344.756l-1.027 2.749a.59.59 0 0 1-.757.348l-.711-.265-.165.257a.383.383 0 0 1-.433.148m1.2-2.375a.884.884 0 0 0-1.656-.615.884.884 0 0 0 1.656.615" fill="#fe5ebd" fill-rule="evenodd"/><path d="M27.597 3.27a.361.361 0 0 0-.035.006.361.361 0 0 0-.035.002.361.361 0 0 0-.002.002.361.361 0 0 0-.033.012.361.361 0 0 0-.033.012.361.361 0 0 0-.002.002.361.361 0 0 0-.03.015.361.361 0 0 0-.027.02.361.361 0 0 0-.002.002.361.361 0 0 0-.027.02.361.361 0 0 0-.002.001.361.361 0 0 0-.016.018l-.76.777a.354.354 0 0 0-.02.026.354.354 0 0 0-.019.027.354.354 0 0 0-.002.004.354.354 0 0 0-.015.031.354.354 0 0 0-.002.002.354.354 0 0 0-.016.03.354.354 0 0 0-.01.033.354.354 0 0 0-.008.033.354.354 0 0 0-.002.035.354.354 0 0 0-.002.004.354.354 0 0 0-.003.033.354.354 0 0 0 .003.033.354.354 0 0 0 .008.034.354.354 0 0 0 0 .005.354.354 0 0 0 .008.034.354.354 0 0 0 .014.03.354.354 0 0 0 0 .003.354.354 0 0 0 .017.03.354.354 0 0 0 .016.028.354.354 0 0 0 .023.026.354.354 0 0 0 .002.004.354.354 0 0 0 .022.021.361.361 0 0 0 .025.022.361.361 0 0 0 .03.02.361.361 0 0 0 0 .001.361.361 0 0 0 .033.016.361.361 0 0 0 0 .002.361.361 0 0 0 .029.015.361.361 0 0 0 .037.006.361.361 0 0 0 .002.002.361.361 0 0 0 .033.01.361.361 0 0 0 .037.004.361.361 0 0 0 .036 0 .361.361 0 0 0 .037-.004.361.361 0 0 0 .033-.004.361.361 0 0 0 .033-.014.361.361 0 0 0 .035-.011.361.361 0 0 0 .033-.018.361.361 0 0 0 .03-.021.361.361 0 0 0 .03-.022.361.361 0 0 0 .013-.016l.758-.779a.353.353 0 0 0 .023-.027.353.353 0 0 0 .002-.002.353.353 0 0 0 .022-.026.353.353 0 0 0 .015-.033.353.353 0 0 0 0-.002.353.353 0 0 0 .014-.029.353.353 0 0 0 .012-.033.353.353 0 0 0 .01-.033.353.353 0 0 0 .004-.036.353.353 0 0 0 0-.003.353.353 0 0 0 0-.034.353.353 0 0 0-.002-.035.353.353 0 0 0-.002-.002.353.353 0 0 0-.006-.033.353.353 0 0 0-.006-.035.353.353 0 0 0-.002 0 .353.353 0 0 0-.016-.031.353.353 0 0 0-.002-.002.353.353 0 0 0-.012-.03.353.353 0 0 0-.02-.029.353.353 0 0 0-.001 0 .353.353 0 0 0-.02-.03.353.353 0 0 0-.002 0 .353.353 0 0 0-.021-.02.361.361 0 0 0-.028-.022.361.361 0 0 0-.002 0 .361.361 0 0 0-.027-.022.361.361 0 0 0-.002 0 .361.361 0 0 0-.03-.015.361.361 0 0 0-.03-.018.361.361 0 0 0-.002 0 .361.361 0 0 0-.034-.008.361.361 0 0 0-.033-.01.361.361 0 0 0-.006 0 .361.361 0 0 0-.033-.003.361.361 0 0 0-.035 0 .361.361 0 0 0-.002 0z" fill="#00c800" fill-rule="evenodd"/><path d="M27.597 3.27a.361.361 0 0 0 .002 0 .361.361 0 0 1 .036 0 .361.361 0 0 1 .033.005.361.361 0 0 1 .006 0 .361.361 0 0 1 .033.01.361.361 0 0 1 .033.007.361.361 0 0 0 .002 0 .361.361 0 0 1 .031.018.361.361 0 0 1 .03.015.361.361 0 0 0 .002 0 .361.361 0 0 1 .027.022.361.361 0 0 0 .002 0 .361.361 0 0 1 .027.021.353.353 0 0 1 .022.022.353.353 0 0 0 .002 0 .353.353 0 0 1 .02.03.353.353 0 0 0 .001 0 .353.353 0 0 1 .02.028.353.353 0 0 1 .012.03.353.353 0 0 0 .002.002.353.353 0 0 1 .015.03.353.353 0 0 0 .002 0 .353.353 0 0 1 .006.036.353.353 0 0 1 .006.033.353.353 0 0 0 .002.002.353.353 0 0 1 .002.035.353.353 0 0 1 0 .034.353.353 0 0 1 0 .003.353.353 0 0 1-.004.036.353.353 0 0 1-.01.033.353.353 0 0 1-.011.033.353.353 0 0 1-.014.03.353.353 0 0 0 0 .001.353.353 0 0 1-.016.033.353.353 0 0 1-.021.026.353.353 0 0 0-.002.002.353.353 0 0 1-.024.027l-.757.78a.361.361 0 0 1-.014.015.361.361 0 0 1-.03.022.361.361 0 0 1-.029.021.361.361 0 0 1-.033.018.361.361 0 0 1-.035.011.361.361 0 0 1-.033.014.361.361 0 0 1-.033.004.361.361 0 0 1-.038.004.361.361 0 0 1-.035 0 .361.361 0 0 1-.037-.004.361.361 0 0 1-.033-.01.361.361 0 0 0-.002-.002.361.361 0 0 1-.037-.006.361.361 0 0 1-.03-.015.361.361 0 0 0 0-.002.361.361 0 0 1-.033-.016.361.361 0 0 0 0-.002.361.361 0 0 1-.029-.02.361.361 0 0 1-.025-.02.354.354 0 0 1-.022-.022.354.354 0 0 1-.002-.004.354.354 0 0 1-.023-.026.354.354 0 0 1-.016-.029.354.354 0 0 1-.018-.03.354.354 0 0 0 0-.001.354.354 0 0 1-.013-.031.354.354 0 0 1-.008-.034.354.354 0 0 1 0-.005.354.354 0 0 1-.008-.034.354.354 0 0 1-.004-.033.354.354 0 0 1 .004-.033.354.354 0 0 1 .002-.004.354.354 0 0 1 .002-.035.354.354 0 0 1 .008-.033.354.354 0 0 1 .01-.034.354.354 0 0 1 .015-.029.354.354 0 0 0 .002-.002.354.354 0 0 1 .016-.031.354.354 0 0 1 .002-.004.354.354 0 0 1 .02-.027.354.354 0 0 1 .02-.026l.759-.777a.361.361 0 0 1 .016-.018.361.361 0 0 0 .002-.002.361.361 0 0 1 .027-.02.361.361 0 0 0 .002-.001.361.361 0 0 1 .027-.02.361.361 0 0 1 .03-.015.361.361 0 0 0 .002-.002.361.361 0 0 1 .033-.012.361.361 0 0 1 .033-.012.361.361 0 0 0 .002-.002.361.361 0 0 1 .035-.001.361.361 0 0 1 .035-.006zM24.447 2.03a.743.743 0 0 0-.072.012.743.743 0 0 0-.072.018.743.743 0 0 0-.069.023.743.743 0 0 0-.002.002.743.743 0 0 0-.068.03.743.743 0 0 0-.063.036.743.743 0 0 0-.056.045.743.743 0 0 0-.002.002.743.743 0 0 0-.053.05.743.743 0 0 0-.002.001.743.743 0 0 0-.049.053.743.743 0 0 0-.002.002.743.743 0 0 0-.043.058.743.743 0 0 0-.037.063.743.743 0 0 0-.033.064.743.743 0 0 0-.002.004.743.743 0 0 0-.018.07.743.743 0 0 0-.002.003.743.743 0 0 0-.017.07.743.743 0 0 0-.01.072.743.743 0 0 0-.002.004.743.743 0 0 0 0 .072.743.743 0 0 0 .004.063l.12 1.213.04.375c.029.284.17.53.375.699.205.17.473.262.758.236a1.026 1.026 0 0 0 .926-1.125L25.86 2.94a.19.19 0 0 0 0-.02.19.19 0 0 0-.004-.018.19.19 0 0 0-.006-.017.19.19 0 0 0-.002 0 .19.19 0 0 0-.01-.016.19.19 0 0 0-.005-.017.19.19 0 0 0-.002 0 .19.19 0 0 0-.012-.016.19.19 0 0 0-.002 0 .19.19 0 0 0-.012-.014.19.19 0 0 0-.015-.011.19.19 0 0 0-.002 0 .19.19 0 0 0-.012-.014.19.19 0 0 0-.016-.008.19.19 0 0 0-.002 0 .19.19 0 0 0-.015-.01.19.19 0 0 0-.018-.003.19.19 0 0 0-.004 0 .19.19 0 0 0-.018-.004.19.19 0 0 0-.017-.004.19.19 0 0 0-.004 0 .19.19 0 0 0-.016 0 .19.19 0 0 0-.013.004.186.186 0 0 0-.016 0 .186.186 0 0 0-.017.004.186.186 0 0 0-.016.005.186.186 0 0 0-.002.002.186.186 0 0 0-.016.01.186.186 0 0 0-.015.006.186.186 0 0 0-.002.002.186.186 0 0 0-.016.006.186.186 0 0 0-.002.002.186.186 0 0 0-.012.013.186.186 0 0 0-.01.014.186.186 0 0 0-.003.004.186.186 0 0 0-.012.012.186.186 0 0 0-.006.015.186.186 0 0 0-.002.002.186.186 0 0 0-.01.016.186.186 0 0 0-.004.017.186.186 0 0 0-.002.018.186.186 0 0 0-.002.004.186.186 0 0 0-.004.016.186.186 0 0 0 0 .017.186.186 0 0 0 0 .018l.135 1.308a.65.65 0 0 1 .004.063.65.65 0 0 1-.004.064.65.65 0 0 1-.008.063.65.65 0 0 1-.002.004.65.65 0 0 1-.013.062.65.65 0 0 1-.002.002.65.65 0 0 1-.026.059.65.65 0 0 1-.025.058.65.65 0 0 1-.033.055.65.65 0 0 1-.041.049.65.65 0 0 1-.002.002.65.65 0 0 1-.041.049.65.65 0 0 1 0 .002.65.65 0 0 1-.05.039.65.65 0 0 1-.001.002.65.65 0 0 1-.051.039.65.65 0 0 1-.057.03.65.65 0 0 1-.002.003.65.65 0 0 1-.058.023.65.65 0 0 1-.002.002.65.65 0 0 1-.059.022.65.65 0 0 1-.062.011.65.65 0 0 1-.055.01.664.664 0 0 1-.72-.594l-.038-.375-.127-1.212a.372.372 0 0 1 0-.038.372.372 0 0 1 0-.001.372.372 0 0 1 0-.038.372.372 0 0 1 .008-.033.372.372 0 0 1 .01-.037.372.372 0 0 1 0-.002.372.372 0 0 1 .012-.033.372.372 0 0 1 .017-.033.372.372 0 0 1 .016-.035.372.372 0 0 1 .025-.03.372.372 0 0 1 .026-.025.372.372 0 0 1 .025-.025.372.372 0 0 1 .033-.02.372.372 0 0 1 .031-.021.372.372 0 0 1 .034-.014.372.372 0 0 1 .037-.012.372.372 0 0 1 .033-.008.372.372 0 0 1 .031-.006.38.38 0 0 1 .037 0 .38.38 0 0 1 .037 0 .38.38 0 0 1 .037.008.38.38 0 0 1 .002.002.38.38 0 0 1 .038.008.38.38 0 0 1 .033.012.38.38 0 0 1 .035.013.38.38 0 0 1 .004.004.38.38 0 0 1 .03.022.38.38 0 0 1 .028.023.38.38 0 0 1 0 .002.38.38 0 0 1 .03.024.38.38 0 0 1 0 .002.38.38 0 0 1 .025.027.38.38 0 0 1 0 .002.38.38 0 0 1 .022.03.38.38 0 0 1 .017.032.38.38 0 0 1 .016.034.38.38 0 0 1 .014.035.38.38 0 0 1 0 .004.38.38 0 0 1 .007.037.38.38 0 0 1 0 .021l.037.371.123 1.217a.091.091 0 0 1 .004.008.091.091 0 0 1-.002.008.091.091 0 0 1-.002.002.091.091 0 0 1 0 .007.091.091 0 0 1 0 .004.091.091 0 0 1 0 .008.091.091 0 0 1-.002.008.091.091 0 0 1-.002.002.091.091 0 0 1-.004.006.091.091 0 0 1-.002.002.091.091 0 0 1-.003.004.091.091 0 0 1-.006.006.091.091 0 0 1-.002.002.091.091 0 0 1-.002.007.091.091 0 0 1-.002.002.091.091 0 0 1-.008.002.091.091 0 0 1-.002.002.091.091 0 0 1-.004.008.091.091 0 0 1-.006.004.091.091 0 0 1-.002.002.091.091 0 0 1-.008 0 .091.091 0 0 1-.008.002.091.091 0 0 1-.002.002.091.091 0 0 1-.007.004.091.091 0 0 1-.008 0 .091.091 0 0 1-.004 0 .094.094 0 0 1-.008 0 .094.094 0 0 1-.002 0 .094.094 0 0 1-.008 0 .094.094 0 0 1-.007 0 .094.094 0 0 1-.008-.004.094.094 0 0 1-.002 0 .094.094 0 0 1-.008-.004.094.094 0 0 1-.006-.006.094.094 0 0 1-.002 0 .094.094 0 0 1-.008-.004.094.094 0 0 1-.002 0 .094.094 0 0 1-.008-.004.094.094 0 0 1-.005-.008.094.094 0 0 1-.002 0 .094.094 0 0 1-.004-.006.094.094 0 0 1-.006-.005.094.094 0 0 1-.004-.002.094.094 0 0 1-.004-.008.094.094 0 0 1-.002-.01.094.094 0 0 1-.002 0 .094.094 0 0 1 0-.008.094.094 0 0 1-.004-.008.094.094 0 0 1 0-.007l-.129-1.31a.19.19 0 0 0-.002-.02.19.19 0 0 0-.002-.002.19.19 0 0 0-.006-.016.19.19 0 0 0-.008-.018.19.19 0 0 0-.008-.017.19.19 0 0 0-.01-.016.19.19 0 0 0-.01-.017.19.19 0 0 0-.001 0 .19.19 0 0 0-.014-.012.19.19 0 0 0-.011-.014.19.19 0 0 0-.016-.011.19.19 0 0 0-.002 0 .19.19 0 0 0-.016-.01.19.19 0 0 0-.017-.008.19.19 0 0 0-.018-.004.19.19 0 0 0-.017-.004.19.19 0 0 0-.002 0 .19.19 0 0 0-.018-.006.19.19 0 0 0-.018-.002.19.19 0 0 0-.004.002.19.19 0 0 0-.007.006.186.186 0 0 0-.018-.002.186.186 0 0 0-.004.002.186.186 0 0 0-.017.004.186.186 0 0 0-.016.008.186.186 0 0 0-.016.006.186.186 0 0 0-.002.002.186.186 0 0 0-.015.01.186.186 0 0 0-.016.005.186.186 0 0 0-.002.002.186.186 0 0 0-.012.012.186.186 0 0 0-.011.014.186.186 0 0 0-.002.004.186.186 0 0 0-.008.013.186.186 0 0 0-.012.014.186.186 0 0 0-.002.002.186.186 0 0 0-.004.017.186.186 0 0 0-.008.016.186.186 0 0 0-.003.018.186.186 0 0 0 0 .017.186.186 0 0 0 0 .004.186.186 0 0 0-.006.016.186.186 0 0 0 .006.017l.128 1.31a.473.473 0 0 0 .514.425.463.463 0 0 0 .047-.008.463.463 0 0 0 .047-.008.463.463 0 0 0 .04-.017.463.463 0 0 0 .044-.022.463.463 0 0 0 .04-.02.463.463 0 0 0 .038-.029.463.463 0 0 0 .002-.002.463.463 0 0 0 .033-.029.463.463 0 0 0 .03-.033.463.463 0 0 0 .029-.037.463.463 0 0 0 .021-.043.463.463 0 0 0 .022-.041.463.463 0 0 0 .011-.043.463.463 0 0 0 .014-.045.463.463 0 0 0 0-.002.463.463 0 0 0 .008-.041.463.463 0 0 0 0-.047.463.463 0 0 0-.004-.043l-.12-1.215-.038-.375a.759.759 0 0 0-.824-.678z" fill="#00c800" fill-rule="evenodd"/></svg>