<svg xmlns="http://www.w3.org/2000/svg" width="32" height="32" version="1"><path d="M7.473 1.898a5.561 5.561 0 0 0-5.575 5.575v8.916h28.204V7.473a5.561 5.561 0 0 0-5.575-5.575z" fill="#8e8e8e" fill-rule="evenodd"/><path fill="#e6e6e6" d="M7.108 6.797h17.79v10.657H7.108z"/><path fill="#666" d="M8.887 11.06h4.447v3.197H8.887zM18.671 11.06h4.447v3.197h-4.447z"/><path d="M30.102 16.389H1.898v8.138a5.561 5.561 0 0 0 5.575 5.575h17.054a5.561 5.561 0 0 0 5.575-5.575z" fill="#4d4d4d" fill-rule="evenodd"/><rect width="17.052" height="2.131" x="7.477" y="20.651" rx="1.066" ry="1.066" fill="#666"/><rect width="12.789" height="2.131" x="9.608" y="24.914" rx="1.066" ry="1.066" fill="#666"/><g transform="matrix(.75 0 0 .75 4.701 5.446)" stroke-width="1.333"><circle r="8" cy="23" cx="24" fill="#48aeff"/><path d="M20.214 19h2.572c.118 0 .214.096.214.214v2.572a.214.214 0 0 1-.214.214h-2.572a.214.214 0 0 1-.214-.214v-2.572c0-.118.096-.214.214-.214zM25.214 19h2.572c.118 0 .214.096.214.214v2.572a.214.214 0 0 1-.214.214h-2.572a.214.214 0 0 1-.214-.214v-2.572c0-.118.096-.214.214-.214zM20.214 24h2.572c.118 0 .214.096.214.214v2.572a.214.214 0 0 1-.214.214h-2.572a.214.214 0 0 1-.214-.214v-2.572c0-.118.096-.214.214-.214zM25.214 24h2.572c.118 0 .214.096.214.214v2.572a.214.214 0 0 1-.214.214h-2.572a.214.214 0 0 1-.214-.214v-2.572c0-.118.096-.214.214-.214z" fill="#fff"/></g></svg>