<svg xmlns="http://www.w3.org/2000/svg" height="32" width="32"><rect width="28.203" height="28.203" x="1.898" y="1.898" ry="5.575" fill="#248afd" fill-rule="evenodd"/><path d="M16 5.492C10.205 5.492 5.492 10.206 5.492 16c0 5.795 4.714 10.508 10.508 10.508 5.794 0 10.508-4.713 10.508-10.508 0-5.794-4.714-10.508-10.508-10.508zm0 .808c2.525 0 4.913 1.14 6.639 2.721-.042-.002-.084-.008-.127-.008-.952 0-2.154.917-2.154 1.809.02 2.55 2.153 3.252 2.19 4.688 0 .83-.318 1.794-.737 3.136l-.968 3.233-3.506-10.252c.584-.03.936-.093.936-.093.522-.061.461-.83-.062-.8 0 0-1.397.124-2.411.124-.953 0-2.905-.123-2.905-.123-.523-.031-.584.769-.062.8 0 0 .846.062 1.368.092l1.512 3.965-2.124 6.367-3.532-10.332c.585-.03 1.198-.092 1.198-.092.522-.062.46-.83-.062-.8 0 0-1.66.123-2.674.123-.182 0-.484-.004-.711-.01C9.542 8.213 12.61 6.3 16 6.3zm8.512 5.045A9.65 9.65 0 0 1 25.7 16a9.694 9.694 0 0 1-4.823 8.384l2.963-8.566c.554-1.384.738-2.49.738-3.475 0-.356-.024-.689-.066-.998zm-17.372.707l4.627 12.677A9.7 9.7 0 0 1 7.14 12.052zm9.03 4.795l2.983 8.169c.019.048.042.093.069.135a9.692 9.692 0 0 1-5.962.154z" fill="#fff"/></svg>