<svg xmlns="http://www.w3.org/2000/svg" height="32" width="32" version="1"><g fill-rule="evenodd"><path d="M12.373 10.648c-.816-.055-1.084.007-1.084.25 0 .097-.065.3-.144.452-.138.263-.135.276.072.308.22.034.342.083.4.233.059.15.054.4.02.841a64.65 64.65 0 0 0-.112 1.979 29.579 29.579 0 0 1-.097 1.592 55.169 55.169 0 0 0-.143 2.12c-.05.929-.118 1.871-.152 2.097-.061.401-.057.41.217.41.153 0 .42.041.595.091.26.075.35.06.483-.082.185-.195.131-.12 1.523-2.13.57-.822 1.211-1.743 1.428-2.045.216-.303.607-.855.867-1.229.26-.373.504-.68.543-.68.039 0 .064 1.51.057 3.352l-.012 3.35.48.056c.266.032.554.064.641.073.102.01.428-.38.916-1.1.417-.614.86-1.256.983-1.424.258-.352 1.636-2.33 2.66-3.818 1.906-2.773 1.772-2.61 2.138-2.61.185 0 .35-.054.37-.12.018-.067.089-.308.158-.538.099-.33.101-.432.007-.49-.132-.082-3.291-.309-3.396-.244-.072.045-.377.932-.377 1.097 0 .06.205.102.48.102.266 0 .483.03.483.066 0 .037-.158.309-.35.604l-1.443 2.223c-.602.928-1.14 1.742-1.197 1.808-.187.218-.314.135-.254-.164.031-.156.082-.731.113-1.277.031-.546.071-1.232.09-1.524.15-2.347.169-3.06.078-3.117-.054-.034-.47-.09-.922-.125l-.822-.062-.713 1.097c-.391.604-1.251 1.953-1.912 2.998-.66 1.045-1.26 1.902-1.334 1.905-.109.003-.123-.161-.074-.887.032-.49.083-1.478.113-2.193.042-1.01.054-1.489.137-1.72.082-.23.234-.213.558-.23l.547-.027.174-.482c.095-.266.172-.509.172-.541 0-.033-.51-.09-1.133-.127-.623-.038-1.447-.091-1.832-.118zM25.01 30.004c-.644-.08-1.126-.138-3.26-.393-3.585-.427-4.078-.486-4.87-.584-1.838-.226-4.364-.52-5.398-.627-.291-.03-.79-.091-1.109-.136-.318-.045-.607-.054-.643-.02-.035.034-.11.388-.166.785-.055.398-.129.865-.164 1.037-.006.033.028.01.024.036h15.103c.172 0 .315-.083.483-.098zM29.88 25.633c-.226-.026-.42-.05-.657-.074-.557-.06-1.337-.146-1.735-.194a126.05 126.05 0 0 0-1.736-.19c-.557-.056-1.599-.168-2.315-.247-.715-.08-1.907-.207-2.65-.285-2.182-.232-2.299-.246-2.652-.291a33.696 33.696 0 0 0-.916-.098c-.318-.03-.948-.096-1.399-.145-.45-.049-1.253-.133-1.783-.187-.53-.054-1.18-.122-1.445-.15-1.579-.172-2.086-.194-2.162-.098-.045.056-.108.339-.139.63-.031.292-.093.732-.139.977l-.082.446.537.062c.296.034.992.126 1.55.205.556.08 1.38.188 1.831.242l1.592.194c.424.051 1.14.133 1.59.183.45.05 1.71.203 2.797.34 1.087.137 2.693.336 3.568.442 2.888.349 3.223.39 3.904.48.302.04.855.103 1.332.156.564-.683.923-1.496 1.11-2.398zM30.102 21.06c-.096-.01-.19-.023-.301-.035-4.218-.42-4.156-.419-4.242-.095-.036.132-.094.593-.13 1.023l-.066.781.701.065c.386.035.852.082 1.038.103.185.022.792.089 1.35.149.556.06 1.25.145 1.542.19.03.004.075.002.108.005zM30.102 16.467c-.257-.022-.512-.044-.782-.069-1.885-.169-3.127-.256-3.191-.226-.08.037-.323 1.952-.256 2.02.03.03.483.095 1.004.144.521.048 1.424.134 2.008.191.368.036.806.075 1.217.112zM30.102 11.88c-.55-.034-1.124-.07-1.622-.103a88.099 88.099 0 0 1-1.638-.113c-.252-.043-.307.06-.363.66-.034.358-.084.808-.112 1-.03.218-.04.329.117.395s.48.087 1.118.125c.546.032 1.312.098 1.7.148.23.03.52.04.8.057z" fill="#4269b0"/><path d="M30.102 8.209L8.936 6.814 5.045 29.496c.74.362 1.547.606 2.43.606h1.949c.005-.027-.03-.003-.024-.036.035-.172.11-.639.164-1.037.056-.397.13-.75.166-.785.036-.034.325-.025.643.02s.818.106 1.11.136c1.033.107 3.56.401 5.398.627.79.098 1.284.157 4.869.584 2.134.255 2.616.314 3.26.393a5.447 5.447 0 0 0 3.761-1.973 85.92 85.92 0 0 1-1.332-.156c-.68-.09-1.016-.131-3.904-.48-.875-.106-2.481-.305-3.568-.442-1.087-.137-2.346-.29-2.797-.34-.45-.05-1.166-.132-1.59-.183l-1.592-.194a98.36 98.36 0 0 1-1.832-.242 71.339 71.339 0 0 0-1.549-.205l-.537-.062.082-.446c.046-.245.108-.685.139-.976.031-.292.094-.575.139-.631.076-.096.583-.074 2.162.097.265.03.915.097 1.445.15l1.783.188c.451.05 1.08.115 1.399.145.318.03.73.073.916.098.353.045.47.059 2.652.29.743.08 1.935.207 2.65.286.716.079 1.758.191 2.315.248.557.057 1.339.142 1.736.19.398.047 1.178.133 1.735.193.237.025.431.048.658.074.076-.37.22-.713.22-1.106v-1.28c-.032-.004-.077-.002-.107-.007a47.92 47.92 0 0 0-1.543-.19 263.32 263.32 0 0 1-1.35-.148 59.881 59.881 0 0 0-1.037-.103l-.7-.065.066-.78c.035-.43.093-.892.129-1.024.086-.324.024-.324 4.242.095.112.011.205.024.3.036v-2.422c-.41-.037-.848-.076-1.216-.112a553.44 553.44 0 0 0-2.008-.191c-.521-.049-.973-.114-1.004-.145-.067-.067.175-1.982.256-2.02.064-.03 1.306.058 3.191.227.27.025.525.047.782.069v-2.418c-.28-.016-.57-.027-.8-.057a30.167 30.167 0 0 0-1.7-.148c-.638-.038-.96-.06-1.118-.125-.157-.066-.148-.177-.117-.395.028-.192.078-.642.112-1 .056-.6.111-.703.363-.66.043.007.78.058 1.638.113l1.622.104zm-17.729 2.44c.385.026 1.209.08 1.832.117.623.037 1.133.094 1.133.127 0 .032-.077.275-.172.54l-.174.483-.547.027c-.324.017-.476 0-.558.23-.083.231-.095.71-.137 1.72-.03.715-.08 1.702-.113 2.193-.049.726-.035.89.074.887.073-.003.673-.86 1.334-1.905.66-1.045 1.52-2.394 1.912-2.998l.713-1.097.822.062c.453.035.868.091.922.125.09.056.073.77-.078 3.117-.019.292-.059.978-.09 1.524s-.082 1.12-.113 1.277c-.06.3.067.382.254.164.056-.066.595-.88 1.197-1.808l1.443-2.223c.192-.295.35-.567.35-.604 0-.036-.217-.066-.482-.066-.276 0-.48-.043-.48-.102 0-.165.304-1.052.376-1.097.105-.065 3.264.162 3.396.244.094.058.092.16-.007.49-.07.23-.14.471-.159.537-.018.067-.184.121-.369.121-.366 0-.232-.163-2.138 2.61a318.601 318.601 0 0 1-2.66 3.818c-.124.168-.566.81-.983 1.424-.488.72-.814 1.11-.916 1.1a45.23 45.23 0 0 1-.64-.073l-.481-.056.012-3.35c.007-1.843-.018-3.352-.057-3.352-.039 0-.283.307-.543.68-.26.374-.65.926-.867 1.229-.217.302-.859 1.223-1.428 2.045-1.392 2.01-1.338 1.935-1.523 2.13-.134.141-.223.157-.483.082a2.623 2.623 0 0 0-.595-.091c-.274 0-.278-.009-.217-.41.034-.226.103-1.168.152-2.096.05-.928.114-1.883.143-2.121.028-.239.072-.956.097-1.592.026-.636.077-1.527.112-1.979.034-.44.039-.692-.02-.841-.058-.15-.18-.199-.4-.233-.207-.032-.21-.045-.072-.308.079-.152.144-.355.144-.452 0-.243.268-.305 1.084-.25z" fill="#f2f7fa"/><path d="M7.475 1.898a5.565 5.565 0 0 0-5.577 5.577v17.052c0 2.206 1.297 4.064 3.147 4.97l3.89-22.683L30.103 8.21v-.734a5.563 5.563 0 0 0-5.575-5.577z" fill="#4269b0"/></g></svg>