<svg xmlns="http://www.w3.org/2000/svg" height="32" width="32" version="1"><rect width="28.203" height="28.203" x="1.898" y="1.898" ry="5.575" fill="#ccc" fill-rule="evenodd"/><path d="M16 5.29a4.59 4.59 0 0 0-3.671 1.844 4.59 4.59 0 0 0-3.902 1.293 4.59 4.59 0 0 0-1.291 3.9A4.59 4.59 0 0 0 5.29 16a4.59 4.59 0 0 0 1.843 3.672 4.59 4.59 0 0 0 1.293 3.9 4.59 4.59 0 0 0 3.9 1.292A4.59 4.59 0 0 0 16 26.71a4.59 4.59 0 0 0 3.671-1.843 4.59 4.59 0 0 0 3.902-1.293 4.59 4.59 0 0 0 1.291-3.9A4.59 4.59 0 0 0 26.71 16a4.59 4.59 0 0 0-1.843-3.672 4.59 4.59 0 0 0-1.293-3.901 4.59 4.59 0 0 0-3.9-1.291A4.59 4.59 0 0 0 16 5.29z" fill="#fff"/><g transform="translate(.005)"><rect x="-21.43" y=".27" width="4.684" height="9.368" ry="2.342" rx="2.342" transform="scale(-1 1) rotate(-45)" fill="#d09e73"/><circle r="6" cx="16" cy="16" fill="#d09e73"/><rect x="1.19" y="22.89" width="4.684" height="9.368" transform="rotate(-45)" rx="2.342" ry="2.342" fill="#d09e73"/><circle r="1.5" cx="13.5" cy="14.5" fill="#4d4d4d"/><circle r="1.5" cx="18.5" cy="14.5" fill="#4d4d4d"/></g></svg>