<svg xmlns="http://www.w3.org/2000/svg" height="32" width="32" version="1"><rect width="28.203" height="28.203" x="1.898" y="1.898" ry="5.575" fill="#fecd38" fill-rule="evenodd"/><path d="M15.922 6c-3.265 0-5.213 2.037-5.213 2.037l2.996 5.693A4 4 0 0 1 16 13a4 4 0 0 1 2.184.654l2.96-5.617S19.185 6 15.921 6zM16 15a2 2 0 1 0 .002 4.001A2 2 0 0 0 16 15zm4.055 1.881a4.35 4.35 0 0 1-.129.879 4 4 0 0 1-.03.129l-.015.062a4 4 0 0 1-1.998 2.574l3.672 5.393s2.815-.609 4.447-3.324c1.632-2.715.77-5.354.77-5.354v-.002zm-8.112.082l-6.716.359s-.86 2.647.773 5.362C7.632 25.399 10.443 26 10.443 26l3.682-5.408a4.598 4.598 0 0 1-.973-.785 4 4 0 0 1-.15-.166c-.043-.051-.09-.098-.13-.151a4 4 0 0 1-.005-.004 4 4 0 0 1-.277-.404c-.009-.014-.02-.026-.029-.041-.018-.029-.029-.059-.045-.088a4 4 0 0 1-.13-.252 4.283 4.283 0 0 1-.443-1.738z" fill="#3f3f3f"/></svg>