<svg xmlns="http://www.w3.org/2000/svg" height="32" width="32" version="1"><rect width="28.203" height="28.203" x="1.898" y="1.898" ry="5.575" fill="#4b5e83" fill-rule="evenodd"/><path d="M16 4.156a11.844 11.844 0 0 0-1.033.053 11.844 11.844 0 0 0-.492.06 11.844 11.844 0 0 0-.692.104 11.844 11.844 0 0 0-.467.106 11.844 11.844 0 0 0-.677.173 11.844 11.844 0 0 0-.444.147 11.844 11.844 0 0 0-.699.258 11.844 11.844 0 0 0-.348.156 11.844 11.844 0 0 0-.73.351 11.844 11.844 0 0 0-.307.178 11.844 11.844 0 0 0-.718.44 11.844 11.844 0 0 0-.319.228 11.844 11.844 0 0 0-.547.408 11.844 11.844 0 0 0-.002.002H5.771v3.23a11.844 11.844 0 0 0-.001.005 11.844 11.844 0 0 0-.495.95 11.844 11.844 0 0 0-.066.14 11.844 11.844 0 0 0-.35.878 11.844 11.844 0 0 0-.091.25 11.844 11.844 0 0 0-.23.807 11.844 11.844 0 0 0-.095.365 11.844 11.844 0 0 0-.134.758 11.844 11.844 0 0 0-.065.418 11.844 11.844 0 0 0-.053.674 11.844 11.844 0 0 0-.035.705 11.844 11.844 0 0 0 .057 1.057 11.844 11.844 0 0 0 .047.386 11.844 11.844 0 0 0 .127.828 11.844 11.844 0 0 0 .056.258 11.844 11.844 0 0 0 .237.912 11.844 11.844 0 0 0 .054.17 11.844 11.844 0 0 0 .37.998 11.844 11.844 0 0 0 .667 1.332v3.239H8.53a11.844 11.844 0 0 0 .944.693 11.844 11.844 0 0 0 .07.043 11.844 11.844 0 0 0 .93.55 11.844 11.844 0 0 0 .195.095 11.844 11.844 0 0 0 .87.402 11.844 11.844 0 0 0 .241.088 11.844 11.844 0 0 0 .864.3 11.844 11.844 0 0 0 .347.088 11.844 11.844 0 0 0 .778.186 11.844 11.844 0 0 0 .486.074 11.844 11.844 0 0 0 .676.092 11.844 11.844 0 0 0 1.07.053 11.844 11.844 0 0 0 1.033-.053 11.844 11.844 0 0 0 .492-.06 11.844 11.844 0 0 0 .692-.104 11.844 11.844 0 0 0 .467-.106 11.844 11.844 0 0 0 .677-.173 11.844 11.844 0 0 0 .444-.147 11.844 11.844 0 0 0 .699-.258 11.844 11.844 0 0 0 .348-.156 11.844 11.844 0 0 0 .73-.351 11.844 11.844 0 0 0 .307-.178 11.844 11.844 0 0 0 .718-.44 11.844 11.844 0 0 0 .319-.228 11.844 11.844 0 0 0 .547-.408 11.844 11.844 0 0 0 .002-.002h2.754v-3.23a11.844 11.844 0 0 0 .001-.005 11.844 11.844 0 0 0 .495-.95 11.844 11.844 0 0 0 .066-.14 11.844 11.844 0 0 0 .35-.878 11.844 11.844 0 0 0 .091-.25 11.844 11.844 0 0 0 .23-.807 11.844 11.844 0 0 0 .095-.365 11.844 11.844 0 0 0 .134-.758 11.844 11.844 0 0 0 .065-.418 11.844 11.844 0 0 0 .053-.674 11.844 11.844 0 0 0 .035-.705 11.844 11.844 0 0 0-.057-1.057 11.844 11.844 0 0 0-.047-.386 11.844 11.844 0 0 0-.127-.828 11.844 11.844 0 0 0-.056-.258 11.844 11.844 0 0 0-.237-.912 11.844 11.844 0 0 0-.054-.17 11.844 11.844 0 0 0-.37-.998 11.844 11.844 0 0 0-.667-1.332V6.82H23.47a11.844 11.844 0 0 0-.944-.693 11.844 11.844 0 0 0-.01-.008 11.844 11.844 0 0 0-.06-.035 11.844 11.844 0 0 0-.93-.55 11.844 11.844 0 0 0-.195-.095 11.844 11.844 0 0 0-.87-.402 11.844 11.844 0 0 0-.241-.088 11.844 11.844 0 0 0-.864-.3 11.844 11.844 0 0 0-.347-.088 11.844 11.844 0 0 0-.778-.186 11.844 11.844 0 0 0-.486-.074 11.844 11.844 0 0 0-.676-.092A11.844 11.844 0 0 0 16 4.156z" fill="#ffd144"/><circle cx="16" cy="16" r="9.577" fill="#4b5e83"/><path d="M9.6 9.46l2.713 11.837-.249 1.232 3.442.01-.287-1.14.781-2.827.781 2.826-.287 1.141v.002l.002-.002 3.44-.01-.248-1.232L22.4 9.46h-2.877l.096 1.22-1.681 7.313L16 10.3l-1.938 7.695-1.681-7.312.096-1.221H9.6zm3.91 11.808h.553l-.553.002v-.002zm4.428 0h.552v.002l-.552-.002z" fill="#fff"/></svg>