<?xml version="1.0" encoding="UTF-8" standalone="no"?>
<svg
   xmlns:dc="http://purl.org/dc/elements/1.1/"
   xmlns:cc="http://creativecommons.org/ns#"
   xmlns:rdf="http://www.w3.org/1999/02/22-rdf-syntax-ns#"
   xmlns:svg="http://www.w3.org/2000/svg"
   xmlns="http://www.w3.org/2000/svg"
   xmlns:sodipodi="http://sodipodi.sourceforge.net/DTD/sodipodi-0.dtd"
   xmlns:inkscape="http://www.inkscape.org/namespaces/inkscape"
   width="32"
   height="32"
   version="1"
   id="svg44"
   sodipodi:docname="wpscrackgui.svg"
   inkscape:version="0.92.4 5da689c313, 2019-01-14">
  <metadata
     id="metadata48">
    <rdf:RDF>
      <cc:Work
         rdf:about="">
        <dc:format>image/svg+xml</dc:format>
        <dc:type
           rdf:resource="http://purl.org/dc/dcmitype/StillImage" />
      </cc:Work>
    </rdf:RDF>
  </metadata>
  <sodipodi:namedview
     pagecolor="#ffffff"
     bordercolor="#666666"
     borderopacity="1"
     objecttolerance="10"
     gridtolerance="10"
     guidetolerance="10"
     inkscape:pageopacity="0"
     inkscape:pageshadow="2"
     inkscape:window-width="1234"
     inkscape:window-height="857"
     id="namedview46"
     showgrid="false"
     inkscape:zoom="21.0625"
     inkscape:cx="8.2498318"
     inkscape:cy="17.89911"
     inkscape:current-layer="svg44"
     showguides="true"
     inkscape:guide-bbox="true"
     inkscape:window-x="404"
     inkscape:window-y="59"
     inkscape:window-maximized="0" />
  <defs
     id="defs14">
    <clipPath
       id="clipPath5078"
       clipPathUnits="userSpaceOnUse">
      <path
         fill="#2095f2"
         d="m160 247c-7.9134 0-15.037 2.8117-20.945 7.1718l20.94 22.82 20.78-22.9c-5.88-4.31-12.93-7.09-20.78-7.09z"
         id="path2" />
    </clipPath>
    <filter
       id="filter5060"
       style="color-interpolation-filters:sRGB"
       width="1.205"
       height="1.288"
       x="-.1"
       y="-.14">
      <feGaussianBlur
         stdDeviation="1.443"
         id="feGaussianBlur5" />
    </filter>
    <clipPath
       id="clipPath5085"
       clipPathUnits="userSpaceOnUse">
      <path
         fill="#2095f2"
         d="m160 247c-7.9134 0-15.037 2.8117-20.945 7.1718l20.94 22.82 20.78-22.9c-5.88-4.31-12.93-7.09-20.78-7.09z"
         id="path8" />
    </clipPath>
    <filter
       id="filter5064"
       style="color-interpolation-filters:sRGB"
       width="1.274"
       height="1.385"
       x="-.14"
       y="-.19">
      <feGaussianBlur
         stdDeviation="1.443"
         id="feGaussianBlur11" />
    </filter>
  </defs>
  <rect
     style="opacity:1;fill:#193644;fill-opacity:1;fill-rule:evenodd;stroke:none;stroke-width:1.03534329;stroke-linecap:round;stroke-linejoin:bevel;stroke-miterlimit:4;stroke-dasharray:none;stroke-dashoffset:0;stroke-opacity:1"
     id="rect4497-3-3"
     width="28.203388"
     height="28.203388"
     x="1.8983059"
     y="1.8983059"
     ry="5.575182" />
  <g
     id="g4580"
     transform="translate(7.1716609,0.4788629)">
    <path
       inkscape:connector-curvature="0"
       id="path8-3"
       d="M 4.1706449,22.827371 A 8.6670351,8.6670351 0 0 1 0.5628818,13.106921 8.6670351,8.6670351 0 0 1 8.8556669,6.8833508 8.6670351,8.6670351 0 0 1 17.180923,13.063416 8.6670351,8.6670351 0 0 1 13.624106,22.802622"
       style="fill:none;stroke:#e2f3f8;stroke-width:2.66677976;stroke-linecap:round;stroke-linejoin:round;stroke-opacity:1" />
    <path
       inkscape:connector-curvature="0"
       id="path12"
       d="m 6.2617049,19.380918 a 4.6672873,4.6672873 0 0 1 -1.848468,-5.223533 4.6672873,4.6672873 0 0 1 4.444767,-3.308504 4.6672873,4.6672873 0 0 1 4.4734681,3.26959 4.6672873,4.6672873 0 0 1 -1.802814,5.239466"
       style="fill:none;stroke:#e2f3f8;stroke-width:2.66702127;stroke-linecap:round;stroke-linejoin:round;stroke-opacity:1" />
    <circle
       id="circle16"
       r="2"
       cy="15.520136"
       cx="8.878336"
       style="fill:#e2f3f8;fill-opacity:1" />
  </g>
</svg>
