<svg xmlns="http://www.w3.org/2000/svg" width="32" height="32" version="1"><rect ry="5.575" y="1.898" x="1.898" height="28.203" width="28.203" fill="#193644" fill-rule="evenodd"/><g transform="translate(7.127 1.15)"><path d="M3.845 24.185c-.661-.236-2.124-1.534-2.869-2.544a9.477 9.477 0 0 1-1.038-1.722 9.994 9.994 0 0 1-.663-6.697 9.818 9.818 0 0 1 2.631-4.638 9.976 9.976 0 0 1 10.669-2.27 10.1 10.1 0 0 1 4.775 3.86c.33.505.828 1.499 1.034 2.064.663 1.82.768 3.962.288 5.857a10.07 10.07 0 0 1-3.73 5.576c-.605.456-.813.551-1.212.551-.503 0-.92-.24-1.176-.675-.115-.197-.13-.268-.13-.652 0-.597.104-.758.837-1.311.988-.745 1.753-1.65 2.265-2.677.3-.602.442-1.001.607-1.707.122-.524.133-.644.133-1.541 0-.83-.015-1.045-.104-1.455-.342-1.57-1.16-3.01-2.264-3.986-1.95-1.725-4.539-2.314-7.005-1.594-2.233.652-4.05 2.387-4.834 4.619-.299.85-.364 1.287-.363 2.416.001.87.017 1.088.105 1.48.152.68.315 1.136.63 1.772a7.216 7.216 0 0 0 2.136 2.577c.664.49.756.576.89.833.183.35.184.852.001 1.202-.306.586-1.013.876-1.613.662z" opacity=".647" paint-order="markers stroke fill"/><path d="M4.17 22.827a8.667 8.667 0 0 1-3.607-9.72 8.667 8.667 0 0 1 8.293-6.224 8.667 8.667 0 0 1 8.325 6.18 8.667 8.667 0 0 1-3.557 9.74" fill="none" stroke="#e2f3f8" stroke-width="2.667" stroke-linecap="round" stroke-linejoin="round"/><path d="M5.91 20.744c-.515-.198-1.407-1.028-1.902-1.772-.752-1.13-1.057-2.216-1.01-3.594.037-1.056.29-1.934.805-2.798.884-1.485 2.303-2.493 4.023-2.86.559-.12 1.762-.117 2.327.004 2.44.524 4.25 2.366 4.732 4.815.12.61.107 1.645-.028 2.284a6.006 6.006 0 0 1-1.76 3.15c-.74.698-1.194.906-1.73.795a1.33 1.33 0 0 1-1.058-1.434c.035-.39.227-.712.607-1.015.7-.558 1.09-1.143 1.284-1.917a3.52 3.52 0 0 0-.079-1.85c-.355-1.055-1.297-1.916-2.372-2.169-.426-.1-1.146-.1-1.545-.001-.458.114-1.118.46-1.455.764a3.377 3.377 0 0 0-.988 3.324c.173.653.601 1.313 1.116 1.721.454.361.576.492.693.742.295.634.015 1.42-.622 1.75-.245.128-.781.159-1.037.06z" opacity=".647" paint-order="markers stroke fill"/><path d="M6.262 19.38a4.667 4.667 0 0 1-1.849-5.223 4.667 4.667 0 0 1 4.445-3.308 4.667 4.667 0 0 1 4.473 3.27 4.667 4.667 0 0 1-1.802 5.239" fill="none" stroke="#e2f3f8" stroke-width="2.667" stroke-linecap="round" stroke-linejoin="round"/><circle cx="8.979" cy="15.621" r="2" opacity=".647"/><circle cx="8.878" cy="15.521" r="2" fill="#e2f3f8"/></g></svg>