<svg xmlns="http://www.w3.org/2000/svg" height="32" width="32"><rect width="28.203" height="28.203" x="1.898" y="1.898" ry="5.575" fill="#f87e3c" fill-rule="evenodd"/><path style="line-height:normal;font-variant-ligatures:normal;font-variant-position:normal;font-variant-caps:normal;font-variant-numeric:normal;font-variant-alternates:normal;font-feature-settings:normal;text-indent:0;text-align:start;text-decoration-line:none;text-decoration-style:solid;text-decoration-color:#000;text-transform:none;text-orientation:mixed;white-space:normal;shape-padding:0;isolation:auto;mix-blend-mode:normal;solid-color:#000;solid-opacity:1" d="M8.028 6a2 2 0 1 0 0 4H19.21s.865.028 1.625.345c.761.317 1.166.45 1.166 1.647s-.405 1.332-1.166 1.649c-.76.317-1.625.345-1.625.345H8.03a2 2 0 0 0-2 2v7.986a2 2 0 1 0 4 0v-5.986h9.18s1.53.028 3.164-.653c1.635-.681 3.627-2.545 3.627-5.34 0-2.797-1.992-4.659-3.627-5.34C20.74 5.973 19.21 6 19.21 6z" color="#000" font-weight="400" font-family="sans-serif" overflow="visible" fill="#fff"/></svg>