<svg xmlns="http://www.w3.org/2000/svg" height="32" width="32"><rect width="28.203" height="28.203" x="1.898" y="1.898" ry="5.575" fill="#3c8cf8" fill-rule="evenodd"/><path style="line-height:normal;font-variant-ligatures:normal;font-variant-position:normal;font-variant-caps:normal;font-variant-numeric:normal;font-variant-alternates:normal;font-feature-settings:normal;text-indent:0;text-align:start;text-decoration-line:none;text-decoration-style:solid;text-decoration-color:#000;text-transform:none;text-orientation:mixed;white-space:normal;shape-padding:0;isolation:auto;mix-blend-mode:normal;solid-color:#000;solid-opacity:1" d="M7.973 5.986A2.003 2.003 0 0 0 6 8.016v15.995a2.003 2.003 0 0 0 3.37 1.464L16 19.287l6.631 6.188A2.003 2.003 0 0 0 26 24.011V8.017a2.003 2.003 0 1 0-4.006 0v11.386l-4.628-4.32a2.003 2.003 0 0 0-2.732 0l-4.628 4.32V8.017a2.003 2.003 0 0 0-2.033-2.031z" color="#000" font-weight="400" font-family="sans-serif" overflow="visible" fill="#fff"/></svg>