<svg xmlns="http://www.w3.org/2000/svg" height="32" width="32"><rect width="28.203" height="28.203" x="1.898" y="1.898" ry="5.575" fill="#50bc34" fill-rule="evenodd"/><path style="line-height:normal;font-variant-ligatures:normal;font-variant-position:normal;font-variant-caps:normal;font-variant-numeric:normal;font-variant-alternates:normal;font-feature-settings:normal;text-indent:0;text-align:start;text-decoration-line:none;text-decoration-style:solid;text-decoration-color:#000;text-transform:none;text-orientation:mixed;white-space:normal;shape-padding:0;isolation:auto;mix-blend-mode:normal;solid-color:#000;solid-opacity:1" d="M12.81 6.028S11.281 6 9.65 6.68c-1.633.68-3.622 2.54-3.622 5.331 0 2.792 1.989 4.652 3.621 5.332 1.633.68 3.16.651 3.16.651h6.382s.866.03 1.627.346c.76.317 1.165.452 1.165 1.649 0 1.196-.405 1.331-1.165 1.648-.761.317-1.627.346-1.627.346H8.023a1.995 1.995 0 1 0 0 3.989H19.19s1.527.028 3.16-.652c1.632-.68 3.62-2.54 3.62-5.331 0-2.792-1.988-4.652-3.62-5.332-1.633-.68-3.16-.651-3.16-.651h-6.382s-.866-.03-1.627-.346c-.76-.317-1.165-.452-1.165-1.649 0-1.196.405-1.331 1.165-1.648.761-.317 1.627-.346 1.627-.346h11.168a1.995 1.995 0 1 0 0-3.989z" color="#000" font-weight="400" font-family="sans-serif" overflow="visible" fill="#fff"/></svg>