<svg xmlns="http://www.w3.org/2000/svg" width="32" height="32" version="1"><rect width="28.203" height="28.203" x="1.898" y="1.898" ry="5.575" fill="#8e8e8e" fill-rule="evenodd"/><path d="M16.043 7.99c-4.227 0-8.031 1.502-11.187 3.831L16.043 24.01l11.101-12.233c-3.143-2.303-6.906-3.787-11.1-3.787z" fill="#4f4f4f"/><path d="M16 11.19a15.064 15.064 0 0 0-9.002 2.97l9.05 9.85 8.954-9.85A15.064 15.064 0 0 0 16 11.19z" fill="#797979"/><path d="M16 14.395c-2.525 0-4.87.828-6.752 2.227l6.787 7.388 6.716-7.388A11.296 11.296 0 0 0 16 14.395z" fill="#ccc"/><g transform="matrix(.9922 0 0 .9922 46.806 4.243)" stroke-width="1.008"><circle r="6.408" cy="17.144" cx="-25.633" fill="#5565cc"/><path d="M-27.235 13.94a3.204 3.204 0 0 0-3.204 3.204 3.204 3.204 0 0 0 3.204 3.204 3.204 3.204 0 0 0 3.204-3.204 3.204 3.204 0 0 0-3.204-3.204zm0 1.602a1.602 1.602 0 0 1 1.602 1.602 1.602 1.602 0 0 1-1.602 1.602 1.602 1.602 0 0 1-1.602-1.602 1.602 1.602 0 0 1 1.602-1.602z" fill="#fff"/><path fill="#fff" d="M-24.832 16.343h4.806v1.602h-4.806zM-20.827 17.945v1.602h-.801v-1.602z"/></g></svg>