<svg xmlns="http://www.w3.org/2000/svg" height="32" width="32" version="1"><rect width="28.203" height="28.203" x="1.898" y="1.898" ry="5.575" fill="#ececec" fill-rule="evenodd"/><g transform="rotate(-90 34.469 31.329)"><circle r="9.469" cy="12.953" cx="50.565" fill="none" stroke="#666" stroke-width="1.157" stroke-linecap="round"/><path d="M53.148 23.501c0-.499-.006-.913-.013-.92-.008-.007-.074.003-.148.022-.179.047-.554.126-.776.162l-.32.053c-.745.124-1.898.114-2.875-.025a10.493 10.493 0 0 1-2.31-.644 10.06 10.06 0 0 1-5.66-6.035 10.03 10.03 0 0 1-.482-2.195 8.258 8.258 0 0 1-.03-.321l-.016-.225H38.983v-.923h1.534l.017-.264c.031-.496.167-1.342.284-1.777.58-2.146 1.685-3.885 3.348-5.264a10.096 10.096 0 0 1 2.772-1.62 9.85 9.85 0 0 1 3.554-.657c.535-.002.742.007 1.13.05.308.033.995.151 1.244.214l.23.057c.034.008.04-.11.046-.934l.006-.943h.898v1.063c0 .585.007 1.081.016 1.104.008.022.031.04.051.04.02 0 .056.01.08.023.025.013.16.072.302.131.672.282 1.602.827 2.143 1.255 1.258.996 2.185 2.121 2.866 3.48.435.868.74 1.795.908 2.758.101.58.17 1.613.14 2.117a9.07 9.07 0 0 1-.159 1.4 9.767 9.767 0 0 1-1.155 3.173.943.943 0 0 0-.085.151c0 .035-.502.77-.69 1.01a10.144 10.144 0 0 1-4.096 3.13l-.308.128-.007 1.066-.006 1.067h-.898zm-1.884-1.557c.53-.049.953-.118 1.422-.231.356-.087.494-.132.47-.154-.023-.024-.299-.162-2.305-1.154-.734-.363-1.355-.683-1.38-.712a.334.334 0 0 1-.068-.295c.015-.054.12-.183.297-.362l.273-.279-1.062-1.063-1.062-1.062-.007.199c-.008.22-.044.32-.152.42-.13.122-.154.126-.766.126-.555 0-.587-.003-.685-.058a.516.516 0 0 1-.163-.163l-.062-.105v-3.678h-4.542v.147c0 .19.066.72.13 1.047a9.087 9.087 0 0 0 1.455 3.477 9.178 9.178 0 0 0 4.24 3.33c.791.3 1.523.472 2.374.558.392.04 1.23.046 1.593.012zm2.564-.59c.028-.01.132-.053.23-.093.789-.318 1.713-.894 2.426-1.512 1.059-.918 1.956-2.164 2.463-3.425l.078-.192c.218-.535.432-1.371.524-2.053.112-.83.077-2.084-.079-2.874a9.112 9.112 0 0 0-1.599-3.682c-.42-.575-1.197-1.382-1.72-1.787a9.662 9.662 0 0 0-2.23-1.293l-.085-.034-3 3-3 3v4.902l1.399 1.398 1.399 1.399.254-.257c.14-.14.292-.272.338-.29a.288.288 0 0 1 .317.065c.038.038.294.525.57 1.084l.937 1.893.435.877.146-.052c.08-.028.169-.061.197-.073zM46.014 10.56V8.671l.057-.102a.516.516 0 0 1 .163-.164c.103-.06.119-.061.688-.061.63 0 .658.005.79.145.098.103.124.19.124.414v.198l2.501-2.502c1.593-1.592 2.49-2.507 2.47-2.519-.068-.038-.85-.183-1.237-.23-.712-.084-1.811-.06-2.49.055a9.772 9.772 0 0 0-2.104.61c-.489.202-1.334.685-1.802 1.03-.891.655-1.746 1.568-2.308 2.465a6.896 6.896 0 0 0-.495.884c-.147.305-.221.479-.386.9-.126.32-.315 1.029-.406 1.514-.039.21-.103.756-.114.968l-.008.173h4.557z" fill="#666"/></g><path d="M18.072 28.23l-.405-.006-.062-.032c-.194-.1-.339-.23-.4-.357-.059-.121-.061-.168-.062-1.15 0-.84.001-.918.02-.985a.401.401 0 0 1 .05-.111c.062-.083.288-.32.804-.848.77-.786 6.664-6.68 6.681-6.68.008 0 .607.58 1.317 1.3l1.303 1.299-3.7 3.702a643.518 643.518 0 0 1-3.471 3.457c-.302.286-.392.359-.47.382-.133.04-.481.046-1.605.03zm7.943-8.87l-1.378-1.24.404-.41c.19-.183.386-.365.436-.403.116-.088.235-.148.38-.192.312-.092.581-.088.906.015.14.044.236.096.358.192.128.1.863.84.947.953.08.107.136.217.178.35.046.146.053.184.06.365.017.42-.076.702-.33 1.001-.07.084-.646.669-.658.669-1.187-.33-.974-.727-1.303-1.3z" fill="#ececec"/><path d="M19.139 27.296l-.327-.005-.05-.026c-.157-.081-.274-.186-.324-.289-.047-.097-.049-.135-.05-.928 0-.678.002-.741.017-.796a.324.324 0 0 1 .04-.09c.05-.067.233-.258.65-.684a846 846 0 0 1 5.013-5.01c.007 0 .486.473 1.064 1.05l1.053 1.05-2.606 2.604a610.112 610.112 0 0 1-2.804 2.792c-.244.23-.317.29-.38.309-.107.032-.388.037-1.296.023zm6.407-7.171l-1.057-1.057.278-.27c.154-.148.312-.294.353-.325a.92.92 0 0 1 .308-.155c.251-.074.469-.07.73.012a.838.838 0 0 1 .29.155c.103.081.697.679.765.77.064.086.11.175.143.283a.839.839 0 0 1 .049.294c.014.34-.061.567-.266.81-.058.067-.523.54-.532.54-.002 0-.48-.476-1.061-1.057z" fill="#46719d"/></svg>