<svg xmlns="http://www.w3.org/2000/svg" height="32" width="32" version="1"><rect width="28.203" height="28.203" x="1.898" y="1.898" ry="5.575" fill="#fb7a24" fill-rule="evenodd"/><path d="M11 6a5 5 0 0 0-5 5 5 5 0 0 0 5 5 5 5 0 0 0-5 5 5 5 0 0 0 5 5 5 5 0 0 0 5-5 5 5 0 0 0-.017-.342 5 5 0 0 0 .017.002 5 5 0 0 0 .012 0A5 5 0 0 0 16 21a5 5 0 0 0 5 5 5 5 0 0 0 5-5 5 5 0 0 0-5-5 5 5 0 0 0-.018.002 5 5 0 0 0 0-.002A5 5 0 0 0 21 16a5 5 0 0 0 5-5 5 5 0 0 0-5-5 5 5 0 0 0-4.988 4.66 5 5 0 0 0-.012 0 5 5 0 0 0-.018 0A5 5 0 0 0 11 6zm9.99 2.975a2 2 0 0 1 1.848 2.812c-.586 1.367-1.093 2.756-2.104 4.012C19.724 17.054 17.992 18 16 18c-1.195 0-1.183.054-1.506.434-.323.38-.857 1.526-1.662 3.367a2 2 0 1 1-3.664-1.602c.782-1.788 1.247-3.142 2.277-4.355C12.476 14.63 14.195 14 16 14c1.008 0 1.178-.161 1.62-.71.44-.547.934-1.657 1.542-3.077a2 2 0 0 1 1.828-1.239zM11 9a2 2 0 0 1 2 2 2 2 0 0 1-2 2 2 2 0 0 1-2-2 2 2 0 0 1 2-2zm10 10a2 2 0 0 1 2 2 2 2 0 0 1-2 2 2 2 0 0 1-2-2 2 2 0 0 1 2-2z" fill="#fff"/></svg>