<svg xmlns="http://www.w3.org/2000/svg" height="32" width="32" version="1"><rect width="28.203" height="28.203" x="1.898" y="1.898" ry="5.575" fill="#fe9700" fill-rule="evenodd"/><path d="M12.636 6.214c-.626 0-1.13.503-1.13 1.129v10.539c0 .626.504 1.13 1.13 1.13h10.539c.625 0 1.13-.504 1.13-1.13v-9.41l2.257-2.258z" fill="#feea3a"/><path d="M5.485 12.989l2.258 2.258v9.41c0 .626.504 1.13 1.13 1.13H19.41c.626 0 1.13-.504 1.13-1.13V14.118c0-.626-.504-1.13-1.13-1.13z" fill="#fff"/><path d="M19.364 12.989c.626 0 1.13.503 1.13 1.129v.753c0-.626-.504-1.13-1.13-1.13H6.19l-.752-.752z" opacity=".1" fill="#fff"/><path d="M12.614 15.247l-.399 2.259h-2.214v.752h2.082l-.4 2.259h-1.682v.753h1.55l-.399 2.258h.753l.399-2.258h1.882l-.399 2.258h.753l.398-2.258h2.591v-.753h-2.458l.4-2.259h2.058v-.752h-1.926l.398-2.259h-.752l-.399 2.259h-1.882l.399-2.259zm.222 3.011h1.882l-.4 2.259h-1.882z" fill="#fe9700" fill-rule="evenodd"/></svg>