<svg xmlns="http://www.w3.org/2000/svg" height="32" width="32"><g fill-rule="evenodd"><path d="M30.102 23.165H1.898v1.361a5.565 5.565 0 0 0 5.577 5.577h17.052a5.563 5.563 0 0 0 5.575-5.577z" fill="#334b54"/><path d="M7.475 1.897a5.565 5.565 0 0 0-5.577 5.577v15.691h28.204V7.474a5.563 5.563 0 0 0-5.575-5.577z" fill="#6ab8d7"/></g><g transform="matrix(.8806 0 0 .8806 48.194 10.088)" stroke-width="1.136" fill="#fff"><rect x="-49.06" y="16.239" width="12" height="4" ry="1.029" rx=".958" opacity=".2"/><rect x="-36.06" y="16.239" width="12" height="4" ry="1.029" rx=".958" opacity=".2"/><path d="M-48.06 17.239h2v2h-2zM-35.06 17.239h2v2h-2z"/></g></svg>