<svg xmlns="http://www.w3.org/2000/svg" width="32" height="32" version="1"><path d="M6.918 29.99V7.63h-5.02v16.897c0 2.892 2.207 5.173 5.02 5.463z" fill="#b7b7b7" fill-rule="evenodd"/><path d="M7.473 1.898a5.563 5.563 0 0 0-5.575 5.577v.156h5.02v22.36c.192.019.358.11.555.11h17.052a5.563 5.563 0 0 0 5.577-5.574V7.475a5.565 5.565 0 0 0-5.577-5.577z" fill="#920000" fill-rule="evenodd"/><g fill="#f8c44e"><path d="M11.615 25.335h2.383v4.767h-2.383zM15.19 25.335h2.384v4.767H15.19zM18.765 25.335h2.384v4.767h-2.384zM22.34 25.335h2.384v4.767h-2.383z"/></g><path d="M18.623 5.707c-1.15.011-2.291.059-2.291.133 0 .071.154.453.34.848.726 1.537 1.234 3.485 1.234 4.734 0 .549-.02.593-.244.56-.194-.028-.303-.214-.545-.933a14.62 14.62 0 0 0-2.205-4.102c-.922-1.188-.63-1.262-2.521.627-1.13 1.127-1.626 1.695-1.534 1.754.076.048.492.224.924.39.433.167 1.03.446 1.326.62.297.174.568.316.602.316.141 0 1.81 1.248 2.168 1.621.303.316.359.433.252.54-.152.152-.116.163-1.793-.577a12.975 12.975 0 0 0-2.078-.681c-1.135-.244-2.893-.464-3.03-.38-.102.064-.119 4.577-.017 4.678.038.039.313-.052.611-.203 1.55-.785 3.744-1.402 4.992-1.402.477 0 .62.04.62.17 0 .296-.042.325-.842.594-.973.326-1.938.782-2.942 1.388-.962.582-2.171 1.532-2.171 1.707 0 .073.727.86 1.617 1.748l1.617 1.614.226-.51c.125-.28.263-.629.309-.773.256-.811 1.618-2.955 2.459-3.874.37-.403.407-.418.582-.244.175.175.172.215-.066.616-.738 1.24-1.397 3.52-1.532 5.306l-.076 1.024h2.375c1.307 0 2.377-.035 2.377-.075 0-.04-.172-.43-.383-.869a13.4 13.4 0 0 1-1.254-4.535c-.069-.71-.054-.814.106-.814.1 0 .216-.004.258-.008.041-.004.236.44.431.984.446 1.24.936 2.212 1.66 3.293.732 1.092 1.224 1.681 1.407 1.684.19.003 3.304-3.127 3.23-3.246-.03-.05-.296-.18-.592-.291-1.47-.552-3.131-1.529-4.273-2.512-.553-.476-.576-.519-.404-.709.175-.194.208-.19.812.125 1.544.803 3.215 1.265 5.143 1.422l.937.074v-2.375c0-1.306-.026-2.375-.058-2.375-.033 0-.35.147-.703.324-1.435.721-3.803 1.362-5.03 1.362-.446 0-.5-.028-.498-.252.002-.214.129-.296.815-.522 1.514-.499 3.2-1.395 4.238-2.254.278-.23.62-.479.76-.552.139-.074.252-.194.252-.264 0-.138-3.139-3.348-3.274-3.348-.044 0-.188.291-.32.647-.542 1.46-2.018 3.862-2.834 4.611-.252.232-.296.24-.43.078-.126-.152-.087-.31.252-1.043.679-1.466.757-1.685.989-2.754.231-1.068.451-2.878.369-3.027-.041-.074-1.2-.1-2.35-.088zm-.828 6.959a1.694 1.694 0 0 1 1.693 1.693 1.694 1.694 0 0 1-1.693 1.696 1.694 1.694 0 0 1-1.695-1.696 1.694 1.694 0 0 1 1.695-1.693z" fill="#b7b7b7"/></svg>