<svg xmlns="http://www.w3.org/2000/svg" height="32" width="32" version="1"><g transform="translate(33.23 4.14)"><path d="M-3.13 17.827h-28.202v2.56a5.563 5.563 0 0 0 5.576 5.575h17.053a5.561 5.561 0 0 0 5.574-5.575z" fill="#ccc" fill-rule="evenodd"/><path d="M-25.756-2.241a5.565 5.565 0 0 0-5.576 5.576v14.492H-3.13V3.335a5.563 5.563 0 0 0-5.574-5.576z" fill="#696992" fill-rule="evenodd"/><path d="M-20.449 4.08c-.245 0-.444.199-.444.444v9.11c0 .338.362.553.657.39L-11.9 9.47a.445.445 0 0 0 0-.78l-7.502-4.099-.833-.455a.442.442 0 0 0-.213-.055z" fill="#fff"/><rect x="-13.231" y="20.639" width="8" height="2" ry="1" fill="#999"/><rect x="-29.231" y="20.639" width="16" height="2" ry="1" opacity=".99" fill="#696992"/><circle r="2" cy="21.64" cx="-13.231" fill="#fff"/></g></svg>