<svg xmlns="http://www.w3.org/2000/svg" height="32" width="32" version="1"><path d="M14.955 10.78l-4.176 1.042-4.177 9.399L16 25.398l6.266-5.22-1.045-6.266-6.266-3.133z" fill="#fff" fill-rule="evenodd"/><path d="M30.102 24.285c-1.343-.804-7.5-4.088-7.836-4.107L16 25.398l-.023-.01v4.714h8.55a5.561 5.561 0 0 0 5.575-5.575z" fill="#c4bea2" fill-rule="evenodd"/><path d="M29.691 5.432c-1.202 1.45-6.195 6.3-8.47 8.48l1.045 6.266 7.836 4.107V7.473c0-.725-.161-1.407-.41-2.041z" fill="#e9e6dd" fill-rule="evenodd"/><path d="M14.955 1.898v8.881l6.266 3.133c2.83-2.785 5.48-5.23 8.47-8.48-.813-2.068-2.8-3.534-5.164-3.534z" fill="#3d65c8" fill-rule="evenodd"/><path d="M1.898 23.291v1.236a5.561 5.561 0 0 0 5.575 5.575h8.504v-4.713l-9.338-4.153-4.74 2.055z" fill="#b0ab84" fill-rule="evenodd"/><path d="M1.898 23.291l4.74-2.055-.036-.015 4.17-9.38-8.71-5.185c-.042.278-.164.527-.164.817V23.29z" fill="#d6d2c0" fill-rule="evenodd"/><path d="M2.063 6.656l8.708 5.186.008-.02 4.176-1.043V1.9H7.473c-2.799 0-5.003 2.076-5.41 4.757z" fill="#dd5639" fill-rule="evenodd"/></svg>