<svg xmlns="http://www.w3.org/2000/svg" width="32" height="32"><rect width="28.203" height="28.203" x="1.898" y="1.898" ry="5.575" fill="#f4b932" fill-rule="evenodd"/><g transform="translate(41.684 -8.421)"><path d="M-24.84 14.421c-6.14 0-9.423 4.39-10.016 9.182-.409 3.299.34 6.386 1.32 8.445 1.434 2.635 1.814 2.786 4.064 1.848a158.946 158.946 0 0 0 12.6-5.95c1.332-.704 1.252-3.543 1.117-5.192-.34-4.112-2.944-8.333-9.085-8.333z" fill="#fff"/><path d="M-26.684 20.564a.95.95 0 0 0-.37.088c-1.508.594-2.317 1.339-4.05 1.558-1.014.128-2.47.154-3.482.03-.582-.078-1.098.387-1.098.99v4.192c0 .564.453 1.015 1 .999 1.571-.12 3.19-.313 4.66-.824 0 0 4.34-1.433 4.34-6.034 0-.563-.453-1.015-1-.999z" fill="#444"/><circle r=".714" cy="22.278" cx="-27.113" fill="#fff"/></g></svg>