<svg xmlns="http://www.w3.org/2000/svg" height="32" width="32" version="1"><rect width="28.203" height="28.203" x="1.898" y="1.898" ry="5.575" fill="#f58411" fill-rule="evenodd"/><path d="M19.255 8.774l-2.832 3.422c-1.558 1.882-2.834 3.46-2.834 3.506 0 .046 1.333 1.758 2.962 3.804l2.96 3.72h3.1c2.469 0 3.085-.022 3.019-.11-.168-.223-5.646-7.12-5.77-7.265-.114-.135.134-.465 2.612-3.458a874.91 874.91 0 0 0 2.86-3.464c.113-.147-.043-.155-2.978-.155zm-12.087 0s5.238 6.922 5.132 6.899c.012.034-1.2 1.597-2.695 3.474a2472.606 2472.606 0 0 0-2.98 3.746l-.26.333h6.213l1.453-1.821c1.008-1.264 1.428-1.854 1.372-1.929-.045-.058-.736-.934-1.539-1.943l-1.458-1.836 1.527-1.841c.84-1.012 1.518-1.848 1.509-1.857z" clip-rule="evenodd" fill="#fff" fill-rule="evenodd" image-rendering="optimizeQuality" shape-rendering="geometricPrecision"/></svg>