<svg xmlns="http://www.w3.org/2000/svg" width="32" height="32"><g fill-rule="evenodd"><path d="M16.015 8.432a7.569 7.569 0 0 0-.535.02 7.569 7.569 0 0 0-.752.089 7.569 7.569 0 0 0-.739.166 7.569 7.569 0 0 0-.716.238 7.569 7.569 0 0 0-.692.309 7.569 7.569 0 0 0-.656.377 7.569 7.569 0 0 0-.615.44 7.569 7.569 0 0 0-.569.5 7.569 7.569 0 0 0-.515.554 7.569 7.569 0 0 0-.457.602 7.569 7.569 0 0 0-.397.644 7.569 7.569 0 0 0-.328.682 7.569 7.569 0 0 0-.26.71 7.569 7.569 0 0 0-.187.733 7.569 7.569 0 0 0-.113.748 7.569 7.569 0 0 0-.038.756 7.569 7.569 0 0 0 .02.535 7.569 7.569 0 0 0 .09.752 7.569 7.569 0 0 0 .166.738 7.569 7.569 0 0 0 .238.717 7.569 7.569 0 0 0 .309.692 7.569 7.569 0 0 0 .377.656 7.569 7.569 0 0 0 .44.615 7.569 7.569 0 0 0 .5.568 7.569 7.569 0 0 0 .554.516 7.569 7.569 0 0 0 .601.457 7.569 7.569 0 0 0 .645.397 7.569 7.569 0 0 0 .682.328 7.569 7.569 0 0 0 .71.26 7.569 7.569 0 0 0 .733.187 7.569 7.569 0 0 0 .748.113 7.569 7.569 0 0 0 .756.037 7.569 7.569 0 0 0 .535-.02 7.569 7.569 0 0 0 .752-.089 7.569 7.569 0 0 0 .738-.166 7.569 7.569 0 0 0 .717-.238 7.569 7.569 0 0 0 .691-.309 7.569 7.569 0 0 0 .657-.377 7.569 7.569 0 0 0 .615-.44 7.569 7.569 0 0 0 .568-.5 7.569 7.569 0 0 0 .516-.554 7.569 7.569 0 0 0 .457-.602 7.569 7.569 0 0 0 .396-.644 7.569 7.569 0 0 0 .329-.682 7.569 7.569 0 0 0 .26-.71 7.569 7.569 0 0 0 .187-.733 7.569 7.569 0 0 0 .113-.748 7.569 7.569 0 0 0 .037-.756 7.569 7.569 0 0 0-.02-.535 7.569 7.569 0 0 0-.09-.752 7.569 7.569 0 0 0-.165-.738 7.569 7.569 0 0 0-.238-.717 7.569 7.569 0 0 0-.31-.692 7.569 7.569 0 0 0-.376-.656 7.569 7.569 0 0 0-.44-.615 7.569 7.569 0 0 0-.5-.568 7.569 7.569 0 0 0-.554-.516 7.569 7.569 0 0 0-.602-.457 7.569 7.569 0 0 0-.644-.397 7.569 7.569 0 0 0-.682-.328 7.569 7.569 0 0 0-.71-.26 7.569 7.569 0 0 0-.733-.187 7.569 7.569 0 0 0-.748-.113 7.569 7.569 0 0 0-.756-.037z" fill="#8e8e8e"/><path d="M22.847 19.234c.002-.004.007-.005.01-.01.005-.008.004-.02.01-.029a7.569 7.569 0 0 1-.02.04z" fill="#8e8e8e"/><path d="M4.185 28.904c.704.296 1.404.614 2.144.791a14.067 14.067 0 0 0 6.03.12 13.942 13.942 0 0 0 6.945-3.606 14.122 14.122 0 0 0 3.047-4.229 14.126 14.126 0 0 0 1.307-5.21c-.027.246-.161.418-.212.648a7.569 7.569 0 0 1-.013.086 7.569 7.569 0 0 1-.188.732 7.569 7.569 0 0 1-.26.711 7.569 7.569 0 0 1-.119.248c-.005.009-.004.021-.01.03-.002.004-.007.005-.01.01a7.569 7.569 0 0 1-.189.394 7.569 7.569 0 0 1-.396.645 7.569 7.569 0 0 1-.457.601 7.569 7.569 0 0 1-.516.555 7.569 7.569 0 0 1-.568.5 7.569 7.569 0 0 1-.615.44 7.569 7.569 0 0 1-.657.376 7.569 7.569 0 0 1-.691.309 7.569 7.569 0 0 1-.717.238 7.569 7.569 0 0 1-.738.166 7.569 7.569 0 0 1-.752.09 7.569 7.569 0 0 1-.234.008c.017.019-.444.125-.301.125a13.993 13.993 0 0 1-7.873-2.404 14.173 14.173 0 0 1-3.805-3.805 14.057 14.057 0 0 1-2.119-5.035 14.162 14.162 0 0 1 .102-6.124c.177-.74.494-1.44.79-2.144-.703.933-1.197 2.038-1.197 3.303v17.054c0 1.825.925 3.362 2.272 4.377z" fill="#ff5757"/><path d="M19.25 9.168c-.005-.002-.007-.007-.01-.01-.009-.005-.021-.005-.03-.01a7.569 7.569 0 0 1 .04.02z" fill="#8e8e8e"/><path d="M3.11 4.17c-.358.474-.837 1.222-1.05 2.007-.297 1.1-.13 2.312-.13 3.42 0 .973.1 1.924.288 2.84a13.966 13.966 0 0 0 2.12 5.036 14.145 14.145 0 0 0 6.194 5.101 13.99 13.99 0 0 0 5.483 1.108c-.143 0 .318-.106.3-.125-.1.006-.2.01-.3.011a7.567 7.567 0 0 1-2.236-.338 7.57 7.57 0 0 1-4.133-3.14 7.569 7.569 0 0 1-1.09-2.803A7.569 7.569 0 0 1 8.446 16c.004-.143.01-.285.022-.428-.05-.113-.109-.227-.098-.34 0-.003.004-.006.004-.01a14.003 14.003 0 0 1 1.307-5.207 14.123 14.123 0 0 1 7.428-7.062 13.936 13.936 0 0 1 5.308-1.037c1.12 0 2.247.03 3.288.28.762.182 1.426.596 2.134.896-.932-.701-2.035-1.194-3.297-1.194H7.487c-1.824 0-3.36.926-4.376 2.272z" fill="#baff41"/><path d="M28.92 27.83c.471-.687.848-1.329 1.021-2.07.252-1.073.158-2.247.158-3.358a14.137 14.137 0 0 0-1.037-5.31 14.116 14.116 0 0 0-9.574-8.322 14.126 14.126 0 0 0-2.704-.413c.247.026.418.161.649.211l.086.014a7.569 7.569 0 0 1 1.443.447c.084.039.166.078.248.12.009.004.021.004.03.01.003.002.005.007.01.009.133.06.264.123.394.19a7.569 7.569 0 0 1 1.246.853 7.569 7.569 0 0 1 1.871 2.355A7.569 7.569 0 0 1 23.583 16c0 .252-.012.505-.037.756a7.566 7.566 0 0 1-.1.662c.05-.23.185-.402.211-.648a14.126 14.126 0 0 1-1.306 5.21 14.122 14.122 0 0 1-7.428 7.067 14.137 14.137 0 0 1-8.594.648c-.74-.177-1.44-.495-2.144-.79.933.703 2.038 1.197 3.303 1.197h17.054c1.824 0 3.362-.926 4.377-2.272z" fill="#ff8514"/><path d="M22.417 1.916a13.936 13.936 0 0 0-5.309 1.037 14.123 14.123 0 0 0-7.428 7.063 14.003 14.003 0 0 0-1.306 5.207c0 .003-.004.006-.004.01-.01.113.048.226.098.34.003-.11.008-.22.016-.329a7.569 7.569 0 0 1 7.53-6.812c.253 0 .506.012.757.037.222.023.443.056.662.1-.23-.051-.402-.186-.649-.212a14.126 14.126 0 0 1 5.211 1.309 14.116 14.116 0 0 1 7.067 7.426 14.137 14.137 0 0 1 .648 8.594c-.178.74-.495 1.44-.79 2.144.703-.933 1.196-2.038 1.196-3.303V7.473c0-1.827-.927-3.366-2.277-4.381-.513-.37-1.553-1.039-2.536-1.134-1.067-.102-1.767-.042-2.886-.042z" fill="#ffc42e"/></g></svg>