<svg xmlns="http://www.w3.org/2000/svg" height="32" width="32" version="1"><rect width="28.203" height="28.203" x="1.898" y="1.898" ry="5.575" fill="#4f4f4f" fill-rule="evenodd"/><path d="M20.518 10.286c-.426.022-.898.12-1.428.276l-.458-.281-8.772 5.263c1.337-.513 2.456-.756 3.142-.812l-2.265 2.567 1.76-.965c-.722 2.009-1.57 3.892-3.515 4.75-.01.026-.01.055-.02.081 1.48 1.658 3.487 2.833 5.77 3.15l1.25 1.73.049-.014 1.236-1.715c2.407-.336 4.512-1.617 6.012-3.42a1.08 1.08 0 0 0-.262-.028c-2.77.024-4.995-.426-5.263-3.452-.072-.383-.133-2.848 3.947-4.065-.411-.265-1.78-.284-2.755-.286-.042-.36.046-1.733 3.194-1.907-.494-.476-.913-.91-1.623-.872zm-2.63 1.065c.201.082.227.205.264.338-.352.068-.848.227-.986.046-.063-.062.368-.291.725-.378z" fill="#ee4f47"/><path d="M11.203 5.897c-3.9 1.752-6.607 5.571-6.607 10.01 0 6.097 5.106 11.04 11.405 11.04 6.297 0 11.403-4.944 11.403-11.04 0-4.384-2.64-8.166-6.463-9.94l-.119.114c3.018 1.64 4.827 4.76 4.827 8.35 0 4.82-3.597 9.218-8.382 9.885L16 26.07l-1.267-1.754C9.949 23.649 6.35 19.25 6.35 14.43c0-3.627 1.854-6.773 4.922-8.398-.02-.043-.05-.092-.071-.138" fill="#309be8"/></svg>