<svg xmlns="http://www.w3.org/2000/svg" height="32" width="32" version="1"><path d="M1.898 7.762v16.765a5.563 5.563 0 0 0 5.577 5.575h17.052a5.561 5.561 0 0 0 5.575-5.575V7.762z" fill="#ccc" fill-rule="evenodd"/><path d="M22.633 1.898c-.03.081-.133.078-.133.174v2.782c0 .337.21.609.469.609h1.062c.26 0 .469-.272.469-.61v-2.78c0-.097-.103-.094-.133-.175h-1.734zM17.633 1.898c-.03.081-.133.078-.133.174v2.782c0 .337.21.609.469.609h1.062c.26 0 .469-.272.469-.61v-2.78c0-.097-.103-.094-.133-.175h-1.734zM12.633 1.898c-.03.081-.133.078-.133.174v2.782c0 .337.21.609.469.609h1.062c.26 0 .469-.272.469-.61v-2.78c0-.097-.103-.094-.133-.175h-1.734z" fill="#f7c13e" fill-rule="evenodd"/><path d="M7.633 1.898h-.158a5.565 5.565 0 0 0-5.577 5.577v.287h28.204v-.287a5.563 5.563 0 0 0-5.575-5.577h-.16c.03.081.133.078.133.174v2.782c0 .337-.21.609-.469.609H22.97c-.26 0-.469-.272-.469-.61v-2.78c0-.097.103-.094.133-.175h-3.266c.03.081.133.078.133.174v2.782c0 .337-.21.609-.469.609H17.97c-.26 0-.469-.272-.469-.61v-2.78c0-.097.103-.094.133-.175h-3.266c.03.081.133.078.133.174v2.782c0 .337-.21.609-.469.609H12.97c-.26 0-.469-.272-.469-.61v-2.78c0-.097.103-.094.133-.175H9.367c.03.081.133.078.133.174v2.782c0 .337-.21.609-.469.609H7.97c-.26 0-.469-.272-.469-.61v-2.78c0-.097.103-.094.133-.175z" fill="#4f4f4f" fill-rule="evenodd"/><path d="M7.633 1.898c-.03.081-.133.078-.133.174v2.782c0 .337.21.609.469.609H9.03c.26 0 .469-.272.469-.61v-2.78c0-.097-.103-.094-.133-.175H7.633z" fill="#f7c13e" fill-rule="evenodd"/><path d="M11.49 12.992a1 1 0 0 0-.697 1.717l3.793 3.793-3.793 3.794a1 1 0 1 0 1.414 1.413l3.794-3.794 3.792 3.794a1 1 0 1 0 1.414-1.413l-3.793-3.794 3.793-3.793a1 1 0 0 0-1.414-1.414L16 17.088l-3.794-3.793a1 1 0 0 0-.718-.303z" fill="#4f4f4f"/></svg>