<svg xmlns="http://www.w3.org/2000/svg" height="32" width="32" version="1"><rect width="28.203" height="28.203" x="1.898" y="1.898" ry="5.575" fill="#ececec" fill-rule="evenodd"/><g stroke-width=".755"><path d="M10.77 18.982v-5.964l5.112-2.981 5.11 2.981v5.964l-5.11 2.981-5.111-2.981z" fill="#d6ac12"/><path d="M16.734 4.074v4.892l5.11 2.775 4.26-2.556z" fill="#8fb635"/><path d="M15.03 4.074v4.892l-5.112 2.775-4.26-2.556z" fill="#3895bd"/><path d="M26.933 10.441l-4.236 2.446.153 5.814 4.343 2.41z" fill="#d18c3b"/><path d="M5.066 10.441l4.238 2.446-.154 5.814-4.343 2.41z" fill="#3941bf"/><path d="M16.734 27.926v-4.892l5.11-2.775 4.26 2.556z" fill="#a02c35"/><path d="M15.03 27.926v-4.892l-5.112-2.775-4.26 2.556z" fill="#bb3a84"/></g></svg>