<svg xmlns="http://www.w3.org/2000/svg" height="32" width="32"><path d="M7.533 2h16.934A5.535 5.535 0 0 1 30 7.533v16.934A5.535 5.535 0 0 1 24.467 30H7.533A5.535 5.535 0 0 1 2 24.467V7.533A5.535 5.535 0 0 1 7.533 2zm0 0" fill="#ffc933" fill-rule="evenodd"/><path d="M13.389 24.846c-.031-.05.24-.487.602-.97.929-1.237 1.433-2.012 1.02-2.49-.17-.197-.401-.422-1.783-.422-2.991 0-4.217-.58-5.145-1.584-1.276-1.381-1.7-4.193-1.044-6.538.769-2.75 3.71-4.784 8.087-5.593 2.852-.373 6.261-.35 8.39 1.705 1.887 1.882 2.305 5.362.977 8.128-.87 1.81-2.452 3.375-4.426 3.899-.692.184-.78.248-1.837 1.358-1.13 1.186-2.648 1.915-3.704 2.366-.566.242-1.038.301-1.137.141z" fill="#f9f9f9"/></svg>