<svg xmlns="http://www.w3.org/2000/svg" height="32" width="32" version="1"><g transform="translate(60.475 3.525)"><rect ry="5.575" y="-1.627" x="-58.576" height="28.203" width="28.203" fill="#6ab8d7" fill-rule="evenodd"/><path d="M-51.467 3.126v1h-.5c-.831 0-1.5.669-1.5 1.5s.669 1.5 1.5 1.5h.5v1h-1.909c.206.582.754 1 1.409 1h.5v1h1v-1h.5c.83 0 1.5-.669 1.5-1.5s-.67-1.5-1.5-1.5h-.5v-1h1.908c-.206-.582-.754-1-1.408-1h-.5v-1h-1zm-.5 2h.5v1h-.5a.499.499 0 1 1 0-1zm1.5 2h.5c.277 0 .5.223.5.5s-.224.513-.5.5h-.5zm4 2v1h6v-1z" fill="#fff"/></g></svg>