<svg xmlns="http://www.w3.org/2000/svg" version="1" height="32" width="32"><rect ry="5.575" y="1.898" x="1.898" height="28.203" width="28.203" fill="#b4ced7" fill-rule="evenodd"/><path d="M15.343 9.754c-4.603 0-3.532 4.057-5.888 5.324-2.391 1.356-1.074 2.57-.687 3.88.653 2.186 2.482.642 7.89-.657 5.407-1.298 6.57-1.102 5.916-3.287-.391-1.296.894-2.497-1.9-2.611-2.272.124-2.044-2.649-5.331-2.649z"/><ellipse transform="matrix(.97235 -.23352 .28643 .9581 0 0)" ry="4.129" rx="10.069" cy="20.284" cx="10.48" fill="#0084ff"/><ellipse transform="matrix(.97263 -.23237 .21506 .9766 0 0)" ry="2.073" rx="4.709" cy="23.273" cx="11.98" fill="#fff"/></svg>