<svg xmlns="http://www.w3.org/2000/svg" width="32" height="32" version="1"><rect width="28.203" height="28.203" x="1.898" y="1.898" ry="5.575" fill="#606060" fill-rule="evenodd"/><path d="M15.343 9.754c-4.603 0-3.532 4.057-5.888 5.324-2.391 1.356-1.074 2.57-.687 3.88.653 2.186 2.482.642 7.89-.657 5.407-1.298 6.57-1.102 5.916-3.287-.391-1.296.894-2.497-1.9-2.611-2.272.124-2.044-2.649-5.331-2.649z"/><ellipse cx="10.48" cy="20.284" rx="10.069" ry="4.129" transform="matrix(.97235 -.23352 .28643 .9581 0 0)" fill="#0084ff"/><ellipse cx="11.98" cy="23.273" rx="4.709" ry="2.073" transform="matrix(.97263 -.23237 .21506 .9766 0 0)" fill="#fff"/></svg>