<svg xmlns="http://www.w3.org/2000/svg" height="32" width="32" version="1"><rect width="28.203" height="28.203" x="1.898" y="1.898" ry="5.575" fill="#fabd7f" fill-rule="evenodd"/><path d="M12.035 7.864a.917.917 0 0 0-.91.928v9.266L8.32 15.193a.895.895 0 0 0-1.286 0l-.643.657a.94.94 0 0 0 0 1.313l4.89 4.992a5.458 5.572 0 0 0 5.304 4.282 5.458 5.572 0 0 0 5.458-5.572V8.792a.917.917 0 0 0-.91-.928h-.909a.917.917 0 0 0-.91.928v5.24c0-.33-.405-.596-.91-.596h-.91c-.503 0-.909.265-.909.596v.003c0-.332-.406-.6-.91-.6h-.91c-.503 0-.91.268-.91.6V8.792a.917.917 0 0 0-.909-.928h-.91z" fill="#fff"/><path d="M12.533 8.168c-.503 0-.952.32-.952 1.088 0 .77.407 1.394.91 1.394.502 0 .91-.624.91-1.394 0-.769-.366-1.088-.868-1.088zm8.145 0c-.503 0-.91.32-.91 1.088 0 .77.408 1.394.91 1.394s.91-.624.91-1.394c0-.769-.407-1.088-.91-1.088zm-13.3 7.27c-.125.01-.262.076-.425.172-.435.256-.9.63-.522 1.296.376.666 1.035.998 1.47.742.435-.257.482-1.005.106-1.67-.236-.417-.418-.557-.628-.54z" fill="#facea2"/><path d="M12.035 7.864a.917.917 0 0 0-.91.928v9.266L8.32 15.193a.895.895 0 0 0-1.286 0l-.643.657a.94.94 0 0 0 0 1.313l4.89 4.992c.584 2.509 2.778 4.28 5.304 4.282 3.015 0 5.458-2.494 5.458-5.572V8.792a.917.917 0 0 0-.91-.928h-.909a.917.917 0 0 0-.91.928v5.24c0-.33-.405-.596-.91-.596h-.91c-.503 0-.909.265-.909.596v.003c0-.332-.406-.6-.91-.6h-.91c-.503 0-.91.268-.91.6V8.792a.917.917 0 0 0-.909-.928zm0 .696h.91c.138 0 .228.092.228.232v8.215c.013.817 1.154.901 1.345.108.04-.022.126-2.983.247-2.983h.91c.12 0 .205 2.497.246 2.518.17.708 1.156.708 1.326 0 .042-.021.126-2.518.247-2.518h.91c.12 0 .206 3.1.247 3.122.194.79 1.331.703 1.345-.111v-8.35c0-.141.09-.233.227-.233h.91c.138 0 .227.092.227.232v12.073c0 2.701-2.13 4.876-4.775 4.876-2.214-.002-4.13-1.549-4.642-3.747a.7.7 0 0 0-.181-.331l-4.89-4.992c-.097-.1-.097-.229 0-.328l.643-.657c.098-.1.224-.1.322 0l2.806 2.865c.43.438 1.165.128 1.165-.493V8.792c0-.14.09-.232.228-.232z" fill="#e8a560"/></svg>