<svg xmlns="http://www.w3.org/2000/svg" height="32" width="32" version="1"><rect width="28.203" height="28.203" x="1.898" y="1.898" ry="5.575" fill="#5db43e" fill-rule="evenodd"/><path d="M16.017 7.187c1.753.004 3.531.582 4.92 1.726.976 1.19-.884 2.463-1.722 1.303-2.522-1.614-6.079-1.045-7.976 1.368-1.01 1.198-1.579 2.796-1.572 4.4h1.667l-2.667 4.23L6 15.985h1.667c-.053-3.83 2.551-7.474 6.048-8.466a7.956 7.956 0 0 1 2.302-.331zm7.317 4.583L26 16.002h-1.667c.047 3.877-2.624 7.561-6.181 8.501-2.401.71-5.116.192-7.089-1.43-1.007-1.21.88-2.472 1.725-1.301 2.443 1.568 5.865 1.07 7.794-1.17 1.117-1.217 1.76-2.903 1.751-4.6h-1.667l2.667-4.231z" fill="#fff"/></svg>