<svg xmlns="http://www.w3.org/2000/svg" height="32" width="32" version="1"><g transform="translate(45.435 2.888)"><rect ry="5.575" y="-.99" x="-43.537" height="28.203" width="28.203" fill="#e9a84a" fill-rule="evenodd"/><path d="M-23.795 12.312c-.42-.012-.47-.025-.54-.137a3.057 3.057 0 0 1-.1-.461c-.072-.438-.116-.57-.216-.64a7.645 7.645 0 0 0-.882-.383c-.117-.022-.204.017-.592.268-.515.333-.516.333-.838 0l-.518-.543c-.28-.298-.28-.298-.28-.403 0-.1.013-.126.26-.476.361-.515.355-.467.143-1.02-.172-.446-.23-.544-.358-.595a6.828 6.828 0 0 0-.467-.111 4.905 4.905 0 0 1-.452-.11.3.3 0 0 1-.084-.092c-.038-.062-.042-.11-.04-.45.002-.209.007-.544.016-.744l.014-.364.069-.068c.065-.066.089-.073.526-.15.533-.094.598-.124.686-.315.152-.332.303-.69.32-.757.031-.131-.007-.22-.256-.605a4.933 4.933 0 0 1-.253-.417c-.046-.132-.002-.194.443-.623.627-.605.632-.609.756-.609.097 0 .125.016.471.261.369.262.485.319.6.296.034-.007.24-.082.458-.167.408-.158.51-.22.558-.344.013-.031.062-.241.11-.467.047-.225.101-.433.12-.461a.32.32 0 0 1 .104-.088c.063-.033.14-.035.776-.02.514.011.721.023.761.044.118.06.131.097.219.588.109.612.077.57.61.805.22.097.434.183.474.19.122.025.22-.018.592-.26a3.76 3.76 0 0 1 .422-.25c.134-.037.193.004.563.389.699.727.665.685.665.805 0 .1-.014.125-.262.474-.264.373-.318.482-.294.606.007.038.082.244.166.459.157.4.22.502.344.551.031.013.242.062.469.11.226.05.434.103.461.121a.317.317 0 0 1 .086.102c.032.062.034.142.02.777-.017.776-.02.797-.154.873a3.06 3.06 0 0 1-.477.106c-.43.073-.518.1-.595.181-.053.056-.387.809-.407.917-.021.114.022.207.274.597.13.2.238.386.24.415.014.145 0 .177-.137.309-.652.628-.917.877-.948.89a.475.475 0 0 1-.125.016c-.079.001-.126-.026-.444-.252-.405-.287-.472-.322-.597-.304-.096.013-.82.29-.906.348-.095.062-.143.188-.234.618-.049.23-.105.443-.125.473-.082.126-.133.13-1.215.098z" fill="#a47634"/><path d="M-30.583 23.985c-.115-.053-.144-.088-.381-.459-.52-.813-.503-.791-.684-.887l-.11-.058-.69-.007c-.766-.008-.823 0-.978.128-.045.037-.252.319-.46.627-.367.54-.384.562-.488.607-.194.084-.076.124-1.704-.575a9.146 9.146 0 0 1-.527-.238.482.482 0 0 1-.112-.156c-.07-.142-.076-.084.112-.95.136-.623.138-.672.036-.86-.084-.155-.954-1.033-1.075-1.085-.179-.076-.213-.074-.926.063-.405.077-.704.125-.738.117a.47.47 0 0 1-.258-.167 20.2 20.2 0 0 1-.43-1.026c-.355-.882-.384-.965-.376-1.067.016-.2.052-.234.67-.63.31-.2.59-.393.622-.43a.892.892 0 0 0 .103-.167c.043-.093.046-.132.046-.826 0-.703-.003-.731-.047-.815-.072-.135-.155-.203-.69-.564-.274-.185-.52-.358-.548-.384a.436.436 0 0 1-.112-.318c.012-.091.782-1.91.852-2.013a.47.47 0 0 1 .142-.118c.13-.07.2-.062.889.09.313.07.604.122.674.122.223 0 .302-.056.83-.578.518-.514.567-.583.567-.8 0-.06-.055-.392-.122-.736-.11-.57-.119-.633-.095-.726.05-.2.078-.216 1.15-.644 1.053-.42 1.088-.43 1.262-.34.075.037.13.108.354.45.146.224.314.484.373.578.117.186.184.248.344.319.097.043.144.046.814.05l.71.003.11-.058a.751.751 0 0 0 .165-.12c.031-.033.22-.303.42-.598.328-.485.372-.541.46-.584.174-.084.225-.069 1.268.378.519.223.968.428.997.455a.492.492 0 0 1 .135.288c0 .036-.059.338-.13.67-.074.341-.13.66-.13.729 0 .216.05.288.589.833.429.434.499.496.593.527a.779.779 0 0 0 .197.035c.049 0 .365-.054.703-.12.338-.066.641-.12.673-.12a.47.47 0 0 1 .29.147c.032.037.223.483.443 1.03.43 1.07.434 1.088.328 1.268-.048.082-.127.14-.581.428-.29.184-.572.379-.628.433-.158.155-.169.208-.186.956-.016.71-.006.799.116.966.04.055.249.21.625.466.506.342.57.393.614.48.093.183.089.198-.364 1.26-.452 1.06-.461 1.075-.662 1.132-.09.025-.14.017-.758-.117-.363-.08-.684-.144-.713-.144-.127 0-.355.1-.435.189-.019.022-.227.23-.462.462-.368.366-.432.439-.47.54a.713.713 0 0 0-.043.2c0 .048.054.368.121.712.077.393.118.656.11.708a.428.428 0 0 1-.204.295c-.045.022-.5.208-1.01.413-.637.255-.955.372-1.012.372a.491.491 0 0 1-.168-.04z" fill="#fff"/><circle r="3.787" cy="16.048" cx="-32.394" fill="#e9a84a"/><circle r="2.445" cy="6.919" cx="-23.348" fill="#e9a84a"/></g></svg>