<svg xmlns="http://www.w3.org/2000/svg" width="32" height="32" version="1"><rect width="28.203" height="28.203" x="1.898" y="1.898" ry="5.575" fill="#5b5b5b" fill-rule="evenodd"/><g fill="#8e8e8e" stroke-width="1.166"><path d="M27.15 19.43v.858H4.85v-.857zM27.15 22.003v.858H4.85v-.858zM27.15 24.576v.858H4.85v-.858zM27.15 11.712v.857H4.85v-.857zM27.15 14.285v.857H4.85v-.857zM27.15 16.858v.857H4.85v-.857zM27.15 9.139v.858H4.85v-.858zM27.15 6.566v.858H4.85v-.858z"/><path d="M12.57 27.15h-.858V4.85h.857zM9.997 27.15h-.858V4.85h.858zM7.424 27.15h-.858V4.85h.858zM20.288 27.15h-.857V4.85h.857zM17.715 27.15h-.857V4.85h.857zM15.142 27.15h-.857V4.85h.857zM22.861 27.15h-.858V4.85h.858zM25.434 27.15h-.858V4.85h.858z"/></g><rect width="20.583" height="20.583" x="-26.292" y="-26.292" rx="1.072" ry="1.072" transform="matrix(0 -1 -1 0 0 0)" fill="#b7b7b7"/><path fill="#666" d="M8.281 11.712h5.146v.858H8.281zM14.285 11.712h2.573v.858h-2.573zM17.715 11.712h6.003v.858h-6.003zM8.281 15.142h6.861V16H8.281zM16 15.142h6.861V16H16zM8.281 18.573h2.573v.858H8.281zM11.712 18.573h2.573v.858h-2.573zM15.142 18.573h5.146v.858h-5.146z"/></svg>