<svg xmlns="http://www.w3.org/2000/svg" xmlns:xlink="http://www.w3.org/1999/xlink" width="32" height="32" version="1"><defs><linearGradient id="c"><stop offset="0" stop-color="#cecabd"/><stop offset="1" stop-color="#868171"/></linearGradient><linearGradient id="b"><stop offset="0" stop-color="#ffd489"/><stop offset="1" stop-color="#767054"/></linearGradient><linearGradient id="a"><stop offset="0" stop-color="#87651e"/><stop offset="1" stop-color="#929044"/></linearGradient><linearGradient xlink:href="#a" id="e" x1=".411" y1="20.284" x2="20.549" y2="20.284" gradientUnits="userSpaceOnUse"/><linearGradient xlink:href="#b" id="d" x1="22.297" y1="14.999" x2="12.094" y2="9.833" gradientUnits="userSpaceOnUse"/><radialGradient xlink:href="#c" id="f" cx="9.736" cy="23.362" fx="9.736" fy="23.362" r="4.709" gradientTransform="matrix(.28066 2.40196 -1.93003 -.1629 53.835 .29)" gradientUnits="userSpaceOnUse"/></defs><rect width="28.203" height="28.203" x="1.898" y="1.898" ry="5.575" fill="#22264e" fill-rule="evenodd"/><path d="M15.343 9.754c-4.603 0-3.532 4.057-5.888 5.324-2.391 1.356-1.074 2.57-.687 3.88.653 2.186 2.482.642 7.89-.657 5.407-1.298 6.57-1.102 5.916-3.287-.391-1.296.894-2.497-1.9-2.611-2.272.124-2.044-2.649-5.331-2.649z" fill="url(#d)"/><ellipse cx="10.48" cy="20.284" rx="10.069" ry="4.129" transform="matrix(.97235 -.23352 .28643 .9581 0 0)" fill="url(#e)"/><ellipse cx="11.98" cy="23.273" rx="4.709" ry="2.073" transform="matrix(.97263 -.23237 .21506 .9766 0 0)" fill="url(#f)"/></svg>