<svg xmlns="http://www.w3.org/2000/svg" height="32" width="32"><rect width="28.203" height="28.203" x="1.898" y="1.898" ry="5.575" fill="#9aca3c" fill-rule="evenodd"/><g fill="none" stroke="#fff" stroke-width="3" stroke-linecap="round" stroke-linejoin="round"><path d="M11.5 22.5l10-13M10.5 9.5l5.2 6.5"/></g><g transform="matrix(.75 0 0 .75 4.105 4.75)" stroke-width="1.333"><circle cy="23" r="8" cx="24" fill="#d939a1"/><path d="M22.964 19l-.088 1.054a3.143 3.143 0 0 0-.918.53l-.958-.45-1 1.732.87.604a3.143 3.143 0 0 0-.049.53 3.143 3.143 0 0 0 .046.532l-.867.602 1 1.732.955-.45a3.143 3.143 0 0 0 .921.528L22.964 27h2l.089-1.054a3.143 3.143 0 0 0 .918-.53l.958.45 1-1.732-.87-.604a3.143 3.143 0 0 0 .048-.53 3.143 3.143 0 0 0-.045-.532l.867-.602-1-1.732-.956.45a3.143 3.143 0 0 0-.92-.528L24.963 19h-2zm1 2.857A1.143 1.143 0 0 1 25.107 23a1.143 1.143 0 0 1-1.143 1.143A1.143 1.143 0 0 1 22.821 23a1.143 1.143 0 0 1 1.143-1.143z" fill="#fff"/></g></svg>