<svg xmlns="http://www.w3.org/2000/svg" height="32" width="32"><rect width="28.203" height="28.203" x="1.898" y="1.898" ry="5.575" fill="#9aca3c" fill-rule="evenodd"/><g fill="none" stroke="#fff" stroke-width="3" stroke-linecap="round" stroke-linejoin="round"><path d="M11.5 22.5l10-13M10.5 9.5l5.2 6.5"/></g><g transform="matrix(.75 0 0 .75 4.21 4.75)" stroke-width="1.333"><circle cy="23" r="8" cx="24" fill="#4f4f4f"/><path d="M22 19a4 4 0 0 0-4 4 4 4 0 0 0 4 4 4 4 0 0 0 3.87-3H28v2h1v-2h1v-2h-4.133A4 4 0 0 0 22 19zm0 2a2 2 0 0 1 2 2 2 2 0 0 1-2 2 2 2 0 0 1-2-2 2 2 0 0 1 2-2z" fill="#fff"/></g></svg>