<svg xmlns="http://www.w3.org/2000/svg" width="32" height="32"><rect width="28.203" height="28.203" x="1.898" y="1.898" ry="5.575" fill="#2caac6" fill-rule="evenodd"/><path d="M6.698 12.033V16c0 .88-.07 2.396.51 3.102.964 1.616 3.031 5.113 3.824 6.714.259.478.834.605 1.559.605h6.819c.724 0 1.299-.127 1.558-.605.793-1.601 2.86-5.098 3.824-6.714.58-.706.51-2.221.51-3.102v-3.967c0-3.328-4.134-6.454-9.302-6.454-5.168 0-9.302 3.126-9.302 6.454z" fill="#6e6e6e"/><path d="M7.998 15.982c-.603.004-1.206.013-1.3.028v.511c0 .88-.07 1.875.51 2.58.964 1.617 3.03 5.114 3.824 6.715.259.478.834.605 1.559.605h6.819c.724 0 1.3-.127 1.558-.605.793-1.601 2.86-5.098 3.825-6.714.58-.706.508-1.7.508-2.58v-.512c-.108 0-2.266-.015-2.361-.01-2.102-.018-2.014.733-2.879 2.085-.811 1.4-.815 3.149-1.22 4.168-.57-1.967-.256-5.88-2.841-5.88s-2.27 3.913-2.841 5.88c-.405-1.02-.185-2.767-.997-4.168-.562-.952-1.493-2.023-2.726-2.1a61.866 61.866 0 0 0-1.438-.003z" fill="#585858"/><path d="M12.59 26.421h6.82l-.569-4.168c-.57-1.967-.256-5.732-2.841-5.732s-2.27 3.765-2.841 5.732z" fill="#4b4b4b"/><path d="M8.929 14.511V16c1.54-.241 2.298 1.004 2.936 2.084.811 1.401.889 3.224 1.294 4.243.57-1.966.256-5.583 2.841-5.583s2.27 3.617 2.841 5.583c.405-1.019.483-2.842 1.294-4.243.923-1.442 1.296-2.084 2.936-2.084v-1.489H16z" fill="#7ac4eb"/></svg>