<svg xmlns="http://www.w3.org/2000/svg" height="32" width="32" version="1"><rect width="28.203" height="28.203" x="1.898" y="1.898" ry="5.575" fill="#49cbc6" fill-rule="evenodd"/><path d="M6.105 9.404v1.649h8.246L6.152 22.596h11.497v-1.649H9.404l8.198-11.543zm16.506 4.947c-1.244 0-2.283.361-3.03 1.101-.744.739-1.107 1.779-1.107 3.025 0 1.243.363 2.28 1.106 3.021l.002.002c.746.736 1.785 1.096 3.03 1.096.567 0 1.108-.072 1.618-.217h.003c.498-.145 1.035-.355 1.481-.659l.18-.122v-3.949h-3.298v1.65h1.646v1.442c-.135.058-.263.123-.425.158-.198.04-.785.077-1.12.077-.84 0-1.64-.257-1.965-.602-.372-.398-.61-1.007-.61-1.897.059-1.754 1.117-2.448 2.574-2.506.725.029 3.199.029 3.199.029v-1.65z" fill="#303030"/></svg>