<svg xmlns="http://www.w3.org/2000/svg" width="32" height="32"><rect width="28.203" height="28.203" x="1.898" y="1.898" ry="5.575" fill="#a81717" fill-rule="evenodd"/><path d="M16.025 5.369a1.046 1.046 0 0 0-.561.147l-8.04 4.765c-.332.197-.537.56-.537.954v9.53c0 .394.205.757.537.954l8.04 4.765c.332.197.74.197 1.072 0l8.04-4.765c.332-.197.537-.56.537-.954v-9.53c0-.393-.205-.757-.537-.954l-8.04-4.765a1.052 1.052 0 0 0-.51-.147z" fill="#ccc" stroke-width="1.317"/><path d="M11.823 10.988h8.354l-8.354 9.948h8.354" fill="none" stroke="#a81717" stroke-width="3" stroke-linecap="square" stroke-linejoin="round"/></svg>