<svg xmlns="http://www.w3.org/2000/svg" width="22" height="22"><g transform="matrix(.5 0 0 .5 -1 -1)"><circle cx="24" cy="24" r="20" fill="#5c616c"/><path d="M29.81 13.147a4 4 0 0 0-3.275 1.997 4 4 0 0 0-.386 3.068l-5.295 3.059A4 4 0 0 0 18 20.07a4 4 0 0 0-4 4 4 4 0 0 0 4 4 4 4 0 0 0 2.851-1.199l5.295 3.059a4 4 0 0 0 .388 3.068A4 4 0 0 0 32 34.464a4 4 0 0 0 1.465-5.465A4 4 0 0 0 28 27.536a4 4 0 0 0-.854.662L21.85 25.14a4 4 0 0 0 .15-1.07 4 4 0 0 0-.146-1.07l5.295-3.057a4 4 0 0 0 .851.662 4 4 0 0 0 5.465-1.463A4 4 0 0 0 32 13.678a4 4 0 0 0-2.189-.53z" fill="#fff"/></g></svg>