<?xml version="1.0" encoding="UTF-8" standalone="no"?>
<svg
   xmlns:dc="http://purl.org/dc/elements/1.1/"
   xmlns:cc="http://creativecommons.org/ns#"
   xmlns:rdf="http://www.w3.org/1999/02/22-rdf-syntax-ns#"
   xmlns:svg="http://www.w3.org/2000/svg"
   xmlns="http://www.w3.org/2000/svg"
   xmlns:xlink="http://www.w3.org/1999/xlink"
   xmlns:sodipodi="http://sodipodi.sourceforge.net/DTD/sodipodi-0.dtd"
   xmlns:inkscape="http://www.inkscape.org/namespaces/inkscape"
   width="32"
   height="32"
   version="1.1"
   id="svg14"
   sodipodi:docname="start-here-kde.svg"
   inkscape:version="0.92.4 5da689c313, 2019-01-14">
  <metadata
     id="metadata20">
    <rdf:RDF>
      <cc:Work
         rdf:about="">
        <dc:format>image/svg+xml</dc:format>
        <dc:type
           rdf:resource="http://purl.org/dc/dcmitype/StillImage" />
      </cc:Work>
    </rdf:RDF>
  </metadata>
  <defs
     id="defs18">
    <linearGradient
       inkscape:collect="always"
       id="linearGradient834">
      <stop
         style="stop-color:#a6c4d2;stop-opacity:1"
         offset="0"
         id="stop830" />
      <stop
         style="stop-color:#d3dae3;stop-opacity:1"
         offset="1"
         id="stop832" />
    </linearGradient>
    <linearGradient
       inkscape:collect="always"
       xlink:href="#linearGradient834"
       id="linearGradient836"
       x1="4.2299519"
       y1="28.150507"
       x2="27.847719"
       y2="4.6165261"
       gradientUnits="userSpaceOnUse" />
  </defs>
  <sodipodi:namedview
     pagecolor="#ffffff"
     bordercolor="#666666"
     borderopacity="1"
     objecttolerance="10"
     gridtolerance="10"
     guidetolerance="10"
     inkscape:pageopacity="0"
     inkscape:pageshadow="2"
     inkscape:window-width="567"
     inkscape:window-height="424"
     id="namedview16"
     showgrid="false"
     inkscape:zoom="7.8104265"
     inkscape:cx="16"
     inkscape:cy="16"
     inkscape:window-x="999"
     inkscape:window-y="199"
     inkscape:window-maximized="0"
     inkscape:current-layer="svg14" />
  <path
     style="opacity:1;fill:url(#linearGradient836);fill-opacity:1;fill-rule:nonzero;stroke:none;stroke-width:0.60000002;stroke-linecap:round;stroke-linejoin:miter;stroke-miterlimit:4;stroke-dasharray:none;stroke-dashoffset:0;stroke-opacity:1"
     d="m 20.348986,4.5954526 -2.96594,2.965943 4.493952,4.4772434 -4.466191,4.482907 2.96594,2.965943 7.432137,-7.459897 -2.96594,-2.9659447 -0.0055,0.00543 z M 10.14297,4.7257622 A 1.474059,1.474059 0 0 0 8.668784,6.1998102 1.474059,1.474059 0 0 0 10.14297,7.673857 1.474059,1.474059 0 0 0 11.617017,6.1998102 1.474059,1.474059 0 0 0 10.14297,4.7257622 Z M 6.4716585,13.430962 A 2.2806195,2.2806195 0 0 0 4.1911169,15.71165 2.2806195,2.2806195 0 0 0 6.4716585,17.992196 2.2806195,2.2806195 0 0 0 8.7523522,15.71165 2.2806195,2.2806195 0 0 0 6.4716585,13.430962 Z m 6.6194105,8.788765 a 2.9759303,2.9759303 0 0 0 -2.975999,2.975856 2.9759303,2.9759303 0 0 0 2.975999,2.975997 2.9759303,2.9759303 0 0 0 2.975854,-2.975997 2.9759303,2.9759303 0 0 0 -2.975854,-2.975856 z"
     id="path4495"
     inkscape:connector-curvature="0" />
</svg>
