<?xml version="1.0" encoding="UTF-8" standalone="no"?>
<svg
   xmlns:dc="http://purl.org/dc/elements/1.1/"
   xmlns:cc="http://creativecommons.org/ns#"
   xmlns:rdf="http://www.w3.org/1999/02/22-rdf-syntax-ns#"
   xmlns:svg="http://www.w3.org/2000/svg"
   xmlns="http://www.w3.org/2000/svg"
   xmlns:xlink="http://www.w3.org/1999/xlink"
   xmlns:sodipodi="http://sodipodi.sourceforge.net/DTD/sodipodi-0.dtd"
   xmlns:inkscape="http://www.inkscape.org/namespaces/inkscape"
   width="32"
   height="32"
   version="1"
   id="svg14"
   sodipodi:docname="folder-gnome.svg"
   inkscape:version="0.92.4 5da689c313, 2019-01-14">
  <metadata
     id="metadata20">
    <rdf:RDF>
      <cc:Work
         rdf:about="">
        <dc:format>image/svg+xml</dc:format>
        <dc:type
           rdf:resource="http://purl.org/dc/dcmitype/StillImage" />
        <dc:title />
      </cc:Work>
    </rdf:RDF>
  </metadata>
  <defs
     id="defs18">
    <linearGradient
       id="linearGradient990"
       inkscape:collect="always">
      <stop
         id="stop986"
         offset="0"
         style="stop-color:#27a4a7;stop-opacity:1" />
      <stop
         id="stop988"
         offset="1"
         style="stop-color:#72d2d4;stop-opacity:1" />
    </linearGradient>
    <linearGradient
       inkscape:collect="always"
       id="linearGradient889">
      <stop
         style="stop-color:#8998ad;stop-opacity:1"
         offset="0"
         id="stop885" />
      <stop
         style="stop-color:#d7edef;stop-opacity:1"
         offset="1"
         id="stop887" />
    </linearGradient>
    <linearGradient
       inkscape:collect="always"
       xlink:href="#linearGradient990"
       id="linearGradient975"
       x1="-5.667089"
       y1="22.200636"
       x2="-5.5973864"
       y2="10.717914"
       gradientUnits="userSpaceOnUse"
       gradientTransform="matrix(1.8471337,0,0,1.8471337,-1.6973853,-28.433842)" />
    <linearGradient
       inkscape:collect="always"
       xlink:href="#linearGradient889"
       id="linearGradient891-3-3"
       x1="-34.169491"
       y1="21.288134"
       x2="-13.152548"
       y2="7.4576306"
       gradientUnits="userSpaceOnUse"
       gradientTransform="matrix(1.2272328,0,0,1.4998451,17.688366,-21.176367)" />
  </defs>
  <sodipodi:namedview
     pagecolor="#ffffff"
     bordercolor="#666666"
     borderopacity="1"
     objecttolerance="10"
     gridtolerance="10"
     guidetolerance="10"
     inkscape:pageopacity="0"
     inkscape:pageshadow="2"
     inkscape:window-width="1002"
     inkscape:window-height="789"
     id="namedview16"
     showgrid="false"
     inkscape:zoom="17.56"
     inkscape:cx="16"
     inkscape:cy="18.277904"
     inkscape:window-x="280"
     inkscape:window-y="130"
     inkscape:window-maximized="0"
     inkscape:current-layer="g828"
     showguides="true"
     inkscape:guide-bbox="true"
     inkscape:snap-global="true" />
  <g
     id="g872"
     transform="matrix(1.0000063,0,0,1.0352793,28.578472,14.980279)">
    <path
       inkscape:connector-curvature="0"
       d="m -8.5853303,-12.403521 c -2.3908547,0 -3.1668757,1.884805 -4.3949507,3.7670978 h -11.458257 c -1.739142,0 -3.139248,1.4001052 -3.139248,3.1392492 v 1.2557 10.6734457 1.883548 1.098738 0.156969 c 0.0076,0.174536 0.0452,0.344062 0.07911,0.5098153 0.149433,0.867687 0.644171,1.60855 1.373734,2.079436 0.347828,0.224771 0.749652,0.388013 1.177845,0.470888 0.213466,0.04394 0.400564,0.07911 0.627846,0.07911 h 23.62347871 c 0.227282,0 0.41438,-0.0339 0.62785,-0.07911 0.426937,-0.08288 0.828761,-0.246117 1.17659099,-0.470888 0.72956,-0.470886 1.22305,-1.211749 1.373733,-2.079436 0.0339,-0.1657443 0.07032,-0.3365283 0.07911,-0.5098153 V 9.4142577 8.3155197 -9.1073111 c 0,-1.8358329 -1.442798,-3.2962099 -3.25728399,-3.2962099 H -8.5828173 Z"
       style="opacity:1;fill:#27a4a7;fill-opacity:1;stroke:#72d2d4;stroke-width:0.09828107;stroke-miterlimit:4;stroke-dasharray:none;stroke-opacity:1"
       id="path25-2" />
    <rect
       style="opacity:0.647;vector-effect:none;fill:#2d6e6b;fill-opacity:1;fill-rule:nonzero;stroke:none;stroke-width:0.19693819;stroke-linecap:butt;stroke-linejoin:miter;stroke-miterlimit:4;stroke-dasharray:none;stroke-dashoffset:0;stroke-opacity:1;paint-order:markers stroke fill"
       id="rect883-5-5-3"
       width="25.792688"
       height="20.74362"
       x="-24.145704"
       y="-9.9910889"
       transform="matrix(0.99999999,1.0125852e-4,-6.7794228e-5,1,0,0)"
       inkscape:transform-center-x="4.5837926"
       inkscape:transform-center-y="-6.389833"
       ry="1.6756594" />
    <rect
       style="opacity:1;vector-effect:none;fill:url(#linearGradient891-3-3);fill-opacity:1;fill-rule:nonzero;stroke:none;stroke-width:0.19693819;stroke-linecap:butt;stroke-linejoin:miter;stroke-miterlimit:4;stroke-dasharray:none;stroke-dashoffset:0;stroke-opacity:1;paint-order:markers stroke fill"
       id="rect883-5-5"
       width="25.792688"
       height="20.74362"
       x="-24.245554"
       y="-9.9910784"
       transform="matrix(0.99999999,1.0125852e-4,-6.7794228e-5,1,0,0)"
       inkscape:transform-center-x="4.5837926"
       inkscape:transform-center-y="-6.389833"
       ry="1.6756594" />
    <path
       inkscape:connector-curvature="0"
       d="m -16.431455,-12.403521 c 2.390854,0 3.166876,1.884805 4.394951,3.7670978 h 11.45825471 c 1.73914199,0 3.13924799,1.4001052 3.13924799,3.1392492 v 1.2557 10.6734437 1.883548 1.098738 0.156969 c -0.0076,0.174536 -0.0452,0.344062 -0.07911,0.5098153 -0.149433,0.867687 -0.644173,1.60855 -1.373736,2.079436 -0.34782799,0.224771 -0.74965099,0.388013 -1.17784499,0.470888 -0.213465,0.04394 -0.400563,0.07911 -0.627846,0.07911 H -24.321014 c -0.227282,0 -0.41438,-0.03389 -0.62785,-0.07911 -0.426937,-0.08288 -0.828761,-0.246117 -1.176591,-0.470888 -0.72956,-0.470886 -1.22305,-1.211749 -1.373733,-2.079436 -0.03389,-0.1657433 -0.07032,-0.3365283 -0.07911,-0.5098153 V 9.4142557 8.3155177 -9.1073111 c 0,-1.8358329 1.442798,-3.2962099 3.257284,-3.2962099 h 7.887047 z"
       style="opacity:1;fill:url(#linearGradient975);fill-opacity:1;stroke:#d7edef;stroke-width:0.09828107;stroke-miterlimit:4;stroke-dasharray:none;stroke-opacity:1"
       id="path25" />
    <g
       id="g828"
       transform="translate(-0.04967072,-0.33807317)">
      <path
         inkscape:connector-curvature="0"
         id="path14-5-3"
         d="m -8.5266,-4.9071577 c -2.538982,0 -3.014979,3.726531 -1.585989,3.726531 1.42799,0 4.125975,-3.726531 1.585989,-3.726531 z m -3.910973,0.573758 c -0.04,-9.65e-4 -0.083,0.0029 -0.127999,0.0077 -1.439991,0.175798 -0.932994,2.52782 -0.166999,2.571287 0.740995,0.04347 1.55299,-2.575151 0.293998,-2.579015 z m -2.494984,0.868365 c -0.088,-0.0058 -0.184999,0.01063 -0.293999,0.05313 -1.155992,0.458813 -0.174998,2.352988 0.471997,2.225486 0.587997,-0.11591 0.671996,-2.225486 -0.177998,-2.278612 z m -1.886989,1.547409 c -0.100999,-0.0019 -0.208998,0.03091 -0.324997,0.114944 -0.925995,0.667453 0.310998,2.27957803 0.855994,2.02940403 0.475997,-0.219264 0.171999,-2.11923403 -0.531997,-2.14338203 z m 5.466966,1.53968003 c -2.005987,-0.03381 -4.651971,0.949503 -5.102968,2.92578097 -0.488997,2.136621 2.011988,5.1020047 4.619971,5.1020047 1.283992,0 2.763981,-1.1330277 3.040979,-2.5674227 0.211999,-1.094391 -2.488982,-0.655862 -2.391983,0.06761 0.115999,0.868364 -0.650996,1.297234 -1.402991,0.737965 -2.393985,-1.781157 3.962973,-2.669806 3.542976,-5.10296597 -0.13,-0.757284 -1.102993,-1.142687 -2.305984,-1.162972 z"
         style="opacity:0.647;fill:#2d6e6b;fill-opacity:1;stroke-width:0.98281068" />
      <path
         inkscape:connector-curvature="0"
         id="path14-5"
         d="m -8.6265987,-5.0037499 c -2.5389823,0 -3.0149793,3.7265308 -1.5859893,3.7265308 1.4279903,0 4.1259743,-3.7265308 1.5859893,-3.7265308 z m -3.9109733,0.5737579 c -0.04,-9.65e-4 -0.083,0.0029 -0.127999,0.0077 -1.439991,0.175798 -0.932994,2.52782 -0.166999,2.571287 0.740995,0.04347 1.55299,-2.575151 0.293998,-2.579015 z m -2.494984,0.868365 c -0.088,-0.0058 -0.184999,0.01063 -0.293999,0.05313 -1.155992,0.458813 -0.174998,2.3529879 0.471997,2.2254859 0.587997,-0.1159099 0.671996,-2.2254859 -0.177998,-2.2786119 z m -1.886989,1.547409 c -0.100999,-0.0019 -0.208998,0.03091 -0.324997,0.114944 -0.925995,0.6674529 0.310998,2.2795778 0.855994,2.02940383 0.475997,-0.21926397 0.171999,-2.11923383 -0.531997,-2.14338183 z m 5.466966,1.5396799 c -2.005987,-0.03381 -4.651971,0.94950289 -5.102968,2.9257811 -0.488997,2.136621 2.011988,5.1020047 4.619971,5.1020047 1.283992,0 2.7639813,-1.1330277 3.0409793,-2.5674227 0.211999,-1.094391 -2.4889823,-0.655862 -2.3919833,0.06761 0.115999,0.868364 -0.650996,1.297234 -1.402991,0.737965 -2.393985,-1.781162 3.9629733,-2.669811 3.5429763,-5.10297118 -0.13,-0.75728396 -1.1029933,-1.14268692 -2.3059843,-1.16297192 z"
         style="opacity:1;fill:#d7edef;fill-opacity:1;stroke-width:0.98281068" />
    </g>
  </g>
</svg>
