<svg xmlns="http://www.w3.org/2000/svg" xmlns:xlink="http://www.w3.org/1999/xlink" width="32" height="32" version="1"><defs><linearGradient id="a"><stop offset="0" stop-color="#27a4a7"/><stop offset="1" stop-color="#72d2d4"/></linearGradient><linearGradient id="b"><stop offset="0" stop-color="#8998ad"/><stop offset="1" stop-color="#d7edef"/></linearGradient><linearGradient xlink:href="#a" id="d" x1="-5.667" y1="22.201" x2="-5.597" y2="10.718" gradientUnits="userSpaceOnUse" gradientTransform="matrix(1.84715 0 0 1.9123 26.881 -14.4)"/><linearGradient xlink:href="#b" id="c" x1="-34.169" y1="21.288" x2="-13.153" y2="7.458" gradientUnits="userSpaceOnUse" gradientTransform="matrix(1.22724 0 0 1.55276 46.268 -6.946)"/></defs><g transform="translate(.001 -.056)"><path d="M19.993 2.14c-2.39 0-3.167 1.95-4.395 3.9H4.14C2.4 6.04 1 7.488 1 9.29V24.888c.008.18.046.356.08.528a3.195 3.195 0 0 0 2.551 2.64c.214.046.4.082.628.082h23.624c.227 0 .414-.035.628-.082a3.199 3.199 0 0 0 2.55-2.64c.034-.172.07-.348.079-.528V5.552c0-1.9-1.443-3.413-3.257-3.413h-7.887z" fill="#27a4a7" stroke="#72d2d4" stroke-width=".1"/><rect width="25.793" height="21.475" x="4.434" y="4.634" transform="rotate(.008) skewX(.002)" ry="1.735" opacity=".647" fill="#2d6e6b" paint-order="markers stroke fill"/><rect width="25.793" height="21.475" x="4.334" y="4.634" transform="rotate(.008) skewX(.002)" ry="1.735" fill="url(#c)" paint-order="markers stroke fill"/><path d="M12.147 2.196c2.39 0 3.167 1.951 4.395 3.9H28c1.74 0 3.14 1.45 3.14 3.25V24.946c-.008.18-.046.356-.08.528a3.195 3.195 0 0 1-2.551 2.64c-.214.046-.4.082-.628.082H4.257c-.227 0-.414-.035-.628-.082a3.199 3.199 0 0 1-2.55-2.64c-.034-.172-.07-.348-.079-.528V5.61c0-1.901 1.443-3.413 3.257-3.413h7.887z" fill="url(#d)" stroke="#72d2d4" stroke-width=".1"/><path d="M14.216 17.01a2.456 2.456 0 0 0-1.222-.317c-1.344 0-2.443 1.057-2.443 2.35 0 1.291 1.1 2.348 2.443 2.348 1.344 0 2.444-1.057 2.444-2.349V13.17h4.887v3.84a2.456 2.456 0 0 0-1.221-.317c-1.344 0-2.444 1.057-2.444 2.35 0 1.291 1.1 2.348 2.444 2.348 1.344 0 2.443-1.057 2.443-2.349v-8.221h-7.33" opacity=".647" fill="#2d6e6b"/><path d="M14.116 16.91a2.456 2.456 0 0 0-1.222-.317c-1.344 0-2.443 1.057-2.443 2.35 0 1.291 1.1 2.348 2.443 2.348 1.344 0 2.444-1.057 2.444-2.349V13.07h4.887v3.84a2.456 2.456 0 0 0-1.221-.317c-1.344 0-2.444 1.057-2.444 2.35 0 1.291 1.1 2.348 2.444 2.348 1.344 0 2.443-1.057 2.443-2.349v-8.221h-7.33" fill="#d7edef"/></g></svg>