<?xml version="1.0" encoding="UTF-8" standalone="no"?>
<svg
   xmlns:dc="http://purl.org/dc/elements/1.1/"
   xmlns:cc="http://creativecommons.org/ns#"
   xmlns:rdf="http://www.w3.org/1999/02/22-rdf-syntax-ns#"
   xmlns:svg="http://www.w3.org/2000/svg"
   xmlns="http://www.w3.org/2000/svg"
   xmlns:xlink="http://www.w3.org/1999/xlink"
   xmlns:sodipodi="http://sodipodi.sourceforge.net/DTD/sodipodi-0.dtd"
   xmlns:inkscape="http://www.inkscape.org/namespaces/inkscape"
   width="32"
   height="32"
   version="1"
   id="svg16"
   sodipodi:docname="folder-dropbox.svg"
   inkscape:version="0.92.4 5da689c313, 2019-01-14">
  <metadata
     id="metadata22">
    <rdf:RDF>
      <cc:Work
         rdf:about="">
        <dc:format>image/svg+xml</dc:format>
        <dc:type
           rdf:resource="http://purl.org/dc/dcmitype/StillImage" />
      </cc:Work>
    </rdf:RDF>
  </metadata>
  <defs
     id="defs20">
    <linearGradient
       inkscape:collect="always"
       id="linearGradient820">
      <stop
         style="stop-color:#27a4a7;stop-opacity:1"
         offset="0"
         id="stop816" />
      <stop
         style="stop-color:#b8edee;stop-opacity:1"
         offset="1"
         id="stop818" />
    </linearGradient>
    <linearGradient
       inkscape:collect="always"
       xlink:href="#linearGradient820"
       id="linearGradient822"
       x1="16.901945"
       y1="28.474577"
       x2="16.873501"
       y2="6.7341032"
       gradientUnits="userSpaceOnUse" />
    <linearGradient
       gradientTransform="translate(0.0013487,-0.0581681)"
       inkscape:collect="always"
       xlink:href="#linearGradient990"
       id="linearGradient829-3"
       x1="16.87215"
       y1="28.452196"
       x2="16.87215"
       y2="6.7922716"
       gradientUnits="userSpaceOnUse" />
    <linearGradient
       id="linearGradient990"
       inkscape:collect="always">
      <stop
         id="stop986"
         offset="0"
         style="stop-color:#27a4a7;stop-opacity:1" />
      <stop
         id="stop988"
         offset="1"
         style="stop-color:#72d2d4;stop-opacity:1" />
    </linearGradient>
    <linearGradient
       inkscape:collect="always"
       xlink:href="#linearGradient889"
       id="linearGradient891"
       x1="-34.169491"
       y1="21.288134"
       x2="-13.152541"
       y2="7.4576254"
       gradientUnits="userSpaceOnUse"
       gradientTransform="matrix(1.2926751,0,0,1.5798246,46.671882,-6.6345215)" />
    <linearGradient
       inkscape:collect="always"
       id="linearGradient889">
      <stop
         style="stop-color:#8998ad;stop-opacity:1"
         offset="0"
         id="stop885" />
      <stop
         style="stop-color:#d7edef;stop-opacity:1"
         offset="1"
         id="stop887" />
    </linearGradient>
  </defs>
  <sodipodi:namedview
     pagecolor="#ffffff"
     bordercolor="#666666"
     borderopacity="1"
     objecttolerance="10"
     gridtolerance="10"
     guidetolerance="10"
     inkscape:pageopacity="0"
     inkscape:pageshadow="2"
     inkscape:window-width="944"
     inkscape:window-height="699"
     id="namedview18"
     showgrid="false"
     inkscape:zoom="12.931837"
     inkscape:cx="16"
     inkscape:cy="16"
     inkscape:window-x="427"
     inkscape:window-y="150"
     inkscape:window-maximized="0"
     inkscape:current-layer="svg16" />
  <path
     style="fill:url(#linearGradient822);fill-opacity:1;stroke:none;stroke-width:0.14515875;stroke-miterlimit:4;stroke-dasharray:none;stroke-opacity:1"
     d="m 27.90368,6.7271301 c 1.168734,-7.389e-4 2.109629,0.940894 2.109629,2.1096306 V 26.44728 c 0,1.168735 -0.940895,2.109629 -2.109629,2.109629 H 4.09632 c -1.168734,0 -2.109682,-0.940894 -2.109629,-2.109629 l 7.31e-4,-16.244506 7.32e-4,-5.0669089 c 0,-0.937797 0.754977,-1.692774 1.692773,-1.692774 h 9.09082 c 0.937797,0 1.704839,0.371321 2.299888,1.096152 l 1.801865,2.19486 z"
     id="rect4549-3"
     inkscape:connector-curvature="0"
     sodipodi:nodetypes="sssssscsssscs" />
  <rect
     style="opacity:1;vector-effect:none;fill:url(#linearGradient891);fill-opacity:1;fill-rule:nonzero;stroke:none;stroke-width:0.20743993;stroke-linecap:butt;stroke-linejoin:miter;stroke-miterlimit:4;stroke-dasharray:none;stroke-dashoffset:0;stroke-opacity:1;paint-order:markers stroke fill"
     id="rect883"
     width="27.168089"
     height="21.849777"
     x="2.5018303"
     y="5.1472187"
     transform="matrix(0.99999999,1.0125852e-4,-6.7794228e-5,1,0,0)"
     inkscape:transform-center-x="4.8282266"
     inkscape:transform-center-y="-6.7305722" />
  <path
     style="fill:url(#linearGradient829-3);fill-opacity:1;stroke:none;stroke-width:0.1;stroke-miterlimit:4;stroke-dasharray:none;stroke-opacity:1"
     d="m 27.90368,6.7271301 c 1.168734,-7.388e-4 2.109629,0.9408941 2.109629,2.1096297 V 26.44728 c 0,1.168735 -0.940895,2.109629 -2.109629,2.109629 H 4.0963207 c -1.168735,0 -2.109682,-0.940894 -2.10963,-2.109629 l 7.31e-4,-16.244507 0.112959,-4.2813153 c 0.02473,-0.9374707 0.64275,-1.4683178 1.580546,-1.4683178 h 8.9785923 c 0.937797,0 1.827453,0.1319292 2.524344,0.7594692 l 1.689637,1.521494 z"
     id="rect4549-9"
     inkscape:connector-curvature="0"
     sodipodi:nodetypes="sssssscsssscs" />
  <g
     id="g6845"
     style="fill:#d7edef;fill-opacity:1;stroke:none"
     transform="matrix(0.11824449,0,0,0.11824449,3.6043994,-95.800507)">
    <g
       transform="matrix(0.83962071,0,0,-0.83962071,87.372032,921.28125)"
       id="g2995"
       style="fill:#d7edef;fill-opacity:1;stroke:none">
      <path
         id="path2997"
         style="fill:#d7edef;fill-opacity:1;fill-rule:nonzero;stroke:none"
         d="m 0,0 -29.63,-19.346 20.487,-16.406 29.875,18.447 z"
         inkscape:connector-curvature="0" />
    </g>
    <g
       transform="matrix(0.83962071,0,0,-0.83962071,62.494141,965.07477)"
       id="g2999"
       style="fill:#d7edef;fill-opacity:1;stroke:none">
      <path
         id="path3001"
         style="fill:#d7edef;fill-opacity:1;fill-rule:nonzero;stroke:none"
         d="M 0,0 29.63,-19.346 50.362,-2.04 20.487,16.407 Z"
         inkscape:connector-curvature="0" />
    </g>
    <g
       transform="matrix(0.83962071,0,0,-0.83962071,104.77938,966.7876)"
       id="g3003"
       style="fill:#d7edef;fill-opacity:1;stroke:none">
      <path
         id="path3005"
         style="fill:#d7edef;fill-opacity:1;fill-rule:nonzero;stroke:none"
         d="M 0,0 20.733,-17.306 50.362,2.04 29.875,18.447 Z"
         inkscape:connector-curvature="0" />
    </g>
    <g
       transform="matrix(0.83962071,0,0,-0.83962071,147.06461,937.52429)"
       id="g3007"
       style="fill:#d7edef;fill-opacity:1;stroke:none">
      <path
         id="path3009"
         style="fill:#d7edef;fill-opacity:1;fill-rule:nonzero;stroke:none"
         d="M 0,0 -29.629,19.346 -50.362,2.041 -20.487,-16.406 Z"
         inkscape:connector-curvature="0" />
    </g>
    <g
       transform="matrix(0.83962071,0,0,-0.83962071,104.83026,969.91367)"
       id="g3011"
       style="fill:#d7edef;fill-opacity:1;stroke:none">
      <path
         id="path3013"
         style="fill:#d7edef;fill-opacity:1;fill-rule:nonzero;stroke:none"
         d="m 0,0 -20.793,-17.254 -8.897,5.809 v -6.513 L 0,-35.763 29.691,-17.958 v 6.513 l -8.896,-5.809 z"
         inkscape:connector-curvature="0" />
    </g>
  </g>
</svg>
