<svg xmlns="http://www.w3.org/2000/svg" xmlns:xlink="http://www.w3.org/1999/xlink" width="32" height="32" version="1"><defs><linearGradient id="a"><stop offset="0" stop-color="#27a4a7"/><stop offset="1" stop-color="#72d2d4"/></linearGradient><linearGradient id="b"><stop offset="0" stop-color="#8998ad"/><stop offset="1" stop-color="#d7edef"/></linearGradient><linearGradient xlink:href="#a" id="d" x1="-5.667" y1="22.201" x2="-5.597" y2="10.718" gradientUnits="userSpaceOnUse" gradientTransform="matrix(1.84713 0 0 1.84713 -1.697 -28.434)"/><linearGradient xlink:href="#b" id="c" x1="-34.169" y1="21.288" x2="-13.153" y2="7.458" gradientUnits="userSpaceOnUse" gradientTransform="matrix(1.22723 0 0 1.49985 17.688 -21.176)"/></defs><g transform="matrix(1 0 0 1.03528 28.578 14.98)"><path d="M-8.585-12.404c-2.391 0-3.167 1.885-4.395 3.768H-24.44c-1.739 0-3.139 1.4-3.139 3.139V9.57c.008.175.045.344.08.51.149.868.643 1.609 1.373 2.08.348.224.75.387 1.178.47.213.044.4.08.628.08H-.696c.228 0 .415-.034.628-.08a3.352 3.352 0 0 0 1.177-.47 3.082 3.082 0 0 0 1.373-2.08c.034-.166.07-.336.08-.51V-9.107c0-1.836-1.443-3.297-3.258-3.297h-7.887z" fill="#27a4a7" stroke="#72d2d4" stroke-width=".098"/><rect width="25.793" height="20.744" x="-24.146" y="-9.991" transform="rotate(.008) skewX(.002)" ry="1.676" opacity=".647" fill="#2d6e6b" paint-order="markers stroke fill"/><rect width="25.793" height="20.744" x="-24.246" y="-9.991" transform="rotate(.008) skewX(.002)" ry="1.676" fill="url(#c)" paint-order="markers stroke fill"/><path d="M-16.431-12.404c2.39 0 3.166 1.885 4.394 3.768H-.578c1.739 0 3.139 1.4 3.139 3.139V9.57c-.008.175-.045.344-.08.51a3.078 3.078 0 0 1-1.373 2.08c-.348.224-.75.387-1.178.47-.213.044-.4.08-.628.08H-24.32c-.227 0-.414-.034-.628-.08a3.352 3.352 0 0 1-1.176-.47 3.082 3.082 0 0 1-1.374-2.08c-.034-.166-.07-.336-.08-.51V-9.107c0-1.836 1.444-3.297 3.258-3.297h7.887z" fill="url(#d)" stroke="#72d2d4" stroke-width=".098"/><path d="M-12.528-5.252c-3.594 0-6.507 2.815-6.507 6.285 0 3.471 2.913 6.286 6.507 6.286 3.593 0 6.507-2.815 6.507-6.286 0-3.47-2.914-6.285-6.507-6.285zm-.465 1.74c.062-.007.14.004.203 0 .008.029-.046.13-.116.28-.451.953-.477 2.07-.058 2.666.075.108.145.211.145.224 0 .014-.082.029-.174.029-.217 0-.423-.128-.842-.45-.187-.142-.43-.262-.523-.28-.149-.028-.188-.015-.378.168-.178.172-.233.264-.233.421 0 .595.732 1.069 2.092 1.346 1.846.379 2.302.718 2.353 1.656.064 1.177-.585 2.064-2.004 2.75-.17.082-.278.114-.35.14-.03-.003-.055.004-.086 0a.98.98 0 0 1-.029-.28c0-.625-.255-1.267-.639-1.627a4.765 4.765 0 0 0-.639-.449c-.247-.148-.497-.32-.552-.393-.092-.122-.1-.196-.03-.421.13-.41.283-.639.582-.898.156-.136.314-.25.349-.253.034-.002-.2-.07-.552-.14-.353-.07-.867-.215-1.133-.308-.487-.17-1.144-.528-1.394-.786-.01-.011-.021-.019-.03-.028a4.558 4.558 0 0 1 3.573-3.31c.151-.03.309-.042.465-.057zm4.357 2.104c.11.065.522.927.639 1.346.152.543.14 1.482 0 2.02-.053.207-.122.398-.144.422-.024.023-.107-.114-.205-.28-.097-.168-.408-.522-.667-.786-.749-.762-.866-1.16-.552-1.768.157-.307.844-1.004.93-.954z" opacity=".647" fill="#2d6e6b"/><path d="M-12.628-5.349c-3.594 0-6.507 2.815-6.507 6.286 0 3.47 2.913 6.285 6.507 6.285 3.593 0 6.507-2.815 6.507-6.285 0-3.471-2.914-6.286-6.507-6.286zm-.465 1.74c.062-.006.14.004.203 0 .008.03-.046.13-.116.28-.451.953-.477 2.07-.058 2.667.075.108.145.21.145.223 0 .014-.082.03-.174.03-.217 0-.423-.129-.842-.45-.187-.143-.43-.262-.523-.281-.149-.028-.188-.015-.378.168-.178.173-.233.264-.233.422 0 .594.732 1.068 2.092 1.346 1.846.378 2.302.718 2.353 1.655.064 1.177-.585 2.064-2.004 2.75-.17.083-.278.114-.35.14-.03-.002-.055.004-.086 0a.98.98 0 0 1-.029-.28c0-.625-.255-1.267-.639-1.627a4.765 4.765 0 0 0-.639-.448c-.247-.149-.497-.32-.552-.394-.092-.122-.1-.196-.03-.42.13-.41.283-.64.582-.898.156-.136.314-.25.349-.253.034-.003-.2-.07-.552-.14-.353-.07-.867-.216-1.133-.309-.487-.17-1.144-.528-1.394-.786l-.03-.027a4.558 4.558 0 0 1 3.573-3.311c.151-.03.309-.042.465-.057zm4.357 2.104c.11.066.522.927.639 1.347.152.543.14 1.482 0 2.02-.053.206-.122.397-.144.421-.024.024-.107-.113-.205-.28-.097-.168-.408-.522-.667-.786C-9.862.455-9.98.058-9.665-.55c.157-.307.844-1.005.93-.955z" fill="#d7edef"/></g></svg>