<svg xmlns="http://www.w3.org/2000/svg" width="22" height="22"><defs><style id="current-color-scheme" type="text/css">.ColorScheme-Text{color:#1e333d}</style></defs><rect class="ColorScheme-Text" width="7" height="2" x="3" y="17" rx=".538" ry=".5" fill="currentColor"/><rect class="ColorScheme-Text" width="7" height="2" x="3" y="15" rx=".538" ry=".5" fill="currentColor" opacity=".3"/><rect class="ColorScheme-Text" width="7" height="2" x="3" y="13" rx=".538" ry=".5" fill="currentColor"/><rect class="ColorScheme-Text" width="7" height="2" x="3" y="11" rx=".538" ry=".5" fill="currentColor" opacity=".3"/><rect class="ColorScheme-Text" width="7" height="2" x="3" y="9" rx=".538" ry=".5" fill="currentColor"/><rect class="ColorScheme-Text" width="7" height="2" x="3" y="7" rx=".538" ry=".5" fill="currentColor" opacity=".3"/><rect class="ColorScheme-Text" width="7" height="2" x="3" y="5" rx=".538" ry=".5" fill="currentColor"/><rect class="ColorScheme-Text" width="7" height="2" x="3" y="3" rx=".538" ry=".5" fill="currentColor" opacity=".3"/><rect class="ColorScheme-Text" width="7" height="2" x="12" y="17" rx=".538" ry=".5" fill="currentColor" opacity=".3"/><rect class="ColorScheme-Text" width="7" height="2" x="12" y="15" rx=".538" ry=".5" fill="currentColor"/><rect class="ColorScheme-Text" width="7" height="2" x="12" y="13" rx=".538" ry=".5" fill="currentColor" opacity=".3"/><rect class="ColorScheme-Text" width="7" height="2" x="12" y="11" rx=".538" ry=".5" fill="currentColor"/></svg>