<svg xmlns="http://www.w3.org/2000/svg" width="22" height="22"><defs><style id="current-color-scheme" type="text/css">.ColorScheme-Text{color:#1e333d}</style></defs><path class="ColorScheme-Text" d="M16 4.5c-3.595 0-6.494 1.037-8.479 3.021C5.537 9.508 4.5 12.405 4.5 16h1c0-3.405.963-6.006 2.729-7.771C9.994 6.464 12.595 5.5 16 5.5z" fill="currentColor"/><path class="ColorScheme-Text" d="M3.295 8.096A3.5 3.5 0 0 0 3 9.5 3.5 3.5 0 0 0 6.5 13a3.5 3.5 0 0 0 3.402-2.695A4.5 4.5 0 0 1 7.5 11a4.5 4.5 0 0 1-4.205-2.904zM9 3.502A2.5 2.5 0 0 0 8 5.5 2.5 2.5 0 0 0 10.5 8a2.5 2.5 0 0 0 1.996-1A3.5 3.5 0 0 1 9 3.502zM7 17a2 2 0 0 1-2 2 2 2 0 0 1-2-2 2 2 0 0 1 2-2 2 2 0 0 1 2 2zM19 5a2 2 0 0 1-2 2 2 2 0 0 1-2-2 2 2 0 0 1 2-2 2 2 0 0 1 2 2z" fill="currentColor"/></svg>