<svg xmlns="http://www.w3.org/2000/svg" width="22" height="22"><path class="ColorScheme-Text" d="M9.576 3.762C6.5 3.762 3.99 6.275 3.99 9.348c0 1.079.29 2.096.825 2.952l1.492-1.494a3.596 3.596 0 0 1-.286-1.46 3.538 3.538 0 0 1 3.555-3.555c.52 0 .985.12 1.429.318l.762-.762.095-.093.635-.667a5.523 5.523 0 0 0-2.915-.825zm5.192 1.013a.721.721 0 0 0-.512.217l-1.418 1.426 2.714 2.716 1.426-1.419a.72.72 0 0 0 0-1.027l-1.696-1.696a.726.726 0 0 0-.514-.217zm-2.906 2.62L5.006 14.25v2.714H7.72l6.858-6.856zm2.412 5.19l-1.46 1.43 3.682 3.681c.973.953 2.402-.508 1.428-1.46z" color="#1e333d" fill="#1e333d"/></svg>