<svg xmlns="http://www.w3.org/2000/svg" width="22" height="22" version="1.1" id="svg7"><defs id="defs3"><style type="text/css" id="current-color-scheme"></style></defs><path transform="translate(3 3)" d="M6.49.996c-3.029 0-5.5 2.475-5.5 5.5s2.471 5.5 5.5 5.5a5.513 5.513 0 0 0 3.125-.969l3.688 3.688a1.006 1.006 0 1 0 1.406-1.438L11.021 9.59c.611-.886 1-1.944 1-3.094 0-3.025-2.502-5.5-5.53-5.5zm0 2c1.948 0 3.5 1.555 3.5 3.5s-1.552 3.5-3.5 3.5a3.483 3.483 0 0 1-3.5-3.5c0-1.945 1.553-3.5 3.5-3.5z" id="path5" fill="#1e333d" opacity="1" fill-opacity="1" color="#1e333d"/></svg>