<svg xmlns="http://www.w3.org/2000/svg" width="22" height="22" version="1.1" id="svg7"><defs id="defs3"><style type="text/css" id="current-color-scheme"></style></defs><path transform="translate(3 3)" d="M4 2v2h6c.428 0 1 .614 1 1v1H6c-.92 0-1.736.384-2.25.969A3.017 3.017 0 0 0 3 9c.006.72.269 1.453.781 2.031C4.294 11.61 5.091 12 6 12h7v-.844c.016-.094 0-.156 0-.156V5a3 3 0 0 0-3-3H4zm2 6h5v2H6c-.398 0-.567-.11-.719-.281A1.144 1.144 0 0 1 5 9c-.002-.28.105-.554.25-.719C5.395 8.116 5.578 8 6 8zm-4 5v2h12v-2H2z" id="path5" fill="currentColor" opacity="1" color="#1e333d"/></svg>