<svg xmlns="http://www.w3.org/2000/svg" width="22" height="22"><defs><style type="text/css" id="current-color-scheme"></style></defs><path d="M4.844 4.01c-.282.047-.844.25-.844 1v11s0 1 1 1h8.672v-1.682a1 1 0 0 1-1.328-.076l-.707-.707a1 1 0 0 1 0-1.414l.949-.95 1.879-1.878a1 1 0 0 1 1.414 0l1.879 1.879.242.242V7.01c0-1-1-1-1-1h-5l-2-2H5s-.063-.016-.156 0zm10.328 7l-1.879 1.879-.95.949.708.707.949-.95.672-.671v4.086h1v-4.086l.672.672.949.949.707-.707-.95-.95-1.878-1.878z" fill="currentColor" color="#1e333d"/></svg>