<svg xmlns="http://www.w3.org/2000/svg" width="22" height="22" version="1.1" id="svg7"><defs id="defs3"><style type="text/css" id="current-color-scheme"></style></defs><g id="g4504" transform="translate(32.668 -1.55) scale(1.375)" stroke-width="3.296" fill-opacity="1" fill-rule="nonzero" stroke="none" stroke-linecap="round" stroke-linejoin="bevel" stroke-miterlimit="10" stroke-dasharray="none" stroke-dashoffset="0" stroke-opacity="1"><path id="rect4488" d="M-19.648 1.128c-.774 0-1.398.623-1.398 1.398V15.73c0 .775.624 1.399 1.398 1.399h7.778c.775 0 1.398-.624 1.398-1.399V2.526c0-.775-.623-1.398-1.398-1.398zm.364 2.295h7.05v9.035h-7.05zm4.95 10.521h1.513c.279 0 .504.223.504.502v.281a.501.501 0 0 1-.504.502h-1.512a.5.5 0 0 1-.502-.502v-.281a.5.5 0 0 1 .502-.502z" opacity="1" fill="#1e333d"/><rect ry=".42" y="13.943" x="-19.199" height="1.287" width="2.517" id="rect4492" opacity="1" fill="#ff7357"/></g></svg>