<svg xmlns="http://www.w3.org/2000/svg" width="22" height="22"><defs><style id="current-color-scheme" type="text/css">.ColorScheme-Text{color:#1e333d}</style></defs><path class="ColorScheme-Text" d="M5 7c-1.108 0-2 .892-2 2v8c0 1.108.892 2 2 2h8c1.108 0 2-.892 2-2v-1h-1v-2h-2v2H6v-6h2V8H6V7H5z" fill="currentColor" opacity=".3"/><path class="ColorScheme-Text" d="M9 3C7 3 7 5 7 5v2h2V5h2V3zm6 0v2h2v2h2V5c0-2-2-2-2-2zm-8 8v2c0 2 2 2 2 2h2v-2H9v-2zm10 0v2h-2v2h2c2 0 2-2 2-2v-2zm0-2a4 4 0 0 1-4 4 4 4 0 0 1-4-4 4 4 0 0 1 4-4 4 4 0 0 1 4 4z" fill="currentColor"/></svg>