<svg xmlns="http://www.w3.org/2000/svg" width="22" height="22"><defs><style id="current-color-scheme" type="text/css">.ColorScheme-Text{color:#1e333d}</style></defs><path class="ColorScheme-Text" d="M8 8v3h1V9h2V8H8zm7 0v1h2v8H9v-2H8v3h10V8h-3z" fill="currentColor"/><path class="ColorScheme-Text" d="M8.5 3A5.5 5.5 0 0 0 3 8.5 5.5 5.5 0 0 0 8.5 14 5.5 5.5 0 0 0 14 8.5 5.5 5.5 0 0 0 8.5 3zm0 2A3.5 3.5 0 0 1 12 8.5 3.5 3.5 0 0 1 8.5 12 3.5 3.5 0 0 1 5 8.5 3.5 3.5 0 0 1 8.5 5z" opacity=".3" fill="currentColor"/></svg>