<svg xmlns="http://www.w3.org/2000/svg" width="22" height="22"><defs><style id="current-color-scheme" type="text/css">.ColorScheme-Text{color:#1e333d}</style></defs><path class="ColorScheme-Text" d="M8 8v3.959a3.5 3.5 0 0 0 .5.041A3.5 3.5 0 0 0 12 8.5a3.5 3.5 0 0 0-.04-.5zm5.973 0a5.5 5.5 0 0 1 .027.5A5.5 5.5 0 0 1 8.5 14a5.5 5.5 0 0 1-.5-.025V18h10V8z" fill="currentColor"/><path class="ColorScheme-Text" d="M8.5 3A5.5 5.5 0 0 0 3 8.5a5.5 5.5 0 0 0 5 5.475V8h5.973A5.5 5.5 0 0 0 8.5 3z" opacity=".3" fill="currentColor"/></svg>