<svg xmlns="http://www.w3.org/2000/svg" height="22" width="22" version="1"><rect width="28.203" height="28.203" x="1.898" y="-8.102" ry="5.575" fill="none"/><path d="M1.5 3.67V18.33h2.697V9.065l5.851 9.266h2.577V3.669H9.899v9.3l-5.814-9.3zM16.693 6.4c-1.116 0-2.09.386-2.8 1.14l-.004-.001c-.706.756-1.05 1.784-1.05 2.977 0 1.435.351 2.583 1.14 3.32h.005c.707.647 1.58.962 2.519.992h-3.49v2.406h7.293v-2.406H16.73c1.067-.03 2.02-.382 2.7-1.122l.005-.004c.717-.776 1.065-1.834 1.065-3.073 0-1.227-.338-2.276-1.037-3.052-.69-.775-1.658-1.176-2.77-1.176zm-.038 2.277c.277 0 .519.107.806.422l.004.004c.23.244.404.73.404 1.526 0 .751-.16 1.234-.4 1.514-.273.319-.508.425-.805.425-.331 0-.557-.11-.814-.438-.225-.293-.38-.798-.38-1.56 0-.728.154-1.197.38-1.471.263-.313.493-.422.805-.422z" style="line-height:1.25;font-variant-ligatures:normal;font-variant-position:normal;font-variant-caps:normal;font-variant-numeric:normal;font-variant-alternates:normal;font-feature-settings:normal;text-indent:0;text-align:start;text-decoration-line:none;text-decoration-style:solid;text-decoration-color:#000;text-transform:none;text-orientation:mixed;white-space:normal;shape-padding:0;isolation:auto;mix-blend-mode:normal;solid-color:#000;solid-opacity:1" color="#000" font-weight="400" font-size="8.922" font-family="sans-serif" letter-spacing="0" word-spacing="0" overflow="visible" fill="#999" stroke-width=".725"/></svg>