<svg xmlns="http://www.w3.org/2000/svg" width="22" height="22"><defs><style type="text/css" id="current-color-scheme"></style></defs><path d="M14.004 6.982a1 1 0 0 0-.707.293l-2.293 2.293L8.72 7.285a1 1 0 0 0-.01-.01 1 1 0 0 0-.701-.289L8 7a1 1 0 0 0-1 1 1 1 0 0 0 .293.707L9.586 11l-2.293 2.293a1 1 0 0 0-.29.7 1 1 0 0 0 1 1 1 1 0 0 0 .708-.294l2.293-2.293 2.283 2.283a1 1 0 0 0 .717.303 1 1 0 0 0 1-1 1 1 0 0 0-.293-.707l-2.3-2.299 2.282-2.283a1 1 0 0 0 .31-.72 1 1 0 0 0-1-1z" fill="currentColor" color="#1e333d"/></svg>