<svg xmlns="http://www.w3.org/2000/svg" width="22" height="22" version="1.1" id="svg7"><defs id="defs3"><style type="text/css" id="current-color-scheme"></style></defs><path transform="translate(3 3)" d="M3.19 2.004c-.663 0-1.188.549-1.188 1.219v3.78h2v-3h3v-2H3.189zm5.812 0v2h3v3h2V3.223c0-.67-.525-1.22-1.188-1.22H9.002zm-7 7v3.781c0 .67.525 1.219 1.187 1.219h3.813v-2h-3v-3h-2zm10 0v3h-3v2h3.812c.663 0 1.188-.549 1.188-1.219V9.004h-2z" id="path5" fill="currentColor" opacity="1" color="#1e333d"/></svg>