<svg xmlns="http://www.w3.org/2000/svg" xmlns:xlink="http://www.w3.org/1999/xlink" width="32" height="32" version="1"><defs><linearGradient id="a"><stop offset="0" stop-color="#cd7724"/><stop offset="1" stop-color="#edb177"/></linearGradient><linearGradient id="b"><stop offset="0" stop-color="#8998ad"/><stop offset="1" stop-color="#f4e3d2"/></linearGradient><linearGradient xlink:href="#a" id="d" x1="-5.667" y1="22.201" x2="-5.597" y2="10.718" gradientUnits="userSpaceOnUse" gradientTransform="matrix(1.84715 0 0 1.9123 26.881 -14.457)"/><linearGradient xlink:href="#b" id="c" x1="-34.169" y1="21.288" x2="-13.153" y2="7.458" gradientUnits="userSpaceOnUse" gradientTransform="matrix(1.22724 0 0 1.55276 46.268 -6.946)"/></defs><g transform="translate(.001)"><path d="M19.993 2.14c-2.39 0-3.167 1.95-4.395 3.9H4.14C2.4 6.04 1 7.488 1 9.29V24.888c.008.18.046.356.08.528a3.195 3.195 0 0 0 2.551 2.64c.214.046.4.082.628.082h23.624c.227 0 .414-.035.628-.082a3.199 3.199 0 0 0 2.55-2.64c.034-.172.07-.348.079-.528V5.552c0-1.9-1.443-3.413-3.257-3.413h-7.887z" fill="#cd7724" stroke="#edb177" stroke-width=".1"/><rect width="25.793" height="21.475" x="4.434" y="4.634" transform="rotate(.008) skewX(.002)" ry="1.735" opacity=".647" fill="#8d5b2b" paint-order="markers stroke fill"/><rect width="25.793" height="21.475" x="4.334" y="4.634" transform="rotate(.008) skewX(.002)" ry="1.735" fill="url(#c)" paint-order="markers stroke fill"/><path d="M12.147 2.14c2.39 0 3.167 1.95 4.395 3.9H28c1.74 0 3.14 1.449 3.14 3.25V24.888c-.008.18-.046.356-.08.528a3.195 3.195 0 0 1-2.551 2.64c-.214.046-.4.082-.628.082H4.257c-.227 0-.414-.035-.628-.082a3.199 3.199 0 0 1-2.55-2.64c-.034-.172-.07-.348-.079-.528V5.552c0-1.9 1.443-3.413 3.257-3.413h7.887z" fill="url(#d)" stroke="#edb177" stroke-width=".1"/><path d="M10.476 18.431c-.052-.347.05-1.154.201-1.607l.12-.357-.546-.681c-.714-.89-.792-1.027-.792-1.392a1 1 0 0 1 .993-.99c.382 0 .634.174 1.08.744.23.294.436.556.459.582.023.026.195-.065.382-.203.74-.544 1.7-.936 2.63-1.072.727-.106 1.896-.04 2.567.143.683.188 1.447.56 1.98.965l.413.314.487-.61c.53-.663.805-.866 1.175-.866.239 0 .585.151.74.324.144.157.274.499.274.716 0 .276-.132.493-.841 1.388l-.639.806.114.442c.077.302.113.63.113 1.031v.59h-10.87zm3.57-.831c.702-.47.375-1.522-.473-1.522-.482 0-.804.265-.873.718-.045.298.155.687.427.83.28.146.678.135.918-.026zm4.806.015c.381-.184.578-.655.433-1.035-.078-.206-.343-.44-.578-.51a.848.848 0 0 0-.821.184c-.358.314-.4.786-.103 1.14.284.337.666.416 1.069.221z" opacity=".647" fill="#8d5b2b"/><path d="M10.376 18.331c-.052-.347.05-1.154.202-1.607l.12-.357-.546-.681c-.715-.89-.793-1.027-.793-1.393a1 1 0 0 1 .993-.99c.382 0 .634.175 1.08.745.23.294.436.556.46.582.022.026.194-.065.381-.203.74-.545 1.7-.936 2.63-1.072.727-.106 1.896-.041 2.567.143.683.188 1.447.56 1.98.965l.413.313.487-.61c.53-.662.805-.865 1.175-.865.24 0 .585.151.741.324.143.157.273.499.273.716 0 .276-.132.493-.841 1.388l-.638.805.113.443c.077.301.113.63.113 1.031v.59h-10.87zm3.57-.831c.702-.47.375-1.522-.473-1.522-.481 0-.804.265-.873.717-.045.3.155.687.428.83.279.146.677.135.917-.025zm4.806.015c.381-.185.578-.655.434-1.035-.079-.206-.344-.44-.579-.51a.848.848 0 0 0-.821.184c-.358.314-.4.786-.103 1.14.285.337.666.416 1.069.221z" fill="#f4e3d2"/><path d="M13.32 17.672c-.392-.087-.674-.59-.561-1 .075-.273.265-.454.558-.533.57-.153 1.084.23 1.084.81-.001.493-.53.847-1.081.723z" opacity=".647" fill="#8d5b2b"/><path d="M13.22 17.572c-.392-.087-.674-.59-.561-1 .075-.273.265-.454.558-.533.57-.154 1.084.23 1.084.81 0 .493-.53.847-1.081.723z" fill="#cd7724"/><path d="M17.978 17.535a.831.831 0 0 1-.305-.399c-.094-.244-.094-.271 0-.516a.803.803 0 0 1 .758-.539c.475 0 .867.344.867.759 0 .667-.767 1.07-1.32.695z" opacity=".647" fill="#8d5b2b"/><path d="M17.879 17.435a.831.831 0 0 1-.306-.398c-.093-.245-.093-.272 0-.516a.803.803 0 0 1 .759-.54c.474 0 .867.344.866.76 0 .667-.766 1.07-1.32.694z" fill="#cd7724"/></g></svg>