<svg xmlns="http://www.w3.org/2000/svg" xmlns:xlink="http://www.w3.org/1999/xlink" width="32" height="32" version="1"><defs><linearGradient id="a"><stop offset="0" stop-color="#cd7724"/><stop offset="1" stop-color="#edb177"/></linearGradient><linearGradient id="b"><stop offset="0" stop-color="#8998ad"/><stop offset="1" stop-color="#f4e3d2"/></linearGradient><linearGradient xlink:href="#a" id="d" x1="-5.667" y1="22.201" x2="-5.597" y2="10.718" gradientUnits="userSpaceOnUse" gradientTransform="matrix(1.84715 0 0 1.9123 26.881 -14.457)"/><linearGradient xlink:href="#b" id="c" x1="-34.169" y1="21.288" x2="-13.153" y2="7.458" gradientUnits="userSpaceOnUse" gradientTransform="matrix(1.22724 0 0 1.55276 46.268 -6.946)"/></defs><g transform="translate(.001)"><path d="M19.993 2.14c-2.39 0-3.167 1.95-4.395 3.9H4.14C2.4 6.04 1 7.488 1 9.29V24.888c.008.18.046.356.08.528a3.195 3.195 0 0 0 2.551 2.64c.214.046.4.082.628.082h23.624c.227 0 .414-.035.628-.082a3.199 3.199 0 0 0 2.55-2.64c.034-.172.07-.348.079-.528V5.552c0-1.9-1.443-3.413-3.257-3.413h-7.887z" fill="#cd7724" stroke="#edb177" stroke-width=".1"/><rect width="25.793" height="21.475" x="4.434" y="4.634" transform="rotate(.008) skewX(.002)" ry="1.735" opacity=".647" fill="#8d5b2b" paint-order="markers stroke fill"/><rect width="25.793" height="21.475" x="4.334" y="4.634" transform="rotate(.008) skewX(.002)" ry="1.735" fill="url(#c)" paint-order="markers stroke fill"/><path d="M12.147 2.14c2.39 0 3.167 1.95 4.395 3.9H28c1.74 0 3.14 1.449 3.14 3.25V24.888c-.008.18-.046.356-.08.528a3.195 3.195 0 0 1-2.551 2.64c-.214.046-.4.082-.628.082H4.257c-.227 0-.414-.035-.628-.082a3.199 3.199 0 0 1-2.55-2.64c-.034-.172-.07-.348-.079-.528V5.552c0-1.9 1.443-3.413 3.257-3.413h7.887z" fill="url(#d)" stroke="#edb177" stroke-width=".1"/><path d="M20.24 11.052l-.107.064c-.058.035-.164.096-.235.136l-.198.115-.193.111c-.068.038-.186.108-.262.155a1.244 1.244 0 0 1-.152.085c-.016 0-.032.028-.135.227l-.113.217c-.018.032-.078.148-.133.256l-.098.197-1.31 1.365c-.72.751-1.313 1.366-1.318 1.365-.006 0-.065-.055-.133-.12-.15-.148-.24-.194-.378-.194-.164 0-.28.064-.456.246l-.152.157.012.11a.802.802 0 0 1-.187.603c-.142.17-.321.246-.571.246-.166 0-.174.002-.24.062-.036.035-.614.627-1.283 1.316-1.116 1.148-1.221 1.262-1.27 1.374a.491.491 0 0 0-.018.404c.05.12 1.324 1.44 1.42 1.47.102.034.28.019.389-.033.096-.047.179-.13 2.067-2.08l.59-.61-.01-.15a.774.774 0 0 1 .438-.761c.103-.053.132-.058.308-.06h.195l.14-.144c.185-.193.228-.28.227-.473 0-.182-.028-.244-.182-.4a.765.765 0 0 1-.11-.128c0-.009.593-.634 1.319-1.39l1.32-1.373.208-.112c.602-.326.618-.336.66-.422.036-.072.144-.276.183-.347.018-.032.074-.139.124-.236.05-.098.125-.24.167-.316.043-.075.09-.163.105-.194l.027-.055-.328-.34zm-6.909.089c-.1-.007-.19-.005-.274.005-.205.027-.44.078-.44.096 0 .007.248.27.55.585.303.314.558.585.567.602.01.02.008.05-.007.08a3.309 3.309 0 0 0-.066.155 16.839 16.839 0 0 0-.198.48l-.102.253-.329.148c-.18.08-.372.166-.424.192a1.522 1.522 0 0 1-.133.058c-.032.01-.142-.096-.606-.58a23.69 23.69 0 0 0-.577-.59c-.014 0-.05.14-.077.295-.028.163-.028.553.001.703.122.634.434 1.109.952 1.453.06.04.113.072.118.072.004 0 .053.023.108.05.242.116.562.187.843.187.14 0 .436-.045.582-.088.03-.01.102.056.35.314.171.18.322.326.334.326.012 0 .036-.03.053-.068.06-.132.066-.274.02-.474-.012-.056 0-.073.202-.277.238-.24.375-.326.58-.364a.72.72 0 0 1 .562.15c.065.051.068.051.105.017.02-.02.037-.045.036-.057 0-.012-.155-.182-.345-.378-.19-.197-.39-.406-.445-.465l-.1-.108.021-.097c.11-.49.099-.788-.053-1.298a2.628 2.628 0 0 0-.252-.484 2.036 2.036 0 0 0-1.556-.893zm3.91 4.935l-.04.045a.187.187 0 0 0-.041.059c0 .007.03.054.066.103.095.131.13.275.117.486-.018.283-.094.407-.499.81l-.075.075-.12-.033a.476.476 0 0 0-.432.077c-.02.016.177.231.864.948l.888.929.013.146c.03.34.216.68.49.895.162.128.298.196.476.238l.17.04c.075.019.366-.01.494-.047.567-.168.938-.679.94-1.29.001-.7-.483-1.27-1.146-1.347l-.128-.015-1.019-1.06zm2.029 2.848c.122 0 .168.009.24.047a.642.642 0 0 1 .272.296c.044.092.049.123.042.256a.579.579 0 0 1-.053.247.647.647 0 0 1-.314.293.667.667 0 0 1-.348.016.602.602 0 0 1-.285-.944.513.513 0 0 1 .446-.21z" opacity=".647" fill="#8d5b2b"/><path d="M20.149 10.96l-.107.065c-.058.035-.164.096-.235.136l-.198.115-.193.111c-.068.038-.186.108-.262.155a1.244 1.244 0 0 1-.152.085c-.016 0-.032.028-.135.227l-.113.217c-.018.032-.078.148-.133.256l-.098.197-1.31 1.365c-.72.751-1.313 1.366-1.318 1.365-.006 0-.065-.055-.133-.12-.15-.148-.24-.194-.378-.194-.164 0-.28.064-.456.246l-.153.157.013.11a.802.802 0 0 1-.187.603c-.143.17-.321.246-.571.246-.167 0-.174.002-.24.062-.036.035-.614.627-1.283 1.316-1.116 1.148-1.221 1.262-1.27 1.374a.491.491 0 0 0-.018.404c.05.12 1.324 1.439 1.42 1.47.102.034.28.019.389-.033.096-.047.179-.13 2.067-2.08l.59-.61-.01-.15a.774.774 0 0 1 .438-.761c.102-.053.132-.058.307-.06h.196l.14-.144c.185-.193.228-.28.227-.473 0-.182-.028-.244-.182-.4a.765.765 0 0 1-.11-.128c0-.009.593-.634 1.319-1.39l1.32-1.373.208-.112c.602-.326.618-.336.66-.422.036-.072.143-.277.183-.347.018-.032.074-.139.124-.236.05-.098.125-.24.167-.316.043-.075.09-.163.105-.194l.027-.055-.328-.34zm-6.909.09c-.1-.007-.19-.005-.274.005-.205.027-.44.078-.44.096 0 .007.248.27.55.585.303.314.558.585.567.602.01.02.008.05-.007.08a3.309 3.309 0 0 0-.066.155 16.839 16.839 0 0 0-.198.48l-.102.253-.329.148c-.18.08-.372.166-.424.191a1.522 1.522 0 0 1-.133.059c-.032.01-.142-.096-.606-.58a23.69 23.69 0 0 0-.577-.59c-.014 0-.05.14-.077.295-.028.163-.028.553.001.703.122.634.434 1.109.952 1.453.06.04.113.072.117.072.005 0 .054.023.109.05.242.116.562.187.843.187.14 0 .436-.045.582-.088.03-.01.102.055.35.314.171.18.322.326.334.326.012 0 .036-.03.053-.068.06-.132.066-.274.02-.474-.012-.056 0-.073.202-.277.238-.24.375-.326.58-.364a.72.72 0 0 1 .562.15c.065.05.068.051.105.017.02-.02.037-.045.036-.057 0-.012-.155-.182-.345-.379-.19-.196-.39-.405-.445-.464l-.1-.108.021-.097c.11-.491.099-.788-.053-1.298a2.628 2.628 0 0 0-.252-.484 2.036 2.036 0 0 0-1.556-.893zm3.91 4.935l-.04.045a.187.187 0 0 0-.041.058c0 .008.03.055.065.104.096.131.131.275.118.486-.018.283-.094.407-.499.81l-.075.075-.12-.033a.476.476 0 0 0-.432.077c-.02.016.177.231.864.948l.888.929.013.146c.03.34.216.68.49.895.162.128.298.196.476.238l.17.04c.075.019.366-.01.494-.047.566-.168.938-.679.94-1.29.001-.7-.483-1.27-1.146-1.347l-.128-.015-1.019-1.06zm2.029 2.848c.122 0 .168.009.24.047a.642.642 0 0 1 .272.296c.044.092.049.123.042.256a.579.579 0 0 1-.053.247.647.647 0 0 1-.314.293.667.667 0 0 1-.349.016.602.602 0 0 1-.284-.944.513.513 0 0 1 .446-.21z" fill="#f4e3d2"/></g></svg>