<?xml version="1.0" encoding="UTF-8" standalone="no"?>
<svg
   xmlns:dc="http://purl.org/dc/elements/1.1/"
   xmlns:cc="http://creativecommons.org/ns#"
   xmlns:rdf="http://www.w3.org/1999/02/22-rdf-syntax-ns#"
   xmlns:svg="http://www.w3.org/2000/svg"
   xmlns="http://www.w3.org/2000/svg"
   xmlns:xlink="http://www.w3.org/1999/xlink"
   xmlns:sodipodi="http://sodipodi.sourceforge.net/DTD/sodipodi-0.dtd"
   xmlns:inkscape="http://www.inkscape.org/namespaces/inkscape"
   width="32"
   height="32"
   version="1"
   id="svg14"
   sodipodi:docname="folder-network.svg"
   inkscape:version="0.92.4 5da689c313, 2019-01-14">
  <metadata
     id="metadata20">
    <rdf:RDF>
      <cc:Work
         rdf:about="">
        <dc:format>image/svg+xml</dc:format>
        <dc:type
           rdf:resource="http://purl.org/dc/dcmitype/StillImage" />
        <dc:title />
      </cc:Work>
    </rdf:RDF>
  </metadata>
  <defs
     id="defs18">
    <linearGradient
       id="linearGradient990"
       inkscape:collect="always">
      <stop
         id="stop986"
         offset="0"
         style="stop-color:#cd7724;stop-opacity:1" />
      <stop
         id="stop988"
         offset="1"
         style="stop-color:#edb177;stop-opacity:1" />
    </linearGradient>
    <linearGradient
       inkscape:collect="always"
       id="linearGradient889">
      <stop
         style="stop-color:#8998ad;stop-opacity:1"
         offset="0"
         id="stop885" />
      <stop
         style="stop-color:#f4e3d2;stop-opacity:1"
         offset="1"
         id="stop887" />
    </linearGradient>
    <linearGradient
       inkscape:collect="always"
       xlink:href="#linearGradient990"
       id="linearGradient975"
       x1="-5.667089"
       y1="22.200636"
       x2="-5.5973864"
       y2="10.717914"
       gradientUnits="userSpaceOnUse"
       gradientTransform="matrix(1.8471337,0,0,1.8471337,-1.6973853,-28.433842)" />
    <linearGradient
       inkscape:collect="always"
       xlink:href="#linearGradient889"
       id="linearGradient891-3-3"
       x1="-34.169491"
       y1="21.288134"
       x2="-13.152548"
       y2="7.4576306"
       gradientUnits="userSpaceOnUse"
       gradientTransform="matrix(1.2272328,0,0,1.4998451,17.688366,-21.176367)" />
  </defs>
  <sodipodi:namedview
     pagecolor="#ffffff"
     bordercolor="#666666"
     borderopacity="1"
     objecttolerance="10"
     gridtolerance="10"
     guidetolerance="10"
     inkscape:pageopacity="0"
     inkscape:pageshadow="2"
     inkscape:window-width="1002"
     inkscape:window-height="789"
     id="namedview16"
     showgrid="false"
     inkscape:zoom="17.56"
     inkscape:cx="16"
     inkscape:cy="18.334852"
     inkscape:window-x="479"
     inkscape:window-y="138"
     inkscape:window-maximized="0"
     inkscape:current-layer="g829"
     showguides="true"
     inkscape:guide-bbox="true"
     inkscape:snap-global="true">
    <sodipodi:guide
       position="23.186441,0"
       orientation="0,1"
       id="guide846"
       inkscape:locked="false" />
  </sodipodi:namedview>
  <g
     id="g872"
     transform="matrix(1.0000063,0,0,1.0352793,28.578472,14.980279)">
    <path
       inkscape:connector-curvature="0"
       d="m -8.5853303,-12.403521 c -2.3908547,0 -3.1668757,1.884805 -4.3949507,3.7670978 h -11.458257 c -1.739142,0 -3.139248,1.4001052 -3.139248,3.1392492 v 1.2557 10.6734457 1.883548 1.098738 0.156969 c 0.0076,0.174536 0.0452,0.344062 0.07911,0.5098153 0.149433,0.867687 0.644171,1.60855 1.373734,2.079436 0.347828,0.224771 0.749652,0.388013 1.177845,0.470888 0.213466,0.04394 0.400564,0.07911 0.627846,0.07911 h 23.62347871 c 0.227282,0 0.41438,-0.0339 0.62785,-0.07911 0.426937,-0.08288 0.828761,-0.246117 1.17659099,-0.470888 0.72956,-0.470886 1.22305,-1.211749 1.373733,-2.079436 0.0339,-0.1657443 0.07032,-0.3365283 0.07911,-0.5098153 V 9.4142577 8.3155197 -9.1073111 c 0,-1.8358329 -1.442798,-3.2962099 -3.25728399,-3.2962099 H -8.5828173 Z"
       style="opacity:1;fill:#cd7724;fill-opacity:1;stroke:#edb177;stroke-width:0.09828107;stroke-miterlimit:4;stroke-dasharray:none;stroke-opacity:1"
       id="path25-2" />
    <rect
       style="opacity:0.647;vector-effect:none;fill:#8d5b2b;fill-opacity:1;fill-rule:nonzero;stroke:none;stroke-width:0.19693819;stroke-linecap:butt;stroke-linejoin:miter;stroke-miterlimit:4;stroke-dasharray:none;stroke-dashoffset:0;stroke-opacity:1;paint-order:markers stroke fill"
       id="rect883-5-5-3"
       width="25.792688"
       height="20.74362"
       x="-24.145704"
       y="-9.9910889"
       transform="matrix(0.99999999,1.0125852e-4,-6.7794228e-5,1,0,0)"
       inkscape:transform-center-x="4.5837926"
       inkscape:transform-center-y="-6.389833"
       ry="1.6756594" />
    <rect
       style="opacity:1;vector-effect:none;fill:url(#linearGradient891-3-3);fill-opacity:1;fill-rule:nonzero;stroke:none;stroke-width:0.19693819;stroke-linecap:butt;stroke-linejoin:miter;stroke-miterlimit:4;stroke-dasharray:none;stroke-dashoffset:0;stroke-opacity:1;paint-order:markers stroke fill"
       id="rect883-5-5"
       width="25.792688"
       height="20.74362"
       x="-24.245554"
       y="-9.9910784"
       transform="matrix(0.99999999,1.0125852e-4,-6.7794228e-5,1,0,0)"
       inkscape:transform-center-x="4.5837926"
       inkscape:transform-center-y="-6.389833"
       ry="1.6756594" />
    <path
       inkscape:connector-curvature="0"
       d="m -16.431455,-12.403521 c 2.390854,0 3.166876,1.884805 4.394951,3.7670978 h 11.45825471 c 1.73914199,0 3.13924799,1.4001052 3.13924799,3.1392492 v 1.2557 10.6734437 1.883548 1.098738 0.156969 c -0.0076,0.174536 -0.0452,0.344062 -0.07911,0.5098153 -0.149433,0.867687 -0.644173,1.60855 -1.373736,2.079436 -0.34782799,0.224771 -0.74965099,0.388013 -1.17784499,0.470888 -0.213465,0.04394 -0.400563,0.07911 -0.627846,0.07911 H -24.321014 c -0.227282,0 -0.41438,-0.03389 -0.62785,-0.07911 -0.426937,-0.08288 -0.828761,-0.246117 -1.176591,-0.470888 -0.72956,-0.470886 -1.22305,-1.211749 -1.373733,-2.079436 -0.03389,-0.1657433 -0.07032,-0.3365283 -0.07911,-0.5098153 V 9.4142557 8.3155177 -9.1073111 c 0,-1.8358329 1.442798,-3.2962099 3.257284,-3.2962099 h 7.887047 z"
       style="opacity:1;fill:url(#linearGradient975);fill-opacity:1;stroke:#f4e3d2;stroke-width:0.09828107;stroke-miterlimit:4;stroke-dasharray:none;stroke-opacity:1"
       id="path25" />
    <g
       id="g829"
       transform="translate(-0.05722011,-0.33138217)">
      <path
         inkscape:connector-curvature="0"
         id="path14-6-3"
         d="m -12.470931,-4.92054 c -3.59313,0 -6.506937,2.814531 -6.506937,6.28524 0,3.470709 2.913807,6.2852394 6.506937,6.2852394 3.5931307,0 6.5069377,-2.8145304 6.5069377,-6.2852394 0,-3.470709 -2.913807,-6.285239 -6.5069377,-6.28524 z m -0.464595,1.739756 c 0.06246,-0.0063 0.140549,0.0038 0.203016,0 0.0078,0.02891 -0.04555,0.130732 -0.115824,0.280321 -0.451581,0.952841 -0.477609,2.06910002 -0.05857,2.66619802 0.07548,0.108108 0.145756,0.211185 0.145756,0.223754 0,0.01383 -0.08199,0.02891 -0.174386,0.02891 -0.217332,0 -0.422951,-0.128218 -0.841999,-0.450023 -0.1874,-0.142047 -0.429457,-0.261466 -0.523157,-0.280322 -0.148358,-0.02765 -0.1874,-0.01509 -0.377403,0.168444 -0.178289,0.172216 -0.232948,0.263981 -0.232948,0.421112 0,0.594583 0.73138,1.068491 2.09133,1.34629798 1.846668,0.378372 2.302154,0.717774 2.352908,1.655532 0.06377,1.176597 -0.584322,2.064072 -2.004136,2.75042 -0.169181,0.08171 -0.277195,0.113136 -0.348772,0.139533 -0.03123,-0.0026 -0.05596,0.0038 -0.08719,0 -0.01171,-0.0352 -0.02863,-0.120676 -0.02863,-0.280322 0,-0.624752 -0.255072,-1.267105 -0.638981,-1.626619 -0.102814,-0.09679 -0.391719,-0.301693 -0.638981,-0.448767 -0.247264,-0.148332 -0.49713,-0.320546 -0.551788,-0.393456 -0.0924,-0.121932 -0.100209,-0.196099 -0.02993,-0.421111 0.128838,-0.409797 0.282402,-0.63858 0.58172,-0.897531 0.156166,-0.135762 0.313635,-0.250153 0.348772,-0.252667 0.03384,-0.0026 -0.200414,-0.07039 -0.551788,-0.14079 -0.352676,-0.06913 -0.866724,-0.214955 -1.133509,-0.307976 -0.486718,-0.16970198 -1.143919,-0.52796098 -1.393786,-0.78565498 -0.01038,-0.01131 -0.02082,-0.01885 -0.02993,-0.02765 0.359184,-1.38149602 1.366457,-2.51409602 2.701681,-3.05839802 0.279799,-0.114391 0.567405,-0.193585 0.87193,-0.252666 0.15096,-0.03017 0.308428,-0.04148 0.464595,-0.056569 z m 4.3570467,2.104297 c 0.109315,0.06536 0.521855,0.92644502 0.638982,1.34629802 0.152262,0.543045 0.140549,1.48205998 0,2.02007598 -0.05336,0.206156 -0.122333,0.397227 -0.144456,0.42111 -0.02343,0.02389 -0.10671,-0.113133 -0.204317,-0.28032 -0.0976,-0.167188 -0.408637,-0.521676 -0.667613,-0.785656 -0.748297,-0.76177098 -0.865422,-1.15899798 -0.551789,-1.76740798 0.157469,-0.306721 0.844601,-1.00438102 0.929193,-0.95410002 z"
         style="opacity:0.647;fill:#8d5b2b;fill-opacity:1;stroke-width:1.27902544" />
      <path
         inkscape:connector-curvature="0"
         id="path14-6"
         d="m -12.571415,-5.0172313 c -3.59313,0 -6.506937,2.814531 -6.506937,6.2852401 0,3.4707089 2.913807,6.2852389 6.506937,6.2852389 3.5931311,0 6.5069381,-2.81453 6.5069381,-6.2852389 0,-3.4707091 -2.913807,-6.2852391 -6.5069381,-6.2852401 z m -0.464595,1.739756 c 0.06246,-0.0063 0.140549,0.0038 0.203016,0 0.0078,0.02891 -0.04555,0.130732 -0.115824,0.280321 -0.451581,0.952841 -0.477609,2.06910001 -0.05857,2.66619815 0.07548,0.108108 0.145756,0.211185 0.145756,0.223754 0,0.01383 -0.08199,0.02891 -0.174386,0.02891 -0.217332,0 -0.422951,-0.128218 -0.841999,-0.450023 -0.1874,-0.14204697 -0.429457,-0.2614661 -0.523157,-0.28032212 -0.148358,-0.02765 -0.1874,-0.01509 -0.377403,0.16844415 -0.178289,0.17221597 -0.232948,0.26398097 -0.232948,0.42111197 0,0.594583 0.73138,1.068491 2.09133,1.34629795 1.846668,0.3783719 2.302154,0.7177739 2.352908,1.6555319 0.06377,1.176597 -0.584322,2.064072 -2.004136,2.75042 -0.169181,0.08171 -0.277195,0.113136 -0.348772,0.139533 -0.03123,-0.0026 -0.05596,0.0038 -0.08719,0 -0.01171,-0.0352 -0.02863,-0.120676 -0.02863,-0.280322 0,-0.624752 -0.255072,-1.267105 -0.638981,-1.626619 -0.102814,-0.09679 -0.391719,-0.301693 -0.638981,-0.448767 -0.247264,-0.148332 -0.49713,-0.320546 -0.551788,-0.393456 -0.0924,-0.121932 -0.100209,-0.196099 -0.02993,-0.421111 0.128838,-0.409797 0.282402,-0.63858 0.58172,-0.897531 0.156166,-0.135762 0.313635,-0.2501529 0.348772,-0.2526669 0.03384,-0.0026 -0.200414,-0.07039 -0.551788,-0.14079 -0.352676,-0.06913 -0.866724,-0.21495495 -1.133509,-0.30797595 -0.486718,-0.169702 -1.143919,-0.527961 -1.393786,-0.785655 -0.01038,-0.01131 -0.02082,-0.01885 -0.02993,-0.02765 0.359184,-1.38149615 1.366457,-2.51409615 2.701681,-3.05839815 0.279799,-0.114391 0.567405,-0.193585 0.87193,-0.252666 0.15096,-0.03017 0.308428,-0.04148 0.464595,-0.056569 z m 4.3570461,2.104297 c 0.109316,0.06536 0.521856,0.92644515 0.638982,1.34629815 0.152262,0.543045 0.140549,1.48205985 0,2.02007585 -0.05336,0.206156 -0.122332,0.397227 -0.144455,0.42111 -0.02343,0.02389 -0.10671,-0.113133 -0.204317,-0.28032 -0.0976,-0.167188 -0.408637,-0.521676 -0.667613,-0.785656 -0.748297,-0.76177085 -0.8654226,-1.15899785 -0.551789,-1.76740785 0.157469,-0.306721 0.844601,-1.00438115 0.929192,-0.95410015 z"
         style="opacity:1;fill:#f4e3d2;fill-opacity:1;stroke-width:1.27902544" />
    </g>
  </g>
</svg>
