<svg xmlns="http://www.w3.org/2000/svg" xmlns:xlink="http://www.w3.org/1999/xlink" width="32" height="32" version="1"><defs><linearGradient id="a"><stop offset="0" stop-color="#cd7724"/><stop offset="1" stop-color="#edb177"/></linearGradient><linearGradient id="b"><stop offset="0" stop-color="#8998ad"/><stop offset="1" stop-color="#f4e3d2"/></linearGradient><linearGradient xlink:href="#a" id="d" x1="-5.667" y1="22.201" x2="-5.597" y2="10.718" gradientUnits="userSpaceOnUse" gradientTransform="matrix(1.84715 0 0 1.9123 26.881 -14.457)"/><linearGradient xlink:href="#b" id="c" x1="-34.169" y1="21.288" x2="-13.153" y2="7.458" gradientUnits="userSpaceOnUse" gradientTransform="matrix(1.22724 0 0 1.55276 46.268 -6.946)"/></defs><g transform="translate(.001)"><path d="M19.993 2.14c-2.39 0-3.167 1.95-4.395 3.9H4.14C2.4 6.04 1 7.488 1 9.29V24.888c.008.18.046.356.08.528a3.195 3.195 0 0 0 2.551 2.64c.214.046.4.082.628.082h23.624c.227 0 .414-.035.628-.082a3.199 3.199 0 0 0 2.55-2.64c.034-.172.07-.348.079-.528V5.552c0-1.9-1.443-3.413-3.257-3.413h-7.887z" fill="#cd7724" stroke="#edb177" stroke-width=".1"/><rect width="25.793" height="21.475" x="4.434" y="4.634" transform="rotate(.008) skewX(.002)" ry="1.735" opacity=".647" fill="#8d5b2b" paint-order="markers stroke fill"/><rect width="25.793" height="21.475" x="4.334" y="4.634" transform="rotate(.008) skewX(.002)" ry="1.735" fill="url(#c)" paint-order="markers stroke fill"/><path d="M12.147 2.14c2.39 0 3.167 1.95 4.395 3.9H28c1.74 0 3.14 1.449 3.14 3.25V24.888c-.008.18-.046.356-.08.528a3.195 3.195 0 0 1-2.551 2.64c-.214.046-.4.082-.628.082H4.257c-.227 0-.414-.035-.628-.082a3.199 3.199 0 0 1-2.55-2.64c-.034-.172-.07-.348-.079-.528V5.552c0-1.9 1.443-3.413 3.257-3.413h7.887z" fill="url(#d)" stroke="#edb177" stroke-width=".1"/><path d="M16.05 10.534a11.1 11.1 0 0 0-.785.027 11.1 11.1 0 0 0-1.102.135 11.1 11.1 0 0 0-1.082.242 11.1 11.1 0 0 0-1.053.35 11.1 11.1 0 0 0-1.013.453l-.065.037c-.357.21-.717.404-1.074.64a11.1 11.1 0 0 0-.726.52 11.1 11.1 0 0 0-.075.066l1.05 1.287a9.387 9.387 0 0 1 .091-.08 9.387 9.387 0 0 1 .762-.545 9.387 9.387 0 0 1 .814-.466 9.387 9.387 0 0 1 .858-.383 9.387 9.387 0 0 1 .888-.297 9.387 9.387 0 0 1 .916-.205 9.387 9.387 0 0 1 .932-.113 9.387 9.387 0 0 1 .664-.024 9.387 9.387 0 0 1 .937.047 9.387 9.387 0 0 1 .928.14 9.387 9.387 0 0 1 .908.233 9.387 9.387 0 0 1 .883.32 9.387 9.387 0 0 1 .844.409 9.387 9.387 0 0 1 .8.49 9.387 9.387 0 0 1 .626.476l1.047-1.285a11.1 11.1 0 0 0-.696-.527c-.366-.246-.736-.441-1.103-.66a11.1 11.1 0 0 0-.852-.41 11.1 11.1 0 0 0-1.043-.381 11.1 11.1 0 0 0-1.074-.276 11.1 11.1 0 0 0-1.098-.166 11.1 11.1 0 0 0-1.107-.054zm0 3.03a8 8 0 0 0-.566.02 8 8 0 0 0-.793.098 8 8 0 0 0-.782.174 8 8 0 0 0-.757.252 8 8 0 0 0-.73.328 8 8 0 0 0-.694.396 8 8 0 0 0-.65.465 8 8 0 0 0-.079.069l1.02 1.25a6.387 6.387 0 0 1 .06-.053 6.387 6.387 0 0 1 .52-.373 6.387 6.387 0 0 1 .554-.317 6.387 6.387 0 0 1 .583-.261 6.387 6.387 0 0 1 .605-.201 6.387 6.387 0 0 1 .623-.14 6.387 6.387 0 0 1 .635-.077 6.387 6.387 0 0 1 .451-.016 6.387 6.387 0 0 1 .637.031 6.387 6.387 0 0 1 .633.096 6.387 6.387 0 0 1 .617.158 6.387 6.387 0 0 1 .6.219 6.387 6.387 0 0 1 .575.277 6.387 6.387 0 0 1 .543.334 6.387 6.387 0 0 1 .428.325l1.018-1.25a8 8 0 0 0-.533-.407 8 8 0 0 0-.682-.418 8 8 0 0 0-.72-.347 8 8 0 0 0-.753-.274 8 8 0 0 0-.773-.197 8 8 0 0 0-.791-.121 8 8 0 0 0-.799-.04zm0 3.282a4.719 4.719 0 0 0-.334.012 4.719 4.719 0 0 0-.469.056 4.719 4.719 0 0 0-.459.104 4.719 4.719 0 0 0-.447.148 4.719 4.719 0 0 0-.432.194 4.719 4.719 0 0 0-.408.234 4.719 4.719 0 0 0-.385.274 4.719 4.719 0 0 0-.045.04l2.979 3.657 2.978-3.654a4.719 4.719 0 0 0-.314-.24 4.719 4.719 0 0 0-.402-.247 4.719 4.719 0 0 0-.424-.205 4.719 4.719 0 0 0-.443-.162 4.719 4.719 0 0 0-.458-.117 4.719 4.719 0 0 0-.466-.07 4.719 4.719 0 0 0-.471-.024z" opacity=".647" fill="#8d5b2b"/><path d="M15.95 10.434a11.1 11.1 0 0 0-.785.027 11.1 11.1 0 0 0-1.102.135 11.1 11.1 0 0 0-1.082.242 11.1 11.1 0 0 0-1.053.35 11.1 11.1 0 0 0-1.013.453l-.065.037c-.357.21-.717.404-1.074.64a11.1 11.1 0 0 0-.726.52 11.1 11.1 0 0 0-.075.066l1.05 1.287a9.387 9.387 0 0 1 .091-.08 9.387 9.387 0 0 1 .762-.545 9.387 9.387 0 0 1 .814-.466 9.387 9.387 0 0 1 .858-.383 9.387 9.387 0 0 1 .888-.297 9.387 9.387 0 0 1 .916-.205 9.387 9.387 0 0 1 .932-.113 9.387 9.387 0 0 1 .664-.024 9.387 9.387 0 0 1 .937.047 9.387 9.387 0 0 1 .928.14 9.387 9.387 0 0 1 .908.233 9.387 9.387 0 0 1 .883.32 9.387 9.387 0 0 1 .844.409 9.387 9.387 0 0 1 .8.49 9.387 9.387 0 0 1 .626.476l1.047-1.285a11.1 11.1 0 0 0-.696-.527c-.366-.246-.736-.441-1.103-.66a11.1 11.1 0 0 0-.852-.41 11.1 11.1 0 0 0-1.043-.381 11.1 11.1 0 0 0-1.074-.276 11.1 11.1 0 0 0-1.098-.166 11.1 11.1 0 0 0-1.107-.054zm0 3.03a8 8 0 0 0-.566.02 8 8 0 0 0-.793.098 8 8 0 0 0-.782.174 8 8 0 0 0-.757.252 8 8 0 0 0-.73.328 8 8 0 0 0-.694.396 8 8 0 0 0-.65.465 8 8 0 0 0-.079.069l1.02 1.25a6.387 6.387 0 0 1 .06-.053 6.387 6.387 0 0 1 .52-.373 6.387 6.387 0 0 1 .554-.317 6.387 6.387 0 0 1 .583-.261 6.387 6.387 0 0 1 .605-.201 6.387 6.387 0 0 1 .623-.14 6.387 6.387 0 0 1 .635-.077 6.387 6.387 0 0 1 .451-.016 6.387 6.387 0 0 1 .637.031 6.387 6.387 0 0 1 .633.096 6.387 6.387 0 0 1 .617.158 6.387 6.387 0 0 1 .6.219 6.387 6.387 0 0 1 .575.277 6.387 6.387 0 0 1 .543.334 6.387 6.387 0 0 1 .428.325l1.018-1.25a8 8 0 0 0-.533-.407 8 8 0 0 0-.682-.418 8 8 0 0 0-.72-.347 8 8 0 0 0-.753-.274 8 8 0 0 0-.773-.197 8 8 0 0 0-.791-.121 8 8 0 0 0-.799-.04zm0 3.282a4.719 4.719 0 0 0-.334.012 4.719 4.719 0 0 0-.469.056 4.719 4.719 0 0 0-.459.104 4.719 4.719 0 0 0-.447.148 4.719 4.719 0 0 0-.432.194 4.719 4.719 0 0 0-.408.234 4.719 4.719 0 0 0-.385.274 4.719 4.719 0 0 0-.045.04l2.979 3.657 2.978-3.654a4.719 4.719 0 0 0-.314-.24 4.719 4.719 0 0 0-.402-.247 4.719 4.719 0 0 0-.424-.205 4.719 4.719 0 0 0-.443-.162 4.719 4.719 0 0 0-.458-.117 4.719 4.719 0 0 0-.466-.07 4.719 4.719 0 0 0-.471-.024z" fill="#f4e3d2"/></g></svg>