<svg xmlns="http://www.w3.org/2000/svg" xmlns:xlink="http://www.w3.org/1999/xlink" width="32" height="32" version="1"><defs><linearGradient id="a"><stop offset="0" stop-color="#cd7724"/><stop offset="1" stop-color="#edb177"/></linearGradient><linearGradient id="b"><stop offset="0" stop-color="#8998ad"/><stop offset="1" stop-color="#f4e3d2"/></linearGradient><linearGradient xlink:href="#a" id="d" x1="-5.667" y1="22.201" x2="-5.597" y2="10.718" gradientUnits="userSpaceOnUse" gradientTransform="matrix(1.84713 0 0 1.38432 -1.697 -18.125)"/><linearGradient xlink:href="#b" id="c" x1="-34.108" y1="14.176" x2="-13.089" y2="14.16" gradientUnits="userSpaceOnUse" gradientTransform="matrix(1.02344 0 0 1.25079 16.8 -27.94)"/></defs><g transform="translate(28.58 15.43)"><path d="M-8.585-11.483c-2.391 0-3.167 1.816-4.395 3.63H-24.44c-1.739 0-3.139 1.348-3.139 3.023V9.686c.008.168.045.332.08.491.149.836.643 1.55 1.373 2.004.348.216.75.373 1.178.453.213.043.4.076.628.076H-.696c.228 0 .415-.032.628-.076.427-.08.829-.237 1.177-.453a2.965 2.965 0 0 0 1.373-2.004c.034-.16.07-.324.08-.49V-8.308c0-1.769-1.443-3.176-3.258-3.176h-7.887z" fill="#cd7724" stroke="#edb177" stroke-width=".1"/><rect width="21.51" height="17.299" x="-18.101" y="-18.54" transform="rotate(-46.417) skewX(.002)" ry="1.397" opacity=".407" fill="#8d5b2b" paint-order="markers stroke fill"/><rect width="21.51" height="17.299" x="-18.17" y="-18.612" transform="rotate(-46.417) skewX(.002)" ry="1.397" fill="url(#c)" stroke="#888" stroke-width=".1" paint-order="markers stroke fill"/><path d="M-16.431-6.111c2.39 0 3.166 1.413 4.394 2.823H-.578c1.739 0 3.139 1.05 3.139 2.353V10.358c-.008.13-.045.258-.08.382-.149.65-.643 1.205-1.373 1.558-.348.169-.75.291-1.178.353-.213.033-.4.06-.628.06H-24.32a3.79 3.79 0 0 1-.628-.06 4.057 4.057 0 0 1-1.176-.353c-.73-.353-1.224-.908-1.374-1.558-.034-.124-.07-.252-.08-.382V-3.641c0-1.375 1.444-2.47 3.258-2.47h7.887z" fill="url(#d)" stroke="#edb177" stroke-width=".1"/></g></svg>