<svg xmlns="http://www.w3.org/2000/svg" xmlns:xlink="http://www.w3.org/1999/xlink" height="32" width="32" version="1"><defs><linearGradient id="c"><stop offset="0" stop-color="#edb177"/><stop offset="1" stop-color="#f4e3d2"/></linearGradient><linearGradient id="b"><stop offset="0" stop-color="#cd7724"/><stop offset="1" stop-color="#edb177"/></linearGradient><linearGradient id="a"><stop offset="0" stop-color="#cd7724"/><stop offset="1" stop-color="#edb177"/></linearGradient><linearGradient xlink:href="#a" id="d" x1="28.875" y1="37.835" x2="28.878" y2="24.606" gradientUnits="userSpaceOnUse" gradientTransform="translate(-12.678 -13.085)"/><linearGradient xlink:href="#b" id="e" x1="-27.217" y1="-20.711" x2="-27.235" y2="-26.395" gradientUnits="userSpaceOnUse" gradientTransform="matrix(.85607 0 0 .85607 51.374 41.67)"/><linearGradient xlink:href="#c" id="f" x1="-24.324" y1="-20.711" x2="-24.4" y2="-26.363" gradientUnits="userSpaceOnUse" gradientTransform="matrix(.85607 0 0 .85607 51.374 41.67)"/></defs><rect ry="5.575" y="1.898" x="1.898" height="28.203" width="28.203" fill="#f4e3d2" fill-rule="evenodd"/><path d="M8.168 11.525l2.554 13.221h10.761l2.554-13.22h-9.193z" fill="url(#d)"/><path d="M16.763 21.603a24.23 24.23 0 0 1-.48-.852c.002-.008.22-.388.483-.845l.48-.831.005.348.004.349.909.002.908.003-.011-.022-.419-.727-.545-.946-.14-.241.852-.492c.469-.27.855-.488.86-.483.019.023.87 1.513.889 1.557a1.004 1.004 0 0 1-.035.81c-.021.042-.308.539-1.036 1.797-.176.304-.206.347-.31.446a.955.955 0 0 1-.56.258c-.051.006-.361.01-.728.01h-.638l-.003.348-.002.348zm-2.848.13a1.004 1.004 0 0 1-.682-.419 142.378 142.378 0 0 1-1.212-2.1 1.005 1.005 0 0 1-.014-.817c.018-.04.176-.323.352-.627.253-.436.318-.555.308-.564a7.706 7.706 0 0 0-.282-.166c-.148-.085-.278-.16-.288-.167-.016-.012.133-.014.955-.014h.975l.485.84c.266.462.483.84.481.843a6.839 6.839 0 0 1-.302-.17 5.382 5.382 0 0 0-.304-.17c-.007.008-.905 1.565-.905 1.57 0 .002.5.005 1.11.005h1.112v1.967l-.864-.001c-.475 0-.891-.005-.925-.01zm.398-5.363a39.622 39.622 0 0 1-.849-.497 53.57 53.57 0 0 1 .9-1.555 1.02 1.02 0 0 1 .525-.345l.095-.026h2.575l.087.022c.101.026.24.09.33.15.08.054.189.163.24.24.022.032.182.305.356.606l.318.55c0 .002.138-.076.304-.172.167-.096.304-.174.306-.173.001.001-.217.382-.485.846l-.487.843h-.978c-.538 0-.976-.001-.974-.003l.298-.173c.161-.093.297-.172.301-.176a65.816 65.816 0 0 0-.889-1.559c-.01-.015-.09.118-.558.93l-.557.964c-.01.015-.104-.037-.858-.472z" opacity=".647" fill="#8d5b2b"/><path d="M16.663 21.503a24.23 24.23 0 0 1-.48-.852c.002-.008.22-.388.483-.845l.48-.83.005.348.005.348.908.002.908.003-.011-.022-.418-.727-.546-.946-.139-.24.852-.492c.468-.27.854-.488.858-.484.02.023.872 1.513.89 1.557a1.004 1.004 0 0 1-.035.81c-.021.042-.308.539-1.035 1.797-.177.304-.206.347-.311.446a.955.955 0 0 1-.56.258c-.051.006-.361.01-.727.01h-.639l-.003.348-.002.348zm-2.848.131a1.004 1.004 0 0 1-.681-.42 142.378 142.378 0 0 1-1.213-2.1 1.005 1.005 0 0 1-.014-.816c.018-.041.177-.324.353-.627.252-.437.317-.556.307-.565a7.706 7.706 0 0 0-.282-.165c-.148-.085-.277-.16-.288-.168-.016-.011.133-.013.955-.013h.975l.485.84c.266.46.483.84.482.842a6.839 6.839 0 0 1-.303-.17 5.382 5.382 0 0 0-.304-.17c-.007.008-.905 1.565-.905 1.57 0 .003.5.005 1.111.005h1.111v1.967h-.864c-.475-.001-.891-.006-.925-.01zm.399-5.364a39.622 39.622 0 0 1-.85-.497 53.57 53.57 0 0 1 .9-1.555 1.02 1.02 0 0 1 .525-.344l.096-.027h2.574l.088.023c.1.025.24.088.33.15.078.053.188.162.24.239.021.032.181.305.355.606l.318.551c.001.001.138-.076.305-.173.166-.096.303-.174.305-.172.001 0-.217.381-.485.845l-.487.844h-.978c-.538 0-.976-.002-.974-.004l.298-.173c.161-.092.297-.172.302-.176a65.816 65.816 0 0 0-.89-1.559c-.01-.014-.09.118-.558.93l-.557.964c-.01.015-.104-.036-.857-.472z" fill="#f4e3d2"/><path d="M30.486 19.102l-4.826 1.814-.848-.91-2.064 3.934h9.973l.423-3.086-3.09 1.259-.334-.403zm-3.704 2.867l1.219.906-.2.34-1.067-1.145z" fill="url(#e)" transform="translate(-12.678 -13.085)"/><path d="M30.486 19.102l-1.33 3.156-4.344-2.252 1.967 2.363-1.01 1.571h2.306l1.914-1.307 1.344 1.307H35.1l-1.956-3.086-.61 1.838-.509-.255z" fill="url(#f)" transform="translate(-12.678 -13.085)"/></svg>