<svg xmlns="http://www.w3.org/2000/svg" viewBox="0 0 256 256"><defs id="defs4"><style id="current-color-scheme" type="text/css">.ColorScheme-Text{color:#4d4d4d}</style></defs><path d="M16 10h224c3.324 0 6 2.676 6 6v224c0 3.324-2.676 6-6 6H16c-3.324 0-6-2.676-6-6V16c0-3.324 2.676-6 6-6z" id="rect4240" fill="currentColor" fill-opacity=".5" stroke="none" color="#31363b"/><path d="M16 12h224c2.216 0 4 1.784 4 4v224c0 2.216-1.784 4-4 4H16c-2.216 0-4-1.784-4-4V16c0-2.216 1.784-4 4-4z" id="rect4238" fill="currentColor" fill-opacity="1" stroke="none" color="#eff0f1"/><path class="ColorScheme-Text" d="M226.268 24.605a14.954 14.954 0 0 0-10.618 4.383l.71.71a13.955 13.955 0 0 1 9.908-4.093c3.878 0 7.377 1.562 9.908 4.092l.709-.709a14.954 14.954 0 0 0-10.617-4.383zm-200.674 2.13L21.35 38.317h1.427l1.358-3.728h4.435l1.364 3.728h1.38l-4.236-11.584h-1.484zm21.361 0a.865.865 0 0 0-.627.238.798.798 0 0 0-.238.601c0 .249.08.453.238.612a.865.865 0 0 0 .627.238.85.85 0 0 0 .617-.238.814.814 0 0 0 .246-.612.784.784 0 0 0-.246-.601.833.833 0 0 0-.617-.239zm80.836 0a.865.865 0 0 0-.627.238.798.798 0 0 0-.238.601c0 .249.08.453.238.612a.865.865 0 0 0 .627.238c.249 0 .455-.08.62-.238a.814.814 0 0 0 .245-.612.784.784 0 0 0-.246-.601.838.838 0 0 0-.619-.239zm-85.764.888l-1.056.078-.213 2.223-1.293.088-.033.744h1.295v5.047c0 .513.044.928.134 1.246.09.317.25.579.483.785.238.206.546.35.922.43.375.079.866.119 1.474.119h.55l.062-.906-.666-.032c-.704-.026-1.157-.136-1.358-.332-.2-.2-.3-.638-.3-1.31v-5.047h2.22v-.832h-2.22v-2.3zm80.836 0l-1.054.078-.215 2.223-1.293.088-.031.744h1.293v5.047c0 .513.044.928.134 1.246.09.317.252.579.485.785.238.206.544.35.92.43.375.079.868.119 1.476.119h.547l.064-.906-.666-.032c-.703-.026-1.156-.136-1.357-.332-.201-.2-.303-.638-.303-1.31v-5.047h2.223v-.832h-2.223v-2.3zm-96.515.477l1.904 5.521h-3.793l1.889-5.521zm199.92.505a10.965 10.965 0 0 0-7.786 3.215l.707.707a9.97 9.97 0 0 1 7.079-2.922 9.97 9.97 0 0 1 7.078 2.922l.707-.707a10.965 10.965 0 0 0-7.785-3.215zM36.338 29.75c-1.17 0-2.118.393-2.848 1.182-.73.783-1.095 1.858-1.095 3.228 0 1.312.353 2.36 1.062 3.143.714.783 1.672 1.174 2.873 1.174.513 0 .974-.06 1.38-.182.408-.122.702-.254.882-.397l-.246-.896a3.49 3.49 0 0 1-1.77.459c-.926 0-1.63-.304-2.111-.912-.482-.608-.723-1.405-.723-2.389 0-1.037.252-1.86.754-2.474.503-.614 1.17-.92 2-.92.656 0 1.24.152 1.754.459l.373-.905c-.18-.121-.471-.246-.873-.373-.397-.132-.867-.197-1.412-.197zm25.652 0c-1.11 0-2.026.399-2.746 1.197-.72.799-1.078 1.87-1.078 3.213 0 1.328.368 2.38 1.104 3.158.735.773 1.691 1.159 2.87 1.159 1.059 0 2.002-.247 2.833-.739l-.278-.927a8.06 8.06 0 0 1-1.205.5c-.36.11-.76.166-1.199.166-.81 0-1.464-.257-1.967-.77-.502-.518-.776-1.31-.818-2.379h5.674l.047-.668c0-1.227-.277-2.183-.832-2.87-.55-.694-1.352-1.04-2.405-1.04zm12.307 0c-1.17 0-2.12.393-2.85 1.182-.73.783-1.093 1.858-1.093 3.228 0 1.312.353 2.36 1.062 3.143.714.783 1.672 1.174 2.873 1.174.513 0 .974-.06 1.38-.182.408-.122.702-.254.882-.397l-.246-.896a3.49 3.49 0 0 1-1.77.459c-.926 0-1.63-.304-2.111-.912-.482-.608-.723-1.405-.723-2.389 0-1.037.252-1.86.754-2.474.503-.614 1.17-.92 2-.92.656 0 1.24.152 1.754.459l.373-.905c-.18-.121-.471-.246-.873-.373-.397-.132-.867-.197-1.412-.197zm7.213 0c-1.233 0-2.201.401-2.905 1.205-.698.799-1.046 1.857-1.046 3.174 0 1.285.353 2.333 1.062 3.142.709.805 1.672 1.206 2.889 1.206 1.19 0 2.146-.404 2.87-1.213.726-.815 1.089-1.86 1.089-3.135 0-1.317-.349-2.375-1.047-3.174-.698-.804-1.67-1.205-2.912-1.205zm9.799 0c-1.265 0-2.213.443-2.848 1.332l-.145-1.158h-1.142v8.394h1.318v-4.681c0-1.92.862-2.881 2.586-2.881.64 0 1.088.194 1.342.58.254.38.38.949.38 1.705v5.277h1.317v-5.132c0-1.154-.23-2.015-.69-2.58-.454-.572-1.161-.856-2.118-.856zm8.982 0c-1.264 0-2.215.443-2.85 1.332l-.142-1.158h-1.143v8.394h1.319v-4.681c0-1.92.861-2.881 2.586-2.881.64 0 1.085.194 1.34.58.253.38.38.949.38 1.705v5.277h1.319v-5.132c0-1.154-.232-2.015-.692-2.58-.455-.572-1.16-.856-2.117-.856zm8.291 0c-1.11 0-2.027.399-2.746 1.197-.72.799-1.078 1.87-1.078 3.213 0 1.328.368 2.38 1.103 3.158.736.773 1.692 1.159 2.871 1.159 1.058 0 2.004-.247 2.834-.739l-.279-.927a8.06 8.06 0 0 1-1.205.5c-.36.11-.76.166-1.2.166-.809 0-1.463-.257-1.966-.77-.502-.518-.776-1.31-.818-2.379h5.673l.05-.668c0-1.227-.28-2.183-.835-2.87-.55-.694-1.351-1.04-2.404-1.04zm8.594 0c-1.17 0-2.12.393-2.85 1.182-.73.783-1.094 1.858-1.094 3.228 0 1.312.354 2.36 1.063 3.143.714.783 1.672 1.174 2.873 1.174.513 0 .972-.06 1.379-.182.407-.122.7-.254.88-.397l-.243-.896a3.49 3.49 0 0 1-1.77.459c-.926 0-1.63-.304-2.111-.912-.482-.608-.723-1.405-.723-2.389 0-1.037.251-1.86.754-2.474.503-.614 1.17-.92 2-.92.656 0 1.24.152 1.754.459l.373-.905c-.18-.121-.471-.246-.873-.373-.397-.132-.867-.197-1.412-.197zm17.209 0c-1.233 0-2.201.401-2.905 1.205-.698.799-1.046 1.857-1.046 3.174 0 1.285.353 2.333 1.062 3.142.709.805 1.672 1.206 2.889 1.206 1.19 0 2.148-.404 2.873-1.213.724-.815 1.086-1.86 1.086-3.135 0-1.317-.349-2.375-1.047-3.174-.698-.804-1.67-1.205-2.912-1.205zm9.799 0c-1.265 0-2.213.443-2.848 1.332l-.143-1.158h-1.142v8.394h1.316v-4.681c0-1.92.864-2.881 2.588-2.881.64 0 1.086.194 1.34.58.254.38.38.949.38 1.705v5.277h1.32v-5.132c0-1.154-.232-2.015-.692-2.58-.455-.572-1.162-.856-2.12-.856zm7.42 0c-.879 0-1.56.212-2.047.635-.487.418-.73.968-.73 1.65 0 .55.139.999.42 1.348.28.344.8.637 1.556.88l.92.294c.608.195 1.029.404 1.261.627.233.222.348.498.348.826 0 .476-.14.84-.42 1.094-.28.248-.674.373-1.182.373-.809 0-1.717-.24-2.722-.721v1.101c.867.413 1.743.62 2.627.62a3.98 3.98 0 0 0 1.095-.143c.339-.095.64-.237.905-.428.27-.19.481-.444.635-.761a2.56 2.56 0 0 0 .23-1.112c0-.338-.032-.624-.096-.857a1.76 1.76 0 0 0-.35-.666 2.161 2.161 0 0 0-.704-.54 6.8 6.8 0 0 0-1.15-.46l-.835-.262c-.545-.175-.9-.339-1.07-.492-.17-.154-.254-.402-.254-.746 0-.408.13-.716.389-.928.264-.217.7-.326 1.308-.326.683 0 1.39.186 2.12.557l.308-.977a5.712 5.712 0 0 0-2.562-.586zm-105.31.174v8.394h1.304v-8.394h-1.303zm3.048 0l3.246 8.394h1.324l3.182-8.394h-1.34c-.275.772-.693 1.927-1.254 3.467-.555 1.539-.971 2.696-1.246 3.468-.344-.91-.842-2.248-1.492-4.015a559.873 559.873 0 0 0-1.07-2.92h-1.35zm77.79 0v8.394h1.302v-8.394h-1.301zm-65.11.832c1.332 0 2.032.906 2.095 2.715h-4.57c.074-.836.333-1.498.777-1.985.45-.486 1.015-.73 1.697-.73zm19.488 0c.862 0 1.512.31 1.95.93.44.613.66 1.432.66 2.459 0 .655-.09 1.23-.27 1.722-.18.487-.471.878-.873 1.174-.397.29-.885.436-1.467.436-.847 0-1.493-.307-1.938-.92-.444-.614-.666-1.42-.666-2.42 0-1.021.222-1.838.666-2.451.445-.62 1.091-.93 1.938-.93zm27.103 0c1.333 0 2.033.906 2.096 2.715h-4.57c.074-.836.333-1.498.777-1.985.45-.486 1.015-.73 1.697-.73zm25.772 0c.862 0 1.514.31 1.953.93.439.613.658 1.432.658 2.459 0 .655-.09 1.23-.27 1.722-.18.487-.47.878-.872 1.174-.397.29-.887.436-1.47.436-.846 0-1.49-.307-1.935-.92-.444-.614-.666-1.42-.666-2.42 0-1.021.222-1.838.666-2.451.445-.62 1.09-.93 1.936-.93zm91.883 1.85a6.98 6.98 0 0 0-4.955 2.044l.708.71a5.98 5.98 0 0 1 4.247-1.755 5.98 5.98 0 0 1 4.246 1.754l.709-.709a6.98 6.98 0 0 0-4.955-2.045zm0 4c-1.108 0-2 .891-2 2 0 1.107.892 2 2 2s2-.893 2-2c0-1.109-.892-2-2-2zm0 1c.554 0 1 .445 1 1 0 .553-.446 1-1 1s-1-.447-1-1c0-.555.446-1 1-1zM20 50v1h216v-1H20zm10 12v21h10.5v1.75h1.75v1.75H30v1.75h12.25V90h3.5v-1.75H58V86.5H45.75v-1.75h1.75V83H58V62H30zm77.494.178l-1.014.074v2.008l.05 1.47a2.578 2.578 0 0 0-.311-.459 1.962 1.962 0 0 0-.39-.359 1.633 1.633 0 0 0-.558-.256 2.874 2.874 0 0 0-.732-.086c-.854 0-1.53.306-2.031.916-.497.61-.746 1.41-.746 2.399 0 1.041.24 1.87.72 2.484.485.61 1.172.916 2.063.916.924 0 1.596-.421 2.016-1.264l.09 1.141h.843v-8.984zm-32.539.074l2.68 8.91h1.02l2.263-7.44 2.21 7.44h1.044l2.68-8.91h-1.038l-2.173 7.543-2.215-7.356h-1.037l-2.223 7.362-2.191-7.549h-1.02zm13.703 0a.664.664 0 0 0-.482.182.619.619 0 0 0-.184.464c0 .192.062.347.184.47a.666.666 0 0 0 .482.183c.191 0 .35-.062.477-.184a.623.623 0 0 0 .19-.469.608.608 0 0 0-.19-.464.644.644 0 0 0-.477-.182zm67.188 0a.664.664 0 0 0-.483.182.619.619 0 0 0-.183.464c0 .192.061.347.183.47a.666.666 0 0 0 .483.183c.19 0 .35-.062.476-.184a.623.623 0 0 0 .19-.469.608.608 0 0 0-.19-.464.644.644 0 0 0-.476-.182zm22.064 0c-.211.146-.53.295-.953.445-.42.147-.78.25-1.086.31v.807c.273-.036.602-.116.988-.238.391-.122.715-.254.971-.396v7.25h-2.148v.732h5.078v-.732h-1.916v-8.178h-.934zm-25.855.684l-.81.06-.167 1.71-.994.065-.025.575h.996v3.88c0 .395.034.715.103.96.07.244.194.444.373.603.183.159.418.27.707.33.29.061.667.092 1.135.092h.422l.049-.695-.514-.026c-.541-.02-.888-.105-1.043-.256-.155-.154-.232-.49-.232-1.007v-3.881h1.709v-.64h-1.71v-1.77zM31.75 63.75h24.5v17.5h-24.5v-17.5zm66.35.82c-.855 0-1.558.308-2.112.922-.553.615-.83 1.44-.83 2.473 0 1.021.282 1.83.848 2.428.565.594 1.303.892 2.21.892.815 0 1.54-.19 2.179-.568l-.213-.715c-.342.17-.651.3-.928.385a3.116 3.116 0 0 1-.922.129c-.623 0-1.127-.197-1.514-.592-.386-.399-.596-1.01-.629-1.832h4.366l.035-.512c0-.944-.213-1.682-.64-2.21-.424-.534-1.04-.8-1.85-.8zm16.595 0c-.899 0-1.63.304-2.191.91-.562.603-.842 1.431-.842 2.485 0 1.009.273 1.814.818 2.416.55.602 1.286.904 2.21.904.394 0 .749-.047 1.062-.14.313-.094.54-.197.678-.307l-.19-.69a2.687 2.687 0 0 1-1.361.356c-.712 0-1.253-.235-1.623-.703-.37-.468-.557-1.08-.557-1.836 0-.798.194-1.432.58-1.904.387-.472.9-.71 1.54-.71.504 0 .952.118 1.347.354l.287-.695c-.138-.094-.363-.19-.672-.287a3.445 3.445 0 0 0-1.086-.153zm5.55 0c-.949 0-1.694.31-2.235.928-.537.614-.805 1.428-.805 2.441 0 .99.271 1.796.816 2.418.546.619 1.287.928 2.223.928.916 0 1.652-.313 2.21-.935.557-.627.835-1.43.835-2.41 0-1.014-.268-1.828-.805-2.442-.537-.618-1.284-.928-2.24-.928zm7.536 0c-.972 0-1.703.342-2.191 1.026l-.11-.89h-.878v6.456h1.013v-3.601c0-1.478.664-2.215 1.99-2.215.493 0 .836.148 1.032.445.195.293.293.73.293 1.313v4.058h1.011v-3.95c0-.886-.175-1.546-.529-1.982-.35-.439-.894-.66-1.63-.66zm6.91 0c-.972 0-1.703.342-2.191 1.026l-.11-.89h-.878v6.456h1.011v-3.601c0-1.478.664-2.215 1.99-2.215.493 0 .837.148 1.032.445.195.293.293.73.293 1.313v4.058h1.014v-3.95c0-.886-.178-1.546-.532-1.982-.35-.439-.892-.66-1.629-.66zm6.377 0c-.854 0-1.558.308-2.111.922-.553.615-.83 1.44-.83 2.473 0 1.021.282 1.83.848 2.428.565.594 1.303.892 2.21.892.814 0 1.54-.19 2.178-.568l-.213-.715c-.341.17-.65.3-.927.385a3.116 3.116 0 0 1-.922.129c-.623 0-1.127-.197-1.514-.592-.386-.399-.596-1.01-.629-1.832h4.365l.036-.512c0-.944-.214-1.682-.641-2.21-.423-.534-1.04-.8-1.85-.8zm6.612 0c-.9 0-1.63.304-2.192.91-.561.603-.842 1.431-.842 2.485 0 1.009.272 1.814.817 2.416.55.602 1.287.904 2.21.904.396 0 .748-.047 1.061-.14.314-.094.54-.197.678-.307l-.19-.69a2.687 2.687 0 0 1-1.36.356c-.713 0-1.253-.235-1.624-.703-.37-.468-.554-1.08-.554-1.836 0-.798.193-1.432.58-1.904.386-.472.898-.71 1.537-.71.504 0 .955.118 1.35.354l.287-.695c-.139-.094-.363-.19-.672-.287a3.445 3.445 0 0 0-1.086-.153zm13.238 0c-.948 0-1.693.31-2.234.928-.538.614-.805 1.428-.805 2.441 0 .99.271 1.796.816 2.418.546.619 1.287.928 2.223.928.915 0 1.651-.313 2.209-.935.557-.627.836-1.43.836-2.41 0-1.014-.268-1.828-.805-2.442-.537-.618-1.284-.928-2.24-.928zm7.537 0c-.972 0-1.703.342-2.191 1.026l-.11-.89h-.879v6.456h1.014v-3.601c0-1.478.664-2.215 1.99-2.215.493 0 .836.148 1.032.445.195.293.293.73.293 1.313v4.058h1.011v-3.95c0-.886-.175-1.546-.53-1.982-.349-.439-.893-.66-1.63-.66zm-74.506.067c-.39 0-.763.11-1.117.33-.35.215-.646.555-.89 1.02l-.11-1.282h-.812v6.457h1.013v-3.656c0-.574.18-1.06.537-1.46.362-.398.82-.597 1.373-.597.114 0 .254.017.416.05l.043-.831a2.751 2.751 0 0 0-.453-.031zm-5.797.068v6.457h1v-6.457h-1zm67.188 0v6.457h1v-6.457h-1zm-57.215.64c1.025 0 1.563.697 1.611 2.089h-3.515c.057-.643.256-1.153.597-1.528.346-.374.782-.56 1.307-.56zm6.56 0c.603 0 1.057.225 1.362.673.31.447.465 1.107.465 1.982-.004.802-.155 1.42-.448 1.855-.293.436-.77.655-1.433.655-.63 0-1.097-.234-1.399-.697-.297-.464-.445-1.1-.445-1.91 0-.814.16-1.442.477-1.885.317-.448.79-.672 1.422-.672zm15.56 0c.662 0 1.163.24 1.501.716.338.472.506 1.1.506 1.89 0 .505-.069.946-.207 1.324a1.926 1.926 0 0 1-.672.905c-.305.223-.681.336-1.129.336-.65 0-1.148-.237-1.49-.71-.342-.471-.512-1.092-.512-1.86 0-.786.17-1.413.512-1.885.342-.477.84-.715 1.49-.715zm20.849 0c1.025 0 1.562.697 1.611 2.089h-3.516c.057-.643.256-1.153.598-1.528.346-.374.782-.56 1.307-.56zm19.824 0c.663 0 1.164.24 1.502.716.338.472.506 1.1.506 1.89 0 .505-.069.946-.207 1.324a1.926 1.926 0 0 1-.672.905c-.305.223-.681.336-1.129.336-.651 0-1.148-.237-1.49-.71-.342-.471-.512-1.092-.512-1.86 0-.786.17-1.413.512-1.885.342-.477.839-.715 1.49-.715zM51 67.25V69h3.5v-1.75H51zm0 5.25v1.75h3.5V72.5H51zm0 5.25v1.75h3.5v-1.75H51zm175.268 26.855c-1.442 0-2.79.383-3.955 1.045l.738.739.002-.002 2.78 2.777.706-.707-2.482-2.482a6.947 6.947 0 0 1 2.21-.37c3.879 0 7 3.122 7 7a6.985 6.985 0 0 1-.783 3.217l.739.738a7.981 7.981 0 0 0 1.045-3.955c0-4.432-3.568-8-8-8zm-204.03 2.13v11.583h1.397v-5.601h2.508c1.306 0 2.257-.264 2.855-.793.598-.534.897-1.32.897-2.358 0-.507-.093-.946-.278-1.316a2.099 2.099 0 0 0-.785-.889 3.749 3.749 0 0 0-1.174-.476c-.439-.1-.937-.15-1.492-.15h-3.928zm33 0a.865.865 0 0 0-.627.238.798.798 0 0 0-.238.601c0 .249.08.453.238.612a.865.865 0 0 0 .627.238c.249 0 .455-.08.62-.238a.814.814 0 0 0 .246-.612.784.784 0 0 0-.247-.601.838.838 0 0 0-.619-.239zm89.026 0a.865.865 0 0 0-.627.238.798.798 0 0 0-.239.601c0 .249.08.453.239.612a.865.865 0 0 0 .627.238c.248 0 .455-.08.619-.238a.814.814 0 0 0 .246-.612.784.784 0 0 0-.246-.601.838.838 0 0 0-.62-.239zm-4.928.888l-1.055.078-.215 2.223-1.293.088-.03.744h1.292v5.047c0 .513.045.928.135 1.246.09.317.252.579.484.785.238.206.545.35.92.43.376.079.869.119 1.477.119h.547l.064-.906-.668-.032c-.703-.026-1.154-.136-1.355-.332-.201-.2-.303-.638-.303-1.31v-5.047h2.223v-.832h-2.223v-2.3zm-115.701.158h2.523c.762 0 1.34.137 1.737.412.402.27.603.733.603 1.389 0 .762-.182 1.297-.547 1.604-.36.306-.974.459-1.842.459h-2.474v-3.864zm195.677.87a7.981 7.981 0 0 0-1.044 3.954c0 4.432 3.568 8 8 8 1.441 0 2.789-.382 3.955-1.044l-.684-.684.002-.002-2.828-2.828-.707.707 2.478 2.478a6.945 6.945 0 0 1-2.216.373c-3.878 0-7-3.122-7-7 0-1.162.285-2.253.783-3.216l-.738-.739zM40.727 109.75c-1.111 0-2.027.399-2.747 1.197-.719.799-1.08 1.87-1.08 3.213 0 1.328.369 2.38 1.104 3.158.735.773 1.693 1.159 2.873 1.159 1.058 0 2.001-.247 2.832-.739l-.277-.927a8.075 8.075 0 0 1-1.207.5c-.36.11-.759.166-1.198.166-.809 0-1.466-.257-1.968-.77-.503-.518-.774-1.31-.817-2.379h5.674l.047-.668c0-1.227-.279-2.183-.834-2.87-.55-.694-1.35-1.04-2.402-1.04zm21.105 0c-1.232 0-2.2.401-2.904 1.205-.699.799-1.047 1.857-1.047 3.174 0 1.285.354 2.333 1.062 3.142.71.805 1.672 1.206 2.889 1.206 1.19 0 2.146-.404 2.871-1.213.725-.815 1.088-1.86 1.088-3.135 0-1.317-.349-2.375-1.047-3.174-.698-.804-1.669-1.205-2.912-1.205zm17.154 0c-.878 0-1.56.212-2.047.635-.486.418-.73.968-.73 1.65 0 .55.14.999.42 1.348.28.344.8.637 1.557.88l.92.294c.608.195 1.028.404 1.261.627.233.222.35.498.35.826 0 .476-.142.84-.422 1.094-.28.248-.674.373-1.182.373-.809 0-1.717-.24-2.722-.721v1.101c.867.413 1.743.62 2.627.62.396 0 .762-.048 1.095-.143.339-.095.64-.237.905-.428.27-.19.48-.444.634-.761a2.56 2.56 0 0 0 .23-1.112c0-.338-.031-.624-.095-.857a1.76 1.76 0 0 0-.35-.666 2.161 2.161 0 0 0-.705-.54 6.8 6.8 0 0 0-1.15-.46l-.834-.262c-.545-.175-.901-.339-1.07-.492-.17-.154-.254-.402-.254-.746 0-.408.13-.716.389-.928.264-.217.7-.326 1.308-.326.682 0 1.39.186 2.12.557l.308-.977a5.712 5.712 0 0 0-2.563-.586zm11.784 0c-1.17 0-2.12.393-2.85 1.182-.73.783-1.094 1.858-1.094 3.228 0 1.312.354 2.36 1.063 3.143.714.783 1.672 1.174 2.873 1.174.513 0 .973-.06 1.38-.182.408-.122.7-.254.88-.397l-.247-.896a3.482 3.482 0 0 1-1.767.459c-.926 0-1.63-.304-2.112-.912-.48-.608-.722-1.405-.722-2.389 0-1.037.251-1.86.754-2.474.502-.614 1.17-.92 2-.92.656 0 1.24.152 1.754.459l.373-.905c-.18-.121-.471-.246-.873-.373-.397-.132-.868-.197-1.412-.197zm7.21 0c-1.232 0-2.198.401-2.902 1.205-.698.799-1.049 1.857-1.049 3.174 0 1.285.356 2.333 1.065 3.142.709.805 1.67 1.206 2.886 1.206 1.19 0 2.149-.404 2.874-1.213.724-.815 1.087-1.86 1.087-3.135 0-1.317-.35-2.375-1.048-3.174-.699-.804-1.67-1.205-2.913-1.205zm9.801 0c-1.264 0-2.215.443-2.85 1.332l-.142-1.158h-1.143v8.394h1.319v-4.681c0-1.92.861-2.881 2.586-2.881.64 0 1.086.194 1.34.58.254.38.38.949.38 1.705v5.277h1.319v-5.132c0-1.154-.231-2.015-.692-2.58-.454-.572-1.16-.856-2.117-.856zm8.98 0c-1.264 0-2.212.443-2.847 1.332l-.143-1.158h-1.142v8.394h1.316v-4.681c0-1.92.864-2.881 2.588-2.881.64 0 1.086.194 1.34.58.254.38.38.949.38 1.705v5.277h1.32v-5.132c0-1.154-.232-2.015-.692-2.58-.455-.572-1.162-.856-2.12-.856zm8.294 0c-1.111 0-2.027.399-2.746 1.197-.72.799-1.079 1.87-1.079 3.213 0 1.328.367 2.38 1.102 3.158.735.773 1.693 1.159 2.873 1.159 1.058 0 2.002-.247 2.832-.739l-.277-.927a8.06 8.06 0 0 1-1.205.5c-.36.11-.76.166-1.2.166-.809 0-1.464-.257-1.966-.77-.503-.518-.776-1.31-.819-2.379h5.674l.047-.668c0-1.227-.277-2.183-.832-2.87-.55-.694-1.352-1.04-2.404-1.04zm8.591 0c-1.169 0-2.117.393-2.847 1.182-.73.783-1.096 1.858-1.096 3.228 0 1.312.356 2.36 1.065 3.143.714.783 1.67 1.174 2.87 1.174.514 0 .974-.06 1.382-.182.407-.122.7-.254.88-.397l-.246-.896a3.49 3.49 0 0 1-1.77.459c-.925 0-1.627-.304-2.109-.912-.481-.608-.722-1.405-.722-2.389 0-1.037.251-1.86.754-2.474.502-.614 1.17-.92 2-.92.656 0 1.238.152 1.752.459l.373-.905c-.18-.121-.47-.246-.871-.373-.397-.132-.87-.197-1.415-.197zm17.211 0c-1.232 0-2.2.401-2.904 1.205-.698.799-1.047 1.857-1.047 3.174 0 1.285.354 2.333 1.063 3.142.709.805 1.672 1.206 2.888 1.206 1.19 0 2.149-.404 2.873-1.213.725-.815 1.086-1.86 1.086-3.135 0-1.317-.348-2.375-1.046-3.174-.699-.804-1.67-1.205-2.913-1.205zm9.8 0c-1.265 0-2.214.443-2.848 1.332l-.143-1.158h-1.143v8.394h1.317v-4.681c0-1.92.861-2.881 2.586-2.881.64 0 1.088.194 1.342.58.253.38.38.949.38 1.705v5.277h1.317v-5.132c0-1.154-.23-2.015-.69-2.58-.455-.572-1.161-.856-2.119-.856zm7.42 0c-.879 0-1.563.212-2.05.635-.486.418-.728.968-.728 1.65 0 .55.14.999.42 1.348.28.344.798.637 1.554.88l.922.294c.609.195 1.027.404 1.26.627.233.222.35.498.35.826 0 .476-.14.84-.42 1.094-.28.248-.674.373-1.182.373-.81 0-1.717-.24-2.723-.721v1.101c.868.413 1.744.62 2.627.62.397 0 .76-.048 1.094-.143.339-.095.642-.237.906-.428.27-.19.482-.444.635-.761a2.56 2.56 0 0 0 .229-1.112c0-.338-.03-.624-.094-.857a1.76 1.76 0 0 0-.35-.666 2.17 2.17 0 0 0-.707-.54 6.8 6.8 0 0 0-1.15-.46l-.832-.262c-.545-.175-.903-.339-1.072-.492-.17-.154-.254-.402-.254-.746 0-.408.13-.716.388-.928.265-.217.703-.326 1.311-.326.682 0 1.387.186 2.117.557l.31-.977a5.712 5.712 0 0 0-2.562-.586zm-132.747.086a2.71 2.71 0 0 0-1.451.43c-.455.28-.843.72-1.16 1.324l-.143-1.666h-1.055v8.394h1.317v-4.752c0-.745.234-1.378.7-1.896.47-.519 1.065-.777 1.784-.777.148 0 .328.02.54.062l.056-1.078a3.548 3.548 0 0 0-.588-.041zm9.791.088l3.246 8.394h1.324l3.182-8.394h-1.34c-.275.772-.693 1.927-1.254 3.467-.555 1.539-.97 2.696-1.246 3.468-.344-.91-.841-2.249-1.492-4.015a559.646 559.646 0 0 0-1.07-2.92h-1.35zm9.46 0v8.394h1.3v-8.394h-1.3zm12.868 0v5.125c0 1.137.25 1.995.746 2.572.503.571 1.24.856 2.213.856.688 0 1.23-.103 1.627-.31.402-.21.738-.529 1.008-.952l.135 1.103h1.142v-8.394h-1.316v4.713c0 .333-.025.637-.072.912-.048.275-.13.534-.246.777a1.896 1.896 0 0 1-.452.611c-.18.164-.413.294-.699.39a3 3 0 0 1-.967.142c-.645 0-1.108-.192-1.388-.578-.275-.387-.414-.954-.414-1.7v-5.267h-1.317zm76.156 0v8.394h1.301v-8.394h-1.3zm-102.847.832c1.333 0 2.03.906 2.094 2.715h-4.57c.073-.836.332-1.498.777-1.985.45-.486 1.016-.73 1.699-.73zm21.074 0c.862 0 1.512.31 1.951.93.44.613.658 1.432.658 2.458 0 .656-.09 1.231-.27 1.723-.179.487-.47.878-.872 1.174-.397.29-.885.436-1.467.436-.846 0-1.491-.307-1.936-.92-.444-.614-.667-1.42-.667-2.42 0-1.021.223-1.838.667-2.451.445-.62 1.09-.93 1.936-.93zm36.148 0c.863 0 1.515.31 1.954.93.439.613.658 1.432.658 2.458 0 .656-.09 1.231-.27 1.723-.18.487-.47.878-.873 1.174-.397.29-.887.436-1.469.436-.846 0-1.49-.307-1.935-.92-.444-.614-.666-1.42-.666-2.42 0-1.021.222-1.838.666-2.451.444-.62 1.09-.93 1.935-.93zm27.106 0c1.333 0 2.03.906 2.094 2.715h-4.57c.073-.836.334-1.498.779-1.985.45-.486 1.015-.73 1.697-.73zm25.771 0c.863 0 1.513.31 1.952.93.439.613.66 1.432.66 2.458 0 .656-.092 1.231-.272 1.723-.18.487-.469.878-.87 1.174-.398.29-.888.436-1.47.436-.846 0-1.49-.307-1.935-.92-.444-.614-.668-1.42-.668-2.42 0-1.021.224-1.838.668-2.451.444-.62 1.09-.93 1.935-.93zM20 130v1h216v-1H20zm55.469 12.252v5.682c0 1.025.295 1.839.885 2.441.59.602 1.458.902 2.605.902.574 0 1.086-.081 1.533-.244a2.833 2.833 0 0 0 1.092-.695c.285-.301.5-.652.646-1.055.147-.403.221-.848.221-1.332v-5.7h-1.074v5.665c0 .822-.204 1.446-.611 1.873-.407.423-1.01.635-1.807.635-1.611 0-2.416-.836-2.416-2.508v-5.664h-1.074zm16.217 0a.665.665 0 0 0-.483.182.619.619 0 0 0-.183.464c0 .192.061.347.183.47a.666.666 0 0 0 .483.183c.19 0 .35-.062.476-.184a.623.623 0 0 0 .19-.469.608.608 0 0 0-.19-.464.644.644 0 0 0-.476-.182zm26.048 0a.66.66 0 0 0-.48.182.619.619 0 0 0-.184.464c0 .192.062.347.184.47a.661.661 0 0 0 .48.183c.192 0 .35-.062.477-.184a.623.623 0 0 0 .19-.469.608.608 0 0 0-.19-.464.644.644 0 0 0-.477-.182zm3.73.684l-.812.06-.164 1.709-.996.066-.023.575h.994v3.88c0 .395.034.715.103.96.07.244.194.444.373.603.184.159.42.27.71.33.288.061.666.092 1.134.092h.42l.049-.695-.512-.026c-.54-.02-.888-.105-1.043-.256-.154-.154-.232-.49-.232-1.007v-3.881h1.709v-.641h-1.71v-1.77zm-34.21 1.634c-.973 0-1.703.342-2.192 1.026l-.109-.89h-.879v6.456h1.014v-3.601c0-1.478.664-2.215 1.99-2.215.492 0 .836.148 1.031.445.196.293.293.73.293 1.313v4.058h1.012v-3.95c0-.886-.175-1.546-.53-1.982-.35-.439-.894-.66-1.63-.66zm15.998 0c-.855 0-1.558.308-2.111.922-.554.615-.83 1.44-.83 2.473 0 1.021.282 1.83.847 2.428.566.594 1.302.892 2.21.892.813 0 1.54-.19 2.179-.568l-.215-.715c-.342.17-.651.3-.928.385a3.1 3.1 0 0 1-.92.129c-.622 0-1.127-.197-1.513-.592-.387-.399-.597-1.01-.63-1.832h4.364l.037-.512c0-.944-.213-1.682-.64-2.21-.424-.534-1.04-.8-1.85-.8zm10.314 0c-.675 0-1.2.163-1.574.489-.374.321-.562.744-.562 1.27 0 .422.108.768.324 1.036.216.265.613.49 1.195.678l.71.227c.467.15.79.311.97.482.179.17.267.382.267.635 0 .366-.106.646-.322.842-.215.19-.52.287-.91.287-.622 0-1.32-.187-2.094-.557v.85a4.669 4.669 0 0 0 2.022.476c.305 0 .585-.038.842-.111.26-.073.491-.182.695-.328.207-.147.37-.342.488-.586.118-.248.178-.534.178-.856 0-.26-.025-.479-.074-.658a1.354 1.354 0 0 0-.268-.514 1.664 1.664 0 0 0-.543-.414 5.252 5.252 0 0 0-.887-.355l-.64-.201c-.42-.135-.694-.261-.824-.38-.13-.117-.196-.307-.196-.571 0-.314.102-.553.301-.715.204-.167.538-.25 1.006-.25.525 0 1.07.143 1.63.427l.237-.752a4.392 4.392 0 0 0-1.97-.45zm-3.478.067c-.39 0-.763.11-1.117.33-.35.215-.647.555-.89 1.02l-.112-1.282h-.81v6.457h1.013v-3.656c0-.574.179-1.06.537-1.46.362-.398.82-.597 1.373-.597.114 0 .251.017.414.049l.043-.83a2.73 2.73 0 0 0-.451-.031zm-18.908.068v6.457h1v-6.457h-1zm2.343 0l2.497 6.457h1.02l2.446-6.457h-1.03c-.213.594-.534 1.482-.966 2.666a772.134 772.134 0 0 0-.959 2.668c-.264-.7-.646-1.729-1.146-3.088a382.635 382.635 0 0 0-.824-2.246h-1.038zm23.706 0v6.457h1.001v-6.457h-1.001zm6.921 0l2.557 6.262-.951 2.43.908.195 3.4-8.887h-1.025l-1.844 5.156-2.013-5.156h-1.032zm-20.875.64c1.026 0 1.563.697 1.612 2.089h-3.516c.057-.643.258-1.153.6-1.528.346-.374.78-.56 1.304-.56zM44 150.91c-3.878 0-7.378 1.56-9.908 4.09l.9.9c2.3-2.3 5.483-3.718 9.008-3.718 3.525 0 6.707 1.418 9.008 3.718l.9-.9A13.954 13.954 0 0 0 44 150.91zm0 5.09a8.884 8.884 0 0 0-6.307 2.604l.903.902A7.612 7.612 0 0 1 44 157.273c2.115 0 4.024.853 5.404 2.233l.903-.902A8.884 8.884 0 0 0 44 156zm0 5.092a2.539 2.539 0 0 0-2.545 2.545A2.539 2.539 0 0 0 44 166.182a2.539 2.539 0 0 0 2.545-2.545A2.539 2.539 0 0 0 44 161.092zm0 1.271c.705 0 1.273.569 1.273 1.274 0 .705-.568 1.273-1.273 1.273a1.271 1.271 0 0 1-1.273-1.273c0-.705.568-1.274 1.273-1.274zM44 188s-3.5 4.652-14 5.818c0 0 0 16.334 14 22.182 14-5.848 14-22.182 14-22.182C47.5 192.652 44 188 44 188zm83.752.178l-1.002.074v8.91h1.002v-2.361l.695-.66 2.563 3.021h1.191l-3.053-3.51 2.82-2.947h-1.226l-3.027 3.277.037-1.33v-4.474zm-52.734.074l3.289 8.91h.94l3.29-8.91h-1.105c-.126.358-.514 1.468-1.16 3.332-.643 1.86-1.139 3.28-1.489 4.266-.268-.745-.552-1.539-.85-2.381-.292-.847-.618-1.785-.976-2.819l-.83-2.398h-1.11zm8.886 0v8.91h1.075v-4.309h1.927c1.005 0 1.738-.204 2.198-.61.46-.412.689-1.016.689-1.813 0-.391-.07-.73-.213-1.014a1.618 1.618 0 0 0-.605-.684 2.878 2.878 0 0 0-.903-.365 5.174 5.174 0 0 0-1.148-.115h-3.02zm7.3 0v8.91h.993v-4.767l-.084-2.77 5.065 7.537h1.105v-8.91h-.988v5.078l.055 2.508-5.084-7.586h-1.063zm11.241 0l2.68 8.91h1.02l2.263-7.44 2.211 7.44h1.043l2.68-8.91h-1.037l-2.174 7.543-2.215-7.356h-1.037l-2.223 7.362-2.191-7.55h-1.02zm-17.466.805h1.939c.586 0 1.033.106 1.338.318.31.207.463.562.463 1.066 0 .586-.14.999-.42 1.235-.277.236-.749.353-1.416.353h-1.904v-2.972zm32.896 1.513c-.948 0-1.691.31-2.232.928-.538.614-.807 1.428-.807 2.441 0 .99.273 1.796.818 2.418.546.619 1.285.928 2.221.928.916 0 1.653-.313 2.21-.935.558-.627.837-1.43.837-2.41 0-1.014-.27-1.828-.807-2.442-.537-.618-1.284-.928-2.24-.928zm7.324.067c-.39 0-.763.11-1.117.33-.35.215-.646.555-.89 1.02l-.11-1.282h-.812v6.457h1.013v-3.656c0-.574.18-1.06.537-1.46.362-.398.82-.597 1.373-.597.114 0 .254.016.416.049l.043-.83a2.755 2.755 0 0 0-.453-.031zm-7.324.709c.663 0 1.164.238 1.502.715.338.472.506 1.1.506 1.89 0 .505-.069.946-.207 1.324a1.926 1.926 0 0 1-.672.905c-.305.223-.681.336-1.129.336-.651 0-1.146-.237-1.488-.71-.342-.471-.514-1.092-.514-1.86 0-.786.172-1.413.514-1.885.342-.477.837-.715 1.488-.715zM44 196.166a3.5 3.5 0 0 1 3.5 3.5c0 1.45-.894 2.678-2.15 3.209l.984 4.959h-4.668l.984-4.959c-1.256-.531-2.15-1.76-2.15-3.209a3.5 3.5 0 0 1 3.5-3.5z" id="path13622" fill="currentColor" fill-opacity="1" stroke="none"/><path class="ColorScheme-Text" d="M80.016 80.422c-.835 0-1.57.193-2.21.58a3.809 3.809 0 0 0-1.464 1.605c-.342.688-.514 1.475-.514 2.362 0 .691.105 1.326.313 1.904.211.578.504 1.064.879 1.459.374.39.82.696 1.341.916a4.454 4.454 0 0 0 1.71.324c.878 0 1.661-.175 2.349-.525l-.25-.799c-.667.313-1.33.469-1.984.469-1.01 0-1.809-.34-2.399-1.02-.586-.68-.879-1.576-.879-2.691 0-1.111.286-2.01.856-2.697.573-.692 1.355-1.038 2.343-1.038.77 0 1.44.18 2.014.538l.354-.704c-.635-.455-1.454-.683-2.46-.683zm78.06 0c-.456 0-.906.067-1.35.201-.443.13-.801.297-1.074.496l.301.774a3.91 3.91 0 0 1 .957-.446c.362-.114.715-.17 1.057-.17.154 0 .303.015.445.043.143.025.29.075.445.153.155.073.287.169.397.287.11.114.202.27.275.469.073.199.11.429.11.689 0 .24-.024.46-.073.66a2.059 2.059 0 0 1-.257.604 5.577 5.577 0 0 1-.336.502c-.098.126-.257.317-.48.578l-2.876 3.394.158.8h4.768l.055-.733h-3.84l2.392-2.801c.29-.338.514-.615.672-.83.163-.216.311-.447.446-.696a2.63 2.63 0 0 0 .28-.746c.054-.244.079-.52.079-.83 0-.354-.053-.67-.158-.95a1.933 1.933 0 0 0-.414-.69 2.154 2.154 0 0 0-.6-.44 2.556 2.556 0 0 0-.684-.244 3.252 3.252 0 0 0-.695-.074zm7.399 0c-.798 0-1.447.2-1.948.6-.5.398-.752.937-.752 1.617 0 .52.156.969.465 1.347.314.379.719.65 1.215.813-.598.207-1.061.517-1.387.928-.321.406-.482.91-.482 1.507 0 .497.134.925.398 1.287.269.363.616.63 1.043.801.428.171.907.256 1.44.256.826 0 1.513-.206 2.058-.617.546-.411.817-.986.817-1.727 0-.565-.167-1.07-.5-1.513a2.63 2.63 0 0 0-1.342-.934c.509-.183.908-.456 1.201-.818.297-.366.445-.81.445-1.33 0-.684-.247-1.223-.744-1.618-.492-.398-1.134-.6-1.927-.6zm41.254 0c-.456 0-.907.067-1.35.201-.444.13-.802.297-1.074.496l.299.774c.28-.184.6-.332.958-.446a3.5 3.5 0 0 1 1.055-.17c.155 0 .303.015.445.043.143.025.293.075.448.153.154.073.286.169.396.287.11.114.2.27.274.469.073.199.111.429.111.689 0 .24-.025.46-.074.66a2.05 2.05 0 0 1-.256.604 5.577 5.577 0 0 1-.336.502 16.94 16.94 0 0 1-.482.578l-2.875 3.394.158.8h4.767l.055-.733h-3.838l2.393-2.801c.289-.338.511-.615.67-.83.162-.216.31-.447.445-.696a2.63 2.63 0 0 0 .281-.746c.053-.244.08-.52.08-.83 0-.354-.052-.67-.158-.95a1.936 1.936 0 0 0-.416-.69 2.144 2.144 0 0 0-.598-.44 2.556 2.556 0 0 0-.683-.244 3.252 3.252 0 0 0-.695-.074zm7.421 0c-.65 0-1.204.193-1.66.58-.455.382-.796.916-1.02 1.6-.219.68-.33 1.488-.33 2.423 0 .676.06 1.289.178 1.842.122.55.301 1.034.537 1.453.24.415.553.74.94.971.39.228.843.342 1.355.342.509 0 .954-.114 1.336-.342a2.51 2.51 0 0 0 .922-.977c.232-.419.404-.903.518-1.453.114-.549.172-1.16.172-1.836 0-.704-.062-1.335-.184-1.892-.122-.562-.303-1.045-.543-1.447a2.478 2.478 0 0 0-.922-.934c-.374-.22-.806-.33-1.299-.33zm-80.748.049l-1.011.074v2.008l.048 1.47a2.562 2.562 0 0 0-.312-.457 1.97 1.97 0 0 0-.39-.36 1.62 1.62 0 0 0-.555-.257 2.87 2.87 0 0 0-.733-.086c-.854 0-1.533.306-2.033.916-.496.61-.744 1.41-.744 2.399 0 1.041.24 1.87.72 2.484.485.61 1.172.916 2.063.916.924 0 1.595-.421 2.014-1.264l.092 1.141h.841v-8.984zm15.207.074l-.17 4.717.817.097c.187-.199.424-.356.709-.474s.578-.178.879-.178c.41 0 .754.092 1.031.275.277.18.474.41.592.696.118.28.178.602.178.965 0 .659-.183 1.17-.55 1.537-.361.362-.848.543-1.458.543-.684 0-1.418-.22-2.203-.664l-.35.787c.883.492 1.756.738 2.62.738.418 0 .807-.063 1.165-.19.358-.126.671-.308.94-.548a2.44 2.44 0 0 0 .634-.934c.155-.382.233-.813.233-1.289 0-.5-.101-.953-.305-1.355a2.336 2.336 0 0 0-.916-.983c-.41-.252-.896-.377-1.453-.377a2.84 2.84 0 0 0-1.629.48l.098-3.038h3.748l.078-.805h-4.688zm24.391 0v8.91h3.32c1.03 0 1.804-.22 2.325-.664.524-.448.787-1.064.787-1.85 0-.565-.154-1.032-.463-1.398-.305-.37-.741-.636-1.307-.799.517-.2.882-.461 1.094-.787.216-.33.322-.738.322-1.227 0-.744-.267-1.294-.805-1.648-.533-.358-1.36-.537-2.478-.537H173zm11.475 0l-3.717 8.91h.879l3.74-8.91h-.902zm37.175 0v8.91h3.32c1.03 0 1.806-.22 2.327-.664.525-.448.787-1.064.787-1.85 0-.565-.156-1.032-.465-1.398-.305-.37-.739-.636-1.305-.799.517-.2.88-.461 1.092-.787.216-.33.324-.738.324-1.227 0-.744-.27-1.294-.806-1.648-.533-.358-1.36-.537-2.479-.537h-2.795zm11.475 0l-3.717 8.91h.88l3.741-8.91h-.904zm-67.658.629c.517 0 .93.132 1.24.396.31.26.463.608.463 1.043 0 .48-.141.88-.426 1.198-.285.317-.712.536-1.277.658-.562-.126-.988-.345-1.281-.658-.29-.318-.434-.718-.434-1.198 0-.431.157-.778.47-1.043.318-.264.732-.396 1.245-.396zm-47.121.055l-.813.06-.164 1.71-.994.065-.025.575h.994v3.883c0 .394.036.712.105.957.07.244.192.446.371.605.183.159.42.267.71.328.288.061.666.092 1.134.092h.422l.049-.695-.514-.024c-.541-.02-.888-.107-1.043-.258-.155-.154-.232-.489-.232-1.005v-3.883h1.709v-.64h-1.71v-1.77zm95.804.017c1.294 0 1.94 1.248 1.94 3.742 0 1.258-.168 2.209-.506 2.856-.334.643-.811.965-1.434.965-.63 0-1.124-.324-1.478-.971-.35-.651-.524-1.599-.524-2.844-.004-1.192.172-2.114.53-2.765.358-.656.85-.983 1.472-.983zm-40.076.104h1.715c.802 0 1.378.108 1.732.324.354.215.532.61.532 1.183 0 .57-.163.97-.489 1.198-.325.223-.8.336-1.427.336h-2.063V81.35zm48.65 0h1.715c.802 0 1.38.108 1.735.324.354.215.531.61.531 1.183 0 .57-.163.97-.488 1.198-.326.223-.803.336-1.43.336h-2.062V81.35zm-136.19 1.513c-.949 0-1.692.31-2.233.928-.537.614-.807 1.428-.807 2.441 0 .99.273 1.796.819 2.418.545.619 1.284.928 2.22.928.916 0 1.654-.31 2.211-.933.558-.627.836-1.432.836-2.413 0-1.013-.27-1.827-.807-2.441-.537-.618-1.284-.928-2.24-.928zm7.538 0c-.972 0-1.703.342-2.191 1.026l-.11-.89h-.878v6.456h1.011v-3.6c0-1.477.664-2.216 1.99-2.216.493 0 .836.148 1.032.445.195.293.293.73.293 1.312v4.06h1.013v-3.95c0-.887-.177-1.547-.53-1.983-.35-.439-.893-.66-1.63-.66zm6.908 0c-.972 0-1.703.342-2.19 1.026l-.11-.89h-.88v6.456h1.014v-3.6c0-1.477.664-2.216 1.99-2.216.493 0 .837.148 1.032.445.195.293.293.73.293 1.312v4.06h1.014v-3.95c0-.887-.178-1.547-.532-1.983-.35-.439-.894-.66-1.63-.66zm6.38 0c-.855 0-1.559.308-2.112.922-.553.615-.83 1.44-.83 2.473 0 1.021.282 1.831.848 2.43.565.594 1.301.89 2.209.89.813 0 1.54-.19 2.18-.568l-.214-.713a6.18 6.18 0 0 1-.927.383 3.116 3.116 0 0 1-.922.129c-.623 0-1.127-.198-1.514-.592-.386-.399-.596-1.01-.629-1.832h4.364l.037-.512c0-.944-.214-1.68-.641-2.209-.423-.533-1.04-.8-1.85-.8zm6.609 0c-.9 0-1.63.304-2.192.91-.561.603-.841 1.43-.841 2.485 0 1.009.273 1.814.818 2.416.55.602 1.285.904 2.209.904.395 0 .75-.047 1.062-.14.314-.094.54-.195.678-.305l-.19-.69a2.685 2.685 0 0 1-1.36.354c-.713 0-1.253-.235-1.624-.703-.37-.468-.556-1.08-.556-1.836 0-.798.193-1.432.58-1.904.386-.472.9-.71 1.539-.71.504 0 .953.12 1.347.356l.288-.697c-.139-.094-.361-.19-.67-.287a3.458 3.458 0 0 0-1.088-.153zm10.04 0c-.854 0-1.557.308-2.11.922-.554.615-.83 1.44-.83 2.473 0 1.021.281 1.831.847 2.43.566.594 1.302.89 2.209.89.814 0 1.54-.19 2.18-.568l-.213-.713a6.18 6.18 0 0 1-.928.383 3.116 3.116 0 0 1-.922.129c-.622 0-1.127-.198-1.513-.592-.387-.399-.597-1.01-.63-1.832h4.364l.037-.512c0-.944-.213-1.68-.64-2.209-.424-.533-1.04-.8-1.85-.8zm64.786 0c-.676 0-1.2.163-1.574.489-.375.321-.563.744-.563 1.27 0 .422.109.77.324 1.038.216.265.616.489 1.198.676l.707.227c.468.15.791.311.97.482.18.17.268.382.268.635 0 .366-.107.646-.322.841-.216.192-.52.288-.91.288-.623 0-1.321-.185-2.094-.555v.848a4.669 4.669 0 0 0 2.021.476c.305 0 .586-.036.842-.11.26-.072.492-.183.695-.33.208-.146.37-.341.489-.585.118-.248.177-.534.177-.856 0-.26-.025-.479-.074-.658a1.355 1.355 0 0 0-.267-.514 1.664 1.664 0 0 0-.543-.414 5.236 5.236 0 0 0-.885-.353l-.643-.203c-.419-.135-.692-.26-.822-.377-.13-.118-.195-.31-.195-.574 0-.314.1-.553.299-.715.203-.167.538-.25 1.005-.25.525 0 1.07.143 1.631.427l.239-.75a4.402 4.402 0 0 0-1.973-.453zm48.652 0c-.675 0-1.202.163-1.576.489-.374.321-.56.744-.56 1.27 0 .422.108.77.324 1.038.215.265.613.489 1.195.676l.71.227c.467.15.789.311.968.482.179.17.27.382.27.635 0 .366-.11.646-.325.841-.216.192-.517.288-.908.288-.623 0-1.32-.185-2.094-.555v.848a4.66 4.66 0 0 0 2.02.476c.305 0 .585-.036.842-.11.26-.072.493-.183.697-.33.207-.146.37-.341.488-.585.118-.248.176-.534.176-.856 0-.26-.024-.479-.072-.658a1.36 1.36 0 0 0-.27-.514 1.664 1.664 0 0 0-.543-.414 5.236 5.236 0 0 0-.885-.353l-.64-.203c-.42-.135-.694-.26-.825-.377-.13-.118-.195-.31-.195-.574 0-.314.1-.553.299-.715.203-.167.54-.25 1.008-.25.525 0 1.067.143 1.629.427l.238-.75a4.394 4.394 0 0 0-1.97-.453zm-150.914.776c.663 0 1.164.238 1.502.715.338.472.508 1.103.508 1.892 0 .505-.07.946-.209 1.324-.138.375-.36.675-.67.903-.305.223-.683.336-1.13.336-.652 0-1.147-.235-1.49-.707-.34-.472-.513-1.095-.513-1.864 0-.785.172-1.412.514-1.884.342-.477.837-.715 1.488-.715zm20.85 0c1.025 0 1.562.696 1.611 2.088h-3.515c.057-.643.257-1.151.6-1.526a1.7 1.7 0 0 1 1.304-.562zm16.65 0c1.026 0 1.563.696 1.612 2.088h-3.516c.057-.643.258-1.151.6-1.526a1.7 1.7 0 0 1 1.304-.562zm6.563 0c.602 0 1.056.224 1.361.672.31.447.463 1.11.463 1.984-.004.802-.152 1.42-.445 1.855-.293.436-.77.653-1.434.653-.63 0-1.097-.232-1.398-.696-.297-.463-.446-1.1-.446-1.91 0-.814.16-1.443.477-1.886.317-.448.791-.672 1.422-.672zm43.478 1.513h1.744c.88 0 1.523.134 1.93.403.407.268.61.722.61 1.361 0 .602-.176 1.04-.53 1.313-.35.272-.91.41-1.68.41h-2.074v-3.487zm48.65 0h1.747c.879 0 1.52.134 1.927.403.407.268.612.722.612 1.361 0 .602-.177 1.04-.531 1.313-.35.272-.91.41-1.678.41h-2.076v-3.487zm-57.257.032c.574.122 1.037.353 1.387.695.354.342.53.761.53 1.258 0 1.106-.64 1.66-1.917 1.66-.627 0-1.106-.145-1.44-.434-.33-.289-.494-.696-.494-1.22 0-.513.177-.936.531-1.27.354-.334.82-.563 1.403-.69zM44 145.818a19.034 19.034 0 0 0-13.514 5.578l.903.903A17.763 17.763 0 0 1 44 147.092c4.936 0 9.39 1.986 12.611 5.207l.903-.903A19.034 19.034 0 0 0 44 145.818zm169.486 14.604c-.382 0-.736.045-1.066.135-.33.09-.63.225-.899.408a1.87 1.87 0 0 0-.634.726 2.296 2.296 0 0 0-.233 1.051c0 .574.15 1.026.448 1.356.297.325.745.602 1.347.83l1.453.554c.57.22.952.437 1.147.653.2.211.3.532.3.959 0 .37-.09.681-.269.933a1.48 1.48 0 0 1-.684.537c-.28.106-.606.159-.976.159-.456 0-.93-.082-1.422-.244a4.89 4.89 0 0 1-1.318-.665v.963c.252.224.632.414 1.14.569a5.413 5.413 0 0 0 1.582.232c.306 0 .593-.027.866-.08.276-.053.544-.14.8-.262.257-.126.475-.283.659-.47.183-.188.33-.428.439-.721.11-.293.166-.622.166-.988 0-.297-.038-.561-.111-.793a2.176 2.176 0 0 0-.274-.586 1.778 1.778 0 0 0-.47-.446 3.898 3.898 0 0 0-.58-.347 9.469 9.469 0 0 0-.713-.307l-1.405-.549c-.427-.167-.723-.35-.89-.549-.163-.203-.244-.492-.244-.867 0-.305.088-.562.267-.77.18-.207.405-.353.678-.439a2.99 2.99 0 0 1 .933-.133c.379 0 .757.053 1.135.159.383.105.706.25.97.433l.392-.758a4.4 4.4 0 0 0-1.196-.5 5.026 5.026 0 0 0-1.338-.183zm-87.506.049l-1.011.074v2.008l.049 1.47a2.563 2.563 0 0 0-.313-.457 1.97 1.97 0 0 0-.39-.361 1.62 1.62 0 0 0-.555-.256 2.87 2.87 0 0 0-.733-.086c-.854 0-1.532.306-2.033.916-.496.61-.744 1.41-.744 2.399 0 1.041.24 1.87.72 2.484.485.61 1.172.916 2.063.916.924 0 1.595-.421 2.014-1.264l.092 1.141h.841v-8.984zm21.51 0l-1.013.074v2.008l.048 1.47c-.097-.179-.2-.33-.31-.457a1.97 1.97 0 0 0-.39-.361 1.63 1.63 0 0 0-.557-.256 2.87 2.87 0 0 0-.733-.086c-.854 0-1.53.306-2.031.916-.497.61-.746 1.41-.746 2.399 0 1.041.24 1.87.72 2.484.485.61 1.172.916 2.063.916.924 0 1.596-.421 2.016-1.264l.091 1.141h.842v-8.984zm-71.392.074v8.91h5.162l.025-.816h-4.113v-8.094h-1.074zm91.271 0l2.68 8.91h1.02l2.263-7.44 2.209 7.44h1.045l2.68-8.91h-1.04l-2.171 7.543-2.217-7.354H172.8l-2.22 7.36-2.192-7.55h-1.02zm13.195 0v8.91h1.075v-4.309h1.93c1.004 0 1.737-.202 2.197-.609.46-.41.69-1.017.69-1.814 0-.391-.073-.727-.216-1.012a1.614 1.614 0 0 0-.603-.684 2.881 2.881 0 0 0-.903-.367 5.174 5.174 0 0 0-1.148-.115h-3.022zm9.883 0l-3.265 8.91h1.097l1.045-2.867h3.41l1.051 2.867h1.063l-3.26-8.91h-1.14zm13.067 0v8.91h1.074v-4.309h1.93c1.005 0 1.737-.202 2.197-.609.46-.41.69-1.017.69-1.814 0-.391-.073-.727-.216-1.012a1.614 1.614 0 0 0-.603-.684 2.881 2.881 0 0 0-.902-.367 5.174 5.174 0 0 0-1.149-.115h-3.021zm14.43 0v8.91h1.074v-3.668l.793-.732 3.38 4.4h1.258l-3.834-4.95 3.65-3.96h-1.257l-3.99 4.266v-4.266h-1.075zm-122.255.683l-.812.061-.164 1.709-.994.066-.026.575h.995v3.882c0 .395.036.713.105.957.07.245.192.447.371.606.183.159.42.267.709.328s.667.092 1.135.092h.422l.049-.695-.514-.024c-.541-.02-.888-.107-1.043-.258-.155-.154-.233-.489-.233-1.006v-3.882h1.71v-.641h-1.71v-1.77zm36.157 0l-.81.061-.167 1.709-.994.066-.023.575h.994v3.882c0 .395.034.713.103.957.07.245.194.447.373.606.183.159.418.267.707.328.29.061.667.092 1.135.092h.422l.049-.695-.512-.024c-.541-.02-.89-.107-1.045-.258-.154-.154-.232-.489-.232-1.006v-3.882h1.709v-.641h-1.71v-1.77zm49.793.122h1.941c.586 0 1.03.106 1.336.318.31.207.465.564.465 1.068 0 .586-.141.997-.422 1.233-.277.236-.749.353-1.416.353h-1.904v-2.972zm22.949 0h1.941c.586 0 1.031.106 1.336.318.31.207.465.564.465 1.068 0 .586-.141.997-.422 1.233-.276.236-.748.353-1.416.353h-1.904v-2.972zm-13.563.244l1.465 4.248h-2.916l1.451-4.248zm-106.236 1.27c-.863 0-1.64.16-2.332.482l.275.744c.297-.143.634-.251 1.012-.328a5.074 5.074 0 0 1 1.063-.123c.488 0 .844.115 1.068.347.228.232.342.585.342 1.057v.635h-1.031c-1.038 0-1.796.164-2.272.494-.472.325-.707.839-.707 1.539 0 .586.18 1.043.537 1.373.362.33.84.494 1.434.494.887 0 1.607-.34 2.16-1.02l.111.891h.768v-4.26c0-.822-.212-1.413-.635-1.775-.42-.366-1.016-.55-1.793-.55zm6.03 0c-.676 0-1.2.162-1.575.488-.374.321-.562.744-.562 1.27 0 .422.108.77.324 1.038.216.265.615.489 1.197.676l.707.226c.468.151.792.312.97.483.18.17.268.382.268.635 0 .366-.106.646-.322.841-.215.192-.52.288-.91.288-.623 0-1.32-.185-2.094-.555v.848a4.669 4.669 0 0 0 2.022.476c.305 0 .585-.036.842-.11.26-.073.491-.183.695-.33.207-.146.37-.341.488-.585.118-.249.178-.534.178-.856 0-.26-.026-.479-.074-.658a1.355 1.355 0 0 0-.268-.514 1.664 1.664 0 0 0-.543-.414 5.237 5.237 0 0 0-.885-.353l-.642-.203c-.42-.135-.692-.26-.823-.377-.13-.118-.195-.31-.195-.575 0-.313.1-.552.299-.714.203-.167.538-.25 1.006-.25.525 0 1.07.143 1.63.427l.239-.75a4.402 4.402 0 0 0-1.973-.453zm19.654 0c-.676 0-1.202.162-1.577.488-.374.321-.56.744-.56 1.27 0 .422.109.77.324 1.038.216.265.614.489 1.195.676l.71.226c.467.151.79.312.968.483.18.17.27.382.27.635 0 .366-.109.646-.324.841-.216.192-.518.288-.909.288-.622 0-1.32-.185-2.093-.555v.848a4.66 4.66 0 0 0 2.02.476c.304 0 .585-.036.84-.11.261-.073.495-.183.698-.33.208-.146.37-.341.488-.585.118-.249.176-.534.176-.856 0-.26-.023-.479-.072-.658a1.36 1.36 0 0 0-.27-.514 1.664 1.664 0 0 0-.543-.414 5.237 5.237 0 0 0-.884-.353l-.641-.203c-.42-.135-.694-.26-.824-.377-.13-.118-.195-.31-.195-.575 0-.313.099-.552.298-.714.204-.167.54-.25 1.008-.25.525 0 1.068.143 1.63.427l.237-.75a4.394 4.394 0 0 0-1.97-.453zm6.115 0c-.855 0-1.558.307-2.111.921-.554.615-.83 1.44-.83 2.473 0 1.021.282 1.831.847 2.43.566.594 1.302.89 2.21.89.813 0 1.54-.19 2.179-.568l-.213-.713c-.342.17-.651.297-.928.383a3.114 3.114 0 0 1-.922.129c-.622 0-1.127-.198-1.513-.592-.387-.399-.597-1.01-.63-1.832h4.364l.037-.512c0-.944-.213-1.68-.64-2.209-.424-.533-1.04-.8-1.85-.8zm21.02 0c-.949 0-1.692.308-2.233.927-.537.614-.807 1.428-.807 2.441 0 .99.273 1.796.819 2.418.545.619 1.285.928 2.22.928.916 0 1.654-.311 2.211-.934.558-.626.836-1.431.836-2.412 0-1.013-.27-1.827-.806-2.441-.537-.619-1.284-.928-2.24-.928zm13.855 0c-.863 0-1.64.16-2.332.482l.275.744c.297-.143.635-.251 1.014-.328a5.074 5.074 0 0 1 1.062-.123c.489 0 .843.115 1.067.347.228.232.342.585.342 1.057v.635h-1.032c-1.037 0-1.793.164-2.27.494-.471.325-.708.839-.708 1.539 0 .586.179 1.043.537 1.373.362.33.841.494 1.436.494.887 0 1.606-.34 2.16-1.02l.109.891h.77v-4.26c0-.822-.212-1.413-.635-1.775-.42-.366-1.018-.55-1.795-.55zm-49.865.134v3.943c0 .875.191 1.533.574 1.977.386.44.954.66 1.703.66.529 0 .945-.08 1.25-.238a2.05 2.05 0 0 0 .775-.733l.104.848h.879v-6.457h-1.014v3.625c0 .256-.018.492-.055.703-.036.212-.1.41-.189.598-.09.187-.205.344-.348.47a1.48 1.48 0 0 1-.537.3c-.215.073-.463.109-.744.109-.496 0-.853-.149-1.068-.446-.212-.297-.317-.733-.317-1.306v-4.053h-1.013zm53.515 0l2.557 6.262-.951 2.43.908.195 3.4-8.887h-1.025l-1.844 5.158-2.013-5.158h-1.032zm-38.502.64c1.026 0 1.563.697 1.612 2.089h-3.516c.057-.643.258-1.152.6-1.526a1.7 1.7 0 0 1 1.304-.562zm6.563 0c.602 0 1.056.225 1.361.673.31.447.463 1.11.463 1.984-.004.801-.152 1.42-.445 1.855-.293.436-.77.653-1.434.653-.63 0-1.097-.232-1.398-.696-.297-.463-.446-1.1-.446-1.91 0-.814.16-1.443.477-1.886.317-.448.791-.672 1.422-.672zm14.433 0c.664 0 1.165.24 1.502.715.338.472.508 1.104.508 1.893 0 .505-.07.946-.209 1.324-.138.375-.36.675-.67.903-.305.223-.683.336-1.13.336-.652 0-1.147-.235-1.489-.707-.342-.472-.514-1.095-.514-1.864 0-.785.172-1.413.514-1.885.342-.476.837-.714 1.488-.714zm7.075 0c.602 0 1.056.225 1.361.673.31.447.465 1.11.465 1.984-.004.801-.153 1.42-.445 1.855-.293.436-.773.653-1.436.653-.63 0-1.095-.232-1.397-.696-.297-.463-.447-1.1-.447-1.91 0-.814.16-1.443.477-1.886.317-.448.791-.672 1.422-.672zm52.119 1.46v.824h4.082v-.824H196.8zM85.44 166.35h.776v1.421c-.484.713-1.145 1.069-1.979 1.069-.305 0-.558-.098-.761-.293-.204-.195-.305-.472-.305-.83 0-.2.018-.368.055-.502a.943.943 0 0 1 .2-.377.946.946 0 0 1 .403-.276c.171-.069.388-.121.652-.158.265-.036.585-.054.96-.054zm66.676 0h.774v1.421c-.485.713-1.143 1.069-1.977 1.069a1.06 1.06 0 0 1-.764-.293c-.203-.195-.304-.472-.304-.83 0-.2.018-.368.054-.502a.954.954 0 0 1 .605-.652c.172-.07.389-.122.653-.159.265-.036.585-.054.96-.054zm10.246 1.757c0 .297-.083 1.337-.25 3.12h.592l.178-.684c.118-.452.235-.917.353-1.393.122-.48.184-.746.184-.798v-.245h-1.057zm-36.383 38.364l-1.011.074v2.008l.049 1.47a2.58 2.58 0 0 0-.313-.459 1.963 1.963 0 0 0-.39-.359 1.61 1.61 0 0 0-.555-.256 2.884 2.884 0 0 0-.733-.086c-.854 0-1.532.306-2.033.916-.496.61-.744 1.41-.744 2.399 0 1.041.24 1.87.72 2.484.485.61 1.172.916 2.063.916.924 0 1.595-.421 2.014-1.264l.092 1.141h.841v-8.984zm43.702 0l-1.012.074v2.008l.049 1.47a2.576 2.576 0 0 0-.313-.459 1.962 1.962 0 0 0-.39-.359 1.61 1.61 0 0 0-.555-.256 2.884 2.884 0 0 0-.733-.086c-.854 0-1.532.306-2.033.916-.496.61-.744 1.41-.744 2.399 0 1.041.24 1.87.72 2.484.485.61 1.172.916 2.063.916.924 0 1.595-.421 2.014-1.264l.092 1.141h.842v-8.984zm-93.584.074v8.91h5.162l.025-.818h-4.113v-8.092h-1.074zm19.591.683l-.812.061-.164 1.709-.994.066-.026.575h.995v3.88c0 .395.036.715.105.96.07.244.192.444.371.603.183.158.42.269.709.33s.667.092 1.135.092h.422l.049-.695-.514-.026c-.541-.02-.888-.105-1.043-.256-.155-.154-.233-.49-.233-1.008v-3.88h1.71v-.641h-1.71v-1.77zm54.467 0l-.81.061-.166 1.709-.994.066-.024.575h.994v3.88c0 .395.035.715.104.96.069.244.194.444.373.603.183.158.418.269.707.33s.667.092 1.135.092h.422l.048-.695-.511-.026c-.542-.02-.89-.105-1.045-.256-.155-.154-.233-.49-.233-1.008v-3.88h1.71v-.641h-1.71v-1.77zm-65.367 1.635c-.863 0-1.64.161-2.332.483l.275.744c.297-.143.634-.251 1.012-.328a5.08 5.08 0 0 1 1.063-.123c.488 0 .844.115 1.068.347.228.232.342.585.342 1.057v.635h-1.031c-1.038 0-1.796.164-2.272.494-.472.325-.707.837-.707 1.537 0 .586.18 1.045.537 1.375.362.33.84.494 1.434.494.887 0 1.607-.34 2.16-1.02l.111.891h.768v-4.26c0-.822-.212-1.415-.635-1.777-.42-.366-1.016-.549-1.793-.549zm6.03 0c-.676 0-1.2.163-1.575.489-.374.321-.562.744-.562 1.269 0 .423.108.769.324 1.037.216.265.615.49 1.197.678l.707.226c.468.151.792.312.97.483.18.17.268.382.268.635 0 .366-.106.646-.322.841-.215.192-.52.288-.91.288-.623 0-1.32-.185-2.094-.555v.848a4.669 4.669 0 0 0 2.022.476c.305 0 .585-.038.842-.111a2.19 2.19 0 0 0 .695-.328c.207-.147.37-.342.488-.586.118-.249.178-.534.178-.856 0-.26-.026-.479-.074-.658a1.356 1.356 0 0 0-.268-.514 1.664 1.664 0 0 0-.543-.414 5.223 5.223 0 0 0-.885-.355l-.642-.201c-.42-.135-.692-.26-.823-.377-.13-.118-.195-.31-.195-.575 0-.313.1-.552.299-.714.203-.167.538-.25 1.006-.25.525 0 1.07.143 1.63.427l.239-.752a4.4 4.4 0 0 0-1.973-.45zm19.654 0c-.676 0-1.202.163-1.577.489-.374.321-.56.744-.56 1.269 0 .423.109.769.324 1.037.216.265.614.49 1.195.678l.71.226c.467.151.79.312.968.483.18.17.27.382.27.635 0 .366-.109.646-.324.841-.216.192-.518.288-.909.288-.622 0-1.32-.185-2.093-.555v.848a4.66 4.66 0 0 0 2.02.476c.304 0 .585-.038.84-.111a2.2 2.2 0 0 0 .698-.328c.208-.147.37-.342.488-.586.118-.249.176-.534.176-.856 0-.26-.023-.479-.072-.658a1.36 1.36 0 0 0-.27-.514 1.664 1.664 0 0 0-.543-.414 5.223 5.223 0 0 0-.884-.355l-.641-.201c-.42-.135-.694-.26-.824-.377-.13-.118-.195-.31-.195-.575 0-.313.099-.552.298-.714.204-.167.54-.25 1.008-.25.525 0 1.068.143 1.63.427l.237-.752a4.392 4.392 0 0 0-1.97-.45zm6.115 0c-.855 0-1.558.308-2.111.922-.554.615-.83 1.44-.83 2.473 0 1.021.282 1.83.847 2.428.566.594 1.302.892 2.21.892.813 0 1.54-.19 2.179-.568l-.213-.715c-.342.17-.651.3-.928.385a3.114 3.114 0 0 1-.922.129c-.622 0-1.127-.198-1.513-.592-.387-.399-.597-1.01-.63-1.832h4.364l.037-.512c0-.944-.213-1.68-.64-2.209-.424-.533-1.04-.8-1.85-.8zm22.851 0c-.854 0-1.557.308-2.11.922-.554.615-.831 1.44-.831 2.473 0 1.021.282 1.83.848 2.428.565.594 1.301.892 2.209.892.813 0 1.54-.19 2.18-.568l-.214-.715c-.341.17-.65.3-.927.385a3.114 3.114 0 0 1-.922.129c-.623 0-1.127-.198-1.514-.592-.386-.399-.596-1.01-.629-1.832h4.364l.037-.512c0-.944-.214-1.68-.641-2.209-.423-.533-1.04-.8-1.85-.8zm5.848 0c-.675 0-1.202.163-1.576.489-.374.321-.56.744-.56 1.269 0 .423.108.769.324 1.037.215.265.613.49 1.195.678l.709.226c.468.151.79.312.969.483.179.17.27.382.27.635 0 .366-.11.646-.325.841-.216.192-.518.288-.908.288-.623 0-1.32-.185-2.094-.555v.848a4.66 4.66 0 0 0 2.02.476c.305 0 .585-.038.841-.111a2.2 2.2 0 0 0 .698-.328c.207-.147.37-.342.488-.586.118-.249.176-.534.176-.856 0-.26-.024-.479-.073-.658a1.36 1.36 0 0 0-.27-.514 1.664 1.664 0 0 0-.542-.414 5.223 5.223 0 0 0-.885-.355l-.64-.201c-.42-.135-.695-.26-.825-.377-.13-.118-.195-.31-.195-.575 0-.313.1-.552.299-.714.203-.167.54-.25 1.008-.25.524 0 1.067.143 1.628.427l.239-.752a4.392 4.392 0 0 0-1.97-.45zm10.533 0c-.854 0-1.558.308-2.111.922-.553.615-.83 1.44-.83 2.473 0 1.021.284 1.83.85 2.428.565.594 1.301.892 2.208.892.814 0 1.54-.19 2.178-.568l-.213-.715c-.341.17-.65.3-.927.385a3.114 3.114 0 0 1-.922.129c-.623 0-1.127-.198-1.514-.592-.387-.399-.596-1.01-.629-1.832h4.365l.036-.512c0-.944-.214-1.68-.641-2.209-.423-.533-1.04-.8-1.85-.8zm17.836 0c-.862 0-1.64.161-2.332.483l.276.744c.297-.143.633-.251 1.011-.328a5.08 5.08 0 0 1 1.063-.123c.488 0 .844.115 1.068.347.228.232.342.585.342 1.057v.635h-1.031c-1.038 0-1.796.164-2.272.494-.472.325-.707.837-.707 1.537 0 .586.18 1.045.537 1.375.362.33.84.494 1.434.494.887 0 1.607-.34 2.16-1.02l.111.891h.768v-4.26c0-.822-.212-1.415-.635-1.777-.419-.366-1.016-.549-1.793-.549zm-11 .069c-.39 0-.761.108-1.115.328-.35.215-.648.555-.893 1.02l-.109-1.282h-.812v6.457h1.013V211.8c0-.574.18-1.06.537-1.46.362-.398.82-.597 1.373-.597.114 0 .254.016.416.049l.043-.83c-.118-.02-.27-.03-.453-.03zm-61.058.066v3.943c0 .875.191 1.533.574 1.977.386.44.954.66 1.703.66.529 0 .945-.08 1.25-.238a2.05 2.05 0 0 0 .775-.733l.104.848h.879v-6.457h-1.014v3.625c0 .256-.018.492-.055.703-.036.212-.1.41-.189.598-.09.187-.205.342-.348.469a1.482 1.482 0 0 1-.537.3c-.215.074-.463.11-.744.11-.496 0-.853-.149-1.068-.446-.212-.297-.317-.733-.317-1.306v-4.053h-1.013zm28.441 0l2.559 6.262-.953 2.43.91.195 3.4-8.887h-1.025l-1.844 5.158-2.014-5.158h-1.033zm47.266 0l2.558 6.262-.953 2.43.91.195 3.4-8.887h-1.025l-1.843 5.158-2.014-5.158h-1.033zm-60.694.64c1.026 0 1.563.697 1.612 2.089h-3.516c.057-.643.258-1.152.6-1.526a1.7 1.7 0 0 1 1.304-.562zm6.563 0c.602 0 1.056.225 1.361.673.31.447.463 1.107.463 1.982-.004.802-.152 1.42-.445 1.855-.293.436-.77.655-1.434.655-.63 0-1.097-.232-1.398-.696-.297-.463-.446-1.102-.446-1.912 0-.814.16-1.441.477-1.884.317-.448.791-.672 1.422-.672zm16.289 0c1.025 0 1.562.697 1.611 2.089h-3.515c.057-.643.257-1.152.6-1.526a1.7 1.7 0 0 1 1.304-.562zm16.383 0c1.025 0 1.562.697 1.611 2.089h-3.516c.057-.643.256-1.152.598-1.526a1.705 1.705 0 0 1 1.307-.562zm11.029 0c.602 0 1.056.225 1.361.673.31.447.463 1.107.463 1.982-.004.802-.152 1.42-.445 1.855-.293.436-.77.655-1.434.655-.63 0-1.097-.232-1.398-.696-.297-.463-.445-1.102-.445-1.912 0-.814.159-1.441.476-1.884.318-.448.791-.672 1.422-.672zm-81.434 2.712h.776v1.421c-.484.713-1.145 1.069-1.979 1.069-.305 0-.558-.098-.761-.293-.204-.195-.305-.472-.305-.83 0-.2.018-.368.055-.502a.95.95 0 0 1 .604-.652c.17-.07.387-.122.651-.159.265-.036.585-.054.96-.054zm88.868 0h.775v1.421c-.484.713-1.144 1.069-1.979 1.069-.305 0-.558-.098-.761-.293-.204-.195-.305-.472-.305-.83 0-.2.018-.368.055-.502a.95.95 0 0 1 .604-.652c.17-.07.387-.122.652-.159.264-.036.584-.054.959-.054z" id="path13714" fill="currentColor" fill-opacity=".5" stroke="none"/><path d="M141 80v7h-2l3 3 3-3h-2v-7h-2z" id="rect8909" opacity="1" fill="#1d99f3" fill-opacity="1" stroke="none"/><path d="M197 90v-7h-2l3-3 3 3h-2v7h-2z" id="rect8909-6" opacity="1" fill="#fdbc4b" fill-opacity="1" stroke="none"/></svg>