<?xml version="1.0" encoding="UTF-8" standalone="no"?>
<svg
   xmlns:dc="http://purl.org/dc/elements/1.1/"
   xmlns:cc="http://creativecommons.org/ns#"
   xmlns:rdf="http://www.w3.org/1999/02/22-rdf-syntax-ns#"
   xmlns:svg="http://www.w3.org/2000/svg"
   xmlns="http://www.w3.org/2000/svg"
   xmlns:xlink="http://www.w3.org/1999/xlink"
   xmlns:sodipodi="http://sodipodi.sourceforge.net/DTD/sodipodi-0.dtd"
   xmlns:inkscape="http://www.inkscape.org/namespaces/inkscape"
   width="32"
   height="32"
   version="1"
   id="svg14"
   sodipodi:docname="certificate-server.svg"
   inkscape:version="0.92.4 5da689c313, 2019-01-14">
  <metadata
     id="metadata20">
    <rdf:RDF>
      <cc:Work
         rdf:about="">
        <dc:format>image/svg+xml</dc:format>
        <dc:type
           rdf:resource="http://purl.org/dc/dcmitype/StillImage" />
        <dc:title />
      </cc:Work>
    </rdf:RDF>
  </metadata>
  <defs
     id="defs18">
    <linearGradient
       id="linearGradient990"
       inkscape:collect="always">
      <stop
         id="stop986"
         offset="0"
         style="stop-color:#4f4f4f;stop-opacity:1" />
      <stop
         id="stop988"
         offset="1"
         style="stop-color:#828282;stop-opacity:1" />
    </linearGradient>
    <linearGradient
       inkscape:collect="always"
       id="linearGradient827">
      <stop
         style="stop-color:#4f4f4f;stop-opacity:1"
         offset="0"
         id="stop823" />
      <stop
         style="stop-color:#bfbebe;stop-opacity:1"
         offset="1"
         id="stop825" />
    </linearGradient>
    <linearGradient
       inkscape:collect="always"
       id="linearGradient889">
      <stop
         style="stop-color:#8998ad;stop-opacity:1"
         offset="0"
         id="stop885" />
      <stop
         style="stop-color:#dadfe1;stop-opacity:1"
         offset="1"
         id="stop887" />
    </linearGradient>
    <linearGradient
       inkscape:collect="always"
       xlink:href="#linearGradient990"
       id="linearGradient975"
       x1="-5.667089"
       y1="22.200636"
       x2="-5.5973864"
       y2="10.717914"
       gradientUnits="userSpaceOnUse"
       gradientTransform="matrix(1.8471337,0,0,1.8471337,-1.6973853,-28.433842)" />
    <linearGradient
       inkscape:collect="always"
       xlink:href="#linearGradient889"
       id="linearGradient891-3-3"
       x1="-34.169491"
       y1="21.288134"
       x2="-13.152548"
       y2="7.4576306"
       gradientUnits="userSpaceOnUse"
       gradientTransform="matrix(1.2272328,0,0,1.4998451,17.688366,-21.176367)" />
    <linearGradient
       gradientTransform="translate(3.6887887,-17.017371)"
       inkscape:collect="always"
       xlink:href="#linearGradient827"
       id="linearGradient1037"
       x1="-8.0969543"
       y1="11.094899"
       x2="-8.1753788"
       y2="4.9379373"
       gradientUnits="userSpaceOnUse" />
    <filter
       inkscape:collect="always"
       style="color-interpolation-filters:sRGB"
       id="filter925"
       x="-0.014005141"
       width="1.0280103"
       y="-0.010544829"
       height="1.0210897">
      <feGaussianBlur
         inkscape:collect="always"
         stdDeviation="0.046683511"
         id="feGaussianBlur927" />
    </filter>
    <filter
       inkscape:collect="always"
       style="color-interpolation-filters:sRGB"
       id="filter1217"
       x="-0.010807046"
       width="1.0216141"
       y="-0.013436661"
       height="1.0268733">
      <feGaussianBlur
         inkscape:collect="always"
         stdDeviation="0.11614813"
         id="feGaussianBlur1219" />
    </filter>
  </defs>
  <sodipodi:namedview
     pagecolor="#ffffff"
     bordercolor="#666666"
     borderopacity="1"
     objecttolerance="10"
     gridtolerance="10"
     guidetolerance="10"
     inkscape:pageopacity="0"
     inkscape:pageshadow="2"
     inkscape:window-width="1920"
     inkscape:window-height="1024"
     id="namedview16"
     showgrid="false"
     inkscape:zoom="26.3125"
     inkscape:cx="16"
     inkscape:cy="16"
     inkscape:window-x="0"
     inkscape:window-y="24"
     inkscape:window-maximized="1"
     inkscape:current-layer="g872"
     showguides="true"
     inkscape:guide-bbox="true"
     inkscape:snap-global="true" />
  <g
     id="g872"
     transform="matrix(1.0000063,0,0,1.0352793,28.578472,14.980279)">
    <path
       inkscape:connector-curvature="0"
       d="m -8.5853303,-12.403521 c -2.3908547,0 -3.1668757,1.884805 -4.3949507,3.7670978 h -11.458257 c -1.739142,0 -3.139248,1.4001052 -3.139248,3.1392492 v 1.2557 10.6734457 1.883548 1.098738 0.156969 c 0.0076,0.174536 0.0452,0.344062 0.07911,0.5098153 0.149433,0.867687 0.644171,1.60855 1.373734,2.079436 0.347828,0.224771 0.749652,0.388013 1.177845,0.470888 0.213466,0.04394 0.400564,0.07911 0.627846,0.07911 h 23.62347871 c 0.227282,0 0.41438,-0.0339 0.62785,-0.07911 0.426937,-0.08288 0.828761,-0.246117 1.17659099,-0.470888 0.72956,-0.470886 1.22305,-1.211749 1.373733,-2.079436 0.0339,-0.1657443 0.07032,-0.3365283 0.07911,-0.5098153 V 9.4142577 8.3155197 -9.1073111 c 0,-1.8358329 -1.442798,-3.2962099 -3.25728399,-3.2962099 H -8.5828173 Z"
       style="opacity:1;fill:url(#linearGradient1037);fill-opacity:1;stroke:none;stroke-width:1.2556994"
       id="path25-2" />
    <rect
       style="opacity:0.647;vector-effect:none;fill:#000000;fill-opacity:1;fill-rule:nonzero;stroke:none;stroke-width:0.19693819;stroke-linecap:butt;stroke-linejoin:miter;stroke-miterlimit:4;stroke-dasharray:none;stroke-dashoffset:0;stroke-opacity:1;paint-order:markers stroke fill;filter:url(#filter1217)"
       id="rect883-5-5-9"
       width="25.792688"
       height="20.74362"
       x="-24.245552"
       y="-9.9910765"
       transform="matrix(0.99999999,1.0125852e-4,-6.7794228e-5,1,0,0)"
       inkscape:transform-center-x="4.5837926"
       inkscape:transform-center-y="-6.389833"
       ry="1.6756594" />
    <rect
       style="opacity:1;vector-effect:none;fill:url(#linearGradient891-3-3);fill-opacity:1;fill-rule:nonzero;stroke:none;stroke-width:0.19693819;stroke-linecap:butt;stroke-linejoin:miter;stroke-miterlimit:4;stroke-dasharray:none;stroke-dashoffset:0;stroke-opacity:1;paint-order:markers stroke fill"
       id="rect883-5-5"
       width="25.792688"
       height="20.74362"
       x="-24.245554"
       y="-9.9910784"
       transform="matrix(0.99999999,1.0125852e-4,-6.7794228e-5,1,0,0)"
       inkscape:transform-center-x="4.5837926"
       inkscape:transform-center-y="-6.389833"
       ry="1.6756594" />
    <path
       inkscape:connector-curvature="0"
       d="m -16.431455,-12.403521 c 2.390854,0 3.166876,1.884805 4.394951,3.7670978 h 11.45825471 c 1.73914199,0 3.13924799,1.4001052 3.13924799,3.1392492 v 1.2557 10.6734437 1.883548 1.098738 0.156969 c -0.0076,0.174536 -0.0452,0.344062 -0.07911,0.5098153 -0.149433,0.867687 -0.644173,1.60855 -1.373736,2.079436 -0.34782799,0.224771 -0.74965099,0.388013 -1.17784499,0.470888 -0.213465,0.04394 -0.400563,0.07911 -0.627846,0.07911 H -24.321014 c -0.227282,0 -0.41438,-0.03389 -0.62785,-0.07911 -0.426937,-0.08288 -0.828761,-0.246117 -1.176591,-0.470888 -0.72956,-0.470886 -1.22305,-1.211749 -1.373733,-2.079436 -0.03389,-0.1657433 -0.07032,-0.3365283 -0.07911,-0.5098153 V 9.4142557 8.3155177 -9.1073111 c 0,-1.8358329 1.442798,-3.2962099 3.257284,-3.2962099 h 7.887047 z"
       style="opacity:1;fill:url(#linearGradient975);fill-opacity:1;stroke:none;stroke-width:1.2556994"
       id="path25" />
    <path
       style="opacity:0.647;fill:#000000;fill-opacity:1;stroke-width:0.98281068;filter:url(#filter925)"
       d="m -12.578395,-4.3276054 c -1.65999,0 -2.99998,1.2557 -2.99998,2.897769 h 0.99999 c 0,-1.062515 0.89,-1.931846 1.99999,-1.931846 1.10999,0 1.99999,0.869331 1.99999,1.931846 v 1.93184696 h -2.99998 -1 -0.99999 -0.5 c -0.277,0 -0.49999,0.215401 -0.49999,0.482961 V 5.8145856 c 0,0.267561 0.22299,0.482962 0.49999,0.482962 h 6.99996 c 0.277,0 0.5,-0.215401 0.5,-0.482962 V 0.98497156 c 0,-0.26756 -0.223,-0.482961 -0.5,-0.482961 h -0.5 V -1.4298364 c 0,-1.642069 -1.33999,-2.897769 -2.99998,-2.897769 z"
       id="path14-3"
       inkscape:connector-curvature="0" />
    <path
       style="opacity:1;fill:#dadfe1;fill-opacity:1;stroke-width:0.98281068"
       d="m -12.578393,-4.3276045 c -1.65999,0 -2.999981,1.2557 -2.999981,2.897769 h 0.999993 c 0,-1.062515 0.889995,-1.931846 1.999988,-1.931846 1.109993,0 1.999988,0.869331 1.999988,1.931846 v 1.93184606 h -2.999982 -0.999994 -0.999993 -0.499997 c -0.276998,0 -0.499997,0.21540105 -0.499997,0.48296104 v 4.8296148 c 0,0.2675607 0.222999,0.4829615 0.499997,0.4829615 h 6.9999572 c 0.276998,0 0.499997,-0.2154008 0.499997,-0.4829615 V 0.9849716 c 0,-0.26755999 -0.222999,-0.48296104 -0.499997,-0.48296104 h -0.499997 V -1.4298355 c 0,-1.642069 -1.3399932,-2.897769 -2.9999822,-2.897769 z"
       id="path14"
       inkscape:connector-curvature="0" />
  </g>
</svg>
