<svg xmlns="http://www.w3.org/2000/svg" xmlns:xlink="http://www.w3.org/1999/xlink" version="1" height="32" width="32"><defs><linearGradient id="a"><stop offset="0" stop-color="#4f4f4f"/><stop offset="1" stop-color="#828282"/></linearGradient><linearGradient id="b"><stop offset="0" stop-color="#8998ad"/><stop offset="1" stop-color="#dadfe1"/></linearGradient><linearGradient gradientTransform="matrix(1.84713 0 0 1.84713 -1.697 -28.434)" gradientUnits="userSpaceOnUse" y2="10.718" x2="-5.597" y1="22.201" x1="-5.667" id="d" xlink:href="#a"/><linearGradient gradientTransform="matrix(1.22723 0 0 1.49985 17.688 -21.176)" gradientUnits="userSpaceOnUse" y2="7.458" x2="-13.153" y1="21.288" x1="-34.169" id="c" xlink:href="#b"/></defs><g transform="matrix(1 0 0 1.03528 28.578 14.98)"><path d="M-8.585-12.404c-2.391 0-3.167 1.885-4.395 3.768H-24.44c-1.739 0-3.139 1.4-3.139 3.139V9.57c.008.175.045.344.08.51.149.868.643 1.609 1.373 2.08.348.224.75.387 1.178.47.213.044.4.08.628.08H-.696c.228 0 .415-.034.628-.08a3.352 3.352 0 0 0 1.177-.47 3.082 3.082 0 0 0 1.373-2.08c.034-.166.07-.336.08-.51V-9.107c0-1.836-1.443-3.297-3.258-3.297h-7.887z" fill="#4f4f4f" stroke="#828282" stroke-width=".098"/><rect ry="1.676" transform="rotate(.008) skewX(.002)" y="-9.991" x="-24.146" height="20.744" width="25.793" opacity=".647" fill="#454545" paint-order="markers stroke fill"/><rect ry="1.676" transform="rotate(.008) skewX(.002)" y="-9.991" x="-24.246" height="20.744" width="25.793" fill="url(#c)" paint-order="markers stroke fill"/><path d="M-16.431-12.404c2.39 0 3.166 1.885 4.394 3.768H-.578c1.739 0 3.139 1.4 3.139 3.139V9.57c-.008.175-.045.344-.08.51a3.078 3.078 0 0 1-1.373 2.08c-.348.224-.75.387-1.178.47-.213.044-.4.08-.628.08H-24.32c-.227 0-.414-.034-.628-.08a3.352 3.352 0 0 1-1.176-.47 3.082 3.082 0 0 1-1.374-2.08c-.034-.166-.07-.336-.08-.51V-9.107c0-1.836 1.444-3.297 3.258-3.297h7.887z" fill="url(#d)" stroke="#828282" stroke-width=".098"/><path d="M-16.284-4.548a.85.85 0 0 0-.867.837v6.977h1.156v1.116h1.155v-6.697h3.467v2.232h1.156v5.581h1.155V4.382h1.156v-6.14l-2.889-2.79zm7.222 10.046v1.116h1.156V5.498zm-1.155 0h-1.156v1.116h1.156zm-1.156 0V4.382h-1.155v1.116zm-1.155 0h-1.156v1.116h1.156zm-1.156 0V4.382h-1.156v1.116zm-1.156 0h-1.155v1.116h1.155zm-1.155 0V4.382h-1.156v1.116z" opacity=".647" fill="#454545"/><path d="M-16.384-4.645a.85.85 0 0 0-.867.838v6.976h1.156v1.116h1.155v-6.697h3.467V-.18h1.156v5.582h1.155V4.285h1.156v-6.139l-2.889-2.79zm7.222 10.047v1.116h1.156V5.402zm-1.155 0h-1.156v1.116h1.156zm-1.156 0V4.285h-1.155v1.117zm-1.155 0h-1.156v1.116h1.156zm-1.156 0V4.285h-1.156v1.117zm-1.156 0h-1.155v1.116h1.155zm-1.155 0V4.285h-1.156v1.117z" fill="#dadfe1"/></g></svg>