<?xml version="1.0" encoding="UTF-8" standalone="no"?>
<svg
   xmlns:dc="http://purl.org/dc/elements/1.1/"
   xmlns:cc="http://creativecommons.org/ns#"
   xmlns:rdf="http://www.w3.org/1999/02/22-rdf-syntax-ns#"
   xmlns:svg="http://www.w3.org/2000/svg"
   xmlns="http://www.w3.org/2000/svg"
   xmlns:xlink="http://www.w3.org/1999/xlink"
   xmlns:sodipodi="http://sodipodi.sourceforge.net/DTD/sodipodi-0.dtd"
   xmlns:inkscape="http://www.inkscape.org/namespaces/inkscape"
   width="32"
   height="32"
   version="1"
   id="svg14"
   sodipodi:docname="folder-image-people.svg"
   inkscape:version="0.92.4 5da689c313, 2019-01-14">
  <metadata
     id="metadata20">
    <rdf:RDF>
      <cc:Work
         rdf:about="">
        <dc:format>image/svg+xml</dc:format>
        <dc:type
           rdf:resource="http://purl.org/dc/dcmitype/StillImage" />
        <dc:title />
      </cc:Work>
    </rdf:RDF>
  </metadata>
  <defs
     id="defs18">
    <linearGradient
       id="linearGradient990"
       inkscape:collect="always">
      <stop
         id="stop986"
         offset="0"
         style="stop-color:#4f4f4f;stop-opacity:1" />
      <stop
         id="stop988"
         offset="1"
         style="stop-color:#828282;stop-opacity:1" />
    </linearGradient>
    <linearGradient
       inkscape:collect="always"
       id="linearGradient889">
      <stop
         style="stop-color:#8998ad;stop-opacity:1"
         offset="0"
         id="stop885" />
      <stop
         style="stop-color:#dadfe1;stop-opacity:1"
         offset="1"
         id="stop887" />
    </linearGradient>
    <linearGradient
       inkscape:collect="always"
       xlink:href="#linearGradient990"
       id="linearGradient975"
       x1="-5.667089"
       y1="22.200636"
       x2="-5.5973864"
       y2="10.717914"
       gradientUnits="userSpaceOnUse"
       gradientTransform="matrix(1.8471337,0,0,1.8471337,-1.6973853,-28.433842)" />
    <linearGradient
       inkscape:collect="always"
       xlink:href="#linearGradient889"
       id="linearGradient891-3-3"
       x1="-34.169491"
       y1="21.288134"
       x2="-13.152548"
       y2="7.4576306"
       gradientUnits="userSpaceOnUse"
       gradientTransform="matrix(1.2272328,0,0,1.4998451,17.688366,-21.176367)" />
    <filter
       inkscape:collect="always"
       style="color-interpolation-filters:sRGB"
       id="filter989"
       x="-0.012061179"
       width="1.0241224"
       y="-0.011945002"
       height="1.02389">
      <feGaussianBlur
         inkscape:collect="always"
         stdDeviation="0.050307454"
         id="feGaussianBlur991" />
    </filter>
    <filter
       inkscape:collect="always"
       style="color-interpolation-filters:sRGB"
       id="filter1065"
       x="-0.010807046"
       width="1.0216141"
       y="-0.013436661"
       height="1.0268733">
      <feGaussianBlur
         inkscape:collect="always"
         stdDeviation="0.11614813"
         id="feGaussianBlur1067" />
    </filter>
  </defs>
  <sodipodi:namedview
     pagecolor="#ffffff"
     bordercolor="#666666"
     borderopacity="1"
     objecttolerance="10"
     gridtolerance="10"
     guidetolerance="10"
     inkscape:pageopacity="0"
     inkscape:pageshadow="2"
     inkscape:window-width="1002"
     inkscape:window-height="789"
     id="namedview16"
     showgrid="false"
     inkscape:zoom="17.56"
     inkscape:cx="16"
     inkscape:cy="18.334852"
     inkscape:window-x="383"
     inkscape:window-y="91"
     inkscape:window-maximized="0"
     inkscape:current-layer="g872"
     showguides="true"
     inkscape:guide-bbox="true"
     inkscape:snap-global="true" />
  <g
     id="g872"
     transform="matrix(1.0000063,0,0,1.0352793,28.578472,14.980279)">
    <path
       inkscape:connector-curvature="0"
       d="m -8.5853303,-12.403521 c -2.3908547,0 -3.1668757,1.884805 -4.3949507,3.7670978 h -11.458257 c -1.739142,0 -3.139248,1.4001052 -3.139248,3.1392492 v 1.2557 10.6734457 1.883548 1.098738 0.156969 c 0.0076,0.174536 0.0452,0.344062 0.07911,0.5098153 0.149433,0.867687 0.644171,1.60855 1.373734,2.079436 0.347828,0.224771 0.749652,0.388013 1.177845,0.470888 0.213466,0.04394 0.400564,0.07911 0.627846,0.07911 h 23.62347871 c 0.227282,0 0.41438,-0.0339 0.62785,-0.07911 0.426937,-0.08288 0.828761,-0.246117 1.17659099,-0.470888 0.72956,-0.470886 1.22305,-1.211749 1.373733,-2.079436 0.0339,-0.1657443 0.07032,-0.3365283 0.07911,-0.5098153 V 9.4142577 8.3155197 -9.1073111 c 0,-1.8358329 -1.442798,-3.2962099 -3.25728399,-3.2962099 H -8.5828173 Z"
       style="opacity:1;fill:#4f4f4f;fill-opacity:1;stroke:#828282;stroke-width:0.09828107;stroke-miterlimit:4;stroke-dasharray:none;stroke-opacity:1"
       id="path25-2" />
    <rect
       style="opacity:0.647;vector-effect:none;fill:#000000;fill-opacity:1;fill-rule:nonzero;stroke:none;stroke-width:0.19693819;stroke-linecap:butt;stroke-linejoin:miter;stroke-miterlimit:4;stroke-dasharray:none;stroke-dashoffset:0;stroke-opacity:1;paint-order:markers stroke fill;filter:url(#filter1065)"
       id="rect883-5-5-3"
       width="25.792688"
       height="20.74362"
       x="-24.245554"
       y="-9.9910784"
       transform="matrix(0.99999999,1.0125852e-4,-6.7794228e-5,1,0,0)"
       inkscape:transform-center-x="4.5837926"
       inkscape:transform-center-y="-6.389833"
       ry="1.6756594" />
    <rect
       style="opacity:1;vector-effect:none;fill:url(#linearGradient891-3-3);fill-opacity:1;fill-rule:nonzero;stroke:none;stroke-width:0.19693819;stroke-linecap:butt;stroke-linejoin:miter;stroke-miterlimit:4;stroke-dasharray:none;stroke-dashoffset:0;stroke-opacity:1;paint-order:markers stroke fill"
       id="rect883-5-5"
       width="25.792688"
       height="20.74362"
       x="-24.245554"
       y="-9.9910784"
       transform="matrix(0.99999999,1.0125852e-4,-6.7794228e-5,1,0,0)"
       inkscape:transform-center-x="4.5837926"
       inkscape:transform-center-y="-6.389833"
       ry="1.6756594" />
    <path
       inkscape:connector-curvature="0"
       d="m -16.431455,-12.403521 c 2.390854,0 3.166876,1.884805 4.394951,3.7670978 h 11.45825471 c 1.73914199,0 3.13924799,1.4001052 3.13924799,3.1392492 v 1.2557 10.6734437 1.883548 1.098738 0.156969 c -0.0076,0.174536 -0.0452,0.344062 -0.07911,0.5098153 -0.149433,0.867687 -0.644173,1.60855 -1.373736,2.079436 -0.34782799,0.224771 -0.74965099,0.388013 -1.17784499,0.470888 -0.213465,0.04394 -0.400563,0.07911 -0.627846,0.07911 H -24.321014 c -0.227282,0 -0.41438,-0.03389 -0.62785,-0.07911 -0.426937,-0.08288 -0.828761,-0.246117 -1.176591,-0.470888 -0.72956,-0.470886 -1.22305,-1.211749 -1.373733,-2.079436 -0.03389,-0.1657433 -0.07032,-0.3365283 -0.07911,-0.5098153 V 9.4142557 8.3155177 -9.1073111 c 0,-1.8358329 1.442798,-3.2962099 3.257284,-3.2962099 h 7.887047 z"
       style="opacity:1;fill:url(#linearGradient975);fill-opacity:1;stroke:#4f4f4f;stroke-width:0.09828107;stroke-miterlimit:4;stroke-dasharray:none;stroke-opacity:1"
       id="path25" />
    <path
       style="opacity:0.647;fill:#000000;fill-opacity:1;stroke-width:1.06031406;filter:url(#filter989)"
       d="m -15.065857,-1.4192227 c -0.03403,0.0078 -0.06908,0.02246 -0.101106,0.0393 -0.323337,0.169585 -0.407425,0.699683 -0.186194,1.190475 0.178187,0.395328 0.493517,0.64016 0.779817,0.6323 0.216224,1.312891 1.075124,2.292225 2.100195,2.292225 1.025073,0 1.883972,-0.979334 2.100197,-2.292225 0.286299,0.0078 0.601629,-0.236973 0.779815,-0.632301 0.221232,-0.490792 0.137144,-1.020889 -0.186193,-1.190475 -0.03204,-0.01685 -0.06707,-0.03145 -0.101107,-0.0393 -0.04204,-1.435309 -1.185239,-2.58423 -2.592712,-2.58423 -1.407472,0 -2.550667,1.148921 -2.592712,2.584231 z m 2.588708,5.277401 c -0.58361,0 -1.11016,-0.325697 -1.497567,-0.844564 -1.632707,0.270665 -3.378533,0.662623 -3.487646,1.109613 -0.002,0.0068 10e-4,0.01459 0,0.02022 -0.005,0.02246 -0.006,0.04268 -0.008,0.06514 -10e-4,0.01123 -0.008,0.01798 -0.008,0.0292 v 1.565588 c -1.4e-5,0.167341 0.111101,0.300988 0.250246,0.300988 h 9.509949 c 0.139145,0 0.25026,-0.133647 0.25026,-0.300988 v -1.576819 c -10e-4,-0.03594 -0.01501,-0.06738 -0.02302,-0.103323 -0.116122,-0.46496 -1.807891,-0.872642 -3.412569,-1.14443 -0.123129,0.193172 -0.287301,0.367251 -0.507531,0.497529 l -0.002,0.0022 c -0.312327,0.24146 -0.673705,0.3796 -1.056106,0.3796"
       id="path14-3"
       inkscape:connector-curvature="0" />
    <path
       style="opacity:1;fill:#dadfe1;fill-opacity:1;stroke-width:1.06031406"
       d="m -15.065857,-1.4192217 c -0.03403,0.0078 -0.06908,0.02246 -0.101106,0.0393 -0.323337,0.169585 -0.407425,0.6996831 -0.186194,1.19047508 0.178187,0.395328 0.493517,0.64016 0.779817,0.6323 0.216224,1.31289092 1.075124,2.29222492 2.100195,2.29222492 1.025073,0 1.883972,-0.979334 2.100197,-2.29222492 0.286299,0.0078 0.6016289,-0.236973 0.7798149,-0.632301 0.221232,-0.49079198 0.137144,-1.02088908 -0.186193,-1.19047508 -0.03204,-0.01685 -0.06707,-0.03145 -0.101107,-0.0393 -0.04204,-1.435309 -1.1852389,-2.58423 -2.5927119,-2.58423 -1.407472,0 -2.550667,1.148921 -2.592712,2.584231 z m 2.588708,5.2774 c -0.58361,0 -1.11016,-0.325697 -1.497567,-0.844564 -1.632707,0.270665 -3.378533,0.662623 -3.487646,1.109613 -0.002,0.0068 10e-4,0.01459 0,0.02022 -0.005,0.02246 -0.006,0.04268 -0.008,0.06514 -10e-4,0.01123 -0.008,0.01798 -0.008,0.0292 v 1.565588 c -1.4e-5,0.167341 0.111101,0.300988 0.250246,0.300988 h 9.5099489 c 0.139145,0 0.25026,-0.133647 0.25026,-0.300988 v -1.576819 c -0.001,-0.03594 -0.01501,-0.06738 -0.02302,-0.103323 -0.116122,-0.46496 -1.807891,-0.872642 -3.4125689,-1.14443 -0.123129,0.193172 -0.287301,0.367251 -0.507531,0.497529 l -0.002,0.0022 c -0.312327,0.241463 -0.673705,0.379603 -1.056106,0.379603"
       id="path14"
       inkscape:connector-curvature="0" />
  </g>
</svg>
