<?xml version="1.0" encoding="UTF-8" standalone="no"?>
<svg
   xmlns:dc="http://purl.org/dc/elements/1.1/"
   xmlns:cc="http://creativecommons.org/ns#"
   xmlns:rdf="http://www.w3.org/1999/02/22-rdf-syntax-ns#"
   xmlns:svg="http://www.w3.org/2000/svg"
   xmlns="http://www.w3.org/2000/svg"
   xmlns:xlink="http://www.w3.org/1999/xlink"
   xmlns:sodipodi="http://sodipodi.sourceforge.net/DTD/sodipodi-0.dtd"
   xmlns:inkscape="http://www.inkscape.org/namespaces/inkscape"
   inkscape:version="1.0 (4035a4fb49, 2020-05-01)"
   sodipodi:docname="folder-tar.svg"
   id="svg14"
   version="1"
   height="32"
   width="32">
  <metadata
     id="metadata20">
    <rdf:RDF>
      <cc:Work
         rdf:about="">
        <dc:format>image/svg+xml</dc:format>
        <dc:type
           rdf:resource="http://purl.org/dc/dcmitype/StillImage" />
        <dc:title />
      </cc:Work>
    </rdf:RDF>
  </metadata>
  <defs
     id="defs18">
    <linearGradient
       inkscape:collect="always"
       id="linearGradient990">
      <stop
         style="stop-color:#4f4f4f;stop-opacity:1"
         offset="0"
         id="stop986" />
      <stop
         style="stop-color:#828282;stop-opacity:1"
         offset="1"
         id="stop988" />
    </linearGradient>
    <linearGradient
       id="linearGradient889"
       inkscape:collect="always">
      <stop
         id="stop885"
         offset="0"
         style="stop-color:#8998ad;stop-opacity:1" />
      <stop
         id="stop887"
         offset="1"
         style="stop-color:#dadfe1;stop-opacity:1" />
    </linearGradient>
    <linearGradient
       gradientTransform="matrix(1.8471453,0,0,1.9122993,26.881076,-14.456689)"
       gradientUnits="userSpaceOnUse"
       y2="10.717914"
       x2="-5.5973864"
       y1="22.200636"
       x1="-5.667089"
       id="linearGradient975"
       xlink:href="#linearGradient990"
       inkscape:collect="always" />
    <linearGradient
       gradientTransform="matrix(1.2272405,0,0,1.5527586,46.26793,-6.9461714)"
       gradientUnits="userSpaceOnUse"
       y2="7.4576306"
       x2="-13.152548"
       y1="21.288134"
       x1="-34.169491"
       id="linearGradient891-3-3"
       xlink:href="#linearGradient889"
       inkscape:collect="always" />
  </defs>
  <sodipodi:namedview
     inkscape:document-rotation="0"
     inkscape:snap-global="true"
     inkscape:guide-bbox="true"
     showguides="true"
     inkscape:current-layer="g834"
     inkscape:window-maximized="1"
     inkscape:window-y="26"
     inkscape:window-x="0"
     inkscape:cy="16"
     inkscape:cx="16"
     inkscape:zoom="26.78125"
     showgrid="false"
     id="namedview16"
     inkscape:window-height="1028"
     inkscape:window-width="1920"
     inkscape:pageshadow="2"
     inkscape:pageopacity="0"
     guidetolerance="10"
     gridtolerance="10"
     objecttolerance="10"
     borderopacity="1"
     bordercolor="#666666"
     pagecolor="#ffffff" />
  <g
     transform="translate(9.9970075e-4,8.2899925e-4)"
     id="g834">
    <path
       id="path25-2"
       style="opacity:1;fill:#4f4f4f;fill-opacity:1;stroke:#828282;stroke-width:0.1;stroke-miterlimit:4;stroke-dasharray:none;stroke-opacity:1"
       d="m 19.993088,2.1391705 c -2.39087,0 -3.166896,1.9512996 -4.394979,3.8999983 H 4.13978 c -1.7391529,0 -3.1392677,1.4495 -3.1392677,3.2499997 v 1.3000005 11.049997 1.949998 1.137501 0.162507 c 0.0076,0.180693 0.0452,0.3562 0.079111,0.527801 0.1494339,0.898298 0.644175,1.665299 1.3737426,2.152797 0.3478302,0.232701 0.7496567,0.401702 1.1778524,0.487501 0.2134674,0.04549 0.4005666,0.0819 0.62785,0.0819 H 27.882695 c 0.227284,0 0.414383,-0.0351 0.627854,-0.0819 0.42694,-0.0858 0.828767,-0.2548 1.176599,-0.487501 0.729564,-0.487498 1.223057,-1.254499 1.373741,-2.152797 0.0339,-0.171592 0.07032,-0.348401 0.07911,-0.527801 V 24.726665 23.589164 5.5516683 c 0,-1.9005998 -1.442807,-3.4124978 -3.257305,-3.4124978 H 19.9956 Z"
       inkscape:connector-curvature="0" />
    <rect
       ry="1.7347755"
       inkscape:transform-center-y="-6.389833"
       inkscape:transform-center-x="4.5837926"
       transform="matrix(0.99999999,1.0483019e-4,-6.5484411e-5,1,0,0)"
       y="4.6337161"
       x="4.4335961"
       height="21.475441"
       width="25.79285"
       id="rect883-5-5-3"
       style="opacity:0.647;vector-effect:none;fill:#454545;fill-opacity:1;fill-rule:nonzero;stroke:none;stroke-width:0.200383;stroke-linecap:butt;stroke-linejoin:miter;stroke-miterlimit:4;stroke-dasharray:none;stroke-dashoffset:0;stroke-opacity:1;paint-order:markers stroke fill" />
    <rect
       ry="1.7347755"
       inkscape:transform-center-y="-6.389833"
       inkscape:transform-center-x="4.5837926"
       transform="matrix(0.99999999,1.0483019e-4,-6.5484411e-5,1,0,0)"
       y="4.6337266"
       x="4.333746"
       height="21.475441"
       width="25.79285"
       id="rect883-5-5"
       style="opacity:1;vector-effect:none;fill:url(#linearGradient891-3-3);fill-opacity:1;fill-rule:nonzero;stroke:none;stroke-width:0.200383;stroke-linecap:butt;stroke-linejoin:miter;stroke-miterlimit:4;stroke-dasharray:none;stroke-dashoffset:0;stroke-opacity:1;paint-order:markers stroke fill" />
    <path
       id="path25"
       style="opacity:1;fill:url(#linearGradient975);fill-opacity:1;stroke:#828282;stroke-width:0.1;stroke-miterlimit:4;stroke-dasharray:none;stroke-opacity:1"
       d="m 12.146913,2.1391705 c 2.39087,0 3.166896,1.9512996 4.394979,3.8999983 h 11.458327 c 1.739153,0 3.139268,1.4495 3.139268,3.2499997 v 1.3000005 11.049995 1.949998 1.137501 0.162507 c -0.0076,0.180693 -0.0452,0.3562 -0.07911,0.527801 -0.149434,0.898298 -0.644177,1.665299 -1.373744,2.152797 -0.34783,0.232701 -0.749656,0.401702 -1.177853,0.487501 -0.213466,0.04549 -0.400565,0.0819 -0.62785,0.0819 H 4.2573048 c -0.2272835,0 -0.4143826,-0.03509 -0.627854,-0.0819 -0.4269397,-0.0858 -0.8287662,-0.2548 -1.1765984,-0.487501 C 1.7232878,27.08227 1.2297947,26.315269 1.0791108,25.416971 1.0452205,25.24538 1.0087903,25.06857 1.0000003,24.88917 V 24.726663 23.589162 5.5516683 c 0,-1.9005998 1.442807,-3.4124978 3.2573045,-3.4124978 h 7.8870962 z"
       inkscape:connector-curvature="0" />
    <g
       id="g838">
      <path
         inkscape:connector-curvature="0"
         id="path14-3"
         d="m 16.642373,6.1245762 v 1.271186 h 1.271186 v -1.271186 z m 0,1.271186 h -1.271186 v 1.271187 h 1.271186 z m 0,1.271187 v 1.271186 h 1.271186 v -1.271186 z m 0,1.271186 h -1.271186 v 1.2711868 h 1.271186 z m 0,1.2711868 v 1.271186 c 0.701695,0 1.271186,-0.635593 1.271186,-1.271186 z m 0,1.271186 c -1.404661,0 -2.542373,1.144068 -2.542373,2.542373 v 5.084746 c 0,1.398305 1.137712,2.542373 2.542373,2.542373 1.404661,0 2.542373,-1.144068 2.542373,-2.542373 v -5.084745 c 0,-1.398305 -1.137712,-2.542373 -2.542373,-2.542374 z m 0,1.271187 c 0.701695,0 1.271186,0.508474 1.271186,1.271186 0,0.635593 -0.569491,1.271188 -1.271186,1.271188 -0.701695,0 -1.271186,-0.635595 -1.271186,-1.271188 0,-0.762711 0.569491,-1.271186 1.271186,-1.271186 z m 0,3.81356 c 0.701695,0 1.271186,0.508475 1.271186,1.271187 v 1.271186 c 0,0.635593 -0.569491,1.271186 -1.271186,1.271186 -0.701695,0 -1.271186,-0.635593 -1.271186,-1.271186 v -1.271186 c 0,-0.762712 0.569491,-1.271187 1.271186,-1.271187 z"
         style="opacity:0.647;fill:#454545;fill-opacity:1;stroke-width:1.27119" />
      <path
         inkscape:connector-curvature="0"
         id="path14"
         d="M 16.542373,6.0245765 V 7.295763 h 1.271186 V 6.0245765 Z m 0,1.2711865 h -1.271186 v 1.2711864 h 1.271186 z m 0,1.2711864 V 9.838136 h 1.271186 V 8.5669494 Z m 0,1.2711866 h -1.271186 v 1.271187 h 1.271186 z m 0,1.271187 v 1.271186 c 0.701695,0 1.271186,-0.635593 1.271186,-1.271186 z m 0,1.271186 C 15.137712,12.380509 14,13.524577 14,14.922882 v 5.084745 c 0,1.398305 1.137712,2.542373 2.542373,2.542373 1.404661,0 2.542373,-1.144068 2.542373,-2.542373 v -5.084745 c 0,-1.398305 -1.137712,-2.542373 -2.542373,-2.542373 z m 0,1.271187 c 0.701695,0 1.271186,0.508474 1.271186,1.271186 0,0.635593 -0.569491,1.271187 -1.271186,1.271187 -0.701695,0 -1.271186,-0.635594 -1.271186,-1.271187 0,-0.762712 0.569491,-1.271186 1.271186,-1.271186 z m 0,3.813559 c 0.701695,0 1.271186,0.508475 1.271186,1.271187 v 1.271186 c 0,0.635593 -0.569491,1.271186 -1.271186,1.271186 -0.701695,0 -1.271186,-0.635593 -1.271186,-1.271186 v -1.271186 c 0,-0.762712 0.569491,-1.271187 1.271186,-1.271187 z"
         style="opacity:1;fill:#dadfe1;fill-opacity:1;stroke-width:1.27119" />
    </g>
  </g>
</svg>
