<?xml version="1.0" encoding="UTF-8" standalone="no"?>
<svg
   xmlns:dc="http://purl.org/dc/elements/1.1/"
   xmlns:cc="http://creativecommons.org/ns#"
   xmlns:rdf="http://www.w3.org/1999/02/22-rdf-syntax-ns#"
   xmlns:svg="http://www.w3.org/2000/svg"
   xmlns="http://www.w3.org/2000/svg"
   xmlns:xlink="http://www.w3.org/1999/xlink"
   xmlns:sodipodi="http://sodipodi.sourceforge.net/DTD/sodipodi-0.dtd"
   xmlns:inkscape="http://www.inkscape.org/namespaces/inkscape"
   inkscape:version="1.0 (4035a4fb49, 2020-05-01)"
   sodipodi:docname="folder-development.svg"
   id="svg14"
   version="1"
   height="32"
   width="32">
  <metadata
     id="metadata20">
    <rdf:RDF>
      <cc:Work
         rdf:about="">
        <dc:format>image/svg+xml</dc:format>
        <dc:type
           rdf:resource="http://purl.org/dc/dcmitype/StillImage" />
        <dc:title />
      </cc:Work>
    </rdf:RDF>
  </metadata>
  <defs
     id="defs18">
    <linearGradient
       inkscape:collect="always"
       id="linearGradient990">
      <stop
         style="stop-color:#4f4f4f;stop-opacity:1"
         offset="0"
         id="stop986" />
      <stop
         style="stop-color:#828282;stop-opacity:1"
         offset="1"
         id="stop988" />
    </linearGradient>
    <linearGradient
       id="linearGradient889"
       inkscape:collect="always">
      <stop
         id="stop885"
         offset="0"
         style="stop-color:#8998ad;stop-opacity:1" />
      <stop
         id="stop887"
         offset="1"
         style="stop-color:#dadfe1;stop-opacity:1" />
    </linearGradient>
    <linearGradient
       gradientTransform="matrix(1.8471453,0,0,1.9122993,26.881076,-14.456689)"
       gradientUnits="userSpaceOnUse"
       y2="10.717914"
       x2="-5.5973864"
       y1="22.200636"
       x1="-5.667089"
       id="linearGradient975"
       xlink:href="#linearGradient990"
       inkscape:collect="always" />
    <linearGradient
       gradientTransform="matrix(1.2272405,0,0,1.5527586,46.26793,-6.9461714)"
       gradientUnits="userSpaceOnUse"
       y2="7.4576306"
       x2="-13.152548"
       y1="21.288134"
       x1="-34.169491"
       id="linearGradient891-3-3"
       xlink:href="#linearGradient889"
       inkscape:collect="always" />
  </defs>
  <sodipodi:namedview
     inkscape:document-rotation="0"
     inkscape:snap-global="true"
     inkscape:guide-bbox="true"
     showguides="true"
     inkscape:current-layer="g833"
     inkscape:window-maximized="1"
     inkscape:window-y="26"
     inkscape:window-x="0"
     inkscape:cy="16"
     inkscape:cx="16"
     inkscape:zoom="26.78125"
     showgrid="false"
     id="namedview16"
     inkscape:window-height="1028"
     inkscape:window-width="1920"
     inkscape:pageshadow="2"
     inkscape:pageopacity="0"
     guidetolerance="10"
     gridtolerance="10"
     objecttolerance="10"
     borderopacity="1"
     bordercolor="#666666"
     pagecolor="#ffffff" />
  <g
     transform="translate(9.9970075e-4,8.2899925e-4)"
     id="g833">
    <path
       id="path25-2"
       style="opacity:1;fill:#4f4f4f;fill-opacity:1;stroke:#828282;stroke-width:0.1;stroke-miterlimit:4;stroke-dasharray:none;stroke-opacity:1"
       d="m 19.993088,2.1391705 c -2.39087,0 -3.166896,1.9512996 -4.394979,3.8999983 H 4.13978 c -1.7391529,0 -3.1392677,1.4495 -3.1392677,3.2499997 v 1.3000005 11.049997 1.949998 1.137501 0.162507 c 0.0076,0.180693 0.0452,0.3562 0.079111,0.527801 0.1494339,0.898298 0.644175,1.665299 1.3737426,2.152797 0.3478302,0.232701 0.7496567,0.401702 1.1778524,0.487501 0.2134674,0.04549 0.4005666,0.0819 0.62785,0.0819 H 27.882695 c 0.227284,0 0.414383,-0.0351 0.627854,-0.0819 0.42694,-0.0858 0.828767,-0.2548 1.176599,-0.487501 0.729564,-0.487498 1.223057,-1.254499 1.373741,-2.152797 0.0339,-0.171592 0.07032,-0.348401 0.07911,-0.527801 V 24.726665 23.589164 5.5516683 c 0,-1.9005998 -1.442807,-3.4124978 -3.257305,-3.4124978 H 19.9956 Z"
       inkscape:connector-curvature="0" />
    <rect
       ry="1.7347755"
       inkscape:transform-center-y="-6.389833"
       inkscape:transform-center-x="4.5837926"
       transform="matrix(0.99999999,1.0483019e-4,-6.5484411e-5,1,0,0)"
       y="4.6337156"
       x="4.4335961"
       height="21.475441"
       width="25.79285"
       id="rect883-5-5-3"
       style="opacity:0.647;vector-effect:none;fill:#454545;fill-opacity:1;fill-rule:nonzero;stroke:none;stroke-width:0.200383;stroke-linecap:butt;stroke-linejoin:miter;stroke-miterlimit:4;stroke-dasharray:none;stroke-dashoffset:0;stroke-opacity:1;paint-order:markers stroke fill" />
    <rect
       ry="1.7347755"
       inkscape:transform-center-y="-6.389833"
       inkscape:transform-center-x="4.5837926"
       transform="matrix(0.99999999,1.0483019e-4,-6.5484411e-5,1,0,0)"
       y="4.6337266"
       x="4.333746"
       height="21.475441"
       width="25.79285"
       id="rect883-5-5"
       style="opacity:1;vector-effect:none;fill:url(#linearGradient891-3-3);fill-opacity:1;fill-rule:nonzero;stroke:none;stroke-width:0.200383;stroke-linecap:butt;stroke-linejoin:miter;stroke-miterlimit:4;stroke-dasharray:none;stroke-dashoffset:0;stroke-opacity:1;paint-order:markers stroke fill" />
    <path
       id="path25"
       style="opacity:1;fill:url(#linearGradient975);fill-opacity:1;stroke:#828282;stroke-width:0.1;stroke-miterlimit:4;stroke-dasharray:none;stroke-opacity:1"
       d="m 12.146913,2.1391705 c 2.39087,0 3.166896,1.9512996 4.394979,3.8999983 h 11.458327 c 1.739153,0 3.139268,1.4495 3.139268,3.2499997 v 1.3000005 11.049995 1.949998 1.137501 0.162507 c -0.0076,0.180693 -0.0452,0.3562 -0.07911,0.527801 -0.149434,0.898298 -0.644177,1.665299 -1.373744,2.152797 -0.34783,0.232701 -0.749656,0.401702 -1.177853,0.487501 -0.213466,0.04549 -0.400565,0.0819 -0.62785,0.0819 H 4.2573048 c -0.2272835,0 -0.4143826,-0.03509 -0.627854,-0.0819 -0.4269397,-0.0858 -0.8287662,-0.2548 -1.1765984,-0.487501 C 1.7232878,27.08227 1.2297947,26.315269 1.0791108,25.416971 1.0452205,25.24538 1.0087903,25.06857 1.0000003,24.88917 V 24.726663 23.589162 5.5516683 c 0,-1.9005998 1.442807,-3.4124978 3.2573045,-3.4124978 h 7.8870962 z"
       inkscape:connector-curvature="0" />
    <g
       id="g830"
       transform="matrix(0.91050934,0,0,0.91050934,1.3606221,1.0974107)">
      <path
         inkscape:connector-curvature="0"
         id="path997-3"
         d="m 20.734637,10.9328 -0.11702,0.07064 c -0.06424,0.03866 -0.180581,0.105421 -0.258099,0.149252 -0.07752,0.04382 -0.175113,0.101212 -0.217636,0.126465 -0.04252,0.02525 -0.137853,0.07991 -0.212166,0.121908 -0.0743,0.04199 -0.203801,0.118314 -0.287627,0.169761 -0.08383,0.05144 -0.159589,0.09342 -0.167328,0.09342 -0.01731,0 -0.03476,0.03049 -0.147642,0.249513 -0.0491,0.09528 -0.104904,0.20239 -0.124675,0.238119 -0.01979,0.03573 -0.08559,0.162315 -0.145453,0.281414 l -0.108272,0.216472 -1.43814,1.499354 c -0.790578,0.824763 -1.442233,1.499804 -1.447981,1.499355 -0.0058,-4.35e-4 -0.07114,-0.06056 -0.145454,-0.133301 -0.164603,-0.161145 -0.263821,-0.212168 -0.415584,-0.211915 -0.179886,2.98e-4 -0.307439,0.06967 -0.500888,0.270021 l -0.167328,0.172037 0.01423,0.121908 c 0.02624,0.235613 -0.04917,0.476802 -0.205604,0.66195 -0.156782,0.18555 -0.352947,0.270108 -0.627751,0.27002 -0.182533,-6.5e-5 -0.190664,0.0015 -0.262474,0.06836 -0.04076,0.03801 -0.67493,0.688386 -1.409704,1.444666 -1.225627,1.261503 -1.341155,1.385882 -1.395488,1.50961 -0.07072,0.161057 -0.0771,0.306622 -0.01969,0.443197 0.05545,0.131835 1.454927,1.580601 1.560628,1.615566 0.111423,0.03685 0.307793,0.01953 0.426521,-0.03759 0.105734,-0.05087 0.196513,-0.141995 2.2704,-2.284351 l 0.648529,-0.669925 -0.01203,-0.164063 c -0.02599,-0.355918 0.153906,-0.668905 0.481203,-0.836265 0.112752,-0.05766 0.144741,-0.06385 0.337935,-0.06494 l 0.214354,-0.0011 0.15311,-0.158366 c 0.204503,-0.211624 0.250977,-0.307667 0.250443,-0.519533 -6.15e-4,-0.199851 -0.03096,-0.267225 -0.200135,-0.43978 -0.06684,-0.06818 -0.121396,-0.130876 -0.121395,-0.140138 0,-0.0093 0.651667,-0.696041 1.449076,-1.525558 l 1.450169,-1.508468 0.22857,-0.123048 c 0.660902,-0.357775 0.677922,-0.368749 0.725085,-0.463707 0.03937,-0.07927 0.157112,-0.303458 0.200138,-0.380535 0.01994,-0.03573 0.08178,-0.152577 0.136705,-0.259767 0.05491,-0.107189 0.137215,-0.262986 0.183732,-0.346355 0.04651,-0.08337 0.09833,-0.179756 0.114831,-0.213053 l 0.02953,-0.06039 -0.359808,-0.374838 z m -7.587689,0.09798 c -0.109546,-0.0077 -0.209188,-0.006 -0.300751,0.0057 -0.225864,0.02903 -0.48339,0.08505 -0.48339,0.104817 0,0.0083 0.272532,0.29727 0.604784,0.642582 0.332256,0.34531 0.612203,0.643128 0.622282,0.661949 0.0114,0.02131 0.0083,0.05395 -0.0077,0.0866 -0.0141,0.02882 -0.04681,0.105395 -0.07327,0.170899 -0.02647,0.0655 -0.06089,0.148842 -0.07656,0.184571 -0.01567,0.03573 -0.07968,0.189956 -0.141079,0.342938 l -0.111523,0.277974 -0.360903,0.161785 c -0.198975,0.08857 -0.408728,0.183034 -0.465891,0.210775 -0.05716,0.02775 -0.123526,0.05627 -0.146547,0.06379 -0.03423,0.01119 -0.155301,-0.104604 -0.664936,-0.635745 -0.342695,-0.357208 -0.628116,-0.649416 -0.634268,-0.649416 -0.01519,0 -0.05462,0.153668 -0.0842,0.324708 -0.031,0.17909 -0.03068,0.607066 0.0011,0.772464 0.134252,0.696284 0.476252,1.217294 1.045522,1.595058 0.06595,0.04377 0.12387,0.07976 0.129049,0.07976 0.0052,0 0.05888,0.02437 0.119208,0.05355 0.265309,0.128301 0.617394,0.20622 0.926315,0.20622 0.152518,0 0.478418,-0.04911 0.638686,-0.09685 0.03296,-0.0098 0.112123,0.06128 0.383869,0.345217 0.188503,0.196959 0.354344,0.357748 0.367464,0.357748 0.01311,0 0.03929,-0.03306 0.05797,-0.07405 0.06609,-0.145094 0.0724,-0.301363 0.02297,-0.520672 -0.01385,-0.06143 -7.9e-4,-0.0801 0.220917,-0.3042 0.261629,-0.264463 0.411618,-0.358423 0.6365,-0.399904 0.20712,-0.0382 0.442326,0.02455 0.617907,0.164064 0.07109,0.05648 0.0751,0.05682 0.114832,0.01937 0.02262,-0.02132 0.04056,-0.04962 0.04046,-0.06267 -1.05e-4,-0.01304 -0.170956,-0.199664 -0.379493,-0.415855 -0.208541,-0.216191 -0.428342,-0.445828 -0.488858,-0.510419 l -0.110459,-0.118488 0.02406,-0.105959 c 0.121258,-0.539628 0.108139,-0.866371 -0.05797,-1.426438 -0.03051,-0.102905 -0.176552,-0.38349 -0.27669,-0.530925 -0.320806,-0.472329 -0.825197,-0.819147 -1.349554,-0.928552 -0.130947,-0.02731 -0.250262,-0.04475 -0.359811,-0.05241 z m 4.294733,5.419778 -0.04484,0.05014 c -0.02481,0.02749 -0.04484,0.05574 -0.04484,0.06379 0,0.0081 0.03227,0.05946 0.07218,0.113934 0.105381,0.143821 0.143456,0.301541 0.12905,0.533204 -0.01934,0.310913 -0.103196,0.44747 -0.547915,0.889814 l -0.08203,0.08203 -0.13233,-0.03532 c -0.179539,-0.04792 -0.353437,-0.01665 -0.47464,0.08431 -0.02116,0.01763 0.195014,0.253771 0.94928,1.041344 l 0.975529,1.019698 0.01423,0.160644 c 0.0329,0.37369 0.237451,0.746778 0.538072,0.98324 0.178116,0.140101 0.326949,0.214723 0.522761,0.260906 0.08003,0.01887 0.164149,0.03881 0.187013,0.04443 0.08198,0.02014 0.401433,-0.01054 0.542446,-0.05241 0.621791,-0.184585 1.029649,-0.745077 1.031306,-1.416183 0.0019,-0.768342 -0.530207,-1.394575 -1.25769,-1.479986 l -0.14108,-0.01595 -1.118796,-1.164392 z m 2.227748,3.128591 c 0.134524,0 0.184675,0.0093 0.263569,0.05126 0.125834,0.06701 0.229027,0.17957 0.298563,0.324708 0.04874,0.101731 0.05386,0.135817 0.04703,0.281414 -0.0057,0.121389 -0.02154,0.193894 -0.05906,0.271159 -0.06553,0.134884 -0.213924,0.27386 -0.344498,0.322431 -0.104246,0.03878 -0.289332,0.04681 -0.382773,0.01709 -0.434534,-0.138199 -0.593811,-0.666404 -0.312782,-1.036788 0.121062,-0.15955 0.27348,-0.231282 0.489951,-0.231282 z"
         style="opacity:0.647;fill:#454545;fill-opacity:1;stroke-width:0.0212158" />
      <path
         inkscape:connector-curvature="0"
         id="path997"
         d="m 20.634637,10.8328 -0.11702,0.07064 c -0.06424,0.03866 -0.180581,0.105421 -0.258099,0.149252 -0.07752,0.04382 -0.175113,0.101212 -0.217636,0.126465 -0.04252,0.02525 -0.137853,0.07991 -0.212166,0.121908 -0.0743,0.04199 -0.203801,0.118314 -0.287627,0.169761 -0.08383,0.05144 -0.159589,0.09342 -0.167328,0.09342 -0.01731,0 -0.03476,0.03049 -0.147642,0.249513 -0.0491,0.09528 -0.104904,0.20239 -0.124675,0.238119 -0.01979,0.03573 -0.08559,0.162315 -0.145453,0.281414 l -0.108272,0.216472 -1.43814,1.499354 c -0.790578,0.824763 -1.442233,1.499804 -1.447981,1.499355 -0.0058,-4.35e-4 -0.07114,-0.06056 -0.145454,-0.133301 -0.164603,-0.161145 -0.263821,-0.212168 -0.415584,-0.211915 -0.179886,2.98e-4 -0.307439,0.06967 -0.500888,0.270021 l -0.167328,0.172037 0.01423,0.121908 c 0.02624,0.235613 -0.04917,0.476802 -0.205604,0.66195 -0.156782,0.18555 -0.352947,0.270108 -0.627751,0.27002 -0.182533,-6.5e-5 -0.190664,0.0015 -0.262474,0.06836 -0.04076,0.03801 -0.67493,0.688386 -1.409704,1.444666 -1.225627,1.261503 -1.341155,1.385882 -1.395488,1.50961 -0.07072,0.161057 -0.0771,0.306622 -0.01969,0.443197 0.05545,0.131835 1.454927,1.580601 1.560628,1.615566 0.111423,0.03685 0.307793,0.01953 0.426521,-0.03759 0.105734,-0.05087 0.196513,-0.141995 2.2704,-2.284351 l 0.648529,-0.669925 -0.01203,-0.164063 c -0.02599,-0.355918 0.153906,-0.668905 0.481203,-0.836265 0.112752,-0.05766 0.144741,-0.06385 0.337935,-0.06494 l 0.214354,-0.0011 0.15311,-0.158366 c 0.204503,-0.211624 0.250977,-0.307667 0.250443,-0.519533 -6.15e-4,-0.199851 -0.03096,-0.267225 -0.200135,-0.43978 -0.06684,-0.06818 -0.121396,-0.130876 -0.121395,-0.140138 0,-0.0093 0.651667,-0.696041 1.449076,-1.525558 l 1.450169,-1.508468 0.22857,-0.123048 c 0.660902,-0.357775 0.677922,-0.368749 0.725085,-0.463707 0.03937,-0.07927 0.157112,-0.303458 0.200138,-0.380535 0.01994,-0.03573 0.08178,-0.152577 0.136705,-0.259767 0.05491,-0.107189 0.137215,-0.262986 0.183732,-0.346355 0.04651,-0.08337 0.09833,-0.179756 0.114831,-0.213053 l 0.02953,-0.06039 -0.359808,-0.374838 z m -7.587689,0.09798 c -0.109546,-0.0077 -0.209188,-0.006 -0.300751,0.0057 -0.225864,0.02903 -0.48339,0.08505 -0.48339,0.104817 0,0.0083 0.272532,0.29727 0.604784,0.642582 0.332256,0.34531 0.612203,0.643128 0.622282,0.661949 0.0114,0.02131 0.0083,0.05395 -0.0077,0.0866 -0.0141,0.02882 -0.04681,0.105395 -0.07327,0.170899 -0.02647,0.0655 -0.06089,0.148842 -0.07656,0.184571 -0.01567,0.03573 -0.07968,0.189956 -0.141079,0.342938 l -0.111523,0.277974 -0.360903,0.161785 c -0.198975,0.08857 -0.408728,0.183034 -0.465891,0.210775 -0.05716,0.02775 -0.123526,0.05627 -0.146547,0.06379 -0.03423,0.01119 -0.155301,-0.104604 -0.664936,-0.635745 -0.342695,-0.357208 -0.628116,-0.649416 -0.634268,-0.649416 -0.01519,0 -0.05462,0.153668 -0.0842,0.324708 -0.031,0.17909 -0.03068,0.607066 0.0011,0.772464 0.134252,0.696284 0.476252,1.217294 1.045522,1.595058 0.06595,0.04377 0.12387,0.07976 0.129049,0.07976 0.0052,0 0.05888,0.02437 0.119208,0.05355 0.265309,0.128301 0.617394,0.20622 0.926315,0.20622 0.152518,0 0.478418,-0.04911 0.638686,-0.09685 0.03296,-0.0098 0.112123,0.06128 0.383869,0.345217 0.188503,0.196959 0.354344,0.357748 0.367464,0.357748 0.01311,0 0.03929,-0.03306 0.05797,-0.07405 0.06609,-0.145094 0.0724,-0.301363 0.02297,-0.520672 -0.01385,-0.06143 -7.9e-4,-0.0801 0.220917,-0.3042 0.261629,-0.264463 0.411618,-0.358423 0.6365,-0.399904 0.20712,-0.0382 0.442326,0.02455 0.617907,0.164064 0.07109,0.05648 0.0751,0.05682 0.114832,0.01937 0.02262,-0.02132 0.04056,-0.04962 0.04046,-0.06267 -1.05e-4,-0.01304 -0.170956,-0.199664 -0.379493,-0.415855 -0.208541,-0.216191 -0.428342,-0.445828 -0.488858,-0.510419 l -0.110459,-0.118488 0.02406,-0.105959 c 0.121258,-0.539628 0.108139,-0.866371 -0.05797,-1.426438 -0.03051,-0.102905 -0.176552,-0.38349 -0.27669,-0.530925 -0.320806,-0.472329 -0.825197,-0.819147 -1.349554,-0.928552 -0.130947,-0.02731 -0.250262,-0.04475 -0.359811,-0.05241 z m 4.294733,5.419778 -0.04484,0.05014 c -0.02481,0.02749 -0.04484,0.05574 -0.04484,0.06379 0,0.0081 0.03227,0.05946 0.07218,0.113934 0.105381,0.143821 0.143456,0.301541 0.12905,0.533204 -0.01934,0.310913 -0.103196,0.44747 -0.547915,0.889814 l -0.08203,0.08203 -0.13233,-0.03532 c -0.179539,-0.04792 -0.353437,-0.01665 -0.47464,0.08431 -0.02116,0.01763 0.195014,0.253771 0.94928,1.041344 l 0.975529,1.019698 0.01423,0.160644 c 0.0329,0.37369 0.237451,0.746778 0.538072,0.98324 0.178116,0.140101 0.326949,0.214723 0.522761,0.260906 0.08003,0.01887 0.164149,0.03881 0.187013,0.04443 0.08198,0.02014 0.401433,-0.01054 0.542446,-0.05241 0.621791,-0.184585 1.029648,-0.745077 1.031305,-1.416183 0.0019,-0.768342 -0.530206,-1.394575 -1.257689,-1.479986 l -0.14108,-0.01595 -1.118796,-1.164392 z m 2.227748,3.128591 c 0.134524,0 0.184675,0.0093 0.263569,0.05126 0.125834,0.06701 0.229027,0.17957 0.298563,0.324708 0.04874,0.101731 0.05386,0.135817 0.04703,0.281414 -0.0057,0.121389 -0.02154,0.193894 -0.05906,0.271159 -0.06553,0.134884 -0.213924,0.27386 -0.344498,0.322431 -0.104246,0.03878 -0.289332,0.04681 -0.382773,0.01709 -0.434534,-0.138199 -0.593811,-0.666404 -0.312782,-1.036788 0.121062,-0.15955 0.27348,-0.231282 0.489951,-0.231282 z"
         style="fill:#dadfe1;fill-opacity:1;stroke-width:0.0212158" />
    </g>
  </g>
</svg>
