<svg xmlns="http://www.w3.org/2000/svg" xmlns:xlink="http://www.w3.org/1999/xlink" version="1" height="32" width="32"><defs><linearGradient id="a"><stop offset="0" stop-color="#4f4f4f"/><stop offset="1" stop-color="#828282"/></linearGradient><linearGradient id="b"><stop offset="0" stop-color="#8998ad"/><stop offset="1" stop-color="#dadfe1"/></linearGradient><linearGradient gradientTransform="matrix(1.84715 0 0 1.9123 26.881 -14.4)" gradientUnits="userSpaceOnUse" y2="10.718" x2="-5.597" y1="22.201" x1="-5.667" id="d" xlink:href="#a"/><linearGradient gradientTransform="matrix(1.22724 0 0 1.55276 46.268 -6.946)" gradientUnits="userSpaceOnUse" y2="7.458" x2="-13.153" y1="21.288" x1="-34.169" id="c" xlink:href="#b"/></defs><g transform="translate(.001 -.056)"><path d="M19.993 2.14c-2.39 0-3.167 1.95-4.395 3.9H4.14C2.4 6.04 1 7.488 1 9.29V24.888c.008.18.046.356.08.528a3.195 3.195 0 0 0 2.551 2.64c.214.046.4.082.628.082h23.624c.227 0 .414-.035.628-.082a3.199 3.199 0 0 0 2.55-2.64c.034-.172.07-.348.079-.528V5.552c0-1.9-1.443-3.413-3.257-3.413h-7.887z" fill="#4f4f4f" stroke="#828282" stroke-width=".1"/><rect ry="1.735" transform="rotate(.008) skewX(.002)" y="4.634" x="4.434" height="21.475" width="25.793" opacity=".647" fill="#454545" paint-order="markers stroke fill"/><rect ry="1.735" transform="rotate(.008) skewX(.002)" y="4.634" x="4.334" height="21.475" width="25.793" fill="url(#c)" paint-order="markers stroke fill"/><path d="M12.147 2.196c2.39 0 3.167 1.951 4.395 3.9H28c1.74 0 3.14 1.45 3.14 3.25V24.946c-.008.18-.046.356-.08.528a3.195 3.195 0 0 1-2.551 2.64c-.214.046-.4.082-.628.082H4.257c-.227 0-.414-.035-.628-.082a3.199 3.199 0 0 1-2.55-2.64c-.034-.172-.07-.348-.079-.528V5.61c0-1.901 1.443-3.413 3.257-3.413h7.887z" fill="url(#d)" stroke="#828282" stroke-width=".1"/><path d="M14.216 17.01a2.456 2.456 0 0 0-1.222-.317c-1.344 0-2.443 1.057-2.443 2.35 0 1.291 1.1 2.348 2.443 2.348 1.344 0 2.444-1.057 2.444-2.349V13.17h4.887v3.84a2.456 2.456 0 0 0-1.221-.317c-1.344 0-2.444 1.057-2.444 2.35 0 1.291 1.1 2.348 2.444 2.348 1.344 0 2.443-1.057 2.443-2.349v-8.221h-7.33" opacity=".647" fill="#454545"/><path d="M14.116 16.91a2.456 2.456 0 0 0-1.222-.317c-1.344 0-2.443 1.057-2.443 2.35 0 1.291 1.1 2.348 2.443 2.348 1.344 0 2.444-1.057 2.444-2.349V13.07h4.887v3.84a2.456 2.456 0 0 0-1.221-.317c-1.344 0-2.444 1.057-2.444 2.35 0 1.291 1.1 2.348 2.444 2.348 1.344 0 2.443-1.057 2.443-2.349v-8.221h-7.33" fill="#dadfe1"/></g></svg>