<svg xmlns="http://www.w3.org/2000/svg" xmlns:xlink="http://www.w3.org/1999/xlink" version="1" height="32" width="32"><defs><linearGradient id="a"><stop offset="0" stop-color="#4f4f4f"/><stop offset="1" stop-color="#828282"/></linearGradient><linearGradient id="b"><stop offset="0" stop-color="#8998ad"/><stop offset="1" stop-color="#dadfe1"/></linearGradient><linearGradient gradientTransform="matrix(1.84713 0 0 1.84713 -1.697 -28.434)" gradientUnits="userSpaceOnUse" y2="10.718" x2="-5.597" y1="22.201" x1="-5.667" id="d" xlink:href="#a"/><linearGradient gradientTransform="matrix(1.22723 0 0 1.49985 17.688 -21.176)" gradientUnits="userSpaceOnUse" y2="7.458" x2="-13.153" y1="21.288" x1="-34.169" id="c" xlink:href="#b"/></defs><g transform="matrix(1 0 0 1.03528 28.578 14.98)"><path d="M-8.585-12.404c-2.391 0-3.167 1.885-4.395 3.768H-24.44c-1.739 0-3.139 1.4-3.139 3.139V9.57c.008.175.045.344.08.51.149.868.643 1.609 1.373 2.08.348.224.75.387 1.178.47.213.044.4.08.628.08H-.696c.228 0 .415-.034.628-.08a3.352 3.352 0 0 0 1.177-.47 3.082 3.082 0 0 0 1.373-2.08c.034-.166.07-.336.08-.51V-9.107c0-1.836-1.443-3.297-3.258-3.297h-7.887z" fill="#4f4f4f" stroke="#828282" stroke-width=".098"/><rect ry="1.676" transform="rotate(.008) skewX(.002)" y="-9.991" x="-24.146" height="20.744" width="25.793" opacity=".647" fill="#454545" paint-order="markers stroke fill"/><rect ry="1.676" transform="rotate(.008) skewX(.002)" y="-9.991" x="-24.246" height="20.744" width="25.793" fill="url(#c)" paint-order="markers stroke fill"/><path d="M-16.431-12.404c2.39 0 3.166 1.885 4.394 3.768H-.578c1.739 0 3.139 1.4 3.139 3.139V9.57c-.008.175-.045.344-.08.51a3.078 3.078 0 0 1-1.373 2.08c-.348.224-.75.387-1.178.47-.213.044-.4.08-.628.08H-24.32c-.227 0-.414-.034-.628-.08a3.352 3.352 0 0 1-1.176-.47 3.082 3.082 0 0 1-1.374-2.08c-.034-.166-.07-.336-.08-.51V-9.107c0-1.836 1.444-3.297 3.258-3.297h7.887z" fill="url(#d)" stroke="#828282" stroke-width=".098"/><path d="M-13.52-4.28s.577.342.17 1.238c-.616 1.351.568 1.66.568 1.66s-.376-.316.125-1.431c.554-1.236-.863-1.466-.863-1.466zm1.592 1.863s-1.05.45-.373 1.679c.446.814-.05 1.219-.05 1.219s1.268-.404.657-1.528c-.55-1.017-.234-1.37-.234-1.37zm-3.264.07s-.751.771-.008 1.72c.492.632.17 1.177.17 1.177s.93-.797.258-1.67c-.608-.786-.42-1.227-.42-1.227zM-15.03.55h-2.498l1.5 5.796h5.5l.34-.95c.166.039.338.067.517.067 1.184 0 2.143-.734 2.143-1.877 0-.97-.693-1.777-1.625-2.002L-8.956.55zm5.705 1.7a.713 1.383 15.863 0 1 .024.004.713 1.383 15.863 0 1 .32 1.51.713 1.383 15.863 0 1-1.035 1.16z" opacity=".647" fill="#454545"/><path d="M-13.62-4.376s.577.341.17 1.237c-.616 1.352.568 1.66.568 1.66s-.376-.316.125-1.43c.554-1.237-.863-1.467-.863-1.467zm1.592 1.862s-1.05.45-.373 1.68c.446.813-.05 1.218-.05 1.218s1.268-.404.657-1.528c-.55-1.017-.234-1.37-.234-1.37zm-3.264.07s-.751.772-.008 1.72c.492.632.17 1.178.17 1.178s.93-.797.258-1.67c-.608-.787-.42-1.228-.42-1.228zm.162 2.898h-2.498l1.5 5.795h5.5l.34-.95c.166.04.338.067.517.067 1.184 0 2.143-.734 2.143-1.876 0-.971-.693-1.778-1.625-2.003l.197-1.033zm5.705 1.7a.713 1.383 15.863 0 1 .024.004.713 1.383 15.863 0 1 .32 1.51.713 1.383 15.863 0 1-1.035 1.158z" fill="#dadfe1"/></g></svg>