<svg xmlns="http://www.w3.org/2000/svg" xmlns:xlink="http://www.w3.org/1999/xlink" version="1" height="32" width="32"><defs><linearGradient id="a"><stop offset="0" stop-color="#4f4f4f"/><stop offset="1" stop-color="#828282"/></linearGradient><linearGradient id="c"><stop offset="0" stop-color="#4f4f4f"/><stop offset="1" stop-color="#bfbebe"/></linearGradient><linearGradient id="b"><stop offset="0" stop-color="#8998ad"/><stop offset="1" stop-color="#dadfe1"/></linearGradient><linearGradient gradientTransform="matrix(1.84715 0 0 1.9123 26.881 -14.457)" gradientUnits="userSpaceOnUse" y2="10.718" x2="-5.597" y1="22.201" x1="-5.667" id="e" xlink:href="#a"/><linearGradient gradientTransform="matrix(1.22724 0 0 1.55276 46.268 -6.946)" gradientUnits="userSpaceOnUse" y2="7.458" x2="-13.153" y1="21.288" x1="-34.169" id="d" xlink:href="#b"/><linearGradient gradientTransform="matrix(1 0 0 1.04191 -27.39 -9.884)" gradientUnits="userSpaceOnUse" y2="13.453" x2="15.244" y1="22.887" x1="15.26" id="f" xlink:href="#c"/></defs><g transform="translate(.001)"><path d="M19.993 2.14c-2.39 0-3.167 1.95-4.395 3.9H4.14C2.4 6.04 1 7.488 1 9.29V24.888c.008.18.046.356.08.528a3.195 3.195 0 0 0 2.551 2.64c.214.046.4.082.628.082h23.624c.227 0 .414-.035.628-.082a3.199 3.199 0 0 0 2.55-2.64c.034-.172.07-.348.079-.528V5.552c0-1.9-1.443-3.413-3.257-3.413h-7.887z" fill="#4f4f4f" stroke="#828282" stroke-width=".1"/><rect ry="1.735" transform="rotate(.008) skewX(.002)" y="4.634" x="4.434" height="21.475" width="25.793" opacity=".647" fill="#454545" paint-order="markers stroke fill"/><rect ry="1.735" transform="rotate(.008) skewX(.002)" y="4.634" x="4.334" height="21.475" width="25.793" fill="url(#d)" paint-order="markers stroke fill"/><path d="M12.147 2.14c2.39 0 3.167 1.95 4.395 3.9H28c1.74 0 3.14 1.449 3.14 3.25V24.888c-.008.18-.046.356-.08.528a3.195 3.195 0 0 1-2.551 2.64c-.214.046-.4.082-.628.082H4.257c-.227 0-.414-.035-.628-.082a3.199 3.199 0 0 1-2.55-2.64c-.034-.172-.07-.348-.079-.528V5.552c0-1.9 1.443-3.413 3.257-3.413h7.887z" fill="url(#e)" stroke="#828282" stroke-width=".1"/><g fill="#454545" transform="translate(-1.056 -.107)"><ellipse ry="2.344" rx="2.25" cy="15.375" cx="19.106" opacity=".647" stroke="#4f4f4f" stroke-width=".51" stroke-linecap="round" stroke-linejoin="round"/><ellipse ry="1.302" rx="1.25" cy="19.542" cx="23.606" opacity=".647" stroke="#4f4f4f" stroke-width=".51" stroke-linecap="round" stroke-linejoin="round"/><ellipse ry="2.605" rx="2.5" cy="18.24" cx="20.856" opacity=".647" stroke="#4f4f4f" stroke-width=".51" stroke-linecap="round" stroke-linejoin="round"/><ellipse ry="2.344" rx="2.25" cy="18.5" cx="11.606" opacity=".647" stroke="#4f4f4f" stroke-width=".51" stroke-linecap="round" stroke-linejoin="round"/><ellipse ry="1.563" rx="1.5" cy="13.551" cx="13.856" opacity=".647" stroke="#4f4f4f" stroke-width=".51" stroke-linecap="round" stroke-linejoin="round"/><ellipse ry="2.865" rx="2.75" cy="16.417" cx="14.106" opacity=".647" stroke="#4f4f4f" stroke-width=".51" stroke-linecap="round" stroke-linejoin="round"/><ellipse ry="1.302" rx="1.25" cy="19.542" cx="13.856" opacity=".647" stroke="#4f4f4f" stroke-width=".51" stroke-linecap="round" stroke-linejoin="round"/><ellipse ry="2.605" rx="2.5" cy="14.072" cx="16.356" opacity=".647" stroke="#4f4f4f" stroke-width=".51" stroke-linecap="round" stroke-linejoin="round"/><ellipse ry="3.386" rx="3.25" cy="17.458" cx="17.106" opacity=".647" stroke="#4f4f4f" stroke-width=".51" stroke-linecap="round" stroke-linejoin="round"/><path d="M10.968 20.997c-.727-.205-1.28-.692-1.61-1.42-.173-.38-.185-.453-.185-1.083 0-.634.011-.702.19-1.094.304-.67.968-1.25 1.618-1.415.132-.034.175-.1.256-.391.141-.504.355-.914.649-1.241l.256-.286-.002-.467c-.003-.774.345-1.371.983-1.686.327-.162.927-.2 1.256-.08.162.058.212.045.436-.114.367-.26.9-.45 1.374-.488.943-.075 1.933.437 2.442 1.264l.185.3.485.027c.358.02.573.068.822.187.371.178.87.629 1.084.98.196.321.377.921.377 1.246 0 .192.025.279.08.279.192 0 .806.394 1.117.718.378.394.649.898.747 1.394l.065.326.324.076c1.179.275 1.567 1.866.654 2.68-.563.502-1.407.497-1.93-.01l-.15-.148-.324.183a2.671 2.671 0 0 1-2.812-.113l-.266-.18-.212.144c-.116.08-.424.22-.683.311-.386.136-.58.167-1.062.17-.674.003-1.087-.102-1.673-.424l-.377-.208-.104.138c-.058.076-.246.219-.42.317a1.425 1.425 0 0 1-1.389.022l-.303-.164-.349.147c-.48.202-1.06.24-1.55.103zm1.354-.542c.188-.078.238-.127.208-.203a1.857 1.857 0 0 1-.127-.883l.03-.354-.37-.37c-.521-.522-.915-1.359-.915-1.944 0-.245-.087-.26-.45-.077-.362.183-.722.583-.921 1.026-.16.353-.172.428-.15.921.027.631.164.982.542 1.388.243.26.653.506 1.001.6.264.07.862.017 1.152-.104zm1.878.063c.217-.094.486-.315.486-.4 0-.024-.12-.194-.265-.378a4.503 4.503 0 0 1-.472-.802l-.207-.466-.187.056c-.214.064-.492.318-.614.562a1.224 1.224 0 0 0-.083.448c0 .748.7 1.26 1.342.98zm3.644-.029c1.637-.436 2.61-2.182 2.158-3.878-.4-1.501-1.839-2.481-3.323-2.262-1.207.178-2.271 1.212-2.518 2.443-.338 1.69.7 3.364 2.315 3.73.515.117.838.109 1.368-.033zm3.457.055c1.133-.25 1.878-1.273 1.803-2.478a2.349 2.349 0 0 0-1.27-1.95c-.322-.165-.463-.2-.891-.217-.28-.012-.542.002-.582.03-.057.041-.046.133.049.415.367 1.089.113 2.473-.627 3.413-.144.183-.263.35-.263.369 0 .07.463.303.773.39.394.11.609.117 1.008.028zm2.881-.14c.399-.276.54-.867.321-1.347-.117-.259-.425-.498-.72-.562-.173-.037-.193-.026-.224.133-.095.488-.236.856-.467 1.214-.236.366-.248.404-.158.49.328.308.86.339 1.248.071zm-10.829-2.302l.29-.112-.012-.455c-.013-.493.14-1.23.337-1.632l.116-.234-.142-.291c-.18-.37-.318-.918-.318-1.265 0-.264-.004-.27-.162-.23-.302.078-.75.325-1.003.554-1.1 1-1.147 2.807-.099 3.84l.314.31.195-.187c.107-.102.325-.236.484-.298zm7.34-2.694l.434-.035-.035-.31c-.071-.623-.514-1.264-1.082-1.567-.213-.112-.946-.29-.994-.24-.012.011.005.208.036.437.03.229.042.477.024.551-.026.108.071.249.486.698.331.36.55.552.607.532.049-.017.284-.047.523-.066zm-5.172-1.17c.588-.309 1.037-.402 1.758-.366.418.021.734.074.969.161.191.072.362.116.378.1.062-.065-.119-.857-.262-1.15-.462-.95-1.615-1.479-2.59-1.189a2.444 2.444 0 0 0-1.514 1.36c-.178.405-.19 1.322-.024 1.76l.11.29.4-.385a4.16 4.16 0 0 1 .775-.582zm-2.177-.811l.338-.097.258-.536.258-.535-.154-.01c-.791-.045-1.313.363-1.447 1.132-.054.31-.01.36.217.242.105-.055.344-.143.53-.196z" opacity=".647" paint-order="markers stroke fill"/></g><g transform="translate(27.338 6.9)"><ellipse cx="-9.39" cy="8.269" rx="2.25" ry="2.344" fill="#dadfe1" stroke="#4f4f4f" stroke-width=".51" stroke-linecap="round" stroke-linejoin="round"/><ellipse cx="-4.89" cy="12.436" rx="1.25" ry="1.302" fill="#dadfe1" stroke="#4f4f4f" stroke-width=".51" stroke-linecap="round" stroke-linejoin="round"/><ellipse cx="-7.64" cy="11.134" rx="2.5" ry="2.605" fill="#dadfe1" stroke="#4f4f4f" stroke-width=".51" stroke-linecap="round" stroke-linejoin="round"/><ellipse cx="-16.89" cy="11.394" rx="2.25" ry="2.344" fill="#dadfe1" stroke="#4f4f4f" stroke-width=".51" stroke-linecap="round" stroke-linejoin="round"/><ellipse cx="-14.64" cy="6.445" rx="1.5" ry="1.563" fill="#dadfe1" stroke="#4f4f4f" stroke-width=".51" stroke-linecap="round" stroke-linejoin="round"/><ellipse cx="-14.39" cy="9.311" rx="2.75" ry="2.865" fill="#dadfe1" stroke="#4f4f4f" stroke-width=".51" stroke-linecap="round" stroke-linejoin="round"/><ellipse cx="-14.64" cy="12.436" rx="1.25" ry="1.302" fill="#dadfe1" stroke="#4f4f4f" stroke-width=".51" stroke-linecap="round" stroke-linejoin="round"/><ellipse cx="-12.14" cy="6.966" rx="2.5" ry="2.605" fill="#dadfe1" stroke="#4f4f4f" stroke-width=".51" stroke-linecap="round" stroke-linejoin="round"/><ellipse cx="-11.39" cy="10.353" rx="3.25" ry="3.386" fill="#dadfe1" stroke="#4f4f4f" stroke-width=".51" stroke-linecap="round" stroke-linejoin="round"/><path d="M-17.527 13.89c-.727-.204-1.28-.691-1.61-1.42-.173-.379-.186-.452-.186-1.082 0-.634.012-.702.19-1.094.305-.67.969-1.25 1.62-1.415.13-.034.174-.1.255-.391.14-.504.355-.914.649-1.241l.256-.286-.002-.467c-.003-.774.345-1.371.983-1.686.327-.162.927-.2 1.256-.08.162.058.212.045.436-.114.367-.26.9-.45 1.374-.488.943-.075 1.932.437 2.441 1.264l.186.3.485.027c.358.02.572.068.822.187.37.178.87.629 1.083.98.196.321.378.921.378 1.246 0 .192.024.279.079.279.193 0 .807.394 1.118.718.378.394.648.898.747 1.394l.065.326.324.076c1.179.275 1.567 1.866.654 2.68-.563.502-1.407.497-1.93-.01l-.15-.148-.324.183a2.671 2.671 0 0 1-2.812-.113l-.266-.18-.212.144c-.116.08-.424.22-.683.311-.386.136-.58.167-1.062.17-.674.003-1.088-.102-1.674-.424l-.376-.208-.105.139c-.057.076-.246.218-.419.316a1.425 1.425 0 0 1-1.389.022l-.303-.164-.349.147c-.481.202-1.06.24-1.55.103zm1.353-.541c.188-.078.239-.127.21-.203a1.857 1.857 0 0 1-.128-.883l.03-.354-.37-.37c-.521-.522-.915-1.359-.915-1.944 0-.245-.087-.26-.45-.077-.362.183-.722.583-.922 1.026-.159.353-.171.428-.15.921.027.631.165.982.543 1.388.243.26.653.506 1.001.6.263.07.862.017 1.151-.104zm1.879.063c.216-.094.485-.315.485-.4 0-.024-.119-.194-.264-.378a4.503 4.503 0 0 1-.472-.802l-.207-.466-.187.056c-.214.064-.492.318-.614.562a1.224 1.224 0 0 0-.083.448c0 .748.7 1.26 1.342.98zm3.644-.028c1.637-.437 2.61-2.183 2.158-3.879-.4-1.501-1.84-2.481-3.323-2.262-1.207.178-2.272 1.212-2.518 2.443-.338 1.69.7 3.364 2.315 3.73.515.117.837.109 1.368-.032zm3.457.055c1.133-.25 1.877-1.274 1.803-2.48A2.349 2.349 0 0 0-6.66 9.01c-.322-.165-.463-.2-.891-.217-.28-.012-.542.002-.582.03-.057.041-.046.133.049.415.367 1.089.113 2.473-.627 3.413-.145.183-.263.35-.263.369 0 .07.462.303.773.39.394.11.608.117 1.008.028zm2.88-.142c.4-.275.54-.866.322-1.346-.118-.259-.425-.498-.72-.562-.174-.037-.193-.025-.224.133-.095.488-.237.856-.467 1.215-.236.365-.248.403-.158.488.328.31.86.34 1.248.072zm-10.828-2.3l.29-.113-.012-.455c-.013-.493.14-1.23.337-1.632l.115-.234-.141-.291c-.18-.37-.318-.918-.318-1.265 0-.264-.004-.27-.162-.23-.302.078-.75.325-1.003.554-1.1 1-1.147 2.807-.099 3.84l.313.31.196-.187c.107-.102.325-.236.484-.298zm7.339-2.695l.435-.035-.036-.31c-.07-.623-.513-1.264-1.082-1.567-.212-.112-.946-.29-.993-.24-.012.011.004.208.035.437.032.229.042.477.024.551-.026.108.072.249.487.698.33.36.55.552.607.532.048-.017.284-.047.523-.066zm-5.172-1.17c.59-.309 1.038-.402 1.759-.366.418.021.734.074.968.161.192.072.363.116.38.1.06-.065-.12-.857-.263-1.15-.462-.95-1.615-1.479-2.59-1.189a2.444 2.444 0 0 0-1.514 1.36c-.179.405-.191 1.322-.024 1.76l.11.29.4-.385a4.16 4.16 0 0 1 .774-.582zm-2.176-.811l.338-.097.258-.536.258-.535-.154-.01c-.792-.045-1.313.363-1.447 1.132-.054.31-.01.36.217.242.105-.055.343-.143.53-.196z" fill="url(#f)" paint-order="markers stroke fill"/></g></g></svg>