<?xml version="1.0" encoding="UTF-8" standalone="no"?>
<svg
   xmlns:dc="http://purl.org/dc/elements/1.1/"
   xmlns:cc="http://creativecommons.org/ns#"
   xmlns:rdf="http://www.w3.org/1999/02/22-rdf-syntax-ns#"
   xmlns:svg="http://www.w3.org/2000/svg"
   xmlns="http://www.w3.org/2000/svg"
   xmlns:xlink="http://www.w3.org/1999/xlink"
   xmlns:sodipodi="http://sodipodi.sourceforge.net/DTD/sodipodi-0.dtd"
   xmlns:inkscape="http://www.inkscape.org/namespaces/inkscape"
   width="32"
   height="32"
   version="1"
   id="svg14"
   sodipodi:docname="folder-dropbox.svg"
   inkscape:version="0.92.4 5da689c313, 2019-01-14">
  <metadata
     id="metadata20">
    <rdf:RDF>
      <cc:Work
         rdf:about="">
        <dc:format>image/svg+xml</dc:format>
        <dc:type
           rdf:resource="http://purl.org/dc/dcmitype/StillImage" />
        <dc:title />
      </cc:Work>
    </rdf:RDF>
  </metadata>
  <defs
     id="defs18">
    <linearGradient
       id="linearGradient990"
       inkscape:collect="always">
      <stop
         id="stop986"
         offset="0"
         style="stop-color:#4f4f4f;stop-opacity:1" />
      <stop
         id="stop988"
         offset="1"
         style="stop-color:#828282;stop-opacity:1" />
    </linearGradient>
    <linearGradient
       inkscape:collect="always"
       id="linearGradient889">
      <stop
         style="stop-color:#8998ad;stop-opacity:1"
         offset="0"
         id="stop885" />
      <stop
         style="stop-color:#dadfe1;stop-opacity:1"
         offset="1"
         id="stop887" />
    </linearGradient>
    <linearGradient
       inkscape:collect="always"
       xlink:href="#linearGradient990"
       id="linearGradient975"
       x1="-5.667089"
       y1="22.200636"
       x2="-5.5973864"
       y2="10.717914"
       gradientUnits="userSpaceOnUse"
       gradientTransform="matrix(1.8471453,0,0,1.9122993,26.881076,-14.456689)" />
    <linearGradient
       inkscape:collect="always"
       xlink:href="#linearGradient889"
       id="linearGradient891-3-3"
       x1="-34.169491"
       y1="21.288134"
       x2="-13.152548"
       y2="7.4576306"
       gradientUnits="userSpaceOnUse"
       gradientTransform="matrix(1.2272405,0,0,1.5527586,46.26793,-6.9461714)" />
  </defs>
  <sodipodi:namedview
     pagecolor="#ffffff"
     bordercolor="#666666"
     borderopacity="1"
     objecttolerance="10"
     gridtolerance="10"
     guidetolerance="10"
     inkscape:pageopacity="0"
     inkscape:pageshadow="2"
     inkscape:window-width="1002"
     inkscape:window-height="789"
     id="namedview16"
     showgrid="false"
     inkscape:zoom="17.56"
     inkscape:cx="16"
     inkscape:cy="18.277904"
     inkscape:window-x="336"
     inkscape:window-y="127"
     inkscape:window-maximized="0"
     inkscape:current-layer="g852"
     showguides="true"
     inkscape:guide-bbox="true"
     inkscape:snap-global="true">
    <sodipodi:guide
       position="23.186441,0"
       orientation="0,1"
       id="guide846"
       inkscape:locked="false" />
  </sodipodi:namedview>
  <g
     id="g2492">
    <path
       inkscape:connector-curvature="0"
       d="m 19.993088,2.1391705 c -2.39087,0 -3.166896,1.9512996 -4.394979,3.8999983 H 4.13978 c -1.7391529,0 -3.1392677,1.4495 -3.1392677,3.2499997 v 1.3000005 11.049997 1.949998 1.137501 0.162507 c 0.0076,0.180693 0.0452,0.3562 0.079111,0.527801 0.1494339,0.898298 0.644175,1.665299 1.3737426,2.152797 0.3478302,0.232701 0.7496567,0.401702 1.1778524,0.487501 0.2134674,0.04549 0.4005666,0.0819 0.62785,0.0819 H 27.882695 c 0.227284,0 0.414383,-0.0351 0.627854,-0.0819 0.42694,-0.0858 0.828767,-0.2548 1.176599,-0.487501 0.729564,-0.487498 1.223057,-1.254499 1.373741,-2.152797 0.0339,-0.171592 0.07032,-0.348401 0.07911,-0.527801 V 24.726665 23.589164 5.5516683 c 0,-1.9005998 -1.442807,-3.4124978 -3.257305,-3.4124978 H 19.9956 Z"
       style="opacity:1;fill:#4f4f4f;fill-opacity:1;stroke:#828282;stroke-width:0.1;stroke-miterlimit:4;stroke-dasharray:none;stroke-opacity:1"
       id="path25-2" />
    <rect
       style="opacity:0.647;vector-effect:none;fill:#454545;fill-opacity:1;fill-rule:nonzero;stroke:none;stroke-width:0.20038263;stroke-linecap:butt;stroke-linejoin:miter;stroke-miterlimit:4;stroke-dasharray:none;stroke-dashoffset:0;stroke-opacity:1;paint-order:markers stroke fill"
       id="rect883-5-5-3"
       width="25.79285"
       height="21.475441"
       x="4.4335961"
       y="4.6337161"
       transform="matrix(0.99999999,1.0483019e-4,-6.5484411e-5,1,0,0)"
       inkscape:transform-center-x="4.5837926"
       inkscape:transform-center-y="-6.389833"
       ry="1.7347755" />
    <rect
       style="opacity:1;vector-effect:none;fill:url(#linearGradient891-3-3);fill-opacity:1;fill-rule:nonzero;stroke:none;stroke-width:0.20038263;stroke-linecap:butt;stroke-linejoin:miter;stroke-miterlimit:4;stroke-dasharray:none;stroke-dashoffset:0;stroke-opacity:1;paint-order:markers stroke fill"
       id="rect883-5-5"
       width="25.79285"
       height="21.475441"
       x="4.333746"
       y="4.6337266"
       transform="matrix(0.99999999,1.0483019e-4,-6.5484411e-5,1,0,0)"
       inkscape:transform-center-x="4.5837926"
       inkscape:transform-center-y="-6.389833"
       ry="1.7347755" />
    <path
       inkscape:connector-curvature="0"
       d="m 12.146913,2.1391705 c 2.39087,0 3.166896,1.9512996 4.394979,3.8999983 h 11.458327 c 1.739153,0 3.139268,1.4495 3.139268,3.2499997 v 1.3000005 11.049995 1.949998 1.137501 0.162507 c -0.0076,0.180693 -0.0452,0.3562 -0.07911,0.527801 -0.149434,0.898298 -0.644177,1.665299 -1.373744,2.152797 -0.34783,0.232701 -0.749656,0.401702 -1.177853,0.487501 -0.213466,0.04549 -0.400565,0.0819 -0.62785,0.0819 H 4.2573048 c -0.2272835,0 -0.4143826,-0.03509 -0.627854,-0.0819 -0.4269397,-0.0858 -0.8287662,-0.2548 -1.1765984,-0.487501 C 1.7232878,27.08227 1.2297947,26.315269 1.0791108,25.416971 1.0452205,25.24538 1.0087903,25.06857 1.0000003,24.88917 V 24.726663 23.589162 5.5516683 c 0,-1.9005998 1.442807,-3.4124978 3.2573045,-3.4124978 h 7.8870962 z"
       style="opacity:1;fill:url(#linearGradient975);fill-opacity:1;stroke:#dadfe1;stroke-width:0.1;stroke-miterlimit:4;stroke-dasharray:none;stroke-opacity:1"
       id="path25" />
    <g
       id="g852"
       transform="translate(-0.05000063,-0.39944093)">
      <g
         id="g848">
        <path
           id="path2997-7"
           style="opacity:0.647;fill:#454545;fill-opacity:1;fill-rule:nonzero;stroke:none;stroke-width:0.09928053"
           d="M 14.041682,11.798916 11.1,13.719597 l 2.03396,1.628796 2.966006,-1.831428 z"
           inkscape:connector-curvature="0" />
        <path
           id="path3001-3"
           style="opacity:0.647;fill:#454545;fill-opacity:1;fill-rule:nonzero;stroke:none;stroke-width:0.09928053"
           d="m 11.100008,16.977258 2.941682,1.920681 2.058284,-1.718149 -2.966006,-1.831427 z"
           inkscape:connector-curvature="0" />
        <path
           id="path3005-6"
           style="opacity:0.647;fill:#454545;fill-opacity:1;fill-rule:nonzero;stroke:none;stroke-width:0.09928053"
           d="m 16.100005,17.179791 2.058383,1.718149 2.941583,-1.920681 -2.03396,-1.628896 z"
           inkscape:connector-curvature="0" />
        <path
           id="path3009-9"
           style="opacity:0.647;fill:#454545;fill-opacity:1;fill-rule:nonzero;stroke:none;stroke-width:0.09928053"
           d="m 21.1,13.719566 -2.941583,-1.920681 -2.058383,1.718049 2.966006,1.831428 z"
           inkscape:connector-curvature="0" />
        <path
           id="path3013-2"
           style="opacity:0.647;fill:#454545;fill-opacity:1;fill-rule:nonzero;stroke:none;stroke-width:0.09928053"
           d="m 16.106021,17.549431 -2.06434,1.712986 -0.883299,-0.57672 v 0.646614 L 16.106021,21.1 19.053759,19.332311 v -0.646614 l -0.883199,0.57672 z"
           inkscape:connector-curvature="0" />
      </g>
      <g
         id="g2458"
         transform="matrix(1.0000063,0,0,1.0352793,28.578472,14.980279)">
        <path
           id="path2997"
           style="fill:#dadfe1;fill-opacity:1;fill-rule:nonzero;stroke:none;stroke-width:0.09757396"
           d="m -14.636697,-3.1695468 -2.941663,1.8552297 2.033947,1.57329164 2.965987,-1.76901804 z"
           inkscape:connector-curvature="0" />
        <path
           id="path3001"
           style="fill:#dadfe1;fill-opacity:1;fill-rule:nonzero;stroke:none;stroke-width:0.09757396"
           d="m -17.578352,1.8323328 2.941663,1.8552297 2.058271,-1.6595991 -2.965987,-1.76901809 z"
           inkscape:connector-curvature="0" />
        <path
           id="path3005"
           style="fill:#dadfe1;fill-opacity:1;fill-rule:nonzero;stroke:none;stroke-width:0.09757396"
           d="m -12.578387,2.0279637 2.05837,1.6595992 L -7.5784527,1.8323331 -9.6124,0.25894565 Z"
           inkscape:connector-curvature="0" />
        <path
           id="path3009"
           style="fill:#dadfe1;fill-opacity:1;fill-rule:nonzero;stroke:none;stroke-width:0.09757396"
           d="m -7.578423,-1.314347 -2.941564,-1.8552297 -2.05837,1.6595032 2.9659867,1.7690181 z"
           inkscape:connector-curvature="0" />
        <path
           id="path3013"
           style="fill:#dadfe1;fill-opacity:1;fill-rule:nonzero;stroke:none;stroke-width:0.09757396"
           d="m -12.572371,2.385008 -2.064327,1.6546125 -0.883293,-0.5570676 v 0.6245794 l 2.94762,1.7074519 2.9477195,-1.7074519 V 3.4825529 l -0.8831935,0.5570676 z"
           inkscape:connector-curvature="0" />
      </g>
    </g>
  </g>
</svg>
