<?xml version="1.0" encoding="UTF-8" standalone="no"?>
<svg
   xmlns:dc="http://purl.org/dc/elements/1.1/"
   xmlns:cc="http://creativecommons.org/ns#"
   xmlns:rdf="http://www.w3.org/1999/02/22-rdf-syntax-ns#"
   xmlns:svg="http://www.w3.org/2000/svg"
   xmlns="http://www.w3.org/2000/svg"
   xmlns:xlink="http://www.w3.org/1999/xlink"
   xmlns:sodipodi="http://sodipodi.sourceforge.net/DTD/sodipodi-0.dtd"
   xmlns:inkscape="http://www.inkscape.org/namespaces/inkscape"
   inkscape:version="1.0 (4035a4fb49, 2020-05-01)"
   sodipodi:docname="folder-recent.svg"
   id="svg14"
   version="1"
   height="32"
   width="32">
  <metadata
     id="metadata20">
    <rdf:RDF>
      <cc:Work
         rdf:about="">
        <dc:format>image/svg+xml</dc:format>
        <dc:type
           rdf:resource="http://purl.org/dc/dcmitype/StillImage" />
        <dc:title />
      </cc:Work>
    </rdf:RDF>
  </metadata>
  <defs
     id="defs18">
    <linearGradient
       inkscape:collect="always"
       id="linearGradient990">
      <stop
         style="stop-color:#4f4f4f;stop-opacity:1"
         offset="0"
         id="stop986" />
      <stop
         style="stop-color:#828282;stop-opacity:1"
         offset="1"
         id="stop988" />
    </linearGradient>
    <linearGradient
       id="linearGradient889"
       inkscape:collect="always">
      <stop
         id="stop885"
         offset="0"
         style="stop-color:#8998ad;stop-opacity:1" />
      <stop
         id="stop887"
         offset="1"
         style="stop-color:#dadfe1;stop-opacity:1" />
    </linearGradient>
    <linearGradient
       gradientTransform="matrix(1.8471337,0,0,1.8471337,-1.6973853,-28.433842)"
       gradientUnits="userSpaceOnUse"
       y2="10.717914"
       x2="-5.5973864"
       y1="22.200636"
       x1="-5.667089"
       id="linearGradient975"
       xlink:href="#linearGradient990"
       inkscape:collect="always" />
    <linearGradient
       gradientTransform="matrix(1.2272328,0,0,1.4998451,17.688366,-21.176367)"
       gradientUnits="userSpaceOnUse"
       y2="7.4576306"
       x2="-13.152548"
       y1="21.288134"
       x1="-34.169491"
       id="linearGradient891-3-3"
       xlink:href="#linearGradient889"
       inkscape:collect="always" />
  </defs>
  <sodipodi:namedview
     inkscape:document-rotation="0"
     inkscape:snap-global="true"
     inkscape:guide-bbox="true"
     showguides="true"
     inkscape:current-layer="g872"
     inkscape:window-maximized="1"
     inkscape:window-y="26"
     inkscape:window-x="0"
     inkscape:cy="16"
     inkscape:cx="16"
     inkscape:zoom="26.78125"
     showgrid="false"
     id="namedview16"
     inkscape:window-height="1028"
     inkscape:window-width="1920"
     inkscape:pageshadow="2"
     inkscape:pageopacity="0"
     guidetolerance="10"
     gridtolerance="10"
     objecttolerance="10"
     borderopacity="1"
     bordercolor="#666666"
     pagecolor="#ffffff">
    <sodipodi:guide
       inkscape:locked="false"
       id="guide846"
       orientation="0,1"
       position="23.186441,0" />
  </sodipodi:namedview>
  <g
     transform="matrix(1.0000063,0,0,1.0352793,28.578472,14.980279)"
     id="g872">
    <path
       id="path25-2"
       style="opacity:1;fill:#4f4f4f;fill-opacity:1;stroke:#828282;stroke-width:0.0982811;stroke-miterlimit:4;stroke-dasharray:none;stroke-opacity:1"
       d="m -8.5853303,-12.403521 c -2.3908547,0 -3.1668757,1.884805 -4.3949507,3.7670978 h -11.458257 c -1.739142,0 -3.139248,1.4001052 -3.139248,3.1392492 v 1.2557 10.6734457 1.883548 1.098738 0.156969 c 0.0076,0.174536 0.0452,0.344062 0.07911,0.5098153 0.149433,0.867687 0.644171,1.60855 1.373734,2.079436 0.347828,0.224771 0.749652,0.388013 1.177845,0.470888 0.213466,0.04394 0.400564,0.07911 0.627846,0.07911 h 23.62347871 c 0.227282,0 0.41438,-0.0339 0.62785,-0.07911 0.426937,-0.08288 0.828761,-0.246117 1.17659099,-0.470888 0.72956,-0.470886 1.22305,-1.211749 1.373733,-2.079436 0.0339,-0.1657443 0.07032,-0.3365283 0.07911,-0.5098153 V 9.4142577 8.3155197 -9.1073111 c 0,-1.8358329 -1.442798,-3.2962099 -3.25728399,-3.2962099 H -8.5828173 Z"
       inkscape:connector-curvature="0" />
    <rect
       ry="1.6756594"
       inkscape:transform-center-y="-6.389833"
       inkscape:transform-center-x="4.5837926"
       transform="matrix(0.99999999,1.0125852e-4,-6.7794228e-5,1,0,0)"
       y="-9.9910889"
       x="-24.145704"
       height="20.74362"
       width="25.792688"
       id="rect883-5-5-5"
       style="opacity:0.647;vector-effect:none;fill:#454545;fill-opacity:1;fill-rule:nonzero;stroke:none;stroke-width:0.196938;stroke-linecap:butt;stroke-linejoin:miter;stroke-miterlimit:4;stroke-dasharray:none;stroke-dashoffset:0;stroke-opacity:1;paint-order:markers stroke fill" />
    <rect
       ry="1.6756594"
       inkscape:transform-center-y="-6.389833"
       inkscape:transform-center-x="4.5837926"
       transform="matrix(0.99999999,1.0125852e-4,-6.7794228e-5,1,0,0)"
       y="-9.9910784"
       x="-24.245554"
       height="20.74362"
       width="25.792688"
       id="rect883-5-5"
       style="opacity:1;vector-effect:none;fill:url(#linearGradient891-3-3);fill-opacity:1;fill-rule:nonzero;stroke:none;stroke-width:0.196938;stroke-linecap:butt;stroke-linejoin:miter;stroke-miterlimit:4;stroke-dasharray:none;stroke-dashoffset:0;stroke-opacity:1;paint-order:markers stroke fill" />
    <path
       id="path25"
       style="opacity:1;fill:url(#linearGradient975);fill-opacity:1;stroke:#828282;stroke-width:0.0982811;stroke-miterlimit:4;stroke-dasharray:none;stroke-opacity:1"
       d="m -16.431455,-12.403521 c 2.390854,0 3.166876,1.884805 4.394951,3.7670978 h 11.45825471 c 1.73914199,0 3.13924799,1.4001052 3.13924799,3.1392492 v 1.2557 10.6734437 1.883548 1.098738 0.156969 c -0.0076,0.174536 -0.0452,0.344062 -0.07911,0.5098153 -0.149433,0.867687 -0.644173,1.60855 -1.373736,2.079436 -0.34782799,0.224771 -0.74965099,0.388013 -1.17784499,0.470888 -0.213465,0.04394 -0.400563,0.07911 -0.627846,0.07911 H -24.321014 c -0.227282,0 -0.41438,-0.03389 -0.62785,-0.07911 -0.426937,-0.08288 -0.828761,-0.246117 -1.176591,-0.470888 -0.72956,-0.470886 -1.22305,-1.211749 -1.373733,-2.079436 -0.03389,-0.1657433 -0.07032,-0.3365283 -0.07911,-0.5098153 V 9.4142557 8.3155177 -9.1073111 c 0,-1.8358329 1.442798,-3.2962099 3.257284,-3.2962099 h 7.887047 z"
       inkscape:connector-curvature="0" />
    <g
       transform="translate(-0.02799986,-0.35932312)"
       id="g829">
      <path
         style="opacity:0.647;fill:#454545;fill-opacity:1;stroke-width:0.930067"
         d="m -12.500399,-4.0919194 a 5.6779639,5.4845108 0 0 0 -5.677958,5.484511 5.6779639,5.4845108 0 0 0 5.677958,5.4845101 5.6779639,5.4845108 0 0 0 5.6779702,-5.4845101 5.6779639,5.4845108 0 0 0 -5.6779702,-5.484511 z m 0,1.828171 a 3.7853099,3.6563407 0 0 1 3.7853152,3.65634 3.7853099,3.6563407 0 0 1 -3.7853152,3.656339 3.7853099,3.6563407 0 0 1 -3.78531,-3.656339 3.7853099,3.6563407 0 0 1 3.78531,-3.65634 z m -0.946313,0.914083 v 3.656342 h 3.7853002 V 0.47850657 H -11.554067 V -1.3496654 Z"
         id="path14-3"
         inkscape:connector-curvature="0" />
      <path
         style="opacity:1;fill:#dadfe1;fill-opacity:1;stroke-width:0.930067"
         d="m -12.600399,-4.1885117 a 5.6779639,5.4845108 0 0 0 -5.677958,5.48451 5.6779639,5.4845108 0 0 0 5.677958,5.4845111 5.6779639,5.4845108 0 0 0 5.6779707,-5.4845111 5.6779639,5.4845108 0 0 0 -5.6779707,-5.48451 z m 0,1.828171 a 3.7853099,3.6563407 0 0 1 3.7853157,3.656339 3.7853099,3.6563407 0 0 1 -3.7853157,3.65634 3.7853099,3.6563407 0 0 1 -3.78531,-3.65634 3.7853099,3.6563407 0 0 1 3.78531,-3.656339 z m -0.946313,0.914083 v 3.656342 h 3.7853007 V 0.38191428 H -11.654067 V -1.4462577 Z"
         id="path14"
         inkscape:connector-curvature="0" />
    </g>
  </g>
</svg>
