<svg xmlns="http://www.w3.org/2000/svg" xmlns:xlink="http://www.w3.org/1999/xlink" version="1" height="32" width="32"><defs><linearGradient id="a"><stop offset="0" stop-color="#4f4f4f"/><stop offset="1" stop-color="#828282"/></linearGradient><linearGradient id="b"><stop offset="0" stop-color="#8998ad"/><stop offset="1" stop-color="#dadfe1"/></linearGradient><linearGradient gradientTransform="matrix(1.84715 0 0 1.9123 26.881 -14.457)" gradientUnits="userSpaceOnUse" y2="10.718" x2="-5.597" y1="22.201" x1="-5.667" id="d" xlink:href="#a"/><linearGradient gradientTransform="matrix(1.22724 0 0 1.55276 46.268 -6.946)" gradientUnits="userSpaceOnUse" y2="7.458" x2="-13.153" y1="21.288" x1="-34.169" id="c" xlink:href="#b"/></defs><g transform="translate(.001)"><path d="M19.993 2.14c-2.39 0-3.167 1.95-4.395 3.9H4.14C2.4 6.04 1 7.488 1 9.29V24.888c.008.18.046.356.08.528a3.195 3.195 0 0 0 2.551 2.64c.214.046.4.082.628.082h23.624c.227 0 .414-.035.628-.082a3.199 3.199 0 0 0 2.55-2.64c.034-.172.07-.348.079-.528V5.552c0-1.9-1.443-3.413-3.257-3.413h-7.887z" fill="#4f4f4f" stroke="#828282" stroke-width=".1"/><rect ry="1.735" transform="rotate(.008) skewX(.002)" y="4.634" x="4.434" height="21.475" width="25.793" opacity=".647" fill="#454545" paint-order="markers stroke fill"/><rect ry="1.735" transform="rotate(.008) skewX(.002)" y="4.634" x="4.334" height="21.475" width="25.793" fill="url(#c)" paint-order="markers stroke fill"/><path d="M12.147 2.14c2.39 0 3.167 1.95 4.395 3.9H28c1.74 0 3.14 1.449 3.14 3.25V24.888c-.008.18-.046.356-.08.528a3.195 3.195 0 0 1-2.551 2.64c-.214.046-.4.082-.628.082H4.257c-.227 0-.414-.035-.628-.082a3.199 3.199 0 0 1-2.55-2.64c-.034-.172-.07-.348-.079-.528V5.552c0-1.9 1.443-3.413 3.257-3.413h7.887z" fill="url(#d)" stroke="#828282" stroke-width=".1"/><path d="M13.752 9.852l-.059.049c-.094.077-.144.207-.316.809-.476 1.661-.579 2.192-.579 3.016 0 .367.016.565.053.749.138.673.41 1.182.898 1.678.27.275.657.71 1.161.99.467.259.51.296.564.494.05.185.093 1.388.08 2.244-.01.698-.02.862-.064 1.007-.098.326-.279.52-.585.629-.202.071-.435.135-1.008.173-.448.029-.48.034-.674.109a.565.565 0 0 0-.336.448H19.2c-.049-.244-.158-.35-.346-.45-.19-.07-.244-.079-.656-.107-.552-.038-.763-.04-.953-.095-.439-.128-.631-.36-.719-.863-.038-.225-.03-2.32.009-3.039.007-.273.447-.373.622-.494 1.483-.808 1.866-1.552 2.076-2.678.166-.892.038-1.872-.506-3.746-.2-.685-.245-.805-.331-.874l-.061-.05h-2.29zm1.116 4.179c.392.036.824.167 1.253.295.43.129.856.254 1.237.282.382.027.717-.044.964-.31-.04.401-.141.742-.288 1.026a2.09 2.09 0 0 1-.56.688c-.444.35-1.004.49-1.55.45a2.396 2.396 0 0 1-1.468-.633 1.939 1.939 0 0 1-.603-1.532c.27-.247.622-.303 1.015-.266z" opacity=".647" fill="#454545"/><path d="M13.652 9.752l-.059.049c-.094.077-.144.207-.316.809-.476 1.661-.579 2.192-.579 3.016 0 .367.016.565.053.749.138.673.41 1.182.898 1.678.27.275.657.71 1.161.99.467.259.51.296.564.494.05.185.093 1.388.08 2.244-.01.698-.02.862-.064 1.007-.098.326-.279.52-.585.629-.202.071-.435.135-1.008.173-.448.029-.48.034-.674.109a.565.565 0 0 0-.336.448H19.1c-.049-.244-.158-.35-.346-.45-.19-.07-.244-.079-.656-.107-.552-.038-.763-.04-.953-.095-.439-.128-.631-.36-.719-.863-.038-.225-.03-2.32.009-3.039.007-.273.447-.373.622-.494 1.483-.808 1.866-1.552 2.076-2.678.166-.892.038-1.872-.506-3.746-.2-.685-.245-.805-.331-.874l-.061-.05h-2.29zm1.116 4.179c.392.036.824.167 1.253.295.43.129.856.254 1.237.282.382.027.717-.044.964-.31-.04.401-.141.742-.288 1.026a2.09 2.09 0 0 1-.56.688c-.444.35-1.004.49-1.55.45a2.396 2.396 0 0 1-1.468-.633 1.939 1.939 0 0 1-.603-1.532c.27-.247.622-.303 1.015-.266z" fill="#dadfe1"/></g></svg>