<svg xmlns="http://www.w3.org/2000/svg" viewBox="0 0 256 256"><defs id="defs4"><style id="current-color-scheme" type="text/css">.ColorScheme-Text{color:#4d4d4d}</style></defs><path d="M16 10h224c3.324 0 6 2.676 6 6v224c0 3.324-2.676 6-6 6H16c-3.324 0-6-2.676-6-6V16c0-3.324 2.676-6 6-6z" id="rect4240" fill="currentColor" fill-opacity=".5" stroke="none" color="#31363b"/><path d="M16 12h224c2.216 0 4 1.784 4 4v224c0 2.216-1.784 4-4 4H16c-2.216 0-4-1.784-4-4V16c0-2.216 1.784-4 4-4z" id="rect4238" fill="currentColor" fill-opacity="1" stroke="none" color="#eff0f1"/><text xml:space="preserve" style="line-height:125%" x="20.937" y="38.318" id="text11719" class="ColorScheme-Text" font-style="normal" font-weight="400" font-size="16.816" font-family="sans-serif" letter-spacing="0" word-spacing="0" fill="currentColor" fill-opacity="1" stroke="none" stroke-width="1" stroke-linecap="butt" stroke-linejoin="miter" stroke-opacity="1"><tspan id="tspan11721" x="20.937" y="38.318" style="-inkscape-font-specification:'Noto Sans'" class="ColorScheme-Text" font-style="normal" font-variant="normal" font-weight="400" font-stretch="normal" font-size="16.25" font-family="Noto Sans" fill="currentColor" fill-opacity="1">Storage Volume</tspan></text><path id="rect7886" class="ColorScheme-Text" opacity=".5" fill="currentColor" fill-opacity="1" stroke="none" d="M20 50h216v1H20z"/><text xml:space="preserve" style="line-height:125%" x="67.905" y="75.223" id="text11719-4" class="ColorScheme-Text" font-style="normal" font-weight="400" font-size="16.816" font-family="sans-serif" letter-spacing="0" word-spacing="0" fill="currentColor" fill-opacity="1" stroke="none" stroke-width="1" stroke-linecap="butt" stroke-linejoin="miter" stroke-opacity="1"><tspan id="tspan11721-6" x="67.905" y="75.223" style="-inkscape-font-specification:'Noto Sans'" class="ColorScheme-Text" color="#4d4d4d" font-style="normal" font-variant="normal" font-weight="400" font-stretch="normal" font-size="13.75" font-family="Noto Sans" fill="currentColor" fill-opacity="1">removable media</tspan></text></svg>