<svg xmlns="http://www.w3.org/2000/svg" viewBox="0 0 256 256"><defs id="defs4"><style id="current-color-scheme" type="text/css">.ColorScheme-Text{color:#4d4d4d}</style></defs><path d="M16 10h224c3.324 0 6 2.676 6 6v224c0 3.324-2.676 6-6 6H16c-3.324 0-6-2.676-6-6V16c0-3.324 2.676-6 6-6z" id="rect4240" fill="currentColor" fill-opacity=".5" stroke="none" color="#31363b"/><path d="M16 12h224c2.216 0 4 1.784 4 4v224c0 2.216-1.784 4-4 4H16c-2.216 0-4-1.784-4-4V16c0-2.216 1.784-4 4-4z" id="rect4238" fill="currentColor" fill-opacity="1" stroke="none" color="#eff0f1"/><path class="ColorScheme-Text" d="M224.81 32.412c-.839 0-1.552.253-2.14.76-.588.501-1.026 1.2-1.315 2.096-.283.89-.423 1.949-.423 3.175 0 .886.076 1.691.228 2.416a6.98 6.98 0 0 0 .692 1.903c.31.544.714.97 1.212 1.273.504.299 1.085.447 1.747.447.655 0 1.23-.148 1.724-.447a3.27 3.27 0 0 0 1.188-1.281c.299-.55.523-1.184.67-1.904.147-.72.22-1.521.22-2.407 0-.922-.079-1.75-.236-2.48-.157-.736-.392-1.369-.701-1.897-.305-.533-.7-.94-1.188-1.222-.482-.288-1.043-.432-1.677-.432zm0 1.078c1.67 0 2.504 1.635 2.504 4.905 0 1.647-.218 2.896-.654 3.744-.43.842-1.047 1.263-1.85 1.263-.813 0-1.447-.423-1.904-1.271-.451-.853-.676-2.097-.676-3.729-.005-1.562.222-2.77.684-3.623.462-.858 1.094-1.289 1.897-1.289zM45.122 72.105c-1.084 0-2.04.252-2.871.754a4.948 4.948 0 0 0-1.904 2.086c-.445.894-.668 1.917-.668 3.07 0 .9.134 1.726.404 2.477.275.751.656 1.384 1.143 1.897a5.17 5.17 0 0 0 1.746 1.19c.682.28 1.424.419 2.222.419 1.143 0 2.161-.227 3.055-.682l-.326-1.039c-.868.408-1.727.612-2.578.612-1.312 0-2.352-.443-3.12-1.326-.761-.884-1.142-2.05-1.142-3.499 0-1.444.37-2.613 1.111-3.507.746-.9 1.762-1.35 3.047-1.35 1 0 1.874.234 2.62.7l.458-.913c-.825-.592-1.89-.889-3.197-.889zm173.397 0c-1.085 0-2.043.252-2.873.754a4.948 4.948 0 0 0-1.905 2.086c-.444.894-.666 1.917-.666 3.07 0 .9.135 1.726.405 2.477.275.751.655 1.384 1.142 1.897a5.17 5.17 0 0 0 1.746 1.19c.683.28 1.422.419 2.22.419 1.143 0 2.162-.227 3.056-.682l-.325-1.039c-.867.408-1.728.612-2.58.612-1.312 0-2.35-.443-3.117-1.326-.762-.884-1.142-2.05-1.142-3.499 0-1.444.37-2.613 1.11-3.507.747-.9 1.762-1.35 3.048-1.35 1 0 1.871.234 2.617.7l.46-.913c-.824-.592-1.89-.889-3.196-.889zm-116.84.159l-4.834 11.584h1.142l4.866-11.584h-1.174zm104.31 0l-4.244 11.584h1.428l1.355-3.729h4.436l1.365 3.729h1.381l-4.236-11.584h-1.485zm.754 1.365l1.904 5.521h-3.792l1.888-5.521zm-54.515 1.824l2.92 4.086-3.135 4.309h1.324l2.484-3.371 2.405 3.37h1.466l-3.029-4.243 2.998-4.15h-1.332l-2.3 3.26-2.335-3.26h-1.466zm-52.368 32.652c-1.036 0-1.88.26-2.53.778-.652.518-.975 1.218-.975 2.101 0 .677.2 1.262.601 1.754a3.36 3.36 0 0 0 1.58 1.055c-.777.27-1.377.673-1.8 1.207-.419.529-.628 1.181-.628 1.959 0 .645.172 1.205.516 1.676.35.47.8.817 1.356 1.039.555.222 1.18.332 1.873.332 1.073 0 1.965-.267 2.673-.8.71-.535 1.065-1.284 1.065-2.247 0-.735-.219-1.39-.653-1.967-.433-.576-1.014-.982-1.744-1.215.662-.238 1.182-.591 1.563-1.062.386-.476.58-1.054.58-1.73 0-.89-.323-1.59-.969-2.102-.64-.519-1.476-.778-2.508-.778zm56.135 0c-.74 0-1.395.165-1.967.493a3.333 3.333 0 0 0-1.31 1.3 3.686 3.686 0 0 0-.451 1.817c0 .502.094.973.285 1.412.19.434.444.8.762 1.096.317.29.685.52 1.103.69.423.168.864.253 1.324.253.545 0 1.065-.132 1.557-.396-.407.523-.678.872-.81 1.046l-3.008 4.032h1.556l2.832-3.871a32.6 32.6 0 0 0 .746-1.057c.175-.26.36-.573.555-.943.196-.376.335-.742.414-1.096.085-.355.127-.735.127-1.143 0-.476-.082-.93-.246-1.363a3.62 3.62 0 0 0-.707-1.16 3.272 3.272 0 0 0-1.174-.809 4.046 4.046 0 0 0-1.588-.3zm-115.412.159l.152 1.062h5.198l-4 10.522h1.316l4.063-10.649v-.935h-6.729zm59.27.816c.671 0 1.209.172 1.61.516.403.338.604.791.604 1.357 0 .624-.186 1.142-.556 1.555-.37.412-.923.699-1.658.857-.73-.164-1.286-.45-1.666-.857-.376-.413-.563-.93-.563-1.555 0-.56.202-1.013.61-1.357.412-.344.952-.516 1.619-.516zm56.183.065c.767 0 1.362.24 1.785.722.423.482.635 1.077.635 1.785 0 .36-.057.687-.168.983-.106.29-.243.53-.412.715a2.518 2.518 0 0 1-1.254.722c-.217.048-.433.07-.65.07-.757 0-1.35-.224-1.778-.673-.428-.455-.642-1.045-.642-1.77 0-.714.219-1.316.658-1.808.444-.498 1.054-.746 1.826-.746zm53.166 5.039v1.07h5.309v-1.07H209.2zm-109.35.109c.746.159 1.346.462 1.801.906.46.445.692.988.692 1.633 0 1.439-.831 2.158-2.492 2.158-.815 0-1.44-.187-1.873-.562-.429-.376-.643-.906-.643-1.588 0-.667.231-1.217.691-1.65.46-.434 1.068-.733 1.825-.897zm-54.681 29.97l-5.182 7.522v1.143h5.268v2.92h1.254v-2.92h1.326l.094-1.016h-1.42v-7.648h-1.34zm51.873 0l-.223 6.134 1.065.126c.243-.259.55-.465.92-.619.37-.153.75-.228 1.142-.228.535 0 .98.117 1.34.355.36.233.618.534.772.905.153.365.228.783.228 1.254 0 .856-.237 1.523-.713 2-.47.47-1.103.707-1.896.707-.889 0-1.845-.29-2.865-.866l-.452 1.024c1.148.64 2.281.959 3.403.959.545 0 1.05-.08 1.515-.244a3.618 3.618 0 0 0 1.223-.715c.354-.318.63-.723.826-1.215.201-.497.3-1.055.3-1.674 0-.65-.131-1.238-.396-1.762a3.038 3.038 0 0 0-1.191-1.277c-.534-.328-1.162-.492-1.887-.492-.793 0-1.5.209-2.119.627l.127-3.951h4.871l.104-1.047h-6.094zm59.627 0l-2.611 3.84c-.312.45-.554.813-.723 1.088-.17.276-.344.594-.523.96a4.53 4.53 0 0 0-.381 1.087 5.579 5.579 0 0 0-.112 1.143c0 .476.082.931.246 1.365.164.434.4.82.707 1.158.307.334.698.6 1.174.801.476.201 1.006.3 1.588.3 1.111 0 2.007-.343 2.69-1.03.687-.693 1.03-1.55 1.03-2.57 0-1-.343-1.825-1.03-2.475a3.418 3.418 0 0 0-2.444-.977c-.587 0-1.135.147-1.642.444.322-.434.599-.823.832-1.166l2.697-3.967h-1.498zm-111.414 1.635v6.014h-3.96l3.96-6.014zm166.096.96v3.087h-3.006v.975h2.998v3.127h1.047v-3.127h2.96v-.975h-2.96v-3.088h-1.04zm-55.301 3.119c.756 0 1.349.226 1.777.681.434.45.65 1.035.65 1.754 0 .714-.219 1.32-.658 1.817-.439.492-1.046.738-1.818.738-.767 0-1.362-.24-1.785-.72-.423-.482-.635-1.08-.635-1.788 0-.36.054-.684.16-.975.106-.29.243-.527.412-.707.17-.185.362-.337.578-.459.223-.127.444-.214.66-.261.223-.053.442-.08.659-.08zm-56.254 30.129c-.593 0-1.177.087-1.754.261-.577.17-1.042.384-1.397.643l.39 1.008a5.1 5.1 0 0 1 1.245-.58c.471-.149.929-.223 1.373-.223.201 0 .393.02.578.056.186.032.38.097.58.198.202.095.373.22.516.373.143.148.262.352.358.611.095.26.142.558.142.897 0 .312-.032.598-.096.857-.058.254-.17.515-.334.785s-.308.487-.435.65c-.127.165-.336.416-.627.754L96.6 190.81l.205 1.039h6.197l.072-.952h-4.992l3.111-3.642c.376-.44.667-.8.873-1.08.212-.28.404-.582.579-.904.18-.328.301-.65.365-.967.069-.318.103-.678.103-1.08 0-.46-.07-.874-.207-1.239a2.516 2.516 0 0 0-.539-.896 2.786 2.786 0 0 0-.777-.57 3.329 3.329 0 0 0-.889-.319 4.228 4.228 0 0 0-.904-.093zm55.69.008c-1.059 0-2.06.288-3.007.865l.428.967c.857-.492 1.703-.739 2.54-.739.613 0 1.11.157 1.491.469.381.312.576.788.586 1.428v.056c0 1.365-.936 2.047-2.808 2.047h-.34v1.063h.332c.386 0 .722.02 1.008.056.29.037.574.107.85.213.274.1.499.24.673.414.175.17.314.399.42.69.106.285.16.626.16 1.023 0 .72-.191 1.27-.572 1.65-.38.381-.909.573-1.586.573-.841 0-1.807-.279-2.896-.834v1.19c.978.512 1.957.769 2.935.769 1.01 0 1.842-.287 2.492-.863.656-.582.992-1.411 1.008-2.485v-.055c0-.788-.223-1.432-.668-1.93-.439-.496-1.024-.82-1.754-.974 1.407-.365 2.112-1.246 2.112-2.642v-.047c-.005-.63-.17-1.167-.493-1.612a2.76 2.76 0 0 0-1.228-.984c-.497-.206-1.06-.309-1.684-.309zm-111.635.15c-.276.19-.689.382-1.239.578-.545.19-1.015.327-1.412.406v1.047a7.9 7.9 0 0 0 1.285-.31c.508-.16.929-.33 1.262-.516v9.428h-2.793v.95h6.602v-.95h-2.49v-10.633h-1.215zm164.683 21.887v.984h6.64v-.984h-6.64zm0 2.808v.985h6.64v-.985h-6.64zM72.04 216.105c-.846 0-1.566.252-2.158.754-.593.498-1.033 1.19-1.324 2.078-.286.884-.428 1.934-.428 3.15 0 .879.075 1.678.228 2.397.16.715.393 1.344.7 1.889.312.54.718.958 1.22 1.26.508.296 1.096.445 1.762.445.661 0 1.241-.149 1.738-.445a3.26 3.26 0 0 0 1.198-1.27 6.67 6.67 0 0 0 .675-1.886c.149-.715.221-1.511.221-2.39 0-.914-.078-1.735-.236-2.46-.159-.73-.395-1.355-.707-1.879a3.221 3.221 0 0 0-1.198-1.215c-.486-.285-1.05-.428-1.69-.428zm0 1.07c1.682 0 2.523 1.621 2.523 4.864 0 1.635-.219 2.874-.658 3.715-.433.836-1.056 1.254-1.865 1.254-.82 0-1.46-.42-1.92-1.262-.455-.846-.682-2.08-.682-3.7-.005-1.549.224-2.747.69-3.593.465-.852 1.103-1.277 1.912-1.277zm83.32 8.919c0 .386-.107 1.738-.324 4.054h.77l.23-.888c.154-.587.306-1.19.46-1.809.158-.624.237-.97.237-1.039v-.318h-1.373z" id="path4457" fill="currentColor" fill-opacity="1" stroke="none"/><path class="ColorScheme-Text" d="M20 20v36h216V20H20zm1 1h214v34H21V21zm-1 43v28h48V64H20zm56 0v28h48V64H76zm56 0v28h48V64h-48zm56 0v28h48V64h-48zM21 65h46v26H21V65zm56 0h46v26H77V65zm56 0h46v26h-46V65zm56 0h46v26h-46V65zM20 100v28h48v-28H20zm56 0v28h48v-28H76zm56 0v28h48v-28h-48zm56 0v28h48v-28h-48zm-167 1h46v26H21v-26zm56 0h46v26H77v-26zm56 0h46v26h-46v-26zm56 0h46v26h-46v-26zM20 136v28h48v-28H20zm56 0v28h48v-28H76zm56 0v28h48v-28h-48zm56 0v28h48v-28h-48zm-167 1h46v26H21v-26zm56 0h46v26H77v-26zm56 0h46v26h-46v-26zm56 0h46v26h-46v-26zM20 172v28h48v-28H20zm56 0v28h48v-28H76zm56 0v28h48v-28h-48zm56 0v64h48v-64h-48zm-167 1h46v26H21v-26zm56 0h46v26H77v-26zm56 0h46v26h-46v-26zm56 0h46V235h-46V173zM20 208v28h104v-28H20zm112 0v28h48v-28h-48zm-111 1h102v26H21v-26zm112 0h46v26h-46v-26z" id="rect5114-3-4-2" fill="currentColor" fill-opacity=".5" stroke="none"/></svg>