<svg xmlns="http://www.w3.org/2000/svg" viewBox="0 0 256 256" id="svg2" version="1.1"><defs id="defs4"><style id="current-color-scheme" type="text/css">.ColorScheme-Text{color:#4d4d4d}.ColorScheme-Highlight{color:#3daee9}</style></defs><path d="M16 10h224c3.324 0 6 2.676 6 6v224c0 3.324-2.676 6-6 6H16c-3.324 0-6-2.676-6-6V16c0-3.324 2.676-6 6-6z" id="rect4240" fill="currentColor" fill-opacity=".5" stroke="none" color="#31363b"/><path d="M16 12h224c2.216 0 4 1.784 4 4v224c0 2.216-1.784 4-4 4H16c-2.216 0-4-1.784-4-4V16c0-2.216 1.784-4 4-4z" id="rect4238" fill="currentColor" fill-opacity="1" stroke="none" color="#eff0f1"/><rect id="rect5492" width="92" height="58" x="140" y="99" rx="0" ry="0" opacity=".4" fill="#1d99f3" fill-opacity="1" stroke="none"/><path class="ColorScheme-Highlight" d="M140 99v58h92V99h-92zm1 1h90v56h-90v-56z" id="rect5492-1" fill="currentColor" fill-opacity="1" stroke="none"/><path class="ColorScheme-Highlight" id="rect5512" fill="currentColor" fill-opacity=".4" stroke="none" d="M155 103h35v26h-35z"/><path class="ColorScheme-Highlight" id="rect5514" fill="currentColor" fill-opacity=".4" stroke="none" d="M193 111h35v42h-35z"/><path class="ColorScheme-Highlight" id="rect5516" fill="currentColor" fill-opacity=".4" stroke="none" d="M144 132h17v21h-17z"/><path class="ColorScheme-Text" d="M24 30v58h92V30H24zm116 0v58h92V30h-92zM24 99v58h92V99H24zm0 69v58h92v-58H24zm116 0v58h92v-58h-92z" id="rect5492-9-6-3" fill="currentColor" fill-opacity=".4" stroke="none"/><path class="ColorScheme-Text" d="M24 30v58h92V30H24zm116 0v58h92V30h-92zM25 31h90v56H25V31zm116 0h90v56h-90V31zM24 99v58h92V99H24zm1 1h90v56H25v-56zm-1 68v58h92v-58H24zm116 0v58h92v-58h-92zm-115 1h90v56H25v-56zm116 0h90v56h-90v-56z" id="rect5492-1-0-2-0" color="#4d4d4d" opacity="1" fill="currentColor" fill-opacity="1" stroke="none"/><path id="rect5936" class="ColorScheme-Text" fill="currentColor" fill-opacity=".4" stroke="none" d="M28 172h67v50H28z"/><path id="rect5938" class="ColorScheme-Text" fill="currentColor" fill-opacity=".4" stroke="none" d="M70 177h42v45H70z"/><path id="rect6003" class="ColorScheme-Text" fill="currentColor" fill-opacity=".4" stroke="none" d="M153 34h51v50h-51z"/><path id="rect6005" class="ColorScheme-Text" fill="currentColor" fill-opacity=".4" stroke="none" d="M89 35h22v20H89z"/><path id="rect6007" class="ColorScheme-Text" fill="currentColor" fill-opacity=".4" stroke="none" d="M31 51h35v31H31z"/><path id="rect6009" class="ColorScheme-Text" fill="currentColor" fill-opacity=".4" stroke="none" d="M44 36h39v30H44z"/><path id="rect6011" class="ColorScheme-Text" fill="currentColor" fill-opacity=".4" stroke="none" d="M33 106h79v47H33z"/><path id="rect6013" class="ColorScheme-Text" fill="currentColor" fill-opacity=".4" stroke="none" d="M182 39h44v35h-44z"/><path id="rect6015" class="ColorScheme-Text" fill="currentColor" fill-opacity=".4" stroke="none" d="M145 47h67v36h-67z"/></svg>