<?xml version="1.0" encoding="UTF-8" standalone="no"?>
<svg
   xmlns:dc="http://purl.org/dc/elements/1.1/"
   xmlns:cc="http://creativecommons.org/ns#"
   xmlns:rdf="http://www.w3.org/1999/02/22-rdf-syntax-ns#"
   xmlns:svg="http://www.w3.org/2000/svg"
   xmlns="http://www.w3.org/2000/svg"
   xmlns:sodipodi="http://sodipodi.sourceforge.net/DTD/sodipodi-0.dtd"
   xmlns:inkscape="http://www.inkscape.org/namespaces/inkscape"
   width="22"
   height="22"
   viewBox="0 0 22 22"
   version="1.1"
   id="svg7"
   sodipodi:docname="search.svg"
   inkscape:version="0.92.4 5da689c313, 2019-01-14">
  <metadata
     id="metadata11">
    <rdf:RDF>
      <cc:Work
         rdf:about="">
        <dc:format>image/svg+xml</dc:format>
        <dc:type
           rdf:resource="http://purl.org/dc/dcmitype/StillImage" />
      </cc:Work>
    </rdf:RDF>
  </metadata>
  <sodipodi:namedview
     pagecolor="#ffffff"
     bordercolor="#666666"
     borderopacity="1"
     objecttolerance="10"
     gridtolerance="10"
     guidetolerance="10"
     inkscape:pageopacity="0"
     inkscape:pageshadow="2"
     inkscape:window-width="926"
     inkscape:window-height="563"
     id="namedview9"
     showgrid="false"
     inkscape:zoom="10.727273"
     inkscape:cx="11"
     inkscape:cy="11"
     inkscape:window-x="417"
     inkscape:window-y="110"
     inkscape:window-maximized="0"
     inkscape:current-layer="svg7" />
  <defs
     id="defs3">
    <style
       type="text/css"
       id="current-color-scheme">
   .ColorScheme-Text { color:#1e333d; } .ColorScheme-Highlight { color:#3fb7ff; }
  </style>
  </defs>
  <path
     inkscape:connector-curvature="0"
     style="fill:#1e333d;fill-opacity:1;stroke-width:0.95520735"
     d="m 17.5496,17.877242 c 0.243578,-0.124177 0.460411,-0.341964 0.591274,-0.596049 0.145187,-0.279876 0.145187,-0.848225 0.0019,-1.127145 -0.109838,-0.212055 -2.751952,-2.898099 -2.850338,-2.898099 -0.02769,0 -0.125125,0.104114 -0.215875,0.23116 -0.260772,0.364891 -0.719273,0.839629 -1.144338,1.186368 -0.214922,0.174806 -0.391638,0.341964 -0.391638,0.369667 0,0.0726 2.55136,2.650699 2.75482,2.784428 0.332412,0.217787 0.879745,0.238802 1.253231,0.04872 m -6.098039,-2.458701 c 0.636167,-0.164302 1.608568,-0.652406 2.164498,-1.087027 1.061236,-0.830072 1.83973,-2.081396 2.117695,-3.402447 0.130868,-0.620885 0.130868,-1.8798475 9.86e-4,-2.494046 C 15.43095,7.0050742 14.640995,5.7642605 13.482328,4.8988421 12.902517,4.4651781 12.410585,4.2149136 11.655975,3.9665599 11.120104,3.7908018 10.985419,3.7745631 9.9767179,3.7697871 c -0.955208,-0.00478 -1.169174,0.015287 -1.660151,0.1566524 -2.217035,0.6342575 -3.876231,2.4873596 -4.271687,4.768396 -0.05063,0.2942024 -0.06781,0.790912 -0.0449,1.301947 0.06972,1.5245115 0.626616,2.7892055 1.703136,3.8657235 1.485346,1.485348 3.694744,2.083308 5.7503481,1.555076 M 8.8495679,13.90358 c -2.068977,-0.57408 -3.381435,-2.374645 -3.267765,-4.4856535 0.14424,-2.6717136 2.640194,-4.5687557 5.2775221,-4.0099593 1.594239,0.3381442 2.930573,1.6353155 3.300239,3.2047203 0.130868,0.554977 0.128961,1.5426595 -0.0038,2.1071865 -0.323814,1.375499 -1.424213,2.583835 -2.793024,3.069081 -0.626616,0.222563 -1.9104151,0.280831 -2.5131501,0.113683 m 1.6859441,-0.933237 c 0.05827,-0.09456 -0.149,-0.2751 -0.6973021,-0.605602 -0.538776,-0.324778 -1.274286,-1.054558 -1.483478,-1.472939 -0.09362,-0.188179 -0.238802,-0.549243 -0.321905,-0.801417 -0.269369,-0.8176584 -0.909357,-1.2780679 -1.200697,-0.8625525 -0.139463,0.199637 -0.138505,0.8109695 0.0028,1.2914385 0.322862,1.09658 1.343978,2.042235 2.59721,2.402347 0.480468,0.138505 1.0325781,0.162385 1.1032641,0.04872"
     id="edit-find"
     inkscape:highlight-color="1118031615" />
</svg>
