<svg xmlns="http://www.w3.org/2000/svg" width="22" height="22"><path d="M13.333 13.333v.934c0 .261.094.504.262.672l.728.728-.728.728a.945.945 0 0 0-.262.672V18h.934a.945.945 0 0 0 .672-.261l.728-.728.728.728c.168.168.41.261.672.261H18v-.933a.945.945 0 0 0-.261-.672l-.728-.728.728-.728a.945.945 0 0 0 .261-.672v-.934h-.933a.945.945 0 0 0-.672.262l-.728.728-.728-.728a.945.945 0 0 0-.672-.262z" fill="#d1d9e3"/><path d="M10.533 4A6.533 6.533 0 0 0 4 10.533a6.533 6.533 0 0 0 6.533 6.534 6.533 6.533 0 0 0 1.867-.276v-1.987a4.667 4.667 0 0 1-1.867.396 4.667 4.667 0 0 1-4.666-4.667 4.667 4.667 0 0 1 4.666-4.666 4.667 4.667 0 0 1 4.667 4.666 4.667 4.667 0 0 1-.392 1.867h1.98a6.533 6.533 0 0 0 .279-1.867A6.533 6.533 0 0 0 10.533 4z" opacity=".3" fill="#d1d9e3"/><path d="M8.667 8.667l1.866 1.866L12.867 8.2" opacity=".3" fill="none" stroke="#d1d9e3" stroke-linecap="round" stroke-linejoin="round" stroke-width=".93333"/></svg>