<svg xmlns="http://www.w3.org/2000/svg" width="22" height="22"><g fill="#d1d9e3"><path d="M11 4c-1.19 0-2.177.793-2.499 1.876L13.625 11V6.625A2.621 2.621 0 0 0 11 4zM8.375 8.813V11A2.621 2.621 0 0 0 11 13.625a2.61 2.61 0 0 0 1.618-.569zM5.75 10.124V11a5.248 5.248 0 0 0 4.375 5.171V18h1.75v-1.829a5.233 5.233 0 0 0 2.601-1.257l-1.234-1.235c-.606.508-1.38.821-2.242.821A3.477 3.477 0 0 1 7.5 11v-.875zm8.75 0V11c0 .268-.045.522-.104.77l1.372 1.373c.3-.655.482-1.375.482-2.143v-.875z"/><path d="M6.188 4.875l10.937 10.938-1.313 1.312L4.876 6.187z"/><path d="M6.188 4.875l10.937 10.938-1.313 1.312L4.876 6.187z"/></g></svg>