<svg xmlns="http://www.w3.org/2000/svg" width="22" height="22"><g fill="#d1d9e3"><path d="M11 3c-1.36 0-2.488.906-2.856 2.144L14 11V6c0-1.66-1.34-3-3-3zM8 8.5V11c0 1.66 1.34 3 3 3 .702 0 1.34-.249 1.85-.65zM5 10v1c0 2.97 2.16 5.43 5 5.91V19h2v-2.09a5.98 5.98 0 0 0 2.973-1.437l-1.411-1.411A3.963 3.963 0 0 1 11 15c-2.23 0-4-1.77-4-4v-1zm10 0v1c0 .307-.051.597-.119.88l1.568 1.569A5.854 5.854 0 0 0 17 11v-1z"/><path d="M5.5 4L18 16.5 16.5 18 4 5.5z"/><path d="M5.5 4L18 16.5 16.5 18 4 5.5z"/></g></svg>