<svg xmlns="http://www.w3.org/2000/svg" width="22" height="22"><g fill="#d1d9e3"><path d="M7.5 4.5C5.02 4.5 3 6.52 3 9a4.5 4.5 0 0 0 4.5 4.5c1.91 0 3.6-1.2 4.24-3H15v1h3v-1h1v-3h-7.26a4.523 4.523 0 0 0-4.24-3zm0 3C8.33 7.5 9 8.17 9 9s-.67 1.5-1.5 1.5S6 9.83 6 9s.67-1.5 1.5-1.5z" opacity=".3"/><path d="M14 12.5v1c0 .28.1.54.28.72l.78.78-.78.78c-.18.19-.28.45-.28.72v1h1c.28 0 .54-.1.72-.28l.78-.78.78.78c.18.18.45.28.72.28h1v-1c0-.27-.1-.53-.28-.72l-.78-.78.78-.78c.18-.18.28-.44.28-.72v-1h-1c-.27 0-.54.1-.72.28l-.78.79-.78-.79c-.18-.18-.44-.28-.72-.28z"/></g></svg>