<svg xmlns="http://www.w3.org/2000/svg" width="22" height="22"><g fill="#d1d9e3"><path d="M7 11.5c-1.66 0-3 1.34-3 3s1.34 3 3 3c1.56 0 2.82-1.2 2.97-2.72.3-.18.66-.28 1.03-.28s.73.1 1.03.28c.15 1.52 1.41 2.72 2.97 2.72 1.66 0 3-1.34 3-3s-1.34-3-3-3c-1.39 0-2.54.97-2.87 2.25-.36-.14-.73-.25-1.13-.25-.4 0-.77.11-1.12.25C9.54 12.47 8.39 11.5 7 11.5zm0 1.25c.97 0 1.75.78 1.75 1.75S7.97 16.25 7 16.25s-1.75-.78-1.75-1.75.78-1.75 1.75-1.75zm8 0c.97 0 1.75.78 1.75 1.75s-.78 1.75-1.75 1.75-1.75-.78-1.75-1.75.78-1.75 1.75-1.75zM7 4.5l-.75 3h9.5l-.75-3-4 .5zm-1 4l-3 2h16l-3-2z"/></g></svg>