<svg xmlns="http://www.w3.org/2000/svg" width="22" height="22"><g fill="#d1d9e3"><path d="M14 12c-1.31 0-2.4.86-2.81 2.03C9.96 14.19 9 15.23 9 16.5a2.5 2.5 0 0 0 2.5 2.5h5a2.5 2.5 0 0 0 2.5-2.5c0-1.27-.96-2.31-2.19-2.47-.4-1.17-1.5-2.03-2.81-2.03z"/><path d="M10 3l-.5 1.03c.16-.01.33-.03.5-.03h.5zm0 2c-2.76 0-5 2.24-5 5 0 2.25 1.51 4.12 3.56 4.75.22-.32.49-.6.81-.84l.1-.07c.07-.05.15-.1.23-.14.26-.16.54-.3.83-.39.07-.14.15-.28.23-.41.47-.75 1.15-1.34 1.97-1.66h.01c.16-.07.34-.12.51-.15.04-.01.09-.03.13-.03.2-.04.41-.06.62-.06.15 0 .3.01.44.04.15.01.3.04.44.08.08-.36.12-.73.12-1.12 0-2.76-2.24-5-5-5zm-4.94.06l.35 1.07c.22-.26.46-.5.72-.72zm9.88 0l-1.1.38h-.06c.14.11.28.22.41.34.13.12.26.24.37.38zM4 9.5L3 10l1.03.5c-.01-.17-.03-.33-.03-.5v-.16l.03-.34zm11.97 0c.01.17.03.33.03.5v.16l-.03.34H16l1-.5zM5.44 13.84l-.38 1.1 1.1-.38h.06c-.14-.11-.28-.22-.41-.34-.13-.12-.26-.24-.37-.38z"/></g></svg>