<svg xmlns="http://www.w3.org/2000/svg" width="22" height="22"><g fill="#d1d9e3"><path d="M11 3C8.93 3 7.17 4.27 6.41 6.06 4.48 6.35 3 7.99 3 10c0 .73.2 1.41.54 2h-.02c.56.97 1.52 1.68 2.65 1.91l2.33-2.33 1.75 1.75c.18-.49.44-.94.79-1.29l2.46-2.46 2.46 2.46c.44.44.77 1.01.93 1.65h.02l.01-.01h.01l.01-.01A3.463 3.463 0 0 0 19 10.5c0-1.8-1.35-3.27-3.09-3.47C15.45 4.74 13.43 3 11 3z"/><path d="M13.5 11l-1.75 1.75c-.45.45-.75 1.06-.75 1.75 0 1.37 1.13 2.5 2.5 2.5s2.5-1.13 2.5-2.5c0-.69-.3-1.3-.75-1.75zm-5 2l-1.75 1.75C6.3 15.2 6 15.81 6 16.5 6 17.87 7.13 19 8.5 19s2.5-1.13 2.5-2.5c0-.69-.3-1.3-.75-1.75z"/></g></svg>