<svg xmlns="http://www.w3.org/2000/svg" height="22" width="22" version="1" id="svg6"><defs id="defs9"><style type="text/css" id="current-color-scheme"></style></defs><path d="M11 4c-3.878 0-7 3.122-7 7s3.122 7 7 7 7-3.122 7-7-3.122-7-7-7zM9.496 8.002a2.263 2.263 0 0 1 1.502.637c.33.317.477.589.975 1.79.52 1.258.615 1.454.783 1.622.18.178.348.238.668.238.525 0 .9-.33.9-.791 0-.39-.134-.514-.822-.762-1.047-.383-1.385-.73-1.387-1.425 0-.372.093-.62.328-.877.338-.367.92-.487 1.436-.305.22.08.682.493.682.611 0 .058-.268.234-.416.276-.079.02-.145-.006-.235-.094-.183-.178-.306-.235-.525-.235-.378 0-.614.231-.614.604 0 .371.15.497.895.752 1.026.352 1.328.671 1.334 1.406.006.635-.276 1.092-.836 1.364-.255.122-.342.138-.758.138-.594-.001-.86-.113-1.193-.494-.224-.256-.45-.738-1.178-2.494-.302-.728-.69-1.084-1.336-1.225a1.755 1.755 0 0 0-1.08.155c-.29.153-.613.5-.765.818-.127.258-.137.33-.137.777 0 .428.015.53.12.764.161.358.477.687.823.865.25.128.327.145.727.145.383 0 .482-.018.71-.13.262-.129.613-.447.757-.685l.074-.123.146.342c.082.188.149.365.149.397 0 .094-.333.402-.637.593-.462.29-.992.397-1.559.319v.002a2.57 2.57 0 0 1-.634-.21c-1.238-.602-1.745-2.118-1.135-3.396a2.388 2.388 0 0 1 2.238-1.369z" id="path4" color="#d3dae3" opacity="1" fill="currentColor" fill-opacity="1"/></svg>