<svg xmlns="http://www.w3.org/2000/svg" id="Capa_1" xml:space="preserve" viewBox="0 0 16 16" height="22" width="22" version="1.1" y="0" x="0"><defs id="defs7"><style type="text/css" id="current-color-scheme"></style></defs><path id="path3" d="M13.667 11.603a.277.277 0 0 0-.258.112l-.401-.052.578-.594c.094.025.198 0 .27-.077a.303.303 0 0 0 0-.416.274.274 0 0 0-.399 0 .302.302 0 0 0-.073.28l-.517.532.172-.683a.284.284 0 0 0 .195-.203.295.295 0 0 0-.201-.359.281.281 0 0 0-.345.21.298.298 0 0 0 .074.276l-.187.742-.212-.798a.298.298 0 0 0 .07-.277.281.281 0 0 0-.346-.205c-.268.077-.284.478 0 .561l.166.627-1.086.49.267-1.222a.941.941 0 0 0 .014-.136c.015-.548-.472-1.053-1.129-.818-.032.012.005-.01-.672.363.157-.647.266-1.338.316-1.99.73.463 1.024-.05 1.103-.272.011-.03.892-2.772.892-2.772l.603-.631a.27.27 0 0 0 .266-.073.303.303 0 0 0 0-.416.274.274 0 0 0-.4 0 .299.299 0 0 0-.069.278l-.525.548.176-.697a.284.284 0 0 0 .195-.203.295.295 0 0 0-.201-.359.281.281 0 0 0-.345.21.298.298 0 0 0 .074.276l-.187.741-.211-.797a.298.298 0 0 0 .07-.277.281.281 0 0 0-.346-.206.296.296 0 0 0-.197.362.284.284 0 0 0 .196.2l.195.734-.945 1.926a48.727 48.727 0 0 1-.392-.41 3.965 3.965 0 0 0-.368-1.19.6.6 0 0 0 .105-.34.575.575 0 0 0-.563-.586A.54.54 0 0 0 9 4.02l-.32-.333c.002-.02.007-.039.007-.059 0-.396-.308-.72-.688-.72-.38 0-.687.324-.687.72 0 .02.004.04.006.06l-.32.332c-.028-.004-.057-.01-.087-.01a.575.575 0 0 0-.563.588.6.6 0 0 0 .105.339 3.965 3.965 0 0 0-.368 1.19l-.21.22-.183.19-.944-1.926.194-.734a.284.284 0 0 0 .197-.2.296.296 0 0 0-.197-.362.281.281 0 0 0-.347.206.298.298 0 0 0 .07.277l-.21.797-.188-.742a.298.298 0 0 0 .074-.276.281.281 0 0 0-.345-.21.295.295 0 0 0-.2.36.285.285 0 0 0 .193.202l.177.698-.525-.549a.299.299 0 0 0-.07-.277.274.274 0 0 0-.398 0c-.11.114-.111.3 0 .416a.27.27 0 0 0 .265.073l.603.63s.881 2.743.892 2.773c.08.221.373.735 1.103.272.05.652.159 1.342.316 1.99-.677-.374-.64-.352-.672-.364-.657-.235-1.144.27-1.129.82 0 .046.013.141.014.135l.267 1.221-1.085-.49.165-.626c.284-.084.268-.485 0-.562a.281.281 0 0 0-.347.206.298.298 0 0 0 .07.277l-.21.797-.188-.741a.298.298 0 0 0 .074-.276.281.281 0 0 0-.345-.21.295.295 0 0 0-.2.36.284.284 0 0 0 .194.202l.172.683-.517-.531a.302.302 0 0 0-.073-.28.274.274 0 0 0-.4-.001c-.11.114-.11.3 0 .416.073.077.177.102.27.077l.579.594-.401.052a.277.277 0 0 0-.258-.112.292.292 0 0 0-.245.328c.019.161.16.276.315.256a.284.284 0 0 0 .223-.175l.628-.082 1.87 1.083a.572.572 0 0 0 .62-.029.628.628 0 0 0 .256-.59l-.143-1.149c.037.026 1.021.732 1.52 1.086.196.222.406.354.623.354.218 0 .428-.132.624-.354.499-.354 1.483-1.06 1.52-1.086l-.143 1.149c-.029.231.07.46.255.59.185.131.425.142.62.03l1.871-1.084.628.082c.038.092.12.161.223.175a.285.285 0 0 0 .315-.256.292.292 0 0 0-.245-.328z" color="#d3dae3" fill="currentColor" stroke-width=".848"/></svg>