<svg xmlns="http://www.w3.org/2000/svg" id="svg3049" height="22" width="22" version="1.1"><defs id="defs8"><style type="text/css" id="current-color-scheme"></style></defs><path d="M2.6 4c-.776 0-1.4.624-1.4 1.4v11.2c0 .776.624 1.4 1.4 1.4h16.8c.776 0 1.4-.624 1.4-1.4V5.4c0-.776-.624-1.4-1.4-1.4zm5.6 2.8a4.2 4.2 0 1 1 0 8.4 4.2 4.2 0 0 1 0-8.4zm0 1.4A2.8 2.8 0 0 0 5.4 11a2.8 2.8 0 0 0 2.8 2.8A2.8 2.8 0 0 0 11 11a2.8 2.8 0 0 0-2.8-2.8zm5.6 0h5.6v1.4h-5.6zm0 2.8h5.6v1.4h-5.6zm0 2.8h5.6v1.4h-5.6z" id="path4151" color="#d3dae3" fill="currentColor" stroke-width="1.4"/></svg>