<svg xmlns="http://www.w3.org/2000/svg" id="svg7384" height="22" width="22" version="1.1" enable-background="new"><defs id="defs7386"><filter id="filter7554-9" color-interpolation-filters="sRGB"><feBlend id="feBlend7556-5" in2="BackgroundImage" mode="darken"/></filter><style type="text/css" id="current-color-scheme"></style></defs><path d="M6.95 4c-.698 0-1.26.562-1.26 1.259V16.74c0 .697.562 1.259 1.26 1.259h8.1c.698 0 1.26-.562 1.26-1.259V5.26c0-.697-.562-1.259-1.26-1.259zm.431 1.849h7.238v7.315H7.38zM11 14.579a1.14 1.14 0 0 1 1.14 1.14A1.14 1.14 0 0 1 11 16.86a1.14 1.14 0 0 1-1.14-1.14A1.14 1.14 0 0 1 11 14.58z" id="rect4502" opacity="1" fill="#d3dae3" fill-opacity="1" stroke="none" stroke-width="1.687" stroke-linecap="round" stroke-linejoin="bevel" stroke-miterlimit="4" stroke-dasharray="none" stroke-opacity="1"/></svg>