<svg xmlns="http://www.w3.org/2000/svg" id="svg7384" height="22" width="22" version="1.1"><defs id="defs8"><style type="text/css" id="current-color-scheme"></style></defs><path d="M11 4.002a4.367 4.367 0 0 0-4.02 2.68 3.484 3.484 0 0 0-.19 6.863c.668-.682 1.33-1.367 2.022-2.024.502.471.992.962 1.477 1.45.213-.06.335-.74.629-.958a90.57 90.57 0 0 1 2.27-2.242c.583.547 1.13 1.104 1.695 1.668.523.5 1.074 1.053 1.258 1.778.014.044.015.091.027.136A3.034 3.034 0 0 0 18 10.564a3.054 3.054 0 0 0-2.707-3.035A4.385 4.385 0 0 0 11 4.002zm2.187 6.996l-.3.301-1.23 1.23c-.397.397-.657.93-.657 1.532 0 1.203.985 2.187 2.187 2.187a2.194 2.194 0 0 0 2.188-2.187c0-.602-.26-1.135-.656-1.531l-1.23-1.23-.302-.302zm-4.375 1.75l-.3.301-1.23 1.23c-.397.397-.657.93-.657 1.532 0 1.203.985 2.187 2.187 2.187A2.194 2.194 0 0 0 11 15.811c0-.602-.26-1.135-.656-1.531l-1.23-1.23-.302-.302z" id="path5970" color="#d3dae3" fill="currentColor"/></svg>