<svg xmlns="http://www.w3.org/2000/svg" width="22" height="22" version="1.1" viewBox="0 0 16 16" id="svg7"><defs id="defs3"><style id="current-color-scheme" type="text/css"></style></defs><path d="M8 2.182A5.818 5.818 0 0 0 2.182 8 5.818 5.818 0 0 0 8 13.818a5.818 5.818 0 0 0 3.838-1.454H8A4.364 4.364 0 0 1 3.636 8 4.364 4.364 0 0 1 8 3.636v.728A3.636 3.636 0 0 0 4.364 8 3.636 3.636 0 0 0 8 11.636h4.536a5.818 5.818 0 0 0 .497-.727H8a2.91 2.91 0 0 1 0-5.818c.245 0 .49.033.727.095v.76A2.183 2.183 0 0 0 8 5.818a2.182 2.182 0 0 0 0 4.364h5.39a5.818 5.818 0 0 0 .235-.727H8A1.455 1.455 0 0 1 6.545 8 1.455 1.455 0 0 1 8 6.545a1.455 1.455 0 0 1 1.259.728H8A.727.727 0 0 0 7.273 8 .727.727 0 0 0 8 8.727h5.767A5.818 5.818 0 0 0 13.818 8 5.818 5.818 0 0 0 8 2.182z" id="path5" color="#5c616c" fill="#1e333d" stroke-width=".727" fill-opacity="1"/></svg>