<svg xmlns="http://www.w3.org/2000/svg" width="22" height="22" version="1.1" viewBox="0 0 16 16" id="svg7"><defs id="defs3"><style id="current-color-scheme" type="text/css"></style></defs><path d="M8 2.182c-1.842 0-3.325 1.513-3.325 3.376v1.61h-.83A.83.83 0 0 0 3.012 8v4.987c0 .46.37.831.831.831h8.312a.83.83 0 0 0 .831-.831V8a.83.83 0 0 0-.831-.831h-.831V5.558c0-1.862-1.483-3.376-3.325-3.376zm0 1.662c.92 0 1.662.74 1.662 1.662V7.17H6.338V5.506c0-.921.741-1.662 1.662-1.662z" id="path5" color="#5c616c" fill="#1e333d" stroke-width=".831" fill-opacity="1"/></svg>