<svg xmlns="http://www.w3.org/2000/svg" width="22" height="22" viewBox="0 0 16 16" version="1.1" id="svg7"><defs id="defs3"><style id="current-color-scheme" type="text/css"></style></defs><path d="M7.612 3.733A3.879 3.879 0 0 0 3.941 6.37a3.103 3.103 0 0 0-1.76 2.794 3.103 3.103 0 0 0 3.104 3.103 3.103 3.103 0 0 0 2.062-.79 3.879 3.879 0 0 0 .265.014 3.879 3.879 0 0 0 1.64-.368 3.103 3.103 0 0 0 1.463.368 3.103 3.103 0 0 0 3.103-3.103 3.103 3.103 0 0 0-3.103-3.103 3.103 3.103 0 0 0-.006 0 3.879 3.879 0 0 0-3.097-1.552z" id="path5" color="#5c616c" fill="#1e333d" stroke-width=".776" fill-opacity="1"/></svg>