<svg xmlns="http://www.w3.org/2000/svg" width="22" height="22" version="1.1" viewBox="0 0 16 16" id="svg7"><defs id="defs3"><style id="current-color-scheme" type="text/css"></style></defs><path d="M8 2.182c-1.612 0-2.91 1.324-2.91 2.954v.682h1.455v-.727A1.45 1.45 0 0 1 8 3.636a1.45 1.45 0 0 1 1.455 1.455V8H4.364a.726.726 0 0 0-.728.727v4.364c0 .403.325.727.728.727h7.272a.726.726 0 0 0 .728-.727V8.727A.726.726 0 0 0 11.636 8h-.727V5.136c0-1.63-1.297-2.954-2.909-2.954z" id="path5" color="#5c616c" fill="#1e333d" stroke-width=".727" fill-opacity="1"/></svg>