<svg xmlns="http://www.w3.org/2000/svg" width="22" height="22" version="1.1" viewBox="0 0 16 16" id="svg7"><defs id="defs3"><style id="current-color-scheme" type="text/css"></style></defs><path d="M2.182 9.132l2.187 1.263a2.182 2.182 0 1 0 4.347-.055l3.183-2.059a2.546 2.546 0 0 0 1.92-2.463 2.545 2.545 0 0 0-5.058-.406L6.96 8.405a2.186 2.186 0 0 0-.414-.041c-.329 0-.654.076-.95.22L2.182 6.613M11.272 4a1.818 1.818 0 1 1 .001 3.636 1.818 1.818 0 0 1 0-3.636zm0 .727a1.091 1.091 0 1 0 .001 2.183 1.091 1.091 0 0 0 0-2.183zM6.546 9.091a1.454 1.454 0 1 1-1.424 1.737l.513.297a1.088 1.088 0 0 0 1.49-.4 1.088 1.088 0 0 0-.4-1.49l-.245-.141.066-.003z" id="path5" color="#5c616c" fill="#1e333d" stroke-width=".727" fill-opacity="1"/></svg>