<svg xmlns="http://www.w3.org/2000/svg" width="22" height="22" viewBox="0 0 16 16" version="1.1" id="svg7"><defs id="defs3"><style id="current-color-scheme" type="text/css"></style></defs><path d="M9.164 4.121a3.1 3.1 0 0 0-2.762 1.696 1.938 1.938 0 0 0-2.648 1.536 2.327 2.327 0 0 0 .756 4.526h6.98a2.327 2.327 0 0 0 .77-4.521c.004-.045.006-.09.007-.134a3.103 3.103 0 0 0-3.103-3.103zm0 1.55v.002c.874 0 1.548.675 1.55 1.548l-.002.034a1.552 1.552 0 0 0 1.035 1.568c.316.11.52.395.52.73-.001.446-.33.774-.776.774H4.509a.752.752 0 0 1-.774-.774.766.766 0 0 1 .523-.732 1.552 1.552 0 0 0 1.033-1.26.37.37 0 0 1 .382-.337c.049 0 .097.009.142.028a1.552 1.552 0 0 0 1.97-.73c.266-.524.795-.85 1.379-.85z" id="path5" color="#5c616c" fill="#1e333d" stroke-width=".776" fill-opacity="1"/></svg>