<svg xmlns="http://www.w3.org/2000/svg" width="22" height="22" viewBox="0 0 16 16" version="1.1" id="svg7"><defs id="defs3"><style id="current-color-scheme" type="text/css"></style></defs><path d="M6.534 2.127l-.13 1.546a4.614 4.614 0 0 0-1.348.78L3.65 3.791 2.182 6.334l1.276.887a4.614 4.614 0 0 0-.07.778 4.614 4.614 0 0 0 .067.782l-1.273.883 1.468 2.543 1.403-.66a4.614 4.614 0 0 0 1.351.774l.126 1.552h2.936l.13-1.546a4.614 4.614 0 0 0 1.348-.78l1.406.662 1.468-2.543-1.276-.887a4.614 4.614 0 0 0 .07-.778 4.614 4.614 0 0 0-.067-.782l1.273-.883-1.468-2.543-1.403.66a4.614 4.614 0 0 0-1.351-.774L9.47 2.127zM8.002 6.32A1.678 1.678 0 0 1 9.68 8a1.678 1.678 0 0 1-1.678 1.678 1.678 1.678 0 0 1-1.678-1.678 1.678 1.678 0 0 1 1.678-1.678z" id="path5" color="#5c616c" fill="#1e333d" stroke-width=".839" fill-opacity="1"/></svg>