<svg xmlns="http://www.w3.org/2000/svg" width="22" height="22" version="1.1" viewBox="0 0 16 16" id="svg9"><defs id="defs3"><style id="current-color-scheme" type="text/css"></style></defs><g id="g4492" transform="matrix(.83117 0 0 .83117 1.35 1.766)" fill-opacity="1" stroke="none" stroke-opacity="1"><path id="path5" d="M1 2v11s0 1 1 1h12s1 0 1-1V4c0-1-1-1-1-1H9L7 1H2S1 1 1 2z" color="#5c616c" fill="#1e333d"/><path id="path7" d="M2 1s-.092.009-.21.033L15 8.66v-2L5.195 1zM1 2.578v2l14 8.082v-2zM12.125 3L15 4.66V4c0-1-1-1-1-1zM1 6.578v2L10.393 14h3.462zm0 4v2L3.465 14h3.463z" opacity=".2" fill="#cdd8dd"/></g></svg>