<svg xmlns="http://www.w3.org/2000/svg" width="22" height="22" version="1.1" viewBox="0 0 16 16" id="svg7"><defs id="defs3"><style id="current-color-scheme" type="text/css"></style></defs><path d="M11.972 2.182c-2.46 0-2.923 3.324-1.538 3.324 1.383 0 4-3.324 1.538-3.324zm-3.781.831c-.04 0-.082.004-.126.008-1.408.17-.914 2.443-.163 2.485.725.042 1.52-2.486.29-2.493zm-2.568.831c-.101-.004-.213.01-.337.04-1.318.334-.2 1.71.538 1.618.67-.084.767-1.619-.201-1.658zM3.785 5.506a.869.869 0 0 0-.382.088C2.32 6.106 3.77 7.34 4.407 7.15c.557-.168.202-1.624-.622-1.644zm5.055.832c-1.94-.031-4.498.885-4.935 2.725-.473 1.992 1.947 4.755 4.469 4.755 1.24 0 2.672-.558 2.94-1.894.203-1.02-2.57-.58-2.476.094.113.809-.468.68-1.195.159-2.136-1.683 3.832-2.486 3.427-4.753-.125-.706-1.066-1.066-2.23-1.085z" id="path5" color="#5c616c" fill="#1e333d" stroke-width=".831" fill-opacity="1"/></svg>