<svg xmlns="http://www.w3.org/2000/svg" width="22" height="22" version="1.1" viewBox="0 0 16 16" id="svg7"><defs id="defs3"><style id="current-color-scheme" type="text/css"></style></defs><path d="M7.34 3.653c-2.586 0-1.985 2.363-3.309 3.074-.045.026-.071.05-.112.075.873-.52 1.95-.954 3.092-1.248a12.616 12.616 0 0 1 2.925-.406c-.873-.249-.968-1.495-2.596-1.495zm2.818 2.15c-.906.017-1.887.157-2.855.406-3.19.82-5.464 2.606-5.079 3.987.223.79 1.293 1.31 2.888 1.405 0-.006-.002-.011-.003-.017-.086-.747.388-1.397.944-1.837.555-.44 1.27-.76 2.072-.93.803-.17 1.554-.162 2.182.027.59.177 1.146.565 1.283 1.231 1.598-.896 2.428-1.977 2.187-2.85-.254-.916-1.642-1.461-3.62-1.423zm-.949 3.634a1.352 2.601 76.001 0 0-1.001.104 1.352 2.601 76.001 0 0-2.385 1.89 1.352 2.601 76.001 0 0 2.697.812 1.352 2.601 76.001 0 0 2.384-1.89 1.352 2.601 76.001 0 0-1.695-.916z" id="path5" color="#5c616c" fill="#1e333d" stroke-width=".727" fill-opacity="1"/></svg>