<svg xmlns="http://www.w3.org/2000/svg" width="22" height="22" viewBox="0 0 16 16" version="1.1" id="svg7"><defs id="defs3"><style id="current-color-scheme" type="text/css"></style></defs><path d="M8 2.182a5.818 5.818 0 1 0 0 11.636A5.818 5.818 0 0 0 8 2.182zm-.416 1.61c.056-.006.126.004.182 0 .007.027-.04.121-.104.26-.403.882-.426 1.915-.052 2.468.068.1.13.195.13.207 0 .013-.073.026-.156.026-.194 0-.377-.118-.753-.415-.167-.132-.383-.243-.467-.26-.132-.026-.167-.015-.338.156-.159.158-.208.244-.208.39 0 .55.654.988 1.87 1.246 1.652.35 2.059.664 2.104 1.533.057 1.088-.522 1.91-1.792 2.545-.152.076-.248.105-.312.13-.028-.003-.05.002-.078 0a.925.925 0 0 1-.026-.26c0-.578-.227-1.173-.57-1.506a4.37 4.37 0 0 0-.572-.416c-.221-.137-.444-.296-.494-.363-.082-.113-.09-.182-.026-.39.116-.38.253-.591.52-.831.14-.126.28-.232.311-.234.031-.003-.178-.066-.493-.13a8.855 8.855 0 0 1-1.013-.286C4.812 7.505 4.224 7.174 4 6.935l-.026-.026A4.177 4.177 0 0 1 6.39 4.078c.25-.106.507-.178.779-.234.135-.027.276-.037.416-.052zm3.897 1.948c.097.06.466.858.57 1.247.137.502.127 1.371 0 1.87-.047.19-.108.368-.129.39-.02.022-.095-.105-.182-.26-.087-.154-.366-.483-.597-.727-.669-.705-.774-1.074-.494-1.637.142-.283.756-.93.832-.883z" id="path5" color="#5c616c" fill="#1e333d" stroke-width=".831" fill-opacity="1"/></svg>