<svg xmlns="http://www.w3.org/2000/svg" width="22" height="22" viewBox="0 0 16 16" version="1.1" id="svg7"><defs id="defs3"><style id="current-color-scheme" type="text/css"></style></defs><path d="M4.277 2.182l-.547.549 1.092 1.093a1.941 1.941 0 0 0-.319 1.064A1.941 1.941 0 0 0 6.056 6.79v3.188a1.941 1.941 0 0 0-1.553 1.899 1.941 1.941 0 0 0 1.942 1.941 1.941 1.941 0 0 0 1.941-1.941 1.941 1.941 0 0 0-1.553-1.902V6.787a1.941 1.941 0 0 0 .675-.275L8.705 7.71a1.941 1.941 0 0 0-.317 1.063 1.941 1.941 0 0 0 1.94 1.941 1.941 1.941 0 0 0 1.942-1.941 1.941 1.941 0 0 0-1.941-1.941 1.941 1.941 0 0 0-1.077.327l-1.19-1.192a1.941 1.941 0 0 0 .326-1.077 1.941 1.941 0 0 0-1.942-1.941 1.941 1.941 0 0 0-1.075.327L4.279 2.183z" id="path5" color="#5c616c" fill="#1e333d" stroke-width=".777" fill-opacity="1"/></svg>