<svg xmlns="http://www.w3.org/2000/svg" width="22" height="22" version="1.1" viewBox="0 0 16 16" id="svg7"><defs id="defs3"><style id="current-color-scheme" type="text/css"></style></defs><path d="M8 2.182A5.818 5.818 0 0 0 2.182 8 5.818 5.818 0 0 0 8 13.818 5.818 5.818 0 0 0 13.818 8 5.818 5.818 0 0 0 8 2.182zm0 1.662A4.156 4.156 0 0 1 12.156 8 4.156 4.156 0 0 1 8 12.156 4.156 4.156 0 0 1 3.844 8 4.156 4.156 0 0 1 8 3.844zm-.831 1.662v3.325h3.325V7.17H8.83V5.506z" id="path5" color="#5c616c" fill="#1e333d" stroke-width=".831" fill-opacity="1"/></svg>