<svg xmlns="http://www.w3.org/2000/svg" width="22" height="22" version="1.1" viewBox="0 0 16 16" id="svg7"><defs id="defs3"><style id="current-color-scheme" type="text/css"></style></defs><path d="M13.818 8.727V8A5.818 5.818 0 1 0 8 13.818h3.437s.719-.103.719-.831-.72-.831-.72-.831H8A4.156 4.156 0 1 1 12.156 8a4.15 4.15 0 0 1-.353 1.662h-.928A3.327 3.327 0 0 0 11.325 8 3.325 3.325 0 1 0 8 11.325h3.553c1.215 0 2.265-1.393 2.265-2.598zM8 6.337a1.662 1.662 0 1 1 0 3.325 1.662 1.662 0 0 1 0-3.324z" id="path5" color="#5c616c" fill="#1e333d" stroke-width=".831" fill-opacity="1"/></svg>