<svg xmlns="http://www.w3.org/2000/svg" width="22" height="22" viewBox="0 0 16 16" version="1.1" id="svg7"><defs id="defs3"><style id="current-color-scheme" type="text/css"></style></defs><path d="M6.545 3.273a2.182 2.182 0 1 0 0 4.363 2.182 2.182 0 0 0 0-4.363zm3.634 1.415l.003.002c-.283 0-.548.065-.789.174a2.887 2.887 0 0 1-.8 2.647c.335.51.917.851 1.586.851 1.042 0 1.886-.822 1.886-1.836 0-1.015-.844-1.839-1.886-1.839zm-3.634 4.4C2.182 9.091 2.182 12 2.182 12v.727h8.727V12s0-2.916-4.364-2.91zm3.637.001v.002c-.143 0-.27.01-.402.016.507.29.894.637 1.166 1 .684.917.69 1.892.69 1.892h2.182v-.728s0-2.182-3.636-2.182z" id="path5" color="#5c616c" fill="#1e333d" stroke-width=".727" fill-opacity="1"/></svg>