<svg xmlns="http://www.w3.org/2000/svg" width="22" height="22"><path d="M11 3c-4.423 0-8 3.577-8 8s3.577 8 8 8 8-3.577 8-8-3.577-8-8-8zm-.571 2.217c.08-.011.171 0 .251 0 .011.034-.057.16-.149.354-.548 1.212-.582 2.629-.068 3.395.091.137.183.263.183.285 0 .012-.103.035-.217.035-.263 0-.515-.16-1.04-.572-.229-.183-.526-.331-.64-.354-.183-.034-.229-.023-.469.206-.217.228-.286.343-.286.537 0 .766.903 1.36 2.572 1.714 2.274.48 2.834.914 2.903 2.114.08 1.498-.72 2.629-2.469 3.498-.206.102-.343.148-.434.182-.035-.011-.057 0-.103 0a1.537 1.537 0 0 1-.034-.365c0-.789-.309-1.612-.789-2.069-.126-.126-.48-.377-.777-.571-.309-.183-.617-.4-.686-.503-.114-.149-.126-.24-.034-.537.16-.515.343-.812.72-1.143.183-.172.377-.309.423-.32.045 0-.252-.092-.675-.172a10.861 10.861 0 0 1-1.394-.4c-.606-.217-1.406-.662-1.714-.994l-.034-.034a5.744 5.744 0 0 1 3.314-3.897 5.56 5.56 0 0 1 1.074-.32c.183-.035.377-.057.572-.069zm5.36 2.674c.125.08.64 1.178.777 1.715.194.697.183 1.885 0 2.571a2.62 2.62 0 0 1-.172.537c-.034.035-.137-.148-.251-.354-.114-.217-.503-.663-.823-1.006-.914-.971-1.063-1.474-.674-2.251.194-.389 1.04-1.269 1.143-1.212z" fill="#1e333d"/></svg>