<svg xmlns="http://www.w3.org/2000/svg" width="32" height="32"><path d="M21.187 2H7.536A5.523 5.523 0 0 0 2 7.534v16.93A5.525 5.525 0 0 0 7.536 30h16.93A5.523 5.523 0 0 0 30 24.464V10.813z" fill="#df4440" fill-rule="evenodd"/><path d="M30 10.813L21.187 2v3.279a5.521 5.521 0 0 0 5.534 5.534z" fill="#f7d0cf" fill-rule="evenodd"/><g fill="#f7d0cf"><path d="M16 12.014c-1.105 0-2 .9-2 2v4c0 1.1.895 2 2 2s2-.9 2-2v-4c0-1.1-.895-2-2-2zm0 1c.552 0 1 .4 1 1 0 .5-.448 1-1 1s-1-.5-1-1c0-.6.448-1 1-1zm0 3a1 1 0 0 1 1 1v1a1 1 0 1 1-2 0v-1a1 1 0 0 1 1-1zM15 2.014v1h1v-1zm0 2v1h1v-1zm0 2v1h1v-1zm0 2v1h1v-1zm0 2v1h1v-1zM16 3.014v1h1v-1zm0 2v1h1v-1zm0 2v1h1v-1zm0 2v1h1v-1zm0 2v1h1v-1z"/></g><path d="M23.306 19.272a4.082 4.082 0 0 0-4.082 4.082 4.082 4.082 0 0 0 4.082 4.082 4.082 4.082 0 0 0 4.082-4.082 4.082 4.082 0 0 0-4.082-4.082zm0 .68a3.402 3.402 0 0 1 3.402 3.402 3.402 3.402 0 0 1-3.402 3.402 3.402 3.402 0 0 1-3.402-3.402 3.402 3.402 0 0 1 3.402-3.402zm0 .68a2.722 2.722 0 0 0-1.74.632l.435.523a2.041 2.041 0 0 1 1.305-.474 2.041 2.041 0 0 1 2.041 2.041h.68a2.722 2.722 0 0 0-2.72-2.722zm.68 1.361l-1.09 2.18a.68.68 0 0 0-.27.542.68.68 0 0 0 .68.68.68.68 0 0 0 .68-.68.68.68 0 0 0-.171-.45zm-3.04.012a2.722 2.722 0 0 0-.362 1.35h.68a2.041 2.041 0 0 1 .272-1.012z" fill="#fcbcbe"/></svg>