<svg xmlns="http://www.w3.org/2000/svg" width="32" height="32"><g fill-rule="evenodd"><path d="M21.187 2H7.536A5.523 5.523 0 0 0 2 7.534v16.93A5.525 5.525 0 0 0 7.536 30h16.93A5.523 5.523 0 0 0 30 24.464V10.813z" fill="#f59d15"/><path d="M30 10.813L21.187 2v3.279a5.521 5.521 0 0 0 5.534 5.534z" fill="#fde1a6"/></g><path d="M15.32 9.044v1.528c-1.144.106-2.046.395-2.715.935-.737.586-1.105 1.456-1.105 2.588 0 1.583.947 2.61 2.886 3.098l.935.256v5.009c-1.205-.108-2.335-.371-3.396-.891l-.467 1.23c.432.265 1.022.515 1.74.721.632.176 1.342.253 2.123.298v1.528h1.358v-1.528c1.155-.093 2.082-.444 2.759-1.06.725-.657 1.102-1.608 1.104-2.845 0-1-.272-1.75-.807-2.293-.535-.547-1.34-.94-2.377-1.188l-.679-.17v-4.414c.524.04 1.069.113 1.57.256a5.81 5.81 0 0 1 1.358.551l.425-1.23c-.869-.542-1.984-.866-3.353-.935V9.044H15.66zm-.297 2.844c.089-.015.203.011.298 0v4.033l-.382-.086c-.638-.155-1.12-.386-1.443-.679-.317-.299-.468-.7-.468-1.188 0-1.163.656-1.856 1.995-2.08m1.656 5.858l.255.086c.783.195 1.32.461 1.614.806.299.34.424.806.425 1.359 0 1.538-.765 2.356-2.293 2.504z" color="#4d4d4d" fill="#fddda3"/></svg>