<svg xmlns="http://www.w3.org/2000/svg" width="32" height="32"><g fill-rule="evenodd"><path d="M21.187 2H7.536A5.523 5.523 0 0 0 2 7.534v16.93A5.525 5.525 0 0 0 7.536 30h16.93A5.523 5.523 0 0 0 30 24.464V10.813z" fill="#f49d14"/><path d="M30 10.813L21.187 2v3.279a5.521 5.521 0 0 0 5.534 5.534z" fill="#fde0a5"/></g><path d="M16 10.358a3.41 3.41 0 0 0-3.418 3.418v1.14h1.14v-1.14c0-1.656.858-2.278 2.278-2.278s2.279.622 2.279 2.278v3.418h-7.976v6.836h11.394v-6.836h-2.28v-3.418A3.41 3.41 0 0 0 16 10.358m-4.557 7.975h9.114v4.558h-9.114z" fill="#fddda3"/></svg>