<svg xmlns="http://www.w3.org/2000/svg" width="32" height="32"><g fill-rule="evenodd"><path d="M21.187 2H7.536A5.523 5.523 0 0 0 2 7.534v16.93A5.525 5.525 0 0 0 7.536 30h16.93A5.523 5.523 0 0 0 30 24.464V10.813z" fill="#933f8a"/><path d="M30 10.813L21.187 2v3.279a5.521 5.521 0 0 0 5.534 5.534z" fill="#deb9db"/></g><path d="M11 11.075c-.554 0-1 .446-1 1v10c0 .554.446 1 1 1h8c.554 0 1-.446 1-1h1c.554 0 1-.446 1-1v-2a.976.976 0 0 0-.152-.5.976.976 0 0 0 .152-.5v-2a.976.976 0 0 0-.152-.5.976.976 0 0 0 .152-.5v-2c0-.554-.446-1-1-1h-1c0-.554-.446-1-1-1zm0 1h8v10h-8zm1 1v2h6v-2zm8 0h1v2h-1zm-8 3v1h6v-1zm8 0h1v2h-1zm-8 2v1h6v-1zm8 1h1v2h-1zm-8 1v1h6v-1z" opacity=".75" fill="#fff"/></svg>