<svg xmlns="http://www.w3.org/2000/svg" width="32" height="32"><path d="M16.613 30L11 24.385 5.744 29.64c.568.196 1.155.36 1.791.36zM30 18.047L18.047 30h6.418A5.525 5.525 0 0 0 30 24.463z" fill="#13a553" fill-rule="evenodd"/><path d="M30 15.233l-12.67 12.67-6.33-6.33-7.035 7.033v.01a5.425 5.425 0 0 0 1.78 1.025L11 24.385 16.613 30h1.434L30 18.047z" fill="#7ada81" fill-rule="evenodd"/><path d="M7.535 2A5.521 5.521 0 0 0 2 7.533v16.93c0 1.685.785 3.139 1.965 4.152v-.01L11 21.573l6.33 6.33L30 15.232v-4.42L21.187 2z" fill="#13a553" fill-rule="evenodd"/><path d="M30 10.813L21.187 2v3.279a5.521 5.521 0 0 0 5.534 5.534z" fill="#108844" fill-rule="evenodd"/></svg>