<svg xmlns="http://www.w3.org/2000/svg" width="32" height="32"><g fill-rule="evenodd"><path d="M21.187 2H7.536A5.523 5.523 0 0 0 2 7.534v16.93A5.525 5.525 0 0 0 7.536 30h16.93A5.523 5.523 0 0 0 30 24.464V10.813z" fill="#fc8989"/><path d="M30 10.813L21.187 2v3.279a5.521 5.521 0 0 0 5.534 5.534z" fill="#784949"/></g><path d="M7.844 7.248c-.04-.003-.073.004-.093.025-.66.661 8.376 8.957 8.376 8.957l3.386 3.222c-1.092 2.548 2.33 2.59 3.068 3.881.324.567-.07 1.336-.66 1.375 1.172.387 2.75-1.863 2.275-3.134-.566-1.517-1.14-2.175-2.218-2.635-.445-.19-1.575-.205-1.97.017l-3.138-3.469S9.127 7.36 7.84 7.248m1.427 8.05c-.3.001-.392.435-.392 1.028.057 1.174.8 4.598 4.486 7.092 3.105 2.101 8.787 1.343 8.695.15-1.249-1.553-3.34-.585-3.367-4.3-1.215.008-2.524-.18-2.475.33.204 2.143-3.193.597-4.51-1.588-1.322-2-2.05-2.715-2.437-2.713m4.841 2.643c-.2 0-.363.066-.44.2-.153.264.095.696.556.962.461.266.96.267 1.112.001.153-.265-.096-.697-.557-.963-.23-.133-.67.001-.67-.2" fill="#784949"/></svg>