<svg xmlns="http://www.w3.org/2000/svg" width="32" height="32"><g fill-rule="evenodd"><path d="M21.187 2H7.536A5.523 5.523 0 0 0 2 7.534v16.93A5.525 5.525 0 0 0 7.536 30h16.93A5.523 5.523 0 0 0 30 24.464V10.813z" fill="#d4d4d4"/><path d="M30 10.813L21.187 2v3.279a5.521 5.521 0 0 0 5.534 5.534z" fill="#b3b3b3"/></g><path d="M16 9.522a7.552 7.552 0 0 0-7.552 7.553A7.552 7.552 0 0 0 16 24.627a7.552 7.552 0 0 0 7.552-7.552A7.552 7.552 0 0 0 16 9.522m0 1.26a6.294 6.294 0 1 1-.001 12.588A6.294 6.294 0 0 1 16 10.78m-1.259 1.259v6.293h6.294v-1.258H16V12.04z" opacity=".5" fill="gray"/></svg>