<svg xmlns="http://www.w3.org/2000/svg" width="32" height="32"><g fill-rule="evenodd"><path d="M21.187 2H7.536A5.523 5.523 0 0 0 2 7.534v16.93A5.525 5.525 0 0 0 7.536 30h16.93A5.523 5.523 0 0 0 30 24.464V10.813z" fill="#6c6c6c"/><path d="M30 10.813L21.187 2v3.279a5.521 5.521 0 0 0 5.534 5.534z" fill="#b8b8b8"/></g><path d="M16 10.836a6 6 0 1 0 0 12 6 6 0 0 0 0-12m0 1a5 5 0 1 1-.001 10 5 5 0 0 1 .001-10m0 1a4 4 0 0 0-4 4h2a2 2 0 0 1 2-2zm0 3a1 1 0 0 0-1 1 1 1 0 0 0 1 1 1 1 0 0 0 1-1 1 1 0 0 0-1-1m2 1a2 2 0 0 1-2 2v2a4 4 0 0 0 4-4z" color="#000" fill="#b8b8b8"/></svg>