<svg xmlns="http://www.w3.org/2000/svg" xmlns:xlink="http://www.w3.org/1999/xlink" width="32" height="32"><defs><linearGradient id="b" y1="392.36" y2="365.36" x2="0" gradientUnits="userSpaceOnUse" gradientTransform="translate(309.57 152.44)"><stop stop-color="#fff" stop-opacity="0"/><stop offset="1" stop-color="#fff" stop-opacity=".2"/></linearGradient><path id="a" d="M389.57 545.8v-28h15l7 7v21h-14z"/></defs><use height="100%" width="100%" xlink:href="#a" transform="translate(-367.572 -516.802)" fill="url(#b)"/><path d="M21.187 2H7.536A5.523 5.523 0 0 0 2 7.534v16.93A5.525 5.525 0 0 0 7.536 30h16.93A5.523 5.523 0 0 0 30 24.464V10.813z" fill-rule="evenodd" fill="#4ac5e0"/><path d="M30 10.813L21.187 2v3.279a5.521 5.521 0 0 0 5.534 5.534z" fill="#abe4f1" fill-rule="evenodd"/><path d="M12 10.956v3h1v1.65a1.5 1.5 0 0 0-1 1.412 1.5 1.5 0 0 0 1 1.413v1.525h-1v3h3v-1.81a7 6 0 0 0 5 1.81v-1a6 5 0 0 1-5.77-3.632 1.5 1.5 0 0 0 .77-1.306 1.5 1.5 0 0 0-.799-1.323A6 5 0 0 1 20 11.955v-1a7 6 0 0 0-5 1.803v-1.803zm1 1h1v1h-1zm0 9h1v1h-1z" color="#4d4d4d" opacity=".9" fill="#abe4f1" fill-rule="evenodd"/></svg>