<svg xmlns="http://www.w3.org/2000/svg" width="32" height="32" version="1"><path d="M21.187 2H7.536A5.523 5.523 0 0 0 2 7.534v16.93A5.525 5.525 0 0 0 7.536 30h16.93A5.523 5.523 0 0 0 30 24.464V10.813z" fill="#e74c3c" fill-rule="evenodd"/><path d="M30 10.813L21.187 2v3.279a5.521 5.521 0 0 0 5.534 5.534z" fill="#be3f31" fill-rule="evenodd"/><path d="M21.585 13.157c-2.727.05-3.103 2.472-3.103 2.472h1.862v2.492H17.24c-1.919 6.086-6.826 6.196-6.826 6.196v-2.473s2.916.4 4.344-4.964c1.786-6.71 6.826-6.205 6.826-6.205z" fill="#fbb388"/></svg>