<svg xmlns="http://www.w3.org/2000/svg" width="32" height="32"><g fill-rule="evenodd"><path d="M21.187 2H7.536A5.523 5.523 0 0 0 2 7.534v16.93A5.525 5.525 0 0 0 7.536 30h16.93A5.523 5.523 0 0 0 30 24.464V10.813z" fill="#3b549e"/><path d="M30 10.813L21.187 2v3.279a5.521 5.521 0 0 0 5.534 5.534z" fill="#b9c4e4"/></g><path d="M10 11.955c-.554 0-1 .446-1 1v8c0 .554.446 1 1 1h12c.554 0 1-.446 1-1v-8c0-.554-.446-1-1-1zm0 1h.293l3.641 3.641-3.736 4.36h-.197zm1.707 0h8.586L16 17.248zm10 0H22v8h-.197l-3.736-4.359zm-7.06 4.35l1.357 1.357 1.357-1.357 3.127 3.65h-8.971z" opacity=".75" fill="#fff"/></svg>