<svg xmlns="http://www.w3.org/2000/svg" width="32" height="32"><path d="M21.187 2H7.536A5.523 5.523 0 0 0 2 7.534v16.93A5.525 5.525 0 0 0 7.536 30h16.93A5.523 5.523 0 0 0 30 24.464V10.813z" fill="#1fa5cd" fill-rule="evenodd"/><path d="M30 10.813L21.187 2v3.279a5.521 5.521 0 0 0 5.534 5.534z" fill="#55c9fa" fill-rule="evenodd"/><path d="M14.077 25.17a.54.54 0 0 1-.147-.138c-.027-.042-.133-.5-.236-1.019-.103-.518-.2-.953-.217-.966a3.445 3.445 0 0 0-.317-.15 7.576 7.576 0 0 1-1.216-.707l-.237-.175-.913.305c-.503.168-.962.305-1.022.305-.246 0-.28-.047-1.188-1.62-.48-.833-.892-1.568-.915-1.634-.085-.243-.014-.336.795-1.047l.748-.656-.031-.218c-.039-.27-.04-1.154-.004-1.545l.028-.292-.724-.629c-.399-.346-.748-.67-.776-.72-.123-.22-.09-.296.828-1.886.481-.834.91-1.554.953-1.601.158-.173.263-.158 1.275.182.9.302.945.313 1.027.252.516-.378 1.518-.944 1.673-.944.052 0 .044.033.255-1.054.176-.907.22-1.026.407-1.123.07-.035.531-.047 1.85-.048 1.898 0 1.949.004 2.08.204.034.052.138.49.232.972.212 1.095.2 1.05.264 1.05.105 0 1.015.49 1.384.744l.379.263.933-.316c1.004-.34 1.11-.356 1.268-.182.043.047.472.767.954 1.601.917 1.59.95 1.667.827 1.886-.027.05-.376.375-.774.722l-.724.632.027.309c.037.416.035 1.256-.004 1.523l-.03.218.747.656c.807.71.88.804.796 1.044-.023.066-.434.8-.915 1.634-.912 1.583-.941 1.623-1.195 1.623-.063 0-.52-.139-1.017-.308l-.903-.309-.242.178a7.57 7.57 0 0 1-1.22.71 3.413 3.413 0 0 0-.318.15c-.016.015-.113.45-.215.967-.103.518-.215.984-.25 1.037-.119.182-.146.185-2.068.184-1.598-.001-1.824-.009-1.912-.063zm3.476-5.483l1.503-1.802-.914-.01-.914-.01V12.6l-.13-.13-.131-.131h-1.934l-.13.13-.131.13V17.866l-.914.01-.915.01 1.514 1.815c.833.999 1.532 1.81 1.554 1.802.021-.007.715-.824 1.542-1.815z" fill="#fff"/></svg>