<svg xmlns="http://www.w3.org/2000/svg" width="32" height="32"><path d="M21.187 2H7.536A5.523 5.523 0 0 0 2 7.534v16.93A5.525 5.525 0 0 0 7.536 30h16.93A5.523 5.523 0 0 0 30 24.464V10.813z" fill-rule="evenodd" fill="#3b559f"/><path d="M30 10.813L21.187 2v3.279a5.521 5.521 0 0 0 5.534 5.534z" fill="#b1bee1" fill-rule="evenodd"/><path d="M9.522 10.955V23.91h12.956V10.955zm1.08 1.08h10.796v1.08H10.602zm6.478 2.159h3.238v1.08H17.08zm-6.478 2.16h10.796v2.158H10.602zm6.478 3.238h3.238v1.08H17.08zm-6.478 2.16h10.796v1.079H10.602z" fill="#c1cae7"/></svg>