<svg xmlns="http://www.w3.org/2000/svg" width="32" height="32"><path d="M21.187 2H7.536A5.523 5.523 0 0 0 2 7.534v16.93A5.525 5.525 0 0 0 7.536 30h16.93A5.523 5.523 0 0 0 30 24.464V10.813z" fill="#ff8b23" fill-rule="evenodd"/><path d="M30 10.813L21.187 2v3.279a5.521 5.521 0 0 0 5.534 5.534z" fill="#66380e" fill-rule="evenodd"/><path d="M15 2v1h1V2zm1 1v1h1V3zm0 1h-1v1h1zm0 1v1h1V5zm0 1h-1v1h1zm0 1v1h1V7zm0 1h-1v2h2V9h-1z" style="isolation:auto;mix-blend-mode:normal;solid-color:#000;solid-opacity:1" color="#000" fill="#66380e"/><path d="M15.637 11.194v3.597h1.199v-3.597zm-2.398 1.199v2.398h1.199v-2.398zm4.796 0v2.398h1.199v-2.398zm-7.194 1.2v1.198h1.199v-1.199zm-1.2 2.397v4.796c0 2.174 1.207 3.597 3.598 3.597H10.84v1.2h9.592v-1.2h-2.398c1.885 0 3.006-.872 3.597-2.398h1.199c1.199 0 1.199-.004 1.199-1.311v-1.312c0-2.18 0-2.173-1.2-2.173h-1.198V15.99zm1.2 1.2h9.592v3.596c0 1.812-1.604 2.398-3.597 2.398h-2.398c-1.993 0-3.597-.586-3.597-2.398zm10.79 1.198h1.2V20.786h-1.2z" fill="#66380e"/></svg>