<svg xmlns="http://www.w3.org/2000/svg" width="32" height="32" version="1"><path d="M21.187 2H7.536A5.523 5.523 0 0 0 2 7.534v16.93A5.525 5.525 0 0 0 7.536 30h16.93A5.523 5.523 0 0 0 30 24.464V10.813z" fill="#ccc" fill-rule="evenodd"/><path d="M30 10.813L21.187 2v3.279a5.521 5.521 0 0 0 5.534 5.534z" fill="#999" fill-rule="evenodd"/><path d="M16.314 10.44c-1.997 0-3.329 1.332-3.329 2.664v2.663h-1.692c-.538 0-.971 0-.971.665v5.04c0 .951.433.951.97.951h9.71c.537 0 1.302 0 1.302-.95v-5.041c0-.666-.765-.666-1.303-.666h-1.36v-2.663c0-1.331-1.331-2.663-3.328-2.663zm0 1.332c1.331-.01 1.997.666 1.997 1.498v2.497h-3.994V13.27c0-.832.665-1.487 1.997-1.498z" fill="#999"/></svg>