<svg xmlns="http://www.w3.org/2000/svg" width="32" height="32" version="1"><path d="M21.187 2H7.536A5.523 5.523 0 0 0 2 7.534v16.93A5.525 5.525 0 0 0 7.536 30h16.93A5.523 5.523 0 0 0 30 24.464V10.813z" fill-rule="evenodd" fill="#2095f2"/><path d="M30 10.813L21.187 2v3.279a5.521 5.521 0 0 0 5.534 5.534z" fill="#0086d2" fill-rule="evenodd"/><path d="M16 8.729a8.22 8.22 0 1 0 0 16.44 8.22 8.22 0 0 0 0-16.44zm-.823 1.57c.095-.01.217.007.314 0 .011.047-.07.21-.18.448-.695 1.52-.735 3.303-.089 4.255.117.172.223.336.223.358 0 .021-.126.043-.268.043-.335 0-.652-.203-1.299-.715-.287-.228-.66-.419-.805-.448-.227-.045-.288-.025-.582.269-.274.273-.358.421-.358.672 0 .95 1.127 1.702 3.222 2.147 2.847.603 3.548 1.145 3.627 2.642.098 1.877-.901 3.292-3.09 4.388-.261.13-.427.18-.537.222-.048-.004-.084.004-.133 0a1.57 1.57 0 0 1-.045-.447c0-.997-.392-2.023-.984-2.597-.16-.154-.606-.48-.987-.715-.38-.236-.765-.51-.85-.626-.143-.194-.153-.314-.044-.672.199-.655.434-1.02.894-1.434.242-.217.484-.397.537-.401.054-.005-.306-.114-.849-.225a15.292 15.292 0 0 1-1.747-.493c-.75-.272-1.761-.84-2.147-1.253l-.046-.045a7.198 7.198 0 0 1 4.163-4.879c.43-.182.875-.308 1.344-.404.233-.047.475-.065.716-.09zm6.715 3.359c.169.104.803 1.478.984 2.149.234.865.217 2.363 0 3.222-.082.328-.187.634-.222.672-.035.039-.164-.18-.314-.447-.15-.266-.631-.833-1.03-1.254-1.152-1.216-1.334-1.85-.851-2.82.243-.488 1.303-1.603 1.433-1.522z" fill="#c5ddff"/></svg>