<svg xmlns="http://www.w3.org/2000/svg" width="32" height="32" version="1"><path d="M21.187 2H7.536A5.523 5.523 0 0 0 2 7.534v16.93A5.525 5.525 0 0 0 7.536 30h16.93A5.523 5.523 0 0 0 30 24.464V10.813z" fill="#ccc" fill-rule="evenodd"/><path d="M30 10.813L21.187 2v3.279a5.521 5.521 0 0 0 5.534 5.534z" opacity=".284" fill="#999" fill-rule="evenodd"/><path d="M16 11c-2.918 0-5.41.673-6.443 1.623-.087.08-.162.16-.228.244-.062.08-.118.161-.16.243a6.956 2.597 0 0 0-.026.076c-.024.056-.05.11-.064.167a6.956 2.597 0 0 0-.035.244c0 .084.016.17.037.253a6.956 2.597 0 0 0 .095.244 6.956 2.597 0 0 0 .16.24 6.956 2.597 0 0 0 .221.236A6.956 2.597 0 0 0 16 16.193a6.956 2.597 0 0 0 6.443-1.623 6.956 2.597 0 0 0 .003-.002 6.956 2.597 0 0 0 .186-.2c.013-.013.028-.027.039-.042a6.956 2.597 0 0 0 .111-.171c.017-.027.038-.055.052-.082a6.956 2.597 0 0 0 .058-.141c.014-.04.027-.077.036-.115a6.956 2.597 0 0 0 .028-.22 6.956 2.597 0 0 0-.037-.259c-.067-.25-.233-.49-.476-.715C21.41 11.673 18.918 11 16 11zm-6.443 5.193c-.337.338-.511.699-.513 1.062 0 1.565 3.115 2.833 6.956 2.833s6.956-1.268 6.956-2.833c-.002-.363-.176-.724-.513-1.062-1.063 1.07-3.61 1.946-6.443 1.948-2.833-.002-5.38-.878-6.443-1.948zm0 3.895c-.337.338-.511.699-.513 1.062 0 1.565 3.115 2.833 6.956 2.833s6.956-1.268 6.956-2.833c-.002-.363-.176-.724-.513-1.062-1.063 1.07-3.61 1.946-6.443 1.948-2.833-.002-5.38-.878-6.443-1.948z" fill="#a8a8a8"/></svg>