<svg xmlns="http://www.w3.org/2000/svg" xmlns:xlink="http://www.w3.org/1999/xlink" width="32" height="32"><defs><linearGradient id="a" y1="524.8" x1="404.57" y2="531.8" x2="411.57" gradientUnits="userSpaceOnUse" gradientTransform="translate(-384.57 -515.8)"><stop stop-color="#383e51"/><stop offset="1" stop-color="#655c6f" stop-opacity="0"/></linearGradient><linearGradient id="b" y1="392.36" y2="365.36" gradientUnits="userSpaceOnUse" x2="0" gradientTransform="translate(309.57 152.44)"><stop stop-color="#fff" stop-opacity="0"/><stop offset="1" stop-color="#fff" stop-opacity=".2"/></linearGradient></defs><use height="100%" width="100%" xlink:href="#a" transform="translate(-384.57 -515.8)" fill="url(#b)"/><path d="M21.187 2H7.536A5.523 5.523 0 0 0 2 7.534v16.93A5.525 5.525 0 0 0 7.536 30h16.93A5.523 5.523 0 0 0 30 24.464V10.813z" fill-rule="evenodd" fill="#6060ca"/><path d="M30 10.813L21.187 2v3.279a5.521 5.521 0 0 0 5.534 5.534z" fill="#373757" fill-rule="evenodd"/><path d="M8.466 10.575v10.046h3.767v-8.79H16v2.511h3.767v-3.767H9.722zm1.256 1.256h1.255v1.256H9.722zm7.534 0h1.255v1.256h-1.255zm-7.534 2.511h1.255v2.512H9.722zm3.767 1.256v7.534L16 25.643v-2.511h7.534v-7.534zm1.255 1.256h7.534v5.022h-7.534zm-5.022 1.255h1.255v1.256H9.722z" fill="#373757"/></svg>