<svg xmlns="http://www.w3.org/2000/svg" width="32" height="32" version="1"><path d="M21.187 2H7.536A5.523 5.523 0 0 0 2 7.534v16.93A5.525 5.525 0 0 0 7.536 30h16.93A5.523 5.523 0 0 0 30 24.464V10.813z" fill="#ccc" fill-rule="evenodd"/><path d="M30 10.813L21.187 2v3.279a5.521 5.521 0 0 0 5.534 5.534z" fill="#999" fill-rule="evenodd"/><path d="M10.408 10.443c-.656.403-1.974.967-3.06 1.282l.035.095a24.035 24.035 0 0 0 1.585-.212v1.32H7.357l.043.145H8.72c-.258 1.063-.732 2.191-1.413 3.012l.103.096a6.232 6.232 0 0 0 1.559-1.606v2.743h.164c.44 0 .724-.17.732-.222v-3.094c.328.295.637.764.698 1.131.111.094.233.14.345.14.232 0 .43-.169.43-.403 0-.317-.362-.734-1.473-.983v-.814h1.207c.233 0 .345-.037.405-.131l-.835-.565-.45.548h-.327V11.43c.388-.088.75-.175 1.043-.263.111.03.208.045.293.045.104 0 .19-.023.242-.067l-1.034-.703zm3.97 1.019l-.38.433h-1.497l-.958-.353v5.629c.81 0 .914-.293.914-.308v-.535h1.628v.703c.682 0 .921-.198.921-.212v-4.574c.181-.036.32-.094.371-.161l-1-.622zm-1.921.58h1.627v4.14h-1.627zm9.67 6.614c-.952 0-1.643.223-2.074.667-.357.367-.558.928-.618 1.664H17.8v-1.395c0-.182.029-.314.084-.393.055-.078.144-.121.27-.13l.253-.015c.094-.008.141-.055.141-.14 0-.063-.007-.102-.021-.117-.016-.014-.055-.023-.119-.023a18.338 18.338 0 0 1-1.924 0c-.06 0-.1.01-.116.023-.016.015-.025.054-.025.117 0 .086.05.132.15.14l.237.015c.132.008.224.05.279.128.055.078.082.21.082.395v3.742c0 .183-.027.314-.081.393-.054.079-.143.12-.27.13l-.247.014a.068.068 0 0 1-.023.004c-.084.005-.127.047-.127.128 0 .066.01.107.028.122.017.017.056.025.114.025l.118-.004a17.868 17.868 0 0 1 1.674-.003l.13.007c.062 0 .1-.008.117-.025.016-.015.024-.056.024-.122 0-.08-.039-.123-.118-.128-.01-.002-.016-.004-.022-.004l-.245-.015c-.132-.008-.224-.05-.279-.127-.055-.077-.084-.21-.084-.395v-1.545h1.625c.041.812.228 1.427.579 1.818.399.442 1.04.663 1.924.663.96 0 1.663-.223 2.104-.67.442-.446.663-1.16.663-2.137 0-.99-.202-1.705-.606-2.146-.403-.443-1.056-.661-1.959-.661zm-.083.266c.659 0 1.134.198 1.427.594.29.394.435 1.045.435 1.947 0 .894-.146 1.54-.438 1.936-.293.396-.767.593-1.424.593-.658 0-1.134-.197-1.427-.593-.292-.396-.438-1.045-.438-1.949 0-.884.148-1.528.444-1.928.297-.4.77-.6 1.42-.6z" fill="#999"/></svg>