<svg xmlns="http://www.w3.org/2000/svg" width="32" height="32"><g fill-rule="evenodd"><path d="M21.187 2H7.536A5.523 5.523 0 0 0 2 7.534v16.93A5.525 5.525 0 0 0 7.536 30h16.93A5.523 5.523 0 0 0 30 24.464V10.813z" fill="#576cac"/><path d="M30 10.813L21.187 2v3.279a5.521 5.521 0 0 0 5.534 5.534z" fill="#afb9d7"/></g><path d="M20.675 9.831l-2.054 2.054h-6.294a1.9 1.9 0 0 0-1.789-1.267 1.9 1.9 0 0 0-1.9 1.9 1.9 1.9 0 0 0 1.266 1.79v8.982h3.802v1.267h3.801V23.29h3.802v-8.717l2.054-2.054zm0 1.792l.896.896-.896.896-.896-.896zm-10.137.262a.634.634 0 0 1 .634.634.634.634 0 0 1-.634.633.634.634 0 0 1-.633-.633.634.634 0 0 1 .633-.634m1.79 1.267h6.293l1.42 1.42v7.45h-2.534v-1.267h-3.801v1.267h-2.534v-7.714a1.9 1.9 0 0 0 1.155-1.156m2.646 8.87h1.267v1.267h-1.267z" fill="#9eaacf"/></svg>