<svg xmlns="http://www.w3.org/2000/svg" width="32" height="32" version="1"><rect width="28.203" height="28.203" x="1.898" y="1.898" ry="5.575" fill="#ac8e5c" fill-rule="evenodd"/><path d="M18.615 8.943h-6.882a2.784 2.784 0 0 0-2.79 2.79v8.534a2.785 2.785 0 0 0 2.79 2.79h8.535a2.784 2.784 0 0 0 2.79-2.79v-6.882z" fill-rule="evenodd" fill="#de564c" stroke-width="1.19"/><path d="M7.003 11.94a2.28 2.28 0 0 0-.004.115v7.84c0 .818.436 1.575 1.142 1.984l6.717 3.895c.707.41 1.577.41 2.284 0l6.717-3.895a2.294 2.294 0 0 0 1.142-1.985v-7.839a2.277 2.277 0 0 0-.005-.087L7.003 11.94z" fill="#e4ba75"/><path d="M16.054 5.919a2.285 2.32 0 0 0-1.197.31l-6.722 3.94a2.285 2.32 0 0 0-1.136 1.86 2.285 2.32 0 0 0 1.136 1.88l6.722 3.94a2.285 2.32 0 0 0 2.286 0l6.722-3.94a2.285 2.32 0 0 0 1.136-1.86 2.285 2.32 0 0 0-1.136-1.88l-6.722-3.94a2.285 2.32 0 0 0-1.09-.31z" fill="#b89863"/><path d="M16.053 5.919v.001a2.285 2.32 0 0 0-.413.029v12.179a2.285 2.32 0 0 0 1.502-.279l6.723-3.94A2.285 2.32 0 0 0 25 12.048a2.285 2.32 0 0 0-1.136-1.88l-6.723-3.94a2.285 2.32 0 0 0-1.089-.31z" fill="#ac8e5c"/><path d="M7.002 11.983L7 12.014a2.285 2.32 0 0 1 .003-.02 2.285 2.292 0 0 1-.001-.01zM7 12.037L7 12.055v7.84c0 .818.436 1.574 1.142 1.984l6.717 3.895c.245.143.51.233.782.276v-7.922a2.285 2.32 0 0 1-.782-.279l-6.723-3.94A2.285 2.32 0 0 1 7 12.037z" fill="#cea86a"/><path d="M7.051 11.677A2.285 2.32 0 0 0 7 12.03a2.285 2.32 0 0 0 1.136 1.879l6.723 3.94a2.285 2.32 0 0 0 2.284 0l6.723-3.94A2.285 2.32 0 0 0 25 12.048a2.285 2.32 0 0 0-.052-.367 2.285 2.32 0 0 1-1.084 1.508l-6.723 3.94a2.285 2.32 0 0 1-2.284 0l-6.723-3.94a2.285 2.32 0 0 1-1.084-1.512z" fill="#9b8053"/></svg>