<svg xmlns="http://www.w3.org/2000/svg" width="32" height="32" version="1"><path d="M21.187 2H7.536A5.523 5.523 0 0 0 2 7.534v16.93A5.525 5.525 0 0 0 7.536 30h16.93A5.523 5.523 0 0 0 30 24.464V10.813z" fill-rule="evenodd" fill="#de564c"/><path d="M30 10.813L21.187 2v3.279a5.521 5.521 0 0 0 5.534 5.534z" fill="#b23e31" fill-rule="evenodd"/><path style="line-height:normal;font-variant-ligatures:normal;font-variant-position:normal;font-variant-caps:normal;font-variant-numeric:normal;font-variant-alternates:normal;font-feature-settings:normal;text-indent:0;text-align:start;text-decoration-line:none;text-decoration-style:solid;text-decoration-color:#000;text-transform:none;text-orientation:mixed;white-space:normal;shape-padding:0;isolation:auto;mix-blend-mode:normal;solid-color:#000;solid-opacity:1" d="M12.094 11.098a1.081 1.081 0 0 0-1.086 1.082v5.226a1.081 1.081 0 0 0 0 .352v4.137a1.081 1.081 0 1 0 2.162 0v-3.317c.715-.017 1.693-.004 3.422-.277 1.136-.18 2.286-.437 3.262-.893.488-.228.941-.506 1.316-.914.374-.408.655-.995.65-1.621-.004-.625-.29-1.204-.666-1.61-.376-.404-.83-.68-1.318-.908-.977-.455-2.126-.712-3.26-.892-2.267-.36-4.482-.365-4.482-.365zm1.076 2.25c.702.02 1.552.01 3.068.25 1.027.162 2.037.415 2.684.716.323.151.548.315.648.422.1.108.088.113.088.155 0 .04.014.038-.082.142-.096.105-.315.266-.637.416-.643.301-1.656.554-2.685.717-1.522.24-2.38.23-3.084.25z" color="#000" font-weight="400" font-family="sans-serif" overflow="visible" fill="#fec9ab"/></svg>