<svg xmlns="http://www.w3.org/2000/svg" width="32" height="32"><path d="M21.187 2H7.536A5.523 5.523 0 0 0 2 7.534v16.93A5.525 5.525 0 0 0 7.536 30h16.93A5.523 5.523 0 0 0 30 24.464V10.813z" fill="#b38d32" fill-rule="evenodd"/><path d="M30 10.813L21.187 2v3.279a5.521 5.521 0 0 0 5.534 5.534z" fill="#937429" fill-rule="evenodd"/><path d="M13.603 10a1.2 1.2 0 0 0-1.204 1.203v12.034a1.2 1.2 0 0 0 1.204 1.204 1.2 1.2 0 0 0 1.203-1.204v-3.389l.122-.213 2.427 4.203a1.2 1.2 0 0 0 1.643.44 1.201 1.201 0 0 0 .44-1.644l-3.12-5.404 3.12-5.406a1.201 1.201 0 0 0-.44-1.644 1.2 1.2 0 0 0-1.643.44l-2.427 4.203-.122-.212v-3.408A1.2 1.2 0 0 0 13.603 10z" fill="#ffc947"/></svg>