<svg xmlns="http://www.w3.org/2000/svg" width="32" height="32"><g fill-rule="evenodd"><path d="M21.187 2H7.536A5.523 5.523 0 0 0 2 7.534v16.93A5.525 5.525 0 0 0 7.536 30h16.93A5.523 5.523 0 0 0 30 24.464V10.813z" fill="#fad967"/><path d="M30 10.813L21.187 2v3.279a5.521 5.521 0 0 0 5.534 5.534z" fill="#fcedb4"/></g><path d="M16 8.328c-1.477 5.262-5.512 8.37-5.512 11.276 0 2.906 2.468 5.262 5.512 5.262 3.044 0 5.512-2.357 5.512-5.262 0-2.906-4.035-6.014-5.512-11.276m3.79 8.59a4.725 4.51 0 0 1 .935 2.686A4.725 4.51 0 0 1 16 24.114a4.725 4.51 0 0 1-2.809-.89 5.512 5.262 0 0 0 1.234.138 5.512 5.262 0 0 0 5.512-5.262 5.512 5.262 0 0 0-.147-1.181" color="#000" fill="#fcedb4"/></svg>