<svg xmlns="http://www.w3.org/2000/svg" width="32" height="32"><g fill-rule="evenodd"><path d="M21.187 2H7.536A5.523 5.523 0 0 0 2 7.534v16.93A5.525 5.525 0 0 0 7.536 30h16.93A5.523 5.523 0 0 0 30 24.464V10.813z" fill="#fa752a"/><path d="M30 10.813L21.187 2v3.279a5.521 5.521 0 0 0 5.534 5.534z" fill="#fdba95"/></g><path d="M11 11.075c-.554 0-1 .446-1 1v10c0 .554.446 1 1 1h10c.554 0 1-.446 1-1v-10c0-.554-.446-1-1-1zm0 1h10v10H11zm6 1v3h3a3 3 0 0 0-3-3m-1 1a3 3 0 0 0-3 3 3 3 0 0 0 3 3 3 3 0 0 0 3-3h-3z" color="#000" fill="#fdba95"/></svg>