<svg xmlns="http://www.w3.org/2000/svg" width="32" height="32"><path d="M21.187 2H7.536A5.523 5.523 0 0 0 2 7.534v16.93A5.525 5.525 0 0 0 7.536 30h16.93A5.523 5.523 0 0 0 30 24.464V10.813z" fill-rule="evenodd" fill="#ffba3a"/><path d="M30 10.813L21.187 2v3.279a5.521 5.521 0 0 0 5.534 5.534z" fill="#e89f17" fill-rule="evenodd"/><path d="M14 12.22v2.85s0 1.15-1.065 1.15c-.514 0-1.426-.367-1.79-.987-.497-.845.355-2.013.355-2.013-2.5 0-4.5 2-4.5 4.476 0 3.524 2 4.524 3.5 4.524 0 0-.909-2.56.34-2.925.676-.104 1.778.286 2.16.925 0 0-.352-.906.63-.925.983-.019 2.204 1.478 2.37 2.925.166-1.447 1.387-2.944 2.37-2.925.982.02.63.925.63.925.382-.639 1.484-1.03 2.16-.925 1.249.364.34 2.925.34 2.925 1.5 0 3.5-2 3.5-4.524 0-2.476-2-4.476-4.5-4.476 0 0 .852 1.168.355 2.013-.364.62-1.276.987-1.79.987C18 16.22 18 15.07 18 15.07v-2.85l-1 1h-2z" fill="#e89f17"/></svg>