<svg xmlns="http://www.w3.org/2000/svg" width="32" height="32"><defs><linearGradient id="a" y1="27" x1="2" y2="5" x2="30" gradientUnits="userSpaceOnUse" gradientTransform="translate(1.77 2.254) scale(.90713)"><stop stop-color="#dedede"/><stop offset="1" stop-color="#fbfbfb"/></linearGradient></defs><path d="M21.187 2H7.536A5.523 5.523 0 0 0 2 7.534v16.93A5.525 5.525 0 0 0 7.536 30h16.93A5.523 5.523 0 0 0 30 24.464V10.813z" fill="#717f8d" fill-rule="evenodd"/><path d="M30 10.813L21.187 2v3.279a5.521 5.521 0 0 0 5.534 5.534z" fill="#f7f7f7" fill-rule="evenodd"/><path d="M16.285 9.756a7.01 7.01 0 0 0-7.011 7.01 7.01 7.01 0 0 0 7.01 7.012 7.01 7.01 0 0 0 7.012-7.011 7.01 7.01 0 0 0-7.011-7.011m0 1.168a5.842 5.842 0 0 1 5.842 5.843 5.842 5.842 0 0 1-5.842 5.842 5.842 5.842 0 0 1-5.843-5.842 5.842 5.842 0 0 1 5.843-5.843m-2.337 2.337v7.011l5.842-3.505z" fill="#e7e7e7"/><path d="M4.49 8.604v1.814h1.815V8.604zm21.772 0v1.814h1.814V8.604zM4.491 12.233v1.814h1.814v-1.814zm21.771 0v1.814h1.814v-1.814zM4.491 15.86v1.814h1.814v-1.814zm21.771 0v1.814h1.814v-1.814zM4.491 19.49v1.814h1.814V19.49zm21.771 0v1.814h1.814V19.49zM4.491 23.118v1.814h1.814v-1.814zm21.771 0v1.814h1.814v-1.814z" fill="url(#a)"/></svg>