<svg xmlns="http://www.w3.org/2000/svg" width="32" height="32" version="1"><path d="M21.187 2H7.536A5.523 5.523 0 0 0 2 7.534v16.93A5.525 5.525 0 0 0 7.536 30h16.93A5.523 5.523 0 0 0 30 24.464V10.813z" fill="#9264c3" fill-rule="evenodd"/><path d="M30 10.813L21.187 2v3.279a5.521 5.521 0 0 0 5.534 5.534z" fill="#7852a1" fill-rule="evenodd"/><path d="M17.096 9.872a8.492 8.492 0 0 0 0 16.983h12.368c.254-.314.395-.719.423-1.213h-12.79a7.278 7.278 0 0 1 0-14.557z" fill="#ebd7fb"/><path d="M17.096 12.298a6.065 6.065 0 1 0 0 12.13h12.899v-1.212H17.096a4.852 4.852 0 1 1 0-9.705c.41.002.817.056 1.213.161v-1.246a6.066 6.066 0 0 0-1.213-.128z" fill="#d7bdfb"/><path d="M17.096 14.724a3.64 3.64 0 0 0 0 7.278H29.99V20.79H17.096a2.426 2.426 0 0 1 0-4.852h2.708a3.64 3.64 0 0 0-2.708-1.213z" fill="#c090f9"/></svg>