<svg xmlns="http://www.w3.org/2000/svg" width="32" height="32"><g fill-rule="evenodd"><path d="M21.187 2H7.536A5.523 5.523 0 0 0 2 7.534v16.93A5.525 5.525 0 0 0 7.536 30h16.93A5.523 5.523 0 0 0 30 24.464V10.813z" fill="#4d84b6"/><path d="M30 10.813L21.187 2v3.279a5.521 5.521 0 0 0 5.534 5.534z" fill="#41617e"/></g><path d="M12.745 24.33c-.294-.077-.264-.16.22-.612.834-.78.973-1.557.736-4.113-.19-2.038-.232-2.194-.55-2.023-.691.37-1.552-.107-2.531-1.398-.485-.638-.53-.826-.448-1.82.05-.61.155-1.345.231-1.635.117-.445.08-.527-.243-.527a.921.921 0 0 1-.623-.291c-.334-.403.262-1.05.967-1.05.286 0 .63-.13.76-.288.34-.408.857-.357 1.438.143.618.532.828 1.763.482 2.815-.392 1.19-.12 1.306.428.183.308-.628.741-1.176 1.099-1.387.324-.192.798-.68 1.054-1.084s.575-.805.711-.893c.418-.266 1.566-.634 1.993-.637.584-.013 1.366.678 1.505 1.313.067.3.418 1.007.782 1.571.363.566.66 1.126.66 1.246 0 .12.259.544.576.943.473.595.573.895.566 1.702-.009 1.107-.604 2.518-.823 1.949-.069-.18-.04-.485.064-.68.217-.406.026-2.21-.21-1.974-.165.165-.272 1.924-.226 3.698.06 2.303-.052 4.472-.234 4.531-.464.148-.667-.234-.477-.899.287-1 .228-3.66-.09-4.08-.148-.194-.325-.69-.394-1.101-.07-.412-.201-.794-.293-.85-.303-.187-.758 1.022-.758 2.009 0 .772-.117 1.129-.575 1.761-.65.896-.7 1.16-.288 1.502.32.266.383.876.107 1.047-.1.061-.357-.079-.575-.312-.307-.33-.394-.357-.394-.123 0 .35-.71.588-1.102.368-.21-.116-.16-.22.224-.474.687-.45.62-.818-.297-1.657-.715-.654-.779-.785-.66-1.367.37-1.84.369-1.888-.06-1.888-.28 0-.404.12-.404.396 0 .217-.095.573-.211.79-.206.384-.267.693-.763 3.843-.247 1.57-.309 1.63-1.378 1.351m5.143-3.343c.249-.481.285-.893.178-2.032-.14-1.512-.245-1.565-.66-.334-.14.421-.417.972-.614 1.222-.455.585-.447.762.06 1.303.545.578.663.561 1.036-.16" fill="#41617e"/></svg>