<svg xmlns="http://www.w3.org/2000/svg" width="32" height="32" version="1"><g fill-rule="evenodd"><path d="M15.865 30h8.601A5.521 5.521 0 0 0 30 24.465V10.813L21.187 2h-5.322z" fill="#d8d1a3"/><path d="M15.865 30V2H7.537A5.523 5.523 0 0 0 2 7.533v16.932A5.525 5.525 0 0 0 7.537 30z" fill="#ddd6a7"/><path d="M30 10.813L21.187 2v3.279a5.521 5.521 0 0 0 5.534 5.534z" fill="#b4b488"/></g><path opacity=".5" d="M17.341 17.341h8.939v-.894h-8.939zM17.341 15.553h8.939v-.894h-8.939zM17.341 13.765h8.045v-.894h-8.045zM17.341 11.978h6.257v-.894h-6.257zM17.341 10.19h5.074v-.894h-5.074zM17.341 8.402h4.1v-.894h-4.1zM5.72 7.508h8.94v.894H5.72zM5.72 9.296h8.045v.894H5.72zM5.72 11.084h7.151v.894h-7.15zM5.72 12.871h6.258v.894H5.72zM5.72 14.66h5.364v.893H5.72zM5.72 16.447h8.94v.894H5.72zM5.72 18.235h8.94v.894H5.72zM5.72 20.022h8.045v.894H5.72zM5.72 21.81h6.258v.894H5.72zM5.72 23.598h8.94v.894H5.72zM5.72 25.386h7.151v.894h-7.15z"/><path d="M12.29 2h3.575v9.833L14.077 9.15l-1.788 2.682z" fill="#ff5959"/></svg>