<svg xmlns="http://www.w3.org/2000/svg" width="32" height="32"><path d="M21.187 2H7.536A5.523 5.523 0 0 0 2 7.534v16.93A5.525 5.525 0 0 0 7.536 30h16.93A5.523 5.523 0 0 0 30 24.464V10.813z" fill="#fed947" fill-rule="evenodd"/><path d="M30 10.813L21.187 2v3.279a5.521 5.521 0 0 0 5.534 5.534z" fill="#d19e05" fill-opacity=".462" fill-rule="evenodd"/><path style="line-height:normal;font-variant-ligatures:normal;font-variant-position:normal;font-variant-caps:normal;font-variant-numeric:normal;font-variant-alternates:normal;font-feature-settings:normal;text-indent:0;text-align:start;text-decoration-line:none;text-decoration-style:solid;text-decoration-color:#000;text-transform:none;text-orientation:mixed;white-space:normal;shape-padding:0;isolation:auto;mix-blend-mode:normal;solid-color:#000;solid-opacity:1" d="M21.494 11.922c-.346-.117-.783-.185-1.2.047-.673.375-.917 1.13-.917 1.789 0 .658.162 1.326.309 1.965.146.639.275 1.248.271 1.664-.004.415-.047.527-.27.638-.192.097-.293.1-.402.079-.11-.023-.249-.093-.422-.243-.346-.298-.766-.893-1.242-1.537-.475-.644-1.02-1.344-1.766-1.847a3.569 3.569 0 0 0-2.841-.518l-.012.002-.012.004c-.743.201-1.29.765-1.666 1.441-.375.676-.605 1.49-.717 2.352-.012.099.012.203.002.303-.206-.013-.38-.086-.59-.09l-1.212-.028-.631-.013-.028 1.261.631.014 1.213.027c.23.005.406.08.631.096.042 1.25.24 2.488.84 3.46l.014.019.013.02c.959 1.32 2.59 1.709 3.82 1.23.616-.24 1.153-.752 1.317-1.46.164-.706-.037-1.518-.59-2.376-.538-.836-1.453-1.365-2.506-1.711-.5-.165-1.107-.169-1.666-.256.01-.11-.02-.226-.006-.334.096-.74.3-1.418.569-1.902.266-.48.572-.74.883-.829.787-.174 1.32-.018 1.84.333.522.353 1 .935 1.456 1.552.456.617.875 1.263 1.43 1.742.278.24.605.444.996.524.392.08.825.012 1.22-.188.689-.346.957-1.098.964-1.752.006-.653-.155-1.319-.301-1.959-.146-.64-.278-1.254-.277-1.683 0-.43.053-.568.27-.688-.035.02.013-.01.18.047.169.057.403.185.622.334.438.3.809.658.809.658l.449.442.883-.9-.452-.442s-.427-.422-.978-.799a3.838 3.838 0 0 0-.928-.488zm-9.61 7.596c.413.074.899.073 1.253.189.889.292 1.532.72 1.84 1.197.433.674.485 1.135.421 1.408-.063.274-.233.447-.544.569-.62.24-1.71.042-2.325-.783-.392-.646-.573-1.593-.644-2.58z" color="#000" font-weight="400" font-family="sans-serif" overflow="visible" fill="#e8be28"/></svg>