<svg xmlns="http://www.w3.org/2000/svg" width="32" height="32" version="1"><path d="M21.187 2H7.536A5.523 5.523 0 0 0 2 7.534v16.93A5.525 5.525 0 0 0 7.536 30h16.93A5.523 5.523 0 0 0 30 24.464V10.813z" fill-rule="evenodd" fill="#99bdff"/><path d="M30 10.813L21.187 2v3.279a5.521 5.521 0 0 0 5.534 5.534z" fill="#6879a9" fill-opacity=".478" fill-rule="evenodd"/><path d="M-11.491 2.203h-13.651a5.523 5.523 0 0 0-5.536 5.534v16.93a5.525 5.525 0 0 0 5.536 5.536h16.93a5.523 5.523 0 0 0 5.534-5.536v-13.65z" fill="#99f" fill-rule="evenodd"/><path d="M-2.678 11.016l-8.813-8.813v3.28a5.521 5.521 0 0 0 5.534 5.533z" fill="#5b5895" fill-rule="evenodd"/><g fill="#262038" fill-opacity=".534"><path d="M-16.678 7.934a6.778 6.778 0 0 0-6.777 6.777 6.778 6.778 0 0 0 6.777 6.78 6.778 6.778 0 0 0 6.777-6.78 6.778 6.778 0 0 0-6.777-6.777zm.994 1.668c.64-.048 1.022.06 1.31.341.181.177.273.347.596 1.104.612 1.43.621 1.493.446 2.521-.02.113-.012.174.021.174.08 0 .284-.24.344-.406.069-.189.14-.19.512-.012 1.094.526 1.297.837 1.06 1.615-.108.358-.29.641-.568.881-.245.213-.93.577-1.35.719-.242.082-.418.1-1.035.11-.842.011-.905.005-1.672-.124a9.1 9.1 0 0 1-1.695-.47c-.321-.125-.931-.395-1.024-.453a18.024 18.024 0 0 0-.417-.239c-1.038-.58-2.255-1.624-2.551-2.185-.1-.191-.108-.228-.055-.356.084-.202.36-.472.582-.57.193-.085 1.388-.21 1.522-.158.05.019.061.09.046.297-.03.413.047.585.346.777.583.372 1.605.833 2.397 1.08.291.091.873.135.873.066 0-.017-.061-.125-.135-.242a1.367 1.367 0 0 1-.168-.424c-.057-.356-.137-.421-.75-.62-1.284-.419-1.908-.683-2.117-.9-.13-.133-.149-.183-.147-.396.003-.259.299-1.388.436-1.66.153-.303.431-.465.799-.465.135 0 .506.033.826.07.424.051.65.056.838.022.276-.05.517-.082.73-.097zm.492.3c-.248-.03-.572.01-.572.069 0 .018.093.062.207.095.294.087.347.166.193.287-.067.053-.123.117-.123.141 0 .068.452.05.633-.025.145-.06.162-.087.149-.217-.02-.195-.185-.314-.487-.35zm-3.353.793c-.087.054-.157.309-.127.467.022.12.082.198.226.3.216.154.382.178.526.077.052-.036.268-.09.48-.12.49-.066.717-.142.737-.241.022-.117-.299-.19-.85-.196-.443-.004-.476-.013-.707-.16-.134-.084-.262-.14-.285-.127zm-1.305 4.672c.133 0 .203.056.53.402l.376.4.196-.032c.192-.033.196-.03.554.308.2.188.41.386.47.44.192.175.434.2 2.187.222.93.012 1.71.042 1.734.065.025.025.013.15-.03.314-.038.15-.103.427-.142.614-.063.298-.111.391-.408.789-.509.68-.536.72-.615.859-.084.147-.06.219.074.219.141 0 .365-.13.639-.373.136-.122.423-.32.638-.442.419-.235.433-.245.463-.4.027-.141.11-.187.299-.158.09.013.42.025.732.025.367 0 .569.02.569.05 0 .083-1.074 1.123-1.364 1.321-.946.65-1.814.993-2.765 1.094l-.563.06a4.224 4.224 0 0 1-.441 0c-2.04-.086-3.618-.833-4.781-2.261-.508-.638-2.12-2.586-.328-2.297.46-.007.88-.002.933.012.054.013.248.157.432.322.427.383.713.453.846.205.043-.082.02-.125-.157-.31-.458-.48-.639-.848-.564-1.145.036-.146.288-.303.486-.303zm3.68 2.514c-.076.002-.123.033-.154.092-.08.148-.04.186.306.302.374.125.61.114.729-.03.1-.124.102-.201.008-.296-.067-.067-.085-.067-.208.006-.127.075-.148.075-.357 0a.952.952 0 0 0-.324-.074z"/><g style="line-height:1.25" aria-label="RPM" font-weight="400" font-size="8.172" font-family="Impact" letter-spacing="0" word-spacing="0" stroke-width="1.205"><path style="-inkscape-font-specification:Impact" d="M-23.523 22.116h1.189q1.189 0 1.608.063.423.063.686.324.268.258.268.827 0 .519-.188.697-.188.179-.738.214.499.086.67.228.172.143.212.264.044.118.044.657v1.172h-1.56v-1.477q0-.357-.084-.443-.08-.085-.427-.085v2.005h-1.68zm1.68.76v.99q.283 0 .395-.053.115-.055.115-.349v-.244q0-.212-.111-.278-.108-.066-.4-.066zM-19.118 22.116h1.692q.686 0 1.053.074.371.074.555.214.187.14.251.34.068.198.068.616v.387q0 .426-.128.62-.127.196-.47.3-.34.105-.89.105h-.451v1.79h-1.68zm1.68.76v1.132q.072.003.124.003.231 0 .319-.077.092-.08.092-.327v-.365q0-.228-.104-.297-.104-.069-.431-.069zM-9.833 22.116v4.446H-11.3V23.56l-.587 3.002h-1.041l-.619-2.933v2.933h-1.468v-4.446h2.175q.095.4.203.944l.232 1.132.383-2.076z"/></g></g><path d="M16 11.552a5.453 5.453 0 0 0-5.465 5.465A5.453 5.453 0 0 0 16 22.482a5.453 5.453 0 0 0 5.465-5.465A5.453 5.453 0 0 0 16 11.552zm0 3.123a2.342 2.342 0 0 1 2.342 2.342A2.342 2.342 0 0 1 16 19.359a2.342 2.342 0 0 1-2.342-2.342A2.342 2.342 0 0 1 16 14.675z" fill="#8091c7"/><path d="M16 7.62a9.376 9.376 0 0 0-9.397 9.397A9.376 9.376 0 0 0 16 26.414a9.376 9.376 0 0 0 9.397-9.397A9.376 9.376 0 0 0 16 7.62zm0 5.37a4.027 4.027 0 0 1 4.027 4.027A4.027 4.027 0 0 1 16 21.044a4.027 4.027 0 0 1-4.027-4.027A4.027 4.027 0 0 1 16 12.99z" fill="#6879a9"/><text style="line-height:1.25" x="12.106" y="23.991" transform="scale(.97033 1.03058)" font-weight="400" font-size="5.593" font-family="sans-serif" letter-spacing="0" word-spacing="0" fill="#99bdff"><tspan x="12.106" y="23.991" style="-inkscape-font-specification:'sans-serif Bold'" font-weight="700" stroke-width="4.828">iso</tspan></text></svg>