<svg xmlns="http://www.w3.org/2000/svg" width="32" height="32" version="1"><path d="M21.187 2H7.536A5.523 5.523 0 0 0 2 7.534v16.93A5.525 5.525 0 0 0 7.536 30h16.93A5.523 5.523 0 0 0 30 24.464V10.813z" fill="#c03630" fill-rule="evenodd"/><path d="M30 10.813L21.187 2v3.279a5.521 5.521 0 0 0 5.534 5.534z" fill="#971f1f" fill-rule="evenodd"/><path d="M15.777 8.984c-.385 0-.744.188-.83.499-.324 1.19.038 3.03.64 5.324l-.182.444c-.461 1.124-1.038 2.245-1.545 3.239-2.094 4.097-3.723 6.307-4.809 6.462l-.004-.045c-.024-.511.92-1.829 2.198-2.876.133-.108.702-.659.702-.659s-.768.406-.94.51c-1.602.957-2.4 1.914-2.53 2.55-.038.19-.013.422.154.517l.41.206c1.114.558 2.485-.91 4.308-4.104a39.87 39.87 0 0 1 6.276-1.492c1.886 1.078 4.05 1.591 4.88 1.37a.83.83 0 0 0 .41-.28c.067-.106.16-.527.16-.527s-.156.213-.285.275c-.526.249-2.187-.166-3.892-1 1.474-.156 2.702-.162 3.358.047.833.266.834.539.823.595.01-.046.048-.229.044-.307a.803.803 0 0 0-.232-.526c-.308-.304-1.07-.457-2.108-.47-.782-.01-1.72.06-2.738.205-.467-.268-.96-.562-1.35-.927-.989-.924-1.818-2.207-2.333-3.646.035-.138.069-.272.1-.408.143-.644.245-2.772.245-2.772s-.407 1.599-.471 1.84a7.3 7.3 0 0 1-.152.486c-.312-1.098-.47-2.162-.47-2.97 0-.227.02-.671.084-1.022.031-.25.122-.38.216-.443.186.045.395.33.612.809.187.413.176.89.176 1.187 0 0 .2-.733.154-1.166-.029-.26-.276-.93-.802-.922h-.043l-.235-.002zm.179 6.647c.544 1.095 1.295 2.135 2.28 2.969.22.185.453.362.694.528-1.79.332-3.668.8-5.413 1.532a83.23 83.23 0 0 0 1.006-1.83 25.39 25.39 0 0 0 1.433-3.198z" fill="#fff"/></svg>