<svg xmlns="http://www.w3.org/2000/svg" width="32" height="32"><g fill-rule="evenodd"><path d="M21.187 2H7.536A5.523 5.523 0 0 0 2 7.534v16.93A5.525 5.525 0 0 0 7.536 30h16.93A5.523 5.523 0 0 0 30 24.464V10.813z" fill="#2e2e7a"/><path d="M30 10.813L21.187 2v3.279a5.521 5.521 0 0 0 5.534 5.534z" fill="#9696e2"/></g><path d="M11.5 22.955c-.554 0-1-.446-1-1v-10c0-.554.446-1 1-1h9c.554 0 1 .446 1 1v10c0 .554-.446 1-1 1zm0-1h9v-10h-9zm1-2v-1h7v1zm0-2v-1h7v1zm0-2v-1h7v1zm0-2v-1h7v1z" opacity=".75" fill="#9696e2"/></svg>