<svg xmlns="http://www.w3.org/2000/svg" width="32" height="32" version="1"><path d="M21.187 2H7.536A5.523 5.523 0 0 0 2 7.534v16.93A5.525 5.525 0 0 0 7.536 30h16.93A5.523 5.523 0 0 0 30 24.464V10.813z" fill="#ccc" fill-rule="evenodd"/><path d="M30 10.813L21.187 2v3.279a5.521 5.521 0 0 0 5.534 5.534z" fill="#999" fill-rule="evenodd"/><path d="M9 10.356v6.222h6.222v-6.222H9zm7.778 0v6.222H23v-6.222h-6.222zM9 18.134v6.222h6.222v-6.222H9zm7.778 0v6.222H23v-6.222h-6.222z" opacity=".5" fill="#999"/></svg>