<svg xmlns="http://www.w3.org/2000/svg" width="32" height="32"><g fill-rule="evenodd"><path d="M21.187 2H7.536A5.523 5.523 0 0 0 2 7.534v16.93A5.525 5.525 0 0 0 7.536 30h16.93A5.523 5.523 0 0 0 30 24.464V10.813z" fill="#6a7885"/><path d="M30 10.813L21.187 2v3.279a5.521 5.521 0 0 0 5.534 5.534z" fill="#caced1"/></g><path d="M10 10.955v12h12v-12zm1 3h10v8c-3.551-.037-6.45-.077-10 0zm5.199 1c-.486 0-.94.17-1.26.49-.32.32-.49.774-.49 1.26h1c0-.264.079-.435.197-.553.118-.118.289-.197.553-.197.264 0 .435.08.553.197.118.118.197.29.197.553 0 .23-.045.326-.105.412-.261.263-.575.488-.828.703-.286.215-.566.497-.566.885v.25h1v-.25c.355-.364.885-.682 1.215-1.016.174-.25.285-.589.285-.984 0-.486-.17-.94-.49-1.26-.32-.32-.774-.49-1.26-.49m-.75 5v1h1v-1z" fill="#caced1"/></svg>