<svg xmlns="http://www.w3.org/2000/svg" width="32" height="32"><g fill-rule="evenodd"><path d="M21.187 2H7.536A5.523 5.523 0 0 0 2 7.534v16.93A5.525 5.525 0 0 0 7.536 30h16.93A5.523 5.523 0 0 0 30 24.464V10.813z" fill="#9048af"/><path d="M30 10.813L21.187 2v3.279a5.521 5.521 0 0 0 5.534 5.534z" fill="#e5d5e8"/></g><path d="M16 11.075a6 2 0 0 0-6 2v4a6 2 0 0 0 5 1.97v2.03h-2v-1h-3v3h3v-1h6v1h3v-3h-3v1h-2v-2.03a6 2 0 0 0 5-1.97h-1a5 1 0 0 1-5 1 5 1 0 0 1-5-1v-2.898a6 2 0 0 0 5 .898v-1a5 1 0 0 1-5-1 5 1 0 0 1 5-1zm1 0v3h1v-1h.5c.831 0 1.5.669 1.5 1.5 0 .83-.669 1.5-1.5 1.5H17v1h1.5c1.385 0 2.5-1.115 2.5-2.5s-1.115-2.5-2.5-2.5H20v-1zm-6 10h1v1h-1zm9 0h1v1h-1z" fill="#e5d5e8"/></svg>