<svg xmlns="http://www.w3.org/2000/svg" width="32" height="32" version="1"><path d="M21.187 2H7.536A5.523 5.523 0 0 0 2 7.534v16.93A5.525 5.525 0 0 0 7.536 30h16.93A5.523 5.523 0 0 0 30 24.464V10.813z" fill="#e81d62" fill-rule="evenodd"/><path d="M30 10.813L21.187 2v3.279a5.521 5.521 0 0 0 5.534 5.534z" fill="#bf1851" fill-rule="evenodd"/><path d="M15.93 10.864c-2.991 0-5.547.672-6.606 1.623-.089.08-.17.16-.236.244-.064.08-.118.16-.16.243a7.132 2.597 0 0 0-.032.076c-.024.056-.052.11-.066.168a7.132 2.597 0 0 0-.031.243c0 .084.015.17.038.254a7.132 2.597 0 0 0 .097.243 7.132 2.597 0 0 0 .164.24 7.132 2.597 0 0 0 .226.237 7.132 2.597 0 0 0 6.606 1.623 7.132 2.597 0 0 0 6.606-1.623 7.132 2.597 0 0 0 .004 0 7.132 2.597 0 0 0 .192-.203c.011-.013.027-.025.038-.038a7.132 2.597 0 0 0 .115-.173c.016-.027.038-.053.052-.08a7.132 2.597 0 0 0 .06-.145c.013-.038.028-.076.037-.114a7.132 2.597 0 0 0 .032-.218 7.132 2.597 0 0 0-.038-.262c-.07-.25-.238-.488-.488-.712-1.06-.95-3.614-1.623-6.606-1.623zm-6.606 5.194c-.345.337-.524.699-.525 1.062 0 1.565 3.193 2.833 7.131 2.833 3.939 0 7.132-1.268 7.132-2.833-.001-.363-.18-.725-.525-1.062-1.09 1.07-3.702 1.946-6.607 1.947-2.904-.001-5.516-.878-6.606-1.947zm0 3.895c-.345.337-.524.698-.525 1.062 0 1.564 3.193 2.832 7.131 2.832 3.939 0 7.132-1.268 7.132-2.832-.001-.364-.18-.725-.525-1.062-1.09 1.07-3.702 1.946-6.607 1.947-2.904-.001-5.516-.878-6.606-1.947z" fill="#ffb2af"/></svg>