<svg xmlns="http://www.w3.org/2000/svg" width="32" height="32"><path d="M21.187 2H7.536A5.523 5.523 0 0 0 2 7.534v16.93A5.525 5.525 0 0 0 7.536 30h16.93A5.523 5.523 0 0 0 30 24.464V10.813z" fill="#35674e" fill-rule="evenodd"/><path d="M30 10.813L21.187 2v3.279a5.521 5.521 0 0 0 5.534 5.534z" fill="#81d0a8" fill-rule="evenodd"/><path d="M11 11.075c-.554 0-1 .446-1 1v10c0 .554.446 1 1 1h10c.554 0 1-.446 1-1v-10c0-.554-.446-1-1-1zm0 1h10v10H11zm1 1v1h2v-1zm3 .002v1h2v-1zm3 0v1h2v-1zm-6 1.998v1h2v-1zm3 .002v1h2v-1zm3 0v1h2v-1zm-6 1.998v1h2v-1zm3 .002v1h2v-1zm3 0v1h2v-1zm-6 1.998v1h2v-1zm3 .002v1h2v-1zm3 0v1h2v-1z" color="#000" fill="#81d0a8"/></svg>