<svg xmlns="http://www.w3.org/2000/svg" viewBox="0 0 32 32"><g fill-rule="evenodd"><path d="M21.187 2H7.536A5.523 5.523 0 0 0 2 7.534v16.93A5.525 5.525 0 0 0 7.536 30h16.93A5.523 5.523 0 0 0 30 24.464V10.813z" fill="#5bdd5b"/><path d="M30 10.813L21.187 2v3.279a5.521 5.521 0 0 0 5.534 5.534z" fill="#a9eda9" fill-opacity=".988"/></g><g fill="#fff" stroke-width=".877"><path d="M18.343 10.377a4.474 4.474 0 0 0-4.475 4.473c0 .67.152 1.306.416 1.876l-.766.906-.067.85c-.007.007-.832.028-.832.028l-.425.31s.003.925 0 .912l-.002.002-.911.016-.385.44-.01.83s-.783-.049-.863.024c-.503.463-.841.792-.841.792l.004 2.175.425-.003 5.795-5.792c.347.304.75.537 1.18.722.54.233 1.129.38 1.756.38 2.472 0 4.476-2 4.476-4.47a4.475 4.475 0 0 0-4.476-4.472m.854 2.13a1.492 1.492 0 1 1 0 2.984 1.492 1.492 0 0 1 0-2.984" opacity=".75"/><path d="M19.2 12.508a1.492 1.492 0 1 0 0 2.983 1.492 1.492 0 0 0 0-2.983m0 .852a.64.64 0 1 1 0 1.279.641.641 0 0 1-.64-.64c0-.353.288-.639.64-.639m-3.79 4.857l-5.796 5.795h2.13l5.059-4.97a4.474 4.474 0 0 1-1.394-.825" opacity=".5"/></g></svg>