<svg xmlns="http://www.w3.org/2000/svg" width="32" height="32"><g fill-rule="evenodd"><path d="M21.187 2H7.536A5.523 5.523 0 0 0 2 7.534v16.93A5.525 5.525 0 0 0 7.536 30h16.93A5.523 5.523 0 0 0 30 24.464V10.813z" fill="#6e6e6e"/><path d="M30 10.813L21.187 2v3.279a5.521 5.521 0 0 0 5.534 5.534z" fill="#b7b7b7"/></g><path d="M8.806 10.36v13.19h14.388V10.36zm1.199 2.399h11.99v9.592h-11.99zm2.398 1.199v3.06h3.007v-3.06zm4.213 0v3.06h2.981v-3.06zm-4.213 4.134v3.06h3.007v-3.06zm4.213 0v3.06h2.981v-3.06z" color="#000" fill="#b7b7b7"/></svg>