<svg xmlns="http://www.w3.org/2000/svg" width="32" height="32"><path d="M21.187 2H7.536A5.523 5.523 0 0 0 2 7.534v16.93A5.525 5.525 0 0 0 7.536 30h16.93A5.523 5.523 0 0 0 30 24.464V10.813z" fill="#0a99d6" fill-rule="evenodd"/><path d="M30 10.813L21.187 2v3.279a5.521 5.521 0 0 0 5.534 5.534z" fill="#087eb0" fill-rule="evenodd"/><path d="M16 9.729a7.22 7.22 0 0 0-7.22 7.22h4.813v-3.008l4.814 4.813-4.814 4.814v-3.009H9.757A7.22 7.22 0 0 0 16 24.17a7.22 7.22 0 0 0 7.22-7.22A7.22 7.22 0 0 0 16 9.73z" fill="#fff"/></svg>