<svg xmlns="http://www.w3.org/2000/svg" width="32" height="32"><g fill-rule="evenodd"><path d="M21.187 2H7.536A5.523 5.523 0 0 0 2 7.534v16.93A5.525 5.525 0 0 0 7.536 30h16.93A5.523 5.523 0 0 0 30 24.464V10.813z" fill="#fccc43"/><path d="M30 10.813L21.187 2v3.279a5.521 5.521 0 0 0 5.534 5.534z" fill="#746025"/></g><path d="M15 10.678c-1.109 0-2 .892-2 2h3v1h-4c-1.109 0-2 .892-2 2v2c0 1.108.891 2 2 2v-1c0-.889.39-1.676 1-2.225l.001-.002a3.02 3.02 0 0 1 .427-.32l.003-.002a2.97 2.97 0 0 1 .472-.238c.03-.012.061-.019.091-.029.14-.051.284-.097.433-.127.186-.036.377-.057.574-.057h4v-3c0-1.108-.892-2-2-2zm0 .5a.499.499 0 1 1 0 1 .499.499 0 1 1 0-1m5 2.5v1c0 .889-.393 1.678-1 2.227a3.02 3.02 0 0 1-.427.32l-.004.002a2.97 2.97 0 0 1-.47.238c-.03.012-.063.019-.093.029-.14.051-.283.097-.432.127a3.011 3.011 0 0 1-.574.057h-4v3c0 1.108.892 2 2 2h2c1.108 0 2-.892 2-2h-3v-1h4c1.108 0 2-.892 2-2v-2c0-1.108-.892-2-2-2m-3 7.5a.499.499 0 1 1 0 1 .499.499 0 1 1 0-1" fill="#746025"/></svg>