<svg xmlns="http://www.w3.org/2000/svg" width="32" height="32"><g fill-rule="evenodd"><path d="M21.187 2H7.536A5.523 5.523 0 0 0 2 7.534v16.93A5.525 5.525 0 0 0 7.536 30h16.93A5.523 5.523 0 0 0 30 24.464V10.813z" fill="#59d4fb"/><path d="M30 10.813L21.187 2v3.279a5.521 5.521 0 0 0 5.534 5.534z" fill="#4e91a8"/></g><path d="M15.983 9.947c-.247 0-.449.2-.449.447v.409a1.81 1.81 0 0 0-1.369 1.761c0 .595.284 1.123.727 1.455a.315.315 0 0 1 .076.206.496.496 0 0 1-.004.066l-1.969 4.174h-.814a.242.242 0 0 0-.243.24c0 .133.11.24.243.24h.588l-1.52 3.223a.529.529 0 0 0 .102.594l-.586 1.19.925-1.003a.537.537 0 0 0 .622-.289l1.751-3.715h1.54v.319a.37.37 0 0 0 .37.367h.02a.37.37 0 0 0 .371-.367v-.319h1.574l1.754 3.715c.11.237.373.353.618.29l.925 1.001-.584-1.19a.531.531 0 0 0 .102-.593l-1.52-3.223h.551a.24.24 0 0 0 .242-.24.242.242 0 0 0-.242-.24h-.777l-1.969-4.174a.496.496 0 0 1-.004-.066c0-.078.029-.15.074-.206.443-.332.73-.86.73-1.455 0-.86-.6-1.575-1.405-1.77v-.4c0-.247-.2-.447-.45-.447zm.43 1.649a1.05 1.05 0 0 1-.412 2.017 1.049 1.049 0 0 1-1.055-1.049c0-.42.254-.777.614-.945.055.183.22.32.423.32a.443.443 0 0 0 .43-.343zm-.42 3.488H16.011c.057 0 .107.028.138.068l1.563 3.313h-1.348v-.389a.369.369 0 0 0-.37-.367h-.02a.37.37 0 0 0-.371.367v.389H14.29l1.563-3.313a.18.18 0 0 1 .14-.068z" fill="#4e91a8"/></svg>