<svg xmlns="http://www.w3.org/2000/svg" width="32" height="32"><path d="M21.187 2H7.536A5.523 5.523 0 0 0 2 7.534v16.93A5.525 5.525 0 0 0 7.536 30h16.93A5.523 5.523 0 0 0 30 24.464V10.813z" fill="#1273b2" fill-rule="evenodd"/><path d="M30 10.813L21.187 2v3.279a5.521 5.521 0 0 0 5.534 5.534z" fill="#00467a" fill-rule="evenodd"/><path d="M11.52 2v14.56H7.04v4.48H1.956v2.24H7.04v4.48h4.48V30h2.24v-2.24h4.48v-4.48h11.741v-2.24H18.24v-4.48h-4.48V2zM9.28 18.8H16v6.72H9.28zm2.24 2.24v2.24h2.24v-2.24z" fill="#90bdc9"/></svg>