<svg xmlns="http://www.w3.org/2000/svg" width="32" height="32" version="1"><path d="M21.187 2H7.536A5.523 5.523 0 0 0 2 7.534v16.93A5.525 5.525 0 0 0 7.536 30h16.93A5.523 5.523 0 0 0 30 24.464V10.813z" fill="#2095f2" fill-rule="evenodd"/><path d="M30 10.813L21.187 2v3.279a5.521 5.521 0 0 0 5.534 5.534z" fill="#0a77d8" fill-rule="evenodd"/><path style="line-height:normal;font-variant-ligatures:normal;font-variant-position:normal;font-variant-caps:normal;font-variant-numeric:normal;font-variant-alternates:normal;font-feature-settings:normal;text-indent:0;text-align:start;text-decoration-line:none;text-decoration-style:solid;text-decoration-color:#000;text-transform:none;text-orientation:mixed;white-space:normal;shape-padding:0;isolation:auto;mix-blend-mode:normal;solid-color:#000;solid-opacity:1" d="M22.549 11.916a1.14 1.14 0 0 0-1.08.816l-2.084 6.659-2.69-4.612a1.14 1.14 0 0 0-2.006.065l-2.154 4.312-2.004-6.424a1.14 1.14 0 1 0-2.177.68l2.845 9.125a1.14 1.14 0 0 0 2.11.17l2.478-4.957 2.93 5.021a1.14 1.14 0 0 0 2.074-.234l2.855-9.123a1.14 1.14 0 0 0-1.097-1.498z" color="#000" font-weight="400" font-family="sans-serif" overflow="visible" fill="#a2eaff"/></svg>