<svg xmlns="http://www.w3.org/2000/svg" width="32" height="32"><g fill-rule="evenodd"><path d="M21.187 2H7.536A5.523 5.523 0 0 0 2 7.534v16.93A5.525 5.525 0 0 0 7.536 30h16.93A5.523 5.523 0 0 0 30 24.464V10.813z" fill="#707070"/><path d="M30 10.813L21.187 2v3.279a5.521 5.521 0 0 0 5.534 5.534z" fill="#b7b7b7"/></g><g fill="#b7b7b7" stroke-width=".851"><path d="M18.378 13.986c.022-.179.039-.36.039-.545 0-.184-.017-.365-.04-.544l1.176-.923a.28.28 0 0 0 .067-.357l-1.115-1.933c-.07-.12-.215-.17-.34-.12l-1.39.561a4.253 4.253 0 0 0-.942-.549l-.21-1.479a.286.286 0 0 0-.278-.234h-2.231a.282.282 0 0 0-.276.234l-.21 1.48c-.34.141-.656.326-.942.548l-1.39-.56a.279.279 0 0 0-.34.12l-1.115 1.932a.28.28 0 0 0 .067.357l1.175.923c-.022.179-.039.36-.039.544 0 .185.017.366.04.545l-1.176.922a.28.28 0 0 0-.067.358l1.115 1.932c.07.12.215.17.34.12l1.39-.56c.286.22.603.406.942.549l.21 1.478a.28.28 0 0 0 .276.234h2.231c.14 0 .254-.103.276-.234l.21-1.478c.34-.143.655-.327.942-.55l1.39.561c.126.047.27 0 .34-.12l1.115-1.932a.28.28 0 0 0-.067-.358zm-4.145 1.408a1.952 1.952 0 1 1 0-3.905 1.952 1.952 0 1 1 0 3.905M21.564 23.848c.076-.107.151-.217.216-.336.065-.118.117-.24.166-.363l1.082-.18a.202.202 0 0 0 .168-.206l-.038-1.634a.203.203 0 0 0-.177-.196l-1.09-.127a3.136 3.136 0 0 0-.412-.684l.384-1.024a.21.21 0 0 0-.097-.248l-1.434-.783a.206.206 0 0 0-.26.054l-.653.877a3.02 3.02 0 0 0-.798.023l-.696-.848a.205.205 0 0 0-.26-.042l-1.396.85a.204.204 0 0 0-.082.253l.432 1.007a3.282 3.282 0 0 0-.216.336 3.236 3.236 0 0 0-.166.363l-1.08.181a.202.202 0 0 0-.168.206l.039 1.634a.203.203 0 0 0 .176.196l1.09.127c.107.242.244.473.412.684l-.384 1.024a.206.206 0 0 0 .095.247l1.434.783c.09.05.2.022.26-.054l.652-.877c.268.028.537.02.799-.022l.696.847a.205.205 0 0 0 .26.043l1.396-.852a.204.204 0 0 0 .082-.252zm-3.158-.549a1.429 1.429 0 1 1 1.367-2.509 1.429 1.429 0 0 1-1.367 2.51"/></g></svg>