<svg xmlns="http://www.w3.org/2000/svg" width="32" height="32"><g fill-rule="evenodd"><path d="M21.187 2H7.536A5.523 5.523 0 0 0 2 7.534v16.93A5.525 5.525 0 0 0 7.536 30h16.93A5.523 5.523 0 0 0 30 24.464V10.813z" fill="#707070"/><path d="M30 10.813L21.187 2v3.279a5.521 5.521 0 0 0 5.534 5.534z" fill="#b8b8b8"/></g><path d="M8.806 10.6v13.189h14.388v-13.19zm1.199 2.398h11.99v9.592h-11.99zm3.356 1.199l2.054 3.262-2.51 3.932h1.419l1.8-2.897 1.8 2.897h1.355l.047-.035-2.466-3.897 2.034-3.262h-1.452l-1.319 2.226-1.318-2.226z" color="#000" fill="#b8b8b8"/></svg>