<svg xmlns="http://www.w3.org/2000/svg" width="32" height="32"><g fill-rule="evenodd"><path d="M21.187 2H7.536A5.523 5.523 0 0 0 2 7.534v16.93A5.525 5.525 0 0 0 7.536 30h16.93A5.523 5.523 0 0 0 30 24.464V10.813z" fill="#ff9639"/><path d="M30 10.813L21.187 2v3.279a5.521 5.521 0 0 0 5.534 5.534z" fill="#a96e3a"/></g><path d="M15.38 10.453a.5.5 0 0 0-.345.147.5.5 0 0 0 0 .707l3.205 3.205a4 4 0 0 0-.24-.008h-7.5a.5.5 0 0 0-.5.5.5.5 0 0 0 .5.5h4.793l-5.146 5.146a.5.5 0 0 0 0 .707.5.5 0 0 0 .707 0l3.164-3.164a4 4 0 0 0-.018.31 4 4 0 0 0 4 4 4 4 0 0 0 4-4 4 4 0 0 0-.96-2.595l.005-.006-.135-.135a4 4 0 0 0-.203-.204l-4.965-4.965a.5.5 0 0 0-.361-.146M18 15.503a3 3 0 0 1 1.996.764l.227.227a3 3 0 0 1 .777 2.01 3 3 0 0 1-3 3 3 3 0 0 1-3-3 3 3 0 0 1 3-3m0 2a1 1 0 0 0-1 1 1 1 0 0 0 1 1 1 1 0 0 0 1-1 1 1 0 0 0-1-1" opacity=".4"/></svg>