<svg xmlns="http://www.w3.org/2000/svg" width="32" height="32" version="1"><path d="M21.187 2H7.536A5.523 5.523 0 0 0 2 7.534v16.93A5.525 5.525 0 0 0 7.536 30h16.93A5.523 5.523 0 0 0 30 24.464V10.813z" fill-rule="evenodd" fill="#636e73"/><path d="M30 10.813L21.187 2v3.279a5.521 5.521 0 0 0 5.534 5.534z" fill="#47525a" fill-rule="evenodd"/><path d="M15.565 12.856l-2.1 6.5-1.4-3.5h-2.75v1h2l1.94 5h.56l2.5-8h4v-1zm.94 3.375l2.035 2.682-2.225 2.943h1.11l1.667-2.21 1.668 2.21h1.112l-2.182-2.887 2.074-2.738h-1.111l-1.52 2.004-1.52-2.004z" fill="#ccc"/></svg>