<svg xmlns="http://www.w3.org/2000/svg" width="32" height="32"><g fill-rule="evenodd"><path d="M21.187 2H7.536A5.523 5.523 0 0 0 2 7.534v16.93A5.525 5.525 0 0 0 7.536 30h16.93A5.523 5.523 0 0 0 30 24.464V10.813z" fill="#ff8b23"/><path d="M30 10.813L21.187 2v3.279a5.521 5.521 0 0 0 5.534 5.534z" fill="#66380e"/></g><path d="M15.398 9.522v3.597h1.199V9.522zM13 10.722v2.397h1.199v-2.398zm4.796 0v2.397h1.199v-2.398zm-7.194 1.198v1.2h1.199v-1.2zm-1.199 2.398v4.796c0 2.174 1.211 3.597 3.597 3.597h-2.398v1.2h9.592v-1.2h-2.398c1.885 0 3.006-.871 3.597-2.398h1.199c1.199 0 1.199-.003 1.199-1.311V17.69c0-2.18 0-2.174-1.199-2.174h-1.199v-1.199zm1.199 1.2h9.592v3.596c0 1.812-1.604 2.398-3.597 2.398h-2.398c-1.993 0-3.597-.586-3.597-2.398zm10.791 1.198h1.199v2.398h-1.199z" fill="#66380e"/></svg>