<svg xmlns="http://www.w3.org/2000/svg" width="32" height="32"><g fill-rule="evenodd"><path d="M21.187 2H7.536A5.523 5.523 0 0 0 2 7.534v16.93A5.525 5.525 0 0 0 7.536 30h16.93A5.523 5.523 0 0 0 30 24.464V10.813z" fill="#cf74e0"/><path d="M30 10.813L21.187 2v3.279a5.521 5.521 0 0 0 5.534 5.534z" fill="#e7baf0"/></g><path d="M13.639 8.914a3.519 3.519 0 0 0-2.362 3.323v.45c0 .874-.477 1.627-1.18 2.034v2.558a2.342 2.342 0 0 1 1.18 2.032v.45c0 1.543.986 2.837 2.362 3.322v-1.29a2.346 2.346 0 0 1-1.181-2.034v-.45c0-1.534-.976-2.819-2.338-3.311a3.516 3.516 0 0 0 2.338-3.312v-.45c0-.874.477-1.627 1.18-2.035zm4.722 0v1.29a2.346 2.346 0 0 1 1.181 2.034v.45A3.52 3.52 0 0 0 21.88 16a3.515 3.515 0 0 0-2.338 3.312v.45c0 .874-.477 1.627-1.18 2.034v1.29a3.519 3.519 0 0 0 2.361-3.323v-.45c0-.874.477-1.625 1.18-2.032v-2.557a2.346 2.346 0 0 1-1.18-2.035v-.45a3.519 3.519 0 0 0-2.362-3.322" color="#000" fill="#fff"/></svg>