<svg xmlns="http://www.w3.org/2000/svg" width="32" height="32"><g fill-rule="evenodd"><path d="M21.187 2H7.536A5.523 5.523 0 0 0 2 7.534v16.93A5.525 5.525 0 0 0 7.536 30h16.93A5.523 5.523 0 0 0 30 24.464V10.813z" fill="#d8dcde"/><path d="M30 10.813L21.187 2v3.279a5.521 5.521 0 0 0 5.534 5.534z" fill="#79838e"/></g><path d="M16 9.522a7.671 7.671 0 0 0-7.672 7.672A7.671 7.671 0 0 0 16 24.866a7.671 7.671 0 0 0 7.672-7.672A7.671 7.671 0 0 0 16 9.522m0 1.279a6.394 6.394 0 1 1-.001 12.787A6.394 6.394 0 0 1 16 10.801m0 1.279a5.115 5.115 0 0 0-5.114 5.114h2.557A2.557 2.557 0 0 1 16 14.637zm0 3.835a1.279 1.279 0 0 0-1.279 1.279A1.279 1.279 0 0 0 16 18.473a1.279 1.279 0 0 0 1.279-1.279A1.279 1.279 0 0 0 16 15.915m2.557 1.279A2.557 2.557 0 0 1 16 19.751v2.557a5.115 5.115 0 0 0 5.114-5.114z" color="#000" fill="#79838e"/></svg>