<svg xmlns="http://www.w3.org/2000/svg" width="32" height="32"><g fill-rule="evenodd"><path d="M21.187 2H7.536A5.523 5.523 0 0 0 2 7.534v16.93A5.525 5.525 0 0 0 7.536 30h16.93A5.523 5.523 0 0 0 30 24.464V10.813z" fill="#396790"/><path d="M30 10.813L21.187 2v3.279a5.521 5.521 0 0 0 5.534 5.534z" fill="#95bbff"/></g><path d="M16 8.806a7.91 7.91 0 0 0-7.91 7.91 7.91 7.91 0 0 0 7.91 7.91 7.91 7.91 0 0 0 7.91-7.91A7.91 7.91 0 0 0 16 8.806m0 1.318c.228 0 .438.019.66.041h.164c.07.013.137.03.206.041.19.03.352.078.535.124.339.083.674.196.989.33.174.073.328.16.494.248v.04c.038.018.06.089.124.124.024.013.019.03.041.041.038.021.09.045.083.082-.01.053-.087.042-.124.082.005.076-.063.072-.083.124.012.033.076.043.083.081-.007.043-.099.04-.083.082.071.055.138.013.206 0 .147-.018.28-.013.37-.082-.012-.07.132-.06.124-.124.038.028.086.054.124.082-.014.013-.025.034-.04.041-.029.013-.058.025-.084.04l-.124.083c-.03.02-.092.124-.124.124-.038 0-.096-.05-.124-.041-.04.013-.038.067-.083.081-.087.032-.258-.047-.288.082.036.075.18.041.247.082.041.026.114.12.124.165a.781.781 0 0 1 0 .248c-.04.105-.167.083-.288.081h-.083c-.205-.013-.403-.105-.495.041.007.112.025.191 0 .289-.018.071-.128.145-.124.206.001.031.075.079.083.124.006.023-.01.059 0 .081.035.065.104-.013.165 0 .058.013.124.1.124.165 0 .046-.012.12-.04.165-.059.087-.166.076-.249.124-.068.04-.083.138-.124.205-.043.074-.099.1-.083.206a.484.484 0 0 1-.248.248c-.035.016-.09.017-.124.04-.026.02-.044.083-.083.125-.046.051-.098.084-.124.124-.018.03-.02.081-.04.124-.03.055-.087.068-.124.124-.017.026-.023.09-.041.124-.042.076-.09.138-.083.205.006.063.079.066.083.124.004.032-.042.048-.041.082.001.05.037.084.04.124.01.097-.062.14-.082.205-.01.032.008.057 0 .082-.016.049-.082.107-.083.165-.002.04.079.066.083.124.002.038-.049.087-.041.124.014.071.15.15.206.206.075.075.172.126.205.205.028.067.032.197.083.248.039.037.116.044.165.082.046.035.075.043.124.082.08.063.202.214.33.205.067-.013.13-.07.205-.082.078-.013.169-.047.248-.04.06.013.143.044.206.04.066-.013.13-.013.205-.04.131-.057.346-.152.536-.124.145.02.146.183.248.248.116.013.196-.023.288 0 .07.017.159.109.165.164.007.057-.075.13-.083.165-.018.077.013.157 0 .206-.01.038-.042.086-.04.124 0 .034.047.12.082.165.044.055.112.105.165.164.096.111.139.224.206.37.017.038-.016.077 0 .125-.03.221-.102.373-.248.618-.069.08-.166.15-.165.248-.005.237.135.389.124.618-.024.309.024.33 0 .495.104.052.03.22 0 .33-.045.13-.099.159-.124.247.07.03.17.019.248 0l-.124.124a6.888 6.888 0 0 1-.989.824c-.68.46-1.437.808-2.266.989-.454.099-.92.124-1.402.124-.25 0-.498-.013-.742-.041-.194-.022-.389-.044-.577-.082-.373-.076-.724-.234-1.072-.37-.012-.023-.044-.056-.041-.082.069-.029.198.098.248 0 .025-.046-.033-.16 0-.206.024-.031.157-.031.205-.04.07-.014.167-.023.206-.041.044-.028.09-.126.083-.206-.004-.038-.053-.048-.083-.082-.025-.029.017-.055 0-.082-.031-.046-.11-.056-.124-.124.095-.018.234.08.37.041.065-.018.176-.145.206-.205.01-.019-.01-.058 0-.082.012-.024.037-.07.041-.082.01-.035-.008-.017 0-.04.024-.068.085-.118.124-.165.03-.037.096-.086.124-.124.032-.041.02-.045.041-.082.02-.12-.07-.224-.04-.33.03-.118.214-.192.329-.248.04-.018.09-.029.124-.04.079-.028.174-.057.247-.082.124-.045.146-.135.206-.248.03-.053.077-.127.083-.165.006-.034-.006-.042 0-.082.007-.038-.01-.079 0-.124a1.37 1.37 0 0 0 .041-.247c0-.053-.04-.077-.04-.124-.01-.172.06-.153.123-.248.032-.046.06-.132.083-.165.107-.158.302-.214.289-.454-.005-.079-.066-.263-.124-.288-.033-.015-.075-.024-.124-.041-.155-.058-.291-.235-.453-.248h-.084c-.063 0-.134-.032-.205-.04-.045-.014-.139.012-.165 0-.04-.02-.05-.102-.083-.125-.026-.018-.083-.026-.124-.04-.065-.024-.09-.078-.165-.082-.024 0-.056.013-.083 0-.04-.014-.086-.018-.124-.041-.047-.03-.104-.041-.124-.082.044-.142-.095-.165-.124-.248-.013-.038.014-.13 0-.165-.017-.048-.07-.083-.124-.124a.495.495 0 0 0-.288-.124c-.06-.013-.133.014-.206 0a.472.472 0 0 1-.248-.123c-.055-.065-.075-.135-.124-.165-.046-.03-.092-.053-.124-.082-.014-.013-.027-.013-.04-.04-.024-.05-.07-.065-.041-.125-.053-.026-.025.05-.083.041-.052-.072-.09-.145-.206-.124-.053.013-.103.123-.165.124-.051 0-.098-.113-.165-.124-.051-.013-.129.048-.165.041-.056-.013-.072-.047-.123-.082-.039-.025-.103-.083-.124-.081-.066 0-.115.13-.206.081-.045-.056.094-.07.04-.124-.039-.038-.05.023-.082.041-.037.024-.083.027-.124.041-.091.034-.177.045-.248.082a.247.247 0 0 0-.124.124c-.03.055-.078.162-.124.165-.055 0-.074-.06-.124-.082-.151-.066-.245.038-.37.04-.116 0-.294-.179-.29-.288.005-.067.034-.165.042-.248.006-.066.082-.146.083-.206.001-.081-.153-.114-.206-.124-.124-.022-.271.056-.412 0-.027-.044.025-.079.04-.123.01-.024-.009-.056 0-.082.016-.042.105-.08.124-.124.015-.034-.014-.08 0-.124.017-.048.08-.09.083-.124.006-.045-.047-.095-.083-.124-.11.013-.183.013-.248.041-.142.065-.104.244-.247.289-.05.016-.11.031-.165.04-.024.014-.056 0-.083 0 .002-.013-.003-.027 0-.04.006-.03.034-.053.04-.082.094-.429.24-.844.413-1.237h.041c.05.013.08.08.124.082.121.013.146-.112.248-.165.103.015.154-.013.248 0 .063.013.155.077.205.082.043 0 .044-.046.084-.04.04.012.117.076.123.123.007.06-.058.141-.04.206.062.063.2.087.288.124.058-.05.01-.137 0-.206-.001-.03.004-.096 0-.124-.006-.047-.04-.083-.04-.124 0-.188.162-.256.288-.33.054-.031.118-.1.165-.123.067-.033.11-.014.165-.041.1-.057.169-.143.248-.206.035-.086-.004-.204 0-.289.035-.022.085 0 .124 0 .06-.013.09-.09.124-.124.02-.02.059-.02.083-.04.06-.048.07-.103.124-.124a.348.348 0 0 1 .083-.041c.04-.013.101-.017.164-.041.041-.015.15-.024.165-.041.02-.02-.005-.094 0-.124.032-.149.237-.156.37-.206.093-.034.187-.142.29-.124-.02.072-.1.08-.084.165.023.12.164-.024.206-.04.08-.035.224-.085.33-.125.092-.033.251-.058.164-.164-.072-.014-.101.056-.164.081-.044.014-.045-.037-.083-.04-.036 0-.048.047-.084.04-.035-.013-.076-.08-.083-.124-.014-.11.08-.124.124-.205-.03-.1-.163-.044-.248-.082a.15.15 0 0 1 .124-.124.488.488 0 0 1 .248.041c.02.017-.03.055 0 .082.035.03.08.013.124 0 .016-.075-.095-.033-.083-.082.09-.058.261-.026.37-.04a.893.893 0 0 0 .206-.083c.053-.03.069-.09.124-.04.016.054-.01.094-.04.123-.102.09-.21.185-.29.29.05.047.125.03.206.04.032.013.091 0 .124 0 .04.013.093-.013.124 0 .056.013.069.124.124.124.09 0 .051-.106 0-.165.016-.062.063-.121.04-.165-.04-.081-.197.024-.205-.081-.005-.066.06-.074.083-.124-.01-.127.095-.133.083-.248-.006-.048-.05-.037-.083-.082-.017-.024-.02-.105-.04-.124-.07-.058-.198-.013-.206-.124-.004-.066.009-.136 0-.205-.01-.068-.066-.276-.124-.29-.074-.015-.117.125-.206.166a.494.494 0 0 1-.205.04c-.032-.013-.08-.02-.084-.081-.005-.056.062-.08.084-.124.005-.013-.003-.027 0-.041.096-.026.19-.06.288-.082.056-.013.11-.03.165-.04.04-.014.084.013.124 0a6.389 6.389 0 0 1 1.194-.123zm-2.678.619c-.042.241-.267.336-.535.33-.06.057-.008.165-.04.247-.029.067-.14.13-.207.124-.048 0-.123-.078-.123-.124 0-.057.09-.06.04-.124.003-.013.028-.027.041-.04.027-.018.056-.026.083-.041.239-.147.484-.255.743-.371m5.521.247c-.024.013-.02.027-.04.04-.05.03-.086.069-.125.082-.054.02-.116.033-.124.082-.006.04.043.045.041.082-.02.048-.03.064-.04.124.067.109.205-.024.288-.041.037-.013.063-.013.083-.041.023-.036.024-.074.041-.124.019-.055.088-.075.083-.124-.005-.049-.124-.088-.206-.082m-7.21.826c.062.05.15.16.04.205a.678.678 0 0 1-.205.041c-.013 0-.03-.032-.04-.04.068-.067.134-.143.205-.206m.248.247c.032 0 .045.08.083.082.036 0 .06-.046.083-.04.055.014.094.123.04.164-.043.013-.05-.046-.082-.04-.09.015-.139.21-.206.205-.063-.013-.105-.16-.04-.206 0-.04-.003-.04 0-.081.02-.024.07-.086.123-.082zm-.33.041c.019 0 .035-.013.041 0-.009.07-.029.091-.083.124-.093.057-.175.127-.206.248-.009.036-.12.132-.164.124-.104-.022.059-.218.083-.248.026-.033.051-.045.083-.082.03-.036.054-.102.083-.123a.324.324 0 0 1 .165-.041zm8.94.206c.105-.013.159.101.206.165.04.051.141.129.206.165.037.02.083.064.124.081.085.039.244.164.248.248 0 .042-.048.085-.041.124.064.013.122-.1.124-.165.12.172.225.354.33.536.05.085.118.158.164.247-.058.018-.072.027-.083.082-.013.074.029.193-.083.206-.07.013-.152-.06-.248-.082-.04-.013-.092.013-.124 0-.072-.024-.062-.121-.124-.165a.628.628 0 0 0-.205-.081c-.036 0-.045.013-.084 0-.044-.014-.127.018-.164 0a.426.426 0 0 1-.124-.124c-.015-.05.121-.082.124-.124.002-.032-.035-.075-.041-.124-.005-.03.006-.062 0-.082-.01-.034-.07-.04-.124-.04h-.496c-.115.012-.199-.014-.289 0-.064 0-.187.055-.247.08a4.28 4.28 0 0 0-.083.042c-.019.013-.06.03-.084.04-.036.018-.088.072-.123.082-.052.014-.113-.013-.206 0-.067 0-.164-.043-.165-.124-.001-.122.214-.059.33-.081.043-.013.07-.05.124-.082.025-.015.017-.025.04-.04.04-.029.118-.093.124-.125.006-.029-.004-.06 0-.082.006-.027.048-.044.083-.081.056-.056.097-.13.165-.165.046-.024.103-.045.124-.082.005-.042-.001-.042 0-.082a.173.173 0 0 1 .083-.04c.071-.016.123 0 .206 0 .035 0 .086.017.124 0 .031-.022.05-.068.083-.082a.328.328 0 0 1 .124-.041zm.743.783h-.165c-.058 0-.13-.03-.165 0 .049.08.139.104.248.124a.262.262 0 0 0 .083-.124m-9.023-.742h.124c.033 0 .07-.013.083 0-.021.087-.22.072-.289.04.004-.032.041-.035.083-.04m-.289.165c-.058.042-.114.095-.205.124-.05.015-.115.014-.124-.041-.01-.069.079-.035.124-.041.058-.013.138-.038.205-.041zm8.57 0c-.043.014-.065.11 0 .124.03-.019.049-.068.041-.124-.017-.019-.028-.014-.04 0m-.084.205c.001.074.015.143 0 .206.042.082.144.014.165-.04.025-.138-.019-.183-.083-.166-.021.014-.06-.017-.083 0M9.495 15.81c.074.067.117.162.206.205.033.017.081.03.124.04.034.014.05-.012.083 0 .07.025.15.058.205.083.085.037.174.163.248.205.004.042-.013.093 0 .124.034.046.069.093.124.124.067.037.102.095.165.124.022.013.047-.013.083 0 .087.026.13.146.206.124.048-.014.033-.076.04-.124.033-.036.073-.082.124-.082.082 0 .094.127.124.206.018.045.07.077.083.124.02.082.018.322 0 .37-.02.061-.114.057-.164.124-.024.032-.023.102-.041.124-.032.039-.06.046-.083.082-.013.02-.03.055-.041.082-.04.084-.115.146-.083.248.013.04.083.075.083.124 0 .058-.115.101-.124.164-.007.047.026.103.04.165.011.046.097.094.125.124.046.052.081.141.124.206.083.128.124.286.205.412.044.065.136.097.165.165.015.035-.013.093 0 .124.048.107.264.236.37.289.05.025.12.014.165.04.07.04.213.146.248.206.032.056.025.2.041.29.02.115-.005.204 0 .329.004.068.041.096.041.165v.123c-.001.082.007.165 0 .248a.776.776 0 0 0 0 .124c.004.041.038.046.04.082.003.038-.044.094-.04.124.01.083.066.13.083.206.013.06.049.216.04.288-.004.039-.035.08-.04.124-.004.035.005.052 0 .082-.004.03.008.057 0 .082l-.124-.082a6.888 6.888 0 0 1-.989-.824c-.04-.04-.084-.082-.124-.124a6.737 6.737 0 0 1-.659-.824c-.018-.026-.024-.057-.04-.082a6.346 6.346 0 0 1-.578-1.072c-.012-.027-.03-.054-.041-.081a6.644 6.644 0 0 1-.33-1.072c-.015-.07-.027-.136-.04-.206a6.55 6.55 0 0 1-.124-1.196c0-.313.04-.605.083-.907m2.555.7c.063-.029.051.074 0 .082-.05.013-.048-.058 0-.082" color="#000" fill="#80adff"/></svg>