<svg xmlns="http://www.w3.org/2000/svg" width="32" height="32" version="1"><path d="M21.187 2H7.536A5.523 5.523 0 0 0 2 7.534v16.93A5.525 5.525 0 0 0 7.536 30h16.93A5.523 5.523 0 0 0 30 24.464V10.813z" fill="#ccc" fill-rule="evenodd"/><path d="M30 10.813L21.187 2v3.279a5.521 5.521 0 0 0 5.534 5.534z" fill="#999" fill-rule="evenodd"/><path d="M14.847 12.127c-.77 0-.846 1-.846 1h-2.23s-.77-.165-.77.668v.333L21 14.126v-.33c0-.833-.77-.669-.77-.669H18s-.077-1-.846-1zm-2.846 3v7.188c0 .425.083.812.5.812h7c.416 0 .5-.387.5-.812v-7.188z" fill="#999"/></svg>