<svg xmlns="http://www.w3.org/2000/svg" width="32" height="32"><path d="M21.187 2H7.536A5.523 5.523 0 0 0 2 7.534v16.93A5.525 5.525 0 0 0 7.536 30h16.93A5.523 5.523 0 0 0 30 24.464V10.813z" fill-rule="evenodd" fill="#13a553"/><path d="M30 10.813L21.187 2v3.279a5.521 5.521 0 0 0 5.534 5.534z" fill="#008043" fill-rule="evenodd"/><path d="M16 9.864c-.885 0-1.701.477-2.136 1.248a2.452 2.452 0 0 0-2.768 2.43c.001.106.01.213.024.318a2.452 2.452 0 0 0-1.25 2.134c0 .885.477 1.701 1.248 2.136a2.452 2.452 0 0 0 2.43 2.768v3.065c0 .546.66.819 1.046.433L16 22.991l1.406 1.405a.613.613 0 0 0 1.046-.433v-3.065a2.452 2.452 0 0 0 2.452-2.452 2.47 2.47 0 0 0-.024-.319 2.452 2.452 0 0 0 1.25-2.133c0-.885-.477-1.701-1.248-2.136a2.452 2.452 0 0 0-2.43-2.768 2.47 2.47 0 0 0-.319.024A2.452 2.452 0 0 0 16 9.864zm0 2.452a3.678 3.678 0 1 1 0 7.356 3.678 3.678 0 0 1 0-7.356zm0 .613a3.065 3.065 0 1 0 0 6.13 3.065 3.065 0 0 0 0-6.13z" fill="#fff"/></svg>