<svg xmlns="http://www.w3.org/2000/svg" width="32" height="32"><g fill-rule="evenodd"><path d="M21.187 2H7.536A5.523 5.523 0 0 0 2 7.534v16.93A5.525 5.525 0 0 0 7.536 30h16.93A5.523 5.523 0 0 0 30 24.464V10.813z" fill="#f2793a"/><path d="M30 10.813L21.187 2v3.279a5.521 5.521 0 0 0 5.534 5.534z" fill="#fac9b3"/></g><g color="#4d4d4d" fill="#fac9b3"><path d="M10 11.075v12h12v-12h-2v2h-2v-2h-4v2h-2v-2zm1 3h10v8H11z"/><path d="M15 18.075v3h1v-1h3v1h1v-3h-1v1h-3v-1zM12 15.075v3h1v-1h4v1h1v-3h-1v1h-4v-1z"/></g></svg>