<svg xmlns="http://www.w3.org/2000/svg" width="32" height="32"><g fill-rule="evenodd"><path d="M21.187 2H7.536A5.523 5.523 0 0 0 2 7.534v16.93A5.525 5.525 0 0 0 7.536 30h16.93A5.523 5.523 0 0 0 30 24.464V10.813z" fill="#d6dbdd"/><path d="M30 10.813L21.187 2v3.279a5.521 5.521 0 0 0 5.534 5.534z" fill="#8096a0"/></g><g fill="#8096a0"><path d="M18.023 14.31c.019-.152.033-.306.033-.463 0-.157-.014-.311-.033-.463l1-.785a.237.237 0 0 0 .057-.304l-.95-1.644a.234.234 0 0 0-.288-.102l-1.182.477a3.618 3.618 0 0 0-.802-.467L15.68 9.3a.243.243 0 0 0-.237-.2h-1.898a.24.24 0 0 0-.235.2l-.178 1.258a3.542 3.542 0 0 0-.802.467l-1.182-.477a.237.237 0 0 0-.29.102l-.948 1.644a.239.239 0 0 0 .057.304l1 .785a3.723 3.723 0 0 0-.033.463c0 .157.014.31.033.463l-1 .785a.237.237 0 0 0-.057.304l.949 1.644a.234.234 0 0 0 .289.102l1.182-.477c.244.187.513.346.802.467l.178 1.258a.239.239 0 0 0 .235.199h1.898a.24.24 0 0 0 .235-.2l.178-1.257c.289-.121.558-.278.802-.467l1.182.477c.107.04.23 0 .289-.102l.949-1.644a.239.239 0 0 0-.057-.304zm-3.526 1.198a1.66 1.66 0 1 1 0-3.322 1.66 1.66 0 1 1 0 3.322M20.733 22.7c.065-.091.129-.185.184-.286.055-.101.1-.205.14-.31l.922-.152a.172.172 0 0 0 .143-.175l-.033-1.39a.173.173 0 0 0-.15-.167l-.927-.108a2.668 2.668 0 0 0-.351-.582l.327-.871a.178.178 0 0 0-.083-.211l-1.22-.666a.175.175 0 0 0-.221.046l-.555.746a2.57 2.57 0 0 0-.68.019l-.591-.721a.174.174 0 0 0-.222-.036l-1.187.724a.174.174 0 0 0-.07.215l.368.856a2.792 2.792 0 0 0-.184.286c-.055.1-.1.205-.141.309l-.92.154a.172.172 0 0 0-.142.175l.033 1.39a.173.173 0 0 0 .15.167l.927.108c.09.206.208.402.35.582l-.326.87a.175.175 0 0 0 .08.21l1.22.667c.077.042.17.019.222-.046l.555-.746c.228.024.456.017.679-.02l.592.722a.174.174 0 0 0 .222.036l1.187-.724a.174.174 0 0 0 .07-.215zm-2.686-.467a1.215 1.215 0 1 1 1.163-2.135 1.215 1.215 0 0 1-1.163 2.135"/></g></svg>