<svg xmlns="http://www.w3.org/2000/svg" xmlns:xlink="http://www.w3.org/1999/xlink" width="32" height="32"><defs><linearGradient id="a" y1="392.36" y2="336.36" gradientUnits="userSpaceOnUse" x2="0" gradientTransform="translate(268.33 166.62)"><stop stop-color="#fff" stop-opacity="0"/><stop offset="1" stop-color="#fff" stop-opacity=".2"/></linearGradient><linearGradient xlink:href="#a" id="b" y1="392.36" y2="336.36" gradientUnits="userSpaceOnUse" x2="0" gradientTransform="matrix(.5 0 0 .48276 13.263 -177.462)"/></defs><path d="M25.263-15.562v28h22v-28h-7z" color="#000" fill="url(#b)"/><g fill-rule="evenodd"><path d="M21.187 2H7.536A5.523 5.523 0 0 0 2 7.534v16.93A5.525 5.525 0 0 0 7.536 30h16.93A5.523 5.523 0 0 0 30 24.464V10.813z" fill="#fada6b"/><path d="M30 10.813L21.187 2v3.279a5.521 5.521 0 0 0 5.534 5.534z" fill="#fdedb8"/></g><path d="M16.002 20.278l-3.772-3.773L16 12.735l1.258 1.256-2.517 2.514L16 17.764l3.772-3.773-3.287-3.284a.689.689 0 0 0-.97 0l-5.313 5.313a.687.687 0 0 0 0 .974l5.312 5.313a.689.689 0 0 0 .971 0l5.312-5.313a.687.687 0 0 0 0-.974l-.77-.77zm0 0" opacity=".75" fill="#fff"/></svg>