<svg xmlns="http://www.w3.org/2000/svg" width="32" height="32"><path d="M21.187 2H7.536A5.523 5.523 0 0 0 2 7.534v16.93A5.525 5.525 0 0 0 7.536 30h16.93A5.523 5.523 0 0 0 30 24.464V10.813z" fill-rule="evenodd" fill="#607d8b"/><path d="M30 10.813L21.187 2v3.279a5.521 5.521 0 0 0 5.534 5.534z" fill="#4f6772" fill-rule="evenodd"/><path d="M14.865 8.618c-.84 0-1.935.477-2.936 1.274a1.687 1.687 0 0 0-.902 2.177 2.254 2.254 0 0 0-1.723 2.88 2.25 2.25 0 0 0-.272 2.88 2.257 2.257 0 0 0 .757 3.246 2.54 2.54 0 0 0 1.748 2.721 2.531 2.531 0 0 0 2.19 1.258A2.54 2.54 0 0 0 16 23.644a2.545 2.545 0 0 0 2.273 1.41c.906 0 1.734-.479 2.189-1.258a2.542 2.542 0 0 0 1.75-2.72 2.257 2.257 0 0 0 .757-3.247 2.25 2.25 0 0 0-.272-2.88 2.254 2.254 0 0 0-1.722-2.88 1.689 1.689 0 0 0-.902-2.177c-1.002-.797-2.097-1.274-2.937-1.274-.467 0-.881.23-1.136.583a1.4 1.4 0 0 0-1.134-.583m0 .533c.48 0 .869.392.869.871v3.444a1.394 1.394 0 0 0-.87-.304.267.267 0 1 0 0 .533c.48 0 .87.39.87.87v6.4a2.54 2.54 0 0 0-1.347-.9.268.268 0 0 0-.328.188.268.268 0 0 0 .188.328 2.007 2.007 0 0 1 1.485 1.933c0 1.106-.9 2.006-2.005 2.006a2 2 0 0 1-1.775-1.074.263.263 0 0 0-.166-.132 2.008 2.008 0 0 1-1.445-2.338.266.266 0 0 0-.152-.295 1.723 1.723 0 0 1-.79-2.437c.397.35.919.564 1.488.564a.266.266 0 0 0 0-.533 1.719 1.719 0 0 1-1.102-3.043.262.262 0 0 0 .074-.303 1.723 1.723 0 0 1 1.595-2.368c.95 0 1.721.773 1.721 1.72a.267.267 0 1 0 .533 0 2.254 2.254 0 0 0-2.11-2.245 1.154 1.154 0 1 1 2.03-1.096.266.266 0 0 0 .48-.23 1.701 1.701 0 0 0-1.13-.906c.68-.414 1.349-.65 1.883-.65m2.27 0c.535 0 1.204.236 1.883.65a1.705 1.705 0 0 0-1.129.905.265.265 0 0 0 .123.354.267.267 0 0 0 .357-.123 1.145 1.145 0 0 1 1.493-.555 1.155 1.155 0 0 1 .536 1.65 2.256 2.256 0 0 0-2.11 2.247.267.267 0 1 0 .533 0c0-.95.773-1.721 1.721-1.721.95 0 1.721.773 1.721 1.72 0 .223-.043.441-.128.648a.264.264 0 0 0 .078.303c.393.328.619.812.619 1.322 0 .95-.773 1.721-1.721 1.721a.267.267 0 0 0-.268.265c0 .147.12.268.268.268.57 0 1.09-.213 1.488-.564a1.722 1.722 0 0 1-.79 2.436.266.266 0 0 0-.155.296 2.008 2.008 0 0 1-1.442 2.338.267.267 0 0 0-.167.132 2.002 2.002 0 0 1-1.774 1.074c-1.106 0-2.006-.9-2.006-2.006 0-.075-.003-.148-.01-.222a.271.271 0 0 0 .01-.073v-8.791c0-.48.39-.872.87-.872a.267.267 0 0 0 .267-.265.269.269 0 0 0-.267-.268c-.328 0-.63.114-.87.304V10.02c0-.48.39-.872.87-.872m3.976 4.58a.267.267 0 0 0-.268.265 1.722 1.722 0 0 1-2.95 1.206.266.266 0 0 0-.381.371 2.23 2.23 0 0 0 1.362.665c.122.81.822 1.432 1.667 1.432a.267.267 0 0 0 .268-.265.269.269 0 0 0-.268-.267c-.551 0-1.013-.39-1.127-.908a2.26 2.26 0 0 0 1.963-2.235.267.267 0 0 0-.268-.265m-9.653.285a.267.267 0 0 0-.268.265 2.26 2.26 0 0 0 1.96 2.235 1.154 1.154 0 0 1-1.124.908.267.267 0 0 0-.267.265c0 .146.12.267.267.267a1.69 1.69 0 0 0 1.667-1.432 2.23 2.23 0 0 0 1.362-.665.266.266 0 0 0-.38-.371 1.723 1.723 0 0 1-2.952-1.206.265.265 0 0 0-.265-.265m5.679 3.976a.267.267 0 0 0 0 .533 1.723 1.723 0 0 1 1.71 1.9 2.258 2.258 0 0 0-1.41 2.09.266.266 0 1 0 .533 0c-.001-.949.772-1.72 1.72-1.72a.267.267 0 0 0 .267-.266.269.269 0 0 0-.267-.267c-.102 0-.202.009-.301.022v-.038a2.255 2.255 0 0 0-2.254-2.254m-3.123.569a2.253 2.253 0 0 0-2.253 2.25v.041a2.201 2.201 0 0 0-.301-.022.267.267 0 0 0-.268.265c0 .147.121.268.268.268.95 0 1.721.773 1.721 1.721a.267.267 0 0 0 .533 0c0-.944-.586-1.756-1.412-2.09a1.723 1.723 0 0 1 1.711-1.901c.147 0 .265-.12.265-.267h.003a.267.267 0 0 0-.268-.265" fill="#b8deec"/></svg>