<svg xmlns="http://www.w3.org/2000/svg" width="32" height="32"><path d="M21.187 2H7.536A5.523 5.523 0 0 0 2 7.534v16.93A5.525 5.525 0 0 0 7.536 30h16.93A5.523 5.523 0 0 0 30 24.464V10.813z" fill-rule="evenodd" fill="#fb654b"/><path d="M30 10.813L21.187 2v3.279a5.521 5.521 0 0 0 5.534 5.534z" fill="#fed8d2" fill-rule="evenodd"/><path d="M20.98 12.72l-3.475.63c.05 2.375-2.254 4.03-4.416-.45l-4.09.63c.636 2.42 2.921 2.717 4.445 3.99-.762 1.194-4.223.475-4.13 4.2l3.475-.629c-.05-2.376 3.96-4.376 6.122.1l4.09-.629c-.639-2.426-3.067-2.657-4.59-3.937.755-1.734 3.254-.175 2.57-3.904" fill="#fed8d2"/></svg>