<svg xmlns="http://www.w3.org/2000/svg" width="32" height="32"><g fill-rule="evenodd"><path d="M21.187 2H7.536A5.523 5.523 0 0 0 2 7.534v16.93A5.525 5.525 0 0 0 7.536 30h16.93A5.523 5.523 0 0 0 30 24.464V10.813z" fill="#ec2310"/><path d="M30 10.813L21.187 2v3.279a5.521 5.521 0 0 0 5.534 5.534z" fill="#faa097"/></g><path d="M16 10.836a6 2 0 0 0-6 2v8a6 2 0 0 0 6 2 6 2 0 0 0 6-2v-8a6 2 0 0 0-6-2m0 1a5 1 0 0 1 5 1 5 1 0 0 1-5 1 5 1 0 0 1-5-1 5 1 0 0 1 5-1m-5 2.101a6 2 0 0 0 5 .899 6 2 0 0 0 5-.897v2.896a5 1 0 0 1-5 1 5 1 0 0 1-5-1zm0 4a6 2 0 0 0 5 .899 6 2 0 0 0 5-.897v2.896a5 1 0 0 1-5 1 5 1 0 0 1-5-1z" fill="#faa39b"/></svg>