<svg xmlns="http://www.w3.org/2000/svg" width="32" height="32" version="1"><path d="M21.187 2H7.536A5.523 5.523 0 0 0 2 7.534v16.93A5.525 5.525 0 0 0 7.536 30h16.93A5.523 5.523 0 0 0 30 24.464V10.813z" fill-rule="evenodd" fill="#a3c639"/><path d="M30 10.813L21.187 2v3.279a5.521 5.521 0 0 0 5.534 5.534z" fill="#8cac22" fill-rule="evenodd"/><path d="M14.029 10.644a.11.11 0 0 0-.084.015c-.05.032-.059.102-.021.155l.517.72c-1.147.429-1.941 1.353-1.941 2.723h7c0-1.411-.84-2.354-2.043-2.764l.488-.679c.038-.053.029-.122-.019-.155-.05-.033-.12-.017-.158.036l-.524.732a4.627 4.627 0 0 0-1.244-.17c-.48 0-.939.067-1.355.195l-.543-.757a.13.13 0 0 0-.073-.051zm.973 1.613c.277 0 .498.223.498.498a.502.502 0 0 1-.498.502.5.5 0 1 1 0-1zm2 0c.277 0 .498.223.498.498a.502.502 0 0 1-.498.502.5.5 0 1 1 0-1zm-6.457 3c-.575 0-1.045.303-1.045.676v2.646c0 .373.47.678 1.045.678s.955-.305.955-.678v-2.646c0-.374-.379-.676-.955-.676zm1.955 0v5.5c0 .277.223.5.5.5h.5v1.383c0 .409.641.617 1 .617s1.054-.213 1-.617v-1.383h1v1.383c0 .409.641.617 1 .617s1.027-.21 1-.617v-1.383h.5c.277 0 .5-.223.5-.5v-5.5zm9.045 0c-.575 0-1.045.303-1.045.676v2.646c0 .373.47.678 1.045.678s.955-.305.955-.678v-2.646c0-.374-.379-.676-.955-.676z" fill="#fff"/></svg>