<svg xmlns="http://www.w3.org/2000/svg" width="32" height="32"><g fill-rule="evenodd"><path d="M21.187 2H7.536A5.523 5.523 0 0 0 2 7.534v16.93A5.525 5.525 0 0 0 7.536 30h16.93A5.523 5.523 0 0 0 30 24.464V10.813z" fill="#4bc94b"/><path d="M30 10.813L21.187 2v3.279a5.521 5.521 0 0 0 5.534 5.534z" fill="#b3e8b3"/></g><path d="M14 11.433c-.554 0-1 .446-1 1v1h-2c-.554 0-1 .446-1 1v8c0 .554.446 1 1 1h8c.554 0 1-.446 1-1v-1h1c.554 0 1-.446 1-1v-8c0-.554-.446-1-1-1h-2zm0 1h7v8h-1v-6c0-.554-.446-1-1-1h-3.975c-.616-.265-1.051-.575-1.025-1m-3 2h8v8h-8zm1 1v2h6v-2zm0 3v1h6v-1zm0 2v1h6v-1z" opacity=".75" fill="#a5e4a5"/></svg>