<svg xmlns="http://www.w3.org/2000/svg" width="32" height="32"><g fill-rule="evenodd"><path d="M21.187 2H7.536A5.523 5.523 0 0 0 2 7.534v16.93A5.525 5.525 0 0 0 7.536 30h16.93A5.523 5.523 0 0 0 30 24.464V10.813z" fill="#20aaf3"/><path d="M30 10.813L21.187 2v3.279a5.521 5.521 0 0 0 5.534 5.534z" fill="#dbedfe"/></g><path d="M16 10.955a6 6 0 1 0 0 12 6 6 0 0 0 0-12m0 1c.173 0 .332.014.5.031h.125c.053.01.104.023.156.031.144.023.267.06.406.094.257.063.511.15.75.25.132.056.249.121.375.188v.031c.029.013.045.067.094.094.018.01.014.022.031.031.029.016.068.034.063.062-.008.04-.066.032-.094.062.004.058-.048.055-.063.094.009.025.058.033.063.062-.005.032-.075.03-.063.062.054.042.105.01.156 0 .112-.014.212-.01.281-.062-.009-.053.1-.046.094-.094.029.021.065.041.094.062-.011.01-.019.026-.031.031-.021.01-.043.02-.063.031l-.094.062c-.023.016-.07.094-.094.094-.029 0-.073-.037-.094-.03-.03.01-.029.05-.063.061-.066.024-.196-.036-.219.062.028.057.137.031.188.062a.31.31 0 0 1 .094.125.593.593 0 0 1 0 .188c-.031.08-.127.063-.219.062h-.063c-.155-.01-.305-.08-.375.031.005.085.019.145 0 .22-.014.053-.097.11-.094.155.001.024.057.06.063.094.004.018-.008.045 0 .062.026.05.079-.01.125 0 .044.01.094.076.094.125a.26.26 0 0 1-.031.125c-.044.066-.125.058-.188.094-.052.03-.063.105-.094.156-.033.056-.075.076-.063.156a.367.367 0 0 1-.188.188c-.027.012-.069.013-.094.031-.02.014-.034.062-.063.094-.035.04-.075.064-.094.094-.014.023-.016.062-.031.094-.022.042-.066.052-.094.094-.013.02-.017.068-.031.094-.032.058-.068.105-.063.156.005.048.06.05.063.094.003.024-.032.036-.031.062.001.038.028.064.031.094.007.074-.048.106-.063.156-.007.024.006.043 0 .062-.012.037-.062.081-.063.125-.001.031.06.05.063.094.002.03-.037.066-.031.094.011.054.114.114.156.156.057.057.131.096.156.156.021.051.024.15.063.188.029.028.088.033.125.062.035.027.057.033.094.062.061.048.153.163.25.156.051-.01.099-.053.156-.062.059-.01.128-.036.188-.03.046.01.108.033.156.03.05-.01.099-.01.156-.03.099-.044.262-.116.406-.095.11.016.111.14.188.188.088.01.149-.017.219 0 .053.013.12.083.125.125.005.043-.057.098-.063.125-.014.058.01.12 0 .156-.008.03-.032.065-.031.094 0 .026.036.091.063.125.033.042.085.08.125.125.073.084.105.17.156.281.013.028-.012.058 0 .094-.022.168-.077.283-.188.47-.052.06-.126.112-.125.187-.004.18.102.295.094.47-.018.233.018.25 0 .374.079.04.023.167 0 .25-.034.1-.075.121-.094.188.053.023.129.014.188 0l-.094.094a5.224 5.224 0 0 1-.75.625 4.94 4.94 0 0 1-1.719.75 4.966 4.966 0 0 1-1.063.094c-.19 0-.378-.01-.563-.03-.147-.018-.295-.034-.438-.063-.283-.058-.549-.178-.813-.28-.009-.018-.033-.043-.031-.063.052-.022.15.074.188 0 .019-.035-.025-.12 0-.156.018-.024.119-.024.156-.03.053-.01.126-.018.156-.032.033-.02.068-.095.063-.156-.003-.029-.04-.036-.063-.062-.019-.022.013-.042 0-.062-.024-.035-.084-.043-.094-.094.072-.014.177.06.281.031.049-.014.133-.11.156-.156.007-.014-.008-.044 0-.062.009-.018.028-.053.031-.062.007-.027-.006-.013 0-.03.018-.052.064-.09.094-.126.023-.028.073-.065.094-.094.024-.03.015-.034.031-.062.015-.09-.053-.17-.031-.25.024-.09.163-.146.25-.188.03-.014.069-.022.094-.03.06-.022.132-.044.188-.063.094-.034.11-.102.156-.188.022-.04.058-.096.063-.125.004-.026-.005-.032 0-.062.005-.029-.008-.06 0-.094a1.04 1.04 0 0 0 .031-.188c0-.04-.03-.058-.031-.094-.007-.13.046-.116.094-.188.024-.035.046-.1.063-.125.081-.12.229-.162.219-.344-.004-.06-.05-.2-.094-.219-.025-.01-.057-.018-.094-.03-.118-.045-.221-.179-.344-.189h-.063c-.048 0-.102-.024-.156-.03-.034-.01-.105.01-.125 0-.031-.016-.038-.078-.063-.095-.02-.014-.063-.02-.094-.03-.049-.019-.068-.06-.125-.063-.018 0-.043.01-.063 0-.031-.01-.065-.013-.094-.03-.036-.023-.079-.032-.094-.063.033-.108-.072-.125-.094-.188-.01-.029.01-.099 0-.125-.013-.037-.053-.063-.094-.094a.375.375 0 0 0-.219-.094c-.046-.01-.101.01-.156 0a.358.358 0 0 1-.188-.094c-.042-.049-.057-.102-.094-.125-.035-.022-.07-.04-.094-.062-.011-.01-.021-.01-.031-.03-.018-.038-.053-.05-.031-.095-.04-.02-.019.038-.063.031-.039-.055-.068-.11-.156-.094-.04.01-.078.093-.125.094-.039 0-.074-.086-.125-.094-.039-.01-.098.036-.125.031-.043-.01-.055-.036-.094-.062-.029-.019-.078-.063-.094-.062-.05 0-.087.1-.156.062-.034-.043.071-.054.031-.094-.03-.029-.038.017-.063.031-.028.018-.063.02-.094.031-.069.026-.134.034-.188.062a.187.187 0 0 0-.094.094c-.023.042-.059.123-.094.125-.042 0-.056-.045-.094-.062-.115-.05-.186.03-.281.031-.088 0-.223-.136-.219-.219.003-.05.025-.125.031-.188.005-.05.062-.11.063-.156.001-.062-.116-.087-.156-.094-.094-.017-.206.042-.313 0-.02-.034.019-.06.031-.094.007-.018-.007-.042 0-.062.012-.032.079-.06.094-.094.011-.026-.011-.06 0-.094.013-.036.06-.068.063-.094.004-.034-.036-.072-.063-.094-.083.01-.139.01-.188.031-.108.05-.079.185-.188.22a.914.914 0 0 1-.125.03c-.018.01-.042 0-.063 0 .002-.01-.002-.02 0-.03.005-.024.026-.04.031-.063a4.92 4.92 0 0 1 .313-.938h.031c.038.01.061.06.094.062.092.01.111-.085.188-.125.078.011.117-.01.188 0 .048.01.118.058.156.062.032 0 .033-.035.063-.03.03.01.089.057.094.093.005.045-.044.107-.031.156.047.048.152.066.219.094.044-.037.007-.104 0-.156-.001-.023.003-.073 0-.094-.005-.036-.031-.063-.031-.094 0-.143.123-.194.219-.25.041-.024.089-.076.125-.094.051-.025.083-.01.125-.03.076-.044.128-.109.188-.157.027-.065-.003-.155 0-.219.027-.017.065 0 .094 0 .046-.01.068-.068.094-.094.015-.015.045-.016.063-.03.046-.037.054-.079.094-.095a.264.264 0 0 1 .063-.03c.03-.01.077-.014.125-.032.031-.01.113-.018.125-.03.015-.016-.004-.072 0-.095.024-.113.18-.118.281-.156.07-.026.141-.108.219-.094-.015.054-.075.06-.063.125.017.091.124-.018.156-.03.061-.027.17-.065.25-.095.07-.025.191-.044.125-.125-.055-.01-.077.043-.125.062-.033.01-.034-.028-.063-.03-.027 0-.036.035-.063.03-.027-.01-.058-.06-.063-.094-.011-.084.06-.094.094-.156-.023-.076-.124-.033-.188-.062a.113.113 0 0 1 .094-.094.37.37 0 0 1 .188.031c.015.013-.023.042 0 .062.026.023.06.01.094 0 .012-.057-.072-.025-.063-.062.068-.044.198-.02.281-.03a.677.677 0 0 0 .156-.063c.04-.023.052-.069.094-.03.012.04-.008.071-.031.093-.077.068-.159.14-.219.22.037.035.094.023.156.03.024.01.069 0 .094 0 .03.01.07-.01.094 0 .042.01.052.094.094.094.068 0 .039-.08 0-.125.012-.047.048-.092.031-.125-.031-.062-.15.018-.156-.062-.004-.05.045-.056.063-.094-.008-.096.072-.1.063-.188-.005-.036-.038-.028-.063-.062-.013-.018-.016-.08-.031-.094-.052-.044-.15-.01-.156-.094-.003-.05.007-.103 0-.156-.007-.05-.05-.209-.094-.219-.056-.012-.089.094-.156.125a.375.375 0 0 1-.156.031c-.024-.01-.06-.015-.063-.062-.004-.042.047-.06.063-.094.004-.01-.002-.02 0-.03.073-.02.145-.046.219-.063.042-.01.083-.023.125-.03.03-.01.064.01.094 0a4.845 4.845 0 0 1 .906-.093zm-2.031.47c-.032.182-.203.254-.406.25-.046.043-.006.125-.031.187-.021.051-.105.098-.156.094-.037 0-.094-.059-.094-.094 0-.043.068-.045.031-.094.002-.01.021-.02.031-.03.02-.014.042-.02.063-.032.181-.11.367-.193.563-.28m4.188.186c-.018.01-.015.021-.031.031-.038.023-.065.052-.094.062-.041.015-.088.025-.094.062-.005.031.032.034.031.062-.015.037-.023.05-.031.094.051.083.156-.018.219-.03.028-.01.048-.01.063-.032.017-.027.018-.056.031-.094.014-.042.067-.057.063-.094-.004-.037-.094-.067-.156-.062m-5.469.626c.047.038.114.121.031.156a.514.514 0 0 1-.156.031c-.01 0-.023-.024-.031-.03.052-.05.102-.109.156-.157m.188.188c.024 0 .034.061.063.062.027 0 .046-.035.063-.03.042.01.071.093.031.124-.033.01-.038-.035-.063-.03-.068.011-.105.16-.156.155-.048-.01-.08-.12-.031-.156.001-.03-.002-.03 0-.062.015-.018.054-.065.094-.062zm-.25.031c.014 0 .026-.01.031 0-.007.053-.022.07-.063.094-.071.043-.133.096-.156.188-.007.027-.091.1-.125.094-.079-.017.045-.165.063-.188.02-.025.039-.034.063-.062.023-.028.041-.078.063-.094a.246.246 0 0 1 .125-.03zm6.781.156c.079-.01.12.077.156.125a.63.63 0 0 0 .156.125c.028.015.063.05.094.062.065.03.185.124.188.188.001.032-.036.064-.031.094.049.01.093-.076.094-.125.092.13.171.268.25.406.038.065.09.12.125.188-.044.013-.055.02-.063.062-.01.056.022.146-.063.156-.053.01-.115-.045-.188-.062-.03-.01-.07.01-.094 0-.055-.018-.047-.092-.094-.125a.476.476 0 0 0-.156-.062c-.027 0-.034.01-.063 0-.034-.01-.097.014-.125 0a.323.323 0 0 1-.094-.094c-.011-.037.092-.062.094-.094.002-.024-.026-.057-.031-.094-.004-.022.005-.047 0-.062-.007-.026-.053-.03-.094-.03h-.376c-.087.01-.151-.01-.219 0-.049 0-.142.041-.188.061l-.063.031c-.014.01-.045.023-.063.031-.028.013-.067.054-.094.062-.039.01-.085-.01-.156 0-.051 0-.124-.033-.125-.094-.001-.093.162-.045.25-.062.033-.01.054-.038.094-.062.019-.01.013-.019.031-.03.03-.022.089-.07.094-.095.004-.022-.003-.045 0-.062.004-.02.036-.034.063-.062.042-.042.073-.098.125-.125.035-.018.078-.034.094-.062.004-.032-.001-.032 0-.062a.131.131 0 0 1 .063-.03c.054-.013.093 0 .156 0 .027 0 .065.012.094 0 .024-.017.038-.052.063-.063a.248.248 0 0 1 .094-.03zm.563.594h-.125c-.044 0-.099-.023-.125 0 .037.06.105.08.188.094a.199.199 0 0 0 .063-.094m-6.844-.563h.094c.025 0 .053-.01.063 0-.016.066-.167.055-.219.031.003-.025.031-.027.063-.03m-.219.124c-.044.032-.087.072-.156.094-.038.012-.087.011-.094-.03-.008-.053.06-.027.094-.032.044-.01.105-.029.156-.03zm6.5 0c-.033.011-.049.084 0 .094.023-.014.037-.05.031-.094-.013-.014-.021-.01-.031 0m-.063.156c.001.056.011.108 0 .156.032.062.109.011.125-.03.019-.105-.014-.139-.063-.126-.016.01-.046-.013-.063 0m-8.281 2.343c.056.051.089.123.156.156a.471.471 0 0 0 .094.031c.026.01.038-.01.063 0 .053.018.114.043.156.062.064.028.132.124.188.156.003.032-.01.07 0 .094.026.035.052.07.094.094.051.028.077.072.125.094.017.01.036-.01.063 0 .066.02.099.111.156.094.037-.01.025-.058.031-.094.025-.027.055-.062.094-.062.062 0 .071.096.094.156.013.034.053.058.063.094a.941.941 0 0 1 0 .281c-.016.046-.087.043-.125.094-.018.024-.017.077-.031.094-.024.03-.045.035-.063.062-.01.015-.022.042-.031.062-.03.064-.087.111-.063.188.01.031.063.057.063.094 0 .044-.087.077-.094.125-.005.035.02.078.031.125.008.035.073.071.094.094.035.04.062.107.094.156.063.097.094.217.156.313.033.05.103.073.125.125.011.026-.01.07 0 .094.036.081.2.18.281.22.038.018.09.01.125.03.053.03.161.11.188.156.024.042.019.152.031.22.015.087-.004.154 0 .25.003.051.031.072.031.124 0 .018.001.075 0 .094-.001.062.005.125 0 .188a.59.59 0 0 0 0 .094c.003.031.029.035.031.062.002.03-.034.071-.031.094.007.063.05.098.063.156.01.046.037.164.031.22-.004.028-.027.06-.031.093-.003.026.004.04 0 .062-.003.023.006.043 0 .062l-.094-.062a5.224 5.224 0 0 1-.75-.625c-.031-.03-.064-.062-.094-.094a5.11 5.11 0 0 1-.5-.625c-.014-.02-.018-.043-.031-.062a4.813 4.813 0 0 1-.438-.813c-.009-.02-.023-.04-.031-.062a5.04 5.04 0 0 1-.25-.813c-.012-.053-.021-.103-.031-.156a4.968 4.968 0 0 1-.094-.907c0-.238.03-.459.063-.688m1.938.531c.048-.022.039.056 0 .062-.037.01-.036-.044 0-.062" color="#000" fill="#dbedfe"/></svg>