<svg xmlns="http://www.w3.org/2000/svg" width="32" height="32"><g fill-rule="evenodd"><path d="M21.187 2H7.536A5.523 5.523 0 0 0 2 7.534v16.93A5.525 5.525 0 0 0 7.536 30h16.93A5.523 5.523 0 0 0 30 24.464V10.813z" fill="#3b3b3b"/><path d="M30 10.813L21.187 2v3.279a5.521 5.521 0 0 0 5.534 5.534z" fill="#bbb"/></g><path d="M21.995 11.653l-7 .004-2.44 6.691L11 15.653h-1v1h.428l2.133 3.693 3.02-7.693H22zm-4 2c-1.662 0-3 1.338-3 3a2.993 2.993 0 0 0 5 2.226v.775h1v-6h-1v.775a2.98 2.98 0 0 0-2-.775m0 1c1.108 0 2 .892 2 2s-.892 2-2 2-2-.892-2-2 .893-2 2-2" color="#000" fill="#afafaf"/></svg>