<svg xmlns="http://www.w3.org/2000/svg" width="32" height="32"><g fill-rule="evenodd"><path d="M21.187 2H7.536A5.523 5.523 0 0 0 2 7.534v16.93A5.525 5.525 0 0 0 7.536 30h16.93A5.523 5.523 0 0 0 30 24.464V10.813z" fill="#e05050"/><path d="M30 10.813L21.187 2v3.279a5.521 5.521 0 0 0 5.534 5.534z" fill="#723838"/></g><path d="M10.514 11.62l-2.743 2.742 8.229 9.6 8.229-9.6-2.743-2.743zm.6 1.37h4.202v1.372H9.743zm5.573 0h4.2l1.372 1.372h-5.572zm-5.958 2.744h4.587v5.33zm5.958 0h4.586l-4.586 5.33z" color="#000" fill="#723838"/></svg>