<svg xmlns="http://www.w3.org/2000/svg" width="32" height="32"><path d="M21.187 2H7.536A5.523 5.523 0 0 0 2 7.534v16.93A5.525 5.525 0 0 0 7.536 30h16.93A5.523 5.523 0 0 0 30 24.464V10.813z" fill-rule="evenodd" fill="#8c96c2"/><path d="M30 10.813L21.187 2v3.279a5.521 5.521 0 0 0 5.534 5.534z" fill="#546096" fill-rule="evenodd"/><path d="M16.474 18.643l-1.385-1.38.016-.016a9.668 9.668 0 0 0 2.024-3.591h1.598v-1.1H14.91v-1.1h-1.09v1.1H10v1.095h6.094a8.653 8.653 0 0 1-1.73 2.948 8.65 8.65 0 0 1-1.26-1.842h-1.09a9.682 9.682 0 0 0 1.625 2.508l-2.776 2.76.775.782 2.727-2.75 1.696 1.71zm3.071-2.788h-1.09L16 22.455h1.09l.611-1.65h2.591l.616 1.65H22zm-1.429 3.85l.885-2.381.884 2.38z" fill="#546096"/></svg>