<svg xmlns="http://www.w3.org/2000/svg" width="32" height="32"><path d="M21.187 2H7.536A5.523 5.523 0 0 0 2 7.534v16.93A5.525 5.525 0 0 0 7.536 30h16.93A5.523 5.523 0 0 0 30 24.464V10.813z" fill="#977dc1" fill-rule="evenodd"/><path d="M30 10.813L21.187 2v3.279a5.521 5.521 0 0 0 5.534 5.534z" fill="#7c679f" fill-rule="evenodd"/><path d="M15.327 11.438l-6.725 6.054 6.725 6.053v-2.69l-3.362-3.363 3.362-3.363zm3.587 0c-.495 0-.896.643-.896 1.138v1.792c-.018 1.212 2.035 1.212 2.017 0v-.912h1.346v3.121l-2.22 1.53c-.243.16-.461.427-.47.717v1.121c-.018 1.214 2.034 1.214 2.017 0v-.64l2.291-1.53c.24-.16.39-.428.4-.717v-4.482c0-.495-.402-1.138-.897-1.138zm.785 10.089a1.009 1.009 0 0 0-1.009 1.009 1.009 1.009 0 0 0 1.01 1.009 1.009 1.009 0 0 0 1.008-1.01 1.009 1.009 0 0 0-1.009-1.008z" fill="#d3cff2"/></svg>