<svg xmlns="http://www.w3.org/2000/svg" width="32" height="32"><path d="M21.187 2H7.536A5.523 5.523 0 0 0 2 7.534v16.93A5.525 5.525 0 0 0 7.536 30h16.93A5.523 5.523 0 0 0 30 24.464V10.813z" fill="#e6506e" fill-rule="evenodd"/><path d="M30 10.813L21.187 2v3.279a5.521 5.521 0 0 0 5.534 5.534z" fill="#fad9e0" fill-rule="evenodd"/><g fill="#fad9e0"><path d="M16 12.014c-1.105 0-2 .9-2 2v4c0 1.1.895 2 2 2s2-.9 2-2v-4c0-1.1-.895-2-2-2zm0 1c.552 0 1 .4 1 1 0 .5-.448 1-1 1s-1-.5-1-1c0-.6.448-1 1-1zm0 3a1 1 0 0 1 1 1v1a1 1 0 1 1-2 0v-1a1 1 0 0 1 1-1zM15 2.014v1h1v-1zm0 2v1h1v-1zm0 2v1h1v-1zm0 2v1h1v-1zm0 2v1h1v-1zM16 3.014v1h1v-1zm0 2v1h1v-1zm0 2v1h1v-1zm0 2v1h1v-1zm0 2v1h1v-1z"/></g><path d="M9.2 26.953a4.609 4.609 0 0 1-1.502-.583c-.881-.565-1.457-1.192-1.814-1.976-.118-.26-.183-.462-.368-1.15a5.34 5.34 0 0 0-.127-.417c-.04-.1-.042-.134-.025-.466.017-.317.071-.744.1-.79.007-.007.02-.01.03-.006.036.021.07-.076.102-.298.018-.121.046-.248.063-.282a1.5 1.5 0 0 0 .062-.168c.04-.134.096-.236.267-.495.076-.114.154-.238.174-.276.024-.044.05-.066.075-.061.023.007.061-.025.101-.077.174-.226.995-.892 1.07-.87.021.008.108-.021.193-.061.154-.073.222-.09.222-.056 0 .01-.022.033-.05.05-.047.032-.046.032.028.015.042-.01.113-.023.158-.03.056-.01.078-.022.07-.04-.007-.017.01-.033.04-.04.075-.02.193-.017.193.006 0 .026-.067.051-.12.046-.037-.007-.039 0-.012.018.028.018.028.021.002.022-.017 0-.025.007-.018.012.007.007.053-.008.102-.03.049-.024.139-.054.2-.066.074-.016.11-.033.11-.055 0-.027.035-.03.27-.018.147.008.37.03.496.048.227.036.227.036.312-.01.101-.056.265-.063.308-.014a.372.372 0 0 0 .096.065c.06.03.064.03.039 0-.049-.055 0-.054.187.007.606.191 1.1.532 1.465 1.01.087.114.093.166.01.096l-.047-.039.036.066c.02.037.036.078.036.091 0 .014.058.115.13.224.16.247.205.33.194.36-.005.013-.076-.074-.158-.193a5.147 5.147 0 0 0-.27-.357c-.1-.115-.126-.135-.146-.11a.13.13 0 0 1-.073.037l-.05.007.049.09c.027.048.052.079.056.067.023-.066.131.02.18.143.016.04.058.122.094.183.036.06.06.114.055.119-.006.007-.038-.011-.073-.037l-.062-.046.043.07a.459.459 0 0 0 .087.102c.03.024.045.06.046.118.003.106.067.231.102.198.055-.051.066-.02.052.15a.784.784 0 0 0 .02.292c.036.132.028.165-.025.103-.034-.04-.035-.04-.02 0a.774.774 0 0 1 .05.27c-.012.095-.05.055-.063-.068l-.013-.12-.003.128c-.002.07-.02.205-.038.3-.02.096-.03.213-.023.263.014.093.004.096-.078.03-.034-.027-.04-.022-.063.06a.234.234 0 0 0 0 .163.323.323 0 0 1 .02.123c-.01.063-.063.082-.063.023 0-.074-.03-.047-.12.107a2.045 2.045 0 0 1-1.076.89c-.26.09-.434.123-.727.139l-.263.014.13.038a.75.75 0 0 0 .319.023 2.56 2.56 0 0 0 .538-.093c.042-.016.07-.016.085-.007.035.032-.271.16-.453.189-.309.049-.723-.007-1.088-.14-.248-.093-.615-.333-.559-.365.01-.007.08.025.155.07.096.056.137.071.137.05 0-.041.014-.04.09.012.068.046.28.132.431.175.166.047.102-.01-.12-.108-.703-.309-.995-.618-1.14-1.207-.054-.216.002-.69.1-.838a.273.273 0 0 0 .045-.103c0-.082.145-.3.294-.44.263-.247.536-.35.89-.335.171.008.245.022.387.075.162.061.365.188.303.19a.748.748 0 0 1-.143-.045c-.097-.038-.16-.046-.38-.047-.31 0-.46.04-.68.186-.313.207-.487.446-.548.752a1.002 1.002 0 0 0-.01.467c.018.118.031.152.054.144.02-.007.03.007.03.028 0 .073.17.368.286.5.28.318.734.521 1.165.521.224 0 .404-.04.57-.127.068-.036.152-.078.188-.096a.705.705 0 0 0 .3-.264c.052-.074.108-.134.125-.134.025 0 .024.01-.006.057-.098.153.132-.125.251-.303l.134-.2-.015-.13c-.014-.126-.012-.134.052-.197.062-.06.067-.079.074-.242.006-.145.002-.176-.025-.176-.025 0-.036-.038-.047-.166-.015-.168-.16-.736-.194-.755a.471.471 0 0 1-.063-.122c-.083-.204-.228-.402-.454-.616a2.754 2.754 0 0 0-1.12-.653c-.33-.09-.888-.057-1.286.075-.194.065-.386.15-.418.187-.015.016-.036.025-.047.018-.012-.007-.01-.025.008-.044.073-.083-.17.07-.327.205a18.02 18.02 0 0 1-.18.154c-.004.007.015 0 .041-.007.045-.01.047-.008.023.035-.016.027-.096.076-.195.118a.827.827 0 0 0-.358.26c-.035.045-.036.055-.01.045.02-.007.035-.007.035.01 0 .06-.057.125-.142.164-.187.085-.515.543-.692.963-.078.187-.077.181-.034.181.045 0 .042.048-.02.307-.09.376-.09.364.008.894.12.646.19.862.322.995a.356.356 0 0 1 .075.166c.016.08.043.132.093.183.046.045.062.073.044.08-.035.011.074.164.173.243.05.04.087.053.127.046.088-.016.178.031.315.167.143.142.157.18.063.167-.061-.008-.063-.007-.033.036.018.025.081.085.142.133.085.068.107.097.096.129-.015.045.029.088.128.123.061.022.08.07.035.085-.014.007.072.088.192.186.135.111.226.172.238.16.035-.031.078-.022.08.016 0 .043.039.087.178.206.089.075.11.085.165.07.049-.012.08-.006.15.04.139.09.223.125.295.125.071 0 .081.019.045.084-.02.034-.016.04.03.04.028 0 .109.018.18.041.159.052.226.055.185.01-.059-.067.003-.049.215.063.296.156.445.174 1.033.123.087-.008.115-.007.115.018 0 .018-.075.045-.214.077-.182.041-.28.05-.654.054a4.053 4.053 0 0 1-.611-.023zm-.3-3.105c0-.007-.028-.023-.06-.043l-.061-.034.052.042c.05.042.069.051.069.035zm3.025-2.171c-.007-.016-.012-.012-.013.012-.001.023.004.035.011.027.007-.007.008-.024.002-.04zm-5-2.187c.027-.032.026-.033-.008-.008-.021.016-.039.032-.039.036 0 .017.018.007.047-.029zm.25-.191c.022-.023.035-.042.029-.042a.173.173 0 0 0-.051.042c-.022.022-.035.041-.03.041a.173.173 0 0 0 .052-.041zm.276-.146c.073-.023.114-.027.13-.013.014.015.071.007.177-.027a.57.57 0 0 0 .146-.056.57.57 0 0 0-.156.038c-.111.035-.151.04-.164.022-.02-.032-.22.03-.307.096l-.058.045.063-.036c.034-.02.11-.05.17-.07zm.634-.052c.064-.018.112-.036.107-.04a.835.835 0 0 0-.237.063c0 .013.002.012.13-.023zm.364-.113l.088-.015H8.46a.315.315 0 0 0-.132.03c-.035.02-.04.026-.01.016a1.17 1.17 0 0 1 .131-.03zm.175-.04c.007-.01-.007-.013-.032-.007-.051.013-.058.027-.012.027.017 0 .037-.01.044-.02zm.71.008c-.008-.007-.027-.008-.043 0-.018.007-.012.011.013.012.023 0 .036-.007.03-.011zm-.132-.023a.143.143 0 0 0-.077 0c-.021.007-.003.01.038.01.043 0 .06-.007.039-.01zm-.22-.021a.744.744 0 0 0-.175 0c-.052.006-.015.007.082.007.096 0 .139-.007.094-.008zm-.286-.018c-.007-.007-.026-.008-.042 0-.018.007-.013.011.013.012.023 0 .036-.007.029-.011zm-.149 4.978c-.224-.15-.307-.229-.307-.289 0-.032.008-.058.017-.058.032 0 .406.368.398.392-.005.013-.05-.007-.108-.045zm-.115-.383c-.116-.111-.153-.17-.107-.17.029 0 .245.233.245.263 0 .015-.003.026-.006.026s-.063-.053-.132-.12zm1.286-.454c-.061-.023-.023-.067.077-.087.057-.011.149-.04.203-.062a.342.342 0 0 1 .107-.034c.005.007-.02.05-.055.102-.062.094-.063.094-.184.093a.792.792 0 0 1-.148-.012zm.66-.463c-.06-.023-.063-.06-.013-.191.043-.112.087-.134.062-.031-.009.036-.02.09-.026.119l-.01.052.044-.047a.327.327 0 0 0 .059-.16c.008-.063.023-.109.034-.102.027.016.024.18-.005.29-.026.096-.049.107-.146.07zm-5.2-.26a.698.698 0 0 1-.014-.157c0-.09.008-.122.028-.116.032.01.051.305.02.305-.012 0-.027-.014-.034-.032zm5.286-.485c-.034-.043-.045-.078-.035-.114.02-.075.072-.064.11.023.06.134.008.198-.075.091zm-5.291-.329c-.001-.117 0-.12.055-.119.047 0 .058.013.064.066.006.058-.062.175-.102.175-.008 0-.016-.055-.017-.122zm5.696-2.546c.003-.185.036-.248.062-.118.018.09-.005.25-.04.277-.019.014-.025-.026-.022-.159zm-2.888-.111c.01-.025.312-.142.368-.142.066 0-.052.076-.188.12-.151.051-.192.056-.18.022z" opacity=".75" fill="#fff"/></svg>