<svg xmlns="http://www.w3.org/2000/svg" width="32" height="32"><g fill-rule="evenodd"><path d="M21.187 2H7.536A5.523 5.523 0 0 0 2 7.534v16.93A5.525 5.525 0 0 0 7.536 30h16.93A5.523 5.523 0 0 0 30 24.464V10.813z" fill="#46c546"/><path d="M30 10.813L21.187 2v3.279a5.521 5.521 0 0 0 5.534 5.534z" fill="#3f883f"/></g><path d="M20.893 9.629a.37.37 0 0 0-.205.059c-.035.024-.19.208-.342.408l-.275.367-.1-.068c-.138-.093-.272-.113-.398-.057-.087.039-.29.3-1.63 2.064-.847 1.113-1.536 2.031-1.534 2.045.001.012.34.28.752.592l.752.57 1-1.316c.55-.725 1.008-1.313 1.02-1.305.035.027.095.598.081.782-.005.1-.042.28-.082.4-.07.213-.079.227-1.318 1.865-.685.906-1.255 1.675-1.266 1.705-.03.084.001.242.065.332.106.153.37.202.52.094.103-.075 2.558-3.343 2.636-3.514.229-.487.279-1.112.139-1.728a4 4 0 0 0-.2-.647c-.02-.045.015-.104.245-.41.217-.291.267-.373.271-.449.01-.161-.04-.251-.197-.375l-.147-.115.295-.393c.242-.324.293-.408.297-.484a.394.394 0 0 0-.379-.422zm-4.959 5.428c-.007 0-.907 1.186-2.004 2.63-1.763 2.327-2.014 2.671-2.177 2.967-.324.59-.678 1.49-.914 2.313-.153.527-.16.478.05.367.649-.346 1.495-.906 1.989-1.32.482-.406.564-.51 2.613-3.21l1.97-2.599-.757-.576a25.209 25.209 0 0 0-.77-.572zm.217 6.025a1.116 1.116 0 0 0-.26.012c-.304.064-.643.328-.806.633a2.833 2.833 0 0 0-.159.392 4.053 4.053 0 0 1-.082.256c-.023.03-.607.17-.949.229-.806.14-1.026.193-1.105.267-.155.144-.035.287.185.223.06-.018.307-.067.547-.108.24-.04.609-.117.817-.164.208-.05.383-.083.392-.074.01.01-.026.177-.082.373l-.1.352-.22.097a3.03 3.03 0 0 0-.383.206c-.275.182-.33.41-.137.556.106.08.4.075.58-.004.161-.073.253-.176.38-.443.066-.138.118-.21.16-.219.031-.009.323-.067.646-.135.322-.064.614-.125.652-.134.062-.015.068-.01.051.046a1.818 1.818 0 0 1-.121.229.658.658 0 0 0-.1.242c0 .091.077.182.139.158a.264.264 0 0 1 .068-.017c.015 0 .08-.047.145-.106.12-.108.41-.639.41-.75 0-.056.044-.071.07-.027.01.015.076.043.149.06.103.027.133.047.133.094 0 .091.149.222.28.248a.698.698 0 0 0 .376-.062c.05-.02.053-.015.035.062a1.959 1.959 0 0 1-.19.334c-.192.287-.427.745-.488.948-.05.173-.028.302.063.363.082.053.217.029.287-.047.062-.067.394-.774.517-1.096.088-.226.13-.287.329-.498.164-.173.216-.215.181-.148-.059.126-.055.223.01.281.138.126.337.005.51-.312.103-.188.18-.245.56-.424l.2-.09-.022.107a2.27 2.27 0 0 1-.148.37c-.138.29-.164.474-.082.632.056.108.112.11.382.018.375-.126.867-.415.993-.582.173-.234.225-.461.119-.537-.108-.08-.169-.046-.307.156-.185.275-.415.489-.635.598-.103.053-.192.087-.2.078-.013-.012.223-.642.349-.938a.595.595 0 0 0 .047-.17c0-.082-.105-.175-.192-.175-.04 0-.233.08-.427.18-.402.198-.374.216-.272-.159.062-.231.04-.294-.102-.309-.135-.015-.187.03-.31.25-.08.15-.185.272-.387.46-.267.245-.278.254-.34.21-.094-.067-.147-.058-.375.057-.223.111-.295.126-.351.059-.047-.056.025-.085.433-.164.396-.076.446-.098.446-.18 0-.132-.109-.257-.303-.342-.334-.149-.373-.159-.52-.121-.158.041-.391.268-.423.408-.032.147-.133.104-.133-.058 0-.067-.082-.238-.13-.268-.1-.067-.259.08-.382.35l-.098.207-.216.046a75.83 75.83 0 0 1-1.207.247c-.07.012-.084.005-.069-.036.012-.029.047-.157.082-.289.091-.363.118-.41.25-.457.158-.056.691-.284.828-.355a1.74 1.74 0 0 0 .293-.22c.296-.276.344-.53.133-.718a.871.871 0 0 0-.17-.117.927.927 0 0 0-.244-.04zm-.144.346c.155.009.215.023.26.07.058.06.058.063.005.174a.688.688 0 0 1-.22.223c-.18.123-.738.35-.756.308-.024-.067.154-.468.27-.597.151-.173.197-.192.44-.178zm-1.655 2.453c.022.001.021.02.004.055-.038.073-.138.127-.193.107-.064-.026-.047-.063.056-.115a.34.34 0 0 1 .133-.047z" fill="#3f883f"/></svg>