<svg xmlns="http://www.w3.org/2000/svg" width="32" height="32"><g fill-rule="evenodd"><path d="M21.187 2H7.536A5.523 5.523 0 0 0 2 7.534v16.93A5.525 5.525 0 0 0 7.536 30h16.93A5.523 5.523 0 0 0 30 24.464V10.813z" fill="#555"/><path d="M30 10.813L21.187 2v3.279a5.521 5.521 0 0 0 5.534 5.534z" fill="#aaa"/></g><path d="M9 12.356v1H8v8h1v1h14v-1h1v-8h-1v-1H9.91zm.908 1h12.184c.15.425.484.758.908.908v6.184c-.425.15-.758.484-.908.908H9.908A1.489 1.489 0 0 0 9 20.448v-6.184c.425-.15.758-.484.908-.908m6.092 1c-1.662 0-3 1.338-3 3s1.338 3 3 3 3-1.338 3-3-1.338-3-3-3m0 1c1.108 0 2 .892 2 2s-.892 2-2 2-2-.892-2-2 .892-2 2-2" color="#4d4d4d" fill="#aaa"/></svg>