<svg xmlns="http://www.w3.org/2000/svg" width="32" height="32" version="1"><path d="M21.187 2H7.536A5.523 5.523 0 0 0 2 7.534v16.93A5.525 5.525 0 0 0 7.536 30h16.93A5.523 5.523 0 0 0 30 24.464V10.813z" fill="#ccc" fill-rule="evenodd"/><path d="M30 10.813L21.187 2v3.279a5.521 5.521 0 0 0 5.534 5.534z" fill="#999" fill-rule="evenodd"/><path d="M16 8.593a8.22 8.22 0 1 0 0 16.44 8.22 8.22 0 0 0 0-16.44zm-.823 1.571c.095-.01.217.006.314 0 .011.046-.07.209-.18.448-.695 1.52-.735 3.302-.089 4.254.117.173.223.337.223.358 0 .021-.126.044-.268.044-.335 0-.652-.204-1.299-.716-.287-.228-.66-.418-.805-.447-.227-.046-.288-.026-.582.268-.274.274-.358.422-.358.672 0 .95 1.127 1.703 3.222 2.147 2.847.603 3.548 1.146 3.627 2.642.098 1.877-.901 3.292-3.09 4.388-.261.13-.427.18-.537.222-.048-.004-.084.005-.133 0a1.57 1.57 0 0 1-.045-.447c0-.997-.392-2.022-.984-2.596-.16-.154-.606-.48-.987-.716-.38-.236-.765-.51-.85-.626-.143-.194-.153-.314-.044-.672.199-.654.434-1.02.894-1.434.242-.216.484-.397.537-.4.054-.005-.306-.115-.849-.226a15.292 15.292 0 0 1-1.747-.493c-.75-.271-1.761-.84-2.147-1.252-.016-.018-.032-.03-.046-.046a7.198 7.198 0 0 1 4.163-4.879c.43-.182.875-.307 1.344-.403.233-.048.475-.065.716-.09zm6.715 3.358c.169.104.803 1.479.984 2.15.234.865.217 2.362 0 3.222-.082.327-.187.634-.222.672-.035.038-.164-.18-.314-.447s-.631-.834-1.03-1.255c-1.152-1.216-1.334-1.849-.851-2.819.243-.489 1.303-1.603 1.433-1.523z" fill="#999"/></svg>