<svg xmlns="http://www.w3.org/2000/svg" width="32" height="32"><g fill-rule="evenodd"><path d="M21.187 2H7.536A5.523 5.523 0 0 0 2 7.534v16.93A5.525 5.525 0 0 0 7.536 30h16.93A5.523 5.523 0 0 0 30 24.464V10.813z" fill="#6ec6e0"/><path d="M30 10.813L21.187 2v3.279a5.521 5.521 0 0 0 5.534 5.534zM14.761 8.567v2.478h2.478V8.567zm-.162 2.92l-2.453.658 1.013 1.013 1.602-.43v-1.24zm2.64 0v1.239l3.787 1.016-3.787 1.013v8.672h.162l6.022-1.615.01.003v-8.721l-.01.002-6.022-1.614zm-7.048 1.18l-1.624.437v9.09L16 23.433V14.76l-5.44-.907.645-.172zm12.003 2.047v5.49l-3.716-.997v-3.496zm-3.716 5.778l2.548.682-2.548.686z" fill="#185e76"/></g></svg>