<svg xmlns="http://www.w3.org/2000/svg" width="32" height="32" version="1"><path d="M21.187 2H7.536A5.523 5.523 0 0 0 2 7.534v16.93A5.525 5.525 0 0 0 7.536 30h16.93A5.523 5.523 0 0 0 30 24.464V10.813z" fill="#bf9a66" fill-rule="evenodd"/><path d="M30 10.813L21.187 2v3.279a5.521 5.521 0 0 0 5.534 5.534z" fill="#a58048" fill-rule="evenodd"/><path d="M9.314 11.314a2.5 2.5 0 0 0-2.5 2.5 2.5 2.5 0 0 0 2.5 2.5 2.5 2.5 0 0 0 1.166-.29l2.496 2.913a2.5 2.5 0 0 0-.162.877 2.5 2.5 0 0 0 2.5 2.5 2.5 2.5 0 0 0 2.46-2.084l4.116-.823a2.5 2.5 0 0 0 2.424 1.907 2.5 2.5 0 0 0 2.5-2.5 2.5 2.5 0 0 0-2.5-2.5 2.5 2.5 0 0 0-2.461 2.082l-4.114.824a2.5 2.5 0 0 0-2.425-1.906 2.5 2.5 0 0 0-1.776.744l-2.287-2.668a2.5 2.5 0 0 0 .563-1.576 2.5 2.5 0 0 0-2.5-2.5z" fill="#faeda7"/></svg>