<svg xmlns="http://www.w3.org/2000/svg" width="32" height="32"><defs><linearGradient spreadMethod="pad" x1="0" gradientTransform="matrix(1 0 0 .84587 11 536.63)" x2="0" gradientUnits="userSpaceOnUse" y2="320.48" y1="392.36" id="a"><stop stop-opacity="0" stop-color="#fff"/><stop stop-color="#fff" offset="1"/></linearGradient></defs><path d="M21.187 2H7.536A5.523 5.523 0 0 0 2 7.534v16.93A5.525 5.525 0 0 0 7.536 30h16.93A5.523 5.523 0 0 0 30 24.464V10.813z" fill-rule="evenodd" fill="#2d4a78"/><path d="M30 10.813L21.187 2v3.279a5.521 5.521 0 0 0 5.534 5.534z" fill="#3982f8" fill-rule="evenodd"/><path style="isolation:auto;mix-blend-mode:normal;solid-color:#000;solid-opacity:1" d="M12.92 10.815a3.689 3.689 0 0 0-3.698 3.697c0 .675.182 1.305.496 1.848l-.002-.001.05.08c.036.058.07.117.109.172l4.893 7.757v-6.16h4.313a3.689 3.689 0 0 0 3.697-3.698 3.689 3.689 0 0 0-3.697-3.696zm6.16 1.232a2.464 2.464 0 0 1 2.465 2.465 2.464 2.464 0 0 1-2.465 2.464 2.464 2.464 0 0 1-2.464-2.464 2.464 2.464 0 0 1 2.464-2.465" color="#000" overflow="visible" fill="#1d70f7"/></svg>