<svg xmlns="http://www.w3.org/2000/svg" width="32" height="32"><path d="M21.187 2H7.536A5.523 5.523 0 0 0 2 7.534v16.93A5.525 5.525 0 0 0 7.536 30h16.93A5.523 5.523 0 0 0 30 24.464V10.813z" fill-rule="evenodd" fill="#f8a01e"/><path d="M30 10.813L21.187 2v3.279a5.521 5.521 0 0 0 5.534 5.534z" fill="#fddda3" fill-rule="evenodd"/><g color="#4d4d4d" fill="#fddda3"><path d="M10 12.194v11h12v-11zm1 1h10v9H11zM20 11.194h1v1h-1zM11 11.194h1v1h-1zM13 11.194h1v1h-1zM18 11.194h1v1h-1z"/><path d="M12 14.194h8v1h-8zM12 16.194h4v1h-4zM18 20.194h2v1h-2zM12 18.194h6v1h-6z"/></g></svg>