<svg xmlns="http://www.w3.org/2000/svg" width="32" height="32"><g fill-rule="evenodd"><path d="M21.187 2H7.536A5.523 5.523 0 0 0 2 7.534v16.93A5.525 5.525 0 0 0 7.536 30h16.93A5.523 5.523 0 0 0 30 24.464V10.813z" fill="#f6295d"/><path d="M30 10.813L21.187 2v3.279a5.521 5.521 0 0 0 5.534 5.534z" fill="#ffe4cb"/></g><path style="line-height:normal;-inkscape-font-specification:Sans;text-indent:0;text-align:start;text-decoration-line:none;text-transform:none;marker:none" d="M8.78 10.932V22.966h7.1v-1.203H9.983v-.076l4.7-4.023.903.902.294.32v-1.68l-.256-.257h-1.9l-3.741 3.197v-7.183l2.802 2.802.413-1.241-2.388-2.388h3.185l.4-1.204H9.607zm7.22 0v1.204h5.19l-1.946 1.946-.828 2.482 3.6-3.601v7.183l-3.731-3.19-.4 1.197 4.132 3.534v.076h-5.335l-.4 1.203h6.938V10.932h-.827z" color="#000" font-weight="400" font-family="Sans" overflow="visible" fill="#ffe4cb"/></svg>