<svg xmlns="http://www.w3.org/2000/svg" width="32" height="32"><g fill-rule="evenodd"><path d="M21.187 2H7.536A5.523 5.523 0 0 0 2 7.534v16.93A5.525 5.525 0 0 0 7.536 30h16.93A5.523 5.523 0 0 0 30 24.464V10.813z" fill="#1fabf4"/><path d="M30 10.813L21.187 2v3.279a5.521 5.521 0 0 0 5.534 5.534z" fill="#dfeffe"/></g><path style="line-height:normal;-inkscape-font-specification:Sans;text-indent:0;text-align:start;text-decoration-line:none;text-transform:none;marker:none" d="M8.644 11.362V23.62h14.712V11.362H9.487zm2.069 1.226h10.574l-3.984 3.984-.882.881-.421.422-.421-.422-.882-.881zm-.843.842l3.946 3.947-3.946 3.371zm12.26 0v7.318l-3.946-3.371zm-7.47 4.79l.919.919.421.46.421-.46.92-.92 4.789 4.1v.076H9.87v-.076z" color="#000" font-weight="400" font-family="Sans" overflow="visible" fill="#dfeffe"/></svg>