<svg xmlns="http://www.w3.org/2000/svg" width="32" height="32"><path d="M21.187 2H7.536A5.523 5.523 0 0 0 2 7.534v16.93A5.525 5.525 0 0 0 7.536 30h16.93A5.523 5.523 0 0 0 30 24.464V10.813z" fill-rule="evenodd" fill="#1e98d1"/><path d="M30 10.813L21.187 2v3.279a5.521 5.521 0 0 0 5.534 5.534z" fill="#197dac" fill-rule="evenodd"/><path d="M12.549 11.22a1.074 1.042 0 0 0-1.1 1.043v9.915a1.074 1.042 0 0 0 1.611.903l8.852-4.958a1.074 1.042 0 0 0 0-1.805L13.06 11.36a1.074 1.042 0 0 0-.511-.14z" fill="#8bcbfb"/></svg>