<svg xmlns="http://www.w3.org/2000/svg" width="32" height="32" version="1"><path d="M21.187 2H7.536A5.523 5.523 0 0 0 2 7.534v16.93A5.525 5.525 0 0 0 7.536 30h16.93A5.523 5.523 0 0 0 30 24.464V10.813z" fill="#99f" fill-rule="evenodd"/><path d="M30 10.813L21.187 2v3.279a5.521 5.521 0 0 0 5.534 5.534z" fill="#5b5895" fill-rule="evenodd"/><g fill="#262038" fill-opacity=".534"><path d="M16 7.73a6.778 6.778 0 0 0-6.777 6.777A6.778 6.778 0 0 0 16 21.287a6.778 6.778 0 0 0 6.777-6.78A6.778 6.778 0 0 0 16 7.73zm.994 1.668c.64-.047 1.022.06 1.31.342.181.176.273.346.596 1.103.611 1.43.621 1.494.446 2.522-.02.113-.012.174.021.174.08 0 .284-.24.344-.407.069-.188.14-.19.512-.011 1.093.525 1.297.836 1.06 1.615-.108.357-.29.64-.568.88-.245.213-.93.577-1.35.72-.242.082-.418.1-1.035.109-.842.012-.905.006-1.672-.123a9.1 9.1 0 0 1-1.695-.47c-.321-.125-.931-.395-1.024-.454a18.024 18.024 0 0 0-.418-.238c-1.037-.58-2.254-1.624-2.55-2.186-.101-.19-.108-.227-.055-.355.084-.202.36-.472.582-.57.193-.086 1.388-.21 1.522-.159.05.02.061.09.046.297-.03.413.047.586.346.778.583.372 1.605.832 2.397 1.08.291.09.873.135.873.066 0-.017-.061-.125-.135-.242a1.367 1.367 0 0 1-.168-.424c-.057-.356-.137-.421-.75-.621-1.284-.418-1.908-.683-2.117-.899-.13-.134-.149-.184-.147-.396.003-.259.299-1.389.436-1.66.153-.304.43-.466.799-.465.135 0 .506.032.826.07.424.05.65.055.838.022.276-.05.517-.082.73-.098zm.492.3c-.248-.029-.572.01-.572.07 0 .018.093.061.207.095.294.087.347.166.193.287-.067.053-.123.117-.123.14 0 .069.452.05.633-.025.145-.06.162-.086.149-.216-.02-.195-.185-.314-.487-.35zm-3.353.794c-.087.054-.157.309-.127.467.022.12.082.198.226.3.216.153.382.177.526.077.052-.037.268-.09.48-.12.49-.067.717-.142.737-.242.022-.116-.299-.19-.85-.195-.443-.004-.476-.013-.707-.16-.134-.085-.262-.141-.285-.127zm-1.305 4.672c.133 0 .203.055.53.402l.376.4.196-.033c.192-.032.196-.03.554.309.199.188.41.385.47.44.192.175.434.2 2.187.222.93.012 1.71.041 1.734.064.025.026.013.15-.03.315-.038.15-.103.427-.142.613-.063.299-.111.392-.408.79-.509.68-.536.72-.615.859-.084.147-.06.218.074.218.141 0 .365-.13.639-.373.136-.121.423-.32.638-.441.419-.235.433-.245.463-.4.027-.142.11-.187.299-.159.09.014.42.025.732.026.367 0 .569.019.569.05 0 .082-1.074 1.122-1.364 1.32-.946.65-1.814.994-2.765 1.095l-.563.06a4.224 4.224 0 0 1-.441 0c-2.04-.086-3.618-.833-4.781-2.262-.508-.637-2.12-2.585-.328-2.297.46-.007.88-.001.933.012.054.013.248.158.432.322.427.384.713.453.845.206.044-.082.021-.126-.156-.311-.458-.48-.639-.847-.564-1.145.036-.145.288-.302.486-.302zm3.68 2.513c-.076.003-.123.034-.154.092-.08.149-.04.187.306.303.374.125.61.114.729-.031.1-.123.102-.2.007-.295-.066-.067-.084-.067-.207.006-.127.075-.148.075-.357 0a.952.952 0 0 0-.324-.075z"/><g style="line-height:1.25" aria-label="RPM" font-weight="400" font-size="8.172" font-family="Impact" letter-spacing="0" word-spacing="0" stroke-width="1.205"><path style="-inkscape-font-specification:Impact" d="M9.155 21.912h1.189q1.189 0 1.608.063.423.064.686.324.268.259.268.827 0 .52-.188.698-.188.178-.738.214.499.085.67.228.172.143.212.264.044.118.044.656v1.173h-1.56v-1.478q0-.357-.084-.442-.08-.085-.427-.085v2.005h-1.68zm1.68.761v.989q.283 0 .395-.052.115-.055.115-.35v-.244q0-.211-.111-.277-.108-.066-.4-.066zM13.56 21.912h1.692q.686 0 1.053.074.371.075.555.215.187.14.251.34.068.198.068.615v.388q0 .425-.128.62-.127.195-.47.3-.34.104-.89.104h-.451v1.791h-1.68zm1.68.761v1.132l.124.002q.231 0 .319-.077.092-.08.092-.326v-.366q0-.228-.104-.296-.104-.069-.431-.069zM22.845 21.912v4.447h-1.468v-3.002l-.587 3.002H19.75l-.619-2.933v2.933h-1.468v-4.447h2.175q.095.401.203.945l.232 1.132.383-2.077z"/></g></g></svg>