<svg xmlns="http://www.w3.org/2000/svg" width="32" height="32"><g fill-rule="evenodd"><path d="M21.187 2H7.536A5.523 5.523 0 0 0 2 7.534v16.93A5.525 5.525 0 0 0 7.536 30h16.93A5.523 5.523 0 0 0 30 24.464V10.813z" fill="#41a9eb"/><path d="M30 10.813L21.187 2v3.279a5.521 5.521 0 0 0 5.534 5.534z" fill="#cfe9fa"/></g><path d="M16 9.642a7.194 7.194 0 0 0-7.194 7.194A7.194 7.194 0 0 0 16 24.03a7.194 7.194 0 0 0 7.194-7.194A7.194 7.194 0 0 0 16 9.642m0 1.199c.207 0 .398.017.6.037h.15c.063.012.124.028.186.037.173.028.32.07.487.113.308.075.613.178.9.3.158.067.298.145.45.225v.037c.034.016.053.08.112.113.021.012.017.026.037.037.035.02.082.04.076.074-.01.048-.08.039-.113.075.005.07-.058.066-.076.112.011.03.07.04.076.075-.006.038-.09.036-.076.074.065.05.126.012.187 0 .135-.017.255-.012.337-.074-.01-.064.12-.055.113-.113.035.025.078.05.113.074-.014.012-.023.032-.038.038-.025.012-.051.022-.075.037-.034.021-.074.05-.113.074-.027.02-.084.113-.112.113-.035 0-.088-.045-.113-.037-.036.012-.035.06-.076.074-.079.029-.235-.043-.262.074.033.069.164.037.225.075a.37.37 0 0 1 .113.15.71.71 0 0 1 0 .225c-.037.096-.152.075-.263.074h-.075c-.186-.012-.366-.096-.45.037.006.102.023.174 0 .263-.017.065-.116.132-.113.187.002.029.069.072.076.113.005.021-.01.054 0 .074.031.059.095-.012.15 0 .053.012.112.091.112.15 0 .042-.01.11-.037.15-.052.079-.15.07-.225.113-.062.036-.076.125-.113.187-.04.067-.09.09-.075.187a.44.44 0 0 1-.226.225c-.032.014-.082.016-.112.037-.024.017-.041.075-.076.113-.042.047-.09.077-.113.113-.017.027-.019.074-.037.112-.026.05-.079.063-.113.113-.015.024-.02.082-.037.113-.038.07-.081.126-.075.187.006.057.072.06.075.113.004.028-.038.043-.037.074.001.045.034.077.037.113.009.088-.057.127-.075.187-.009.028.007.051 0 .074-.015.044-.075.097-.076.15-.001.037.072.06.076.113.002.034-.045.079-.037.112.013.065.136.137.187.187.068.069.157.115.187.187.025.061.028.179.075.226.035.033.106.04.15.074.042.032.068.04.113.074.073.058.183.196.3.187.06-.012.118-.063.187-.074.07-.012.153-.043.225-.037.055.012.13.04.187.037.06-.012.119-.012.187-.037.119-.052.314-.138.487-.113.132.02.133.167.225.226.106.012.179-.02.263 0 .063.015.144.1.15.15.006.051-.069.117-.076.15-.017.069.012.142 0 .186-.01.035-.038.078-.037.113 0 .031.043.11.076.15.04.05.101.096.15.15.087.1.125.204.186.337.016.033-.014.07 0 .113-.026.201-.092.339-.225.562-.062.072-.151.135-.15.225-.005.216.122.354.113.563-.022.28.021.3 0 .45.095.047.027.2 0 .299-.04.119-.09.145-.113.225.064.028.155.017.226 0-.036.038-.076.076-.113.113-.271.271-.58.534-.9.75a5.923 5.923 0 0 1-2.06.899c-.413.09-.836.112-1.275.112-.228 0-.453-.012-.675-.037-.176-.02-.354-.04-.525-.074-.34-.07-.658-.213-.975-.337-.01-.02-.04-.05-.037-.074.062-.027.18.088.225 0 .023-.042-.03-.145 0-.187.022-.03.143-.03.187-.038.064-.012.151-.02.187-.037.04-.025.082-.114.076-.187-.004-.034-.048-.043-.076-.074-.022-.026.016-.05 0-.074-.028-.042-.1-.052-.112-.113.086-.017.212.072.337.037.058-.017.159-.132.187-.187.008-.017-.01-.053 0-.074.01-.022.033-.064.037-.075.008-.032-.007-.015 0-.037.021-.061.076-.107.112-.15.028-.033.088-.078.113-.112.029-.038.018-.041.037-.075.018-.109-.063-.204-.037-.3.029-.107.196-.175.3-.225.036-.017.083-.026.113-.037.072-.025.158-.052.225-.074.113-.041.132-.123.187-.226.026-.048.07-.115.076-.15.004-.03-.006-.038 0-.074.006-.035-.01-.072 0-.113.013-.051.037-.168.037-.225 0-.048-.036-.07-.037-.113-.009-.156.055-.139.112-.225.03-.042.055-.12.076-.15.097-.144.274-.194.262-.413-.004-.072-.06-.24-.112-.262-.03-.013-.069-.022-.113-.037-.141-.053-.265-.214-.412-.226h-.076c-.058 0-.122-.029-.187-.037-.04-.012-.126.012-.15 0-.037-.018-.045-.092-.075-.113-.024-.016-.076-.024-.113-.037-.059-.021-.082-.07-.15-.074-.022 0-.052.012-.076 0-.037-.012-.077-.016-.112-.037-.043-.027-.095-.038-.113-.075.04-.13-.086-.15-.113-.225-.012-.035.012-.119 0-.15-.015-.044-.063-.076-.112-.113a.45.45 0 0 0-.263-.112c-.055-.012-.121.012-.187 0a.43.43 0 0 1-.225-.113c-.05-.059-.069-.122-.113-.15-.042-.026-.084-.048-.113-.074-.013-.012-.025-.012-.037-.037-.022-.045-.064-.06-.037-.113-.048-.024-.023.045-.076.037-.046-.066-.081-.132-.187-.113-.048.012-.093.112-.15.113-.046 0-.088-.103-.15-.113-.046-.012-.117.043-.15.037-.05-.012-.065-.043-.112-.074-.035-.023-.094-.075-.113-.074-.06 0-.104.118-.187.074-.04-.051.085-.065.037-.113-.036-.034-.045.02-.075.038-.034.021-.076.024-.113.037-.083.03-.16.04-.225.074a.224.224 0 0 0-.113.113c-.028.05-.07.147-.113.15-.05 0-.067-.054-.112-.075-.138-.06-.223.035-.337.037-.106 0-.268-.163-.263-.262.004-.061.03-.15.037-.226.006-.06.075-.133.076-.187.001-.074-.14-.104-.187-.112-.113-.02-.247.05-.376 0-.024-.041.023-.072.038-.113.008-.022-.009-.05 0-.074.014-.039.094-.072.112-.113.014-.031-.013-.073 0-.113.016-.043.072-.081.076-.112.005-.041-.043-.087-.076-.113-.1.012-.166.012-.225.037-.13.059-.095.222-.226.263-.044.014-.099.028-.15.037-.021.012-.05 0-.075 0 .002-.012-.002-.025 0-.037.006-.028.031-.048.037-.075a5.9 5.9 0 0 1 .376-1.124h.037c.045.012.073.072.112.074.11.012.133-.102.226-.15.093.013.14-.012.225 0 .058.012.142.07.187.074.039 0 .04-.042.076-.037.036.012.107.07.113.113.006.054-.053.128-.038.187.057.058.183.08.263.113.053-.045.008-.125 0-.187-.001-.028.004-.088 0-.113-.006-.043-.037-.076-.037-.113 0-.171.147-.232.262-.3.05-.028.107-.09.15-.112.061-.03.1-.012.15-.037.091-.052.154-.13.226-.187.032-.078-.004-.186 0-.263.032-.02.077 0 .112 0 .055-.012.082-.082.113-.113.018-.018.054-.019.075-.037.056-.043.065-.093.113-.113a.317.317 0 0 1 .076-.037c.036-.012.092-.015.15-.037.037-.013.135-.022.15-.037.017-.018-.005-.085 0-.113.028-.135.215-.141.336-.187.084-.031.17-.13.263-.113-.018.065-.09.072-.076.15.02.11.15-.021.187-.037.074-.031.204-.077.3-.113.084-.03.23-.052.15-.15-.066-.011-.092.052-.15.075-.04.012-.04-.034-.075-.037-.033 0-.043.043-.076.037-.032-.012-.07-.073-.075-.113-.014-.1.072-.113.112-.187-.027-.091-.148-.04-.225-.074.008-.054.05-.1.113-.113a.444.444 0 0 1 .225.037c.018.016-.028.05 0 .075.031.027.072.012.113 0 .014-.069-.087-.03-.076-.075.082-.052.238-.024.337-.037a.812.812 0 0 0 .187-.074c.048-.028.062-.083.113-.037.014.049-.01.086-.037.112-.093.082-.191.168-.263.263.044.043.113.029.187.037.029.012.083 0 .113 0 .036.012.084-.012.113 0 .05.012.062.113.112.113.082 0 .047-.096 0-.15.015-.056.058-.11.037-.15-.037-.074-.18.022-.187-.074-.004-.06.054-.067.076-.113-.01-.115.086-.121.075-.225-.006-.044-.045-.034-.075-.075-.016-.021-.02-.096-.037-.112-.063-.053-.18-.012-.187-.113-.004-.06.008-.124 0-.187-.009-.061-.06-.25-.113-.263-.067-.014-.107.113-.187.15a.45.45 0 0 1-.187.037c-.029-.012-.072-.018-.076-.074-.004-.05.057-.073.076-.113.005-.012-.002-.024 0-.037.087-.024.174-.054.263-.074.05-.012.099-.028.15-.038.035-.011.076.012.112 0 .16-.03.323-.058.487-.074a5.81 5.81 0 0 1 .6-.037zm-2.435.562c-.039.22-.244.306-.487.3-.055.053-.007.151-.037.225-.025.061-.126.118-.187.113-.045 0-.113-.07-.113-.113 0-.051.082-.054.037-.112.003-.012.025-.026.037-.038.024-.015.05-.022.076-.037.217-.133.44-.231.675-.337m5.021.225c-.021.012-.018.025-.037.037-.045.027-.078.062-.112.074-.05.018-.106.03-.113.074-.006.038.038.041.037.075-.018.044-.028.058-.037.112.061.1.187-.021.262-.037.034-.012.058-.012.076-.037.02-.032.022-.067.037-.113.017-.05.08-.068.076-.112-.005-.045-.113-.08-.187-.075m-6.558.75c.057.046.137.146.037.188a.616.616 0 0 1-.187.037c-.012 0-.027-.029-.037-.037.063-.06.123-.13.187-.187m.226.225c.028 0 .04.073.075.075.033 0 .055-.042.076-.037.05.013.085.112.037.15-.04.011-.046-.043-.076-.038-.081.015-.125.192-.187.187-.057-.012-.096-.145-.037-.187.001-.036-.002-.037 0-.074.018-.022.065-.078.113-.074zm-.3.038c.017 0 .031-.012.037 0-.008.063-.026.082-.075.112-.086.052-.16.115-.187.226-.009.032-.11.12-.15.112-.095-.02.054-.198.075-.225.024-.03.047-.04.076-.074.027-.034.049-.094.075-.113.03-.02.1-.04.15-.037zm8.13.187c.095-.012.144.092.187.15a.756.756 0 0 0 .188.15c.033.017.075.058.112.074.078.034.222.148.226.225 0 .038-.044.077-.038.113.06.012.112-.091.113-.15.11.156.205.321.3.487.045.078.108.144.15.225-.053.016-.066.024-.076.074-.012.068.027.175-.075.187-.064.012-.138-.053-.226-.074-.036-.012-.084.012-.112 0-.066-.021-.057-.11-.113-.15a.571.571 0 0 0-.187-.074c-.033 0-.04.012-.076 0-.04-.012-.116.017-.15 0a.387.387 0 0 1-.112-.113c-.013-.044.11-.074.112-.112.003-.03-.03-.069-.037-.113-.005-.027.006-.057 0-.075-.008-.03-.063-.036-.112-.037h-.451c-.105.012-.181-.012-.263 0-.059 0-.17.05-.225.075l-.076.037c-.017.012-.054.027-.075.037-.034.016-.08.065-.113.074-.047.012-.102-.012-.187 0-.061 0-.149-.04-.15-.112-.001-.112.194-.054.3-.075.04-.012.065-.045.112-.074.023-.013.016-.023.038-.037.036-.025.106-.084.112-.113.005-.026-.003-.054 0-.074.005-.025.044-.041.076-.075.05-.05.087-.117.15-.15.042-.021.093-.04.112-.074.005-.038 0-.038 0-.074a.157.157 0 0 1 .076-.037c.065-.015.112 0 .187 0 .032 0 .078.015.113 0 .029-.02.045-.062.075-.075a.298.298 0 0 1 .113-.037zm.675.712h-.15c-.052 0-.118-.028-.15 0 .045.072.127.094.226.112a.238.238 0 0 0 .076-.112m-8.206-.675h.112c.03 0 .064-.012.076 0-.02.079-.2.066-.263.037.004-.03.038-.032.076-.037m-.263.15c-.052.038-.104.086-.187.112-.045.015-.104.013-.112-.037-.01-.062.071-.031.112-.037.053-.012.126-.035.187-.037zm7.794 0c-.04.013-.059.1 0 .112.027-.016.044-.06.037-.112-.016-.017-.025-.012-.037 0m-.076.187c.001.067.013.13 0 .187.039.074.131.013.15-.037.023-.125-.017-.166-.075-.15-.02.012-.056-.016-.076 0m-9.929 2.809c.067.061.107.147.187.187.03.016.075.028.113.037.031.012.045-.012.075 0 .064.022.137.052.187.074.077.034.159.15.226.188.003.038-.012.083 0 .112a.374.374 0 0 0 .113.113c.06.033.092.086.15.113.02.012.043-.012.075 0 .08.024.119.133.187.112.044-.013.03-.07.037-.112.03-.033.066-.075.113-.075.074 0 .085.115.113.187.015.041.063.07.075.113.018.074.016.293 0 .337-.019.055-.104.052-.15.113-.021.028-.02.092-.037.112-.029.035-.054.042-.075.075-.012.018-.027.05-.038.074-.036.077-.104.133-.075.225.012.038.075.069.075.113 0 .053-.104.092-.112.15-.006.042.024.094.037.15.01.042.087.085.113.113.042.046.074.128.112.187.076.116.113.26.187.375.04.059.124.087.15.15.013.031-.012.084 0 .113.043.097.24.214.337.262.046.023.108.013.15.037a.83.83 0 0 1 .225.187c.03.05.023.183.038.263.018.105-.005.186 0 .3.003.062.037.087.037.15v.112c-.001.075.006.15 0 .226a.706.706 0 0 0 0 .112c.003.038.035.042.037.075.002.034-.04.085-.037.112.008.076.06.118.075.187.012.056.045.197.037.263-.004.035-.032.073-.037.113-.003.03.005.047 0 .074-.003.028.007.052 0 .074l-.112-.074a6.264 6.264 0 0 1-.9-.75c-.037-.036-.076-.074-.112-.112a6.127 6.127 0 0 1-.6-.75c-.017-.023-.021-.05-.037-.074a5.771 5.771 0 0 1-.525-.974c-.011-.026-.028-.05-.037-.075a6.043 6.043 0 0 1-.3-.975c-.015-.063-.025-.123-.037-.187a5.957 5.957 0 0 1-.113-1.087c0-.286.036-.55.076-.825m2.323.637c.058-.027.047.067 0 .074-.044.012-.043-.053 0-.074" color="#000" opacity=".75" fill="#fff"/></svg>