<svg xmlns="http://www.w3.org/2000/svg" width="32" height="32" version="1"><path d="M21.187 2H7.536A5.523 5.523 0 0 0 2 7.534v16.93A5.525 5.525 0 0 0 7.536 30h16.93A5.523 5.523 0 0 0 30 24.464V10.813z" fill="#ccc" fill-rule="evenodd"/><path d="M30 10.813L21.187 2v3.279a5.521 5.521 0 0 0 5.534 5.534z" fill="#999" fill-rule="evenodd"/><path d="M14.26 10.119l-.134 1.58a5.644 5.644 0 0 0-1.818 1.057l-1.466-.684-1.74 2.988 1.35.93a5.644 5.644 0 0 0-.096 1.027 5.644 5.644 0 0 0 .097 1.026l-1.35.929 1.74 2.987 1.462-.68a5.644 5.644 0 0 0 1.821 1.055l.133 1.581h3.48l.134-1.58a5.644 5.644 0 0 0 1.82-1.06l1.464.684 1.741-2.987-1.352-.93a5.644 5.644 0 0 0 .098-1.025 5.644 5.644 0 0 0-.096-1.027l1.35-.928-1.74-2.986-1.46.68a5.644 5.644 0 0 0-1.824-1.056l-.133-1.582h-3.48zM16 14.509a2.508 2.508 0 0 1 2.508 2.508A2.508 2.508 0 0 1 16 19.525a2.508 2.508 0 0 1-2.508-2.508 2.508 2.508 0 0 1 2.508-2.508z" fill="#999"/></svg>