<svg xmlns="http://www.w3.org/2000/svg" width="32" height="32"><path d="M21.187 2H7.536A5.523 5.523 0 0 0 2 7.534v16.93A5.525 5.525 0 0 0 7.536 30h16.93A5.523 5.523 0 0 0 30 24.464V10.813z" fill="#ccc" fill-rule="evenodd"/><path d="M30 10.813L21.187 2v3.279a5.521 5.521 0 0 0 5.534 5.534z" fill="#999" fill-rule="evenodd"/><g fill="#999"><path opacity=".5" d="M10.825 17.856h12.938v1.294H10.825zM10.825 20.444h12.938v1.293H10.825zM10.825 23.031h12.938v1.294H10.825zM8.237 17.856h1.294v1.294H8.237zM8.237 20.444h1.294v1.293H8.237zM8.237 23.031h1.294v1.294H8.237zM10.825 15.268h12.938v1.294H10.825zM8.237 15.268h1.294v1.294H8.237z"/></g></svg>