<svg xmlns="http://www.w3.org/2000/svg" width="32" height="32"><path d="M21.187 2H7.536A5.523 5.523 0 0 0 2 7.534v16.93A5.525 5.525 0 0 0 7.536 30h16.93A5.523 5.523 0 0 0 30 24.464V10.813z" fill="#e47234" fill-rule="evenodd"/><path d="M30 10.813L21.187 2v3.279a5.521 5.521 0 0 0 5.534 5.534z" fill="#bc5e2b" fill-rule="evenodd"/><path d="M16.036 9.5a7.507 7.585 0 0 0-6.924 4.667h-.584c-.64 0-1.154.522-1.154 1.168v3.5c0 .647.514 1.166 1.154 1.166h.578a7.507 7.585 0 0 0 6.93 4.668 7.507 7.585 0 0 0 5.414-2.334h1.168a.927.927 0 0 0 .924-.933v-2.8a.934.934 0 0 0-.09-.39 7.507 7.585 0 0 0 .09-1.127 7.507 7.585 0 0 0-1.338-4.318.694.694 0 0 0 .183-.465V10.2a.696.696 0 0 0-.693-.7h-2.078a.687.687 0 0 0-.674.6 7.507 7.585 0 0 0-2.906-.6zm.576 1.167a5.775 5.834 0 0 1 2.31.49v1.145c0 .388.31.7.694.7h1.61a5.775 5.834 0 0 1 1.161 3.5 5.775 5.834 0 0 1-.117 1.167h-2.422a.928.928 0 0 0-.926.934v2.799c0 .143.037.275.094.396a5.775 5.834 0 0 1-2.404.537A5.775 5.834 0 0 1 11.999 20a1.156 1.156 0 0 0 1.148-1.164v-3.5c0-.646-.514-1.168-1.154-1.168h-.67a5.775 5.834 0 0 1 5.289-3.5z" opacity=".5" fill="#fff"/></svg>