<svg xmlns="http://www.w3.org/2000/svg" width="32" height="32" version="1"><path d="M21.187 2H7.536A5.523 5.523 0 0 0 2 7.534v16.93A5.525 5.525 0 0 0 7.536 30h16.93A5.523 5.523 0 0 0 30 24.464V10.813z" fill="#ccc" fill-rule="evenodd"/><path d="M30 10.813L21.187 2v3.279a5.521 5.521 0 0 0 5.534 5.534z" fill="#999" fill-rule="evenodd"/><path style="line-height:normal;font-variant-ligatures:normal;font-variant-position:normal;font-variant-caps:normal;font-variant-numeric:normal;font-variant-alternates:normal;font-feature-settings:normal;text-indent:0;text-align:start;text-decoration-line:none;text-decoration-style:solid;text-decoration-color:#000;text-transform:none;text-orientation:mixed;white-space:normal;shape-padding:0;isolation:auto;mix-blend-mode:normal;solid-color:#000;solid-opacity:1" d="M16 10.906c-.912 0-1.734.252-2.355.727-.622.475-1.006 1.127-1.237 1.777-.462 1.301-.426 2.685-.426 3.81 0 1.126-.036 2.51.426 3.811.231.65.615 1.3 1.237 1.776.621.475 1.443.726 2.355.726 1.588 0 2.578-.304 3.229-.824.325-.26.541-.575.656-.85.114-.274.133-.62.133-.62v-1.15h-2.295v.84c-.095.068-.493.31-1.723.31-.523 0-.775-.115-.96-.257-.187-.141-.342-.359-.47-.718-.255-.72-.29-1.918-.29-3.043 0-1.126.035-2.324.29-3.043.128-.36.283-.58.47-.721.185-.142.437-.254.96-.254 1.23 0 1.628.241 1.723.309v.838h2.295v-1.147s-.019-.346-.133-.621a2.206 2.206 0 0 0-.656-.85c-.65-.52-1.641-.826-3.229-.826z" color="#000" font-weight="400" font-family="sans-serif" overflow="visible" fill="#999"/></svg>