<svg xmlns="http://www.w3.org/2000/svg" width="32" height="32" version="1"><path d="M21.187 2H7.536A5.523 5.523 0 0 0 2 7.534v16.93A5.525 5.525 0 0 0 7.536 30h16.93A5.523 5.523 0 0 0 30 24.464V10.813z" fill="#e74c3c" fill-rule="evenodd"/><path d="M30 10.813L21.187 2v3.279a5.521 5.521 0 0 0 5.534 5.534z" fill="#a93b27" fill-rule="evenodd"/><g clip-rule="evenodd" fill="#f7dae6" fill-rule="evenodd"><path d="M13.914 21.238s-.62.382.441.511c1.286.156 1.942.133 3.358-.15 0 0 .373.247.893.461-3.175 1.442-7.186-.083-4.692-.822zM13.526 19.356s-.695.545.367.661c1.373.15 2.457.163 4.333-.22 0 0 .26.279.667.431-3.838 1.19-8.113.094-5.367-.873zM16.796 16.162c.783.955-.205 1.814-.205 1.814s1.986-1.087 1.074-2.449c-.852-1.27-1.505-1.9 2.032-4.075 0 0-5.552 1.47-2.9 4.71z"/><path d="M20.996 22.63s.458.401-.505.71c-1.833.59-7.628.767-9.238.024-.578-.267.507-.637.848-.715.356-.081.56-.067.56-.067-.644-.48-4.16.944-1.786 1.352 6.473 1.113 11.8-.5 10.12-1.304zM14.212 17.405s-2.947.742-1.044 1.012c.804.114 2.406.088 3.9-.045a28.74 28.74 0 0 0 2.444-.34s-.43.195-.741.42c-2.994.835-8.776.446-7.111-.407 1.407-.722 2.552-.64 2.552-.64zM19.5 20.538c3.043-1.676 1.636-3.287.654-3.07-.24.053-.348.1-.348.1s.09-.15.26-.213c1.943-.724 3.436 2.135-.627 3.268 0 0 .047-.045.061-.085zM17.666 7.94s1.684 1.788-1.599 4.535c-2.633 2.205-.6 3.462 0 4.899-1.538-1.47-2.666-2.765-1.91-3.97 1.111-1.767 4.188-2.625 3.509-5.464z"/><path d="M14.511 25.081c2.92.198 7.406-.11 7.512-1.575 0 0-.204.555-2.413.996-2.493.498-5.568.44-7.392.12 0 0 .374.328 2.293.46z"/></g></svg>