<svg xmlns="http://www.w3.org/2000/svg" width="32" height="32"><g fill-rule="evenodd"><path d="M21.187 2H7.536A5.523 5.523 0 0 0 2 7.534v16.93A5.525 5.525 0 0 0 7.536 30h16.93A5.523 5.523 0 0 0 30 24.464V10.813z" fill="#f49d14"/><path d="M30 10.813L21.187 2v3.279a5.521 5.521 0 0 0 5.534 5.534z" fill="#fde2a6"/></g><path d="M14 11.075a2.495 2.495 0 0 0-2.5 2.5c0 1.385 1.116 2.5 2.5 2.5 1.386 0 2.5-1.115 2.5-2.5s-1.114-2.5-2.5-2.5m0 1c.832 0 1.5.669 1.5 1.5 0 .83-.668 1.5-1.5 1.5-.83 0-1.5-.67-1.5-1.5 0-.831.67-1.5 1.5-1.5m5.5 1c-1.107 0-2 .892-2 2s.893 2 2 2c1.109 0 2-.892 2-2s-.891-2-2-2m0 1c.555 0 1 .446 1 1s-.445 1-1 1c-.553 0-1-.446-1-1s.447-1 1-1m-5.5 3c-2.492 0-4.5 2.01-4.5 4.5v1.5h9v-1.5c0-2.493-2.01-4.5-4.5-4.5m0 1c1.94 0 3.5 1.56 3.5 3.5v.5h-7v-.5c0-1.94 1.562-3.5 3.5-3.5m5.5 0c-.554 0-1.066.16-1.511.42.243.237.465.495.656.777a1.996 1.996 0 0 1 2.855 1.803h-2.1c.065.323.1.657.1 1h3v-1c0-1.662-1.338-3-3-3" fill="#fde8b9"/></svg>