<svg xmlns="http://www.w3.org/2000/svg" width="32" height="32"><g fill-rule="evenodd"><path d="M21.187 2H7.536A5.523 5.523 0 0 0 2 7.534v16.93A5.525 5.525 0 0 0 7.536 30h16.93A5.523 5.523 0 0 0 30 24.464V10.813z" fill="#2ac281"/><path d="M30 10.813L21.187 2v3.279a5.521 5.521 0 0 0 5.534 5.534z" fill="#036b53"/></g><path d="M10 11.194v12h7v-1h-3v-3h3v-1h-3v-3h4v2h1v-2h2v2h1v-6H11zm1 1h10v2H11zm0 3h2v3h-2zm8.5 3c-.831 0-1.5.638-1.5 1.43 0 .763.623 1.376 1.412 1.42.058.262.087.528.088.795a3.77 3.77 0 0 1-.258 1.355c1.1-.734 1.756-1.933 1.758-3.213v-.357c0-.792-.669-1.43-1.5-1.43m-8.5 1h2v3h-2z" fill="#036b53"/></svg>