<svg xmlns="http://www.w3.org/2000/svg" width="32" height="32"><g fill-rule="evenodd"><path d="M21.187 2H7.536A5.523 5.523 0 0 0 2 7.534v16.93A5.525 5.525 0 0 0 7.536 30h16.93A5.523 5.523 0 0 0 30 24.464V10.813z" fill="#66d7fc"/><path d="M30 10.813L21.187 2v3.279a5.521 5.521 0 0 0 5.534 5.534z" fill="#4c91a7"/></g><path d="M14.223 12.87v1.558h1.558v-1.559zm2 0v1.558h1.558v-1.559zm4.26 1.282a1.5 1.5 0 0 0-.602 1.623 1.5 1.5 0 0 0 1.332 1.106 1.5 1.5 0 0 0 1.412 1 1.5 1.5 0 0 0 1.412-1 1.5 1.5 0 0 0-1.412-1 1.5 1.5 0 0 0-.848.265 1.5 1.5 0 0 0-1.295-1.994zm.73 2.729h-12c0 3.314 2.686 5 6 5s6-1.686 6-5zm-9.559-2.004v1.559h1.559v-1.559zm2 0v1.559h1.559v-1.559zm2 0v1.559h1.559v-1.559zm2 0v1.559h1.559v-1.559zm-5.941 3.004a.5.5 0 0 1 .5.5.5.5 0 0 1-.5.5.5.5 0 0 1-.5-.5.5.5 0 0 1 .5-.5z" style="isolation:auto;mix-blend-mode:normal;solid-color:#000;solid-opacity:1;marker:none" color="#000" overflow="visible" opacity=".4" stroke-width=".132"/></svg>