<svg xmlns="http://www.w3.org/2000/svg" width="32" height="32"><g fill-rule="evenodd"><path d="M21.187 2H7.536A5.523 5.523 0 0 0 2 7.534v16.93A5.525 5.525 0 0 0 7.536 30h16.93A5.523 5.523 0 0 0 30 24.464V10.813z" fill="#f6265b"/><path d="M30 10.813L21.187 2v3.279a5.521 5.521 0 0 0 5.534 5.534z" fill="#ffe5cd"/></g><path d="M15 11.433v12h1v-6.05a3.486 3.486 0 0 0 2.5 1.053c1.939 0 3.5-1.561 3.5-3.5 0-1.94-1.561-3.5-3.5-3.5-.983 0-1.865.404-2.5 1.053v-1.053zm3.5 1c1.385 0 2.5 1.115 2.5 2.5s-1.115 2.5-2.5 2.5a2.495 2.495 0 0 1-2.5-2.5c0-1.385 1.115-2.5 2.5-2.5m-7.5 4a1 1 0 0 0-1 1 1 1 0 0 0 1 1 1 1 0 0 0 1-1 1 1 0 0 0-1-1" fill="#ffe5cd"/></svg>