<svg xmlns="http://www.w3.org/2000/svg" width="32" height="32" version="1"><path d="M21.187 2H7.536A5.523 5.523 0 0 0 2 7.534v16.93A5.525 5.525 0 0 0 7.536 30h16.93A5.523 5.523 0 0 0 30 24.464V10.813z" fill="#ccc" fill-rule="evenodd"/><path d="M30 10.813L21.187 2v3.279a5.521 5.521 0 0 0 5.534 5.534z" fill="#999" fill-rule="evenodd"/><path d="M10.098 11.45s-2.31.002-2.31 2.134v6.485c0 1.18 1.045 1.833 2.346 1.833h5.12l2.986 2.986 2.986-2.986h.64s2.346.297 2.346-1.835v-6.484c0-2.13-2.346-2.132-2.346-2.132z" fill="#999"/></svg>