<svg xmlns="http://www.w3.org/2000/svg" width="32" height="32" version="1"><path d="M21.187 2H7.536A5.523 5.523 0 0 0 2 7.534v16.93A5.525 5.525 0 0 0 7.536 30h16.93A5.523 5.523 0 0 0 30 24.464V10.813z" fill="#ccc" fill-rule="evenodd"/><path d="M30 10.813L21.187 2v3.279a5.521 5.521 0 0 0 5.534 5.534z" fill="#999" fill-rule="evenodd"/><path d="M12.836 10.733c-.823-.044-1.63.229-2.227.826-1.194 1.195-1.086 3.225.24 4.552l.84.838-.84.839c-1.326 1.327-1.434 3.357-.24 4.552 1.195 1.195 3.225 1.087 4.553-.24L16 21.26l.838.838c1.328 1.328 3.358 1.435 4.553.24 1.194-1.194 1.086-3.224-.24-4.551l-.84-.839.84-.838c1.326-1.327 1.434-3.358.24-4.552-1.195-1.195-3.225-1.087-4.553.24l-.838.839-.839-.839c-.663-.663-1.502-1.022-2.325-1.066zM16 13.839a1.062.88 0 0 1 .063.059 1.062.88 0 0 1 .023.023 1.062.88 0 0 1 .044.05 1.062.88 0 0 1 .013.018 1.062.88 0 0 1 .038.05 1.062.88 0 0 1 .022.037 1.062.88 0 0 1 .024.045 1.062.88 0 0 1 .022.046 1.062.88 0 0 1 .012.028 1.062.88 0 0 1 .018.055 1.062.88 0 0 1 .01.038 1.062.88 0 0 1 .01.05 1.062.88 0 0 1 .006.03 1.062.88 0 0 1 .003.054 1.062.88 0 0 1 .003.04 1.062.88 0 0 1-.003.038 1.062.88 0 0 1-.003.055 1.062.88 0 0 1-.006.03 1.062.88 0 0 1-.01.05 1.062.88 0 0 1-.01.038 1.062.88 0 0 1-.018.054 1.062.88 0 0 1-.012.028 1.062.88 0 0 1-.022.046 1.062.88 0 0 1-.024.045 1.062.88 0 0 1-.022.037 1.062.88 0 0 1-.038.05 1.062.88 0 0 1-.013.018 1.062.88 0 0 1-.044.051 1.062.88 0 0 1-.023.023 1.062.88 0 0 1-.063.058 1.062.88 0 0 1-.063-.058 1.062.88 0 0 1-.023-.023 1.062.88 0 0 1-.044-.051 1.062.88 0 0 1-.013-.017 1.062.88 0 0 1-.038-.051 1.062.88 0 0 1-.022-.037 1.062.88 0 0 1-.024-.045 1.062.88 0 0 1-.022-.046 1.062.88 0 0 1-.012-.028 1.062.88 0 0 1-.019-.054 1.062.88 0 0 1-.01-.038 1.062.88 0 0 1-.009-.05 1.062.88 0 0 1-.006-.03 1.062.88 0 0 1-.004-.055 1.062.88 0 0 1-.002-.039 1.062.88 0 0 1 .002-.039 1.062.88 0 0 1 .004-.054 1.062.88 0 0 1 .006-.03 1.062.88 0 0 1 .01-.05 1.062.88 0 0 1 .01-.038 1.062.88 0 0 1 .018-.055 1.062.88 0 0 1 .012-.028 1.062.88 0 0 1 .022-.046 1.062.88 0 0 1 .024-.045 1.062.88 0 0 1 .022-.036 1.062.88 0 0 1 .038-.051 1.062.88 0 0 1 .013-.017 1.062.88 0 0 1 .044-.051 1.062.88 0 0 1 .023-.023 1.062.88 0 0 1 .063-.059zm-1.117 1.503a.762.762 0 0 1 .21.027.762.762 0 0 1-.197.736.762.762 0 0 1-.737.197.762.762 0 0 1 .197-.736.762.762 0 0 1 .527-.224zm2.233 0a.762.762 0 0 1 .528.224.762.762 0 0 1 .196.736.762.762 0 0 1-.736-.197.762.762 0 0 1-.197-.736.762.762 0 0 1 .21-.027zM16 16.327a.622.622 0 0 1 .045.003.622.622 0 0 1 .009 0 .622.622 0 0 1 .002 0 .622.622 0 0 1 .049.007.622.622 0 0 1 .016.003.622.622 0 0 1 .04.01.622.622 0 0 1 .018.004.622.622 0 0 1 .055.02.622.622 0 0 1 .046.02.622.622 0 0 1 .017.009.622.622 0 0 1 .023.013.622.622 0 0 1 .037.026.622.622 0 0 1 .002 0 .622.622 0 0 1 .035.026.622.622 0 0 1 .046.042.622.622 0 0 1 .041.046.622.622 0 0 1 .027.036.622.622 0 0 1 .026.038.622.622 0 0 1 .013.023.622.622 0 0 1 .008.017.622.622 0 0 1 .021.046.622.622 0 0 1 .02.055.622.622 0 0 1 .004.017.622.622 0 0 1 .01.041.622.622 0 0 1 .003.016.622.622 0 0 1 .007.049.622.622 0 0 1 0 .01.622.622 0 0 1 .002.045.622.622 0 0 1-.002.045.622.622 0 0 1 0 .011.622.622 0 0 1-.007.049.622.622 0 0 1-.003.016.622.622 0 0 1-.01.041.622.622 0 0 1-.005.017.622.622 0 0 1-.019.055.622.622 0 0 1-.02.046.622.622 0 0 1-.01.017.622.622 0 0 1-.013.023.622.622 0 0 1-.025.038.622.622 0 0 1-.027.036.622.622 0 0 1-.041.046.622.622 0 0 1-.046.042.622.622 0 0 1-.035.026.622.622 0 0 1-.002 0 .622.622 0 0 1-.037.026.622.622 0 0 1-.023.013.622.622 0 0 1-.017.009.622.622 0 0 1-.047.02.622.622 0 0 1-.054.02.622.622 0 0 1-.017.005.622.622 0 0 1-.042.01.622.622 0 0 1-.015.002.622.622 0 0 1-.049.007.622.622 0 0 1-.002 0 .622.622 0 0 1-.009 0 .622.622 0 0 1-.045.003.622.622 0 0 1-.045-.003.622.622 0 0 1-.01 0 .622.622 0 0 1-.05-.007.622.622 0 0 1-.015-.003.622.622 0 0 1-.041-.01.622.622 0 0 1-.017-.004.622.622 0 0 1-.055-.02.622.622 0 0 1-.046-.02.622.622 0 0 1-.017-.009.622.622 0 0 1-.023-.013.622.622 0 0 1-.038-.026.622.622 0 0 1-.001 0 .622.622 0 0 1-.035-.026.622.622 0 0 1-.047-.042.622.622 0 0 1-.04-.046.622.622 0 0 1-.028-.035.622.622 0 0 1 0-.001.622.622 0 0 1-.025-.038.622.622 0 0 1-.013-.023.622.622 0 0 1-.009-.017.622.622 0 0 1-.02-.046.622.622 0 0 1-.02-.055.622.622 0 0 1-.005-.017.622.622 0 0 1-.01-.041.622.622 0 0 1-.002-.016.622.622 0 0 1-.007-.049.622.622 0 0 1 0-.01.622.622 0 0 1-.003-.045.622.622 0 0 1 .003-.045.622.622 0 0 1 0-.011.622.622 0 0 1 .007-.049.622.622 0 0 1 .002-.016.622.622 0 0 1 .01-.041.622.622 0 0 1 .005-.017.622.622 0 0 1 .02-.055.622.622 0 0 1 .02-.046.622.622 0 0 1 .009-.017.622.622 0 0 1 .013-.023.622.622 0 0 1 .025-.038.622.622 0 0 1 .027-.036.622.622 0 0 1 .042-.046.622.622 0 0 1 .046-.042.622.622 0 0 1 .036-.026.622.622 0 0 1 .038-.026.622.622 0 0 1 .023-.013.622.622 0 0 1 .017-.009.622.622 0 0 1 .046-.02.622.622 0 0 1 .055-.02.622.622 0 0 1 .017-.005.622.622 0 0 1 .041-.01.622.622 0 0 1 .016-.002.622.622 0 0 1 .048-.007.622.622 0 0 1 .011 0 .622.622 0 0 1 .045-.003zm-2.501.311a.88 1.062 0 0 1 .635.311.88 1.062 0 0 1-1.244 0 .88 1.062 0 0 1 .609-.31zm5.003 0a.88 1.062 0 0 1 .608.311.88 1.062 0 0 1-1.244 0 .88 1.062 0 0 1 .636-.31zm-4.158 1.192a.762.762 0 0 1 .552.224.762.762 0 0 1 .197.736.762.762 0 0 1-.737-.197.762.762 0 0 1-.196-.736.762.762 0 0 1 .184-.027zm3.31 0a.762.762 0 0 1 .002 0 .762.762 0 0 1 .185.027.762.762 0 0 1-.197.736.762.762 0 0 1-.736.197.762.762 0 0 1 .197-.736.762.762 0 0 1 .55-.224zm-1.652.985a1.062.88 0 0 1 .063.059 1.062.88 0 0 1 .023.023 1.062.88 0 0 1 .044.05 1.062.88 0 0 1 .013.018 1.062.88 0 0 1 .038.05 1.062.88 0 0 1 .021.037 1.062.88 0 0 1 .025.045 1.062.88 0 0 1 .022.047 1.062.88 0 0 1 .012.027 1.062.88 0 0 1 .018.055 1.062.88 0 0 1 .01.038 1.062.88 0 0 1 .01.05 1.062.88 0 0 1 .005.03 1.062.88 0 0 1 .004.055 1.062.88 0 0 1 .002.039 1.062.88 0 0 1-.002.038 1.062.88 0 0 1-.004.055 1.062.88 0 0 1-.006.03 1.062.88 0 0 1-.01.05 1.062.88 0 0 1-.01.038 1.062.88 0 0 1-.017.055 1.062.88 0 0 1-.013.028 1.062.88 0 0 1-.021.046 1.062.88 0 0 1-.025.045 1.062.88 0 0 1-.022.036 1.062.88 0 0 1-.037.051 1.062.88 0 0 1-.014.017 1.062.88 0 0 1-.043.051 1.062.88 0 0 1-.023.023 1.062.88 0 0 1-.063.059 1.062.88 0 0 1-.064-.059 1.062.88 0 0 1-.023-.023 1.062.88 0 0 1-.043-.05 1.062.88 0 0 1-.014-.018 1.062.88 0 0 1-.037-.05 1.062.88 0 0 1-.022-.037 1.062.88 0 0 1-.025-.045 1.062.88 0 0 1-.021-.046 1.062.88 0 0 1-.013-.028 1.062.88 0 0 1-.018-.055 1.062.88 0 0 1-.01-.038 1.062.88 0 0 1-.01-.05 1.062.88 0 0 1-.005-.03 1.062.88 0 0 1-.004-.055 1.062.88 0 0 1-.003-.038 1.062.88 0 0 1 .003-.04 1.062.88 0 0 1 .004-.054 1.062.88 0 0 1 .006-.03 1.062.88 0 0 1 .01-.05 1.062.88 0 0 1 .01-.038 1.062.88 0 0 1 .017-.055 1.062.88 0 0 1 .013-.027 1.062.88 0 0 1 .021-.047 1.062.88 0 0 1 .025-.045 1.062.88 0 0 1 .022-.036 1.062.88 0 0 1 .037-.051 1.062.88 0 0 1 .014-.017 1.062.88 0 0 1 .043-.051 1.062.88 0 0 1 .023-.023 1.062.88 0 0 1 .064-.059z" opacity=".5" fill="#999"/></svg>