<svg xmlns="http://www.w3.org/2000/svg" width="32" height="32" version="1"><path d="M21.187 2H7.536A5.523 5.523 0 0 0 2 7.534v16.93A5.525 5.525 0 0 0 7.536 30h16.93A5.523 5.523 0 0 0 30 24.464V10.813z" fill="#ccc" fill-rule="evenodd"/><path d="M30 10.813L21.187 2v3.279a5.521 5.521 0 0 0 5.534 5.534z" fill="#999" fill-rule="evenodd"/><path style="line-height:normal;font-variant-ligatures:normal;font-variant-position:normal;font-variant-caps:normal;font-variant-numeric:normal;font-variant-alternates:normal;font-feature-settings:normal;text-indent:0;text-align:start;text-decoration-line:none;text-decoration-style:solid;text-decoration-color:#000;text-transform:none;text-orientation:mixed;white-space:normal;shape-padding:0;isolation:auto;mix-blend-mode:normal;solid-color:#000;solid-opacity:1" d="M10.385 11.076v12.016h4.148v-3.934h.444c.02.015.072.059.119.098.347.475.769 1.353 1.08 2.105.316.765.531 1.393.531 1.393l.115.34h5.104l-2.203-4.385s-.095-.212-.284-.414c-.1-.109-.182-.14-.279-.205.745-.55 1.602-1.457 1.668-3.348v-.035c-.053-1.542-.9-2.52-1.785-3.023a4.657 4.657 0 0 0-2.193-.608zm6.066 3.36s.004-.006.051.027.178.123.178.654c0 .496-.126.595-.188.64-.062.046-.08.042-.08.042h-1.879v-1.361h1.889z" color="#000" font-weight="400" font-family="sans-serif" overflow="visible" fill-rule="evenodd" fill="#999"/></svg>