<svg xmlns="http://www.w3.org/2000/svg" width="32" height="32"><g fill-rule="evenodd"><path d="M21.187 2H7.536A5.523 5.523 0 0 0 2 7.534v16.93A5.525 5.525 0 0 0 7.536 30h16.93A5.523 5.523 0 0 0 30 24.464V10.813z" fill="#38b2f8"/><path d="M30 10.813L21.187 2v3.279a5.521 5.521 0 0 0 5.534 5.534z" fill="#31617d"/></g><path d="M21 22.373l-3.346.002-2.28-3.305s-.367-.62-.593-.8c-.188-.149-.268-.203-.454-.203h-.424l.001 4.304-2.904.001V11.375h6.323s2.563.464 2.615 2.953c.058 2.776-2.477 3.593-2.477 3.593.348.14 3.144 3.809 3.539 4.45m-5.014-8.611l-2.053-.001v1.87l2.053-.001s.952-.003.952-.951c0-.967-.952-.917-.952-.917" fill="#33637e" fill-rule="evenodd"/></svg>