<svg xmlns="http://www.w3.org/2000/svg" width="32" height="32"><g fill-rule="evenodd"><path d="M21.187 2H7.536A5.523 5.523 0 0 0 2 7.534v16.93A5.525 5.525 0 0 0 7.536 30h16.93A5.523 5.523 0 0 0 30 24.464V10.813z" fill="#d78ce5"/><path d="M30 10.813L21.187 2v3.279a5.521 5.521 0 0 0 5.534 5.534z" fill="#f4e0f8"/></g><path d="M16.78 10.5l-2.948 11h1.04l2.981-10.992zm-4.513 2l-2.96 3.145-.325.348.324.346 2.943 3.162.715-.695-2.62-2.813 2.638-2.797zm7.465.283l-.715.695 2.64 2.797-2.622 2.813.715.695 2.943-3.162.324-.346-.323-.348z" color="#000" fill="#f4e0f8"/></svg>