<svg xmlns="http://www.w3.org/2000/svg" width="32" height="32"><g fill-rule="evenodd"><path d="M21.187 2H7.536A5.523 5.523 0 0 0 2 7.534v16.93A5.525 5.525 0 0 0 7.536 30h16.93A5.523 5.523 0 0 0 30 24.464V10.813z" fill="#9149af"/><path d="M30 10.813L21.187 2v3.279a5.521 5.521 0 0 0 5.534 5.534z" fill="#e2d1e5"/></g><path style="line-height:normal;font-variant-ligatures:normal;font-variant-position:normal;font-variant-caps:normal;font-variant-numeric:normal;font-variant-alternates:normal;font-feature-settings:normal;text-indent:0;text-align:start;text-decoration-line:none;text-decoration-style:solid;text-decoration-color:#000;text-transform:none;text-orientation:mixed;white-space:normal;shape-padding:0;isolation:auto;mix-blend-mode:normal;solid-color:#000;solid-opacity:1" d="M10.23 10.946v12.016h4.148v-3.934h.443c.02.015.073.06.12.098.347.475.768 1.353 1.08 2.106.316.764.53 1.392.53 1.392l.116.34h5.104l-2.204-4.385s-.094-.212-.283-.414c-.101-.108-.182-.139-.28-.205.746-.55 1.603-1.457 1.669-3.348v-.035c-.054-1.541-.9-2.519-1.785-3.023a4.657 4.657 0 0 0-2.194-.608zm6.066 3.36s.003-.006.05.027c.048.033.178.123.178.654 0 .496-.125.596-.187.641-.062.046-.08.041-.08.041H14.377v-1.361h1.89z" color="#000" font-weight="400" font-family="sans-serif" overflow="visible" fill="#e4d4e8" fill-rule="evenodd"/></svg>