<svg xmlns="http://www.w3.org/2000/svg" width="32" height="32"><path d="M21.187 2H7.536A5.523 5.523 0 0 0 2 7.534v16.93A5.525 5.525 0 0 0 7.536 30h16.93A5.523 5.523 0 0 0 30 24.464V10.813z" fill="#607d8b" fill-rule="evenodd"/><path d="M30 10.813L21.187 2v3.279a5.521 5.521 0 0 0 5.534 5.534z" fill="#385067" fill-rule="evenodd"/><path d="M13.229 11.533a.599.6 0 0 0-.057.001.599.6 0 0 0-.158.033s-.375.124-.81.353c-.433.229-.96.55-1.3 1.1-.378.612-.235 1.267-.117 1.659.117.392.182.563.073.826-.053.128-.378.408-.733.582a4.537 4.537 0 0 1-.678.266.599.6 0 0 0-.428.738.599.6 0 0 0 .428.72s.322.09.678.265c.355.174.68.455.733.584.109.262.044.434-.073.826-.118.392-.261 1.047.117 1.66.34.55.867.87 1.3 1.099.435.228.81.352.81.352a.599.6 0 1 0 .377-1.137s-.285-.096-.628-.277c-.343-.18-.71-.46-.84-.67-.147-.237-.099-.32.01-.683.11-.364.307-.969.033-1.63-.242-.585-.725-.894-1.158-1.118.433-.223.916-.533 1.158-1.118.274-.66.076-1.265-.033-1.63-.109-.363-.157-.445-.01-.683.13-.21.497-.49.84-.67.343-.181.628-.277.628-.277a.599.6 0 0 0-.161-1.17h-.001zm5.54 0a.599.6 0 0 0-.16 1.171s.285.096.628.277c.343.18.71.46.84.67.147.238.099.32-.01.684-.11.364-.307.968-.033 1.629.242.585.725.895 1.158 1.118-.433.224-.916.533-1.158 1.119-.274.66-.076 1.265.033 1.629.109.364.157.446.01.683-.13.21-.497.49-.84.67-.343.18-.628.277-.628.277a.599.6 0 1 0 .377 1.137s.375-.124.81-.352c.433-.23.96-.55 1.3-1.1.378-.612.235-1.267.117-1.66-.117-.391-.182-.563-.073-.825.053-.128.378-.41.733-.584.356-.174.678-.266.678-.266a.599.6 0 0 0 .428-.72.599.6 0 0 0-.428-.737s-.322-.091-.678-.265c-.355-.175-.68-.455-.733-.583-.109-.263-.044-.434.073-.826.118-.392.261-1.047-.117-1.66-.34-.55-.867-.87-1.3-1.099-.435-.229-.81-.353-.81-.353a.599.6 0 0 0-.158-.033.599.6 0 0 0-.058 0 .599.6 0 0 0-.002 0zM16 13.947a1.207 1.207 0 0 0-1.207 1.207A1.207 1.207 0 0 0 16 16.361a1.207 1.207 0 0 0 1.207-1.207A1.207 1.207 0 0 0 16 13.947zm0 3.62a1.207 1.207 0 1 0 0 2.415c.427 0 .604 1.207.604 1.207s.603-2.174.603-2.414c0-.667-.54-1.207-1.207-1.207z" fill="#9cbeca" fill-rule="evenodd"/></svg>