<svg xmlns="http://www.w3.org/2000/svg" width="32" height="32"><path d="M21.187 2H7.536A5.523 5.523 0 0 0 2 7.534v16.93A5.525 5.525 0 0 0 7.536 30h16.93A5.523 5.523 0 0 0 30 24.464V10.813z" fill="#ccc" fill-rule="evenodd"/><path d="M30 10.813L21.187 2v3.279a5.521 5.521 0 0 0 5.534 5.534z" fill="#999" fill-rule="evenodd"/><g stroke-width=".985" fill="#999"><path d="M16 9.705a7.105 7.105 0 0 0-7.105 7.105A7.105 7.105 0 0 0 16 23.915a7.105 7.105 0 0 0 7.105-7.105A7.105 7.105 0 0 0 16 9.705zm0 1.523a5.582 5.582 0 0 1 5.582 5.582A5.582 5.582 0 0 1 16 22.393a5.582 5.582 0 0 1-5.582-5.583A5.582 5.582 0 0 1 16 11.228z" opacity=".5"/><path d="M16 12.75a4.06 4.06 0 0 0-4.06 4.06A4.06 4.06 0 0 0 16 20.87a4.06 4.06 0 0 0 2.895-1.215l-1.303-.868a2.537 2.537 0 0 1-1.592.56 2.537 2.537 0 0 1-2.537-2.537A2.537 2.537 0 0 1 16 14.273a2.537 2.537 0 0 1 1.59.563l1.303-.869A4.06 4.06 0 0 0 16 12.75z" opacity=".5"/></g></svg>