<svg xmlns="http://www.w3.org/2000/svg" width="32" height="32"><path d="M21.187 2H7.536A5.523 5.523 0 0 0 2 7.534v16.93A5.525 5.525 0 0 0 7.536 30h16.93A5.523 5.523 0 0 0 30 24.464V10.813z" fill="#dc682a" fill-rule="evenodd"/><path d="M30 10.813L21.187 2v3.279a5.521 5.521 0 0 0 5.534 5.534z" fill="#b55623" fill-rule="evenodd"/><path d="M10 20.492H8v2h7v-2h-2v-2h1c2 0 2 4 4 4h4c2 0 2-4 2-4h-2.5s.5 2-1.5 2c-1 0-2-2-2-2h.5c1.66 0 3-1.3 3-3s-1.34-3-3-3H8v2h2m7.5 0c.55 0 1 .4 1 1s-.45 1-1 1H13v-2" fill="#ffc390"/></svg>