<svg xmlns="http://www.w3.org/2000/svg" width="32" height="32" version="1"><path d="M21.187 2H7.536A5.523 5.523 0 0 0 2 7.534v16.93A5.525 5.525 0 0 0 7.536 30h16.93A5.523 5.523 0 0 0 30 24.464V10.813z" fill="#ccc" fill-rule="evenodd"/><path d="M30 10.813L21.187 2v3.279a5.521 5.521 0 0 0 5.534 5.534z" fill="#999" fill-rule="evenodd"/><path d="M16 12.263c-3.038 0-6 2.462-6 5.5 0 3.037 2.962 5.5 6 5.5v-2c-1.933 0-4-1.567-4-3.5s2.067-3.5 4-3.5zm3 0v1h-1v2h1v1h2v-1h1v-2h-1v-1zm0 7v1h-1v2h1v1h2v-1h1v-2h-1v-1z" fill="#999"/></svg>