<svg xmlns="http://www.w3.org/2000/svg" width="32" height="32" version="1"><path d="M21.187 2H7.536A5.523 5.523 0 0 0 2 7.534v16.93A5.525 5.525 0 0 0 7.536 30h16.93A5.523 5.523 0 0 0 30 24.464V10.813z" fill="#ccc" fill-rule="evenodd"/><path d="M30 10.813L21.187 2v3.279a5.521 5.521 0 0 0 5.534 5.534z" fill="gray" fill-rule="evenodd"/><path d="M15.898 9.48c-1.795 0-3.5 1.185-3.387 2.461v1.684h-1.24c-1.281 0-2.313 1.148-2.313 2.941v.926c0 1.794 1.032 3.239 2.313 3.239h1.062v-1.85c0-1.026 1.151-1.703 2.177-1.703h3.7s2-.149 2-2v-3.237c0-1.282-1.593-2.462-3.387-2.462zm-1.315 1.776a.888.888 0 1 1 0 1.777.888.888 0 0 1 0-1.777z" fill="#666"/><path d="M16.645 25.232c1.794 0 3.499-1.185 3.386-2.461v-1.684h1.24c1.282 0 2.314-1.148 2.314-2.941v-.926c0-1.794-1.032-3.239-2.314-3.239H20.21v1.85c0 1.026-1.15 1.703-2.176 1.703h-3.701s-1.999.222-1.999 2.073v3.164c0 1.282 1.592 2.462 3.387 2.462zm1.314-1.776a.888.888 0 1 1 0-1.777.888.888 0 0 1 0 1.777z" fill="#999"/></svg>