<svg xmlns="http://www.w3.org/2000/svg" width="32" height="32" version="1"><path d="M21.187 2H7.536A5.523 5.523 0 0 0 2 7.534v16.93A5.525 5.525 0 0 0 7.536 30h16.93A5.523 5.523 0 0 0 30 24.464V10.813z" fill-rule="evenodd" fill="gray"/><path d="M30 10.813L21.187 2v3.279a5.521 5.521 0 0 0 5.534 5.534z" fill="#666" fill-rule="evenodd"/><path d="M22.085 20.263h-1.217v1.217h1.217zm0-7.302h-1.217v6.085h1.217zm-9.736 2.434h2.434v3.65H12.35zm-1.217-2.434v1.217H9.915v1.217h1.217v3.65H9.915v1.218h1.217v1.217h1.217v-1.217h2.434v1.217H16v-1.217h1.217v-1.217H16v-3.651h1.217v-1.217H16v-1.217h-1.217v1.217H12.35v-1.217z" fill="#ccc"/></svg>