<svg xmlns="http://www.w3.org/2000/svg" width="32" height="32"><path d="M21.187 2H7.536A5.523 5.523 0 0 0 2 7.534v16.93A5.525 5.525 0 0 0 7.536 30h16.93A5.523 5.523 0 0 0 30 24.464V10.813z" fill="#ccc" fill-rule="evenodd"/><path d="M30 10.813L21.187 2v3.279a5.521 5.521 0 0 0 5.534 5.534z" fill="#999" fill-rule="evenodd"/><path d="M9.983 12.407c-.662 0-1.203.601-1.203 1.203v7.22c0 .602.541 1.204 1.203 1.204h12.034c.662 0 1.203-.602 1.203-1.203v-7.22c0-.603-.541-1.204-1.203-1.204zm0 1.203h12.034v7.22H9.983zm1.203 1.204v4.813h1.204V16.98l1.203 1.925 1.204-1.925v2.647H16v-4.813h-1.203l-1.204 1.925-1.203-1.925zm7.22 0v2.406h-1.203l1.204 2.407h1.203l1.204-2.407H19.61v-2.406z" fill="#999"/></svg>