<svg xmlns="http://www.w3.org/2000/svg" width="32" height="32"><path d="M21.187 2H7.536A5.523 5.523 0 0 0 2 7.534v16.93A5.525 5.525 0 0 0 7.536 30h16.93A5.523 5.523 0 0 0 30 24.464V10.813z" fill="#3e50b4" fill-rule="evenodd"/><path d="M30 10.813L21.187 2v3.279a5.521 5.521 0 0 0 5.534 5.534z" fill="#334294" fill-rule="evenodd"/><path d="M21.314 10.271a1.771 1.771 0 0 0-1.772 1.771 1.771 1.771 0 0 0 1.772 1.772 1.771 1.771 0 0 0 1.77-1.772 1.771 1.771 0 0 0-1.77-1.77zm-6.495 2.362a5.904 5.904 0 0 0-5.904 5.904 5.904 5.904 0 0 0 5.904 5.904 5.904 5.904 0 0 0 5.904-5.904 5.904 5.904 0 0 0-5.904-5.904zm1.771 2.361a1.771 1.771 0 0 1 1.772 1.772 1.771 1.771 0 0 1-1.772 1.77 1.771 1.771 0 0 1-1.77-1.77 1.771 1.771 0 0 1 1.77-1.772z" fill="#94acd8"/></svg>