<svg xmlns="http://www.w3.org/2000/svg" width="32" height="32"><g fill-rule="evenodd"><path d="M21.187 2H7.536A5.523 5.523 0 0 0 2 7.534v16.93A5.525 5.525 0 0 0 7.536 30h16.93A5.523 5.523 0 0 0 30 24.464V10.813z" fill="#8f46ae"/><path d="M30 10.813L21.187 2v3.279a5.521 5.521 0 0 0 5.534 5.534z" fill="#e4d3e7"/></g><path d="M10 10.955v1h12v-1zm4.267 2l.018.486 3.43 4.514L14 22.4v.555h8v-2.777h-.572c0 .555.15.9-.338 1.232-.534.365-1.238.434-1.857.434h-2.947l2.857-3.889-2.857-4.445h1.68c1.191 0 2.886-.107 3.357 1.285.081.238.085.688.105.938H22v-2.777zm-4.268 1v1h4v-1zm0 2v1h5v-1zm0 3v1h5v-1zm0 2v1h4v-1z" fill="#e4d3e7"/></svg>