<svg xmlns="http://www.w3.org/2000/svg" width="32" height="32"><path d="M21.187 2H7.536A5.523 5.523 0 0 0 2 7.534v16.93A5.525 5.525 0 0 0 7.536 30h16.93A5.523 5.523 0 0 0 30 24.464V10.813z" fill="#ccc" fill-rule="evenodd"/><path d="M30 10.813L21.187 2v3.279a5.521 5.521 0 0 0 5.534 5.534z" fill="#999" fill-rule="evenodd"/><path d="M8.742 6.856a.47.47 0 0 0-.47.47v2.827c0 .26.21.47.47.47h1.884c.26 0 .47-.21.47-.47V7.327a.47.47 0 0 0-.47-.471zm4.474 0a.235.235 0 0 0-.235.235v3.297c0 .13.104.235.235.235h.471c.131 0 .236-.105.236-.235V7.091a.235.235 0 0 0-.236-.235zm1.884 0a.235.235 0 0 0-.236.235v3.297c0 .13.105.235.236.235h.47c.132 0 .236-.105.236-.235V7.091a.235.235 0 0 0-.235-.235zm2.12 0a.47.47 0 0 0-.472.47v2.827c0 .26.21.47.471.47h1.884c.26 0 .47-.21.47-.47V7.327a.47.47 0 0 0-.47-.471zm-8.007.942h.942v1.884h-.942zm8.477 0h.942v1.884h-.942zm-8.241 4.71a.235.235 0 0 0-.236.235v3.296c0 .131.105.236.236.236h.47c.13 0 .236-.105.236-.236v-3.296a.235.235 0 0 0-.236-.236zm3.06 0a.47.47 0 0 0-.47.47v2.826c0 .26.21.47.47.47h1.884c.261 0 .471-.21.471-.47v-2.826a.47.47 0 0 0-.47-.47zm4.475 0a.234.234 0 0 0-.236.235v3.296c0 .131.105.236.236.236h.47c.132 0 .236-.105.236-.236v-3.296a.234.234 0 0 0-.235-.236zm1.883 0a.234.234 0 0 0-.235.235v3.296c0 .131.105.236.235.236h.471c.131 0 .236-.105.236-.236v-3.296a.234.234 0 0 0-.236-.236zm2.12 0a.47.47 0 0 0-.471.47v2.826c0 .26.21.47.47.47h1.884c.261 0 .471-.21.471-.47v-2.826a.47.47 0 0 0-.47-.47zm-8.006.941h.942v1.884h-.942zm8.477 0h.942v1.884h-.942zM8.742 17.217a.47.47 0 0 0-.47.47v2.826c0 .261.21.471.47.471h1.884c.26 0 .47-.21.47-.47v-2.826a.47.47 0 0 0-.47-.471zm3.768 0a.47.47 0 0 0-.471.47v2.826c0 .261.21.471.47.471h1.884c.261 0 .471-.21.471-.47v-2.826a.47.47 0 0 0-.47-.471zm4.474 0a.234.234 0 0 0-.236.235v3.297c0 .13.105.235.236.235h.47c.132 0 .236-.104.236-.235v-3.297a.234.234 0 0 0-.235-.235zm1.883 0a.234.234 0 0 0-.235.235v3.297c0 .13.105.235.235.235h.471c.131 0 .236-.104.236-.235v-3.297a.234.234 0 0 0-.236-.235zm2.12 0a.47.47 0 0 0-.471.47v2.826c0 .261.21.471.47.471h1.884c.261 0 .471-.21.471-.47v-2.826a.47.47 0 0 0-.47-.471zm-11.774.942h.942v1.883h-.942zm3.768 0h.942v1.883h-.942zm8.477 0h.942v1.883h-.942zM8.742 22.868a.47.47 0 0 0-.47.471v2.826c0 .26.21.47.47.47h1.884c.26 0 .47-.21.47-.47v-2.826a.47.47 0 0 0-.47-.471zm4.474 0a.234.234 0 0 0-.235.236V26.4c0 .13.104.236.235.236h.471c.131 0 .236-.105.236-.236v-3.296a.235.235 0 0 0-.236-.236zm1.884 0a.234.234 0 0 0-.236.236V26.4c0 .13.105.236.236.236h.47c.132 0 .236-.105.236-.236v-3.296a.235.235 0 0 0-.235-.236zm2.12 0a.47.47 0 0 0-.472.471v2.826c0 .26.21.47.471.47h1.884c.26 0 .47-.21.47-.47v-2.826a.47.47 0 0 0-.47-.471zm4.473 0a.235.235 0 0 0-.235.236V26.4c0 .13.104.236.235.236h.471c.13 0 .236-.105.236-.236v-3.296a.235.235 0 0 0-.236-.236zm-12.48.942h.942v1.884h-.942zm8.477 0h.942v1.884h-.942z" fill="gray"/></svg>