<svg xmlns="http://www.w3.org/2000/svg" width="32" height="32" version="1"><path d="M21.187 2H7.536A5.523 5.523 0 0 0 2 7.534v16.93A5.525 5.525 0 0 0 7.536 30h16.93A5.523 5.523 0 0 0 30 24.464V10.813z" fill="#ccc" fill-rule="evenodd"/><path d="M30 10.813L21.187 2v3.279a5.521 5.521 0 0 0 5.534 5.534z" fill="#999" fill-rule="evenodd"/><path d="M10.659 12.786s-2.114.002-2.114 1.953v5.931c0 1.082.957 1.679 2.145 1.679h4.686l2.733 2.732 2.732-2.732h.588s2.144.272 2.144-1.679v-5.93c0-1.952-2.144-1.954-2.144-1.954zm-.747 1.366h12.295v1.366H9.912zm0 2.732h9.563v1.366H9.912zm0 2.733h5.464v1.366H9.912z" fill="#999"/></svg>