<svg xmlns="http://www.w3.org/2000/svg" width="32" height="32"><path d="M21.187 2H7.536A5.523 5.523 0 0 0 2 7.534v16.93A5.525 5.525 0 0 0 7.536 30h16.93A5.523 5.523 0 0 0 30 24.464V10.813z" fill="#ccc" fill-rule="evenodd"/><path d="M30 10.813L21.187 2v3.279a5.521 5.521 0 0 0 5.534 5.534z" fill="#999" fill-rule="evenodd"/><path d="M8.373 8.373L12.504 16l-4.131 7.627h2.542L15.047 16l-4.132-7.627zm3.813 0L16.318 16l-4.132 7.627h2.543l2.86-5.275 2.86 5.275h2.543L14.729 8.373zm6.567 5.085l1.034 1.906h3.84v-1.906zm1.723 3.178l1.033 1.906h2.118v-1.906z" fill="#999"/></svg>