<svg xmlns="http://www.w3.org/2000/svg" width="32" height="32"><path d="M21.187 2H7.536A5.523 5.523 0 0 0 2 7.534v16.93A5.525 5.525 0 0 0 7.536 30h16.93A5.523 5.523 0 0 0 30 24.464V10.813z" fill="#1e88e5" fill-rule="evenodd"/><path d="M30 10.813L21.187 2v3.279a5.521 5.521 0 0 0 5.534 5.534z" fill="#386fa9" fill-rule="evenodd"/><path d="M12.5 12.284a2.5 2.5 0 0 0-2.5 2.5 2.5 2.5 0 0 0 2.5 2.5 2.5 2.5 0 0 0 2.5-2.5 2.5 2.5 0 0 0-2.5-2.5zm7 0a2.5 2.5 0 0 0-2.5 2.5 2.5 2.5 0 0 0 2.5 2.5 2.5 2.5 0 0 0 2.5-2.5 2.5 2.5 0 0 0-2.5-2.5zm-7.5 1.5a1 1 0 0 1 1 1 1 1 0 0 1-1 1 1 1 0 0 1-1-1 1 1 0 0 1 1-1zm7 0a1 1 0 0 1 1 1 1 1 0 0 1-1 1 1 1 0 0 1-1-1 1 1 0 0 1 1-1zm-3.035 3.5a1.5 1.5 0 0 0-.715.201 1.5 1.5 0 0 0-.75 1.299h3a1.5 1.5 0 0 0-.75-1.299 1.5 1.5 0 0 0-.785-.201zm1.535 1.5a1.5 1.5 0 0 1-3 0h-1c-.831 0-1.5.669-1.5 1.5 0 .83.669 1.5 1.5 1.5h.5v1c0 .554.446 1 1 1s1-.446 1-1c0 .554.446 1 1 1s1-.446 1-1v-1h.5c.831 0 1.5-.67 1.5-1.5 0-.831-.669-1.5-1.5-1.5z" fill="#a8d0fe"/></svg>