<svg xmlns="http://www.w3.org/2000/svg" width="32" height="32"><g fill-rule="evenodd"><path d="M21.187 2H7.536A5.523 5.523 0 0 0 2 7.534v16.93A5.525 5.525 0 0 0 7.536 30h16.93A5.523 5.523 0 0 0 30 24.464V10.813z" fill="#d2d7da"/><path d="M30 10.813L21.187 2v3.279a5.521 5.521 0 0 0 5.534 5.534z" fill="#5a6875"/></g><g fill="#5a6875" fill-rule="evenodd"><path d="M16.006 9.999l.88 9.989L22 21.999z"/><path d="M16.006 9.999l-5.994 12 6.532-5.898z"/><path d="M13.647 18.718l-3.635 3.283h11.987zm-3.626 3.264l-.021.02h.012z"/></g></svg>