<svg xmlns="http://www.w3.org/2000/svg" width="32" height="32"><path d="M21.187 2H7.536A5.523 5.523 0 0 0 2 7.534v16.93A5.525 5.525 0 0 0 7.536 30h16.93A5.523 5.523 0 0 0 30 24.464V10.813z" fill="#f44336" fill-rule="evenodd"/><path d="M30 10.813L21.187 2v3.279a5.521 5.521 0 0 0 5.534 5.534z" fill="#c9372c" fill-rule="evenodd"/><path d="M10.541 11.09L7.51 14.73h4.245zm1.42 0l.4 2.427 2.026-2.426zm4.039 0l-3.033 3.64h6.066zm1.613 0l2.026 2.427.4-2.426zm3.846 0l-1.213 3.64h4.245zm-13.95 4.853l7.884 8.492-3.639-8.492zm5.458 0L16 23.222l3.033-7.279zm7.279 0l-3.64 8.492 7.885-8.492z" fill="#f3b08e"/></svg>