<svg xmlns="http://www.w3.org/2000/svg" width="32" height="32"><g fill-rule="evenodd"><path d="M21.187 2H7.536A5.523 5.523 0 0 0 2 7.534v16.93A5.525 5.525 0 0 0 7.536 30h16.93A5.523 5.523 0 0 0 30 24.464V10.813z" fill="#d10611"/><path d="M30 10.813L21.187 2v3.279a5.521 5.521 0 0 0 5.534 5.534z" fill="#fcadaf"/></g><path d="M10 10.955v1h6v-1zm0 3v1h12v-1zm0 3v1h5v-1zm7 0v3h-1v.016l2.984 2.984h.031l2.984-2.984v-.016h-1v-3zm1 1h2v2h.6L19 21.557l-1.6-1.602h.6zm-8 1v1h3v-1zm0 3v1h5v-1z" color="#000" fill="#fcadaf"/></svg>