<svg xmlns="http://www.w3.org/2000/svg" width="32" height="32"><g fill-rule="evenodd"><path d="M21.187 2H7.536A5.523 5.523 0 0 0 2 7.534v16.93A5.525 5.525 0 0 0 7.536 30h16.93A5.523 5.523 0 0 0 30 24.464V10.813z" fill="#9047ae"/><path d="M30 10.813L21.187 2v3.279a5.521 5.521 0 0 0 5.534 5.534z" fill="#dfcde2"/></g><path d="M16 11.075c-1.662 0-3 1.338-3 3h2v1h-2v2h2v1h-1.818a2.984 2.984 0 0 0 5.636 0H17v-1h2v-2h-2v-1h2c0-1.662-1.338-3-3-3m-4.9 7a4.984 4.984 0 0 0 3.9 3.893v.107l-1 1h4l-1-1v-.107a4.982 4.982 0 0 0 3.9-3.893h-1.039a3.982 3.982 0 0 1-3.861 3 3.98 3.98 0 0 1-3.861-3z" fill="#dfcde2"/></svg>