<svg xmlns="http://www.w3.org/2000/svg" width="32" height="32" version="1"><path d="M21.187 2H7.536A5.523 5.523 0 0 0 2 7.534v16.93A5.525 5.525 0 0 0 7.536 30h16.93A5.523 5.523 0 0 0 30 24.464V10.813z" fill="#4bae4f" fill-rule="evenodd"/><path d="M30 10.813L21.187 2v3.279a5.521 5.521 0 0 0 5.534 5.534z" fill="#3e8f41" fill-rule="evenodd"/><path d="M8.508 13.015v13.698h15.068V13.015zm1.37 1.37h5.48v2.74h-5.48zm6.85 0h5.478v2.74h-5.479zm-6.85 4.11h5.48v2.74h-5.48zm6.85 0h5.478v2.74h-5.479zm-6.85 4.109h5.48v2.74h-5.48zm6.85 0h5.478v2.74h-5.479z" fill="#9be897"/></svg>