<svg xmlns="http://www.w3.org/2000/svg" width="32" height="32" version="1"><path d="M21.187 2H7.536A5.523 5.523 0 0 0 2 7.534v16.93A5.525 5.525 0 0 0 7.536 30h16.93A5.523 5.523 0 0 0 30 24.464V10.813z" fill="#ff5722" fill-rule="evenodd"/><path d="M30 10.813L21.187 2v3.279a5.521 5.521 0 0 0 5.534 5.534z" fill="#d2481c" fill-rule="evenodd"/><path d="M10.825 14.184a2.588 2.588 0 1 0 2.587 2.587h-2.587zm5.175 0v1.293h7.763v-1.293zm0 3.881v1.294h7.763v-1.294zm-7.763 3.881v1.294h11.644v-1.294z" fill="#ffb87c"/></svg>