<svg xmlns="http://www.w3.org/2000/svg" width="32" height="32"><g fill-rule="evenodd"><path d="M21.187 2H7.536A5.523 5.523 0 0 0 2 7.534v16.93A5.525 5.525 0 0 0 7.536 30h16.93A5.523 5.523 0 0 0 30 24.464V10.813z" fill="#fec31d"/><path d="M30 10.813L21.187 2v3.279a5.521 5.521 0 0 0 5.534 5.534z" fill="#ffe49c"/></g><path d="M12 10.768v3h1v1.65a1.5 1.5 0 0 0-1 1.412 1.5 1.5 0 0 0 1 1.412v1.525h-1v3h3v-1.809a7 6 0 0 0 5 1.809v-1a6 5 0 0 1-5.77-3.63 1.5 1.5 0 0 0 .77-1.308 1.5 1.5 0 0 0-.799-1.322A6 5 0 0 1 20 11.767v-1a7 6 0 0 0-5 1.803v-1.803zm1 1h1v1h-1zm0 9h1v1h-1z" color="#4d4d4d" fill="#ffeab0" fill-rule="evenodd"/></svg>