<svg xmlns="http://www.w3.org/2000/svg" width="32" height="32" version="1"><path d="M21.187 2H7.536A5.523 5.523 0 0 0 2 7.534v16.93A5.525 5.525 0 0 0 7.536 30h16.93A5.523 5.523 0 0 0 30 24.464V10.813z" fill="#3f82e8" fill-rule="evenodd"/><path d="M30 10.813L21.187 2v3.279a5.521 5.521 0 0 0 5.534 5.534z" fill="#205996" fill-opacity=".325" fill-rule="evenodd"/><path d="M8.915 12.61v1.271h13.983v-1.27zm0 3.814v1.27h13.983v-1.27zm0 3.813v1.271h13.983v-1.27zm0 3.814v1.271h10.17v-1.271z" fill="#fff" fill-opacity=".498"/></svg>