<svg xmlns="http://www.w3.org/2000/svg" width="32" height="32" version="1"><path d="M21.187 2H7.536A5.523 5.523 0 0 0 2 7.534v16.93A5.525 5.525 0 0 0 7.536 30h16.93A5.523 5.523 0 0 0 30 24.464V10.813z" fill="#ccc" fill-rule="evenodd"/><path d="M30 10.813L21.187 2v3.279a5.521 5.521 0 0 0 5.534 5.534z" fill="#999" fill-rule="evenodd"/><path d="M11.49 11.57a1 1 0 0 0-.697 1.716l3.793 3.794-3.793 3.793a1 1 0 1 0 1.414 1.413l3.794-3.793 3.792 3.793a1 1 0 1 0 1.414-1.413l-3.793-3.793 3.793-3.794a1 1 0 1 0-1.414-1.414L16 15.665l-3.794-3.793a1 1 0 0 0-.718-.303z" opacity=".5" fill="#999"/></svg>