<?xml version="1.0" encoding="UTF-8" standalone="no"?>
<svg
   xmlns:dc="http://purl.org/dc/elements/1.1/"
   xmlns:cc="http://creativecommons.org/ns#"
   xmlns:rdf="http://www.w3.org/1999/02/22-rdf-syntax-ns#"
   xmlns:svg="http://www.w3.org/2000/svg"
   xmlns="http://www.w3.org/2000/svg"
   xmlns:sodipodi="http://sodipodi.sourceforge.net/DTD/sodipodi-0.dtd"
   xmlns:inkscape="http://www.inkscape.org/namespaces/inkscape"
   width="22"
   height="22"
   version="1.1"
   id="svg11"
   sodipodi:docname="both-bad-signal-lock.svg"
   inkscape:version="0.92.4 5da689c313, 2019-01-14">
  <metadata
     id="metadata15">
    <rdf:RDF>
      <cc:Work
         rdf:about="">
        <dc:format>image/svg+xml</dc:format>
        <dc:type
           rdf:resource="http://purl.org/dc/dcmitype/StillImage" />
      </cc:Work>
    </rdf:RDF>
  </metadata>
  <sodipodi:namedview
     pagecolor="#ffffff"
     bordercolor="#666666"
     borderopacity="1"
     objecttolerance="10"
     gridtolerance="10"
     guidetolerance="10"
     inkscape:pageopacity="0"
     inkscape:pageshadow="2"
     inkscape:window-width="640"
     inkscape:window-height="515"
     id="namedview13"
     showgrid="false"
     inkscape:zoom="10.727273"
     inkscape:cx="11"
     inkscape:cy="11"
     inkscape:window-x="0"
     inkscape:window-y="28"
     inkscape:window-maximized="0"
     inkscape:current-layer="svg11" />
  <defs
     id="defs3">
    <style
       id="current-color-scheme"
       type="text/css">
   .ColorScheme-Text { color:#1e333d; } .ColorScheme-Highlight { color:#3fb7ff; }
  </style>
  </defs>
  <path
     style="opacity:0.3;fill:#1e333d;fill-opacity:1"
     class="ColorScheme-Text"
     d="M 11.03125 5 C 7.99685 5 5.2653 6.2711381 3 8.015625 L 11.03125 17 L 12 15.90625 L 12 14 L 13.013672 14 C 13.033322 12.365093 14.356187 11 16 11 C 16.107791 11 16.209703 11.021774 16.314453 11.033203 L 19 8 C 16.7434 6.2748174 14.04235 5 11.03125 5 z"
     id="path5" />
  <path
     style="fill:#1e333d;fill-opacity:1"
     class="ColorScheme-Text"
     d="M 11 12 C 9 12 7.4492187 13 7.4492188 13 L 11 17 C 11.255435 16.69861 11.653156 16.257417 12 15.863281 L 12 14 L 13.013672 14 C 13.020351 13.444253 13.185809 12.924982 13.455078 12.474609 C 12.822939 12.233315 11.966271 11.999966 11 12 z"
     id="path7" />
  <path
     style="fill:#1e333d;fill-opacity:1"
     class="ColorScheme-Text"
     d="m 16,12.00005 c -1.108,0 -2,0.91085 -2,2.0312 L 14,15 l -1,0 0,4 6,0 0,-4 -1,0 0,-0.96875 c 0,-1.1199 -0.892,-2.0312 -2,-2.0312 z m 0,1 c 0.554,0 1,0.4424 1,1 l 0,1 -2,0 0,-1 c 0,-0.5576 0.446,-1 1,-1 z"
     id="path9" />
</svg>
