<?xml version="1.0" encoding="UTF-8" standalone="no"?>
<svg
   xmlns:dc="http://purl.org/dc/elements/1.1/"
   xmlns:cc="http://creativecommons.org/ns#"
   xmlns:rdf="http://www.w3.org/1999/02/22-rdf-syntax-ns#"
   xmlns:svg="http://www.w3.org/2000/svg"
   xmlns="http://www.w3.org/2000/svg"
   xmlns:sodipodi="http://sodipodi.sourceforge.net/DTD/sodipodi-0.dtd"
   xmlns:inkscape="http://www.inkscape.org/namespaces/inkscape"
   width="22"
   height="22"
   version="1.1"
   id="svg9"
   sodipodi:docname="btsync-gui-3.svg"
   inkscape:version="0.92.4 5da689c313, 2019-01-14">
  <metadata
     id="metadata13">
    <rdf:RDF>
      <cc:Work
         rdf:about="">
        <dc:format>image/svg+xml</dc:format>
        <dc:type
           rdf:resource="http://purl.org/dc/dcmitype/StillImage" />
      </cc:Work>
    </rdf:RDF>
  </metadata>
  <sodipodi:namedview
     pagecolor="#ffffff"
     bordercolor="#666666"
     borderopacity="1"
     objecttolerance="10"
     gridtolerance="10"
     guidetolerance="10"
     inkscape:pageopacity="0"
     inkscape:pageshadow="2"
     inkscape:window-width="640"
     inkscape:window-height="515"
     id="namedview11"
     showgrid="false"
     inkscape:zoom="10.727273"
     inkscape:cx="11"
     inkscape:cy="11"
     inkscape:window-x="0"
     inkscape:window-y="28"
     inkscape:window-maximized="0"
     inkscape:current-layer="g7" />
  <defs
     id="defs3">
    <style
       id="current-color-scheme"
       type="text/css">
   .ColorScheme-Text { color:#1e333d; } .ColorScheme-Highlight { color:#3fb7ff; }
  </style>
  </defs>
  <g
     transform="matrix(0.24595,0.24595,-0.24595,0.24595,10.999,-0.81616)"
     id="g7">
    <path
       style="color:#1e333d;fill:#1e333d;fill-opacity:1"
       class="ColorScheme-Text"
       d="m -25.406,12 c -4.418,0 -8,3.582 -8,8 0,4.418 3.582,8 8,8 4.418,0 8,-3.582 8,-8 0,-4.418 -3.582,-8 -8,-8 z m 0,2.5 c 2.304,0 4.367,1.303 5.281,3.313 l 1.219,-0.469 -1,3.469 -3.313,-1.844 1.281,-0.5 c -0.621,-1.31 -1.954,-2.125 -3.469,-2.125 -1.573,0 -2.996,0.94 -3.563,2.344 L -30.751,18 c 0.845,-2.104 2.985,-3.5 5.344,-3.5 z m -5.5,4.719 3.313,1.781 -1.281,0.5 c 0.613,1.305 1.964,2.156 3.469,2.156 1.576,0 2.979,-0.91 3.563,-2.313 l 1.781,0.688 c -0.877,2.103 -2.979,3.469 -5.344,3.469 -2.292,0 -4.387,-1.339 -5.281,-3.344 l -1.219,0.438 1,-3.375 z"
       transform="matrix(2.875,0,0,2.875,97.068,-33.481)"
       id="path5"
       inkscape:connector-curvature="0" />
  </g>
</svg>
