<?xml version="1.0" encoding="UTF-8" standalone="no"?>
<svg
   xmlns:dc="http://purl.org/dc/elements/1.1/"
   xmlns:cc="http://creativecommons.org/ns#"
   xmlns:rdf="http://www.w3.org/1999/02/22-rdf-syntax-ns#"
   xmlns:svg="http://www.w3.org/2000/svg"
   xmlns="http://www.w3.org/2000/svg"
   xmlns:sodipodi="http://sodipodi.sourceforge.net/DTD/sodipodi-0.dtd"
   xmlns:inkscape="http://www.inkscape.org/namespaces/inkscape"
   width="22"
   height="22"
   version="1.1"
   id="svg7"
   sodipodi:docname="cantata-panel.svg"
   inkscape:version="0.92.4 5da689c313, 2019-01-14">
  <metadata
     id="metadata11">
    <rdf:RDF>
      <cc:Work
         rdf:about="">
        <dc:format>image/svg+xml</dc:format>
        <dc:type
           rdf:resource="http://purl.org/dc/dcmitype/StillImage" />
      </cc:Work>
    </rdf:RDF>
  </metadata>
  <sodipodi:namedview
     pagecolor="#ffffff"
     bordercolor="#666666"
     borderopacity="1"
     objecttolerance="10"
     gridtolerance="10"
     guidetolerance="10"
     inkscape:pageopacity="0"
     inkscape:pageshadow="2"
     inkscape:window-width="640"
     inkscape:window-height="515"
     id="namedview9"
     showgrid="false"
     inkscape:zoom="10.727273"
     inkscape:cx="11"
     inkscape:cy="11"
     inkscape:window-x="0"
     inkscape:window-y="28"
     inkscape:window-maximized="0"
     inkscape:current-layer="svg7" />
  <defs
     id="defs3">
    <style
       id="current-color-scheme"
       type="text/css">
   .ColorScheme-Text { color:#1e333d; } .ColorScheme-Highlight { color:#3fb7ff; }
  </style>
  </defs>
  <path
     style="fill:#1e333d;fill-opacity:1"
     class="ColorScheme-Text"
     d="M 10.810547,2.9805332 A 8,8 0 0 0 2.9999996,11.023502 8.0000004,8.0000004 0 0 0 19,11.023502 8,8 0 0 0 10.810547,2.9805332 Z M 11,4.97858 c 3.308423,0 6,2.6915772 6,6 0,3.308423 -2.691577,5.999999 -6,5.999999 -3.3084234,0 -6.0000004,-2.691576 -6.0000004,-5.999999 0,-3.3084228 2.691577,-6 6.0000004,-6 z m 0.400391,1 C 11.000391,5.97858 11,6.3965488 11,6.3965488 l 0,4.7890622 C 10.615498,11.049569 10.329477,10.97925 9.9003906,10.97858 c -1.546397,0 -2.900391,0.89543 -2.900391,1.999999 0,1.10457 1.453603,2 3,2 1.5463984,0 3.0000014,-0.89543 3.0000014,-2 l 0,-4.999999 c 0,0 2.26729,1.1586675 1.324218,2.023438 -0.259008,0.14857 -0.344328,0.378196 -0.298828,0.578125 0.06909,0.303608 0.439979,0.538683 0.953125,0.320312 C 15.749531,10.498466 16,9.7777987 16,9.1777988 16,7.3777988 13.000392,5.97858 11.400391,5.97858 Z"
     id="path5" />
</svg>
