<?xml version="1.0" encoding="UTF-8" standalone="no"?>
<svg
   xmlns:dc="http://purl.org/dc/elements/1.1/"
   xmlns:cc="http://creativecommons.org/ns#"
   xmlns:rdf="http://www.w3.org/1999/02/22-rdf-syntax-ns#"
   xmlns:svg="http://www.w3.org/2000/svg"
   xmlns="http://www.w3.org/2000/svg"
   xmlns:sodipodi="http://sodipodi.sourceforge.net/DTD/sodipodi-0.dtd"
   xmlns:inkscape="http://www.inkscape.org/namespaces/inkscape"
   width="22"
   height="22"
   version="1.1"
   id="svg9"
   sodipodi:docname="caps-lock-on.svg"
   inkscape:version="0.92.4 5da689c313, 2019-01-14">
  <metadata
     id="metadata13">
    <rdf:RDF>
      <cc:Work
         rdf:about="">
        <dc:format>image/svg+xml</dc:format>
        <dc:type
           rdf:resource="http://purl.org/dc/dcmitype/StillImage" />
      </cc:Work>
    </rdf:RDF>
  </metadata>
  <sodipodi:namedview
     pagecolor="#ffffff"
     bordercolor="#666666"
     borderopacity="1"
     objecttolerance="10"
     gridtolerance="10"
     guidetolerance="10"
     inkscape:pageopacity="0"
     inkscape:pageshadow="2"
     inkscape:window-width="640"
     inkscape:window-height="515"
     id="namedview11"
     showgrid="false"
     inkscape:zoom="10.727273"
     inkscape:cx="11"
     inkscape:cy="11"
     inkscape:window-x="0"
     inkscape:window-y="28"
     inkscape:window-maximized="0"
     inkscape:current-layer="g7" />
  <defs
     id="defs3">
    <style
       id="current-color-scheme"
       type="text/css">
   .ColorScheme-Text { color:#1e333d; } .ColorScheme-Highlight { color:#3fb7ff; }
  </style>
  </defs>
  <g
     id="g7">
    <path
       style="color:#1e333d;fill:#1e333d;fill-rule:evenodd;fill-opacity:1"
       class="ColorScheme-Text"
       d="m 3.0004243,16.203 v 0.547 c 0,1.212 1.0381,2.25 2.25,2.25 H 16.750424 c 1.212,0 2.25,-1.038 2.25,-2.25 v -0.547 c -0.532,0.485 -1.225,0.797 -2,0.797 H 5.0004243 c -0.7746,0 -1.4684,-0.312 -2,-0.797 z M 11.0796,6.2969 10,10.289 h 2.1796 z M 9.898824,5 h 2.3146 l 2.91,9 h -1.91 l -0.609,-2 H 9.5277243 l -0.6171,2 h -1.9102 z M 6.0004243,3 c -1.0193228,-1.709e-4 -1.8757271,0.7662125 -1.9883,1.7793 l -1,8.9997 c -0.1316098,1.184951 0.7960628,2.221193 1.9883,2.221 H 17.000424 c 1.192117,1.4e-5 2.119597,-1.036168 1.988,-2.221 l -1,-8.9997 C 17.875864,3.7663264 17.019632,2.999982 16.000424,3 Z"
       id="path5"
       inkscape:connector-curvature="0" />
  </g>
</svg>
