<?xml version="1.0" encoding="UTF-8" standalone="no"?>
<svg
   xmlns:dc="http://purl.org/dc/elements/1.1/"
   xmlns:cc="http://creativecommons.org/ns#"
   xmlns:rdf="http://www.w3.org/1999/02/22-rdf-syntax-ns#"
   xmlns:svg="http://www.w3.org/2000/svg"
   xmlns="http://www.w3.org/2000/svg"
   xmlns:sodipodi="http://sodipodi.sourceforge.net/DTD/sodipodi-0.dtd"
   xmlns:inkscape="http://www.inkscape.org/namespaces/inkscape"
   width="22"
   height="22"
   x="0"
   y="0"
   version="1.1"
   xml:space="preserve"
   id="svg9"
   sodipodi:docname="copy-sync4.svg"
   inkscape:version="0.92.4 5da689c313, 2019-01-14"><metadata
   id="metadata13"><rdf:RDF><cc:Work
       rdf:about=""><dc:format>image/svg+xml</dc:format><dc:type
         rdf:resource="http://purl.org/dc/dcmitype/StillImage" /></cc:Work></rdf:RDF></metadata><sodipodi:namedview
   pagecolor="#ffffff"
   bordercolor="#666666"
   borderopacity="1"
   objecttolerance="10"
   gridtolerance="10"
   guidetolerance="10"
   inkscape:pageopacity="0"
   inkscape:pageshadow="2"
   inkscape:window-width="640"
   inkscape:window-height="515"
   id="namedview11"
   showgrid="false"
   inkscape:zoom="10.727273"
   inkscape:cx="11"
   inkscape:cy="11"
   inkscape:window-x="0"
   inkscape:window-y="28"
   inkscape:window-maximized="0"
   inkscape:current-layer="svg9" />
 <defs
   id="defs3">
  <style
   id="current-color-scheme"
   type="text/css">
   .ColorScheme-Text { color:#1e333d; } .ColorScheme-Highlight { color:#3fb7ff; }
  </style>
 </defs>
 <path
   style="fill:#1e333d;fill-opacity:1"
   class="ColorScheme-Text"
   d="M 19.635,2.0254 14.018,8.8438 16,10 20,2.3516 Z M 5,6.5 1,10 5.375,9.375 6.3242,15 9.7109,15 6.5,7 Z M 12,9.0293 9,10 l 1,3 4,-3 z M 15,10.6 9.8555,15 18.199,15 17,12 Z M 3.836,16 c -0.4633,0 -0.8359,0.373 -0.8359,0.836 l 0,1.3281 c 0,0.463 0.3726,0.836 0.8359,0.836 l 7.164,0 0,-3 -7.164,0 z"
   id="path5" />
 <path
   style="opacity:0.4;fill:#1e333d;fill-opacity:1"
   class="ColorScheme-Text"
   d="M 3.8359,16 C 3.6042,16 3.3953,16.093 3.2441,16.244 3.3952,16.093 3.6043,16 3.8359,16 Z m 7.16405,0 0,3 7.16405,0 C 18.627,19 19,18.625 19,18.162 l 0,-1.3262 c 0,-0.463 -0.373,-0.836 -0.836,-0.836 l -7.16395,0 z"
   id="path7" />
</svg>