<?xml version="1.0" encoding="UTF-8" standalone="no"?>
<svg
   xmlns:dc="http://purl.org/dc/elements/1.1/"
   xmlns:cc="http://creativecommons.org/ns#"
   xmlns:rdf="http://www.w3.org/1999/02/22-rdf-syntax-ns#"
   xmlns:svg="http://www.w3.org/2000/svg"
   xmlns="http://www.w3.org/2000/svg"
   xmlns:sodipodi="http://sodipodi.sourceforge.net/DTD/sodipodi-0.dtd"
   xmlns:inkscape="http://www.inkscape.org/namespaces/inkscape"
   width="22"
   height="22"
   version="1.1"
   id="svg7"
   sodipodi:docname="cpu-frequency-indicator.svg"
   inkscape:version="0.92.4 5da689c313, 2019-01-14">
  <metadata
     id="metadata11">
    <rdf:RDF>
      <cc:Work
         rdf:about="">
        <dc:format>image/svg+xml</dc:format>
        <dc:type
           rdf:resource="http://purl.org/dc/dcmitype/StillImage" />
      </cc:Work>
    </rdf:RDF>
  </metadata>
  <sodipodi:namedview
     pagecolor="#ffffff"
     bordercolor="#666666"
     borderopacity="1"
     objecttolerance="10"
     gridtolerance="10"
     guidetolerance="10"
     inkscape:pageopacity="0"
     inkscape:pageshadow="2"
     inkscape:window-width="640"
     inkscape:window-height="515"
     id="namedview9"
     showgrid="false"
     inkscape:zoom="10.727273"
     inkscape:cx="11"
     inkscape:cy="11"
     inkscape:window-x="0"
     inkscape:window-y="28"
     inkscape:window-maximized="0"
     inkscape:current-layer="svg7" />
  <defs
     id="defs3">
    <style
       id="current-color-scheme"
       type="text/css">
   .ColorScheme-Text { color:#1e333d; } .ColorScheme-Highlight { color:#3fb7ff; }
  </style>
  </defs>
  <path
     style="fill:#1e333d;fill-opacity:1"
     class="ColorScheme-Text"
     d="m6.3482 3a0.25823 0.25823 0 0 0 -0.2542 0.2623v1.5674c-0.6493 0.1087-1.156 0.6154-1.2648 1.2647h-1.5674a0.25823 0.25823 0 1 0 0 0.5164h1.5411v2.582h-1.5411a0.25823 0.25823 0 1 0 0 0.5164h1.5411v2.582h-1.5411a0.25823 0.25823 0 1 0 0 0.5164h1.5411v2.582h-1.5411a0.25823 0.25823 0 1 0 0 0.5164h1.5674c0.10876 0.64926 0.61551 1.156 1.2648 1.2648v1.5674a0.25823 0.25823 0 1 0 0.5164 0v-1.5411h2.582v1.5411a0.25823 0.25823 0 1 0 0.5164 0v-1.5411h2.582v1.5411a0.25823 0.25823 0 1 0 0.5164 0v-1.5411h2.582v1.5411a0.25823 0.25823 0 1 0 0.5164 0v-1.5674c0.64926-0.10876 1.156-0.61551 1.2648-1.2648h1.5674a0.25823 0.25823 0 0 0 0.26223 -0.26223 0.25823 0.25823 0 0 0 -0.26223 -0.25417h-1.5411v-2.582h1.5411a0.25823 0.25823 0 0 0 0.26223 -0.26223 0.25823 0.25823 0 0 0 -0.26223 -0.25417h-1.5411v-2.582h1.5411a0.25823 0.25823 0 0 0 0.263 -0.262 0.25823 0.25823 0 0 0 -0.262 -0.2542h-1.5411v-2.582h1.5411a0.25823 0.25823 0 0 0 0.262 -0.2622 0.25823 0.25823 0 0 0 -0.262 -0.2542h-1.5674c-0.109-0.6493-0.616-1.156-1.265-1.2648v-1.5674a0.25823 0.25823 0 0 0 -0.263 -0.2622 0.25823 0.25823 0 0 0 -0.254 0.2623v1.5411h-2.582v-1.5411a0.25823 0.25823 0 0 0 -0.262 -0.2623 0.25823 0.25823 0 0 0 -0.254 0.2623v1.5411h-2.582v-1.5411a0.25823 0.25823 0 0 0 -0.2624 -0.2623 0.25823 0.25823 0 0 0 -0.2542 0.2623v1.5411h-2.582v-1.5411a0.25823 0.25823 0 0 0 -0.2622 -0.2623z"
     id="path5" />
</svg>
