<?xml version="1.0" encoding="UTF-8" standalone="no"?>
<svg
   xmlns:dc="http://purl.org/dc/elements/1.1/"
   xmlns:cc="http://creativecommons.org/ns#"
   xmlns:rdf="http://www.w3.org/1999/02/22-rdf-syntax-ns#"
   xmlns:svg="http://www.w3.org/2000/svg"
   xmlns="http://www.w3.org/2000/svg"
   xmlns:sodipodi="http://sodipodi.sourceforge.net/DTD/sodipodi-0.dtd"
   xmlns:inkscape="http://www.inkscape.org/namespaces/inkscape"
   width="22"
   height="22"
   version="1.1"
   id="svg7"
   sodipodi:docname="dino-status-chat.svg"
   inkscape:version="0.92.4 5da689c313, 2019-01-14">
  <metadata
     id="metadata11">
    <rdf:RDF>
      <cc:Work
         rdf:about="">
        <dc:format>image/svg+xml</dc:format>
        <dc:type
           rdf:resource="http://purl.org/dc/dcmitype/StillImage" />
      </cc:Work>
    </rdf:RDF>
  </metadata>
  <sodipodi:namedview
     pagecolor="#ffffff"
     bordercolor="#666666"
     borderopacity="1"
     objecttolerance="10"
     gridtolerance="10"
     guidetolerance="10"
     inkscape:pageopacity="0"
     inkscape:pageshadow="2"
     inkscape:window-width="640"
     inkscape:window-height="515"
     id="namedview9"
     showgrid="false"
     inkscape:zoom="10.727273"
     inkscape:cx="11"
     inkscape:cy="11"
     inkscape:window-x="0"
     inkscape:window-y="28"
     inkscape:window-maximized="0"
     inkscape:current-layer="svg7" />
  <defs
     id="defs3">
    <style
       id="current-color-scheme"
       type="text/css">
   .ColorScheme-Text { color:#1e333d; } .ColorScheme-Highlight { color:#3fb7ff; }
  </style>
  </defs>
  <path
     style="fill:#1e333d;fill-opacity:1"
     class="ColorScheme-Text"
     d="M 11 3 A 8 8 0 0 0 3 11 A 8 8 0 0 0 11 19 A 8 8 0 0 0 19 11 A 8 8 0 0 0 11 3 z M 8 7 A 2 2 0 0 1 10 9 A 2 2 0 0 1 8 11 A 2 2 0 0 1 6 9 A 2 2 0 0 1 8 7 z M 14 7 A 2 2 0 0 1 16 9 A 2 2 0 0 1 14 11 A 2 2 0 0 1 12 9 A 2 2 0 0 1 14 7 z M 6.9375 11.986328 A 1.0001 1.0001 0 0 1 7.0371094 11.986328 A 1.0001 1.0001 0 0 1 7.9902344 12.853516 C 7.9902344 12.853516 8.0654113 13.359517 8.46875 13.904297 C 8.8720887 14.449077 9.5021818 15 11 15 C 12.497818 15 13.127911 14.449077 13.53125 13.904297 C 13.934586 13.359516 14.009766 12.853516 14.009766 12.853516 A 1.00101 1.00101 0 1 1 15.990234 13.146484 C 15.990234 13.146484 15.845887 14.140484 15.138672 15.095703 C 14.431457 16.050923 13.059966 17 11 17 C 8.9400341 17 7.5685434 16.050923 6.8613281 15.095703 C 6.1541128 14.140483 6.0097656 13.146484 6.0097656 13.146484 A 1.0001 1.0001 0 0 1 6.9375 11.986328 z"
     id="path5" />
</svg>
