<?xml version="1.0" encoding="UTF-8" standalone="no"?>
<svg
   xmlns:dc="http://purl.org/dc/elements/1.1/"
   xmlns:cc="http://creativecommons.org/ns#"
   xmlns:rdf="http://www.w3.org/1999/02/22-rdf-syntax-ns#"
   xmlns:svg="http://www.w3.org/2000/svg"
   xmlns="http://www.w3.org/2000/svg"
   xmlns:sodipodi="http://sodipodi.sourceforge.net/DTD/sodipodi-0.dtd"
   xmlns:inkscape="http://www.inkscape.org/namespaces/inkscape"
   width="22"
   height="22"
   version="1.1"
   id="svg7"
   sodipodi:docname="dropboxstatus-x.svg"
   inkscape:version="0.92.4 5da689c313, 2019-01-14">
  <metadata
     id="metadata11">
    <rdf:RDF>
      <cc:Work
         rdf:about="">
        <dc:format>image/svg+xml</dc:format>
        <dc:type
           rdf:resource="http://purl.org/dc/dcmitype/StillImage" />
      </cc:Work>
    </rdf:RDF>
  </metadata>
  <sodipodi:namedview
     pagecolor="#ffffff"
     bordercolor="#666666"
     borderopacity="1"
     objecttolerance="10"
     gridtolerance="10"
     guidetolerance="10"
     inkscape:pageopacity="0"
     inkscape:pageshadow="2"
     inkscape:window-width="640"
     inkscape:window-height="515"
     id="namedview9"
     showgrid="false"
     inkscape:zoom="10.727273"
     inkscape:cx="11"
     inkscape:cy="11"
     inkscape:window-x="0"
     inkscape:window-y="28"
     inkscape:window-maximized="0"
     inkscape:current-layer="svg7" />
  <defs
     id="defs3">
    <style
       id="current-color-scheme"
       type="text/css">
   .ColorScheme-Text { color:#1e333d; } .ColorScheme-Highlight { color:#3fb7ff; }
  </style>
  </defs>
  <path
     style="fill:#1e333d;fill-opacity:1"
     class="ColorScheme-Text"
     d="m7 3-5 3 4 2.9844-4.0098 3.0076 5.0098 3.008 4-3-5-3 5-3 5 3.0156-5 2.9844 1.777 1.334c0.915-1.451 2.508-2.332 4.223-2.334 1.0745 0.003 2.1196 0.35112 2.9805 0.99414l0.0293-0.0176-4.01-2.97 4-3-5-3-4 2.9844-4-2.9844zm10 9c-2.2091 0-4 1.7909-4 4s1.7909 4 4 4 4-1.7909 4-4-1.7909-4-4-4zm-6 1-4 3-1-0.6v0.6l5 3 1.4766-0.88477c-0.312-0.66-0.475-1.39-0.477-2.12-0.000242-0.67105 0.1346-1.3353 0.39648-1.9531l-1.396-1.05zm4.3535 0.64648 1.6465 1.6465 1.6465-1.6465 0.70704 0.70704-1.6465 1.6465 1.6465 1.6465-0.70704 0.70704-1.643-1.66-1.6465 1.6465-0.70703-0.70704 1.6465-1.6465-1.6465-1.6465 0.70703-0.70704z"
     id="path5" />
</svg>
