<?xml version="1.0" encoding="UTF-8" standalone="no"?>
<svg
   xmlns:dc="http://purl.org/dc/elements/1.1/"
   xmlns:cc="http://creativecommons.org/ns#"
   xmlns:rdf="http://www.w3.org/1999/02/22-rdf-syntax-ns#"
   xmlns:svg="http://www.w3.org/2000/svg"
   xmlns="http://www.w3.org/2000/svg"
   xmlns:sodipodi="http://sodipodi.sourceforge.net/DTD/sodipodi-0.dtd"
   xmlns:inkscape="http://www.inkscape.org/namespaces/inkscape"
   width="22"
   height="22"
   version="1.1"
   id="svg9"
   sodipodi:docname="guake-indicator.svg"
   inkscape:version="0.92.4 5da689c313, 2019-01-14">
  <metadata
     id="metadata13">
    <rdf:RDF>
      <cc:Work
         rdf:about="">
        <dc:format>image/svg+xml</dc:format>
        <dc:type
           rdf:resource="http://purl.org/dc/dcmitype/StillImage" />
      </cc:Work>
    </rdf:RDF>
  </metadata>
  <sodipodi:namedview
     pagecolor="#ffffff"
     bordercolor="#666666"
     borderopacity="1"
     objecttolerance="10"
     gridtolerance="10"
     guidetolerance="10"
     inkscape:pageopacity="0"
     inkscape:pageshadow="2"
     inkscape:window-width="640"
     inkscape:window-height="515"
     id="namedview11"
     showgrid="false"
     inkscape:zoom="10.727273"
     inkscape:cx="11"
     inkscape:cy="11"
     inkscape:window-x="0"
     inkscape:window-y="28"
     inkscape:window-maximized="0"
     inkscape:current-layer="g7" />
  <defs
     id="defs3">
    <style
       id="current-color-scheme"
       type="text/css">
   .ColorScheme-Text { color:#1e333d; } .ColorScheme-Highlight { color:#3fb7ff; }
  </style>
  </defs>
  <g
     id="g7">
    <path
       style="color:#1e333d;fill:#1e333d;fill-opacity:1"
       class="ColorScheme-Text"
       d="M 4.9999771,3 C 3.8920055,3 3,3.8919964 3,4.9999771 V 17.000023 C 3,18.107994 3.8919964,19 4.9999771,19 H 17.000023 C 18.107994,19 19,18.108004 19,17.000023 V 4.9999771 C 19,3.8920055 18.108004,3 17.000023,3 Z M 8.9999313,4.9999771 V 5.9999656 H 11.999897 V 7.9999427 H 8.9999313 V 8.999931 H 9.99992 c 0.749996,0 1.439987,0.317001 1.873019,0.804996 0.432995,0.486996 0.626998,1.09798 0.626998,1.695003 0,0.596996 -0.194003,1.209996 -0.626998,1.69702 -0.432995,0.487995 -1.123005,0.802997 -1.873019,0.802997 H 8.9999313 v 0.999989 H 7.9999427 V 13.999947 H 4.9999771 V 11.99997 H 7.9999427 V 10.999982 H 6.9999542 c -0.749996,0 -1.4398039,-0.315003 -1.8730192,-0.802998 C 4.6936372,9.709988 4.499937,9.096988 4.499937,8.499964 4.499937,7.9027672 4.6936372,7.2920766 5.126935,6.8046864 5.560132,6.3172871 6.2499398,5.9999931 6.9999542,5.9999931 H 7.9999427 V 4.9999908 Z M 6.9999542,7.9999427 c -0.2500018,0 -0.3101991,0.0597 -0.3769964,0.1347954 -0.066696,0.0751 -0.1229979,0.2125009 -0.1229979,0.3651989 0,0.152799 0.056302,0.292104 0.1229979,0.367197 0.066797,0.0748 0.1269946,0.132797 0.3769964,0.132797 H 7.9999427 V 7.9999427 Z m 2.0000687,4.0000463 h 0.9999881 c 0.250002,0 0.309998,-0.058 0.376997,-0.132999 0.067,-0.075 0.122998,-0.214005 0.122998,-0.366996 0,-0.153 -0.056,-0.289995 -0.122998,-0.364997 -0.06692,-0.07517 -0.1265,-0.13475 -0.376749,-0.13475 l -1.0001124,-1.24e-4 z m 2.9999661,2.999965 h 4.999942 v 1.999977 h -4.999942 z"
       id="path5"
       inkscape:connector-curvature="0" />
  </g>
</svg>
