<svg xmlns="http://www.w3.org/2000/svg" width="22" height="22" version="1.1" id="svg9"><defs id="defs3"><style id="current-color-scheme" type="text/css"></style></defs><g transform="translate(-81 -887.36)" id="g7"><path d="M91.877 891.36a6.992 6.992 0 0 0-3.883 1.277 6.972 6.972 0 0 0-1.715 9.727 6.97 6.97 0 0 0 9.725 1.715 6.97 6.97 0 0 0 2.89-6.854 6.837 6.837 0 0 0-.527-1.7l-6.351 7.257-.688.812-.781-.75-3-3c-.376-.376-.376-1.06 0-1.437.376-.376 1.061-.376 1.437 0l2.25 2.25 6.024-6.893a6.942 6.942 0 0 0-5.381-2.404z" id="path5" color="#1e333d" fill="#1e333d" fill-opacity="1"/></g></svg>