<?xml version="1.0" encoding="UTF-8" standalone="no"?>
<svg
   xmlns:dc="http://purl.org/dc/elements/1.1/"
   xmlns:cc="http://creativecommons.org/ns#"
   xmlns:rdf="http://www.w3.org/1999/02/22-rdf-syntax-ns#"
   xmlns:svg="http://www.w3.org/2000/svg"
   xmlns="http://www.w3.org/2000/svg"
   xmlns:sodipodi="http://sodipodi.sourceforge.net/DTD/sodipodi-0.dtd"
   xmlns:inkscape="http://www.inkscape.org/namespaces/inkscape"
   width="22"
   height="22"
   version="1.1"
   id="svg7"
   sodipodi:docname="akonaditray.svg"
   inkscape:version="0.92.4 5da689c313, 2019-01-14">
  <metadata
     id="metadata11">
    <rdf:RDF>
      <cc:Work
         rdf:about="">
        <dc:format>image/svg+xml</dc:format>
        <dc:type
           rdf:resource="http://purl.org/dc/dcmitype/StillImage" />
      </cc:Work>
    </rdf:RDF>
  </metadata>
  <sodipodi:namedview
     pagecolor="#ffffff"
     bordercolor="#666666"
     borderopacity="1"
     objecttolerance="10"
     gridtolerance="10"
     guidetolerance="10"
     inkscape:pageopacity="0"
     inkscape:pageshadow="2"
     inkscape:window-width="640"
     inkscape:window-height="515"
     id="namedview9"
     showgrid="false"
     inkscape:zoom="10.727273"
     inkscape:cx="11"
     inkscape:cy="11"
     inkscape:window-x="424"
     inkscape:window-y="60"
     inkscape:window-maximized="0"
     inkscape:current-layer="svg7" />
  <defs
     id="defs3">
    <style
       id="current-color-scheme"
       type="text/css">
   .ColorScheme-Text { color:#1e333d; } .ColorScheme-Highlight { color:#3fb7ff; }
  </style>
  </defs>
  <path
     style="fill:#1e333d;fill-opacity:1"
     class="ColorScheme-Text"
     d="M 8.0019529,3.0000193 C 5.7950539,4.2739269 4.4304899,6.4317717 4.0898439,8.763691 4.3312289,8.649166 4.5805059,8.546849 4.8359379,8.464863 5.9378889,8.111167 7.1671309,8.005137 8.4531249,8.000019 10.233741,7.992919 12.135218,8.22502 13.919922,8.566426 12.530826,5.5682536 10.524073,2.9883676 8.0019529,3.0000193 Z m 4.2402351,1.1171875 c 1.042747,1.1188808 1.891926,2.5313686 2.585937,4.0292972 l 0.318359,0.6875 C 16.1095,9.053555 17.033238,9.290269 17.837891,9.542988 17.245192,6.7671796 15.034948,4.6240531 12.242188,4.1172068 Z M 8.4570309,9.000019 C 5.9988959,9.009819 3.892313,9.437993 3,11.00002 c 0,4.418 3.5816999,8 8,8 4.418,0 8,-3.582 8,-8 C 16.659086,10.084629 12.159712,8.985284 8.4570309,9.000019 Z"
     id="path5" />
</svg>
