<svg xmlns="http://www.w3.org/2000/svg" width="22" height="22" version="1.1" id="svg9"><defs id="defs3"><style id="current-color-scheme" type="text/css"></style></defs><g transform="translate(-201 -647.36)" id="g7"><path d="M212 650.36c-1.662 0-3 1.338-3 3v5c0 1.662 1.338 3 3 3s3-1.338 3-3v-5c0-1.662-1.338-3-3-3zm0 2c.554 0 1 .446 1 1v5c0 .554-.446 1-1 1s-1-.446-1-1v-5c0-.554.446-1 1-1zm-6 5v1a5.992 5.992 0 0 0 5 5.906v2.094h2v-2.094a5.992 5.992 0 0 0 5-5.906v-1h-2v1c0 2.233-1.767 4-4 4a3.97 3.97 0 0 1-4-4v-1z" id="path5" color="#1e333d" opacity=".3" fill="#1e333d" fill-opacity="1"/></g></svg>