<?xml version="1.0" encoding="UTF-8" standalone="no"?>
<svg
   xmlns:dc="http://purl.org/dc/elements/1.1/"
   xmlns:cc="http://creativecommons.org/ns#"
   xmlns:rdf="http://www.w3.org/1999/02/22-rdf-syntax-ns#"
   xmlns:svg="http://www.w3.org/2000/svg"
   xmlns="http://www.w3.org/2000/svg"
   xmlns:sodipodi="http://sodipodi.sourceforge.net/DTD/sodipodi-0.dtd"
   xmlns:inkscape="http://www.inkscape.org/namespaces/inkscape"
   width="22"
   height="22"
   version="1.1"
   id="svg9"
   sodipodi:docname="autokey-status.svg"
   inkscape:version="0.92.4 5da689c313, 2019-01-14">
  <metadata
     id="metadata13">
    <rdf:RDF>
      <cc:Work
         rdf:about="">
        <dc:format>image/svg+xml</dc:format>
        <dc:type
           rdf:resource="http://purl.org/dc/dcmitype/StillImage" />
      </cc:Work>
    </rdf:RDF>
  </metadata>
  <sodipodi:namedview
     pagecolor="#ffffff"
     bordercolor="#666666"
     borderopacity="1"
     objecttolerance="10"
     gridtolerance="10"
     guidetolerance="10"
     inkscape:pageopacity="0"
     inkscape:pageshadow="2"
     inkscape:window-width="640"
     inkscape:window-height="515"
     id="namedview11"
     showgrid="false"
     inkscape:zoom="10.727273"
     inkscape:cx="11"
     inkscape:cy="11"
     inkscape:window-x="0"
     inkscape:window-y="28"
     inkscape:window-maximized="0"
     inkscape:current-layer="g7" />
  <defs
     id="defs3">
    <style
       id="current-color-scheme"
       type="text/css">
   .ColorScheme-Text { color:#1e333d; } .ColorScheme-Highlight { color:#3fb7ff; }
  </style>
  </defs>
  <g
     id="g7">
    <path
       style="color:#1e333d;fill:#1e333d;fill-opacity:1"
       class="ColorScheme-Text"
       d="m 2.9995243,16.203 v 0.547 c 0,1.212 1.0381,2.25 2.25,2.25 H 16.749524 c 1.212,0 2.25,-1.038 2.25,-2.25 v -0.547 c -0.532,0.485 -1.225,0.797 -2,0.797 H 4.9995243 c -0.7746,0 -1.4684,-0.312 -2,-0.797 z m 3,-13.203 a 2.0002,2.0002 0 0 0 -1.9883,1.7793 l -1,8.9997 A 2.0002,2.0002 0 0 0 4.9995243,16 H 16.999524 a 2.0002,2.0002 0 0 0 1.988,-2.221 l -1,-8.9997 A 2.0002,2.0002 0 0 0 15.999524,3 Z m 4.9859997,2 a 0.50005,0.50005 0 0 1 0.496,0.3477 l 0.87,2.7148 h 2.851 a 0.50005,0.50005 0 0 1 0.293,0.9063 l -2.314,1.6662 0.88,2.711 a 0.50005,0.50005 0 0 1 -0.769,0.556 l -2.301,-1.683 -2.3044997,1.676 a 0.50005,0.50005 0 0 1 -0.7695,-0.563 l 0.8906,-2.707 -2.3047,-1.6758 a 0.50005,0.50005 0 0 1 0.2949,-0.9043 l 2.8512,0.0137 0.8809997,-2.7129 A 0.50005,0.50005 0 0 1 10.985524,5 Z"
       id="path5"
       inkscape:connector-curvature="0" />
  </g>
</svg>
