<svg xmlns="http://www.w3.org/2000/svg" width="22" height="22" version="1.1" id="svg9"><defs id="defs3"><style id="current-color-scheme" type="text/css"></style></defs><g transform="translate(-57 -791.34)" id="g7"><path d="M68.5 794.36c-3.047 0-5.5 2.676-5.5 6v4c0 3.324 2.453 6 5.5 6s5.5-2.676 5.5-6v-4c0-3.324-2.453-6-5.5-6zm-.5 2h.5c.208 0 .393.133.469.313l2.875 2.843.406.375-.438.344-2.562 2.125 2.563 2.125.437.344-.406.375-2.875 2.844c-.025.06-.08.11-.125.156a.484.484 0 0 1-.344.156H68v-4.937l-2.156 1.78a.485.485 0 0 1-.344.157H65v-.5c0-.153.08-.283.188-.375l2.562-2.125-2.437-2.031c-.047-.02-.087-.062-.125-.094a.494.494 0 0 1-.188-.375v-.5h.5c.123 0 .225.052.313.125l.03.031L68 801.298v-4.938zm1 1.688v3.25l1.781-1.47zm0 5.375v3.25l1.781-1.782z" id="path5" color="#1e333d" opacity=".3" fill="#1e333d" fill-opacity="1"/></g></svg>