<?xml version="1.0" encoding="UTF-8" standalone="no"?>
<svg
   xmlns:dc="http://purl.org/dc/elements/1.1/"
   xmlns:cc="http://creativecommons.org/ns#"
   xmlns:rdf="http://www.w3.org/1999/02/22-rdf-syntax-ns#"
   xmlns:svg="http://www.w3.org/2000/svg"
   xmlns="http://www.w3.org/2000/svg"
   xmlns:sodipodi="http://sodipodi.sourceforge.net/DTD/sodipodi-0.dtd"
   xmlns:inkscape="http://www.inkscape.org/namespaces/inkscape"
   width="22"
   height="22"
   version="1.1"
   id="svg9"
   sodipodi:docname="bluetooth-paired.svg"
   inkscape:version="0.92.4 5da689c313, 2019-01-14">
  <metadata
     id="metadata13">
    <rdf:RDF>
      <cc:Work
         rdf:about="">
        <dc:format>image/svg+xml</dc:format>
        <dc:type
           rdf:resource="http://purl.org/dc/dcmitype/StillImage" />
      </cc:Work>
    </rdf:RDF>
  </metadata>
  <sodipodi:namedview
     pagecolor="#ffffff"
     bordercolor="#666666"
     borderopacity="1"
     objecttolerance="10"
     gridtolerance="10"
     guidetolerance="10"
     inkscape:pageopacity="0"
     inkscape:pageshadow="2"
     inkscape:window-width="640"
     inkscape:window-height="515"
     id="namedview11"
     showgrid="false"
     inkscape:zoom="10.727273"
     inkscape:cx="11"
     inkscape:cy="11"
     inkscape:window-x="0"
     inkscape:window-y="28"
     inkscape:window-maximized="0"
     inkscape:current-layer="g7" />
  <defs
     id="defs3">
    <style
       id="current-color-scheme"
       type="text/css">
   .ColorScheme-Text { color:#1e333d; } .ColorScheme-Highlight { color:#3fb7ff; }
  </style>
  </defs>
  <g
     transform="translate(-81,-791.34)"
     id="g7">
    <path
       style="color:#1e333d;fill:#1e333d;fill-opacity:1"
       class="ColorScheme-Text"
       d="m 92.5,794.36 c -3.047,0 -5.5,2.676 -5.5,6 v 4 c 0,3.324 2.453,6 5.5,6 0.16869,0 0.33527,-0.0113 0.5,-0.0273 v -2.3164 l -0.03125,0.0312 c -0.0252,0.0599 -0.0798,0.11106 -0.125,0.15625 C 92.75335,808.29415 92.6385,808.36 92.5,808.36 H 92 v -4.9375 l -2.1562,1.7812 c -0.0905,0.0905 -0.20568,0.15625 -0.34375,0.15625 h -0.5 v -0.5 c 0,-0.15322 0.079,-0.28328 0.1875,-0.375 l 2.5625,-2.125 -2.4375,-2.0312 c -0.0467,-0.0197 -0.0868,-0.0616 -0.125,-0.0937 -0.109,-0.08 -0.188,-0.21 -0.188,-0.37 v -0.5 h 0.5 c 0.12292,0 0.22543,0.0514 0.3125,0.125 0.0107,0.009 0.02135,0.0213 0.03125,0.0312 l 2.1562,1.7813 v -4.9375 h 0.5 c 0.20775,0 0.39305,0.13292 0.46875,0.3125 l 2.875,2.8438 0.40625,0.375 -0.4375,0.34375 -2.5625,2.125 1.4121,1.1719 c 0.54576,-0.70619 1.3833,-1.1738 2.3379,-1.1738 0.35278,0 0.68653,0.0726 1,0.1875 v -2.1856 c 0,-3.324 -2.453,-6 -5.5,-6 z m 0.5,3.6875 v 3.25 l 1.7812,-1.4688 -1.781,-1.78 z m 4,5.3106 c -1.108,0 -2,0.91085 -2,2.0312 v 0.96875 h -1 v 4 h 6 v -4 h -1 v -0.96875 c 0,-1.1199 -0.892,-2.0312 -2,-2.0312 z m -4,0.0645 v 1.9356 h 1.0137 c 0.004,-0.33317 0.0738,-0.65164 0.17773,-0.95312 l -1.192,-0.98 z m 4,0.9355 c 0.554,0 1,0.4424 1,1 v 1 h -2 v -1 c 0,-0.5576 0.446,-1 1,-1 z"
       id="path5"
       inkscape:connector-curvature="0" />
  </g>
</svg>
