<svg xmlns="http://www.w3.org/2000/svg" width="22" height="22" version="1.1" id="svg11"><defs id="defs3"><style id="current-color-scheme" type="text/css">.ColorScheme-Text{color:#1e333d}</style></defs><path class="ColorScheme-Text" d="M11.031 5C7.997 5 5.265 6.271 3 8.016L11.031 17 12 15.906V14h1.014c.02-1.635 1.342-3 2.986-3 .108 0 .21.022.314.033L19 8c-2.257-1.725-4.958-3-7.969-3z" id="path5" opacity=".3" fill="#1e333d" fill-opacity="1"/><path class="ColorScheme-Text" d="M11 12c-2 0-3.55 1-3.55 1L11 17c.255-.301.653-.743 1-1.137V14h1.014a3.038 3.038 0 0 1 .441-1.525A6.946 6.946 0 0 0 11 12z" id="path7" fill="#1e333d" fill-opacity="1"/><path class="ColorScheme-Text" d="M16 12c-1.108 0-2 .91-2 2.031V15h-1v4h6v-4h-1v-.969c0-1.12-.892-2.031-2-2.031zm0 1c.554 0 1 .442 1 1v1h-2v-1c0-.558.446-1 1-1z" id="path9" fill="#1e333d" fill-opacity="1"/></svg>