<?xml version="1.0" encoding="UTF-8" standalone="no"?>
<svg
   xmlns:dc="http://purl.org/dc/elements/1.1/"
   xmlns:cc="http://creativecommons.org/ns#"
   xmlns:rdf="http://www.w3.org/1999/02/22-rdf-syntax-ns#"
   xmlns:svg="http://www.w3.org/2000/svg"
   xmlns="http://www.w3.org/2000/svg"
   xmlns:sodipodi="http://sodipodi.sourceforge.net/DTD/sodipodi-0.dtd"
   xmlns:inkscape="http://www.inkscape.org/namespaces/inkscape"
   width="22"
   height="22"
   version="1.1"
   id="svg11"
   sodipodi:docname="both-low-signal-lock.svg"
   inkscape:version="0.92.4 5da689c313, 2019-01-14">
  <metadata
     id="metadata15">
    <rdf:RDF>
      <cc:Work
         rdf:about="">
        <dc:format>image/svg+xml</dc:format>
        <dc:type
           rdf:resource="http://purl.org/dc/dcmitype/StillImage" />
      </cc:Work>
    </rdf:RDF>
  </metadata>
  <sodipodi:namedview
     pagecolor="#ffffff"
     bordercolor="#666666"
     borderopacity="1"
     objecttolerance="10"
     gridtolerance="10"
     guidetolerance="10"
     inkscape:pageopacity="0"
     inkscape:pageshadow="2"
     inkscape:window-width="640"
     inkscape:window-height="515"
     id="namedview13"
     showgrid="false"
     inkscape:zoom="10.727273"
     inkscape:cx="11"
     inkscape:cy="11"
     inkscape:window-x="0"
     inkscape:window-y="28"
     inkscape:window-maximized="0"
     inkscape:current-layer="svg11" />
  <defs
     id="defs3">
    <style
       id="current-color-scheme"
       type="text/css">
   .ColorScheme-Text { color:#1e333d; } .ColorScheme-Highlight { color:#3fb7ff; }
  </style>
  </defs>
  <path
     style="opacity:0.3;fill:#1e333d;fill-opacity:1"
     class="ColorScheme-Text"
     d="M 11.029297 5 L 11.03125 5.0019531 C 7.9968499 5.0019531 5.2653 6.27132 3 8.015625 L 11.03125 17 L 12 15.904297 L 12 14 L 13.013672 14 C 13.03332 12.365273 14.356097 11 16 11 C 16.105061 11 16.204459 11.020383 16.306641 11.03125 L 19 7.984375 C 16.742 6.2628155 14.040297 5 11.029297 5 z"
     id="path5" />
  <path
     style="fill:#1e333d;fill-opacity:1"
     class="ColorScheme-Text"
     d="M 11 10 C 8 10 6.0996094 11.5 6.0996094 11.5 L 11 17 L 12 15.876953 L 12 14 L 13.013672 14 C 13.030229 12.622427 13.976169 11.446536 15.255859 11.107422 C 14.477605 10.663115 13.020272 10 11 10 z"
     id="path7" />
  <path
     style="fill:#1e333d;fill-opacity:1"
     class="ColorScheme-Text"
     d="m 16,12 c -1.108,0 -2,0.911 -2,2.031 l 0,0.969 -1,0 0,4 6,0 0,-4 -1,0 0,-0.969 C 18,12.911 17.108,12 16,12 Z m 0,1 c 0.554,0 1,0.442 1,1 l 0,1 -2,0 0,-1 c 0,-0.558 0.446,-1 1,-1 z"
     id="path9" />
</svg>
