<svg xmlns="http://www.w3.org/2000/svg" width="22" height="22" version="1.1" id="svg7"><defs id="defs3"><style id="current-color-scheme" type="text/css"></style></defs><path d="M10.81 2.98A8 8 0 0 0 3 11.025a8 8 0 0 0 16 0 8 8 0 0 0-8.19-8.043zM11 4.98c3.308 0 6 2.691 6 6 0 3.308-2.692 6-6 6s-6-2.692-6-6c0-3.309 2.692-6 6-6zm.4 1c-.4 0-.4.418-.4.418v4.789c-.385-.136-.67-.207-1.1-.207-1.546 0-2.9.895-2.9 2 0 1.104 1.454 2 3 2s3-.896 3-2v-5s2.267 1.158 1.324 2.023c-.259.149-.344.378-.299.578.07.304.44.539.954.32.77-.402 1.021-1.122 1.021-1.722 0-1.8-3-3.2-4.6-3.2z" id="path5" fill="#1e333d" fill-opacity="1" color="#1e333d"/></svg>