<svg xmlns="http://www.w3.org/2000/svg" width="22" height="22" version="1.1" id="svg9"><defs id="defs3"><style id="current-color-scheme" type="text/css"></style></defs><g transform="translate(-265 419)" id="g7"><path d="M5.637 3.637a9 9 0 0 0 0 12.726 9 9 0 0 0 12.726 0l-1.414-1.414a7 7 0 0 1-9.899 0 7 7 0 0 1 0-9.898L5.636 3.636zM7.74 5.81a6 6 0 0 0-1.394 3.37h4.765zm-1.402 4.371a6 6 0 0 0 1.402 3.371l3.371-3.371zm5.48.707l-3.37 3.371a6 6 0 0 0 3.37 1.394zm1 0v4.773a6 6 0 0 0 3.371-1.402z" transform="translate(265 -419)" id="path5" color="#1e333d" fill="#1e333d" fill-opacity="1"/></g></svg>