<svg xmlns="http://www.w3.org/2000/svg" width="22" height="22" x="0" y="0" version="1.1" xml:space="preserve" id="svg11"><defs id="defs3"><style id="current-color-scheme" type="text/css">.ColorScheme-Text{color:#1e333d}</style></defs><g transform="translate(-1 -1)" id="g9"><path class="ColorScheme-Text" d="M19.635 2.025l-5.617 6.817L16 9.998l4-7.646zM5 6.5L1 10l4.375-.625L7 19l3.393-2.301.607.178v-2.856l-1.252 1.071L6.5 7zm7 2.53L9 10l1 3 1-.75V12h.334L14 10zm3 1.57L13.363 12H17z" transform="translate(1 1)" id="path5" color="#1e333d" opacity=".3" fill="#1e333d" fill-opacity="1"/><path class="ColorScheme-Text" d="M13 14v6h3v-6zm4 0v6h3v-6z" id="path7" color="#1e333d" clip-rule="evenodd" fill="#1e333d" fill-rule="evenodd" fill-opacity="1"/></g></svg>