<svg xmlns="http://www.w3.org/2000/svg" width="22" height="22" version="1.1" id="svg9"><defs id="defs3"><style id="current-color-scheme" type="text/css"></style></defs><g id="g7"><path d="M13.5 3A5.5 5.5 0 0 0 8 8.5a5.5 5.5 0 0 0 5.5 5.5A5.5 5.5 0 0 0 19 8.5 5.5 5.5 0 0 0 13.5 3zm.322 2.473a2.5 2 45 0 1 1.856.85 2.5 2 45 0 1 .353 3.18 2.5 2 45 0 1-3.181-.353 2.5 2 45 0 1-.354-3.181 2.5 2 45 0 1 1.326-.496zM7.266 10.32l-3.973 3.973A1 1 0 0 0 3 15v3a1 1 0 0 0 1 1h3a1 1 0 0 0 1-1v-2h2a1 1 0 0 0 1-1v-.504a6.521 6.521 0 0 1-2.059-1.375l-3.41 3.41a.75.75 0 0 1-1.062-1.06l3.529-3.53a6.457 6.457 0 0 1-.732-1.621z" id="path5" color="#1e333d" fill="#1e333d" fill-opacity="1"/></g></svg>