<svg xmlns="http://www.w3.org/2000/svg" width="22" height="22" version="1.1" id="svg11"><defs id="defs3"><style id="current-color-scheme" type="text/css">.ColorScheme-Text{color:#1e333d}</style></defs><path class="ColorScheme-Text" d="M11 3a8 8 0 1 0 8 8h-2a6 6 0 0 1-6 6 6 6 0 0 1-6-6 6 6 0 0 1 6-6V3zm0 3a5 5 0 0 0-5 5 5 5 0 0 0 5 5 5 5 0 0 0 5-5h-2a3 3 0 0 1-3 3 3 3 0 0 1-3-3 3 3 0 0 1 3-3V6z" id="path5" fill="#1e333d" opacity=".3" fill-opacity="1"/><path class="ColorScheme-Text" d="M11 3v2a6 6 0 0 1 6 6h2a8 8 0 0 0-8-8zm0 3v2a3 3 0 0 1 3 3h2a5 5 0 0 0-5-5z" id="path7" opacity="1" fill="#1e333d" fill-opacity="1"/><circle class="ColorScheme-Text" cx="11" cy="11" r="2" id="circle9" fill="#1e333d" opacity="1" fill-opacity="1"/></svg>