<svg xmlns="http://www.w3.org/2000/svg" width="22" height="22" version="1" id="svg9"><defs id="defs3"><style id="current-color-scheme" type="text/css"></style></defs><g transform="matrix(.0462 0 0 .04537 2.852 2.999)" id="g7"><path d="M10.924 3.012l-6.77 1.986c-.092.032-.154.474-.154.57 0 2.373.64 5.117 1.754 7.526.904 1.954 2.53 4.56 5.141 5.881A.242.242 0 0 0 11 19a.242.242 0 0 0 .105-.025c2.611-1.321 4.237-3.927 5.141-5.881C17.361 10.685 18 7.94 18 5.568c0-.096-.062-.538-.154-.57l-6.77-1.986a.23.23 0 0 0-.152 0zm.031 2.996c.028-.01.06-.01.088 0l3.869 1.318a.126.126 0 0 1 .088.12c0 1.333-.365 2.877-1.002 4.232-.517 1.099-1.446 2.565-2.937 3.308A.13.13 0 0 1 11 15a.13.13 0 0 1-.061-.014c-1.491-.742-2.42-2.209-2.937-3.308C7.365 10.323 7 8.78 7 7.445c0-.054.035-.1.088-.119zM10 7v4h2V7zm0 5v2h2v-2z" transform="matrix(21.642 0 0 22.039 -61.732 -66.091)" id="path5" color="#3fb7ff" fill="#3fb7ff" fill-opacity="1"/></g></svg>