<svg xmlns="http://www.w3.org/2000/svg" width="22" height="22" version="1" id="svg9"><defs id="defs3"><style id="current-color-scheme" type="text/css"></style></defs><g transform="matrix(.0462 0 0 .04537 2.852 2.999)" id="g7"><path d="M7.924.014L1.154 2c-.092.032-.154.474-.154.57 0 2.372.64 5.115 1.754 7.524.904 1.954 2.53 4.56 5.14 5.881.034.016.07.025.106.025a.244.244 0 0 0 .105-.025c2.611-1.321 4.237-3.927 5.141-5.881C14.361 7.684 15 4.942 15 2.57c0-.096-.062-.538-.154-.57L8.076.014a.23.23 0 0 0-.152 0zm.031 2.994c.028-.01.06-.01.088 0l3.869 1.318a.126.126 0 0 1 .088.12c0 1.333-.365 2.877-1.002 4.232-.517 1.099-1.446 2.565-2.937 3.308A.128.128 0 0 1 8 12a.128.128 0 0 1-.06-.014c-1.492-.742-2.421-2.209-2.938-3.308C4.365 7.323 4 5.78 4 4.445c0-.054.035-.1.088-.119l3.867-1.318z" transform="matrix(21.642 0 0 22.04 3.195 0)" id="path5" color="#1e333d" fill="#1e333d" fill-opacity="1"/></g></svg>