<svg xmlns="http://www.w3.org/2000/svg" width="22" height="22" version="1.1" id="svg7"><defs id="defs3"><style id="current-color-scheme" type="text/css"></style></defs><g id="g880" transform="matrix(.73978 0 0 .73978 33.782 12.969)" fill="#1e333d" fill-opacity="1" stroke="none" stroke-opacity="1"><path id="path869" d="M-35.494-10.76c-.085 1.291-.275 2.37-.53 3.293a11.899 11.899 0 0 1-.917 2.348c-.687 1.32-1.469 2.223-2.016 3.13-.274.454-.488.91-.604 1.419-.115.51-.133 1.072-.01 1.744.125.671.389 1.451.835 2.39.445.94.94 1.923 1.79 3.237-.031-1.17.121-1.988.284-2.783.164-.794.47-1.448.748-1.99.555-1.086 1.26-1.79 1.795-2.606a4.7 4.7 0 0 0 .637-1.37c.142-.525.202-1.141.14-1.907-.061-.767-.244-1.685-.59-2.815-.345-1.13-.853-2.473-1.562-4.09z"/><path id="path872" d="M-28.105-12.238c-.38 1.335-.867 2.43-1.422 3.35a11.416 11.416 0 0 1-1.825 2.292c-.74.722-1.099.944-1.844 1.475 1.03 6.162-3.436 4.853-3.618 12.037.543-1.28 1.157-2.292 1.804-3.113A10.987 10.987 0 0 1-33 1.832C-31.636.795-30.27.208-29.178-.555c.546-.381 1.024-.806 1.399-1.353.375-.547.646-1.217.781-2.086.135-.87.134-1.94-.04-3.287-.172-1.348-.517-2.974-1.067-4.957z"/><path id="path875" d="M-36.628 6.916c.415.014 0 .004 0 .006 1.03-1.06 2-1.825 2.914-2.387.913-.561 1.772-.92 2.581-1.166 1.618-.49 3.041-.533 4.317-.86.638-.162 1.24-.396 1.811-.792.572-.397 1.112-.956 1.63-1.77.517-.813 1.01-1.881 1.487-3.295.476-1.413.935-3.172 1.382-5.369A15.547 15.547 0 0 1-23.4-6.24a14.451 14.451 0 0 1-2.79 1.416c-.27.103-.054.049-.318.136-.445 6.091-6.632 3.978-10.12 11.604z" stroke-width=".994"/></g></svg>