<svg xmlns="http://www.w3.org/2000/svg" width="22" height="22" version="1.1" id="svg9"><defs id="defs3"><style id="current-color-scheme" type="text/css"></style></defs><g transform="translate(-473 -909.27)" id="g7"><path d="M492.22 912.4a.502.502 0 0 0-.188.156l-.5.5-.156-.156-6 6 .157.156-.5.5-.032.719.72-.031.5-.5.155.156 6-6-.156-.156.5-.5c.293-.299-.025-.911-.437-.844a.651.651 0 0 0-.063 0zM478 914.27c-.554 0-1 .446-1 1v9c0 .554.446 1 1 1h12c.554 0 1-.446 1-1v-7.563l-3.906 3.907-.719.687-.156-.156-.063.062-.406.032-.719.03-1.062.032.031-1.062.031-.72.031-.405.063-.063-.156-.156.687-.719 3.906-3.906H478zm-1 11v1c0 .554.446 1 1 1h12c.554 0 1-.446 1-1v-1c0 .554-.446 1-1 1h-12c-.554 0-1-.446-1-1z" id="path5" color="#1e333d" fill="#1e333d" fill-opacity="1"/></g></svg>