<?xml version="1.0" encoding="UTF-8" standalone="no"?>
<svg
   xmlns:dc="http://purl.org/dc/elements/1.1/"
   xmlns:cc="http://creativecommons.org/ns#"
   xmlns:rdf="http://www.w3.org/1999/02/22-rdf-syntax-ns#"
   xmlns:svg="http://www.w3.org/2000/svg"
   xmlns="http://www.w3.org/2000/svg"
   xmlns:sodipodi="http://sodipodi.sourceforge.net/DTD/sodipodi-0.dtd"
   xmlns:inkscape="http://www.inkscape.org/namespaces/inkscape"
   width="22"
   height="22"
   version="1.1"
   id="svg11"
   sodipodi:docname="good-signal-lock.svg"
   inkscape:version="0.92.4 5da689c313, 2019-01-14">
  <metadata
     id="metadata15">
    <rdf:RDF>
      <cc:Work
         rdf:about="">
        <dc:format>image/svg+xml</dc:format>
        <dc:type
           rdf:resource="http://purl.org/dc/dcmitype/StillImage" />
      </cc:Work>
    </rdf:RDF>
  </metadata>
  <sodipodi:namedview
     pagecolor="#ffffff"
     bordercolor="#666666"
     borderopacity="1"
     objecttolerance="10"
     gridtolerance="10"
     guidetolerance="10"
     inkscape:pageopacity="0"
     inkscape:pageshadow="2"
     inkscape:window-width="640"
     inkscape:window-height="515"
     id="namedview13"
     showgrid="false"
     inkscape:zoom="10.727273"
     inkscape:cx="11"
     inkscape:cy="11"
     inkscape:window-x="0"
     inkscape:window-y="28"
     inkscape:window-maximized="0"
     inkscape:current-layer="svg11" />
  <defs
     id="defs3">
    <style
       id="current-color-scheme"
       type="text/css">
   .ColorScheme-Text { color:#1e333d; } .ColorScheme-Highlight { color:#3fb7ff; }
  </style>
  </defs>
  <path
     style="fill:#1e333d;fill-opacity:1"
     class="ColorScheme-Text"
     d="m 16,12.00005 c -1.108,0 -2,0.91085 -2,2.0312 L 14,15 l -1,0 0,4 6,0 0,-4 -1,0 0,-0.96875 c 0,-1.1199 -0.892,-2.0312 -2,-2.0312 z m 0,1 c 0.554,0 1,0.4424 1,1 l 0,1 -2,0 0,-1 c 0,-0.5576 0.446,-1 1,-1 z"
     id="path5" />
  <path
     style="opacity:0.3;fill:#1e333d;fill-opacity:1"
     class="ColorScheme-Text"
     d="M 11.029297 5 L 11.03125 5.0019531 C 7.99685 5.0019531 5.2653 6.2718052 3 8.015625 L 11.03125 16.996094 L 12 15.900391 L 12 14 L 13.013672 14 C 13.033322 12.365093 14.356187 11 16 11 C 16.104411 11 16.203121 11.020518 16.304688 11.03125 L 19 7.984375 C 16.742 6.2632943 14.040297 5 11.029297 5 z"
     id="path7" />
  <path
     style="fill:#1e333d;fill-opacity:1"
     class="ColorScheme-Text"
     d="M 11.03125 7.9980469 C 8.78845 7.9980469 6.4751812 8.7110461 4.8007812 10 L 11.03125 17 L 12 15.900391 L 12 14 L 13.013672 14 C 13.033322 12.365093 14.356187 11 16 11 C 16.099775 11 16.193828 11.021438 16.291016 11.03125 L 17.199219 10 C 15.532219 8.7274433 13.259203 8.0019531 11.033203 8.0019531 L 11.03125 7.9980469 z"
     id="path9" />
</svg>
