<svg xmlns="http://www.w3.org/2000/svg" width="22" height="22" version="1.1" id="svg11"><defs id="defs3"><style id="current-color-scheme" type="text/css">.ColorScheme-Text{color:#1e333d}</style></defs><path class="ColorScheme-Text" d="M16 12c-1.108 0-2 .91-2 2.031V15h-1v4h6v-4h-1v-.969c0-1.12-.892-2.031-2-2.031zm0 1c.554 0 1 .442 1 1v1h-2v-1c0-.558.446-1 1-1z" id="path5" fill="#1e333d" fill-opacity="1"/><path class="ColorScheme-Text" d="M11.03 5l.001.002c-3.034 0-5.766 1.27-8.031 3.014l8.031 8.98L12 15.9V14h1.014c.02-1.635 1.342-3 2.986-3 .104 0 .203.02.305.031L19 7.984C16.742 6.264 14.04 5 11.03 5z" id="path7" opacity=".3" fill="#1e333d" fill-opacity="1"/><path class="ColorScheme-Text" d="M11.031 7.998c-2.243 0-4.556.713-6.23 2.002l6.23 7L12 15.9V14h1.014c.02-1.635 1.342-3 2.986-3 .1 0 .194.021.291.031L17.199 10c-1.667-1.273-3.94-1.998-6.166-1.998l-.002-.004z" id="path9" fill="#1e333d" fill-opacity="1"/></svg>