<svg xmlns="http://www.w3.org/2000/svg" width="22" height="22" version="1.1" id="svg13"><defs id="defs3"><style id="current-color-scheme" type="text/css">.ColorScheme-Text{color:#1e333d}</style></defs><g transform="translate(-105 -719.36)" id="g11"><path class="ColorScheme-Text" d="M108.5 722.36c-.277 0-.5.223-.5.5v.5l-2-.002v14.502c0 .277.223.5.5.5h6c.277 0 .5-.223.5-.5v-14.501l-.5.002H111v-.5c0-.277-.223-.5-.5-.5z" id="path5" color="#1e333d" opacity=".3" fill="#1e333d" fill-opacity="1"/><path class="ColorScheme-Text" d="M106 732.36v5.502c0 .277.223.5.5.5h6c.277 0 .5-.223.5-.5v-5.502z" id="path7" color="#1e333d" fill="#1e333d" fill-opacity="1"/><path class="ColorScheme-Text" d="M116 723.36c-.554 0-1 .446-1 1v13c0 .554.446 1 1 1h5c.554 0 1-.446 1-1v-13c0-.554-.446-1-1-1zm0 3h1v1h-1zm2 0h1v1h-1zm2 1h1v7h-1zm-4 1h1v1h-1zm2 0h1v1h-1zm-2 2h1v1h-1zm2 0h1v1h-1zm-2 2h1v1h-1zm2 0h1v1h-1zm-2 2h1v1h-1zm2 0h1v1h-1z" id="path9" color="#1e333d" fill="#1e333d" fill-rule="evenodd" fill-opacity="1"/></g></svg>