<svg xmlns="http://www.w3.org/2000/svg" width="22" height="22" version="1.1" id="svg11"><defs id="defs3"><style id="current-color-scheme" type="text/css">.ColorScheme-Highlight{color:#3fb7ff}</style></defs><path opacity=".35" class="ColorScheme-Highlight" d="M3.5 3c-.277 0-.5.223-.5.5V4l-2-.002V18.5c0 .277.223.5.5.5h6c.277 0 .5-.223.5-.5V3.999L7.5 4H6v-.5c0-.277-.223-.5-.5-.5z" id="path5" fill="#3fb7ff" fill-opacity="1"/><path class="ColorScheme-Highlight" d="M1 16v2.5c0 .277.223.5.5.5h6c.277 0 .5-.223.5-.5V16z" id="path7" fill="#3fb7ff" fill-opacity="1"/><path d="M15 3c-2.77 0-5 2.676-5 6h5zm1 0v6h5c0-3.324-2.23-6-5-6zm-6 7v3c0 3.324 2.23 6 5 6h1c2.77 0 5-2.676 5-6v-3h-5z" id="path9" fill="#1e333d" fill-opacity="1" color="#1e333d"/></svg>