<svg xmlns="http://www.w3.org/2000/svg" width="22" height="22" version="1.1" id="svg11"><defs id="defs3"><style id="current-color-scheme" type="text/css">.ColorScheme-Text{color:#1e333d}</style></defs><g transform="translate(-33 -743.36)" id="g9"><path class="ColorScheme-Text" d="M44 746.36c-1 0-1 1-1 1v14s0 1 1 1h8c1 0 1-1 1-1v-14s0-1-1-1zm1 2.003h6v11h-6z" id="path5" color="#1e333d" fill="#1e333d" fill-opacity="1"/><path class="ColorScheme-Text" d="M36.5 746.36c-.277 0-.5.223-.5.5v.5h-2v14.502c0 .277.223.5.5.5h6c.277 0 .5-.223.5-.5v-14.5l-.5.002H39v-.5c0-.277-.223-.5-.5-.5z" id="path7" color="#1e333d" fill="#1e333d" fill-opacity="1"/></g></svg>