<svg xmlns="http://www.w3.org/2000/svg" width="22" height="22" version="1.1" id="svg13"><defs id="defs3"><style id="current-color-scheme" type="text/css">.ColorScheme-Text{color:#1e333d}</style></defs><g transform="translate(-57 -767.36)" id="g11"><path class="ColorScheme-Text" d="M60.5 770.36c-.277 0-.5.223-.5.5v.5h-2v14.502c0 .277.223.5.5.5h6c.277 0 .5-.223.5-.5v-14.5l-.5.002H63v-.5c0-.277-.223-.5-.5-.5z" id="path5" color="#1e333d" opacity=".3" fill="#1e333d" fill-opacity="1"/><path class="ColorScheme-Text" d="M58 775.36v10.502c0 .277.223.5.5.5h6c.277 0 .5-.223.5-.5v-10.5z" id="path7" color="#1e333d" fill="#1e333d" fill-opacity="1"/><path class="ColorScheme-Text" d="M72 770.36c-2.77 0-5 2.676-5 6h5zm1 0v6h5c0-3.324-2.23-6-5-6zm-6 7v3c0 3.324 2.23 6 5 6h1c2.77 0 5-2.676 5-6v-3h-5z" id="path9" color="#1e333d" fill="#1e333d" fill-opacity="1"/></g></svg>