<svg xmlns="http://www.w3.org/2000/svg" width="22" height="22" version="1.1" id="svg11"><defs id="defs3"><style id="current-color-scheme" type="text/css">.ColorScheme-Highlight{color:#3fb7ff}</style></defs><path d="M11 3c-1 0-1 1-1 1v14s0 1 1 1h8c1 0 1-1 1-1V4s0-1-1-1zm1 2.003h6v11h-6z" id="path5" fill="#1e333d" fill-opacity="1" color="#1e333d"/><path opacity=".35" class="ColorScheme-Highlight" d="M3.5 3c-.277 0-.5.223-.5.5V4l-2-.002V18.5c0 .277.223.5.5.5h6c.277 0 .5-.223.5-.5V3.999L7.5 4H6v-.5c0-.277-.223-.5-.5-.5z" id="path7" fill="#3fb7ff" fill-opacity="1"/><path class="ColorScheme-Highlight" d="M1 16v2.5c0 .277.223.5.5.5h6c.277 0 .5-.223.5-.5V16z" id="path9" fill="#3fb7ff" fill-opacity="1"/></svg>