<svg xmlns="http://www.w3.org/2000/svg" width="22" height="22" version="1.1" id="svg13"><defs id="defs3"><style id="current-color-scheme" type="text/css">.ColorScheme-Text{color:#1e333d}</style></defs><g transform="translate(-57 -623.36)" id="g11"><path class="ColorScheme-Text" d="M75 627.37l-14 14h8v-4.004h1.014c.02-1.635 1.342-3 2.986-3 .774 0 1.47.31 2 .8z" id="path5" color="#1e333d" opacity=".3" fill="#1e333d" fill-opacity="1"/><path class="ColorScheme-Text" d="M72 630.37l-11 11h8v-4.004h1.014A3.044 3.044 0 0 1 72 634.553v-4.183z" id="path7" color="#1e333d" fill="#1e333d" fill-opacity="1"/><path class="ColorScheme-Text" d="M73 635.36c-1.108 0-2 .91-2 2.031v.969h-1v4h6v-4h-1v-.969c0-1.12-.892-2.031-2-2.031zm0 1c.554 0 1 .442 1 1v1h-2v-1c0-.558.446-1 1-1z" id="path9" color="#1e333d" fill="#1e333d" fill-opacity="1"/></g></svg>