<?xml version="1.0" encoding="UTF-8" standalone="no"?>
<svg
   xmlns:dc="http://purl.org/dc/elements/1.1/"
   xmlns:cc="http://creativecommons.org/ns#"
   xmlns:rdf="http://www.w3.org/1999/02/22-rdf-syntax-ns#"
   xmlns:svg="http://www.w3.org/2000/svg"
   xmlns="http://www.w3.org/2000/svg"
   xmlns:sodipodi="http://sodipodi.sourceforge.net/DTD/sodipodi-0.dtd"
   xmlns:inkscape="http://www.inkscape.org/namespaces/inkscape"
   width="22"
   height="22"
   version="1.1"
   id="svg13"
   sodipodi:docname="gsm-3g-high-secure.svg"
   inkscape:version="0.92.4 5da689c313, 2019-01-14">
  <metadata
     id="metadata17">
    <rdf:RDF>
      <cc:Work
         rdf:about="">
        <dc:format>image/svg+xml</dc:format>
        <dc:type
           rdf:resource="http://purl.org/dc/dcmitype/StillImage" />
      </cc:Work>
    </rdf:RDF>
  </metadata>
  <sodipodi:namedview
     pagecolor="#ffffff"
     bordercolor="#666666"
     borderopacity="1"
     objecttolerance="10"
     gridtolerance="10"
     guidetolerance="10"
     inkscape:pageopacity="0"
     inkscape:pageshadow="2"
     inkscape:window-width="640"
     inkscape:window-height="515"
     id="namedview15"
     showgrid="false"
     inkscape:zoom="10.727273"
     inkscape:cx="11"
     inkscape:cy="11"
     inkscape:window-x="0"
     inkscape:window-y="28"
     inkscape:window-maximized="0"
     inkscape:current-layer="g11" />
  <defs
     id="defs3">
    <style
       id="current-color-scheme"
       type="text/css">
   .ColorScheme-Text { color:#1e333d; } .ColorScheme-Highlight { color:#3fb7ff; }
  </style>
  </defs>
  <g
     transform="translate(-57,-623.36)"
     id="g11">
    <path
       style="color:#1e333d;opacity:0.3;fill:#1e333d;fill-opacity:1"
       class="ColorScheme-Text"
       d="m 75,627.37 -14,14 h 8 v -4.004 h 1.0137 c 0.01965,-1.6349 1.3425,-3 2.9863,-3 0.77442,0 1.4708,0.30948 2,0.80078 z"
       id="path5"
       inkscape:connector-curvature="0" />
    <path
       style="color:#1e333d;fill:#1e333d;fill-opacity:1"
       class="ColorScheme-Text"
       d="m 72,630.37 -11,11 h 8 v -4.004 h 1.0137 c 0.01543,-1.2841 0.83892,-2.392 1.9863,-2.8125 v -4.1836 z"
       id="path7"
       inkscape:connector-curvature="0" />
    <path
       style="color:#1e333d;fill:#1e333d;fill-opacity:1"
       class="ColorScheme-Text"
       d="m 73,635.36 c -1.108,0 -2,0.91085 -2,2.0312 v 0.96875 h -1 v 4 h 6 v -4 h -1 v -0.96875 c 0,-1.1199 -0.892,-2.0312 -2,-2.0312 z m 0,1 c 0.554,0 1,0.4424 1,1 v 1 h -2 v -1 c 0,-0.5576 0.446,-1 1,-1 z"
       id="path9"
       inkscape:connector-curvature="0" />
  </g>
</svg>
