<svg xmlns="http://www.w3.org/2000/svg" width="22" height="22"><defs><style id="current-color-scheme" type="text/css">.ColorScheme-Text{color:#1e333d}</style></defs><path class="ColorScheme-Text" d="M11.03 5l.001.002c-3.034 0-5.766 1.27-8.031 3.014L11.031 17 12 15.904V14h1.014c.02-1.635 1.342-3 2.986-3 .105 0 .204.02.307.031L19 7.984C16.742 6.263 14.04 5 11.03 5z" opacity=".3" fill="currentColor"/><path class="ColorScheme-Text" d="M11 10c-3 0-4.9 1.5-4.9 1.5L11 17l1-1.123V14h1.014a3.038 3.038 0 0 1 2.242-2.893A8.528 8.528 0 0 0 11 10zM16 12c-1.108 0-2 .911-2 2.031V15h-1v4h6v-4h-1v-.969c0-1.12-.892-2.031-2-2.031zm0 1c.554 0 1 .442 1 1v1h-2v-1c0-.558.446-1 1-1z" fill="currentColor"/></svg>