<svg xmlns="http://www.w3.org/2000/svg" width="22" height="22" version="1.1" id="svg9"><defs id="defs3"><style id="current-color-scheme" type="text/css">.ColorScheme-Text{color:#1e333d}</style></defs><path class="ColorScheme-Text" d="M11.031 5C7.997 5 5.265 6.125 3 7.87l.232.13h15.51L19 7.837C16.744 6.112 14.042 5 11.031 5zM8 14l3.031 3L14 14z" id="path5" opacity=".3" fill="#1e333d" fill-opacity="1"/><path class="ColorScheme-Text" d="M6 9c-1.108 0-2 .892-2 2s.892 2 2 2 2-.892 2-2-.892-2-2-2zm5 0c-1.108 0-2 .892-2 2s.892 2 2 2 2-.892 2-2-.892-2-2-2zm5 0c-1.108 0-2 .892-2 2s.892 2 2 2 2-.892 2-2-.892-2-2-2z" id="path7" fill="#1e333d" fill-opacity="1"/></svg>