<?xml version="1.0" encoding="UTF-8" standalone="no"?>
<svg
   xmlns:dc="http://purl.org/dc/elements/1.1/"
   xmlns:cc="http://creativecommons.org/ns#"
   xmlns:rdf="http://www.w3.org/1999/02/22-rdf-syntax-ns#"
   xmlns:svg="http://www.w3.org/2000/svg"
   xmlns="http://www.w3.org/2000/svg"
   xmlns:sodipodi="http://sodipodi.sourceforge.net/DTD/sodipodi-0.dtd"
   xmlns:inkscape="http://www.inkscape.org/namespaces/inkscape"
   width="22"
   height="22"
   version="1.1"
   id="svg11"
   sodipodi:docname="network-offline.svg"
   inkscape:version="0.92.4 5da689c313, 2019-01-14">
  <metadata
     id="metadata15">
    <rdf:RDF>
      <cc:Work
         rdf:about="">
        <dc:format>image/svg+xml</dc:format>
        <dc:type
           rdf:resource="http://purl.org/dc/dcmitype/StillImage" />
      </cc:Work>
    </rdf:RDF>
  </metadata>
  <sodipodi:namedview
     pagecolor="#ffffff"
     bordercolor="#666666"
     borderopacity="1"
     objecttolerance="10"
     gridtolerance="10"
     guidetolerance="10"
     inkscape:pageopacity="0"
     inkscape:pageshadow="2"
     inkscape:window-width="640"
     inkscape:window-height="515"
     id="namedview13"
     showgrid="false"
     inkscape:zoom="10.727273"
     inkscape:cx="11"
     inkscape:cy="11"
     inkscape:window-x="0"
     inkscape:window-y="28"
     inkscape:window-maximized="0"
     inkscape:current-layer="g9" />
  <defs
     id="defs3">
    <style
       id="current-color-scheme"
       type="text/css">
   .ColorScheme-Text { color:#1e333d; } .ColorScheme-Highlight { color:#3fb7ff; }
  </style>
  </defs>
  <g
     transform="translate(-57,-551.36)"
     id="g9">
    <path
       style="color:#1e333d;opacity:0.3;fill:#1e333d;fill-opacity:1"
       class="ColorScheme-Text"
       d="m 62,556.36 c 0,0 -1,0 -1,1 v 9 c 0,1 1,1 1,1 h 2 l 1,1 h 5 v -2 h -4 l -1,-1 h -2 v -7 h 10 v 6 h 2 v -7 c 0,-1 -1,-1 -1,-1 z"
       id="path5"
       inkscape:connector-curvature="0" />
    <path
       style="color:#1e333d;fill:#1e333d;fill-opacity:1"
       class="ColorScheme-Text"
       d="m 71,565.36 v 1 c 0,0.27614 0.10029,0.53779 0.28125,0.71875 l 0.78125,0.78125 -0.78125,0.78125 C 71.10029,568.82221 71,569.08386 71,569.36 v 1 h 1 c 0.27614,0 0.53779,-0.10029 0.71875,-0.28125 L 73.5,569.2975 l 0.78125,0.78125 C 74.46221,570.25971 74.72386,570.36 75,570.36 h 1 v -1 c 0,-0.27614 -0.10029,-0.53779 -0.28125,-0.71875 L 74.9375,567.86 75.71875,567.07875 C 75.89971,566.89779 76,566.63614 76,566.36 v -1 h -1 c -0.27614,0 -0.53779,0.10029 -0.71875,0.28125 L 73.5,566.4225 72.71875,565.64125 C 72.53779,565.46029 72.27614,565.36 72,565.36 Z"
       id="path7"
       inkscape:connector-curvature="0" />
  </g>
</svg>
