<svg xmlns="http://www.w3.org/2000/svg" width="22" height="22" version="1.1" id="svg11"><defs id="defs3"><style id="current-color-scheme" type="text/css">.ColorScheme-Text{color:#1e333d}</style></defs><g transform="translate(-57 -575.36)" id="g9"><path class="ColorScheme-Text" d="M64.5 582.36a4.457 4.457 0 0 0-2.797 1h5.6a4.483 4.483 0 0 0-2.803-1zm-3.738 7a4.492 4.492 0 0 0 3.738 2 4.49 4.49 0 0 0 3.72-2zm11.238 0v.996h3v-.996z" id="path5" color="#1e333d" opacity=".3" fill="#1e333d" fill-opacity="1"/><path class="ColorScheme-Text" d="M63 584.36c-1.108 0-2 .892-2 2s.892 2 2 2 2-.892 2-2-.892-2-2-2zm5 0c-1.108 0-2 .892-2 2s.892 2 2 2 2-.892 2-2-.892-2-2-2zm5 0c-1.108 0-2 .892-2 2s.892 2 2 2 2-.892 2-2-.892-2-2-2z" id="path7" color="#1e333d" fill="#1e333d" fill-opacity="1"/></g></svg>