<svg xmlns="http://www.w3.org/2000/svg" width="22" height="22"><defs><style id="current-color-scheme" type="text/css"></style></defs><path d="M11.031 5C7.997 5 5.265 6.256 3 8l8.031 9L19 8c-2.256-1.725-4.956-2.998-7.967-2.998zm-.03 2.088c1.105 0 2.001.933 2.001 2.086 0 1.152-.896 2.088-2 2.088v1.043h-1v-2.088h1c.552 0 1-.467 1-1.043 0-.576-.448-1.043-1-1.043s-1 .467-1 1.043h-1c0-1.153.895-2.086 2-2.086zm-.499 6c.414 0 .75.349.75.781 0 .432-.336.783-.75.783s-.75-.35-.75-.783c0-.432.336-.781.75-.781z" fill="currentColor" color="#1e333d"/></svg>