<svg xmlns="http://www.w3.org/2000/svg" width="22" height="22" version="1.1" id="svg11"><defs id="defs3"><style id="current-color-scheme" type="text/css">.ColorScheme-Text{color:#1e333d}</style></defs><g transform="translate(-81 -551.36)" id="g9"><path class="ColorScheme-Text" d="M86 556.36s-1 0-1 1v2h2v-1h10v1h2v-2c0-1-1-1-1-1zm-1 9v1c0 1 1 1 1 1h2l1 1h6l1-1h2s1 .13 1-1v-1h-4l-1 1h-4l-1-1z" id="path5" color="#1e333d" opacity=".3" fill="#1e333d" fill-opacity="1"/><path class="ColorScheme-Text" d="M87 560.36c-1.108 0-2 .892-2 2s.892 2 2 2 2-.892 2-2-.892-2-2-2zm5 0c-1.108 0-2 .892-2 2s.892 2 2 2 2-.892 2-2-.892-2-2-2zm5 0c-1.108 0-2 .892-2 2s.892 2 2 2 2-.892 2-2-.892-2-2-2z" id="path7" color="#1e333d" fill="#1e333d" fill-opacity="1"/></g></svg>