<svg xmlns="http://www.w3.org/2000/svg" width="22" height="22"><defs><style id="current-color-scheme" type="text/css"></style></defs><path fill-rule="evenodd" d="M5.225 2c-.122-.003-.223.063-.223.144V5.05c0 .046.03.089.086.117l5.553 2.785-5.553 2.785c-.2.1-.032.312.201.254l11.57-2.902c.16-.04.19-.185.053-.254L5.344 2.027A.292.292 0 0 0 5.224 2zm11.486 8.01L5.14 12.912c-.16.04-.19.185-.054.254l11.569 5.807a.289.289 0 0 0 .119.027c.122.003.223-.063.223-.145v-2.904c0-.046-.032-.089-.087-.117l-5.553-2.785 5.553-2.785c.2-.1.032-.312-.2-.254z" fill="currentColor" color="#1e333d"/></svg>