<svg xmlns="http://www.w3.org/2000/svg" width="22" height="22"><defs><style id="current-color-scheme" type="text/css"></style></defs><path d="M4.424 4A.423.423 0 0 0 4 4.424v1.152c0 .235.19.424.424.424h1.152C5.811 6 6 5.81 6 5.576V4.424A.423.423 0 0 0 5.576 4H4.424zm4 0A.423.423 0 0 0 8 4.424v1.152c0 .235.19.424.424.424h1.152c.235 0 .424-.19.424-.424V4.424A.423.423 0 0 0 9.576 4H8.424zm4 0a.423.423 0 0 0-.424.424v1.152c0 .235.19.424.424.424h1.152c.235 0 .424-.19.424-.424V4.424A.423.423 0 0 0 13.576 4h-1.152zm4 0a.423.423 0 0 0-.424.424v1.152c0 .235.19.424.424.424h1.152c.235 0 .424-.19.424-.424V4.424A.423.423 0 0 0 17.576 4h-1.152zm-14 2A.423.423 0 0 0 2 6.424v1.152c0 .235.19.424.424.424h1.152C3.811 8 4 7.81 4 7.576V6.424A.423.423 0 0 0 3.576 6H2.424zm4 0A.423.423 0 0 0 6 6.424v1.152c0 .235.19.424.424.424h1.152C7.811 8 8 7.81 8 7.576V6.424A.423.423 0 0 0 7.576 6H6.424zm4 0a.423.423 0 0 0-.424.424v1.152c0 .235.19.424.424.424h1.152c.235 0 .424-.19.424-.424V6.424A.423.423 0 0 0 11.576 6h-1.152zm4 0a.423.423 0 0 0-.424.424v1.152c0 .235.19.424.424.424h1.152c.235 0 .424-.19.424-.424V6.424A.423.423 0 0 0 15.576 6h-1.152zm4 0a.423.423 0 0 0-.424.424v1.152c0 .235.19.424.424.424h1.152c.235 0 .424-.19.424-.424V6.424A.423.423 0 0 0 19.576 6h-1.152zm-14 2A.423.423 0 0 0 4 8.424v1.152c0 .235.19.424.424.424h1.152C5.811 10 6 9.81 6 9.576V8.424A.423.423 0 0 0 5.576 8H4.424zm4 0A.423.423 0 0 0 8 8.424v1.152c0 .235.19.424.424.424h1.152c.235 0 .424-.19.424-.424V8.424A.423.423 0 0 0 9.576 8H8.424zm4 0a.423.423 0 0 0-.424.424v1.152c0 .235.19.424.424.424h1.152c.235 0 .424-.19.424-.424V8.424A.423.423 0 0 0 13.576 8h-1.152zm4 0a.423.423 0 0 0-.424.424v1.152c0 .235.19.424.424.424h1.152c.235 0 .424-.19.424-.424V8.424A.423.423 0 0 0 17.576 8h-1.152zm-14 2a.423.423 0 0 0-.424.424v1.152c0 .235.19.424.424.424h1.152c.235 0 .424-.19.424-.424v-1.152A.423.423 0 0 0 3.576 10H2.424zm4 0a.423.423 0 0 0-.424.424v1.152c0 .235.19.424.424.424h1.152c.235 0 .424-.19.424-.424v-1.152A.423.423 0 0 0 7.576 10H6.424zm4 0a.423.423 0 0 0-.424.424v1.152c0 .235.19.424.424.424h1.152c.235 0 .424-.19.424-.424v-1.152a.423.423 0 0 0-.424-.424h-1.152zm4 0a.423.423 0 0 0-.424.424v1.152c0 .235.19.424.424.424h1.152c.235 0 .424-.19.424-.424v-1.152a.423.423 0 0 0-.424-.424h-1.152zm4 0a.423.423 0 0 0-.424.424v1.152c0 .235.19.424.424.424h1.152c.235 0 .424-.19.424-.424v-1.152a.423.423 0 0 0-.424-.424h-1.152zm-14 2a.423.423 0 0 0-.424.424v1.152c0 .235.19.424.424.424h1.152c.235 0 .424-.19.424-.424v-1.152A.423.423 0 0 0 5.576 12H4.424zm4 0a.423.423 0 0 0-.424.424v1.152c0 .235.19.424.424.424h1.152c.235 0 .424-.19.424-.424v-1.152A.423.423 0 0 0 9.576 12H8.424zm4 0a.423.423 0 0 0-.424.424v1.152c0 .235.19.424.424.424h1.152c.235 0 .424-.19.424-.424v-1.152a.423.423 0 0 0-.424-.424h-1.152zm4 0a.423.423 0 0 0-.424.424v1.152c0 .235.19.424.424.424h1.152c.235 0 .424-.19.424-.424v-1.152a.423.423 0 0 0-.424-.424h-1.152zm-14 2a.423.423 0 0 0-.424.424v1.152c0 .235.19.424.424.424h1.152c.235 0 .424-.19.424-.424v-1.152A.423.423 0 0 0 3.576 14H2.424zm4 0a.423.423 0 0 0-.424.424v1.152c0 .235.19.424.424.424h1.152c.235 0 .424-.19.424-.424v-1.152A.423.423 0 0 0 7.576 14H6.424zm4 0a.423.423 0 0 0-.424.424v1.152c0 .235.19.424.424.424h1.152c.235 0 .424-.19.424-.424v-1.152a.423.423 0 0 0-.424-.424h-1.152zm4 0a.423.423 0 0 0-.424.424v1.152c0 .235.19.424.424.424h1.152c.235 0 .424-.19.424-.424v-1.152a.423.423 0 0 0-.424-.424h-1.152zm4 0a.423.423 0 0 0-.424.424v1.152c0 .235.19.424.424.424h1.152c.235 0 .424-.19.424-.424v-1.152a.423.423 0 0 0-.424-.424h-1.152zm-14 2a.423.423 0 0 0-.424.424v1.152c0 .235.19.424.424.424h1.152c.235 0 .424-.19.424-.424v-1.152A.423.423 0 0 0 5.576 16H4.424zm4 0a.423.423 0 0 0-.424.424v1.152c0 .235.19.424.424.424h1.152c.235 0 .424-.19.424-.424v-1.152A.423.423 0 0 0 9.576 16H8.424zm4 0a.423.423 0 0 0-.424.424v1.152c0 .235.19.424.424.424h1.152c.235 0 .424-.19.424-.424v-1.152a.423.423 0 0 0-.424-.424h-1.152zm4 0a.423.423 0 0 0-.424.424v1.152c0 .235.19.424.424.424h1.152c.235 0 .424-.19.424-.424v-1.152a.423.423 0 0 0-.424-.424h-1.152z" opacity=".3" fill="currentColor" color="#1e333d"/></svg>