<svg xmlns="http://www.w3.org/2000/svg" xmlns:xlink="http://www.w3.org/1999/xlink" width="32" height="32" version="1"><defs><linearGradient id="a"><stop offset="0" stop-color="#c659ac"/><stop offset="1" stop-color="#e08acc"/></linearGradient><linearGradient id="b"><stop offset="0" stop-color="#8998ad"/><stop offset="1" stop-color="#f7e3f2"/></linearGradient><linearGradient xlink:href="#a" id="d" x1="-5.667" y1="22.201" x2="-5.597" y2="10.718" gradientUnits="userSpaceOnUse" gradientTransform="matrix(1.84713 0 0 1.84713 -1.697 -28.434)"/><linearGradient xlink:href="#b" id="c" x1="-34.169" y1="21.288" x2="-13.153" y2="7.458" gradientUnits="userSpaceOnUse" gradientTransform="matrix(1.22723 0 0 1.49985 17.688 -21.176)"/></defs><g transform="matrix(1 0 0 1.03528 28.578 14.98)"><path d="M-8.585-12.404c-2.391 0-3.167 1.885-4.395 3.768H-24.44c-1.739 0-3.139 1.4-3.139 3.139V9.57c.008.175.045.344.08.51.149.868.643 1.609 1.373 2.08.348.224.75.387 1.178.47.213.044.4.08.628.08H-.696c.228 0 .415-.034.628-.08a3.352 3.352 0 0 0 1.177-.47 3.082 3.082 0 0 0 1.373-2.08c.034-.166.07-.336.08-.51V-9.107c0-1.836-1.443-3.297-3.258-3.297h-7.887z" fill="#c659ac" stroke="#e08acc" stroke-width=".098"/><rect width="25.793" height="20.744" x="-24.146" y="-9.991" transform="rotate(.008) skewX(.002)" ry="1.676" opacity=".647" fill="#b13a94" paint-order="markers stroke fill"/><rect width="25.793" height="20.744" x="-24.246" y="-9.991" transform="rotate(.008) skewX(.002)" ry="1.676" fill="url(#c)" paint-order="markers stroke fill"/><path d="M-16.431-12.404c2.39 0 3.166 1.885 4.394 3.768H-.578c1.739 0 3.139 1.4 3.139 3.139V9.57c-.008.175-.045.344-.08.51a3.078 3.078 0 0 1-1.373 2.08c-.348.224-.75.387-1.178.47-.213.044-.4.08-.628.08H-24.32c-.227 0-.414-.034-.628-.08a3.352 3.352 0 0 1-1.176-.47 3.082 3.082 0 0 1-1.374-2.08c-.034-.166-.07-.336-.08-.51V-9.107c0-1.836 1.444-3.297 3.258-3.297h7.887z" fill="url(#d)" stroke="#e08acc" stroke-width=".098"/><path d="M-11.328-2.83c-1.202 0-2.303.652-2.848 1.688a2.065 2.065 0 0 0-.752-.143c-1.001 0-1.845.716-1.98 1.673-.967.322-1.62 1.202-1.62 2.19 0 1.28 1.075 2.319 2.4 2.319h7.2c1.325 0 2.4-1.038 2.4-2.318-.001-.985-.644-1.86-1.605-2.185.003-.045.004-.09.005-.135 0-1.706-1.433-3.09-3.2-3.09zM-11.33-.9c.685 0 1.197.494 1.199 1.155V.26c-.061.868.485 1.668 1.334 1.955a.374.374 0 0 1 .268.363c0 .235-.156.386-.4.386h-7.2c-.244 0-.4-.15-.4-.384v-.002a.372.372 0 0 1 .27-.363A1.95 1.95 0 0 0-14.926.65c.962.377 2.062-.02 2.533-.914a1.191 1.191 0 0 1 1.064-.634z" opacity=".647" fill="#b13a94"/><path d="M-11.429-2.927c-1.202 0-2.303.653-2.848 1.688a2.065 2.065 0 0 0-.752-.142c-1 0-1.845.715-1.979 1.673-.968.321-1.62 1.201-1.62 2.19 0 1.28 1.074 2.318 2.4 2.318h7.2c1.324 0 2.4-1.038 2.4-2.318-.002-.984-.645-1.86-1.606-2.185.003-.044.004-.09.005-.134 0-1.707-1.433-3.09-3.2-3.09zm0 1.932c.684 0 1.196.493 1.198 1.154v.006c-.06.867.485 1.667 1.334 1.955a.374.374 0 0 1 .268.362c0 .236-.156.387-.4.387h-7.2c-.244 0-.399-.15-.4-.385v-.002a.372.372 0 0 1 .27-.362A1.95 1.95 0 0 0-15.027.552c.962.377 2.062-.02 2.533-.913a1.191 1.191 0 0 1 1.064-.634z" fill="#f7e3f2"/></g></svg>