<svg xmlns="http://www.w3.org/2000/svg" xmlns:xlink="http://www.w3.org/1999/xlink" width="32" height="32" version="1"><defs><linearGradient id="a"><stop offset="0" stop-color="#c659ac"/><stop offset="1" stop-color="#e08acc"/></linearGradient><linearGradient id="b"><stop offset="0" stop-color="#8998ad"/><stop offset="1" stop-color="#f7e3f2"/></linearGradient><linearGradient xlink:href="#a" id="d" x1="-5.667" y1="22.201" x2="-5.597" y2="10.718" gradientUnits="userSpaceOnUse" gradientTransform="matrix(1.84713 0 0 1.84713 -1.697 -28.434)"/><linearGradient xlink:href="#b" id="c" x1="-34.169" y1="21.288" x2="-13.153" y2="7.458" gradientUnits="userSpaceOnUse" gradientTransform="matrix(1.22723 0 0 1.49985 17.688 -21.176)"/></defs><g transform="matrix(1 0 0 1.03528 28.578 14.98)"><path d="M-8.585-12.404c-2.391 0-3.167 1.885-4.395 3.768H-24.44c-1.739 0-3.139 1.4-3.139 3.139V9.57c.008.175.045.344.08.51.149.868.643 1.609 1.373 2.08.348.224.75.387 1.178.47.213.044.4.08.628.08H-.696c.228 0 .415-.034.628-.08a3.352 3.352 0 0 0 1.177-.47 3.082 3.082 0 0 0 1.373-2.08c.034-.166.07-.336.08-.51V-9.107c0-1.836-1.443-3.297-3.258-3.297h-7.887z" fill="#c659ac" stroke="#e08acc" stroke-width=".098"/><rect width="25.793" height="20.744" x="-24.146" y="-9.991" transform="rotate(.008) skewX(.002)" ry="1.676" opacity=".647" fill="#b13a94" paint-order="markers stroke fill"/><rect width="25.793" height="20.744" x="-24.246" y="-9.991" transform="rotate(.008) skewX(.002)" ry="1.676" fill="url(#c)" paint-order="markers stroke fill"/><path d="M-16.431-12.404c2.39 0 3.166 1.885 4.394 3.768H-.578c1.739 0 3.139 1.4 3.139 3.139V9.57c-.008.175-.045.344-.08.51a3.078 3.078 0 0 1-1.373 2.08c-.348.224-.75.387-1.178.47-.213.044-.4.08-.628.08H-24.32c-.227 0-.414-.034-.628-.08a3.352 3.352 0 0 1-1.176-.47 3.082 3.082 0 0 1-1.374-2.08c-.034-.166-.07-.336-.08-.51V-9.107c0-1.836 1.444-3.297 3.258-3.297h7.887z" fill="url(#d)" stroke="#e08acc" stroke-width=".098"/><g fill-rule="evenodd"><path d="M-9.337 3.032c0-.076-.12-.165-.361-.266.017-.064.034-.122.05-.175.014-.053.025-.108.032-.165a1.9 1.9 0 0 1 .02-.136.558.558 0 0 0 .003-.143 2.27 2.27 0 0 1-.007-.124.904.904 0 0 0-.023-.14 3.476 3.476 0 0 1-.026-.13 1.854 1.854 0 0 0-.378-.98C-10.19.54-10.347.38-10.5.297c.105.084.23.26.374.527.381.685.5 1.273.355 1.764-.048.17-.158.258-.328.267-.136.016-.22-.023-.253-.118s-.05-.272-.053-.53a2.944 2.944 0 0 0-.076-.679 4.076 4.076 0 0 0-.128-.438 1.733 1.733 0 0 0-.128-.289 1.935 1.935 0 0 0-.102-.155.652.652 0 0 0-.085-.095 2.162 2.162 0 0 1-.05-.045 3.985 3.985 0 0 0-.203-.653 1.493 1.493 0 0 0-.194-.356 1.759 1.759 0 0 1-.154-.21.718.718 0 0 1-.099-.253.705.705 0 0 1 .04-.34c.043-.137.053-.242.03-.314-.025-.072-.122-.125-.293-.159a1.31 1.31 0 0 1-.293-.114 1.432 1.432 0 0 0-.233-.101c-.035-.004-.059-.06-.072-.165a.61.61 0 0 1 .052-.324c.049-.11.127-.167.237-.171.162-.013.274.05.335.19s.07.262.026.368c-.048.08-.052.137-.013.168.04.032.105.033.197.005.057-.017.086-.094.086-.229v-.235a1.379 1.379 0 0 0-.089-.317.506.506 0 0 0-.138-.194.604.604 0 0 0-.332-.143c-.468.034-.663.318-.584.85 0 .064-.003.096-.007.096-.04-.038-.104-.06-.194-.067a.953.953 0 0 0-.217.005c-.055.008-.088 0-.102-.032.005-.241-.03-.431-.105-.571-.074-.14-.173-.212-.295-.216-.119-.004-.21.054-.273.175a.937.937 0 0 0-.109.377.867.867 0 0 0 .023.235c.02.093.049.173.086.238.037.066.071.094.102.086a.176.176 0 0 0 .105-.09c.017-.037.002-.054-.046-.05-.03 0-.065-.03-.102-.092a.45.45 0 0 1-.062-.213.371.371 0 0 1 .059-.234c.044-.064.118-.093.223-.09.075 0 .134.045.178.134a.529.529 0 0 1 .062.248.909.909 0 0 1-.01.14.713.713 0 0 0-.204.183.541.541 0 0 1-.18.15c-.086.048-.13.075-.135.079a.358.358 0 0 0-.102.171c-.01.055.006.093.05.114a.714.714 0 0 1 .164.124.962.962 0 0 1 .105.12.26.26 0 0 0 .121.083.74.74 0 0 0 .234.042c.206.008.429-.024.67-.096.009-.004.059-.019.151-.044.092-.025.168-.048.227-.067.059-.019.123-.046.193-.082a.326.326 0 0 0 .138-.111c.04-.06.084-.076.132-.051.022.013.036.03.043.054.006.023 0 .048-.02.076-.02.027-.056.048-.109.06-.087.026-.21.071-.37.137-.16.065-.26.107-.3.124-.192.08-.346.129-.46.145-.11.022-.282.017-.519-.012-.044-.009-.063-.004-.059.012a.48.48 0 0 0 .112.121c.11.097.256.144.44.14.075-.005.153-.02.237-.045.083-.025.162-.055.236-.089.075-.033.148-.07.22-.11l.197-.109c.06-.031.113-.057.161-.076.049-.019.087-.024.115-.016.029.009.047.032.056.07a.073.073 0 0 1-.007.029.083.083 0 0 1-.026.031.459.459 0 0 1-.095.06.774.774 0 0 1-.06.03.949.949 0 0 0-.065.03.479.479 0 0 1-.062.03c-.123.059-.27.152-.444.279a2.731 2.731 0 0 1-.437.273c-.118.055-.225.057-.322.006-.092-.046-.23-.2-.414-.463-.096-.131-.15-.178-.164-.14a.213.213 0 0 0-.007.064.826.826 0 0 1-.098.358c-.066.133-.13.25-.194.352-.063.102-.11.225-.138.369a.526.526 0 0 0 .076.4c-.101.025-.238.215-.411.57-.173.356-.277.654-.312.895a4.283 4.283 0 0 0-.01.438c.002.216-.01.341-.036.375-.035.101-.099.108-.19.019-.14-.131-.22-.33-.237-.597-.01-.118 0-.237.026-.355.018-.08.015-.119-.007-.114l-.026.031c-.158.275-.136.626.066 1.054.022.05.076.11.164.177.088.068.14.11.158.127.087.098.315.29.683.575.368.285.572.447.611.485.07.064.109.144.115.241a.384.384 0 0 1-.092.273.415.415 0 0 1-.299.146c.035.064.099.158.19.283.093.125.154.239.185.342.03.104.046.253.046.448.201-.102.217-.296.046-.584a.562.562 0 0 0-.07-.102 2.539 2.539 0 0 1-.062-.076c-.013-.017-.017-.03-.013-.038.013-.02.042-.04.086-.06a.13.13 0 0 1 .131.016c.201.22.565.296 1.09.229.583-.064.971-.248 1.164-.553.1-.16.175-.224.223-.19.053.025.075.135.066.33-.004.106-.055.3-.151.584-.04.097-.053.177-.04.238.013.061.066.094.158.098.013-.08.045-.243.095-.488.05-.246.08-.436.089-.572a2.075 2.075 0 0 0-.043-.466 3.278 3.278 0 0 1-.049-.616.68.68 0 0 1 .151-.447c.066-.076.178-.114.335-.114a.358.358 0 0 1 .227-.337.843.843 0 0 1 .476-.066c.171.023.302.07.394.142zm-4.126-5.248a.322.322 0 0 0-.017-.19c-.024-.056-.049-.088-.075-.096-.04-.008-.06.006-.06.044.01.021.02.034.034.038.043 0 .059.032.046.095-.014.085.004.127.052.127.013 0 .02-.006.02-.019zm1.583-.102a.233.233 0 0 0-.032-.124.242.242 0 0 0-.073-.08c-.026-.016-.046-.022-.059-.018-.061.004-.076.019-.046.044l.026.013c.062.017.101.082.119.197 0 .012.017.008.052-.013zm4.271 7.188a.27.27 0 0 1 .08.152.349.349 0 0 1-.017.143.333.333 0 0 1-.102.14 1.883 1.883 0 0 1-.155.123A1.72 1.72 0 0 1-8 5.546a7.559 7.559 0 0 1-.417.203 3.48 3.48 0 0 0-.74.438 6.339 6.339 0 0 0-.495.406c-.075.067-.224.109-.447.124a1.2 1.2 0 0 1-.585-.092.561.561 0 0 1-.194-.15.814.814 0 0 1-.108-.161c-.022-.047-.07-.088-.145-.124a.784.784 0 0 0-.308-.06 42.882 42.882 0 0 0-.855-.007 40.794 40.794 0 0 0-.756.026 1.552 1.552 0 0 0-.522.095c-.155.06-.272.123-.351.19a1.27 1.27 0 0 1-.286.181.75.75 0 0 1-.351.073c-.127-.004-.37-.07-.73-.196a6.937 6.937 0 0 0-1.294-.334c-.14-.023-.25-.042-.329-.057a3.47 3.47 0 0 1-.26-.06.728.728 0 0 1-.22-.092.314.314 0 0 1-.111-.124c-.044-.097-.029-.238.046-.422.074-.184.114-.3.118-.346a.951.951 0 0 0-.026-.254 4.644 4.644 0 0 0-.066-.27.774.774 0 0 1-.03-.231c.003-.076.026-.133.07-.171.061-.051.186-.08.374-.09.189-.008.32-.033.394-.075a.898.898 0 0 0 .276-.223c.053-.071.08-.18.08-.323 0 .12.115-.19.098-.292-.013-.068-.018-.148-.013-.241a.967.967 0 0 1 .065-.33c.04-.098.092-.197.158-.299.066-.101.114-.19.145-.266.035-.09.093-.241.174-.457.08-.216.145-.381.194-.495a3.52 3.52 0 0 1 .197-.387c.083-.144.168-.258.256-.343.482-.605.753-1.018.815-1.238a23.34 23.34 0 0 1-.105-1.967c-.01-.381.043-.702.157-.962s.346-.481.697-.663c.17-.089.398-.133.683-.133a2.54 2.54 0 0 1 .697.085c.232.062.427.15.584.264.25.178.45.435.602.771.15.336.215.648.193.936-.022.402.044.855.197 1.358.15.478.44.94.874 1.384.241.25.46.594.654 1.034.195.44.325.845.391 1.213.035.207.046.386.033.536-.013.15-.04.268-.079.352-.04.085.057.425.118.375a1.49 1.49 0 0 0 .148.615.984.984 0 0 0 .273.301c.035.024.082.052.141.083l.109.06c.087.051.155.103.203.156z" opacity=".647" fill="#b13a94"/><path d="M-9.437 2.936c0-.076-.12-.165-.361-.267.017-.063.034-.121.05-.174.014-.053.025-.108.032-.165a1.9 1.9 0 0 1 .02-.137.558.558 0 0 0 .003-.143 2.27 2.27 0 0 1-.007-.123.904.904 0 0 0-.023-.14 3.476 3.476 0 0 1-.026-.13 1.854 1.854 0 0 0-.378-.98C-10.29.443-10.447.284-10.6.2c.105.085.23.26.374.527.381.686.5 1.274.355 1.764-.048.17-.158.259-.328.267-.136.017-.22-.022-.253-.117-.033-.096-.05-.272-.053-.53a2.944 2.944 0 0 0-.076-.68 4.076 4.076 0 0 0-.128-.437 1.733 1.733 0 0 0-.128-.29 1.935 1.935 0 0 0-.102-.155.652.652 0 0 0-.085-.095 2.162 2.162 0 0 1-.05-.044 3.985 3.985 0 0 0-.203-.654 1.493 1.493 0 0 0-.194-.355 1.759 1.759 0 0 1-.154-.21.718.718 0 0 1-.099-.254.705.705 0 0 1 .04-.34c.043-.137.053-.241.03-.313-.025-.072-.122-.125-.293-.16a1.31 1.31 0 0 1-.293-.113 1.432 1.432 0 0 0-.233-.102c-.035-.004-.059-.06-.072-.165a.61.61 0 0 1 .052-.324c.049-.11.127-.167.237-.17.162-.014.274.05.335.19s.07.262.026.368c-.048.08-.052.136-.013.168.04.031.105.033.197.004.057-.017.086-.093.086-.229v-.234a1.379 1.379 0 0 0-.089-.318.506.506 0 0 0-.138-.193.604.604 0 0 0-.332-.143c-.468.034-.663.317-.584.85 0 .064-.003.096-.007.096-.04-.038-.104-.06-.194-.067a.953.953 0 0 0-.217.004c-.055.008-.088 0-.102-.032.005-.24-.03-.431-.105-.57-.074-.14-.173-.212-.295-.217-.119-.004-.21.054-.273.175a.937.937 0 0 0-.109.378.867.867 0 0 0 .023.234c.02.094.049.173.086.239.037.065.071.094.102.085a.176.176 0 0 0 .105-.089c.017-.038.002-.055-.046-.05-.03 0-.065-.031-.102-.092a.45.45 0 0 1-.062-.213.371.371 0 0 1 .059-.235c.044-.063.118-.093.223-.089.075 0 .134.045.178.134a.529.529 0 0 1 .062.247.909.909 0 0 1-.01.14.713.713 0 0 0-.204.184.541.541 0 0 1-.18.149c-.086.049-.13.075-.135.08a.358.358 0 0 0-.102.17c-.01.056.006.094.05.115a.714.714 0 0 1 .164.124.962.962 0 0 1 .105.12.26.26 0 0 0 .121.083.74.74 0 0 0 .234.04c.206.01.429-.022.67-.094.009-.004.059-.02.151-.045.092-.025.168-.047.227-.066.059-.02.123-.047.193-.083a.326.326 0 0 0 .138-.11c.04-.06.084-.077.132-.052.022.013.036.031.043.054.006.023 0 .049-.02.076-.02.028-.056.048-.109.06-.087.026-.21.072-.37.137l-.3.124c-.192.08-.346.129-.46.146-.11.021-.282.017-.519-.013-.044-.008-.063-.004-.059.013a.48.48 0 0 0 .112.12c.11.098.256.144.44.14.075-.004.153-.019.237-.044.083-.026.162-.055.236-.09.075-.033.148-.07.22-.11l.197-.108c.06-.032.113-.057.161-.076.049-.02.087-.025.115-.016.029.008.047.031.056.07a.073.073 0 0 1-.007.028.083.083 0 0 1-.026.032.459.459 0 0 1-.095.06.774.774 0 0 1-.06.029.949.949 0 0 0-.065.031.479.479 0 0 1-.062.029c-.123.06-.27.152-.444.28a2.731 2.731 0 0 1-.437.272c-.118.055-.225.057-.322.006-.092-.046-.23-.2-.414-.463-.096-.131-.15-.178-.164-.14a.213.213 0 0 0-.007.064.826.826 0 0 1-.098.359c-.066.133-.13.25-.194.352-.063.101-.11.224-.138.368a.526.526 0 0 0 .076.4c-.101.025-.238.216-.411.571s-.277.654-.312.895a4.283 4.283 0 0 0-.01.438c.002.216-.01.34-.036.374-.035.102-.099.108-.19.02-.14-.132-.22-.33-.237-.597-.01-.119 0-.237.026-.356.018-.08.015-.118-.007-.114l-.026.032c-.158.275-.136.626.066 1.053.022.05.076.11.164.178.088.067.14.11.158.127.087.097.315.289.683.574.368.286.572.448.611.486.07.063.109.143.115.24a.384.384 0 0 1-.092.274.415.415 0 0 1-.299.146c.035.063.099.157.19.282.093.125.154.24.185.343.03.104.046.253.046.447.201-.101.217-.296.046-.584a.562.562 0 0 0-.07-.101 2.535 2.535 0 0 1-.062-.076c-.013-.017-.017-.03-.013-.038.013-.021.042-.042.086-.06a.13.13 0 0 1 .131.015c.202.22.565.297 1.09.229.583-.063.971-.248 1.164-.552.1-.16.175-.224.223-.19.053.025.075.135.066.33-.004.105-.055.3-.151.583-.04.098-.053.177-.04.238.013.062.066.094.158.099.013-.08.045-.244.095-.489s.08-.436.089-.571a2.075 2.075 0 0 0-.043-.467 3.278 3.278 0 0 1-.049-.615.68.68 0 0 1 .151-.448c.066-.076.178-.114.335-.114a.358.358 0 0 1 .227-.336.843.843 0 0 1 .476-.067c.171.023.302.07.394.143zm-4.126-5.249a.322.322 0 0 0-.017-.19c-.024-.055-.049-.087-.075-.096-.04-.008-.06.007-.06.045.01.02.02.033.034.038.043 0 .059.031.046.095-.014.085.004.127.052.127.013 0 .02-.007.02-.02zm1.583-.102a.233.233 0 0 0-.032-.123.242.242 0 0 0-.073-.08c-.026-.017-.046-.023-.059-.019-.061.005-.076.02-.046.045l.026.012c.062.017.101.083.119.197 0 .013.017.009.052-.012zm4.271 7.188a.27.27 0 0 1 .08.152.349.349 0 0 1-.017.143.334.334 0 0 1-.102.14 1.883 1.883 0 0 1-.155.124 1.72 1.72 0 0 1-.197.117 7.58 7.58 0 0 1-.417.203 3.48 3.48 0 0 0-.74.438 6.339 6.339 0 0 0-.495.406c-.075.068-.224.11-.447.124a1.2 1.2 0 0 1-.585-.092.561.561 0 0 1-.194-.15.814.814 0 0 1-.108-.161c-.022-.047-.07-.088-.145-.124a.784.784 0 0 0-.308-.06 42.882 42.882 0 0 0-.855-.006 40.794 40.794 0 0 0-.756.026 1.552 1.552 0 0 0-.522.094c-.155.06-.272.123-.351.19a1.27 1.27 0 0 1-.286.182.75.75 0 0 1-.351.073c-.127-.004-.37-.07-.73-.197a6.937 6.937 0 0 0-1.294-.333c-.14-.023-.25-.042-.329-.057a3.47 3.47 0 0 1-.26-.06.728.728 0 0 1-.22-.093.314.314 0 0 1-.111-.123c-.044-.098-.029-.238.046-.422.074-.185.114-.3.118-.346a.951.951 0 0 0-.026-.254 4.644 4.644 0 0 0-.066-.27.774.774 0 0 1-.03-.232c.003-.076.026-.133.07-.171.061-.05.186-.08.374-.089.189-.008.32-.034.394-.076a.898.898 0 0 0 .276-.222c.053-.072.08-.18.08-.324 0 .12.115-.19.098-.292-.013-.067-.018-.148-.013-.24a.967.967 0 0 1 .065-.331c.04-.097.092-.197.158-.298.066-.102.114-.19.145-.267.035-.089.093-.241.174-.457.08-.216.145-.38.194-.495a3.52 3.52 0 0 1 .197-.387c.083-.144.168-.258.256-.343.482-.605.753-1.017.815-1.237a23.34 23.34 0 0 1-.105-1.968c-.01-.38.043-.701.157-.961s.346-.482.697-.664c.17-.088.398-.133.683-.133a2.54 2.54 0 0 1 .697.086c.232.061.427.149.584.263.25.178.45.435.602.771.15.337.215.649.193.937-.022.401.044.854.197 1.358.15.478.44.939.874 1.383.241.25.46.595.654 1.035.195.44.325.844.391 1.212.035.207.046.386.033.536-.013.15-.04.268-.079.353-.04.084.057.425.118.374a1.49 1.49 0 0 0 .148.616.985.985 0 0 0 .273.301c.035.023.082.05.141.083.06.031.095.051.109.06.087.05.155.103.203.155z" fill="#f7e3f2"/></g></g></svg>