<svg xmlns="http://www.w3.org/2000/svg" xmlns:xlink="http://www.w3.org/1999/xlink" width="32" height="32" version="1"><defs><linearGradient id="a"><stop offset="0" stop-color="#c659ac"/><stop offset="1" stop-color="#e08acc"/></linearGradient><linearGradient id="b"><stop offset="0" stop-color="#8998ad"/><stop offset="1" stop-color="#f7e3f2"/></linearGradient><linearGradient xlink:href="#a" id="d" x1="-5.667" y1="22.201" x2="-5.597" y2="10.718" gradientUnits="userSpaceOnUse" gradientTransform="matrix(1.84713 0 0 1.84713 -1.697 -28.434)"/><linearGradient xlink:href="#b" id="c" x1="-34.169" y1="21.288" x2="-13.153" y2="7.458" gradientUnits="userSpaceOnUse" gradientTransform="matrix(1.22723 0 0 1.49985 17.688 -21.176)"/></defs><g transform="matrix(1 0 0 1.03528 28.578 14.98)"><path d="M-8.585-12.404c-2.391 0-3.167 1.885-4.395 3.768H-24.44c-1.739 0-3.139 1.4-3.139 3.139V9.57c.008.175.045.344.08.51.149.868.643 1.609 1.373 2.08.348.224.75.387 1.178.47.213.044.4.08.628.08H-.696c.228 0 .415-.034.628-.08a3.352 3.352 0 0 0 1.177-.47 3.082 3.082 0 0 0 1.373-2.08c.034-.166.07-.336.08-.51V-9.107c0-1.836-1.443-3.297-3.258-3.297h-7.887z" fill="#c659ac" stroke="#e08acc" stroke-width=".098"/><rect width="25.793" height="20.744" x="-24.146" y="-9.991" transform="rotate(.008) skewX(.002)" ry="1.676" opacity=".647" fill="#b13a94" paint-order="markers stroke fill"/><rect width="25.793" height="20.744" x="-24.246" y="-9.991" transform="rotate(.008) skewX(.002)" ry="1.676" fill="url(#c)" paint-order="markers stroke fill"/><path d="M-16.431-12.404c2.39 0 3.166 1.885 4.394 3.768H-.578c1.739 0 3.139 1.4 3.139 3.139V9.57c-.008.175-.045.344-.08.51a3.078 3.078 0 0 1-1.373 2.08c-.348.224-.75.387-1.178.47-.213.044-.4.08-.628.08H-24.32c-.227 0-.414-.034-.628-.08a3.352 3.352 0 0 1-1.176-.47 3.082 3.082 0 0 1-1.374-2.08c-.034-.166-.07-.336-.08-.51V-9.107c0-1.836 1.444-3.297 3.258-3.297h7.887z" fill="url(#d)" stroke="#e08acc" stroke-width=".098"/><path d="M-14.528-2.83l-1 .965h-.5c-.831 0-1.5.539-1.5 1.208V3.69c0 .668.669 1.207 1.5 1.207h7c.83 0 1.5-.539 1.5-1.207V-.657c0-.67-.67-1.208-1.5-1.208h-.5l-1-.965zm2 1.931a2 1.932 0 0 1 2 1.932 2 1.932 0 0 1-2 1.932 2 1.932 0 0 1-2-1.932 2 1.932 0 0 1 2-1.932z" opacity=".647" fill="#b13a94"/><path d="M-14.628-2.927l-1 .966h-.5c-.831 0-1.5.538-1.5 1.207v4.347c0 .668.669 1.207 1.5 1.207h7c.83 0 1.5-.539 1.5-1.207V-.754c0-.67-.67-1.207-1.5-1.207h-.5l-1-.966zm2 1.932a2 1.932 0 0 1 2 1.932 2 1.932 0 0 1-2 1.932 2 1.932 0 0 1-2-1.932 2 1.932 0 0 1 2-1.932z" fill="#f7e3f2"/></g></svg>