<svg xmlns="http://www.w3.org/2000/svg" width="22" height="22"><defs><linearGradient id="b" y2="5" gradientUnits="userSpaceOnUse" y1="12" gradientTransform="scale(-1 1) rotate(13 4.887 -89.434)" x2="19" x1="7"><stop stop-opacity=".502" stop-color="#1e333d" offset="0"/><stop stop-opacity="0" stop-color="#1e333d" offset="1"/></linearGradient><linearGradient id="a" y2="12" gradientUnits="userSpaceOnUse" y1="12" gradientTransform="scale(1 -1) rotate(13 112.436 -3.886)" x2="17" x1="7"><stop stop-color="#1e333d" offset="0"/><stop stop-color="#1e333d" stop-opacity=".502" offset="1"/></linearGradient></defs><path d="M17.82 9.426l-1.947.449c.088.38.105.756.098 1.129.01 0 .019-.004.029-.004.752 0 1.428.295 1.951.762a6.91 6.91 0 0 0-.131-2.336zM5.307 11.377c-.617-.066-1.31.406-1.127 1.197.825 3.575 4.254 5.862 7.82 5.344v-2.023a4.997 4.997 0 0 1-5.87-3.77c-.11-.475-.453-.708-.823-.748z" fill="url(#a)"/><path d="M10.832 4a7.034 7.034 0 0 0-1.406.18 6.999 6.999 0 0 0-5.246 8.394l1.949-.449a5 5 0 0 1 9.744-2.25l1.947-.45A7.002 7.002 0 0 0 10.832 4z" fill="url(#b)"/><path d="M16 12c-1.108 0-2 .91-2 2.031V15h-1v4h6v-4h-1v-.969c0-1.12-.892-2.03-2-2.03zm0 1c.554 0 1 .442 1 1v1h-2v-1c0-.558.446-1 1-1z" fill="#1e333d"/></svg>