<svg xmlns="http://www.w3.org/2000/svg" width="22" height="22"><defs><linearGradient id="b" y2="5" gradientUnits="userSpaceOnUse" y1="12" gradientTransform="scale(1 -1) rotate(12.9 113.223 -3.925)" x2="19" x1="7"><stop stop-opacity=".502" stop-color="#1e333d" offset="0"/><stop stop-opacity="0" stop-color="#1e333d" offset="1"/></linearGradient><linearGradient id="a" y2="12" gradientUnits="userSpaceOnUse" y1="12" gradientTransform="scale(-1 1) rotate(12.9 4.922 -90.223)" x2="17" x1="7"><stop stop-color="#1e333d" offset="0"/><stop stop-color="#1e333d" stop-opacity=".502" offset="1"/></linearGradient></defs><path d="M10.844 4a7.001 7.001 0 0 0-6.668 8.562l1.951-.445a5 5 0 1 1 9.746-2.232c.29 1.267 2.239.82 1.949-.447A7.002 7.002 0 0 0 10.844 4z" fill="url(#a)"/><path d="M17.822 9.438l-1.949.445c.086.377.104.75.098 1.121.01 0 .019-.004.029-.004.752 0 1.428.294 1.951.76a6.905 6.905 0 0 0-.129-2.322zM6.125 12.114l-1.95.447c.82 3.581 4.253 5.876 7.825 5.356v-2.023a4.998 4.998 0 0 1-5.875-3.78z" fill="url(#b)"/><path d="M16 12c-1.108 0-2 .91-2 2.031V15h-1v4h6v-4h-1v-.969c0-1.12-.892-2.03-2-2.03zm0 1c.554 0 1 .442 1 1v1h-2v-1c0-.558.446-1 1-1z" fill="#1e333d"/></svg>