<?xml version="1.0" encoding="UTF-8" standalone="no"?>
<svg
   xmlns:dc="http://purl.org/dc/elements/1.1/"
   xmlns:cc="http://creativecommons.org/ns#"
   xmlns:rdf="http://www.w3.org/1999/02/22-rdf-syntax-ns#"
   xmlns:svg="http://www.w3.org/2000/svg"
   xmlns="http://www.w3.org/2000/svg"
   xmlns:sodipodi="http://sodipodi.sourceforge.net/DTD/sodipodi-0.dtd"
   xmlns:inkscape="http://www.inkscape.org/namespaces/inkscape"
   width="22"
   version="1.1"
   height="22"
   id="svg20"
   sodipodi:docname="nm-vpn-connecting08.svg"
   inkscape:version="0.92.4 5da689c313, 2019-01-14">
  <metadata
     id="metadata24">
    <rdf:RDF>
      <cc:Work
         rdf:about="">
        <dc:format>image/svg+xml</dc:format>
        <dc:type
           rdf:resource="http://purl.org/dc/dcmitype/StillImage" />
      </cc:Work>
    </rdf:RDF>
  </metadata>
  <sodipodi:namedview
     pagecolor="#ffffff"
     bordercolor="#666666"
     borderopacity="1"
     objecttolerance="10"
     gridtolerance="10"
     guidetolerance="10"
     inkscape:pageopacity="0"
     inkscape:pageshadow="2"
     inkscape:window-width="640"
     inkscape:window-height="493"
     id="namedview22"
     showgrid="false"
     inkscape:zoom="10.727273"
     inkscape:cx="11"
     inkscape:cy="11"
     inkscape:window-x="511"
     inkscape:window-y="147"
     inkscape:window-maximized="0"
     inkscape:current-layer="svg20" />
  <defs
     id="defs12">
    <linearGradient
       id="linearGradient3605"
       y2="5"
       gradientUnits="userSpaceOnUse"
       y1="12"
       gradientTransform="matrix(.0017459 1 1 -.0017459 -1.0211 -.97905)"
       x2="19"
       x1="7">
      <stop
         stop-opacity=".5"
         stop-color="#d3dae3"
         offset="0"
         id="stop2"
         style="stop-color:#1e333d;stop-opacity:0.50218338" />
      <stop
         stop-opacity="0"
         stop-color="#d3dae3"
         offset="1"
         id="stop4"
         style="stop-color:#1e333d;stop-opacity:0" />
    </linearGradient>
    <linearGradient
       id="linearGradient3611"
       y2="12"
       gradientUnits="userSpaceOnUse"
       y1="12"
       gradientTransform="matrix(-.0017459 -1 -1 .0017459 23.021 22.979)"
       x2="17"
       x1="7">
      <stop
         stop-color="#d3dae3"
         offset="0"
         id="stop7"
         style="stop-color:#1e333d;stop-opacity:1" />
      <stop
         stop-color="#d3dae3"
         stop-opacity=".5"
         offset="1"
         id="stop9"
         style="stop-color:#1e333d;stop-opacity:0.50218338" />
    </linearGradient>
  </defs>
  <path
     style="fill:url(#linearGradient3611)"
     d="m10.988 4l0.004 2c2.762-0.0048 5.003 2.2294 5.008 4.99v0.01c0.754 0 1.431 0.296 1.955 0.764 0.028-0.255 0.046-0.513 0.045-0.776-0.007-3.8657-3.146-6.9948-7.012-6.988zm1.012 11.873c-0.321 0.073-0.649 0.126-0.992 0.127-1.3004 0.002-1.2966 2.002 0.004 2 0.336-0.001 0.664-0.035 0.988-0.082v-2.045z"
     id="path14" />
  <path
     style="fill:url(#linearGradient3605)"
     d="m10.988 4c-3.8654 0.0068-6.9947 3.1454-6.988 7.012 0.0068 3.866 3.1454 6.995 7.012 6.988l-0.004-2c-2.761 0.005-5.0031-2.229-5.008-4.99-0.0048-2.7621 2.2313-5.0052 4.992-5.01l-0.004-2z"
     id="path16" />
  <path
     d="m16 12c-1.108 0-2 0.91085-2 2.0312v0.96875h-1v4h6v-4h-1v-0.96875c0-1.12-0.892-2.031-2-2.031zm0 1c0.554 0 1 0.4424 1 1v1h-2v-1c0-0.5576 0.446-1 1-1z"
     fill="#d3dae3"
     id="path18"
     style="fill:#1e333d;fill-opacity:1" />
</svg>
