<?xml version="1.0" encoding="UTF-8" standalone="no"?>
<svg
   xmlns:dc="http://purl.org/dc/elements/1.1/"
   xmlns:cc="http://creativecommons.org/ns#"
   xmlns:rdf="http://www.w3.org/1999/02/22-rdf-syntax-ns#"
   xmlns:svg="http://www.w3.org/2000/svg"
   xmlns="http://www.w3.org/2000/svg"
   xmlns:sodipodi="http://sodipodi.sourceforge.net/DTD/sodipodi-0.dtd"
   xmlns:inkscape="http://www.inkscape.org/namespaces/inkscape"
   width="22"
   version="1.1"
   height="22"
   id="svg20"
   sodipodi:docname="nm-vpn-connecting07.svg"
   inkscape:version="0.92.4 5da689c313, 2019-01-14">
  <metadata
     id="metadata24">
    <rdf:RDF>
      <cc:Work
         rdf:about="">
        <dc:format>image/svg+xml</dc:format>
        <dc:type
           rdf:resource="http://purl.org/dc/dcmitype/StillImage" />
      </cc:Work>
    </rdf:RDF>
  </metadata>
  <sodipodi:namedview
     pagecolor="#ffffff"
     bordercolor="#666666"
     borderopacity="1"
     objecttolerance="10"
     gridtolerance="10"
     guidetolerance="10"
     inkscape:pageopacity="0"
     inkscape:pageshadow="2"
     inkscape:window-width="640"
     inkscape:window-height="493"
     id="namedview22"
     showgrid="false"
     inkscape:zoom="10.727273"
     inkscape:cx="11"
     inkscape:cy="11"
     inkscape:window-x="553"
     inkscape:window-y="130"
     inkscape:window-maximized="0"
     inkscape:current-layer="svg20" />
  <defs
     id="defs12">
    <linearGradient
       id="linearGradient3605"
       y2="5"
       gradientUnits="userSpaceOnUse"
       y1="12"
       gradientTransform="matrix(.43523 .90032 .90032 -.43523 -5.026 5.4188)"
       x2="19"
       x1="7">
      <stop
         stop-opacity=".5"
         stop-color="#d3dae3"
         offset="0"
         id="stop2"
         style="stop-color:#1e333d;stop-opacity:0.50218338" />
      <stop
         stop-opacity="0"
         stop-color="#d3dae3"
         offset="1"
         id="stop4"
         style="stop-color:#1e333d;stop-opacity:0" />
    </linearGradient>
    <linearGradient
       id="linearGradient3611"
       y2="12"
       gradientUnits="userSpaceOnUse"
       y1="12"
       gradientTransform="matrix(-.43523 -.90032 -.90032 .43523 27.027 16.581)"
       x2="17"
       x1="7">
      <stop
         stop-color="#d3dae3"
         offset="0"
         id="stop7"
         style="stop-color:#1e333d;stop-opacity:1" />
      <stop
         stop-color="#d3dae3"
         stop-opacity=".5"
         offset="1"
         id="stop9"
         style="stop-color:#1e333d;stop-opacity:0.50655019" />
    </linearGradient>
  </defs>
  <path
     style="fill:url(#linearGradient3611)"
     d="m11.326 4.0059c-1.127-0.0535-2.2853 0.1656-3.3729 0.6914l0.8711 1.8007c2.4868-1.202 5.4768-0.1596 6.6778 2.3262 0.34 0.704 0.482 1.4458 0.477 2.1778 0.007 0 0.014-0.002 0.021-0.002 0.743 0 1.411 0.288 1.932 0.744 0.138-1.259-0.038-2.5664-0.629-3.7909-1.157-2.3929-3.496-3.8297-5.977-3.9472z"
     id="path14" />
  <path
     style="fill:url(#linearGradient3605)"
     d="m7.9531 4.6973c-3.4806 1.6826-4.9384 5.8687-3.2558 9.3497 1.3617 2.817 4.3626 4.298 7.3027 3.871v-2.045c-2.1895 0.45-4.4847-0.593-5.502-2.697-1.2018-2.486-0.1599-5.4761 2.3262-6.678l-0.8711-1.8007z"
     id="path16" />
  <path
     d="m16 12c-1.108 0-2 0.91085-2 2.0312v0.96875h-1v4h6v-4h-1v-0.96875c0-1.12-0.892-2.031-2-2.031zm0 1c0.554 0 1 0.4424 1 1v1h-2v-1c0-0.5576 0.446-1 1-1z"
     fill="#d3dae3"
     id="path18"
     style="fill:#1e333d;fill-opacity:1" />
</svg>
