<?xml version="1.0" encoding="UTF-8" standalone="no"?>
<svg
   xmlns:dc="http://purl.org/dc/elements/1.1/"
   xmlns:cc="http://creativecommons.org/ns#"
   xmlns:rdf="http://www.w3.org/1999/02/22-rdf-syntax-ns#"
   xmlns:svg="http://www.w3.org/2000/svg"
   xmlns="http://www.w3.org/2000/svg"
   xmlns:sodipodi="http://sodipodi.sourceforge.net/DTD/sodipodi-0.dtd"
   xmlns:inkscape="http://www.inkscape.org/namespaces/inkscape"
   width="22"
   version="1.1"
   height="22"
   id="svg20"
   sodipodi:docname="nm-vpn-connecting11.svg"
   inkscape:version="0.92.4 5da689c313, 2019-01-14">
  <metadata
     id="metadata24">
    <rdf:RDF>
      <cc:Work
         rdf:about="">
        <dc:format>image/svg+xml</dc:format>
        <dc:type
           rdf:resource="http://purl.org/dc/dcmitype/StillImage" />
      </cc:Work>
    </rdf:RDF>
  </metadata>
  <sodipodi:namedview
     pagecolor="#ffffff"
     bordercolor="#666666"
     borderopacity="1"
     objecttolerance="10"
     gridtolerance="10"
     guidetolerance="10"
     inkscape:pageopacity="0"
     inkscape:pageshadow="2"
     inkscape:window-width="640"
     inkscape:window-height="493"
     id="namedview22"
     showgrid="false"
     inkscape:zoom="10.727273"
     inkscape:cx="11"
     inkscape:cy="11"
     inkscape:window-x="567"
     inkscape:window-y="95"
     inkscape:window-maximized="0"
     inkscape:current-layer="svg20" />
  <defs
     id="defs12">
    <linearGradient
       id="linearGradient3605"
       y2="5"
       gradientUnits="userSpaceOnUse"
       y1="12"
       gradientTransform="matrix(-.97437 .22495 .22495 .97437 19.993 -3.3916)"
       x2="19"
       x1="7">
      <stop
         stop-opacity=".5"
         stop-color="#d3dae3"
         offset="0"
         id="stop2"
         style="stop-color:#1e333d;stop-opacity:0.50218338" />
      <stop
         stop-opacity="0"
         stop-color="#d3dae3"
         offset="1"
         id="stop4"
         style="stop-color:#1e333d;stop-opacity:0" />
    </linearGradient>
    <linearGradient
       id="linearGradient3611"
       y2="12"
       gradientUnits="userSpaceOnUse"
       y1="12"
       gradientTransform="matrix(.97437 -.22495 -.22495 -.97437 2.0076 25.392)"
       x2="17"
       x1="7">
      <stop
         stop-color="#d3dae3"
         offset="0"
         id="stop7"
         style="stop-color:#1e333d;stop-opacity:1" />
      <stop
         stop-color="#d3dae3"
         stop-opacity=".5"
         offset="1"
         id="stop9"
         style="stop-color:#1e333d;stop-opacity:0.50218338" />
    </linearGradient>
  </defs>
  <path
     style="fill:url(#linearGradient3611)"
     d="m17.82 9.4258l-1.947 0.4492c0.088 0.38 0.105 0.756 0.098 1.129 0.01 0 0.019-0.004 0.029-0.004 0.752 0 1.428 0.295 1.951 0.762 0.085-0.761 0.052-1.547-0.131-2.3362zm-12.513 1.9512c-0.6166-0.066-1.3097 0.406-1.1269 1.197 0.8252 3.575 4.2538 5.862 7.8203 5.344v-2.023c-2.6483 0.541-5.2595-1.121-5.8711-3.77-0.1097-0.475-0.4523-0.708-0.8223-0.748z"
     id="path14" />
  <path
     style="fill:url(#linearGradient3605)"
     d="m10.832 4c-0.465 0.0117-0.9353 0.071-1.4062 0.1797-3.7672 0.8696-6.1158 4.6276-5.2461 8.3943l1.9492-0.449c-0.6212-2.6906 1.0555-5.3749 3.7461-5.9961 2.691-0.6212 5.377 1.0555 5.998 3.7461l1.947-0.4492c-0.761-3.2965-3.733-5.5074-6.988-5.4258z"
     id="path16" />
  <path
     d="m16 12c-1.108 0-2 0.91085-2 2.0312v0.96875h-1v4h6v-4h-1v-0.96875c0-1.12-0.892-2.031-2-2.031zm0 1c0.554 0 1 0.4424 1 1v1h-2v-1c0-0.5576 0.446-1 1-1z"
     fill="#d3dae3"
     id="path18"
     style="fill:#1e333d;fill-opacity:1" />
</svg>
