<svg xmlns="http://www.w3.org/2000/svg" width="22" height="22"><defs><linearGradient id="b" x1="7" gradientUnits="userSpaceOnUse" x2="19" gradientTransform="scale(1 -1) rotate(64.3 29.797 -.296)" y1="12" y2="5"><stop stop-opacity=".502" stop-color="#1e333d" offset="0"/><stop stop-opacity="0" stop-color="#1e333d" offset="1"/></linearGradient><linearGradient id="a" x1="7" gradientUnits="userSpaceOnUse" x2="17" gradientTransform="scale(-1 1) rotate(64.3 1.296 -6.797)" y1="12" y2="12"><stop stop-color="#1e333d" offset="0"/><stop stop-color="#1e333d" stop-opacity=".502" offset="1"/></linearGradient></defs><path d="M11.342 4.006a7.001 7.001 0 0 0-3.377 13.303l.867-1.803a5.001 5.001 0 0 1 4.336-9.012c1.171.564 2.039-1.237.867-1.8a6.977 6.977 0 0 0-2.693-.688z" fill="url(#a)"/><path d="M14.035 4.693l-.867 1.801c1.789.861 2.805 2.649 2.803 4.51.01 0 .019-.004.029-.004.742 0 1.409.287 1.93.742.306-2.86-1.154-5.73-3.895-7.049zM8.832 15.506l-.867 1.803c1.305.627 2.702.787 4.035.591v-2.035c-1.036.217-2.14.135-3.168-.359z" fill="url(#b)"/><path d="M16 12c-1.108 0-2 .91-2 2.031V15h-1v4h6v-4h-1v-.969c0-1.12-.892-2.03-2-2.03zm0 1c.554 0 1 .442 1 1v1h-2v-1c0-.558.446-1 1-1z" fill="#1e333d"/></svg>