<svg xmlns="http://www.w3.org/2000/svg" width="22" height="22"><defs><linearGradient id="b" y2="5" gradientUnits="userSpaceOnUse" y1="12" gradientTransform="scale(1 -1) rotate(-89.9 -.02 1.001)" x2="19" x1="7"><stop stop-opacity=".502" stop-color="#1e333d" offset="0"/><stop stop-opacity="0" stop-color="#1e333d" offset="1"/></linearGradient><linearGradient id="a" y2="12" gradientUnits="userSpaceOnUse" y1="12" gradientTransform="scale(-1 1) rotate(-89.9 0 23.02)" x2="17" x1="7"><stop stop-color="#1e333d" offset="0"/><stop stop-color="#1e333d" stop-opacity=".502" offset="1"/></linearGradient></defs><path d="M10.988 4l.004 2A4.999 4.999 0 0 1 16 10.99V11c.754 0 1.431.296 1.955.764.028-.255.046-.513.045-.776A7 7 0 0 0 10.988 4zM12 15.873a4.506 4.506 0 0 1-.992.127c-1.3.002-1.297 2.002.004 2 .336-.001.664-.035.988-.082v-2.045z" fill="url(#a)"/><path d="M10.988 4a7 7 0 0 0 .024 14l-.004-2A4.999 4.999 0 0 1 6 11.01 5.002 5.002 0 0 1 10.992 6l-.004-2z" fill="url(#b)"/><path d="M16 12c-1.108 0-2 .91-2 2.031V15h-1v4h6v-4h-1v-.969c0-1.12-.892-2.03-2-2.03zm0 1c.554 0 1 .442 1 1v1h-2v-1c0-.558.446-1 1-1z" fill="#1e333d"/></svg>