<svg xmlns="http://www.w3.org/2000/svg" width="22" height="22"><defs><linearGradient id="b" y2="5" gradientUnits="userSpaceOnUse" y1="12" gradientTransform="scale(-1 1) rotate(-64.1 -.3 29.869)" x2="19" x1="7"><stop stop-opacity=".502" stop-color="#1e333d" offset="0"/><stop stop-opacity="0" stop-color="#1e333d" offset="1"/></linearGradient><linearGradient id="a" y2="12" gradientUnits="userSpaceOnUse" y1="12" gradientTransform="scale(1 -1) rotate(-64.1 -6.868 1.298)" x2="17" x1="7"><stop stop-color="#1e333d" offset="0"/><stop stop-color="#1e333d" stop-opacity=".502" offset="1"/></linearGradient></defs><path d="M8.365 4.594a1.036 1.036 0 0 0-.422.11 7.002 7.002 0 0 0-3.24 9.355c1.365 2.81 4.362 4.265 7.297 3.839v-2.025c-2.186.449-4.477-.591-5.496-2.689a5 5 0 0 1 2.312-6.682c1.024-.497.484-1.937-.45-1.908z" fill="url(#a)"/><path d="M11.312 4.006a6.964 6.964 0 0 0-3.369.697l.873 1.799a5 5 0 0 1 6.682 2.314 4.89 4.89 0 0 1 .482 2.186L16 11c.743 0 1.411.288 1.932.744a6.91 6.91 0 0 0-.635-3.8 6.999 6.999 0 0 0-5.985-3.938z" fill="url(#b)"/><path d="M16 12c-1.108 0-2 .91-2 2.031V15h-1v4h6v-4h-1v-.969c0-1.12-.892-2.03-2-2.03zm0 1c.554 0 1 .442 1 1v1h-2v-1c0-.558.446-1 1-1z" fill="#1e333d"/></svg>