<?xml version="1.0" encoding="UTF-8" standalone="no"?>
<svg
   xmlns:dc="http://purl.org/dc/elements/1.1/"
   xmlns:cc="http://creativecommons.org/ns#"
   xmlns:rdf="http://www.w3.org/1999/02/22-rdf-syntax-ns#"
   xmlns:svg="http://www.w3.org/2000/svg"
   xmlns="http://www.w3.org/2000/svg"
   xmlns:sodipodi="http://sodipodi.sourceforge.net/DTD/sodipodi-0.dtd"
   xmlns:inkscape="http://www.inkscape.org/namespaces/inkscape"
   width="22"
   version="1.1"
   height="22"
   id="svg20"
   sodipodi:docname="nm-vpn-connecting06.svg"
   inkscape:version="0.92.4 5da689c313, 2019-01-14">
  <metadata
     id="metadata24">
    <rdf:RDF>
      <cc:Work
         rdf:about="">
        <dc:format>image/svg+xml</dc:format>
        <dc:type
           rdf:resource="http://purl.org/dc/dcmitype/StillImage" />
      </cc:Work>
    </rdf:RDF>
  </metadata>
  <sodipodi:namedview
     pagecolor="#ffffff"
     bordercolor="#666666"
     borderopacity="1"
     objecttolerance="10"
     gridtolerance="10"
     guidetolerance="10"
     inkscape:pageopacity="0"
     inkscape:pageshadow="2"
     inkscape:window-width="640"
     inkscape:window-height="493"
     id="namedview22"
     showgrid="false"
     inkscape:zoom="10.727273"
     inkscape:cx="11"
     inkscape:cy="11"
     inkscape:window-x="355"
     inkscape:window-y="99"
     inkscape:window-maximized="0"
     inkscape:current-layer="svg20" />
  <defs
     id="defs12">
    <linearGradient
       id="linearGradient3605"
       x1="7"
       gradientUnits="userSpaceOnUse"
       x2="19"
       gradientTransform="matrix(.78261 .62251 .62251 -.78261 -5.861 12.921)"
       y1="12"
       y2="5">
      <stop
         stop-opacity=".5"
         stop-color="#d3dae3"
         offset="0"
         id="stop2"
         style="stop-color:#1e333d;stop-opacity:0.50218338" />
      <stop
         stop-opacity="0"
         stop-color="#d3dae3"
         offset="1"
         id="stop4"
         style="stop-color:#1e333d;stop-opacity:0" />
    </linearGradient>
    <linearGradient
       id="linearGradient3611"
       x1="7"
       gradientUnits="userSpaceOnUse"
       x2="17"
       gradientTransform="matrix(-.78261 -.62251 -.62251 .78261 27.862 9.079)"
       y1="12"
       y2="12">
      <stop
         stop-color="#d3dae3"
         offset="0"
         id="stop7"
         style="stop-color:#1e333d;stop-opacity:1" />
      <stop
         stop-color="#d3dae3"
         stop-opacity=".5"
         offset="1"
         id="stop9"
         style="stop-color:#1e333d;stop-opacity:0.50218338" />
    </linearGradient>
  </defs>
  <path
     style="fill:url(#linearGradient3611)"
     d="m10.879 4.002c-2.017 0.0363-4.0038 0.9387-5.3575 2.6406l1.5664 1.2441c1.719-2.1611 4.8641-2.5176 7.0251-0.7988 1.242 0.987 1.874 2.4432 1.873 3.9141 0.005 0 0.009-0.002 0.014-0.002 0.747 0 1.419 0.291 1.941 0.752 0.249-2.3045-0.635-4.6808-2.584-6.2305-1.323-1.0529-2.909-1.5478-4.478-1.5195z"
     id="path14" />
  <path
     style="fill:url(#linearGradient3605)"
     d="m5.5215 6.6426c-2.4066 3.0256-1.9045 7.4294 1.1211 9.8364 1.5723 1.25 3.5144 1.706 5.3574 1.439v-2.022c-1.398 0.285-2.9073-0.024-4.1113-0.982-2.1615-1.72-2.5198-4.866-0.8008-7.0273l-1.5664-1.2441z"
     id="path16" />
  <path
     d="m16 12c-1.108 0-2 0.91085-2 2.0312v0.96875h-1v4h6v-4h-1v-0.96875c0-1.12-0.892-2.031-2-2.031zm0 1c0.554 0 1 0.4424 1 1v1h-2v-1c0-0.5576 0.446-1 1-1z"
     fill="#d3dae3"
     id="path18"
     style="fill:#1e333d;fill-opacity:1" />
</svg>
