<?xml version="1.0" encoding="UTF-8" standalone="no"?>
<svg
   xmlns:dc="http://purl.org/dc/elements/1.1/"
   xmlns:cc="http://creativecommons.org/ns#"
   xmlns:rdf="http://www.w3.org/1999/02/22-rdf-syntax-ns#"
   xmlns:svg="http://www.w3.org/2000/svg"
   xmlns="http://www.w3.org/2000/svg"
   xmlns:sodipodi="http://sodipodi.sourceforge.net/DTD/sodipodi-0.dtd"
   xmlns:inkscape="http://www.inkscape.org/namespaces/inkscape"
   width="22"
   version="1.1"
   height="22"
   id="svg20"
   sodipodi:docname="nm-vpn-connecting05.svg"
   inkscape:version="0.92.4 5da689c313, 2019-01-14">
  <metadata
     id="metadata24">
    <rdf:RDF>
      <cc:Work
         rdf:about="">
        <dc:format>image/svg+xml</dc:format>
        <dc:type
           rdf:resource="http://purl.org/dc/dcmitype/StillImage" />
      </cc:Work>
    </rdf:RDF>
  </metadata>
  <sodipodi:namedview
     pagecolor="#ffffff"
     bordercolor="#666666"
     borderopacity="1"
     objecttolerance="10"
     gridtolerance="10"
     guidetolerance="10"
     inkscape:pageopacity="0"
     inkscape:pageshadow="2"
     inkscape:window-width="640"
     inkscape:window-height="493"
     id="namedview22"
     showgrid="false"
     inkscape:zoom="10.727273"
     inkscape:cx="11"
     inkscape:cy="11"
     inkscape:window-x="573"
     inkscape:window-y="240"
     inkscape:window-maximized="0"
     inkscape:current-layer="svg20" />
  <defs
     id="defs12">
    <linearGradient
       id="linearGradient3605"
       y2="5"
       gradientUnits="userSpaceOnUse"
       y1="12"
       gradientTransform="matrix(.97515 .22155 .22155 -.97515 -3.3602 20.043)"
       x2="19"
       x1="7">
      <stop
         stop-opacity=".5"
         stop-color="#d3dae3"
         offset="0"
         id="stop2"
         style="stop-color:#1e333d;stop-opacity:0.50218338" />
      <stop
         stop-opacity="0"
         stop-color="#d3dae3"
         offset="1"
         id="stop4"
         style="stop-color:#1e333d;stop-opacity:0.04803494" />
    </linearGradient>
    <linearGradient
       id="linearGradient3611"
       y2="12"
       gradientUnits="userSpaceOnUse"
       y1="12"
       gradientTransform="matrix(-.97515 -.22155 -.22155 .97515 25.361 1.9568)"
       x2="17"
       x1="7">
      <stop
         stop-color="#d3dae3"
         offset="0"
         id="stop7"
         style="stop-color:#1e333d;stop-opacity:1" />
      <stop
         stop-color="#d3dae3"
         stop-opacity=".5"
         offset="1"
         id="stop9"
         style="stop-color:#1e333d;stop-opacity:0.50218338" />
    </linearGradient>
  </defs>
  <path
     style="fill:url(#linearGradient3611)"
     d="m11.145 4c-3.2558-0.0703-6.2217 2.1506-6.9712 5.4492l1.9512 0.4434c0.6118-2.6928 3.2924-4.3793 5.984-3.7676 2.321 0.5274 3.872 2.5928 3.87 4.877 0.007 0 0.014-0.002 0.021-0.002 0.75 0 1.424 0.294 1.947 0.758 0.385-3.4893-1.891-6.7878-5.396-7.5842-0.471-0.107-0.941-0.1638-1.406-0.1738z"
     id="path14" />
  <path
     style="fill:url(#linearGradient3605)"
     d="m4.1758 9.4492c-0.8565 3.7698 1.5035 7.5208 5.2734 8.3768 0.8638 0.196 1.7238 0.208 2.5508 0.086v-2.037c-0.676 0.145-1.388 0.163-2.1074 0-2.6928-0.612-4.3794-3.29-3.7676-5.9824l-1.9492-0.4434z"
     id="path16" />
  <path
     d="m16 12c-1.108 0-2 0.91085-2 2.0312v0.96875h-1v4h6v-4h-1v-0.96875c0-1.12-0.892-2.031-2-2.031zm0 1c0.554 0 1 0.4424 1 1v1h-2v-1c0-0.5576 0.446-1 1-1z"
     fill="#d3dae3"
     id="path18"
     style="fill:#1e333d;fill-opacity:1" />
</svg>
