<?xml version="1.0" encoding="UTF-8" standalone="no"?>
<svg
   xmlns:dc="http://purl.org/dc/elements/1.1/"
   xmlns:cc="http://creativecommons.org/ns#"
   xmlns:rdf="http://www.w3.org/1999/02/22-rdf-syntax-ns#"
   xmlns:svg="http://www.w3.org/2000/svg"
   xmlns="http://www.w3.org/2000/svg"
   xmlns:sodipodi="http://sodipodi.sourceforge.net/DTD/sodipodi-0.dtd"
   xmlns:inkscape="http://www.inkscape.org/namespaces/inkscape"
   width="22"
   version="1.1"
   height="22"
   id="svg20"
   sodipodi:docname="nm-vpn-connecting02.svg"
   inkscape:version="0.92.4 5da689c313, 2019-01-14">
  <metadata
     id="metadata24">
    <rdf:RDF>
      <cc:Work
         rdf:about="">
        <dc:format>image/svg+xml</dc:format>
        <dc:type
           rdf:resource="http://purl.org/dc/dcmitype/StillImage" />
      </cc:Work>
    </rdf:RDF>
  </metadata>
  <sodipodi:namedview
     pagecolor="#ffffff"
     bordercolor="#666666"
     borderopacity="1"
     objecttolerance="10"
     gridtolerance="10"
     guidetolerance="10"
     inkscape:pageopacity="0"
     inkscape:pageshadow="2"
     inkscape:window-width="640"
     inkscape:window-height="493"
     id="namedview22"
     showgrid="false"
     inkscape:zoom="10.727273"
     inkscape:cx="11"
     inkscape:cy="11"
     inkscape:window-x="0"
     inkscape:window-y="26"
     inkscape:window-maximized="0"
     inkscape:current-layer="svg20" />
  <defs
     id="defs12">
    <linearGradient
       id="linearGradient3605"
       x1="7"
       gradientUnits="userSpaceOnUse"
       x2="19"
       gradientTransform="matrix(.43366 -.90108 -.90108 -.43366 16.609 27.017)"
       y1="12"
       y2="5">
      <stop
         stop-opacity=".5"
         stop-color="#d3dae3"
         offset="0"
         id="stop2"
         style="stop-color:#1e333d;stop-opacity:0.50218338" />
      <stop
         stop-opacity="0"
         stop-color="#d3dae3"
         offset="1"
         id="stop4"
         style="stop-color:#1e333d;stop-opacity:0" />
    </linearGradient>
    <linearGradient
       id="linearGradient3611"
       x1="7"
       gradientUnits="userSpaceOnUse"
       x2="17"
       gradientTransform="matrix(-.43366 .90108 .90108 .43366 5.3906 -5.0168)"
       y1="12"
       y2="12">
      <stop
         stop-color="#d3dae3"
         offset="0"
         id="stop7"
         style="stop-color:#1e333d;stop-opacity:1" />
      <stop
         stop-color="#d3dae3"
         stop-opacity=".5"
         offset="1"
         id="stop9"
         style="stop-color:#1e333d;stop-opacity:0.50218338" />
    </linearGradient>
  </defs>
  <path
     style="fill:url(#linearGradient3611)"
     d="m11.342 4.0059c-2.7253-0.132-5.3913 1.3462-6.6486 3.9589-1.6765 3.4832-0.2122 7.6672 3.2714 9.3442l0.8672-1.803c-2.4882-1.198-3.5352-4.186-2.3379-6.674 1.1975-2.4882 4.1859-3.5354 6.6739-2.3379 1.171 0.5638 2.039-1.2369 0.867-1.8007-0.871-0.4192-1.785-0.6435-2.693-0.6875z"
     id="path14" />
  <path
     style="fill:url(#linearGradient3605)"
     d="m14.035 4.6934l-0.867 1.8007c1.789 0.8613 2.805 2.6485 2.803 4.5099 0.01 0 0.019-0.004 0.029-0.004 0.742 0 1.409 0.287 1.93 0.742 0.306-2.8601-1.154-5.7297-3.895-7.0486zm-5.203 10.813l-0.8672 1.803c1.305 0.627 2.7022 0.787 4.0352 0.591v-2.035c-1.036 0.217-2.1409 0.135-3.168-0.359z"
     id="path16" />
  <path
     d="m16 12c-1.108 0-2 0.91085-2 2.0312v0.96875h-1v4h6v-4h-1v-0.96875c0-1.12-0.892-2.031-2-2.031zm0 1c0.554 0 1 0.4424 1 1v1h-2v-1c0-0.5576 0.446-1 1-1z"
     fill="#d3dae3"
     id="path18"
     style="fill:#1e333d;fill-opacity:1" />
</svg>
