<svg xmlns="http://www.w3.org/2000/svg" xmlns:xlink="http://www.w3.org/1999/xlink" viewBox="0 0 256 256" id="svg2" version="1.1"><defs id="defs4"><linearGradient gradientTransform="translate(-376.571 -491.798)" gradientUnits="userSpaceOnUse" y2="497.798" x2="408.571" y1="549.798" x1="408.571" id="linearGradient4291" xlink:href="#linearGradient4251-0"/><linearGradient id="linearGradient4251-0"><stop offset="0" id="stop4253-4" stop-color="#63984b" stop-opacity="1"/><stop offset="1" id="stop4255-2" stop-color="#8fc278" stop-opacity="1"/></linearGradient><linearGradient gradientUnits="userSpaceOnUse" y2="57" x2="57" y1="15" x1="15" id="linearGradient4383" xlink:href="#linearGradient4227"/><linearGradient id="linearGradient4227"><stop id="stop4229" offset="0" stop-color="#292c2f" stop-opacity="1"/><stop id="stop4231" offset="1" stop-color="#000" stop-opacity="0"/></linearGradient><linearGradient gradientTransform="matrix(.65385 0 0 .65385 141.429 181.315)" y2="497.798" x2="408.571" y1="549.798" x1="408.571" gradientUnits="userSpaceOnUse" id="linearGradient4337" xlink:href="#linearGradient4219"/><linearGradient id="linearGradient4219"><stop offset="0" id="stop4221" stop-color="#999a9c" stop-opacity="1"/><stop offset="1" id="stop4223" stop-color="#dcdfdf" stop-opacity="1"/></linearGradient><linearGradient gradientUnits="userSpaceOnUse" y2="27" x2="24" y1="10" x1="7" id="linearGradient5093" xlink:href="#linearGradient4227" gradientTransform="translate(392.571 507.798)"/><linearGradient gradientUnits="userSpaceOnUse" y2="522.798" x2="400.571" y1="536.798" x1="400.571" id="linearGradient5010" xlink:href="#linearGradient4159" gradientTransform="translate(8 -8)"/><linearGradient id="linearGradient4159"><stop offset="0" id="stop4161" stop-color="#2a2c2f" stop-opacity="1"/><stop offset="1" id="stop4163" stop-color="#424649" stop-opacity="1"/></linearGradient><linearGradient xlink:href="#linearGradient4303" id="linearGradient4158" x1="409.571" y1="543.798" x2="409.571" y2="503.798" gradientUnits="userSpaceOnUse" gradientTransform="matrix(1.125 0 0 1 -59.072 -8)"/><linearGradient id="linearGradient4303"><stop id="stop4305" offset="0" stop-color="#c6cdd1" stop-opacity="1"/><stop id="stop4307" offset="1" stop-color="#e0e5e7" stop-opacity="1"/></linearGradient><linearGradient gradientUnits="userSpaceOnUse" y2="532.798" x2="419.571" y1="512.798" x1="399.571" id="linearGradient4881" xlink:href="#linearGradient4400"/><linearGradient id="linearGradient4400"><stop id="stop4402" offset="0" stop-color="#020303" stop-opacity="1"/><stop id="stop4404" offset="1" stop-color="#424649" stop-opacity="0"/></linearGradient><linearGradient gradientUnits="userSpaceOnUse" y2="8" x2="32" y1="52" x1="32" id="linearGradient4659" xlink:href="#linearGradient4903"/><linearGradient id="linearGradient4903"><stop offset="0" id="stop4905" stop-color="#eef1f2" stop-opacity="1"/><stop offset="1" id="stop4907" stop-color="#f9fafb" stop-opacity="1"/></linearGradient><linearGradient gradientUnits="userSpaceOnUse" y2="41" x2="43" y1="21" x1="23" id="linearGradient4231" xlink:href="#linearGradient4400"/><linearGradient gradientUnits="userSpaceOnUse" y2="1033.362" x2="11" y1="1050.362" x1="11" id="linearGradient4793" xlink:href="#linearGradient4159"/><linearGradient xlink:href="#linearGradient4159" id="linearGradient4321" gradientUnits="userSpaceOnUse" x1="11" y1="1050.362" x2="11" y2="1033.362"/><style id="current-color-scheme" type="text/css">.ColorScheme-Text{color:#4d4d4d}</style></defs><path d="M16 10h224c3.324 0 6 2.676 6 6v224c0 3.324-2.676 6-6 6H16c-3.324 0-6-2.676-6-6V16c0-3.324 2.676-6 6-6z" id="rect4240" fill="currentColor" fill-opacity=".5" stroke="none" color="#31363b"/><path d="M16 12h224c2.216 0 4 1.784 4 4v224c0 2.216-1.784 4-4 4H16c-2.216 0-4-1.784-4-4V16c0-2.216 1.784-4 4-4z" id="rect4238" fill="currentColor" fill-opacity="1" stroke="none" color="#eff0f1"/><path class="ColorScheme-Text" d="M27.443 28.37c-1.084 0-2.042.25-2.873.753a4.948 4.948 0 0 0-1.904 2.086c-.444.894-.666 1.917-.666 3.07 0 .9.135 1.726.404 2.477.275.751.656 1.383 1.143 1.896a5.17 5.17 0 0 0 1.746 1.19c.682.28 1.422.42 2.22.42 1.143 0 2.163-.227 3.057-.682l-.326-1.039c-.867.407-1.726.611-2.578.611-1.312 0-2.352-.442-3.12-1.326-.76-.883-1.142-2.048-1.142-3.498 0-1.444.371-2.614 1.112-3.508.745-.899 1.761-1.35 3.047-1.35 1 0 1.87.234 2.617.7l.46-.912c-.825-.593-1.89-.889-3.197-.889zm62.55.062l-1.32.095v2.61l.065 1.914a3.34 3.34 0 0 0-.404-.596 2.557 2.557 0 0 0-.508-.469 2.115 2.115 0 0 0-.722-.332 3.742 3.742 0 0 0-.954-.111c-1.11 0-1.99.396-2.64 1.19-.646.793-.969 1.833-.969 3.119 0 1.354.311 2.43.936 3.228.629.794 1.523 1.19 2.681 1.19 1.201 0 2.075-.548 2.62-1.643l.118 1.484h1.096v-11.68zm-57.391.095v11.584h1.396V34.51h2.506c1.306 0 2.26-.264 2.857-.793.598-.534.897-1.32.897-2.358 0-.507-.092-.946-.278-1.316a2.103 2.103 0 0 0-.787-.889 3.749 3.749 0 0 0-1.173-.476c-.44-.1-.937-.15-1.493-.15h-3.925zm9.25 0v7.387c0 1.333.383 2.391 1.15 3.174.767.783 1.897 1.174 3.389 1.174.745 0 1.41-.105 1.992-.317.582-.217 1.055-.518 1.42-.904.37-.391.651-.85.842-1.373.19-.524.285-1.101.285-1.73v-7.41h-1.397v7.363c0 1.068-.264 1.88-.793 2.435-.529.55-1.313.826-2.35.826-2.094 0-3.142-1.087-3.142-3.261v-7.364h-1.396zm15.156 0v11.584h6.713l.031-1.062h-5.348V28.527h-1.396zm39.205 0l-.23 11.584h1.316l.111-7.148v-2.738l3.65 8.593h1.198l3.674-8.498v2.612l.111 7.18h1.3l-.23-11.585h-1.666l-3.767 8.8-3.754-8.8h-1.713zm32.547 0a.865.865 0 0 0-.627.239.802.802 0 0 0-.238.603c0 .249.08.45.238.61a.865.865 0 0 0 .627.238c.248 0 .455-.08.619-.238a.81.81 0 0 0 .246-.61.789.789 0 0 0-.246-.603.838.838 0 0 0-.62-.239zm4.847.889l-1.054.08-.215 2.22-1.293.089-.031.746h1.293v5.045c0 .513.044.928.134 1.246.09.317.252.579.485.785.238.206.544.35.92.43.375.079.868.119 1.476.119h.547l.063-.905-.666-.033c-.704-.026-1.155-.136-1.356-.332-.2-.2-.303-.639-.303-1.31V32.55h2.223v-.834h-2.223v-2.301zm-99.609.158h2.522c.761 0 1.341.137 1.738.412.402.27.603.733.603 1.389 0 .762-.182 1.297-.547 1.604-.36.306-.974.46-1.841.46h-2.475v-3.865zm34.8 1.969c-1.232 0-2.2.401-2.903 1.205-.699.799-1.047 1.857-1.047 3.174 0 1.285.353 2.333 1.062 3.142.709.804 1.672 1.206 2.889 1.206 1.19 0 2.146-.404 2.87-1.213.726-.815 1.089-1.86 1.089-3.135 0-1.317-.349-2.375-1.047-3.174-.698-.804-1.67-1.205-2.912-1.205zm8.745 0c-1.121 0-2.132.209-3.031.627l.355.967a5.671 5.671 0 0 1 1.319-.428 6.586 6.586 0 0 1 1.38-.158c.635 0 1.098.15 1.39.451.295.301.442.76.442 1.373v.824h-1.34c-1.348 0-2.334.216-2.953.645-.613.423-.92 1.088-.92 1.998 0 .762.234 1.356.7 1.785.47.428 1.09.643 1.863.643 1.153 0 2.09-.441 2.809-1.325l.144 1.159h.998v-5.54c0-1.068-.274-1.837-.824-2.308-.545-.476-1.322-.713-2.332-.713zm35.656 0c-1.232 0-2.199.401-2.902 1.205-.698.799-1.049 1.857-1.049 3.174 0 1.285.356 2.333 1.064 3.142.71.804 1.67 1.206 2.887 1.206 1.19 0 2.149-.404 2.873-1.213.725-.815 1.088-1.86 1.088-3.135 0-1.317-.35-2.375-1.049-3.174-.698-.804-1.669-1.205-2.912-1.205zm9.801 0c-1.264 0-2.215.443-2.85 1.332l-.142-1.158h-1.143v8.394h1.317V35.43c0-1.92.863-2.88 2.588-2.88.64 0 1.085.193 1.34.579.253.38.38.95.38 1.707v5.275h1.319V34.98c0-1.154-.232-2.015-.692-2.58-.455-.572-1.16-.856-2.117-.856zm18.098 0c-1.233 0-2.201.401-2.905 1.205-.698.799-1.047 1.857-1.047 3.174 0 1.285.354 2.333 1.063 3.142.709.804 1.672 1.206 2.889 1.206 1.19 0 2.148-.404 2.873-1.213.724-.815 1.086-1.86 1.086-3.135 0-1.317-.349-2.375-1.047-3.174-.698-.804-1.67-1.205-2.912-1.205zm9.521.086a2.71 2.71 0 0 0-1.451.43c-.455.28-.84.72-1.158 1.324l-.145-1.666h-1.054v8.394h1.318V35.36c0-.745.232-1.378.697-1.896.471-.519 1.066-.777 1.785-.777.148 0 .328.02.54.062l.056-1.078a3.553 3.553 0 0 0-.588-.041zm-22.517.088v8.394h1.3v-8.394h-1.3zm-59.303.834c.862 0 1.512.309 1.951.928.439.613.658 1.432.658 2.459 0 .655-.09 1.23-.27 1.722-.18.487-.47.878-.872 1.174-.397.29-.885.437-1.467.437-.847 0-1.493-.308-1.938-.921-.444-.614-.666-1.42-.666-2.42 0-1.021.222-1.838.666-2.451.445-.62 1.091-.928 1.938-.928zm17.543 0c.783 0 1.373.289 1.77.87.401.583.603 1.444.603 2.581-.005 1.042-.2 1.846-.58 2.412-.381.566-1.003.848-1.865.848-.82 0-1.425-.302-1.817-.905-.386-.603-.58-1.43-.58-2.482 0-1.058.207-1.877.62-2.453.412-.582 1.029-.871 1.849-.871zm26.857 0c.862 0 1.514.309 1.953.928.44.613.659 1.432.659 2.459 0 .655-.09 1.23-.27 1.722-.18.487-.471.878-.873 1.174-.397.29-.887.437-1.469.437-.846 0-1.491-.308-1.935-.921-.445-.614-.666-1.42-.666-2.42 0-1.021.221-1.838.666-2.451.444-.62 1.089-.928 1.935-.928zm27.899 0c.862 0 1.514.309 1.953.928.439.613.658 1.432.658 2.459 0 .655-.09 1.23-.27 1.722-.18.487-.47.878-.873 1.174-.396.29-.886.437-1.468.437-.847 0-1.492-.308-1.936-.921-.444-.614-.666-1.42-.666-2.42 0-1.021.222-1.838.666-2.451.444-.62 1.09-.928 1.936-.928zM78.39 36.072h1.007v1.85c-.629.926-1.485 1.389-2.57 1.389-.397 0-.728-.127-.992-.381-.265-.254-.397-.615-.397-1.08 0-.26.025-.476.073-.65a1.235 1.235 0 0 1 .785-.848c.222-.09.504-.16.848-.207.343-.048.759-.073 1.246-.073zM20 50v1h216v-1H20zm5.115 13.65c-.42 0-.813.048-1.176.147-.362.098-.69.25-.986.451a2.053 2.053 0 0 0-.697.799c-.17.336-.256.72-.256 1.154 0 .631.163 1.128.49 1.49.327.358.822.664 1.485.914l1.597.61c.627.242 1.047.481 1.262.719.22.232.328.584.328 1.054 0 .408-.098.75-.295 1.028a1.625 1.625 0 0 1-.752.59 3.037 3.037 0 0 1-1.074.175 4.98 4.98 0 0 1-1.564-.27 5.374 5.374 0 0 1-1.45-.73v1.06c.278.247.697.454 1.256.624.56.17 1.139.256 1.738.256.336 0 .654-.03.954-.088.304-.058.597-.155.879-.29.281-.138.525-.309.726-.515a2.24 2.24 0 0 0 .483-.793c.12-.322.181-.685.181-1.088 0-.326-.04-.618-.121-.873a2.395 2.395 0 0 0-.303-.644 1.945 1.945 0 0 0-.515-.49 4.277 4.277 0 0 0-.639-.381c-.201-.099-.463-.211-.785-.336l-1.545-.606c-.47-.183-.797-.384-.98-.603-.18-.224-.268-.542-.268-.953 0-.336.098-.618.295-.846.197-.228.446-.39.746-.485a3.29 3.29 0 0 1 1.027-.146c.417 0 .832.057 1.248.174.421.116.778.275 1.069.476l.43-.832a4.851 4.851 0 0 0-1.317-.55 5.52 5.52 0 0 0-1.47-.202zm192.14 0c-.715 0-1.324.212-1.825.637-.502.42-.877 1.008-1.123 1.76-.242.747-.362 1.636-.362 2.666 0 .743.066 1.419.196 2.027.134.604.33 1.137.59 1.598a2.92 2.92 0 0 0 1.033 1.066c.43.25.928.377 1.492.377.56 0 1.048-.126 1.469-.377a2.76 2.76 0 0 0 1.013-1.074c.255-.46.447-.993.573-1.598a9.969 9.969 0 0 0 .187-2.02 9.78 9.78 0 0 0-.201-2.081c-.134-.618-.334-1.149-.598-1.592a2.726 2.726 0 0 0-1.013-1.027c-.412-.242-.889-.362-1.43-.362zm-8.427.006c-.895 0-1.742.245-2.543.733l.361.818c.726-.416 1.442-.623 2.149-.623.52 0 .941.13 1.264.395.322.264.487.667.496 1.209v.046c0 1.155-.793 1.733-2.377 1.733h-.29v.9h.284c.327 0 .61.016.851.047.247.031.486.092.72.182.232.085.422.2.57.347.147.144.265.338.355.584.09.242.135.532.135.868 0 .608-.16 1.074-.483 1.396-.322.322-.77.482-1.343.482-.712 0-1.53-.235-2.452-.705v1.008c.828.434 1.657.65 2.485.65.855 0 1.559-.242 2.11-.73.554-.492.837-1.193.85-2.101v-.047c0-.667-.188-1.212-.564-1.633-.371-.42-.864-.695-1.482-.824 1.19-.31 1.785-1.055 1.785-2.237v-.04c-.004-.533-.143-.988-.416-1.364a2.337 2.337 0 0 0-1.041-.832 3.686 3.686 0 0 0-1.424-.262zm23.95.127l-5.573 9.803h.887l5.504-9.803h-.819zm-5.68.008c-.721 0-1.28.232-1.678.697-.398.461-.598 1.06-.598 1.793 0 .739.196 1.341.59 1.807.394.465.956.697 1.686.697.725 0 1.287-.232 1.685-.697.399-.47.598-1.073.598-1.807 0-.747-.198-1.348-.592-1.804-.39-.457-.953-.686-1.691-.686zm.006.625c.5 0 .874.166 1.12.502.251.331.378.784.378 1.357 0 .56-.127 1.015-.377 1.364-.247.344-.62.515-1.121.515-.502 0-.877-.17-1.127-.51-.251-.34-.377-.796-.377-1.369 0-.56.126-1.009.377-1.35.25-.34.625-.509 1.127-.509zm-182.545.12l-.893.068-.182 1.878-1.093.075-.028.63h1.094v4.272c0 .434.04.784.115 1.053.076.268.212.491.408.666.202.174.462.294.78.361s.735.102 1.25.102h.463l.052-.766-.564-.027c-.595-.023-.976-.116-1.147-.282-.17-.17-.255-.539-.255-1.107v-4.272h1.88v-.705h-1.88v-1.947zm172.697.02c1.423 0 2.135 1.372 2.135 4.116 0 1.383-.187 2.43-.559 3.142-.367.708-.891 1.061-1.576 1.061-.694 0-1.236-.357-1.625-1.068-.385-.717-.578-1.76-.578-3.13-.004-1.31.19-2.324.584-3.04.394-.72.934-1.08 1.619-1.08zM39.2 66.337c-.743 0-1.32.179-1.732.537-.412.354-.617.82-.617 1.397 0 .465.118.845.355 1.14.237.291.676.54 1.316.746l.778.248c.515.166.871.342 1.068.53a.928.928 0 0 1 .295.699c0 .403-.118.71-.355.926-.238.21-.57.316-1 .316-.685 0-1.453-.204-2.303-.611v.933a5.13 5.13 0 0 0 2.223.524c.335 0 .643-.04.925-.121a2.42 2.42 0 0 0 .766-.364c.228-.16.407-.376.537-.644.13-.273.195-.586.195-.94 0-.286-.028-.527-.082-.724a1.49 1.49 0 0 0-.295-.565 1.835 1.835 0 0 0-.597-.457 5.753 5.753 0 0 0-.973-.388L39 69.297c-.461-.148-.763-.286-.906-.416-.143-.13-.215-.342-.215-.633 0-.345.109-.606.328-.785.224-.184.593-.275 1.107-.275.578 0 1.176.157 1.793.47l.262-.826a4.832 4.832 0 0 0-2.168-.496zm11.588 0c-.94 0-1.713.338-2.322 1.014-.609.675-.914 1.581-.914 2.718 0 1.124.311 2.014.933 2.672.622.654 1.432.98 2.43.98.895 0 1.696-.208 2.398-.624l-.236-.785a6.83 6.83 0 0 1-1.02.423c-.304.094-.642.141-1.013.141-.685 0-1.24-.218-1.666-.652-.425-.439-.656-1.11-.691-2.014h4.8l.041-.564c0-1.039-.235-1.848-.705-2.43-.465-.587-1.144-.88-2.035-.88zm7.473 0c-.909 0-1.64.399-2.19 1.195l-.127-1.049h-.9v7.104h1.115v-4.33c.094-.622.3-1.122.617-1.498.323-.38.757-.57 1.303-.57.497 0 .838.187 1.022.558.183.367.275.983.275 1.852v3.988h1.113V69.94c.014-.617.039-.988.074-1.109.121-.533.35-.939.686-1.22a1.732 1.732 0 0 1 1.146-.424c.193 0 .361.03.504.087a.73.73 0 0 1 .35.256c.09.117.161.235.215.356.054.116.09.27.113.463.023.192.037.356.041.49.01.13.014.303.014.517v4.229h1.115v-4.578c0-1.782-.726-2.672-2.176-2.672-1.03 0-1.81.481-2.343 1.443-.166-.452-.401-.805-.706-1.06-.304-.255-.724-.383-1.261-.383zm-28.903.146l2.813 6.89-1.047 2.671 1 .215 3.738-9.776h-1.127l-2.027 5.674-2.217-5.674H29.36zm21.457.706c1.128 0 1.718.766 1.772 2.296H48.72c.062-.707.282-1.266.658-1.677.38-.412.86-.62 1.437-.62zm182.9 1.404c-.72 0-1.279.232-1.677.697-.398.466-.598 1.065-.598 1.799 0 .738.196 1.341.59 1.807.394.465.956.699 1.686.699.725 0 1.287-.234 1.685-.7.399-.47.598-1.072.598-1.806 0-.748-.196-1.348-.59-1.805-.39-.46-.955-.691-1.693-.691zm.009.63c.5 0 .875.169 1.12.505.251.33.376.782.376 1.355 0 .56-.125 1.014-.375 1.363-.246.35-.62.524-1.121.524-.502 0-.879-.17-1.13-.51-.25-.345-.374-.804-.374-1.377 0-.56.124-1.01.375-1.35.25-.34.627-.51 1.129-.51zM20 138v1h216v-1H20zm6.484 13.65c-.917 0-1.727.212-2.43.637a4.189 4.189 0 0 0-1.61 1.766c-.377.756-.565 1.624-.565 2.6 0 .76.113 1.458.342 2.093.232.636.555 1.171.966 1.606.412.43.906.764 1.479 1.005a4.894 4.894 0 0 0 1.879.358c.967 0 1.83-.193 2.586-.578l-.276-.88c-.734.345-1.46.516-2.181.516-1.11 0-1.99-.373-2.639-1.12-.644-.748-.967-1.735-.967-2.962 0-1.222.313-2.21.94-2.966.63-.761 1.49-1.141 2.578-1.141.846 0 1.584.196 2.215.59l.39-.772c-.698-.501-1.601-.752-2.707-.752zm190.772 0c-.716 0-1.325.212-1.826.637-.502.42-.877 1.008-1.123 1.76-.242.747-.362 1.636-.362 2.666 0 .743.066 1.419.196 2.027.134.604.33 1.137.59 1.598a2.92 2.92 0 0 0 1.033 1.066c.43.251.928.377 1.492.377.56 0 1.048-.126 1.469-.377a2.76 2.76 0 0 0 1.013-1.074c.255-.46.447-.993.573-1.598a9.969 9.969 0 0 0 .187-2.02 9.78 9.78 0 0 0-.201-2.081c-.134-.618-.334-1.149-.598-1.592a2.725 2.725 0 0 0-1.013-1.027c-.412-.242-.889-.362-1.43-.362zm-186.406.133v9.803h1.181v-4.74h2.121c1.106 0 1.91-.223 2.416-.67.506-.452.76-1.117.76-1.994 0-.43-.078-.802-.234-1.116a1.78 1.78 0 0 0-.666-.752 3.176 3.176 0 0 0-.994-.402 5.672 5.672 0 0 0-1.262-.129H30.85zm7.828 0v6.252c0 1.128.323 2.023.972 2.686.65.662 1.605.994 2.868.994.63 0 1.193-.09 1.685-.27.492-.183.892-.439 1.201-.765.314-.332.552-.72.713-1.162.161-.444.24-.93.24-1.463v-6.272h-1.181v6.23c0 .905-.223 1.593-.67 2.063-.448.466-1.111.697-1.988.697-1.773 0-2.659-.92-2.659-2.76v-6.23h-1.181zm170.46 0c-.232.161-.583.325-1.048.49-.461.162-.86.277-1.195.344v.885c.3-.04.662-.127 1.087-.262.43-.134.787-.279 1.069-.435v7.976h-2.363v.805h5.585v-.805h-2.107v-8.998h-1.027zm23.64 0l-5.573 9.803h.887l5.504-9.803h-.819zm-5.68.008c-.721 0-1.28.232-1.678.697-.398.461-.598 1.06-.598 1.793 0 .739.196 1.341.59 1.807.394.465.956.697 1.686.697.725 0 1.287-.232 1.685-.697.399-.47.598-1.073.598-1.807 0-.747-.198-1.348-.592-1.804-.39-.457-.953-.686-1.691-.686zm.006.625c.5 0 .874.166 1.12.502.251.331.378.784.378 1.357 0 .56-.127 1.015-.377 1.364-.247.344-.62.515-1.121.515-.502 0-.877-.17-1.127-.51-.251-.34-.377-.796-.377-1.369 0-.56.126-1.01.377-1.35.25-.34.625-.509 1.127-.509zm-9.848.14c1.423 0 2.135 1.372 2.135 4.116 0 1.383-.187 2.43-.559 3.142-.367.708-.891 1.061-1.576 1.061-.694 0-1.236-.357-1.625-1.068-.385-.717-.578-1.76-.578-3.13-.004-1.31.19-2.324.584-3.04.394-.72.934-1.08 1.619-1.08zm-185.225.114h2.135c.645 0 1.135.117 1.47.35.34.228.51.62.51 1.175 0 .645-.154 1.096-.462 1.356-.305.26-.825.388-1.559.388h-2.094v-3.27zm201.686 3.922c-.72 0-1.28.232-1.678.697-.398.466-.598 1.065-.598 1.799 0 .738.196 1.341.59 1.807.394.465.956.699 1.686.699.725 0 1.287-.234 1.685-.7.399-.47.598-1.072.598-1.806 0-.748-.196-1.348-.59-1.805-.39-.46-.955-.691-1.693-.691zm.008.63c.5 0 .875.169 1.12.505.251.33.376.782.376 1.355 0 .56-.125 1.014-.375 1.363-.246.35-.62.524-1.121.524-.502 0-.879-.17-1.13-.51-.25-.345-.374-.804-.374-1.377 0-.56.124-1.01.375-1.35.25-.34.627-.51 1.129-.51zM20 226v1h216v-1H20z" id="rect7886" fill="currentColor" fill-opacity="1" stroke="none"/><path d="M28.496 85.01c-2.687.048-5.51.363-8.496.99v52h216v-32c-16 0-51 25-61 25s-20-30-35-30-15 20-35 20c-32.266 0-44.801-36.563-76.504-35.99zM175 176c-25 0-20 25-35 25s-20 20-40 20c-15 0-25-40-80-40v45h216l-1-10c-25 0-35-40-60-40z" id="path5466" fill="#3daee9" fill-opacity="1" stroke="none"/><g transform="matrix(.61538 0 0 .61538 -211.429 -115.337)" id="layer1-2" fill-opacity="1" stroke="none"><path id="path4346" transform="translate(376.571 491.798)" d="M6 15v1l3.2 2.4.8-.4-4-3z" fill="#dce269" fill-rule="evenodd" stroke-width="1" stroke-linecap="butt" stroke-linejoin="miter" stroke-opacity="1"/><path id="rect4283" transform="translate(376.571 491.798)" d="M6 6v9l4 3-4 2v38h52V6H6z" opacity="1" fill="url(#linearGradient4291)"/><path id="path4378" transform="translate(376.571 491.798)" d="M49 15L15 49l9 9h34V24l-9-9z" opacity=".2" fill="url(#linearGradient4383)" fill-rule="evenodd" stroke-width="1" stroke-linecap="butt" stroke-linejoin="miter" stroke-opacity="1"/><path id="rect4293" opacity="1" fill="#dce269" d="M382.571 548.798h52v1h-52z"/><path id="path4303-6" d="M427.571 543.798v1h-1v-1h1zm-1 1v1h-1v-1h1zm-1 0h-1v-1h1v1zm-1 0v1h-1v-1h1zm-1 0h-1v-1h1v1zm-1 0v1h-1v-1h1zm-1 0h-1v-1h1v1zm-1 0v1h-1v-1h1zm-1 0h-1v-1h1v1zm-1 0v1h-1v-1h1zm-1 0h-1v-1h1v1zm-1 0v1h-1v-1h1zm-1 0h-1v-1h1v1zm-1 0v1h-1v-1h1zm-1 0h-1v-1h1v1zm-1 0v1h-1v-1h1z" style="line-height:normal;-inkscape-font-specification:Sans;text-indent:0;text-align:start;text-decoration-line:none;text-transform:none;block-progression:tb;marker:none" color="#000" font-style="normal" font-variant="normal" font-weight="400" font-stretch="normal" font-size="medium" font-family="Sans" text-decoration="none" letter-spacing="normal" word-spacing="normal" direction="ltr" writing-mode="lr-tb" baseline-shift="baseline" text-anchor="start" display="inline" overflow="visible" visibility="visible" opacity=".6" fill="#dee372" stroke-width="1"/><path id="path4317" d="M431.571 543.798l-2 2h2v-2z" fill="#e6ea97" fill-rule="evenodd"/><path style="line-height:normal;-inkscape-font-specification:Sans;text-indent:0;text-align:start;text-decoration-line:none;text-transform:none;block-progression:tb;marker:none" d="M387.571 543.798v1h1v-1h-1zm1 1v1h1v-1h-1zm1 0h1v-1h-1v1zm1 0v1h1v-1h-1zm1 0h1v-1h-1v1zm1 0v1h1v-1h-1zm1 0h1v-1h-1v1zm1 0v1h1v-1h-1zm1 0h1v-1h-1v1zm1 0v1h1v-1h-1zm1 0h1v-1h-1v1zm1 0v1h1v-1h-1zm1 0h1v-1h-1v1zm1 0v1h1v-1h-1zm1 0h1v-1h-1v1zm1 0v1h1v-1h-1z" id="path4331" color="#000" font-style="normal" font-variant="normal" font-weight="400" font-stretch="normal" font-size="medium" font-family="Sans" text-decoration="none" letter-spacing="normal" word-spacing="normal" direction="ltr" writing-mode="lr-tb" baseline-shift="baseline" text-anchor="start" display="inline" overflow="visible" visibility="visible" opacity=".6" fill="#dee372" stroke-width="1"/><path style="line-height:normal;-inkscape-font-specification:Sans;text-indent:0;text-align:start;text-decoration-line:none;text-transform:none;block-progression:tb;marker:none" d="M432.571 521.798h-1v-1h1v1zm-1-1h-1v-1h1v1zm0-1v-1h1v1h-1zm0-1h-1v-1h1v1zm0-1v-1h1v1h-1zm0-1h-1v-1h1v1zm0-1v-1h1v1h-1zm0-1h-1v-1h1v1zm0-1v-1h1v1h-1zm0-1h-1v-1h1v1zm0-1v-1h1v1h-1zm0-1h-1v-1h1v1zm0-1v-1h1v1h-1zm0-1h-1v-1h1v1zm0-1v-1h1v1h-1zm0-1h-1v-1h1v1z" id="path4333" color="#000" font-style="normal" font-variant="normal" font-weight="400" font-stretch="normal" font-size="medium" font-family="Sans" text-decoration="none" letter-spacing="normal" word-spacing="normal" direction="ltr" writing-mode="lr-tb" baseline-shift="baseline" text-anchor="start" display="inline" overflow="visible" visibility="visible" opacity=".6" fill="#dee372" stroke-width="1"/><path id="rect4335" opacity="1" fill="url(#linearGradient4337)" d="M391.571 506.798h34v34h-34z"/><path id="path4339" transform="translate(376.571 491.798)" d="M54 40v1h1v-1zm1 1v1h1v-1zm0 1h-1v1h1zm0 1v1h1v-1zm0 1h-1v1h1zm0 1v1h1v-1zm0 1h-1v1h1zm0 1v1h1v-1zm0 1h-1v1h1z" style="line-height:normal;-inkscape-font-specification:Sans;text-indent:0;text-align:start;text-decoration-line:none;text-transform:none;block-progression:tb;marker:none" color="#000" font-style="normal" font-variant="normal" font-weight="400" font-stretch="normal" font-size="medium" font-family="Sans" text-decoration="none" letter-spacing="normal" word-spacing="normal" direction="ltr" writing-mode="lr-tb" baseline-shift="baseline" text-anchor="start" display="inline" overflow="visible" visibility="visible" opacity=".6" fill="#dee372" stroke-width="1"/><path id="path5074" d="M404.571 516.898v1.5l7.217 7.183-1.217 1.217 7 7v-10l-2-2-2.533 2.533-7.467-7.433h-1zm-2 5.4v2.2l4 3.974v2.326l7 7h4v-1.58l-14-13.92h-1z" opacity=".2" fill="url(#linearGradient5093)" fill-rule="evenodd" stroke-width="1" stroke-linecap="butt" stroke-linejoin="miter" stroke-opacity="1"/><path id="path4783" d="M405.071 516.798a.873.873 0 0 0-.875.875c0 .485.39.875.875.875s.875-.39.875-.875a.873.873 0 0 0-.875-.875zm5.5 0l-2 2 3 3-3 3 2 2 3-3 2-2-2-2-3-3zm-7.687 5.25a1.31 1.31 0 0 0-1.313 1.312 1.31 1.31 0 0 0 1.313 1.313 1.31 1.31 0 0 0 1.312-1.313 1.31 1.31 0 0 0-1.312-1.312zm3.937 5.25c-.97 0-1.75.78-1.75 1.75s.78 1.75 1.75 1.75 1.75-.78 1.75-1.75-.78-1.75-1.75-1.75z" opacity="1" fill="url(#linearGradient5010)"/><path id="rect4167" opacity="1" fill="#616365" d="M391.571 539.798h34v1h-34z"/><path id="rect4172" opacity="1" fill="#484a4b" d="M393.571 535.798h8v1h-8z"/><path id="rect4174" opacity="1" fill="#484a4b" d="M393.571 537.798h4v1h-4z"/><path id="rect4176" transform="translate(376.571 491.798)" d="M42 16v1h2v-1h-2zm2 1v1h-2v3h1v-2h1v2h3v-1h-1v-1h-1v-1h1v-1h-2zm2 0h1v-1h-1v1zm0 1v1h1v-1h-1z" opacity="1" fill="#484a4b"/></g><g transform="translate(-244.224 -247.468) scale(.69565)" id="layer1-1"><rect ry="0" y="497.798" x="385.571" height="52" width="46" id="rect4139" opacity="1" fill="url(#linearGradient4158)" fill-opacity="1" stroke="none"/><path id="path4795" d="M387.571 543.798l6 6h38v-48l-2-2v44z" opacity=".2" fill="url(#linearGradient4881)" fill-opacity="1" fill-rule="evenodd" stroke="none" stroke-width="1" stroke-linecap="butt" stroke-linejoin="miter" stroke-opacity="1"/><path id="rect4492" opacity="1" fill="#737b81" fill-opacity="1" stroke="none" stroke-width="2.8" stroke-miterlimit="4" stroke-dasharray="none" stroke-opacity=".55" d="M385.571 548.798h46v1h-46z"/><path id="rect4671" opacity="1" fill="#292c2e" fill-opacity="1" stroke="none" stroke-width=".1" stroke-miterlimit="4" stroke-dasharray="none" stroke-opacity="1" d="M393.571 545.798h30v4h-30z"/><rect id="rect4963" width="15.6" height="15.6" x="400.772" y="506.898" ry="7.8" opacity="1" fill="#abb9be" fill-opacity="1" stroke="none" stroke-width=".1" stroke-miterlimit="4" stroke-dasharray="none" stroke-opacity="1"/><path transform="translate(376.571 491.798)" id="path4648" d="M11 8v44h42V8H11z" fill="url(#linearGradient4659)" fill-opacity="1" fill-rule="evenodd" stroke="none" stroke-width="1" stroke-linecap="butt" stroke-linejoin="miter" stroke-opacity="1"/><path id="rect4985" opacity="1" fill="#fdbc4a" fill-opacity="1" stroke="none" stroke-width=".1" stroke-miterlimit="4" stroke-dasharray="none" stroke-opacity="1" d="M390.571 532.798h12v5h-12z"/><path id="rect5119" opacity="1" fill="#fff" fill-opacity="1" stroke="none" stroke-width=".1" stroke-miterlimit="4" stroke-dasharray="none" stroke-opacity="1" d="M391.571 533.798h10v1h-10z"/><path id="rect5121" opacity="1" fill="#fff" fill-opacity="1" stroke="none" stroke-width=".1" stroke-miterlimit="4" stroke-dasharray="none" stroke-opacity="1" d="M391.571 535.798h8v1h-8z"/><path id="rect4194" opacity="1" fill="#202324" fill-opacity="1" stroke="none" stroke-opacity="1" d="M393.571 548.798h30v1h-30z"/><rect ry="0" y="546.798" x="395.572" height="1" width="2" id="rect4544" opacity="1" fill="#f9cf8d" fill-opacity="1" stroke="none" stroke-opacity="1"/><rect ry="0" y="547.798" x="395.572" height="1" width="2" id="rect4546" opacity="1" fill="#f6b44d" fill-opacity="1" stroke="none" stroke-opacity="1"/><rect ry="0" y="546.798" x="419.572" height="1" width="2" id="rect4544-0" opacity="1" fill="#f9cf8d" fill-opacity="1" stroke="none" stroke-opacity="1"/><rect ry="0" y="547.798" x="419.572" height="1" width="2" id="rect4546-7" opacity="1" fill="#f6b44d" fill-opacity="1" stroke="none" stroke-opacity="1"/><rect ry="0" y="546.798" x="398.572" height="1" width="2" id="rect4544-6" opacity="1" fill="#f9cf8d" fill-opacity="1" stroke="none" stroke-opacity="1"/><rect ry="0" y="547.798" x="398.572" height="1" width="2" id="rect4546-5" opacity="1" fill="#f6b44d" fill-opacity="1" stroke="none" stroke-opacity="1"/><rect ry="0" y="546.798" x="401.572" height="1" width="2" id="rect4544-1" opacity="1" fill="#f9cf8d" fill-opacity="1" stroke="none" stroke-opacity="1"/><rect ry="0" y="547.798" x="401.572" height="1" width="2" id="rect4546-3" opacity="1" fill="#f6b44d" fill-opacity="1" stroke="none" stroke-opacity="1"/><rect ry="0" y="546.798" x="407.571" height="1" width="2" id="rect4544-06" opacity="1" fill="#f9cf8d" fill-opacity="1" stroke="none" stroke-opacity="1"/><rect ry="0" y="547.798" x="407.571" height="1" width="2" id="rect4546-6" opacity="1" fill="#f6b44d" fill-opacity="1" stroke="none" stroke-opacity="1"/><rect ry="0" y="546.798" x="416.572" height="1" width="2" id="rect4544-9" opacity="1" fill="#f9cf8d" fill-opacity="1" stroke="none" stroke-opacity="1"/><rect ry="0" y="547.798" x="416.572" height="1" width="2" id="rect4546-0" opacity="1" fill="#f6b44d" fill-opacity="1" stroke="none" stroke-opacity="1"/><rect ry="0" y="546.798" x="413.572" height="1" width="2" id="rect4544-8" opacity="1" fill="#f9cf8d" fill-opacity="1" stroke="none" stroke-opacity="1"/><rect ry="0" y="547.798" x="413.572" height="1" width="2" id="rect4546-55" opacity="1" fill="#f6b44d" fill-opacity="1" stroke="none" stroke-opacity="1"/><rect ry="0" y="546.798" x="410.572" height="1" width="2" id="rect4544-8-8" opacity="1" fill="#f9cf8d" fill-opacity="1" stroke="none" stroke-opacity="1"/><rect ry="0" y="547.798" x="410.572" height="1" width="2" id="rect4546-55-5" opacity="1" fill="#f6b44d" fill-opacity="1" stroke="none" stroke-opacity="1"/><rect ry="0" y="546.798" x="404.572" height="1" width="2" id="rect4544-8-89" opacity="1" fill="#f9cf8d" fill-opacity="1" stroke="none" stroke-opacity="1"/><rect ry="0" y="547.798" x="404.572" height="1" width="2" id="rect4546-55-7" opacity="1" fill="#f6b44d" fill-opacity="1" stroke="none" stroke-opacity="1"/><path id="rect4979" class="ColorScheme-Text" color="#4d4d4d" opacity="1" fill="currentColor" fill-opacity="1" stroke="none" stroke-width=".1" stroke-miterlimit="4" stroke-dasharray="none" stroke-opacity="1" d="M414.571 532.798h13v1h-13z"/><path id="rect4981" class="ColorScheme-Text" color="#4d4d4d" opacity="1" fill="currentColor" fill-opacity="1" stroke="none" stroke-width=".1" stroke-miterlimit="4" stroke-dasharray="none" stroke-opacity="1" d="M414.571 534.798h13v1h-13z"/><path id="rect4983" class="ColorScheme-Text" color="#4d4d4d" opacity="1" fill="currentColor" fill-opacity="1" stroke="none" stroke-width=".1" stroke-miterlimit="4" stroke-dasharray="none" stroke-opacity="1" d="M414.571 536.798h13v1h-13z"/><path transform="translate(376.571 491.798)" id="rect4200" d="M18.707 14.293l-1.414 1.414 8 8L25 24l30 30V44L30 19l-3.293 3.293-8-8zm-2.146 6.146l-2.122 2.122 5.5 5.5-1.353 1.353L47.17 58h6.953L16.561 20.44z" opacity=".2" fill="url(#linearGradient4231)" fill-opacity="1" stroke="none" stroke-opacity="1"/><g id="layer1-7" transform="translate(387.571 -527.564)" fill="url(#linearGradient4793)" fill-opacity="1"><path d="M7 3c-.554 0-1 .446-1 1s.446 1 1 1 1-.446 1-1-.446-1-1-1zm7 0l-2 2 3 3-3 3 2 2 3-3 2-2-5-5zM4.5 9C3.669 9 3 9.669 3 10.5S3.669 12 4.5 12 6 11.331 6 10.5 5.331 9 4.5 9zM9 15c-1.108 0-2 .892-2 2s.892 2 2 2 2-.892 2-2-.892-2-2-2z" transform="translate(0 1030.362)" id="rect4231" opacity="1" fill="url(#linearGradient4321)" fill-opacity="1" stroke="none"/></g></g></svg>