<svg xmlns="http://www.w3.org/2000/svg" viewBox="0 0 256 256"><defs id="defs4"><style id="current-color-scheme" type="text/css"></style></defs><path d="M16 10h224c3.324 0 6 2.676 6 6v224c0 3.324-2.676 6-6 6H16c-3.324 0-6-2.676-6-6V16c0-3.324 2.676-6 6-6z" id="rect4240" fill="currentColor" fill-opacity=".5" stroke="none" color="#31363b"/><path d="M16 12h224c2.216 0 4 1.784 4 4v224c0 2.216-1.784 4-4 4H16c-2.216 0-4-1.784-4-4V16c0-2.216 1.784-4 4-4z" id="rect4238" fill="currentColor" fill-opacity="1" stroke="none" color="#eff0f1"/><path d="M21.207 26.734v1.063h3.443v10.521h1.397V27.797h3.467v-1.063h-8.307zm10.545 0a.865.865 0 0 0-.627.239.798.798 0 0 0-.238.601c0 .249.08.453.238.612a.865.865 0 0 0 .627.238c.249 0 .455-.08.62-.238a.814.814 0 0 0 .245-.612.784.784 0 0 0-.246-.601.838.838 0 0 0-.619-.239zm6.824 3.016c-1.074 0-1.937.47-2.588 1.412l-.15-1.238h-1.063v8.394h1.317v-5.117c.11-.735.355-1.325.73-1.77.381-.449.894-.675 1.54-.675.586 0 .988.221 1.204.66.217.434.327 1.163.327 2.19v4.712h1.316V34.01c.016-.73.046-1.166.088-1.309.143-.63.412-1.112.808-1.445.397-.333.85-.5 1.358-.5.227 0 .426.035.596.103a.86.86 0 0 1 .412.303c.105.138.19.277.254.42.063.138.108.32.134.547.027.227.042.421.047.58.01.153.018.357.018.611v4.998h1.316v-5.412c0-2.105-.856-3.156-2.57-3.156-1.217 0-2.14.568-2.77 1.705-.195-.534-.474-.952-.834-1.254-.36-.301-.855-.451-1.49-.451zm13.162 0c-1.11 0-2.024.399-2.744 1.197-.72.799-1.08 1.87-1.08 3.213 0 1.328.368 2.38 1.104 3.158.735.773 1.691 1.159 2.87 1.159 1.059 0 2.004-.247 2.835-.739l-.278-.927a8.074 8.074 0 0 1-1.207.5c-.36.11-.758.166-1.197.166-.81 0-1.466-.257-1.969-.77-.502-.518-.774-1.31-.816-2.379h5.672l.049-.668c0-1.227-.279-2.183-.834-2.87-.55-.694-1.352-1.04-2.405-1.04zm8.887.086a2.71 2.71 0 0 0-1.451.43c-.455.28-.841.72-1.158 1.324l-.143-1.666h-1.057v8.394h1.319v-4.752c0-.745.232-1.378.697-1.896.47-.518 1.066-.777 1.785-.777.148 0 .328.02.54.062l.056-1.078a3.551 3.551 0 0 0-.588-.041zm-29.531.088v8.394h1.3v-8.394h-1.3zm20.677.832c1.333 0 2.03.906 2.094 2.715h-4.57c.074-.836.333-1.498.777-1.985.45-.486 1.017-.73 1.7-.73zM20 50v1h216v-1H20zm32.91 62c-2.262 0-4.186.67-5.77 2.014-1.583 1.329-2.763 3.181-3.54 5.556-.764 2.361-1.145 5.169-1.145 8.42 0 2.347.205 4.482.615 6.405.424 1.908 1.046 3.59 1.866 5.046.834 1.442 1.922 2.566 3.265 3.372 1.357.791 2.928 1.187 4.71 1.187 1.766 0 3.313-.396 4.642-1.187 1.343-.806 2.411-1.937 3.203-3.393.806-1.456 1.407-3.138 1.803-5.047.395-1.908.593-4.036.593-6.383 0-2.446-.212-4.637-.636-6.574-.424-1.95-1.053-3.626-1.887-5.025-.82-1.414-1.888-2.497-3.203-3.246-1.3-.764-2.805-1.145-4.516-1.145zm25.531 0c-2.262 0-4.184.67-5.767 2.014-1.584 1.329-2.764 3.181-3.541 5.556-.764 2.361-1.147 5.169-1.147 8.42 0 2.347.206 4.482.616 6.405.424 1.908 1.047 3.59 1.867 5.046.834 1.442 1.922 2.566 3.265 3.372 1.358.791 2.926 1.187 4.707 1.187 1.768 0 3.316-.396 4.645-1.187 1.343-.806 2.41-1.937 3.201-3.393.806-1.456 1.407-3.138 1.803-5.047.396-1.908.594-4.036.594-6.383 0-2.446-.213-4.637-.637-6.574-.424-1.95-1.053-3.626-1.887-5.025-.82-1.414-1.886-2.497-3.201-3.246-1.3-.764-2.807-1.145-4.518-1.145zm36.899 0c-2.262 0-4.184.67-5.768 2.014-1.583 1.329-2.763 3.181-3.54 5.556-.764 2.361-1.147 5.169-1.147 8.42 0 2.347.205 4.482.615 6.405.424 1.908 1.047 3.59 1.867 5.046.834 1.442 1.923 2.566 3.266 3.372 1.357.791 2.926 1.187 4.707 1.187 1.767 0 3.315-.396 4.644-1.187 1.343-.806 2.41-1.937 3.202-3.393.805-1.456 1.406-3.138 1.802-5.047.396-1.908.594-4.036.594-6.383 0-2.446-.21-4.637-.635-6.574-.424-1.95-1.054-3.626-1.888-5.025-.82-1.414-1.887-2.497-3.202-3.246-1.3-.764-2.807-1.145-4.517-1.145zm25.533 0c-2.262 0-4.186.67-5.77 2.014-1.583 1.329-2.763 3.181-3.54 5.556-.764 2.361-1.145 5.169-1.145 8.42 0 2.347.205 4.482.615 6.405.424 1.908 1.045 3.59 1.865 5.046.835 1.442 1.923 2.566 3.266 3.372 1.357.791 2.928 1.187 4.71 1.187 1.766 0 3.313-.396 4.642-1.187 1.343-.806 2.411-1.937 3.203-3.393.806-1.456 1.407-3.138 1.802-5.047.396-1.908.594-4.036.594-6.383 0-2.446-.212-4.637-.636-6.574-.425-1.95-1.053-3.626-1.887-5.025-.82-1.414-1.889-2.497-3.203-3.246-1.301-.764-2.805-1.145-4.516-1.145zm36.898 0c-2.261 0-4.186.67-5.769 2.014-1.583 1.329-2.764 3.181-3.541 5.556-.763 2.361-1.145 5.169-1.145 8.42 0 2.347.206 4.482.616 6.405.424 1.908 1.045 3.59 1.865 5.046.834 1.442 1.922 2.566 3.265 3.372 1.358.791 2.928 1.187 4.71 1.187 1.767 0 3.313-.396 4.642-1.187 1.343-.806 2.411-1.937 3.203-3.393.806-1.456 1.407-3.138 1.803-5.047.396-1.908.594-4.036.594-6.383 0-2.446-.213-4.637-.637-6.574-.424-1.95-1.053-3.626-1.887-5.025-.82-1.414-1.888-2.497-3.203-3.246-1.3-.764-2.805-1.145-4.516-1.145zm25.532 0c-2.262 0-4.184.67-5.768 2.014-1.583 1.329-2.763 3.181-3.54 5.556-.764 2.361-1.147 5.169-1.147 8.42 0 2.347.205 4.482.615 6.405.424 1.908 1.047 3.59 1.867 5.046.834 1.442 1.923 2.566 3.266 3.372 1.357.791 2.925 1.187 4.707 1.187 1.767 0 3.315-.396 4.644-1.187 1.343-.806 2.41-1.937 3.201-3.393.806-1.456 1.407-3.138 1.803-5.047.396-1.908.594-4.036.594-6.383 0-2.446-.21-4.637-.635-6.574-.424-1.95-1.054-3.626-1.889-5.025-.82-1.414-1.886-2.497-3.2-3.246-1.301-.764-2.808-1.145-4.518-1.145zM52.91 114.863c4.496 0 6.742 4.332 6.742 12.998 0 4.369-.586 7.678-1.76 9.926-1.159 2.234-2.819 3.35-4.982 3.35-2.191 0-3.903-1.124-5.133-3.371-1.215-2.262-1.824-5.557-1.824-9.883-.014-4.142.602-7.344 1.846-9.606 1.244-2.276 2.948-3.414 5.111-3.414zm25.531 0c4.496 0 6.745 4.332 6.745 12.998 0 4.369-.589 7.678-1.762 9.926-1.16 2.234-2.82 3.35-4.983 3.35-2.19 0-3.902-1.124-5.132-3.371-1.216-2.262-1.823-5.557-1.823-9.883-.014-4.142.6-7.344 1.844-9.606 1.244-2.276 2.948-3.414 5.111-3.414zm36.899 0c4.496 0 6.744 4.332 6.744 12.998 0 4.369-.586 7.678-1.76 9.926-1.159 2.234-2.821 3.35-4.984 3.35-2.191 0-3.901-1.124-5.131-3.371-1.216-2.262-1.824-5.557-1.824-9.883-.014-4.142.6-7.344 1.844-9.606 1.244-2.276 2.948-3.414 5.11-3.414zm25.533 0c4.496 0 6.742 4.332 6.742 12.998 0 4.369-.586 7.678-1.76 9.926-1.159 2.234-2.819 3.35-4.982 3.35-2.191 0-3.903-1.124-5.133-3.371-1.216-2.262-1.824-5.557-1.824-9.883-.014-4.142.602-7.344 1.846-9.606 1.244-2.276 2.948-3.414 5.111-3.414zm36.898 0c4.496 0 6.743 4.332 6.743 12.998 0 4.369-.587 7.678-1.76 9.926-1.16 2.234-2.82 3.35-4.983 3.35-2.19 0-3.902-1.124-5.132-3.371-1.216-2.262-1.825-5.557-1.825-9.883-.014-4.142.602-7.344 1.846-9.606 1.244-2.276 2.948-3.414 5.111-3.414zm25.532 0c4.495 0 6.744 4.332 6.744 12.998 0 4.369-.586 7.678-1.76 9.926-1.16 2.234-2.821 3.35-4.984 3.35-2.192 0-3.901-1.124-5.131-3.371-1.216-2.262-1.824-5.557-1.824-9.883-.014-4.142.6-7.344 1.843-9.606 1.244-2.276 2.949-3.414 5.112-3.414zM96.807 120.95c-.834 0-1.478.24-1.93.72a2.298 2.298 0 0 0-.68 1.655c0 .65.228 1.217.68 1.697.452.467 1.096.7 1.93.7.834 0 1.47-.233 1.908-.7.452-.48.678-1.046.678-1.697 0-.636-.226-1.188-.678-1.654-.438-.48-1.074-.72-1.908-.72zm62.43 0c-.835 0-1.478.24-1.93.72a2.296 2.296 0 0 0-.678 1.655c0 .65.225 1.217.678 1.697.452.467 1.095.7 1.93.7.833 0 1.47-.233 1.908-.7.452-.48.68-1.046.68-1.697 0-.636-.228-1.188-.68-1.654-.439-.48-1.075-.72-1.909-.72zm-62.43 17.918c-.834 0-1.478.235-1.93.701a2.324 2.324 0 0 0-.68 1.676c0 .636.228 1.193.68 1.674.452.467 1.096.701 1.93.701.834 0 1.47-.235 1.908-.701.452-.48.678-1.038.678-1.674 0-.65-.226-1.21-.678-1.676-.438-.466-1.074-.7-1.908-.7zm62.43 0c-.835 0-1.478.235-1.93.701a2.322 2.322 0 0 0-.678 1.676c0 .636.225 1.193.678 1.674.452.467 1.095.701 1.93.701.833 0 1.47-.235 1.908-.701.452-.48.68-1.038.68-1.674 0-.65-.228-1.21-.68-1.676-.439-.466-1.075-.7-1.909-.7z" id="path4296" fill="currentColor" fill-opacity="1" stroke="none" color="#4d4d4d"/></svg>