<svg xmlns="http://www.w3.org/2000/svg" xmlns:xlink="http://www.w3.org/1999/xlink" viewBox="0 0 256 256" id="svg2" version="1.1"><defs id="defs4"><linearGradient xlink:href="#linearGradient4159" id="linearGradient4158-8" x1="409.571" y1="543.798" x2="409.571" y2="503.798" gradientUnits="userSpaceOnUse" gradientTransform="matrix(1.02718 0 0 1 -394.979 -499.798)"/><linearGradient id="linearGradient4159"><stop offset="0" id="stop4161" stop-color="#2a2c2f" stop-opacity="1"/><stop offset="1" id="stop4163" stop-color="#424649" stop-opacity="1"/></linearGradient><linearGradient gradientUnits="userSpaceOnUse" y2="511.798" x2="409.571" y1="543.798" x1="409.571" id="linearGradient4415" xlink:href="#linearGradient4187"/><linearGradient id="linearGradient4187"><stop id="stop4189" offset="0" stop-color="#1f2021" stop-opacity="1"/><stop id="stop4191" offset="1" stop-color="#272b2d" stop-opacity="1"/></linearGradient><linearGradient gradientUnits="userSpaceOnUse" y2="56" x2="48" y1="32" x1="24" id="linearGradient4521" xlink:href="#linearGradient4227-6-3"/><linearGradient id="linearGradient4227-6-3"><stop offset="0" id="stop4229-7-5" stop-color="#292c2f" stop-opacity="1"/><stop offset="1" id="stop4231-53-6" stop-color="#000" stop-opacity="0"/></linearGradient><linearGradient gradientUnits="userSpaceOnUse" y2="503.798" x2="408.571" y1="520.347" x1="408.571" id="linearGradient4183" xlink:href="#linearGradient4435"/><linearGradient id="linearGradient4435"><stop offset="0" id="stop4437" stop-color="#c61423" stop-opacity="1"/><stop offset="1" id="stop4439" stop-color="#dc2b41" stop-opacity="1"/></linearGradient><linearGradient xlink:href="#linearGradient4300-7" id="linearGradient3834" gradientUnits="userSpaceOnUse" gradientTransform="matrix(1.52928 0 0 1.52941 -592.82 -769.103)" x1="409.571" y1="540.798" x2="409.571" y2="506.798"/><linearGradient id="linearGradient4300-7"><stop offset="0" id="stop4302-2" stop-color="#6c7a89" stop-opacity="1"/><stop offset="1" id="stop4304-4" stop-color="#768492" stop-opacity="1"/></linearGradient><linearGradient xlink:href="#linearGradient4227-6-3" id="linearGradient4372" x1="408.572" y1="523.798" x2="422.571" y2="537.798" gradientUnits="userSpaceOnUse" gradientTransform="matrix(1.29989 0 0 1.3 -499.097 -648.937)"/><linearGradient xlink:href="#linearGradient4351-8" id="linearGradient3862" gradientUnits="userSpaceOnUse" gradientTransform="translate(-184.303 -245.305) scale(.52941)" x1="409.571" y1="540.798" x2="409.571" y2="506.798"/><linearGradient id="linearGradient4351-8"><stop offset="0" id="stop4353-5" stop-color="#dedede" stop-opacity="1"/><stop offset="1" id="stop4355-8" stop-color="#ececec" stop-opacity="1"/></linearGradient><linearGradient y2="528.798" x2="416.96" y1="551.798" x1="416.96" gradientTransform="matrix(.63587 0 0 1 144.251 -31)" gradientUnits="userSpaceOnUse" id="linearGradient4319" xlink:href="#linearGradient4303-7-6"/><linearGradient id="linearGradient4303-7-6"><stop offset="0" id="stop4305-0-1" stop-color="#c6cdd1" stop-opacity="1"/><stop offset="1" id="stop4307-6-6" stop-color="#e0e5e7" stop-opacity="1"/></linearGradient><linearGradient xlink:href="#linearGradient4143" id="linearGradient4158" x1="416.96" y1="557.798" x2="416.96" y2="505.798" gradientUnits="userSpaceOnUse" gradientTransform="matrix(.78261 0 0 1 83.254 -8)"/><linearGradient id="linearGradient4143"><stop id="stop4145" offset="0" stop-color="#197cf1" stop-opacity="1"/><stop id="stop4147" offset="1" stop-color="#20bcfa" stop-opacity="1"/></linearGradient><linearGradient gradientTransform="translate(10 22)" gradientUnits="userSpaceOnUse" y2="34" x2="34" y1="14" x1="14" id="linearGradient4231" xlink:href="#linearGradient4400"/><linearGradient id="linearGradient4400"><stop id="stop4402" offset="0" stop-color="#020303" stop-opacity="1"/><stop id="stop4404" offset="1" stop-color="#424649" stop-opacity="0"/></linearGradient><linearGradient gradientUnits="userSpaceOnUse" y2="36" x2="32" y1="52" x1="32" id="linearGradient4301" xlink:href="#linearGradient4290"/><linearGradient id="linearGradient4290"><stop offset="0" id="stop4292" stop-color="#7cbaf8" stop-opacity="1"/><stop offset="1" id="stop4294" stop-color="#f4fcff" stop-opacity="1"/></linearGradient><linearGradient gradientTransform="matrix(2 0 0 2 -396.571 -537.798)" gradientUnits="userSpaceOnUse" y2="521.798" x2="400.571" y1="521.798" x1="398.571" id="linearGradient4371" xlink:href="#linearGradient4143-8"/><linearGradient id="linearGradient4143-8"><stop offset="0" id="stop4145-7" stop-color="#faae2a" stop-opacity="1"/><stop offset="1" id="stop4147-4" stop-color="#ffc35a" stop-opacity="1"/></linearGradient><linearGradient gradientTransform="matrix(2 0 0 2 -384.571 -537.798)" y2="521.798" x2="400.571" y1="521.798" x1="398.571" gradientUnits="userSpaceOnUse" id="linearGradient4375" xlink:href="#linearGradient4143-8"/><style id="current-color-scheme" type="text/css"></style></defs><path d="M16 10h224c3.324 0 6 2.676 6 6v224c0 3.324-2.676 6-6 6H16c-3.324 0-6-2.676-6-6V16c0-3.324 2.676-6 6-6z" id="rect4240" fill="currentColor" fill-opacity=".5" stroke="none" color="#31363b"/><path d="M16 12h224c2.216 0 4 1.784 4 4v224c0 2.216-1.784 4-4 4H16c-2.216 0-4-1.784-4-4V16c0-2.216 1.784-4 4-4z" id="rect4238" fill="currentColor" fill-opacity="1" stroke="none" color="#eff0f1"/><path d="M25.713 26.576c-.497 0-.96.058-1.389.174a3.837 3.837 0 0 0-1.166.531 2.43 2.43 0 0 0-.824.946c-.201.396-.303.85-.303 1.363 0 .746.194 1.333.58 1.762.386.423.971.783 1.754 1.08l1.889.72c.74.286 1.236.57 1.49.85.26.275.389.69.389 1.246 0 .481-.115.885-.348 1.213a1.925 1.925 0 0 1-.889.7 3.59 3.59 0 0 1-1.269.206c-.592 0-1.21-.107-1.85-.318a6.357 6.357 0 0 1-1.713-.865v1.253c.328.291.822.538 1.483.739.661.2 1.346.3 2.055.3.396 0 .772-.034 1.127-.103a4.27 4.27 0 0 0 1.039-.34c.333-.164.619-.368.857-.611s.43-.555.572-.936a3.65 3.65 0 0 0 .213-1.287c0-.386-.047-.73-.142-1.031a2.83 2.83 0 0 0-.358-.762 2.296 2.296 0 0 0-.61-.578 5.08 5.08 0 0 0-.753-.453 12.551 12.551 0 0 0-.93-.396l-1.824-.715c-.555-.217-.941-.454-1.158-.713-.212-.265-.319-.64-.319-1.127 0-.397.117-.73.35-1 .233-.27.526-.46.88-.57a3.89 3.89 0 0 1 1.216-.176c.492 0 .982.07 1.474.207.498.137.918.324 1.262.562l.508-.982a5.728 5.728 0 0 0-1.555-.653 6.524 6.524 0 0 0-1.738-.236zm76.871.063l-1.3.095v9.18c0 .503.057.92.173 1.254.116.328.296.58.54.754.242.174.518.296.825.365a5.93 5.93 0 0 0 1.158.096h.627l.07-.906-.357-.024a43.854 43.854 0 0 1-.531-.039 8.052 8.052 0 0 1-.412-.064 1.22 1.22 0 0 1-.326-.11 1.958 1.958 0 0 1-.213-.176.576.576 0 0 1-.16-.261 4.067 4.067 0 0 1-.07-.366 4.46 4.46 0 0 1-.024-.5V26.64zm-21.377.095l4.277 11.584h1.223l4.275-11.584h-1.435c-.164.466-.667 1.91-1.508 4.332a744.185 744.185 0 0 1-1.935 5.547c-.35-.968-.718-2-1.104-3.095a14254.681 14254.681 0 0 0-2.348-6.784h-1.445zm-48.13.889l-1.056.078-.214 2.223-1.293.088-.032.744h1.293v5.047c0 .513.045.928.135 1.246.09.317.252.579.485.785.238.206.544.35.92.43.375.079.868.119 1.476.119h.547l.064-.906-.668-.032c-.703-.026-1.154-.136-1.355-.332-.201-.2-.303-.638-.303-1.31v-5.047H35.3v-.832h-2.223v-2.301zm7.49 2.127c-1.233 0-2.201.401-2.905 1.205-.698.799-1.047 1.857-1.047 3.174 0 1.285.356 2.333 1.065 3.142.709.805 1.67 1.206 2.886 1.206 1.19 0 2.149-.404 2.873-1.213.725-.815 1.086-1.86 1.086-3.135 0-1.317-.348-2.375-1.046-3.174-.699-.804-1.67-1.205-2.913-1.205zm14.552 0c-1.121 0-2.132.207-3.031.625l.357.969a5.654 5.654 0 0 1 1.317-.428c.492-.106.952-.16 1.38-.16.635 0 1.098.151 1.39.453.295.301.445.76.445 1.373v.824h-1.342c-1.35 0-2.333.214-2.951.643-.614.423-.922 1.09-.922 2 0 .762.233 1.357.699 1.785.47.428 1.093.643 1.865.643 1.153 0 2.09-.441 2.809-1.325l.142 1.159h1v-5.54c0-1.068-.276-1.837-.826-2.308-.545-.476-1.322-.713-2.332-.713zm8.649 0c-.625 0-1.177.115-1.659.348a2.934 2.934 0 0 0-1.158.953c-.29.407-.51.87-.658 1.388a6.014 6.014 0 0 0-.223 1.674c0 .53.072 1.032.215 1.508.148.476.362.91.643 1.3.28.392.656.704 1.127.936.476.233 1.011.35 1.61.35.618 0 1.148-.124 1.587-.373.444-.249.788-.59 1.031-1.023l.024.984v.23c0 1.053-.217 1.812-.65 2.278-.43.465-1.094.697-1.993.697-.661 0-1.475-.114-2.443-.342l-.104 1.112c.952.216 1.801.326 2.547.326 1.37 0 2.353-.376 2.951-1.127.603-.746.906-1.851.906-3.317v-7.728h-1.199l-.078 1.205c-.502-.92-1.329-1.379-2.476-1.379zm9.267 0c-1.11 0-2.027.399-2.746 1.197-.72.799-1.078 1.87-1.078 3.213 0 1.328.368 2.38 1.103 3.158.736.773 1.692 1.159 2.872 1.159 1.057 0 2.001-.247 2.832-.739l-.278-.927a8.06 8.06 0 0 1-1.205.5c-.36.11-.76.166-1.2.166-.808 0-1.463-.257-1.966-.77-.502-.518-.776-1.31-.818-2.379h5.674l.048-.668c0-1.227-.278-2.183-.834-2.87-.55-.694-1.351-1.04-2.404-1.04zm22.408 0c-1.232 0-2.2.401-2.904 1.205-.698.799-1.049 1.857-1.049 3.174 0 1.285.356 2.333 1.065 3.142.709.805 1.672 1.206 2.888 1.206 1.19 0 2.147-.404 2.871-1.213.725-.815 1.088-1.86 1.088-3.135 0-1.317-.35-2.375-1.048-3.174-.699-.804-1.668-1.205-2.91-1.205zm23.43 0c-1.074 0-1.935.47-2.586 1.412l-.152-1.238h-1.063v8.394h1.317v-5.117c.11-.735.355-1.325.73-1.77.381-.449.894-.675 1.54-.675.586 0 .99.221 1.206.66.217.434.324 1.163.324 2.19v4.712h1.319V34.01c.016-.73.043-1.166.086-1.309.143-.63.414-1.112.81-1.445.397-.333.85-.5 1.358-.5.227 0 .424.035.593.103a.86.86 0 0 1 .413.303c.105.138.19.277.253.42.064.138.11.32.137.547.027.227.042.421.047.58.01.153.016.357.016.611v4.998h1.316v-5.412c0-2.105-.856-3.156-2.57-3.156-1.217 0-2.14.568-2.77 1.705-.195-.534-.472-.952-.832-1.254-.36-.301-.857-.451-1.492-.451zm13.164 0c-1.11 0-2.027.399-2.746 1.197-.72.799-1.078 1.87-1.078 3.213 0 1.328.366 2.38 1.101 3.158.736.773 1.694 1.159 2.874 1.159 1.057 0 2.001-.247 2.832-.739l-.278-.927a8.06 8.06 0 0 1-1.205.5c-.36.11-.76.166-1.2.166-.808 0-1.463-.257-1.966-.77-.502-.518-.776-1.31-.818-2.379h5.674l.046-.668c0-1.227-.276-2.183-.832-2.87-.55-.694-1.351-1.04-2.404-1.04zm-81.95.086a2.71 2.71 0 0 0-1.45.43c-.455.28-.841.72-1.158 1.324l-.143-1.666h-1.057v8.394h1.319v-4.752c0-.745.231-1.378.697-1.896.47-.518 1.066-.777 1.785-.777.148 0 .328.02.54.062l.056-1.078a3.551 3.551 0 0 0-.588-.041zm56.02.088v5.125c0 1.137.247 1.996.745 2.572.502.571 1.241.856 2.214.856.688 0 1.23-.103 1.627-.309.402-.212.738-.53 1.008-.953l.135 1.103h1.143v-8.394h-1.319v4.713c0 .333-.023.637-.07.912-.048.275-.13.534-.246.777a1.901 1.901 0 0 1-.453.611c-.18.164-.412.294-.698.39-.28.094-.603.142-.968.142-.646 0-1.109-.192-1.389-.578-.275-.387-.412-.954-.412-1.7v-5.267h-1.317zm-65.54.832c.862 0 1.513.31 1.953.93.439.613.658 1.432.658 2.459 0 .655-.09 1.23-.27 1.722-.18.487-.47.878-.873 1.174-.397.29-.887.436-1.469.436-.846 0-1.49-.307-1.935-.92-.444-.614-.666-1.42-.666-2.42 0-1.021.222-1.838.666-2.451.444-.62 1.09-.93 1.935-.93zm23.265 0c1.603 0 2.402.99 2.402 2.969v.705c0 .38-.042.731-.127 1.049-.084.317-.219.61-.404.88-.18.265-.431.47-.754.618-.322.148-.703.222-1.142.222-.445 0-.83-.09-1.159-.27a1.906 1.906 0 0 1-.746-.73 3.688 3.688 0 0 1-.38-1 5.26 5.26 0 0 1-.12-1.15c0-.434.04-.835.12-1.205.084-.376.214-.724.388-1.047.18-.323.431-.577.754-.762.328-.185.718-.28 1.168-.28zm9.234 0c1.333 0 2.033.906 2.096 2.715h-4.57c.074-.836.333-1.498.777-1.985.45-.486 1.015-.73 1.697-.73zm22.377 0c.863 0 1.512.31 1.952.93.439.613.658 1.432.658 2.459 0 .655-.09 1.23-.27 1.722-.18.487-.47.878-.873 1.174-.397.29-.885.436-1.467.436-.846 0-1.493-.307-1.937-.92-.444-.614-.666-1.42-.666-2.42 0-1.021.222-1.838.666-2.451.444-.62 1.091-.93 1.937-.93zm36.625 0c1.333 0 2.033.906 2.096 2.715h-4.572c.074-.836.335-1.498.78-1.985.449-.486 1.014-.73 1.696-.73zm-76.1 3.523h1.009v1.85c-.63.926-1.488 1.389-2.573 1.389-.396 0-.727-.127-.992-.381-.264-.254-.396-.615-.396-1.08 0-.26.024-.476.072-.65.048-.18.135-.345.262-.493a1.23 1.23 0 0 1 .523-.357c.222-.09.506-.158.85-.205.343-.048.76-.073 1.246-.073zM20 50v1h216v-1H20zm104.271 13.543l-1.332.096v11.584h1.07l.12-1.475c.286.47.656.862 1.111 1.174.455.307.993.46 1.612.46 1.147 0 2.027-.392 2.64-1.175.62-.783.93-1.84.93-3.174 0-1.354-.296-2.422-.889-3.205-.592-.783-1.466-1.174-2.619-1.174-.566 0-1.076.135-1.531.405-.45.264-.823.62-1.12 1.07l.009-1.46v-3.126zm9.348 0l-1.3.096v9.18c0 .502.057.92.173 1.253.117.328.296.58.54.754.243.175.519.297.825.365a5.93 5.93 0 0 0 1.159.096h.627l.07-.904-.356-.026a44.735 44.735 0 0 1-.533-.039 7.914 7.914 0 0 1-.412-.062 1.194 1.194 0 0 1-.324-.111 1.967 1.967 0 0 1-.215-.176.573.573 0 0 1-.158-.262 4.054 4.054 0 0 1-.072-.365 4.422 4.422 0 0 1-.024-.498v-9.301zm44.934 0l-1.317.096v2.611l.063 1.912a3.34 3.34 0 0 0-.404-.596 2.557 2.557 0 0 0-.508-.468 2.115 2.115 0 0 0-.723-.332 3.726 3.726 0 0 0-.951-.112c-1.11 0-1.992.396-2.643 1.19-.645.793-.968 1.833-.968 3.119 0 1.354.313 2.43.937 3.228.63.794 1.523 1.192 2.682 1.192 1.2 0 2.072-.548 2.617-1.643l.119 1.483h1.096v-11.68zm3 .096a.865.865 0 0 0-.627.238.802.802 0 0 0-.238.603c0 .25.08.451.238.61a.865.865 0 0 0 .627.238.85.85 0 0 0 .617-.238.81.81 0 0 0 .246-.61.789.789 0 0 0-.246-.603.833.833 0 0 0-.617-.238zM78.205 66.654c-1.11 0-2.027.399-2.746 1.198-.72.798-1.08 1.87-1.08 3.214 0 1.328.368 2.38 1.103 3.157.736.772 1.694 1.16 2.873 1.16 1.058 0 2.002-.247 2.832-.738l-.277-.93a8.076 8.076 0 0 1-1.207.5c-.36.11-.758.168-1.197.168-.81 0-1.466-.257-1.969-.77-.502-.518-.774-1.312-.816-2.38h5.674l.046-.667c0-1.227-.278-2.185-.834-2.873-.55-.693-1.35-1.039-2.402-1.039zm8.83 0c-1.074 0-1.935.47-2.586 1.412l-.15-1.238h-1.065v8.395h1.317v-5.118c.11-.735.355-1.325.73-1.77.381-.449.894-.673 1.54-.673.586 0 .99.22 1.206.658.217.434.325 1.164.325 2.19v4.713h1.318v-4.309c.016-.73.044-1.166.086-1.309.143-.629.414-1.11.81-1.443.397-.333.85-.5 1.358-.5.227 0 .424.035.594.104a.858.858 0 0 1 .412.3c.105.138.19.277.254.42.063.138.11.322.136.55.027.227.042.419.047.577.01.154.016.358.016.612v4.998h1.316v-5.41c0-2.106-.856-3.159-2.57-3.159-1.217 0-2.14.568-2.77 1.705-.195-.534-.472-.952-.832-1.254-.36-.301-.857-.45-1.492-.45zm13.291 0c-1.232 0-2.2.401-2.904 1.205-.698.8-1.047 1.857-1.047 3.174 0 1.286.354 2.333 1.063 3.143.708.804 1.672 1.207 2.888 1.207 1.19 0 2.147-.406 2.871-1.215.725-.815 1.088-1.86 1.088-3.135 0-1.317-.348-2.375-1.047-3.174-.698-.804-1.669-1.205-2.912-1.205zm17.313 0c-1.122 0-2.132.21-3.032.627l.358.967a5.655 5.655 0 0 1 1.316-.428 6.586 6.586 0 0 1 1.381-.158c.635 0 1.098.15 1.389.451.296.302.445.76.445 1.373v.826h-1.342c-1.349 0-2.332.215-2.95.643-.614.423-.92 1.088-.92 1.998 0 .762.231 1.357.696 1.785.471.429 1.093.645 1.866.645 1.153 0 2.089-.443 2.808-1.326l.143 1.158h1v-5.537c0-1.069-.274-1.84-.824-2.31-.545-.477-1.324-.714-2.334-.714zm22.994 0c-1.111 0-2.025.399-2.744 1.198-.72.798-1.08 1.87-1.08 3.214 0 1.328.368 2.38 1.103 3.157.735.772 1.692 1.16 2.871 1.16 1.058 0 2.004-.247 2.834-.738l-.277-.93a8.075 8.075 0 0 1-1.207.5c-.36.11-.758.168-1.197.168-.81 0-1.467-.257-1.97-.77-.502-.518-.773-1.312-.816-2.38h5.672l.05-.667c0-1.227-.28-2.185-.835-2.873-.55-.693-1.352-1.039-2.404-1.039zm12.545 0c-1.074 0-1.936.47-2.586 1.412l-.15-1.238h-1.065v8.395h1.316v-5.118c.111-.735.355-1.325.73-1.77.382-.449.895-.673 1.54-.673.587 0 .99.22 1.207.658.217.434.324 1.164.324 2.19v4.713h1.319v-4.309c.015-.73.043-1.166.085-1.309.143-.629.414-1.11.81-1.443.398-.333.85-.5 1.358-.5.228 0 .425.035.594.104a.858.858 0 0 1 .412.3c.106.138.19.277.254.42.064.138.11.322.137.55.026.227.041.419.047.577.01.154.015.358.015.612v4.998h1.317v-5.41c0-2.106-.857-3.159-2.57-3.159-1.217 0-2.14.568-2.77 1.705-.196-.534-.472-.952-.832-1.254-.36-.301-.858-.45-1.492-.45zm13.164 0c-1.111 0-2.027.399-2.746 1.198-.72.798-1.078 1.87-1.078 3.214 0 1.328.366 2.38 1.101 3.157.735.772 1.694 1.16 2.873 1.16 1.058 0 2.002-.247 2.832-.738l-.277-.93a8.061 8.061 0 0 1-1.205.5c-.36.11-.76.168-1.2.168-.809 0-1.464-.257-1.966-.77-.503-.518-.776-1.312-.819-2.38h5.674l.047-.667c0-1.227-.276-2.185-.832-2.873-.55-.693-1.352-1.039-2.404-1.039zm21.312 0c-1.121 0-2.132.21-3.03.627l.356.967a5.655 5.655 0 0 1 1.317-.428 6.586 6.586 0 0 1 1.38-.158c.636 0 1.098.15 1.39.451.296.302.443.76.443 1.373v.826h-1.34c-1.349 0-2.334.215-2.953.643-.614.423-.92 1.088-.92 1.998 0 .762.234 1.357.7 1.785.47.429 1.09.645 1.862.645 1.154 0 2.092-.443 2.81-1.326l.143 1.158h.999v-5.537c0-1.069-.275-1.84-.825-2.31-.545-.477-1.321-.714-2.332-.714zM72.81 66.74a2.71 2.71 0 0 0-1.452.43c-.454.28-.842.721-1.16 1.324l-.142-1.666H69v8.395h1.316V70.47c0-.746.234-1.378.7-1.897.47-.518 1.065-.777 1.785-.777.148 0 .327.02.539.062l.056-1.078a3.551 3.551 0 0 0-.587-.04zm32.546.088l3.247 8.395h1.324l3.181-8.395h-1.34c-.274.772-.693 1.928-1.253 3.467-.556 1.54-.971 2.696-1.246 3.469-.344-.91-.842-2.25-1.493-4.016a561.894 561.894 0 0 0-1.07-2.92h-1.35zm75.538 0v8.395h1.302v-8.395h-1.302zm-54.106.826c1.524 0 2.285 1.126 2.285 3.38 0 2.226-.782 3.341-2.347 3.341-.794 0-1.408-.294-1.842-.88-.429-.588-.643-1.454-.643-2.597 0-1.02.207-1.817.62-2.388.417-.572 1.06-.856 1.927-.856zm-48.55.008c1.332 0 2.03.904 2.093 2.713h-4.57c.074-.836.333-1.498.777-1.984.45-.487 1.017-.729 1.7-.729zm22.09 0c.861 0 1.511.309 1.95.928.44.613.659 1.433.659 2.459 0 .656-.09 1.23-.27 1.722-.18.487-.471.878-.873 1.174-.397.291-.885.438-1.467.438-.846 0-1.493-.308-1.937-.922-.445-.614-.666-1.42-.666-2.42 0-1.02.221-1.838.666-2.451.444-.62 1.09-.928 1.937-.928zm40.339 0c1.333 0 2.03.904 2.094 2.713h-4.57c.074-.836.332-1.498.777-1.984.45-.487 1.017-.729 1.699-.729zm25.707 0c1.333 0 2.03.904 2.094 2.713h-4.57c.074-.836.334-1.498.779-1.984.45-.487 1.015-.729 1.697-.729zm8.53 0c.782 0 1.372.291 1.769.873.402.582.603 1.441.603 2.578-.005 1.042-.199 1.846-.58 2.412-.38.566-1 .85-1.863.85-.82 0-1.427-.303-1.818-.906-.386-.603-.578-1.43-.578-2.483 0-1.058.206-1.874.619-2.45.412-.583 1.027-.874 1.847-.874zm-56.415 3.522h1.008v1.85c-.629.924-1.487 1.387-2.57 1.388h-.002c-.396 0-.726-.128-.99-.381-.265-.254-.397-.615-.397-1.08 0-.26.023-.476.07-.65a1.235 1.235 0 0 1 .786-.848c.222-.09.505-.16.85-.207.343-.048.759-.072 1.245-.072zm70.014 0h1.008v1.85c-.63.925-1.486 1.388-2.57 1.388-.397 0-.728-.127-.993-.381-.264-.254-.396-.615-.396-1.08 0-.26.024-.476.072-.65a1.235 1.235 0 0 1 .785-.848c.222-.09.506-.16.85-.207a9.222 9.222 0 0 1 1.244-.072zM227 72l-7 9h14l-7-9zm-7 13.9V88h14v-2.1h-14zm-105.615 40.643l-1.301.096v9.18c0 .502.06.92.176 1.253.116.328.295.58.539.754.243.175.517.297.824.365.312.064.699.096 1.158.096h.627l.073-.904-.358-.026a44.308 44.308 0 0 1-.531-.039 7.912 7.912 0 0 1-.412-.062 1.211 1.211 0 0 1-.326-.112 1.967 1.967 0 0 1-.215-.175.573.573 0 0 1-.158-.262 4.067 4.067 0 0 1-.07-.365 4.37 4.37 0 0 1-.026-.498v-9.301zm36.46 0l-1.318.096v2.611l.065 1.912a3.34 3.34 0 0 0-.404-.596 2.557 2.557 0 0 0-.508-.468 2.115 2.115 0 0 0-.723-.332 3.74 3.74 0 0 0-.953-.112c-1.11 0-1.99.396-2.64 1.19-.646.793-.97 1.833-.97 3.119 0 1.354.312 2.43.936 3.228.63.794 1.523 1.192 2.682 1.192 1.2 0 2.074-.548 2.619-1.643l.119 1.483h1.096v-11.68zm-56.732.096a.865.865 0 0 0-.627.238.802.802 0 0 0-.238.603c0 .25.08.451.238.61a.865.865 0 0 0 .627.238c.249 0 .455-.08.62-.238a.81.81 0 0 0 .246-.61.789.789 0 0 0-.247-.603.838.838 0 0 0-.619-.238zm59.73 0a.865.865 0 0 0-.626.238.802.802 0 0 0-.238.603c0 .25.08.451.238.61a.865.865 0 0 0 .627.238c.248 0 .455-.08.619-.238a.81.81 0 0 0 .246-.61.789.789 0 0 0-.246-.603.838.838 0 0 0-.62-.238zm-64.657.888l-1.055.08-.215 2.221-1.293.088-.031.746h1.293v5.045c0 .513.045.929.135 1.246.09.318.251.579.484.785.238.207.544.35.92.43.375.08.866.12 1.474.12h.55l.062-.905-.666-.033c-.704-.027-1.157-.137-1.358-.332-.2-.201-.3-.64-.3-1.311v-5.045h2.222v-.834h-2.222v-2.3zm-16.663 2.127c-1.232 0-2.2.401-2.904 1.205-.698.8-1.047 1.857-1.047 3.174 0 1.286.354 2.333 1.063 3.143.709.804 1.672 1.207 2.888 1.207 1.19 0 2.147-.406 2.872-1.215.724-.815 1.087-1.86 1.087-3.135 0-1.317-.348-2.375-1.046-3.174-.699-.804-1.67-1.205-2.913-1.205zm9.641 0c-1.211 0-2.127.548-2.746 1.643l-.135-1.469h-1.096v12.076h1.319v-3.158l-.057-1.943c.624 1.052 1.52 1.58 2.69 1.58 1.1 0 1.958-.398 2.572-1.192.614-.793.92-1.84.92-3.142 0-1.354-.296-2.425-.889-3.213-.587-.788-1.446-1.182-2.578-1.182zm18.535 0c-1.169 0-2.12.394-2.85 1.182-.73.783-1.093 1.86-1.093 3.23 0 1.312.354 2.358 1.062 3.141.714.783 1.673 1.176 2.873 1.176a4.82 4.82 0 0 0 1.381-.184c.408-.121.7-.253.88-.396l-.247-.897a3.484 3.484 0 0 1-1.767.461c-.926 0-1.63-.306-2.112-.914-.481-.608-.722-1.403-.722-2.387 0-1.036.25-1.863.753-2.476.503-.614 1.17-.92 2-.92.656 0 1.241.152 1.754.459l.373-.904c-.18-.122-.47-.246-.873-.373-.396-.133-.867-.198-1.412-.198zm6.942 0c-1.122 0-2.132.21-3.032.627l.358.967a5.671 5.671 0 0 1 1.318-.428 6.587 6.587 0 0 1 1.381-.158c.635 0 1.096.15 1.387.451.296.302.445.76.445 1.373v.827h-1.342c-1.349 0-2.332.214-2.95.642-.615.423-.92 1.088-.92 1.998 0 .762.23 1.357.696 1.785.471.429 1.093.645 1.866.645 1.153 0 2.089-.443 2.808-1.326l.143 1.158h1v-5.537c0-1.069-.274-1.84-.824-2.31-.545-.477-1.324-.714-2.334-.714zm17.83 0c-1.074 0-1.938.47-2.588 1.412l-.15-1.238h-1.063v8.395h1.316v-5.118c.111-.735.355-1.325.73-1.77.382-.449.895-.673 1.54-.673.587 0 .99.22 1.207.658.217.434.324 1.164.324 2.19v4.713h1.318v-4.309c.016-.73.044-1.166.086-1.309.143-.629.414-1.11.81-1.443.398-.333.849-.5 1.356-.5.228 0 .427.035.596.104a.858.858 0 0 1 .412.3c.106.138.19.277.254.42.064.138.108.322.135.55.026.227.043.419.049.577.01.154.015.358.015.612v4.998h1.317v-5.41c0-2.106-.857-3.159-2.57-3.159-1.217 0-2.14.568-2.77 1.705-.196-.534-.473-.952-.832-1.254-.36-.301-.858-.45-1.492-.45zm13.164 0c-1.111 0-2.027.399-2.746 1.198-.72.798-1.08 1.87-1.08 3.214 0 1.328.368 2.38 1.103 3.157.735.772 1.694 1.16 2.873 1.16 1.058 0 2.002-.247 2.832-.738l-.277-.93a8.075 8.075 0 0 1-1.207.5c-.36.11-.758.168-1.197.168-.81 0-1.467-.257-1.97-.77-.502-.518-.773-1.312-.816-2.38h5.674l.047-.667c0-1.227-.278-2.185-.834-2.873-.55-.693-1.35-1.039-2.402-1.039zm21.31 0c-1.121 0-2.13.21-3.029.627l.355.967a5.672 5.672 0 0 1 1.319-.428 6.587 6.587 0 0 1 1.38-.158c.635 0 1.098.15 1.39.451.296.302.443.76.443 1.373v.827h-1.342c-1.349 0-2.332.214-2.951.642-.614.423-.92 1.088-.92 1.998 0 .762.232 1.357.697 1.785.47.429 1.093.645 1.865.645 1.154 0 2.09-.443 2.809-1.326l.143 1.158h1v-5.537c0-1.069-.275-1.84-.825-2.31-.545-.477-1.323-.714-2.334-.714zm-66.49.174v8.395h1.3v-8.395h-1.3zm59.73 0v8.395h1.301v-8.395h-1.3zm-80.662.834c.863 0 1.513.309 1.952.928.439.613.658 1.433.658 2.459 0 .656-.09 1.23-.27 1.722-.18.487-.47.878-.873 1.174-.396.291-.885.438-1.467.438-.846 0-1.493-.308-1.937-.922-.444-.614-.666-1.42-.666-2.42 0-1.02.222-1.838.666-2.451.444-.62 1.091-.928 1.937-.928zm9.489 0c1.513 0 2.27 1.123 2.27 3.371 0 2.227-.783 3.342-2.348 3.342-.794 0-1.408-.306-1.842-.914-.429-.608-.643-1.462-.643-2.563.006-1.015.217-1.81.635-2.38.418-.572 1.06-.856 1.928-.856zm56.654 0c1.333 0 2.03.904 2.094 2.713h-4.57c.074-.836.332-1.498.777-1.984.45-.487 1.017-.729 1.699-.729zm8.53 0c.782 0 1.372.291 1.769.873.402.582.603 1.441.603 2.578-.005 1.042-.199 1.846-.58 2.412-.38.566-1.003.85-1.865.85-.82 0-1.425-.303-1.816-.906-.387-.603-.578-1.43-.578-2.483 0-1.058.204-1.874.617-2.45.412-.583 1.03-.874 1.85-.874zm-38.706 3.522h1.008v1.85c-.63.925-1.486 1.388-2.57 1.388-.397 0-.728-.127-.992-.381-.265-.254-.397-.615-.397-1.08 0-.26.023-.476.07-.65a1.235 1.235 0 0 1 .787-.848c.223-.09.504-.16.848-.207.344-.048.76-.072 1.246-.072zm52.305 0h1.008v1.85c-.63.925-1.486 1.388-2.57 1.388-.397 0-.728-.127-.993-.381-.264-.254-.396-.615-.396-1.08 0-.26.022-.476.07-.65a1.235 1.235 0 0 1 .787-.848c.222-.09.504-.16.848-.207.344-.048.76-.072 1.246-.072zM227 135l-7 9h14l-7-9zm-7 13.9v2.1h14v-2.1h-14zM71.967 187.48c-.767 0-1.34.215-1.72.643-.382.429-.573 1.155-.573 2.182v.53l-1.483.136-.04.691h1.523v7.56h1.318v-7.56h1.99v-.834h-1.99v-.603c0-.392.023-.706.07-.944.048-.243.128-.422.239-.539a.83.83 0 0 1 .373-.238c.132-.037.309-.057.531-.057.275 0 .546.027.81.08l.094-.912a6.383 6.383 0 0 0-1.142-.134zm4.015.063l-1.3.096v9.18c0 .502.057.92.173 1.253.117.328.296.58.54.754.243.175.519.297.826.365.312.064.698.096 1.158.096h.627l.07-.904-.355-.026a45.23 45.23 0 0 1-.534-.039 7.914 7.914 0 0 1-.412-.062 1.194 1.194 0 0 1-.324-.112 1.97 1.97 0 0 1-.215-.175.573.573 0 0 1-.158-.262 4.058 4.058 0 0 1-.072-.365 4.428 4.428 0 0 1-.024-.498v-9.301zm20.329 0l-1.317.096v11.584h1.309v-4.594c0-.312.022-.603.064-.873.048-.27.128-.536.244-.8.117-.265.268-.49.453-.675a1.94 1.94 0 0 1 .723-.453 2.872 2.872 0 0 1 1.04-.174c.629 0 1.075.197 1.339.594.27.391.406 1.004.406 1.834v5.14h1.317v-5.189c0-1.079-.244-1.91-.73-2.498-.487-.587-1.187-.88-2.102-.88-.598 0-1.138.116-1.62.349a2.996 2.996 0 0 0-1.173.99l.047-1.642v-2.809zm40.125 0l-1.317.096v2.611l.063 1.912a3.34 3.34 0 0 0-.405-.596 2.556 2.556 0 0 0-.507-.468 2.115 2.115 0 0 0-.723-.332 3.725 3.725 0 0 0-.951-.112c-1.111 0-1.992.396-2.643 1.19-.645.793-.969 1.833-.969 3.119 0 1.354.314 2.43.938 3.228.63.794 1.523 1.192 2.682 1.192 1.2 0 2.074-.548 2.619-1.643l.119 1.483h1.094v-11.68zm-53.805 3.111c-1.122 0-2.13.21-3.03.627l.356.967a5.671 5.671 0 0 1 1.318-.428 6.587 6.587 0 0 1 1.381-.158c.635 0 1.096.15 1.387.451.296.302.445.76.445 1.373v.827h-1.342c-1.348 0-2.332.214-2.95.642-.614.423-.92 1.088-.92 1.998 0 .762.231 1.357.697 1.785.47.429 1.093.645 1.865.645 1.153 0 2.09-.443 2.808-1.326l.143 1.158h1v-5.537c0-1.069-.274-1.84-.824-2.31-.545-.477-1.324-.714-2.334-.714zm7.84 0c-.878 0-1.56.212-2.047.635-.487.418-.73.968-.73 1.65 0 .55.14.999.421 1.348.28.344.798.638 1.555.881l.92.295c.608.196 1.029.405 1.262.627.232.222.35.496.35.824 0 .476-.142.842-.423 1.096-.28.248-.674.373-1.181.373-.81 0-1.716-.241-2.721-.723v1.104c.867.412 1.742.619 2.625.619.397 0 .762-.05 1.096-.145.338-.095.64-.237.904-.427.27-.19.481-.445.635-.762a2.56 2.56 0 0 0 .23-1.112 3.29 3.29 0 0 0-.096-.855 1.767 1.767 0 0 0-.35-.668 2.161 2.161 0 0 0-.704-.539 6.802 6.802 0 0 0-1.15-.46l-.835-.263c-.544-.174-.9-.338-1.07-.492-.17-.153-.254-.4-.254-.744 0-.407.13-.718.389-.93.264-.217.7-.324 1.308-.324.683 0 1.39.185 2.12.555l.308-.977a5.712 5.712 0 0 0-2.562-.586zm20.765 0c-1.169 0-2.12.394-2.85 1.182-.73.783-1.093 1.86-1.093 3.23 0 1.312.354 2.358 1.062 3.141.715.783 1.673 1.176 2.874 1.176a4.82 4.82 0 0 0 1.38-.184c.408-.121.7-.253.88-.396l-.247-.897a3.484 3.484 0 0 1-1.767.461c-.926 0-1.63-.306-2.112-.914-.481-.608-.722-1.403-.722-2.387 0-1.036.251-1.863.754-2.476.502-.614 1.169-.92 2-.92.655 0 1.24.152 1.753.459l.373-.904c-.18-.122-.47-.246-.873-.373-.396-.133-.867-.198-1.412-.198zm6.942 0c-1.122 0-2.132.21-3.032.627l.358.967a5.671 5.671 0 0 1 1.318-.428 6.587 6.587 0 0 1 1.381-.158c.635 0 1.096.15 1.387.451.296.302.445.76.445 1.373v.827h-1.342c-1.349 0-2.332.214-2.95.642-.614.423-.92 1.088-.92 1.998 0 .762.231 1.357.697 1.785.47.429 1.092.645 1.865.645 1.153 0 2.089-.443 2.808-1.326l.143 1.158h1v-5.537c0-1.069-.274-1.84-.824-2.31-.545-.477-1.324-.714-2.334-.714zm9.125.086a2.71 2.71 0 0 0-1.451.43c-.455.28-.841.721-1.159 1.324l-.142-1.666h-1.057v8.395h1.318v-4.752c0-.746.232-1.378.698-1.897.47-.518 1.066-.777 1.785-.777.148 0 .327.02.539.062l.057-1.078a3.548 3.548 0 0 0-.588-.04zm5.482.922c.783 0 1.373.291 1.77.873.402.582.603 1.441.603 2.578-.005 1.042-.197 1.846-.578 2.412-.38.566-1.003.85-1.865.85-.82 0-1.425-.303-1.817-.906-.386-.603-.58-1.43-.58-2.483 0-1.058.207-1.874.62-2.45.412-.583 1.027-.874 1.847-.874zm-49.305 3.522h1.008v1.85c-.63.925-1.486 1.388-2.57 1.388-.397 0-.728-.127-.992-.381-.265-.254-.397-.615-.397-1.08 0-.26.023-.476.07-.65a1.235 1.235 0 0 1 .788-.848c.222-.09.504-.16.847-.207.344-.048.76-.072 1.246-.072zm35.547 0h1.008v1.85c-.63.925-1.486 1.388-2.57 1.388-.397 0-.728-.127-.992-.381-.265-.254-.397-.615-.397-1.08 0-.26.023-.476.07-.65a1.235 1.235 0 0 1 .788-.848c.222-.09.503-.16.847-.207.344-.048.76-.072 1.246-.072zM227 196l-7 9h14l-7-9zm-7 13.9v2.1h14v-2.1h-14z" id="path5350" fill="currentColor" fill-opacity="1" stroke="none" color="#4d4d4d"/><g transform="matrix(.78125 0 0 .76923 -278.696 -322.923)" id="layer1-0" fill-opacity="1" stroke="none"><rect id="rect4317" width="26" height="24" x="395.571" y="497.798" ry="0" opacity="1" fill="url(#linearGradient4319)"/><rect ry="0" y="520.798" x="392.571" height="29" width="32" id="rect4139-3" opacity="1" fill="url(#linearGradient4158)"/><path id="rect4200" transform="translate(376.571 491.798)" d="M28.707 36.293l-1.414 1.414 8 8L35 46l12 12h1v-9l-8-8-3.293 3.293-8-8zm-2.146 6.146l-2.122 2.122 5.5 5.5-1.353 1.353L35.172 58h6.951L26.561 42.44z" opacity=".2" fill="url(#linearGradient4231)" stroke-opacity="1"/><path id="path4292" transform="translate(376.571 491.798)" d="M28 36c-.554 0-1 .446-1 1s.446 1 1 1 1-.446 1-1-.446-1-1-1zm7 0l-2 2 3 3-3 3 2 2 3-3 2-2-5-5zm-9.5 6c-.831 0-1.5.669-1.5 1.5s.669 1.5 1.5 1.5 1.5-.669 1.5-1.5-.669-1.5-1.5-1.5zm4.5 6c-1.108 0-2 .892-2 2s.892 2 2 2 2-.892 2-2-.892-2-2-2z" opacity="1" fill="url(#linearGradient4301)"/><path id="rect4492" opacity="1" fill="#0c69cf" stroke-width="2.8" stroke-miterlimit="4" stroke-dasharray="none" stroke-opacity=".55" d="M392.571 548.798h32v1h-32z"/><path id="rect4359" opacity="1" fill="#23262c" d="M398.571 501.798h8v8h-8z"/><path id="rect4361" opacity="1" fill="#23262c" d="M410.572 501.798h8v8h-8z"/><path id="rect4363" opacity="1" fill="url(#linearGradient4371)" d="M400.571 501.798h4v8h-4z"/><path id="rect4373" opacity="1" fill="url(#linearGradient4375)" d="M412.572 501.798h4v8h-4z"/></g><g transform="translate(-274.286 -260.922) scale(.76923)" id="layer1-6"><path id="rect4146" transform="translate(376.571 491.798)" d="M32 6A25.942 25.942 0 0 0 6.002 32c0 14.404 11.595 26 25.998 26a25.942 25.942 0 0 0 25.998-26C57.998 17.596 46.403 6 32 6zm0 23c1.662 0 3 1.338 3 3s-1.338 3-3 3-3-1.338-3-3 1.338-3 3-3z" fill="url(#linearGradient3834)" fill-opacity="1" stroke="none"/><path id="path4364" transform="translate(376.571 491.798)" d="M38.125 25.375l-.555.883A8 8 0 0 1 40 32a8 8 0 0 1-8 8 8 8 0 0 1-6.33-3.123l-.951.498 17.965 18.309a25.947 25.947 0 0 0 12.998-13L38.125 25.375zm-1.1 1.752l-2.289 3.65a2.993 2.993 0 0 1-4.455 3.678l-3.717 1.951A7 7 0 0 0 32 39a7 7 0 0 0 7-7 7 7 0 0 0-1.975-4.873z" opacity=".2" fill="url(#linearGradient4372)" fill-opacity="1" fill-rule="evenodd" stroke="none"/><path id="rect4270" transform="translate(376.571 491.798)" d="M32 23a8.98 8.98 0 0 0-9 9c0 4.986 4.014 9 9 9s9-4.014 9-9-4.014-9-9-9zm0 1a8 8 0 0 1 8 8 8 8 0 0 1-8 8 8 8 0 0 1-8-8 8 8 0 0 1 8-8zm0 1a7 7 0 0 0-7 7 7 7 0 0 0 7 7 7 7 0 0 0 7-7 7 7 0 0 0-7-7zm0 4c1.662 0 3 1.338 3 3s-1.338 3-3 3-3-1.338-3-3 1.338-3 3-3z" fill="url(#linearGradient3862)" fill-opacity="1" stroke="none"/><path id="rect4284" transform="translate(376.571 491.798)" d="M6.002 31.191c-.005.218 0 .436 0 .655C6.002 46.335 17.597 58 32 58s25.998-11.665 25.998-26.154c0-.22.005-.437 0-.655C57.654 45.375 46.185 57 32 57S6.346 45.375 6.002 31.191z" fill="#2e3132" fill-opacity=".294" stroke="none"/><path id="path4558" transform="translate(376.571 491.798)" d="M32 24a8 8 0 0 0-8 8 8 8 0 0 0 8 8 8 8 0 0 0 8-8 8 8 0 0 0-8-8zm0 1a7 7 0 0 1 7 7 7 7 0 0 1-7 7 7 7 0 0 1-7-7 7 7 0 0 1 7-7z" opacity="1" fill="#2e3132" fill-opacity=".294" stroke-linecap="round"/></g><g transform="matrix(.7619 0 0 .76923 -271.293 -198.921)" id="layer1-91" fill-opacity="1" stroke="none"><path id="rect4202" d="M388.571 510.798c-.554 0-1 .446-1 1v7c0 .554.446 1 1 1h2v-9h-2z" opacity="1" fill="#afc0c6"/><path id="rect4139-30" transform="translate(376.571 491.798)" d="M11 6v14h2v13h-2v25h42V28h-1v-5h1V13l-7-7H11z" opacity="1" fill="url(#linearGradient4158-8)"/><path id="rect4492-0" opacity="1" fill="#1c1e20" stroke-width="2.8" stroke-miterlimit="4" stroke-dasharray="none" stroke-opacity=".55" d="M387.571 548.798h42v1h-42z"/><rect id="rect4963" width="15.6" height="15.6" x="400.772" y="506.898" ry="7.8" opacity="1" fill="#abb9be" stroke-width=".1" stroke-miterlimit="4" stroke-dasharray="none" stroke-opacity="1"/><path id="rect4407" opacity="1" fill="url(#linearGradient4415)" d="M390.571 511.798h36v32h-36z"/><path id="rect4500" transform="translate(376.571 491.798)" d="M28.707 31.293l-1.414 1.414 8.05 8.05-.224.243 17 17H53v-8.88L39.805 35.923 36.7 39.287l-7.994-7.994zm-2.146 6.146l-2.122 2.122 5.5 5.5-1.353 1.353L40.172 58h6.95L26.56 37.44z" opacity=".2" fill="url(#linearGradient4521)"/><path id="rect4175" opacity="1" fill="url(#linearGradient4183)" d="M390.571 505.798h36v11h-36z"/><rect ry="1" y="545.798" x="393.071" height="2" width="31" id="rect4185" opacity="1" fill="#1c1e20"/><path id="rect4332" opacity="1" fill="#96aab5" d="M387.571 511.798h2v1h-2z"/><path id="path4496" d="M404.571 522.798c-.554 0-1 .446-1 1s.446 1 1 1 1-.446 1-1-.446-1-1-1z" opacity="1" fill="#afc0c6"/><path id="path4494" d="M411.571 522.798l-2 2 3 3-3 3 2 2 3-3 2-2-5-5z" opacity="1" fill="#afc0c6"/><path id="path4492" d="M402.071 528.798c-.83 0-1.5.669-1.5 1.5s.67 1.5 1.5 1.5c.831 0 1.5-.669 1.5-1.5s-.669-1.5-1.5-1.5z" opacity="1" fill="#afc0c6"/><path id="rect4231" d="M406.571 534.798c-1.108 0-2 .892-2 2s.892 2 2 2 2-.892 2-2-.892-2-2-2z" opacity="1" fill="#afc0c6"/><path id="rect4604" transform="translate(376.571 491.798)" d="M16 16v1h12v-1H16zm0 2v1h18v-1H16zm0 2v1h8v-1h-8zm0 2v1h5v-1h-5z" opacity="1" fill="#dfe6e8"/><path id="path4616" d="M394.571 519.798l-1 1-1-1z" fill="#dfe6e8" fill-rule="evenodd" stroke-width="1" stroke-linecap="butt" stroke-linejoin="miter" stroke-opacity="1"/><path id="rect4618" transform="translate(376.571 491.798)" d="M43 47v1h5v-1h-5zm0 2v1h2v-1h-2z" opacity="1" fill="#afc0c6"/></g><g transform="matrix(2 0 0 2 6 -1928.724)" id="layer1-5" stroke="none"><rect ry="1" y="1037.362" x="7" height="8" width="8" id="rect4153" opacity="1" fill="#da4453" fill-opacity="1"/><path transform="translate(7 1037.362)" id="path4141" d="M2 1L1 2l2 2-2 2 1 1 2-2 2 2 1-1-2-2 2-2-1-1-2 2-2-2z" fill="#fff" fill-rule="evenodd" stroke-width="1" stroke-linecap="butt" stroke-linejoin="miter" stroke-opacity="1"/></g><g transform="matrix(2 0 0 2 6 -1990.724)" id="layer1-1" fill-opacity="1" stroke="none"><rect ry="4" y="1037.362" x="7" height="8" width="8" id="rect4153-3" opacity="1" fill="#27ae60"/><path id="path4142" d="M13 1039.362l-3 3-1-1-1 1 1 1 1 1 4-4-1-1z" fill="#fff" fill-rule="evenodd" stroke-width="1" stroke-linecap="butt" stroke-linejoin="miter" stroke-opacity="1"/></g><g transform="matrix(2 0 0 2 6 -1866.724)" id="layer1-5-9" stroke="none"><rect ry="1" y="1037.362" x="7" height="8" width="8" id="rect4153-2" opacity="1" fill="#da4453" fill-opacity="1"/><path transform="translate(7 1037.362)" id="path4141-6" d="M2 1L1 2l2 2-2 2 1 1 2-2 2 2 1-1-2-2 2-2-1-1-2 2-2-2z" fill="#fff" fill-rule="evenodd" stroke-width="1" stroke-linecap="butt" stroke-linejoin="miter" stroke-opacity="1"/></g><path d="M72 84c-1.662 0-3 1.338-3 3s1.338 3 3 3h137c1.662 0 3-1.338 3-3s-1.338-3-3-3H72zm0 63c-1.662 0-3 1.338-3 3s1.338 3 3 3h137c1.662 0 3-1.338 3-3s-1.338-3-3-3H72zm0 61c-1.662 0-3 1.338-3 3s1.338 3 3 3h137c1.662 0 3-1.338 3-3s-1.338-3-3-3H72z" id="rect6597" opacity=".3" fill="currentColor" fill-opacity="1" stroke="none"/><rect ry="3" y="69" x="-90" height="133.073" width="6" id="rect6599" transform="rotate(-90)" color="#3daee9" fill="currentColor" fill-opacity="1" stroke="none"/><path d="M72 147c-1.662 0-3 1.338-3 3s1.338 3 3 3h55c1.662 0 3-1.338 3-3s-1.338-3-3-3H72zm0 61c-1.662 0-3 1.338-3 3s1.338 3 3 3h104.598c1.662 0 3-1.338 3-3s-1.338-3-3-3H72z" id="rect6599-6" opacity="1" fill="#474747" fill-opacity="1" stroke="none"/></svg>