<svg xmlns="http://www.w3.org/2000/svg" xmlns:xlink="http://www.w3.org/1999/xlink" viewBox="0 0 256 256" id="svg2" version="1.1"><defs id="defs4"><linearGradient id="linearGradient4547"><stop id="stop4549" offset="0" stop-color="#313437" stop-opacity="1"/><stop offset=".979" id="stop4555" stop-color="#313437" stop-opacity=".498"/><stop id="stop4551" offset="1" stop-color="#313437" stop-opacity="0"/></linearGradient><linearGradient gradientTransform="translate(2.646)" gradientUnits="userSpaceOnUse" y2="267.631" x2="19.05" y1="292.502" x1="19.05" id="linearGradient4652" xlink:href="#linearGradient4303"/><linearGradient id="linearGradient4303"><stop offset="0" id="stop4305" stop-color="#c6cdd1" stop-opacity="1"/><stop offset="1" id="stop4307" stop-color="#e0e5e7" stop-opacity="1"/></linearGradient><linearGradient gradientTransform="translate(1.588 -.265)" gradientUnits="userSpaceOnUse" y2="278.744" x2="28.046" y1="282.977" x1="28.046" id="linearGradient4742" xlink:href="#linearGradient4736-9"/><linearGradient id="linearGradient4736-9"><stop id="stop4738-8" offset="0" stop-color="#ccc" stop-opacity="1"/><stop id="stop4740-1" offset="1" stop-color="#ccc" stop-opacity="0"/></linearGradient><linearGradient gradientTransform="translate(-1.852)" gradientUnits="userSpaceOnUse" y2="267.367" x2="6.615" y1="292.767" x1="6.615" id="linearGradient4306" xlink:href="#linearGradient4143"/><linearGradient id="linearGradient4143"><stop offset="0" id="stop4145" stop-color="#197cf1" stop-opacity="1"/><stop offset="1" id="stop4147" stop-color="#20bcfa" stop-opacity="1"/></linearGradient><linearGradient gradientUnits="userSpaceOnUse" y2="39" x2="32" y1="23" x1="16" id="linearGradient4507" xlink:href="#linearGradient4227" gradientTransform="matrix(.26458 0 0 .26458 -.265 263.133)"/><linearGradient id="linearGradient4227"><stop id="stop4229" offset="0" stop-color="#292c2f" stop-opacity="1"/><stop id="stop4231" offset="1" stop-color="#000" stop-opacity="0"/></linearGradient><linearGradient gradientTransform="translate(0 -2)" gradientUnits="userSpaceOnUse" y2="1033.362" x2="11" y1="1049.362" x1="11" id="linearGradient4444" xlink:href="#linearGradient4438"/><linearGradient id="linearGradient4438"><stop id="stop4440" offset="0" stop-color="#000" stop-opacity="0"/><stop id="stop4442" offset="1" stop-color="#000" stop-opacity="1"/></linearGradient><linearGradient gradientTransform="translate(0 -2)" gradientUnits="userSpaceOnUse" y2="3" x2="11" y1="19" x1="11" id="linearGradient4452" xlink:href="#linearGradient4290-2"/><linearGradient id="linearGradient4290-2"><stop offset="0" id="stop4292" stop-color="#7cbaf8" stop-opacity="1"/><stop offset="1" id="stop4294" stop-color="#f4fcff" stop-opacity="1"/></linearGradient><radialGradient gradientTransform="translate(2.646)" gradientUnits="userSpaceOnUse" r="12.7" fy="280.067" fx="18.521" cy="280.067" cx="18.521" id="radialGradient4553" xlink:href="#linearGradient4547"/><style id="current-color-scheme" type="text/css"></style></defs><path d="M16 10h224c3.324 0 6 2.676 6 6v224c0 3.324-2.676 6-6 6H16c-3.324 0-6-2.676-6-6V16c0-3.324 2.676-6 6-6z" id="rect4240" fill="currentColor" fill-opacity=".5" stroke="none" color="#31363b"/><path d="M16 12h224c2.216 0 4 1.784 4 4v224c0 2.216-1.784 4-4 4H16c-2.216 0-4-1.784-4-4V16c0-2.216 1.784-4 4-4z" id="rect4238" fill="currentColor" fill-opacity="1" stroke="none" color="#eff0f1"/><path d="M104.727 26.639l-1.303.095v11.584h1.303v-3.07l.904-.857 3.332 3.927h1.547l-3.967-4.562 3.666-3.832h-1.596l-3.935 4.26.049-1.729V26.64zm-82.489.095v11.584h1.397v-4.77l1.031-.95 4.396 5.72h1.633l-4.982-6.435 4.746-5.149h-1.635l-5.19 5.545v-5.545h-1.396zm47.155 0a.865.865 0 0 0-.627.239.796.796 0 0 0-.237.601c0 .249.078.453.237.612a.865.865 0 0 0 .627.238c.248 0 .455-.08.619-.238a.814.814 0 0 0 .246-.612.784.784 0 0 0-.246-.601.838.838 0 0 0-.62-.239zm6.99 0v11.584h1.396v-5.586h3.508c.434.979 1.213 2.841 2.34 5.586h1.445c-.164-.38-.425-.98-.785-1.8l-.937-2.166c-.27-.63-.527-1.237-.77-1.819.667-.19 1.17-.51 1.508-.959.344-.455.516-1.087.516-1.896 0-1.01-.292-1.755-.874-2.23-.581-.477-1.478-.714-2.689-.714h-4.658zm34.945 0l.285 4.022h.723l.3-4.022h-1.308zM77.78 27.781h3.285c.804 0 1.37.16 1.692.477.323.312.482.793.482 1.443 0 .386-.03.7-.093.938a1.319 1.319 0 0 1-.366.617c-.174.17-.418.289-.73.357-.312.069-.72.104-1.223.104H77.78V27.78zM35.521 29.75c-1.232 0-2.2.401-2.904 1.205-.698.799-1.049 1.857-1.049 3.174 0 1.285.356 2.333 1.065 3.142.709.805 1.672 1.206 2.888 1.206 1.19 0 2.147-.404 2.872-1.213.724-.815 1.087-1.86 1.087-3.135 0-1.317-.35-2.375-1.048-3.174-.699-.804-1.667-1.205-2.91-1.205zm9.8 0c-1.265 0-2.216.443-2.85 1.332l-.143-1.158h-1.142v8.394h1.318v-4.681c0-1.92.861-2.881 2.586-2.881.64 0 1.086.194 1.34.58.254.38.38.949.38 1.705v5.277h1.319v-5.132c0-1.154-.231-2.015-.691-2.58-.455-.572-1.16-.856-2.118-.856zm8.21 0c-1.163 0-2.077.406-2.744 1.22-.666.815-1 1.883-1 3.206 0 1.248.346 2.278 1.04 3.088.697.809 1.594 1.213 2.689 1.213 1.248 0 2.156-.518 2.722-1.555l-.033 1.959V42h1.303V29.924h-1.192l-.142 1.357c-.566-1.02-1.447-1.531-2.643-1.531zm36.739 0c-1.233 0-2.201.401-2.905 1.205-.698.799-1.047 1.857-1.047 3.174 0 1.285.354 2.333 1.063 3.142.709.805 1.672 1.206 2.889 1.206 1.19 0 2.146-.404 2.87-1.213.725-.815 1.089-1.86 1.089-3.135 0-1.317-.35-2.375-1.047-3.174-.699-.804-1.67-1.205-2.912-1.205zm9.226 0c-1.169 0-2.118.393-2.848 1.182-.73.783-1.095 1.858-1.095 3.228 0 1.312.355 2.36 1.064 3.143.714.783 1.67 1.174 2.871 1.174.513 0 .974-.06 1.381-.182.407-.122.701-.254.881-.397l-.246-.896a3.49 3.49 0 0 1-1.77.459c-.925 0-1.628-.304-2.109-.912-.481-.608-.723-1.405-.723-2.389 0-1.037.252-1.86.754-2.474.503-.614 1.17-.92 2-.92.656 0 1.241.152 1.754.459l.371-.905c-.18-.121-.469-.246-.87-.373-.398-.132-.87-.197-1.415-.197zm17.385 0c-.878 0-1.56.212-2.047.635-.487.418-.73.968-.73 1.65 0 .55.141.999.421 1.348.28.344.799.637 1.555.88l.92.294c.608.195 1.029.404 1.262.627.232.222.35.498.35.826 0 .476-.14.84-.42 1.094-.281.248-.676.373-1.184.373-.81 0-1.716-.24-2.72-.721v1.101c.867.413 1.743.62 2.626.62.397 0 .76-.048 1.094-.143.338-.095.64-.237.904-.428.27-.19.481-.444.635-.761a2.56 2.56 0 0 0 .23-1.112c0-.338-.032-.624-.095-.857a1.754 1.754 0 0 0-.348-.666 2.17 2.17 0 0 0-.707-.54 6.8 6.8 0 0 0-1.15-.46l-.834-.262c-.545-.175-.901-.339-1.07-.492-.17-.154-.255-.402-.255-.746 0-.408.13-.716.389-.928.265-.217.7-.326 1.309-.326.682 0 1.389.186 2.119.557l.31-.977a5.72 5.72 0 0 0-2.564-.586zm-57.367.174v5.125c0 1.137.249 1.996.746 2.572.502.571 1.241.856 2.215.856.687 0 1.23-.103 1.627-.309.402-.212.738-.53 1.007-.953l.135 1.103h1.143v-8.394h-1.319v4.713c0 .333-.022.637-.07.912-.048.275-.13.534-.246.777a1.901 1.901 0 0 1-.453.612c-.18.163-.412.293-.697.388-.28.095-.604.143-.97.143-.645 0-1.108-.192-1.388-.578-.275-.387-.412-.954-.412-1.7v-5.267h-1.318zm9.22 0v8.394h1.301v-8.394h-1.3zm-33.213.832c.863 0 1.513.31 1.952.93.439.613.658 1.432.658 2.459 0 .655-.09 1.23-.27 1.722-.18.487-.47.878-.873 1.174-.396.29-.885.436-1.467.436-.846 0-1.493-.307-1.937-.92-.444-.614-.666-1.42-.666-2.42 0-1.021.222-1.838.666-2.451.444-.62 1.091-.93 1.937-.93zm18.163 0c.835 0 1.458.286 1.87.857.413.566.62 1.35.62 2.35 0 2.343-.832 3.514-2.498 3.514-.847 0-1.49-.302-1.93-.905-.439-.603-.658-1.424-.658-2.467 0-1.026.217-1.84.65-2.443.44-.603 1.089-.906 1.946-.906zm36.586 0c.862 0 1.512.31 1.95.93.44.613.659 1.432.659 2.459 0 .655-.09 1.23-.27 1.722-.18.487-.47.878-.873 1.174-.396.29-.885.436-1.466.436-.847 0-1.492-.307-1.936-.92-.444-.614-.668-1.42-.668-2.42 0-1.021.224-1.838.668-2.451.444-.62 1.09-.93 1.936-.93zM20 50v1h216v-1H20zm108 138c-13.296 0-24 10.704-24 24s10.704 24 24 24 24-10.704 24-24-10.704-24-24-24zm0 3c11.634 0 21 9.366 21 21s-9.366 21-21 21-21-9.366-21-21 9.366-21 21-21zm-86 5c-8.864 0-16 7.136-16 16s7.136 16 16 16 16-7.136 16-16-7.136-16-16-16zm172 0c-8.864 0-16 7.136-16 16s7.136 16 16 16 16-7.136 16-16-7.136-16-16-16zm-172 2c7.756 0 14 6.244 14 14s-6.244 14-14 14-14-6.244-14-14 6.244-14 14-14zm172 0c7.756 0 14 6.244 14 14s-6.244 14-14 14-14-6.244-14-14 6.244-14 14-14zm-92 5v18l12-9-12-9zm-86 3v12h4v-12h-4zm4 6l8 6v-12l-8 6zm168-6v12l8-6-8-6zm8 6v6h4v-12h-4v6z" id="path7228" fill="currentColor" fill-opacity="1" stroke="none" color="#4d4d4d"/><g transform="matrix(4.32928 0 0 4.32928 54.69 -1093.468)" id="layer1-7" stroke="none"><g transform="translate(-2.381)" id="g4785"><path id="path4744" d="M21.167 276.362a3.704 3.704 0 0 0-3.705 3.705 3.704 3.704 0 0 0 3.705 3.704 3.704 3.704 0 0 0 3.704-3.704 3.704 3.704 0 0 0-3.704-3.705zm0 2.701a1.003 1.003 0 0 1 1.003 1.004 1.003 1.003 0 0 1-1.003 1.003 1.003 1.003 0 0 1-1.004-1.003 1.003 1.003 0 0 1 1.004-1.004z" opacity="1" fill="#000" fill-opacity=".157" stroke-width=".1" stroke-linecap="round" stroke-linejoin="miter" stroke-miterlimit="4" stroke-dasharray="none" stroke-opacity=".299"/><path d="M21.167 267.367a12.7 12.7 0 0 0-12.7 12.7 12.7 12.7 0 0 0 12.7 12.7 12.7 12.7 0 0 0 12.7-12.7 12.7 12.7 0 0 0-12.7-12.7zm0 9.26a3.44 3.44 0 0 1 3.44 3.44 3.44 3.44 0 0 1-3.44 3.44 3.44 3.44 0 0 1-3.44-3.44 3.44 3.44 0 0 1 3.44-3.44z" id="circle4545" opacity="1" fill="url(#radialGradient4553)" fill-opacity="1" stroke-width=".1" stroke-linecap="round" stroke-linejoin="miter" stroke-miterlimit="4" stroke-dasharray="none" stroke-opacity=".299"/><path d="M21.167 267.631A12.435 12.435 0 0 0 8.73 280.067a12.435 12.435 0 0 0 12.436 12.435 12.435 12.435 0 0 0 12.435-12.435 12.435 12.435 0 0 0-12.435-12.436zm0 8.996a3.44 3.44 0 0 0-.29.015 3.44 3.44 0 0 1 .29-.015zm.29.015a3.44 3.44 0 0 1 .177.021 3.44 3.44 0 0 0-.177-.021zm-.757.021a3.44 3.44 0 0 0-.167.025 3.44 3.44 0 0 1 .167-.025zm1.1.025a3.44 3.44 0 0 1 .173.039 3.44 3.44 0 0 0-.172-.039zm-1.44.039a3.44 3.44 0 0 0-.157.04 3.44 3.44 0 0 1 .158-.04zm1.77.04a3.44 3.44 0 0 1 .172.057 3.44 3.44 0 0 0-.172-.057zm-2.099.057a3.44 3.44 0 0 0-.156.057 3.44 3.44 0 0 1 .156-.057zm2.428.057a3.44 3.44 0 0 1 .157.07 3.44 3.44 0 0 0-.157-.07zm-2.742.07a3.44 3.44 0 0 0-.155.076 3.44 3.44 0 0 1 .155-.075zm3.054.076a3.44 3.44 0 0 1 .143.082 3.44 3.44 0 0 0-.143-.082zm-3.352.082a3.44 3.44 0 0 0-.154.094 3.44 3.44 0 0 1 .154-.094zm3.65.094a3.44 3.44 0 0 1 .134.097 3.44 3.44 0 0 0-.135-.097zm-3.939.097a3.44 3.44 0 0 0-.138.104 3.44 3.44 0 0 1 .138-.104zm4.211.104a3.44 3.44 0 0 1 .133.117 3.44 3.44 0 0 0-.133-.117zm-4.482.117a3.44 3.44 0 0 0-.123.115 3.44 3.44 0 0 1 .123-.115zm4.739.115a3.44 3.44 0 0 1 .114.123 3.44 3.44 0 0 0-.114-.123zm-4.977.123a3.44 3.44 0 0 0-.117.133 3.44 3.44 0 0 1 .117-.133zm5.208.133a3.44 3.44 0 0 1 .104.138 3.44 3.44 0 0 0-.104-.138zm-5.43.138a3.44 3.44 0 0 0-.096.135 3.44 3.44 0 0 1 .097-.135zm5.631.135a3.44 3.44 0 0 1 .095.154 3.44 3.44 0 0 0-.095-.154zm-5.821.154a3.44 3.44 0 0 0-.082.143 3.44 3.44 0 0 1 .082-.143zm5.997.143a3.44 3.44 0 0 1 .076.155 3.44 3.44 0 0 0-.076-.155zm-6.154.155a3.44 3.44 0 0 0-.071.158 3.44 3.44 0 0 1 .07-.158zm3.115.127a1.323 1.323 0 0 1 1.323 1.323 1.323 1.323 0 0 1-1.323 1.322 1.323 1.323 0 0 1-1.323-1.322 1.323 1.323 0 0 1 1.323-1.323zm3.186.03a3.44 3.44 0 0 1 .056.157 3.44 3.44 0 0 0-.056-.156zm-6.429.157a3.44 3.44 0 0 0-.057.172 3.44 3.44 0 0 1 .057-.172zm6.542.172a3.44 3.44 0 0 1 .04.157 3.44 3.44 0 0 0-.04-.157zm-6.64.157a3.44 3.44 0 0 0-.038.172 3.44 3.44 0 0 1 .039-.172zm6.72.172a3.44 3.44 0 0 1 .024.167 3.44 3.44 0 0 0-.025-.167zm-6.783.167a3.44 3.44 0 0 0-.021.178 3.44 3.44 0 0 1 .021-.178zm6.829.178a3.44 3.44 0 0 1 .014.29 3.44 3.44 0 0 0-.014-.29zm-6.865.29a3.44 3.44 0 0 0 .015.29 3.44 3.44 0 0 1-.015-.29zm6.865.29a3.44 3.44 0 0 1-.022.177 3.44 3.44 0 0 0 .022-.178zm-6.829.177a3.44 3.44 0 0 0 .025.167 3.44 3.44 0 0 1-.025-.167zm6.782.167a3.44 3.44 0 0 1-.038.172 3.44 3.44 0 0 0 .038-.172zm-6.718.172a3.44 3.44 0 0 0 .04.157 3.44 3.44 0 0 1-.04-.157zm6.64.157a3.44 3.44 0 0 1-.058.172 3.44 3.44 0 0 0 .057-.172zm-6.543.172a3.44 3.44 0 0 0 .057.156 3.44 3.44 0 0 1-.057-.156zm6.429.156a3.44 3.44 0 0 1-.071.158 3.44 3.44 0 0 0 .07-.158zm-6.301.158a3.44 3.44 0 0 0 .075.155 3.44 3.44 0 0 1-.075-.155zm6.154.155a3.44 3.44 0 0 1-.081.143 3.44 3.44 0 0 0 .081-.143zm-5.997.143a3.44 3.44 0 0 0 .094.154 3.44 3.44 0 0 1-.094-.154zm5.821.154a3.44 3.44 0 0 1-.097.135 3.44 3.44 0 0 0 .097-.135zm-5.63.135a3.44 3.44 0 0 0 .104.138 3.44 3.44 0 0 1-.104-.138zm5.429.138a3.44 3.44 0 0 1-.117.133 3.44 3.44 0 0 0 .117-.133zm-5.208.133a3.44 3.44 0 0 0 .115.123 3.44 3.44 0 0 1-.115-.123zm4.977.123a3.44 3.44 0 0 1-.124.115 3.44 3.44 0 0 0 .124-.115zm-4.739.115a3.44 3.44 0 0 0 .133.117 3.44 3.44 0 0 1-.133-.117zm4.482.117a3.44 3.44 0 0 1-.138.104 3.44 3.44 0 0 0 .138-.104zm-4.21.104a3.44 3.44 0 0 0 .134.097 3.44 3.44 0 0 1-.135-.097zm3.937.097a3.44 3.44 0 0 1-.154.094 3.44 3.44 0 0 0 .154-.094zm-3.649.094a3.44 3.44 0 0 0 .143.082 3.44 3.44 0 0 1-.143-.082zm3.352.082a3.44 3.44 0 0 1-.155.075 3.44 3.44 0 0 0 .155-.075zm-3.054.075a3.44 3.44 0 0 0 .158.071 3.44 3.44 0 0 1-.158-.07zm2.742.071a3.44 3.44 0 0 1-.157.057 3.44 3.44 0 0 0 .157-.057zm-2.428.057a3.44 3.44 0 0 0 .172.057 3.44 3.44 0 0 1-.172-.057zm2.099.057a3.44 3.44 0 0 1-.157.04 3.44 3.44 0 0 0 .157-.04zm-1.77.04a3.44 3.44 0 0 0 .173.039 3.44 3.44 0 0 1-.172-.039zm1.44.039a3.44 3.44 0 0 1-.166.025 3.44 3.44 0 0 0 .167-.025zm-1.1.025a3.44 3.44 0 0 0 .177.021 3.44 3.44 0 0 1-.177-.021zm.757.021a3.44 3.44 0 0 1-.29.015 3.44 3.44 0 0 0 .29-.015z" id="path4308" opacity="1" fill="url(#linearGradient4652)" fill-opacity="1" stroke-width=".1" stroke-linecap="round" stroke-linejoin="miter" stroke-miterlimit="4" stroke-dasharray="none" stroke-opacity=".299"/><path d="M21.167 268.16A11.906 11.906 0 0 0 9.26 280.067a11.906 11.906 0 0 0 11.907 11.906 11.906 11.906 0 0 0 11.906-11.906 11.906 11.906 0 0 0-11.906-11.907zm0 8.467a3.44 3.44 0 0 1 3.44 3.44 3.44 3.44 0 0 1-3.44 3.44 3.44 3.44 0 0 1-3.44-3.44 3.44 3.44 0 0 1 3.44-3.44zm0 .794a2.646 2.646 0 0 0-2.646 2.646 2.646 2.646 0 0 0 2.646 2.646 2.646 2.646 0 0 0 2.646-2.646 2.646 2.646 0 0 0-2.646-2.646zm0 1.323a1.323 1.323 0 0 1 1.323 1.323 1.323 1.323 0 0 1-1.323 1.323 1.323 1.323 0 0 1-1.323-1.323 1.323 1.323 0 0 1 1.323-1.323z" id="circle4543" opacity="1" fill="#313437" fill-opacity="1" stroke-width=".1" stroke-linecap="round" stroke-linejoin="miter" stroke-miterlimit="4" stroke-dasharray="none" stroke-opacity=".299"/><path d="M28.84 278.48V280.667a.528.528 0 1 0-.265.985c.293.001.53-.235.53-.528v-1.587h1.851v.602a.528.528 0 1 0-.265.985c.294 0 .53-.236.53-.53v-2.116H28.84zm.264.528h1.852v.265h-1.852v-.265z" id="rect4141" fill="url(#linearGradient4742)" fill-opacity="1"/><path d="M26.822 270.271a11.327 11.327 0 0 0-1.78-.82l-2.062 5.578c.294.107.584.235.866.398.28.162.537.349.777.55l3.799-4.574a11.335 11.335 0 0 0-1.6-1.132z" id="path4128" fill="#4c5053" fill-opacity="1"/><path id="path4197" d="M15.511 289.862a11.314 11.314 0 0 1-1.6-1.131l3.8-4.575c.239.201.496.389.777.55.28.163.571.292.866.398l-2.063 5.578a11.326 11.326 0 0 1-1.78-.82z" fill="#4c5053" fill-opacity="1"/><path d="M13.169 288.065c-.472-.472-.882-.98-1.253-1.507l4.854-3.436c.179.257.379.504.608.733.23.23.477.43.733.609l-3.435 4.853c-.527-.37-1.036-.78-1.507-1.252z" id="path4461" fill="#4c5053" fill-opacity=".198"/><path d="M30.962 274.411a11.317 11.317 0 0 0-1.131-1.6l-4.575 3.8c.201.239.388.496.55.777.163.281.292.571.399.866l5.577-2.063a11.328 11.328 0 0 0-.82-1.78z" id="path4463" fill="#4c5053" fill-opacity=".198"/><path id="path4465" d="M11.371 285.722a11.33 11.33 0 0 1-.82-1.78l5.578-2.062a5.4 5.4 0 0 0 .398.866c.162.28.349.537.55.777l-4.574 3.799a11.316 11.316 0 0 1-1.132-1.6z" fill="#4c5053" fill-opacity=".198"/><path d="M80 52a12 12 0 0 0-12 12 12 12 0 0 0 12 12 12 12 0 0 0 12-12 12 12 0 0 0-12-12zm0 1a11 11 0 0 1 11 11 11 11 0 0 1-11 11 11 11 0 0 1-11-11 11 11 0 0 1 11-11z" transform="matrix(.26458 0 0 .26458 0 263.133)" id="path4780" opacity="1" fill="#000" fill-opacity=".078" stroke-width=".1" stroke-linecap="round" stroke-linejoin="miter" stroke-miterlimit="4" stroke-dasharray="none" stroke-opacity=".299"/></g><path id="rect4188" d="M2.381 267.367v25.4h25.4v-10.848H25.4a1.848 1.848 0 0 1-1.852-1.852c0-1.026.826-1.852 1.852-1.852h2.381v-10.848h-25.4z" opacity="1" fill="url(#linearGradient4306)" fill-opacity="1" stroke-width=".1" stroke-linecap="round" stroke-linejoin="miter" stroke-miterlimit="4" stroke-dasharray="none" stroke-opacity=".299"/><path id="rect4480" d="M5.214 269.296l-.374.374 2.117 2.117-.078.078 2.91 2.91h1.059v-1.588l-1.323-1.322-1.323-1.323-.871.87-2.117-2.116zm-.568 1.627l-.561.56 1.455 1.456-.358.358 1.478 1.478H8.5l-3.854-3.852z" opacity=".2" fill="url(#linearGradient4507)" fill-opacity="1" stroke-opacity="1"/><g id="layer1-2" transform="matrix(.26458 0 0 .26458 3.175 -4.192)" fill="url(#linearGradient4444)" fill-opacity="1"><path d="M7 3c-.554 0-1 .446-1 1s.446 1 1 1 1-.446 1-1-.446-1-1-1zm7 0l-2 2 3 3-3 3 2 2 3-3 2-2-5-5zM4.5 9C3.669 9 3 9.669 3 10.5S3.669 12 4.5 12 6 11.331 6 10.5 5.331 9 4.5 9zM9 15c-1.108 0-2 .892-2 2s.892 2 2 2 2-.892 2-2-.892-2-2-2z" transform="translate(0 1030.362)" id="rect4231" opacity="1" fill="url(#linearGradient4452)" fill-opacity="1" stroke="none"/></g><path id="path4532" d="M27.517 267.367v10.583h-2.382a1.848 1.848 0 0 0-1.852 1.852c0 .58.265 1.097.68 1.436a1.845 1.845 0 0 1-.415-1.171c0-1.026.826-1.852 1.852-1.852h2.381v-10.848h-.264zm0 14.552v10.583H2.38v.265h25.4v-10.848h-.264z" opacity="1" fill="#000" fill-opacity=".314" stroke-width=".1" stroke-linecap="round" stroke-linejoin="miter" stroke-miterlimit="4" stroke-dasharray="none" stroke-opacity=".299"/><path id="path4537" d="M2.381 267.367v.264h25.136v-.264zm21.174 12.832c-.003.044-.007.088-.007.132 0 1.026.826 1.852 1.852 1.852h2.381v-.264H25.4a1.846 1.846 0 0 1-1.845-1.72z" opacity="1" fill="#fff" fill-opacity=".235" stroke-width=".1" stroke-linecap="round" stroke-linejoin="miter" stroke-miterlimit="4" stroke-dasharray="none" stroke-opacity=".299"/></g></svg>