<svg xmlns="http://www.w3.org/2000/svg" id="Capa_1" xml:space="preserve" viewBox="0 0 16 16" height="22" width="22" version="1.1" y="0" x="0"><defs id="defs7"><style type="text/css" id="current-color-scheme"></style></defs><path id="path4178" d="M5.818 2.91c-.803 0-1.454.976-1.454 2.18 0 1.206.65 2.183 1.454 2.183.804 0 1.455-.977 1.455-2.182s-.651-2.182-1.455-2.182zm3.637 0C8.65 2.91 8 3.885 8 5.09c0 1.206.651 2.183 1.455 2.183.803 0 1.454-.977 1.454-2.182s-.65-2.182-1.454-2.182zM3.554 6.534a.633.633 0 0 0-.19.054c-.49.229-.602 1.039-.25 1.809.351.77 1.033 1.208 1.522.98.49-.228.602-1.037.25-1.807-.307-.674-.869-1.094-1.332-1.036zm8.892 0c-.463-.058-1.025.362-1.333 1.036-.351.77-.239 1.579.25 1.807.49.228 1.171-.21 1.523-.98.352-.77.24-1.58-.25-1.809a.633.633 0 0 0-.19-.054zM7.882 8s-.768-.002-1.294.469c-.729.652-1.57 2.04-1.57 2.04-.444.698-.655 1.066-.655 1.451 0 .762.57 1.13 1.337 1.13.338 0 .547.005 1.098-.28 0 0 .358-.33 1.202-.296.836-.033 1.193.291 1.193.291.552.285.77.286 1.108.286.766 0 1.335-.37 1.335-1.131 0-.385-.21-.756-.654-1.452 0 .001-.863-1.363-1.569-2.04C8.92 7.999 8.118 8 8.118 8z" color="#1e333d" fill="currentColor" stroke-width=".727"/></svg>