<?xml version="1.0" encoding="UTF-8" standalone="no"?>
<svg
   xmlns:dc="http://purl.org/dc/elements/1.1/"
   xmlns:cc="http://creativecommons.org/ns#"
   xmlns:rdf="http://www.w3.org/1999/02/22-rdf-syntax-ns#"
   xmlns:svg="http://www.w3.org/2000/svg"
   xmlns="http://www.w3.org/2000/svg"
   xmlns:xlink="http://www.w3.org/1999/xlink"
   xmlns:sodipodi="http://sodipodi.sourceforge.net/DTD/sodipodi-0.dtd"
   xmlns:inkscape="http://www.inkscape.org/namespaces/inkscape"
   width="32"
   height="32"
   version="1"
   id="svg16"
   sodipodi:docname="folder-java.svg"
   inkscape:version="0.92.4 5da689c313, 2019-01-14">
  <metadata
     id="metadata22">
    <rdf:RDF>
      <cc:Work
         rdf:about="">
        <dc:format>image/svg+xml</dc:format>
        <dc:type
           rdf:resource="http://purl.org/dc/dcmitype/StillImage" />
      </cc:Work>
    </rdf:RDF>
  </metadata>
  <defs
     id="defs20">
    <linearGradient
       inkscape:collect="always"
       id="linearGradient820">
      <stop
         style="stop-color:#5e737b;stop-opacity:1"
         offset="0"
         id="stop816" />
      <stop
         style="stop-color:#ccd7db;stop-opacity:1"
         offset="1"
         id="stop818" />
    </linearGradient>
    <linearGradient
       inkscape:collect="always"
       xlink:href="#linearGradient820"
       id="linearGradient822"
       x1="16.901945"
       y1="28.61017"
       x2="16.873501"
       y2="6.7341037"
       gradientUnits="userSpaceOnUse" />
    <linearGradient
       gradientTransform="translate(0.0013488,-0.0581684)"
       inkscape:collect="always"
       xlink:href="#linearGradient990"
       id="linearGradient829-3"
       x1="16.87215"
       y1="28.452196"
       x2="16.87215"
       y2="6.7922716"
       gradientUnits="userSpaceOnUse" />
    <linearGradient
       id="linearGradient990"
       inkscape:collect="always">
      <stop
         id="stop986"
         offset="0"
         style="stop-color:#5e737b;stop-opacity:1" />
      <stop
         id="stop988"
         offset="1"
         style="stop-color:#a0b1b7;stop-opacity:1" />
    </linearGradient>
    <linearGradient
       inkscape:collect="always"
       xlink:href="#linearGradient889"
       id="linearGradient891"
       x1="-34.169491"
       y1="21.288134"
       x2="-13.152541"
       y2="7.4576254"
       gradientUnits="userSpaceOnUse"
       gradientTransform="matrix(1.2926751,0,0,1.5798246,46.671882,-6.6345211)" />
    <linearGradient
       inkscape:collect="always"
       id="linearGradient889">
      <stop
         style="stop-color:#8998ad;stop-opacity:1"
         offset="0"
         id="stop885" />
      <stop
         style="stop-color:#e8eaeb;stop-opacity:1"
         offset="1"
         id="stop887" />
    </linearGradient>
  </defs>
  <sodipodi:namedview
     pagecolor="#ffffff"
     bordercolor="#666666"
     borderopacity="1"
     objecttolerance="10"
     gridtolerance="10"
     guidetolerance="10"
     inkscape:pageopacity="0"
     inkscape:pageshadow="2"
     inkscape:window-width="678"
     inkscape:window-height="675"
     id="namedview18"
     showgrid="false"
     inkscape:zoom="15.125"
     inkscape:cx="16"
     inkscape:cy="16"
     inkscape:window-x="476"
     inkscape:window-y="52"
     inkscape:window-maximized="0"
     inkscape:current-layer="svg16" />
  <path
     style="fill:url(#linearGradient822);fill-opacity:1;stroke:none;stroke-width:0.14515875;stroke-miterlimit:4;stroke-dasharray:none;stroke-opacity:1"
     d="m 27.90368,6.7271305 c 1.168734,-7.39e-4 2.109629,0.940894 2.109629,2.10963 V 26.447279 c 0,1.168735 -0.940895,2.109629 -2.109629,2.109629 H 4.09632 c -1.168734,0 -2.109682,-0.940894 -2.109629,-2.109629 l 7.31e-4,-16.244506 7.32e-4,-5.0669075 c 0,-0.937797 0.754977,-1.692774 1.692773,-1.692774 h 9.09082 c 0.937797,0 1.704839,0.371321 2.299888,1.096152 l 1.801865,2.19486 z"
     id="rect4549-3"
     inkscape:connector-curvature="0"
     sodipodi:nodetypes="sssssscsssscs" />
  <rect
     style="opacity:1;vector-effect:none;fill:url(#linearGradient891);fill-opacity:1;fill-rule:nonzero;stroke:none;stroke-width:0.20743993;stroke-linecap:butt;stroke-linejoin:miter;stroke-miterlimit:4;stroke-dasharray:none;stroke-dashoffset:0;stroke-opacity:1;paint-order:markers stroke fill"
     id="rect883"
     width="27.168089"
     height="21.849777"
     x="2.5018303"
     y="5.1472187"
     transform="matrix(0.99999999,1.0125852e-4,-6.7794228e-5,1,0,0)"
     inkscape:transform-center-x="4.8282266"
     inkscape:transform-center-y="-6.7305722" />
  <path
     style="fill:url(#linearGradient829-3);fill-opacity:1;stroke:none;stroke-width:0.1;stroke-miterlimit:4;stroke-dasharray:none;stroke-opacity:1"
     d="m 27.90368,6.7271305 c 1.168734,-7.388e-4 2.109629,0.9408941 2.109629,2.1096297 V 26.447281 c 0,1.168735 -0.940895,2.109629 -2.109629,2.109629 H 4.096321 c -1.168735,0 -2.109682,-0.940894 -2.10963,-2.109629 L 1.987422,10.202773 2.100381,5.9214581 C 2.125111,4.9839874 2.743131,4.4531403 3.680927,4.4531403 h 8.978592 c 0.937797,0 1.827453,0.1319292 2.524344,0.7594692 l 1.689637,1.521494 z"
     id="rect4549-9"
     inkscape:connector-curvature="0"
     sodipodi:nodetypes="sssssscsssscs" />
  <path
     style="opacity:1;fill:#e8eaeb;fill-opacity:1"
     d="m 15.685966,10.771186 c 0,0 0.577,0.353 0.17,1.281 -0.616,1.399 0.568,1.719 0.568,1.719 0,0 -0.376,-0.328 0.125,-1.482 0.554,-1.28 -0.863,-1.518 -0.863,-1.518 z m 1.592,1.928 c 0,0 -1.049,0.465 -0.373,1.738 0.446,0.843 -0.049,1.262 -0.049,1.262 0,0 1.267,-0.418 0.656,-1.582 -0.549,-1.053 -0.234,-1.418 -0.234,-1.418 z m -3.264,0.072 c 0,0 -0.751,0.799 -0.008,1.781 0.492,0.654 0.17,1.219 0.17,1.219 0,0 0.931,-0.825 0.258,-1.729 -0.608,-0.814 -0.42,-1.271 -0.42,-1.271 z m 0.162,3 h -2.498 l 1.5,6 h 5.5 l 0.34,-0.984 c 0.166,0.041 0.338,0.07 0.517,0.07 1.184,0 2.143,-0.76 2.143,-1.943 0,-1.005 -0.693,-1.84 -1.625,-2.073 l 0.197,-1.07 z m 5.705,1.76 a 0.71429,1.4286 15 0 1 0.024,0.004 0.71429,1.4286 15 0 1 0.32,1.564 0.71429,1.4286 15 0 1 -1.035,1.199 z"
     id="path14"
     inkscape:connector-curvature="0" />
</svg>
