<svg xmlns="http://www.w3.org/2000/svg" xmlns:xlink="http://www.w3.org/1999/xlink" width="32" height="32" version="1"><defs><linearGradient id="a"><stop offset="0" stop-color="#a6c4d2"/><stop offset="1" stop-color="#d3dae3"/></linearGradient><linearGradient xlink:href="#a" id="b" x1="1.9" y1="30.1" x2="29.861" y2="2.158" gradientUnits="userSpaceOnUse"/></defs><path d="M15.9 2.1c-1.246 3.056-1.999 5.057-3.387 8.022.851.902 1.895 1.947 3.591 3.134-1.823-.75-3.066-1.499-3.995-2.28C10.333 14.68 7.546 19.954 1.9 30.1c4.437-2.562 7.879-4.14 11.084-4.742a8.146 8.146 0 0 1-.208-1.902l.004-.138c.07-2.843 1.55-5.033 3.302-4.885 1.752.149 3.115 2.58 3.045 5.423a8.027 8.027 0 0 1-.178 1.524c3.17.62 6.575 2.194 10.951 4.72-.863-1.59-1.638-3.018-2.373-4.382-1.16-.898-2.366-2.068-4.831-3.334 1.694.44 2.911.948 3.857 1.516C19.073 9.972 18.465 8.12 15.9 2.1z" fill="url(#b)" fill-rule="evenodd"/></svg>