<?xml version="1.0" encoding="UTF-8" standalone="no"?>
<svg
   xmlns:dc="http://purl.org/dc/elements/1.1/"
   xmlns:cc="http://creativecommons.org/ns#"
   xmlns:rdf="http://www.w3.org/1999/02/22-rdf-syntax-ns#"
   xmlns:svg="http://www.w3.org/2000/svg"
   xmlns="http://www.w3.org/2000/svg"
   xmlns:sodipodi="http://sodipodi.sourceforge.net/DTD/sodipodi-0.dtd"
   xmlns:inkscape="http://www.inkscape.org/namespaces/inkscape"
   width="32"
   viewBox="0 0 32 32"
   version="1.1"
   height="32"
   id="svg12"
   sodipodi:docname="go-home-dark.svg"
   inkscape:version="0.92.4 5da689c313, 2019-01-14">
  <metadata
     id="metadata18">
    <rdf:RDF>
      <cc:Work
         rdf:about="">
        <dc:format>image/svg+xml</dc:format>
        <dc:type
           rdf:resource="http://purl.org/dc/dcmitype/StillImage" />
        <dc:title />
      </cc:Work>
    </rdf:RDF>
  </metadata>
  <defs
     id="defs16" />
  <sodipodi:namedview
     pagecolor="#ffffff"
     bordercolor="#666666"
     borderopacity="1"
     objecttolerance="10"
     gridtolerance="10"
     guidetolerance="10"
     inkscape:pageopacity="0"
     inkscape:pageshadow="2"
     inkscape:window-width="1920"
     inkscape:window-height="1022"
     id="namedview14"
     showgrid="false"
     inkscape:zoom="23.90625"
     inkscape:cx="16"
     inkscape:cy="16"
     inkscape:window-x="0"
     inkscape:window-y="26"
     inkscape:window-maximized="1"
     inkscape:current-layer="g1480"
     showguides="true"
     inkscape:guide-bbox="true" />
  <rect
     style="opacity:1;fill:#fdf6f6;fill-opacity:1;fill-rule:evenodd;stroke:none;stroke-width:1.03534329;stroke-linecap:round;stroke-linejoin:bevel;stroke-miterlimit:4;stroke-dasharray:none;stroke-dashoffset:0;stroke-opacity:1"
     id="rect4497-3"
     width="28.203388"
     height="28.203388"
     x="1.8983059"
     y="1.8983059"
     ry="5.575182" />
  <g
     id="g1480">
    <path
       sodipodi:nodetypes="cccssscccscscssscccsssssssss"
       inkscape:connector-curvature="0"
       id="rect4519-6"
       d="m 16.097395,11.027609 -7.053475,6.21019 -0.0035,0.0035 C 8.901677,17.378181 8.815,17.567427 8.815,17.778606 v 6.373707 c 0,0.4186 0.337087,0.755687 0.755688,0.755687 h 1.885132 v -6.963728 c 0.132132,-0.0022 0.58592,-0.0022 0.802407,0.006 h 3.060127 c 0.222183,0 0.422661,0.08862 0.567642,0.233597 0.14498,0.14498 0.234765,0.345459 0.234765,0.567642 v 6.156461 h 6.508026 c 0.418599,0 0.755687,-0.337087 0.755687,-0.755687 v -6.373708 c 0,-0.228147 -0.105103,-0.42582 -0.263965,-0.564138 h 0.01402 z m 2.035802,6.914486 h 1.83958 c 0.418601,0 0.755688,0.337087 0.755688,0.755688 v 1.83958 c 0,0.418601 -0.337087,0.755687 -0.755688,0.755687 h -1.83958 c -0.418601,0 -0.755687,-0.337086 -0.755687,-0.755687 v -1.83958 c 0,-0.418601 0.337086,-0.755688 0.755687,-0.755688 z"
       style="opacity:0.65100002;fill:#686868;fill-opacity:1;stroke:none;stroke-width:0.06052168;stroke-miterlimit:4;stroke-dasharray:none" />
    <path
       sodipodi:nodetypes="cccssscccscscssscccsssssssss"
       inkscape:connector-curvature="0"
       id="rect4519"
       d="m 15.997083,10.927737 -7.0534758,6.210189 -0.00353,0.0035 C 8.8013348,17.27828 8.7146575,17.467527 8.7146575,17.678705 v 6.373707 c 0,0.4186 0.3370872,0.755688 0.7556879,0.755688 h 1.8851316 v -6.963701 c 0.132133,-0.0022 0.58592,-0.0022 0.802408,0.006 h 3.060126 c 0.222184,0 0.422661,0.08862 0.567642,0.233597 0.14498,0.144981 0.234766,0.345459 0.234766,0.567642 V 24.8081 h 6.508026 c 0.418599,0 0.755687,-0.337088 0.755687,-0.755688 v -6.373707 c 0,-0.228147 -0.105103,-0.42582 -0.263965,-0.564138 h 0.01402 z m 2.035802,6.914486 h 1.83958 c 0.418601,0 0.755688,0.337087 0.755688,0.755688 v 1.83958 c 0,0.418601 -0.337087,0.755688 -0.755688,0.755688 h -1.83958 c -0.418601,0 -0.755688,-0.337087 -0.755688,-0.755688 v -1.83958 c 0,-0.418601 0.337087,-0.755688 0.755688,-0.755688 z"
       style="fill:#606d77;fill-opacity:1;stroke:none;stroke-width:0.06052168;stroke-miterlimit:4;stroke-dasharray:none" />
    <path
       id="rect4523-6"
       d="m 16.077557,7.287506 c -0.01561,0.00102 -0.03012,0.00903 -0.04555,0.011679 -0.03785,0.0055 -0.07393,0.013766 -0.109791,0.029201 -0.0086,0.00395 -0.01613,0.0095 -0.02453,0.014017 -0.03268,0.016601 -0.06692,0.029524 -0.09577,0.054897 l -9.5132628,8.365126 c -0.184345,0.162092 -0.201804,0.441696 -0.03971,0.626041 l 0.6832729,0.77788 c 0.1620916,0.184345 0.4416963,0.201803 0.6260411,0.03971 l 8.5414878,-7.5113262 8.54266,7.5113262 c 0.184345,0.162092 0.462781,0.144633 0.624873,-0.03971 l 0.684441,-0.77788 c 0.162092,-0.184345 0.144633,-0.463949 -0.03971,-0.626041 l -3.550681,-3.12203 v -2.366343 c 0,-0.4186002 -0.337088,-0.7556874 -0.755688,-0.7556874 h -0.499899 c -0.418601,0 -0.755687,0.3370872 -0.755687,0.7556874 v 0.59801 l -3.95247,-3.4747625 c -0.02807,-0.02468 -0.06056,-0.037346 -0.09227,-0.053725 -0.0095,-0.00514 -0.01829,-0.010764 -0.02803,-0.015184 -0.03563,-0.015261 -0.07103,-0.023753 -0.108623,-0.029201 -0.02321,-0.00401 -0.04538,-0.00792 -0.06891,-0.00817 -0.0075,1.005e-4 -0.01471,-0.00401 -0.02219,-0.00353 z"
       style="opacity:0.65100002;fill:#686868;fill-opacity:1;stroke:none;stroke-width:0.05980096;stroke-miterlimit:4;stroke-dasharray:none"
       inkscape:connector-curvature="0" />
    <path
       id="rect4523"
       d="m 15.977227,7.1878418 c -0.01561,0.00102 -0.03012,0.00903 -0.04555,0.011679 -0.03785,0.0055 -0.07393,0.013766 -0.109791,0.029201 -0.0086,0.00395 -0.01613,0.0095 -0.02453,0.014017 -0.03268,0.016601 -0.06692,0.029524 -0.09577,0.054897 L 6.1883231,15.662762 c -0.1843448,0.162092 -0.2018037,0.441696 -0.039714,0.626041 l 0.6832732,0.77788 c 0.1620916,0.184345 0.4416964,0.201803 0.6260412,0.03971 l 8.5414915,-7.5113264 8.54266,7.5113264 c 0.184345,0.162092 0.462781,0.144633 0.624873,-0.03971 l 0.684441,-0.77788 c 0.162092,-0.184345 0.144633,-0.463949 -0.03971,-0.626041 l -3.550681,-3.12203 v -2.366343 c 0,-0.4186004 -0.337088,-0.7556876 -0.755688,-0.7556876 h -0.499899 c -0.418601,0 -0.755687,0.3370872 -0.755687,0.7556876 v 0.59801 l -3.95247,-3.4747627 c -0.02807,-0.02468 -0.06056,-0.037346 -0.09227,-0.053725 -0.0095,-0.00514 -0.01829,-0.010764 -0.02803,-0.015184 -0.03563,-0.015261 -0.07103,-0.023753 -0.108623,-0.029201 -0.02321,-0.00401 -0.04538,-0.00792 -0.06891,-0.00817 -0.0075,1.005e-4 -0.01471,-0.00401 -0.02219,-0.00353 z"
       style="fill:#42a3ce;fill-opacity:1;stroke:none;stroke-width:0.05980096;stroke-miterlimit:4;stroke-dasharray:none"
       inkscape:connector-curvature="0" />
    <path
       inkscape:connector-curvature="0"
       id="path4517-7-3"
       d="m 11.455,17.944185 3.126193,1.033389 v 5.016673 L 11.455003,24.912 Z"
       style="opacity:0.65100002;fill:#686868;fill-opacity:1;stroke:none;stroke-width:0.94198024px;stroke-linecap:butt;stroke-linejoin:miter;stroke-opacity:1" />
    <path
       inkscape:connector-curvature="0"
       id="path4517-7"
       d="m 11.355477,17.844399 3.126193,1.033389 v 5.016673 l -3.12619,0.917753 z"
       style="fill:#9dabb1;fill-opacity:1;stroke:none;stroke-width:0.94198024px;stroke-linecap:butt;stroke-linejoin:miter;stroke-opacity:1" />
    <circle
       r="0.29566821"
       cy="21.6528"
       cx="13.775624"
       id="path4587-7"
       style="opacity:0.65100002;fill:#2d3539;fill-opacity:1;stroke:none;stroke-width:0.05980096;stroke-miterlimit:4;stroke-dasharray:none" />
    <circle
       r="0.29566821"
       cy="21.61138"
       cx="13.75318"
       id="path4587"
       style="fill:#c2dbe6;fill-opacity:1;stroke:none;stroke-width:0.05980096;stroke-miterlimit:4;stroke-dasharray:none" />
  </g>
</svg>
