<svg xmlns="http://www.w3.org/2000/svg" xmlns:xlink="http://www.w3.org/1999/xlink" width="32" height="32" version="1"><defs><linearGradient id="a"><stop offset="0" stop-color="#a6c4d2"/><stop offset="1" stop-color="#d3dae3"/></linearGradient><linearGradient xlink:href="#a" id="b" x1="2.603" y1="29.754" x2="29.805" y2="2.453" gradientUnits="userSpaceOnUse"/></defs><path style="line-height:normal;font-variant-ligatures:normal;font-variant-position:normal;font-variant-caps:normal;font-variant-numeric:normal;font-variant-alternates:normal;font-feature-settings:normal;text-indent:0;text-align:start;text-decoration-line:none;text-decoration-style:solid;text-decoration-color:#000;text-transform:none;text-orientation:mixed;white-space:normal;shape-padding:0;isolation:auto;mix-blend-mode:normal;solid-color:#000;solid-opacity:1" d="M16.203 2.436c-7.523 0-13.639 6.121-13.639 13.648 0 7.527 6.116 13.648 13.64 13.648 7.522 0 13.64-6.121 13.64-13.648 0-7.527-6.118-13.648-13.64-13.648zm0 1.896c6.497 0 11.742 5.25 11.742 11.752 0 6.502-5.245 11.752-11.742 11.752A11.734 11.734 0 0 1 4.46 16.084 11.734 11.734 0 0 1 16.203 4.332zm6.637 3.48l-.356.032-.353.033-.35.031c-1.72.156-2.757.415-6.47.703-4.206.327-7.636 3.735-7.457 8.118.176 4.33 3.533 7.92 7.884 7.92 4.35 0 7.887-3.58 7.887-7.96-.005-2.566-.863-5.285-.809-7.816l.024-1.06zm-2.92 2.231c-.379.752-.849 1.852-1.662 4.004-1.017 2.689-2.514 3.916-4.04 4.566-1.393.595-2.807.652-3.841.64a6.807 6.807 0 0 1-.629-2.6c-.137-3.368 2.419-5.896 5.709-6.151 2.33-.18 3.475-.329 4.463-.459zm1.246 1.615c.219 1.876.56 3.63.563 5.033 0 3.364-2.676 6.059-5.99 6.059a5.768 5.768 0 0 1-4.118-1.705c.977-.066 2.12-.243 3.305-.748 1.92-.819 3.857-2.503 5.027-5.598.571-1.51.925-2.38 1.213-3.04z" color="#000" font-weight="400" font-family="sans-serif" overflow="visible" fill="url(#b)" fill-rule="evenodd"/></svg>