<svg xmlns="http://www.w3.org/2000/svg" xmlns:xlink="http://www.w3.org/1999/xlink" width="32" height="32"><defs><linearGradient id="a"><stop offset="0" stop-color="#a6c4d2"/><stop offset="1" stop-color="#d3dae3"/></linearGradient><linearGradient xlink:href="#a" id="b" x1="-4.661" y1="36.661" x2="20.661" y2="11.339" gradientUnits="userSpaceOnUse"/></defs><g transform="translate(8 -8)" fill="url(#b)"><rect ry="1.266" rx="1.266" y="11.339" x="-4.661" height="5.064" width="5.064"/><rect ry="1.266" rx="1.266" y="11.339" x="5.468" height="5.064" width="5.064"/><rect ry="1.266" rx="1.266" y="11.339" x="15.597" height="5.064" width="5.064"/><rect ry="1.266" rx="1.266" y="21.468" x="-4.661" height="5.064" width="5.064"/><rect ry="1.266" rx="1.266" y="21.468" x="5.468" height="5.064" width="5.064"/><rect ry="1.266" rx="1.266" y="21.468" x="15.597" height="5.064" width="5.064"/><rect ry="1.266" rx="1.266" y="31.597" x="-4.661" height="5.064" width="5.064"/><rect ry="1.266" rx="1.266" y="31.597" x="5.468" height="5.064" width="5.064"/><rect ry="1.266" rx="1.266" y="31.597" x="15.597" height="5.064" width="5.064"/></g></svg>