<svg xmlns="http://www.w3.org/2000/svg" xmlns:xlink="http://www.w3.org/1999/xlink" width="32" height="32" version="1"><defs><linearGradient id="a"><stop offset="0" stop-color="#a6c4d2"/><stop offset="1" stop-color="#d3dae3"/></linearGradient><linearGradient xlink:href="#a" id="b" x1="1.834" y1="30.214" x2="30.205" y2="1.825" gradientUnits="userSpaceOnUse"/></defs><path d="M10.932 30.092c3.859-.626 10.018-3.12 14.603-5.914 3.586-2.185 4.809-3.706 4.367-5.432a5.757 5.757 0 0 0-.41-1.07c-.336-.627-1.514-1.821-2.297-2.329-2.147-1.39-5.667-2.494-10.262-3.22-1.725-.273-2.102-.406-2.247-.795-.043-.115-.085-.676-.093-1.247-.042-2.764-.463-4.493-1.339-5.49-.819-.934-2.482-.832-3.3.2-.758.958-.827 2.102-.28 4.67.477 2.235.49 2.345.275 2.413-.35.111-.864-.239-1.14-.775-.06-.116-.274-.67-.476-1.233-.787-2.197-2.063-3.72-3.118-3.724-.718-.002-1.666.83-1.982 1.737-.29.833-.23 2.314.153 3.75.382 1.435.366 1.878-.113 3.146-.718 1.897-1.365 4.98-1.462 6.965-.092 1.88.238 3.879.853 5.168.794 1.666 2.699 2.967 4.76 3.252.697.096 2.728.055 3.508-.072zm14.735-17.807c.968-1.03 3.18-5.245 4.285-8.165.304-.805.31-.845.143-.968-.255-.186-.752.096-1.394.79-.524.565-2.462 3.718-3.19 5.19-.774 1.563-1.073 2.898-.733 3.273.248.274.558.232.89-.12zm-2.757-1.409c.552-1.522.971-4.22 1.033-6.65.045-1.722.032-1.996-.105-2.204-.086-.132-.212-.239-.279-.239-.126 0-.546.833-.718 1.423-.24.822-1.054 6.256-1.047 6.987.014 1.64.632 2.018 1.116.683z" fill="url(#b)"/></svg>