<svg width="22" xmlns="http://www.w3.org/2000/svg" height="22"><defs><linearGradient id="b" y2="5" gradientUnits="userSpaceOnUse" x2="19" gradientTransform="scale(-1 1) rotate(-63.33 -.31 30.145)" y1="12" x1="7"><stop stop-color="#d3dae3" stop-opacity=".5" offset="0"/><stop stop-color="#d3dae3" stop-opacity="0" offset="1"/></linearGradient><linearGradient id="a" y2="12" gradientUnits="userSpaceOnUse" x2="17" gradientTransform="scale(1 -1) rotate(-63.33 -7.146 1.31)" y1="12" x1="7"><stop stop-color="#d3dae3" offset="0"/><stop stop-opacity=".5" stop-color="#d3dae3" offset="1"/></linearGradient></defs><path d="M7.858 4.745a7 7 0 0 0 6.283 12.51l-.898-1.786a5 5 0 0 1-4.488-8.936c1.161-.584.264-2.371-.898-1.788z" fill="url(#a)"/><path d="M7.858 4.745l.897 1.787a5 5 0 1 1 4.489 8.936l.897 1.788a6.999 6.999 0 0 0 3.113-9.397 7 7 0 0 0-9.397-3.114z" fill="url(#b)"/></svg>