<svg width="22" xmlns="http://www.w3.org/2000/svg" height="22"><defs><linearGradient id="b" y2="5" gradientUnits="userSpaceOnUse" x2="19" gradientTransform="scale(-1 1) rotate(36.669 2.009 -23.203)" y1="12" x1="7"><stop stop-color="#d3dae3" stop-opacity=".5" offset="0"/><stop stop-color="#d3dae3" stop-opacity="0" offset="1"/></linearGradient><linearGradient id="a" y2="12" gradientUnits="userSpaceOnUse" x2="17" gradientTransform="scale(1 -1) rotate(36.669 46.202 -1.008)" y1="12" x1="7"><stop stop-color="#d3dae3" offset="0"/><stop stop-opacity=".5" stop-color="#d3dae3" offset="1"/></linearGradient></defs><path d="M5.386 15.18a7 7 0 0 0 11.23-8.36L15.01 8.013a4.998 4.998 0 0 1-1.024 6.996 5 5 0 0 1-6.996-1.024c-.777-1.043-2.38.152-1.605 1.194z" fill="url(#a)"/><path d="M5.386 15.18l1.604-1.194a5 5 0 0 1 8.02-5.972l1.605-1.194a7 7 0 0 0-11.23 8.36z" fill="url(#b)"/></svg>