<svg width="22" xmlns="http://www.w3.org/2000/svg" height="22"><defs><linearGradient id="b" y2="5" gradientUnits="userSpaceOnUse" y1="12" gradientTransform="scale(1 -1) rotate(-12.8 -91.023 4.957)" x2="19" x1="7"><stop stop-opacity=".5" stop-color="#d3dae3" offset="0"/><stop stop-opacity="0" stop-color="#d3dae3" offset="1"/></linearGradient><linearGradient id="a" y2="12" gradientUnits="userSpaceOnUse" y1="12" gradientTransform="scale(-1 1) rotate(-12.8 -3.958 114.027)" x2="17" x1="7"><stop stop-color="#d3dae3" offset="0"/><stop stop-color="#d3dae3" stop-opacity=".5" offset="1"/></linearGradient></defs><path d="M11.145 4a7.004 7.004 0 0 0-6.971 5.45l1.951.443a5 5 0 0 1 5.984-3.768c2.321.527 3.872 2.593 3.87 4.877L16 11c.75 0 1.424.294 1.947.758.385-3.49-1.891-6.788-5.396-7.584A7.02 7.02 0 0 0 11.145 4z" fill="url(#a)"/><path d="M4.176 9.45a6.999 6.999 0 0 0 5.273 8.376 6.917 6.917 0 0 0 2.551.086v-2.037a4.863 4.863 0 0 1-2.107 0 4.999 4.999 0 0 1-3.768-5.982l-1.95-.444z" fill="url(#b)"/><path d="M16 12c-1.108 0-2 .91-2 2.031V15h-1v4h6v-4h-1v-.969c0-1.12-.892-2.03-2-2.03zm0 1c.554 0 1 .442 1 1v1h-2v-1c0-.558.446-1 1-1z" fill="#d3dae3"/></svg>