<svg width="22" xmlns="http://www.w3.org/2000/svg" height="22"><defs><linearGradient id="b" y2="5" gradientUnits="userSpaceOnUse" y1="12" gradientTransform="scale(-1 1) rotate(-12.7 -3.993 114.839)" x2="19" x1="7"><stop stop-opacity=".5" stop-color="#d3dae3" offset="0"/><stop stop-opacity="0" stop-color="#d3dae3" offset="1"/></linearGradient><linearGradient id="a" y2="12" gradientUnits="userSpaceOnUse" y1="12" gradientTransform="scale(1 -1) rotate(-12.7 -91.836 4.99)" x2="17" x1="7"><stop stop-color="#d3dae3" offset="0"/><stop stop-color="#d3dae3" stop-opacity=".5" offset="1"/></linearGradient></defs><path d="M4.988 8.709c-.37.042-.709.276-.816.752a6.999 6.999 0 0 0 5.289 8.367c.86.194 1.716.207 2.539.086v-2.039a4.842 4.842 0 0 1-2.1.002 4.998 4.998 0 0 1-3.779-5.975C6.3 9.11 5.604 8.64 4.988 8.71z" fill="url(#a)"/><path d="M11.133 3.998a7.003 7.003 0 0 0-6.961 5.461v.002l1.951.44A5 5 0 0 1 12.1 6.122c2.324.524 3.878 2.592 3.877 4.879L16 11c.751 0 1.426.293 1.949.758.387-3.496-1.899-6.797-5.41-7.588a7.024 7.024 0 0 0-1.406-.172z" fill="url(#b)"/><path d="M16 12c-1.108 0-2 .91-2 2.031V15h-1v4h6v-4h-1v-.969c0-1.12-.892-2.03-2-2.03zm0 1c.554 0 1 .442 1 1v1h-2v-1c0-.558.446-1 1-1z" fill="#d3dae3"/></svg>