<svg width="22" xmlns="http://www.w3.org/2000/svg" height="22"><defs><linearGradient id="b" y2="5" gradientUnits="userSpaceOnUse" y1="12" gradientTransform="scale(-1 1) rotate(64.4 1.294 -6.762)" x2="19" x1="7"><stop stop-opacity=".5" stop-color="#d3dae3" offset="0"/><stop stop-opacity="0" stop-color="#d3dae3" offset="1"/></linearGradient><linearGradient id="a" y2="12" gradientUnits="userSpaceOnUse" y1="12" gradientTransform="scale(1 -1) rotate(64.4 29.762 -.294)" x2="17" x1="7"><stop stop-color="#d3dae3" offset="0"/><stop stop-color="#d3dae3" stop-opacity=".5" offset="1"/></linearGradient></defs><path d="M14.025 4.688L13.16 6.49c1.794.86 2.813 2.65 2.811 4.514.01 0 .019-.004.029-.004.743 0 1.411.288 1.932.744.307-2.865-1.158-5.74-3.907-7.056zM8.418 15.4c-.935-.022-1.467 1.419-.441 1.91 1.302.624 2.694.783 4.023.587v-2.031c-1.033.215-2.135.132-3.16-.358a1.05 1.05 0 0 0-.422-.107z" fill="url(#a)"/><path d="M11.33 4.006a7.001 7.001 0 0 0-3.353 13.306l.863-1.802a5 5 0 0 1-2.348-6.67 5 5 0 0 1 6.67-2.35l.863-1.803a6.978 6.978 0 0 0-2.695-.681z" fill="url(#b)"/><path d="M16 12c-1.108 0-2 .91-2 2.031V15h-1v4h6v-4h-1v-.969c0-1.12-.892-2.03-2-2.03zm0 1c.554 0 1 .442 1 1v1h-2v-1c0-.558.446-1 1-1z" fill="#d3dae3"/></svg>