<svg xmlns="http://www.w3.org/2000/svg" viewBox="0 0 256 256"><defs id="defs4"><style id="current-color-scheme" type="text/css"></style></defs><path d="M16 10h224c3.324 0 6 2.676 6 6v224c0 3.324-2.676 6-6 6H16c-3.324 0-6-2.676-6-6V16c0-3.324 2.676-6 6-6z" id="rect4240" fill="currentColor" fill-opacity=".5" stroke="none" color="#31363b"/><path d="M16 12h224c2.216 0 4 1.784 4 4v224c0 2.216-1.784 4-4 4H16c-2.216 0-4-1.784-4-4V16c0-2.216 1.784-4 4-4z" id="rect4238" fill="currentColor" fill-opacity="1" stroke="none" color="#eff0f1"/><path d="M87.363 75.457c-8.864 0-16 7.136-16 16s7.136 16 16 16 16-7.136 16-16-7.136-16-16-16zm35.463 0l.063 9.914h-4.016v22.086h28.11V85.371h-4.016l.062-9.914h-20.203zm87.174 0v32h20v-32h-20zm-85.104 1.883l16.063.062v7.97l-16.063-.063v-7.97zm-37.845.117h.625a13.653 13.653 0 0 1 13.687 13.688v.625a13.653 13.653 0 0 1-13.687 13.687h-.625A13.653 13.653 0 0 1 73.363 91.77v-.625a13.653 13.653 0 0 1 13.688-13.688zm128.949 0h8v2h-8v-2zm-89.158 1.89l.062 4.016h4.016V79.41l-4.078-.062zm12.172 0l-4.203.063v3.953h4.14l.063-4.015zM212 81.458h16v11l-2.215-.555a5.998 5.998 0 0 0-.594-1.441l1.172-1.953-1.414-1.414-1.953 1.172a6.002 6.002 0 0 0-1.445-.602L221 85.457h-2l-.555 2.215a5.982 5.982 0 0 0-1.441.594l-1.953-1.172-1.414 1.414 1.172 1.953a6 6 0 0 0-.602 1.445l-2.207.551v-11zm-126.262 2v11.188h3.25V83.457h-3.25zm47.065 5.93l8.156 8.031h-16.063l7.907-8.031zm87.197.07c.133 0 .266 0 .398.02.133.02.265.032.395.058a4.358 4.358 0 0 1 .766.238c.122.052.242.108.359.172a4.13 4.13 0 0 1 1.45 1.352 3.925 3.925 0 0 1 .359.71c.049.125.092.251.128.38a3.961 3.961 0 0 1 .133.789 3.88 3.88 0 0 1-.168 1.465 3.931 3.931 0 0 1-.52 1.074 4.017 4.017 0 0 1-1.488 1.309 4.01 4.01 0 0 1-.363.16 3.643 3.643 0 0 1-1.168.26c-.056 0-.112-.001-.168.019h-.273c-.08-.002-.16 0-.238-.02-.133-.02-.265-.032-.395-.058a4.358 4.358 0 0 1-.766-.237 3.981 3.981 0 0 1-.359-.171 4.097 4.097 0 0 1-.34-.213 4.119 4.119 0 0 1-.32-.243 3.731 3.731 0 0 1-.176-.162l-.176-.177a3.648 3.648 0 0 1-.636-.907 3.971 3.971 0 0 1-.16-.363 4.064 4.064 0 0 1-.13-.379 3.961 3.961 0 0 1-.132-.789 3.907 3.907 0 0 1 .168-1.465 3.951 3.951 0 0 1 .52-1.074 4.017 4.017 0 0 1 1.488-1.309c.118-.06.24-.112.363-.16a3.633 3.633 0 0 1 .77-.213c.131-.022.264-.038.398-.046.093 0 .187-.02.281-.02zm-8 5l2.215.555c.134.504.334.989.594 1.441l-1.172 1.953 1.414 1.414 1.953-1.172c.453.263.94.465 1.445.602l.551 2.207h2l.555-2.215a5.982 5.982 0 0 0 1.441-.594l1.953 1.172 1.414-1.414-1.172-1.953a6 6 0 0 0 .602-1.445l2.207-.551v9h-16v-9zM87.363 96.27c-.736 0-1.625.826-1.625 1.562 0 .736.889 1.625 1.625 1.625.737 0 1.625-.889 1.625-1.625s-.888-1.562-1.625-1.562zm37.533 3.156h16.063v2.008h-16.063v-2.008zm-84.955 49.117l-9.976 9.98v12.04l9.976 9.98h2.024v-32H39.94zm84.041 0v12h2v-10h8v10h2v-12h-12zm39.196 0a3.19 3.19 0 0 0-3.188 3.187v25.625a3.19 3.19 0 0 0 3.188 3.188h19.625a3.19 3.19 0 0 0 3.187-3.188V151.73a3.19 3.19 0 0 0-3.187-3.187h-19.625zm50.822 0s-4 5.315-16 6.648c0 0 0 18.668 16 25.352 16-6.684 16-25.352 16-25.352-12-1.333-16-6.648-16-6.648zm-130.027 1a12 12 0 0 0-8.907 4h-5.093c-1.108 0-2 .892-2 2v12c0 1.108.892 2 2 2h5.074a12 12 0 0 0 8.926 4 12 12 0 0 0 8.906-4h5.094c1.108 0 2-.892 2-2v-12c0-1.108-.892-2-2-2h-5.075a12 12 0 0 0-8.925-4zm0 24c-1.108 0-2 .892-2 2 0 .056.026.104.03.16-3.242.463-6.03 1.84-6.03 1.84v2h16v-2s-2.789-1.378-6.032-1.84c.005-.056.032-.104.032-.16 0-1.108-.892-2-2-2zm-38.278-23.926l-.488 1.953a14 14 0 0 1 8.758 12.973 14 14 0 0 1-8.762 12.957l.488 1.95a16 16 0 0 0 10.274-14.907 16 16 0 0 0-10.27-14.926zm117.483 1.051h19.625c.604 0 1.062.458 1.062 1.062v25.625c0 .605-.458 1.063-1.062 1.063h-19.625a1.041 1.041 0 0 1-1.063-1.063V151.73c0-.604.458-1.062 1.063-1.062zm50.822.629c3.174 2.69 7.754 4.483 13.691 5.387-.322 2.89-.631 5.065-1.379 7.168-1.57 4.418-3.4 7.106-5.042 9.039-2.545 2.995-4.856 4.207-7.27 5.414-2.414-1.207-4.725-2.419-7.27-5.414-1.642-1.933-3.472-4.621-5.042-9.04-.748-2.102-1.057-4.277-1.38-7.167 5.938-.904 10.518-2.698 13.692-5.387zm-130.027.246a10 10 0 0 1 6.183 2.168 10 10 0 0 1 .399.328 10 10 0 0 1 .367.344 10 10 0 0 1 .367.375 10 10 0 0 1 .356.402 10 10 0 0 1 .312.383H97.972v2h-2v8h2v2H91.958a10 10 0 0 1-2.004 2 10 10 0 0 1-5.98 2 10 10 0 0 1-6.184-2.168 10 10 0 0 1-.398-.328 10 10 0 0 1-.368-.344 10 10 0 0 1-.367-.375 10 10 0 0 1-.355-.402 10 10 0 0 1-.313-.383H69.973v-2h2v-8h-2v-2H75.988a10 10 0 0 1 .64-.77 10 10 0 0 1 1.364-1.23 10 10 0 0 1 5.98-2zm89.017 1c-4.79 0-9 4.202-9 9s4.21 9 9 9c.082 0 .169.002.25 0 .732 1.14 1.455 2.298 2.188 3.437.004.016-.004.046 0 .063.123.486.337.97.687 1.375 1.204 1.393 3.312 1.548 4.688.312 1.375-1.235 1.516-3.481.312-4.875-.388-.449-.926-.693-1.437-.875-.514-.38-.963-.794-1.438-1.187 2.255-1.661 3.75-4.36 3.75-7.25 0-4.798-4.21-9-9-9zm0 1.937c3.661 0 7.125 3.447 7.125 7.063 0 2.324-1.45 4.556-3.437 5.875a48.993 48.993 0 0 1-2.313-2.25c-.35-.405-.875-.601-1.375-.625-.5-.024-.965.132-1.375.5-.819.736-.95 2.002-.25 2.812.168.214.342.411.5.625-3.201-.63-6-3.71-6-6.937 0-3.616 3.464-7.063 7.125-7.063zm-126.377 2.625l-1.078 1.723a8 8 0 0 1 2.43 5.715 8 8 0 0 1-2.422 5.723l1.078 1.726a10 10 0 0 0 3.344-7.449 10 10 0 0 0-3.352-7.438zm-22.648 1.438v12h4v-12h-4zm93.431.602l-1.414 1.414 8.586 8.586.016-.016 5.414 5.414 5.398-5.398 8.586-8.586-1.414-1.414-8.586 8.585-4 4-4-4-8.586-8.585zm55.594.398c-1.106 0-2 .85-2 2 .001 1.149.896 2 2 2a1.973 1.973 0 0 0 2-2c.001-1.15-.894-2-2-2zm-7 13c-1.046 0-2 .939-2 2 .001 1.06.955 2 2 2 1.046 0 2-.94 2-2 .001-1.061-.953-2-2-2zm-54.008 2v6h36v-6h-2v4h-32v-4h-2z" id="rect4403" fill="currentColor" fill-opacity="1" stroke="none" color="#4d4d4d"/><circle r="4" cy="161.543" cx="83.973" id="path4147" style="marker:none" color="#000" display="inline" overflow="visible" visibility="visible" opacity="1" fill="#f67400" fill-opacity="1" fill-rule="nonzero" stroke="none" stroke-width="3" stroke-linecap="round" stroke-linejoin="round" stroke-miterlimit="4" stroke-dasharray="none" stroke-opacity="1"/><path d="M178.491 75.457c-8.836 0-16 7.163-16 16 0 8.836 7.164 16 16 16 8.837 0 16-7.164 16-16 0-8.837-7.163-16-16-16zm0 2c7.732 0 14 6.268 14 14s-6.268 14-14 14-14-6.268-14-14 6.268-14 14-14zm4 14a6 6 0 1 0 0 12 6 6 0 0 0 0-12z" id="path3787" fill="currentColor" fill-opacity="1" stroke="none" color="#3daee9"/><path d="M39.855 75.457a8 8 0 0 0-8 8 8 8 0 0 0 8 8 8 8 0 0 0 8-8 8 8 0 0 0-8-8zm0 2a6 6 0 0 1 6 6 6 6 0 0 1-6 6 6 6 0 0 1-6-6 6 6 0 0 1 6-6zm0 16a16 16 0 0 0-15.855 14h2.016a14 14 0 0 1 13.84-12 14 14 0 0 1 2 .16v-2.02a16 16 0 0 0-2-.14zm9 0a7 7 0 0 0-7 7 7 7 0 0 0 7 7 7 7 0 0 0 7-7 7 7 0 0 0-7-7zM222 164.543c-4.432 0-8 3.568-8 8s3.568 8 8 8 8-3.568 8-8-3.568-8-8-8z" id="path4149" opacity="1" fill="#43be80" fill-opacity="1" stroke="none"/><path d="M51.855 97.457l-4 4-2-2-2 2 4 4 6-6-2-2zM226 168.543l-6 6-2-2-2 2 2 2 2 2 8-8-2-2z" id="path4166" fill="#fff" fill-rule="evenodd" stroke="none" stroke-width="1" stroke-linecap="butt" stroke-linejoin="miter" stroke-opacity="1"/></svg>