<svg xmlns="http://www.w3.org/2000/svg" xmlns:xlink="http://www.w3.org/1999/xlink" viewBox="0 0 256 256" id="svg2" version="1.1"><defs id="defs4"><linearGradient xlink:href="#linearGradient4300-7" id="linearGradient4943" x1="392.571" y1="516.798" x2="400.571" y2="508.798" gradientUnits="userSpaceOnUse" gradientTransform="translate(0 1)"/><linearGradient id="linearGradient4300-7"><stop offset="0" id="stop4302-4" stop-color="#f39c12" stop-opacity="1"/><stop offset="1" id="stop4304-1" stop-color="#f5ab35" stop-opacity="1"/></linearGradient><linearGradient xlink:href="#linearGradient4152" id="linearGradient4466-8" x1="428.571" y1="519.798" x2="428.571" y2="504.798" gradientUnits="userSpaceOnUse" gradientTransform="matrix(.9922 0 0 1 -565.54 -459.798)"/><linearGradient id="linearGradient4152"><stop offset="0" id="stop4154" stop-color="#bd8d48" stop-opacity="1"/><stop offset="1" id="stop4156" stop-color="#e8b971" stop-opacity="1"/></linearGradient><linearGradient xlink:href="#linearGradient4273" id="linearGradient4768" x1="428.571" y1="506.798" x2="406.571" y2="506.798" gradientUnits="userSpaceOnUse" gradientTransform="matrix(.9922 0 0 1 -565.54 -458.798)"/><linearGradient id="linearGradient4273"><stop offset="0" id="stop4275" stop-color="#e3dfd6" stop-opacity="1"/><stop offset="1" id="stop4277" stop-color="#f4f1e8" stop-opacity="1"/></linearGradient><linearGradient xlink:href="#linearGradient4152" id="linearGradient4466" x1="428.571" y1="519.798" x2="428.571" y2="504.798" gradientUnits="userSpaceOnUse" gradientTransform="matrix(.9922 0 0 1 -565.54 -457.798)"/><linearGradient xlink:href="#linearGradient5026" id="linearGradient5038" x1="427.714" y1="536.291" x2="437.714" y2="536.291" gradientUnits="userSpaceOnUse"/><linearGradient id="linearGradient5026"><stop offset="0" id="stop5028" stop-color="#ebc69a" stop-opacity="1"/><stop offset="1" id="stop5030" stop-color="#f4e0c8" stop-opacity="1"/></linearGradient><linearGradient xlink:href="#linearGradient4213" id="linearGradient5050" x1="432.714" y1="531.791" x2="432.714" y2="544.791" gradientUnits="userSpaceOnUse" gradientTransform="rotate(-45 -392.172 755.393)"/><linearGradient id="linearGradient4213"><stop offset="0" id="stop4215" stop-color="#000" stop-opacity="1"/><stop offset="1" id="stop4217" stop-color="#000" stop-opacity="0"/></linearGradient><linearGradient xlink:href="#linearGradient5026" id="linearGradient5040" gradientUnits="userSpaceOnUse" x1="428.756" y1="541.508" x2="430.466" y2="528.513"/><linearGradient xlink:href="#linearGradient4903" id="linearGradient4486" x1="25" y1="44" x2="25" y2="20" gradientUnits="userSpaceOnUse" gradientTransform="matrix(.9922 0 0 1 -183.969 41)"/><linearGradient id="linearGradient4903"><stop offset="0" id="stop4905" stop-color="#eef1f2" stop-opacity="1"/><stop offset="1" id="stop4907" stop-color="#f9fafb" stop-opacity="1"/></linearGradient><linearGradient xlink:href="#linearGradient4213" id="linearGradient4356" x1="419.571" y1="529.798" x2="426.571" y2="536.798" gradientUnits="userSpaceOnUse" gradientTransform="matrix(.9922 0 0 1 -565.54 -458.798)"/><linearGradient xlink:href="#linearGradient4159" id="linearGradient4165" x1="409.571" y1="543.798" x2="409.571" y2="503.798" gradientUnits="userSpaceOnUse"/><linearGradient id="linearGradient4159"><stop offset="0" id="stop4161" stop-color="#1d1e1e" stop-opacity="1"/><stop offset="1" id="stop4163" stop-color="#44484c" stop-opacity="1"/></linearGradient><linearGradient xlink:href="#linearGradient4227" id="linearGradient4342" x1="406.571" y1="517.798" x2="425.571" y2="536.798" gradientUnits="userSpaceOnUse"/><linearGradient id="linearGradient4227"><stop id="stop4229" offset="0" stop-color="#292c2f" stop-opacity="1"/><stop id="stop4231" offset="1" stop-color="#000" stop-opacity="0"/></linearGradient><linearGradient xlink:href="#linearGradient4326" id="linearGradient4332" x1="417.571" y1="530.798" x2="417.571" y2="516.798" gradientUnits="userSpaceOnUse"/><linearGradient id="linearGradient4326"><stop offset="0" id="stop4328" stop-color="#9ed3fb" stop-opacity="1"/><stop offset="1" id="stop4330-3" stop-color="#effaff" stop-opacity="1"/></linearGradient><linearGradient gradientTransform="matrix(-1 0 0 1 432.571 499.798)" xlink:href="#linearGradient4214" id="linearGradient4416" x1="26" y1="44" x2="26" y2="4" gradientUnits="userSpaceOnUse"/><linearGradient id="linearGradient4214"><stop offset="0" id="stop4216" stop-color="#2f74c8" stop-opacity="1"/><stop offset="1" id="stop4218" stop-color="#4699d7" stop-opacity="1"/></linearGradient><linearGradient xlink:href="#linearGradient4213" id="linearGradient4990" x1="405.571" y1="509.798" x2="427.571" y2="533.798" gradientUnits="userSpaceOnUse"/><linearGradient xlink:href="#linearGradient4213" id="linearGradient6136" x1="412.571" y1="514.798" x2="425.571" y2="527.798" gradientUnits="userSpaceOnUse"/><linearGradient xlink:href="#linearGradient4290-2" id="linearGradient4961" x1="34" y1="34" x2="34" y2="4" gradientUnits="userSpaceOnUse"/><linearGradient id="linearGradient4290-2"><stop id="stop4292" offset="0" stop-color="#7cbaf8" stop-opacity="1"/><stop id="stop4294" offset="1" stop-color="#f4fcff" stop-opacity="1"/></linearGradient><linearGradient xlink:href="#linearGradient4143" id="linearGradient4205" x1="24" y1="44" x2="24" y2="11" gradientUnits="userSpaceOnUse"/><linearGradient id="linearGradient4143"><stop offset="0" id="stop4145" stop-color="#197cf1" stop-opacity="1"/><stop offset="1" id="stop4147" stop-color="#20bcfa" stop-opacity="1"/></linearGradient><linearGradient xlink:href="#linearGradient4143" id="linearGradient4158-6" x1="409.571" y1="543.798" x2="409.571" y2="513.798" gradientUnits="userSpaceOnUse" gradientTransform="matrix(1.125 0 0 1 -51.072 0)"/><linearGradient xlink:href="#linearGradient4227" id="linearGradient4232" x1="400.571" y1="522.798" x2="416.572" y2="538.798" gradientUnits="userSpaceOnUse" gradientTransform="translate(-384.571 -499.798)"/><linearGradient xlink:href="#linearGradient4143" id="linearGradient4174" gradientUnits="userSpaceOnUse" x1="24" y1="14" x2="24" y2="10"/><linearGradient xlink:href="#linearGradient4159" id="linearGradient4302" x1="25" y1="10" x2="25" y2="14" gradientUnits="userSpaceOnUse"/><linearGradient xlink:href="#linearGradient4143" id="linearGradient4187" x1="408.571" y1="516.798" x2="408.571" y2="503.798" gradientUnits="userSpaceOnUse"/><linearGradient xlink:href="#linearGradient4303-3" id="linearGradient4290" x1="400.571" y1="517.798" x2="400.571" y2="514.798" gradientUnits="userSpaceOnUse"/><linearGradient id="linearGradient4303-3"><stop offset="0" id="stop4305-1" stop-color="#c6cdd1" stop-opacity="1"/><stop offset="1" id="stop4307-9" stop-color="#e0e5e7" stop-opacity="1"/></linearGradient><linearGradient xlink:href="#linearGradient4303-3" id="linearGradient4282" x1="32" y1="18" x2="32" y2="15" gradientUnits="userSpaceOnUse"/><linearGradient xlink:href="#linearGradient4290-2" id="linearGradient4222" x1="24" y1="39" x2="24" y2="23" gradientUnits="userSpaceOnUse"/><linearGradient xlink:href="#linearGradient4159" id="linearGradient3951" gradientUnits="userSpaceOnUse" gradientTransform="matrix(1.125 0 0 1 -435.643 504.564)" x1="409.571" y1="543.798" x2="409.571" y2="503.798"/><linearGradient xlink:href="#linearGradient4435-2" id="linearGradient3948" gradientUnits="userSpaceOnUse" gradientTransform="matrix(-2.83521 0 0 2.83875 47.655 -1933.284)" x1="7.285" y1="1050.339" x2="7.285" y2="1038.362"/><linearGradient id="linearGradient4435-2"><stop offset="0" id="stop4437-6" stop-color="#c61423" stop-opacity="1"/><stop offset="1" id="stop4439-7" stop-color="#dc2b41" stop-opacity="1"/></linearGradient><linearGradient xlink:href="#linearGradient4143" id="linearGradient3944" gradientUnits="userSpaceOnUse" gradientTransform="translate(-384.571 504.564)" x1="396.571" y1="520.798" x2="396.571" y2="503.798"/><linearGradient xlink:href="#linearGradient4227" id="linearGradient3940" gradientUnits="userSpaceOnUse" gradientTransform="translate(0 1004.362)" x1="8" y1="4" x2="22" y2="18"/><linearGradient xlink:href="#linearGradient5022" id="linearGradient3935" gradientUnits="userSpaceOnUse" gradientTransform="translate(-384.571 504.564)" x1="396.571" y1="527.798" x2="396.571" y2="504.798"/><linearGradient id="linearGradient5022"><stop offset="0" id="stop5024" stop-color="#fff" stop-opacity="1"/><stop offset="1" id="stop5026" stop-color="#fff" stop-opacity="0"/></linearGradient><linearGradient xlink:href="#linearGradient4152" id="linearGradient4158" x1="409.571" y1="543.798" x2="409.571" y2="503.798" gradientUnits="userSpaceOnUse" gradientTransform="matrix(1.125 0 0 1 -51.072 0)"/><linearGradient xlink:href="#linearGradient4303" id="linearGradient4309" x1="409.571" y1="542.798" x2="409.571" y2="504.798" gradientUnits="userSpaceOnUse"/><linearGradient id="linearGradient4303"><stop offset="0" id="stop4305" stop-color="#977a5c" stop-opacity="1"/><stop offset="1" id="stop4307" stop-color="#9d8062" stop-opacity="1"/></linearGradient><linearGradient xlink:href="#linearGradient4273" id="linearGradient4279" x1="408.571" y1="541.798" x2="408.571" y2="505.798" gradientUnits="userSpaceOnUse"/><linearGradient xlink:href="#linearGradient4410" id="linearGradient4299" x1="414.571" y1="531.798" x2="426.571" y2="543.798" gradientUnits="userSpaceOnUse"/><linearGradient id="linearGradient4410"><stop offset="0" id="stop4412" stop-color="#383e51" stop-opacity="1"/><stop offset="1" id="stop4414" stop-color="#655c6f" stop-opacity="0"/></linearGradient><linearGradient xlink:href="#linearGradient6165" id="linearGradient6171" x1="413.571" y1="528.798" x2="418.571" y2="533.798" gradientUnits="userSpaceOnUse"/><linearGradient id="linearGradient6165"><stop offset="0" id="stop6167" stop-color="#bdb49e" stop-opacity=".259"/><stop offset="1" id="stop6169" stop-color="#bdb49e" stop-opacity="0"/></linearGradient><linearGradient xlink:href="#linearGradient4273" id="linearGradient4691" gradientUnits="userSpaceOnUse" x1="409.571" y1="543.798" x2="409.571" y2="503.798" gradientTransform="matrix(.9 0 0 .9 -343.714 -447.418)"/><linearGradient xlink:href="#linearGradient4303-3" id="linearGradient4174-5" x1="409.571" y1="543.798" x2="409.571" y2="503.798" gradientUnits="userSpaceOnUse"/><linearGradient xlink:href="#linearGradient4227" id="linearGradient4773" x1="402.571" y1="520.798" x2="418.571" y2="536.798" gradientUnits="userSpaceOnUse" gradientTransform="translate(-384.571 -499.798)"/><linearGradient xlink:href="#linearGradient4649" id="linearGradient4388" x1="24" y1="33" x2="24" y2="13" gradientUnits="userSpaceOnUse"/><linearGradient id="linearGradient4649"><stop offset="0" id="stop4651" stop-color="#42a603" stop-opacity="1"/><stop offset="1" id="stop4653" stop-color="#78da06" stop-opacity="0"/></linearGradient><linearGradient xlink:href="#linearGradient4649" id="linearGradient4694" x1="410.571" y1="539.798" x2="428.571" y2="523.798" gradientUnits="userSpaceOnUse"/><linearGradient xlink:href="#linearGradient4649" id="linearGradient4602" gradientUnits="userSpaceOnUse" x1="409.571" y1="543.798" x2="409.571" y2="503.798" gradientTransform="matrix(.9 0 0 .9 -343.714 -447.418)"/><linearGradient id="linearGradient4458"><stop id="stop4460" stop-color="#95a5a6"/><stop id="stop4462" offset="1" stop-color="#eff0f1"/></linearGradient><linearGradient id="linearGradient4501"><stop id="stop4503" stop-color="#f67400"/><stop id="stop4505" offset="1" stop-color="#ed1515"/></linearGradient><linearGradient id="linearGradient4491"><stop id="stop4493" stop-color="#212329"/><stop id="stop4495" offset="1" stop-color="#31363b"/></linearGradient><linearGradient gradientTransform="matrix(1.17131 0 0 1.17131 -442.466 -613.177)" gradientUnits="userSpaceOnUse" x2="414.098" x1="390.878" y2="561.69" y1="539.087" xlink:href="#linearGradient4227" id="linearGradient3097"/><linearGradient gradientTransform="translate(58.788 33.941)" gradientUnits="userSpaceOnUse" x2="-14.394" x1="-44.394" id="linearGradient4464" xlink:href="#linearGradient4458"/><linearGradient gradientTransform="rotate(180 24 24)" gradientUnits="userSpaceOnUse" x2="40" y2="37" x1="6" y1="3" id="linearGradient4472" xlink:href="#linearGradient4458"/><linearGradient gradientUnits="userSpaceOnUse" x2="32.067" y2="40.067" x1="24.817" y1="32.817" id="linearGradient4604" xlink:href="#linearGradient4227"/><linearGradient gradientTransform="matrix(.65 0 0 .65 -241.571 -316.469)" gradientUnits="userSpaceOnUse" x2="0" y2="543.798" y1="503.798" id="linearGradient4305" xlink:href="#linearGradient4299-3"/><linearGradient id="linearGradient4299-3"><stop id="stop4301" stop-color="#abf9c7"/><stop id="stop4303" offset="1" stop-color="#54d883"/></linearGradient><linearGradient gradientTransform="translate(-347.959 -469.812) scale(.92857)" x2="0" gradientUnits="userSpaceOnUse" y2="517.798" y1="545.798" xlink:href="#linearGradient4143" id="linearGradient4149"/><style id="current-color-scheme" type="text/css"></style></defs><path d="M16 10h224c3.324 0 6 2.676 6 6v224c0 3.324-2.676 6-6 6H16c-3.324 0-6-2.676-6-6V16c0-3.324 2.676-6 6-6z" id="rect4240" fill="currentColor" fill-opacity=".5" stroke="none" color="#31363b"/><path d="M16 12h224c2.216 0 4 1.784 4 4v224c0 2.216-1.784 4-4 4H16c-2.216 0-4-1.784-4-4V16c0-2.216 1.784-4 4-4z" id="rect4238" fill="currentColor" fill-opacity="1" stroke="none" color="#eff0f1"/><g id="layer1-7" transform="translate(-253.41 -359.798)" stroke="none"><rect id="rect4139" width="36" height="40" x="390.571" y="503.798" ry="0" opacity="1" fill="url(#linearGradient4158)" fill-opacity="1"/><path id="rect4250" opacity=".5" fill="url(#linearGradient4309)" fill-opacity="1" d="M391.571 504.798h34v38h-34z"/><path id="rect4171" opacity="1" fill="#aa7f41" fill-opacity="1" d="M390.571 542.798h36v1h-36z"/><path id="rect4242" opacity="1" fill="url(#linearGradient4279)" fill-opacity="1" d="M392.571 505.798h32v36h-32z"/><path id="rect4236" opacity="1" fill="#bdb49e" fill-opacity="1" d="M412.571 531.798h3v1h-3z"/><path id="rect4244" opacity="1" fill="#2d2110" fill-opacity=".314" d="M392.571 539.798h32v2h-32z"/><path d="M424.571 529.798l-10 10v-10z" id="path4252" fill="#ebebeb" fill-opacity="1" fill-rule="evenodd" stroke-width="1" stroke-linecap="butt" stroke-linejoin="miter" stroke-opacity="1"/><path d="M414.571 539.798l4 4h8v-12l-2-2z" id="path4281" opacity=".2" fill="url(#linearGradient4299)" fill-opacity="1" fill-rule="evenodd" stroke-width="1" stroke-linecap="butt" stroke-linejoin="miter" stroke-opacity="1"/><path id="rect4301" opacity="1" fill="#2d2110" fill-opacity=".314" d="M392.571 540.798h32v1h-32z"/><path d="M415.571 530.798v8l8-8z" id="path6163" fill="url(#linearGradient6171)" fill-opacity="1" fill-rule="evenodd" stroke-width="1" stroke-linecap="butt" stroke-linejoin="miter" stroke-opacity="1"/><path id="rect4152" opacity="1" fill="#bdb49e" fill-opacity="1" d="M394.571 513.798h2v1h-2z"/><path id="rect4154" opacity="1" fill="#bdb49e" fill-opacity="1" d="M397.571 513.798h3v1h-3z"/><path id="rect4156" opacity="1" fill="#bdb49e" fill-opacity="1" d="M401.571 513.798h5v1h-5z"/><path id="rect4158" opacity="1" fill="#bdb49e" fill-opacity="1" d="M408.571 513.798h6v1h-6z"/><path id="rect4160" opacity="1" fill="#bdb49e" fill-opacity="1" d="M415.571 513.798h3v1h-3z"/><path id="rect4162" opacity="1" fill="#bdb49e" fill-opacity="1" d="M419.571 513.798h2v1h-2z"/><path id="rect4164" opacity="1" fill="#bdb49e" fill-opacity="1" d="M394.571 515.798h4v1h-4z"/><path id="rect4166" opacity="1" fill="#bdb49e" fill-opacity="1" d="M399.571 515.798h2v1h-2z"/><path id="rect4168" opacity="1" fill="#bdb49e" fill-opacity="1" d="M402.571 515.798h9v1h-9z"/><path id="rect4170" opacity="1" fill="#bdb49e" fill-opacity="1" d="M412.571 515.798h6v1h-6z"/><path id="rect4172" opacity="1" fill="#bdb49e" fill-opacity="1" d="M419.571 515.798h3v1h-3z"/><path id="rect4174" opacity="1" fill="#bdb49e" fill-opacity="1" d="M394.571 519.798h2v1h-2z"/><path id="rect4176" opacity="1" fill="#bdb49e" fill-opacity="1" d="M397.571 519.798h3v1h-3z"/><path id="rect4178" opacity="1" fill="#bdb49e" fill-opacity="1" d="M401.571 519.798h6v1h-6z"/><path id="rect4180" opacity="1" fill="#bdb49e" fill-opacity="1" d="M409.571 519.798h4v1h-4z"/><path id="rect4182" opacity="1" fill="#bdb49e" fill-opacity="1" d="M414.571 519.798h2v1h-2z"/><path id="rect4184" opacity="1" fill="#bdb49e" fill-opacity="1" d="M417.571 519.798h5v1h-5z"/><path id="rect4186" opacity="1" fill="#bdb49e" fill-opacity="1" d="M394.571 521.798h2v1h-2z"/><path id="rect4188" opacity="1" fill="#bdb49e" fill-opacity="1" d="M397.571 521.798h5v1h-5z"/><path id="rect4190" opacity="1" fill="#bdb49e" fill-opacity="1" d="M403.571 521.798h3v1h-3z"/><path id="rect4192" opacity="1" fill="#bdb49e" fill-opacity="1" d="M407.571 521.798h1v1h-1z"/><path id="rect4194" opacity="1" fill="#bdb49e" fill-opacity="1" d="M409.571 521.798h5v1h-5z"/><path id="rect4196" opacity="1" fill="#bdb49e" fill-opacity="1" d="M415.571 521.798h3v1h-3z"/><path id="rect4198" opacity="1" fill="#bdb49e" fill-opacity="1" d="M419.571 521.798h3v1h-3z"/><path id="rect4200" opacity="1" fill="#bdb49e" fill-opacity="1" d="M394.571 525.798h6v1h-6z"/><path id="rect4202" opacity="1" fill="#bdb49e" fill-opacity="1" d="M401.571 525.798h3v1h-3z"/><path id="rect4204" opacity="1" fill="#bdb49e" fill-opacity="1" d="M405.571 525.798h3v1h-3z"/><path id="rect4206" opacity="1" fill="#bdb49e" fill-opacity="1" d="M409.571 525.798h3v1h-3z"/><path id="rect4208" opacity="1" fill="#bdb49e" fill-opacity="1" d="M413.571 525.798h5v1h-5z"/><path id="rect4210" opacity="1" fill="#bdb49e" fill-opacity="1" d="M419.571 525.798h1v1h-1z"/><path id="rect4214" opacity="1" fill="#bdb49e" fill-opacity="1" d="M394.571 527.798h5v1h-5z"/><path id="rect4216" opacity="1" fill="#bdb49e" fill-opacity="1" d="M400.571 527.798h5v1h-5z"/><path id="rect4218" opacity="1" fill="#bdb49e" fill-opacity="1" d="M406.571 527.798h5v1h-5z"/><path id="rect4220" opacity="1" fill="#bdb49e" fill-opacity="1" d="M412.571 527.798h3v1h-3z"/><path id="rect4222" opacity="1" fill="#bdb49e" fill-opacity="1" d="M416.571 527.798h3v1h-3z"/><path id="rect4224" opacity="1" fill="#bdb49e" fill-opacity="1" d="M420.571 527.798h1v1h-1z"/><path id="rect4226" opacity="1" fill="#bdb49e" fill-opacity="1" d="M394.571 529.798h2v1h-2z"/><path id="rect4228" opacity="1" fill="#bdb49e" fill-opacity="1" d="M394.571 531.798h4v1h-4z"/><path id="rect4230" opacity="1" fill="#bdb49e" fill-opacity="1" d="M399.571 531.798h4v1h-4z"/><path id="rect4232" opacity="1" fill="#bdb49e" fill-opacity="1" d="M404.571 531.798h4v1h-4z"/><path id="rect4234" opacity="1" fill="#bdb49e" fill-opacity="1" d="M409.571 531.798h2v1h-2z"/><path id="rect4243" opacity="1" fill="#bdb49e" fill-opacity="1" d="M394.571 533.798h3v1h-3z"/><path id="rect4245" opacity="1" fill="#bdb49e" fill-opacity="1" d="M398.571 533.798h1v1h-1z"/><path id="rect4247" opacity="1" fill="#bdb49e" fill-opacity="1" d="M400.571 533.798h4v1h-4z"/><path id="rect4249" opacity="1" fill="#bdb49e" fill-opacity="1" d="M405.571 533.798h3v1h-3z"/><path id="rect4251" opacity="1" fill="#bdb49e" fill-opacity="1" d="M409.571 533.798h5v1h-5z"/></g><g id="layer1-72" transform="translate(20 -864.362)"><rect id="rect4139-7" width="36" height="40" x="6" y="1008.362" ry="0" fill="url(#linearGradient3951)" fill-opacity="1" stroke="none"/><path d="M36.721 1014.362c.46.028.953 0 1.495.375 4.83 2.079 1.59 7.782-4.568 12.123-.037-.818-.377-2.599-.369-3.383 5.254-3.601 8.328-7.108 4.98-8.498-3.53-1.465-4.626 2.535-4.689 8.342-.329.34-2.607 1.854-2.953 2.092.128-5.295 2.943-10.7 5.648-11.006.144-.028.303-.028.456-.028m-4.918 9.212l1.1-.428.91.614.184 1.933-1.151.883-.478.64c-3.544 2.352-6.563 4.163-10.536 5.659l-2.477.368h-1.63c-1.503-.886-.607-1.227-6.068-1.908l6.153.477c4.746-1.84 9.59-4.483 13.996-7.366m-10.83 7.708c-.712 0-6.265-.482-8.474-.687-2.186-.34-4.87-.443-4.363 2.113-.578-1.363.74-3.677 2.614-4.085 2.897-.648 7.495 1.128 9.148 1.673m-2.664.708c.862.341 2.831.588 3.761.894-1.318.682-7.937 3.126-10.67 2.615-.437 0-2.283-1.328-2.328-2.282.142 1.738 8.234.443 9.237-1.26m-1.8.03c.709-.34 4.028-.324 4.762-.596 4.158 1.454 9.752 4.87 13.755 7.173l1.16.34c.223 1.591 1.204 2.14 2.098 3.17l-1.355 1.363-1.06-1.738c-4.688-2.828-13.953-7.398-19.357-9.593m19.356 9.593a43.6 43.6 0 0 1 1.639 1.022c1.202 3.411 2.603 5.708 3.941 5.609-2.067.988-6.519-3.882-8.019-8.461m8.019 8.46c3.153-1.873-3.52-5.289-5.015-6.28-.337-.954.585-2.535.284-3.66 4.707 2.93 7.49 7.17 5.91 9.18-.38.478-.782.717-1.182.75m-4.58-7.14c-.22-.877-3.127-2.875-3.651-3.182-.704-5.537-.737-6.084-1.335-10.388.358-.34 2.556-2.055 2.897-2.293.422 4.6 1.216 10.834 2.339 14.998" id="path26" fill="url(#linearGradient3948)" fill-opacity="1"/><path id="rect4171-5" fill="#080809" fill-opacity="1" stroke="none" d="M6 1047.362h36v1H6z"/><path d="M8 1008.362v17l4-2.308 4 2.308v-17H8z" id="rect4783" fill="url(#linearGradient3944)" fill-opacity="1" stroke="none"/><path id="rect4965" opacity=".6" fill="#080809" fill-opacity="1" stroke="none" d="M6 1008.362h2v40H6z"/><path d="M16 1008.362v17l-4-2.308-4 2.308 23 23h11v-14l-26-26z" id="path4873" opacity=".2" fill="url(#linearGradient3940)" fill-opacity="1" fill-rule="evenodd" stroke="none"/><path id="rect4967" fill="#8b8f8f" fill-opacity="1" stroke="none" d="M8 1046.362h34v1H8z"/><path id="rect4971" fill="#212323" fill-opacity=".452" stroke="none" d="M8 1045.362h34v1H8z"/><path d="M9 1008.362h6v15l-3-2-3 2z" id="rect5011" opacity=".15" fill="url(#linearGradient3935)" fill-opacity="1" stroke="none"/></g><g id="layer1-6" transform="translate(-253.571 -431.798)" fill-opacity="1" stroke="none"><path d="M9 11v2l1-1-1-1zm30 0l-1 1 1 1v-2z" transform="translate(384.571 499.798)" id="path4194" fill="url(#linearGradient4205)" fill-rule="evenodd" stroke-width="1" stroke-linecap="butt" stroke-linejoin="miter" stroke-opacity="1"/><rect id="rect4139-4" width="36" height="30" x="390.571" y="513.798" ry="0" opacity="1" fill="url(#linearGradient4158-6)"/><path d="M23 23v7h-7l3 3h3v3l1 1v2h-7l5 5h21V33L32 23v7h-2l-1-1h-3v-3l-3-3zm3 10h5v5h-5v-5z" transform="translate(384.571 499.798)" id="path4224" opacity=".2" fill="url(#linearGradient4232)" fill-rule="evenodd" stroke-width="1" stroke-linecap="butt" stroke-linejoin="miter" stroke-opacity="1"/><path id="path4172" transform="translate(384.571 499.798)" d="M10 10l-1 1 1 1-4 2h36l-4-2 1-1-1-1H10z" fill="url(#linearGradient4174)" fill-rule="evenodd" stroke-width="1" stroke-linecap="butt" stroke-linejoin="miter" stroke-opacity="1"/><path d="M10 10l-1 1 1 1-4 2h36l-4-2 1-1-1-1H10z" transform="translate(384.571 499.798)" id="path4183" opacity=".6" fill="url(#linearGradient4302)" fill-rule="evenodd" stroke-width="1" stroke-linecap="butt" stroke-linejoin="miter" stroke-opacity="1"/><path d="M10 10l-1 1h30l-1-1H10z" transform="translate(384.571 499.798)" id="rect4176-8" opacity=".2" fill="#000" stroke-opacity="1"/><path d="M400.571 516.798v-5c0-4.432 3.568-8 8-8s8 3.568 8 8v5h-1v-5c0-3.878-3.122-7-7-7s-7 3.122-7 7v5z" id="rect4304" opacity="1" fill="url(#linearGradient4187)" stroke-opacity="1"/><path d="M401.071 514.798a1.5 1.5 0 0 1 1.5 1.5 1.5 1.5 0 0 1-1.5 1.5 1.5 1.5 0 0 1-1.5-1.5 1.5 1.5 0 0 1 1.5-1.5zm0 1a.5.5 0 0 0-.5.5.5.5 0 0 0 .5.5.5.5 0 0 0 .5-.5.5.5 0 0 0-.5-.5z" id="path4189" opacity="1" fill="url(#linearGradient4290)" stroke-opacity="1"/><path d="M31.5 15a1.5 1.5 0 0 0-1.5 1.5 1.5 1.5 0 0 0 1.5 1.5 1.5 1.5 0 0 0 1.5-1.5 1.5 1.5 0 0 0-1.5-1.5zm0 1a.5.5 0 0 1 .5.5.5.5 0 0 1-.5.5.5.5 0 0 1-.5-.5.5.5 0 0 1 .5-.5z" transform="translate(384.571 499.798)" id="circle4191" opacity="1" fill="url(#linearGradient4282)" stroke-opacity="1"/><path d="M16 23v7h7v-7h-7zm9 0v7h7v-7h-7zm-8 1h5v5h-5v-5zm9 0h5v5h-5v-5zm-10 8v7h7v-7h-7zm9 0v7h7v-7h-7zm-8 1h5v5h-5v-5zm9 0h5v5h-5v-5z" transform="translate(384.571 499.798)" id="rect4202-5" fill="url(#linearGradient4222)"/><path id="rect4171-0" opacity="1" fill="#1c5593" d="M390.571 542.798h36v1h-36z"/></g><g id="layer1-41" transform="translate(-198.571 -359.798)" fill-opacity="1" fill-rule="evenodd" stroke="none"><path d="M428.571 503.798v30h-20l-11 10v-10h-9v-30z" id="path4445-0" fill="url(#linearGradient4416)" stroke-width="1" stroke-linecap="butt" stroke-linejoin="miter" stroke-opacity="1"/><path d="M402.571 534.798l-6-6v-3l-3-3v-9h4l1 1v-1l20-6 10 7.461v18.539h-26z" id="path4982" opacity=".2" fill="url(#linearGradient4990)" stroke-width="1" stroke-linecap="butt" stroke-linejoin="miter" stroke-opacity="1"/><path d="M419.571 521.798l9 9v-11l-5-5h-4z" id="path6128" opacity=".2" fill="url(#linearGradient6136)" stroke-width="1" stroke-linecap="butt" stroke-linejoin="miter" stroke-opacity="1"/><path d="M34 8l-20 6v9l20 6V8zM9 14v9h4v-9H9zm26 1v7h4v-7h-4zm-23 9v5h3v-5h-3z" transform="translate(384.571 499.798)" id="rect3794" fill="url(#linearGradient4961)"/></g><g id="layer1-418" transform="translate(-198.571 -431.798)" stroke="none"><rect id="rect4146" width="40" height="40" x="388.571" y="503.798" ry="0" opacity="1" fill="url(#linearGradient4165)" fill-opacity="1"/><rect id="rect4157" width="32" height="16" x="392.571" y="515.798" ry="8" opacity="1" fill="#1d99f3" fill-opacity="1"/><path d="M411.571 528.798l15 15h2v-18l-8-8z" id="path4334" opacity=".4" fill="url(#linearGradient4342)" fill-opacity="1" fill-rule="evenodd" stroke-width="1" stroke-linecap="butt" stroke-linejoin="miter" stroke-opacity="1"/><rect ry="7" y="516.798" x="409.671" height="14" width="14" id="rect4159" opacity="1" fill="url(#linearGradient4332)" fill-opacity="1"/><path d="M35.553 19.092A5.974 5.974 0 0 1 37 23c0 3.324-2.676 6-6 6a5.977 5.977 0 0 1-3.453-1.092A5.977 5.977 0 0 0 32.1 30c3.324 0 6-2.676 6-6a5.98 5.98 0 0 0-2.547-4.908z" transform="translate(384.571 499.798)" id="rect4413" opacity="1" fill="#1b83ce" fill-opacity=".119"/><path id="rect4167" opacity="1" fill="#141517" fill-opacity="1" d="M388.571 542.798h40v1h-40z"/></g><g id="g5655" transform="translate(260 27)" stroke="none"><g id="g5065" transform="matrix(.9584 -.25882 .2568 .96593 -684.918 -337.09)" color="#000" visibility="visible" fill-opacity="1" fill-rule="nonzero" stroke-width="1" stroke-linecap="round" stroke-linejoin="round" stroke-miterlimit="4" stroke-dasharray="none" stroke-opacity="1"><path id="rect4933" style="marker:none" display="inline" overflow="visible" opacity="1" fill="url(#linearGradient4943)" d="M392.571 509.798h19v16h-19z"/><path id="rect4935" style="marker:none" display="inline" overflow="visible" opacity=".2" fill="#fff" d="M392.571 509.798h19v3h-19z"/></g><path style="marker:none" id="rect4391-6" color="#000" display="inline" overflow="visible" visibility="visible" opacity="1" fill="url(#linearGradient4466-8)" fill-opacity="1" fill-rule="nonzero" stroke-width="1" stroke-linecap="round" stroke-linejoin="round" stroke-miterlimit="4" stroke-dasharray="none" stroke-opacity="1" d="M-162.14 46h21.828v33h-21.828z"/><path style="marker:none" id="rect4391-6-7" color="#000" display="inline" overflow="visible" visibility="visible" opacity="1" fill="url(#linearGradient4768)" fill-opacity="1" fill-rule="nonzero" stroke-width="1" stroke-linecap="round" stroke-linejoin="round" stroke-miterlimit="4" stroke-dasharray="none" stroke-opacity="1" d="M-162.14 47h21.828v33h-21.828z"/><path style="marker:none" id="rect4391" color="#000" display="inline" overflow="visible" visibility="visible" opacity="1" fill="url(#linearGradient4466)" fill-opacity="1" fill-rule="nonzero" stroke-width="1" stroke-linecap="round" stroke-linejoin="round" stroke-miterlimit="4" stroke-dasharray="none" stroke-opacity="1" d="M-162.14 48h21.828v33h-21.828z"/><g transform="matrix(.9922 0 0 1 -580.565 -476.79)" id="layer1-5" fill="url(#linearGradient5038)" fill-opacity="1"><path style="marker:none" d="M35.121 11.879L30.88 16.12l2.637 2.637-3.891.148L29 20v3l8.984.229 2.086 2.085 4.244-4.244-9.193-9.191z" transform="translate(399.714 517.79)" id="rect5042" color="#000" display="inline" overflow="visible" visibility="visible" opacity=".2" fill="url(#linearGradient5050)" fill-rule="nonzero" stroke-width="1" stroke-linecap="round" stroke-linejoin="round" stroke-miterlimit="4" stroke-dasharray="none" stroke-opacity="1"/><path id="rect4109" d="M432.714 528.79c-1.662 0-3 1.339-3 3 0 1.663 1.338 3 3 3s3-1.337 3-3c0-1.661-1.338-3-3-3zm0 7c-2.77 0-5 .893-5 2v6h10v-6c0-1.107-2.23-2-5-2zm0 1c2.216 0 4 .637 4 1.428v4.573h-8v-4.573c0-.791 1.784-1.427 4-1.427z" opacity="1" fill="url(#linearGradient5040)"/></g><path d="M-180 61v24h39.688V61z" id="rect4248" fill="url(#linearGradient4486)" fill-opacity="1" stroke-opacity="1"/><path id="rect4488" fill="#d1d3d4" fill-opacity="1" stroke-opacity="1" d="M-180 84h39.688v1H-180z"/><path d="M-177.023 85l.992-2h1.984l-.992 2z" id="path4188" fill="#c0392b" fill-rule="evenodd" stroke-width="1" stroke-linecap="butt" stroke-linejoin="miter" stroke-opacity="1"/><path d="M-169.086 85l.992-2h1.985l-.992 2z" id="path4188-3" fill="#2980b9" fill-rule="evenodd" stroke-width="1" stroke-linecap="butt" stroke-linejoin="miter" stroke-opacity="1"/><path d="M-161.148 85l.992-2h1.984l-.992 2z" id="path4188-3-0" fill="#c0392b" fill-rule="evenodd" stroke-width="1" stroke-linecap="butt" stroke-linejoin="miter" stroke-opacity="1"/><path d="M-153.21 85l.992-2h1.984l-.992 2z" id="path4188-33" fill="#2980b9" fill-rule="evenodd" stroke-width="1" stroke-linecap="butt" stroke-linejoin="miter" stroke-opacity="1"/><path d="M-145.273 85l.992-2h1.985l-.993 2z" id="path4188-3-7" fill="#c0392b" fill-rule="evenodd" stroke-width="1" stroke-linecap="butt" stroke-linejoin="miter" stroke-opacity="1"/><path d="M-142.296 79l1.984 1v2l-1.984-1z" id="path4188-3-0-2" fill="#2980b9" fill-rule="evenodd" stroke-width="1" stroke-linecap="butt" stroke-linejoin="miter" stroke-opacity="1"/><path d="M-142.296 71l1.984 1v2l-1.984-1z" id="path4188-33-7" fill="#c0392b" fill-rule="evenodd" stroke-width="1" stroke-linecap="butt" stroke-linejoin="miter" stroke-opacity="1"/><path d="M-142.296 63l1.984 1v2l-1.984-1z" id="path4188-3-7-6" fill="#2980b9" fill-rule="evenodd" stroke-width="1" stroke-linecap="butt" stroke-linejoin="miter" stroke-opacity="1"/><path d="M-178.016 80L-180 81v2l1.984-1z" id="path4188-3-0-2-3" fill="#2980b9" fill-rule="evenodd" stroke-width="1" stroke-linecap="butt" stroke-linejoin="miter" stroke-opacity="1"/><path d="M-178.016 72L-180 73v2l1.984-1z" id="path4188-33-7-1" fill="#c0392b" fill-rule="evenodd" stroke-width="1" stroke-linecap="butt" stroke-linejoin="miter" stroke-opacity="1"/><path d="M-178.016 64L-180 65v2l1.984-1z" id="path4188-3-7-6-0" fill="#2980b9" fill-rule="evenodd" stroke-width="1" stroke-linecap="butt" stroke-linejoin="miter" stroke-opacity="1"/><path d="M-178.016 61l.993 2h1.984l-.992-2z" id="path4188-0" fill="#c0392b" fill-rule="evenodd" stroke-width="1" stroke-linecap="butt" stroke-linejoin="miter" stroke-opacity="1"/><path d="M-170.078 61l.992 2h1.985l-.993-2z" id="path4188-3-1" fill="#2980b9" fill-rule="evenodd" stroke-width="1" stroke-linecap="butt" stroke-linejoin="miter" stroke-opacity="1"/><path d="M-162.14 61l.992 2h1.984l-.992-2z" id="path4188-3-0-0" fill="#c0392b" fill-rule="evenodd" stroke-width="1" stroke-linecap="butt" stroke-linejoin="miter" stroke-opacity="1"/><path d="M-154.203 61l.992 2h1.985l-.992-2z" id="path4188-33-1" fill="#2980b9" fill-rule="evenodd" stroke-width="1" stroke-linecap="butt" stroke-linejoin="miter" stroke-opacity="1"/><path d="M-146.265 61l.992 2h1.984l-.992-2z" id="path4188-3-7-4" fill="#c0392b" fill-rule="evenodd" stroke-width="1" stroke-linecap="butt" stroke-linejoin="miter" stroke-opacity="1"/><path d="M-144.28 65l3.968 4v11l-8.93-9z" id="path4340" opacity=".2" fill="url(#linearGradient4356)" fill-opacity="1" fill-rule="evenodd" stroke-width="1" stroke-linecap="butt" stroke-linejoin="miter" stroke-opacity="1"/><path style="marker:none" id="rect4318" color="#fcfcfc" display="inline" overflow="visible" visibility="visible" opacity="1" fill="currentColor" fill-opacity="1" fill-rule="nonzero" stroke-width="1" stroke-linecap="round" stroke-linejoin="round" stroke-miterlimit="4" stroke-dasharray="none" stroke-opacity="1" d="M-149.242 65h4.961v6h-4.961z"/><path style="marker:none" id="rect4320" color="#000" display="inline" overflow="visible" visibility="visible" opacity="1" fill="#16a085" fill-opacity="1" fill-rule="nonzero" stroke-width="1" stroke-linecap="round" stroke-linejoin="round" stroke-miterlimit="4" stroke-dasharray="none" stroke-opacity="1" d="M-148.25 66h2.977v4h-2.977z"/><g transform="matrix(.9922 0 0 1 -565.54 -458.798)" id="g4382" color="#000" visibility="visible" fill="#bdc3c7" fill-opacity="1" fill-rule="nonzero" stroke-width="1" stroke-linecap="round" stroke-linejoin="round" stroke-miterlimit="4" stroke-dasharray="none" stroke-opacity="1"><path id="rect4358" style="marker:none" display="inline" overflow="visible" opacity="1" d="M404.571 528.798h7v1h-7z"/><path id="rect4360" style="marker:none" display="inline" overflow="visible" opacity="1" d="M404.571 530.798h4v1h-4z"/><path id="rect4362" style="marker:none" display="inline" overflow="visible" opacity="1" d="M404.571 532.798h10v1h-10z"/><path id="rect4364" style="marker:none" display="inline" overflow="visible" opacity="1" d="M404.571 534.798h5v1h-5z"/><path id="rect4366" style="marker:none" display="inline" overflow="visible" opacity="1" d="M392.571 523.798h4v1h-4z"/><path id="rect4368" style="marker:none" display="inline" overflow="visible" opacity="1" d="M392.571 525.798h7v1h-7z"/><path id="rect4370" style="marker:none" display="inline" overflow="visible" opacity="1" d="M392.571 527.798h6v1h-6z"/></g><path style="marker:none" id="rect4468" color="#000" display="inline" overflow="visible" visibility="visible" opacity="1" fill="#7f8c8d" fill-opacity="1" fill-rule="nonzero" stroke-width="1" stroke-linecap="round" stroke-linejoin="round" stroke-miterlimit="4" stroke-dasharray="none" stroke-opacity="1" d="M-159.164 45h.992v4h-.992z"/><path style="marker:none" id="rect4468-7" color="#000" display="inline" overflow="visible" visibility="visible" opacity="1" fill="#7f8c8d" fill-opacity="1" fill-rule="nonzero" stroke-width="1" stroke-linecap="round" stroke-linejoin="round" stroke-miterlimit="4" stroke-dasharray="none" stroke-opacity="1" d="M-144.281 45h.992v4h-.992z"/><path style="marker:none" id="rect4468-7-8" color="#000" display="inline" overflow="visible" visibility="visible" opacity="1" fill="#7f8c8d" fill-opacity="1" fill-rule="nonzero" stroke-width="1" stroke-linecap="round" stroke-linejoin="round" stroke-miterlimit="4" stroke-dasharray="none" stroke-opacity="1" d="M-154.203 45h.992v4h-.992z"/><path style="marker:none" id="rect4468-7-8-2-1" color="#000" display="inline" overflow="visible" visibility="visible" opacity="1" fill="#7f8c8d" fill-opacity="1" fill-rule="nonzero" stroke-width="1" stroke-linecap="round" stroke-linejoin="round" stroke-miterlimit="4" stroke-dasharray="none" stroke-opacity="1" d="M-149.242 45h.992v4h-.992z"/></g><g id="layer1-2" transform="translate(-364.571 -431.798)" fill-opacity="1" stroke="none"><rect id="rect4166-26" width="40" height="40" x="388.571" y="503.798" ry="20" opacity="1" fill="url(#linearGradient4174-5)" stroke-width="2.8" stroke-miterlimit="4" stroke-dasharray="none" stroke-opacity=".55"/><path d="M28 22v11h-8l10.064 10.064a19.954 19.954 0 0 0 12.467-11.533L33 22h-5z" transform="translate(384.571 499.798)" id="path4696" opacity=".2" fill="url(#linearGradient4773)" fill-rule="evenodd" stroke-width="1" stroke-linecap="butt" stroke-linejoin="miter" stroke-opacity="1"/><path d="M24 13l-9 9h5v11h8V22h5z" transform="translate(384.571 499.798)" id="rect4318-9" opacity="1" fill="url(#linearGradient4388)" stroke-width="2.8" stroke-miterlimit="4" stroke-dasharray="none" stroke-opacity=".55"/><path d="M24 42c9.972 0 18-8.028 18-18S33.972 6 24 6v2c8.864 0 16 7.136 16 16s-7.136 16-16 16v2z" id="path4619" transform="translate(384.571 499.798)" opacity=".5" fill="gray" stroke-width="2.8" stroke-miterlimit="4" stroke-dasharray="none" stroke-opacity=".55"/><path d="M408.571 505.798c-9.972 0-18 8.028-18 18s8.028 18 18 18 18-8.028 18-18-8.028-18-18-18zm0 2c8.864 0 16 7.136 16 16s-7.136 16-16 16-16-7.136-16-16 7.136-16 16-16z" id="rect4681" opacity="1" fill="url(#linearGradient4694)" stroke-width="2.8" stroke-miterlimit="4" stroke-dasharray="none" stroke-opacity=".55"/><path d="M24 42v-2c-8.864 0-16-7.136-16-16S15.136 8 24 8V6C14.028 6 6 14.028 6 24s8.028 18 18 18z" id="rect4600" transform="translate(384.571 499.798)" opacity="1" fill="url(#linearGradient4602)" stroke-width="2.8" stroke-miterlimit="4" stroke-dasharray="none" stroke-opacity=".55"/><path d="M4.012 23.5c-.004.167-.012.332-.012.5 0 11.08 8.92 20 20 20s20-8.92 20-20c0-.168-.008-.333-.012-.5A19.95 19.95 0 0 1 24 43 19.95 19.95 0 0 1 4.012 23.5z" transform="translate(384.571 499.798)" id="rect4775" opacity="1" fill="#99a1a7" stroke-width="2.8" stroke-miterlimit="4" stroke-dasharray="none" stroke-opacity=".55"/></g><g id="layer1" transform="translate(76 140)"><circle transform="rotate(15)" id="path4212-7" r="15" cy="16.971" cx="29.394" color="#000" fill="url(#linearGradient4464)" stroke-width="3" stroke-linecap="round" stroke-linejoin="round"/><path d="M27.168 43.736a20 20 0 0 0 3.959-1.054l-.344-3.118a17 17 0 0 0 3.307-1.906l2.521 1.852a20 20 0 0 0 2.897-2.903l-1.85-2.517a17 17 0 0 0 1.92-3.305l3.086.34a20 20 0 0 0 1.06-3.963l-2.841-1.248A17 17 0 0 0 41 24a17 17 0 0 0-.129-1.908l2.865-1.26a20 20 0 0 0-1.054-3.959l-3.118.344a17 17 0 0 0-1.906-3.307l1.852-2.521a20 20 0 0 0-2.903-2.897l-2.517 1.85a17 17 0 0 0-3.305-1.92l.34-3.086a20 20 0 0 0-3.963-1.06l-1.248 2.841A17 17 0 0 0 24 7a17 17 0 0 0-1.908.129l-1.26-2.865a20 20 0 0 0-3.959 1.054l.344 3.118a17 17 0 0 0-3.307 1.906L11.39 8.49a20 20 0 0 0-2.897 2.903l1.85 2.517a17 17 0 0 0-1.92 3.305l-3.086-.34a20 20 0 0 0-1.06 3.963l2.841 1.248A17 17 0 0 0 7 24a17 17 0 0 0 .129 1.908l-2.865 1.26a20 20 0 0 0 1.054 3.959l3.118-.344a17 17 0 0 0 1.906 3.307L8.49 36.61a20 20 0 0 0 2.903 2.897l2.517-1.85a17 17 0 0 0 3.305 1.92l-.34 3.086a20 20 0 0 0 3.963 1.06l1.248-2.841A17 17 0 0 0 24 41a17 17 0 0 0 1.908-.129l1.26 2.865zM24 38a14 14 0 0 1-14-14 14 14 0 0 1 14-14 14 14 0 0 1 14 14 14 14 0 0 1-14 14z" id="path4162" color="#000" fill="url(#linearGradient4472)" stroke-width="3" stroke-linecap="round" stroke-linejoin="round"/><path d="M16.979 5.28l-.106.038.238 2.17.106-.052zm14.04.02l-.234 2.122.106.047.234-2.133a19.83 19.83 0 0 0-.105-.035zm8.086 5.64l-1.447 1.97a17 17 0 0 1 .356.516l1.496-2.037a20 20 0 0 0-.405-.45zm-30.21.001a20 20 0 0 0-.403.452l1.5 2.04c.113-.176.23-.35.35-.523zm34.648 8.975l-2.672 1.176c.033.322.058.645.072.969l2.793-1.229a20.004 20.004 0 0 0-.193-.916zm-39.074.008a20 20 0 0 0-.194.914l2.776 1.219a17 17 0 0 1 .066-.971zm2.556 3.502c-.011.191-.02.382-.025.574a17 17 0 0 0 .057.94l.072-.032a17 17 0 0 1-.104-1.482zm33.95.148c-.013.448-.044.895-.092 1.34l.066.03c.026-.315.043-.63.051-.944a17.101 17.101 0 0 0-.025-.426zm2.556 3.502a20 20 0 0 1-.867 3.049l-3.086-.34a17 17 0 0 1-1.92 3.305l.35.476a17 17 0 0 0 1.57-2.78l3.086.339a20 20 0 0 0 1.06-3.963zm-39.074.008l-.193.084a20 20 0 0 0 1.054 3.959l3.118-.344a17 17 0 0 0 1.55 2.791l.356-.484a17 17 0 0 1-1.906-3.307l-3.118.344a20 20 0 0 1-.861-3.043zm34.648 8.975a20 20 0 0 1-2.494 2.45l-2.521-1.85a17 17 0 0 1-3.307 1.905l.106.948a17 17 0 0 0 3.2-1.854l2.522 1.852a20 20 0 0 0 2.897-2.903zm-30.21.002l-.405.55a20 20 0 0 0 2.903 2.897l2.517-1.85a17 17 0 0 0 3.2 1.873l.105-.953a17 17 0 0 1-3.305-1.92l-2.517 1.85a20.005 20.005 0 0 1-2.498-2.447zm17.013 3.81A17 17 0 0 1 24 40a16.995 16.995 0 0 1-1.914-.117l-1.248 2.842a20 20 0 0 1-3.858-1.026l-.105.965a20 20 0 0 0 3.963 1.06l1.248-2.841A17 17 0 0 0 24 41c.638-.007 1.275-.05 1.908-.129l1.26 2.865a20 20 0 0 0 3.959-1.054l-.106-.961a20 20 0 0 1-3.853 1.015z" id="path4162-5" color="#000" fill="#95a5a6" stroke-width="3" stroke-linecap="round" stroke-linejoin="round"/><path d="M33 15L15 33l7.96 7.96c.347.024.693.038 1.04.04.638-.007 1.275-.05 1.908-.129l1.26 2.865a20 20 0 0 0 3.959-1.054l-.238-2.17-.106-.948a17 17 0 0 0 3.307-1.906l2.521 1.852a20 20 0 0 0 2.897-2.903l-1.5-2.04-.35-.477a17 17 0 0 0 1.92-3.305l3.086.34a20 20 0 0 0 1.06-3.963l-2.775-1.219-.066-.029A17 17 0 0 0 41 24a17 17 0 0 0-.057-.94l.02-.007-.008-.098L33 15z" id="path4596" opacity=".2" fill="url(#linearGradient4604)" fill-rule="evenodd"/><rect id="rect4130" height="26" rx="13" y="11" x="11" width="26" fill="url(#linearGradient4149)"/><path d="M24 11c-.944 0-1.862.104-2.747.293L20.1 13.6l-1.742-1.306a12.961 12.961 0 0 0-6.665 7.53L14.25 18.8l1.95 1.3.65-1.95 8.45-4.55-.515-2.575C24.525 11.01 24.264 11 24 11zm9.627 4.27l-.527 1.58.65.65-2.6 3.9 1.3 4.55 4.311.54c.155-.806.239-1.638.239-2.49 0-2.226-.557-4.316-1.535-6.145L34.4 17.5l.387-.776a12.979 12.979 0 0 0-1.16-1.455zm-22.37 6.13a13.14 13.14 0 0 0-.247 2.198l4.54 1.702-.65-1.95-1.3-1.95zm4.293 3.9l3.25 7.8v2.82A13.001 13.001 0 0 0 24 37c.13 0 .256-.005.385-.009l4.165-7.141L18.15 24l-2.6 1.3z" id="path4179" fill="url(#linearGradient4305)" fill-rule="evenodd"/><path d="M11.025 23.5c-.006.167-.025.331-.025.5 0 7.202 5.798 13 13 13s13-5.798 13-13c0-.169-.02-.333-.025-.5A12.96 12.96 0 0 1 24 36a12.96 12.96 0 0 1-12.975-12.5z" id="rect4130-9" opacity=".2" fill="#172525"/></g></svg>