<svg xmlns="http://www.w3.org/2000/svg" xmlns:xlink="http://www.w3.org/1999/xlink" viewBox="0 0 256 256"><defs><filter height="1.905" y="-.453" width="1.123" x="-.061" id="d" color-interpolation-filters="sRGB"><feGaussianBlur stdDeviation=".511"/></filter><filter height="1.118" y="-.059" width="1.206" x="-.103" id="c" color-interpolation-filters="sRGB"><feGaussianBlur stdDeviation=".876"/></filter><filter height="1.123" y="-.061" width="1.905" x="-.453" id="e" color-interpolation-filters="sRGB"><feGaussianBlur stdDeviation=".511"/></filter><radialGradient r="104" cy="855.36" cx="1007" gradientUnits="userSpaceOnUse" id="b" xlink:href="#a"/><linearGradient id="a"><stop stop-color="#232629"/><stop offset=".9" stop-color="#232629" stop-opacity=".523"/><stop offset=".96" stop-color="#232629" stop-opacity=".107"/><stop offset="1" stop-color="#232629" stop-opacity="0"/></linearGradient></defs><g transform="translate(-963.2 -796.49) scale(1.08344)"><path opacity=".005" fill="#717171" d="M900 746.36h214v214H900z"/><circle cx="1007" cy="855.36" r="104" fill="url(#b)"/><circle r="96.61" cy="853.36" cx="1007" fill="#eff0f1"/><path d="M963.39 776.51l-.844.5 2.094 3.594c.278-.163.564-.308.844-.469zm87.87 0l-2.031 3.531c.293.167.585.33.875.5l2.031-3.531zm-95.69 5.03l-.813.563 2.469 3.406c.269-.199.541-.398.813-.594zm103.5 0l-2.375 3.281c.267.192.548.368.813.563l2.375-3.281zm-110.75 5.813l-.719.656 2.781 3.094c.24-.219.508-.408.75-.625zm118 0l-2.719 3c.248.221.505.432.75.656l2.719-3zm-124.59 6.531l-.656.75 3.125 2.813c.219-.247.434-.505.656-.75zm131.19 0l-3 2.688c.233.255.458.523.687.781l3-2.719zm-137.06 7.188l-.594.781 3.438 2.5c.192-.268.367-.547.563-.813zm142.94 0l-3.25 2.375c.19.259.375.52.562.781l3.281-2.375zm-148.06 7.75l-.5.875 3.688 2.125c.166-.292.331-.585.5-.875zm153.19 0l-3.5 2.031c.17.29.333.582.5.875l3.5-2.031zm-157.44 8.25l-.406.906 3.875 1.719c.133-.305.269-.603.406-.906zm161.69 0l-3.688 1.625c.136.301.274.603.406.906l3.688-1.625zm-165.06 8.656l-.312.938 4.062 1.313c.098-.308.18-.631.281-.938zm168.44 0l-3.844 1.25c.102.31.214.626.313.938l3.844-1.25zm-170.91 8.969l-.188.969 4.156.875c.066-.324.149-.646.219-.969zm173.34 0l-3.937.844c.069.321.122.647.187.969l3.969-.844zm-174.81 9.156l-.125.969 4.281.438c.031-.322.059-.648.094-.969l-4.25-.438m176.34 0l-4.063.438c.035.321.063.647.094.969l4.062-.438-.094-.969m-172.16 18.09l-4.312.438.125 1 4.281-.438c-.037-.333-.061-.666-.094-1m168.16 0c-.033.334-.057.667-.094 1l4.094.438.094-1zm-166.84 8.719l-4.219.906.188.969 4.25-.906c-.071-.322-.152-.645-.219-.969m165.53.063c-.067.324-.148.646-.219.969l4 .844.219-.969zm-163.28 8.469l-4.125 1.344.312.969 4.125-1.344a78.145 78.145 0 0 1-.312-.969m161 .063c-.104.325-.205.646-.313.969l3.938 1.281.312-.969zm-157.87 8.219l-3.969 1.781.406.906 3.969-1.781a73.534 73.534 0 0 1-.406-.906m154.75.094c-.134.303-.269.605-.406.906l3.781 1.688.406-.906zm-150.75 7.781l-3.813 2.188.5.875 3.813-2.188c-.17-.289-.333-.584-.5-.875m146.75.094c-.168.292-.329.585-.5.875l3.625 2.094.5-.875zm-142 7.344l-3.531 2.563.594.813 3.531-2.563c-.199-.27-.397-.54-.594-.813m137.19.094c-.193.268-.366.547-.562.813l3.375 2.469.594-.813zm-131.62 6.781l-3.281 2.938.656.75 3.281-2.938c-.224-.246-.435-.502-.656-.75m126.09.094c-.226.253-.458.499-.688.75l3.156 2.844.687-.75zm-119.94 6.188l-2.906 3.25.719.688 2.938-3.281c-.248-.221-.504-.432-.75-.656m113.72.094c-.251.228-.496.462-.75.688l2.844 3.156.75-.688zm-106.91 5.5l-2.563 3.531.813.594 2.563-3.531c-.272-.195-.543-.395-.813-.594m100.06.094c-.27.198-.54.399-.813.594l2.5 3.438.813-.594zm-92.66 4.781l-2.187 3.781.844.5 2.188-3.813c-.28-.16-.566-.306-.844-.469m85.25.063c-.283.165-.559.338-.844.5l2.125 3.719.875-.5zm-77.44 4l-1.75 3.969.906.406 1.781-3.969c-.313-.138-.626-.265-.937-.406m69.62.094c-.308.139-.628.271-.938.406l1.719 3.875.938-.406zm-61.37 3.125l-1.344 4.156.938.313 1.344-4.156c-.314-.1-.625-.209-.937-.313m53.09.063c-.322.106-.645.21-.969.313l1.344 4.094.969-.313zm-44.594 2.25l-.906 4.25 1 .219.906-4.25c-.334-.069-.668-.146-1-.219m36.06.063c-.326.071-.641.152-.969.219l.906 4.188.969-.219zm-27.312 1.375l-.469 4.344 1 .094.438-4.313c-.325-.032-.645-.089-.969-.125m18.594.031c-.323.035-.645.062-.969.094l.437 4.313.969-.094z" opacity=".6" color="#000" fill="#31363b"/><path d="M1012.69 766.92c2.747 0 4.948.723 6.601 2.168 1.667 1.432 2.5 3.392 2.5 5.879 0 1.693-.436 3.288-1.309 4.785-.872 1.484-2.213 3.197-4.02 5.137l-8.262 8.809h13.03v3.01h-16.445v-3.691l9.394-10.684c1.276-1.458 2.233-2.728 2.871-3.809.651-1.094.977-2.174.977-3.242 0-1.667-.475-2.936-1.426-3.809-.951-.872-2.285-1.309-4-1.309-2.552 0-4.642.82-6.269 2.461l-1.133-3.066c1.914-1.758 4.414-2.637 7.5-2.637m-14.88 1.23h3.496v28.555h-3.496v-25.293a33.335 33.335 0 0 1-4.785 2.676v-3.066c1.25-.547 2.845-1.504 4.785-2.871" fill="#232629" filter="url(#c)" fill-opacity=".443"/><path d="M1012.69 765.72c2.747 0 4.948.723 6.601 2.168 1.667 1.432 2.5 3.392 2.5 5.879 0 1.693-.436 3.288-1.309 4.785-.872 1.484-2.213 3.197-4.02 5.137l-8.262 8.809h13.03v3.01h-16.445v-3.691l9.394-10.684c1.276-1.458 2.233-2.728 2.871-3.809.651-1.094.977-2.174.977-3.242 0-1.667-.475-2.936-1.426-3.809-.951-.872-2.285-1.309-4-1.309-2.552 0-4.642.82-6.269 2.461l-1.133-3.066c1.914-1.758 4.414-2.637 7.5-2.637m-14.88 1.23h3.496v28.555h-3.496v-25.293a33.335 33.335 0 0 1-4.785 2.676v-3.066c1.25-.547 2.845-1.504 4.785-2.871" fill="#3daee9"/><path fill="#212121" filter="url(#d)" fill-opacity=".413" d="M917.02 853.51h20v2.709h-20z"/><path fill="#3daee9" d="M916.91 852.3h20v2.709h-20z"/><path fill="#1c1c1c" filter="url(#d)" fill-opacity=".361" d="M1078.12 853.51h20v2.709h-20z"/><path fill="#3daee9" d="M1078.11 852.3h20v2.709h-20z"/><path transform="rotate(90 -446.2 130.94)" fill="#2a2a2a" filter="url(#e)" fill-opacity=".524" d="M349.03-1323.93h20v2.71h-20z"/><path fill="#3daee9" d="M1008.76 924.95v20h-2.71v-20z"/><circle r="96.61" cy="853.36" cx="1007" stroke-opacity=".677" fill="none" stroke="#70767a"/><g fill="#666667"><path d="M1079.34 810.5l4.03-2.325 1.354 2.346-4.03 2.325zm-149.43 86.28l4.03-2.325 1.355 2.346-4.03 2.325zM1048.11 780.27l2.325-4.03 2.346 1.355-2.325 4.03zM961.83 929.7l2.325-4.03 2.346 1.355-2.325 4.03zM933.93 812.85l-4.03-2.325 1.355-2.346 4.03 2.325zm149.43 86.28l-4.03-2.325 1.354-2.346 4.03 2.325zM964.16 781.63l-2.325-4.03 2.346-1.355 2.325 4.03zm86.28 149.43l-2.325-4.03 2.346-1.355 2.325 4.03z"/></g><g fill="#575757"><path d="M991.72 882.95c-.188.762-.404 1.35-.65 1.764-.113.195-.225.293-.334.293a.56.56 0 0 1-.158-.029c-.297-.09-.445-.197-.445-.322 0-.063.041-.104.123-.123.344-.516.547-1.135.609-1.857-.215-.191-.418-.287-.609-.287-.406-.004-.887.354-1.441 1.072-.512.672-.955 1.469-1.33 2.391-.391.961-.578 1.762-.563 2.402.004.371.115.648.334.832a.83.83 0 0 0 .545.199c.117 0 .252-.023.404-.07.375-.117.809-.344 1.301-.68.469-.32.859-.646 1.172-.979a.698.698 0 0 0 .176-.404c.012-.086.051-.129.117-.129.055 0 .096.035.123.105.141.352.211.596.211.732 0 .129-.053.25-.158.363-.07.07-.236.205-.498.404-.828.621-1.539 1.01-2.133 1.16-.184.047-.352.07-.504.07-.32 0-.564-.107-.732-.322-.762-.285-1.143-.721-1.143-1.307 0-.945.248-1.961.744-3.047a10.01 10.01 0 0 1 1.576-2.484c.602-.684 1.09-1.039 1.465-1.066.137-.012.295.045.475.17.023.016.205.162.545.439.019-.156.072-.234.158-.234.094 0 .252.086.475.258.141.109.211.215.211.316 0 .066-.021.189-.064.369M995.61 885.99c-.01.348-.092.809-.252 1.383-.254.906-.613 1.609-1.078 2.109-.246.266-.519.398-.82.398-.117 0-.268-.025-.451-.076-.367-.023-.666-.139-.896-.346a1.057 1.057 0 0 1-.351-.873c.016-.414.158-.992.428-1.734.297-.809.606-1.391.926-1.746.152-.172.277-.258.375-.258.133 0 .348.137.644.41.082-.039.25-.111.504-.217.129-.043.227-.064.293-.064.152 0 .322.143.51.428a.946.946 0 0 1 .17.586m-.674.17c.027-.262.041-.428.041-.498 0-.164-.051-.246-.152-.246a.684.684 0 0 0-.152.023l-.908.369a.99.99 0 0 1-.182.064c-.031 0-.062-.037-.094-.111-.227.277-.438.678-.633 1.201-.152.41-.258.777-.316 1.102a3.128 3.128 0 0 0-.065.598c0 .602.186.895.557.879.148-.004.308-.063.48-.176.328-.223.635-.668.92-1.336a6.26 6.26 0 0 0 .504-1.869M1003.13 887.83c-.254.379-.633 1.047-1.137 2-.047.086-.076.131-.088.135-.035.019-.117.01-.246-.029-.27-.082-.404-.16-.404-.234 0-.043.018-.105.053-.188.293-.684.544-1.413.753-2.188.209-.775.31-1.37.302-1.784 0-.137-.049-.205-.146-.205-.066 0-.144.037-.234.111-.332.27-.762.793-1.289 1.57-.633.938-1.08 1.814-1.342 2.631-.027.094-.051.146-.07.158-.023.012-.08.002-.17-.029a1.542 1.542 0 0 1-.381-.199c-.059-.043-.088-.088-.088-.135 0-.008.029-.084.088-.229.512-1.281.768-2.521.768-3.721 0-.121-.035-.182-.105-.182-.051 0-.115.033-.193.1-.418.352-.883.957-1.394 1.816-.492.82-.859 1.59-1.102 2.309-.062.184-.127.275-.193.275-.078 0-.238-.088-.481-.264-.062-.035-.094-.072-.094-.111 0-.043.043-.109.129-.199.16-.34.342-.926.545-1.758.23-.949.33-1.639.299-2.068-.059.059-.158.155-.299.29-.141.135-.246.237-.316.308-.051.051-.096.076-.135.076-.059 0-.088-.039-.088-.117 0-.063.022-.117.065-.164a6.41 6.41 0 0 0 .65-.803c.078-.109.146-.164.205-.164.043 0 .127.063.252.188l.293.105c.082.039.123.111.123.217 0 .031 0 .064-.012.1a12.517 12.517 0 0 1-.451 2.109c.691-1.242 1.334-2.125 1.928-2.648.082-.074.162-.111.24-.111.082 0 .207.053.375.158.16.07.266.133.316.188.059.07.088.18.088.328 0 .797-.092 1.506-.275 2.127.762-1.207 1.455-2.104 2.08-2.689a.372.372 0 0 1 .258-.117c.117 0 .262.078.434.234.305.047.449.232.434.557a8.255 8.255 0 0 1-.609 2.73c.195-.23.348-.43.457-.598.051-.082.109-.123.176-.123.059 0 .088.031.088.094a.279.279 0 0 1-.053.141M1010.84 887.83c-.254.379-.633 1.047-1.137 2-.047.086-.076.131-.088.135-.035.019-.117.01-.246-.029-.269-.082-.404-.16-.404-.234 0-.043.018-.105.053-.188.293-.684.544-1.413.753-2.188.209-.775.309-1.37.302-1.784 0-.137-.049-.205-.146-.205-.066 0-.144.037-.234.111-.332.27-.762.793-1.289 1.57-.633.938-1.08 1.814-1.342 2.631-.027.094-.051.146-.07.158-.024.012-.08.002-.17-.029a1.542 1.542 0 0 1-.381-.199c-.059-.043-.088-.088-.088-.135 0-.008.029-.084.088-.229.512-1.281.768-2.521.768-3.721 0-.121-.035-.182-.106-.182-.051 0-.115.033-.193.1-.418.352-.883.957-1.395 1.816-.492.82-.859 1.59-1.101 2.309-.062.184-.127.275-.193.275-.078 0-.238-.088-.481-.264-.062-.035-.094-.072-.094-.111 0-.043.043-.109.129-.199.16-.34.342-.926.545-1.758.231-.949.33-1.639.299-2.068-.059.059-.158.155-.299.29-.141.135-.246.237-.316.308-.051.051-.096.076-.135.076-.059 0-.088-.039-.088-.117 0-.063.021-.117.064-.164a6.41 6.41 0 0 0 .65-.803c.078-.109.146-.164.205-.164.043 0 .127.063.252.188l.293.105c.082.039.123.111.123.217 0 .031 0 .064-.012.1a12.517 12.517 0 0 1-.451 2.109c.692-1.242 1.334-2.125 1.928-2.648.082-.074.162-.111.24-.111.082 0 .207.053.375.158.16.07.266.133.316.188.059.07.088.18.088.328 0 .797-.092 1.506-.275 2.127.762-1.207 1.455-2.104 2.08-2.689a.372.372 0 0 1 .258-.117c.117 0 .262.078.434.234.305.047.449.232.434.557a8.255 8.255 0 0 1-.609 2.73c.195-.23.348-.43.457-.598.051-.082.109-.123.176-.123.059 0 .088.031.088.094a.279.279 0 0 1-.053.141M1015.91 885.45c-.519.965-.908 2.098-1.166 3.398.109-.191.242-.436.398-.732.02-.055.051-.082.094-.082.059 0 .088.037.088.111 0 .023-.01.049-.018.076-.25.57-.414 1.01-.492 1.318-.047.195-.109.293-.188.293-.078 0-.231-.076-.457-.229-.121-.086-.162-.238-.123-.457.164-.852.361-1.592.592-2.221-.754 1.227-1.387 2.131-1.898 2.713-.113.129-.236.193-.369.193-.109 0-.238-.045-.387-.135-.269-.047-.404-.188-.404-.422 0-.043 0-.09.012-.141.098-1.117.301-2.045.609-2.783-.066.063-.166.154-.299.275-.051.043-.09.055-.117.035-.031-.023-.025-.068.018-.135.211-.309.336-.512.375-.609.121-.305.248-.541.381-.709.07-.086.144-.129.223-.129.106 0 .26.063.463.188.055.035.082.07.082.105l-.129.193c-.195.297-.402.82-.621 1.57-.238.813-.359 1.475-.363 1.986 0 .168.035.252.106.252.062 0 .164-.072.305-.217.301-.32.736-.926 1.307-1.816.504-.785.809-1.297.914-1.535.176-.398.318-.633.428-.703a.349.349 0 0 1 .188-.07c.055 0 .16.041.316.123.156.082.234.143.234.182 0 .012-.014.027-.041.047a.186.186 0 0 0-.059.064M1020.65 887.62c-.234.355-.539.871-.914 1.547-.07.176-.139.352-.205.527-.055.121-.127.182-.217.182a.88.88 0 0 1-.311-.088c-.152-.063-.229-.125-.229-.188 0-.027.025-.088.076-.182.254-.516.48-1.158.68-1.928.215-.809.307-1.426.275-1.852-.01-.172-.047-.258-.117-.258-.051 0-.127.049-.229.146-.984.961-1.836 2.246-2.555 3.855-.09.199-.195.299-.316.299-.086 0-.229-.049-.428-.146-.078-.035-.119-.068-.123-.1a.76.76 0 0 1 .064-.164c.227-.496.451-1.125.674-1.887.238-.824.373-1.467.404-1.928.01-.141 0-.211-.012-.211 0 0-.059.053-.164.158a12.8 12.8 0 0 1-.439.41.163.163 0 0 1-.117.053c-.055 0-.082-.021-.082-.064 0-.031.02-.066.059-.105.168-.215.389-.482.662-.803.059-.066.119-.1.182-.1.094 0 .176.068.246.205.316.094.465.238.445.434-.043.43-.264 1.205-.662 2.326.262-.504.643-1.067 1.143-1.69s.871-.991 1.113-1.104a.747.747 0 0 1 .258-.082c.051 0 .133.043.246.129.324.113.484.301.481.563 0 .273-.066.713-.199 1.318-.105.5-.203.889-.293 1.166.113-.145.258-.332.434-.563.031-.039.062-.059.094-.059.059 0 .088.037.088.111 0 .023 0 .047-.012.07M1023.72 883.15c.062.047.094.1.094.158 0 .113-.168.289-.504.527-.223.152-.438.207-.644.164a.756.756 0 0 1-.305-.129.274.274 0 0 1-.062-.073c-.014-.025-.017-.046-.01-.062.012-.016.035-.019.07-.012.359-.312.596-.537.709-.674.09-.102.154-.152.193-.152.07 0 .223.084.457.252zm-.826 2.566c-.094.527-.338 1.404-.732 2.631.113-.102.269-.287.469-.557.027-.035.055-.053.082-.053.062 0 .07.055.023.164-.02.043-.184.311-.492.803a5.912 5.912 0 0 0-.516.996c-.035.09-.1.135-.193.135-.094 0-.221-.045-.381-.135-.102-.055-.152-.096-.152-.123 0-.023.021-.074.064-.152.211-.371.445-.992.703-1.863.246-.844.385-1.471.416-1.881.012-.176-.01-.264-.053-.264-.035 0-.098.043-.188.129l-.363.34c-.129.117-.193.123-.193.018 0-.031.017-.07.053-.117.184-.258.379-.502.586-.732.062-.066.123-.1.182-.1.062 0 .154.043.275.129.18.047.279.076.299.088.09.055.135.156.135.305 0 .07-.01.15-.024.24zM1026.83 882.22c.109.059.164.125.164.199 0 .051-.037.076-.111.076a.451.451 0 0 1-.073-.009.464.464 0 0 0-.073-.009c-.149 0-.328.162-.539.486-.188.289-.447.918-.779 1.887-.031.086-.043.137-.035.152.012.027.062.043.152.047.23.019.539.012.926-.023.133-.012.199.045.199.17 0 .086-.051.139-.152.158-.082.012-.514.047-1.295.105-.469 1.371-.754 2.531-.855 3.48 0 .051-.01.096-.01.135 0 .133.033.199.1.199.105 0 .424-.256.955-.768.062-.063.123-.094.182-.094.051 0 .082.021.094.064.012.047-.01.102-.053.164a9.02 9.02 0 0 1-.932 1.066c-.129.121-.236.182-.322.182-.086 0-.219-.068-.399-.205-.223-.059-.334-.176-.334-.352 0-.027 0-.059.012-.094.145-1.01.428-2.248.85-3.721a19.147 19.147 0 0 1-.563-.082c-.074-.012-.111-.059-.111-.141 0-.09.039-.145.117-.164.078-.019.223-.063.434-.129.129-.043.254-.102.375-.176.418-1.293.746-2.131.984-2.514.137-.219.283-.328.439-.328.149 0 .365.078.65.234z"/><path d="M1030.63 885.65c-.543 2.504-1.053 4.377-1.529 5.619-.922 2.414-1.98 3.621-3.176 3.621-.699 0-1.451-.381-2.256-1.143-.07-.066-.106-.137-.106-.211 0-.117.055-.176.164-.176.055 0 .107.021.158.064.637.543 1.205.814 1.705.814.918 0 1.752-.766 2.502-2.297.59-1.199 1.103-2.809 1.541-4.828.027-.145.072-.365.135-.662-.41.668-.869 1.326-1.377 1.975-.488.625-.873 1.055-1.154 1.289-.156.129-.281.193-.375.193-.074 0-.15-.041-.228-.123a10.69 10.69 0 0 0-.252-.311c-.039-.047-.059-.09-.059-.129v-.012c.01-.047.043-.08.105-.1.188-.254.363-.803.527-1.646.125-.664.211-1.295.258-1.893.01-.141-.01-.211-.053-.211-.012 0-.104.07-.275.211-.274.23-.422.346-.445.346-.055 0-.082-.027-.082-.082 0-.027.012-.055.035-.082.066-.082.215-.287.445-.615.207-.293.346-.439.416-.439.055 0 .129.024.223.07.199-.031.311-.047.334-.047.133 0 .199.102.199.305 0 .34-.098 1-.293 1.995-.195.99-.355 1.63-.48 1.919.391-.309.899-.914 1.524-1.816.609-.879.988-1.541 1.137-1.986.01-.262.064-.393.17-.393.082 0 .234.084.457.252.125.094.16.27.105.527M1003.29 898.41c-.121.906-.414 1.885-.879 2.936-.422.957-.891 1.776-1.406 2.458-.516.682-.93 1.024-1.242 1.028-.387 0-.938-.24-1.652-.721-.055-.039-.082-.084-.082-.135 0-.125.072-.188.217-.188.039 0 .078.01.117.029.293.184.617.285.973.305.488.023 1.113-.693 1.875-2.15.754-1.437 1.191-2.721 1.313-3.85.039-.363-.156-.633-.586-.809a.594.594 0 0 0-.264-.047c-.754.105-1.482.379-2.186.82-.367.875-.738 1.91-1.113 3.105-.41 1.305-.707 2.434-.891 3.387-.039.195-.121.293-.246.293a.427.427 0 0 1-.164-.041c-.203-.105-.336-.191-.399-.258a.512.512 0 0 1-.129-.369c0-.328.053-.721.158-1.178.027-.113.068-.17.123-.17.051 0 .186.09.404.27a72.193 72.193 0 0 1 1.512-4.646c-.871.547-1.543 1.074-2.02 1.582a.612.612 0 0 0-.164.422c0 .145.047.309.141.492.094.184.141.289.141.316 0 .066-.045.1-.135.1-.078 0-.137-.021-.176-.064-.488-.574-.732-.971-.732-1.189 0-.23.156-.486.469-.768.66-.598 1.617-1.258 2.871-1.98.207-.484.357-.727.451-.727.07 0 .215.105.434.316l.644-.293c.18-.078.326-.117.439-.117.188 0 .439.105.756.316.016-.016.041-.023.076-.023.219 0 .553.203 1 .609.242.223.363.463.363.721 0 .063-.01.135-.018.217M1006.19 903.03c-.949 1.215-1.617 1.822-2 1.822-.183 0-.416-.127-.697-.381-.293-.137-.439-.32-.439-.551 0-.043 0-.088.012-.135.07-.535.213-1.127.428-1.775-.145-.074-.217-.145-.217-.211 0-.055.041-.082.123-.082.062 0 .127.018.193.053.348-.781.66-1.336.938-1.664.18-.219.342-.328.486-.328.066 0 .231.057.492.17-.019-.117.014-.186.1-.205h.275c.168 0 .252.029.252.088 0 .012-.01.045-.018.1a.712.712 0 0 0-.018.152c0 .141 0 .314.01.521 0 .207.01.346.01.416 0 .484-.133.822-.398 1.014a1.361 1.361 0 0 1-.82.264c-.16 0-.426-.043-.797-.129-.066.121-.141.357-.223.709-.109.445-.16.84-.152 1.184 0 .203.068.305.193.305a.654.654 0 0 0 .182-.035c.453-.16 1.084-.648 1.893-1.465.051-.051.101-.076.152-.076.074 0 .111.035.111.105a.215.215 0 0 1-.058.135zm-.686-2.59c0-.152-.033-.229-.1-.229-.043 0-.106.031-.188.094-.383.309-.719.85-1.01 1.623.078.012.215.023.41.035.316.012.553-.061.709-.217.117-.117.182-.311.193-.58-.012.199-.018-.043-.018-.727M1009.43 900.01c0 .176-.047.457-.141.844-.035.133-.074.219-.117.258a.737.737 0 0 1-.199.088 1.142 1.142 0 0 1-.27.082c-.059 0-.088-.039-.088-.117 0-.043.01-.1.024-.17.094-.387.13-.655.108-.806-.021-.15.022-.245.132-.284.191-.098.314-.146.369-.146.121 0 .182.084.182.252m-.938 3.363c.012.469-.248.789-.779.961a1.149 1.149 0 0 1-.188.34c-.09.094-.223.148-.398.164a1.623 1.623 0 0 1-.363-.018l-.85-.129c-.094-.016-.15-.072-.17-.17.016-.105.125-.168.328-.188.277-.019.688-.068 1.23-.146a.604.604 0 0 0 .434-.346.717.717 0 0 0 .076-.346c0-.246-.123-.68-.369-1.301-.242-.605-.356-1.01-.34-1.213.031-.488.482-.828 1.354-1.02.086-.019.129.012.129.094 0 .047-.031.084-.094.111-.422.184-.633.41-.633.68 0 .105.019.237.059.396.039.158.156.538.351 1.14.145.434.219.764.223.99M1012.06 898.15c.062.047.094.1.094.158 0 .113-.168.289-.504.527-.223.152-.438.207-.644.164a.756.756 0 0 1-.305-.129.274.274 0 0 1-.062-.073c-.014-.025-.017-.046-.01-.062.012-.016.035-.019.07-.012.359-.312.596-.537.709-.674.09-.102.154-.152.193-.152.07 0 .223.084.457.252zm-.826 2.566c-.094.527-.338 1.404-.732 2.631.113-.102.269-.287.469-.557.027-.035.055-.053.082-.053.062 0 .07.055.024.164-.02.043-.184.311-.492.803a5.912 5.912 0 0 0-.516.996c-.035.09-.1.135-.193.135-.094 0-.221-.045-.381-.135-.101-.055-.152-.096-.152-.123 0-.023.021-.074.064-.152.211-.371.445-.992.703-1.863.246-.844.385-1.471.416-1.881.012-.176-.01-.264-.053-.264-.035 0-.098.043-.188.129l-.363.34c-.129.117-.193.123-.193.018 0-.031.018-.07.053-.117.184-.258.379-.502.586-.732.062-.066.123-.1.182-.1.062 0 .154.043.275.129.18.047.279.076.299.088.09.055.135.156.135.305 0 .07-.01.15-.023.24M1015.97 900.56c-1.199 6.223-2.758 9.332-4.676 9.328-.691 0-1.439-.381-2.244-1.143-.074-.07-.111-.143-.111-.217 0-.113.053-.17.158-.17.055 0 .107.021.158.064.637.543 1.207.814 1.711.814 1.609 0 2.951-2.363 4.03-7.09-.652 1.121-1.221 1.924-1.705 2.408-.195.199-.369.299-.521.299-.141 0-.314-.078-.521-.234-.371-.184-.549-.484-.533-.902.024-.512.221-1.146.592-1.904.363-.738.742-1.295 1.137-1.67.223-.211.424-.316.604-.316.133 0 .279.059.439.176.024.019.18.158.469.416.059.051.088.102.088.152 0 .07-.047.105-.141.105a.474.474 0 0 1-.199-.053.724.724 0 0 0-.346-.094.655.655 0 0 0-.445.176c-.285.25-.584.656-.896 1.219-.34.617-.549 1.18-.627 1.688a2.5 2.5 0 0 0-.029.357c0 .289.078.434.234.434.106 0 .217-.053.334-.158.465-.398.926-.975 1.383-1.729.426-.695.729-1.334.908-1.916.067-.207.1-.404.1-.592 0-.148.035-.223.105-.223.074 0 .219.082.434.246.129.098.168.273.117.527M1020.97 902.62c-.234.355-.539.871-.914 1.547-.07.176-.139.352-.205.527-.055.121-.127.182-.217.182a.88.88 0 0 1-.311-.088c-.152-.063-.229-.125-.229-.188 0-.027.025-.088.076-.182.254-.516.48-1.158.68-1.928.215-.809.307-1.426.275-1.852-.01-.172-.047-.258-.117-.258-.051 0-.127.049-.229.146-.984.961-1.836 2.246-2.555 3.855-.09.199-.195.299-.317.299-.086 0-.229-.049-.428-.146-.078-.035-.119-.068-.123-.1 0-.016.022-.07.064-.164.227-.496.451-1.125.674-1.887.238-.824.373-1.467.404-1.928.01-.141 0-.211-.012-.211 0 0-.059.053-.164.158a12.8 12.8 0 0 1-.439.41.163.163 0 0 1-.117.053c-.055 0-.082-.021-.082-.064 0-.031.019-.066.059-.105.168-.215.389-.482.662-.803.059-.066.119-.1.182-.1.094 0 .176.068.246.205.316.094.465.238.445.434-.043.43-.264 1.205-.662 2.326.262-.504.643-1.067 1.143-1.69s.871-.991 1.113-1.104a.747.747 0 0 1 .258-.082c.051 0 .133.043.246.129.324.113.484.301.481.563 0 .273-.066.713-.199 1.318-.105.5-.203.889-.293 1.166.113-.145.258-.332.434-.563.031-.039.062-.059.094-.059.059 0 .088.037.088.111 0 .023 0 .047-.012.07"/></g><path opacity=".01" fill="#232629" fill-opacity=".604" d="M938 844.36h18v64h-18z"/><path d="M1047.3 795.14l-37.89 65.58-2.598-1.501 37.89-65.58z" opacity=".3" fill="#717171"/><g transform="scale(-1) rotate(-60 -1481.871 1744.176)" fill="#232629"><path d="M1004.18 904.03l2.98 5.209 2.894-5.322h-.062l.034-43.13-5.812.082-.035 43.13z"/><circle transform="rotate(-126.871)" cx="-1288.8" cy="292.23" r="6.499"/></g><path opacity=".01" fill="#232629" fill-opacity=".604" d="M969 847.36h12v85h-12z"/><g fill="#717171"><path d="M1045.93 790.13l-37.89 65.58-2.598-1.501 37.89-65.58z"/><circle r="3.671" cy="-1300.66" cx="232.3" transform="rotate(120.219)"/></g><g fill="#232629" fill-opacity=".004"><circle r="6.499" cy="256.78" cx="-1259.36" transform="rotate(-126.871)"/><circle r="4.062" cy="-1280.66" cx="241.58" transform="rotate(120.219)"/></g></g></svg>