<?xml version="1.0" encoding="UTF-8" standalone="no"?>
<svg
   xmlns:dc="http://purl.org/dc/elements/1.1/"
   xmlns:cc="http://creativecommons.org/ns#"
   xmlns:rdf="http://www.w3.org/1999/02/22-rdf-syntax-ns#"
   xmlns:svg="http://www.w3.org/2000/svg"
   xmlns="http://www.w3.org/2000/svg"
   xmlns:xlink="http://www.w3.org/1999/xlink"
   xmlns:sodipodi="http://sodipodi.sourceforge.net/DTD/sodipodi-0.dtd"
   xmlns:inkscape="http://www.inkscape.org/namespaces/inkscape"
   width="32"
   height="32"
   version="1"
   id="svg16"
   sodipodi:docname="archlinux.svg"
   inkscape:version="0.92.4 5da689c313, 2019-01-14">
  <metadata
     id="metadata22">
    <rdf:RDF>
      <cc:Work
         rdf:about="">
        <dc:format>image/svg+xml</dc:format>
        <dc:type
           rdf:resource="http://purl.org/dc/dcmitype/StillImage" />
        <dc:title />
      </cc:Work>
    </rdf:RDF>
  </metadata>
  <defs
     id="defs20">
    <linearGradient
       inkscape:collect="always"
       id="linearGradient820">
      <stop
         style="stop-color:#6c7482;stop-opacity:1;"
         offset="0"
         id="stop816" />
      <stop
         style="stop-color:#a6c4d2;stop-opacity:1"
         offset="1"
         id="stop818" />
    </linearGradient>
    <linearGradient
       inkscape:collect="always"
       xlink:href="#linearGradient820"
       id="linearGradient822"
       x1="1.9"
       y1="30.1"
       x2="29.880581"
       y2="2.0999999"
       gradientUnits="userSpaceOnUse" />
  </defs>
  <sodipodi:namedview
     pagecolor="#ffffff"
     bordercolor="#666666"
     borderopacity="1"
     objecttolerance="10"
     gridtolerance="10"
     guidetolerance="10"
     inkscape:pageopacity="0"
     inkscape:pageshadow="2"
     inkscape:window-width="567"
     inkscape:window-height="504"
     id="namedview18"
     showgrid="false"
     inkscape:zoom="7.8104265"
     inkscape:cx="16"
     inkscape:cy="16"
     inkscape:window-x="474"
     inkscape:window-y="165"
     inkscape:window-maximized="0"
     inkscape:current-layer="svg16" />
  <path
     id="archlinux"
     d="m 15.899998,2.1 c -1.246375,3.0558 -1.99899,5.0573 -3.386664,8.0222 0.850817,0.9019 1.895108,1.9472 3.591113,3.1334 -1.823372,-0.7504 -3.066073,-1.4984 -3.995562,-2.28 C 10.332931,14.6814 7.546424,19.9545 1.9,30.1 6.337098,27.5384 9.778857,25.9607 12.984445,25.3578 12.846918,24.7659 12.770242,24.1235 12.775554,23.4556 l 0.0044,-0.1378 c 0.07042,-2.8433 1.550143,-5.0329 3.302223,-4.8845 1.752081,0.1485 3.114861,2.579 3.044444,5.4223 -0.01338,0.5347 -0.07246,1.0473 -0.177768,1.5244 3.170079,0.6209 6.575189,2.1937 10.951109,4.72 -0.863228,-1.5893 -1.637531,-3.0178 -2.373336,-4.3822 -1.159006,-0.8983 -2.365177,-2.0677 -4.831108,-3.3334 1.694945,0.4405 2.911835,0.9476 3.857776,1.5156 C 19.072144,9.9715 18.465373,8.1204 15.899926,2.1 Z"
     style="fill:url(#linearGradient822);fill-opacity:1;fill-rule:evenodd;stroke:none;stroke-width:0.02333333;stroke-linecap:round;stroke-linejoin:round;stroke-miterlimit:10;stroke-dasharray:none;stroke-opacity:1"
     inkscape:connector-curvature="0" />
</svg>
