<?xml version="1.0" encoding="UTF-8" standalone="no"?>
<svg
   xmlns:dc="http://purl.org/dc/elements/1.1/"
   xmlns:cc="http://creativecommons.org/ns#"
   xmlns:rdf="http://www.w3.org/1999/02/22-rdf-syntax-ns#"
   xmlns:svg="http://www.w3.org/2000/svg"
   xmlns="http://www.w3.org/2000/svg"
   xmlns:sodipodi="http://sodipodi.sourceforge.net/DTD/sodipodi-0.dtd"
   xmlns:inkscape="http://www.inkscape.org/namespaces/inkscape"
   width="32"
   viewBox="0 0 32 32"
   version="1.1"
   height="32"
   id="svg12"
   sodipodi:docname="go-home-light.svg"
   inkscape:version="0.92.4 5da689c313, 2019-01-14">
  <metadata
     id="metadata18">
    <rdf:RDF>
      <cc:Work
         rdf:about="">
        <dc:format>image/svg+xml</dc:format>
        <dc:type
           rdf:resource="http://purl.org/dc/dcmitype/StillImage" />
        <dc:title />
      </cc:Work>
    </rdf:RDF>
  </metadata>
  <defs
     id="defs16">
    <filter
       inkscape:collect="always"
       style="color-interpolation-filters:sRGB"
       id="filter1008"
       x="-0.0090202429"
       width="1.0180405"
       y="-0.017919571"
       height="1.0358391">
      <feGaussianBlur
         inkscape:collect="always"
         stdDeviation="0.12522465"
         id="feGaussianBlur1010" />
    </filter>
    <filter
       inkscape:collect="always"
       style="color-interpolation-filters:sRGB"
       id="filter1168"
       x="-0.011716222"
       width="1.0234324"
       y="-0.012297866"
       height="1.0245957">
      <feGaussianBlur
         inkscape:collect="always"
         stdDeviation="0.11893566"
         id="feGaussianBlur1170" />
    </filter>
  </defs>
  <sodipodi:namedview
     pagecolor="#ffffff"
     bordercolor="#666666"
     borderopacity="1"
     objecttolerance="10"
     gridtolerance="10"
     guidetolerance="10"
     inkscape:pageopacity="0"
     inkscape:pageshadow="2"
     inkscape:window-width="597"
     inkscape:window-height="504"
     id="namedview14"
     showgrid="false"
     inkscape:zoom="7.375"
     inkscape:cx="16"
     inkscape:cy="16"
     inkscape:window-x="859"
     inkscape:window-y="236"
     inkscape:window-maximized="0"
     inkscape:current-layer="g1480"
     showguides="true"
     inkscape:guide-bbox="true">
    <sodipodi:guide
       position="-18.995377,33.523538"
       orientation="0,1"
       id="guide4566"
       inkscape:locked="false" />
  </sodipodi:namedview>
  <rect
     style="opacity:1;fill:#5e5e5e;fill-opacity:1;fill-rule:evenodd;stroke:none;stroke-width:1.03534329;stroke-linecap:round;stroke-linejoin:bevel;stroke-miterlimit:4;stroke-dasharray:none;stroke-dashoffset:0;stroke-opacity:1"
     id="rect4497-3"
     width="28.203388"
     height="28.203388"
     x="1.8983059"
     y="1.8983059"
     ry="5.575182" />
  <g
     id="g1480">
    <path
       transform="matrix(0.59800954,0,0,0.59800954,30.606269,18.753253)"
       sodipodi:nodetypes="cccssscccscscssscccsssssssss"
       inkscape:connector-curvature="0"
       id="rect4519-6"
       d="m -24.429688,-13.085938 -11.794921,10.3847665 -0.0059,0.0059 c -0.23201,0.228849 -0.376953,0.545309 -0.376953,0.898445 v 10.658203 c 0,0.699989 0.563682,1.2636705 1.263672,1.2636705 h 3.152344 V -1.5197975 c 0.220954,-0.0037 0.979784,-0.0037 1.341797,0.01003 h 5.117187 c 0.371538,0 0.70678,0.148187 0.949219,0.390625 0.242438,0.242438 0.392578,0.577681 0.392578,0.949219 V 10.124998 h 10.882812 c 0.699988,0 1.263671,-0.5636815 1.263671,-1.2636705 v -10.658206 c 0,-0.38151 -0.175755,-0.712062 -0.441406,-0.943359 h 0.02344 z m 3.404297,11.5625005 h 3.076171 c 0.699991,0 1.263672,0.563682 1.263672,1.263672 v 3.076172 c 0,0.69999 -0.563681,1.263671 -1.263672,1.263671 h -3.076171 c -0.69999,0 -1.263671,-0.563681 -1.263671,-1.263671 v -3.076172 c 0,-0.69999 0.563681,-1.263672 1.263671,-1.263672 z"
       style="opacity:0.65100002;fill:#000203;fill-opacity:1;stroke:none;stroke-width:0.10120521;stroke-miterlimit:4;stroke-dasharray:none;filter:url(#filter1168)" />
    <path
       sodipodi:nodetypes="cccssscccscscssscccsssssssss"
       inkscape:connector-curvature="0"
       id="rect4519"
       d="m 15.997083,10.927737 -7.0534758,6.210189 -0.00353,0.0035 C 8.8013348,17.27828 8.7146575,17.467527 8.7146575,17.678705 v 6.373707 c 0,0.4186 0.3370872,0.755688 0.7556879,0.755688 h 1.8851316 v -6.963701 c 0.132133,-0.0022 0.58592,-0.0022 0.802408,0.006 h 3.060126 c 0.222184,0 0.422661,0.08862 0.567642,0.233597 0.14498,0.144981 0.234766,0.345459 0.234766,0.567642 V 24.8081 h 6.508026 c 0.418599,0 0.755687,-0.337088 0.755687,-0.755688 v -6.373707 c 0,-0.228147 -0.105103,-0.42582 -0.263965,-0.564138 h 0.01402 z m 2.035802,6.914486 h 1.83958 c 0.418601,0 0.755688,0.337087 0.755688,0.755688 v 1.83958 c 0,0.418601 -0.337087,0.755688 -0.755688,0.755688 h -1.83958 c -0.418601,0 -0.755688,-0.337087 -0.755688,-0.755688 v -1.83958 c 0,-0.418601 0.337087,-0.755688 0.755688,-0.755688 z"
       style="fill:#b3c4d0;fill-opacity:1;stroke:none;stroke-width:0.06052168;stroke-miterlimit:4;stroke-dasharray:none" />
    <path
       transform="matrix(0.59800954,0,0,0.59800954,30.606269,18.753253)"
       id="rect4523-3"
       d="m -24.462896,-19.339845 c -0.0261,0.0017 -0.05036,0.0151 -0.07617,0.01953 -0.06329,0.0092 -0.123635,0.02302 -0.183594,0.04883 -0.01442,0.0066 -0.02697,0.01588 -0.04102,0.02344 -0.05465,0.02776 -0.111903,0.04937 -0.160156,0.0918 l -15.908203,13.988282 c -0.308264,0.271052 -0.337459,0.738611 -0.06641,1.046874 l 1.142579,1.300782 c 0.271052,0.308265 0.738611,0.337458 1.046875,0.06641 l 14.283203,-12.560547 14.285155,12.560547 c 0.308264,0.271052 0.773871,0.241857 1.044923,-0.06641 l 1.14453,-1.300781 c 0.271053,-0.308263 0.241858,-0.775822 -0.0664,-1.046874 l -5.9375,-5.220704 v -3.957031 c 0,-0.69999 -0.563682,-1.263672 -1.263673,-1.263672 h -0.835938 c -0.699989,0 -1.26367,0.563682 -1.26367,1.263672 v 1 l -6.609375,-5.810547 c -0.04694,-0.04127 -0.101269,-0.06245 -0.154295,-0.08984 -0.01589,-0.0086 -0.03059,-0.018 -0.04687,-0.02539 -0.0596,-0.02552 -0.118777,-0.03972 -0.181641,-0.04883 -0.03881,-0.0067 -0.07589,-0.01325 -0.115234,-0.01367 -0.01254,1.68e-4 -0.0246,-0.0067 -0.03711,-0.0059 z"
       style="opacity:0.647;fill:#000000;fill-opacity:1;stroke:none;stroke-width:0.10000001;stroke-miterlimit:4;stroke-dasharray:none;filter:url(#filter1008)"
       inkscape:connector-curvature="0" />
    <path
       id="rect4523"
       d="m 15.977227,7.1878418 c -0.01561,0.00102 -0.03012,0.00903 -0.04555,0.011679 -0.03785,0.0055 -0.07393,0.013766 -0.109791,0.029201 -0.0086,0.00395 -0.01613,0.0095 -0.02453,0.014017 -0.03268,0.016601 -0.06692,0.029524 -0.09577,0.054897 L 6.1883231,15.662762 c -0.1843448,0.162092 -0.2018037,0.441696 -0.039714,0.626041 l 0.6832732,0.77788 c 0.1620916,0.184345 0.4416964,0.201803 0.6260412,0.03971 l 8.5414915,-7.5113264 8.54266,7.5113264 c 0.184345,0.162092 0.462781,0.144633 0.624873,-0.03971 l 0.684441,-0.77788 c 0.162092,-0.184345 0.144633,-0.463949 -0.03971,-0.626041 l -3.550681,-3.12203 v -2.366343 c 0,-0.4186004 -0.337088,-0.7556876 -0.755688,-0.7556876 h -0.499899 c -0.418601,0 -0.755687,0.3370872 -0.755687,0.7556876 v 0.59801 l -3.95247,-3.4747627 c -0.02807,-0.02468 -0.06056,-0.037346 -0.09227,-0.053725 -0.0095,-0.00514 -0.01829,-0.010764 -0.02803,-0.015184 -0.03563,-0.015261 -0.07103,-0.023753 -0.108623,-0.029201 -0.02321,-0.00401 -0.04538,-0.00792 -0.06891,-0.00817 -0.0075,1.005e-4 -0.01471,-0.00401 -0.02219,-0.00353 z"
       style="fill:#72c1df;fill-opacity:1;stroke:none;stroke-width:0.05980096;stroke-miterlimit:4;stroke-dasharray:none"
       inkscape:connector-curvature="0" />
    <path
       inkscape:connector-curvature="0"
       id="path4517-7"
       d="m 11.355477,17.844399 3.126193,1.033389 v 5.016673 l -3.12619,0.917753 z"
       style="fill:#bacdd5;fill-opacity:0.61960784;stroke:none;stroke-width:0.94198024px;stroke-linecap:butt;stroke-linejoin:miter;stroke-opacity:1" />
    <circle
       r="0.29566821"
       cy="21.61138"
       cx="13.75318"
       id="path4587"
       style="fill:#c2dbe6;fill-opacity:1;stroke:none;stroke-width:0.05980096;stroke-miterlimit:4;stroke-dasharray:none" />
  </g>
</svg>
