<svg xmlns="http://www.w3.org/2000/svg" width="32" height="32"><rect width="28.203" height="28.203" x="1.898" y="1.898" ry="5.575" fill="#5e5e5e" fill-rule="evenodd"/><path d="M16.097 11.028l-7.053 6.21-.004.003a.751.751 0 0 0-.225.538v6.373c0 .419.337.756.756.756h1.885v-6.964c.132-.002.586-.002.802.006h3.06a.799.799 0 0 1 .803.802v6.156h6.508a.754.754 0 0 0 .755-.756V17.78a.745.745 0 0 0-.263-.565h.014zm2.036 6.914h1.84c.418 0 .755.337.755.756v1.84a.754.754 0 0 1-.755.755h-1.84a.754.754 0 0 1-.755-.756v-1.84c0-.418.337-.755.755-.755z" opacity=".651" fill="#2d3539"/><path d="M15.997 10.928l-7.053 6.21-.004.003a.751.751 0 0 0-.225.538v6.373c0 .419.337.756.755.756h1.885v-6.964c.133-.002.586-.002.803.006h3.06a.799.799 0 0 1 .802.802v6.156h6.508a.754.754 0 0 0 .756-.756V17.68a.745.745 0 0 0-.264-.564h.014zm2.036 6.914h1.84c.418 0 .755.337.755.756v1.84a.754.754 0 0 1-.756.755h-1.84a.754.754 0 0 1-.755-.756v-1.84c0-.418.337-.755.756-.755z" fill="#b3c4d0"/><path d="M16.078 7.288c-.016 0-.03.009-.046.011a.427.427 0 0 0-.11.03c-.008.003-.016.009-.024.013-.033.017-.067.03-.096.055l-9.513 8.365a.443.443 0 0 0-.04.626l.683.778a.443.443 0 0 0 .626.04L16.1 9.695l8.542 7.511a.442.442 0 0 0 .625-.04l.685-.778a.443.443 0 0 0-.04-.626l-3.55-3.122v-2.366a.754.754 0 0 0-.756-.756h-.5a.754.754 0 0 0-.756.756v.598l-3.952-3.475c-.028-.024-.061-.037-.093-.053l-.028-.016a.424.424 0 0 0-.108-.029c-.024-.004-.046-.008-.07-.008-.007 0-.014-.004-.021-.004z" opacity=".647" fill="#2d3539"/><path d="M15.977 7.188c-.015 0-.03.009-.045.012a.427.427 0 0 0-.11.029l-.025.014c-.032.016-.067.03-.095.055l-9.514 8.365a.443.443 0 0 0-.04.626l.684.778a.443.443 0 0 0 .626.04l8.541-7.512 8.543 7.511a.442.442 0 0 0 .625-.04l.684-.777a.443.443 0 0 0-.04-.626l-3.55-3.122v-2.367a.754.754 0 0 0-.756-.755h-.5a.754.754 0 0 0-.755.755v.598l-3.953-3.474c-.028-.025-.06-.038-.092-.054l-.028-.015a.424.424 0 0 0-.109-.03c-.023-.003-.045-.007-.069-.008-.007 0-.014-.004-.022-.003z" fill="#72c1df"/><path d="M11.455 17.944l3.126 1.034v5.016l-3.126.918z" fill="#2d3539" opacity=".651"/><path d="M11.355 17.844l3.127 1.034v5.016l-3.127.918z" fill="#7d8991"/><circle r=".296" cy="21.653" cx="13.776" fill="#2d3539"/><circle r=".296" cy="21.611" cx="13.753" fill="#c2dbe6"/></svg>