<svg xmlns="http://www.w3.org/2000/svg" xmlns:xlink="http://www.w3.org/1999/xlink" width="32" height="32" version="1"><defs><linearGradient id="c"><stop offset="0" stop-color="#6c7482"/><stop offset="1" stop-color="#6c7482" stop-opacity="0"/></linearGradient><linearGradient id="b"><stop offset="0" stop-color="#6c7482"/><stop offset="1" stop-color="#6c7482" stop-opacity="0"/></linearGradient><linearGradient id="a"><stop offset="0" stop-color="#6c7482"/><stop offset="1" stop-color="#a6c4d2"/></linearGradient><linearGradient xlink:href="#a" id="g" x1="16.428" y1="29.637" x2="16.291" y2="2.336" gradientUnits="userSpaceOnUse"/><linearGradient xlink:href="#b" id="f" gradientUnits="userSpaceOnUse" x1="15.813" y1="21.171" x2="22.032" y2="8.649" gradientTransform="matrix(.87619 0 0 .87619 2.04 1.903)"/><linearGradient xlink:href="#a" id="e" x1="9.883" y1="20.493" x2="22.884" y2="7.796" gradientUnits="userSpaceOnUse" gradientTransform="translate(.492 .66) scale(.9623)"/><linearGradient xlink:href="#a" id="d" x1="15.882" y1="24.358" x2="21.291" y2="9.554" gradientUnits="userSpaceOnUse"/><linearGradient xlink:href="#c" id="h" x1="2.88" y1="29.346" x2="29.639" y2="2.817" gradientUnits="userSpaceOnUse"/></defs><g color="#000" font-weight="400" font-family="sans-serif"><path d="M22.513 8.161l-.354.032-.348.032c-1.7.153-2.751.415-6.475.704-4.05.315-7.337 3.575-7.165 7.786.17 4.174 3.39 7.615 7.568 7.615 4.176 0 7.568-3.432 7.568-7.64-.005-2.494-.865-5.218-.808-7.824zm-1.222 1.393c.079 2.614.752 5.142.756 7.138 0 3.533-2.82 6.376-6.308 6.376s-6.164-2.841-6.308-6.404c-.144-3.535 2.56-6.212 6.002-6.479 3.337-.259 4.492-.479 5.858-.63z" style="line-height:normal;font-variant-ligatures:normal;font-variant-position:normal;font-variant-caps:normal;font-variant-numeric:normal;font-variant-alternates:normal;font-feature-settings:normal;text-indent:0;text-align:start;text-decoration-line:none;text-decoration-style:solid;text-decoration-color:#000;text-transform:none;text-orientation:mixed;white-space:normal;shape-padding:0;isolation:auto;mix-blend-mode:normal;solid-color:#000;solid-opacity:1" overflow="visible" fill="url(#d)" stroke="#899caa" stroke-width=".136"/><path d="M21.345 9.482l-.646.081c-.563.827-.969 1.229-2.27 4.645-.954 2.503-2.398 3.691-3.852 4.306-1.453.615-3.646.972-4.612.95l.401.688.188.308v0c.995.021 2.76-.212 4.454-.928 1.695-.718 3.405-2.181 4.453-4.93 1.293-3.395 1.31-3.668 1.868-4.487v-.372z" style="line-height:normal;font-variant-ligatures:normal;font-variant-position:normal;font-variant-caps:normal;font-variant-numeric:normal;font-variant-alternates:normal;font-feature-settings:normal;text-indent:0;text-align:start;text-decoration-line:none;text-decoration-style:solid;text-decoration-color:#000;text-transform:none;text-orientation:mixed;white-space:normal;shape-padding:0;isolation:auto;mix-blend-mode:normal;solid-color:#000;solid-opacity:1" overflow="visible" fill="url(#e)" stroke="url(#f)" stroke-width=".096" stroke-linejoin="bevel" paint-order="markers fill stroke"/><path d="M16.203 2.754c-7.35 0-13.321 5.975-13.321 13.33s5.97 13.33 13.321 13.33c7.35 0 13.323-5.975 13.323-13.33s-5.972-13.33-13.323-13.33zm0 1.26c6.669 0 12.061 5.396 12.061 12.07s-5.392 12.07-12.061 12.07-12.061-5.396-12.061-12.07 5.392-12.07 12.061-12.07z" style="line-height:normal;font-variant-ligatures:normal;font-variant-position:normal;font-variant-caps:normal;font-variant-numeric:normal;font-variant-alternates:normal;font-feature-settings:normal;text-indent:0;text-align:start;text-decoration-line:none;text-decoration-style:solid;text-decoration-color:#000;text-transform:none;text-orientation:mixed;white-space:normal;shape-padding:0;isolation:auto;mix-blend-mode:normal;solid-color:#000;solid-opacity:1" overflow="visible" fill="url(#g)" fill-rule="evenodd" stroke="url(#h)" stroke-width=".136"/></g></svg>