<svg xmlns="http://www.w3.org/2000/svg" xmlns:xlink="http://www.w3.org/1999/xlink" width="32" height="32"><defs><linearGradient id="a"><stop offset="0" stop-color="#6c7482"/><stop offset="1" stop-color="#a6c4d2"/></linearGradient><linearGradient xlink:href="#a" id="b" x1="4.255" y1="28.083" x2="27.823" y2="4.575" gradientUnits="userSpaceOnUse"/></defs><path d="M20.349 4.595l-2.966 2.966 4.494 4.478-4.466 4.483 2.966 2.965 7.432-7.46-2.966-2.965-.006.005zm-10.206.13A1.474 1.474 0 0 0 8.669 6.2a1.474 1.474 0 0 0 1.474 1.474A1.474 1.474 0 0 0 11.617 6.2a1.474 1.474 0 0 0-1.474-1.474zm-3.671 8.706a2.28 2.28 0 0 0-2.28 2.28 2.28 2.28 0 0 0 2.28 2.281 2.28 2.28 0 0 0 2.28-2.28 2.28 2.28 0 0 0-2.28-2.281zm6.62 8.789a2.976 2.976 0 0 0-2.977 2.976 2.976 2.976 0 0 0 2.976 2.976 2.976 2.976 0 0 0 2.976-2.976 2.976 2.976 0 0 0-2.976-2.976z" fill="url(#b)"/></svg>