<svg xmlns="http://www.w3.org/2000/svg" xmlns:xlink="http://www.w3.org/1999/xlink" width="32" height="32" version="1"><defs><linearGradient id="a"><stop offset="0" stop-color="#6c7482"/><stop offset="1" stop-color="#a6c4d2"/></linearGradient><linearGradient xlink:href="#a" id="b" x1="1.592" y1="29.748" x2="30.446" y2="2.214" gradientUnits="userSpaceOnUse"/></defs><path d="M11.139 27.448v-2.333h1.941c3.059 0 5.507-1.12 7.005-3.203 1.04-1.448 1.182-3.802.41-6.82-.537-2.094-.738-5.638-.334-5.887.115-.07.337.48.493 1.224.156.744.908 2.632 1.67 4.196 1.303 2.673 1.386 2.96 1.382 4.788-.008 2.205-.348 3.039-1.962 4.79-1.554 1.685-3.706 2.548-6.585 2.64l-2.33.074-.619 1.432c-.34.788-.72 1.432-.845 1.432-.124 0-.226-1.05-.226-2.333zm-3.392-8.017c-1.076-.21-2.488-1.034-3.186-1.859-1.35-1.594-1.911-4.56-.847-4.47.391.034.334-.112-.31-.777-1.195-1.238-1.844-2.898-1.85-4.739-.007-1.988.23-3.215.654-3.378.27-.103 3.56 1.949 4.006 2.497.071.089 1.296.965 2.722 1.95 3.35 2.313 6.35 4.524 6.35 4.68 0 .153-3.438-1.608-5.832-2.988-3.017-1.74-4.511-2.45-4.718-2.244-.412.412-.126 2.746.451 3.68 1.172 1.895 1.683 2.148 7.637 3.778.57.156 1.2.331 1.398.39.198.056.287.179.196.27-.091.09-.779.033-1.528-.128-1.312-.282-3.489-.636-5.864-.952-1.131-.15-1.131-.15-.951.57.393 1.575 2.598 3.403 4.174 3.46.484.02.483.026-.02.242-.609.261-1.213.266-2.483.018zm6.106-9.786c-1.016-1.551-.803-4.25.448-5.674 1.085-1.236 2.144-1.737 3.7-1.752 1.51-.014 2.7.53 3.867 1.769.79.837.881.863 4.564 1.289 2.068.238 3.87.542 4.005.675.152.149-1.614.241-4.618.241-4.79 0-4.878-.012-5.714-.648-1.19-.907-3.012-.901-4.211.014-1.268.967-1.736 2.028-1.558 3.532.082.688.109 1.25.06 1.25-.048 0-.292-.313-.543-.695z" fill="url(#b)"/></svg>