<svg xmlns="http://www.w3.org/2000/svg" xmlns:xlink="http://www.w3.org/1999/xlink" viewBox="0 0 256 256" id="svg2" version="1.1"><defs id="defs4"><linearGradient gradientTransform="matrix(1 0 0 .99967 0 .176)" gradientUnits="userSpaceOnUse" y2="499.784" x2="414.571" y1="541.798" x1="414.571" id="linearGradient4178-2" xlink:href="#linearGradient4172-0"/><linearGradient id="linearGradient4172-0"><stop offset="0" id="stop4174-4-7" stop-color="#f89406" stop-opacity="1"/><stop offset="1" id="stop4176-5" stop-color="#faa938" stop-opacity="1"/></linearGradient><linearGradient xlink:href="#linearGradient4172-5" id="linearGradient4765" gradientUnits="userSpaceOnUse" gradientTransform="matrix(1 0 0 .99967 0 .176)" x1="414.571" y1="541.798" x2="414.571" y2="499.784"/><linearGradient id="linearGradient4172-5"><stop id="stop4174-6" offset="0" stop-color="#3daee9" stop-opacity="1"/><stop id="stop4176-6" offset="1" stop-color="#6cc1ef" stop-opacity="1"/></linearGradient><linearGradient xlink:href="#linearGradient4172-5" id="linearGradient4320" gradientUnits="userSpaceOnUse" gradientTransform="matrix(1 0 0 .99967 0 .176)" x1="414.571" y1="541.798" x2="414.571" y2="499.784"/><linearGradient xlink:href="#linearGradient4172-5" id="linearGradient4322" gradientUnits="userSpaceOnUse" gradientTransform="matrix(1 0 0 .99967 0 .176)" x1="414.571" y1="541.798" x2="414.571" y2="499.784"/><linearGradient xlink:href="#linearGradient4172-5" id="linearGradient4324" gradientUnits="userSpaceOnUse" gradientTransform="matrix(1 0 0 .99967 0 .176)" x1="414.571" y1="541.798" x2="414.571" y2="499.784"/><linearGradient xlink:href="#linearGradient4172-5" id="linearGradient4326" gradientUnits="userSpaceOnUse" gradientTransform="matrix(1 0 0 .99967 0 .176)" x1="414.571" y1="541.798" x2="414.571" y2="499.784"/><linearGradient xlink:href="#linearGradient4172-5" id="linearGradient4328" gradientUnits="userSpaceOnUse" gradientTransform="matrix(1 0 0 .99967 0 .176)" x1="414.571" y1="541.798" x2="414.571" y2="499.784"/><linearGradient xlink:href="#linearGradient4172-5" id="linearGradient4330" gradientUnits="userSpaceOnUse" gradientTransform="matrix(1 0 0 .99967 0 .176)" x1="414.571" y1="541.798" x2="414.571" y2="499.784"/><style id="current-color-scheme" type="text/css"></style></defs><path d="M16 10h224c3.324 0 6 2.676 6 6v224c0 3.324-2.676 6-6 6H16c-3.324 0-6-2.676-6-6V16c0-3.324 2.676-6 6-6z" id="rect4240" fill="currentColor" fill-opacity=".5" stroke="none" color="#31363b"/><path d="M16 12h224c2.216 0 4 1.784 4 4v224c0 2.216-1.784 4-4 4H16c-2.216 0-4-1.784-4-4V16c0-2.216 1.784-4 4-4z" id="rect4238" fill="currentColor" fill-opacity="1" stroke="none" color="#eff0f1"/><path d="M147.758 20.639l-1.303.095v9.18c0 .503.06.92.176 1.254.116.328.296.58.539.754.243.174.52.296.826.365a5.93 5.93 0 0 0 1.158.096h.627l.07-.906-.357-.024a43.839 43.839 0 0 1-.531-.039 8.05 8.05 0 0 1-.412-.064 1.22 1.22 0 0 1-.326-.11 1.957 1.957 0 0 1-.213-.176.576.576 0 0 1-.16-.261 4.067 4.067 0 0 1-.07-.366 4.46 4.46 0 0 1-.024-.5V20.64zm10.75 0l-1.317.095v2.61l.063 1.912a3.321 3.321 0 0 0-.404-.594 2.557 2.557 0 0 0-.508-.469 2.107 2.107 0 0 0-.72-.334 3.747 3.747 0 0 0-.954-.109c-1.11 0-1.992.396-2.643 1.19-.645.793-.966 1.831-.966 3.117 0 1.354.31 2.431.935 3.23.63.794 1.523 1.19 2.682 1.19 1.2 0 2.074-.548 2.619-1.643l.12 1.484h1.093v-11.68zm-76.02.095v11.584h1.395v-5.404h6.031v5.404h1.397V20.734h-1.397v5.164h-6.031v-5.164h-1.395zm46.37 0v11.584h1.42V27.01h4.697v-1.016h-4.698v-4.19h5.047l.078-1.07h-6.545zM97.23 23.75c-1.232 0-2.2.401-2.904 1.205-.698.799-1.049 1.857-1.049 3.174 0 1.285.356 2.333 1.065 3.142.709.805 1.672 1.206 2.888 1.206 1.19 0 2.147-.404 2.872-1.213.724-.815 1.087-1.86 1.087-3.135 0-1.317-.348-2.375-1.046-3.174-.699-.804-1.67-1.205-2.913-1.205zm9.465 0c-1.073 0-1.935.47-2.586 1.412l-.15-1.238h-1.064v8.394h1.318v-5.117c.111-.735.353-1.325.728-1.77.381-.449.894-.675 1.54-.675.587 0 .99.221 1.207.66.216.434.326 1.163.326 2.19v4.712h1.316V28.01c.016-.73.046-1.166.088-1.309.143-.63.412-1.112.809-1.445.396-.333.85-.5 1.357-.5.227 0 .424.035.594.103a.866.866 0 0 1 .414.303c.106.138.19.277.254.42.063.138.108.32.134.547.027.227.042.421.047.58.011.153.016.357.016.611v4.998h1.318v-5.412c0-2.105-.858-3.156-2.572-3.156-1.217 0-2.138.568-2.768 1.705-.195-.534-.474-.952-.833-1.254-.36-.301-.858-.451-1.493-.451zm13.164 0c-1.11 0-2.026.399-2.746 1.197-.72.799-1.078 1.87-1.078 3.213 0 1.328.366 2.38 1.102 3.158.735.773 1.693 1.159 2.873 1.159 1.058 0 2.001-.247 2.832-.739l-.278-.927a8.06 8.06 0 0 1-1.205.5c-.36.11-.76.166-1.199.166-.81 0-1.464-.257-1.967-.77-.502-.518-.776-1.31-.818-2.379h5.674l.047-.668c0-1.227-.277-2.183-.832-2.87-.55-.694-1.352-1.04-2.405-1.04zm20.756 0c-1.232 0-2.2.401-2.904 1.205-.698.799-1.047 1.857-1.047 3.174 0 1.285.356 2.333 1.065 3.142.708.805 1.67 1.206 2.886 1.206 1.19 0 2.149-.404 2.873-1.213.725-.815 1.088-1.86 1.088-3.135 0-1.317-.35-2.375-1.049-3.174-.698-.804-1.669-1.205-2.912-1.205zm23.424 0c-1.11 0-2.027.399-2.746 1.197-.72.799-1.078 1.87-1.078 3.213 0 1.328.366 2.38 1.101 3.158.736.773 1.694 1.159 2.873 1.159 1.058 0 2.002-.247 2.832-.739l-.277-.927a8.06 8.06 0 0 1-1.205.5c-.36.11-.76.166-1.2.166-.808 0-1.463-.257-1.966-.77-.502-.518-.776-1.31-.818-2.379h5.674l.046-.668c0-1.227-.276-2.183-.832-2.87-.55-.694-1.351-1.04-2.404-1.04zm8.887.086c-.508 0-.993.144-1.453.43-.455.28-.841.72-1.159 1.324l-.142-1.666h-1.055v8.394h1.317v-4.752c0-.745.233-1.378.699-1.896.47-.518 1.066-.777 1.785-.777.148 0 .327.02.539.062l.057-1.078a3.551 3.551 0 0 0-.588-.041zm-75.696.92c.863 0 1.513.31 1.952.93.439.613.658 1.432.658 2.459 0 .655-.09 1.23-.27 1.722-.18.487-.47.878-.873 1.174-.396.291-.885.436-1.467.436-.846 0-1.493-.307-1.937-.92-.444-.614-.666-1.42-.666-2.42 0-1.021.222-1.838.666-2.451.444-.62 1.091-.93 1.937-.93zm22.66 0c1.334 0 2.033.906 2.096 2.715h-4.57c.074-.836.333-1.498.777-1.985.45-.486 1.015-.73 1.698-.73zm20.725 0c.862 0 1.514.31 1.953.93.44.613.659 1.432.659 2.459 0 .655-.09 1.23-.27 1.722-.18.487-.471.878-.873 1.174-.397.291-.887.436-1.469.436-.846 0-1.491-.307-1.935-.92-.445-.614-.666-1.42-.666-2.42 0-1.021.221-1.838.666-2.451.444-.62 1.089-.93 1.935-.93zm14.244 0c.783 0 1.373.291 1.77.873.402.582.601 1.443.601 2.58-.005 1.042-.197 1.846-.578 2.412-.38.566-1.003.848-1.865.848-.82 0-1.425-.302-1.816-.905-.386-.603-.58-1.43-.58-2.482 0-1.058.206-1.877.619-2.453.412-.582 1.03-.873 1.85-.873zm9.211 0c1.333 0 2.033.906 2.096 2.715h-4.57c.074-.836.333-1.498.777-1.985.45-.486 1.015-.73 1.697-.73z" id="path4427" fill="currentColor" fill-opacity="1" stroke="none" color="#4d4d4d"/><g transform="matrix(.76923 0 0 .76923 -273.938 -322.766)" id="layer1-5" stroke="none"><path id="rect4180" d="M388.571 489.798v27c0 .554.446 1 1 1h54c.554 0 1-.446 1-1v-21.99l-.002-.01h.002v-1h-28l-4-4h-24z" fill="#147eb8" fill-opacity="1"/><path id="rect4113-0" d="M410.571 499.798l-4 4h-19v1h.002l-.002.012v36.988h58v-42z" fill="url(#linearGradient4320)" fill-opacity="1"/><path id="path4224" d="M387.571 503.798v1h20l3-5-4 4z" fill="#fff" fill-opacity=".235" fill-rule="evenodd" stroke-width="1" stroke-linecap="butt" stroke-linejoin="miter" stroke-opacity="1"/><path id="path4228-6" d="M388.571 502.798v1h18l4-4-6 3z" fill="#000" fill-opacity=".235" fill-rule="evenodd" stroke-width="1" stroke-linecap="butt" stroke-linejoin="miter" stroke-opacity="1"/><path id="path4151-2-9" d="M387.571 540.798v1h58v-1h-58z" fill="#000" fill-opacity=".235"/><path id="path4196" transform="translate(384.571 483.798)" d="M28 6l3 5h29v-1H32z" fill="#fff" fill-opacity=".235" fill-rule="evenodd" stroke-width="1" stroke-linecap="butt" stroke-linejoin="miter" stroke-opacity="1"/></g><g transform="matrix(.76923 0 0 .76923 -192.438 -322.766)" id="layer1-7" stroke="none"><g id="layer1-31"><path d="M388.571 489.798v27c0 .554.446 1 1 1h54c.554 0 1-.446 1-1v-21.99l-.002-.01h.002v-1h-28l-4-4h-24z" id="rect4180-54" fill="#147eb8" fill-opacity="1"/><path d="M410.571 499.798l-4 4h-19v1h.002l-.002.012v36.988h58v-42z" id="rect4113" fill="url(#linearGradient4322)" fill-opacity="1"/><path d="M387.571 503.798v1h20l3-5-4 4z" id="path4224-2" fill="#fff" fill-opacity=".235" fill-rule="evenodd" stroke-width="1" stroke-linecap="butt" stroke-linejoin="miter" stroke-opacity="1"/><path d="M388.571 502.798v1h18l4-4-6 3z" id="path4228-3-9" fill="#000" fill-opacity=".235" fill-rule="evenodd" stroke-width="1" stroke-linecap="butt" stroke-linejoin="miter" stroke-opacity="1"/><path d="M387.571 540.798v1h58v-1h-58z" id="path4151-2" fill="#000" fill-opacity=".235"/><path d="M28 6l3 5h29v-1H32z" transform="translate(384.571 483.798)" id="path4196-6" fill="#fff" fill-opacity=".235" fill-rule="evenodd" stroke-width="1" stroke-linecap="butt" stroke-linejoin="miter" stroke-opacity="1"/></g><path id="path4126-0" transform="translate(384.571 483.798)" d="M23 27v20h12l6-6V27H23zm1 1h16v13h-5v5H24V28z" fill="#1272a5" fill-opacity="1" stroke-width="1" stroke-linecap="butt" stroke-linejoin="miter" stroke-opacity="1"/></g><g transform="matrix(.76923 0 0 .76923 -110.938 -322.766)" id="layer1-96" stroke="none"><g id="layer1-82"><path d="M388.571 489.798v27c0 .554.446 1 1 1h54c.554 0 1-.446 1-1v-21.99l-.002-.01h.002v-1h-28l-4-4h-24z" id="rect4180-2" fill="#147eb8" fill-opacity="1"/><path d="M410.571 499.798l-4 4h-19v1h.002l-.002.012v36.988h58v-42z" id="rect4113-1" fill="url(#linearGradient4324)" fill-opacity="1"/><path d="M387.571 503.798v1h20l3-5-4 4z" id="path4224-3" fill="#fff" fill-opacity=".235" fill-rule="evenodd" stroke-width="1" stroke-linecap="butt" stroke-linejoin="miter" stroke-opacity="1"/><path d="M388.571 502.798v1h18l4-4-6 3z" id="path4228-2" fill="#000" fill-opacity=".235" fill-rule="evenodd" stroke-width="1" stroke-linecap="butt" stroke-linejoin="miter" stroke-opacity="1"/><path d="M387.571 540.798v1h58v-1h-58z" id="path4151-2-4" fill="#000" fill-opacity=".235"/><path d="M28 6l3 5h29v-1H32z" transform="translate(384.571 483.798)" id="path4196-9" fill="#fff" fill-opacity=".235" fill-rule="evenodd" stroke-width="1" stroke-linecap="butt" stroke-linejoin="miter" stroke-opacity="1"/></g><path id="rect4282-7" transform="translate(384.571 483.798)" d="M29 27v7h1v-6h4v6h1v-7h-6zm-3.293 7.3l-.707.708 4.293 4.293.008-.008L32.008 42l2.699-2.7L39 35.009l-.707-.707L34 38.594l-2 2-2-2-4.293-4.293zM22 44v3h20v-3h-1v2H23v-2h-1z" fill="#1272a5" fill-opacity="1"/></g><g transform="matrix(.76923 0 0 .76923 -273.938 -257.766)" id="layer1-0" stroke="none"><g id="layer1-7-5"><path d="M388.571 489.798v27c0 .554.446 1 1 1h54c.554 0 1-.446 1-1v-21.99l-.002-.01h.002v-1h-28l-4-4h-24z" id="rect4180-4" fill="#147eb8" fill-opacity="1"/><path d="M410.571 499.798l-4 4h-19v1h.002l-.002.012v36.988h58v-42z" id="rect4113-6" fill="url(#linearGradient4326)" fill-opacity="1"/><path d="M387.571 503.798v1h20l3-5-4 4z" id="path4224-0" fill="#fff" fill-opacity=".235" fill-rule="evenodd" stroke-width="1" stroke-linecap="butt" stroke-linejoin="miter" stroke-opacity="1"/><path d="M388.571 502.798v1h18l4-4-6 3z" id="path4228-0" fill="#000" fill-opacity=".235" fill-rule="evenodd" stroke-width="1" stroke-linecap="butt" stroke-linejoin="miter" stroke-opacity="1"/><path d="M387.571 540.798v1h58v-1h-58z" id="path4151-2-3" fill="#000" fill-opacity=".235"/><path d="M28 6l3 5h29v-1H32z" transform="translate(384.571 483.798)" id="path4196-5" fill="#fff" fill-opacity=".235" fill-rule="evenodd" stroke-width="1" stroke-linecap="butt" stroke-linejoin="miter" stroke-opacity="1"/></g><path id="rect4385-8" transform="translate(384.571 483.798)" d="M22 27v20h20V27H22zm1 1h18v18H23V28zm0 17h4l3-3-2-2-5 5zm18 0l-6-6-6 6h12zM26.5 29a2.495 2.495 0 0 0-2.5 2.5c0 1.385 1.115 2.5 2.5 2.5s2.5-1.115 2.5-2.5-1.115-2.5-2.5-2.5z" fill="#1272a5" fill-opacity="1"/></g><g transform="matrix(.76923 0 0 .76923 -192.438 -257.766)" id="layer1-04" stroke="none"><g id="layer1-4"><path d="M388.571 489.798v27c0 .554.446 1 1 1h54c.554 0 1-.446 1-1v-21.99l-.002-.01h.002v-1h-28l-4-4h-24z" id="rect4180-2-2" fill="#147eb8" fill-opacity="1"/><path d="M410.571 499.798l-4 4h-19v1h.002l-.002.012v36.988h58v-42z" id="rect4113-7" fill="url(#linearGradient4328)" fill-opacity="1"/><path d="M387.571 503.798v1h20l3-5-4 4z" id="path4224-9" fill="#fff" fill-opacity=".235" fill-rule="evenodd" stroke-width="1" stroke-linecap="butt" stroke-linejoin="miter" stroke-opacity="1"/><path d="M388.571 502.798v1h18l4-4-6 3z" id="path4228-8" fill="#000" fill-opacity=".235" fill-rule="evenodd" stroke-width="1" stroke-linecap="butt" stroke-linejoin="miter" stroke-opacity="1"/><path d="M387.571 540.798v1h58v-1h-58z" id="path4151-2-3-6" fill="#000" fill-opacity=".235"/><path d="M28 6l3 5h29v-1H32z" transform="translate(384.571 483.798)" id="path4196-0" fill="#fff" fill-opacity=".235" fill-rule="evenodd" stroke-width="1" stroke-linecap="butt" stroke-linejoin="miter" stroke-opacity="1"/></g><path transform="translate(384.571 483.798)" id="rect4128-4" d="M27 27v14.775A2.993 2.993 0 0 0 22 44c0 1.662 1.338 3 3 3s3-1.338 3-3V32h13v6.775A2.993 2.993 0 0 0 36 41c0 1.662 1.338 3 3 3s3-1.338 3-3V27H27zm1 2h13v2H28v-2z" fill="#1272a5" fill-opacity="1"/></g><g transform="matrix(.76923 0 0 .76923 -110.938 -257.766)" id="layer1-09" stroke="none"><g id="layer1-5-4"><path d="M388.571 489.798v27c0 .554.446 1 1 1h54c.554 0 1-.446 1-1v-21.99l-.002-.01h.002v-1h-28l-4-4h-24z" id="rect4180-0" fill="#147eb8" fill-opacity="1"/><path d="M410.571 499.798l-4 4h-19v1h.002l-.002.012v36.988h58v-42z" id="rect4113-6-8" fill="url(#linearGradient4330)" fill-opacity="1"/><path d="M387.571 503.798v1h20l3-5-4 4z" id="path4224-7" fill="#fff" fill-opacity=".235" fill-rule="evenodd" stroke-width="1" stroke-linecap="butt" stroke-linejoin="miter" stroke-opacity="1"/><path d="M388.571 502.798v1h18l4-4-6 3z" id="path4228" fill="#000" fill-opacity=".235" fill-rule="evenodd" stroke-width="1" stroke-linecap="butt" stroke-linejoin="miter" stroke-opacity="1"/><path d="M387.571 540.798v1h58v-1h-58z" id="path4151-2-6" fill="#000" fill-opacity=".235"/><path d="M28 6l3 5h29v-1H32z" transform="translate(384.571 483.798)" id="path4196-9-3" fill="#fff" fill-opacity=".235" fill-rule="evenodd" stroke-width="1" stroke-linecap="butt" stroke-linejoin="miter" stroke-opacity="1"/></g><path id="rect4148-3" transform="translate(384.571 483.798)" d="M22 27v20h20V27H22zm1 1h2v2h-2v-2zm16 0h2v2h-2v-2zm-13 1h12v7H26v-7zm-3 3h2v2h-2v-2zm16 0h2v2h-2v-2zm-16 4h2v2h-2v-2zm16 0h2v2h-2v-2zm-13 2h12v7H26v-7zm-3 2h2v2h-2v-2zm16 0h2v2h-2v-2zm-16 4h2v2h-2v-2zm16 0h2v2h-2v-2z" fill="#1272a5" fill-opacity="1"/></g><g transform="matrix(.76923 0 0 .76923 -192.438 -192.766)" id="layer1-8" stroke="none"><g id="layer1-2"><path d="M388.571 489.798v27c0 .554.446 1 1 1h54c.554 0 1-.446 1-1v-21.99l-.002-.01h.002v-1h-28l-4-4h-24z" id="rect4180-24" fill="#147eb8" fill-opacity="1"/><path d="M410.571 499.798l-4 4h-19v1h.002l-.002.012v36.988h58v-42z" id="rect4113-9" fill="url(#linearGradient4765)" fill-opacity="1"/><path d="M387.571 503.798v1h20l3-5-4 4z" id="path4224-5" fill="#fff" fill-opacity=".235" fill-rule="evenodd" stroke-width="1" stroke-linecap="butt" stroke-linejoin="miter" stroke-opacity="1"/><path d="M388.571 502.798v1h18l4-4-6 3z" id="path4228-08" fill="#000" fill-opacity=".235" fill-rule="evenodd" stroke-width="1" stroke-linecap="butt" stroke-linejoin="miter" stroke-opacity="1"/><path d="M387.571 540.798v1h58v-1h-58z" id="path4151-2-8" fill="#000" fill-opacity=".235"/><path d="M28 6l3 5h29v-1H32z" transform="translate(384.571 483.798)" id="path4196-7" fill="#fff" fill-opacity=".235" fill-rule="evenodd" stroke-width="1" stroke-linecap="butt" stroke-linejoin="miter" stroke-opacity="1"/></g><path id="path4153-7" d="M413.571 510.798v2h-7v1h2v17h16v-17h2v-1h-7v-2zm1 1h4v2h5v16h-14v-16h5zm-1 6v8h1v-8zm5 0v8h1v-8z" fill="#1272a5" fill-opacity="1"/></g><g transform="matrix(.76923 0 0 .76923 -273.938 -192.766)" id="layer1-276"><g id="layer1-2-8" stroke="none"><path d="M387.571 540.798v1h58v-1h-57z" id="path4151" fill="#2e3132" fill-opacity=".294"/><path d="M388.571 489.798v27c0 .554.446 1 1 1h54c.554 0 1-.446 1-1v-21.99l-.002-.01h.002v-1h-28l-4-4h-24z" id="rect4180-7" fill="#a3660d" fill-opacity="1"/><path d="M410.571 499.798l-4 4h-19v1h.002l-.002.012v36.988h58v-42z" id="rect4113-70" fill="url(#linearGradient4178-2)" fill-opacity="1"/><path d="M387.571 503.798v1h20l3-5-4 4z" id="path4224-2-6" fill="#fff" fill-opacity=".235" fill-rule="evenodd" stroke-width="1" stroke-linecap="butt" stroke-linejoin="miter" stroke-opacity="1"/><path d="M388.571 502.798v1h18l4-4-6 3z" id="path4228-9" fill="#000" fill-opacity=".235" fill-rule="evenodd" stroke-width="1" stroke-linecap="butt" stroke-linejoin="miter" stroke-opacity="1"/><path d="M387.571 540.798v1h58v-1h-58z" id="path4151-2-1" fill="#000" fill-opacity=".235"/><path d="M412.571 489.798l3 5h29v-1h-28z" id="path4196-8" fill="#fff" fill-opacity=".235" fill-rule="evenodd" stroke-width="1" stroke-linecap="butt" stroke-linejoin="miter" stroke-opacity="1"/></g></g></svg>