<?xml version="1.0" encoding="UTF-8" standalone="no"?>
<svg
   xmlns:dc="http://purl.org/dc/elements/1.1/"
   xmlns:cc="http://creativecommons.org/ns#"
   xmlns:rdf="http://www.w3.org/1999/02/22-rdf-syntax-ns#"
   xmlns:svg="http://www.w3.org/2000/svg"
   xmlns="http://www.w3.org/2000/svg"
   xmlns:xlink="http://www.w3.org/1999/xlink"
   xmlns:sodipodi="http://sodipodi.sourceforge.net/DTD/sodipodi-0.dtd"
   xmlns:inkscape="http://www.inkscape.org/namespaces/inkscape"
   width="32"
   height="32"
   version="1"
   id="svg16"
   sodipodi:docname="folder-gnome.svg"
   inkscape:version="0.92.4 5da689c313, 2019-01-14">
  <metadata
     id="metadata22">
    <rdf:RDF>
      <cc:Work
         rdf:about="">
        <dc:format>image/svg+xml</dc:format>
        <dc:type
           rdf:resource="http://purl.org/dc/dcmitype/StillImage" />
      </cc:Work>
    </rdf:RDF>
  </metadata>
  <defs
     id="defs20">
    <linearGradient
       inkscape:collect="always"
       id="linearGradient820">
      <stop
         style="stop-color:#27a4a7;stop-opacity:1"
         offset="0"
         id="stop816" />
      <stop
         style="stop-color:#b8edee;stop-opacity:1"
         offset="1"
         id="stop818" />
    </linearGradient>
    <linearGradient
       inkscape:collect="always"
       xlink:href="#linearGradient820"
       id="linearGradient822"
       x1="16.901945"
       y1="28.474577"
       x2="16.873501"
       y2="6.7341037"
       gradientUnits="userSpaceOnUse" />
    <linearGradient
       gradientTransform="translate(0.001349,-0.058168)"
       inkscape:collect="always"
       xlink:href="#linearGradient990"
       id="linearGradient829-3"
       x1="16.87215"
       y1="28.452196"
       x2="16.87215"
       y2="6.7922716"
       gradientUnits="userSpaceOnUse" />
    <linearGradient
       id="linearGradient990"
       inkscape:collect="always">
      <stop
         id="stop986"
         offset="0"
         style="stop-color:#27a4a7;stop-opacity:1" />
      <stop
         id="stop988"
         offset="1"
         style="stop-color:#72d2d4;stop-opacity:1" />
    </linearGradient>
    <linearGradient
       inkscape:collect="always"
       xlink:href="#linearGradient889"
       id="linearGradient891"
       x1="-34.169491"
       y1="21.288134"
       x2="-13.152541"
       y2="7.4576254"
       gradientUnits="userSpaceOnUse"
       gradientTransform="matrix(1.2926751,0,0,1.5798246,46.671882,-6.634522)" />
    <linearGradient
       inkscape:collect="always"
       id="linearGradient889">
      <stop
         style="stop-color:#8998ad;stop-opacity:1"
         offset="0"
         id="stop885" />
      <stop
         style="stop-color:#d7edef;stop-opacity:1"
         offset="1"
         id="stop887" />
    </linearGradient>
  </defs>
  <sodipodi:namedview
     pagecolor="#ffffff"
     bordercolor="#666666"
     borderopacity="1"
     objecttolerance="10"
     gridtolerance="10"
     guidetolerance="10"
     inkscape:pageopacity="0"
     inkscape:pageshadow="2"
     inkscape:window-width="950"
     inkscape:window-height="515"
     id="namedview18"
     showgrid="false"
     inkscape:zoom="7.78125"
     inkscape:cx="16"
     inkscape:cy="16"
     inkscape:window-x="488"
     inkscape:window-y="67"
     inkscape:window-maximized="0"
     inkscape:current-layer="svg16" />
  <path
     style="fill:url(#linearGradient822);fill-opacity:1;stroke:none;stroke-width:0.14515875;stroke-miterlimit:4;stroke-dasharray:none;stroke-opacity:1"
     d="m 27.90368,6.7271306 c 1.168734,-7.39e-4 2.109629,0.940894 2.109629,2.109629 V 26.44728 c 0,1.168735 -0.940895,2.109629 -2.109629,2.109629 H 4.09632 c -1.168734,0 -2.109682,-0.940894 -2.109629,-2.109629 l 7.31e-4,-16.244507 7.32e-4,-5.0669084 c 0,-0.937796 0.754977,-1.6927731 1.692773,-1.6927731 h 9.09082 c 0.937797,0 1.704839,0.3713211 2.299888,1.0961521 l 1.801865,2.19486 z"
     id="rect4549-3"
     inkscape:connector-curvature="0"
     sodipodi:nodetypes="sssssscsssscs" />
  <rect
     style="opacity:1;vector-effect:none;fill:url(#linearGradient891);fill-opacity:1;fill-rule:nonzero;stroke:none;stroke-width:0.20743993;stroke-linecap:butt;stroke-linejoin:miter;stroke-miterlimit:4;stroke-dasharray:none;stroke-dashoffset:0;stroke-opacity:1;paint-order:markers stroke fill"
     id="rect883"
     width="27.168089"
     height="21.849777"
     x="2.5018303"
     y="5.1472187"
     transform="matrix(0.99999999,1.0125852e-4,-6.7794228e-5,1,0,0)"
     inkscape:transform-center-x="4.8282266"
     inkscape:transform-center-y="-6.7305722" />
  <path
     style="fill:url(#linearGradient829-3);fill-opacity:1;stroke:none;stroke-width:0.1;stroke-miterlimit:4;stroke-dasharray:none;stroke-opacity:1"
     d="m 27.90368,6.7271306 c 1.168734,-7.388e-4 2.109629,0.9408941 2.109629,2.1096297 V 26.44728 c 0,1.168735 -0.940895,2.109629 -2.109629,2.109629 H 4.096321 c -1.168735,0 -2.109682,-0.940894 -2.10963,-2.109629 L 1.987422,10.202773 2.100381,5.9214582 C 2.125111,4.9839875 2.743131,4.4531404 3.680927,4.4531404 h 8.978592 c 0.937797,0 1.827453,0.1319292 2.524344,0.7594692 l 1.689637,1.521494 z"
     id="rect4549-9"
     inkscape:connector-curvature="0"
     sodipodi:nodetypes="sssssscsssscs" />
  <path
     style="opacity:1;fill:#d7edef;fill-opacity:1"
     d="m 19.952149,10.720339 c -2.539,0 -3.015,3.858 -1.586,3.858 1.428,0 4.126,-3.858 1.586,-3.858 z m -3.911,0.594 c -0.04,-0.001 -0.083,0.003 -0.128,0.008 -1.44,0.182 -0.933,2.617 -0.167,2.662 0.741,0.045 1.553,-2.666 0.294,-2.67 z m -2.495,0.899 c -0.088,-0.006 -0.185,0.011 -0.294,0.055 -1.156,0.475 -0.175,2.436 0.472,2.304 0.588,-0.12 0.672,-2.304 -0.178,-2.359 z m -1.887,1.602 c -0.101,-0.002 -0.209,0.032 -0.325,0.119 -0.926,0.691 0.311,2.36 0.856,2.101 0.476,-0.227 0.172,-2.194 -0.532,-2.219 z m 5.467,1.594 c -2.006,-0.035 -4.652,0.983 -5.103,3.029 -0.489,2.212 2.012,5.282 4.62,5.282 1.284,0 2.764,-1.173 3.041,-2.658 0.212,-1.133 -2.489,-0.679 -2.392,0.07 0.116,0.899 -0.651,1.343 -1.403,0.764 -2.394,-1.844 3.963,-2.764 3.543,-5.283 -0.13,-0.784 -1.103,-1.183 -2.306,-1.204 z"
     id="path14"
     inkscape:connector-curvature="0" />
</svg>
