<svg xmlns="http://www.w3.org/2000/svg" width="22" height="22"><path d="M17.998 11c0 .55-.45 1-1 1h-1.6l-6.19-6.19-.24-.75c-.27-1.05-.27-1.06.53-1.06.43 0 .43.01.72.5l3.68 5.5h3.1c.55 0 1 .44 1 1zm-4.62 1.78l-3.16 4.72c-.27.45-.29.5-.66.5h-.06c-.8 0-.78-.04-.53-1.03l1.62-4.97h-4.5l-1.22 1.78c-.14.21-.12.22-.34.22h-.22c-.43 0-.28-.44-.28-.44l.28-2.56-.28-2.57s-.14-.43.25-.43h.25c.21 0 .2.01.34.22L6.088 10h4.5z" fill="#1e333d"/><path d="M18 16.603L5.397 4 4 5.397 16.603 18z" fill="#1e333d"/></svg>