<svg xmlns="http://www.w3.org/2000/svg" width="22" height="22"><path d="M7.938 4a3.063 3.063 0 0 0-3.063 3.063A3.063 3.063 0 0 0 5.08 8.16a7.008 7.008 0 0 1 5.059-3.228A3.063 3.063 0 0 0 7.938 4zm6.125 0a3.063 3.063 0 0 0-2.198.933 7.009 7.009 0 0 1 5.054 3.227 3.063 3.063 0 0 0 .206-1.098A3.063 3.063 0 0 0 14.062 4zM11 5.75a6.125 6.125 0 0 0-6.125 6.125 6.125 6.125 0 0 0 1.44 3.946 6.125 6.125 0 0 0 .404.434.875.875 0 0 0-.713.251.875.875 0 0 0 0 1.238.875.875 0 0 0 1.238 0 .875.875 0 0 0 .215-.88 6.125 6.125 0 0 0 .516.327 6.125 6.125 0 0 0 .521.266 6.125 6.125 0 0 0 .05.022 6.125 6.125 0 0 0 .47.182 6.125 6.125 0 0 0 .149.05 6.125 6.125 0 0 0 .427.118 6.125 6.125 0 0 0 .169.038 6.125 6.125 0 0 0 .424.072 6.125 6.125 0 0 0 .196.023 6.125 6.125 0 0 0 .457.033A6.125 6.125 0 0 0 11 18a6.125 6.125 0 0 0 .612-.03 6.125 6.125 0 0 0 2.908-1.087 6.125 6.125 0 0 0 .02-.013.875.875 0 0 0 .216.874.875.875 0 0 0 1.238 0 .875.875 0 0 0 0-1.238.875.875 0 0 0-.723-.249 6.125 6.125 0 0 0 .39-.42 6.125 6.125 0 0 0 .026-.028 6.125 6.125 0 0 0 .01-.014 6.125 6.125 0 0 0 .324-.425 6.125 6.125 0 0 0 .051-.07 6.125 6.125 0 0 0 .258-.422 6.125 6.125 0 0 0 .063-.111 6.125 6.125 0 0 0 .207-.432 6.125 6.125 0 0 0 .057-.124 6.125 6.125 0 0 0 .147-.405 6.125 6.125 0 0 0 .063-.192 6.125 6.125 0 0 0 .099-.385 6.125 6.125 0 0 0 .046-.206 6.125 6.125 0 0 0 .059-.393 6.125 6.125 0 0 0 .027-.222 6.125 6.125 0 0 0 .027-.533A6.125 6.125 0 0 0 11 5.75zm0 1.75a4.375 4.375 0 0 1 4.375 4.375A4.375 4.375 0 0 1 11 16.25a4.375 4.375 0 0 1-4.375-4.375 4.375 4.375 0 0 1 .022-.438A4.375 4.375 0 0 1 11 7.5zm2.179 1.747a.438.438 0 0 0-.301.131L11 11.256l-1.44-1.44a.438.438 0 1 0-.62.618l1.75 1.75a.438.438 0 0 0 .62 0l2.187-2.187a.438.438 0 0 0-.318-.75z" fill="#1e333d"/></svg>