<svg xmlns="http://www.w3.org/2000/svg" width="22" height="22"><path d="M4 3c-.554 0-1 .446-1 1v14c0 .554.446 1 1 1h14c.554 0 1-.446 1-1V4c0-.554-.446-1-1-1zm.5 1a.5.5 0 0 1 .5.5.5.5 0 0 1-.5.5.5.5 0 0 1-.5-.5.5.5 0 0 1 .5-.5zM11 4a7 7 0 0 1 7 7 7 7 0 0 1-7 7 7 7 0 0 1-7-7 7 7 0 0 1 7-7zm6.5 0a.5.5 0 0 1 .5.5.5.5 0 0 1-.5.5.5.5 0 0 1-.5-.5.5.5 0 0 1 .5-.5zm-5.498 1.102a1 1 0 0 0-1.002 1V8a3 3 0 0 1 2.344 1.129c.789-.17 1.455-.328 2.129-.486.894-.211.533-.99.175-1.43a5.999 5.999 0 0 0-3.447-2.092 1.003 1.003 0 0 0-.199-.02zm-3.988.87c-.276.024-.581.203-.801.381A6.002 6.002 0 0 0 5.12 9.802a1 1 0 0 0 .98 1.201H8a3 3 0 0 1 1.129-2.344c-.17-.79-.328-1.455-.486-2.129-.106-.447-.353-.58-.63-.556zM11 9a2 2 0 0 0-2 2 2 2 0 0 0 2 2 2 2 0 0 0 2-2 2 2 0 0 0-2-2zm2.998 1.998a3 3 0 0 1-1.129 2.344c.171.789.328 1.455.486 2.129.211.894.99.533 1.43.175a5.995 5.995 0 0 0 2.092-3.447 1 1 0 0 0-.981-1.201zm-5.344 1.875c-.79.171-1.455.328-2.129.486-.894.211-.533.99-.175 1.43a5.998 5.998 0 0 0 3.447 2.092 1 1 0 0 0 1.201-.981v-1.898a3 3 0 0 1-2.344-1.129zM4.5 17a.5.5 0 0 1 .5.5.5.5 0 0 1-.5.5.5.5 0 0 1-.5-.5.5.5 0 0 1 .5-.5zm13 0a.5.5 0 0 1 .5.5.5.5 0 0 1-.5.5.5.5 0 0 1-.5-.5.5.5 0 0 1 .5-.5z" fill="#1e333d"/></svg>