<svg xmlns="http://www.w3.org/2000/svg" width="22" height="22"><path d="M11 3l-.5 1.03c.17-.01.33-.03.5-.03.17 0 .33.02.5.03zm0 2c-3.31 0-6 2.68-6 6 0 3.31 2.69 6 6 6s6-2.69 6-6c0-3.32-2.69-6-6-6zm-5.66.34l.38 1.09c.22-.25.47-.5.72-.72zm11.32 0l-1.1.37c.25.22.5.47.72.72zM4.03 10.5L3 11l1.03.5c-.01-.17-.03-.34-.03-.5 0-.17.02-.34.03-.5zm13.94 0c.01.16.03.33.03.5 0 .16-.02.33-.03.5L19 11zM5.72 15.56l-.38 1.09 1.1-.37c-.25-.22-.5-.47-.72-.72zm10.56 0c-.22.25-.47.5-.72.72l1.1.37zm-5.78 2.4L11 19l.5-1.04c-.17.02-.33.04-.5.04-.17 0-.33-.02-.5-.04z" fill="#1e333d"/></svg>