<svg xmlns="http://www.w3.org/2000/svg" width="22" height="22"><g fill="#1e333d"><path d="M13 11.5c-1.31 0-2.4.86-2.81 2.03C8.96 13.69 8 14.73 8 16a2.5 2.5 0 0 0 2.5 2.5h5A2.5 2.5 0 0 0 18 16c0-1.27-.96-2.31-2.19-2.47-.4-1.17-1.5-2.03-2.81-2.03z"/><path d="M11 3.5c-2.07 0-3.83 1.27-4.59 3.06C4.48 6.85 3 8.49 3 10.5c0 2.21 1.79 4 4 4h.394c.445-.796 1.223-1.387 2.13-1.678.646-1.32 1.899-2.322 3.476-2.322 1.573 0 2.83.997 3.473 2.32.51.163.98.424 1.375.76A3.482 3.482 0 0 0 19 11c0-1.8-1.35-3.27-3.09-3.47C15.45 5.24 13.43 3.5 11 3.5z"/></g></svg>