<?xml version="1.0" encoding="UTF-8" standalone="no"?>
<svg
   xmlns:dc="http://purl.org/dc/elements/1.1/"
   xmlns:cc="http://creativecommons.org/ns#"
   xmlns:rdf="http://www.w3.org/1999/02/22-rdf-syntax-ns#"
   xmlns:svg="http://www.w3.org/2000/svg"
   xmlns="http://www.w3.org/2000/svg"
   xmlns:xlink="http://www.w3.org/1999/xlink"
   xmlns:sodipodi="http://sodipodi.sourceforge.net/DTD/sodipodi-0.dtd"
   xmlns:inkscape="http://www.inkscape.org/namespaces/inkscape"
   height="32"
   width="32"
   version="1"
   id="svg37"
   sodipodi:docname="Battle.net.svg"
   inkscape:version="0.92.4 5da689c313, 2019-01-14">
  <metadata
     id="metadata41">
    <rdf:RDF>
      <cc:Work
         rdf:about="">
        <dc:format>image/svg+xml</dc:format>
        <dc:type
           rdf:resource="http://purl.org/dc/dcmitype/StillImage" />
        <dc:title />
      </cc:Work>
    </rdf:RDF>
  </metadata>
  <sodipodi:namedview
     pagecolor="#ffffff"
     bordercolor="#666666"
     borderopacity="1"
     objecttolerance="10"
     gridtolerance="10"
     guidetolerance="10"
     inkscape:pageopacity="0"
     inkscape:pageshadow="2"
     inkscape:window-width="1920"
     inkscape:window-height="1027"
     id="namedview39"
     showgrid="false"
     inkscape:zoom="11.08"
     inkscape:cx="4.8537906"
     inkscape:cy="23.979834"
     inkscape:window-x="0"
     inkscape:window-y="27"
     inkscape:window-maximized="1"
     inkscape:current-layer="svg37"
     showguides="true"
     inkscape:guide-bbox="true"
     inkscape:snap-global="false" />
  <defs
     id="defs7">
    <linearGradient
       inkscape:collect="always"
       id="linearGradient824">
      <stop
         style="stop-color:#2c3546;stop-opacity:1"
         offset="0"
         id="stop820" />
      <stop
         style="stop-color:#242c3a;stop-opacity:1"
         offset="1"
         id="stop822" />
    </linearGradient>
    <linearGradient
       id="linearGradient4924"
       y2="20.316"
       gradientUnits="userSpaceOnUse"
       y1="18.858"
       x2="16.213"
       x1="12.897"
       gradientTransform="matrix(0.77163247,0,0,0.77163247,3.6538805,3.2680642)">
      <stop
         offset="0"
         id="stop2" />
      <stop
         stop-opacity="0"
         offset="1"
         id="stop4" />
    </linearGradient>
    <radialGradient
       inkscape:collect="always"
       xlink:href="#linearGradient824"
       id="radialGradient828"
       cx="16.392756"
       cy="16.362625"
       fx="16.392756"
       fy="16.362625"
       r="14.101694"
       gradientUnits="userSpaceOnUse"
       gradientTransform="matrix(2.0628363,2.019856e-4,-1.7499358e-4,1.7870342,-17.051019,-11.384748)" />
  </defs>
  <rect
     inkscape:highlight-color="606878463"
     ry="5.575182"
     y="3.1093371"
     x="1.8498688"
     height="28.203388"
     width="28.203388"
     id="rect4497-3"
     style="opacity:1;fill:url(#radialGradient828);fill-opacity:1;fill-rule:evenodd;stroke:none;stroke-width:1.03534329;stroke-linecap:round;stroke-linejoin:bevel;stroke-miterlimit:4;stroke-dasharray:none;stroke-dashoffset:0;stroke-opacity:1" />
  <g
     id="g913"
     transform="matrix(0.9476296,0,0,0.9476296,0.6770767,0.58487912)">
    <g
       id="g897">
      <path
         inkscape:connector-curvature="0"
         id="path25"
         style="opacity:0.1;fill:#000000;fill-opacity:1;stroke:none;stroke-width:0.54777086"
         d="m 13.479137,12.527016 c -0.867121,-1.978 -2.445249,-1.572102 -2.449083,1.421465 -0.0022,1.53595 0.441503,2.810065 0.886293,3.953263 1.544166,3.967504 4.832982,4.77437 6.776473,3.194599 -0.865478,0.35386 -1.535402,0.478204 -2.091937,0.443694 -1.101019,-0.06792 -1.935274,-0.541745 -2.395402,-1.052815 -1.423109,-1.580319 -2.207516,-3.839874 -2.243121,-5.849645 -0.03341,-1.871185 0.766331,-2.96837 1.527185,-1.383669 z" />
      <path
         inkscape:connector-curvature="0"
         id="path27"
         style="opacity:0.1;fill:#000000;fill-opacity:1;stroke:none;stroke-width:0.54777086"
         d="m 15.001392,8.867907 c -0.495733,0.039439 -0.946,0.4020638 -1.292739,1.182637 -0.827134,1.861873 -0.381249,6.20953 1.47186,10.576359 l 0.701695,-0.330305 c -0.832612,-2.320905 -1.337109,-4.659887 -1.237962,-6.354142 0.220751,-3.767568 1.643312,-3.939568 3.452051,-0.948739 l 0.824943,0.08271 C 17.85473,10.753334 16.268934,8.7665694 15.001392,8.867907 Z m 1.182637,12.240487 -0.632675,0.30237 c 0.810153,1.746841 1.826816,3.473962 3.094357,5.019771 0.359886,0.439313 0.694026,0.725797 1.045147,0.811249 -1.300408,-1.432421 -2.562472,-3.731963 -3.507376,-6.133938 z" />
      <path
         inkscape:connector-curvature="0"
         id="path29"
         style="opacity:0.1;fill:#000000;fill-opacity:1;stroke:none;stroke-width:0.54777086"
         d="m 22.858617,16.931094 c 2.146166,0.23828 2.584383,-1.331631 -0.0066,-2.831428 -1.32944,-0.769618 -2.654498,-1.022688 -3.867262,-1.20893 -4.207976,-0.64637 -6.55134,1.798332 -6.154753,4.270969 0.126535,-0.92628 0.353859,-1.568815 0.661707,-2.033325 0.608573,-0.917516 1.436803,-1.405032 2.109465,-1.548001 2.079886,-0.442051 4.425988,0.0077 6.187619,0.982154 1.637287,0.90656 2.187249,2.148357 0.434383,2.014153 z" />
      <path
         inkscape:connector-curvature="0"
         id="path31"
         style="opacity:0.1;fill:#000000;fill-opacity:1;stroke:none;stroke-width:0.54777086"
         d="m 14.363787,22.918229 c -1.279045,1.73972 -0.139134,2.903733 2.455656,1.409962 1.331084,-0.766331 2.212995,-1.787376 2.980422,-2.744332 2.663809,-3.319491 1.717809,-6.572702 -0.62172,-7.465569 0.738943,0.572421 1.182089,1.090612 1.430229,1.590179 0.490255,0.98544 0.498472,1.946778 0.285937,2.600816 -0.657325,2.02237 -2.220663,3.831109 -3.944498,4.867492 -1.603873,0.964624 -2.954128,0.82056 -1.961567,-0.630485 z" />
      <path
         inkscape:connector-curvature="0"
         id="path33"
         style="opacity:0.1;fill:#000000;fill-opacity:1;stroke:none;stroke-width:0.54777086"
         d="m 10.432983,23.433133 c 0.282102,0.409733 0.821109,0.618434 1.670701,0.528051 2.026205,-0.214726 5.568091,-2.774459 8.42362,-6.562842 l -0.636509,-0.442599 c -1.593466,1.881593 -3.3666,3.487657 -4.883925,4.249059 -3.373173,1.692612 -4.233721,0.546127 -2.547682,-2.515364 l -0.341262,-0.755924 c -1.478433,2.085364 -2.4063568,4.452282 -1.684943,5.499619 z m 10.009417,-7.142931 0.578446,0.396586 c 1.10814,-1.574841 2.095223,-3.319491 2.800204,-5.189581 0.200484,-0.531338 0.281554,-0.963529 0.180217,-1.310816 -0.589949,1.842702 -1.950612,4.084728 -3.558867,6.104359 z" />
      <path
         inkscape:connector-curvature="0"
         id="path35"
         style="opacity:0.1;fill:#000000;fill-opacity:1;stroke:none;stroke-width:0.54777086"
         d="m 25.267165,20.080776 c 0.213631,-0.449172 0.124892,-1.019949 -0.377962,-1.711236 -1.19907,-1.64879 -5.186842,-3.435071 -9.892741,-4.013517 l -0.06464,0.772357 c 2.426077,0.439312 4.703708,1.171682 6.121887,2.105083 3.152421,2.074956 2.590408,3.39344 -0.90437,3.464103 l -0.484229,0.67321 c 2.544943,0.237733 5.058664,-0.141872 5.604791,-1.29 z m -11.192053,-5.095912 0.05423,-0.698956 c -1.917746,-0.172 -3.921491,-0.155019 -5.894562,0.169809 -0.5603695,0.09203 -0.9755798,0.238281 -1.2253633,0.499567 1.8903571,-0.41028 4.5130843,-0.353312 7.0656963,0.03013 z" />
    </g>
    <g
       id="g883">
      <path
         inkscape:connector-curvature="0"
         id="path39"
         style="fill:#50b5f4;fill-opacity:1;stroke:none;stroke-width:0.54777086"
         d="m 12.772735,11.820606 c -0.867121,-1.9780003 -2.445249,-1.572102 -2.449083,1.421465 -0.0022,1.53595 0.441503,2.810065 0.886293,3.953263 1.544166,3.967504 4.832982,4.77437 6.776473,3.194599 -0.865478,0.35386 -1.535402,0.478204 -2.091937,0.443694 -1.101019,-0.06792 -1.935274,-0.541745 -2.395402,-1.052815 -1.423109,-1.580319 -2.207516,-3.839874 -2.243121,-5.849645 -0.03341,-1.871185 0.766331,-2.96837 1.527185,-1.383669 z" />
      <path
         inkscape:connector-curvature="0"
         id="path41"
         style="fill:#50b5f4;fill-opacity:1;stroke:none;stroke-width:0.54777086"
         d="m 14.29499,8.161497 c -0.495733,0.039439 -0.946,0.4020638 -1.292739,1.1826373 -0.827134,1.8618727 -0.381249,6.2095297 1.47186,10.5763587 l 0.701695,-0.330305 c -0.832612,-2.320905 -1.337109,-4.659887 -1.237962,-6.354142 0.220751,-3.7675678 1.643312,-3.9395678 3.452051,-0.948739 l 0.824943,0.08271 C 17.148328,10.046924 15.562532,8.0601594 14.29499,8.161497 Z m 1.182637,12.240487 -0.632675,0.30237 c 0.810153,1.746841 1.826816,3.473962 3.094357,5.019771 0.359886,0.439313 0.694026,0.725797 1.045147,0.811249 -1.300408,-1.432421 -2.562472,-3.731963 -3.507376,-6.133938 z" />
      <path
         inkscape:connector-curvature="0"
         id="path43"
         style="fill:#50b5f4;fill-opacity:1;stroke:none;stroke-width:0.54777086"
         d="m 22.152215,16.224684 c 2.146166,0.23828 2.584383,-1.331631 -0.0066,-2.831428 -1.32944,-0.769618 -2.654498,-1.022688 -3.867262,-1.20893 -4.207976,-0.64637 -6.55134,1.798332 -6.154753,4.270969 0.126535,-0.92628 0.353859,-1.568815 0.661707,-2.033325 0.608573,-0.917516 1.436803,-1.405032 2.109465,-1.548001 2.079886,-0.442051 4.425988,0.0077 6.187619,0.982154 1.637287,0.90656 2.187249,2.148357 0.434383,2.014153 z" />
      <path
         inkscape:connector-curvature="0"
         id="path45"
         style="fill:#50b5f4;fill-opacity:1;stroke:none;stroke-width:0.54777086"
         d="m 13.657385,22.211819 c -1.279045,1.73972 -0.139134,2.903733 2.455656,1.409962 1.331084,-0.766331 2.212995,-1.787376 2.980422,-2.744332 2.663809,-3.319491 1.717809,-6.572702 -0.62172,-7.465569 0.738943,0.572421 1.182089,1.090612 1.430229,1.590179 0.490255,0.98544 0.498472,1.946778 0.285937,2.600816 -0.657325,2.02237 -2.220663,3.831109 -3.944498,4.867492 -1.603873,0.964624 -2.954128,0.82056 -1.961567,-0.630485 z" />
      <path
         inkscape:connector-curvature="0"
         id="path47"
         style="fill:#50b5f4;fill-opacity:1;stroke:none;stroke-width:0.54777086"
         d="m 9.7265814,22.726723 c 0.2821016,0.409733 0.8211086,0.618434 1.6707006,0.528051 2.026205,-0.214726 5.568091,-2.774459 8.42362,-6.562842 l -0.636509,-0.442599 c -1.593466,1.881593 -3.3666,3.487657 -4.883925,4.249059 -3.373173,1.692612 -4.233721,0.546127 -2.547682,-2.515364 l -0.341262,-0.755924 c -1.478433,2.085364 -2.4063568,4.452282 -1.6849426,5.499619 z m 10.0094166,-7.142931 0.578446,0.396586 c 1.10814,-1.574841 2.095223,-3.319491 2.800204,-5.189581 0.200484,-0.531338 0.281554,-0.9635289 0.180217,-1.3108156 -0.589949,1.8427016 -1.950612,4.0847276 -3.558867,6.1043586 z" />
      <path
         inkscape:connector-curvature="0"
         id="path49"
         style="fill:#50b5f4;fill-opacity:1;stroke:none;stroke-width:0.54777086"
         d="m 24.560763,19.374366 c 0.213631,-0.449172 0.124892,-1.019949 -0.377962,-1.711236 -1.19907,-1.64879 -5.186842,-3.435071 -9.892741,-4.013517 l -0.06464,0.772357 c 2.426077,0.439312 4.703708,1.171682 6.121887,2.105083 3.152421,2.074956 2.590408,3.39344 -0.90437,3.464103 l -0.484229,0.67321 c 2.544943,0.237733 5.058664,-0.141872 5.604791,-1.29 z M 13.36871,14.278454 13.42294,13.579498 c -1.917746,-0.172 -3.9214914,-0.155019 -5.894562,0.169809 -0.5603695,0.09203 -0.9755798,0.238281 -1.2253633,0.499567 1.8903571,-0.41028 4.5130843,-0.353312 7.0656963,0.03013 z" />
    </g>
  </g>
</svg>
