<?xml version="1.0" encoding="UTF-8" standalone="no"?>
<svg
   xmlns:dc="http://purl.org/dc/elements/1.1/"
   xmlns:cc="http://creativecommons.org/ns#"
   xmlns:rdf="http://www.w3.org/1999/02/22-rdf-syntax-ns#"
   xmlns:svg="http://www.w3.org/2000/svg"
   xmlns="http://www.w3.org/2000/svg"
   xmlns:xlink="http://www.w3.org/1999/xlink"
   xmlns:sodipodi="http://sodipodi.sourceforge.net/DTD/sodipodi-0.dtd"
   xmlns:inkscape="http://www.inkscape.org/namespaces/inkscape"
   width="32"
   height="32"
   version="1.1"
   viewBox="0 0 32 32"
   id="svg8"
   sodipodi:docname="distributor-logo-debian.svg"
   inkscape:version="0.92.4 5da689c313, 2019-01-14">
  <metadata
     id="metadata14">
    <rdf:RDF>
      <cc:Work
         rdf:about="">
        <dc:format>image/svg+xml</dc:format>
        <dc:type
           rdf:resource="http://purl.org/dc/dcmitype/StillImage" />
        <dc:title />
      </cc:Work>
    </rdf:RDF>
  </metadata>
  <defs
     id="defs12">
    <linearGradient
       inkscape:collect="always"
       id="linearGradient822">
      <stop
         style="stop-color:#f9548f;stop-opacity:1;"
         offset="0"
         id="stop818" />
      <stop
         style="stop-color:#d287a7;stop-opacity:1"
         offset="1"
         id="stop820" />
    </linearGradient>
    <radialGradient
       inkscape:collect="always"
       xlink:href="#linearGradient822"
       id="radialGradient828"
       gradientUnits="userSpaceOnUse"
       cx="16.400225"
       cy="15.827864"
       fx="16.400225"
       fy="15.827864"
       r="14.1015"
       gradientTransform="matrix(1.3478893,0.0017356,-0.0017356,1.3478871,-5.5384616,-5.5939629)" />
  </defs>
  <sodipodi:namedview
     pagecolor="#ffffff"
     bordercolor="#666666"
     borderopacity="1"
     objecttolerance="10"
     gridtolerance="10"
     guidetolerance="10"
     inkscape:pageopacity="0"
     inkscape:pageshadow="2"
     inkscape:window-width="942"
     inkscape:window-height="696"
     id="namedview10"
     showgrid="false"
     inkscape:zoom="13.375"
     inkscape:cx="16"
     inkscape:cy="16"
     inkscape:window-x="553"
     inkscape:window-y="113"
     inkscape:window-maximized="0"
     inkscape:current-layer="svg8"
     inkscape:snap-global="true"
     showguides="true"
     inkscape:guide-bbox="true">
    <sodipodi:guide
       position="1.1566265,35.007229"
       orientation="0,1"
       id="guide830"
       inkscape:locked="false" />
  </sodipodi:namedview>
  <g
     id="distributor-logo-debian">
    <rect
       inkscape:highlight-color="4183068671"
       ry="5.5751052"
       y="1.8985004"
       x="1.8985002"
       height="28.202999"
       width="28.202999"
       id="rect4497-3-6-3-3"
       style="opacity:1;fill:url(#radialGradient828);fill-opacity:1;fill-rule:evenodd;stroke:none;stroke-width:0.15876552;stroke-linecap:round;stroke-linejoin:bevel;stroke-miterlimit:4;stroke-dasharray:none;stroke-dashoffset:0;stroke-opacity:1" />
    <path
       id="path6"
       d="m 9.2626901,14.04343 c 0.08757,-0.27324 0.103256,-0.437144 0.136682,-0.595531 -0.2414267,0.314499 -0.111288,0.381624 -0.136682,0.595531 m 0.446011,-1.896705 c 0.0435,0.409574 -0.302488,0.568722 0.07656,0.298336 0.2035259,-0.466615 -0.07917,-0.128732 -0.07656,-0.298336 M 16.33236,8.5609371 c 0.188397,-0.070163 0.463439,-0.0386 0.663987,-0.084802 -0.26103,0.02225 -0.520771,0.035559 -0.777136,0.068832 l 0.113323,0.01596 m 6.061512,7.6488549 -0.0409,0.10496 c -0.07506,0.543427 -0.237696,1.081114 -0.48641,1.579898 0.274853,-0.526131 0.452058,-1.10171 0.527305,-1.684866 m -7.671188,1.698183 c -0.09757,-0.109409 -0.154135,-0.240864 -0.218903,-0.372326 0.06162,0.230268 0.187842,0.428202 0.304912,0.629759 l -0.08608,-0.257201 m -0.433363,0.01714 -0.0394,0.199084 c 0.183549,0.253842 0.329189,0.528794 0.563146,0.726546 -0.16842,-0.334467 -0.293331,-0.472704 -0.523756,-0.925605 m 2.284647,-9.1435549 -0.10505,0.02225 0.09761,-0.0091 0.0074,-0.01315 m -0.296954,-0.08404 c 0.149007,0.027 0.32191,0.04792 0.29707,0.08423 0.163565,-0.0367 0.20035,-0.06979 -0.29707,-0.08423 m 3.107683,6.9929909 c 0.03398,-0.51168 -0.09878,-0.349679 -0.143407,-0.154781 0.05191,0.02776 0.09317,0.360895 0.143407,0.154781 m -0.552551,1.464921 c 0.166741,-0.233693 0.287732,-0.489247 0.330488,-0.753554 -0.03754,0.188248 -0.137426,0.35082 -0.232278,0.522707 -0.521515,0.334467 -0.0493,-0.198505 -3.73e-4,-0.401394 -0.560541,0.719325 -0.07731,0.431255 -0.09785,0.632232 m -1.49718,0.379672 c -0.278963,0.0037 0.05247,0.146029 0.416762,0.203269 0.101014,-0.08023 0.191763,-0.16086 0.273173,-0.239582 -0.226488,0.05648 -0.457277,0.0578 -0.689935,0.03632 M 9.2635911,14.043854 c 0.0876,-0.272966 0.103231,-0.436746 0.136649,-0.595563 -0.2413691,0.314325 -0.111255,0.381326 -0.136649,0.595563 m 0.445878,-1.896539 c 0.04351,0.409582 -0.30248,0.568738 0.07655,0.298344 0.2036499,-0.466524 -0.07908,-0.129038 -0.07643,-0.298609 M 16.332587,8.5606831 c 0.188396,-0.070166 0.463431,-0.0386 0.66397,-0.08481 -0.26103,0.022248 -0.520754,0.035558 -0.777119,0.068834 l 0.113149,0.01597 m 6.061843,7.6495169 -0.04089,0.10496 c -0.07506,0.543451 -0.237696,1.081196 -0.486402,1.57998 0.274853,-0.526147 0.452041,-1.10171 0.527289,-1.684949 m -7.671107,1.698018 c -0.09709,-0.109525 -0.154226,-0.241112 -0.218836,-0.371937 0.06162,0.230268 0.187834,0.428218 0.304912,0.629775 l -0.08608,-0.257846 m -0.433371,0.01711 -0.0394,0.199084 c 0.183541,0.253851 0.329182,0.528811 0.563139,0.726563 -0.168421,-0.334475 -0.293332,-0.472712 -0.52374,-0.925688 m 2.284399,-9.1443819 -0.104744,0.02225 0.09765,-0.0091 0.0071,-0.01312 m 4.160673,7.1219469 c 0.01538,0.429625 -0.120528,0.638387 -0.243454,1.007578 l -0.221053,0.11434 c -0.180712,0.365254 0.01794,0.231889 -0.11147,0.522276 -0.282429,0.260874 -0.855874,0.816046 -1.039423,0.866876 -0.134209,-0.0031 0.09078,-0.164665 0.120188,-0.227795 -0.377662,0.269584 -0.303117,0.404735 -0.880773,0.568863 l -0.01675,-0.03931 c -1.42414,0.697083 -3.40257,-0.684095 -3.376596,-2.568285 -0.01505,0.119502 -0.04325,0.08962 -0.07472,0.137642 -0.07352,-0.969363 0.430485,-1.942944 1.280462,-2.341061 0.831473,-0.427847 1.806128,-0.252511 2.401196,0.325243 -0.326882,-0.44563 -0.978131,-0.918077 -1.749302,-0.874403 -0.755837,0.01281 -1.463184,0.512317 -1.699011,1.05481 -0.387066,0.253404 -0.432197,0.977386 -0.600774,1.109981 -0.227216,1.735572 0.426895,2.485072 1.533576,3.367333 0.173698,0.121983 0.04889,0.140661 0.07215,0.233486 -0.367579,-0.178893 -0.704031,-0.449187 -0.980943,-0.780122 0.14703,0.223526 0.305507,0.440833 0.510505,0.611544 -0.346891,-0.121817 -0.810032,-0.873658 -0.944878,-0.904264 0.597516,1.112794 2.423944,1.951629 3.380815,1.535313 -0.442801,0.01707 -1.005095,0.0094 -1.502225,-0.181737 -0.209432,-0.111851 -0.493061,-0.34321 -0.442281,-0.386414 1.305525,0.506982 2.653731,0.38375 3.783069,-0.557836 0.287566,-0.232956 0.601453,-0.628965 0.692235,-0.634308 -0.136599,0.213741 0.02342,0.102784 -0.08155,0.291462 0.285854,-0.480305 -0.124638,-0.19561 0.295772,-0.829405 l 0.155235,0.222286 c -0.05813,-0.399044 0.476137,-0.883006 0.421767,-1.513641 0.122578,-0.192756 0.136599,0.207702 0.0066,0.651199 0.180365,-0.492043 0.0477,-0.571179 0.09386,-0.977386 0.04976,0.136566 0.115912,0.281494 0.149594,0.425712 -0.117624,-0.475682 0.120188,-0.800752 0.179339,-1.077308 -0.05846,-0.02668 -0.18139,0.210192 -0.20977,-0.351383 0.0044,-0.243983 0.06549,-0.127856 0.0889,-0.187958 -0.04583,-0.02756 -0.166692,-0.214635 -0.240037,-0.573305 0.05282,-0.08447 0.14224,0.218547 0.214733,0.230814 -0.04668,-0.285059 -0.126855,-0.502531 -0.130279,-0.721434 -0.211996,-0.460569 -0.07505,0.06153 -0.246704,-0.197743 -0.225669,-0.731576 0.18704,-0.169827 0.215073,-0.502003 0.341589,0.514807 0.536313,1.313301 0.62607,1.643756 -0.06838,-0.403122 -0.178661,-0.793812 -0.313556,-1.171689 0.104116,0.0457 -0.16737,-0.829239 0.135226,-0.249839 -0.324252,-1.234884 -1.382204,-2.388871 -2.355785,-2.930255 0.119113,0.113323 0.269658,0.255514 0.215892,0.27793 -0.484723,-0.299602 -0.399524,-0.323259 -0.469007,-0.4498989 -0.39456,-0.166923 -0.420203,0.01373 -0.681589,4.14e-4 -0.743627,-0.410443 -0.886728,-0.366851 -1.570798,-0.623688 l 0.03113,0.151513 c -0.492547,-0.170711 -0.573924,0.06437 -1.106176,3.56e-4 -0.03231,-0.02613 0.170629,-0.09531 0.337825,-0.120386 -0.47631,0.06544 -0.454084,-0.0978 -0.920146,0.01796 0.114721,-0.08376 0.236447,-0.13942 0.358852,-0.21054 -0.388258,0.02454 -0.927259,0.23509 -0.760956,0.04339 -0.633424,0.294117 -1.758567,0.706851 -2.389947,1.3226469 l -0.01984,-0.137997 c -0.28927,0.36116 -1.261519,1.078715 -1.339025,1.546976 l -0.07745,0.01867 c -0.150273,0.265134 -0.247895,0.565488 -0.367231,0.838091 -0.196776,0.349066 -0.288592,0.13444 -0.260551,0.189207 -0.387232,0.816584 -0.579905,1.50264 -0.745918,2.065613 0.11831,0.184045 0.003,1.108244 0.04753,1.847818 -0.1942119,3.653287 2.464971,7.19995 5.371652,8.018685 0.426043,0.1588 1.059441,0.153109 1.598344,0.168751 -0.63564,-0.189207 -0.717712,-0.100121 -1.337289,-0.324706 -0.446722,-0.219085 -0.544519,-0.468924 -0.861085,-0.754695 l 0.125316,0.230285 C 14.188984,23.932386 14.448675,23.878148 13.94362,23.711878 l 0.13387,-0.181556 c -0.200176,-0.01572 -0.531872,-0.352375 -0.622861,-0.539316 l -0.220201,0.0091 c -0.264314,-0.338942 -0.405355,-0.583802 -0.394933,-0.773538 l -0.07113,0.13195 c -0.08052,-0.143862 -0.972919,-1.272852 -0.509984,-1.009976 -0.08599,-0.08144 -0.200366,-0.132836 -0.324317,-0.36738 l 0.09421,-0.111851 c -0.2224,-0.298256 -0.409945,-0.680401 -0.395577,-0.807728 0.118815,0.166791 0.201226,0.198099 0.282951,0.226728 -0.562642,-1.451769 -0.594273,-0.07985 -1.020151,-1.477742 l 0.08992,-0.0074 c -0.0689,-0.108657 -0.111122,-0.225843 -0.166518,-0.34125 l 0.03932,-0.406331 c -0.404735,-0.487249 -0.113075,-2.071283 -0.05443,-2.939813 0.04012,-0.353202 0.337982,-0.729565 0.5638,-1.319339 l -0.137799,-0.02453 c 0.26362,-0.477997 1.504791,-1.920361 2.079923,-1.846329 0.278501,-0.363831 -0.05539,-0.0014 -0.109931,-0.09283 0.611884,-0.658494 0.804218,-0.465192 1.217101,-0.5838 0.445018,-0.274737 -0.382104,0.1074 -0.171134,-0.104745 0.769857,-0.204319 0.545371,-0.464837 1.549458,-0.568507 0.105994,0.06259 -0.245678,0.09674 -0.333896,0.178008 0.641116,-0.326485 2.029217,-0.251981 2.931247,0.181026 1.04571,0.508761 2.221535,2.011929 2.268022,3.426227 l 0.05282,0.01476 c -0.02667,0.562286 0.08275,1.212551 -0.107193,1.809686 L 20.7346,15.902484 M 16.278635,8.6962491 c 0.148999,0.027 0.321903,0.04792 0.297071,0.08424 0.163565,-0.0367 0.200349,-0.06978 -0.297071,-0.08424 m 3.108511,6.9935699 c 0.03398,-0.511697 -0.09877,-0.349687 -0.143399,-0.154781 0.0519,0.02776 0.09317,0.360904 0.143399,0.154781 M 18.8339,17.15474 c 0.166741,-0.233693 0.287732,-0.489256 0.330488,-0.75357 -0.03753,0.188247 -0.137426,0.350828 -0.232278,0.522722 -0.521498,0.334476 -0.04929,-0.198512 -3.73e-4,-0.401409 -0.560524,0.719341 -0.0773,0.431262 -0.09784,0.632248 m -1.496931,0.38011 c -0.278956,0.0038 0.05247,0.146038 0.416753,0.20327 0.101014,-0.08024 0.191755,-0.160869 0.273165,-0.239591 -0.226488,0.05647 -0.457269,0.0578 -0.689918,0.03632"
       style="opacity:0.2;stroke-width:0.82717162"
       inkscape:connector-curvature="0" />
    <path
       id="path8"
       d="m 9.2626901,13.216258 c 0.0876,-0.272966 0.103231,-0.436746 0.136649,-0.595563 -0.2413689,0.314325 -0.111255,0.381326 -0.136649,0.595563 m 0.446011,-1.896703 c 0.04351,0.409449 -0.302497,0.569093 0.07651,0.298608 0.2035669,-0.466525 -0.07916,-0.129038 -0.07651,-0.298608 M 16.33236,7.7337652 c 0.188595,-0.070144 0.463216,-0.038629 0.664219,-0.084785 -0.261386,0.022251 -0.521118,0.035568 -0.777542,0.068821 l 0.113323,0.015964 m 6.061513,7.6488558 -0.0409,0.104959 c -0.07506,0.543427 -0.237696,1.081114 -0.48641,1.579898 0.274853,-0.526131 0.452058,-1.10171 0.527306,-1.684866 m -7.671189,1.698184 c -0.09756,-0.10941 -0.154135,-0.240864 -0.218903,-0.372327 0.06162,0.230268 0.187843,0.428202 0.304912,0.629759 l -0.08603,-0.25725 m -0.433437,0.01737 -0.0397,0.199349 c 0.18355,0.253842 0.32919,0.528794 0.563147,0.726546 -0.16842,-0.334467 -0.293332,-0.472704 -0.523757,-0.925605 m 2.284648,-9.1435548 -0.105051,0.022251 0.09761,-0.0091 0.0074,-0.013152 m -0.296954,-0.084041 c 0.149006,0.026999 0.32191,0.047918 0.29707,0.084231 0.16378,-0.036644 0.200176,-0.069731 -0.296955,-0.084206 m 3.107683,6.9929908 c 0.03398,-0.51168 -0.09878,-0.349678 -0.143406,-0.15478 0.05191,0.02776 0.09317,0.360895 0.143406,0.15478 m -0.55255,1.464921 c 0.166741,-0.233692 0.287731,-0.489247 0.330488,-0.753553 -0.03754,0.188248 -0.137426,0.35082 -0.232278,0.522706 -0.521515,0.334467 -0.0493,-0.198504 -3.73e-4,-0.401393 -0.560541,0.719325 -0.07731,0.431254 -0.09785,0.632232 m -1.49718,0.379672 c -0.278964,0.0037 0.05247,0.146029 0.416761,0.203269 0.101014,-0.08024 0.191763,-0.16086 0.273174,-0.239582 -0.226488,0.05648 -0.457277,0.0578 -0.689935,0.03632 M 9.2632101,13.21716 c 0.08757,-0.273248 0.103256,-0.437152 0.136674,-0.595547 -0.2414267,0.314507 -0.111288,0.381632 -0.136674,0.595547 m 0.445879,-1.896538 c 0.04351,0.409581 -0.30248,0.568737 0.07655,0.298344 0.2036499,-0.466525 -0.07908,-0.129039 -0.07643,-0.298609 M 16.33221,7.7339885 c 0.188397,-0.070169 0.463431,-0.038604 0.663971,-0.08481 -0.261031,0.022251 -0.520754,0.03556 -0.77712,0.068837 l 0.113149,0.015973 m 6.061844,7.6495175 -0.0409,0.10496 c -0.07506,0.543451 -0.237696,1.081196 -0.486401,1.57998 0.274852,-0.526147 0.452041,-1.10171 0.527289,-1.684949 m -7.671106,1.698018 c -0.09709,-0.109525 -0.154227,-0.241112 -0.218837,-0.371937 0.06162,0.230268 0.187834,0.428218 0.304912,0.629775 l -0.08608,-0.257846 m -0.433372,0.01711 -0.0394,0.199084 c 0.183541,0.253851 0.329181,0.528811 0.563138,0.726563 -0.16842,-0.334476 -0.293332,-0.472712 -0.52374,-0.925688 m 2.2844,-9.1443818 -0.104745,0.022251 0.09766,-0.00912 0.0071,-0.013119 m 4.160673,7.1219478 c 0.01539,0.429624 -0.120527,0.638386 -0.243453,1.007577 l -0.221054,0.11434 c -0.180712,0.365254 0.01794,0.23189 -0.111469,0.522276 -0.28243,0.260874 -0.855875,0.816047 -1.039424,0.866876 -0.134209,-0.0031 0.09078,-0.164665 0.120188,-0.227795 -0.377662,0.269584 -0.303117,0.404735 -0.880772,0.568863 l -0.01675,-0.03931 c -1.42414,0.697082 -3.402569,-0.684096 -3.376596,-2.568285 -0.01505,0.119501 -0.04325,0.08962 -0.07472,0.137641 -0.07352,-0.969362 0.430484,-1.942943 1.280461,-2.341061 0.831473,-0.427846 1.806129,-0.252511 2.401196,0.325244 -0.326882,-0.445631 -0.978131,-0.918078 -1.749302,-0.874403 -0.755836,0.0128 -1.463184,0.512317 -1.69901,1.054809 -0.387067,0.253404 -0.432198,0.977386 -0.600775,1.109981 -0.227216,1.735572 0.426895,2.485072 1.533576,3.367333 0.173698,0.121983 0.04889,0.140661 0.07215,0.233486 -0.367579,-0.178892 -0.704031,-0.449187 -0.980943,-0.780122 0.14703,0.223527 0.305508,0.440833 0.510506,0.611544 -0.346891,-0.121817 -0.810033,-0.873658 -0.944878,-0.904264 0.597515,1.112794 2.423943,1.951629 3.380815,1.535314 -0.442802,0.01706 -1.005096,0.0094 -1.502226,-0.181738 -0.209432,-0.11185 -0.49306,-0.34321 -0.44228,-0.386413 1.305525,0.506981 2.653731,0.383749 3.783068,-0.557837 0.287566,-0.232956 0.601453,-0.628964 0.692235,-0.634308 -0.136599,0.213741 0.02342,0.102784 -0.08155,0.291462 0.285854,-0.480305 -0.124638,-0.195609 0.295772,-0.829405 l 0.155235,0.222286 c -0.05813,-0.399044 0.476137,-0.883006 0.421767,-1.513641 0.122579,-0.192756 0.136599,0.207703 0.0066,0.651199 0.180365,-0.492043 0.0477,-0.571179 0.09386,-0.977386 0.04975,0.136566 0.115911,0.281495 0.149593,0.425712 -0.117623,-0.475682 0.120189,-0.800752 0.17934,-1.077308 -0.05846,-0.02668 -0.181391,0.210192 -0.209771,-0.351383 0.0044,-0.243982 0.06549,-0.127856 0.0889,-0.187958 -0.04583,-0.02756 -0.166692,-0.214634 -0.240037,-0.573304 0.05282,-0.08447 0.14224,0.218547 0.214734,0.230814 -0.04668,-0.28506 -0.126855,-0.502532 -0.13028,-0.721435 -0.211996,-0.460569 -0.07505,0.06153 -0.246704,-0.197743 -0.225669,-0.731576 0.18704,-0.169827 0.215073,-0.502002 0.341589,0.514806 0.536313,1.3133 0.62607,1.643755 -0.06838,-0.403122 -0.178661,-0.793812 -0.313556,-1.171689 0.104116,0.0457 -0.16737,-0.829238 0.135226,-0.249839 -0.324251,-1.234884 -1.382204,-2.3888709 -2.355785,-2.9302549 0.119113,0.113323 0.269658,0.255514 0.215892,0.27793 -0.484723,-0.299601 -0.399524,-0.323259 -0.469006,-0.449898 -0.394561,-0.166924 -0.420203,0.01373 -0.68159,4.13e-4 -0.743627,-0.410442 -0.886728,-0.366851 -1.570798,-0.6236875 l 0.03113,0.1515135 c -0.492548,-0.1707122 -0.573925,0.06437 -1.106177,3.56e-4 -0.03231,-0.02613 0.170629,-0.095307 0.337825,-0.1203871 -0.47631,0.065443 -0.454084,-0.097797 -0.920145,0.017963 0.11472,-0.083759 0.236447,-0.1394198 0.358851,-0.2105404 -0.388257,0.024534 -0.927259,0.2350908 -0.760956,0.043394 -0.633423,0.2941175 -1.758567,0.7068515 -2.389947,1.3226475 l -0.01984,-0.137997 c -0.28927,0.361159 -1.261519,1.0787139 -1.339025,1.5469759 l -0.07745,0.01867 c -0.150272,0.265134 -0.247895,0.565488 -0.367231,0.83809 -0.196776,0.349066 -0.288592,0.13444 -0.260551,0.189207 -0.387232,0.816584 -0.579905,1.50264 -0.745918,2.065613 0.118311,0.184046 0.003,1.108245 0.04753,1.847819 -0.1942109,3.653286 2.464971,7.19995 5.371652,8.018684 0.426043,0.158801 1.059442,0.15311 1.598344,0.168751 -0.63564,-0.189207 -0.717712,-0.10012 -1.337288,-0.324706 -0.446723,-0.219085 -0.544519,-0.468923 -0.861086,-0.754695 l 0.125316,0.230285 c -0.62057,-0.228496 -0.360879,-0.282734 -0.865934,-0.449003 l 0.13387,-0.181556 c -0.200176,-0.01572 -0.531871,-0.352375 -0.62286,-0.539316 l -0.220202,0.0091 C 12.969766,21.83444 12.828725,21.589581 12.839147,21.399844 l -0.07113,0.131951 c -0.08052,-0.143862 -0.972919,-1.272852 -0.509985,-1.009977 -0.08599,-0.08144 -0.200365,-0.132836 -0.324317,-0.36738 l 0.09421,-0.11185 c -0.222427,-0.298212 -0.409972,-0.680357 -0.395604,-0.807684 0.118815,0.166791 0.201226,0.1981 0.282951,0.226728 -0.562642,-1.451769 -0.594273,-0.07985 -1.02015,-1.477742 l 0.08992,-0.0074 c -0.0689,-0.108702 -0.111122,-0.225887 -0.166518,-0.341294 l 0.03932,-0.406332 c -0.404735,-0.487204 -0.113074,-2.071237 -0.05443,-2.939768 0.04012,-0.353202 0.337982,-0.729565 0.5638,-1.319338 l -0.137792,-0.02453 c 0.263619,-0.477998 1.50479,-1.920361 2.079923,-1.84633 0.2785,-0.363831 -0.0554,-0.0014 -0.109931,-0.09283 0.611883,-0.658494 0.804217,-0.465192 1.2171,-0.583801 0.445018,-0.274736 -0.382104,0.1074 -0.171134,-0.104744 0.769857,-0.20432 0.545371,-0.4648379 1.549458,-0.5685069 0.105994,0.06259 -0.245678,0.09674 -0.333896,0.1780069 0.641116,-0.3264839 2.029217,-0.2519809 2.931247,0.181027 1.045711,0.50876 2.221535,2.011929 2.268022,3.426227 l 0.05282,0.01476 c -0.02667,0.562287 0.08275,1.212551 -0.107193,1.809686 l 0.128394,-0.282917 m -4.45597,-7.2062391 c 0.148999,0.026999 0.321902,0.047918 0.297071,0.084239 0.163564,-0.036702 0.200349,-0.069788 -0.297071,-0.084239 m 3.10851,6.9935701 c 0.03398,-0.511697 -0.09877,-0.349687 -0.143398,-0.15478 0.0519,0.02776 0.09317,0.360903 0.143398,0.15478 m -0.553245,1.464921 c 0.166741,-0.233693 0.287731,-0.489256 0.330488,-0.75357 -0.03753,0.188248 -0.137426,0.350828 -0.232278,0.522723 -0.521499,0.334475 -0.04929,-0.198513 -3.73e-4,-0.40141 -0.560525,0.719342 -0.0773,0.431262 -0.09784,0.632249 m -1.496932,0.38011 c -0.278955,0.0038 0.05247,0.146037 0.416753,0.203269 0.101015,-0.08024 0.191755,-0.160868 0.273165,-0.23959 -0.226487,0.05647 -0.457268,0.0578 -0.689918,0.03632"
       style="fill:#ffffff;stroke-width:0.82717162"
       inkscape:connector-curvature="0" />
  </g>
</svg>
